<svg width="512" height="513" viewBox="0 0 512 513" fill="none" xmlns="http://www.w3.org/2000/svg">
<g clip-path="url(#clip0_795_4342)">
<path d="M256 508.003C394.86 508.003 507.428 395.434 507.428 256.575C507.428 117.715 394.86 5.14648 256 5.14648C117.14 5.14648 4.57193 117.715 4.57193 256.575C4.57193 395.434 117.14 508.003 256 508.003Z" fill="#231F20"/>
<path d="M256 512.575C114.839 512.575 0 397.735 0 256.575C0 115.414 114.839 0.574707 256 0.574707C397.161 0.574707 512 115.414 512 256.575C512 397.735 397.161 512.575 256 512.575ZM256 9.71859C119.887 9.71859 9.14389 120.462 9.14389 256.575C9.14389 392.687 119.887 503.431 256 503.431C392.113 503.431 502.856 392.687 502.856 256.575C502.856 120.462 392.113 9.71859 256 9.71859Z" fill="#F7B5CD"/>
<path d="M389.495 423.833L386.596 410.751L383.712 423.84L370.587 426.724L383.719 429.595L386.618 442.676L389.495 429.595L402.627 426.703L389.495 423.833Z" fill="#F7B5CD"/>
<path d="M128.281 423.833L125.382 410.751L122.505 423.84L109.38 426.724L122.505 429.595L125.404 442.676L128.288 429.595L141.413 426.703L128.281 423.833Z" fill="#F7B5CD"/>
<path d="M256 437.39C355.862 437.39 436.815 356.436 436.815 256.575C436.815 156.713 355.862 75.7593 256 75.7593C156.138 75.7593 75.1847 156.713 75.1847 256.575C75.1847 356.436 156.138 437.39 256 437.39Z" fill="#231F20"/>
<path d="M256 439.676C155.042 439.676 72.8987 357.533 72.8987 256.575C72.8987 155.617 155.042 73.4736 256 73.4736C356.958 73.4736 439.101 155.617 439.101 256.575C439.101 357.533 356.958 439.676 256 439.676ZM256 78.0456C157.559 78.0456 77.4707 158.134 77.4707 256.575C77.4707 355.016 157.559 435.104 256 435.104C354.441 435.104 434.529 355.016 434.529 256.575C434.529 158.134 354.441 78.0456 256 78.0456Z" fill="#F7B5CD"/>
<path d="M126.644 106.271V253.755C126.645 294.201 138.122 333.816 159.744 367.998C181.366 402.179 212.243 429.523 248.789 446.851L256.281 450.399L264.214 446.592C300.502 429.158 331.126 401.828 352.56 367.749C373.994 333.671 385.365 294.23 385.363 253.972V106.271H126.644Z" fill="#231F20"/>
<path d="M345.91 363.626C366.573 330.801 377.53 292.802 377.517 254.015V114.116H134.497V253.798C134.494 292.768 145.55 330.939 166.382 363.874C187.214 396.808 216.965 423.154 252.178 439.849L256.267 441.789L260.81 439.626C295.778 422.828 325.281 396.48 345.91 363.626ZM258.812 435.472L256.245 436.705L254.125 435.703C219.696 419.381 190.606 393.623 170.238 361.422C149.869 329.221 139.058 291.901 139.062 253.798V118.717H372.938V254.015C372.94 291.94 362.228 329.094 342.037 361.198C321.846 393.301 292.997 419.048 258.812 435.472Z" fill="#F7B5CD"/>
<path d="M256 233.145C249.048 233.145 243.02 230.066 240.135 225.595C240.139 229.803 241.814 233.837 244.792 236.809C247.77 239.782 251.807 241.449 256.014 241.446C260.222 241.442 264.256 239.767 267.228 236.789C270.201 233.811 271.869 229.774 271.865 225.566C268.98 230.066 262.952 233.145 256 233.145Z" fill="#F7B5CD"/>
<path d="M287.859 225.566L271.995 219.018L283.28 209.024L267.927 213.033L271.951 197.889L260.226 208.8L256 193.721L251.774 208.807L240.049 197.897L244.073 213.04L228.72 209.031L240.005 219.076L224.141 225.624H240.135C240.135 221.416 241.807 217.381 244.782 214.406C247.757 211.431 251.792 209.759 256 209.759C260.208 209.759 264.243 211.431 267.218 214.406C270.193 217.381 271.865 221.416 271.865 225.624L287.859 225.566Z" fill="#F7B5CD"/>
<path d="M324.738 221.045C323.26 219.56 321.502 218.382 319.566 217.58C317.63 216.778 315.555 216.367 313.459 216.372H306.479C305.281 216.388 304.122 215.951 303.233 215.148C302.344 214.346 301.791 213.238 301.683 212.045C301.641 211.411 301.729 210.774 301.943 210.175C302.156 209.576 302.49 209.027 302.924 208.562C303.358 208.097 303.882 207.726 304.465 207.472C305.048 207.217 305.677 207.085 306.313 207.084H348.528L315.428 201.098C315.091 200.172 314.476 199.373 313.669 198.808C312.861 198.242 311.899 197.94 310.914 197.94H283.172L296.765 201.762C295.401 203.063 294.318 204.63 293.583 206.367C292.849 208.103 292.479 209.972 292.496 211.858C292.579 215.528 294.103 219.019 296.738 221.576C299.373 224.133 302.908 225.55 306.58 225.523H313.459C314.549 225.5 315.627 225.748 316.596 226.244C317.925 226.936 318.99 228.046 319.625 229.403C320.261 230.76 320.431 232.289 320.111 233.752C319.791 235.216 318.998 236.534 317.855 237.502C316.711 238.47 315.28 239.035 313.784 239.109H292.237C286.347 239.105 280.556 240.627 275.429 243.526C270.302 246.425 266.013 250.603 262.981 255.652C260.02 260.646 258.477 266.353 258.517 272.158L282.35 248.361H289.561L258.553 279.37V290.374L300.58 248.354H307.791L258.582 297.564V309.981L320.714 247.856L324.94 243.494C327.88 240.492 329.515 236.451 329.491 232.25C329.467 228.048 327.784 224.027 324.81 221.059L324.738 221.045ZM305.217 201.005H310.726V204.055H305.217V201.005Z" fill="white"/>
<path d="M182.582 232.338C182.577 236.505 184.211 240.507 187.132 243.479L191.358 247.842L253.49 309.967V297.564L204.274 248.354H211.485L253.512 290.374V279.37L222.504 248.361H229.715L253.548 272.158C253.588 266.353 252.045 260.646 249.084 255.652C246.052 250.603 241.763 246.425 236.636 243.526C231.509 240.627 225.718 239.105 219.828 239.109H198.216C196.736 239.016 195.326 238.442 194.201 237.475C193.076 236.508 192.296 235.201 191.981 233.752C191.665 232.302 191.831 230.79 192.453 229.443C193.074 228.096 194.118 226.988 195.425 226.288C196.395 225.791 197.473 225.543 198.562 225.566H205.442C209.116 225.588 212.651 224.163 215.282 221.599C217.913 219.035 219.43 215.538 219.504 211.865C219.521 209.98 219.151 208.111 218.417 206.374C217.682 204.638 216.599 203.07 215.235 201.769L228.828 197.947H201.115C200.129 197.947 199.168 198.25 198.36 198.815C197.552 199.38 196.938 200.18 196.601 201.106L163.501 207.091H205.716C206.352 207.093 206.981 207.225 207.564 207.479C208.147 207.733 208.671 208.104 209.105 208.569C209.539 209.034 209.873 209.583 210.086 210.182C210.3 210.781 210.388 211.418 210.345 212.053C210.238 213.245 209.685 214.354 208.796 215.156C207.907 215.958 206.747 216.395 205.55 216.379H198.541C194.308 216.381 190.248 218.064 187.256 221.058C184.263 224.052 182.582 228.112 182.582 232.345V232.338ZM206.783 204.055H201.274V201.005H206.783V204.055Z" fill="white"/>
<path d="M301.993 294.131V273.521L297.422 278.1V292.234L288.047 301.609V287.475L283.475 292.047V306.188L256.029 333.627L228.597 306.174V292.14L224.025 287.583V301.609L214.651 292.234V278.208L210.071 273.629V294.131L224.011 308.063V380.789H210.007V385.361H228.597V312.642L252.805 336.85L240.719 348.944L256.05 364.253L271.367 348.944L259.274 336.85L283.489 312.642V385.361H301.993V380.789H288.061V308.063L301.993 294.131ZM264.899 348.936L256.05 357.785L247.188 348.929L256.043 340.074L264.899 348.936Z" fill="#F7B5CD"/>
<path d="M227.321 144.425H218.047V176.551H227.321V144.425Z" fill="#F7B5CD"/>
<path d="M200.387 144.425V144.44L200.372 144.425L187.507 157.29L174.657 144.44V144.425H174.65H174.642H165.376V176.559H174.657V156.973L187.507 169.823L200.387 156.944V176.559H209.66V144.425H200.387Z" fill="#F7B5CD"/>
<path d="M262.591 144.425H249.409L233.587 176.53H243.452L247.779 167.804L256 176.076L264.242 167.833L268.569 176.559H278.434L262.591 144.425ZM256 165.547L251.226 160.773L256 151.074L260.774 160.773L256 165.547Z" fill="#F7B5CD"/>
<path d="M346.617 144.425H337.343V176.551H346.617V144.425Z" fill="#F7B5CD"/>
<path d="M319.683 144.425V144.44L319.668 144.425L306.803 157.29L293.953 144.44V144.425H293.946H293.938H284.672V176.559H293.953V156.973L306.803 169.823L319.683 156.944V176.559H328.956V144.425H319.683Z" fill="#F7B5CD"/>
<path d="M80.4705 380.998C77.7394 382.634 74.5435 383.321 71.3811 382.951C68.2187 382.582 65.2677 381.176 62.988 378.953C60.7084 376.73 59.2284 373.815 58.7788 370.663C58.3292 367.511 58.9353 364.299 60.5025 361.527L65.8605 364.578C64.907 366.163 64.5148 368.024 64.747 369.859C64.9792 371.695 65.8222 373.399 67.1405 374.698C68.4587 375.996 70.1755 376.813 72.0144 377.017C73.8534 377.222 75.7076 376.801 77.2786 375.824C78.8496 374.846 80.0461 373.369 80.6754 371.629C81.3047 369.889 81.3303 367.988 80.7481 366.231C80.1658 364.475 79.0095 362.966 77.4654 361.946C75.9213 360.927 74.0791 360.457 72.2353 360.612L71.8747 354.453C75.0491 354.284 78.1905 355.168 80.8106 356.968C83.4307 358.768 85.3826 361.384 86.3629 364.408C87.3432 367.432 87.297 370.695 86.2314 373.69C85.1658 376.685 83.1406 379.244 80.4705 380.969V380.998Z" fill="white"/>
<path d="M47.0031 349.398L44.7099 343.687L64.7428 335.581L60.4737 325.024L65.9326 322.817L72.5165 339.079L47.0031 349.398Z" fill="white"/>
<path d="M52.4836 316.789L36.3232 320.64L34.8809 314.647L51.1207 310.782C54.3225 310.017 55.7936 307.522 55.0869 304.544C54.3802 301.566 51.9356 300.001 48.7338 300.765L32.494 304.631L31.0517 298.638L47.2482 294.794C53.9114 293.208 59.3776 296.763 60.9064 303.167C62.4352 309.57 59.1324 315.202 52.4836 316.789Z" fill="white"/>
<path d="M28.4412 279.276L27.8499 268.957C27.7278 266.795 28.4689 264.673 29.9103 263.057C31.3516 261.441 33.3755 260.464 35.5371 260.339C36.4158 260.28 37.2973 260.401 38.1279 260.693C38.9585 260.986 39.7209 261.444 40.3687 262.041C40.9079 260.813 41.7812 259.761 42.8891 259.005C43.9971 258.249 45.2951 257.819 46.6353 257.765C47.718 257.708 48.8013 257.868 49.8213 258.235C50.8412 258.603 51.7773 259.172 52.5743 259.907C53.3712 260.642 54.0131 261.529 54.4619 262.516C54.9108 263.503 55.1576 264.57 55.1878 265.654L55.909 277.711L28.4412 279.276ZM38.9841 269.022C38.9768 268.653 38.8958 268.29 38.746 267.953C38.5962 267.617 38.3805 267.314 38.1117 267.062C37.8429 266.81 37.5264 266.614 37.1809 266.486C36.8353 266.358 36.4677 266.301 36.0996 266.317C35.7274 266.339 35.3632 266.435 35.0286 266.6C34.694 266.764 34.3957 266.994 34.1511 267.276C33.9066 267.557 33.7208 267.885 33.6046 268.239C33.4884 268.593 33.4443 268.967 33.4747 269.339L33.6766 272.815L39.1644 272.497L38.9841 269.022ZM49.5775 266.476C49.5763 266.1 49.4981 265.728 49.3479 265.384C49.1976 265.039 48.9784 264.729 48.7038 264.472C48.4291 264.216 48.1049 264.018 47.751 263.891C47.397 263.765 47.0209 263.712 46.6458 263.736C46.2706 263.76 45.9044 263.861 45.5697 264.032C45.2349 264.203 44.9387 264.44 44.6992 264.73C44.4598 265.02 44.2822 265.356 44.1773 265.717C44.0725 266.078 44.0427 266.456 44.0897 266.829L44.3926 272.202L49.8803 271.884L49.5775 266.476Z" fill="white"/>
<path d="M30.5686 218.997L31.6503 212.932L58.7214 217.793L57.6325 223.85L30.5686 218.997Z" fill="white"/>
<path d="M68.507 183.691L48.0559 190.743L64.101 196.339L62.0746 202.151L36.1068 193.116L37.8519 188.068L58.2598 181.037L42.2508 175.455L44.2916 169.607L70.2522 178.657L68.507 183.691Z" fill="white"/>
<path d="M60.3655 150.245L56.9258 156.338L51.8058 153.454L61.7573 135.779L66.8773 138.663L63.4087 144.836L82.2301 155.437L79.1869 160.831L60.3655 150.245Z" fill="white"/>
<path d="M71.0887 122.092L81.8335 108.39L86.4631 111.996L79.5114 120.858L83.3839 123.894L88.9005 116.856L93.5301 120.462L88.0135 127.5L91.886 130.536L98.8304 121.724L103.46 125.329L92.7153 139.031L71.0887 122.092Z" fill="white"/>
<path d="M96.2199 92.951L104.297 85.7397C108.162 82.2783 113.123 82.8552 116.166 86.2301C118.546 88.8838 118.654 91.8549 116.887 95.1L132.204 97.6455L126.702 102.578L112.323 100.22L111.602 100.891L119.166 109.342L114.58 113.453L96.2199 92.951ZM111.054 94.3211C112.409 93.1096 112.69 91.4366 111.63 90.2684C110.57 89.1002 108.897 89.1867 107.542 90.3982L104.563 93.052L108.075 96.9821L111.054 94.3211Z" fill="white"/>
<path d="M158.59 80.5619L138.348 72.918L147.11 87.4775L141.838 90.6505L127.639 67.1057L132.183 64.3726L152.374 72.0022L143.62 57.4787L148.927 54.2769L163.112 77.8216L158.59 80.5619Z" fill="white"/>
<path d="M176.388 42.3279L181.637 40.4458L201.988 62.3536L195.937 64.517L191.683 59.873L181.003 63.7166L180.664 70.0048L174.614 72.1682L176.388 42.3279ZM187.767 55.6039L181.731 48.9695L181.284 57.9259L187.767 55.6039Z" fill="white"/>
<path d="M210.439 46.2653C210.017 43.1146 210.647 39.9125 212.232 37.157C213.817 34.4014 216.268 32.2467 219.204 31.0279C222.14 29.8091 225.397 29.5945 228.467 30.4174C231.538 31.2402 234.25 33.0545 236.183 35.5782L231.273 39.2992C230.192 37.7952 228.637 36.6985 226.857 36.1858C225.077 35.673 223.177 35.7739 221.462 36.4723C219.747 37.1707 218.316 38.426 217.401 40.036C216.486 41.646 216.139 43.5172 216.416 45.3483C216.694 47.1794 217.579 48.8639 218.93 50.1307C220.281 51.3976 222.019 52.1729 223.864 52.3321C225.709 52.4913 227.554 52.0249 229.102 51.0082C230.65 49.9914 231.811 48.4834 232.398 46.7268L238.167 48.8181C237.071 51.8018 235.02 54.3398 232.333 56.0377C229.645 57.7356 226.473 58.4983 223.308 58.2072C220.142 57.9161 217.162 56.5875 214.83 54.4279C212.497 52.2684 210.944 49.3988 210.41 46.2653H210.439Z" fill="white"/>
<path d="M253.115 28.0859H259.267V55.5753H253.108L253.115 28.0859Z" fill="white"/>
<path d="M274.216 42.1333C274.628 39.3525 275.856 36.7566 277.745 34.6742C279.633 32.5918 282.097 31.1165 284.824 30.435C287.552 29.7535 290.42 29.8965 293.066 30.8459C295.712 31.7952 298.017 33.5083 299.689 35.7682C301.361 38.0282 302.324 40.7333 302.458 43.5413C302.592 46.3493 301.89 49.1338 300.44 51.5425C298.991 53.9511 296.859 55.8756 294.315 57.0723C291.772 58.2689 288.93 58.684 286.15 58.2649C282.431 57.7023 279.087 55.6886 276.85 52.6649C274.613 49.6412 273.666 45.8541 274.216 42.1333ZM296.152 45.436C296.337 43.8765 296.058 42.297 295.351 40.8948C294.644 39.4925 293.54 38.3295 292.176 37.5508C290.812 36.772 289.249 36.4121 287.682 36.5159C286.115 36.6196 284.613 37.1824 283.364 38.1341C282.115 39.0859 281.173 40.3843 280.657 41.8676C280.141 43.3508 280.073 44.9532 280.462 46.4748C280.851 47.9964 281.679 49.3699 282.843 50.424C284.007 51.4781 285.456 52.1661 287.008 52.4021C289.144 52.6853 291.305 52.1115 293.018 50.8061C294.731 49.5007 295.858 47.57 296.152 45.436Z" fill="white"/>
<path d="M330.19 69.5721L323.26 49.0632L317.563 65.0794L311.758 63.017L320.981 37.1069L325.949 38.8881L332.851 59.3465L338.54 43.3663L344.374 45.4432L335.158 71.346L330.19 69.5721Z" fill="white"/>
<path d="M370.248 58.647L375.036 61.4954L371.106 91.1337L365.611 87.831L366.484 81.5932L356.705 75.7809L351.657 79.5236L346.09 76.2929L370.248 58.647ZM367.255 75.8747L368.532 66.9904L361.321 72.3556L367.255 75.8747Z" fill="white"/>
<path d="M398.545 77.8145L403.225 81.8167L389.178 98.2368L397.831 105.643L394.002 110.114L380.668 98.7055L398.545 77.8145Z" fill="white"/>
<path d="M436.137 115.602L441.56 123.238C442.638 124.709 443.412 126.379 443.837 128.151C444.263 129.923 444.332 131.763 444.04 133.562C443.748 135.361 443.101 137.084 442.137 138.631C441.173 140.178 439.911 141.518 438.424 142.572C436.937 143.627 435.256 144.375 433.477 144.774C431.698 145.172 429.858 145.213 428.064 144.893C426.269 144.574 424.556 143.9 423.024 142.912C421.492 141.925 420.172 140.642 419.141 139.139L413.725 131.495L436.137 115.602ZM423.756 135.872C426.438 139.658 431.248 140.091 434.854 137.538C438.46 134.985 439.635 130.327 436.952 126.512L435.092 123.887L421.895 133.262L423.756 135.872Z" fill="white"/>
<path d="M457.836 149.069L465.487 164.725L460.194 167.307L455.247 157.211L450.827 159.374L454.757 167.408L449.471 169.996L445.541 161.956L441.12 164.119L446.067 174.215L440.782 176.804L433.123 161.148L457.836 149.069Z" fill="white"/>
<path d="M477.436 199.498L481.093 216.026L475.323 217.295L473.016 206.817L468.177 207.891L469.994 216.098L464.225 217.367L462.408 209.161L451.901 211.49L450.567 205.476L477.436 199.498Z" fill="white"/>
<path d="M466.785 232.056L483.371 231.032L483.753 237.176L467.095 238.207C463.807 238.409 461.925 240.623 462.112 243.674C462.3 246.724 464.442 248.685 467.723 248.484L484.388 247.459L484.763 253.604L468.177 254.627C461.341 255.053 456.56 250.611 456.156 244.041C455.752 237.472 459.942 232.482 466.785 232.056ZM492.53 242.657L492.926 249.068L486.559 244.618L486.292 240.328L492.53 242.657Z" fill="white"/>
<path d="M477.876 274.826L478.54 267.846L484.395 268.401L482.477 288.593L476.622 288.03L477.292 280.977L455.788 278.929L456.372 272.764L477.876 274.826Z" fill="white"/>
<path d="M479.679 304.27L477.119 314.265C476.582 316.363 475.234 318.163 473.37 319.268C471.507 320.373 469.281 320.692 467.182 320.156C466.328 319.945 465.526 319.563 464.824 319.032C464.123 318.502 463.536 317.834 463.1 317.07C462.209 318.07 461.057 318.802 459.773 319.184C458.489 319.566 457.124 319.583 455.831 319.233C454.782 318.962 453.797 318.484 452.936 317.826C452.074 317.168 451.354 316.344 450.816 315.403C450.278 314.462 449.934 313.423 449.805 312.347C449.675 311.27 449.763 310.179 450.062 309.137L453.055 297.434L479.679 304.27ZM455.658 310.082C455.554 310.437 455.521 310.81 455.564 311.178C455.606 311.545 455.721 311.901 455.904 312.223C456.086 312.546 456.331 312.828 456.625 313.053C456.918 313.279 457.254 313.443 457.613 313.536C457.977 313.622 458.355 313.634 458.724 313.571C459.093 313.508 459.446 313.371 459.761 313.17C460.076 312.968 460.348 312.705 460.56 312.396C460.772 312.088 460.92 311.74 460.995 311.373L462.329 306.159L457 304.796L455.658 310.082ZM466.526 310.861C466.422 311.213 466.389 311.583 466.429 311.948C466.469 312.313 466.582 312.666 466.761 312.987C466.939 313.308 467.18 313.59 467.469 313.817C467.758 314.044 468.09 314.211 468.444 314.308C468.805 314.399 469.18 314.417 469.548 314.361C469.916 314.305 470.27 314.177 470.587 313.983C470.905 313.789 471.181 313.533 471.398 313.231C471.616 312.929 471.771 312.587 471.855 312.224L472.713 308.842L467.391 307.486L466.526 310.861Z" fill="white"/>
<path d="M457.043 333.519C459.594 334.696 461.739 336.604 463.206 339C464.674 341.396 465.397 344.174 465.286 346.982C465.174 349.789 464.233 352.501 462.58 354.773C460.928 357.046 458.638 358.777 456.002 359.748C453.365 360.72 450.5 360.887 447.768 360.23C445.036 359.573 442.56 358.12 440.654 356.056C438.748 353.992 437.496 351.409 437.058 348.633C436.62 345.858 437.015 343.015 438.193 340.463C439.772 337.043 442.645 334.39 446.18 333.088C449.715 331.785 453.622 331.941 457.043 333.519ZM447.748 353.66C449.195 354.273 450.79 354.447 452.335 354.158C453.88 353.87 455.306 353.133 456.434 352.039C457.563 350.946 458.344 349.544 458.68 348.008C459.017 346.473 458.893 344.873 458.325 343.407C457.758 341.942 456.771 340.676 455.488 339.769C454.205 338.861 452.683 338.351 451.112 338.303C449.541 338.255 447.991 338.671 446.655 339.499C445.319 340.327 444.257 341.53 443.601 342.959C442.743 344.929 442.697 347.158 443.474 349.162C444.25 351.166 445.786 352.782 447.748 353.66Z" fill="white"/>
<path d="M448.923 379.282L445.44 384.33L427.628 372.143L421.189 381.517L416.343 378.193L426.258 363.734L448.923 379.282Z" fill="white"/>
<path d="M189.721 457.95L185.063 474.608L179.214 472.61L186.685 446L192.115 447.818L197.12 461.375L208.449 452.397L214.03 453.673L206.552 480.355L200.524 478.913L205.197 462.233L194.473 470.822L189.721 457.95Z" fill="white"/>
<path d="M231.619 466.848L230.407 484.155L224.27 483.326L226.217 455.721L231.878 456.442L239.537 468.745L248.911 457.567L254.572 457.668L252.632 485.338L246.431 485.266L247.642 467.959L238.873 478.48L231.619 466.848Z" fill="white"/>
<path d="M279.876 474.355L273.833 484.71L266.889 485.165L275.636 470.021L264.315 457.459L271.663 456.94L278.752 464.872L283.799 455.577L291.112 454.373L282.97 469.177L294.941 481.963L288.119 483.095L279.876 474.355Z" fill="white"/>
<path d="M316.64 466.891L312.435 478.141L305.671 479.792L311.721 463.329L298.381 452.851L305.549 451.098L313.906 457.718L317.346 447.623L324.312 445.192L318.817 461.223L332.786 471.809L326.202 474.059L316.64 466.891Z" fill="white"/>
</g>
<defs>
<clipPath id="clip0_795_4342">
<rect width="512" height="512" fill="white" transform="translate(0 0.574707)"/>
</clipPath>
</defs>
</svg>
