<svg width="1025" height="250" viewBox="0 0 1025 250" fill="none" xmlns="http://www.w3.org/2000/svg">
<path d="M85.904 98.4185V88.7357C82.5428 88.203 79.1478 87.9113 75.745 87.8625C42.8013 87.793 13.635 109.141 3.74244 140.564C-6.1501 171.988 5.52692 206.194 32.5693 225.009C12.3126 203.33 6.68801 171.77 18.2079 144.428C29.7278 117.085 56.2408 99.0656 85.904 98.4185Z" fill="#25F4EE"/>
<path d="M87.7292 208.103C106.148 208.078 121.289 193.567 122.095 175.166V10.9552H152.096C151.483 7.52401 151.191 4.04336 151.223 0.558105H110.19V164.61C109.508 183.105 94.3319 197.755 75.8241 197.785C70.2934 197.738 64.8529 196.378 59.9507 193.817C66.3946 202.745 76.7185 208.055 87.7292 208.103Z" fill="#25F4EE"/>
<path d="M208.129 66.6712V57.544C197.088 57.5478 186.292 54.2897 177.097 48.1787C185.158 57.5497 196.051 64.0411 208.129 66.6712Z" fill="#25F4EE"/>
<path d="M177.096 48.177C168.038 37.8619 163.045 24.6023 163.048 10.8745H152.096C154.955 26.2137 163.995 39.7025 177.096 48.177Z" fill="#FE2C55"/>
<path d="M75.745 128.894C59.9387 128.975 46.2161 139.803 42.462 155.158C38.7079 170.512 45.8859 186.451 59.8716 193.816C52.2935 183.354 51.223 169.525 57.1006 158.021C62.9782 146.517 74.8109 139.281 87.7294 139.291C91.174 139.334 94.5949 139.868 97.8884 140.878V99.1311C94.525 98.6271 91.1302 98.3619 87.7294 98.3374H85.904V130.084C82.5933 129.197 79.1711 128.796 75.745 128.894Z" fill="#FE2C55"/>
<path d="M208.13 66.6719V98.4187C187.69 98.3792 167.781 91.9095 151.223 79.9262V163.341C151.136 204.964 117.369 238.66 75.7453 238.66C60.2874 238.688 45.202 233.918 32.5696 225.009C53.6512 247.683 86.4603 255.146 115.276 243.824C144.091 232.501 163.042 204.698 163.049 173.738V90.5614C179.663 102.466 199.596 108.852 220.035 108.816V67.9417C216.033 67.929 212.044 67.5035 208.13 66.6719Z" fill="#FE2C55"/>
<path d="M151.223 163.339V79.9239C167.831 91.8384 187.768 98.2248 208.208 98.1783V66.4315C196.132 63.8815 185.213 57.4747 177.096 48.177C163.995 39.7025 154.954 26.2137 152.096 10.8745H122.095V175.164C121.495 189.822 111.677 202.491 97.6339 206.73C83.5905 210.97 68.4025 205.851 59.7916 193.974C45.8059 186.609 38.628 170.67 42.3821 155.316C46.1362 139.962 59.8587 129.133 75.6651 129.052C79.1107 129.083 82.5333 129.618 85.8241 130.639V98.8926C55.9945 99.3979 29.2812 117.48 17.7285 144.986C6.17591 172.493 11.9665 204.227 32.4894 225.88C45.2463 234.495 60.3537 238.958 75.7444 238.658C117.368 238.658 151.135 204.962 151.223 163.339Z" fill="black"/>
<path d="M260.511 58.8125H388.451L376.705 95.7976H343.529V230.722H302.02V95.7976H260.591L260.511 58.8125Z" fill="black"/>
<path d="M597.98 58.8125H728.857L717.11 95.7976H681.078V230.722H639.648V95.7976H598.06L597.98 58.8125Z" fill="black"/>
<path d="M396.229 113.498H437.262V230.723H396.546L396.229 113.498Z" fill="black"/>
<path d="M453.532 58.3359H494.485V138.417L535.121 98.7338H584.011L532.661 148.576L590.202 230.721H545.042L506.628 173.656L494.485 185.403V230.721H453.532V58.3359Z" fill="black"/>
<path d="M887.591 58.3359H929.021V138.417L969.577 98.7338H1018.47L967.117 148.576L1024.26 230.721H979.101L940.767 173.656L929.021 185.403V230.721H887.988L887.591 58.3359Z" fill="black"/>
<path d="M416.785 100.083C428.182 100.083 437.42 90.8446 437.42 79.4479C437.42 68.0513 428.182 58.8125 416.785 58.8125C405.388 58.8125 396.15 68.0513 396.15 79.4479C396.15 90.8446 405.388 100.083 416.785 100.083Z" fill="black"/>
<path d="M723.619 160.563C723.631 123.948 751.799 93.4986 788.303 90.6406C786.477 90.6406 784.017 90.6406 782.191 90.6406C745.093 92.8046 716.116 123.52 716.116 160.682C716.116 197.844 745.093 228.56 782.191 230.724C784.017 230.724 786.477 230.724 788.303 230.724C751.708 227.859 723.507 197.27 723.619 160.563Z" fill="#25F4EE"/>
<path d="M804.255 90.4C802.35 90.4 799.89 90.4 798.065 90.4C834.45 93.4053 862.45 123.813 862.45 160.322C862.45 196.832 834.45 227.24 798.065 230.245C799.89 230.245 802.35 230.245 804.255 230.245C843.004 230.245 874.416 198.833 874.416 160.084C874.416 121.336 843.004 89.9238 804.255 89.9238V90.4Z" fill="#FE2C55"/>
<path d="M793.144 194.689C774.296 194.689 759.016 179.409 759.016 160.561C759.016 141.713 774.296 126.433 793.144 126.433C811.992 126.433 827.272 141.713 827.272 160.561C827.228 179.391 811.974 194.645 793.144 194.689ZM793.144 90.4004C754.396 90.4004 722.984 121.812 722.984 160.561C722.984 199.309 754.396 230.721 793.144 230.721C831.893 230.721 863.305 199.309 863.305 160.561C863.305 141.953 855.913 124.108 842.755 110.95C829.597 97.7923 811.752 90.4004 793.144 90.4004Z" fill="black"/>
</svg>
