<svg width="1025" height="106" viewBox="0 0 1025 106" fill="none" xmlns="http://www.w3.org/2000/svg">
<g clip-path="url(#clip0_761_549)">
<path d="M1.6509 103.067L91.0134 47.429H137.39C138.82 47.429 140.129 48.5599 140.129 50.1708C140.129 51.4791 139.533 52.0171 138.82 52.4328L94.9413 78.7634C92.0833 80.4904 91.0715 83.8864 91.0715 86.448L91.0134 103.067H146.799V6.62181C146.799 4.77555 145.368 3.16772 143.225 3.16772H90.0016L0.876953 58.5677V103.067H1.6509Z" fill="black"/>
<path d="M734.406 103.07H814.78V81.4441H759.887V63.3361H804.063V41.6517H759.887V24.794H814.78V3.16772H734.406V103.07Z" fill="black"/>
<path d="M229.373 3.16772L191.09 103.07H217.406L224.072 84.3633H266.821L273.368 103.07H300.576L261.82 3.16772H229.373ZM231.635 63.0977L245.625 23.9595L259.377 63.0977H231.635Z" fill="black"/>
<path d="M409.762 24.794H441.97V103.07H467.393V24.794H499.482V3.16772H409.762V24.794Z" fill="black"/>
<path d="M372.733 64.5863C372.733 77.5743 364.755 82.8166 351.122 82.8166C337.904 82.8166 329.272 77.3359 329.272 64.5863V2.81006H303.792V67.5055C303.792 96.3364 329.511 105.332 351.061 105.332C372.494 105.332 398.094 96.3364 398.094 67.5055V2.81006H372.613V64.5863H372.733Z" fill="black"/>
<path d="M1024.88 3.16772H994.573L958.259 43.7365V3.16772H932.775L932.894 103.07H958.259V65.1243L992.668 103.07H1024.88L978.439 53.7441L1024.88 3.16772Z" fill="black"/>
<path d="M674.513 3.16772H627.837V103.07H674.513C710.295 103.07 720.177 89.7248 720.177 52.3747C720.177 17.2867 710.711 3.16772 674.513 3.16772ZM673.501 81.4441H653.26V24.794H673.501C689.457 24.794 694.22 29.1406 694.22 52.3747C694.22 73.5822 688.861 81.4441 673.501 81.4441Z" fill="black"/>
<path d="M891.757 44.2745L868.538 41.6518C854.963 40.1632 851.57 36.7672 851.57 32.179C851.57 27.056 858.536 22.4709 872.169 22.4709C885.267 22.4709 892.115 27.3556 893.365 34.6825H918.311C917.057 13.5331 899.377 0.428955 873.539 0.428955C842.819 0.428955 827.401 12.6406 827.401 34.2668C827.401 51.8399 837.641 60.1205 858.833 62.3825L882.409 64.8859C891.399 65.8977 895.507 69.3518 895.507 73.8788C895.507 79.0019 889.495 83.59 875.027 83.59C858.298 83.59 851.57 79.3595 850.439 70.8404H825.97C827.101 93.8361 842.045 105.571 874.135 105.571C903.424 105.571 919.796 92.7051 919.796 73.3439C919.796 56.4861 910.094 46.3592 891.757 44.2745Z" fill="black"/>
<path d="M558.719 0.428955C522.402 0.428955 503.591 22.7674 503.591 52.8516C503.591 83.055 522.402 105.513 558.719 105.513C595.155 105.513 613.969 83.055 613.969 52.8516C614.027 22.7674 595.155 0.428955 558.719 0.428955ZM558.719 83.0551C539.905 83.0551 529.548 71.5557 529.548 52.8516C529.548 34.5022 539.905 22.8867 558.719 22.8867C577.71 22.8867 587.892 34.5022 587.892 52.8516C587.95 71.6168 577.71 83.0551 558.719 83.0551Z" fill="black"/>
</g>
<defs>
<clipPath id="clip0_761_549">
<rect width="1024" height="105.142" fill="white" transform="translate(0.876953 0.428955)"/>
</clipPath>
</defs>
</svg>
