<svg width="1024" height="146" viewBox="0 0 1024 146" fill="none" xmlns="http://www.w3.org/2000/svg">
<g clip-path="url(#clip0_778_2178)">
<path d="M130.324 142.707V0.319824H162.756V142.707H130.324ZM760.782 89.5095C760.782 55.0993 734.084 33.7412 702.838 33.7412C671.394 33.7412 644.895 55.297 644.895 89.5095C644.895 123.92 671.592 145.475 702.838 145.475C734.084 145.475 760.782 123.722 760.782 89.5095ZM728.745 89.5095C728.745 107.506 716.681 117.591 702.64 117.591C688.599 117.591 676.536 107.506 676.536 89.5095C676.536 71.3156 688.599 61.6253 702.64 61.6253C716.681 61.6253 728.745 71.3156 728.745 89.5095ZM117.272 101.771C117.272 85.752 108.966 73.4909 94.1336 67.9537C108.175 60.241 113.119 50.1553 113.119 38.2897C113.119 17.5249 98.0888 0.319824 64.4697 0.517584H0V142.905H67.2383C101.055 142.707 117.272 125.897 117.272 101.771ZM78.7084 42.4427C78.7084 52.1329 72.5778 57.6702 60.7122 57.6702H33.8169V28.0062H60.7122C71.589 28.0062 78.7084 32.7524 78.7084 42.4427ZM81.6748 99.5952C81.6748 108.89 75.1487 115.02 63.0854 115.02H33.8169V84.17H63.0854C74.7532 84.17 81.6748 90.1028 81.6748 99.5952ZM399.672 62.8119C390.773 44.2225 374.161 33.939 349.046 33.939C319.382 33.939 292.882 52.5284 292.882 89.5095C292.882 125.502 316.218 145.475 348.65 145.475C371.393 145.475 390.576 136.379 399.672 116.8L373.568 103.353C368.822 112.054 361.505 117.591 349.837 117.591C334.807 117.591 325.117 106.912 325.117 89.5095C325.117 72.1066 336.192 61.6253 349.639 61.6253C360.121 61.6253 368.031 66.3716 372.975 76.6551L399.672 62.8119ZM877.658 62.8119C868.759 44.2225 852.147 33.939 827.031 33.939C797.367 33.939 770.868 52.5284 770.868 89.5095C770.868 125.502 794.203 145.475 826.636 145.475C849.378 145.475 868.561 136.379 877.658 116.8L851.554 103.353C846.807 112.054 839.49 117.591 827.822 117.591C812.793 117.591 803.102 106.912 803.102 89.5095C803.102 72.1066 814.177 61.6253 827.625 61.6253C838.106 61.6253 846.016 66.3716 850.96 76.6551L877.658 62.8119ZM605.738 142.707L578.645 94.849H557.88V142.707H524.459V0.319824H584.776C617.406 0.319824 640.148 15.9428 640.148 46.5956C640.148 66.1738 630.458 80.017 613.253 88.5207L644.499 142.707H605.738ZM558.078 66.5693H582.996C598.421 66.5693 605.936 57.8679 605.936 47.5844C605.936 35.3233 598.817 28.5995 582.996 28.5995H558.078V66.5693ZM287.543 140.927V118.58C286.158 118.976 284.181 119.371 282.005 119.371C277.852 119.371 275.677 117.196 275.677 113.438V76.4573C275.677 48.771 257.088 34.1367 226.435 34.1367C206.461 34.1367 189.454 41.4539 178.775 50.9463L196.771 71.1178C203.89 64.7895 213.383 60.8343 222.677 60.8343C236.916 60.8343 243.64 67.9537 243.64 79.6215V82.9834C236.916 81.4013 228.413 79.8192 218.129 79.8192C192.222 79.8192 175.413 92.2781 175.413 112.845C175.413 134.005 189.454 145.08 211.207 145.08C226.039 145.08 239.289 138.949 246.211 131.039C250.364 141.52 259.461 144.289 268.36 144.289C274.491 144.487 281.61 143.498 287.543 140.927ZM243.838 107.506C243.838 117.196 234.543 123.524 223.864 123.524C213.778 123.524 208.834 118.382 208.834 111.263C208.834 103.748 214.372 98.2109 225.644 98.2109C232.565 98.2109 238.696 99.3975 243.838 100.584V107.506ZM993.545 142.707L955.377 76.4573L991.172 37.4987H955.18L917.407 79.4237V0.517584H885.173V142.905H917.407V117.196L932.833 100.782L956.959 142.905H993.545V142.707ZM515.955 142.707L477.788 76.4573L513.582 37.4987H477.194L439.818 79.4237V0.517584H407.583V142.905H439.818V117.196L455.243 100.782L479.37 142.905H515.955V142.707ZM1013.32 122.931C1020.04 122.931 1024 127.084 1024 133.412C1024 139.74 1020.04 143.893 1013.32 143.893C1006.6 143.893 1002.64 139.74 1002.64 133.412C1002.64 127.084 1006.6 122.931 1013.32 122.931ZM1013.32 142.509C1018.66 142.509 1022.22 139.345 1022.22 133.412C1022.22 127.479 1018.46 124.315 1013.32 124.315C1007.98 124.315 1004.42 127.479 1004.42 133.412C1004.22 139.543 1007.98 142.509 1013.32 142.509ZM1009.17 128.073H1013.52C1016.09 128.073 1017.47 129.457 1017.47 131.435C1017.47 133.214 1016.68 134.203 1015.3 134.796L1017.28 138.554H1015.3L1013.52 135.192H1011.15V138.554H1009.17V128.073ZM1011.15 129.655V133.412H1013.32C1014.71 133.412 1015.5 133.017 1015.5 131.632C1015.5 130.446 1014.9 129.852 1013.52 129.852H1011.15V129.655Z" fill="black"/>
</g>
<defs>
<clipPath id="clip0_778_2178">
<rect width="1024" height="145.156" fill="white" transform="translate(0 0.319824)"/>
</clipPath>
</defs>
</svg>
