<svg width="1024" height="228" viewBox="0 0 1024 228" fill="none" xmlns="http://www.w3.org/2000/svg">
<g clip-path="url(#clip0_807_2775)">
<path fill-rule="evenodd" clip-rule="evenodd" d="M698.43 0.949219H738.631V225.252H698.43V0.949219ZM1024 95.4491V60.6415H982.428V15.2598H942.228V180.709C942.228 195.911 946.052 207.496 953.594 215.144C961.13 222.798 972.878 226.678 988.507 226.678H1024V191.871H998.029C992.381 191.871 988.331 190.629 985.984 188.177C983.828 185.932 982.428 180.263 982.428 173.735V95.4491H1024ZM425.344 181.594L466.912 60.6368H509.148L449.141 225.254H401.549L341.541 60.6368H383.777L425.344 181.594ZM876.699 143.103C876.699 153.525 875.116 162.591 872.006 170.05C868.917 177.469 864.492 183.156 858.851 186.95C853.21 190.744 846.275 192.668 838.238 192.668C826.744 192.668 818.07 188.891 812.465 181.444C806.796 173.919 803.919 162.513 803.919 147.546V60.6412H763.718V151.99C763.718 166.214 765.492 178.278 769.006 187.844C772.519 197.438 777.347 205.243 783.348 211.037C789.35 216.824 796.355 221.004 804.173 223.464C811.949 225.912 820.318 227.152 829.041 227.152C841.61 227.152 852.015 224.873 859.953 220.376C867.192 216.263 873.264 211.454 878.014 206.061L881.612 225.251H916.9V60.6412H876.699V143.103ZM636.974 69.3223C624.304 62.2978 609.26 58.7391 592.264 58.7391C575.476 58.7391 560.487 62.2978 547.713 69.32C534.924 76.3604 524.875 86.3027 517.845 98.8704C510.824 111.427 507.265 126.31 507.265 143.103C507.265 159.691 510.824 174.47 517.845 187.026C524.871 199.589 534.922 209.53 547.713 216.569C560.487 223.592 575.477 227.15 592.264 227.15C609.259 227.15 624.303 223.592 636.974 216.567C649.657 209.531 659.652 199.592 666.681 187.026C673.703 174.463 677.264 159.684 677.264 143.103C677.264 126.316 673.703 111.433 666.681 98.8697C659.648 86.3006 649.654 76.3575 636.974 69.3223ZM615.734 186.941C609.257 191.158 601.362 193.298 592.266 193.298C583.379 193.298 575.534 191.159 568.949 186.94C562.352 182.715 557.179 176.754 553.569 169.217C549.944 161.673 548.103 152.888 548.103 143.103C548.103 133.116 549.942 124.281 553.569 116.839C557.177 109.404 562.354 103.44 568.957 99.11C575.54 94.7839 583.383 92.5911 592.265 92.5911C601.357 92.5911 609.248 94.7839 615.727 99.1051C622.224 103.438 627.35 109.404 630.967 116.842C634.589 124.301 636.427 133.137 636.427 143.104C636.427 152.866 634.589 161.654 630.967 169.217C627.351 176.755 622.227 182.718 615.734 186.941ZM41.7808 56.3064H0V225.254H41.7808V56.3064ZM172.804 65.9675C172.804 30.118 143.611 0.951646 107.726 0.951646H0V37.0316H102.604C118.844 37.0316 132.296 49.79 132.593 65.4707C132.742 73.3222 129.795 80.7325 124.296 86.3359C118.795 91.9408 111.445 95.0299 103.6 95.0299H63.6299C62.2109 95.0299 61.056 96.1828 61.056 97.6023V129.669C61.056 130.214 61.2244 130.735 61.5413 131.174L129.356 225.255H178.997L111.025 130.917C145.256 129.199 172.804 100.438 172.804 65.9675ZM301.276 68.3643C289.241 61.9763 274.951 58.7391 258.802 58.7391C242.632 58.7391 228.176 62.3001 215.832 69.3268C203.468 76.3604 193.742 86.3048 186.923 98.8789C180.111 111.425 176.659 126.411 176.659 143.425C176.659 160.006 180.164 174.78 187.083 187.338C194.016 199.926 204.016 209.815 216.801 216.731C229.561 223.647 244.868 227.152 262.292 227.152C276.114 227.152 288.527 224.563 299.185 219.451C309.846 214.327 318.549 207.35 325.055 198.711C331.234 190.5 335.403 181.214 337.443 171.113L337.663 170.035H297.682L297.493 170.682C295.292 178.217 291.021 184.17 284.795 188.381C278.112 192.909 269.903 195.205 260.394 195.205C252.334 195.205 245.054 193.478 238.759 190.073C232.495 186.687 227.597 181.845 224.205 175.676C220.799 169.485 218.861 162.037 218.446 153.583V152.261H339.212L339.347 151.523C339.768 149.206 340.039 146.818 340.156 144.416C340.256 142.077 340.314 139.74 340.314 137.381C340.098 121.431 336.534 107.403 329.72 95.6795C322.879 83.9431 313.31 74.7522 301.276 68.3643ZM286.627 99.3645C293.496 105.145 297.769 113.36 299.336 123.797H219.835C220.743 117.025 222.992 111.16 226.524 106.349C230.229 101.303 234.976 97.3379 240.635 94.5641C246.3 91.7818 252.52 90.3694 259.118 90.3694C270.274 90.3687 279.529 93.3956 286.627 99.3645Z" fill="#191C1F"/>
</g>
<defs>
<clipPath id="clip0_807_2775">
<rect width="1024" height="226.203" fill="white" transform="translate(0 0.949219)"/>
</clipPath>
</defs>
</svg>
