<svg width="569" height="513" viewBox="0 0 569 513" fill="none" xmlns="http://www.w3.org/2000/svg">
<g clip-path="url(#clip0_780_177)">
<path d="M284.446 310.747C314.368 310.747 338.625 286.49 338.625 256.567C338.625 226.644 314.368 202.387 284.446 202.387C254.523 202.387 230.266 226.644 230.266 256.567C230.266 286.49 254.523 310.747 284.446 310.747Z" fill="#58C4DC"/>
<path d="M284.446 378.478C434.06 378.478 555.346 323.899 555.346 256.573C555.346 189.247 434.06 134.668 284.446 134.668C134.833 134.668 13.5469 189.247 13.5469 256.573C13.5469 323.899 134.833 378.478 284.446 378.478Z" stroke="#58C4DC" stroke-width="27.0899"/>
<path d="M178.871 317.523C253.678 447.092 361.587 524.839 419.893 491.176C478.199 457.513 464.823 325.187 390.016 195.618C315.209 66.0488 207.3 -11.6985 148.994 21.9646C90.6876 55.6277 104.064 187.954 178.871 317.523Z" stroke="#58C4DC" stroke-width="27.0899"/>
<path d="M178.874 195.62C104.067 325.189 90.6905 457.515 148.997 491.178C207.303 524.841 315.212 447.093 390.019 317.524C464.826 187.955 478.202 55.6291 419.896 21.9661C361.59 -11.697 253.681 66.0503 178.874 195.62Z" stroke="#58C4DC" stroke-width="27.0899"/>
</g>
<defs>
<clipPath id="clip0_780_177">
<rect width="568.889" height="512" fill="white" transform="translate(0 0.574707)"/>
</clipPath>
</defs>
</svg>
