<svg width="513" height="513" viewBox="0 0 513 513" fill="none" xmlns="http://www.w3.org/2000/svg">
<g clip-path="url(#clip0_876_1627)">
<path d="M512.22 256.051C512.22 397.604 397.773 512.051 256.22 512.051C114.667 512.051 0.220215 397.604 0.220215 256.051C0.220215 114.498 114.667 0.0507812 256.22 0.0507812C397.02 0.0507812 512.22 114.498 512.22 256.051Z" fill="#B5B3B3"/>
<path d="M504.691 256.051C504.691 393.086 393.255 504.521 256.22 504.521C118.432 504.521 6.99658 393.086 6.99658 256.051C6.99658 119.015 118.432 7.58008 255.467 7.58008C393.255 7.58008 504.691 119.015 504.691 256.051Z" fill="#0F4C92"/>
<path d="M467.797 256.05C467.797 373.509 372.926 468.38 255.467 468.38C138.761 468.38 43.8906 373.509 43.8906 256.05C43.8906 138.591 138.761 43.7207 256.22 43.7207C372.926 43.7207 467.797 138.591 467.797 256.05Z" fill="#DE1E35"/>
<path d="M256.22 43.7207C138.761 43.7207 43.8906 139.344 43.8906 256.05C43.8906 372.756 138.761 468.38 256.22 468.38C372.926 468.38 468.549 373.509 468.549 256.05C467.796 139.344 372.926 43.7207 256.22 43.7207ZM55.9377 262.074H95.0906V249.274H55.9377C55.9377 244.756 56.6906 239.485 56.6906 234.968C70.2436 165.697 154.573 111.485 255.467 111.485C356.361 111.485 440.691 164.944 454.244 234.968C454.997 239.485 454.996 244.003 454.996 249.274H415.844V262.074H454.996C454.996 266.591 454.244 271.862 454.244 276.38C440.691 345.65 356.361 399.862 255.467 399.862C154.573 399.862 70.2436 346.403 56.6906 276.38C56.6906 271.862 56.6906 267.344 55.9377 262.074ZM256.22 56.5207C340.549 56.5207 413.585 109.227 442.197 183.768C406.808 134.827 336.785 101.697 256.22 101.697C175.655 101.697 105.632 134.827 70.2436 183.768C98.8553 109.227 171.138 56.5207 256.22 56.5207ZM256.22 455.58C171.891 455.58 98.8553 402.874 70.2436 328.332C105.632 377.274 175.655 410.403 256.22 410.403C336.785 410.403 406.808 377.274 442.197 328.332C412.832 402.874 340.549 455.58 256.22 455.58Z" fill="white"/>
<path d="M264.502 219.91H266.761C269.02 219.91 273.538 220.663 273.538 225.18C273.538 227.439 273.538 234.216 273.538 236.474V237.227C273.538 237.227 273.538 240.992 273.538 241.745C274.29 245.51 277.302 247.769 282.573 248.522H287.09V224.427C287.09 222.169 286.337 219.157 284.079 217.651V216.898C286.337 213.886 287.09 211.627 287.09 207.11V204.851C287.09 186.027 286.338 182.263 278.055 181.51H248.69V247.016H263.749V219.91H264.502ZM264.502 192.804H266.761H267.514C271.279 192.804 272.785 192.804 272.785 199.58C272.785 204.851 272.785 205.604 272.785 207.863V208.616C272.785 209.369 272.785 210.122 272.032 210.874C272.032 210.874 271.279 211.627 270.526 211.627H264.502V192.804Z" fill="white"/>
<path d="M357.114 182.262H342.809V247.768H357.114V182.262Z" fill="white"/>
<path d="M217.067 247.769H232.126V192.051C232.126 192.051 232.126 192.051 232.879 192.051C235.891 192.051 237.396 191.298 238.902 189.792C241.914 186.78 241.161 182.263 241.161 182.263V181.51H207.279V192.051H217.067V247.769Z" fill="white"/>
<path d="M375.185 247.769H390.244V192.051C390.244 192.051 390.244 192.051 390.996 192.051C394.008 192.051 395.514 191.298 397.02 189.792C400.032 186.78 399.279 182.263 399.279 182.263V181.51H365.396V192.051H375.185V247.769Z" fill="white"/>
<path d="M199.749 237.226H183.938V221.415H194.479V207.109H183.938V192.05H199.749V182.262H168.879V247.768H199.749V237.226Z" fill="white"/>
<path d="M150.055 182.262H112.408V183.015C112.408 183.015 111.655 186.779 114.667 189.791C116.173 191.297 118.432 192.803 121.444 192.803V248.521H149.302C155.326 248.521 159.844 243.25 159.844 234.968V204.85C159.844 186.779 159.844 182.262 150.055 182.262ZM144.785 237.226H136.502V192.05C141.773 192.05 142.526 192.05 142.526 192.05C144.785 192.803 144.785 196.568 144.785 196.568C145.538 202.591 144.785 233.462 144.785 237.226Z" fill="white"/>
<path d="M181.679 261.322H166.62V328.334H181.679V261.322Z" fill="white"/>
<path d="M223.844 261.322C219.326 261.322 203.514 261.322 201.256 261.322H200.503C195.985 261.322 192.973 263.581 192.22 267.346C192.22 268.099 192.22 268.099 192.22 268.099C192.22 268.099 191.467 280.899 192.22 284.663C194.479 290.687 198.997 292.946 203.515 293.699C203.515 293.699 203.515 293.699 204.267 293.699H205.02C205.773 293.699 205.773 294.452 205.773 294.452V318.546H193.726V327.581H210.291C216.314 327.581 220.079 324.569 221.585 320.805C222.338 317.793 222.338 295.205 221.585 289.934C221.585 288.428 220.832 286.922 219.326 285.416C218.573 284.663 217.82 284.663 217.067 283.911C216.314 283.158 215.562 283.158 214.056 282.405C210.291 280.899 206.526 278.64 206.526 274.122V270.358H218.573C220.832 270.358 223.091 268.852 223.844 266.593C224.597 265.087 225.35 262.828 225.35 262.828C223.844 263.581 223.844 262.828 223.844 261.322Z" fill="white"/>
<path d="M292.362 261.322C289.35 261.322 285.585 261.322 282.573 262.075C275.044 263.581 272.032 268.852 272.032 277.134V317.04C272.032 327.581 279.562 329.087 290.103 329.087C303.656 329.087 311.185 324.569 311.185 316.287V274.875C311.185 261.322 302.15 261.322 292.362 261.322ZM287.091 276.381C287.091 274.875 287.091 273.369 287.844 271.863C288.597 271.863 289.35 271.863 290.103 271.863C295.373 271.863 295.373 273.369 295.373 282.405V310.263C295.373 311.016 295.373 311.769 295.373 312.522C295.373 313.275 295.373 314.028 295.373 314.781C294.62 314.781 293.868 314.781 292.362 314.781C290.856 314.781 289.35 314.028 288.597 313.275C287.091 311.769 287.091 310.263 287.091 307.252V278.64C287.091 280.899 287.091 277.887 287.091 276.381Z" fill="white"/>
<path d="M345.821 289.934C338.291 264.334 326.997 261.322 322.48 261.322C320.974 261.322 320.221 261.322 320.221 261.322V328.334H335.28V301.228L345.821 328.334H360.88V261.322H345.821V289.934Z" fill="white"/>
<path d="M147.796 261.322H110.149H109.396V262.075C109.396 262.075 109.396 270.358 117.679 271.863V329.087H133.491V300.475H146.291C153.067 300.475 156.832 295.958 156.832 287.675V285.416C157.585 266.593 156.832 262.828 147.796 261.322ZM141.773 291.44H133.491V271.863C133.491 271.863 138.008 271.863 138.761 271.863C140.267 271.863 141.773 272.616 141.773 274.875C141.773 275.628 141.773 291.44 141.773 291.44Z" fill="white"/>
<path d="M266.761 261.322H231.373V271.863H241.161V328.334H256.22V271.11C256.22 271.11 256.22 271.11 256.973 271.11C259.985 271.11 262.244 270.358 263.75 268.852C267.514 266.593 266.761 262.075 266.761 261.322Z" fill="white"/>
<path d="M402.291 261.322C397.774 261.322 381.962 261.322 379.703 261.322H378.95C374.432 261.322 371.421 263.581 370.668 267.346C370.668 268.099 370.668 268.099 370.668 268.099C370.668 268.099 369.915 280.899 370.668 284.663C372.926 290.687 377.444 292.946 381.962 293.699C381.962 293.699 381.962 293.699 382.715 293.699H383.468C384.221 293.699 384.221 294.452 384.221 294.452V318.546H372.174V327.581H388.738C394.762 327.581 398.526 324.569 400.032 320.805C400.785 317.793 400.785 295.205 400.032 289.934C400.032 288.428 399.279 286.922 397.774 285.416C397.021 284.663 396.268 284.663 395.515 283.911C394.762 283.158 394.009 283.158 392.503 282.405C388.738 280.899 384.974 278.64 384.974 274.122V270.358H397.021C399.279 270.358 401.538 268.852 402.291 266.593C403.044 265.087 403.797 262.828 403.797 262.828C402.291 263.581 402.291 262.828 402.291 261.322Z" fill="white"/>
<path d="M316.455 182.262C313.444 182.262 309.679 182.262 306.667 183.015C299.138 184.521 296.126 189.791 296.126 197.321V236.473C296.126 246.262 303.655 248.521 314.197 248.521C327.749 248.521 335.279 244.003 335.279 235.721V195.062C334.526 182.262 326.244 182.262 316.455 182.262ZM311.185 197.321C311.185 195.815 311.185 194.309 311.938 193.556C312.691 193.556 313.444 193.556 314.197 193.556C319.467 193.556 319.467 195.062 319.467 204.097V231.956C319.467 232.709 319.467 233.462 319.467 234.215C319.467 234.968 319.467 235.721 319.467 236.473C318.714 236.473 317.961 236.473 316.455 236.473C314.949 236.473 313.444 235.721 312.691 234.968C311.185 233.462 311.185 231.956 311.185 229.697V201.838C311.185 201.085 311.185 198.073 311.185 197.321Z" fill="white"/>
</g>
<defs>
<clipPath id="clip0_876_1627">
<rect width="512" height="512" fill="white" transform="translate(0.220215 0.0507812)"/>
</clipPath>
</defs>
</svg>
