<svg width="513" height="513" viewBox="0 0 513 513" fill="none" xmlns="http://www.w3.org/2000/svg">
<g clip-path="url(#clip0_835_479)">
<path d="M256.523 481.885C133.089 481.885 31.6061 379.485 31.6061 256.051C31.6061 230.451 36.1714 205.768 44.4061 182.003L176.075 438.003C177.889 441.651 179.723 444.403 184.289 444.403C188.875 444.403 190.689 441.651 192.523 438.003L253.771 301.768C254.682 299.933 255.599 299.016 256.523 299.016C258.358 299.016 258.358 300.851 259.275 301.768L321.441 438.003C323.275 441.651 325.089 444.403 329.675 444.403C334.241 444.403 336.075 441.651 337.889 438.003L469.558 182.003C477.771 204.851 482.358 229.533 482.358 256.051C481.441 379.485 379.958 481.885 256.523 481.885ZM256.523 197.533C254.689 197.533 254.689 195.699 253.771 194.803L183.371 43.0161C230.653 25.9882 282.394 25.9882 329.675 43.0161L259.275 194.803C258.358 195.699 258.358 197.533 256.523 197.533ZM182.475 362.099C180.641 362.099 180.641 360.285 179.723 359.368L64.5234 138.077C84.6408 105.181 113.889 77.7468 147.723 58.5468L229.089 234.077C230.923 237.747 232.758 238.664 235.489 238.664H277.558C280.289 238.664 282.123 237.747 283.958 234.077L364.406 58.5468C398.241 77.7468 427.489 105.181 447.606 138.077L333.323 359.368C332.399 361.189 331.482 362.099 330.571 362.099C328.758 362.099 328.758 360.285 327.841 359.368L283.958 262.451C282.123 258.803 280.289 257.885 277.558 257.885H235.489C232.758 257.885 230.923 258.803 229.089 262.451L185.206 359.368C184.289 360.285 184.289 362.099 182.475 362.099ZM256.523 512.051C398.241 512.051 512.523 397.768 512.523 256.051C512.523 114.333 398.241 0.0507812 256.523 0.0507812C114.806 0.0507812 0.523438 114.333 0.523438 256.051C0.523438 397.768 114.806 512.051 256.523 512.051Z" fill="#1D1C68"/>
</g>
<defs>
<clipPath id="clip0_835_479">
<rect width="512" height="512" fill="white" transform="translate(0.523438 0.0507812)"/>
</clipPath>
</defs>
</svg>
