<svg width="1024" height="230" viewBox="0 0 1024 230" fill="none" xmlns="http://www.w3.org/2000/svg">
<g clip-path="url(#clip0_29_1033)">
<path fill-rule="evenodd" clip-rule="evenodd" d="M837.02 201.962C837.02 192.804 829.613 185.381 820.473 185.381C811.334 185.381 803.925 192.804 803.925 201.962C803.925 211.122 811.334 218.544 820.473 218.544C829.613 218.544 837.02 211.122 837.02 201.962Z" fill="#E5002B"/>
<path fill-rule="evenodd" clip-rule="evenodd" d="M1013.09 201.962C1013.09 193.001 1005.83 185.736 996.893 185.736C987.952 185.736 980.7 193.001 980.7 201.962C980.7 210.923 987.952 218.19 996.893 218.19C1005.83 218.19 1013.09 210.923 1013.09 201.962Z" fill="#E5002B"/>
<path fill-rule="evenodd" clip-rule="evenodd" d="M935.963 201.962C935.963 186.863 923.75 174.625 908.682 174.625C893.618 174.625 881.405 186.863 881.405 201.962C881.405 217.061 893.618 229.301 908.682 229.301C923.75 229.301 935.963 217.061 935.963 201.962Z" fill="#E5002B"/>
<path fill-rule="evenodd" clip-rule="evenodd" d="M843.64 113.562C843.64 100.742 833.264 90.3457 820.472 90.3457C807.679 90.3457 797.307 100.742 797.307 113.562C797.307 126.384 807.679 136.777 820.472 136.777C833.264 136.777 843.64 126.384 843.64 113.562Z" fill="#E5002B"/>
<path fill-rule="evenodd" clip-rule="evenodd" d="M1024 113.562C1024 98.5608 1011.86 86.3975 996.892 86.3975C981.924 86.3975 969.79 98.5608 969.79 113.562C969.79 128.562 981.924 140.726 996.892 140.726C1011.86 140.726 1024 128.562 1024 113.562Z" fill="#E5002B"/>
<path fill-rule="evenodd" clip-rule="evenodd" d="M939.906 113.562C939.906 96.2823 925.926 82.2739 908.683 82.2739C891.439 82.2739 877.46 96.2823 877.46 113.562C877.46 130.841 891.439 144.852 908.683 144.852C925.926 144.852 939.906 130.841 939.906 113.562Z" fill="#E5002B"/>
<path fill-rule="evenodd" clip-rule="evenodd" d="M1021.7 25.1615C1021.7 11.4314 1010.59 0.300781 996.892 0.300781C983.196 0.300781 972.086 11.4314 972.086 25.1615C972.086 38.8915 983.196 50.0222 996.892 50.0222C1010.59 50.0222 1021.7 38.8915 1021.7 25.1615Z" fill="#E5002B"/>
<path fill-rule="evenodd" clip-rule="evenodd" d="M926.729 25.1616C926.729 15.1738 918.647 7.07764 908.682 7.07764C898.717 7.07764 890.639 15.1738 890.639 25.1616C890.639 35.1494 898.717 43.2456 908.682 43.2456C918.647 43.2456 926.729 35.1494 926.729 25.1616Z" fill="#E5002B"/>
<path fill-rule="evenodd" clip-rule="evenodd" d="M820.472 41.388C811.531 41.388 804.279 34.1239 804.279 25.1604C804.279 16.1996 811.531 8.93408 820.472 8.93408C829.414 8.93408 836.664 16.1996 836.664 25.1604C836.664 34.1239 829.414 41.388 820.472 41.388Z" fill="#E5002B"/>
<path fill-rule="evenodd" clip-rule="evenodd" d="M51.4585 118.504C69.8575 118.504 82.5064 106.26 82.5064 88.5417C82.5064 71.2559 70.5764 58.7238 52.6088 58.7238C34.7849 58.7238 21.7046 70.9677 21.7046 89.4063C21.7046 107.124 33.7784 118.504 51.4585 118.504ZM0 3.84326H20.9885V51.0896C28.3174 43.1686 40.535 38.4149 54.1904 38.4149C82.3626 38.4149 103.923 59.3002 103.923 88.8299C103.923 118.215 82.0779 138.814 52.0336 138.814C23.2863 138.814 0 119.656 0 82.9262V3.84326Z" fill="#051446"/>
<path fill-rule="evenodd" clip-rule="evenodd" d="M161.85 39.4224C167.025 39.4224 174.928 39.7105 181.111 40.431V59.7328C175.647 59.1564 168.893 58.8682 165.156 58.8682C146.757 58.8682 141.44 67.0788 141.44 84.0778V137.519H120.454V74.2821C120.454 58.1491 131.234 39.4224 161.85 39.4224Z" fill="#051446"/>
<path fill-rule="evenodd" clip-rule="evenodd" d="M239.754 138.671C207.987 138.671 194.763 118.36 194.763 96.1767V39.4243H215.75V92.4317C215.75 103.667 217.187 118.36 239.754 118.36C261.171 118.36 263.759 104.243 263.759 92.4317V39.4243H284.745V96.1767C284.745 118.36 271.377 138.671 239.754 138.671Z" fill="#051446"/>
<path fill-rule="evenodd" clip-rule="evenodd" d="M341.232 139.102C328.151 139.102 313.921 136.797 304.002 132.909V114.469C311.478 117.639 326.426 120.52 339.508 120.52C352.299 120.52 360.347 116.633 360.347 109.285C360.347 103.666 356.037 100.498 334.045 95.7439C315.356 91.7106 303.429 84.7983 303.429 67.5125C303.429 48.0667 318.664 38.1255 344.825 38.1255C353.593 38.1255 366.673 39.2797 377.164 42.3028V60.5987C368.111 58.4345 355.175 56.4214 345.541 56.4214C333.901 56.4214 324.99 58.8696 324.99 67.0802C324.99 72.6985 331.026 75.4335 350.285 79.4667C370.554 83.6441 381.908 91.9988 381.908 108.419C381.908 127.867 365.811 139.102 341.232 139.102Z" fill="#051446"/>
<path fill-rule="evenodd" clip-rule="evenodd" d="M435.523 139.102C422.442 139.102 408.212 136.797 398.293 132.909V114.469C405.769 117.639 420.717 120.52 433.797 120.52C446.59 120.52 454.638 116.633 454.638 109.285C454.638 103.666 450.326 100.498 428.336 95.7439C409.647 91.7106 397.72 84.7983 397.72 67.5125C397.72 48.0667 412.955 38.1255 439.116 38.1255C447.884 38.1255 460.964 39.2797 471.455 42.3028V60.5987C462.402 58.4345 449.463 56.4214 439.832 56.4214C428.192 56.4214 419.278 58.8696 419.278 67.0802C419.278 72.6985 425.317 75.4335 444.576 79.4667C464.845 83.6441 476.199 91.9988 476.199 108.419C476.199 127.867 460.102 139.102 435.523 139.102Z" fill="#051446"/>
<path fill-rule="evenodd" clip-rule="evenodd" d="M554.677 79.9001C559.709 79.9001 562.873 76.8755 562.873 72.6981C562.873 65.0625 554.534 56.8519 540.737 56.8519C526.935 56.8519 515.008 63.767 511.987 79.9001H554.677ZM575.519 113.751V132.763C566.754 136.652 556.404 138.959 544.187 138.959C508.25 138.959 489.851 115.91 489.851 88.9753C489.851 59.1574 509.689 37.9824 540.45 37.9824C563.592 37.9824 582.995 52.6745 582.995 73.8495C582.995 88.543 573.797 97.0418 554.677 97.0418H512.134C515.439 111.444 527.226 119.368 546.484 119.368C553.531 119.368 565.029 117.64 575.519 113.751Z" fill="#051446"/>
<path fill-rule="evenodd" clip-rule="evenodd" d="M599.667 137.231H620.655V3.70068H599.667V137.231Z" fill="#051446"/>
<path fill-rule="evenodd" clip-rule="evenodd" d="M677.141 139.102C664.061 139.102 649.83 136.797 639.912 132.909V114.469C647.387 117.639 662.335 120.52 675.414 120.52C688.208 120.52 696.257 116.633 696.257 109.285C696.257 103.666 691.944 100.498 669.954 95.7439C651.265 91.7106 639.338 84.7983 639.338 67.5125C639.338 48.0667 654.571 38.1255 680.731 38.1255C689.499 38.1255 702.583 39.2797 713.073 42.3028V60.5987C704.018 58.4345 691.081 56.4214 681.45 56.4214C669.809 56.4214 660.896 58.8696 660.896 67.0802C660.896 72.6985 666.935 75.4335 686.194 79.4667C706.461 83.6441 717.817 91.9988 717.817 108.419C717.817 127.867 701.72 139.102 677.141 139.102Z" fill="#051446"/>
<path fill-rule="evenodd" clip-rule="evenodd" d="M378.709 205.662H392.21L385.458 188.197L378.709 205.662ZM405.598 222.174H398.588L394.603 211.853H376.311L372.331 222.174H365.549L381.483 181.691H389.642L405.598 222.174Z" fill="#051446"/>
<path fill-rule="evenodd" clip-rule="evenodd" d="M423.456 222.17H429.977V181.692H423.456V222.17Z" fill="#051446"/>
<path fill-rule="evenodd" clip-rule="evenodd" d="M458.988 187.823V199.215H468.912C474.163 199.215 476.616 197.306 476.616 193.401C476.616 189.559 474.019 187.823 468.912 187.823H458.988ZM469.085 181.691C478.374 181.691 483.398 185.855 483.398 193.401C483.398 200.285 478.145 204.854 469.921 205.145L483.219 222.171H475.146L462.275 205.145H458.988V222.171H452.467V181.691H469.085Z" fill="#051446"/>
<path fill-rule="evenodd" clip-rule="evenodd" d="M533.55 222.172H504.672V181.694H511.189V215.987H533.55V222.172Z" fill="#051446"/>
<path fill-rule="evenodd" clip-rule="evenodd" d="M551.643 222.17H558.162V181.692H551.643V222.17Z" fill="#051446"/>
<path fill-rule="evenodd" clip-rule="evenodd" d="M608.627 222.172L586.097 192.884L586.064 222.172H579.546V181.694H585.433L607.993 210.985V181.694H614.514V222.172H608.627Z" fill="#051446"/>
<path fill-rule="evenodd" clip-rule="evenodd" d="M667.708 222.172H638.252V181.694H667.333V187.824H644.77V198.721H666.554V204.854H644.77V216.041H667.708V222.172Z" fill="#051446"/>
<path fill-rule="evenodd" clip-rule="evenodd" d="M705.052 199.012L702.249 198.635C697 197.882 693.853 196.583 693.853 193.227C693.853 189.527 697.548 187.187 702.944 187.187C706.532 187.187 712.158 188.287 716.07 189.501V183.213C716.07 183.213 709.874 180.999 703.001 180.999C694.258 180.999 687.077 185.508 687.077 193.633C687.077 201.15 693.046 203.986 699.048 204.823L702.196 205.258C708.107 206.067 711.284 207.541 711.284 210.722C711.284 214.452 707.13 216.708 701.848 216.708C696.241 216.708 690.225 214.168 687.431 212.821V219.379C691.855 221.743 696.896 222.895 701.877 222.895C710.619 222.895 718.062 218.383 718.062 210.143C718.062 202.629 711.601 199.909 705.052 199.012Z" fill="#051446"/>
</g>
<defs>
<clipPath id="clip0_29_1033">
<rect width="1024" height="229" fill="white" transform="translate(0 0.300781)"/>
</clipPath>
</defs>
</svg>
