<svg width="1025" height="202" viewBox="0 0 1025 202" fill="none" xmlns="http://www.w3.org/2000/svg">
<g clip-path="url(#clip0_756_278)">
<path d="M989.379 153.141C989.991 160.136 995.586 169.041 1005.29 169.041H1010.96C1012.02 169.036 1013.03 168.613 1013.78 167.863C1014.53 167.113 1014.96 166.097 1014.96 165.036V40.2821H1014.93C1014.88 39.2624 1014.44 38.3021 1013.7 37.5981C1012.96 36.8942 1011.98 36.5002 1010.96 36.4969H993.383C992.362 36.5002 991.381 36.8942 990.641 37.5981C989.902 38.3021 989.46 39.2624 989.406 40.2821H989.379V50.4215C978.608 37.1461 961.63 31.6329 944.606 31.6329C935.4 31.6353 926.284 33.4511 917.78 36.9767C909.275 40.5023 901.549 45.6685 895.041 52.1804C888.533 58.6923 883.372 66.4223 879.852 74.929C876.332 83.4357 874.522 92.5524 874.526 101.759C874.521 110.966 876.33 120.084 879.849 128.592C883.369 137.101 888.53 144.832 895.037 151.346C901.545 157.86 909.272 163.028 917.777 166.555C926.282 170.082 935.398 171.899 944.606 171.903C961.63 171.903 980.19 165.292 989.379 153.123V153.141ZM944.67 147.354C920.057 147.354 900.108 126.947 900.108 101.768C900.108 76.5884 920.057 56.1815 944.67 56.1815C969.292 56.1815 989.241 76.5884 989.241 101.768C989.241 126.947 969.292 147.354 944.67 147.354ZM852.309 157.43V92.8809C852.309 56.4832 829.36 31.9346 792.789 31.9346C775.326 31.9346 761.008 42.0375 755.952 50.7232C754.855 43.9301 751.262 36.7986 740.089 36.7986H734.403C733.341 36.8011 732.324 37.2237 731.573 37.9742C730.823 38.7247 730.4 39.7419 730.398 40.8032V165.567H730.425C730.535 167.67 732.281 169.352 734.403 169.352H751.984C752.249 169.352 752.514 169.315 752.77 169.27C752.889 169.251 752.99 169.196 753.109 169.169L753.502 169.05C753.657 168.977 753.794 168.895 753.941 168.812L754.16 168.693C754.332 168.575 754.494 168.444 754.645 168.3L754.736 168.236C755.471 167.536 755.909 166.581 755.961 165.567H755.98V91.8752C755.977 82.4927 759.701 73.4933 766.333 66.8563C772.965 60.2193 781.962 56.4881 791.344 56.4832C800.725 56.4881 809.72 60.218 816.352 66.8531C822.984 73.4881 826.709 82.4851 826.709 91.8661L826.718 153.471V153.452L826.736 153.617V165.567H826.755C826.873 167.67 828.61 169.352 830.732 169.352H848.313C848.578 169.35 848.841 169.322 849.1 169.27C849.2 169.251 849.301 169.206 849.401 169.178C849.548 169.142 849.694 169.105 849.831 169.05C849.977 168.986 850.105 168.904 850.242 168.831L850.489 168.693C850.65 168.582 850.802 168.46 850.946 168.328L851.065 168.236C851.229 168.075 851.379 167.901 851.513 167.715L851.541 167.679C851.987 167.064 852.247 166.334 852.29 165.576H852.318L852.309 157.43ZM669.251 153.141C669.863 160.136 675.468 169.041 685.159 169.041H690.828C693.022 169.041 694.823 167.24 694.823 165.036V40.2821H694.805C694.749 39.2632 694.306 38.3041 693.567 37.6006C692.828 36.8972 691.848 36.5024 690.828 36.4969H673.246C672.226 36.5024 671.246 36.8972 670.507 37.6006C669.767 38.3041 669.325 39.2632 669.269 40.2821H669.251V50.4215C658.48 37.1461 641.502 31.6329 624.469 31.6329C615.263 31.6365 606.149 33.4532 597.645 36.9793C589.142 40.5054 581.417 45.6719 574.91 52.1836C568.403 58.6954 563.243 66.425 559.723 74.9311C556.204 83.4372 554.394 92.5532 554.398 101.759C554.398 140.497 585.767 171.903 624.469 171.903C641.502 171.903 660.053 165.292 669.251 153.123V153.141ZM624.542 147.354C599.929 147.354 579.971 126.947 579.971 101.768C579.971 76.5884 599.929 56.1815 624.542 56.1815C649.154 56.1815 669.104 76.5884 669.104 101.768C669.104 126.947 649.154 147.354 624.542 147.354ZM450.453 135.267C462.183 143.404 474.992 147.354 487.299 147.354C499.029 147.354 511.152 141.274 511.152 130.687C511.152 116.552 484.729 114.348 468.135 108.698C451.541 103.057 437.241 91.3906 437.241 72.4924C437.241 43.5735 462.988 31.6238 487.015 31.6238C502.238 31.6238 517.945 36.6524 528.13 43.8569C531.641 46.5084 529.502 49.5712 529.502 49.5712L519.783 63.4684C518.686 65.0226 516.784 66.3758 514.041 64.6844C511.299 62.9929 501.68 56.1815 487.015 56.1815C472.359 56.1815 463.518 62.9472 463.518 71.3586C463.518 81.4158 475.001 84.5884 488.451 88.0261C511.874 94.3438 537.429 101.941 537.429 130.687C537.429 156.159 513.621 171.903 487.299 171.903C467.358 171.903 450.38 166.216 436.135 155.756C433.173 152.785 435.239 150.024 435.239 150.024L444.912 136.2C446.887 133.622 449.365 134.518 450.453 135.267ZM382.878 153.141C383.5 160.136 389.095 169.041 398.787 169.041H404.455C405.516 169.036 406.531 168.613 407.281 167.863C408.031 167.113 408.455 166.097 408.46 165.036V40.2821H408.432C408.378 39.2624 407.936 38.3021 407.197 37.5981C406.457 36.8942 405.476 36.5002 404.455 36.4969H386.883C385.862 36.5024 384.882 36.8972 384.143 37.6006C383.404 38.3041 382.961 39.2632 382.905 40.2821H382.878V50.4215C372.108 37.1461 355.129 31.6329 338.105 31.6329C319.513 31.6402 301.686 39.0322 288.543 52.1831C275.401 65.3339 268.021 83.1666 268.025 101.759C268.025 140.497 299.404 171.903 338.105 171.903C355.129 171.903 373.689 165.292 382.878 153.123V153.141ZM338.169 147.354C313.557 147.354 293.607 126.947 293.607 101.768C293.607 76.5884 313.557 56.1815 338.179 56.1815C362.791 56.1815 382.741 76.5884 382.741 101.768C382.741 126.947 362.782 147.354 338.169 147.354Z" fill="#690031"/>
<path d="M169.785 106.531C157.277 106.531 145.28 111.5 136.436 120.345C127.591 129.19 122.622 141.186 122.622 153.695C122.622 166.203 127.591 178.199 136.436 187.044C145.28 195.889 157.277 200.858 169.785 200.858C182.294 200.858 194.29 195.889 203.135 187.044C211.98 178.199 216.949 166.203 216.949 153.695C216.949 141.186 211.98 129.19 203.135 120.345C194.29 111.5 182.294 106.531 169.785 106.531ZM47.2618 106.54C41.0141 106.453 34.8115 107.609 29.0142 109.94C23.2169 112.27 17.9406 115.73 13.4918 120.117C9.04293 124.504 5.51031 129.732 3.09913 135.496C0.687949 141.261 -0.553711 147.447 -0.553711 153.695C-0.553711 159.943 0.687949 166.129 3.09913 171.893C5.51031 177.657 9.04293 182.885 13.4918 187.272C17.9406 191.66 23.2169 195.119 29.0142 197.45C34.8115 199.781 41.0141 200.936 47.2618 200.849C59.6541 200.676 71.4805 195.633 80.1828 186.808C88.8852 177.984 93.764 166.088 93.764 153.695C93.764 141.301 88.8852 129.406 80.1828 120.581C71.4805 111.757 59.6541 106.713 47.2618 106.54ZM155.678 47.5873C155.678 60.0946 150.709 72.0897 141.865 80.9337C133.021 89.7777 121.026 94.7462 108.519 94.7462C96.0116 94.7462 84.0166 89.7777 75.1726 80.9337C66.3286 72.0897 61.3601 60.0946 61.3601 47.5873C61.3601 35.08 66.3286 23.085 75.1726 14.241C84.0166 5.39698 96.0116 0.428467 108.519 0.428467C121.026 0.428467 133.021 5.39698 141.865 14.241C150.709 23.085 155.678 35.08 155.678 47.5873Z" fill="#F06A6A"/>
</g>
<defs>
<clipPath id="clip0_756_278">
<rect width="1024" height="201.143" fill="white" transform="translate(0.103027 0.428467)"/>
</clipPath>
</defs>
</svg>
