<svg width="421" height="513" viewBox="0 0 421 513" fill="none" xmlns="http://www.w3.org/2000/svg">
<g clip-path="url(#clip0_879_3786)">
<path d="M376.362 202.835C338.712 180.946 301.654 186.011 273.55 198.538C272.31 189.293 269.9 179.145 265.873 167.27C259.914 149.609 253.381 132.73 247.624 117.833C240.055 98.269 234.294 81.5057 231.134 70.2933L210.65 0.0507812L189.385 70.3402C186.137 81.5068 180.529 98.3573 173.001 117.94C167.277 132.847 160.79 149.744 154.868 167.406C150.889 179.298 148.482 189.456 147.27 198.715C119.134 186.243 82.057 181.252 44.4585 203.223C13.7213 221.209 -2.73699 252.458 1.49684 284.79C5.36091 314.206 25.4644 337.316 53.9483 345.15L75.1633 350.977L80.3545 329.594C81.0996 326.692 88.7529 299.919 112.85 300.405C129.567 300.752 143.444 315.534 150.385 325.094C148.141 331.853 146.947 339.955 148.09 348.681L138.651 336.089L121.581 348.819C106.21 360.273 83.8901 388.581 97.683 421.993C103.699 436.562 116.63 446.488 134.093 449.969C144.772 452.093 156.904 451.599 168.148 449.126C172.572 463.334 180.636 480.524 195.304 495.875L210.777 512.051L226.198 495.838C240.838 480.45 248.852 463.233 253.261 449.02C264.509 451.451 276.632 451.923 287.312 449.77C304.764 446.261 317.669 436.298 323.657 421.715C337.376 388.266 314.973 360.008 299.588 348.592L282.486 335.912L273.079 348.519C274.208 339.792 272.986 331.7 270.728 324.927C277.65 315.362 291.49 300.543 308.203 300.164C332.304 299.622 340.009 326.375 340.815 329.431L346.048 350.805C346.016 350.643 367.212 344.769 367.212 344.769C395.691 336.88 415.725 313.71 419.52 284.275C423.68 251.952 407.143 220.735 376.364 202.833" fill="black"/>
<path d="M203.589 73.3438C200.993 85.575 194.303 102.982 186.552 123.152C180.875 137.92 174.448 154.656 168.632 172.017C163.052 188.696 160.775 201.126 160.775 212.718C160.775 216.426 161.201 220.051 161.635 223.695C140.18 208.955 97.9031 188.802 51.7946 215.765C26.1838 230.751 12.4277 256.462 15.8885 282.892C18.9706 306.4 35.0257 324.899 57.7957 331.159L64.5508 333.011L66.2309 326.187C66.6521 324.516 76.7943 285.166 113.139 285.897C142.391 286.484 161.51 314.937 166.674 323.683C164.218 328.229 162.177 334.498 162.177 341.692C162.177 349.404 164.8 358.177 171.496 366.973C168.826 370.594 164.454 375.033 159.35 375.454C152.072 376.052 144.705 368.385 139.809 361.839L135.724 356.385L130.259 360.464C119.08 368.802 100.674 391.226 111.089 416.452C115.258 426.535 124.189 433.196 136.917 435.729C150.076 438.339 166.687 435.964 178.486 430.585C180.771 443.905 187.245 466.446 205.794 485.839L210.745 491.019L215.682 485.829C234.186 466.38 240.608 443.821 242.861 430.493C254.679 435.845 271.313 438.187 284.472 435.53C297.178 432.969 306.089 426.28 310.226 416.197C320.567 390.953 302.134 368.565 290.936 360.255L285.466 356.195L281.39 361.667C276.504 368.213 269.152 375.906 261.869 375.319C256.77 374.902 252.388 370.481 249.709 366.875C256.358 358.093 258.963 349.352 258.963 341.658C258.963 334.423 256.904 328.131 254.424 323.571C259.57 314.822 278.633 286.304 307.871 285.651C344.212 284.837 354.456 324.168 354.872 325.844L356.57 332.641L363.325 330.789C386.072 324.479 402.086 305.952 405.112 282.434C408.517 255.995 394.706 230.306 369.063 215.385C322.862 188.506 280.604 208.802 259.199 223.598C259.596 220.052 260.009 216.533 260.009 212.917C260.009 201.2 257.747 188.567 252.12 171.905C246.266 154.576 239.802 137.869 234.097 123.124C226.297 102.967 219.568 85.5605 216.945 73.3293L210.227 41.9688L203.587 73.3427" fill="#FFFFFE"/>
<path d="M210.774 481.111C236.94 453.612 237.254 418.928 237.254 418.928C248.831 430.475 293.82 438.196 303.906 413.604C314.969 386.605 286.869 365.745 286.869 365.745C259.634 402.271 241.363 366.523 241.363 366.523C262.101 344.098 246.541 323.881 246.541 323.881C247.897 319.821 270.897 279.647 307.724 278.822C350.167 277.864 361.508 324.205 361.508 324.205C406.016 311.863 414.612 249.781 365.636 221.296C303.485 185.139 249.336 240.221 249.336 240.221C254.375 219.605 255.809 204.198 245.648 174.093C231.873 133.275 214.989 96.8042 210.271 74.7637C205.592 96.8086 188.783 133.34 175.11 174.186C165.028 204.319 166.508 219.726 171.575 240.322C171.575 240.322 117.301 185.375 55.2386 221.67C6.3216 250.276 15.0663 312.324 59.602 324.564C59.602 324.564 70.8323 278.2 113.28 279.066C150.116 279.797 173.199 319.916 174.565 323.967C174.565 323.967 159.05 344.23 179.844 366.6C179.844 366.6 161.646 402.409 134.342 365.943C134.342 365.943 106.27 386.863 117.407 413.834C127.558 438.403 172.519 430.574 184.068 419.001C184.068 419.001 184.465 453.685 210.683 481.119" fill="black"/>
<path d="M322.105 219.357C271.527 219.408 230.056 276.878 230.056 276.878C231.855 267.475 253.478 225.167 233.91 174.599C214.342 124.035 210.349 103.666 210.349 103.666L210.256 104.245V103.679C210.256 103.679 206.3 124.053 186.853 174.673C167.401 225.287 189.129 267.549 190.942 276.933C190.942 276.933 149.336 219.569 98.7588 219.634C48.1896 219.69 6.08477 277.276 52.8167 311.284C52.8167 311.284 66.4945 268.794 113.63 268.706C148.296 268.632 183.025 305.839 184.497 324.279C184.497 324.279 168.626 346.699 190.692 365.462C190.692 365.462 166.854 415.636 133.804 379.494C133.804 379.494 108.387 411.308 141.623 419.012C167.993 425.113 193.964 398.351 193.964 398.351C193.964 398.351 191.132 440.627 210.663 463.733V463.525L210.76 463.724C230.24 440.576 227.306 398.296 227.306 398.296C227.306 398.296 253.343 425.004 279.712 418.832C312.925 411.055 287.43 379.296 287.43 379.296C254.472 415.513 230.527 365.403 230.527 365.403C252.533 346.584 236.607 324.205 236.607 324.205C238.033 305.78 272.665 268.481 307.345 268.471C354.489 268.471 368.264 310.914 368.264 310.914C414.918 276.8 372.673 219.292 322.105 219.357Z" fill="#D3BC8D"/>
</g>
<defs>
<clipPath id="clip0_879_3786">
<rect width="419.314" height="512" fill="white" transform="translate(0.840088 0.0507812)"/>
</clipPath>
</defs>
</svg>
