<svg width="613" height="513" viewBox="0 0 613 513" fill="none" xmlns="http://www.w3.org/2000/svg">
<g clip-path="url(#clip0_2_15144)">
<path d="M344.423 467.617C337.798 467.617 332.419 472.988 332.419 479.619C332.419 486.24 337.798 491.619 344.423 491.619C351.049 491.619 356.419 486.24 356.419 479.619C356.419 472.988 351.049 467.617 344.423 467.617ZM344.423 489.044C343.185 489.045 341.959 488.802 340.815 488.329C339.671 487.856 338.631 487.161 337.756 486.286C336.88 485.411 336.186 484.371 335.713 483.227C335.239 482.083 334.996 480.857 334.997 479.619C334.997 474.411 339.209 470.199 344.423 470.199C349.631 470.199 353.847 474.411 353.847 479.619C353.847 484.828 349.631 489.044 344.423 489.044ZM349.354 476.836C349.354 476.302 349.248 475.773 349.043 475.279C348.839 474.786 348.539 474.338 348.16 473.96C347.782 473.582 347.333 473.283 346.84 473.079C346.346 472.875 345.816 472.77 345.282 472.771H339.5V486.469H342.07V480.906H343.915L346.512 486.469H349.354L346.643 480.668C347.435 480.387 348.121 479.868 348.606 479.182C349.091 478.496 349.352 477.677 349.354 476.836ZM345.282 478.334H342.07V475.336H345.282C346.108 475.336 346.784 476.008 346.784 476.837C346.782 477.235 346.623 477.615 346.342 477.896C346.061 478.176 345.679 478.334 345.282 478.334Z" fill="#010101"/>
<path d="M575.176 200.482L566.859 215.289L568.23 223.891C546.222 266.994 522.22 306.996 513.623 321.073C510.29 313.517 505.897 309.052 497.394 304.505C497.394 304.505 536.448 233.645 547.009 177.447C517.469 192.077 486.529 206.546 486.529 206.546L539.453 120.927C539.453 120.927 437.683 143.19 357.173 151.221C270.381 23.3544 191.466 0.800781 191.466 0.800781C191.466 0.800781 246.125 90.3016 256.287 152.881C145.601 142.49 55.3366 120.927 55.3366 120.927L151.709 276.813C95.3166 280.16 0.441406 283.229 0.441406 283.229C24.6254 307.41 102.417 338.063 205.297 363.481L223.654 393.191C163.148 438.799 126.675 501.595 126.675 501.595L132.788 512.801C132.788 512.801 162.817 511.005 199.652 509.693C199.652 509.693 209.677 477.326 250.898 437.266L297.402 512.493L355.721 418.162L362.071 417.426L365.595 419.542C364.631 420.506 363.981 422.365 362.595 424.578C367.434 427.868 367.573 428.415 367.805 434.272C367.805 434.272 374.246 436.542 382.206 433.93L384.422 429.932L387.133 431.158C387.473 433.992 388.26 437.078 388.26 437.078C395.678 440.567 401.957 435.931 401.957 435.931C421.762 440.003 435.16 437.682 439.599 436.604C459.196 441.998 471.881 438.349 477.139 436.068C486.149 439.792 495.483 442.21 521.347 442.21C533.271 442.21 545.977 441.474 545.977 432.578C545.977 420.09 534.038 374.242 521.929 348.871C521.929 348.871 530.819 355.127 538.797 356.723L549.871 348.711C544.841 342.798 545.797 341.07 546.469 336.49C542.521 333.142 536.992 332.366 536.992 332.366C547.818 319.938 570.434 290.946 597.47 239.057C603.155 238.196 610.438 234.857 611.313 225.904C612.277 216.156 612.853 211.953 612.853 202.69C595.737 194.851 575.176 200.482 575.176 200.482V200.482Z" fill="white"/>
<path d="M508.198 142.908L459.348 220.943C464.688 218.463 470.32 215.894 475.937 213.334L528.069 129.006C528.069 129.006 439.386 148.377 358.664 156.562C360.586 159.555 362.464 162.57 364.326 165.626C419.754 159.775 477.586 149.038 508.198 142.908Z" fill="#010101"/>
<path d="M516.004 349.13C509.259 321.075 508.158 315.952 493.26 308.415L490.792 305.253C518.254 256.075 538.136 197.388 538.136 190.365C538.136 188.663 537.349 188.158 536.326 188.689C492.633 210.84 444.649 230.602 434.037 238.016L431.192 241.948C407.697 221.013 387.542 206.292 379.744 200.807C330.899 104.967 255.965 37.6011 207.691 13.4707C207.691 23.4787 255.472 97.0355 262.794 158.845C176.361 152.954 66.7308 129.007 66.7308 129.007L161.124 281.707C83.6044 286.457 15.5964 288.062 15.5964 288.062C15.5964 293.452 102.163 334.846 229.97 363.75C257.918 370.086 278.738 369.082 292.35 369.082C289.841 366.325 287.302 363.596 284.734 360.893C303.262 372.19 320.158 383.452 335.372 393.574C331.555 393.626 327.395 393.643 322.81 393.643C292.079 393.643 268.848 392.04 254.14 390.934C250.496 390.654 247.357 390.42 244.785 390.238C243.48 390.158 242.331 390.096 241.31 390.038L226.851 366.944C221.02 365.656 215.446 364.297 211.6 363.357L230.92 394.595C212.874 407.574 166.536 446.91 132.971 501.739L135.905 507.151C135.905 507.151 168.335 505.138 195.749 504.363C195.749 504.363 208.044 469.292 252.011 428.713L297.403 502.11L352.466 413.037C356.032 412.655 359.628 412.233 363.32 411.788C367.132 414.177 370.811 416.419 374.315 418.437C372.433 419.56 370.851 421.003 369.633 423.165C369.633 423.165 372.804 425.337 373.009 429.614C373.009 429.614 375.732 430.053 378.575 429.249C378.575 429.249 380.513 426.307 382.193 422.754C385.803 424.596 389.198 426.198 392.38 427.47C392.352 430.543 392.868 432.819 392.868 432.819C392.868 432.819 396.384 433.891 400.606 430.128C425.013 435.688 439.597 430.971 439.597 430.971C464.368 438.305 476.963 430.104 476.963 430.104C486.665 434.324 494.777 436.759 521.348 436.759C535.767 436.759 540.528 435.008 540.528 432.579C540.528 420.991 528.26 373.535 516.004 349.129V349.13ZM297.402 459.513L271.456 418.387C281.524 418.203 300.698 417.605 325.065 415.644L297.402 459.513Z" fill="#010101"/>
<path d="M523.157 340.5L524.037 343.735C524.037 343.735 531.987 349.159 537.729 350.76L542.317 347.453C542.317 347.453 539.677 344.077 540.506 339.129C534.539 335.259 523.157 340.5 523.157 340.5ZM578.768 205.22L572.552 216.3L573.906 224.777C546.013 279.643 514.957 329.301 514.957 329.301L518.792 338.615L523.333 335.465L526.436 335.736C526.436 335.736 556.169 307.3 594.05 233.875C594.05 233.875 605.01 234.243 605.909 225.355C606.795 216.368 607.414 210.122 607.414 206.523C593.771 201.564 578.768 205.219 578.768 205.219V205.22Z" fill="#010101"/>
<path d="M262.852 419.142C262.111 419.758 261.437 420.385 260.711 421.013L297.403 479.617L338.159 414.5C336.984 414.62 335.792 414.723 334.629 414.82L297.403 474.337L262.852 419.142ZM502.188 147.057L454.538 223.189C456.118 222.447 457.714 221.715 459.348 220.942L508.199 142.906C477.588 149.037 419.756 159.774 364.327 165.625C364.881 166.537 365.425 167.458 365.978 168.373C418.154 162.75 472.065 152.951 502.188 147.057ZM244.787 390.236L230.727 367.791C229.441 367.511 228.14 367.237 226.852 366.941L241.311 390.037C242.332 390.093 243.48 390.156 244.787 390.236ZM374.883 427.445C378.644 422.369 381.196 419.131 381.8 417.095C378.481 418.537 374.23 419.33 371.915 422.855C371.915 422.855 373.606 424.503 374.883 427.445ZM394.214 430.929C394.214 430.929 396.724 430.604 398.919 428.403C398.919 428.403 396.589 424.799 395.199 421.446C393.544 425.66 394.215 430.929 394.215 430.929H394.214ZM382.621 342.073C384.629 358.051 388.466 364.826 388.466 364.826C388.466 364.826 394.488 369.541 405.956 374.234C394.374 352.81 382.621 342.073 382.621 342.073ZM257.178 413.371L261.792 410.788C261.792 410.788 280.738 413.844 394.275 402.132C391.571 400.164 390.232 400.552 390.232 396.036C390.232 394.593 390.476 394.353 388.001 394.353C385.532 394.353 384.472 393.697 381.549 393.697C377.908 393.697 372.477 397.347 316.845 397.347C272.58 397.347 241.564 393.629 239.517 393.629C237.496 393.629 233.509 397.421 221.654 406.956C221.654 406.956 244.966 406.653 257.178 413.372V413.371ZM199.306 484.493C182.247 481.231 147.017 487.121 147.017 487.121L137.576 500.733L192.72 498.145L199.306 484.493ZM578.651 222.821C560.214 255.929 540.159 299.816 518.219 326.963L524.542 323L525.928 321.628L524.784 325.352L527.464 324.077L523.432 331.182L527.188 328.169C527.188 328.169 545.955 307.065 593.414 221.336C582.859 219.736 578.651 222.821 578.651 222.821ZM580.589 209.959L576.743 216.043C576.743 216.043 586.035 214.27 598.401 215.305L602.877 208.998C589.257 206.429 580.589 209.958 580.589 209.958V209.959Z" fill="#E57200"/>
<path d="M522.046 327.591C522.046 327.591 520.293 329.014 517.566 329.772L519.882 334.676L521.31 333.573L520.74 331.808L523.124 327.266L522.046 327.591ZM538.506 340.316C534.649 338.309 527.136 341.281 527.136 341.281C527.136 341.281 534.76 343.066 539.068 345.028C539.068 345.028 538.304 343.271 538.506 340.316Z" fill="#E57200"/>
<path d="M244.787 390.239C247.358 390.421 250.497 390.655 254.141 390.935L240.792 369.773C237.684 369.237 234.245 368.536 230.727 367.794L244.787 390.239ZM271.456 418.387C266.413 418.467 263.642 418.461 263.642 418.461C263.362 418.689 263.12 418.923 262.852 419.145L297.404 474.34L334.629 414.823C331.356 415.131 328.18 415.415 325.066 415.644L297.403 459.513L271.456 418.387ZM488.584 156.37L442.923 228.789C446.358 227.072 450.301 225.185 454.539 223.192L502.188 147.061C472.065 152.954 418.154 162.753 365.979 168.377C367.235 170.44 368.47 172.517 369.683 174.606C412.556 169.882 456.477 162.414 488.585 156.37H488.584ZM263.761 173.942C263.761 170.566 263.608 167.153 263.303 163.686C233.604 166.829 215.903 173.842 209.103 177.027C219.524 174.122 238.015 173.232 263.761 173.942ZM489.452 310.867C489.452 310.867 453.327 260.161 383.859 209.004C389.761 221.213 395.256 233.824 400.199 246.849C400.9 248.679 400.796 250.276 399.236 250.276C384.021 250.276 330.304 220.732 277.536 226.025C304.942 252.123 332.188 288.745 305.769 275.393C305.769 275.393 333.355 292.417 365.753 326.558C389.889 326.558 394.688 330.63 396.108 334.005C398.856 340.521 402.856 352.095 418.658 370.731C425.912 370.731 427.238 370.257 429.895 363.739C429.895 363.739 431.871 372.059 428.239 378.161C461.173 404.182 525.124 430.397 534.9 430.397C538.836 430.397 530.732 394.608 512.211 351.571C506.16 324.311 502.821 316.67 489.452 310.867ZM189.264 279.875C189.264 279.875 198.684 285.417 214.152 297.091C210.355 290.518 200.336 283.365 189.367 276.707L165.296 278.472L167.072 281.345C174.426 280.876 181.824 280.377 189.264 279.874V279.875ZM331.022 322.033C327.21 342.629 331.199 359.161 331.199 359.161C330.546 352.277 335.972 329.193 335.972 329.193L331.022 322.033V322.033ZM318.928 310.275C315.132 333.909 320.479 352.763 320.479 352.763C319.338 344.077 323.868 318.504 323.868 318.504L318.928 310.275ZM306.96 299.582C303.046 324.841 309.148 345.013 309.148 345.013C308.012 333.521 311.911 306.745 311.911 306.745L306.96 299.582ZM279.734 257.9C279.734 257.9 233.284 219.462 175.62 209.782C173.536 209.782 169.368 218.547 169.368 218.547C169.368 218.547 175.472 213.041 177.328 213.041C226.709 222.547 279.734 257.9 279.734 257.9Z" fill="#00617F"/>
<path d="M412.14 422.373C418.867 418.387 423.796 414.595 423.796 414.595C401.613 415.564 393.253 412.861 393.253 412.861C397.223 408.899 402.181 405.483 405.32 402.346C402.931 402.723 400.475 402.985 398.078 403.19C398.049 404.268 396.866 405.494 393.482 407.547C386.961 408.596 380.428 409.56 373.882 410.438C375.704 412.377 377.648 414.264 379.807 416.055C381.31 415.564 382.911 415.079 384.623 414.499C384.623 415.855 384.261 417.423 383.742 418.992C386.555 420.898 389.559 422.505 392.706 423.787C393.054 421.615 393.707 419.345 395.024 417.292C396.147 417.606 396.758 420.891 397.388 421.791C399.033 424.199 401.195 424.591 401.596 426.575C410.897 428.715 422.695 429.307 438.255 427.351L442.571 423.851C419.807 424.261 412.139 422.374 412.139 422.374L412.14 422.373ZM375.271 389.008C365.323 392.184 361.048 389.96 361.048 389.96C362.999 388.016 364.259 384.2 364.259 384.2C355.455 386.659 352.723 384.212 352.723 384.212C354.12 383.368 355.531 379.992 355.531 379.992C344.103 379.992 337.859 381.875 337.859 381.875C347.351 383.067 353.57 387.235 358.853 392.623C366.298 392.093 370.854 391.426 374.045 390.907L375.271 389.008Z" fill="white"/>
<path d="M356.01 383.241C356.01 383.241 360.832 383.531 366.417 381.541C366.417 381.541 366.714 385.282 364.185 388.64C364.185 388.64 368.91 388.607 378.621 386.36C378.621 386.36 377.782 388.299 376.61 390.465C378.367 390.175 379.69 389.987 381.084 389.987C384.206 389.987 384.58 390.643 387.32 390.643C392.486 390.643 393.122 391.715 393.886 397.731C394.933 399.264 396.145 400.303 396.971 401.198C400.795 400.901 405.2 400.485 409.63 399.857C409.63 399.857 404.701 406.7 397.262 411.741C397.262 411.741 417.905 413.686 428.597 412.346C428.597 412.346 423.981 417.98 417.631 421.219C417.631 421.219 431.899 422.131 447.224 421.869C447.224 421.869 444.216 425.194 441.22 427.611C441.22 427.611 460.158 431.883 473.627 428.678C424.979 409.329 398.206 380.041 357.49 380.041C356.886 381.758 356.01 383.241 356.01 383.241ZM159.744 470.814L148.802 484.825C148.802 484.825 180.975 479.807 200.27 482.737L205.626 473.551C195.106 468.099 159.745 470.814 159.745 470.814H159.744Z" fill="white"/>
<path d="M164.746 464.544L161.356 468.792C161.356 468.792 194.57 466.267 206.688 471.866L214.568 460.005C203.831 458.266 164.746 464.544 164.746 464.544ZM170.496 457.507L166.631 462.2C166.631 462.2 206.412 456.002 215.82 458.288L216.519 457.331C206.671 454.086 170.497 457.506 170.497 457.506L170.496 457.507ZM183.898 442.11L172.296 455.335C172.296 455.335 204.544 451.986 217.782 455.705L231.158 440.251C217.574 438.016 183.898 442.11 183.898 442.11ZM201.199 424.712L185.914 439.88C185.914 439.88 214.112 436.06 232.711 438.501L240.022 430.426C233.056 424.484 201.199 424.712 201.199 424.712Z" fill="white"/>
<path d="M204.098 422.064L203.297 422.789C203.297 422.789 230.803 422.367 241.358 428.959L242.943 427.288C234.41 422.44 204.098 422.064 204.098 422.064ZM219.298 408.926L206.165 420.206C206.165 420.206 236.805 420.764 244.326 425.822L255.617 414.686C245.692 409.051 219.298 408.926 219.298 408.926ZM201.734 483.971L202.15 486.748L206.539 479.044L206.111 476.38L201.734 483.971ZM207.579 473.94L208.03 476.603L215.415 465.815L214.932 462.769L207.579 473.94ZM216.463 460.603L216.983 463.784L217.693 462.872L217.083 459.752L216.463 460.603ZM218.599 457.745L219.223 460.984L231.783 446.848L231.256 442.992L218.599 457.745ZM232.884 441.163L233.435 445.046L241.027 436.931L240.067 433.219L232.884 441.163ZM241.578 431.576L242.547 435.334L244.024 433.795L243.499 429.489L241.578 431.576ZM245.151 427.744L245.692 432.101L255.668 422.315L255.546 417.246L245.151 427.744Z" fill="white"/>
</g>
<defs>
<clipPath id="clip0_2_15144">
<rect width="612.411" height="512" fill="white" transform="translate(0.441406 0.800781)"/>
</clipPath>
</defs>
</svg>
