<svg width="828" height="513" viewBox="0 0 828 513" fill="none" xmlns="http://www.w3.org/2000/svg">
<g clip-path="url(#clip0_843_2486)">
<path d="M243.746 312.773C243.746 295.695 248.293 285.992 257.996 278.562C266.535 271.742 279.121 271.132 308.176 255.773C308.176 268.304 307.621 284.273 307.621 309.945C307.621 340.718 289.934 352.14 270.582 352.14C253.449 352.14 243.746 337.336 243.746 312.773ZM245.465 194.227C246.019 167.446 253.449 152.031 279.121 152.031C299.637 152.031 308.176 164.008 308.176 182.804C308.176 206.148 303.019 210.75 275.129 218.124C249.457 225 215.246 230.655 192.457 243.187C169.668 255.718 154.809 285.936 154.809 321.866C154.809 388.569 185.027 415.96 236.926 415.96C267.699 415.96 296.809 399.991 309.34 372.6H310.505C311.059 384.577 312.223 397.108 315.661 407.976H404.599C393.675 394.336 393.675 364.672 393.675 341.328V182.804C393.675 117.82 360.019 91.5938 284.222 91.5938C246.019 91.5938 219.793 96.6949 198.113 111.555C176.433 126.359 163.902 152.031 163.347 194.227H245.465Z" fill="black"/>
<path d="M530.575 309.946C531.129 323.641 532.294 335.618 536.84 344.711C541.997 353.25 550.536 358.961 565.34 358.961C587.02 358.961 598.387 345.266 598.387 327.578C598.387 313.328 591.511 299.633 563.011 289.929C487.159 264.257 450.675 249.453 450.675 184.469C450.675 122.867 493.979 91.5391 568.112 91.5391C654.777 91.5391 679.839 133.734 679.839 178.203V188.461H597.721V182.75C597.721 155.969 586.909 148.539 567.503 148.539C542.995 148.539 536.175 160.515 536.175 177.039C536.175 231.765 683.831 195.281 683.831 314.992C683.831 377.148 642.19 415.906 565.839 415.906C483.167 415.906 448.402 385.132 448.402 323.53V309.835H530.575V309.946Z" fill="black"/>
<path d="M0 0.0507812H144.218V63.926H85.4997V448.176H144.218V512.051H0V0.0507812Z" fill="black"/>
<path d="M682.889 448.176H741.607V63.926H682.889V0.0507812H827.162V512.051H682.889V448.176Z" fill="black"/>
</g>
<defs>
<clipPath id="clip0_843_2486">
<rect width="827.162" height="512" fill="white" transform="translate(0 0.0507812)"/>
</clipPath>
</defs>
</svg>
