<svg width="1024" height="332" viewBox="0 0 1024 332" fill="none" xmlns="http://www.w3.org/2000/svg">
<g clip-path="url(#clip0_757_355)">
<path d="M388.798 6.49155L254.735 326.351H167.268L101.295 71.0885C97.2902 55.366 93.8075 49.606 81.6262 42.982C61.7383 32.1927 28.8958 22.0701 0 15.7875L1.96265 6.49155H142.757C160.703 6.49155 176.836 18.4381 180.911 39.1047L215.754 224.192L301.865 6.48622H388.798V6.49155ZM731.506 221.92C731.858 137.499 614.77 132.848 615.575 95.1364C615.826 83.6591 626.754 71.4565 650.674 68.3419C662.53 66.7899 695.196 65.6059 732.247 82.6565L746.78 14.8275C726.871 7.60085 701.255 0.64624 669.383 0.64624C587.597 0.64624 530.04 44.1233 529.555 106.379C529.027 152.427 570.637 178.123 601.986 193.424C634.237 209.093 645.058 219.162 644.935 233.178C644.706 254.634 619.213 264.106 595.389 264.479C553.8 265.119 529.667 253.226 510.429 244.282L495.432 314.357C514.765 323.226 550.45 330.964 587.448 331.354C674.375 331.354 731.239 288.415 731.506 221.92ZM947.472 326.351H1024L957.2 6.49155H886.566C870.684 6.49155 857.286 15.7395 851.356 29.9581L727.191 326.351H814.076L831.324 278.575H937.483L947.472 326.351ZM855.148 213.018L898.699 92.9231L923.766 213.018H855.148ZM507.021 6.49155L438.6 326.351H355.859L424.307 6.49155H507.021Z" fill="#1434CB"/>
</g>
<defs>
<clipPath id="clip0_757_355">
<rect width="1024" height="330.708" fill="white" transform="translate(0 0.64624)"/>
</clipPath>
</defs>
</svg>
