<svg width="1024" height="135" viewBox="0 0 1024 135" fill="none" xmlns="http://www.w3.org/2000/svg">
<g clip-path="url(#clip0_806_548)">
<path fill-rule="evenodd" clip-rule="evenodd" d="M104.927 11.2607C105.582 11.2814 106.176 11.3226 106.697 11.3897C108.048 11.5599 107.847 12.7722 107.537 14.5828C99.9906 59.6007 96.6531 108.095 123.255 131.283C123.534 131.541 123.921 132.082 123.792 132.283C123.663 132.479 122.879 132.376 122.554 132.356C109.467 131.535 56.6441 110.54 58.888 20.4325C58.9241 18.9881 59.1201 18.3278 61.2609 17.6985C68.4054 15.6196 91.0046 11.5702 102.425 11.2607H104.927ZM20.5194 56.6346C21.7677 55.7576 35.8968 48.7937 48.8909 44.1511C51.4908 43.3206 51.4753 46.0081 51.5991 46.72C63.737 115.885 93.4084 124.587 101.755 131.427C102.874 132.175 101.44 132.448 100.016 132.381C40.0235 132.572 21.9638 77.4025 18.6417 59.3118C18.3322 57.6456 19.271 57.5167 20.5194 56.6346ZM1.32991 100.512C4.39919 96.7468 13.3491 89.1999 17.0735 86.729C18.2032 85.981 19.0183 87.7091 20.0139 90.0614C24.0375 98.6915 30.0367 107.765 35.9277 113.739C47.7096 125.675 60.5903 130.235 61.2506 130.762C62.2513 131.587 62.2462 132.237 60.3221 132.309C19.5547 133.826 2.89292 114.543 0.112511 103.37C-0.186679 102.158 0.0764023 102.029 1.31959 100.512H1.32991Z" fill="#230B59"/>
<path d="M219.373 9.79088L201.473 81.7462L185.265 9.78572H154.366L184.698 132.17H212.399L230.495 60.416L248.395 132.17H276.096L306.618 9.79603H276.096L260.079 81.7514L242.364 9.79088H219.373ZM350.847 100.879C349.15 107.059 344.44 109.85 338.415 109.85C329.929 109.85 324.657 104.072 323.713 93.3064H378.548V85.5326C378.548 58.8221 363.846 40.4837 337.847 40.4837C313.345 40.4837 295.259 59.6216 295.259 87.3225C295.259 115.23 312.406 134.161 338.41 134.161C360.457 134.161 375.153 121.611 378.171 100.879H350.847ZM337.847 64.8007C345.193 64.8007 349.526 70.3822 349.908 77.7588H324.276C326.164 69.3866 330.878 64.8007 337.847 64.8007ZM462.435 132.17V77.1655C462.435 53.8493 448.682 40.2929 424.561 40.2929C402.7 40.2929 388.194 54.0453 385.744 71.3829H413.63C414.951 67.4006 418.154 64.8059 423.617 64.8059C430.777 64.8059 433.986 69.7889 433.986 75.5716V81.349C430.591 78.7595 422.302 76.366 415.328 76.366C396.86 76.366 382.726 87.5289 382.726 104.872C382.726 123.803 396.86 133.769 413.63 133.769C422.678 133.769 431.154 130.581 433.981 127.595V132.175H462.435V132.17ZM433.981 107.059C432.098 110.644 427.012 113.037 421.549 113.037C415.704 113.037 409.865 110.448 409.865 104.268C409.865 98.2843 415.704 95.6947 421.544 95.6947C427.012 95.6947 432.098 98.0883 433.981 101.875V107.059ZM500.324 2.61546H470.745V132.17H500.329V2.61546H500.324ZM519.152 101.276C519.152 123.999 530.459 133.965 550.433 133.965C557.025 133.965 563.432 132.769 566.826 131.18V104.665C563.85 105.954 560.645 106.632 557.402 106.662C551.563 106.662 548.359 103.67 548.359 96.6955V66.797H566.073V42.48H548.359V17.7607H519.152V42.48H506.715V66.797H519.152V101.276ZM572.779 132.17H602.363V77.9548C603.869 71.7801 608.77 68.1898 614.609 68.1898C622.146 68.1898 625.726 73.5701 625.726 80.9467V132.17H655.124V73.3741C655.124 53.4418 644.007 40.4837 625.163 40.4837C615.362 40.4837 607.073 44.6724 602.363 50.2538V2.61546H572.779V132.17ZM719.207 3.21384C715.627 1.82105 711.103 0.820312 705.455 0.820312C684.723 0.820312 672.477 14.3716 672.477 35.8978V42.48H659.854V66.797H672.477V132.17H701.684V66.797H718.078V42.48H701.684V37.693C701.684 30.5227 705.641 26.9324 712.238 26.9324C714.874 26.9324 717.134 27.5308 719.207 28.7276V3.21384ZM780.768 42.0777C779.453 41.2833 776.435 40.4837 772.67 40.4837C764.189 40.4837 757.592 44.4712 753.449 50.4499V42.48H723.865V132.17H753.449V79.5539C754.956 73.1729 760.418 69.3866 768.522 69.3866C773.232 69.3866 777.189 70.1861 780.768 72.1721V42.0777ZM871.872 87.3277C871.872 59.6216 852.77 40.4889 826.952 40.4889C801.325 40.4889 783.616 59.6216 783.616 87.3277C783.616 115.029 802.903 134.167 828.531 134.167C854.344 134.167 871.872 115.029 871.872 87.3277ZM841.277 87.3277C841.277 99.6822 836.186 108.256 826.952 108.256C817.909 108.256 812.823 99.6822 812.823 87.3225C812.823 74.968 817.909 66.1986 826.952 66.1986C836.186 66.1986 841.277 74.968 841.277 87.3277ZM878.253 132.17H907.837V77.9548C909.348 71.7801 914.244 68.1898 920.088 68.1898C927.625 68.1898 931.205 73.5701 931.205 80.9467V132.17H960.603V73.3741C960.603 53.4418 949.481 40.4837 930.637 40.4837C920.841 40.4837 912.552 44.6724 907.837 50.2538V42.48H878.253V132.17ZM976.326 101.276C976.326 123.999 987.633 133.965 1007.61 133.965C1014.2 133.965 1020.61 132.769 1024 131.18V104.665C1021.03 105.954 1017.82 106.633 1014.58 106.662C1008.74 106.662 1005.53 103.67 1005.53 96.6955V66.797H1023.25V42.48H1005.53V17.7607H976.326V42.48H963.889V66.797H976.326V101.276Z" fill="#230B59"/>
</g>
<defs>
<clipPath id="clip0_806_548">
<rect width="1024" height="133.346" fill="white" transform="translate(0 0.820312)"/>
</clipPath>
</defs>
</svg>
