<svg width="1025" height="398" viewBox="0 0 1025 398" fill="none" xmlns="http://www.w3.org/2000/svg">
<g clip-path="url(#clip0_876_1876)">
<path d="M1024.6 125.202L1015.76 119.741C880.027 40.6917 682.924 1.42711 592.433 0.126953H591.133C576.311 0.126953 565.91 5.32755 560.45 15.4687C555.769 24.0497 556.289 32.6307 558.629 40.1716C557.069 38.3514 554.729 36.5312 552.389 34.711C545.108 29.2504 536.527 24.8298 536.527 24.8298C536.527 24.8298 537.567 31.8507 534.967 31.0706C533.667 30.5505 532.106 30.0305 530.546 29.2504C523.265 25.87 512.604 19.3692 512.604 19.3692C512.604 19.3692 501.683 25.87 494.402 29.2504C492.842 30.0305 491.282 30.5505 489.981 31.0706C487.381 31.8507 488.421 24.8298 488.421 24.8298C488.421 24.8298 479.84 29.2504 472.559 34.711C470.219 36.5312 467.879 38.3514 466.319 40.1716C468.659 32.8908 469.179 24.3098 464.498 15.4687C459.038 5.32755 448.897 0.126953 433.815 0.126953H432.515C342.284 1.68714 145.181 40.6917 9.44504 119.741L0.604004 125.202C0.604004 125.202 13.8656 159.266 46.8894 168.887L42.4689 170.967C42.4689 170.967 61.1911 201.131 90.0545 207.371L84.5939 209.712C84.5939 209.712 104.876 242.735 144.401 249.496L138.68 252.357C138.68 252.357 166.763 282.78 210.189 285.64L203.948 290.321C203.948 290.321 232.551 309.303 274.936 314.244L268.175 320.224C268.175 320.224 343.064 347.528 405.731 324.905C423.154 368.33 465.538 397.974 513.124 397.974C560.71 397.974 603.355 368.59 620.517 324.905C683.184 347.788 758.073 320.224 758.073 320.224L751.312 314.244C793.437 309.563 822.3 290.321 822.3 290.321L816.06 285.64C859.225 283.04 887.568 252.357 887.568 252.357L881.847 249.496C921.372 242.475 941.654 209.712 941.654 209.712L936.194 207.371C965.057 201.131 983.779 170.967 983.779 170.967L979.359 168.887C1011.34 159.266 1024.6 125.202 1024.6 125.202Z" fill="#B4975A"/>
<path d="M1010.3 129.363C877.427 51.8736 682.404 12.609 592.173 11.0488C581.252 10.7888 573.971 13.3891 570.071 20.6699C563.83 32.3713 572.671 45.6329 576.311 51.3535C584.372 63.575 595.294 82.5572 595.294 105.44C595.294 149.905 559.409 182.669 515.204 182.669C514.164 182.669 513.384 182.669 512.344 182.669C511.304 182.669 510.524 182.669 509.484 182.669C465.278 182.669 429.394 149.905 429.394 105.44C429.394 82.5572 440.315 63.575 448.376 51.3535C452.277 45.6329 461.118 32.6313 454.617 20.6699C450.717 13.6491 443.436 11.0488 432.515 11.0488C342.284 12.609 147.261 51.8736 14.3855 129.363C14.3855 129.623 35.708 166.027 77.8329 162.907C71.3322 166.027 64.8314 169.407 58.3307 172.788C58.3307 173.308 77.8329 204.772 124.378 200.351C116.577 203.991 109.037 207.632 101.236 211.532C101.236 212.052 123.598 243.256 172.744 242.216C161.563 247.937 154.542 251.577 154.542 251.577C154.542 251.837 187.046 283.041 239.312 274.46C233.591 278.62 227.871 283.041 221.11 287.721C221.11 287.721 259.594 308.784 304.84 302.283C299.119 306.703 293.138 311.124 287.418 315.805C287.418 315.284 356.586 334.787 405.991 312.944C448.376 294.222 472.039 248.457 477.5 237.015C485.821 238.836 493.102 239.876 498.822 240.656C498.822 241.176 507.923 241.956 512.344 241.956C516.764 242.216 525.865 241.436 525.865 240.656C531.326 239.876 538.867 238.836 547.188 237.015C552.649 248.457 576.051 294.482 618.696 312.944C668.102 334.787 737.27 315.024 737.27 315.805C731.55 311.384 725.569 306.703 719.848 302.283C765.094 308.784 803.578 287.721 803.578 287.721C796.817 283.041 791.097 278.62 785.376 274.46C837.642 283.041 870.146 251.837 870.146 251.577C870.146 251.577 863.385 247.937 851.944 242.216C901.089 242.996 923.192 211.792 923.452 211.532C915.651 207.632 908.11 203.991 900.309 200.351C946.855 205.032 966.097 173.308 966.357 172.788C959.856 169.407 953.356 166.287 946.855 162.907C989.24 165.767 1010.3 129.623 1010.3 129.363Z" fill="#0A2240"/>
<path d="M474.38 213.352C474.38 213.352 355.806 173.567 407.292 47.1921C407.292 47.1921 281.697 52.3927 109.817 121.821C109.817 121.821 97.8554 126.761 90.8345 129.362C83.8137 131.962 72.3724 136.383 56.2505 128.582C56.2505 128.582 213.569 46.412 415.613 27.1698C442.136 24.5695 445.776 28.73 438.755 38.6111C433.035 47.1921 360.746 138.983 474.38 213.352Z" fill="white"/>
<path d="M369.067 83.0762C267.395 96.3377 167.804 131.702 167.804 131.702C184.706 161.865 230.731 149.124 230.731 149.124C316.801 124.681 355.286 116.36 367.767 114.02C367.247 104.399 367.507 94.2575 369.067 83.0762Z" fill="#B4975A"/>
<path d="M369.587 132.482C352.685 135.863 281.437 150.425 209.668 177.208C209.668 177.208 232.291 202.951 277.276 190.209C314.981 179.548 363.606 163.946 377.908 159.526C374.268 151.465 371.407 142.364 369.587 132.482Z" fill="#B4975A"/>
<path d="M385.449 173.828C370.107 178.769 293.398 203.732 260.895 216.213C260.895 216.213 279.357 241.176 333.183 220.114C370.627 205.292 391.17 196.711 400.271 192.81C394.81 187.09 389.87 180.849 385.449 173.828Z" fill="#B4975A"/>
<path d="M412.232 203.471C398.711 209.191 349.045 231.034 320.182 244.816C320.182 244.816 356.326 262.498 402.091 234.414L430.435 215.692C424.194 212.312 417.953 208.411 412.232 203.471Z" fill="#B4975A"/>
<path d="M444.216 223.232C435.115 228.953 397.41 252.616 378.948 266.397C378.948 266.397 410.152 279.399 442.396 248.975C452.797 239.094 458.518 233.634 461.638 230.253C455.917 228.433 450.197 226.093 444.216 223.232Z" fill="#B4975A"/>
<path d="M550.829 213.352C550.829 213.352 669.403 173.567 617.916 47.1921C617.916 47.1921 743.511 52.3927 915.391 121.821C915.391 121.821 927.353 126.761 934.374 129.362C941.394 131.962 952.836 136.383 968.958 128.582C968.958 128.582 811.639 46.412 609.596 27.1698C582.812 24.5695 579.432 28.73 586.453 38.6111C592.433 47.1921 664.462 138.983 550.829 213.352Z" fill="white"/>
<path d="M656.141 83.0762C757.813 96.3377 857.404 131.702 857.404 131.702C840.502 161.865 794.477 149.124 794.477 149.124C708.407 124.681 669.922 116.36 657.441 114.02C658.221 104.399 657.701 94.2575 656.141 83.0762Z" fill="#B4975A"/>
<path d="M655.621 132.482C672.523 135.863 743.771 150.425 815.54 177.208C815.54 177.208 792.917 202.951 747.932 190.209C710.227 179.548 661.601 163.946 647.3 159.526C650.94 151.465 653.801 142.364 655.621 132.482Z" fill="#B4975A"/>
<path d="M639.759 173.828C655.101 178.769 731.81 203.732 764.313 216.213C764.313 216.213 745.851 241.176 692.025 220.114C654.58 205.292 634.038 196.711 624.937 192.81C630.398 187.09 635.338 180.849 639.759 173.828Z" fill="#B4975A"/>
<path d="M612.976 203.471C626.497 209.191 676.163 231.034 705.026 244.816C705.026 244.816 668.882 262.498 623.117 234.414L594.773 215.692C601.014 212.312 607.255 208.411 612.976 203.471Z" fill="#B4975A"/>
<path d="M580.992 223.232C590.093 228.953 627.797 252.616 646.259 266.397C646.259 266.397 615.056 279.399 582.812 248.975C572.411 239.094 566.69 233.634 563.57 230.253C569.29 228.433 575.011 226.093 580.992 223.232Z" fill="#B4975A"/>
<path d="M609.855 282.259C609.855 336.086 566.43 379.511 512.604 379.511C458.778 379.511 415.353 336.086 415.353 282.259C415.353 228.693 458.778 185.008 512.604 185.008C566.17 185.268 609.855 228.693 609.855 282.259Z" fill="white"/>
<path d="M589.573 302.543C589.573 345.188 554.989 379.772 512.604 379.772C469.959 379.772 435.635 345.188 435.635 302.543C435.635 259.898 470.219 225.574 512.604 225.574C555.249 225.314 589.573 259.898 589.573 302.543Z" fill="#B4975A"/>
<path d="M512.604 177.467C454.877 177.467 407.812 224.532 407.812 282.259C407.812 339.986 454.877 387.051 512.604 387.051C570.331 387.051 617.396 339.986 617.396 282.259C617.396 224.532 570.331 177.467 512.604 177.467ZM600.494 265.357C593.993 291.36 576.311 312.423 553.169 324.124C554.989 311.383 560.709 298.641 566.43 285.379C574.751 266.397 584.112 245.335 579.952 223.232C590.353 235.194 597.634 249.495 600.494 265.357ZM466.578 205.55C478.28 198.529 491.801 194.109 506.103 193.069V334.005C498.822 333.485 492.061 332.185 485.301 330.105C484.521 312.683 477.5 296.301 470.479 280.439C458.778 254.176 448.896 231.033 466.578 205.55ZM484.521 343.366C491.541 345.186 498.562 346.487 506.103 347.007V371.97C494.402 371.19 483.22 368.069 473.079 363.129C478.02 358.188 483.22 351.687 484.521 343.366ZM519.105 346.747C526.645 346.227 533.666 345.186 540.687 343.106C542.247 351.427 547.188 358.188 552.128 362.609C541.987 367.549 530.806 370.669 519.105 371.45V346.747ZM539.907 329.845C533.146 331.925 526.385 333.485 519.105 334.005V193.069C533.406 194.109 546.928 198.529 558.629 205.55C576.311 231.293 566.43 254.176 554.729 280.439C547.708 296.301 540.687 312.423 539.907 329.845ZM444.996 223.492C441.095 245.595 450.196 266.397 458.517 285.64C464.238 298.901 469.959 311.643 471.779 324.644C448.636 313.203 430.954 291.88 424.453 265.357C427.574 249.495 434.855 235.194 444.996 223.492ZM424.453 298.121C435.635 316.583 452.537 330.885 472.299 338.946C472.299 339.466 472.299 340.246 472.039 340.766C470.999 347.527 465.538 352.987 461.638 355.848C442.396 342.586 428.614 321.784 424.453 298.121ZM563.83 355.848C559.929 352.727 554.469 347.267 553.429 340.766C553.429 340.246 553.169 339.466 553.169 338.946C572.931 330.625 589.573 316.323 601.014 298.121C596.594 322.044 582.812 342.586 563.83 355.848Z" fill="#0A2240"/>
<path d="M543.81 41.4713C543.81 41.4713 543.029 44.8517 540.949 44.8517C538.869 44.8517 526.388 38.871 520.407 35.4906C517.807 34.1904 514.166 32.1102 512.866 31.3301C512.866 31.3301 507.405 34.1904 504.805 35.4906C498.824 38.871 486.083 44.8517 484.263 44.8517C482.182 44.8517 481.402 41.4713 481.402 41.4713C481.402 41.4713 448.378 61.4936 448.378 116.36C448.378 157.445 469.701 175.907 469.701 175.907L472.561 187.608H508.966H516.246H552.651L555.511 175.907C555.511 175.907 576.833 157.445 576.833 116.36C576.833 61.4936 543.81 41.4713 543.81 41.4713Z" fill="#0A2240"/>
<path d="M559.409 102.579C559.409 85.6772 552.388 71.6355 545.108 63.5746C545.108 63.5746 544.848 68.5152 536.787 63.0545C529.766 58.374 521.445 55.5137 512.604 55.5137C503.763 55.5137 495.442 58.374 488.421 63.0545C480.62 68.5152 480.1 63.5746 480.1 63.5746C472.559 71.8956 465.798 85.6772 465.798 102.579C465.798 116.621 469.179 123.642 470.479 125.722C477.5 143.664 493.622 156.406 512.604 156.406C531.326 156.406 547.448 143.924 554.469 126.242C554.989 125.722 559.409 118.961 559.409 102.579Z" fill="white"/>
<path d="M530.286 141.063C530.286 141.063 530.286 140.803 530.026 140.803C530.026 140.803 525.345 131.962 533.146 125.981C533.146 125.981 550.308 129.621 550.828 106.739C550.828 106.739 550.308 104.398 552.909 99.4578C552.909 99.4578 548.488 95.2973 538.867 102.578C529.246 109.859 524.045 130.401 518.845 125.461C513.644 120.78 515.464 93.9972 512.864 92.957C510.264 93.9972 512.084 120.78 506.883 125.461C501.683 130.401 496.482 109.859 486.861 102.578C477.24 95.2973 472.819 99.4578 472.819 99.4578C475.159 104.398 474.899 106.739 474.899 106.739C475.42 129.621 492.582 125.981 492.582 125.981C500.122 131.962 495.702 140.803 495.702 140.803C495.702 140.803 495.702 141.063 495.442 141.063C474.899 118.96 462.938 121.82 468.659 146.783C474.379 171.226 496.742 275.758 500.382 299.941C499.862 321.784 497.262 329.585 496.742 331.145L494.402 335.565L497.002 340.506C500.903 346.227 503.763 352.727 504.543 355.068L513.124 376.65L521.445 355.068C522.485 352.467 525.085 346.227 528.986 340.506L531.586 335.826L529.246 331.145C528.466 329.585 526.125 322.044 525.605 300.981C528.466 279.139 551.348 171.486 557.329 146.523C562.79 121.82 550.828 118.96 530.286 141.063Z" fill="#0A2240"/>
<path d="M498.562 250.017C491.282 211.012 485.301 182.149 480.62 161.347C476.98 145.485 486.601 151.725 491.802 161.867L498.562 250.017Z" fill="#CE0E2D"/>
<path d="M526.646 250.017C534.186 211.012 539.907 182.149 544.588 161.347C548.228 145.485 538.607 151.725 533.406 161.867L526.646 250.017Z" fill="#CE0E2D"/>
<path d="M486.861 118.18C485.301 117.66 484.52 116.36 485.041 114.799C485.301 114.279 485.561 113.759 486.081 113.499C485.041 112.459 484 111.419 482.7 110.379C482.7 110.379 480.36 121.56 490.241 120.52C490.241 120.52 489.981 119.48 489.201 118.18C488.421 118.44 487.641 118.44 486.861 118.18Z" fill="#CE0E2D"/>
<path d="M542.768 110.379C541.468 111.419 540.167 112.459 539.387 113.499C539.907 113.759 540.167 114.279 540.427 114.799C540.947 116.36 539.907 117.66 538.607 118.18C537.827 118.44 537.047 118.18 536.527 117.92C535.747 119.22 535.487 120.26 535.487 120.26C545.108 121.56 542.768 110.379 542.768 110.379Z" fill="#CE0E2D"/>
<path d="M517.285 264.579C520.405 204.512 525.346 161.867 525.346 156.406C525.346 154.586 525.086 151.985 524.305 149.385L520.925 160.826L519.885 140.544C518.065 138.204 515.724 136.123 512.604 133.783H512.344C509.224 135.863 507.143 138.204 505.323 140.544L504.283 160.826L500.643 149.385C499.863 151.985 499.603 154.586 499.603 156.406C499.603 161.606 504.283 204.251 507.663 264.579C510.784 324.646 503.503 335.827 503.503 335.827C507.924 342.068 512.604 353.249 512.604 353.249C512.604 353.249 517.285 342.068 521.705 335.827C521.705 335.827 514.164 324.646 517.285 264.579Z" fill="#CE0E2D"/>
</g>
<defs>
<clipPath id="clip0_876_1876">
<rect width="1024" height="397.847" fill="white" transform="translate(0.604004 0.126953)"/>
</clipPath>
</defs>
</svg>
