<svg width="526" height="513" viewBox="0 0 526 513" fill="none" xmlns="http://www.w3.org/2000/svg">
<g clip-path="url(#clip0_820_343)">
<path d="M432.265 0.0507812H93.1197C41.7619 0.0507812 0.128235 41.6845 0.128235 93.0422V419.059C0.128235 470.417 41.7619 512.051 93.1197 512.051H432.265C483.623 512.051 525.256 470.417 525.256 419.059V93.0422C525.256 41.6845 483.623 0.0507812 432.265 0.0507812Z" fill="#584CCC"/>
<path d="M422.368 296.487C411.938 285.286 391.981 279.6 363.06 279.6C347.01 279.756 330.996 281.145 315.159 283.757C305.016 273.869 295.78 263.091 287.562 251.554C281.324 242.931 275.559 233.975 270.294 224.726C280.481 192.665 285.643 166.638 285.643 147.344C285.643 123.656 276.258 98.332 249.919 98.332C245.443 98.4618 241.074 99.7233 237.218 101.999C233.363 104.274 230.146 107.489 227.87 111.344C216.634 130.638 221.135 170.34 239.068 210.74C232.823 229.301 226.021 247.372 217.682 267.397C210.549 284.562 202.478 301.322 193.504 317.601C166.638 328.408 109.53 354.645 104.088 383.628C103.27 387.825 103.561 392.162 104.931 396.213C106.301 400.263 108.704 403.886 111.902 406.725C118.345 412.308 126.649 415.27 135.171 415.026C169.572 415.026 203.876 367.403 226.962 326.411C240.09 321.943 253.476 317.897 266.804 314.376C281.422 310.506 295.552 307.331 308.88 304.968C345.302 336.751 377.678 341.567 393.9 341.567C416.194 341.567 424.532 331.9 427.567 323.774C429.226 319.177 429.619 314.219 428.704 309.419C427.789 304.618 425.601 300.152 422.368 296.487ZM398.646 313.197C397.425 319.512 390.9 323.595 381.969 323.595C379.428 323.584 376.898 323.267 374.433 322.651C358.036 318.744 342.337 310.825 326.673 298.474C338.369 296.688 350.182 295.778 362.014 295.754C369.903 295.625 377.787 296.232 385.564 297.568C392.644 299.032 400.635 302.939 398.646 313.197ZM241.998 119.571C242.723 118.156 243.807 116.957 245.142 116.093C246.477 115.23 248.016 114.732 249.603 114.65C257.942 114.65 259.756 124.698 259.756 133.106C259.826 146.504 255.78 167.855 248.838 191.474C234.847 154.422 236.801 128.466 241.998 119.571ZM290.876 288.253C281.422 290.242 271.652 292.544 261.745 295.161C254.629 297.045 247.407 299.099 240.184 301.301C244.022 293.452 247.547 285.672 250.617 278.276C254.664 268.504 258.465 258.737 261.955 249.175C265.018 253.989 268.181 258.653 271.444 263.168C277.697 271.849 284.443 280.163 291.651 288.07L290.876 288.253ZM185.061 338.946C163.047 374.392 141.383 396.789 128.719 396.789C126.643 396.88 124.614 396.153 123.067 394.765C121.888 393.811 120.993 392.552 120.482 391.124C119.971 389.695 119.863 388.154 120.17 386.669C122.577 373.972 147.663 355.656 185.061 338.946Z" fill="white"/>
</g>
<defs>
<clipPath id="clip0_820_343">
<rect width="525.128" height="512" fill="white" transform="translate(0.128235 0.0507812)"/>
</clipPath>
</defs>
</svg>
