<svg width="1025" height="217" viewBox="0 0 1025 217" fill="none" xmlns="http://www.w3.org/2000/svg">
<g clip-path="url(#clip0_846_3227)">
<path d="M65.5828 27.337C80.6514 12.2684 88.1859 4.73405 96.8738 1.91115C104.516 -0.571945 112.748 -0.571946 120.39 1.91115C129.079 4.73405 136.613 12.2684 151.681 27.337L189.349 65.0051C204.418 80.0736 211.952 87.6082 214.775 96.296C217.258 103.938 217.258 112.17 214.775 119.812C211.952 128.5 204.418 136.035 189.349 151.103L151.681 188.771C136.613 203.84 129.079 211.375 120.39 214.197C112.748 216.681 104.516 216.681 96.8738 214.197C88.1859 211.375 80.6514 203.84 65.5828 188.771L58.5008 180.832C54.2152 176.027 52.0725 173.625 50.5447 170.892C49.1896 168.469 48.1955 165.861 47.5937 163.151C46.9151 160.095 46.9151 156.876 46.9151 150.438L46.915 65.6705C46.915 59.2325 46.915 56.0134 47.5936 52.9575C48.1954 50.2471 49.1896 47.6391 50.5446 45.2158C52.0724 42.4835 54.2152 40.0813 58.5008 35.2766L65.5828 27.337Z" fill="url(#paint0_radial_846_3227)"/>
<path d="M65.5828 27.337C80.6514 12.2684 88.1859 4.73405 96.8738 1.91115C104.516 -0.571945 112.748 -0.571946 120.39 1.91115C129.079 4.73405 136.613 12.2684 151.681 27.337L189.349 65.0051C204.418 80.0736 211.952 87.6082 214.775 96.296C217.258 103.938 217.258 112.17 214.775 119.812C211.952 128.5 204.418 136.035 189.349 151.103L151.681 188.771C136.613 203.84 129.079 211.375 120.39 214.197C112.748 216.681 104.516 216.681 96.8738 214.197C88.1859 211.375 80.6514 203.84 65.5828 188.771L58.5008 180.832C54.2152 176.027 52.0725 173.625 50.5447 170.892C49.1896 168.469 48.1955 165.861 47.5937 163.151C46.9151 160.095 46.9151 156.876 46.9151 150.438L46.915 65.6705C46.915 59.2325 46.915 56.0134 47.5936 52.9575C48.1954 50.2471 49.1896 47.6391 50.5446 45.2158C52.0724 42.4835 54.2152 40.0813 58.5008 35.2766L65.5828 27.337Z" fill="url(#paint1_linear_846_3227)"/>
<path d="M62.8922 30.023C70.4261 22.4887 74.1937 18.7215 78.5374 17.31C82.3589 16.0685 86.4745 16.0685 90.2955 17.31C94.6398 18.7216 98.4067 22.4887 105.941 30.023L162.443 86.5252C169.978 94.0592 173.745 97.8268 175.157 102.17C176.398 105.991 176.398 110.108 175.157 113.929C173.745 118.273 169.978 122.04 162.443 129.574L105.941 186.076C98.4067 193.611 94.6398 197.378 90.2955 198.789C86.4745 200.03 82.3589 200.03 78.5374 198.789C74.1937 197.378 70.4261 193.611 62.8922 186.076L27.9146 151.099C12.846 136.03 5.31169 128.496 2.48878 119.808C0.00569129 112.166 0.00569111 103.934 2.48879 96.2913C5.31169 87.6034 12.846 80.0689 27.9146 65.0003L62.8922 30.023Z" fill="url(#paint2_radial_846_3227)"/>
<path d="M289.063 137.35V164.168H307.85V138.521C307.85 136.032 308.831 133.626 310.605 131.869C312.358 130.112 314.759 129.108 317.243 129.108H336.509C345.485 129.108 354.106 125.53 360.451 119.15C366.797 112.79 370.366 104.151 370.366 95.1553C370.366 86.1599 366.797 77.5202 360.451 71.1398C354.106 64.7803 345.485 61.2031 336.488 61.2031H289.063V94.716H307.85V78.9218H335.236C339.494 78.9218 343.564 80.6163 346.57 83.6287C349.576 86.6411 351.267 90.7204 351.267 94.9879C351.267 99.2555 349.576 103.335 346.57 106.347C343.564 109.36 339.494 111.054 335.236 111.054H315.343C311.899 111.054 308.476 111.724 305.303 113.062C302.109 114.38 299.229 116.326 296.787 118.773C294.345 121.221 292.424 124.129 291.088 127.309C289.752 130.467 289.063 133.898 289.063 137.35Z" fill="#1B1340"/>
<path d="M373.267 164.17V123.314C373.267 106.642 382.973 93.3785 402.407 93.3785C405.517 93.3366 408.627 93.6714 411.674 94.4035V111.202C409.462 111.056 407.562 111.056 406.665 111.056C396.374 111.056 391.949 115.783 391.949 125.364V164.17H373.267Z" fill="#1B1340"/>
<path d="M417.268 129.528C417.268 109.027 432.715 93.4004 454.214 93.4004C475.714 93.4004 491.161 109.027 491.161 129.528C491.161 150.029 475.714 165.802 454.214 165.802C432.715 165.802 417.268 150.008 417.268 129.528ZM472.75 129.528C472.75 117.876 464.943 109.613 454.214 109.613C443.465 109.613 435.679 117.855 435.679 129.528C435.679 141.327 443.486 149.443 454.214 149.443C464.964 149.443 472.75 141.306 472.75 129.528Z" fill="#1B1340"/>
<path d="M550.902 129.528C550.902 109.027 566.348 93.4004 587.848 93.4004C609.327 93.4004 624.773 109.027 624.773 129.528C624.773 150.029 609.327 165.802 587.848 165.802C566.348 165.802 550.902 150.008 550.902 129.528ZM606.363 129.528C606.363 117.876 598.556 109.613 587.827 109.613C577.098 109.613 569.291 117.855 569.291 129.528C569.291 141.327 577.098 149.443 587.827 149.443C598.556 149.443 606.363 141.306 606.363 129.528Z" fill="#1B1340"/>
<path d="M634.48 164.166V124.796C634.48 106.512 646.107 93.375 666.855 93.375C687.458 93.375 699.084 106.491 699.084 124.796V164.166H680.548V126.26C680.548 116.093 675.977 109.734 666.855 109.734C657.734 109.734 653.162 116.072 653.162 126.26V164.166H634.48Z" fill="#1B1340"/>
<path d="M545.308 109.757H525.144V135.572C525.144 144.567 528.38 148.688 537.647 148.688C538.524 148.688 540.737 148.688 543.534 148.542V163.729C539.714 164.755 536.332 165.361 532.638 165.361C517.045 165.361 506.441 155.927 506.441 138.082V109.757H493.917V94.8627H497.048C498.28 94.8627 499.511 94.6117 500.638 94.1515C501.786 93.6703 502.809 92.98 503.686 92.1014C504.563 91.2228 505.252 90.1977 505.731 89.0471C506.212 87.8966 506.441 86.6832 506.441 85.449V71.4121H525.123V94.8627H545.287V109.757H545.308Z" fill="#1B1340"/>
<path d="M861.37 94.4004C839.987 94.4004 824.137 109.768 824.137 130.258C824.137 151.918 839.389 166.261 857.781 166.261C867.95 166.261 876.024 161.87 880.51 154.406L881.707 164.651H898.454V130.404C898.454 108.158 882.604 94.4004 861.37 94.4004ZM861.37 150.015C850.753 150.015 842.828 141.966 842.828 130.258C842.828 118.549 850.903 110.499 861.37 110.499C871.688 110.499 879.762 118.256 879.762 130.258C879.762 143.722 870.492 150.015 861.37 150.015Z" fill="#6D4AFF"/>
<path d="M935.142 166.263C949.497 166.263 961.759 158.213 961.759 145.919C961.759 119.575 925.423 125.722 925.423 115.038C925.423 111.526 928.563 108.891 933.497 108.891C938.582 108.891 941.871 111.672 942.619 115.77H960.413C959.366 102.306 948.899 94.256 933.497 94.4024C917.647 94.4024 907.927 103.623 907.927 115.038C907.927 141.675 943.815 134.796 943.815 145.919C943.815 149.285 940.525 151.773 935.142 151.773C929.908 151.773 925.124 149.285 924.227 144.017H906.133C907.18 157.042 918.843 166.263 935.142 166.263Z" fill="#6D4AFF"/>
<path d="M998.009 166.263C1012.36 166.263 1024.63 158.213 1024.63 145.919C1024.63 119.575 988.29 125.722 988.29 115.038C988.29 111.526 991.43 108.891 996.364 108.891C1001.45 108.891 1004.74 111.672 1005.49 115.77H1023.28C1022.23 102.306 1011.77 94.256 996.364 94.4024C980.514 94.4024 970.795 103.623 970.795 115.038C970.795 141.675 1006.68 134.796 1006.68 145.919C1006.68 149.285 1003.39 151.773 998.009 151.773C992.776 151.773 987.991 149.285 987.093 144.017H969C970.047 157.042 981.71 166.263 998.009 166.263Z" fill="#6D4AFF"/>
<path d="M789.984 60.375H740.847V164.656H760.311V138.697C760.311 136.175 761.328 133.738 763.166 131.958C764.983 130.178 767.47 129.161 770.044 129.161H789.984C799.284 129.161 808.194 125.537 814.747 119.116C821.321 112.675 824.998 103.944 824.998 94.8528C825.019 90.3391 824.133 85.8466 822.381 81.672C820.629 77.4974 818.056 73.683 814.79 70.4831C811.524 67.2833 807.675 64.7404 803.414 63.0027C799.175 61.265 794.612 60.375 789.984 60.375ZM805.317 94.5773C805.317 96.7176 804.885 98.8367 804.041 100.807C803.198 102.778 801.987 104.579 800.43 106.084C798.894 107.589 797.056 108.797 795.045 109.602C793.033 110.428 790.871 110.831 788.686 110.831H760.225V78.345H788.686C790.871 78.345 793.033 78.7688 795.066 79.5953C797.077 80.4217 798.916 81.6296 800.451 83.1341C801.987 84.6599 803.22 86.4611 804.041 88.4319C804.863 90.4239 805.295 92.543 805.274 94.6833L805.317 94.5773Z" fill="#6D4AFF"/>
</g>
<defs>
<radialGradient id="paint0_radial_846_3227" cx="0" cy="0" r="1" gradientUnits="userSpaceOnUse" gradientTransform="translate(65.8186 220.269) rotate(-58.142) scale(180.316 281.977)">
<stop stop-color="#FFD580"/>
<stop offset="0.09375" stop-color="#F6C592"/>
<stop offset="0.205" stop-color="#EBB6A2"/>
<stop offset="0.324466" stop-color="#DFA5AF"/>
<stop offset="0.42875" stop-color="#D397BE"/>
<stop offset="0.53375" stop-color="#C486CB"/>
<stop offset="0.64875" stop-color="#B578D9"/>
<stop offset="0.77125" stop-color="#A166E5"/>
<stop offset="0.89125" stop-color="#8B57F2"/>
<stop offset="1" stop-color="#704CFF"/>
</radialGradient>
<linearGradient id="paint1_linear_846_3227" x1="58.379" y1="-42.8424" x2="100.387" y2="213.58" gradientUnits="userSpaceOnUse">
<stop stop-color="#6D4AFF"/>
<stop offset="0.392009" stop-color="#B39FFB" stop-opacity="0.978022"/>
<stop offset="1" stop-color="#FFE8DB" stop-opacity="0.8"/>
</linearGradient>
<radialGradient id="paint2_radial_846_3227" cx="0" cy="0" r="1" gradientUnits="userSpaceOnUse" gradientTransform="translate(49.9794 198.31) rotate(-58.142) scale(145.037 226.808)">
<stop stop-color="#FFD580"/>
<stop offset="0.09375" stop-color="#F6C592"/>
<stop offset="0.205" stop-color="#EBB6A2"/>
<stop offset="0.324466" stop-color="#DFA5AF"/>
<stop offset="0.42875" stop-color="#D397BE"/>
<stop offset="0.53375" stop-color="#C486CB"/>
<stop offset="0.64875" stop-color="#B578D9"/>
<stop offset="0.77125" stop-color="#A166E5"/>
<stop offset="0.89125" stop-color="#8B57F2"/>
<stop offset="1" stop-color="#704CFF"/>
</radialGradient>
<clipPath id="clip0_846_3227">
<rect width="1024" height="216.011" fill="white" transform="translate(0.625 0.0449219)"/>
</clipPath>
</defs>
</svg>
