<svg width="527" height="513" viewBox="0 0 527 513" fill="none" xmlns="http://www.w3.org/2000/svg">
<g clip-path="url(#clip0_820_499)">
<path d="M433.034 0.0507812H93.8889C42.5311 0.0507812 0.897461 41.6845 0.897461 93.0422V419.059C0.897461 470.417 42.5311 512.051 93.8889 512.051H433.034C484.392 512.051 526.026 470.417 526.026 419.059V93.0422C526.026 41.6845 484.392 0.0507812 433.034 0.0507812Z" fill="#00261A"/>
<path d="M218.312 301.645H121.507V398.45H218.312V301.645Z" fill="#52CCA3"/>
<path d="M396.008 311.582H319.101V388.489H396.008V311.582Z" fill="#52CCA3"/>
<path d="M396.008 123.582H319.101V200.489H396.008V123.582Z" fill="#52CCA3"/>
<path d="M208.375 123.926H131.468V200.833H208.375V123.926Z" fill="#52CCA3"/>
<path d="M396.012 123.579V200.441L240.769 279.091L319.144 123.579H395.992M405.926 113.645H313.043L218.312 301.634L405.946 206.557V113.645H405.926Z" fill="#CAFCEB"/>
<path d="M396.012 311.579V388.511H319.24L242.297 311.579H396.012ZM405.946 301.645H218.312L315.127 398.45H405.951V301.645H405.946Z" fill="#CAFCEB"/>
<path d="M208.373 123.947V277.636L131.441 200.694V123.947H208.373ZM218.307 114.013H121.507V204.837L218.312 301.622V113.988L218.307 114.013Z" fill="#CAFCEB"/>
</g>
<defs>
<clipPath id="clip0_820_499">
<rect width="525.128" height="512" fill="white" transform="translate(0.897461 0.0507812)"/>
</clipPath>
</defs>
</svg>
