<svg width="1024" height="209" viewBox="0 0 1024 209" fill="none" xmlns="http://www.w3.org/2000/svg">
<g clip-path="url(#clip0_781_696)">
<path d="M254.666 136.465L272.407 127.147C280.297 142.735 292.473 150.243 308.938 150.243C325.059 150.243 335.979 145.041 335.979 133.054C335.979 121.582 327.746 116.209 305.889 109.768C280.277 102.24 259.678 95.2659 259.678 69.9975C259.678 47.4351 278.124 32.5713 304.993 32.5713C331.138 32.5713 346.555 45.4723 354.615 61.0411L338.322 72.3224C330.433 59.0593 319.152 52.9804 304.822 52.9804C290.129 52.9804 281.707 58.3542 281.707 68.0347C281.707 80.4022 291.197 84.5183 312.863 90.9593C337.941 98.2959 358.007 106.547 358.007 131.434C358.007 153.101 339.561 170.118 308.042 170.118C281.726 170.137 263.089 156.531 254.666 136.465Z" fill="#363545"/>
<path d="M367.345 167.622V35.0864H389.374V114.074L425.371 72.5127H449.553L418.568 107.271L452.24 167.641H429.125L404.581 123.583L389.355 140.238V167.641H367.345V167.622Z" fill="#363545"/>
<path d="M451.001 120.172C451.001 83.9847 476.613 70.7407 496.317 70.7407C517.641 70.7407 538.05 83.4512 538.05 122.154V127.356H473.03C473.926 144.545 484.502 152.072 498.47 152.072C510.838 152.072 518.003 147.956 525.168 140.963L536.811 152.434C526.959 163.353 513.887 169.623 496.87 169.623C473.03 169.604 451.001 155.083 451.001 120.172ZM517.812 110.854C516.555 96.3522 509.389 88.6344 496.145 88.6344C485.398 88.6344 475.546 94.7324 473.392 110.854H517.812Z" fill="#363545"/>
<path d="M561.87 142.734V90.0633H545.386V72.5126H561.87V39.374H583.899V72.5126H608.443V90.0633H583.899V137.17C583.899 147.384 586.948 151.5 597.867 151.5C601.087 151.5 605.203 150.967 607.357 150.243V167.622C605.032 168.155 596.781 168.879 591.235 168.879C567.072 168.879 561.87 159.923 561.87 142.734Z" fill="#363545"/>
<path d="M617.037 120.172C617.037 83.8132 641.582 70.7407 662.715 70.7407C686.363 70.7407 696.387 83.8132 702.123 98.5055L683.486 105.137C679.732 94.3894 672.91 89.1871 662.353 89.1871C649.814 89.1871 639.238 97.4193 639.238 120.172C639.238 140.41 647.47 151.52 661.991 151.52C672.014 151.52 679.008 148.471 684.21 135.036L702.485 141.668C695.682 156.893 684.401 169.604 661.476 169.604C639.428 169.604 617.037 154.912 617.037 120.172Z" fill="#363545"/>
<path d="M715.729 167.622V35.0864H737.948V85.4137C744.046 78.9727 755.499 70.7214 772.688 70.7214C789.343 70.7214 800.091 80.5734 800.091 99.3818V167.622H777.89V104.927C777.89 94.37 773.412 89.5298 763.731 89.5298C754.051 89.5298 745.99 94.5415 737.929 101.897V167.641H715.729V167.622Z" fill="#363545"/>
<path d="M816.936 119.257V35.0864H839.327V117.295C839.327 137.532 848.112 149.538 868.521 149.538C888.759 149.538 897.543 137.894 897.543 117.466V35.0864H919.572V119.086C919.572 149.175 902.555 169.775 868.349 169.775C831.8 169.775 816.936 149.366 816.936 119.257Z" fill="#363545"/>
<path d="M934.074 203.448V72.513H956.103V85.0519C962.373 77.5247 972.225 70.7217 986.383 70.7217C1008.05 70.7217 1024 87.0147 1024 119.982C1024 152.949 1007.71 169.051 983.334 169.051C973.12 169.051 963.097 164.935 956.103 157.046V203.429H934.074V203.448ZM1001.97 120.172C1001.97 100.106 993.377 89.5491 979.218 89.5491C970.09 89.5491 961.305 95.285 956.103 101.554V139.705C962.01 147.404 970.605 151.52 978.494 151.52C995.168 151.501 1001.97 141.306 1001.97 120.172Z" fill="#363545"/>
<path d="M190.58 46.0629L123.103 7.16935C123.103 7.16935 112.412 0.918945 95.357 0.918945C77.5966 0.918945 67.3063 7.35992 67.3063 7.35992L4.80225 43.1283L99.8923 97.7812V208.231L162.473 172.5C162.473 172.5 173.659 166.326 182.158 151.653C189.647 138.733 190.58 126.232 190.58 126.232V46.0629ZM88.8207 64.0519C88.8207 64.0519 102.77 61.4793 114.566 68.2823C126.361 75.0854 133.317 79.0872 133.317 79.0872C133.317 79.0872 133.336 88.5581 133.336 102.717C133.336 114.055 123.732 125.813 123.732 125.813L123.751 84.2133L88.8207 64.0519ZM144.122 155.293L123.751 166.974V156.017L139.605 146.946C154.698 136.065 157.194 120.02 157.194 114.455L157.137 65.1762L113.899 40.2889C113.899 40.2889 107.324 35.9822 95.5094 35.9822C83.6946 35.9822 77.2536 39.9649 77.2536 39.9649L62.0659 48.6927L52.4807 43.1473L73.4615 31.161C73.4615 31.161 81.6747 26.6066 95.4332 26.6066C108.067 26.6066 117.9 31.5421 117.9 31.5421L166.722 59.7452L166.665 113.522C167.008 121.792 163.159 141.991 144.122 155.293Z" fill="#005F9E"/>
<path d="M0 78.8964L66.6583 117.142L66.6012 128.538L28.6795 106.795L4.8212 120.363L66.5631 155.94L66.6012 166.917L0.457347 128.862C0.628852 133.321 4.66875 147.06 12.4055 157.693C20.2567 168.46 29.213 173.034 29.213 173.034L90.3451 208.23V103.269L0.0571684 51.4175L0 78.8964Z" fill="#005F9E"/>
</g>
<defs>
<clipPath id="clip0_781_696">
<rect width="1024" height="207.312" fill="white" transform="translate(0 0.918945)"/>
</clipPath>
</defs>
</svg>
