<svg width="513" height="513" viewBox="0 0 513 513" fill="none" xmlns="http://www.w3.org/2000/svg">
<g clip-path="url(#clip0_795_4040)">
<path d="M512.141 256.575C512.141 397.959 397.518 512.575 256.141 512.575C114.764 512.575 0.141113 397.959 0.141113 256.575C0.141113 115.19 114.757 0.574707 256.141 0.574707C397.526 0.574707 512.141 115.19 512.141 256.575Z" fill="#2D2A26"/>
<path d="M256.141 506.855C206.689 506.846 158.351 492.175 117.235 464.698C76.1196 437.221 44.0734 398.171 25.1474 352.484C6.22143 306.798 1.26541 256.525 10.9058 208.022C20.5462 159.519 44.3503 114.963 79.3089 79.9865C102.496 56.6048 130.072 38.0326 160.455 25.3358C190.838 12.6389 223.429 6.06748 256.358 5.99859C289.287 5.92971 321.905 12.3647 352.341 24.9343C382.777 37.504 410.431 55.9606 433.715 79.2451C456.999 102.529 475.456 130.183 488.026 160.619C500.595 191.055 507.03 223.673 506.961 256.602C506.893 289.531 500.321 322.123 487.624 352.505C474.927 382.888 456.355 410.464 432.974 433.651C409.803 456.94 382.243 475.401 351.89 487.966C321.537 500.532 288.993 506.952 256.141 506.855ZM256.141 12.8938C121.645 12.8938 12.2309 122.308 12.2309 256.804C12.2309 391.3 121.645 500.737 256.141 500.737C390.637 500.737 500.051 391.293 500.051 256.804C500.051 122.315 390.637 12.8938 256.141 12.8938Z" fill="#AA9767"/>
<path d="M150.338 126.481C130.996 142.199 115.403 162.033 104.692 184.537C93.9822 207.042 88.4248 231.652 88.4248 256.575C88.4248 281.498 93.9822 306.108 104.692 328.612C115.403 351.117 130.996 370.95 150.338 386.669V126.481Z" fill="#A32035"/>
<path d="M361.316 125.978V387.157C380.847 371.454 396.607 351.57 407.436 328.97C418.264 306.369 423.886 281.628 423.886 256.567C423.886 231.506 418.264 206.765 407.436 184.164C396.607 161.564 380.847 141.68 361.316 125.978Z" fill="#A32035"/>
<path d="M295.103 419.601V93.5486C269.286 87.1854 242.302 87.2463 216.513 93.7261V419.423C242.302 425.903 269.286 425.964 295.103 419.601Z" fill="#A32035"/>
<path d="M305.587 162.469L321.865 129.758H190.136L206.413 162.476L136.065 371.123L199.917 412.979L213.235 375.074H299.506L311.736 412.69L376.446 370.983L305.587 162.469ZM238.45 300.664L256.097 247.696L274.298 300.701L238.45 300.664Z" fill="#2D2A26"/>
<path d="M298.973 162.018L312.061 135.833H199.969L213.05 162.018L141.585 373.957L166.238 396.99L179.038 403.02L194.531 409.923L208.899 368.926H303.952L317.788 411.492L343.906 397.508L371.282 374.882L298.973 162.018ZM229.964 306.791L256.008 228.563L282.858 306.798L229.964 306.791Z" fill="#AA9767"/>
<path d="M229.964 306.791L186.607 337.895L256.141 135.692L325.675 337.895L282.858 306.798L256.008 228.563L229.964 306.791Z" fill="#716134"/>
<path d="M168.265 391.249L186.607 337.896H325.676L343.588 389.998L316.005 406.017L303.953 368.926H208.9L195.952 405.854L168.265 391.249Z" fill="#716134"/>
<path d="M256.141 426.393C162.494 426.393 86.3154 350.185 86.3154 256.575C86.3154 162.964 162.501 86.7563 256.141 86.7563C349.781 86.7563 425.959 162.935 425.959 256.575C425.959 350.214 349.781 426.393 256.141 426.393ZM256.141 93.6669C166.304 93.6669 93.2186 166.745 93.2186 256.575C93.2186 346.404 166.312 419.49 256.141 419.49C345.97 419.49 419.056 346.404 419.056 256.575C419.056 166.745 345.97 93.6669 256.141 93.6669Z" fill="#AA9767"/>
<path d="M256.141 420.259C165.875 420.259 92.449 346.841 92.449 256.575C92.449 166.309 165.875 92.8901 256.141 92.8901C346.407 92.8901 419.833 166.309 419.833 256.575C419.833 346.841 346.407 420.259 256.141 420.259ZM256.141 98.9794C169.256 98.9794 98.5456 169.668 98.5456 256.575C98.5456 343.482 169.234 414.17 256.141 414.17C343.048 414.17 413.736 343.482 413.736 256.575C413.736 169.668 343.033 98.9794 256.141 98.9794Z" fill="#716134"/>
<path d="M263.68 31.9234C264.144 30.4436 264.605 28.9638 265.064 27.4841C259.145 27.1733 253.226 27.1561 247.307 27.4323C247.758 28.9121 248.217 30.3918 248.668 31.8716C244.451 45.6828 240.238 59.6247 236.031 73.6973C239.545 73.3273 243.067 73.0462 246.589 72.876L248.542 65.9285C253.554 65.7361 258.565 65.7509 263.577 65.9729C264.228 68.2912 264.874 70.6119 265.515 72.9352C269.037 73.1275 272.554 73.426 276.066 73.8304C271.952 59.7134 267.831 45.7444 263.703 31.9234M256.141 38.9375C257.739 44.753 259.342 50.5907 260.95 56.4506C257.705 56.3519 254.452 56.3396 251.191 56.4136C252.844 50.5685 254.494 44.7431 256.141 38.9375Z" fill="#AA9767"/>
<path d="M373.553 114.702C376.276 116.951 378.935 119.275 381.529 121.672L387.878 118.217C391.528 121.669 395.027 125.258 398.377 128.982L394.744 135.234C397.067 137.883 399.319 140.596 401.499 143.373C408.691 130.548 415.774 117.824 422.748 105.202L426.877 103.093C423.552 99.3347 420.082 95.7191 416.467 92.2466C402.281 99.606 387.976 107.091 373.553 114.702ZM396.534 113.459L412.457 104.728C409.438 109.952 406.412 115.188 403.378 120.436C401.173 118.049 398.902 115.721 396.564 113.452" fill="#AA9767"/>
<path d="M360.383 52.0708C358.766 54.764 357.14 57.4547 355.508 60.1429C358.852 61.8817 362.167 63.6796 365.422 65.5663L346.836 96.3751C349.663 98.0028 352.454 99.6873 355.212 101.428C361.412 91.1589 367.607 80.8893 373.798 70.6197C376.58 72.3757 379.325 74.181 382.032 76.0357L389.276 69.6135C380.053 63.1186 370.4 57.2576 360.383 52.0708Z" fill="#AA9767"/>
<path d="M327.962 38.538C325.421 47.0861 322.889 55.6416 320.363 64.2046C318.587 54.1915 316.765 44.3436 314.895 34.661C311.403 33.7534 307.886 32.9518 304.345 32.2563C304.374 33.7854 304.399 35.3121 304.419 36.8362L292.788 76.0501C295.994 76.7061 299.175 77.446 302.332 78.2698C304.863 69.7216 307.395 61.176 309.931 52.6328C311.795 62.3302 313.613 72.1953 315.384 82.2281C318.343 83.2492 321.303 84.3491 324.262 85.528L337.173 41.9858C334.14 40.7626 331.079 39.6256 327.991 38.575" fill="#AA9767"/>
<path d="M96.6886 92.2466C93.0681 95.6994 89.5955 99.3149 86.271 103.093L90.3996 105.202C97.3791 117.824 104.465 130.548 111.656 143.373C113.832 140.591 116.083 137.878 118.412 135.234C117.198 133.147 115.985 131.076 114.771 128.997C118.125 125.268 121.625 121.679 125.27 118.231L131.619 121.687C134.208 119.289 136.869 116.966 139.602 114.717C125.174 107.101 110.87 99.6158 96.6886 92.2614M109.799 120.436C106.736 115.188 103.7 109.954 100.691 104.736C105.979 107.621 111.286 110.529 116.614 113.459C114.285 115.728 112.014 118.056 109.799 120.444" fill="#AA9767"/>
<path d="M152.764 52.0708L157.64 60.1429C154.296 61.8817 150.981 63.6796 147.726 65.5663L166.319 96.3751C163.483 98.0028 160.689 99.6873 157.936 101.428C151.736 91.1589 145.541 80.8893 139.35 70.6197C136.568 72.3757 133.818 74.1835 131.101 76.0431L123.857 69.6209C133.068 63.1272 142.708 57.2662 152.713 52.0782" fill="#AA9767"/>
<path d="M198.748 72.0178C195.448 60.4904 192.151 48.9606 188.856 37.4282C185.741 38.3975 182.641 39.4481 179.578 40.5579C183.741 55.109 187.904 69.66 192.067 84.2111C200.337 81.2116 208.788 78.7404 217.371 76.8123C217.445 73.5765 217.522 70.3481 217.601 67.1272C211.238 68.4688 204.953 70.1064 198.748 72.04" fill="#AA9767"/>
<path d="M185.8 426.127C182.811 424.834 179.852 423.488 176.922 422.087L158.188 463.461C161.147 464.852 164.107 466.196 167.066 467.494L185.8 426.127Z" fill="#AA9767"/>
<path d="M230.852 438.49C230.112 441.553 229.431 444.609 228.721 447.68C224.992 447.147 221.28 446.503 217.586 445.748L209.447 480.797C206.251 480.146 203.072 479.406 199.91 478.577L208.049 443.529C204.408 442.582 200.793 441.526 197.202 440.362L199.333 431.188C209.608 434.53 220.154 436.975 230.852 438.498" fill="#AA9767"/>
<path d="M255.682 467.175C260.787 467.205 265.893 467.025 270.998 466.635C270.934 463.493 270.87 460.349 270.806 457.202C265.71 457.601 260.605 457.781 255.49 457.742C255.436 455.083 255.381 452.422 255.327 449.758C261.827 449.794 268.325 449.493 274.794 448.856L271.723 439.688C262.952 440.418 254.14 440.527 245.354 440.014C245.654 455.147 245.96 470.28 246.271 485.413C255.057 485.926 263.869 485.818 272.64 485.088C273.543 481.862 274.431 478.636 275.326 475.395C268.86 476.036 262.365 476.338 255.867 476.298C255.803 473.259 255.741 470.219 255.682 467.175Z" fill="#AA9767"/>
<path d="M324.817 439.593C323.086 433.392 316.782 430.24 310.626 432.127C303.794 434.222 296.851 435.937 289.828 437.262C290.681 438.623 291.535 439.98 292.388 441.331C296.058 454.467 299.733 467.602 303.412 480.738C309.971 479.449 316.459 477.822 322.849 475.862C329.005 473.975 332.468 467.042 330.766 460.857L324.847 439.593M321.54 464.061C321.7 464.637 321.629 465.254 321.344 465.78C321.058 466.306 320.579 466.7 320.008 466.88C316.851 467.841 313.667 468.724 310.456 469.528C308.064 461.005 305.679 452.484 303.301 443.965C306.513 443.161 309.696 442.276 312.853 441.309C313.13 441.222 313.422 441.191 313.711 441.219C313.999 441.247 314.28 441.332 314.535 441.47C314.79 441.608 315.015 441.796 315.197 442.022C315.378 442.249 315.512 442.51 315.591 442.789C317.564 449.877 319.537 456.965 321.51 464.053" fill="#AA9767"/>
<path d="M152.158 407.688L136.199 429.145C137.782 419.418 139.459 409.553 141.23 399.55C138.763 397.577 136.359 395.545 134.016 393.453C124.974 405.597 115.938 417.741 106.906 429.885C109.348 432.06 111.844 434.167 114.394 436.204L130.353 414.747C128.583 424.735 126.913 434.601 125.344 444.342C127.934 446.128 130.57 447.854 133.254 449.522L160.356 413.082C157.574 411.366 154.841 409.58 152.158 407.725" fill="#AA9767"/>
<path d="M115.326 373.928L88.0245 395.081C87.5495 395.447 86.9509 395.615 86.3547 395.549C85.7585 395.482 85.2113 395.187 84.8282 394.726C83.2103 392.753 81.6344 390.735 80.1004 388.673C79.7476 388.192 79.5966 387.591 79.6795 387C79.7624 386.409 80.0726 385.873 80.5443 385.507L107.846 364.353C105.656 361.345 103.562 358.264 101.564 355.112C100.632 356.422 99.6925 357.724 98.7602 359.026L75.0025 377.427C69.9195 381.363 68.5878 389.006 72.4352 394.171C74.1024 396.41 75.8288 398.61 77.6144 400.771C81.6985 405.765 89.4525 406.349 94.5429 402.413L121.845 381.26C119.61 378.877 117.445 376.433 115.348 373.928" fill="#AA9767"/>
<path d="M373.42 410.33C378.603 406.412 383.587 402.236 388.351 397.819L380.375 392.366C373.486 398.549 366.168 404.235 358.475 409.383L362.396 412.135L387.774 444.239C390.477 442.404 393.128 440.503 395.728 438.534C391.895 433.681 388.06 428.825 384.223 423.966C388.292 420.888 392.238 417.65 396.061 414.251L390.216 406.853C386.388 410.251 382.442 413.492 378.378 416.575L373.428 410.301" fill="#AA9767"/>
<path d="M420.995 361.039C419.79 360.129 418.415 359.472 416.951 359.106C415.487 358.74 413.964 358.674 412.474 358.91C410.983 359.146 409.555 359.68 408.276 360.481C406.997 361.282 405.892 362.332 405.028 363.569C403.376 365.818 401.691 368.038 399.975 370.228C399.016 371.395 398.302 372.743 397.877 374.191C397.451 375.64 397.322 377.16 397.498 378.659C397.673 380.159 398.149 381.608 398.898 382.919C399.646 384.231 400.652 385.377 401.854 386.291L420.721 400.578C425.841 404.463 433.462 403.678 437.428 398.61C439.154 396.41 440.841 394.191 442.488 391.951C446.291 386.772 444.982 379.21 439.862 375.333L436.902 373.114C435.102 375.837 433.247 378.52 431.338 381.164L434.298 383.383C434.774 383.742 435.089 384.275 435.175 384.865C435.261 385.455 435.111 386.055 434.757 386.535C433.247 388.602 431.703 390.642 430.125 392.654C429.755 393.12 429.218 393.422 428.628 393.498C428.038 393.574 427.442 393.417 426.966 393.061L408.099 378.766C407.638 378.406 407.338 377.878 407.265 377.297C407.191 376.717 407.35 376.13 407.706 375.666C409.285 373.644 410.829 371.604 412.338 369.548C412.689 369.079 413.211 368.767 413.79 368.681C414.369 368.595 414.959 368.742 415.431 369.089L417.466 370.628C419.374 367.989 421.232 365.308 423.037 362.585L420.995 361.039Z" fill="#AA9767"/>
<path d="M426.943 145.503C446.219 175.206 457.436 209.411 459.493 244.76C461.551 280.108 454.377 315.384 438.678 347.122L444.249 349.896C460.695 316.664 468.063 279.674 465.606 242.676C463.149 205.678 450.954 169.988 430.258 139.222L426.943 145.503Z" fill="#AA9767"/>
<path d="M85.2278 145.503C65.9477 175.204 54.7275 209.41 52.6701 244.759C50.6127 280.109 57.7889 315.385 73.4932 347.122L67.9145 349.896C51.4676 316.664 44.0986 279.675 46.5544 242.677C49.0102 205.679 61.2034 169.988 81.8983 139.222L85.2278 145.503Z" fill="#AA9767"/>
</g>
<defs>
<clipPath id="clip0_795_4040">
<rect width="512" height="512" fill="white" transform="translate(0.141113 0.574707)"/>
</clipPath>
</defs>
</svg>
