<svg width="513" height="513" viewBox="0 0 513 513" fill="none" xmlns="http://www.w3.org/2000/svg">
<g clip-path="url(#clip0_2_15104)">
<path d="M444.118 447.232C437.493 447.232 432.114 452.604 432.114 459.233C432.114 465.856 437.493 471.234 444.118 471.234C450.744 471.234 456.114 465.856 456.114 459.234C456.114 452.604 450.744 447.232 444.118 447.232ZM444.118 468.66C442.88 468.661 441.654 468.417 440.51 467.944C439.366 467.471 438.326 466.776 437.451 465.901C436.575 465.025 435.881 463.986 435.408 462.842C434.935 461.698 434.692 460.471 434.693 459.233C434.693 454.025 438.904 449.814 444.118 449.814C449.326 449.814 453.542 454.025 453.542 459.233C453.542 464.443 449.326 468.66 444.118 468.66ZM449.049 456.452C449.048 455.373 448.619 454.339 447.856 453.576C447.092 452.813 446.057 452.385 444.977 452.386H439.195V466.084H441.765V460.521H443.609L446.207 466.084H449.049L446.337 460.283C447.129 460.001 447.814 459.482 448.3 458.796C448.785 458.111 449.047 457.292 449.049 456.452ZM444.977 457.949H441.765V454.952H444.977C445.375 454.952 445.756 455.11 446.038 455.392C446.32 455.673 446.478 456.054 446.479 456.452C446.477 456.85 446.318 457.23 446.037 457.511C445.755 457.791 445.375 457.949 444.977 457.949Z" fill="#00205B"/>
<path d="M256.142 512.803C397.529 512.803 512.142 398.192 512.142 256.803C512.142 115.429 397.529 0.802734 256.142 0.802734C114.756 0.802734 0.14209 115.428 0.14209 256.803C0.14209 398.192 114.756 512.803 256.142 512.803Z" fill="white"/>
<path d="M270.391 13.082C299.62 58.8876 312.794 75.7724 312.794 101.414C312.794 132.196 286.926 157.152 256.141 157.152C225.349 157.152 199.488 132.196 199.488 101.414C199.488 75.7724 212.66 58.8876 241.888 13.082C113.682 20.458 11.9893 126.748 11.9893 256.804C11.9893 391.652 121.298 500.97 256.141 500.97C390.985 500.97 500.293 391.652 500.293 256.804C500.293 126.748 398.6 20.458 270.391 13.082ZM256.141 478.733C133.573 478.733 34.2189 379.365 34.2189 256.804C34.2189 153.984 104.159 67.4988 199.056 42.3028C194.015 48.5748 177.258 71.658 177.258 101.413C177.258 144.405 212.644 179.381 256.141 179.381C299.641 179.381 335.024 144.405 335.024 101.413C335.024 71.658 318.26 48.5756 313.225 42.3028C408.128 67.4996 478.065 153.984 478.065 256.804C478.065 379.365 378.703 478.733 256.141 478.733Z" fill="#00205B"/>
<path d="M302.339 283.417H286.409V308.849C286.409 313.945 282.276 318.084 277.176 318.084C272.089 318.084 267.95 313.945 267.95 308.849V276.437H286.409V252.417H267.95V233.709C267.95 228.612 272.089 224.479 277.176 224.479C282.276 224.479 286.409 228.612 286.409 233.709V245.361H302.339V191.508H235.025V224.479C241.539 224.479 246.824 229.751 246.824 236.279V311.33C246.824 312.217 246.649 313.096 246.31 313.915C245.971 314.735 245.473 315.479 244.846 316.107C244.219 316.734 243.474 317.231 242.655 317.571C241.835 317.91 240.957 318.085 240.07 318.085V454.085C240.07 463.801 234.99 468.23 232.562 469.8C240.386 470.76 248.261 471.239 256.144 471.235C265.897 471.235 275.477 470.499 284.824 469.099C284.824 469.099 302.338 465.624 302.338 450.181V283.417H302.339Z" fill="#00205B"/>
<path d="M235.025 283.418H219.099V311.354C219.099 315.071 216.087 318.085 212.372 318.085C208.657 318.085 205.641 315.071 205.641 311.355V231.237C205.64 230.35 205.814 229.471 206.153 228.651C206.493 227.83 206.99 227.085 207.618 226.457C208.245 225.83 208.99 225.332 209.81 224.992C210.63 224.653 211.509 224.478 212.397 224.479V191.508H177.763V224.479C181.489 224.479 184.512 227.501 184.512 231.237V311.33C184.512 315.057 181.488 318.085 177.763 318.085V436.543C177.763 446.436 172.348 449.681 169.777 450.668C185.055 458.452 201.617 464.236 219.073 467.654C219.073 467.654 235.025 470.084 235.025 454.084V283.418Z" fill="#00205B"/>
<path d="M172.716 436.539V318.081C168.988 318.081 165.964 315.054 165.964 311.324V231.233C165.964 229.442 166.675 227.723 167.94 226.456C168.567 225.828 169.312 225.33 170.131 224.99C170.951 224.651 171.829 224.476 172.716 224.476V191.502H138.084V224.476C141.809 224.476 144.835 227.496 144.835 231.233V311.324C144.835 315.053 141.809 318.08 138.084 318.08V398.774C138.084 415.62 129.439 418.288 124.927 418.523C135.702 429.022 147.724 438.159 160.724 445.731C160.724 445.731 172.717 450.267 172.717 436.539M440.036 245.357V209.076C440.036 199.414 432.134 191.506 422.47 191.506H401.738C392.076 191.506 384.17 199.414 384.17 209.076V257.534C384.17 260.116 385.738 263.636 387.665 265.344L415.419 290.164C417.342 291.888 418.915 295.412 418.915 297.98V308.677C418.915 313.872 414.696 318.08 409.503 318.08C404.308 318.08 400.1 313.872 400.1 308.677V283.417H384.169V421.559C418.614 389.586 440.036 344.846 440.036 295.303V288.164C440.036 285.588 438.47 282.081 436.554 280.358L408.794 255.54C406.864 253.809 405.293 250.303 405.293 247.72V231.276C405.293 227.526 408.349 224.477 412.109 224.477C415.864 224.477 418.915 227.525 418.915 231.276V245.358H440.036V245.357Z" fill="#00205B"/>
<path d="M133.037 398.773V209.078C133.037 199.409 125.135 191.502 115.472 191.502H89.812C80.148 191.502 72.2393 199.409 72.2393 209.078V295.301C72.2393 338.493 88.5177 378.031 115.504 408.633C120.781 415.514 133.037 417.481 133.037 398.773ZM111.914 308.809C111.914 313.925 107.763 318.076 102.645 318.076C97.5201 318.076 93.3721 313.925 93.3721 308.809V233.745C93.3721 228.615 97.5201 224.476 102.644 224.476C103.862 224.476 105.067 224.715 106.192 225.18C107.317 225.646 108.34 226.328 109.201 227.189C110.062 228.05 110.744 229.073 111.21 230.198C111.675 231.323 111.914 232.528 111.914 233.746V308.809ZM372.378 311.323V272.031C372.378 265.301 364.829 262.219 364.829 262.219C364.829 262.219 372.378 259.135 372.378 252.413V209.076C372.378 199.411 364.468 191.505 354.81 191.505H307.378L307.371 224.476C308.708 224.474 310.015 224.87 311.127 225.612C312.238 226.355 313.105 227.411 313.615 228.646C313.955 229.466 314.129 230.345 314.128 231.232V311.323C314.13 312.66 313.734 313.967 312.992 315.078C312.249 316.19 311.193 317.056 309.958 317.566C309.138 317.905 308.259 318.08 307.371 318.08V450.176C307.371 457.022 304.614 462.19 300.891 465.957C313.342 462.971 325.294 458.833 336.607 453.565C336.607 453.565 344.732 449.62 344.732 434.833V318.08C339.495 318.08 335.26 313.833 335.26 308.606V279.292C335.26 275.274 338.503 272.031 342.51 272.031C343.947 272.029 345.352 272.454 346.547 273.251C347.742 274.049 348.674 275.183 349.223 276.511C349.588 277.392 349.775 278.337 349.774 279.292V436.357C349.774 440.8 349.163 444.52 348.225 447.649C357.574 442.447 366.457 436.448 374.774 429.717C374.774 429.717 379.134 426.106 379.134 408.933V318.08C378.246 318.08 377.368 317.905 376.548 317.566C375.728 317.226 374.983 316.728 374.356 316.1C373.09 314.833 372.378 313.115 372.378 311.323ZM351.246 244.413C351.246 248.829 347.67 252.413 343.252 252.413C338.836 252.413 335.26 248.829 335.26 244.413V232.469C335.259 231.419 335.465 230.38 335.867 229.41C336.268 228.439 336.857 227.558 337.599 226.816C338.341 226.073 339.223 225.484 340.193 225.083C341.163 224.681 342.202 224.475 343.252 224.476C344.302 224.474 345.342 224.681 346.312 225.082C347.282 225.484 348.164 226.073 348.906 226.816C349.648 227.558 350.237 228.439 350.638 229.409C351.04 230.379 351.246 231.419 351.246 232.468V244.413Z" fill="#00205B"/>
<path d="M297.421 102.219C297.421 73.3022 272.337 57.8558 256.143 17.4766C239.947 57.8558 214.862 73.3006 214.862 102.218C214.862 121.981 231.183 141.225 256.142 141.225C281.109 141.225 297.421 121.981 297.421 102.219Z" fill="#D14520"/>
</g>
<defs>
<clipPath id="clip0_2_15104">
<rect width="512" height="512" fill="white" transform="translate(0.141602 0.800781)"/>
</clipPath>
</defs>
</svg>
