<svg width="513" height="513" viewBox="0 0 513 513" fill="none" xmlns="http://www.w3.org/2000/svg">
<g clip-path="url(#clip0_876_1786)">
<path fill-rule="evenodd" clip-rule="evenodd" d="M512.244 256.051C512.244 397.436 397.629 512.051 256.244 512.051C114.859 512.051 0.244141 397.436 0.244141 256.051C0.244141 114.666 114.859 0.0507812 256.244 0.0507812C397.629 0.0507812 512.244 114.666 512.244 256.051Z" fill="#1D428A"/>
<path fill-rule="evenodd" clip-rule="evenodd" d="M256.244 480.05C228.321 480.05 201.179 474.973 175.871 465.259C174.835 449.936 173.828 431.625 172.865 411.6L152.429 404.644L152.438 454.653C149.178 452.944 145.96 451.152 142.783 449.278L142.794 401.799L152.429 402.142V402.457L162.875 402.513L181.739 403.181L417.478 411.531C416.538 412.505 415.596 413.481 414.636 414.443C372.328 456.75 316.077 480.05 256.244 480.05ZM84.3937 399.732L119.588 400.978C118.886 411.849 118.116 422.174 117.274 431.75C110.525 426.391 104.036 420.626 97.8514 414.443C93.1208 409.712 88.6426 404.797 84.3937 399.732ZM124.294 289.922C123.553 318.343 122.504 347.687 121.089 375.003L101.809 375.652L124.294 289.922ZM125.727 192.062C125.69 211.847 125.446 235.666 124.948 261.159L94.8595 375.885L74.0808 376.585L125.727 192.062ZM47.7803 338.31C42.6212 325.227 38.7101 311.643 36.1039 297.705C44.3812 291.117 56.031 280.401 69.9119 263.702L47.7803 338.31ZM51.8603 347.986L81.0479 249.6C92.8559 233.89 105.869 214.148 119.535 189.469L67.2203 376.372C61.3999 367.268 56.2746 357.783 51.8603 347.986ZM152.39 200.871L152.394 214.651H141.958V227.451H152.395L152.397 241.23H141.958V254.03H152.401L152.406 279.876H141.958V292.678H152.408L152.413 319.259H141.958V332.059H152.415L152.424 373.949L142.799 374.274L142.843 179.415H152.387L152.388 188.071H141.958V200.871H152.39ZM429.503 364.631L423.517 351.252C433.391 355.236 443.331 359.049 453.327 362.708C453.118 363.09 452.907 363.47 452.698 363.853L429.503 364.631ZM437.142 388.219C435.627 390.283 434.077 392.324 432.487 394.342L172.093 389.241L171.983 386.731L437.142 388.219ZM188.756 372.727L171.151 373.319C170.072 347.545 169.071 320.462 168.173 294.242L188.756 372.727ZM215.915 371.814L195.585 372.498L167.171 264.16C166.271 236.228 165.507 210.393 164.922 189.616L215.915 371.814ZM246.237 370.795L222.772 371.584L171.131 187.076C175.659 192.068 180.298 196.946 185.064 201.693C190.067 206.683 195.192 211.547 200.41 216.306L246.237 370.795ZM274.372 369.849L253.121 370.564L209.855 224.722C212.916 227.383 216.003 230.013 219.117 232.608C224.584 237.158 230.134 241.602 235.757 245.954L274.372 369.849ZM303.352 368.875L281.281 369.616L244.902 252.905C253.315 259.181 261.878 265.248 270.579 271.117L303.352 368.875ZM331.386 367.933L310.301 368.64L279.615 277.11C284.305 280.166 289.028 283.17 293.789 286.116L303.587 292.121L304.907 292.896L331.386 367.933ZM361.924 366.903L338.369 367.698L313.814 298.106C315.366 299.008 316.904 299.936 318.474 300.806L323.492 303.598C326.843 305.453 330.175 307.344 333.544 309.165L341.32 313.275L361.924 366.903ZM386.481 335.376C395.779 339.606 405.151 343.677 414.582 347.597L422.312 364.875L399.171 365.652L386.481 335.376ZM392.047 365.892L368.971 366.669L350.251 317.942L353.921 319.782L364.196 324.926C367.64 326.599 371.112 328.217 374.57 329.865C375.549 330.326 376.538 330.774 377.519 331.234L392.047 365.892ZM97.8514 97.6571C140.161 55.3495 196.411 32.05 256.244 32.05C316.077 32.05 372.328 55.3495 414.636 97.6571C456.945 139.966 480.244 196.219 480.244 256.05C480.244 288.233 473.492 319.374 460.678 347.872C433.525 338.715 406.769 328.377 380.58 316.745C377.144 315.204 373.691 313.694 370.266 312.13L360.047 307.307L354.938 304.896L349.876 302.382L339.763 297.337C336.41 295.625 333.094 293.84 329.755 292.094L324.753 289.465C323.085 288.59 321.455 287.648 319.802 286.747L309.915 281.27L300.148 275.59C274.166 260.338 249.131 243.437 225.533 224.726C213.747 215.357 202.307 205.547 191.414 195.179C185.965 190 180.671 184.665 175.54 179.195C174.262 177.824 172.982 176.454 171.739 175.053C170.479 173.668 169.243 172.265 168.024 170.85C166.792 169.444 165.604 168.011 164.42 166.578C164.374 166.521 164.326 166.462 164.282 166.406C163.837 149.952 163.595 140.123 163.595 140.123L152.378 137.481L152.381 152.51H142.849L142.852 136.731L130.826 139.591L130.918 145.323L125.297 148.382C125.451 153.088 125.567 159.232 125.64 166.553C121.092 174.491 71.4408 260.244 34.3172 286.624C32.9537 276.574 32.2443 266.368 32.2443 256.05C32.2443 196.219 55.5439 139.966 97.8514 97.6571ZM423.688 88.6064C378.961 43.8811 319.496 19.25 256.244 19.25C192.993 19.25 133.528 43.8811 88.8008 88.6064C44.0754 133.334 19.4443 192.798 19.4443 256.05C19.4443 319.302 44.0754 378.766 88.8008 423.494C133.528 468.219 192.993 492.85 256.244 492.85C319.496 492.85 378.961 468.219 423.688 423.494C468.412 378.766 493.043 319.302 493.043 256.05C493.043 192.798 468.412 133.334 423.688 88.6064Z" fill="#FDB927"/>
</g>
<defs>
<clipPath id="clip0_876_1786">
<rect width="512" height="512" fill="white" transform="translate(0.244141 0.0507812)"/>
</clipPath>
</defs>
</svg>
