<svg width="1025" height="323" viewBox="0 0 1025 323" fill="none" xmlns="http://www.w3.org/2000/svg">
<g clip-path="url(#clip0_806_176)">
<path d="M161.191 0.884766C72.551 0.884766 0.501465 72.9344 0.501465 161.574C0.501465 250.214 72.551 322.264 161.191 322.264C170.197 322.264 179.203 321.316 188.21 319.894V75.3044H151.237C138.913 108.485 107.154 108.011 107.154 108.011V141.666H135.594V271.071C85.8234 259.695 48.3765 214.664 48.3765 161.574C48.3765 99.479 98.6216 49.2338 160.717 49.2338C222.812 49.2338 273.058 99.479 273.058 161.574C273.058 208.501 244.617 248.318 203.852 265.383V316.102C272.109 297.615 321.881 235.52 321.881 161.574C321.881 72.9344 249.831 0.884766 161.191 0.884766Z" fill="#006341"/>
<path d="M581.639 113.7C562.204 113.7 545.614 122.232 535.185 135.978V117.018H501.057H489.68H447.02V113.226C447.02 86.681 450.338 82.8889 478.778 82.8889V39.7539H474.986C418.579 39.7539 400.566 57.7663 400.566 113.226V117.492H371.652V159.205H400.566V286.713H447.02V158.731H489.68V286.239H536.133V193.807C536.133 165.367 550.828 153.042 568.366 153.042C588.749 153.042 599.651 166.315 599.651 189.067V286.239H646.578V182.905C645.63 139.296 621.455 113.7 581.639 113.7Z" fill="#006341"/>
<path d="M759.392 113.699C736.64 113.699 719.576 122.705 708.673 135.503V39.2793H662.22V285.765H708.673V267.752C719.576 281.025 737.588 289.557 759.866 289.557C795.891 289.557 840.922 261.116 840.922 201.865C841.396 141.666 797.787 113.699 759.392 113.699ZM750.86 246.896C722.894 246.896 703.459 221.299 708.199 192.385C711.991 171.054 731.426 154.938 752.756 155.886C777.405 156.834 795.891 175.794 795.891 200.917C795.891 226.987 776.457 246.896 750.86 246.896Z" fill="#006341"/>
<path d="M940.464 113.7C888.797 111.803 847.084 154.464 849.928 206.132C852.298 250.689 889.271 287.187 933.828 289.083C985.495 290.979 1027.21 248.319 1024.36 196.651C1021.99 152.094 985.021 115.596 940.464 113.7ZM936.672 245.474C911.55 245.474 892.589 223.67 894.485 198.073C895.907 176.269 913.92 157.783 936.198 157.783C959.899 157.309 979.333 177.691 979.333 201.865C979.333 225.566 960.373 245.474 936.672 245.474Z" fill="#006341"/>
</g>
<defs>
<clipPath id="clip0_806_176">
<rect width="1024" height="321.379" fill="white" transform="translate(0.501465 0.884766)"/>
</clipPath>
</defs>
</svg>
