<svg width="1025" height="97" viewBox="0 0 1025 97" fill="none" xmlns="http://www.w3.org/2000/svg">
<g clip-path="url(#clip0_795_4943)">
<path d="M119.507 1.05371H0.57373V96.1975H119.507V1.05371Z" fill="#D20515"/>
<path d="M98.6174 51.1455C98.6826 51.3833 98.4729 51.5464 98.044 51.8588L97.7829 52.0033L97.8715 52.1758C97.9321 52.2877 97.8295 52.4555 97.6477 52.5441L97.2561 52.7399C97.079 52.8331 96.8832 52.8144 96.8272 52.7026L96.7433 52.5441L96.2492 52.7865L96.3284 52.9543C96.3844 53.0662 96.2771 53.234 96.0906 53.3179L95.6944 53.5044C95.5126 53.5883 95.3214 53.565 95.2655 53.4485L95.1956 53.2993C93.6712 54.0172 91.9649 54.7771 90.2074 55.5929L90.3053 55.8167C90.3659 55.9286 90.254 56.0917 90.0769 56.1756L89.6759 56.3621C89.4941 56.446 89.2983 56.4181 89.2517 56.3062L89.1445 56.0824L88.5804 56.3575L88.6876 56.5859C88.7389 56.7024 88.6363 56.8609 88.4499 56.9495L88.0536 57.1313C87.8671 57.2152 87.6807 57.1919 87.6247 57.08L87.5222 56.8609C86.725 57.1779 85.8532 57.3271 85.2192 56.129C84.9488 55.5789 84.9348 54.3156 84.725 53.6443C84.6823 53.5374 84.6125 53.4435 84.5227 53.3716C84.4328 53.2997 84.3259 53.2523 84.2122 53.234C76.4642 51.7469 73.8396 53.4018 68.8747 52.1758C67.313 51.7935 66.4646 50.3576 64.5392 50.3343C60.3435 50.2085 59.1082 50.2691 54.5582 50.0966C54.3624 50.7539 54.3391 50.8984 54.3391 50.8984L38.3489 50.8238L40.7917 52.0219L41.5749 59.0753C41.5749 59.0753 40.9269 59.2618 40.7404 59.2851C40.8943 60.6837 41.0435 62.595 41.1227 64.3106C41.1926 65.849 41.2719 67.4527 41.2579 68.4736C41.2627 69.138 41.1025 69.7931 40.7917 70.3803C40.4872 70.8925 40.0791 71.3355 39.5936 71.681C39.4491 71.7882 38.8291 72.2078 38.1158 72.6133C37.4025 73.0189 36.5448 73.4851 36.1112 73.6902C36.1765 73.8779 36.2528 74.0616 36.3396 74.2403C26.615 78.9348 14.5641 80.5385 10.6621 88.0068C10.196 88.8739 8.62491 88.4217 8.57829 87.4893C8.57829 87.0604 8.57829 86.3658 8.57829 85.9789H8.43844C8.31257 85.9789 8.21467 85.8064 8.22865 85.6013V85.1631C8.22865 84.9626 8.34986 84.8041 8.47107 84.8088H8.6389C8.68835 84.3773 8.77095 83.9502 8.88597 83.5314L8.73679 83.4801C8.62025 83.4382 8.58296 83.247 8.64822 83.0559L8.79274 82.6457C8.86267 82.4545 9.00718 82.338 9.13305 82.3753L9.27757 82.4266C9.97219 80.8089 11.3101 80.0956 11.9348 78.5619L11.8369 78.5246C11.7111 78.478 11.6738 78.2915 11.7437 78.1004L11.8882 77.6854C11.9581 77.4943 12.1073 77.3778 12.2285 77.4197L12.3357 77.457C12.429 77.2332 12.5362 76.9908 12.6574 76.7438L12.5269 76.6552C12.415 76.5852 12.415 76.3941 12.5269 76.2216L12.7646 75.8533C12.8672 75.6855 13.0397 75.6016 13.1469 75.6715L13.2029 75.7042H13.2588C13.2914 75.7042 13.3054 75.7042 13.338 75.6669C13.3984 75.5999 13.4622 75.5361 13.5292 75.4757C13.8265 75.2561 14.1853 75.1352 14.555 75.1302C14.9246 75.1252 15.2865 75.2363 15.5897 75.4478C16.2004 75.816 18.5873 77.1773 20.8856 75.1121C24.6757 71.7089 29.1091 67.089 32.4423 66.9305C31.5379 64.9819 29.9669 60.8981 29.7897 59.3923L28.6709 59.1546C28.0882 57.9005 26.671 52.1058 26.27 47.7517C26.27 47.7517 25.8038 43.0572 26.27 41.4069C26.0136 41.3789 25.5428 41.7658 25.4123 41.7705C24.8016 40.274 26.7828 27.6264 28.7455 23.9436L31.7524 22.7455C31.44 22.7082 29.2676 22.6103 23.5522 22.1441C20.3681 24.9645 16.6806 28.0087 14.8112 29.6683C14.4942 29.9014 13.9627 31.7102 13.9627 31.7102C13.9627 31.7102 13.0304 32.54 12.14 33.1507C10.9838 33.9619 8.15406 34.5866 7.5387 33.6169C7.39884 33.3792 7.42215 33.2766 7.5387 33.1507C7.97691 32.6845 9.63187 31.9014 10.1913 30.8524C9.28689 31.3186 8.27993 31.7848 7.49208 31.7056C7.1471 31.7056 6.96995 30.8431 7.41283 30.6893C8.61559 30.1811 9.56661 29.962 10.2752 28.9644C10.9838 27.9667 11.7857 27.3654 12.8765 27.3421C12.8765 27.3421 18.191 20.4006 21.3238 17.086C22.1909 16.1816 23.7993 16.4799 23.7993 16.4799L24.0696 15.4264C24.0696 15.4264 34.7919 14.1443 39.8081 15.7993C39.6915 12.7644 41.0528 8.73193 45.8032 8.73193C48.246 8.73193 51.8403 10.8904 52.3298 13.5103C52.479 14.3168 52.0128 14.853 51.7657 15.8739C51.3415 17.417 51.9336 19.1372 51.7657 19.6733C51.6259 20.1162 51.127 20.0789 50.6935 20.6803C50.3139 21.2732 49.9849 21.897 49.7098 22.545L49.0712 24.0415L45.724 23.7991C44.5026 26.4423 41.9945 31.8268 41.1087 37.1646C43.738 37.3884 55.6537 39.1132 55.6537 39.1132L55.9428 40.0829C55.9428 40.0829 60.9636 40.6843 65.0707 42.6423C66.003 42.866 68.2967 42.5211 69.8118 43.2157C69.9143 43.1551 70.1661 42.8987 70.278 42.8287C75.6344 44.479 80.0679 47.2855 85.2285 48.5349C85.2285 48.5349 87.6434 49.1223 88.4545 49.2808C89.8232 49.5466 91.2075 49.7241 92.5989 49.8122C94.2539 49.9427 95.1723 49.9194 96.3797 49.9894C97.2375 50.0406 98.2817 49.8961 98.622 51.1455M106.291 34.857C104.984 34.857 103.707 35.2444 102.621 35.9703C101.534 36.6961 100.688 37.7278 100.188 38.9349C99.6878 40.1419 99.557 41.4702 99.8119 42.7516C100.067 44.033 100.696 45.21 101.62 46.1339C102.544 47.0577 103.721 47.6869 105.002 47.9417C106.283 48.1966 107.612 48.0658 108.819 47.5658C110.026 47.0659 111.057 46.2192 111.783 45.1328C112.509 44.0465 112.897 42.7693 112.897 41.4628C112.897 40.5941 112.725 39.734 112.392 38.9316C112.06 38.1293 111.572 37.4004 110.957 36.7868C110.342 36.1732 109.612 35.6869 108.809 35.3558C108.006 35.0246 107.145 34.8551 106.277 34.857H106.291Z" fill="white"/>
<path d="M235.806 69.7275C235.806 86.2305 228.086 95.0134 207.192 95.0134H159.151V2.24251H205.462C227.019 2.24251 234.473 10.7597 234.473 26.4842C234.473 38.4605 229.946 43.9195 217.173 47.1129L214.777 47.7795L216.907 48.1804C231.28 51.3458 235.806 56.6743 235.806 69.7275ZM181.263 40.9825H200.693C208.413 40.9825 211.882 37.654 211.882 29.6682C211.882 21.2769 208.688 17.9576 200.693 17.9576H181.244L181.263 40.9825ZM213.299 67.4525C213.299 58.9353 209.84 55.3317 201.985 55.3317H181.244V79.2843H202.003C210.255 79.2937 213.299 75.8346 213.299 67.4525ZM250.892 64.7906V2.24251H274.047V64.1333C274.047 74.3894 278.709 78.2401 291.217 78.2401C303.725 78.2401 308.401 74.3894 308.401 64.1333V2.24251H331.556V64.7906C331.556 86.6174 318.913 96.5985 291.231 96.5985C263.549 96.5985 250.911 86.6174 250.911 64.7906H250.892ZM440.149 2.24251V95.0134H411.941L372.548 27.9247V94.9995H350.987V2.22853H379.2L418.593 69.3033V2.24251H440.149ZM459.207 2.24251H500.595C533.065 2.24251 541.582 15.5521 541.582 48.5534C541.582 80.627 532.258 94.9995 500.595 94.9995H459.207V2.24251ZM499.928 77.2984C513.504 77.2984 517.895 70.245 517.895 48.5534C517.895 26.9923 513.504 19.9389 499.928 19.9389H482.363V77.2797L499.928 77.2984ZM558.444 2.24251H623.388V19.9576H581.585V39.5374H616.321V56.9727H581.585V77.3357H624.307V95.0507H558.444V2.24251ZM638.036 91.4052V73.3078C648.021 76.6951 658.498 78.4043 669.042 78.366C679.69 78.366 684.347 75.5688 684.347 68.3849C684.347 62.1287 682.351 60.2686 673.834 58.5391L658.399 55.3457C642.297 52.0171 636.954 45.4999 636.954 29.6589C636.954 9.30056 648.931 0.512962 673.018 0.512962C683.932 0.512962 694.179 2.3777 702.561 5.57107V23.6684C693.507 20.4372 683.969 18.7724 674.356 18.7455C662.912 18.7455 659.052 21.8037 659.052 29.0016C659.052 34.9874 661.713 36.7216 669.163 38.3253L684.202 41.5186C701.638 45.2481 706.425 51.0988 706.425 67.7369C706.425 87.5685 694.183 96.6404 669.163 96.6404C658.564 96.6884 648.036 94.9176 638.036 91.4052ZM722.695 2.24251H745.851V77.2984H785.644V95.0134H722.709L722.695 2.24251ZM800.11 2.24251H823.265V95.0134H800.11V2.24251ZM919.16 41.3695V91.8061C910.507 94.7337 899.062 96.5985 887.086 96.5985C854.882 96.5985 839.708 82.3565 839.708 48.5534C839.708 15.016 854.877 0.508301 887.086 0.508301C898.531 0.508301 909.463 2.37304 917.691 5.70161V23.6684C908.643 20.6056 898.526 18.7455 888.946 18.7455C869.516 18.7455 863.395 26.596 863.395 48.5534C863.395 71.4431 869.781 79.0279 888.144 79.0279C892.198 79.0374 896.248 78.771 900.265 78.2308V57.4715H883.1V41.3695H919.16ZM994.78 75.5688H958.45L951.923 94.9995H928.894L962.03 2.22853H991.572L1024.57 94.9995H1001.26L994.78 75.5688ZM976.818 16.8807L963.391 58.8001H990.141L976.818 16.8807Z" fill="black"/>
</g>
<defs>
<clipPath id="clip0_795_4943">
<rect width="1024" height="96.1331" fill="white" transform="translate(0.57373 0.508301)"/>
</clipPath>
</defs>
</svg>
