<svg width="626" height="512" viewBox="0 0 626 512" fill="none" xmlns="http://www.w3.org/2000/svg">
<g clip-path="url(#clip0_751_484)">
<path d="M290.828 512C432.213 512 546.828 397.385 546.828 256C546.828 114.615 432.213 0 290.828 0C149.444 0 34.8285 114.615 34.8285 256C34.8285 397.385 149.444 512 290.828 512Z" fill="#0B3D91"/>
<path d="M275.713 52.0417C277.298 52.0417 278.583 50.7567 278.583 49.1717C278.583 47.5867 277.298 46.3018 275.713 46.3018C274.128 46.3018 272.843 47.5867 272.843 49.1717C272.843 50.7567 274.128 52.0417 275.713 52.0417Z" fill="white"/>
<path d="M305.178 55.8683C306.763 55.8683 308.048 54.5834 308.048 52.9984C308.048 51.4133 306.763 50.1284 305.178 50.1284C303.593 50.1284 302.308 51.4133 302.308 52.9984C302.308 54.5834 303.593 55.8683 305.178 55.8683Z" fill="white"/>
<path d="M343.827 107.91C345.412 107.91 346.697 106.625 346.697 105.04C346.697 103.455 345.412 102.17 343.827 102.17C342.242 102.17 340.957 103.455 340.957 105.04C340.957 106.625 342.242 107.91 343.827 107.91Z" fill="white"/>
<path d="M131.833 375.773C133.418 375.773 134.703 374.488 134.703 372.903C134.703 371.318 133.418 370.033 131.833 370.033C130.248 370.033 128.963 371.318 128.963 372.903C128.963 374.488 130.248 375.773 131.833 375.773Z" fill="white"/>
<path d="M139.295 398.732C140.88 398.732 142.165 397.447 142.165 395.862C142.165 394.277 140.88 392.992 139.295 392.992C137.71 392.992 136.425 394.277 136.425 395.862C136.425 397.447 137.71 398.732 139.295 398.732Z" fill="white"/>
<path d="M103.707 378.496C104.894 378.496 105.857 377.534 105.857 376.347C105.857 375.16 104.894 374.198 103.707 374.198C102.52 374.198 101.558 375.16 101.558 376.347C101.558 377.534 102.52 378.496 103.707 378.496Z" fill="white"/>
<path d="M220.419 423.605C221.609 423.605 222.575 422.64 222.575 421.45C222.575 420.259 221.609 419.294 220.419 419.294C219.228 419.294 218.263 420.259 218.263 421.45C218.263 422.64 219.228 423.605 220.419 423.605Z" fill="white"/>
<path d="M403.471 385.575C404.658 385.575 405.62 384.613 405.62 383.426C405.62 382.239 404.658 381.277 403.471 381.277C402.284 381.277 401.322 382.239 401.322 383.426C401.322 384.613 402.284 385.575 403.471 385.575Z" fill="white"/>
<path d="M456.667 327.8C457.858 327.8 458.823 326.835 458.823 325.644C458.823 324.454 457.858 323.489 456.667 323.489C455.477 323.489 454.512 324.454 454.512 325.644C454.512 326.835 455.477 327.8 456.667 327.8Z" fill="white"/>
<path d="M195.929 123.976C197.116 123.976 198.078 123.013 198.078 121.826C198.078 120.639 197.116 119.677 195.929 119.677C194.742 119.677 193.779 120.639 193.779 121.826C193.779 123.013 194.742 123.976 195.929 123.976Z" fill="white"/>
<path d="M254.476 80.9773C255.663 80.9773 256.625 80.015 256.625 78.828C256.625 77.641 255.663 76.6787 254.476 76.6787C253.289 76.6787 252.326 77.641 252.326 78.828C252.326 80.015 253.289 80.9773 254.476 80.9773Z" fill="white"/>
<path d="M248.117 76.768C249.304 76.768 250.266 75.8058 250.266 74.6188C250.266 73.4317 249.304 72.4695 248.117 72.4695C246.93 72.4695 245.968 73.4317 245.968 74.6188C245.968 75.8058 246.93 76.768 248.117 76.768Z" fill="white"/>
<path d="M242.377 72.5588C243.564 72.5588 244.527 71.5965 244.527 70.4095C244.527 69.2225 243.564 68.2603 242.377 68.2603C241.19 68.2603 240.228 69.2225 240.228 70.4095C240.228 71.5965 241.19 72.5588 242.377 72.5588Z" fill="white"/>
<path d="M205.113 135.079C206.3 135.079 207.262 134.117 207.262 132.93C207.262 131.743 206.3 130.781 205.113 130.781C203.926 130.781 202.963 131.743 202.963 132.93C202.963 134.117 203.926 135.079 205.113 135.079Z" fill="white"/>
<path d="M291.351 23.1955C292.539 23.1955 293.501 22.2333 293.501 21.0462C293.501 19.8592 292.539 18.897 291.351 18.897C290.164 18.897 289.202 19.8592 289.202 21.0462C289.202 22.2333 290.164 23.1955 291.351 23.1955Z" fill="white"/>
<path d="M305.516 85.1865C306.703 85.1865 307.666 84.2242 307.666 83.0372C307.666 81.8502 306.703 80.8879 305.516 80.8879C304.329 80.8879 303.367 81.8502 303.367 83.0372C303.367 84.2242 304.329 85.1865 305.516 85.1865Z" fill="white"/>
<path d="M283.175 73.0818C284.362 73.0818 285.325 72.1195 285.325 70.9325C285.325 69.7455 284.362 68.7832 283.175 68.7832C281.988 68.7832 281.026 69.7455 281.026 70.9325C281.026 72.1195 281.988 73.0818 283.175 73.0818Z" fill="white"/>
<path d="M244.909 89.5425C246.096 89.5425 247.059 88.5802 247.059 87.3932C247.059 86.2062 246.096 85.2439 244.909 85.2439C243.722 85.2439 242.76 86.2062 242.76 87.3932C242.76 88.5802 243.722 89.5425 244.909 89.5425Z" fill="white"/>
<path d="M413.663 442.356C414.85 442.356 415.812 441.393 415.812 440.206C415.812 439.019 414.85 438.057 413.663 438.057C412.476 438.057 411.513 439.019 411.513 440.206C411.513 441.393 412.476 442.356 413.663 442.356Z" fill="white"/>
<path d="M128.198 389.6C129.388 389.6 130.353 388.635 130.353 387.444C130.353 386.253 129.388 385.288 128.198 385.288C127.007 385.288 126.042 386.253 126.042 387.444C126.042 388.635 127.007 389.6 128.198 389.6Z" fill="white"/>
<path d="M277.818 417.343C279.009 417.343 279.974 416.377 279.974 415.187C279.974 413.996 279.009 413.031 277.818 413.031C276.627 413.031 275.662 413.996 275.662 415.187C275.662 416.377 276.627 417.343 277.818 417.343Z" fill="white"/>
<path d="M172.727 387.877C173.917 387.877 174.882 386.912 174.882 385.722C174.882 384.531 173.917 383.566 172.727 383.566C171.536 383.566 170.571 384.531 170.571 385.722C170.571 386.912 171.536 387.877 172.727 387.877Z" fill="white"/>
<path d="M191.337 418.254C192.527 418.254 193.492 417.289 193.492 416.099C193.492 414.908 192.527 413.943 191.337 413.943C190.146 413.943 189.181 414.908 189.181 416.099C189.181 417.289 190.146 418.254 191.337 418.254Z" fill="white"/>
<path d="M328.329 399.115C329.516 399.115 330.478 398.153 330.478 396.966C330.478 395.779 329.516 394.816 328.329 394.816C327.142 394.816 326.18 395.779 326.18 396.966C326.18 398.153 327.142 399.115 328.329 399.115Z" fill="white"/>
<path d="M403.854 356.493C405.041 356.493 406.003 355.531 406.003 354.344C406.003 353.157 405.041 352.194 403.854 352.194C402.667 352.194 401.704 353.157 401.704 354.344C401.704 355.531 402.667 356.493 403.854 356.493Z" fill="white"/>
<path d="M461.113 382.654C462.3 382.654 463.262 381.692 463.262 380.505C463.262 379.318 462.3 378.356 461.113 378.356C459.926 378.356 458.963 379.318 458.963 380.505C458.963 381.692 459.926 382.654 461.113 382.654Z" fill="white"/>
<path d="M480.628 395.142C481.815 395.142 482.778 394.18 482.778 392.993C482.778 391.806 481.815 390.843 480.628 390.843C479.441 390.843 478.479 391.806 478.479 392.993C478.479 394.18 479.441 395.142 480.628 395.142Z" fill="white"/>
<path d="M483.836 361.085C485.023 361.085 485.985 360.123 485.985 358.936C485.985 357.749 485.023 356.786 483.836 356.786C482.649 356.786 481.687 357.749 481.687 358.936C481.687 360.123 482.649 361.085 483.836 361.085Z" fill="white"/>
<path d="M199.13 312.87C200.317 312.87 201.28 311.907 201.28 310.72C201.28 309.533 200.317 308.571 199.13 308.571C197.943 308.571 196.981 309.533 196.981 310.72C196.981 311.907 197.943 312.87 199.13 312.87Z" fill="white"/>
<path d="M199.947 362.954C201.532 362.954 202.817 361.669 202.817 360.084C202.817 358.499 201.532 357.214 199.947 357.214C198.362 357.214 197.077 358.499 197.077 360.084C197.077 361.669 198.362 362.954 199.947 362.954Z" fill="white"/>
<path d="M217.166 399.306C218.751 399.306 220.036 398.021 220.036 396.436C220.036 394.851 218.751 393.566 217.166 393.566C215.581 393.566 214.296 394.851 214.296 396.436C214.296 398.021 215.581 399.306 217.166 399.306Z" fill="white"/>
<path d="M423.42 361.423C425.006 361.423 426.29 360.138 426.29 358.553C426.29 356.968 425.006 355.683 423.42 355.683C421.835 355.683 420.551 356.968 420.551 358.553C420.551 360.138 421.835 361.423 423.42 361.423Z" fill="white"/>
<path d="M497.657 357.214C499.242 357.214 500.527 355.929 500.527 354.344C500.527 352.759 499.242 351.474 497.657 351.474C496.072 351.474 494.787 352.759 494.787 354.344C494.787 355.929 496.072 357.214 497.657 357.214Z" fill="white"/>
<path d="M460.921 341.525C462.506 341.525 463.791 340.24 463.791 338.655C463.791 337.07 462.506 335.785 460.921 335.785C459.336 335.785 458.051 337.07 458.051 338.655C458.051 340.24 459.336 341.525 460.921 341.525Z" fill="white"/>
<path d="M423.42 343.055C425.006 343.055 426.29 341.77 426.29 340.185C426.29 338.6 425.006 337.315 423.42 337.315C421.835 337.315 420.551 338.6 420.551 340.185C420.551 341.77 421.835 343.055 423.42 343.055Z" fill="white"/>
<path d="M346.066 47.3732L353.202 46.6908L346.078 46.289C345.855 44.9114 344.752 43.8336 343.361 43.655L342.679 36.5503L342.271 43.7124C340.983 43.9994 339.994 45.0772 339.835 46.4166L332.539 47.0798L339.886 47.4753C340.153 48.7061 341.148 49.6692 342.398 49.8988L343.062 57.2203L343.451 49.9115C344.771 49.6883 345.817 48.6743 346.066 47.3732Z" fill="white"/>
<path d="M225.617 126.826L232.753 126.144L225.629 125.742C225.413 124.365 224.303 123.287 222.913 123.108L222.23 116.003L221.828 123.166C220.534 123.453 219.545 124.53 219.386 125.87L212.09 126.533L219.437 126.928C219.705 128.159 220.7 129.122 221.95 129.352L222.613 136.673L223.008 129.365C224.328 129.148 225.374 128.127 225.617 126.826Z" fill="white"/>
<path d="M492.427 336.894L499.564 336.212L492.44 335.81C492.223 334.433 491.113 333.355 489.723 333.176L489.04 326.072L488.639 333.234C487.35 333.521 486.362 334.598 486.202 335.938L478.906 336.601L486.253 336.997C486.521 338.227 487.516 339.19 488.766 339.42L489.429 346.742L489.825 339.433C491.132 339.216 492.178 338.202 492.427 336.894Z" fill="white"/>
<path d="M201.509 446.731L208.646 446.048L201.522 445.647C201.299 444.269 200.195 443.191 198.805 443.013L198.123 435.914L197.721 443.07C196.426 443.357 195.438 444.435 195.278 445.774L187.982 446.437L195.329 446.833C195.597 448.064 196.592 449.033 197.842 449.256L198.505 456.578L198.901 449.269C200.214 449.052 201.267 448.032 201.509 446.731Z" fill="white"/>
<path d="M469.754 393.158L476.891 392.476L469.767 392.074C469.55 390.697 468.441 389.619 467.05 389.44L466.368 382.335L465.966 389.491C464.678 389.778 463.689 390.856 463.53 392.195L456.234 392.859L463.581 393.254C463.849 394.485 464.843 395.448 466.094 395.678L466.757 402.999L467.152 395.69C468.46 395.48 469.512 394.459 469.754 393.158Z" fill="white"/>
<path d="M351.538 194.679C321.773 206.248 292.742 216.573 268.245 224.239C218.467 239.826 82.272 282.021 0 335.211L6.88789 337.889C57.0164 309.573 89.6 300.676 120.921 290.822C154.978 280.108 265.075 254.342 314.93 240.311C331.773 235.572 351.499 229.367 372.393 221.816C367.533 215.036 362.405 208.238 357.01 201.452C355.205 199.162 353.374 196.904 351.538 194.679ZM387.903 244.801C380.696 249.667 374.657 253.551 370.428 256C345.938 270.158 226.542 351.665 199.379 370.416C172.216 389.166 96.8259 460.341 74.6316 481.004L73.8663 489.417C145.424 425.13 167.873 409.275 196.318 387.635C231.522 360.849 304.349 311.294 329.101 295.414C352.762 280.235 374.102 266.274 393.254 253.5C392.942 252.977 392.629 252.454 392.316 251.925C390.875 249.559 389.402 247.186 387.903 244.801ZM499.761 126.661C464.901 147.095 409.957 171.757 356.653 192.682C357.928 194.245 359.197 195.82 360.46 197.408C366.417 204.908 372.035 212.46 377.323 220.017C419.224 204.583 465.201 183.868 501.681 158.798C484.302 175.265 426.845 218.206 391.813 242.141C393.618 245.081 395.365 248.022 397.055 250.949C450.13 215.432 485.845 189.289 506.656 171.808C535.355 147.701 600.79 93.7455 625.663 21.4226C582.033 76.9148 530.451 108.669 499.761 126.661Z" fill="#FC3D21"/>
<path d="M257.888 319.388C252.244 312.283 244.437 302.768 238.576 295.389C230.738 285.522 223.487 275.554 216.841 265.598C214.673 266.141 212.511 266.683 210.349 267.225C218.372 279.744 227.281 292.244 236.988 304.464C244.08 313.393 250.528 320.58 253.832 325.051C254.501 325.957 255.828 327.959 257.62 330.625C259.686 329.222 261.772 327.806 263.876 326.378C261.842 324.165 259.833 321.837 257.888 319.388ZM299.088 356.786C294.451 352.399 283.207 345.071 271.504 334.076C268.921 335.849 266.313 337.647 263.698 339.458C271.255 350.109 281.549 363.19 289.61 367.004C301.753 372.756 305.025 362.412 299.088 356.786ZM360.46 197.408C293.545 113.185 211.803 66.9146 176.56 94.919C149.187 116.667 160.424 180.227 198.154 246.995C200.106 246.325 202.038 245.668 203.952 245.018C165.871 179.965 155.45 119.511 181.266 98.9944C213.71 73.2158 292.047 119.664 357.022 201.445C370.473 218.372 382.297 235.362 392.31 251.925C430.653 315.383 442.42 372.769 415.927 396.194C407.821 403.363 383.05 406.175 350.6 391.57C350.147 392.138 350.874 393.675 351.442 394.051C379.453 405.314 406.284 409.606 419.83 398.847C452.381 372.979 427.375 281.632 360.46 197.408Z" fill="white"/>
<path d="M73.4772 207.402H116.335L152.305 268.436C152.305 268.436 152.305 224.239 152.305 220.795C152.305 215.438 145.513 208.454 143.121 207.402C145.991 207.402 171.056 207.402 172.778 207.402C170.96 207.88 165.124 214.96 165.124 220.795C165.124 223.665 165.124 287.761 165.124 290.822C165.124 295.127 171.343 301.058 174.308 303.354H132.981L96.4369 242.033C96.4369 242.033 96.4369 287.761 96.4369 290.248C96.4369 295.031 101.124 299.623 106.003 303.546H74.4339C78.9301 301.632 83.2351 295.605 83.6177 290.822C84.0004 286.039 83.6177 224.335 83.6177 221.656C83.6177 215.821 77.9735 211.037 73.4772 207.402Z" fill="white"/>
<path d="M465.513 303.354H522.53C519.373 302.589 515.833 298.858 513.92 293.883C512.006 288.909 481.776 207.402 481.776 207.402H460.098C453.95 211.828 447.362 216.497 440.328 221.414C440.309 221.592 440.289 221.771 440.257 221.943C439.314 227.683 422.349 289.126 421.316 292.161C419.881 296.371 412.515 301.058 409.549 303.546H440.257C437.196 300.102 434.709 296.753 435.283 292.927C435.857 289.1 437.579 281.447 437.579 281.447H469.34C470.775 285.274 471.846 288.711 472.401 291.97C473.071 295.892 469.053 300.293 465.513 303.354ZM440.449 269.202L451.163 234.188L465.322 269.202H440.449ZM435.621 210.897C437.196 209.736 438.778 208.569 440.353 207.402H432.03C432.859 208.167 434.231 209.373 435.621 210.897Z" fill="white"/>
<path d="M217.549 292.927C218.123 289.1 219.845 281.447 219.845 281.447H251.606C253.041 285.274 254.112 288.711 254.667 291.97C255.337 295.892 251.319 300.293 247.779 303.354H297.978C299.024 302.653 300.063 301.951 301.103 301.256C299.158 299.534 297.366 296.951 296.186 293.883C294.272 288.909 264.042 207.402 264.042 207.402H214.296C216.688 209.602 223.576 215.534 222.524 221.943C221.586 227.683 204.615 289.126 203.582 292.161C202.147 296.371 194.781 301.058 191.815 303.546H222.524C219.462 300.102 216.975 296.753 217.549 292.927ZM233.429 234.188L247.588 269.202H222.715L233.429 234.188Z" fill="white"/>
<path d="M390.952 255.031C381.589 261.268 371.71 267.78 361.302 274.578C365.97 276.842 369.689 279.687 370.046 283.36C370.709 290.261 356.844 293.596 344.312 292.161C341.805 291.874 339.343 291.218 336.997 290.337C334.394 292.015 331.767 293.705 329.101 295.414C326.39 297.155 323.1 299.298 319.343 301.773V311.677C321.83 306.798 327.271 302.429 331.493 302.206C333.31 302.111 339.624 307.946 365.645 306.511C378.273 305.816 402.667 292.353 402.285 276.855C402.055 267.697 397.272 260.554 390.952 255.031ZM319.337 278.96V289.049C321.639 287.512 323.91 286.001 326.135 284.527C322.634 282.091 320.153 279.814 319.337 278.96ZM382.055 248.698C379.631 247.263 377.176 246.006 374.823 244.896C362.577 239.157 349.758 238.104 347.08 230.355C345.192 224.89 350.524 219.832 363.534 220.024C376.545 220.215 388.598 227.964 391.851 230.738V206.056C390.894 207.013 386.698 211.828 382.858 211.031C375.492 209.5 362.96 207.504 348.61 207.587C332.156 207.683 317.997 220.4 317.519 236.478C316.849 258.959 334.834 265.082 344.975 268.621C346.021 268.985 347.214 269.374 348.508 269.789C358.234 263.462 365.926 258.589 370.428 255.994C373.451 254.253 377.412 251.752 382.055 248.698Z" fill="white"/>
</g>
<defs>
<clipPath id="clip0_751_484">
<rect width="625.663" height="512" fill="white"/>
</clipPath>
</defs>
</svg>
