<svg width="513" height="513" viewBox="0 0 513 513" fill="none" xmlns="http://www.w3.org/2000/svg">
<g clip-path="url(#clip0_777_519)">
<path d="M0.325195 0.220215H511.411V511.306H0.325195V0.220215Z" fill="#00A0DF"/>
<path d="M444.668 231.535C444.668 224.22 440.097 218.735 436.439 213.249C432.782 209.592 430.039 205.935 430.039 201.363C430.039 195.877 433.697 192.22 438.268 192.22C441.011 192.22 442.839 193.135 444.668 194.049C446.497 194.963 449.239 195.877 451.068 195.877C454.725 195.877 457.468 192.22 457.468 189.477C457.468 185.82 453.811 182.163 447.411 182.163C432.782 182.163 419.982 198.62 419.982 211.42C419.982 218.735 424.554 224.22 428.211 228.792C430.954 232.449 433.697 236.106 433.697 239.763C433.697 245.249 428.211 248.906 423.639 248.906C418.154 248.906 415.411 246.163 411.754 243.42C409.925 241.592 408.097 239.763 406.268 239.763C403.525 239.763 402.611 245.249 402.611 247.992C402.611 251.649 409.011 257.135 417.239 257.135C430.039 255.306 444.668 244.335 444.668 231.535Z" fill="white"/>
<path d="M132.897 141.935C131.982 141.935 131.982 141.935 132.897 141.935L131.982 145.592V146.506H136.554C140.211 147.42 141.125 147.42 141.125 149.249C141.125 151.992 137.468 161.135 132.897 173.935L129.239 185.82C125.582 195.877 120.097 210.506 115.525 222.392C110.039 237.02 105.468 248.906 105.468 250.735C105.468 252.563 106.382 253.477 110.954 253.477C115.525 253.477 117.354 252.563 118.268 250.735C126.497 224.22 148.439 194.049 159.411 194.049C163.068 194.049 163.982 194.963 163.982 198.62C163.982 204.106 159.411 215.077 153.925 226.049C149.354 235.192 145.697 244.335 145.697 248.906C145.697 252.563 147.525 254.392 151.182 254.392C162.154 254.392 171.297 244.335 177.697 236.106L178.611 235.192L175.868 232.449H174.954C171.297 236.106 164.897 242.506 163.068 242.506H162.154V240.677C162.154 239.763 163.068 237.02 164.897 233.363C169.468 223.306 176.782 205.935 176.782 195.877C176.782 187.649 173.125 183.077 165.811 183.077C152.097 183.077 141.125 198.62 135.639 206.849C134.725 208.677 132.897 210.506 132.897 210.506C132.897 210.506 133.811 208.677 134.725 205.02C136.554 201.363 138.382 195.877 141.125 188.563C151.182 161.135 155.754 147.42 155.754 145.592C155.754 143.763 153.925 143.763 153.011 143.763H132.897V141.935Z" fill="white"/>
<path d="M101.811 238.849C102.725 237.934 102.725 237.934 101.811 238.849C101.811 237.934 99.0681 236.106 99.0681 236.106C94.4966 239.763 86.2681 247.077 78.9538 247.077C76.2109 247.077 73.468 246.163 71.6395 244.334C68.8966 242.506 67.9823 238.849 67.9823 234.277C67.068 223.306 77.1252 205.934 86.268 195.877C91.7538 190.392 96.3252 187.649 99.0681 187.649C102.725 187.649 105.468 190.392 108.211 193.134C110.039 195.877 111.868 197.706 114.611 197.706C115.525 197.706 117.354 196.792 117.354 195.877C118.268 194.963 119.182 193.134 119.182 192.22C119.182 187.649 114.611 181.249 104.554 180.334C93.5823 180.334 78.9538 186.734 67.9823 197.706C57.9252 207.763 52.4395 220.563 53.3538 232.449C53.3538 242.506 58.8395 253.477 73.468 253.477C88.0966 255.306 99.9823 242.506 101.811 238.849Z" fill="white"/>
<path d="M286.497 213.249C286.497 214.163 285.582 215.078 285.582 215.078V214.163C285.582 213.249 286.497 210.506 287.411 206.849C289.239 199.535 291.068 190.392 291.068 187.649C291.068 183.992 289.239 182.163 285.582 182.163C278.268 182.163 266.382 194.963 262.725 201.363L264.554 204.106L265.468 203.192L266.382 202.278C269.125 198.62 274.611 192.22 277.354 192.22C279.182 192.22 280.097 194.049 280.097 196.792C280.097 203.192 272.782 223.306 268.211 237.02C265.468 244.335 263.639 249.82 263.639 250.735C263.639 252.563 264.554 252.563 265.468 252.563H271.868C272.782 252.563 273.697 251.649 274.611 249.82C274.611 249.82 277.354 242.506 279.182 238.849C291.982 213.249 298.382 200.449 303.868 194.963C307.525 191.306 310.268 190.392 312.097 190.392C313.925 190.392 313.925 191.306 314.839 192.22C315.754 193.135 316.668 194.963 318.497 194.963C319.411 194.963 321.239 194.963 322.154 194.049C323.982 192.22 324.897 190.392 324.897 187.649C324.897 183.078 321.239 181.249 318.497 181.249C305.697 182.163 297.468 190.392 286.497 213.249Z" fill="white"/>
<path d="M247.182 180.334C246.268 180.334 245.354 181.249 245.354 182.163C244.44 183.077 244.44 183.992 242.611 183.992C241.697 183.992 240.782 183.992 238.954 183.077C237.125 183.077 235.297 182.163 232.554 182.163C200.554 182.163 184.097 225.134 184.097 239.763C184.097 249.82 189.582 254.392 195.068 254.392C201.468 254.392 210.611 252.563 222.497 234.277L225.24 229.706V230.62L224.325 232.449C222.497 235.192 219.754 241.592 219.754 247.077C219.754 249.82 220.668 251.649 221.582 252.563C222.497 253.477 224.325 254.392 226.154 254.392C237.125 254.392 246.268 239.763 249.925 234.277L247.182 231.534H246.268L243.525 234.277C239.868 237.934 236.211 243.42 233.468 243.42H232.554V241.592C232.554 237.934 239.868 220.563 244.44 206.849C248.097 196.792 251.754 187.649 251.754 185.82C251.754 185.82 251.754 183.992 250.84 183.992L246.268 181.249C248.097 180.334 247.182 180.334 247.182 180.334ZM196.897 237.02C196.897 215.992 213.354 187.649 229.811 187.649C235.297 187.649 238.04 190.392 238.04 195.877C238.04 204.106 216.097 243.42 201.468 243.42C198.725 244.334 196.897 243.42 196.897 237.02Z" fill="white"/>
<path d="M349.582 235.192C349.582 247.077 356.897 255.306 367.868 255.306C380.668 255.306 394.382 242.506 398.039 238.849V237.934L396.211 235.192H395.297L393.468 236.106C388.897 239.763 381.582 245.249 375.182 245.249C367.868 245.249 363.297 240.677 363.297 233.363C363.297 224.22 367.868 217.82 370.611 212.334V211.42H377.925C389.811 211.42 411.754 205.934 411.754 192.22C411.754 186.734 406.268 180.334 397.125 180.334C378.839 182.163 349.582 209.592 349.582 235.192ZM396.211 186.734C399.868 186.734 402.611 189.477 402.611 193.134C402.611 202.277 392.554 206.849 375.182 206.849C377.925 200.449 387.982 186.734 396.211 186.734Z" fill="white"/>
<path d="M344.097 236.106C344.097 235.191 341.354 232.449 341.354 232.449L340.44 233.363C334.04 239.763 331.297 244.334 327.64 244.334H326.725C326.725 244.334 325.811 243.42 325.811 242.506C325.811 238.849 332.211 220.563 345.011 187.649L354.154 163.877C358.725 151.991 361.468 145.591 361.468 144.677V143.763C361.468 142.849 360.554 142.849 358.725 142.849H337.697C337.697 142.849 336.782 142.849 336.782 143.763V148.334H341.354C344.097 149.249 345.925 150.163 345.925 151.991C345.925 154.734 332.211 188.563 332.211 188.563C324.897 206.849 312.097 238.849 312.097 246.163C312.097 249.82 313.011 252.563 313.925 253.477C315.754 255.306 317.582 256.22 320.325 256.22C328.554 256.22 337.697 245.249 343.182 237.934L344.097 236.106Z" fill="white"/>
<path d="M54.268 300.106C54.268 310.163 62.4966 315.649 69.8109 319.306L73.468 321.135C80.7823 324.792 84.4394 329.363 84.4394 334.849C84.4394 341.249 79.868 346.735 73.468 346.735C63.4109 346.735 57.9251 336.678 55.1823 330.278L51.5251 331.192C52.4394 337.592 54.268 344.906 54.268 347.649H56.0966L60.668 349.478C63.4109 350.392 67.068 351.306 70.7251 351.306C84.4394 351.306 94.4966 343.078 94.4966 330.278C94.4966 318.392 85.3537 312.906 78.9537 310.163L76.2109 309.249C67.9823 304.678 64.3251 301.02 64.3251 295.535C64.3251 290.049 67.9823 284.563 74.3823 284.563C82.6109 284.563 86.268 290.963 88.0966 297.363L91.7537 296.449C90.8394 290.963 89.9252 286.392 89.9252 282.735L87.1823 281.82L85.3537 280.906C82.6109 279.992 78.9537 279.078 76.2109 279.078C63.4109 279.992 54.268 288.22 54.268 300.106Z" fill="white"/>
<path d="M102.725 316.563C102.725 333.935 114.611 350.392 141.125 350.392C147.525 350.392 156.668 348.563 160.325 347.649C162.154 343.078 164.897 334.849 165.811 330.278L162.154 329.363C156.668 340.335 152.097 345.82 140.211 345.82C125.582 345.82 115.525 333.02 115.525 313.82C115.525 300.106 121.925 284.563 140.211 284.563C151.182 284.563 156.668 289.135 159.411 300.106H163.068L162.154 295.535L160.325 283.649H158.497C154.839 282.735 149.354 281.82 142.039 281.82C119.182 279.992 102.725 294.62 102.725 316.563Z" fill="white"/>
<path d="M242.611 281.82H213.354V285.477C220.668 286.392 221.582 286.392 221.582 298.277V311.992H190.497V298.277C190.497 287.306 191.411 286.392 198.725 285.477V281.82H168.554V285.477C177.697 286.392 177.697 287.306 177.697 298.277V334.849C177.697 345.82 176.782 346.735 168.554 347.649V351.306H198.725V347.649C191.411 346.735 189.582 346.735 189.582 334.849V317.477H220.668V334.849C220.668 345.82 219.754 346.735 211.525 347.649V351.306H241.697V347.649C233.468 346.735 232.554 346.735 232.554 334.849V298.277C232.554 287.306 233.468 286.392 241.697 285.477L242.611 281.82Z" fill="white"/>
<path d="M345.925 281.82H322.154V285.477H325.811C327.64 285.477 328.554 286.392 329.468 286.392C329.468 287.306 330.382 287.306 330.382 288.22C330.382 289.135 330.382 290.963 329.468 292.792C329.468 293.706 323.982 316.563 319.411 331.192C318.497 329.363 301.125 282.735 301.125 282.735H296.554C296.554 282.735 281.011 331.192 281.011 332.106C280.097 330.277 269.125 291.877 269.125 291.877C269.125 290.049 268.211 289.135 268.211 288.22V286.392C269.125 285.477 270.04 285.477 271.868 285.477H275.525V282.735H247.182V286.392C252.668 287.306 254.497 287.306 257.24 296.449L274.611 351.306H279.182C279.182 351.306 294.725 303.763 295.64 302.849C296.554 304.677 313.011 351.306 313.011 351.306H317.582C326.725 319.306 334.954 297.363 334.954 296.449C338.611 287.306 339.525 286.392 345.925 286.392V281.82Z" fill="white"/>
<path d="M364.211 298.278C364.211 298.278 371.525 320.221 372.44 320.221H356.897C355.982 320.221 364.211 298.278 364.211 298.278ZM377.011 300.106L369.697 280.906L365.125 281.821L344.097 335.763C340.44 344.906 339.525 345.821 333.125 345.821V349.478H356.897V345.821H354.154C352.325 345.821 350.497 344.906 350.497 343.992V342.163C350.497 341.249 350.497 340.335 351.411 338.506L352.325 336.678C353.24 333.021 355.068 327.535 355.982 325.706H375.182C377.011 331.192 379.754 337.592 380.668 340.335C380.668 341.249 381.582 342.163 381.582 343.078V343.992C381.582 344.906 380.668 344.906 378.84 344.906L376.097 345.821V348.563H403.525V344.906C398.039 343.992 396.211 343.992 392.554 334.849L377.011 300.106Z" fill="white"/>
<path d="M425.468 290.963C425.468 288.22 425.468 286.392 426.382 286.392H430.954C433.697 286.392 443.754 287.306 443.754 299.192C443.754 307.42 438.268 311.992 429.125 311.992H425.468V290.963ZM406.268 281.82V285.477C413.582 286.392 414.497 286.392 414.497 298.277V334.849C414.497 345.82 413.582 346.735 405.354 347.649V351.306H430.954C439.182 351.306 446.497 349.477 451.068 346.735C457.468 343.077 460.211 337.592 460.211 331.192C460.211 322.049 453.811 315.649 441.925 313.82C447.411 312.906 456.554 308.335 456.554 299.192C456.554 293.706 454.725 290.049 451.068 287.306C447.411 284.563 442.839 283.649 434.611 283.649H406.268V281.82ZM429.125 314.735C441.011 314.735 447.411 320.22 447.411 330.277C447.411 340.335 440.097 344.906 433.697 344.906C430.954 344.906 429.125 344.906 428.211 343.992C426.382 342.163 426.382 339.42 426.382 333.935V315.649C426.382 314.735 429.125 314.735 429.125 314.735Z" fill="white"/>
</g>
<defs>
<clipPath id="clip0_777_519">
<rect width="512" height="512" fill="white" transform="translate(0.325195 0.220215)"/>
</clipPath>
</defs>
</svg>
