<svg width="923" height="513" viewBox="0 0 923 513" fill="none" xmlns="http://www.w3.org/2000/svg">
<g clip-path="url(#clip0_813_341)">
<path d="M350.46 90.8309C352.275 90.8309 353.183 90.8309 354.091 89.9231L401.296 247.881C406.743 265.129 432.162 278.746 463.027 278.746C493.892 278.746 519.311 265.129 524.757 247.881L571.055 89.9231C571.963 89.9231 573.779 89.9231 574.687 89.9231C583.765 89.9231 591.027 82.6607 591.027 73.5827C591.027 64.5047 583.765 57.2423 574.687 57.2423C565.609 57.2423 558.346 64.5047 558.346 73.5827C558.346 79.9373 561.977 85.3841 567.424 88.1075L513.864 203.398L522.942 48.1643C532.02 48.1643 539.282 40.9018 539.282 31.8238C539.282 22.7458 532.02 15.4834 522.942 15.4834C513.864 15.4834 506.601 22.7458 506.601 31.8238C506.601 39.0862 512.048 45.4409 518.403 47.2565L482.999 198.859L464.843 32.7316C473.013 31.8238 478.46 24.5614 478.46 16.3912C478.46 7.31319 471.197 0.0507812 462.119 0.0507812C453.041 0.0507812 445.779 7.31319 445.779 16.3912C445.779 24.5614 452.133 31.8238 459.396 32.7316L442.148 199.767L407.651 48.1643C414.913 46.3487 419.452 39.994 419.452 32.7316C419.452 23.6536 412.19 16.3912 403.112 16.3912C394.034 16.3912 386.772 23.6536 386.772 32.7316C386.772 41.8097 394.034 49.0721 403.112 49.0721L412.19 204.306L358.63 89.0153C364.077 86.2919 367.708 80.8451 367.708 74.4905C367.708 65.4125 360.445 58.1501 351.367 58.1501C342.289 58.1501 335.027 65.4125 335.027 74.4905C334.119 83.5685 341.382 90.8309 350.46 90.8309ZM463.027 234.264C491.169 234.264 513.864 241.526 513.864 250.604C513.864 259.682 491.169 266.944 463.027 266.944C434.885 266.944 412.19 259.682 412.19 250.604C411.282 241.526 434.885 234.264 463.027 234.264Z" fill="#A37E2C"/>
<path d="M170.715 494.802L160.729 464.845C156.19 451.228 152.559 445.781 145.296 438.519C140.757 433.98 133.495 432.164 128.048 430.348C147.112 427.625 161.637 410.377 161.637 390.405C161.637 368.618 143.481 350.462 121.694 350.462H120.786H59.9632H23.6511H1.86386V362.263H23.6511V494.802H0.956055V506.604H59.0553H81.7504V494.802H59.9632V431.256H77.2114C78.1192 431.256 78.1192 431.256 79.027 431.256H82.6582C88.105 431.256 92.644 432.164 97.183 433.072C100.814 433.98 105.353 435.795 108.077 437.611C111.708 440.334 116.247 443.965 119.878 449.412C120.786 451.228 121.694 453.043 122.601 453.951C128.956 466.661 133.495 483.909 138.034 505.696H165.268H189.779V493.895L170.715 494.802ZM98.0908 419.455H59.9632V362.263H98.0908C114.431 363.171 127.14 374.065 127.14 390.405C127.14 406.746 114.431 418.547 98.0908 419.455Z" fill="#006039"/>
<path d="M282.375 345.016C235.169 345.016 197.949 383.143 197.949 428.533C197.949 473.923 236.077 512.051 282.375 512.051C329.58 512.051 366.8 473.923 366.8 428.533C366.8 383.143 329.58 345.016 282.375 345.016ZM317.779 476.647C315.056 480.278 311.424 483.909 307.793 486.633C301.439 491.172 294.176 494.803 286.914 494.803C285.098 494.803 284.19 494.803 282.375 494.803C280.559 494.803 279.651 494.803 277.836 494.803C270.573 494.803 263.311 491.172 256.956 486.633C253.325 483.909 249.694 480.278 246.97 476.647C237.892 464.845 232.446 447.597 232.446 428.533C232.446 410.377 236.985 394.945 245.155 382.235C249.694 374.065 256.049 367.711 265.127 364.079C265.127 364.079 266.034 364.079 266.034 363.172C266.942 362.264 267.85 362.264 269.666 362.264C273.297 361.356 277.836 360.448 281.467 360.448C286.006 360.448 289.637 361.356 293.268 362.264C294.176 362.264 295.992 363.172 296.9 363.172C296.9 363.172 297.807 363.172 297.807 364.079C305.978 367.711 313.24 374.065 317.779 382.235C325.949 394.037 330.488 410.377 330.488 428.533C332.304 447.597 326.857 464.845 317.779 476.647Z" fill="#006039"/>
<path d="M534.744 445.781H522.942V469.384C522.942 483.909 511.141 494.802 496.616 494.802H460.304H446.687V362.263H469.382V350.462H446.687H443.963H387.68V362.263H410.375V494.802H387.68V506.604H522.942H532.928H533.836H534.744V468.476V445.781Z" fill="#006039"/>
<path d="M714.488 351.37H713.58H677.268H560.162V363.172H582.857V495.711H560.162V507.512H677.268H703.594H713.58H714.488H715.396V469.384V452.136H703.594V470.292C703.594 484.817 691.793 495.711 677.268 495.711H635.509H619.169H618.261V432.164V429.441H630.062H637.325C648.218 429.441 656.389 438.519 656.389 448.505V454.859V457.583H667.282V456.675V429.441V419.455V393.129V392.221H656.389V399.484C656.389 410.377 648.218 417.64 637.325 417.64H630.062H622.8H618.261V361.356H619.169H652.757C652.757 361.356 652.757 361.356 653.665 361.356H677.268C691.793 361.356 702.686 373.157 703.594 386.774V403.115H715.396V387.682L714.488 351.37Z" fill="#006039"/>
<path d="M916.928 495.71C906.034 495.71 903.311 492.079 894.232 482.093L842.488 417.639L876.984 376.788C886.062 365.895 888.786 362.263 900.587 362.263H907.85H909.665V350.462H907.85H873.353H871.537H847.027H846.119V362.263H847.935H860.644C863.367 362.263 866.091 364.987 866.091 367.71C866.091 368.618 866.091 369.526 865.183 370.434L835.225 406.746L809.807 377.696L805.268 371.341C804.36 370.434 804.36 369.526 804.36 367.71C804.36 364.987 807.084 362.263 809.807 362.263H823.424V350.462H798.913H763.509H744.445V362.263H748.076C758.062 363.171 760.786 365.895 768.956 374.973L814.346 432.164L773.495 481.185C764.417 492.079 761.693 495.71 749.892 495.71H742.63H739.906V507.512H742.63H781.665H784.388H805.268H807.991V495.71H805.268H790.743C788.02 495.71 785.296 492.987 785.296 490.263C785.296 489.356 786.204 487.54 786.204 486.632L822.516 443.058L852.474 481.185L857.013 486.632C857.92 487.54 857.92 488.448 857.92 490.263C857.92 492.987 855.197 495.71 852.474 495.71H837.949V507.512H922.374V495.71H916.928Z" fill="#006039"/>
</g>
<defs>
<clipPath id="clip0_813_341">
<rect width="921.418" height="512" fill="white" transform="translate(0.956055 0.0507812)"/>
</clipPath>
</defs>
</svg>
