<svg width="1024" height="280" viewBox="0 0 1024 280" fill="none" xmlns="http://www.w3.org/2000/svg">
<g clip-path="url(#clip0_779_64)">
<path d="M25.9389 176.49H0V157.276H72.6025V176.49H47.0748V252.939H25.9389V176.49Z" fill="#030404"/>
<path d="M77.9507 157.276H98.3996V192.136C101.145 186.234 108.555 182.254 117.752 182.254C134.222 182.254 143.416 193.097 143.416 210.941V252.939H122.968V213.41C122.968 205.45 118.85 200.372 111.163 200.372C103.752 200.372 98.3996 205.999 98.3996 214.097V252.939H77.9507V157.276Z" fill="#030404"/>
<path d="M201.468 210.529C201.468 204.353 195.155 199.137 187.056 199.137C178.548 199.137 171.41 204.216 170.999 210.529H201.468ZM150.411 218.214C150.411 196.255 166.059 182.117 187.056 182.117C208.193 182.117 222.056 197.765 222.056 217.117C222.056 217.117 222.056 220.684 221.644 223.842H170.862C171.273 232.076 178.273 237.292 189.117 237.292C202.292 237.292 209.701 233.313 213.683 230.566V248.409C207.232 252.526 200.095 254.723 188.017 254.723C165.647 254.723 150.411 240.585 150.411 218.901V218.214Z" fill="#030404"/>
<path d="M261.987 153.846L312.494 208.882L363.001 153.846V252.939H342.689V204.353L312.494 238.253L282.299 204.353V252.939H261.987V153.846Z" fill="#030404"/>
<path d="M408.148 236.469C418.167 236.469 426.128 228.508 426.128 218.351C426.128 208.332 418.167 200.236 408.148 200.236C397.992 200.236 390.169 208.332 390.169 218.351C390.169 228.508 397.992 236.469 408.148 236.469ZM408.148 181.708C429.421 181.708 446.578 197.902 446.578 218.351C446.578 238.801 429.421 254.997 408.148 254.997C386.738 254.997 369.72 238.801 369.72 218.351C369.72 197.902 386.738 181.708 408.148 181.708Z" fill="#030404"/>
<path d="M457.828 202.293H448.63V183.765H457.828V157.276H477.727V183.765H492.963V202.293H477.727V252.939H457.828V202.293Z" fill="#030404"/>
<path d="M519.036 157.276H498.585V252.939H519.036V157.276Z" fill="#030404"/>
<path d="M576.814 210.529C576.814 204.353 570.501 199.137 562.401 199.137C553.894 199.137 546.756 204.216 546.344 210.529H576.814ZM525.758 218.214C525.758 196.255 541.404 182.117 562.401 182.117C583.539 182.117 597.401 197.765 597.401 217.117C597.401 217.117 597.401 220.684 596.99 223.842H546.207C546.618 232.076 553.618 237.292 564.463 237.292C577.638 237.292 585.049 233.313 589.029 230.566V248.409C582.578 252.526 575.441 254.723 563.363 254.723C540.993 254.723 525.758 240.585 525.758 218.901V218.214Z" fill="#030404"/>
<path d="M594.516 183.765H615.787L634.178 229.88L652.845 183.765H674.118L633.355 279.563H612.357L623.474 254.173L594.516 183.765Z" fill="#030404"/>
<path d="M708.424 157.276H771.419V176.49H729.558V196.118H767.712V214.92H729.558V252.939H708.424V157.276Z" fill="#030404"/>
<path d="M812.999 236.469C823.019 236.469 830.98 228.508 830.98 218.351C830.98 208.332 823.019 200.236 812.999 200.236C802.843 200.236 795.021 208.332 795.021 218.351C795.021 228.508 802.843 236.469 812.999 236.469ZM812.999 181.708C834.273 181.708 851.431 197.902 851.431 218.351C851.431 238.801 834.273 254.997 812.999 254.997C791.589 254.997 774.57 238.801 774.57 218.351C774.57 197.902 791.589 181.708 812.999 181.708Z" fill="#030404"/>
<path d="M893.97 236.469C903.989 236.469 911.95 228.508 911.95 218.351C911.95 208.332 903.989 200.236 893.97 200.236C883.814 200.236 875.991 208.332 875.991 218.351C875.991 228.508 883.814 236.469 893.97 236.469ZM893.97 181.708C915.243 181.708 932.4 197.902 932.4 218.351C932.4 238.801 915.243 254.997 893.97 254.997C872.558 254.997 855.54 238.801 855.54 218.351C855.54 197.902 872.558 181.708 893.97 181.708Z" fill="#030404"/>
<path d="M960.255 157.276H939.805V252.939H960.255V157.276Z" fill="#030404"/>
<path d="M1024 133.012C1024 140.64 1017.82 146.824 1010.19 146.824C1002.56 146.824 996.375 140.64 996.375 133.012C996.375 125.383 1002.56 119.198 1010.19 119.198C1017.82 119.198 1024 125.383 1024 133.012Z" fill="#FDB525"/>
<path d="M927.494 0.231934C967.555 0.231934 1001.19 45.2488 1010.69 106.108C1010.87 107.242 1010.09 108.315 1008.96 108.505C1007.99 108.666 1007.05 108.126 1006.68 107.218C997.179 83.9451 980.867 68.5814 962.329 68.5814C935.758 68.5814 912.427 101.084 909.81 145.771C906.361 153.183 878.84 158.862 853.485 159.83V52.9935C869.228 20.8373 900.396 0.231934 927.494 0.231934Z" fill="#9B268F"/>
<path d="M682.969 133.012C682.969 140.64 689.152 146.824 696.783 146.824C704.41 146.824 710.593 140.64 710.593 133.012C710.593 125.383 704.41 119.198 696.783 119.198C689.152 119.198 682.969 125.383 682.969 133.012Z" fill="#FDB525"/>
<path d="M779.475 0.231934C739.414 0.231934 705.782 45.2488 696.276 106.108C696.101 107.242 696.876 108.315 698.01 108.505C698.976 108.666 699.916 108.126 700.287 107.218C709.792 83.9451 726.102 68.5814 744.64 68.5814C771.211 68.5814 794.542 101.084 797.159 145.771C800.608 153.183 828.129 158.862 853.485 159.83V52.9935C837.739 20.8373 806.573 0.231934 779.475 0.231934Z" fill="#E91E77"/>
<path d="M979.069 248.07C979.698 248.07 980.159 247.525 980.159 246.854C980.159 246.223 979.698 245.72 979.069 245.72H977.811V248.07H979.069ZM976.385 244.378H979.111C980.578 244.378 981.585 245.384 981.585 246.768C981.585 247.733 981.124 248.531 980.327 248.991L982.172 252.053H980.495L978.817 249.244H977.811V252.053H976.385V244.378ZM984.311 248.363C984.311 245.091 981.962 242.868 978.859 242.868C975.755 242.868 973.45 245.091 973.45 248.363C973.45 251.55 975.755 253.773 978.859 253.773C981.962 253.773 984.311 251.55 984.311 248.363ZM972.108 248.363C972.108 244.464 975.127 241.694 978.859 241.694C982.633 241.694 985.696 244.464 985.696 248.363C985.696 252.263 982.633 255.029 978.859 255.029C975.127 255.029 972.108 252.263 972.108 248.363Z" fill="#030404"/>
</g>
<defs>
<clipPath id="clip0_779_64">
<rect width="1024" height="279.331" fill="white" transform="translate(0 0.231934)"/>
</clipPath>
</defs>
</svg>
