<svg width="527" height="513" viewBox="0 0 527 513" fill="none" xmlns="http://www.w3.org/2000/svg">
<g clip-path="url(#clip0_820_318)">
<path d="M433.126 0.0507812H93.9802C42.6225 0.0507812 0.98877 41.6845 0.98877 93.0422V419.059C0.98877 470.417 42.6225 512.051 93.9802 512.051H433.126C484.483 512.051 526.117 470.417 526.117 419.059V93.0422C526.117 41.6845 484.483 0.0507812 433.126 0.0507812Z" fill="#1E3101"/>
<path d="M97.4622 358.378V134.332C97.4276 133.983 97.4651 133.63 97.5722 133.296C97.6793 132.962 97.8538 132.653 98.0849 132.389C98.316 132.125 98.5988 131.911 98.9158 131.761C99.2328 131.61 99.5774 131.526 99.9281 131.514C103.452 131.283 108.618 131.107 115.428 130.986C122.237 130.87 130.222 130.752 139.383 130.633C148.542 130.518 158.288 130.459 168.622 130.457C196.803 130.457 220.171 135.271 238.724 144.9C256.308 153.612 270.856 167.423 280.469 184.531C289.743 201.325 294.381 220.641 294.383 242.48C294.65 257.761 292.205 272.968 287.162 287.395C282.749 299.745 276.057 311.156 267.435 321.037C259.273 330.289 249.702 338.195 239.077 344.463C228.539 350.677 217.144 355.306 205.258 358.202C193.619 361.098 181.672 362.576 169.678 362.606H143.434C134.153 362.606 125.523 362.547 117.542 362.429C109.555 362.308 103.567 362.132 99.5765 361.901C98.1672 361.901 97.4625 360.727 97.4622 358.378ZM146.076 173.787V319.628C148.658 319.628 151.006 319.687 153.121 319.804C155.236 319.926 157.403 320.041 159.638 320.156C161.868 320.278 164.393 320.336 167.212 320.333C177.867 320.471 188.467 318.803 198.565 315.401C207.61 312.328 215.854 307.273 222.695 300.605C229.578 293.735 234.87 285.437 238.196 276.298C241.984 265.798 243.834 254.698 243.656 243.537C243.872 233.02 242.078 222.558 238.371 212.713C235.066 204.22 229.818 196.62 223.048 190.52C216.132 184.408 207.953 179.897 199.094 177.31C189.2 174.405 178.932 172.98 168.621 173.083C163.92 173.083 159.987 173.141 156.82 173.258C153.65 173.38 150.069 173.556 146.076 173.787Z" fill="#99E83F"/>
<path d="M432.821 232.625C426.2 229.223 419.149 226.734 411.86 225.227C403.829 223.384 395.617 222.439 387.377 222.408C382.92 222.288 378.469 222.822 374.167 223.994C371.429 224.604 368.995 226.164 367.297 228.397C366.149 230.184 365.538 232.262 365.537 234.386C365.601 236.446 366.344 238.428 367.65 240.022C369.708 242.429 372.222 244.405 375.047 245.835C380.07 248.54 385.245 250.951 390.547 253.056C402.37 257.014 413.667 262.396 424.189 269.085C431.357 273.609 437.289 279.843 441.451 287.227C444.951 294.219 446.704 301.955 446.559 309.773C446.77 320.096 443.82 330.236 438.105 338.835C431.986 347.564 423.487 354.35 413.621 358.386C402.932 363.082 389.722 365.43 373.991 365.432C363.997 365.533 354.02 364.588 344.224 362.614C336.839 361.216 329.673 358.847 322.91 355.568C322.14 355.17 321.499 354.562 321.063 353.813C320.626 353.064 320.412 352.207 320.445 351.341V313.295C320.402 312.923 320.462 312.546 320.617 312.204C320.772 311.863 321.017 311.571 321.326 311.358C321.628 311.187 321.976 311.112 322.322 311.143C322.668 311.175 322.996 311.311 323.263 311.534C331.317 316.496 340.12 320.124 349.331 322.278C357.745 324.387 366.374 325.51 375.047 325.625C383.265 325.625 389.312 324.568 393.189 322.454C394.94 321.653 396.421 320.361 397.452 318.736C398.484 317.11 399.022 315.22 399.002 313.295C399.002 310.246 397.241 307.311 393.718 304.489C390.196 301.67 383.033 298.265 372.229 294.272C361.168 290.422 350.68 285.09 341.053 278.42C334.167 273.631 328.497 267.298 324.496 259.926C321.032 252.984 319.28 245.314 319.388 237.556C319.368 228.236 321.929 219.091 326.785 211.136C332.323 202.375 340.275 195.402 349.684 191.056C360.015 185.893 372.932 183.31 388.434 183.306C397.513 183.233 406.583 183.881 415.559 185.244C421.879 186.056 428.049 187.776 433.877 190.352C434.356 190.489 434.796 190.735 435.162 191.072C435.529 191.408 435.813 191.825 435.991 192.289C436.229 193.15 436.348 194.039 436.343 194.931V230.511C436.368 230.925 436.283 231.338 436.098 231.709C435.912 232.08 435.632 232.396 435.287 232.625C434.918 232.858 434.49 232.981 434.054 232.981C433.617 232.981 433.19 232.858 432.821 232.625Z" fill="#99E83F"/>
</g>
<defs>
<clipPath id="clip0_820_318">
<rect width="525.128" height="512" fill="white" transform="translate(0.98877 0.0507812)"/>
</clipPath>
</defs>
</svg>
