<svg width="1024" height="204" viewBox="0 0 1024 204" fill="none" xmlns="http://www.w3.org/2000/svg">
<g clip-path="url(#clip0_857_257)">
<path d="M340.841 198.931H370.309V92.3628H393.823V66.7399H370.309V58.9967C370.309 34.9527 378.045 27.1588 398.76 27.1588H407.564V0.771484H397.487C362.573 0.771484 340.892 21.7081 340.892 62.6135V66.7399H321.756V92.3628H340.892V198.931H340.841Z" fill="#027A48"/>
<path d="M405.731 198.932H435.2V124.406C435.2 103.214 442.936 94.1466 463.396 94.1466H470.622V66.7402H460.037C425.377 66.7402 405.731 88.4923 405.731 120.789V198.932Z" fill="#027A48"/>
<path d="M541.418 201.784C577.095 201.784 595.977 183.14 595.977 146.666V66.7402H566.509V148.246C566.509 167.399 558.773 176.467 541.418 176.467C524.063 176.467 516.327 167.399 516.327 148.246V66.7402H486.859V146.666C486.859 183.14 505.741 201.784 541.418 201.784Z" fill="#027A48"/>
<path d="M648.446 66.7402H618.98V198.932H648.446V66.7402Z" fill="#027A48"/>
<path d="M633.742 47.585C643.302 47.585 651.043 39.8306 651.043 30.2651C651.043 20.6997 643.302 12.9453 633.742 12.9453C624.185 12.9453 616.438 20.6997 616.438 30.2651C616.438 39.8306 624.185 47.585 633.742 47.585Z" fill="#027A48"/>
<path d="M734.51 198.93H741.226V172.543H739.699C719.547 172.543 712.578 163.73 712.578 142.03V92.3625H732.73V66.7389H712.578V25.8848H683.106V66.7389H663.974V92.3625H683.106V144.882C683.106 180.592 702.752 198.93 734.561 198.93H734.51Z" fill="#027A48"/>
<path d="M766.573 198.931H796.045V92.3628H819.555V66.7399H796.045V58.9967C796.045 34.9527 803.78 27.1588 824.49 27.1588H833.296V0.771484H823.223C788.309 0.771484 766.624 21.7081 766.624 62.6135V66.7399H747.491V92.3628H766.624V198.931H766.573Z" fill="#027A48"/>
<path d="M889.642 201.784C925.316 201.784 944.201 183.14 944.201 146.666V66.7402H914.729V148.246C914.729 167.399 906.994 176.467 889.642 176.467C872.283 176.467 864.548 167.399 864.548 148.246V66.7402H835.083V146.666C835.083 183.14 853.962 201.784 889.642 201.784Z" fill="#027A48"/>
<path d="M1017.29 198.93H1024V172.543H1022.47C1002.57 172.543 995.346 164.8 995.346 144.068V13.9141H965.881V144.068C965.881 180.541 985.526 198.93 1017.34 198.93H1017.29Z" fill="#027A48"/>
<path d="M110.122 203.33C48.3192 195.092 0.553321 142.428 0 78.4746C61.8234 86.7117 109.589 139.396 110.122 203.33Z" fill="#027A48"/>
<path d="M127.088 203.33C188.891 195.092 236.678 142.428 237.21 78.4746C175.387 86.7117 127.621 139.396 127.088 203.33Z" fill="#027A48"/>
<path d="M118.625 86.8567C95.3057 86.8567 76.3506 67.882 76.3506 44.5827C76.3506 21.2838 95.3057 2.30859 118.625 2.30859C141.945 2.30859 160.899 21.2838 160.899 44.5827C160.899 67.882 141.924 86.8567 118.625 86.8567ZM118.625 19.0707C104.568 19.0707 93.113 30.505 93.113 44.5827C93.113 58.6605 104.548 70.0949 118.625 70.0949C132.703 70.0949 144.137 58.6605 144.137 44.5827C144.137 30.505 132.703 19.0707 118.625 19.0707Z" fill="#027A48"/>
</g>
<defs>
<clipPath id="clip0_857_257">
<rect width="1024" height="202.559" fill="white" transform="translate(0 0.771484)"/>
</clipPath>
</defs>
</svg>
