<svg width="1024" height="203" viewBox="0 0 1024 203" fill="none" xmlns="http://www.w3.org/2000/svg">
<g clip-path="url(#clip0_806_486)">
<path d="M694.151 73.2708V153.375C694.158 153.682 694.103 153.987 693.988 154.272C693.873 154.557 693.702 154.815 693.485 155.032C693.267 155.249 693.008 155.419 692.722 155.532C692.437 155.646 692.132 155.7 691.825 155.692H662.911C662.604 155.7 662.298 155.646 662.013 155.532C661.728 155.419 661.468 155.249 661.251 155.032C661.033 154.815 660.862 154.557 660.747 154.272C660.633 153.987 660.577 153.682 660.584 153.375V80.0558C660.569 78.2121 659.829 76.4485 658.522 75.1474C657.216 73.8463 655.449 73.1126 653.605 73.1054H645.962V153.377C645.969 153.684 645.913 153.989 645.798 154.274C645.684 154.558 645.513 154.817 645.295 155.034C645.077 155.25 644.818 155.421 644.533 155.534C644.248 155.648 643.942 155.702 643.635 155.694H614.887C614.58 155.702 614.275 155.648 613.99 155.534C613.704 155.421 613.445 155.25 613.228 155.034C613.01 154.817 612.839 154.558 612.724 154.274C612.61 153.989 612.554 153.684 612.561 153.377H612.895V52.9139C612.906 51.9489 613.295 51.0266 613.978 50.3456C614.662 49.6647 615.586 49.2794 616.551 49.2729H670.058C676.434 49.2651 682.552 51.788 687.069 56.2874C691.587 60.7868 694.134 66.895 694.151 73.2708ZM932.275 74.7601V130.203C932.275 146.753 923.634 152.38 908.678 155.69C903.031 156.729 897.305 157.283 891.563 157.345C885.817 157.368 880.082 156.814 874.446 155.69C859.494 152.38 850.851 146.752 850.851 130.203V74.5947C850.851 58.0451 859.491 52.4178 874.446 49.1075C880.094 48.069 885.821 47.5154 891.563 47.4528C897.309 47.43 903.043 47.9843 908.678 49.1075C923.464 52.5832 932.108 58.0451 932.275 74.7601ZM899.872 80.0567C899.857 78.2128 899.116 76.4491 897.81 75.1478C896.503 73.8466 894.736 73.1128 892.892 73.1054H890.067C888.223 73.1128 886.457 73.8466 885.15 75.1478C883.843 76.449 883.102 78.2127 883.087 80.0567V124.745C883.102 126.588 883.844 128.352 885.15 129.653C886.457 130.954 888.224 131.688 890.067 131.695H892.892C894.736 131.688 896.503 130.954 897.809 129.653C899.116 128.352 899.857 126.588 899.872 124.745V80.0567ZM840.381 49.1075H827.752V29.581C827.759 29.2739 827.704 28.9687 827.589 28.6838C827.474 28.3989 827.303 28.1403 827.085 27.9236C826.868 27.7069 826.608 27.5367 826.323 27.4233C826.038 27.3099 825.732 27.2557 825.425 27.2639H798.008C797.701 27.2558 797.396 27.3101 797.11 27.4236C796.825 27.537 796.566 27.7073 796.349 27.924C796.131 28.1407 795.96 28.3993 795.846 28.6841C795.731 28.969 795.676 29.2741 795.683 29.581V131.527C795.7 137.903 798.247 144.011 802.765 148.511C807.282 153.01 813.401 155.533 819.777 155.524H840.381C840.688 155.532 840.993 155.478 841.279 155.365C841.564 155.251 841.823 155.081 842.041 154.864C842.259 154.648 842.43 154.389 842.544 154.104C842.659 153.819 842.714 153.514 842.707 153.207V134.175C842.714 133.868 842.659 133.563 842.544 133.278C842.43 132.993 842.259 132.734 842.041 132.518C841.823 132.301 841.564 132.131 841.279 132.017C840.993 131.904 840.688 131.85 840.381 131.858H834.733C832.889 131.851 831.122 131.117 829.815 129.816C828.509 128.514 827.767 126.751 827.752 124.907V77.905H840.381C840.688 77.9132 840.994 77.8589 841.279 77.7455C841.564 77.632 841.824 77.4617 842.041 77.2449C842.259 77.0281 842.43 76.7694 842.545 76.4844C842.659 76.1994 842.715 75.8941 842.707 75.587V51.4246C842.714 51.1176 842.659 50.8124 842.544 50.5275C842.43 50.2426 842.259 49.984 842.041 49.7673C841.823 49.5506 841.564 49.3804 841.279 49.2669C840.993 49.1535 840.688 49.0993 840.381 49.1075ZM785.214 51.4246V173.564C785.214 190.114 776.572 195.743 761.616 199.053C755.969 200.091 750.244 200.644 744.502 200.708C738.756 200.73 733.021 200.175 727.385 199.053C712.433 195.743 703.79 190.115 703.79 173.564V165.128C703.783 164.821 703.838 164.515 703.953 164.23C704.067 163.945 704.238 163.687 704.455 163.47C704.673 163.253 704.932 163.082 705.217 162.969C705.503 162.855 705.808 162.801 706.115 162.809H734.862C735.169 162.801 735.475 162.855 735.761 162.968C736.046 163.082 736.306 163.252 736.523 163.469C736.741 163.686 736.912 163.945 737.027 164.23C737.141 164.515 737.197 164.82 737.189 165.128V169.594C737.185 170.336 737.329 171.071 737.612 171.758C737.894 172.444 738.311 173.067 738.837 173.59C739.363 174.114 739.987 174.528 740.675 174.808C741.362 175.088 742.098 175.228 742.84 175.221H746.164C746.906 175.229 747.642 175.088 748.329 174.809C749.017 174.529 749.641 174.115 750.167 173.591C750.693 173.067 751.109 172.444 751.391 171.758C751.674 171.072 751.817 170.336 751.812 169.594V155.524H728.05C721.674 155.533 715.555 153.01 711.037 148.511C706.52 144.012 703.972 137.903 703.955 131.527V73.1054C703.972 66.7293 706.52 60.6209 711.037 56.1214C715.555 51.6219 721.674 49.0993 728.05 49.1075H782.885C783.497 49.1186 784.081 49.3659 784.515 49.7977C784.95 50.2295 785.2 50.8124 785.214 51.4246ZM751.812 73.1054H744.168C742.325 73.1128 740.558 73.8466 739.252 75.1476C737.945 76.4487 737.204 78.2122 737.189 80.0558V124.907C737.204 126.75 737.945 128.514 739.252 129.815C740.558 131.116 742.324 131.85 744.168 131.858H751.812V73.1054ZM999.906 49.2729H946.399C945.434 49.2794 944.51 49.6647 943.827 50.3456C943.143 51.0266 942.754 51.9489 942.743 52.9139V153.371H942.409C942.402 153.678 942.458 153.983 942.572 154.268C942.687 154.553 942.858 154.811 943.076 155.028C943.293 155.245 943.553 155.415 943.838 155.528C944.123 155.642 944.429 155.696 944.735 155.688H973.484C973.79 155.696 974.096 155.642 974.381 155.528C974.666 155.415 974.926 155.245 975.143 155.028C975.361 154.811 975.532 154.553 975.647 154.268C975.761 153.983 975.817 153.678 975.81 153.371V73.1054H983.454C985.297 73.1126 987.064 73.8463 988.37 75.1474C989.677 76.4485 990.418 78.2121 990.432 80.0558V153.371C990.426 153.678 990.481 153.983 990.596 154.268C990.711 154.553 990.882 154.811 991.1 155.028C991.317 155.245 991.576 155.415 991.862 155.528C992.147 155.642 992.453 155.696 992.76 155.688H1021.67C1021.98 155.696 1022.29 155.642 1022.57 155.528C1022.86 155.415 1023.12 155.245 1023.33 155.028C1023.55 154.811 1023.72 154.553 1023.84 154.268C1023.95 153.983 1024.01 153.678 1024 153.371V73.2666C1023.98 66.8916 1021.43 60.7844 1016.92 56.2859C1012.4 51.7874 1006.28 49.2651 999.906 49.2729ZM598.934 49.1059H569.356C569.049 49.0979 568.743 49.1523 568.458 49.2658C568.173 49.3793 567.914 49.5495 567.696 49.7661C567.479 49.9828 567.307 50.2413 567.193 50.5261C567.078 50.8109 567.023 51.116 567.029 51.423V153.371C567.023 153.678 567.078 153.983 567.193 154.268C567.307 154.552 567.479 154.811 567.696 155.028C567.914 155.244 568.173 155.415 568.458 155.528C568.743 155.642 569.049 155.696 569.356 155.688H598.769C599.076 155.696 599.382 155.642 599.667 155.528C599.952 155.414 600.211 155.244 600.428 155.028C600.646 154.811 600.817 154.552 600.931 154.268C601.046 153.983 601.101 153.678 601.094 153.371H601.261V51.4246C601.268 51.1177 601.212 50.8125 601.097 50.5277C600.983 50.243 600.811 49.9844 600.594 49.7678C600.376 49.5511 600.117 49.3809 599.832 49.2674C599.546 49.1539 599.241 49.0979 598.934 49.1059ZM554.235 49.1059H541.605V29.581C541.612 29.2741 541.556 28.9691 541.442 28.6843C541.327 28.3995 541.156 28.1409 540.939 27.9243C540.722 27.7076 540.463 27.5373 540.177 27.4238C539.892 27.3103 539.587 27.2559 539.28 27.2639H511.861C511.554 27.2558 511.249 27.3101 510.963 27.4235C510.678 27.537 510.419 27.7072 510.201 27.9239C509.984 28.1406 509.812 28.3992 509.698 28.684C509.583 28.9689 509.528 29.274 509.535 29.581V131.527C509.552 137.904 512.1 144.013 516.619 148.513C521.138 153.012 527.258 155.534 533.634 155.524H554.239C554.546 155.532 554.852 155.478 555.137 155.365C555.422 155.251 555.681 155.081 555.899 154.864C556.116 154.647 556.287 154.389 556.401 154.104C556.516 153.819 556.571 153.514 556.564 153.207V134.175C556.55 133.564 556.3 132.981 555.867 132.549C555.434 132.118 554.851 131.87 554.239 131.858H548.586C546.742 131.851 544.975 131.117 543.669 129.816C542.362 128.514 541.621 126.751 541.606 124.907V77.905H554.236C554.543 77.9131 554.848 77.8587 555.134 77.7452C555.419 77.6317 555.678 77.4613 555.895 77.2446C556.113 77.0278 556.284 76.769 556.398 76.4841C556.513 76.1992 556.568 75.894 556.561 75.587V51.4246C556.568 51.1177 556.512 50.8125 556.398 50.5276C556.283 50.2427 556.112 49.984 555.895 49.7673C555.677 49.5506 555.418 49.3804 555.133 49.267C554.847 49.1535 554.542 49.0976 554.235 49.1059ZM475.467 49.2729H421.962C420.997 49.2792 420.073 49.6644 419.389 50.3454C418.705 51.0264 418.316 51.9489 418.306 52.9139V153.371H417.972C417.965 153.678 418.021 153.983 418.135 154.268C418.25 154.553 418.421 154.811 418.639 155.028C418.856 155.245 419.115 155.415 419.401 155.528C419.686 155.642 419.991 155.696 420.298 155.688H449.046C449.353 155.696 449.659 155.642 449.944 155.528C450.229 155.415 450.489 155.245 450.706 155.028C450.924 154.811 451.095 154.553 451.209 154.268C451.324 153.983 451.38 153.678 451.373 153.371V73.1054H459.016C460.86 73.1126 462.627 73.8462 463.934 75.1473C465.24 76.4484 465.981 78.212 465.996 80.0558V153.371C465.989 153.678 466.045 153.983 466.159 154.268C466.274 154.553 466.445 154.811 466.663 155.028C466.88 155.245 467.139 155.415 467.425 155.528C467.71 155.642 468.015 155.696 468.322 155.688H497.236C497.543 155.696 497.848 155.642 498.133 155.528C498.419 155.415 498.678 155.245 498.896 155.028C499.113 154.811 499.284 154.553 499.399 154.268C499.514 153.983 499.569 153.678 499.562 153.371V73.2666C499.544 66.8916 496.996 60.7844 492.479 56.2859C487.962 51.7874 481.842 49.2651 475.467 49.2729ZM403.847 49.1059H375.102C374.795 49.0976 374.489 49.1518 374.204 49.2652C373.919 49.3786 373.659 49.5487 373.442 49.7653C373.224 49.9819 373.053 50.2405 372.939 50.5253C372.824 50.8101 372.768 51.1152 372.775 51.4221V131.693H365.131C363.287 131.686 361.52 130.953 360.214 129.651C358.907 128.35 358.167 126.587 358.152 124.743V51.4246C358.159 51.1177 358.103 50.8127 357.988 50.5279C357.874 50.2432 357.703 49.9847 357.485 49.7681C357.267 49.5515 357.008 49.3814 356.723 49.268C356.438 49.1546 356.132 49.1003 355.826 49.1084H326.912C326.605 49.1001 326.3 49.1543 326.015 49.2677C325.729 49.3811 325.47 49.5512 325.252 49.7678C325.035 49.9844 324.864 50.243 324.749 50.5278C324.634 50.8126 324.579 51.1177 324.586 51.4246V131.529C324.603 137.905 327.15 144.013 331.668 148.512C336.185 153.011 342.304 155.533 348.68 155.525H402.187C403.152 155.519 404.076 155.134 404.76 154.453C405.444 153.772 405.833 152.85 405.844 151.886V51.4246H406.178C406.185 51.1175 406.129 50.8122 406.014 50.5272C405.899 50.2422 405.728 49.9835 405.51 49.7669C405.292 49.5503 405.033 49.3802 404.747 49.267C404.462 49.1537 404.154 49.0973 403.847 49.1059ZM310.96 8.22931H279.219C278.912 8.2212 278.606 8.27552 278.321 8.38898C278.036 8.50243 277.777 8.67266 277.559 8.88933C277.342 9.106 277.17 9.3646 277.056 9.64945C276.941 9.9343 276.886 10.2394 276.892 10.5464V63.5037H251.307V10.5464C251.314 10.2394 251.258 9.9343 251.143 9.64945C251.029 9.3646 250.858 9.106 250.64 8.88933C250.423 8.67266 250.163 8.50243 249.878 8.38898C249.593 8.27552 249.287 8.2212 248.98 8.22931H217.239C216.933 8.2212 216.627 8.27552 216.342 8.38898C216.057 8.50243 215.797 8.67266 215.58 8.88933C215.362 9.106 215.191 9.3646 215.076 9.64945C214.962 9.9343 214.906 10.2394 214.913 10.5464V153.538C214.906 153.845 214.962 154.15 215.076 154.435C215.191 154.72 215.362 154.978 215.58 155.195C215.797 155.412 216.057 155.582 216.342 155.695C216.627 155.809 216.933 155.863 217.239 155.855H248.98C249.287 155.863 249.593 155.809 249.878 155.695C250.163 155.582 250.423 155.412 250.64 155.195C250.858 154.978 251.029 154.72 251.143 154.435C251.258 154.15 251.314 153.845 251.307 153.538V95.6139H276.897V153.538C276.89 153.845 276.945 154.15 277.06 154.435C277.174 154.72 277.346 154.978 277.563 155.195C277.781 155.412 278.04 155.582 278.325 155.695C278.611 155.809 278.916 155.863 279.223 155.855H310.964C311.27 155.862 311.575 155.808 311.86 155.694C312.145 155.58 312.403 155.41 312.62 155.193C312.837 154.977 313.008 154.718 313.122 154.434C313.237 154.149 313.292 153.844 313.285 153.538V10.5464C313.292 10.2395 313.237 9.93444 313.122 9.64965C313.007 9.36486 312.836 9.1063 312.619 8.88964C312.401 8.67298 312.142 8.50273 311.857 8.38923C311.572 8.27572 311.267 8.22131 310.96 8.22931Z" fill="#766D65"/>
<path d="M179.027 53.1964V149.469C178.897 150.589 178.515 151.664 177.91 152.614C177.305 153.565 176.492 154.366 175.533 154.957L156.232 166.097V36.5692L175.533 47.7069C176.501 48.2877 177.321 49.0862 177.928 50.039C178.534 50.9919 178.911 52.0729 179.027 53.1964ZM93.6727 202.179L116.467 189.043V126.523L93.6727 139.659V202.179ZM124.953 85.4536L62.5565 121.538V189.046L85.1845 202.182V135.17L124.95 112.224V184.059L147.743 171.089V31.58L124.953 18.6104V85.4536ZM85.187 0.486328L62.5598 13.6221V76.1418L85.187 63.0061V0.486328ZM116.468 13.6271L93.6727 0.490504V67.4999L53.9079 90.442V18.6071L31.2799 31.747V171.086L53.9079 184.054V117.212L116.471 81.1277L116.468 13.6271ZM0 53.1956V149.469C0.11607 150.593 0.492275 151.673 1.09877 152.626C1.70527 153.578 2.52537 154.376 3.49402 154.956L22.7942 166.097V36.5683L3.49402 47.7069C2.53452 48.298 1.72158 49.0991 1.11638 50.0498C0.511186 51.0005 0.129483 52.0761 0 53.1956Z" fill="#5BA63C"/>
</g>
<defs>
<clipPath id="clip0_806_486">
<rect width="1024" height="201.696" fill="white" transform="translate(0 0.486328)"/>
</clipPath>
</defs>
</svg>
