<svg width="1025" height="212" viewBox="0 0 1025 212" fill="none" xmlns="http://www.w3.org/2000/svg">
<g clip-path="url(#clip0_768_894)">
<path d="M400.729 29.3868L351.377 206.995H339.852L288.134 31.1598V174.489C288.283 188.379 295.228 195.471 309.118 195.471H314.437V206.995H248.535V195.471H252.081C265.971 195.471 273.064 188.379 273.064 174.489V35.8882C272.919 21.9992 265.971 14.9062 252.081 14.9062H248.535V3.36183H314.14L353.151 145.528L392.604 3.36183H457.912V15.2022H454.367C440.476 15.497 433.534 22.2952 433.386 36.1839V174.489C433.534 188.379 440.476 195.471 454.367 195.471H457.912V206.995H377.383V195.471H379.748C393.638 195.471 400.729 188.379 400.729 174.489V29.3868Z" fill="#E20074"/>
<path d="M495.964 136.515C495.964 177.888 505.42 198.87 525.218 198.87C545.019 198.87 554.773 177.888 554.773 136.515C554.773 95.1406 545.019 74.1589 525.218 74.1589C505.42 74.1589 495.964 95.1406 495.964 136.515ZM589.052 136.515C589.052 176.705 566.889 211.281 525.218 211.281C483.551 211.281 461.682 176.705 461.682 136.515C461.682 96.323 483.551 61.747 525.218 61.747C566.889 61.747 589.052 96.323 589.052 136.515Z" fill="#E20074"/>
<path d="M640.747 135.923C640.747 155.132 644.589 196.505 671.187 196.505C696.307 196.505 699.261 155.428 699.261 135.923C699.261 116.418 697.193 75.3414 672.072 75.3414C645.475 75.3414 640.747 116.714 640.747 135.923ZM612.969 29.6827C612.821 19.044 608.83 14.9061 598.191 14.9061H594.203V3.36174H643.261V76.9664C651.386 66.6234 662.322 61.4513 676.357 61.4513C713.888 61.4513 733.395 93.3676 733.395 135.923C733.395 178.479 713.888 210.099 676.357 210.099C659.945 210.353 644.219 203.514 633.21 191.334L623.017 206.995H609.57C611.795 196.652 612.934 186.104 612.969 175.523V29.6827Z" fill="#E20074"/>
<path d="M796.643 180.695C796.789 191.334 800.78 195.471 811.419 195.471H815.998V206.995H746.994V195.471H751.576C762.215 195.471 766.352 191.334 766.352 180.695V92.3335C766.203 81.6946 762.215 77.557 751.576 77.557H748.474V66.0318H796.643V180.695Z" fill="#E20074"/>
<path d="M798.12 19.6346C798.423 29.7772 790.444 38.2438 780.303 38.5441C779.986 38.5543 779.671 38.5555 779.354 38.5488C768.907 38.6271 760.377 30.2223 760.298 19.7768C760.22 9.33037 768.624 0.797928 779.068 0.719273C779.214 0.718105 779.356 0.719269 779.502 0.7216C789.777 0.713734 798.115 9.03906 798.123 19.3147C798.123 19.4217 798.123 19.5289 798.12 19.6346Z" fill="#E20074"/>
<path d="M877.755 180.695C877.903 191.334 881.895 195.471 892.531 195.471H897.113V206.995H828.7V195.471H832.688C843.327 195.471 847.464 191.334 847.464 180.695V29.6828C847.318 19.0441 843.327 14.9062 832.688 14.9062H829.882V3.36183H877.755V180.695Z" fill="#E20074"/>
<path d="M991.242 124.102C990.653 90.1165 982.377 74.1589 967.01 74.1589C951.643 74.1589 942.629 91.4469 941.595 124.102H991.242ZM941.298 137.105C942.332 160.6 943.369 197.097 973.806 197.097C993.756 197.097 1003.8 180.695 1010.89 164.588L1023.01 170.943C1011.49 194.288 997.301 211.281 969.078 211.281C925.934 211.281 908.35 174.341 908.35 136.515C908.35 100.165 926.079 61.747 966.418 61.747C1009.86 61.747 1023.31 103.416 1024.2 137.105H941.298Z" fill="#E20074"/>
<path d="M130.522 137.76H171.248V97.0331H130.522V137.76ZM0.195312 3.36183V72.5967H12.4135V70.5606C12.4135 37.9787 30.7404 17.6158 65.3584 17.6158H67.3941V164.232C67.3941 184.595 59.2497 192.741 38.886 192.741H32.7773V206.995H138.667V192.741H132.558C112.195 192.741 104.049 184.595 104.049 164.232V17.6158H106.085C140.703 17.6158 159.03 37.9787 159.03 70.5606V72.5967H171.248V3.36183H0.195312ZM40.9217 137.76H0.195312V97.0331H40.9217V137.76Z" fill="#E20074"/>
</g>
<defs>
<clipPath id="clip0_768_894">
<rect width="1024" height="210.563" fill="white" transform="translate(0.195312 0.71875)"/>
</clipPath>
</defs>
</svg>
