<svg width="547" height="513" viewBox="0 0 547 513" fill="none" xmlns="http://www.w3.org/2000/svg">
<g clip-path="url(#clip0_742_99)">
<path fill-rule="evenodd" clip-rule="evenodd" d="M309.297 33.4464C308.932 32.2617 308.932 32.2617 308.932 31.2592C308.594 23.4896 311.354 15.9036 316.606 10.1678C321.858 4.43188 329.172 1.01522 336.941 0.668332C344.702 0.362838 352.27 3.13401 357.999 8.37914C363.727 13.6243 367.153 20.9191 367.532 28.6771C367.887 36.4257 365.153 43.9986 359.93 49.7338C354.707 55.469 347.423 58.8979 339.675 59.2679C338.855 59.3895 337.791 59.2679 336.607 59.2679C336.121 59.3895 335.392 59.3894 334.905 59.9363C333.204 62.488 339.158 62.1539 334.754 73.3027C334.754 73.3027 334.754 74.4571 334.389 75.6418C334.025 79.8948 331.959 92.7144 331.473 99.7317C332.354 100.947 332.688 101.251 332.354 103.681C331.687 109.127 330.775 114.539 329.62 119.903C328.405 124.156 326.703 125.189 325.154 126.039C322.936 135.092 322.268 142.595 316.618 153.532C315.949 161.916 315.251 164.164 313.398 168.235C312.881 180.386 313.701 182.209 304.861 201.681C302.431 210.795 304.345 217.083 306.38 226.622C308.446 236.373 314.765 240.626 315.433 250.712C316.952 274.133 315.949 290.355 310.481 308.643L314.582 319.214C320.051 321.766 333.356 329.118 325.519 339.72C335.938 345.492 351.796 351.689 364.403 363.445C369.749 367.911 375.035 373.014 379.987 378.634C389.586 380.366 388.371 381.065 395.358 385.652C415.863 398.957 448.49 425.265 467.446 443.553C470.848 445.588 471.911 446.955 474.615 448.504C474.919 449.203 475.131 449.537 474.919 449.719C474.129 451.907 474.129 451.907 473.096 453.972C474.281 455.187 475.982 456.19 477.167 457.223C478.382 457.375 478.382 457.04 480.083 456.706C482.483 458.924 485.551 460.807 486.584 460.807C489.804 460.139 489.136 460.655 492.204 457.77C493.085 456.706 494.756 457.77 494.756 457.77C495.971 456.554 498.188 454.155 501.257 452.423C503.657 451.056 508.244 451.056 508.244 451.056C509.823 451.238 509.459 452.605 509.125 453.274C507.393 453.972 503.657 455.005 501.621 456.554C497.004 460.807 493.237 467.278 493.237 467.278C502.32 466.275 507.94 468.645 515.079 467.977C519.21 467.825 522.278 468.159 526.531 465.243C526.531 465.243 530.784 462.326 534.582 460.99C538.166 459.471 541.569 460.473 544.606 462.873C546.702 465.425 548.221 465.425 544.606 468.827C543.27 470.194 541.569 471.744 539.138 473.992C535.098 477.728 529.63 482.832 523.949 487.115C518.941 490.825 513.579 494.03 507.94 496.684C497.672 503.671 500.042 501.97 492.052 508.653C491.141 509.321 488.285 511.023 487.1 511.873C483.85 513.757 482.999 512.055 481.116 508.289C481.116 508.289 480.265 506.922 478.686 504.036C477.167 500.785 475.952 497.049 476.498 497.049C474.615 496.836 466.443 486.598 466.443 484.594C464.529 484.199 457.208 476.695 457.026 475.176L450.525 469.708C442.839 471.045 441.108 466.275 421.332 451.238C418.901 451.056 415.347 449.719 410.395 445.952C401.343 438.267 379.805 421.194 376.25 419.128C372.301 417.093 367.714 415.058 364.615 412.627C360.18 411.959 357.993 411.109 355.563 410.592C353.132 409.924 351.31 408.861 345.659 408.192C336.455 406.825 326.886 402.724 317.985 397.955C313.732 395.737 309.965 394.704 306.38 392.821C298.178 389.054 291.009 385.652 285.541 384.315C279.491 382.861 273.681 380.549 268.286 377.45C266.433 376.417 265.4 375.627 264.215 375.232C261.481 374.564 259.567 375.414 258.383 375.9C251.396 379.181 245.077 382.067 239.062 385.317C233.594 388.052 228.491 390.968 223.022 394.006C217.712 396.777 212.301 399.351 206.8 401.722C206.8 401.722 190.579 409.407 181.526 412.293C173.627 418.278 157.618 428.88 147.897 434.014C143.097 436.231 133.71 441.669 129.427 442.884C126.997 444.737 118.157 450.722 111.322 455.673C105.854 459.44 101.904 462.691 101.904 462.691C98.6844 465.243 98.8363 466.64 93.3986 464.058C92.0304 464.958 90.7121 465.931 89.4494 466.974C85.1964 469.86 85.0142 469.192 83.313 469.009C80.2448 471.44 79.8803 470.225 77.3285 472.959C75.4754 475.51 77.3285 474.812 73.7438 476.179C72.8933 476.361 72.5287 477.394 72.0123 477.88C69.1567 480.098 68.9745 486.781 62.1394 487.115C58.0383 489.849 58.8889 493.282 56.1549 492.917C56.1549 496.016 50.6868 499.904 49.6539 499.904C40.7835 502.82 40.4189 496.32 30.0296 500.967C28.6626 501.453 26.5968 503.155 24.0451 503.519C19.4276 504.188 13.9595 503.337 10.5571 500.421C6.73126 496.85 3.40058 492.784 0.653831 488.33C-0.895459 484.381 0.137397 482.011 5.60548 478.244C7.82309 476.877 8.15725 475.845 11.9241 475.693C13.7468 474.964 13.2912 475.996 16.4809 474.964C18.4251 474.478 18.4251 474.812 22.3439 474.812C23.1945 474.295 24.3792 474.143 26.1108 473.445C29.1486 472.412 32.0649 471.561 32.0649 471.561C32.0649 471.561 32.9155 470.863 35.8318 471.257C38.2013 470.194 40.9657 468.827 42.3328 468.311C41.9682 464.544 42.4846 464.544 44.1555 463.025C46.5857 461.142 46.8895 461.506 48.6514 462.721C49.3198 462.509 49.8362 462.326 49.4716 461.658C49.1679 459.44 47.6186 458.408 48.1046 454.155C47.4363 452.423 46.2515 450.236 46.5857 448.869C46.8895 447.502 47.4363 446.773 48.2869 446.469C49.1679 446.104 49.6539 446.651 50.0184 447.137C50.869 448.17 51.5374 451.238 51.5374 451.238C51.7196 454.823 52.7525 459.137 56.1549 456.706C58.1902 454.823 58.7066 449.355 62.6558 450.54L65.5721 453.122C68.1239 450.904 68.1239 450.904 69.825 449.871C69.825 449.871 67.3948 447.654 69.4605 445.77C70.8275 444.585 72.7414 443.735 75.7792 440.454C84.1636 431.584 88.5988 427.695 97.4692 420.495C113.223 408.572 130.604 398.966 149.082 391.97C153.517 386.684 157.588 383.282 166.853 382.735C178.306 364.326 199.814 348.226 204.765 345.674C208.836 338.687 210.537 339.355 215.853 338.17C219.954 334.92 221.169 334.92 222.84 331.67C224.754 324.683 219.438 305.544 234.475 305.028C237.877 300.593 236.845 301.625 240.429 297.494C238.643 292.589 237.439 287.491 236.845 282.305C236.693 281.819 230.89 277.536 232.895 272.219C229.711 268.155 226.981 263.754 224.754 259.096C224.101 259.077 223.455 258.954 222.84 258.731C222.172 258.579 221.169 258.579 220.106 258.579C217.737 264.534 215.155 264.898 210.902 266.265C203.003 281.819 200.269 288.472 179.126 300.957C170.62 310.01 167.521 320.399 167.521 320.217C166.232 323.318 166.103 326.78 167.157 329.968C165.79 333.219 166.337 333.735 166.337 333.735C166.64 335.102 168.038 336.955 169.557 337.138C171.957 337.836 174.691 337.836 174.357 340.722C174.022 344.155 169.405 343.456 167.157 342.94C158.803 341.421 161.537 335.953 156.069 337.654C151.786 340.236 150.115 348.226 143.432 347.071C142.581 346.373 142.915 344.823 143.614 343.456C144.464 341.634 146.166 339.872 145.315 339.203C140.88 340.418 132.161 342.94 132.161 342.94C128.06 344.155 123.625 341.755 127.696 339.173C129.609 338.505 132.343 337.654 135.746 335.588C135.746 335.588 137.629 333.401 134.014 334.404C129.922 335.632 125.638 336.096 121.377 335.771C121.377 335.771 113.57 334.586 112.506 334.069C111.656 333.401 110.653 330.819 113.023 331.032C118.78 330.943 124.513 330.251 130.126 328.966C133.012 327.903 138.632 324.713 141.73 323.315C141.73 323.315 145.163 318.546 147.198 317.544C150.449 314.081 152.97 312.076 155.704 308.461C158.438 302.992 161.537 294.487 170.893 280.938C175.636 273.866 181.081 267.291 187.146 261.314C187.146 261.314 189.029 251.046 197.566 243.907C199.479 239.654 202.335 234.49 205.433 229.872C206.605 228.235 207.681 226.531 208.654 224.769C211.388 220.819 214.304 213.316 224.389 212.313C224.389 212.313 228.855 209.215 230.374 206.997C232.926 204.78 232.622 201.347 234.627 199.129C231.407 195.909 223.539 189.742 223.022 181.723C222.69 177.838 223.242 173.929 224.636 170.288C226.03 166.648 228.231 163.37 231.073 160.701C237.027 155.081 243.163 152.347 250.697 152.863C260.084 154.534 261.815 157.633 264.519 160.701C267.253 163.769 268.468 161.916 269.471 165.136C277.339 167.354 277.005 166.503 276.67 172.305C278.037 174.037 279.891 175.586 279.708 178.806C282.29 173.49 282.989 172.488 290.158 166.685C292.042 161.916 293.196 157.116 294.715 152.165C296.295 147.729 298.178 143.112 299.393 139.709C298.178 129.806 301.216 128.257 305.347 119.538C304.679 118.354 304.861 118.019 305.165 116.136C306.897 110.303 309.297 102.982 310.816 98.0306C310.816 98.0306 311.332 96.1167 313.398 96.1167C315.22 89.9803 318.167 78.5277 318.835 75.976C320.719 69.6573 319.716 67.2574 318.532 63.5209C318.167 62.3058 318.349 60.7868 317.62 59.3894C315.526 55.3188 313.6 51.1636 311.848 46.9344C310.998 44.7168 309.418 36.1805 309.418 36.1805C309.297 34.297 309.297 33.4464 309.297 33.4464Z" fill="#111111"/>
</g>
<defs>
<clipPath id="clip0_742_99">
<rect width="546.785" height="512" fill="white" transform="translate(0 0.645508)"/>
</clipPath>
</defs>
</svg>
