<svg width="1025" height="268" viewBox="0 0 1025 268" fill="none" xmlns="http://www.w3.org/2000/svg">
<g clip-path="url(#clip0_814_549)">
<path d="M442.934 178.5L431.892 212.633C431.744 213.181 431.413 213.661 430.953 213.993C430.493 214.326 429.933 214.49 429.366 214.459H402.674C401.07 214.459 400.592 213.554 400.848 212.206L446.928 79.4292C448.455 74.9054 449.217 70.1582 449.18 65.3836C449.157 64.9888 449.288 64.6004 449.546 64.3008C449.804 64.0012 450.169 63.8141 450.563 63.7793H487.375C488.518 63.7793 488.979 64.0012 489.218 65.1617L541.441 212.428C541.885 213.571 541.663 214.476 540.298 214.476H510.432C509.885 214.569 509.323 214.456 508.853 214.16C508.384 213.864 508.041 213.405 507.889 212.872L496.147 178.585L442.934 178.5ZM487.614 149.726C483.108 134.537 473.824 106.684 469.558 90.3517H469.336C465.649 105.712 457.389 130.97 451.28 149.726H487.614Z" fill="#EB1000"/>
<path d="M545.06 158.26C545.098 149.79 546.9 141.421 550.351 133.687C553.802 125.952 558.827 119.021 565.105 113.336C571.383 107.65 578.776 103.335 586.814 100.665C594.852 97.995 603.357 97.0287 611.789 97.8276C613.616 97.8276 615.919 98.0836 619.367 98.3054V52.8575C619.342 52.6409 619.367 52.4216 619.439 52.2159C619.511 52.0101 619.628 51.8232 619.783 51.669C619.937 51.5149 620.124 51.3975 620.329 51.3255C620.535 51.2535 620.754 51.2288 620.971 51.2533H649.984C651.127 51.2533 651.366 51.697 651.366 52.6357V188.638C651.306 194.25 651.614 199.86 652.288 205.431C652.288 206.575 652.066 207.036 650.684 207.514C636.339 213.59 620.917 216.712 605.338 216.695C597.388 217.47 589.365 216.506 581.825 213.87C574.285 211.234 567.409 206.989 561.674 201.429C555.939 195.869 551.482 189.128 548.613 181.674C545.744 174.219 544.532 166.23 545.06 158.26ZM619.384 125.578C616.633 124.679 613.741 124.291 610.851 124.434C606.509 124.119 602.149 124.73 598.061 126.227C593.973 127.725 590.25 130.074 587.139 133.119C584.028 136.164 581.599 139.836 580.014 143.891C578.43 147.945 577.725 152.291 577.947 156.639C577.355 160.889 577.722 165.219 579.02 169.31C580.317 173.401 582.513 177.15 585.446 180.283C588.38 183.416 591.976 185.854 595.973 187.417C599.97 188.981 604.266 189.631 608.547 189.321C612.2 189.472 615.852 189.005 619.35 187.938L619.384 125.578Z" fill="#EB1000"/>
<path d="M783.119 156.621C783.587 164.326 782.479 172.046 779.864 179.308C777.248 186.571 773.18 193.224 767.907 198.862C762.634 204.499 756.268 209.003 749.196 212.097C742.124 215.192 734.496 216.812 726.777 216.86C719.058 216.907 711.41 215.381 704.301 212.374C697.191 209.367 690.77 204.942 685.428 199.37C680.086 193.798 675.935 187.196 673.23 179.966C670.526 172.736 669.323 165.031 669.696 157.321C669.243 149.573 670.396 141.815 673.084 134.534C675.771 127.253 679.935 120.605 685.313 115.01C690.691 109.414 697.167 104.99 704.336 102.015C711.504 99.0408 719.211 97.5803 726.971 97.7252C734.637 97.5175 742.262 98.9208 749.352 101.844C756.442 104.768 762.839 109.146 768.131 114.697C773.423 120.248 777.492 126.848 780.073 134.069C782.655 141.291 783.692 148.974 783.119 156.621ZM702.122 156.877C702.122 177.186 711.56 190.003 726.954 190.003C740.317 190.003 750.42 178.501 750.42 157.321C750.42 139.265 743.064 124.417 725.588 124.417C712.259 124.417 702.122 136.381 702.122 156.877Z" fill="#EB1000"/>
<path d="M831.502 51.2529C833.345 51.2529 833.755 51.4748 833.755 53.0961V100.268C840.074 98.5894 846.588 97.7628 853.125 97.8101C860.434 97.4482 867.738 98.6135 874.572 101.232C881.405 103.85 887.619 107.863 892.815 113.016C898.011 118.169 902.076 124.348 904.752 131.159C907.427 137.97 908.653 145.265 908.353 152.576C908.424 161.441 906.65 170.224 903.142 178.366C899.634 186.507 894.47 193.83 887.978 199.867C881.487 205.905 873.809 210.525 865.435 213.434C857.061 216.342 848.172 217.476 839.336 216.763C827.095 216.85 814.912 215.072 803.206 211.49C802.8 211.267 802.458 210.942 802.216 210.547C801.973 210.152 801.838 209.7 801.824 209.237V52.8572C801.824 51.7137 802.268 51.2529 803.428 51.2529H831.502ZM847.306 124.877C842.729 124.819 838.167 125.44 833.772 126.721V189.081C836.568 189.735 839.434 190.045 842.305 190.003C846.854 190.263 851.406 189.538 855.65 187.878C859.893 186.218 863.728 183.662 866.894 180.385C870.059 177.108 872.481 173.186 873.993 168.887C875.504 164.589 876.071 160.015 875.653 155.478C876.194 151.533 875.855 147.519 874.66 143.721C873.465 139.924 871.444 136.438 868.742 133.514C866.04 130.591 862.725 128.301 859.033 126.811C855.342 125.321 851.365 124.666 847.391 124.895L847.306 124.877Z" fill="#EB1000"/>
<path d="M953.22 165.512C954.364 178.619 963.58 189.405 986.124 189.405C995.817 189.59 1005.45 187.796 1014.42 184.132C1015.12 183.654 1015.8 183.91 1015.8 185.275V207.12C1015.8 208.827 1015.36 209.373 1014.2 209.902C1003.16 214.906 991.099 217.244 978.991 216.729C971.166 217.409 963.287 216.373 955.905 213.692C948.523 211.011 941.815 206.751 936.25 201.209C930.685 195.667 926.398 188.976 923.687 181.605C920.976 174.234 919.907 166.359 920.555 158.532C919.909 150.819 920.868 143.055 923.37 135.729C925.872 128.404 929.863 121.676 935.093 115.969C940.322 110.262 946.676 105.699 953.756 102.568C960.835 99.437 968.485 97.8053 976.226 97.7757C982.759 97.5358 989.27 98.6646 995.342 101.09C1001.41 103.515 1006.91 107.182 1011.48 111.857C1016.05 116.532 1019.59 122.111 1021.88 128.236C1024.17 134.36 1025.15 140.896 1024.76 147.422C1024.92 152.568 1024.54 157.716 1023.62 162.782C1023.59 163.257 1023.39 163.705 1023.05 164.041C1022.72 164.378 1022.27 164.579 1021.79 164.608C1013.91 165.362 1005.99 165.67 998.071 165.529L953.22 165.512ZM983.138 143.189C986.978 143.33 990.823 143.182 994.64 142.746V141.039C994.548 138.566 993.968 136.135 992.933 133.887C991.897 131.639 990.428 129.617 988.609 127.939C986.789 126.261 984.657 124.959 982.332 124.108C980.008 123.258 977.538 122.875 975.065 122.983C969.482 122.895 964.078 124.953 959.966 128.731C955.854 132.509 953.348 137.721 952.964 143.292L983.138 143.189Z" fill="#EB1000"/>
<path d="M190.709 0.770508H302.034V267.331L190.709 0.770508Z" fill="#EB1000"/>
<path d="M112.272 0.770508H0.845215V267.331L112.272 0.770508Z" fill="#EB1000"/>
<path d="M151.491 99.0049L222.419 267.314H175.947L154.733 213.708H102.817L151.491 99.0049Z" fill="#EB1000"/>
</g>
<defs>
<clipPath id="clip0_814_549">
<rect width="1024" height="266.561" fill="white" transform="translate(0.845215 0.770508)"/>
</clipPath>
</defs>
</svg>
