<svg width="526" height="513" viewBox="0 0 526 513" fill="none" xmlns="http://www.w3.org/2000/svg">
<g clip-path="url(#clip0_820_400)">
<path d="M432.137 0.0507812H92.9915C41.6337 0.0507812 0 41.6845 0 93.0422V419.059C0 470.417 41.6337 512.051 92.9915 512.051H432.137C483.495 512.051 525.128 470.417 525.128 419.059V93.0422C525.128 41.6845 483.495 0.0507812 432.137 0.0507812Z" fill="#012D2D"/>
<path d="M252.171 317.875V354.153C252.316 355.163 252.128 356.192 251.634 357.085C251.14 357.977 250.369 358.684 249.436 359.098C242.538 361.491 235.387 363.084 228.125 363.846C218.946 364.931 209.71 365.457 200.468 365.421C187.345 365.488 174.266 363.892 161.543 360.673C149.627 357.685 138.266 352.81 127.891 346.232C117.889 339.879 109.07 331.83 101.831 322.448C94.2997 312.593 88.5734 301.481 84.918 289.628C80.6911 275.963 78.6168 261.724 78.7696 247.421C78.7696 223.702 83.9406 202.858 94.2827 184.887C104.618 166.937 119.941 152.373 138.394 142.964C157.356 132.987 180.017 127.998 206.376 127.998C215.498 127.914 224.617 128.382 233.682 129.398C239.99 130.086 246.195 131.511 252.171 133.643C252.817 134.124 253.322 134.77 253.634 135.513C253.945 136.255 254.052 137.068 253.944 137.866V176.616C253.944 178.804 253.112 179.439 251.471 178.804C244.869 175.779 237.87 173.709 230.685 172.656C222.181 171.321 213.583 170.669 204.975 170.708C189.236 170.708 175.736 173.881 164.475 180.226C153.454 186.311 144.404 195.421 138.394 206.483C132.033 218.702 128.878 232.336 129.226 246.108C129.014 255.922 130.494 265.7 133.602 275.012C136.32 282.848 140.434 290.127 145.745 296.498C150.649 302.384 156.626 307.285 163.359 310.939C169.973 314.478 177.019 317.14 184.32 318.86C191.412 320.592 198.682 321.481 205.982 321.508C214.909 321.508 222.837 321.158 229.766 320.457C236.427 319.798 242.991 318.373 249.327 316.213C250.246 315.512 250.968 315.337 251.515 315.687C252.062 316.038 252.171 316.694 252.171 317.875Z" fill="#03F2C4"/>
<path d="M358.838 183.305C374.329 183.305 387.596 185.654 398.638 190.351C409.103 194.639 418.489 201.193 426.12 209.54C433.303 217.488 438.863 226.765 442.486 236.847C446.169 247.13 448.021 257.979 447.956 268.901C448.308 283.502 445.228 297.981 438.964 311.174C433.208 322.947 424.868 333.268 414.567 341.369C404.208 349.494 392.446 355.65 379.865 359.53C367.032 363.495 353.671 365.487 340.24 365.437C339.296 365.43 338.354 365.372 337.417 365.262C336.257 365.262 334.966 365.087 333.544 365.087V424.952C333.587 425.348 333.546 425.748 333.426 426.128C333.305 426.507 333.107 426.857 332.843 427.156C332.58 427.454 332.257 427.694 331.895 427.861C331.534 428.028 331.142 428.118 330.743 428.125C327.228 428.358 323.056 428.708 318.228 429.175C313.414 429.656 308.776 430.116 304.312 430.597C299.848 431.078 295.976 431.407 292.694 431.647C290.68 431.725 288.676 431.959 286.698 432.347C285.298 432.347 284.51 431.407 284.51 429.547V222.756C284.51 221.115 284.51 218.752 284.335 215.71C284.16 212.669 284.116 209.671 283.985 206.717C283.926 204.42 283.751 202.127 283.46 199.847C283.374 199.37 283.473 198.877 283.737 198.471C284.002 198.064 284.411 197.774 284.882 197.659C290.717 195.544 297.463 193.429 305.122 191.314C312.758 189.126 321.094 187.331 330.131 185.668C339.61 184.023 349.217 183.233 358.838 183.305ZM354.593 224.878C350.934 224.854 347.277 225.095 343.653 225.6C340.206 226.121 336.793 226.852 333.435 227.788V324.062C334.857 324.28 336.673 324.455 338.905 324.587C341.137 324.718 342.953 324.762 344.353 324.762C352.946 324.713 361.44 322.919 369.319 319.489C377.538 315.989 384.568 310.183 389.558 302.772C394.97 294.997 397.675 284.786 397.675 272.14C397.675 257.1 393.912 245.475 386.385 237.262C378.858 229.05 368.29 224.914 354.681 224.856L354.593 224.878Z" fill="#03F2C4"/>
</g>
<defs>
<clipPath id="clip0_820_400">
<rect width="525.128" height="512" fill="white" transform="translate(0 0.0507812)"/>
</clipPath>
</defs>
</svg>
