<svg width="513" height="513" viewBox="0 0 513 513" fill="none" xmlns="http://www.w3.org/2000/svg">
<g clip-path="url(#clip0_9_1949)">
<path d="M512.104 0.801758H0.0940247V512.822H512.104V0.801758Z" fill="#575757"/>
<path d="M247.271 456.751C227.479 455.962 208.552 452.495 190.117 446.281C129.149 425.731 81.4373 377.702 63.1173 318.421C55.2218 292.883 53.0553 264.478 56.8587 236.354C60.5692 208.915 70.4617 182.839 86.2007 159.01C98.2697 140.737 115.339 122.733 133.429 109.194C170.32 81.5844 219.373 66.7044 265.809 69.0374C291.689 70.3375 315.748 75.8024 338.915 85.6434C347.109 89.1244 358.939 95.3279 366.611 100.168C380.761 109.096 388.978 115.666 401.093 127.741C414.347 140.952 423.221 152.017 431.491 165.647C438.699 177.526 445.59 192.797 449.72 206.044C451.319 211.175 454.162 222.5 455.405 228.697C457.796 240.614 458.105 244.419 458.11 262.009C458.116 280.524 457.647 286.422 455.193 298.767C445.866 345.687 419.613 386.934 380.321 416.407C357.507 433.519 330.294 445.942 301.774 452.265C285.06 455.971 266.353 457.511 247.276 456.75L247.271 456.751ZM212.171 377.965C212.171 377.439 212.097 375.909 212.008 374.565L211.846 372.123L207.145 371.86C203.097 371.634 202.348 371.526 201.76 371.088C199.736 369.577 200.292 365.018 204.009 352.631C204.873 349.752 207.346 341.31 209.506 333.869C211.665 326.428 214.706 316.033 216.263 310.768C217.82 305.503 220.458 296.486 222.125 290.73C223.791 284.973 225.739 278.33 226.453 275.966C227.167 273.601 229.711 264.929 232.107 256.694C237.055 239.687 240.27 228.971 241.051 226.883C241.57 225.497 241.599 225.469 242.049 225.929C242.304 226.19 245.895 233.296 250.029 241.719C254.164 250.143 263.118 268.292 269.927 282.05C287.115 316.78 307.776 358.628 313.188 369.672L317.724 378.929L329.083 378.84C335.33 378.791 340.698 378.644 341.012 378.513C341.573 378.279 341.554 378.217 339.64 374.196C338.572 371.951 331.496 357.595 323.916 342.292C275.229 243.999 262.696 218.432 256.027 203.812C251.324 193.503 249.124 189.005 248.313 188.05C247.483 187.072 246.681 186.986 245.942 187.794C244.743 189.107 241.838 197.857 236.555 216.064C234.499 223.154 230.018 238.489 226.599 250.141C219.96 272.77 218.081 279.178 212.269 299.024C210.234 305.974 207.472 315.393 206.131 319.955C204.79 324.518 202.098 333.765 200.148 340.504C195.844 355.381 194.012 361.393 192.76 364.754C190.622 370.488 190.187 371.083 187.838 371.493C186.949 371.647 185.428 371.775 184.456 371.775C182.257 371.778 180.907 372.139 180.401 372.862C179.979 373.464 179.836 377.742 180.218 378.343C180.424 378.667 182.685 378.717 203.558 378.862L212.173 378.921L212.173 377.964L212.171 377.965ZM248.922 172.375C253.25 171.452 257.383 167.432 258.36 163.196C258.725 161.61 258.685 158.22 258.283 156.716C257.432 153.535 255.014 150.425 252.244 148.948C248.433 146.917 242.788 146.919 238.972 148.953C232.989 152.142 230.816 160.042 234.184 166.361C236.883 171.426 242.545 173.737 248.922 172.376L248.922 172.375Z" fill="#F0F0F0"/>
<path d="M239.126 148.955C230.46 153.498 230.529 166.778 239.336 171.251C245.347 174.326 253.035 172.369 256.599 166.917C260.653 160.837 258.416 152.17 251.916 148.885C248.352 147.068 242.691 147.068 239.126 148.955Z" fill="#00B6F0" stroke="#00B6F0" stroke-width="0.297041"/>
<path d="M245.766 188.165C244.927 189.283 241.363 199.767 238.637 209.342C236.54 216.611 231.578 233.804 227.105 248.831C225.707 253.654 223.051 262.739 221.164 269.1C219.347 275.46 216.691 284.546 215.223 289.368C213.825 294.191 211.169 303.277 209.282 309.637C207.465 315.997 204.809 325.083 203.341 329.906C201.944 334.728 199.358 343.535 197.68 349.475C193.557 363.943 191.18 370.373 189.643 371.142C188.944 371.561 187.196 371.841 185.729 371.841C180.627 371.841 179.858 372.4 180.067 375.615L180.277 378.481L196.212 378.69L212.148 378.83L211.938 375.545L211.728 372.19L206.626 371.981C202.013 371.771 201.454 371.631 200.755 370.094C199.847 368.137 200.755 362.825 203.341 354.368C204.25 351.502 206.626 343.465 208.583 336.545C210.54 329.626 213.196 320.47 214.524 316.277C215.782 312.013 218.438 302.927 220.465 296.008C222.422 289.089 225.078 279.933 226.406 275.739C227.664 271.476 230.32 262.39 232.347 255.471C238.287 234.713 240.943 226.186 241.502 225.487C241.852 225.138 242.691 226.256 243.459 227.933C244.158 229.611 256.879 255.401 271.626 285.175C286.373 314.949 302.868 348.217 308.179 359.121L317.894 378.83H329.636C336.066 378.83 341.378 378.551 341.378 378.271C341.378 377.991 336.136 367.228 329.776 354.368C288.68 271.686 262.051 217.519 257.578 207.595C255.551 203.191 252.755 197.041 251.357 193.966C248.282 187.326 247.303 186.278 245.766 188.165Z" fill="#575757"/>
</g>
<defs>
<clipPath id="clip0_9_1949">
<rect width="512" height="512" fill="white" transform="translate(0.100586 0.800781)"/>
</clipPath>
</defs>
</svg>
