<svg width="526" height="513" viewBox="0 0 526 513" fill="none" xmlns="http://www.w3.org/2000/svg">
<g clip-path="url(#clip0_820_422)">
<path d="M504.016 21.9258H22.6482V490.165H504.016V21.9258Z" fill="#002623"/>
<path fill-rule="evenodd" clip-rule="evenodd" d="M0.769287 0.0507812V512.051H525.898V0.0507812H0.769287ZM22.6496 21.9311H504.017V490.17H22.6496V21.9311Z" fill="#B4F8F2"/>
<path fill-rule="evenodd" clip-rule="evenodd" d="M142.993 356.265C142.993 358.015 142.337 357.796 140.586 357.796H108.641C106.453 357.796 105.797 357.14 105.797 354.952V125.208C105.797 123.458 106.453 121.926 107.985 121.926C125.27 121.27 140.805 120.832 166.843 120.832C217.168 120.832 247.581 144.9 247.581 188.442C247.581 224.326 223.513 244.456 203.602 251.895C213.886 269.618 248.456 333.29 259.615 354.514C260.709 356.265 260.709 357.796 258.303 357.796H221.544C219.137 357.796 218.043 358.234 217.386 357.14C209.291 343.136 183.909 293.249 167.718 263.711H142.993V356.265ZM164.436 228.702C190.255 228.702 208.634 218.418 208.634 192.162C208.634 166.343 192.005 154.965 165.968 154.965C156.778 154.965 148.026 155.403 142.993 155.622V228.702H164.436ZM328.976 355.389C328.976 357.14 328.32 357.796 326.788 357.796H291.998C290.248 357.796 289.592 356.702 289.592 355.389V123.676C289.592 122.145 290.029 121.488 291.998 121.488H326.788C328.32 121.488 328.976 122.145 328.976 123.676V194.131C339.916 185.598 353.482 180.347 370.33 180.347C393.304 180.347 420.874 191.943 420.874 243.362V354.952C420.874 357.14 420.217 357.796 418.467 357.796H384.115C382.364 357.796 381.708 356.702 381.708 354.952V247.082C381.708 225.858 373.393 214.261 356.545 214.261C345.605 214.261 336.853 217.762 329.195 224.764V355.389H328.976Z" fill="#B4F8F2"/>
</g>
<defs>
<clipPath id="clip0_820_422">
<rect width="525.128" height="512" fill="white" transform="translate(0.769287 0.0507812)"/>
</clipPath>
</defs>
</svg>
