<svg width="1024" height="155" viewBox="0 0 1024 155" fill="none" xmlns="http://www.w3.org/2000/svg">
<g clip-path="url(#clip0_806_513)">
<path d="M31.1784 100.512C23.0739 100.512 15.6398 95.9411 12.0141 88.6595L0.223008 65.0774C-0.477754 63.6452 0.558155 61.9694 2.14249 61.9694H62.5298C70.6345 61.9694 78.0683 66.5703 81.6943 73.8216L93.4853 97.434C94.1859 98.8659 93.1502 100.542 91.5661 100.542H31.1784V100.512ZM120.358 113.369H17.9248L31.2698 140.089C34.8955 147.341 42.2992 151.941 50.4341 151.941H152.837L139.492 125.221C135.866 117.969 128.462 113.399 120.327 113.399M139.492 37.3209L152.837 10.6006H50.4341C42.3297 10.6006 34.8955 15.2012 31.2698 22.4526L17.9248 49.1729H120.327C128.432 49.1729 135.866 44.6027 139.492 37.3209Z" fill="#1751E8"/>
<path fill-rule="evenodd" clip-rule="evenodd" d="M986.86 93.3518V94.5705L1024 151.941H1005.02L973.915 102.035H954.928V151.941H938.997V0.455078H954.928V87.5022H973.305L1003.01 46.9186H1021.38L986.86 93.3518ZM280.433 87.289H225.104V137.195H291.554V151.911H208.742V10.5401H289.33V25.4999H225.104V72.5423H280.433V87.289ZM346.487 136.982H347.706L379.21 46.9186H396.79L357.791 151.911H336.799L297.617 46.9186H314.77L346.487 136.982ZM454.315 44.268C426.436 44.268 403.433 66.2656 403.433 99.8108C403.433 133.356 423.42 154.531 455.32 154.531C479.573 154.531 496.939 140.607 502.789 121.016L487.251 117.391C483.808 131.924 470.28 140.424 455.534 140.424C433.719 140.424 419.977 127.293 419.794 103.863H504.221V98.0135C504.221 66.5096 486.032 44.2984 454.345 44.2984L454.315 44.268ZM420.191 90.9143C421.409 71.1104 437.162 58.6183 454.315 58.6183C471.468 58.6183 486.824 69.1295 487.829 90.9143H420.191ZM540.691 64.4681H541.91V64.4376C544.926 55.541 555.224 44.2375 570.58 44.2375H577.466V60.2026H567.96C548.795 60.2026 540.904 75.7714 540.904 95.7584V151.911H524.939V46.8882H540.691V64.4681ZM667.648 78.4227V77.204C678.955 71.1405 685.627 60.6293 685.627 46.7055C685.627 26.1092 669.664 10.5401 642.817 10.5401H597.178V151.911H646.869C670.698 151.911 690.501 137.165 690.501 111.724C690.501 91.7369 677.157 81.6217 667.68 78.3919L667.648 78.4227ZM613.54 25.1038H642.817C657.965 25.1038 668.868 34.0004 668.868 47.9243C668.868 61.848 658.177 71.7499 642.207 71.7499H613.54V25.1038ZM644.037 137.591H613.54V85.4911H642.207C658.568 85.4911 673.53 92.7733 673.53 111.358C673.53 129.944 660.797 137.621 644.037 137.621V137.591ZM788.975 63.8588H790.188V46.9187H806.337V151.911H790.188V135.336H789.578C786.958 139.602 777.269 154.531 754.448 154.531C724.346 154.531 703.144 131.894 703.144 99.5976C703.144 67.3014 723.344 44.268 753.235 44.268C775.015 44.268 785.957 58.405 788.975 63.8588ZM719.505 99.8108C719.505 124.246 735.044 140.211 755.245 140.211C777.269 140.211 790.798 121.839 790.798 99.8108C790.798 73.761 775.657 58.8011 755.058 58.8011C734.466 58.8011 719.505 75.3759 719.505 99.8108ZM878.151 44.2679C861.79 44.2679 850.489 52.7684 846.039 62.2439H844.819V46.8881H828.856V151.911H844.819V89.2994C844.819 71.9329 857.738 59.1972 874.318 59.1972C889.06 59.1972 901.37 70.1048 901.37 86.862V151.88H917.333V85.8263C917.333 62.6095 902.59 44.207 878.151 44.207V44.2679Z" fill="#231F20"/>
</g>
<defs>
<clipPath id="clip0_806_513">
<rect width="1024" height="154.076" fill="white" transform="translate(0 0.455078)"/>
</clipPath>
</defs>
</svg>
