<svg width="1024" height="960" viewBox="0 0 1024 960" fill="none" xmlns="http://www.w3.org/2000/svg">
<g clip-path="url(#clip0_742_99)">
<path fill-rule="evenodd" clip-rule="evenodd" d="M579.24 62.074C578.558 59.8552 578.558 59.8552 578.558 57.9778C577.925 43.4272 583.094 29.2204 592.929 18.4785C602.765 7.7365 616.462 1.33789 631.012 0.688253C645.546 0.116134 659.719 5.30589 670.448 15.1288C681.176 24.9517 687.593 38.6132 688.301 53.1421C688.966 67.6535 683.846 81.8358 674.065 92.5765C664.284 103.317 650.642 109.739 636.132 110.432C634.596 110.659 632.604 110.432 630.386 110.432C629.475 110.659 628.11 110.659 627.2 111.683C624.014 116.462 635.165 115.836 626.915 136.715C626.915 136.715 626.915 138.877 626.233 141.096C625.55 149.061 621.681 173.069 620.771 186.211C622.421 188.487 623.047 189.055 622.421 193.607C621.172 203.805 619.464 213.942 617.301 223.987C615.025 231.952 611.839 233.886 608.938 235.479C604.785 252.432 603.533 266.485 592.951 286.965C591.7 302.667 590.391 306.877 586.921 314.501C585.954 337.257 587.49 340.671 570.934 377.138C566.383 394.206 569.967 405.982 573.779 423.846C577.647 442.108 589.481 450.073 590.732 468.961C593.577 512.824 591.7 543.204 581.459 577.453L589.139 597.251C599.38 602.03 624.298 615.797 609.62 635.652C629.134 646.462 658.831 658.068 682.441 680.085C692.454 688.448 702.353 698.005 711.627 708.53C729.604 711.773 727.329 713.081 740.414 721.672C778.815 746.59 839.917 795.858 875.417 830.107C881.789 833.919 883.78 836.479 888.843 839.38C889.412 840.689 889.81 841.315 889.412 841.656C887.933 845.752 887.933 845.752 885.998 849.621C888.217 851.896 891.403 853.774 893.622 855.708C895.898 855.993 895.898 855.367 899.084 854.741C903.578 858.894 909.324 862.421 911.258 862.421C917.289 861.17 916.037 862.137 921.783 856.732C923.433 854.741 926.562 856.732 926.562 856.732C928.838 854.456 932.991 849.962 938.737 846.719C943.231 844.159 951.822 844.159 951.822 844.159C954.78 844.5 954.097 847.061 953.472 848.312C950.229 849.621 943.231 851.555 939.419 854.456C930.772 862.421 923.717 874.539 923.717 874.539C940.728 872.662 951.253 877.099 964.622 875.848C972.359 875.563 978.106 876.189 986.07 870.727C986.07 870.727 994.035 865.266 1001.15 862.763C1007.86 859.918 1014.23 861.795 1019.92 866.29C1023.85 871.069 1026.69 871.069 1019.92 877.441C1017.42 880.001 1014.23 882.902 1009.68 887.112C1002.11 894.11 991.873 903.667 981.234 911.689C971.856 918.637 961.813 924.64 951.253 929.61C932.024 942.695 936.461 939.509 921.499 952.025C919.792 953.277 914.444 956.463 912.225 958.056C906.138 961.583 904.545 958.397 901.018 951.342C901.018 951.342 899.425 948.782 896.466 943.378C893.622 937.29 891.346 930.293 892.37 930.293C888.843 929.894 873.539 910.722 873.539 906.967C869.955 906.228 856.244 892.175 855.903 889.331L843.728 879.09C829.335 881.594 826.092 872.662 789.056 844.5C784.504 844.159 777.848 841.656 768.575 834.601C751.621 820.208 711.285 788.235 704.629 784.366C697.233 780.555 688.642 776.743 682.84 772.192C674.533 770.94 670.437 769.347 665.886 768.38C661.335 767.128 657.921 765.137 647.339 763.885C630.101 761.325 612.181 753.645 595.511 744.713C587.547 740.56 580.492 738.626 573.779 735.098C558.418 728.044 544.992 721.672 534.751 719.169C523.422 716.446 512.54 712.116 502.437 706.311C498.967 704.377 497.032 702.898 494.814 702.158C489.693 700.907 486.109 702.5 483.891 703.41C470.806 709.554 458.972 714.959 447.708 721.046C437.467 726.166 427.909 731.628 417.669 737.317C407.725 742.508 397.591 747.328 387.289 751.768C387.289 751.768 356.909 766.161 339.955 771.566C325.164 782.773 295.182 802.628 276.977 812.243C267.988 816.396 250.409 826.58 242.387 828.855C237.836 832.326 221.28 843.533 208.48 852.807C198.239 859.861 190.843 865.949 190.843 865.949C184.813 870.727 185.097 873.344 174.914 868.509C172.351 870.194 169.883 872.017 167.518 873.97C159.553 879.375 159.212 878.123 156.026 877.782C150.28 882.333 149.597 880.058 144.818 885.178C141.348 889.957 144.818 888.648 138.105 891.208C136.512 891.55 135.829 893.484 134.862 894.394C129.514 898.547 129.173 911.063 116.373 911.689C108.692 916.809 110.285 923.238 105.165 922.555C105.165 928.358 94.9245 935.64 92.9902 935.64C76.3779 941.102 75.6952 928.927 56.2384 937.632C53.6783 938.542 49.8097 941.728 45.0308 942.411C36.3833 943.662 26.1429 942.069 19.771 936.608C12.6061 929.921 6.36849 922.306 1.22447 913.965C-1.67699 906.569 0.257312 902.131 10.4978 895.077C14.6508 892.517 15.2766 890.582 22.3311 890.298C25.7446 888.933 24.8913 890.867 30.8649 888.933C34.5059 888.022 34.5059 888.648 41.8449 888.648C43.4378 887.681 45.6566 887.396 48.8994 886.088C54.5885 884.154 60.0501 882.561 60.0501 882.561C60.0501 882.561 61.6431 881.252 67.1046 881.992C71.5421 880.001 76.7193 877.441 79.2794 876.473C78.5967 869.419 79.5638 869.419 82.6929 866.574C87.2442 863.047 87.8131 863.73 91.1128 866.005C92.3644 865.607 93.3315 865.266 92.6488 864.014C92.0799 859.861 89.1785 857.927 90.0887 849.962C88.8371 846.719 86.6184 842.623 87.2442 840.063C87.8131 837.503 88.8371 836.137 90.4301 835.569C92.0799 834.886 92.9902 835.91 93.6729 836.82C95.2658 838.754 96.5174 844.5 96.5174 844.5C96.8588 851.214 98.7931 859.292 105.165 854.741C108.977 851.214 109.944 840.973 117.34 843.192L122.801 848.028C127.58 843.875 127.58 843.875 130.766 841.94C130.766 841.94 126.215 837.787 130.083 834.26C132.643 832.041 136.228 830.448 141.917 824.304C157.619 807.692 165.925 800.41 182.537 786.926C212.041 764.596 244.591 746.606 279.196 733.505C287.502 723.606 295.125 717.235 312.477 716.211C333.925 681.734 374.204 651.582 383.477 646.803C391.101 633.718 394.287 634.97 404.243 632.751C411.923 626.664 414.199 626.664 417.328 620.576C420.912 607.491 410.956 571.65 439.117 570.683C445.489 562.376 443.555 564.311 450.268 556.573C446.922 547.388 444.669 537.84 443.555 528.128C443.27 527.218 432.404 519.196 436.159 509.24C430.195 501.628 425.083 493.387 420.912 484.663C419.688 484.628 418.478 484.397 417.328 483.98C416.076 483.696 414.199 483.696 412.207 483.696C407.77 494.846 402.934 495.529 394.969 498.089C380.178 527.218 375.057 539.677 335.461 563.059C319.531 580.013 313.729 599.47 313.729 599.128C311.314 604.936 311.072 611.419 313.046 617.39C310.486 623.478 311.51 624.445 311.51 624.445C312.079 627.005 314.696 630.475 317.54 630.817C322.035 632.125 327.155 632.125 326.529 637.53C325.903 643.958 317.256 642.65 313.046 641.683C297.401 638.838 302.521 628.598 292.281 631.784C284.259 636.62 281.13 651.582 268.614 649.42C267.021 648.112 267.647 645.21 268.955 642.65C270.548 639.237 273.734 635.937 272.141 634.685C263.835 636.961 247.507 641.683 247.507 641.683C239.827 643.958 231.521 639.464 239.144 634.628C242.728 633.377 247.848 631.784 254.22 627.915C254.22 627.915 257.748 623.819 250.977 625.696C243.313 627.998 235.29 628.865 227.311 628.257C227.311 628.257 212.69 626.038 210.698 625.071C209.105 623.819 207.228 618.983 211.666 619.381C222.448 619.216 233.183 617.919 243.695 615.513C249.1 613.522 259.625 607.548 265.428 604.931C265.428 604.931 271.857 595.999 275.668 594.122C281.756 587.636 286.478 583.881 291.598 577.111C296.718 566.871 302.521 550.941 320.044 525.568C328.925 512.323 339.122 500.01 350.48 488.816C350.48 488.816 354.008 469.587 369.994 456.217C373.578 448.252 378.926 438.581 384.729 429.933C386.924 426.868 388.937 423.676 390.759 420.376C395.88 412.98 401.341 398.928 420.229 397.05C420.229 397.05 428.592 391.247 431.437 387.094C436.216 382.941 435.647 376.512 439.402 372.359C433.371 366.329 418.636 354.78 417.669 339.761C417.047 332.486 418.08 325.165 420.691 318.347C423.302 311.529 427.423 305.39 432.745 300.392C443.896 289.867 455.388 284.747 469.497 285.714C487.076 288.843 490.319 294.646 495.383 300.392C500.503 306.138 502.778 302.667 504.656 308.698C519.391 312.851 518.765 311.258 518.139 322.124C520.699 325.367 524.17 328.269 523.828 334.299C528.664 324.343 529.973 322.466 543.399 311.599C546.926 302.667 549.088 293.679 551.933 284.405C554.891 276.099 558.418 267.452 560.694 261.08C558.418 242.533 564.107 239.632 571.845 223.304C570.593 221.085 570.934 220.459 571.503 216.932C574.746 206.009 579.24 192.298 582.085 183.025C582.085 183.025 583.052 179.441 586.921 179.441C590.334 167.949 595.853 146.501 597.104 141.722C600.632 129.888 598.754 125.394 596.535 118.396C595.853 116.121 596.194 113.276 594.829 110.659C590.907 103.036 587.3 95.2541 584.019 87.3338C582.426 83.1807 579.468 67.1942 579.468 67.1942C579.24 63.667 579.24 62.074 579.24 62.074Z" fill="#111111"/>
</g>
<defs>
<clipPath id="clip0_742_99">
<rect width="1024" height="958.856" fill="white" transform="translate(0 0.645508)"/>
</clipPath>
</defs>
</svg>
