<svg width="650" height="513" viewBox="0 0 650 513" fill="none" xmlns="http://www.w3.org/2000/svg">
<g clip-path="url(#clip0_795_5281)">
<path d="M186.223 28.6804C189.667 25.0662 197.333 17.6064 211.491 18.0835C220.35 13.9921 230.479 15.604 234.247 17.816C234.247 17.816 240.622 17.6642 244.738 19.6449C296.812 2.24834 353.122 2.24834 405.191 19.6449C409.299 17.6642 415.673 17.816 415.673 17.816C419.442 15.6041 429.571 13.9921 438.43 18.0835C452.566 17.6064 460.233 25.0951 463.698 28.6804C465.647 23.2012 469.055 18.5605 477.055 15.8639C479.942 1.03092 499.19 -5.67006 526.364 8.02096C538.493 -2.98109 556.283 8.74382 562.108 24.6468C571.061 22.3842 585.255 30.7259 584.302 57.4568C593.369 57.9339 596.892 67.49 594.322 82.9735C599.715 81.8242 626.204 76.8943 645.184 101.045C654.237 112.568 648.982 127.284 639.351 134.47C638.708 136.263 634.68 152.347 622.522 158.903C621.8 167.057 635.907 184.485 641.213 195.949C656.129 228.195 648.715 282.966 593.427 292.334C595.875 294.633 601.492 302.345 603.333 308.75C605.708 317.034 603.917 325.036 599.723 331.881C595.16 339.399 578.064 350.075 573.855 355.439C581.797 360.13 590.749 369.715 586.728 387.801L571.018 458.547C568.44 470.07 560.766 479.821 548.247 482.351C541.901 483.631 535.252 482.286 531.273 481.231C503.795 473.945 483.913 479.597 453.453 489.479C437.571 494.625 420.287 500.321 399.769 504.782C350.43 515.172 299.476 515.172 250.138 504.782C229.641 500.358 212.314 494.647 196.431 489.5C165.972 479.619 146.089 473.967 118.612 481.253C114.612 482.308 107.984 483.652 101.638 482.373C89.1191 479.843 81.4227 470.085 78.867 458.569L63.1647 387.823C59.1435 369.751 68.1318 360.152 76.0374 355.46C71.7995 350.097 54.7321 339.42 50.1698 331.903C46.0042 325.043 44.2137 317.041 46.56 308.771C48.401 302.367 54.0178 294.654 56.4651 292.356C1.2065 282.973 -6.20804 228.202 8.72156 195.956C14.0279 184.491 28.1346 167.042 27.4131 158.91C15.2195 152.375 11.2121 136.27 10.5695 134.477C0.938612 127.292 -4.3177 112.574 4.73606 101.052C23.7164 76.9013 50.2197 81.8312 55.598 82.9804C53.0278 67.4969 56.551 57.9407 65.6184 57.4637C64.6655 30.7179 78.8588 22.3908 87.8118 24.6537C93.638 8.75128 111.427 -2.98109 123.556 8.02786C150.73 -5.66976 170.014 1.03062 172.866 15.8636C180.865 18.5961 184.274 23.2009 186.223 28.6804Z" fill="white"/>
<path d="M255.728 478.296C236.17 474.06 219.702 468.581 204.57 463.673C174.97 454.066 148.979 446.049 114.931 454.095C107.972 455.822 105.546 455.779 104.015 448.71L89.8868 385.033C88.5945 379.106 90.3344 377.87 96.0451 376.583C138.135 367.54 172.84 373.764 207.751 382.677C226.045 387.346 244.203 392.688 263.227 396.866C282.582 401.116 302.818 404.167 324.94 404.167C347.061 404.167 367.297 401.116 386.653 396.866C405.677 392.688 423.834 387.346 442.129 382.677C477.043 373.764 511.747 367.54 553.834 376.583C559.545 377.87 561.285 379.106 559.993 385.033L545.857 448.745C544.304 455.822 541.893 455.858 534.912 454.123C500.85 446.092 474.917 454.123 445.302 463.708C430.141 468.616 413.703 474.095 394.145 478.331C348.5 487.921 301.362 487.921 255.72 478.331L255.728 478.296ZM254.955 113.256L253.114 112.142L253.576 110.032C254.804 104.451 254.046 99.4781 245.462 99.1893L243.339 99.1171L236.841 78.6603L238.632 77.3881C244.523 73.2028 243.159 67.9404 235.166 65.0999L233.181 64.377V62.2735C233.181 58.8689 235.231 56.9822 236.69 55.6522L237.809 54.633C238.155 54.3005 238.531 53.9101 238.885 53.5414C239.687 52.6677 240.375 51.6962 240.935 50.65L241.455 49.6742L242.48 49.2694C295.506 28.5189 354.393 28.5189 407.417 49.2694L408.442 49.6742L408.962 50.65C409.522 51.6962 410.211 52.6677 411.013 53.5414C411.381 53.9462 411.735 54.2643 412.088 54.633L413.207 55.6522C414.651 56.9822 416.716 58.8689 416.716 62.2735V64.3914L414.731 65.1143C406.739 68.0057 405.345 73.2536 411.265 77.4025L413.056 78.6747L406.558 99.1315L404.436 99.2037C395.851 99.4784 395.093 104.452 396.321 110.046L396.783 112.157L394.942 113.27C392.364 114.831 390.105 121.033 391.599 125.558L393.83 132.288L387.426 129.245C347.916 110.306 301.965 110.306 262.454 129.245L256.065 132.317L258.296 125.587C259.79 121.048 257.523 114.845 254.953 113.284L254.955 113.256Z" fill="#FFFF00"/>
<path d="M559.199 167.68C559.01 167.947 558.802 168.201 558.578 168.439C556.246 170.882 551.64 173.289 547.611 173.166L544.218 173.065L544.521 176.448C545.85 191.079 554.528 210.667 563.293 220.817C572.202 231.11 576.923 242.293 576.432 252.341L576.288 255.232L579.176 255.507C596.092 257.09 607.888 249.059 612.104 237.508C618.522 219.943 606.018 200.954 597.521 188.101C586.316 171.15 588.186 151.915 590.749 139.771L591.167 137.783L589.485 136.648C586.099 134.371 584.309 130.518 584.309 126.109C584.309 121.208 585.522 115.859 590.395 110.973C595.55 105.819 601.058 105.19 609.058 105.19C612.992 105.19 622.775 109.527 625.663 113.799C625.742 113.904 625.766 114.042 625.728 114.168C625.728 114.283 625.533 114.638 624.876 114.992C621.562 116.756 619.721 119.661 618.472 122.495C617.331 125.09 616.537 128.054 615.476 130.844C613.635 135.665 611.289 139.236 603.643 139.236H601.362L600.748 141.405C599.643 145.412 599.02 149.538 598.893 153.693C598.423 166.249 601.542 174.779 606.155 182.383C607.729 184.971 610.177 188.651 612.747 192.792C615.371 196.92 617.748 201.199 619.865 205.609C630.817 229.268 623.475 258.377 596.762 266.856C592.488 268.215 582.886 269.559 572.721 267.817L571.017 267.521L569.913 268.844C569.313 269.566 568.671 270.253 567.992 270.933C566.974 271.952 565.74 273.043 564.382 274.2L563.725 274.771L563.473 275.595C561.177 283.156 561.906 291.996 569.544 300.837C572.562 304.328 575.183 307.169 577.19 309.627C579.197 312.084 580.229 313.769 580.619 315.113C581.132 316.906 580.785 319.226 573.458 324.51C554.795 337.926 547.251 349.333 543.135 357.509C541.236 361.304 540.175 364.296 538.969 366.335C538.11 367.78 537.612 368.041 536.594 368.048C532.919 367.918 527.548 367.282 523.599 365.619L521.181 364.592L519.867 366.826C517.47 370.86 507.897 371.604 504.034 369.074L502.764 368.243L501.32 368.778C493.378 371.72 488.072 371.279 484.86 370.318C483.621 369.966 482.445 369.425 481.373 368.713C481.12 368.541 480.879 368.352 480.651 368.149C466.579 367.079 465.561 352.665 471.677 344.844C473.027 343.116 477.25 337.955 486.058 337.955C492.058 337.955 520.445 320.13 520.445 310.704C520.445 308.535 519.001 306.974 517.962 306.027C516.594 304.88 515.128 303.856 513.579 302.969C510.359 301.039 506.071 298.798 501.783 296.001C493.264 290.457 485.849 283.401 485.849 273.058C485.849 264.752 488.181 250.468 511.421 250.468H514.432V247.454C514.432 230.611 497.538 213.79 489.163 207.407C484.622 203.828 480.999 199.217 478.594 193.955L478.052 192.806L476.861 192.387C468.248 189.365 460.566 179.563 453.318 168.063C449.709 162.381 446.416 156.548 443.276 151.386C440.136 146.225 437.017 141.469 433.891 138.231L432.981 137.284H431.682C427.884 137.327 423.054 135.838 418.954 134.27L417.467 133.684L416.145 134.595C408.731 139.72 400.63 136.402 400.263 132.065L400.003 129.34H397.267C393.029 129.34 391.267 126.759 391.108 122.87C390.935 118.533 392.957 114.449 394.906 113.264L396.747 112.15L396.285 110.04C395.137 104.821 393.029 89.0261 437.624 108.558C438.859 109.1 440.122 109.707 441.414 110.358L447.075 113.206L445.696 107.011C443.97 99.2186 440.483 91.8812 433.177 85.5203L431.646 84.1902L429.856 85.1516C426.925 86.6479 424.882 86.3949 422.384 85.1516C420.75 84.2594 419.186 83.2445 417.705 82.1156C415.864 80.7784 413.857 79.2242 411.554 77.6917C405.259 73.398 406.681 68.0561 414.724 65.1571L416.709 64.4342V62.273C416.727 60.7678 416.275 59.2944 415.417 58.0587C415.066 57.5422 414.67 57.0584 414.233 56.613C413.864 56.2371 413.46 55.8901 413.027 55.4709C412.594 55.0516 412.305 54.7914 411.872 54.4083C411.439 54.0252 411.15 53.6855 410.76 53.2517C409.933 52.2848 409.236 51.213 408.688 50.064C406.443 45.4377 411.576 40.0455 418.074 43.0017L422.297 40.6091C422.523 40.4751 422.766 40.3707 423.019 40.2983C424.353 39.8527 425.759 39.6615 427.163 39.7344C431.062 39.8284 433.805 41.1006 434.267 41.7946L439.321 41.6934C439.159 41.7929 439.03 41.939 438.953 42.1126C439.137 42.0359 439.332 41.9871 439.53 41.9681C440.575 41.892 441.622 42.0861 442.57 42.5319C445.154 43.6378 448.887 46.7245 452.063 54.3796L453.081 56.83L455.637 56.1072C457.819 55.4862 460.044 55.0272 462.294 54.7338C463.737 54.5675 468.878 54.1844 470.105 54.0109C471.423 53.7986 472.665 53.2538 473.715 52.4279C474.537 51.7732 475.301 51.0476 475.996 50.2593L476.913 49.2907C477.188 49.016 477.476 48.7341 477.78 48.4811C478.268 48.036 478.83 47.679 479.44 47.4257C480.927 47.0497 482.44 46.7839 483.967 46.6306L487.382 46.1824L486.486 42.8501C486.241 41.9393 485.931 40.6815 485.764 39.5466C485.678 39.0685 485.621 38.5858 485.591 38.1008C485.578 37.9759 485.578 37.8499 485.591 37.725C485.736 37.2551 486.313 36.5612 488.479 35.8817C490.782 35.1589 493.331 34.8264 494.933 34.2698C495.894 33.9445 496.897 33.6048 497.821 33.2361C498.891 32.843 499.905 32.3134 500.839 31.6603C503.168 30.1226 503.991 27.09 502.759 24.5835C503.359 24.6413 504.203 24.7714 505.279 24.9594C507.368 25.3352 509.414 25.9188 511.387 26.7015C512.134 26.9894 512.859 27.335 513.553 27.7352C513.655 27.7952 513.753 27.8604 513.849 27.9303C513.815 28.2203 513.752 28.506 513.661 28.7833C513.408 29.5784 510.326 35.2095 510.326 35.2095C510.326 35.2095 516.506 34.624 517.285 34.6168C518.288 34.6028 519.29 34.6729 520.281 34.8264C521.87 35.0866 523.364 35.4047 524.678 35.6143C526.131 35.9122 527.626 35.9416 529.089 35.701C531.069 35.3211 532.619 33.7724 533.002 31.7905C533.215 30.5921 533.186 29.363 532.916 28.1762C534.415 28.4905 535.87 28.9882 537.247 29.658C542.301 32.0796 544.193 35.0649 543.442 37.1396C542.843 38.7949 540.554 40.4141 540.475 40.472L536.937 42.8429C536.937 42.8429 540.547 45.5246 540.626 45.6042C540.879 45.7942 541.12 45.9994 541.348 46.2186C542.127 47.0515 542.783 47.991 543.297 49.0088C545.463 53.0351 549.961 51.6255 551.788 50.5701C554.063 49.3073 555.713 47.1555 556.343 44.6283C558.718 47.1221 560.978 51.2351 561.252 54.2422C561.498 56.8734 560.834 59.8661 559.621 60.7985C559.202 61.1238 556.877 61.5214 556.495 61.5214L552.163 62.0129C552.163 62.0129 554.437 66.444 554.654 67.2102C555.046 68.6601 555.207 70.1628 555.13 71.6629C554.935 76.7229 559.758 77.612 562.35 77.1856C564.588 76.7945 566.646 75.7039 568.227 74.07C568.422 74.4459 568.616 74.8796 568.819 75.3639C570.183 78.6963 570.912 83.0695 570.003 86.2063C569.468 88.0351 566.848 90.5435 565.996 90.7169C565.643 90.7779 565.284 90.7949 564.927 90.7675C564.371 90.7675 563.823 90.6735 563.346 90.6157C562.725 90.5247 562.097 90.486 561.469 90.5001C558.718 90.6591 557.946 92.2999 558.177 94.2155C558.269 94.8668 558.312 95.524 558.307 96.1816C558.307 96.9045 558.235 97.6708 558.148 98.8779C557.426 108.195 565.317 108.188 570.421 105.427C570.679 107.008 570.774 108.612 570.703 110.212C570.675 112.571 570.21 114.905 569.331 117.094C568.501 118.944 567.548 119.638 566.638 119.797C564.472 120.159 563.599 119.754 563.325 119.617C559.318 117.585 558.271 118.98 557.773 121.323C557.686 121.72 557.628 122.103 557.477 122.602C557.263 123.279 556.998 123.939 556.683 124.575C554.459 129.288 556.516 132.932 560.639 133.748C562.719 134.08 564.848 133.919 566.855 133.279C566.81 134.777 566.587 136.264 566.191 137.71C564.877 142.553 562.321 145.466 558.928 145.177C558.777 145.144 558.631 145.091 558.495 145.018C558.126 144.823 557.773 144.57 557.426 144.338C556.895 143.953 556.338 143.605 555.759 143.297C554.923 142.841 553.989 142.593 553.037 142.574C552.026 142.574 550.322 143.16 549.579 145.466C549.316 146.379 549.147 147.316 549.073 148.263C548.886 150.674 548.958 153.097 549.29 155.492C549.58 158.144 550.351 160.721 551.564 163.096C552.82 165.359 555.008 167.614 558.408 167.614C558.726 167.643 558.982 167.658 559.199 167.68ZM147.077 24.6816C145.903 27.1739 146.74 30.1519 149.041 31.6643C149.975 32.3236 150.989 32.8604 152.059 33.2619C152.99 33.6305 153.994 33.9847 154.947 34.2956C156.549 34.8521 159.098 35.1847 161.401 35.9075C163.567 36.587 164.181 37.2809 164.289 37.7507C164.302 37.8756 164.302 38.0017 164.289 38.1266C164.259 38.6115 164.202 39.0942 164.116 39.5723C163.921 40.7361 163.61 41.9649 163.394 42.8758L162.498 46.1865L165.913 46.6347C167.44 46.788 168.953 47.0537 170.44 47.4298C171.066 47.6829 171.643 48.0451 172.144 48.4996C172.447 48.7526 172.736 49.0346 173.01 49.3092L173.927 50.2779C174.623 51.0661 175.386 51.7917 176.208 52.4464C177.258 53.2724 178.5 53.8172 179.818 54.0295C181.046 54.2246 186.15 54.6078 187.63 54.7523C189.879 55.0457 192.104 55.5048 194.286 56.1257L196.842 56.8486L197.86 54.3981C201.037 46.7431 204.769 43.6563 207.354 42.5505C208.302 42.1047 209.349 41.9105 210.393 41.9866C210.592 42.0057 210.786 42.0544 210.971 42.1312C210.893 41.9576 210.765 41.8115 210.603 41.712L215.656 41.8132C216.118 41.0903 218.862 39.847 222.76 39.753C224.165 39.6801 225.57 39.8713 226.904 40.3168C227.169 40.4098 227.414 40.5521 227.626 40.7361C238.354 40.0638 243.466 45.4563 241.22 50.0825C240.665 51.2408 239.959 52.32 239.12 53.292C238.744 53.7185 238.398 54.1016 238.008 54.4486C237.618 54.7955 237.214 55.1714 236.853 55.5111C236.492 55.8509 236.015 56.2774 235.647 56.6532C235.21 57.0986 234.813 57.5824 234.463 58.099C233.604 59.3347 233.153 60.808 233.171 62.3132V64.4311L235.156 65.154C243.199 68.0454 244.621 73.3946 238.325 77.6886C236.022 79.25 233.994 80.7752 232.174 82.1125C230.694 83.2414 229.13 84.2564 227.496 85.1485C224.998 86.4207 222.955 86.6737 220.024 85.1485L218.212 84.2305L216.681 85.5605C209.375 91.9217 205.888 99.2946 204.162 107.051L202.783 113.246L208.444 110.398C209.736 109.747 210.999 109.14 212.234 108.598C256.829 89.0806 254.721 104.861 253.573 110.08L253.111 112.191L254.952 113.304C256.901 114.489 258.923 118.602 258.75 122.911C258.598 126.799 256.829 129.38 252.591 129.38H249.855L249.602 132.105C249.191 136.442 241.091 139.76 233.676 134.635L232.355 133.724L230.868 134.31C226.767 135.915 221.937 137.368 218.14 137.324H216.841L215.924 138.235C212.827 141.473 209.708 146.23 206.538 151.391C203.369 156.552 200.041 162.385 196.496 168.067C189.277 179.567 181.566 189.369 172.954 192.391L171.762 192.81L171.221 193.959C168.816 199.221 165.193 203.833 160.651 207.412C152.291 213.794 135.383 230.615 135.383 247.458V250.472H138.394C161.634 250.472 163.966 264.756 163.966 273.062C163.966 283.405 156.558 290.461 148.032 296.005C143.743 298.803 139.455 301.065 136.235 302.973C134.687 303.861 133.22 304.884 131.853 306.031C130.806 306.978 129.369 308.554 129.369 310.708C129.369 320.105 157.757 337.959 163.756 337.959C172.564 337.959 176.751 343.12 178.138 344.848C184.253 352.669 183.235 367.083 171.482 367.083H170.442L169.243 368.153C169.015 368.356 168.774 368.544 168.522 368.716C167.449 369.429 166.273 369.97 165.034 370.321C161.822 371.283 156.479 371.723 148.574 368.782L147.13 368.247L145.86 369.078C141.997 371.608 132.424 370.863 130.027 366.83L128.684 364.574L126.223 365.623C122.295 367.285 116.924 367.921 113.228 368.051C112.21 368.051 111.712 367.798 110.852 366.338C109.647 364.3 108.585 361.278 106.687 357.512C102.593 349.337 95.049 337.93 76.3643 324.514C69.0364 319.244 68.6899 316.924 69.2025 315.117C69.5923 313.772 70.6463 312.081 72.6318 309.63C74.6172 307.18 77.2595 304.332 80.2774 300.84C87.9157 292 88.6449 283.159 86.349 275.599L86.0964 274.775L85.4466 274.204C84.1109 273.047 82.8764 271.955 81.8368 270.936C81.1582 270.257 80.5156 269.556 79.9164 268.847L78.8118 267.524L77.108 267.821C66.9427 269.563 57.3411 268.218 53.0667 266.859C26.3544 258.38 18.9901 229.271 29.9636 205.612C32.0812 201.203 34.4583 196.924 37.0821 192.796C39.6523 188.654 42.1358 184.975 43.6736 182.387C48.2869 174.783 51.413 166.253 50.9364 153.697C50.8087 149.541 50.1858 145.416 49.081 141.409L48.4673 139.24H46.2653C38.6198 139.24 36.2735 135.669 34.4324 130.848C33.3711 128.057 32.5842 125.065 31.4362 122.499C30.1872 119.665 28.3462 116.759 25.0325 114.995C24.3755 114.641 24.2167 114.273 24.1806 114.171C24.142 114.045 24.1662 113.908 24.2456 113.803C27.1334 109.509 36.9162 105.194 40.8507 105.194C48.85 105.194 54.3581 105.815 59.5137 110.976C64.3941 115.863 65.5997 121.212 65.5997 126.113C65.5997 130.522 63.8093 134.375 60.4233 136.652L58.7411 137.787L59.1598 139.774C61.6866 151.904 63.5927 171.175 52.3517 188.09C43.8542 200.942 31.3499 219.931 37.768 237.497C41.9843 249.063 53.7808 257.079 70.6963 255.496L73.5842 255.221L73.4398 252.33C72.9489 242.282 77.6705 231.099 86.5865 220.806C95.3728 210.686 104.051 191.068 105.358 176.437L105.661 173.054L102.268 173.155C98.2394 173.278 93.6045 170.871 91.3014 168.428C91.0624 168.18 90.8405 167.917 90.6372 167.64H91.4602C94.8607 167.64 97.0482 165.384 98.3044 163.122C99.5176 160.746 100.288 158.17 100.579 155.517C100.91 153.123 100.983 150.699 100.795 148.289C100.721 147.342 100.552 146.404 100.29 145.491C99.5678 143.164 97.8423 142.6 96.8315 142.6C95.8794 142.618 94.9457 142.866 94.1098 143.323C93.5302 143.63 92.973 143.978 92.442 144.364C92.0955 144.595 91.7201 144.848 91.3736 145.043C91.2374 145.116 91.0915 145.17 90.9404 145.202C87.5472 145.491 84.9914 142.578 83.6776 137.735C83.2808 136.29 83.0578 134.802 83.0133 133.304C85.0202 133.945 87.1491 134.106 89.2294 133.774C93.3518 132.957 95.4094 129.314 93.1857 124.601C92.8703 123.965 92.6048 123.305 92.3916 122.627C92.24 122.129 92.1822 121.746 92.0956 121.348C91.6119 119.006 90.5506 117.611 86.5437 119.642C86.2694 119.779 85.3741 120.184 83.2299 119.823C82.3202 119.664 81.3672 118.97 80.537 117.119C79.6582 114.93 79.193 112.597 79.1652 110.238C79.0946 108.637 79.189 107.034 79.4468 105.452C84.5727 108.214 92.4417 108.221 91.7203 98.9034C91.6336 97.6962 91.5686 96.9083 91.5614 96.2071C91.556 95.5494 91.5995 94.8923 91.6914 94.241C91.9224 92.3254 91.1499 90.6845 88.3992 90.5255C87.7714 90.5115 87.1435 90.5502 86.5221 90.6412C86.0456 90.699 85.4969 90.7713 84.9482 90.793C84.5889 90.8205 84.2276 90.8035 83.8725 90.7424C83.0206 90.5472 80.3999 88.0606 79.8656 86.2318C78.9559 83.0802 79.6851 78.7069 81.0496 75.3894C81.2517 74.9051 81.4466 74.4714 81.6416 74.0955C83.2227 75.7294 85.2799 76.82 87.5183 77.211C90.0957 77.6375 94.9184 76.7846 94.7379 71.6884C94.6614 70.1883 94.8222 68.6855 95.2144 67.2357C95.431 66.4694 97.7051 62.0384 97.7051 62.0384L93.3734 61.5468C92.9908 61.5035 90.6661 61.1348 90.2473 60.824C89.0345 59.8915 88.3702 56.8989 88.6157 54.2677C88.89 51.2606 91.1497 47.1476 93.4528 44.7261C94.1573 47.2195 95.8218 49.3307 98.0805 50.5956C99.9071 51.651 104.434 53.0606 106.571 49.0343C107.112 48.011 107.798 47.0713 108.607 46.2441C108.823 46.026 109.052 45.8208 109.293 45.6297C109.357 40.4396 107.076 38.8204 106.477 37.1651C105.755 35.0905 107.618 32.1051 112.671 29.6835C114.052 28.9976 115.511 28.4853 117.018 28.1583C116.747 29.3452 116.718 30.5742 116.931 31.7726C117.314 33.7545 118.864 35.3032 120.844 35.6832C122.307 35.9237 123.802 35.8943 125.255 35.5964C126.569 35.3868 128.064 35.0687 129.652 34.8085C130.643 34.655 131.645 34.5849 132.648 34.5989C133.428 34.5989 139.608 35.1916 139.608 35.1916C139.608 35.1916 136.51 29.5751 136.236 28.7727C136.122 28.461 136.052 28.1351 136.027 27.8041C136.113 27.7318 136.084 27.8836 136.344 27.7246C137.039 27.3244 137.763 26.9788 138.51 26.6909C140.483 25.9083 142.529 25.3247 144.618 24.9488C145.432 24.8045 146.252 24.7154 147.077 24.6816Z" fill="#FF0000"/>
<path d="M36.9288 129.873C39.0947 135.395 40.452 137.101 50.5959 136.718C52.3357 142.183 53.374 147.847 53.6859 153.576C54.1768 166.739 50.8774 175.782 46.0331 183.777C44.452 186.379 42.0045 190.066 39.4271 194.215C36.8582 198.246 34.5318 202.427 32.4603 206.735C21.9776 229.382 29.2548 256.424 53.946 264.266C57.599 265.423 65.6636 266.587 74.4421 265.474C73.1711 263.159 72.2168 260.684 71.6048 258.115C53.3824 260.038 40.0337 251.609 35.225 238.424C31.6152 228.629 33.4996 218.704 36.9505 210.015C40.4014 201.327 45.7367 193.173 50.0903 186.588C60.6882 170.57 59.3602 151.841 55.7071 135.851C59.2303 133.979 62.8689 132.534 62.8544 126.093C62.8544 121.524 61.887 116.942 57.6925 113.002C48.2276 104.111 33.3042 109.771 28.0925 113.725C30.6637 115.723 32.6574 118.37 33.8682 121.395C35.0378 124.033 35.8458 127.032 36.9288 129.873ZM159.752 187.115C161.521 188.915 164.041 190.007 167.564 190.007C175.281 190.007 183.042 182.504 191.475 169.767C195.518 163.659 199.229 157.145 202.709 151.348C206.188 145.551 209.827 139.782 213.538 135.923L215.437 133.942C222.238 134.781 232.763 129.967 232.763 129.967L235.536 131.875C237.928 133.426 240.803 134.051 243.622 133.631C245.209 133.543 246.478 132.278 246.575 130.69C247 127.495 244.178 125.095 242.452 124.184C238.842 122.449 241.427 117.013 245.051 118.748C245.051 118.748 249.231 120.454 251.996 126.034C255 126.323 255.281 124.704 255.469 122.832C255.837 119.218 253.671 112.857 244.048 112.792C240.048 113.081 239.615 107.074 243.615 106.785C243.615 106.785 247.838 106.546 250.596 107.783C251.087 104.927 250.019 103.583 248.842 103.127C245.377 101.783 235.912 101.725 213.538 111.606C208.485 113.833 197.865 120.281 187.714 124.176C189.952 126.851 193.49 128.383 196.832 125.622C202.276 121.126 201.164 144.163 192.739 145.392C190.754 145.629 188.753 145.113 187.129 143.946C186.917 145.457 186.512 146.934 185.924 148.341C184.039 151.955 184.819 156.358 190.71 156.032C190.79 163.138 184.451 173.077 174.185 169.311C166.965 166.658 169.925 155.657 161.803 156.98C161.572 157.023 160.727 160.991 161.132 165.993C162.337 180.971 168.286 177.559 168.618 179.229C169.362 182.879 165.044 186.19 159.752 187.115ZM166.178 196.31C158.135 195.891 153.789 191.799 151.601 186.45C147.341 184.853 143.775 181.014 143.067 173.851C142.403 167.143 146.287 158.439 139.457 158.439C138.338 158.439 137.053 163.651 136.505 166.21C133.032 182.257 140.764 178.079 137.847 181.483C132.88 187.266 115.828 186.023 117.712 169.238C118.246 164.446 122.946 155.346 118.044 155.346C114.557 155.346 114.997 168.357 108.839 173.749C108.428 190.759 97.5552 213.13 89.0723 222.903C74.6335 239.601 72.6623 256.877 84.2568 268.493C85.9679 270.207 88.307 272.108 90.6894 274.233C93.5182 276.631 96.1319 279.272 98.5011 282.126C103.374 288.263 107.064 297.573 98.7176 306.624C96.7106 308.793 94.9707 310.867 93.3752 312.609C89.621 316.722 92.1767 318.204 95.4545 320.503C109.172 330.088 117.251 338.646 122.636 346.301C124.966 349.631 127.042 353.133 128.845 356.775C130.332 359.746 131.53 362.471 132.801 364.98C133.639 366.635 140.873 369.216 145.991 364.98C146.114 361.618 144.735 357.751 142.75 354.91C140.353 351.44 145.551 347.84 147.948 351.296C150.655 355.214 152.893 361.481 152.243 366.417C158.019 368.434 162.697 368.232 166.682 365.904C167.267 359.977 165.657 355.698 163.671 353.081C161.123 349.727 166.155 345.896 168.725 349.25C171.693 353.41 173.265 358.406 173.216 363.519C176.659 363.158 177.909 360.895 178.313 358.264C178.948 354.1 177.432 349.091 175.605 346.756C174.472 345.31 171.101 341.14 163.831 341.14C157.073 341.14 126.13 322.751 126.13 310.578C126.13 306.913 128.549 304.484 129.74 303.436C131.262 302.146 132.898 300.996 134.628 300.002C137.819 298.087 142.071 295.868 146.331 293.099C154.705 287.649 160.769 281.453 160.769 272.931C160.769 265.507 158.538 255.301 143.399 253.927C140.158 253.631 129.111 252.554 122.08 256.146C118.326 258.062 114.991 253.414 118.427 250.978C118.427 250.978 122.347 248.086 132.195 247.161C132.303 228.634 150.409 211.019 158.748 204.65C161.695 202.329 164.211 199.507 166.178 196.31ZM90.5311 282.423C90.6971 288.929 88.5529 295.897 82.5896 302.8C79.5934 306.263 76.9655 309.06 75.0018 311.525C71.392 316.057 71.1321 316.932 78.1567 322.042C97.137 335.841 105.086 347.516 109.389 356.14C112.241 361.857 112.999 365.125 114.154 365.023C116.638 364.851 119.105 364.486 121.532 363.932C122.746 363.657 123.934 363.279 125.084 362.804C120.622 353.407 114.334 341.335 92.2061 325.765C80.0558 317.185 85.9683 311.619 94.4586 302.424C101.057 295.268 96.5594 288.351 90.5311 282.423ZM191.543 95.6654H171.877V80.3701C171.877 80.3701 187.392 80.4424 192.092 79.8786C193.839 79.6916 195.603 79.75 197.334 80.052C197.637 80.1026 198.41 79.9581 198.431 79.4738C198.879 76.7703 198.698 70.655 198.698 70.655C200.998 68.0858 202.248 64.7439 202.2 61.294C196.937 59.3206 191.529 57.6798 187.313 57.1521C185.818 56.9786 180.656 56.5883 179.407 56.3931C177.721 56.1493 176.125 55.4829 174.765 54.4558C173.87 53.7764 171.032 49.9886 169.552 49.6633C158.304 47.1767 145.569 48.355 142.616 49.02C140.325 49.5609 138.479 51.2556 137.743 53.4945C135.621 53.4945 130.957 53.4945 128.993 53.8703C126.712 54.3474 125.86 54.492 125.802 56.0389C125.701 58.7569 132.48 63.0433 132.48 63.0433C131.537 68.1194 130.227 73.1199 128.56 78.0065C128.018 79.5173 127.99 80.775 129.282 83.7893C131.108 88.0107 135.534 90.2949 141.555 91.2563C145.938 91.9792 151.475 98.8897 154.19 99.9812C155.843 100.646 166.261 100.552 170.282 100.393C178.332 100.075 186.598 99.4535 189.363 98.8319C190.208 98.6584 191.081 96.7569 191.543 95.6654ZM174.801 105.619C165.134 106.161 154.312 106.269 151.698 104.845C146.276 101.903 143.186 97.118 140.501 96.5975C134.256 95.3904 127.289 92.8314 124.322 85.9641C120.784 77.7669 124.43 76.1478 126.531 65.3191C118.842 59.3845 119.181 53.7533 123.051 50.3777C124.697 48.9319 129.91 48.1152 134.834 48.1152C136.191 42.6142 150.11 42.2745 160.463 43.0552C160.687 42.2456 160.961 41.277 161.185 40.5252C161.618 39.0795 161.618 38.6747 159.358 38.212C154.514 37.2145 151.77 36.4411 148.413 34.4893C145.526 32.7978 143.822 29.7763 144.385 28.2584C145.027 26.5669 139.923 28.2945 139.432 29.2342C138.595 30.8244 142.955 37.3157 142.955 37.3157C139.726 37.0495 136.485 36.9506 133.245 37.0193C127.989 37.3012 124.813 38.6674 121.095 38.2626C116.655 37.7711 114.193 34.2725 114.51 31.757C114.705 30.2101 108.735 34.4604 108.901 36.2386C109.038 37.6192 111.016 40.0264 115.918 43.2214C107.392 48.2018 109.522 54.252 102.201 54.5408C100.035 54.6203 94.2594 52.965 93.6673 49.835C93.2991 47.9556 89.285 54.9746 91.6747 58.5092C92.9237 60.3598 94.2593 60.1718 100.338 60.5694C97.8835 65.4198 97.4864 67.7184 97.4864 71.7952C97.4864 75.7131 96.2229 77.1732 93.2413 79.0237C91.0753 80.361 86.2021 81.1923 83.0907 78.0985C82.2316 77.2383 81.4086 83.6139 82.1666 85.5294C82.9247 87.4449 83.9643 88.4208 86.9966 88.3269C91.581 88.1895 94.1728 87.257 94.1007 88.1245C93.8249 92.4591 93.8707 96.808 94.2378 101.136C94.7432 108.365 86.9388 111.618 81.6037 108.791C80.2391 108.068 81.5026 117.227 84.0222 117.465C88.7293 117.935 93.1116 113.62 93.3066 114.878C94.4762 122.294 96.1078 123.067 96.5553 126.632C97.6166 135.002 89.4801 137.178 86.6069 135.927C84.6215 135.067 87.2061 144.096 91.3863 142.433C92.8301 141.848 94.8372 140.041 96.7576 140.041C99.8115 140.041 101.667 141.11 102.923 145.1C103.566 147.124 103.898 151.498 103.234 155.943C102.918 158.832 102.073 161.637 100.743 164.22C99.8692 165.788 98.2303 167.53 96.7215 167.913C93.9059 168.636 101.284 171.983 104.923 169.851C107.854 168.13 110.034 156.969 110.648 155.444C112.431 150.984 115.478 149.661 118.026 149.661C121.613 149.544 124.793 151.955 125.65 155.444C126.078 157.533 126.021 159.692 125.484 161.755C125.145 163.302 123.564 168.983 123.369 169.909C121.34 179.732 132.17 180.094 130.986 178.865C129.325 177.087 129.542 171.21 130.899 165.001C131.209 163.555 132.408 158.495 133.556 156.572C135.325 153.551 137.815 152.719 139.44 152.719C147.937 152.719 149.237 159.514 149.193 163.403C149.193 165.058 148.746 171.947 148.746 173.284C148.746 184.9 163.466 181.923 160.961 180.788C158.073 179.494 156.297 174.925 155.453 166.439C154.731 159.405 156.615 152.394 157.178 152.22C163.091 150.42 169.112 150.253 172.758 157.54C173.675 159.369 174.491 162.564 175.646 163.532C178.057 165.534 182.974 163.467 184.107 160.25C178.757 158.241 178.526 150.506 181.046 145.359C182.376 142.433 183.334 139.351 183.898 136.186C184.743 137.119 189.782 140.914 192.316 140.075C194.207 139.453 196.186 131.358 194.207 132.471C189.962 134.849 184.822 129.485 182.945 126.97C180.781 124.223 179.556 120.853 179.451 117.356C179.242 113.611 178.902 108.944 174.801 105.619ZM200.345 111.221C201.752 101.318 205.196 91.5378 214.705 83.2678L217.766 80.6005L221.376 82.4438C223.332 83.4413 224.357 83.3112 226.119 82.4438C227.608 81.6175 229.037 80.685 230.393 79.6536C232.255 78.2947 234.364 76.7622 236.703 75.1502C241.258 72.0853 239.425 69.7649 234.494 68.0807L230.162 66.4543V62.9628C230.162 57.5126 232.667 55.1777 234.855 53.2333C235.259 52.8719 239.453 49.4745 238.84 47.1902C238.118 44.3927 232.342 45.3253 232.342 45.3253C229.75 46.0481 227.693 49.9081 226.906 51.8309C225.296 55.7271 219.455 53.2766 221.065 49.4093C222.047 47.1708 223.348 45.0865 224.928 43.2217C224.798 41.8917 219.592 42.3182 217.982 43.5109C216.613 45.3625 215.63 47.472 215.095 49.7129C214.336 53.8693 208.12 52.7344 208.878 48.5853C209.169 47.2733 209.592 45.9945 210.142 44.7687C207.254 44.6024 203.644 48.2818 200.756 55.0118C202.966 55.778 205.139 56.6021 207.196 57.4189C208.236 62.8982 207.196 68.5294 204.077 72.519C204.077 78.3018 204.438 86.6217 197.984 85.6391C196.241 85.3235 194.469 85.1951 192.699 85.256C187.833 85.8415 180.693 85.7258 177.278 85.7475V90.2436H197.146C199.312 92.3689 195.861 103.255 190.288 104.223C188.786 104.491 185.761 104.823 182.036 105.127C184.779 109.579 185.046 115.11 185.371 118.282C190.506 116.248 195.508 113.89 200.345 111.221ZM449.52 111.221C454.368 113.891 459.381 116.25 464.529 118.283C464.854 115.11 465.121 109.609 467.864 105.128C464.139 104.824 461.114 104.492 459.613 104.224C454.039 103.241 450.603 92.3695 452.754 90.2446H472.557V85.7484C469.142 85.7484 462.003 85.8424 457.136 85.2569C455.366 85.196 453.594 85.3244 451.851 85.64C445.397 86.6231 445.758 78.3392 445.758 72.5199C442.61 68.5225 441.607 62.8988 442.61 57.4198C444.668 56.603 446.841 55.7789 449.05 55.0128C446.162 48.283 442.552 44.604 439.664 44.7696C440.216 45.9928 440.642 47.2692 440.935 48.5791C441.657 52.7283 435.477 53.8632 434.719 49.7067C434.183 47.4658 433.201 45.3561 431.831 43.5046C430.228 42.3119 425.016 41.8854 424.886 43.2155C426.471 45.07 427.779 47.1444 428.77 49.3742C430.38 53.2704 424.539 55.6919 422.929 51.7957C422.142 49.9091 420.092 46.0129 417.493 45.2901C417.493 45.2901 411.717 44.3576 410.995 47.155C410.382 49.4392 414.605 52.8366 414.981 53.1981C417.147 55.1426 419.673 57.4774 419.673 62.9277V66.4263L415.342 68.0527C410.411 69.737 408.577 72.0573 413.132 75.1222C415.472 76.6981 417.58 78.2666 419.442 79.6256C420.798 80.6571 422.227 81.5895 423.716 82.4158C425.478 83.3122 426.503 83.4423 428.46 82.4158L432.069 80.5726L435.131 83.2399C444.668 91.5382 448.112 101.318 449.52 111.221ZM475.098 105.619C470.998 108.944 470.658 113.614 470.442 117.358C470.337 120.855 469.112 124.225 466.948 126.972C465.042 129.487 459.93 134.851 455.685 132.473C453.707 131.36 455.685 139.456 457.577 140.077C460.111 140.916 465.15 137.121 465.995 136.188C466.559 139.353 467.517 142.435 468.847 145.361C471.366 150.508 471.135 158.243 465.786 160.253C466.919 163.469 471.836 165.537 474.247 163.534C475.409 162.566 476.225 159.371 477.135 157.542C480.781 150.256 486.802 150.422 492.715 152.222C493.278 152.395 495.148 159.407 494.44 166.441C493.596 174.927 491.805 179.496 488.932 180.79C486.398 181.925 501.09 184.903 501.09 173.287C501.09 171.949 500.657 165.061 500.642 163.405C500.599 159.516 501.898 152.722 510.396 152.722C512.02 152.722 514.511 153.553 516.28 156.574C517.428 158.526 518.626 163.572 518.937 165.003C520.28 171.212 520.511 177.089 518.85 178.867C517.695 180.096 528.517 179.734 526.467 169.875C526.272 168.957 524.691 163.268 524.351 161.721C523.814 159.658 523.758 157.499 524.185 155.41C525.043 151.922 528.223 149.51 531.809 149.628C534.358 149.628 537.404 150.965 539.188 155.41C539.801 156.936 541.982 168.097 544.913 169.817C548.522 171.949 555.93 168.602 553.121 167.879C551.605 167.496 549.966 165.754 549.093 164.186C547.762 161.603 546.918 158.798 546.602 155.909C545.938 151.442 546.27 147.069 546.912 145.067C548.169 141.091 550.024 140.007 553.078 140.007C554.998 140.007 556.991 141.814 558.449 142.399C562.629 144.055 565.214 135.026 563.229 135.894C560.341 137.144 552.219 134.968 553.28 126.598C553.728 123.034 555.359 122.261 556.529 114.844C556.724 113.586 561.106 117.901 565.813 117.432C568.333 117.186 569.596 108.034 568.239 108.757C562.897 111.584 555.092 108.324 555.598 101.102C555.965 96.7745 556.011 92.4256 555.735 88.0907C555.663 87.2232 558.255 88.1557 562.839 88.2931C565.872 88.3798 566.94 87.3606 567.669 85.4956C568.398 83.6307 567.633 77.1973 566.788 78.0574C563.677 81.1512 558.782 80.3199 556.638 78.9827C553.656 77.1249 552.393 75.6648 552.393 71.7541C552.393 67.6772 551.996 65.3786 549.541 60.5283C555.642 60.1307 556.977 60.3187 558.205 58.4681C560.594 54.9478 556.587 47.9293 556.212 49.7939C555.598 52.9239 549.837 54.5792 547.678 54.4997C540.336 54.2106 542.466 48.1602 533.961 43.1803C538.863 39.9853 540.841 37.5781 540.978 36.1975C541.159 34.4193 535.203 30.1689 535.369 31.7159C535.686 34.2604 533.203 37.759 528.785 38.2215C525.066 38.6263 521.89 37.2601 516.634 36.9782C513.395 36.9095 510.153 37.0084 506.924 37.2746C506.924 37.2746 511.256 30.769 510.447 29.1931C509.956 28.2534 504.852 26.5258 505.494 28.2173C506.057 29.7352 504.383 32.7567 501.466 34.4482C498.109 36.4 495.365 37.1733 490.521 38.1709C488.261 38.6336 488.261 39.0311 488.694 40.4841C488.918 41.207 489.193 42.2045 489.416 43.0141C499.769 42.2406 513.688 42.5804 515.045 48.0741C519.969 48.0741 525.153 48.9126 526.828 50.3366C530.698 53.6761 531.037 59.3433 523.348 65.278C525.449 76.1204 529.124 77.7259 525.557 85.923C522.59 92.7901 515.624 95.3201 509.378 96.5565C506.692 97.0769 503.602 101.862 498.181 104.804C495.56 106.272 484.73 106.161 475.098 105.619ZM458.356 95.6654C458.818 96.7569 459.692 98.658 460.566 98.8531C463.331 99.4748 471.597 100.096 479.646 100.414C483.668 100.574 494.085 100.667 495.739 100.002C498.417 98.8821 503.977 91.9715 508.308 91.2776C514.293 90.3379 518.719 88.032 520.582 83.8105C521.896 80.7745 521.874 79.5167 521.304 78.0277C519.631 73.1492 518.313 68.1561 517.362 63.0863C517.362 63.0863 524.141 58.7998 524.04 56.0819C523.982 54.5133 523.13 54.3687 520.849 53.9133C518.885 53.5013 514.221 53.5374 512.099 53.5374C511.382 51.2799 509.54 49.5613 507.24 49.0051C504.287 48.3401 491.551 47.1619 480.304 49.6484C478.824 49.9737 475.972 53.7615 475.091 54.4409C473.733 55.4643 472.139 56.128 470.456 56.371C469.207 56.5662 464.045 56.9565 462.515 57.13C458.299 57.6215 452.891 59.2986 447.628 61.2719C447.572 64.7352 448.825 68.0917 451.136 70.669C451.136 70.669 450.956 76.7844 451.403 79.4878C451.403 79.9721 452.198 80.1167 452.501 80.0661C454.231 79.764 455.995 79.7057 457.742 79.8926C462.42 80.4565 477.957 80.3842 477.957 80.3842V95.6794L458.356 95.6654ZM559.339 282.423C553.311 288.351 548.813 295.268 555.412 302.425C563.895 311.619 569.851 317.214 557.664 325.765C535.536 341.336 529.248 353.385 524.786 362.805C525.936 363.28 527.125 363.657 528.338 363.932C530.775 364.488 533.252 364.853 535.746 365.024C536.929 365.125 537.659 361.858 540.51 356.14C544.842 347.516 552.784 335.842 571.743 322.043C578.767 316.932 578.5 316.057 574.897 311.525C572.934 309.061 570.306 306.263 567.31 302.801C561.325 295.897 559.18 288.9 559.339 282.423ZM483.693 196.31C485.678 199.534 488.22 202.378 491.201 204.71C499.54 211.063 517.646 228.694 517.755 247.221C527.602 248.175 531.522 251.037 531.522 251.037C534.959 253.473 531.623 258.121 527.869 256.206C520.837 252.592 509.82 253.69 506.55 253.987C491.389 255.36 489.18 265.552 489.18 272.991C489.18 281.513 495.223 287.708 503.619 293.159C507.879 295.927 512.131 298.146 515.322 300.062C517.051 301.056 518.687 302.205 520.209 303.495C521.379 304.544 523.819 306.972 523.819 310.637C523.819 322.81 492.876 341.199 486.119 341.199C478.856 341.199 475.477 345.363 474.344 346.816C472.525 349.151 471.001 354.16 471.637 358.323C472.041 360.955 473.29 363.217 476.734 363.579C476.684 358.466 478.257 353.47 481.224 349.309C483.773 345.955 488.805 349.786 486.278 353.14C484.293 355.757 482.668 360.036 483.267 365.964C487.253 368.291 491.931 368.494 497.706 366.477C497.057 361.54 499.295 355.273 502.002 351.355C504.399 347.886 509.597 351.485 507.2 354.97C505.215 357.861 503.836 361.678 503.958 365.039C509.077 369.253 516.311 366.673 517.148 365.039C518.419 362.531 519.618 359.806 521.105 356.835C522.908 353.192 524.984 349.691 527.314 346.361C532.707 338.706 540.793 330.147 554.495 320.562C557.773 318.264 560.329 316.782 556.574 312.669C554.979 310.927 553.239 308.867 551.232 306.684C542.886 297.634 546.575 288.323 551.448 282.186C553.818 279.332 556.431 276.691 559.26 274.292C561.643 272.189 563.982 270.266 565.693 268.553C577.287 256.951 575.345 239.639 560.877 222.963C552.394 213.168 541.521 190.795 541.11 173.809C534.952 168.438 535.392 155.405 531.905 155.405C527.003 155.405 531.703 164.506 532.238 169.298C534.122 186.082 517.076 187.333 512.102 181.543C509.214 178.138 516.918 182.316 513.445 166.269C512.896 163.71 511.611 158.499 510.492 158.499C503.648 158.499 507.532 167.173 506.882 173.91C506.16 181.074 502.608 184.912 498.349 186.51C496.082 191.801 491.706 195.891 483.693 196.31ZM490.118 187.115C484.826 186.19 480.509 182.879 481.231 179.215C481.563 177.545 487.512 180.957 488.718 165.979C489.122 160.977 488.277 157.009 488.046 156.965C479.924 155.642 482.906 166.644 475.664 169.297C465.398 173.063 459.059 163.124 459.139 156.018C465.03 156.343 465.81 151.97 463.926 148.327C463.337 146.92 462.932 145.443 462.72 143.932C461.096 145.099 459.095 145.614 457.11 145.378C448.671 144.149 447.573 121.112 453.017 125.608C456.359 128.369 459.897 126.837 462.135 124.162C451.985 120.266 441.35 113.819 436.311 111.592C413.93 101.711 404.473 101.768 401.007 103.113C399.83 103.568 398.762 104.913 399.253 107.768C402.011 106.532 406.234 106.771 406.234 106.771C410.234 107.06 409.801 113.067 405.801 112.778C396.177 112.843 394.012 119.211 394.38 122.818C394.568 124.69 394.849 126.309 397.853 126.02C400.618 120.44 404.798 118.734 404.798 118.734C408.408 116.999 411.014 122.435 407.397 124.17C405.672 125.08 402.849 127.48 403.275 130.675C403.371 132.264 404.64 133.528 406.227 133.617C409.049 134.035 411.926 133.411 414.321 131.861L417.086 129.952C417.086 129.952 427.626 134.767 434.412 133.928L436.311 135.909C440.029 139.79 443.668 145.552 447.14 151.334C450.613 157.117 454.36 163.622 458.374 169.753C466.807 182.496 474.567 189.994 482.285 189.994C485.83 190.022 488.349 188.915 490.118 187.115ZM612.941 129.873C614.024 127.032 614.833 124.032 615.995 121.394C617.206 118.369 619.2 115.722 621.771 113.724C616.544 109.77 601.621 104.11 592.171 113.001C587.984 116.955 587.002 121.524 587.002 126.092C587.002 132.532 590.612 133.978 594.149 135.85C590.496 151.839 589.168 170.548 599.766 186.587C604.098 193.172 609.462 201.355 612.906 210.014C616.35 218.674 618.212 228.628 614.639 238.423C609.823 251.586 596.474 260.036 578.252 258.114C577.651 260.681 576.709 263.156 575.451 265.473C584.23 266.586 592.294 265.422 595.947 264.265C620.638 256.422 627.915 229.381 617.432 206.734C615.361 202.426 613.035 198.245 610.466 194.214C607.895 190.065 605.412 186.378 603.86 183.776C599.015 175.781 595.716 166.738 596.207 153.575C596.512 147.848 597.543 142.183 599.275 136.717C609.419 137.115 610.825 135.395 612.941 129.873ZM324.935 482.485C347.986 482.597 370.983 480.207 393.52 475.357C412.97 471.143 429.336 465.693 444.389 460.813C473.989 451.206 500.702 442.908 535.644 451.17C541.889 452.717 541.911 452.695 542.929 448.069L557.05 384.414C557.873 380.641 557.873 380.612 553.188 379.557C511.776 370.658 477.628 376.752 442.862 385.629C424.531 390.306 406.345 395.655 387.271 399.84C367.706 404.134 347.26 407.213 324.908 407.213C302.556 407.213 282.11 404.134 262.545 399.84C243.493 395.655 225.307 390.305 206.954 385.629C172.185 376.752 138.037 370.659 96.6284 379.557C91.9428 380.612 91.9428 380.641 92.7659 384.414L106.894 448.098C107.912 452.724 107.934 452.746 114.179 451.199C149.15 442.937 175.805 451.199 205.434 460.842C220.537 465.692 236.904 471.157 256.346 475.356C278.883 480.206 301.883 482.597 324.935 482.485ZM252.551 388.196C208.742 363.465 180.547 318.08 177.757 267.797C174.966 217.52 197.966 169.286 238.769 139.849C236.331 139.423 234.01 138.485 231.961 137.095C227.81 138.721 222.518 140.369 218.1 140.311C206.794 152.109 193.661 187.796 174.457 195.024C171.843 200.798 167.881 205.858 162.906 209.777C154.539 216.153 138.836 232.185 138.836 247.43C164.487 247.43 167.418 263.918 167.418 273.027C167.418 297.026 132.822 304.406 132.822 310.68C132.822 317.605 158.885 334.91 164.198 334.91C174.399 334.91 179.41 340.975 180.955 342.955C186.261 349.75 188.319 366.499 176.154 369.571C202.13 374.024 226.749 381.857 252.551 388.196ZM472.336 259.597C472.36 312.884 443.68 362.039 397.311 388.196C423.15 381.856 447.739 374.028 473.723 369.604C461.558 366.532 463.616 349.783 468.922 342.988C470.467 341.008 475.477 334.943 485.679 334.943C490.992 334.943 517.055 317.638 517.055 310.713C517.055 304.439 482.459 297.059 482.459 273.06C482.459 263.952 485.39 247.464 511.041 247.464C511.041 232.212 495.338 216.186 486.971 209.81C481.995 205.89 478.034 200.83 475.42 195.057C456.216 187.829 443.083 152.112 431.777 140.316C427.359 140.374 422.067 138.726 417.916 137.099C415.867 138.489 413.546 139.428 411.108 139.853C449.582 167.572 472.372 212.138 472.336 259.597ZM191.189 259.597C191.189 307.438 216.68 351.645 258.061 375.561C299.44 399.481 350.424 399.481 391.804 375.561C433.184 351.641 458.676 307.433 458.676 259.597C458.676 185.627 398.797 125.686 324.933 125.686C251.068 125.686 191.189 185.625 191.189 259.597ZM417.223 85.425L413.49 97.1426C419.908 98.4437 428.196 101.154 438.845 105.817C440.13 106.381 441.437 107.01 442.78 107.682C441.155 100.395 437.95 93.6805 431.229 87.8173C425.829 90.5569 422.038 88.8079 417.223 85.425ZM236.378 97.1426L232.645 85.425C227.83 88.8079 224.04 90.5572 218.654 87.8176C211.918 93.6799 208.713 100.396 207.103 107.682C208.446 107.01 209.753 106.381 211.038 105.817C221.694 101.155 229.96 98.4436 236.378 97.1426ZM406.302 52.0729C353.986 31.6013 295.887 31.6013 243.573 52.0729C240.468 57.899 236.18 58.3328 236.18 62.2726C244.699 65.3448 249.602 73.325 240.36 79.8889L245.558 96.2181C257.022 96.594 257.897 104.422 256.51 110.711C260.546 113.154 263.008 120.976 261.145 126.513C301.482 107.184 348.392 107.184 388.729 126.513C386.895 120.969 389.328 113.147 393.364 110.704C391.977 104.415 392.851 96.5867 404.315 96.2112L409.513 79.882C400.272 73.3186 405.182 65.3378 413.694 62.2657C413.694 58.3335 409.407 57.8987 406.302 52.0729ZM243.139 42.5529C295.864 22.7269 353.978 22.7269 406.706 42.5529C409.637 39.423 415.406 38.5049 419.275 40.2542C419.882 35.1292 433.974 36.0111 436.725 40.1169C438.025 37.9917 448.046 36.9291 454.774 53.2222C457.104 52.5688 459.478 52.0856 461.878 51.7764C463.322 51.6102 468.376 51.2343 469.574 51.0536C472.953 50.5259 474.31 46.196 478.288 44.6347C480.005 44.1643 481.759 43.8379 483.53 43.6588C482.988 41.6782 482.201 38.3097 482.606 36.9146C483.819 32.7654 490.728 32.5774 493.898 31.457C497.608 30.2137 501.962 28.9125 499.652 25.1537C495.356 18.1493 514.618 23.231 516.509 26.3682C517.585 28.1463 515.65 31.6378 515.65 31.6378C517.336 31.4995 519.032 31.5601 520.704 31.8185C527.021 32.8522 531.937 34.8762 529.367 26.7585C527.706 21.46 549.582 28.6162 546.152 38.1144C545.171 40.8178 542.023 42.9214 542.023 42.9214C543.647 44.1472 544.968 45.73 545.885 47.5476C547.423 50.439 553.415 47.085 553.415 43.131C553.415 35.0495 563.457 46.1381 564.18 53.9162C564.44 56.6342 563.956 61.1448 561.386 63.1398C560.137 64.1012 556.765 64.477 556.765 64.477C556.765 64.477 558.253 67.0359 558.072 71.7056C557.921 75.7825 565.097 74.6332 567.176 70.1876C568.902 66.501 575.175 78.8618 572.815 86.9869C572.093 89.5891 568.764 93.1094 566.577 93.5937C564.231 94.1214 560.982 92.8709 561.09 93.7889C561.304 95.5341 561.304 97.2988 561.09 99.044C560.664 104.827 566.418 105.629 570.822 101.393C574.179 98.1693 576.309 121.156 567.097 122.71C561.646 123.628 560.895 120.831 560.679 121.879C560.44 123.246 559.997 124.569 559.365 125.804C556.477 131.956 564.202 131.587 568.129 129.418C571.652 127.503 570.237 149.088 558.635 148.089C556.426 147.901 554.852 145.509 552.997 145.509C551.141 145.509 551.019 164.665 558.419 164.665C569.248 164.665 557.314 176.823 547.12 176.187C548.376 190.166 556.802 209.185 565.169 218.835C574.389 229.475 579.608 241.373 579.045 252.441C595.008 254.081 605.548 246.658 609.266 236.451C615.042 220.599 603.779 203.019 595 189.741C583.102 171.756 585.181 151.494 587.78 139.141C583.448 136.206 581.282 131.334 581.282 126.129C581.282 120.657 582.488 114.275 588.257 108.868C602.695 95.3357 624.643 106.887 628.152 112.157C629.307 113.884 628.802 116.328 626.275 117.672C616.42 122.934 622.326 142.25 603.627 142.25C602.593 146.023 602.006 149.905 601.88 153.815C601.432 165.713 604.364 173.665 608.71 180.828C611.843 186.004 618.478 195.503 622.579 204.35C634.058 229.137 626.571 260.552 597.635 269.74C592.848 271.258 582.589 272.631 571.824 270.737C571.16 271.532 570.438 272.313 569.658 273.079C568.741 273.997 567.651 274.98 566.467 276.014C564.301 282.736 564.698 290.667 571.788 298.877C583.953 312.952 589.664 316.544 575.181 326.961C547.212 347.07 545.141 362.236 541.322 368.243C547.237 369.101 553.292 370.26 559.486 371.72C562.468 372.443 568.554 374.091 566.554 383.076L550.822 453.915C548.476 464.389 540.715 461.867 536.953 460.84C468.973 442.79 436.157 491.518 324.934 491.518C213.711 491.518 180.901 442.791 112.876 460.818C109.144 461.809 101.325 464.368 99.0074 453.894L83.2755 383.054C81.2757 374.069 87.3618 372.407 90.3435 371.698C96.5524 370.252 102.607 369.093 108.508 368.221C104.689 362.214 102.617 347.049 74.6481 326.939C60.166 316.522 65.8763 312.93 78.0413 298.856C85.1309 290.644 85.5424 282.715 83.3621 275.992C82.1782 274.959 81.088 273.975 80.1711 273.057C79.4058 272.291 78.6839 271.511 78.0052 270.715C67.2407 272.631 56.9817 271.236 52.1948 269.718C23.2807 260.53 15.7933 229.115 27.2723 204.328C31.373 195.481 38.0083 185.983 41.1414 180.807C45.4732 173.643 48.4188 165.692 47.9711 153.794C47.8543 149.894 47.28 146.022 46.2601 142.256C27.5616 142.256 33.4672 122.912 23.6124 117.679C21.0855 116.334 20.5801 113.891 21.7352 112.164C25.2078 106.836 47.1918 95.2707 61.5942 108.831C67.3699 114.238 68.5682 120.621 68.5682 126.093C68.5682 131.326 66.4023 136.213 62.0706 139.104C64.6769 151.472 66.7562 171.734 54.851 189.704C46.072 202.983 34.7954 220.563 40.5847 236.415C44.3028 246.636 54.8431 254.088 70.8056 252.447C70.2786 241.38 75.4623 229.482 84.6816 218.842C93.0708 209.156 101.496 190.138 102.731 176.194C92.5367 176.83 80.6319 164.671 91.4319 164.671C98.8319 164.671 98.6515 145.639 96.8032 145.639C94.955 145.639 93.3739 148.031 91.1647 148.219C79.5624 149.217 78.1698 127.632 81.671 129.548C85.5984 131.681 93.3383 132.057 90.4356 125.934C89.8031 124.699 89.3602 123.376 89.1216 122.009C88.905 120.961 88.1542 123.758 82.7034 122.84C73.4912 121.286 75.621 98.2629 78.9781 101.523C83.382 105.759 89.1365 104.957 88.7101 99.174C88.4961 97.4288 88.4961 95.6641 88.7101 93.9189C88.8184 93.0081 85.5695 94.2514 83.2233 93.7237C81.0573 93.2394 77.7436 89.7191 76.9855 87.1169C74.6247 78.9703 80.8986 66.6315 82.624 70.3176C84.7033 74.7632 91.8867 75.9125 91.728 71.8356C91.5475 67.1298 93.0419 64.607 93.0419 64.607C93.0419 64.607 89.6632 64.2312 88.4142 63.2698C85.844 61.2892 85.3676 56.7642 85.6202 54.0462C86.3422 46.2683 96.3847 35.1802 96.3847 43.261C96.3847 47.215 102.384 50.5691 103.915 47.6776C104.832 45.8599 106.153 44.2772 107.777 43.0514C107.777 43.0514 104.63 40.9478 103.648 38.2444C100.204 28.7461 122.094 21.6186 120.433 26.8885C117.877 35.0062 122.794 32.9822 129.097 31.9485C130.768 31.6901 132.465 31.6295 134.15 31.7678C134.15 31.7678 132.215 28.2763 133.291 26.4982C135.183 23.361 154.445 18.2793 150.149 25.2837C147.867 29.0137 152.221 30.2787 155.881 31.5364C159.05 32.6279 165.988 32.8447 167.173 36.9939C167.577 38.389 166.79 41.7575 166.249 43.7382C168.02 43.9172 169.773 44.2436 171.49 44.714C175.468 46.2754 176.825 50.6052 180.204 51.1329C181.417 51.3209 186.442 51.6967 187.9 51.8558C190.3 52.1643 192.674 52.6475 195.004 53.3015C201.769 37.0089 211.79 38.0713 213.09 40.1962C215.84 36.0904 229.933 35.2086 230.539 40.3336C234.453 38.5047 240.221 39.4228 243.152 42.5527L243.139 42.5529ZM364.238 82.534L374.598 85.3098L377.262 75.3633C377.89 73.0068 378.634 70.6214 379.428 68.1348L379.204 68.0553C377.183 70.2961 375.472 72.2695 373.486 74.3079L364.296 82.4256L364.238 82.534ZM378.611 103.945L370.229 101.697L372.857 91.8659L354.086 86.806L355.602 81.1388L378.365 60.9639L389.332 63.9059L383 87.5579L388.119 88.9313L386.372 95.4369L381.253 94.0635L378.611 103.945ZM333.503 89.7475C337.986 89.9861 340.679 84.9839 341.185 75.3413C341.676 65.8936 339.604 60.6669 335.099 60.4284C330.969 60.2116 327.944 65.0763 327.453 74.6179C326.861 84.3691 329.345 89.4873 333.503 89.7327V89.7475ZM333.128 96.4918C322.565 95.9424 317.83 86.6034 318.4 74.3221C319.05 61.9106 325.028 53.0995 335.67 53.6554C346.564 54.2265 350.983 63.7251 350.362 75.6812C349.697 88.2947 344.059 97.0555 333.129 96.478L333.128 96.4918ZM294.864 62.4596C291.037 62.9945 288.77 66.6232 289.398 71.0182C289.925 74.7626 292.676 77.5817 297 76.9745C300.105 76.5335 302.054 74.8493 302.928 72.9554C303.177 72.2987 303.242 71.5862 303.115 70.8952C302.487 66.2039 299.953 61.7294 294.849 62.445L294.864 62.4596ZM288.193 99.7876L287.211 92.7903C288.671 92.7251 290.122 92.5194 291.542 92.1759C294.673 91.6292 297.589 90.2171 299.961 88.099C302.483 85.799 304.018 82.6096 304.242 79.2007H304.083C302.35 81.6584 299.549 83.2632 295.52 83.8342C288.156 84.8679 281.579 80.6826 280.482 72.8469C279.342 64.7293 285.074 57.0885 294.2 55.8023C304.812 54.306 311.18 61.5851 312.552 71.3223C313.751 79.888 311.83 86.5022 307.903 91.1936C304.401 95.3138 299.167 98.0245 292.792 99.145C291.273 99.4755 289.731 99.6858 288.179 99.7738L288.193 99.7876ZM273.435 103.814L263.682 71.8997H263.559L257.127 77.8343L253.676 71.7768L262.556 63.7604L269.71 61.5918L281.81 101.218L273.435 103.814ZM162.193 57.3131C161.882 57.3131 160.027 58.9178 159.254 60.8623C160.409 60.5948 163.232 59.7202 165.752 58.8816C164.774 57.9753 163.521 57.423 162.193 57.3131ZM171.528 60.3636C171.528 60.3636 158.727 65.4235 156.453 63.3273C153.724 60.8335 159.471 54.0676 161.832 54.0676C167.629 54.0676 171.528 60.3636 171.528 60.3636ZM478.359 60.3636C478.359 60.3636 482.258 54.0675 488.055 54.0675C490.416 54.0675 496.163 60.8623 493.434 63.3561C491.16 65.4018 478.359 60.3636 478.359 60.3636ZM487.694 57.3131C486.348 57.4119 485.076 57.9649 484.084 58.8816C486.626 59.7202 489.449 60.5948 490.582 60.8623C489.846 58.9178 488.005 57.3131 487.694 57.3131ZM484.417 436.546V412.316C484.417 407.979 484.294 404.365 484.128 401.264H493.116L493.6 406.526H493.838C496.367 402.62 500.741 400.31 505.389 400.425C512.197 400.425 518.637 404.762 518.637 416.017V436.546H508.32V417.34C508.32 412.28 506.393 408.745 501.772 408.745C498.769 408.782 496.116 410.711 495.152 413.559C494.871 414.419 494.742 415.322 494.769 416.226V436.546L484.417 436.546ZM131.588 437.08L129.891 388.41L140.222 388.049L141.616 428.067L162.639 427.344L162.935 436.018L131.588 437.08ZM201.885 429.642L178.175 424.091C177.338 429.151 181.597 432.765 187.077 433.994C190.488 434.844 194.021 435.089 197.516 434.717L197.365 441.844C192.894 442.495 188.34 442.264 183.958 441.165C172.082 438.418 166.739 429.874 169.194 419.255C171.172 410.668 178.984 402.102 191.271 404.942C203.184 407.697 204.938 418.048 203.162 425.761C202.869 427.095 202.441 428.395 201.885 429.642ZM179.706 417.151L194.441 420.556C195.026 418.127 194.968 412.821 189.171 411.484C183.937 410.284 180.782 414.216 179.706 417.151ZM212.866 411.636L223.414 415.496L222.807 433.567C222.706 436.777 222.439 439.589 222.085 442.35L222.302 442.437C223.854 440.015 225.435 437.774 227.355 435.208L238.307 420.902L248.616 424.661L223.348 453.005L213.594 449.47L212.866 411.636ZM280.643 452.412L256.761 447.692C256.097 452.788 260.479 456.207 265.995 457.277C269.433 458.011 272.973 458.14 276.456 457.66L276.557 464.787C272.109 465.592 267.547 465.519 263.128 464.57C251.165 462.243 245.534 453.894 247.606 443.188C249.288 434.514 256.797 425.71 269.179 428.117C281.177 430.452 283.293 440.738 281.784 448.508C281.535 449.844 281.153 451.152 280.643 452.412ZM258.039 440.709L272.883 443.601C273.388 441.157 273.15 435.859 267.309 434.724C262.032 433.69 259.014 437.731 258.039 440.709ZM290.758 468.901L292.874 445.459C293.336 440.182 293.552 436.785 293.596 433.734L302.447 434.508L302.202 441.397H302.461C304.764 436.228 309.421 434.255 313.168 434.587C313.943 434.626 314.71 434.764 315.449 434.999L314.612 444.592C313.627 444.29 312.613 444.094 311.587 444.006C307.111 443.616 304.042 445.871 302.995 449.492C302.797 450.26 302.667 451.044 302.606 451.835L301.039 469.783L290.758 468.901ZM333.715 418.236L334.805 449.557H334.95C335.773 448.183 336.726 446.665 337.621 445.372L345.562 434.124L358.146 433.683L345.007 448.415L361.445 468.864L348.58 469.32L338.09 454.675L335.101 458.405L335.498 469.776L325.174 470.137L323.376 418.605L333.715 418.236ZM398.373 425.84L402.994 449.608C403.853 454.061 404.683 457.653 405.383 460.45L396.561 462.163L395.067 456.937L394.836 456.98C393.897 459.525 391.226 464.057 384.512 465.366C377.797 466.674 371.026 463.848 368.831 452.557L364.918 432.382L375.025 430.409L378.635 448.827C379.703 454.328 382.245 457.321 386.67 456.461C389.524 455.885 391.734 453.619 392.244 450.75C392.391 449.936 392.376 449.101 392.2 448.292L388.23 427.785L398.373 425.84ZM414.386 454.531L414.227 446.869C417.581 447.643 421.07 447.621 424.414 446.803C428.024 445.763 429.179 444.013 428.638 442.112C428.06 440.103 426.529 439.517 421.945 439.43C414.162 439.344 410.149 436.387 409 432.202C407.217 425.971 411.209 419.667 419.728 417.217C423.097 416.191 426.654 415.944 430.132 416.494L430.269 423.838C427.505 423.277 424.65 423.346 421.916 424.041C419.029 424.858 417.743 426.513 418.307 428.436C418.87 430.358 420.725 430.807 425.526 430.937C432.746 431.103 436.543 433.467 438.067 438.614C439.821 444.743 436.312 450.902 426.414 453.743C422.521 454.941 418.402 455.211 414.386 454.531ZM476.193 423.722L452.282 428.305C453.574 433.279 458.916 434.811 464.432 433.727C467.895 433.119 471.225 431.911 474.272 430.156L477.03 436.727C473.208 439.139 468.953 440.783 464.504 441.57C452.541 443.897 444.188 438.266 442.124 427.561C440.441 418.887 444.095 407.906 456.484 405.499C468.475 403.165 474.287 411.904 475.796 419.675C476.066 421.01 476.199 422.361 476.193 423.722ZM450.859 421.344L465.703 418.453C465.248 415.995 463.046 411.174 457.206 412.309C451.936 413.328 450.65 418.222 450.859 421.344ZM316.061 155.996H333.201C335.095 155.996 336.63 154.459 336.63 152.562C336.63 150.666 335.095 149.129 333.201 149.129H316.061V155.996ZM316.061 172.672H333.706C335.871 172.672 337.626 170.915 337.626 168.747C337.626 166.579 335.871 164.822 333.706 164.822H316.061V172.672ZM343.618 160.037C347.256 163.58 348.39 168.974 346.489 173.685C344.588 178.396 340.029 181.487 334.955 181.506H306.257V140.303H334.449C339.11 140.311 343.345 143.02 345.31 147.251C347.276 151.483 346.616 156.464 343.618 160.037ZM350.21 230.588H339.691L336.384 223.721H313.389L310.076 230.588H299.521L320.097 189.385H329.634L350.21 230.588ZM324.869 199.931L317.65 214.901H332.089L324.869 199.931ZM338.847 239.42H350.636L329.772 266.245V280.623H319.967V266.245L299.103 239.42H310.892L324.87 258.215L338.847 239.42ZM393.715 239.42V248.254H366.281V255.121H392.734V263.947H366.267V271.797H393.701V280.623H356.47V239.421L393.715 239.42ZM424.572 264.93H417.215V280.624H407.418V239.421H432.448C438.778 239.443 444.133 244.112 445.026 250.386C445.919 256.661 442.079 262.641 436.007 264.432L448.078 280.624H436.325L424.572 264.93ZM431.452 248.254H417.215V256.104H431.445C433.61 256.104 435.365 254.347 435.365 252.179C435.365 250.012 433.617 248.254 431.452 248.254ZM303.662 280.624H293.171L289.857 273.749H266.827L263.513 280.624H252.98L273.556 239.421H283.065L303.662 280.624ZM278.328 249.967L271.109 264.93H285.547L278.328 249.967ZM216.189 255.15H233.328C235.163 255.066 236.607 253.552 236.607 251.713C236.607 249.874 235.163 248.36 233.328 248.276H216.189V255.15ZM216.189 271.826H233.834C235.999 271.826 237.754 270.069 237.754 267.901C237.754 265.733 235.999 263.976 233.834 263.976H216.189V271.826ZM243.746 259.183C247.386 262.733 248.517 268.135 246.607 272.849C244.697 277.563 240.127 280.651 235.046 280.659H206.384V239.457H234.541C239.201 239.464 243.437 242.173 245.402 246.405C247.367 250.636 246.707 255.624 243.709 259.197L243.746 259.183ZM343.487 289.449V298.283H316.052V305.15H342.505V313.976H316.052V321.833H343.487V330.659H306.256V289.457L343.487 289.449ZM336.607 353.226C336.611 351.07 334.876 349.314 332.723 349.294H316.052V357.137H332.723C334.87 357.121 336.603 355.376 336.607 353.226ZM306.284 381.663V340.461H333.769C339.832 340.526 345.012 344.853 346.16 350.814C347.309 356.774 344.109 362.721 338.505 365.039L350.866 381.664H339.076L327.315 365.971H316.053V381.664L306.284 381.663Z" fill="black"/>
</g>
<defs>
<clipPath id="clip0_795_5281">
<rect width="649.804" height="512" fill="white" transform="translate(0.0581055 0.574219)"/>
</clipPath>
</defs>
</svg>
