<svg width="1024" height="239" viewBox="0 0 1024 239" fill="none" xmlns="http://www.w3.org/2000/svg">
<g clip-path="url(#clip0_813_449)">
<path d="M118.906 0.0722656C53.9162 0.0722656 1.01619 52.9654 0.98862 117.976C0.981728 138.757 6.41303 159.041 16.7311 176.92L0.00299072 238.029L62.5112 221.632C79.7356 231.027 99.1242 235.975 118.857 235.982H118.906C183.888 235.982 236.788 183.082 236.816 118.072C236.83 86.5664 224.575 56.9424 202.312 34.6589C180.049 12.3685 150.446 0.0860507 118.906 0.0722656ZM118.906 216.07H118.864C101.282 216.07 84.0296 211.335 68.9833 202.409L65.406 200.286L28.3174 210.018L38.2151 173.853L35.8854 170.145C26.0774 154.54 20.8942 136.503 20.9011 117.989C20.9218 63.9521 64.8891 19.9916 118.947 19.9916C145.125 19.9985 169.731 30.2063 188.231 48.7334C206.737 67.2536 216.917 91.8805 216.91 118.065C216.89 172.103 172.922 216.07 118.906 216.07ZM172.66 142.671C169.717 141.196 155.229 134.07 152.527 133.084C149.826 132.098 147.861 131.609 145.897 134.559C143.932 137.509 138.287 144.146 136.571 146.111C134.855 148.082 133.132 148.323 130.189 146.848C127.246 145.373 117.748 142.258 106.499 132.222C97.7388 124.413 91.825 114.764 90.1088 111.814C88.3926 108.864 89.9227 107.272 91.4046 105.803C92.728 104.487 94.3477 102.364 95.8227 100.641C97.2977 98.9178 97.7871 97.6909 98.7658 95.7197C99.7445 93.7553 99.2552 92.0322 98.5177 90.5572C97.7802 89.0822 91.8871 74.5803 89.4333 68.6803C87.0416 62.9389 84.6155 63.7108 82.8027 63.6212C81.0865 63.5316 79.1221 63.5178 77.1578 63.5178C75.1934 63.5178 72.0022 64.2553 69.3003 67.2053C66.5984 70.1553 58.9891 77.2822 58.9891 91.784C58.9891 106.286 69.5484 120.298 71.0165 122.263C72.4915 124.227 91.7906 153.989 121.346 166.747C128.376 169.78 133.862 171.592 138.143 172.95C145.201 175.19 151.624 174.873 156.697 174.115C162.356 173.267 174.129 166.988 176.582 160.103C179.036 153.224 179.036 147.324 178.299 146.09C177.561 144.863 175.597 144.126 172.654 142.651L172.66 142.671ZM381.255 140.873H380.938L361.391 62.0084H337.833L317.962 139.908H317.644L299.538 62.0084H274.38L304.666 176.459H330.147L349.212 98.5525H349.536L368.925 176.459H393.924L424.692 62.0084H400.017L381.262 140.873H381.255ZM501.44 100.717C499.2 97.7805 496.126 95.4853 492.232 93.8242C488.331 92.1769 483.334 91.3498 477.247 91.3498C472.974 91.3498 468.597 92.4388 464.103 94.6375C459.616 96.8225 455.936 100.324 453.048 105.135H452.565V62.0084H429.813V176.452H452.565V133.015C452.565 124.572 453.951 118.513 456.735 114.819C459.513 111.138 464 109.291 470.196 109.291C475.642 109.291 479.432 110.973 481.576 114.343C483.713 117.707 484.781 122.807 484.781 129.645V176.452H507.54V125.482C507.54 120.354 507.078 115.68 506.175 111.455C505.266 107.244 503.694 103.66 501.447 100.717H501.44ZM595.185 158.021V114.908C595.185 109.877 594.069 105.845 591.815 102.805C589.575 99.7587 586.694 97.3808 583.172 95.6714C579.643 93.9621 575.742 92.811 571.468 92.2252C567.195 91.6393 562.977 91.3429 558.813 91.3429C554.223 91.3429 549.653 91.7909 545.118 92.7076C540.569 93.6174 536.489 95.1407 532.856 97.2774C529.224 99.4141 526.226 102.247 523.889 105.769C521.532 109.298 520.195 113.73 519.878 119.078H542.63C543.057 114.591 544.56 111.379 547.124 109.456C549.688 107.533 553.21 106.575 557.697 106.575C559.723 106.575 561.619 106.706 563.383 106.975C565.141 107.244 566.692 107.768 568.029 108.574C569.366 109.374 570.434 110.497 571.234 111.945C572.033 113.385 572.433 115.343 572.433 117.789C572.536 120.147 571.84 121.925 570.352 123.159C568.849 124.393 566.823 125.33 564.259 125.964C561.695 126.612 558.758 127.094 555.443 127.405C552.128 127.735 548.764 128.17 545.352 128.693C541.927 129.231 538.536 129.948 535.179 130.858C531.816 131.761 528.81 133.132 526.198 134.938C523.579 136.765 521.442 139.191 519.781 142.237C518.127 145.284 517.3 149.164 517.3 153.858C517.3 158.131 518.024 161.819 519.464 164.914C520.905 168.022 522.91 170.579 525.474 172.613C528.038 174.646 531.03 176.142 534.448 177.106C537.86 178.065 541.555 178.547 545.504 178.547C550.632 178.547 555.657 177.796 560.564 176.307C565.479 174.797 569.759 172.192 573.391 168.443C573.495 169.835 573.681 171.2 573.949 172.53C574.218 173.86 574.563 175.177 574.99 176.452H598.066C596.998 174.749 596.247 172.185 595.819 168.76C595.385 165.341 595.172 161.771 595.172 158.021H595.185ZM572.433 144.395C572.433 145.69 572.302 147.4 572.033 149.53C571.771 151.673 571.048 153.775 569.869 155.864C568.69 157.945 566.871 159.744 564.417 161.233C561.963 162.736 558.49 163.48 553.996 163.48C552.183 163.48 550.418 163.321 548.709 162.991C547 162.674 545.504 162.108 544.222 161.309C542.94 160.509 541.927 159.413 541.176 158.021C540.431 156.629 540.052 154.926 540.052 152.9C540.052 150.763 540.431 148.992 541.176 147.607C541.927 146.221 542.912 145.07 544.146 144.16C545.366 143.25 546.814 142.534 548.468 141.996C550.122 141.465 551.804 141.038 553.52 140.714C555.333 140.397 557.152 140.121 558.965 139.914C560.792 139.708 562.522 139.432 564.176 139.115C565.837 138.791 567.381 138.391 568.828 137.909C570.269 137.426 571.468 136.771 572.433 135.91V144.401V144.395ZM637.657 68.7424H614.898V93.583H601.12V108.809H614.898V157.704C614.898 161.874 615.601 165.238 616.986 167.802C618.379 170.366 620.274 172.351 622.673 173.736C625.078 175.128 627.856 176.059 631.013 176.534C634.156 177.01 637.505 177.258 641.027 177.258C643.281 177.258 645.57 177.203 647.927 177.106C650.27 176.996 652.407 176.789 654.337 176.459V158.828C653.262 159.041 652.145 159.214 650.966 159.31C649.795 159.42 648.568 159.475 647.286 159.475C643.447 159.475 640.876 158.828 639.594 157.546C638.319 156.264 637.678 153.699 637.678 149.847V108.809H654.344V93.583H637.678V68.7424H637.657ZM731.712 140.156C730.216 137.537 728.238 135.345 725.785 133.58C723.331 131.823 720.519 130.403 717.376 129.328C714.219 128.266 710.986 127.363 707.678 126.612C704.473 125.861 701.33 125.164 698.228 124.523C695.127 123.882 692.377 123.159 689.971 122.366C687.573 121.56 685.629 120.526 684.133 119.237C682.631 117.955 681.893 116.308 681.893 114.267C681.893 112.558 682.307 111.193 683.168 110.18C684.023 109.167 685.071 108.395 686.297 107.85C687.531 107.32 688.882 106.975 690.378 106.81C691.873 106.651 693.266 106.575 694.541 106.575C698.601 106.575 702.13 107.347 705.128 108.898C708.112 110.449 709.773 113.413 710.083 117.789H731.719C731.292 112.661 729.982 108.416 727.797 105.045C725.612 101.682 722.855 98.9867 719.547 96.9534C716.238 94.9201 712.475 93.4796 708.243 92.6249C704.025 91.7703 699.676 91.3429 695.196 91.3429C690.716 91.3429 686.318 91.7427 682.059 92.5353C677.778 93.3418 673.932 94.734 670.52 96.7122C667.095 98.6903 664.352 101.385 662.263 104.804C660.175 108.223 659.134 112.606 659.134 117.948C659.134 121.58 659.885 124.661 661.388 127.17C662.87 129.686 664.855 131.761 667.302 133.422C669.769 135.076 672.574 136.42 675.724 137.426C678.874 138.453 682.107 139.329 685.415 140.08C693.541 141.789 699.876 143.499 704.411 145.215C708.953 146.924 711.221 149.488 711.221 152.907C711.221 154.94 710.745 156.608 709.78 157.945C708.815 159.289 707.616 160.351 706.175 161.15C704.728 161.957 703.122 162.549 701.364 162.915C699.6 163.294 697.911 163.48 696.312 163.48C694.065 163.48 691.908 163.211 689.826 162.68C687.738 162.143 685.898 161.316 684.292 160.192C682.693 159.069 681.376 157.628 680.363 155.864C679.357 154.099 678.84 151.997 678.84 149.53H657.211C657.432 155.085 658.679 159.71 660.981 163.397C663.27 167.085 666.206 170.049 669.79 172.295C673.367 174.536 677.461 176.142 682.059 177.106C686.642 178.065 691.343 178.547 696.147 178.547C700.951 178.547 705.472 178.092 710.015 177.189C714.557 176.279 718.589 174.701 722.111 172.454C725.647 170.214 728.486 167.25 730.685 163.563C732.87 159.868 733.966 155.305 733.966 149.853C733.966 146.001 733.222 142.775 731.726 140.163L731.712 140.156ZM776.9 62.0084L733.635 176.459H758.951L767.919 150.97H810.707L819.35 176.459H845.48L802.698 62.0084H776.893H776.9ZM774.501 132.222L789.403 90.2263H789.72L804.146 132.222H774.501ZM924.165 104.811C921.07 100.751 917.169 97.491 912.468 95.0373C907.768 92.5767 902.164 91.3498 895.651 91.3498C890.516 91.3498 885.822 92.363 881.549 94.3894C877.261 96.4227 873.746 99.6829 870.975 104.17H870.651V93.583H849.009V205.476H871.782V166.202H872.092C874.87 170.269 878.426 173.336 882.762 175.411C887.076 177.492 891.811 178.54 896.939 178.54C903.032 178.54 908.347 177.355 912.882 175.011C917.424 172.661 921.215 169.504 924.261 165.548C927.308 161.591 929.569 157.056 931.078 151.928C932.56 146.793 933.318 141.451 933.318 135.896C933.318 130.017 932.56 124.386 931.078 118.982C929.569 113.592 927.28 108.857 924.179 104.797L924.165 104.811ZM909.587 145.042C908.939 148.254 907.843 151.053 906.3 153.458C904.749 155.864 902.722 157.821 900.2 159.31C897.698 160.806 894.568 161.564 890.833 161.564C887.097 161.564 884.113 160.813 881.549 159.31C878.984 157.821 876.924 155.864 875.373 153.458C873.822 151.053 872.705 148.254 872.009 145.042C871.313 141.837 870.975 138.577 870.975 135.276C870.975 131.974 871.286 128.535 871.927 125.337C872.574 122.132 873.664 119.299 875.221 116.831C876.758 114.378 878.798 112.379 881.314 110.828C883.823 109.277 886.938 108.492 890.681 108.492C894.424 108.492 897.394 109.277 899.896 110.828C902.405 112.372 904.466 114.398 906.065 116.914C907.664 119.43 908.808 122.29 909.511 125.488C910.215 128.693 910.545 131.961 910.545 135.276C910.545 138.591 910.235 141.844 909.594 145.042H909.587ZM1021.75 118.996C1020.25 113.606 1017.96 108.871 1014.86 104.811C1011.76 100.751 1007.87 97.491 1003.17 95.0373C998.459 92.5767 992.849 91.3498 986.335 91.3498C981.214 91.3498 976.507 92.363 972.24 94.3894C967.967 96.4227 964.438 99.6829 961.66 104.17H961.35V93.583H939.714V205.476H962.467V166.202H962.791C965.568 170.269 969.125 173.336 973.446 175.411C977.768 177.492 982.503 178.54 987.631 178.54C993.717 178.54 999.025 177.355 1003.57 175.011C1008.11 172.661 1011.91 169.504 1014.95 165.548C1018 161.591 1020.26 157.056 1021.76 151.928C1023.26 146.793 1024 141.451 1024 135.896C1024 130.017 1023.26 124.386 1021.76 118.982L1021.75 118.996ZM1000.27 145.042C999.638 148.254 998.542 151.053 996.991 153.458C995.433 155.864 993.407 157.821 990.898 159.31C988.389 160.806 985.267 161.564 981.524 161.564C977.782 161.564 974.79 160.813 972.226 159.31C969.656 157.821 967.608 155.864 966.051 153.458C964.507 151.053 963.383 148.254 962.687 145.042C961.991 141.837 961.646 138.577 961.646 135.276C961.646 131.974 961.97 128.535 962.611 125.337C963.252 122.132 964.348 119.299 965.899 116.831C967.443 114.378 969.476 112.379 971.992 110.828C974.494 109.277 977.623 108.492 981.366 108.492C985.109 108.492 988.065 109.277 990.574 110.828C993.09 112.372 995.144 114.398 996.75 116.914C998.356 119.43 999.507 122.29 1000.2 125.488C1000.9 128.693 1001.24 131.961 1001.24 135.276C1001.24 138.591 1000.91 141.844 1000.27 145.042Z" fill="#25D366"/>
</g>
<defs>
<clipPath id="clip0_813_449">
<rect width="1024" height="237.957" fill="white" transform="translate(0.00299072 0.0722656)"/>
</clipPath>
</defs>
</svg>
