<svg width="1024" height="172" viewBox="0 0 1024 172" fill="none" xmlns="http://www.w3.org/2000/svg">
<g clip-path="url(#clip0_812_207)">
<path fill-rule="evenodd" clip-rule="evenodd" d="M273.64 0.705078L186.325 171.397H104.312L140.853 100.655H139.214C109.067 139.789 64.0882 165.551 0 171.397V101.634C0 101.634 40.9988 99.2123 65.1008 73.8727H0V0.706424H73.1663V60.8846L74.8084 60.8779L104.707 0.706424H160.041V60.503L161.682 60.5004L192.703 0.705078H273.64Z" fill="#146EF5"/>
<path d="M749.776 152.556H773.34V17.2998H749.776V152.556Z" fill="black"/>
<path fill-rule="evenodd" clip-rule="evenodd" d="M619.873 151.175C624.993 153.304 630.201 154.369 635.496 154.369C644.242 154.369 652.068 152.24 658.973 147.981C665.878 143.723 671.23 137.854 675.028 130.373C678.826 122.835 680.724 114.289 680.724 104.737C680.724 95.1853 678.768 86.6403 674.855 79.1021C670.942 71.564 665.504 65.7233 658.541 61.5801C651.579 57.3795 643.666 55.3079 634.804 55.3654C629.166 55.3654 623.757 56.4588 618.577 58.6454C613.399 60.8321 609.083 63.9394 605.63 67.9675C605.364 68.2742 605.105 68.5839 604.854 68.8967V17.3867H581.203V152.557H604.681L604.634 139.929C605.24 140.674 605.89 141.401 606.579 142.112C610.319 145.968 614.751 148.988 619.873 151.175ZM644.041 129.338C640.185 131.697 635.783 132.877 630.834 132.877C625.943 132.877 621.454 131.668 617.369 129.252C613.283 126.777 610.032 123.411 607.615 119.152C605.256 114.894 604.076 110.06 604.076 104.651C604.019 99.242 605.169 94.4086 607.529 90.1505C609.946 85.8348 613.197 82.4972 617.283 80.1379C621.368 77.7211 625.886 76.5414 630.834 76.599C635.783 76.5414 640.185 77.6923 644.041 80.0516C647.953 82.3533 650.945 85.6621 653.017 89.9778C655.146 94.236 656.211 99.1273 656.211 104.651C656.211 110.176 655.146 115.067 653.017 119.325C650.945 123.584 647.953 126.921 644.041 129.338Z" fill="black"/>
<path d="M307.778 25.5H334.709L358.799 113.478L384.427 25.5H406.869L434.662 111.713L457.795 25.5H482.481L446.056 152.556H422.837L394.574 68.3331L368.631 152.556H345.153L307.778 25.5Z" fill="black"/>
<path fill-rule="evenodd" clip-rule="evenodd" d="M522.25 154.8C512.87 154.858 504.411 152.786 496.873 148.586C489.392 144.327 483.494 138.429 479.178 130.891C474.92 123.353 472.791 114.75 472.791 105.082C472.791 95.7024 474.978 87.2151 479.351 79.6194C483.724 72.0237 489.651 66.0967 497.132 61.8385C504.613 57.5803 512.956 55.4512 522.163 55.4512C532.521 55.4512 541.584 57.7529 549.352 62.3563C557.178 66.9598 563.019 73.491 566.875 81.9499C570.787 90.3512 572.197 99.9896 571.104 110.866H497.169C497.376 115.198 498.457 119.14 500.412 122.691C502.599 126.603 505.648 129.653 509.561 131.84C513.475 134.027 517.847 135.12 522.682 135.12C526.364 135.062 529.788 134.43 532.952 133.221C536.118 131.955 538.793 130.258 540.98 128.128C543.224 125.999 544.807 123.583 545.728 120.879H570.414C568.917 127.496 565.925 133.394 561.437 138.573C556.948 143.694 551.309 147.693 544.519 150.57C537.729 153.448 530.306 154.858 522.25 154.8ZM500.498 87.1289C499.119 89.5335 498.164 92.1226 497.632 94.8973H546.642C546.286 91.3925 545.204 88.1988 543.397 85.3162C541.325 81.9211 538.506 79.3029 534.938 77.4615C531.371 75.5626 527.342 74.6131 522.854 74.6131C518.078 74.6131 513.734 75.7064 509.82 77.8931C505.907 80.0797 502.8 83.1584 500.498 87.1289Z" fill="black"/>
<path d="M698.074 57.4372C698.074 49.7264 699.828 42.8787 703.339 36.8941C706.849 30.8521 711.769 26.1623 718.099 22.8248C724.486 19.4297 731.938 17.6746 740.454 17.5596V38.5341C736.484 38.5917 733.089 39.4261 730.27 41.0373C727.507 42.591 725.378 44.8639 723.882 47.8562C722.505 50.6109 721.761 53.8046 721.652 57.4372H739.936V77.376H721.638V152.557H698.074V77.376H682.883V57.4372H698.074Z" fill="black"/>
<path fill-rule="evenodd" clip-rule="evenodd" d="M833.242 154.628C823.632 154.628 815.029 152.527 807.434 148.327C799.896 144.068 793.969 138.199 789.653 130.718C785.395 123.18 783.266 114.635 783.266 105.082C783.266 95.4734 785.395 86.8991 789.653 79.3609C793.969 71.7651 799.896 65.867 807.434 61.6663C815.029 57.4656 823.632 55.3652 833.242 55.3652C842.909 55.3652 851.541 57.4656 859.136 61.6663C866.79 65.867 872.746 71.7364 877.004 79.2746C881.262 86.8128 883.42 95.4155 883.478 105.082C883.42 114.635 881.262 123.18 877.004 130.718C872.803 138.199 866.876 144.068 859.223 148.327C851.57 152.527 842.909 154.628 833.242 154.628ZM833.242 132.963C838.306 132.963 842.794 131.812 846.707 129.51C850.621 127.151 853.641 123.871 855.771 119.67C857.9 115.412 858.964 110.549 858.964 105.082C858.964 99.5586 857.9 94.6673 855.771 90.4092C853.641 86.151 850.621 82.8711 846.707 80.5693C842.794 78.2101 838.306 77.0304 833.242 77.0304C828.236 77.0304 823.777 78.2101 819.863 80.5693C816.008 82.8711 813.015 86.151 810.886 90.4092C808.757 94.6673 807.722 99.5586 807.779 105.082C807.779 110.549 808.844 115.412 810.973 119.67C813.159 123.871 816.151 127.151 819.949 129.51C823.805 131.812 828.236 132.963 833.242 132.963Z" fill="black"/>
<path d="M908.94 57.4365H882.701L911.099 152.556H934.059L952.736 91.8032L972.897 152.556H995.513L1024 57.4365H1000.26L984.105 116.643L966.249 57.4365H943.294L925.525 117.947L908.94 57.4365Z" fill="black"/>
</g>
<defs>
<clipPath id="clip0_812_207">
<rect width="1024" height="170.692" fill="white" transform="translate(0 0.705078)"/>
</clipPath>
</defs>
</svg>
