<svg width="496" height="512" viewBox="0 0 496 512" fill="none" xmlns="http://www.w3.org/2000/svg">
<g clip-path="url(#clip0_746_223)">
<path d="M477.739 171.763C466.957 145.819 445.086 117.808 427.959 108.953C440.175 132.612 448.652 158.02 453.089 184.274L453.134 184.69C425.077 114.741 377.499 86.5375 338.642 25.1234C336.635 21.9925 334.686 18.8248 332.796 15.6219C331.822 13.9489 330.91 12.2403 330.062 10.4998C328.451 7.37884 327.209 4.08052 326.362 0.671729C326.363 0.514431 326.306 0.362218 326.202 0.244129C326.098 0.126039 325.954 0.050338 325.798 0.0314658C325.645 -0.0104886 325.484 -0.0104886 325.331 0.0314658C325.299 0.0314658 325.248 0.0890895 325.209 0.101895C325.171 0.1147 325.087 0.172324 325.03 0.197934L325.126 0.0314658C262.796 36.5265 241.648 104.087 239.702 137.88C214.81 139.591 191.012 148.764 171.411 164.201C169.366 162.469 167.229 160.849 165.009 159.348C159.355 139.557 159.114 118.612 164.311 98.6961C141.421 109.785 121.082 125.504 104.581 144.859H104.465C94.631 132.393 95.3224 91.2882 95.8859 82.7023C92.9765 83.8716 90.1993 85.346 87.6009 87.1009C78.9192 93.2971 70.8031 100.25 63.3477 107.877C54.852 116.491 47.0927 125.801 40.1509 135.71V135.748V135.703C24.1971 158.321 12.8815 183.875 6.85722 210.889L6.52429 212.529C5.609 217.677 4.79571 222.843 4.08488 228.023C4.08488 228.209 4.04647 228.381 4.02726 228.567C1.85509 239.857 0.509097 251.291 0 262.776V264.057C0.0544039 326.19 23.4146 386.042 65.4639 431.785C107.513 477.527 165.192 505.832 227.101 511.104C289.01 516.377 350.644 498.234 399.823 460.261C449.002 422.289 482.148 367.249 492.708 306.02C493.125 302.819 493.464 299.649 493.835 296.416C498.946 254.173 493.413 211.322 477.739 171.763ZM191.733 366.006C192.892 366.563 193.981 367.165 195.172 367.696L195.344 367.805C194.141 367.229 192.937 366.629 191.733 366.006ZM453.153 184.748V184.511L453.198 184.773L453.153 184.748Z" fill="url(#paint0_linear_746_223)"/>
<path d="M477.739 171.763C466.957 145.82 445.086 117.808 427.959 108.953C440.175 132.612 448.652 158.02 453.089 184.274V184.511L453.134 184.773C472.26 239.506 469.494 299.513 445.412 352.253C416.972 413.277 348.131 475.824 240.374 472.783C123.942 469.486 21.404 383.088 2.23452 269.928C-1.25492 252.084 2.23452 243.037 3.98884 228.535C1.59571 239.8 0.260295 251.263 0 262.776V264.057C0.0544039 326.19 23.4146 386.042 65.4639 431.785C107.513 477.527 165.192 505.832 227.101 511.104C289.01 516.377 350.644 498.234 399.823 460.261C449.002 422.289 482.148 367.249 492.708 306.02C493.125 302.819 493.464 299.649 493.835 296.416C498.946 254.173 493.413 211.322 477.739 171.763Z" fill="url(#paint1_radial_746_223)"/>
<path d="M477.739 171.763C466.957 145.82 445.086 117.808 427.959 108.953C440.175 132.612 448.652 158.02 453.089 184.274V184.511L453.134 184.773C472.26 239.506 469.494 299.513 445.412 352.253C416.972 413.277 348.131 475.824 240.374 472.783C123.942 469.486 21.404 383.088 2.23452 269.928C-1.25492 252.084 2.23452 243.037 3.98884 228.535C1.59571 239.8 0.260295 251.263 0 262.776V264.057C0.0544039 326.19 23.4146 386.042 65.4639 431.785C107.513 477.527 165.192 505.832 227.101 511.104C289.01 516.377 350.644 498.234 399.823 460.261C449.002 422.289 482.148 367.249 492.708 306.02C493.125 302.819 493.464 299.649 493.835 296.416C498.946 254.173 493.413 211.322 477.739 171.763Z" fill="url(#paint2_radial_746_223)"/>
<path d="M357.152 200.933C357.69 201.311 358.189 201.689 358.695 202.067C352.462 191.014 344.702 180.894 335.645 172.006C258.519 94.8673 315.432 4.75024 325.03 0.172352L325.126 0.0314941C262.796 36.5265 241.648 104.087 239.702 137.88C242.596 137.682 245.464 137.438 248.422 137.438C270.538 137.479 292.249 143.375 311.347 154.528C330.445 165.681 346.249 181.692 357.152 200.933Z" fill="url(#paint3_radial_746_223)"/>
<path d="M248.582 216.338C248.173 222.51 226.365 243.799 218.74 243.799C148.176 243.799 136.722 286.485 136.722 286.485C139.846 322.43 164.894 352.036 195.172 367.696C196.555 368.414 197.957 369.06 199.359 369.694C201.788 370.77 204.216 371.764 206.645 372.678C217.036 376.355 227.92 378.455 238.934 378.907C362.613 384.708 386.572 231.007 297.319 186.406C318.375 183.666 339.697 188.843 357.152 200.933C346.249 181.692 330.445 165.681 311.347 154.528C292.249 143.375 270.538 137.479 248.422 137.438C245.477 137.438 242.596 137.682 239.702 137.88C214.81 139.591 191.012 148.764 171.411 164.201C175.195 167.403 179.466 171.68 188.462 180.547C205.301 197.137 248.486 214.321 248.582 216.338Z" fill="url(#paint4_radial_746_223)"/>
<path d="M248.582 216.338C248.173 222.51 226.365 243.799 218.74 243.799C148.176 243.799 136.722 286.485 136.722 286.485C139.846 322.43 164.894 352.036 195.172 367.696C196.555 368.414 197.957 369.06 199.359 369.694C201.788 370.77 204.216 371.764 206.645 372.678C217.036 376.355 227.92 378.455 238.934 378.907C362.613 384.708 386.572 231.007 297.319 186.406C318.375 183.666 339.697 188.843 357.152 200.933C346.249 181.692 330.445 165.681 311.347 154.528C292.249 143.375 270.538 137.479 248.422 137.438C245.477 137.438 242.596 137.682 239.702 137.88C214.81 139.591 191.012 148.764 171.411 164.201C175.195 167.403 179.466 171.68 188.462 180.547C205.301 197.137 248.486 214.321 248.582 216.338Z" fill="url(#paint5_radial_746_223)"/>
<path d="M159.842 155.948C161.852 157.229 163.511 158.343 164.964 159.348C159.31 139.557 159.069 118.612 164.266 98.696C141.376 109.785 121.037 125.504 104.536 144.859C105.746 144.827 141.742 144.18 159.842 155.948Z" fill="url(#paint6_radial_746_223)"/>
<path d="M2.26652 269.928C21.4168 383.088 123.974 469.486 240.406 472.783C348.163 475.831 417.004 413.277 445.444 352.253C469.526 299.513 472.292 239.506 453.166 184.773V184.536C453.166 184.351 453.127 184.242 453.166 184.299L453.211 184.716C462.014 242.192 432.78 297.876 387.078 335.53L386.937 335.85C297.889 408.372 212.67 379.605 195.421 367.863C194.218 367.287 193.014 366.687 191.81 366.064C139.891 341.247 118.442 293.945 123.039 253.377C110.715 253.559 98.6024 250.163 88.1691 243.6C77.7357 237.038 69.4295 227.59 64.2569 216.402C77.8856 208.053 93.4255 203.333 109.396 202.692C125.366 202.05 141.234 205.51 155.488 212.74C184.875 226.081 218.316 227.395 248.659 216.402C248.563 214.385 205.377 197.194 188.538 180.611C179.543 171.744 175.272 167.473 171.488 164.266C169.443 162.533 167.306 160.913 165.086 159.412C163.613 158.407 161.955 157.319 159.963 156.013C141.863 144.244 105.868 144.891 104.677 144.923H104.561C94.727 132.457 95.4185 91.3523 95.9819 82.7664C93.0725 83.9356 90.2953 85.4101 87.6969 87.165C79.0152 93.3612 70.8991 100.314 63.4437 107.942C54.9176 116.531 47.1261 125.819 40.1509 135.71V135.748V135.703C24.1971 158.321 12.8814 183.875 6.85721 210.89C6.73556 211.395 -2.08087 249.939 2.26652 269.928Z" fill="url(#paint7_radial_746_223)"/>
<path d="M335.658 172.006C344.717 180.904 352.477 191.034 358.708 202.099C360.071 203.13 361.346 204.154 362.428 205.146C418.688 257.008 389.21 330.318 387.014 335.536C432.716 297.882 461.925 242.198 453.147 184.722C425.077 114.741 377.499 86.5375 338.642 25.1234C336.635 21.9925 334.686 18.8248 332.796 15.6219C331.822 13.9489 330.91 12.2403 330.062 10.4998C328.451 7.37884 327.209 4.08052 326.362 0.671729C326.363 0.514431 326.306 0.362218 326.202 0.244129C326.098 0.126039 325.954 0.050338 325.798 0.0314658C325.645 -0.0104886 325.484 -0.0104886 325.331 0.0314658C325.299 0.0314658 325.248 0.0890895 325.209 0.101895C325.171 0.1147 325.087 0.172324 325.03 0.197934C315.432 4.75021 258.519 94.8673 335.658 172.006Z" fill="url(#paint8_radial_746_223)"/>
<path d="M362.389 205.114C361.197 204.041 359.956 203.024 358.669 202.067C358.164 201.689 357.664 201.311 357.126 200.933C339.672 188.843 318.349 183.666 297.294 186.406C386.546 231.032 362.601 384.708 238.908 378.907C227.894 378.455 217.011 376.355 206.62 372.678C204.191 371.769 201.762 370.774 199.333 369.694C197.931 369.054 196.529 368.414 195.146 367.696L195.319 367.805C212.568 379.58 297.761 408.347 386.835 335.792L386.975 335.472C389.197 330.286 418.675 256.956 362.389 205.114Z" fill="url(#paint9_radial_746_223)"/>
<path d="M136.722 286.486C136.722 286.486 148.176 243.799 218.74 243.799C226.365 243.799 248.192 222.51 248.582 216.338C218.239 227.331 184.798 226.017 155.411 212.676C141.157 205.446 125.289 201.986 109.319 202.628C93.3486 203.269 77.8088 207.989 64.18 216.338C69.3527 227.526 77.6589 236.974 88.0922 243.536C98.5256 250.099 110.638 253.495 122.963 253.313C118.366 293.887 139.814 341.19 191.733 366C192.892 366.557 193.981 367.159 195.172 367.69C164.868 352.036 139.846 322.43 136.722 286.486Z" fill="url(#paint10_radial_746_223)"/>
<path d="M477.739 171.763C466.957 145.819 445.086 117.808 427.959 108.953C440.175 132.612 448.652 158.02 453.089 184.274L453.134 184.69C425.077 114.741 377.499 86.5375 338.642 25.1234C336.635 21.9925 334.686 18.8248 332.796 15.6219C331.822 13.9489 330.91 12.2403 330.062 10.4998C328.451 7.37884 327.209 4.08052 326.362 0.671729C326.363 0.514431 326.306 0.362218 326.202 0.244129C326.098 0.126039 325.954 0.050338 325.798 0.0314658C325.645 -0.0104886 325.484 -0.0104886 325.331 0.0314658C325.299 0.0314658 325.248 0.0890895 325.209 0.101895C325.171 0.1147 325.087 0.172324 325.03 0.197934L325.126 0.0314658C262.796 36.5265 241.648 104.087 239.702 137.88C242.596 137.682 245.464 137.438 248.422 137.438C270.538 137.479 292.249 143.375 311.347 154.528C330.445 165.681 346.249 181.692 357.152 200.933C339.697 188.843 318.375 183.666 297.319 186.406C386.572 231.032 362.626 384.708 238.934 378.907C227.92 378.455 217.036 376.355 206.645 372.678C204.216 371.769 201.788 370.774 199.359 369.694C197.957 369.054 196.555 368.414 195.172 367.696L195.344 367.805C194.141 367.229 192.937 366.629 191.733 366.006C192.892 366.563 193.981 367.165 195.172 367.696C164.868 352.036 139.846 322.43 136.722 286.485C136.722 286.485 148.176 243.799 218.74 243.799C226.365 243.799 248.192 222.51 248.582 216.338C248.486 214.321 205.301 197.13 188.462 180.547C179.466 171.68 175.195 167.409 171.411 164.201C169.366 162.469 167.229 160.849 165.009 159.348C159.355 139.557 159.114 118.612 164.311 98.6961C141.421 109.785 121.082 125.504 104.581 144.859H104.465C94.631 132.393 95.3224 91.2882 95.8859 82.7023C92.9765 83.8716 90.1993 85.346 87.6009 87.1009C78.9192 93.2971 70.8031 100.25 63.3477 107.877C54.852 116.491 47.0927 125.801 40.1509 135.71V135.748V135.703C24.1971 158.321 12.8815 183.875 6.85722 210.889L6.52429 212.529C6.05689 214.712 3.96323 225.801 3.66231 228.183C3.66231 227.997 3.66231 228.362 3.66231 228.183C1.74735 239.63 0.524358 251.182 0 262.776V264.057C0.0544039 326.19 23.4146 386.042 65.4639 431.785C107.513 477.527 165.192 505.832 227.101 511.104C289.01 516.377 350.644 498.234 399.823 460.261C449.002 422.289 482.148 367.249 492.708 306.02C493.125 302.819 493.464 299.649 493.835 296.416C498.946 254.173 493.413 211.322 477.739 171.763Z" fill="url(#paint11_linear_746_223)"/>
</g>
<defs>
<linearGradient id="paint0_linear_746_223" x1="444.894" y1="79.3217" x2="32.9543" y2="476.765" gradientUnits="userSpaceOnUse">
<stop offset="0.048" stop-color="#FFF44F"/>
<stop offset="0.111" stop-color="#FFE847"/>
<stop offset="0.225" stop-color="#FFC830"/>
<stop offset="0.368" stop-color="#FF980E"/>
<stop offset="0.401" stop-color="#FF8B16"/>
<stop offset="0.462" stop-color="#FF672A"/>
<stop offset="0.534" stop-color="#FF3647"/>
<stop offset="0.705" stop-color="#E31587"/>
</linearGradient>
<radialGradient id="paint1_radial_746_223" cx="0" cy="0" r="1" gradientUnits="userSpaceOnUse" gradientTransform="translate(425.859 56.8229) scale(517.314 517.314)">
<stop offset="0.129" stop-color="#FFBD4F"/>
<stop offset="0.186" stop-color="#FFAC31"/>
<stop offset="0.247" stop-color="#FF9D17"/>
<stop offset="0.283" stop-color="#FF980E"/>
<stop offset="0.403" stop-color="#FF563B"/>
<stop offset="0.467" stop-color="#FF3750"/>
<stop offset="0.71" stop-color="#F5156C"/>
<stop offset="0.782" stop-color="#EB0878"/>
<stop offset="0.86" stop-color="#E50080"/>
</radialGradient>
<radialGradient id="paint2_radial_746_223" cx="0" cy="0" r="1" gradientUnits="userSpaceOnUse" gradientTransform="translate(236.827 268.315) scale(517.314 517.314)">
<stop offset="0.3" stop-color="#960E18"/>
<stop offset="0.351" stop-color="#B11927" stop-opacity="0.74"/>
<stop offset="0.435" stop-color="#DB293D" stop-opacity="0.343"/>
<stop offset="0.497" stop-color="#F5334B" stop-opacity="0.094"/>
<stop offset="0.53" stop-color="#FF3750" stop-opacity="0"/>
</radialGradient>
<radialGradient id="paint3_radial_746_223" cx="0" cy="0" r="1" gradientUnits="userSpaceOnUse" gradientTransform="translate(299.195 -60.5759) scale(374.772 374.772)">
<stop offset="0.132" stop-color="#FFF44F"/>
<stop offset="0.252" stop-color="#FFDC3E"/>
<stop offset="0.506" stop-color="#FF9D12"/>
<stop offset="0.526" stop-color="#FF980E"/>
</radialGradient>
<radialGradient id="paint4_radial_746_223" cx="0" cy="0" r="1" gradientUnits="userSpaceOnUse" gradientTransform="translate(179.607 403.442) scale(246.316 246.316)">
<stop offset="0.353" stop-color="#3A8EE6"/>
<stop offset="0.472" stop-color="#5C79F0"/>
<stop offset="0.669" stop-color="#9059FF"/>
<stop offset="1" stop-color="#C139E6"/>
</radialGradient>
<radialGradient id="paint5_radial_746_223" cx="0" cy="0" r="1" gradientUnits="userSpaceOnUse" gradientTransform="translate(265.096 225.919) rotate(-13.5916) scale(130.595 152.894)">
<stop offset="0.206" stop-color="#9059FF" stop-opacity="0"/>
<stop offset="0.278" stop-color="#8C4FF3" stop-opacity="0.064"/>
<stop offset="0.747" stop-color="#7716A8" stop-opacity="0.45"/>
<stop offset="0.975" stop-color="#6E008B" stop-opacity="0.6"/>
</radialGradient>
<radialGradient id="paint6_radial_746_223" cx="0" cy="0" r="1" gradientUnits="userSpaceOnUse" gradientTransform="translate(230.296 35.6557) scale(177.199 177.199)">
<stop stop-color="#FFE226"/>
<stop offset="0.121" stop-color="#FFDB27"/>
<stop offset="0.295" stop-color="#FFC82A"/>
<stop offset="0.502" stop-color="#FFA930"/>
<stop offset="0.732" stop-color="#FF7E37"/>
<stop offset="0.792" stop-color="#FF7139"/>
</radialGradient>
<radialGradient id="paint7_radial_746_223" cx="0" cy="0" r="1" gradientUnits="userSpaceOnUse" gradientTransform="translate(369.579 -76.7361) scale(756.03 756.03)">
<stop offset="0.113" stop-color="#FFF44F"/>
<stop offset="0.456" stop-color="#FF980E"/>
<stop offset="0.622" stop-color="#FF5634"/>
<stop offset="0.716" stop-color="#FF3647"/>
<stop offset="0.904" stop-color="#E31587"/>
</radialGradient>
<radialGradient id="paint8_radial_746_223" cx="0" cy="0" r="1" gradientUnits="userSpaceOnUse" gradientTransform="translate(305.858 -34.6993) rotate(83.976) scale(554.112 363.659)">
<stop stop-color="#FFF44F"/>
<stop offset="0.06" stop-color="#FFE847"/>
<stop offset="0.168" stop-color="#FFC830"/>
<stop offset="0.304" stop-color="#FF980E"/>
<stop offset="0.356" stop-color="#FF8B16"/>
<stop offset="0.455" stop-color="#FF672A"/>
<stop offset="0.57" stop-color="#FF3647"/>
<stop offset="0.737" stop-color="#E31587"/>
</radialGradient>
<radialGradient id="paint9_radial_746_223" cx="0" cy="0" r="1" gradientUnits="userSpaceOnUse" gradientTransform="translate(226.122 101.289) scale(472.002 472.002)">
<stop offset="0.137" stop-color="#FFF44F"/>
<stop offset="0.48" stop-color="#FF980E"/>
<stop offset="0.592" stop-color="#FF5634"/>
<stop offset="0.655" stop-color="#FF3647"/>
<stop offset="0.904" stop-color="#E31587"/>
</radialGradient>
<radialGradient id="paint10_radial_746_223" cx="0" cy="0" r="1" gradientUnits="userSpaceOnUse" gradientTransform="translate(350.717 128.917) scale(516.603 516.603)">
<stop offset="0.094" stop-color="#FFF44F"/>
<stop offset="0.231" stop-color="#FFE141"/>
<stop offset="0.509" stop-color="#FFAF1E"/>
<stop offset="0.626" stop-color="#FF980E"/>
</radialGradient>
<linearGradient id="paint11_linear_746_223" x1="439.944" y1="77.1961" x2="89.4256" y2="427.708" gradientUnits="userSpaceOnUse">
<stop offset="0.167" stop-color="#FFF44F" stop-opacity="0.8"/>
<stop offset="0.266" stop-color="#FFF44F" stop-opacity="0.634"/>
<stop offset="0.489" stop-color="#FFF44F" stop-opacity="0.217"/>
<stop offset="0.6" stop-color="#FFF44F" stop-opacity="0"/>
</linearGradient>
<clipPath id="clip0_746_223">
<rect width="495.683" height="512" fill="white"/>
</clipPath>
</defs>
</svg>
