<svg width="419" height="513" viewBox="0 0 419 513" fill="none" xmlns="http://www.w3.org/2000/svg">
<g clip-path="url(#clip0_795_4216)">
<mask id="mask0_795_4216" style="mask-type:luminance" maskUnits="userSpaceOnUse" x="0" y="0" width="419" height="513">
<path d="M418.255 0.574707H0.149902V512.575H418.255V0.574707Z" fill="white"/>
</mask>
<g mask="url(#mask0_795_4216)">
<path d="M417.333 127.885L210.225 0.864744C209.919 0.675152 209.566 0.574707 209.206 0.574707C208.846 0.574707 208.493 0.675152 208.187 0.864744L1.08491 127.897C0.801335 128.069 0.566438 128.31 0.402722 128.598C0.239005 128.885 0.151955 129.211 0.149903 129.542V383.607C0.149743 383.941 0.235745 384.268 0.399568 384.559C0.563391 384.849 0.799471 385.092 1.08491 385.265L208.187 512.297C208.493 512.487 208.846 512.587 209.206 512.587C209.566 512.587 209.919 512.487 210.225 512.297L417.333 385.265C417.617 385.091 417.852 384.848 418.015 384.558C418.178 384.267 418.263 383.94 418.262 383.607V129.542C418.264 129.208 418.179 128.879 418.017 128.588C417.854 128.296 417.618 128.052 417.333 127.878" fill="#101820"/>
</g>
<path d="M209.206 499.271L11.4541 377.984V135.165L209.206 13.8774L406.958 135.165V377.984L209.206 499.271ZM18.9793 373.477L209.206 490.153L399.433 373.477V139.672L209.206 22.9954L18.9793 139.672V373.477Z" fill="#FF6B00"/>
<path d="M281.163 111.693L290.391 102.465L285.122 97.1841L273.702 108.604V125.783H281.163V111.693Z" fill="#FF6B00"/>
<path d="M259.845 125.782H267.306V108.604L255.886 97.1904L250.611 102.465L259.845 111.693V125.782Z" fill="#FF6B00"/>
<path d="M148.269 139.64V132.179H107.367L93.0194 117.638L87.7446 122.913L104.472 139.64H148.269Z" fill="#FF6B00"/>
<path d="M305.79 132.179H182.387V139.64H302.701L327.766 164.698V222.231L302.501 247.489H287.496V254.95H305.59L335.226 225.326V161.61L305.79 132.179Z" fill="#FF6B00"/>
<path d="M253.448 247.489H104.472L87.7446 264.016L93.0194 269.491L107.56 254.943H253.448V247.489Z" fill="#FF6B00"/>
<path d="M111.932 146.037H104.472V241.092H111.932V146.037Z" fill="#FF6B00"/>
<path d="M148.269 153.498V146.037H118.329V241.092H253.448V233.632H125.783V153.498H148.269Z" fill="#FF6B00"/>
<path d="M296.73 233.632H287.502V241.092H299.818L321.369 219.542V167.304L300.083 146.037H182.387V153.498H296.994L313.895 170.399V216.447L296.73 233.632Z" fill="#FF6B00"/>
<path d="M154.672 275.43L145.438 284.658L150.713 289.939L162.133 278.519V261.347H154.672V275.43Z" fill="#FF6B00"/>
<path d="M175.991 261.347H168.53V278.519L179.943 289.932L185.218 284.664L175.991 275.43V261.347Z" fill="#FF6B00"/>
<path d="M259.851 182.902H175.991V112.66V111.693L185.218 102.465L179.95 97.1904L168.53 108.604V125.782V190.363H267.312V159.894H259.851V182.902Z" fill="#FF6B00"/>
<path d="M168.53 227.235H175.991V204.22H259.851V275.43L250.617 284.664L255.892 289.932L267.306 278.518V196.766H168.53V227.235Z" fill="#FF6B00"/>
<path d="M281.137 207.342L294.918 193.561L281.17 179.814V159.895H273.709V182.902L284.368 193.561L273.683 204.253V278.428L285.097 289.842L290.371 284.574L281.137 275.34V207.342Z" fill="#FF6B00"/>
<path d="M154.672 180.007L141.111 193.568L154.659 207.109V227.235H162.12V204.02L151.661 193.568L162.133 183.096V125.776V108.604L150.713 97.1904L145.438 102.465L154.672 111.693V180.007Z" fill="#FF6B00"/>
<path d="M232.62 435.504H214.197L226.977 409.601L196.257 443.151H214.68L201.9 469.054L232.62 435.504Z" fill="#FF6B00"/>
<path d="M77.84 328.023H59.4815V307.852H50.4731V358.607H59.4815V336.457H77.84V358.607H86.8484V307.852H77.84V328.023Z" fill="white"/>
<path d="M107.45 307.852L98.8999 316.403V350.076L107.45 358.62H127.956L136.494 350.076V316.403L127.956 307.852H107.45ZM111.758 350.166L107.889 346.297V320.136L111.758 316.267H123.636L127.505 320.136V346.323L123.636 350.192L111.758 350.166Z" fill="white"/>
<path d="M176.629 346.323L172.779 350.166H161.404L157.555 346.323V307.852H148.553V350.057L157.097 358.607H176.661L185.212 350.057V307.852H176.629V346.323Z" fill="white"/>
<path d="M209.122 328.88L205.272 325.03V320.136L209.122 316.287H219.865L225.636 321.909L231.968 315.577L224.16 307.852H204.808L196.264 316.403V328.771L204.808 337.315H220.142L223.985 341.164V346.323L220.142 350.166H207.529L201.107 343.982L194.781 350.308L203.241 358.607H224.45L232.994 350.057V337.424L224.45 328.88H209.122Z" fill="white"/>
<path d="M238.03 316.287H252.281V358.607H261.29V316.287H275.547V307.852H238.03V316.287Z" fill="white"/>
<path d="M290.346 307.852L281.802 316.403V350.076L290.346 358.62H310.845L319.389 350.076V316.403L310.845 307.852H290.346ZM294.653 350.166L290.784 346.297V320.136L294.653 316.267H306.538L310.407 320.136V346.323L306.538 350.192L294.653 350.166Z" fill="white"/>
<path d="M359.388 307.852V342.39L342.029 307.852H331.596V358.607H340.172V324.083L340.456 324.805L357.821 358.607H367.964V307.852H359.388Z" fill="white"/>
<path d="M115.956 371.13L119.967 375.141V392.551L115.956 396.562H99.0615V371.13H115.956ZM113.035 377.514L111.939 376.418H105.994V391.3H111.939L113.035 390.211V377.514Z" fill="white"/>
<path d="M135.72 380.467L136.307 383.311H136.488L137.146 380.467L140.937 371.13H147.321L139.59 388.237V396.594H131.929V388.237L124.197 371.13H132.077L135.72 380.467Z" fill="white"/>
<path d="M163.01 396.594L158.451 383.607L157.825 380.538H157.496V396.594H151.551V371.13H160.669L165.234 384.117L165.853 387.18H166.182V371.13H172.128V396.594H163.01Z" fill="white"/>
<path d="M191.57 391.778H185.347L184.18 396.594H177.609L184.612 371.13H192.821L200.41 396.594H192.737L191.57 391.778ZM186.275 386.619H190.789L189.293 380.635L188.784 377.494H188.423L187.836 380.635L186.275 386.619Z" fill="white"/>
<path d="M215.351 371.13L218.962 384.484L219.652 387.689H219.91L220.568 384.484L224.211 371.13H233.477V396.594H226.545V381.234H226.255L225.636 384.555L222.025 396.594H216.66L212.868 384.555L212.243 381.234H211.953V396.594H206.007V371.13H215.351Z" fill="white"/>
<path d="M240.661 374.96L244.672 370.949H257.62L261.638 374.96V392.764L257.62 396.775H244.672L240.661 392.764V374.96ZM253.609 376.25H248.689L247.593 377.346V390.404L248.689 391.5H253.609L254.706 390.404V377.333L253.609 376.25Z" fill="white"/>
<path d="M276.843 371.13H294.028V376.675H283.775V382.511H292.79V387.728H283.775V396.594H276.843V371.13Z" fill="white"/>
<path d="M299.425 392.764V374.96L303.436 370.949H316.171L319.853 374.741L314.856 378.971L312.154 376.237H307.453L306.357 377.327V390.391L307.453 391.487H312.373L315.546 388.457L320.221 392.945L316.39 396.775H303.436L299.425 392.764Z" fill="white"/>
</g>
<defs>
<clipPath id="clip0_795_4216">
<rect width="418.105" height="512" fill="white" transform="translate(0.149902 0.574707)"/>
</clipPath>
</defs>
</svg>
