<svg width="526" height="513" viewBox="0 0 526 513" fill="none" xmlns="http://www.w3.org/2000/svg">
<g clip-path="url(#clip0_820_408)">
<path d="M503.333 21.8633H21.7252V491.194H503.333V21.8633Z" fill="url(#paint0_radial_820_408)"/>
<path fill-rule="evenodd" clip-rule="evenodd" d="M0.25647 0.0507812V512.051L524.945 511.979L525.385 0.0507812H0.25647ZM21.7261 21.8628H503.333L503.064 491.193H21.6976L21.7261 21.8628Z" fill="#DCDCDC"/>
<path fill-rule="evenodd" clip-rule="evenodd" d="M286.366 350.187C285.074 349.2 284.42 347.909 284.42 345.943V314.653C284.42 313.67 285.732 312.683 287.022 313.67C301.704 323.777 318.86 328.35 335.159 328.35C358.967 328.35 368.747 315.944 368.747 301.939C368.747 289.533 362.554 279.448 339.732 266.08L327.984 259.897C294.418 240.969 284.638 221.739 284.638 197.299C284.638 164.039 307.787 137.301 351.463 137.301C370.693 137.301 383.712 140.233 391.873 144.806C393.492 145.462 393.821 146.426 393.821 148.395V177.734C393.821 179.027 392.509 180.012 391.219 179.027C381.108 172.508 367.432 169.246 352.116 169.246C327.022 169.246 318.86 183.6 318.86 194.999C318.86 207.405 325.052 216.529 347.544 228.914L357.982 234.448C395.155 254.995 404.608 274.875 404.608 299.315C404.608 335.504 378.197 360.623 335.159 360.623C315.928 360.623 298.445 357.033 286.366 350.187ZM175.017 172.79H120.251C118.61 172.79 118.041 171.85 118.369 169.903L122.286 142.246C122.592 140.627 123.248 139.971 124.889 139.971H261.817C263.764 139.971 264.42 140.627 264.749 142.574L267.352 170.188C267.681 172.136 266.696 172.79 265.078 172.79H210.027V356.444C210.027 358.063 209.369 358.764 207.422 358.764H177.621C175.673 358.764 175.017 358.106 175.017 356.162V172.79Z" fill="#DCDCDC"/>
</g>
<defs>
<radialGradient id="paint0_radial_820_408" cx="0" cy="0" r="1" gradientUnits="userSpaceOnUse" gradientTransform="translate(213.734 178.204) scale(314.3 314.3)">
<stop stop-color="#111111" stop-opacity="0.85"/>
<stop offset="0.7669" stop-color="#0A0A0A"/>
</radialGradient>
<clipPath id="clip0_820_408">
<rect width="525.128" height="512" fill="white" transform="translate(0.25647 0.0507812)"/>
</clipPath>
</defs>
</svg>
