<svg width="1024" height="102" viewBox="0 0 1024 102" fill="none" xmlns="http://www.w3.org/2000/svg">
<g clip-path="url(#clip0_806_367)">
<path d="M96.4165 0.874023H-0.00012207V55.4366H96.4165V0.874023Z" fill="white"/>
<path d="M286.913 36.2703L285.626 27.1065H247.028C246.687 27.1065 246.687 27.7104 247.028 27.7104C248.21 27.7104 250.678 30.5987 250.678 34.6686V87.4194C250.678 91.4893 248.21 94.3776 247.028 94.3776C246.687 94.3776 246.687 94.9552 247.028 94.9552H263.492C263.833 94.9552 263.833 94.3776 263.492 94.3776C262.31 94.3776 259.842 91.4893 259.842 87.4194V61.3722H271.474C275.544 61.3722 278.432 63.8404 278.432 65.022C278.432 65.3633 279.036 65.3633 279.036 65.022V52.1297C279.036 51.7883 278.432 51.7883 278.432 52.1297C278.432 53.3112 275.544 55.7794 271.474 55.7794H259.842V34.1435C261.89 33.5395 265.54 33.0407 269.268 33.0407C277.408 33.0407 283.447 34.1435 286.073 36.2703C286.493 36.6116 286.992 36.848 286.913 36.2703ZM299.543 32.1217C299.543 29.0758 296.917 26.4238 293.845 26.4238C290.799 26.4238 288.173 29.0496 288.173 32.1217C288.173 35.1675 290.799 37.6357 293.845 37.6357C296.891 37.6094 299.543 35.1675 299.543 32.1217ZM286.388 94.9552H302.851C303.193 94.9552 303.193 94.3776 302.851 94.3776C301.67 94.3776 299.201 91.4893 299.201 87.4194V44.7514H286.388C286.047 44.7514 286.047 45.3553 286.388 45.3553C287.57 45.3553 290.038 48.2436 290.038 52.3135V87.4194C290.038 91.4893 287.57 94.3776 286.388 94.3776C286.047 94.3776 286.047 94.9552 286.388 94.9552ZM334.806 53.39C335.226 53.6526 335.41 53.4688 335.41 53.1274V44.0424C329.135 43.4385 322.439 48.4537 320.575 52.1822V44.7251H307.761C307.42 44.7251 307.42 45.329 307.761 45.329C308.943 45.329 311.411 48.2173 311.411 52.2872V87.3932C311.411 91.463 308.943 94.3513 307.761 94.3513C307.42 94.3513 307.42 94.929 307.761 94.929H324.225C324.566 94.929 324.566 94.3513 324.225 94.3513C323.043 94.3513 320.575 91.463 320.575 87.3932V64.4181C320.575 58.7202 324.303 52.2084 330.421 52.2084C331.682 52.2084 333.021 52.2084 334.806 53.39ZM376.529 80.9601C377.291 70.8773 368.888 68.5667 360.748 65.2583C354.552 62.7113 347.935 60.8471 348.198 55.5169C348.355 50.8431 353.633 49.3201 358.622 49.3201C363.873 49.3201 368.888 52.1297 371.094 53.5738C371.593 53.9152 371.777 53.6526 371.777 53.0749V45.9592C368.967 44.8564 363.112 43.491 357.624 43.491C347.278 43.491 337.773 48.4011 337.773 57.985C337.773 65.2058 344.39 68.2516 351.007 70.8773C357.624 73.6081 367.89 76.2338 367.208 81.9054C366.368 88.1021 359.908 90.0451 353.895 90.0451C346.858 90.0451 338.876 86.1328 335.988 84.111C335.647 83.9535 334.701 83.4283 335.043 84.6099L336.828 92.5921C339.034 93.7737 348.014 96.2418 353.528 96.2418C364.503 96.2418 375.846 91.7256 376.529 80.9601ZM403.338 49.9241L404.861 44.7514H393.334V33.1457H392.809C387.977 38.8172 383.067 44.0687 377.474 49.1626V49.9241H383.907V82.6668C383.907 91.5681 389.684 96.2418 396.8 96.2418C398.585 96.2418 400.029 95.9793 402.156 95.5592L404.624 89.3624C404.703 89.0999 404.887 88.2596 404.125 88.6798C397.771 91.8306 393.097 89.625 393.097 80.1987V49.9241H403.338ZM493.164 27.7104C493.505 27.7104 493.505 27.1065 493.164 27.1065H479.431C479.09 27.1065 479.09 27.7104 479.431 27.7104C480.613 27.7104 483.081 30.5987 483.081 34.6686V75.3936L442.015 27.1065H428.623C428.282 27.1065 428.282 27.7104 428.623 27.7104C429.805 27.7104 432.273 30.5987 432.273 34.6686V87.4194C432.273 91.4893 429.805 94.3776 428.623 94.3776C428.282 94.3776 428.282 94.9552 428.623 94.9552H442.356C442.697 94.9552 442.697 94.3776 442.356 94.3776C441.174 94.3776 438.706 91.4893 438.706 87.4194V37.0318L488.254 95.0603L489.514 96.2418V34.6423C489.514 30.5725 491.982 27.7104 493.164 27.7104ZM533.39 76.969C533.39 84.1898 525.486 90.4652 517.951 90.4652C513.04 90.4652 508.367 86.658 508.367 80.8026C508.367 73.7656 512.778 72.2427 518.134 70.7986C524.41 69.0919 527.456 68.8555 533.416 66.7287V76.969H533.39ZM548.724 90.3865C548.225 90.7278 542.527 91.2267 542.527 85.5551V61.5298C542.527 49.4777 536.672 43.4648 522.598 43.4648C512.515 43.4648 506.555 45.329 505.137 45.6704L502.59 56.3571C502.511 56.6984 502.748 56.961 503.01 56.6197C504.192 55.3331 509.627 49.0576 520.918 49.0576C527.535 49.0576 533.049 50.8431 533.049 56.5146C533.049 63.6303 523.123 63.8929 515.404 65.2583C506.24 66.86 498.1 71.0349 498.1 81.2752C498.1 90.0189 507.343 96.2156 516.323 96.2156C527.692 96.2156 531.762 91.1217 533.784 88.9948C534.545 92.9072 538.352 96.2156 544.47 96.2156L549.039 90.544C549.328 90.3077 549.065 90.2027 548.724 90.3865ZM573.668 49.9241L575.191 44.7514H563.664V33.1457H563.139C558.308 38.8172 553.398 44.0687 547.779 49.1626V49.9241H554.238V82.6668C554.238 91.5681 560.015 96.2418 567.13 96.2418C568.916 96.2418 570.36 95.9793 572.487 95.5592L574.955 89.3624C575.034 89.0999 575.218 88.2596 574.456 88.6798C568.102 91.8306 563.428 89.625 563.428 80.1987V49.9241H573.668ZM590.106 32.1217C590.106 29.0758 587.48 26.4238 584.434 26.4238C581.388 26.4238 578.736 29.0496 578.736 32.1217C578.736 35.1675 581.362 37.6357 584.434 37.6357C587.48 37.6094 590.106 35.1675 590.106 32.1217ZM576.977 94.9552H593.44C593.782 94.9552 593.782 94.3776 593.44 94.3776C592.259 94.3776 589.79 91.4893 589.79 87.4194V44.7514H576.977C576.636 44.7514 576.636 45.3553 576.977 45.3553C578.158 45.3553 580.627 48.2436 580.627 52.3135V87.4194C580.627 91.4893 578.158 94.3776 576.977 94.3776C576.636 94.3776 576.636 94.9552 576.977 94.9552ZM637.605 69.9321C637.605 82.8244 630.988 90.544 622.008 90.544C613.028 90.544 606.49 82.8244 606.49 69.9321C606.49 56.961 613.632 49.3201 622.008 49.3201C630.673 49.3201 637.605 56.961 637.605 69.9321ZM648.397 69.8533C648.397 55.4381 636.528 43.4648 622.008 43.4648C607.593 43.4648 595.725 55.4118 595.725 69.8533C595.725 84.2685 607.593 96.2418 622.008 96.2418C636.528 96.2418 648.397 84.2685 648.397 69.8533ZM687.494 94.9552H703.957C704.298 94.9552 704.298 94.3776 703.957 94.3776C702.775 94.3776 700.307 91.4893 700.307 87.4194V63.4203C700.307 50.2654 693.008 43.491 681.98 43.491C669.928 43.491 664.939 49.6877 663.836 50.528V44.7514H651.022C650.681 44.7514 650.681 45.3553 651.022 45.3553C652.204 45.3553 654.672 48.2436 654.672 52.3135V87.4194C654.672 91.4893 652.204 94.3776 651.022 94.3776C650.681 94.3776 650.681 94.9552 651.022 94.9552H667.486C667.827 94.9552 667.827 94.3776 667.486 94.3776C666.304 94.3776 663.836 91.4893 663.836 87.4194V63.4203C663.836 55.8582 670.61 50.1866 677.752 50.1866C684.789 50.1866 691.143 54.5191 691.143 63.4203V87.4194C691.143 91.4893 688.675 94.3776 687.494 94.3776C687.152 94.3776 687.152 94.9552 687.494 94.9552ZM743.133 76.969C743.133 84.1898 735.229 90.4652 727.694 90.4652C722.783 90.4652 718.11 86.658 718.11 80.8026C718.11 73.7656 722.521 72.2427 727.851 70.7986C734.127 69.0919 737.172 68.8555 743.107 66.7287V76.969H743.133ZM754.266 96.2418L758.835 90.5703C759.097 90.3077 758.835 90.2289 758.493 90.3865C757.994 90.7278 752.297 91.2267 752.297 85.5551V61.5298C752.297 49.4777 746.441 43.4648 732.367 43.4648C722.285 43.4648 716.35 45.329 714.906 45.6704L712.359 56.3571C712.28 56.6984 712.543 56.961 712.779 56.6197C713.961 55.3331 719.396 49.0576 730.687 49.0576C737.304 49.0576 742.818 50.8431 742.818 56.5146C742.818 63.6303 732.892 63.8929 725.173 65.2583C716.009 66.86 707.869 71.0349 707.869 81.2752C707.869 90.0189 717.112 96.2156 726.118 96.2156C737.487 96.2156 741.557 91.1217 743.579 88.9948C744.341 92.9334 748.148 96.2418 754.266 96.2418ZM760.699 94.9552H777.162C777.504 94.9552 777.504 94.3776 777.162 94.3776C775.981 94.3776 773.512 91.4893 773.512 87.4194V27.1065H760.699C760.357 27.1065 760.357 27.7104 760.699 27.7104C761.88 27.7104 764.349 30.5987 764.349 34.6686V87.4194C764.349 91.4893 761.907 94.3776 760.699 94.3776C760.357 94.3776 760.357 94.9552 760.699 94.9552ZM846.534 74.7634C846.534 88.7585 834.324 89.0211 823.9 89.0211C821.274 89.0211 819.226 88.7585 816.863 88.3384V61.9499C819.673 61.6085 824.425 61.5298 827.471 61.5298C835.506 61.5298 846.534 62.5538 846.534 74.7634ZM824.32 55.5956C821.537 55.5956 818.386 55.4381 816.863 55.0967V33.9597C818.386 33.3557 822.22 33.0407 825.528 33.0407C832.486 33.0407 840.022 34.406 840.022 44.3313C840.022 54.0727 831.278 55.5956 824.32 55.5956ZM856.643 74.6846C856.643 61.451 844.433 57.3023 838.919 56.8822C844.171 55.2805 850.446 49.0838 850.446 41.5217C850.446 26.7652 831.541 27.1065 829.755 27.1065H804.05C803.708 27.1065 803.708 27.7104 804.05 27.7104C805.231 27.7104 807.699 30.5987 807.699 34.6686V87.4194C807.699 91.4893 805.231 94.3776 804.05 94.3776C803.708 94.3776 803.708 94.9552 804.05 94.9552H833.143C837.711 94.9552 856.643 92.5133 856.643 74.6846ZM896.16 76.969C896.16 84.1898 888.257 90.4652 880.721 90.4652C875.811 90.4652 871.137 86.658 871.137 80.8026C871.137 73.7656 875.548 72.2427 880.878 70.7986C887.154 69.0919 890.2 68.8555 896.16 66.7287V76.969ZM907.267 96.2418L911.836 90.5703C912.098 90.3077 911.836 90.2289 911.494 90.3865C910.995 90.7278 905.297 91.2267 905.297 85.5551V61.5298C905.297 49.4777 899.442 43.4648 885.368 43.4648C875.285 43.4648 869.351 45.329 867.907 45.6704L865.36 56.3571C865.281 56.6984 865.518 56.961 865.78 56.6197C866.962 55.3331 872.397 49.0576 883.688 49.0576C890.305 49.0576 895.819 50.8431 895.819 56.5146C895.819 63.6303 885.893 63.8929 878.174 65.2583C869.01 66.86 860.87 71.0349 860.87 81.2752C860.87 90.0189 870.113 96.2156 879.119 96.2156C890.488 96.2156 894.558 91.1217 896.58 88.9948C897.342 92.9334 901.175 96.2418 907.267 96.2418ZM950.197 94.9552H966.661C967.002 94.9552 967.002 94.3776 966.661 94.3776C965.479 94.3776 963.011 91.4893 963.011 87.4194V63.4203C963.011 50.2654 955.711 43.491 944.683 43.491C932.631 43.491 927.642 49.6877 926.54 50.528V44.7514H913.726C913.385 44.7514 913.385 45.3553 913.726 45.3553C914.908 45.3553 917.376 48.2436 917.376 52.3135V87.4194C917.376 91.4893 914.908 94.3776 913.726 94.3776C913.385 94.3776 913.385 94.9552 913.726 94.9552H930.189C930.531 94.9552 930.531 94.3776 930.189 94.3776C929.008 94.3776 926.54 91.4893 926.54 87.4194V63.4203C926.54 55.8582 933.314 50.1866 940.456 50.1866C947.493 50.1866 953.847 54.5191 953.847 63.4203V87.4194C953.847 91.4893 951.379 94.3776 950.197 94.3776C949.856 94.3776 949.856 94.9552 950.197 94.9552ZM983.859 87.4194V27.1065H971.046C970.704 27.1065 970.704 27.7104 971.046 27.7104C972.227 27.7104 974.695 30.5987 974.695 34.6686V87.4194C974.695 91.4893 972.227 94.3776 971.046 94.3776C970.704 94.3776 970.704 94.9552 971.046 94.9552H987.509C987.85 94.9552 987.85 94.3776 987.509 94.3776C986.327 94.3776 983.859 91.4893 983.859 87.4194ZM1013.56 85.5551L996.751 63.4203L1006.07 54.1777C1012.27 48.3224 1017.52 45.3553 1018.7 45.3553C1019.04 45.3553 1019.04 44.7514 1018.7 44.7514H1002.76C1002.42 44.7514 1002.42 45.3553 1002.76 45.3553C1004.71 45.3553 1004.97 48.2436 998.196 54.1777L986.327 64.6019V65.2058L1001.85 85.5551C1006.76 91.7519 1005.15 94.3776 1003.97 94.3776C1003.63 94.3776 1003.63 94.9552 1003.97 94.9552H1023.74C1024.09 94.9552 1024.09 94.3776 1023.74 94.3776C1022.54 94.3776 1018.31 91.8306 1013.56 85.5551Z" fill="#091C5A"/>
<path d="M67.0084 26.081L71.3671 14.8954L75.6733 26.081H87.0689L78.3515 33.1179L81.5549 44.356L71.3671 37.7129L61.153 44.3298L64.8815 33.0917L55.6652 26.081H67.0084ZM59.3413 31.9626L50.6238 38.9995L53.8272 50.2376L43.6394 43.5946L33.4254 50.2376L37.1539 38.9995L27.9376 31.9626H39.2807L43.6394 20.777L47.9456 31.9626H59.3413ZM31.4298 12.1121L22.7124 19.1491L25.9158 30.3872L15.728 23.7441L5.5139 30.3872L9.24243 19.1491L0.0261352 12.1121H11.3693L15.728 0.926538L20.0342 12.1121H31.4298ZM47.9194 6.0467H59.315L50.5976 13.0836L53.801 24.3217L43.6132 17.6787L33.3991 24.3217L37.1276 13.0836L27.9113 6.0467H39.2545L41.25 0.900281H-0.00012207V37.9755H11.3168L15.6755 26.7899L19.9816 37.9755H31.3773L22.6599 45.0125L24.918 52.8896C20.2705 50.6052 14.4151 47.6382 9.18991 45.0125L-0.00012207 38.0018V43.0169V86.919C-0.00012207 86.919 5.90776 91.1989 8.97986 93.3783C9.97763 94.0872 11.5006 95.3476 12.6559 94.4548C15.1766 92.328 20.7956 84.6872 23.8152 78.648C25.1543 75.9697 26.9136 72.7138 28.2527 69.0378C28.8041 67.83 29.5393 65.2568 29.9331 63.8652C30.327 62.421 30.6683 60.9243 30.9047 59.6115L34.6069 61.607L54.7725 56.2768L71.4458 52.5745L78.4303 57.5109L90.036 59.9791L120.127 41.2839L123.882 29.2318L164.239 20.2519L177.814 0.874023L45.9501 0.900281L47.9194 6.0467Z" fill="#091C5A"/>
<path d="M92.6356 75.1295C88.907 65.8344 87.5942 55.8567 89.4059 55.0427C91.9529 54.1237 95.0512 56.5919 97.4406 59.8478C100.618 64.1802 102.745 69.7993 102.745 69.7993C102.745 69.7993 104.635 75.6809 105.58 81.7463C106.526 87.9693 105.817 94.4023 103.427 94.8487C101.353 94.5073 95.8127 84.2145 92.6356 75.1295Z" fill="#A5001D"/>
<path d="M90.141 58.4585C86.2287 59.22 84.0494 57.8021 81.0298 57.1194C76.9862 56.3842 77.17 55.7015 75.0694 55.3339C72.5749 54.2311 66.352 54.2573 65.0129 54.8875C60.838 56.8568 57.8446 55.8328 54.2474 57.0406C53.0658 57.7758 50.9915 61.1105 49.5999 62.3446C48.1557 63.0535 45.9764 64.6552 44.9523 65.3117C44.7948 66.3619 46.0026 69.3815 48.1032 69.6966C50.3613 70.353 52.882 70.2218 54.7725 69.6178C56.8206 69.3028 58.3435 67.3597 59.3413 66.5195C60.7592 66.5983 64.2251 65.7055 65.8006 66.0469C67.0084 66.6508 72.0498 71.0357 72.0498 71.0357L84.7583 82.0638L87.8304 85.3984C87.8304 85.3984 96.8366 78.8341 99.4886 78.7291C100.775 77.0224 96.6266 63.2373 90.141 58.4585Z" fill="white"/>
<path d="M90.141 58.4585C86.2287 59.22 84.0494 57.8021 81.0298 57.1194C76.9862 56.3842 77.17 55.7015 75.0694 55.3339C72.5749 54.2311 66.352 54.2573 65.0129 54.8875C60.838 56.8568 57.8446 55.8328 54.2474 57.0406C53.0658 57.7758 50.9915 61.1105 49.5999 62.3446C48.1557 63.0535 45.9764 64.6552 44.9523 65.3117C44.7948 66.3619 46.0026 69.3815 48.1032 69.6966C50.3613 70.353 52.882 70.2218 54.7725 69.6178C56.8206 69.3028 58.3435 67.3597 59.3413 66.5195C60.7592 66.5983 64.2251 65.7055 65.8006 66.0469C67.0084 66.6508 72.0498 71.0357 72.0498 71.0357L84.7583 82.0638L87.8304 85.3984C87.8304 85.3984 96.8366 78.8341 99.4886 78.7291C100.775 77.0224 96.6266 63.2373 90.141 58.4585Z" stroke="#091C5A" stroke-width="1.61508" stroke-miterlimit="1"/>
<path d="M34.4233 57.9575C36.7339 58.9028 41.6965 58.7977 45.7401 57.5111C48.0245 56.8022 51.6218 55.2268 54.1425 53.9927C56.7157 52.7586 58.5799 51.5245 61.4157 51.8396C64.6716 52.2072 66.7985 51.7871 69.2929 51.577C72.6801 50.868 74.8594 53.3887 75.8309 54.4128C76.9863 55.6206 80.7673 57.0648 80.7673 57.0648C80.7673 57.0648 71.5248 55.4106 69.7918 55.3318C67.9538 55.2268 65.8794 55.7256 63.9102 56.4346C61.7833 57.1698 58.7112 57.4849 56.6106 57.6162C53.9587 57.4586 52.6458 60.5832 50.6765 62.7626C49.6787 63.8654 47.9983 64.338 46.6591 65.3883C46.3441 65.6509 46.1077 65.8347 46.1077 66.071C46.6591 68.1978 47.762 68.8805 48.681 69.1956C50.0988 69.747 52.3045 69.747 54.8777 68.8018C57.1358 68.0665 58.0023 66.9637 59.0263 65.7034C59.2889 65.5721 60.0241 65.7034 60.5755 65.7034C63.6738 65.6771 64.5666 64.443 67.4286 65.9922C69.9756 67.6202 71.9186 69.5895 73.7566 71.1124C75.5684 72.7141 79.2444 76.1538 81.8176 78.5169C83.7344 80.3024 87.6992 84.0309 88.8283 85.869C90.3249 89.0461 85.6249 92.7484 82.6578 90.3852C81.0561 89.1511 72.1549 80.9851 72.1549 80.9851C72.1549 80.9851 79.717 87.8383 81.0561 89.0723C83.1305 91.3042 79.2181 96.7395 75.0432 94.2188C72.1024 91.7768 66.6934 87.2343 66.6934 87.2343C66.6934 87.2343 71.9186 91.6718 73.8616 93.2735C75.5159 95.2953 72.26 99.9691 68.8203 98.2099C65.6694 95.9255 61.6258 92.8009 61.6258 92.8009C61.6258 92.8009 65.5644 95.7942 67.6387 97.3696C69.6867 99.6015 66.6147 103.015 62.8336 101.177C60.6805 100.258 57.5822 97.2383 52.3307 95.0327C49.0223 94.1662 40.4624 89.1511 34.8696 83.7421C30.9573 80.67 29.3556 80.8013 26.9137 79.3572C30.6947 74.237 34.4758 61.9223 34.4233 57.9575Z" fill="white"/>
<path d="M34.4233 57.9575C36.7339 58.9028 41.6965 58.7977 45.7401 57.5111C48.0245 56.8022 51.6218 55.2268 54.1425 53.9927C56.7157 52.7586 58.5799 51.5245 61.4157 51.8396C64.6716 52.2072 66.7985 51.7871 69.2929 51.577C72.6801 50.868 74.8594 53.3887 75.8309 54.4128C76.9863 55.6206 80.7673 57.0648 80.7673 57.0648C80.7673 57.0648 71.5248 55.4106 69.7918 55.3318C67.9538 55.2268 65.8794 55.7256 63.9102 56.4346C61.7833 57.1698 58.7112 57.4849 56.6106 57.6162C53.9587 57.4586 52.6458 60.5832 50.6765 62.7626C49.6787 63.8654 47.9983 64.338 46.6591 65.3883C46.3441 65.6509 46.1077 65.8347 46.1077 66.071C46.6591 68.1978 47.762 68.8805 48.681 69.1956C50.0988 69.747 52.3045 69.747 54.8777 68.8018C57.1358 68.0665 58.0023 66.9637 59.0263 65.7034C59.2889 65.5721 60.0241 65.7034 60.5755 65.7034C63.6738 65.6771 64.5666 64.443 67.4286 65.9922C69.9756 67.6202 71.9186 69.5895 73.7566 71.1124C75.5684 72.7141 79.2444 76.1538 81.8176 78.5169C83.7344 80.3024 87.6992 84.0309 88.8283 85.869C90.3249 89.0461 85.6249 92.7484 82.6578 90.3852C81.0561 89.1511 72.1549 80.9851 72.1549 80.9851C72.1549 80.9851 79.717 87.8383 81.0561 89.0723C83.1305 91.3042 79.2181 96.7395 75.0432 94.2188C72.1024 91.7768 66.6934 87.2343 66.6934 87.2343C66.6934 87.2343 71.9186 91.6718 73.8616 93.2735C75.5159 95.2953 72.26 99.9691 68.8203 98.2099C65.6694 95.9255 61.6258 92.8009 61.6258 92.8009C61.6258 92.8009 65.5644 95.7942 67.6387 97.3696C69.6867 99.6015 66.6147 103.015 62.8336 101.177C60.6805 100.258 57.5822 97.2383 52.3307 95.0327C49.0223 94.1662 40.4624 89.1511 34.8696 83.7421C30.9573 80.67 29.3556 80.8013 26.9137 79.3572C30.6947 74.237 34.4758 61.9223 34.4233 57.9575Z" stroke="#091C5A" stroke-width="1.61508" stroke-miterlimit="1"/>
<path d="M26.2309 70.8247C28.9617 64.6542 30.222 57.5385 30.3533 55.543C31.036 55.8318 34.1081 57.2497 34.8695 57.5648C35.1321 60.2955 33.3729 67.7001 30.9835 73.3191C28.7779 78.3605 25.9946 83.717 24.3666 85.7651C23.9728 86.264 23.3689 86.1589 23.1063 86.0802C22.056 85.5287 19.7191 84.1634 18.9314 83.7695C20.4543 82.2466 23.5002 77.1789 26.2309 70.8247Z" fill="white"/>
<path d="M26.2309 70.8247C28.9617 64.6542 30.222 57.5385 30.3533 55.543C31.036 55.8318 34.1081 57.2497 34.8695 57.5648C35.1321 60.2955 33.3729 67.7001 30.9835 73.3191C28.7779 78.3605 25.9946 83.717 24.3666 85.7651C23.9728 86.264 23.3689 86.1589 23.1063 86.0802C22.056 85.5287 19.7191 84.1634 18.9314 83.7695C20.4543 82.2466 23.5002 77.1789 26.2309 70.8247Z" stroke="#091C5A" stroke-width="1.61508" stroke-miterlimit="1"/>
<path d="M88.8019 58.5348C90.6662 58.9549 94.8411 65.0466 97.4931 71.8735C99.5412 77.9389 100.486 82.5865 100.88 85.2384C101.038 85.9474 100.985 87.2077 101.747 86.9977C103.296 86.525 104.871 85.4747 105.817 85.0809C108.915 82.1138 99.7775 55.6203 94.3685 56.0141C93.3444 56.5655 89.6684 58.0884 88.8019 58.5348ZM72.5487 70.0355C74.8331 72.1098 76.5136 73.659 77.9314 74.683C80.5309 76.1534 84.8896 76.0484 86.8852 73.8428" fill="white"/>
<path d="M72.5487 70.0355C74.8331 72.1098 76.5136 73.659 77.9314 74.683C80.5309 76.1534 84.8896 76.0484 86.8852 73.8428M88.8019 58.5348C90.6662 58.9549 94.8411 65.0466 97.4931 71.8735C99.5412 77.9389 100.486 82.5865 100.88 85.2384C101.038 85.9474 100.985 87.2077 101.747 86.9977C103.296 86.525 104.871 85.4747 105.817 85.0809C108.915 82.1138 99.7775 55.6203 94.3685 56.0141C93.3444 56.5655 89.6684 58.0884 88.8019 58.5348Z" stroke="#091C5A" stroke-width="1.61508" stroke-miterlimit="1"/>
<path d="M43.0095 85.5545C44.086 83.4539 39.0184 80.1455 37.6267 81.6947C36.0776 83.1126 33.6094 86.7623 36.4714 88.8367C39.7536 91.4886 41.9854 86.8411 43.0095 85.5545ZM48.576 89.6506C50.0989 87.5238 45.0313 83.4539 42.9044 86.0534C41.8016 87.445 38.2832 90.3333 41.7754 92.9065C43.272 93.9043 44.4536 94.0356 45.4251 93.5105C46.633 92.4339 47.7883 90.806 48.576 89.6506ZM53.3286 94.7971C53.6699 94.3244 54.5364 93.4842 54.6677 92.5652C55.0615 90.7272 50.7291 87.5501 48.8386 89.6506C47.5257 91.4361 44.2436 94.4295 47.5782 96.6613C50.5716 98.6831 51.8319 96.7926 53.3286 94.7971ZM59.3415 95.6635C59.1314 94.3507 56.5582 91.9088 54.6677 93.2216C53.1973 94.8496 52.5934 95.8473 52.042 97.0814C51.7531 98.1317 52.0157 99.7334 54.5627 99.9435C55.6392 100.075 56.742 99.7072 57.9498 98.7094C59.2364 97.5803 59.6566 96.5825 59.3415 95.6635Z" fill="white"/>
<path d="M43.0095 85.5545C44.086 83.4539 39.0184 80.1455 37.6267 81.6947C36.0776 83.1126 33.6094 86.7623 36.4714 88.8367C39.7536 91.4886 41.9854 86.8411 43.0095 85.5545ZM48.576 89.6506C50.0989 87.5238 45.0313 83.4539 42.9044 86.0534C41.8016 87.445 38.2832 90.3333 41.7754 92.9065C43.272 93.9043 44.4536 94.0356 45.4251 93.5105C46.633 92.4339 47.7883 90.806 48.576 89.6506ZM53.3286 94.7971C53.6699 94.3244 54.5364 93.4842 54.6677 92.5652C55.0615 90.7272 50.7291 87.5501 48.8386 89.6506C47.5257 91.4361 44.2436 94.4295 47.5782 96.6613C50.5716 98.6831 51.8319 96.7926 53.3286 94.7971ZM59.3415 95.6635C59.1314 94.3507 56.5582 91.9088 54.6677 93.2216C53.1973 94.8496 52.5934 95.8473 52.042 97.0814C51.7531 98.1317 52.0157 99.7334 54.5627 99.9435C55.6392 100.075 56.742 99.7072 57.9498 98.7094C59.2364 97.5803 59.6566 96.5825 59.3415 95.6635Z" stroke="#091C5A" stroke-width="1.61508" stroke-miterlimit="1"/>
<path d="M164.449 34.7196C164.449 38.3169 163.504 38.5794 159.933 38.5532C157.202 38.5532 144.546 38.5532 134.28 38.5532C126.901 38.7107 121.676 40.5487 120.311 46.9817L120.337 44.6186C120.521 42.1767 120.941 40.8113 122.622 39.0258C123.514 38.1593 125.694 35.3235 134.359 35.2448C142.498 35.2448 148.905 35.2448 157.307 35.2448C161.771 35.2448 164.292 35.2185 164.476 31.6475C164.449 32.9604 164.449 34.142 164.449 34.7196ZM120.6 66.911C120.836 63.5763 120.705 60.3729 123.015 57.7997C123.514 57.3009 124.118 56.6707 125.221 55.9617C126.718 54.9902 129.265 53.9924 134.28 54.0712C142.419 54.0712 148.747 54.0712 157.124 54.0712C161.036 54.0712 163.767 54.5438 164.344 51.4192C164.344 52.2857 164.371 52.9947 164.371 53.441C164.371 57.0383 163.373 57.4584 159.749 57.3796C157.045 57.3796 144.389 57.3796 134.096 57.3796C126.376 57.4321 121.781 60.0053 120.6 66.911ZM256.56 0.874023C256.56 0.874023 185.954 0.874023 177.814 0.874023C168.414 0.874023 164.476 3.84109 164.476 11.3244C164.476 13.32 164.502 14.9479 164.502 15.7619C164.502 19.3591 163.504 19.7792 159.881 19.7005C157.176 19.7005 144.52 19.7005 134.227 19.7005C125.457 19.7005 119.392 23.6916 119.786 32.2514C119.786 34.1682 119.786 37.5029 119.812 41.0476C116.057 42.8068 92.2682 53.8874 89.4324 55.0427C101.091 58.3511 107.812 86.7352 103.611 94.7699C106.027 93.5621 119.917 86.7877 119.917 86.7877V86.7352C121.335 86.0263 119.549 80.2497 122.727 76.705C123.619 75.8385 125.536 73.0027 134.201 72.9239C142.341 72.9239 148.747 72.9239 157.15 72.9239C161.824 72.9239 164.449 73.0027 164.397 68.9066C164.397 67.016 164.344 65.887 164.344 62.4735C164.686 54.0975 173.377 54.15 178.208 54.15C182.331 54.15 200.894 54.1237 200.894 54.1237L210.688 38.6057C210.688 38.6057 185.796 38.5794 177.657 38.6319C169.097 38.6319 165.106 41.1001 164.449 47.1655C164.449 46.2203 164.449 45.1175 164.449 43.5158C164.791 35.1397 173.219 35.2448 178.024 35.2448C182.147 35.2448 223.528 35.2185 223.528 35.2185L233.506 19.6217C233.506 19.6217 185.98 19.6742 177.735 19.6742C168.756 19.6742 164.817 22.405 164.476 29.2056C164.476 28.129 164.449 26.895 164.449 24.7944C164.791 16.4183 173.482 16.4708 178.313 16.4708C182.436 16.4708 246.582 16.4708 246.582 16.4708C246.582 16.4708 254.695 3.91986 256.56 0.874023Z" fill="#A5001D"/>
<path d="M213.708 38.6064H217.935V39.2366H216.176V43.8054H215.467V39.2366H213.708V38.6064Z" fill="#091C5A"/>
<path d="M222.898 43.8042V40.7321C222.898 40.5745 222.924 39.9181 222.924 39.4192H222.898L221.427 43.8042H220.718L219.248 39.4192C219.248 39.8919 219.274 40.5483 219.274 40.7058V43.7779H218.592V38.5527H219.589L221.086 42.964H221.112L222.583 38.5527H223.58V43.7779H222.898V43.8042Z" fill="#091C5A"/>
</g>
<defs>
<clipPath id="clip0_806_367">
<rect width="1024" height="100.826" fill="white" transform="translate(0 0.875)"/>
</clipPath>
</defs>
</svg>
