<svg width="1024" height="257" viewBox="0 0 1024 257" fill="none" xmlns="http://www.w3.org/2000/svg">
<g clip-path="url(#clip0_743_372)">
<path fill-rule="evenodd" clip-rule="evenodd" d="M787.298 0.140381H1005.46C1015.91 0.140381 1024 8.39333 1024 18.5602V237.708C1024 247.887 1012.86 256.14 1002.41 256.14H784.25C773.815 256.14 768 247.887 768 237.708V18.5602C768 8.39333 776.862 0.140381 787.298 0.140381ZM899.986 97.6642H865.524V219.569H902.095V161.018C902.095 140.587 910.86 128.14 929.243 128.14C944.384 128.14 950.857 142.367 950.857 158.58V219.569H987.429V151.912C987.429 115.694 977.152 96.1404 940.325 96.1404C921.137 96.1404 905.618 105.759 900.364 115.231H899.986V97.6642ZM822.857 77.8547C835.486 77.8547 845.714 67.6269 845.714 54.9975C845.714 42.3682 835.486 32.1404 822.857 32.1404C810.228 32.1404 800 42.3682 800 54.9975C800 67.6269 810.228 77.8547 822.857 77.8547ZM841.143 97.6642V219.569H804.571V97.6642H841.143Z" fill="#0A66C2"/>
<path d="M731.429 219.569H697.295V205.05H696.93C689.335 213.852 676.145 221.093 653.787 221.093C623.311 221.093 597.065 198.163 597.065 158.751C597.065 121.204 622.933 96.1405 654.933 96.1405C674.743 96.1405 687.043 103.187 694.491 112.183H694.857V36.7119H731.429V219.569ZM664.125 123.569C643.218 123.569 631.467 138.478 631.467 158.3C631.467 178.134 643.218 193.664 664.125 193.664C685.056 193.664 697.295 178.536 697.295 158.3C697.295 137.503 685.056 123.569 664.125 123.569Z" fill="#0A66C2"/>
<path d="M581.011 199.929C572.381 211.108 554.607 221.092 525.911 221.092C487.62 221.092 463.239 195.748 463.239 155.909C463.239 120.52 485.328 96.1392 526.983 96.1392C562.957 96.1392 585.144 119.764 585.144 161.322C585.144 165.479 584.474 169.587 584.474 169.587H497.751L497.958 173.354C500.359 183.862 508.295 196.711 526.508 196.711C542.404 196.711 553.302 188.165 558.227 181.472L581.011 199.929ZM549.95 146.425C550.194 133.564 540.758 120.52 525.886 120.52C508.186 120.52 498.738 134.344 497.751 146.425H549.95Z" fill="#0A66C2"/>
<path d="M463.238 97.6643H420.571L377.905 146.426V36.7119H341.333V219.569H377.905V158.617L422.997 219.569H466.176L414.476 152.924L463.238 97.6643Z" fill="#0A66C2"/>
<path d="M195.048 97.6642H229.51V115.231H229.888C235.142 105.759 250.661 96.1404 269.848 96.1404C306.676 96.1404 316.952 119.51 316.952 151.912V219.569H280.381V158.58C280.381 140.636 273.908 128.14 258.767 128.14C240.384 128.14 231.619 142.696 231.619 161.018V219.569H195.048V97.6642Z" fill="#0A66C2"/>
<path d="M134.095 219.569H170.667V97.6642H134.095V219.569ZM152.393 76.9404C164.51 76.9404 174.324 67.1149 174.324 54.9975C174.324 42.8802 164.51 33.0547 152.393 33.0547C140.288 33.0547 130.438 42.8802 130.438 54.9975C130.438 67.1149 140.288 76.9404 152.393 76.9404Z" fill="#0A66C2"/>
<path d="M36.5714 36.7119H0V219.569H109.714V182.998H36.5714V36.7119Z" fill="#0A66C2"/>
</g>
<defs>
<clipPath id="clip0_743_372">
<rect width="1024" height="256" fill="white" transform="translate(0 0.140381)"/>
</clipPath>
</defs>
</svg>
