<svg width="513" height="513" viewBox="0 0 513 513" fill="none" xmlns="http://www.w3.org/2000/svg">
<g clip-path="url(#clip0_838_1200)">
<path d="M495.316 401.036H493.907L494.046 368.148L492.299 366.924L492.233 343.849L491.009 343.019L490.937 340.981L482.907 332.162L482.528 315.217L481.105 312.794L481.079 309H481.012L480.992 312.794L479.24 315.217L479.184 332.162L470.837 340.981L470.755 343.019L469.541 343.849L469.459 388.494L460.999 388.054L460.953 364.83L448.304 364.881L465.178 303.561H477.069V257.215C477.069 257.215 464.425 257.205 462.367 257.205H461.214C461.829 256.836 462.438 256.447 463.032 256.027C469.818 251.3 471.257 245.288 471.257 241.069V158.025H435.834V148.833H390.636V152.1H337.505C332.24 152.1 327.416 153.688 323.16 156.796C321.854 157.749 320.672 158.804 319.658 159.93C318.628 158.783 317.43 157.718 316.093 156.755C311.95 153.688 307.147 152.1 301.867 152.1H266.199C260.929 152.1 256.105 153.698 251.88 156.832C250.62 157.733 249.494 158.752 248.51 159.828C247.584 158.834 246.477 157.866 245.202 156.95C245.202 156.945 243.533 155.818 243.533 155.818C243.482 155.787 241.372 154.645 241.372 154.645C238.791 153.406 236.066 152.658 233.239 152.412L230.991 152.305H218.076V139.559H323.893V135.615C328.087 138.237 332.476 139.559 336.962 139.559H395.429V7.89062H350.046V30.9303H336.957C331.687 30.9303 326.889 32.5076 322.638 35.6264C321.291 36.5789 320.108 37.639 319.084 38.781C318.06 37.6646 316.908 36.625 315.591 35.6827C311.464 32.6305 306.67 31.043 301.406 31.043C296.628 31.043 292.362 31.6012 288.48 32.5128V31.043H243.297V34.8019C239.456 32.3284 235.114 31.043 230.407 31.043H194.806C189.551 31.043 184.748 32.6357 180.518 35.7544C179.222 36.6916 178.07 37.726 177.051 38.8373C176.022 37.7004 174.859 36.6506 173.523 35.6929C169.415 32.6357 164.591 31.1147 159.332 31.1147H52.0096C46.7708 31.1352 41.9826 32.523 37.7782 35.6212C32.5137 39.3648 29.5486 44.7572 29.4974 50.7489V119.965C29.5128 122.505 30.0607 125.68 31.9606 128.845H29.4974V168.416H88.0774C88.9428 168.406 89.7929 168.329 90.643 168.221V197.55H101.612V241.125C101.612 245.222 103.092 251.183 110.093 256.212C110.093 256.212 111.399 257.051 112.172 257.517H112.413L112.449 257.717L49.5362 257.681C44.2768 257.681 39.4784 259.264 35.2484 262.393C29.9839 266.162 27.029 271.585 27.029 277.613L27.2083 374.037H26.0714V373.981L23.7618 373.991L23.4545 373.971C23.4545 373.971 18.8814 370.304 20.6994 362.945L21.6365 363.012L19.5215 356.272C19.5215 356.272 22.7427 353.927 20.6994 349.533C20.6994 349.533 16.367 344.734 13.407 343.352C13.407 343.352 18.6305 342.087 17.6319 339.68L16.751 338.666L15.9009 337.432L14.2571 337.329L13.4531 335.378L12.6644 336.505L11.1435 334.754L10.8362 335.906L9.66347 335.829L8.07594 332.93L8.24493 331.015C8.90555 330.554 8.36272 329.832 8.36272 329.832C8.1886 329.269 7.23608 329.279 7.23608 329.279C5.51028 329.202 5.6127 329.894 5.6127 329.894L5.86875 334.144L6.81615 334.441L7.825 335.225C7.825 335.225 8.14763 340.658 9.32036 340.735C9.32036 340.735 8.34735 344.443 9.48935 344.985C9.48935 344.985 7.23608 353.763 9.83759 356.774C9.83759 356.774 9.24866 361.916 10.8208 362.966L12.2342 369.643C12.2342 369.643 12.3418 371.661 11.8297 373.3C11.5429 374.165 10.8464 375.41 9.35621 375.292V376.946H9.41254L9.44326 384.008L3.42088 384.034L3.43112 386.584L6.68812 386.574V389.902L2.99071 390.64L2.91389 391.428L2.82171 391.454L1.3366 391.172L1.41342 406.997H0V495.837H103.236C106.037 496.764 109.017 497.23 112.136 497.23C121.339 497.23 129.302 493.855 135.109 487.7C141.782 493.845 151.01 497.23 161.708 497.23C167.121 497.23 172.206 496.318 176.764 494.577V495.837H215.234V460.466C215.382 460.435 215.592 460.42 215.853 460.42C216.683 460.42 217.487 460.563 218.926 460.957L219.433 461.09V467.932C219.433 487.556 228.149 494.977 247.712 494.977C248.782 494.977 249.827 494.941 250.835 494.895V512.05H269.604C278.546 512.05 293.489 512.05 300.464 492.672L316.211 449.256C316.18 449.921 316.155 450.582 316.155 451.248C316.155 477.893 334.867 497.225 360.642 497.225C368.42 497.225 375.656 495.473 381.843 492.211V495.832H420.312V493.445C424.45 495.371 429.663 496.288 436.014 496.288C437.094 496.288 438.128 496.247 439.137 496.201V512.045H457.916C466.853 512.045 481.806 512.045 488.771 492.667L511.775 429.258H512.046V428.51L512.097 400.861L495.321 401.025L495.316 401.036ZM399.126 256.165L399.295 256.273C399.802 256.601 400.284 256.908 400.781 257.205C394.046 257.21 389.576 257.21 389.576 257.21V257.226H360.268V220.523H390.625V241.063C390.636 245.186 392.111 251.147 399.121 256.165H399.126Z" stroke="#867767" stroke-width="3.08289" stroke-linecap="round" stroke-linejoin="round"/>
<path d="M483.014 257.35H481.278V256.761H485.462V257.35H483.716V262H483.014V257.35Z" fill="black"/>
<path d="M486.051 256.761H487.004L488.658 261.16L490.317 256.761H491.269V262H490.614V257.647H490.593L488.965 262H488.366L486.727 257.647H486.722V262H486.051V256.761Z" fill="black"/>
<path d="M442.85 384.694L465.173 303.556H477.064V257.21C477.064 257.21 464.42 257.2 462.361 257.2H461.209C461.824 256.831 462.433 256.442 463.027 256.022C469.813 251.295 471.252 245.283 471.252 241.063V158.02H435.829V148.828H390.631V152.095H337.499C332.235 152.095 327.411 153.683 323.155 156.791C321.849 157.744 320.666 158.798 319.652 159.925C318.623 158.778 317.425 157.713 316.088 156.75C311.945 153.683 307.142 152.095 301.862 152.095H266.194C260.924 152.095 256.1 153.693 251.875 156.827C250.615 157.728 249.489 158.747 248.505 159.823C247.578 158.829 246.472 157.861 245.197 156.945C245.197 156.94 243.528 155.813 243.528 155.813C243.476 155.782 241.367 154.64 241.367 154.64C238.786 153.401 236.061 152.653 233.234 152.407L230.986 152.3H218.071V139.553H323.888V135.61C328.082 138.232 332.47 139.553 336.957 139.553H395.424V7.89062H350.041V30.9303H336.951C331.682 30.9303 326.883 32.5076 322.633 35.6264C321.286 36.5789 320.103 37.639 319.079 38.781C318.055 37.6646 316.902 36.625 315.586 35.6827C311.459 32.6305 306.665 31.043 301.401 31.043C296.623 31.043 292.357 31.6012 288.475 32.5128V31.043H243.292V34.8019C239.451 32.3284 235.109 31.043 230.402 31.043H194.801C189.546 31.043 184.743 32.6357 180.513 35.7544C179.217 36.6916 178.065 37.726 177.046 38.8373C176.017 37.7004 174.854 36.6506 173.517 35.6929C169.41 32.6357 164.586 31.1147 159.327 31.1147H52.0097C46.7708 31.1352 41.9826 32.523 37.7782 35.6212C32.5137 39.3648 29.5486 44.7572 29.4974 50.7489V119.965C29.5128 122.505 30.0607 125.68 31.9606 128.845H29.4974V168.416H88.0774C88.9429 168.406 89.7929 168.329 90.6431 168.221V197.55H101.612V241.125C101.612 245.222 103.092 251.183 110.093 256.212C110.093 256.212 111.399 257.051 112.172 257.517H112.413L112.449 257.717L49.5362 257.681C44.2768 257.681 39.4784 259.264 35.2484 262.393C29.9839 266.162 27.0291 271.585 27.0291 277.613L27.2288 385.816L442.86 384.689L442.85 384.694ZM389.576 257.226H360.268V220.523H390.625V241.063C390.636 245.186 392.111 251.147 399.121 256.165L399.29 256.273C399.797 256.601 400.279 256.908 400.775 257.205C394.041 257.21 389.57 257.21 389.57 257.21V257.226H389.576Z" fill="black"/>
<path d="M462.997 189.321V166.374H427.579V157.187H399.055V166.374H391.967V189.321H399.055V241.08C399.055 244.332 400.786 247.041 404.053 249.381C404.135 249.432 404.207 249.479 404.278 249.53C404.406 249.607 404.534 249.678 404.662 249.77C405.164 250.088 405.574 250.339 405.574 250.339C405.574 250.329 405.579 250.329 405.579 250.329C408.017 251.716 410.5 252.464 413.22 252.464H448.837C451.997 252.464 454.997 251.445 457.998 249.438H458.004C458.085 249.386 458.167 249.33 458.249 249.263C458.27 249.248 458.301 249.233 458.321 249.212C458.357 249.187 458.383 249.166 458.413 249.146C461.189 247.169 463.032 244.69 462.991 241.08V194.96H434.662V229.517H427.574V189.321H462.991H462.997Z" fill="white"/>
<path d="M38.0344 160.09L88.2363 160.106V160.09C91.4984 160.075 94.4174 158.984 97.3518 157.028C97.5361 156.885 97.7 156.746 97.8895 156.603L97.91 156.623C97.91 156.623 99.1339 155.83 100.399 154.176C100.522 154.017 100.645 153.853 100.757 153.689C100.803 153.638 100.824 153.576 100.87 153.53C101.024 153.3 101.172 153.069 101.3 152.839C101.316 152.788 101.351 152.757 101.372 152.716C101.684 152.168 101.899 151.605 102.058 151.031C102.104 150.883 102.125 150.734 102.155 150.575C102.171 150.514 102.181 150.463 102.201 150.406C102.304 149.874 102.386 149.331 102.391 148.763V39.3047C101.843 39.8526 101.387 40.3033 100.962 40.7232L102.391 39.3047H52.1993C49.2956 39.3149 46.5097 40.0421 43.8673 41.7116C43.8622 41.7116 43.8622 41.7116 43.8622 41.7014C43.8622 41.7014 43.5754 41.896 43.2067 42.152C43.0991 42.2339 42.9762 42.3056 42.8584 42.3927C42.8123 42.4234 42.7611 42.4695 42.7099 42.5105C42.3207 42.7921 41.952 43.0738 41.8291 43.1967L41.8496 43.2121C39.2686 45.3988 38.0088 47.99 37.9934 50.8578H37.9883V120.008C37.9934 123.249 39.5553 125.969 42.6843 128.13C42.7253 128.166 42.7662 128.191 42.797 128.217C42.9352 128.299 43.053 128.37 43.1862 128.463C43.6215 128.755 44.3794 129.251 44.871 129.466C47.2882 130.741 49.7155 131.397 52.2505 131.397H73.6617V137.22H37.9934V160.101L39.668 158.416L38.0241 160.085L38.0344 160.09ZM73.6668 108.516H66.7073V62.3803H73.6668V108.516ZM99.3541 42.3261V42.3159L100.071 41.6092C99.8509 41.8345 99.6051 42.0752 99.3541 42.3261Z" fill="white"/>
<path d="M329.603 162.625C329.603 162.625 329.603 162.615 329.593 162.615C329.593 162.615 328.466 163.306 327.974 163.706L327.985 163.716C324.84 166.056 323.33 168.888 323.33 172.068V252.541H352.028V212.217H387.737V189.152H352.028V183.519H387.737V160.464H337.597C334.811 160.464 332.143 161.114 329.598 162.625H329.603Z" fill="white"/>
<path d="M245.433 350.614C246.165 349.303 246.539 347.936 246.539 346.466V300.428H218.194V334.975H211.106V294.795H246.529V271.842H211.106V262.645H182.577V271.842H175.494L175.971 272.272L175.489 271.842V294.82L175.525 294.795H182.577L182.423 346.533C182.423 349.242 183.616 351.572 185.88 353.641H185.859C186.284 354.035 186.689 354.373 187.053 354.655H187.048C187.104 354.711 187.15 354.757 187.211 354.798C187.263 354.824 187.309 354.855 187.355 354.896C187.913 355.3 188.302 355.536 188.302 355.536V355.525C191.062 357.226 193.818 358.076 196.711 358.076H232.272C235.549 358.076 238.668 356.826 241.771 354.634C241.797 354.614 242.017 354.424 242.166 354.296H242.171C243.446 353.303 244.486 352.181 245.233 350.957C245.279 350.891 245.325 350.819 245.366 350.753C245.387 350.707 245.407 350.66 245.438 350.614H245.433ZM178.531 291.64V291.702H178.588L176.099 294.185L178.531 291.64Z" fill="white"/>
<path d="M255.506 248.255H255.496C255.526 248.28 255.578 248.321 255.603 248.347C255.619 248.362 255.644 248.372 255.659 248.393C255.957 248.654 256.361 248.961 256.745 249.238C256.755 249.248 256.771 249.258 256.786 249.269C256.817 249.289 256.842 249.305 256.868 249.32C257.314 249.643 257.682 249.883 257.682 249.883C257.687 249.883 257.693 249.873 257.703 249.873C260.509 251.65 263.331 252.536 266.306 252.521H266.316L266.306 252.536H301.98C305.109 252.536 308.058 251.542 311.013 249.586L311.029 249.607C311.075 249.586 311.459 249.299 311.495 249.269C314.618 247.087 316.165 244.358 316.165 241.106V223.848H287.61V229.655H280.676V218.03H316.16V172.063C316.16 169.651 315.33 167.465 313.569 165.539C313.046 164.95 312.442 164.392 311.761 163.859L311.74 163.875C311.607 163.772 311.443 163.619 311.32 163.532C308.386 161.355 305.267 160.459 301.975 160.459H266.301C263.741 160.459 261.288 161.017 258.947 162.287C258.942 162.282 258.937 162.277 258.932 162.277C258.932 162.277 258.44 162.538 257.636 163.076C257.544 163.127 257.452 163.183 257.375 163.24C257.232 163.342 257.088 163.424 256.96 163.532C256.878 163.588 256.817 163.649 256.74 163.711C256.469 163.905 256.192 164.121 255.895 164.356H255.916C253.34 166.568 252.105 169.17 252.105 172.063V241.106C252.105 243.866 253.242 246.257 255.501 248.25L255.506 248.255ZM287.62 194.96H280.686V183.519H287.62V194.96Z" fill="white"/>
<path d="M326.551 127.249L326.53 127.274C327.933 128.36 328.522 128.683 328.65 128.729C331.4 130.403 334.171 131.254 337.059 131.254H387.194V16.2803H358.486V39.3149H337.059C334.166 39.3149 331.405 40.0113 328.773 41.6552C328.768 41.6501 328.768 41.645 328.768 41.645C328.768 41.645 328.328 41.9369 327.831 42.2902C327.78 42.3209 327.744 42.3465 327.698 42.3824C327.698 42.3824 327.682 42.3978 327.662 42.3978C327.616 42.4285 327.58 42.4592 327.539 42.4951C327.006 42.8791 326.464 43.2786 326.315 43.4629V43.4732C323.934 45.624 322.781 48.1385 322.781 50.9295V119.844C322.781 122.747 324.046 125.211 326.54 127.254L326.551 127.249ZM358.132 108.741H351.173V62.3904H358.132V108.741ZM328.671 44.4769L329.004 45.2041C328.942 45.2502 328.881 45.3065 328.814 45.3475L328.532 44.5896L328.671 44.4769Z" fill="white"/>
<path d="M184.231 127.05H184.205C184.328 127.152 184.461 127.249 184.594 127.362C184.963 127.659 185.214 127.833 185.214 127.833C185.286 127.879 185.357 127.936 185.424 127.997C185.49 128.053 185.567 128.089 185.639 128.135C185.926 128.361 186.136 128.504 186.136 128.504C186.146 128.504 186.156 128.489 186.161 128.483C189.034 130.312 191.907 131.259 194.934 131.259H244.731V51.0375C244.731 50.6329 244.705 50.2488 244.659 49.8647C244.649 49.7316 244.613 49.6036 244.598 49.4755C244.557 49.2195 244.516 48.9737 244.46 48.733C244.414 48.5794 244.362 48.4206 244.316 48.2772C244.245 48.057 244.188 47.847 244.101 47.6371C244.04 47.4732 243.968 47.3145 243.896 47.1608C243.799 46.9611 243.712 46.7716 243.615 46.5719C243.528 46.4131 243.42 46.2544 243.323 46.0956C243.215 45.9113 243.097 45.7372 242.975 45.5528C242.862 45.3992 242.749 45.2404 242.616 45.0919C242.478 44.9127 242.339 44.7386 242.191 44.5747C242.058 44.4262 241.92 44.2879 241.776 44.1343C241.73 44.0831 241.679 44.0318 241.638 43.9909L241.669 43.9653C240.778 43.1203 239.994 42.6031 239.994 42.6031C239.953 42.5723 239.927 42.5416 239.892 42.516C239.661 42.3419 239.42 42.1985 239.19 42.0397C236.276 40.0937 233.301 39.4434 230.546 39.4434H194.939C192.127 39.4434 189.434 40.1245 186.863 41.6813C186.863 41.6813 186.827 41.6915 186.827 41.7018C186.412 41.9527 186.013 42.2241 185.603 42.5109C185.506 42.5877 185.419 42.6645 185.321 42.7362C185.291 42.7567 185.27 42.7823 185.229 42.8079C184.866 43.0691 184.553 43.32 184.451 43.4583C181.972 45.6245 180.764 48.185 180.764 51.0375V68.0497H209.283V62.437H216.207V73.8467H194.944C192.025 73.8467 189.377 74.702 186.771 76.4226H186.766L186.392 76.6838C186.192 76.8323 185.982 76.9604 185.782 77.1038C185.752 77.1294 185.741 77.1396 185.726 77.1498C182.479 79.5004 180.769 82.1992 180.769 85.2616V119.844C180.769 123.373 182.935 125.862 184.236 127.05H184.231ZM216.202 108.44H209.278V96.8557H216.202V108.44Z" fill="white"/>
<path d="M174.06 195.036H145.715V229.675H138.617V189.239H174.055V166.389H138.233V148.947L138.249 148.916H109.678L109.688 148.937V166.389H99.103V189.239H110.072V241.121C110.072 243.973 111.424 246.406 113.964 248.552H113.923C114.292 248.885 114.686 249.171 115.024 249.412C115.04 249.432 115.05 249.448 115.071 249.458C115.101 249.479 115.122 249.484 115.152 249.509C115.634 249.842 115.997 250.057 115.997 250.057H116.003C118.645 251.67 121.308 252.541 124.248 252.541H159.875C163.157 252.541 166.266 251.455 169.374 249.274C169.41 249.258 169.446 249.238 169.477 249.207C172.519 247.041 174.045 244.342 174.045 241.126H174.04V195.042L174.06 195.036ZM112.812 151.948H112.74V151.958L110.211 149.428L112.812 151.948Z" fill="white"/>
<path d="M170.537 266.102H142.064V334.985H135.161V265.994H106.667V346.334C106.667 349.273 107.952 351.777 110.446 353.821L110.37 353.908C110.677 354.138 110.969 354.369 111.25 354.573C111.271 354.594 111.296 354.614 111.327 354.635C111.394 354.686 111.476 354.727 111.547 354.773C112.188 355.229 112.679 355.536 112.679 355.536C112.679 355.536 112.681 355.529 112.684 355.516C115.357 357.113 118.026 357.917 120.827 357.917H156.382C159.537 357.917 162.517 356.903 165.503 354.876L165.524 354.891C169.303 352.371 170.629 349.734 170.547 346.451H170.532V266.102H170.537Z" fill="white"/>
<path d="M94.7912 269.103C94.7349 269.062 94.7093 269.041 94.6888 269.031C94.6615 269.007 94.6427 268.985 94.6325 268.964C94.6325 268.964 94.5813 268.929 94.5147 268.888L94.4072 268.985L94.484 268.903C91.652 266.849 88.4872 266.035 85.4248 266.035H49.8231C47.0731 266.035 44.446 266.686 41.9417 268.16C41.9366 268.15 41.9315 268.15 41.9315 268.145C41.9315 268.145 41.824 268.217 41.6447 268.324C41.2658 268.575 40.8714 268.831 40.4925 269.113C40.431 269.159 40.3747 269.205 40.3081 269.241C40.2057 269.323 40.1238 269.4 40.0213 269.482C39.8728 269.594 39.7294 269.712 39.5758 269.835H39.5809C36.9333 272.058 35.6428 274.7 35.6428 277.634V294.652H64.1672V289.039H71.0858V300.444H49.818C47.0935 300.444 44.6047 301.207 42.162 302.712C42.162 302.702 42.1517 302.692 42.1466 302.692C42.1466 302.692 40.682 303.588 40.1596 304.1C37.2099 306.369 35.6479 308.965 35.6479 311.864V346.436C35.6479 349.586 37.1228 352.233 40.0213 354.363L40.0009 354.379C40.6564 354.85 41.2299 355.203 41.6191 355.429H41.6242C41.9059 355.613 42.0954 355.7 42.0954 355.7C44.6149 357.113 47.155 357.846 49.818 357.846H99.6102V277.629C99.6102 274.367 98.0585 271.463 94.7861 269.108L94.7912 269.103ZM64.1775 334.975V323.427H71.096V335.011H64.1775V334.975Z" fill="white"/>
<path d="M317.415 277.061C317.302 274.116 315.95 271.637 312.99 269.466C312.857 269.364 312.719 269.251 312.57 269.143C309.641 266.962 306.517 266.081 303.224 266.081H267.545C264.801 266.081 262.184 266.706 259.7 268.165H259.685C259.608 268.211 259.536 268.252 259.464 268.304C259.347 268.365 259.229 268.447 259.111 268.524C258.42 268.969 258.189 269.102 257.273 269.855L257.314 269.881C254.635 272.103 253.355 274.725 253.355 277.655V346.405C253.355 348.53 254.041 350.43 255.368 352.084V352.095C255.409 352.146 255.45 352.192 255.496 352.243C255.598 352.376 255.711 352.504 255.834 352.627C255.967 352.771 256.09 352.894 256.228 353.027C256.392 353.191 256.566 353.354 256.745 353.508C257.001 353.728 257.237 353.933 257.467 354.112H257.477C257.498 354.138 257.529 354.164 257.554 354.179C257.708 354.307 257.862 354.425 258.031 354.548C261.154 356.729 264.248 357.8 267.551 357.8H303.229C306.45 357.8 309.513 356.765 312.544 354.696C312.544 354.696 312.553 354.693 312.57 354.686L312.585 354.696C312.657 354.655 313.149 354.333 313.215 354.281C316.334 352.12 317.44 349.662 317.44 346.405V277.245H317.425L317.415 277.061ZM288.859 335.011H281.941V289.049H288.859V335.011Z" fill="white"/>
<path d="M280.256 62.4366H287.185V131.259H315.689V51.0269H315.684C315.684 47.775 314.419 45.0864 311.157 42.7461C311.157 42.7461 311.164 42.741 311.177 42.7307C306.338 38.9923 301.514 39.4276 301.514 39.4276C292.019 39.4276 284.921 41.4249 280.261 45.2196V39.443H251.762V131.264H280.261V62.4366H280.256Z" fill="white"/>
<path d="M138.228 96.8967H145.131V148.558C145.131 151.293 146.376 153.648 148.701 155.728L148.691 155.743C149.628 156.66 150.765 157.331 151.241 157.592C151.328 157.643 151.425 157.689 151.507 157.74C151.871 157.955 154.877 159.737 158.431 159.927C158.779 159.953 159.138 159.968 159.491 159.968H181.353V252.542H209.882V183.658H216.791V252.542H245.3V172.248C245.3 169.77 244.45 167.619 242.673 165.683C242.196 165.15 241.638 164.649 241.044 164.172C240.931 164.08 240.839 163.988 240.721 163.901C240.721 163.901 240.721 163.911 240.711 163.911C240.327 163.629 239.636 163.153 239.272 162.923C238.842 162.662 238.294 162.359 237.864 162.149C236.179 161.34 234.423 160.885 232.64 160.716C232.149 160.685 231.642 160.649 231.13 160.649H209.887V137.133H173.651V91.0996C173.651 91.0996 173.881 86.3063 169.938 84.3859C169.958 84.3808 169.984 84.3603 170.005 84.3552C170.225 84.263 170.45 84.1503 170.66 84.0377C170.675 84.0223 170.706 84.007 170.721 84.0018C170.921 83.8943 171.1 83.7816 171.275 83.6587C171.331 83.628 171.377 83.5922 171.433 83.5512C171.618 83.4334 171.787 83.3003 171.951 83.1569C171.966 83.1415 171.992 83.1313 172.007 83.1159C172.186 82.9623 172.35 82.7933 172.499 82.6243C172.534 82.5833 172.565 82.5372 172.601 82.5014C172.719 82.358 172.831 82.1992 172.934 82.0456C172.975 81.9995 172.995 81.9636 173.026 81.9227C173.139 81.723 173.246 81.5232 173.333 81.3133C173.349 81.2621 173.359 81.2313 173.374 81.1852C173.446 81.0009 173.497 80.8217 173.538 80.6219C173.548 80.5605 173.559 80.4888 173.574 80.4325C173.625 80.1866 173.646 79.9459 173.646 79.6848V51.0528C173.702 48.4155 172.724 46.1366 170.844 44.252C170.67 44.0677 169.953 43.32 169.201 42.8079L169.19 42.8182C169.19 42.8182 169.18 42.813 169.175 42.8079L169.103 42.9206H169.093L169.18 42.8079C169.052 42.7157 168.95 42.6133 168.816 42.5211C165.882 40.3498 162.768 39.4434 159.496 39.4434H109.719V141.814H138.249V96.8967H138.228ZM145.131 73.8826H138.213V62.4626H145.131V73.8826Z" fill="white"/>
<path d="M424.962 266.297V293.761H429.709C427.942 299.866 423.436 315.434 422.033 320.268C420.624 315.428 416.123 299.866 414.361 293.761H419.098V266.297H377.653V293.761H386.211C387.598 298.549 404.877 358.271 404.877 358.271H439.178C439.178 358.271 456.467 298.544 457.844 293.761H466.407V266.297H424.967H424.962ZM462.812 290.176H455.156L436.479 354.682H407.56L388.909 290.176H381.233V269.841L381.289 269.902L415.493 269.892V290.176H409.573L419.677 324.882V325.179H424.352V324.841L434.467 290.176H428.547V269.892L462.807 269.902V290.176H462.812Z" fill="white"/>
<path d="M365.465 329.896V293.679H374.14L374.125 293.669V266.333L374.14 266.322H328.855L328.839 266.297V293.761L330.668 291.933L328.844 293.751H337.52V293.761L337.514 329.87H328.829V358.358H374.145L374.094 329.901H365.47L365.465 329.896ZM332.46 354.774L332.424 333.46H341.084L341.166 290.13L338.114 293.162L341.109 290.166H332.424L332.404 290.192L332.496 269.964V269.953L370.53 269.907L370.556 290.202L370.53 290.176H361.921L361.87 290.135V333.46H370.504L370.53 354.774H332.46Z" fill="white"/>
<path d="M495.316 401.036H493.907L494.046 368.148L492.299 366.924L492.233 343.849L491.009 343.019L490.937 340.981L482.907 332.163L482.528 315.217L481.105 312.795L481.079 309H481.012L480.992 312.795L479.241 315.217L479.184 332.163L470.837 340.981L470.755 343.019L469.541 343.849L469.459 388.494L460.999 388.054L460.953 364.83L434.436 364.932L434.457 369.951L427.395 371.139L427.415 373.31L403.285 373.423L403.136 368.978L399.039 368.988L398.983 356.692L395.557 353.287L388.111 353.323L385.776 355.381L381.894 355.469L381.971 372.942H381.059L381.049 370.202L378.048 362.254L374.899 371.631L374.965 376.547L363.914 376.562L363.827 367.211L358.132 363.012L342.62 362.822L319.345 362.853L319.386 355.494L318.854 356.754L317.471 356.764L316.319 353.579L314.854 357.676L314.88 362.121L313.179 362.013L308.125 362.664V349.052H294.631V364.384L293.463 364.528L286.325 364.548L286.345 369.93L284.471 369.941V352.903H279.232V358.613H278.197L278.064 349.753H277.762V330.063L277.731 328.711L277.706 327.349L277.813 327.088L277.9 326.801C278.095 326.801 278.243 326.678 278.351 326.555C278.459 326.422 278.51 326.299 278.51 326.299L278.658 326.222L278.807 326.13V325.792H278.464L278.254 325.818L278.044 325.858H277.767L277.655 325.981L277.547 326.109L277.327 326.155L277.107 326.191L277.086 326.222L277.071 326.258L276.405 326.186L275.749 326.099L275.596 322.079L275.447 318.054C275.447 316.984 275.335 316.41 275.207 316.118C275.099 315.801 274.971 315.76 274.971 315.76L274.623 315.616L274.28 315.468L274.264 315.212L274.223 314.951C274.223 314.111 274.06 313.363 273.891 312.841C273.727 312.308 273.558 311.991 273.558 311.991C273.537 310.715 273.322 309.968 273.117 309.543C272.902 309.113 272.702 309 272.702 309L272.667 308.524L272.641 308.052C272.641 307.208 272.375 306.588 272.098 306.173C271.827 305.753 271.54 305.538 271.54 305.538C271.607 304.278 271.248 303.423 270.869 302.89C270.495 302.363 270.086 302.138 270.086 302.138C270.188 301.364 269.958 300.663 269.712 300.14C269.456 299.628 269.174 299.306 269.174 299.306C269.133 298.374 268.964 297.595 268.8 297.063C268.641 296.52 268.488 296.218 268.488 296.218L268.442 295.951L268.401 295.665L268.242 294.169L268.078 292.674L267.996 292.269L267.919 291.87L267.827 289.437L267.745 287.005L267.581 286.984H267.484L267.32 287.005L267.243 289.437L267.146 291.87L267.074 292.269L266.977 292.674L266.818 294.169L266.66 295.665L266.624 295.951L266.573 296.218C266.573 296.218 266.429 296.525 266.27 297.063C266.096 297.6 265.932 298.374 265.886 299.306C265.886 299.306 265.61 299.628 265.349 300.14C265.108 300.663 264.877 301.369 264.985 302.138C264.985 302.138 264.575 302.358 264.196 302.89C263.817 303.423 263.454 304.278 263.52 305.538C263.52 305.538 263.244 305.753 262.972 306.173C262.691 306.588 262.424 307.208 262.424 308.052L262.383 308.524L262.363 309C262.363 309 262.158 309.107 261.948 309.543C261.738 309.968 261.528 310.721 261.513 311.991C261.513 311.991 261.349 312.308 261.18 312.841C261.016 313.363 260.847 314.106 260.847 314.951L260.811 315.212L260.796 315.468L260.443 315.616L260.099 315.76C260.099 315.76 259.977 315.801 259.864 316.118C259.741 316.41 259.618 316.989 259.618 318.054L259.47 322.079L259.321 326.099L258.655 326.186L258.005 326.258L257.979 326.222L257.949 326.191L257.734 326.155L257.508 326.109L257.411 325.981L257.303 325.858H257.022L256.817 325.818L256.597 325.792H256.254V326.13L256.402 326.222L256.551 326.299C256.551 326.299 256.602 326.422 256.704 326.555C256.817 326.673 256.96 326.801 257.165 326.801L257.262 327.088L257.355 327.349L257.329 328.711L257.303 330.063V349.753H256.673L256.566 358.613H255.485V366.612L244.583 366.627L244.516 346.179L234.494 346.225L231.544 349.211L231.575 354.449L219.95 354.501L218.388 361.86L216.791 361.87V361.942L207.911 361.983L207.921 368.548H206.087L206.047 353.348L200.977 353.379V354.342H198.498V352.57H190.596V368.543H190.166L190.13 359.12L187.846 356.841L174.634 356.902L174.675 367.831L162.005 367.892L161.99 364.277L162.517 336.152L137.767 338.728L137.711 368.148L133.563 368.169L133.496 352.196L124.596 351.981L124.483 364.446L115.639 364.487L115.66 368.543H115.388V368.22H115.311V344.914H109.612V368.548H105.31L97.6999 367.57L97.4131 345.595L89.711 345.349V358.766H89.2399V361.537L88.6561 361.563L88.6868 368.543H87.975V359.248H87.0327V358.879H83.3609V359.248H82.4186V368.543H80.2371L80.1244 345.657L77.6099 343.183L64.4641 343.239L64.4846 348.898L57.9092 348.934L52.7164 354.844L52.7574 363.831H28.3554V374.027H26.1073V373.971L23.7977 373.981L23.4904 373.961C23.4904 373.961 18.9173 370.294 20.7353 362.935L21.6724 363.002L19.5574 356.262C19.5574 356.262 22.7786 353.917 20.7353 349.523C20.7353 349.523 16.4028 344.724 13.4429 343.342C13.4429 343.342 18.6664 342.077 17.6678 339.67L16.7869 338.656L15.9368 337.422L14.293 337.319L13.489 335.368L12.7003 336.495L11.1793 334.744L10.8721 335.896L9.69936 335.819L8.11182 332.92L8.28082 331.005C8.94144 330.544 8.39861 329.822 8.39861 329.822C8.22449 329.259 7.27197 329.269 7.27197 329.269C5.54617 329.192 5.64859 329.884 5.64859 329.884L5.90464 334.134L6.85204 334.431L7.86089 335.215C7.86089 335.215 8.18352 340.648 9.35625 340.725C9.35625 340.725 8.38324 344.433 9.52524 344.975C9.52524 344.975 7.27197 353.753 9.87347 356.764C9.87347 356.764 9.28455 361.906 10.8567 362.956L12.2701 369.633C12.2701 369.633 12.3777 371.651 11.8656 373.29C11.5788 374.155 10.8823 375.4 9.39209 375.282V376.936H9.44843L9.47915 383.998L3.45677 384.024L3.46701 386.574L6.72401 386.564V389.892L3.0266 390.63L2.94978 391.418L2.8576 391.444L1.37249 391.162L1.44931 406.987H0.0358887V495.827H103.272C106.073 496.754 109.053 497.22 112.172 497.22C121.375 497.22 129.338 493.845 135.145 487.69C141.818 493.835 151.046 497.22 161.744 497.22C167.157 497.22 172.242 496.308 176.8 494.567V495.827H215.27V460.456C215.418 460.425 215.628 460.41 215.889 460.41C216.719 460.41 217.523 460.553 218.962 460.947L219.469 461.08V467.922C219.469 487.546 228.185 494.967 247.747 494.967C248.818 494.967 249.862 494.931 250.871 494.885V512.04H269.64C278.581 512.04 293.525 512.04 300.5 492.662L316.247 449.246C316.216 449.911 316.191 450.572 316.191 451.238C316.191 477.883 334.903 497.215 360.677 497.215C368.456 497.215 375.692 495.463 381.879 492.201V495.822H420.348V493.435C424.486 495.361 429.699 496.278 436.049 496.278C437.13 496.278 438.164 496.237 439.173 496.191V512.035H457.952C466.888 512.035 481.842 512.035 488.807 492.657L511.811 429.248H512.082V428.5L512.133 400.852L495.357 401.015L495.316 401.036Z" fill="black"/>
<path d="M11.0153 415.402H28.3347V469.25H59.3428V484.803H11.0153V415.402Z" fill="#867767"/>
<path d="M63.1631 434.351H78.9923V484.803H63.1631V434.351ZM78.9923 428.031H63.1631V415.397H78.9923V428.031Z" fill="#867767"/>
<path d="M98.4578 459.044C98.4578 467.893 100.875 473.624 108.05 473.624C115.224 473.624 117.549 465.958 117.549 459.044C117.549 452.633 115.127 445.54 108.142 445.54C103.85 445.54 98.4578 448.638 98.4578 459.044ZM83.1816 415.402H99.0109V439.896H99.2004C102.462 435.231 107.025 432.896 112.981 432.896C126.68 432.896 133.389 445.335 133.389 458.46C133.389 479.559 120.176 486.273 111.778 486.273C106.186 486.273 101.53 483.738 98.4629 478.986H98.2735V484.813H83.1816V415.413V415.402Z" fill="#867767"/>
<path d="M170.353 454.378C170.081 448.735 166.256 444.07 160.945 444.07C155.363 444.07 151.625 448.254 150.693 454.378H170.353ZM150.693 463.612C150.985 470.52 154.785 475.088 161.508 475.088C165.324 475.088 169.042 473.239 170.537 469.542H185.342C182.449 481.213 172.114 486.267 161.314 486.267C145.572 486.267 134.869 476.348 134.869 459.443C134.869 443.978 146.693 432.896 160.94 432.896C178.26 432.896 186.924 446.507 186.182 463.612H150.688H150.693Z" fill="#867767"/>
<path d="M187.667 434.35H203.035V443.199H203.225C205.55 436.777 210.947 433.377 217.748 433.377C218.962 433.377 220.268 433.474 221.476 433.761V448.832C219.433 448.249 217.574 447.859 215.423 447.859C207.603 447.859 203.506 453.508 203.506 459.817V484.803H187.672V434.35H187.667Z" fill="#867767"/>
<path d="M255.931 445.048H246.149V467.991C246.149 471.975 248.392 472.846 251.834 472.846C253.135 472.846 254.527 472.656 255.931 472.656V484.798C253.037 484.901 250.154 485.279 247.276 485.279C233.772 485.279 230.32 481.203 230.32 467.494V445.038H222.316V434.34H230.32V419.074H246.149V434.34H255.931V445.038V445.048Z" fill="#867767"/>
<path d="M289.361 489.284C285.546 500.356 279.867 501.723 269.158 501.723H261.707V488.306H267.192C270.833 488.306 273.537 486.17 273.537 482.668C273.537 479.943 270.469 472.169 269.522 469.455L257.052 434.355H273.819L282.944 467.207H283.129L292.255 434.355H308.463L289.366 489.284H289.361Z" fill="#867767"/>
<path d="M373.173 440.177C372.251 433.187 367.022 429.484 359.766 429.484C348.581 429.484 344.3 439.793 344.3 450.097C344.3 460.4 348.581 470.704 359.766 470.704C367.867 470.704 372.522 465.854 373.173 457.87H390.497C389.565 475.753 376.993 486.262 360.135 486.262C340.019 486.262 326.976 470.217 326.976 450.097C326.976 429.976 340.014 413.932 360.135 413.932C374.484 413.932 390.042 423.467 390.497 440.172H373.173V440.177Z" fill="#867767"/>
<path d="M392.623 434.351H408.462V484.803H392.623V434.351ZM408.462 428.031H392.638V415.397H408.462V428.031Z" fill="#867767"/>
<path d="M444.13 445.048H434.354V467.991C434.354 471.975 436.587 472.846 440.033 472.846C441.334 472.846 442.737 472.656 444.13 472.656V484.798C441.252 484.901 438.354 485.279 435.47 485.279C421.966 485.279 418.52 481.203 418.52 467.494V445.038H410.51V434.34H418.52V419.074H434.354V434.34H444.13V445.038V445.048Z" fill="#867767"/>
<path d="M477.571 489.284C473.746 500.356 468.061 501.723 457.353 501.723H449.902V488.306H455.392C459.028 488.306 461.721 486.17 461.721 482.668C461.721 479.943 458.649 472.169 457.722 469.455L445.242 434.355H462.013L471.139 467.207H471.323L480.449 434.355H496.662L477.566 489.284H477.571Z" fill="#867767"/>
<path d="M85.8958 402.963C82.9614 405.38 79.9759 406.522 76.1863 406.522C70.1639 406.522 64.8994 402.492 64.8994 396.182C64.8994 391.348 68.5046 388.229 72.5861 386.324C70.9218 384.476 69.5903 382.396 69.5903 379.836C69.5903 374.571 74.3836 371.253 79.264 371.253C84.1444 371.253 88.8353 374.617 88.8353 380.02C88.8353 383.958 86.4182 386.703 83.0536 388.409L86.5667 392.623C87.2324 391.63 87.6472 390.488 87.7957 389.31H94.7194C94.4275 392.352 93.0602 395.337 90.9759 397.555L98.0942 405.795H88.272L85.9009 402.958L85.8958 402.963ZM76.6113 391.63C74.9418 392.388 72.6732 394.052 72.6732 396.085C72.6732 398.456 74.9418 399.972 77.1234 399.972C78.6444 399.972 80.3599 398.738 81.63 397.555L76.6113 391.63ZM82.2445 379.549C82.2445 377.936 81.0615 376.942 79.4023 376.942C77.9325 376.942 76.7445 378.033 76.7445 379.462C76.7445 381.3 78.0811 382.402 79.1206 383.728C80.7799 382.734 82.2445 381.598 82.2445 379.554V379.549Z" fill="#867767"/>
<path d="M111.88 370.525H138.674V377.874H120.637V384.04H137.127V391.148H120.637V397.846H139.14V405.748H111.88V370.525Z" fill="#867767"/>
<path d="M149.177 392.669C149.177 397.165 150.406 400.079 154.021 400.079C157.637 400.079 158.825 396.177 158.825 392.669C158.825 389.417 157.601 385.817 154.062 385.817C151.906 385.817 149.177 387.389 149.177 392.669ZM141.454 380.137H149.09V383.108H149.182C150.739 380.69 153.084 379.41 155.916 379.41C163.593 379.41 166.839 386.308 166.839 393.519C166.839 400.181 163.444 406.485 156.531 406.485C153.514 406.485 151.205 405.302 149.556 402.982H149.453V414.336H141.459V380.132L141.454 380.137Z" fill="#867767"/>
<path d="M167.864 380.138H175.878V405.754H167.864V380.138ZM175.873 376.932H167.858V370.521H175.873V376.932Z" fill="#867767"/>
<path d="M184.215 397.319C184.215 398.6 184.727 399.537 185.526 400.177C186.279 400.756 187.36 401.063 188.486 401.063C190.043 401.063 192.261 400.371 192.261 398.349C192.261 396.326 189.761 395.978 188.343 395.64C183.309 394.303 177 394.16 177 387.251C177 381.091 183.355 379.396 188.153 379.396C193.525 379.396 199.128 381.034 199.404 387.692H192.015C192.015 386.611 191.641 385.92 190.98 385.469C190.32 385.034 189.423 384.819 188.435 384.819C187.114 384.819 184.999 384.972 184.999 386.749C184.999 389.167 190.376 389.612 194.038 390.457C198.985 391.486 200.26 395.24 200.26 397.355C200.26 404.217 194.038 406.486 188.532 406.486C182.74 406.486 176.8 404.468 176.575 397.314H184.205L184.215 397.319Z" fill="#867767"/>
<path d="M213.493 400.085C217.21 400.085 218.388 396.234 218.388 392.977C218.388 389.72 217.205 385.822 213.493 385.822C209.78 385.822 208.638 389.72 208.638 392.977C208.638 396.234 209.77 400.085 213.493 400.085ZM213.493 379.396C221.067 379.396 226.393 385.285 226.393 392.977C226.393 400.668 221.067 406.491 213.493 406.491C205.918 406.491 200.628 400.674 200.628 392.977C200.628 385.28 205.903 379.396 213.493 379.396Z" fill="#867767"/>
<path d="M235.057 392.669C235.057 396.177 236.281 400.079 239.953 400.079C243.86 400.079 244.705 396.177 244.705 392.92C244.705 389.222 243.43 385.817 239.953 385.817C236.276 385.817 235.057 389.422 235.057 392.669ZM252.433 405.748H244.797V402.793H244.7C243.148 405.21 240.788 406.486 237.971 406.486C230.289 406.486 227.038 399.588 227.038 392.372C227.038 385.72 230.428 379.405 237.351 379.405C240.373 379.405 242.677 380.583 244.321 382.908H244.413V370.525H252.428V405.748H252.433Z" fill="#867767"/>
<path d="M271.12 390.309C270.976 387.446 269.046 385.08 266.362 385.08C263.546 385.08 261.661 387.195 261.18 390.309H271.12ZM261.18 395C261.328 398.498 263.254 400.817 266.654 400.817C268.575 400.817 270.469 399.875 271.217 397.996H278.694C277.239 403.926 272.016 406.481 266.547 406.481C258.594 406.481 253.181 401.452 253.181 392.87C253.181 385.029 259.162 379.386 266.362 379.386C275.124 379.386 279.503 386.299 279.124 394.995H261.18V395Z" fill="#867767"/>
<path d="M286.995 397.319C286.995 398.6 287.512 399.537 288.306 400.177C289.059 400.756 290.145 401.063 291.276 401.063C292.823 401.063 295.04 400.371 295.04 398.349C295.04 396.326 292.541 395.978 291.128 395.64C286.094 394.303 279.774 394.16 279.774 387.251C279.774 381.091 286.135 379.396 290.943 379.396C296.315 379.396 301.913 381.034 302.2 387.692H294.8C294.8 386.611 294.416 385.92 293.76 385.469C293.099 385.034 292.208 384.819 291.225 384.819C289.894 384.819 287.784 384.972 287.784 386.749C287.784 389.167 293.156 389.612 296.828 390.457C301.769 391.486 303.039 395.24 303.039 397.355C303.039 404.217 296.828 406.486 291.312 406.486C285.515 406.486 279.59 404.468 279.354 397.314H286.985L286.995 397.319Z" fill="#867767"/>
<path d="M318.582 370.525H343.358V377.874H327.334V385.079H341.176V392.177H327.334V405.748H318.582V370.525Z" fill="#867767"/>
<path d="M343.772 380.138H351.536V384.644H351.633C352.816 381.372 355.546 379.651 358.987 379.651C359.597 379.651 360.257 379.692 360.877 379.846V387.497C359.832 387.19 358.895 387 357.814 387C353.851 387 351.782 389.863 351.782 393.063V405.743H343.772V380.133V380.138Z" fill="#867767"/>
<path d="M373.198 400.085C376.921 400.085 378.099 396.234 378.099 392.977C378.099 389.72 376.921 385.822 373.198 385.822C369.475 385.822 368.359 389.72 368.359 392.977C368.359 396.234 369.475 400.085 373.198 400.085ZM373.198 379.396C380.782 379.396 386.098 385.285 386.098 392.977C386.098 400.668 380.777 406.491 373.198 406.491C365.619 406.491 360.344 400.674 360.344 392.977C360.344 385.28 365.619 379.396 373.198 379.396Z" fill="#867767"/>
<path d="M386.759 380.138H394.527V383.651H394.625C396.079 381.085 398.676 379.405 401.63 379.405C404.585 379.405 407.417 380.445 408.754 383.548C410.679 380.834 413.076 379.405 416.374 379.405C424.143 379.405 424.993 385.566 424.993 390.457V405.743H416.988V390.697C416.988 387.932 415.713 386.298 413.644 386.298C410.218 386.298 409.875 389.074 409.875 393.217V405.743H401.881V391.199C401.881 388.173 401.021 386.298 398.86 386.298C395.987 386.298 394.768 388.034 394.768 393.268V405.743H386.759V380.132V380.138Z" fill="#867767"/>
<path d="M49.0547 0.522461H60.741V1.81809H55.6558V16.5719H54.1399V1.81809H49.0598V0.522461H49.0547Z" fill="black"/>
<path d="M63.1121 16.5719V0.522461H64.6228V7.40519H74.1173V0.522461H75.6331V16.5719H74.1173V8.70594H64.6228V16.5719H63.1121Z" fill="black"/>
<path d="M79.4585 16.5719V0.522461H90.1411V1.81809H80.9794V7.61003H89.2397V8.90566H80.9794V15.2814H90.3613V16.5719H79.4534H79.4585Z" fill="black"/>
<path d="M113.222 11.026C113.206 12.675 112.264 14.5493 111.035 15.5069C110.082 16.2648 108.249 17.0228 106.236 17.0945C102.621 17.2071 100.112 14.8873 99.2462 11.451C99.0619 10.6931 98.9287 9.66378 98.9287 8.5986C98.9287 7.53341 99.0414 6.39141 99.3128 5.47474C100.229 2.44306 102.165 0.0566406 106.38 0.0566406C107.532 0.0566406 109.166 0.19491 110.743 1.32667C113.083 2.9142 113.201 5.00872 113.222 5.83321H110.026C109.939 4.91654 109.186 2.6223 105.924 2.86811C104.413 2.97565 103.23 4.07156 102.703 5.45425C102.472 6.03294 102.247 7.10324 102.181 8.2606C102.14 9.42309 102.247 10.6726 102.703 11.6764C103.23 12.8542 103.963 13.5712 104.787 13.945C105.212 14.1294 105.642 14.2164 106.103 14.2164C106.554 14.2369 107.04 14.1652 107.512 14.0321C109.831 13.3919 109.898 11.7378 110.026 11.026H113.222Z" fill="black"/>
<path d="M128.411 15.0565C127.059 16.4648 125.077 17.0896 123.003 17.0896C120.929 17.0896 118.942 16.4648 117.58 15.0565C116.069 13.4741 115.173 11.0211 115.173 8.57323C115.173 6.12535 116.069 3.66212 117.58 2.0797C118.942 0.68165 120.929 0.0517578 123.003 0.0517578C125.077 0.0517578 127.059 0.68165 128.411 2.0797C129.932 3.66212 130.828 6.12023 130.828 8.57323C130.828 11.0262 129.937 13.4741 128.411 15.0565ZM125.983 13.0747C127.059 12.0965 127.591 10.3349 127.617 8.57323C127.597 6.80646 127.059 5.04993 125.983 4.06668C125.144 3.28316 124.073 2.97077 123.003 2.97077C121.933 2.97077 120.857 3.28316 120.012 4.06668C118.942 5.04993 118.404 6.80646 118.384 8.57323C118.404 10.3298 118.947 12.0914 120.012 13.0747C120.857 13.8531 121.928 14.1654 123.003 14.1654C124.078 14.1654 125.144 13.8531 125.983 13.0747Z" fill="black"/>
<path d="M139.57 16.5724L136.671 3.41637V16.5724H133.327V0.323242H138.213L141.249 12.8084L144.281 0.323242H149.162V16.5724H145.817V3.42149L142.919 16.5775H139.57V16.5724Z" fill="black"/>
<path d="M152.352 0.323242H159.573C160.73 0.323242 163.234 0.323242 164.345 2.95548C164.985 4.45083 164.832 6.71947 164.33 7.88195C163.27 10.0635 161.58 10.9187 159.685 10.7754H155.691V16.5724H152.352V0.323242ZM155.696 7.98949H159.45C160.494 7.98949 161.053 7.14452 161.278 6.63241C161.478 6.14078 161.682 5.09096 161.411 4.35353C161.032 3.2781 160.12 3.10911 159.296 3.10911H155.696V7.98949Z" fill="black"/>
<path d="M170.89 0.323242V13.7865H178.669V16.5724H167.541V0.323242H170.89Z" fill="black"/>
<path d="M193.157 0.323242V3.10911H184.727V6.81165H192.511V9.59751H184.727V13.7865H193.536V16.5724H181.373V0.323242H193.152H193.157Z" fill="black"/>
<path d="M208.059 0.323242V3.10911H203.312V16.5724H199.963V3.10911H195.036V0.323242H208.059Z" fill="black"/>
<path d="M222.116 0.323242V3.10911H213.692V6.81165H221.471V9.59751H213.692V13.7865H222.5V16.5724H210.343V0.323242H222.111H222.116Z" fill="black"/>
<path d="M231.934 16.5719V0.522461H242.606V1.81809H233.449V7.61003H241.72V8.90566H233.449V15.2814H242.826V16.5719H231.934Z" fill="black"/>
<path d="M245.791 16.5719V0.522461H251.271C253.053 0.522461 254.732 0.630003 256.228 1.72591C258.343 3.26224 258.901 6.38609 258.901 8.5267C258.901 10.6673 258.435 13.0076 256.96 14.6157C255.485 16.2646 253.391 16.5719 251.271 16.5719H245.791ZM247.302 15.2814H250.933C252.29 15.2814 253.478 15.1943 254.707 14.544C256.842 13.4532 257.385 10.7083 257.385 8.5267C257.385 6.18125 256.873 3.62071 254.615 2.41726C253.657 1.90003 252.274 1.81809 250.933 1.81809H247.302V15.2814Z" fill="black"/>
<path d="M262.66 16.5719V0.522461H264.171V16.5719H262.66Z" fill="black"/>
<path d="M267.11 0.522461H278.791V1.81809H273.711V16.5719H272.2V1.81809H267.11V0.522461Z" fill="black"/>
<path d="M281.726 16.5719V0.522461H283.241V16.5719H281.726Z" fill="black"/>
<path d="M294.41 0.0976562C299.424 0.0976562 301.964 3.86677 301.964 8.57304C301.964 13.2793 299.424 16.9972 294.477 16.9972C289.53 16.9972 287.01 13.182 287.01 8.57304C286.985 3.88725 289.617 0.0976562 294.416 0.0976562H294.41ZM300.448 8.57304C300.448 4.10746 298.154 1.38817 294.451 1.38817C290.324 1.38817 288.521 4.84489 288.521 8.57304C288.521 12.3012 290.308 15.7067 294.497 15.7067C298.686 15.7067 300.448 12.3165 300.448 8.57304Z" fill="black"/>
<path d="M306.722 2.57601H306.681V16.5719H305.165V0.522461H306.88L316.15 14.5491H316.201V0.522461H317.711V16.5719H315.95L306.722 2.57601Z" fill="black"/>
</g>
<defs>
<clipPath id="clip0_838_1200">
<rect width="512.133" height="512" fill="white" transform="translate(0 0.0507812)"/>
</clipPath>
</defs>
</svg>
