<svg width="1025" height="199" viewBox="0 0 1025 199" fill="none" xmlns="http://www.w3.org/2000/svg">
<g clip-path="url(#clip0_2_14679)">
<path fill-rule="evenodd" clip-rule="evenodd" d="M314.807 51.3391V38.9462C314.785 38.1369 315.086 37.3521 315.643 36.7644C316.2 36.1766 316.967 35.834 317.776 35.8118H372.258C372.652 35.7967 373.045 35.8596 373.414 35.9966C373.784 36.1337 374.122 36.3423 374.411 36.6105C374.7 36.8787 374.932 37.2013 375.096 37.5596C375.26 37.918 375.351 38.3052 375.365 38.699C375.37 38.7664 375.37 38.8338 375.37 38.8988V49.5059C374.709 52.4137 373.313 55.1035 371.317 57.3183L343.039 98.2633C353.769 97.6639 364.458 100.012 374.004 105.062C374.86 105.547 375.575 106.246 376.079 107.091C376.582 107.936 376.857 108.898 376.876 109.882V123.097C376.929 124.722 375.685 126.079 374.096 126.131C373.676 126.144 373.258 126.063 372.873 125.894C364.034 121.226 354.189 118.786 344.193 118.786C334.197 118.786 324.353 121.226 315.514 125.894C313.628 126.908 311.65 124.835 311.65 123.002V110.464C311.479 107.497 312.183 104.545 313.675 101.975L346.339 54.3287H318.059C316.373 54.4111 314.934 53.0749 314.854 51.3441V51.2917L314.807 51.3391ZM93.795 126.156C93.0268 126.124 92.2961 125.816 91.7382 125.287C91.1802 124.758 90.8329 124.044 90.7605 123.279V35.7793C90.7666 35.3555 90.8565 34.937 91.0248 34.5479C91.1931 34.1589 91.4366 33.8069 91.7412 33.5122C92.0459 33.2175 92.4058 32.9858 92.8003 32.8306C93.1947 32.6753 93.6159 32.5995 94.0397 32.6074H110.037C110.831 32.6399 111.586 32.9597 112.161 33.5074C112.737 34.055 113.094 34.7932 113.166 35.5845V46.9984H113.461C114.882 42.1744 117.872 37.9624 121.957 35.0292C126.042 32.0959 130.989 30.6091 136.014 30.8042C146.728 30.8042 153.477 35.9242 158.272 46.9984C163.335 33.9611 178.035 27.4824 191.113 32.5275C195.311 34.1443 199.004 36.8493 201.812 40.3648C207.242 47.7276 206.115 58.4097 206.115 67.7756V123.034C206.102 123.457 206.006 123.874 205.832 124.26C205.658 124.646 205.41 124.994 205.102 125.284C204.793 125.573 204.43 125.8 204.034 125.95C203.638 126.099 203.217 126.169 202.794 126.156H185.668C184.855 126.12 184.086 125.778 183.515 125.199C182.943 124.621 182.611 123.847 182.586 123.034V76.6519C182.841 71.1823 182.678 65.7076 182.096 60.2629C181.765 57.9282 180.521 55.8204 178.637 54.402C176.754 52.9837 174.384 52.3707 172.049 52.6978L172.019 52.7028C169.801 52.7734 167.653 53.4895 165.837 54.7631C164.021 56.0368 162.615 57.8128 161.794 59.8733C160.362 65.3438 159.817 71.0087 160.18 76.6519V123.032C160.174 123.449 160.085 123.861 159.919 124.244C159.753 124.626 159.513 124.973 159.213 125.263C158.913 125.553 158.559 125.781 158.171 125.934C157.783 126.086 157.368 126.161 156.951 126.154H139.78C138.967 126.117 138.198 125.776 137.627 125.197C137.056 124.618 136.724 123.845 136.698 123.032V76.6519C136.698 66.8964 138.312 52.508 126.181 52.508C114.048 52.508 114.342 66.5068 114.342 76.6519V123.032C114.336 123.449 114.248 123.861 114.083 124.244C113.917 124.627 113.678 124.974 113.378 125.264C113.079 125.555 112.725 125.784 112.338 125.938C111.95 126.091 111.535 126.167 111.118 126.161C111.068 126.161 111.016 126.161 110.966 126.156H93.795ZM420.506 30.7892C445.984 30.7892 459.703 52.0834 459.703 79.167C459.703 105.391 444.515 126.161 420.506 126.161C395.52 126.161 381.899 104.819 381.899 78.3078C381.899 51.7962 395.52 30.7892 420.361 30.7892H420.506ZM406.997 75.6829C406.997 86.1726 406.997 108.593 420.476 108.593C433.955 108.593 434.55 90.4859 434.55 79.4692C434.842 71.8041 433.975 64.1341 431.972 56.7164C430.873 51.5889 426.028 48.0348 420.623 48.3795C407.838 48.3795 406.997 65.1931 406.997 75.6829ZM493.445 125.959H477.618C476.044 125.906 474.786 124.543 474.761 122.852V35.4746C474.925 33.8187 476.249 32.5774 477.8 32.6099H492.536C493.889 32.6898 495.046 33.6888 495.396 35.0875V48.387H495.668C500.201 36.4936 506.37 30.8142 517.344 30.8142C524.794 30.427 531.867 34.3357 535.891 41.0567C540.017 47.9999 540.017 59.7459 540.017 68.1927V123.434C539.807 125.042 538.493 126.221 536.977 126.154H521.06C519.619 126.099 518.423 124.96 518.206 123.434V76.1549C518.206 66.4444 519.242 52.6603 508.273 52.6603C504.232 52.8851 500.688 55.6199 499.204 59.6485C497.215 64.9131 496.35 70.5358 496.664 76.1549V123.047C496.592 124.837 495.173 126.236 493.5 126.159L493.445 126.154V125.959ZM287.783 124.73C287.239 125.196 286.564 125.482 285.851 125.55C285.138 125.618 284.422 125.464 283.8 125.11C279.952 122.019 276.7 118.253 274.204 113.995C270.847 118.04 266.591 121.242 261.774 123.346C256.958 125.45 251.716 126.397 246.468 126.111C232.075 126.111 221.278 117.432 221.278 100.117C220.976 88.2106 228.124 77.3637 239.223 72.8806C248.339 68.922 261.102 68.1103 270.842 67.1112V64.9134C271.378 60.7756 270.659 56.5723 268.779 52.8476C267.658 51.3934 266.196 50.237 264.523 49.4801C262.85 48.7232 261.016 48.389 259.184 48.5069C252.777 47.9874 246.98 52.2757 245.652 58.5221C245.565 59.2811 245.231 59.9907 244.703 60.5423C244.174 61.0939 243.479 61.4572 242.725 61.5766L226.461 59.8583C225.682 59.7004 224.997 59.2404 224.557 58.5791C224.116 57.9177 223.956 57.1087 224.11 56.3293C227.852 36.7234 245.702 30.8117 261.726 30.8117C270.857 30.4992 279.801 33.4406 286.964 39.1111C295.121 46.6937 294.354 56.8063 294.354 67.7306V93.7253C294.437 99.4916 296.699 105.013 300.686 109.18C301.26 109.766 301.582 110.554 301.582 111.374C301.582 112.195 301.26 112.982 300.686 113.568C297.231 116.431 291.09 121.675 287.781 124.683L287.783 124.73ZM271.277 84.4518V80.9852C259.134 80.9852 246.369 83.4478 246.369 97.047C246.369 103.938 250.097 108.593 256.554 108.593C261.549 108.423 266.037 105.636 268.217 101.338C270.869 96.1313 271.933 90.2578 271.277 84.4518ZM66.7214 124.732C66.1766 125.193 65.5043 125.476 64.7943 125.544C64.0843 125.612 63.3704 125.463 62.7478 125.115C58.9245 122.005 55.6832 118.242 53.1746 114C49.8348 118.034 45.5974 121.23 40.8014 123.334C36.0054 125.437 30.7838 126.389 25.5541 126.114C11.4329 126.116 0.423636 117.437 0.423636 100.122C0.24051 94.2909 1.86177 88.5459 5.06596 83.6712C8.27016 78.7965 12.9011 75.0298 18.3262 72.8856C27.4223 68.927 40.1049 68.1152 49.8704 67.1137V64.9184C50.3832 60.7816 49.6675 56.5855 47.8124 52.8526C46.6836 51.4124 45.2239 50.2657 43.5573 49.51C41.8907 48.7544 40.0664 48.4119 38.2392 48.5119C35.1641 48.2676 32.1049 49.1484 29.6305 50.9906C27.1561 52.8329 25.4351 55.511 24.7874 58.5271C24.7022 59.2856 24.3704 59.9953 23.843 60.547C23.3155 61.0988 22.6216 61.4623 21.8677 61.5816L5.59359 59.8633C4.83337 59.6832 4.17332 59.2138 3.75361 58.5549C3.33389 57.8959 3.1876 57.0993 3.34578 56.3342C7.07714 36.7234 24.8848 30.8117 40.8692 30.8117C49.997 30.4903 58.9406 33.4329 66.0945 39.1111C74.2815 46.6962 73.4673 56.8088 73.4673 67.7331V93.7278C73.5474 99.4923 75.8047 105.013 79.7862 109.183C81.0025 110.357 81.035 112.287 79.8586 113.498L79.7862 113.571C76.3895 116.433 70.213 121.68 66.9587 124.685L66.7189 124.732H66.7214ZM50.4323 80.9852C38.3042 80.9852 25.5067 83.4478 25.5067 97.047C25.5067 103.938 29.278 108.593 35.6767 108.593C40.6444 108.393 45.1 105.604 47.2804 101.338C49.9605 96.1397 51.0564 90.2693 50.4323 84.4543V80.9852ZM219.877 198.94C167.138 199.235 116.191 178.697 76.9939 141.324C74.0118 138.524 76.6567 134.653 80.2158 136.843C123.866 163.187 173.247 177.004 223.486 176.929C260.939 176.737 297.986 168.725 332.512 153.345C337.657 150.952 342.128 157.066 336.888 161.137C305.244 185.793 259.411 198.94 219.877 198.94ZM349.443 145.967C345.327 140.622 322.205 143.419 311.817 144.72C308.633 145.065 308.146 142.27 310.986 140.272C329.455 127.093 359.683 130.886 363.21 135.28C366.736 139.675 362.278 170.528 344.985 185.206C342.29 187.504 339.79 186.255 340.969 183.308C344.84 173.472 353.556 151.359 349.443 145.967ZM882.138 111.625C885.36 109.387 887.198 105.736 887.021 101.91C887.078 100.623 886.854 99.3398 886.365 98.1486C885.876 96.9573 885.133 95.8869 884.189 95.0115C881.07 92.5917 877.525 90.7772 873.739 89.6617L858.014 84.0272C844.39 79.3343 837.499 70.8875 837.499 59.2014C837.262 51.8586 840.738 44.8554 846.832 40.4248C853.893 35.4546 862.507 32.9571 871.249 33.3392C879.253 33.3392 887.193 34.7228 894.688 37.4227C895.893 37.7342 896.99 38.367 897.863 39.2534C898.522 40.2949 898.829 41.5087 898.737 42.725V47.4204C898.737 49.5309 897.963 50.6098 896.349 50.6098C894.9 50.5031 893.471 50.2032 892.101 49.7182C885.625 47.8468 878.918 46.8992 872.178 46.9035C860.359 46.9035 854.4 50.7047 854.4 58.4022C854.328 59.7598 854.557 61.1165 855.073 62.3746C855.588 63.6327 856.376 64.7608 857.38 65.6776C860.907 68.244 864.835 70.2102 869.003 71.4969L883.652 76.7993C889.499 78.7986 894.777 82.1804 899.037 86.6572C902.398 90.7047 904.138 95.856 903.919 101.113C904.216 108.898 900.573 116.348 894.154 121.106C886.569 126.438 877.308 129.086 867.929 128.621C858.402 128.748 848.938 127.058 840.044 123.641C838.901 123.241 837.865 122.583 837.017 121.718C836.399 120.704 836.108 119.524 836.185 118.339V113.369C836.185 111.251 836.92 110.172 838.383 110.172C839.969 110.334 841.529 110.697 843.024 111.251C851.223 113.745 859.749 114.995 868.319 114.96C873.164 115.291 877.993 114.11 882.138 111.58V111.625ZM800.745 36.9632C800.63 36.1177 800.853 35.2609 801.368 34.58C801.882 33.8991 802.645 33.4494 803.49 33.3292C803.779 33.2917 804.069 33.2917 804.359 33.3342H814.959C815.376 33.2766 815.8 33.3019 816.208 33.4088C816.615 33.5157 816.997 33.702 817.332 33.9571C817.667 34.2121 817.949 34.5309 818.16 34.895C818.372 35.2592 818.51 35.6616 818.565 36.079C818.608 36.3737 818.608 36.6734 818.57 36.9632V122.165C818.827 123.941 817.621 125.587 815.88 125.844C815.574 125.893 815.262 125.893 814.956 125.844H807.206C806.236 125.896 805.273 125.642 804.454 125.12C803.661 124.41 803.168 123.425 803.075 122.365L801.839 115.971C792.106 123.884 780.014 128.33 767.472 128.606C763.847 128.86 760.208 128.34 756.799 127.079C753.39 125.819 750.288 123.848 747.699 121.296C742.855 115.54 740.404 108.145 740.851 100.636V36.9607C740.737 36.1143 740.962 35.2572 741.478 34.5764C741.994 33.8956 742.758 33.4463 743.603 33.3267C743.89 33.2873 744.181 33.289 744.467 33.3317H755.067C755.559 33.2624 756.06 33.3087 756.531 33.4669C757.002 33.6251 757.429 33.8908 757.78 34.243C758.13 34.5953 758.393 35.0242 758.549 35.496C758.704 35.9677 758.748 36.4692 758.676 36.9607V95.0215C758.259 100.145 759.583 105.26 762.435 109.537C763.934 111.225 765.805 112.541 767.901 113.381C769.996 114.221 772.258 114.561 774.508 114.375C783.869 114.115 792.939 111.068 800.558 105.624L800.745 36.9607V36.9632ZM704.017 126.126C703.598 126.186 703.171 126.163 702.761 126.058C702.352 125.952 701.966 125.767 701.628 125.513C701.29 125.259 701.005 124.94 700.79 124.576C700.575 124.211 700.434 123.808 700.375 123.389C700.326 123.079 700.326 122.764 700.375 122.45V63.3099C700.735 58.5378 699.523 53.7789 696.924 49.7607C695.58 48.2315 693.894 47.0404 692.004 46.2837C690.114 45.527 688.073 45.2259 686.044 45.4049C676.569 45.6099 667.34 48.4595 659.398 53.6319C659.475 54.531 659.475 55.4401 659.398 56.3417V122.447C659.471 122.944 659.428 123.452 659.271 123.929C659.115 124.407 658.849 124.841 658.495 125.198C658.141 125.555 657.709 125.824 657.232 125.985C656.756 126.146 656.249 126.193 655.752 126.124H645.069C644.651 126.184 644.224 126.16 643.814 126.055C643.404 125.95 643.019 125.765 642.681 125.511C642.342 125.256 642.058 124.938 641.843 124.573C641.628 124.209 641.487 123.805 641.428 123.386C641.378 123.077 641.378 122.762 641.428 122.447V63.3099C641.777 58.5452 640.583 53.7948 638.024 49.7607C636.674 48.2383 634.988 47.0518 633.099 46.2956C631.211 45.5395 629.172 45.2345 627.144 45.4049C617.721 45.4663 608.517 48.2561 600.645 53.4371V122.445C600.771 123.293 600.555 124.157 600.045 124.846C599.534 125.536 598.771 125.994 597.923 126.121C597.633 126.163 597.339 126.164 597.049 126.124H586.314C585.82 126.187 585.318 126.134 584.847 125.97C584.376 125.807 583.95 125.536 583.602 125.18C583.253 124.824 582.992 124.392 582.839 123.917C582.685 123.443 582.644 122.94 582.718 122.447V37.2229C582.593 36.3887 582.803 35.539 583.302 34.8591C583.801 34.1793 584.549 33.7245 585.383 33.5939C585.691 33.5454 586.006 33.5454 586.314 33.5939H594.364C595.343 33.544 596.312 33.7962 597.144 34.3182C597.935 35.0126 598.432 35.9791 598.535 37.0306L599.589 42.8849C609.394 35.4795 621.241 31.2728 633.521 30.8366C644.777 30.8366 652.352 35.1424 656.381 43.804C666.645 35.7434 679.23 31.1972 692.276 30.8366C699.369 30.3896 706.322 32.9696 711.445 37.9497C716.223 43.5839 718.629 50.8524 718.156 58.2249V122.445C718.229 122.942 718.186 123.449 718.029 123.926C717.872 124.403 717.607 124.838 717.253 125.194C716.9 125.551 716.468 125.821 715.992 125.981C715.516 126.142 715.009 126.19 714.512 126.121H704.017V126.126ZM981.776 55.8472C977.343 60.9398 975.125 69.0843 975.125 80.2784V82.6161C975.125 93.5429 977.405 101.702 981.871 106.473C984.657 109.223 988.008 111.334 991.691 112.661C995.375 113.987 999.302 114.497 1003.2 114.155C1008.68 114.08 1014.12 113.231 1019.35 111.625C1020.24 111.363 1021.15 111.187 1022.06 111.101C1023.63 111.101 1024.39 112.295 1024.39 114.68V119.45C1024.48 120.644 1024.23 121.833 1023.68 122.887C1022.93 123.818 1021.92 124.495 1020.78 124.847C1014.29 127.505 1007.32 128.803 1000.31 128.661C986.052 128.661 975.362 124.605 967.857 116.498C960.349 108.381 956.643 96.6424 956.643 81.2799C956.643 65.9149 960.492 54.2263 968.237 45.8745C972.502 41.5854 977.63 38.2527 983.282 36.0975C988.934 33.9424 994.979 33.014 1001.02 33.3742C1007.51 33.3872 1013.94 34.5507 1020.02 36.8108C1021.1 37.1305 1022.07 37.7399 1022.82 38.5741C1023.44 39.678 1023.72 40.9418 1023.63 42.2005V46.9709C1023.63 49.3586 1022.82 50.5524 1021.3 50.5524C1020.32 50.5044 1019.34 50.3281 1018.41 50.0279C1013.56 48.6043 1008.53 47.88 1003.49 47.88C993.512 48.2147 986.289 50.7422 981.823 55.8472H981.776ZM935.486 38.3393C937.199 38.0896 938.79 39.2909 939.033 41.0192C939.075 41.3014 939.082 41.5911 939.042 41.8784V125.037C939.114 125.522 939.071 126.017 938.918 126.482C938.765 126.948 938.506 127.372 938.161 127.72C937.816 128.068 937.394 128.33 936.93 128.487C936.466 128.644 935.971 128.691 935.486 128.624H925.051C924.642 128.676 924.226 128.647 923.827 128.539C923.429 128.43 923.056 128.244 922.729 127.992C922.403 127.739 922.13 127.424 921.925 127.065C921.72 126.707 921.589 126.311 921.537 125.901C921.497 125.615 921.498 125.323 921.542 125.037V41.9258C921.471 41.4473 921.513 40.9588 921.663 40.4991C921.814 40.0394 922.07 39.6212 922.41 39.2776C922.751 38.9341 923.167 38.6747 923.625 38.5201C924.084 38.3654 924.572 38.3198 925.051 38.3868L935.486 38.3393ZM938.593 3.74558C942.584 8.44099 942.584 15.4641 938.593 20.1596C936.294 22.1508 933.355 23.2469 930.314 23.2469C927.272 23.2469 924.333 22.1508 922.034 20.1596C917.986 15.4941 917.986 8.41102 922.034 3.74558C924.333 1.7543 927.272 0.658203 930.314 0.658203C933.355 0.658203 936.294 1.7543 938.593 3.74558Z" fill="#46C3D0"/>
</g>
<defs>
<clipPath id="clip0_2_14679">
<rect width="1024" height="198.285" fill="white" transform="translate(0.409668 0.658203)"/>
</clipPath>
</defs>
</svg>
