<svg width="1025" height="302" viewBox="0 0 1025 302" fill="none" xmlns="http://www.w3.org/2000/svg">
<g clip-path="url(#clip0_861_163)">
<path d="M956.555 149.603L1019.52 62.8004H988.762L941.174 128.406L893.587 62.8004H862.826L925.794 149.603L857.458 243.795H888.219L941.174 170.81L994.12 243.795H1024.88L956.555 149.603ZM721.578 153.303C721.578 174.599 727.095 191.68 737.959 204.069C748.655 216.626 763.233 222.994 781.288 222.994C799.343 222.994 813.921 216.626 824.617 204.079C835.323 191.858 840.75 174.768 840.75 153.303C840.75 131.838 835.323 114.677 824.617 102.279C813.753 89.8896 799.174 83.6108 781.288 83.6108C763.402 83.6108 748.823 89.8896 737.959 102.279C727.095 115.005 721.578 132.175 721.578 153.303ZM869.372 153.303C869.372 167.289 867.342 180.134 863.341 191.471C859.34 202.819 853.259 212.976 845.256 221.665C837.175 230.354 827.687 236.961 817.07 241.305C806.463 245.65 794.42 247.852 781.288 247.852C767.987 247.852 755.865 245.65 745.258 241.305C734.641 236.961 725.243 230.354 717.32 221.665C709.238 213.055 703.088 202.948 699.047 191.6C695.006 180.263 692.956 167.378 692.956 153.303C692.956 139.317 695.006 126.451 699.047 115.064C703.088 103.677 709.238 93.4605 717.32 84.6919C725.243 76.0821 734.641 69.5355 745.258 65.2306C755.865 60.9257 767.987 58.7534 781.288 58.7534C794.42 58.7534 806.463 60.9257 817.07 65.2306C827.687 69.5355 837.165 76.0821 845.256 84.682C853.259 93.4604 859.34 103.677 863.341 115.064C867.342 126.451 869.372 139.317 869.372 153.303ZM655.877 191.828C655.877 182.326 653.014 175.105 647.369 170.363C641.704 165.612 633.078 163.202 621.719 163.202H566.109V219.949H621.719C632.741 219.949 641.288 217.499 647.112 212.659C652.925 207.838 655.877 200.825 655.877 191.828ZM566.109 140.11H617.925C628.354 140.11 636.277 137.769 641.477 133.147C646.666 128.525 649.291 121.492 649.291 112.237C649.291 104.252 646.557 97.9241 641.169 93.4406C635.752 88.9373 627.938 86.6559 617.925 86.6559H566.109V140.11ZM683.736 192.334C683.736 208.225 678.467 220.911 668.078 230.047C657.709 239.173 642.615 243.795 623.244 243.795H538.507V163.202H498.248L514.996 140.11H538.507V62.8004H619.698C637.901 62.8004 652.054 67.1748 661.759 75.7945C671.475 84.4241 676.397 95.9204 676.397 109.956C676.397 127.364 668.514 140.566 652.975 149.206C663.007 153.084 670.703 158.808 675.843 166.207C681.082 173.736 683.736 182.524 683.736 192.334ZM524.057 243.795H493.296L440.351 170.81L387.395 243.795H356.634L424.97 149.603L362.002 62.8004H392.763L440.351 128.406L487.929 62.8004H518.7L455.731 149.603L524.057 243.795ZM192.499 83.214C192.351 83.333 192.242 83.5016 192.242 83.7099C192.242 83.8786 192.341 84.0174 192.44 84.1464C222.706 120.222 281.296 206.251 269.838 241.732C269.739 242.029 269.749 242.357 270.016 242.505C270.283 242.674 270.63 242.505 270.808 242.267C290.091 216.954 301.55 185.351 301.55 151.051C301.55 109.262 284.555 71.4697 257.121 44.1921C256.913 43.9937 256.695 43.8152 256.448 43.6863C253.922 42.3769 238.354 37.5265 192.499 83.214ZM45.9829 43.6863C45.7353 43.8152 45.5174 43.9937 45.3193 44.1921C17.8859 71.4697 0.881104 109.262 0.881104 151.051C0.881104 185.351 12.3398 216.954 31.6224 242.267C31.8106 242.505 32.1572 242.674 32.4246 242.505C32.6821 242.357 32.692 242.029 32.593 241.732C21.1442 206.251 79.7349 120.222 109.991 84.1464C110.1 84.0174 110.199 83.8786 110.199 83.7099C110.199 83.5016 110.08 83.333 109.941 83.214C64.077 37.5265 48.5083 42.3769 45.9829 43.6863ZM229.529 22.5089C206.503 8.81059 181.556 0.478516 151.22 0.478516C120.875 0.478516 95.9276 8.81059 72.9013 22.5089C72.6339 22.6676 72.525 22.985 72.6537 23.2628C72.7726 23.5306 73.0796 23.5901 73.3767 23.5207C102.494 17.222 146.704 42.3968 150.903 44.9261C150.992 44.9757 151.092 45.0353 151.22 45.0353C151.349 45.0353 151.438 44.9757 151.537 44.9261C155.727 42.3968 199.947 17.222 229.054 23.5207C229.351 23.5901 229.658 23.5306 229.787 23.2628C229.916 22.985 229.807 22.6676 229.529 22.5089ZM151.22 121.244C151.389 121.244 151.597 121.383 151.706 121.482C196.669 155.733 273.651 240.462 250.179 264.387C223.736 287.568 189.122 301.623 151.22 301.623C113.319 301.623 78.7049 287.568 52.2519 264.387C28.78 240.462 105.762 155.733 150.715 121.482C150.834 121.383 151.052 121.244 151.22 121.244Z" fill="#107B10"/>
</g>
<defs>
<clipPath id="clip0_861_163">
<rect width="1024" height="301.145" fill="white" transform="translate(0.881104 0.478516)"/>
</clipPath>
</defs>
</svg>
