<svg width="1025" height="166" viewBox="0 0 1025 166" fill="none" xmlns="http://www.w3.org/2000/svg">
<g clip-path="url(#clip0_833_468)">
<path d="M55.148 0.931363C54.58 0.717756 53.9782 0.60803 53.3714 0.607422L4.14246 0.607422C3.18264 0.607422 2.26213 0.988711 1.58343 1.66741C0.904727 2.34611 0.523438 3.26662 0.523438 4.22645L0.523438 55.5711L55.148 0.931363Z" fill="#00AE4D"/>
<path d="M1.58203 164.435C1.91818 164.771 2.3175 165.038 2.75703 165.219C3.19656 165.401 3.66764 165.494 4.14319 165.493H51.8688C52.8286 165.493 53.7491 165.111 54.4278 164.433C55.1065 163.754 55.4878 162.834 55.4878 161.874V110.534L1.58203 164.435Z" fill="#00AE4D"/>
<path d="M110.446 55.5713V165.048L110.775 165.185L165.409 110.535L110.446 55.5713Z" fill="#00682C"/>
<path d="M55.4871 110.535V1.05284C55.3808 1.00222 55.2694 0.951609 55.1581 0.911116L0.523439 55.5711V161.864C0.522996 162.339 0.616207 162.809 0.797734 163.248C0.979261 163.686 1.24554 164.085 1.58131 164.42L55.4871 110.535ZM165.409 110.535V4.22645C165.409 3.26662 165.028 2.34611 164.349 1.66741C163.671 0.988711 162.75 0.607422 161.79 0.607422L114.065 0.607422C113.106 0.607421 112.186 0.988015 111.507 1.66562C110.829 2.34323 110.447 3.26244 110.446 4.22139V55.5711L165.409 110.535ZM165.409 110.535L110.775 165.169C111.343 165.383 111.944 165.493 112.551 165.493H161.795C162.755 165.493 163.676 165.112 164.354 164.433C165.033 163.755 165.414 162.834 165.414 161.874V110.535H165.409Z" fill="#8CCB32"/>
<path d="M56.97 2.09044C56.5389 1.6663 56.0348 1.32338 55.4819 1.07812V110.535L108.963 164.01C109.394 164.434 109.898 164.777 110.451 165.023V55.571L56.97 2.09044Z" fill="#00AE4D"/>
<path d="M1021.44 77.1869H1004.77V108.049C1004.77 111.752 1005.39 114.839 1007.24 116.69C1008.48 118.542 1011.56 119.776 1015.26 119.776C1016.5 119.776 1017.73 119.776 1019.59 119.159H1020.2C1021.44 119.159 1022.67 119.776 1023.29 121.628V136.442C1023.29 137.676 1022.67 138.294 1021.44 138.911C1020.2 139.528 1018.35 139.528 1016.5 140.145C1013.41 140.762 1010.94 140.763 1007.86 140.763C1002.3 140.763 997.982 140.145 994.279 138.911C990.575 137.676 987.489 135.825 985.637 133.356C983.168 130.887 981.934 127.801 980.699 124.097C979.465 120.394 979.465 116.69 979.465 112.369V40.1526C979.465 38.9181 980.699 37.6837 981.934 37.6837H1000.45C1002.3 37.6837 1003.54 38.9181 1003.54 40.7699L1005.39 59.287H1022.05C1023.29 59.287 1024.52 60.5215 1024.52 61.756V76.5697C1023.91 76.5697 1022.67 77.1869 1021.44 77.1869ZM912.186 104.345C912.186 106.814 912.803 108.666 914.037 110.518C915.272 112.37 916.506 114.221 918.358 115.456C920.21 116.69 922.062 117.925 924.53 118.542C926.999 119.159 928.851 119.776 931.32 119.776C935.641 119.776 939.344 119.159 941.813 117.308L947.368 113.604C948.603 112.37 949.837 112.37 951.072 113.604L962.182 125.332C963.417 126.566 963.417 128.418 962.182 129.035C959.096 131.504 956.01 133.973 952.306 135.825C946.134 138.911 938.727 140.145 930.703 140.145C924.53 140.145 918.975 138.911 913.42 137.059C907.865 135.207 903.544 132.738 899.224 129.035C894.903 125.332 891.817 121.011 889.965 116.073C887.496 110.518 886.262 104.963 886.262 98.173C886.262 91.3834 887.496 85.8283 889.348 80.2731C891.817 74.718 894.903 70.3972 898.606 66.6938C902.31 62.9904 907.248 59.9042 912.186 58.0525C917.741 56.2008 923.296 54.9663 929.468 54.9663C935.641 54.9663 940.579 56.2008 945.517 58.0525C950.455 59.9042 954.775 62.9904 958.479 66.6938C962.182 70.3972 964.651 74.718 966.503 80.2731C968.354 85.8283 969.589 92.0007 969.589 98.7903V104.963H912.186V104.345ZM942.43 77.1869C939.961 74.1007 935.641 72.8662 930.703 72.8662C928.234 72.8662 925.765 73.4835 923.913 74.1007C922.062 74.718 919.593 75.9525 918.358 77.1869C916.506 78.4214 915.272 80.2731 914.655 82.1248C913.42 83.9765 913.42 85.8282 912.803 88.2972H946.751C946.134 83.9765 944.899 80.2731 942.43 77.1869ZM875.151 137.059H852.931C851.696 137.059 850.462 135.825 850.462 134.59V27.8078C850.462 26.5733 851.696 25.3389 852.931 25.3389H875.151C876.386 25.3389 877.62 26.5733 877.62 27.8078V134.59C877.003 135.825 876.386 137.059 875.151 137.059ZM830.71 137.059H808.49C807.255 137.059 806.021 135.825 806.021 134.59V27.8078C806.021 26.5733 807.255 25.3389 808.49 25.3389H830.71C831.945 25.3389 833.179 26.5733 833.179 27.8078V134.59C833.179 135.825 831.945 137.059 830.71 137.059ZM786.886 137.059H770.838C769.603 137.059 768.369 136.442 767.752 134.59L765.9 128.418C763.431 130.887 759.728 133.356 755.407 135.207C751.703 137.059 747.383 138.294 742.445 138.294H738.124C731.952 138.294 727.014 137.059 722.076 134.59C717.138 132.121 713.435 129.035 710.348 125.332C707.262 121.628 704.793 116.69 702.942 111.752C701.09 106.814 700.473 101.259 700.473 95.7041C700.473 90.149 701.09 84.5938 702.942 79.6559C704.793 74.7179 707.262 70.3972 710.348 66.0765C713.435 62.3731 717.755 59.2869 722.076 56.8179C727.014 54.349 731.952 53.7317 737.507 53.7317C744.297 53.7317 749.852 54.9662 754.172 56.8179C757.876 58.6696 760.345 60.5215 762.814 62.3732L764.665 54.9663C765.283 53.7318 766.517 52.4974 767.752 52.4974H786.269C787.503 52.4974 788.738 53.7318 788.738 54.9663V133.356C789.355 135.825 788.121 137.059 786.886 137.059ZM762.814 89.5317C762.197 87.0628 760.345 84.5938 759.11 82.7421C757.259 80.8903 755.407 79.0387 752.938 77.8042C750.469 76.5697 748 75.9524 744.914 75.9524C741.828 75.9524 739.359 76.5697 736.89 77.8042C734.421 79.0387 732.569 80.2731 730.717 82.1248C728.866 83.9765 727.631 86.4455 727.014 88.9145C726.397 91.3834 725.779 93.8524 725.779 96.3214C725.779 98.7904 726.397 101.259 727.014 103.728C727.631 106.197 728.866 108.666 730.717 110.518C732.569 112.37 734.421 114.221 736.89 115.456C739.359 116.69 741.828 117.308 744.914 117.308C748 117.308 750.469 116.69 752.938 115.456C755.407 114.221 757.259 112.987 759.11 110.518C760.962 108.666 762.197 106.197 762.814 103.728C763.431 101.259 764.048 98.7904 764.048 96.3214C764.048 94.4697 763.431 92.0007 762.814 89.5317ZM673.931 135.207C673.314 136.442 672.697 137.059 671.462 137.059H648.007C646.773 137.059 646.156 136.442 645.538 135.207L630.107 87.0628H629.49L614.676 135.207C614.676 136.442 613.442 137.059 612.207 137.059H588.752C587.518 137.059 586.901 136.442 586.283 135.207L560.359 59.9041C559.742 58.6696 560.976 56.8179 562.828 56.8179H586.283C587.518 56.8179 588.135 57.4353 588.752 58.6698L602.332 107.432H602.949L616.528 58.6698C616.528 57.4353 617.762 56.8179 618.997 56.8179H641.835C643.069 56.8179 643.687 57.4353 644.304 58.6698L658.5 107.432H659.117L672.697 58.6698C672.697 57.4353 673.931 56.8179 675.166 56.8179H697.386C699.238 56.8179 699.855 58.6696 699.855 59.9041L673.931 135.207ZM553.569 137.059H537.521C536.287 137.059 535.052 136.442 534.435 134.59L532.583 129.652C530.114 132.121 527.028 133.973 523.325 135.825C519.004 138.294 513.449 138.911 507.277 139.528H505.425C499.253 139.528 494.315 138.294 489.377 135.825C484.439 133.356 480.735 130.27 477.649 126.566C474.563 122.863 472.094 117.925 470.242 112.987C468.39 108.049 467.773 102.494 467.773 96.9385C467.773 91.3833 468.39 85.8283 470.242 80.8904C472.094 75.9525 474.563 71.6317 477.649 67.3111C480.735 63.6076 485.056 60.5214 489.377 58.0525C494.315 55.5835 499.252 54.9663 504.808 54.9663C510.98 54.9663 515.918 56.2008 519.621 58.0525C523.942 60.5214 527.028 62.9905 528.88 65.4594H529.497V27.8078C529.497 26.5733 530.732 25.3389 531.966 25.3389H553.569C554.804 25.3389 556.039 26.5733 556.039 27.8078V134.59C555.421 135.825 554.804 137.059 553.569 137.059ZM528.88 89.5317C528.263 87.0628 526.411 84.5938 525.177 82.7421C523.325 80.8903 521.473 79.0387 519.004 77.8042C516.535 76.5697 514.066 75.9524 510.98 75.9524C507.894 75.9524 505.425 76.5697 502.956 77.8042C500.487 79.0387 498.635 80.2731 496.784 82.1248C494.932 83.9765 493.697 86.4455 493.08 88.9145C492.463 91.3834 491.846 93.8524 491.846 96.3214C491.846 98.7904 492.463 101.259 493.08 103.728C493.697 106.197 494.932 108.666 496.784 110.518C498.635 112.37 500.487 114.221 502.956 115.456C505.425 116.69 507.894 117.308 510.98 117.308C514.066 117.308 516.535 116.69 519.004 115.456C521.473 114.221 523.325 112.987 525.177 110.518C527.028 108.666 528.263 106.197 528.88 103.728C529.497 101.259 530.114 98.7904 530.114 96.3214C530.114 94.4697 530.114 92.0007 528.88 89.5317ZM465.922 57.4352L465.304 75.9524C465.304 77.1869 464.07 78.4215 462.835 77.8042H458.515C454.811 77.8042 451.725 78.4214 449.873 79.6559C447.404 80.8903 445.553 82.742 444.318 84.5937C443.084 86.4454 441.849 88.2971 441.232 90.7661C440.615 92.6178 439.997 94.4697 439.997 96.3214V135.207C439.997 136.442 438.763 137.676 437.529 137.676H415.925C414.691 137.676 413.456 136.442 413.456 135.207V59.9041C413.456 58.6696 414.691 57.4352 415.925 57.4352H433.208C434.442 57.4352 435.677 58.6696 436.294 59.9041L438.146 65.4594C440.962 62.5726 444.318 60.2659 448.022 58.6698C449.256 58.0525 450.491 57.4352 451.725 57.4352C454.811 56.2007 457.897 55.5836 460.984 55.5836H464.687C465.304 54.9663 465.922 56.2007 465.922 57.4352ZM345.56 104.345C345.56 106.814 346.177 108.666 347.412 110.518C348.646 112.37 349.881 114.221 351.732 115.456C353.584 116.69 355.436 117.925 357.905 118.542C360.374 119.159 362.225 119.776 364.694 119.776C369.015 119.776 372.718 119.159 375.187 117.308L380.742 113.604C381.977 112.37 383.211 112.37 384.446 113.604L395.556 125.332C396.791 126.566 396.791 128.418 395.556 129.035C392.47 131.504 389.384 133.973 385.68 135.825C379.508 138.911 372.101 140.145 364.077 140.145C357.905 140.145 352.349 138.911 346.794 137.059C341.239 135.207 336.919 132.738 332.598 129.035C328.277 125.332 325.191 121.011 323.339 116.073C320.87 110.518 319.636 104.963 319.636 98.173C319.636 91.3834 320.87 85.8283 322.722 80.2731C325.191 74.718 328.277 70.3972 331.981 66.6938C335.684 62.9904 340.622 59.9042 345.56 58.0525C351.115 56.2008 356.67 54.9663 362.843 54.9663C369.015 54.9663 373.953 56.2008 378.891 58.0525C383.829 59.9042 388.149 62.9904 391.853 66.6938C395.556 70.3972 398.025 74.718 399.877 80.2731C401.729 85.8283 402.963 92.0007 402.963 98.7903V104.963H345.56V104.345ZM375.187 77.1869C372.718 74.1007 368.398 72.8662 363.46 72.8662C360.991 72.8662 358.522 73.4835 356.67 74.1007C354.818 74.718 352.35 75.9525 351.115 77.1869C349.263 78.4214 348.029 80.2731 347.412 82.1248C346.177 83.9765 346.177 85.8282 345.56 88.2972H379.508C379.508 83.9765 378.274 80.2731 375.187 77.1869ZM309.143 137.059H286.922C285.688 137.059 284.453 135.825 284.453 134.59V93.2352C284.453 90.7662 284.453 88.9145 283.836 87.0628L281.984 81.5075C281.367 79.6558 280.133 78.4215 278.281 77.8042C276.429 77.187 274.577 76.5697 272.108 76.5697C269.639 76.5697 267.788 77.187 265.936 77.8042C264.084 78.4215 262.85 80.273 261.615 81.5075C260.381 83.3592 259.764 85.2111 259.146 87.0628C258.529 88.9145 258.529 91.3833 258.529 93.8523V135.207C258.529 136.442 257.295 137.676 256.06 137.676H233.84C232.605 137.676 231.371 136.442 231.371 135.207V59.9041C231.371 58.6696 232.605 57.4352 233.84 57.4352H251.122C252.357 57.4352 253.591 58.0524 254.208 59.9041L256.06 64.8422C258.529 62.3732 261.615 60.5215 265.319 58.6698C269.639 56.818 274.577 55.5836 280.75 55.5836H281.367C286.305 55.5836 291.243 56.818 294.329 58.6698C298.032 60.5215 301.119 62.9903 303.588 66.0765C306.056 69.1627 307.291 72.8662 308.526 76.5697C309.76 80.2731 309.76 84.5937 309.76 88.2972V135.207C310.994 135.825 310.377 137.059 309.143 137.059Z" fill="#8DC63F"/>
</g>
<defs>
<clipPath id="clip0_833_468">
<rect width="1024" height="164.886" fill="white" transform="translate(0.523438 0.607422)"/>
</clipPath>
</defs>
</svg>
