<svg width="1024" height="440" viewBox="0 0 1024 440" fill="none" xmlns="http://www.w3.org/2000/svg">
<g clip-path="url(#clip0_778_2164)">
<path d="M83.8006 103.175H145.726V204.607C125.048 208.797 109.213 210.919 91.8542 210.919C23.943 210.919 0 172.012 0 107.964C0 39.1276 33.1938 0.220215 99.3636 0.220215C107.744 0.220215 123.579 0.818791 143.332 3.81167V68.7299H128.966L120.858 43.9163C113.076 20.2997 103.826 8.60028 89.1334 8.60028C63.7211 8.60028 50.226 42.9912 50.226 107.365C50.226 172.012 55.6131 202.539 88.8069 202.539C93.3234 202.539 98.6562 201.94 103.771 200.471V124.996L83.7462 111.229V103.175H83.8006ZM144.529 375.473C144.529 416.176 116.722 439.521 67.6391 439.521C54.1983 439.521 34.4453 437.453 15.8895 434.405V354.849H30.2553L36.2411 373.677C49.6818 417.047 59.259 431.413 76.3456 431.413C94.3029 431.413 107.145 415.578 107.145 394.627C107.145 377.595 99.0915 365.624 81.7328 356.318L51.804 340.157C28.7316 327.913 16.1615 308.759 16.1615 285.414C16.1615 250.098 45.1653 228.876 92.7793 228.876C103.554 228.876 116.124 229.801 136.149 232.468V297.386H121.783L113.729 272.572C105.621 246.235 96.9693 236.658 81.1342 236.658C63.449 236.658 53.0012 248.031 53.0012 264.464C53.0012 279.102 61.1091 289.604 76.9442 298.583L107.145 315.615C132.557 329.981 144.529 349.136 144.529 375.473ZM276.814 422.488L282.8 431.467V435.983H237.036L234.914 418.625C230.125 431.793 217.555 439.575 201.394 439.575C177.451 439.575 162.486 424.611 162.486 400.069C162.486 376.126 175.927 360.291 217.229 344.129L234.859 337.273V314.853C234.859 295.1 231.268 287.047 220.222 287.047C211.243 287.047 206.182 291.836 197.476 313.656L187.626 338.089H174.186V289.278C191.816 283.891 209.502 280.299 224.738 280.299C258.53 280.299 276.814 296.461 276.814 325.791V422.488ZM294.118 131.308C294.118 182.187 266.91 210.919 231.867 210.919C196.877 210.919 169.669 182.187 169.669 131.308C169.669 80.4294 196.877 51.6977 231.921 51.6977C266.91 51.6977 294.118 80.4294 294.118 131.308ZM234.914 397.348V345.599L229.255 347.993C211.569 355.176 204.985 371.337 204.985 394.954C204.985 412.639 209.175 422.76 219.024 422.76C228.874 422.76 234.914 413.183 234.914 397.348ZM250.15 131.308C250.15 73.8451 245.362 58.6086 231.921 58.6086C218.48 58.6086 213.692 73.8451 213.692 131.308C213.692 188.772 218.48 204.008 231.921 204.008C245.362 204.008 250.15 188.772 250.15 131.308ZM400.393 398.817L405.78 401.538C396.203 429.073 383.959 439.521 360.288 439.521C321.707 439.521 300.159 410.517 300.159 359.91C300.159 309.357 325.299 280.299 366.274 280.299C377.32 280.299 392.013 282.095 404.583 287.156V338.035H390.544L384.884 318.88C377.375 293.468 373.239 286.884 365.73 286.884C353.758 286.884 344.181 302.447 344.181 361.706C344.181 409.265 351.364 426.624 369.593 426.624C381.837 426.678 392.285 418.897 400.393 398.817ZM367.145 207.327H313.273V202.865L319.259 193.887V26.8841L313.273 17.9054V13.3889L361.159 9.79743V193.832L367.145 202.811V207.327ZM440.77 210.919C407.848 210.919 388.095 180.99 388.095 129.839C388.095 78.9602 408.719 51.7522 440.443 51.7522C456.605 51.7522 465.583 58.01 469.447 70.5801V26.8841L463.461 17.9054V13.3889L511.347 9.79743V193.832L517.333 202.811V207.273H474.834L471.569 184.527C466.835 204.008 457.856 210.919 440.77 210.919ZM545.792 422.488L551.778 431.467V435.983H497.906V431.467L503.892 422.488V314.745C503.892 301.902 500.029 294.121 490.723 294.121C479.623 294.121 471.569 303.426 471.569 321.655V422.488L477.555 431.467V435.983H423.683V431.467L429.669 422.488V255.486L423.683 246.507V242.045L471.569 238.453V300.379C476.956 287.537 489.2 280.354 506.558 280.354C531.1 280.354 545.738 295.917 545.738 326.118V422.488H545.792ZM432.117 130.383C432.117 184.255 436.906 200.689 450.075 200.689C466.508 200.689 469.501 177.072 469.501 129.785C469.501 84.0208 466.236 61.275 450.347 61.275C436.906 61.275 432.117 77.4365 432.117 130.383ZM732.548 193.832L738.534 202.811V207.273H684.662V202.811L690.648 193.832V82.8237C690.648 72.0493 687.056 65.465 678.676 65.465C668.228 65.465 659.848 74.7701 659.848 92.673V193.832L665.834 202.811V207.273H611.962V202.811L617.948 193.832V82.8237C617.948 72.0493 614.357 65.465 605.976 65.465C595.529 65.465 587.148 74.7701 587.148 92.673V193.832L593.134 202.811V207.273H539.263V202.811L545.248 193.832V72.0493L539.263 64.8664V60.4043L582.36 55.2892H585.951L587.148 72.0493C592.209 58.8807 604.779 51.6977 621.866 51.6977C640.095 51.6977 652.067 60.6764 657.454 76.8379C661.916 61.275 676.01 51.6977 693.967 51.6977C717.584 51.6977 732.548 67.2607 732.548 97.4616V193.832ZM676.608 391.961C676.608 417.972 659.848 439.521 619.472 439.521C609.024 439.521 594.93 438.323 573.109 434.405V378.792H585.353L589.216 390.764C598.794 421.291 608.044 432.664 622.737 432.664C636.504 432.664 645.482 422.76 645.482 407.524C645.482 394.954 639.17 386.302 624.26 378.194L598.521 364.426C582.088 355.448 573.109 341.409 573.109 324.05C573.109 296.842 594.386 280.354 629.647 280.354C639.823 280.354 652.992 281.823 667.358 284.816V328.512H655.114L648.802 312.622C641.619 293.468 634.763 287.21 623.39 287.21C611.146 287.21 603.963 294.393 603.963 306.365C603.963 316.54 609.949 323.397 624.587 331.777L649.999 346.143C667.303 356.046 676.608 370.086 676.608 391.961ZM870.22 193.832L876.206 202.811V207.273H830.442L828.375 189.914C823.586 203.083 811.016 210.865 794.854 210.865C770.911 210.865 755.947 195.9 755.947 171.359C755.947 147.415 769.388 131.58 810.689 115.419L828.32 108.562V86.1431C828.32 66.3901 824.729 58.3365 813.682 58.3365C804.704 58.3365 799.643 63.1251 790.936 84.9459L781.087 109.488H767.592V60.7308C785.277 55.3436 802.908 51.7522 818.144 51.7522C851.937 51.7522 870.22 67.9137 870.22 97.2439V193.832ZM828.32 168.692V116.943L822.661 119.337C805.03 126.52 798.446 142.681 798.446 166.298C798.446 183.983 802.636 194.159 812.485 194.159C822.334 194.159 828.32 184.582 828.32 168.692ZM1024 202.811V207.273H970.128V202.811L976.114 193.832V86.0887C976.114 73.1921 972.25 65.465 962.945 65.465C951.844 65.465 943.791 74.7701 943.791 92.9995V193.832L949.777 202.811V207.273H895.905V202.811L901.891 193.832V72.0493L895.905 64.8664V60.4043L939.002 55.2892H942.594L943.791 72.0493C948.852 58.8807 961.15 51.6977 978.78 51.6977C1003.32 51.6977 1017.96 67.2607 1017.96 97.4616V193.832L1024 202.811Z" fill="black"/>
</g>
<defs>
<clipPath id="clip0_778_2164">
<rect width="1024" height="439.355" fill="white" transform="translate(0 0.220215)"/>
</clipPath>
</defs>
</svg>
