<svg width="748" height="513" viewBox="0 0 748 513" fill="none" xmlns="http://www.w3.org/2000/svg">
<g clip-path="url(#clip0_2_14987)">
<path d="M628.987 461.355C620.705 461.355 613.982 468.069 613.982 476.356C613.982 484.634 620.705 491.357 628.987 491.357C637.268 491.357 643.982 484.634 643.982 476.357C643.982 468.069 637.269 461.355 628.987 461.355ZM628.987 488.139C627.44 488.14 625.907 487.836 624.478 487.244C623.048 486.652 621.749 485.784 620.655 484.69C619.561 483.596 618.693 482.296 618.101 480.867C617.509 479.437 617.205 477.905 617.205 476.357C617.205 469.847 622.469 464.582 628.987 464.582C635.497 464.582 640.767 469.846 640.767 476.357C640.767 482.869 635.497 488.139 628.987 488.139ZM635.151 472.879C635.149 471.531 634.612 470.238 633.658 469.284C633.186 468.812 632.625 468.437 632.008 468.182C631.391 467.927 630.729 467.796 630.061 467.797H622.833V484.92H626.046V477.966H628.351L631.598 484.92H635.151L631.761 477.669C632.751 477.318 633.608 476.669 634.215 475.812C634.822 474.954 635.149 473.93 635.151 472.879ZM630.061 474.751H626.045V471.004H630.06C630.558 471.005 631.035 471.203 631.387 471.554C631.739 471.906 631.937 472.383 631.938 472.88C631.937 473.377 631.738 473.853 631.386 474.204C631.034 474.554 630.558 474.751 630.061 474.751Z" fill="#001E62"/>
<path d="M665.259 253.329L718.765 197.119L688.374 57.0163L553.202 16.8793L541.045 28.1493C495.843 14.6593 414.546 0.704311 360.239 0.79931C159.05 1.14931 0.974769 113.022 0.36377 255.476C0.36377 377.359 105.487 512.799 361.956 512.799C565.169 512.799 747.822 377.515 747.822 377.515L665.259 253.329Z" fill="white"/>
<path d="M647.4 251.773L703.496 192.841L676.442 68.0789L556.878 32.586L544.622 43.946C504.262 30.629 417.984 14.712 360.255 14.813C164.045 15.153 14.9485 122.78 14.3755 255.545C13.7815 394.719 148.766 498.78 361.957 498.78C511.142 498.78 663.991 419.152 728.583 373.884L647.399 251.772L647.4 251.773Z" fill="#001E62"/>
<path d="M384.018 298.995H351.42V326.634L384.018 326.596V298.995ZM582.3 262.265C556.967 239.957 520.078 216.59 473.373 205.231V308.684C508.623 298.938 547.3 282.394 582.3 262.264V262.265ZM260.411 312.74V200.615C228.032 209.977 191.745 228.302 191.745 257.322C191.745 277.186 222.412 301.164 260.411 312.74ZM352.152 214.141H383.833V187.882L352.152 186.594V214.141Z" fill="white"/>
<path d="M626.413 264.761C626.413 264.761 541.74 322.536 448.393 339.974V175.934C549.755 188.686 609.795 254.957 609.795 254.957L677.335 185.146L655.645 87.2283L563.353 60.2384L551.648 73.0004C514.198 58.3644 436.935 39.4004 351.278 39.4004C179.789 39.4004 39.7436 136.564 39.4926 256.475C39.2446 373.255 158.112 474.351 349.981 474.351C527.237 474.351 655.177 389.914 695.247 367.281L626.413 264.761ZM333.871 233.861V166.669C357.321 165.492 383.343 166.713 401.751 168.909V233.862L333.871 233.861ZM401.751 278.296V345.954C382.66 348.228 353.551 348.791 333.871 347.337V278.296H401.751ZM285.155 170.574V342.709C256.899 342.709 166.714 309.549 166.714 257.311C166.714 192.736 258.871 174.904 285.155 170.574Z" fill="white"/>
<path d="M621.47 289.028C510.673 354.09 436.937 366.721 346.977 365.878C220.536 364.685 148.53 314.099 148.53 253.85C148.53 199.532 214.584 147.763 349.528 147.763C440.318 147.763 549.802 172.093 608.269 229.725L656.953 180.11L640.329 101.366L568.547 80.3909L555.514 95.1189C516.173 79.3479 449.676 57.543 347.385 57.543C193.043 57.543 57.689 146.691 57.689 254.613C57.689 367.353 175.545 455.755 342.819 455.755C512.461 455.755 612.036 391.802 669.549 361.631L621.469 289.027L621.47 289.028Z" fill="#A6192E"/>
</g>
<defs>
<clipPath id="clip0_2_14987">
<rect width="747.458" height="512" fill="white" transform="translate(0.363281 0.800781)"/>
</clipPath>
</defs>
</svg>
