<svg width="745" height="513" viewBox="0 0 745 513" fill="none" xmlns="http://www.w3.org/2000/svg">
<g clip-path="url(#clip0_813_317)">
<path d="M467.332 495.739C479.436 491.311 491.304 485.82 502.345 479.207C510.257 474.779 518.168 469.878 525.903 464.682C588.077 422.407 635.312 368.441 669.735 329.059C679.712 317.663 688.333 307.803 696.186 299.477C709.471 285.425 728.246 269.838 728.424 269.72L744.956 256.08L728.424 242.441C728.424 242.441 709.412 226.735 696.186 212.683C692.112 208.313 687.742 203.59 683.197 198.394L684.554 192.254L709.293 80.9563L697.426 74.9339C622.558 37.0277 535.114 14.6501 461.014 14.2368H460.778C429.366 3.66794 396.952 -0.228952 372.508 0.0662672C336.904 -0.34704 284.178 8.09622 242.67 32.9537C234.699 37.3819 226.787 42.2235 219.112 47.4784C156.879 89.7538 109.644 143.72 75.1628 183.102C65.1844 194.498 56.564 204.358 48.7702 212.624C35.4854 226.677 16.7094 242.264 16.5323 242.383L0 256.021L16.5323 269.66C16.5323 269.66 35.5444 285.425 48.7702 299.419C52.8442 303.729 57.1545 308.452 61.7008 313.648L60.5789 319.139L55.0879 343.819L35.8397 430.437L47.7665 436.459C117.143 471.65 197.442 493.436 267.823 496.743L283.292 497.629C314.999 508.375 347.886 512.331 372.508 512.035C398.25 512.331 432.909 508.02 465.797 496.212L467.332 495.68V495.739Z" fill="white"/>
<path d="M686.267 225.376C649.955 186.88 595.93 114.61 517.519 61.4116C510.139 56.3929 502.522 51.6694 494.669 47.3592C457.59 25.1587 407.757 16.066 372.036 16.4793C336.255 16.066 286.422 25.1587 249.401 47.3592C241.608 51.6694 233.932 56.3929 226.551 61.4116C148.201 114.67 94.1161 186.88 57.8042 225.376C43.5156 240.491 23.7949 256.787 23.7949 256.787C23.7949 256.787 43.5746 273.084 57.8042 288.199C94.0571 326.696 148.141 398.906 226.551 452.164C233.932 457.182 241.608 461.906 249.401 466.216C286.422 488.475 336.255 497.568 372.036 497.096C407.757 497.568 457.59 488.417 494.669 466.216C502.522 461.847 510.139 457.182 517.519 452.164C595.871 398.906 649.955 326.696 686.267 288.199C700.555 273.084 720.276 256.787 720.276 256.787C720.276 256.787 700.555 240.491 686.267 225.376Z" fill="#EF3F43"/>
<path d="M175.419 135.574H277.742C344.107 135.574 389.865 154.941 382.781 222.486C375.636 290.032 345.405 357.992 260.206 357.992H140.641L144.775 337.976L155.107 336.087L195.435 157.538L171.286 155.294L175.478 135.574H175.419ZM229.09 333.843C234.403 334.788 239.658 335.438 250.05 335.438C301.36 335.438 314.526 209.32 312.814 189.599C310.452 162.616 298.288 158.129 285.477 158.129H268.59L229.09 333.843Z" fill="white"/>
<path d="M583.707 357.636C578.04 360.175 572.016 363.01 565.404 363.01C548.399 363.01 548.399 356.514 540.487 344.765C582.821 319.967 608.978 269.543 608.978 211.503C608.978 158.895 570.127 129.963 505.297 129.963C433.087 129.963 373.276 200.049 371.445 269.543C369.851 328.469 397.365 362.832 476.071 361.946C481.975 361.888 488.174 361.651 494.02 360.648C503.703 385.446 511.319 396.014 543.203 396.014C555.721 396.014 568.061 392.708 578.393 386.686L584.003 361.061L583.707 357.577V357.636ZM504.943 308.925C494.787 301.545 482.152 298.179 469.812 297.353L464.911 319.553C475.598 321.089 480.145 326.993 484.219 335.553C480.617 338.092 476.897 339.392 472.764 339.392C452.984 339.392 444.778 327.937 443.538 312.999C441.53 288.85 462.903 152.577 504.825 152.577C524.605 152.577 532.812 164.032 534.051 178.97C535.469 195.797 525.432 267.299 504.943 308.925Z" fill="white"/>
<path d="M676.938 162.615C598.823 105.993 475.658 64.1302 375.578 66.4919C333.597 67.4957 293.92 74.5219 258.258 86.3307C308.445 52.8528 376.7 31.538 452.158 29.7667C529.446 27.9363 620.079 51.9672 693.293 89.0467L676.938 162.615Z" fill="#F9AB54"/>
<path d="M67.1909 351.02C145.306 407.643 268.472 449.505 368.491 447.143C410.472 446.139 450.149 439.113 485.812 427.304C435.625 460.723 367.369 482.097 291.971 483.868C214.682 485.699 124.05 461.668 50.8357 424.589L67.1909 351.02Z" fill="#0077BE"/>
<path d="M586.954 332.954C586.954 323.861 593.685 317.13 601.656 317.13C609.627 317.13 616.299 323.861 616.299 332.954C616.299 342.047 609.568 348.837 601.656 348.837C593.745 348.837 586.954 342.165 586.954 332.954ZM601.656 346.18C608.21 346.18 613.347 340.57 613.347 332.954C613.347 325.337 608.151 319.728 601.656 319.728C595.162 319.728 589.906 325.455 589.906 332.954C589.906 340.452 595.102 346.18 601.656 346.18ZM598.586 342.165H596.106V323.861H602.424C606.38 323.861 608.328 325.455 608.328 329.057C608.328 332.364 606.439 333.721 604.017 334.076L608.742 342.165H605.967L601.538 334.194H598.645V342.165H598.586ZM601.538 331.773C603.664 331.773 605.612 331.596 605.612 328.821C605.612 326.519 603.723 326.105 601.951 326.105H598.527V331.773H601.538Z" fill="white"/>
</g>
<defs>
<clipPath id="clip0_813_317">
<rect width="744.956" height="512" fill="white" transform="translate(0 0.0507812)"/>
</clipPath>
</defs>
</svg>
