<svg width="1025" height="134" viewBox="0 0 1025 134" fill="none" xmlns="http://www.w3.org/2000/svg">
<g clip-path="url(#clip0_765_695)">
<path d="M441.668 87.0367H509.225L473.54 29.409L407.933 133.494H378.1L457.892 8.61872C459.631 6.12688 461.943 4.08819 464.632 2.67342C467.322 1.25865 470.311 0.509007 473.35 0.487302C476.389 0.465596 479.388 1.17245 482.098 2.54866C484.807 3.92487 487.147 5.93034 488.922 8.39708L568.936 133.494H539.103L525.05 110.221H456.695L441.801 87.0367M751.793 110.221V1.74773H726.437V120.904C726.432 122.56 726.764 124.2 727.412 125.723C728.059 127.247 729.01 128.624 730.205 129.77C731.405 130.998 732.84 131.972 734.424 132.634C736.008 133.297 737.709 133.634 739.425 133.627H854.681L869.708 110.354H751.66M332.574 90.849C344.389 90.849 355.721 86.1553 364.076 77.8004C372.431 69.4456 377.125 58.1139 377.125 46.2984C377.125 34.4828 372.431 23.1512 364.076 14.7963C355.721 6.44144 344.389 1.74773 332.574 1.74773H221.751V133.494H247.063V25.0648H331.022C336.677 25.0648 342.101 27.3112 346.099 31.3099C350.098 35.3086 352.345 40.732 352.345 46.387C352.345 52.042 350.098 57.4654 346.099 61.4641C342.101 65.4628 336.677 67.7093 331.022 67.7093H259.608L335.234 133.494H371.982L321.181 90.849H332.574ZM66.0679 133.494H142.624C159.793 133.048 176.109 125.915 188.095 113.614C200.081 101.313 206.788 84.8175 206.788 67.6428C206.788 50.4681 200.081 33.9725 188.095 21.6717C176.109 9.37086 159.793 2.23755 142.624 1.79205H66.0679C57.2765 1.56394 48.5284 3.0985 40.3396 6.30525C32.1507 9.512 24.6868 14.326 18.3881 20.4634C12.0894 26.6007 7.08345 33.9372 3.66537 42.0402C0.247292 50.1431 -1.51367 58.8484 -1.51367 67.6428C-1.51367 76.4372 0.247292 85.1425 3.66537 93.2454C7.08345 101.348 12.0894 108.685 18.3881 114.822C24.6868 120.96 32.1507 125.774 40.3396 128.98C48.5284 132.187 57.2765 133.722 66.0679 133.494ZM140.895 110.309H67.7524C56.6862 109.953 46.1926 105.306 38.4907 97.3513C30.7889 89.397 26.4826 78.7591 26.4826 67.6871C26.4826 56.6151 30.7889 45.9772 38.4907 38.0229C46.1926 30.0687 56.6862 25.4217 67.7524 25.0648H140.895C146.608 24.8805 152.3 25.8466 157.632 27.9057C162.964 29.9647 167.828 33.0747 171.934 37.0507C176.041 41.0268 179.306 45.7878 181.536 51.0507C183.765 56.3137 184.915 61.9712 184.915 67.6871C184.915 73.403 183.765 79.0605 181.536 84.3235C179.306 89.5865 176.041 94.3475 171.934 98.3235C167.828 102.3 162.964 105.41 157.632 107.469C152.3 109.528 146.608 110.494 140.895 110.309ZM621.821 133.494H699.973L714.779 110.309H623.549C617.837 110.494 612.145 109.528 606.813 107.469C601.481 105.41 596.617 102.3 592.511 98.3235C588.404 94.3475 585.139 89.5865 582.909 84.3235C580.679 79.0605 579.53 73.403 579.53 67.6871C579.53 61.9712 580.679 56.3137 582.909 51.0507C585.139 45.7878 588.404 41.0268 592.511 37.0507C596.617 33.0747 601.481 29.9647 606.813 27.9057C612.145 25.8466 617.837 24.8805 623.549 25.0648H697.801L712.784 1.79205H621.821C613.029 1.56394 604.281 3.0985 596.092 6.30525C587.903 9.512 580.44 14.326 574.141 20.4634C567.842 26.6007 562.836 33.9372 559.418 42.0402C556 50.1431 554.239 58.8484 554.239 67.6428C554.239 76.4372 556 85.1425 559.418 93.2454C562.836 101.348 567.842 108.685 574.141 114.822C580.44 120.96 587.903 125.774 596.092 128.98C604.281 132.187 613.029 133.722 621.821 133.494ZM931.547 110.309C922.26 110.313 913.224 107.284 905.815 101.683C898.406 96.0825 893.028 88.2159 890.499 79.2792H998.75L1013.64 56.0508H890.499C893.022 47.1103 898.398 39.2395 905.809 33.6376C913.219 28.0357 922.258 25.0096 931.547 25.0205H1005.84L1020.69 1.74773H929.818C912.65 2.19322 896.334 9.32653 884.348 21.6274C872.362 33.9282 865.654 50.4238 865.654 67.5985C865.654 84.7731 872.362 101.269 884.348 113.57C896.334 125.87 912.65 133.004 929.818 133.449H1007.97L1022.82 110.265H931.503" fill="#C74634"/>
</g>
<defs>
<clipPath id="clip0_765_695">
<rect width="1024" height="132.987" fill="white" transform="translate(0.195068 0.506592)"/>
</clipPath>
</defs>
</svg>
