<svg width="442" height="513" viewBox="0 0 442 513" fill="none" xmlns="http://www.w3.org/2000/svg">
<g clip-path="url(#clip0_795_5230)">
<path d="M438.281 309.383L438.181 308.655L433.902 304.246C395.776 263.975 377.77 224.329 380.486 186.346C383.946 137.951 420.877 108.278 421.228 107.988L426.263 104.068L398.387 36.9914L389.7 42.1682C389.454 42.3162 364.459 56.8395 329.523 56.8395C292.791 56.8395 258.405 41.4797 227.318 11.2323L221.213 5.28174L215.107 11.2323C184.024 41.4912 149.639 56.8395 112.903 56.8395C77.8266 56.8395 52.9948 42.3271 52.7379 42.185L44.0451 36.9456L18.5813 98.2482L16.1812 104.057L21.1863 107.982C21.5609 108.272 58.4807 137.894 61.9402 186.345C64.7032 224.944 46.1345 265.267 6.66855 306.187L4.18652 308.81L4.39726 310.881C4.27433 311.819 17.7559 411.276 110.892 435.084C191.539 455.694 213.424 491.881 213.618 492.217L221.105 505.677L228.767 492.263C228.978 491.905 250.918 455.855 331.537 435.085C378.953 422.871 405.371 390.711 419.209 365.835C433.756 339.711 438.737 312.94 438.27 309.39L438.281 309.383Z" fill="white"/>
<path d="M221.08 512.574L210.649 493.801C210.409 493.414 204.865 484.631 189.944 473.543C176.041 463.212 150.887 448.699 110.034 438.271C88.6807 432.928 68.9892 422.606 52.6663 408.2C39.6475 396.697 28.5425 382.475 19.6629 365.921C5.57862 339.707 1.46942 315.802 1.04747 311.189H1.00064L0.643555 307.651L4.15584 303.936C42.943 263.693 61.23 224.213 58.5377 186.565C55.1951 139.78 19.3762 110.836 19.0364 110.551L12.0762 105.09L15.4128 97.0057L42.3985 32.0388L54.5513 39.3547C54.7679 39.4798 79.0671 53.5087 112.907 53.5087C148.697 53.5087 182.268 38.4957 212.693 8.87419L221.222 0.574219L229.74 8.87992C260.179 38.4962 293.733 53.5091 329.526 53.5091C363.243 53.5091 387.694 39.4637 387.941 39.3216L400.041 32.091L430.387 105.107L423.362 110.568C423.029 110.836 387.221 139.945 383.89 186.571C381.244 223.605 398.917 262.437 436.41 301.982L441.427 307.153L441.661 308.945C442.311 313.832 436.638 341.508 422.226 367.392C408.072 392.821 380.998 425.754 332.433 438.275C309.879 444.083 277.7 454.938 252.488 473.648C237.596 484.708 232.029 493.446 231.747 493.895L221.087 512.566L221.08 512.574ZM7.84287 310.945C8.51606 316.008 23.0624 409.195 111.778 431.864C135.093 437.826 168.384 449.039 194.521 468.614C210.8 480.8 216.549 490.471 216.607 490.567L216.636 490.624L221.161 498.753L225.798 490.641C225.874 490.51 231.651 480.857 247.931 468.688C262.366 457.88 288.439 442.747 330.68 431.864C376.889 419.951 402.681 388.515 416.221 364.241C429.632 340.161 434.953 314.708 434.906 310.106L431.393 306.517C392.542 265.557 374.272 225.042 377.053 186.11C378.897 160.328 390.107 139.854 399.192 127.219C409.203 113.293 418.943 105.487 419.043 105.408L422.122 103.013L396.734 41.8577L391.466 44.9866C391.191 45.1515 365.328 60.1469 329.498 60.1469C291.829 60.1469 256.63 44.4746 224.883 13.5668L221.195 9.97148L217.507 13.5668C185.756 44.4746 150.558 60.1469 112.892 60.1469C76.9733 60.1469 51.2464 45.1622 51.0001 45.0086L45.7317 41.8343L21.7659 99.4849L20.3083 103.006L23.3464 105.39C23.7269 105.686 61.7884 136.007 65.3644 186.109C68.1976 225.663 49.2895 266.827 9.16855 308.449L7.74026 309.951L7.83977 310.923L7.85148 310.941L7.84287 310.945Z" fill="#1F5DA6"/>
<path d="M326.869 220.888L312.451 209.158C311.643 208.498 309.664 206.609 309.67 204.931C309.67 203.406 309.969 203.002 311.069 201.728C313.411 199.009 315.91 200.056 318.094 201.819L332.921 213.907L335.848 210.534L319.557 197.285C314.511 193.177 310.976 196.255 309.09 198.423C307.451 200.311 306.281 202.581 307.574 205.602C304.946 204.794 302.253 206.319 300.614 208.207C298.518 210.637 297.793 213.06 299.227 215.91L299.157 215.995L296.487 213.817L293.391 217.395C294.983 218.482 296.534 219.608 298.021 220.808L314.997 234.615L317.924 231.242L303.5 219.512C302.4 218.62 301.552 217.471 301.035 216.173C300.661 215.035 301.234 213.106 302.124 212.082C304.466 209.363 306.965 210.41 309.149 212.173L323.953 224.262L326.869 220.888ZM280.08 222.025L283.352 218.242L279.623 215.205L276.345 218.988L280.08 222.025ZM288.655 222.873L285.729 226.247L307.154 243.671L310.081 240.298L288.655 222.873ZM293.514 240.565L291.688 239.08C284.605 233.318 279.98 232.066 274.847 237.994C268.618 245.19 273.19 250.1 279.465 255.208C288.925 262.905 293.309 260.51 297.12 256.107C300.931 251.704 301.183 247.152 296.47 243.245L293.262 246.948C295.323 248.831 296.189 251.579 294.205 253.877C291.928 256.511 289.387 257.108 283.404 252.244L293.514 240.565ZM280.776 250.105C274.869 245.23 275.338 242.601 277.193 240.463C279.33 237.994 281.554 236.93 287.789 241.999L280.776 250.105ZM286.442 267.61L271.257 255.254C266.422 251.323 262.886 251.812 259.825 255.351C257.483 258.064 256.798 260.181 258.127 263.571L257.987 263.736L246.027 254.003L243.1 257.376L273.727 282.294L276.654 278.92L264.051 268.68C260.445 265.751 258.397 262.61 261.312 259.237C263.805 256.358 266.381 257.052 269.015 259.191L283.521 270.995L286.442 267.61ZM269.337 287.35L254.492 275.272C250.248 271.825 246.531 270.693 242.685 275.13C240.373 277.804 239.759 279.988 241.064 283.271L240.917 283.436L238.16 281.194L235.064 284.773C236.656 285.853 238.213 286.98 239.694 288.186L256.67 301.987L259.597 298.613L246.912 288.299C243.985 285.916 241.058 282.61 244.26 278.918C246.748 276.04 249.294 276.779 251.583 278.64L266.411 290.706L269.337 287.35ZM242.948 298.967L241.128 297.482C234.039 291.719 229.42 290.474 224.281 296.396C218.052 303.592 222.624 308.502 228.899 313.61C238.359 321.307 242.743 318.918 246.554 314.515C250.365 310.112 250.605 305.555 245.922 301.652L242.72 305.35C244.775 307.233 245.647 309.981 243.657 312.285C241.38 314.919 238.839 315.51 232.856 310.646L242.948 298.967ZM230.21 308.507C224.304 303.632 224.778 301.003 226.628 298.865C228.764 296.396 230.983 295.332 237.223 300.406L230.21 308.507ZM206.731 317.513L209.359 319.652L212.14 316.443L230.93 331.729L233.857 328.355L215.061 313.07L218.69 308.877L216.067 306.738L212.438 310.931L208.791 307.961C207.035 306.55 206.017 304.656 209.377 301.282L206.865 299.24C206.313 299.694 205.805 300.196 205.349 300.742C202.75 303.746 201.035 307.392 205.349 310.914L209.505 314.327L206.731 317.513ZM196.838 328.947L199.466 331.086L202.241 327.877L221.037 343.163L223.964 339.79L205.174 324.504L208.803 320.306L206.175 318.172L202.54 322.365L198.893 319.395C197.137 317.979 196.118 316.084 199.478 312.717L196.973 310.68C196.422 311.135 195.914 311.638 195.457 312.182C192.858 315.186 191.143 318.838 195.457 322.354L199.613 325.767L196.838 328.947ZM209.465 357.391C213.27 352.993 214.938 348.391 205.478 340.695C199.203 335.575 193.42 332.076 187.191 339.272C180.963 346.469 185.535 351.384 191.81 356.492C201.27 364.189 205.654 361.794 209.465 357.391ZM206.62 355.081C203.594 358.58 200.345 357.408 193.39 351.742C187.537 346.98 187.794 344.182 190.036 341.588C192.278 338.994 195.082 338.265 200.935 343.027C207.89 348.716 209.646 351.56 206.62 355.081ZM186.213 383.435L172.217 372.057L181.22 361.652L195.222 373.03L198.495 369.247L167.868 344.329L164.554 348.107L177.789 358.875L168.78 369.28L155.545 358.512L152.273 362.295L182.9 387.212L186.213 383.435Z" fill="#1F5DA6"/>
<path d="M262.34 154.522C259.752 152.417 256.703 152.178 254.531 154.687C252.008 157.605 253.501 160.643 255.748 162.469C256.767 163.3 260.66 165.979 263.756 162.401C266.408 159.357 264.418 156.211 262.34 154.522Z" fill="#1F5DA6"/>
<path d="M234.03 211.062C232.923 210.091 231.453 209.608 229.967 209.728C228.481 209.847 227.113 210.559 226.186 211.694C224.119 214.077 224.494 217.326 226.994 219.357C230.008 221.808 233.292 220.767 235.002 218.788C236.494 217.041 237.337 213.73 234.03 211.062Z" fill="#1F5DA6"/>
<path d="M241.825 178.215C239.237 176.11 236.187 175.871 234.016 178.38C231.487 181.304 232.98 184.336 235.227 186.168C236.246 186.999 240.145 189.678 243.241 186.1C245.922 183.056 243.92 179.905 241.825 178.215Z" fill="#1F5DA6"/>
<path d="M213.665 201.334C211.909 203.388 211.868 206.249 214.116 208.076C215.11 208.943 216.43 209.37 217.761 209.257C219.092 209.144 220.316 208.5 221.14 207.478C222.955 205.385 223.043 202.444 220.666 200.51C218.289 198.575 215.339 199.4 213.665 201.334Z" fill="#1F5DA6"/>
<path d="M393.71 50.8574L390.579 52.3934C382.085 56.5576 359.138 66.2455 329.524 66.2455C291.334 66.2455 255.65 50.9315 223.462 20.7344L221.22 18.6353L218.995 20.7288C186.8 50.9312 151.127 66.2398 112.933 66.2398C83.2311 66.2398 60.3369 56.5684 51.8722 52.3877L48.7405 50.8461L27.8547 101.09L29.4996 102.557C38.5672 110.647 68.3918 140.542 71.612 185.689C74.5389 226.438 55.6193 268.552 15.4162 310.871L14.3274 312.009L14.6142 313.545C17.0903 326.931 31.2682 387.881 87.1074 416.156L397.65 60.3106L393.71 50.8574ZM137.192 339.808L111.611 318.998L103.96 327.839L98.8673 323.697L119.73 299.599L124.817 303.741L117.166 312.581L142.747 333.38L137.192 339.808ZM162.72 311.728C152.863 323.105 145.241 317.058 142.232 314.686L147.857 308.189C149.297 309.361 153.594 312.996 158.329 307.524C161.321 304.07 161.508 300.509 158.915 298.422C156.199 296.214 154.132 297.688 149.923 300.697C141.979 306.289 136.459 308.394 131.191 304.11C126.139 300.003 124.711 292.881 131.864 284.615C134.534 281.532 138.426 278.46 143.232 278.585C146.897 278.693 149.355 280.695 150.374 281.52L145.07 287.653C143.941 286.868 140.054 284.268 136.243 288.665C133.679 291.629 133.661 294.923 136.161 296.943C139.006 299.252 141.429 297.511 146.206 294.098C151.925 289.991 157.749 286.134 163.732 290.969C169.234 295.435 169.821 303.501 162.72 311.728ZM190.894 279.079C185.04 285.866 180.299 287.976 175.897 288.392C169.663 288.995 164.248 285.644 161.023 283.022C150.164 274.187 150.053 262.878 157.844 253.873C161.157 250.044 165.677 246.995 170.459 246.892C174.504 246.818 177.027 248.662 178.718 249.964L172.999 256.58C171.919 255.676 170.598 255.084 169.188 254.874C166.086 254.453 163.721 256.518 162.509 257.917C156.24 265.159 161.953 272.253 166.66 276.088C168.744 277.795 172.724 280.525 177.027 280.315C180.006 280.218 182.646 279.001 185.708 275.462C188.377 272.379 188.922 270.996 189.314 270.126L182.875 264.881L177.887 270.638L172.8 266.497L183.285 254.379L198.61 266.82C197.644 269.21 196.069 273.111 190.894 279.079ZM221.334 242.62L198.271 223.881C198.007 227.207 197.327 230.489 196.245 233.655L190.35 228.859C191.482 225.201 192.196 221.433 192.481 217.623L197.07 212.321L226.679 236.408L221.334 242.62ZM239.212 222.88C234.16 228.716 226.813 229.61 222.06 225.724C220.07 224.179 218.848 221.886 218.7 219.415C218.582 217.5 218.95 215.586 219.771 213.84C218.056 214.898 213.332 217.851 208.748 214.125C205.142 211.195 203.005 204.453 209.058 197.485C214.04 191.728 220.883 190.499 225.507 194.259C229.072 197.161 229.184 201.877 227.123 205.176C228.458 204.3 230.635 202.781 234.148 203.054C236.198 203.223 238.141 204.02 239.697 205.33C245.118 209.761 244.064 217.242 239.182 222.88L239.212 222.88ZM259.02 200.159C257.633 201.763 251.329 209.044 243.566 202.73L248.946 196.518C250.866 197.803 252.932 197.587 254.425 195.864C258.125 191.586 253.84 187.529 249.648 184.338C249.82 186.842 248.937 189.307 247.201 191.165C241.113 198.196 233.778 195.312 230.261 192.445C224.746 187.962 223.857 180.72 229.336 174.383C237.882 164.513 247.763 172.107 252.517 175.999C265.003 186.199 265.003 193.207 258.991 200.16L259.02 200.159ZM279.509 176.47C278.116 178.074 271.806 185.356 264.067 179.041L269.441 172.829C271.367 174.109 273.427 173.899 274.926 172.175C278.625 167.891 274.34 163.841 270.149 160.65C270.318 163.154 269.433 165.618 267.696 167.476C261.614 174.508 254.28 171.624 250.756 168.762C245.241 164.274 244.352 157.032 249.837 150.7C258.377 140.83 268.264 148.425 273.018 152.316C285.504 162.51 285.509 169.542 279.492 176.47L279.509 176.47Z" fill="#1F5DA6"/>
</g>
<defs>
<clipPath id="clip0_795_5230">
<rect width="441.067" height="512" fill="white" transform="translate(0.643555 0.574219)"/>
</clipPath>
</defs>
</svg>
