<svg width="732" height="513" viewBox="0 0 732 513" fill="none" xmlns="http://www.w3.org/2000/svg">
<g clip-path="url(#clip0_2_14994)">
<path d="M321.107 404.998C312.274 404.998 305.102 412.159 305.102 420.998C305.102 429.829 312.274 437 321.107 437C329.942 437 337.102 429.829 337.102 420.999C337.102 412.159 329.942 404.998 321.107 404.998ZM321.107 433.567C319.457 433.568 317.822 433.244 316.296 432.613C314.771 431.982 313.385 431.056 312.218 429.889C311.05 428.722 310.125 427.336 309.494 425.81C308.863 424.285 308.538 422.65 308.54 420.999C308.54 414.055 314.156 408.439 321.107 408.439C328.051 408.439 333.673 414.055 333.673 420.999C333.673 427.945 328.051 433.567 321.107 433.567ZM327.682 417.289C327.682 416.577 327.542 415.871 327.269 415.213C326.996 414.555 326.596 413.957 326.091 413.453C325.587 412.95 324.988 412.551 324.33 412.279C323.671 412.007 322.966 411.867 322.253 411.868H314.543V430.133H317.97V422.715H320.43L323.892 430.133H327.682L324.067 422.399C325.123 422.024 326.038 421.332 326.685 420.417C327.332 419.502 327.681 418.41 327.683 417.289H327.682ZM322.253 419.286H317.97V415.289H322.253C322.784 415.29 323.292 415.501 323.667 415.876C324.043 416.251 324.254 416.76 324.255 417.29C324.253 417.82 324.041 418.327 323.666 418.702C323.291 419.075 322.783 419.285 322.253 419.286Z" fill="black"/>
<path d="M498.483 0.796875H0.821777V24.2859C0.821777 60.6465 15.034 94.7958 39.3551 119.555H0.821777V143.05C0.821777 179.402 15.034 213.556 39.3551 238.301H0.821777V261.8C0.821777 298.144 15.034 332.294 39.3551 357.066H0.821777V380.557C0.821777 453.472 56.6383 512.797 125.255 512.797H240.665L318.999 380.367C363.066 434.094 429.127 466.118 498.483 466.118C626.772 466.118 731.147 361.756 731.147 233.466C731.147 105.17 626.772 0.796875 498.483 0.796875Z" fill="black"/>
<path d="M498.483 8.80469H8.82178V24.2895C8.82178 67.3039 29.4191 105.249 60.6202 127.559H8.82284V143.054C8.82284 186.054 29.4202 223.993 60.6202 246.309H8.82284V261.804C8.82284 304.805 29.4202 342.743 60.6202 365.057H8.82284V380.56C8.82284 449.059 61.0532 504.792 125.255 504.792H236.104L317.879 366.543C360.202 423.877 427.052 458.122 498.483 458.122C622.359 458.122 723.141 357.341 723.141 233.469C723.141 109.589 622.359 8.80469 498.483 8.80469Z" fill="white"/>
<path d="M498.485 24.2852H28.7886C28.7886 84.3524 73.9822 133.04 129.734 133.04H306.665C309.42 133.04 311.66 135.28 311.66 138.042C311.66 140.804 309.42 143.049 306.665 143.049H28.7896C28.7896 203.108 73.9822 251.794 129.734 251.794H236.422C239.178 251.794 241.425 254.034 241.425 256.806C241.425 259.553 239.178 261.8 236.423 261.8H28.7886C28.7886 321.855 73.9811 370.544 129.733 370.544H166.178C167.506 370.544 168.779 371.072 169.718 372.011C170.657 372.949 171.184 374.223 171.184 375.55C171.184 376.878 170.657 378.151 169.718 379.09C168.779 380.029 167.506 380.556 166.178 380.556H28.7886C28.7886 440.604 73.9811 489.297 129.733 489.297H227.277L409.618 181.006C427.581 150.642 460.648 130.279 498.484 130.279C555.469 130.279 601.665 176.476 601.665 233.466C601.665 290.44 555.469 336.647 498.484 336.647C442.213 336.647 396.468 291.593 395.326 235.591L326.328 352.261C364.068 406.844 427.09 442.631 498.485 442.631C614.003 442.631 707.653 348.978 707.653 233.466C707.653 117.937 614.003 24.2852 498.485 24.2852Z" fill="black"/>
<path d="M498.483 174.104C465.698 174.104 439.128 200.681 439.128 233.468C439.128 266.241 465.698 292.82 498.483 292.82C531.272 292.82 557.845 266.241 557.845 233.468C557.845 200.681 531.272 174.104 498.483 174.104Z" fill="#D24303"/>
</g>
<defs>
<clipPath id="clip0_2_14994">
<rect width="730.325" height="512" fill="white" transform="translate(0.821289 0.800781)"/>
</clipPath>
</defs>
</svg>
