<svg width="1025" height="90" viewBox="0 0 1025 90" fill="none" xmlns="http://www.w3.org/2000/svg">
<g clip-path="url(#clip0_751_542)">
<path d="M28.9794 80.9066C28.9794 84.86 30.1276 85.6238 32.6791 86.2646L36.6326 87.1578V88.943H10.3564V87.1578L13.673 86.3941C16.2245 85.7572 17.3727 84.4782 17.3727 80.9105V3.60832H14.5662C6.658 3.60832 3.4696 16.4914 2.57638 30.1395H0.663086V1.05812H45.689V30.1408H43.7757C42.8825 16.4927 39.6941 3.60962 31.7859 3.60962H28.9794V80.9066ZM48.4955 87.1565L51.302 86.3902C53.8535 85.7533 55.0018 84.4769 55.0018 80.9066V8.96633C55.0018 5.39476 53.8535 4.24652 51.302 3.60832L48.4955 2.84326V1.05682H73.3684V2.84326L70.435 3.60832C68.0117 4.24652 66.6084 5.26659 66.6084 8.83817V42.3843H85.8696V8.83817C85.8696 5.26659 84.4663 4.24652 82.043 3.60832L79.1096 2.84326V1.05682H103.982V2.84326L101.176 3.60832C98.6258 4.24652 97.4775 5.39476 97.4775 8.96633V80.7797C97.4775 84.3513 98.6258 85.7572 101.176 86.3941L103.982 87.1578V88.943H79.1083V87.1578L82.0417 86.5222C84.465 85.8853 85.8683 84.4795 85.8683 80.9105V45.319H66.6084V80.9066C66.6084 84.4769 68.0117 85.8814 70.435 86.5183L73.3684 87.1565V88.939H48.4955V87.1565ZM124.901 86.3928H133.702C145.182 86.3928 147.35 73.3816 148.88 59.8616H150.794V88.9403H106.788V87.1565L109.594 86.3928C112.146 85.7546 113.294 84.4769 113.294 80.9079V9.09319C113.294 5.52292 112.146 4.24652 109.594 3.60832L106.788 2.84326V1.05682H149.518V30.1395H147.605C146.202 16.4914 143.523 3.60832 133.702 3.60832H124.901V42.0024L128.982 41.8743C134.467 41.4911 136.507 36.7726 137.91 25.6734H139.824V61.1328H137.91C136.764 47.2297 134.594 45.0614 128.854 44.6782L124.901 44.55V86.3928ZM178.066 12.7929C176.408 5.2679 175.388 4.11966 172.964 3.48146L170.541 2.84326V1.05682H194.394V2.84326L192.481 3.22513C188.399 4.11835 188.781 8.19997 189.929 13.6848L200.006 63.6856L207.404 23.8882L204.725 10.2388C203.705 5.39214 203.322 3.86203 200.772 3.22382L199.114 2.84195V1.05551H222.456V2.84195L219.65 3.35199C215.44 4.11705 216.078 8.7087 217.098 13.6835L226.793 63.6869L236.36 16.3632C238.145 6.54169 237.253 4.11835 233.426 3.3533L230.748 2.84326V1.05682H248.223V2.84326L245.799 3.48146C242.738 4.24652 241.973 6.66985 240.186 15.2163L224.625 89.453H221.308L209.318 31.544L198.476 89.453H194.266L178.066 12.7929ZM302.815 86.3928H307.917C318.758 86.3928 321.948 73.5058 323.223 59.8616H325.136V88.9403H259.956V87.1565L262.634 86.6439C268.119 85.6264 268.119 84.0963 266.716 76.4392L264.293 64.9594H248.603L246.945 73.6366C245.032 83.4581 246.052 85.8788 249.88 86.6439L252.558 87.1565V88.9403H234.828V87.1565L236.997 86.5196C240.44 85.4995 241.333 83.4581 243.12 74.7835L258.681 0.54547H262.508L278.834 77.2055C280.492 85.1151 281.257 86.7694 285.849 86.7694C289.802 86.7694 291.206 84.728 291.206 80.9053V8.96503C291.206 5.39345 290.059 4.24521 287.507 3.60701L284.701 2.84195V1.05682H309.957V2.97011L306.512 3.73517C303.962 4.24521 302.814 5.39345 302.814 8.96503L302.815 86.3928ZM249.115 62.0273H263.656L256.258 25.8041L249.115 62.0273ZM346.056 86.3928H351.158C362 86.3928 365.189 73.5058 366.464 59.8616H368.377V88.9403H327.943V87.1565L330.749 86.3928C333.301 85.7546 334.449 84.4769 334.449 80.9079V8.96633C334.449 5.39476 333.301 4.24652 330.749 3.60832L327.943 2.84326V1.05682H353.199V2.97011L349.756 3.73517C347.204 4.24521 346.056 5.39345 346.056 8.96503V86.3928ZM409.97 89.4504C402.573 89.4504 400.023 84.3513 397.6 84.3513C396.196 84.3513 394.538 84.7332 393.263 88.943H391.733V59.859H393.646C395.178 76.3136 401.301 86.6426 409.846 86.6426C415.586 86.6426 419.541 81.4127 419.541 71.9744C419.541 52.075 391.096 43.5299 391.096 21.4623C391.096 9.60061 397.219 0.542854 408.061 0.542854C415.076 0.542854 416.607 5.13451 419.541 5.13451C421.199 5.13451 422.347 3.85941 422.984 1.05289H424.514V30.1355H422.601C421.071 15.4674 417.117 3.34937 407.931 3.34937C401.554 3.34937 400.278 9.72616 400.278 14.0641C400.278 33.0702 428.723 39.5752 428.723 66.105C428.719 79.6315 421.322 89.4504 409.97 89.4504ZM456.909 80.9066C456.909 84.4769 458.058 85.7533 460.609 86.3902L463.926 87.1565V88.939H438.288V87.1565L441.604 86.3902C444.156 85.7533 445.304 84.4769 445.304 80.9066V3.60832H442.497C434.589 3.60832 431.401 16.4914 430.508 30.1395H428.594V1.05812H473.623V30.1408H471.708C470.815 16.4927 467.628 3.60962 459.718 3.60962H456.912V80.9066H456.909ZM476.425 87.1565L479.232 86.3902C481.784 85.7533 482.932 84.4769 482.932 80.9066V8.96633C482.932 5.39476 481.784 4.24652 479.232 3.60832L476.425 2.84326V1.05682H500.788C511.631 1.05682 521.708 7.94495 521.708 22.3581C521.708 33.456 516.478 41.2374 505.89 44.0439C517.498 46.2109 517.498 51.6984 518.646 66.364L519.411 77.5887C519.794 83.8387 520.049 85.2445 521.836 85.2445C523.749 85.2445 524.516 80.9092 524.516 76.6981V74.5298H526.683V77.4619C526.683 84.4782 525.151 89.4517 517.882 89.4517C510.738 89.4517 507.423 85.3701 506.91 70.7032L506.275 54.3767C506.019 46.5954 504.106 45.4472 500.406 45.4472H494.412V80.9079C494.412 84.4782 495.56 85.8827 498.111 86.5196L500.918 87.1578V88.9403H476.427L476.425 87.1565ZM494.41 42.8957H498.62C505.763 42.8957 509.335 40.9824 509.335 24.0177C509.335 7.05304 504.615 3.60962 499.513 3.60962H494.412L494.41 42.8957ZM545.559 86.3928H554.359C565.838 86.3928 568.01 73.3816 569.538 59.8616H571.451V88.9403H527.445V87.1565L530.252 86.3928C532.802 85.7546 533.95 84.4769 533.95 80.9079V9.09319C533.95 5.52292 532.802 4.24652 530.252 3.60832L527.445 2.84326V1.05682H570.177V30.1395H568.263C566.863 16.4914 564.182 3.60832 554.359 3.60832H545.559V42.0024L549.641 41.8743C555.123 41.4911 557.167 36.7726 558.569 25.6734H560.484V61.1328H558.569C557.42 47.2297 555.254 45.0614 549.51 44.6782L545.559 44.55V86.3928ZM592.883 86.3928H601.684C613.16 86.3928 615.333 73.3816 616.86 59.8616H618.773V88.9403H574.77V87.1565L577.577 86.3928C580.127 85.7546 581.276 84.4769 581.276 80.9079V9.09319C581.276 5.52292 580.127 4.24652 577.577 3.60832L574.77 2.84326V1.05682H617.501V30.1395H615.587C614.184 16.4914 611.506 3.60832 601.684 3.60832H592.883V42.0024L596.965 41.8743C602.448 41.4911 604.49 36.7726 605.893 25.6734H607.807V61.1328H605.893C604.745 47.2297 602.576 45.0614 596.836 44.6782L592.883 44.55V86.3928ZM649.9 80.9066C649.9 84.86 651.051 85.6238 653.598 86.2646L657.552 87.1578V88.943H631.276V87.1578L634.592 86.3941C637.14 85.7572 638.292 84.4782 638.292 80.9105V3.60832H635.486C627.577 3.60832 624.389 16.4914 623.496 30.1395H621.582V1.05812H666.61V30.1408H664.696C663.802 16.4927 660.615 3.60962 652.707 3.60962H649.9V80.9066ZM719.936 68.6617C719.936 82.3125 713.044 89.4504 702.461 89.4504C692.898 89.4504 687.286 81.6716 687.41 73.1252C687.538 66.4934 692.385 63.1782 696.338 63.6869C699.145 64.0688 701.951 66.1102 701.568 70.575C701.185 76.9531 694.294 76.6981 694.042 80.6516C693.788 83.0762 696.974 86.6465 701.054 86.6465C708.2 86.6465 708.2 77.59 708.2 70.7032V8.83817C708.2 5.26659 707.049 4.24652 704.247 3.60832L701.058 2.84326V1.05682H726.189V2.84326L723.382 3.60832C720.832 4.24652 719.939 5.39476 719.939 8.96633L719.936 68.6617ZM749.657 89.5799C734.734 89.5799 727.461 69.4268 727.461 44.9345C727.461 20.573 734.477 0.419922 749.657 0.419922C764.708 0.419922 771.978 20.573 771.978 44.9345C771.978 69.4268 765.091 89.5799 749.657 89.5799ZM749.657 3.3533C743.279 3.3533 740.093 8.45499 740.093 44.4271C740.093 81.5435 743.024 86.7746 749.657 86.7746C756.289 86.7746 759.35 81.5435 759.35 44.1694C759.35 8.45629 756.289 3.3533 749.657 3.3533ZM822.49 87.1565L825.296 86.3902C827.847 85.7533 828.995 84.4769 828.995 80.9066V8.96633C828.995 4.75656 827.082 3.22644 822.617 3.22644C817.005 3.22644 815.602 5.77794 815.602 13.0479V68.4067C815.602 82.183 810.756 89.5799 798.895 89.5799C786.65 89.5799 779.509 82.183 779.509 68.7899V8.96633C779.509 5.39476 778.614 4.24652 776.064 3.60832L773.257 2.84326V1.05682H798.64V2.84326L795.196 3.60832C792.389 4.24652 791.242 5.26659 791.242 8.83817V69.6818C791.242 82.0548 794.812 85.2432 801.319 85.2432C808.974 85.2432 812.161 80.9066 812.161 68.4054V17.6396C812.161 6.92487 812.033 4.37337 807.444 3.3533L805.02 2.84326V1.05682H846.858C857.7 1.05682 867.777 7.94495 867.777 22.3581C867.777 33.456 862.547 41.2374 851.959 44.0439C863.567 46.2109 863.567 51.6984 864.715 66.364L865.48 77.5887C865.863 83.8387 866.116 85.2445 867.905 85.2445C869.818 85.2445 870.584 80.9092 870.584 76.6981V74.5298H872.751V77.4619C872.751 84.4782 871.221 89.4517 863.951 89.4517C856.808 89.4517 853.492 85.3701 852.979 70.7032L852.343 54.3767C852.088 46.5954 850.175 45.4472 846.477 45.4472H840.482V80.9079C840.482 84.4782 841.629 85.8827 844.18 86.5196L846.987 87.1578V88.9403H822.494V87.1578L822.49 87.1565ZM840.475 42.8957H844.685C851.827 42.8957 855.398 40.9824 855.398 24.0177C855.398 7.05304 850.68 3.60962 845.577 3.60962H840.475V42.8957ZM875.043 3.3533L873.259 2.84326V1.05682H889.966L912.799 58.9658V17.2564C912.799 7.81809 913.052 4.50154 906.292 3.3533L904.125 2.84326V1.05682H923.003V2.84326L921.219 3.3533C915.736 4.62839 916.119 9.09319 916.119 18.0215V88.9417H912.037L883.464 18.661V72.7434C883.464 83.0749 883.464 86.0109 891.627 87.1565V88.939H873.256V87.1565L875.555 86.7733C880.271 85.8775 880.147 81.2885 880.147 71.9783V11.0065C877.976 6.543 877.083 4.11835 875.043 3.3533ZM987.29 86.3928H992.392C1003.23 86.3928 1006.42 73.5058 1007.7 59.8616H1009.61V88.9403H944.56V87.1565L947.238 86.6439C952.723 85.6264 952.851 84.0963 951.32 76.4392L948.895 64.9594H933.208L931.546 73.6366C929.632 83.4581 930.654 85.8788 934.48 86.6439L937.159 87.1565V88.9403H919.428V87.1565L921.595 86.5196C925.041 85.4995 925.93 83.4581 927.719 74.7835L943.279 0.546778H947.108L963.432 77.2068C965.094 85.1164 965.729 86.7707 970.323 86.7707C974.274 86.7707 975.681 84.7293 975.681 80.9066V8.96503C975.681 5.39345 974.533 4.24521 971.983 3.60701L969.176 2.84195V1.05682H994.432V2.97011L990.987 3.73517C988.437 4.24521 987.289 5.39345 987.289 8.96503L987.29 86.3928ZM933.717 62.0273H948.258L940.861 25.8028L933.717 62.0273ZM1024.66 83.3286C1024.66 86.7733 1022.11 89.3248 1019.05 89.3248C1015.99 89.3248 1013.44 86.7733 1013.44 83.3286C1013.44 79.8852 1015.99 77.3337 1019.05 77.3337C1022.11 77.3337 1024.66 79.8865 1024.66 83.3286Z" fill="black"/>
</g>
<defs>
<clipPath id="clip0_751_542">
<rect width="1024" height="89.1599" fill="white" transform="translate(0.663086 0.419922)"/>
</clipPath>
</defs>
</svg>
