<svg width="526" height="513" viewBox="0 0 526 513" fill="none" xmlns="http://www.w3.org/2000/svg">
<g clip-path="url(#clip0_820_298)">
<path d="M432.65 0.0507812H93.5044C42.1466 0.0507812 0.512939 41.6845 0.512939 93.0422V419.059C0.512939 470.417 42.1466 512.051 93.5044 512.051H432.65C484.007 512.051 525.641 470.417 525.641 419.059V93.0422C525.641 41.6845 484.007 0.0507812 432.65 0.0507812Z" fill="#00005B"/>
<path d="M212.846 306.376H131.471L114.76 357.724C114.534 358.662 113.989 359.491 113.217 360.07C112.445 360.649 111.496 360.94 110.532 360.894H69.3165C66.9661 360.894 66.1441 359.603 66.8506 357.019L137.598 155.13C138.303 153.017 139.007 151.133 139.713 148.43C140.634 143.73 141.106 138.953 141.122 134.164C141.074 133.829 141.105 133.487 141.212 133.166C141.319 132.845 141.499 132.554 141.738 132.314C141.977 132.075 142.269 131.895 142.59 131.788C142.911 131.681 143.253 131.65 143.588 131.698H199.598C201.239 131.698 202.179 132.285 202.417 133.459L282.09 357.371C282.794 359.722 282.089 360.896 279.976 360.894H234.18C233.393 360.981 232.602 360.779 231.954 360.325C231.305 359.871 230.845 359.197 230.657 358.428L212.846 306.376ZM144.292 262.926H199.951C198.542 258.231 196.898 252.947 195.019 247.074C193.137 241.206 191.141 234.924 189.031 228.227C186.917 221.534 184.803 214.841 182.689 208.148C180.576 201.455 178.639 194.996 176.877 188.773C175.115 182.553 173.53 176.858 172.122 171.688H171.769C169.786 181.202 167.317 190.608 164.372 199.869C161.08 210.438 157.733 221.241 154.331 232.278C150.924 243.32 147.578 253.536 144.292 262.926Z" fill="#9999FF"/>
<path d="M306.748 357.53V227.687C306.748 223.697 306.69 219.235 306.573 214.301C306.451 209.37 306.275 204.673 306.044 200.21C305.807 195.751 305.571 191.61 305.34 189.023C305.203 188.672 305.163 188.29 305.225 187.918C305.287 187.546 305.448 187.197 305.692 186.909C305.98 186.657 306.315 186.465 306.678 186.344C307.041 186.223 307.424 186.175 307.806 186.205H342.971C344.184 186.165 345.39 186.406 346.494 186.909C346.963 187.151 347.367 187.501 347.673 187.929C347.979 188.358 348.179 188.854 348.255 189.375C348.723 190.784 349.252 192.37 349.841 194.131C350.489 196.462 350.902 198.853 351.074 201.267C357.885 195.3 365.777 190.696 374.324 187.704C382.821 184.763 391.753 183.274 400.745 183.301C407.747 183.333 414.7 184.462 421.352 186.648C429.032 189.103 436.036 193.309 441.813 198.933C447.59 204.557 451.982 211.446 454.642 219.057C458.164 228.1 459.546 239.786 459.546 254.108V357.53C459.546 359.644 458.607 360.701 456.728 360.7L415.565 361.065C415.086 361.134 414.598 361.09 414.14 360.937C413.681 360.784 413.264 360.527 412.922 360.185C412.58 359.843 412.323 359.426 412.17 358.967C412.018 358.509 411.974 358.021 412.043 357.542V259.418C411.928 252.846 410.481 246.366 407.789 240.37C405.9 235.946 402.783 232.156 398.806 229.449C394.312 226.698 389.1 225.349 383.835 225.574C378.175 225.494 372.552 226.51 367.279 228.568C362.457 230.494 358.037 233.301 354.245 236.847V357.53C354.245 359.644 353.305 360.701 351.426 360.7H309.919C309.489 360.762 309.049 360.722 308.637 360.585C308.224 360.447 307.849 360.215 307.541 359.908C307.234 359.6 307.002 359.225 306.864 358.812C306.727 358.4 306.687 357.961 306.748 357.53Z" fill="#9999FF"/>
</g>
<defs>
<clipPath id="clip0_820_298">
<rect width="525.128" height="512" fill="white" transform="translate(0.512939 0.0507812)"/>
</clipPath>
</defs>
</svg>
