<svg width="790" height="513" viewBox="0 0 790 513" fill="none" xmlns="http://www.w3.org/2000/svg">
<g clip-path="url(#clip0_879_3696)">
<path d="M30.416 414.293C25.646 412.12 19.3776 410.509 13.8399 401.8C7.61898 391.98 9.81469 384.81 11.8114 371.24C13.9261 356.859 13.6884 351.038 9.64917 335.047C6.33712 321.911 4.46716 317.398 2.41408 302.162C1.14631 292.763 0.218371 284.855 0.132092 279.541C0.00531507 271.641 0.607507 264.242 1.47029 253.247C1.94571 247.139 3.43534 238.471 8.70363 222.599C10.4398 217.396 15.1305 205.093 17.9989 199.247C22.8093 189.491 27.9667 184.661 25.565 167.449C24.6458 160.834 22.1262 157.281 21.089 148.404C19.9164 138.34 20.589 133.612 22.4748 127.386C24.3606 121.191 26.6109 117.321 30.4547 112.562C32.6892 109.801 36.9115 104.439 46.6258 102.719C46.6258 102.719 53.0034 100.895 58.2259 102.33C71.3474 103.472 69.414 115.067 89.0011 102.916C98.3826 97.6724 114.476 93.4853 130.711 104.876C137.645 108.952 143.443 122.801 135.988 99.9667C132.501 86.3963 128.959 79.6296 124.213 58.2694C118.66 38.0678 123.159 17.4525 139.617 6.30136C151.495 -4.13662 175.597 0.511868 203.553 5.75375C228.084 10.3617 233.884 2.62835 250.587 3.34323C259.978 3.74821 267.947 3.77991 275.682 5.59528C286.347 8.1097 292.36 11.2263 298.255 14.4397C314.99 23.5694 314.023 14.5507 337.398 17.6285C344.878 18.6128 347.816 17.5088 355.391 19.6992C364.155 22.2207 369.583 25.1172 377.324 29.6301C398.996 42.2567 399.019 45.0969 435.118 43.5192C441.799 43.2252 453.707 48.3808 460.15 52.5926C467.313 57.2798 484.72 67.4097 500.1 68.3922C519.688 69.6459 536.47 67.1473 560.621 84.3274C578.258 100.025 600.175 99.2871 619.746 109.915C626.038 113.326 641.068 124.827 648.452 136.693C650.028 139.239 656.471 143.42 672.556 146.084C687.016 148.471 702.174 165.651 710.247 177.644C720.643 187.233 714.549 180.722 728.796 190.66C735.682 195.467 739.137 197.87 745.87 202.906C754.641 209.465 749.048 204.683 759.523 212.955C761.441 214.462 763.992 217.341 770.988 223.64C780.077 230.635 784.055 236.861 787.113 242.961C792.272 253.224 788.143 260.458 783.38 268.969C779.862 275.227 774.229 285.301 765.251 293.781C755.283 303.196 756.076 303.465 746.979 308.915C726.308 321.265 710.864 317.085 702.116 331.83C689.194 353.611 678.798 360.645 669.043 365.214C649.386 374.43 636.192 374.106 623.72 383.902C613.555 391.882 597.486 402.152 586.622 407C565.713 416.32 563.137 410.838 548.827 419.778C543.971 422.815 547.052 421.063 534.834 431.137C527.798 436.935 516.578 441.853 511 442.629C503.703 443.652 495.644 444.454 488.837 446.278C471.667 450.879 469.797 456.915 450.876 460.547C428.792 464.791 419.664 462.688 398.587 472.746C393.088 475.371 387.082 477.997 379.032 482.367C372.408 485.977 352.044 490.901 336.315 491.687C329.462 492.035 323.028 487.515 306.443 495.423C285.034 505.631 284.733 504.592 267.76 508.034C261.589 509.288 254.648 508.597 248.189 508.573C235.851 508.541 222.999 504.273 209.814 504.678C196.297 505.106 199.434 504.273 188.183 505.551L180.212 506.853L168.46 509.471L164.19 510.605C153.414 512.968 146.973 512.001 140.664 510.763C130.072 508.661 118.329 502.333 114.066 496.525C107.062 488.158 106.102 480.106 106.919 469.129C110.872 449.998 118.979 422.761 122.741 413.044C122.741 413.044 128.953 398.918 113.923 406.834C98.6942 412.449 86.793 402.622 77.5541 405.771C68.442 410.356 62.8075 414.543 51.4134 416.209C39.5827 417.931 30.4072 414.296 30.4072 414.296" fill="#FFFFFE"/>
<path d="M200.084 489.121C213.745 487.582 217.009 488.519 229.252 490.122C240.63 491.613 251.517 493.81 262.793 492.525C268.444 491.882 274.022 490.803 279.552 489.035C295.361 483.975 302.698 477.106 321.746 474.512C337.523 472.371 337.53 475.003 351.358 474.345C365.851 473.655 373.908 467.476 380.009 464.16C387.41 460.132 389.343 459.806 394.296 457.156C412.203 447.567 433.233 448.757 453.351 443.839C467.496 440.381 473.034 433.711 488.833 429.475C495.109 427.793 501.995 427.913 508.714 426.969C513.858 426.256 522.945 421.678 528.032 416.983C536.757 408.901 535.79 408.576 542.573 404.753C553.88 398.353 566.685 398.55 578.054 393.267C588.633 388.358 599.511 384.178 607.887 375.723C620.09 363.389 639.353 359.939 655.191 354.188C664.518 350.786 676.768 344.789 687.044 327.007C697.131 309.589 706.053 307.091 723.984 301.689C735.909 298.088 741.06 295.542 750.242 286.872C758.514 279.066 761.487 274.046 765.202 268.58C769.458 262.307 777.816 252.003 768.935 244.119C765.036 240.652 761.09 234.22 752.714 227.772C746.28 221.974 740.963 218.738 739.197 217.341C729.546 209.728 737.675 215.739 728.405 209.87C721.86 205.731 720.013 202.399 713.271 198.591C701.195 191.769 699.935 189.755 690.284 178.151C681.908 162.692 668.77 160.543 655.601 157.599C642.876 154.759 633.85 144.599 631.704 141.101C624.937 130.147 614.003 124.713 608.203 121.565C590.184 111.785 569.409 113.347 553.173 98.8963C528.705 81.5014 522.262 84.7219 496.542 83.9296C482.359 83.5017 463.745 74.4265 457.685 69.3819C452.589 65.1384 446.71 62.3458 441.457 60.7276C423.328 55.1353 410.911 64.7404 385.564 52.392C378.155 48.7753 371.468 43.8169 364.187 39.6227C359.654 37.0132 356.2 35.7525 349.1 34.2206C335.685 31.3171 324.005 33.1729 307.755 34.5534C300.133 35.2119 295.607 31.1586 288.603 27.3746C282.169 23.8918 275.298 21.3299 266.788 19.7522C255.775 17.7061 243.271 19.15 230.467 21.719C205.118 26.8112 181.855 13.9697 157.411 16.2535C153.267 16.6426 145.058 21.8458 142.309 27.6758C138.617 35.4884 138.617 40.0013 139.163 47.7277C139.907 58.2132 141.144 58.9597 143.197 65.7811C147.634 80.5893 149.884 88.6485 153.427 98.6339C157.54 110.238 157.404 124.364 147.634 128.87C142.927 131.043 135.099 131.099 130.677 127.72C123.8 122.477 120.035 115.094 112.279 113.571C101.931 111.525 89.5136 122.153 78.5157 125.048C67.486 127.958 66.0827 121.954 58.4215 118.401C53.3257 116.038 48.429 119.48 45.5695 121.066C40.4103 123.945 39.1672 129.886 37.9628 136.216C37.0032 141.284 36.5912 146.005 37.8431 151.525C39.6585 159.552 42.3278 164.366 42.5339 169.958C43.0251 184.013 40.7748 194.324 34.9748 201.741C31.2894 206.46 26.4649 219.484 24.9435 224.298C19.8566 240.399 20.4658 237.592 18.0095 252.552C16.7488 260.181 16.9548 268.748 16.2822 275.895C16.1554 277.212 17.1309 293.455 17.9144 298.303C19.8566 310.311 22.1069 318.045 24.6336 328.166C28.2714 342.793 29.8315 351.882 29.467 363.193C29.1025 374.774 21.804 385.664 28.738 393.841C33.0485 398.918 44.277 403.503 53.412 399.472C62.6668 395.372 69.4176 390.542 76.6915 389.542C90.0911 387.693 98.7031 393.436 104.519 392.753C109.646 392.151 118.663 386.995 122.911 386.638C126.295 386.353 133.632 386.027 136.206 387.955C140.288 391.017 142.807 394.403 142.126 404.984C142.11 405.142 139.645 416.255 139.622 416.35C135.398 430.262 130.843 443.175 128.663 452.733C126.388 462.703 115.454 484.293 137.641 493.138C146.984 496.858 156.864 496.136 169.107 492.986C175.312 491.384 177.886 491.122 183.679 490.155C183.679 489.718 192.372 489.877 192.372 489.449L200.09 489.123" fill="black"/>
<path d="M620.072 154.171C626.078 158.097 632.98 168.225 638.78 176.601C645.857 183.049 646.498 186.786 664.049 189.918C660.658 189.307 679.842 195.931 682.733 197.548C690.276 201.735 692.201 204.313 698.888 211.944C705.805 219.836 708.555 221.945 722.51 231.281C727.929 234.913 728.896 236.215 739.219 243.559C743.474 246.589 748.862 251.491 750.779 255.52C755.66 265.752 748.846 269.393 738.237 275.016C720.796 284.272 706.361 281.631 690.655 297.684C677.549 311.064 663.231 327.389 653.541 330.324C649.317 331.609 638.131 335.115 630.49 339.866C622.923 344.577 620.785 344.426 614.001 350.478C605.943 357.664 601.443 362.819 586.626 367.943C577.489 371.091 566.706 372.56 557.134 375.43C550.05 377.564 544.386 380.513 538.086 384.091C528.467 389.548 516.889 402.319 500.979 405.277C469.475 411.146 477.842 410.505 455.38 420.681C449.801 423.211 438.288 425.963 430.206 425.963C416.697 425.963 406.158 428.199 394.264 434.529C385.605 439.146 376.785 447.624 359.79 449.885C338.792 452.678 337.627 450.044 311.558 455.62C303.65 457.324 293.667 463.091 286.123 465.82C277.654 468.889 257.701 469.271 243.606 467.977C229.834 466.717 219.724 466.692 199.829 470.302C184.425 473.094 176.121 473.411 161.162 473.031C157.795 472.936 155.26 470.573 153.08 467.018C150.481 462.799 150.173 459.094 150.741 454.439C151.939 444.659 151.733 444.182 154.038 435.124C154.744 432.372 158.198 414.423 158.808 411.678C162.667 394.41 163.856 377.001 150.266 369.14C146.019 366.689 135.465 365.112 127.826 366.468C104.816 370.553 109.641 374.423 94.9365 369.22C92.4644 368.346 86.2118 367.212 82.5758 367.364C75.2157 367.658 64.7249 372.821 55.4455 374.28C48.9323 375.312 47.2279 368.045 47.4022 362.851C47.6716 354.801 48.5115 347.067 48.154 338.064C47.2032 314.5 43.0918 313.23 40.2551 299.024C37.6808 286.135 38.4239 264.259 37.8076 264.879C38.4485 246.834 46.6186 227.393 51.2706 220.676C56.1357 213.633 57.1816 210.761 60.881 202.147C64.7953 193.033 64.2723 184.983 62.2844 174.751C62.2369 174.504 59.8668 166.938 60.7243 166.938C60.0429 162.115 61.2068 156.833 62.7457 153.558C65.2337 148.251 67.1671 145.682 71.1289 143.968C73.5781 142.898 76.1682 141.613 78.776 141.431C87.3246 140.829 89.0537 146.317 105.035 139.607C113.307 136.124 121.532 140.789 125.597 142.28C136.681 146.317 134.757 146.317 141.818 146.546C148.528 146.761 154.987 145.064 161.215 141.28C164.796 139.091 167.506 137.894 169.629 134.8C171.452 132.134 173.868 124.783 174.517 120.983C175.31 116.359 176.602 113.456 175.31 102.502C171.769 88.9702 170.485 86.0666 168.061 77.5003C166.095 70.5206 163.718 63.8419 162.72 57.4326C162.704 57.3128 162.435 49.6587 162.435 49.6587C161.572 43.2582 165.921 38.6661 171.452 38.6185C191.261 38.46 209.841 44.1069 230.776 43.9731C248.05 43.8622 255.394 40.3247 275.726 47.7324C282.81 50.3102 286.993 56.1085 298.079 59.2339C319.165 65.1818 335.915 50.9529 353.949 59.4487C368.941 66.5165 365.787 62.2483 379.882 71.2425C386.452 75.4384 398.677 82.5291 416.211 85.1069C428.35 86.8994 447.604 81.8865 467.445 96.2827C478.601 104.381 488.798 107.657 503.069 109.133C519.874 110.871 521.506 108.499 534.754 118.104C544.5 125.179 541.815 123.601 551.647 130.93C556.101 134.245 559.594 137.624 566.037 140.519C569.722 142.176 583.849 144.152 583.414 144.129C595.972 144.771 599.506 143.74 609.482 147.293C609.268 147.062 622.359 155.66 620.075 154.171" fill="#FFFFFE"/>
<path d="M186.121 273.647V300.33H286.347L296.324 290.979V258.959H281.523L281.577 250.836L336.813 219.133L341.448 223.9C329.087 232.601 319.499 240.722 312.09 253.611C301.251 271.687 297.289 296.775 303.723 316.755C307.913 330.287 313.057 338.346 322.074 347.752C330.758 356.707 338.159 361.863 352.326 368.628C363.91 374.426 391.271 382.739 412.513 384.991C433.106 386.6 458.859 386.283 475.918 384.022C494.579 382.094 513.896 375.329 525.488 370.554C534.814 366.048 545.115 361.861 553.03 355.674C572.99 341.309 594.035 319.648 594.359 292.585H557.15C545.43 334.146 432.782 353.159 387.728 321.004C354.893 295.162 364.227 272.286 378.069 261.658L382.259 266.171L375.239 273.579L375.753 300.325H470.637L482.864 288.728V259.723H475.59L442.764 224.283C505.844 210.76 537.07 238.458 555.477 268.742H580.192L592.679 256.502V186.266L566.357 186.203L550.589 195.991C494.579 171.188 453.066 174.029 409.613 188.457L402.53 181.246L442.639 157.268L466.837 157.141L478.682 145.861L478.746 121.955H381.928L371.635 132.402V148.694L280.878 200.639V160.624L295.544 145.8V121.703H200.405L187.41 136.908V155.975H202.988V258.953H198.218C198.218 258.953 185.477 273.388 186.118 273.644" fill="black"/>
<path d="M202.991 127.633H289.881V143.226L275.08 143.362V210.885L393.521 143.226H383.094V127.633L472.702 127.506V143.099L452.744 143.362L392.081 179.182L473.725 267.462L476.562 267.526V285.507H386.446V267.336L398.997 267.462L343.057 207.8L275.723 246.46V267.462H289.883V285.38H202.993V267.462H217.794V143.228H202.993V127.634L202.991 127.633ZM587.538 298.394C584.058 316.756 575.691 324.165 565.329 336.086C551.486 348.975 548.658 350.593 534.816 357.994C511.005 369.914 486.22 375.063 457.894 375.721C418.301 377.331 383.231 368.948 361.663 359.929C348.463 355.099 328.828 342.853 316.603 321.911C306.626 301.615 311.516 280.024 315.059 269.396C319.503 256.507 326.579 243.292 347.244 229.19L373.249 257.283C360.056 268.744 350.398 289.692 371.062 313.535C395.784 344.462 452.105 353.162 510.684 335.76C540.937 326.75 554.129 314.178 563.725 298.394H587.543H587.538ZM414.123 193.363C431.815 187.882 481.711 170.806 551.873 201.739L566.683 192.071H587.402L587.149 254.447L564.107 254.709C540.606 219.333 487.185 206.889 437.298 218.817L414.123 193.365V193.363Z" fill="#E31837"/>
</g>
<defs>
<clipPath id="clip0_879_3696">
<rect width="789.382" height="512" fill="white" transform="translate(0.115234 0.0507812)"/>
</clipPath>
</defs>
</svg>
