<svg width="621" height="513" viewBox="0 0 621 513" fill="none" xmlns="http://www.w3.org/2000/svg">
<g clip-path="url(#clip0_2_15075)">
<path d="M596.703 284.818C589.54 284.818 583.725 290.624 583.725 297.791C583.725 304.952 589.54 310.766 596.703 310.766C603.865 310.766 609.671 304.952 609.671 297.792C609.671 290.624 603.865 284.818 596.703 284.818ZM596.703 307.982C595.364 307.983 594.039 307.721 592.802 307.209C591.565 306.697 590.441 305.947 589.494 305C588.548 304.054 587.797 302.93 587.285 301.693C586.774 300.456 586.511 299.131 586.512 297.792C586.512 292.162 591.066 287.608 596.703 287.608C602.333 287.608 606.891 292.162 606.891 297.792C606.891 303.424 602.333 307.982 596.703 307.982ZM602.033 294.784C602.031 293.618 601.566 292.5 600.742 291.675C599.916 290.851 598.797 290.389 597.631 290.389H591.379V305.198H594.158V299.184H596.153L598.96 305.198H602.034L599.102 298.927C599.958 298.623 600.699 298.061 601.224 297.32C601.749 296.578 602.031 295.693 602.033 294.784ZM597.631 296.403H594.158V293.163H597.631C598.524 293.163 599.254 293.888 599.254 294.785C599.253 295.215 599.081 295.626 598.777 295.93C598.473 296.233 598.06 296.403 597.631 296.403Z" fill="black"/>
<path d="M567.126 299.01C587.163 269.982 597.443 240.973 597.443 212.718C597.443 138.187 521.224 88.0894 407.764 88.0894C407.764 88.0894 402.345 88.182 398.576 88.2408C387.099 69.4326 365.725 58.9564 347.754 55.1225L313.382 0.796875L240.562 119.795C108.72 168.877 16.7948 260.537 16.7948 343.259C16.7948 374.187 30.0636 401.598 54.9604 423.02L0 512.797C0 512.797 96.4151 497.437 242.281 488.987L251.184 465.433C293.917 460.918 338.397 449.916 380.738 433.464C381.121 436.315 381.769 439.313 383.25 442.266L391.224 458.185C403.159 482.07 426.823 510.54 471.715 510.54C586.205 510.54 620.364 413.811 620.364 413.811C621.843 337.709 567.126 299.01 567.126 299.01Z" fill="white"/>
<path d="M558.448 300.32C579.096 272.019 591.031 242.176 591.031 212.718C591.031 145.54 524.138 94.4955 407.763 94.4955C403.542 94.4955 399.31 94.5924 395.071 94.7238C384.278 73.6038 359.952 63.6795 343.746 60.7839L313.482 12.9258L244.901 124.963C122.367 170.009 23.2044 258.246 23.2044 343.26C23.2044 373.868 37.1313 401.111 63.2563 421.716L12.5977 504.486C12.5977 504.486 117.272 489.305 237.759 482.817L246.571 459.499C294.532 454.872 342.617 442.316 387.012 424.139C386.743 425.963 385.917 433.258 388.983 439.395L396.948 455.336C409.558 480.54 432.404 504.134 471.708 504.134C581.533 504.134 613.958 412.713 613.958 412.713C613.958 361.651 590.52 324.601 558.448 300.32Z" fill="#236093"/>
<path d="M580.367 383.646C573.36 394.321 561.886 406.799 558.511 410.405L558.449 442.34L556.382 442.546L552.025 442.961L541.01 425.922C461.125 482.017 401.179 447.515 401.179 447.515L419.179 475.213C451.241 516.315 555.985 501.494 600.642 425.434L594.584 425.199C593.532 407.918 580.367 383.646 580.367 383.646Z" fill="black"/>
<path d="M462.8 264.917L365.636 111.291C362.292 110.573 358.708 110.235 354.922 110.235L452.476 264.479C455.865 264.522 459.313 264.655 462.8 264.917ZM166.969 284.814L313.709 45.0787L323.184 60.0694C327.05 60.4595 330.726 60.9689 334.194 61.5855L313.592 29.0078L165.638 270.731C165.655 273.644 165.873 278.794 166.969 284.814Z" fill="#C2C6C9"/>
<path d="M329.924 381.42C274.189 381.42 236.894 409.323 186.127 409.323C115.455 409.323 93.7896 359.453 93.7896 324.944C93.7896 218.605 219.153 154.498 219.153 154.498L221.62 150.467C221.201 150.652 220.12 151.166 218.511 151.953C197.688 162.223 85.1773 222.418 85.1773 324.944C85.1773 341.359 88.9524 356.168 95.5876 368.883C97.077 371.726 98.7177 374.487 100.503 377.154L29.2568 493.528C29.2568 493.528 117.16 480.994 231.757 474.634L258.326 404.332C281.569 397.49 304.25 390.628 333.523 390.628C395.516 390.628 435.361 423.821 435.361 423.821C435.361 423.821 412.667 381.42 329.924 381.42Z" fill="#C2C6C9"/>
<path d="M354.924 110.234C329.464 110.307 294.607 126.254 257.719 152.304L274.503 124.948L285.994 115.654L294.748 83.9201L308.966 79.5456L313.156 59.3017C316.506 59.4628 319.851 59.7184 323.186 60.068L313.711 45.0781L166.971 284.813C170.095 301.986 180.412 326.26 213.803 326.26C280.669 326.26 377.342 264.451 450.883 264.451C451.404 264.451 451.943 264.477 452.477 264.477L354.924 110.235V110.234ZM105.983 384.462L45.8188 482.743C45.8188 482.743 120.768 472.72 225.766 466.479L248.13 407.278C228.183 412.944 207.089 417.867 180.515 417.867C150.589 417.867 123.552 405.538 105.983 384.462Z" fill="#8A2432"/>
<path d="M501.499 467.388L506.411 459.276C439.892 481.311 412.405 458.51 412.405 458.51C434.903 483.798 483.278 472.738 501.499 467.388Z" fill="#C2C6C9"/>
<path d="M422.439 472.02C441.596 495.489 499.907 493.059 545.573 465.738L548.997 456.706C520.375 476.347 456.726 494.537 422.439 472.02ZM314.591 217.953L284.438 298.111C284.438 298.111 242.459 313.975 214.76 318.502C270.304 322.708 366.777 259.846 429.824 259.846C401.445 250.978 333.262 277.848 333.262 277.848L314.591 217.953Z" fill="#C2C6C9"/>
<path d="M313.837 244.09C308.118 259.286 301.599 276.632 295.395 293.123L325.283 280.8C321.731 269.424 317.713 256.549 313.837 244.09Z" fill="#236093"/>
<path d="M218.512 151.954C124.475 188.517 51.5488 253.964 51.5488 319.775C51.5488 348.208 64.2623 370.347 84.3912 387.178L95.5895 368.884C88.9542 356.169 85.1791 341.36 85.1791 324.944C85.1791 222.419 197.689 162.224 218.513 151.954H218.512ZM545.925 291.746C557.139 273.231 563.424 253.979 563.424 234.687C563.424 161.309 478.714 129.792 400.327 123.568C399.813 129.646 398.435 136.236 395.981 143.373L473.577 266.045C497.799 269.316 523.351 277.747 545.925 291.746ZM365.638 111.294C376.674 113.651 385.202 120.021 390.303 131.162C396.665 106.893 388.723 71.2312 334.197 61.5871C330.547 60.9445 326.875 60.4388 323.187 60.071C319.852 59.7216 316.507 59.4656 313.157 59.3047L308.965 79.5486L294.747 83.9222L285.995 115.656L274.503 124.951L257.72 152.307C294.606 126.257 329.465 110.309 354.924 110.237C358.711 110.237 362.295 110.576 365.638 111.294Z" fill="white"/>
<path d="M450.944 271.176C370.371 271.176 281.856 333.955 212.364 333.955C191.735 333.955 185.514 326.299 185.514 326.299L182.505 330.973C182.505 330.973 97.3215 290.083 213.64 163.494C213.64 163.494 113.485 215.717 105.508 321.376L111.567 316.323C111.567 316.323 108.414 387.428 188.931 387.428C253.687 387.428 276.652 363.389 336.732 363.389C464.905 363.389 485.443 436.456 485.443 436.456C485.443 436.456 401.446 461.217 395.906 414.833C395.906 414.833 383.094 469.175 490.751 441.826C490.751 441.826 497.551 431.182 496.739 417.305C496.739 417.305 506.674 427.287 508.396 434.908C508.396 434.908 516.548 425.588 503.473 400.475C503.473 400.475 514.633 410.677 521.898 425.553L526.403 421.763C526.403 421.763 526.741 410.892 505.107 381.711L490.398 390.948C490.398 390.948 456.135 326.224 328.755 334.533C328.755 334.533 434.834 296.905 496.547 373.517L509.843 364.418C509.843 364.418 546.868 400.399 556.381 442.543L558.448 442.337L558.511 410.402L558.589 372.253L569.321 384.817C569.321 384.817 574.515 375.373 568.288 355.639C568.288 355.639 593.21 379.993 600.641 425.431L602.561 400.143C602.561 378.355 566.384 271.176 450.944 271.176ZM543.689 343.806L540.009 371.225L522.813 353.092L514.398 357.489C502.829 342.831 458.237 305.713 406.023 305.713C331.119 305.713 267.036 359.8 202.883 359.8C132.86 359.8 130.039 317.993 130.039 301.448C130.039 270.735 148.02 237.245 148.02 237.245C141.862 256.036 115.615 348.561 207.753 348.561C280.259 348.561 319.111 298.5 403.624 298.5C484.938 298.5 517.764 344.849 517.764 344.849L524.086 340.864L536.088 353.794L537.006 340.417L544.393 327.492C527.318 293.803 489.152 281.96 489.152 281.96C539.137 291.346 554.112 327.83 554.112 327.83L543.689 343.806Z" fill="white"/>
<path d="M264.117 413.036L257.008 431.867C299.217 430.403 341.912 421.789 381.491 408.022C338.087 387.879 270.991 410.613 264.117 413.036Z" fill="white"/>
<path d="M378.443 103.932C355.459 82.0616 301.124 99.9211 301.124 99.9211L299.67 105.761C354.368 85.3377 378.443 103.932 378.443 103.932Z" fill="#236093"/>
<path d="M276.324 133.349C344.335 95.3263 372.17 105.541 382.629 114.699C350.252 80.7231 281.986 124.676 281.986 124.676L276.325 133.351L276.324 133.349Z" fill="#C2C6C9"/>
</g>
<defs>
<clipPath id="clip0_2_15075">
<rect width="620.394" height="512" fill="white" transform="translate(0 0.800781)"/>
</clipPath>
</defs>
</svg>
