<svg width="512" height="512" viewBox="0 0 512 512" fill="none" xmlns="http://www.w3.org/2000/svg">
<g clip-path="url(#clip0_760_453)">
<path d="M511.877 256.061C511.877 397.412 397.289 512 255.939 512C114.588 512 0 397.412 0 256.061C0 114.711 114.588 0.122864 255.939 0.122864C397.289 0.122864 511.877 114.711 511.877 256.061Z" fill="white"/>
<path d="M160.922 493.644C157.723 464.531 159.962 436.698 166.36 409.824L191.954 299.451C187.795 286.015 184.596 270.658 184.596 255.302C184.596 219.471 201.872 193.877 229.065 193.877C247.94 193.877 261.698 206.994 261.698 232.267C261.698 240.266 260.097 249.223 256.899 259.46L245.701 296.252C243.462 303.29 242.502 310.008 242.502 315.768C242.502 341.362 262.018 355.758 286.971 355.758C331.44 355.758 363.113 309.689 363.113 249.863C363.113 183.32 319.604 140.768 255.299 140.768C183.636 140.768 138.207 187.478 138.207 252.423C138.207 278.657 146.205 302.97 161.881 319.607C156.762 328.244 151.324 329.844 143.006 329.844C117.412 329.844 93.0976 293.692 93.0976 244.425C93.0976 159.325 161.241 91.5022 256.899 91.5022C357.354 91.5022 420.379 161.565 420.379 247.943C420.379 334.962 358.954 400.228 292.73 400.228C266.495 400.228 243.462 389.03 227.465 368.874L214.349 421.983C207.31 449.495 196.753 475.408 179.797 500.362C203.792 507.722 227.465 511.88 255.939 511.88C397.345 511.88 511.877 397.348 511.877 255.942C511.877 114.536 397.345 0.00320435 255.939 0.00320435C114.533 0.00320435 0 114.536 0 255.942C0 363.117 65.9046 455.573 160.922 493.644Z" fill="#E71C26"/>
</g>
<defs>
<clipPath id="clip0_760_453">
<rect width="511.877" height="512" fill="white"/>
</clipPath>
</defs>
</svg>
