<svg width="409" height="513" viewBox="0 0 409 513" fill="none" xmlns="http://www.w3.org/2000/svg">
<g clip-path="url(#clip0_795_4623)">
<path d="M398.447 27.7057C397.542 27.4282 376.059 20.7429 341.542 14.0906C321.348 10.1733 300.75 7.06843 280.318 4.82899C255.368 2.0456 230.285 0.625392 205.181 0.574707H204.771C179.674 0.626899 154.597 2.0471 129.654 4.82899C109.235 7.06843 88.6374 10.1865 68.4295 14.0774C33.8998 20.7429 12.3972 27.4282 11.512 27.699L0.942383 31.0021C0.942383 49.2875 0.942383 260.773 0.942383 262.933C1.47255 274.254 2.66366 285.534 4.50963 296.716C6.25067 307.177 8.61097 317.524 11.5781 327.705C17.051 346.432 24.6768 364.461 34.3028 381.432C50.5272 410.069 72.4922 435.753 99.5902 457.784C110.56 466.683 122.123 474.825 134.199 482.154C144.18 488.221 154.488 493.735 165.076 498.669C181.908 506.484 196.699 511.438 202.611 512.277L204.989 512.575L207.334 512.277C213.24 511.438 228.051 506.484 244.876 498.669C255.461 493.738 265.765 488.225 275.74 482.154C287.822 474.829 299.39 466.687 310.362 457.784C337.447 435.753 359.412 410.069 375.643 381.432C385.247 364.456 392.859 346.427 398.328 327.705C401.288 317.523 403.644 307.176 405.383 296.716C407.232 285.524 408.423 274.232 408.95 262.9V30.9822L398.447 27.7057Z" fill="black"/>
<path d="M57.5493 365.379C71.7588 390.601 91.0352 413.293 114.837 432.833C157.617 467.977 199.348 480.588 204.157 481.256L204.936 481.394L205.703 481.256C210.525 480.595 252.255 467.991 295.042 432.833C318.824 413.293 338.12 390.601 352.33 365.379C369.882 334.239 379.685 299.207 381.496 261.255C381.608 258.732 381.496 52.9342 381.496 52.9342L378.754 52.0754C377.975 51.8375 299.918 27.8048 205.121 27.7388H204.745C109.961 27.8048 31.8849 51.8375 31.112 52.0754L28.3771 52.9342C28.3771 52.9342 28.2648 258.732 28.3771 261.262C30.1805 299.207 39.9905 334.239 57.5493 365.379ZM32.2812 55.7946C32.2812 55.7946 109.466 31.6958 204.745 31.6363H205.121C300.407 31.6958 377.598 55.7946 377.598 55.7946C377.598 60.1545 377.79 256.869 377.598 261.077C372.135 376.643 293.312 436.262 243.938 461.748L202.043 385.825C200.484 385.772 198.951 385.686 197.419 385.547C183.63 384.324 170.353 379.732 158.754 372.177C147.156 364.621 137.59 354.332 130.898 342.214C124.207 330.096 120.594 316.52 120.377 302.679C120.16 288.838 123.345 275.156 129.654 262.834C129.958 262.233 130.275 261.645 130.592 261.05C130.678 260.898 131.517 259.379 131.913 258.771L78.0412 161.24H73.5953L127.441 258.771C120.241 271.806 116.47 286.456 116.482 301.347C116.482 348.356 153.343 386.869 199.665 389.604L240.47 463.525C221.914 472.773 208.147 476.988 205.161 477.398H204.936H204.705C193.825 475.845 39.9905 424.166 32.2878 261.07C32.0698 256.869 32.2812 60.1545 32.2812 55.7946Z" fill="#003DA6"/>
<path d="M325.424 161.24H283.892L303.848 200.565L325.424 161.24Z" fill="#003DA6"/>
<path d="M109.942 161.24L163.669 258.6C172.797 249.788 184.511 244.136 197.089 242.474L153.225 161.22L109.942 161.24Z" fill="#003DA6"/>
<path d="M260.295 279.686L260.368 279.805L282.108 240.182L241.032 161.24H197.406L253.973 267.782L260.295 279.686Z" fill="#003DA6"/>
<path d="M303.842 200.572L282.108 240.208H356.901C356.901 231.178 356.901 218.409 356.901 200.572H303.842Z" fill="#003DA6"/>
<path d="M260.368 279.831C265.296 292.512 265.748 306.495 261.649 319.467H346.12C350.394 306.575 353.418 293.302 355.151 279.831H260.368Z" fill="#003DA6"/>
<path d="M240.668 398.7H296.159C308.151 386.799 318.658 373.49 327.452 359.064H218.835L240.668 398.7Z" fill="#003DA6"/>
<path d="M109.532 444.784C154.453 481.269 199.876 494.104 204.772 494.805H204.963H205.128C210.222 494.038 255.598 481.19 300.367 444.797C340.228 412.381 388.69 354.294 393.083 261.566C393.175 259.723 393.083 42.2919 393.083 42.2919C386.477 40.3101 304.278 16.1056 205.161 16.0396H204.758C105.668 16.1056 23.4626 40.2903 16.8433 42.2919C16.8433 42.2919 16.7773 260.231 16.8433 261.566C21.1967 354.275 69.6519 412.368 109.532 444.784ZM28.3774 52.9342L31.1123 52.0754C31.8918 51.8376 109.962 27.8049 204.745 27.7388H205.122C299.918 27.8049 377.975 51.8376 378.754 52.0754L381.496 52.9342C381.496 52.9342 381.608 258.732 381.496 261.255C379.686 299.207 369.883 334.239 352.33 365.379C338.121 390.601 318.831 413.293 295.043 432.833C286.062 440.205 276.63 447.009 266.802 453.206L215.136 359.698C214.476 359.817 213.815 359.903 213.155 360.015C210.42 360.394 207.664 360.588 204.904 360.597C193.584 360.6 182.501 357.359 172.967 351.258C163.432 345.157 155.846 336.452 151.106 326.173C146.366 315.894 144.671 304.472 146.222 293.259C147.773 282.046 152.505 271.513 159.857 262.907C160.214 262.491 160.571 262.055 160.947 261.632L105.509 161.24H92.7135L147.544 260.535C140.025 271.064 135.554 283.461 134.623 296.366C133.693 309.27 136.338 322.181 142.269 333.679C148.199 345.177 157.185 354.818 168.239 361.541C179.292 368.264 191.986 371.81 204.923 371.787C206.284 371.787 207.628 371.75 208.953 371.675L257.177 459C230.205 474.557 209.019 480.8 205.65 481.256L204.884 481.394L204.104 481.256C199.295 480.595 157.565 467.978 114.784 432.833C91.0026 413.293 71.7064 390.601 57.4968 365.379C39.938 334.239 30.128 299.207 28.3246 261.262C28.2651 258.732 28.3774 52.9342 28.3774 52.9342Z" fill="white"/>
<path d="M175.751 138.991H180.375V147.816C180.422 148.348 180.362 148.883 180.197 149.39C180.033 149.898 179.767 150.367 179.417 150.769C178.42 151.773 177.065 151.833 175.764 151.859H173.122V148.827H174.159C175.143 148.781 175.718 148.748 175.764 147.506L175.751 138.991Z" fill="white"/>
<path d="M194.961 139.288C196.17 139.778 197.201 140.625 197.916 141.715C198.631 142.806 198.997 144.088 198.965 145.392C198.976 146.624 198.649 147.835 198.02 148.893C197.631 149.564 197.115 150.152 196.501 150.624C194.75 152.018 192.676 152.335 190.344 152.335C185.852 152.335 184.015 150.756 183.077 149.455C182.238 148.347 181.802 146.986 181.842 145.597C181.817 144.162 182.237 142.754 183.044 141.567C184.848 139.011 187.9 138.595 190.185 138.555C191.815 138.497 193.441 138.753 194.975 139.308M186.592 145.458C186.592 147.44 187.668 149.501 190.456 149.501C191.098 149.531 191.737 149.404 192.319 149.131C193.739 148.424 194.235 146.746 194.235 145.458C194.235 144.045 193.607 141.448 190.456 141.429C187.556 141.382 186.592 143.681 186.592 145.458Z" fill="white"/>
<path d="M204.877 142.333C204.876 142.497 204.927 142.656 205.022 142.789C205.333 143.185 206.628 143.45 207.335 143.628C208.213 143.813 209.112 143.991 209.977 144.196C210.547 144.291 211.105 144.446 211.642 144.659C212.302 144.851 212.881 145.255 213.289 145.809C213.698 146.363 213.912 147.036 213.901 147.724C213.899 148.508 213.67 149.274 213.24 149.93C212.164 151.555 209.997 152.269 206.535 152.269C205.214 152.269 202.664 152.156 201.151 150.815C200.378 150.095 199.906 149.108 199.83 148.054L204.375 147.929C204.527 148.767 205.392 149.408 207.222 149.408C207.771 149.433 208.317 149.324 208.814 149.091C209.001 148.999 209.16 148.86 209.276 148.687C209.392 148.514 209.46 148.314 209.475 148.107C209.462 147.872 209.373 147.649 209.22 147.471C209.067 147.293 208.859 147.17 208.629 147.123C208.061 146.944 205.168 146.422 204.527 146.284C204.025 146.178 203.529 146.046 203.041 145.887C202.322 145.691 201.687 145.268 201.228 144.681C200.77 144.094 200.514 143.375 200.497 142.63C200.496 141.689 200.867 140.784 201.528 140.114C202.975 138.607 205.564 138.469 206.984 138.469C208.305 138.444 209.622 138.611 210.895 138.964C211.647 139.151 212.323 139.564 212.833 140.147C213.342 140.731 213.66 141.457 213.742 142.227L209.23 142.479C209.118 142.049 208.9 141.296 206.971 141.296C206.357 141.296 204.943 141.375 204.943 142.333" fill="white"/>
<path d="M228.824 139.011V141.911H219.873V144.005H228.15V146.925H219.86V148.966H229.009V151.879H215.262V139.011H228.824Z" fill="white"/>
<path d="M124.865 142.333C124.862 142.498 124.916 142.659 125.017 142.789C125.32 143.186 126.622 143.45 127.329 143.628C128.207 143.813 129.092 143.992 129.971 144.196C130.541 144.289 131.099 144.444 131.636 144.659C132.296 144.851 132.875 145.256 133.284 145.809C133.692 146.363 133.907 147.036 133.895 147.724C133.898 148.509 133.668 149.276 133.234 149.93C132.164 151.555 129.984 152.269 126.516 152.269C125.235 152.269 122.658 152.157 121.145 150.816C120.374 150.094 119.902 149.108 119.824 148.054L124.363 147.929C124.534 148.768 125.387 149.408 127.203 149.408C127.754 149.434 128.303 149.325 128.802 149.091C128.99 149.001 129.15 148.862 129.266 148.689C129.382 148.516 129.45 148.315 129.462 148.107C129.447 147.872 129.354 147.648 129.199 147.47C129.044 147.292 128.835 147.17 128.604 147.123C128.036 146.944 125.135 146.423 124.501 146.284C124.004 146.178 123.512 146.046 123.028 145.887C122.546 145.716 120.472 144.976 120.472 142.631C120.472 142.163 120.565 141.699 120.745 141.267C120.926 140.835 121.19 140.443 121.522 140.114C122.949 138.608 125.538 138.469 126.972 138.469C128.293 138.446 129.61 138.613 130.883 138.964C131.633 139.153 132.308 139.567 132.817 140.151C133.326 140.734 133.644 141.458 133.73 142.228L129.211 142.479C129.099 142.049 128.874 141.296 126.946 141.296C126.338 141.296 124.917 141.376 124.917 142.333" fill="white"/>
<path d="M160.432 139.011L160.531 146.046L154.295 139.011H150.47V149.693L151.428 151.879H155.034L154.962 144.784L161.145 151.879H164.97V139.011H160.432Z" fill="white"/>
<path d="M144.538 139.011H139.292L133.75 151.879H138.79L141.928 142.578L143.454 146.945H141.624L140.673 149.792H144.419L145.106 151.879H150.126L144.538 139.011Z" fill="white"/>
<path d="M110.767 143.476H52.958V147.354H110.767V143.476Z" fill="white"/>
<path d="M223.658 75.9629H237.53V129.128H226.683L223.658 119.88V75.9629ZM269.385 75.9629H253.187L237.722 101.522L254.429 129.128H270.627L253.913 101.522L269.385 75.9629Z" fill="white"/>
<path d="M208.444 129.121L206.218 122.337H190.674L194.321 111.252H202.571L196.434 92.3918L184.418 129.121H170.321L187.807 75.9956H205.141L222.627 129.121H208.444Z" fill="white"/>
<path d="M147.854 118.605C144.96 118.605 142.476 117.686 140.884 116.022C138.288 113.492 138.288 110.248 138.288 107.87V75.9893H124.217V106.337C124.376 112.283 124.534 118.466 129.932 123.718C134.747 128.342 140.224 130.39 147.682 130.39C156.157 130.39 160.788 127.747 165.056 123.698C171.602 117.468 171.602 108.953 171.602 102.242V75.9893H157.565V107.87C157.565 110.248 157.565 113.511 154.876 116.114C152.932 117.798 150.424 118.687 147.854 118.605Z" fill="white"/>
<path d="M112.195 117.792C114.713 114.568 116.639 110.922 117.882 107.024C119.027 103.432 119.61 99.6838 119.613 95.9131C119.654 91.3247 118.755 86.7764 116.971 82.5491C115.271 78.4669 112.805 74.7488 109.704 71.5963C106.553 68.4771 102.851 65.9705 98.7843 64.2041C94.5628 62.3588 90.001 61.4203 85.3939 61.4494C80.7808 61.4196 76.2111 62.3417 71.9704 64.1579C67.8829 65.9064 64.1657 68.4174 61.0176 71.5566C57.9141 74.7218 55.4472 78.4535 53.751 82.5491C50.2542 91.1244 50.2542 100.728 53.751 109.303C55.4454 113.371 57.9133 117.07 61.0176 120.197C64.1751 123.313 67.8906 125.807 71.9704 127.549C76.2091 129.372 80.7801 130.294 85.3939 130.258C87.9823 130.262 90.5632 129.981 93.0899 129.419C95.7462 128.805 98.3271 127.901 100.786 126.724L100.905 126.631L100.984 126.77L102.444 129.082H119.349L112.313 118.004L112.195 117.792ZM65.1596 95.8536C65.1396 93.1836 65.6481 90.5361 66.656 88.0636C67.6639 85.5911 69.1512 83.3426 71.0321 81.4475C72.913 79.5525 75.1504 78.0484 77.6153 77.0221C80.0802 75.9957 82.7238 75.4673 85.3939 75.4674C89.4387 75.454 93.3921 76.6704 96.7298 78.9554C96.8572 79.0321 96.9786 79.1182 97.0931 79.213L97.5159 79.5169C101.395 82.4913 104.092 86.7474 105.124 91.5257C106.156 96.304 105.457 101.294 103.151 105.604H87.3757L93.0503 114.39L93.189 114.615L93.0635 114.727L92.4954 114.952L92.2906 115.024L91.6828 115.236L91.3261 115.355C91.1609 115.407 90.9826 115.447 90.8042 115.5L90.3682 115.619L89.8595 115.738L89.3971 115.843C89.2055 115.883 89.014 115.923 88.8158 115.949C88.6176 115.976 88.5582 115.989 88.4194 116.009C88.1664 116.058 87.9104 116.091 87.6531 116.108H87.4351C86.7745 116.174 86.0545 116.213 85.3675 116.213C85.0107 116.213 84.6672 116.213 84.3171 116.213C79.1154 115.943 74.2191 113.674 70.6496 109.881C67.0802 106.087 65.1134 101.062 65.1596 95.8536Z" fill="white"/>
<path d="M336.74 95.5164C332.453 94.684 329.638 93.8186 329.638 90.8921C329.638 88.4347 331.818 87.0144 335.637 87.0144C336.958 87.0144 341.457 87.1597 344.951 88.9962C346.402 89.7976 347.645 90.9291 348.578 92.2992L357.608 84.0483C355.733 81.7656 353.425 79.8754 350.817 78.486C346.286 76.2113 341.267 75.0775 336.198 75.183C326.289 75.183 319.062 79.0542 316.274 85.7857C315.405 87.8797 314.956 90.1243 314.953 92.3917C314.953 102.578 322.378 105.941 327.974 107.506C328.674 107.678 330.253 108.015 332.076 108.398C335.445 109.105 339.64 109.984 340.796 110.433C343.438 111.358 343.802 113.161 343.802 114.159C343.802 118.241 337.856 118.565 335.987 118.565C333.589 118.56 331.21 118.147 328.951 117.343C327.182 116.776 325.564 115.819 324.215 114.542C323.585 113.909 323 113.234 322.464 112.52C322.418 112.461 322.319 112.302 322.16 112.071C322.002 111.84 321.804 111.47 321.804 111.47L311.895 118.016H287.499V107.05H306.445V95.9854H287.499V87.0937H310.23V75.989H273.666V129.128H312.423V121.24C315.476 124.944 319.562 127.656 324.162 129.029C327.821 130.123 331.626 130.649 335.445 130.588C343.676 130.588 349.892 128.335 353.909 123.902C356.75 120.717 358.273 116.57 358.17 112.302C358.143 99.4668 347.263 97.4585 336.74 95.5164Z" fill="white"/>
<path d="M356.941 143.476H298.147V147.354H356.941V143.476Z" fill="#CE0E2D"/>
<path d="M237.689 140.9C239.187 140.786 240.61 140.198 241.752 139.222H244.969V151.648H240.688V143.529H237.689V140.9Z" fill="#CE0E2D"/>
<path d="M253.431 147.46C250.399 147.46 247.869 146.257 247.869 143.456C247.876 142.669 248.117 141.902 248.562 141.253C249.007 140.603 249.635 140.101 250.366 139.81C251.878 139.265 253.475 138.994 255.083 139.01C259.39 139.01 262.178 140.787 262.178 145.121C262.178 146.502 261.927 148.933 259.793 150.551C258.181 151.753 256.192 151.925 254.376 151.925C253.175 151.951 251.978 151.786 250.828 151.436C248.847 150.822 248.186 149.739 247.862 148.517L252.652 148.404C252.865 148.686 253.147 148.909 253.471 149.05C253.795 149.191 254.15 149.246 254.501 149.21C255.257 149.243 256.001 149.009 256.602 148.55C256.96 148.23 257.244 147.837 257.435 147.396C257.625 146.956 257.718 146.479 257.705 146C257.045 146.548 256.074 147.44 253.431 147.44M252.269 143.232C252.269 144.738 254.283 144.758 254.805 144.758C256.622 144.758 257.56 144.262 257.56 143.258C257.56 142.049 256.536 141.646 254.686 141.706C253.715 141.739 252.269 141.917 252.269 143.232Z" fill="#CE0E2D"/>
<path d="M283.317 139.546H288.251V146.746H290.405V149.64H288.199V151.879H284.096V149.64H276.017V146.918L283.317 139.546ZM284.129 142.809L280.232 146.773H284.129V142.809Z" fill="#CE0E2D"/>
<path d="M277.206 141.911C269.385 147.103 269.642 151.879 269.642 151.879H264.754C264.754 151.879 265.078 145.405 272.965 141.911H263.578V138.991H277.206V141.911Z" fill="#CE0E2D"/>
<path d="M159.877 310.596C155.484 302.127 153.977 292.977 153.594 290.15C152.403 290.395 151.191 290.53 149.974 290.553C149.282 294.143 148.934 297.79 148.937 301.446C148.923 312.404 152.14 323.124 158.185 332.263L160.24 331.338C157.545 321.066 158.919 313.793 159.877 310.596Z" fill="#A6A8AB"/>
<path d="M161.033 333.162L159.097 333.591C164.829 341.779 172.651 348.28 181.749 352.418C181.353 351.758 180.375 349.848 178.981 345.614C175.81 344.22 165.776 339.457 161.033 333.162Z" fill="#333333"/>
<path d="M204.236 245.44L202.202 254.841C196.712 257.501 191.683 261.023 187.305 265.272C180.528 265.485 173.77 266.096 167.064 267.102C166.474 265.172 166.136 263.173 166.06 261.156C176.301 251.219 189.967 245.593 204.236 245.44ZM205.61 245.44L207.652 254.841C213.141 257.498 218.169 261.02 222.542 265.272C229.323 265.486 236.086 266.097 242.796 267.102C243.383 265.171 243.72 263.173 243.8 261.156C233.558 251.219 219.893 245.594 205.624 245.44H205.61Z" fill="white"/>
<path d="M229.246 309.307C226.604 317.023 219.813 328.821 218.228 331.536C213.657 332.427 209.011 332.869 204.355 332.858C200.071 332.89 195.798 332.447 191.612 331.536C190.04 328.828 183.216 317.003 180.6 309.307C183.103 305.542 189.412 296.538 196.309 289.965H213.551C220.434 296.538 226.763 305.542 229.246 309.307ZM185.019 270.206C179.035 269.128 172.972 268.546 166.892 268.469C160.339 276.654 155.827 286.629 154.73 289.179C156.217 298.592 160.676 307.048 161.535 308.594C164.587 308.871 167.751 309.003 170.955 309.003C175.302 309.003 178.466 308.759 179.635 308.653C182.747 300.698 186.416 292.972 190.614 285.532L185.019 270.206ZM243.013 268.469C236.914 268.542 230.831 269.118 224.827 270.193L219.238 285.499C223.44 292.948 227.109 300.686 230.218 308.653C231.387 308.759 234.551 309.003 238.898 309.003C242.115 309.003 245.279 308.871 248.331 308.594C249.223 307.035 253.676 298.572 255.149 289.132C254.039 286.543 249.6 276.654 243.013 268.469Z" fill="#C8C8C8"/>
<path d="M160.227 331.338L158.172 332.263C152.127 323.124 148.91 312.404 148.924 301.446C148.921 297.79 149.268 294.143 149.961 290.553C151.178 290.53 152.389 290.395 153.581 290.15C153.964 292.977 155.47 302.127 159.863 310.596C158.919 313.793 157.545 321.066 160.227 331.338ZM249.646 331.338L251.694 332.263C259.776 319.967 262.713 304.991 259.872 290.553C258.658 290.529 257.448 290.394 256.259 290.15C255.882 292.977 254.369 302.127 249.996 310.596C250.947 313.793 252.315 321.066 249.646 331.338Z" fill="#98989A"/>
<path d="M178.981 345.614C180.375 349.848 181.353 351.751 181.749 352.418C172.651 348.28 164.829 341.779 159.097 333.591L161.033 333.162C165.776 339.457 175.81 344.22 178.981 345.614ZM230.898 345.614C229.504 349.848 228.526 351.751 228.124 352.418C237.225 348.281 245.052 341.779 250.789 333.591L248.847 333.162C244.11 339.457 234.069 344.22 230.898 345.614Z" fill="#54565A"/>
<path d="M228.084 344.564C227.284 343.778 226.056 342.536 224.741 341.135C222.5 338.772 220.462 336.224 218.65 333.518C209.651 335.694 200.261 335.678 191.268 333.472C188.626 337.528 183.341 343.084 181.273 345.125C181.597 347.731 182.211 350.292 183.103 352.762C183.15 352.881 183.202 352.98 183.255 353.085C190.077 355.938 197.394 357.417 204.788 357.439C212.182 357.46 219.508 356.024 226.346 353.211C227.635 350.364 228.262 345.944 228.394 344.874L228.084 344.564Z" fill="#76777A"/>
</g>
<defs>
<clipPath id="clip0_795_4623">
<rect width="408.008" height="512" fill="white" transform="translate(0.942383 0.574707)"/>
</clipPath>
</defs>
</svg>
