<svg width="527" height="513" viewBox="0 0 527 513" fill="none" xmlns="http://www.w3.org/2000/svg">
<g clip-path="url(#clip0_820_258)">
<path d="M94.2696 0.0507812H432.801C483.447 0.0507812 526.097 40.8549 526.097 93.3467V418.755C526.097 469.401 485.292 512.051 432.801 512.051H94.2696C43.4182 511.846 0.973633 471.042 0.973633 418.755V93.1417C0.973633 40.8549 41.7778 0.0507812 94.2696 0.0507812Z" fill="#B30B00"/>
<path d="M419.678 295.936C395.072 269.69 328.022 281.172 311.823 282.813C288.858 259.848 272.659 233.807 266.098 223.964C274.3 199.359 280.861 171.678 280.861 145.432C280.861 120.826 271.019 96.4258 244.978 96.4258C235.136 96.4258 226.934 101.347 222.013 109.549C210.531 129.233 215.452 168.397 233.496 209.201C223.653 238.728 207.25 282.813 187.77 317.055C161.525 326.898 104.317 352.938 99.3956 382.465C97.7552 390.667 101.036 400.509 107.597 405.43C114.159 411.992 122.361 413.632 130.563 413.632C164.805 413.632 199.253 366.266 223.859 323.617C243.543 317.055 274.505 307.213 305.672 302.292C341.555 335.099 374.362 339.815 390.766 339.815C413.731 339.815 421.933 329.973 425.009 321.771C429.315 313.98 426.239 302.497 419.678 295.936ZM396.712 312.339C395.072 318.901 386.87 325.462 372.107 322.182C354.063 317.26 337.864 309.059 324.741 297.576C336.224 295.936 363.905 292.655 383.589 295.936C390.151 297.576 398.353 302.497 396.712 312.339ZM238.007 116.11C239.647 112.829 242.928 111.189 246.209 111.189C254.41 111.189 256.051 121.031 256.051 129.233C254.41 148.918 251.13 170.037 244.568 188.081C231.445 152.198 233.086 125.952 238.007 116.11ZM236.366 300.857C244.568 286.093 254.41 258.412 257.691 248.57C265.893 263.333 280.656 279.737 287.218 287.734C288.858 286.298 259.331 292.655 236.366 300.857ZM180.799 338.585C158.039 374.468 136.714 397.433 123.591 397.433C121.951 397.433 118.67 397.433 117.03 395.793C115.389 392.512 113.749 389.232 115.389 385.951C117.03 372.828 143.275 354.784 180.799 338.585Z" fill="white"/>
</g>
<defs>
<clipPath id="clip0_820_258">
<rect width="525.123" height="512" fill="white" transform="translate(0.973633 0.0507812)"/>
</clipPath>
</defs>
</svg>
