<svg width="1025" height="266" viewBox="0 0 1025 266" fill="none" xmlns="http://www.w3.org/2000/svg">
<g clip-path="url(#clip0_778_693)">
<path d="M1024.33 25.4871C1024.33 31.4604 1019.49 36.2485 1013.56 36.2485C1007.64 36.2485 1002.8 31.413 1002.8 25.4871C1002.8 19.5611 1007.64 14.7256 1013.56 14.7256C1019.49 14.7256 1024.33 19.5611 1024.33 25.4871ZM1013.56 16.4797C1008.59 16.4797 1004.6 20.5093 1004.6 25.4871C1004.6 30.4648 1008.63 34.4471 1013.56 34.4471C1018.49 34.4471 1022.57 30.4174 1022.57 25.4871C1022.57 20.5567 1018.54 16.4797 1013.56 16.4797ZM1018.21 23.1641C1018.21 24.776 1016.55 26.2456 1014.84 26.2456C1015.79 26.5774 1016.5 27.4308 1018.97 31.413H1016.65C1014.84 28.3315 1014.23 26.4826 1012.28 26.4826H1011.05V31.413H1009.2V19.7982H1013.9C1017.4 19.7982 1018.21 21.5523 1018.21 23.1641ZM1011.1 24.9182H1013.61C1015.22 24.9182 1016.22 24.4915 1016.22 23.1641C1016.22 21.8367 1015.18 21.41 1013.61 21.41H1011.1V24.9182ZM993.416 125.706H874.897V15.6263H991.377V35.3478H901.493V59.4782H963.264V79.2945H901.493V104.894H993.416V125.754V125.706ZM118.844 104.894H26.9208V79.2945H88.6926V59.4782H26.9208V35.3478H116.805V15.6263H0.325195V125.754H118.844V104.894ZM342.749 36.3908H395.75V15.6263H263.389V36.3908H316.059V125.754H342.749V36.3908ZM719.448 15.6263H789.753C832.752 15.6263 855.887 34.3997 855.887 70.5241C855.887 92.2841 846.073 106.838 830.097 116.652C818.956 123.668 803.407 125.754 782.927 125.754H719.448V15.6263ZM779.134 103.899C812.983 103.899 829.386 98.9211 829.386 70.05C829.386 46.3937 815.401 36.3908 790.227 36.3908H746.423V103.899H779.134ZM580.781 125.754H554.091L618.707 15.6263H645.019L710.725 125.754H680.669L666.921 103.852H594.15L580.829 125.754H580.781ZM605.528 82.9448H655.78L631.128 38.3819L605.528 82.9448ZM439.555 125.754H413.149V15.6263H502.038C526.784 15.6263 542.998 30.2752 542.998 51.656C542.998 69.0071 534.654 80.2426 518.251 84.7937L545.937 125.754H516.165L489.522 86.7374H439.602V125.754H439.555ZM439.555 65.5937H499.193C510.429 65.5937 516.924 60.0471 516.924 50.9448C516.924 42.6011 510.287 36.8174 499.099 36.8174H439.555V65.5937Z" fill="black"/>
<path d="M265.096 85.5046H218.589L241.819 125.754L216.171 140.545L196.355 106.269L216.93 70.6661L196.355 35.0632L216.171 0.787598L241.819 15.6261L218.589 55.8276H265.096V85.5046Z" fill="#0F8EC7"/>
<path d="M210.056 70.6661L169.712 0.787598L144.017 15.6261L167.247 55.8276H120.788V85.5046H167.247L144.017 125.754L169.712 140.545L210.056 70.6661Z" fill="#6633CC"/>
<path d="M976.443 237.161L976.301 237.872L976.159 237.161L964.212 202.838H957.386L972.983 247.116V247.448C972.035 251.668 969.38 256.882 966.962 258.494C964.829 259.964 962.506 260.106 960.752 260.106C959.898 260.106 958.097 259.822 957.338 259.632V264.942C958.286 265.179 960.562 265.605 961.984 265.605C965.303 265.605 968.052 264.752 970.423 263.045C973.22 261.007 976.396 255.697 977.913 251.099L993.463 202.743H986.636L976.491 237.066L976.443 237.161ZM952.692 226.447V222.228C952.692 214.927 950.796 209.522 947.193 206.204C944.112 203.359 939.798 201.985 934.061 201.985C931.075 201.985 928.372 202.506 926.049 203.596C923.726 204.639 921.64 206.156 920.029 208.195C916.852 212.13 915.098 218.008 915.098 225.119C915.098 233.036 917.326 239.057 921.451 243.087C925.812 247.306 931.359 248.207 935.246 248.207C945.249 248.207 950.132 242.755 952.218 237.777L946.624 235.075C945.249 238.109 942.215 242.66 935.294 242.66C931.312 242.66 928.04 241.096 925.717 238.109C923.489 235.217 922.304 231.188 922.304 226.399H952.74L952.692 226.447ZM945.913 220.9H922.494C923.11 211.75 926.855 207.484 934.251 207.484C942.215 207.484 945.866 211.75 945.913 220.9ZM546.553 208.669C543.092 204.26 538.162 201.937 532.283 201.937C526.405 201.937 521.474 204.26 518.014 208.669C514.79 212.793 513.036 218.625 513.036 225.025C513.036 231.425 514.79 237.256 518.014 241.38C521.474 245.789 526.405 248.112 532.283 248.112C538.162 248.112 543.092 245.789 546.553 241.38C549.777 237.256 551.578 231.425 551.578 225.025C551.578 218.625 549.777 212.746 546.553 208.669ZM532.283 242.66C524.793 242.66 520.337 236.07 520.337 225.072C520.337 214.073 524.793 207.484 532.283 207.484C539.774 207.484 544.23 214.073 544.23 225.072C544.23 236.07 539.774 242.66 532.283 242.66ZM546.553 208.669C543.092 204.26 538.162 201.937 532.283 201.937C526.405 201.937 521.474 204.26 518.014 208.669C514.79 212.793 513.036 218.625 513.036 225.025C513.036 231.425 514.79 237.256 518.014 241.38C521.474 245.789 526.405 248.112 532.283 248.112C538.162 248.112 543.092 245.789 546.553 241.38C549.777 237.256 551.578 231.425 551.578 225.025C551.578 218.625 549.777 212.746 546.553 208.669ZM532.283 242.66C524.793 242.66 520.337 236.07 520.337 225.072C520.337 214.073 524.793 207.484 532.283 207.484C539.774 207.484 544.23 214.073 544.23 225.072C544.23 236.07 539.774 242.66 532.283 242.66ZM567.128 222.275C568.835 213.125 573.67 208.764 581.966 208.764V202.222C574.903 202.222 570.778 204.971 567.128 211.466V202.933H560.159V247.496H567.128V222.275ZM737.795 201.463C737.795 198.524 738.79 196.153 740.639 194.589C742.535 192.977 745.237 192.124 748.746 192.124C752.396 192.124 755.667 193.167 758.132 195.158C760.408 196.959 762.067 199.614 762.826 202.648L769.32 201.842C766.476 192.124 759.507 186.198 748.888 186.198C743.626 186.198 738.885 187.81 735.519 190.796C732.248 193.688 730.446 197.67 730.446 201.985C730.446 206.725 732.39 210.47 736.42 213.41C739.975 215.97 744.621 217.629 749.125 219.241C756.947 222.038 764.343 224.645 764.343 231.709C764.343 234.885 763.252 237.493 761.261 239.389C759.033 241.428 755.715 242.423 751.495 242.423C744.052 242.423 738.648 238.251 735.614 230.239L728.977 232.041C730.399 235.312 732.864 240.005 736.372 243.182C740.26 246.69 745.095 248.349 751.163 248.349C758.322 248.349 763.774 246.453 767.329 242.755C771.027 238.915 771.786 233.985 771.786 230.524C771.786 225.593 769.747 221.706 765.528 218.719C761.83 216.065 757.042 214.453 752.396 212.841C744.858 210.281 737.7 207.816 737.795 201.463ZM782.832 208.337H776.147V202.79H782.832V188.189H789.8V202.79H797.291V208.337H789.8V238.773C789.8 240.811 790.275 242.66 794.968 242.66C795.774 242.66 796.532 242.66 797.291 242.565V247.496C797.291 247.496 794.636 248.159 792.692 248.159C789.563 248.159 787.193 247.685 785.581 246.595C784.112 245.599 782.832 243.988 782.832 241.238V208.29V208.337ZM903.057 238.773C903.057 240.811 903.72 242.66 908.366 242.66C909.125 242.66 909.931 242.66 910.737 242.565V247.496C910.737 247.496 908.082 248.159 906.091 248.159C902.962 248.159 900.544 247.685 898.98 246.595C897.51 245.599 896.088 243.988 896.088 241.238V185.534H903.057V238.725V238.773ZM683.466 214.453C685.836 211.893 691.098 207.673 695.934 207.673C700.769 207.673 702.95 210.044 702.95 215.401V247.543H709.919V215.211C709.919 205.54 703.045 202.127 696.55 202.127C691.999 202.127 687.4 204.497 683.466 208.953V202.98H676.497V247.543H683.466V214.453ZM657.866 241.996C658.055 244.462 658.909 245.884 660.9 246.927C662.749 247.922 665.735 247.685 667.015 247.353V242.613C665.451 242.518 664.455 241.807 664.455 239.91V215.543C664.455 211.087 662.654 207.484 659.335 205.161C656.586 203.217 652.793 202.127 648.669 202.127C638.76 202.127 634.067 208.005 632.076 211.656L637.717 214.595C638.523 212.509 641.273 207.626 648.763 207.626C654.689 207.626 657.676 210.281 657.676 215.448V217.06C657.676 217.06 657.676 217.534 657.534 217.724C657.297 218.008 656.728 218.198 655.211 218.388C646.915 219.288 641.368 220.71 637.338 223.318C632.929 226.162 630.18 230.097 630.18 235.549C630.18 239.389 632.076 242.708 634.541 245.03C636.817 247.211 639.993 248.302 643.454 248.396C650.755 248.633 655.59 245.599 657.96 242.044L657.866 241.996ZM657.866 234.553C657.534 238.441 650.28 243.182 644.355 242.85C641.083 242.66 637.86 240.053 637.528 235.739C637.006 228.533 642.506 225.451 654.642 224.124C655.495 224.029 657.06 223.745 657.866 223.27V234.553ZM831.851 241.996C832.04 244.462 832.941 245.884 834.837 246.927C836.686 247.922 839.673 247.685 840.953 247.353V242.613C839.389 242.518 838.393 241.807 838.393 239.91V215.543C838.393 211.087 836.592 207.484 833.273 205.161C830.523 203.217 826.731 202.127 822.606 202.127C812.698 202.127 808.005 208.005 806.014 211.656L811.655 214.595C812.461 212.509 815.211 207.626 822.701 207.626C828.627 207.626 831.614 210.281 831.614 215.448V217.06C831.614 217.06 831.614 217.534 831.472 217.724C831.235 218.008 830.666 218.198 829.149 218.388C820.852 219.288 815.306 220.71 811.276 223.318C806.867 226.162 804.118 230.097 804.118 235.549C804.118 239.389 806.014 242.708 808.479 245.03C810.755 247.211 813.931 248.302 817.392 248.396C824.692 248.633 829.575 245.599 831.898 242.044L831.851 241.996ZM831.851 234.553C831.519 238.441 824.266 243.182 818.34 242.85C815.069 242.66 811.845 240.053 811.513 235.739C810.992 228.533 816.491 225.451 828.627 224.124C829.48 224.029 831.045 223.745 831.898 223.27V234.553H831.851ZM477.717 235.596L462.926 187.051H451.312V247.496H458.28V192.219L458.423 192.408L475.015 247.496H480.42L497.012 192.408L497.155 192.219V247.496H504.123V187.051H492.509L477.765 235.596V235.833L477.67 235.596H477.717ZM857.451 214.453C859.821 211.893 865.083 207.673 869.966 207.673C874.849 207.673 876.983 210.044 876.983 215.401V247.543H883.952V215.211C883.952 205.54 877.078 202.127 870.583 202.127C866.032 202.127 861.433 204.497 857.498 208.953V202.98H850.529V247.543H857.498V214.453H857.451ZM616.384 202.933L614.915 207.626C612.355 204.308 608.989 202.079 603.726 202.079C595.857 202.079 584.763 207.389 584.763 225.119C584.763 242.85 595.904 248.159 603.395 248.159C607.803 248.159 611.786 245.742 614.488 242.281L614.82 242.091V250.577C614.82 256.503 609.7 260.153 604.2 260.153C598.701 260.153 594.103 259.158 590.263 257.309V263.33C593.486 264.705 598.796 265.653 603.347 265.653C615.72 265.653 621.599 258.826 621.599 248.965V202.885H616.384V202.933ZM614.82 234.553C613.018 239.673 607.898 242.66 604.2 242.66C597.042 242.66 592.017 238.204 592.017 224.788C592.017 213.505 596.52 207.579 604.2 207.579C608.135 207.579 611.549 209.285 614.82 213.315V234.506V234.553Z" fill="black"/>
<path d="M270.073 247.496V208.385H263.389V202.838H270.073V198.619C270.073 190.465 273.249 186.34 281.735 186.34C283.11 186.34 284.532 186.435 286.002 186.672V192.551C284.959 192.314 283.726 192.124 282.636 192.124C278.986 192.124 276.995 193.262 276.995 198.05V202.838H285.718V208.385H276.995V247.496H270.073Z" fill="black"/>
<path d="M351.946 208.717C348.485 204.308 343.555 201.985 337.676 201.985C331.798 201.985 326.867 204.308 323.407 208.717C320.183 212.841 318.429 218.672 318.429 225.072C318.429 231.472 320.183 237.303 323.407 241.428C326.867 245.837 331.798 248.16 337.676 248.16C343.555 248.16 348.485 245.837 351.946 241.428C355.169 237.303 356.971 231.472 356.971 225.072C356.971 218.672 355.169 212.794 351.946 208.717ZM337.676 242.708C330.186 242.708 325.729 236.118 325.729 225.12C325.729 214.121 330.186 207.532 337.676 207.532C345.167 207.532 349.623 214.121 349.623 225.12C349.623 236.118 345.167 242.708 337.676 242.708Z" fill="black"/>
<path d="M412.058 202.127C407.507 202.127 402.909 204.497 398.974 208.954L398.073 209.902C396.035 204.308 390.725 202.127 385.605 202.127C381.054 202.127 376.455 204.497 372.521 208.954V202.98H365.552V247.543H372.521V214.453C374.891 211.893 380.153 207.674 384.989 207.674C389.824 207.674 392.005 210.044 392.005 215.401V247.543H398.974V215.211C398.974 215.211 398.974 215.022 398.974 214.927V214.453C401.344 211.893 406.607 207.674 411.442 207.674C416.278 207.674 418.458 210.044 418.458 215.401V247.543H425.427V215.211C425.427 205.54 418.553 202.127 412.058 202.127Z" fill="black"/>
<path d="M300.793 222.275C302.5 213.125 307.335 208.764 315.632 208.764V202.222C308.568 202.222 304.443 204.971 300.793 211.466V202.933H293.824V247.496H300.793V222.275Z" fill="black"/>
</g>
<defs>
<clipPath id="clip0_778_693">
<rect width="1024" height="264.865" fill="white" transform="translate(0.325195 0.787598)"/>
</clipPath>
</defs>
</svg>
