<svg width="1024" height="295" viewBox="0 0 1024 295" fill="none" xmlns="http://www.w3.org/2000/svg">
<g clip-path="url(#clip0_806_271)">
<path d="M684.294 86.099C666.294 86.099 644.786 92.5057 624.193 114.776C603.6 92.5057 581.939 86.099 564.092 86.099C564.092 86.099 495.297 80.9126 495.297 161.301V291.417H545.177V168.623C545.177 132.624 569.279 131.861 574.007 132.929C574.007 132.929 582.702 133.386 590.634 141.623C590.634 141.623 574.77 162.369 573.55 188.453C573.55 188.453 570.041 256.028 624.193 256.028C678.345 256.028 674.836 188.453 674.836 188.453C673.616 162.369 657.752 141.623 657.752 141.623C665.684 133.386 674.379 132.929 674.379 132.929C678.955 131.861 703.209 132.624 703.209 168.623V291.417H753.089V161.301C752.937 80.9126 684.294 86.099 684.294 86.099ZM624.041 219.419C613.363 219.419 609.854 205.995 609.702 193.182C609.397 170.911 623.888 154.894 624.041 154.589C624.346 154.894 638.684 170.911 638.379 193.182C638.379 205.995 634.718 219.419 624.041 219.419Z" fill="#1EC677"/>
<path d="M467.23 89.4551H417.349V291.57H467.23V89.4551Z" fill="#1EC677"/>
<path d="M442.366 1.89746C425.739 1.89746 412.01 15.321 412.01 31.7953C412.01 48.4221 425.586 62.1507 442.366 62.1507C458.84 62.1507 472.263 48.5747 472.263 31.7953C472.263 15.626 458.687 1.89746 442.366 1.89746Z" fill="#1EC677"/>
<path d="M259.47 103.031V0.524414H210.047V291.57H259.47V145.895C341.384 106.082 338.333 169.081 338.333 169.081V291.57H387.909V169.081C387.756 50.71 284.334 89.7602 259.47 103.031Z" fill="#1EC677"/>
<path d="M821.58 200.352C848.122 209.657 881.833 208.894 881.833 208.894C961.764 208.436 959.476 150.319 959.476 150.319C957.493 84.8789 880.613 86.0992 880.613 86.0992C817.003 86.0992 772.462 129.726 772.462 192.115C772.462 254.503 816.088 294.774 883.511 294.774C912.188 294.774 939.493 286.842 958.56 272.961V224.911C938.578 242.148 914.629 251.3 889.307 251.3C889.46 251.3 820.207 254.808 821.58 200.352ZM827.681 157.793C836.071 136.59 853.46 125.455 878.172 125.455C898.46 125.455 910.205 133.997 910.205 147.573C910.205 166.64 888.697 168.318 868.562 168.318C848.732 168.318 836.529 166.183 831.037 164.81L825.698 163.59L827.681 157.793Z" fill="#1EC677"/>
<path d="M107.693 294.774C142.777 294.774 167.641 281.503 182.438 270.368V222.012C160.624 239.249 134.998 249.165 112.269 249.165C75.9648 249.165 50.4907 224.148 50.4907 188.149C50.4907 153.98 73.6767 130.184 106.778 130.184C117.608 130.184 126.913 132.929 136.828 135.675C147.048 138.573 157.726 141.777 170.387 141.777C174.353 141.777 178.319 141.472 182.285 140.861V94.7944C178.929 95.0995 175.726 95.4045 172.37 95.4045C160.93 95.4045 150.557 93.269 139.726 90.9809C128.286 88.5402 116.54 86.0996 102.659 86.0996C75.0496 86.0996 49.4229 95.8622 30.6605 113.862C10.6778 132.929 0 159.471 0 190.437C0 251.91 44.2366 294.774 107.693 294.774Z" fill="#1EC677"/>
<path d="M1018.22 110.818C1018.22 107.803 1017.74 105.033 1016.76 102.505C1015.78 99.9783 1014.43 97.8058 1012.7 95.9881C1010.97 94.1705 1008.96 92.7738 1006.65 91.7985C1004.35 90.7787 1001.86 90.269 999.203 90.269C996.499 90.269 993.971 90.7787 991.622 91.7985C989.316 92.7738 987.299 94.1705 985.569 95.9881C983.841 97.8058 982.488 99.9783 981.513 102.505C980.537 105.033 980.05 107.803 980.05 110.818C980.05 113.656 980.493 116.316 981.38 118.798C982.267 121.281 983.53 123.454 985.171 125.316C986.855 127.178 988.873 128.663 991.222 129.771C993.571 130.835 996.232 131.367 999.203 131.367C1001.86 131.367 1004.35 130.88 1006.65 129.904C1008.96 128.885 1010.97 127.466 1012.7 125.648C1014.43 123.83 1015.78 121.68 1016.76 119.198C1017.74 116.67 1018.22 113.877 1018.22 110.818ZM1023.54 110.818C1023.54 114.542 1022.88 117.934 1021.55 120.993C1020.26 124.052 1018.49 126.668 1016.23 128.84C1014.01 131.013 1011.42 132.697 1008.45 133.894C1005.52 135.092 1002.44 135.69 999.203 135.69C995.611 135.69 992.308 135.069 989.294 133.828C986.323 132.542 983.752 130.791 981.579 128.574C979.451 126.358 977.767 123.742 976.525 120.727C975.328 117.668 974.73 114.365 974.73 110.818C974.73 107.094 975.372 103.702 976.658 100.643C977.988 97.5842 979.762 94.9684 981.978 92.7961C984.239 90.6236 986.855 88.939 989.825 87.7418C992.797 86.5449 995.922 85.9463 999.203 85.9463C1002.44 85.9463 1005.52 86.5449 1008.45 87.7418C1011.42 88.939 1014.01 90.6236 1016.23 92.7961C1018.49 94.9684 1020.26 97.5842 1021.55 100.643C1022.88 103.702 1023.54 107.094 1023.54 110.818ZM999.336 109.422C1000.18 109.422 1000.98 109.399 1001.73 109.355C1002.53 109.266 1003.22 109.067 1003.79 108.757C1004.37 108.446 1004.83 108.025 1005.19 107.493C1005.54 106.917 1005.72 106.119 1005.72 105.099C1005.72 104.257 1005.52 103.592 1005.12 103.104C1004.77 102.616 1004.3 102.239 1003.72 101.973C1003.15 101.707 1002.51 101.552 1001.8 101.508C1001.09 101.419 1000.4 101.375 999.734 101.375H994.281V109.422H999.336ZM994.281 125.05H989.76V97.5177H1000.2C1003.52 97.5177 1006.03 98.1383 1007.71 99.3797C1009.4 100.621 1010.24 102.638 1010.24 105.431C1010.24 107.914 1009.55 109.732 1008.18 110.885C1006.81 112.037 1005.1 112.725 1003.06 112.946L1010.77 125.05H1005.65L998.538 113.279H994.281V125.05Z" fill="#1EC677"/>
<path fill-rule="evenodd" clip-rule="evenodd" d="M1006.47 92.2175C1004.22 91.2251 1001.8 90.727 999.203 90.727C996.557 90.727 994.093 91.2254 991.803 92.2189L991.799 92.2205C989.552 93.1713 987.587 94.5317 985.902 96.304C984.216 98.075 982.895 100.195 981.94 102.671C980.987 105.14 980.508 107.854 980.508 110.819C980.508 113.608 980.943 116.215 981.811 118.645C982.678 121.076 983.912 123.196 985.511 125.011C987.154 126.825 989.119 128.273 991.414 129.357C993.695 130.389 996.288 130.91 999.203 130.91C1001.8 130.91 1004.22 130.434 1006.47 129.485C1008.72 128.489 1010.68 127.106 1012.37 125.333C1014.06 123.561 1015.38 121.463 1016.33 119.032C1017.29 116.564 1017.76 113.828 1017.76 110.819C1017.76 107.854 1017.29 105.14 1016.33 102.671C1015.38 100.195 1014.06 98.075 1012.37 96.304C1010.68 94.5317 1008.72 93.1713 1006.47 92.2205L1006.47 92.2175ZM1006.65 129.905C1004.35 130.88 1001.86 131.368 999.203 131.368C996.232 131.368 993.571 130.836 991.222 129.772C988.873 128.664 986.855 127.178 985.171 125.316C983.53 123.454 982.267 121.282 981.38 118.799C980.493 116.316 980.05 113.656 980.05 110.819C980.05 107.804 980.537 105.033 981.513 102.506C982.488 99.9789 983.841 97.8064 985.569 95.9887C987.299 94.1711 989.315 92.7744 991.622 91.7991C993.971 90.7793 996.499 90.2696 999.203 90.2696C1001.86 90.2696 1004.35 90.7793 1006.65 91.7991C1008.96 92.7744 1010.97 94.1711 1012.7 95.9887C1014.43 97.8064 1015.78 99.9789 1016.76 102.506C1017.74 105.033 1018.22 107.804 1018.22 110.819C1018.22 113.878 1017.74 116.671 1016.76 119.198C1015.78 121.681 1014.43 123.831 1012.7 125.649C1010.97 127.467 1008.96 128.885 1006.65 129.905ZM989.111 134.248C986.089 132.94 983.469 131.156 981.252 128.895L981.249 128.892C979.078 126.631 977.364 123.966 976.102 120.902L976.099 120.894C974.879 117.778 974.272 114.418 974.272 110.819C974.272 107.041 974.925 103.588 976.237 100.467L976.238 100.461C977.59 97.3523 979.396 94.6863 981.658 92.4698L981.661 92.4666C983.966 90.2528 986.631 88.5364 989.654 87.3179C992.68 86.0983 995.864 85.4893 999.203 85.4893C1002.5 85.4893 1005.64 86.0987 1008.62 87.3184C1011.64 88.5369 1014.28 90.2534 1016.55 92.4681C1018.85 94.6853 1020.66 97.3526 1021.97 100.464C1023.33 103.586 1024 107.04 1024 110.819C1024 114.597 1023.33 118.051 1021.97 121.173C1020.66 124.285 1018.85 126.952 1016.55 129.169C1014.28 131.384 1011.64 133.101 1008.62 134.319C1005.64 135.539 1002.5 136.148 999.203 136.148C995.557 136.148 992.195 135.518 989.119 134.252L989.111 134.248ZM1008.45 133.895C1011.42 132.698 1014.01 131.013 1016.23 128.841C1018.49 126.668 1020.26 124.053 1021.55 120.994C1022.88 117.934 1023.54 114.543 1023.54 110.819C1023.54 107.095 1022.88 103.703 1021.55 100.644C1020.26 97.5848 1018.49 94.969 1016.23 92.7967C1014.01 90.6242 1011.42 88.9396 1008.45 87.7424C1005.52 86.5454 1002.44 85.9469 999.203 85.9469C995.922 85.9469 992.796 86.5454 989.825 87.7424C986.855 88.9396 984.239 90.6242 981.978 92.7967C979.762 94.969 977.988 97.5848 976.658 100.644C975.372 103.703 974.73 107.095 974.73 110.819C974.73 114.366 975.328 117.668 976.525 120.728C977.767 123.742 979.451 126.358 981.579 128.575C983.752 130.792 986.323 132.543 989.294 133.829C992.308 135.07 995.611 135.691 999.203 135.691C1002.44 135.691 1005.52 135.092 1008.45 133.895ZM1004.76 103.384L1004.75 103.374C1004.44 102.952 1004.04 102.624 1003.53 102.389C1003.01 102.15 1002.43 102.006 1001.77 101.965L1001.75 101.964L1001.74 101.962C1001.05 101.876 1000.38 101.833 999.734 101.833H994.738V108.965H999.336C1000.17 108.965 1000.95 108.943 1001.69 108.9C1002.44 108.815 1003.06 108.63 1003.57 108.354C1004.08 108.08 1004.49 107.712 1004.8 107.247C1005.09 106.77 1005.26 106.07 1005.26 105.099C1005.26 104.327 1005.08 103.776 1004.77 103.394L1004.76 103.384ZM1005.19 107.494C1004.83 108.026 1004.37 108.447 1003.79 108.757C1003.21 109.067 1002.53 109.267 1001.73 109.356C1000.98 109.4 1000.18 109.422 999.336 109.422H994.281V101.375H999.734C1000.4 101.375 1001.09 101.42 1001.8 101.508C1002.51 101.553 1003.15 101.708 1003.72 101.974C1004.3 102.24 1004.77 102.617 1005.12 103.105C1005.52 103.592 1005.72 104.257 1005.72 105.1C1005.72 106.119 1005.54 106.917 1005.19 107.494ZM994.738 125.508H989.302V97.0606H1000.2C1003.57 97.0606 1006.19 97.6874 1007.99 99.0119C1009.82 100.367 1010.7 102.546 1010.7 105.432C1010.7 107.996 1009.99 109.966 1008.47 111.236C1007.19 112.314 1005.64 113 1003.83 113.303L1011.61 125.508H1005.39L998.279 113.737H994.738V125.508ZM994.281 113.279H998.538L1005.65 125.05H1010.77L1003.06 112.947C1003.23 112.928 1003.4 112.907 1003.56 112.882C1005.38 112.608 1006.92 111.942 1008.18 110.885C1009.55 109.733 1010.24 107.915 1010.24 105.432C1010.24 102.639 1009.4 100.622 1007.71 99.3803C1006.03 98.1389 1003.52 97.5182 1000.2 97.5182H989.759V125.05H994.281V113.279Z" fill="#1EC677"/>
</g>
<defs>
<clipPath id="clip0_806_271">
<rect width="1024" height="294.249" fill="white" transform="translate(0 0.524414)"/>
</clipPath>
</defs>
</svg>
