<svg width="513" height="512" viewBox="0 0 513 512" fill="none" xmlns="http://www.w3.org/2000/svg">
<g clip-path="url(#clip0_731_68)">
<path d="M510.897 276.708V0.22757H0.0349121V511.09H510.897V362.041C509.759 362.041 510.897 276.708 510.897 276.708Z" fill="#006FCF"/>
<path d="M448.319 248.263H487.004V158.379H444.906V170.894L436.942 158.379H400.533V174.308L393.706 158.379H326.577C324.302 158.379 322.026 159.516 319.75 159.516C317.475 159.516 316.337 160.654 314.062 161.792C311.786 162.93 310.648 162.93 308.373 164.068V158.379H116.088L110.399 173.17L104.71 158.379H59.1994V174.308L52.3727 158.379H15.9638L0.0349121 197.063V248.263H26.2038L30.7549 235.748H39.8571L44.4082 248.263H244.657V236.885L252.622 248.263H308.373V241.436C309.51 242.574 311.786 242.574 312.924 243.712C314.062 244.85 316.337 244.85 317.475 245.988C319.75 247.125 322.026 247.125 324.302 247.125H365.262L369.813 234.61H378.915L383.466 247.125H439.217V235.748L448.319 248.263ZM510.897 362.041V277.845H198.008L190.044 289.223L182.079 277.845H91.0571V367.73H182.079L190.044 356.352L198.008 367.73H254.897V348.388H252.622C260.586 348.388 267.413 347.25 273.102 344.974V368.868H314.062V357.49L322.026 368.868H491.555C498.382 366.592 505.208 365.454 510.897 362.041Z" fill="white"/>
<path d="M491.555 340.423H460.835V352.939H490.417C502.933 352.939 510.897 344.974 510.897 333.596C510.897 322.219 504.07 316.53 492.693 316.53H479.039C475.626 316.53 473.35 314.254 473.35 310.841C473.35 307.428 475.626 305.152 479.039 305.152H505.208L510.897 292.636H480.177C467.662 292.636 459.697 300.601 459.697 310.841C459.697 322.219 466.524 327.908 477.902 327.908H491.555C494.968 327.908 497.244 330.183 497.244 333.596C498.382 338.148 496.106 340.423 491.555 340.423ZM435.804 340.423H405.084V352.939H434.666C447.182 352.939 455.146 344.974 455.146 333.596C455.146 322.219 448.319 316.53 436.942 316.53H423.288C419.875 316.53 417.599 314.254 417.599 310.841C417.599 307.428 419.875 305.152 423.288 305.152H449.457L455.146 292.636H424.426C411.91 292.636 403.946 300.601 403.946 310.841C403.946 322.219 410.773 327.908 422.15 327.908H435.804C439.217 327.908 441.493 330.183 441.493 333.596C442.63 338.148 439.217 340.423 435.804 340.423ZM395.982 304.014V291.499H348.195V351.801H395.982V339.285H361.848V326.77H394.844V314.254H361.848V302.876H395.982V304.014ZM318.613 304.014C324.302 304.014 326.577 307.428 326.577 310.841C326.577 314.254 324.302 317.668 318.613 317.668H301.546V302.876L318.613 304.014ZM301.546 330.183H308.373L326.577 351.801H343.644L323.164 329.045C333.404 326.77 339.093 319.943 339.093 310.841C339.093 299.463 331.128 291.499 318.613 291.499H286.755V351.801H300.408L301.546 330.183ZM265.137 311.979C265.137 316.53 262.862 319.943 257.173 319.943H238.968V304.014H256.035C261.724 304.014 265.137 307.428 265.137 311.979ZM225.315 291.499V351.801H238.968V331.321H257.173C269.688 331.321 278.79 323.356 278.79 310.841C278.79 299.463 270.826 290.361 258.31 290.361L225.315 291.499ZM204.835 351.801H221.902L198.008 321.081L221.902 291.499H204.835L190.044 310.841L175.253 291.499H158.186L182.079 321.081L158.186 350.663H175.253L190.044 331.321L204.835 351.801ZM153.635 304.014V291.499H105.848V351.801H153.635V339.285H119.502V326.77H152.497V314.254H119.502V302.876H153.635V304.014ZM430.115 197.063L454.008 233.472H471.075V173.17H457.422V212.992L454.008 207.303L432.39 173.17H414.186V233.472H427.839V192.512L430.115 197.063ZM370.95 195.925L375.502 183.41L380.053 195.925L385.742 209.579H365.262L370.95 195.925ZM394.844 233.472H409.635L383.466 173.17H365.262L339.093 233.472H353.884L359.573 220.956H389.155L394.844 233.472ZM331.128 233.472L336.817 220.956H333.404C323.164 220.956 317.475 214.13 317.475 203.89V202.752C317.475 192.512 323.164 185.685 333.404 185.685H348.195V173.17H332.266C314.062 173.17 303.822 185.685 303.822 202.752V203.89C303.822 222.094 314.062 233.472 331.128 233.472ZM279.928 233.472H293.582V174.308H279.928V233.472ZM250.346 185.685C256.035 185.685 258.31 189.099 258.31 192.512C258.31 195.925 256.035 199.339 250.346 199.339H233.279V184.548L250.346 185.685ZM233.279 211.854H240.106L258.31 233.472H275.377L254.897 210.716C265.137 208.441 270.826 201.614 270.826 192.512C270.826 181.134 262.862 173.17 250.346 173.17H218.488V233.472H232.142L233.279 211.854ZM208.248 185.685V173.17H160.462V233.472H208.248V220.956H174.115V208.441H207.11V195.925H174.115V184.548H208.248V185.685ZM104.71 233.472H117.226L134.293 184.548V233.472H147.946V173.17H125.19L111.537 214.13L97.8838 173.17H75.1282V233.472H88.7816V184.548L104.71 233.472ZM30.7549 195.925L35.306 183.41L39.8571 195.925L45.546 209.579H25.066L30.7549 195.925ZM54.6482 233.472H69.4394L43.2705 173.17H26.2038L0.0349121 233.472H14.826L20.5149 220.956H50.0971L54.6482 233.472Z" fill="#006FCF"/>
</g>
<defs>
<clipPath id="clip0_731_68">
<rect width="512" height="512" fill="white" transform="translate(0.0349121)"/>
</clipPath>
</defs>
</svg>
