<svg width="513" height="513" viewBox="0 0 513 513" fill="none" xmlns="http://www.w3.org/2000/svg">
<g clip-path="url(#clip0_2_14686)">
<path d="M510.989 160.516C510.989 154.418 510.991 148.321 510.955 142.222C510.923 137.085 510.864 131.949 510.725 126.814C510.423 115.628 509.763 104.344 507.776 93.2828C505.758 82.05 502.463 71.5958 497.268 61.3913C492.165 51.3669 485.499 42.1963 477.545 34.2425C469.592 26.2888 460.418 19.6214 450.392 14.517C440.194 9.32472 429.744 6.03147 418.518 4.01325C407.453 2.0234 396.164 1.36532 384.974 1.0618C379.839 0.922811 374.703 0.863244 369.566 0.832041C363.469 0.798003 357.37 0.800839 351.272 0.800839H160.127C154.028 0.800839 147.931 0.798003 141.832 0.834878C136.695 0.86608 131.56 0.925648 126.424 1.06464C115.234 1.36673 103.946 2.02624 92.8803 4.01609C81.6546 6.0343 71.2061 9.32755 61.0058 14.5199C50.98 19.6229 41.8065 26.2902 33.8528 34.2454C25.9005 42.1991 19.2332 51.3697 14.1302 61.3941C8.93501 71.5987 5.64034 82.0528 3.62213 93.2856C1.63511 104.345 0.975613 115.629 0.673519 126.815C0.534527 131.951 0.474959 137.086 0.443757 142.223C0.406882 148.319 0.409718 154.418 0.409718 160.516V351.664C0.409718 357.763 0.406882 363.86 0.443757 369.958C0.474959 375.096 0.534527 380.231 0.673519 385.367C0.975613 396.553 1.63511 407.837 3.62213 418.898C5.64034 430.131 8.93501 440.585 14.1302 450.789C19.2332 460.814 25.9005 469.984 33.8528 477.938C41.8065 485.892 50.98 492.559 61.0058 497.663C71.2061 502.856 81.6532 506.149 92.8803 508.167C103.946 510.157 115.234 510.815 126.424 511.119C131.56 511.258 136.695 511.317 141.832 511.349C147.931 511.385 154.028 511.383 160.127 511.383H351.276C357.374 511.383 363.472 511.385 369.57 511.349C374.707 511.317 379.843 511.258 384.978 511.119C396.169 510.817 407.457 510.157 418.522 508.167C429.748 506.149 440.196 502.856 450.397 497.663C460.423 492.56 469.596 485.893 477.55 477.938C485.502 469.984 492.169 460.814 497.272 450.789C502.468 440.585 505.762 430.131 507.78 418.898C509.767 407.837 510.427 396.553 510.729 385.367C510.868 380.231 510.928 375.096 510.959 369.958C510.996 363.86 510.993 357.763 510.993 351.664L510.989 160.516Z" fill="url(#paint0_linear_2_14686)"/>
<path d="M255.536 186.481C276.637 186.481 293.743 203.581 293.743 224.675C293.743 245.769 276.637 262.87 255.536 262.87C234.435 262.87 217.33 245.769 217.33 224.675C217.333 203.581 234.438 186.481 255.536 186.481ZM365.514 238.065C365.514 275.759 346.437 309.077 317.431 328.893C315.954 329.903 313.949 328.762 314.06 326.976C314.467 320.273 314.592 314.339 314.247 308.23C314.134 306.222 314.922 304.268 316.389 302.891C333.686 286.656 344.509 263.601 344.509 238.065C344.509 187.857 302.676 147.23 252.023 149.191C205.417 150.997 167.828 189.069 166.6 235.678C165.902 262.163 176.854 286.153 194.692 302.895C196.157 304.271 196.943 306.225 196.831 308.23C196.487 314.339 196.612 320.272 197.021 326.979C197.128 328.762 195.13 329.906 193.655 328.899C164.278 308.835 145.083 274.919 145.572 236.634C146.318 178.425 193.001 130.463 251.19 128.209C313.801 125.784 365.514 176 365.514 238.065ZM255.062 73.9543C345.801 73.6976 419.702 147.417 419.702 238.067C419.702 309.531 373.768 370.46 309.868 392.929C308.302 393.481 306.712 392.179 306.959 390.538C307.805 384.924 308.603 379.281 309.334 373.731C309.594 371.771 310.835 370.075 312.649 369.283C363.245 347.191 398.696 296.693 398.696 238.065C398.696 158.76 333.835 94.3151 254.359 94.9576C176.614 95.5859 113.132 158.943 112.383 236.662C111.812 295.884 147.42 347.011 198.413 369.279C200.227 370.07 201.478 371.762 201.736 373.724C202.47 379.274 203.268 384.921 204.113 390.538C204.36 392.18 202.77 393.481 201.203 392.929C136.687 370.243 90.4849 308.35 91.3812 235.994C92.4946 146.674 165.711 74.2082 255.062 73.9543ZM255.538 278.303C270.064 278.303 282.369 283.04 289.372 290.428C293.028 294.284 294.962 298.237 295.57 303.868C296.749 314.772 296.086 324.161 294.808 339.172C293.591 353.475 291.281 372.548 288.263 391.974C286.117 405.8 284.373 413.261 282.784 418.604C280.209 427.263 270.585 434.838 255.538 434.838C240.49 434.838 230.865 427.263 228.291 418.604C226.702 413.261 224.958 405.8 222.811 391.974C219.794 372.548 217.484 353.475 216.265 339.172C214.987 324.161 214.325 314.773 215.504 303.868C216.112 298.237 218.045 294.284 221.702 290.428C228.708 283.04 241.013 278.303 255.538 278.303Z" fill="white"/>
</g>
<defs>
<linearGradient id="paint0_linear_2_14686" x1="255.701" y1="0.800839" x2="255.701" y2="511.383" gradientUnits="userSpaceOnUse">
<stop stop-color="#D56EFC"/>
<stop offset="1" stop-color="#832BC1"/>
</linearGradient>
<clipPath id="clip0_2_14686">
<rect width="512" height="512" fill="white" transform="translate(0.409668 0.800781)"/>
</clipPath>
</defs>
</svg>
