<svg width="1025" height="162" viewBox="0 0 1025 162" fill="none" xmlns="http://www.w3.org/2000/svg">
<g clip-path="url(#clip0_776_174)">
<path d="M323.819 34.1706C321.021 36.4086 315.986 36.9681 290.808 41.4442C290.808 41.4442 289.688 41.4443 285.772 43.6823C279.617 43.6823 270.105 48.1584 267.308 49.8369C266.189 50.3965 264.51 53.7536 263.951 59.9082C265.629 62.1463 266.748 61.5868 268.427 61.5868C280.736 61.5868 298.081 55.4321 300.319 55.9916C308.152 57.6702 312.069 69.9796 312.069 76.1342C312.069 76.6938 311.51 80.6103 310.95 81.1699C309.831 83.9674 305.355 86.2055 299.2 86.765C271.784 89.0031 258.915 91.2411 256.118 93.4792C255.558 94.0387 254.439 96.8363 254.439 98.5149C254.439 105.229 267.867 106.348 270.665 106.348C279.058 106.348 283.534 101.872 286.331 101.872C290.248 101.872 297.522 110.824 297.522 120.895C297.522 127.61 293.605 138.24 276.82 138.24C272.343 138.24 253.879 134.883 240.451 125.372C240.451 125.372 241.011 122.574 235.415 118.657C233.737 115.3 229.82 104.11 229.82 95.1577C229.82 75.5747 239.332 62.7058 241.011 55.4321C241.011 55.4321 236.535 48.718 234.856 46.4799C233.737 45.3609 232.618 44.2418 232.618 39.2062C232.618 24.0993 242.689 21.3017 243.249 21.3017H246.606C246.606 21.3017 253.879 17.9446 254.999 16.266L260.594 15.7066C263.951 15.147 300.319 5.63525 307.593 5.63525C313.188 5.63525 315.426 6.7543 318.224 10.1114C319.902 12.3495 326.057 23.5398 326.057 28.0159C324.938 30.2539 324.378 33.0515 323.819 34.1706Z" fill="#66CC00"/>
<path d="M341.723 92.9195C341.164 93.479 340.045 96.8361 340.045 98.5147C340.045 100.753 348.437 104.669 355.711 104.669C378.092 105.788 375.294 95.1576 382.008 98.5147C386.484 100.753 390.401 111.384 390.401 118.098C390.401 132.645 376.413 136.562 363.544 136.562C346.199 136.562 331.092 128.728 331.092 128.728C331.092 128.728 317.664 111.943 317.664 100.193C317.664 72.7769 332.211 43.1226 332.771 41.444C332.771 41.444 333.89 33.6109 334.45 28.5752C335.009 22.9801 338.926 21.861 342.283 17.9444C349.556 17.3849 362.985 11.2302 403.829 6.75406C408.865 6.19454 415.579 13.4683 418.936 24.0991C419.496 25.7776 418.377 33.6108 416.139 34.7298C414.46 35.2893 410.544 35.8489 376.973 39.206C371.378 39.7655 365.223 40.8846 362.985 42.5631C360.187 44.2416 355.152 53.1939 354.592 55.9914C354.033 58.789 355.152 60.4675 359.068 59.908C376.413 58.2295 388.163 50.3963 389.842 50.3963C395.996 50.3963 402.151 58.7891 403.829 67.7413C404.948 73.3365 403.27 77.253 401.591 78.3721C396.556 81.7292 388.163 83.9672 379.77 85.6458C375.854 86.2053 373.056 86.2052 371.937 86.2052C371.378 86.2052 369.139 87.3243 368.58 87.3243C355.152 89.5624 343.961 90.6814 341.723 92.9195Z" fill="#66CC00"/>
<path d="M719.396 21.861C719.396 28.5752 717.158 33.0514 714.92 34.1704C704.29 38.087 668.481 43.1226 651.695 48.7178C648.897 49.8368 643.302 58.7891 643.302 62.1462C643.302 63.8247 645.54 64.3842 648.338 64.3842C672.397 61.0271 676.314 59.3486 686.385 54.8725C688.064 54.8725 690.302 55.432 691.98 56.551C694.778 59.9081 697.575 65.5033 697.575 74.4555C697.575 80.0507 695.337 85.6458 685.826 86.7648C673.516 88.4434 644.981 92.9195 636.588 94.0385C632.112 94.5981 629.874 95.7171 629.314 96.2766C625.398 101.872 627.076 113.062 652.814 107.467C663.445 105.229 665.683 101.312 671.838 101.312C672.397 101.312 672.957 101.312 673.516 101.312C678.552 105.788 679.671 110.824 679.671 118.098C679.671 126.49 675.754 132.645 668.481 136.002C667.921 136.562 665.123 137.121 664.564 137.121C664.004 137.121 660.647 139.359 658.969 139.359C654.493 140.478 651.136 141.038 649.457 141.038C632.112 141.038 604.136 133.205 604.136 100.753C604.136 71.0984 624.279 50.9559 629.314 31.3728C629.314 31.3728 630.433 30.2538 632.112 28.0157C632.672 24.6586 635.469 16.8254 639.386 16.2658C648.897 15.1468 677.433 8.9922 703.17 0.599473C705.409 0.0399573 707.087 0.0399061 708.766 1.15894C713.801 4.51603 719.396 12.9087 719.396 21.861Z" fill="#66CC00"/>
<path d="M226.463 106.908C221.428 101.312 204.642 91.8006 198.488 85.6459C200.726 82.8484 214.714 63.8248 214.714 48.7179C214.714 27.4563 199.607 2.27808 178.905 2.27808C178.905 2.27808 172.75 2.27811 165.476 2.83763C164.357 5.07569 159.881 4.51619 159.881 4.51619C152.607 7.87328 145.893 13.4684 145.893 30.8134C145.893 34.1705 150.369 36.9681 153.167 39.7657C152.607 45.3608 150.929 54.8726 148.131 61.5868C147.012 63.8248 140.298 64.9439 140.298 64.9439L136.941 69.4199C134.703 82.8483 136.941 84.5269 141.417 90.6815C141.977 97.9552 139.179 110.265 139.179 117.538C139.179 122.574 140.858 122.014 140.298 127.61C140.298 127.61 140.858 128.729 141.417 129.848C143.096 135.443 149.25 139.919 155.405 139.919C161.56 139.919 163.798 135.443 163.798 133.205C163.798 127.05 162.119 108.586 162.119 106.908C162.679 101.312 164.917 97.9553 164.917 97.9553C168.833 97.9553 186.738 114.181 201.845 129.288C204.083 131.526 208.559 133.764 212.476 133.764C221.428 133.764 225.344 123.133 228.142 120.895C229.261 119.217 229.821 110.265 226.463 106.908ZM173.309 65.5033C172.19 66.0629 169.952 64.9439 169.393 64.9439C169.393 64.9439 173.869 37.5276 174.429 31.9324C181.143 30.2539 189.535 33.611 189.535 42.5633C190.095 49.837 186.738 58.7892 173.309 65.5033Z" fill="#66CC00"/>
<path d="M605.255 9.55184L598.541 7.87327L595.184 6.19479C586.232 4.51625 564.97 3.95666 557.696 5.0757C556.577 5.0757 551.542 3.95673 549.863 3.39722C544.268 6.75431 539.792 7.87327 539.792 7.87327C538.673 7.87327 535.316 6.75426 535.316 6.75426C530.28 7.31377 516.852 10.1114 510.697 14.028C507.899 15.7065 506.221 18.5041 505.102 20.7421C505.102 21.3017 503.983 21.8612 503.983 20.7421C503.983 19.6231 503.423 17.9446 503.423 17.3851C501.745 11.2304 493.912 6.19479 489.435 6.19479C487.757 6.19479 483.281 8.43279 483.281 10.6709C482.721 13.4684 482.721 26.3373 481.043 38.6466C481.043 39.7657 481.043 63.2653 478.805 71.0985C478.245 71.0985 476.567 71.6581 476.007 71.0985C469.852 62.1463 454.745 47.0394 453.067 36.4086C451.948 26.8968 453.626 12.3494 448.591 8.43282C446.912 6.75428 437.96 4.51623 435.162 4.51623C431.246 4.51623 428.448 6.19476 426.77 8.43282L426.21 11.2304L423.413 15.147C422.853 17.9446 422.294 22.4207 421.734 31.9325L423.972 43.6823C423.972 43.6823 423.972 46.4799 421.734 48.7179L422.294 57.6702C422.294 67.7415 413.341 102.431 413.341 112.503C413.341 136.002 434.043 133.764 435.162 133.205C436.841 132.086 439.639 127.05 439.639 125.372C440.758 111.384 442.436 87.884 446.353 81.1698C446.912 79.4913 449.15 78.9318 450.269 80.0508C453.626 83.4079 456.984 90.1221 457.543 90.6816C461.46 95.7172 471.531 108.586 473.769 120.336C473.769 121.455 473.769 123.693 474.328 125.372C474.888 129.288 476.567 133.764 482.162 138.24C483.84 139.359 489.435 139.919 493.352 139.359C497.269 138.8 504.542 137.681 504.542 119.776C504.542 108.027 502.864 102.991 502.864 100.753C502.864 98.5148 505.661 76.6937 505.661 46.4799C505.661 46.4799 504.542 43.6823 503.983 42.0038C504.542 39.2062 505.102 37.5276 505.102 35.849C505.102 35.2895 505.661 34.7301 505.661 35.2896C505.661 35.8491 506.221 36.4086 506.221 36.4086C507.899 38.6467 511.257 40.8847 515.173 40.8847C521.887 40.8847 530.28 33.0515 535.875 34.73C536.435 34.73 537.554 33.611 542.03 33.0515C542.03 35.849 542.03 42.0038 541.47 50.3965C540.911 54.3131 539.232 55.4321 531.959 55.4321C529.161 55.4321 527.482 57.6702 526.923 59.3488C525.804 61.5868 524.125 71.6581 524.125 74.4557C524.125 80.0508 530.28 87.3245 538.113 89.5626C538.673 91.8006 536.435 110.265 536.435 119.776C536.435 129.288 538.673 133.205 539.232 133.764C539.792 134.324 546.506 139.359 551.542 139.359C555.458 139.359 559.375 137.121 560.494 135.443C561.053 134.324 562.172 132.086 562.172 127.61C562.732 106.348 564.97 83.9674 567.768 83.4079C580.636 79.4913 592.946 75.0152 605.255 65.5034C611.969 61.0273 619.803 50.956 619.803 40.8847C619.803 28.0159 611.41 13.4684 605.255 9.55184ZM567.768 52.0751C566.089 52.0751 564.97 51.5155 564.97 50.3965C563.291 45.9204 562.732 35.849 562.732 30.2539C568.327 29.1349 592.946 30.8135 592.946 36.9681C592.386 42.5633 576.16 52.0751 567.768 52.0751Z" fill="#66CC00"/>
<path d="M132.465 85.0864C132.465 81.1698 128.548 68.8604 126.31 65.5033C122.953 61.5867 119.036 61.0272 114.001 61.0272C110.644 61.0272 56.3705 69.4199 49.0968 73.8961C45.7397 76.1341 44.6207 80.6103 44.6207 87.3245C44.6207 96.8363 50.7754 100.753 52.4539 100.753C56.3706 100.753 84.3463 95.1577 93.8581 93.4791C96.0961 92.9196 96.6557 94.0386 96.6557 94.5981C96.6557 96.8362 96.0962 99.6338 94.9771 101.312C91.0605 105.789 85.4654 108.027 80.4297 109.705C72.5965 108.027 65.8823 114.741 58.0491 110.824C54.692 110.824 49.6564 113.062 47.4183 109.705C39.5851 108.027 31.1924 107.467 24.4782 101.872C22.2401 99.6338 21.6806 96.8362 21.6806 93.4791C21.6806 85.0864 34.5495 62.7058 56.3706 42.5633C60.8467 38.0871 77.0726 26.3373 84.3463 26.3373C89.382 26.3373 91.0605 36.9681 94.4176 40.8847C95.5366 42.0037 99.4533 42.0037 101.132 40.8847C105.048 39.2061 108.406 36.968 108.406 31.9324C108.406 20.7421 103.929 11.7899 100.572 7.31376C98.3342 4.51618 87.7034 0.0400391 83.2273 0.0400391C74.2751 0.0400391 69.7989 5.63519 66.4418 5.63519C53.0135 14.0279 46.2993 21.8612 43.5017 24.0992C42.3827 25.2183 41.2636 25.2182 41.2636 25.2182C41.2636 25.2182 40.7041 28.0158 39.0256 30.2538C38.4661 30.8134 33.9899 33.611 33.9899 33.611C27.8353 39.7656 0.978516 73.3365 0.978516 86.2054C0.978516 97.9552 8.81174 114.741 11.6093 116.979C21.6806 125.931 39.5851 132.645 60.2872 132.645C74.8346 132.645 88.2629 127.05 92.1795 124.812C93.2986 124.253 93.8581 124.252 93.8581 125.371C93.8581 126.491 93.2986 128.169 93.2986 129.848C93.2986 131.526 92.7391 138.24 92.7391 143.276C92.7391 151.669 94.9771 156.145 97.2152 158.383C98.3342 159.502 105.608 161.181 110.084 161.181C112.322 161.181 119.596 157.823 119.596 149.99C119.596 145.514 119.036 139.919 119.036 138.24C121.274 101.872 132.465 91.8006 132.465 85.0864Z" fill="#66CC00"/>
<path d="M1024.33 22.4207C1022.09 13.4685 1015.38 5.07573 1009.23 3.9567C1003.63 5.07573 959.988 13.4685 931.453 17.3851C927.536 17.9446 922.501 17.9446 922.501 17.9446L919.144 19.6232C919.144 19.6232 913.548 20.1826 910.751 21.8612C906.834 24.6588 901.799 29.6944 900.68 38.0872L901.239 45.3609C892.287 63.2654 886.132 77.2532 886.132 96.2768C886.132 96.8363 886.132 96.8363 886.132 97.3958C886.132 99.0743 886.132 99.6339 885.573 99.0743C885.013 98.5148 884.454 97.3958 883.894 96.8363C880.537 92.9197 879.418 92.3602 877.739 92.3602C873.263 92.3602 869.347 101.312 853.68 101.312C839.133 101.312 812.836 86.2055 812.836 78.3723C812.836 61.0273 835.776 39.7657 852.561 39.7657C855.359 39.7657 856.478 40.8848 856.478 42.5633C856.478 45.9204 853.68 51.5156 853.68 54.8727C853.68 63.2654 865.99 68.8605 872.704 68.8605C874.382 68.8605 887.811 63.8249 887.811 44.8013C887.811 33.611 879.418 14.5875 865.99 14.5875C848.645 14.5875 823.466 23.5397 806.121 35.8491C806.121 35.8491 805.002 38.0872 803.883 39.2062C802.764 40.3252 798.288 43.6823 798.288 43.6823C794.372 48.718 791.014 55.9916 789.895 58.2297C789.336 58.7892 789.336 59.9082 788.776 61.0273C788.217 63.2653 787.098 63.8249 786.538 62.7058C786.538 61.5868 786.538 60.4678 785.979 58.7892C785.419 51.5155 784.86 47.0394 783.741 41.4442C783.741 41.4442 782.062 36.4086 781.503 34.1706C781.503 33.6111 781.503 30.8135 781.503 30.8135C777.586 15.7065 768.074 5.63523 766.955 5.07571C760.801 2.83765 759.122 2.27815 756.324 3.9567C745.694 10.6709 733.384 31.3729 714.361 66.6224C714.361 66.6224 711.004 69.9796 707.087 72.7771C707.647 78.3723 707.087 81.1699 706.528 82.8484C702.611 95.1578 691.421 110.265 691.98 113.622L692.54 117.538L691.98 122.015C691.98 124.812 700.932 134.883 708.206 134.883C708.766 134.883 709.325 134.883 709.885 134.883C717.158 128.169 719.396 115.86 726.111 105.229C726.67 104.11 727.23 104.11 728.908 102.991C733.384 101.312 741.777 100.193 745.134 99.6339C748.491 99.0744 752.408 100.193 752.408 100.193L755.765 99.0743C758.563 99.0743 760.241 99.6339 760.241 102.431C760.241 114.181 760.241 124.253 761.36 127.61C762.479 133.205 768.074 137.121 778.705 138.24C779.824 138.24 784.3 135.443 785.419 131.526C787.657 125.372 785.979 117.538 785.979 110.824C785.979 100.753 786.538 95.1577 786.538 91.8006C786.538 90.6816 787.657 90.1221 787.657 91.2412C788.776 94.0387 790.455 97.9553 792.693 100.753C806.121 116.419 827.942 134.883 859.275 136.562C871.585 137.121 881.096 130.967 885.573 118.657C886.692 115.86 887.251 113.622 887.811 112.503C887.811 111.943 888.37 112.503 888.93 113.062C889.489 114.181 890.608 115.86 892.287 118.098C902.918 131.526 918.024 136.002 937.608 132.645C958.869 129.288 961.667 127.05 963.905 124.812C966.702 120.895 967.821 115.3 968.381 110.265C968.94 106.908 968.94 102.991 966.143 99.6339C962.786 96.2768 952.714 99.6339 939.286 101.872C921.382 104.669 914.108 97.3958 914.108 95.1578C914.108 94.0387 914.667 90.6816 916.905 90.6816C918.584 90.1221 922.501 90.6816 924.179 91.2412C924.739 91.2412 934.81 89.5626 942.084 89.5626C944.881 89.5626 948.238 90.1221 949.357 90.1221C949.357 90.1221 961.107 89.0031 968.381 87.884C972.857 86.765 976.774 83.4079 976.774 81.1699C977.893 74.4557 976.774 69.9796 975.655 67.7415C970.619 57.6702 965.024 56.5512 963.345 56.5512C957.191 57.6702 944.881 61.5868 928.096 60.4678C925.858 60.4678 924.739 58.2298 924.739 56.5512C925.298 52.0751 930.334 45.3608 935.929 44.2418C949.357 41.4442 989.083 37.5277 1003.63 36.9682C1012.58 36.4086 1022.65 39.2062 1024.33 36.4086C1025.45 32.492 1024.89 24.6588 1024.33 22.4207ZM760.801 63.8248C759.682 66.0629 753.527 67.7415 742.337 67.7415C741.777 67.7415 741.218 66.6225 741.777 66.063C746.253 55.4322 754.646 36.9682 755.765 36.9682C756.884 36.9682 758.563 37.5276 759.682 38.6466C762.479 41.4442 762.479 61.0273 760.801 63.8248Z" fill="#66CC00"/>
</g>
<defs>
<clipPath id="clip0_776_174">
<rect width="1024" height="161.14" fill="white" transform="translate(0.978516 0.0400391)"/>
</clipPath>
</defs>
</svg>
