<svg width="513" height="513" viewBox="0 0 513 513" fill="none" xmlns="http://www.w3.org/2000/svg">
<g clip-path="url(#clip0_2_14943)">
<path d="M256.685 512.799C115.319 512.799 0.685303 398.165 0.685303 256.799C0.685303 115.433 115.319 0.798828 256.685 0.798828C398.051 0.798828 512.685 115.433 512.685 256.799C512.685 398.165 398.051 512.799 256.685 512.799Z" fill="#FFB81C"/>
<path d="M256.525 498.028C123.347 498.028 15.3757 390.057 15.3757 256.879C15.3757 123.702 123.347 15.7305 256.525 15.7305C389.702 15.7305 497.674 123.702 497.674 256.879C497.674 390.057 389.702 498.028 256.525 498.028Z" fill="#003087"/>
<path d="M347.076 59.2394C367.145 65.822 383.601 72.0033 382.879 73.7693C382.156 75.6157 365.138 70.7991 345.069 64.1362C314.805 54.182 277.557 40.2943 278.039 39.3309C278.36 38.3676 316.812 49.2852 347.076 59.2394ZM362.248 227.417C363.131 228.621 322.19 245.318 288.474 257.36C266.077 265.307 246.892 271.167 245.286 269C243.68 266.832 261.823 259.447 284.22 251.499C317.855 239.458 361.365 226.213 362.248 227.417ZM92.0392 161.028C90.0323 157.175 87.8649 147.382 87.8649 137.267C87.8649 108.929 106.971 99.5371 134.987 94.0783C139.723 93.1953 140.446 92.6334 143.657 87.8971C164.93 56.9909 191.662 41.5779 221.364 41.5779C239.747 41.5779 251.708 45.8325 307.821 65.7409C322.993 71.1194 341.135 77.7823 363.613 85.8099C374.37 89.6632 386.17 93.7572 399.095 98.2527C416.675 104.354 422.214 107.163 422.214 110.374C422.214 114.147 415.471 114.95 415.471 118.001C415.471 120.409 424.542 123.138 432.971 123.941C424.944 130.363 399.657 126.51 399.657 120.329C399.657 117.037 404.794 115.351 404.794 112.783C404.794 108.929 389.221 101.223 372.925 99.5371C379.347 121.131 373.808 129.319 373.808 134.136C373.808 138.712 380.952 141.04 389.943 139.193C394.439 144.411 401.503 148.987 407.042 150.914C406.159 152.359 405.677 155.088 406.239 156.694C408.567 155.811 412.099 155.008 414.508 155.008C419.324 160.386 421.492 171.143 420.528 177.886C414.909 175.96 407.684 174.916 402.948 174.756C398.051 167.451 390.104 160.627 382.076 156.453C368.108 154.446 346.434 158.46 334.071 163.035C340.574 163.999 353.337 163.678 359.519 162.875C362.328 165.283 367.787 168.173 371.078 169.698C370.115 171.384 370.115 173.873 370.677 175.318C373.166 173.873 376.136 172.749 378.544 172.428C383.842 176.441 388.498 185.593 389.542 193.38C384.404 192.416 377.982 192.095 373.567 192.336C365.138 184.148 352.053 176.281 342.661 176.281C332.466 176.281 323.073 181.499 316.651 181.499C306.777 181.499 296.903 170.581 281.33 170.581C276.995 170.581 272.821 171.384 268.566 172.909C269.449 181.82 274.667 191.533 278.119 196.27C275.309 196.591 270.894 196.51 268.165 196.27C270.573 199.802 273.944 201.969 276.032 202.531C270.011 206.144 266.318 209.756 264.231 216.579C268.967 217.784 274.025 217.302 276.834 215.937C278.761 213.449 281.812 211.201 284.782 210.398C293.05 215.134 297.706 222.6 298.348 227.818C292.408 228.38 286.628 230.547 283.658 232.394C278.199 230.708 273.944 230.146 270.332 230.146C263.749 230.146 258.371 232.233 253.474 232.233C248.497 232.233 245.125 229.424 244.323 226.614C245.768 222.118 247.052 214.974 247.052 209.114C247.052 192.978 232.522 179.733 208.841 178.047C214.38 180.696 220.962 185.272 223.21 188.804C218.394 190.971 213.176 196.832 213.176 201.889C213.176 206.063 216.547 209.997 220.079 211.201C222.006 209.756 225.056 208.311 227.304 207.669C233.325 213.047 236.937 221.235 237.018 227.417C232.683 226.935 225.297 227.979 221.043 228.862C217.109 225.57 213.818 223.644 210.848 222.359C204.987 219.951 200.331 220.754 195.756 219.469C191.983 218.506 189.253 215.937 188.932 213.85C193.669 209.515 198.485 201.327 198.485 193.059C198.485 181.499 191.581 174.756 185.4 174.756C180.503 174.756 176.65 178.85 176.65 184.71C176.65 191.293 182.109 197.875 190.377 198.517C185.561 203.494 179.781 207.027 172.797 207.027C168.542 207.027 165.331 205.742 163.565 205.742C160.434 205.742 156.902 207.107 155.377 207.107C154.654 207.107 154.253 206.705 154.253 205.983C154.253 203.494 158.829 197.715 161.558 195.146C156.902 194.744 153.691 195.467 150.56 197.955C146.145 201.407 144.219 206.786 138.76 206.786C133.622 206.786 131.455 200.605 127.361 196.832C124.471 194.102 122.384 194.102 117.808 189.928C110.583 183.265 108.897 176.201 107.613 174.595C105.285 171.946 95.4911 167.611 92.0392 161.028ZM137.074 171.866C137.074 168.012 134.585 165.042 131.455 163.999C131.776 160.306 133.462 156.774 135.468 155.168C133.702 154.366 130.491 154.687 128.725 156.774C127.12 158.62 126.478 161.671 125.996 164.882C125.595 167.37 125.273 169.939 124.712 172.267C123.748 176.201 121.982 178.208 120.537 178.529C121.822 179.331 123.909 179.893 125.595 179.171C128.404 177.886 129.769 174.916 130.251 171.063C131.535 171.705 132.739 173.23 132.739 174.916C132.739 177.244 130.893 179.01 128.324 179.733C133.221 180.054 137.074 176.441 137.074 171.866ZM97.8191 120.168C110.182 116.475 118.932 118.723 118.932 125.065C118.932 128.998 115.961 131.086 115.961 135.099C115.961 138.712 119.092 140.478 122.624 140.478C130.893 140.478 137.796 133.574 137.796 124.744C137.796 116.315 131.455 109.331 120.056 109.331C111.305 109.25 102.154 114.147 97.8191 120.168Z" fill="white"/>
<path d="M394.439 417.753C389.863 417.753 386.491 421.526 383.601 425.139C374.932 435.976 366.101 441.916 352.294 441.916C331.021 441.916 310.39 423.935 310.39 401.778C310.39 388.292 316.41 373.361 316.41 362.202C316.41 353.613 311.032 349.037 305.172 349.037C302.442 349.037 300.516 350.562 300.516 351.686C300.516 353.613 306.938 351.124 306.938 360.195C306.938 370.792 299.793 386.687 299.793 403.304C299.793 430.036 324.92 451.549 350.929 451.549C366.503 451.549 378.143 444.164 386.652 432.765C387.856 435.414 390.666 437.421 394.278 437.421C399.496 437.421 403.43 433.086 403.43 427.467C403.349 422.57 399.496 417.753 394.439 417.753ZM320.826 375.047C324.277 378.338 336.961 387.73 351.411 397.122C365.86 406.515 379.588 414.301 384.083 416.068C385.046 416.469 385.689 416.549 385.769 416.308C385.929 416.068 385.849 415.827 384.645 415.104C374.53 408.843 363.532 401.778 352.856 394.875C342.259 387.971 331.342 380.746 321.468 374.083C320.264 373.28 320.023 373.28 319.862 373.521C319.782 373.762 320.103 374.324 320.826 375.047ZM321.388 394.554C321.307 394.955 321.307 395.437 321.227 395.918C321.147 396.4 321.147 396.801 321.066 397.283C320.986 400.093 325.321 402.581 327.729 398.567C327.569 399.611 327.489 400.574 327.328 401.618C327.248 404.347 331.583 406.916 333.991 402.822C333.83 403.866 333.75 404.829 333.59 405.872C333.509 408.602 337.924 411.09 340.333 407.077C340.252 408.12 340.092 409.084 340.012 410.127C339.931 412.856 344.346 415.345 346.755 411.251C346.674 412.295 346.514 413.258 346.434 414.301C346.113 417.031 350.769 419.439 353.177 415.425L352.856 418.476C352.775 421.205 357.191 423.613 359.679 419.6L359.358 422.65C359.278 425.701 364.255 427.467 366.422 423.854C366.342 424.657 366.262 425.139 366.182 425.941C365.7 430.196 370.436 432.604 373.647 430.196C375.734 428.591 378.544 425.861 380.31 423.613C383.039 420.162 378.223 417.191 375.574 419.359C374.851 419.921 374.209 420.483 373.487 421.045C373.567 419.84 373.567 418.636 373.647 417.432C373.727 414.944 369.312 412.134 366.984 417.753C367.065 416.308 367.065 414.863 367.145 413.418C367.225 410.93 362.81 408.12 360.482 413.74C360.562 412.295 360.642 410.85 360.642 409.405C360.723 406.836 356.308 404.106 354.06 409.645C354.14 408.2 354.22 406.756 354.22 405.23C354.301 402.742 349.966 399.852 347.638 405.471C347.718 404.026 347.798 402.581 347.798 401.056C347.879 398.487 343.544 395.677 341.216 401.216C341.296 399.772 341.376 398.246 341.457 396.801C341.537 394.232 337.202 391.343 334.874 396.962C334.954 395.517 335.034 393.992 335.115 392.547C335.195 389.978 330.86 387.088 328.612 392.707C328.693 391.262 328.773 389.737 328.853 388.292C328.934 385.803 325 383.556 323.154 386.847C322.993 387.088 322.752 387.489 322.592 387.971C322.672 386.687 322.752 385.322 322.833 384.037C322.913 380.826 317.615 379.462 316.491 382.673C315.768 384.76 315.126 390.058 315.046 393.109C315.046 395.918 319.381 398.005 321.388 394.554ZM206.432 360.195C206.432 351.044 212.854 353.613 212.854 351.686C212.854 350.562 210.928 349.037 208.198 349.037C202.258 349.037 196.96 353.613 196.96 362.202C196.96 373.441 202.981 388.292 202.981 401.778C202.981 423.935 182.35 441.997 161.077 441.997C147.269 441.997 138.439 436.056 129.769 425.219C126.879 421.607 123.507 417.834 118.932 417.834C113.874 417.834 110.021 422.65 110.021 427.547C110.021 433.166 113.955 437.501 119.172 437.501C122.705 437.501 125.514 435.494 126.799 432.845C135.308 444.164 146.948 451.63 162.521 451.63C188.531 451.63 213.657 430.116 213.657 403.384C213.577 386.687 206.432 370.872 206.432 360.195ZM129.287 416.148C133.702 414.301 147.43 406.595 161.96 397.203C176.409 387.81 189.093 378.418 192.545 375.047C193.347 374.324 193.588 373.762 193.428 373.602C193.267 373.361 193.026 373.361 191.822 374.163C181.948 380.826 171.031 388.051 160.434 394.955C149.838 401.859 138.76 408.843 128.645 415.184C127.441 415.907 127.361 416.148 127.521 416.389C127.682 416.549 128.324 416.549 129.287 416.148ZM190.618 383.877C190.698 385.161 190.779 386.526 190.859 387.81L190.297 386.687C188.37 383.395 184.437 385.723 184.597 388.132C184.678 389.576 184.758 391.102 184.838 392.547C182.51 386.927 178.256 389.898 178.336 392.386C178.416 393.831 178.496 395.356 178.577 396.801C176.249 391.182 171.914 394.072 171.994 396.641C172.074 398.086 172.155 399.611 172.235 401.056C169.907 395.437 165.572 398.327 165.652 400.895C165.733 402.34 165.813 403.785 165.813 405.311C163.485 399.691 159.15 402.581 159.23 405.07C159.31 406.515 159.391 407.96 159.391 409.485C157.143 403.946 152.728 406.675 152.808 409.244C152.888 410.689 152.888 412.134 152.969 413.579C150.641 407.96 146.306 410.769 146.306 413.338C146.386 414.783 146.386 416.228 146.466 417.673C144.138 412.134 139.803 414.863 139.803 417.352C139.884 418.556 139.884 419.76 139.964 420.964C139.241 420.402 138.599 419.841 137.877 419.279C135.228 417.111 130.411 420.081 133.14 423.533C134.907 425.781 137.716 428.51 139.803 430.116C142.934 432.524 147.751 430.116 147.269 425.861C147.189 425.058 147.108 424.577 147.028 423.774C149.196 427.386 154.173 425.62 154.092 422.57C154.012 421.607 153.852 420.563 153.771 419.6C156.26 423.694 160.675 421.285 160.595 418.476L160.274 415.425C162.682 419.439 167.338 417.031 167.017 414.301C166.937 413.258 166.776 412.295 166.696 411.251C169.104 415.345 173.519 412.856 173.439 410.127L173.038 407.077C175.446 411.171 179.861 408.682 179.781 405.872C179.62 404.829 179.54 403.866 179.379 402.822C181.868 406.916 186.203 404.347 186.042 401.618C185.882 400.574 185.801 399.611 185.641 398.567C188.049 402.661 192.384 400.093 192.304 397.283L192.143 395.918C192.063 395.437 192.063 395.035 191.983 394.554C193.99 397.925 198.405 395.838 198.325 392.948C198.325 389.898 197.602 384.519 196.88 382.512C195.836 379.301 190.457 380.666 190.618 383.877Z" fill="#FFB81C"/>
<path d="M256.685 329.77C186.283 277.269 104.402 208.713 54.3096 149.068C55.1123 158.461 62.1766 178.128 78.5529 196.11C121.982 243.553 185.24 295.652 243.038 339.804C232.121 347.751 221.605 355.297 211.65 362.281C211.249 364.529 211.65 369.747 212.132 372.075C212.935 374.323 215.504 377.935 217.27 379.38C229.713 370.309 242.958 360.515 256.685 350.16C270.332 360.515 283.658 370.309 296.101 379.38C297.947 377.935 300.436 374.323 301.238 372.075C301.64 369.747 302.041 364.609 301.72 362.281C291.766 355.297 281.25 347.751 270.332 339.804C328.131 295.652 391.388 243.553 434.818 196.11C451.274 178.128 458.338 158.461 459.061 149.068C408.969 208.794 327.087 277.269 256.685 329.77Z" fill="white"/>
<path d="M128.324 179.814C130.812 179.092 132.659 177.326 132.659 174.998C132.659 173.312 131.455 171.787 130.25 171.145C129.769 174.998 128.404 177.968 125.594 179.252C126.076 179.413 127.12 179.734 128.324 179.814Z" fill="#C8102E"/>
<path d="M439.795 455.965C433.052 455.965 427.593 461.424 427.593 468.167C427.593 474.91 433.052 480.369 439.795 480.369C446.538 480.369 451.997 474.91 451.997 468.167C451.917 461.424 446.458 455.965 439.795 455.965ZM439.795 477.72C434.497 477.72 430.242 473.465 430.242 468.167C430.242 462.869 434.497 458.614 439.795 458.614C445.093 458.614 449.348 462.869 449.348 468.167C449.348 473.465 445.093 477.72 439.795 477.72ZM444.772 465.357C444.772 463.029 442.926 461.183 440.678 461.183H434.818V475.151H437.467V469.531H439.314L441.963 475.151H444.853L442.123 469.291C443.648 468.648 444.772 467.123 444.772 465.357ZM440.598 466.882H437.307V463.832H440.598C441.401 463.832 442.123 464.474 442.123 465.357C442.123 466.16 441.481 466.882 440.598 466.882Z" fill="#003087"/>
</g>
<defs>
<clipPath id="clip0_2_14943">
<rect width="512" height="512" fill="white" transform="translate(0.685059 0.800781)"/>
</clipPath>
</defs>
</svg>
