<svg width="555" height="513" viewBox="0 0 555 513" fill="none" xmlns="http://www.w3.org/2000/svg">
<g clip-path="url(#clip0_795_5286)">
<path d="M277.572 512.574C430.393 512.574 554.282 397.959 554.282 256.569C554.282 115.18 430.393 0.574219 277.572 0.574219C124.752 0.574219 0.861816 115.19 0.861816 256.569C0.861816 397.949 124.752 512.574 277.572 512.574Z" fill="white"/>
<path d="M231.695 258.564C226.339 202.437 195.692 159.024 163.243 161.658C130.793 164.291 108.836 211.861 114.197 267.981C115.192 278.569 117.164 289.043 120.088 299.272C131.642 339.351 156.564 366.971 182.65 364.889C206.816 362.953 225.165 336.053 230.742 299.267C232.721 285.788 233.041 272.119 231.695 258.564ZM177.454 308.816C170.77 309.353 164.24 305.763 158.731 299.271C151.321 290.551 145.775 276.64 144.249 260.652C141.587 232.8 152.138 209.197 167.819 207.939C183.499 206.681 198.368 228.244 201.024 256.103C202.703 273.726 199.1 289.647 192.25 299.271C188.277 304.877 183.21 308.352 177.454 308.816Z" fill="#E30613"/>
<path d="M278.078 483.376H277.082C257.208 483.285 235.741 480.323 217.343 476.048C249.066 421.711 254.201 368.189 254.201 368.189V192.239L149.776 101.03C108.614 134.054 82.6707 182.621 82.6707 236.789C82.6707 310.479 130.843 374.009 199.92 401.957L178.016 463.067C91.5541 427.556 31.2837 347.955 31.2837 255.439C31.2837 145.966 115.736 54.6615 228.053 33.0113C229.094 32.8365 230.147 32.7486 231.202 32.7487C240.425 32.7487 247.94 39.2157 247.94 47.1911C247.94 53.2612 243.605 58.4522 237.486 60.6258C217.713 64.4915 198.622 71.2372 180.834 80.6434L277.081 164.464L374.235 80.5938C356.468 71.2114 337.406 64.4788 317.663 60.6125C311.514 58.469 307.209 53.2844 307.209 47.1777C307.209 39.2024 314.705 32.7354 323.947 32.7354C325.002 32.7354 326.056 32.8234 327.096 32.9979C439.431 54.6462 523.865 145.972 523.865 255.425C523.865 347.924 463.604 427.52 377.142 463.054L355.214 401.956C424.287 374.012 472.492 310.477 472.492 236.788C472.492 182.628 446.549 134.072 405.399 101.038L300.965 192.236V368.186C300.965 368.186 306.093 421.711 337.823 476.074C319.424 480.294 297.958 483.286 278.078 483.402L278.078 483.376Z" fill="#E30613"/>
<path d="M430.688 240.673C437.68 277.723 413.065 328.787 365.427 363.37C357.716 368.964 356.038 372.066 350.479 374.973L339.595 343.579C346.175 340.477 348.64 339.023 357.28 332.752C379.699 316.477 391.764 294.603 388.296 276.204C385.935 263.685 376.139 251.306 359.795 263.172C347.416 272.154 339.988 279.226 329.621 290.377L329.842 200.254L405.145 136.134L404.456 176.127L364.56 207.436L364.917 233.958C368.413 230.769 372.11 227.805 375.985 225.085C402.137 206.105 425.498 213.133 430.681 240.62L430.688 240.673Z" fill="#E30613"/>
<path d="M277.572 500.094C132.5 500.094 14.4683 390.841 14.4683 256.56C14.4683 122.279 132.5 13.0356 277.572 13.0356C422.645 13.0356 540.676 122.279 540.676 256.56C540.676 390.841 422.645 500.094 277.572 500.094ZM277.572 16.2417C134.293 16.2417 17.6838 124.054 17.6838 256.569C17.6838 389.085 134.293 496.897 277.572 496.897C420.851 496.897 537.46 389.085 537.46 256.569C537.46 124.054 420.879 16.2417 277.572 16.2417Z" fill="#E30613"/>
</g>
<defs>
<clipPath id="clip0_795_5286">
<rect width="553.421" height="512" fill="white" transform="translate(0.861816 0.574219)"/>
</clipPath>
</defs>
</svg>
