<svg width="1024" height="181" viewBox="0 0 1024 181" fill="none" xmlns="http://www.w3.org/2000/svg">
<g clip-path="url(#clip0_806_523)">
<path d="M146.93 76.969H103.686L90.3284 35.8955L76.9711 76.969H33.7271L68.6229 102.515L55.2656 143.588L90.3284 118.21L125.391 143.588L112.034 102.515L146.93 76.969Z" fill="#000033"/>
<path d="M89.8275 7.84551C112.034 7.84551 132.905 16.3608 148.599 32.0555C164.294 47.5833 172.809 68.454 172.809 90.6604C172.809 112.867 164.294 133.571 148.599 149.098C133.072 164.626 112.201 173.141 89.9945 173.141C67.788 173.141 46.9173 164.459 31.3895 148.931C15.8617 133.404 7.34649 112.533 7.34649 90.1596C7.34649 44.7449 44.2459 7.84551 89.8275 7.84551ZM89.6605 0.499023C40.4057 0.499023 0 40.9047 0 90.1596C0 140.416 39.9048 180.321 89.9945 180.488C139.75 180.488 179.822 140.416 179.989 90.6604C179.989 40.7377 139.75 0.499023 89.6605 0.499023Z" fill="#CC0000"/>
<path d="M295.028 39.9033H206.369L205.535 71.6268L208.039 71.7938L208.206 71.6268C217.556 52.2588 226.572 43.2426 236.757 43.2426H242.1V128.896C242.1 134.907 237.258 137.578 225.404 138.079H225.07V140.584H276.495V138.079H276.161C264.307 137.745 259.465 135.074 259.465 128.896V43.4096H264.807C274.825 43.4096 284.008 52.4257 293.526 71.7938L293.693 71.9607L296.197 71.7938L295.028 39.9033Z" fill="#000033"/>
<path d="M349.125 123.052L348.958 123.385C343.114 131.066 337.938 135.407 328.922 135.407C315.064 135.407 306.716 124.888 306.716 107.19V104.017H350.795V103.684C351.463 94.6674 348.958 86.4861 343.782 80.9762C338.773 75.6333 331.427 72.7949 322.578 72.7949C304.211 72.7949 289.852 88.3227 289.852 108.192C289.852 128.061 303.376 141.919 322.578 141.919C334.933 141.919 343.949 136.576 351.129 125.055L351.296 124.721L349.125 123.052ZM306.883 100.678C307.885 84.8164 313.061 76.1342 321.409 76.1342C325.082 76.1342 328.087 77.303 330.091 79.6405C333.597 83.4807 334.933 90.4933 333.931 100.845H306.883V100.678Z" fill="#000033"/>
<path d="M425.428 138.246C419.418 137.077 417.247 135.407 410.902 126.558L394.039 103.183L405.058 89.4916C412.572 80.3085 416.579 77.4701 424.593 76.1344H424.927V73.7969H396.543V76.1344H396.877C400.717 76.8023 402.888 78.138 403.723 79.9746C404.558 82.3121 403.389 85.4845 399.883 89.9925L392.035 100.177L381.683 84.9836C379.68 81.9782 378.678 79.9746 379.179 78.6389C379.68 77.4701 381.683 76.6353 385.524 76.1344H385.857V73.7969H350.962V76.1344H351.296C357.974 77.1362 360.145 78.8058 366.489 87.655L382.351 109.528L369.495 125.222C362.315 133.904 358.141 136.91 351.129 138.246H350.795V140.583H379.513V138.246H379.179C374.504 137.578 371.832 136.242 370.997 134.238C370.163 132.068 371.331 129.062 374.671 124.721L384.355 112.533L395.708 129.229C397.712 132.235 398.881 134.238 398.213 135.741C397.712 137.077 395.374 137.912 391.033 138.413H390.699V140.75H425.595V138.413L425.428 138.246Z" fill="#000033"/>
<path d="M493.884 134.238C490.044 135.908 487.372 136.075 485.703 134.906C484.2 133.904 483.365 131.567 483.365 127.894V94.5005C483.365 80.1415 475.184 73.1289 458.154 73.1289C441.958 73.1289 431.105 79.1397 431.105 88.1558C431.105 93.3317 434.778 97.005 439.787 97.005C445.297 97.005 448.803 93.6657 448.803 88.1558C448.803 85.4844 447.468 82.8129 445.13 80.4754C447.635 78.1379 451.976 76.6352 456.484 76.6352C464.331 76.6352 467.837 81.3102 467.837 92.163V102.348C466.669 102.849 464.164 103.183 460.992 103.851C454.313 105.019 444.295 106.689 437.283 110.696C431.773 113.702 428.434 119.211 428.434 125.556C428.434 129.897 430.103 133.904 432.942 136.743C436.281 140.082 441.123 141.752 447.134 141.752C454.814 141.752 461.827 138.079 468.338 130.398H468.505C469.507 138.412 472.846 141.418 480.694 141.418C485.87 141.418 489.543 139.748 494.719 136.409L494.886 136.242L494.051 134.238H493.884ZM467.837 105.52V126.391C464.331 131.233 459.656 134.238 455.482 134.238C448.803 134.238 445.13 130.231 445.13 122.885C445.297 113.869 448.469 109.36 467.837 105.52Z" fill="#000033"/>
<path d="M527.444 98.6746C515.423 95.5022 510.915 92.3299 510.915 86.82C510.915 80.6423 515.59 76.1342 522.268 76.1342C530.95 76.1342 535.125 81.4771 543.139 94.6674L543.306 94.8343H545.81V72.6279H543.807L540.301 76.969C535.626 74.2976 529.615 72.6279 524.105 72.6279C509.412 72.6279 499.561 81.3101 499.561 93.9995C499.561 105.52 506.907 109.861 520.599 113.701C534.29 117.542 538.631 120.881 538.631 127.56C538.631 132.903 534.457 138.245 526.609 138.245C516.758 138.245 511.415 133.737 501.898 117.375L501.732 117.208H499.227V141.752H501.231L505.906 136.743C510.414 139.581 519.597 141.752 524.773 141.752C541.803 141.752 549.317 130.565 549.317 119.378C549.317 107.19 540.968 102.348 527.444 98.6746Z" fill="#000033"/>
<path d="M676.044 113.034C669.031 128.395 656.843 136.91 641.983 136.91C616.103 136.91 607.087 111.698 607.087 90.1595C607.087 66.2834 615.268 40.9046 638.31 40.9046C652.669 40.9046 663.354 50.7556 671.536 71.9602V72.1272H674.04V36.7305H672.204L666.026 43.4091C658.345 39.5689 649.663 37.5653 640.313 37.5653C610.259 37.5653 587.552 60.9405 587.552 91.8291C587.552 107.023 592.227 120.046 601.076 129.062C609.925 138.246 622.281 143.088 636.807 143.088C662.687 143.088 674.374 125.222 679.049 114.703L679.216 114.369L676.211 112.7L676.044 113.034Z" fill="#000033"/>
<path d="M753.015 136.075L752.18 134.071L751.846 134.238C748.006 135.908 745.334 136.075 743.665 134.906C742.162 133.904 741.327 131.567 741.327 127.894V94.5005C741.327 80.1415 733.146 73.1289 716.115 73.1289C699.92 73.1289 689.067 79.1397 689.067 88.1558C689.067 93.3317 692.74 97.005 697.749 97.005C703.259 97.005 706.765 93.6657 706.765 88.1558C706.765 85.4844 705.43 82.8129 703.092 80.4754C705.597 78.1379 709.938 76.6352 714.446 76.6352C722.293 76.6352 725.799 81.3102 725.799 92.163V102.348C724.631 102.849 722.126 103.183 718.954 103.851C712.275 105.019 702.257 106.689 695.245 110.696C689.735 113.702 686.396 119.211 686.396 125.556C686.396 129.897 688.065 133.904 690.904 136.743C694.243 140.082 699.085 141.752 705.096 141.752C712.776 141.752 719.789 138.079 726.3 130.398H726.467C727.469 138.412 730.808 141.418 738.656 141.418C743.832 141.418 747.505 139.748 752.681 136.409L753.015 136.075ZM725.799 105.52V126.391C722.293 131.233 717.618 134.238 713.444 134.238C706.765 134.238 703.092 130.231 703.092 122.885C703.259 113.869 706.431 109.36 725.799 105.52Z" fill="#000033"/>
<path d="M796.426 72.6279C788.745 72.6279 781.733 75.8003 774.887 82.4789V73.4628L749.342 74.6315V76.969H749.676C757.857 77.136 759.526 79.8074 759.526 83.8146V160.619C759.526 164.793 758.024 165.628 749.676 165.795H749.342V168.132H788.912V165.795H788.578C777.559 165.628 775.221 164.793 775.221 160.619V137.911C780.731 140.75 785.573 141.919 792.085 141.919C810.117 141.919 822.806 127.393 822.806 106.355C822.973 85.8182 812.622 72.6279 796.426 72.6279ZM775.221 86.1521C779.896 81.3101 784.237 79.1396 789.246 79.1396C799.431 79.1396 805.943 90.1593 805.943 107.023C805.943 127.727 800.433 138.245 789.58 138.245C782.568 138.245 777.893 134.739 775.054 127.56V86.1521H775.221Z" fill="#000033"/>
<path d="M845.681 61.9422C851.525 61.9422 855.532 57.935 855.532 51.9242C855.532 45.9135 851.692 42.0732 845.681 42.0732C839.837 42.0732 835.997 46.2474 835.997 52.2581C835.997 58.1019 839.837 61.9422 845.681 61.9422Z" fill="#000033"/>
<path d="M854.363 133.07V73.4629L828.149 74.6316V76.9692H828.483C837.332 77.1361 838.668 80.3085 838.668 83.8148V133.07C838.668 137.077 836.832 138.079 828.483 138.246H828.149V140.583H864.882V138.246H864.548C855.532 138.079 854.363 137.077 854.363 133.07Z" fill="#000033"/>
<path d="M912.968 126.057C909.462 132.402 905.621 135.574 901.28 135.574C895.603 135.574 893.266 132.402 893.266 124.054V79.4739H913.636V74.2979H893.266V50.2549L877.571 55.9317V74.131L864.214 77.3033V79.6408H877.571V122.551C877.571 135.574 883.248 141.919 895.103 141.919C903.952 141.919 910.463 137.244 915.305 127.393L915.472 127.059L913.135 125.556L912.968 126.057Z" fill="#000033"/>
<path d="M984.262 134.238C980.422 135.908 977.75 136.075 976.081 134.906C974.578 133.904 973.743 131.567 973.743 127.894V94.5005C973.743 80.1415 965.562 73.1289 948.531 73.1289C932.336 73.1289 921.483 79.1397 921.483 88.1558C921.483 93.3317 925.156 97.005 930.165 97.005C935.675 97.005 939.181 93.6657 939.181 88.1558C939.181 85.4844 937.846 82.8129 935.508 80.4754C938.013 78.1379 942.354 76.6352 946.862 76.6352C954.709 76.6352 958.215 81.3102 958.215 92.163V102.348C957.047 102.849 954.542 103.183 951.37 103.851C944.691 105.019 934.673 106.689 927.661 110.696C922.151 113.702 918.812 119.211 918.812 125.556C918.812 129.897 920.481 133.904 923.32 136.743C926.659 140.082 931.501 141.752 937.512 141.752C945.192 141.752 952.205 138.079 958.716 130.398H958.883C959.885 138.412 963.224 141.418 971.072 141.418C976.248 141.418 979.921 139.748 985.097 136.409L985.264 136.242L984.429 134.238H984.262ZM958.215 105.52V126.391C954.709 131.233 950.034 134.238 945.86 134.238C939.181 134.238 935.508 130.231 935.508 122.885C935.675 113.869 938.847 109.36 958.215 105.52Z" fill="#000033"/>
<path d="M1013.82 133.07V37.0645L986.934 37.8993H986.6V40.2368H986.934C996.951 40.5707 998.12 42.7413 998.12 47.2494V133.07C998.12 136.91 996.785 138.079 988.102 138.246H987.768V140.583H1024V138.246H1023.67C1015.15 138.079 1013.82 136.91 1013.82 133.07Z" fill="#000033"/>
</g>
<defs>
<clipPath id="clip0_806_523">
<rect width="1024" height="179.989" fill="white" transform="translate(0 0.499023)"/>
</clipPath>
</defs>
</svg>
