<svg width="387" height="513" viewBox="0 0 387 513" fill="none" xmlns="http://www.w3.org/2000/svg">
<g clip-path="url(#clip0_876_1863)">
<path d="M259.77 237.893L260.32 192.085C260.32 170.626 237.898 167.049 221.391 167.187C232.395 163.473 245.739 157.282 255.368 146.828C265.547 137.474 272.701 124.268 271.463 105.835C269.399 74.7461 230.47 59.3393 166.091 65.5296C164.991 65.6671 164.028 65.8047 162.927 65.8047C159.901 42.8321 155.224 20.5473 148.071 0.0507812L144.907 3.21467C136.378 29.7638 131.288 50.9482 128.262 70.6193C89.8828 77.2222 62.9209 86.0261 62.9209 86.0261L59.757 89.19C59.757 89.19 90.8457 86.4387 126.199 86.8514C122.209 127.157 126.336 165.398 126.199 237.618C68.9736 235.967 18.764 245.459 6.52114 260.865C2.53189 264.167 0.330925 267.881 0.468485 271.733C1.15629 289.203 53.1541 305.297 126.199 311.488L129.363 410.806L132.527 407.642L137.616 340.238C137.616 339.137 137.754 338.174 138.029 337.349C139.542 337.624 141.055 339.55 141.055 342.989L143.256 431.715L146.42 428.552L151.923 356.332C151.923 354.682 152.06 353.444 152.335 352.343C153.848 352.618 155.362 354.819 155.224 358.946L157.7 451.387L160.864 448.223L165.266 313.689C173.657 313.964 182.186 314.101 190.99 314.101C200.206 314.101 209.285 313.964 218.227 313.689L222.629 454L225.793 450.836L229.507 377.379C229.507 375.866 229.644 374.628 229.919 373.665C231.295 373.94 232.671 376.141 232.671 379.993L236.522 483.026L239.686 479.862L243.538 390.86C243.538 389.622 243.813 388.521 244.088 387.696C245.876 387.696 247.802 389.897 247.802 394.161L250.966 512.051L254.13 508.887L258.807 311.35C321.259 305.848 368.718 293.33 380.548 278.748C384.4 275.447 386.601 272.008 386.601 268.569C385.775 249.585 327.862 234.729 259.77 237.893ZM125.648 290.854C75.5765 286.039 41.7366 275.859 41.7366 263.066C41.7366 262.103 42.0117 261.278 42.562 260.315C54.2546 252.062 90.2955 246.834 126.336 241.469C126.336 255.638 126.061 271.045 125.648 287.965V290.854ZM227.718 118.353C229.644 132.521 225.517 143.251 218.227 151.367C205.158 163.197 184.662 168.562 168.017 171.038C168.292 144.352 167.88 116.564 165.541 89.3275C197.73 92.7665 225.38 100.883 227.718 118.353ZM218.227 293.605C210.386 293.88 202.407 294.017 194.154 294.017C184.524 294.017 175.033 293.88 165.954 293.467L166.366 282.05C165.541 253.162 167.329 216.846 167.88 178.054C191.402 180.805 219.602 187.408 219.19 203.915L218.227 293.605ZM342.856 271.32C331.164 280.537 300.213 287.69 259.22 291.266L259.77 242.02C306.678 248.072 344.782 254.95 344.782 266.23C344.782 267.881 344.095 269.669 342.856 271.32Z" fill="#061922"/>
<path d="M386.601 268.844C385.775 249.586 327.862 234.729 259.77 238.031L260.32 192.223C260.183 163.886 221.391 166.637 208.322 168.425C223.592 165.674 274.626 152.881 271.463 106.11C269.399 75.0215 230.47 59.6147 166.091 65.8049C164.991 65.9425 164.028 66.0801 162.927 66.0801C159.901 43.1075 155.224 20.8227 148.071 0.326172C139.129 28.1134 133.902 49.9855 131.013 70.3444C91.1209 76.9473 62.921 86.3014 62.921 86.3014C62.921 86.3014 94.0097 83.5502 129.363 83.9629C125.373 124.818 129.5 163.61 129.363 238.031C61.683 235.692 2.94464 248.76 3.63245 268.844C4.18269 286.314 56.3181 302.409 129.363 308.599L132.527 407.918L137.616 340.513C137.754 332.122 144.082 332.947 144.082 340.1L146.42 428.827L151.923 356.608C151.785 346.841 158.663 347.391 158.388 356.057L160.864 448.498L165.266 310.663C174.62 310.938 184.249 311.213 194.016 311.213C203.233 311.213 212.312 311.075 221.253 310.8L225.655 451.112L229.369 377.654C229.369 368.3 235.697 368.713 235.697 377.104L239.549 480.137L243.4 391.135C243.675 382.332 250.691 382.744 250.829 391.135L253.992 509.025L258.669 308.737V308.599C332.952 302.409 386.601 286.314 386.601 268.844ZM230.882 115.189C236.11 153.981 196.492 166.774 168.017 171.039C168.292 143.114 167.88 114.089 165.266 85.7512C198.831 89.0527 228.406 97.0312 230.882 115.189ZM41.7367 263.067C41.7367 251.236 85.6185 244.909 129.5 238.306C129.5 252.474 129.225 267.881 128.812 284.801L128.95 291.267C76.9522 286.452 41.7367 276.135 41.7367 263.067ZM165.954 293.467L166.366 282.05C165.541 252.199 167.467 214.645 167.88 174.615C191.815 177.091 222.766 183.557 222.216 200.889L221.391 293.605C212.587 293.88 203.508 294.018 194.154 294.018C184.524 293.88 175.17 293.743 165.954 293.467ZM259.22 291.267L259.908 238.443C308.191 244.634 347.946 251.649 347.946 263.067C347.946 276.135 311.63 286.589 259.22 291.267Z" fill="#CE1141"/>
</g>
<defs>
<clipPath id="clip0_876_1863">
<rect width="386.138" height="512" fill="white" transform="translate(0.462402 0.0507812)"/>
</clipPath>
</defs>
</svg>
