<svg width="943" height="513" viewBox="0 0 943 513" fill="none" xmlns="http://www.w3.org/2000/svg">
<g clip-path="url(#clip0_879_3782)">
<path d="M729.435 251.665C729.435 251.665 740.594 227.105 735.566 196.983C735.566 196.983 714.372 189.171 675.868 196.983C675.868 196.983 657.447 238.254 633.998 258.345C633.998 258.345 651.874 216.495 641.246 185.262C641.246 185.262 673.62 172.432 713.268 175.218C752.883 178.004 761.793 186.386 761.793 186.386C761.793 186.386 751.759 233.808 729.433 251.665H729.435ZM703.854 338.123C722.275 324.659 720.314 298.274 720.314 298.274C724.776 308.722 727.276 322.682 724.776 332.654C722.277 342.605 715.818 352.574 688.901 355.046C661.992 357.554 646.547 349.073 646.547 349.073C658.524 337.128 670.14 304.751 670.14 304.751C676.129 327.689 671.04 338.299 671.04 338.299C683.997 342.271 703.856 338.123 703.856 338.123H703.854ZM746.241 333.764C752.727 381.111 710.619 400.984 687.223 400.984C663.815 400.984 631.64 391.047 619.363 351.295C607.086 311.53 607.086 262.413 622.872 238.439C622.872 238.439 612.36 285.799 618.2 312.706C624.045 339.6 635.157 362.403 656.793 366.51C678.442 370.589 710.619 369.424 722.303 355.96C734.019 342.51 738.686 323.223 726.997 296.899C715.286 270.604 691.898 236.674 730.54 202.786C730.54 202.786 713.549 223.23 719.98 253.068C726.403 282.877 739.735 286.432 746.241 333.764ZM595.085 137.944C506.951 125.82 434.656 143.821 434.656 143.821C505.65 120.945 570.199 123.804 602.019 127.449C599.042 131.1 596.753 134.613 595.083 137.944H595.085ZM590.948 159.86C504.811 153.895 436.501 175.006 436.501 175.006C498.611 151.122 556.741 147.974 591.275 148.935C590.485 153.083 590.526 156.781 590.948 159.86ZM445.861 284.396C412.977 244.064 426.82 190.167 426.82 190.167C426.82 190.167 428.054 236.397 468.403 277.238C508.768 318.094 558.859 329.147 558.859 329.147C558.859 329.147 478.75 324.753 445.859 284.396H445.861ZM622.845 108.829C618.314 111.975 614.411 115.06 611.012 118.112C516.693 95.8355 434.206 111.622 434.206 111.622C536.346 84.836 622.845 108.829 622.845 108.829ZM549.29 59.4749L549.31 59.4552L549.338 59.4415C550.754 58.8363 579.464 46.8425 608.77 53.5035C638.833 60.3473 657.486 80.7175 657.486 80.7175C657.486 80.7175 630.488 72.626 580.456 73.5181C580.456 73.5181 578.487 69.8752 583.637 62.2474C583.637 62.2474 575.618 59.9052 549.281 59.4749H549.286H549.29ZM770.679 67.81C786.062 64.7173 800.101 72.6241 806.697 78.7742C806.697 78.7742 771.129 72.1957 754.458 87.5534C754.458 87.5534 755.337 70.8674 770.679 67.81ZM940.195 185.113C905.438 166.16 866.02 160.269 835.78 159.09C835.78 159.09 823.476 159.314 821.576 159.261C822.197 154.229 822.039 149.719 821.242 145.734C828.75 145.51 838.252 145.21 839.643 145.141L840.787 145.072C901.384 143.09 933.424 159.102 933.424 159.102L930.351 156.765C900.838 143.09 869.61 138.085 842.598 137.321H841.516C841.516 137.321 828.469 137.301 818.544 137.484C815.826 131.75 811.853 127.425 807.849 124.264C820.609 124.189 835.393 124.23 843.907 124.612L844.528 124.631C891.153 125.123 916.585 136.167 916.585 136.167L913.526 133.762C890.397 123.894 866.765 119.426 844.61 117.949C844.61 117.949 815.724 116.402 793.456 116.532C799.907 121.415 804.841 128.443 805.316 138.543C806.829 169.653 774.693 182.191 774.693 182.191C782.242 177.165 795.784 160.125 792.283 138.032C788.754 115.966 760.155 105.477 760.155 105.477C760.155 105.477 726.657 119.99 719.389 147.314C719.389 147.314 719.955 118.874 672.504 100.451C672.504 100.451 694.829 93.7626 718.842 95.4249C742.836 97.1147 760.155 105.477 760.155 105.477C760.155 105.477 764.576 93.7842 788.119 89.7856C811.684 85.787 837.155 91.5501 837.155 91.5501C832.455 82.9693 827.038 70.4509 803.351 60.7796C779.684 51.1083 758.449 59.86 758.449 59.86C758.449 59.86 756.909 48.4321 739.702 37.3029C711.737 19.2218 637.78 8.4462 623.515 7.67006C609.277 6.92143 634.21 16.0956 644.197 21.7958C655.555 28.2584 668.26 39.2442 669.35 49.672C669.629 52.4779 668.969 54.9163 667.715 56.952C666.707 54.038 664.603 50.3125 660.903 45.5574C640.643 19.5479 589.263 8.29687 550.697 10.865C512.138 13.439 481.495 28.0206 481.495 28.0206C481.937 31.583 467.277 44.0111 426.837 48.4734C388.305 52.696 361.109 45.6537 351.328 44.2036L350.585 44.0602C346.62 43.569 343.643 43.7478 342.397 46.6008L342.268 46.9958L342.185 47.5263C342.014 49.5148 343.234 52.2598 343.234 52.2598L342.668 51.1771C345.413 56.4411 361.805 86.6535 383.407 102.161C383.407 102.161 396.316 99.4234 411.631 97.7749C411.631 97.7749 174.936 212.94 79.0424 392.873C120.824 387.968 175.8 384.809 235.479 390.067L235.076 390.026H235.042C243.661 375.533 286.906 294.604 389.75 244.882C389.75 244.882 313.708 297.732 286.682 396.62C321.064 402.45 356.183 411.494 390.573 424.877C501.107 467.94 594.281 512.964 699.317 512.037L717.172 511.253L717.139 511.17C689.235 453.028 661.766 426.455 661.766 426.455C682.537 430.181 699.317 424.262 699.624 424.16C701.184 423.594 702.532 423.036 703.663 422.519C738.02 404.002 743.748 372.66 746.569 350.207C749.798 324.244 745.194 307.641 745.194 307.641C745.194 307.641 804.668 229.593 819.764 168.203C819.764 168.203 827.38 167.162 833.239 167.284C904.11 168.081 942.84 187.77 942.84 187.77L940.197 185.107L940.195 185.113ZM863.499 52.2814C863.717 51.7842 863.888 51.3205 864.024 50.8647L864.336 49.727L864.33 49.672C862.961 45.7697 860.249 45.4828 854.513 45.9328C846.169 47.5204 838.456 48.5343 831.956 49.1748H831.97L830.907 49.2908L830.151 49.3595L827.337 49.6189L826.934 49.6327C818.567 50.3204 813.268 50.3538 813.268 50.3538C834.652 66.5211 837.154 91.5579 837.154 91.5579L838.25 90.6246C854.661 78.7133 863.497 52.2814 863.497 52.2814H863.499Z" fill="black"/>
<path d="M641.248 185.265C651.876 216.497 634 258.348 634 258.348C657.449 238.257 675.87 196.986 675.87 196.986C714.374 189.173 735.568 196.986 735.568 196.986C740.596 227.108 729.437 251.667 729.437 251.667C751.762 233.81 761.797 186.389 761.797 186.389C761.797 186.389 752.886 178.005 713.272 175.22C673.622 172.434 641.25 185.265 641.25 185.265H641.248ZM770.681 67.8126C755.339 70.87 754.46 87.556 754.46 87.556C771.131 72.1983 806.699 78.7768 806.699 78.7768C800.105 72.6266 786.064 64.7198 770.681 67.8126ZM703.856 338.127C703.856 338.127 683.997 342.275 671.04 338.304C671.04 338.304 676.129 327.693 670.14 304.755C670.14 304.755 658.526 337.133 646.547 349.078C646.547 349.078 661.992 357.556 688.901 355.051C715.818 352.579 722.275 342.609 724.776 332.659C727.276 322.689 724.776 308.726 720.314 298.279C720.314 298.279 722.277 324.662 703.854 338.127H703.856ZM608.774 53.5041C579.467 46.8431 550.758 58.8369 549.341 59.4421C550.731 58.8487 578.145 47.407 606.731 53.0738C590.489 49.9948 583.643 62.248 583.643 62.248C578.493 69.8758 580.462 73.5187 580.462 73.5187C630.492 72.6266 657.492 80.7181 657.492 80.7181C657.492 80.7181 638.837 60.3479 608.774 53.5041Z" fill="#BFC0BF"/>
<path d="M819.764 168.211C804.668 229.601 745.194 307.649 745.194 307.649L745.221 307.621C790.171 269.286 820.131 201.481 833.239 167.291C827.38 167.17 819.764 168.211 819.764 168.211ZM821.576 159.263C823.476 159.318 835.78 159.092 835.78 159.092C836.918 155.264 838.307 150.387 839.643 145.145C838.254 145.214 828.75 145.512 821.242 145.738C822.039 149.723 822.195 154.229 821.576 159.263ZM719.98 253.07C713.549 223.232 730.539 202.787 730.539 202.787C691.9 236.676 715.286 270.606 726.997 296.901C738.688 323.223 734.021 342.51 722.303 355.962C710.619 369.426 678.444 370.591 656.792 366.512C635.155 362.405 624.045 339.604 618.2 312.708C612.362 285.801 622.872 238.441 622.872 238.441C607.088 262.413 607.088 311.531 619.363 351.297C631.64 391.049 663.815 400.986 687.223 400.986C710.617 400.986 752.725 381.113 746.241 333.766C739.735 286.434 726.405 282.879 719.98 253.07ZM864.719 46.589L864.637 45.8188L864.576 45.4238L864.366 44.7558L864.236 44.408L863.957 43.8283L863.807 43.5493L863.44 43.0325L863.236 42.8085L862.833 42.3861L862.623 42.1955L862.153 41.8418L861.929 41.6846L861.446 41.4193L861.222 41.2896L860.73 41.0716L860.52 40.9694L860.056 40.8063L859.852 40.7454L859.402 40.6235L859.253 40.5764L858.838 40.5017L858.716 40.4742L858.396 40.4329L858.321 40.4133L857.96 40.372C828.421 40.6923 804.169 30.6732 804.169 30.6732L802.18 29.958C736.515 5.93701 668.362 -0.940178 607.682 0.162136L607.662 0.101227C580.562 0.352736 560.777 2.56718 560.777 2.56718C473.651 9.9297 411.195 30.8029 411.195 30.8029C411.195 30.8029 387.48 37.4777 355.91 35.9038C355.91 35.9038 344.185 35.6995 341.869 43.1642C339.886 47.9173 339.613 53.5703 344.075 65.9453C349.225 80.2204 369.827 107.053 369.983 107.252C307.667 132.56 145.386 223.555 0 406.525C0 406.525 30.7253 398.544 79.0463 392.885C174.94 212.952 411.635 97.7867 411.635 97.7867C396.32 99.4353 383.411 102.172 383.411 102.172C361.809 86.6653 345.417 56.4528 342.672 51.1889L343.238 52.2715C343.238 52.2715 342.018 49.5266 342.189 47.5381L342.271 47.0075L342.401 46.6126C343.647 43.7595 346.626 43.5827 350.589 44.072L351.332 44.2154C361.115 45.6655 388.309 52.7077 426.841 48.4852C467.281 44.0248 481.941 31.5948 481.499 28.0324C481.499 28.0324 512.142 13.4508 550.701 10.8768C589.266 8.30865 640.647 19.5597 660.907 45.5692C664.607 50.3223 666.711 54.0478 667.719 56.9637C668.973 54.9281 669.633 52.4896 669.354 49.6837C668.264 39.256 655.559 28.2721 644.201 21.8076C634.214 16.1074 609.281 6.93322 623.519 7.68185C637.784 8.45799 711.741 19.2316 739.706 37.3146C756.914 48.4439 758.453 59.8718 758.453 59.8718C758.453 59.8718 779.688 51.1201 803.355 60.7914C827.042 70.4627 832.457 82.9791 837.159 91.5619C837.159 91.5619 834.66 66.527 813.274 50.3577C813.274 50.3577 818.573 50.3243 826.94 49.6366L827.343 49.6228L830.156 49.3635L830.913 49.2947L831.976 49.1788H831.962C838.462 48.5382 846.172 47.5243 854.519 45.9367C860.255 45.4867 862.966 45.7736 864.336 49.6759L864.342 49.7309L864.029 50.8686C863.894 51.3244 863.723 51.7882 863.505 52.2853C863.505 52.2853 854.669 78.7172 838.258 90.6285L837.161 91.5619C837.161 91.5619 811.688 85.8007 788.125 89.7974C764.581 93.7959 760.16 105.489 760.16 105.489C760.16 105.489 788.76 115.978 792.289 138.044C795.79 160.137 782.246 177.177 774.699 182.203C774.699 182.203 806.833 169.665 805.322 138.555C804.844 128.455 799.913 121.426 793.462 116.544C815.732 116.414 844.616 117.96 844.616 117.96C844.752 109.344 843.321 102.249 840.038 96.1047C857.131 81.2716 863.446 58.6752 864.346 49.7663L864.36 49.7525V49.7329C864.442 49.4322 864.597 48.6227 864.625 48.4458L864.672 47.935C864.713 47.6343 864.727 47.3357 864.727 47.0488V46.5929L864.719 46.589ZM672.504 100.459C719.953 118.882 719.389 147.322 719.389 147.322C726.657 119.998 760.155 105.485 760.155 105.485C760.155 105.485 742.838 97.1226 718.842 95.4327C694.827 93.7704 672.504 100.459 672.504 100.459ZM807.849 124.268C811.855 127.427 815.826 131.752 818.544 137.488C828.471 137.303 841.516 137.325 841.516 137.325C842.455 133.13 843.286 128.907 843.86 124.957L843.907 124.618C835.391 124.236 820.607 124.195 807.849 124.27V124.268ZM699.626 424.166C699.319 424.268 682.539 430.186 661.768 426.461C661.768 426.461 689.235 453.036 717.141 511.176L717.174 511.259L718.265 511.19C715.567 484.691 704.251 440.314 701.636 432.106L699.626 424.166ZM468.407 277.236C428.055 236.393 426.823 190.165 426.823 190.165C426.823 190.165 412.981 244.062 445.865 284.394C478.756 324.753 558.865 329.145 558.865 329.145C558.865 329.145 508.772 318.092 468.409 277.236H468.407ZM235.042 390.032H235.076L235.479 390.073C236.984 390.203 241.8 390.652 242.067 390.692C242.721 390.747 250.992 391.611 251.066 391.617C262.805 392.932 274.692 394.58 286.682 396.624C313.708 297.736 389.75 244.886 389.75 244.886C286.908 294.61 243.661 375.538 235.042 390.03V390.032ZM434.208 111.62C434.208 111.62 516.694 95.8336 611.014 118.11C614.413 115.058 618.318 111.973 622.847 108.827C622.847 108.827 536.348 84.834 434.208 111.62ZM434.658 143.819C434.658 143.819 506.952 125.818 595.086 137.942C596.755 134.611 599.044 131.098 602.023 127.447C570.201 123.804 505.65 120.943 434.658 143.819ZM606.729 53.0693C578.143 47.4025 550.729 58.8442 549.339 59.4376L549.312 59.4513L549.292 59.471H549.286C575.624 59.8993 583.643 62.2434 583.643 62.2434C583.643 62.2434 590.489 49.9922 606.731 53.0693H606.729ZM436.503 175.004C436.503 175.004 504.813 153.891 590.95 159.858C590.528 156.779 590.487 153.081 591.277 148.933C556.743 147.972 498.611 151.12 436.503 175.004Z" fill="#0085CA"/>
</g>
<defs>
<clipPath id="clip0_879_3782">
<rect width="942.84" height="512" fill="white" transform="translate(0 0.0507812)"/>
</clipPath>
</defs>
</svg>
