<svg width="1024" height="202" viewBox="0 0 1024 202" fill="none" xmlns="http://www.w3.org/2000/svg">
<g clip-path="url(#clip0_824_201)">
<path fill-rule="evenodd" clip-rule="evenodd" d="M984.738 69.9471H1023.47C1023.76 69.9471 1024 69.6911 1024 69.3754V31.1802C1023.99 21.8447 1020.9 14.25 1014.65 8.9423C1008.9 4.06123 1000.26 1.11723 988.715 0.536966C988.425 0.519899 988.186 0.767363 988.186 1.07456V15.4788C988.186 15.7604 988.399 15.9908 988.664 16.0164C998.793 16.7247 1006.5 19.993 1006.5 31.3764L984.738 31.385C984.448 31.385 984.209 31.641 984.209 31.9567V69.3839C984.209 69.6911 984.448 69.9471 984.738 69.9471ZM146.935 100.863H99.968C99.2341 100.863 98.7648 101.52 98.7648 102.169V127.393C98.7648 128.187 99.3621 128.699 99.968 128.699H116.651V149.008C116.651 164.112 112.964 172.219 99.968 172.219C89.1136 172.219 81.408 165.64 81.408 145.177V86.2031C81.408 66.6106 87.2448 57.4287 100.173 57.4287C111.829 57.4287 116.582 64.5882 116.582 77.9599V85.5546C116.582 86.3482 117.188 86.8516 117.794 86.8516H146.671C147.405 86.8516 147.874 86.2031 147.874 85.5546V76.6458C148.139 44.9188 131.26 28.1423 100.71 28.1423C70.1611 28.1423 50.2613 46.2927 50.2613 84.4623V147.566C50.2613 185.156 73.4379 201.497 99.1659 201.497C127.974 201.497 148.07 190.148 148.07 148.147V102.092C148.083 101.772 147.972 101.459 147.761 101.218C147.55 100.977 147.255 100.825 146.935 100.795V100.863ZM236.843 168.072H191.684V32.6052C191.684 31.8031 191.087 31.2996 190.481 31.2996H162.065C161.331 31.2996 160.87 31.9482 160.87 32.6052V197.205C160.87 197.998 161.468 198.502 162.065 198.502H236.774C237.508 198.502 237.978 197.853 237.978 197.205V169.446C237.978 168.652 237.38 168.14 236.774 168.14H236.843V168.072ZM661.205 84.889C661.205 46.9412 680.695 28.4324 710.511 28.4324C739.925 28.4324 759.689 47.0095 759.552 84.889V145.032C759.552 183.492 741.265 201.198 710.511 201.198C679.757 201.198 661.205 183.85 661.205 145.032V84.889ZM710.511 172.356C722.97 172.356 728.132 163.251 728.132 143.88V86.2628C728.132 66.8922 723.106 57.497 710.511 57.497C697.916 57.497 692.89 67.2506 692.89 86.2628V143.88C692.89 163.327 698.052 172.356 710.511 172.356ZM820.864 28.4324C791.049 28.4324 771.55 46.9412 771.55 84.889V145.032C771.55 183.859 790.11 201.198 820.864 201.198C851.618 201.198 869.905 183.492 869.905 145.032V84.889C870.042 47.0095 850.278 28.4324 820.864 28.4324ZM838.485 143.888C838.485 163.259 833.323 172.364 820.864 172.364C808.405 172.364 803.243 163.327 803.243 143.888V86.2714C803.243 67.2591 808.269 57.5055 820.864 57.5055C833.459 57.5055 838.485 66.8922 838.485 86.2714V143.888ZM557.099 31.2484H599.706V31.3935C628.514 31.3935 650.223 47.2228 650.223 86.2628V143.59C650.223 182.263 629.052 198.459 599.364 198.459H557.099C556.493 198.459 555.887 197.947 555.887 197.153V32.6991C555.887 31.9738 556.356 31.2484 557.099 31.2484ZM598.033 168.021C610.893 168.021 618.94 159.197 618.94 138.598L619 138.666V88.4303C619 67.609 610.56 59.2207 597.76 59.2207H586.035V168.021H598.033ZM401.732 28.1423H401.263C371.917 28.1423 356.446 46.2159 356.446 73.3263C356.446 101.546 374.673 114.679 389.709 125.508L392.619 127.615L396.109 130.15L396.117 130.158L396.126 130.167C406.741 137.847 414.933 143.769 414.933 156.816C414.933 167.739 408.235 172.074 400.461 172.287C391.885 172.501 385.655 165.418 385.655 156.526V142.139C385.659 141.924 385.62 141.711 385.54 141.511C385.461 141.312 385.343 141.13 385.193 140.976C385.043 140.822 384.865 140.7 384.667 140.615C384.47 140.53 384.257 140.486 384.043 140.484H356.574C355.635 140.484 354.97 141.2 354.97 142.148V156.74C354.97 185.582 371.183 201.565 399.727 201.565C428.262 201.565 445.551 185.224 445.551 156.526C445.551 126.643 427.853 113.732 412.433 102.468L411.921 102.092C410.236 100.86 408.541 99.6428 406.835 98.4399C396.271 90.9306 386.458 83.9588 386.458 73.1044C386.458 62.3354 393.284 57.2751 401.195 57.2751C409.711 57.2751 415.736 63.8543 415.736 72.5327V85.2474C415.736 86.186 416.478 86.9114 417.348 86.9114H444.817C445.756 86.9114 446.421 86.1946 446.421 85.2559V72.8911C446.49 44.5604 429.406 28.2874 401.732 28.1423ZM500.403 28.1423H500.873C528.546 28.2874 545.562 44.5519 545.562 72.8911V85.2559C545.562 86.1946 544.896 86.9114 543.957 86.9114H516.48C516.266 86.908 516.055 86.8626 515.858 86.7776C515.662 86.6926 515.484 86.5697 515.335 86.4159C515.186 86.2622 515.069 86.0806 514.99 85.8816C514.911 85.6825 514.872 85.4699 514.876 85.2559V72.5327C514.876 63.8543 508.851 57.2751 500.335 57.2751C492.433 57.2751 485.598 62.3354 485.598 73.1044C485.598 83.9503 495.411 90.9306 505.975 98.4399C507.665 99.6346 509.372 100.855 511.061 102.092L511.573 102.468C527.002 113.732 544.691 126.643 544.691 156.526C544.691 185.224 527.403 201.565 498.867 201.565C470.323 201.565 454.11 185.591 454.11 156.748V142.139C454.11 141.2 454.784 140.484 455.714 140.484H483.191C484.062 140.484 484.796 141.2 484.796 142.148V156.518C484.796 165.409 491.025 172.492 499.601 172.279C507.366 172.065 514.074 167.722 514.074 156.808C514.074 143.752 505.882 137.838 495.275 130.158C494.131 129.331 492.954 128.486 491.768 127.598L488.883 125.516L488.858 125.499C473.813 114.67 455.578 101.537 455.578 73.3178C455.578 46.2074 471.066 28.1338 500.403 28.1338V28.1423ZM973.747 82.7386V68.9316C973.747 47.897 957.534 31.3423 938.906 31.3423H883.567C882.901 31.3423 882.364 31.9226 882.364 32.6394V197.102C882.364 197.819 882.901 198.399 883.567 198.399H910.635C911.369 198.399 911.838 197.751 911.838 197.102V128.639H925.107C937.438 128.639 941.321 133.555 941.321 146.064V196.957C941.321 197.751 941.926 198.254 942.524 198.254H970.462C970.801 198.245 971.123 198.105 971.36 197.863C971.597 197.621 971.731 197.296 971.733 196.957V147.003C971.733 129.936 967.381 119.022 956.262 114.542C967.45 109.627 973.747 99.7967 973.747 82.7386ZM943.462 88.5242C943.462 95.385 938.368 100.88 932.07 100.88H911.505V59.1012H932.07C938.368 59.1012 943.462 64.5967 943.462 71.3892V88.5242ZM285.542 31.3423H314.359C314.897 31.3423 315.426 31.769 315.563 32.426L352.947 196.667C353.289 197.606 352.606 198.476 351.744 198.476H324.139C323.669 198.476 323.064 198.041 322.935 197.384L317.039 167.969H282.598L276.71 197.384C276.668 197.678 276.524 197.948 276.302 198.147C276.08 198.345 275.796 198.459 275.499 198.468H247.893C247.091 198.468 246.485 197.606 246.69 196.667L284.331 32.426C284.359 32.1258 284.499 31.8473 284.724 31.6463C284.949 31.4453 285.241 31.3367 285.542 31.3423ZM299.554 83.5322L288.162 140.356H311.202L299.819 83.5322L299.682 84.3258L299.554 83.5322ZM39.2533 31.3082H0.529067C0.238933 31.3082 0 31.5642 0 31.8714V69.29C0 69.6058 0.238933 69.8618 0.529067 69.8618H22.2891C22.2891 81.2538 14.5835 84.522 4.4544 85.2303C4.32087 85.2412 4.19668 85.3031 4.10768 85.4033C4.01867 85.5034 3.9717 85.634 3.97653 85.7679V100.181C3.97653 100.479 4.224 100.727 4.5056 100.71C16.0512 100.129 24.6869 97.1855 30.4384 92.3044C36.6933 86.9967 39.7824 79.402 39.7909 70.0666V31.8714C39.7909 31.5556 39.552 31.2996 39.2619 31.2996L39.2533 31.3082Z" fill="#00A264"/>
</g>
<defs>
<clipPath id="clip0_824_201">
<rect width="1024" height="201.029" fill="white" transform="translate(0 0.536133)"/>
</clipPath>
</defs>
</svg>
