<svg width="1024" height="200" viewBox="0 0 1024 200" fill="none" xmlns="http://www.w3.org/2000/svg">
<g clip-path="url(#clip0_813_255)">
<path d="M73.9804 144.633H52.7986V55.5104H73.9804C100.911 55.5104 119.748 73.8475 119.748 100.049C119.748 126.252 100.911 144.589 73.9804 144.589M71.9459 5.05042H30.5123C12.824 5.05042 0 17.8645 0 35.539V164.517C0 182.19 12.824 195.004 30.5123 195.004H71.9459C131.202 195.004 172.592 155.944 172.592 100.006C172.592 44.0662 131.202 5.00684 71.9459 5.00684" fill="#EF6A00"/>
<path d="M350.354 27.9408C350.354 12.2988 339.256 0.987305 323.956 0.987305C308.655 0.987305 297.556 12.3434 297.556 27.9408V116.488C297.556 133.588 284.687 146.977 268.194 146.977C251.7 146.977 238.876 133.588 238.876 116.488V27.9408C238.876 12.2988 227.776 0.987305 212.476 0.987305C197.176 0.987305 186.076 12.3434 186.076 27.9408V118.83C186.076 166.108 219.861 199.159 268.238 199.159C316.615 199.159 350.399 166.153 350.399 118.83V27.9408H350.354Z" fill="#EF6A00"/>
<path d="M699.737 149.982L654.854 99.2564L696.73 50.2544C702.833 43.1852 706.061 35.9823 706.061 29.3994C706.061 13.4484 693.812 0.943359 678.202 0.943359C670.242 0.943359 662.902 5.27382 655.694 14.2438L608.379 77.5169V27.9404C608.379 11.8131 597.765 0.987945 581.979 0.987945C566.192 0.987945 555.579 11.8131 555.579 27.9404V172.163C555.579 188.29 566.192 199.116 581.979 199.116C597.765 199.116 608.379 188.29 608.379 172.163V122.145L659.143 186.655C666.483 195.492 672.763 199.116 680.811 199.116C696.465 199.116 707.83 187.141 707.83 170.66C707.83 163.237 704.911 155.681 699.782 149.937" fill="#EF6A00"/>
<path d="M774.113 27.9408C774.113 11.8125 763.5 0.987305 747.713 0.987305C731.926 0.987305 721.313 11.8125 721.313 27.9408V172.162C721.313 188.29 731.926 199.116 747.713 199.116C763.5 199.116 774.113 188.29 774.113 172.162V27.9408Z" fill="#EF6A00"/>
<path d="M1023.82 29.4897C1025.55 14.9076 1014.63 5.62858 1003.52 4.34688C994.281 3.24247 987.159 6.02577 982.385 12.6106C978.809 17.5156 976.591 24.9384 975.224 36.6045C973.807 48.6677 973.946 56.7542 975.67 62.1009C978.057 69.2147 983.534 73.6333 991.141 74.5178C1005.47 76.1967 1012.33 64.6198 1020.55 41.1994C1022.27 36.3836 1023.56 31.7877 1023.82 29.4897Z" fill="#C63663"/>
<path d="M422.041 98.5049V172.162C422.041 188.29 411.428 199.116 395.641 199.116C379.854 199.116 369.241 188.29 369.241 172.162V27.9408C369.241 11.8125 379.854 0.987305 395.641 0.987305C403.247 0.987305 410.189 3.7706 414.257 7.92476C418.325 12.0779 484.568 101.598 484.568 101.598V27.9408C484.568 11.8125 495.18 0.987305 510.968 0.987305C526.754 0.987305 537.367 11.8125 537.367 27.9408V172.162C537.367 188.29 526.754 199.116 510.968 199.116C503.362 199.116 496.463 196.376 492.35 192.178C488.238 187.981 422.041 98.5049 422.041 98.5049Z" fill="#EF6A00"/>
<path d="M845.266 98.5049V172.162C845.266 188.29 834.653 199.116 818.867 199.116C803.08 199.116 792.467 188.29 792.467 172.162V27.9408C792.467 11.8125 803.08 0.987305 818.867 0.987305C826.473 0.987305 833.415 3.7706 837.483 7.92476C841.552 12.0779 907.791 101.598 907.791 101.598V27.9408C907.791 11.8125 918.409 0.987305 934.197 0.987305C949.976 0.987305 960.594 11.8125 960.594 27.9408V172.162C960.594 188.29 949.976 199.116 934.197 199.116C926.59 199.116 919.647 196.376 915.576 192.178C911.465 187.981 845.266 98.5049 845.266 98.5049Z" fill="#EF6A00"/>
</g>
<defs>
<clipPath id="clip0_813_255">
<rect width="1024" height="198.216" fill="white" transform="translate(0 0.943359)"/>
</clipPath>
</defs>
</svg>
