<svg width="804" height="513" viewBox="0 0 804 513" fill="none" xmlns="http://www.w3.org/2000/svg">
<g clip-path="url(#clip0_2_15120)">
<path d="M585.028 358.305V402.993C585.028 418.735 582.248 423.512 567.891 430.636L402.255 512.801L236.627 430.636C222.27 423.519 219.489 418.735 219.489 402.993V358.306H0.961426L96.6055 73.9936H219.496V0.800781H585.034V73.9927H803.569L707.925 358.305H585.028Z" fill="#010101"/>
<path d="M402.26 493.022L556.427 417.154C565.568 412.654 567.579 408.653 567.579 399.241V340.847H695.39L779.286 91.4497H567.579V18.2578H236.942V91.4497H109.131L25.2334 340.847H236.942V399.241C236.942 408.653 238.953 412.662 248.093 417.154L402.26 493.022Z" fill="white"/>
<path d="M402.26 479.947L546.297 409.063C553.983 405.282 555.839 401.92 555.839 393.723V329.116H687.07L763.072 103.186H555.839V29.9941H248.681V103.186H117.451L41.4473 329.116H248.681V393.723C248.681 401.919 250.53 405.275 258.223 409.063L402.26 479.947Z" fill="#A2AAAD"/>
<path d="M407.117 328.543C408.287 328.543 408.681 329.202 408.681 330.023V331.987H409.851C411.351 331.987 411.874 333.016 411.874 334.328V343.32C414.9 341.536 417.951 342.855 419.044 343.824C421.701 342.157 425.554 342.783 427.629 345.047C430.551 343.844 434.494 344.568 436.757 347.607C439.801 346.753 443.791 347.936 445.872 351.53C450.281 350.832 454.017 353.644 455.168 357.154C460.23 356.837 464.206 360.671 464.755 364.996C467.203 365.295 469.446 366.513 471.029 368.403C472.612 370.294 473.418 372.715 473.282 375.178C477.167 376.995 479.559 380.562 479.559 384.875C479.559 389.704 476.876 393.809 471.4 395.128C470.18 395.412 469.39 395.464 468.906 396.136C470.767 396.686 471.84 398.819 471.284 400.641C471.033 401.482 467.58 411.198 467.58 411.198C466.759 413.648 465.188 414.87 462.686 414.185C460.32 413.532 459.525 413.856 457.851 416.428C456.571 418.392 455.607 419.997 454.612 421.528C451.671 426.087 449.039 430.54 447.553 432.81C446.027 434.91 444.896 435.628 443.377 436.474C435.095 441.098 418.113 444.413 402.256 444.413C386.398 444.413 369.416 441.103 361.135 436.474C359.616 435.628 358.484 434.911 356.959 432.81C355.472 430.54 352.847 426.093 349.899 421.528C348.904 419.99 347.947 418.393 346.66 416.428C344.986 413.856 344.185 413.532 341.819 414.185C339.323 414.87 337.752 413.649 336.931 411.198C336.931 411.198 333.48 401.482 333.227 400.641C332.678 398.812 333.737 396.686 335.606 396.136C335.121 395.464 334.333 395.419 333.104 395.128C327.635 393.809 324.946 389.704 324.946 384.875C324.946 380.563 327.337 376.995 331.223 375.178C331.09 372.716 331.896 370.296 333.479 368.406C335.061 366.516 337.303 365.297 339.749 364.996C340.299 360.677 344.275 356.837 349.337 357.154C350.488 353.644 354.217 350.832 358.632 351.53C360.714 347.936 364.703 346.76 367.748 347.607C370.004 344.568 373.947 343.844 376.876 345.047C378.951 342.778 382.803 342.157 385.461 343.824C386.554 342.854 389.605 341.536 392.629 343.32V334.328C392.629 333.016 393.154 331.987 394.653 331.987H395.823V330.023C395.823 329.208 396.211 328.543 397.388 328.543H407.117Z" fill="white"/>
<path fill-rule="evenodd" clip-rule="evenodd" d="M470.49 376.731C470.853 375.635 470.95 374.468 470.774 373.327C470.598 372.185 470.153 371.102 469.476 370.166C468.8 369.23 467.911 368.468 466.882 367.943C465.853 367.418 464.715 367.144 463.56 367.145C463.276 367.145 462.984 367.164 462.7 367.19C462.758 366.848 462.784 366.492 462.784 366.13C462.784 362.329 459.694 359.245 455.893 359.245C455.263 359.245 454.636 359.332 454.031 359.505V359.394C454.031 358.559 453.867 357.731 453.548 356.959C453.228 356.187 452.76 355.486 452.169 354.895C451.578 354.304 450.877 353.835 450.105 353.516C449.333 353.196 448.505 353.032 447.67 353.033C446.75 353.032 445.842 353.23 445.006 353.615C444.515 350.725 442.007 348.521 438.975 348.521C437.856 348.521 436.81 348.818 435.904 349.342C435.567 348.503 435.039 347.755 434.363 347.155C433.687 346.556 432.88 346.122 432.007 345.888C431.134 345.655 430.219 345.627 429.334 345.808C428.448 345.989 427.617 346.374 426.906 346.931C426.457 346.098 425.791 345.402 424.978 344.917C424.165 344.432 423.236 344.176 422.29 344.176C421.585 344.175 420.887 344.317 420.238 344.592C419.589 344.868 419.003 345.272 418.514 345.78C418.079 345.161 417.501 344.656 416.83 344.307C416.158 343.958 415.413 343.776 414.656 343.776C413.634 343.775 412.64 344.106 411.822 344.719C411.005 345.333 410.409 346.195 410.124 347.176C407.945 346.736 407.299 345.812 407.299 344.35C407.299 343.776 407.402 343.711 407.958 343.711H408.397C409.484 343.711 410.131 342.896 410.131 342.141V335.114C410.131 333.905 409.646 332.947 408.269 332.947H407.195V331.454C407.195 330.698 406.834 330.09 405.754 330.09H398.778C397.699 330.09 397.336 330.698 397.336 331.454V332.947H396.264C394.88 332.947 394.396 333.911 394.396 335.113V342.141C394.396 342.896 395.048 343.711 396.134 343.711H396.567C397.123 343.711 397.234 343.776 397.234 344.351C397.234 345.812 396.587 346.73 394.408 347.176C393.833 345.217 392.023 343.776 389.876 343.776C388.28 343.776 386.871 344.564 386.017 345.78C385.528 345.272 384.942 344.869 384.293 344.593C383.644 344.318 382.946 344.176 382.242 344.176C380.244 344.176 378.518 345.295 377.627 346.931C376.605 346.125 375.341 345.688 374.039 345.689C372.876 345.689 371.74 346.037 370.777 346.688C369.814 347.339 369.068 348.264 368.634 349.342C367.701 348.802 366.641 348.519 365.563 348.521C364.117 348.52 362.718 349.032 361.613 349.964C360.508 350.896 359.768 352.189 359.525 353.615C358.693 353.229 357.786 353.031 356.869 353.033C353.352 353.033 350.501 355.878 350.501 359.394V359.505C349.477 359.216 348.401 359.169 347.356 359.366C346.311 359.563 345.326 360 344.478 360.642C343.63 361.284 342.942 362.113 342.468 363.066C341.994 364.018 341.748 365.067 341.748 366.13C341.748 366.492 341.773 366.841 341.826 367.19C341.543 367.162 341.258 367.147 340.973 367.145C336.939 367.145 333.667 370.41 333.667 374.444C333.667 375.246 333.797 376.014 334.043 376.731C330.015 377.094 326.867 380.475 326.867 384.587C326.867 386.437 327.517 388.229 328.703 389.649C329.889 391.069 331.536 392.028 333.357 392.357C335.432 392.726 337.346 392.88 338.128 394.949C338.341 395.512 338.613 396.184 338.917 397.044L337.43 397.664C335.29 398.556 334.688 400.373 335.361 402.099L337.566 408.235C338.393 410.723 339.686 412.209 342.221 411.512C344.625 410.851 345.459 410.639 346.286 412.177C348.724 417.026 350.605 419.514 354.057 419.483C351.659 421.034 351.743 421.499 353.792 424.608L357.909 430.769C359.306 432.929 359.952 433.511 361.452 434.435C369.474 439.076 386.199 442.483 402.276 442.483C418.353 442.483 435.083 439.076 443.106 434.435C444.599 433.517 445.252 432.929 446.649 430.769L450.76 424.608C452.817 421.506 452.9 421.04 450.495 419.483C453.948 419.514 455.828 417.026 458.271 412.177C459.093 410.639 459.933 410.852 462.332 411.511C464.866 412.209 466.158 410.723 466.992 408.234L469.197 402.099C469.87 400.373 469.262 398.556 467.128 397.664L465.642 397.044C465.945 396.184 466.217 395.512 466.424 394.949C467.205 392.88 469.126 392.725 471.201 392.357C473.021 392.027 474.667 391.068 475.852 389.648C477.037 388.228 477.686 386.437 477.685 384.587C477.685 380.475 474.531 377.094 470.516 376.731" fill="#A2AAAD"/>
<path d="M399.031 341.068V342.762C399.031 343.363 399.522 343.848 400.118 343.848H404.416C405.018 343.848 405.495 343.363 405.495 342.761V341.068H407.195C407.797 341.068 408.282 340.577 408.282 339.982V335.683C408.282 335.081 407.79 334.604 407.195 334.604H405.495V332.904C405.495 332.309 405.166 331.824 404.416 331.824H400.117C399.322 331.824 399.03 332.309 399.03 332.903V334.604H397.337C396.735 334.604 396.251 335.089 396.251 335.683V339.982C396.251 340.583 396.736 341.068 397.337 341.068H399.031ZM362.597 429.709C374.149 423.265 392.637 421.46 402.264 421.449C411.889 421.46 430.377 423.251 441.93 429.709C443.947 430.835 444.037 430.821 445.492 428.85L448.73 424.001C449.765 422.389 449.657 421.22 448.408 420.491C444.09 417.97 437.773 415.494 431.483 413.832C422.401 411.435 412.606 410.219 402.271 410.219C391.936 410.219 382.127 411.435 373.057 413.832C366.767 415.494 360.45 417.977 356.132 420.491C354.883 421.219 354.775 422.389 355.809 424.002L359.047 428.85C360.496 430.822 360.586 430.84 362.609 429.709" fill="#010101"/>
<path d="M400.362 378.83C399.984 378.829 399.611 378.903 399.263 379.047C398.914 379.192 398.597 379.403 398.331 379.67C398.064 379.936 397.853 380.253 397.708 380.602C397.564 380.95 397.49 381.323 397.491 381.701V384.358H395.578C395.201 384.357 394.828 384.432 394.48 384.576C394.132 384.72 393.816 384.932 393.55 385.198C393.284 385.465 393.074 385.781 392.93 386.13C392.787 386.478 392.713 386.851 392.714 387.228V391.081C392.714 392.573 393.839 393.931 395.293 393.931C398.965 393.931 399.25 395.683 399.25 397.629C399.25 399.575 397.4 401.327 395.293 401.327C394.403 401.33 393.535 401.047 392.818 400.519C392.643 400.395 392.507 400.429 392.371 400.584C391.982 401.038 391.499 401.402 390.955 401.651C390.412 401.9 389.821 402.028 389.223 402.026C388.272 402.026 387.4 401.708 386.702 401.165C386.572 401.074 386.417 401.088 386.282 401.243C385.7 401.902 384.923 402.36 384.064 402.549C382.009 403.014 379.817 401.689 379.397 399.814C378.964 397.914 379.203 396.071 382.448 395.341C383.865 395.023 384.666 393.44 384.342 391.992L383.496 388.229C383.146 386.685 381.615 385.709 380.07 386.064L378.169 386.49L377.58 383.892C377.414 383.151 376.96 382.507 376.319 382.101C375.677 381.695 374.901 381.56 374.161 381.726L370.392 382.573C369.651 382.741 369.007 383.196 368.601 383.839C368.195 384.481 368.06 385.258 368.226 386L368.807 388.591L366.94 389.012C366.199 389.18 365.555 389.635 365.149 390.277C364.743 390.92 364.608 391.697 364.774 392.438L365.621 396.2C365.951 397.655 367.347 398.735 368.776 398.417C372.345 397.609 373.023 399.258 373.443 401.151C373.857 402.995 372.442 405.167 370.392 405.626C369.756 405.769 369.096 405.757 368.466 405.589C367.837 405.421 367.258 405.103 366.778 404.663C366.597 404.507 366.39 404.526 366.28 404.708C365.783 405.632 364.949 406.369 363.869 406.673C362.973 406.926 362.016 406.855 361.167 406.472C360.888 406.343 360.695 406.447 360.63 406.731C360.327 408.063 359.317 409.123 358.077 409.62C356.293 410.325 354.398 409.201 353.603 407.475C352.679 405.471 352.369 404.113 355.645 402.723C356.907 402.186 357.417 400.564 356.971 399.167L355.589 395.592C355.103 394.099 353.629 393.324 352.285 393.853L349.815 394.759L349.091 392.645C348.574 390.938 347.346 390.324 345.471 391.074L341.483 392.561C340.332 393.013 339.744 394.189 340.326 395.612C340.752 396.647 341.07 397.415 341.296 397.978L338.916 398.954C337.435 399.535 336.841 400.945 337.416 402.419L339.02 406.453C339.594 407.933 341.075 408.528 342.743 407.979C345.329 407.118 345.943 407.727 347.701 410.901C349.582 414.521 352.711 416.356 356.584 416.356C360.456 416.356 363.688 414.224 365.362 411.089C367.363 411.997 369.606 412.226 371.749 411.741C374.304 411.17 376.536 409.628 377.975 407.442C380.208 408.802 382.884 409.24 385.435 408.663C387.198 408.268 388.823 407.409 390.142 406.175C391.699 407.1 393.477 407.587 395.288 407.585C397.99 407.585 400.446 406.524 402.256 404.805C404.133 406.592 406.627 407.588 409.219 407.585C411.1 407.585 412.858 407.067 414.37 406.175C415.686 407.41 417.309 408.27 419.071 408.663C421.727 409.258 424.378 408.748 426.53 407.443C427.969 409.629 430.201 411.17 432.755 411.741C434.986 412.239 437.21 411.961 439.143 411.089C440.823 414.224 444.134 416.356 447.921 416.356C451.708 416.356 455.155 414.139 456.804 410.901C458.556 407.727 459.189 407.054 461.762 407.979C463.378 408.56 464.91 407.933 465.486 406.453L467.082 402.419C467.658 400.939 467.057 399.529 465.583 398.954L463.204 397.978C463.436 397.422 463.753 396.653 464.174 395.612C464.755 394.184 464.174 393.013 463.017 392.561L459.027 391.074C457.159 390.324 455.925 390.938 455.414 392.645L454.69 394.759L452.215 393.853C450.876 393.317 449.395 394.092 448.917 395.592L447.533 399.167C447.081 400.563 447.592 402.186 448.852 402.723C452.136 404.113 451.82 405.464 450.902 407.475C450.1 409.201 448.206 410.326 446.421 409.62C445.181 409.123 444.179 408.063 443.868 406.731C443.804 406.447 443.61 406.343 443.339 406.472C442.511 406.841 441.56 406.938 440.63 406.673C439.556 406.369 438.723 405.632 438.218 404.708C438.114 404.526 437.901 404.507 437.727 404.663C437.246 405.104 436.666 405.421 436.035 405.589C435.405 405.757 434.743 405.769 434.107 405.626C432.051 405.166 430.642 402.995 431.055 401.152C431.489 399.252 432.154 397.609 435.729 398.418C437.152 398.735 438.548 397.655 438.878 396.2L439.724 392.438C439.807 392.071 439.817 391.691 439.753 391.32C439.689 390.949 439.553 390.594 439.352 390.276C439.151 389.958 438.889 389.683 438.581 389.466C438.274 389.249 437.926 389.095 437.559 389.012L435.691 388.592L436.272 386C436.439 385.258 436.304 384.481 435.898 383.839C435.492 383.196 434.848 382.741 434.107 382.573L430.338 381.726C429.598 381.561 428.822 381.697 428.181 382.103C427.54 382.508 427.086 383.152 426.918 383.892L426.336 386.491L424.436 386.065C424.069 385.982 423.69 385.972 423.319 386.036C422.949 386.1 422.594 386.236 422.277 386.437C421.959 386.638 421.684 386.9 421.468 387.208C421.252 387.515 421.098 387.862 421.016 388.229L420.169 391.992C419.839 393.44 420.641 395.024 422.056 395.341C425.308 396.071 425.541 397.921 425.115 399.814C424.688 401.696 422.489 403.021 420.441 402.549C419.582 402.36 418.805 401.902 418.223 401.243C418.094 401.094 417.939 401.074 417.809 401.165C417.086 401.725 416.196 402.028 415.282 402.026C414.684 402.027 414.093 401.899 413.549 401.65C413.006 401.401 412.523 401.037 412.133 400.584C412.004 400.429 411.862 400.402 411.688 400.519C410.968 401.043 410.101 401.326 409.211 401.327C407.11 401.327 405.255 399.517 405.255 397.629C405.255 395.741 405.546 393.931 409.211 393.931C410.666 393.931 411.797 392.573 411.797 391.08V387.228C411.797 386.851 411.723 386.477 411.579 386.129C411.435 385.781 411.224 385.464 410.957 385.197C410.691 384.931 410.374 384.719 410.026 384.575C409.677 384.431 409.304 384.357 408.927 384.358H407.013V381.701C407.014 381.323 406.94 380.95 406.797 380.601C406.653 380.253 406.441 379.936 406.175 379.669C405.908 379.402 405.592 379.191 405.243 379.047C404.895 378.903 404.521 378.829 404.144 378.83H400.342H400.362ZM402.263 438.796C418.695 438.796 432.827 435.77 441.011 432.215C437.223 430.159 433.428 428.672 427.908 427.458C421.081 428.472 411.209 429.824 402.256 429.824C393.303 429.824 383.431 428.478 376.604 427.458C371.091 428.672 367.296 430.153 363.502 432.215C371.692 435.77 385.824 438.796 402.25 438.796M423.693 359.934C423.693 358.479 422.498 357.304 421.043 357.316C420.697 357.317 420.354 357.386 420.034 357.52C419.715 357.654 419.425 357.849 419.181 358.096C418.938 358.342 418.746 358.634 418.616 358.955C418.486 359.277 418.421 359.62 418.424 359.967C418.424 361.421 419.614 362.592 421.075 362.584C422.524 362.584 423.7 361.389 423.693 359.934ZM411.215 352.811C411.199 352.228 410.957 351.675 410.539 351.269C410.121 350.862 409.562 350.635 408.979 350.635C408.396 350.635 407.836 350.862 407.419 351.269C407.001 351.675 406.758 352.228 406.742 352.811C406.758 353.393 407.001 353.947 407.419 354.353C407.836 354.76 408.396 354.987 408.979 354.987C409.562 354.987 410.121 354.76 410.539 354.353C410.957 353.947 411.199 353.393 411.215 352.811ZM417.058 356.121C417.066 355.822 417.015 355.525 416.906 355.246C416.797 354.968 416.634 354.714 416.425 354.499C416.217 354.285 415.968 354.115 415.692 353.999C415.417 353.882 415.121 353.822 414.822 353.822C414.523 353.822 414.227 353.882 413.952 353.999C413.676 354.115 413.427 354.285 413.218 354.499C413.01 354.714 412.847 354.968 412.738 355.246C412.629 355.525 412.577 355.822 412.585 356.121C412.601 356.703 412.844 357.257 413.262 357.663C413.679 358.07 414.239 358.297 414.822 358.297C415.405 358.297 415.964 358.07 416.382 357.663C416.8 357.257 417.042 356.703 417.058 356.121ZM431.482 365.701C431.482 365.044 431.287 364.402 430.922 363.855C430.557 363.309 430.038 362.883 429.431 362.632C428.824 362.38 428.156 362.314 427.511 362.442C426.867 362.571 426.275 362.887 425.81 363.352C425.345 363.816 425.029 364.408 424.901 365.053C424.773 365.697 424.838 366.365 425.09 366.973C425.341 367.58 425.767 368.099 426.314 368.464C426.86 368.829 427.502 369.024 428.159 369.024C428.596 369.024 429.028 368.938 429.431 368.771C429.834 368.604 430.201 368.359 430.509 368.051C430.818 367.742 431.062 367.376 431.229 366.973C431.396 366.57 431.482 366.137 431.482 365.701ZM439.335 373.911C439.335 371.72 437.557 369.942 435.359 369.942C433.161 369.942 431.39 371.719 431.39 373.911C431.39 376.103 433.168 377.887 435.359 377.887C437.551 377.887 439.335 376.109 439.335 373.911Z" fill="#010101"/>
<path d="M447.409 383.845C447.409 381.362 445.399 379.346 442.911 379.346C440.423 379.346 438.405 381.357 438.405 383.845C438.405 386.333 440.421 388.345 442.911 388.345C445.401 388.345 447.409 386.334 447.409 383.845ZM433.167 350.644C433.16 350.22 433.069 349.802 432.899 349.414C432.73 349.026 432.485 348.675 432.178 348.383C431.872 348.09 431.511 347.861 431.115 347.709C430.72 347.557 430.298 347.485 429.874 347.498C429.451 347.51 429.034 347.607 428.648 347.782C428.262 347.956 427.915 348.206 427.626 348.517C427.338 348.827 427.114 349.191 426.967 349.589C426.821 349.986 426.755 350.409 426.773 350.832C426.809 351.672 427.174 352.464 427.79 353.037C428.405 353.61 429.222 353.917 430.063 353.893C430.903 353.868 431.7 353.513 432.281 352.905C432.862 352.297 433.18 351.485 433.167 350.644ZM442.11 353.979C442.082 353.019 441.674 352.109 440.976 351.45C440.277 350.791 439.346 350.435 438.385 350.463C437.424 350.49 436.514 350.898 435.853 351.597C435.193 352.296 434.838 353.228 434.865 354.189C434.893 355.15 435.301 356.061 436 356.721C436.698 357.381 437.631 357.737 438.592 357.71C439.067 357.696 439.536 357.589 439.97 357.395C440.404 357.201 440.796 356.922 441.122 356.577C441.449 356.231 441.704 355.824 441.874 355.379C442.043 354.935 442.123 354.461 442.109 353.986M451.061 358.866C451.038 358.085 450.783 357.328 450.33 356.691C449.877 356.055 449.245 355.567 448.515 355.289C447.784 355.012 446.988 354.957 446.226 355.132C445.465 355.307 444.772 355.704 444.236 356.273C443.7 356.841 443.345 357.556 443.215 358.327C443.085 359.097 443.187 359.889 443.507 360.602C443.827 361.315 444.352 361.916 445.014 362.331C445.676 362.746 446.446 362.955 447.227 362.932C447.746 362.917 448.257 362.8 448.73 362.587C449.204 362.375 449.631 362.071 449.987 361.693C450.343 361.316 450.621 360.872 450.805 360.386C450.989 359.901 451.076 359.385 451.061 358.866ZM416.76 348.284C416.755 347.638 416.494 347.021 416.035 346.567C415.576 346.112 414.956 345.858 414.311 345.859C412.964 345.859 411.878 346.965 411.885 348.309C411.885 349.654 412.99 350.739 414.335 350.734C415.68 350.734 416.76 349.628 416.76 348.284ZM424.678 348.73C424.672 347.988 424.373 347.278 423.845 346.756C423.317 346.233 422.603 345.942 421.861 345.944C420.316 345.944 419.068 347.217 419.074 348.763C419.083 349.506 419.384 350.216 419.913 350.737C420.442 351.259 421.156 351.551 421.899 351.549C423.444 351.549 424.692 350.275 424.686 348.731M459.767 365.389C459.748 363.023 457.828 361.122 455.468 361.142C454.907 361.144 454.351 361.258 453.834 361.476C453.316 361.693 452.846 362.011 452.451 362.41C452.056 362.809 451.744 363.282 451.532 363.802C451.32 364.322 451.212 364.879 451.215 365.44C451.219 366.002 451.333 366.557 451.552 367.075C451.77 367.592 452.088 368.062 452.488 368.456C452.888 368.85 453.361 369.162 453.881 369.374C454.402 369.585 454.959 369.692 455.52 369.688C456.082 369.685 456.637 369.572 457.155 369.355C457.672 369.137 458.142 368.82 458.537 368.42C458.931 368.021 459.243 367.547 459.454 367.027C459.665 366.507 459.772 365.95 459.767 365.389ZM467.842 373.561C467.834 372.34 467.342 371.173 466.473 370.315C465.605 369.458 464.431 368.98 463.21 368.988C461.99 368.996 460.822 369.488 459.964 370.357C459.107 371.225 458.629 372.399 458.637 373.62C458.64 374.224 458.763 374.821 458.997 375.378C459.232 375.935 459.574 376.44 460.004 376.864C460.434 377.288 460.943 377.624 461.503 377.851C462.062 378.079 462.661 378.194 463.265 378.189C463.87 378.186 464.468 378.064 465.025 377.83C465.582 377.596 466.088 377.254 466.513 376.824C466.938 376.394 467.274 375.885 467.502 375.325C467.73 374.765 467.846 374.166 467.842 373.561ZM474.612 383.569C474.609 382.921 474.477 382.28 474.226 381.683C473.974 381.085 473.607 380.544 473.146 380.089C472.685 379.633 472.139 379.274 471.538 379.03C470.938 378.786 470.296 378.663 469.648 378.668C466.926 378.687 464.728 380.904 464.747 383.626C464.766 386.353 466.983 388.551 469.711 388.532C472.433 388.513 474.631 386.29 474.612 383.569ZM424.871 384.033C425.279 380.723 426.534 379.32 429.151 379.792C429.39 379.837 429.565 379.591 429.494 379.353C427.593 372.959 418.285 360.722 406.823 355.492C406.087 355.155 405.647 354.916 405.529 355.058C405.401 355.207 405.744 355.557 406.305 356.047C417.121 365.551 419.325 380.355 419.571 385.022C419.591 385.338 419.997 385.442 420.173 385.178C420.173 385.178 421.426 382.896 424.871 384.027" fill="#010101"/>
<path d="M416.49 353.103C433.02 358.373 449.731 374.786 452.899 391.439C452.95 391.724 453.384 391.788 453.48 391.517C453.823 390.572 453.965 389.979 454.358 389.287C454.96 388.239 456.428 387.851 457.746 388.304C459.725 388.97 462.589 390.081 464.05 390.676C464.334 390.793 464.632 390.586 464.515 390.289C456.66 369.835 434.202 354.889 416.592 352.419C415.668 352.29 415.132 352.284 415.106 352.458C415.081 352.664 415.371 352.755 416.49 353.104V353.103ZM379.642 384.03C383.089 382.9 384.342 385.182 384.342 385.182C384.523 385.447 384.937 385.343 384.944 385.026C385.183 380.359 387.388 365.555 398.209 356.052C398.771 355.554 399.12 355.212 398.984 355.064C398.868 354.922 398.428 355.161 397.691 355.497C386.23 360.726 376.92 372.963 375.02 379.358C374.95 379.59 375.124 379.843 375.363 379.797C377.981 379.324 379.234 380.727 379.643 384.037M388.028 353.103C389.147 352.762 389.443 352.665 389.412 352.458C389.386 352.277 388.849 352.282 387.925 352.418C370.315 354.895 347.858 369.841 340.003 390.289C339.887 390.579 340.184 390.786 340.469 390.676C341.93 390.076 344.793 388.97 346.771 388.304C348.09 387.859 349.558 388.239 350.159 389.287C350.554 389.979 350.695 390.573 351.039 391.517C351.142 391.795 351.569 391.73 351.62 391.439C354.788 374.786 371.499 358.373 388.028 353.104V353.103ZM407.331 371.942C407.331 369.143 405.062 366.867 402.256 366.867C399.45 366.867 397.181 369.136 397.181 371.942C397.181 374.748 399.45 377.017 402.256 377.017C405.062 377.017 407.331 374.748 407.331 371.942ZM404.636 356.258C404.636 354.927 403.549 353.835 402.212 353.835C401.569 353.835 400.952 354.09 400.497 354.545C400.043 355 399.787 355.616 399.787 356.259C399.787 356.902 400.043 357.519 400.497 357.974C400.952 358.428 401.569 358.684 402.212 358.684C402.53 358.685 402.846 358.623 403.141 358.501C403.435 358.38 403.703 358.201 403.928 357.976C404.154 357.751 404.332 357.483 404.454 357.188C404.575 356.894 404.637 356.578 404.636 356.259V356.258ZM405.203 362.776C405.203 361.128 403.871 359.79 402.217 359.79C400.562 359.79 399.229 361.121 399.229 362.775C399.229 364.43 400.561 365.763 402.217 365.763C403.872 365.763 405.203 364.431 405.203 362.775V362.776ZM405.663 349.278C405.663 347.377 404.124 345.832 402.217 345.832C400.309 345.832 398.772 347.37 398.772 349.278C398.772 351.186 400.31 352.724 402.217 352.724C404.123 352.724 405.663 351.185 405.663 349.278ZM418.85 396.334C418.85 394.555 417.414 393.121 415.637 393.121C413.859 393.121 412.424 394.555 412.424 396.334C412.424 398.112 413.859 399.547 415.637 399.547C417.414 399.547 418.85 398.111 418.85 396.334ZM445.608 401.285C445.608 399.507 444.173 398.072 442.395 398.072C440.616 398.072 439.182 399.507 439.182 401.285C439.182 403.062 440.616 404.498 442.395 404.498C444.173 404.498 445.608 403.062 445.608 401.285ZM385.675 396.334C385.675 398.11 387.11 399.547 388.887 399.547C390.665 399.547 392.1 398.111 392.1 396.334C392.1 394.556 390.665 393.121 388.887 393.121C387.11 393.121 385.675 394.555 385.675 396.334ZM358.91 401.285C358.91 403.062 360.346 404.498 362.123 404.498C363.9 404.498 365.336 403.062 365.336 401.285C365.336 399.507 363.901 398.072 362.123 398.072C360.345 398.072 358.91 399.507 358.91 401.285ZM374.458 353.932C374.881 353.95 375.304 353.884 375.701 353.737C376.099 353.591 376.463 353.367 376.773 353.078C377.083 352.79 377.333 352.442 377.508 352.057C377.683 351.671 377.779 351.254 377.792 350.831C377.804 350.407 377.732 349.986 377.58 349.59C377.429 349.195 377.2 348.834 376.907 348.527C376.614 348.221 376.264 347.976 375.876 347.806C375.488 347.637 375.07 347.546 374.646 347.539C373.806 347.526 372.994 347.844 372.386 348.425C371.778 349.006 371.423 349.802 371.399 350.643C371.374 351.483 371.681 352.299 372.254 352.915C372.826 353.53 373.618 353.896 374.458 353.932ZM365.925 357.707C366.4 357.722 366.874 357.642 367.319 357.473C367.763 357.304 368.17 357.049 368.516 356.722C368.862 356.395 369.14 356.004 369.334 355.569C369.528 355.135 369.635 354.666 369.647 354.191C369.663 353.715 369.584 353.241 369.416 352.795C369.247 352.35 368.992 351.943 368.665 351.596C368.338 351.25 367.946 350.972 367.511 350.778C367.076 350.585 366.607 350.479 366.131 350.467C365.17 350.439 364.238 350.794 363.538 351.453C362.839 352.112 362.43 353.023 362.401 353.984C362.388 354.459 362.468 354.932 362.637 355.377C362.806 355.821 363.061 356.228 363.388 356.574C363.715 356.92 364.106 357.198 364.54 357.392C364.974 357.587 365.442 357.694 365.918 357.707" fill="#010101"/>
<path d="M357.293 362.932C357.812 362.948 358.328 362.861 358.813 362.676C359.299 362.492 359.743 362.214 360.12 361.858C360.498 361.502 360.801 361.075 361.014 360.601C361.227 360.128 361.344 359.617 361.359 359.099C361.374 358.58 361.287 358.063 361.103 357.578C360.919 357.093 360.64 356.649 360.284 356.272C359.928 355.894 359.502 355.59 359.028 355.378C358.555 355.165 358.044 355.048 357.525 355.033C356.478 355.002 355.462 355.389 354.699 356.108C353.937 356.827 353.491 357.819 353.459 358.866C353.429 359.913 353.816 360.93 354.535 361.692C355.253 362.455 356.246 362.901 357.293 362.932ZM390.178 350.734C390.824 350.736 391.445 350.483 391.905 350.028C392.364 349.574 392.624 348.955 392.628 348.309C392.63 347.989 392.569 347.671 392.449 347.375C392.328 347.078 392.15 346.808 391.925 346.58C391.699 346.353 391.431 346.172 391.136 346.048C390.841 345.924 390.524 345.86 390.203 345.859C389.883 345.857 389.565 345.918 389.269 346.039C388.972 346.159 388.702 346.337 388.475 346.563C388.247 346.788 388.066 347.056 387.942 347.351C387.819 347.647 387.755 347.964 387.754 348.284C387.751 348.604 387.812 348.922 387.933 349.218C388.054 349.515 388.232 349.785 388.457 350.013C388.682 350.24 388.95 350.421 389.246 350.545C389.541 350.669 389.858 350.733 390.178 350.734ZM382.62 351.549C382.989 351.552 383.354 351.482 383.695 351.343C384.036 351.204 384.346 351 384.608 350.741C384.87 350.482 385.078 350.174 385.221 349.835C385.364 349.495 385.438 349.131 385.44 348.763C385.444 348.019 385.154 347.303 384.631 346.773C384.109 346.243 383.397 345.943 382.653 345.937C381.108 345.937 379.84 347.179 379.835 348.724C379.833 349.092 379.903 349.456 380.042 349.797C380.181 350.138 380.385 350.448 380.644 350.71C380.903 350.972 381.21 351.18 381.549 351.323C381.888 351.465 382.252 351.54 382.62 351.542M349.005 369.694C351.371 369.707 353.298 367.8 353.304 365.447C353.309 364.885 353.202 364.328 352.991 363.808C352.78 363.287 352.468 362.813 352.074 362.414C351.679 362.014 351.21 361.695 350.692 361.477C350.174 361.259 349.619 361.145 349.057 361.142C348.495 361.138 347.938 361.245 347.418 361.457C346.898 361.669 346.425 361.982 346.025 362.377C345.626 362.772 345.309 363.242 345.091 363.76C344.874 364.278 344.761 364.834 344.758 365.395C344.754 365.957 344.86 366.514 345.071 367.034C345.283 367.554 345.595 368.027 345.989 368.427C346.384 368.826 346.853 369.144 347.371 369.361C347.888 369.579 348.444 369.692 349.005 369.694ZM341.248 378.189C341.853 378.193 342.452 378.078 343.012 377.85C343.572 377.622 344.082 377.285 344.512 376.86C344.941 376.435 345.283 375.929 345.517 375.372C345.752 374.815 345.874 374.217 345.877 373.612C345.881 373.008 345.766 372.409 345.539 371.849C345.312 371.289 344.976 370.78 344.551 370.35C344.127 369.92 343.622 369.578 343.065 369.344C342.508 369.109 341.91 368.987 341.306 368.984C340.701 368.979 340.101 369.094 339.541 369.322C338.98 369.55 338.47 369.886 338.039 370.311C337.609 370.736 337.267 371.242 337.032 371.8C336.797 372.358 336.674 372.956 336.671 373.561C336.652 376.101 338.709 378.17 341.248 378.189ZM334.811 388.526C336.119 388.534 337.377 388.022 338.307 387.102C339.238 386.183 339.765 384.931 339.773 383.623C339.781 382.315 339.268 381.057 338.349 380.126C337.429 379.196 336.178 378.669 334.869 378.661C332.147 378.642 329.93 380.84 329.911 383.562C329.906 384.21 330.029 384.852 330.272 385.453C330.516 386.053 330.876 386.599 331.331 387.06C331.786 387.521 332.327 387.888 332.924 388.14C333.521 388.391 334.162 388.523 334.81 388.526H334.811ZM383.442 362.59C383.788 362.592 384.131 362.527 384.452 362.396C384.772 362.266 385.064 362.074 385.31 361.831C385.556 361.588 385.752 361.299 385.886 360.98C386.021 360.661 386.091 360.319 386.092 359.973C386.095 359.627 386.029 359.284 385.899 358.963C385.769 358.642 385.577 358.35 385.334 358.104C385.091 357.858 384.801 357.662 384.482 357.528C384.163 357.393 383.821 357.323 383.475 357.322C383.129 357.319 382.786 357.385 382.465 357.515C382.145 357.645 381.853 357.838 381.607 358.081C381.36 358.324 381.165 358.613 381.03 358.932C380.896 359.251 380.826 359.593 380.825 359.939C380.822 360.285 380.888 360.628 381.018 360.949C381.148 361.27 381.34 361.561 381.584 361.807C381.827 362.054 382.116 362.249 382.435 362.384C382.754 362.518 383.096 362.588 383.442 362.59ZM395.537 355.053C396.123 355.042 396.681 354.802 397.091 354.383C397.502 353.965 397.731 353.403 397.731 352.817C397.731 352.231 397.502 351.668 397.091 351.25C396.681 350.832 396.123 350.591 395.537 350.58C394.955 350.596 394.401 350.838 393.995 351.256C393.589 351.674 393.361 352.233 393.361 352.816C393.361 353.399 393.589 353.959 393.995 354.376C394.401 354.794 394.955 355.038 395.537 355.053ZM389.696 358.363C390.138 358.363 390.571 358.232 390.939 357.986C391.307 357.74 391.594 357.391 391.763 356.982C391.933 356.573 391.977 356.123 391.891 355.689C391.805 355.255 391.592 354.856 391.279 354.543C390.966 354.23 390.567 354.017 390.133 353.931C389.699 353.845 389.249 353.889 388.84 354.058C388.431 354.228 388.082 354.515 387.836 354.883C387.59 355.251 387.459 355.684 387.459 356.126C387.46 356.719 387.695 357.288 388.115 357.707C388.534 358.127 389.103 358.362 389.696 358.363ZM376.363 369.029C378.199 369.029 379.686 367.542 379.686 365.706C379.686 363.869 378.199 362.383 376.363 362.383C374.527 362.383 373.041 363.87 373.041 365.706C373.041 367.542 374.527 369.029 376.363 369.029ZM369.149 377.885C371.34 377.885 373.124 376.108 373.124 373.91C373.124 371.712 371.34 369.941 369.149 369.941C366.958 369.941 365.173 371.718 365.173 373.91C365.173 376.102 366.957 377.885 369.149 377.885ZM361.612 388.345C364.095 388.345 366.112 386.335 366.112 383.847C366.112 381.359 364.101 379.341 361.612 379.341C359.123 379.341 357.112 381.351 357.112 383.847C357.112 386.343 359.123 388.345 361.612 388.345Z" fill="#010101"/>
<path d="M404.685 337.833C404.685 338.476 404.429 339.092 403.975 339.547C403.52 340.001 402.903 340.256 402.26 340.256C400.923 340.256 399.83 339.17 399.83 337.832C399.83 336.493 400.923 335.408 402.26 335.408C402.903 335.408 403.52 335.664 403.975 336.118C404.43 336.573 404.685 337.19 404.685 337.833ZM402.223 412.861C403.047 412.88 403.831 413.22 404.407 413.81C404.983 414.399 405.305 415.191 405.305 416.015C405.305 416.839 404.983 417.631 404.407 418.22C403.831 418.81 403.047 419.151 402.223 419.169C401.386 419.168 400.585 418.836 399.993 418.244C399.402 417.653 399.069 416.851 399.068 416.015C399.069 415.179 399.401 414.377 399.993 413.785C400.584 413.194 401.386 412.862 402.223 412.861ZM381.123 417.67C381.058 417.254 381.077 416.83 381.179 416.421C381.281 416.013 381.464 415.629 381.716 415.292C381.969 414.955 382.286 414.672 382.649 414.459C383.012 414.247 383.414 414.109 383.832 414.054C384.249 413.998 384.673 414.027 385.079 414.138C385.485 414.249 385.865 414.44 386.196 414.7C386.527 414.96 386.803 415.283 387.008 415.651C387.212 416.019 387.341 416.424 387.387 416.843C387.442 417.254 387.415 417.671 387.308 418.072C387.202 418.472 387.017 418.848 386.765 419.177C386.513 419.506 386.198 419.782 385.839 419.99C385.48 420.197 385.084 420.331 384.672 420.385C384.261 420.441 383.843 420.414 383.441 420.308C383.04 420.201 382.664 420.016 382.334 419.764C382.004 419.512 381.727 419.197 381.519 418.838C381.312 418.478 381.177 418.082 381.123 417.67ZM364.476 422.601C363.914 421.051 364.709 419.377 366.242 418.865C367.78 418.355 369.48 419.202 370.037 420.76C370.598 422.311 369.803 423.985 368.271 424.497C366.733 425.001 365.033 424.153 364.476 422.601ZM417.129 416.842C417.239 416.011 417.674 415.258 418.339 414.748C419.004 414.238 419.844 414.014 420.675 414.123C421.506 414.233 422.259 414.669 422.768 415.334C423.278 415.999 423.503 416.839 423.393 417.67C423.282 418.501 422.846 419.254 422.181 419.764C421.515 420.274 420.675 420.5 419.843 420.392C419.013 420.28 418.261 419.843 417.753 419.178C417.244 418.512 417.019 417.672 417.129 416.842ZM434.481 420.754C435.044 419.202 436.744 418.355 438.276 418.859C439.814 419.37 440.603 421.045 440.04 422.596C439.485 424.147 437.778 425.001 436.246 424.49C434.707 423.98 433.926 422.305 434.482 420.753L434.481 420.754ZM402.209 386.169C403.015 386.169 403.788 386.489 404.358 387.058C404.928 387.628 405.248 388.401 405.248 389.206C405.248 390.887 403.884 392.239 402.209 392.239C400.535 392.239 399.171 390.88 399.171 389.206C399.171 387.533 400.536 386.169 402.209 386.169ZM429.975 389.245C431.649 389.245 433.013 390.602 433.013 392.283C433.013 393.963 431.649 395.315 429.975 395.315C428.302 395.315 426.937 393.958 426.937 392.283C426.937 390.608 428.301 389.245 429.975 389.245ZM457.423 397.733C459.097 397.733 460.461 399.091 460.461 400.771C460.461 402.452 459.098 403.803 457.423 403.803C455.748 403.803 454.384 402.446 454.384 400.771C454.384 399.097 455.743 397.733 457.423 397.733ZM377.574 392.278C377.574 393.952 376.216 395.316 374.535 395.316C372.855 395.316 371.503 393.952 371.503 392.277C371.503 390.603 372.861 389.239 374.535 389.239C376.21 389.239 377.574 390.604 377.574 392.278ZM350.13 400.772C350.13 402.446 348.773 403.81 347.092 403.81C345.411 403.81 344.061 402.446 344.061 400.771C344.061 399.097 345.417 397.733 347.092 397.733C348.767 397.733 350.13 399.098 350.13 400.772Z" fill="white"/>
<path d="M313.756 61.8389C309.89 61.8389 307.841 62.6406 306.27 63.8621C303.497 66.0609 302.081 69.9001 302.081 75.9514C302.081 82.0027 303.496 85.8418 306.27 88.0398C307.841 89.2688 309.89 90.0631 313.756 90.0631C317.622 90.0631 319.671 89.2613 321.235 88.0398C324.008 85.8418 325.425 82.0019 325.425 75.9505C325.425 69.8992 324.008 66.0601 321.236 63.8621C319.664 62.634 317.616 61.8389 313.756 61.8389ZM313.756 66.5124C315.035 66.5124 315.811 66.9914 316.297 67.7213C316.956 68.7363 317.195 70.1325 317.195 75.9505C317.195 81.7686 316.962 83.1715 316.297 84.1798C315.805 84.9113 315.029 85.3887 313.755 85.3887C312.483 85.3887 311.7 84.9105 311.208 84.1798C310.55 83.1657 310.31 81.7686 310.31 75.9505C310.31 70.1325 310.543 68.7304 311.208 67.7213C311.7 66.9914 312.476 66.5124 313.756 66.5124ZM299.276 76.6102V88.156C299.276 89.171 298.899 89.5907 297.847 89.5907H275.68V85.3252C278.317 85.3252 278.84 84.5167 278.84 82.1958V64.1664C278.84 61.3606 278.343 60.6559 275.68 60.6559V56.3895H291.182V60.6559C287.801 60.6559 287.186 61.7937 287.186 64.2634V84.0703C287.186 84.6914 287.394 84.9431 288.078 84.9431C292.359 84.9431 293.903 83.424 295.623 76.6169H299.268L299.276 76.6102ZM389.404 83.2819L382.752 58.4002C382.35 56.9129 381.789 56.3828 380.127 56.3828H365.698V60.3908C368.117 60.533 368.718 61.5421 368.032 64.1146L363.177 82.4742C362.635 84.5042 361.957 85.1697 360.113 85.2666V89.5848H373.126V85.2666C369.939 85.2666 369.176 84.342 369.662 82.4032L369.9 81.4074C370.03 80.9033 370.237 80.6709 370.87 80.6709H379.287C379.927 80.6709 380.127 80.9033 380.25 81.4066L380.515 82.4676C380.974 84.3294 380.244 85.2666 377.522 85.2666V89.5848H392.009V85.2666C390.432 85.1897 389.747 84.6588 389.392 83.2827M378.026 76.3067H372.131C371.4 76.3067 371.219 76.0668 371.4 75.3369L374.42 63.1189C374.543 62.634 374.756 62.4208 375.078 62.4208C375.402 62.4208 375.622 62.634 375.738 63.1189L378.756 75.3369C378.938 76.0743 378.756 76.3067 378.02 76.3067M457.683 67.2172C456.991 68.0516 456.688 69.5707 456.688 72.7184C456.688 73.3262 456.908 73.5461 457.495 73.5461H462.68C463.268 73.5461 463.462 73.3262 463.487 72.7184C463.598 70.0556 463.249 68.0516 462.563 67.2172C462.098 66.6487 461.445 66.2674 460.172 66.2674C458.898 66.2674 458.155 66.6487 457.683 67.2172ZM461.296 85.5576C464.025 85.5576 465.842 84.1029 467.05 80.9292H470.489V85.5634C470.489 87.7037 469.933 88.3893 468.116 88.9896C466.08 89.6626 463.552 90.0564 460.494 90.0564C456.396 90.0564 453.752 89.2036 451.89 87.4454C449.575 85.26 448.541 81.7368 448.541 76.0868C448.541 70.4368 449.687 67.0625 452.026 64.6513C453.72 62.9057 456.169 61.8255 460.572 61.8255C464.412 61.8255 467.024 62.8605 468.647 64.6054C470.573 66.6746 471.238 69.6936 471.238 74.5226C471.238 77.2824 470.805 77.8191 468.744 77.8191H457.502C456.908 77.8191 456.694 78.0457 456.694 78.6468C456.694 83.883 458.258 85.5509 461.303 85.5509M496.444 67.2172C495.753 68.0516 495.449 69.5707 495.449 72.7184C495.449 73.3262 495.668 73.5461 496.257 73.5461H501.441C502.036 73.5461 502.223 73.3262 502.249 72.7184C502.359 70.0556 502.003 68.0516 501.324 67.2172C500.854 66.6487 500.2 66.2674 498.927 66.2674C497.653 66.2674 496.916 66.6487 496.438 67.2172M500.052 85.5576C502.78 85.5576 504.603 84.1029 505.805 80.9292H509.25V85.5634C509.25 87.7037 508.695 88.3893 506.872 88.9896C504.842 89.6626 502.308 90.0564 499.257 90.0564C495.152 90.0564 492.507 89.2036 490.652 87.4454C488.338 85.26 487.297 81.7368 487.297 76.0868C487.297 70.4368 488.441 67.0625 490.788 64.6513C492.481 62.9057 494.925 61.8255 499.335 61.8255C503.168 61.8255 505.779 62.8605 507.402 64.6054C509.328 66.6746 509.993 69.6936 509.993 74.5226C509.993 77.2824 509.56 77.8191 507.499 77.8191H496.257C495.662 77.8191 495.449 78.0457 495.449 78.6468C495.449 83.883 497.013 85.5509 500.058 85.5509M483.102 82.8296C483.102 84.5426 483.864 85.3185 485.577 85.3185V89.5848H478.718C476.281 89.5848 475.227 88.447 475.227 86.0743V63.164C475.227 61.4576 474.471 60.6751 472.752 60.6751V56.4087H483.094V82.8296H483.102ZM347.74 70.6375H344.753C343.441 67.6051 341.01 66.1571 338.231 66.1571C336.129 66.1571 335.289 67.1336 335.289 68.4328C335.289 69.9001 336.142 70.7662 338.14 71.471L341.799 72.7518C347.229 74.6513 349.272 77.0173 349.272 81.4785C349.272 87.3033 345.387 90.0631 338.334 90.0631C335.819 90.0631 333.151 89.727 331.359 89.3073C328.98 88.7379 328.573 88.1243 328.573 86.4363V80.9351H331.779C333.299 83.9666 335.535 85.7064 338.786 85.7064C341.159 85.7064 342.278 84.6137 342.278 83.0235C342.278 81.4334 341.256 80.5471 339.02 79.7713L335.458 78.5364C330.519 76.8234 328.501 74.393 328.501 69.9067C328.501 64.8838 331.656 61.8456 338.741 61.8456C340.92 61.8456 343.034 62.1173 344.953 62.5562C347.32 63.1063 347.74 63.7977 347.74 65.7758V70.6441V70.6375ZM532.665 70.6375H529.685C528.373 67.6051 525.942 66.1571 523.162 66.1571C521.055 66.1571 520.221 67.1336 520.221 68.4328C520.221 69.9001 521.074 70.7662 523.072 71.471L526.731 72.7518C532.161 74.6513 534.204 77.0173 534.204 81.4785C534.204 87.3033 530.319 90.0631 523.266 90.0631C520.744 90.0631 518.081 89.727 516.285 89.3073C513.905 88.7379 513.505 88.1243 513.505 86.4363V80.9351H516.711C518.23 83.9666 520.467 85.7064 523.719 85.7064C526.091 85.7064 527.203 84.6137 527.203 83.0235C527.203 81.4334 526.188 80.5471 523.951 79.7713L520.39 78.5364C515.444 76.8234 513.434 74.393 513.434 69.9067C513.434 64.8838 516.594 61.8456 523.68 61.8456C525.852 61.8456 527.965 62.1173 529.885 62.5562C532.252 63.1063 532.672 63.7977 532.672 65.7758V70.6441L532.665 70.6375ZM420.376 85.3185V89.5848H413.323C410.886 89.5848 409.831 88.447 409.831 86.0743C409.831 81.3949 409.968 76.1713 409.968 70.8833C409.968 68.4654 409.198 67.5081 407.653 67.5081C405.644 67.5081 404.35 69.0272 404.35 72.2017V82.8296C404.35 84.5435 405.106 85.3185 406.826 85.3185V89.5848H393.993V85.3185C395.714 85.3185 396.47 84.5426 396.47 82.8296V69.0732C396.47 67.366 395.714 66.5843 393.993 66.5843V62.3171H399.683C402.152 62.3171 403.096 63.1063 403.64 65.3168C403.742 65.7499 404.027 65.7892 404.279 65.4004C405.779 63.0679 407.861 61.8389 411.21 61.8389C415.909 61.8389 418.023 64.3662 418.023 69.635C418.023 74.9038 417.887 78.1485 417.887 82.8296C417.887 84.5435 418.649 85.3185 420.362 85.3185M433.77 78.6083C434.785 78.6083 435.373 78.3107 435.852 77.8133C436.705 76.9396 437.022 75.6153 437.022 72.5579C437.022 69.5004 436.705 68.1811 435.852 67.3075C435.373 66.81 434.785 66.5132 433.77 66.5132C432.756 66.5132 432.167 66.81 431.688 67.3075C430.835 68.1811 430.519 69.5063 430.519 72.5579C430.519 75.6094 430.835 76.9396 431.688 77.8133C432.167 78.3107 432.756 78.6083 433.77 78.6083ZM433.919 96.5341C437.823 96.5341 438.935 96.2632 439.582 95.7256C440.06 95.3377 440.28 94.8143 440.28 94.2132C440.28 93.0503 439.511 92.5712 437.811 92.5712C434.838 92.5712 431.928 92.649 429.142 92.649C427.448 92.649 426.672 93.2885 426.672 94.3813C426.672 94.9573 426.899 95.4481 427.383 95.8034C428.049 96.2883 428.935 96.5274 433.15 96.5274H433.905L433.92 96.5341H433.919ZM442.762 66.9204C444.282 68.4069 445.083 70.5012 445.083 73.2225C445.083 79.1509 441.172 83.2827 433.538 83.2827C431.928 83.2827 431.702 83.2049 430.447 83.2049C429.303 83.2049 428.831 83.6957 428.831 84.3294C428.831 85.1371 429.368 85.7574 431.165 85.7574C433.951 85.7574 436.007 85.622 438.987 85.622C444.85 85.622 447.087 88.059 447.087 92.1448C447.087 94.4975 446.299 96.3334 444.78 97.6327C442.892 99.2496 440.442 100.019 433.654 100.019H432.025C426.258 100.019 424.307 99.4695 423.039 98.4863C422.037 97.7171 421.571 96.6511 421.571 95.3385C421.571 93.521 422.632 92.0738 424.798 91.4927C425.14 91.3949 425.088 91.124 424.798 90.9426C423.221 89.9661 422.457 88.6083 422.457 86.7339C422.457 84.4582 423.77 82.6414 426.414 81.9768C426.782 81.8848 426.788 81.6006 426.505 81.3882C423.847 79.4151 422.599 76.6687 422.599 72.5579C422.599 65.7106 426.42 61.8397 434.028 61.8397C436.77 61.8397 438.496 62.3171 442.084 62.3171H447.475V66.3126H442.995C442.549 66.3126 442.432 66.5968 442.762 66.9204Z" fill="#010101"/>
<path d="M601.557 184.463C601.557 185.329 602.042 186.177 605.662 186.706C607.413 186.965 609.495 187.249 611.679 187.533C611.875 191.273 612.531 194.975 613.632 198.555L618.939 198.439C617.463 194.118 616.673 189.592 616.6 185.026L601.55 184.463H601.557ZM557.423 141.24C565.265 141.997 570.106 146.961 571.581 159.923L576.384 159.438C574.703 145.636 569.105 141.118 560.015 141.118C559.129 141.118 558.27 141.157 557.423 141.235M594.709 245.85H589.855L580.72 273.028L585.678 272.717L594.709 245.85ZM631.158 239.457C634.403 239.897 640.047 240.452 645.922 240.943C649.356 245.094 651.632 249.011 652.866 252.948L658.187 252.831C656.926 248.061 654.21 243.335 649.769 238.312L626.904 237.298C626.904 238.293 627.531 238.965 631.159 239.464M637.441 137.505C647.772 128.694 661.65 124 679.099 123.683C678.09 123.664 677.095 123.658 676.119 123.658C657.604 123.658 643.014 128.481 632.296 137.783L637.441 137.505ZM676.764 141.08C675.956 141.08 675.16 141.118 674.378 141.177C680.894 141.674 685.181 144.279 687.566 150.162L692.201 149.638C689.466 143.432 684.476 141.08 676.763 141.08H676.764ZM581.36 201.536C581.36 202.447 582.032 203.223 585.678 203.676C592.285 204.491 604.749 205.576 616.889 206.475C619.921 212.383 624.226 218.157 629.805 224.065L635.843 223.89C629.075 216.832 624.013 210.056 620.787 203.029L581.36 201.536ZM609.158 226.897C609.158 227.892 609.87 228.616 613.502 229.082C619.334 229.831 628.623 230.607 636.671 231.138L639.742 234.286L645.573 233.879L640.078 228.255L609.152 226.903L609.158 226.897ZM329.432 259.044L338.178 233.07L306.541 231.764C306.541 232.811 307.226 233.574 310.859 234.007C316.057 234.615 324.169 235.404 332.302 236.096L324.487 259.316L329.432 259.038V259.044ZM253.447 263.046L260.584 241.835L220.317 240.518C220.317 241.565 221.389 242.573 224.868 242.89C231.779 243.517 243.473 244.299 254.695 244.926L248.547 263.202L253.454 263.046H253.447ZM428.598 198.976C429.664 199.203 430.847 199.448 432.089 199.7L416.348 246.433L416.218 255.374C416.167 258.546 417.097 258.605 418.151 255.471L437.636 197.618L424.473 196.572C424.473 197.561 425.023 198.207 428.597 198.97M430.259 169.362C432.638 169.788 437.26 170.428 441.766 170.959L434.06 193.856L439.038 193.468L447.118 169.471C447.274 169.019 447.415 168.58 447.565 168.139L425.972 167.053C425.972 168.017 426.658 168.715 430.259 169.362ZM499.564 155.645C502.532 151.339 505.589 147.629 508.821 144.396C522.19 131.047 539.121 124.13 564.675 123.735C563.826 123.713 562.977 123.7 562.128 123.696C535.261 123.696 517.749 130.646 503.966 144.396C500.663 147.692 497.547 151.494 494.516 155.923L499.557 155.645H499.564ZM444.027 163.945L448.935 163.673C453.259 148.372 450.099 143.924 438.546 141.416L443.538 126.579H438.682L433.045 143.33C445.909 146.122 448.34 149.413 444.022 163.945M618.391 143.2C620.454 143.549 623.098 143.949 625.961 144.325C621.649 149.664 618.191 155.98 615.657 163.317C613.433 169.755 612.154 175.67 611.758 181.256L616.736 180.655C617.117 175.277 618.359 169.556 620.511 163.317C623.42 154.894 627.532 147.783 632.788 141.991L614.111 140.872C614.111 141.998 614.784 142.592 618.391 143.2ZM476.159 206.792C477.926 201.643 479.789 196.528 481.749 191.45L468.957 190.437C468.957 191.251 469.512 191.929 471.232 192.427C472.558 192.809 474.205 193.19 476.081 193.559C474.421 197.943 472.828 202.352 471.303 206.785C470.358 209.521 469.433 212.265 468.53 215.015L473.507 214.633C474.372 212.011 475.256 209.395 476.158 206.785M488.116 176.259L477.01 175.38C477.01 176.337 477.688 176.886 479.706 177.442C480.5 177.669 481.419 177.889 482.427 178.115C481.005 181.292 479.647 184.497 478.354 187.728L483.37 187.34C484.961 183.39 486.539 179.685 488.116 176.259ZM496.726 159.995L477.01 159C477.01 159.917 477.94 160.758 479.68 161.062C482.492 161.547 486.364 162.076 490.365 162.503C488.53 165.638 486.726 169.059 484.923 172.782L489.952 172.394C492.188 167.804 494.439 163.699 496.726 159.995V159.995ZM113.275 261.856L119.455 243.472L101.418 242.365C101.418 243.304 101.864 244.209 105.478 244.796C107.831 245.178 110.669 245.604 113.747 246.012L108.368 261.993L113.267 261.856H113.274H113.275ZM472.098 218.97L457.798 217.839C457.798 218.834 458.348 219.637 461.942 220.418C463.177 220.69 464.748 220.994 466.5 221.31C462.15 235.191 459.343 246.659 458.005 256.303L462.886 256.019C464.321 245.889 467.359 233.761 472.091 218.97M668.936 167.745C673.805 168.307 681.75 169.012 689.921 169.529C689.844 172.659 689.686 175.787 689.448 178.909H694.304C694.639 174.423 694.808 170.415 694.801 166.854L665.025 165.548C665.025 166.795 665.943 167.395 668.93 167.745M529.327 211.937L523.696 228.688C536.167 230.698 539.088 232.553 535.521 245.502L540.369 245.372C543.905 231.886 540.893 228.519 529.192 226.781L534.182 211.944H529.328V211.937H529.327ZM693.58 153.86L678.381 153.194C678.381 154.132 679.008 154.797 682.622 155.379C684.224 155.638 686.579 155.987 689.216 156.349C689.526 158.23 689.732 160.305 689.849 162.6L694.698 162.464C694.523 159.154 694.154 156.303 693.58 153.86ZM462.361 260.396L443.769 259.219C443.769 260.183 444.415 260.958 448.01 261.631C450.176 262.032 453.563 262.562 457.28 263.073C456.879 268.832 457.1 273.861 457.933 278.329L462.756 278.173C461.825 273.059 461.689 267.21 462.368 260.396M576.918 171.127C576.95 168.418 576.892 165.943 576.763 163.654L561.689 162.968C561.689 163.971 562.554 164.656 565.133 165.057C566.969 165.341 569.452 165.658 572.012 165.923C572.07 167.584 572.07 169.388 572.045 171.262L576.918 171.127ZM658.962 257.389L620.446 255.928C620.446 256.866 621.138 257.615 624.784 258.068C631.998 258.96 644.048 260.111 653.99 260.854C653.913 264.145 653.202 267.564 651.929 271.256L656.881 270.984C658.528 266.161 659.298 261.707 658.962 257.382M537.746 253.957C538.218 252.558 538.672 251.153 539.11 249.742L510.057 248.469C510.057 249.458 510.846 250.04 513.129 250.331C518.423 251.022 526.173 251.816 533.42 252.386C533.246 252.896 533.084 253.414 532.897 253.957L529.672 263.543L534.617 263.279L537.752 253.957H537.746ZM628.145 290.495C628.984 290.548 629.825 290.574 630.665 290.573C641.785 290.573 650.13 285.763 655.056 275.503L634.853 274.288C634.853 275.258 635.564 276.201 639.198 276.693C642.107 277.081 645.435 277.495 648.953 277.883C644.311 285.833 637.238 289.9 628.151 290.488M533.079 267.823L512.477 266.589C512.477 267.526 513.226 268.133 515.715 268.554C519.154 269.129 523.091 269.691 527.417 270.215L524.863 277.811L529.84 277.424L533.073 267.817L533.079 267.823ZM576.112 185.685C576.443 182.014 576.662 178.638 576.792 175.503L547.164 174.21C547.164 175.173 547.837 175.871 551.477 176.35C556.933 177.073 563.643 177.811 571.795 178.49C571.654 180.891 571.475 183.29 571.257 185.685H576.112ZM518.835 289.868C520.426 289.796 521.971 289.687 523.425 289.48C525.105 289.24 526.158 288.388 526.794 286.519L528.473 281.528L515.654 280.513C515.654 281.327 516.449 281.993 518.182 282.439C519.384 282.75 521.124 283.093 523.004 283.365L521.945 286.519C521.356 288.251 520.691 289.28 518.841 289.873M382.005 166.724C382.058 163.622 381.101 163.634 380.105 166.621L377.021 175.762L376.318 224.828L381.178 224.324L382.006 166.731V166.724H382.005ZM143.556 155.456L148.327 155.171C149.827 146.406 147.241 143.684 141.118 141.422L146.11 126.585H141.254L135.624 143.335C142.45 145.404 144.998 147.499 143.55 155.462M107.289 172.781C114.82 173.556 125.94 174.307 137.653 174.946L129.094 200.392L134.033 200.139L143.549 171.85L103.159 170.519C103.159 171.605 104.342 172.477 107.284 172.788M358.955 153.195L364.018 152.806C364.703 145.928 361.885 143.459 354.915 141.416L359.907 126.579H355.051L349.42 143.33C356.287 144.861 359.377 146.839 358.955 153.2M101.911 226.457C106.158 226.955 112.927 227.639 119.715 228.28L115.958 239.458L120.904 239.178L125.513 225.461L97.7358 224.174C97.7091 225.242 98.9698 226.108 101.904 226.45M211.886 160.143L208.053 163.66L215.144 163.421L215.396 163.187C228.034 151.603 226.877 143.367 216.676 141.422L221.667 126.585H216.812L211.181 143.341C222.443 144.602 222.798 150.155 211.886 160.15M281.826 126.579L276.195 143.33C283.345 145.495 285.801 147.68 283.888 156.614L288.665 156.374C290.617 146.652 288.077 143.788 281.69 141.423L286.673 126.586H281.82L281.826 126.579H281.826ZM131.111 160.538C133.949 161.029 137.601 161.566 141.888 162.121C141.34 163.923 140.764 165.716 140.162 167.501L145.042 167.409C145.993 164.507 146.748 161.967 147.331 159.71L128.099 158.47C128.099 159.556 128.855 160.163 131.104 160.545M468.845 292.945C466.633 289.835 464.959 286.403 463.802 282.544L436.722 281.256C436.722 282.182 437.419 282.911 441.04 283.396C445.132 283.94 453.219 284.826 459.949 285.453C460.984 288.108 462.341 290.626 463.989 292.951C470.687 302.396 485.082 308.02 505.233 308.02C506.338 308.02 507.443 308.007 508.544 307.994C489.214 307.709 475.373 302.151 468.845 292.957M111.408 267.404L111.751 266.375L82.0975 265.004C82.0975 266.064 82.8416 266.827 86.7067 267.312C91.529 267.913 98.0268 268.644 105.854 269.413C100.624 284.211 96.6623 286.77 86.8103 288.425L81.1729 305.181H86.0278L91.019 290.346C101.988 287.714 105.815 284.023 111.401 267.409M380.19 293.042L380.422 276.506L356.401 275.387C356.401 276.422 357.099 277.081 360.719 277.631C364.849 278.258 370.035 278.859 375.53 279.311L375.336 293.042C375.16 302.176 377.72 305.17 385.42 305.17H390.275C382.575 305.17 380.015 302.17 380.19 293.042ZM577.734 296.332L584.302 276.796L569.712 276.021C569.712 277.197 570.319 277.915 573.908 278.6C575.336 278.872 576.926 279.137 578.575 279.382L573.642 294.063C571.858 299.326 573.157 301.524 580.482 303.276C576.861 302.409 576.241 300.734 577.734 296.326M327.705 264.165L327.937 263.479L308.738 262.304C308.738 263.319 309.242 263.965 312.836 264.67C315.79 265.245 318.893 265.736 322.152 266.201C316.313 282.835 312.125 285.569 300.598 288.426L294.962 305.176H299.816L304.808 290.346C316.644 287.353 321.486 282.621 327.705 264.172M176.37 278.658L176.189 274.037L150.363 272.763C150.363 273.764 151.132 274.573 153.421 274.909C158.482 275.646 164.701 276.376 171.449 276.977L171.515 278.658C172.568 301.019 176.951 305.739 195.983 305.739C196.972 305.739 197.956 305.726 198.93 305.72C181.51 305.389 177.384 300.244 176.37 278.652M231.597 290.341C242.566 287.709 246.395 284.017 251.979 267.416L225.158 266.174C225.158 267.21 226.017 267.985 227.97 268.321C232.908 269.149 239.457 269.963 246.025 270.552C240.996 284.367 236.981 286.81 227.388 288.427L221.751 305.182H226.605L231.597 290.346V290.34V290.341ZM381.121 228.475L367.32 227.744C367.32 228.733 368.018 229.677 371.638 230.219C372.911 230.407 374.489 230.633 376.235 230.859L376.053 243.427L380.908 243.168L381.121 228.475ZM210.495 167.681L187.228 166.608C187.228 167.636 187.818 168.295 189.899 168.624C193.041 169.123 197.069 169.628 201.147 169.995L189.323 180.849L196.842 180.197L210.495 167.681H210.495ZM329.25 192.867C333.757 193.436 339.794 194.076 346.266 194.631L341.83 207.807L346.795 207.489L352.031 191.917L324.945 190.656C324.945 191.671 325.547 192.402 329.244 192.867M341.63 172.445C344.732 173.034 348.689 173.706 353.085 174.397L348.612 187.682L353.518 187.527L359.013 171.224L337.409 170.137C337.409 171.178 338.029 171.786 341.637 172.451M360.499 166.744C361.773 162.865 362.717 159.621 363.324 156.898L350.201 155.858C350.201 156.917 350.764 157.59 354.352 158.314C355.47 158.54 356.673 158.766 357.945 159.006C357.383 161.288 356.576 163.952 355.561 167.016L360.499 166.744ZM174.371 227C174.288 224.814 173.356 224.523 171.818 225.933L169.557 228.002L170.449 251.132L175.289 250.764L174.372 226.993L174.371 227ZM175.47 255.341L155.391 254.359C155.391 255.425 156.174 256.226 159.38 256.73C162.037 257.151 165.922 257.669 170.725 258.166L171.172 269.719L176.013 269.518L175.464 255.34H175.471L175.47 255.341ZM176.996 183.972C176.996 184.935 177.597 185.807 181.204 186.408C181.714 186.486 182.316 186.589 182.949 186.68L168.333 200.094L165.308 209.086L191.954 184.67L176.989 183.977L176.996 183.972ZM275.283 198.129L216.308 196.739C216.308 197.858 217.471 198.755 220.858 199.009C236.367 200.133 251.429 200.954 269.271 201.595L266.103 211.014L270.998 210.89L275.29 198.129H275.283ZM268.703 161.889C272.795 162.535 277.521 163.143 281.981 163.634C281.586 164.908 281.147 166.259 280.65 167.72L279.22 171.974L284.095 171.89L285.007 169.188C286.054 166.084 286.895 163.376 287.554 160.971L265.316 159.692C265.316 160.77 266.369 161.527 268.697 161.896M380.494 272.031L380.843 247.66L359.983 246.406C359.983 247.422 360.687 248.158 364.313 248.76C368.176 249.392 372.057 249.914 375.95 250.324L375.632 272.284L380.494 272.039V272.032V272.031ZM339.665 228.654L345.373 211.704L329.658 210.637C329.658 211.652 330.22 212.228 333.802 213.011C335.482 213.379 337.492 213.773 339.69 214.18L334.778 228.771L339.671 228.648L339.665 228.655V228.654ZM282.626 176.305L239.418 174.98C239.418 176.227 241.027 177.017 243.968 177.249C252.702 177.928 264.028 178.639 276.763 179.318L271.934 193.688L276.808 193.624L282.633 176.305H282.627H282.626ZM127.039 220.948L132.488 204.736L110.45 203.469C110.45 204.361 111.271 204.936 113.443 205.299C116.675 205.835 121.692 206.559 126.811 207.187L122.125 221.117L127.039 220.949V220.948ZM262.071 237.402L269.446 215.473L235.339 214.064C235.314 215.041 236.296 215.913 238.765 216.191C245.605 216.973 255.295 217.905 263.538 218.596L257.183 237.492L262.063 237.402H262.071Z" fill="white"/>
<path d="M722.813 134.746L707.932 178.912H694.298C694.634 174.419 694.803 170.417 694.796 166.849L665.02 165.549C665.02 164.438 666.087 163.262 670.587 163.133L694.687 162.46C694.511 159.149 694.143 156.299 693.568 153.855L678.37 153.189C678.37 152.026 679.346 151.082 683.846 150.578L692.191 149.633C689.457 143.421 684.472 141.074 676.76 141.074C665.214 141.074 657.121 147.261 653.061 158.697C648.199 172.383 650.365 181.044 661.95 192.836L672.416 203.51C695.65 227.203 699.309 244.811 690.232 269.655C681.123 294.562 661.698 307.97 625.516 307.97C610.143 307.97 592.895 306.231 580.47 303.271C576.85 302.41 576.236 300.73 577.729 296.321L584.297 276.785L569.707 276.01C569.707 274.93 570.424 273.773 573.753 273.456L585.668 272.706L594.705 245.84H609.186C606.122 280.263 612.806 290.562 630.655 290.562C641.767 290.562 650.119 285.752 655.039 275.493L634.837 274.277C634.837 273.211 635.923 272.105 640.404 271.859L656.869 270.973C658.524 266.151 659.287 261.697 658.957 257.372L620.44 255.911C620.44 254.832 621.552 253.61 626.006 253.495L658.181 252.809C656.913 248.038 654.205 243.312 649.764 238.283L626.905 237.274C626.905 236.136 627.958 235.083 632.432 234.773L645.575 233.855L640.079 228.231L609.154 226.879C609.154 225.786 610.221 224.591 614.72 224.468L635.839 223.874C629.071 216.808 624.009 210.033 620.783 203.012L581.356 201.518C581.356 200.298 582.468 199.211 586.923 199.1L618.947 198.416C617.474 194.093 616.685 189.568 616.607 185.002L601.558 184.44C601.558 183.282 602.521 182.325 607.014 181.796L616.73 180.631C617.111 175.254 618.352 169.533 620.512 163.293C623.421 154.863 627.526 147.76 632.788 141.967L614.113 140.85C614.113 139.679 615.198 138.676 619.678 138.432L637.443 137.474C648.135 128.353 662.641 123.627 680.976 123.627C693.638 123.627 708.921 125.179 719.917 127.745C723.835 128.657 724.423 129.936 722.813 134.72M591.835 226.77L596.826 211.94H534.185L529.2 226.77C540.901 228.514 543.92 231.883 540.377 245.361L515.624 246.06C511.125 246.188 510.058 247.339 510.058 248.477L539.11 249.744C538.676 251.156 538.221 252.561 537.747 253.96L534.612 263.281L518.042 264.173C513.569 264.413 512.482 265.518 512.482 266.591L533.085 267.825L529.853 277.432L521.223 278.097C516.717 278.447 515.664 279.422 515.664 280.515L528.482 281.53L526.801 286.514C526.168 288.39 525.108 289.236 523.434 289.476C520.803 289.856 517.919 289.947 514.881 289.947C508.151 289.947 502.074 288.046 499.353 283.852C494.782 276.805 495.352 264.199 512.768 213.548C528.263 168.393 534.689 156.028 542.776 148.025C547.249 143.596 552.996 141.12 560.03 141.12C569.119 141.12 574.717 145.633 576.404 159.441L567.186 160.365C562.68 160.818 561.704 161.8 561.704 162.964L576.78 163.656C576.915 165.931 576.966 168.413 576.934 171.122L552.737 171.801C548.238 171.931 547.171 173.126 547.171 174.219L576.806 175.512C576.661 178.911 576.434 182.305 576.126 185.693H590.626L607.887 134.416C609.613 129.284 608.978 128.178 604.719 127.377C592.249 125.075 577.892 123.704 567.005 123.704C540.138 123.704 522.619 130.654 508.843 144.404C505.611 147.63 502.554 151.347 499.586 155.653L482.597 156.59C478.111 156.835 477.031 157.902 477.031 159.008L496.748 160.003C494.46 163.707 492.21 167.811 489.973 172.401L482.597 172.978C478.091 173.32 477.037 174.219 477.037 175.388L488.137 176.268C486.56 179.694 484.983 183.398 483.392 187.348L474.549 188.034C470.043 188.382 468.983 189.385 468.983 190.451L481.769 191.467C479.814 196.545 477.952 201.659 476.184 206.806C475.283 209.416 474.4 212.032 473.534 214.654L463.39 215.436C458.878 215.785 457.825 216.755 457.825 217.855L472.13 218.986C467.398 233.782 464.347 245.904 462.926 256.034L449.369 256.816C444.89 257.061 443.809 258.147 443.809 259.234L462.395 260.41C461.716 267.224 461.851 273.074 462.783 278.188L442.316 278.848C437.81 278.99 436.751 280.147 436.751 281.266L463.83 282.552C464.987 286.424 466.669 289.85 468.872 292.953C475.569 302.398 489.967 308.022 510.111 308.022C526.123 308.022 541.508 306.264 553.313 302.857C555.582 302.205 556.493 301.26 557.404 298.564L575.822 243.809C579.785 232.044 582.429 229.11 591.868 226.782M490.193 141.417L495.184 126.582H443.538L438.548 141.417C450.093 143.925 453.261 148.373 448.936 163.675L431.54 164.638C427.06 164.884 425.981 165.925 425.981 167.056L447.572 168.148C447.43 168.588 447.288 169.021 447.126 169.48L439.045 193.471L430.046 194.175C425.534 194.518 424.48 195.48 424.48 196.591L437.649 197.633L418.158 255.484C417.104 258.626 416.174 258.561 416.226 255.387L417.893 138.87C418.016 129.717 415.682 126.594 407.013 126.594H359.906L354.916 141.431C361.885 143.473 364.703 145.936 364.018 152.814L355.769 153.455C351.263 153.803 350.203 154.695 350.203 155.873L363.332 156.913C362.731 159.634 361.774 162.88 360.501 166.758L342.963 167.728C338.476 167.974 337.396 168.989 337.396 170.14L359.008 171.232L353.513 187.536L330.505 188.254C326 188.396 324.946 189.456 324.946 190.671L352.032 191.925L346.79 207.505L335.218 208.235C330.731 208.519 329.652 209.502 329.652 210.653L345.367 211.72L339.659 228.669L312.101 229.368C307.647 229.484 306.535 230.603 306.535 231.786L338.172 233.092L329.426 259.066L314.085 259.919C309.598 260.165 308.733 261.219 308.733 262.337L327.932 263.507L327.7 264.193C321.481 282.649 316.645 287.375 304.802 290.368L299.818 305.203H351.463L356.454 290.368C343.557 287.569 341.107 282.364 347.876 262.305L380.102 166.648C381.103 163.655 382.053 163.649 382.002 166.752L381.174 224.345L372.874 225.204C368.368 225.67 367.314 226.666 367.314 227.765L381.117 228.495L380.903 243.189L365.549 244.016C361.07 244.25 359.983 245.173 359.983 246.428L380.844 247.682L380.495 272.053L361.968 272.996C357.482 273.243 356.402 274.219 356.402 275.408L380.431 276.534L380.199 293.069C380.024 302.204 382.577 305.197 390.283 305.197H420.97L467.301 167.612C473.522 149.156 478.362 144.43 490.199 141.436M287.891 262.57L320.932 164.361C326.523 147.746 330.343 144.055 341.321 141.424L346.304 126.587H286.682L281.691 141.424C288.085 143.79 290.62 146.653 288.674 156.377L270.888 157.281C266.403 157.534 265.323 158.555 265.323 159.699L287.562 160.978C286.908 163.384 286.062 166.099 285.02 169.196L284.109 171.898L244.985 172.563C240.512 172.648 239.42 173.876 239.42 174.981L282.628 176.307L276.803 193.625L221.875 194.33C217.414 194.389 216.309 195.609 216.309 196.747L275.292 198.137L270.992 210.898L240.914 211.655C236.458 211.765 235.354 212.858 235.354 214.066L269.454 215.475L262.078 237.402L225.883 238.107C221.41 238.192 220.317 239.349 220.317 240.525L260.585 241.851L253.453 263.053L230.725 263.766C226.219 263.908 225.159 264.942 225.159 266.183L251.98 267.425C246.395 284.026 242.574 287.723 231.597 290.348L226.613 305.184H286.236L291.226 290.348C282.622 287.161 281 283.088 287.897 262.576M212.811 276.262L207.956 196.334C207.795 193.631 208.318 192.513 210.2 190.788L248.379 155.82C259.977 145.2 264.121 142.93 271.426 141.431L276.423 126.582H221.668L216.677 141.417C226.879 143.369 228.043 151.606 215.398 163.184L215.146 163.416L192.798 164.18C188.292 164.322 187.232 165.517 187.232 166.597L210.497 167.67L196.845 180.186L182.519 181.427C178.013 181.873 177.011 182.829 177.011 183.96L191.97 184.653L165.323 209.069L180.372 164.342C185.957 147.727 189.145 145.949 200.108 143.312L205.746 126.562H146.116L141.134 141.398C147.254 143.667 149.833 146.383 148.334 155.149L133.673 156.021C129.192 156.273 128.106 157.25 128.106 158.439L147.339 159.687C146.757 161.936 146 164.477 145.05 167.378L108.738 168.084C104.265 168.167 103.173 169.344 103.173 170.502L143.563 171.827L134.048 200.122L116.03 201.033C111.544 201.28 110.464 202.145 110.464 203.451L132.502 204.725L127.053 220.932L103.315 221.747C98.8086 221.882 97.7551 223.026 97.7551 224.158L125.533 225.444L120.917 239.168L107.005 239.937C102.519 240.183 101.44 241.231 101.44 242.355L119.482 243.46L113.295 261.839L87.6891 262.577C83.2346 262.685 82.1235 263.849 82.1235 264.988L111.777 266.359L111.434 267.386C105.847 284 102.028 287.685 91.0509 290.322L86.0597 305.158H149.808L154.797 290.322C142.34 287.794 140.266 283.612 147.35 262.55L154.255 242.038L171.845 225.922C173.383 224.513 174.315 224.804 174.398 226.989L175.316 250.759L160.945 251.844C156.466 252.162 155.418 253.215 155.418 254.34L175.491 255.329L176.04 269.507L155.948 270.34C151.462 270.585 150.382 271.594 150.382 272.758L176.208 274.031L176.39 278.654C177.443 301.007 181.827 305.734 200.858 305.734C207.736 305.734 214.349 305.456 218.984 304.996L223.903 290.232C215.81 289.113 213.457 286.476 212.83 276.243M535.561 464.264V475.545H532.735V464.264H529.471V461.459H538.825V464.264H535.561ZM550.849 475.551V467.238L548.476 472.423H545.982L543.609 467.238V475.551H540.785V461.459H543.609L547.229 468.983L550.85 461.459H553.675V475.551H550.849Z" fill="#010101"/>
</g>
<defs>
<clipPath id="clip0_2_15120">
<rect width="802.607" height="512" fill="white" transform="translate(0.961914 0.800781)"/>
</clipPath>
</defs>
</svg>
