<svg width="1025" height="140" viewBox="0 0 1025 140" fill="none" xmlns="http://www.w3.org/2000/svg">
<g clip-path="url(#clip0_751_384)">
<path d="M81.5765 14.7374C81.5765 3.49568 70.8913 0.100893 61.9313 0.490458V1.4922C67.2739 1.88176 71.3922 4.0522 71.3922 7.66959C71.3922 10.1739 69.6113 13.2905 64.2687 13.2905C60.0391 13.2905 53.027 10.7861 46.46 8.61568C39.2252 6.11133 32.3244 3.77394 26.5922 3.77394C15.3504 3.77394 6.83566 12.1218 6.83566 22.4731C6.83566 30.8209 13.2913 33.7148 15.907 34.7722L16.0739 34.3826C14.4044 33.2696 13.347 32.0452 13.347 28.4835C13.347 25.4783 15.5174 21.4713 21.3052 21.4713C26.5365 21.4713 33.3818 23.8087 42.4531 26.3687C50.2444 28.5392 58.6478 30.5983 63.3226 31.2105V49.4644L54.5296 56.6992L63.3226 64.2678V89.2557C58.8148 91.8157 53.5835 92.6505 49.0757 92.6505C40.7278 92.6505 33.0478 90.3131 26.7035 83.3009L50.4113 71.7809V32.3235L21.4722 45.2348C24.4774 37.5548 30.0983 31.8226 36.2757 28.0939L36.1087 27.6487C18.9122 32.3235 3.27393 48.0731 3.27393 67.5513C3.27393 90.8696 21.9174 108.177 43.4548 108.177C66.7731 108.177 80.4635 89.9235 80.2409 70.6122H79.7957C76.4009 78.0139 70.7244 85.0261 64.3244 88.6992V64.3235L73.507 56.9218L64.3244 49.52V31.2661C72.8391 31.2661 81.6322 25.6452 81.6322 14.7931M32.7696 79.0713L26.0357 82.4661C21.9174 77.1235 19.1904 69.5548 19.1904 59.8157C19.1904 55.8087 19.6357 50.3548 20.9713 46.5148L32.8809 41.1722L32.7139 79.0157L32.7696 79.0713ZM141.124 47.0157L136.617 50.5774L122.87 38.3339L106.954 50.6331V3.10611L85.3052 18.0765C87.8096 18.9113 90.8148 20.247 90.8148 26.0348V91.76L83.4131 97.3809L84.0809 98.0487L87.8096 95.4887L100.721 107.287L118.029 95.767L117.472 94.9322L113.076 97.8261L107.065 91.8157V52.1913L111.183 49.1861L120.644 57.4226V91.8713C120.644 113.687 115.803 118.195 106.008 121.757V122.313C122.314 122.981 137.006 117.471 137.006 89.5339V51.9687L141.903 47.9618L141.236 47.127L141.124 47.0157ZM170.175 107.12L195.274 86.9739L194.606 86.0278L181.472 96.4348L166.39 84.5252V77.1235L192.436 58.7583L179.302 38.3339L150.363 54.2505V92.0939L144.742 96.4905L145.41 97.3252L150.752 93.0957L170.23 107.231H170.175V107.12ZM166.335 75.5652V46.9044L178.968 66.6609L166.335 75.5652ZM299.065 9.39481C299.065 7.61394 298.62 6.11133 297.952 4.0522H297.563C295.782 8.89394 293.834 11.4539 288.213 11.4539C283.316 11.4539 279.42 8.44872 277.361 6.22263C277.361 6.38959 260.888 25.2557 260.888 25.2557L261.723 25.9235L266.397 20.5809C269.959 23.3078 273.131 26.48 281.034 26.5913V74.6748L247.309 16.24C244.693 11.8435 240.185 5.27655 232.505 5.27655C223.434 5.27655 216.589 13.0679 217.702 26.2574H218.258C218.926 22.9739 220.874 18.8557 224.825 18.8557C227.997 18.8557 230.557 21.8609 232.06 24.5879V43.3983C221.653 43.3983 215.754 48.24 215.754 56.4209C215.754 59.8157 218.258 67.2174 225.326 68.4974V68.1078C224.38 67.1618 223.434 66.327 223.434 64.3792C223.434 61.207 225.771 59.4818 230.001 59.4818C230.669 59.4818 231.67 59.6487 232.06 59.76V84.1357C219.817 84.3026 210.411 90.9809 210.411 102.557C210.411 114.132 219.872 118.584 229.723 118.028V117.638C223.545 116.97 220.373 113.798 220.373 109.29C220.373 104.393 223.935 101.722 228.443 101.722C232.95 101.722 236.401 104.616 239.295 107.899L255.768 89.367L255.1 88.6992L250.87 93.5409C244.526 87.92 240.464 85.3044 233.173 84.1913V26.4244L279.698 107.51H282.203V26.7026C291.107 26.1461 299.065 19.4678 299.065 9.39481ZM314.703 107.009L339.803 86.8626L339.135 85.9165L326.001 96.3235L310.919 84.4139V77.0122L336.964 58.647L323.83 38.2226L294.891 54.1391V91.9826L289.27 96.3792L289.938 97.2139L295.281 92.9844L314.759 107.12L314.703 107.009ZM310.863 75.4539V46.7931L323.497 66.5496L310.863 75.4539ZM428.957 44.7339L425.117 47.6278L414.154 38.2783L401.41 49.7983L406.641 54.6957V97.6591L393.618 88.7548V53.9165L398.126 50.7444L384.714 38.2783L372.248 49.7983L377.479 54.6957V96.2122L376.644 96.7687L364.401 87.8644V53.7496C364.401 45.7913 360.394 43.4539 355.33 40.3374C351.1 37.7218 348.874 35.2731 348.874 31.2661C348.874 26.8696 352.714 25.0887 353.938 24.4209C349.542 24.2539 337.354 28.6505 337.076 39.7809C336.909 45.5131 339.691 48.0174 342.585 50.7444C345.479 53.4713 348.206 56.087 348.206 60.9287V94.3757L342.307 99.0505L342.975 99.7183L348.596 95.3218L363.232 107.231L377.201 97.4922L392.561 107.231L422.724 89.4226V50.7444L429.458 45.5131L428.902 44.6783L428.957 44.7339ZM529.966 12.2331L524.234 17.4644L511.323 6.22263L493.904 20.1913V7.05742H492.846V101.277C490.954 100.998 486.947 99.8852 482.55 99.2174V20.3583C482.55 14.6261 478.432 6.6122 468.137 6.6122C457.841 6.6122 451.385 15.2939 451.385 22.807H451.83C452.387 19.4122 454.724 16.3513 458.119 16.3513C461.514 16.3513 464.686 18.5218 464.686 26.2574V48.7409C454.947 49.1305 449.048 55.1965 449.048 61.7635C449.048 65.4922 451.385 72.4487 458.787 72.727V72.1705C456.283 71.1131 455.782 69.8331 455.782 68.4418C455.782 65.1583 458.954 64.0452 463.35 64.0452H464.408V100.275C456.06 103.169 452.164 108.79 452.164 115.746C452.164 125.318 459.844 132.72 471.086 132.72C479.044 132.72 484.665 131.329 491.956 129.715C497.855 128.49 504.255 127.099 507.705 127.099C512.102 127.099 514.05 129.047 514.05 132.163C514.05 136.17 512.547 138.174 510.21 138.897V139.454C519.67 137.673 525.18 132.219 525.18 123.704C525.18 115.19 516.832 109.569 507.483 109.569C502.641 109.569 493.903 111.071 486.78 112.741C478.822 114.522 471.977 115.357 469.472 115.357C465.465 115.357 460.568 113.576 460.568 108.233C460.568 103.391 464.575 99.5513 474.425 99.5513C479.768 99.5513 484.999 100.386 491.566 101.889C498.578 103.391 503.364 105.45 509.375 105.45C517.723 105.45 524.457 102.445 524.457 90.2018V18.7444L530.634 13.1235L529.966 12.2887V12.2331ZM506.37 49.9652C504.867 51.6348 503.086 52.9705 500.192 52.9705C497.02 52.9705 495.35 51.3009 493.848 49.9652V21.6383L497.966 18.3548L506.314 25.4783V50.0209L506.37 49.9652ZM506.37 63.3774C504.978 61.9861 503.197 60.7618 500.192 60.7618C497.187 60.7618 495.128 62.2644 493.848 63.3774V51.3009C495.072 52.3583 497.131 54.0278 500.192 54.0278C503.253 54.0278 505.034 52.6365 506.37 51.3009V63.3774ZM506.37 91.76C506.37 96.4348 504.032 101.666 498.022 101.666C497.076 101.666 494.85 101.499 493.904 101.388V64.7687C495.295 63.5444 497.076 61.8748 500.248 61.8748C503.142 61.8748 504.756 63.2661 506.425 64.7687V91.8157L506.37 91.76ZM555.232 107.009L583.225 89.5896V51.4678L565.138 38.167L537.145 54.1948V91.927L531.636 96.3235L532.192 97.1583L536.7 93.4296L555.232 107.009ZM553.173 87.2522V46.6261L567.142 57.0331V97.6591L553.173 87.2522ZM636.707 39.1131C634.537 40.6157 632.589 41.4505 630.53 41.4505C628.359 41.4505 625.632 40.0592 624.185 38.2783C624.185 38.4452 613.778 49.52 613.778 49.52L603.371 38.2783L586.397 50.0765L586.954 51.0226L591.462 48.0174L597.639 54.7513V91.6487L590.237 97.2696L590.905 97.9374L594.634 95.3774L608.491 107.176L626.022 95.5444L625.465 94.7096L620.957 97.4365L613.834 90.9809V50.4661C616.728 53.6383 620.011 56.3652 623.963 56.3652C631.086 56.3652 635.872 47.8505 636.707 39.0574M702.822 93.6522L697.59 96.9357L668.651 53.7496L670.154 51.6905C673.326 53.5826 676.164 56.1983 682.23 56.1983C688.297 56.1983 695.977 49.8539 696.644 38.2226C695.142 40.2818 692.137 42.7305 687.183 42.7305C683.622 42.7305 680.06 40.3931 677.89 38.2226L658.133 67.2731L684.345 107.176L703.378 94.5426L702.822 93.5965V93.6522ZM667.705 94.7096L663.309 97.6035L657.298 91.5931V3.10611L635.65 18.0765C638.154 18.9113 641.159 20.247 641.159 26.0348V91.76L633.757 97.3809L634.425 98.0487L638.154 95.4887L651.065 107.287L668.373 95.767L667.817 94.9322L667.705 94.7096ZM795.093 14.6261C795.093 3.38437 784.408 -0.0104113 775.448 0.379154V1.4922C780.79 1.88176 784.909 4.0522 784.909 7.66959C784.909 10.1739 783.128 13.2905 777.785 13.2905C773.556 13.2905 766.544 10.7861 759.977 8.61568C752.742 6.11133 745.841 3.77394 740.109 3.77394C728.867 3.77394 720.352 12.1218 720.352 22.4174C720.352 30.7652 726.808 33.6592 729.423 34.7165L729.59 34.327C727.921 33.2139 726.864 31.9896 726.864 28.4279C726.864 25.4226 729.034 21.4157 734.822 21.4157C740.053 21.4157 746.898 23.7531 755.97 26.3131C763.761 28.4835 772.164 30.5426 776.839 31.1548V49.4087L768.046 56.6435L776.839 64.2122V89.2C772.331 91.76 767.1 92.5948 762.592 92.5948C754.244 92.5948 746.509 90.2574 740.22 83.2452L763.928 71.7252V32.3235L734.989 45.2348C737.994 37.5548 743.615 31.8226 749.792 28.0939L749.625 27.6487C732.484 32.3235 716.846 48.0731 716.846 67.5513C716.846 90.8696 735.49 108.177 757.027 108.177C780.345 108.177 794.036 89.9235 793.813 70.6122H793.423C790.029 78.0139 784.352 85.0261 777.952 88.6992V64.3235L787.135 56.9218L777.952 49.52V31.2661C786.467 31.2661 795.26 25.6452 795.26 14.7931M746.397 79.127L739.664 82.5218C735.545 77.1792 732.818 69.6105 732.818 59.8713C732.818 55.8644 733.208 50.4105 734.599 46.5705L746.509 41.2279L746.342 79.0713L746.397 79.127ZM812.791 10.6192L800.714 20.7479L811.01 32.3792L823.086 22.2505L812.791 10.6192ZM831.156 94.9322L826.759 97.8261L820.749 91.8157V51.9131L825.813 47.9061L825.145 47.0713L820.916 50.3548L810.898 38.4452L794.425 49.9652L794.982 50.9113L799.1 48.1844L804.61 55.0296V91.8157L797.208 97.4365L797.876 98.1044L801.604 95.5444L814.516 107.343L831.824 95.8226L831.267 94.9878L831.156 94.9322ZM923.705 94.3757L919.587 97.1026L913.131 90.9252V51.8018L918.363 47.7948L917.695 46.96L913.02 50.5218L899.274 38.2783L883.803 50.3548L870.224 38.2783L854.975 50.1878L844.679 38.2783L828.206 49.7983L828.763 50.7444L832.881 48.0174L838.78 54.7513V91.5374L834.272 96.0452L847.406 107.176L860.15 95.6557L854.919 90.7583V51.5792L858.314 49.0748L867.775 57.3113V91.5931L863.378 96.1009L876.679 107.231L889.145 95.7113L883.914 90.8139V51.6348L887.197 49.0191L896.77 57.367V91.0922L892.93 95.0992L906.342 107.343L924.039 95.2661L923.483 94.4313H923.594L923.705 94.3757ZM971.566 86.0278L958.432 96.4348L943.35 84.5252V77.1235L969.396 58.7583L956.262 38.3339L927.323 54.2505V92.8174L947.19 107.231L972.29 87.0852L971.622 86.1392L971.566 86.0278ZM943.295 75.5652V46.9044L955.928 66.6609L943.295 75.5652ZM1021.88 70.167L1010.75 61.6522C1018.15 55.1965 1020.76 47.0157 1020.76 41.1165C1020.76 40.2818 1020.6 38.7792 1020.48 37.3879H1020.04C1018.98 40.3931 1016.03 43.0087 1011.52 43.0087C1007.02 43.0087 1004.51 40.5044 1001.79 37.4992L976.297 51.6348V72.3374L986.036 80.0174C976.297 88.6435 974.404 93.9861 974.404 98.9392C974.404 103.892 977.298 108.233 982.251 110.181L982.641 109.513C981.417 108.456 980.303 107.732 980.303 105.117C980.303 103.224 982.251 100.219 986.648 100.219C992.269 100.219 995.719 104.059 997.5 106.118C997.5 105.951 1021.88 91.1478 1021.88 91.1478V70.167ZM1016.14 53.1931C1012.3 60.0383 1003.84 66.7722 998.836 70.6122L992.658 65.3809V45.2348C995.163 50.7444 1000.23 55.3635 1006.79 55.3635C1010.63 55.3635 1013.14 54.6957 1016.09 53.1931M1005.51 98.4383C1002.62 91.9826 996.443 87.3078 989.597 87.3078C987.928 87.3078 982.863 87.1409 978.467 89.8678C981.083 85.4713 988.874 77.5687 998.78 71.6139L1005.51 77.2348V98.3826V98.4383Z" fill="black"/>
</g>
<defs>
<clipPath id="clip0_751_384">
<rect width="1024" height="139.13" fill="white" transform="translate(0.491211 0.434814)"/>
</clipPath>
</defs>
</svg>
