<svg width="532" height="513" viewBox="0 0 532 513" fill="none" xmlns="http://www.w3.org/2000/svg">
<g clip-path="url(#clip0_820_306)">
<path d="M95.148 0.0507812H437.354C489.478 0.0507812 531.732 42.305 531.732 94.4295V417.672C531.732 469.797 489.478 512.051 437.354 512.051H95.148C43.0235 512.051 0.769287 469.797 0.769287 417.672V94.4295C0.769287 42.305 43.0235 0.0507812 95.148 0.0507812Z" fill="#1E3101"/>
<path d="M165.013 362.479C152.739 362.593 140.484 361.446 128.443 359.057C118.933 357.236 109.674 354.273 100.88 350.229C98.78 348.945 97.647 346.536 97.9978 344.104V301.229C97.9077 300.452 98.2538 299.693 98.8985 299.247C99.657 298.892 100.544 298.963 101.24 299.428C111.201 305.624 122 310.355 133.307 313.479C144.092 316.532 155.247 318.106 166.454 318.163C180.145 318.163 189.935 316.063 195.818 311.858C201.242 308.482 204.57 302.575 204.645 296.185C204.702 292.326 203.707 288.529 201.763 285.196C199.16 281.294 195.714 278.033 191.675 275.648C185.389 271.794 178.752 268.537 171.859 265.92L153.844 258.354C141.442 253.438 129.846 246.701 119.435 238.357C111.898 232.294 106.01 224.424 102.321 215.479C99.1545 207.073 97.5664 198.156 97.6375 189.177C97.1634 163.131 112.357 139.347 136.189 128.827C151.156 122.247 167.407 119.109 183.748 119.64C194.533 119.588 205.309 120.313 215.995 121.802C224.301 122.754 232.398 125.068 239.955 128.647C241.628 129.591 242.609 131.416 242.477 133.331C242.477 133.715 242.477 134.104 242.477 134.488C242.477 135.531 242.477 136.574 242.477 137.621C242.477 139.157 242.477 140.693 242.477 142.229C242.477 144.092 242.477 145.956 242.477 147.819C242.477 149.843 242.477 151.867 242.477 153.892C242.477 155.911 242.477 157.926 242.477 159.946C242.477 161.794 242.477 163.639 242.477 165.487C242.477 166.995 242.477 168.507 242.477 170.015C242.477 171.02 242.477 172.025 242.477 173.03C242.477 173.551 242.515 174.092 242.387 174.604C242.225 175.253 241.756 175.761 241.097 175.917C240.229 176.121 239.561 175.652 238.826 175.282C238.001 174.865 237.181 174.457 236.347 174.059C234.683 173.267 233 172.518 231.298 171.821C227.894 170.423 224.41 169.214 220.873 168.194C218.607 167.545 216.317 166.971 214.008 166.483C204.19 164.298 194.159 163.212 184.104 163.24C178.168 163.131 172.243 163.738 166.449 165.042C162.349 165.966 158.404 167.483 154.74 169.546C151.919 171.157 149.61 173.528 148.074 176.391C146.676 178.994 145.931 181.9 145.912 184.858C145.86 188.542 146.998 192.14 149.155 195.127C152.123 198.82 155.797 201.882 159.964 204.134C166.743 208.031 173.722 211.577 180.861 214.763L194.192 219.807C207.514 224.856 220.015 231.834 231.303 240.524C239.381 246.815 245.809 254.978 250.038 264.303C253.684 273.031 255.523 282.408 255.447 291.866C255.708 305.183 251.735 318.244 244.093 329.157C236.11 340.179 225.182 348.731 212.567 353.837C197.463 359.91 181.283 362.849 165.013 362.479Z" fill="#99E83F"/>
<path d="M324.619 314.567L375.782 317.089C389.98 317.175 404.036 319.924 417.216 325.196C426.365 328.894 434.159 335.308 439.554 343.571C444.176 351.36 446.547 360.277 446.4 369.332C446.39 381.611 442.266 393.534 434.69 403.2C426.109 414.113 414.798 422.566 401.903 427.7C385.927 434.062 368.832 437.125 351.642 436.708C334.784 437.262 317.992 434.38 302.281 428.241C290.984 423.884 281.128 416.46 273.818 406.803C268.243 399.412 265.095 390.476 264.81 381.222C264.934 376.884 266.043 372.637 268.058 368.792C270.836 363.449 274.287 358.485 278.326 354.02C284.034 347.605 290.173 341.585 296.701 336.005C305.614 328.363 314.934 321.204 324.619 314.567ZM347.683 297.273C338.647 297.287 329.64 296.258 320.841 294.21C312.275 292.257 304.111 288.844 296.701 284.122C289.419 279.49 283.413 273.114 279.222 265.567C274.695 257.038 272.457 247.476 272.737 237.824C272.637 226.887 275.638 216.145 281.384 206.839C287.466 197.186 296.142 189.445 306.425 184.5C318.859 178.65 332.499 175.81 346.237 176.213C352.723 176.213 359.028 176.512 365.153 177.114C371.278 177.716 376.384 178.38 380.465 179.096C382.144 179.338 383.708 179.518 385.149 179.636C386.59 179.759 387.908 179.816 389.113 179.816H438.473C439.914 179.816 440.635 180.66 440.635 182.338V215.846C440.924 216.951 440.256 218.084 439.151 218.368C438.81 218.458 438.454 218.458 438.113 218.368C435.709 218.368 431.926 218.188 426.763 217.828C421.596 217.467 417.092 217.045 413.252 216.567C414.85 219.605 416.116 222.805 417.035 226.114C418.202 230.523 418.747 235.07 418.657 239.626C419.102 251.079 415.883 262.376 409.469 271.872C403.074 280.609 394.237 287.251 384.068 290.968C372.439 295.32 360.099 297.458 347.683 297.273ZM342.634 319.251L304.443 343.031C299.849 338.323 296.237 332.753 293.814 326.637C291.524 320.73 290.481 314.411 290.752 308.082C290.965 302.924 291.937 297.828 293.634 292.949C295.265 288.237 297.702 283.847 300.845 279.979L336.509 294.391C335.718 296.092 335.229 297.922 335.068 299.795C334.826 301.952 334.826 304.128 335.068 306.28C335.054 308.651 335.746 310.969 337.05 312.946C338.628 315.283 340.506 317.402 342.634 319.251ZM400.647 376.898C400.964 372.793 399.206 368.806 395.963 366.27C392.057 363.672 387.629 361.951 382.992 361.226C376.929 360.083 370.785 359.424 364.617 359.244L324.985 357.442C320.964 360.017 317.575 363.463 315.076 367.531C313.052 370.29 311.753 373.509 311.293 376.898C311.502 380.985 313.237 384.844 316.157 387.707C320.315 391.865 325.459 394.904 331.11 396.535C338.799 398.962 346.83 400.119 354.889 399.957C363.769 400.209 372.638 399.118 381.191 396.715C386.766 395.226 391.857 392.311 395.963 388.248C398.907 385.199 400.58 381.141 400.647 376.898ZM371.823 237.824C371.894 233.354 370.97 228.921 369.121 224.853C367.338 221.032 364.451 217.832 360.834 215.666C356.496 213.229 351.571 212.044 346.602 212.243C339.799 211.835 333.115 214.172 328.047 218.728C323.325 223.782 320.912 230.566 321.382 237.464C321.306 243.75 323.553 249.842 327.687 254.578C332.546 259.778 339.501 262.495 346.602 261.964C353.344 262.305 359.947 259.978 364.977 255.479C369.666 250.837 372.155 244.418 371.823 237.824Z" fill="#99E83F"/>
</g>
<defs>
<clipPath id="clip0_820_306">
<rect width="530.963" height="512" fill="white" transform="translate(0.769287 0.0507812)"/>
</clipPath>
</defs>
</svg>
