<svg width="1025" height="320" viewBox="0 0 1025 320" fill="none" xmlns="http://www.w3.org/2000/svg">
<g clip-path="url(#clip0_2_14910)">
<path d="M978.383 30.7112C981.066 30.4904 983.206 29.1233 983.18 25.3023C983.155 20.5898 980.107 19.0869 974.944 19.1038L967.48 19.1463L967.557 39.8136L971.836 39.7881L971.794 31.1018L973.823 31.0848L978.476 39.7287H983.537L978.383 30.7112ZM975.581 27.5695L971.802 27.5949L971.76 22.6192L974.749 22.6107C976.379 22.6022 978.595 22.755 978.621 24.8778C978.629 27.1619 977.483 27.5695 975.581 27.5695ZM993.539 29.3781C993.48 17.2528 984.649 10.2307 974.808 10.2731C964.924 10.3241 956.17 17.4226 956.213 29.5479C956.264 41.6732 965.103 48.6868 974.961 48.6528C984.811 48.6019 993.582 41.5033 993.539 29.3781ZM974.961 44.229L974.952 44.1865C967.574 44.2714 961.613 38.3447 961.579 29.5224C961.536 20.6917 967.455 14.7819 974.834 14.7479C982.017 14.697 988.131 20.5558 988.165 29.395C988.199 38.2428 982.136 44.212 974.961 44.229ZM926.511 54.2654L904.892 54.1975L922.707 11.377L950.685 11.4194L926.511 54.2654ZM905.147 319.553L805.385 319.544L805.402 90.7941C805.402 73.5317 791.876 66.1784 775.149 66.1784C758.404 66.1784 744.92 73.1411 744.92 90.7941L744.929 249.153C744.929 263.189 751.297 271.968 763.618 271.977L763.609 319.553L664.331 319.536L664.348 90.7856C664.348 73.5742 650.814 66.1784 634.086 66.1784C616.764 66.1784 603.849 73.9138 603.841 90.7856V249.144C603.841 263.18 610.226 271.96 622.53 271.96V319.544L501.09 319.536V272.079H577.867L577.841 141.664L511.22 141.681C511.22 141.681 523.957 129.454 523.957 107.055C523.957 86.5486 515.831 68.5899 501.099 56.3033V4.6605H598.882V20.369C621.604 6.21437 644.505 0.0328574 671.574 0.0498396C697.744 0.0413485 719.124 7.87862 730.103 21.8974C751.841 7.88712 776.227 0.0413484 802.447 0.0583306C859.703 0.0583306 886.509 29.4969 886.509 68.4286L886.458 247.37C886.263 261.278 890.942 271.833 905.13 272.002L905.147 319.553ZM404.156 274.872V319.553H304.403V90.8026C304.403 73.5402 290.876 66.1954 274.14 66.1954C257.413 66.1954 243.921 73.1581 243.921 90.8026L243.946 249.161C243.946 263.189 250.314 271.985 262.626 271.985V319.553H163.349V90.8026C163.349 73.5827 149.822 66.1954 133.086 66.1954C115.765 66.1954 102.858 73.9308 102.858 90.8026V249.161C102.858 263.189 109.226 271.985 121.538 271.985V319.553H0.115913V271.985C14.6951 271.985 22.2352 263.197 22.2267 249.161L22.3711 77.5225C22.3711 65.0661 14.6951 55.8872 0.107422 55.8872V4.68597H97.8738V20.3945C120.621 6.22286 143.513 0.0583306 170.583 0.0583306C196.753 0.0583306 218.133 7.88711 229.112 21.9144C250.849 7.9041 275.227 0.0498396 301.456 0.0498396C352.921 0.0498396 379.77 23.8504 384.669 56.9401V56.9656C384.728 57.2968 385.059 60.8545 385.611 66.8323C376.042 79.017 370.896 94.4028 370.905 111.444C370.905 136.858 382.589 148.661 382.75 148.848C382.106 149.219 381.478 149.616 380.865 150.036C380.389 150.402 356.037 168.819 356.045 203.182C356.045 225.293 364.825 245.493 380.763 260.072C387.65 266.321 395.568 271.328 404.164 274.872H404.156ZM504.886 107.055C504.894 137.521 472.229 153.136 472.229 153.136L506.44 187.474C515.355 178.269 517.232 161.355 517.232 161.355L558.787 161.347V191.541H544.199C544.199 191.541 540.294 202.409 531.004 212.004C531.403 212.412 541.813 222.117 541.813 222.117H558.796V252.405L512.01 252.414L501.481 241.995C501.481 241.995 481.094 262.289 440.651 262.306C402.042 262.306 375.108 236.807 375.099 203.174C375.099 168.386 409.208 152.219 409.208 152.219C401.371 144.135 389.959 133.258 389.959 111.444C389.959 75.3318 419.024 58.6214 448.004 58.6129C480.015 58.6129 504.877 75.5951 504.886 107.055ZM417.614 201.102C417.614 215.707 430.113 227.339 447.622 227.339C465.139 227.339 475.727 217.634 475.727 217.634L432.627 175.501C432.627 175.501 417.606 183.653 417.614 201.102ZM467.882 106.324C467.873 93.5622 456.631 88.3062 448.505 88.3147C437.764 88.3147 429.723 94.3179 429.723 106.689C429.723 116.981 448.513 130.694 448.513 130.694C448.513 130.694 467.882 121.821 467.882 106.324ZM1024.11 166.263C1024.14 192.008 1004.68 213.864 969.713 213.915C955.126 213.94 942.788 208.965 933.338 202.876L933.329 210.501L909.868 210.544L909.826 159.224L931.877 159.19C934.535 175.297 949.343 184.425 967.124 184.867C979.707 185.181 986.169 175.442 986.161 169.549C986.144 162.085 981.813 157.169 975.165 154.503C966.81 151.157 954.455 148.601 943.425 144.279C921.934 135.873 911.184 124.13 911.15 102.588C911.116 76.4187 932.336 58.2223 961.222 58.3157C973.067 58.3582 985.125 61.6612 992.971 67.1634L992.928 59.929L1017.73 59.895L1017.8 103.921L994.465 103.964C991.162 93.2905 978.425 84.5022 963.583 84.5277C954.192 84.5447 949.25 89.7073 949.267 97.4596C949.284 108.192 960.11 111.275 986.908 118.942C1014.07 126.711 1024.07 146.725 1024.11 166.263Z" fill="#5A1F06"/>
</g>
<defs>
<clipPath id="clip0_2_14910">
<rect width="1024" height="319.503" fill="white" transform="translate(0.107422 0.0498047)"/>
</clipPath>
</defs>
</svg>
