<svg width="526" height="513" viewBox="0 0 526 513" fill="none" xmlns="http://www.w3.org/2000/svg">
<g clip-path="url(#clip0_820_415)">
<path d="M17.759 15.4883H510.195V496.513H17.759V15.4883Z" fill="#002616"/>
<path d="M24.6242 21.9311H501.616V487.939H24.6242V21.9311ZM0.512939 512.051H525.641V0.0507812H0.512939V512.051Z" fill="#CCFFEA"/>
<path d="M249.691 353.988V324.471C249.691 321.811 248.575 321.811 247.288 322.755C236.82 326.273 227.124 327.389 212.708 327.389C180.961 327.389 142.262 307.224 142.262 239.009C142.262 183.836 170.492 151.745 212.708 151.745C227.81 151.745 240.681 154.405 249.433 158.524C250.549 158.953 252.093 158.953 252.093 155.864V124.717C252.093 122.571 251.664 121.456 249.862 120.77C243.084 117.509 229.955 115.707 212.451 115.707C145.266 115.707 101.333 165.56 101.333 239.781C101.333 326.445 151.186 363.169 207.474 363.169C223.005 363.169 238.107 361.625 247.545 357.678C249.09 357.335 249.691 356.219 249.691 353.988ZM319.965 216.614C325.886 214.898 331.377 213.782 339.014 213.782C366.386 213.782 382.345 233.003 382.345 268.955C382.345 312.973 356.775 330.478 332.235 330.478C328.288 330.478 323.483 330.049 320.222 328.933L319.965 216.614ZM343.39 179.46C317.82 179.46 295.94 187.097 281.438 191.73C280.752 192.16 278.349 194.39 278.349 194.819C279.036 199.882 280.495 208.377 280.495 212.324V415.768C280.495 417.484 282.039 417.999 284.013 417.999L318.335 414.738C320.051 414.309 319.879 412.765 319.879 411.478V363.598C323.14 364.027 327.344 363.598 330.176 363.598C376.597 363.598 422.073 331.421 422.073 266.209C422.331 216.614 394.616 179.46 343.39 179.46Z" fill="#CCFFEA"/>
</g>
<defs>
<clipPath id="clip0_820_415">
<rect width="525.128" height="512" fill="white" transform="translate(0.512939 0.0507812)"/>
</clipPath>
</defs>
</svg>
