<svg width="432" height="513" viewBox="0 0 432 513" fill="none" xmlns="http://www.w3.org/2000/svg">
<g clip-path="url(#clip0_781_330)">
<path d="M64.9261 423.601C28.5638 393.83 9.35693 350.976 9.35693 299.794V56.4972C66.7776 26.0583 136.306 10.6313 216.022 10.6313C295.738 10.6313 365.275 26.0583 422.688 56.4972V299.794C422.688 350.976 403.481 393.8 367.119 423.601C333.852 450.867 228.153 497.248 216.015 502.526C203.891 497.248 98.1923 450.875 64.9261 423.601Z" fill="#330000"/>
<path d="M411.371 53.6393C384.804 51.1732 357.208 49.5444 329.097 49.5444C224.842 49.5444 113.074 71.9549 20.6734 156.703V301.561C20.6734 348.741 38.1209 388.138 71.2719 415.158C100.543 438.974 190.623 479.769 216.022 490.979C241.099 479.939 330.948 439.681 360.734 415.158C394.092 387.669 411.371 349.186 411.371 301.561V53.6393ZM39.7727 286.487V168.842H77.1799V288.147C77.1799 298.764 79.7459 314.483 96.9014 314.483C103.118 314.735 109.27 313.13 114.572 309.874V168.842H151.933V331.209C135.06 341.74 115.418 346.974 95.5416 346.236C58.5109 346.236 39.7343 326.138 39.7343 286.487M208.616 422.28H171.186V178.368C186.327 169.069 203.872 164.438 221.631 165.054C266.306 165.054 290.852 198.95 290.852 253.505C290.852 308.061 267.035 345.591 225.472 345.591C219.783 345.693 214.109 344.976 208.624 343.463L208.616 422.28ZM208.616 312.878C212.502 314.333 216.613 315.098 220.762 315.136C242.274 315.136 252.584 295.369 252.584 254.443C252.584 212.518 243.588 195.178 221.853 195.178C217.293 195.141 212.776 196.059 208.593 197.875L208.616 312.878ZM299.334 213.832C299.568 200.719 304.979 188.231 314.387 179.093C323.794 169.955 336.434 164.908 349.548 165.054C364.227 164.276 378.728 168.567 390.62 177.208V209.76C381.806 200.564 369.82 195.07 357.1 194.395C346.49 194.302 335.45 198.966 335.089 212.272C334.728 225.894 345.745 231.272 359.674 239.461C390.935 257.839 396.981 274.356 396.259 296.183C395.544 320.115 379.05 346.251 342.073 346.251C327.573 346.089 313.375 342.08 300.932 334.635V300.163C310.817 309.095 323.412 314.457 336.702 315.39C350.431 315.459 359.466 307.592 359.144 294.539C358.859 282.792 352.229 276.408 335.765 266.735C304.904 248.635 299.357 233.738 299.303 213.832M58.749 430.416C20.8809 399.4 0.905762 354.833 0.905762 301.561V48.3152C60.6697 16.6316 133.049 0.574707 216.022 0.574707C298.996 0.574707 371.375 16.6316 431.139 48.3152V301.561C431.139 354.833 411.163 399.4 373.295 430.423C338.677 458.803 228.653 507.074 216.022 512.567C203.392 507.074 93.3674 458.803 58.749 430.416ZM353.336 483.496V505.476H357.3V496.303H357.861C358.16 496.748 363.83 505.476 363.83 505.476H368.632C368.632 505.476 362.609 496.664 361.994 495.834C363.367 495.6 364.612 494.883 365.503 493.812C366.395 492.742 366.875 491.388 366.857 489.995C366.876 489.067 366.692 488.146 366.319 487.295C365.945 486.445 365.392 485.686 364.696 485.072C364 484.457 363.179 484.001 362.289 483.735C361.399 483.47 360.462 483.401 359.543 483.534L353.336 483.496ZM359.113 486.707C362.486 486.707 362.954 488.359 362.954 489.78C362.954 491.839 362.071 493.23 357.822 493.23H357.308V486.692L359.113 486.707ZM374.632 494.543C374.626 497.485 373.748 500.358 372.11 502.801C370.472 505.244 368.147 507.147 365.428 508.269C362.709 509.391 359.719 509.682 356.834 509.105C353.95 508.529 351.301 507.111 349.222 505.03C347.144 502.949 345.728 500.299 345.155 497.414C344.581 494.529 344.876 491.539 346.001 488.821C347.125 486.104 349.03 483.78 351.475 482.145C353.919 480.509 356.794 479.634 359.735 479.631C361.693 479.629 363.633 480.014 365.442 480.762C367.251 481.511 368.895 482.61 370.279 483.995C371.663 485.381 372.76 487.025 373.507 488.835C374.254 490.646 374.636 492.585 374.632 494.543ZM359.689 476.451C356.119 476.455 352.63 477.518 349.664 479.504C346.697 481.49 344.386 484.31 343.021 487.609C341.657 490.908 341.301 494.538 341.998 498.039C342.695 501.541 344.414 504.757 346.938 507.282C349.462 509.807 352.677 511.527 356.178 512.226C359.679 512.924 363.309 512.569 366.608 511.206C369.908 509.843 372.73 507.533 374.717 504.567C376.704 501.602 377.768 498.113 377.774 494.543C377.768 489.748 375.861 485.151 372.471 481.759C369.081 478.368 364.484 476.459 359.689 476.451Z" fill="#FFBE00"/>
</g>
<defs>
<clipPath id="clip0_781_330">
<rect width="430.233" height="512" fill="white" transform="translate(0.905762 0.574707)"/>
</clipPath>
</defs>
</svg>
