<svg width="502" height="512" viewBox="0 0 502 512" fill="none" xmlns="http://www.w3.org/2000/svg">
<g clip-path="url(#clip0_746_114)">
<path d="M501.95 261.76C501.95 241.92 499.902 222.848 496.446 204.8H256.19V307.2H393.534C387.774 339.584 369.726 367.104 342.334 385.408V450.048H425.534C473.918 405.504 501.95 339.712 501.95 261.76Z" fill="#4285F4"/>
<path d="M256.19 512C325.31 512 383.166 489.088 425.662 450.048L342.462 385.408C319.55 400.64 290.366 409.6 256.19 409.6C189.758 409.6 133.438 364.672 113.47 304.256H27.7104V370.816C69.6945 454.528 156.094 512 256.19 512Z" fill="#34A853"/>
<path d="M113.47 304.256C108.35 289.024 105.534 272.768 105.534 256C105.534 239.232 108.35 222.976 113.47 207.744V141.184H27.7104C10.1744 175.744 0.19043 214.656 0.19043 256C0.19043 297.344 10.1744 336.256 27.5824 370.816L113.47 304.256Z" fill="#FABB05"/>
<path d="M256.191 102.4C293.695 102.4 327.231 115.328 353.727 140.544L427.455 66.816C383.167 25.344 325.182 0 256.191 0C156.095 0 69.6945 57.472 27.5825 141.184L113.343 207.744C133.439 147.328 189.759 102.4 256.191 102.4Z" fill="#E94235"/>
</g>
<defs>
<clipPath id="clip0_746_114">
<rect width="501.76" height="512" fill="white" transform="translate(0.19043)"/>
</clipPath>
</defs>
</svg>
