<svg width="596" height="513" viewBox="0 0 596 513" fill="none" xmlns="http://www.w3.org/2000/svg">
<g clip-path="url(#clip0_795_4898)">
<path fill-rule="evenodd" clip-rule="evenodd" d="M66.3855 263.386L108.475 306.073V220.688H66.3855V263.386ZM487.275 306.073L529.364 263.386V220.688H487.275V306.073ZM185.729 291.55C185.729 277.736 188.181 264.494 192.664 252.256V220.699H150.575V348.77L192.664 391.457V330.858C188.181 318.619 185.729 305.364 185.729 291.55ZM234.741 434.144V385.235C247.198 393.821 261.46 399.928 276.83 402.873V476.83L234.741 434.144ZM318.919 402.862V476.842L361.008 434.155V385.155C348.553 393.764 334.289 399.905 318.919 402.862ZM403.098 252.598V220.688H445.187V348.77L403.098 391.457V330.503C407.491 318.358 409.896 305.239 409.896 291.552C409.896 277.863 407.491 264.746 403.098 252.598Z" fill="#008835"/>
<path fill-rule="evenodd" clip-rule="evenodd" d="M66.3852 263.386L24.3076 220.688H66.3852V263.386ZM150.562 348.759L108.474 306.073V220.688H150.562V348.759ZM445.186 348.759L487.275 306.073V220.688H445.186V348.759ZM529.364 263.386V220.688H571.452L529.364 263.386ZM192.653 391.457V330.858C200.795 353.108 215.656 372.072 234.741 385.235V434.144L192.653 391.457ZM297.812 404.86C290.641 404.86 283.628 404.175 276.83 402.873V476.83L297.869 498.179L318.908 476.83V402.839C312.075 404.152 305.028 404.86 297.812 404.86ZM385.264 220.688H403.096V252.598C398.872 240.942 392.808 230.187 385.264 220.688ZM361.007 385.144V434.144L403.096 391.457V330.505C395 352.858 380.137 371.923 361.007 385.144ZM192.651 252.244V220.688H210.348C202.883 230.096 196.864 240.724 192.651 252.244Z" fill="white"/>
<path d="M297.812 188.402C354.074 188.402 399.845 234.674 399.845 291.551C399.845 348.427 354.074 394.699 297.812 394.699C241.55 394.699 195.78 348.427 195.78 291.551C195.78 234.674 241.55 188.402 297.812 188.402Z" fill="white"/>
<path d="M376.152 210.527C379.392 213.724 382.43 217.115 385.264 220.688H571.452L297.88 498.179L24.3074 220.688H210.348C213.183 217.115 216.232 213.724 219.462 210.527H0.0839844L297.88 512.575L595.677 210.527H376.152Z" fill="#CF8A00"/>
<path d="M297.812 188.402C354.074 188.402 399.844 234.674 399.844 291.55C399.844 348.428 354.074 394.7 297.812 394.7C241.55 394.7 195.78 348.428 195.78 291.55C195.78 234.674 241.55 188.402 297.812 188.402ZM297.812 178.242C235.904 178.242 185.729 228.977 185.729 291.55C185.729 354.125 235.915 404.86 297.812 404.86C359.709 404.86 409.894 354.125 409.894 291.55C409.894 228.977 359.72 178.242 297.812 178.242Z" fill="#CF8A00"/>
<path d="M364.356 269.188H368.623V263.38H364.356V256.801C364.356 243.514 353.584 232.711 340.326 232.711H327.599V228.079C327.599 216.926 318.622 207.851 307.59 207.851H270.43V222.371H274.711V232.711H235.008V247.232H239.289V262.784H234.864V268.592H239.289V284.275H235.008V298.796H239.289V314.479H234.864V320.289H239.289V335.841H235.008V350.362H274.711V360.744H270.43V375.265H307.59C318.622 375.265 327.599 366.189 327.599 355.052V350.376H340.326C353.569 350.376 364.356 339.573 364.356 326.285V320.317H368.623V314.509H364.356V308.41C364.356 301.861 361.728 295.922 357.491 291.58C361.728 287.238 364.356 281.298 364.356 274.749V269.261V269.188ZM340.326 247.218C345.655 247.218 349.993 251.516 349.993 256.786V263.364H346.014V269.174H349.993V274.662C349.993 279.947 345.655 284.232 340.326 284.232H326.78C327.312 282.416 327.599 280.515 327.599 278.539V247.202H340.326V247.218ZM313.234 335.811H289.075V298.826H294.935V302.993H300.68V298.826H307.59C310.707 298.826 313.234 301.382 313.234 304.532V335.811ZM307.59 284.261H300.68V280.136H294.935V284.261H289.075V247.232H313.234V278.569C313.234 281.705 310.707 284.261 307.59 284.261ZM289.075 222.371H307.59C310.707 222.371 313.234 224.927 313.234 228.079V232.711H289.075V222.371ZM253.653 268.592H257.473V262.784H253.653V247.232H274.711V284.261H253.653V268.592ZM253.653 335.825V320.273H257.473V314.465H253.653V298.782H270.013V298.826H274.711V335.811L253.653 335.825ZM313.234 355.022C313.234 358.16 310.707 360.715 307.59 360.715H289.075V350.332H313.234V355.022ZM349.993 320.273V326.242C349.993 331.527 345.655 335.811 340.326 335.811H327.599V304.518C327.599 302.528 327.297 300.597 326.765 298.768H340.326C345.655 298.768 349.993 303.066 349.993 308.336V314.436H346.014V320.245H349.993V320.273Z" fill="#008835"/>
<path d="M305.055 108.558C308.647 110.94 311.03 115.035 311.03 119.696C311.03 121.235 310.773 122.731 310.284 124.096C308.876 128.205 305.529 131.385 301.349 132.547C301.622 141.1 311.074 147.968 322.724 147.968C331.27 147.968 338.61 144.266 342.043 138.907C338.207 136.584 335.636 132.358 335.636 127.508C335.636 126.114 335.852 124.764 336.239 123.5C337.906 118.084 342.905 114.149 348.809 114.149C350.862 114.149 352.787 114.642 354.51 115.485C355.473 114.599 356.364 113.699 357.211 112.769C357.369 112.595 357.527 112.421 357.685 112.246C358.101 111.782 358.49 111.317 358.878 110.852C359.293 110.344 359.696 109.821 360.084 109.299C360.185 109.153 360.299 109.008 360.4 108.863C360.889 108.195 361.348 107.513 361.779 106.816C364.537 102.445 366.174 97.7833 366.619 93.0058C349.167 83.0588 327.78 77.1922 305.055 76.1758V108.558Z" fill="#A32035"/>
<path d="M241.236 115.499C242.96 114.657 244.898 114.163 246.937 114.163C254.206 114.163 260.096 120.117 260.096 127.465C260.096 129.294 259.736 131.022 259.076 132.605C257.998 135.234 256.088 137.441 253.689 138.907C257.108 144.266 264.476 147.983 273.022 147.983C283.207 147.983 291.71 142.727 293.865 135.684C294.167 134.682 294.339 133.636 294.369 132.562C288.795 131.022 284.686 125.867 284.686 119.739C284.686 117.982 285.032 116.312 285.635 114.773C286.64 112.217 288.407 110.054 290.662 108.558V90.7115H290.677V76.1758C267.952 77.1922 246.565 83.0588 229.097 93.0349C229.859 101.138 234.054 108.848 241.236 115.499Z" fill="#A32035"/>
<path d="M194.695 140.505C196.534 139.517 198.632 138.951 200.872 138.951C208.141 138.951 214.03 144.905 214.03 152.252C214.03 153.718 213.8 155.114 213.355 156.421C212.938 157.698 212.335 158.904 211.574 159.978C216.932 164.944 226.857 165.206 235.662 160.08C241.206 156.842 245.143 152.137 246.909 147.301C247.699 145.108 248.044 142.887 247.886 140.781C247.571 140.81 247.254 140.824 246.924 140.824C239.899 140.824 234.169 135.248 233.795 128.234C229.945 124.953 226.685 121.38 223.94 117.619C223.898 117.547 223.841 117.489 223.797 117.416C223.295 116.719 222.763 116.022 222.304 115.296H222.332C219.532 110.983 217.478 106.438 216.185 101.748C203.387 111.941 194.912 124.183 191.421 137.441C192.441 138.501 193.532 139.517 194.695 140.505Z" fill="#A32035"/>
<path d="M379.561 101.762C377.967 107.556 375.18 113.118 371.301 118.273C371.072 118.578 370.842 118.883 370.613 119.173C370.052 119.899 369.464 120.611 368.845 121.322C368.357 121.889 367.854 122.455 367.337 123.007C366.892 123.486 366.447 123.965 365.986 124.43C365.47 124.953 364.924 125.475 364.378 125.998C364.119 126.245 363.847 126.492 363.574 126.739C363.028 127.247 362.496 127.755 361.922 128.249C361.85 129.556 361.592 130.819 361.161 132.01C359.35 137.165 354.496 140.853 348.779 140.853C348.463 140.853 348.147 140.824 347.83 140.81C347.342 147.606 352.01 155.404 360.068 160.108C368.859 165.234 378.756 164.988 384.128 160.036C382.592 157.857 381.686 155.215 381.686 152.34C381.686 151.41 381.787 150.51 381.974 149.638V149.581C382.075 149.16 382.175 148.753 382.305 148.361V148.332C382.42 147.968 382.548 147.62 382.692 147.286C382.778 147.082 382.879 146.88 382.965 146.661C383.023 146.56 383.066 146.444 383.123 146.343C385.277 141.986 389.73 138.995 394.887 138.995C397.114 138.995 399.225 139.561 401.064 140.548C402.227 139.561 403.32 138.545 404.339 137.484C400.849 124.227 392.374 111.985 379.576 101.791L379.561 101.762Z" fill="#A32035"/>
<path d="M428.406 115.147C428.406 88.3991 404.16 66.2687 371.51 62.6819C367.431 57.222 362.131 52.2122 355.667 47.8123C341.848 38.4171 324.095 32.7828 305.048 31.6501V23.9539H313.752V9.43265H305.048V0.574707H290.684V9.43265H281.978V23.9539H290.684V31.6501C271.638 32.7828 253.883 38.4171 240.064 47.8123C233.6 52.2122 228.301 57.222 224.221 62.6819C191.542 66.2687 167.339 88.3264 167.339 115.147C167.339 129.872 174.723 143.565 187.779 153.512C188.398 160.279 194.014 165.594 200.879 165.594C202.172 165.594 203.422 165.39 204.614 165.042L225.787 190.861C245.264 174.264 270.402 164.243 297.88 164.243C325.359 164.243 350.495 174.264 369.973 190.861L391.145 165.042C392.324 165.39 393.587 165.594 394.88 165.594C401.732 165.594 407.363 160.293 407.98 153.526C421.052 143.579 428.406 129.901 428.406 115.147ZM235.67 160.12C226.865 165.26 216.939 164.998 211.581 160.017C213.117 157.84 214.038 155.182 214.038 152.292C214.038 144.944 208.148 138.991 200.879 138.991C198.653 138.991 196.541 139.557 194.702 140.545C186.371 133.546 181.703 124.571 181.703 115.147C181.703 98.6945 196.082 84.2896 216.162 78.9312C215.143 82.6631 214.612 86.5112 214.612 90.4175C214.612 104.358 221.506 117.732 233.816 128.231C234.189 135.245 239.906 140.821 246.945 140.821C247.275 140.821 247.592 140.792 247.908 140.777C248.424 147.587 243.756 155.401 235.67 160.12ZM273.03 148.024C264.47 148.024 257.101 144.292 253.682 138.918C257.516 136.595 260.102 132.355 260.102 127.505C260.102 120.157 254.214 114.203 246.945 114.203C244.891 114.203 242.966 114.697 241.242 115.539C233.284 108.162 228.989 99.4787 228.989 90.4175C228.989 67.4594 256.08 48.5238 290.698 46.2003V108.598C287.107 110.98 284.722 115.074 284.722 119.736C284.722 125.864 288.831 131.019 294.404 132.558C294.16 141.126 284.694 148.024 273.03 148.024ZM322.715 148.024C311.052 148.024 301.585 141.126 301.342 132.558C306.914 131.019 311.023 125.864 311.023 119.736C311.023 115.074 308.638 110.965 305.048 108.598V46.2003C339.679 48.5238 366.756 67.4739 366.756 90.4175C366.756 99.4787 362.461 108.148 354.503 115.539C352.78 114.697 350.84 114.203 348.8 114.203C341.533 114.203 335.643 120.157 335.643 127.505C335.643 132.355 338.229 136.595 342.065 138.918C338.646 144.292 331.277 148.024 322.715 148.024ZM381.709 152.292C381.709 155.182 382.628 157.84 384.165 160.017C378.808 164.998 368.882 165.26 360.077 160.12C351.989 155.399 347.321 147.573 347.839 140.762C348.154 140.792 348.47 140.806 348.8 140.806C355.825 140.806 361.556 135.23 361.929 128.216C374.225 117.717 381.134 104.343 381.134 90.403C381.134 86.4967 380.602 82.6486 379.583 78.9167C399.649 84.2896 414.042 98.738 414.042 115.133C414.042 124.557 409.374 133.531 401.043 140.53C399.204 139.543 397.093 138.976 394.866 138.976C387.598 138.976 381.709 144.944 381.709 152.292Z" fill="#CF8A00"/>
</g>
<defs>
<clipPath id="clip0_795_4898">
<rect width="595.593" height="512" fill="white" transform="translate(0.0839844 0.574707)"/>
</clipPath>
</defs>
</svg>
