<svg width="513" height="513" viewBox="0 0 513 513" fill="none" xmlns="http://www.w3.org/2000/svg">
<g clip-path="url(#clip0_813_375)">
<path d="M512.375 256.051C512.375 114.667 397.758 0.0507812 256.375 0.0507812C114.991 0.0507812 0.374512 114.667 0.374512 256.051C0.374512 376.105 83.0318 476.846 194.535 504.514V334.284H141.748V256.051H194.535V222.341C194.535 135.209 233.969 94.822 319.514 94.822C335.735 94.822 363.72 98.0066 375.169 101.181V172.093C369.127 171.458 358.631 171.141 345.596 171.141C303.622 171.141 287.402 187.043 287.402 228.382V256.051H371.022L356.655 334.284H287.402V510.177C414.163 494.868 512.385 386.938 512.385 256.051H512.375Z" fill="#0866FF"/>
<path d="M356.645 334.285L371.011 256.051H287.392V228.383C287.392 187.044 303.612 171.141 345.585 171.141C358.621 171.141 369.117 171.458 375.159 172.093V101.181C363.71 97.9967 335.724 94.8223 319.504 94.8223C233.959 94.8223 194.525 135.209 194.525 222.341V256.051H141.738V334.285H194.525V504.514C214.329 509.43 235.045 512.051 256.364 512.051C266.86 512.051 277.213 511.406 287.381 510.177V334.285H356.634H356.645Z" fill="white"/>
</g>
<defs>
<clipPath id="clip0_813_375">
<rect width="512.01" height="512" fill="white" transform="translate(0.374512 0.0507812)"/>
</clipPath>
</defs>
</svg>
