<svg width="1024" height="232" viewBox="0 0 1024 232" fill="none" xmlns="http://www.w3.org/2000/svg">
<g clip-path="url(#clip0_757_344)">
<path d="M558.925 74.4138H581.725V137.837C581.725 170.03 563.983 188.495 533.074 188.495C502.487 188.495 484.905 170.351 484.905 138.72V74.4941H507.705V137.997C507.705 156.783 516.937 166.819 533.395 166.819C549.853 166.819 558.925 157.024 558.925 138.8V74.4138ZM430.473 119.693H378.932V74.4138H356.132V186.809H378.932V141.128H430.393V186.809H453.193V74.4138H430.393V119.693H430.473ZM1001.44 74.4138V186.648H1023.92V74.4138H1001.44ZM911.926 138.399H953.432V117.927H911.926V94.8857H972.138V74.4941H889.447V186.729H974.305V166.257H911.926V138.399ZM822.492 151.645L796.962 74.3335H778.336L752.807 151.645L727.999 74.4138H703.754L742.932 186.729H761.798L787.328 112.949L812.858 186.729H831.885L870.982 74.4138H847.299L822.492 151.645ZM663.212 75.056L712.264 186.729H688.34L678.224 163.367H626.763L626.041 164.972L616.568 186.729H593.286L642.82 74.4138H662.73L663.212 75.056ZM668.671 140.406L652.454 102.753L636.317 140.406L635.193 142.975H669.714L668.671 140.406Z" fill="#24272A"/>
<path d="M131.663 174.847C131.984 174.606 132.064 174.124 131.904 173.723C109.767 126.142 82.1498 81.3088 49.6144 40.1332C49.6144 40.1332 23.7636 64.6996 25.61 89.3462C26.0426 95.0285 27.5912 100.57 30.1672 105.653C32.7432 110.736 36.2962 115.262 40.6228 118.97C63.1821 140.968 117.774 168.745 130.459 175.088C130.86 175.248 131.342 175.168 131.663 174.847ZM123.233 193.633C123.073 193.151 122.591 192.83 122.029 192.83L31.1495 195.961C41.0242 213.543 57.6427 227.191 74.9033 223.016C86.8654 220.046 113.84 201.179 122.752 194.757C123.474 194.195 123.233 193.713 123.233 193.633ZM124.598 185.524C125.08 184.802 124.277 184.16 124.277 184.16C84.3766 157.185 6.98457 115.759 6.98457 115.759C4.41938 123.622 3.70178 131.97 4.88755 140.155C6.07332 148.34 9.13051 156.141 13.8215 162.952C18.5125 169.763 24.711 175.401 31.9352 179.427C39.1594 183.454 47.2147 185.76 55.475 186.167C56.8398 186.407 109.505 186.167 123.635 186.086C124.036 186.006 124.357 185.846 124.598 185.524ZM130.619 0.875204C126.685 1.19633 116.008 3.68508 116.008 3.68508C91.9232 9.86682 86.2231 31.7839 86.2231 31.7839C81.8076 45.5121 86.3034 60.6855 86.3034 60.6855C94.3316 96.3308 133.831 155.017 142.34 167.3C142.902 167.943 143.384 167.702 143.384 167.702C143.866 167.541 144.267 167.14 144.267 166.578C157.433 35.5571 130.619 0.875204 130.619 0.875204ZM160.725 167.541C161.207 167.702 161.769 167.541 162.01 167.059C170.76 154.455 210.018 96.09 218.047 60.6052C218.047 60.6052 222.382 43.4248 218.207 31.7036C218.207 31.7036 212.266 9.4654 188.182 3.6048C188.182 3.6048 181.277 1.83859 173.891 0.794922C173.891 0.794922 146.917 35.4768 160.083 166.497C160.003 166.979 160.324 167.381 160.725 167.541ZM182.241 192.91C182.027 192.954 181.824 193.04 181.644 193.164C181.465 193.288 181.313 193.448 181.197 193.633C181.117 194.115 181.197 194.516 181.518 194.837C190.189 201.099 216.602 219.564 229.286 223.096C229.286 223.096 252.809 231.125 273.2 196.041L182.241 192.91ZM297.446 115.599C297.446 115.599 220.214 157.104 180.234 184.079C179.832 184.4 179.591 184.882 179.752 185.364C179.752 185.364 180.153 186.086 180.715 186.086C195.006 186.086 249.116 186.167 250.561 185.926C255.94 185.524 261.238 184.32 266.216 182.313C266.216 182.313 285.484 176.212 295.439 154.295C295.439 154.295 304.35 136.472 297.446 115.599ZM172.928 174.847C173.249 175.088 173.731 175.168 174.132 174.927C187.138 168.424 241.328 140.887 263.727 118.97C263.727 118.97 277.937 107.57 278.66 89.1857C280.265 63.7362 254.655 40.1332 254.655 40.1332C254.655 40.1332 207.289 97.535 172.527 173.402C172.471 173.657 172.478 173.922 172.548 174.174C172.618 174.426 172.748 174.657 172.928 174.847Z" fill="#CE0E2D"/>
</g>
<defs>
<clipPath id="clip0_757_344">
<rect width="1024" height="230.41" fill="white" transform="translate(0 0.794922)"/>
</clipPath>
</defs>
</svg>
