<svg width="1025" height="303" viewBox="0 0 1025 303" fill="none" xmlns="http://www.w3.org/2000/svg">
<g clip-path="url(#clip0_813_357)">
<path d="M0.374023 0.700918H263.403V60.7074H258.624L259.18 22.2588H155.28V292.955H185.283V301.845H82.6052V292.955H110.386V22.2588H5.37457V60.7074H0.374023V0.700918ZM275.959 0.700918H379.304V9.03516H349.856V293.066H379.193V301.956H275.848V293.066H305.852V8.92403H275.848V0.700918H275.959ZM470.425 0.0341797H490.205L586.882 232.282L682.893 0.0341797H702.117L756.012 292.955H783.126V301.845H676.447V292.955H703.895L670.558 105.712L585.215 302.067H565.213L480.759 105.823L445.2 293.177H471.092L470.536 302.067H391.972L392.528 293.177H416.53L470.425 0.0341797ZM792.127 0.700918H1019.6L1020.15 60.1518H1016.04L1014.15 23.4812L865.246 21.8143V140.716H991.926L994.926 112.935H1000.48C999.149 138.271 999.149 162.941 1000.48 188.055H994.926L991.926 159.385H865.246V282.287H1019.71L1020.15 241.394H1024.37V301.956H792.127V293.51L822.13 293.066V9.59077L792.127 9.03516V0.812041V0.700918Z" fill="#E90606"/>
</g>
<defs>
<clipPath id="clip0_813_357">
<rect width="1024" height="302.033" fill="white" transform="translate(0.374023 0.0341797)"/>
</clipPath>
</defs>
</svg>
