<svg width="1025" height="258" viewBox="0 0 1025 258" fill="none" xmlns="http://www.w3.org/2000/svg">
<g clip-path="url(#clip0_746_91)">
<path d="M580.681 84.2871C580.681 54.3063 581.198 26.3931 582.749 0.547607L503.661 15.538V22.7748L511.415 23.8086C517.101 24.3255 520.719 26.3931 522.787 29.4946C524.855 33.113 526.405 38.2821 527.439 46.0357C528.473 61.0262 529.507 95.1423 528.99 148.901C528.99 202.143 528.473 235.742 527.439 248.665C555.869 254.868 578.097 257.452 594.638 257.452C625.652 257.452 649.947 248.665 667.522 230.573C685.097 212.998 694.401 188.186 694.401 157.688C694.401 133.394 687.682 113.234 674.242 97.2099C660.802 81.1857 643.744 73.432 623.585 73.432C610.145 73.432 596.188 77.0504 580.681 84.2871ZM582.232 243.496C581.198 226.954 580.164 177.331 580.164 96.1761C584.816 94.6253 591.019 93.5915 598.773 93.5915C611.179 93.5915 621 99.7945 628.237 112.717C635.474 125.64 639.092 141.147 639.092 160.79C639.092 185.085 634.957 204.727 626.686 221.268C618.416 237.293 608.077 245.563 595.155 245.563C591.019 244.529 586.884 244.013 582.232 243.496ZM206.955 5.71671H0.19043V16.0549L11.0456 17.0887C19.3161 18.6395 25.0021 21.7409 28.6205 26.3931C32.2389 31.5622 34.3065 39.8328 34.8234 51.2049C38.9587 107.031 38.9587 159.239 34.8234 207.312C33.7896 218.684 31.722 226.954 28.6205 232.124C25.0021 237.293 19.3161 240.394 11.0456 241.428L0.19043 242.979V253.317H133.553V242.979L119.597 241.945C111.326 240.911 105.64 237.293 102.022 232.641C98.4035 227.471 96.3358 219.201 95.8189 207.829C94.2682 187.152 93.2343 163.374 93.2343 137.012L121.148 137.529C136.138 138.046 146.476 149.418 151.645 172.162H161.983V87.9055H151.645C146.476 110.133 136.655 121.505 121.148 122.022L93.2343 122.539C93.2343 76.0166 94.2682 42.9343 95.8189 22.7748H136.655C165.602 22.7748 185.244 41.3836 196.616 78.6011L209.022 74.9827L206.955 5.71671ZM182.66 164.925C182.66 191.805 190.414 214.032 205.404 231.607C220.394 249.182 242.622 257.452 270.535 257.452C298.448 257.452 321.192 248.665 337.733 230.573C354.274 212.998 362.028 190.771 362.028 163.891C362.028 137.012 354.274 114.785 339.284 97.2099C324.293 79.6349 302.066 71.3644 274.153 71.3644C246.24 71.3644 223.496 80.1518 206.955 98.2437C190.414 115.819 182.66 138.046 182.66 164.925ZM297.931 105.997C304.134 120.988 306.718 140.63 306.718 164.408C306.718 219.201 295.346 246.08 273.119 246.08C261.747 246.08 252.96 238.327 246.757 222.819C240.554 207.312 237.969 187.669 237.969 164.408C237.969 110.133 249.341 83.2533 271.569 83.2533C282.941 82.7364 291.728 90.4901 297.931 105.997ZM734.721 231.607C751.779 248.665 773.489 257.452 799.334 257.452C815.359 257.452 829.315 254.351 841.721 247.631C854.127 241.428 863.948 233.674 870.668 224.37L865.499 218.167C854.127 226.954 841.204 231.09 826.214 231.09C805.537 231.09 789.513 224.37 778.658 210.413C767.286 196.457 762.117 178.882 763.151 156.138H873.769C873.769 131.326 867.567 111.166 854.644 95.1423C841.721 79.6349 823.629 71.8813 800.368 71.8813C771.421 71.8813 749.194 81.1857 733.17 99.2775C717.146 117.369 709.392 139.597 709.392 165.959C709.392 192.838 717.662 214.549 734.721 231.607ZM772.972 101.862C778.658 89.4562 785.895 83.2533 795.716 83.2533C811.223 83.2533 818.977 102.896 818.977 142.698L764.184 143.732C764.701 128.225 767.286 114.268 772.972 101.862ZM1012.82 81.1857C998.862 74.9827 981.287 71.3644 960.094 71.3644C938.383 71.3644 921.325 77.0504 908.402 87.9055C895.48 98.7606 888.76 112.2 888.76 128.225C888.76 142.181 892.895 153.036 900.649 160.79C908.402 168.544 920.808 175.263 936.833 180.949C951.306 186.119 961.644 191.288 966.813 195.94C971.982 201.109 975.084 206.795 975.084 214.549C975.084 221.785 972.499 228.505 966.813 233.674C961.644 239.36 954.408 241.945 945.103 241.945C922.359 241.945 905.301 225.404 893.412 192.321L884.625 194.906L886.692 246.597C905.301 253.834 925.977 257.452 948.721 257.452C972.499 257.452 990.591 252.283 1004.03 241.428C1017.47 231.09 1024.19 216.099 1024.19 197.491C1024.19 185.085 1021.09 174.747 1014.37 166.993C1007.65 159.239 996.794 152.519 981.287 146.316C964.229 140.113 952.34 134.427 946.137 129.258C939.934 124.089 936.833 117.886 936.833 110.133C936.833 102.379 938.9 96.1761 943.552 91.007C948.205 85.8379 953.891 83.7702 961.127 83.7702C981.804 83.7702 996.794 98.7606 1006.1 128.225L1014.89 125.64L1012.82 81.1857ZM515.55 76.5335C508.314 72.9151 500.56 71.3644 491.772 71.3644C482.985 71.3644 474.198 74.9827 464.376 82.2195C454.555 89.4562 447.318 99.2775 441.632 112.717L442.149 71.3644L363.579 86.8717V94.1084L371.332 94.6254C381.154 95.6592 386.84 103.413 387.873 117.369C390.975 149.418 390.975 183.534 387.873 219.718C386.84 233.674 381.154 240.911 371.332 242.462L363.579 243.496V253.317H473.164V243.496L459.207 242.462C449.386 241.428 443.7 233.674 442.666 219.718C439.564 189.737 439.048 157.688 441.632 124.606C444.734 119.437 451.453 116.336 461.792 115.302C472.13 114.268 484.019 117.369 496.425 124.606L515.55 76.5335Z" fill="#171717"/>
</g>
<defs>
<clipPath id="clip0_746_91">
<rect width="1024" height="256.905" fill="white" transform="translate(0.19043 0.547607)"/>
</clipPath>
</defs>
</svg>
