<svg width="1024" height="209" viewBox="0 0 1024 209" fill="none" xmlns="http://www.w3.org/2000/svg">
<g clip-path="url(#clip0_769_1087)">
<path d="M283.553 101.113L252.332 24.5087H267.004L284.918 70.2322L304.538 22.4614L323.988 70.2322L341.731 24.5087H355.892L324.67 101.113L304.027 51.8063L283.553 101.113Z" fill="#0022AF"/>
<path d="M423.112 98.2122H408.781L401.274 82.3455H369.882L362.375 98.2122H348.044L385.578 21.6084L423.112 98.2122ZM375 71.7677H396.497L385.578 49.0766L375 71.7677Z" fill="#0022AF"/>
<path d="M446.315 98.2122H432.666V24.5088H453.481C469.689 24.5088 481.29 32.8687 481.29 47.3705C481.29 57.4365 475.66 64.2609 466.788 67.5025L489.65 98.2122H473.783L452.628 69.7204H446.144V98.2122H446.315ZM446.315 58.8014H453.481C461.841 58.8014 467.471 54.7067 467.471 47.3705C467.471 39.8637 461.841 35.769 453.481 35.769H446.315V58.8014Z" fill="#0022AF"/>
<path d="M659.407 98.2122H645.758V24.5088H666.572C682.78 24.5088 694.382 32.8687 694.382 47.3705C694.382 57.4365 688.752 64.2609 679.88 67.5025L702.742 98.2122H686.875L665.719 69.7204H659.236V98.2122H659.407ZM659.407 58.8014H666.572C674.932 58.8014 680.562 54.7067 680.562 47.3705C680.562 39.8637 674.932 35.769 666.572 35.769H659.407V58.8014Z" fill="#0022AF"/>
<path d="M553.287 24.5088H566.595V100.942L514.73 50.9533V98.0416H501.422V21.6084L553.287 71.5971V24.5088Z" fill="#0022AF"/>
<path d="M584.338 24.5088H629.721V35.769H597.646V54.8773H627.161V66.3082H597.646V86.952H629.891V98.2122H584.338V24.5088Z" fill="#0022AF"/>
<path d="M738.911 24.5088H760.066C776.445 24.5088 785.146 32.1862 785.146 43.9583C785.146 51.4651 780.54 56.9246 774.91 59.3132C783.269 61.5311 789.753 67.8437 789.753 77.2272C789.753 90.1936 779.687 98.2122 763.649 98.2122H738.911V24.5088ZM759.213 55.7304C766.891 55.7304 771.668 52.3182 771.668 45.835C771.668 39.3518 766.891 35.769 759.213 35.769H752.218V55.5598H759.213V55.7304ZM762.796 86.7814C770.644 86.7814 775.763 82.6867 775.763 76.2036C775.763 69.7204 770.474 65.7964 762.796 65.7964H752.218V86.952H762.796V86.7814Z" fill="#0022AF"/>
<path d="M817.562 98.2122H803.913V24.5088H824.728C840.936 24.5088 852.537 32.8687 852.537 47.3705C852.537 57.4365 846.907 64.2609 838.035 67.5025L860.897 98.2122H845.03L824.045 69.7204H817.562V98.2122ZM817.562 58.8014H824.728C833.088 58.8014 838.718 54.7067 838.718 47.3705C838.718 39.8637 833.088 35.769 824.728 35.769H817.562V58.8014Z" fill="#0022AF"/>
<path d="M940.572 61.3604C940.572 82.3454 923.852 99.4064 902.867 99.4064C882.052 99.4064 865.162 82.3454 865.162 61.3604C865.162 40.3754 881.882 23.3145 902.867 23.3145C923.852 23.3145 940.572 40.3754 940.572 61.3604ZM878.982 61.3604C878.982 75.8623 889.73 86.7813 903.037 86.7813C916.345 86.7813 927.093 75.8623 927.093 61.3604C927.093 46.8586 916.345 35.9396 903.037 35.9396C889.559 35.9396 878.982 46.8586 878.982 61.3604Z" fill="#0022AF"/>
<path d="M972.476 87.805C979.983 87.805 985.271 84.3928 985.271 78.4214C985.271 73.6443 982.201 71.597 977.423 69.2085L965.14 63.4078C957.121 59.6543 950.467 54.8773 950.467 44.4701C950.467 31.6743 960.874 23.3145 974.694 23.3145C983.054 23.3145 990.56 26.8973 994.484 30.6507V44.8113C988.854 39.1812 981.518 35.0865 974.182 35.0865C968.04 35.0865 963.433 38.1575 963.433 43.617C963.433 47.7117 966.334 49.759 970.428 51.8063L981.859 57.0952C992.608 62.0429 998.238 67.1612 998.238 77.3978C998.238 91.0465 986.807 99.577 972.305 99.577C962.922 99.577 954.732 95.9942 949.785 92.2408V78.2508C956.268 83.3691 964.116 87.805 972.476 87.805Z" fill="#0022AF"/>
<path d="M1024 90.1936C1024 94.9706 1020.25 98.7241 1015.47 98.7241H1015.3C1010.52 98.7241 1006.77 94.9706 1006.77 90.1936C1006.77 85.4165 1010.52 81.6631 1015.3 81.6631H1015.47C1020.25 81.8337 1024 85.5871 1024 90.1936Z" fill="#0022AF"/>
<path d="M726.115 196.654H712.466V123.121H733.281C749.489 123.121 761.09 131.481 761.09 145.983C761.09 156.049 755.46 162.873 746.588 166.115L769.45 196.825H753.583L732.428 168.333H725.944V196.654H726.115ZM726.115 157.414H733.281C741.641 157.414 747.271 153.319 747.271 145.983C747.271 138.476 741.641 134.381 733.281 134.381H726.115V157.414Z" fill="#0022AF"/>
<path d="M650.365 123.121H695.747V134.381H663.672V153.49H693.188V164.92H663.672V185.564H696.088V196.825H650.535V123.121H650.365Z" fill="#0022AF"/>
<path d="M564.889 159.802C564.889 180.787 548.169 197.848 527.184 197.848C506.37 197.848 489.479 180.787 489.479 159.802C489.479 138.817 506.199 121.756 527.184 121.756C548.169 121.927 564.889 138.817 564.889 159.802ZM503.128 159.802C503.128 174.304 513.876 185.223 527.184 185.223C540.492 185.223 551.24 174.304 551.24 159.802C551.24 145.301 540.492 134.381 527.184 134.381C513.876 134.381 503.128 145.301 503.128 159.802Z" fill="#0022AF"/>
<path d="M284.236 123.121C305.221 123.121 322.111 138.988 322.111 159.973C322.111 180.958 305.221 196.825 284.236 196.825H261.545V123.121H284.236ZM275.193 134.381V185.394H283.383C298.226 185.394 308.462 173.963 308.462 159.802C308.462 145.642 298.226 134.211 283.383 134.211H275.193V134.381Z" fill="#0022AF"/>
<path d="M349.75 123.121V196.654H336.101V123.121H349.75Z" fill="#0022AF"/>
<path d="M386.26 186.247C393.767 186.247 399.056 182.835 399.056 176.863C399.056 172.086 395.985 170.039 391.208 167.65L378.924 161.85C370.906 158.096 364.252 153.319 364.252 142.912C364.252 130.116 374.83 121.756 388.478 121.756C396.838 121.756 404.345 125.339 408.269 129.093V143.253C402.639 137.623 395.303 133.528 387.967 133.528C381.825 133.528 377.218 136.599 377.218 142.059C377.218 146.154 380.118 148.201 384.213 150.248L395.644 155.537C406.392 160.485 412.023 165.603 412.023 175.84C412.023 189.488 400.592 198.019 386.09 198.019C376.706 198.019 368.517 194.436 363.569 190.683V176.693C370.053 181.811 377.901 186.247 386.26 186.247Z" fill="#0022AF"/>
<path d="M478.902 177.034V192.73C473.442 196.142 466.959 197.848 459.793 197.848C438.808 197.848 421.918 180.787 421.918 159.802C421.918 138.817 438.808 121.756 459.793 121.756C466.788 121.756 473.442 123.633 478.902 126.875V142.571C474.636 137.794 467.983 134.723 460.135 134.723C446.145 134.723 435.567 145.642 435.567 159.802C435.567 173.963 446.315 184.882 460.135 184.882C467.983 184.882 474.636 181.811 478.902 177.034Z" fill="#0022AF"/>
<path d="M566.083 123.121H581.097L603.958 172.427L626.649 123.121H641.151L603.617 199.725L566.083 123.121Z" fill="#0022AF"/>
<path d="M794.53 196.654V163.556L767.062 122.951H782.416L801.354 150.931L820.462 122.951H835.817L808.349 163.556V196.654H794.53Z" fill="#0022AF"/>
<path d="M202.002 68.3552C200.637 78.08 196.031 110.155 172.486 141.547C148.601 173.963 117.379 189.659 107.825 194.436C98.4418 189.659 67.0496 173.963 43.1642 141.547C19.7907 110.325 15.1842 78.2506 13.8193 68.3552L27.9799 60.6778V50.1L42.1406 42.4225V31.8447C61.5901 22.4612 83.0869 16.4898 107.825 13.0776C132.564 16.3192 154.061 22.4612 173.51 31.8447V42.4225L187.671 50.1V60.6778L202.002 68.3552Z" fill="url(#paint0_linear_769_1087)"/>
<path d="M200.467 53.1711V42.5933L186.306 34.9158V23.8262L179.14 20.414C158.497 10.6892 135.805 4.20605 109.531 0.623247L107.825 0.452637L106.119 0.623247C80.016 4.20605 57.1543 10.6892 36.6811 20.5846L29.5155 23.9968V35.0864L15.3549 42.5933V53.1711L0 61.3603L1.19427 70.0614C5.2889 99.4063 16.0373 126.021 33.0983 149.054C50.3299 172.427 73.5328 191.536 102.195 205.867L107.825 208.767L113.456 205.867C142.118 191.536 165.321 172.427 182.552 149.054C199.613 126.021 210.362 99.4063 214.457 70.0614L215.651 61.3603L200.467 53.1711ZM202.002 68.3553C200.637 78.0801 196.031 110.155 172.486 141.547C148.601 173.963 117.38 189.659 107.825 194.436C98.4419 189.659 67.0497 173.963 43.1643 141.547C19.7907 110.325 15.1843 78.2507 13.8194 68.3553L27.98 60.6779V50.1001L42.1406 42.4226V31.8448C61.5901 22.4613 83.087 16.49 107.825 13.0778C132.564 16.3193 154.061 22.4613 173.51 31.8448V42.4226L187.671 50.1001V60.6779L202.002 68.3553Z" fill="#FFC200"/>
<path d="M86.8404 38.669L87.5228 124.827L86.8404 125.168C77.7981 102.136 72.3386 73.4734 70.6325 44.6404C66.1966 46.6877 61.4195 49.0762 56.4719 52.1472C58.5192 78.2505 62.955 101.112 70.9737 122.95L66.3672 125.509C54.2539 108.619 46.4059 88.1459 41.117 63.7486C37.3636 67.1608 33.7808 70.9143 30.0273 75.0089C37.0223 104.183 48.2826 126.362 64.4905 144.276L76.945 136.77C83.087 149.565 91.6175 162.19 101.172 172.256V36.1099C96.3945 36.6217 91.6175 37.4747 86.8404 38.669Z" fill="#FFC200"/>
<path d="M167.368 83.1985C172.487 77.5683 173.51 73.4737 173.51 68.526C173.51 61.531 167.709 55.2184 159.179 49.7589C154.061 46.5173 146.213 42.5933 134.782 39.3517C128.299 37.6456 121.304 36.4514 114.309 36.2808V172.598C142.971 157.926 176.922 117.491 177.093 96.8472C177.434 90.5347 174.193 86.44 167.368 83.1985ZM128.64 52.4887C135.635 52.4887 158.497 59.6543 158.497 68.8672C158.497 72.1088 155.596 76.8859 146.554 81.663L128.64 91.2171V52.4887ZM146.383 128.069C142.289 132.675 135.805 139.841 128.64 145.3V106.231C128.64 106.231 154.572 91.7289 155.426 91.0465C163.103 93.0938 162.762 98.7239 162.762 99.2358C162.762 106.401 155.426 117.491 146.383 128.069Z" fill="#FFC200"/>
</g>
<defs>
<linearGradient id="paint0_linear_769_1087" x1="13.798" y1="103.93" x2="201.935" y2="103.93" gradientUnits="userSpaceOnUse">
<stop stop-color="#4047FF"/>
<stop offset="1" stop-color="#04006C"/>
</linearGradient>
<clipPath id="clip0_769_1087">
<rect width="1024" height="208.315" fill="white" transform="translate(0 0.452637)"/>
</clipPath>
</defs>
</svg>
