<svg width="1025" height="292" viewBox="0 0 1025 292" fill="none" xmlns="http://www.w3.org/2000/svg">
<g clip-path="url(#clip0_765_776)">
<path d="M220.151 54.8699C219.946 53.4363 218.717 52.6171 217.693 52.6171C216.669 52.6171 196.394 52.2075 196.394 52.2075C196.394 52.2075 179.395 35.8235 177.757 33.9803C176.119 32.3419 172.842 32.7515 171.613 33.1611C171.613 33.1611 168.336 34.1851 163.011 35.8235C162.192 32.9563 160.759 29.4747 158.915 25.7883C152.976 14.3195 143.965 8.17554 133.315 8.17554C132.496 8.17554 131.882 8.17554 131.063 8.38034C130.653 7.97074 130.448 7.56114 130.039 7.35634C125.328 2.44114 119.389 -0.0164593 112.221 0.188341C98.4993 0.597941 84.7777 10.6331 73.5137 28.2459C65.7313 40.7387 59.7921 56.3035 57.9489 68.3867C42.1793 73.3019 31.1201 76.7835 30.7105 76.7835C22.7233 79.2411 22.5185 79.4459 21.4945 87.0235C21.0849 92.7579 0.195312 254.345 0.195312 254.345L175.504 284.656L251.485 265.814C251.28 265.814 220.355 56.3035 220.151 54.8699ZM154.205 38.6907C150.109 39.9195 145.603 41.3531 140.688 42.9915C140.688 36.0283 139.664 26.1979 136.592 18.0059C147.037 19.6443 152.157 31.5227 154.205 38.6907ZM131.472 45.6539C122.256 48.5211 112.221 51.5931 102.186 54.6651C105.053 43.8107 110.378 33.1611 116.931 25.9931C119.389 23.3307 122.871 20.4635 126.762 18.8251C130.858 26.8123 131.677 38.0763 131.472 45.6539ZM112.631 9.40434C115.907 9.40434 118.57 10.0187 120.823 11.6571C117.136 13.5003 113.45 16.3675 110.173 20.0539C101.367 29.4747 94.6081 44.0155 91.9457 58.1467C83.5489 60.8091 75.3569 63.2667 67.9841 65.5195C72.8993 43.1963 91.5361 10.0187 112.631 9.40434Z" fill="#95BF47"/>
<path d="M217.693 52.6171C216.669 52.6171 196.394 52.2075 196.394 52.2075C196.394 52.2075 179.395 35.8235 177.757 33.9803C177.142 33.3659 176.323 32.9563 175.504 32.9563V284.656L251.485 265.814C251.485 265.814 220.56 56.3035 220.355 54.8699C219.946 53.4363 218.717 52.6171 217.693 52.6171Z" fill="#5E8E3E"/>
<path d="M133.315 91.7339L124.509 124.707C124.509 124.707 114.678 120.201 103.005 121.02C85.8017 122.044 85.8017 132.899 85.8017 135.561C86.8256 150.307 125.533 153.584 127.786 188.195C129.424 215.433 113.45 234.07 90.1025 235.504C62.2497 236.937 46.8896 220.553 46.8896 220.553L52.8289 195.363C52.8289 195.363 68.3937 207.036 80.6816 206.217C88.6688 205.808 91.7409 199.049 91.3313 194.544C90.1025 175.292 58.5633 176.521 56.5153 144.777C54.8769 118.153 72.2849 91.3244 110.787 88.8668C125.738 87.8428 133.315 91.7339 133.315 91.7339Z" fill="white"/>
<path d="M354.294 161.98C345.488 157.27 340.982 153.174 340.982 147.644C340.982 140.681 347.331 136.175 357.162 136.175C368.631 136.175 378.87 140.886 378.87 140.886L386.858 116.31C386.858 116.31 379.485 110.575 357.776 110.575C327.466 110.575 306.371 127.983 306.371 152.355C306.371 166.281 316.202 176.726 329.309 184.303C339.958 190.243 343.645 194.543 343.645 200.892C343.645 207.446 338.32 212.771 328.49 212.771C313.949 212.771 300.022 205.193 300.022 205.193L291.421 229.769C291.421 229.769 304.118 238.371 325.622 238.371C356.752 238.371 379.28 223.011 379.28 195.363C379.075 180.412 367.811 169.763 354.294 161.98Z" fill="black"/>
<path d="M478.403 110.166C463.043 110.166 450.96 117.539 441.744 128.598L441.334 128.393L454.646 58.761H420.035L386.243 236.118H420.854L432.323 175.497C436.829 152.559 448.707 138.428 459.766 138.428C467.549 138.428 470.621 143.753 470.621 151.331C470.621 156.041 470.211 161.98 469.187 166.691L456.08 236.118H490.691L504.208 164.438C505.642 156.86 506.666 147.849 506.666 141.705C506.87 122.044 496.63 110.166 478.403 110.166Z" fill="black"/>
<path d="M585.309 110.166C543.53 110.166 515.882 147.849 515.882 189.833C515.882 216.662 532.471 238.371 563.6 238.371C604.56 238.371 632.208 201.711 632.208 158.703C632.413 133.923 617.872 110.166 585.309 110.166ZM568.311 211.951C556.432 211.951 551.517 201.916 551.517 189.219C551.517 169.353 561.757 136.995 580.599 136.995C592.887 136.995 596.983 147.644 596.983 157.884C596.983 179.183 586.538 211.951 568.311 211.951Z" fill="black"/>
<path d="M721.091 110.166C697.744 110.166 684.432 130.851 684.432 130.851H684.022L686.07 112.214H655.35C653.917 124.707 651.049 143.958 648.387 158.294L624.221 285.27H658.832L668.457 233.865H669.277C669.277 233.865 676.445 238.371 689.552 238.371C730.307 238.371 756.931 196.591 756.931 154.403C756.931 131.055 746.486 110.166 721.091 110.166ZM687.913 212.361C678.902 212.361 673.577 207.241 673.577 207.241L679.312 174.883C683.408 153.174 694.672 138.838 706.755 138.838C717.405 138.838 720.681 148.668 720.681 157.884C720.681 180.412 707.369 212.361 687.913 212.361Z" fill="black"/>
<path d="M806.493 60.3994C795.434 60.3994 786.627 69.2058 786.627 80.4698C786.627 90.7098 793.181 97.8778 803.011 97.8778H803.421C814.275 97.8778 823.491 90.505 823.696 77.8074C823.696 67.7722 816.938 60.3994 806.493 60.3994Z" fill="black"/>
<path d="M757.955 235.913H792.566L816.118 113.033H781.302L757.955 235.913Z" fill="black"/>
<path d="M904.387 112.828H880.221L881.45 107.094C883.498 95.2155 890.461 84.7707 902.134 84.7707C908.278 84.7707 913.194 86.6139 913.194 86.6139L919.952 59.3755C919.952 59.3755 914.013 56.3035 901.11 56.3035C888.822 56.3035 876.534 59.7851 867.114 67.7723C855.235 77.8075 849.706 92.3483 847.043 107.094L846.019 112.828H829.84L824.72 139.043H840.899L822.467 236.118H857.078L875.51 139.043H899.472L904.387 112.828Z" fill="black"/>
<path d="M987.946 113.033C987.946 113.033 966.237 167.715 956.611 197.615H956.202C955.587 187.99 947.6 113.033 947.6 113.033H911.146L932.035 225.878C932.445 228.335 932.24 229.974 931.216 231.612C927.12 239.395 920.362 246.972 912.375 252.502C905.821 257.212 898.448 260.284 892.714 262.332L902.339 291.823C909.303 290.39 924.048 284.451 936.336 272.982C952.106 258.236 966.851 235.299 981.802 204.169L1024.2 113.033H987.946Z" fill="black"/>
</g>
<defs>
<clipPath id="clip0_765_776">
<rect width="1024" height="291.647" fill="white" transform="translate(0.195312 0.176514)"/>
</clipPath>
</defs>
</svg>
