<svg width="373" height="513" viewBox="0 0 373 513" fill="none" xmlns="http://www.w3.org/2000/svg">
<g clip-path="url(#clip0_795_4010)">
<path d="M360.049 58.7195C343.98 70.1895 313.432 85.9608 273.975 76.2434C205.719 59.3575 186.15 0.574707 186.15 0.574707C186.15 0.574707 166.581 59.5167 98.3254 76.2434C58.8683 85.9608 28.3206 70.3487 12.2511 58.7195H0V376.211C0 384.176 1.9097 400.107 14.9559 415.878C31.0254 435.472 58.2324 448.057 95.9391 453.473C126.009 457.775 148.125 467.333 163.717 482.307C175.172 493.458 186.15 512.575 186.15 512.575C186.15 512.575 197.447 492.981 208.583 482.307C224.175 467.174 246.45 457.774 276.361 453.473C314.069 448.057 341.275 435.313 357.344 415.878C370.391 400.107 372.3 384.176 372.3 376.211V58.7195H360.049Z" fill="white"/>
<path d="M361.163 71.1447C361.163 71.1447 323.773 100.298 271.269 87.0752C210.014 71.7816 186.149 25.7437 186.149 25.7437C186.149 25.7437 162.284 71.7827 101.029 87.0752C48.5247 100.298 11.1354 71.1447 11.1354 71.1447V376.211C11.1354 386.565 15.4315 430.533 97.5282 442.481C129.986 447.101 154.169 457.614 171.511 474.342C177.715 480.396 182.489 486.449 186.148 492.025C189.807 486.45 194.581 480.237 200.785 474.342C218.128 457.615 242.312 447.101 274.768 442.481C356.865 430.533 361.161 386.565 361.161 376.211V71.1447H361.163Z" fill="#013369"/>
<path d="M186.149 461.121C186.149 461.121 210.014 431.808 271.747 422.25C342.548 411.258 340.479 377.964 340.479 376.37V216.429H31.6602V376.211C31.6602 377.964 29.5923 411.258 100.392 422.091C162.284 431.649 186.149 461.121 186.149 461.121Z" fill="white"/>
<path d="M114.235 333.2V257.212L104.688 251.796V232.042H147.965V251.796L138.896 257.212V412.213L115.667 405.204L82.0957 306.118V371.432L92.7555 379.556V399.629L46.2976 387.841V370.636L56.9575 366.494V257.052L46.1384 251.796V232.042H81.3006L114.235 333.2ZM193.945 402.656L203.173 413.808V433.561L157.033 416.357V399.63L167.216 395.488V257.372L157.033 252.274V232.361H237.062V272.505H219.402L213.992 256.097H193.627V302.454H208.901L214.946 293.692H227.197V334.634H214.946L209.218 326.35H193.627V402.656H193.945ZM244.858 409.666V389.913L256.313 380.514V257.213L246.608 252.115V232.202H292.747V252.115L283.678 257.213V372.868L303.566 367.452L307.384 337.184H326.159V387.843L244.857 409.667L244.858 409.666Z" fill="#D50A0A"/>
<path d="M39.7745 183.614L25.774 173.099H42.7978L48.3666 156.85L53.9354 173.099H70.9591L56.9586 183.614L62.0497 200.022L48.2073 190.305L34.3649 200.022L39.7745 183.614ZM100.393 183.614L86.3927 173.099H103.417L108.985 156.85L114.554 173.099H131.578L117.577 183.614L122.668 200.022L108.826 190.305L94.9837 200.022L100.393 183.614ZM39.7745 128.973L25.774 118.459H42.7978L48.3666 102.21L53.9354 118.459H70.9591L56.9586 128.973L62.0497 145.381L48.2073 135.664L34.3649 145.381L39.7745 128.973ZM100.393 128.973L86.3927 118.459H103.417L108.985 102.21L114.554 118.459H131.578L117.577 128.973L122.668 145.381L108.826 135.664L94.9837 145.381L100.393 128.973ZM337.616 200.182L323.773 190.465L309.931 200.182L315.022 183.774L301.022 173.259H318.205L323.773 157.01L329.342 173.259H346.366L332.365 183.774L337.616 200.182ZM277.156 200.182L263.314 190.465L249.472 200.182L254.563 183.774L240.562 173.259H257.586L263.155 157.01L268.723 173.259H285.747L271.747 183.774L277.156 200.182ZM337.616 145.381L323.773 135.664L309.931 145.381L315.022 128.973L301.022 118.459H318.205L323.773 102.21L329.342 118.459H346.366L332.365 128.973L337.616 145.381ZM277.156 145.381L263.314 135.664L249.472 145.381L254.563 128.973L240.562 118.459H257.586L263.155 102.21L268.723 118.459H285.747L271.747 128.973L277.156 145.381ZM224.652 85.0052C226.084 84.8459 226.879 86.5985 227.675 87.7132C233.721 103.007 235.312 121.645 230.698 139.487C223.698 166.728 200.787 191.738 151.624 198.11C150.51 198.269 149.238 197.951 149.078 197.314C151.305 186.96 156.874 167.206 168.807 146.337C171.034 147.771 173.262 149.204 175.33 150.797C176.125 149.522 177.08 148.089 178.512 145.7C172.467 140.921 165.466 137.576 157.67 136.142C157.67 136.142 156.238 139.168 155.125 141.398C155.125 141.398 158.148 142.035 161.807 143.31C151.147 165.932 147.488 186.96 146.533 196.518C143.509 191.739 141.123 180.587 140.328 174.534C132.532 117.185 173.74 83.7313 218.606 83.0944C221.63 82.9352 222.743 83.5721 222.743 83.5721C222.743 83.5721 212.878 87.2365 201.423 95.9974C201.423 95.9974 198.719 94.8828 195.855 94.0856C194.104 95.2002 192.196 96.4751 190.445 97.75C195.855 99.0249 202.696 101.733 209.219 107.149C210.651 105.874 212.083 104.441 213.675 103.007C212.083 101.732 209.538 99.9803 207.311 98.7054C217.493 88.8288 224.653 85.0052 224.653 85.0052H224.652ZM182.331 139.168C183.444 137.575 184.717 135.663 185.99 133.752C180.899 129.451 173.579 125.309 164.67 123.557C163.397 125.469 161.17 129.132 161.17 129.132C168.489 130.566 175.967 133.911 182.331 139.168ZM190.445 127.857C191.718 126.105 192.991 124.513 194.423 122.76C187.422 117.025 179.467 113.679 173.262 112.565C171.83 114.158 170.398 115.91 169.125 117.503C177.24 119.097 184.558 122.919 190.445 127.857ZM199.514 117.024C200.787 115.431 202.219 113.998 203.969 112.405C199.673 108.899 193.468 104.758 184.24 102.528C182.649 103.803 180.741 105.236 178.99 106.989C186.309 108.582 193.308 111.927 199.514 117.024Z" fill="white"/>
</g>
<defs>
<clipPath id="clip0_795_4010">
<rect width="372.3" height="512" fill="white" transform="translate(0 0.574707)"/>
</clipPath>
</defs>
</svg>
