<svg width="526" height="513" viewBox="0 0 526 513" fill="none" xmlns="http://www.w3.org/2000/svg">
<g clip-path="url(#clip0_820_265)">
<path d="M93.2166 0.0507812H432.362C483.781 0.0507812 525.353 41.6234 525.353 93.0422V419.059C525.353 470.478 483.781 512.051 432.362 512.051H93.2166C41.7977 512.051 0.225098 470.478 0.225098 419.059V93.0422C0.225098 41.6234 41.7977 0.0507812 93.2166 0.0507812Z" fill="#00005B"/>
<path d="M124.943 359.107V133.958C124.943 132.426 125.599 131.551 127.131 131.551C130.851 131.551 134.351 131.551 139.384 131.332C144.635 131.113 150.105 131.113 156.013 130.895C161.921 130.676 168.266 130.676 175.049 130.457C181.832 130.238 188.396 130.238 194.96 130.238C212.902 130.238 227.78 132.426 240.033 137.021C250.974 140.741 261.039 146.867 269.353 154.963C276.355 161.965 281.825 170.498 285.326 179.907C288.608 189.096 290.358 198.505 290.358 208.351C290.358 227.168 285.982 242.703 277.23 254.956C268.478 267.209 256.225 276.399 242.003 281.65C227.124 287.12 210.714 289.09 192.772 289.09C187.521 289.09 184.02 289.09 181.832 288.871C179.644 288.652 176.58 288.652 172.423 288.652V358.888C172.642 360.419 171.548 361.732 170.016 361.951C169.798 361.951 169.579 361.951 169.141 361.951H127.569C125.818 361.951 124.943 361.076 124.943 359.107ZM172.642 173.78V247.298C175.705 247.517 178.55 247.736 181.175 247.736H192.772C201.305 247.736 209.839 246.423 217.934 243.797C224.936 241.828 231.063 237.671 235.876 232.201C240.471 226.731 242.659 219.291 242.659 209.664C242.878 202.881 241.127 196.098 237.627 190.19C233.907 184.502 228.656 180.125 222.31 177.719C214.215 174.437 205.463 173.124 196.492 173.343C190.803 173.343 185.77 173.343 181.613 173.561C177.237 173.343 174.174 173.561 172.642 173.78Z" fill="#9999FF"/>
<path d="M320.99 186.486H359.28C361.468 186.486 363.219 188.017 363.875 189.987C364.532 191.737 364.969 193.488 365.188 195.457C365.626 197.645 366.063 200.052 366.282 202.24C366.501 204.647 366.72 207.272 366.72 210.117C373.284 202.458 381.161 196.113 390.132 191.299C400.197 185.611 411.793 182.766 423.39 182.766C424.921 182.547 426.234 183.641 426.453 185.173C426.453 185.392 426.453 185.611 426.453 186.048V228.715C426.453 230.465 425.359 231.122 422.952 231.122C415.075 230.903 406.979 231.559 399.321 233.31C392.976 234.623 386.85 236.592 380.942 239.217C376.785 241.187 372.846 243.812 369.783 247.313V358.903C369.783 361.091 368.908 361.966 366.938 361.966H323.834C322.084 362.185 320.552 361.091 320.333 359.341C320.333 359.122 320.333 358.684 320.333 358.465V237.248C320.333 231.997 320.333 226.527 320.114 220.838C319.896 215.149 319.896 209.46 319.677 203.771C319.677 198.739 319.239 193.925 318.802 188.893C318.583 187.799 319.239 186.705 320.333 186.486C320.333 186.267 320.771 186.267 320.99 186.486Z" fill="#9999FF"/>
</g>
<defs>
<clipPath id="clip0_820_265">
<rect width="525.128" height="512" fill="white" transform="translate(0.225098 0.0507812)"/>
</clipPath>
</defs>
</svg>
