<svg width="1025" height="214" viewBox="0 0 1025 214" fill="none" xmlns="http://www.w3.org/2000/svg">
<g clip-path="url(#clip0_4_15)">
<path d="M716.943 112.749C716.943 112.749 725.958 112.92 728.467 112.238C733.948 110.752 736.676 106.537 736.676 101.69C736.676 98.206 735.751 94.9661 730.709 92.8467C728.369 91.8479 725.3 91.9209 722.596 91.8479C719.623 91.7749 716.871 91.7749 716.871 91.7749L716.943 112.749ZM716.847 163.225C716.847 163.225 723.643 163.688 728.369 162.445C735.336 160.642 737.334 155.965 737.406 150.167C737.48 145.271 735.556 141.032 730.244 139.327C725.763 137.89 716.871 138.377 716.871 138.377L716.822 163.225H716.847ZM668.734 63.9549C668.734 63.9549 698.259 63.7844 721.743 63.9061C732.705 64.1498 739.868 64.6127 747.03 66.1718C762.377 69.5091 774.191 80.5689 773.973 94.625C773.728 110.508 763.278 123.955 745.13 125.149C765.178 125.636 777.627 140.861 777.261 157.208C776.847 174.918 762.718 188.657 744.205 189.315C726.08 189.948 668.88 189.607 668.88 189.607L668.808 163.151H679.454V92.1403H668.709L668.734 63.9061V63.9549Z" fill="black"/>
<path d="M845.446 164.662C857.505 164.735 860.988 149.485 860.988 126.562C860.988 103.638 857.675 86.3667 844.57 86.3667C832.925 86.3667 828.15 103.663 828.15 126.562C828.15 149.461 833.315 164.589 845.446 164.662ZM784.326 125.855C784.326 89.8502 808.053 60.5687 844.521 60.6417C882.695 60.7149 904.741 89.8259 904.741 125.855C904.741 161.885 881.013 190.849 844.521 191.069C809.028 191.264 784.326 161.885 784.326 125.855Z" fill="black"/>
<path d="M204.737 92.2862L204.665 163.565L193.556 163.492V189.704H258.671V163.687H245.613L245.492 145.66C245.492 145.66 263.543 146.148 268.879 145.441C294.189 142.128 302.569 122.396 302.716 104.759C302.885 85.3922 293.459 69.8257 268.318 65.3677C261.034 64.0767 250.559 63.8818 238.476 63.833C216.966 63.7843 193.361 63.9792 193.361 63.9792V92.2619H204.737V92.2862ZM245.638 92.2132C245.638 92.2132 254.188 91.5555 258.136 92.8223C262.496 94.2352 263.641 98.3033 263.641 105.977C263.641 113.651 258.963 118.133 255.529 118.669C251.412 119.302 245.638 118.888 245.638 118.888V92.1889V92.2132Z" fill="black"/>
<path d="M312.898 92.0671L312.873 63.8574H377.283V92.1158H364.323L364.274 163.176H383.154V141.592L413.07 141.568L413.02 189.705H312.873V163.176L324.226 163.225L324.202 92.0184L312.898 92.0671Z" fill="black"/>
<path d="M470.268 125.782L487.539 125.733L480.841 89.5092L470.268 125.782ZM464.812 63.8575H505.055L533.655 163.005H542.255V189.705L484.495 189.558V162.859L495.555 163.005L493.63 151.897H464.421L460.475 163.005H473.216V189.558H425.883V162.957L434.921 163.03L464.787 63.833L464.812 63.8575Z" fill="black"/>
<path d="M539.257 92.1158V63.8574H601.889L601.815 92.1158H592.218L605.665 114.479L618.258 92.189H609.806V63.8574H655.092V92.1158H647.345L617.894 140.642V163.151H632.973V189.729H565.518V163.103L576.748 163.127L576.773 138.913L546.419 92.1158H539.257Z" fill="black"/>
<path d="M908.76 92.0185V63.7603H971.489V92.0185L962.573 91.8967L975.045 113.261L987.566 91.9455L979.381 92.0429V63.7603H1024.59V92.0185L1016.17 91.8967L988.078 137.841V163.103H1001.01V189.729H935.167V163.079H946.397L946.348 139.4L916.093 92.0185H908.76Z" fill="black"/>
<path d="M138.695 0.203125V6.73179C138.695 10.8975 138.403 14.1618 138.403 16.2324C138.403 35.526 137.209 50.9708 134.554 62.274C130.997 78.9123 123.567 92.262 112.873 102.956C111.972 103.858 111.972 104.735 113.165 105.928C121.789 116.623 126.539 127.317 126.539 138.011C126.539 151.678 124.761 162.664 121.789 170.679C120.888 172.457 119.718 174.236 117.916 175.429C111.679 179.595 100.4 184.345 84.9556 189.973C83.7619 190.265 83.1773 189.68 83.1773 188.779C83.1773 188.487 83.4697 185.807 84.0786 181.057C84.0786 179.863 83.7864 179.278 83.494 178.986C82.9093 178.694 81.7156 178.986 80.2297 179.887C66.8557 187.025 60.0347 190.582 60.0347 190.582C57.9641 187.61 57.0626 184.345 57.0626 181.081C57.0626 176.915 58.2564 173.651 60.3271 171.288C49.6328 168.901 41.0334 165.052 34.4804 160.301C27.3427 154.65 23.7861 148.121 23.7861 141.008C23.7861 130.313 29.9007 119.765 42.4951 109.826C51.1432 103.005 65.3697 98.6689 81.1067 97.3534C72.7996 94.966 62.3977 90.8247 49.925 84.8807C41.009 80.7151 32.1174 73.3095 23.2014 62.6152C13.4084 51.3362 7.17211 40.6418 4.49243 29.9475C2.66539 23.6624 1.49607 16.2324 0.594727 7.63312C11.8737 13.8694 20.4973 18.6198 26.4414 22.1765C33.5791 26.3421 41.3014 32.5784 49.6083 40.0085C58.5243 48.0232 65.0531 55.1608 70.0957 61.6894C81.6669 77.4264 90.5829 89.022 96.8192 97.0367V78.0355C96.8192 47.1461 110.778 21.2994 138.695 0.227486V0.203125ZM77.5256 211.361C77.5988 213.724 76.9409 214.041 75.7474 212.262C74.5537 210.777 72.1907 208.39 68.3173 205.441C64.4684 202.47 61.7888 200.983 60.5951 200.983C59.6937 200.983 57.0384 202.178 53.165 204.54C48.9994 206.611 46.9286 208.096 46.344 208.096C46.0518 207.512 45.4427 204.248 44.8581 198.889C43.9568 193.237 43.3719 189.68 43.3719 188.487C43.3719 187.001 43.9568 187.001 45.1503 187.585C45.7351 188.17 48.4148 189.656 53.165 191.752C57.9154 193.821 60.5951 195.015 61.4719 195.015C61.7643 195.015 64.444 193.821 68.902 191.141C73.36 188.779 76.0396 187.293 76.332 187.293C76.332 187.585 76.9654 198.719 76.7217 194.991C76.7217 194.748 76.9167 197.403 77.2089 203.029C77.4526 207.779 77.4283 208.828 77.5013 211.337L77.5256 211.361ZM118.793 187.902C118.793 190.29 118.208 191.775 117.307 192.653C110.778 194.723 104.834 196.208 99.4989 197.987C89.7061 200.666 84.639 202.445 83.7619 202.445C83.1773 202.445 82.8606 201.861 82.8606 200.958C82.8606 198.889 83.153 197.403 84.0543 196.502C89.7061 194.431 95.0409 192.945 99.7913 191.458C109 188.194 114.944 186.416 117.599 186.416C118.5 186.416 118.793 187.001 118.793 187.902ZM54.6267 114.844C50.1929 114.844 46.612 118.45 46.612 122.859C46.612 127.268 50.2174 130.874 54.6267 130.874C59.0359 130.874 62.6413 127.268 62.6413 122.859C62.6413 118.45 59.0359 114.844 54.6267 114.844Z" fill="black"/>
</g>
<defs>
<clipPath id="clip0_4_15">
<rect width="1024" height="213.195" fill="white" transform="translate(0.594727 0.203125)"/>
</clipPath>
</defs>
</svg>
