<svg width="852" height="513" viewBox="0 0 852 513" fill="none" xmlns="http://www.w3.org/2000/svg">
<g clip-path="url(#clip0_2_14912)">
<path d="M731.238 392.33C722.404 392.33 715.233 399.492 715.233 408.331C715.233 417.161 722.404 424.332 731.238 424.332C740.072 424.332 747.233 417.161 747.233 408.332C747.233 399.492 740.072 392.33 731.238 392.33ZM731.238 420.9C729.587 420.901 727.952 420.576 726.427 419.945C724.902 419.314 723.516 418.388 722.349 417.221C721.181 416.054 720.256 414.668 719.625 413.142C718.993 411.617 718.669 409.982 718.671 408.331C718.671 401.387 724.285 395.772 731.238 395.772C738.182 395.772 743.803 401.387 743.803 408.331C743.803 415.277 738.182 420.899 731.238 420.899V420.9ZM737.813 404.622C737.81 403.184 737.238 401.805 736.221 400.787C735.203 399.771 733.822 399.2 732.384 399.202H724.674V417.466H728.101V410.048H730.561L734.023 417.466H737.813L734.198 409.732C735.254 409.357 736.168 408.665 736.815 407.75C737.462 406.835 737.811 405.743 737.813 404.622ZM732.384 406.619H728.101V402.622H732.384C733.484 402.622 734.386 403.517 734.386 404.622C734.385 405.152 734.173 405.661 733.798 406.035C733.422 406.409 732.914 406.619 732.384 406.619Z" fill="#010101"/>
<path d="M849.571 150.37C837.921 69.0607 766.848 43.7668 724.123 35.8468L760.672 11.8009C760.672 11.8009 569.733 -29.6391 322.762 48.3599C97.1226 119.62 -16.7494 231.444 2.12844 363.233C13.7764 444.548 84.8485 469.837 127.569 477.753L91.0224 501.804C91.0224 501.804 281.961 543.241 528.943 465.256C754.577 393.992 868.444 282.172 849.571 150.37Z" fill="#A2AAAD"/>
<path d="M838.226 153.941C822.828 46.4414 690.05 44.6313 690.05 44.6313L728.38 19.4121C728.38 19.4121 547.093 -10.0141 324.467 60.2953C127.884 122.373 -5.85982 224.619 13.4778 359.652C28.8762 467.169 161.654 468.972 161.654 468.972L123.329 494.176C123.329 494.176 304.605 523.608 527.239 453.303C723.822 391.216 857.569 288.983 838.225 153.941H838.226Z" fill="white"/>
<path d="M817.607 160.462C797.943 23.2236 585.286 52.2871 475.426 86.9794C416.586 105.559 378.093 124.418 378.093 124.418C577.382 53.1095 717.086 104.013 717.086 104.013C650.958 99.3708 588.785 120.807 588.785 120.807C588.785 120.807 655.583 134.263 664.454 196.252C676.182 278.097 606.515 371.771 391.782 439.585C274.712 476.543 176.209 482.408 176.209 482.408C176.209 482.408 315.118 502.847 524.845 436.613C718.936 375.321 834.204 276.409 817.607 160.462Z" fill="#C8102E"/>
<path d="M426.111 336.482C485.686 317.666 536.302 289.603 563.506 262.831C578.546 248.026 586.461 233.619 584.706 221.388C584.032 216.722 581.957 212.629 578.702 209.085C558.013 186.545 488.227 186.854 408.295 212.093C315.789 241.314 244.777 292.833 249.695 327.181C254.617 361.528 333.6 365.694 426.111 336.482Z" fill="#C8102E"/>
<path d="M326.857 76.9802C132.76 138.282 17.4973 237.196 34.1063 353.137C53.7586 490.371 266.418 461.322 376.275 426.62C435.118 408.031 473.608 389.177 473.608 389.177C274.315 460.485 134.611 409.579 134.611 409.579C200.743 414.223 262.92 392.796 262.92 392.796C262.92 392.796 196.121 379.332 187.251 317.339C175.528 235.499 245.188 141.825 459.924 74.0181C576.994 37.0506 675.494 31.1839 675.494 31.1839C675.494 31.1839 536.591 10.7519 326.857 76.9802Z" fill="#010101"/>
<path d="M395.766 160.656C322.053 183.93 283.493 213.398 270.174 244.276L243.39 306.321C243.39 306.321 275.899 248.049 407.488 206.498C506.712 175.159 567.279 183.065 578.698 209.084C581.954 212.629 584.028 216.722 584.702 221.387C586.457 233.619 578.541 248.025 563.502 262.831C538.647 297.786 491.19 335.381 449.55 360.774C482.803 350.276 632.046 279.465 621.219 203.866C611.164 133.715 523.958 120.17 395.766 160.656Z" fill="#010101"/>
<path d="M411.213 251.1C372.588 263.303 342.821 283.922 344.72 297.173C346.614 310.419 379.456 311.283 418.08 299.084C456.7 286.884 486.469 266.262 484.575 253.01C482.671 239.757 449.824 238.901 411.213 251.1Z" fill="#010101"/>
</g>
<defs>
<clipPath id="clip0_2_14912">
<rect width="851.484" height="512" fill="white" transform="translate(0.107422 0.800781)"/>
</clipPath>
</defs>
</svg>
