<svg width="1025" height="452" viewBox="0 0 1025 452" fill="none" xmlns="http://www.w3.org/2000/svg">
<g clip-path="url(#clip0_879_3724)">
<path fill-rule="evenodd" clip-rule="evenodd" d="M1021.94 451.818C965.159 375.351 866.059 281.946 747.996 229.508L772.108 285.065C671.715 234.503 560.119 198.207 433.614 198.782L460.574 227.972C226.894 237.125 89.8024 353.003 0.0356445 451.818C2.1355 318.018 98.0049 197.188 224.307 123.421L198.311 99.2904C292.309 34.2322 424.145 15.9775 535.416 28.8295L519.594 0.283203C888.199 27.6744 1044.33 302.766 1021.94 451.818Z" fill="white"/>
<path fill-rule="evenodd" clip-rule="evenodd" d="M431.89 216.671L403.569 186.006C510.896 182.437 619.399 198.597 745.619 257.923L722.367 204.343C817.392 241.159 922.678 309.879 1010.96 416.471C1003.19 255.073 840.19 45.9336 543.722 16.0273L560.207 45.766C440.382 25.4088 305.747 46.5937 220.065 101.227L246.86 126.095C117.888 195.263 33.1675 305.288 14.9821 416.471C121.431 305.288 259.824 228.496 431.89 216.671Z" fill="#0080C6"/>
<path fill-rule="evenodd" clip-rule="evenodd" d="M964.696 329.825C914.459 194.601 763.36 78.0157 593.741 50.1055L613.664 85.6114C511.503 54.0098 363.044 55.9233 265.456 106.844L293.448 132.827C204.004 171.157 109.625 253.243 72.269 328.667C133.532 273.406 266.821 209.441 376.165 195.85L348.995 166.43C454.083 145.6 594.142 166.218 693.993 206.761L674.624 162.127C748.164 177.201 884.83 242.909 964.696 329.825Z" fill="#FFC20E"/>
</g>
<defs>
<clipPath id="clip0_879_3724">
<rect width="1024" height="451.535" fill="white" transform="translate(0.0356445 0.283203)"/>
</clipPath>
</defs>
</svg>
