<svg width="534" height="513" viewBox="0 0 534 513" fill="none" xmlns="http://www.w3.org/2000/svg">
<g clip-path="url(#clip0_2_14982)">
<path d="M482.985 466.764C475.822 466.764 470.007 472.57 470.007 479.737C470.007 486.897 475.822 492.712 482.985 492.712C490.147 492.712 495.953 486.897 495.953 479.738C495.953 472.57 490.147 466.764 482.985 466.764ZM482.985 489.928C481.647 489.929 480.321 489.666 479.084 489.155C477.847 488.643 476.723 487.893 475.777 486.946C474.83 486 474.079 484.876 473.568 483.639C473.056 482.402 472.793 481.076 472.795 479.738C472.795 474.108 477.348 469.555 482.985 469.555C488.615 469.555 493.173 474.108 493.173 479.738C493.173 485.37 488.615 489.928 482.985 489.928ZM488.315 476.731C488.315 476.153 488.201 475.581 487.98 475.048C487.759 474.514 487.434 474.029 487.025 473.621C486.199 472.798 485.08 472.335 483.913 472.335H477.662V487.144H480.441V481.129H482.435L485.242 487.144H488.315L485.384 480.873C486.24 480.569 486.981 480.008 487.506 479.266C488.031 478.525 488.313 477.639 488.315 476.731ZM483.913 478.35H480.441V475.109H483.913C484.807 475.109 485.537 475.835 485.537 476.731C485.536 477.161 485.364 477.572 485.06 477.876C484.755 478.18 484.343 478.35 483.913 478.35ZM493.284 71.9507L533.364 0.800781H399.304L380.084 19.4905L360.864 0.800781H173.308L154.086 19.4905L134.867 0.800781H0.803223L40.8932 71.9507V417.537C40.8932 424.492 40.8932 478.756 106.468 478.756H210.198C247.437 478.756 265.587 512.801 265.587 512.801H268.58C268.58 512.801 286.735 478.756 323.974 478.756H427.701C493.275 478.756 493.284 424.492 493.284 417.537V71.9507Z" fill="#154B94"/>
<path d="M231.474 172.666L463.157 340.459V172.666H231.474Z" fill="#C32032"/>
<path d="M71.022 149.04H463.158V158.495H71.022V149.04ZM71.022 417.539C71.022 445.097 89.9626 448.635 106.47 448.635H210.2C233.805 448.635 252.907 461.023 267.083 472.402C281.262 461.023 300.365 448.635 323.976 448.635H361.544L71.022 238.229V417.539ZM71.022 218.749L388.44 448.635H401.937L71.022 208.969V218.749ZM191.075 172.667L463.157 369.727V359.952L204.577 172.667H191.075ZM303.28 359.433L326.232 376.057L332.918 366.834L319.35 357.009L330.168 342.064L343.736 351.893L350.414 342.659L336.855 332.843L347.681 317.904L361.238 327.724L367.922 318.492L344.964 301.867L303.28 359.433ZM188.358 188.44L167.126 173.072L125.437 230.631L134.824 237.441L153.49 211.662L158.733 215.459L149.92 248.372L159.318 255.172L168.23 221.86C174.113 224.286 181.1 222.468 185.002 217.097L191.507 208.107C196.063 201.814 194.655 193.008 188.359 188.44H188.358ZM180.839 203.068L176.875 208.529C176.5 209.047 176.028 209.486 175.484 209.821C174.94 210.156 174.335 210.38 173.704 210.481C173.073 210.583 172.429 210.559 171.807 210.411C171.186 210.263 170.6 209.994 170.082 209.619L160.177 202.436L169.84 189.099L179.751 196.276C180.795 197.033 181.496 198.173 181.7 199.447C181.904 200.72 181.595 202.022 180.839 203.068ZM374.076 410.702L382.989 377.39C388.866 379.825 395.856 378.013 399.755 372.63L406.267 363.643C410.825 357.352 409.416 348.544 403.125 343.981L381.883 328.603L340.185 386.163L349.588 392.974L368.251 367.202L373.486 370.996L364.684 403.908L374.076 410.702ZM384.596 344.635L394.507 351.813C395.552 352.57 396.254 353.71 396.458 354.984C396.662 356.258 396.353 357.56 395.598 358.606L391.638 364.065C390.068 366.241 387.025 366.725 384.846 365.153L374.93 357.971L384.596 344.635ZM254.586 236.413L212.892 293.977L222.29 300.782L247.319 266.222L237.381 311.71L246.773 318.513L288.462 260.945L279.072 254.147L254.044 288.697L263.98 243.208L254.586 236.413ZM165.645 259.756L175.041 266.564L186.898 257.035L202.522 268.353L197.174 282.588L206.566 289.393L232.488 220.413L223.104 213.606L165.646 259.755L165.645 259.756ZM206.063 258.935L194.734 250.736L215.377 234.156L206.063 258.935ZM320.655 284.258L312.785 278.558C306.48 273.999 297.684 275.403 293.121 281.694L267.947 316.462C263.384 322.755 264.79 331.557 271.095 336.12L278.962 341.82C280.896 343.218 283.153 344.103 285.522 344.392L285.357 346.452L290.359 350.085L312.654 319.303L294.364 306.051L288.679 313.907L297.575 320.349L290.501 330.11C289.938 330.889 289.156 331.483 288.255 331.818C287.354 332.153 286.374 332.214 285.439 331.992C284.818 331.844 284.232 331.575 283.715 331.2L279.7 328.289C277.529 326.717 277.036 323.671 278.614 321.503L301.23 290.267C301.605 289.749 302.078 289.311 302.622 288.976C303.167 288.642 303.772 288.417 304.403 288.317C305.034 288.216 305.678 288.24 306.3 288.389C306.921 288.537 307.507 288.807 308.025 289.182L312.038 292.085C313.082 292.841 313.783 293.981 313.988 295.253C314.194 296.526 313.886 297.828 313.133 298.874L307.613 306.494L317.003 313.299L323.796 303.917C328.353 297.623 326.952 288.824 320.655 284.258ZM438.118 369.33C429.524 363.1 417.507 365.021 411.287 373.618C399.998 389.203 421.781 408.126 415.855 416.311C413.079 420.145 407.717 421.006 403.876 418.221C400.045 415.455 399.186 410.093 401.963 406.252L404.674 402.508L395.285 395.706L392.686 399.283C386.158 408.307 388.176 420.924 397.199 427.453C406.22 433.982 418.83 431.971 425.361 422.943C436.542 407.513 414.765 388.575 420.795 380.254C421.381 379.443 422.122 378.756 422.974 378.233C423.827 377.709 424.774 377.359 425.762 377.202C426.75 377.044 427.76 377.083 428.733 377.316C429.706 377.548 430.624 377.97 431.433 378.558C434.843 381.021 435.607 385.782 433.138 389.199L430.883 392.302L440.273 399.107L442.401 396.159C448.63 387.568 446.715 375.549 438.118 369.33ZM160.145 125.824H143.394V107.374H160.145V95.9817H143.394V77.5376H160.145V66.1317H131.797V137.216H160.145V125.824ZM371.355 105.396H377.819L389.997 137.216H401.595L389.267 105.006C395.461 103.52 400.053 97.9631 400.053 91.314V80.2195C400.053 72.4444 393.757 66.1326 385.982 66.1326H359.756V137.216H371.354L371.355 105.396ZM371.355 77.5376H383.592C386.285 77.5376 388.463 79.711 388.463 82.3929V89.1372C388.463 90.4291 387.95 91.6681 387.037 92.5817C386.123 93.4953 384.884 94.0087 383.592 94.009H371.355V77.5376ZM86.3128 94.5408L104.951 137.216H116.553V66.1326H104.95V108.815L86.3128 66.1326H74.7219V137.216H86.3137L86.3128 94.5408ZM325.979 137.216H335.685C343.47 137.216 349.774 130.907 349.774 123.134V80.2195C349.774 72.4444 343.47 66.1309 335.685 66.1309H325.979C318.199 66.1309 311.89 72.4452 311.89 80.2195V123.134C311.89 130.907 318.2 137.216 325.979 137.216ZM323.492 82.3921C323.492 79.711 325.668 77.5376 328.353 77.5376H333.311C334.272 77.5356 335.212 77.8194 336.012 78.3528C336.812 78.8862 337.435 79.6452 337.803 80.5335C338.048 81.1225 338.174 81.7547 338.175 82.3929V120.963C338.175 121.602 338.049 122.234 337.804 122.824C337.56 123.414 337.201 123.95 336.749 124.401C336.298 124.852 335.762 125.21 335.172 125.454C334.582 125.699 333.949 125.824 333.311 125.824H328.353C327.064 125.823 325.828 125.311 324.917 124.399C324.005 123.488 323.493 122.252 323.492 120.963V82.3921ZM425.956 107.788L431.154 99.4386L447.861 137.216H459.459L437.947 88.5551L451.936 66.1317H440.334L425.956 89.1916V66.1326H414.358V137.216H425.956V107.788ZM278.64 137.216H290.24V107.788L305.549 66.1317H293.951L284.434 92.0146L274.92 66.1317H263.322L278.641 107.788L278.64 137.216ZM196.623 137.216L202.701 99.9575L208.78 137.216H222.653L234.256 66.1326H222.653L215.724 108.655L208.78 66.1317H196.623L189.683 108.655L182.755 66.1317H171.152L182.755 137.216H196.623Z" fill="white"/>
<path d="M400.667 4.14062L380.086 24.158L359.507 4.14062H174.667L154.089 24.158L133.51 4.14062H6.53284L44.2445 71.0666V417.536C44.2445 434.94 50.3037 475.411 106.471 475.411H210.199C243.509 475.411 262.009 501.011 267.083 509.109C272.168 501.011 290.668 475.411 323.977 475.411H427.704C483.873 475.411 489.94 434.94 489.94 417.536V71.0666L527.644 4.14062H400.667ZM474.65 67.0648V417.536C474.65 436.964 466.506 460.119 427.704 460.119H323.977C297.616 460.119 278.846 474.936 267.083 486.718C255.338 474.936 236.559 460.119 210.199 460.119H106.472C67.6746 460.119 59.5267 436.964 59.5267 417.536V67.0657L32.6873 19.4289H127.304L154.089 45.4752L180.878 19.4297H353.301L380.087 45.4752L406.87 19.4297H501.489L474.65 67.0657L474.65 67.0648Z" fill="white"/>
</g>
<defs>
<clipPath id="clip0_2_14982">
<rect width="532.56" height="512" fill="white" transform="translate(0.802734 0.800781)"/>
</clipPath>
</defs>
</svg>
