<svg width="512" height="513" viewBox="0 0 512 513" fill="none" xmlns="http://www.w3.org/2000/svg">
<g clip-path="url(#clip0_781_294)">
<path d="M256.387 511.612C397.506 511.612 511.906 397.213 511.906 256.094C511.906 114.974 397.506 0.574707 256.387 0.574707C115.268 0.574707 0.868164 114.974 0.868164 256.094C0.868164 397.213 115.268 511.612 256.387 511.612Z" fill="white"/>
<path d="M282.082 111.045C279.842 110.645 269.043 108.831 256.387 108.831C243.731 108.831 232.932 110.636 230.692 111.045C229.406 111.275 228.912 110.015 229.892 109.282C230.777 108.626 256.379 89.1401 256.379 89.1401L282.857 109.282C283.854 110.015 283.368 111.275 282.082 111.045ZM237.846 237.57C237.846 237.57 236.492 238.055 236.134 239.247C241.5 243.37 245.196 252.746 256.387 252.746C267.578 252.746 271.274 243.37 276.631 239.247C276.282 238.047 274.928 237.57 274.928 237.57C274.928 237.57 267.919 239.222 256.387 239.222C244.855 239.222 237.846 237.57 237.846 237.57ZM256.387 221.788C253.278 221.788 252.597 220.613 250.476 220.621C248.458 220.63 244.54 222.24 243.689 223.713C243.748 224.462 244.021 225.135 244.566 225.731C249.097 226.413 251.141 228.934 256.396 228.934C261.65 228.934 263.686 226.413 268.225 225.731C268.753 225.135 269.043 224.471 269.103 223.713C268.259 222.24 264.333 220.638 262.306 220.621C260.177 220.604 259.487 221.788 256.387 221.788ZM511.514 270.104C511.19 276.21 510.645 282.265 509.896 288.253C480.973 293.039 470.634 267.267 441.004 268.562C442.776 274.847 444.215 281.252 445.322 287.793C469.757 287.776 479.602 310.618 506.787 307.253C505.357 314.237 503.636 321.127 501.652 327.915C480.156 330.027 472.584 308.667 447.707 309.255C447.911 312.798 448.022 316.375 448.022 319.986L447.92 325.956L496.227 344.386C493.697 351.259 490.87 357.979 487.786 364.563C473.265 363.762 468.258 345.136 446.165 346.618C445.501 351.396 444.658 356.114 443.653 360.773C462.841 359.427 466.972 377.091 480.718 378.521C477.217 384.909 473.444 391.126 469.433 397.182C461.291 392.821 454.231 379.663 438.79 378.854C440.374 373.965 441.762 369.008 442.937 363.966C429.243 363.966 413.58 358.626 400.447 346.669C404.706 322.43 367.087 297.749 367.087 280C367.087 260.718 376.839 250.047 376.839 224.054C376.839 204.763 367.471 183.838 353.341 169.538C350.608 166.762 347.806 164.513 344.586 162.495C357.566 178.557 367.53 197.601 367.53 219.659C367.53 244.136 356.143 257.056 356.143 279.651C356.143 302.237 389.188 321.783 389.188 345.076C389.188 354.24 386.259 363.191 376.601 380.77C391.437 395.589 410.761 403.671 423.23 403.671C427.275 403.671 429.447 402.436 430.895 399.26C432.138 396.517 433.322 393.741 434.438 390.939C447.869 391.458 454.018 403.663 461.453 408.534C457.373 414.011 453.089 419.3 448.601 424.418C443.619 418.899 436.925 409.616 427.122 407.035C425.367 410.442 423.511 413.806 421.56 417.102C430.001 419.402 435.775 427.918 440.246 433.522C435.426 438.513 430.409 443.3 425.189 447.899C421.927 442.823 416.851 436.384 411.162 432.909C409.058 435.754 406.869 438.53 404.612 441.23C409.45 444.509 413.717 450.411 416.502 455.223C410.472 460.061 404.237 464.651 397.782 468.944C394.597 442.993 359.175 425.21 368.723 395.103C365.589 400.409 361.85 407.044 361.85 415.033C361.85 436.827 385.066 454.124 386.914 475.782C382.102 478.661 377.18 481.369 372.163 483.933C371.329 460.129 346.75 434.076 346.75 414.539C346.75 392.727 375.315 370.822 375.315 345.076C375.315 319.313 342.355 301.479 342.355 278.859C342.355 256.255 356.373 243.25 356.373 214.276C356.373 193.053 346.29 171.574 330.713 157.853C327.953 155.417 325.236 153.484 321.974 151.789C336.666 169.41 345.182 185.396 345.182 209.652C345.182 236.897 329.12 252.022 329.12 278.697C329.12 305.38 361.466 320.216 361.466 345.085C361.466 369.954 331.36 390.913 331.36 416.463C331.36 439.706 357.898 462.905 358.29 490.482C352.49 493.012 346.579 495.32 340.566 497.415C343.939 469.557 314.071 440.821 314.071 418.09C314.071 393.238 345.302 371.878 345.302 345.085C345.302 318.274 313.551 305.814 313.551 278.297C313.551 250.796 333.029 235.568 333.029 205.181C333.029 181.496 321.336 160.195 304.251 146.994L303.169 146.177C301.56 144.984 300.231 146.424 301.372 147.837C313.466 162.938 319.93 178.208 319.93 200.82C319.93 228.619 297.557 251.205 297.557 278.135C297.557 309.919 327.604 319.007 327.604 345.085C327.604 371.154 295.385 392.012 295.385 419.691C295.385 445.361 325.875 473.849 320.646 503.479C314.531 505.063 308.331 506.443 302.037 507.567C307.76 470.672 277.849 444.177 277.849 420.04C277.849 393.911 311.218 370.618 311.218 345.085C311.218 320.999 287.269 313.13 284.118 288.491C283.683 285.127 280.983 282.632 277.262 283.253C272.399 284.139 266.164 287.341 256.37 287.341C246.576 287.341 240.342 284.131 235.47 283.253C231.757 282.64 229.057 285.136 228.623 288.491C225.48 313.13 201.514 320.991 201.514 345.085C201.514 370.618 234.891 393.903 234.891 420.04C234.891 444.177 204.98 470.672 210.695 507.567C204.41 506.434 198.201 505.054 192.086 503.479C186.857 473.849 217.355 445.361 217.355 419.691C217.355 392.012 185.128 371.154 185.128 345.085C185.128 319.007 215.183 309.919 215.183 278.135C215.183 251.205 192.801 228.627 192.801 200.82C192.801 178.217 199.265 162.946 211.368 147.837C212.5 146.424 211.18 144.984 209.562 146.177L208.489 146.994C191.422 160.161 179.737 181.461 179.737 205.146C179.737 235.534 199.214 250.762 199.214 278.263C199.214 305.772 167.464 318.232 167.464 345.051C167.464 371.844 198.695 393.204 198.695 418.056C198.695 440.796 168.827 469.523 172.208 497.381C166.186 495.286 160.276 492.969 154.476 490.448C154.876 462.871 181.397 439.663 181.397 416.429C181.397 390.879 151.308 369.92 151.308 345.051C151.308 320.182 183.637 305.346 183.637 278.663C183.637 251.988 167.583 236.863 167.583 209.618C167.583 185.362 176.091 169.376 190.783 151.755C187.512 153.45 184.804 155.383 182.053 157.819C166.476 171.539 156.401 193.019 156.401 214.242C156.401 243.216 170.419 256.221 170.419 278.825C170.419 301.445 137.46 319.279 137.46 345.042C137.46 370.788 166.025 392.702 166.025 414.505C166.025 434.05 141.428 460.103 140.602 483.899C135.586 481.335 130.663 478.627 125.851 475.748C127.708 454.09 150.916 436.793 150.916 414.999C150.916 407.01 147.186 400.375 144.043 395.069C153.59 425.176 118.169 442.959 114.984 468.909C108.528 464.617 102.285 460.026 96.2641 455.189C99.0406 450.386 103.307 444.475 108.153 441.196C105.888 438.505 103.708 435.72 101.604 432.875C95.9064 436.35 90.8219 442.789 87.5686 447.865C82.3648 443.274 77.34 438.479 72.5195 433.488C76.9908 427.884 82.7651 419.368 91.2052 417.068C89.2549 413.772 87.3982 410.417 85.6438 407.001C75.841 409.582 69.1384 418.865 64.1646 424.384C59.6763 419.257 55.3838 413.968 51.3129 408.5C58.748 403.629 64.897 391.416 78.3194 390.905C79.4436 393.698 80.6274 396.475 81.8709 399.226C83.3187 402.402 85.499 403.637 89.5359 403.637C102.004 403.637 121.32 395.555 136.165 380.736C126.507 363.157 123.577 354.206 123.577 345.042C123.577 321.757 156.622 302.212 156.622 279.617C156.622 257.022 145.235 244.102 145.235 219.625C145.235 197.567 155.2 178.523 168.179 162.461C164.96 164.479 162.158 166.728 159.424 169.504C145.295 183.812 135.927 204.729 135.927 224.02C135.927 250.013 145.687 260.684 145.687 279.966C145.687 297.715 108.06 322.396 112.318 346.635C99.1854 358.592 83.5231 363.932 69.8197 363.932C71.012 368.974 72.4003 373.931 73.9673 378.82C58.535 379.637 51.4747 392.795 43.3242 397.148C39.3043 391.092 35.5399 384.875 32.0395 378.487C45.777 377.057 49.9161 359.393 69.1128 360.738C68.1078 356.08 67.2562 351.353 66.5919 346.584C44.4995 345.102 39.4916 363.736 24.9706 364.528C21.8876 357.945 19.06 351.225 16.5305 344.352L64.8459 325.922L64.7437 319.952C64.7437 316.341 64.8544 312.764 65.0503 309.221C40.173 308.642 32.6016 329.993 11.1054 327.881C9.12951 321.093 7.40062 314.212 5.97832 307.219C33.1467 310.583 43.0005 287.742 67.4435 287.759C68.5507 281.218 69.99 274.813 71.753 268.528C42.1233 267.242 31.784 293.013 2.86972 288.219C2.11173 282.231 1.57517 276.176 1.25154 270.069C34.8671 273.825 47.4718 246.189 78.0809 249.57C80.9681 242.254 84.3237 235.176 88.1051 228.363C49.7287 221.618 36.6981 253.709 0.979004 248.778C4.83708 111.054 117.709 0.574707 256.387 0.574707C395.065 0.574707 507.937 111.054 511.795 248.812C476.067 253.743 463.037 221.66 424.669 228.397C428.442 235.21 431.798 242.288 434.693 249.604C465.285 246.214 477.89 273.859 511.514 270.104ZM146.555 162.938C127.742 155.247 104.968 157.018 85.516 169.512C82.5011 151.414 72.6813 135.335 58.6969 125.634C56.7636 124.297 54.7536 125.566 54.9325 127.806C57.8878 166.046 35.5314 199.253 8.03937 228.44C36.3745 236.956 60.4939 200.471 97.2436 213.203C110.427 193.572 127.171 176.513 146.555 162.938ZM256.387 139.806C232.668 139.806 212.798 153.22 207.595 170.552C207.194 171.88 207.74 172.74 209.273 172.05C213.539 170.134 218.394 169.214 223.666 169.214C233.341 169.214 241.866 172.766 246.908 178.949C249.139 186.307 249.327 196.962 246.806 203.043C242.82 202.149 241.389 199.066 237.497 199.066C233.605 199.066 230.59 201.799 223.989 201.799C217.398 201.799 216.623 198.682 212.287 198.682C207.186 198.682 206.249 203.937 206.249 209.865C206.249 236.292 230.539 272.659 256.379 272.659C282.21 272.659 306.499 236.292 306.499 209.865C306.499 203.937 305.282 198.861 299.95 198.171C297.293 200.088 294.849 201.799 288.768 201.799C282.167 201.799 280.345 199.066 276.461 199.066C271.768 199.066 272.237 208.962 266.667 209.516C262.953 200.59 262.775 189.144 265.858 178.949C270.908 172.766 279.425 169.214 289.1 169.214C294.372 169.214 299.26 170.143 303.485 172.05C305.026 172.74 305.563 171.872 305.162 170.552C299.967 153.22 280.106 139.806 256.387 139.806ZM294.15 177.723C288.461 177.723 281.792 179.469 277.602 184.136C277.168 185.405 277.168 187.295 277.781 188.556C288.095 185.021 297.191 184.885 301.585 189.799C303.927 187.67 304.677 185.754 304.677 183.531C304.677 180.099 301.185 177.723 294.15 177.723ZM211.189 189.799C216.163 184.817 226.647 185.03 237.54 189.05C238.017 183.633 228.316 177.714 218.624 177.714C211.581 177.714 208.097 180.09 208.097 183.531C208.097 185.754 208.847 187.679 211.189 189.799ZM374.659 100.34C355.931 101.677 339.664 108.107 326.505 118.821C332.092 102.98 339.187 89.1231 348.18 75.6922C324.334 78.2217 304.396 86.9428 289.849 101.847L278.462 71.996L303.74 49.6736L269.895 47.2804L256.387 15.8026L242.871 47.2804L209.026 49.6736L234.303 71.996L222.925 101.847C208.37 86.9428 188.432 78.2217 164.602 75.6922C173.579 89.1316 180.673 102.988 186.26 118.821C173.111 108.098 156.844 101.668 138.115 100.34C149.349 114.784 159.305 130.182 166.68 146.739C167.515 148.604 169.304 149.217 171.237 148.255C196.889 135.505 225.795 128.334 256.379 128.334C286.962 128.334 315.859 135.514 341.529 148.255C343.462 149.217 345.251 148.604 346.077 146.739C353.461 130.182 363.417 114.784 374.659 100.34ZM415.548 213.22C452.28 200.488 476.408 236.965 504.743 228.457C477.251 199.27 454.903 166.063 457.859 127.823C458.038 125.583 456.019 124.306 454.094 125.651C440.101 135.352 430.282 151.431 427.275 169.53C407.814 157.035 385.049 155.255 366.236 162.955C385.594 176.513 402.347 193.572 415.548 213.22Z" fill="#006241"/>
<path d="M448.822 477.614H435.826V512.575H431.167V477.614H418.205V473.27H448.822V477.614ZM454.281 473.27H461.189L474.56 504.084H474.653L488.059 473.27H494.855V512.575H490.162V479.623H490.06L475.982 512.575H473.146L459.017 479.623H458.923V512.575H454.281V473.27Z" fill="#006241"/>
</g>
<defs>
<clipPath id="clip0_781_294">
<rect width="511.038" height="512" fill="white" transform="translate(0.868164 0.574707)"/>
</clipPath>
</defs>
</svg>
