<svg width="532" height="513" viewBox="0 0 532 513" fill="none" xmlns="http://www.w3.org/2000/svg">
<g clip-path="url(#clip0_2_14966)">
<path d="M465.891 451.018C459.265 451.018 453.886 456.388 453.886 463.018C453.886 469.641 459.265 475.019 465.891 475.019C472.516 475.019 477.886 469.641 477.886 463.018C477.886 456.388 472.516 451.018 465.891 451.018ZM465.891 472.444C464.026 472.447 462.202 471.896 460.651 470.86C459.1 469.824 457.892 468.351 457.18 466.627C456.707 465.483 456.464 464.257 456.465 463.018C456.465 457.81 460.677 453.599 465.891 453.599C471.099 453.599 475.315 457.81 475.315 463.018C475.315 468.228 471.099 472.444 465.891 472.444ZM470.821 460.237C470.82 459.158 470.39 458.124 469.628 457.361C468.864 456.599 467.829 456.171 466.749 456.171H460.967V469.869H463.537V464.306H465.382L467.979 469.869H470.821L468.11 464.069C468.902 463.788 469.588 463.269 470.074 462.583C470.559 461.897 470.82 461.077 470.821 460.237ZM466.749 461.734H463.537V458.737H466.749C467.576 458.737 468.251 459.408 468.251 460.237C468.249 460.634 468.09 461.015 467.809 461.295C467.528 461.576 467.147 461.734 466.749 461.734Z" fill="#00468B"/>
<path d="M266.181 0.802734C119.62 0.802734 0.821289 115.42 0.821289 256.808C0.821289 398.191 119.621 512.803 266.181 512.803C412.733 512.803 531.538 398.191 531.538 256.808C531.538 115.419 412.733 0.802734 266.18 0.802734H266.181Z" fill="#00468B"/>
<path d="M266.182 19.6621C130.056 19.6621 19.7111 125.835 19.7111 256.806C19.7111 387.769 130.056 493.942 266.183 493.942C402.299 493.942 512.651 387.769 512.651 256.806C512.651 125.835 402.299 19.6621 266.182 19.6621Z" fill="#F26924"/>
<path d="M86.2246 313.146V297.666L70.9286 284.232V314.112C75.595 312.866 81.3438 314.459 86.2246 313.146Z" fill="#00468B"/>
<path d="M496.976 242.722C475.27 250.335 448.245 259.216 427.298 266.411C420.246 265.263 415.421 269.213 410.416 272.525C402.953 275.75 393.549 274.456 386.186 277.589C379.322 283.262 369.158 285.659 360.733 282.064C358.469 279.485 355.49 276.36 351.926 277.178C346.326 277.734 345.157 287.884 338.226 282.594C333.948 284.847 330.207 287.979 325.48 289.12L318.362 290.882L315.684 296.59L313.242 301.778L311.608 305.262L309.171 310.45L307.537 313.938L305.09 319.126L303.45 322.613L301.018 327.803L281.416 369.537C280.81 370.827 279.921 371.963 278.815 372.862C277.708 373.761 276.414 374.398 275.027 374.727L243.428 382.258C243.576 382.409 243.738 382.544 243.833 382.735L264.742 426.151V386.512C264.74 386.233 264.799 385.957 264.913 385.702C265.027 385.447 265.194 385.219 265.402 385.034C265.611 384.848 265.857 384.709 266.123 384.625C266.39 384.542 266.671 384.516 266.948 384.55L278.294 385.888C278.775 385.942 279.219 386.172 279.541 386.533C279.862 386.895 280.039 387.362 280.038 387.846V459.538C280.038 460.578 279.226 461.446 278.178 461.504L265.528 462.258C265.146 462.28 264.765 462.191 264.433 462.001C264.101 461.811 263.831 461.528 263.658 461.186L238.918 412.948V458.898C238.918 459.181 238.857 459.46 238.74 459.717C238.623 459.974 238.451 460.203 238.238 460.388C238.026 460.573 237.777 460.711 237.508 460.792C237.239 460.873 236.956 460.896 236.678 460.858L225.331 459.303C224.857 459.238 224.423 459.003 224.109 458.642C223.795 458.281 223.623 457.818 223.625 457.34V386.975L210.377 390.134L220.873 456.629C220.915 456.894 220.887 457.166 220.794 457.418C220.701 457.67 220.544 457.893 220.339 458.067C220.134 458.245 219.886 458.366 219.62 458.42C219.354 458.473 219.079 458.456 218.821 458.371L206.104 454.232C205.826 454.143 205.579 453.978 205.391 453.756C205.202 453.534 205.079 453.263 205.035 452.975L202.636 437.907L185.996 432.484L182.859 444.894C182.805 445.102 182.708 445.298 182.577 445.469C182.445 445.64 182.28 445.782 182.092 445.888C181.902 445.99 181.693 446.054 181.478 446.074C181.264 446.095 181.047 446.072 180.841 446.008L168.674 442.058C168.292 441.934 167.972 441.67 167.778 441.319C167.585 440.967 167.532 440.555 167.632 440.166L178.51 397.729L167.971 400.245C167.25 400.413 166.494 400.354 165.808 400.074C165.122 399.795 164.54 399.309 164.142 398.684C163.878 398.268 163.704 397.801 163.63 397.314L157.154 354.818C157.083 354.352 157.106 353.877 157.22 353.421C157.335 352.964 157.539 352.534 157.82 352.157C158.102 351.78 158.456 351.462 158.861 351.223C159.267 350.983 159.716 350.827 160.182 350.762L266.409 336.138C267.946 335.929 269.408 335.345 270.666 334.437C271.924 333.529 272.939 332.326 273.622 330.933L280.355 317.264L282.889 312.122L284.588 308.669L287.116 303.523L288.82 300.077L291.346 294.934L292.026 293.558C287.085 293.246 279.831 296.978 276.138 297.807C270.527 299.508 262.036 296.638 259.99 304.039C256.708 306.473 251.293 307.171 247.433 305.298C242.862 298.283 234.881 304.13 229.595 304.219C221.18 305.499 214.493 298.482 206.643 302.49C196.494 308.606 184.378 297.167 175.835 306.822C170.391 307.235 165.283 304.656 159.431 305.063C150.855 305.037 143.453 307.735 135.462 309.166C126.433 315.108 114.023 312.24 103.622 311.473C98.3864 313.586 91.9048 312.999 86.2256 313.145V370.193C86.2256 373.563 84.4848 374.507 81.7704 370.598L70.9296 355.022V314.11C67.3872 312.272 64.4088 316.803 61.1288 318.206C57.848 319.761 54.9672 317.066 53.5808 314.374C53.5808 312.936 52.5784 311.648 51.1448 310.92C49.444 310.65 46.4808 311.626 43.8912 312.626C42.8058 308.643 41.8398 304.628 40.9944 300.587C43.1744 299.217 45.8352 297.371 45.0704 294.913C43.624 291.929 39.6792 292.214 38.6664 288.619C39.0952 285.048 40.1424 280.363 44.3912 279.517C47.5416 276.535 47.1368 270.535 46.1632 266.411C43.3168 262.694 39.4672 259.674 41.0264 254.414C41.0264 253.002 39.5848 251.277 41.0392 249.986C44.4808 248.584 47.896 251.833 50.3272 254.145C52.6072 254.613 53.1976 252.005 54.1576 250.722C55.0152 248.904 53.592 246.74 51.7504 246.301C50.184 246.711 48.7264 245.574 48.6632 244.142C49.2376 241.738 50.0368 239.452 52.7848 238.781C55.748 237.751 58.6368 238.894 61.0384 240.478C63.8768 243.053 63.5808 247.185 66.4512 249.341C70.1416 245.923 67.3312 238.923 71.6304 235.654C77.7624 232.955 83.7224 228.392 91.164 229.556C93.172 233.426 91.8256 240.572 98.2384 240.86C99.9944 239.306 100.134 235.294 103.421 236.878C106.298 238.05 106.114 243.023 109.534 242.32C112.989 235.91 106.434 230.614 107.274 224.498C111.874 221.485 117.973 224.082 121.24 227.656C122.703 230.643 116.962 232.342 120.93 234.804C126.653 232.662 129.218 239.244 134.263 237.96C137.509 231.99 144.487 231.278 150.323 232.866C158.905 232.751 163.881 245.606 172.849 240.51C177.74 237.225 187.24 241.794 188.726 233.974C188.142 230.558 190.573 227.392 193.475 226.461C198.298 224.99 202.837 234.997 206.863 227.455C214.371 230.471 223.222 230.347 231.482 231.67C244.187 238.402 260.898 237.455 275.238 237.899C287.706 244.523 305.43 235.079 319.7 237.347L326.374 223.781L270.464 103.357V215.324C270.463 216.266 270.089 217.17 269.423 217.836C268.757 218.503 267.853 218.878 266.911 218.879H212.543C211.929 218.879 211.326 218.72 210.792 218.418C210.258 218.116 209.811 217.681 209.495 217.154L173.801 157.622V215.324C173.8 216.266 173.426 217.17 172.76 217.836C172.094 218.503 171.191 218.878 170.249 218.879H121.782C121.315 218.88 120.853 218.788 120.421 218.61C119.99 218.431 119.598 218.169 119.268 217.838C118.601 217.171 118.227 216.267 118.226 215.324V86.2168C67.3 126.932 34.876 188.226 34.876 256.806C34.876 379.38 138.426 478.746 266.183 478.746C393.93 478.746 497.486 379.379 497.486 256.806C497.486 252.07 497.282 247.382 496.976 242.721V242.722ZM131.002 361.802C131.002 364.474 129.334 366.69 125.927 363.619L117.878 356.382C116.174 354.836 115.708 353.474 115.708 351.678V348.582C115.708 346.736 114.973 345.186 113.867 344.146L109.579 340.292C106.944 337.916 106.354 341.207 106.354 341.207V343.479C106.354 346.049 107.86 348.049 107.86 348.049L124.692 369.947C128.1 374.391 131.002 380.97 131.002 387.486V400.622C131.002 412.062 126.2 416.884 120.645 411.93L97.7728 391.33C93.104 387.122 91.0608 380.862 91.0608 377.756V365.836C91.0608 361.945 91.8232 360.733 93.336 362.188L103.326 371.318C104.846 372.547 106.354 375.069 106.354 376.5V379.134C106.354 381.25 106.198 383.698 107.743 384.883L112.066 388.576C113.658 390.01 115.709 390.222 115.709 387.896V385.002C115.709 383.224 115.285 381.764 114.156 380.304L94.164 354.196C92.3864 351.874 91.0616 349.551 91.0616 345.606V325.058C91.0616 320.115 97.0184 313.362 105.569 321.063L127.655 340.943C129.036 342.189 131.002 344.914 131.002 349.453V361.802ZM165.942 437.717C165.941 438.065 165.848 438.408 165.673 438.709C165.498 439.01 165.246 439.26 164.943 439.432C164.64 439.605 164.296 439.694 163.948 439.691C163.599 439.688 163.258 439.593 162.958 439.415L138.535 424.931C138.24 424.755 137.996 424.506 137.827 424.207C137.658 423.908 137.569 423.571 137.57 423.227V351.789C137.57 351.077 137.948 350.429 138.565 350.077C138.867 349.902 139.211 349.811 139.56 349.814C139.909 349.817 140.252 349.913 140.551 350.093L151.892 356.818C152.187 356.991 152.432 357.239 152.602 357.537C152.772 357.834 152.861 358.171 152.86 358.514V418.906L164.976 426.082C165.271 426.258 165.515 426.509 165.684 426.808C165.853 427.107 165.942 427.445 165.942 427.789V437.717ZM337.308 440.891C337.308 442.851 337.308 452.058 322.012 454.785L291.018 460.324C290.734 460.372 290.442 460.359 290.163 460.284C289.884 460.209 289.625 460.075 289.402 459.89C289.182 459.705 289.005 459.474 288.882 459.213C288.76 458.952 288.696 458.668 288.694 458.38V387.054C288.694 386.102 289.36 385.298 290.286 385.113L322.012 378.793C337.308 375.751 337.308 384.912 337.308 384.912V440.891ZM311.382 337.347V319.314C311.382 313.248 325.94 308.328 343.898 308.328C361.854 308.328 376.414 313.248 376.414 319.314V337.348C376.414 343.416 361.854 348.329 343.898 348.329C325.94 348.329 311.382 343.416 311.382 337.347ZM377.374 369.315C377.374 369.915 377.03 370.468 376.486 370.733L361.786 377.928C361.52 378.057 361.297 378.259 361.141 378.51C360.986 378.761 360.905 379.051 360.907 379.346V393.872C360.907 394.276 361.062 394.664 361.34 394.957C361.618 395.25 361.998 395.426 362.402 395.447C362.669 395.461 362.934 395.406 363.174 395.287L375.094 389.457C375.334 389.338 375.601 389.282 375.868 389.295C376.136 389.308 376.396 389.389 376.623 389.53C377.092 389.824 377.375 390.327 377.375 390.877V401.081C377.376 401.386 377.288 401.684 377.121 401.94C376.955 402.196 376.718 402.397 376.438 402.52L361.836 409.098C361.558 409.223 361.322 409.425 361.157 409.681C360.992 409.937 360.905 410.236 360.907 410.54V424.132C360.907 424.662 361.179 425.162 361.627 425.455C362.077 425.751 362.638 425.791 363.132 425.566L375.145 420.157C375.386 420.049 375.65 420.005 375.913 420.027C376.176 420.049 376.43 420.137 376.65 420.283C377.1 420.571 377.374 421.066 377.374 421.606V431.751C377.374 432.375 377.006 432.939 376.438 433.19L347.842 446.066C347.601 446.175 347.337 446.221 347.073 446.202C346.81 446.182 346.556 446.097 346.334 445.954C345.884 445.666 345.614 445.163 345.614 444.621V372.782C345.614 372.182 345.95 371.638 346.495 371.367L375.094 357.368C375.459 357.192 375.877 357.161 376.264 357.283C376.65 357.404 376.976 357.669 377.174 358.022C377.304 358.257 377.374 358.521 377.374 358.789V369.315ZM424.047 400.448L415.159 406.48C414.463 406.948 413.527 406.802 413.018 406.13L399.707 388.718L397.199 390.459V417.844C397.199 418.366 396.935 418.858 396.503 419.154L384.367 427.386C384.13 427.55 383.852 427.645 383.565 427.661C383.277 427.678 382.991 427.614 382.737 427.478C382.485 427.342 382.273 427.141 382.126 426.896C381.978 426.65 381.9 426.369 381.898 426.082V355.05C381.898 354.527 382.152 354.042 382.583 353.746L406.429 337.292C413.717 332.268 420.095 333.197 420.095 343.173V362.001C420.095 374.154 411.149 380.826 411.149 380.826L424.407 398.185C424.539 398.355 424.634 398.55 424.687 398.758C424.741 398.966 424.751 399.183 424.717 399.395C424.683 399.607 424.607 399.81 424.491 399.991C424.376 400.172 424.225 400.328 424.047 400.449V400.448ZM456.826 310.587C456.826 312.24 456.66 314.663 455.144 316.222L446.232 325.438C445.206 326.499 444.568 325.819 444.568 324.676V319.078C444.568 316.317 443.491 316.311 441.989 317.841L440.562 319.309C438.481 321.465 438.481 324.562 438.481 325.73V329.623C438.481 332.057 439.169 333.818 441.716 334.266L448.822 335.504C452.186 336.091 456.826 338.33 456.826 343.774C456.826 348.326 456.826 356.234 450.846 364.138L436.282 383.37C430.242 391.319 424.32 389.086 424.32 377.624V371.238C424.32 369.206 424.844 367.968 426.002 366.913L435.716 356.916C437.38 355.236 438.481 355.234 438.481 357.87V361.03C438.481 364.735 441.369 361.775 442.621 360.532C443.877 359.281 444.568 358.546 444.568 355.566V353.718C444.568 351.76 443.046 351.006 440.328 350.398L431.907 348.506C425.346 347.13 424.32 342.591 424.32 337.522V330.293C424.32 324.859 425.211 320.15 429.158 315.709L444.568 298.712C450.19 292.493 456.826 291.57 456.826 301.248V310.587Z" fill="#00468B"/>
<path d="M200.204 422.629L195.688 394.2L189.376 419.104L200.204 422.629ZM402.855 355.072L397.876 358.505C397.666 358.651 397.494 358.845 397.376 359.072C397.258 359.299 397.197 359.551 397.199 359.807V372.431C397.199 373.012 397.519 373.558 398.035 373.828C398.556 374.1 399.186 374.06 399.667 373.732L403.101 371.354C404.936 370.092 406.429 367.09 406.429 364.518V357.158C406.429 355.04 404.844 353.696 402.855 355.072ZM315.361 394.672L303.994 396.937V444.917L316.062 442.761C322.011 441.692 322.011 434.965 322.011 434.965V399.533C322.011 399.533 322.011 393.345 315.361 394.673V394.672ZM217.114 54.1844C217.114 53.7168 217.206 53.2539 217.385 52.8219C217.563 52.3899 217.826 51.9974 218.156 51.6668C218.487 51.3362 218.879 51.074 219.311 50.8951C219.743 50.7163 220.206 50.6243 220.674 50.6244H306.036C306.714 50.6244 307.379 50.8186 307.95 51.1841C308.521 51.5496 308.976 52.071 309.26 52.6868L358.444 158.638L399.42 75.4324C361.748 49.8988 315.808 34.8516 266.183 34.8516C235.542 34.8516 206.311 40.6244 179.543 51.0076L217.114 123.573V54.1844ZM379.507 209.802C389.299 206.821 398.297 201.548 406.479 194.176C413.783 191.774 422.285 190.369 430.137 191.512L430.869 192.536C430.319 195.523 426.571 197.808 423.994 199.361C418.447 199.472 411.73 198.507 407.434 202.752C401.436 209.012 393.879 213.257 388.271 219.376C388.71 221.363 390.979 222.947 389.696 225.196C385.416 228.216 378.572 225.934 376.298 232.042C374.403 243.756 359.73 234.682 353.986 242.258C351.185 245.936 342.871 250.401 336.587 252.066L330.569 264.872C337.563 267.348 347.225 271.067 353.645 270.062C368.629 265.263 374.403 242.46 391.919 243.812C401.778 245.541 410.473 242.556 417.338 236.003C424.05 233.455 424.573 244.277 430.755 243.14C431.292 239.185 431.639 234.304 436.173 232.629C438.321 231.785 441.771 232.074 442.051 234.915C437.313 241.616 447.591 243.785 446.133 250.079C446.961 252.772 450.093 252.772 452.263 252.097C455.844 245.251 463.265 244.661 470.071 244.277C475.404 236.465 488.039 243.756 490.967 232.777L495.898 231.113C488.927 173.143 458.722 121.985 414.396 86.4372L348.991 225.661C358.931 222.249 372.822 218.281 379.507 209.802Z" fill="#00468B"/>
<path d="M273.622 330.936C272.939 332.328 271.923 333.531 270.665 334.439C269.407 335.347 267.945 335.931 266.408 336.141L160.182 350.765C159.715 350.83 159.266 350.986 158.861 351.225C158.455 351.465 158.101 351.782 157.819 352.16C157.537 352.537 157.333 352.967 157.219 353.424C157.105 353.881 157.082 354.356 157.153 354.821L163.629 397.317C163.703 397.804 163.877 398.271 164.141 398.687C164.405 399.104 164.754 399.46 165.164 399.734C165.571 400.008 166.031 400.195 166.514 400.284C166.997 400.372 167.493 400.36 167.971 400.248L178.51 397.732L184.79 373.212C184.84 373.012 184.93 372.824 185.053 372.658C185.176 372.493 185.331 372.353 185.508 372.247C185.685 372.142 185.881 372.072 186.085 372.042C186.289 372.013 186.497 372.023 186.697 372.074L207.347 377.125C207.649 377.196 207.922 377.357 208.132 377.585C208.342 377.813 208.48 378.098 208.527 378.405L210.376 390.137L223.624 386.978V381.656C223.623 381.376 223.681 381.1 223.795 380.845C223.909 380.589 224.076 380.362 224.285 380.177C224.494 379.991 224.74 379.852 225.007 379.769C225.274 379.686 225.556 379.661 225.833 379.696L242.285 381.643C242.745 381.685 243.118 381.941 243.428 382.261L275.028 374.73C276.414 374.401 277.708 373.763 278.814 372.864C279.92 371.966 280.809 370.829 281.416 369.54L301.018 327.806L280.354 317.267L273.622 330.936ZM282.889 312.124L303.449 322.616L305.089 319.129L284.588 308.672L282.889 312.124ZM313.242 301.781L293.05 291.477L292.026 293.561L291.346 294.937L311.608 305.265L313.242 301.781ZM287.116 303.527L307.536 313.941L309.171 310.453L288.82 300.08L287.116 303.527ZM358.444 158.641L309.26 52.691C308.976 52.0754 308.521 51.554 307.95 51.1884C307.379 50.8227 306.715 50.6279 306.036 50.627H220.675C220.207 50.6268 219.744 50.7189 219.312 50.8977C218.88 51.0766 218.488 51.3388 218.157 51.6694C217.826 52 217.564 52.3924 217.385 52.8244C217.206 53.2564 217.114 53.7194 217.114 54.187V123.577L179.544 51.0118C157.153 59.7014 136.498 71.6142 118.226 86.2214V215.328C118.225 215.795 118.317 216.257 118.496 216.689C118.674 217.12 118.936 217.512 119.267 217.842C119.934 218.509 120.839 218.883 121.782 218.883H170.248C172.208 218.883 173.8 217.291 173.8 215.328V157.626L209.495 217.158C209.81 217.685 210.257 218.121 210.791 218.423C211.325 218.725 211.929 218.884 212.543 218.883H266.911C268.868 218.883 270.463 217.291 270.463 215.328V103.361L326.374 223.785L319.7 237.349L295.579 286.334L315.684 296.593L318.361 290.885L330.569 264.875L336.588 252.069L348.992 225.665L414.396 86.4406C409.569 82.5702 404.567 78.9222 399.42 75.4358L358.444 158.641ZM343.896 330.3C361.855 330.3 376.413 325.382 376.413 319.316C376.413 313.249 361.855 308.332 343.896 308.332C325.938 308.332 311.38 313.249 311.38 319.316C311.38 325.382 325.938 330.3 343.896 330.3Z" fill="white"/>
</g>
<defs>
<clipPath id="clip0_2_14966">
<rect width="530.717" height="512" fill="white" transform="translate(0.821289 0.800781)"/>
</clipPath>
</defs>
</svg>
