<svg width="1024" height="165" viewBox="0 0 1024 165" fill="none" xmlns="http://www.w3.org/2000/svg">
<g clip-path="url(#clip0_795_3997)">
<path fill-rule="evenodd" clip-rule="evenodd" d="M894.819 115.681V72.2886H870.926V120.294C870.926 136.536 887.74 149.718 908.486 149.718C929.236 149.718 946.045 136.536 946.045 120.294V72.2886H922.33V115.681C922.33 122.898 916.164 128.762 908.582 128.762C900.995 128.762 894.833 122.902 894.833 115.681H894.819Z" fill="#D2003C"/>
<path d="M1024 20.7109H999.933V147.014H1024V20.7109ZM983.33 20.7109H959.264V147.014H983.33V20.7109Z" fill="#D2003C"/>
<path fill-rule="evenodd" clip-rule="evenodd" d="M519.007 47.2122H505.925V147.014H480.324V26.5073H524.332C544.371 26.5073 560.599 42.4391 560.599 62.0935C560.599 78.8291 548.824 92.8608 532.974 96.6702L568.341 147.014H538.159L512.576 107.559V78.7378H518.518C527.968 78.7378 535.633 71.6717 535.633 62.9659C535.633 54.2555 528.457 47.194 518.993 47.194L519.007 47.2122Z" fill="#D2003C"/>
<path d="M643.967 114.557C644.127 112.912 644.204 111.222 644.186 109.5C644.552 83.4606 627.313 69.1594 605.348 69.1594C583.382 69.1594 565.573 87.1877 565.573 109.423C565.573 131.653 583.382 149.718 605.348 149.718C622.111 149.718 635.197 142.131 641.93 130.246L622.399 121.239C619.9 126.615 614.086 130.406 607.321 130.388C597.953 130.374 591.033 123.5 590.951 115.393V114.57H643.953L643.967 114.557ZM590.873 100.717C590.941 96.8641 592.519 93.1921 595.268 90.4914C598.017 87.7908 601.716 86.2775 605.569 86.2775C609.423 86.2775 613.122 87.7908 615.871 90.4914C618.62 93.1921 620.198 96.8641 620.266 100.717H590.855H590.873ZM739.754 147.014L739.722 20.7109H715.737V80.4734C709.352 74.1518 700.852 70.3287 691.561 70.3287C671.683 70.3287 655.578 87.9459 655.578 109.688C655.578 131.429 671.683 149.051 691.561 149.051C700.948 149.051 709.448 145.055 715.847 138.605V147.01H739.754V147.014ZM698.385 128.561C688.638 128.561 680.718 119.896 680.718 109.231C680.718 98.5656 688.62 89.91 698.385 89.91C708.151 89.91 716.053 98.5656 716.053 109.231C716.053 119.896 708.151 128.556 698.385 128.556V128.561ZM841.474 81.4189C848.065 75.2709 852.094 67.0401 852.094 58.0008C852.094 49.8157 848.933 42.2791 843.42 36.3687C837.683 30.0471 827.525 26.5072 813.79 26.5072H772.659V147.014H825.785C846.138 146.681 862.54 131.306 862.54 112.456C862.54 98.7392 857.703 88.9554 841.493 81.4189H841.474ZM821.331 126.09H798.306V47.2076H814.361C821.409 47.2076 827.127 53.657 827.127 60.7185C827.129 62.3956 826.799 64.0564 826.158 65.6061C825.517 67.1558 824.577 68.564 823.391 69.75C822.206 70.9361 820.798 71.8769 819.248 72.5185C817.699 73.1601 816.038 73.4901 814.361 73.4895H806.002V95.1536H821.331C829.877 95.1536 836.34 102.042 836.34 110.592C836.039 119.421 830.622 125.524 821.331 126.09Z" fill="#D2003C"/>
<path d="M215.896 164.791C261.298 164.791 298.113 127.981 298.113 82.5746C298.113 37.1682 261.298 0.35791 215.896 0.35791C170.49 0.35791 133.68 37.1682 133.68 82.5746C133.68 127.981 170.49 164.791 215.896 164.791Z" fill="#FFCC00"/>
<path d="M210.032 120.719C205.387 118.097 204.468 112.931 202.038 109.77C201.043 108.519 199.398 107.13 198.955 105.993C194.767 95.2771 193.346 89.257 191.876 78.7972C191.117 73.4394 187.564 68.9221 182.38 62.5822C180.119 59.8188 176.898 55.2513 174.112 52.5518C164.762 44.6681 159.706 40.2878 153.467 36.0856C152.248 35.2587 150.956 34.5448 149.607 33.9526H149.575C149.551 33.9487 149.529 33.9376 149.511 33.9206C147.428 33.0071 145.546 32.7513 142.984 32.6097C142.643 32.5899 142.302 32.5792 141.961 32.5777C137.311 32.5777 132.89 34.2677 128.432 37.7117C125.193 39.831 121.48 41.0141 117.881 42.1514C113.34 43.5902 108.631 45.0929 104.794 48.441C104.109 48.9343 103.483 49.6285 102.867 50.2771C102.026 51.177 101.428 52.2047 100.149 52.6157C99.0392 52.867 98.249 52.867 97.3492 52.9446C95.9311 53.0568 94.5215 53.2581 93.1287 53.5475C88.4058 54.6666 84.7883 57.5762 80.9789 60.6593C80.5541 61.0064 80.1111 61.3536 79.6817 61.7007C77.2152 63.6602 72.9673 65.4461 70.5648 65.5238C63.8504 65.7293 59.0955 67.3097 54.1488 70.9912C49.0423 74.8965 43.5749 78.9251 37.5228 81.4053C36.1327 81.9448 34.6564 82.228 33.1653 82.2412C31.5849 82.2412 29.324 81.894 27.5243 80.2223C25.2314 78.1029 24.4732 74.0241 25.848 71.2926C27.9034 67.2458 32.0874 63.9434 35.5039 61.5089C39.9117 58.1745 44.1778 53.7988 42.2822 46.5454C40.2405 39.9087 32.1376 37.7756 26.7798 36.3551C25.2634 35.9577 23.9479 35.6106 23.176 35.2497C21.486 34.4596 20.2984 33.6511 19.1474 32.8746C18.029 32.0646 16.827 31.377 15.5618 30.8237C15.3482 30.7444 15.1228 30.7011 14.8949 30.6959C14.1367 30.6959 13.5384 31.0613 13.0816 31.7875C11.1495 35.1538 10.5831 38.5841 11.3916 41.9321C12.6385 47.4315 18.0603 52.4376 23.715 53.3237C24.2813 53.4653 24.9299 53.5156 25.5648 53.5795C26.1495 53.6252 26.7478 53.6891 27.3005 53.7988C23.549 56.6978 20.1258 59.9985 17.0919 63.6419C12.9537 68.511 11.8164 76.5545 14.4519 82.3371C16.7311 88.1197 22.5137 92.8289 28.5201 93.7789C29.7031 93.9982 30.9866 94.1078 32.4345 94.1078C34.5219 94.1078 36.623 93.8885 38.6327 93.6693C39.1215 93.6236 39.6285 93.5551 40.0989 93.5094C40.3045 98.0907 40.4643 100.936 43.0085 107.431C43.1638 107.843 43.0542 108.537 42.5197 109.012C42.0767 109.405 38.3769 110.939 37.3173 111.159C36.8691 111.233 36.4149 111.265 35.9607 111.255H34.4442C33.9418 111.255 33.2886 111.255 32.6583 111.346C30.3334 111.679 29.1824 113.639 28.3602 115.539C27.8578 116.69 27.4924 117.704 27.1726 118.572C26.3824 120.737 25.8937 122.08 24.3773 122.902C24.3773 122.902 21.2165 120.088 20.6775 119.705C19.9467 119.272 19.1148 119.041 18.2658 119.033C16.2743 119.033 14.5067 120.298 12.7984 121.513C12.2813 121.9 11.7479 122.264 11.1997 122.605C9.76552 123.505 8.68757 125.04 8.37697 126.634C6.05206 127.803 3.7774 129.21 2.71772 131.535C2.21528 132.53 2.11936 133.745 2.02344 134.915C1.98648 135.47 1.92246 136.023 1.83161 136.573C1.65134 136.944 1.44529 137.303 1.21498 137.646C0.570949 138.532 0 139.843 0 140.652C0 142.355 0.630328 143.004 1.58039 143.812C2.73599 144.635 5.8785 145.594 8.12118 146.151C8.2851 146.194 8.45405 146.216 8.62362 146.215C9.30876 146.215 9.85687 145.863 10.3821 145.53C10.6334 145.374 10.8846 145.201 11.1723 145.073C13.0222 145.516 15.7536 146.087 18.4074 146.087C19.7823 146.087 21.0338 145.927 22.1528 145.63C24.8569 144.899 27.1635 141.236 28.4104 139.258C28.7119 138.783 29.0134 138.313 29.091 138.249C29.1702 138.215 29.2561 138.199 29.3422 138.203C29.7533 138.203 30.4202 138.391 31.1282 138.596C31.9503 138.834 32.9004 139.099 33.7545 139.181C36.8011 139.45 39.7107 137.555 41.5925 136.148C42.3644 135.577 43.2003 134.773 44.0225 134.001C44.936 133.129 45.8724 132.229 46.6808 131.69C47.7482 131.258 48.8912 131.043 50.0426 131.06C50.4537 131.06 50.9104 131.073 51.4037 131.124C53.5962 131.58 56.4737 132.119 59.2737 132.119C62.0691 132.119 64.1884 131.644 66.0337 130.681L67.742 129.794C69.5919 128.849 71.4874 127.885 73.2871 126.903C76.763 125.021 78.1561 121.924 79.2935 119.444L79.5767 118.814C80.2435 117.375 81.253 114.767 81.5225 114.118C82.0569 114.196 82.6141 114.228 83.1988 114.228C85.076 114.228 86.9259 113.835 88.7118 113.452C90.4658 113.077 92.2974 112.698 94.129 112.698C95.0973 112.698 95.9789 112.789 96.865 113.013C100.154 113.662 104.484 114.406 108.891 114.406C111.175 114.427 113.454 114.188 115.683 113.694C116.19 114.182 116.761 114.607 117.314 115.018C117.862 115.429 118.369 115.808 118.844 116.27C118.338 116.361 117.827 116.43 117.314 116.475C115.779 116.649 114.185 116.822 113.016 118.074C111.753 117.557 110.397 117.308 109.033 117.343C107.487 117.379 105.945 117.527 104.42 117.786C103.803 117.878 103.2 117.96 102.616 118.037C100.263 118.321 98.6509 119.225 97.8151 120.755C97.3081 121.751 96.9289 122.797 97.7511 124.501L102.378 132.179C102.949 133.174 103.895 133.983 104.543 134.029C104.89 134.061 105.352 134.029 105.854 133.983C106.251 133.951 106.662 133.919 107.055 133.919C107.8 133.919 108.243 134.047 108.403 134.298C108.636 134.663 108.86 135.011 109.079 135.371C110.029 136.86 111.006 138.409 112.491 139.72C114.738 141.679 118.356 142.497 121.754 141.711C123.033 141.236 124.312 140.775 125.591 140.318C129.592 138.879 133.73 137.395 137.74 135.691L144.395 134.741C146.592 134.312 148.269 131.343 148.821 130.11L148.963 129.826C148.963 129.826 150.973 125.843 151.585 123.427C151.617 123.838 151.617 124.386 151.617 125.149C151.617 128.908 152.284 133.668 158.697 133.417C162.268 133.27 167.01 131.156 170.39 130.539C173.929 129.936 178.543 131.439 181.973 129.762C185.307 128.406 187.221 125.811 187.756 126.35C189.967 128.51 192.595 130.197 195.479 131.309C198.363 132.421 201.443 132.935 204.532 132.818C209.324 132.663 209.844 128.822 206.496 127.081C213.033 127.839 214.965 124.304 213.745 123.162C212.969 122.436 212.512 122.075 210.032 120.682V120.719ZM151.297 117.147C148.831 113.812 147.223 111.446 146.985 108.395C150.128 108.03 153.005 106.988 157.683 106.737C156.463 110.355 152.279 112.077 151.283 117.133L151.297 117.147ZM429.24 138.372C429.016 137.929 428.797 137.505 428.669 137.185C428.463 136.477 428.431 135.732 428.386 134.942C428.34 134.074 428.294 133.17 428.02 132.32C427.28 129.854 424.64 128.319 422.507 127.451C422.429 126.519 422.256 125.51 421.388 124.893C417.702 122.267 415.775 120.783 414.733 119.992C414.116 119.517 413.897 119.344 413.769 119.298C413.333 119.095 412.858 118.986 412.376 118.978C410.75 118.978 409.453 120.276 408.192 121.509L407.324 122.363C407.292 122.395 407.279 122.395 407.229 122.395C406.831 122.395 406.009 121.18 405.803 120.627C405.438 119.645 405.159 118.713 404.872 117.814C404.4 116.138 403.792 114.503 403.054 112.926C401.665 110.163 398.696 110.117 396.07 110.072H395.33C394.129 110.072 392.544 109.898 392.261 109.103C391.977 108.318 392.562 106.829 392.927 105.741C393.179 104.983 393.416 104.271 393.494 103.576C394.161 100.607 394.206 96.6519 393.622 93.4455C394.284 93.4638 394.946 93.5368 395.645 93.619C396.243 93.7013 396.86 93.7606 397.509 93.7926H398.08C402.031 93.7926 405.365 93.0161 408.27 91.4403C414.13 87.9141 417.72 82.2275 417.862 76.1754C417.656 73.0146 416.912 70.4065 415.304 67.1818C413.139 62.9157 409.535 58.7135 404.273 54.3514C407.32 53.7211 409.85 52.9812 412.189 51.5058C416.962 48.4729 419.077 42.9736 418.145 36.008C417.894 34.3636 417.259 31.518 415.87 30.7781C415.671 30.6714 415.448 30.6164 415.222 30.6182C414.212 30.6182 413.23 31.7099 412.363 32.6736C412.043 33.039 411.732 33.3679 411.463 33.6054C409.837 35.0579 407.923 35.437 405.918 35.8344C404.858 36.0399 403.771 36.2592 402.739 36.6383C397.934 38.205 389.767 41.7723 389.036 48.2674C388.328 54.6849 392.895 59.0012 397.321 63.1715C398.788 64.56 400.199 65.8709 401.396 67.264C403.954 70.2193 406.137 73.1562 405.566 76.4769C405.365 77.6142 403.753 79.3545 402.218 80.0487C401.049 80.4598 399.834 80.6608 398.6 80.6608C394.508 80.6608 390.571 78.4227 387.113 76.4266L386.62 76.1434C378.594 70.5801 370.3 64.8158 360.013 63.7196C356.094 62.9659 352.696 60.5953 349.394 58.2841C348.636 57.7498 347.871 57.2245 347.101 56.7083C343.64 54.6769 339.829 53.3149 335.864 52.6934C333.809 52.4239 332.183 51.081 330.461 49.6788C329.57 48.9058 328.62 48.2033 327.62 47.5777C323.587 44.9729 319.089 43.1694 314.374 42.2656C313.908 42.1259 313.435 42.0101 312.958 41.9184C311.725 41.6627 310.441 41.3795 309.555 40.4477C308.199 38.849 306.33 36.7936 304.074 35.1858C301.055 33.1624 296.364 31.011 292.271 31.011C291.444 31.0011 290.619 31.1025 289.819 31.3125C287.544 31.8834 285.776 33.208 283.908 34.6149L283.2 35.1356C279.455 38.0588 274.476 42.0783 270.557 44.8737C258.864 53.2004 254.47 56.8499 248.674 63.1897C233.756 79.4778 238.291 103.86 225.397 117.987C222.063 121.65 221.131 122.125 219.916 123.139C218.409 124.4 218.062 131.119 227.827 127.83C223.374 131.64 226.183 133.407 229.106 133.471C234.263 133.581 239.95 131.795 245.527 125.857C249.4 131.43 256.146 128.858 259.654 129.146C262.943 129.411 268.995 132.983 272.516 132.777C277.888 132.444 279.866 127.072 279.327 124.085C280.195 124.085 280.432 123.879 280.67 123.455C281.305 126.565 281.729 128.698 282.332 130.26C282.378 130.374 282.456 130.516 282.533 130.671V130.708C282.917 131.384 283.707 132.887 284.497 133.613C285.411 134.718 286.786 134.864 287.877 134.864C288.32 134.864 288.763 134.832 289.188 134.819C289.677 134.782 290.152 134.769 290.609 134.769C291.017 135.072 291.407 135.398 291.778 135.746C292.646 136.504 293.532 137.299 294.624 137.596C299.712 138.907 303.932 140.076 308.025 141.515C308.861 141.784 310.14 142.131 311.419 142.131C311.83 142.131 312.241 142.1 312.62 142.022C316.512 141.181 319.974 137.852 320.823 134.074C320.887 133.49 321.312 133.439 322.038 133.407C322.564 133.394 323.162 133.362 323.495 132.983C325.61 131.293 326.907 128.968 328.173 126.739C328.438 126.268 328.707 125.779 328.995 125.304C329.322 124.742 329.508 124.108 329.535 123.458C329.562 122.808 329.43 122.16 329.15 121.573C328.739 120.751 327.999 120.152 326.921 119.791C324.898 119.22 322.641 119.17 320.695 119.17H318.549C317.535 119.17 316.365 119.17 315.228 119.061L314.406 118.161C313.808 117.622 313.049 117.498 312.305 117.371L311.77 117.279L313.616 115.836C314.36 115.854 315.086 115.868 315.813 115.868C320.111 115.868 324.062 115.489 327.588 114.749C330.724 113.994 333.936 113.596 337.162 113.561C337.591 113.561 338.029 113.561 338.473 113.593C338.993 113.625 339.532 113.657 340.053 113.703C341.98 113.831 343.958 113.977 345.931 113.977C348.54 113.977 350.659 113.735 352.554 113.232C352.792 114.178 352.979 115.11 353.153 116.028C353.847 119.472 354.496 122.728 357.149 125.556C358.748 127.593 360.831 128.762 362.859 129.918C363.9 130.502 364.96 131.165 365.983 131.845C367.344 132.54 368.436 132.649 369.998 132.649C372.177 132.649 374.958 131.717 376.539 131.717C383.13 131.717 388.218 135.289 393.731 139.601C394.713 140.25 395.915 140.583 397.289 140.583C398.961 140.583 400.843 140.081 402.487 139.19L402.615 139.382C403.62 140.802 404.684 142.291 406.105 143.447C408.142 145.292 410.782 145.548 413.093 145.548C413.865 145.548 414.669 145.512 415.446 145.48C416.551 145.434 417.67 145.388 418.748 145.434C419.173 146.032 419.995 146.494 420.644 146.462C421.292 146.43 428.418 144.105 428.797 143.981C429.176 143.853 429.71 143.538 429.71 143.538C431.437 142.652 430.185 140.158 429.272 138.322L429.24 138.372ZM281.679 117.38C279.957 113.954 278.61 110.871 276.477 107.651C281.364 108.802 286.936 108.244 286.936 108.244C285.361 110.492 283.556 113.698 281.679 117.38Z" fill="#FFCC00"/>
<path d="M312.067 120.769C311.811 120.449 311.309 120.403 311.021 120.403C310.898 120.403 310.784 120.403 310.656 120.422C309.774 120.531 308.966 120.577 308.13 120.577C307.699 120.575 307.268 120.565 306.837 120.545C306.486 120.545 306.17 120.513 305.855 120.513C305.334 120.513 304.91 120.545 304.485 120.627H304.384L304.339 120.718C304.275 120.846 302.649 123.687 302.868 125.492C303.105 127.437 305.079 127.83 306.581 128.132C307.12 128.241 307.737 128.351 308.367 128.351C309.441 128.351 310.153 127.986 310.514 127.278C311.302 125.358 311.864 123.353 312.19 121.303C312.217 121.206 312.22 121.103 312.199 121.005C312.177 120.906 312.132 120.814 312.067 120.737V120.769ZM419.419 127.182C418.488 125.839 416.861 124.761 415.564 123.893C415.047 123.572 414.55 123.219 414.075 122.838L413.81 122.646C413.515 122.393 413.139 122.253 412.751 122.253C411.28 122.253 409.686 124.021 409.654 124.619C409.608 125.505 410.869 127.086 412.513 129.05L412.86 129.475C413.696 130.466 414.596 131.005 415.546 131.069C416.51 131.069 417.268 130.749 418.076 129.995C418.675 129.443 420.004 128.049 419.401 127.195L419.419 127.182ZM426.298 138.623C426.068 138.179 425.879 137.714 425.732 137.235C425.592 136.566 425.485 135.891 425.412 135.211C425.275 134.134 425.147 133.11 424.814 132.32C424.577 131.831 424.21 131.417 423.753 131.124C423.296 130.83 422.767 130.669 422.224 130.658C421.849 130.653 421.479 130.741 421.146 130.913C419.538 131.717 418.57 132.59 418.839 134.403C419.725 137.043 420.164 138.957 420.753 141.56C420.817 141.958 421.087 143.269 421.712 143.269C421.763 143.269 421.813 143.269 421.858 143.255L426.49 141.739C426.597 141.706 426.697 141.651 426.781 141.577C426.865 141.503 426.933 141.412 426.979 141.309C427.248 140.693 426.759 139.651 426.284 138.637L426.298 138.623Z" fill="#D2003C"/>
<path d="M418.113 142.319C417.747 139.474 416.957 136.699 415.77 134.088L415.711 133.965H415.569C412.879 134.134 411.221 131.955 409.608 129.868C409.074 129.173 408.581 128.525 408.046 127.958C407.248 127.065 406.387 126.23 405.47 125.46C404.52 124.638 403.716 123.911 403.401 123.267C403.022 122.473 402.611 120.956 402.213 119.485C401.93 118.444 401.665 117.448 401.41 116.768C401.364 116.631 401.3 116.485 401.25 116.343C400.761 115.046 400.176 113.433 398.5 113.168C397.664 113.027 396.746 112.995 395.878 112.963C393.457 112.867 391.027 112.442 389.78 110.702C388.625 109.103 389.095 107.619 389.749 106.043C390.032 105.344 390.237 104.764 390.397 104.097C391.265 101.174 391.566 97.5382 390.9 94.994C390.79 94.584 390.663 94.1786 390.52 93.779C390.173 92.7193 389.762 91.107 390.018 90.6182C390.283 90.1295 390.552 90.0473 391.041 90.0473C391.47 90.0473 391.959 90.1935 392.416 90.3213C392.749 90.4127 393.001 90.4584 393.32 90.5406C394.517 90.8238 396.321 91.1527 397.966 91.1527C400.683 91.1527 403.538 90.568 406.005 89.5083C410.668 87.2519 415.268 82.1499 415.03 75.8284C414.414 69.4292 410.463 63.2492 402.926 56.914C402.752 56.7541 402.547 56.5942 402.355 56.4389C401.378 55.6305 400.19 54.6073 400.163 53.7029C400.131 52.8031 402.483 52.2504 403.954 51.9033C404.301 51.8257 404.602 51.7617 404.867 51.6841L405.246 51.5881C407.128 51.0994 409.056 50.5924 410.654 49.487C416.026 45.8649 415.834 39.4977 415.222 35.9898C415.19 35.8984 415.172 35.7843 415.14 35.6609C415.048 35.2042 414.921 34.6332 414.491 34.6332C414.336 34.6455 414.191 34.7118 414.08 34.8205C413.925 34.9621 413.765 35.122 413.591 35.2773C412.975 35.8665 412.294 36.5288 411.504 36.9673C409.8 37.9813 407.745 38.4106 405.772 38.8217C404.506 39.0866 403.196 39.3561 401.981 39.7809C396.636 41.6308 393.32 44.3348 392.133 47.8244C391.516 49.6423 391.85 51.9353 393.033 54.146C394.787 56.914 397.299 59.3302 399.747 61.6688C403.607 65.3686 407.585 69.1734 408.503 74.3576C409.005 77.3722 407.777 79.9209 404.758 82.1179C403.177 83.0634 401.154 83.5704 398.911 83.5704C396.068 83.5493 393.271 82.8443 390.758 81.515C387.629 79.9529 384.61 77.9295 381.687 75.97C377.293 73.033 372.743 69.9955 367.705 68.3878C365.522 67.3875 363.092 66.8987 360.749 66.4237C357.415 65.7477 353.971 65.0534 351.203 62.8838C350.252 62.2578 349.32 61.6044 348.407 60.9243C345.895 59.111 343.305 57.2246 340.368 56.4846C339.272 56.1055 338.203 55.9639 337.157 55.8086C335.545 55.5711 334.047 55.3655 332.654 54.3698L330.758 52.995C328.419 51.2867 326.003 49.519 323.587 48.2995C319.43 46.2303 315.004 45.157 310.058 44.0836C308.477 43.7045 307.5 42.5169 306.454 41.2517C305.76 40.4021 305.033 39.5297 304.115 38.9131C300.31 35.8984 296.848 33.875 292.39 33.875C291.979 33.875 291.554 33.8887 291.143 33.9207C288.805 34.0805 286.53 35.8482 285.014 37.1774C280.574 41.0598 275.787 44.5221 271.174 47.8747C264.277 52.8534 257.169 58.001 251.085 64.656C245.097 70.836 242.932 78.5415 240.813 86.0187C240.498 87.124 240.201 88.2157 239.867 89.321C239.296 91.3628 238.776 93.4639 238.269 95.4873C235.524 106.495 232.696 117.499 221.693 124.638C220.967 125.113 221.223 126.031 221.899 126.282C222.186 126.392 226.8 127.94 231.399 123.327C234.176 119.883 235.725 116.704 239.045 113.15C239.155 113.041 239.534 112.739 239.849 112.771C240.073 112.881 240.137 112.995 240.073 113.388C239.644 114.813 238.776 116.06 237.926 117.275C237.058 118.522 236.168 119.805 235.725 121.271C234.67 124.432 231.728 126.995 229.12 129.237C229.12 129.237 228.709 129.507 228.476 129.808C228.238 130.105 228.238 130.233 228.238 130.233C228.156 130.927 228.709 131.357 229.832 131.402C235.999 131.402 240.388 127.027 244.622 122.774C244.715 122.681 244.827 122.609 244.95 122.563C245.072 122.516 245.204 122.497 245.335 122.505C245.567 122.498 245.798 122.535 246.015 122.614C246.299 122.774 246.947 123.409 247.45 123.848C248.843 125.081 250.263 126.36 252.127 126.739H252.191C254.438 126.424 256.457 126.172 258.544 126.172C259.147 126.172 259.714 126.186 260.221 126.236C262.463 126.912 264.724 127.767 266.889 128.575C268.419 129.16 270 129.744 271.594 130.279H271.662C273.718 130.201 275.18 128.292 276.257 126.597C276.76 125.396 276.527 124.227 276.289 123.089C276.148 122.381 276.006 121.719 276.052 121.066C276.431 120.879 276.952 120.911 277.509 120.988C277.998 121.066 278.706 120.988 278.943 120.956C279.482 120.879 280.049 120.262 279.893 119.458C279.482 117.403 278.454 116.137 277.427 114.557C276.527 113.214 275.673 111.953 275.248 110.528C274.567 108.647 273.129 107.084 271.74 105.568C270.128 103.814 268.611 102.151 268.15 100.05C268.15 100.05 268.013 99.6073 268.168 99.4337C268.324 99.2601 268.753 99.4657 268.753 99.4657C269.493 100.005 270.237 100.608 270.945 101.188C273.289 103.088 275.705 105.061 278.646 105.504C281.378 105.774 284.379 106.121 287.302 105.869C288.078 105.742 288.471 105.061 288.284 104.412C287.115 101.946 285.913 99.2967 285.187 96.4008C284.571 94.2221 283.196 88.4852 284.602 84.1551C284.744 83.7303 285.027 83.5842 285.283 83.5842C285.31 83.5842 285.342 83.5842 285.393 83.6024C285.868 83.712 286.183 84.283 286.247 84.7215L286.292 85.2924C286.704 91.1846 287.096 96.748 290.7 101.489C291.664 103.024 293.039 103.828 294.368 104.618C295.282 105.157 296.341 105.646 297.008 106.5C297.766 107.459 297.89 109.103 297.373 110.099L292.943 116.631C291.901 118.115 290.887 119.709 290.527 121.335C290.198 122.98 290.339 124.578 290.481 126.127L290.513 126.501C290.372 126.412 290.257 126.288 290.18 126.14C288.398 122.916 288.033 120.184 288.946 118.083C289.531 116.722 293.135 111.62 294.176 109.944C294.51 109.405 294.779 108.87 294.496 108.505C294.144 108.048 291.445 106.893 290.732 106.893C290.687 106.893 290.641 106.893 290.591 106.911C289.96 107.084 289.549 107.669 289.184 108.19C289.102 108.307 289.018 108.422 288.933 108.537L283.479 118.43L283.351 118.796C283.036 119.787 282.757 120.641 283.036 121.778C283.337 123.263 283.794 124.862 284.141 126.026L284.429 126.995C284.918 128.717 285.374 130.329 286.133 131.229C286.36 131.503 286.649 131.721 286.976 131.863C287.303 132.006 287.658 132.07 288.014 132.051C288.426 132.051 288.85 131.987 289.261 131.923C289.947 131.813 290.687 131.736 291.239 131.877C292.061 132.083 292.628 132.7 293.231 133.33C293.829 133.978 294.446 134.641 295.364 134.91C297.054 135.481 298.821 135.938 300.53 136.381C302.804 136.979 305.161 137.596 307.404 138.464C308.669 138.875 310.026 139.254 311.337 139.254C312.794 139.254 313.693 138.843 314.959 137.82C316.726 136.381 317.311 134.956 317.754 132.905C318.101 131.023 318.732 130.895 320.093 130.818C320.755 130.786 320.851 130.818 321.499 130.598C322.18 130.375 324.153 127.958 325.181 125.985C325.464 125.446 325.766 124.953 326.049 124.528C326.321 124.169 326.472 123.732 326.478 123.281C326.478 122.299 325.656 122.002 325.135 121.984H324.784C324.784 121.984 318.969 121.938 317.375 121.984C314.991 122.112 313.949 124.405 313.109 126.442C312.775 127.232 312.474 127.958 312.081 128.607C311.451 129.744 310.218 130.439 308.701 130.407C308.258 130.407 307.276 130.137 306.774 130.014C303.626 129.237 300.388 128.447 299.059 125.318C298.936 124.784 298.73 123.674 299.516 122.742C301.192 120.801 303.407 118.334 305.682 116.567C308.843 115.9 312.003 113.561 313.739 110.624C314.105 110.117 314.292 109.519 314.484 108.948C314.767 108.062 315.032 107.226 315.84 106.705C316.347 106.45 316.758 106.532 316.868 106.975C317.169 108.619 316.553 110.195 315.936 111.725C315.798 112.067 315.667 112.411 315.543 112.757L315.447 113.009L315.717 113.041C316.585 113.118 317.485 113.168 318.384 113.168C321.627 113.168 324.706 112.616 327.693 112.077C330.648 111.538 333.713 110.985 336.874 110.985C337.207 110.985 337.555 110.985 337.902 111.003C339.309 111.003 340.665 111.127 341.994 111.241C343.291 111.351 344.634 111.478 345.977 111.478C346.448 111.478 346.891 111.478 347.334 111.433C351.381 111.241 354.322 109.405 355.204 106.5C356.04 104.02 355.948 99.7397 354.934 93.7608C354.889 93.4776 354.857 93.2903 354.857 93.2583V93.1487C354.857 92.9249 354.857 92.6919 355.158 92.5458C355.537 92.3402 355.935 92.5458 356.117 93.0345C357.652 97.3326 358.538 102.279 359.013 105.678C359.534 108.98 360.909 112.328 363.247 115.9C366.139 120.216 370.912 122.696 376.329 122.696C377.594 122.696 378.859 122.459 380.106 122.299C380.974 122.189 381.308 122.235 381.892 122.235C388.785 122.235 394.773 125.222 399.245 130.868C399.245 130.868 399.322 130.978 399.322 131.133C399.322 131.37 398.975 131.608 398.674 131.48L398.089 131.023C394.206 128.009 390.187 124.893 385.149 124.277C384.209 124.115 383.257 124.035 382.303 124.039C380.876 124.064 379.452 124.169 378.037 124.355C376.649 124.514 375.351 124.674 374.009 124.674C372.446 124.708 370.893 124.429 369.441 123.852C363.64 121.934 358.904 115.265 357.383 111.127C357.327 111.011 357.241 110.913 357.132 110.843C357.024 110.774 356.899 110.736 356.77 110.734C356.611 110.734 356.451 110.78 356.277 110.894C355.601 111.319 355.487 111.538 355.396 111.949C355.3 112.296 355.866 115.27 356.122 116.548C356.88 119.709 358.017 124.482 362.156 126.25C362.663 126.552 363.183 126.885 363.69 127.214C365.759 128.538 367.893 129.918 370.341 129.918C370.925 129.918 371.51 129.84 372.076 129.68C373.552 129.361 375.05 129.192 376.566 129.192C381.34 129.192 386.19 130.818 390.269 133.787C390.945 134.184 391.594 134.718 392.21 135.244C393.097 135.984 393.996 136.742 395.074 137.139C395.75 137.409 396.477 137.55 397.253 137.55C399.103 137.55 399.573 136.998 400.889 136.349C401.371 136.112 401.9 135.983 402.437 135.97C403.922 135.97 404.744 137.121 405.785 138.592C406.416 139.478 407.128 140.474 408.092 141.341C409.435 142.652 411.298 142.812 412.769 142.812C413.578 142.812 414.382 142.748 415.172 142.703C415.93 142.657 416.848 142.62 417.337 142.575C417.812 142.511 418.081 142.447 418.081 142.447V142.259L418.113 142.319ZM261.102 120.28C260.837 120.769 260.189 121.052 259.335 121.052C258.626 121.062 257.929 120.87 257.325 120.499C256.219 119.709 255.575 118.398 255.479 116.676C255.461 116.279 255.434 115.868 255.968 115.475C256.238 115.315 256.398 115.315 256.713 115.315C257.768 115.315 259.462 115.996 260.362 117.087C260.426 117.165 261.833 119.029 261.107 120.294L261.102 120.28ZM262.623 95.9578C262.226 96.4648 261.627 96.8439 261.043 96.5607C260.49 96.3689 259.997 95.6563 259.7 95.1219C259.321 94.4413 259.001 93.8567 258.101 93.9206H257.96C257.17 93.9846 256.571 94.3774 255.936 94.8661C255.621 95.1219 254.338 96.072 254.027 96.3369C252.305 97.7939 250.565 99.2921 250.154 101.329C250.066 101.693 249.987 102.058 249.916 102.425C249.788 103.133 249.665 103.873 249.062 104.253H249.016C248.934 104.298 248.841 104.32 248.747 104.316C248.474 104.306 248.213 104.207 248.002 104.033C247.894 103.952 247.805 103.848 247.742 103.728C247.68 103.607 247.645 103.474 247.641 103.339C247.34 99.8311 248.528 96.6703 250.99 94.4276C252.588 93.1167 253.867 91.4724 255.114 89.8737C255.717 89.0972 256.347 88.2933 256.996 87.5534C257.485 87.0647 258.293 87.4757 259.618 88.9237C260.17 89.5266 261.911 92.4864 262.701 94.4276C262.791 94.6699 262.83 94.9283 262.814 95.1864C262.798 95.4444 262.729 95.6963 262.609 95.9258L262.623 95.9578ZM291.65 55.1737C290.988 55.8086 290.289 56.4389 289.595 57.0875C287.128 59.3302 284.584 61.6551 282.912 64.2769C282.122 65.3503 281.538 66.5836 280.967 67.7848C280.903 67.9127 280.761 68.1776 280.492 68.1776C280.422 68.1743 280.354 68.1572 280.292 68.1275C280.229 68.0977 280.173 68.0557 280.126 68.0041C279.656 67.529 280.049 64.2267 280.665 62.5686C282.026 58.9054 285.105 55.0641 289.138 52.0449C289.585 51.7716 290.098 51.6247 290.623 51.6201C291.381 51.6201 291.965 51.9672 292.203 52.5656C292.705 53.3741 292.523 54.3196 291.65 55.1737ZM126.988 124.624C126.847 124.386 126.716 124.142 126.596 123.893C126.185 123.121 125.965 122.299 125.76 121.587C125.349 120.152 125.002 118.901 123.435 119.12C121.224 119.44 119.073 119.581 116.675 119.581C116.638 119.581 115.898 119.581 115.661 120.102C115.391 120.705 115.994 121.271 116.643 121.856C117.004 122.189 117.383 122.537 117.634 122.916C118.077 123.564 118.502 124.496 118.913 125.396C119.562 126.835 120.132 128.068 120.781 128.274C121.078 128.357 121.386 128.399 121.695 128.397C123.202 128.397 125.266 127.593 126.769 126.424C127.605 125.711 127.34 125.236 126.961 124.606L126.988 124.624ZM18.9237 122.381L18.8004 122.285C18.3436 121.92 17.5215 121.966 16.9642 122.349C16.5851 122.614 16.1877 122.87 15.8132 123.126C14.5799 123.943 13.301 124.779 11.9581 125.917C11.4648 126.328 11.1953 127.104 11.1497 127.703C11.104 128.178 11.1953 128.557 11.3872 128.799C11.4968 128.922 12.4788 130.009 12.6844 130.187C13.1146 130.572 13.6692 130.79 14.2465 130.799C14.709 130.788 15.1626 130.67 15.5711 130.452C17.9599 129.256 20.4264 124.83 20.5224 124.574C20.7736 123.866 19.9697 123.217 18.9237 122.381ZM11.0537 132.873C10.565 132.179 8.93895 130.265 8.02086 130.265C7.94321 130.265 7.86099 130.265 7.80161 130.311C6.53639 130.831 5.06563 132.476 4.98798 133.458C4.66824 137.738 4.54492 138.194 3.37561 139.51C3.04218 139.875 2.82294 140.725 3.20205 141.09C3.53091 141.419 7.73767 142.748 8.20813 142.748H8.30405C8.68316 142.62 8.99832 141.657 9.85703 138.701C10.3138 137.103 10.8345 135.303 11.4192 133.677C11.4511 133.567 11.4648 133.407 11.0857 132.873H11.0537Z" fill="#D2003C"/>
<path d="M139.96 132.59C141.682 132.462 143.468 132.334 144.734 130.991C146.332 128.666 147.702 126.332 148.908 123.866C149.982 121.65 149.995 119.485 148.94 117.795C145.761 112.707 145.195 111.364 143.898 107.907L143.866 107.811L143.774 107.779C143.399 107.663 143.028 107.53 142.664 107.381C141.888 107.084 141.066 106.751 140.139 106.751H140.011C138.919 106.783 138.179 107.13 137.878 107.733L137.832 107.824L143.596 119.202C143.962 120.088 144.386 120.988 144.167 122.317C143.943 123.642 141.116 128.1 140.262 128.666C140.118 128.782 139.943 128.853 139.759 128.872C139.696 128.872 139.394 128.812 139.581 128.146C140.12 126.3 140.801 121.952 140.609 120.563C140.403 118.951 135.571 110.953 135.365 110.606L135.269 110.469C134.525 109.249 133.753 107.984 133.817 106.513C133.817 105.833 134.447 105.362 134.904 105.189C135.745 104.869 136.548 104.746 137.403 104.554C139.458 104.097 141.573 103.64 142.336 102.485C144.642 98.9769 146.012 95.3137 146.931 90.2391C146.976 90.0153 147.136 89.5905 147.451 89.5905C147.643 89.5905 147.83 89.6545 147.908 90.093C148.327 92.4924 148.263 94.9512 147.721 97.3258C147.179 99.7004 146.17 101.943 144.752 103.924C144.553 104.256 144.48 104.648 144.546 105.029C144.61 105.44 145.067 105.774 145.067 105.774C146.172 106.532 150.219 106.089 153.156 104.554C155.399 104.6 157.505 104.207 159.555 103.828C160.204 103.7 160.853 103.59 161.483 103.481C161.688 103.59 161.848 103.782 161.88 103.924C160.158 105.865 159.112 108.048 158.578 110.78C158.088 111.275 157.582 111.755 157.062 112.218C155.18 113.94 153.156 115.872 153.06 118.334C153.06 118.334 153.001 119.221 153.965 119.28C154.262 119.298 154.609 119.143 154.924 119.015C155.234 118.857 155.576 118.77 155.924 118.759C156.071 118.78 156.207 118.852 156.307 118.962C156.407 119.072 156.465 119.214 156.472 119.362L154.325 122.505C153.522 123.816 153.869 125.209 154.184 126.57C154.421 127.31 154.312 127.894 154.517 128.557C155.052 130.123 156.966 130.863 158.482 130.863C161.277 130.74 163.826 129.822 166.288 128.936C166.731 128.781 167.156 128.621 167.613 128.465C170.317 127.296 173.92 127.059 178.205 127.753C181.649 127.529 184.239 125.254 186.751 123.044C187.824 123.076 188.934 123.706 190.072 124.939C193.799 128.936 198.366 130.877 204.039 130.877H204.688L205.254 130.831C205.839 130.694 205.999 130.407 206.031 130.041C206.076 129.603 205.729 129.16 205.099 128.858L201.92 127.168C199.376 125.556 196.612 123.61 195.854 121.048C195.032 118.316 193.497 115.539 192.346 113.689C192.111 113.312 191.862 112.944 191.602 112.584C191.159 111.935 190.688 111.268 190.368 110.574C193.831 111.807 195.772 114.365 198.115 118.636C199.851 121.81 204.373 125.222 208.652 125.222C209.223 125.222 209.758 125.158 210.297 125.049C210.754 124.957 211.055 124.656 211.119 124.259C211.165 123.911 211.119 123.578 210.74 123.372L208.145 122.08C205.067 120.276 203.295 117.307 201.573 114.415C200.892 113.274 200.202 112.109 199.44 111.049C198.951 110.318 198.097 109.565 197.357 108.902C196.708 108.318 196.092 107.76 195.977 107.464C193.168 99.7808 190.103 90.7598 189.359 80.7248C189.249 79.1947 188.171 75.8284 186.892 73.6451C182.896 67.1362 173.35 55.9959 172.829 55.4432C172.5 55.0974 172.164 54.7593 171.819 54.4292L171.564 54.178L154.371 39.8951C150.959 37.4925 149.918 37.0632 147.438 36.1816C145.699 35.5871 143.872 35.2936 142.034 35.3138C139.6 35.3138 137.165 35.7843 135.174 36.6384C133.803 37.3692 132.474 38.2188 131.177 39.041C128.984 40.4478 126.701 41.9003 124.239 42.7224C122.311 43.5903 120.242 44.2252 118.237 44.8418C114.332 46.0385 110.303 47.29 107.11 50.2316C106.178 51.0811 105.42 51.7937 104.785 52.4103C101.835 55.192 101.533 55.4889 99.117 55.4889C93.5217 55.4889 89.557 56.8637 85.4142 60.23C82.1438 63.199 78.9054 65.9852 75.128 67.2961C73.438 67.8807 71.5561 68.1 69.5646 68.2918C66.7053 68.5431 66.2623 68.575 63.5628 69.2236C59.484 70.1554 55.1584 73.5172 51.5044 76.3628C50.3031 77.2946 48.709 78.5278 47.9508 79.0211C47.5534 79.2723 47.0829 79.5692 46.6993 79.7976C42.1499 82.4468 37.8655 84.959 32.3661 84.959H31.9551C27.8488 84.6621 24.1216 81.8302 22.8701 78.0848C21.7191 73.8689 22.9523 69.5388 26.2821 66.2181C27.8625 64.6378 29.6621 63.1076 31.4206 61.6231C34.2343 59.2343 36.8881 56.9733 38.7379 54.4977C40.8847 51.6201 40.6472 46.7693 38.2309 44.1293C35.8284 41.4892 30.4569 40.1783 28.4334 39.6896L28.0863 39.6073C27.8808 39.5617 27.5336 39.516 27.3418 39.4703C26.0629 39.2145 24.8296 39.041 23.5827 38.7395C20.3899 37.8716 17.9097 35.3914 15.0824 33.875C13.9907 35.5467 13.6253 37.3646 13.7715 39.3881C14.3059 43.6542 17.864 48.0802 21.8104 49.8799C21.984 49.9438 22.1439 50.0215 22.3174 50.0717C23.5644 50.6061 24.8753 50.6883 26.1085 50.6883H27.7072C28.4654 50.6883 29.3835 50.6883 30.2011 50.8939C30.6356 51.0187 31.0243 51.2675 31.3196 51.6099C31.6149 51.9522 31.804 52.3732 31.8637 52.8214C31.9277 53.3878 31.6719 53.8308 30.9502 54.3835L28.9404 56.0415C25.5422 58.8415 22.0342 61.751 19.1886 65.2681C15.3656 69.3972 15.192 76.5683 16.9779 81.2136C19.2526 87.3341 25.5422 90.7598 30.772 91.4221C31.7038 91.5637 32.6356 91.646 33.6177 91.646C36.6962 91.646 39.6195 90.9014 42.4651 90.1889C42.5747 90.1569 42.6569 90.1569 42.7346 90.1569C42.8625 90.1569 43.1137 90.1569 43.1594 90.8055C43.2416 92.0707 43.3192 93.5095 43.3832 94.8981C43.4745 97.159 43.5887 99.2921 43.7486 100.196C44.1231 102.202 45.1189 104.65 45.7857 106.262C46.0689 106.943 46.2882 107.477 46.3521 107.747C46.6079 108.66 46.3704 109.661 45.7538 110.227C43.607 112.205 39.2221 113.767 38.4182 113.881C37.1256 114.036 35.7507 114.114 34.7367 114.164C34.2343 114.192 33.8232 114.21 33.6177 114.242C33.1643 114.288 32.7404 114.488 32.4164 114.808C31.7998 115.411 31.1375 117.133 30.3473 119.125C29.8722 120.326 29.3972 121.573 28.9085 122.601C27.5336 124.875 25.2407 126.218 23.0163 127.497C22.459 127.817 21.9063 128.146 21.3719 128.479L21.308 128.543C20.3945 129.995 19.4718 131.37 18.2888 132.412C17.3753 133.266 16.2014 133.458 15.0641 133.599H14.9864L14.9408 133.663C13.2005 135.655 12.6478 138.29 12.0952 140.866C12.0175 141.264 11.9216 141.657 11.8394 142.036L11.7617 142.401H11.9855C12.8991 142.511 13.8126 142.703 14.7809 142.922C16.0598 143.205 17.3707 143.493 18.6679 143.493C19.9012 143.493 20.9426 143.237 21.8926 142.716C23.5507 141.958 24.4368 140.423 25.3046 138.957C25.8756 137.993 26.4602 136.979 27.2504 136.207C27.4694 135.957 27.7419 135.758 28.0479 135.627C28.3539 135.496 28.6855 135.435 29.0181 135.449C29.6667 135.449 30.3792 135.636 31.0552 135.828C31.6901 136.002 32.3342 136.175 32.9508 136.207C36.0202 136.381 38.9252 134.453 40.332 133.33C40.9487 132.841 41.5653 132.256 42.1636 131.704C43.0954 130.836 44.0455 129.932 45.0732 129.301C46.3201 128.698 47.8229 128.415 49.6865 128.415C51.9931 128.415 54.4413 128.872 56.3871 129.237C57.4239 129.507 58.4904 129.645 59.5616 129.648C61.3102 129.676 63.0363 129.251 64.5723 128.415C66.2805 127.456 67.998 126.552 69.3774 125.825C70.1813 125.396 70.8938 125.035 71.4465 124.72C73.8947 123.377 75.9821 119.645 76.754 118.097C77.4849 116.658 78.7181 113.548 78.7318 113.516L78.7958 113.374L75.9319 111.191L75.8222 111.383C75.8222 111.383 73.9267 114.493 72.7117 115.932C67.6691 122.792 59.4657 123.674 52.8792 123.674C52.4225 123.66 51.9657 123.642 51.5181 123.642C43.3649 123.642 36.7921 126.378 31.987 131.781C31.7678 132.033 31.3704 132.083 31.2105 131.859C31.1192 131.736 31.0872 131.53 31.1512 131.274C31.2442 130.792 31.427 130.332 31.6901 129.918C36.7921 122.664 45.5162 121.591 52.5458 121.463C57.7437 121.116 61.5211 120.216 64.8098 118.54C69.0302 116.393 72.1408 111.652 73.374 107.888C74.1779 105.422 74.5753 102.786 74.9544 100.242C75.2559 98.2187 75.571 96.1313 76.0735 94.2038C76.1192 94.0841 76.1998 93.981 76.3049 93.9077C76.4099 93.8344 76.5346 93.7943 76.6627 93.7927C76.7221 93.7927 76.7723 93.7927 76.8637 93.8384C77.1377 93.8886 77.6401 94.0759 77.6401 94.4733C76.9276 98.4562 75.9638 103.924 77.7817 108.473C78.6359 110.273 80.4355 111.159 83.3131 111.159C85.0488 111.159 86.9489 110.857 88.7942 110.574C90.2193 110.355 91.5622 110.131 92.7132 110.085C93.2065 110.04 93.6952 110.021 94.2022 110.021C96.4906 110.021 98.7059 110.464 100.839 110.889C102.703 111.268 104.63 111.647 106.603 111.743C106.95 111.762 107.334 111.789 107.727 111.826C108.407 111.885 109.115 111.935 109.846 111.935C111.518 111.935 112.706 111.602 113.56 110.907C114.158 110.419 113.953 109.674 113.683 108.742L113.637 108.569C113.592 108.409 113.546 108.235 113.477 108.048C113.098 106.815 112.518 104.951 113.477 104.079C113.634 103.965 113.823 103.905 114.016 103.905C114.172 103.905 114.396 103.951 114.46 104.207L114.775 105.28C115.199 106.769 115.643 108.318 116.593 109.642C118.602 112.2 121.695 114.635 125.55 116.644C128.034 118.348 131.017 121.226 131.259 125.241C131.259 127.059 129.487 128.319 128.176 129.109C126.102 130.137 122.562 131.293 120.891 131.293C120.669 131.306 120.447 131.269 120.242 131.183C117.84 129.904 116.606 127.83 115.295 125.633C114.616 124.425 113.84 123.273 112.975 122.189C111.724 120.801 110.143 120.262 108.01 120.436C105.955 120.595 104.059 120.988 101.816 121.463C101.598 121.503 101.393 121.594 101.217 121.729C101.042 121.864 100.901 122.039 100.807 122.24C100.707 122.479 100.667 122.739 100.688 122.997C100.71 123.255 100.793 123.505 100.93 123.724C102.1 125.807 103.223 127.703 104.425 129.708L104.964 130.612C105.247 131.101 105.863 131.165 106.366 131.165C106.64 131.165 106.937 131.151 107.252 131.119C107.585 131.101 107.932 131.073 108.28 131.073C109.321 131.073 109.988 131.325 110.413 131.845C110.778 132.393 111.093 132.983 111.408 133.549C112.199 134.956 113.007 136.427 114.364 137.468C115.597 138.564 117.378 139.176 119.246 139.176C120.069 139.176 120.859 139.048 121.617 138.829C127.007 137.139 132.25 135.404 137.243 132.731C137.243 132.731 139.22 132.699 139.979 132.636L139.96 132.59ZM148.922 72.1606C148.831 72.494 148.621 72.7133 148.383 72.7133C148.292 72.7133 148.036 72.6676 147.958 72.2382C147.058 67.6432 146.519 65.3823 145.46 63.2629C145.131 62.5869 144.702 62.016 144.341 61.509C143.564 60.4538 142.902 59.5495 143.646 58.3208C143.866 57.9554 144.418 57.7178 145.017 57.7178C145.318 57.7178 145.588 57.7818 145.825 57.8914C146.711 58.3208 147.579 59.3942 148.465 61.1801C150.676 65.7157 148.922 72.1149 148.904 72.1789L148.922 72.1606ZM177.826 117.955C177.826 117.955 177.68 119.252 177.081 119.819C176.465 120.372 174.286 120.673 173.13 120.641C171.979 120.595 171.582 120.436 171.349 120.088C171.075 119.691 171.518 118.919 171.518 118.919C171.66 118.636 173.002 115.836 175.72 115.096C175.72 115.096 176.588 114.776 177.428 115.187C178.264 115.598 177.871 117.686 177.839 117.974L177.826 117.955ZM185.691 99.8768C185.613 100.516 185.422 101.137 185.125 101.708C184.983 101.964 184.746 102.517 183.956 102.531C183.088 102.531 183.147 101.521 183.147 101.379C183.147 101.379 183.037 98.5476 182.498 97.3646C181.914 96.0674 179.073 92.4179 177.428 92.5777C177.017 92.6097 175.944 93.2583 175.154 94.2815C174.19 95.533 174.19 95.6883 173.889 95.8801C173.587 96.0674 173.208 95.9715 173.085 95.2315C172.957 94.487 172.811 93.8886 173.162 92.4818C173.509 91.075 173.857 90.7598 174.268 89.7504C174.268 89.7504 175.122 87.7726 175.437 87.2839C176.323 85.941 177.492 86.0369 177.492 86.0369C177.808 86.0506 178.817 85.9228 179.913 87.2839C181.174 88.8643 180.904 88.7227 181.251 89.2754C181.599 89.8235 181.982 90.4127 183.024 91.55C184.065 92.6919 185.216 94.8981 185.536 96.2729C185.851 97.6478 185.837 98.8171 185.659 99.8813L185.691 99.8768Z" fill="#D2003C"/>
</g>
<defs>
<clipPath id="clip0_795_3997">
<rect width="1024" height="164.433" fill="white" transform="translate(0 0.35791)"/>
</clipPath>
</defs>
</svg>
