<svg width="526" height="513" viewBox="0 0 526 513" fill="none" xmlns="http://www.w3.org/2000/svg">
<g clip-path="url(#clip0_820_379)">
<path d="M503.441 21.9258H22.0732V490.165H503.441V21.9258Z" fill="#261A00"/>
<path fill-rule="evenodd" clip-rule="evenodd" d="M0.194336 0.0507812V512.051H525.323V0.0507812H0.194336ZM22.0747 21.9311H503.442V490.17H22.0747V21.9311Z" fill="#FAAB18"/>
<path fill-rule="evenodd" clip-rule="evenodd" d="M116.161 358.013C116.161 360.202 115.505 361.077 113.754 361.077H79.1832C77.4328 361.077 76.7764 360.42 76.7764 358.232V129.364C76.7764 127.613 77.4328 126.957 79.1832 126.957H196.681C198.869 126.957 199.087 127.613 199.525 129.364L203.026 159.121C203.464 161.309 202.37 161.966 200.182 161.966H116.161V227.607H193.18C194.93 227.607 194.93 228.044 194.93 230.013V259.99C194.93 262.178 194.274 262.396 192.523 262.396H116.161V358.013ZM387.915 184.94C413.734 184.94 446.554 196.537 446.554 247.955V358.013C446.554 360.202 445.898 360.858 444.147 360.858H411.983C410.233 360.858 409.576 359.764 409.576 358.013V250.362C409.576 229.576 401.699 218.198 380.257 218.198C369.754 218.198 361.221 220.386 353.782 223.231C355.97 229.576 356.845 238.328 356.845 247.518V358.013C356.845 360.202 356.188 360.858 354.438 360.858H322.493C320.305 360.858 319.648 359.764 319.648 358.013V250.362C319.648 229.576 310.896 218.198 290.11 218.198C280.482 218.198 274.137 220.386 267.135 222.793V358.232C267.135 359.764 266.698 360.639 264.947 360.639H232.346C230.595 360.639 229.939 359.983 229.939 358.232V223.449C229.939 221.261 229.939 213.822 228.845 202.007C228.845 200.256 229.501 200.256 231.033 199.6C248.318 192.817 272.605 184.721 296.674 184.721C312.428 184.721 326.212 187.784 337.59 196.318C351.593 190.629 367.129 184.94 387.915 184.94Z" fill="#FAAB18"/>
</g>
<defs>
<clipPath id="clip0_820_379">
<rect width="525.128" height="512" fill="white" transform="translate(0.194336 0.0507812)"/>
</clipPath>
</defs>
</svg>
