<svg width="513" height="513" viewBox="0 0 513 513" fill="none" xmlns="http://www.w3.org/2000/svg">
<g clip-path="url(#clip0_795_4401)">
<path d="M256.424 512.575C397.809 512.575 512.424 397.959 512.424 256.575C512.424 115.19 397.809 0.574707 256.424 0.574707C115.039 0.574707 0.42395 115.19 0.42395 256.575C0.42395 397.959 115.039 512.575 256.424 512.575Z" fill="#003DA6"/>
<path d="M256.424 388.368C329.211 388.368 388.217 329.362 388.217 256.575C388.217 183.788 329.211 124.782 256.424 124.782C183.637 124.782 124.631 183.788 124.631 256.575C124.631 329.362 183.637 388.368 256.424 388.368Z" fill="black"/>
<path d="M497.017 256.574C497.017 123.715 389.307 15.9819 256.424 15.9819C123.541 15.9819 15.8314 123.715 15.8314 256.574C15.8314 280.16 19.2448 302.939 25.5736 324.461L18.2254 326.998C48.5899 429.848 143.737 504.894 256.424 504.894C369.111 504.894 464.258 429.848 494.622 326.998L487.274 324.461C493.604 302.915 497.017 280.136 497.017 256.551V256.574ZM26.7351 256.574C26.7351 129.713 129.562 26.8856 256.424 26.8856C383.286 26.8856 486.112 129.713 486.112 256.574C486.112 278.903 482.912 300.498 476.964 320.93L256.4 244.865L35.8848 320.906C29.9351 300.498 26.7351 278.903 26.7351 256.574Z" fill="black"/>
<path d="M256.424 0.574707C115.031 0.574707 0.42395 115.182 0.42395 256.575C0.42395 397.968 115.031 512.575 256.424 512.575C397.817 512.575 512.424 397.968 512.424 256.575C512.424 115.182 397.817 0.574707 256.424 0.574707ZM256.424 497.168C123.541 497.168 15.8313 389.458 15.8313 256.575C15.8313 123.692 123.541 15.9821 256.424 15.9821C389.307 15.9821 497.017 123.692 497.017 256.575C497.017 389.458 389.307 497.168 256.424 497.168Z" fill="#C1C5C8"/>
<path d="M126.954 303.65L105.882 310.928V430.086C132.287 453.008 163.979 470.003 198.871 479.01V381.73C165.639 366.418 139.541 338.281 126.954 303.65Z" fill="#003DA6"/>
<path d="M406.919 310.903L385.87 303.65C373.284 338.281 347.186 366.418 313.953 381.73V478.986C348.844 469.979 380.537 452.983 406.942 430.062V310.903H406.919Z" fill="#003DA6"/>
<path d="M256.424 394.293C235.872 394.293 216.389 389.79 198.871 381.73V479.01C217.266 483.751 236.56 486.287 256.424 486.287C276.287 486.287 295.582 483.751 313.977 479.01V381.753C296.459 389.813 276.975 394.317 256.424 394.317V394.293Z" fill="black"/>
<path d="M39.9855 333.635C53.378 371.277 76.3232 404.391 105.905 430.062V310.903L39.9855 333.635Z" fill="black"/>
<path d="M472.862 333.659L406.919 310.928V430.086C436.501 404.415 459.446 371.301 472.862 333.659Z" fill="black"/>
<path d="M204.702 429.635C205.604 429.54 206.859 429.351 207.666 429.588L210.629 430.441C211.577 430.726 211.766 431.01 211.552 431.793L204.56 455.97C204.324 456.753 203.991 456.895 203.067 456.633L198.16 455.212C197.212 454.951 197.022 454.643 197.236 453.861L202.309 436.296L196.738 434.708C195.79 434.423 195.6 434.14 195.814 433.357L196.335 431.532C196.454 431.081 196.596 430.797 197.284 430.631C197.284 430.631 203.802 429.73 204.702 429.635Z" fill="white"/>
<path d="M225.917 443.455C226.439 438.145 231.322 434.163 237.84 434.826C247.464 435.798 249.337 442.128 248.578 449.713C247.796 457.511 243.766 463.84 234.427 462.891C230.634 462.513 227.742 460.924 225.254 458.221C224.661 457.581 224.874 457.321 225.538 456.753L228.264 454.548C228.927 454.026 229.284 453.908 229.899 454.595C231.369 456.231 232.91 457.203 235.564 457.463C238.646 457.771 241.111 455.283 241.538 451.063C240.59 452.035 238.859 453.291 234.309 452.841C229.236 452.343 225.396 449.048 225.941 443.431L225.917 443.455ZM232.815 443.715C232.602 445.968 234.427 447.911 236.892 448.148C239.666 448.433 241.538 446.844 241.775 444.593C242.012 442.221 240.471 440.396 237.698 440.113C235.019 439.851 233.052 441.321 232.815 443.691V443.715Z" fill="white"/>
<path d="M262.824 445.801C262.326 440.491 266.356 435.656 272.874 435.04C282.522 434.139 285.556 439.994 286.267 447.603C287.002 455.401 284.252 462.394 274.912 463.271C271.12 463.626 267.967 462.631 265.004 460.45C264.317 459.928 264.459 459.645 265.004 458.957L267.257 456.278C267.802 455.638 268.134 455.448 268.869 456.018C270.622 457.345 272.329 458.008 274.96 457.748C278.042 457.463 279.986 454.548 279.606 450.305C278.847 451.443 277.402 453.008 272.851 453.434C267.778 453.908 263.369 451.419 262.847 445.801H262.824ZM269.651 444.735C269.864 446.986 272.021 448.551 274.51 448.314C277.284 448.053 278.824 446.157 278.611 443.905C278.397 441.535 276.524 440.041 273.751 440.302C271.072 440.563 269.437 442.388 269.651 444.758V444.735Z" fill="white"/>
<path d="M305.182 446.252C304.306 446.489 303.997 446.347 303.784 445.541L302.978 442.697C302.764 441.915 302.931 441.606 303.807 441.369L307.244 440.421C310.137 439.615 310.919 437.98 310.539 436.581C309.994 434.637 308.524 433.831 305.632 434.637C303.072 435.348 302.314 436.486 301.177 438.477C300.75 439.212 300.324 439.212 299.589 438.809L296.672 437.15C295.938 436.7 295.677 436.486 296.151 435.751C298.142 432.646 300.134 430.465 304.139 429.351C308.832 428.023 315.47 428.64 317.011 434.163C317.746 436.818 316.631 439.212 315.091 440.8V440.848C317.437 441.25 319.974 442.08 320.898 445.375C322.439 450.898 318.03 454.833 311.749 456.587C307.742 457.701 304.352 457.037 301.058 455.425C300.276 455.046 300.371 454.738 300.774 453.955L302.409 451.063C302.836 450.329 303.215 450.14 303.95 450.518C306.059 451.515 307.719 452.012 310.255 451.301C313.977 450.258 314.617 448.622 314.071 446.678C313.692 445.28 312.032 444.332 309.141 445.138L305.135 446.252H305.182Z" fill="white"/>
<path d="M83.1261 208.243C82.6046 207.366 82.8416 206.939 83.6713 206.394L87.3691 204C88.2224 203.455 88.5779 203.336 89.0994 204.213C91.2328 207.958 91.9676 213.315 90.9483 218.08C88.8624 227.775 79.8076 234.221 70.9187 232.301C62.0298 230.381 56.4121 220.806 58.4742 211.111C59.4936 206.346 62.3616 201.748 65.8461 199.211C66.6757 198.619 66.9364 198.88 67.5054 199.733L69.8994 203.431C70.4209 204.261 70.4683 204.735 69.6387 205.328C67.0787 207.034 65.4431 209.428 64.7794 212.461C63.4757 218.554 67.6949 223.128 72.6491 224.195C77.5321 225.238 83.3157 222.844 84.6431 216.728C85.3069 213.671 84.7854 210.85 83.1498 208.219L83.1261 208.243Z" fill="white"/>
<path d="M102.658 179.893C103.511 180.343 103.606 180.746 103.108 181.671L100.548 186.53C100.051 187.455 99.6713 187.597 98.818 187.17L72.6491 173.446C71.7958 172.995 71.701 172.593 72.1988 171.668L82.818 151.425C83.3158 150.501 83.6951 150.358 84.5484 150.785L87.9618 152.563C88.8151 153.013 88.9098 153.416 88.4121 154.341L80.9691 168.515L86.6818 171.502L93.8876 157.778C94.3855 156.853 94.7647 156.711 95.618 157.161L99.0313 158.939C99.8846 159.39 99.9795 159.768 99.4818 160.717L92.2758 174.441L102.658 179.893Z" fill="white"/>
<path d="M158.219 116.248C158.219 117.197 158.219 117.79 157.84 118.05L157.319 118.43C156.939 118.69 156.394 118.525 155.494 118.216L138.972 113.073L145.206 124.877C145.68 125.778 145.68 126.062 144.827 126.678L140.371 129.878C139.517 130.495 138.949 130.495 138.546 129.665L123.991 101.979C123.849 101.695 123.826 101.576 124.109 101.387L124.442 101.15C124.607 101.031 124.774 101.007 125.176 101.15L151.132 109.256L151.749 82.068C151.749 81.665 151.843 81.4992 152.009 81.3807L152.341 81.1435C152.626 80.9302 152.72 80.9777 152.957 81.2147L174.504 103.875C175.12 104.563 174.978 105.061 174.124 105.677L169.669 108.877C168.815 109.493 168.507 109.422 167.843 108.663L158.764 98.6843L158.267 116.273L158.219 116.248Z" fill="white"/>
<path d="M198.089 61.8014C207.594 58.9569 217.597 63.7925 220.204 72.5155C222.812 81.2384 217.124 90.791 207.618 93.6355C198.113 96.4799 188.11 91.6444 185.502 82.9214C182.895 74.1984 188.584 64.6459 198.089 61.8014ZM205.769 87.4489C211.932 85.5999 213.686 79.674 212.264 74.9096C210.818 70.0504 206.124 66.1392 199.938 67.9881C193.964 69.7659 191.997 75.6681 193.444 80.5274C194.866 85.3155 199.772 89.2266 205.769 87.4489Z" fill="white"/>
<path d="M324.051 64.9301C325.069 65.2145 325.283 65.5464 325.022 66.4945L323.909 70.5004C323.647 71.4249 323.292 71.6145 322.272 71.3301L312.72 68.6752L306.272 91.9523C306.012 92.8767 305.656 93.0664 304.637 92.7819L299.351 91.3122C298.332 91.0279 298.119 90.696 298.379 89.7716L304.827 66.4945L295.274 63.8397C294.255 63.5552 294.042 63.2234 294.302 62.2752L295.416 58.2693C295.677 57.3449 296.032 57.1552 297.052 57.4397L324.051 64.9064V64.9301ZM248.909 84.9359C248.909 85.9079 248.602 86.1686 247.559 86.1686H242.083C241.016 86.1686 240.732 85.8841 240.732 84.9359V53.9552C240.732 53.6471 240.827 53.5522 241.182 53.5522H241.68C242.036 53.5522 242.272 53.6945 242.629 53.9552L263.962 71.4722V55.3774C263.962 54.4056 264.269 54.1449 265.312 54.1449H270.789C271.855 54.1449 272.139 54.4293 272.139 55.3774V86.3582C272.139 86.6664 272.044 86.7612 271.689 86.7612H271.191C270.836 86.7612 270.599 86.6189 270.243 86.3582L248.909 68.6041V84.9359Z" fill="white"/>
<path d="M356.311 101.742L357.497 116.32C357.567 117.694 356.596 117.646 355.671 117.101L351.31 114.494C350.409 113.949 350.077 113.333 349.959 112.243L348.821 98.0677L346.404 96.6218L340.454 106.554C339.956 107.383 339.552 107.454 338.652 106.909L333.935 104.089C333.034 103.543 332.916 103.164 333.414 102.334L348.584 76.9714C349.082 76.1418 349.484 76.0707 350.385 76.6159L361.147 83.0395C366.077 85.9788 371.031 91.5018 367.215 97.878C364.584 102.287 360.341 102.832 356.287 101.742H356.311ZM354.249 94.1092C357.284 95.9107 359.204 95.8395 360.412 93.801C361.644 91.7625 360.791 90.0322 357.757 88.2307L353.087 85.4337L349.556 91.3122L354.225 94.1092H354.249Z" fill="white"/>
<path d="M371.979 130.589C371.244 129.831 371.244 129.428 371.932 128.764L393.289 108.331C393.977 107.668 394.379 107.691 395.114 108.45L410.901 124.948C411.636 125.706 411.636 126.109 410.949 126.773L408.175 129.428C407.487 130.091 407.084 130.068 406.35 129.309L395.28 117.741L390.611 122.198L401.229 133.291C401.964 134.05 401.964 134.453 401.277 135.116L398.504 137.771C397.817 138.435 397.414 138.411 396.679 137.653L386.059 126.56L381.271 131.134L392.341 142.701C393.076 143.461 393.076 143.863 392.389 144.528L389.615 147.181C388.927 147.846 388.524 147.821 387.789 147.063L372.003 130.566L371.979 130.589ZM409.811 113.618C409.052 113.499 408.389 113.168 407.819 112.598L404.904 109.541C404.287 108.876 404.43 108.45 405.924 108.498L414.836 108.688C415.807 108.663 416.069 109.328 415.855 110.346L415.167 113.594C414.954 114.423 414.717 114.636 413.603 114.471L409.834 113.641L409.811 113.618Z" fill="white"/>
<path d="M417.301 193.499C416.945 194.091 416.164 193.973 415.807 193.31L412.821 187.596C412.394 186.791 412.512 186.411 413.106 185.463L416.044 180.913L409.479 168.373L404.074 168.183C402.96 168.136 402.581 167.994 402.154 167.188L399.167 161.475C398.812 160.811 399.191 160.148 399.855 160.148L434.747 161.783C435.671 161.878 436.146 161.783 436.359 162.186L436.43 162.328C436.644 162.731 436.311 163.063 435.837 163.893L417.277 193.475L417.301 193.499ZM426.404 167.211L415.666 167.046L420.477 176.243L426.451 167.33L426.404 167.235V167.211Z" fill="white"/>
<path d="M431.689 230.88C431.902 231.923 431.689 232.255 430.764 232.468L426.996 233.25C426.047 233.44 425.716 233.203 425.502 232.183L421.212 211.893C420.999 210.85 421.212 210.518 422.137 210.305L451.055 204.213C452.004 204.023 452.335 204.26 452.549 205.28L453.686 210.637C453.899 211.68 453.686 212.012 452.762 212.225L428.797 217.273L431.666 230.856L431.689 230.88Z" fill="white"/>
<path d="M313.977 348.948C319.571 341.505 324.809 333.446 329.597 324.841C350.836 286.631 362.284 240.693 362.735 192.006C362.782 185.653 362.593 178.21 362.19 170.957C352.614 167.994 335.381 163.182 313.953 159.58L313.977 348.995V348.948ZM313.977 370.518C311.844 372.888 309.686 375.188 307.482 377.393L307.434 377.44C303.049 381.848 298.546 385.95 293.876 389.766C293.804 389.813 293.734 389.885 293.662 389.932C290.178 392.753 286.622 395.408 283.019 397.873C282.996 397.873 282.972 397.92 282.924 397.92C281.787 398.702 280.649 399.437 279.511 400.172C279.369 400.266 279.251 400.338 279.109 400.433C277.971 401.143 276.857 401.855 275.719 402.542C275.671 402.566 275.601 402.613 275.553 402.661C273.111 404.13 270.622 405.505 268.134 406.785C268.039 406.833 267.921 406.88 267.826 406.951C266.735 407.52 265.621 408.065 264.507 408.586C264.294 408.681 264.104 408.776 263.891 408.871C262.801 409.393 261.71 409.89 260.619 410.365C260.477 410.435 260.359 410.483 260.217 410.554C258.961 411.1 257.704 411.621 256.447 412.142C255.997 411.953 255.547 411.763 255.097 411.573C254.433 411.288 253.746 411.028 253.082 410.743C252.489 410.483 251.873 410.222 251.281 409.938C250.711 409.677 250.166 409.44 249.597 409.155C248.981 408.871 248.364 408.563 247.749 408.278C247.204 408.018 246.682 407.757 246.137 407.473C245.521 407.165 244.881 406.856 244.264 406.525C243.742 406.263 243.244 405.98 242.747 405.695C241.586 405.055 240.401 404.415 239.239 403.751C238.764 403.49 238.314 403.23 237.841 402.945C237.177 402.566 236.537 402.163 235.897 401.76C235.446 401.475 234.972 401.191 234.522 400.906C233.858 400.503 233.218 400.077 232.578 399.65C232.127 399.366 231.701 399.081 231.251 398.773C230.587 398.323 229.924 397.896 229.259 397.446C228.927 397.208 228.572 396.972 228.241 396.735C226.842 395.763 225.467 394.767 224.116 393.748C223.831 393.535 223.547 393.321 223.239 393.108C222.551 392.586 221.887 392.065 221.201 391.52C220.821 391.235 220.442 390.927 220.086 390.643C219.422 390.098 218.759 389.553 218.095 389.007C217.739 388.723 217.384 388.415 217.029 388.106C216.341 387.538 215.654 386.945 214.966 386.353C214.753 386.186 214.564 385.997 214.35 385.808C212.809 384.456 211.269 383.058 209.751 381.635C209.609 381.517 209.467 381.375 209.349 381.256C208.661 380.593 207.95 379.928 207.262 379.241C206.978 378.957 206.67 378.673 206.386 378.388C205.722 377.725 205.034 377.037 204.371 376.373C204.086 376.088 203.826 375.805 203.541 375.52C202.854 374.808 202.166 374.073 201.479 373.34C201.384 373.245 201.313 373.15 201.218 373.055C200.436 372.201 199.654 371.372 198.871 370.495C197.734 369.215 196.596 367.911 195.482 366.607C195.221 366.3 194.961 365.991 194.699 365.66C192.471 363.005 190.291 360.278 188.157 357.458C187.897 357.126 187.659 356.794 187.399 356.438C185.289 353.618 183.227 350.702 181.236 347.715C180.999 347.36 180.738 346.981 180.501 346.625C179.506 345.132 178.534 343.615 177.562 342.074C176.59 340.533 175.642 338.968 174.717 337.405C174.481 337.025 174.244 336.622 174.03 336.22C173.106 334.631 172.181 333.043 171.281 331.431C148.927 291.23 136.886 243.016 136.412 192.053C136.364 186.53 136.507 180.438 136.767 174.441C136.981 169.748 137.266 165.078 137.621 160.741C137.621 160.741 137.669 160.741 137.764 160.693C137.811 160.693 137.858 160.646 137.929 160.622C137.977 160.622 138.047 160.575 138.119 160.551C138.19 160.528 138.284 160.503 138.379 160.456C138.451 160.433 138.546 160.408 138.641 160.361C138.711 160.338 138.782 160.314 138.854 160.29C138.972 160.243 139.091 160.195 139.233 160.172C139.304 160.172 139.351 160.125 139.422 160.101C139.636 160.03 139.849 159.958 140.086 159.863C140.157 159.863 140.204 159.816 140.276 159.793C140.466 159.721 140.679 159.65 140.916 159.58C140.987 159.555 141.082 159.532 141.153 159.508C141.746 159.318 142.409 159.081 143.144 158.845C143.215 158.821 143.31 158.797 143.381 158.773C143.713 158.678 144.044 158.56 144.401 158.441C144.471 158.441 144.519 158.394 144.59 158.37C145.017 158.228 145.467 158.086 145.917 157.943C145.917 157.943 145.917 157.943 145.941 157.943C146.391 157.801 146.842 157.66 147.316 157.517C147.387 157.493 147.482 157.47 147.577 157.446C148.051 157.303 148.524 157.161 149.022 156.995C149.046 156.995 149.07 156.995 149.094 156.995C149.639 156.83 150.207 156.663 150.777 156.498C150.824 156.498 150.871 156.474 150.919 156.45C151.441 156.285 151.986 156.142 152.554 155.976C152.626 155.976 152.721 155.928 152.791 155.905C154.001 155.55 155.304 155.194 156.655 154.815C156.726 154.815 156.821 154.768 156.892 154.743C157.509 154.578 158.125 154.412 158.765 154.222C158.836 154.222 158.907 154.175 159.002 154.151C160.424 153.772 161.894 153.368 163.434 152.99C163.529 152.966 163.624 152.942 163.742 152.918C164.477 152.728 165.212 152.54 165.971 152.35C166.018 152.35 166.042 152.35 166.089 152.326C166.919 152.113 167.749 151.923 168.602 151.71C168.602 151.71 168.626 151.71 168.649 151.71C169.455 151.52 170.261 151.33 171.091 151.117C171.209 151.093 171.304 151.07 171.422 151.046C173.153 150.643 174.931 150.24 176.756 149.837C176.851 149.837 176.946 149.79 177.041 149.766C177.87 149.576 178.724 149.41 179.553 149.221C179.671 149.197 179.766 149.173 179.884 149.15C181.757 148.746 183.654 148.368 185.621 147.965C185.764 147.941 185.929 147.917 186.071 147.87C186.972 147.703 187.873 147.514 188.797 147.348C188.869 147.348 188.964 147.325 189.034 147.301C190.054 147.111 191.097 146.921 192.139 146.732C192.187 146.732 192.211 146.732 192.258 146.732C193.23 146.566 194.202 146.4 195.174 146.21C195.339 146.186 195.529 146.14 195.695 146.115C196.714 145.95 197.757 145.76 198.777 145.594C198.777 145.594 198.895 145.594 198.942 145.57C200.839 145.262 202.759 144.978 204.726 144.693C204.964 144.646 205.224 144.622 205.461 144.598C207.381 144.314 209.324 144.053 211.292 143.793C211.434 143.793 211.577 143.745 211.719 143.745C213.757 143.485 215.844 143.248 217.929 143.01C218.166 142.986 218.404 142.963 218.641 142.94C220.702 142.726 222.812 142.513 224.922 142.323C225.017 142.323 225.135 142.323 225.23 142.3C227.411 142.11 229.591 141.943 231.819 141.778C232.033 141.778 232.27 141.754 232.507 141.73C234.711 141.588 236.939 141.446 239.191 141.351C239.239 141.351 239.31 141.351 239.357 141.351C241.633 141.233 243.956 141.161 246.255 141.114C246.469 141.114 246.658 141.114 246.871 141.114C249.218 141.066 251.564 141.02 253.935 141.02C254.575 141.02 256.353 141.02 256.353 141.02C256.353 141.02 258.107 141.02 258.771 141.02C261.164 141.02 263.535 141.043 265.882 141.114C266.047 141.114 266.214 141.114 266.379 141.114C271.121 141.233 275.766 141.446 280.364 141.754C280.484 141.754 280.602 141.754 280.721 141.754C285.366 142.062 289.917 142.488 294.35 142.963C294.397 142.963 294.421 142.963 294.469 142.963C301.224 143.698 307.719 144.598 313.906 145.594C314.949 145.76 315.992 145.95 317.034 146.115C317.201 146.14 317.366 146.163 317.532 146.21C318.527 146.376 319.499 146.542 320.471 146.732C320.519 146.732 320.542 146.732 320.59 146.732C321.633 146.921 322.699 147.111 323.719 147.301C323.79 147.301 323.861 147.325 323.932 147.348C324.857 147.514 325.781 147.703 326.682 147.87C326.824 147.893 326.966 147.917 327.132 147.965C329.099 148.343 331.019 148.746 332.869 149.15C332.987 149.15 333.082 149.197 333.201 149.221C334.054 149.41 334.884 149.576 335.713 149.766C335.807 149.766 335.902 149.813 336.021 149.837C337.846 150.24 339.624 150.643 341.331 151.046C341.449 151.07 341.544 151.093 341.662 151.117C342.492 151.306 343.298 151.496 344.081 151.71C344.081 151.71 344.127 151.71 344.151 151.71C345.004 151.923 345.858 152.136 346.687 152.326C346.711 152.326 346.735 152.326 346.759 152.326C347.517 152.515 348.276 152.705 349.011 152.895C349.106 152.918 349.224 152.942 349.319 152.966C350.859 153.368 352.353 153.748 353.775 154.151C353.846 154.151 353.917 154.198 353.989 154.198C354.629 154.365 355.269 154.554 355.884 154.72C355.979 154.72 356.051 154.768 356.146 154.791C357.497 155.17 358.777 155.526 359.986 155.881C360.081 155.905 360.151 155.928 360.246 155.953C360.815 156.118 361.361 156.285 361.882 156.426C361.906 156.426 361.953 156.426 361.977 156.45C362.569 156.616 363.138 156.782 363.684 156.948C363.684 156.948 363.731 156.948 363.754 156.948C364.252 157.09 364.75 157.256 365.224 157.398C365.295 157.422 365.39 157.446 365.461 157.47C365.935 157.612 366.409 157.754 366.859 157.896C367.334 158.038 367.761 158.181 368.187 158.323C368.258 158.323 368.329 158.37 368.401 158.394C368.732 158.513 369.064 158.608 369.372 158.702C369.467 158.726 369.562 158.75 369.633 158.797C370.367 159.034 371.031 159.248 371.624 159.461C371.695 159.485 371.79 159.508 371.861 159.532C372.074 159.603 372.287 159.674 372.477 159.745C372.549 159.745 372.619 159.793 372.691 159.816C372.927 159.888 373.141 159.982 373.354 160.053C373.426 160.077 373.497 160.101 373.544 160.125C373.686 160.172 373.804 160.22 373.924 160.266C373.994 160.29 374.066 160.314 374.137 160.338C374.231 160.361 374.302 160.408 374.374 160.433C374.492 160.48 374.611 160.528 374.706 160.551C374.753 160.551 374.801 160.575 374.824 160.598C375.037 160.67 375.156 160.717 375.156 160.717C375.654 166.856 376.033 173.706 376.246 180.391C376.364 184.397 376.412 188.332 376.364 192.03C375.938 238.75 365.769 283.146 346.877 321.191C345.147 324.652 343.369 328.065 341.521 331.408C340.619 333.02 339.719 334.608 338.794 336.172C338.557 336.575 338.321 336.954 338.107 337.357C337.182 338.921 336.234 340.486 335.262 342.026C334.291 343.568 333.319 345.061 332.324 346.554C332.086 346.933 331.826 347.288 331.589 347.668C329.597 350.655 327.535 353.546 325.426 356.368C325.164 356.723 324.904 357.055 324.644 357.41C322.534 360.207 320.353 362.933 318.124 365.588C317.864 365.92 317.579 366.228 317.319 366.56C316.204 367.863 315.091 369.167 313.929 370.447L313.977 370.518ZM198.895 348.948V159.555C198.895 159.555 198.871 159.555 198.847 159.555C177.467 163.158 160.234 167.946 150.658 170.933C150.255 178.186 150.066 185.63 150.113 191.982C150.564 240.67 162.012 286.607 183.251 324.818C188.039 333.422 193.277 341.481 198.871 348.948H198.895Z" fill="black"/>
<path d="M150.658 170.933C150.255 178.187 150.066 185.63 150.112 191.982C150.564 240.67 162.012 286.608 183.251 324.818C188.039 333.422 193.277 341.482 198.871 348.948V159.555C177.467 163.158 160.234 167.947 150.658 170.933Z" fill="#003DA6"/>
<path d="M329.597 324.841C350.836 286.631 362.284 240.693 362.735 192.006C362.782 185.653 362.593 178.21 362.19 170.957C352.614 167.995 335.381 163.182 313.953 159.58V348.972C319.571 341.528 324.809 333.47 329.597 324.865V324.841Z" fill="#003DA6"/>
<path d="M359.701 249.393C336.187 245.6 313.857 266.364 297.171 305.926C288.092 327.473 284.607 341.386 281.455 358.714C275.766 358.761 266.949 358.714 266.949 358.714C266.949 358.714 268.584 347.218 272.424 330.861C276.24 314.53 291.624 273.594 297.171 254.109C297.952 251.408 298.545 248.753 298.996 246.145C305.822 206.441 276.667 179.893 256.424 166.548C236.157 179.893 206.977 206.441 213.829 246.145C214.279 248.776 214.847 251.431 215.63 254.109C221.177 273.618 236.56 314.53 240.4 330.861C244.217 347.218 245.876 358.714 245.876 358.714C245.876 358.714 237.034 358.761 231.369 358.714C228.192 341.386 224.709 327.496 215.63 305.926C198.966 266.364 176.637 245.623 153.099 249.393C150.919 249.748 148.785 250.316 146.724 251.075C151.701 275.941 159.689 299.478 170.522 320.906C170.592 320.906 170.64 320.883 170.711 320.883C182.374 319.034 193.775 322.139 201.857 329.558C214.374 341.054 214.421 358.69 214.421 358.69H194.51C200.507 366.251 206.907 373.196 213.615 379.431C225.537 379.431 238.717 379.431 242.581 379.431C241.632 385.001 237.604 390.074 231.867 394.08C239.784 399.508 248.009 404.035 256.424 407.543C264.839 404.059 273.064 399.531 280.957 394.103C275.221 390.098 271.167 385.001 270.219 379.431C274.084 379.431 287.31 379.431 299.232 379.431C305.941 373.196 312.341 366.275 318.337 358.69H298.356C298.356 358.69 298.404 341.054 310.942 329.558C319.025 322.139 330.379 319.034 342.065 320.883C342.16 320.883 342.231 320.906 342.326 320.93C353.159 299.501 361.171 275.964 366.149 251.099C364.039 250.316 361.905 249.748 359.701 249.393Z" fill="white"/>
<path d="M213.804 246.121C214.255 248.753 214.824 251.408 215.606 254.086C221.152 273.594 236.537 314.506 240.377 330.838C244.192 347.194 245.852 358.69 245.852 358.69H256.4V166.524C236.134 179.869 206.954 206.418 213.804 246.121Z" fill="#C1C5C8"/>
<path d="M478.196 316.64L393.384 287.389C395.612 277.481 396.797 267.17 396.797 256.575C396.797 233.036 390.99 210.826 380.75 191.341C380.797 181.908 380.347 170.459 379.517 160.456L379.304 157.73L376.744 156.781C376.483 156.688 364.276 152.208 344.815 147.514C320.684 127.934 289.941 116.201 256.447 116.201C222.954 116.201 192.187 127.934 168.057 147.514C148.619 152.208 136.389 156.688 136.127 156.781L133.567 157.73L133.354 160.456C132.524 170.459 132.074 181.908 132.122 191.341C121.882 210.826 116.051 233.036 116.051 256.575C116.051 267.17 117.259 277.458 119.464 287.366L34.6521 316.616C35.4106 319.413 36.2165 322.163 37.0698 324.913L121.597 295.756C134.492 340.154 168.72 375.473 212.43 389.884C225.632 401.309 239.926 410.198 254.836 416.148L256.424 416.788L258.012 416.148C272.922 410.198 287.215 401.286 300.418 389.884C344.127 375.473 378.356 340.154 391.251 295.781L475.778 324.936C476.631 322.186 477.437 319.413 478.196 316.64ZM256.424 124.781C280.317 124.781 303.239 131.111 323.292 142.939C304.566 139.478 282.309 136.705 258.842 136.705H256.424H254.03C230.564 136.705 208.306 139.454 189.556 142.939C209.609 131.088 232.531 124.781 256.424 124.781ZM163.221 349.778C138.332 324.888 124.607 291.798 124.607 256.575C124.607 240.669 127.429 225.191 132.786 210.708C135.677 255.508 147.552 297.676 167.511 333.588C175.831 348.545 185.431 362.056 196.027 373.789C184.08 367.603 173.011 359.568 163.221 349.778ZM161.372 300.688C162.272 302.939 163.197 305.168 164.169 307.395C163.221 305.191 162.272 302.939 161.372 300.688ZM164.169 307.419C166.16 311.994 168.27 316.498 170.498 320.883C168.27 316.474 166.16 311.994 164.169 307.419ZM232.27 394.388C233.124 394.981 233.977 395.549 234.83 396.118C234.284 395.763 233.716 395.408 233.171 395.028C232.862 394.815 232.578 394.601 232.27 394.388ZM256.424 407.568V379.313L242.581 379.455C241.632 385.025 237.579 390.098 231.867 394.128C226.699 390.571 221.651 386.661 216.767 382.346C200.862 368.314 186.64 350.394 175.002 329.44C173.461 326.643 171.944 323.821 170.498 320.954C170.569 320.954 170.64 320.93 170.711 320.906C182.374 319.058 193.775 322.163 201.858 329.581C211.174 338.139 213.591 350.086 214.207 355.656C210.297 306.566 179.339 286.109 158.575 293.41C147.269 262.643 141.177 228.723 140.726 193.404C140.726 192.978 140.726 192.551 140.726 192.124C140.679 187.431 140.774 182.168 140.987 176.811C141.152 172.498 141.39 168.16 141.698 163.988C144.282 163.111 148.738 161.665 154.687 159.958C159.524 158.583 165.354 157.019 171.991 155.455C193.135 150.453 222.457 145.333 254.054 145.333H256.447H258.866C290.462 145.333 319.784 150.453 340.927 155.455C347.564 157.019 353.396 158.583 358.231 159.958C364.181 161.665 368.637 163.111 371.221 163.988C371.529 168.16 371.766 172.521 371.932 176.835C372.146 182.193 372.24 187.455 372.192 192.148C372.192 192.575 372.192 193.001 372.192 193.451C371.742 228.77 365.627 262.69 354.344 293.434C333.579 286.181 302.646 306.636 298.759 355.703C299.375 350.133 301.792 338.186 311.109 329.629C319.191 322.21 330.569 319.105 342.255 320.954C342.302 320.954 342.374 320.954 342.421 320.978C340.975 323.846 339.482 326.69 337.917 329.488C326.279 350.441 312.057 368.361 296.151 382.394C290.866 387.063 285.39 391.306 279.749 395.075C272.234 400.124 264.459 404.32 256.495 407.638L256.424 407.568ZM234.854 396.118C235.826 396.758 236.797 397.375 237.792 397.968C236.821 397.351 235.826 396.735 234.854 396.118ZM237.887 398.038C238.836 398.608 239.784 399.176 240.709 399.745C239.76 399.2 238.812 398.631 237.887 398.038ZM244.027 401.641C244.88 402.091 245.71 402.541 246.564 402.993C245.71 402.541 244.88 402.115 244.027 401.641ZM247.132 403.276C247.938 403.68 248.744 404.083 249.526 404.486C248.72 404.083 247.914 403.703 247.132 403.276ZM250.237 404.818C251.019 405.196 251.802 405.553 252.607 405.908C251.826 405.553 251.019 405.196 250.237 404.818ZM354.226 293.505C353.396 295.756 352.542 298.008 351.642 300.236C352.519 298.008 353.396 295.756 354.226 293.505ZM351.476 300.663C348.702 307.585 345.644 314.341 342.35 320.906C345.669 314.341 348.702 307.608 351.476 300.663ZM349.604 349.778C339.814 359.568 328.767 367.603 316.797 373.789C327.392 362.056 336.992 348.545 345.312 333.588C365.271 297.676 377.147 255.508 380.039 210.731C385.396 225.215 388.217 240.693 388.217 256.598C388.217 291.798 374.516 324.888 349.604 349.801V349.778Z" fill="#C1C5C8"/>
</g>
<defs>
<clipPath id="clip0_795_4401">
<rect width="512" height="512" fill="white" transform="translate(0.42395 0.574707)"/>
</clipPath>
</defs>
</svg>
