<svg width="673" height="513" viewBox="0 0 673 513" fill="none" xmlns="http://www.w3.org/2000/svg">
<g clip-path="url(#clip0_879_3744)">
<path d="M596.263 162.287C596.263 162.287 604.666 155.074 613.454 155.233C622.264 155.37 628.344 158.324 631.654 161.848C631.654 161.848 638.658 160.891 646.265 162.978C653.862 165.078 664.594 171.351 668.774 178.653C672.949 185.968 673.434 194.376 669.095 202.33C669.095 202.33 670.534 207.739 666.984 214.448C663.402 221.174 657.562 224.666 657.562 224.666C657.562 224.666 653.565 234.605 643.139 239.226C632.692 243.854 618.975 238.627 618.975 238.627C618.975 238.627 611.207 240.142 605.348 240.142C599.445 240.13 591.207 237.596 588.677 236.404C588.677 236.404 581.68 246.674 579.73 249.124C579.73 249.124 589.285 257.44 599.739 260.715C610.172 263.988 618.376 265.488 623.16 268.908C627.901 272.361 629.729 275.711 629.729 275.711C629.729 275.711 637.022 274.576 644.023 276.227C651.039 277.873 659.223 283.385 664.599 290.71C669.97 298.024 673.249 307.41 671.012 316.346C668.776 325.311 663.664 328.569 663.664 328.569C663.664 328.569 661.173 336.803 656.097 341.86C651.04 346.964 643.814 347.291 643.814 347.291C643.814 347.291 639.85 352.615 629.56 354.248C619.277 355.894 611.912 350.202 611.912 350.202C611.912 350.202 603.784 351.123 592.723 347.687C581.694 344.269 574.14 332.956 574.14 332.956C574.14 332.956 566.955 329.5 553.672 328.89C540.394 328.286 510.745 322.32 497.545 314.64C497.545 314.64 489.781 318.39 466.255 319.608C466.255 319.608 462.768 308.98 455.948 303.652C455.948 303.652 435.725 314.877 429.334 317.842C422.913 320.838 411.042 326.007 400.712 326.633C400.712 326.633 398.004 343.504 393.073 352.614C388.162 361.728 378.706 368.498 370.699 371.153C370.699 371.153 382.353 375.29 388.485 384.388C394.582 393.504 396.675 403.491 392.505 411.544C388.321 419.603 383.607 421.792 383.607 421.792C383.607 421.792 381.214 429.927 371.799 434.152C362.372 438.381 350.526 436.142 350.526 436.142C350.526 436.142 343.967 439.6 334.985 439.53C325.988 439.45 314.717 431.797 314.717 431.797C314.717 431.797 285.229 434.496 276.453 433.759C267.682 433.051 257.294 429.41 252.342 416.45C252.342 416.45 246.955 420.951 238.916 424.834C230.865 428.713 215.613 436.192 204.656 444L205.021 449.826C205.021 449.826 221.037 455.861 222.064 472.267C223.117 488.683 214.154 494.772 211.611 496.511C211.611 496.511 208.203 503.915 200.892 507.637C193.591 511.354 185.518 509.64 185.518 509.64C185.518 509.64 167.509 517.637 153.783 504.5C140.05 491.38 143.936 477.207 144.096 473.76C144.23 470.342 145.23 440.263 145.088 438.867C145.088 438.867 138.272 429.752 139.761 419.453C141.253 409.165 149.154 402.735 152.873 399.612C156.615 396.471 161.088 391.269 163.306 383.357C165.538 375.457 165.694 359.316 166.442 353.357C167.198 347.387 167.509 337.387 167.509 337.387C167.509 337.387 140.519 329.942 126.492 314.272C112.471 298.599 108.585 287.257 104.99 271.761C101.437 256.245 98.9103 240.566 84.6625 231.771C84.6625 231.771 75.3327 234.443 64.6136 230.118C53.8818 225.797 47.3096 217.142 40.4598 208.637C33.596 200.132 9.16607 196.253 0.485352 195.811C0.485352 195.811 18.8253 175.509 43.5875 166.856C68.3343 158.216 80.1119 161.631 88.3173 166.263C96.5256 170.891 102.972 178.68 106.008 189.262C106.008 189.262 122.147 196.244 133.199 209.238C144.23 222.205 149.447 233.698 153.04 247.869C156.615 262.059 161.115 279.244 189.561 285.488C189.561 285.488 206.417 268.623 212.805 264.424C219.236 260.263 227.272 257.897 229.591 257.216C231.894 256.534 242.732 253.006 242.732 253.006C242.732 253.006 259.761 239.11 262.536 236.335C262.536 236.335 268.885 225.048 272.909 218.485C276.936 211.921 283.238 205.412 283.238 205.412C283.238 205.412 274.971 190.041 275.428 173.219C275.428 173.219 279.498 175.068 283.141 175.597C283.141 175.597 282.892 163.139 290.957 151.648C299.004 140.138 307.13 132.936 307.13 132.936C307.13 132.936 306.516 117.801 315.683 103.46C315.683 103.46 308.698 92.2609 308.098 85.1013C308.098 85.1013 319.726 84.0569 328.524 81.5194C337.331 78.9847 341.644 77.2043 346.123 71.8083C350.591 66.4445 361.32 53.3155 374.896 46.8919C388.482 40.4809 403.53 38.1495 414.338 39.0032C414.338 39.0032 407.709 33.3128 400.376 30.9352C400.376 30.9352 412.881 21.7231 437.495 19.0931C437.495 19.0931 437.678 6.61739 440.339 0.0507812C440.339 0.0507812 473.021 22.4283 489.408 28.8547C505.815 35.2811 517.731 37.3588 526.236 41.5477C534.707 45.703 540.731 53.4052 542.115 58.1479C542.115 58.1479 551.273 61.6696 558.283 66.6001C565.283 71.5195 569.346 83.3966 569.346 83.3966C569.346 83.3966 582.591 88.6833 596.316 97.0317C610.021 105.384 626.857 122.997 626.857 122.997C626.857 122.997 616.248 127.671 607.241 140.699C607.241 140.699 603.098 155.158 596.267 162.281" fill="#B0B7BC"/>
<path d="M577.093 168.318C577.093 168.318 583.269 168.196 588.677 169.705C594.108 171.223 597.536 173.003 597.536 173.003C597.536 173.003 601.527 170.469 603.56 168.709C605.572 166.92 611.634 163.786 617.038 164.662C622.469 165.545 626.301 169.416 627.303 171.066C627.303 171.066 631.931 171.346 636.216 171.107C640.508 170.84 648.453 172.353 654.747 177.405C661.082 182.451 666.853 189.908 659.166 199.861C659.166 199.861 660.813 206.176 658.541 210.712C656.272 215.271 650.404 217.751 650.404 217.751C650.404 217.751 646.793 228.52 638.356 231.288C629.905 234.078 619.304 228.874 619.304 228.874C619.304 228.874 609.36 231.288 602.16 230.792C594.977 230.278 587.117 224.204 587.117 224.204C587.117 224.204 585.39 225.235 583.766 227.618C582.111 230.027 569.736 247.383 566.852 250.44C566.852 250.44 578.961 262.211 590.937 267.117C602.924 272.031 608.971 272.815 612.144 273.677C615.277 274.574 622.214 278.481 624.752 286.066C624.752 286.066 632.452 284.148 637.481 284.542C642.531 284.915 647.447 285.917 656.274 295.002C665.099 304.089 663.09 312.307 661.699 316.078C660.316 319.841 655.067 323.109 655.067 323.109C655.067 323.109 654.629 330.717 650.084 334.76C645.538 338.782 639.382 338.091 639.382 338.091C639.382 338.091 636.971 342.69 630.676 344.606C624.353 346.501 617.55 343.198 614.376 340.682C614.376 340.682 601.397 341.825 592.962 337.652C584.529 333.492 580.559 325.324 580.559 325.324C580.559 325.324 566.245 319.468 551.355 319.346C536.479 319.226 507.664 311.174 498.224 304.282C498.224 304.282 483.896 310.814 472.35 310.986C472.35 310.986 468.785 300.171 456.296 292.663C456.296 292.663 429.536 307.501 419.951 311.917C410.375 316.333 393.508 317.934 391.041 318.201C391.041 318.201 392.088 322.252 390.845 328.822C389.539 335.377 385.53 348.264 382.129 352.552C378.704 356.841 369.248 362.13 363.712 364.154C358.169 366.176 351.237 367.949 345.408 370.835C339.627 373.745 332.561 379.65 329.47 382.437C329.47 382.437 338.399 384.698 341.09 384.58C343.775 384.477 348.575 381.805 352.118 380.436C355.658 379.034 365.604 377.14 373.553 383.079C381.499 389.008 385.655 396.694 385.383 402.521C385.158 408.316 381.394 412.533 375.843 415.405C375.843 415.405 374.186 423.597 367.26 426.112C360.293 428.629 348.756 426.347 348.756 426.347C348.756 426.347 343.28 429.903 336.722 430.268C330.168 430.656 321.347 424.977 319.959 424.224C318.554 423.454 317.182 422.713 314.776 422.713C312.365 422.713 286.417 424.861 278.342 424.861C270.279 424.861 264.732 420.932 261.322 414.633C257.916 408.316 262.692 398.223 265.74 394.206C268.747 390.143 273.562 384.592 274.165 383.451C274.802 382.315 274.946 380.436 273.3 379.295C271.659 378.16 266.394 375.562 266.394 375.562C266.394 375.562 258.417 391.545 255.398 396.958C252.363 402.382 248.451 408.438 240.896 413.11C233.319 417.784 217.295 424.859 208.866 430.024C200.403 435.188 195.395 439.958 195.395 439.958C195.395 439.958 195.482 455.166 195.941 457.039C195.941 457.039 203.555 458.54 206.6 461.184C209.631 463.848 212.639 468.135 212.511 474.064C212.406 479.993 211.613 486.969 204.229 489.726C204.229 489.726 202.167 497.405 196.378 499.671C190.571 501.948 184.636 499.932 184.636 499.932C184.636 499.932 176.708 503.954 168.38 502.199C160.063 500.437 153.123 491.867 152.996 483.14C152.875 474.423 154.371 442.893 154.371 440.852C154.371 438.838 154.371 436.698 152.875 433.932C151.354 431.154 147.813 424.221 148.718 419.794C149.597 415.378 154.127 410.198 158.291 406.659C162.449 403.134 167.511 399.61 170.023 392.531C172.534 385.487 174.679 375.764 174.944 368.305C175.198 360.877 176.101 336.649 177.734 330.088C177.734 330.088 146.432 323.138 132.314 306.99C118.2 290.832 115.796 277.956 111.762 260.676C107.725 243.38 102.573 230.158 86.1322 221.555C86.1322 221.555 77.3225 225.848 65.9977 220.93C54.6379 216.005 48.4513 203.134 42.4132 198.573C36.3583 194.043 19.8814 191.436 16.5869 191.53C16.5869 191.53 36.2181 177.899 49.7242 173.86C63.2121 169.827 77.858 168.566 87.0504 175.894C96.2471 183.184 97.6336 195.824 97.6336 195.824C97.6336 195.824 116.561 203.647 127.538 217.14C138.512 230.652 141.759 243.252 143.912 251.713C146.066 260.168 152.719 277.071 163.392 284.529C174.069 291.993 186.586 295.129 193.109 295.571C193.109 295.571 211.52 276.324 217.83 272.153C224.115 267.991 231.186 266.339 234.195 265.465C237.234 264.594 247.721 261.114 247.721 261.114C247.721 261.114 266.278 245.125 269.843 242.366C269.843 242.366 280.606 223.707 283.63 219.278C286.672 214.87 294.792 204.492 294.792 204.492C294.792 204.492 287.352 195.995 287.446 184.995C287.446 184.995 291.83 185.867 294.604 185.595C294.604 185.595 290.959 179.417 292.73 170.704C294.499 161.998 303.931 147.858 316.552 136.996C316.552 136.996 316.053 127.8 318.69 119.115C321.35 110.391 326.728 103.429 326.728 103.429C326.728 103.429 320.973 96.3041 320.064 90.7175C320.064 90.7175 330.936 89.6969 338.505 87.1888C346.064 84.6429 352.121 79.282 352.121 79.282C352.121 79.282 366.604 59.2793 384.253 52.9678C401.937 46.6564 419.94 48.6065 419.94 48.6065C419.94 48.6065 428.87 42.7927 432.551 41.5127C432.551 41.5127 425.542 33.6185 419.729 31.1889C419.729 31.1889 433.344 27.0743 445.886 28.0374C445.886 28.0374 446.116 19.3076 447.541 14.2383C447.541 14.2383 469.4 30.0183 479.369 34.419C489.324 38.835 508.354 45.1493 514.804 47.1765C521.229 49.1897 532.136 53.3828 534.44 65.0342C534.44 65.0342 545.042 69.4993 549.221 71.7775C553.385 74.057 557.678 79.4838 558.551 81.7564C559.411 84.0121 560.291 86.8173 561.376 88.5655C562.467 90.3305 564.333 91.5796 566.105 92.1993C567.877 92.847 585.395 100.667 593.484 106.723C601.534 112.803 612.531 123.262 612.531 123.262C612.531 123.262 601.59 131.993 598.899 136.021C598.899 136.021 595.625 147.002 590.333 154.809C585.017 162.632 577.099 165.685 577.099 165.685V168.318" fill="#FFFFFE"/>
<path d="M553.621 250.806C553.621 250.806 524.93 279.733 499.035 293.699C499.035 293.699 486.968 299.402 477.596 300.748C477.596 300.748 470.227 286.67 455.488 282.308C455.488 282.308 424.271 270.351 379.138 279.755C379.138 279.755 422.077 276.614 443.587 289.025C433.785 294.453 420.388 301.645 413.283 304.421C401.221 309.12 385.501 308.793 379.445 309.797C379.445 309.797 382.469 320.516 382.124 323.868C381.799 327.209 378.452 343.99 372.768 348.678C367.062 353.355 352.323 358.047 344.625 360.752C336.925 363.412 319.832 374.143 314.471 388.887C314.471 388.887 334.575 393.262 339.929 393.906C345.293 394.572 350.313 391.563 354.01 389.9C357.686 388.208 362.368 387.203 367.401 390.227C372.419 393.264 374.774 397.608 375.773 400.959C376.781 404.305 373.11 407.309 367.062 408.334C367.062 408.334 367.739 415.375 364.06 417.037C360.363 418.711 351.325 417.719 346.284 416.025C346.284 416.025 342.963 420.741 335.917 420.741C328.89 420.741 324.187 413.355 316.828 413.022C309.461 412.689 286.347 415.703 277.968 415.041C269.589 414.363 268.93 409.344 270.604 404.635C272.285 399.959 282.657 389.565 284.336 384.86C285.785 380.777 287.069 373.635 270.342 366.978C271.062 366.089 283.116 351.202 302.055 339.776C320.598 328.608 339.009 318.179 360.575 311.31C351.878 312.152 338.551 315.394 321.153 322.738C295.006 333.815 279.957 348.116 279.957 348.116C279.957 348.116 281.892 340.562 304.494 320.466L304.26 320.627C273.364 334.708 260.454 366.504 260.222 366.996C256.327 374.94 245.547 396.595 241.452 400.96C236.44 406.318 222.379 411.348 212.002 417.371C201.598 423.409 188.201 431.128 186.526 436.143C184.848 441.18 186.891 463.95 187.533 465.313C187.533 465.313 199.268 466.311 201.598 469.325C203.939 472.338 203.634 478.367 202.257 480.051C200.937 481.745 195.905 481.745 195.905 481.745C195.905 481.745 196.24 488.416 192.888 490.432C189.543 492.465 182.177 489.447 182.177 489.447C182.177 489.447 180.159 492.465 175.147 493.114C170.129 493.796 166.437 491.801 164.09 488.1C161.744 484.41 162.762 479.384 162.762 475.349C162.762 471.333 164.419 443.175 163.75 436.472C163.101 429.786 157.39 425.092 158.397 420.72C159.403 416.377 171.786 409.318 175.8 401.95C179.833 394.57 183.518 384.856 184.506 367.782C185.513 350.683 185.513 334.915 188.2 326.211C188.543 325.115 188.873 324.077 189.172 323.064C178.288 321.014 154.991 314.6 144.098 305.063C131.836 294.366 126.364 283.66 123.747 269.837C121.139 255.986 115.549 240.375 109.938 230.415C104.08 220.102 86.1904 210.845 86.1904 210.845C86.1904 210.845 78.2064 217.281 67.7102 211.451C55.9747 204.959 54.7663 200.957 50.6572 195.529C47.0024 190.74 39.84 189.309 37.8955 188.985C62.4853 179.393 74.6582 192.613 74.6582 192.613C74.6582 192.613 74.0385 185.965 64.5699 183.522C61.7212 182.763 58.1884 181.908 54.3064 181.551C56.1612 180.838 57.8589 180.266 59.1094 179.945C63.2507 178.909 73.0067 177.89 80.4355 182.908C87.3456 187.579 89.82 201.709 89.82 201.709C93.2084 203.795 113.292 213.795 119.824 222.148C126.364 230.511 131.056 239.036 133.92 250.258C136.794 261.49 140.697 277.939 157.389 291.774C170.204 302.366 189.12 304.844 197.251 305.419C197.58 304.976 197.896 304.54 198.249 304.09C203.937 296.71 221.03 280.636 226.035 278.3C231.06 275.949 251.172 270.897 253.52 268.571C255.874 266.244 275.635 250.459 277.298 248.12C278.982 245.792 288.021 229.687 293.374 221.63C298.728 213.593 312.143 198.866 312.143 198.866C312.143 198.866 300.769 198.51 297.767 193.482C297.767 193.482 310.177 188.02 311.286 180.984C311.924 176.826 309.061 173.836 300.651 177.294C300.651 177.294 301.736 169.357 308.774 159.306C315.833 149.253 329.14 138.091 334.574 134.17C341.293 129.318 343.62 123.118 341.938 119.765C340.258 116.396 332.886 116.062 327.853 121.778C327.853 121.778 332.565 107.694 341.265 101.677C341.265 101.677 334.886 100.324 332.565 95.2818C332.565 95.2818 342.27 95.6252 348.976 91.9256C355.681 88.2581 373.108 77.2082 379.786 76.8675C379.786 76.8675 374.425 74.1688 366.062 77.2082C366.062 77.2082 378.891 61.7828 398.549 58.763C418.228 55.7447 435.718 61.1042 443.755 57.42C443.755 57.42 440.074 52.7418 431.36 52.7418C431.36 52.7418 442.091 46.356 448.791 46.356C448.791 46.356 443.101 39.652 435.042 36.6309C435.042 36.6309 452.46 37.3094 458.837 40.3277C458.837 40.3277 454.462 35.3046 455.157 29.5918C455.157 29.5918 468.557 41.6554 488.302 48.3692C508.063 55.0718 520.134 57.4186 523.483 62.7711C526.833 68.1377 524.827 71.1547 524.827 71.1547C524.827 71.1547 539.219 77.2082 544.251 79.855C549.273 82.5523 551.277 88.5848 551.942 90.612C552.616 92.5971 555.979 98.3113 558.642 99.3207C561.328 100.325 576.072 106.693 584.089 111.719C592.141 116.751 599.837 123.787 599.837 123.787C599.837 123.787 592.142 128.132 590.485 131.829C588.796 135.507 585.435 153.265 571.035 157.959C571.035 157.959 575.382 150.586 572.076 143.219C572.076 143.219 554.967 142.208 542.897 149.597C542.897 149.597 540.727 164.011 548.43 168.047C556.131 172.06 564.997 159.965 566.019 157.286C566.019 157.286 565.763 164.078 566.019 168.658L568.074 168.991C568.56 173.825 567.691 180.758 567.691 180.758C567.691 180.758 573.377 176.397 582.774 178.074C592.142 179.738 594.485 182.763 597.513 182.763C600.531 182.763 606.538 178.748 608.535 176.732C610.568 174.726 613.931 173.37 616.931 174.385C619.942 175.391 621.619 180.09 621.619 180.09C621.619 180.09 633.026 181.095 636.702 180.412C640.374 179.736 647.74 183.775 649.753 185.441C651.759 187.122 654.117 189.811 653.42 191.831C652.771 193.82 648.065 196.846 648.065 196.846C648.065 196.846 650.757 202.209 650.412 205.55C650.082 208.909 643.047 210.24 643.047 210.24C643.047 210.24 640.706 219.295 636.353 221.626C632.018 223.981 619.599 218.96 619.599 218.96C619.599 218.96 612.225 221.626 603.869 221.313C595.497 220.977 590.791 214.601 590.791 214.601C590.791 214.601 584.436 213.589 579.392 217.954C574.402 222.323 564.015 241.421 553.621 250.801V250.806ZM483.454 194.438C495.341 207.249 486.807 218.926 486.807 218.926C499.179 216.344 534.192 203.554 553.285 188.128C553.285 188.128 539.476 180.758 529.504 180.196C520.617 179.69 515.15 189.428 514.537 199.031C507.378 203.415 497.142 205.451 497.142 205.451L497.17 205.267C497.418 203.716 498.669 192.212 484.682 185.033C470.067 177.526 441.585 172.709 410.824 189.359C441.585 177.793 473.887 184.161 483.454 194.44V194.438ZM361.164 190.65C381.031 185.946 393.533 174.626 404.105 169.462C416.231 163.526 432.375 158.077 453.597 161.218C453.597 161.218 423.39 148.525 394.81 163.713C366.233 178.883 352.571 187.036 323.737 188.053C323.737 188.053 340.201 195.606 361.164 190.649V190.65ZM433.294 129.724C403.496 124.29 383.722 143.436 383.722 143.436C383.722 143.436 406.149 134.459 430.05 136.969C453.919 139.48 476.326 157.537 476.326 157.537C476.326 157.537 463.082 135.168 433.294 129.724ZM534.045 98.0338C531.094 98.0338 520.522 100.458 520.522 100.458C520.522 100.458 530.809 102.631 533.533 104.529C536.236 106.421 544.878 112.925 544.878 112.925C544.878 112.925 542.731 110.215 543.24 108.862C543.794 107.518 547.575 102.343 547.575 102.343C543.24 102.075 537.027 98.0323 534.044 98.0323L534.045 98.0338ZM653.42 309.12C654.437 313.474 649.753 316.162 645.733 316.162C645.733 316.162 646.747 325.542 643.375 327.89C640.03 330.227 633.674 326.87 633.674 326.87C633.674 326.87 633.336 333.585 628.315 335.253C623.297 336.927 617.263 330.899 617.263 330.899C617.263 330.899 605.525 332.926 597.513 329.225C589.473 325.541 587.785 318.175 587.785 318.175C587.785 318.175 574.711 312.15 561.994 310.812C551.09 309.644 527.548 308.453 507.627 298.945C515.883 294.052 528.059 286.406 537.604 278.534C546.777 270.96 555.06 262.848 560.428 257.285C566.452 262.76 575.383 270.184 582.774 273.604C595.155 279.294 604.213 281.655 608.217 282.307C612.225 282.967 615.26 287.344 616.244 289.681C617.263 292.026 621.289 295.705 625.979 295.384C630.673 295.041 636.704 292.364 642.052 295.384C647.395 298.398 652.435 304.753 653.42 309.12Z" fill="#0076B6"/>
</g>
<defs>
<clipPath id="clip0_879_3744">
<rect width="671.649" height="512" fill="white" transform="translate(0.485107 0.0507812)"/>
</clipPath>
</defs>
</svg>
