<svg width="1025" height="290" viewBox="0 0 1025 290" fill="none" xmlns="http://www.w3.org/2000/svg">
<g clip-path="url(#clip0_9_1012)">
<path d="M315.875 129.999L332.513 110.16C343.146 118.608 354.993 123.06 367.467 123.06C375.477 123.06 379.804 120.305 379.804 115.69V115.395C379.804 110.943 376.259 108.482 361.625 105.107C338.681 99.8719 320.959 93.422 320.959 71.2919V70.9914C320.959 51.0155 336.84 36.5752 362.702 36.5752C381.05 36.5752 395.359 41.4846 407.075 50.8777L392.14 71.9369C382.265 65.0236 371.5 61.3228 361.951 61.3228C354.699 61.3228 351.18 64.4037 351.18 68.2361V68.5304C351.18 73.4461 354.887 75.6065 369.822 78.9817C394.632 84.3483 410.024 92.3387 410.024 112.484V112.778C410.024 134.751 392.628 147.814 366.44 147.814C347.341 147.814 329.156 141.821 315.931 129.999M418.303 117.255V62.8632H447.571V107.887C447.571 116.955 452.331 121.87 459.425 121.87C466.514 121.87 471.599 116.955 471.599 107.887V62.8632H500.868V146.004H471.605V134.639C466.22 141.552 458.511 147.864 446.657 147.864C428.936 147.864 418.309 136.179 418.309 117.28M516.567 62.8319H545.835V74.5232C551.221 67.6161 558.923 60.9971 570.777 60.9971C588.499 60.9971 599.132 72.6884 599.132 91.581V145.979H569.857V100.955C569.857 91.8753 565.097 86.9658 558.147 86.9658C551.196 86.9658 545.835 91.8815 545.835 100.949V145.973H516.56V62.8444L516.567 62.8319ZM610.817 104.788V104.487C610.817 80.9731 629.158 61.1349 655.484 61.1349C672.585 61.1349 683.97 68.5053 691.058 79.7332L671.201 94.474C667.2 88.9384 662.735 85.7259 655.647 85.7259C646.26 85.7259 639.334 94.0106 639.334 104.161V104.462C639.334 115.233 646.097 123.355 655.972 123.355C662.898 123.355 667.363 120.142 671.984 114.744L691.547 128.89C683.838 140.256 672.742 147.946 654.432 147.946C629.321 147.946 610.848 128.27 610.848 104.756M696.174 104.788V104.487C696.174 80.8165 715.574 60.9971 742.382 60.9971C769.196 60.9971 788.295 80.5159 788.295 104.193V104.487C788.295 128.158 768.895 147.971 742.088 147.971C715.274 147.971 696.174 128.458 696.174 104.781V104.788ZM759.778 104.788V104.487C759.778 94.3425 752.395 85.7259 742.056 85.7259C731.724 85.7259 724.66 94.1797 724.66 104.161V104.462C724.66 114.606 732.05 123.223 742.382 123.223C752.721 123.223 759.778 114.769 759.778 104.781V104.788ZM796.436 122.171V121.87C796.436 104.65 809.53 95.739 829.092 95.739C836.801 95.739 844.353 97.2794 849.112 98.9827V97.605C849.112 88.9947 843.727 84.079 832.474 84.079C823.707 84.079 816.919 85.7823 809.53 88.6942L803.525 68.0983C812.911 64.2659 822.924 61.6484 837.264 61.6484C851.598 61.6484 862.369 65.1865 868.994 71.7929C875.3 77.9548 877.924 86.5651 877.924 98.2187V146.029H848.974V137.419C843.27 143.706 835.423 147.864 824.49 147.864C808.641 147.864 796.467 138.797 796.467 122.19M849.463 115.903V112.07C846.545 110.83 842.374 109.91 838.072 109.91C829.606 109.91 824.684 114.068 824.684 120.224V120.518C824.684 126.216 829.011 129.592 834.991 129.592C843.458 129.592 849.463 124.219 849.463 115.903ZM886.553 135.534L897.48 117.85C907.03 124.137 917.5 127.375 926.129 127.375C931.22 127.375 933.518 125.841 933.518 122.929V122.628C933.518 119.416 928.891 118.013 920.124 115.552C903.648 111.231 890.554 105.702 890.554 88.9634V88.6691C890.554 70.9914 904.732 61.16 923.994 61.16C936.167 61.16 948.804 64.698 958.353 70.8536L948.34 89.289C939.711 84.5111 930.325 81.5993 923.699 81.5993C919.234 81.5993 916.93 83.2712 916.93 85.5882V85.8888C916.93 89.1012 921.695 90.6416 930.487 93.2592C946.963 97.8743 960.057 103.541 960.057 119.685V119.979C960.057 138.283 946.343 147.783 926.023 147.783C912.008 147.783 898.157 143.788 886.603 135.503M975.587 120.173V86.3459H965.743V62.8382H975.587V41.7789H1004.86V62.8382H1024.26V86.3459H1004.86V114.475C1004.86 120.305 1007.49 122.76 1012.87 122.76C1016.71 122.76 1020.42 121.683 1023.96 120.004V142.898C1018.71 145.816 1011.79 147.676 1003.62 147.676C986.057 147.676 975.587 139.987 975.587 120.173ZM322.443 209.846V209.595C322.443 186.47 339.764 167.327 363.898 167.327C378.745 167.327 387.65 172.587 395.847 180.289L389.516 187.058C382.615 180.527 374.882 175.855 363.76 175.855C345.6 175.855 332.049 190.571 332.049 209.357V209.602C332.049 228.525 345.738 243.341 363.76 243.341C374.988 243.341 382.371 239.021 390.217 231.544L396.304 237.512C387.756 246.153 378.395 251.87 363.541 251.87C339.896 251.87 322.475 233.303 322.475 209.846M409.78 190.108H418.785V205.876C423.225 195.831 432.017 188.599 443.489 189.056V198.75H442.787C429.556 198.75 418.785 208.224 418.785 226.415V250.468H409.78V190.083V190.108ZM480.122 244.074C488.425 244.074 494.274 240.668 499.196 235.539L504.819 240.561C498.732 247.337 491.349 251.895 479.877 251.895C463.264 251.895 449.682 239.158 449.682 220.372C449.682 202.851 461.968 188.843 478.713 188.843C496.622 188.843 506.929 203.095 506.929 220.829C506.929 221.644 506.929 222.583 506.823 223.986H458.831C460.127 236.729 469.489 244.074 480.122 244.074ZM497.787 216.728C496.735 205.738 490.398 196.401 478.468 196.401C468.055 196.401 460.102 205.043 458.806 216.728H497.787ZM518.051 220.479V220.26C518.051 200.534 532.447 188.843 546.944 188.843C558.172 188.843 565.448 194.917 570.132 201.693V165.248H579.137V250.493H570.132V238.344C565.235 245.583 558.065 251.764 546.944 251.764C532.441 251.764 518.051 240.317 518.051 220.454M570.483 220.341V220.103C570.483 206.201 559.825 196.858 548.597 196.858C537.369 196.858 527.306 205.5 527.306 220.103V220.341C527.306 234.593 537.125 243.692 548.597 243.692C560.069 243.692 570.483 234.243 570.483 220.341ZM599.514 167.007H609.821V176.939H599.514V167.007ZM600.108 190.139H609.113V250.499H600.108V190.139ZM633.247 234.487V198.042H624.806V190.108H633.247V171.885H642.252V190.108H661.433V198.048H642.252V233.328C642.252 240.693 646.366 243.367 652.428 243.367C655.459 243.367 658.051 242.803 661.22 241.262V248.984C658.051 250.631 654.67 251.551 650.343 251.551C640.63 251.551 633.247 246.767 633.247 234.487ZM703.939 216.271V168.736H713.188V215.676C713.188 233.303 722.55 243.235 738.243 243.235C753.935 243.235 762.94 234.136 762.94 216.271V168.736H772.196V215.563C772.196 239.396 758.507 251.758 738.024 251.758C717.547 251.758 703.964 239.365 703.964 216.264M792.541 190.108H801.552V200.609C805.528 194.078 811.859 188.818 822.273 188.818C836.907 188.818 845.461 198.612 845.461 212.977V250.468H836.45V215.212C836.45 204.01 830.364 196.99 819.706 196.99C809.041 196.99 801.552 204.579 801.552 215.914V250.468H792.541V190.083V190.108ZM864.911 165.279H875.219V175.217H864.911V165.279ZM865.506 188.417H874.517V248.771H865.506V188.417ZM891.694 220.585V220.372C891.694 203.308 905.032 188.843 923.292 188.843C941.552 188.843 954.784 203.095 954.784 220.128V220.372C954.802 224.533 953.992 228.655 952.403 232.5C950.814 236.344 948.476 239.835 945.526 242.768C942.577 245.702 939.073 248.02 935.22 249.588C931.366 251.156 927.24 251.942 923.079 251.902C904.844 251.902 891.694 237.643 891.694 220.585ZM945.535 220.585V220.372C945.535 207.41 935.823 196.777 923.048 196.777C910.28 196.777 900.918 207.416 900.918 220.128V220.372C900.918 233.328 910.524 243.855 923.267 243.855C936.01 243.855 945.504 233.328 945.504 220.617M971.072 190.108H980.083V200.609C984.059 194.078 990.39 188.818 1000.8 188.818C1015.44 188.818 1023.99 198.612 1023.99 212.977V250.468H1014.98V215.212C1014.98 204.01 1008.89 196.99 998.236 196.99C987.578 196.99 980.083 204.579 980.083 215.914V250.468H971.072V190.083V190.108Z" fill="#25272D"/>
<path d="M0.262207 144.814C0.262207 64.973 65.1369 0.210938 145.166 0.210938C225.195 0.210938 290.094 64.9417 290.094 144.814C290.094 224.693 225.22 289.392 145.166 289.392C65.1119 289.392 0.262207 224.661 0.262207 144.814Z" fill="#FFE115"/>
<path d="M0.262207 144.838C0.262207 75.0417 56.965 18.4829 126.906 18.4829C196.84 18.4829 253.518 75.0604 253.518 144.838C253.518 214.623 196.809 271.175 126.899 271.175C56.9963 271.169 0.262207 214.585 0.262207 144.838Z" fill="#FAC934"/>
<path d="M37.709 144.813C37.709 85.3491 86.0206 37.1377 145.623 37.1377C205.225 37.1377 253.543 85.3491 253.543 144.813C253.543 204.284 205.225 252.489 145.623 252.489C86.0206 252.489 37.709 204.29 37.709 144.813Z" fill="#F7943E"/>
<path d="M37.709 144.812C37.709 95.1733 78.0428 54.9209 127.795 54.9209C177.547 54.9209 217.887 95.1733 217.887 144.812C217.887 194.452 177.547 234.698 127.795 234.698C78.0428 234.698 37.709 194.458 37.709 144.812Z" fill="#EB762A"/>
<path d="M89.9214 144.813C89.9214 109.558 118.539 80.978 153.876 80.978C189.206 80.978 217.855 109.564 217.855 144.813C217.855 180.069 189.237 208.655 153.876 208.655C118.514 208.655 89.9214 180.069 89.9214 144.813Z" fill="#E05D24"/>
</g>
<defs>
<clipPath id="clip0_9_1012">
<rect width="1024" height="289.181" fill="white" transform="translate(0.260742 0.209961)"/>
</clipPath>
</defs>
</svg>
