<svg width="526" height="513" viewBox="0 0 526 513" fill="none" xmlns="http://www.w3.org/2000/svg">
<g clip-path="url(#clip0_820_495)">
<path d="M432.906 0.0507812H93.7607C42.403 0.0507812 0.769287 41.6845 0.769287 93.0422V419.059C0.769287 470.417 42.403 512.051 93.7607 512.051H432.906C484.264 512.051 525.898 470.417 525.898 419.059V93.0422C525.898 41.6845 484.264 0.0507812 432.906 0.0507812Z" fill="#000B1D"/>
<path d="M258.776 317.892V354.177C258.918 355.194 258.718 356.231 258.208 357.123C257.698 358.015 256.907 358.713 255.959 359.108C249.061 361.51 241.91 363.106 234.646 363.864C225.582 364.957 216.459 365.486 207.33 365.45C194.206 365.511 181.127 363.913 168.404 360.694C156.491 357.705 145.133 352.829 134.762 346.25C124.765 339.889 115.945 331.844 108.694 322.472C101.177 312.63 95.4531 301.54 91.7853 289.711C87.7189 275.892 85.803 261.53 86.1048 247.129C86.1048 223.411 90.9594 202.875 101.296 184.909C111.605 166.967 126.903 152.404 145.33 142.989C164.353 133.009 187.657 127.374 213.962 127.374C223.083 127.284 232.2 127.755 241.263 128.783C247.407 129.55 253.432 131.073 259.202 133.317C259.844 133.802 260.346 134.449 260.656 135.192C260.965 135.934 261.072 136.746 260.964 137.544L260.876 176.631C260.876 178.745 260.05 179.449 258.41 178.745C251.811 175.709 244.813 173.633 237.626 172.579C229.119 171.25 220.52 170.602 211.91 170.642C196.173 170.642 182.669 173.813 171.398 180.154C160.383 186.236 151.338 195.342 145.33 206.398C138.968 218.619 135.817 232.256 136.171 246.029C135.976 255.838 137.465 265.609 140.575 274.915C143.291 282.755 147.409 290.036 152.729 296.404C157.627 302.295 163.605 307.197 170.342 310.847C176.953 314.536 184.013 317.358 191.345 319.244C198.438 320.968 205.71 321.855 213.009 321.886C220.836 321.931 228.659 321.579 236.45 320.829C243.113 320.027 249.66 318.45 255.958 316.131C256.893 315.427 257.598 315.251 258.072 315.603C258.351 315.909 258.559 316.273 258.681 316.669C258.802 317.065 258.835 317.483 258.776 317.892Z" fill="white"/>
<path d="M358.8 184.02C376.177 184.02 390.21 187.19 400.897 193.531C411.581 199.872 418.811 207.035 423.979 217.835C429.264 229.191 431.913 241.595 431.729 254.119V322.108C431.729 326.572 431.787 330.799 431.905 334.79C432.02 338.786 432.197 342.896 432.434 347.119C432.434 348.061 432.197 348.649 431.729 348.88C421.161 352.877 412.461 356.744 404.243 359.088C396.401 361.359 388.391 363.008 380.289 364.02C372.105 364.983 363.871 365.453 355.63 365.429C343.417 365.599 331.283 363.447 319.874 359.088C309.34 355.195 300.071 348.495 293.07 339.713C286.493 331.028 283.205 319.99 283.207 306.599C283.207 293.918 286.671 283.35 293.599 274.895C300.523 266.44 310.891 260.099 322.868 255.872C336.148 251.438 350.086 249.294 364.084 249.532H376.942C379.589 249.469 382.237 249.587 384.868 249.884V247.77C384.738 245.669 384.323 243.595 383.636 241.605C382.698 238.727 381.065 236.126 378.88 234.031C376.086 231.021 372.656 228.671 368.84 227.152C363.191 225.443 357.301 224.67 351.403 224.863C342.886 224.801 334.385 225.628 326.039 227.329C318.289 228.974 310.454 233.349 303.881 236.168C303.196 236.404 302.452 236.404 301.768 236.168C301.415 236.041 301.118 235.797 300.925 235.476C300.733 235.155 300.657 234.777 300.711 234.406V197.747C300.653 196.923 300.861 196.101 301.305 195.403C301.749 194.706 302.405 194.169 303.177 193.872C310.927 190.349 320.342 188.423 330.09 186.662C339.562 184.925 349.17 184.041 358.8 184.02ZM384.039 323.222V287.902C381.22 287.434 379.348 287.082 376.766 286.845C374.179 286.614 371.009 286.496 367.255 286.492C354.574 286.492 346.118 288.375 340.835 292.129C335.551 295.888 332.908 300.027 332.908 306.599C332.871 309.919 333.923 313.159 335.902 315.825C338.299 319.569 341.723 322.542 345.766 324.39C350.345 326.387 355.63 326.393 362.675 326.393C366.684 326.41 370.689 326.115 374.653 325.512C377.837 325 380.976 324.234 384.039 323.222Z" fill="white"/>
</g>
<defs>
<clipPath id="clip0_820_495">
<rect width="525.128" height="512" fill="white" transform="translate(0.769287 0.0507812)"/>
</clipPath>
</defs>
</svg>
