<svg width="1024" height="170" viewBox="0 0 1024 170" fill="none" xmlns="http://www.w3.org/2000/svg">
<g clip-path="url(#clip0_806_489)">
<path d="M165.293 165.784C160.042 171.034 151.45 171.034 146.199 165.784L114.695 134.279V156.237C114.695 164.829 108.967 169.602 101.33 169.602C93.6922 169.602 87.4868 163.397 87.4868 156.237V129.029C87.4868 122.823 91.3055 118.05 96.0789 116.14C105.148 112.799 112.308 105.639 115.65 96.5696C117.559 91.7962 122.332 87.9775 128.538 87.9775H155.746C163.384 87.9775 169.112 94.1829 169.112 101.82C169.112 109.458 164.338 115.186 155.746 115.186H133.789L165.293 146.69C170.544 151.941 170.544 160.533 165.293 165.784Z" fill="#008555"/>
<path d="M165.293 4.92046C170.544 10.1712 170.544 18.7633 165.293 24.014L133.789 55.5184H155.746C164.338 55.5184 169.112 61.2464 169.112 68.8839C169.112 76.5213 162.906 82.7267 155.746 82.7267H128.538C122.332 82.7267 117.559 78.908 115.65 74.1346C112.308 65.0651 105.148 57.9051 96.0789 54.5637C91.3055 52.6544 87.4868 47.8809 87.4868 41.6755V14.4672C87.4868 6.78207 93.6922 1.10176 101.282 1.10176C108.872 1.10176 114.647 5.87512 114.647 14.4672V36.4248L146.199 4.92046C150.973 -0.330258 160.042 -0.330258 165.293 4.92046Z" fill="#008555"/>
<path d="M3.97384 4.92111C9.22456 -0.377348 17.7689 -0.377348 23.0674 4.92111L54.5717 36.4254V14.4679C54.5717 5.87579 60.2997 1.1024 67.9371 1.1024C75.5746 1.1024 81.78 7.3078 81.78 14.4679V41.6761C81.78 47.8815 77.9613 52.6551 73.1879 54.5645C64.1184 57.9058 56.9584 65.0659 53.617 74.1353C51.7077 78.9087 46.9343 82.7274 40.7289 82.7274H13.5206C5.83546 82.7274 0.155135 76.522 0.155135 68.8846C0.155135 61.2472 4.92852 55.5191 13.5206 55.5191H35.4782L3.97384 24.0146C-1.32461 18.7162 -1.32461 10.1241 3.97384 4.92111Z" fill="#008555"/>
<path d="M3.97515 165.784C-1.27557 160.533 -1.27557 151.941 3.97515 146.69L35.4795 115.186H13.5219C4.92981 115.138 0.156441 109.41 0.156441 101.772C0.156441 94.1351 6.36182 87.9297 13.5219 87.9297H40.7302C46.9356 87.9297 51.7089 91.7484 53.6182 96.5218C56.9596 105.591 64.1197 112.751 73.1891 116.093C77.9625 118.002 81.7812 122.775 81.7812 128.981V156.189C81.7812 163.826 75.5758 169.555 67.9384 169.555C60.301 169.555 54.5729 164.781 54.5729 156.189V134.231L23.0687 165.736C18.2953 170.987 9.22585 170.987 3.97515 165.736" fill="#008555"/>
<path d="M283.651 165.784C229.712 165.784 212.527 129.983 212.527 91.7962C212.527 43.1076 238.304 8.73926 289.856 8.73926C300.835 8.73926 312.291 10.1713 322.315 13.0353L318.974 39.7662C308.95 36.9022 298.448 34.9929 287.947 34.9929C259.306 34.9929 244.986 56.4732 244.986 86.5455C244.986 119.959 258.829 139.053 289.856 139.053C299.403 139.053 311.814 136.189 319.928 132.847L323.27 159.101C311.814 162.92 297.971 165.784 283.651 165.784Z" fill="#008555"/>
<path d="M348.606 50.2679H377.724V163.874H348.606V50.2679ZM363.403 40.7211C353.857 40.7211 346.219 33.0837 346.219 23.5369C346.219 13.9901 353.857 6.83008 363.403 6.83008C372.95 6.83008 381.065 14.4675 381.065 23.5369C381.065 33.0837 372.95 40.7211 363.403 40.7211Z" fill="#008555"/>
<path d="M450.712 166.26C425.413 166.26 417.775 157.191 417.775 130.46V72.702H398.205V50.2671H417.775V15.4216L446.893 7.78418V50.2194H474.579V72.6543H446.893V122.775C446.893 137.572 450.234 141.391 460.259 141.391C465.032 141.391 470.283 140.914 474.579 139.482V162.871C467.419 164.781 458.827 166.213 450.712 166.213" fill="#008555"/>
<path d="M501.83 50.2679H530.948V163.874H501.83V50.2679ZM516.15 40.7211C506.604 40.7211 498.966 33.0837 498.966 23.5369C498.966 13.9901 506.604 6.83008 516.15 6.83008C525.697 6.83008 533.812 14.4675 533.812 23.5369C533.812 33.0837 526.175 40.7211 516.15 40.7211Z" fill="#008555"/>
<path d="M557.183 163.875V142.872L603.007 75.5673C598.711 76.0446 589.642 76.0446 578.663 76.0446H558.615V49.791H637.853V70.7939L592.983 137.144H638.807V163.875H557.183Z" fill="#008555"/>
<path d="M709.482 69.3621C697.548 69.3621 688.956 78.4316 687.524 91.797H729.53C729.53 77.4769 721.893 69.3621 709.482 69.3621ZM757.216 111.845H687.047C687.047 132.848 697.548 143.35 718.074 143.35C729.053 143.35 741.463 140.963 751.01 136.189L753.874 158.624C741.941 163.398 727.621 165.784 713.301 165.784C677.023 165.784 656.975 147.646 656.975 108.027C656.975 73.1808 676.068 47.8818 709.959 47.8818C743.85 47.8818 757.693 70.3168 757.693 98.4798C758.17 102.298 757.693 107.072 757.216 111.845Z" fill="#008555"/>
<path d="M852.196 163.875V91.3195C852.196 79.386 848.855 72.226 838.354 72.226C823.556 72.226 812.1 88.9328 812.1 108.981V163.875H782.982V50.2684H810.668C810.668 55.5191 810.191 64.5886 809.236 70.3166C815.919 56.9512 829.284 47.4043 847.9 47.4043C873.677 47.4043 881.791 63.6339 881.791 83.6821V163.398H852.196V163.875Z" fill="#008555"/>
<path d="M932.337 166.261C924.222 166.261 916.107 165.306 908.47 164.351L908.947 140.485C916.107 142.394 924.699 143.826 933.291 143.826C944.27 143.826 951.907 139.052 951.907 131.892C951.907 111.844 906.083 123.3 906.083 84.6359C906.083 64.5878 922.312 48.3584 954.294 48.3584C960.977 48.3584 968.137 49.3129 975.297 50.2676L974.342 73.1798C968.137 71.2705 960.5 70.3158 953.339 70.3158C941.883 70.3158 936.633 75.0892 936.633 81.7719C936.633 100.388 983.412 92.2734 983.412 129.028C982.934 150.986 963.364 166.261 932.337 166.261Z" fill="#008555"/>
<path d="M1018.27 49.7435C1020.18 50.6982 1021.61 52.6075 1022.57 54.5169C1023.52 56.4262 1024 58.3356 1024 60.7223C1024 63.1089 1023.52 65.0183 1022.57 66.9276C1021.61 68.837 1020.18 70.269 1018.27 71.701C1016.36 72.6557 1014.45 73.133 1012.07 73.133C1009.68 73.133 1007.77 72.6557 1005.86 71.701C1003.95 70.7464 1002.52 69.3143 1001.57 66.9276C1000.61 65.0183 1000.13 63.1089 1000.13 60.7223C1000.13 58.3356 1000.61 56.4262 1001.57 54.5169C1002.52 52.6075 1003.95 51.1755 1005.86 49.7435C1007.77 48.7888 1009.68 47.834 1012.07 47.834C1014.45 47.834 1016.36 48.7888 1018.27 49.7435ZM1016.84 69.3143C1018.27 68.3597 1019.7 67.405 1020.18 65.4956C1021.14 64.0636 1021.61 62.1543 1021.61 60.2449C1021.61 58.3356 1021.14 56.9035 1020.18 54.9942C1019.23 53.5622 1018.27 52.1302 1016.84 51.1755C1015.41 50.2208 1013.5 49.7435 1011.59 49.7435C1009.68 49.7435 1008.25 50.2208 1006.82 51.1755C1005.38 52.1302 1003.95 53.5622 1003.47 54.9942C1002.52 56.4262 1002.04 58.3356 1002.04 60.2449C1002.04 62.1543 1002.52 63.5863 1003.47 65.4956C1004.43 66.9276 1005.38 68.3597 1006.82 69.3143C1008.25 70.269 1010.16 70.7464 1011.59 70.7464C1013.98 70.7464 1015.41 70.269 1016.84 69.3143ZM1016.36 60.2449C1015.89 60.7223 1014.93 61.1996 1013.98 61.6769L1017.79 67.405H1014.45L1011.59 62.1543H1010.63V67.405H1007.77V54.0395H1011.59C1015.41 54.0395 1017.79 55.4715 1017.79 58.3356C1017.32 58.8129 1016.84 59.7676 1016.36 60.2449ZM1010.16 59.7676H1011.59C1013.5 59.7676 1014.45 59.2902 1014.45 57.8582C1014.45 57.3809 1014.45 56.9035 1013.98 56.4262C1013.5 55.9489 1013.02 55.9489 1012.07 55.9489H1010.63V59.7676H1010.16Z" fill="#008555"/>
</g>
<defs>
<clipPath id="clip0_806_489">
<rect width="1024" height="168.775" fill="white" transform="translate(0 0.947266)"/>
</clipPath>
</defs>
</svg>
