<svg width="730" height="513" viewBox="0 0 730 513" fill="none" xmlns="http://www.w3.org/2000/svg">
<g clip-path="url(#clip0_879_3573)">
<path d="M654.983 247.705C651.131 245.756 651.611 242.277 654.387 240.214C687.174 215.957 709.302 184.829 709.302 136.785C709.302 79.8953 668.556 0.0507812 509.236 0.0507812H98.5591L5.54649 161.839H73.8449C81.4748 161.839 87.6337 167.989 87.6337 175.581V337.09C87.6337 344.682 81.4748 350.845 73.8449 350.845H0.604004L94.6037 512.051L528.701 512.001C668.797 512.001 729.364 439.029 729.364 360.703C729.364 308.824 692.47 266.789 654.983 247.707" fill="#FFFFFE"/>
<path d="M411.739 220.311H344.277V155.476C344.341 148.68 349.852 143.202 356.671 143.202H411.737C444.055 143.202 456.058 159.652 456.058 181.125C456.058 203.901 444.056 220.313 411.737 220.313L411.739 220.311ZM411.739 369.47H356.673C349.829 369.47 344.278 363.941 344.278 357.108V292.371H411.741C444.058 292.371 456.061 308.188 456.061 330.307C456.061 353.045 444.06 369.47 411.741 369.47H411.739ZM604.29 251.362C599.347 250.198 600.158 244.151 603.77 242.795C648.306 225.967 674.299 196.003 674.299 143.2C674.92 72.405 612.261 23.752 510.352 23.752H124.136L56.3691 143.277H103.009C112.236 143.277 119.688 150.716 119.688 159.917V352.78C119.688 361.979 112.236 369.42 103.009 369.42H56.8903L125.164 488.351L528.705 488.301C643.92 488.301 691.396 411.836 691.396 355.578C691.396 306.141 654.896 263.46 604.29 251.364V251.362Z" fill="#FB4F14"/>
<path d="M255.523 454.591C183.917 320.198 165.097 165.686 191.774 23.752H124.136L56.3691 143.277H103.009C112.236 143.277 119.688 150.716 119.688 159.917V307.9C154.438 364.207 204.766 418.137 255.523 454.591ZM593.238 37.0517C511.277 158.412 466.869 313.087 486.805 453.972C511.227 335.459 574.937 226.006 674.171 146.72C674.196 145.543 674.297 144.404 674.297 143.202C674.715 94.4105 645.087 56.1209 593.238 37.0517ZM455.843 23.7537C442.991 57.3623 429.494 97.9159 418.138 143.442C416.111 143.291 413.969 143.202 411.737 143.202H356.671C349.852 143.202 344.339 148.682 344.277 155.476V220.311H402.196C398.368 243.557 395.275 267.636 393.223 292.373H344.277V357.109C344.277 363.942 349.827 369.472 356.671 369.472H390.484C390.991 408.281 394.45 448.1 401.726 488.301H351.387C311.668 392.539 257.007 230.524 311.376 23.7537H455.843Z" fill="black"/>
</g>
<defs>
<clipPath id="clip0_879_3573">
<rect width="728.76" height="512" fill="white" transform="translate(0.604004 0.0507812)"/>
</clipPath>
</defs>
</svg>
