<svg width="875" height="513" viewBox="0 0 875 513" fill="none" xmlns="http://www.w3.org/2000/svg">
<g clip-path="url(#clip0_844_2556)">
<path fill-rule="evenodd" clip-rule="evenodd" d="M426.782 427.943H853.36V0.0507812H426.782V427.943Z" fill="#FFFFFE"/>
<path fill-rule="evenodd" clip-rule="evenodd" d="M0.162109 427.943H426.782V0.0507812H0.162109V427.943Z" fill="#000105"/>
<path fill-rule="evenodd" clip-rule="evenodd" d="M284.917 248.1C278.952 258.62 270.305 267.37 259.857 273.459C249.409 279.549 237.533 282.76 225.44 282.765C187.591 282.765 156.88 251.969 156.88 214.002C156.88 176.025 187.591 145.239 225.44 145.239C237.532 145.245 249.406 148.456 259.853 154.543C270.301 160.63 278.949 169.377 284.917 179.893L390.782 119.251C357.934 61.7612 296.234 22.9717 225.44 22.9717C120.27 22.9717 35.019 108.501 35.019 214.002C35.019 319.503 120.27 405.043 225.43 405.043C296.223 405.043 357.934 366.275 390.771 308.774L284.907 248.111L284.917 248.1Z" fill="#FFFFFE"/>
<path fill-rule="evenodd" clip-rule="evenodd" d="M822.884 397.381V30.623H701.002V183.43L579.109 30.623H457.216V397.381H579.12V244.564L701.013 397.381H822.884Z" fill="#000105"/>
<path fill-rule="evenodd" clip-rule="evenodd" d="M642.518 496.803L648.663 510.919H663.142L673.112 458.505H655.576L651.195 481.522L642.518 460.343L633.788 481.522L629.439 458.505H611.914L621.873 510.919H636.321L642.518 496.803ZM607.693 458.505H555.44V473.785H571.768V510.897H591.344V473.796H607.693V458.505ZM701.547 494.537C698.941 494.532 696.444 493.494 694.601 491.652C692.759 489.809 691.721 487.312 691.716 484.706C691.716 482.106 692.749 479.612 694.587 477.774C696.426 475.935 698.92 474.902 701.52 474.902C704.12 474.902 706.614 475.935 708.453 477.774C710.291 479.612 711.324 482.106 711.324 484.706C711.324 490.145 706.954 494.537 701.547 494.537ZM701.547 457.415C694.324 457.432 687.403 460.316 682.305 465.433C677.208 470.551 674.351 477.483 674.362 484.706C674.351 491.929 677.208 498.862 682.305 503.979C687.403 509.097 694.324 511.981 701.547 511.998C708.772 511.984 715.695 509.101 720.795 503.983C725.895 498.865 728.754 491.931 728.742 484.706C728.754 477.481 725.895 470.548 720.795 465.43C715.695 460.312 708.772 457.429 701.547 457.415ZM496.678 510.897V458.505H479.271V480.336L461.864 458.505H444.457V510.897H461.875V489.077L479.271 510.897H496.678ZM549.733 473.796V458.515H504.041V510.897H549.733V496.728H521.416V491.46H545.384V478.348H521.416V473.785L549.733 473.796ZM751.332 473.796H762.2C763.36 473.796 764.472 474.256 765.294 475.076C766.115 475.895 766.578 477.006 766.581 478.167C766.572 479.323 766.107 480.429 765.286 481.244C764.465 482.059 763.356 482.516 762.2 482.516H751.332V473.796ZM783.977 477.066C783.977 467.556 776.476 458.505 764.411 458.505H733.914V510.897H751.332V495.627H756.867L764.518 510.897H783.977L773.612 493.479C779.681 490.38 783.977 484.204 783.977 477.066ZM842.172 458.505H819.817L806.823 475.677V458.505H789.427V510.897H806.823V491.385L819.817 510.897H842.172L821.89 483.713L842.172 458.505ZM90.7671 489.12L95.3513 473.027L99.9356 489.12H90.7671ZM106.219 510.961H124.737L108.399 458.547H82.304L65.9547 510.961H84.548L87.0485 502.199H103.718L106.219 510.961ZM236.703 458.547H184.492V473.839H200.778V510.961H220.407V473.839H236.703V458.547ZM50.8022 490.028C49.6117 492.074 47.7815 493.672 45.5933 494.576C43.4052 495.48 40.9806 495.639 38.6931 495.029C36.4056 494.419 34.3821 493.074 32.9342 491.201C31.4864 489.328 30.6946 487.031 30.6808 484.664C30.678 483.246 30.9544 481.842 31.4942 480.532C32.034 479.221 32.8266 478.03 33.8268 477.026C34.827 476.022 36.0152 475.224 37.3235 474.679C38.6319 474.134 40.0348 473.852 41.4521 473.85C45.47 473.85 48.9322 476.051 50.8022 479.321L64.9823 471.125C62.6144 466.947 59.1812 463.473 55.0326 461.055C50.884 458.637 46.1684 457.362 41.3666 457.361C34.1482 457.384 27.2339 460.271 22.1427 465.388C17.0515 470.505 14.1998 477.434 14.214 484.653C14.2041 488.229 14.899 491.773 16.2589 495.081C17.6188 498.388 19.6171 501.396 22.1396 503.931C24.6621 506.467 27.6593 508.48 30.9602 509.857C34.2611 511.234 37.8008 511.947 41.3773 511.955C46.1782 511.956 50.8935 510.684 55.0423 508.268C59.191 505.852 62.6246 502.379 64.9929 498.202L50.8022 490.028ZM266.089 494.58C264.8 494.577 263.525 494.321 262.335 493.825C261.145 493.329 260.065 492.604 259.155 491.69C258.246 490.777 257.525 489.693 257.035 488.501C256.544 487.309 256.293 486.033 256.296 484.744C256.298 483.455 256.555 482.179 257.051 480.989C257.547 479.8 258.272 478.719 259.186 477.81C260.099 476.9 261.182 476.18 262.374 475.689C263.566 475.198 264.843 474.947 266.132 474.95C268.735 474.956 271.229 475.995 273.066 477.84C274.903 479.685 275.931 482.183 275.926 484.786C275.92 487.39 274.88 489.884 273.036 491.72C271.191 493.557 268.692 494.586 266.089 494.58ZM266.089 457.457C262.513 457.464 258.973 458.176 255.671 459.551C252.37 460.927 249.372 462.939 246.848 465.474C244.325 468.008 242.325 471.015 240.964 474.322C239.603 477.63 238.907 481.173 238.915 484.749C238.901 491.972 241.755 498.905 246.851 504.025C251.946 509.145 258.866 512.031 266.089 512.051C269.668 512.044 273.21 511.333 276.513 509.957C279.816 508.581 282.816 506.568 285.341 504.033C287.867 501.497 289.868 498.489 291.231 495.181C292.594 491.872 293.292 488.327 293.285 484.749C293.293 481.171 292.596 477.626 291.234 474.317C289.871 471.009 287.87 468.001 285.344 465.466C282.818 462.932 279.818 460.92 276.514 459.545C273.21 458.171 269.667 457.462 266.089 457.457ZM324.861 494.58C323.573 494.577 322.299 494.321 321.11 493.825C319.922 493.329 318.843 492.604 317.935 491.691C317.027 490.778 316.308 489.695 315.818 488.504C315.329 487.313 315.079 486.037 315.084 484.749C315.084 482.15 316.116 479.658 317.954 477.82C319.791 475.983 322.284 474.95 324.883 474.95C327.481 474.95 329.974 475.983 331.811 477.82C333.649 479.658 334.681 482.15 334.681 484.749C334.681 487.355 333.647 489.853 331.806 491.697C329.964 493.54 327.467 494.577 324.861 494.58ZM324.861 457.457C321.283 457.463 317.741 458.173 314.437 459.548C311.133 460.923 308.132 462.934 305.606 465.469C303.08 468.003 301.077 471.01 299.713 474.318C298.349 477.626 297.65 481.171 297.655 484.749C297.647 491.976 300.507 498.911 305.608 504.03C310.71 509.149 317.634 512.034 324.861 512.051C332.092 512.04 339.022 509.157 344.128 504.038C349.234 498.918 352.097 491.98 352.089 484.749C352.094 481.169 351.394 477.623 350.029 474.313C348.663 471.004 346.659 467.996 344.13 465.461C341.602 462.927 338.599 460.915 335.292 459.542C331.986 458.169 328.441 457.46 324.861 457.457ZM409.482 510.961V458.558H392.075V480.389L374.657 458.558H357.261V510.961H374.668V489.13L392.086 510.961H409.482ZM147.242 473.828H158.12C160.513 473.828 162.437 475.794 162.437 478.209C162.437 480.614 160.513 482.58 158.12 482.58H147.242V473.828ZM179.876 477.109C179.876 467.598 172.353 458.558 160.278 458.558H129.802V510.961H147.242V495.681H152.745L160.396 510.961H179.876L169.49 493.543C175.548 490.423 179.876 484.247 179.876 477.109ZM859.248 496.621V499.164H854.995V510.897H851.992V499.164H847.739V496.632L859.248 496.621Z" fill="#000105"/>
<path fill-rule="evenodd" clip-rule="evenodd" d="M874.71 496.632V510.897H871.932V501.259C871.932 500.981 871.975 500.596 871.975 500.083V498.908L869.261 510.897H866.375L863.704 498.908V510.897H860.947V496.632H865.285L867.871 507.884L870.436 496.632H874.71Z" fill="#000105"/>
</g>
<defs>
<clipPath id="clip0_844_2556">
<rect width="874.538" height="512" fill="white" transform="translate(0.162109 0.0507812)"/>
</clipPath>
</defs>
</svg>
