<svg width="1024" height="310" viewBox="0 0 1024 310" fill="none" xmlns="http://www.w3.org/2000/svg">
<g clip-path="url(#clip0_865_408)">
<path d="M153.828 0.689453C72.7408 0.689453 6.31239 63.2132 0 142.671L82.7346 176.878C89.7449 172.084 98.2137 169.275 107.325 169.275C108.141 169.275 108.954 169.303 109.76 169.348L146.553 116.019C146.553 115.764 146.549 115.516 146.549 115.265C146.549 83.1658 172.661 57.0509 204.764 57.0509C236.863 57.0509 262.974 83.1658 262.974 115.265C262.974 147.364 236.863 173.483 204.764 173.483C204.321 173.483 203.881 173.472 203.441 173.462L150.967 210.904C150.995 211.584 151.019 212.278 151.019 212.969C151.019 237.067 131.419 256.664 107.325 256.664C86.1752 256.664 68.4907 241.569 64.4848 221.578L5.3179 197.117C23.6375 261.909 83.1638 309.41 153.828 309.41C239.082 309.41 308.191 240.299 308.191 155.055C308.191 69.7978 239.079 0.689453 153.828 0.689453Z" fill="#231F20"/>
<path d="M96.7307 234.907L77.7691 227.073C81.1294 234.069 86.9428 239.928 94.6615 243.145C111.348 250.096 130.585 242.179 137.54 225.478C140.907 217.404 140.928 208.488 137.589 200.393C134.256 192.294 127.968 185.978 119.883 182.607C111.861 179.268 103.266 179.39 95.7153 182.241L115.301 190.34C127.609 195.469 133.429 209.601 128.3 221.909C123.181 234.219 109.038 240.04 96.7307 234.907Z" fill="#231F20"/>
<path d="M243.549 115.265C243.549 93.8784 226.15 76.4766 204.76 76.4766C183.373 76.4766 165.972 93.8784 165.972 115.265C165.972 136.655 183.373 154.05 204.76 154.05C226.15 154.047 243.549 136.652 243.549 115.265ZM175.686 115.199C175.686 99.1056 188.733 86.062 204.827 86.062C220.92 86.062 233.967 99.1056 233.967 115.199C233.967 131.292 220.92 144.336 204.827 144.336C188.733 144.336 175.686 131.289 175.686 115.199Z" fill="#231F20"/>
<path d="M473.042 106.304L462.699 124.484C454.733 118.918 443.937 115.568 434.512 115.568C423.74 115.568 417.075 120.028 417.075 128.015C417.075 137.719 428.915 139.977 446.512 146.293C465.428 152.982 476.301 160.844 476.301 178.169C476.301 201.872 457.661 215.185 430.869 215.185C417.811 215.185 402.06 211.814 389.952 204.448L397.496 184.293C407.333 189.488 419.099 192.569 429.588 192.569C443.727 192.569 450.448 187.353 450.448 179.641C450.448 170.816 440.2 168.164 423.656 162.686C404.803 156.391 391.738 148.131 391.738 128.957C391.738 107.333 409.056 94.9141 433.974 94.9141C451.341 94.9141 465.299 100.417 473.042 106.304Z" fill="#231F20"/>
<path d="M553.892 117.794V213.192H529.54V117.794H494.192V96.9062H589.136V117.794H553.892Z" fill="#231F20"/>
<path d="M640.472 117.731V143.933H687.077V164.821H640.472V192.112H694.545V213.192H616.127V96.9062H694.545V117.731H640.472Z" fill="#231F20"/>
<path d="M748.9 190.616L741.202 213.196H715.673L759.274 96.9102H783.787L828.619 213.192H802.229L794.364 190.612L748.9 190.616ZM771.393 124.648L755.512 171.207H787.601L771.393 124.648Z" fill="#231F20"/>
<path d="M953.601 141.854L921.777 209.804H908.035L876.728 142.461V213.192H853.408V96.9062H876.676L915.758 180.848L953.451 96.9062H976.92V213.192H953.604L953.601 141.854Z" fill="#231F20"/>
<path d="M1024 111.577C1024 121.571 1016.51 127.8 1007.92 127.8C999.291 127.8 991.786 121.571 991.786 111.577C991.786 101.587 999.291 95.4004 1007.92 95.4004C1016.52 95.4004 1024 101.587 1024 111.577ZM994.49 111.577C994.49 119.938 1000.51 125.19 1007.92 125.19C1015.29 125.19 1021.29 119.938 1021.29 111.577C1021.29 103.192 1015.29 98.021 1007.92 98.021C1000.53 98.021 994.49 103.255 994.49 111.577ZM1008.14 103.311C1012.31 103.311 1013.71 105.516 1013.71 107.9C1013.71 110.084 1012.42 111.55 1010.84 112.296L1014.58 119.3H1011.52L1008.37 113.092H1005.12V119.3H1002.57V103.311H1008.14ZM1005.14 110.75H1007.98C1009.82 110.75 1010.91 109.595 1010.91 108.144C1010.91 106.678 1010.13 105.736 1007.98 105.736H1005.14V110.75H1005.14Z" fill="#231F20"/>
</g>
<defs>
<clipPath id="clip0_865_408">
<rect width="1024" height="308.721" fill="white" transform="translate(0 0.689453)"/>
</clipPath>
</defs>
</svg>
