<svg width="513" height="513" viewBox="0 0 513 513" fill="none" xmlns="http://www.w3.org/2000/svg">
<g clip-path="url(#clip0_876_1516)">
<path d="M268.116 426.698C275.393 426.698 297.706 426.639 316.302 410.787C332.787 395.841 334.477 378.241 334.96 358.434L334.839 302.638C334.839 285.188 334.839 263.801 316.602 248.715C312.481 245.304 307.844 242.569 302.864 240.614C311.175 235.088 317.327 226.867 320.286 217.336C322.406 209.571 323.303 201.524 322.943 193.483L322.792 143.818C322.34 130.08 320.829 114.411 309.719 101.729C299.91 90.9308 285.145 85.3245 266.432 85.3245H266.07L198.711 85.5056C196.675 85.5315 194.728 86.3424 193.276 87.7691C192.562 88.4551 191.998 89.2812 191.619 90.1955C191.24 91.1098 191.053 92.0926 191.072 93.0823L191.646 419.188C191.637 420.498 191.973 421.787 192.62 422.926C193.266 424.065 194.201 425.014 195.33 425.679C196.609 426.47 198.083 426.889 199.587 426.887L268.123 426.705L268.116 426.698ZM294.113 282.41C295.939 288.805 296.744 295.448 296.495 302.095L296.617 348.317C296.617 369.392 295.318 379.291 287.258 385.515C282.457 388.958 276.57 390.981 261.526 391.493C261.526 391.493 235.71 391.552 233.718 391.552C231.393 391.552 230.488 390.123 230.488 387.928C230.488 368.908 230.216 264.109 230.216 263.234C230.169 262.927 230.195 262.614 230.289 262.319C230.384 262.023 230.546 261.754 230.763 261.531C230.979 261.309 231.245 261.14 231.537 261.037C231.83 260.935 232.143 260.901 232.451 260.94C241.528 260.743 250.609 261.046 259.653 261.845C267.532 262.691 275.926 264.109 282.719 268.426C288.008 271.616 292.022 276.547 294.072 282.374L294.113 282.41ZM231.827 120.096H250.394C274.578 120.096 284.995 123.67 284.995 148.388V190.231C284.692 200.286 284.518 217.314 264.614 223.292C259.057 224.862 256.401 225.346 244.295 225.768H232.308C232.229 225.784 232.15 225.794 232.07 225.799C230.197 225.799 229.687 224.803 229.687 223.292C229.687 222.325 229.565 122.872 229.565 122.872C229.565 121.242 230.14 120.306 231.829 120.125L231.827 120.096ZM256.796 0.0507813C206.164 0.05031 156.669 15.064 114.57 43.1934C72.4705 71.3227 39.658 111.304 20.2816 158.082C0.905185 204.86 -4.16481 256.333 5.71274 305.992C15.5903 355.652 39.9717 401.267 75.7739 437.069C111.576 472.872 157.191 497.254 206.85 507.132C256.509 517.01 307.982 511.94 354.76 492.564C401.538 473.188 441.52 440.376 469.65 398.277C497.78 356.178 512.794 306.683 512.794 256.051C512.714 188.18 485.717 123.112 437.725 75.1199C389.733 27.1279 324.665 0.130863 256.794 0.0507813H256.796ZM488.553 193.552C493.014 210.075 495.686 227.03 496.523 244.123C489.459 258.133 475.57 269.665 465.456 275.336C464.582 268.724 463.433 261.235 461.882 254.352C460.313 247.287 458.602 240.352 456.75 233.549C464.763 228.645 471.779 222.274 477.431 214.77C482.239 208.33 485.989 201.165 488.541 193.545L488.553 193.552ZM256.796 16.0214C300.454 16.048 343.279 27.9742 380.666 50.5177C418.053 73.0612 448.588 105.369 468.987 143.968C473.947 153.175 476.297 163.564 475.78 174.01C475.264 184.455 471.903 194.562 466.059 203.235C465.606 203.9 465.154 204.534 464.629 205.199C461.069 209.93 456.802 214.084 451.978 217.517C438.995 176.455 420.577 140.618 396.939 110.726C372.838 80.075 342.379 55.0134 307.66 37.2672C290.05 28.2771 271.54 21.1693 252.439 16.0619C253.887 16.0619 255.298 16.0024 256.756 16.0024L256.796 16.0214ZM100.821 438.323C75.216 416.466 54.5028 389.46 40.0306 359.064C25.5585 328.668 17.6522 295.565 16.8267 261.91C31.3932 277.079 47.8171 290.348 65.7084 301.401C99.2873 321.956 136.612 335.643 175.518 341.668V325.466C139.899 319.652 105.733 307.033 74.8862 288.297C41.7965 267.807 23.2264 245.696 17.4009 238.088C20.1754 200.418 31.8702 163.949 51.5199 131.69C61.6937 127.857 108.765 113.363 168.244 145.881C170.508 147.12 172.833 148.416 175.189 149.746V131.447C128.49 106.177 88.7482 107.083 65.289 111.459C88.9625 80.1779 119.889 55.1234 155.402 38.4561C182.048 25.9897 212.12 22.8729 240.757 29.6095C261.438 34.4636 281.459 41.793 300.386 51.439C333.064 68.1453 361.732 91.7363 384.416 120.587C407.423 149.693 425.266 184.868 437.706 225.356C429.246 228.79 420.376 231.112 411.318 232.265C388.584 235.405 362.83 229.79 336.266 219.613C335.05 224.819 332.979 229.788 330.138 234.317C353.566 243.313 376.725 249.11 398.374 249.11C403.433 249.115 408.486 248.783 413.501 248.114C423.308 246.841 432.928 244.398 442.154 240.838C443.633 246.397 445.012 252.043 446.29 257.776C448.144 266.146 449.535 274.613 450.458 283.136C427.058 295.214 393.606 307.41 350.883 316.588V332.79C389.77 324.639 424.523 313.491 451.635 300.425C452.027 314.397 451.036 328.374 448.675 342.151C434.3 351.225 420.761 361.561 408.219 373.037C370.175 406.632 333.281 436.2 266.768 457.484C233.313 468.206 199.621 469.409 174.591 467.991C147.404 466.451 121.479 456.003 100.821 438.261V438.323ZM431.728 397.049C429.04 403.006 426.234 408.486 423.456 413.534C409.444 438.762 388.016 459.073 362.075 471.715C306.334 498.959 242.206 503.548 183.155 484.517C185.775 484.577 188.468 484.639 191.255 484.639C218.497 484.835 245.606 480.833 271.628 472.773C340.979 450.551 380.804 418.609 418.786 385.093C428.447 376.58 436.598 370.028 443.512 364.984C440.39 375.96 436.454 386.687 431.737 397.078L431.728 397.049ZM446.703 402.634C453.857 386.653 459.243 369.939 462.764 352.787C472.394 347.986 476.712 348.348 478.163 348.737C470.056 367.987 459.484 386.102 446.712 402.629L446.703 402.634ZM484.624 331.592C482.766 331.068 480.821 330.924 478.906 331.17C474.45 331.548 470.058 332.481 465.833 333.948C467.515 320.127 467.949 306.182 467.131 292.283C472.097 289.434 476.914 286.332 481.563 282.991C486.813 279.227 491.753 275.047 496.335 270.492C495.097 291.286 491.149 311.829 484.591 331.601L484.624 331.592Z" fill="black"/>
<path d="M231.981 226.886H244.132C256.367 226.457 259.06 225.933 264.716 224.348C284.873 218.323 285.087 201.041 285.361 190.856V148.467C285.361 123.385 274.809 119.809 250.311 119.809H231.493C229.78 119.992 229.198 120.94 229.198 122.591C229.198 122.591 229.32 223.376 229.32 224.329C229.32 225.859 229.839 226.867 231.736 226.867H231.974L231.981 226.886Z" fill="white"/>
<path d="M294.492 281.408C292.426 275.5 288.357 270.5 282.991 267.277C276.11 262.872 267.606 261.466 259.622 260.606C250.459 259.811 241.261 259.505 232.065 259.688C231.753 259.649 231.436 259.683 231.14 259.787C230.843 259.892 230.574 260.063 230.355 260.288C230.136 260.514 229.972 260.787 229.876 261.086C229.78 261.385 229.754 261.703 229.802 262.014C229.802 262.9 230.078 369.065 230.078 388.335C230.078 390.568 230.995 392.005 233.352 392.005C235.37 392.005 261.521 391.943 261.521 391.943C276.753 391.423 282.727 389.405 287.58 385.886C295.748 379.555 297.063 369.553 297.063 348.205L296.941 301.377C297.178 294.644 296.363 287.916 294.525 281.435L294.492 281.408Z" fill="white"/>
<path d="M450.829 300.272C423.779 313.319 389.119 324.437 350.34 332.571V316.391C392.934 307.201 426.31 295.028 449.654 283.005C448.749 274.497 447.361 266.046 445.497 257.695C444.232 251.977 442.816 246.335 441.37 240.793C432.165 244.349 422.566 246.788 412.779 248.055C407.777 248.736 402.735 249.068 397.687 249.048C376.06 249.048 352.985 243.294 329.611 234.276C332.459 229.763 334.525 224.802 335.725 219.602C362.232 229.756 387.928 235.36 410.611 232.229C419.649 231.078 428.499 228.756 436.938 225.32C424.527 184.885 406.725 149.812 383.773 120.768C361.151 91.9749 332.549 68.4338 299.943 51.7703C281.066 42.1313 261.089 34.8165 240.451 29.986C211.88 23.2701 181.879 26.387 155.299 38.8327C119.852 55.4501 88.9885 80.457 65.3818 111.688C88.7862 107.35 128.428 106.416 174.996 131.636V149.893C172.678 148.569 170.357 147.273 168.087 146.036C108.745 113.585 61.8221 128.047 51.6341 131.874C32.034 164.069 20.3712 200.464 17.608 238.055C23.4215 245.648 41.9106 267.704 74.9622 288.161C105.721 306.865 139.8 319.459 175.33 325.251V341.432C136.52 335.416 99.2915 321.754 65.8035 301.237C47.9478 290.214 31.5614 276.971 17.0361 261.826C17.8523 295.412 25.7369 328.448 40.1761 358.782C54.6152 389.116 75.2848 416.067 100.837 437.878C121.45 455.571 147.307 465.999 174.427 467.555C199.399 468.942 233.015 467.767 266.396 457.072C332.756 435.831 369.563 406.322 407.52 372.797C420.041 361.353 433.548 351.038 447.884 341.973C450.237 328.223 451.226 314.275 450.836 300.332L450.829 300.272ZM315.821 410.349C297.265 426.167 275.004 426.227 267.744 426.227L199.363 426.408C197.862 426.41 196.391 425.993 195.115 425.202C193.991 424.536 193.061 423.588 192.416 422.452C191.772 421.315 191.436 420.03 191.441 418.724L190.869 93.2849C190.851 92.2971 191.036 91.316 191.415 90.4033C191.793 89.4906 192.356 88.666 193.068 87.9812C194.517 86.5575 196.46 85.7483 198.491 85.7225L265.695 85.5414H266.057C284.732 85.5414 299.464 91.1454 309.254 101.931C320.338 114.586 321.846 130.225 322.297 143.932L322.447 193.491C322.807 201.514 321.912 209.545 319.795 217.293C316.844 226.804 310.705 235.008 302.414 240.523C307.381 242.472 312.007 245.197 316.118 248.598C334.312 263.663 334.312 284.966 334.312 302.412L334.434 358.093C333.957 377.869 332.265 395.424 315.818 410.339L315.821 410.349Z" fill="white"/>
<path d="M417.551 383.406C379.106 417.387 338.761 449.747 268.474 472.227C242.112 480.392 214.649 484.446 187.053 484.248C184.239 484.248 181.515 484.217 178.856 484.126C238.678 503.403 303.641 498.755 360.109 471.157C386.403 458.369 408.117 437.789 422.295 412.219C425.109 407.11 427.954 401.514 430.675 395.519C435.449 384.991 439.437 374.123 442.605 363.006C435.6 368.114 427.342 374.75 417.554 383.377L417.551 383.406Z" fill="white"/>
<path d="M488.237 193.1C482.634 209.994 471.221 224.353 456.028 233.625C457.895 240.508 459.628 247.533 461.227 254.7C462.788 261.674 463.951 269.26 464.837 275.957C475.082 270.208 489.154 258.524 496.311 244.331C495.465 227.015 492.758 209.841 488.237 193.104V193.1Z" fill="white"/>
<path d="M462.144 352.175C458.563 369.546 453.108 386.477 445.874 402.672C458.837 385.944 469.552 367.59 477.743 348.076C476.276 347.679 471.87 347.312 462.144 352.175Z" fill="white"/>
<path d="M395.467 112.148C419.417 142.428 438.073 178.735 451.22 220.33C456.107 216.853 460.43 212.643 464.036 207.85C464.525 207.207 465.015 206.535 465.466 205.863C471.379 197.073 474.78 186.836 475.303 176.255C475.825 165.674 473.45 155.151 468.432 145.821C447.758 106.726 416.823 74.0022 378.95 51.1659C341.077 28.3296 297.698 16.2438 253.473 16.207C252.005 16.207 250.566 16.207 249.098 16.269C268.453 21.4262 287.205 28.6239 305.04 37.7411C340.218 55.7086 371.076 81.0987 395.484 112.157L395.467 112.148Z" fill="white"/>
<path d="M484.26 331.839C490.916 311.812 494.917 290.999 496.159 269.932C491.506 274.53 486.506 278.764 481.203 282.595C476.493 285.983 471.614 289.127 466.583 292.016C467.396 306.097 466.956 320.222 465.268 334.224C469.548 332.734 473.997 331.789 478.513 331.41C480.449 331.167 482.414 331.312 484.293 331.839H484.26Z" fill="white"/>
</g>
<defs>
<clipPath id="clip0_876_1516">
<rect width="512" height="512" fill="white" transform="translate(0.793945 0.0507812)"/>
</clipPath>
</defs>
</svg>
