<svg width="526" height="513" viewBox="0 0 526 513" fill="none" xmlns="http://www.w3.org/2000/svg">
<g clip-path="url(#clip0_820_412)">
<path d="M0.384766 0.0507812V512.051H525.513V0.0507812H0.384766Z" fill="#EAEAEA"/>
<path d="M158.141 257.352L215.03 202.651L269.512 257.352L213.936 312.49L158.141 257.352ZM316.992 254.289L238.004 176.176L264.917 148.388L371.255 255.383L263.823 362.378L236.254 335.027L316.992 254.289ZM289.861 124.538L314.804 99.8134L472.999 257.571L315.679 414.672L288.11 386.665L421.143 255.383L289.861 124.538ZM263.167 48.1758L291.83 76.6202L108.254 256.258L290.955 439.177L261.854 468.278L52.8965 257.352L263.167 48.1758Z" fill="#EC1C24"/>
</g>
<defs>
<clipPath id="clip0_820_412">
<rect width="525.128" height="512" fill="white" transform="translate(0.384766 0.0507812)"/>
</clipPath>
</defs>
</svg>
