<svg width="1024" height="358" viewBox="0 0 1024 358" fill="none" xmlns="http://www.w3.org/2000/svg">
<g clip-path="url(#clip0_806_226)">
<path d="M109.196 139.361C109.196 157.999 100.671 168.309 78.2163 168.309H59.0341V111.356C61.4629 111.109 69.5919 110.96 72.0208 110.96H78.5632C101.464 110.96 109.196 120.675 109.196 139.361ZM154.797 213.712C154.797 184.319 130.807 173.662 101.711 173.018V171.927C126.495 169.895 146.768 159.535 146.768 134.554C146.768 106.747 123.769 101.542 98.0432 101.542C67.1135 101.542 30.8306 102.385 0 101.542V111.109C6.49326 110.662 22.3546 111.555 22.3546 119.733V238.099C22.3546 246.03 6.09672 247.12 0 247.12V256.439C29.7401 255.646 65.1804 256.439 95.1682 256.439C126.693 256.439 154.797 245.782 154.797 213.712ZM115.144 210.688C115.144 235.026 106.668 246.575 77.2249 246.575H58.8854V178.371H78.4147C105.329 178.371 115.293 187.441 115.293 210.49L115.144 210.688Z" fill="#0079C1"/>
<path d="M354.304 256.19C340.425 256.19 326.596 256.19 312.767 256.438V246.921C319.062 246.921 336.509 246.574 336.509 238.098V128.159H336.014L273.46 258.321H265.926L204.909 127.911H204.463V238.098C204.463 246.772 221.762 246.921 228.305 246.921L228.603 256.438C211.303 255.892 187.71 255.496 170.708 256.438V246.921C177.301 246.921 192.171 246.376 192.171 238.098V119.534C192.171 111.455 176.805 110.761 170.708 110.761V101.194C190.535 102.037 211.551 102.037 231.229 101.194L283.374 211.183L336.757 101.591C355.692 102.433 377.104 102.186 396.238 101.344V110.909C389.942 110.909 373.436 111.355 373.436 119.683V238.098C373.436 246.574 389.744 246.921 396.238 246.921V256.438C382.21 256.042 368.133 256.19 354.304 256.19Z" fill="#0079C1"/>
<path d="M541.865 178.717C541.865 208.457 538.94 249.548 495.024 249.548C451.108 249.548 447.936 208.259 447.936 178.717C447.936 149.175 451.108 108.184 495.024 108.184C538.94 108.184 541.865 149.274 541.865 178.717ZM582.906 178.717C582.906 127.415 551.58 98.6172 495.024 98.6172C438.468 98.6172 406.845 127.168 406.845 178.717C406.845 230.266 438.221 259.015 495.024 259.015C551.828 259.015 582.906 230.316 582.906 178.717Z" fill="#0079C1"/>
<path d="M845.559 0.574219C810.271 0.574219 775.768 11.0396 746.425 30.6469C717.082 50.2542 694.209 78.1231 680.704 110.729C667.198 143.335 663.664 179.213 670.549 213.827C677.434 248.441 694.429 280.236 719.387 305.192C744.341 330.147 776.132 347.142 810.749 354.027C845.367 360.912 881.24 357.379 913.845 343.873C946.45 330.367 974.322 307.496 993.929 278.151C1013.54 248.807 1024 214.307 1024 179.015C1024 131.69 1005.2 86.3021 971.738 52.8383C938.27 19.3742 892.889 0.574219 845.559 0.574219Z" fill="#ED1C24"/>
<path d="M840.106 124.491L809.129 84.0943C808.486 83.2456 807.651 82.5576 806.702 82.0843C805.746 81.6111 804.696 81.3663 803.626 81.3677C802.591 81.362 801.57 81.5961 800.642 82.0522C799.714 82.5083 798.9 83.1728 798.272 83.9951L761.399 130.439V203.303L798.172 156.264C798.843 155.416 799.693 154.73 800.664 154.257C801.634 153.785 802.698 153.539 803.776 153.538C804.868 153.533 805.945 153.782 806.923 154.264C807.908 154.745 808.765 155.446 809.429 156.313L840.556 197.007C841.141 197.771 841.89 198.398 842.747 198.842C843.603 199.288 844.546 199.541 845.509 199.585C846.48 199.551 847.422 199.303 848.279 198.857C849.135 198.411 849.885 197.779 850.47 197.007L881.597 156.313C882.268 155.455 883.125 154.759 884.102 154.279C885.08 153.798 886.158 153.545 887.25 153.538C888.328 153.528 889.398 153.769 890.369 154.242C891.34 154.715 892.189 155.407 892.846 156.264L929.526 203.253V130.39L892.646 83.9458C892.011 83.1229 891.19 82.4576 890.255 82.0022C889.32 81.5462 888.285 81.3128 887.25 81.3185C886.187 81.3277 885.137 81.5776 884.181 82.0501C883.232 82.5219 882.397 83.2042 881.747 84.0443L851.012 124.491C850.377 125.33 849.549 126.009 848.6 126.473C847.658 126.938 846.616 127.176 845.559 127.168C844.51 127.164 843.468 126.921 842.526 126.458C841.584 125.994 840.756 125.321 840.106 124.491ZM929.776 256.686H761.25V203.253H929.776V256.686Z" fill="white"/>
</g>
<defs>
<clipPath id="clip0_806_226">
<rect width="1024" height="356.881" fill="white" transform="translate(0 0.574219)"/>
</clipPath>
</defs>
</svg>
