<svg width="526" height="513" viewBox="0 0 526 513" fill="none" xmlns="http://www.w3.org/2000/svg">
<g clip-path="url(#clip0_820_302)">
<path d="M432.778 0.0507812H93.6326C42.2748 0.0507812 0.641113 41.6845 0.641113 93.0422V419.059C0.641113 470.417 42.2748 512.051 93.6326 512.051H432.778C484.136 512.051 525.769 470.417 525.769 419.059V93.0422C525.769 41.6845 484.136 0.0507812 432.778 0.0507812Z" fill="#470137"/>
<path d="M50.5103 358.378V134.332C50.4699 133.992 50.4991 133.646 50.5964 133.318C50.6936 132.989 50.8568 132.683 51.076 132.42C51.2952 132.156 51.5658 131.94 51.8713 131.784C52.1767 131.628 52.5107 131.537 52.8529 131.514C56.1992 131.283 61.1075 131.107 67.5779 130.986C74.0462 130.87 81.6317 130.752 90.3342 130.633C99.0355 130.518 108.295 130.459 118.112 130.457C144.884 130.457 167.083 135.271 184.709 144.9C201.616 153.817 215.438 167.63 224.365 184.531C233.176 201.325 237.583 220.641 237.585 242.48C237.844 257.731 235.524 272.917 230.724 287.395C226.581 299.658 220.229 311.06 211.983 321.037C204.302 330.225 195.209 338.133 185.043 344.463C175.095 350.65 164.261 355.283 152.915 358.202C141.881 361.095 130.523 362.575 119.115 362.606H94.1829C85.367 362.606 77.1679 362.547 69.5855 362.429C61.9986 362.308 56.3095 362.132 52.5179 361.901C51.1792 361.901 50.51 360.727 50.5103 358.378ZM96.6929 173.787V319.628C99.1451 319.628 101.376 319.687 103.387 319.804C105.394 319.926 107.458 320.043 109.578 320.156C111.695 320.278 114.093 320.336 116.773 320.333C126.915 320.467 137 318.797 146.558 315.401C155.226 312.279 163.067 307.218 169.482 300.605C176.073 293.65 181.094 285.361 184.207 276.298C187.812 265.759 189.567 254.675 189.394 243.537C189.603 233.043 187.902 222.598 184.374 212.713C181.334 204.317 176.379 196.746 169.901 190.6C163.424 184.455 155.603 179.904 147.059 177.31C137.687 174.409 127.922 172.983 118.112 173.083C113.646 173.083 109.909 173.141 106.9 173.258C103.888 173.38 100.485 173.556 96.6929 173.787Z" fill="#FF61F6"/>
<path d="M433.504 361.943H392.552C392.077 362.008 391.593 361.962 391.139 361.809C390.684 361.657 390.271 361.401 389.931 361.062C389.374 360.247 388.933 359.358 388.622 358.42C384.469 340.807 380.975 325.249 378.137 311.745C375.297 298.242 372.949 286.794 371.094 277.398C369.236 268.007 367.707 260.023 366.507 253.443C365.304 246.871 364.376 241.352 363.722 236.886H363.395C361.209 246.519 359.189 255.854 357.335 264.892C355.476 273.935 353.455 283.036 351.274 292.193C349.088 301.353 346.631 311.451 343.902 322.489C341.169 333.53 338.166 345.508 334.892 358.42C334.452 360.771 333.255 361.943 331.289 361.943H290.337C289.25 362.06 288.155 361.812 287.225 361.239C286.539 360.55 286.032 359.703 285.75 358.773L243.16 189.682C242.505 187.805 243.379 186.865 245.781 186.863H287.061C289.026 186.863 290.118 187.568 290.337 188.977C294.704 208.237 298.362 224.852 301.312 238.824C304.261 252.799 306.554 264.718 308.192 274.58C309.83 284.443 311.195 292.487 312.287 298.711C313.377 304.935 314.251 310.043 314.908 314.034H315.563C315.913 310.6 316.46 307.189 317.201 303.818C318.072 299.591 319.164 294.131 320.477 287.438C321.788 280.744 323.426 272.818 325.392 263.659C327.357 254.5 329.595 243.873 332.107 231.778C334.616 219.685 337.947 205.888 342.1 190.386C342.184 189.402 342.463 188.444 342.919 187.568C343.246 187.1 344.066 186.863 345.376 186.863H388.294C389.604 186.863 390.366 187.689 390.587 189.33C394.298 205.303 397.41 219.335 399.924 231.426C402.433 243.525 404.617 254.21 406.476 263.483C408.329 272.763 409.749 280.748 410.735 287.438C411.718 294.131 412.646 299.767 413.52 304.347C414.259 308.015 414.806 311.718 415.158 315.443H415.813C416.903 310.985 417.886 305.818 418.762 299.943C419.632 294.076 420.778 287.441 422.202 280.04C423.62 272.642 425.149 264.481 426.788 255.557C428.427 246.635 430.447 236.654 432.849 225.614C435.25 214.577 437.98 202.6 441.039 189.682C441.475 187.805 442.458 186.865 443.988 186.863H482.319C484.284 186.863 485.049 187.92 484.612 190.034L437.436 358.773C437.152 359.668 436.708 360.503 436.125 361.239C435.377 361.807 434.436 362.06 433.504 361.943Z" fill="#FF61F6"/>
</g>
<defs>
<clipPath id="clip0_820_302">
<rect width="525.128" height="512" fill="white" transform="translate(0.641113 0.0507812)"/>
</clipPath>
</defs>
</svg>
