<svg width="394" height="513" viewBox="0 0 394 513" fill="none" xmlns="http://www.w3.org/2000/svg">
<g clip-path="url(#clip0_795_4743)">
<path d="M196.688 12.3635L240.528 85.7331L261.968 49.8547L386.128 257.547L263.747 462.251L241.725 425.413L196.688 500.773L151.638 425.413L129.616 462.251L7.28001 257.547L131.408 49.8547L152.861 85.7267L196.688 12.3635ZM196.688 0.574707L191.491 9.27871L152.835 73.9507L136.573 46.7571L131.408 38.0531L126.218 46.7571L2.08321 254.437L0.208008 257.547L2.06401 260.632L124.426 465.349L129.616 474.04L134.806 465.349L151.638 437.189L191.478 503.864L196.688 512.575L201.885 503.89L241.744 437.202L258.576 465.362L263.779 474.034L268.957 465.362L391.312 260.626L393.168 257.541L391.312 254.431L267.152 46.7507L261.968 38.0723L256.771 46.7571L240.528 73.9507L201.878 9.27871L196.688 0.574707Z" fill="#98989A"/>
<path d="M151.638 425.413L196.669 500.773L241.725 425.413L263.747 462.251L386.096 257.547L261.974 49.8545L240.528 85.7329L196.688 12.3633L152.835 85.7329L131.382 49.8545L7.27979 257.547L129.616 462.251L151.638 425.413Z" fill="#12284C"/>
<path d="M322.173 292.767L263.747 390.501L258.384 381.496L244.611 404.536L263.747 436.536L349.686 292.767H322.173ZM129.616 390.501L71.248 292.767H43.728L129.616 436.543L148.765 404.543L134.992 381.503L129.616 390.501ZM278.128 292.767L196.688 429.003L115.254 292.767H87.7344L196.688 475.058L305.648 292.767H278.128Z" fill="#8AB7E9"/>
<path d="M43.728 222.303H70.512L131.408 120.415L136.643 129.151L150.038 106.751L131.408 75.5825L43.728 222.303ZM261.968 75.5825L243.344 106.744L256.784 129.144L261.968 120.415L322.864 222.303H349.648L261.968 75.5825Z" fill="white"/>
<path d="M133.066 189.381L196.688 82.9171L260.317 189.381H287.12L196.688 38.0723L106.269 189.381H133.066Z" fill="white"/>
<path d="M30.6274 238.015H39.9842L46.205 262.975H46.2882L54.4418 238.015H62.429L70.525 263.615H70.6082L77.1746 238.015H85.8786L74.4866 276.959H66.8386L58.2562 249.995H58.1346L49.5586 276.952H42.1858L30.6274 238.015Z" fill="white"/>
<path d="M90.0127 238.015H98.6015V252.536H115.28V238.015H123.862V276.959H115.28V260.133H98.6015V276.952H90.0127V238.015Z" fill="white"/>
<path d="M133.219 238.015H141.795V276.959H133.219V238.015Z" fill="white"/>
<path d="M159.306 245.592H148.195V238.015H179.005V245.599H167.888V276.959H159.306V245.592Z" fill="white"/>
<path d="M185.712 238.015H212.189V245.944H194.269V253.215H207.491V261.119H194.301V269.035H213.168V276.952H185.712V238.015Z" fill="white"/>
<path d="M244.381 248.127C242.672 246.098 240.195 244.927 237.002 244.927C230.512 244.927 225.718 250.213 225.718 257.471C225.718 264.728 230.512 270.015 236.726 270.015C238.311 270.058 239.88 269.697 241.285 268.964C242.691 268.232 243.886 267.153 244.758 265.829L251.914 271.167C248.662 275.788 243.171 277.944 237.834 277.944C225.674 277.944 216.816 269.951 216.816 257.464C216.816 244.978 225.667 236.984 237.834 236.984C242.186 236.984 247.69 238.476 250.986 242.693L244.381 248.127Z" fill="white"/>
<path d="M269.578 238.015H276.688L293.648 276.959H283.946L280.586 268.735H265.443L262.205 276.978H252.739L269.578 238.015ZM272.88 249.343L268.15 261.458H277.667L272.88 249.343Z" fill="white"/>
<path d="M297.495 238.015H311.965C320.061 238.015 326.762 240.575 326.762 249.848C326.762 258.975 320.541 261.791 312.355 261.791H306.077V276.959H297.495V238.015ZM306.077 254.52H311.837C314.851 254.52 317.891 253.483 317.891 249.848C317.891 245.816 313.815 245.266 310.512 245.266H306.109L306.077 254.52Z" fill="white"/>
<path d="M352.515 247.512C351.139 245.765 348.381 244.952 346.295 244.952C343.875 244.952 340.535 246.04 340.535 248.965C340.535 256.063 358.455 251.525 358.455 265.144C358.455 273.842 351.466 277.944 343.427 277.944C338.429 277.944 334.019 276.466 330.339 273.055L336.439 266.335C337.327 267.476 338.464 268.4 339.762 269.037C341.061 269.675 342.487 270.009 343.933 270.015C346.73 270.015 349.872 268.696 349.872 265.938C349.872 258.795 331.594 262.648 331.594 249.656C331.594 241.336 338.813 237.003 346.461 237.003C350.858 237.003 355.095 238.149 358.397 241.061L352.515 247.512Z" fill="white"/>
<path d="M165.162 292.543H191.299V300.46H173.75V308.415H186.307V316.351H173.75V331.532H165.162V292.543Z" fill="white"/>
<path d="M220.189 302.655C218.486 300.626 216.003 299.455 212.81 299.455C206.326 299.455 201.533 304.741 201.533 311.992C201.533 319.243 206.326 324.549 212.534 324.549C214.122 324.59 215.693 324.226 217.1 323.491C218.508 322.757 219.705 321.676 220.579 320.351L227.728 325.701C224.483 330.328 218.979 332.466 213.648 332.466C201.488 332.466 192.624 324.491 192.624 311.986C192.624 299.48 201.482 291.506 213.648 291.506C217.987 291.506 223.491 292.984 226.8 297.221L220.189 302.655Z" fill="white"/>
<path d="M96.8481 200.178H102.448L107.952 214.763H108.01L113.603 200.178H118.851L109.648 222.443H105.712L96.8481 200.178Z" fill="white"/>
<path d="M125.072 200.178H129.123L138.813 222.443H133.283L131.363 217.727H122.71L120.867 222.443H115.453L125.072 200.178ZM126.96 206.655L124.253 213.573H129.699L126.96 206.655Z" fill="white"/>
<path d="M141.488 200.178H148.163L157.648 215.647H157.718V200.178H162.627V222.443H156.227L146.505 206.597H146.448V222.443H141.539L141.488 200.178Z" fill="white"/>
<path d="M181.968 205.951C181.447 205.353 180.798 204.88 180.069 204.568C179.339 204.255 178.549 204.111 177.757 204.146C174.045 204.146 171.312 207.148 171.312 211.301C171.312 215.455 174.045 218.482 177.597 218.482C178.503 218.507 179.401 218.301 180.205 217.882C181.01 217.463 181.693 216.846 182.192 216.088L186.282 219.141C184.432 221.784 181.271 223.013 178.231 223.013C171.28 223.013 166.218 218.45 166.218 211.301C166.218 204.152 171.248 199.615 178.199 199.615C180.675 199.615 183.824 200.447 185.712 202.885L181.968 205.951Z" fill="white"/>
<path d="M199.824 199.615C206.774 199.615 211.837 204.159 211.837 211.301C211.837 218.444 206.774 223.013 199.824 223.013C192.873 223.013 187.817 218.45 187.817 211.301C187.817 204.152 192.848 199.615 199.824 199.615ZM199.824 218.482C203.997 218.482 206.742 215.461 206.742 211.301C206.742 207.141 203.997 204.146 199.824 204.146C195.651 204.146 192.912 207.148 192.912 211.301C192.912 215.455 195.645 218.482 199.824 218.482Z" fill="white"/>
<path d="M234.762 213.855C234.762 219.109 231.562 223.013 225.379 223.013C219.197 223.013 215.978 219.109 215.978 213.855V200.178H220.886V213.695C220.886 216.434 222.774 218.514 225.366 218.514C227.958 218.514 229.846 216.434 229.846 213.695V200.178H234.762V213.855Z" fill="white"/>
<path d="M237.469 200.178H243.082L248.573 214.763H248.643L254.237 200.178H259.485L250.307 222.443H246.378L237.469 200.178Z" fill="white"/>
<path d="M262.441 200.178H277.571V204.735H267.331V208.888H276.989V213.407H267.344V217.938H278.134V222.469H262.441V200.178Z" fill="white"/>
<path d="M282.499 200.178H291.101C295.677 200.178 299.51 201.752 299.51 206.943C299.51 210.047 297.84 212.466 294.691 213.035L300.361 222.443H294.473L289.821 213.541H287.401V222.443H282.499V200.178ZM287.401 209.381H290.307C292.08 209.381 294.409 209.323 294.409 206.911C294.409 204.677 292.393 204.351 290.608 204.351H287.408L287.401 209.381Z" fill="white"/>
</g>
<defs>
<clipPath id="clip0_795_4743">
<rect width="392.96" height="512" fill="white" transform="translate(0.208008 0.574707)"/>
</clipPath>
</defs>
</svg>
