<svg width="227" height="513" viewBox="0 0 227 513" fill="none" xmlns="http://www.w3.org/2000/svg">
<g clip-path="url(#clip0_795_4016)">
<path d="M173.13 0.574707H53.2814C23.9984 0.574707 0.300293 24.4238 0.300293 53.5558V459.443C0.300293 488.726 23.9984 512.575 53.2814 512.575H173.13C202.413 512.575 226.263 488.726 226.263 459.443V53.5558C226.263 24.4238 202.413 0.574707 173.13 0.574707Z" fill="white"/>
<path d="M143.395 94.4615L143.546 96.1219C147.168 98.2351 148.98 100.046 152.753 102.311C162.564 108.499 174.64 119.367 172.98 157.103C175.697 165.254 176.904 181.405 179.47 186.688C184.602 196.801 187.923 203.292 189.432 212.952C189.432 212.952 190.942 227.745 192.753 228.801C202.866 231.065 199.998 232.122 201.357 233.782C202.866 235.745 208.753 235.745 208.753 241.178C210.715 243.895 212.225 246.763 213.432 249.631V53.5559C213.432 31.2162 195.319 13.103 172.98 13.103H134.489C140.678 15.3672 144.149 17.9332 146.263 22.0087C151.244 22.4615 157.281 33.6313 147.923 50.2351C151.998 52.9521 148.829 57.0276 145.81 61.8577C144.904 63.3672 143.998 66.0842 141.281 65.9332C137.81 73.3294 133.583 80.5747 130.263 81.0276C129.357 82.0842 128.602 85.254 130.112 86.7634C134.791 88.8766 140.527 91.7445 143.395 94.4615Z" fill="#C8102E"/>
<path d="M213.583 276.197C208.3 289.48 195.319 298.99 179.923 298.99C159.847 298.99 143.847 282.839 143.847 262.914C143.847 245.858 155.621 231.669 171.47 227.744C167.244 217.329 158.489 200.424 155.923 194.839C153.508 189.405 147.47 154.99 146.263 148.197C145.961 146.688 130.715 157.103 130.715 157.707C129.81 158.612 119.244 186.235 118.791 187.744C118.64 188.65 118.489 192.424 118.489 192.424C118.489 192.424 123.621 193.027 126.64 202.084C129.659 211.141 138.564 244.197 138.564 244.197C138.564 244.197 136.149 246.763 136.149 246.612C147.621 284.801 143.546 301.254 148.678 312.424C155.168 328.273 156.829 326.159 162.413 339.442C166.338 349.103 170.715 387.141 172.225 388.801C178.413 396.65 181.734 402.688 181.734 407.065C181.734 411.442 176.451 424.575 178.413 432.273C179.621 436.801 180.225 446.763 182.187 448.725C182.187 448.725 184.149 452.499 183.093 454.159C182.791 454.763 182.338 455.669 182.489 456.273C185.961 468.197 196.829 488.725 179.017 499.442H179.47C198.791 496.424 213.583 479.82 213.583 459.442V276.197Z" fill="#C8102E"/>
<path d="M167.998 451.745C161.508 446.009 165.885 443.443 165.583 441.178C161.357 423.518 147.168 412.65 154.564 406.914C152.753 401.028 149.13 393.782 149.281 393.782C127.395 381.254 108.678 360.726 105.508 357.707C101.583 353.48 95.0928 349.254 93.8852 345.933C88.6022 341.103 62.7909 304.424 56.7531 290.839L46.1871 289.329C41.3569 269.858 25.5079 253.405 25.055 233.933C24.9041 226.537 28.3758 210.688 29.7343 207.518C30.9418 204.348 37.1305 199.065 37.1305 199.065V193.782C14.1871 194.386 20.8286 192.122 16.9041 183.216C14.1871 177.028 16.1494 175.669 17.055 171.443C20.0739 158.763 30.338 139.292 34.5645 130.537C35.923 126.009 40.3003 115.292 40.3003 115.292C57.3569 80.5747 63.6965 83.1408 84.0739 81.1785L85.1305 79.6691C105.508 78.7634 102.187 77.254 105.055 57.6313C102.036 58.8389 101.281 51.4426 101.281 51.4426C99.6211 40.2728 104.3 42.386 106.564 42.2351C107.017 23.9709 108.98 18.2351 122.112 13.103H53.2814C30.9418 13.103 12.8286 31.2162 12.8286 53.5559V459.443C12.8286 481.782 30.9418 500.046 53.2814 500.046H173.13C159.395 492.65 167.546 478.461 167.998 451.745Z" fill="#1D428A"/>
</g>
<defs>
<clipPath id="clip0_795_4016">
<rect width="225.962" height="512" fill="white" transform="translate(0.300293 0.574707)"/>
</clipPath>
</defs>
</svg>
