<svg width="380" height="513" viewBox="0 0 380 513" fill="none" xmlns="http://www.w3.org/2000/svg">
<g clip-path="url(#clip0_795_4592)">
<path d="M232.294 356.773C232.181 348.286 229.504 340.031 224.614 333.093L207.545 333.298L202.464 316.984C194.354 314.51 185.69 314.51 177.58 316.984L172.512 333.311L155.436 333.106C150.549 340.045 147.872 348.299 147.756 356.786L161.67 366.655L156.198 382.821C161.301 389.601 168.322 394.694 176.352 397.439L190.048 387.237L203.744 397.439C211.765 394.685 218.776 389.588 223.872 382.808L218.368 366.655L232.294 356.773ZM222.764 335.397C226.888 341.502 229.212 348.643 229.472 356.005L219.328 363.186L224.115 346.354L210.355 335.551L222.764 335.397ZM179.193 319.474C186.271 317.469 193.767 317.469 200.844 319.474L204.544 331.346L190.016 321.599L175.488 331.346L179.193 319.474ZM160.729 363.186L150.585 356.005C150.839 348.645 153.156 341.504 157.273 335.397L169.708 335.551L155.948 346.354L160.729 363.186ZM176.467 394.495C169.556 391.96 163.49 387.547 158.95 381.752L162.937 369.976L168.96 386.405L186.444 387.045L176.467 394.495ZM190.016 384.575L187.808 374.117L174.809 364.671L164.192 365.81L173.446 360.485L178.412 345.215L174.06 335.461L181.984 342.616H198.048L205.977 335.461L201.625 345.215L206.585 360.485L215.84 365.81L205.222 364.684L192.224 374.13L190.016 384.575ZM221.081 381.74C216.543 387.536 210.476 391.949 203.564 394.482L193.593 387.045L211.072 386.405L217.1 369.976L221.081 381.74Z" fill="white"/>
<path d="M177.67 363.564L186.521 351.749L199.456 346.949H182.848L177.67 363.564Z" fill="white"/>
<path d="M0.0893555 0.574707V195.922C0.0893555 415.173 190.016 512.575 190.016 512.575C190.016 512.575 379.942 415.173 379.942 195.922V0.574707H0.0893555ZM372.768 195.922C372.768 392.325 214.899 489.906 190.016 504.101C165.133 489.906 7.27656 392.325 7.27656 195.922V7.76191H372.768V195.922Z" fill="#DAA900"/>
<path d="M190.016 487.141C227.776 464.344 358.4 373.311 358.4 195.941V22.1235H21.6445V195.922C21.6445 373.311 152.262 464.344 190.016 487.141ZM28.8189 29.3043H351.219V195.922C351.219 364.165 230.899 453.068 190.016 478.661C149.139 453.061 28.8189 364.165 28.8189 195.922V29.3043Z" fill="#DAA900"/>
<path d="M268.224 129.298C288.228 148.06 301.423 172.944 305.728 200.031C302.256 172.073 289.592 146.062 269.728 126.085L268.224 129.298Z" fill="#DAA900"/>
<path d="M142.432 335.992C121.678 328.427 103.325 315.45 89.274 298.406C75.2226 281.361 65.984 260.87 62.5151 239.055C59.0462 217.24 61.4733 194.894 69.5449 174.332C77.6165 153.77 91.0391 135.74 108.422 122.111L104.512 113.714C85.7478 127.715 71.2038 146.615 62.4758 168.339C53.7479 190.063 51.1734 213.772 55.0349 236.863C58.8965 259.955 69.0448 281.536 84.366 299.238C99.6873 316.941 119.589 330.08 141.888 337.215C142.06 336.786 142.246 336.402 142.432 335.992Z" fill="#DAA900"/>
<path d="M227.468 218.635C219.029 211.045 209.715 206.601 199.526 205.304C199.526 205.304 245.12 201.81 245.12 175.327C245.12 162.591 229.19 145.368 179.552 145.368H121.235C121.235 145.368 128.992 149.695 128.992 153.387V209.855C136.211 213.387 146.067 216.651 155.872 220.626V209.695H171.872C180.364 209.695 185.222 211.615 189.651 215.32L236.16 258.623C242.668 264.197 255.584 270.981 266.822 270.981C281.26 270.981 287.027 266.162 287.027 266.162C287.027 266.162 277.715 265.579 270.636 259.519L227.468 218.635ZM175.244 202.635H155.872V152.69H175.257C199.641 152.69 215.923 161.048 215.923 177.65C215.91 191.167 199.008 202.648 175.244 202.648V202.635Z" fill="#DAA900"/>
<path d="M128.992 239.768V258.552C128.992 262.872 122.048 266.539 122.048 266.539H163.206C163.206 266.539 155.872 262.872 155.872 258.552V252.19C149.517 247.672 139.405 243.979 128.992 239.768Z" fill="#DAA900"/>
<path d="M100.448 85.0548C103.52 92.3252 104.825 94.8724 104.825 94.8724L102.349 103.948L111.949 108.172L117.907 121.016C117.907 121.016 145.971 108.37 189.99 108.37C234.009 108.37 262.112 120.984 262.112 120.984L268.07 108.14L277.67 103.916L275.193 94.8404C275.193 94.8404 276.473 92.2804 279.565 85.0228C282.656 77.7652 297.549 69.9188 297.549 69.9188C284.96 56.9716 274.509 82.866 261.229 70.2836C256.646 77.1316 266.259 85.3876 266.259 85.3876C265.228 87.6307 263.666 89.5887 261.707 91.092C259.749 92.5953 257.454 93.5985 255.021 94.0148C244.915 95.7172 234.361 95.0836 232.326 76.4724C232.326 76.4724 225.472 95.2884 209.638 91.1924C199.321 88.5172 195.2 80.3124 193.747 76.1332C203.987 74.8916 211.827 68.626 211.827 61.0932H196.889C196.313 53.4132 190.016 47.0708 190.016 47.0708C190.016 47.0708 183.718 53.4004 183.142 61.0932H168.205C168.205 68.626 176.019 74.8916 186.285 76.1332C184.825 80.2932 180.704 88.5172 170.393 91.1924C154.56 95.314 147.712 76.4724 147.712 76.4724C145.67 95.0836 135.117 95.7172 125.017 94.0148C122.584 93.6052 120.288 92.6083 118.327 91.1105C116.367 89.6128 114.801 87.6593 113.766 85.4196C113.766 85.4196 123.366 77.1636 118.79 70.3156C105.497 82.898 95.0654 57.0036 82.4702 69.9508C82.4702 69.9188 97.3886 77.7588 100.448 85.0548Z" fill="#DAA900"/>
<path d="M261.472 137.381C261.811 136.701 261.991 135.952 261.997 135.192C261.997 125.093 229.76 116.914 190.016 116.914C150.272 116.914 118.035 125.093 118.035 135.192C118.042 135.952 118.219 136.7 118.554 137.381C133.875 129.272 160.154 123.941 190.016 123.941C219.878 123.941 246.163 129.272 261.472 137.381Z" fill="#DAA900"/>
<path d="M155.949 346.354L169.709 335.551L157.273 335.397C153.157 341.504 150.839 348.645 150.585 356.005L160.729 363.186L155.949 346.354Z" fill="#DAA900"/>
<path d="M200.845 319.474C193.767 317.468 186.271 317.468 179.193 319.474L175.488 331.346L190.016 321.599L204.544 331.346L200.845 319.474Z" fill="#DAA900"/>
<path d="M210.33 335.551L224.09 346.354L219.302 363.186L229.472 356.005C229.22 348.645 226.905 341.504 222.79 335.397L210.33 335.551Z" fill="#DAA900"/>
<path d="M162.912 369.977L158.924 381.753C163.464 387.547 169.53 391.96 176.441 394.495L186.419 387.058L168.934 386.418L162.912 369.977Z" fill="#DAA900"/>
<path d="M211.072 386.405L193.593 387.045L203.564 394.482C210.476 391.949 216.543 387.535 221.081 381.739L217.1 369.963L211.072 386.405Z" fill="#DAA900"/>
<path d="M7.27637 7.74902V195.909C7.27637 392.312 165.132 489.893 190.016 504.088C214.899 489.906 372.768 392.325 372.768 195.922V7.76182L7.27637 7.74902ZM358.4 195.909C358.4 373.298 227.769 464.331 190.016 487.109C152.256 464.312 21.6444 373.279 21.6444 195.909V22.1234H358.4V195.909Z" fill="#A32035"/>
<path d="M319.852 218.54C319.873 244.772 312.396 270.464 298.3 292.588C284.204 314.711 264.078 332.345 240.294 343.41C241.03 346.046 241.554 348.736 241.862 351.455C263.943 341.989 283.219 327.003 297.836 307.936C312.452 288.869 321.919 266.363 325.326 242.581C328.732 218.799 325.964 194.54 317.288 172.137C308.611 149.734 294.318 129.939 275.782 114.655L273.696 115.557C288.24 128.478 299.875 144.339 307.832 162.092C315.789 179.845 319.886 199.085 319.852 218.54Z" fill="#A32035"/>
<path d="M137.997 353.349C138.112 351.775 138.304 350.226 138.56 348.69C106.337 337.558 79.3929 314.861 62.9502 284.997C78.5219 316.376 105.303 340.768 137.997 353.349Z" fill="#A32035"/>
<path d="M194.323 182.75V195.179C205.203 191.301 211.475 184.299 211.475 177.669C211.47 176.812 211.406 175.957 211.283 175.109H187.872C187.872 175.109 194.323 176.747 194.323 182.75Z" fill="#A32035"/>
<path d="M194.323 225.727V282.994C194.323 288.997 187.885 290.674 187.885 290.674H263.962C294.458 290.674 283.981 272.754 283.981 272.754C283.981 272.754 278.022 283.173 259.962 283.173H216.986V246.821L194.323 225.727Z" fill="#A32035"/>
<path d="M171.366 198.808C171.366 198.808 179.212 194.911 179.212 187.788C179.212 180.869 170.572 177.119 160.294 175.237V183.909C167.436 187.173 170.912 192.485 171.366 198.808Z" fill="#A32035"/>
<path d="M92.5884 272.709C92.5884 282.949 112.032 292.14 139.398 292.14C173.772 292.14 188.076 274.328 188.076 257.496C188.076 221.426 113.35 222.162 113.35 198.431C113.35 192.236 118.048 187.18 124.556 184.012V175.493C109.196 179.084 94.4764 187.992 94.4764 203.698C94.4764 237.125 166.899 236.018 166.899 262.335C166.899 275.871 157.44 285.1 139.379 285.1C118.899 285.1 101.561 274.444 105.856 258.514C105.875 258.495 92.5884 261.599 92.5884 272.709Z" fill="#A32035"/>
<path d="M148.102 361.4C147.551 367.418 149.359 373.414 153.145 378.124L154.726 373.253C154.726 373.253 149.004 368.076 148.102 361.4Z" fill="#A32035"/>
<path d="M180.832 398.52C186.385 400.896 192.642 401.029 198.291 398.891L194.156 395.883C194.156 395.883 187.468 399.723 180.832 398.52Z" fill="#A32035"/>
<path d="M227.878 365.375C227.878 365.375 229.472 372.92 226.272 378.847C230.256 374.303 232.321 368.39 232.032 362.354L227.878 365.375Z" fill="#A32035"/>
<path d="M207.712 319.013L209.293 323.864C209.293 323.864 216.973 324.703 221.626 329.573C218.533 324.382 213.544 320.595 207.712 319.013Z" fill="#A32035"/>
<path d="M173.286 318.789C167.395 320.128 162.254 323.7 158.944 328.754H164.064C164.064 328.754 167.219 321.707 173.286 318.789Z" fill="#A32035"/>
<path d="M201.625 345.215L205.977 335.461L198.048 342.616H181.984L174.061 335.461L178.413 345.215L173.446 360.485L164.192 365.81L174.809 364.683L187.808 374.13L190.016 384.575L192.224 374.117L205.222 364.671L215.84 365.797L206.585 360.472L201.625 345.215ZM186.522 351.749L177.67 363.563L182.848 346.923H199.488L186.522 351.749Z" fill="#A32035"/>
<path d="M28.8188 29.3042V195.922C28.8188 364.165 149.139 453.067 190.016 478.661C230.892 453.061 351.219 364.165 351.219 195.922V29.3042H28.8188ZM153.145 378.104C149.359 373.395 147.551 367.398 148.102 361.381C149.004 368.056 154.726 373.234 154.726 373.234L153.145 378.104ZM180.832 398.52C187.456 399.723 194.156 395.883 194.156 395.883L198.291 398.891C192.642 401.029 186.385 400.896 180.832 398.52ZM227.878 365.375L232.012 362.373C232.302 368.409 230.237 374.322 226.252 378.866C229.472 372.92 227.878 365.375 227.878 365.375ZM218.368 366.655L223.84 382.821C218.745 389.601 211.733 394.697 203.712 397.451L190.016 387.25L176.352 397.439C168.332 394.685 161.323 389.588 156.23 382.808L161.67 366.655L147.737 356.786C147.853 348.299 150.53 340.045 155.417 333.106L172.492 333.311L177.568 316.997C185.677 314.522 194.341 314.522 202.451 316.997L207.532 333.311L224.601 333.106C229.491 340.044 232.169 348.299 232.281 356.786L218.368 366.655ZM139.398 285.099C157.465 285.099 166.918 275.871 166.918 262.335C166.918 236.018 94.4957 237.125 94.4957 203.698C94.4957 187.992 109.184 179.083 124.576 175.493V184.011C118.067 187.179 113.369 192.235 113.369 198.431C113.369 222.162 188.096 221.426 188.096 257.496C188.096 274.328 173.792 292.139 139.417 292.139C112.051 292.139 92.6076 282.917 92.6076 272.709C92.6076 261.599 105.894 258.514 105.894 258.514C101.58 274.443 118.931 285.099 139.398 285.099ZM163.212 266.539H122.054C122.054 266.539 128.992 262.872 128.992 258.552V239.768C139.398 243.979 149.51 247.672 155.872 252.191V258.552C155.872 262.872 163.212 266.539 163.212 266.539ZM261.472 137.381C246.163 129.272 219.872 123.941 190.016 123.941C160.16 123.941 133.875 129.291 118.553 137.381C118.219 136.699 118.042 135.951 118.035 135.192C118.035 125.093 150.272 116.914 190.016 116.914C229.76 116.914 261.996 125.093 261.996 135.192C261.99 135.952 261.811 136.701 261.472 137.381ZM221.593 329.573C216.947 324.703 209.26 323.864 209.26 323.864L207.712 319.013C213.532 320.603 218.508 324.388 221.593 329.573ZM173.286 318.789C167.219 321.707 164.051 328.754 164.051 328.754H158.931C162.244 323.697 167.39 320.125 173.286 318.789ZM187.884 290.629C187.884 290.629 194.323 288.978 194.323 282.949V225.727L216.985 246.847V283.186H259.961C278.022 283.186 283.98 272.767 283.98 272.767C283.98 272.767 294.457 290.687 263.961 290.687L187.884 290.629ZM266.816 270.962C255.577 270.962 242.662 264.178 236.153 258.603L189.644 215.301C185.216 211.583 180.358 209.65 171.865 209.675H155.872V220.632C146.086 216.658 136.23 213.394 128.992 209.861V153.387C128.992 149.701 121.228 145.368 121.228 145.368H179.552C229.19 145.368 245.12 162.591 245.12 175.327C245.12 201.81 199.526 205.304 199.526 205.304C209.715 206.61 219.029 211.054 227.468 218.635L270.63 259.519C277.708 265.579 287.02 266.162 287.02 266.162C287.02 266.162 281.254 270.981 266.816 270.981V270.962ZM268.224 129.279L269.728 126.079C289.593 146.055 302.256 172.067 305.728 200.024C301.421 172.94 288.227 148.058 268.224 129.298V129.279ZM268.057 108.12L262.112 120.984C262.112 120.984 234.048 108.338 190.028 108.338C146.009 108.338 117.945 120.984 117.945 120.984L111.987 108.139L102.387 103.915L104.864 94.8402C104.864 94.8402 103.584 92.2802 100.486 85.0226C97.3884 77.765 82.5084 69.9186 82.5084 69.9186C95.1036 56.9714 105.548 82.8658 118.828 70.2834C123.417 77.1314 113.804 85.3874 113.804 85.3874C114.832 87.6283 116.39 89.5851 118.343 91.0884C120.297 92.5916 122.588 93.596 125.017 94.0146C135.116 95.717 145.67 95.0834 147.712 76.4722C147.712 76.4722 154.56 95.2882 170.393 91.1922C180.704 88.517 184.825 80.3122 186.284 76.133C176.044 74.8914 168.204 68.6258 168.204 61.093H183.142C183.718 53.413 190.016 47.0706 190.016 47.0706C190.016 47.0706 196.313 53.4002 196.889 61.093H211.827C211.827 68.6258 204.012 74.8914 193.747 76.133C195.2 80.293 199.321 88.517 209.638 91.1922C225.472 95.3138 232.326 76.4722 232.326 76.4722C234.361 95.0834 244.915 95.717 255.02 94.0146C257.453 93.6035 259.749 92.606 261.709 91.1084C263.669 89.6108 265.235 87.6582 266.272 85.4194C266.272 85.4194 256.672 77.1634 261.241 70.3154C274.534 82.8978 284.972 57.0034 297.561 69.9506C297.561 69.9506 282.643 77.7906 279.577 85.0546C276.512 92.3186 275.206 94.8722 275.206 94.8722L277.683 103.947L268.057 108.12ZM104.512 113.695L108.422 122.091C91.0341 135.72 77.6071 153.751 69.5324 174.315C61.4576 194.879 59.029 217.229 62.498 239.047C65.9671 260.866 75.2078 281.36 89.2624 298.406C103.317 315.451 121.674 328.428 142.432 335.992C142.259 336.402 142.073 336.786 141.9 337.183C119.609 330.044 99.7149 316.905 84.3995 299.205C69.084 281.505 58.9393 259.929 55.0782 236.844C51.2171 213.759 53.7887 190.056 62.511 168.335C71.2334 146.615 85.7694 127.717 104.524 113.714L104.512 113.695ZM62.95 284.997C79.4005 314.867 106.357 337.565 138.592 348.69C138.336 350.226 138.144 351.775 138.028 353.349C105.323 340.775 78.5295 316.382 62.95 284.997ZM241.862 351.455C241.554 348.736 241.03 346.045 240.294 343.41C260.984 333.758 278.952 319.118 292.585 300.805C306.218 282.492 315.088 261.079 318.399 238.49C321.71 215.902 319.358 192.844 311.554 171.389C303.75 149.934 290.739 130.753 273.689 115.57L275.776 114.667C294.312 129.951 308.605 149.746 317.282 172.15C325.958 194.553 328.726 218.812 325.319 242.594C321.913 266.376 312.446 288.882 297.829 307.948C283.213 327.015 263.937 342.002 241.856 351.467L241.862 351.455Z" fill="#001E61"/>
<path d="M215.91 177.669C215.91 161.029 199.628 152.709 175.244 152.709H155.872V202.667H175.257C199.008 202.648 215.91 191.167 215.91 177.669ZM171.366 198.789C170.912 192.466 167.436 187.154 160.294 183.89V175.237C170.572 177.119 179.212 180.869 179.212 187.787C179.212 194.911 171.366 198.808 171.366 198.808V198.789ZM194.323 195.16V182.751C194.323 176.747 187.884 175.103 187.884 175.103H211.283C211.406 175.95 211.47 176.806 211.475 177.663C211.475 184.312 205.209 191.295 194.323 195.179V195.16Z" fill="#001E61"/>
</g>
<defs>
<clipPath id="clip0_795_4592">
<rect width="379.853" height="512" fill="white" transform="translate(0.0893555 0.574707)"/>
</clipPath>
</defs>
</svg>
