<svg width="1024" height="215" viewBox="0 0 1024 215" fill="none" xmlns="http://www.w3.org/2000/svg">
<g clip-path="url(#clip0_806_324)">
<path d="M1006.72 49.8296C1001.95 45.0352 995.471 42.3413 988.715 42.3413C981.959 42.3413 975.481 45.0352 970.706 49.8296L959.138 61.4342L909.736 11.9446C895.001 -2.81357 871.134 -2.81357 856.399 11.9446L932.327 88.1753L856.333 164.406C863.404 171.504 872.998 175.493 883.002 175.493C893.006 175.493 902.599 171.504 909.671 164.406L995.571 78.4133C1002.96 70.6984 1013.35 66.6179 1024 67.2475L1006.72 49.8296Z" fill="black"/>
<path d="M906.15 88.2407L853.381 35.329C846.309 28.2305 836.716 24.2422 826.712 24.2422C816.708 24.2422 807.114 28.2305 800.043 35.329L852.725 88.1749L800.043 141.021C807.114 148.119 816.708 152.108 826.712 152.108C836.716 152.108 846.309 148.119 853.381 141.021L906.15 88.2407Z" fill="black"/>
<path d="M73.4787 131.654L63.7471 117.724C62.3476 115.794 61.8446 115.53 59.5702 115.53H34.2245V164.055C34.2245 166.249 34.5744 166.512 36.4113 166.512H72.1666C74.594 166.512 74.9439 166.161 76.1685 164.318L91.4766 140.188H93.6635V173.466H0V171.031L15.3081 162.673C16.8607 161.795 17.2106 161.269 17.2106 159.185V65.2731C17.2106 63.1891 16.8607 62.6626 15.3081 61.7851L0 53.5149V50.9922H92.5919V84.6214H90.405L76.256 60.2276C75.2063 58.0339 74.6815 58.0339 72.429 58.0339H36.4769C34.5744 58.0339 34.2901 58.3849 34.2901 60.4909V108.489H59.5702C61.7571 108.489 62.3476 108.138 63.7471 106.295L73.4787 92.5406H75.5562V131.654H73.4787Z" fill="black"/>
<path d="M162.244 173.465V171.272L175.102 163.44C177.005 162.212 177.289 161.861 177.289 159.952C177.464 154.205 177.464 132.071 177.464 123.888C177.355 101.776 169.023 96.467 159.641 96.467C150.26 96.467 142.956 102.741 138.101 111.823V160.084C137.887 161.525 138.644 162.935 139.96 163.55L153.081 171.381V173.575H107.528V171.381L120.65 163.55C121.957 162.918 122.695 161.499 122.465 160.062V105.878C122.655 104.548 122.121 103.217 121.065 102.39L107.528 90.3685V88.1748H136.176V104.913C141.228 94.7998 150.085 86.0908 164.496 86.0908C177.617 86.0908 186.912 92.3648 190.892 105.088C197.321 92.7158 206.2 86.0908 219.736 86.0908C236.75 86.0908 247.881 97.5857 247.881 121.19C247.881 132.882 247.706 146.461 247.531 160.062C247.315 161.521 248.092 162.946 249.434 163.55L262.555 171.381V173.575H216.959V171.381L229.818 163.55C231.72 162.321 232.005 161.97 232.005 160.062C232.18 154.314 232.18 132.18 232.18 123.998C232.18 101.863 223.848 96.467 214.685 96.467C204.953 96.467 197.649 103.048 192.619 112.481C193.049 115.387 193.282 118.318 193.319 121.256C193.319 132.948 193.144 146.527 192.969 160.128C192.742 161.507 193.409 162.879 194.631 163.55L207.752 171.381V173.575L162.244 173.465Z" fill="black"/>
<path d="M264.392 214.422V212.338L277.404 204.485C278.765 203.9 279.558 202.464 279.328 200.997V105.878C279.518 104.548 278.984 103.218 277.929 102.39L264.392 90.369V88.1753H293.04V103.531C299.469 90.8078 309.376 86.1133 320.31 86.1133C339.074 86.1133 354.885 101.272 354.885 128.276C354.885 158.988 335.072 175.506 315.63 175.506C307.903 175.779 300.413 172.805 294.964 167.302V199.615C294.964 201.808 295.293 202.401 297.151 203.278L317.292 212.338V214.422H264.392ZM337.674 129.395C337.674 109.52 328.467 95.7655 314.756 95.7655C307.451 95.7655 299.994 99.78 294.964 110.046V158.483C298.688 164.499 305.269 168.132 312.328 168.069C325.515 168.069 337.674 156.048 337.674 129.395Z" fill="black"/>
<path d="M365.666 131.654C365.666 103.136 384.932 86.1787 407.348 86.1787C429.216 86.1787 447.98 101.864 447.98 130.052C447.98 158.57 428.713 175.528 406.298 175.528C384.407 175.571 365.666 159.887 365.666 131.654ZM429.916 130.952C429.916 110.924 422.459 93.1546 406.473 93.1546C391.012 93.1546 383.73 110.222 383.73 130.776C383.73 150.827 391.187 168.596 407.523 168.596C422.634 168.596 429.916 151.529 429.916 130.952Z" fill="black"/>
<path d="M477.174 101.776L496.965 154.754L514.876 110.134L511.923 101.776C511.337 100.218 510.444 98.7932 509.299 97.5866L502.192 90.2816V88.0879H540.746V90.2816L528.762 98.6395C527.363 99.517 527.21 100.022 527.713 101.601L546.301 154.052L568.016 101.075C568.541 99.868 568.366 99.3415 567.317 98.6395L553.605 90.2816V88.0879H587.48V90.2816L577.748 99.0563C576.597 99.8618 575.743 101.026 575.321 102.369L546.301 173.444H538.844L518.506 119.611L496.637 173.444H489.158L461.188 101.776C460.617 100.215 459.731 98.7891 458.586 97.5866L451.457 90.2816V88.0879H490.383V90.2816L478.224 98.6395C476.737 99.5828 476.737 100.109 477.174 101.776Z" fill="black"/>
<path d="M605.762 128.101C605.762 156.158 620.348 164.516 633.907 164.516C644.008 164.452 653.605 160.081 660.302 152.495L662.03 153.899C655.797 168.706 642.938 175.682 628.177 175.682C606.811 175.682 589.426 161.225 589.426 131.94C589.426 101.623 607.161 86.2891 627.652 86.2891C645.891 86.2891 660.302 96.5775 660.302 124.459V128.101H605.762ZM605.937 121.52H644.316C643.638 103.97 638.237 93.3089 626.603 93.3089C615.799 93.1553 607.118 103.093 605.893 121.366L605.937 121.52Z" fill="black"/>
<path d="M702.159 158.526V119.676C704.215 113.358 710.906 96.6206 721.994 96.6206C730.129 96.6206 736.821 101.995 736.821 124.02V128.1H752.544C752.544 125.775 752.544 123.515 752.544 121.322C752.544 97.9149 742.463 86.4639 727.155 86.4639C710.71 86.4639 703.733 102.039 700.234 111.955V88.4601H671.805V90.6538L685.276 102.609C686.325 103.433 686.858 104.753 686.676 106.075V160.04C686.89 161.493 686.112 162.911 684.773 163.506L671.805 171.316V173.378H724.531V171.316L704.477 162.278C702.509 161.312 702.159 160.786 702.159 158.526Z" fill="black"/>
</g>
<defs>
<clipPath id="clip0_806_324">
<rect width="1024" height="213.546" fill="white" transform="translate(0 0.875977)"/>
</clipPath>
</defs>
</svg>
