<svg width="463" height="513" viewBox="0 0 463 513" fill="none" xmlns="http://www.w3.org/2000/svg">
<g clip-path="url(#clip0_876_1773)">
<path d="M381.725 405.629C391.222 396.098 399.864 385.625 407.376 374.485C415.025 363.157 421.596 351.058 426.901 338.498C437.938 312.384 443.551 284.645 443.551 256.051C443.551 227.456 437.956 199.717 426.901 173.604C421.596 161.06 415.025 148.945 407.376 137.617C399.795 126.408 391.102 115.85 381.502 106.267C377.344 102.109 372.997 98.1214 368.514 94.3053L462.785 0.0507812H188.167L82.1737 106.044C82.1053 106.113 82.0368 106.198 81.9513 106.267C72.3684 115.85 63.6582 126.408 56.0775 137.617C48.4283 148.945 41.8572 161.043 36.5523 173.604C25.5149 199.717 19.9021 227.456 19.9021 256.051C19.9021 284.645 25.4978 312.384 36.5523 338.498C41.8572 351.041 48.4283 363.157 56.0775 374.485C63.6582 385.694 72.3513 396.252 81.9513 405.835C86.1267 410.01 90.4732 414.014 94.9909 417.83L0.753418 512.051H275.303L381.725 405.629Z" fill="black"/>
<path d="M369.13 394.062C445.228 317.963 445.211 194.549 369.096 118.451C364.938 114.293 360.642 110.374 356.227 106.678L240.959 221.946C246.64 223.538 251.996 226.566 256.463 231.016C256.48 231.033 256.48 231.033 256.497 231.05C270.409 244.962 270.409 267.533 256.497 281.463L43.0039 494.956H68.0221L269.006 293.972C289.763 273.215 289.832 239.589 269.194 218.746L281.703 206.237C309.254 233.976 309.186 278.81 281.515 306.481L93.0403 494.956H118.058L294.041 318.973C328.625 284.389 328.677 228.38 294.23 193.711L306.739 181.202C348.099 222.768 348.031 289.985 306.55 331.465L143.077 494.939H168.095L319.042 343.991C367.436 295.598 367.504 217.172 319.231 168.71L331.74 156.201C386.91 211.576 386.858 301.21 331.551 356.5L193.096 494.956H218.114L344.061 369.009C406.264 306.806 406.332 205.98 344.249 143.692L356.843 131.097C425.874 200.333 425.823 312.436 356.655 381.587L243.303 494.939H268.322L369.13 394.062Z" fill="white"/>
<path d="M94.4435 118.211C18.3451 194.309 18.3622 317.723 94.4777 393.822C98.636 397.98 102.931 401.899 107.346 405.595L222.615 290.326C216.933 288.735 211.577 285.706 207.111 281.257C207.094 281.24 207.094 281.24 207.077 281.223C193.164 267.31 193.164 244.739 207.077 230.81L420.861 17.043H395.842L194.568 218.318C173.81 239.075 173.742 272.701 194.379 293.543L181.87 306.053C154.319 278.314 154.388 233.479 182.058 205.809L370.841 17.043H345.823L169.549 193.3C134.965 227.884 134.914 283.892 169.361 318.562L156.852 331.071C115.492 289.505 115.56 222.288 157.04 180.808L320.805 17.043H295.787L144.531 168.299C96.1376 216.692 96.0691 295.118 144.343 343.58L131.834 356.089C76.6638 300.714 76.7151 211.079 132.022 155.789L270.769 17.043H245.75L119.513 143.28C57.3098 205.484 57.2413 306.309 119.325 368.598L106.73 381.193C37.6991 311.956 37.7504 199.854 106.918 130.703L220.561 17.0601H195.543L94.4435 118.211Z" fill="#C8102E"/>
</g>
<defs>
<clipPath id="clip0_876_1773">
<rect width="462.032" height="512" fill="white" transform="translate(0.753418 0.0507812)"/>
</clipPath>
</defs>
</svg>
