<svg width="1025" height="454" viewBox="0 0 1025 454" fill="none" xmlns="http://www.w3.org/2000/svg">
<g clip-path="url(#clip0_879_3822)">
<path d="M858.703 371.958C812.034 362.633 750.769 360.158 724.891 360.158L109.096 360.295C70.7835 360.295 31.1654 360.295 10.8347 328.99C-9.79033 297.234 1.41607 265.989 36.1979 203.469C38.7942 198.823 144.26 0.642578 144.26 0.642578C144.26 0.642578 155.035 14.0143 165.898 22.5327C176.625 30.9338 187.645 35.4138 217.03 35.4138C269.222 35.4138 605.915 34.6778 609.348 34.6565C677.693 34.6565 746.726 41.7306 791.458 90.761C814.679 93.2378 889.64 103.141 951.419 132.666C987.569 149.92 1011.42 175.712 1020.43 207.211C1023.15 216.732 1024.51 226.744 1024.51 237.12C1024.51 267.019 1013.31 300.131 991.351 334.541C944.958 407.269 902.174 432.687 900.258 434.055C873.892 452.596 848.36 453.46 848.36 453.46C848.36 453.46 871.355 427.324 879.112 401.189C886.88 375.053 858.703 371.958 858.703 371.958Z" fill="#FFFFFE"/>
<path d="M943.801 148.605C1014.2 182.258 1026.55 246.555 976.469 325.062C931.552 395.421 886.201 425.273 886.201 425.273C886.201 425.273 929.9 368.168 862.154 354.617C811.131 344.436 745.785 342.493 724.893 342.493C700.857 342.493 486.077 342.984 459.279 342.984C432.48 342.984 425.077 339.329 419.197 331.242C413.329 323.184 412.307 312.161 423.298 295.645C434.329 279.137 451.08 253.277 451.08 253.277L378.675 195.052C439.43 134.459 487.957 114.139 530.319 114.139C573.271 114.139 592.204 120.447 662.909 150.1C733.623 179.773 756.992 148.223 756.992 148.223C727.302 160.84 700.787 150.1 650.895 128.031C601.021 105.934 571.351 95.8519 526.543 95.8519C481.704 95.8519 443.833 108.458 396.39 143.338C351.718 176.174 348.337 182.924 280.983 182.924H66.9819L149.395 28.7031C149.395 28.7031 155.558 53.0701 217.032 53.0701C269.845 53.0701 609.35 52.3234 609.35 52.3234C676.761 52.3234 743.456 59.4658 782.927 107.681C782.927 107.681 873.382 114.952 943.801 148.605ZM819.389 161.251C787.36 153.588 814.739 135.056 814.739 135.056C768.65 144.362 751.505 181.934 747.543 192.447C746.805 193.872 746.05 195.336 745.271 196.878C719.769 248.148 696.804 245.407 653.263 245.407H578.694C518.293 245.407 490.165 275.325 461.213 326.282H495.328C526.502 279.886 550.037 267.378 611.697 263.899C752.606 263.978 864.934 304.379 924.294 335.261C1008.72 193.567 883.426 170.113 819.387 161.251H819.389ZM557.128 325.729C572.887 301.921 604.928 293.836 656.588 296.812C784.076 304.191 857.378 329 914.329 350.203C844.106 309.123 718.956 279.508 631.972 279.784C589.463 279.912 552.341 287.34 530.536 325.727H557.128V325.729ZM693.956 185.166C677.341 208.334 655.458 216.244 593.395 212.01C521.175 207.107 539.816 176.697 548.221 161.734L547.976 161.704C550.276 157.469 554.21 150.278 558.201 143.035C502.873 139.626 462.457 182.19 462.457 182.19C503.707 222.967 531.215 227.231 568.535 227.231H638.295C703.161 227.231 718.831 198.06 724.778 185.089C713.58 186.484 703.505 186.367 693.958 185.168L693.956 185.166Z" fill="#002244"/>
<path d="M662.466 178.268C661.147 177.737 659.782 177.178 658.414 176.617C652.053 183.318 641.083 187.198 630.455 185.833C616.465 184.045 608.405 173.884 612.375 163.166C612.945 161.594 613.781 160.12 614.773 158.706C607.607 155.896 600.401 153.193 593.38 150.746C579.008 173.982 570.581 189.381 620.454 193.586C651.52 196.229 659.946 190.913 666.472 179.77C665.134 179.26 663.837 178.817 662.461 178.266" fill="#69BE28"/>
<path d="M411.991 266.549C386.263 311.176 376.06 321.425 394.129 342.609H109.098C67.0611 342.609 39.7309 341.026 25.6723 319.362C11.9976 298.325 14.8093 278.261 51.6563 212.049H294.001C335.725 212.049 346.449 214.427 369.09 231.985C391.731 249.564 411.993 266.551 411.993 266.551" fill="#A5ACAF"/>
</g>
<defs>
<clipPath id="clip0_879_3822">
<rect width="1024" height="452.817" fill="white" transform="translate(0.511719 0.642578)"/>
</clipPath>
</defs>
</svg>
