<svg width="513" height="513" viewBox="0 0 513 513" fill="none" xmlns="http://www.w3.org/2000/svg">
<g clip-path="url(#clip0_876_1725)">
<path d="M501.324 179.764L498.764 172.084C481.319 121.84 448.658 78.2771 405.319 47.4472C361.98 16.6174 310.114 0.0513693 256.928 0.0507812C228.345 0.0645127 199.965 4.85219 172.96 14.2162C39.668 60.6378 -31.1591 206.729 15.0919 340.021C37.3623 404.159 84.1992 456.824 145.299 486.43C206.399 516.036 276.758 520.158 340.897 497.889C471.628 452.491 542.285 311.007 501.324 179.764Z" fill="#A0A1A2"/>
<path d="M256.928 503.18C205.618 503.123 155.596 487.109 113.794 457.355C71.9925 427.602 40.4804 385.582 23.6251 337.12C-21.0899 208.607 47.3479 67.4649 176.031 22.9206C206.668 12.2774 239.102 7.77744 271.479 9.67802C303.856 11.5786 335.541 19.8424 364.722 33.997C393.902 48.1516 420.007 67.9192 441.543 92.1697C463.079 116.42 479.623 144.678 490.231 175.327L491.425 178.74C533.751 306.4 465.484 445.494 337.995 489.697C311.891 498.589 284.505 503.144 256.928 503.18Z" fill="#0D2240"/>
<path d="M282.528 145.289L277.92 144.948C264.094 144.255 250.427 141.671 237.301 137.268C234.105 140.804 231.248 144.632 228.768 148.702C233.205 153.31 241.568 162.014 245.835 166.793C253.003 171.06 260.342 175.838 267.51 180.959C278.944 168.158 289.184 157.577 299.083 147.166L283.894 145.46L282.528 145.289Z" fill="#276092"/>
<path d="M175.349 187.786C156.234 214.58 142.751 249.567 141.557 291.381C161.866 269.023 178.592 248.202 190.026 237.279C196.859 230.638 204.691 225.11 213.237 220.895C205.557 203.316 195.658 189.151 182.005 182.324C179.645 183.965 177.419 185.791 175.349 187.786Z" fill="#276092"/>
<path d="M229.451 122.59C240.715 117.981 253.003 113.203 264.949 109.448C277.469 104.912 290.381 101.541 303.52 99.3787L302.667 99.0374C295.385 96.9569 287.973 95.3605 280.48 94.2587C260.66 91.3071 240.463 92.0594 220.917 96.4773C219.027 101.941 218.967 107.872 220.747 113.373C222.6 117.289 225.648 120.515 229.451 122.59Z" fill="#276092"/>
<path d="M205.898 168.67C201.461 170.718 196.512 173.278 191.733 176.009C205.045 184.713 214.944 199.561 222.453 216.798C228.226 214.729 234.256 213.466 240.373 213.044C247.541 203.998 254.027 195.977 260.171 188.809C253.003 183.859 245.835 179.081 238.667 174.985C231.498 170.889 212.384 169.353 205.898 168.67Z" fill="#276092"/>
<path d="M246.347 129.245C256.858 132.252 267.682 134.028 278.603 134.536L283.552 134.877H284.747C289.867 135.389 297.206 136.072 305.568 137.608C311.883 129.757 319.392 124.979 324.683 123.955C327.226 124.827 329.55 126.239 331.494 128.095C333.439 129.952 334.958 132.207 335.947 134.707C343.708 138.038 349.967 144.115 353.526 151.774C372.982 160.136 392.268 172.595 407.286 191.198C391.534 154.241 362.568 124.484 326.049 107.741C325.537 107.741 291.232 106.888 248.565 127.539C247.768 127.892 247.022 128.352 246.347 128.904" fill="#276092"/>
<path d="M420.086 242.571C415.99 223.114 402.166 187.445 358.134 164.746C363.083 186.933 357.451 212.362 357.451 212.362C357.451 212.362 369.569 219.36 372.641 232.672C373.831 233.311 374.832 234.253 375.542 235.403C378.955 239.499 383.222 249.056 376.395 267.829C376.395 267.829 372.299 259.125 363.595 268.512L361.377 271.755C377.931 294.454 390.561 318.347 397.046 341.558C404.577 329.167 410.485 315.86 414.625 301.963C419.795 282.618 421.642 262.534 420.086 242.571Z" fill="#276092"/>
<path d="M130.634 302.816C130.012 279.868 133.184 256.976 140.021 235.061C145.196 218.734 152.543 203.178 161.866 188.81C163.061 186.25 165.279 182.495 167.669 178.058C136.095 174.645 107.594 208.266 96.5003 223.456C89.4133 257.707 93.6045 293.332 108.447 325.003C116.298 317.835 123.636 310.326 130.634 302.816Z" fill="#276092"/>
<path d="M338.166 343.434C337.824 359.135 345.504 371.082 351.307 389.855C365.628 379.745 378.246 367.416 388.683 353.332C383.905 329.951 371.617 305.204 354.721 281.311C343.968 298.548 338.678 314.761 338.166 343.434Z" fill="#276092"/>
<path d="M199.242 135.562C204.533 133.172 211.019 130.271 218.187 127.37C215.017 124.611 212.608 121.085 211.189 117.13C209.121 111.511 208.591 105.443 209.653 99.5508C186.27 106.695 164.761 118.936 146.677 135.391H149.237C164.597 134.367 186.613 135.05 199.242 135.562Z" fill="#276092"/>
<path d="M173.13 168.5L179.615 157.236C170.911 151.434 165.45 147.338 150.431 146.143C145.423 145.97 140.408 146.083 135.412 146.484C121.528 161.817 110.696 179.658 103.498 199.05C120.394 181.301 145.482 162.868 173.13 168.5Z" fill="#276092"/>
<path d="M225.013 133.342L213.749 149.726C219.457 153.765 224.67 158.462 229.28 163.721C216.992 161.161 203.509 158.942 203.509 158.942L182.005 170.547L192.074 153.822C187.488 149.913 182.641 146.321 177.567 143.07C186.101 143.411 202.314 144.606 202.314 144.606L225.013 133.342Z" fill="#77BC1F"/>
<path d="M234.059 231.477C232.212 236.59 231.064 241.928 230.645 247.349C230.645 247.349 212.042 250.079 202.997 256.223C203.168 256.053 221.771 237.45 234.059 231.477Z" fill="#77BC1F"/>
<path d="M359.67 230.452C361.217 229.985 362.838 229.812 364.449 229.94C363.965 228.59 363.274 227.323 362.401 226.186C361.284 224.797 359.96 223.588 358.476 222.602C359.579 225.061 359.992 227.775 359.67 230.452Z" fill="white"/>
<path d="M342.944 239.157L349.43 235.061L347.723 231.477C346.21 229.255 344.23 227.391 341.92 226.016C343.209 230.27 343.558 234.754 342.944 239.157Z" fill="white"/>
<path d="M142.922 364.939C127.05 371.424 89.6738 362.549 89.6738 362.549C127.562 360.331 164.597 333.365 164.597 333.365H164.426C157.417 343.918 148.435 353.016 137.973 360.16C139.526 361.797 141.179 363.335 142.922 364.768" fill="#A0A1A2"/>
<path d="M331.851 138.974C331.851 138.974 322.464 131.635 312.054 142.899C323.318 122.248 329.803 134.195 331.851 138.974Z" fill="#77BC1F"/>
<path d="M368.715 238.815L367.521 237.962C361.718 234.719 350.966 243.935 344.139 247.861C337.312 251.786 327.072 259.807 322.294 248.714C317.515 237.621 328.608 220.042 332.704 209.119C341.238 184.714 341.579 170.548 339.872 162.868C347.894 171.913 350.454 189.151 350.454 189.151C350.454 189.151 353.526 156.724 337.654 148.361C337.852 151.153 337.737 153.958 337.312 156.724C329.974 157.919 313.59 156.212 308.299 153.311C288.331 174.815 266.485 204.682 250.101 231.989C242.933 246.495 235.936 263.562 234.229 277.386C232.676 272.628 231.702 267.7 231.328 262.709C222.282 266.293 191.391 281.312 184.735 327.904C184.735 327.904 204.362 307.765 226.037 299.744C226.037 299.744 212.384 335.755 238.666 399.414C238.666 399.414 249.248 360.331 271.435 350.432C284.917 417.163 324.342 418.358 335.776 463.755C335.776 463.755 347.894 440.203 333.387 400.096C336.977 401.322 340.164 403.506 342.603 406.411C342.603 406.411 341.92 394.635 330.998 369.547C323.83 356.064 321.611 337.803 321.611 337.803C315.296 343.605 313.419 363.232 313.419 363.232C293.792 310.154 349.43 257.418 359.499 249.738C364.449 245.983 367.52 245.983 369.398 246.666C371.105 243.082 371.105 240.522 368.715 238.815Z" fill="#A0A1A2"/>
<path d="M403.702 144.777C386.524 122.027 364.29 103.585 338.758 90.9072C313.225 78.2297 285.093 71.6647 256.587 71.731C165.109 71.731 86.7724 140.169 74.1429 230.964C68.8803 268.145 75.1969 306.044 92.2337 339.509L98.5484 334.047C83.0063 302.492 77.2985 266.996 82.1643 232.159C94.1111 145.289 169.205 79.923 256.587 79.923C264.75 79.9821 272.901 80.5521 280.992 81.6297C316.47 86.4771 349.628 102.023 376.046 126.195C402.464 150.367 420.886 182.017 428.858 216.926C436.83 251.835 433.972 288.345 420.666 321.588C407.359 354.832 384.236 383.23 354.379 402.997C355.014 405.81 355.47 408.66 355.745 411.53C378.239 397.168 397.361 378.109 411.796 355.661C426.231 333.213 435.638 307.908 439.372 281.482C442.862 257.468 441.504 232.998 435.377 209.518C429.251 186.038 418.48 164.024 403.702 144.777Z" fill="#A0A1A2"/>
<path d="M140.362 59.1016C137.189 59.1016 134.087 60.0425 131.449 61.8053C128.811 63.5681 126.755 66.0736 125.541 69.005C124.326 71.9365 124.009 75.1621 124.628 78.2741C125.247 81.3861 126.775 84.2447 129.018 86.4883C131.262 88.7319 134.12 90.2598 137.232 90.8788C140.344 91.4979 143.57 91.1802 146.501 89.9659C149.433 88.7517 151.938 86.6954 153.701 84.0572C155.464 81.419 156.405 78.3173 156.405 75.1443C156.405 70.8895 154.715 66.809 151.706 63.8004C148.697 60.7918 144.617 59.1016 140.362 59.1016ZM140.362 84.0191C138.641 84.0191 136.958 83.5086 135.526 82.5522C134.095 81.5957 132.979 80.2364 132.321 78.6459C131.662 77.0554 131.489 75.3053 131.825 73.6169C132.161 71.9285 132.99 70.3776 134.207 69.1603C135.425 67.943 136.976 67.114 138.664 66.7782C140.352 66.4423 142.103 66.6147 143.693 67.2735C145.283 67.9323 146.643 69.0479 147.599 70.4793C148.556 71.9107 149.066 73.5935 149.066 75.315C149.066 77.6235 148.149 79.8374 146.517 81.4697C144.884 83.102 142.671 84.0191 140.362 84.0191Z" fill="white"/>
<path d="M104.351 99.2091L100.596 101.257C99.231 102.11 98.3777 102.11 97.5243 101.428C96.671 100.745 96.671 99.3798 98.0364 98.0144C99.2825 96.6591 100.983 95.8088 102.815 95.6251H103.498L102.986 88.457H102.303C100.388 88.5768 98.5191 89.0939 96.8149 89.9754C95.1107 90.8568 93.6086 92.0834 92.4043 93.5771C90.6076 95.4588 89.4183 97.8374 88.991 100.404C88.8373 101.787 89.0388 103.187 89.5763 104.471C90.1138 105.755 90.9696 106.881 92.063 107.742C95.4763 110.985 99.5724 111.156 104.351 108.425L107.764 106.548C109.471 105.524 110.666 105.182 111.519 106.036C112.372 106.889 112.372 108.425 110.666 110.302C109.873 111.176 108.894 111.86 107.801 112.303C106.707 112.747 105.528 112.938 104.351 112.863H103.668L102.815 120.713H103.498C106.058 120.884 111.178 120.201 116.127 114.911H116.298C118.481 112.692 119.862 109.81 120.223 106.718C120.263 105.314 119.976 103.92 119.383 102.646C118.791 101.372 117.91 100.254 116.81 99.3798C113.567 96.4784 109.642 96.4784 104.351 99.3798" fill="white"/>
<path d="M57.0639 257.639L25.6704 258.406L25.8414 265.402L57.2349 264.634L57.0639 257.639Z" fill="white"/>
<path d="M85.5777 152.97L97.5245 135.05L91.5511 131.295L83.7004 143.071L79.263 140.17L86.2604 129.93L80.287 126.175L73.4603 136.415L69.1936 133.514L77.0443 121.567L71.4123 117.812L59.6362 135.391L85.5777 152.97Z" fill="white"/>
<path d="M188.319 68.3187L179.274 45.6199L187.295 42.3772L184.565 36.0625L162.037 45.2786L164.597 51.5933L172.618 48.1799L181.834 71.0494L188.319 68.3187Z" fill="white"/>
<path d="M59.6361 170.89L37.4492 180.959L37.1079 181.983L66.4628 193.93L69.0228 187.615L53.8333 181.301L76.0202 171.231L76.5322 170.037L47.1773 158.09L44.4466 164.575L59.6361 170.89Z" fill="white"/>
<path d="M45.2999 217.823L26.0144 232.5L25.8438 233.866L57.0759 238.644L58.2706 231.818L41.8865 229.258L61.172 214.239L61.3426 213.215L30.1104 208.266L29.0864 215.263L45.2999 217.823Z" fill="white"/>
<path d="M319 33.6892L310.207 63.8359L316.925 65.7952L325.717 35.6485L319 33.6892Z" fill="white"/>
<path d="M483.234 303.839L484.94 297.012L454.391 289.844L449.783 310.153L456.609 311.689L459.852 298.377L483.234 303.839Z" fill="white"/>
<path d="M472.311 241.205C469.138 241.205 466.036 242.146 463.398 243.909C460.76 245.672 458.703 248.177 457.489 251.109C456.275 254.04 455.957 257.266 456.576 260.378C457.195 263.49 458.723 266.348 460.967 268.592C463.211 270.835 466.069 272.363 469.181 272.982C472.293 273.601 475.519 273.284 478.45 272.069C481.382 270.855 483.887 268.799 485.65 266.161C487.413 263.523 488.354 260.421 488.354 257.248C488.354 252.993 486.663 248.912 483.655 245.904C480.646 242.895 476.566 241.205 472.311 241.205ZM472.311 266.123C470.589 266.123 468.906 265.612 467.475 264.656C466.044 263.699 464.928 262.34 464.269 260.749C463.611 259.159 463.438 257.409 463.774 255.72C464.11 254.032 464.939 252.481 466.156 251.264C467.373 250.047 468.924 249.218 470.613 248.882C472.301 248.546 474.051 248.718 475.642 249.377C477.232 250.036 478.592 251.151 479.548 252.583C480.504 254.014 481.015 255.697 481.015 257.419C481.015 259.727 480.098 261.941 478.466 263.573C476.833 265.206 474.619 266.123 472.311 266.123Z" fill="white"/>
<path d="M408.822 126.687L422.134 143.412L427.596 138.975L418.721 127.711L422.817 124.639L430.497 134.367L435.958 129.759L428.278 120.372L432.374 117.129L441.078 128.223L446.54 123.956L433.398 107.23L408.822 126.687Z" fill="white"/>
<path d="M430.497 355.551L419.233 373.471L425.036 377.055L432.716 365.279L437.153 367.839L430.497 378.42L436.47 382.004L443.126 371.764L447.393 374.495L439.713 386.442L445.686 390.196L457.121 372.276L430.497 355.551Z" fill="white"/>
<path d="M287.819 59.1017L291.062 34.8669L299.595 36.0616L300.619 29.2349L276.384 25.9922L275.36 32.8189L284.064 33.8429L280.822 58.0777L287.819 59.1017Z" fill="white"/>
<path d="M457.292 337.119L474.188 336.266L477.089 329.098L442.444 330.463L442.103 331.487L466.167 356.575L469.068 349.407L457.292 337.119Z" fill="white"/>
<path d="M357.28 66.2705L351.819 45.2784V45.1077L350.795 44.5957L336.118 72.5852L342.432 75.9986L349.088 62.8571L352.331 74.9746L353.014 75.3159L364.79 71.2199L357.963 84.02L364.107 87.2626L378.785 59.2731L378.102 58.7611L357.28 66.2705Z" fill="white"/>
<path d="M46.4949 302.304L33.6948 319.883L33.5242 320.053L33.6948 321.077L64.7564 314.421L63.2204 307.595L48.8843 310.667L56.0523 300.597L55.8817 299.744L45.3003 293.429L59.6363 290.528L58.271 283.701L27.2095 290.187L27.5508 291.04L46.4949 302.304Z" fill="white"/>
<path d="M469.068 214.921L482.21 203.999L481.868 202.804L464.972 198.879L478.455 190.004L476.748 182.836L448.759 201.439L449.1 202.292L467.874 206.729L453.025 219.188L453.367 220.383L486.818 224.138L485.111 216.799L469.068 214.921Z" fill="white"/>
<path d="M448.929 168.842C450.351 170.239 452.202 171.116 454.183 171.333C456.165 171.55 458.162 171.093 459.852 170.036C465.655 167.135 467.532 161.332 464.289 154.847L458.999 144.266L430.838 158.09L434.081 164.404L447.052 158.09L438.177 172.938L441.761 180.447C442.102 180.447 448.417 169.524 448.929 168.842ZM450.294 161.674L448.417 157.748L456.268 153.994L458.145 157.919C459.511 160.82 458.999 162.868 456.439 164.063C453.879 165.258 451.66 164.575 450.294 161.674Z" fill="white"/>
<path d="M405.921 99.5503C407.767 99.0923 409.396 98.0062 410.529 96.4783C411.455 95.4145 412.135 94.1589 412.518 92.8015C412.902 91.4442 412.98 90.0188 412.748 88.6276C412.262 86.289 410.998 84.1837 409.164 82.6542L405.238 79.2408L399.948 74.6328L395.34 79.9235L392.097 83.5075L391.756 83.8489L387.489 88.7982L387.148 89.1396L383.564 93.0649L378.956 98.3556L384.246 102.964L388.854 106.889C390.722 108.599 393.149 109.57 395.681 109.62C397.137 109.674 398.585 109.394 399.916 108.803C401.247 108.211 402.426 107.323 403.361 106.206C404.272 105.369 404.977 104.333 405.421 103.178C405.866 102.024 406.037 100.782 405.921 99.5503ZM400.63 84.7022L404.556 88.1156C406.092 89.4809 406.433 90.8462 405.409 92.2116C405.114 92.4859 404.766 92.696 404.386 92.8283C404.005 92.9606 403.602 93.0124 403.201 92.9803C402.799 92.9482 402.409 92.8329 402.055 92.6418C401.7 92.4507 401.39 92.188 401.142 91.8703L397.558 88.6276L400.63 84.7022ZM393.804 101.769L389.196 97.8436L392.78 93.5769L397.046 97.3316C398.753 98.8676 399.265 100.745 398.241 101.94C397.943 102.228 397.589 102.454 397.202 102.602C396.814 102.75 396.401 102.819 395.986 102.803C395.571 102.787 395.164 102.687 394.789 102.509C394.414 102.332 394.079 102.08 393.804 101.769Z" fill="white"/>
<path d="M401.142 393.782C402.542 392.471 404.088 391.325 405.75 390.369C408.647 389.292 411.706 388.715 414.796 388.662V395.83C412.817 395.839 410.855 396.186 408.993 396.854C408.057 397.251 407.211 397.834 406.507 398.567C405.803 399.301 405.255 400.169 404.897 401.121C404.759 401.542 404.751 401.994 404.872 402.42C404.994 402.846 405.24 403.226 405.58 403.51C405.808 403.77 406.118 403.946 406.459 404.008C406.8 404.07 407.151 404.015 407.457 403.852L410.358 402.657C412.848 401.242 415.561 400.261 418.38 399.756C419.652 399.577 420.948 399.701 422.163 400.116C423.379 400.531 424.48 401.226 425.377 402.145C426.342 403.065 427.1 404.18 427.6 405.416C428.1 406.652 428.332 407.981 428.278 409.313C428.108 411.532 427.084 415.457 421.964 418.7C419.503 419.972 416.851 420.837 414.113 421.26L413.089 414.262L418.038 412.897C421.622 411.19 421.793 407.094 418.892 407.094C416.922 407.573 415.027 408.32 413.26 409.313C412.045 409.959 410.791 410.529 409.505 411.02C407.973 411.587 406.312 411.712 404.713 411.38C403.113 411.048 401.639 410.273 400.46 409.142C399.2 407.972 398.292 406.473 397.84 404.814C397.387 403.155 397.408 401.403 397.9 399.756C398.212 397.434 399.366 395.309 401.142 393.782Z" fill="white"/>
<path d="M218.528 44.7654L228.085 58.7602L235.595 57.3948L216.309 28.7227L215.285 29.064L206.581 62.5149L214.261 61.1495L218.528 44.7654Z" fill="white"/>
</g>
<defs>
<clipPath id="clip0_876_1725">
<rect width="512.003" height="512" fill="white" transform="translate(0.935547 0.0507812)"/>
</clipPath>
</defs>
</svg>
