<svg width="1024" height="245" viewBox="0 0 1024 245" fill="none" xmlns="http://www.w3.org/2000/svg">
<g clip-path="url(#clip0_795_4769)">
<path d="M0 189.844V3.04623H51.2199V194.273H141.702V242.087H29.7026L9.55982 217.165C2.72592 208.285 0 200.091 0 189.844ZM169.374 203.153L224.694 3.0615H283.427C294.361 3.0615 301.172 8.19265 304.257 19.1116L355.133 203.153C357.516 211.346 357.859 216.806 357.859 227.389V242.072H312.45L294.346 169.343L220.93 206.895L212.057 242.072H166.648V227.389C166.648 216.806 166.984 211.346 169.374 203.153ZM291.956 160.134L264.979 50.8682H259.512L232.536 160.134H291.956ZM381.072 189.844V3.04623H432.292V194.273H522.789V242.087H410.797L390.639 217.165C383.813 208.292 381.095 200.099 381.095 189.844H381.072ZM551.797 3.07677H603.017V242.095H551.797V3.07677ZM637.843 166.205V78.9445C637.843 28.0682 665.507 0.404297 716.383 0.404297H738.801C788.998 0.404297 817.334 26.0219 817.334 71.431H766.122V61.8712C766.122 52.9986 761.334 48.211 752.454 48.211H702.723C693.85 48.211 689.063 52.9986 689.063 61.8788V183.285C689.063 192.166 693.85 196.953 702.723 196.953H752.461C761.334 196.953 766.122 192.166 766.122 183.285V153.247H730.608V105.432H787.631L807.782 130.355C814.608 138.884 817.334 146.741 817.334 157.676V166.205C817.334 217.081 789.678 244.745 738.801 244.745H716.375C665.499 244.745 637.835 217.081 637.835 166.205H637.843ZM835.514 203.153L890.834 3.0615H949.568C960.502 3.0615 967.313 8.19265 970.398 19.1116L1021.27 203.153C1023.66 211.346 1024 216.806 1024 227.389V242.072H978.591L960.487 169.343L887.078 206.895L878.197 242.072H832.788V227.389C832.788 216.806 833.132 211.346 835.514 203.153ZM958.104 160.134L931.12 50.8682H925.653L898.676 160.134H958.104Z" fill="#FF4B44"/>
</g>
<defs>
<clipPath id="clip0_795_4769">
<rect width="1024" height="244.34" fill="white" transform="translate(0 0.404297)"/>
</clipPath>
</defs>
</svg>
