<svg width="1024" height="254" viewBox="0 0 1024 254" fill="none" xmlns="http://www.w3.org/2000/svg">
<g clip-path="url(#clip0_741_47)">
<path d="M189.44 150.098L138.24 67.3547H101.439V186.339H138.24V103.596L189.44 186.339H225.924V67.3653H189.123L189.44 150.098ZM480.319 107.449V95.5833H461.117V79.5372H425.277V95.5833H405.757V107.449H425.287V186.339H461.117V107.449H480.319ZM246.404 186.023H281.917V107.122H246.404V186.023ZM246.404 91.7301H282.244V67.3547H246.393L246.404 91.7301ZM871.044 101.675C842.245 101.675 818.883 121.553 818.883 145.928C818.883 170.304 842.245 190.192 871.033 190.192C899.843 190.192 923.205 170.304 923.205 145.928C923.205 121.553 899.843 101.675 871.044 101.675ZM885.443 162.608C885.443 175.118 878.075 180.238 871.044 180.238C864.003 180.238 856.317 175.118 856.317 162.608V129.249C856.317 116.75 863.675 111.619 871.044 111.619C878.075 111.619 885.443 116.75 885.443 129.249V162.608ZM772.17 110.975C766.395 107.766 760.315 104.557 752.007 103.913C726.396 101.675 706.56 124.445 706.56 145.295C706.56 172.869 727.673 182.813 730.883 184.418C743.044 189.865 758.404 190.192 771.843 181.525V186.023H807.039V67.3653H771.843C772.159 67.3653 772.159 92.7014 772.159 110.964L772.17 110.975ZM772.487 146.256V160.359C772.487 172.552 764.157 175.751 758.404 175.751C752.64 175.751 744.321 172.552 744.321 160.359V132.141C744.321 119.948 752.64 116.75 758.404 116.75C763.841 116.75 772.476 119.948 772.476 132.141L772.487 146.256ZM365.431 103.596C353.586 103.913 343.99 109.043 336.949 115.462V107.122H301.425V186.023H336.949V134.063C336.949 127.327 344.307 119.632 353.913 119.632C363.509 119.632 370.234 127.338 370.234 134.063V186.023H405.747V143.046C405.747 111.936 378.88 102.952 365.431 103.596ZM655.033 103.596C644.398 103.893 634.251 108.121 626.551 115.462V107.122H591.027V186.023H626.551V134.063C626.551 127.327 633.909 119.632 643.505 119.632C653.111 119.632 659.825 127.338 659.825 134.063V186.023H695.349V143.046C695.349 111.936 668.482 102.952 655.033 103.596ZM580.471 146.889C580.471 122.513 556.792 101.991 527.993 101.991C498.867 101.991 475.505 121.88 475.505 146.256C475.505 170.62 498.867 190.509 527.993 190.509C551.989 190.509 572.469 176.722 578.549 158.121H543.037V162.925C543.037 177.356 533.43 180.565 528.321 180.565C522.884 180.565 513.277 177.356 513.277 162.935V146.572L580.471 146.889ZM515.832 118.988C517.136 116.844 518.968 115.07 521.152 113.836C523.337 112.601 525.801 111.947 528.31 111.936C533.113 111.936 537.917 114.184 540.788 118.988C543.026 122.841 543.026 127.644 543.026 134.379H513.267C513.267 127.655 513.583 123.157 515.832 118.988ZM937.266 82.113C937.266 78.2598 934.395 76.3385 928.631 76.3385H920.629V96.544H925.432V88.2042H927.987L931.829 96.544H937.266L932.79 87.5602C935.672 86.5996 937.266 84.6783 937.266 82.113ZM927.987 84.995H925.432V79.2205H927.67C930.552 79.2205 932.146 80.1811 932.146 82.113C932.146 84.351 930.879 84.995 927.987 84.995ZM928.303 68.3154C918.38 68.3154 910.072 76.6552 910.072 86.5996C910.072 96.544 918.391 104.884 928.314 104.884C938.237 104.884 946.545 96.544 946.545 86.5996C946.551 81.7577 944.634 77.1118 941.215 73.6832C937.796 70.2545 933.145 68.3238 928.303 68.3154ZM928.303 101.358C924.409 101.306 920.69 99.7328 917.94 96.9751C915.191 94.2174 913.628 90.4937 913.587 86.5996C913.587 78.5765 920.312 71.8413 928.314 71.8413C936.305 71.8413 943.03 78.5765 943.03 86.5996C943.03 94.6227 936.305 101.347 928.314 101.347L928.303 101.358ZM888.325 0.646927H133.437C53.438 0.330226 0 58.0543 0 127.011C0 195.946 53.438 253.047 133.753 253.047H888.642C968.957 253.047 1022.4 195.956 1022.4 127C1022.08 58.0754 968.324 0.646927 888.325 0.646927ZM888.009 222.264H133.764C70.0754 222.58 31.364 179.604 31.364 127.011C31.364 74.4066 70.4026 32.0742 133.764 31.7575H887.998C951.359 31.7575 990.398 74.4066 990.398 127.011C990.398 179.604 951.687 222.264 888.009 222.264Z" fill="#E60012"/>
</g>
<defs>
<clipPath id="clip0_741_47">
<rect width="1024" height="253.361" fill="white" transform="translate(0 0.64563)"/>
</clipPath>
</defs>
</svg>
