<svg width="865" height="513" viewBox="0 0 865 513" fill="none" xmlns="http://www.w3.org/2000/svg">
<g clip-path="url(#clip0_2_15135)">
<path d="M542.109 481.557C533.483 481.557 526.481 488.548 526.481 497.179C526.481 505.802 533.483 512.804 542.109 512.804C550.735 512.804 557.726 505.802 557.726 497.18C557.726 488.548 550.735 481.557 542.109 481.557ZM542.109 509.451C540.497 509.452 538.901 509.136 537.412 508.52C535.922 507.904 534.569 507.001 533.429 505.861C532.289 504.721 531.385 503.367 530.77 501.878C530.153 500.388 529.837 498.792 529.838 497.18C529.838 490.4 535.32 484.917 542.109 484.917C548.889 484.917 554.378 490.4 554.378 497.18C554.378 503.963 548.889 509.451 542.109 509.451ZM548.529 493.558C548.529 492.862 548.392 492.173 548.125 491.53C547.858 490.888 547.467 490.304 546.975 489.813C546.482 489.321 545.898 488.932 545.255 488.666C544.612 488.4 543.923 488.264 543.227 488.265H535.699V506.099H539.046V498.856H541.447L544.828 506.099H548.529L544.999 498.547C546.03 498.18 546.922 497.504 547.555 496.612C548.186 495.718 548.526 494.652 548.529 493.558ZM543.227 495.508H539.046V491.605H543.227C543.745 491.606 544.242 491.812 544.608 492.178C544.975 492.544 545.181 493.041 545.182 493.559C545.181 494.076 544.974 494.572 544.608 494.938C544.241 495.303 543.745 495.508 543.227 495.508Z" fill="#041E42"/>
<path d="M840.093 197.206C839.098 194.77 837.234 192.79 834.862 191.649L789.461 169.72L775.459 158.956L755.066 133.661L748.352 103.505C748.029 102.053 747.405 100.685 746.522 99.4883C745.637 98.2923 744.512 97.2946 743.219 96.5596L711.315 78.429L691.246 58.2696C690.296 57.3164 689.175 56.5516 687.94 56.0158L563.011 1.68772C561.02 0.82246 558.814 0.584489 556.685 1.00554L386.439 35.0097C340.088 31.3915 299.467 37.2072 297.749 37.4499C287.303 39.1861 287.248 50.4688 290.88 54.0942L36.0595 105.005C33.5187 105.513 31.2506 106.931 29.6803 108.992L2.71361 144.445C-2.07732 150.746 1.53254 160.368 9.82501 161.449C11.6914 161.692 195.999 186.926 195.999 298.727C195.999 339.893 167.743 380.371 167.454 380.778C163.369 386.572 165.85 395.882 174.255 397.401L278.362 416.197C286.249 422.502 312.741 441.113 351.287 441.113C396.933 441.113 409.856 423.848 412.819 409.695C435.448 400.064 463.896 377.248 463.896 358.83C463.896 347.366 453.582 339.663 443.941 339.663C442.846 339.663 441.858 340.061 440.809 340.236C440.809 340.236 435.947 331.247 424.192 331.247C419.168 331.247 413.703 333.766 409.445 335.577C419.88 323.592 437.126 309.297 464.71 300.169C507.258 286.056 562.72 274.1 590.502 268.506C548.271 391.228 403.653 455.69 402.129 456.347C393.522 460.089 395.078 470.991 398.623 473.256L382.804 480.332C371.562 485.289 376.351 501.667 388.001 500.677C540.635 487.699 652.883 434.266 731.051 337.678H762.497C764.319 337.678 766.098 337.206 767.691 336.344C798.444 319.156 819.096 319.862 819.297 319.875C823.531 320.054 827.553 317.732 829.41 313.949C844.652 282.966 861.066 266.547 861.222 266.4C863.49 264.121 865.679 259.847 863.617 254.776L840.093 197.207V197.206Z" fill="#FFB81C"/>
<path d="M783.839 178.837L767.966 166.633L745.209 138.417L737.96 105.825L704.787 86.9738L683.713 65.7916L558.77 11.4531L387.185 45.7208C340.833 41.8911 299.298 47.9954 299.298 47.9954L313.722 60.4029L38.1485 115.446L11.186 150.901C11.186 150.901 206.646 176.116 206.646 298.736C206.646 343.945 176.141 386.93 176.141 386.93L282.968 406.205C282.968 406.205 309.541 430.459 351.287 430.459C399.855 430.459 402.98 410.108 402.98 402.179C424.333 395.28 453.255 371.815 453.255 358.837C453.255 353.635 447.841 350.323 443.944 350.323C440.715 350.323 436.347 352.878 432.791 354.411C434.823 349.879 431.91 341.904 424.189 341.904C417.721 341.904 406.775 351.075 385.552 353.046C385.552 353.046 401.793 309.786 461.358 290.056C521.546 270.121 606.096 254.609 606.096 254.609C570.283 395.03 406.377 466.124 406.377 466.124L466.856 452.508C438.822 467.309 387.094 490.083 387.094 490.083C539.554 477.105 650.506 424.628 728.373 324.164L733.67 327.029H762.498C796.911 307.844 819.871 309.247 819.871 309.247C836.222 275.984 853.755 258.812 853.755 258.812L830.238 201.245L783.839 178.837Z" fill="#041E42"/>
<path d="M155.281 177.369C161.093 180.88 166.753 184.635 172.246 188.624C178.067 186.681 183.911 184.81 189.777 183.011C200.077 143.621 221.18 117.49 221.18 117.49C177.443 133.839 158.9 169.541 155.281 177.369ZM336.699 87.4708C336.699 87.4708 354.185 117.229 385.343 117.229L417.709 114.995L444.296 87.2125L480.605 81.6269C467.149 73.4719 451.97 67.5999 436.492 63.4266L406.136 105.82L425.428 60.7301C419.855 59.5197 414.246 58.4795 408.61 57.6108L382.452 94.0593L398.637 56.2381C392.051 55.4381 385.443 54.83 378.821 54.4144L358.813 82.3059L370.919 54.002C342.671 52.8146 322.045 55.1018 322.045 55.1018L328.996 61.0998L336.7 87.4708H336.699ZM377.6 366.809C381.42 384.074 392.962 388.952 394.069 395.41C394.069 395.41 424.065 389.241 443.979 359.597C405.189 379.117 377.6 366.809 377.6 366.809ZM728.63 295.243C728.63 278.329 700.639 262.109 687.452 262.109C633.124 262.109 633.87 377.513 442.339 475.294C605.46 451.725 728.63 340.77 728.63 295.243Z" fill="white"/>
<path d="M349.43 126.879L348.973 131.713C336.848 134.165 317.829 141.966 299.682 156.202L389.989 143.384L397.732 125.261C349.71 132.308 328.066 91.4487 328.066 91.4487L324.39 78.9746L45.6792 141.34C75.7496 143.419 108.902 152.984 139.101 168.382C146.302 144.325 164.163 125.668 164.163 125.668L317.258 91.4071C317.258 91.4071 323.318 111.092 349.43 126.879Z" fill="white"/>
<path d="M761.942 220.393L785.764 211.999C785.764 211.999 813.989 229.864 826.608 206.96L783.486 186.665C771.42 193.648 759.586 197.305 748.635 198.88V198.884C716.298 203.524 691.681 189.943 691.681 189.943C664.867 189.943 646.558 194.255 630.844 202.096H630.84C618.031 208.491 606.948 217.231 594.401 227.922L632.061 186.491L637.905 152.075L530.37 139.844C537.249 164.276 554.403 177.626 554.403 177.626L534.165 199.883L510.311 226.127C501.411 223.433 492.016 221.923 482.279 221.7C481.709 208.427 486.919 193.326 498.599 178.834C483.138 190.492 473.799 205.443 471.848 222.012C465.047 222.536 458.412 223.726 452.015 225.492C448.668 214.458 449.037 200.866 454.132 186.091C445.127 199.82 441.418 214.366 443.277 228.312C436.897 230.717 430.767 233.738 424.973 237.331C419.344 228.764 415.898 217.337 415.642 203.717C412.39 217.671 413.293 230.688 418.221 241.877C397.829 257.073 388.639 275.472 388.639 275.472C323.851 263.796 284.636 318.003 283.258 356.045C279.148 329.647 287.593 282.963 339.768 260.745L357.085 220.269C358.131 217.782 359.545 215.466 361.28 213.4L361.29 213.397C365.364 208.527 371.305 205.125 379.899 202.894C421.666 192.051 464.34 168.499 486.887 138.716L426.094 140.513C398.727 161.166 387.095 189.219 387.095 189.219L368.561 193.554L389.995 143.387L299.686 156.206C273.89 176.432 249.842 209.656 249.842 259.027C249.842 283.685 257.993 303.869 258.056 304.023L258.057 304.03C258.057 304.03 247.832 290.128 241.794 266.446L241.793 266.448C238.908 255.153 237.451 243.541 237.456 231.883C237.456 207.587 244.456 184.485 252.353 166.154V166.151C262.573 142.425 274.294 126.682 274.294 126.682C274.294 126.682 240.874 140.222 217.907 174.868L217.902 174.869C210.762 185.641 204.636 198.455 200.837 213.53C217.393 231.053 229.71 251.134 235.259 273.086C237.382 281.464 238.519 290.128 238.519 299.03C238.519 341.446 220.788 368.133 220.788 368.133L280.131 380.172C280.131 380.172 302.569 412.829 350.754 412.829C365.993 412.829 386.019 411.143 386.019 401.42C386.019 394.077 367.986 384.113 367.986 362.841C367.986 328.317 411.357 292.477 457.897 277.142C512.28 259.228 595.359 238.363 637.152 238.363C755.692 238.363 751.783 316.619 751.783 316.619L757.535 316.352C783.918 301.521 807.277 298.698 814.089 298.18C814.753 298.12 815.419 298.08 816.085 298.06C816.085 298.06 827.784 276.227 841.352 260.394C841.352 260.394 823.744 223.466 761.942 220.393Z" fill="white"/>
<path d="M426.089 140.511L486.882 138.712C497.086 125.236 503.164 110.489 503.164 95.0607C503.164 68.4502 489.535 52.8661 489.535 52.8661L555.488 38.2413L576 48.3054C576 48.3054 527.535 66.9244 527.535 119.463C527.533 126.354 528.487 133.212 530.369 139.841L637.905 152.071C637.905 152.071 649.74 180.815 682.346 180.815C698.123 180.815 710.185 172.071 710.185 172.071C745.532 198.787 777.911 184.04 777.911 184.04L765.792 173.984L754.218 180.139L761.414 169.344L756.99 164.318L741.36 172.381L751.146 157.539L747.749 153.618L734.553 159.427L742.115 146.55L736.797 138.381C731.837 160.143 712.431 162.748 695.753 161.437L694.886 151.813C691.145 154.155 686.818 155.395 682.404 155.39C669.386 155.39 658.842 144.839 658.842 131.838C658.842 124.385 622.124 91.5498 622.124 91.5498L669.639 106.22C709.454 118.525 707.717 138.276 708.168 148.988C714.875 151.944 729.975 154.109 736.797 138.381L731.772 112.233L700.144 96.8958L678.421 76.5708L556.757 27.3867L437.004 53.9514C465.216 60.7462 488.569 75.4741 488.569 75.4741C488.569 75.4741 497.538 96.1053 485.856 119.073C460.762 120.127 441.076 129.207 426.089 140.511ZM724.208 123.071L718.293 145.952C718.293 128.635 708.045 118.7 677.737 100.861L724.208 123.071Z" fill="white"/>
<path d="M785.764 211.994C785.764 211.994 769.465 204.578 748.637 198.881C716.298 203.521 691.681 189.939 691.681 189.939C664.867 189.939 646.559 194.251 630.844 202.092C803.828 217.302 825.513 255.654 814.082 298.176C814.748 298.117 815.417 298.077 816.086 298.057C816.086 298.057 827.784 276.224 841.352 260.391C841.352 260.391 823.744 223.463 761.942 220.391L785.765 211.994H785.764ZM252.354 166.15C240.82 168.854 229.335 171.76 217.903 174.865C210.762 185.639 204.636 198.452 200.837 213.526C217.393 231.049 229.71 251.132 235.258 273.083C237.353 270.792 239.533 268.58 241.794 266.453C238.908 255.156 237.451 243.541 237.456 231.88C237.456 207.583 244.456 184.481 252.354 166.15ZM637.906 152.071C601.28 145.43 565.245 141.583 530.37 139.84C537.249 164.272 554.403 177.622 554.403 177.622L534.165 199.879C570.706 199.19 608.861 200.733 608.861 200.733L594.401 227.919L632.061 186.487L637.906 152.071ZM387.095 189.216L368.561 193.551L389.995 143.384C357.363 146.56 327.022 151.103 299.686 156.203C273.89 176.429 249.843 209.653 249.843 259.023C249.843 283.777 258.058 304.027 258.058 304.027C251.357 275.357 267.029 247.292 267.029 247.292C267.029 247.292 303.1 224.249 361.29 213.394C365.364 208.524 371.305 205.121 379.9 202.89C421.666 192.047 464.34 168.495 486.886 138.712C466.046 138.671 445.73 139.31 426.095 140.509C398.727 161.162 387.095 189.216 387.095 189.216ZM186.276 199.679C187.172 194.068 188.341 188.503 189.78 183.006C183.915 184.806 178.072 186.675 172.251 188.612C177.074 192.11 181.753 195.802 186.276 199.679ZM685.651 148.12C690.604 148.12 694.264 145.791 694.264 145.791C693.956 144.107 693.574 142.437 693.119 140.787C691.911 141.547 690.187 142.307 688.151 142.307C682.794 142.307 679.485 138.191 679.485 133.651C679.485 129.793 682.132 126.305 685.914 125.319C681.175 118.619 676.436 115.791 676.436 115.791C676.436 115.791 668.167 120.415 668.167 130.612C668.167 140.814 676.732 148.12 685.651 148.12Z" fill="#FFB81C"/>
</g>
<defs>
<clipPath id="clip0_2_15135">
<rect width="863.872" height="512" fill="white" transform="translate(0.569336 0.800781)"/>
</clipPath>
</defs>
</svg>
