<svg width="941" height="513" viewBox="0 0 941 513" fill="none" xmlns="http://www.w3.org/2000/svg">
<g clip-path="url(#clip0_879_3773)">
<path d="M642.279 0.0507812L672.307 92.1132L649.966 160.526L597.812 0.0507812H364.025L322.091 128.683L280.323 0.0507812H0.844238L88.6411 142.621L208.913 512.051H435.226L480.708 372.395L526.063 512.051H773.658L940.215 0.0507812H642.279ZM119.892 128.136L62.0359 34.2153H255.493L304.1 183.922L221.076 438.949L119.892 128.136ZM410.267 478.646H244.133L379.819 61.8328L462.759 317.158L410.267 478.646ZM406.763 34.2153H572.98L632.103 215.806L548.91 471.425L406.763 34.2153ZM748.532 478.436H582.439L708.117 92.3235L689.199 34.2153H893.044L748.532 478.436Z" fill="#FFB612"/>
<path d="M631.975 215.848L548.781 471.469L406.761 34.2168H572.98L631.975 215.848ZM689.197 34.2168L708.031 92.3251L582.356 478.437H748.447L893.128 34.2168H689.197ZM255.491 34.2168H62.0352L119.891 128.135L221.243 438.951L304.1 183.922L255.491 34.2168ZM244.133 478.437H410.477L462.97 317.159L379.819 61.8343L244.133 478.437Z" fill="#5A1414"/>
</g>
<defs>
<clipPath id="clip0_879_3773">
<rect width="939.371" height="512" fill="white" transform="translate(0.844238 0.0507812)"/>
</clipPath>
</defs>
</svg>
