<svg width="1024" height="148" viewBox="0 0 1024 148" fill="none" xmlns="http://www.w3.org/2000/svg">
<g clip-path="url(#clip0_854_176)">
<path d="M322.881 46.4693V54.496H334.718V59.1094H322.881V71.1935H317.068V41.9021H335.732V46.4694L322.881 46.4693ZM357.336 71.1933L355.217 64.7816H343.774L341.652 71.1933H335.933L346.219 41.9019H353.141L363.518 71.1933H357.336ZM349.495 47.2995L345.157 60.2174H353.788L349.495 47.2995ZM383.861 71.1933L377.031 59.7993H373.389V71.1933H367.576V41.9021H378.139C381.092 41.9021 383.723 42.5067 385.522 43.8864C387.412 45.3642 388.749 47.6695 388.749 50.6677C388.749 54.8199 386.303 57.6807 382.75 58.8834L390.501 71.1937L383.861 71.1933ZM381.23 47.2995C380.216 46.6096 379.107 46.332 377.492 46.332H373.389V55.464H377.449C379.107 55.464 380.216 55.1891 381.229 54.4958C382.246 53.8026 382.982 52.4685 382.982 50.8961C382.982 49.3301 382.246 47.9924 381.23 47.2995ZM421.405 71.1933L420.99 49.2384L413.748 71.1933H408.628L401.337 49.2384L400.971 71.1933H395.527L396.544 41.9019H404.012L411.302 64.1835L418.636 41.9019H426.156L427.173 71.1933H421.405ZM434.961 71.1933V41.9021H453.783V46.4694H440.777V53.5741H452.861V58.1875H440.777V66.4918H454.199V71.1935L434.961 71.1933ZM477.216 71.1933L470.386 59.7993H466.744V71.1933H460.93V41.9021H471.491C474.447 41.9021 477.075 42.5067 478.874 43.8864C480.769 45.3642 482.104 47.6695 482.104 50.6677C482.104 54.8199 479.658 57.6807 476.107 58.8834L483.859 71.1937L477.216 71.1933ZM474.584 47.2995C473.571 46.6096 472.465 46.332 470.85 46.332H466.744V55.464H470.802C472.465 55.464 473.571 55.1891 474.584 54.4958C475.601 53.8026 476.34 52.4685 476.34 50.8961C476.34 49.3301 475.601 47.9924 474.584 47.2995ZM497.183 71.6575C493.263 71.6575 488.928 69.9966 486.345 67.2732L489.248 63.1695C490.402 64.3209 493.724 66.7694 497.183 66.7694C500.643 66.7694 502.398 65.3831 502.398 63.1695C502.398 60.9559 500.23 60.1226 499.073 59.6646C497.925 59.2006 494.185 57.8662 493.401 57.5396C490.448 56.3886 487.728 54.1756 487.728 49.8825C487.728 46.0998 490.403 41.4437 498.246 41.4437C503.088 41.4437 506.688 43.9353 508.074 45.3152L505.583 49.2841C504.196 47.9011 501.058 46.0541 498.063 46.0541C495.065 46.0541 493.401 47.1624 493.401 49.3303C493.401 51.5008 495.526 52.2824 496.585 52.7437C497.648 53.1587 501.336 54.496 502.169 54.8197C506.55 56.4345 508.163 59.2496 508.163 62.5258C508.163 66.7209 505.168 71.6575 497.183 71.6575ZM524.12 71.1933V41.9021H529.933V71.1935L524.12 71.1933ZM556.959 71.1933L543.818 49.9773V71.1933H538.329V41.9021H544.551L557.05 62.0617V41.9021H562.546V71.1935L556.959 71.1933ZM579.1 71.6575C575.174 71.6575 570.845 69.9966 568.261 67.2732L571.162 63.1695C572.316 64.3209 575.638 66.7694 579.1 66.7694C582.556 66.7694 584.309 65.3831 584.309 63.1695C584.309 60.9559 582.141 60.1226 580.993 59.6646C579.839 59.2006 576.102 57.8662 575.314 57.5396C572.365 56.3886 569.641 54.1756 569.641 49.8825C569.641 46.0998 572.316 41.4437 580.157 41.4437C585.005 41.4437 588.602 43.9353 589.987 45.3152L587.496 49.2841C586.11 47.9011 582.972 46.0541 579.974 46.0541C576.982 46.0541 575.315 47.1624 575.315 49.3303C575.315 51.5008 577.439 52.2824 578.502 52.7437C579.559 53.1587 583.252 54.496 584.083 54.8197C588.461 56.4345 590.079 59.2496 590.079 62.5258C590.079 66.7209 587.081 71.6575 579.1 71.6575ZM613.741 41.9017H619.554V59.5731C619.554 63.4905 618.949 66.1679 616.964 68.3845C615.029 70.5521 612.171 71.6575 607.879 71.6575C603.635 71.6575 600.728 70.5948 598.792 68.3845C596.808 66.2135 596.161 63.5392 596.161 59.6159V41.9017H601.974V59.8937C601.974 62.431 602.255 63.5849 603.177 64.6933C604.142 65.8442 605.668 66.5374 607.836 66.5374C610.053 66.5374 611.573 65.8442 612.537 64.6933C613.46 63.5849 613.741 62.431 613.741 59.8937L613.741 41.9017ZM643.905 71.1931L637.079 59.7991H633.433V71.1931H627.62V41.9021H638.184C641.139 41.9021 643.765 42.5067 645.567 43.8864C647.459 45.3642 648.797 47.6695 648.797 50.6677C648.797 54.8199 646.348 57.6807 642.8 58.8834L650.549 71.1937L643.905 71.1931ZM641.28 47.2993C640.26 46.6094 639.155 46.3318 637.543 46.3318H633.433V55.4638H637.494C639.155 55.4638 640.26 55.1889 641.28 54.4956C642.293 53.8025 643.032 52.4683 643.032 50.8959C643.032 49.3299 642.293 47.9923 641.28 47.2993ZM673.936 71.1931L671.811 64.7815H660.368L658.249 71.1931H652.528L662.816 41.9017H669.735L680.115 71.1931H673.936ZM666.089 47.2993L661.754 60.2172H670.382L666.089 47.2993ZM703.496 71.1931L690.35 49.9771V71.1931H684.86V41.9021H691.088L703.588 62.0617V41.9021H709.083V71.1935L703.496 71.1931ZM736.94 50.4809C736.94 50.4809 734.632 46.5178 729.558 46.5178C724.484 46.5178 720.979 50.4379 720.979 56.4342C720.979 62.4304 724.343 66.3998 729.466 66.3998C734.54 66.3998 737.074 62.3847 737.074 62.3847L740.073 66.3079C740.073 66.3079 736.983 71.6572 729.051 71.6572C721.112 71.6572 715.074 66.2131 715.074 56.5258C715.074 46.8385 721.809 41.4434 729.283 41.4434C736.757 41.4434 739.846 46.4261 739.981 46.655L736.94 50.4809ZM745.837 71.1931V41.9021H764.656V46.4694H751.65V53.5741H763.734V58.1875H751.65V66.4918H765.071V71.1935L745.837 71.1931ZM1015.63 140.395L995.906 108.566V140.395H987.674V96.4579H997.017L1015.77 126.696V96.4579H1024V140.395H1015.63ZM325.785 103.309V115.348H342.601V122.269H325.785V140.396H317.068V96.4581H344.122V103.309L325.785 103.309ZM350.903 140.396V96.4581H379.132V103.309H359.62V113.964H377.749V120.886H359.62V133.339H379.758V140.395L350.903 140.396ZM418.367 135.138C414.56 138.597 409.578 140.396 402.659 140.396H387.436V96.4581H402.592C409.577 96.4581 414.56 98.2563 418.367 101.715C422.171 105.175 425.148 110.713 425.148 118.392C425.148 126.144 422.172 131.679 418.367 135.138ZM412.206 106.906C409.785 104.414 406.604 103.309 402.452 103.309H396.156V133.407H402.452C406.604 133.407 409.785 132.232 412.206 129.81C414.63 127.389 416.221 123.445 416.221 118.321C416.221 113.275 414.63 109.26 412.206 106.906ZM432.757 140.396V96.4581H460.989V103.309H441.476V113.964H459.606V120.886H441.476V133.339H461.612V140.395L432.757 140.396ZM493.718 140.396L483.475 123.307H478.007V140.396H469.293V96.4581H485.136C489.566 96.4581 493.508 97.3558 496.207 99.4345C499.043 101.645 501.052 105.107 501.052 109.605C501.052 115.83 497.385 120.122 492.054 121.921L503.681 140.395L493.718 140.396ZM489.773 104.552C488.25 103.517 486.589 103.098 484.168 103.098H478.007V116.801H484.098C486.589 116.801 488.25 116.386 489.773 115.348C491.294 114.31 492.402 112.303 492.402 109.95C492.402 107.599 491.294 105.593 489.773 104.552ZM536.338 140.396L533.157 130.778H515.993L512.811 140.396H504.233L519.662 96.4581H530.037L545.608 140.396H536.338ZM524.578 104.552L518.068 123.927H531.013L524.578 104.552ZM550.315 140.396V96.4581H559.035V133.34H576.468V140.396H550.315ZM626.356 109.327C626.356 109.327 622.9 103.376 615.286 103.376C607.671 103.376 602.414 109.26 602.414 118.254C602.414 127.249 607.47 133.199 615.145 133.199C622.76 133.199 626.564 127.181 626.564 127.181L631.058 133.062C631.058 133.062 626.424 141.086 614.523 141.086C602.622 141.086 593.56 132.925 593.56 118.392C593.56 103.859 603.66 95.7651 614.871 95.7651C626.082 95.7651 630.717 103.239 630.924 103.584L626.356 109.327ZM661.711 140.396L651.471 123.307H646.006V140.396H637.287V96.4581H653.132C657.559 96.4581 661.504 97.3558 664.203 99.4345C667.042 101.645 669.051 105.107 669.051 109.605C669.051 115.83 665.382 120.122 660.051 121.921L671.677 140.395L661.711 140.396ZM657.767 104.552C656.246 103.517 654.585 103.098 652.161 103.098H646.006V116.801H652.094C654.585 116.801 656.247 116.386 657.767 115.348C659.294 114.31 660.399 112.303 660.399 109.95C660.399 107.599 659.293 105.593 657.767 104.552ZM677.624 140.396V96.4581H705.859V103.309H686.344V113.964H704.474V120.886H686.344V133.339H706.482V140.395L677.624 140.396ZM745.092 135.138C741.282 138.597 736.305 140.396 729.381 140.396H714.158V96.4581H729.314C736.305 96.4581 741.282 98.2563 745.092 101.715C748.896 105.175 751.87 110.713 751.87 118.392C751.87 126.144 748.896 131.679 745.092 135.138ZM738.931 106.906C736.507 104.414 733.325 103.309 729.173 103.309H722.877V133.407H729.173C733.325 133.407 736.507 132.232 738.931 129.81C741.355 127.389 742.942 123.445 742.942 118.321C742.942 113.275 741.355 109.26 738.931 106.906ZM759.478 140.396V96.4581H768.198V140.396H759.478ZM795.047 103.309V140.396H786.395V103.309H773.803V96.4583H807.571V103.309H795.047ZM855.798 96.4583H864.518V122.962C864.518 128.843 863.614 132.854 860.64 136.176C857.734 139.428 853.441 141.086 847.005 141.086C840.642 141.086 836.282 139.498 833.376 136.176C830.402 132.925 829.431 128.91 829.431 123.03V96.4583H838.151V123.445C838.151 127.249 838.566 128.98 839.952 130.641C841.405 132.369 843.689 133.407 846.938 133.407C850.26 133.407 852.543 132.369 853.997 130.641C855.383 128.98 855.798 127.249 855.798 123.445L855.798 96.4583ZM902.156 140.396L882.433 108.567V140.396H874.202V96.4583H883.539L902.297 126.696V96.4583H910.528V140.396H902.156ZM920.628 140.396V96.4583H929.347V140.396H920.628ZM958.547 141.086C945.395 141.086 937.023 131.954 937.023 118.392C937.023 104.9 945.395 95.7653 958.547 95.7653C971.7 95.7653 980.066 104.9 980.066 118.392C980.066 131.883 971.694 141.086 958.547 141.086ZM958.547 103.032C950.518 103.032 945.95 109.467 945.95 118.321C945.95 127.115 950.451 133.685 958.547 133.685C966.571 133.685 971.139 127.182 971.139 118.321C971.139 109.538 966.571 103.032 958.547 103.032Z" fill="#003087"/>
<path d="M139.988 0.466797C63.1523 0.466797 0 63.4848 0 140.944V147.636H279.969V140.944C279.969 63.4848 216.816 0.466797 139.988 0.466797Z" fill="white"/>
<path d="M150.499 116.359C147.159 114.744 143.414 113.834 139.455 113.834C135.495 113.834 131.747 114.744 128.407 116.359C128.227 129.472 124.653 140.256 124.632 140.317H5.59814C5.59814 66.4424 65.4878 6.53906 139.387 6.53906C213.245 6.53906 273.128 66.4424 273.128 140.317H154.274C154.253 140.259 150.685 129.46 150.499 116.359Z" fill="#003087"/>
<path d="M175.301 45.2935C165.724 35.7065 152.995 30.4429 139.452 30.4429C125.909 30.4429 113.18 35.7067 103.603 45.2935L97.6433 39.3276C108.808 28.159 123.659 22.0039 139.452 22.0039C155.246 22.0039 170.102 28.159 181.267 39.3276L175.301 45.2935ZM169.359 51.2382C152.84 34.7216 126.067 34.7216 109.547 51.2382C110.533 51.1892 111.532 51.1648 112.53 51.1648C115.855 51.1648 119.106 51.4607 122.282 51.9892C127.435 48.9452 133.309 47.2811 139.452 47.2811C145.595 47.2811 151.475 48.9452 156.629 51.995C159.801 51.4607 163.052 51.1648 166.374 51.1648C167.375 51.1648 168.372 51.1892 169.359 51.2382ZM85.6077 97.2068C73.9544 97.2068 63.3844 101.945 55.7273 109.599L61.6901 115.559C67.8205 109.435 76.2776 105.643 85.6079 105.643C87.3421 105.643 89.0336 105.814 90.7006 106.064C92.4955 103.444 94.5078 100.984 96.6969 98.6906C93.1581 97.7349 89.4426 97.2068 85.6077 97.2068ZM85.6077 80.3438C69.3043 80.3438 54.5211 86.9755 43.814 97.686L49.7738 103.64C58.9545 94.4622 71.6275 88.7738 85.6077 88.7738C92.0745 88.7738 98.2535 90.0044 103.944 92.2239C106.638 90.1967 109.513 88.4075 112.53 86.8536C104.448 82.7011 95.2983 80.3438 85.6077 80.3438Z" fill="#E01933"/>
<path d="M208.167 68.5L202.208 74.4601C193.03 65.276 180.354 59.5908 166.374 59.5908C150.046 59.5908 135.51 67.3584 126.232 79.3784C123.527 78.1817 120.636 77.3482 117.619 76.8872C128.29 61.3678 146.162 51.1641 166.374 51.1641C182.677 51.1641 197.46 57.7926 208.167 68.5ZM166.374 68.0268C154.82 68.0268 144.081 72.8955 136.437 80.4381C117.469 81.3969 100.83 91.3184 90.7002 106.063C93.7134 106.522 96.6046 107.358 99.3064 108.564C108.588 96.5407 123.127 88.7733 139.452 88.7733C145.93 88.7733 152.113 90.0161 157.81 92.2476C160.5 90.2147 163.369 88.413 166.392 86.8589C161.091 84.1305 155.386 82.1971 149.31 81.1764C154.256 78.3449 160.304 76.4627 166.374 76.4627C172.639 76.4627 178.492 78.2032 183.526 81.1768C186.708 80.6457 189.968 80.3433 193.302 80.3433C194.291 80.3433 195.278 80.3709 196.255 80.4168C188.594 72.7592 178.027 68.0268 166.374 68.0268ZM139.452 97.2062C126.177 97.2062 114.325 103.355 106.564 112.954C108.802 114.734 110.799 116.774 112.53 119.052C118.721 110.918 128.47 105.642 139.452 105.642C141.192 105.642 142.899 105.783 144.562 106.039C146.358 103.435 148.367 100.986 150.55 98.7052C147.008 97.7436 143.296 97.2062 139.452 97.2062Z" fill="white"/>
<path d="M139.452 57.6764C136.435 59.2243 133.559 61.0104 130.866 63.0439C125.175 60.8274 118.993 59.5906 112.529 59.5906C98.5492 59.5906 85.876 65.2758 76.6985 74.4599L70.7388 68.4998C81.4431 57.7924 96.2292 51.1641 112.529 51.1641C122.223 51.1641 131.373 53.524 139.452 57.6764ZM112.529 68.0266C100.876 68.0266 90.309 72.759 82.6521 80.4167C82.6521 80.4167 84.615 80.3433 85.6072 80.3433C88.9381 80.3433 92.202 80.6397 95.3834 81.1766C100.418 78.2031 106.267 76.4625 112.529 76.4625C114.264 76.4625 115.955 76.6334 117.619 76.887C119.417 74.2643 121.432 71.8066 123.621 69.5103C120.082 68.5487 116.364 68.0266 112.529 68.0266ZM193.302 80.3431C173.081 80.3431 155.212 90.5407 144.544 106.063C147.561 106.521 150.455 107.358 153.151 108.564C162.432 96.5403 176.971 88.7729 193.302 88.7729C207.279 88.7729 219.949 94.4612 229.133 103.639L235.093 97.6851C224.385 86.9745 209.602 80.3431 193.302 80.3431ZM193.302 97.206C180.021 97.206 168.166 103.355 160.408 112.954C162.646 114.734 164.645 116.774 166.374 119.052C172.565 110.918 182.314 105.642 193.302 105.642C202.629 105.642 211.086 109.434 217.22 115.559L223.179 109.599C215.522 101.944 204.953 97.206 193.302 97.206Z" fill="#B4C4EA"/>
</g>
<defs>
<clipPath id="clip0_854_176">
<rect width="1024" height="147.17" fill="white" transform="translate(0 0.466797)"/>
</clipPath>
</defs>
</svg>
