<svg width="417" height="512" viewBox="0 0 417 512" fill="none" xmlns="http://www.w3.org/2000/svg">
<g clip-path="url(#clip0_736_202)">
<path d="M403.514 174.522C386.778 184.769 372.915 199.093 363.223 216.156C353.531 233.219 348.327 252.462 348.097 272.084C348.163 294.169 354.706 315.749 366.915 334.151C379.125 352.554 396.465 366.97 416.787 375.616C408.774 401.467 396.916 425.965 381.611 448.287C359.712 479.812 336.813 511.335 301.971 511.335C267.13 511.335 258.169 491.093 218.016 491.093C178.86 491.093 164.922 512 133.065 512C101.209 512 78.9781 482.797 53.4253 446.96C19.672 396.755 1.12164 337.878 0 277.392C0 177.841 64.7093 125.081 128.419 125.081C162.268 125.081 190.475 147.312 211.712 147.312C231.954 147.312 263.48 123.751 301.971 123.751C321.762 123.24 341.375 127.604 359.082 136.458C376.789 145.311 392.048 158.383 403.514 174.522ZM283.722 81.6095C300.689 61.6493 310.294 36.4713 310.932 10.2815C310.961 6.82892 310.627 3.38287 309.936 0C280.79 2.84713 253.838 16.7388 234.608 38.8255C217.477 57.9904 207.51 82.496 206.401 108.178C206.414 111.301 206.748 114.414 207.397 117.469C209.695 117.904 212.028 118.126 214.366 118.135C227.799 117.066 240.874 113.277 252.797 106.998C264.719 100.719 275.241 92.081 283.722 81.6095Z" fill="black"/>
</g>
<defs>
<clipPath id="clip0_736_202">
<rect width="416.787" height="512" fill="white"/>
</clipPath>
</defs>
</svg>
