<svg width="1025" height="228" viewBox="0 0 1025 228" fill="none" xmlns="http://www.w3.org/2000/svg">
<g clip-path="url(#clip0_736_163)">
<path d="M318.302 35.7578C314.557 21.763 303.558 10.7651 289.563 7.01893C264.224 0.222231 162.566 0.222229 162.566 0.222229C162.566 0.222229 60.9108 0.222231 35.5703 7.01893C21.5757 10.7651 10.5778 21.763 6.83161 35.7578C0.0349141 61.0981 0.0349121 114 0.0349121 114C0.0349121 114 0.0349141 166.902 6.83161 192.243C10.5778 206.237 21.5757 217.235 35.5703 220.981C60.9108 227.778 162.566 227.778 162.566 227.778C162.566 227.778 264.224 227.778 289.563 220.981C303.558 217.235 314.557 206.237 318.302 192.243C325.099 166.902 325.099 114 325.099 114C325.099 114 325.072 61.0981 318.302 35.7578Z" fill="#FF0000"/>
<path d="M130.03 162.758L214.48 114.005L130.03 65.25V162.758Z" fill="white"/>
<path d="M393.733 148.174L357.235 16.3611H389.078L401.869 76.1131C405.133 90.8304 407.514 103.38 409.066 113.763H410.002C411.073 106.324 413.482 93.8542 417.201 76.3273L430.446 16.3611H462.289L425.335 148.174V211.405H393.707V148.174H393.733Z" fill="black"/>
<path d="M471.868 207.226C465.446 202.891 460.87 196.148 458.141 186.996C455.438 177.845 454.074 165.697 454.074 150.498V129.813C454.074 114.48 455.626 102.145 458.73 92.8596C461.834 83.5745 466.677 76.7777 473.259 72.5231C479.843 68.2685 488.485 66.1278 499.189 66.1278C509.732 66.1278 518.161 68.2952 524.529 72.6302C530.871 76.965 535.527 83.7617 538.47 92.9667C541.413 102.198 542.886 114.48 542.886 129.813V150.498C542.886 165.697 541.441 177.899 538.578 187.103C535.714 196.335 531.059 203.079 524.636 207.333C518.214 211.588 509.491 213.728 498.493 213.728C487.147 213.755 478.291 211.561 471.868 207.226ZM507.885 184.91C509.651 180.254 510.561 172.681 510.561 162.138V117.746C510.561 107.523 509.679 100.031 507.885 95.3214C506.092 90.5852 502.962 88.2305 498.466 88.2305C494.132 88.2305 491.054 90.5852 489.288 95.3214C487.495 100.058 486.612 107.523 486.612 117.746V162.138C486.612 172.681 487.468 180.28 489.182 184.91C490.894 189.566 493.97 191.893 498.466 191.893C502.962 191.893 506.092 189.566 507.885 184.91Z" fill="black"/>
<path d="M646.468 211.432H621.369L618.586 193.986H617.89C611.066 207.151 600.844 213.733 587.198 213.733C577.752 213.733 570.768 210.629 566.273 204.449C561.778 198.24 559.529 188.554 559.529 175.389V68.9157H591.613V173.515C591.613 179.884 592.309 184.406 593.7 187.109C595.092 189.811 597.42 191.175 600.684 191.175C603.467 191.175 606.143 190.32 608.712 188.608C611.281 186.894 613.154 184.727 614.411 182.105V68.8889H646.468V211.432Z" fill="black"/>
<path d="M733.623 42.1787H701.78V211.427H670.392V42.1787H638.549V16.3833H733.623V42.1787Z" fill="black"/>
<path d="M811.007 211.432H785.907L783.124 193.986H782.429C775.606 207.151 765.384 213.733 751.736 213.733C742.29 213.733 735.307 210.629 730.811 204.449C726.316 198.24 724.068 188.554 724.068 175.389V68.9157H756.152V173.515C756.152 179.884 756.847 184.406 758.239 187.109C759.63 189.811 761.958 191.175 765.224 191.175C768.005 191.175 770.681 190.32 773.251 188.608C775.82 186.894 777.692 184.727 778.95 182.105V68.8889H811.007V211.432Z" fill="black"/>
<path d="M917.186 91.6848C915.233 82.6939 912.101 76.1915 907.768 72.1509C903.433 68.1105 897.465 66.1035 889.866 66.1035C883.979 66.1035 878.467 67.7625 873.356 71.1074C868.245 74.4522 864.284 78.8139 861.501 84.2459H861.261V9.16112H830.354V211.403H856.845L860.11 197.917H860.806C863.294 202.733 867.014 206.506 871.964 209.316C876.915 212.099 882.427 213.491 888.474 213.491C899.312 213.491 907.313 208.487 912.424 198.505C917.534 188.497 920.102 172.897 920.102 151.651V129.094C920.102 113.172 919.113 100.676 917.186 91.6848ZM887.778 149.831C887.778 160.213 887.35 168.348 886.494 174.235C885.638 180.122 884.219 184.324 882.186 186.785C880.179 189.273 877.449 190.504 874.051 190.504C871.402 190.504 868.967 189.889 866.719 188.631C864.472 187.4 862.653 185.528 861.261 183.065V102.174C862.331 98.2941 864.205 95.1367 866.853 92.6481C869.476 90.1596 872.366 88.9286 875.442 88.9286C878.708 88.9286 881.222 90.2131 882.989 92.7552C884.781 95.324 886.012 99.6054 886.709 105.653C887.404 111.7 887.752 120.29 887.752 131.448V149.831H887.778Z" fill="black"/>
<path d="M965.618 158.046C965.618 167.197 965.885 174.047 966.421 178.624C966.956 183.199 968.08 186.517 969.792 188.631C971.505 190.718 974.127 191.761 977.686 191.761C982.476 191.761 985.794 189.889 987.56 186.169C989.353 182.45 990.317 176.242 990.477 167.572L1018.15 169.204C1018.31 170.435 1018.39 172.147 1018.39 174.315C1018.39 187.48 1014.77 197.327 1007.58 203.83C1000.38 210.332 990.183 213.597 977.017 213.597C961.203 213.597 950.125 208.646 943.783 198.719C937.415 188.792 934.257 173.459 934.257 152.694V127.808C934.257 106.428 937.549 90.8013 944.131 80.9542C950.714 71.1069 961.979 66.1833 977.954 66.1833C988.951 66.1833 997.407 68.1902 1003.29 72.2308C1009.18 76.2713 1013.33 82.5328 1015.74 91.0689C1018.15 99.6048 1019.35 111.379 1019.35 126.417V150.821H965.618V158.046ZM969.685 90.8816C968.053 92.8884 966.983 96.1798 966.421 100.755C965.885 105.331 965.618 112.262 965.618 121.574V131.796H989.086V121.574C989.086 112.422 988.765 105.492 988.149 100.755C987.534 96.0192 986.41 92.7011 984.777 90.7478C983.145 88.8212 980.63 87.8311 977.231 87.8311C973.806 87.8578 971.291 88.8747 969.685 90.8816Z" fill="black"/>
</g>
<defs>
<clipPath id="clip0_736_163">
<rect width="1024" height="227.556" fill="white" transform="translate(0.0349121 0.222229)"/>
</clipPath>
</defs>
</svg>
