<svg width="512" height="513" viewBox="0 0 512 513" fill="none" xmlns="http://www.w3.org/2000/svg">
<g clip-path="url(#clip0_813_401)">
<path fill-rule="evenodd" clip-rule="evenodd" d="M256.001 0.0507812C111.789 0.0507812 0 105.69 0 248.372C0 323.003 30.5858 387.496 80.3973 432.04C84.5765 435.784 87.1045 441.026 87.2773 446.639L88.6725 492.175C89.1205 506.703 104.122 516.15 117.415 510.287L168.225 487.855C172.532 485.954 177.358 485.602 181.895 486.85C205.243 493.27 230.094 496.694 256.001 496.694C400.214 496.694 512.003 391.055 512.003 248.372C512.003 105.69 400.214 0.0507812 256.001 0.0507812Z" fill="url(#paint0_radial_813_401)"/>
<path fill-rule="evenodd" clip-rule="evenodd" d="M102.273 320.994L177.473 201.684C189.435 182.702 215.048 177.979 233 191.438L292.808 236.296C298.293 240.411 305.845 240.392 311.311 236.244L392.086 174.939C402.87 166.759 416.943 179.662 409.724 191.111L334.524 310.421C322.562 329.397 296.943 334.127 278.997 320.667L219.182 275.809C213.697 271.694 206.145 271.713 200.68 275.861L119.905 337.167C109.121 345.346 95.047 332.443 102.266 320.994H102.273Z" fill="white"/>
</g>
<defs>
<radialGradient id="paint0_radial_813_401" cx="0" cy="0" r="1" gradientUnits="userSpaceOnUse" gradientTransform="translate(99.8406 508.182) scale(558.083 558.083)">
<stop stop-color="#0099FF"/>
<stop offset="0.61" stop-color="#A033FF"/>
<stop offset="0.93" stop-color="#FF5280"/>
<stop offset="1" stop-color="#FF7061"/>
</radialGradient>
<clipPath id="clip0_813_401">
<rect width="512.003" height="512" fill="white" transform="translate(0 0.0507812)"/>
</clipPath>
</defs>
</svg>
