<svg width="527" height="513" viewBox="0 0 527 513" fill="none" xmlns="http://www.w3.org/2000/svg">
<g clip-path="url(#clip0_820_467)">
<path d="M93.9353 0.0507812H433.081C484.499 0.0507812 526.072 41.6234 526.072 93.0422V419.059C526.072 470.478 484.499 512.051 433.081 512.051H93.9353C42.5165 512.051 0.943848 470.478 0.943848 419.059V93.0422C0.943848 41.6234 42.5165 0.0507812 93.9353 0.0507812Z" fill="#000B1D"/>
<path d="M423.234 296.537C398.947 270.718 331.774 281.22 316.02 283.846C292.827 261.309 276.635 234.615 271.165 224.769C279.917 199.826 285.606 173.35 286.482 147.313C286.482 123.682 277.073 98.3008 250.817 98.3008C241.627 98.5196 233.312 103.552 228.717 111.21C217.559 130.465 221.935 170.287 239.876 210.547C229.374 240.085 214.276 282.752 194.365 317.323C167.453 328.044 110.345 354.301 104.875 383.402C103.124 391.935 106.188 400.687 112.752 406.595C119.097 412.284 127.412 415.128 135.945 414.909C170.297 414.909 204.649 367.21 227.842 326.294C247.316 319.511 278.386 310.54 309.675 304.851C345.996 336.578 378.379 341.391 394.789 341.391C417.107 341.391 425.422 331.764 428.485 323.668C431.767 314.479 429.798 303.976 423.234 296.537ZM399.603 313.166C398.509 319.511 390.413 325.856 375.316 322.574C357.812 318.198 341.401 309.884 327.617 298.506C339.432 296.537 367.001 293.911 386.475 297.631C393.476 298.944 401.572 302.882 399.603 313.166ZM242.94 119.525C244.471 116.68 247.316 114.711 250.598 114.711C258.912 114.711 260.663 124.776 260.663 133.091C259.569 153.002 255.193 173.35 249.723 191.511C235.719 154.314 237.688 128.496 242.94 119.525ZM240.97 301.35C248.41 286.691 258.912 259.997 262.632 249.275C270.947 263.06 284.95 280.345 292.389 288.222C292.608 288.003 263.945 293.911 240.97 301.35ZM186.051 338.985C163.952 374.431 142.29 396.749 129.6 396.749C127.63 396.749 125.442 396.092 123.911 394.779C121.504 392.81 120.41 389.747 121.066 386.684C123.473 373.993 148.635 355.614 186.051 338.985Z" fill="white"/>
</g>
<defs>
<clipPath id="clip0_820_467">
<rect width="525.128" height="512" fill="white" transform="translate(0.943848 0.0507812)"/>
</clipPath>
</defs>
</svg>
