<svg width="1024" height="178" viewBox="0 0 1024 178" fill="none" xmlns="http://www.w3.org/2000/svg">
<g clip-path="url(#clip0_843_2491)">
<path d="M0 0.103516V177.999H53.6669V152.955H33.3927V25.1481H53.6669V0.103516H0ZM99.8707 120.755C97.2205 120.755 95.1003 119.694 93.5102 117.574C91.9201 115.454 91.125 112.605 91.125 109.027C91.125 105.45 91.655 102.601 92.7151 100.48C93.7752 98.2277 95.6966 96.4388 98.4793 95.1137C101.13 93.9211 103.515 93.1923 105.635 92.9273C107.888 92.5298 109.544 91.6022 110.605 90.1446H111.002V103.064C111.002 109.027 110.141 113.466 108.418 116.382C106.695 119.297 103.846 120.755 99.8707 120.755ZM113.188 142.023H147.774C146.316 139.24 145.389 135.927 144.991 132.084C144.594 128.241 144.395 123.802 144.395 118.767V66.2926C144.395 59.2696 143.335 53.5716 141.215 49.1988C139.227 44.6934 136.312 41.1819 132.469 38.6642C128.758 36.0139 124.253 34.225 118.953 33.2975C113.785 32.2374 108.087 31.7073 101.859 31.7073C97.7505 31.7073 93.3114 32.1711 88.541 33.0987C83.7706 33.8938 79.3315 35.6164 75.2237 38.2666C71.1159 40.7843 67.6706 44.4284 64.8879 49.1988C62.1051 53.8366 60.7138 60.0646 60.7138 67.8828H91.7213C91.8538 62.1848 92.7151 58.4083 94.3053 56.5531C95.8954 54.5654 98.4131 53.5716 101.859 53.5716C107.954 53.5716 111.002 56.8844 111.002 63.5099C111.002 66.8227 110.207 69.4066 108.617 71.2618C107.027 72.9844 104.31 74.3095 100.467 75.2371L86.3546 78.6161C80.6566 79.9412 75.8863 81.5976 72.0434 83.5853C68.2006 85.4404 65.1529 87.7594 62.9002 90.5421C60.6475 93.1923 58.9911 96.3726 57.931 100.083C57.0035 103.793 56.5397 108.166 56.5397 113.201C56.5397 117.839 57.0697 122.08 58.1298 125.922C59.1899 129.765 60.9125 133.078 63.2977 135.861C65.6829 138.644 68.7307 140.697 72.441 142.023C76.2838 143.48 80.9217 144.209 86.3546 144.209C91.9201 144.209 96.823 143.016 101.063 140.631C105.437 138.246 108.617 134.668 110.605 129.898H111.002C111.267 132.15 111.532 134.271 111.797 136.258C112.062 138.246 112.526 140.167 113.188 142.023ZM192.894 88.3557C192.894 82.5252 193.026 77.6886 193.291 73.8458C193.556 70.0029 194.02 66.9552 194.683 64.7025C195.478 62.3173 196.538 60.6609 197.863 59.7334C199.188 58.8058 200.911 58.342 203.031 58.342C205.018 58.342 206.675 58.8058 208 59.7334C209.325 60.6609 210.319 62.3173 210.981 64.7025C211.776 66.9552 212.307 70.0029 212.572 73.8458C212.837 77.6886 212.969 82.5252 212.969 88.3557C212.969 94.0536 212.837 98.824 212.572 102.667C212.307 106.51 211.776 109.624 210.981 112.009C210.319 114.262 209.325 115.852 208 116.779C206.675 117.707 205.018 118.171 203.031 118.171C200.911 118.171 199.188 117.707 197.863 116.779C196.538 115.852 195.478 114.262 194.683 112.009C194.02 109.624 193.556 106.51 193.291 102.667C193.026 98.824 192.894 94.0536 192.894 88.3557ZM212.969 0.103516V46.6148H212.572C210.716 41.0493 207.735 37.2065 203.627 35.0864C199.652 32.8337 195.146 31.7073 190.111 31.7073C185.208 31.7073 180.703 32.6349 176.595 34.4901C172.487 36.3452 168.976 39.393 166.06 43.6333C163.278 47.8736 161.091 53.4391 159.501 60.3297C157.911 67.2202 157.116 75.7672 157.116 85.9705C157.116 105.98 159.501 120.688 164.271 130.097C169.042 139.505 177.39 144.209 189.316 144.209C195.676 144.209 200.778 142.884 204.621 140.234C208.464 137.583 211.511 133.277 213.764 127.314H214.162V142.023H248.747V0.103516H212.969ZM263.561 34.4901V115.587C263.561 121.285 264.289 126.055 265.747 129.898C267.205 133.608 269.192 136.59 271.71 138.842C274.228 140.962 277.143 142.354 280.456 143.016C283.901 143.811 287.611 144.209 291.587 144.209C304.44 144.209 313.12 139.107 317.625 128.904H318.022V142.023H352.608V34.4901H316.83V105.45C316.83 109.955 316.167 113.201 314.842 115.189C313.517 117.177 311.264 118.171 308.084 118.171C304.904 118.171 302.651 117.177 301.326 115.189C300.001 113.201 299.338 109.955 299.338 105.45V34.4901H263.561ZM367.422 0.103516V142.023H403.2V0.103516H367.422ZM411.312 34.4901V58.5408H423.238V115.785C423.238 121.748 423.768 126.585 424.828 130.295C426.021 133.873 427.81 136.59 430.195 138.445C432.713 140.3 435.893 141.492 439.736 142.023C443.579 142.42 448.217 142.619 453.649 142.619C456.697 142.619 459.877 142.486 463.19 142.221C466.503 142.089 469.816 142.023 473.129 142.023V118.171H467.563C464.648 118.171 462.461 117.574 461.004 116.382C459.679 115.057 459.016 112.87 459.016 109.822V58.5408H473.129V34.4901H459.016V2.88624H423.238V34.4901H411.312ZM560.028 108.63H528.623C528.623 120.423 531.869 129.301 538.362 135.264C544.988 141.227 555.788 144.209 570.761 144.209C577.519 144.209 583.549 143.414 588.849 141.824C594.282 140.234 598.787 137.848 602.365 134.668C606.075 131.488 608.924 127.711 610.912 123.339C612.9 118.966 613.894 114.129 613.894 108.829C613.894 101.938 612.568 96.4388 609.918 92.331C607.401 88.0907 604.22 84.7779 600.378 82.3927C596.535 79.875 592.361 77.9536 587.855 76.6285C583.482 75.3034 579.375 74.0445 575.532 72.8519C571.689 71.6593 568.442 70.3342 565.792 68.8766C563.274 67.2865 562.016 64.9675 562.016 61.9198C562.016 59.2696 562.877 57.2157 564.6 55.758C566.322 54.3004 568.509 53.5716 571.159 53.5716C574.207 53.5716 576.526 54.4329 578.116 56.1556C579.838 57.7457 580.7 60.8597 580.7 65.4976H611.707C611.707 42.9708 598.257 31.7073 571.358 31.7073C564.07 31.7073 557.709 32.5687 552.276 34.2913C546.976 36.0139 542.537 38.3991 538.959 41.4469C535.513 44.4946 532.93 48.0724 531.207 52.1802C529.484 56.1556 528.623 60.5284 528.623 65.2988C528.623 72.0569 529.882 77.5561 532.399 81.7964C535.05 85.9042 538.296 89.217 542.139 91.7347C545.982 94.2524 550.09 96.2401 554.463 97.6977C558.968 99.1553 563.142 100.547 566.985 101.872C570.828 103.197 574.008 104.721 576.526 106.443C579.176 108.166 580.501 110.617 580.501 113.798C580.501 116.713 579.441 118.966 577.321 120.556C575.333 122.146 572.948 122.941 570.165 122.941C566.852 122.941 564.335 121.682 562.612 119.164C561.684 117.972 561.022 116.448 560.624 114.593C560.227 112.738 560.028 110.75 560.028 108.63ZM617.252 34.4901L639.116 142.023H679.664L690.596 65.8951H690.994L701.926 142.023H742.474L764.339 34.4901H729.753L720.809 111.81H720.411L709.877 34.4901H671.714L661.179 111.81H660.781L651.837 34.4901H617.252ZM772.137 0.103516V26.7382H807.915V0.103516H772.137ZM772.137 34.4901V142.023H807.915V34.4901H772.137ZM875.06 71.063V142.023H910.838V71.063C910.838 66.5577 911.501 63.3111 912.826 61.3235C914.151 59.3358 916.403 58.342 919.584 58.342C922.764 58.342 925.017 59.3358 926.342 61.3235C927.667 63.3111 928.329 66.5577 928.329 71.063V142.023H964.107V60.926C964.107 55.0955 963.379 50.3251 961.921 46.6148C960.463 42.9045 958.476 39.923 955.958 37.6703C953.44 35.4176 950.459 33.8938 947.013 33.0987C943.701 32.1711 940.057 31.7073 936.081 31.7073C930.516 31.7073 925.282 32.9662 920.379 35.4839C915.608 37.8691 911.832 42.1094 909.049 48.2049C906.797 42.6395 903.682 38.5316 899.707 35.8814C895.864 33.0987 890.233 31.7073 882.812 31.7073C870.091 31.7073 861.412 37.0078 856.774 47.6086H856.376V34.4901H821.791V142.023H857.569V71.063C857.569 66.5577 858.231 63.3111 859.556 61.3235C860.882 59.3358 863.134 58.342 866.314 58.342C869.495 58.342 871.747 59.3358 873.072 61.3235C874.398 63.3111 875.06 66.5577 875.06 71.063ZM990.607 25.1481V152.955H970.333V177.999H1024V0.103516H970.333V25.1481H990.607Z" fill="black"/>
</g>
<defs>
<clipPath id="clip0_843_2491">
<rect width="1024" height="177.896" fill="white" transform="translate(0 0.103516)"/>
</clipPath>
</defs>
</svg>
