<svg width="563" height="513" viewBox="0 0 563 513" fill="none" xmlns="http://www.w3.org/2000/svg">
<g clip-path="url(#clip0_879_3664)">
<path d="M414.923 87.2822C534.988 178.652 443.618 192.332 349.845 205.676C349.845 205.676 310.276 194.768 241.72 160.697C86.2154 83.4667 135.166 47.0732 257.387 25.0554C61.7849 -60.1543 -101.239 88.2142 78.6063 232.475L29.2519 267.756C69.7974 292.602 153.784 344.74 141.575 424.563L99.8955 454.358L227.211 512.051L327.671 466.534C328.4 422.319 407.415 399.359 441.418 309.424C628.57 266.489 580.909 101.86 414.934 87.2932L414.923 87.2822Z" fill="white"/>
<path d="M329.38 214.106C94.4447 123.364 78.8788 48.927 225.53 23.2059C42.1266 -26.6316 -64.8428 106.283 116.619 233.037L67.9262 267.837C119.626 302.379 174.424 353.541 155.83 434.049L131.297 451.566L225.519 494.277C313.208 398.238 359.084 304.915 329.368 214.106H329.38ZM270.16 360.218L234.07 319.167L192.626 325.339L211.783 293.783L175.693 252.699L223.622 274.268L242.733 242.711L253.193 287.577L301.122 309.112L259.667 315.319L270.16 360.207V360.218Z" fill="#021018"/>
<path d="M448.633 101.581C529.264 164.706 473.276 205.038 374.981 215.991C399.851 320.817 323.596 416.833 242.875 491.179L316.896 457.649C322.373 415.037 397.471 392.886 433.056 298.339C600.21 261.048 572.929 141.083 448.633 101.57V101.581Z" fill="#EB0028"/>
</g>
<defs>
<clipPath id="clip0_879_3664">
<rect width="561.112" height="512" fill="white" transform="translate(0.929688 0.0507812)"/>
</clipPath>
</defs>
</svg>
