<svg width="526" height="513" viewBox="0 0 526 513" fill="none" xmlns="http://www.w3.org/2000/svg">
<g clip-path="url(#clip0_820_346)">
<mask id="mask0_820_346" style="mask-type:luminance" maskUnits="userSpaceOnUse" x="18" y="18" width="489" height="476">
<path d="M93.6849 18.8633C32.8575 18.8633 18.8541 55.1847 18.8541 116.012L19.0729 411.834C19.0729 472.88 38.1088 493.229 98.9362 493.229H425.391C486.218 493.229 506.786 472.88 506.786 411.834V104.853C506.786 43.8069 484.03 18.8633 423.203 18.8633H93.6849Z" fill="white"/>
</mask>
<g mask="url(#mask0_820_346)">
<path d="M505.035 20.6133H20.8229V491.478H505.035V20.6133Z" fill="url(#paint0_radial_820_346)"/>
</g>
<path fill-rule="evenodd" clip-rule="evenodd" d="M0.25647 94.3551V418.622C0.25647 470.259 40.0787 512.051 91.9351 512.051H431.737C483.593 512.051 525.604 470.041 525.604 418.403V93.6986C525.385 42.061 483.374 0.0507812 431.518 0.0507812H91.9351C40.0787 0.0507812 0.25647 42.061 0.25647 93.6986V94.3551ZM424.735 22.1499C466.527 22.1499 503.286 56.5021 503.286 98.2935V409.651C503.286 451.442 469.371 489.952 427.58 489.952H98.0616C56.2701 489.952 22.3556 454.506 22.3556 412.714V102.67C22.3556 61.0969 56.2701 22.1499 97.8428 22.1499H424.735Z" fill="#AAA0FF"/>
<path d="M297.172 121.27L143.353 275.088L123.88 353.639L202.211 333.946L356.03 180.128L297.172 121.27Z" fill="#AAA0FF"/>
<path d="M308.113 393.027C306.581 393.027 305.05 393.027 303.299 392.808C294.547 391.714 288.202 385.369 285.139 375.304C284.92 374.429 284.701 373.772 284.482 372.897C263.477 384.056 237.877 391.933 212.058 391.933H132.633C130.226 391.933 128.256 389.964 128.256 387.557C128.256 385.15 130.226 383.181 132.633 383.181H212.058C238.315 383.181 263.477 374.866 283.388 363.926C282.294 344.234 289.952 320.165 301.986 309.882C309.426 303.536 317.959 302.442 326.492 306.381C333.494 309.663 336.339 316.227 334.588 324.323C331.525 337.67 315.552 354.736 292.797 368.521C293.015 370.053 293.453 371.584 293.891 372.897C296.079 379.899 299.58 383.618 304.831 384.275C324.304 386.682 341.59 368.302 351.874 357.581C358.219 350.798 361.063 347.735 364.783 348.391C366.533 348.61 367.846 349.704 368.721 351.235C370.472 354.518 368.721 358.237 365.658 364.801C363.251 370.053 358.656 379.899 360.626 382.962C361.282 384.056 363.251 384.494 366.096 384.494C372.003 384.494 389.945 371.147 391.477 366.552C392.133 364.145 394.54 363.051 396.947 363.707C399.354 364.364 400.448 366.771 399.792 369.177C397.166 377.93 375.723 393.246 366.096 393.246C359.969 393.246 355.593 391.277 353.186 387.557C349.686 381.868 351.874 374.21 354.937 366.989C343.997 377.93 327.805 393.027 308.113 393.027ZM316.427 312.507C313.364 312.507 310.301 313.82 307.456 316.227C298.486 323.885 292.14 342.483 291.703 358.456C310.739 346.203 323.429 331.981 325.617 322.135C326.711 316.883 324.523 315.133 322.335 314.039C320.366 313.164 318.397 312.507 316.427 312.507Z" fill="#DDD8FF"/>
</g>
<defs>
<radialGradient id="paint0_radial_820_346" cx="0" cy="0" r="1" gradientUnits="userSpaceOnUse" gradientTransform="translate(213.766 177.452) scale(315.652 315.652)">
<stop stop-color="#28254A" stop-opacity="0.8833"/>
<stop offset="0.9833" stop-color="#03042B"/>
</radialGradient>
<clipPath id="clip0_820_346">
<rect width="525.347" height="512" fill="white" transform="translate(0.25647 0.0507812)"/>
</clipPath>
</defs>
</svg>
