<svg width="589" height="513" viewBox="0 0 589 513" fill="none" xmlns="http://www.w3.org/2000/svg">
<g clip-path="url(#clip0_2_15091)">
<path d="M582.843 203.355C582.843 203.355 588.012 184.005 588.012 158.831C588.012 69.2498 518.149 0.802734 417.071 0.802734C344.245 0.802734 282.365 54.8618 249.095 54.8618C234.898 54.8618 217.337 30.5641 217.337 30.5641C217.337 30.5641 198.01 43.553 211.973 73.0875C211.973 73.0875 189.09 54.5057 154.339 54.5057C103.432 54.5057 87.2409 95.2582 87.2409 95.2582C48.5168 108.819 51.3717 130.488 20.0454 132.963C20.0454 132.963 23.5103 167.216 65.7954 168.523C49.6523 198.384 0.393555 202.838 0.393555 202.838C0.393555 202.838 14.3513 228.981 57.5598 228.981C85.4455 228.981 104.87 218.197 104.87 218.197C61.5903 241.492 89.4534 273.824 46.7686 294.859C46.7686 294.859 56.1877 300.177 67.5786 302.047C67.5786 302.047 68.3929 328.925 77.0571 354.566C77.0571 354.566 65.0806 344.744 41.4882 348.87C41.4882 348.87 57.3966 366.842 58.6071 389.685C60.5473 426.306 80.2995 464.196 118.057 464.196C139.017 464.196 150.511 454.091 150.511 454.091C145.401 473.181 112.81 485.726 112.81 485.726C112.81 485.726 130.076 501.89 155.775 501.89C195.87 501.89 201.578 459.485 244.451 459.485C277.261 459.485 305.607 487.804 357.72 487.804C489.538 487.804 565.314 349.065 571.474 295.87H431.273C431.273 295.87 413.087 351.443 372.268 351.443C335.509 351.443 315.604 323.845 315.604 281.084C315.604 226.909 359.182 134.552 426.442 134.552C451.002 134.552 457.932 154.622 457.932 170.929C457.932 188.661 452.365 203.354 452.365 203.354H582.843V203.355ZM35.0539 140.185C58.3619 137.692 70.203 105.652 109.071 105.652C139.93 105.652 159.403 131.967 159.403 131.967C111.983 117.566 118.078 154.595 67.1937 154.595C42.8427 154.595 35.0539 140.185 35.0539 140.185ZM117.877 452.172C78.5217 452.172 70.094 398.252 70.094 384.187C70.094 376.379 64.2061 363.715 64.2061 363.715C89.4263 371.847 90.5671 415.755 127.252 415.755C147.884 415.755 162.287 398.971 185.256 407.386C149.955 425.959 150.874 452.172 117.877 452.172ZM426.797 119.49C355.935 119.49 300.573 210.756 300.573 281.565C300.573 331.195 325.206 367.177 372.542 367.177C421.186 367.177 441.912 310.707 441.912 310.707H553.386C544.18 363.706 465.663 474.203 357.78 474.203C308.696 474.203 280.967 445.517 244.268 445.517C194.669 445.517 188.554 490.108 155.275 490.108C145.234 490.108 138.619 486.903 138.619 486.903C177.966 468.456 154.826 419.288 212.433 402.876C194.584 393.234 176.872 401.94 152.184 401.94C105.089 401.94 78.3864 347.537 80.2699 306.868C80.2699 306.868 95.0113 334.087 129.767 334.087C160.502 334.087 167.3 316.689 201.7 313.349C194.447 301.504 175.125 297.017 158.84 293.727C138.545 289.621 128.592 268.076 112.876 268.076C96.2778 268.076 94.5304 292.763 71.5314 291.403C71.5314 291.403 82.7722 285.967 86.4876 264.573C90.1848 243.268 102.579 227.237 125.549 227.237C148.652 227.237 171.758 244.672 179.503 242.285C145.993 218.627 150.221 198.309 121.973 198.309C94.4327 198.309 94.1892 217.187 55.6798 217.187C39.3481 217.187 28.8894 209.373 28.8894 209.373C83.7401 196.526 68.4243 150.298 138.472 150.298C173.623 150.298 184.691 165.746 213.424 165.746C163.39 130.293 165.913 89.5396 125.241 89.5396C108.952 89.5396 97.9631 100.156 97.9631 100.156C97.9631 100.156 113.8 67.1115 155.697 67.1115C197.977 67.1115 212.324 103.577 267.03 106.148C221.9 87.6614 220.648 53.0272 220.648 53.0272C220.648 53.0272 231.425 68.4207 248.167 68.4207C292.724 68.4207 347.767 13.9976 417.507 13.9976C507.596 13.9976 575.094 79.1647 575.094 158.942C575.094 177.856 571.84 189.391 571.84 189.391H471.079C471.079 189.391 474.237 181.775 474.237 169.646C474.237 146.124 457.774 119.49 426.797 119.49ZM90.7713 299.583C100.138 297.502 105.718 282.184 114.751 282.184C124.504 282.184 125.305 296.07 164.893 309.182C161.246 310.857 148.554 321.465 129.821 321.465C101.503 321.465 90.7704 299.583 90.7704 299.583H90.7713Z" fill="#F1BE48"/>
<path d="M571.841 189.391C571.841 189.391 575.095 177.855 575.095 158.943C575.095 79.1652 507.596 13.998 417.507 13.998C347.768 13.998 292.725 68.4211 248.168 68.4211C231.426 68.4211 220.649 53.0276 220.649 53.0276C220.649 53.0276 221.901 87.6609 267.03 106.148C212.325 103.577 197.978 67.1119 155.697 67.1119C113.801 67.1119 97.9639 100.157 97.9639 100.157C97.9639 100.157 108.952 89.5401 125.241 89.5401C165.913 89.5401 163.391 130.293 213.425 165.745C184.692 165.745 173.624 150.299 138.473 150.299C68.425 150.299 83.74 196.526 28.8901 209.374C28.8901 209.374 39.3488 217.187 55.6805 217.187C94.1899 217.187 94.4334 198.309 121.974 198.309C150.221 198.309 145.994 218.627 179.504 242.286C171.759 244.672 148.652 227.237 125.55 227.237C102.58 227.237 90.1847 243.27 86.4884 264.573C82.7729 285.967 71.5331 291.402 71.5331 291.402C94.5312 292.764 96.2785 268.075 112.877 268.075C128.593 268.075 138.546 289.62 158.841 293.727C175.126 297.017 194.449 301.503 201.701 313.35C167.3 316.689 160.503 334.087 129.768 334.087C95.0121 334.087 80.2706 306.868 80.2706 306.868C78.3871 347.538 105.089 401.941 152.184 401.941C176.872 401.941 194.584 393.235 212.432 402.875C154.826 419.288 177.967 468.456 138.62 486.904C138.62 486.904 145.234 490.109 155.276 490.109C188.555 490.109 194.669 445.518 244.268 445.518C280.968 445.518 308.696 474.204 357.781 474.204C465.664 474.204 544.18 363.706 553.387 310.708H441.913C441.913 310.708 421.187 367.178 372.543 367.178C325.207 367.178 300.572 331.196 300.572 281.566C300.572 210.756 355.935 119.491 426.798 119.491C457.775 119.491 474.238 146.124 474.238 169.645C474.238 181.775 471.079 189.39 471.079 189.39H571.841V189.391Z" fill="#C8102E"/>
<path d="M159.403 131.966C159.403 131.966 139.93 105.652 109.071 105.652C70.2033 105.652 58.3621 137.693 35.0542 140.186C35.0542 140.186 42.843 154.595 67.194 154.595C118.078 154.595 111.983 117.566 159.403 131.966ZM185.257 407.386C162.287 398.972 147.884 415.756 127.253 415.756C90.5674 415.756 89.4266 371.847 64.2064 363.716C64.2064 363.716 70.0942 376.379 70.0942 384.187C70.0942 398.252 78.5219 452.172 117.877 452.172C150.873 452.172 149.956 425.96 185.257 407.386ZM244.306 482.421C235.915 482.421 229.116 489.218 229.116 497.61C229.116 505.999 235.915 512.803 244.306 512.803C252.689 512.803 259.487 505.999 259.487 497.61C259.487 489.218 252.688 482.421 244.306 482.421ZM244.306 509.543C237.712 509.543 232.379 504.198 232.379 497.61C232.379 491.017 237.712 485.681 244.306 485.681C250.887 485.681 256.238 491.017 256.238 497.61C256.238 504.198 250.887 509.543 244.307 509.543H244.306Z" fill="#C8102E"/>
<path d="M250.044 492.308C249.366 490.145 247.246 488.76 244.98 488.76H237.747V506.216H241.238V499.233H243.727L247.245 506.216H250.3L246.851 498.826C248.129 498.371 249.178 497.435 249.775 496.217C250.371 494.999 250.468 493.596 250.044 492.308ZM244.865 495.742H241.238V492.251H244.984C245.233 492.249 245.48 492.3 245.707 492.402C245.934 492.504 246.136 492.654 246.3 492.841C246.465 493.028 246.588 493.248 246.66 493.486C246.732 493.724 246.753 493.975 246.719 494.222C246.611 495.116 245.766 495.742 244.865 495.742Z" fill="#C8102E"/>
</g>
<defs>
<clipPath id="clip0_2_15091">
<rect width="587.619" height="512" fill="white" transform="translate(0.393555 0.800781)"/>
</clipPath>
</defs>
</svg>
