<svg width="442" height="512" viewBox="0 0 442 512" fill="none" xmlns="http://www.w3.org/2000/svg">
<g clip-path="url(#clip0_757_332)">
<path fill-rule="evenodd" clip-rule="evenodd" d="M401.298 0H40.1795C10.8796 0 0.103027 10.7938 0.103027 40.0764V393.431L0.533399 402.675C1.18757 409.079 1.3425 415.277 7.28166 422.3C9.44291 424.108 11.6649 425.842 13.9439 427.499L23.1194 431.769L200.933 506.258C210.177 510.475 214.016 512.145 220.73 511.99H220.782C227.495 512.128 231.334 510.475 240.579 506.258L418.392 431.769L427.568 427.499L434.23 422.3C440.169 415.242 440.307 409.045 440.978 402.675C441.279 399.603 441.422 396.518 441.409 393.431V40.0937C441.409 10.7938 430.598 0.0172158 401.332 0.0172158H401.298V0Z" fill="#292929"/>
<path d="M377.081 355.216L376.99 356.042L376.906 356.924L376.752 357.75L376.507 358.562L376.346 359.29L376.101 360.116L375.772 360.844L375.443 361.488L375.128 362.23L374.729 362.874L374.309 363.532L373.826 364.176L373.42 364.82L372.937 365.394L372.363 365.968L371.887 366.458L371.229 367.032L370.669 367.522L370.011 368.012L369.367 368.404L368.723 368.894L367.988 369.314L367.26 369.65L366.526 370.042L365.714 370.378L364.909 370.699L364.09 370.951L363.285 371.189L362.543 371.441L361.738 371.595L361.01 371.749L360.275 371.917L359.477 372.085L358.658 372.169L357.93 372.253L357.111 372.323L356.222 372.407L355.417 372.491H352.008L351.189 372.407H350.3L349.496 372.323L348.684 372.253L347.781 372.169L346.976 371.987L346.157 371.917L345.352 371.749L344.54 371.595L343.735 371.441L342.916 371.259L342.104 371.021L341.369 370.867L340.564 370.615L339.752 370.378L339.017 370.042L338.219 369.804L337.484 369.552L336.665 369.23L335.937 368.894L335.202 368.586L334.474 368.18L333.746 367.858L333.011 367.438L332.367 367.032L331.633 366.64L330.989 366.22L330.345 365.814L329.687 365.324L329.043 364.82L328.399 364.344L327.748 363.854L327.181 363.364L326.53 362.79L327.02 362.146L327.58 361.572L328.07 360.928L328.637 360.27L329.127 359.696L329.617 359.052L330.177 358.394L330.66 357.834L331.234 357.176L331.724 356.602L332.297 355.958L332.766 355.3L333.27 354.74L333.83 354.068L334.313 353.424L334.887 352.85L335.377 352.193L336.021 352.682L336.756 353.186L337.4 353.676L338.128 354.166L338.772 354.558L339.507 355.048L340.151 355.468L340.893 355.776L341.544 356.196L342.272 356.532L343.007 356.84L343.735 357.176L344.449 357.414L345.198 357.75L346.003 357.988L346.815 358.226L347.536 358.478L348.348 358.632L349.167 358.8L349.971 358.968L350.874 359.052L351.679 359.206H352.491L353.38 359.29H355.158L356.061 359.206L356.88 359.052L357.594 358.898L358.329 358.716L358.987 358.478L359.547 358.142L360.205 357.652L360.681 357.092L361.01 356.434L361.255 355.706L361.339 354.894V354.74L361.255 353.746L360.926 352.934L360.52 352.375L359.96 351.885L359.302 351.381L358.658 351.059L357.93 350.737L357.111 350.401L356.138 350.009L355.578 349.827L354.927 349.673L354.199 349.435L353.471 349.267L352.652 349.029L351.833 348.861L350.944 348.609L350.139 348.455L349.237 348.217L348.439 348.035L347.62 347.797L346.815 347.643L346.003 347.391L345.268 347.153L344.449 346.999L343.735 346.733L343.007 346.495L342.272 346.243L341.369 345.935L340.564 345.599L339.752 345.277L338.947 344.941L338.219 344.549L337.4 344.129L336.756 343.723L336.021 343.317L335.377 342.841L334.719 342.421L334.159 341.931L333.011 340.783L332.521 340.223L332.052 339.649L331.633 339.075L331.234 338.431L330.835 337.689L330.506 337.129L330.261 336.471L330.016 335.743L329.771 335.099L329.617 334.274L329.442 333.546L329.372 332.734L329.288 331.908L329.197 331.026V329.15L329.288 328.324L329.372 327.596L329.442 326.784L329.617 326.056L329.771 325.314L330.016 324.572L330.177 323.844L330.506 323.116L330.835 322.374L331.15 321.646L331.548 320.918L331.969 320.176L332.451 319.532L332.941 318.874L333.501 318.216L334.075 317.642L334.635 316.998L335.293 316.425L335.853 316.019L336.511 315.529L337.155 315.039L337.799 314.633L338.534 314.227L339.262 313.905L339.99 313.499L340.725 313.163L341.544 312.925L342.342 312.603L343.077 312.365L343.735 312.183L344.449 312.029L345.198 311.861L346.003 311.707L346.731 311.539L348.348 311.371L349.167 311.301L349.971 311.217H353.471L354.36 311.301L355.249 311.371H356.061L356.95 311.455L357.769 311.609L358.658 311.707L359.477 311.861L360.205 312.029L361.01 312.183L361.829 312.365L362.543 312.519L363.362 312.757L364.09 313.009L364.825 313.163L365.637 313.499L366.372 313.737L367.086 314.059L367.82 314.395L368.632 314.717L369.367 315.123L370.011 315.459L370.739 315.851L371.474 316.257L372.118 316.677L372.846 317.166L373.511 317.558L374.155 318.062L375.443 319.042L374.974 319.686L374.554 320.344L374.071 320.988L373.581 321.646L373.105 322.374L372.692 323.018L372.202 323.69L371.719 324.334L371.313 324.992L370.83 325.636L370.34 326.294L369.927 326.938L369.451 327.666L368.961 328.324L368.478 328.968L368.058 329.64L367.59 330.284L366.932 329.794L366.197 329.388L365.553 328.968L364.909 328.492L364.174 328.17L363.516 327.75L362.802 327.428L362.144 327.106L361.409 326.784L360.765 326.448L360.037 326.21L359.386 325.874L358.497 325.636L357.685 325.384L356.88 325.146L356.061 324.992L355.249 324.81L354.444 324.656L353.625 324.572L352.806 324.502L352.078 324.418H350.3L349.411 324.572L348.593 324.74L347.865 324.908L347.221 325.23L346.647 325.566L345.912 326.21L345.429 326.938L345.114 327.666L345.023 328.492V328.66L345.114 329.724L345.513 330.606L345.842 331.096L346.402 331.67L347.13 332.076L347.781 332.482L348.593 332.818L349.496 333.126L350.461 333.462L351.119 333.616L351.763 333.868L352.491 334.036L353.226 334.274L354.024 334.442L354.927 334.679L355.816 334.917L356.705 335.169L357.594 335.337L358.413 335.589L359.302 335.827L360.121 335.981L360.926 336.233L361.738 336.471L362.473 336.723L363.285 336.975L364.02 337.213L364.734 337.465L365.637 337.773L366.442 338.179L367.26 338.501L368.058 338.921L368.807 339.327L369.521 339.733L370.186 340.139L370.83 340.629L371.474 341.035L372.118 341.609L372.776 342.183L373.336 342.841L373.91 343.401L374.4 344.059L374.883 344.787L375.289 345.431L375.688 346.173L376.017 346.817L376.262 347.559L376.507 348.287L376.661 349.029L376.836 349.827L376.99 350.653L377.081 351.465L377.165 352.375V354.32L377.081 355.216Z" fill="white"/>
<path d="M273.675 371.511V312.183H320.58V325.636H289.172V335.337H317.416V347.965H289.172V358.072H320.986V371.511H273.675Z" fill="white"/>
<path d="M246.042 371.511V336.429L245.643 337.087L245.153 337.815L244.754 338.473L244.264 339.117L243.865 339.859L243.361 340.517L242.962 341.161L242.556 341.903L242.073 342.547L241.667 343.205L241.184 343.849L240.764 344.605L240.281 345.249L239.875 345.907L239.476 346.635L238.986 347.293L238.587 347.937L238.097 348.665L237.698 349.337L237.194 349.98L236.795 350.722L236.396 351.366L235.906 352.024L235.507 352.752L235.017 353.41L234.604 354.054L234.114 354.726L233.715 355.454L233.309 356.112L232.826 356.756L232.42 357.498L231.937 358.142L231.518 358.786L231.035 359.542L230.629 360.186H230.314L229.817 359.444L229.411 358.786L228.928 358.058L228.522 357.414L228.039 356.686L227.619 356.028L227.15 355.3L226.73 354.628L226.247 353.9L225.841 353.256L225.358 352.514L224.952 351.87L224.469 351.128L224.049 350.47L223.58 349.729L223.16 349.085L222.677 348.357L222.187 347.699L221.788 346.971L221.298 346.299L220.899 345.571L220.409 344.927L219.996 344.185L219.52 343.541L219.107 342.813L218.617 342.155L218.218 341.413L217.728 340.755L217.329 340.027L216.839 339.369L216.426 338.641L215.95 337.997L215.537 337.241L215.047 336.597V371.511H199.634V312.183H216.265L216.671 312.841L217.084 313.583L217.574 314.226L217.973 314.954L218.372 315.612L218.792 316.34L219.191 316.984L219.681 317.726L220.08 318.384L220.493 319.028L220.899 319.756L221.298 320.4L221.788 321.142L222.187 321.786L222.6 322.528L223.006 323.172L223.489 323.83L223.895 324.558L224.294 325.202L224.707 325.93L225.113 326.588L225.596 327.33L226.002 327.974L226.415 328.702L226.821 329.346L227.22 330.004L227.703 330.732L228.123 331.404L228.522 332.132L228.928 332.775L229.327 333.503L229.817 334.161L230.23 334.875L230.629 335.533L231.035 334.875L231.447 334.161L231.937 333.503L232.336 332.775L232.735 332.132L233.141 331.404L233.624 330.732L234.044 330.004L234.443 329.346L234.842 328.702L235.332 327.974L235.731 327.33L236.151 326.588L236.55 325.93L237.04 325.202L237.439 324.558L237.852 323.83L238.258 323.172L238.657 322.528L239.147 321.786L239.56 321.142L239.966 320.4L240.365 319.756L240.848 319.028L241.254 318.384L241.667 317.726L242.073 316.984L242.556 316.34L242.962 315.612L243.361 314.954L243.774 314.226L244.264 313.583L244.663 312.841L245.083 312.183H261.707V371.511H246.042Z" fill="white"/>
<path d="M192.711 370.769L192.382 370.041L192.067 369.313L191.822 368.501L191.493 367.759L191.178 367.031L190.52 365.576L190.205 364.82L189.876 364.022L189.547 363.294L189.316 362.552L188.987 361.81L188.658 361.082L188.343 360.354L188.015 359.542L187.679 358.8L187.364 358.072L187.035 357.33L186.797 356.602L186.475 355.86L186.146 355.048L185.817 354.32L185.502 353.592L185.173 352.85L184.844 352.122L184.529 351.38L184.284 350.582L183.955 349.826L183.64 349.098L182.982 347.643L182.653 346.901L182.331 346.089L182.009 345.361L181.764 344.633L181.449 343.877L181.113 343.149L180.784 342.421L180.455 341.609L180.14 340.867L179.811 340.139L179.496 339.411L179.251 338.683L178.922 337.927L178.593 337.213L178.278 336.401L177.949 335.673L177.62 334.917L177.305 334.189L176.976 333.461L176.731 332.733L176.402 331.907L176.087 331.179L175.751 330.452L175.443 329.724L175.107 328.968L174.778 328.24L174.463 327.428L174.218 326.7L173.889 325.958L173.56 325.23L173.245 324.502L172.916 323.774L172.601 322.948L172.272 322.22L171.943 321.478L171.698 320.75L171.383 320.008L171.054 319.28L170.739 318.468L170.41 317.74L170.082 316.998L169.746 316.256L169.431 315.528L169.186 314.8L168.864 313.974L168.542 313.246L167.884 311.791H152.876L152.562 312.518L151.904 313.974L151.659 314.8L151.344 315.528L151.015 316.256L150.686 316.998L150.371 317.74L150.035 318.468L149.706 319.28L149.391 320.008L149.153 320.75L148.817 321.478L148.488 322.22L148.173 322.948L147.844 323.774L147.529 324.502L147.2 325.23L146.885 325.958L146.626 326.7L146.311 327.428L145.982 328.24L145.667 328.968L145.338 329.724L145.009 330.452L144.687 331.179L144.358 331.907L144.12 332.733L143.791 333.461L143.469 334.189L143.14 334.917L142.825 335.673L142.496 336.401L142.167 337.213L141.852 337.927L141.607 338.683L140.949 340.139L140.634 340.867L140.305 341.609L139.976 342.421L139.661 343.149L139.325 343.877L139.087 344.633L138.758 345.361L138.443 346.089L138.107 346.901L137.778 347.643L137.463 348.37L137.134 349.098L136.819 349.826L136.56 350.582L136.245 351.38L135.916 352.122L135.601 352.85L135.272 353.592L134.943 354.32L134.629 355.048L134.3 355.86L134.055 356.602L133.74 357.33L133.411 358.072L133.082 358.8L132.767 359.542L132.438 360.354L132.116 361.082L131.787 361.81L131.542 362.552L131.213 363.294L130.898 364.022L130.569 364.82L130.24 365.576L129.925 366.303L129.267 367.759L129.022 368.501L128.707 369.313L128.049 370.769L127.734 371.511H144.12L144.449 370.769L144.687 370.041L145.009 369.313L145.338 368.501L145.583 367.759L145.912 367.031L146.227 366.303L146.465 365.576L146.801 364.82L147.13 364.092L147.361 363.364L147.683 362.552L148.019 361.81L148.257 361.082L148.579 360.354H171.859L172.188 361.082L172.426 361.81L172.755 362.552L173.077 363.364L173.329 364.092L173.651 364.82L173.98 365.576L174.218 366.303L174.533 367.031L174.869 367.759L175.107 368.501L175.443 369.313L175.751 370.041L175.996 370.769L176.325 371.511H193.04L192.711 370.769ZM153.366 347.797L153.695 347.069L153.94 346.341L154.269 345.515L154.584 344.787L154.822 344.045L155.158 343.303L155.473 342.491L155.802 341.763L156.04 341.021L156.376 340.279L156.691 339.551L156.936 338.739L157.265 338.011L157.594 337.255L157.832 336.527L158.154 335.799L158.483 334.973L158.812 334.245L159.036 333.503L159.372 332.775L159.701 331.949L159.946 331.221L160.261 330.479L160.59 331.221L160.828 331.949L161.15 332.775L161.479 333.503L161.724 334.245L162.053 334.973L162.368 335.799L162.606 336.527L162.942 337.255L163.271 338.011L163.516 338.739L163.831 339.551L164.069 340.279L164.398 341.021L164.734 341.763L164.972 342.491L165.294 343.303L165.623 344.045L165.861 344.787L166.19 345.515L166.512 346.341L166.75 347.069L167.086 347.797H153.366Z" fill="white"/>
<path d="M121.154 363.938L120.51 364.428L119.936 364.82L119.285 365.324L118.627 365.73L117.983 366.22L117.339 366.64L116.695 367.032L115.946 367.438L115.232 367.858L114.497 368.25L113.769 368.586L113.041 368.978L112.222 369.314L111.501 369.65L110.689 369.958L109.955 370.294L109.227 370.531L108.492 370.77L107.764 371.021L106.945 371.259L106.231 371.511L105.412 371.679L104.684 371.833L103.865 371.987L103.06 372.169L102.241 372.253L101.352 372.323L100.54 372.407L99.6511 372.491L98.8321 372.561L97.9432 372.659H94.4574L93.6454 372.561L92.7565 372.491L91.9375 372.407L91.1326 372.323L90.3136 372.253L89.5017 372.085L88.6967 371.917L87.9687 371.749L87.1498 371.595L86.4148 371.343L85.6169 371.189L84.8819 370.951L84.154 370.615L83.419 370.378L82.621 370.042L81.8721 369.72L81.1581 369.398L80.4232 369.076L79.6952 368.656L79.0372 368.25L78.3163 367.858L77.6583 367.438L77.0144 367.032L76.3564 366.542L75.7124 366.066L75.0615 365.576L74.4875 365.086L73.9345 364.582L73.3606 364.022L72.8006 363.532L71.6527 362.384L71.1627 361.81L70.6797 361.166L70.1897 360.592L69.7908 359.934L69.3008 359.29L68.9018 358.632L68.4958 357.988L68.0829 357.26L67.6839 356.602L67.0329 355.132L66.7039 354.404L66.3889 353.676L66.13 353.018L65.815 352.277L65.647 351.549L65.416 350.821L65.241 350.009L65.003 349.267L64.842 348.455L64.758 347.727L64.5971 346.901L64.5131 346.173L64.4291 345.361L64.3591 344.549L64.2681 343.723V341.035L64.3591 340.139V339.327L64.4291 338.501L64.5131 337.619L64.688 336.807L64.758 335.981L64.926 335.253L65.171 334.442L65.332 333.616L65.577 332.888L65.815 332.076L66.06 331.334L66.3889 330.522L66.7039 329.794L67.0329 329.066L67.3549 328.324L67.6839 327.596L68.0829 326.868L68.4958 326.21L68.9018 325.566L69.3008 324.908L69.7138 324.264L70.1897 323.592L70.6797 322.948L71.1627 322.29L71.6527 321.716L72.2266 321.156L72.7166 320.582L73.2696 320.008L73.8435 319.434L74.4175 318.958L75.0615 318.384L75.6354 317.894L76.2794 317.404L76.9304 316.998L77.5743 316.523L78.2323 316.103L78.8763 315.697L79.6112 315.291L80.3392 314.885L81.0671 314.465L81.8021 314.157L82.53 313.821L83.335 313.415L83.993 313.163L84.7979 312.925L85.5259 312.603L86.2608 312.435L86.9888 312.183L87.8078 312.029L88.5357 311.791L89.3407 311.609L90.1596 311.539L90.9646 311.371L91.7765 311.301L92.5815 311.217L94.2194 311.049H97.6982L98.6011 311.133L99.4901 311.217H100.295L101.114 311.301L102.003 311.455L102.731 311.539L103.55 311.707L104.348 311.861L105.083 312.029L105.811 312.183L106.546 312.365L107.274 312.603L108.009 312.757L108.653 313.009L109.381 313.247L110.116 313.583L110.843 313.905L111.578 314.227L112.306 314.633L113.041 314.955L113.685 315.375L114.413 315.767L115.057 316.187L115.792 316.593L116.45 317.082L117.094 317.488L118.382 318.468L119.047 319.042L119.691 319.532L119.201 320.176L118.627 320.75L118.144 321.408L117.584 322.052L117.094 322.71L116.604 323.27L116.037 323.928L115.547 324.572L115.057 325.146L114.497 325.804L114.014 326.448L113.44 327.106L112.95 327.666L112.467 328.324L111.907 328.968L111.417 329.64L110.843 330.214L110.36 330.858L109.71 330.368L109.066 329.794L108.408 329.388L107.764 328.898L107.12 328.492L106.455 328.086L105.811 327.666L105.083 327.274L103.795 326.602L103.13 326.364L102.402 326.126L101.688 325.874L100.939 325.72L100.134 325.566L99.3221 325.384L98.5172 325.314L97.6282 325.23L96.7253 325.146H95.0173L94.2194 325.23L93.4844 325.314L92.6655 325.482L91.9375 325.636L91.2026 325.874L90.4746 326.126L89.7606 326.448L89.0257 326.784L88.3677 327.176L87.7238 327.596L87.0798 328.002L86.5058 328.492L85.9319 328.968L85.3719 329.458L84.8819 330.032L84.308 330.606L83.825 331.264L83.419 331.824L83.02 332.482L82.621 333.224L82.2011 333.868L81.8721 334.61L81.6271 335.337L81.3121 336.065L81.0671 336.891L80.9131 337.689L80.7381 338.431L80.5842 339.327L80.5002 340.139L80.4232 340.965V342.841L80.5002 343.639L80.5842 344.381L80.6542 345.193L80.8291 345.935L80.9831 346.663L81.1581 347.391L81.4031 348.133L81.6271 348.791L81.9561 349.589L82.2921 350.331L82.691 351.059L83.09 351.717L83.51 352.375L83.993 353.018L84.4829 353.592L85.0429 354.166L85.5259 354.74L86.0998 355.216L86.7438 355.706L87.3948 356.196L88.0387 356.602L88.6967 357.008L89.4247 357.33L90.1596 357.652L90.8876 357.988L91.6925 358.226L92.5115 358.478L93.3304 358.632L94.1284 358.8L94.9473 358.898L95.8363 358.968H97.6982L98.6011 358.898L99.4901 358.8L100.295 358.716L101.114 358.562L101.926 358.394L102.731 358.142L103.459 357.988L104.194 357.652L104.838 357.33L105.573 357.008L106.14 356.686L106.791 356.28V348.861H94.9473V336.975H121.714V363.448L121.154 363.938Z" fill="white"/>
<path d="M95.06 177.972H130.219V150.772H95.06V95.2366H131.626V68.0361H65.1997V264.347H132.172V237.147H95.06V177.972Z" fill="white"/>
<path d="M346.933 183.866V228.173C346.933 236.027 343.308 239.667 335.762 239.667H330.19C322.372 239.667 318.746 236.027 318.746 228.173V104.21C318.746 96.3568 322.372 92.717 330.19 92.717H335.202C342.748 92.717 346.373 96.3568 346.373 104.21V142.638H375.674V102.516C375.674 78.1438 363.949 66.3564 339.675 66.3564H325.158C300.89 66.3564 288.872 78.4098 288.872 102.81V229.573C288.872 253.974 300.89 266.027 325.158 266.027H339.948C364.236 266.027 376.234 253.974 376.234 229.573V183.866H346.933Z" fill="white"/>
<path d="M273.087 68.0361H243.227V264.347H273.087V68.0361Z" fill="white"/>
<path d="M199.9 155.251C199.9 163.105 196.275 166.745 188.736 166.745H176.466V94.3967H188.736C196.275 94.3967 199.9 98.0365 199.9 105.89V155.251ZM193.482 68.0361H146.591V264.347H176.466V193.105H193.482C217.763 193.105 229.761 181.052 229.761 156.651V104.49C229.761 80.0895 217.763 68.0361 193.482 68.0361Z" fill="white"/>
<path d="M135.643 441.843H306.595L219.33 470.626L135.643 441.843Z" fill="white"/>
</g>
<defs>
<clipPath id="clip0_757_332">
<rect width="441.306" height="512" fill="white" transform="translate(0.103027)"/>
</clipPath>
</defs>
</svg>
