<svg width="1025" height="213" viewBox="0 0 1025 213" fill="none" xmlns="http://www.w3.org/2000/svg">
<g clip-path="url(#clip0_9_1019)">
<path d="M309.509 66.5064C296.572 66.5064 290.102 70.773 290.099 79.3064C290.043 81.0555 290.46 82.7872 291.306 84.319C292.153 85.8509 293.396 87.1261 294.906 88.0104C298.112 90.0277 305.621 92.929 317.434 96.7144C329.248 100.5 337.529 104.819 342.277 109.673C347.028 114.479 349.402 121.869 349.399 131.843C349.399 144.547 345.542 154.159 337.827 160.679C330.113 167.198 320.022 170.463 307.553 170.473C298.296 170.473 286.96 169.048 273.546 166.198L267.136 164.954L269.629 145.902C285.532 148.046 297.699 149.116 306.129 149.112C318.714 149.112 325.007 143.888 325.007 133.44C325.007 129.651 323.553 126.671 320.64 124.536C317.726 122.401 311.936 120.087 303.283 117.594C289.507 113.679 279.806 109.021 274.181 103.621C268.555 98.2214 265.734 90.712 265.717 81.0932C265.717 68.9896 269.397 59.9698 276.756 54.0341C284.115 48.0983 294.205 45.1304 307.025 45.1304C315.811 45.1304 326.971 46.325 340.505 48.7144L346.885 49.9381L344.934 69.3633C328.202 67.4655 316.393 66.5132 309.509 66.5064Z" fill="#555555"/>
<path d="M390.886 168.343H367.022V43.7173H390.886V114.573L399.964 112.97L417.592 79.3218H444.303L421.155 121.521L445.552 168.343H418.662L400.675 133.624L390.886 135.217V168.343Z" fill="#555555"/>
<path d="M481.08 145.825C483.869 148.259 487.872 149.478 493.091 149.481C504.137 149.481 513.991 149.124 522.654 148.411L527.646 147.899L527.994 165.522C514.341 168.847 501.995 170.509 490.956 170.509C477.542 170.509 467.814 166.947 461.772 159.823C455.731 152.7 452.705 141.129 452.695 125.11C452.695 93.1814 465.812 77.2173 492.047 77.2173C517.923 77.2173 530.862 90.6283 530.862 117.45L529.09 134.008H476.713C476.832 139.449 478.288 143.388 481.08 145.825ZM507.34 115.822C507.34 108.698 506.212 103.749 503.956 100.974C501.7 98.199 497.754 96.8064 492.119 96.7962C486.473 96.7962 482.496 98.2485 480.189 101.153C477.882 104.058 476.663 108.953 476.533 115.837L507.34 115.822Z" fill="#555555"/>
<path d="M597.253 99.6327H575.349V136.133C575.349 139.692 575.441 142.221 575.61 143.706C575.784 145.173 576.48 146.529 577.571 147.525C578.698 148.597 580.447 149.131 582.819 149.128L596.352 148.774L597.422 167.816C589.465 169.603 583.424 170.488 579.256 170.488C568.576 170.488 561.276 168.082 557.358 163.269C553.439 158.456 551.48 149.582 551.48 136.645V99.6019H540.984V79.3216H551.48V54.5767H575.339V79.3216H597.253V99.6327Z" fill="#555555"/>
<path d="M646.052 77.1865C652.233 77.1865 660.13 78.1354 669.742 80.0332L674.539 81.1033L673.828 99.9756C664.454 99.0267 657.51 98.5523 652.994 98.5523C644.802 98.5523 639.373 100.303 636.708 103.805C634.042 107.307 632.705 113.924 632.699 123.656C632.699 133.39 634.035 140.069 636.708 143.69C639.38 147.312 644.869 149.123 653.173 149.123L673.828 147.699L674.539 166.74C661.842 169.239 652.168 170.485 645.519 170.478C632.34 170.478 622.872 166.771 617.113 159.357C611.355 151.944 608.474 140.043 608.471 123.656C608.471 107.272 611.439 95.4325 617.374 88.1382C623.31 80.8439 632.869 77.1934 646.052 77.1865Z" fill="#555555"/>
<path d="M716.037 168.343H692.172V43.7173H716.037V83.597C724.229 79.3235 731.588 77.1867 738.114 77.1867C749.989 77.1867 758.181 80.6888 762.69 87.693C767.199 94.6971 769.452 105.504 769.448 120.113V168.343H745.589V120.625C745.589 113.146 744.702 107.598 742.927 103.98C741.152 100.362 737.59 98.5508 732.241 98.5474C727.529 98.5599 722.845 99.2796 718.346 100.682L716.037 101.394V168.343Z" fill="#555555"/>
<path d="M818.775 99.6328V168.343H794.915V99.6328H785.3V79.3218H794.915V75.4152C794.915 62.5948 796.813 53.7525 800.609 48.8885C804.404 44.0245 811.175 41.5908 820.92 41.5874C825.197 41.5874 830.716 42.1813 837.478 43.3692L841.21 43.8812L840.852 63.286C835.63 63.0504 831.238 62.9327 827.678 62.9327C824.118 62.9327 821.744 63.8816 820.556 65.7794C819.358 67.6789 818.775 70.9455 818.775 75.574V79.3116H840.32V99.6328H818.775Z" fill="#555555"/>
<path d="M922.409 107.098V144.131C922.644 146.988 923.12 148.969 923.832 150.101C924.544 151.232 926.028 152.031 928.286 152.497L927.57 170.478C921.518 170.478 916.679 170.065 913.054 169.239C909.128 168.266 905.417 166.573 902.108 164.247C893.977 168.305 885.021 170.437 875.934 170.478C857.523 170.478 848.322 160.75 848.332 141.294C848.332 131.809 850.882 125.074 855.982 121.091C861.081 117.107 868.917 114.762 879.488 114.056L898.539 112.633V107.098C898.539 103.417 897.699 100.903 896.046 99.5253C894.392 98.148 891.704 97.4773 888.033 97.4773L854.558 98.9007L853.847 82.3426C866.544 78.902 878.621 77.1816 890.076 77.1816C901.531 77.1816 909.781 79.5556 914.826 84.3036C919.891 89.0617 922.419 96.6598 922.409 107.098ZM882.345 130.599C875.695 131.193 872.371 134.753 872.371 141.279C872.371 147.805 875.272 151.07 881.075 151.073C886.072 151.005 891.039 150.287 895.851 148.938L898.524 148.227V129.175L882.345 130.599Z" fill="#555555"/>
<path d="M988.282 77.1867C1000.75 77.1867 1009.86 80.6001 1015.62 87.4267C1021.38 94.2534 1024.26 106.451 1024.26 124.019C1024.26 141.578 1020.94 153.712 1014.29 160.423C1007.64 167.133 996.183 170.488 979.922 170.488C974.802 170.488 965.48 169.895 951.956 168.707L945.193 167.995V43.7173H969.052V81.9944C976.65 78.7893 983.06 77.1867 988.282 77.1867ZM979.922 149.123C987.878 149.123 993.22 147.192 995.947 143.332C998.674 139.472 1000.04 132.556 1000.04 122.586C1000.04 106.564 995.056 98.5542 985.082 98.5576C980.512 98.5343 975.959 99.1337 971.55 100.339L969.057 100.877V148.411C974.515 148.885 978.136 149.123 979.922 149.123Z" fill="#555555"/>
<path d="M106.245 8.12354C51.6042 8.12354 7.32642 52.4167 7.32642 107.037C7.32642 161.657 51.6093 205.95 106.245 205.95C160.88 205.95 205.173 161.662 205.173 107.037C205.173 52.4115 160.891 8.12354 106.245 8.12354Z" fill="white"/>
<path d="M106.245 0.816895C47.7129 0.816895 0.260742 48.2691 0.260742 106.801C0.260742 165.333 47.7129 212.785 106.245 212.785C164.777 212.785 212.229 165.333 212.229 106.801C212.229 48.2691 164.802 0.816895 106.245 0.816895ZM97.0287 169.869L51.3481 143.496V90.2838L97.0287 114.993V169.869ZM105.17 102.444L51.1023 73.7718L105.17 42.5398L159.242 73.7718L105.17 102.444ZM159.288 143.593L113.766 169.879V115.177L159.288 90.6012V143.593Z" fill="#1CAAD9"/>
</g>
<defs>
<clipPath id="clip0_9_1019">
<rect width="1024" height="211.968" fill="white" transform="translate(0.260742 0.816406)"/>
</clipPath>
</defs>
</svg>
