<svg width="513" height="513" viewBox="0 0 513 513" fill="none" xmlns="http://www.w3.org/2000/svg">
<g clip-path="url(#clip0_795_4073)">
<path d="M256.554 512.575C397.939 512.575 512.554 397.96 512.554 256.575C512.554 115.19 397.939 0.574707 256.554 0.574707C115.169 0.574707 0.553955 115.19 0.553955 256.575C0.553955 397.96 115.169 512.575 256.554 512.575Z" fill="black"/>
<path d="M256.554 399.935C335.729 399.935 399.914 335.75 399.914 256.575C399.914 177.399 335.729 113.215 256.554 113.215C177.378 113.215 113.194 177.399 113.194 256.575C113.194 335.75 177.378 399.935 256.554 399.935Z" fill="#0085CA"/>
<path d="M256.554 497.215C123.862 497.215 15.9141 389.267 15.9141 256.575C15.9141 123.882 123.862 15.9346 256.554 15.9346C389.246 15.9346 497.194 123.882 497.194 256.575C497.194 389.267 389.246 497.215 256.554 497.215ZM492.074 256.575C492.074 126.73 386.398 21.0546 256.554 21.0546C126.71 21.0546 21.0341 126.73 21.0341 256.575C21.0341 386.419 126.71 492.095 256.554 492.095C386.398 492.095 492.074 386.419 492.074 256.575Z" fill="white"/>
<path d="M256.554 420.415C166.209 420.415 92.7139 346.92 92.7139 256.575C92.7139 166.23 166.209 92.7349 256.554 92.7349C346.899 92.7349 420.394 166.23 420.394 256.575C420.394 346.92 346.899 420.415 256.554 420.415ZM415.274 256.575C415.274 169.055 344.073 97.8549 256.554 97.8549C169.034 97.8549 97.8339 169.055 97.8339 256.575C97.8339 344.094 169.034 415.295 256.554 415.295C344.073 415.295 415.274 344.094 415.274 256.575Z" fill="white"/>
<path d="M322.325 329.133L319.263 337.934C319.077 338.474 318.78 338.969 318.389 339.386C317.999 339.803 317.525 340.133 316.998 340.354C311.635 342.567 293.242 348.882 258.42 348.882C223.149 348.882 201.931 341.948 195.918 339.668C195.364 339.46 194.863 339.131 194.452 338.705C194.041 338.278 193.73 337.766 193.543 337.204L190.592 328.594C190.511 328.366 190.495 328.121 190.544 327.884C190.594 327.647 190.707 327.429 190.872 327.252C191.037 327.076 191.248 326.948 191.481 326.883C191.713 326.818 191.96 326.818 192.192 326.883C213.173 332.558 234.82 335.392 256.554 335.308C278.197 335.386 299.762 332.729 320.738 327.399C320.973 327.335 321.22 327.337 321.453 327.404C321.687 327.472 321.897 327.602 322.061 327.782C322.225 327.961 322.336 328.182 322.383 328.42C322.429 328.658 322.409 328.905 322.325 329.133ZM256.554 325.068C291.346 325.068 318.075 317.616 325.327 315.381C325.934 315.192 326.487 314.862 326.942 314.419C327.398 313.975 327.742 313.43 327.946 312.828L364.266 207.581C364.108 207.08 363.849 206.617 363.505 206.219C363.161 205.822 362.74 205.5 362.266 205.272C361.42 204.861 360.45 204.784 359.55 205.058C358.65 205.331 357.886 205.935 357.412 206.747C349.356 220.381 341.255 224.579 338.585 225.929L338.496 225.973C337.679 226.401 337.025 227.085 336.635 227.921C336.244 228.757 336.139 229.697 336.334 230.599C336.334 230.599 336.334 230.68 336.334 230.717V230.82C336.482 231.469 336.681 232.421 336.858 233.638C336.976 234.693 337.094 235.999 337.205 237.452C337.461 240.538 337.357 243.642 336.895 246.704C329.311 251.388 319.064 255.918 310.941 253.004C304.508 250.673 299.565 240.521 297.794 219.444C299.851 215.44 302.598 211.831 305.91 208.783L305.983 208.717C306.66 208.088 307.113 207.256 307.273 206.346C307.433 205.437 307.291 204.5 306.869 203.678C306.851 203.642 306.836 203.605 306.824 203.567L306.773 203.471C306.47 202.889 306.035 201.996 305.541 200.889C305.157 199.908 304.707 198.676 304.228 197.296C302.855 192.87 301.675 186.297 302.331 177.045C302.428 176.105 302.189 175.16 301.655 174.379C301.122 173.599 300.329 173.032 299.417 172.781C298.471 172.556 297.475 172.705 296.636 173.197C295.798 173.689 295.182 174.486 294.917 175.422C290.675 190.73 283.939 196.942 281.726 199.03L281.652 199.097C280.974 199.724 280.521 200.557 280.361 201.467C280.201 202.377 280.344 203.314 280.767 204.135L280.811 204.246L280.863 204.342C281.165 204.925 281.601 205.818 282.095 206.924C282.479 207.905 282.929 209.137 283.408 210.517C284.174 213.02 284.72 215.584 285.039 218.182C274.26 238.242 266.373 245.243 256.554 245.302C246.734 245.243 238.848 238.242 228.055 218.16C228.373 215.562 228.919 212.997 229.685 210.495C230.165 209.115 230.615 207.883 230.998 206.902C231.485 205.773 231.928 204.903 232.23 204.32L232.282 204.224L232.326 204.113C232.75 203.292 232.892 202.355 232.732 201.445C232.572 200.535 232.119 199.702 231.441 199.074L231.367 199.008C229.154 196.957 222.418 190.745 218.176 175.4C217.914 174.462 217.3 173.661 216.461 173.166C215.622 172.671 214.624 172.52 213.676 172.744C212.764 172.996 211.971 173.562 211.438 174.343C210.904 175.123 210.665 176.068 210.762 177.008C211.426 186.26 210.238 192.848 208.866 197.26C208.386 198.632 207.936 199.871 207.552 200.852C207.066 201.981 206.623 202.852 206.32 203.435L206.269 203.53C206.257 203.569 206.242 203.606 206.225 203.641C205.802 204.463 205.66 205.4 205.82 206.309C205.98 207.219 206.433 208.052 207.11 208.68L207.184 208.746C210.493 211.796 213.24 215.405 215.299 219.407C213.543 240.521 208.6 250.673 202.152 253.004C194.037 255.918 183.782 251.388 176.198 246.704C175.735 243.642 175.633 240.537 175.896 237.452C175.999 235.977 176.117 234.693 176.235 233.638C176.412 232.421 176.611 231.469 176.759 230.82V230.717C176.759 230.68 176.759 230.636 176.759 230.599C176.954 229.697 176.849 228.757 176.459 227.921C176.068 227.085 175.414 226.401 174.597 225.973L174.509 225.929C171.845 224.549 163.737 220.351 155.681 206.747C155.207 205.935 154.443 205.331 153.543 205.058C152.643 204.784 151.673 204.861 150.827 205.272C150.354 205.5 149.932 205.822 149.588 206.219C149.244 206.617 148.986 207.08 148.827 207.581L184.874 312.105C185.076 312.694 185.411 313.229 185.854 313.666C186.297 314.104 186.835 314.433 187.427 314.629C194.686 317.004 221.784 325.068 256.554 325.068ZM204.978 288.918C206.71 288.918 208.403 289.432 209.843 290.394C211.283 291.356 212.405 292.724 213.068 294.324C213.731 295.924 213.904 297.685 213.567 299.383C213.229 301.082 212.395 302.643 211.17 303.867C209.945 305.092 208.385 305.926 206.686 306.264C204.987 306.602 203.227 306.428 201.627 305.766C200.026 305.103 198.659 303.98 197.696 302.54C196.734 301.1 196.221 299.407 196.221 297.675C196.217 296.522 196.44 295.38 196.879 294.314C197.317 293.247 197.961 292.278 198.775 291.461C199.588 290.644 200.555 289.996 201.619 289.553C202.684 289.11 203.825 288.882 204.978 288.881V288.918ZM308.13 288.918C309.863 288.924 311.554 289.443 312.991 290.411C314.428 291.378 315.546 292.75 316.203 294.353C316.86 295.956 317.027 297.717 316.683 299.415C316.339 301.113 315.499 302.67 314.269 303.891C313.04 305.111 311.476 305.939 309.776 306.27C308.075 306.602 306.315 306.421 304.717 305.752C303.119 305.083 301.756 303.955 300.799 302.51C299.843 301.066 299.336 299.37 299.344 297.638C299.345 296.486 299.573 295.345 300.015 294.281C300.457 293.217 301.105 292.251 301.921 291.438C302.737 290.624 303.706 289.98 304.771 289.541C305.837 289.102 306.978 288.878 308.13 288.881V288.918ZM239.357 292.983C241.089 292.981 242.783 293.494 244.224 294.455C245.665 295.417 246.789 296.784 247.453 298.384C248.117 299.984 248.291 301.745 247.954 303.444C247.617 305.143 246.784 306.704 245.559 307.93C244.335 309.155 242.774 309.99 241.075 310.328C239.377 310.667 237.615 310.494 236.015 309.831C234.414 309.169 233.046 308.046 232.084 306.606C231.121 305.166 230.607 303.472 230.607 301.74C230.604 300.588 230.828 299.447 231.266 298.382C231.705 297.316 232.348 296.348 233.161 295.531C233.973 294.714 234.939 294.066 236.002 293.622C237.065 293.179 238.205 292.949 239.357 292.946V292.983ZM273.744 292.983C275.476 292.983 277.169 293.497 278.609 294.459C280.049 295.421 281.171 296.789 281.834 298.389C282.497 299.989 282.67 301.75 282.332 303.448C281.995 305.147 281.161 306.708 279.936 307.932C278.711 309.157 277.151 309.991 275.452 310.329C273.753 310.667 271.993 310.493 270.392 309.831C268.792 309.168 267.425 308.045 266.462 306.605C265.5 305.165 264.986 303.472 264.986 301.74C264.983 300.587 265.206 299.445 265.644 298.379C266.083 297.312 266.727 296.343 267.54 295.526C268.354 294.709 269.321 294.061 270.385 293.618C271.449 293.175 272.591 292.947 273.744 292.946V292.983Z" fill="white"/>
<path d="M114.168 132.935C114.426 136.97 112.928 141.913 109.328 146.089C104.016 152.257 94.9493 152.271 88.0071 146.288C80.8657 140.135 79.7959 130.965 85.2405 124.635C87.9241 121.57 91.4127 119.319 95.3108 118.135L95.3699 117.981L89.3203 112.765C86.4073 114.548 83.8015 116.79 81.6034 119.404C72.7504 129.733 72.1897 143.868 83.0789 153.245C92.4115 161.287 105.211 160.881 113.747 150.98C116.952 147.436 119.168 143.11 120.173 138.438L114.323 132.839L114.168 132.935Z" fill="white"/>
<path d="M147.632 100.334L135.386 85.7482C131.948 81.6389 130.221 78.7174 128.746 74.918L120.004 82.2291C123.486 84.3391 126.053 86.5892 129.491 90.6985L133.408 95.3832L119.996 106.597L116.079 101.92C112.641 97.8104 110.878 94.8815 109.439 91.0821L100.697 98.3932C104.179 100.511 106.746 102.761 110.184 106.87L122.18 121.205C125.618 125.314 127.381 128.235 128.82 132.042L137.274 124.421C133.792 122.304 131.225 120.054 127.787 115.944L124.098 111.518L137.518 100.304L141.273 104.812C144.711 108.921 146.437 111.85 147.913 115.649L157.127 108.84C153.638 106.693 151.055 104.443 147.632 100.334Z" fill="white"/>
<path d="M226.749 61.8082C231.345 58.3113 233.455 54.0176 232.518 48.8459C231.293 42.0512 224.565 37.3296 213.182 39.3805L202.587 41.2913C204.587 44.8547 205.715 48.0786 206.667 53.3536L209.98 71.7457C210.931 77.0133 211.005 80.4291 210.371 84.4646L221.703 81.8456C219.703 78.2822 218.574 75.0656 217.623 69.7907L216.391 62.9148C221.208 67.9242 225.502 72.1072 229.419 75.4566C232.245 77.8322 234.672 79.2413 236.303 79.5438L243.629 78.806L243.592 78.5921C236.583 72.2769 231.618 67.6512 226.749 61.8082ZM216.251 62.1254L213.027 44.2276C218.663 43.2095 223.754 45.7769 224.72 51.1477C225.458 55.2127 222.758 59.2851 216.251 62.0959V62.1254Z" fill="white"/>
<path d="M262.316 73.177L263.326 47.7909C263.54 42.4422 264.212 39.0928 265.702 35.2934L254.09 34.8286C255.278 38.7387 255.676 42.125 255.462 47.4811L254.724 65.9249C254.51 71.2736 253.846 74.623 252.349 78.4667L275.02 79.256L279.321 69.8792L279.218 69.7685C275.462 71.4506 267.79 72.9704 262.316 73.177Z" fill="white"/>
<path d="M318.592 43.3644C305.983 39.6756 293.368 46.6179 289.878 58.599C286.669 69.6062 292.128 82.4726 305.806 86.4565C318.562 90.1453 331.17 83.8596 334.918 71.0006C338.666 58.1416 330.883 46.9794 318.592 43.3644ZM326.058 70.6612C323.763 78.533 316.71 83.3948 309.045 81.1594C299.786 78.4666 296.098 68.3447 298.761 59.1892C301.291 50.4985 308.684 46.7949 315.471 48.7721C324.213 51.2805 328.78 61.2623 326.058 70.6612Z" fill="white"/>
<path d="M374.513 78.8796L381.972 73.221L352.167 56.2158L345.328 62.804L345.372 62.9515C350.254 63.1236 355.018 64.5052 359.234 66.9722L346.929 88.5736C344.273 93.2288 342.185 95.9511 339.064 98.5775L349.164 104.332C349.902 100.326 351.119 97.1242 353.768 92.469L366.073 70.8676C370.242 73.3022 372.72 75.7589 374.513 78.8796Z" fill="white"/>
<path d="M409.468 107.947L417.982 103.986L392.404 81.1152L384.333 86.1098V86.2647C389.071 87.4586 393.437 89.8141 397.037 93.1185L380.496 111.533C376.926 115.524 374.314 117.708 370.699 119.648L379.36 127.402C380.939 123.639 382.791 120.762 386.361 116.778L402.939 98.3344C406.465 101.588 408.369 104.517 409.468 107.947Z" fill="white"/>
<path d="M194.797 79.2855L176.139 61.9925C173.259 59.4572 170.576 56.7074 168.112 53.7666L161.952 56.5848C162.509 60.4121 162.756 64.2783 162.69 68.1454V93.9667C162.69 99.4408 162.291 102.576 161.45 105.667L161.517 105.815L172.244 99.6622C171.981 99.253 171.747 98.8266 171.543 98.3859C170.849 96.8587 170.502 94.8815 170.377 91.7977L188.024 83.7341C190.363 86.0064 191.536 87.4229 192.237 88.9795C192.449 89.4198 192.603 89.8861 192.694 90.3665L204.232 86.117L204.166 85.9695C200.706 84.2555 197.543 81.9989 194.797 79.2855ZM183.081 78.9608L170.237 84.826L169.92 66.4338L183.081 78.9608Z" fill="white"/>
<path d="M425.957 113.554C423.684 116.94 421.316 119.405 417.045 122.629L402.371 133.732C398.092 136.963 395.082 138.564 391.194 139.826L408.988 163.95L418.579 161.449V161.294C413.592 158.424 408.988 154.226 404.023 147.454L401.611 144.141L412.382 136.026L414.854 139.294C417.62 143.227 419.767 147.129 420.365 149.704L429.07 148.693L416.897 132.632L427.447 124.643L429.977 127.889C432.918 131.736 434.832 136.267 435.54 141.058L444.46 139.088L425.957 113.554Z" fill="white"/>
<path d="M92.9279 367.673L101.161 362C102.976 364.626 104.422 367.732 104.614 369.82L110.686 369.082L100.394 354.15C98.5906 356.591 96.3552 358.682 93.7985 360.317L82.8724 367.843C80.4346 369.655 77.6835 371.003 74.7571 371.819L79.4344 378.614C81.2406 376.172 83.4784 374.082 86.0373 372.446L89.6375 369.967C91.5778 372.786 92.5885 374.962 92.7509 376.961L98.7267 376.12L92.9279 367.673Z" fill="white"/>
<path d="M125.035 384.552C118.535 377.876 108.317 377.743 101.973 383.925C96.1445 389.606 95.0158 399.462 102.076 406.707C108.657 413.465 118.653 413.967 125.463 407.342C132.272 400.717 131.38 391.067 125.035 384.552ZM120.129 403.985C115.961 408.05 109.904 408.588 105.949 404.523C101.176 399.625 102.43 392.085 107.277 387.363C111.881 382.87 117.739 383.166 121.243 386.766C125.751 391.391 125.087 399.16 120.129 403.985Z" fill="white"/>
<path d="M154.56 409.193C146.821 404.029 136.802 405.984 131.866 413.347C127.344 420.105 128.274 429.969 136.677 435.605C144.504 440.85 154.383 439.294 159.68 431.385C164.977 423.476 162.122 414.247 154.56 409.193ZM153.77 429.209C150.531 434.041 144.718 435.848 140.011 432.669C134.33 428.862 133.998 421.226 137.798 415.605C141.376 410.271 147.167 409.341 151.336 412.137C156.67 415.737 157.621 423.469 153.77 429.209Z" fill="white"/>
<path d="M173.402 421.093L169.086 426.258L169.123 426.353C172.584 426.098 176.054 426.703 179.223 428.117L172.044 444.701C170.956 447.538 169.339 450.141 167.279 452.374L174.848 455.657C175.083 452.625 175.873 449.661 177.179 446.915L184.358 430.337C186.968 431.367 189.242 433.098 190.931 435.339L195.778 430.758L173.402 421.093Z" fill="white"/>
<path d="M273.028 466.886L271.552 448.929C271.196 445.913 271.394 442.858 272.135 439.914L263.917 440.6C265.135 443.381 265.835 446.361 265.982 449.394L267.089 462.622C267.445 465.637 267.248 468.692 266.506 471.637L282.456 470.302L284.751 463.049L284.67 462.983C282.147 464.525 276.872 466.266 273.028 466.886Z" fill="white"/>
<path d="M302.022 462.599L298.038 445.019C297.266 442.082 297.036 439.03 297.359 436.011L289.318 437.833C290.908 440.418 292.016 443.27 292.586 446.251L295.537 459.198C296.308 462.135 296.535 465.188 296.208 468.206L311.819 464.665L313.088 457.17L312.992 457.11C310.712 458.992 305.733 461.441 302.022 462.599Z" fill="white"/>
<path d="M359.293 437.147C357.973 440.387 355.47 443.003 352.292 444.466C347.002 447.063 340.997 444.576 338.142 438.741C335.191 432.728 337.131 426.398 342.569 423.742C345.219 422.465 348.169 421.942 351.097 422.23L351.185 422.141L348.692 417.051C346.246 417.426 343.875 418.188 341.668 419.308C332.815 423.639 328.389 432.809 332.86 441.957C336.703 449.814 345.283 453.068 353.79 448.9C356.931 447.456 359.645 445.225 361.669 442.422L359.411 437.132L359.293 437.147Z" fill="white"/>
<path d="M385.225 420.26C383.853 422.864 380.194 427.04 377.206 429.526L366.789 414.822C364.95 412.406 363.57 409.673 362.717 406.759L355.981 411.503C358.446 413.275 360.565 415.485 362.23 418.024L369.902 428.847C371.739 431.265 373.119 433.998 373.975 436.911L387.04 427.659L385.329 420.282L385.225 420.26Z" fill="white"/>
<path d="M399.316 386.751C397.126 384.65 395.34 382.165 394.049 379.418L388.147 385.165C390.855 386.536 393.289 388.395 395.325 390.647L402.975 398.526C403.606 399.151 404.104 399.897 404.439 400.72C404.775 401.542 404.941 402.424 404.927 403.312C404.913 404.2 404.72 405.076 404.359 405.888C403.999 406.699 403.478 407.43 402.828 408.035C400.297 410.499 396.926 410.47 393.363 406.796L386.243 399.418C384.053 397.318 382.267 394.832 380.976 392.085L375.074 397.832C377.782 399.204 380.216 401.062 382.252 403.314L389.32 410.588C394.956 416.401 400.32 417.073 404.68 412.838C406.701 410.876 408.059 408.021 408.789 404.14C409.554 404.852 410.219 405.663 410.766 406.552L415.761 401.713C413.052 400.341 410.619 398.483 408.582 396.231L399.316 386.751Z" fill="white"/>
<path d="M213.027 435.494L202.558 432.646C202.758 435.677 202.397 438.718 201.496 441.618L198.013 454.432C197.315 457.39 196.082 460.195 194.376 462.71L204.911 465.58C210.968 467.225 216.974 465.152 218.368 460.054C219.253 456.786 218.088 454.1 215.1 451.039C217.903 450.146 219.961 448.383 220.633 445.926C221.88 441.448 218.929 437.095 213.027 435.494ZM212.783 458.564C211.979 461.515 208.615 463.307 204.21 462.112L201.887 461.478L205.066 449.866C211.64 451.673 213.691 455.318 212.805 458.564H212.783ZM215.122 444.701C214.443 447.195 210.695 448.39 205.841 447.07L208.445 437.479L210.762 438.113C213.882 438.954 215.882 441.898 215.122 444.701Z" fill="white"/>
<path d="M431.534 367.238C428.826 365.201 425.905 365.29 421.943 366.943C422.15 363.992 421.264 361.439 419.228 359.904C415.539 357.123 410.375 358.259 406.723 363.128L400.209 371.804C403.105 372.732 405.806 374.185 408.177 376.091L418.786 384.058C421.279 385.796 423.432 387.976 425.138 390.492L431.704 381.757C435.466 376.733 435.761 370.388 431.534 367.238ZM406.878 368.138L408.354 366.212C410.294 363.63 413.769 362.863 416.078 364.597C418.136 366.146 417.871 370.071 414.839 374.099L406.878 368.138ZM428.214 381.159L426.739 383.077L417.148 375.862C421.242 370.41 425.381 369.857 428.074 371.878C430.538 373.693 430.959 377.485 428.214 381.137V381.159Z" fill="white"/>
<path d="M247.199 448.066C246.264 445.499 245.524 442.865 244.986 440.186L240.095 439.81C239.104 442.381 237.903 444.866 236.502 447.239L227.782 462.784C226.494 465.287 224.852 467.59 222.905 469.623V469.733L231.397 470.39C231.375 470.046 231.375 469.701 231.397 469.357C231.5 468.029 232.075 466.509 233.322 464.193L233.492 463.876L246.875 464.901L246.948 465.13C247.841 467.874 248.151 469.35 248.048 470.67C248.028 471.016 247.963 471.359 247.856 471.688L256.465 472.352V472.242C254.867 469.993 253.641 467.502 252.836 464.864L247.199 448.066ZM235.823 459.456L241.585 448.641H241.814L245.429 460.165L235.823 459.456Z" fill="white"/>
<path d="M445.418 193.039C446.393 192.734 447.449 192.827 448.354 193.299C449.26 193.77 449.942 194.582 450.251 195.555C450.41 196.037 450.471 196.547 450.431 197.053C450.39 197.559 450.248 198.052 450.013 198.503C449.779 198.953 449.456 199.352 449.065 199.676C448.674 200 448.221 200.242 447.735 200.387C447.258 200.548 446.754 200.609 446.253 200.567C445.752 200.525 445.264 200.381 444.821 200.144C444.364 199.915 443.958 199.596 443.628 199.205C443.298 198.814 443.052 198.361 442.903 197.872C442.609 196.897 442.708 195.847 443.178 194.944C443.648 194.041 444.452 193.358 445.418 193.039Z" fill="#0085CA"/>
<path d="M444.681 211.225L453.423 217.976C455.245 219.4 456.212 219.724 457.444 219.451C458.816 219.178 459.561 217.976 459.229 216.279C458.934 214.803 457.813 213.837 456.448 214.11C456.023 214.203 455.621 214.381 455.267 214.634L453.475 209.964C454.121 209.541 454.842 209.246 455.599 209.093C456.413 208.938 457.252 208.967 458.053 209.181C458.854 209.394 459.596 209.785 460.225 210.325C461.773 211.644 462.79 213.479 463.088 215.49C464.017 220.204 462.284 223.457 458.897 224.129C456.433 224.623 454.471 223.863 451.616 221.701L446.983 218.212L448.569 226.246L444.6 227.035L441.597 211.852L444.681 211.225Z" fill="#0085CA"/>
<path d="M457.223 254.11C455.848 254.242 454.461 254.095 453.145 253.676C451.829 253.258 450.611 252.577 449.565 251.676C447.634 249.767 446.485 247.208 446.34 244.497C446.195 241.787 447.066 239.12 448.783 237.017C450.568 235.039 453.025 233.962 456.16 233.8C459.296 233.638 461.87 234.449 463.848 236.235C465.772 238.15 466.914 240.714 467.05 243.425C467.187 246.137 466.308 248.802 464.585 250.901C463.637 251.904 462.496 252.705 461.231 253.256C459.966 253.807 458.603 254.098 457.223 254.11ZM450.583 244.269C450.591 244.972 450.761 245.664 451.08 246.291C451.398 246.917 451.857 247.463 452.42 247.884C453.739 248.795 455.341 249.204 456.935 249.035C458.555 249.039 460.125 248.466 461.361 247.419C461.869 246.938 462.262 246.348 462.51 245.694C462.757 245.04 462.854 244.338 462.793 243.642C462.787 242.945 462.621 242.26 462.307 241.638C461.994 241.016 461.541 240.475 460.985 240.056C459.675 239.136 458.079 238.715 456.485 238.868C454.877 238.866 453.324 239.451 452.117 240.514C451.592 240.979 451.184 241.561 450.925 242.214C450.666 242.866 450.564 243.57 450.627 244.269H450.583Z" fill="#0085CA"/>
<path d="M449.845 262.897L456.485 271.706C457.872 273.572 458.698 274.133 459.967 274.222C461.361 274.318 462.402 273.358 462.52 271.64C462.63 270.164 461.782 268.91 460.41 268.814C459.975 268.786 459.54 268.852 459.133 269.006L458.698 264.026C459.431 263.79 460.202 263.697 460.97 263.753C461.797 263.816 462.599 264.064 463.317 264.479C464.034 264.894 464.65 265.466 465.117 266.151C466.265 267.838 466.761 269.886 466.511 271.912C466.172 276.708 463.641 279.386 460.203 279.142C457.702 278.965 455.991 277.704 453.814 274.878L450.288 270.223L449.712 278.39L445.677 278.102L446.761 262.668L449.845 262.897Z" fill="#0085CA"/>
<path d="M447.44 287.848L452.929 297.439C454.058 299.46 454.825 300.124 456.057 300.39C457.422 300.663 458.58 299.844 458.919 298.177C459.215 296.701 458.551 295.381 457.186 295.1C456.76 295.009 456.32 295.009 455.895 295.1L456.035 290.098C456.793 289.955 457.571 289.955 458.329 290.098C459.144 290.273 459.908 290.629 460.566 291.14C461.224 291.651 461.758 292.304 462.129 293.049C463.05 294.874 463.278 296.971 462.771 298.951C461.826 303.666 458.971 305.997 455.592 305.311C453.135 304.817 451.601 303.348 449.808 300.265L446.894 295.167L445.278 303.193L441.309 302.397L444.364 287.229L447.44 287.848Z" fill="#0085CA"/>
<path d="M447.484 313.721C448.455 314.034 449.263 314.719 449.73 315.626C450.198 316.533 450.287 317.588 449.978 318.561C449.83 319.047 449.586 319.498 449.26 319.888C448.934 320.279 448.533 320.599 448.081 320.832C447.63 321.064 447.135 321.204 446.629 321.242C446.122 321.28 445.612 321.216 445.131 321.054C444.16 320.741 443.353 320.056 442.887 319.149C442.421 318.241 442.334 317.186 442.645 316.215C442.791 315.732 443.036 315.286 443.365 314.905C443.694 314.524 444.1 314.216 444.555 314.001C444.997 313.753 445.486 313.6 445.99 313.552C446.495 313.503 447.003 313.561 447.484 313.721Z" fill="#0085CA"/>
<path d="M75.871 316.916L56.623 322.146L55.3172 317.329L67.859 307.812L52.1965 305.938L50.8833 301.12L70.1534 295.89L71.3338 300.235L60.7913 303.097L63.9341 303.252L72.4626 304.396L73.5544 308.417L66.7745 313.714L64.1407 315.433L74.6832 312.57L75.871 316.916Z" fill="#0085CA"/>
<path d="M69.1649 288.903L49.4448 292.053L48.707 287.487L68.4272 284.336L69.1649 288.903Z" fill="#0085CA"/>
<path d="M67.3057 277.188L47.3864 278.434L47.0987 273.823L57.951 265.826C58.4223 265.48 58.9152 265.165 59.4265 264.882L46.5601 265.679L46.2798 261.186L66.1991 259.939L66.4868 264.55L55.5902 272.547C55.1046 272.897 54.5969 273.215 54.0704 273.499L67.0254 272.695L67.3057 277.188Z" fill="#0085CA"/>
<path d="M50.3522 253.624L46.3093 253.403L47.1873 237.01L51.2301 237.224L50.9129 243.126L66.7967 243.974L66.5533 248.585L50.6694 247.722L50.3522 253.624Z" fill="#0085CA"/>
<path d="M67.7632 232.627L48.0652 229.374L50.4407 214.995L54.432 215.652L52.8163 225.471L56.387 226.061L57.8625 217.031L61.7431 217.673L60.2676 226.703L64.5171 227.404L66.1549 217.474L70.1535 218.138L67.7632 232.627Z" fill="#0085CA"/>
<path d="M71.4299 212.214L52.2483 206.702L54.0263 200.505C54.9411 197.304 56.5051 194.957 58.6889 193.452C60.8726 191.947 63.5654 191.674 66.6861 192.567C69.8068 193.46 71.9168 195.135 72.9718 197.547C74.0267 199.959 74.1374 202.807 73.2152 206.016L71.4299 212.214ZM69.3199 204.452C70.3675 200.808 68.9436 198.027 65.4024 197.008C61.8612 195.99 59.1832 197.599 58.1356 201.243L57.5158 203.412L68.7002 206.621L69.3199 204.452Z" fill="#0085CA"/>
</g>
<defs>
<clipPath id="clip0_795_4073">
<rect width="512" height="512" fill="white" transform="translate(0.553955 0.574707)"/>
</clipPath>
</defs>
</svg>
