<svg width="662" height="512" viewBox="0 0 662 512" fill="none" xmlns="http://www.w3.org/2000/svg">
<g clip-path="url(#clip0_736_213)">
<path d="M14.1657 373.264C-10.6085 389.781 -2.35041 421.161 50.5012 436.026C105.004 454.194 164.462 459.148 222.269 449.239C225.572 449.239 228.875 447.587 230.527 447.587V391.432L174.372 409.6C152.901 416.206 131.43 417.858 109.959 412.903C93.4431 407.948 96.7464 398.039 116.566 389.781L230.527 350.142V289.032L71.9722 343.535C52.1528 350.142 32.3335 360.052 14.1657 373.264ZM397.34 125.523V285.729C465.056 318.761 517.908 285.729 517.908 199.845C517.908 112.31 486.527 72.671 395.688 41.2903C347.792 24.7742 298.243 9.90968 248.695 0V477.316L364.308 512V110.658C364.308 92.4903 364.308 79.2774 377.521 84.2323C395.688 89.1871 397.34 107.355 397.34 125.523ZM612.05 335.277C564.153 318.761 512.953 312.155 463.404 317.11C436.979 318.761 412.204 325.368 389.082 333.626L384.127 335.277V399.69L491.482 360.052C512.953 353.445 534.424 351.794 555.895 356.748C572.411 361.703 569.108 371.613 549.288 379.871L384.127 440.981V503.742L612.05 419.51C628.566 412.903 643.43 404.645 656.643 391.432C668.204 374.916 663.25 351.794 612.05 335.277Z" fill="#0070D1"/>
</g>
<defs>
<clipPath id="clip0_736_213">
<rect width="661.031" height="512" fill="white" transform="translate(0.786743)"/>
</clipPath>
</defs>
</svg>
