<svg width="417" height="512" viewBox="0 0 417 512" fill="none" xmlns="http://www.w3.org/2000/svg">
<g clip-path="url(#clip0_743_418)">
<path d="M354.369 117.361C355.605 53.0781 302.562 3.73096 229.627 3.73096H78.7898C75.2738 3.73209 71.8736 4.98813 69.2012 7.27303C66.5287 9.55793 64.7596 12.7216 64.2121 16.1948L3.76412 393.876C3.49371 395.588 3.5974 397.337 4.06804 399.005C4.53868 400.672 5.36509 402.218 6.49037 403.535C7.61565 404.852 9.01306 405.91 10.5864 406.636C12.1597 407.361 13.8716 407.737 15.6042 407.738H104.977L90.9996 495.204C90.729 496.917 90.833 498.667 91.3043 500.335C91.7756 502.004 92.603 503.55 93.7296 504.867C94.8561 506.185 96.255 507.243 97.8297 507.968C99.4045 508.692 101.118 509.067 102.851 509.066H175.648C179.171 509.066 182.301 507.795 184.969 505.52C187.638 503.232 188.077 500.079 188.62 496.602L209.99 370.866C210.532 367.401 212.3 362.896 214.98 360.608C217.648 358.321 219.981 357.074 223.493 357.062H268.058C339.48 357.062 400.089 306.306 411.167 235.693C418.999 185.56 397.502 139.967 354.369 117.361Z" fill="#001C64"/>
<path d="M124.314 268.452L102.054 409.609L88.0771 498.139C87.8065 499.851 87.9105 501.601 88.3818 503.27C88.8531 504.938 89.6806 506.484 90.8071 507.802C91.9337 509.119 93.3325 510.177 94.9073 510.902C96.482 511.627 98.1952 512.001 99.9287 512H176.976C180.49 511.996 183.887 510.739 186.557 508.454C189.227 506.17 190.995 503.007 191.542 499.536L211.849 370.855C212.397 367.385 214.165 364.224 216.835 361.941C219.505 359.658 222.903 358.403 226.416 358.402H271.777C343.199 358.402 403.797 306.306 414.875 235.693C422.73 185.572 397.502 139.979 354.369 117.361C354.254 122.698 353.792 128.023 352.972 133.302C341.894 203.904 281.284 256.012 209.862 256.012H138.88C135.368 256.012 131.973 257.265 129.302 259.546C126.632 261.826 124.863 264.984 124.314 268.452Z" fill="#0070E0"/>
<path d="M102.043 409.609H12.4045C10.6713 409.611 8.95848 409.236 7.38418 408.511C5.80987 407.786 4.41162 406.728 3.28594 405.411C2.16027 404.093 1.33397 402.546 0.864111 400.878C0.394248 399.21 0.292003 397.459 0.564433 395.748L61.0009 12.4523C61.5486 8.98025 63.3182 5.81791 65.9909 3.53491C68.6635 1.25192 72.0636 -0.00165197 75.5786 1.63388e-06H229.638C302.562 1.63388e-06 355.605 53.0782 354.369 117.361C336.222 107.843 314.899 102.402 291.53 102.402H163.091C159.579 102.406 156.183 103.661 153.513 105.944C150.843 108.226 149.075 111.386 148.525 114.855L124.325 268.452L102.043 409.609Z" fill="#003087"/>
</g>
<defs>
<clipPath id="clip0_743_418">
<rect width="415.885" height="512" fill="white" transform="translate(0.415527)"/>
</clipPath>
</defs>
</svg>
