<svg width="540" height="513" viewBox="0 0 540 513" fill="none" xmlns="http://www.w3.org/2000/svg">
<g clip-path="url(#clip0_879_3776)">
<path d="M505.976 109.873C433.347 64.0007 266.984 28.9143 142.892 0.0507812L0.214844 153.49L122.685 150.872C61.7034 249.444 74.1303 481.237 228.338 512.051C220.398 496.825 206.614 468.853 224.483 434.224C237.21 409.593 307.96 274.186 307.96 274.186H324.895C347.83 274.186 355.379 282.812 345.207 294.974C406.341 294.194 443.88 271.066 460.726 246.353C447.902 222.877 407.107 195.24 390.566 184.038H476.103C500.631 184.038 506.163 194.32 500.387 205.514C540.417 197.641 560.881 144.55 505.974 109.873" fill="#A5ACAF"/>
<path d="M496.206 114.551C397.281 59.0367 152.333 22.0352 152.333 22.0352L47.4043 134.49H156.194C75.8699 240.678 93.6687 455.032 211.791 499.595C203.412 479.664 199.168 456.529 214.268 427.094C231.309 393.9 258.431 338.101 297.286 263.61H328.994C355.31 263.61 363.721 274.742 360.153 283.334C381.793 283.334 421.357 281.211 450.067 246.352C426.151 212.922 347.072 173.942 347.072 173.942H482.735C502.67 173.942 512.634 181.036 509.879 193.052C544.538 176.12 535.527 136.613 496.206 114.551Z" fill="#FFFFFE"/>
<path d="M335.639 177.59C335.639 177.59 423.075 220.391 440.074 246.352C431.119 258.271 417.426 266.618 399.091 270.81C410.809 261.809 413.029 253.154 405.827 253.154H379.907C375.482 257.512 373.123 265.385 379.059 273.322C369.04 271.129 359.388 262.879 358.644 253.154H303.765C311.093 238.486 332.238 196.561 338.138 185.012L335.64 177.59H335.639ZM492.094 122.008C530.378 143.026 527.852 171.98 516.531 181.538C516.733 171.2 506.58 163.507 488.266 163.507H309.392L328.618 173.811C328.618 173.811 213.495 403.162 204.659 421.261C194.459 442.174 191.661 465.656 200.449 485.219C177.675 470.773 159.793 447.529 147.206 419.194L136.984 418.498L245.573 259.079C245.344 258.055 245.141 257.018 244.961 255.988L135.327 385.297C129.713 364.439 126.477 341.959 125.781 318.902L113.361 315.79L248.044 209.463C248.378 208.335 248.733 207.215 249.094 206.094L126.964 280.257C128.808 259.803 132.656 239.357 138.591 219.62L125.955 212.464L269.697 164.532C270.338 163.55 270.992 162.577 271.646 161.615L150.991 186.281C157.504 171.759 165.277 157.885 174.398 145.04L163.223 134.493H307.515C307.918 133.685 308.314 132.892 308.711 132.112L93.8779 115.676L154.963 49.8794L145.409 37.7168C145.409 37.7168 408.9 76.3476 492.092 122.011L492.094 122.008Z" fill="black"/>
<path d="M501.549 138.508L503.846 148.671C488.191 151.616 460.49 153.962 452.662 154.596C452.279 155.376 451.882 156.155 451.479 156.956H492.713C509.071 156.956 515.96 164.718 517.414 169.181C519.557 163.076 517.581 146.701 501.549 138.508ZM455.695 118.416C464.838 121.465 485.414 132.952 493.206 141.94H478.421C472.59 132.347 455.695 118.416 455.695 118.416Z" fill="#FFFFFE"/>
<path d="M146.419 245.446L234.294 197.438C234.767 196.247 235.261 195.049 235.776 193.86L151.207 224.262C149.328 231.238 147.736 238.318 146.419 245.448V245.446ZM185.712 150.229C181.836 155.542 178.239 161.069 174.893 166.778L260.847 151.414C261.598 150.425 262.364 149.436 263.129 148.469L185.712 150.229ZM240.243 308.381C239.672 307.357 239.115 306.32 238.573 305.289L167.217 412.94C170.961 420.034 175.101 426.668 179.603 432.76L240.243 308.381ZM144.93 342.542L224.253 254.009C224.191 252.743 224.149 251.482 224.12 250.222L142.362 319.757C142.913 327.463 143.781 335.079 144.93 342.543V342.542ZM391.938 241.191L329.663 231.89L323.344 244.13H390.469L391.938 241.191ZM434.953 129.788L149.835 90.3147L167.28 71.4141C263.316 86.2632 378.174 109.739 436.491 126.732C435.997 127.728 435.475 128.751 434.953 129.788Z" fill="#A71930"/>
</g>
<defs>
<clipPath id="clip0_879_3776">
<rect width="539.221" height="512" fill="white" transform="translate(0.214844 0.0507812)"/>
</clipPath>
</defs>
</svg>
