<svg width="513" height="512" viewBox="0 0 513 512" fill="none" xmlns="http://www.w3.org/2000/svg">
<g clip-path="url(#clip0_746_177)">
<path d="M256.942 383.972C327.634 383.972 384.942 326.665 384.942 255.972C384.942 185.28 327.634 127.972 256.942 127.972C186.249 127.972 128.942 185.28 128.942 255.972C128.942 326.665 186.249 383.972 256.942 383.972Z" fill="white"/>
<path d="M146.091 320.001L35.2573 128.032C12.784 166.944 0.951746 211.087 0.950195 256.023C0.948645 300.959 12.7779 345.103 35.2484 384.016C57.7191 422.93 90.039 455.242 128.958 477.703C167.878 500.164 212.024 511.982 256.96 511.97L367.793 320.001V319.968C356.568 339.435 340.414 355.603 320.956 366.845C301.498 378.087 279.424 384.007 256.952 384.011C234.48 384.014 212.403 378.101 192.942 366.863C173.482 355.627 157.322 339.464 146.091 320.001Z" fill="url(#paint0_linear_746_177)"/>
<path d="M367.785 319.993L256.953 511.962C301.888 511.968 346.033 500.143 384.949 477.676C423.865 455.21 456.181 422.894 478.646 383.977C501.111 345.06 512.934 300.914 512.927 255.978C512.918 211.042 501.08 166.901 478.601 127.992H256.934L256.906 128.009C279.378 127.998 301.457 133.904 320.922 145.133C340.387 156.363 356.551 172.52 367.79 191.98C379.029 211.439 384.945 233.515 384.945 255.986C384.944 278.458 379.025 300.533 367.785 319.993Z" fill="url(#paint1_linear_746_177)"/>
<path d="M256.942 357.334C312.907 357.334 358.276 311.965 358.276 256C358.276 200.035 312.907 154.666 256.942 154.666C200.977 154.666 155.609 200.035 155.609 256C155.609 311.965 200.977 357.334 256.942 357.334Z" fill="#1A73E8"/>
<path d="M256.943 128H478.61C456.147 89.0815 423.834 56.7627 384.919 34.2935C346.005 11.8244 301.86 -0.00318863 256.924 6.4481e-07C211.988 0.00318992 167.846 11.837 128.935 34.3117C90.0228 56.7863 57.7147 89.1099 35.2578 128.031L146.091 320L146.119 320.015C134.874 300.559 128.949 278.487 128.942 256.015C128.935 233.543 134.846 211.465 146.079 192.002C157.311 172.54 173.471 156.378 192.932 145.143C212.394 133.908 234.471 127.995 256.943 128Z" fill="url(#paint2_linear_746_177)"/>
</g>
<defs>
<linearGradient id="paint0_linear_746_177" x1="284.653" y1="495.982" x2="62.9773" y2="112.028" gradientUnits="userSpaceOnUse">
<stop stop-color="#1E8E3E"/>
<stop offset="1" stop-color="#34A853"/>
</linearGradient>
<linearGradient id="paint1_linear_746_177" x1="219.601" y1="512.64" x2="441.277" y2="128.687" gradientUnits="userSpaceOnUse">
<stop stop-color="#FCC934"/>
<stop offset="1" stop-color="#FBBC04"/>
</linearGradient>
<linearGradient id="paint2_linear_746_177" x1="35.2579" y1="160.007" x2="478.61" y2="160.007" gradientUnits="userSpaceOnUse">
<stop stop-color="#D93025"/>
<stop offset="1" stop-color="#EA4335"/>
</linearGradient>
<clipPath id="clip0_746_177">
<rect width="512" height="512" fill="white" transform="translate(0.950195)"/>
</clipPath>
</defs>
</svg>
