<svg width="513" height="513" viewBox="0 0 513 513" fill="none" xmlns="http://www.w3.org/2000/svg">
<g clip-path="url(#clip0_2_15208)">
<path fill-rule="evenodd" clip-rule="evenodd" d="M0.602539 0.816406H512.553V512.741H0.602539V0.816406Z" fill="white"/>
<path fill-rule="evenodd" clip-rule="evenodd" d="M0.618856 0.82224C107.709 0.82224 214.744 0.82224 321.832 0.82224C347.69 0.82224 373.55 0.767953 399.354 0.874266C392.204 8.1307 384.89 15.3351 377.69 22.5938C380.536 25.6022 383.547 28.3981 386.397 31.3545C392.957 26.8395 400.374 23.2385 408.439 22.6458C415.696 21.8926 423.009 23.7745 429.673 26.6789C432.2 27.7533 434.566 29.4725 437.414 29.7417C440.21 29.581 442.307 27.1087 443.275 24.6341C444.08 22.9173 443.327 20.8725 441.985 19.6351C435.749 13.3469 429.458 7.16483 423.276 0.874266C453.059 0.713665 482.841 0.874266 512.572 0.82224C512.572 29.8502 512.624 58.9325 512.572 88.0152C506.444 81.996 500.474 75.8657 494.398 69.8465C492.785 68.1773 490.155 67.3177 487.949 68.3401C486.497 69.039 485.099 70.1677 484.454 71.7263C483.647 74.8456 485.047 77.9083 486.282 80.7018C490.046 88.6592 491.713 97.6376 490.584 106.4C489.831 112.367 487.68 118.226 484.454 123.334C483.595 124.569 482.789 125.858 482.036 127.151C485.153 129.837 487.788 133.062 490.96 135.698C498.056 128.386 505.367 121.237 512.572 113.978C512.572 162.52 512.624 211.064 512.572 259.606C511.172 260.09 509.613 261.058 508.161 260.358C506.227 259.122 504.775 257.294 503.162 255.736C485.744 238.425 468.486 220.954 451.016 203.699C444.08 210.634 437.256 217.622 430.209 224.396C433.921 228.588 438.061 232.298 441.932 236.328C455.908 250.307 469.884 264.284 483.918 278.258C485.099 279.496 486.497 280.573 487.141 282.186C487.356 283.959 486.121 285.463 485.637 287.076C484.938 288.958 486.445 291.215 488.433 291.267C490.207 291.593 491.713 290.408 492.842 289.227C499.4 282.613 506.012 276.055 512.572 269.496C512.572 350.563 512.572 431.682 512.572 512.747C431.503 512.747 350.377 512.747 269.254 512.747C275.491 506.513 281.728 500.329 287.964 494.092C266.73 472.914 245.548 451.732 224.365 430.499C217.432 437.165 210.765 444.1 203.884 450.818C202.432 452.325 200.819 453.774 200.122 455.818C199.799 457.806 201.627 459.687 203.56 459.796C205.282 459.582 206.732 458.45 208.453 458.074C209.958 457.97 211.143 459.151 212.216 460.119C224.797 472.805 237.431 485.386 250.065 498.019C253.234 501.349 256.677 504.359 259.631 507.802C260.977 509.306 260.064 511.24 259.31 512.747C210.765 512.747 162.273 512.747 113.785 512.747C125.233 501.297 136.686 489.846 148.135 478.396C150.284 476.354 152.489 473.99 152.811 470.871C153.295 467.27 149.641 463.666 146.038 464.42C143.027 465.01 140.556 467.376 137.437 467.376C135.449 467.215 133.942 465.763 132.599 464.474C105.234 437.165 77.926 409.804 50.6157 382.493C48.7879 380.667 46.5846 378.894 45.9377 376.257C45.8314 373.142 48.0346 370.613 48.8422 367.765C49.8624 364.164 46.4761 360.238 42.8182 360.509C40.2938 360.67 38.0362 362.119 36.317 363.895C24.4885 375.883 12.4474 387.709 0.618856 399.698C0.564565 266.754 0.618856 133.763 0.618856 0.82224Z" fill="#F96302"/>
<path fill-rule="evenodd" clip-rule="evenodd" d="M369.893 30.3347C370.377 29.7986 371.236 29.3122 371.721 30.1198C409.19 67.533 446.662 105.003 484.079 142.47C470.961 155.587 457.791 168.757 444.673 181.928C442.952 183.541 440.855 184.885 438.491 185.045C435.211 185.317 431.931 182.358 432.2 179.024C432.309 175.746 435.103 173.22 435.157 169.885C435.265 167.789 433.652 166.233 432.309 164.777C404.515 137.041 376.774 109.251 348.98 81.4558C347.421 79.9512 345.702 78.0693 343.336 78.2321C339.841 78.2842 337.208 81.5094 333.661 81.1342C331.616 81.1862 329.949 79.5734 328.929 77.9086C327.531 75.0066 328.82 71.5118 330.919 69.3629C343.928 56.352 356.938 43.3434 369.893 30.3347Z" fill="white"/>
<path fill-rule="evenodd" clip-rule="evenodd" d="M423.869 41.2464C424.943 39.2582 426.985 37.4305 429.403 37.7517C432.089 37.9688 434.025 40.1697 435.798 41.9454C446.549 52.7508 457.299 63.5021 468.048 74.2533C470.09 76.2438 472.508 78.1778 472.992 81.1342C473.261 84.1966 470.465 86.9382 467.509 87.2622C465.037 87.3166 462.781 85.9726 460.633 84.7894C456.061 82.1022 450.903 79.9512 445.473 80.2204C442.678 80.1661 439.993 81.295 437.465 82.4238C434.509 79.2523 431.124 76.4044 428.329 73.1245C429.188 70.7065 430.317 68.3948 430.479 65.8116C430.857 59.9553 428.491 54.3636 425.533 49.471C424.029 47.0529 422.846 44.04 423.869 41.2464Z" fill="white"/>
<path fill-rule="evenodd" clip-rule="evenodd" d="M186.946 69.7329C192.753 63.6052 198.88 57.853 204.683 51.7773C210.219 57.1518 215.593 62.5828 221.022 68.0116C222.796 69.7329 221.183 72.635 219.195 73.334C217.529 73.5489 216.077 72.4201 214.573 71.8818C208.769 69.034 201.567 68.7128 195.764 71.8297C194.257 72.4745 193.021 73.7637 191.408 74.0329C189.795 72.7436 188.452 71.1309 186.946 69.7329Z" fill="white"/>
<path fill-rule="evenodd" clip-rule="evenodd" d="M183.298 73.1758C191.2 80.8103 198.834 88.7135 206.629 96.3999C218.833 108.549 230.981 120.806 243.239 132.955C236.249 140.051 229.207 147.041 222.165 154.028C220.713 155.638 217.811 156.34 216.413 154.349C214.693 152.521 216.573 150.264 217.112 148.382C217.757 146.984 216.63 145.749 215.714 144.783C201.63 130.75 187.596 116.719 173.567 102.636C172.277 101.453 171.201 100.003 169.642 99.1951C167.493 98.7111 165.825 100.648 163.729 100.756C162.116 100.593 160.612 98.9831 160.826 97.3135C160.933 96.0239 161.686 94.8951 162.6 93.9815C169.481 87.0463 176.471 80.2195 183.298 73.1758Z" fill="white"/>
<path fill-rule="evenodd" clip-rule="evenodd" d="M211.346 81.7779C210.649 80.0045 211.885 77.8556 213.766 77.5864C215.164 77.3715 216.293 78.4437 217.261 79.3598C223.063 85.1643 228.866 91.0251 234.726 96.7771C235.746 97.9059 237.198 98.9259 237.306 100.593C237.521 102.26 235.909 103.873 234.19 103.71C231.931 103.71 230.212 101.936 228.17 101.184C225.16 99.7875 221.505 99.6795 218.549 101.292C216.991 99.7331 215.431 98.1203 213.818 96.6683C214.519 94.3027 215.164 91.7779 214.571 89.3035C214.141 86.5099 212.205 84.3587 211.346 81.7779Z" fill="white"/>
<path fill-rule="evenodd" clip-rule="evenodd" d="M314.292 85.971C315.745 84.519 317.57 83.4446 319.615 83.1758C323.213 82.6398 326.978 86.1318 326.281 89.787C325.797 93.0126 323.109 95.5918 323.322 98.9822C323.861 101.344 325.797 102.957 327.353 104.626C354.826 132.041 382.297 159.402 409.66 186.872C411.166 188.217 412.671 189.991 414.822 189.991C418.048 189.991 420.52 187.573 423.585 187.032C427.132 186.444 430.627 189.937 430.195 193.485C429.982 195.904 428.53 198.001 426.865 199.665C413.046 213.427 399.284 227.297 385.469 241.06C383.696 242.833 381.438 244.445 378.805 244.445C375.898 244.606 373.105 242.137 372.729 239.286C372.351 235.522 375.846 232.726 375.737 228.962C375.577 227.189 374.341 225.739 373.158 224.448C349.02 200.366 324.935 176.229 300.799 152.145C320.744 189.183 340.849 226.117 360.794 263.154C361.115 263.691 361.385 264.283 361.653 264.928C360.204 266.269 358.805 267.721 357.408 269.173C317.464 249.501 277.573 229.607 237.684 209.881C231.395 206.764 225.159 203.108 218.062 202.249C215.697 201.923 214.084 203.861 212.365 205.097C210.589 206.494 208.222 207.353 206.021 206.655C203.386 205.474 201.558 202.355 202.365 199.505C202.902 197.571 204.245 195.958 205.644 194.557C218.546 181.712 231.395 168.812 244.298 156.016C264.401 165.853 284.561 175.476 304.723 185.315C305.368 185.797 306.065 186.281 306.657 186.926C306.981 186.548 307.25 186.173 307.571 185.797L306.818 185.904C296.229 165.745 285.102 145.855 274.509 125.697C287.841 112.473 301.013 99.195 314.292 85.971Z" fill="white"/>
<path fill-rule="evenodd" clip-rule="evenodd" d="M243.719 95.0514C244.687 93.2778 247.428 93.0634 248.717 94.5674C254.145 100.051 259.683 105.534 265.163 111.019C259.036 117.199 252.908 123.328 246.677 129.456C245.28 127.843 243.396 126.554 242.321 124.672C244.095 121.662 245.976 118.596 246.46 115.05C247.374 110.157 246.568 104.998 244.472 100.483C243.88 98.761 242.591 96.773 243.719 95.0514Z" fill="white"/>
<path fill-rule="evenodd" clip-rule="evenodd" d="M153.447 103.119C154.521 101.991 155.705 100.808 157.263 100.432C158.824 100.111 160.758 101.077 160.973 102.796C161.351 104.679 159.953 106.239 159.577 108.064C159.36 109.516 160.543 110.539 161.403 111.507C175.758 125.857 190.057 140.211 204.412 154.51C205.38 155.426 206.401 156.555 207.798 156.875C209.517 156.715 210.968 155.587 212.637 155.211C214.68 154.994 216.56 157.199 215.915 159.133C215.648 160.585 214.519 161.662 213.551 162.682C206.561 169.671 199.571 176.659 192.584 183.595C191.349 184.831 189.736 186.121 187.905 185.691C186.885 185.259 186.025 184.454 185.648 183.434C185.112 181.067 187.638 179.131 187.046 176.765C186.509 175.854 185.757 175.152 185.057 174.402C178.5 167.896 171.994 161.284 165.381 154.781C163.07 157.145 160.758 159.457 158.392 161.768C156.779 160.21 155.166 158.649 153.662 156.984C156.025 154.672 158.34 152.309 160.706 149.995C154.897 144.299 149.145 138.491 143.394 132.738C142.157 131.557 141.082 130.268 139.63 129.408C136.997 128.547 134.47 132.256 131.944 130.214C129.898 128.763 130.545 125.857 132.213 124.353C139.254 117.203 146.403 110.215 153.447 103.119Z" fill="white"/>
<path fill-rule="evenodd" clip-rule="evenodd" d="M125.937 131.021C127.552 129.997 129.969 130.644 130.721 132.471C131.474 134.674 129.485 136.557 129.431 138.708C129.377 139.837 130.291 140.641 130.989 141.395C145.881 156.288 160.721 171.176 175.612 186.013C178.297 188.914 181.74 183.916 184.642 186.067C186.525 187.573 185.88 190.527 184.267 191.925C177.277 198.969 170.235 205.902 163.299 212.944C162.17 214.021 161.041 215.309 159.483 215.793C157.761 216.277 155.665 215.201 155.452 213.376C155.129 211.227 157.065 209.557 156.957 207.461C156.685 206.547 156.097 205.796 155.452 205.097C141.366 191.068 127.28 176.983 113.248 162.897C111.907 161.662 110.778 160.101 109.002 159.457C107.068 159.35 105.455 160.803 103.573 161.015C101.961 161.069 100.562 159.617 100.508 158.061C100.348 156.392 101.53 155.05 102.659 153.921C109.647 146.933 116.634 139.943 123.573 132.956C124.324 132.257 125.022 131.557 125.937 131.021Z" fill="white"/>
<path fill-rule="evenodd" clip-rule="evenodd" d="M87.0628 169.457C90.2876 166.338 93.4044 163.113 96.6292 159.941C102.274 165.427 107.808 171.122 113.453 176.66C114.42 177.734 115.601 178.702 116.137 180.101C116.784 182.736 113.776 185.637 111.141 184.454C108.507 183.272 106.412 181.175 103.884 179.777C99.6396 177.144 94.6932 175.477 89.6436 176.069C88.1916 174.565 86.5788 173.165 85.29 171.554C85.7172 170.693 86.4188 170.102 87.0628 169.457Z" fill="white"/>
<path fill-rule="evenodd" clip-rule="evenodd" d="M63.6295 192.898C69.6512 186.985 75.5643 181.018 81.5314 175.051C92.8218 186.395 104.164 197.736 115.506 209.026C121.743 215.206 127.819 221.499 134.107 227.572C135.883 229.56 138.247 227.896 140.183 227.194C142.117 226.335 144.377 228.056 144.323 230.096C144.323 231.494 143.515 232.677 142.603 233.648C135.293 240.904 128.088 248.16 120.831 255.42C119.809 256.44 118.517 257.46 117.013 257.353C115.346 257.516 113.733 255.904 113.893 254.288C114.002 252.569 115.346 251.172 115.346 249.45C115.454 247.998 114.217 247.084 113.357 246.116C96.2082 229.076 79.2198 211.876 62.0166 194.887C62.5549 194.188 63.039 193.543 63.6295 192.898Z" fill="white"/>
<path fill-rule="evenodd" clip-rule="evenodd" d="M467.085 187.629C473.747 194.187 480.36 200.798 486.918 207.464C489.013 209.454 487.509 213.431 484.714 213.863C482.133 214.238 480.145 212.196 478.158 210.852C472.836 207.194 466.546 203.757 459.884 204.886C458.109 203.273 456.39 201.606 454.938 199.726C459.077 195.747 463.054 191.659 467.085 187.629Z" fill="white"/>
<path fill-rule="evenodd" clip-rule="evenodd" d="M58.1368 198.543C60.1268 199.296 61.3616 201.553 62.9741 202.951C62.1148 209.188 65.0683 215.046 68.5624 219.939C69.5846 221.5 70.8194 222.949 71.4639 224.723C72.165 227.089 69.8537 229.561 67.4881 229.292C66.1448 229.292 65.2312 228.163 64.3717 227.358C58.5121 221.443 52.6028 215.639 46.7432 209.726C50.6126 206.069 54.2152 202.146 58.1368 198.543Z" fill="white"/>
<path fill-rule="evenodd" clip-rule="evenodd" d="M177.749 228.858C188.446 225.416 200.057 225.041 211.078 227.298C229.789 231.277 246.345 242.243 259.571 255.841C272.526 268.959 282.848 285.41 286.343 303.739C288.277 313.792 287.847 324.328 284.947 334.165C282.097 343.896 276.933 352.874 270.429 360.614C267.633 357.658 264.57 354.917 261.881 351.905C261.881 350.453 262.795 349.217 263.066 347.821C264.516 343.091 263.066 337.769 259.462 334.325C232.908 307.718 206.242 281.108 179.683 254.498C177.265 252.025 174.202 250.037 170.707 249.769C167.857 249.393 165.061 250.413 162.373 251.379C161.297 251.972 160.6 250.63 159.901 250.089C157.749 247.78 155.384 245.683 153.234 243.317C153.234 243.157 153.181 242.833 153.181 242.673C160.331 236.545 168.718 231.761 177.749 228.858Z" fill="white"/>
<path fill-rule="evenodd" clip-rule="evenodd" d="M250.235 225.895C252.707 226.7 254.965 227.938 257.277 229.12C265.935 233.315 274.532 237.668 283.244 241.915C283.995 242.292 284.694 242.883 285.341 243.473C292.65 250.892 300.017 258.203 307.38 265.568C311.359 269.816 316.356 273.094 321.787 275.136C325.604 276.588 329.907 276.588 333.723 275.243C335.659 274.598 337.756 273.847 339.799 274.491C341.841 275.299 343.346 277.342 343.506 279.545C343.346 282.501 341.463 284.973 339.475 287.016C332.917 293.682 326.248 300.296 319.584 306.854C317.811 308.467 315.768 310.131 313.294 310.4C309.747 310.936 306.251 307.177 307.326 303.735C308.348 300.239 309.747 296.693 309.156 293.037C308.295 286.907 304.799 281.479 300.929 276.803C286.361 262.182 271.739 247.612 257.117 232.936C254.857 230.571 252.384 228.422 250.235 225.895Z" fill="white"/>
<path fill-rule="evenodd" clip-rule="evenodd" d="M414.19 240.526C418.225 236.495 422.309 232.462 426.342 228.379C428.116 229.829 429.674 231.55 431.341 233.163C430.642 238.537 432.473 243.858 435.266 248.375C436.716 250.956 438.813 253.159 440.105 255.846C440.804 257.138 440.32 258.588 439.836 259.877C446.61 264.449 452.576 270.253 457.308 276.865C462.737 284.553 466.553 293.692 466.338 303.26C466.393 312.346 462.468 321.053 456.715 327.933C455.157 326.321 453.329 324.871 451.983 323.043C452.254 321.053 453.221 319.118 452.736 317.13C452.2 314.549 450.209 312.721 448.436 310.946C434.245 296.809 420.105 282.673 405.967 268.534C404.569 267.136 402.902 265.847 400.912 265.686C399.032 265.468 397.149 266.007 395.43 266.597C393.763 265.041 392.098 263.372 390.485 261.759C397.633 255.632 406.933 251.707 416.45 252.191C420.105 252.085 423.655 252.945 427.201 253.749C422.901 249.289 418.329 245.095 414.19 240.526Z" fill="white"/>
<path fill-rule="evenodd" clip-rule="evenodd" d="M132.871 272.076C135.827 263.852 140.503 256.326 146.04 249.605C148.782 252.404 151.687 255.089 154.374 257.939C154.91 259.66 153.515 261.273 153.245 262.992C151.847 267.616 153.675 272.669 157.063 276.001C183.188 302.181 209.37 328.307 235.551 354.485C238.079 357.229 241.141 359.807 245.011 360.4C248.452 360.938 251.841 359.755 255.012 358.572C257.915 361.474 260.819 364.325 263.721 367.226C257.376 372.764 250.011 377.118 242.163 380.183C230.335 384.75 217.111 385.503 204.692 382.764C185.822 378.622 169.211 367.281 155.932 353.465C143.676 340.619 133.782 324.866 130.289 307.286C127.926 295.623 128.679 283.26 132.871 272.076Z" fill="white"/>
<path fill-rule="evenodd" clip-rule="evenodd" d="M377.202 287.615C377.848 279.444 381.45 271.65 386.826 265.52C388.383 267.132 390.052 268.745 391.663 270.358C391.073 272.295 390.156 274.337 390.697 276.377C391.018 278.208 392.254 279.66 393.545 280.948C407.738 295.086 421.821 309.278 436.016 323.416C437.681 325.028 439.294 326.964 441.66 327.609C443.811 328.201 446.014 327.446 448.109 326.801C449.724 328.416 451.391 330.029 452.95 331.748C446.175 337.338 437.735 341.264 428.811 341.264C420.156 341.64 411.662 338.575 404.459 334.06C399.243 330.728 394.458 326.695 390.482 322.017C392.362 328.308 391.934 335.352 388.975 341.264C386.074 347.068 381.558 351.801 377.095 356.37C375.482 354.757 373.815 353.088 372.148 351.477C373.548 349.218 374.462 346.53 373.6 343.897C372.58 341.208 370.374 339.274 368.44 337.232C364.461 333.198 360.43 329.168 356.397 325.136C354.033 322.931 351.504 320.404 348.118 320.19C346.129 319.977 344.356 320.997 342.689 321.965C341.023 320.352 339.41 318.685 337.743 317.075C344.193 310.569 351.558 303.849 361.021 302.666C368.762 301.375 376.557 304.708 382.04 310.031C378.599 303.15 376.45 295.408 377.202 287.615Z" fill="white"/>
<path fill-rule="evenodd" clip-rule="evenodd" d="M93.8122 306.368C95.425 304.81 97.5218 303.627 99.7794 303.466C103.489 303.249 106.878 307.119 105.853 310.723C105.047 313.464 103.059 315.882 102.951 318.841C103.166 321.419 105.317 323.247 107.039 324.968C134.615 352.544 162.247 380.176 189.827 407.752C191.119 408.99 192.568 410.225 194.396 410.385C197.513 410.385 199.934 408.076 202.891 407.377C206.437 406.678 209.987 409.903 209.826 413.451C209.717 415.871 208.374 418.074 206.707 419.793C192.838 433.663 178.912 447.588 165.043 461.456C163.215 463.23 160.958 464.788 158.325 464.788C155.099 464.897 152.088 461.834 152.355 458.552C152.681 455.328 155.366 452.747 155.423 449.414C155.314 447.425 153.753 445.919 152.518 444.523C140.153 432.105 127.735 419.793 115.424 407.431C114.94 407.055 114.295 405.979 113.596 406.73C109.296 410.869 105.156 415.226 100.854 419.363C97.9514 416.461 95.049 413.559 92.145 410.603C96.2842 406.248 100.585 402 104.939 397.809C104.939 397.591 104.995 397.11 104.995 396.892C93.3282 385.445 81.877 373.831 70.2658 362.275C68.4923 360.608 66.8229 358.514 64.3527 357.921C60.9663 357.703 58.331 360.339 55.1595 360.931C51.0742 361.631 47.3644 357.007 48.7623 353.189C49.4614 350.502 51.6103 348.565 53.4924 346.74C66.9315 333.247 80.4249 319.861 93.8122 306.368Z" fill="white"/>
<path fill-rule="evenodd" clip-rule="evenodd" d="M333.869 320.895C340.32 326.913 346.396 333.364 352.739 339.547C364.782 351.641 376.877 363.736 388.973 375.831C389.833 376.532 390.638 377.498 391.767 377.713C394.081 377.93 395.906 375.671 398.221 376.1C399.618 376.584 400.905 377.93 400.747 379.487C400.747 381.583 398.972 383.035 397.68 384.433C390.101 391.907 382.628 399.484 375.05 406.958C373.383 408.786 370.263 407.872 369.243 405.829C367.739 403.303 371.824 400.613 369.675 398.303C354.082 382.768 338.492 367.177 322.956 351.587C321.827 350.567 320.861 349.278 319.515 348.576C317.204 347.931 315.376 349.868 313.227 350.137C311.56 349.976 309.947 348.524 310.053 346.803C309.893 344.921 311.29 343.473 312.471 342.236C319.624 335.138 326.774 327.99 333.869 320.895Z" fill="white"/>
<path fill-rule="evenodd" clip-rule="evenodd" d="M285.915 368.794C292.308 362.504 298.543 356 305.047 349.816C310.798 355.623 316.604 361.375 322.355 367.18C324.289 369.061 322.246 371.912 320.258 372.771C318.861 372.932 317.569 372.072 316.332 371.536C311.391 369.113 305.692 367.932 300.264 369.331C296.825 370.029 293.814 371.964 290.804 373.736C289.192 372.072 287.581 370.407 285.915 368.794Z" fill="white"/>
<path fill-rule="evenodd" clip-rule="evenodd" d="M259.799 394.969C267.22 387.444 274.747 380.079 282.164 372.605C294.205 384.488 306.086 396.582 318.183 408.462C327.431 417.655 336.57 426.956 345.869 436.094C338.667 443.512 331.249 450.716 324.042 458.079C323.022 459.209 321.57 459.854 320.226 460.445C318.883 459.963 317.215 459.479 316.785 457.975C315.98 455.446 318.613 453.457 318.292 450.985C317.215 448.889 315.333 447.382 313.72 445.717C300.657 432.652 287.595 419.591 274.53 406.526C272.22 404.377 270.283 401.798 267.542 400.185C264.8 399.645 262.327 403.14 259.695 401.258C257.437 399.808 258.082 396.582 259.799 394.969Z" fill="white"/>
<path fill-rule="evenodd" clip-rule="evenodd" d="M311.936 381.639C311.077 379.433 313.119 376.852 315.43 377.228C316.505 377.497 317.309 378.196 318.062 378.949C323.705 384.649 329.404 390.239 334.994 395.937C336.82 397.819 339.185 399.431 339.938 402.119C339.24 403.302 338.486 404.915 336.876 405.075C334.239 405.344 332.305 403.247 329.94 402.386C326.715 400.773 322.793 400.773 319.569 402.442C317.85 400.721 316.183 398.999 314.462 397.335C315.645 394.808 316.183 391.906 315.321 389.216C314.677 386.475 312.849 384.217 311.936 381.639Z" fill="white"/>
<path fill-rule="evenodd" clip-rule="evenodd" d="M346.515 395.664C347.644 393.944 350.385 393.676 351.728 395.288C357.534 401.149 363.447 406.953 369.196 412.866C362.586 419.317 356.244 426.09 349.471 432.38C347.915 430.713 346.247 429.1 344.634 427.433C350.385 420.34 351.192 410.07 347.323 401.9C346.622 399.964 345.118 397.598 346.515 395.664Z" fill="white"/>
<path fill-rule="evenodd" clip-rule="evenodd" d="M0.618856 417.063C2.76785 416.203 4.81278 414.857 7.17893 414.912C10.0269 415.45 11.8026 417.977 13.7888 419.857C40.8322 446.79 67.7646 473.775 94.7515 500.706C96.2555 502.376 98.1923 504.041 98.4611 506.407C98.3531 508.716 97.1155 510.761 96.1515 512.804C64.2697 512.749 32.4466 512.749 0.618856 512.749C0.618856 480.871 0.564565 448.939 0.618856 417.063Z" fill="#F96302"/>
<path fill-rule="evenodd" clip-rule="evenodd" d="M250.87 415.605C260.439 414.8 269.956 418.238 277.857 423.454C284.039 427.594 289.792 432.378 294.198 438.345C299.47 445.387 302.693 453.988 302.75 462.858C302.908 472.964 298.931 483.177 291.728 490.325C290.059 488.712 288.446 487.102 286.835 485.435C287.802 483.609 288.93 481.673 288.609 479.522C288.073 476.296 285.867 473.661 283.662 471.458C271.569 459.364 259.471 447.268 247.375 435.172C244.903 432.753 242.107 430.118 238.451 429.851C236.463 429.636 234.687 430.656 233.022 431.624C231.462 429.904 229.313 428.614 228.345 426.465C234.258 420.389 242.322 416.141 250.87 415.605Z" fill="white"/>
<path fill-rule="evenodd" clip-rule="evenodd" d="M468.149 482.38C468.149 472.736 475.973 465.621 485.217 465.621C494.374 465.621 502.195 472.736 502.195 482.38C502.195 492.116 494.374 499.23 485.217 499.23C475.973 499.23 468.149 492.116 468.149 482.38ZM485.202 496.427C492.801 496.427 498.801 490.471 498.801 482.38C498.801 474.422 492.801 468.421 485.202 468.421C477.511 468.421 471.511 474.422 471.511 482.38C471.511 490.471 477.511 496.427 485.202 496.427ZM481.646 492.119H478.713V472.739H486.09C490.67 472.739 492.936 474.426 492.936 478.248C492.936 481.719 490.758 483.229 487.913 483.584L493.427 492.119H490.134L485.025 483.716H481.646V492.119ZM485.162 481.228C487.649 481.228 489.873 481.051 489.873 478.072C489.873 475.672 487.695 475.228 485.65 475.228H481.649V481.228H485.162Z" fill="white"/>
</g>
<defs>
<clipPath id="clip0_2_15208">
<rect width="512" height="512" fill="white" transform="translate(0.594727 0.800781)"/>
</clipPath>
</defs>
</svg>
