<svg width="1024" height="321" viewBox="0 0 1024 321" fill="none" xmlns="http://www.w3.org/2000/svg">
<g clip-path="url(#clip0_9_1039)">
<path d="M382.933 142.99V140.438C387.717 140.438 388.674 140.119 390.268 139.162C391.225 138.525 392.182 137.249 392.182 135.973C392.182 134.059 391.225 130.551 389.631 126.724L384.209 114.285H349.444L343.385 129.275C342.747 130.87 342.109 133.103 342.109 134.697C342.109 138.843 344.979 140.119 351.358 140.119V142.671H325.205V140.119C332.86 139.481 334.135 136.611 341.79 118.112L368.9 53.687H371.451L403.983 128C407.81 136.611 409.405 139.481 416.421 140.119V142.671H382.933V142.99ZM366.986 72.8233L351.677 109.182H382.295L366.986 72.8233Z" fill="#404041"/>
<path d="M495.838 142.99V140.439C506.363 139.801 507.638 137.568 507.638 126.724V67.4018L473.831 142.99H471.917L438.748 70.2722V122.897C438.748 137.568 440.98 139.801 451.186 140.439V142.99H420.25V140.439C431.093 139.801 433.007 137.887 433.007 122.897V70.5912C433.007 60.3851 431.412 58.7905 420.568 58.1526V55.6011H446.721L477.339 121.94L506.682 55.6011H532.835V58.1526C523.266 58.1526 521.353 60.3851 521.353 70.5912V128.638C521.353 137.887 523.266 140.12 532.835 141.076V143.628H495.838V142.99Z" fill="#404041"/>
<path d="M609.061 142.99H537.938V140.438C548.144 139.8 549.419 138.206 549.419 128V70.2718C549.419 60.3847 547.825 58.4711 537.938 57.8332V55.2817H608.104L608.742 74.0991H605.552C603.639 62.2984 600.449 60.0658 585.14 60.0658H567.918C564.09 60.0658 563.134 60.7037 563.134 64.8499V93.8732H583.227C594.708 93.8732 596.622 91.6407 598.217 81.1157H601.406V112.053H598.217C596.622 100.89 594.708 99.2952 583.227 99.2952H563.134V131.508C563.134 136.93 566.642 137.568 576.529 137.568H581.313C600.13 137.568 605.871 134.059 611.931 120.026H615.758L609.061 142.99Z" fill="#404041"/>
<path d="M682.735 142.99L651.16 102.166L643.825 102.485V128C643.825 138.206 645.42 139.482 655.626 140.439V142.99H619.267V140.439C629.154 139.801 630.429 138.206 630.429 126.405V70.2722C630.429 60.3851 629.473 58.7905 619.267 58.1526V55.6011H655.307C667.745 55.6011 677.313 58.7905 683.054 63.2556C687.519 66.7639 689.433 73.4616 689.433 79.2025C689.433 90.6842 682.097 98.3388 665.513 100.89L691.984 134.379C695.812 139.163 698.682 140.12 704.423 140.439V142.99H682.735ZM643.825 97.7009C656.582 97.3819 661.047 96.4251 667.107 93.2357C671.891 90.6842 674.762 84.6244 674.762 78.2457C674.762 66.445 667.107 60.3851 650.523 60.3851C646.057 60.3851 643.825 61.342 643.825 65.8071V97.7009Z" fill="#404041"/>
<path d="M707.613 142.99V140.439C718.776 140.12 720.37 138.525 720.37 128V70.2722C720.37 59.7473 718.776 58.7905 707.613 58.1526V55.6011H746.842V58.1526C735.679 58.7905 733.766 60.3851 733.766 70.2722V128.319C733.766 138.206 735.998 140.12 746.842 140.757V143.309H707.613V142.99Z" fill="#404041"/>
<path d="M832.955 128.318C825.3 139.162 812.543 145.222 796.915 145.222C784.795 145.222 773.313 141.076 765.659 133.421C757.685 125.448 752.901 113.328 752.901 100.252C752.901 87.1755 757.366 76.0127 764.702 67.7203C773.313 58.4711 784.476 54.006 796.915 54.006C802.018 54.006 807.44 54.6438 812.543 55.9196C815.413 56.5574 819.559 58.1521 821.792 58.1521C824.343 58.1521 826.576 56.5575 827.214 53.687H829.765L831.041 83.6672H827.852C826.257 76.3316 824.343 72.5043 820.835 68.996C815.094 62.9362 808.078 58.79 799.466 58.79C779.373 58.79 767.572 75.0559 767.572 97.7004C767.572 112.372 770.762 122.578 777.141 129.275C782.882 135.335 791.493 138.843 800.742 138.843C812.543 138.843 819.878 135.016 829.765 125.448L832.955 128.318Z" fill="#404041"/>
<path d="M894.828 142.99V140.438C899.612 140.438 900.569 140.119 902.164 139.162C903.121 138.525 904.078 137.249 904.078 135.973C904.078 134.059 903.121 130.551 901.526 126.724L896.104 114.285H861.34L855.28 129.275C854.642 130.87 854.004 133.103 854.004 134.697C854.004 138.843 856.875 140.119 863.253 140.119V142.671H837.101V140.119C844.755 139.481 846.031 136.611 853.685 118.112L880.795 53.687H883.347L916.197 128.318C920.024 136.93 921.619 139.8 928.636 140.438V142.99H894.828ZM878.881 72.8233L863.572 109.182H894.19L878.881 72.8233Z" fill="#404041"/>
<path d="M1024 58.1522C1018.9 58.7901 1016.98 59.109 1015.39 60.3847C1012.84 62.6173 1011.56 65.4877 1011.56 76.0127V144.584H1009.33L950.962 71.8665V123.216C950.962 136.93 953.195 139.162 963.401 140.438V142.99H932.145V140.438C942.989 139.162 944.903 137.249 944.903 123.216V65.1688C940.437 59.7469 938.524 58.1522 932.145 58.1522V55.6007H954.471L1005.5 119.388V74.418C1005.5 67.7203 1004.86 63.5741 1002.95 61.3416C1000.72 58.7901 998.165 58.4711 992.424 57.8332V55.2817H1023.68V58.1522H1024Z" fill="#404041"/>
<path d="M355.505 253.023V251.428C362.203 251.109 362.84 249.514 362.84 242.498V226.232H337.325V243.455C337.325 249.514 338.282 251.109 344.661 251.428V253.023H321.06V251.428C327.757 251.109 328.714 249.833 328.714 242.817V206.458C328.714 199.76 327.757 198.803 321.06 198.484V196.89H344.661V198.484C338.601 199.122 337.006 200.079 337.006 206.458V222.405H362.521V206.458C362.521 199.76 361.565 198.803 354.867 198.484V196.89H378.468V198.484C372.09 199.122 370.814 200.079 370.814 206.458V243.455C370.814 249.514 372.09 250.79 378.468 251.109V252.704H355.505V253.023Z" fill="#404041"/>
<path d="M418.655 253.024V251.429C421.845 251.429 422.164 251.11 423.439 250.791C424.077 250.472 424.715 249.516 424.715 248.878C424.715 247.602 424.077 245.369 423.12 242.818L419.612 234.844H397.605L393.778 244.413C393.459 245.369 393.14 246.964 393.14 247.921C393.14 250.472 395.054 251.429 399.2 251.429V253.024H382.296V251.429C387.08 250.791 388.037 249.197 392.821 237.396L410.363 196.253H411.958L432.689 243.775C434.921 249.197 436.197 251.11 440.662 251.429V253.024H418.655ZM408.449 208.054L398.881 231.336H418.336L408.449 208.054Z" fill="#404041"/>
<path d="M483.718 253.023L463.624 226.87L458.84 227.189V243.455C458.84 249.833 459.797 250.79 466.495 251.428V253.023H443.212V251.428C449.591 250.79 450.548 249.833 450.548 242.498V206.458C450.548 200.079 449.91 199.122 443.212 198.803V196.89H466.176C474.149 196.89 480.209 198.803 483.718 201.993C486.588 204.225 487.864 208.371 487.864 212.199C487.864 219.534 483.08 224.318 472.555 225.913L489.458 247.282C492.01 250.471 493.605 250.79 497.432 251.109V252.704H483.718V253.023ZM458.84 223.999C466.814 223.68 470.003 223.361 473.83 221.129C477.02 219.534 478.615 215.707 478.615 211.561C478.615 203.906 473.511 200.079 462.987 200.079C460.116 200.079 458.521 200.717 458.521 203.587V223.999H458.84Z" fill="#404041"/>
<path d="M543.998 211.242C542.084 201.993 539.851 200.398 530.921 200.398H525.818V243.455C525.818 249.833 527.094 250.79 533.792 251.109V252.704H509.233V251.109C516.25 250.79 517.207 249.833 517.207 242.179V200.398H512.104C503.174 200.398 500.941 201.993 499.027 211.242H497.114L497.752 196.89H545.273L545.911 211.242H543.998Z" fill="#404041"/>
<path d="M591.519 209.009C590.243 201.355 588.648 200.079 578.442 200.079H567.279C564.728 200.079 564.409 200.717 564.409 203.268V221.767H576.528C583.545 221.767 585.459 220.172 586.097 213.793H588.01V233.568H586.097C585.459 226.551 583.864 225.275 576.528 225.275H564.409V243.455C564.409 249.833 565.685 251.109 572.063 251.428V253.023H548.462V251.428C554.841 251.109 555.797 249.833 555.797 242.498V206.458C555.797 200.398 554.841 199.122 548.462 198.803V196.89H593.113L593.432 209.009H591.519Z" fill="#404041"/>
<path d="M625.008 253.98C608.742 253.98 597.26 242.179 597.26 224.638C597.26 207.415 608.423 195.614 625.008 195.614C641.593 195.614 652.755 208.053 652.755 224.638C652.755 242.179 641.274 253.98 625.008 253.98ZM635.533 202.631C632.343 200.079 629.154 198.804 625.008 198.804C620.543 198.804 616.078 200.717 612.888 204.545C609.38 208.691 607.147 216.983 607.147 224.957C607.147 235.163 609.699 242.498 614.802 247.282C617.672 249.834 621.5 251.109 625.327 251.109C629.473 251.109 633.3 249.834 636.171 246.963C640.955 242.498 643.187 234.525 643.187 224.319C643.187 214.751 640.317 206.777 635.533 202.631Z" fill="#404041"/>
<path d="M697.725 253.023L677.632 226.87L672.848 227.189V243.455C672.848 249.833 673.805 250.79 680.502 251.428V253.023H657.22V251.428C663.598 250.79 664.555 249.833 664.555 242.498V206.458C664.555 200.079 663.917 199.122 657.22 198.803V196.89H680.183C688.157 196.89 694.217 198.803 697.725 201.993C700.595 204.225 701.871 208.371 701.871 212.199C701.871 219.534 697.087 224.318 686.562 225.913L703.466 247.282C706.017 250.471 707.612 250.79 711.439 251.109V252.704H697.725V253.023ZM672.848 223.999C680.821 223.68 684.01 223.361 687.838 221.129C691.027 219.534 692.622 215.707 692.622 211.561C692.622 203.906 687.519 200.079 676.994 200.079C674.123 200.079 672.529 200.717 672.529 203.587V223.999H672.848Z" fill="#404041"/>
<path d="M736.317 196.89C747.161 196.89 755.772 199.441 761.832 204.544C767.254 209.328 770.124 216.026 770.124 224.637C770.124 234.843 766.297 242.498 758.643 247.601C753.54 251.109 745.885 253.023 737.274 253.023H713.672V251.428C720.37 251.109 721.008 249.833 721.008 243.455V206.458C721.008 199.76 720.051 199.122 713.672 198.484V196.89H736.317ZM729.3 245.687C729.3 248.558 729.938 249.514 733.447 249.514C742.058 249.514 746.842 248.558 751.945 245.049C758.005 241.222 760.875 234.524 760.875 224.956C760.875 216.026 758.324 210.285 752.902 205.82C747.799 201.355 742.696 200.079 734.084 200.079C730.895 200.079 729.619 200.717 729.619 203.587V245.687H729.3Z" fill="#404041"/>
<path d="M851.134 226.871C846.35 227.19 845.393 228.146 845.393 233.249V249.515C840.928 253.343 832.955 255.256 824.662 255.256C816.37 255.256 808.078 252.067 802.656 246.645C798.191 241.861 795.958 235.482 795.958 227.509C795.958 218.578 799.147 210.924 804.569 206.14C809.353 201.675 816.051 199.123 824.025 199.123C828.49 199.123 831.36 199.761 834.868 201.037C836.463 201.675 837.739 201.993 838.377 201.993C839.972 201.993 841.566 200.718 842.204 199.442H844.118L844.756 216.665H842.842C840.928 211.562 839.653 209.648 837.101 207.096C833.912 204.226 829.765 202.631 825.3 202.631C819.559 202.631 815.094 204.545 811.586 208.372C807.121 212.837 805.207 220.173 805.207 228.146C805.207 243.455 813.819 252.386 826.576 252.386C832.955 252.386 837.42 250.153 837.42 247.283V234.525C837.42 228.146 836.463 227.509 830.084 226.871V225.276H851.134V226.871Z" fill="#404041"/>
<path d="M881.752 255.256C865.805 255.256 854.961 243.774 854.961 226.87C854.961 210.285 865.805 198.804 881.752 198.804C897.699 198.804 908.543 210.923 908.543 226.87C908.543 244.093 897.38 255.256 881.752 255.256ZM891.639 205.82C888.769 203.269 885.58 201.993 881.752 201.993C877.287 201.993 873.141 203.907 869.952 207.415C866.443 211.561 864.211 219.216 864.211 227.189C864.211 236.757 866.443 244.412 871.546 248.877C874.417 251.428 877.925 252.704 881.752 252.704C885.898 252.704 889.407 251.428 892.277 248.877C896.742 244.412 898.975 236.757 898.975 227.189C899.294 217.302 896.423 209.648 891.639 205.82Z" fill="#404041"/>
<path d="M956.064 254.299H912.051V252.704C918.111 252.385 919.067 251.109 919.067 244.73V209.647C919.067 203.268 918.43 202.312 912.051 201.674V200.079H935.014V201.674C928.317 201.993 927.36 203.268 927.36 209.328V247.282C927.36 250.471 928.635 251.109 934.695 251.109H940.436C947.134 251.109 951.599 249.514 954.151 246.006C955.107 244.73 956.383 242.817 957.659 239.946H959.891L956.064 254.299Z" fill="#404041"/>
<path d="M984.45 200.079C994.975 200.079 1003.27 202.631 1009.01 207.415C1014.43 211.88 1016.98 218.259 1016.98 226.87C1016.98 236.438 1013.15 244.411 1005.82 248.877C1000.72 252.066 993.38 253.98 985.088 253.98H962.125V252.385C968.503 252.066 969.46 250.79 969.46 244.411V209.328C969.46 202.95 968.503 201.993 962.125 201.674V200.079H984.45ZM978.071 247.282C978.071 250.152 978.709 251.109 981.899 251.109C990.191 251.109 994.656 250.152 999.759 246.963C1005.5 243.136 1008.37 236.757 1008.37 227.508C1008.37 218.896 1005.82 213.475 1000.72 209.009C995.932 204.863 990.829 203.268 982.537 203.268C979.347 203.268 978.071 203.906 978.071 206.777V247.282Z" fill="#404041"/>
<path d="M1.4841 22.7493C1.4841 22.7493 136.395 -27.0051 285.977 22.7493C285.977 22.7493 316.595 217.62 143.411 320.956C143.411 321.913 -17.0143 246.006 1.4841 22.7493Z" fill="url(#paint0_linear_9_1039)"/>
<path d="M11.3712 31.9978C11.3712 31.9978 136.714 -14.5672 275.771 31.9978C275.771 31.9978 304.156 212.517 144.049 308.836C143.411 309.474 -5.85145 238.67 11.3712 31.9978Z" fill="white"/>
<path d="M217.724 41.2477C217.724 41.2477 211.026 32.6363 205.285 37.7393C199.544 42.8424 188.381 50.8158 188.381 50.8158L195.717 61.6597C195.717 61.6597 195.079 58.1514 198.587 53.0484C202.415 47.3075 205.285 37.7393 217.724 41.2477Z" fill="url(#paint1_linear_9_1039)"/>
<path d="M202.416 58.1509C202.416 58.1509 199.545 63.2539 200.183 63.8918C200.821 64.5296 203.054 63.8918 203.692 64.5296C204.33 65.1675 205.924 67.4001 206.562 67.4001C207.2 67.4001 209.433 63.8918 209.433 63.8918C209.433 63.8918 203.054 59.7456 202.416 58.1509Z" fill="url(#paint2_linear_9_1039)"/>
<path d="M213.259 66.7632C213.259 66.7632 211.665 68.9957 211.027 68.9957C211.027 69.6336 216.768 76.3313 216.768 76.3313C217.406 76.3313 219 71.8662 219 71.2283C219.957 70.5904 217.725 72.823 213.259 66.7632Z" fill="url(#paint3_linear_9_1039)"/>
<path d="M181.366 55.2808C181.366 55.2808 184.236 56.8755 186.469 60.3838C189.339 63.8921 190.934 62.6163 190.934 62.6163C190.934 62.6163 192.529 71.2277 197.632 77.2875C202.735 83.0284 210.708 91.0018 210.07 102.803C210.07 102.803 206.562 92.5965 198.269 85.2609C189.977 77.9254 181.366 71.2277 181.366 55.2808Z" fill="url(#paint4_linear_9_1039)"/>
<path d="M172.435 96.1045C172.435 96.1045 173.073 98.9749 171.797 100.57C169.564 102.164 166.056 105.673 166.056 105.673C166.056 105.673 162.548 106.311 160.315 105.673C159.358 104.716 163.823 98.9749 172.435 96.1045Z" fill="url(#paint5_linear_9_1039)"/>
<path d="M192.846 105.355C192.846 105.355 183.278 97.3814 173.072 104.717C166.375 111.415 161.271 117.793 163.504 140.438C163.504 140.438 164.142 125.767 167.012 121.621C169.883 117.156 170.521 120.026 170.521 120.026C170.521 120.026 170.521 112.69 174.986 112.69C179.451 112.69 182.959 112.053 185.83 109.82C188.381 107.587 190.614 105.355 192.846 105.355Z" fill="url(#paint6_linear_9_1039)"/>
<path d="M201.459 118.75C201.459 118.75 199.864 129.593 195.718 134.696C191.253 140.437 183.28 152.238 182.642 160.211C182.004 168.185 184.236 182.218 176.901 190.192C176.901 190.192 175.306 190.829 175.306 188.597C175.306 188.597 167.333 190.829 162.868 190.829C158.402 190.192 170.841 190.192 174.668 186.364C178.177 182.856 179.133 181.899 179.133 178.391C179.133 178.391 170.522 182.856 165.419 181.899C165.419 181.899 174.03 179.029 178.496 174.564C182.961 170.099 178.496 154.152 175.625 146.178C172.755 138.205 172.755 132.464 173.393 130.231C173.393 130.231 175.625 142.67 181.366 150.643C181.366 150.643 188.702 141.075 191.572 136.929C195.08 132.464 199.545 127.361 201.459 118.75Z" fill="url(#paint7_linear_9_1039)"/>
<path d="M147.558 66.1245C147.558 66.1245 140.861 68.3571 147.558 75.6926C154.256 83.0282 154.894 80.7957 154.256 80.1578C154.256 79.5199 151.386 75.0548 149.153 72.8222C147.558 69.9518 146.92 67.7192 147.558 66.1245Z" fill="url(#paint8_linear_9_1039)"/>
<path d="M225.06 57.5142C225.06 57.5142 226.655 78.5641 230.163 87.4943C234.628 96.1057 235.904 95.4678 243.24 107.906C250.575 119.707 257.911 131.827 256.316 142.033C256.316 142.033 244.515 123.215 229.206 116.518C229.206 116.518 227.612 110.777 224.741 105.674C221.871 100.571 214.535 95.4678 219 81.7535C223.465 67.7202 225.698 62.6172 225.06 57.5142Z" fill="url(#paint9_linear_9_1039)"/>
<path d="M222.828 114.923C222.828 114.923 254.084 135.973 256.954 151.92C256.954 151.92 254.722 161.488 251.214 168.823C251.214 168.823 241.008 154.152 233.034 150.644C232.077 150.644 230.164 126.724 222.828 114.923Z" fill="url(#paint10_linear_9_1039)"/>
<path d="M224.102 147.773C224.102 147.773 228.567 154.471 237.817 160.212C247.385 165.952 249.617 172.65 249.617 172.65L245.152 182.856C245.152 182.856 234.308 164.677 224.74 159.574C224.74 159.574 225.378 157.341 224.74 156.065C225.059 154.471 223.464 152.238 224.102 147.773Z" fill="url(#paint11_linear_9_1039)"/>
<path d="M163.505 158.936C163.505 158.936 167.013 159.573 164.142 165.633C163.505 167.228 159.677 168.504 159.039 172.969C158.402 177.434 157.445 175.839 157.445 175.839C157.445 175.839 148.833 177.753 147.558 181.58C145.963 185.088 142.455 192.424 158.402 199.122C158.402 199.122 159.039 200.716 157.764 199.76C156.169 199.76 147.558 198.165 144.049 199.122V165.314C143.093 165.314 153.936 169.142 163.505 158.936Z" fill="url(#paint12_linear_9_1039)"/>
<path d="M152.023 253.979C152.023 253.979 161.591 254.616 160.634 283.959L143.731 297.035C144.049 297.035 138.309 260.038 152.023 253.979Z" fill="url(#paint13_linear_9_1039)"/>
<path d="M182.004 222.085L188.701 261.314C188.701 261.314 170.522 278.856 160.954 283.959C161.591 283.959 158.721 237.394 182.004 222.085Z" fill="url(#paint14_linear_9_1039)"/>
<path d="M198.588 183.495C198.588 183.495 213.897 189.236 221.232 224.957C221.232 224.957 211.026 241.86 192.847 257.807C192.847 257.807 184.235 237.395 187.106 227.827C189.976 218.578 200.82 208.372 198.588 183.495Z" fill="url(#paint15_linear_9_1039)"/>
<path d="M220.594 159.574C220.594 159.574 238.773 176.478 243.876 187.96C243.876 187.96 234.308 209.01 225.059 220.81C225.059 220.81 222.188 206.139 215.491 198.166C215.491 197.209 222.826 181.9 220.594 159.574Z" fill="url(#paint16_linear_9_1039)"/>
<path d="M142.454 224.318C142.454 224.318 144.049 224.318 145.963 222.085C145.963 222.085 148.833 225.593 149.471 227.826C150.109 230.058 150.109 231.334 149.471 232.929C149.471 232.929 148.833 229.421 142.135 229.421V224.318H142.454Z" fill="url(#paint17_linear_9_1039)"/>
<path d="M154.256 219.215C154.256 219.215 155.851 224.956 155.851 226.55C155.851 228.145 155.851 230.059 152.98 231.653C152.98 231.653 151.386 224.956 150.748 224.318C149.791 223.68 150.748 220.491 154.256 219.215Z" fill="url(#paint18_linear_9_1039)"/>
<path d="M157.764 215.388C157.764 215.388 159.358 213.794 159.996 215.388C160.634 216.983 162.229 220.491 162.229 220.491C162.229 220.491 162.867 222.724 160.634 224.957C158.402 227.189 157.126 227.827 157.126 227.827C157.126 227.827 154.255 217.621 157.764 215.388Z" fill="url(#paint19_linear_9_1039)"/>
<path d="M161.592 211.88C161.592 211.88 163.186 210.285 165.1 213.474C167.332 216.345 166.695 217.939 165.738 219.215C164.781 220.491 163.505 219.853 162.867 219.853C162.229 219.853 161.273 217.621 160.635 217.621C161.592 216.983 160.954 214.112 161.592 211.88Z" fill="url(#paint20_linear_9_1039)"/>
<path d="M167.332 203.268L168.926 210.604C168.926 211.242 168.926 212.836 168.288 213.474C167.332 213.474 160.953 206.139 167.332 203.268Z" fill="url(#paint21_linear_9_1039)"/>
<path d="M69.7373 41.2477C69.7373 41.2477 76.435 32.6363 82.1759 37.7393C87.9168 42.8424 99.0796 50.8158 99.0796 50.8158L91.744 61.6597C91.744 61.6597 92.3819 58.1514 88.8736 53.0484C85.6842 47.3075 82.1759 37.7393 69.7373 41.2477Z" fill="url(#paint22_linear_9_1039)"/>
<path d="M85.0464 58.1509C85.0464 58.1509 87.9169 63.2539 87.279 63.8918C86.6411 64.5296 84.4085 63.8918 83.7707 64.5296C83.1328 65.1675 81.5381 67.4001 80.9002 67.4001C80.2623 67.4001 78.0298 63.8918 78.0298 63.8918C78.0298 63.8918 85.0464 59.7456 85.0464 58.1509Z" fill="url(#paint23_linear_9_1039)"/>
<path d="M74.2017 66.7632C74.2017 66.7632 75.7964 68.9957 76.4343 68.9957C77.0721 68.9957 70.6934 76.3313 70.6934 76.3313C70.0555 76.3313 68.4608 71.8662 68.4608 71.2283C67.504 70.5904 69.7366 72.823 74.2017 66.7632Z" fill="url(#paint24_linear_9_1039)"/>
<path d="M106.096 55.2808C106.096 55.2808 103.225 56.8755 100.993 60.3838C98.1225 63.8921 96.5278 62.6163 96.5278 62.6163C96.5278 62.6163 94.9331 71.2277 89.8301 77.2875C84.7271 83.0284 76.7536 91.0018 77.3915 102.803C77.3915 102.803 80.8998 92.5965 89.1922 85.2609C97.4846 77.9254 107.053 71.2277 106.096 55.2808Z" fill="url(#paint25_linear_9_1039)"/>
<path d="M115.026 96.1045C115.026 96.1045 114.388 98.9749 115.664 100.57C117.259 102.164 121.405 105.673 121.405 105.673C121.405 105.673 124.913 106.311 127.146 105.673C128.103 104.716 123.637 98.9749 115.026 96.1045Z" fill="url(#paint26_linear_9_1039)"/>
<path d="M94.6138 105.355C94.6138 105.355 104.182 97.3814 114.388 104.717C121.086 111.415 126.189 117.793 123.956 140.438C123.956 140.438 123.318 125.767 120.448 121.621C117.577 117.475 116.939 120.026 116.939 120.026C116.939 120.026 116.939 112.69 112.474 112.69C108.009 112.053 104.501 112.053 101.63 109.82C98.76 107.587 96.8463 105.355 94.6138 105.355Z" fill="url(#paint27_linear_9_1039)"/>
<path d="M85.6841 118.75C85.6841 118.75 87.2788 129.593 91.425 134.696C95.8901 140.437 103.864 152.238 104.501 160.211C105.139 168.185 102.907 182.218 110.242 190.192C110.242 190.192 111.837 190.829 111.837 188.597C111.837 188.597 119.81 190.829 124.276 190.829C128.741 190.192 116.302 190.192 112.475 186.364C108.967 182.856 108.01 181.899 108.01 178.391C108.01 178.391 116.621 182.856 121.724 181.899C121.724 181.899 113.113 179.029 108.648 174.564C104.182 170.099 108.648 154.152 111.518 146.178C114.389 138.205 114.389 132.464 113.751 130.231C113.751 130.231 111.518 142.67 105.777 150.643C105.777 150.643 98.4416 141.075 95.5712 136.929C92.3818 132.464 87.9166 127.361 85.6841 118.75Z" fill="url(#paint28_linear_9_1039)"/>
<path d="M139.584 66.1245C139.584 66.1245 146.281 68.3571 139.584 75.6926C132.886 83.0282 132.248 80.7957 132.886 80.1578C132.886 79.5199 135.757 75.0548 137.989 72.8222C139.584 69.9518 140.541 67.7192 139.584 66.1245Z" fill="url(#paint29_linear_9_1039)"/>
<path d="M62.4006 57.5142C62.4006 57.5142 60.8059 78.5641 57.2976 87.4943C53.7893 96.1057 51.5567 95.4678 44.2212 107.906C36.8856 119.707 29.55 131.827 31.1447 142.033C31.1447 142.033 42.9454 123.215 58.2544 116.518C58.2544 116.518 59.8491 110.777 62.7196 105.674C65.59 100.571 72.9256 95.4678 68.4605 81.7535C63.3574 66.1255 61.7628 62.6172 62.4006 57.5142Z" fill="url(#paint30_linear_9_1039)"/>
<path d="M64.6332 114.923C64.6332 114.923 33.3773 135.973 30.5068 151.92C30.5068 151.92 32.7394 161.488 36.2477 168.823C36.2477 168.823 46.4537 154.152 54.4272 150.644C55.0651 150.644 57.2976 126.724 64.6332 114.923Z" fill="url(#paint31_linear_9_1039)"/>
<path d="M63.3583 147.773C63.3583 147.773 58.8932 154.471 49.644 160.212C40.0758 165.952 37.8433 172.65 37.8433 172.65L42.3084 182.856C42.3084 182.856 53.1523 164.677 62.7204 159.574C62.7204 159.574 62.0825 157.341 62.7204 156.065C63.3583 154.471 63.9962 152.238 63.3583 147.773Z" fill="url(#paint32_linear_9_1039)"/>
<path d="M124.275 158.936C124.275 158.936 120.767 159.573 123.637 165.633C124.275 167.228 128.102 168.504 128.74 172.969C129.378 176.477 130.335 175.839 130.335 175.839C130.335 175.839 138.946 178.072 140.541 181.58C142.136 185.088 145.644 192.424 129.697 199.122C129.697 199.122 129.059 200.716 130.335 199.76C131.93 199.76 140.541 198.165 144.049 199.122V165.314C144.049 165.314 133.843 169.142 124.275 158.936Z" fill="url(#paint33_linear_9_1039)"/>
<path d="M136.076 253.979C136.076 253.979 125.87 254.616 126.508 283.959L144.05 297.035C144.05 297.035 149.153 260.038 136.076 253.979Z" fill="url(#paint34_linear_9_1039)"/>
<path d="M105.458 222.085L98.7607 261.314C98.7607 261.314 116.94 278.856 126.508 283.959C125.87 283.959 129.379 237.394 105.458 222.085Z" fill="url(#paint35_linear_9_1039)"/>
<path d="M88.5538 183.495C88.5538 183.495 73.2448 189.236 65.9092 224.957C65.9092 224.957 76.1152 241.86 94.2947 257.807C94.2947 257.807 102.906 237.395 100.036 227.827C96.8462 217.621 86.6401 208.372 88.5538 183.495Z" fill="url(#paint36_linear_9_1039)"/>
<path d="M67.5046 159.574C67.5046 159.574 49.3252 176.478 44.2222 187.96C44.2222 187.96 53.7903 209.01 63.0395 220.81C63.0395 220.81 65.9099 206.139 72.6076 198.166C71.9698 197.209 64.6342 181.9 67.5046 159.574Z" fill="url(#paint37_linear_9_1039)"/>
<path d="M144.687 224.318C144.687 224.318 143.093 224.318 141.179 222.085C141.179 222.085 138.309 225.593 137.671 227.826C137.033 230.058 137.033 231.334 137.671 232.929C137.671 232.929 138.309 229.421 145.006 229.421V224.318H144.687Z" fill="url(#paint38_linear_9_1039)"/>
<path d="M133.206 219.215C133.206 219.215 131.611 224.956 131.611 226.55C131.611 228.145 131.611 230.059 134.481 231.653C134.481 231.653 136.076 224.956 136.714 224.318C137.352 223.68 136.714 220.491 133.206 219.215Z" fill="url(#paint39_linear_9_1039)"/>
<path d="M130.335 215.388C130.335 215.388 128.74 213.794 128.102 215.388C127.464 216.983 125.87 220.491 125.87 220.491C125.87 220.491 125.232 222.724 127.464 224.957C129.697 227.189 130.973 227.827 130.973 227.827C130.973 227.827 133.205 217.621 130.335 215.388Z" fill="url(#paint40_linear_9_1039)"/>
<path d="M125.87 211.88C125.87 211.88 124.275 210.285 122.362 213.474C120.129 216.345 120.767 217.939 121.724 219.215C122.681 220.491 123.956 219.853 124.594 219.853C125.232 219.853 126.189 217.621 126.827 217.621C125.87 216.983 126.508 214.112 125.87 211.88Z" fill="url(#paint41_linear_9_1039)"/>
<path d="M120.129 203.268L118.534 210.604C118.534 211.242 118.534 212.836 119.172 213.474C120.129 213.474 126.508 206.139 120.129 203.268Z" fill="url(#paint42_linear_9_1039)"/>
<path d="M1007.73 168.185L670.297 174.883L332.861 168.185V167.547L670.297 164.039L1007.73 167.547V168.185Z" fill="#404041"/>
</g>
<defs>
<linearGradient id="paint0_linear_9_1039" x1="-0.0247986" y1="160.918" x2="288.012" y2="160.918" gradientUnits="userSpaceOnUse">
<stop stop-color="#E8B520"/>
<stop offset="0.0720047" stop-color="#E1AE24"/>
<stop offset="0.1863" stop-color="#C8992C"/>
<stop offset="0.3156" stop-color="#A87D2C"/>
<stop offset="0.4232" stop-color="#C1932D"/>
<stop offset="0.5621" stop-color="#DEAD26"/>
<stop offset="0.6425" stop-color="#E8B520"/>
<stop offset="0.8178" stop-color="#CA9B2C"/>
<stop offset="1" stop-color="#A87D2C"/>
</linearGradient>
<linearGradient id="paint1_linear_9_1039" x1="45.488" y1="40.944" x2="244.982" y2="51.1507" gradientUnits="userSpaceOnUse">
<stop stop-color="#E8B520"/>
<stop offset="0.0720047" stop-color="#E1AE24"/>
<stop offset="0.1863" stop-color="#C8992C"/>
<stop offset="0.3156" stop-color="#A87D2C"/>
<stop offset="0.4232" stop-color="#C1932D"/>
<stop offset="0.5621" stop-color="#DEAD26"/>
<stop offset="0.6425" stop-color="#E8B520"/>
<stop offset="0.8178" stop-color="#CA9B2C"/>
<stop offset="1" stop-color="#A87D2C"/>
</linearGradient>
<linearGradient id="paint2_linear_9_1039" x1="44.7842" y1="54.7197" x2="244.278" y2="64.9264" gradientUnits="userSpaceOnUse">
<stop stop-color="#E8B520"/>
<stop offset="0.0720047" stop-color="#E1AE24"/>
<stop offset="0.1863" stop-color="#C8992C"/>
<stop offset="0.3156" stop-color="#A87D2C"/>
<stop offset="0.4232" stop-color="#C1932D"/>
<stop offset="0.5621" stop-color="#DEAD26"/>
<stop offset="0.6425" stop-color="#E8B520"/>
<stop offset="0.8178" stop-color="#CA9B2C"/>
<stop offset="1" stop-color="#A87D2C"/>
</linearGradient>
<linearGradient id="paint3_linear_9_1039" x1="44.3655" y1="62.9005" x2="243.86" y2="73.1072" gradientUnits="userSpaceOnUse">
<stop stop-color="#E8B520"/>
<stop offset="0.0720047" stop-color="#E1AE24"/>
<stop offset="0.1863" stop-color="#C8992C"/>
<stop offset="0.3156" stop-color="#A87D2C"/>
<stop offset="0.4232" stop-color="#C1932D"/>
<stop offset="0.5621" stop-color="#DEAD26"/>
<stop offset="0.6425" stop-color="#E8B520"/>
<stop offset="0.8178" stop-color="#CA9B2C"/>
<stop offset="1" stop-color="#A87D2C"/>
</linearGradient>
<linearGradient id="paint4_linear_9_1039" x1="43.9424" y1="71.1693" x2="243.436" y2="81.3759" gradientUnits="userSpaceOnUse">
<stop stop-color="#E8B520"/>
<stop offset="0.0720047" stop-color="#E1AE24"/>
<stop offset="0.1863" stop-color="#C8992C"/>
<stop offset="0.3156" stop-color="#A87D2C"/>
<stop offset="0.4232" stop-color="#C1932D"/>
<stop offset="0.5621" stop-color="#DEAD26"/>
<stop offset="0.6425" stop-color="#E8B520"/>
<stop offset="0.8178" stop-color="#CA9B2C"/>
<stop offset="1" stop-color="#A87D2C"/>
</linearGradient>
<linearGradient id="paint5_linear_9_1039" x1="42.7449" y1="94.5602" x2="242.239" y2="104.767" gradientUnits="userSpaceOnUse">
<stop stop-color="#E8B520"/>
<stop offset="0.0720047" stop-color="#E1AE24"/>
<stop offset="0.1863" stop-color="#C8992C"/>
<stop offset="0.3156" stop-color="#A87D2C"/>
<stop offset="0.4232" stop-color="#C1932D"/>
<stop offset="0.5621" stop-color="#DEAD26"/>
<stop offset="0.6425" stop-color="#E8B520"/>
<stop offset="0.8178" stop-color="#CA9B2C"/>
<stop offset="1" stop-color="#A87D2C"/>
</linearGradient>
<linearGradient id="paint6_linear_9_1039" x1="41.7311" y1="114.374" x2="241.225" y2="124.58" gradientUnits="userSpaceOnUse">
<stop stop-color="#E8B520"/>
<stop offset="0.0720047" stop-color="#E1AE24"/>
<stop offset="0.1863" stop-color="#C8992C"/>
<stop offset="0.3156" stop-color="#A87D2C"/>
<stop offset="0.4232" stop-color="#C1932D"/>
<stop offset="0.5621" stop-color="#DEAD26"/>
<stop offset="0.6425" stop-color="#E8B520"/>
<stop offset="0.8178" stop-color="#CA9B2C"/>
<stop offset="1" stop-color="#A87D2C"/>
</linearGradient>
<linearGradient id="paint7_linear_9_1039" x1="40.0423" y1="147.404" x2="239.536" y2="157.611" gradientUnits="userSpaceOnUse">
<stop stop-color="#E8B520"/>
<stop offset="0.0720047" stop-color="#E1AE24"/>
<stop offset="0.1863" stop-color="#C8992C"/>
<stop offset="0.3156" stop-color="#A87D2C"/>
<stop offset="0.4232" stop-color="#C1932D"/>
<stop offset="0.5621" stop-color="#DEAD26"/>
<stop offset="0.6425" stop-color="#E8B520"/>
<stop offset="0.8178" stop-color="#CA9B2C"/>
<stop offset="1" stop-color="#A87D2C"/>
</linearGradient>
<linearGradient id="paint8_linear_9_1039" x1="44.1013" y1="68.0681" x2="243.595" y2="78.2748" gradientUnits="userSpaceOnUse">
<stop stop-color="#E8B520"/>
<stop offset="0.0720047" stop-color="#E1AE24"/>
<stop offset="0.1863" stop-color="#C8992C"/>
<stop offset="0.3156" stop-color="#A87D2C"/>
<stop offset="0.4232" stop-color="#C1932D"/>
<stop offset="0.5621" stop-color="#DEAD26"/>
<stop offset="0.6425" stop-color="#E8B520"/>
<stop offset="0.8178" stop-color="#CA9B2C"/>
<stop offset="1" stop-color="#A87D2C"/>
</linearGradient>
<linearGradient id="paint9_linear_9_1039" x1="43.0008" y1="89.5732" x2="242.495" y2="99.7798" gradientUnits="userSpaceOnUse">
<stop stop-color="#E8B520"/>
<stop offset="0.0720047" stop-color="#E1AE24"/>
<stop offset="0.1863" stop-color="#C8992C"/>
<stop offset="0.3156" stop-color="#A87D2C"/>
<stop offset="0.4232" stop-color="#C1932D"/>
<stop offset="0.5621" stop-color="#DEAD26"/>
<stop offset="0.6425" stop-color="#E8B520"/>
<stop offset="0.8178" stop-color="#CA9B2C"/>
<stop offset="1" stop-color="#A87D2C"/>
</linearGradient>
<linearGradient id="paint10_linear_9_1039" x1="40.8357" y1="131.901" x2="240.33" y2="142.108" gradientUnits="userSpaceOnUse">
<stop stop-color="#E8B520"/>
<stop offset="0.0720047" stop-color="#E1AE24"/>
<stop offset="0.1863" stop-color="#C8992C"/>
<stop offset="0.3156" stop-color="#A87D2C"/>
<stop offset="0.4232" stop-color="#C1932D"/>
<stop offset="0.5621" stop-color="#DEAD26"/>
<stop offset="0.6425" stop-color="#E8B520"/>
<stop offset="0.8178" stop-color="#CA9B2C"/>
<stop offset="1" stop-color="#A87D2C"/>
</linearGradient>
<linearGradient id="paint11_linear_9_1039" x1="39.6392" y1="155.263" x2="239.133" y2="165.47" gradientUnits="userSpaceOnUse">
<stop stop-color="#E8B520"/>
<stop offset="0.0720047" stop-color="#E1AE24"/>
<stop offset="0.1863" stop-color="#C8992C"/>
<stop offset="0.3156" stop-color="#A87D2C"/>
<stop offset="0.4232" stop-color="#C1932D"/>
<stop offset="0.5621" stop-color="#DEAD26"/>
<stop offset="0.6425" stop-color="#E8B520"/>
<stop offset="0.8178" stop-color="#CA9B2C"/>
<stop offset="1" stop-color="#A87D2C"/>
</linearGradient>
<linearGradient id="paint12_linear_9_1039" x1="38.7255" y1="173.128" x2="238.219" y2="183.335" gradientUnits="userSpaceOnUse">
<stop stop-color="#E8B520"/>
<stop offset="0.0720047" stop-color="#E1AE24"/>
<stop offset="0.1863" stop-color="#C8992C"/>
<stop offset="0.3156" stop-color="#A87D2C"/>
<stop offset="0.4232" stop-color="#C1932D"/>
<stop offset="0.5621" stop-color="#DEAD26"/>
<stop offset="0.6425" stop-color="#E8B520"/>
<stop offset="0.8178" stop-color="#CA9B2C"/>
<stop offset="1" stop-color="#A87D2C"/>
</linearGradient>
<linearGradient id="paint13_linear_9_1039" x1="34.4452" y1="269.798" x2="232.726" y2="279.942" gradientUnits="userSpaceOnUse">
<stop stop-color="#E8B520"/>
<stop offset="0.0720047" stop-color="#E1AE24"/>
<stop offset="0.1863" stop-color="#C8992C"/>
<stop offset="0.3156" stop-color="#A87D2C"/>
<stop offset="0.4232" stop-color="#C1932D"/>
<stop offset="0.5621" stop-color="#DEAD26"/>
<stop offset="0.6425" stop-color="#E8B520"/>
<stop offset="0.8178" stop-color="#CA9B2C"/>
<stop offset="1" stop-color="#A87D2C"/>
</linearGradient>
<linearGradient id="paint14_linear_9_1039" x1="34.9951" y1="246.05" x2="234.489" y2="256.257" gradientUnits="userSpaceOnUse">
<stop stop-color="#E8B520"/>
<stop offset="0.0720047" stop-color="#E1AE24"/>
<stop offset="0.1863" stop-color="#C8992C"/>
<stop offset="0.3156" stop-color="#A87D2C"/>
<stop offset="0.4232" stop-color="#C1932D"/>
<stop offset="0.5621" stop-color="#DEAD26"/>
<stop offset="0.6425" stop-color="#E8B520"/>
<stop offset="0.8178" stop-color="#CA9B2C"/>
<stop offset="1" stop-color="#A87D2C"/>
</linearGradient>
<linearGradient id="paint15_linear_9_1039" x1="36.7123" y1="212.473" x2="236.206" y2="222.68" gradientUnits="userSpaceOnUse">
<stop stop-color="#E8B520"/>
<stop offset="0.0720047" stop-color="#E1AE24"/>
<stop offset="0.1863" stop-color="#C8992C"/>
<stop offset="0.3156" stop-color="#A87D2C"/>
<stop offset="0.4232" stop-color="#C1932D"/>
<stop offset="0.5621" stop-color="#DEAD26"/>
<stop offset="0.6425" stop-color="#E8B520"/>
<stop offset="0.8178" stop-color="#CA9B2C"/>
<stop offset="1" stop-color="#A87D2C"/>
</linearGradient>
<linearGradient id="paint16_linear_9_1039" x1="38.3435" y1="180.581" x2="237.837" y2="190.787" gradientUnits="userSpaceOnUse">
<stop stop-color="#E8B520"/>
<stop offset="0.0720047" stop-color="#E1AE24"/>
<stop offset="0.1863" stop-color="#C8992C"/>
<stop offset="0.3156" stop-color="#A87D2C"/>
<stop offset="0.4232" stop-color="#C1932D"/>
<stop offset="0.5621" stop-color="#DEAD26"/>
<stop offset="0.6425" stop-color="#E8B520"/>
<stop offset="0.8178" stop-color="#CA9B2C"/>
<stop offset="1" stop-color="#A87D2C"/>
</linearGradient>
<linearGradient id="paint17_linear_9_1039" x1="36.2342" y1="221.809" x2="235.728" y2="232.016" gradientUnits="userSpaceOnUse">
<stop stop-color="#E8B520"/>
<stop offset="0.0720047" stop-color="#E1AE24"/>
<stop offset="0.1863" stop-color="#C8992C"/>
<stop offset="0.3156" stop-color="#A87D2C"/>
<stop offset="0.4232" stop-color="#C1932D"/>
<stop offset="0.5621" stop-color="#DEAD26"/>
<stop offset="0.6425" stop-color="#E8B520"/>
<stop offset="0.8178" stop-color="#CA9B2C"/>
<stop offset="1" stop-color="#A87D2C"/>
</linearGradient>
<linearGradient id="paint18_linear_9_1039" x1="36.3615" y1="219.351" x2="235.855" y2="229.558" gradientUnits="userSpaceOnUse">
<stop stop-color="#E8B520"/>
<stop offset="0.0720047" stop-color="#E1AE24"/>
<stop offset="0.1863" stop-color="#C8992C"/>
<stop offset="0.3156" stop-color="#A87D2C"/>
<stop offset="0.4232" stop-color="#C1932D"/>
<stop offset="0.5621" stop-color="#DEAD26"/>
<stop offset="0.6425" stop-color="#E8B520"/>
<stop offset="0.8178" stop-color="#CA9B2C"/>
<stop offset="1" stop-color="#A87D2C"/>
</linearGradient>
<linearGradient id="paint19_linear_9_1039" x1="36.5754" y1="215.158" x2="236.069" y2="225.364" gradientUnits="userSpaceOnUse">
<stop stop-color="#E8B520"/>
<stop offset="0.0720047" stop-color="#E1AE24"/>
<stop offset="0.1863" stop-color="#C8992C"/>
<stop offset="0.3156" stop-color="#A87D2C"/>
<stop offset="0.4232" stop-color="#C1932D"/>
<stop offset="0.5621" stop-color="#DEAD26"/>
<stop offset="0.6425" stop-color="#E8B520"/>
<stop offset="0.8178" stop-color="#CA9B2C"/>
<stop offset="1" stop-color="#A87D2C"/>
</linearGradient>
<linearGradient id="paint20_linear_9_1039" x1="36.8749" y1="209.307" x2="236.369" y2="219.513" gradientUnits="userSpaceOnUse">
<stop stop-color="#E8B520"/>
<stop offset="0.0720047" stop-color="#E1AE24"/>
<stop offset="0.1863" stop-color="#C8992C"/>
<stop offset="0.3156" stop-color="#A87D2C"/>
<stop offset="0.4232" stop-color="#C1932D"/>
<stop offset="0.5621" stop-color="#DEAD26"/>
<stop offset="0.6425" stop-color="#E8B520"/>
<stop offset="0.8178" stop-color="#CA9B2C"/>
<stop offset="1" stop-color="#A87D2C"/>
</linearGradient>
<linearGradient id="paint21_linear_9_1039" x1="37.2709" y1="201.552" x2="236.765" y2="211.758" gradientUnits="userSpaceOnUse">
<stop stop-color="#E8B520"/>
<stop offset="0.0720047" stop-color="#E1AE24"/>
<stop offset="0.1863" stop-color="#C8992C"/>
<stop offset="0.3156" stop-color="#A87D2C"/>
<stop offset="0.4232" stop-color="#C1932D"/>
<stop offset="0.5621" stop-color="#DEAD26"/>
<stop offset="0.6425" stop-color="#E8B520"/>
<stop offset="0.8178" stop-color="#CA9B2C"/>
<stop offset="1" stop-color="#A87D2C"/>
</linearGradient>
<linearGradient id="paint22_linear_9_1039" x1="45.1816" y1="46.9461" x2="244.676" y2="57.1528" gradientUnits="userSpaceOnUse">
<stop stop-color="#E8B520"/>
<stop offset="0.0720047" stop-color="#E1AE24"/>
<stop offset="0.1863" stop-color="#C8992C"/>
<stop offset="0.3156" stop-color="#A87D2C"/>
<stop offset="0.4232" stop-color="#C1932D"/>
<stop offset="0.5621" stop-color="#DEAD26"/>
<stop offset="0.6425" stop-color="#E8B520"/>
<stop offset="0.8178" stop-color="#CA9B2C"/>
<stop offset="1" stop-color="#A87D2C"/>
</linearGradient>
<linearGradient id="paint23_linear_9_1039" x1="44.4664" y1="60.9276" x2="243.96" y2="71.1342" gradientUnits="userSpaceOnUse">
<stop stop-color="#E8B520"/>
<stop offset="0.0720047" stop-color="#E1AE24"/>
<stop offset="0.1863" stop-color="#C8992C"/>
<stop offset="0.3156" stop-color="#A87D2C"/>
<stop offset="0.4232" stop-color="#C1932D"/>
<stop offset="0.5621" stop-color="#DEAD26"/>
<stop offset="0.6425" stop-color="#E8B520"/>
<stop offset="0.8178" stop-color="#CA9B2C"/>
<stop offset="1" stop-color="#A87D2C"/>
</linearGradient>
<linearGradient id="paint24_linear_9_1039" x1="43.9919" y1="70.1867" x2="243.486" y2="80.3933" gradientUnits="userSpaceOnUse">
<stop stop-color="#E8B520"/>
<stop offset="0.0720047" stop-color="#E1AE24"/>
<stop offset="0.1863" stop-color="#C8992C"/>
<stop offset="0.3156" stop-color="#A87D2C"/>
<stop offset="0.4232" stop-color="#C1932D"/>
<stop offset="0.5621" stop-color="#DEAD26"/>
<stop offset="0.6425" stop-color="#E8B520"/>
<stop offset="0.8178" stop-color="#CA9B2C"/>
<stop offset="1" stop-color="#A87D2C"/>
</linearGradient>
<linearGradient id="paint25_linear_9_1039" x1="43.6721" y1="76.448" x2="243.166" y2="86.6547" gradientUnits="userSpaceOnUse">
<stop stop-color="#E8B520"/>
<stop offset="0.0720047" stop-color="#E1AE24"/>
<stop offset="0.1863" stop-color="#C8992C"/>
<stop offset="0.3156" stop-color="#A87D2C"/>
<stop offset="0.4232" stop-color="#C1932D"/>
<stop offset="0.5621" stop-color="#DEAD26"/>
<stop offset="0.6425" stop-color="#E8B520"/>
<stop offset="0.8178" stop-color="#CA9B2C"/>
<stop offset="1" stop-color="#A87D2C"/>
</linearGradient>
<linearGradient id="paint26_linear_9_1039" x1="42.6209" y1="96.9931" x2="242.115" y2="107.2" gradientUnits="userSpaceOnUse">
<stop stop-color="#E8B520"/>
<stop offset="0.0720047" stop-color="#E1AE24"/>
<stop offset="0.1863" stop-color="#C8992C"/>
<stop offset="0.3156" stop-color="#A87D2C"/>
<stop offset="0.4232" stop-color="#C1932D"/>
<stop offset="0.5621" stop-color="#DEAD26"/>
<stop offset="0.6425" stop-color="#E8B520"/>
<stop offset="0.8178" stop-color="#CA9B2C"/>
<stop offset="1" stop-color="#A87D2C"/>
</linearGradient>
<linearGradient id="paint27_linear_9_1039" x1="41.5782" y1="117.365" x2="241.072" y2="127.572" gradientUnits="userSpaceOnUse">
<stop stop-color="#E8B520"/>
<stop offset="0.0720047" stop-color="#E1AE24"/>
<stop offset="0.1863" stop-color="#C8992C"/>
<stop offset="0.3156" stop-color="#A87D2C"/>
<stop offset="0.4232" stop-color="#C1932D"/>
<stop offset="0.5621" stop-color="#DEAD26"/>
<stop offset="0.6425" stop-color="#E8B520"/>
<stop offset="0.8178" stop-color="#CA9B2C"/>
<stop offset="1" stop-color="#A87D2C"/>
</linearGradient>
<linearGradient id="paint28_linear_9_1039" x1="39.8383" y1="151.38" x2="239.332" y2="161.586" gradientUnits="userSpaceOnUse">
<stop stop-color="#E8B520"/>
<stop offset="0.0720047" stop-color="#E1AE24"/>
<stop offset="0.1863" stop-color="#C8992C"/>
<stop offset="0.3156" stop-color="#A87D2C"/>
<stop offset="0.4232" stop-color="#C1932D"/>
<stop offset="0.5621" stop-color="#DEAD26"/>
<stop offset="0.6425" stop-color="#E8B520"/>
<stop offset="0.8178" stop-color="#CA9B2C"/>
<stop offset="1" stop-color="#A87D2C"/>
</linearGradient>
<linearGradient id="paint29_linear_9_1039" x1="44.0626" y1="68.8017" x2="243.557" y2="79.0083" gradientUnits="userSpaceOnUse">
<stop stop-color="#E8B520"/>
<stop offset="0.0720047" stop-color="#E1AE24"/>
<stop offset="0.1863" stop-color="#C8992C"/>
<stop offset="0.3156" stop-color="#A87D2C"/>
<stop offset="0.4232" stop-color="#C1932D"/>
<stop offset="0.5621" stop-color="#DEAD26"/>
<stop offset="0.6425" stop-color="#E8B520"/>
<stop offset="0.8178" stop-color="#CA9B2C"/>
<stop offset="1" stop-color="#A87D2C"/>
</linearGradient>
<linearGradient id="paint30_linear_9_1039" x1="42.4938" y1="99.4615" x2="241.988" y2="109.668" gradientUnits="userSpaceOnUse">
<stop stop-color="#E8B520"/>
<stop offset="0.0720047" stop-color="#E1AE24"/>
<stop offset="0.1863" stop-color="#C8992C"/>
<stop offset="0.3156" stop-color="#A87D2C"/>
<stop offset="0.4232" stop-color="#C1932D"/>
<stop offset="0.5621" stop-color="#DEAD26"/>
<stop offset="0.6425" stop-color="#E8B520"/>
<stop offset="0.8178" stop-color="#CA9B2C"/>
<stop offset="1" stop-color="#A87D2C"/>
</linearGradient>
<linearGradient id="paint31_linear_9_1039" x1="40.3473" y1="141.418" x2="239.841" y2="151.624" gradientUnits="userSpaceOnUse">
<stop stop-color="#E8B520"/>
<stop offset="0.0720047" stop-color="#E1AE24"/>
<stop offset="0.1863" stop-color="#C8992C"/>
<stop offset="0.3156" stop-color="#A87D2C"/>
<stop offset="0.4232" stop-color="#C1932D"/>
<stop offset="0.5621" stop-color="#DEAD26"/>
<stop offset="0.6425" stop-color="#E8B520"/>
<stop offset="0.8178" stop-color="#CA9B2C"/>
<stop offset="1" stop-color="#A87D2C"/>
</linearGradient>
<linearGradient id="paint32_linear_9_1039" x1="39.1643" y1="164.556" x2="238.658" y2="174.763" gradientUnits="userSpaceOnUse">
<stop stop-color="#E8B520"/>
<stop offset="0.0720047" stop-color="#E1AE24"/>
<stop offset="0.1863" stop-color="#C8992C"/>
<stop offset="0.3156" stop-color="#A87D2C"/>
<stop offset="0.4232" stop-color="#C1932D"/>
<stop offset="0.5621" stop-color="#DEAD26"/>
<stop offset="0.6425" stop-color="#E8B520"/>
<stop offset="0.8178" stop-color="#CA9B2C"/>
<stop offset="1" stop-color="#A87D2C"/>
</linearGradient>
<linearGradient id="paint33_linear_9_1039" x1="38.6366" y1="174.862" x2="238.131" y2="185.069" gradientUnits="userSpaceOnUse">
<stop stop-color="#E8B520"/>
<stop offset="0.0720047" stop-color="#E1AE24"/>
<stop offset="0.1863" stop-color="#C8992C"/>
<stop offset="0.3156" stop-color="#A87D2C"/>
<stop offset="0.4232" stop-color="#C1932D"/>
<stop offset="0.5621" stop-color="#DEAD26"/>
<stop offset="0.6425" stop-color="#E8B520"/>
<stop offset="0.8178" stop-color="#CA9B2C"/>
<stop offset="1" stop-color="#A87D2C"/>
</linearGradient>
<linearGradient id="paint34_linear_9_1039" x1="28.695" y1="269.914" x2="237.235" y2="280.583" gradientUnits="userSpaceOnUse">
<stop stop-color="#E8B520"/>
<stop offset="0.0720047" stop-color="#E1AE24"/>
<stop offset="0.1863" stop-color="#C8992C"/>
<stop offset="0.3156" stop-color="#A87D2C"/>
<stop offset="0.4232" stop-color="#C1932D"/>
<stop offset="0.5621" stop-color="#DEAD26"/>
<stop offset="0.6425" stop-color="#E8B520"/>
<stop offset="0.8178" stop-color="#CA9B2C"/>
<stop offset="1" stop-color="#A87D2C"/>
</linearGradient>
<linearGradient id="paint35_linear_9_1039" x1="34.8504" y1="248.875" x2="234.344" y2="259.082" gradientUnits="userSpaceOnUse">
<stop stop-color="#E8B520"/>
<stop offset="0.0720047" stop-color="#E1AE24"/>
<stop offset="0.1863" stop-color="#C8992C"/>
<stop offset="0.3156" stop-color="#A87D2C"/>
<stop offset="0.4232" stop-color="#C1932D"/>
<stop offset="0.5621" stop-color="#DEAD26"/>
<stop offset="0.6425" stop-color="#E8B520"/>
<stop offset="0.8178" stop-color="#CA9B2C"/>
<stop offset="1" stop-color="#A87D2C"/>
</linearGradient>
<linearGradient id="paint36_linear_9_1039" x1="36.44" y1="217.789" x2="235.934" y2="227.995" gradientUnits="userSpaceOnUse">
<stop stop-color="#E8B520"/>
<stop offset="0.0720047" stop-color="#E1AE24"/>
<stop offset="0.1863" stop-color="#C8992C"/>
<stop offset="0.3156" stop-color="#A87D2C"/>
<stop offset="0.4232" stop-color="#C1932D"/>
<stop offset="0.5621" stop-color="#DEAD26"/>
<stop offset="0.6425" stop-color="#E8B520"/>
<stop offset="0.8178" stop-color="#CA9B2C"/>
<stop offset="1" stop-color="#A87D2C"/>
</linearGradient>
<linearGradient id="paint37_linear_9_1039" x1="37.9337" y1="188.61" x2="237.428" y2="198.817" gradientUnits="userSpaceOnUse">
<stop stop-color="#E8B520"/>
<stop offset="0.0720047" stop-color="#E1AE24"/>
<stop offset="0.1863" stop-color="#C8992C"/>
<stop offset="0.3156" stop-color="#A87D2C"/>
<stop offset="0.4232" stop-color="#C1932D"/>
<stop offset="0.5621" stop-color="#DEAD26"/>
<stop offset="0.6425" stop-color="#E8B520"/>
<stop offset="0.8178" stop-color="#CA9B2C"/>
<stop offset="1" stop-color="#A87D2C"/>
</linearGradient>
<linearGradient id="paint38_linear_9_1039" x1="36.2122" y1="222.255" x2="235.706" y2="232.462" gradientUnits="userSpaceOnUse">
<stop stop-color="#E8B520"/>
<stop offset="0.0720047" stop-color="#E1AE24"/>
<stop offset="0.1863" stop-color="#C8992C"/>
<stop offset="0.3156" stop-color="#A87D2C"/>
<stop offset="0.4232" stop-color="#C1932D"/>
<stop offset="0.5621" stop-color="#DEAD26"/>
<stop offset="0.6425" stop-color="#E8B520"/>
<stop offset="0.8178" stop-color="#CA9B2C"/>
<stop offset="1" stop-color="#A87D2C"/>
</linearGradient>
<linearGradient id="paint39_linear_9_1039" x1="36.3094" y1="220.355" x2="235.803" y2="230.561" gradientUnits="userSpaceOnUse">
<stop stop-color="#E8B520"/>
<stop offset="0.0720047" stop-color="#E1AE24"/>
<stop offset="0.1863" stop-color="#C8992C"/>
<stop offset="0.3156" stop-color="#A87D2C"/>
<stop offset="0.4232" stop-color="#C1932D"/>
<stop offset="0.5621" stop-color="#DEAD26"/>
<stop offset="0.6425" stop-color="#E8B520"/>
<stop offset="0.8178" stop-color="#CA9B2C"/>
<stop offset="1" stop-color="#A87D2C"/>
</linearGradient>
<linearGradient id="paint40_linear_9_1039" x1="36.501" y1="216.599" x2="235.995" y2="226.806" gradientUnits="userSpaceOnUse">
<stop stop-color="#E8B520"/>
<stop offset="0.0720047" stop-color="#E1AE24"/>
<stop offset="0.1863" stop-color="#C8992C"/>
<stop offset="0.3156" stop-color="#A87D2C"/>
<stop offset="0.4232" stop-color="#C1932D"/>
<stop offset="0.5621" stop-color="#DEAD26"/>
<stop offset="0.6425" stop-color="#E8B520"/>
<stop offset="0.8178" stop-color="#CA9B2C"/>
<stop offset="1" stop-color="#A87D2C"/>
</linearGradient>
<linearGradient id="paint41_linear_9_1039" x1="36.7711" y1="211.328" x2="236.265" y2="221.535" gradientUnits="userSpaceOnUse">
<stop stop-color="#E8B520"/>
<stop offset="0.0720047" stop-color="#E1AE24"/>
<stop offset="0.1863" stop-color="#C8992C"/>
<stop offset="0.3156" stop-color="#A87D2C"/>
<stop offset="0.4232" stop-color="#C1932D"/>
<stop offset="0.5621" stop-color="#DEAD26"/>
<stop offset="0.6425" stop-color="#E8B520"/>
<stop offset="0.8178" stop-color="#CA9B2C"/>
<stop offset="1" stop-color="#A87D2C"/>
</linearGradient>
<linearGradient id="paint42_linear_9_1039" x1="37.1457" y1="204.005" x2="236.639" y2="214.211" gradientUnits="userSpaceOnUse">
<stop stop-color="#E8B520"/>
<stop offset="0.0720047" stop-color="#E1AE24"/>
<stop offset="0.1863" stop-color="#C8992C"/>
<stop offset="0.3156" stop-color="#A87D2C"/>
<stop offset="0.4232" stop-color="#C1932D"/>
<stop offset="0.5621" stop-color="#DEAD26"/>
<stop offset="0.6425" stop-color="#E8B520"/>
<stop offset="0.8178" stop-color="#CA9B2C"/>
<stop offset="1" stop-color="#A87D2C"/>
</linearGradient>
<clipPath id="clip0_9_1039">
<rect width="1024" height="320.329" fill="white" transform="translate(0 0.636719)"/>
</clipPath>
</defs>
</svg>
