<svg width="1024" height="352" viewBox="0 0 1024 352" fill="none" xmlns="http://www.w3.org/2000/svg">
<path d="M27.7754 4.02447L87.8932 64.7614C89.2995 66.1657 90.7057 66.5168 92.8152 66.5168H346.295C348.052 66.5168 349.108 64.4103 347.349 62.6549L287.935 2.62016C286.528 1.21583 285.122 0.513672 282.31 0.513672H29.1816C26.7206 0.513672 26.3691 2.62016 27.7754 4.02447Z" fill="#850122"/>
<path d="M18.9862 348.78C18.6347 350.184 19.3378 351.588 21.0956 351.588H271.06C273.521 351.588 274.575 350.535 275.278 348.429L350.865 104.778C351.568 102.321 350.514 101.619 348.404 101.619H97.7369C95.6282 101.619 94.9246 102.321 94.2215 104.076L18.9862 348.78Z" fill="#850122"/>
<path d="M0.00161743 278.565C0.00161743 281.373 3.51728 281.373 4.22041 278.565L61.5257 92.1408C62.2289 90.0342 62.2289 88.63 60.4711 86.8745L3.51728 30.3506C2.11101 28.9462 0.00161743 29.6484 0.00161743 31.4038V278.565Z" fill="#850122"/>
<path d="M870.961 217.688C870.961 184.348 896.078 144.566 938.813 144.566H970.302L959.056 180.937C945.935 224.508 924.942 251.409 899.451 251.409C881.083 251.409 870.961 238.527 870.961 217.688ZM710.892 199.502C695.148 250.651 719.14 285.886 773.495 285.886C781.368 285.886 791.864 285.128 794.863 284.37C796.362 283.991 797.112 283.233 797.862 281.339L807.233 249.514C807.608 247.619 807.233 246.104 804.61 246.482C796.362 247.24 788.865 247.998 782.118 247.998C754.752 247.998 743.506 233.223 751.753 206.701L770.872 144.566H826.352C827.851 144.566 828.976 143.808 829.725 141.913L839.472 109.709C839.847 107.815 839.097 106.678 836.848 106.678H782.492L789.614 83.188C789.99 81.6725 789.615 80.5359 788.49 79.3993L759.626 52.878C758.125 51.3626 756.251 51.7414 755.501 54.0147L710.892 199.502ZM519.709 200.639C503.59 252.544 529.456 286.644 569.942 286.644C593.184 286.644 611.553 275.277 624.673 256.713L624.298 280.582C624.298 282.855 625.422 283.612 627.297 283.612H653.163C655.037 283.612 655.787 282.855 656.537 280.961L708.643 110.088C709.393 107.815 708.268 106.678 706.394 106.678H669.282C667.408 106.678 666.283 107.436 665.908 109.33L643.791 181.316C629.92 226.024 608.178 251.409 585.311 251.409C562.444 251.409 552.698 233.223 561.32 205.185L590.56 110.088C591.31 107.815 590.185 106.678 588.31 106.678H551.198C549.324 106.678 548.575 107.436 547.825 109.33L519.709 200.639ZM393.379 199.502C377.634 250.651 401.626 285.886 455.982 285.886C463.854 285.886 474.35 285.128 477.349 284.37C478.849 283.991 479.598 283.233 480.348 281.339L489.72 249.514C490.095 247.619 489.72 246.104 487.096 246.482C478.849 247.24 471.351 247.998 464.604 247.998C437.238 247.998 425.992 233.223 434.239 206.701L453.358 144.566H508.838C510.338 144.566 511.837 143.808 512.212 141.913L521.958 109.709C522.333 107.815 521.584 106.678 519.335 106.678H464.604L471.726 83.188C472.101 81.6725 471.726 80.5359 470.602 79.3993L441.737 52.878C440.237 51.3626 438.363 51.7414 437.613 54.0147L393.379 199.502ZM885.956 286.644C907.699 286.644 925.692 276.793 939.188 256.713V280.582C939.188 282.476 940.312 283.612 942.186 283.612H968.052C969.927 283.612 970.677 282.855 971.426 280.961L1023.91 109.709C1024.28 107.815 1023.53 106.299 1021.66 106.299H939.937C860.09 106.299 828.976 176.391 828.976 221.855C828.976 261.638 853.343 286.644 885.956 286.644Z" fill="#410002"/>
</svg>
