<svg width="379" height="513" viewBox="0 0 379 513" fill="none" xmlns="http://www.w3.org/2000/svg">
<g clip-path="url(#clip0_2_15201)">
<path d="M285.027 487.081C285.027 482.653 281.462 479.057 277.026 479.057C272.606 479.057 269.01 482.653 269.01 487.081C269.01 491.509 272.606 495.098 277.026 495.098C281.462 495.098 285.027 491.509 285.027 487.081ZM270.737 487.081C270.737 483.598 273.55 480.777 277.026 480.777C280.501 480.777 283.316 483.598 283.316 487.081C283.316 490.549 280.501 493.378 277.026 493.378C273.55 493.378 270.737 490.549 270.737 487.081Z" fill="black"/>
<path d="M280.328 491.663L278.51 487.791C279.561 487.416 280.328 486.393 280.328 485.224C280.327 484.5 280.038 483.805 279.526 483.293C279.013 482.781 278.318 482.493 277.594 482.492H273.73V491.663H275.458V487.947H276.696L278.429 491.663H280.328ZM277.594 486.221H275.458V484.232H277.594C278.166 484.232 278.6 484.676 278.6 485.224C278.6 485.781 278.166 486.221 277.594 486.221Z" fill="black"/>
<path d="M219.305 28.8267L189.455 0.802734C189.455 0.802734 164.74 24.0051 159.605 28.8267H0.314697V378.662C59.7803 444.581 109.703 476.068 189.455 512.803C269.051 476.139 319.031 444.691 378.595 378.662V28.8267H219.305Z" fill="white"/>
<path d="M216.692 35.4155C216.416 35.1435 189.452 9.83789 189.452 9.83789C189.452 9.83789 162.491 35.1435 162.214 35.4155H6.89966V376.133C62.6181 437.915 112.292 470.005 189.453 505.553C266.45 470.081 316.114 438.108 372.007 376.133V35.4155H216.692ZM66.1756 181.553V361.773C63.9542 359.58 61.7588 357.36 59.5901 355.115V181.555C59.5901 108.072 101.858 57.4211 162.2 35.4291C162.931 35.9395 164.23 39.1363 164.549 39.9675C165.485 42.4091 166.248 45.1739 166.845 47.7435C166.845 47.7435 163.549 44.9867 160.261 43.4091C95.8252 70.3307 66.1756 119.933 66.1756 181.554V181.553ZM185.128 331.681L156 237.471L165.79 227.682L163.465 239.32L189.453 323.375L185.128 331.681ZM219.693 423.99L208.105 437.306L294.34 188.649L302.705 184.629L219.693 423.99Z" fill="#B9975B"/>
<path d="M358.836 48.5879V371.072C307.951 427.497 254.632 461.021 189.455 491.051C124.279 461.021 70.9595 427.497 20.0747 371.072V48.5879H134.001C89.1011 74.7087 59.5923 120.161 59.5923 181.555V355.115C90.2091 386.846 131.592 418.778 170.804 437.306L84.5659 188.65L165.792 227.682L156.003 237.473L185.131 331.682H193.781L222.909 237.473L213.119 227.683L294.343 188.65L208.107 437.306C247.052 418.904 288.458 387.099 319.319 355.115V181.555C319.319 120.161 289.81 74.7087 244.91 48.5879H358.836Z" fill="black"/>
<path d="M212.06 47.7368C214.372 37.7848 216.704 35.4232 216.704 35.4232C207.622 26.8904 198.538 18.36 189.452 9.83203V258.565L207.527 200.394L303.834 154.049C295.233 104.251 262.788 66.2248 212.06 47.7368ZM312.73 206.415L241.071 413.797L253.491 397.757C253.491 397.757 286.147 372.758 306.143 349.738V243.774L312.73 206.415ZM66.1746 206.415L125.811 379.002L92.6586 300.879L72.761 243.774L66.1746 206.415ZM164.84 189.449L88.1442 160.341L171.377 200.395V78.5152L164.84 189.449Z" fill="#333F48"/>
</g>
<defs>
<clipPath id="clip0_2_15201">
<rect width="378.28" height="512" fill="white" transform="translate(0.314453 0.800781)"/>
</clipPath>
</defs>
</svg>
