<svg width="994" height="513" viewBox="0 0 994 513" fill="none" xmlns="http://www.w3.org/2000/svg">
<g clip-path="url(#clip0_4_62)">
<path d="M204.645 434.446C204.645 400.866 223.301 383.039 248.59 383.039C271.806 383.039 282.585 395.891 287.145 414.132L270.977 418.693C267.246 405.426 261.442 398.793 248.175 398.793C231.178 398.793 221.642 411.645 221.642 434.446C221.642 458.077 231.592 471.344 248.59 471.344C261.442 471.344 268.904 464.71 272.635 449.786L288.803 453.517C283.829 473.416 271.806 486.683 248.59 486.683C222.886 486.268 204.645 468.856 204.645 434.446Z" fill="black"/>
<path d="M297.924 448.956C297.924 422.423 315.336 411.645 332.748 411.645C350.161 411.645 367.573 422.423 367.573 448.956C367.573 475.074 350.161 486.268 332.748 486.268C315.336 485.853 297.924 475.074 297.924 448.956ZM350.99 448.956C350.99 435.69 345.186 425.74 332.748 425.74C320.726 425.74 314.507 434.446 314.507 448.956C314.507 462.637 319.897 472.172 332.748 472.172C344.771 472.172 350.99 463.466 350.99 448.956Z" fill="black"/>
<path d="M379.181 484.61V413.303H395.764V423.253C401.153 417.034 409.445 412.059 420.224 412.059C432.247 412.059 436.807 416.619 439.709 423.667C445.513 417.449 453.804 412.059 464.583 412.059C479.093 412.059 485.312 420.765 485.312 433.617V484.61H468.729V437.348C468.729 429.471 466.242 425.74 458.779 425.74C452.146 425.74 446.757 429.471 440.538 434.861V484.61H423.955V437.348C423.955 429.471 421.468 425.74 414.005 425.74C407.372 425.74 401.983 429.471 395.764 434.861V484.61H379.181Z" fill="black"/>
<path d="M501.066 511.557V413.303H517.649V422.838C522.209 417.034 529.672 412.059 540.451 412.059C556.619 412.059 568.642 424.496 568.642 448.956C568.642 473.831 556.204 485.853 537.963 485.853C530.086 485.853 522.624 482.951 517.649 476.733V511.557H501.066ZM552.059 448.956C552.059 434.032 545.425 425.74 535.061 425.74C528.013 425.74 521.795 429.886 517.649 434.861V463.466C522.209 469.27 528.428 472.172 534.646 472.172C546.669 472.587 552.059 464.71 552.059 448.956Z" fill="black"/>
<path d="M575.689 467.198C575.689 451.858 588.956 441.494 622.122 437.763V435.69C622.122 428.642 618.391 425.326 610.514 425.326C600.564 425.326 592.272 430.3 586.468 434.861L578.591 424.496C586.468 417.449 598.076 411.645 613.001 411.645C632.072 411.645 638.705 420.765 638.705 437.348V466.783C638.705 475.489 639.119 480.464 640.778 484.195H624.195C623.366 481.293 622.536 479.22 622.536 475.074C615.074 482.537 606.783 485.439 596.004 485.439C584.396 485.439 575.689 479.22 575.689 467.198ZM622.536 464.71V448.956C602.637 451.444 592.272 456.419 592.272 464.296C592.272 470.1 596.004 473.002 602.222 473.002C610.514 473.002 617.147 469.685 622.536 464.71Z" fill="black"/>
<path d="M653.629 484.61V413.303H670.212V424.911C675.602 418.692 683.893 412.059 695.916 412.059C708.768 412.059 717.059 418.692 717.059 432.788V484.61H700.476V437.348C700.476 429.471 697.16 425.325 689.697 425.325C682.235 425.325 676.431 429.057 670.212 434.446V484.195H653.629V484.61Z" fill="black"/>
<path d="M720.791 510.314L724.522 497.047C726.595 497.462 730.74 498.706 736.544 498.706C742.348 498.706 745.665 496.218 747.738 490.829L749.811 485.439L722.449 413.718H739.861L758.102 465.954H758.517L776.758 413.718H793.341L763.077 492.902C758.517 505.339 752.298 512.801 738.203 512.801C729.497 512.387 724.522 511.143 720.791 510.314Z" fill="black"/>
<path d="M413.176 100.299V16.5546H382.498V0.800781H460.852V16.5546H430.174V100.713H413.176V100.299Z" fill="black"/>
<path d="M470.802 100.299V0.800781H487.385V38.5271C491.945 33.5522 500.651 27.3336 513.503 27.3336C525.94 27.3336 534.232 34.7959 534.232 48.8915V100.299H517.649V53.4518C517.649 45.5749 514.332 41.8437 506.87 41.8437C499.408 41.8437 493.604 45.5749 487.385 50.9643V100.299H470.802Z" fill="black"/>
<path d="M545.426 64.6452C545.426 37.2833 564.496 27.3335 579.421 27.3335C595.589 27.3335 610.928 36.8687 610.928 65.889V70.0347H562.009C562.838 82.8865 570.715 88.6906 581.079 88.6906C590.2 88.6906 595.589 85.7886 600.979 80.3991L609.685 89.1052C602.222 97.3967 592.273 101.957 579.835 101.957C562.009 101.957 545.426 91.178 545.426 64.6452ZM595.589 58.012C594.76 47.2331 589.37 41.429 579.421 41.429C571.544 41.429 564.081 45.9894 562.423 58.012H595.589Z" fill="black"/>
<path d="M613.83 210.161C613.83 210.161 616.318 206.43 618.391 203.528C622.122 198.553 628.755 191.505 634.144 186.945C635.803 185.701 637.461 184.043 637.461 184.043C637.461 184.043 634.559 184.458 632.901 184.872C629.169 185.701 623.365 189.433 620.463 191.92C615.903 196.066 610.514 202.284 613.001 208.503C613.416 208.918 613.83 210.161 613.83 210.161ZM639.948 217.209C647.411 216.795 654.459 214.722 660.677 210.991C666.896 207.259 676.431 200.626 675.602 192.335C675.187 189.847 673.529 187.774 671.456 186.945C668.554 185.701 667.31 186.116 663.579 186.945C661.092 187.774 659.848 188.189 657.361 189.433C649.898 193.578 639.534 202.699 634.144 209.747C632.901 211.405 631.657 213.478 630.413 214.722C629.584 215.551 629.169 216.38 629.169 216.38C629.584 217.209 637.046 217.209 639.948 217.209ZM620.878 230.89C620.049 231.719 619.22 233.792 618.391 235.036C617.976 235.865 617.147 236.694 616.732 237.109C614.659 238.352 613.001 238.767 611.343 237.109C608.855 234.621 607.197 231.305 607.197 227.574C607.197 225.915 607.197 224.257 607.197 223.013C606.782 220.94 604.71 218.453 603.466 216.38C602.222 213.893 600.978 209.747 600.978 206.845C600.564 198.139 605.124 190.262 610.928 184.043C616.732 177.825 624.609 172.435 632.901 169.118C640.778 165.802 652.386 163.314 661.092 166.631C663.994 167.46 667.725 169.948 669.798 172.435C670.212 172.85 670.627 173.679 671.042 173.679C671.456 174.093 672.285 174.093 673.114 174.093C676.016 174.508 679.748 176.581 681.406 178.239C684.723 181.141 686.381 183.629 687.21 187.774C688.868 195.651 684.308 204.357 679.333 209.747C670.627 218.867 661.506 225.086 650.313 229.646C645.338 231.719 637.461 233.378 632.071 232.963C630.413 232.963 628.34 232.548 626.682 232.134C625.853 232.134 622.536 231.305 622.122 230.89C621.707 231.305 621.293 230.89 620.878 230.89ZM350.161 254.106C354.721 253.692 357.623 253.692 361.354 252.033C363.427 251.204 365.914 249.131 364.671 246.644C363.842 244.986 361.354 244.571 360.11 244.986C355.135 245.4 351.404 249.131 350.161 254.106C349.746 254.106 349.746 254.106 350.161 254.106ZM370.889 242.084C373.791 245.4 375.035 249.546 375.035 254.106C375.45 258.667 373.791 262.812 371.304 266.129C367.158 271.933 360.11 274.835 352.648 275.25C351.819 275.25 346.015 275.664 344.357 274.835C343.942 274.835 343.942 274.835 343.942 274.835C343.942 274.835 342.698 278.981 342.698 280.225C341.869 285.199 341.454 288.516 340.625 292.662C340.211 295.564 339.796 298.88 339.382 302.197C337.723 321.267 338.138 330.803 339.796 349.873C339.796 351.117 339.796 352.361 339.796 353.19C339.382 355.263 338.138 356.921 335.65 357.75C329.017 359.408 322.799 352.775 319.482 347.8C312.02 335.363 314.507 310.488 316.58 298.051C317.409 293.076 319.897 281.468 321.555 277.322C322.384 275.25 323.628 270.689 323.628 270.689C323.628 270.689 319.897 269.031 316.995 267.787C315.751 267.373 311.605 265.3 309.947 264.056C306.216 261.983 304.143 259.91 301.655 257.423C300.826 256.594 298.339 252.863 297.924 252.033C295.851 247.473 295.851 243.742 297.51 238.767C297.924 237.523 300.412 232.548 302.07 232.548C304.557 232.963 303.728 236.694 304.557 238.767C304.972 239.596 305.386 240.425 305.801 241.254C309.118 244.986 319.897 249.546 324.457 250.79C325.286 250.79 331.919 253.277 333.163 252.448C333.578 252.448 334.821 249.961 335.65 248.717C336.065 247.888 336.48 247.473 337.309 246.644C341.454 242.084 348.088 237.523 354.306 236.28C357.208 235.865 362.598 236.28 365.085 237.523C366.329 238.352 367.987 239.182 370.889 242.084ZM304.557 296.393C304.557 296.393 304.972 296.393 305.386 296.807C308.703 298.051 308.703 303.855 307.874 306.757C305.801 313.805 299.168 321.267 293.778 324.999C290.462 327.071 283.829 330.388 279.268 331.217C271.806 332.461 265.587 330.803 261.442 324.584C257.71 319.195 256.467 312.561 256.052 306.343C255.223 288.516 261.027 261.983 268.075 247.059C268.904 244.986 273.464 235.865 278.025 234.207C282.17 232.548 284.243 237.523 284.658 241.669C285.072 246.644 283.829 252.863 282.585 257.837C280.512 266.958 277.195 281.054 276.781 285.199C275.952 289.345 274.293 298.466 274.708 303.441C275.122 305.928 275.537 307.172 277.195 307.172C278.025 307.172 290.047 301.368 296.68 298.88C298.753 297.222 301.655 296.393 304.557 296.393ZM215.009 288.101C215.009 288.101 216.253 288.101 217.911 288.101C222.471 288.101 229.934 287.272 229.934 287.272C229.934 287.272 229.105 280.639 228.276 276.493C227.861 273.591 227.446 271.933 226.617 269.86C226.203 269.031 225.788 266.129 224.959 264.885C224.959 264.471 224.544 264.471 224.544 264.471C224.544 264.471 220.813 271.518 218.74 276.493C217.082 280.225 216.253 283.127 215.009 285.614C214.595 286.029 214.595 286.858 214.595 287.687C215.009 287.687 215.009 288.101 215.009 288.101ZM190.964 288.931C190.964 288.931 193.037 283.956 194.695 280.225C196.353 276.493 205.474 258.252 209.205 253.277C213.351 247.473 221.228 237.109 221.228 236.694C221.228 235.45 221.642 233.378 222.886 231.719C223.715 230.476 225.788 229.646 227.861 229.646C229.934 229.646 232.421 231.305 233.665 232.963C235.738 236.694 239.054 246.644 239.884 249.131C243.615 262.398 248.175 287.687 249.419 300.539C249.833 303.855 251.077 321.682 251.077 325.413C251.077 328.315 251.077 332.876 249.419 334.948C249.004 335.778 247.761 336.607 246.517 336.607C244.859 336.607 241.957 334.534 240.713 333.29C236.982 329.974 234.494 326.242 234.08 322.097C233.25 318.365 232.421 308.001 232.421 308.001L216.667 308.416H207.961C207.961 308.416 207.132 310.488 206.303 312.147C204.645 315.878 203.401 319.609 202.986 321.682C201.743 325.828 199.67 334.119 199.255 335.363C198.012 337.85 197.182 339.509 194.695 339.923C191.793 340.338 189.72 340.338 187.647 339.509C183.916 337.436 181.843 332.876 181.429 327.901C180.185 320.024 183.501 313.39 186.818 303.855C188.062 299.71 186.403 298.466 183.087 293.491C182.672 292.662 182.258 292.247 182.258 291.418C182.258 291.003 182.672 289.345 183.501 288.931C183.916 288.931 183.916 288.931 184.331 288.516L190.964 288.931ZM101.001 237.109C101.001 237.109 100.586 232.134 100.172 229.232C99.7573 226.744 99.3427 225.086 98.099 223.013C96.8553 220.94 96.0261 219.697 93.9533 219.282C91.4658 218.867 90.2221 220.526 88.5638 223.013C86.4909 226.33 84.418 232.134 83.1743 235.865C81.516 241.254 80.6869 244.571 79.8577 250.79C78.1994 260.739 76.9557 277.737 78.614 289.345C79.0286 291.418 79.4431 294.32 79.4431 294.32C79.4431 294.32 81.9306 291.418 83.5889 289.76C84.418 288.931 87.7346 283.541 88.1492 283.127C88.9784 281.883 90.6367 279.395 90.6367 278.566C91.0512 278.152 93.5387 272.348 93.9533 271.104C94.7824 268.616 96.0261 264.885 97.2699 261.569C99.3427 254.521 99.3427 252.033 100.586 244.157C101.001 243.742 101.001 237.109 101.001 237.109ZM83.5889 311.732C83.5889 311.732 84.418 313.391 85.2472 314.634C89.3929 321.682 96.0261 325.828 104.318 326.242C112.609 326.657 123.388 321.682 129.192 317.536C146.604 305.514 155.725 283.541 160.7 262.812C166.504 238.352 166.918 212.649 159.871 189.018C155.725 175.337 147.848 157.925 138.313 147.975C135.411 145.073 130.85 140.927 129.607 138.854C128.363 137.196 127.948 135.538 130.021 134.294C132.094 133.05 136.654 135.538 139.142 137.196C150.75 144.244 158.212 150.877 164.846 160.827C166.504 163.314 173.552 174.508 174.795 176.995C182.672 191.505 186.403 203.943 188.476 220.111C190.964 240.425 189.306 263.642 182.258 283.956C179.356 293.076 174.381 302.197 169.406 310.074C168.162 311.732 161.114 321.682 160.285 322.511C157.798 324.999 151.579 330.388 148.677 332.876C134.167 344.484 118.828 351.946 101.83 349.873C92.295 348.629 84.8326 345.727 77.3703 339.509C74.4682 337.021 69.4933 332.046 67.8351 328.73C66.5913 326.657 64.933 323.755 64.933 323.755C64.5185 323.755 63.6893 324.169 62.8602 324.999C62.031 325.413 58.7144 327.071 57.0561 327.901C45.448 332.046 32.1816 331.217 21.8172 324.169C13.9403 319.195 7.30711 309.659 4.40509 300.953C0.259341 288.101 -0.155235 274.835 1.50306 261.154C4.40509 237.938 12.6966 215.965 25.1338 196.48C33.0108 184.043 42.9606 172.02 55.3978 163.314C56.6415 162.485 64.1039 157.925 65.7622 157.51C68.6642 156.267 71.9808 155.023 74.0537 157.096C75.2974 158.339 75.2974 159.169 74.4682 160.827C73.2245 163.314 69.9079 166.631 68.2496 168.289C66.5913 169.948 57.8853 181.141 55.8124 183.629C53.7395 186.531 44.6189 199.797 43.3751 202.284C31.767 222.184 22.6464 253.692 23.4755 278.152C23.4755 283.127 24.3047 290.589 25.5484 295.149C27.2067 301.368 30.9379 310.074 36.7419 314.22C42.546 318.365 48.35 318.365 55.3978 315.463C57.4707 314.634 59.9581 313.391 59.9581 313.391C59.9581 313.391 57.8853 308.001 56.6415 303.855C52.9104 292.662 51.2521 274.835 52.9104 262.398C54.1541 252.448 56.227 244.571 60.7873 236.694C64.5185 230.476 69.4933 223.842 75.2974 218.867C81.1014 213.893 90.6367 209.332 98.9282 209.332C105.976 209.332 113.024 212.234 116.755 218.453C122.974 229.232 123.388 246.644 121.73 257.837C119.242 274.835 110.122 291.003 97.2699 301.782C92.7095 305.099 83.5889 311.732 83.5889 311.732ZM631.242 248.302C631.657 248.302 632.071 248.717 632.486 248.717C636.632 250.375 638.29 254.106 639.119 257.837C641.607 267.373 642.436 288.101 642.85 295.978C643.265 302.197 643.265 308.001 643.68 314.22C644.094 319.195 644.094 326.242 643.265 330.803C642.85 332.461 641.607 334.534 639.948 335.778C637.876 337.021 633.73 337.021 631.242 336.607C625.438 335.363 623.365 331.632 622.536 325.828C620.463 312.147 621.707 285.199 622.536 273.591C622.951 269.86 624.195 257.837 626.267 252.863C627.097 251.619 628.755 247.888 631.242 248.302ZM451.731 269.031C451.731 269.031 443.025 269.446 437.221 270.275C429.759 271.104 415.663 273.591 407.372 276.493C404.884 277.323 399.91 279.395 399.495 281.883C399.08 284.37 400.739 286.443 402.397 288.516C403.641 289.76 409.445 295.564 411.103 296.807C418.151 302.612 432.246 311.732 442.611 315.878C446.342 317.536 452.146 319.609 452.146 319.609C452.146 319.609 451.731 302.612 451.731 286.029C451.317 277.737 451.731 269.031 451.731 269.031ZM609.684 275.664C610.099 280.225 608.855 288.931 608.855 289.76C608.441 292.247 606.368 298.466 606.368 298.88C604.71 302.612 603.051 305.514 601.393 308.416C598.491 313.391 591.858 321.682 587.712 324.999C572.787 337.85 549.986 345.313 530.086 347.386C516.82 349.044 501.48 348.629 486.97 346.142C481.995 345.313 474.948 343.654 474.948 343.654C474.948 343.654 474.948 346.556 474.533 348.629C474.533 349.459 473.704 351.946 473.289 352.775C472.46 354.848 470.387 356.092 468.314 356.506C465.412 356.921 462.096 357.335 459.608 356.092C455.048 354.019 453.39 349.873 452.561 345.313C451.731 341.582 451.317 334.534 451.317 334.534C451.317 334.534 448 332.876 445.098 331.632C436.392 327.486 428.101 322.097 421.053 316.707C418.98 315.049 410.689 308.001 408.616 306.343C403.226 301.368 398.666 296.393 394.935 289.76C392.033 284.785 391.203 280.224 393.276 274.835C396.178 267.373 406.957 261.983 414.005 258.667C419.395 256.179 435.978 250.79 442.611 249.961C445.927 249.546 450.902 248.717 451.317 248.302C451.317 248.302 451.731 248.302 451.731 247.888C451.731 247.473 452.146 240.425 452.146 237.523C452.146 235.036 454.219 217.624 454.633 213.893C455.048 211.82 456.292 204.357 457.95 202.284C458.779 201.041 460.852 201.041 462.096 201.87C469.973 206.845 472.46 223.842 472.875 232.548C473.289 237.938 473.289 245.815 473.289 245.815C473.289 245.815 482.41 245.4 487.799 245.815C493.189 245.815 498.993 246.644 504.797 247.888C511.845 249.131 525.94 252.033 533.817 256.179C540.45 259.496 546.669 265.3 548.742 271.104C550.4 276.493 550.4 280.224 547.498 285.199C544.182 290.589 538.378 294.735 532.159 295.149C530.501 295.149 523.453 294.32 521.38 292.662C520.551 291.833 520.551 291.003 521.38 290.174C521.795 289.76 524.697 288.101 526.769 287.272C527.599 286.858 528.428 286.029 529.257 285.614C530.915 284.37 532.159 282.712 532.159 281.054C531.744 278.566 529.672 277.323 527.184 276.493C516.405 272.348 494.433 268.616 483.654 267.787C479.508 267.373 473.704 267.373 473.704 267.373L474.948 325.828C474.948 325.828 479.923 326.657 483.654 327.486C485.727 327.901 495.262 328.73 497.749 328.73C516.82 329.144 537.548 327.486 554.961 319.195C562.423 315.463 569.471 311.318 574.86 305.099C581.908 297.222 585.639 286.029 584.395 274.835C583.152 262.398 574.446 247.473 567.398 238.352C548.742 214.722 517.234 194.822 489.043 183.629C460.437 172.02 432.246 164.973 401.982 164.144C394.105 163.729 377.108 164.144 368.402 166.631C367.158 167.046 365.914 167.46 364.671 167.46C363.842 167.46 362.183 168.289 361.769 168.704C361.354 168.704 361.354 169.118 361.354 169.118C361.354 169.118 361.769 169.533 362.183 169.533C363.012 169.948 366.744 170.362 368.816 170.362C370.475 170.777 372.548 171.606 372.962 172.85C373.791 174.093 373.791 174.922 372.962 176.166C370.889 178.654 363.842 178.239 360.525 177.825C357.208 177.41 353.063 176.166 352.233 173.264C351.404 169.948 353.063 166.631 354.721 163.314C358.452 157.096 363.427 153.779 370.889 151.706C381.254 148.804 394.935 146.731 404.884 146.317C427.272 145.488 448.829 149.219 470.802 155.852C483.239 159.583 499.822 165.802 511.845 171.606C520.551 175.752 534.232 183.214 541.694 188.603C544.182 190.262 558.277 200.626 560.35 202.284C564.91 206.016 570.714 211.405 575.275 215.551C583.566 223.842 593.931 236.694 598.905 246.644C600.149 249.131 600.978 251.619 602.637 254.106C603.051 254.935 605.539 260.74 605.953 262.398C606.368 264.056 606.782 266.544 606.782 266.544C608.855 269.031 609.684 274.006 609.684 275.664ZM707.11 280.225C707.524 280.225 707.524 280.225 707.939 280.225C714.986 281.054 721.62 282.297 727.009 284.785C731.984 286.858 734.471 289.76 737.374 294.32C741.105 301.782 741.519 311.732 738.203 319.609C735.715 325.413 729.911 329.973 724.522 332.876C719.132 335.363 713.743 336.607 707.524 337.436C696.745 338.68 684.723 336.607 675.187 331.632C669.383 328.73 662.335 323.755 658.604 317.536C656.117 312.976 656.117 306.757 659.433 302.612C664.408 295.564 675.602 294.32 683.479 294.32C689.697 294.735 700.891 296.393 707.11 298.466C708.768 298.88 714.986 301.368 715.816 302.612C716.645 303.441 717.059 304.27 716.645 305.514C715.401 309.659 705.037 311.732 702.135 312.147C694.258 313.39 690.112 310.489 681.406 306.757C679.333 305.928 676.431 305.099 673.944 304.684C669.798 304.27 665.237 305.514 664.408 309.659C663.994 311.732 666.481 314.22 668.554 315.049C673.114 317.122 677.26 317.951 681.82 317.951C695.501 318.365 711.255 315.878 722.449 308.001C724.107 306.757 725.351 305.099 725.351 303.441C725.351 303.026 724.936 300.953 724.107 300.539C724.107 300.539 724.107 300.539 723.693 300.539C723.278 300.539 722.863 299.71 722.449 299.295C721.62 298.466 718.303 296.807 717.888 296.807C710.426 293.491 696.331 292.247 688.868 291.418C681.406 290.589 669.383 289.76 666.481 289.345C663.579 288.931 660.263 288.516 657.775 287.272C655.288 286.029 652.8 283.541 651.971 280.639C650.727 275.25 652.386 269.031 655.288 264.885C662.75 254.106 680.577 249.961 693.843 248.302C706.695 246.644 727.424 246.644 739.861 253.277C741.934 254.106 742.763 255.35 742.348 257.423C741.519 261.154 738.617 263.642 734.886 264.885C731.155 266.129 723.278 266.544 719.961 266.544C704.622 267.373 686.381 266.958 671.871 270.689C670.627 271.104 668.969 271.518 668.139 272.348C666.067 274.835 672.285 275.664 673.529 275.664C673.944 275.664 673.944 275.664 674.358 275.664L707.11 280.225ZM754.371 336.607C748.152 334.534 746.909 324.584 746.494 319.609C745.665 303.441 749.811 280.639 755.2 265.3C756.859 260.739 758.931 253.692 763.906 254.106C767.223 254.521 769.71 257.008 771.369 259.496C776.344 266.129 782.562 275.25 786.708 281.883C791.268 288.931 795.829 296.393 800.389 302.612C800.803 303.441 801.633 304.27 802.047 304.684C802.876 305.514 803.706 305.514 803.706 304.684C803.706 304.27 803.706 296.393 803.291 294.735C802.876 292.247 802.876 290.174 802.462 287.687C801.633 281.054 799.56 271.933 797.901 265.714C796.243 258.667 793.756 251.619 792.097 244.571C791.683 242.498 791.268 240.011 791.268 237.938C791.268 235.036 793.341 233.378 796.243 234.207C802.462 236.28 810.753 249.961 813.241 254.521C814.07 256.179 817.386 264.056 818.216 266.544C820.703 274.42 822.361 281.468 823.191 290.174C824.02 298.466 823.19 310.488 819.874 318.365C818.63 321.267 816.143 325.413 813.655 327.486C810.339 330.803 803.291 333.29 798.731 330.388C793.756 327.486 785.05 312.976 783.806 310.488C778.831 301.782 770.539 285.199 769.296 283.541C768.881 283.127 768.467 282.712 768.052 282.712C767.637 282.712 767.223 283.541 767.223 284.37C766.394 289.345 765.979 311.732 765.979 312.561C765.979 316.293 765.565 325.828 764.735 330.388C763.906 333.29 763.492 335.778 760.59 337.021C758.102 337.85 756.859 337.436 754.371 336.607ZM838.53 335.363C837.701 334.948 836.871 333.705 836.042 332.876C836.042 332.876 833.555 329.559 833.14 328.315C832.726 327.486 832.311 326.657 832.311 326.242C830.238 320.853 830.238 315.878 831.482 310.488C832.726 305.099 833.555 305.099 836.042 298.051C836.042 297.637 836.457 297.222 836.457 296.807C836.457 295.978 834.799 289.345 834.799 287.272C834.799 283.956 837.286 281.883 841.432 281.468C841.846 281.468 842.261 281.468 842.261 281.468C843.919 281.054 845.163 277.737 845.992 275.25C847.236 271.518 849.309 266.129 849.309 266.129C849.309 266.129 843.919 264.885 841.017 264.056C837.701 262.812 835.628 261.154 833.969 258.252C832.311 254.935 833.555 252.863 836.872 252.033C838.115 251.619 848.48 249.546 851.796 249.131C855.942 248.717 859.673 247.888 863.404 247.473C866.721 247.059 882.06 245.4 887.035 245.4C894.497 245.815 899.472 248.717 903.618 254.935C906.105 258.252 907.349 262.398 904.033 264.471C898.643 267.787 881.231 268.202 877.914 268.202C872.94 268.202 865.892 268.202 865.892 268.202L862.161 280.225C862.161 280.225 874.598 280.225 881.646 280.225C883.304 280.225 884.962 280.225 886.206 280.639C889.937 281.468 891.181 284.37 891.181 288.101C891.181 292.662 890.352 295.149 886.62 295.564C884.548 295.978 862.99 295.978 860.088 296.393C858.429 296.808 856.357 296.807 856.357 296.807C856.357 296.807 854.698 300.953 853.455 305.099C852.211 309.245 850.967 313.805 850.967 313.805C850.967 313.805 852.211 313.805 853.04 313.805C854.698 313.805 855.942 313.805 857.186 313.391C863.819 312.147 873.769 310.903 881.646 309.659C885.791 308.83 888.279 308.83 890.352 311.732C892.424 314.22 893.254 316.293 893.668 319.609C893.668 322.511 891.595 324.584 888.693 326.657C880.402 333.29 865.477 340.338 854.698 341.582C849.723 341.996 848.48 341.582 843.919 340.338C843.09 339.923 840.188 338.68 840.188 338.68C841.017 337.021 839.359 335.778 838.53 335.363ZM975.339 275.25C969.95 279.81 962.488 289.345 959.171 294.32C954.611 300.953 950.465 308.416 946.319 314.22C945.49 315.463 942.588 320.024 943.003 320.438C943.003 320.853 945.905 320.853 948.807 320.024C954.611 319.195 962.488 315.049 967.048 311.318C973.681 305.928 978.242 298.88 980.314 290.589C981.144 286.858 981.558 278.981 979.071 275.25C977.827 274.835 976.169 274.42 975.339 275.25ZM930.98 343.654C930.98 343.654 929.322 349.044 928.078 352.775C926.005 359.823 921.03 378.479 919.786 384.697C918.128 393.403 913.153 416.205 913.153 416.62C912.739 417.449 912.739 417.449 911.91 417.863C909.837 419.107 909.008 418.693 906.52 417.449C903.203 415.79 900.716 414.132 898.229 410.816C893.668 404.597 894.497 392.989 895.741 386.356C899.058 362.31 902.374 351.946 911.495 328.315C911.495 327.901 911.495 327.901 911.495 327.486C908.593 321.267 906.935 314.22 906.935 308.416C906.935 289.76 917.714 271.518 929.736 256.594C930.565 255.35 936.369 248.302 939.271 248.717C941.759 248.717 942.588 252.033 942.174 254.521C940.93 263.227 934.711 271.933 930.565 278.981C926.005 287.272 924.761 290.589 922.688 298.051C922.274 299.295 921.445 304.684 921.445 305.514C921.445 307.586 921.859 310.074 921.859 310.074C921.859 310.074 929.322 299.295 934.297 293.076C937.199 289.345 938.857 287.272 941.344 284.37C943.832 281.883 952.538 272.348 955.025 270.275C960.415 265.3 962.902 263.227 968.706 259.91C973.267 257.423 977.412 257.008 981.973 259.91C989.021 264.471 992.337 274.42 993.166 282.297C993.995 291.833 992.337 302.612 987.777 310.903C982.802 320.853 975.754 327.901 966.633 333.705C957.098 339.923 945.905 344.484 935.126 344.069C932.638 343.655 930.98 343.654 930.98 343.654Z" fill="black"/>
</g>
<defs>
<clipPath id="clip0_4_62">
<rect width="992.777" height="512" fill="white" transform="translate(0.594727 0.800781)"/>
</clipPath>
</defs>
</svg>
