<svg width="1025" height="230" viewBox="0 0 1025 230" fill="none" xmlns="http://www.w3.org/2000/svg">
<g clip-path="url(#clip0_767_861)">
<path d="M866.434 224.598H916.863V132.463C916.863 111.439 929.147 96.566 947.257 96.566C964.72 96.566 973.766 108.85 973.766 126.312V224.598H1024.2V116.618C1024.2 80.0744 1002.22 54.2124 966.645 54.2124C944.02 54.2124 928.176 63.9064 916.216 81.6929H915.245V59.0679H866.434V224.598ZM767.501 54.5361C714.806 54.5361 679.557 92.3579 679.557 142.157C679.557 191.632 714.789 229.777 767.501 229.777C820.213 229.777 855.445 191.632 855.445 142.157C855.445 92.375 820.213 54.5361 767.501 54.5361ZM767.178 192.586C743.258 192.586 730.651 172.55 730.651 142.157C730.651 111.439 743.258 91.7276 767.178 91.7276C791.097 91.7276 804.352 111.456 804.352 142.157C804.369 172.55 791.114 192.586 767.178 192.586ZM536.022 224.598H677.632V184.834H597.456V183.863L674.071 97.8609V59.0679H536.022V98.832H613.607V99.8031L536.022 186.452V224.598ZM471.35 224.598H522.102V59.0679H471.35V224.598ZM353.676 224.598H404.105V148.631C404.105 114.029 424.805 98.8319 456.476 103.04H457.448V59.3916C454.858 58.4205 451.945 58.0968 447.106 58.0968C427.378 58.0968 414.123 67.1434 402.81 86.5484H401.839V59.0679H353.676V224.598ZM260.876 192.926C238.575 192.926 224.997 178.377 222.407 156.076H341.699C342.023 120.503 332.653 92.0513 312.924 74.2819C299.022 61.3509 280.588 54.2295 257.316 54.2295C207.534 54.2295 172.932 92.0513 172.932 141.526C172.932 191.308 205.915 229.471 260.553 229.471C281.252 229.471 297.727 223.968 311.305 214.597C325.855 204.58 336.196 190.03 339.11 175.481H290.623C285.784 186.452 275.75 192.926 260.876 192.926ZM258.304 90.4328C276.09 90.4328 288.374 103.687 290.316 123.092H222.748C226.615 103.364 237.28 90.4328 258.304 90.4328ZM471.35 0.222656H522.102V45.1659H471.35V0.222656Z" fill="#F50A23"/>
<path d="M0.195312 59.0679L62.9591 222.554C63.4361 223.797 64.6287 224.615 65.9576 224.615H116.881C115.552 224.615 114.359 223.797 113.882 222.554L51.1185 59.0679H0.195312Z" fill="#F50A23"/>
<path d="M182.643 59.0679L119.879 222.554C119.402 223.797 118.21 224.615 116.881 224.615H65.9575C67.2864 224.615 68.479 223.797 68.956 222.554L131.72 59.0679H182.643Z" fill="#F50A23"/>
</g>
<defs>
<clipPath id="clip0_767_861">
<rect width="1024" height="229.555" fill="white" transform="translate(0.195312 0.222656)"/>
</clipPath>
</defs>
</svg>
