<svg width="546" height="513" viewBox="0 0 546 513" fill="none" xmlns="http://www.w3.org/2000/svg">
<g clip-path="url(#clip0_879_3800)">
<path d="M544.354 415.247C503.838 406.714 423.457 415.027 377.609 512.051C377.609 512.051 299.211 418.433 190.281 401.985C194.556 349.895 125.568 336.048 112.369 246.433C112.369 246.433 58.7747 202.534 31.9776 133.401L46.2469 137.987C46.2469 137.987 25.4104 114.903 9.38927 75.1152L24.4741 80.0981C24.4741 80.0981 9.21265 59.4058 0.871582 0.0507812C185.765 127.271 283.169 82.8758 395.625 146.529C471.952 189.777 490.133 239.993 496.523 290.12C496.523 290.12 553.026 341.327 544.355 415.245" fill="#FFFFFE"/>
<path d="M536.64 404.411C537.852 341.495 488.456 296.803 488.456 296.803C483.123 257.027 468.678 199.503 391.702 157.027C274.817 92.5784 210.148 145.22 25.8831 32.2988C29.7179 53.4106 41.86 82.6245 57.3306 100.77L38.2797 94.5199C52.1296 123.723 74.3101 150.214 85.9237 158.814L64.5691 152.1C87.1899 207.639 131.386 240.536 131.386 240.536C141.457 325.566 203.8 340.052 208.836 392.351C290.055 404.951 375.9 491.966 375.9 491.966C420.846 414.664 483.52 399.681 536.64 404.411Z" fill="black"/>
<path d="M432.624 294.975C414.962 323.417 385.101 315.49 374.456 280.026L395.986 281.338C377.111 270.038 359.966 253.413 346.711 237.031C342.81 315.38 416.503 350.548 440.877 295.525C438.123 295.503 435.368 295.316 432.624 294.975Z" fill="#FFFFFE"/>
<path d="M381.929 167.687C297.25 121.253 193.763 151.405 61.5291 69.4395C74.6296 108.609 156.477 154.48 156.477 154.48L84.0511 130.922C102.497 162.947 177.996 203.075 177.996 203.075L110.452 181.236C138.428 227.725 201.896 259.1 201.896 259.1L162.891 256.278C167.937 299.988 228.297 337.625 231.504 371.36C258.807 381.799 293.991 400.001 321.415 423.593C373.842 397.807 359.386 310.562 259.424 186.804C396.915 195.117 393.124 297.101 472.04 282.439C466.255 255.043 462.52 211.917 381.93 167.687" fill="#97233F"/>
<path d="M526.768 388.182C507.519 369.01 467.081 349.443 417.904 343.544C438.851 337.724 462.695 324.869 472.469 304.871C493.316 318.068 522.35 355.814 526.768 388.18V388.182ZM421.518 414.915C429.617 387.31 414.885 362.252 414.885 362.252C457.979 358.03 505.536 378.038 524.785 394.332C494.693 388.257 453.494 396.957 421.518 414.915Z" fill="#FFB612"/>
</g>
<defs>
<clipPath id="clip0_879_3800">
<rect width="544.389" height="512" fill="white" transform="translate(0.871582 0.0507812)"/>
</clipPath>
</defs>
</svg>
