<svg width="1025" height="263" viewBox="0 0 1025 263" fill="none" xmlns="http://www.w3.org/2000/svg">
<g clip-path="url(#clip0_9_1008)">
<path d="M266.432 0.973633L179.55 86.3488C179.55 86.3488 203.154 84.8422 207.673 84.8422C216.211 84.34 224.748 84.34 233.286 84.8422C241.823 85.3444 249.859 86.851 257.894 88.3577C266.934 90.3665 275.471 93.3797 284.009 97.3974C286.52 98.4018 289.533 100.411 288.529 103.926C284.009 114.975 254.379 107.944 232.282 115.477C248.352 124.014 253.374 129.036 263.921 133.054C266.432 131.045 268.44 128.032 270.449 125.521C272.458 123.01 274.969 121.503 277.48 119.997C289.533 112.464 322.679 110.957 338.247 115.979C368.38 126.525 381.939 145.107 375.411 181.768C372.899 196.834 371.895 203.363 367.375 214.412C354.82 175.742 301.586 172.226 270.449 196.332C255.885 207.381 239.312 223.451 229.268 242.033C227.762 245.046 222.74 254.588 220.229 262.623H527.579L266.432 0.973633Z" fill="url(#paint0_linear_9_1008)"/>
<path d="M229.267 241.531C239.813 222.949 255.884 206.879 270.448 195.83C301.585 171.724 354.819 175.24 367.374 213.909C371.894 202.861 372.396 196.332 375.409 181.266C381.938 144.605 368.881 126.023 337.744 115.477C322.175 109.953 289.03 111.961 276.977 119.495C274.466 121.001 271.955 123.01 269.946 125.019C267.937 127.53 265.928 130.041 263.417 132.552C252.871 128.534 247.849 123.512 231.778 114.975C253.875 107.944 283.003 114.975 288.025 103.424C289.532 99.9084 286.519 98.4018 283.505 96.8952C274.968 93.3798 266.43 90.3665 257.391 87.8555C249.355 85.8466 240.818 84.8422 232.783 84.34C224.245 83.8378 215.708 83.8378 207.17 84.34C202.65 84.34 179.046 85.8467 179.046 85.8467L0.260742 262.121H220.227C222.236 254.588 227.258 244.544 229.267 241.531Z" fill="white"/>
<path d="M519.04 99.9098H529.587L543.648 70.2796H544.151V116.483H561.728V42.6582H542.142L524.564 78.3149L506.987 42.6582H486.899V116.483H504.978V85.848L504.476 70.2796H504.978L519.04 99.9098ZM605.922 117.989C627.517 117.989 641.076 103.425 641.076 79.8215C641.076 56.2178 627.015 41.6538 605.922 41.6538C584.327 41.6538 570.767 56.2178 570.767 79.8215C570.767 103.425 584.829 117.989 605.922 117.989ZM605.922 56.72C616.468 56.72 621.993 65.7597 621.993 79.3193C621.993 92.8789 616.468 101.919 605.922 101.919C595.878 101.919 589.851 92.8789 589.851 79.3193C589.851 65.7597 595.878 56.72 605.922 56.72ZM681.755 117.989C699.835 117.989 712.892 108.95 712.892 87.8568V42.6582H694.31V86.3502C694.31 95.8922 690.795 102.421 681.755 102.421C672.715 102.421 669.2 96.3944 669.2 86.3502V42.6582H650.618V87.8568C650.618 108.95 664.178 117.989 681.755 117.989ZM743.527 70.7818H744.029L774.161 116.483H790.734V42.6582H773.157V87.8568H772.655L743.527 42.6582H725.949V116.483H743.527V70.7818ZM821.369 116.483H840.453V58.2266H863.554V42.6582H798.267V58.2266H821.369V116.483ZM872.092 116.483L877.616 100.914H904.735L910.259 116.483H929.343L902.224 42.6582H881.131L854.012 116.483H872.092ZM890.673 61.7421L899.713 87.3546H882.136L890.673 61.7421ZM932.357 42.6582H950.938V116.483H932.357V42.6582ZM1006.18 42.6582V87.8568L976.551 42.6582H958.973V116.483H977.053V70.7818L1007.69 116.483H1024.26V42.6582H1006.18ZM561.728 138.078H540.635L513.516 211.902H531.595L537.622 196.836H564.741L570.265 212.404H589.349L561.728 138.078ZM542.142 182.774L550.679 157.161L559.217 182.774H542.142ZM633.543 174.236H633.041L615.464 138.078H595.376V212.404H613.455V166.201L627.517 195.329H638.565L652.627 166.201V212.404H670.707V138.078H650.618L633.543 174.236ZM736.496 153.646V138.078H683.764V212.404H736.496V196.836H701.843V181.77H732.478V167.708H701.843V153.646H736.496ZM807.307 190.809C805.298 183.778 801.783 180.263 795.254 178.756C803.792 177.752 811.325 171.223 811.325 160.175C811.325 145.108 800.778 138.078 783.703 138.078H750.055V211.902H768.135V185.787H779.183C784.708 185.787 788.223 187.796 789.73 193.823L791.739 203.867C792.241 207.382 793.245 209.391 795.254 211.902H815.342C812.831 209.391 811.827 206.88 810.822 203.364C810.32 203.364 807.307 190.809 807.307 190.809ZM781.694 171.725H768.135V153.144H781.694C788.725 153.144 791.739 156.157 791.739 162.183C791.739 168.712 788.223 171.725 781.694 171.725ZM821.369 138.078H839.95V211.902H821.369V138.078ZM899.211 186.289C897.704 192.818 893.687 197.84 886.153 197.84C877.114 197.84 870.585 190.307 870.585 175.241C870.585 160.175 877.114 152.642 886.153 152.642C893.184 152.642 897.704 157.161 899.211 164.192L915.784 156.659C911.766 144.606 901.22 137.073 886.153 137.073C865.061 137.073 850.999 151.637 850.999 175.241C850.999 198.845 865.061 213.409 886.153 213.409C901.22 213.409 911.766 205.876 915.784 193.823L899.211 186.289ZM943.405 138.078L916.286 211.902H934.365L939.89 196.334H967.009L972.533 211.902H991.617L964.498 138.078H943.405ZM944.912 182.774L953.449 157.161L961.987 182.774H944.912ZM583.825 240.528C586.336 240.528 587.843 242.034 588.345 244.545L594.371 242.034C592.865 237.515 589.349 235.003 583.825 235.003C576.292 235.003 571.27 240.026 571.27 248.563C571.27 257.101 576.292 262.123 583.825 262.123C589.349 262.123 592.865 259.612 594.371 255.092L588.345 252.581C587.843 255.092 586.336 256.598 583.825 256.598C580.309 256.598 578.301 254.087 578.301 248.563C578.301 243.039 580.812 240.528 583.825 240.528ZM628.521 254.087C628.019 251.576 626.512 250.07 624.001 250.07C627.015 249.568 629.526 247.559 629.526 243.541C629.526 238.017 626.01 236.008 619.984 236.008H607.931V262.123H614.46V253.083H618.477C620.486 253.083 621.49 253.585 621.993 256.096L622.495 259.612C622.495 261.118 622.997 261.62 624.001 262.625H631.032C630.028 261.62 629.526 260.616 629.526 259.612L628.521 254.087ZM619.482 247.559H614.46V241.03H618.979C621.49 241.03 622.495 242.034 622.495 244.043C622.997 246.052 621.49 247.559 619.482 247.559ZM650.618 251.074H661.667V246.052H650.618V241.03H663.174V235.506H644.592V261.62H663.174V256.096H650.618V251.074ZM687.782 235.506H677.738V261.62H687.782C695.315 261.62 700.839 257.603 700.839 248.563C700.839 239.523 695.315 235.506 687.782 235.506ZM687.28 256.096H684.266V241.03H687.28C691.297 241.03 693.808 243.039 693.808 248.563C693.808 254.087 691.297 256.096 687.28 256.096ZM714.901 235.506H721.43V261.62H714.901V235.506ZM734.989 241.03H743.527V261.62H750.055V241.03H758.091V235.506H734.989V241.03ZM798.267 251.074C798.267 254.59 796.761 256.598 793.747 256.598C790.734 256.598 789.228 254.59 789.228 251.074V235.506H782.699V251.576C782.699 259.109 787.219 262.123 793.747 262.123C800.276 262.123 804.796 259.109 804.796 251.576V235.506H798.267V251.074ZM836.435 251.576L825.889 235.506H819.862V261.62H825.889V245.55H826.391L836.937 261.62H842.964V235.506H836.435V251.576ZM856.523 235.506H863.052V261.62H856.523V235.506ZM887.158 235.003C879.625 235.003 874.603 240.026 874.603 248.563C874.603 257.101 879.625 262.123 887.158 262.123C894.691 262.123 899.713 257.101 899.713 248.563C899.713 240.026 894.691 235.003 887.158 235.003ZM887.158 256.598C883.642 256.598 881.634 253.585 881.634 248.563C881.634 243.541 883.642 240.528 887.158 240.528C890.673 240.528 892.682 243.541 892.682 248.563C892.682 253.585 890.673 256.598 887.158 256.598ZM927.334 251.576L916.788 235.506H910.762V261.62H917.29V245.55L927.837 261.62H933.863V235.506H927.334V251.576Z" fill="black"/>
</g>
<defs>
<linearGradient id="paint0_linear_9_1008" x1="353.519" y1="262.121" x2="353.519" y2="0.973633" gradientUnits="userSpaceOnUse">
<stop stop-color="#590A1B"/>
<stop offset="0.07" stop-color="#600B1C"/>
<stop offset="0.19" stop-color="#760F20"/>
<stop offset="0.33" stop-color="#9A1626"/>
<stop offset="0.49" stop-color="#CB1F2E"/>
<stop offset="0.5" stop-color="#CE202F"/>
</linearGradient>
<clipPath id="clip0_9_1008">
<rect width="1024" height="261.65" fill="white" transform="translate(0.260742 0.975586)"/>
</clipPath>
</defs>
</svg>
