<svg width="1025" height="218" viewBox="0 0 1025 218" fill="none" xmlns="http://www.w3.org/2000/svg">
<g clip-path="url(#clip0_731_51)">
<path fill-rule="evenodd" clip-rule="evenodd" d="M385.123 158.708V160.047H335.504V140.728L335.859 140.671H335.488C335.504 140.655 335.488 89.9391 335.488 89.9391C335.383 86.98 336.471 73.7647 321.442 73.9099C321.45 73.9502 306.009 74.1679 306.364 92.7611V92.7773L306.316 142.977C306.759 158.426 315.983 158.749 316.015 158.749V160.039H265.848L237.272 160.031C236.168 160.16 201.287 161.297 199.884 128.811V111.25C199.884 111.25 186.064 114.322 181.743 117.635C181.743 117.635 170.68 124.65 177.977 136.688C177.977 136.688 183.403 146.203 200.94 142.687L192.386 160.079H175.486C175.486 160.079 136.041 160.885 131.421 131.907C131.421 131.705 127.874 109.169 154.804 100.042C154.804 100.042 164.02 96.8007 181.541 93.7045C181.734 93.7045 196.514 91.592 197.893 83.5774C198.238 81.9557 198.066 80.2665 197.401 78.7477C197.643 79.3766 190.684 61.1058 148.136 79.5781C148.313 79.7797 156.892 52.8735 156.892 52.8735C156.892 52.8735 196.965 41.0935 224.928 58.2596C224.742 58.445 239.538 66.3065 239.336 90.9711L239.78 125.078C239.723 125.561 239.748 142.55 256.47 143.502C256.47 143.663 262.405 143.614 265.807 143.598V69.1446C265.807 68.7254 266.718 53.2283 256.374 52.5349V51.1077L306.38 49.1645L306.364 61.8234C309.081 59.1385 320.12 49.3097 336.439 49.0033C336.439 49.0033 375.359 47.6406 375.295 85.7705C375.311 85.7705 375.359 140.647 375.359 140.647C375.053 158.45 385.131 158.708 385.131 158.708H385.123ZM0.180054 2.36693V0.730138H54.444L93.3882 114.443L122.189 23.2098C122.189 23.2098 128.075 7.85782 112.32 1.77833V0.472122H155.788L100.863 161.264L78.0041 152.451C78.0041 152.451 59.4914 146.985 49.6384 119.216L13.9033 20.549C13.9033 20.549 9.40412 4.60844 0.180054 2.36693ZM967.352 140.671C967.094 159.74 977.237 158.733 977.253 158.733V160.079L926.199 160.047V160.031L926.182 160.047V91.4549L926.166 90.0358C926.166 90.6809 926.166 72.515 910.242 72.3214C910.048 72.515 891.552 70.5476 891.552 105.114C891.366 105.299 891.366 145.541 922.635 140.373C922.635 140.534 911.669 159.974 911.669 159.974C911.669 159.974 886.319 168.715 865.299 146.259C865.299 146.259 849.31 132.358 849.31 105.114C849.495 105.299 848.778 79.4572 865.299 63.0732C865.13 63.6053 890.802 34.6028 926.166 56.9776V20.7102C926.166 20.3151 927.061 4.80195 916.717 4.10853V2.70557L967.312 0.746264L967.352 140.671ZM815.413 63.5489C826.5 42.6819 847.778 49.1484 847.778 49.1484V76.4336C814.034 70.8379 815.445 96.2443 815.413 96.0911H815.397L815.381 140.623C815.163 159.507 824.847 158.765 825.323 158.741V160.047H774.848V160.031H745.644C744.588 160.16 709.683 161.297 708.312 128.811V111.25C708.312 111.25 694.444 114.322 690.13 117.635C690.13 117.635 679.1 124.65 686.397 136.688C686.397 136.688 691.799 146.203 709.344 142.687L700.79 160.095H683.857C683.857 160.095 644.445 160.885 639.825 131.899C639.825 131.697 636.278 109.153 663.208 100.058C663.208 100.058 672.416 96.8007 689.929 93.7045C690.13 93.7045 704.902 91.592 706.281 83.5854C706.641 81.9626 706.471 80.267 705.797 78.7477C706.006 79.3927 699.08 61.1058 656.516 79.5781C656.758 79.7797 665.304 52.8735 665.304 52.8735C665.304 52.8735 705.394 41.0935 733.356 58.2596C733.146 58.4692 747.926 66.3226 747.748 90.947L748.184 125.078C748.111 125.586 748.127 142.55 764.874 143.485C764.874 143.647 771.567 143.614 774.824 143.598V134.81L774.84 69.1446C774.84 68.7254 775.727 53.2041 765.398 52.5187V51.1319L815.413 49.1726V63.5489Z" fill="#96151D"/>
<path fill-rule="evenodd" clip-rule="evenodd" d="M442.887 109.443C458.182 109.443 456.408 88.1813 456.408 87.8588C456.086 69.6042 442.919 70.1444 442.919 70.1444C428.414 70.1444 428.994 88.3668 428.825 88.1813C427.236 108.395 441.798 109.693 442.887 109.443ZM557.123 49.0113V120.079C557.123 120.079 556.768 135.479 570.814 135.342C570.75 135.092 585.666 137.591 586.214 116.394C586.239 116.418 586.239 116.45 586.263 116.45L586.279 103.533V69.1446C586.279 68.7253 587.174 53.2283 576.829 52.5349V51.1077L626.836 49.1645V140.647C626.812 141.034 625.917 158.241 636.753 158.741V160.031H586.214L586.231 147.049C584.175 149.154 572.902 159.853 555.89 160.176C555.89 160.176 516.268 161.563 516.349 123.392C516.204 123.102 516.284 82.7469 516.324 68.9672H485.846C486.999 69.9187 488.499 71.9264 488.507 71.9264C505.617 93.8335 488.991 112.056 488.838 112.225C477.864 127.585 442.435 131.899 442.435 131.899L440.234 132.149C428.236 132.568 432.05 138.656 432.09 138.688C433.824 142.744 442.467 142.107 442.467 142.107H462.754C503.827 141.97 508.205 168.876 508.374 168.876C515.123 206.619 477.13 217.875 439.194 216.883C401.556 217.125 387.607 200.741 387.752 200.87C378.197 189.799 383.245 174.342 400.169 169.658C412.683 166.207 427.47 169.658 427.47 169.658C416.23 171.23 418.222 182.672 418.246 182.752C422.012 196.274 441.242 196.411 442.403 196.427C466.963 195.161 467.664 183.204 467.664 177.358C467.664 169.642 461.254 165.006 461.254 165.006C452.353 158.466 435.509 160.531 423.785 160.023C407.353 159.087 403.088 143.647 402.306 138.922C401.54 134.148 402.427 132.229 405.168 130.472C410.127 127.553 421.399 126.271 420.117 126.295L420.359 126.247C420.149 126.198 420.02 126.198 420.004 126.198C405.869 121.707 397.476 109.806 397.323 109.806C379.358 84.1176 400.306 63.8634 400.306 63.8634C412.328 52.2688 427.599 49.6725 441.242 49.0113H557.123ZM983.728 20.8957C983.728 30.41 991.541 38.1666 1001.15 38.1666C1010.75 38.1666 1018.54 30.41 1018.54 20.8957C1018.54 11.3813 1010.76 3.61668 1001.15 3.61668C991.541 3.61668 983.728 11.3733 983.728 20.8957ZM980.938 20.8957C980.938 9.85744 989.985 0.851074 1001.15 0.851074C1012.29 0.851074 1021.36 9.85744 1021.36 20.8957C1021.36 31.942 1012.29 40.9403 1001.15 40.9403C995.815 40.9596 990.687 38.8593 986.897 35.1009C983.107 31.3425 980.964 26.2333 980.938 20.8957Z" fill="#96151D"/>
<path fill-rule="evenodd" clip-rule="evenodd" d="M996.774 22.1616V32.8208H993.444V9.2124H1001.96C1005.97 9.2124 1010.07 10.4622 1010.07 15.1306C1010.11 16.451 1009.69 17.7448 1008.88 18.7855C1008.06 19.8262 1006.91 20.5475 1005.62 20.8231V20.8957C1008.47 21.5649 1008.84 23.0888 1009.22 25.7254C1009.58 28.0798 1009.85 30.5955 1010.71 32.8208H1007.17C1006.88 31.4259 1006.49 29.8859 1006.32 28.4668C1006.06 26.3543 1006.06 24.4273 1004.97 23.2259C1004.02 22.1616 1002.69 22.2583 1001.38 22.1616H996.774ZM996.693 19.3556H1002.14C1005.8 19.1863 1006.63 17.5415 1006.63 15.687C1006.63 13.8164 1005.8 12.1715 1002.14 12.0183H996.685L996.693 19.3556Z" fill="#96151D"/>
</g>
<defs>
<clipPath id="clip0_731_51">
<rect width="1024" height="217.701" fill="white" transform="translate(0.0349121 0.149597)"/>
</clipPath>
</defs>
</svg>
