<svg width="1024" height="223" viewBox="0 0 1024 223" fill="none" xmlns="http://www.w3.org/2000/svg">
<path fill-rule="evenodd" clip-rule="evenodd" d="M471.422 102.464V161.245H457.957V102.286C457.957 84.3941 450.694 76.0686 435.092 76.0686C416.52 76.0686 406.808 89.864 406.808 103.481V161.245H393.343V64.582H406.808V75.1209C413.416 68.3981 423.421 63.2272 435.938 63.2272C458.816 63.2272 471.428 77.1562 471.428 102.457L471.422 102.464ZM630.771 63.2209C618.242 63.2209 608.237 68.3981 601.635 75.1145V22.0701H588.177V161.245H601.635V103.481C601.635 89.8576 611.347 76.0686 629.925 76.0686C645.527 76.0686 652.791 84.4005 652.791 102.286V161.245H666.249V102.457C666.249 77.1562 653.649 63.2209 630.771 63.2209ZM830.75 112.157V113.518C830.75 141.503 810.913 162.619 784.607 162.619C758.829 162.619 738.635 141.121 738.635 113.683V112.322C738.635 84.4259 758.549 63.3926 784.95 63.3926C811.485 63.3926 830.75 83.9044 830.75 112.157ZM817.107 113.511V112.15C817.107 90.907 803.878 76.0686 784.937 76.0686C765.997 76.0686 752.246 91.3141 752.246 112.322V113.683C752.246 134.596 765.933 149.765 784.772 149.765C803.815 149.765 817.107 134.856 817.107 113.511ZM888.457 63.2209C875.946 63.2209 865.935 68.3981 859.321 75.1145V64.582H845.862V161.245H859.321V103.481C859.321 89.864 869.045 76.0686 887.611 76.0686C903.213 76.0686 910.489 84.4005 910.489 102.292V161.245H923.947V102.457C923.947 77.1625 911.341 63.2209 888.457 63.2209ZM530.82 149.765C511.981 149.765 498.306 134.589 498.306 113.683V112.322C498.306 91.3141 512.051 76.0686 530.985 76.0686C544.126 76.0686 554.506 83.2111 559.645 94.6723H574.089C567.9 75.8269 551.65 63.3926 530.985 63.3926C504.59 63.3926 484.67 84.4259 484.67 112.322V113.683C484.67 141.121 504.864 162.619 530.642 162.619C552.979 162.619 570.635 147.399 575.469 125.691H561.559C557.489 140.313 545.976 149.765 530.82 149.765ZM728.503 63.2209C715.986 63.2209 705.981 68.3981 699.367 75.1209V64.582H685.908V161.258H699.367V103.481C699.367 89.864 709.085 76.0686 727.657 76.0686C730.844 76.02 734.02 76.4772 737.064 77.4233V63.9714C734.238 63.4648 731.373 63.2137 728.503 63.2209ZM255.256 105.281C233.828 101.726 230.095 97.8779 230.095 90.0548C230.095 81.691 238.776 76.0749 251.268 76.0749C264.338 76.0749 271.665 80.8578 273.771 91.1233L273.885 91.6703H287.941L287.63 89.8004C284.793 72.7676 271.945 63.399 251.44 63.399C231.087 63.399 216.312 74.6057 216.312 90.0548C216.312 110.287 233.358 114.828 252.324 118.014C270.215 121.118 275.71 123.631 275.71 134.271C275.71 144.041 266.933 150.108 253.259 150.108C234.611 150.108 228.867 140.237 227.404 131.562H213.068C214.805 150.827 230.203 162.791 253.265 162.791C274.82 162.791 289.868 150.91 289.868 133.921C289.868 112.945 273.51 108.404 255.269 105.281H255.256ZM1005.07 64.5883L975.891 144.009L941.826 64.5883H927.846L968.481 160.768L955.793 198.548H969.9L1018.8 64.5883H1005.07ZM368.144 64.5883L338.963 144.009L304.898 64.5883H290.924L331.553 160.768L318.865 198.548H332.972L381.876 64.5883H368.144Z" fill="#3B3D49"/>
<path fill-rule="evenodd" clip-rule="evenodd" d="M104.861 219.543H62.9028V1.06854H104.842L104.861 219.543ZM1.18933 219.543H43.1479V110.306H1.18933V219.543ZM124.724 110.306H166.664V1.06854H124.724V110.306Z" fill="#FBC600"/>
</svg>
