<svg width="396" height="513" viewBox="0 0 396 513" fill="none" xmlns="http://www.w3.org/2000/svg">
<g clip-path="url(#clip0_795_4947)">
<path d="M0.57373 0.574707V315.446C0.57373 424.313 89.0527 512.575 198.197 512.575C307.334 512.575 395.802 424.318 395.802 315.446V0.574707H0.57373Z" fill="white"/>
<path d="M0.57373 0.574707V315.446C0.57373 424.313 89.0527 512.575 198.197 512.575C307.334 512.575 395.802 424.318 395.802 315.446V0.574707H0.57373ZM379.166 315.446C379.166 388.461 335.072 454.288 267.451 482.232C199.826 510.174 121.99 494.731 70.2237 443.103C36.1748 409.32 17.088 363.355 17.2182 315.454V160.183H379.166V315.446ZM17.2182 143.575V17.1653H379.166V143.575H17.2182Z" fill="#FFDD00"/>
<path d="M198.188 495.975V160.184H17.2183V315.455C17.2183 363.332 36.2826 409.25 70.2219 443.105C104.161 476.959 150.186 495.975 198.188 495.975Z" fill="#CD1719"/>
<path d="M6.12305 6.10986V315.448C6.18537 406.575 70.5659 485.054 160.1 503.145C249.634 521.238 339.561 473.94 375.167 390.029C385.176 366.437 390.309 341.072 390.258 315.453V6.11525L6.12305 6.10986ZM384.716 11.6395V149.107H11.6652V11.6395H384.716ZM330.085 447.019C276.738 500.229 196.507 516.146 126.812 487.348C57.1129 458.549 11.6661 390.705 11.6661 315.45V154.646H384.717V315.45C384.847 364.823 365.176 412.203 330.085 447.019Z" fill="#CD1719"/>
<path d="M148.985 105.574C148.985 105.574 165.946 109.198 208.109 107.019C208.109 107.019 227.499 106.86 227.499 91.8757V78.0175H203.495V84.2753C203.495 84.2753 203.677 88.8265 200.272 88.8265H165.181C165.181 88.8265 158.194 88.1552 157.196 81.63V58.4418C157.196 58.4418 157.687 53.2876 163.977 52.8837C163.977 52.8837 174.083 51.433 196.217 52.6391C196.217 52.6391 203.802 52.1612 203.717 61.0985H226.33L226.176 47.7299C226.176 47.7299 225.035 34.7592 209.066 33.7864C209.066 33.7864 171.762 32.3358 155.286 34.0311C155.286 34.0311 133.956 34.5146 134.446 50.7052V90.1004C134.446 90.1004 133.717 103.634 148.985 105.574Z" fill="#CD1719"/>
<path d="M75.73 83.4163L127.72 83.4047L127.743 65.6958H75.73L75.4049 52.8841L130.326 52.8041V34.7593H53.1172V108.874L76.0498 108.857L75.73 83.4163Z" fill="#CD1719"/>
<path d="M300.636 33.5703H264.854L223.563 113.494V128.854H242.384L259.807 93.6333L305.598 93.5764L322.57 128.848H351.622L300.636 33.5703ZM267.648 77.3292L280.595 51.2056H284.154L296.752 77.3122L267.648 77.3292Z" fill="#CD1719"/>
<path d="M110.268 111.81H53.1172V128.865H110.268V111.81Z" fill="#CD1719"/>
<path d="M167.419 111.81H110.269V128.865H167.419V111.81Z" fill="#006139"/>
<path d="M224.567 111.81H167.417V128.865H224.567V111.81Z" fill="white"/>
<path d="M222.685 113.693V126.982H169.31V113.693H222.685ZM224.573 111.81H167.422V128.876H224.573V111.81Z" fill="#CC1719"/>
<path d="M140.026 467.692V465.485L144.766 464.131V447.121L140.026 445.653V443.503H155.111V445.653L150.372 447.058V464.131L155.111 465.485V467.692H140.026Z" fill="white"/>
<path d="M177.12 442.706C170.042 442.706 165.554 448.173 165.554 454.738C165.554 462.777 170.356 466.685 176.572 466.685C178.309 466.58 180.015 466.183 181.62 465.513C179.276 470.798 174.844 474.724 168.195 477.306L169.672 480.435C182.538 476.811 189.314 466.372 189.13 456.542C189.005 449.032 185.007 442.706 177.12 442.706ZM182.908 461.799C181.556 462.288 179.03 463.147 176.943 463.147C173.184 463.147 171.091 459.216 170.971 454.557C170.84 449.647 172.933 446.45 176.509 446.325C180.262 446.143 183.399 450.375 183.53 455.473C183.59 457.599 183.381 459.724 182.908 461.799Z" fill="white"/>
<path d="M217.584 442.462C210.073 442.462 203.981 448.293 203.981 455.472C203.981 462.652 210.072 468.557 217.584 468.557C225.095 468.557 231.271 462.726 231.271 455.472C231.271 448.219 225.095 442.462 217.584 442.462ZM217.584 464.381C212.599 464.381 209.4 460.444 209.4 455.472C209.4 450.5 212.599 446.637 217.584 446.637C222.568 446.637 225.847 450.568 225.847 455.472C225.847 460.376 222.568 464.381 217.584 464.381Z" fill="#CC1719"/>
<path d="M242.696 478.871H238.082C239.679 470.952 244.105 459.341 251.125 447.985H234.997V443.502H257.239V447.001C252.294 454.243 244.971 469.052 242.696 478.871Z" fill="#CC1719"/>
<path d="M268.628 348.51L246.813 328.929C236.772 330.631 226.651 331.829 216.49 332.519L216.261 317.159C234.511 315.526 243.243 310.634 251.227 303.125C260.809 294.023 265.291 282.247 265.291 265.276C265.291 236.565 248.348 209.485 233.855 195.132C224.283 185.38 212.024 178.68 198.633 175.881H197.811C184.421 178.689 172.165 185.39 162.588 195.137C148.097 209.513 131.181 236.592 131.181 265.304C131.181 282.274 135.63 294.022 145.216 303.152C153.201 310.662 161.926 315.554 180.216 317.187L179.954 332.547C169.688 331.898 159.576 330.59 149.63 328.957L127.815 348.51L136.712 358.295C135.828 360.356 135.383 362.578 135.406 364.82C135.387 368.094 136.674 371.242 138.984 373.568C141.294 375.895 144.437 377.209 147.719 377.221C149.744 377.221 153.537 376.567 155.995 373.632C156.731 372.652 157.272 371.539 157.586 370.355C163.209 382.102 166.58 400.7 168.051 428.109L168.148 430.066H228.299L228.43 428.109C229.873 400.7 233.272 382.102 238.901 370.355C239.194 371.539 239.728 372.651 240.47 373.62C242.922 376.556 246.715 377.21 248.779 377.21C255.605 377.166 261.107 371.617 261.075 364.808C261.084 362.567 260.64 360.348 259.769 358.283L268.628 348.51Z" fill="black"/>
<path d="M201.806 313.263L215.015 305.439L198.27 295.648L181.486 305.439L194.671 313.263H201.835" fill="#006139"/>
<path d="M222.638 208.222L239.389 218.337L244.196 215.396C241.134 210.529 237.641 205.944 233.76 201.697L222.638 208.222Z" fill="#006139"/>
<path d="M157.059 295.648L149.012 300.546C153.993 304.905 159.863 308.133 166.219 310.006L173.838 305.455L157.06 295.664" fill="#006139"/>
<path d="M171.671 311.314C175.891 312.292 180.762 312.622 186.584 312.947L177.653 307.724L171.671 311.314Z" fill="#006139"/>
<path d="M209.882 312.939C215.705 312.615 220.615 312.285 224.802 311.306L218.814 307.717L209.882 312.939Z" fill="#006139"/>
<path d="M250.286 297.606C253.708 293.692 256.206 289.778 257.906 284.556L243.22 293.368L250.286 297.606Z" fill="#006139"/>
<path d="M259.826 254.541C258.898 248.751 257.398 243.067 255.349 237.571L243.212 244.751L259.826 254.541Z" fill="#006139"/>
<path d="M260.131 259.109H259.965L243.221 268.894L259.504 278.685C260.355 274.276 260.761 269.794 260.713 265.305C260.713 263.348 260.547 261.066 260.353 259.109H260.131Z" fill="#006139"/>
<path d="M222.638 305.439L230.229 309.99C236.587 308.125 242.46 304.896 247.436 300.53L239.389 295.632L222.638 305.423" fill="#006139"/>
<path d="M138.592 284.555C140.175 289.388 142.762 293.834 146.183 297.605L153.249 293.367L138.592 284.555Z" fill="#006139"/>
<path d="M212.5 185.37C206.745 182.758 201.709 181.126 198.242 180.477C194.74 181.126 189.687 182.753 183.944 185.37L198.242 193.852L212.5 185.37Z" fill="#006139"/>
<path d="M194.415 196.139L179.924 187.651C174.809 190.664 170.076 194.279 165.826 198.42C165.695 198.42 165.564 198.744 165.467 198.744L177.632 205.946L194.416 196.162" fill="#006139"/>
<path d="M218.812 205.947L231.011 198.767C230.885 198.767 230.754 198.443 230.623 198.443C226.379 194.296 221.645 190.68 216.525 187.674L202.034 196.162L218.812 205.947Z" fill="#006139"/>
<path d="M173.838 208.222L162.717 201.697C158.826 205.931 155.332 210.513 152.28 215.384L157.054 218.325L173.838 208.222Z" fill="#006139"/>
<path d="M136.482 259.109H136.095C135.895 261.066 135.764 263.348 135.764 265.305C135.722 269.792 136.117 274.273 136.944 278.685L153.232 268.894L136.482 259.109Z" fill="#006139"/>
<path d="M141.096 237.571C139.041 243.063 137.55 248.749 136.648 254.541L153.232 244.75L141.096 237.571Z" fill="#006139"/>
<path d="M150.221 218.649C149.178 220.282 148.128 222.239 147.182 223.872L153.233 220.282L150.221 218.649Z" fill="#006139"/>
<path d="M157.059 242.47L173.837 232.685L157.059 222.57L144.073 230.409C143.471 231.566 142.957 232.766 142.533 233.999L157.059 242.481" fill="#006139"/>
<path d="M181.457 256.823L198.242 266.94L215.015 256.823L198.27 247.037L181.486 256.823" fill="#006139"/>
<path d="M157.059 271.18L140.303 281.294L157.054 291.076L173.832 281.294L157.054 271.18" fill="#006139"/>
<path d="M160.886 293.367L177.63 303.148L194.415 293.367L177.63 283.576L160.886 293.367Z" fill="#006139"/>
<path d="M173.838 256.823L157.059 247.037L140.303 256.823L157.054 266.94L173.832 256.823" fill="#006139"/>
<path d="M194.415 220.283L177.63 210.497L160.886 220.283L177.63 230.408L194.415 220.293" fill="#006139"/>
<path d="M194.415 244.75L177.63 234.96L160.886 244.745L177.63 254.535L194.415 244.745" fill="#006139"/>
<path d="M198.242 271.18L181.457 281.294L198.242 291.076L215.015 281.294L198.27 271.18" fill="#006139"/>
<path d="M202.034 293.367L218.812 303.148L235.546 293.367L218.794 283.576L202.017 293.367" fill="#006139"/>
<path d="M202.034 244.75L218.812 254.541L235.546 244.75L218.812 234.96L202.034 244.745" fill="#006139"/>
<path d="M239.39 266.94L256.134 256.823L239.39 247.037L222.638 256.823L239.39 266.94Z" fill="#006139"/>
<path d="M222.638 281.294L239.39 291.076L256.134 281.294L239.39 271.18L222.638 281.294Z" fill="#006139"/>
<path d="M202.034 220.283L218.812 230.408L235.546 220.283L218.812 210.497L202.034 220.283Z" fill="#006139"/>
<path d="M215.015 208.222L198.27 198.431L181.457 208.222L198.242 218.337L215.015 208.222Z" fill="#006139"/>
<path d="M249.298 223.872C248.312 222.239 247.302 220.282 246.218 218.649L243.213 220.282L249.298 223.872Z" fill="#006139"/>
<path d="M239.391 222.563L222.64 232.684L239.391 242.475L253.911 233.993C253.498 232.761 252.995 231.561 252.405 230.403L239.391 222.563Z" fill="#006139"/>
<path d="M160.886 268.889L177.63 279.013L194.415 268.889L177.63 259.109L160.886 268.889Z" fill="#006139"/>
<path d="M198.242 222.563L181.457 232.684L198.242 242.475L215.015 232.684L198.27 222.57" fill="#006139"/>
<path d="M235.546 268.889L218.794 259.109L202.017 268.889L218.794 279.013L235.546 268.889Z" fill="#006139"/>
<path d="M160.789 346.552H179.757L179.923 336.437C170.079 335.788 160.361 334.81 150.837 332.853C143.725 339.378 137.451 345.248 133.345 348.839L138.775 354.71C142.83 349.493 150.449 346.552 160.789 346.552Z" fill="#FFDD00"/>
<path d="M245.597 332.845C235.984 334.541 226.289 335.737 216.551 336.429L216.716 346.544H235.657C245.991 346.544 253.616 349.485 257.7 354.702L263.1 348.831C259.011 345.241 252.732 339.37 245.597 332.845Z" fill="#FFDD00"/>
<path d="M198.242 346.875H183.647L184.103 317.509C188.324 317.833 193 317.833 198.235 317.833C203.471 317.833 208.142 317.833 212.362 317.509L212.824 346.875H198.242Z" fill="#FFDD00"/>
<path d="M156.01 350.441C145.316 351.744 139.3 356.967 139.3 364.794C139.315 369.443 143.058 373.225 147.718 373.299C149.058 373.299 151.544 372.975 152.982 371.342C154.259 369.715 154.521 367.104 153.797 363.839L157.299 362.206C164.462 372.321 168.779 388.637 170.986 414.737L182.467 386.679C174.522 369.386 165.597 355.032 156.01 350.441Z" fill="#FFDD00"/>
<path d="M184.503 381.79L197.392 350.791L163.242 350.444C170.177 355.991 177.077 366.106 184.503 381.767" fill="#FFDD00"/>
<path d="M233.211 350.441L199.094 350.766L211.978 381.764C219.392 366.102 226.275 355.988 233.211 350.441Z" fill="#FFDD00"/>
<path d="M186.693 386.685C190.389 395.168 194.215 404.628 198.242 415.699C202.262 404.605 206.055 395.145 209.756 386.685C204.321 373.635 199.49 361.888 198.242 358.952C196.964 361.888 192.156 373.635 186.693 386.685Z" fill="#FFDD00"/>
<path d="M184.662 391.572C179.826 403.348 174.818 415.391 171.671 423.219C171.705 424.203 171.768 425.181 171.836 426.16H197.803L196.428 422.24C192.835 412.125 188.906 401.362 184.686 391.571" fill="#FFDD00"/>
<path d="M240.433 350.441C230.885 354.993 221.92 369.363 213.97 386.657L225.451 414.726C227.675 388.626 232.026 372.31 239.138 362.195L242.634 363.828C241.916 367.093 242.212 369.704 243.484 371.331C244.927 372.964 247.379 373.288 248.754 373.288C253.4 373.208 257.133 369.442 257.16 364.806C257.16 356.978 251.109 351.756 240.41 350.453" fill="#FFDD00"/>
<path d="M200.072 422.247L198.664 426.167H224.635C224.704 425.188 224.767 424.21 224.829 423.226C221.624 415.398 216.623 403.314 211.815 391.579C207.56 401.369 203.637 412.132 200.072 422.247Z" fill="#FFDD00"/>
</g>
<defs>
<clipPath id="clip0_795_4947">
<rect width="395.228" height="512" fill="white" transform="translate(0.57373 0.574707)"/>
</clipPath>
</defs>
</svg>
