<svg width="539" height="513" viewBox="0 0 539 513" fill="none" xmlns="http://www.w3.org/2000/svg">
<g clip-path="url(#clip0_2_15027)">
<path d="M307.735 451.467C301.11 451.467 295.731 456.837 295.731 463.467C295.731 470.09 301.11 475.468 307.735 475.468C314.36 475.468 319.731 470.09 319.731 463.468C319.731 456.837 314.36 451.467 307.735 451.467ZM307.735 472.893C305.871 472.895 304.048 472.343 302.497 471.307C300.946 470.272 299.738 468.799 299.024 467.076C298.551 465.932 298.308 464.706 298.309 463.468C298.309 458.26 302.521 454.048 307.735 454.048C312.943 454.048 317.159 458.26 317.159 463.468C317.159 468.677 312.943 472.893 307.735 472.893ZM312.666 460.685C312.666 460.151 312.56 459.622 312.356 459.128C312.151 458.635 311.851 458.186 311.472 457.809C310.708 457.047 309.673 456.619 308.594 456.62H302.811V470.318H305.382V464.755H307.227L309.823 470.318H312.667L309.955 464.517C310.746 464.236 311.432 463.717 311.917 463.031C312.403 462.345 312.664 461.526 312.666 460.685ZM308.594 462.183H305.382V459.185H308.594C308.992 459.186 309.374 459.344 309.655 459.625C309.937 459.906 310.095 460.288 310.096 460.686C310.095 461.084 309.936 461.465 309.655 461.745C309.373 462.026 308.991 462.183 308.594 462.183Z" fill="black"/>
<path d="M502.134 76.9835H467.434C466.025 72.9547 463.665 69.0075 460.185 65.5355C450.117 55.4531 436.59 53.8147 428.713 61.6867C427.049 63.3563 425.806 65.3451 424.98 67.5523C422.66 65.8547 419.753 64.3187 416.287 62.9459C411.415 52.7163 404.535 38.2539 389.071 38.2539C383.548 38.2539 378.601 39.9683 374.713 41.8987C363.313 32.8691 338.593 15.9675 313.36 15.9675C285.73 15.9675 247.393 41.3387 236.152 41.3387C227.962 41.3387 209.589 0.802734 181.065 0.802734C165.743 0.802734 150.219 11.1875 131.721 22.3451C114.076 32.9139 109.358 45.6963 104.253 59.1739C102.513 63.5683 94.819 71.6075 89.4774 76.9835H0.941406L151.705 339.156H48.4886L15.6166 398.35H167.065C172.257 398.35 178.024 396.573 183.162 393.87L251.545 512.803L318.088 397.071H373.508V364.615H369.787C369.75 353.341 361.216 341.048 356.937 335.621L356.119 330.933L368.833 308.804L442.943 281.475C454.975 277.038 460.564 266.257 463.164 257.832C463.164 257.832 471.34 257.751 478.796 249.188C484.021 250.535 490.669 251.924 495.819 251.924C507.033 251.924 518.81 245.516 521.852 233.582C521.852 233.582 533.722 226.288 538.991 203.862L446.737 173.321L502.134 76.9835Z" fill="white"/>
<path d="M430.253 190.535L441.836 194.367L441.76 201.837C435.591 201.602 430.656 200.428 430.656 218.464C430.656 231.92 433.222 236.28 433.222 240.074C433.222 246.512 432.673 248.04 412.438 248.04C412.438 248.04 409.277 244.203 398.177 239.905C398.177 239.905 397.967 238.877 397.514 236.993L483.229 87.9303H457.261C459.182 84.2407 457.289 78.1063 452.45 73.2663C446.972 67.7943 439.807 66.0711 436.453 69.4239C434.925 70.9463 434.461 73.2615 434.909 75.8503L424.235 87.0423C424.523 85.3519 425.126 76.4695 408.361 71.6823C403.309 61.6871 399.097 49.1919 389.07 49.1919C380.878 49.1919 373.768 55.4223 373.768 55.4223C373.768 55.4223 343.139 26.9047 313.36 26.9047C287.51 26.9047 251.848 52.2847 236.151 52.2847C219.402 52.2847 204.602 11.7383 181.065 11.7383C168.413 11.7383 153.475 21.9135 137.397 31.7039C121.327 41.4639 118.33 53.4279 114.412 63.2383C111.817 69.7407 103.596 78.4567 93.9927 87.9303H19.8711L170.423 349.762C169.279 349.969 168.167 350.11 167.149 350.11H54.9287L34.2087 387.403H167.064C172.714 387.403 180.459 384.007 184.273 379.836L186.393 377.541L251.545 490.845L311.752 386.126H362.57V375.561H350.36L348.193 368.766H350.054L358.852 364.697C358.852 354.545 346.645 340.291 346.645 340.291L344.653 328.921L361.328 299.914L439.161 271.207C452.961 266.122 454.501 246.009 454.501 246.009C454.501 246.009 467.156 251.953 474.145 236.513C474.145 236.513 488.181 240.997 495.817 240.997C502.445 240.997 511.713 237.417 511.713 227.46C511.713 227.46 521.933 221.337 525.275 210.861L433.573 180.487L430.253 190.535ZM437.877 79.9959C441.074 79.9959 442.911 81.2327 442.911 83.0239C442.911 84.8063 436.445 93.2983 428.247 93.2983C426.519 93.2983 426.119 92.3535 426.119 91.8183C426.119 89.2063 434.664 79.9959 437.877 79.9959ZM430.967 97.6055C438.53 106.728 438.799 116.741 438.799 116.741L428.78 99.1559C428.78 97.3639 430.967 97.6055 430.967 97.6055ZM426.312 103.604C426.312 103.604 437.357 115.825 437.357 122.718C437.357 126.494 434.34 124.977 434.34 124.977L423.638 108.946L426.312 103.604ZM428.097 133.222C422.849 133.222 417.851 118.981 417.851 118.981C417.851 118.981 418.378 116.101 421.185 116.101C430.146 123.745 428.097 133.222 428.097 133.222ZM410.253 125.653C419.156 125.653 422.659 141.867 421.873 144.81C413.236 144.81 410.253 125.653 410.253 125.653ZM413.383 154.827C400.805 154.827 394.435 132.097 394.435 132.097C394.435 132.097 394.688 128.947 403.593 129.645C403.593 129.645 416.229 142.484 413.383 154.827ZM421.742 97.8031C421.742 109.227 408.525 123.259 401.977 123.259C398.527 123.259 398.007 120.525 398.007 120.525C398.007 120.525 406.173 103.157 418.279 95.3615C418.279 95.3615 421.742 95.4519 421.742 97.8031ZM410.049 80.2079C415.528 77.0783 423.621 87.1999 415.893 91.1167C404.478 96.7023 392.203 120.308 392.203 120.308C386.699 121.236 384.651 117.863 384.651 117.863C384.651 117.863 387.081 95.0871 410.049 80.2079ZM271.015 277.9C266.765 282.741 254.838 274.436 259.365 269.697L384.008 138.696C388.624 134.086 394.744 139.793 390.369 144.689L271.016 277.899L271.015 277.9ZM279.487 293.175L278.395 296.745L274.162 296.084L274.838 289.816C277.314 289.137 278.345 292.496 279.487 293.175ZM266.657 287.074C270.945 287.074 270.772 293.24 270.772 303.449C270.772 310.261 268.169 312.993 266.38 312.993C263.169 312.993 263.333 308.068 262.348 306.316C262.348 306.316 263.673 304.581 263.673 301.109C263.673 297.623 261.924 287.074 266.657 287.074ZM208.417 274.917C205.618 277.701 200.59 277.351 200.59 277.351C200.59 277.351 186.906 265.311 195.256 253.735C204.104 259.156 208.417 274.917 208.417 274.917H208.417ZM201.913 249.745C201.913 244.564 212.933 240.927 212.933 250.647C212.933 262.948 215.301 262.749 215.301 264.439C215.301 266.725 210.85 265.095 210.85 265.095C210.85 261.337 201.914 254.914 201.914 249.745H201.913ZM224.985 273.43C230.336 273.43 228.473 280.243 228.473 280.243C218.876 277.954 204.625 291.593 204.625 291.593C204.625 291.593 203.66 289.462 203.66 287.071C203.66 282.436 214.108 273.43 224.985 273.43H224.985ZM217.328 248.845C217.328 241.801 224.017 238.42 224.017 257.985C221.682 260.31 217.328 256.694 217.328 248.845V248.845ZM212.636 292.275C221.535 320.901 229.631 336.299 229.631 336.299L226.468 337.952C226.468 337.952 210.296 326.52 207.964 299.626L212.636 292.275ZM219.121 288.715C234.761 280.087 240.95 306.316 240.95 306.316C240.95 331.314 238.505 335.493 238.505 335.493C234.854 334.545 226.201 317.649 219.121 288.715ZM235.375 267.093C233.627 268.078 229.832 268.268 229.832 262.572C229.832 257.062 228.024 249.093 230.488 243.717C239.105 247.789 233.201 262.767 235.375 267.093ZM234.436 279.346C234.436 277.47 236.788 274.445 241.241 274.445C245.704 274.445 249.844 275.212 249.844 279.949C249.844 285.738 242.843 289.612 241.617 289.612C239.461 289.612 234.436 284.264 234.436 279.346ZM239.17 246.615C239.17 246.615 245.964 245.902 245.964 254.289C245.964 257.585 245.969 263.106 246.301 265.543C244.773 267.909 240.29 265.99 240.29 265.99C240.29 265.99 238.046 253.553 239.17 246.615ZM247.189 299.626C247.189 299.626 256.326 290.441 256.326 312.536C256.326 331.206 243.757 340.609 243.757 333.252C243.757 328.727 248.474 329.242 247.189 299.626H247.189ZM251.637 253.073C251.637 253.073 256.013 251.057 256.013 260.166C256.013 269.351 255.045 268.806 253.658 269.578C253.658 269.578 249.922 263.905 251.637 253.073ZM255.998 293.874C254.654 293.874 252.322 292.436 252.322 290.574C252.322 284.864 253.858 281.55 256.632 281.55C258.316 281.55 259.017 283.398 259.017 285.365C259.017 291.743 256.932 293.874 255.998 293.874ZM381.727 126.961C381.727 126.961 386.122 125.04 388.592 132.864C384.67 132.657 382.285 134.386 382.285 134.386C382.285 134.386 379.965 129.581 381.727 126.961ZM394.033 54.4535L398.881 64.8407C393.742 64.8407 390.171 57.0815 390.171 55.5735C390.171 53.6103 393.573 53.4543 394.033 54.4535ZM383.289 55.0535L398.661 75.9727C398.661 75.9727 397.461 78.4655 395.338 76.1967L378.606 58.3807C378.606 58.3807 379.404 55.0535 383.289 55.0535ZM375.493 62.8143L393.785 83.7663C394.773 84.7567 391.428 87.4079 389.537 85.5543L368.815 65.2855C368.815 65.2855 373.063 60.0327 375.493 62.8143ZM364.588 69.9031C367.664 69.9031 387.353 85.1103 387.353 89.6007C387.353 90.1207 385.915 92.1503 385.081 91.5591L360.125 73.7343C360.125 73.7343 361.515 69.9031 364.588 69.9031ZM355.977 79.7303C365.609 84.0967 374.166 89.5383 382.839 95.2943C384.28 96.2647 382.013 100.773 380.613 100.031L354.369 85.7887C354.369 85.7887 353.566 82.9343 355.977 79.7303ZM352.997 91.5591C358.349 93.0871 375.887 102.77 378.157 104.273C380.109 105.54 377.327 108.441 376.39 108.045L351.65 96.4711C351.65 96.4711 350.001 94.6151 352.997 91.5591ZM348.285 101.581C358.113 104.352 370.581 110.948 370.581 110.948C353.051 111.825 347.633 103.605 347.633 103.605L348.285 101.581ZM237.464 99.0663C274.751 99.0663 316.109 134.525 344.461 173.844L266.961 255.28C223.681 232.418 181.736 196.125 181.736 149.472C181.736 123.56 204.184 99.0663 237.464 99.0663ZM136.469 43.2239C142.683 40.2583 147.049 46.1863 147.049 46.1863C146.2 48.4791 139.414 53.2983 139.414 58.1055C139.414 60.6943 152.219 60.9127 152.219 70.8079C152.219 75.1319 150.011 77.3047 150.011 77.3047L144.944 77.7263C144.944 77.7263 147.125 75.5839 147.125 71.5207C147.125 68.0287 143.608 65.0183 141.157 65.0183C133.88 65.0183 135.589 75.5479 130.537 71.3703C132.037 63.1735 135.535 56.7615 136.469 43.2239ZM111.964 78.4735C125.524 92.0447 131.644 106.963 131.644 106.963C128.908 113.745 99.0943 127.305 99.0943 127.305L116.729 94.7639L72.6311 132.748C72.6311 132.748 73.3103 115.107 78.7319 109.001C84.1647 102.919 111.964 78.4735 111.964 78.4735ZM60.1799 382.773H42.0871L57.6535 354.748H75.7607L60.1799 382.773ZM180.856 376.695C177.898 379.93 171.458 382.773 167.064 382.773H153.776L166.456 354.748H167.149C173.993 354.748 183.119 350.942 187.949 346.076L209.368 324.476L217.755 336.449L180.856 376.695ZM321.735 368.767H335.745L333.798 375.561H317.836L321.735 368.766V368.767ZM278.064 362.343C276.915 360.88 278.152 358.005 280.781 355.934C283.449 353.84 286.553 353.361 287.685 354.841C288.848 356.305 287.629 359.191 284.974 361.273C282.309 363.348 279.213 363.823 278.064 362.343ZM347.76 379.141H359.008V382.567H269.885C271.281 375.071 275.57 369.87 276.549 368.767H279.642L285.517 379.141H295.211L298.505 368.766H303.941L307.738 379.141H336.497L339.449 368.766H344.451L347.76 379.141ZM351.407 282.755C338.755 282.755 314.655 276.787 288.511 265.561L355.641 190.623C370.069 214.225 379.065 237.609 379.065 254.186C379.065 279.526 363.111 282.754 351.407 282.754V282.755ZM453.791 205.117L457.563 199.573L479.961 206.981L480.161 213.861L453.791 205.117ZM496.647 235.061C493.365 235.847 490.351 235.018 489.924 233.185C489.468 231.382 491.788 229.245 495.062 228.453C498.317 227.666 501.356 228.527 501.78 230.338C502.227 232.16 499.926 234.274 496.647 235.061ZM492.697 218.014L496.665 212.522L501.443 214.109L502.886 221.39L492.697 218.014ZM435.84 185.001L520.517 213.028C517.541 218.777 512.447 222.645 510.58 223.939L506.773 222.683L504.544 211.363L495.317 208.31L489.141 216.83L483.771 215.051L483.44 204.385L456.12 195.339L450.259 203.955L445.318 202.315L445.429 191.793L434.758 188.262L435.838 185L435.84 185.001Z" fill="black"/>
<path d="M202.168 297.537C197.359 285.949 199.483 283.309 199.483 283.309C199.483 283.309 184.033 270.615 188.617 254.822C188.617 254.822 148.849 197.198 148.849 163.033C148.849 145.347 157.431 147.068 157.431 132.61C157.431 120.74 149.31 111.869 143.492 111.869C136.823 111.869 116.004 125.615 85.5145 143.584L97.0537 117.137L69.2457 145.636C69.2457 145.636 63.8137 117.817 78.7769 102.868C81.2017 100.422 83.6889 98.0086 86.1593 95.5926H33.1113L177.879 347.337C180.516 346.077 182.952 344.529 184.653 342.803L207.475 319.795C203.824 311.246 202.169 302.389 202.169 297.537H202.168ZM376.478 121.209L373.77 115.105C359.743 117.469 347.191 110.357 343.603 108.507C340.007 106.682 343.931 98.8238 343.931 98.8238C343.931 98.8238 342.958 97.1286 340.753 95.5918H326.081C323.319 98.0718 322.674 101.897 324.932 104.226C340.501 120.384 353 137.724 362.958 154.439L379.231 137.33L376.478 121.21V121.209ZM435.972 97.9238C444.49 107.992 440.975 118.3 440.975 118.3C440.975 126.088 436.859 125.957 436.859 125.957C436.859 144.071 427.351 140.89 427.351 140.89C427.351 164.73 401.091 155.066 401.091 155.066C396.807 154.512 393.239 153.324 390.335 151.914L372.556 171.754C384.082 194.193 390.991 214.134 394.676 226.562L469.963 95.5918H438.067L435.972 97.9238ZM314.078 288.045C314.078 286.445 290.206 280.105 280.84 276.517C272.278 279.882 283.4 281.6 283.4 292.721C283.4 299.311 280.192 307.041 280.192 307.041L275.424 308.393C275.424 308.393 265.936 325.896 259.84 323.318C251.139 338.621 247.579 342.161 233.756 342.161C229.316 342.161 225.409 340.868 221.974 338.705L191.818 371.596L251.547 475.471L302.918 386.126H265.987C265.987 376.613 272.037 368.766 272.037 368.766C272.037 353.624 281.363 350.398 288.311 349.778C303.073 348.48 309.091 349.761 309.091 342.549C309.091 337.455 308.647 331.445 308.647 331.445H314.078C314.078 311.609 308.531 306.793 308.531 296.669C308.531 292.791 314.078 291.117 314.078 288.045ZM309.754 374.23L312.895 368.766H307.734L309.754 374.23Z" fill="#FFB81C"/>
<path d="M287.589 375.558H292.606L294.771 368.764H283.744L287.589 375.558ZM337.723 325.58L349.302 305.441L336.387 311.78L337.723 325.58Z" fill="#FFB81C"/>
</g>
<defs>
<clipPath id="clip0_2_15027">
<rect width="538.05" height="512" fill="white" transform="translate(0.941406 0.800781)"/>
</clipPath>
</defs>
</svg>
