<svg width="526" height="513" viewBox="0 0 526 513" fill="none" xmlns="http://www.w3.org/2000/svg">
<g clip-path="url(#clip0_820_283)">
<path d="M432.137 0.0507812H92.9915C41.6337 0.0507812 0 41.6845 0 93.0422V419.059C0 470.417 41.6337 512.051 92.9915 512.051H432.137C483.495 512.051 525.128 470.417 525.128 419.059V93.0422C525.128 41.6845 483.495 0.0507812 432.137 0.0507812Z" fill="#EB1000"/>
<path d="M286.645 343.048C286.645 345.225 284.881 346.989 282.704 346.989C280.527 346.989 278.763 345.225 278.763 343.048C278.763 340.871 280.527 339.107 282.704 339.107C284.881 339.107 286.645 340.871 286.645 343.048ZM278.763 352.497C277.6 352.497 276.58 352.948 275.701 353.575C275.874 353.069 276.022 352.547 276.022 351.98C276.022 349.226 273.788 346.989 271.031 346.989C268.275 346.989 266.04 349.226 266.04 351.98C266.04 354.74 268.275 356.972 271.031 356.972C272.062 356.972 272.966 356.587 273.763 356.048C273.554 356.62 273.395 357.224 273.395 357.868C273.395 360.83 275.8 363.238 278.763 363.238C281.728 363.238 284.133 360.83 284.133 357.868C284.133 354.905 281.728 352.497 278.763 352.497ZM269.434 364.414C269.239 361.193 266.628 358.621 263.357 358.621C262.783 358.621 262.266 358.802 261.741 358.945C262.687 357.912 263.3 356.565 263.3 355.053C263.3 351.848 260.7 349.248 257.495 349.248C254.29 349.248 251.69 351.848 251.69 355.053C251.69 358.258 254.29 360.858 257.495 360.858C257.995 360.858 258.443 360.693 258.908 360.572C257.869 361.671 257.206 363.139 257.206 364.772C257.206 367.57 259.114 369.834 261.673 370.582C261.67 370.664 261.626 370.73 261.626 370.813C261.626 374.474 264.597 377.448 268.264 377.448C271.927 377.448 274.898 374.474 274.898 370.813C274.898 367.564 272.518 364.986 269.434 364.414ZM254.087 370.395C254.375 369.642 254.573 368.845 254.573 367.987C254.573 364.469 251.866 361.671 248.439 361.331C249.283 360.253 249.868 358.956 249.868 357.477C249.868 354.443 247.699 352.03 244.858 351.398C246.158 350.315 247.034 348.748 247.034 346.923C247.034 344.658 245.715 342.751 243.841 341.767C246.737 341.641 249.06 339.288 249.06 336.364C249.06 333.357 246.622 330.922 243.615 330.922C240.608 330.922 238.17 333.357 238.17 336.364C238.17 338.403 239.341 340.118 241.004 341.053C237.81 341.124 235.232 343.708 235.232 346.923C235.232 349.677 237.159 351.881 239.707 352.536C238.206 353.695 237.176 355.433 237.176 357.477C237.176 360.682 239.589 363.222 242.675 363.656C241.675 364.838 241.001 366.316 241.001 367.988C241.001 371.242 243.34 373.831 246.394 374.49C245.891 375.507 245.545 376.612 245.545 377.827C245.545 382.032 248.955 385.44 253.161 385.44C257.366 385.44 260.777 382.032 260.777 377.827C260.777 373.952 257.836 370.873 254.087 370.395ZM176.16 323.627C176.16 326.326 174.609 328.596 172.408 329.833C172.809 329.762 173.175 329.591 173.595 329.591C177.589 329.591 180.826 332.829 180.826 336.82C180.826 337.974 180.499 339.024 180.021 339.992C181.283 338.903 182.874 338.178 184.672 338.178C188.591 338.178 191.752 341.322 191.842 345.219C192.62 342.234 195.16 340.019 198.348 339.876C197.683 338.876 197.199 337.738 197.199 336.441C197.199 332.933 200.041 330.092 203.548 330.092C207.052 330.092 209.894 332.933 209.894 336.441C209.894 339.706 207.396 342.3 204.224 342.652C205.172 343.867 205.829 345.329 205.829 346.989C205.829 348.864 205.071 350.54 203.894 351.815C205.197 353.074 205.967 354.795 206.176 356.691C206.387 354.866 207.181 353.245 208.473 352.068C207.014 350.821 206.041 349.034 206.041 346.967C206.041 343.422 208.787 340.602 212.252 340.288C211.37 339.228 210.771 337.908 210.771 336.419C210.771 334.181 212.024 332.312 213.805 331.235C211.178 330.812 209.136 328.635 209.136 325.881C209.136 322.83 211.609 320.357 214.663 320.357C217.716 320.357 220.19 322.83 220.19 325.881C220.19 327.816 219.14 329.432 217.639 330.421C220.671 330.795 223.054 333.28 223.054 336.419C223.054 339.502 220.745 341.943 217.788 342.383C218.909 343.592 219.629 345.186 219.629 346.967C219.629 348.776 218.895 350.397 217.741 351.618C219.594 352.97 220.874 355.048 220.874 357.516C220.874 358.863 220.418 360.061 219.791 361.149C222.238 362.535 223.961 365.058 223.961 368.064C223.961 368.927 223.722 369.719 223.469 370.5C224.304 370.895 225.066 371.407 225.734 372.028C224.972 370.862 224.417 369.549 224.417 368.048C224.417 366.465 225.025 365.074 225.874 363.865C223.348 362.842 221.559 360.391 221.559 357.494C221.559 355.444 222.499 353.652 223.922 352.393C222.001 351.299 220.646 349.314 220.646 346.945C220.646 343.625 223.222 340.987 226.467 340.701C225.255 339.64 224.45 338.128 224.45 336.391C224.45 334.017 225.885 331.988 227.93 331.092C227.627 331.147 227.353 331.274 227.036 331.274C224.043 331.274 221.619 328.844 221.619 325.854C221.619 322.863 224.043 320.434 227.036 320.434C230.03 320.434 232.454 322.863 232.454 325.854C232.454 328.069 231.112 329.971 229.205 330.806C229.554 330.74 229.876 330.597 230.244 330.597C233.443 330.597 236.038 333.192 236.038 336.391C236.038 339.36 233.77 341.723 230.89 342.053C232.347 343.218 233.341 344.933 233.341 346.945C233.341 348.682 232.638 350.254 231.505 351.398C233.754 352.536 235.337 354.806 235.337 357.494C235.337 358.846 234.848 360.034 234.174 361.1C237.112 362.089 239.259 364.783 239.259 368.048C239.259 368.961 239.042 369.813 238.739 370.621C242.257 371.649 244.879 374.765 244.879 378.613C244.879 383.286 241.092 387.073 236.42 387.073C232.385 387.073 229.169 384.187 228.323 380.405C227.476 384.522 224.002 387.678 219.632 387.678C216.078 387.678 213.074 385.578 211.593 382.598C210.076 385.941 206.75 388.288 202.842 388.288C199.266 388.288 196.27 386.248 194.604 383.357C192.917 386.408 189.786 388.557 186.054 388.557C182.44 388.557 179.411 386.523 177.682 383.626C175.951 386.545 172.903 388.596 169.264 388.596C165.012 388.596 161.447 385.897 160.029 382.142C158.226 383.934 155.747 385.045 153.004 385.045C147.498 385.045 143.032 380.581 143.032 375.073C143.032 374.644 143.225 374.276 143.277 373.864C142.257 374.221 141.199 374.512 140.056 374.512C134.592 374.512 130.161 370.082 130.161 364.618C130.161 362.474 130.988 360.6 132.146 358.978C127.253 358.527 123.378 354.542 123.378 349.529C123.378 345.714 125.645 342.476 128.872 340.921C126.025 339.321 124.018 336.386 124.018 332.89C124.018 327.849 128.031 323.798 133.031 323.611C131.425 321.978 130.422 319.741 130.422 317.267C130.422 312.254 134.484 308.192 139.498 308.192C139.649 308.192 139.775 308.269 139.926 308.28C138.178 306.647 137.052 304.366 137.052 301.782C137.052 296.841 141.056 292.839 145.998 292.839C146.363 292.839 146.671 293.004 147.023 293.048C145.033 291.432 143.681 289.063 143.681 286.298C143.681 281.427 147.628 277.481 152.495 277.481C153.072 277.481 153.575 277.7 154.12 277.81C151.874 276.238 150.31 273.765 150.31 270.813C150.31 266.014 154.199 262.128 158.995 262.128C159.787 262.128 160.499 262.38 161.23 262.578C158.712 261.089 156.94 258.467 156.94 255.328C156.94 250.601 160.771 246.769 165.495 246.769C166.499 246.769 167.428 247.022 168.321 247.341C165.531 245.967 163.569 243.158 163.569 239.843C163.569 235.187 167.342 231.416 171.996 231.416C174.477 231.416 176.654 232.532 178.196 234.242C179.161 233.818 180.216 233.56 181.34 233.56C183.853 233.56 185.985 234.819 187.417 236.66C188.401 236.155 189.473 235.797 190.658 235.797C193.225 235.797 195.371 237.216 196.644 239.238C197.611 238.678 198.672 238.271 199.873 238.271C202.924 238.271 205.373 240.393 206.11 243.213C206.766 242.965 207.462 242.789 208.207 242.789C211.499 242.789 214.168 245.455 214.168 248.748C214.168 250.496 213.388 252.03 212.189 253.124C212.816 252.86 213.503 252.711 214.226 252.711C217.134 252.711 219.489 255.07 219.489 257.977C219.489 259.407 218.909 260.698 217.983 261.644C218.813 260.896 219.885 260.413 221.089 260.413C223.681 260.413 225.783 262.512 225.783 265.107C225.783 267.696 223.681 269.796 221.089 269.796C218.5 269.796 216.397 267.696 216.397 265.107C216.397 263.832 216.914 262.683 217.738 261.836C216.804 262.688 215.589 263.238 214.226 263.238C211.321 263.238 208.965 260.88 208.965 257.977C208.965 256.521 209.562 255.202 210.518 254.245C209.809 254.547 209.028 254.712 208.207 254.712C205.623 254.712 203.477 253.047 202.649 250.743C201.8 251.145 200.877 251.409 199.873 251.409C197.738 251.409 195.932 250.326 194.731 248.748C193.56 249.578 192.205 250.172 190.658 250.172C188.588 250.172 186.755 249.27 185.441 247.869C184.232 248.638 182.88 249.199 181.34 249.199C179.29 249.199 177.457 248.369 176.063 247.077C174.837 247.77 173.502 248.27 171.996 248.27C171.012 248.27 170.099 248.017 169.222 247.709C170.028 248.105 170.786 248.578 171.424 249.193C172.551 248.583 173.777 248.143 175.148 248.143C177.482 248.143 179.532 249.193 180.983 250.804C182.104 250.095 183.358 249.578 184.781 249.578C187.17 249.578 189.187 250.804 190.515 252.574C191.603 251.788 192.873 251.227 194.321 251.227C197.163 251.227 199.544 253.03 200.492 255.542C201.245 255.201 202.067 254.987 202.949 254.987C206.269 254.987 208.957 257.681 208.957 260.995C208.957 262.221 208.501 263.298 207.871 264.249C208.341 264.112 208.809 263.953 209.325 263.953C212.272 263.953 214.66 266.344 214.66 269.29C214.66 270.142 214.415 270.923 214.061 271.637C214.778 271.203 215.573 270.884 216.471 270.884C219.096 270.884 221.226 273.012 221.226 275.639C221.226 278.261 219.096 280.388 216.471 280.388C213.847 280.388 211.716 278.261 211.716 275.639C211.716 274.947 211.879 274.298 212.145 273.704C211.315 274.243 210.386 274.628 209.325 274.628C206.376 274.628 203.988 272.237 203.988 269.29C203.988 268.301 204.329 267.427 204.801 266.63C204.208 266.822 203.606 267.003 202.949 267.003C200.552 267.003 198.518 265.574 197.554 263.546C196.583 264.096 195.52 264.502 194.321 264.502C192.384 264.502 190.68 263.639 189.465 262.315C188.195 263.408 186.59 264.134 184.781 264.134C182.913 264.134 181.244 263.376 179.955 262.216C178.608 263.271 176.99 264.002 175.148 264.002C174.079 264.002 173.067 263.777 172.136 263.392C173.018 263.777 173.804 264.326 174.491 264.981C175.733 264.024 177.218 263.359 178.908 263.359C181.112 263.359 183.033 264.376 184.38 265.91C185.562 264.871 187.074 264.184 188.772 264.184C191.444 264.184 193.708 265.772 194.786 268.037C195.66 267.548 196.616 267.19 197.691 267.19C201.036 267.19 203.749 269.9 203.749 273.243C203.749 274.012 203.573 274.738 203.312 275.414C203.68 275.331 204.026 275.188 204.422 275.188C207.41 275.188 209.834 277.613 209.834 280.603C209.834 281.12 209.674 281.592 209.54 282.065C210.235 281.669 210.996 281.383 211.854 281.383C214.495 281.383 216.636 283.527 216.636 286.171C216.636 288.81 214.495 290.954 211.854 290.954C209.21 290.954 207.069 288.81 207.069 286.171C207.069 285.781 207.203 285.435 207.291 285.072C206.445 285.616 205.499 286.012 204.422 286.012C201.434 286.012 199.01 283.588 199.01 280.603C199.01 280.026 199.172 279.493 199.34 278.97C198.804 279.124 198.276 279.3 197.691 279.3C195.476 279.3 193.621 278.047 192.565 276.271C191.471 277.046 190.212 277.596 188.772 277.596C187.008 277.596 185.427 276.881 184.229 275.766C183.583 276.453 182.814 277.002 181.945 277.398C182.371 277.31 182.767 277.14 183.22 277.14C185.721 277.14 187.821 278.564 188.992 280.581C189.987 279.883 191.13 279.383 192.436 279.383C195.808 279.383 198.54 282.12 198.54 285.49C198.54 285.924 198.381 286.309 198.293 286.715C198.7 286.622 199.085 286.468 199.522 286.468C202.526 286.468 204.964 288.909 204.964 291.916C204.964 292.185 204.848 292.416 204.812 292.669C205.532 292.234 206.33 291.916 207.234 291.916C209.875 291.916 212.016 294.059 212.016 296.698C212.016 299.342 209.875 301.48 207.234 301.48C204.592 301.48 202.451 299.342 202.451 296.698C202.451 296.566 202.515 296.462 202.526 296.33C201.652 296.929 200.657 297.358 199.522 297.358C196.515 297.358 194.077 294.917 194.077 291.916C194.077 291.674 194.184 291.47 194.214 291.239C193.643 291.415 193.065 291.597 192.436 291.597C190.397 291.597 188.682 290.536 187.574 289.002C186.387 290.014 184.9 290.69 183.22 290.69C181.547 290.69 180.065 290.019 178.883 289.013C178.592 289.398 178.323 289.777 177.96 290.102C180.164 290.195 182.017 291.355 183.209 293.048C184.295 292.13 185.647 291.514 187.178 291.514C190.614 291.514 193.398 294.301 193.398 297.737C193.398 297.836 193.346 297.918 193.34 298.017C193.763 297.913 194.168 297.759 194.621 297.759C197.639 297.759 200.088 300.211 200.088 303.228C200.088 306.246 197.639 308.692 194.621 308.692C191.716 308.692 189.393 306.406 189.223 303.547C188.574 303.773 187.904 303.959 187.178 303.959C185.315 303.959 183.696 303.102 182.555 301.805C181.307 303.058 179.579 303.838 177.668 303.838C176.08 303.838 174.686 303.212 173.521 302.31C173.356 302.58 173.191 302.838 172.996 303.085C174.84 303.327 176.415 304.223 177.528 305.603C178.677 304.432 180.269 303.696 182.041 303.696C185.54 303.696 188.376 306.532 188.376 310.028C188.376 313.53 185.54 316.366 182.041 316.366C180.241 316.366 178.636 315.602 177.482 314.393C176.19 315.959 174.31 317.02 172.119 317.02M173.092 359.566C174.56 360.567 175.786 361.864 176.456 363.53C176.674 363.172 176.888 362.821 177.152 362.502C176.08 361.182 175.374 359.577 175.305 357.763C174.684 358.506 173.939 359.088 173.092 359.566ZM190.083 361.595C190.938 362.397 191.633 363.343 192.123 364.426C192.321 364.002 192.631 363.662 192.892 363.282C191.939 362.375 191.295 361.215 190.883 359.935C190.685 360.534 190.408 361.067 190.083 361.595ZM206.181 358.357C206.063 359.445 205.747 360.446 205.236 361.358C206.747 362.546 207.781 364.178 208.242 366.108C208.482 365.179 208.858 364.349 209.389 363.585C207.63 362.403 206.439 360.561 206.181 358.357ZM188.426 351.376C189.586 352.349 190.424 353.602 190.894 355.075C191.353 353.679 192.15 352.486 193.244 351.552C192.224 350.342 191.556 348.842 191.518 347.149C191.048 348.946 189.957 350.414 188.426 351.376ZM173.595 344.054C170.932 344.054 168.703 342.548 167.45 340.404C167.483 340.706 167.626 340.965 167.626 341.278C167.626 342.663 167.191 343.9 166.581 345.043C167.411 344.758 168.269 344.516 169.198 344.516C173.57 344.516 177.083 347.995 177.237 352.332C177.891 351.557 178.669 350.936 179.565 350.458C178.27 349.155 177.468 347.363 177.468 345.379C177.468 344.235 177.789 343.196 178.265 342.235C176.998 343.328 175.398 344.054 173.595 344.054ZM168.948 330.839C167.134 330.839 165.526 330.108 164.256 329.003C163.657 330.894 162.395 332.411 160.71 333.401C163.206 333.786 165.273 335.237 166.471 337.353C166.457 337.166 166.364 337.007 166.364 336.82C166.364 334.11 167.92 331.84 170.127 330.603C169.728 330.669 169.365 330.839 168.948 330.839ZM178.908 278.091C177.245 278.091 175.789 277.442 174.557 276.513C174.249 276.81 173.845 276.98 173.494 277.228C175.357 277.349 177.058 278.074 178.301 279.317C178.9 278.673 179.609 278.157 180.414 277.788C179.911 277.893 179.444 278.091 178.908 278.091ZM172.007 263.342C171.374 263.068 170.852 262.628 170.319 262.205C170.017 262.413 169.734 262.644 169.407 262.82C170.316 262.87 171.204 263.013 172.007 263.342ZM178.496 232.653C179.719 232.653 180.862 232.356 181.907 231.878C183.317 233.406 185.293 234.396 187.535 234.396C188.825 234.396 189.984 234 191.051 233.445C192.351 235.088 194.275 236.21 196.534 236.21C197.82 236.21 198.961 235.775 200 235.176C201.146 237.018 203.095 238.309 205.423 238.309C206.272 238.309 207.074 238.122 207.816 237.826C208.432 240.437 210.669 242.416 213.465 242.416C216.524 242.416 218.956 240.063 219.264 237.084C219.978 239.046 221.82 240.464 224.03 240.464C226.855 240.464 229.147 238.177 229.147 235.346C229.147 232.521 226.855 230.234 224.03 230.234C221.41 230.234 219.33 232.23 219.027 234.769C218.277 232.367 216.114 230.592 213.465 230.592C212.854 230.592 212.299 230.768 211.747 230.938C211.301 227.783 208.701 225.315 205.423 225.315C204.474 225.315 203.587 225.54 202.773 225.908C201.594 223.627 199.28 222.016 196.534 222.016C195.591 222.016 194.701 222.22 193.879 222.555C192.502 220.45 190.237 218.977 187.535 218.977C186.645 218.977 185.826 219.207 185.029 219.482C183.517 217.459 181.217 216.063 178.496 216.063C173.914 216.063 170.198 219.774 170.198 224.358C170.198 228.937 173.914 232.653 178.496 232.653ZM184.993 217.036C185.974 217.036 186.887 216.794 187.758 216.481C189.146 218.317 191.246 219.587 193.728 219.587C194.761 219.587 195.745 219.372 196.644 218.999C197.894 220.912 199.95 222.253 202.407 222.253C203.433 222.253 204.392 222.005 205.269 221.61C206.321 223.726 208.451 225.216 210.974 225.216C211.681 225.216 212.332 225.023 212.967 224.814C213.261 227.783 215.68 230.124 218.722 230.124C221.317 230.124 223.444 228.415 224.219 226.079C225.011 227.898 226.819 229.179 228.933 229.179C231.772 229.179 234.075 226.876 234.075 224.034C234.075 221.192 231.772 218.889 228.933 218.889C226.756 218.889 224.915 220.252 224.164 222.165C223.321 219.966 221.221 218.388 218.722 218.388C218.247 218.388 217.821 218.553 217.378 218.658C217.307 215.173 214.481 212.358 210.974 212.358C210.243 212.358 209.57 212.551 208.916 212.776C207.913 210.132 205.401 208.236 202.407 208.236C201.718 208.236 201.091 208.444 200.459 208.631C199.211 206.141 196.702 204.388 193.728 204.388C193.076 204.388 192.494 204.602 191.889 204.761C190.463 202.376 187.97 200.705 184.993 200.705C180.486 200.705 176.827 204.36 176.827 208.873C176.827 213.381 180.486 217.036 184.993 217.036ZM191.493 201.425C192.227 201.425 192.884 201.189 193.56 201.007C194.86 203.222 197.166 204.784 199.923 204.784C200.695 204.784 201.396 204.564 202.097 204.344C203.213 206.663 205.538 208.291 208.284 208.291C209.1 208.291 209.856 208.087 210.584 207.829C211.447 210.313 213.745 212.122 216.526 212.122C217.123 212.122 217.659 211.935 218.208 211.781C218.203 211.864 218.162 211.93 218.162 212.006C218.162 215.222 220.764 217.828 223.98 217.828C226.209 217.828 228.084 216.53 229.059 214.689C229.834 216.569 231.676 217.894 233.833 217.894C236.689 217.894 239.006 215.579 239.006 212.721C239.006 209.868 236.689 207.548 233.833 207.548C231.923 207.548 230.324 208.637 229.428 210.176C228.653 207.873 226.545 206.191 223.98 206.191C223.543 206.191 223.158 206.345 222.749 206.438C222.776 206.207 222.886 206.004 222.886 205.762C222.886 202.249 220.039 199.402 216.526 199.402C215.938 199.402 215.41 199.589 214.872 199.737C214.119 196.73 211.524 194.455 208.284 194.455C207.792 194.455 207.357 194.636 206.893 194.735C205.84 191.871 203.15 189.804 199.923 189.804C199.508 189.804 199.148 189.975 198.752 190.041C197.477 187.287 194.728 185.352 191.493 185.352C187.057 185.352 183.46 188.947 183.46 193.388C183.46 197.824 187.057 201.425 191.493 201.425ZM197.993 185.808C198.477 185.808 198.898 185.616 199.359 185.533C200.492 188.144 203.084 189.98 206.115 189.98C206.701 189.98 207.22 189.777 207.764 189.645C208.674 192.349 211.15 194.328 214.16 194.328C214.822 194.328 215.424 194.125 216.032 193.949C216.614 196.824 219.033 199.028 222.075 199.028C222.644 199.028 223.156 198.847 223.681 198.704C223.612 199.061 223.466 199.391 223.466 199.765C223.466 202.948 226.05 205.537 229.238 205.537C231.184 205.537 232.822 204.509 233.866 203.03C234.556 205.097 236.442 206.609 238.737 206.609C241.606 206.609 243.934 204.278 243.934 201.408C243.934 198.539 241.606 196.208 238.737 196.208C237.071 196.208 235.656 197.044 234.705 198.259C234.031 195.818 231.893 193.988 229.238 193.988C228.823 193.988 228.457 194.141 228.064 194.224C228.188 193.735 228.367 193.262 228.367 192.734C228.367 189.26 225.552 186.446 222.075 186.446C221.633 186.446 221.243 186.611 220.825 186.699C220.407 183.323 217.645 180.679 214.16 180.679C213.8 180.679 213.492 180.828 213.146 180.883C212.357 177.662 209.584 175.221 206.115 175.221C205.857 175.221 205.64 175.342 205.39 175.369C204.323 172.264 201.462 169.999 197.993 169.999C193.629 169.999 190.089 173.533 190.089 177.903C190.089 182.268 193.629 185.808 197.993 185.808ZM204.494 170.191C204.837 170.191 205.131 170.037 205.461 169.993C206.373 172.967 209.037 175.171 212.31 175.171C212.753 175.171 213.135 174.996 213.558 174.919C214.176 178.002 216.771 180.372 220.033 180.372C220.547 180.372 221.001 180.19 221.479 180.08C221.682 183.334 224.324 185.929 227.627 185.929C228.169 185.929 228.653 185.753 229.153 185.621C228.944 186.215 228.774 186.836 228.774 187.501C228.774 190.662 231.338 193.229 234.499 193.229C236.744 193.229 238.643 191.904 239.581 190.019C239.55 190.239 239.449 190.436 239.449 190.667C239.449 193.553 241.788 195.889 244.673 195.889C247.559 195.889 249.898 193.553 249.898 190.667C249.898 187.781 247.559 185.44 244.673 185.44C242.634 185.44 240.914 186.644 240.053 188.348C240.097 188.056 240.224 187.798 240.224 187.501C240.224 184.34 237.662 181.779 234.499 181.779C234.106 181.779 233.759 181.927 233.385 182.004C233.671 181.29 233.85 180.52 233.85 179.706C233.85 176.271 231.063 173.484 227.627 173.484C227.322 173.484 227.058 173.616 226.764 173.66C226.764 173.649 226.77 173.643 226.77 173.632C226.77 169.911 223.755 166.899 220.033 166.899C219.808 166.899 219.618 167.003 219.401 167.025C218.948 163.447 216.012 160.638 212.31 160.638C212.173 160.638 212.06 160.709 211.925 160.715C211.128 157.268 208.182 154.64 204.494 154.64C200.198 154.64 196.718 158.125 196.718 162.419C196.718 166.712 200.198 170.191 204.494 170.191ZM211.109 154.629C211.414 154.629 211.675 154.492 211.969 154.454C212.494 157.911 215.344 160.605 218.948 160.605C219.407 160.605 219.808 160.423 220.245 160.341C220.289 164.007 223.257 166.97 226.932 166.97C227.677 166.97 228.361 166.772 229.032 166.547C228.955 166.937 228.795 167.3 228.795 167.718C228.795 171.164 231.593 173.962 235.04 173.962C236.071 173.962 237.002 173.649 237.86 173.209C237.057 174.204 236.508 175.419 236.508 176.793C236.508 179.998 239.102 182.592 242.301 182.592C245.503 182.592 248.098 179.998 248.098 176.793C248.098 173.594 245.503 170.999 242.301 170.999C241.394 170.999 240.564 171.247 239.8 171.62C240.685 170.543 241.285 169.218 241.285 167.718C241.285 164.271 238.489 161.473 235.04 161.473C234.43 161.473 233.88 161.655 233.325 161.819C233.451 161.308 233.638 160.813 233.638 160.264C233.638 156.559 230.634 153.558 226.932 153.558C226.627 153.558 226.366 153.689 226.072 153.733C226.075 153.618 226.135 153.53 226.135 153.415C226.135 149.446 222.917 146.23 218.948 146.23C218.83 146.23 218.733 146.291 218.615 146.296C218.252 142.415 215.086 139.337 211.109 139.337C206.887 139.337 203.463 142.762 203.463 146.983C203.463 151.205 206.887 154.629 211.109 154.629ZM220.655 140.744C221.166 140.744 221.616 140.552 222.1 140.453C222.073 140.7 221.955 140.915 221.955 141.167C221.955 145.109 225.151 148.308 229.098 148.308C229.876 148.308 230.587 148.094 231.291 147.868C231.101 148.489 230.901 149.111 230.901 149.792C230.901 153.525 233.924 156.548 237.654 156.548C239.168 156.548 240.498 155.954 241.625 155.113C240.619 156.24 239.963 157.691 239.963 159.324C239.963 162.858 242.826 165.722 246.361 165.722C249.896 165.722 252.759 162.858 252.759 159.324C252.759 155.789 249.896 152.925 246.361 152.925C244.943 152.925 243.7 153.475 242.64 154.256C243.709 153.063 244.407 151.524 244.407 149.792C244.407 146.065 241.384 143.042 237.654 143.042C236.991 143.042 236.392 143.24 235.788 143.416C236.029 142.701 236.241 141.964 236.241 141.167C236.241 137.221 233.042 134.021 229.098 134.021C228.697 134.021 228.347 134.186 227.963 134.252C228.012 133.9 228.169 133.593 228.169 133.23C228.169 129.08 224.805 125.716 220.655 125.716C216.504 125.716 213.137 129.08 213.137 133.23C213.137 137.38 216.504 140.744 220.655 140.744ZM233.682 130.108C234.526 130.108 235.307 129.888 236.062 129.629C235.645 130.531 235.375 131.52 235.375 132.581C235.375 136.506 238.555 139.683 242.477 139.683C246.399 139.683 249.577 136.506 249.577 132.581C249.577 128.662 246.399 125.479 242.477 125.479C241.691 125.479 240.968 125.694 240.262 125.924C240.743 124.946 241.067 123.885 241.067 122.72C241.067 118.641 237.761 115.337 233.682 115.337C229.604 115.337 226.297 118.641 226.297 122.72C226.297 126.798 229.604 130.108 233.682 130.108ZM249.12 123.533C253.128 123.533 256.376 120.285 256.376 116.277C256.376 112.27 253.128 109.021 249.12 109.021C245.113 109.021 241.864 112.27 241.864 116.277C241.864 120.285 245.113 123.533 249.12 123.533ZM265.76 121.549C269.695 121.549 272.886 118.361 272.886 114.425C272.886 110.489 269.695 107.301 265.76 107.301C261.824 107.301 258.636 110.489 258.636 114.425C258.636 118.361 261.824 121.549 265.76 121.549ZM282.245 124.325C286.107 124.325 289.24 121.192 289.24 117.327C289.24 113.463 286.107 110.33 282.245 110.33C278.381 110.33 275.247 113.463 275.247 117.327C275.247 121.192 278.381 124.325 282.245 124.325ZM303.177 138.012C302.52 137.809 301.855 137.6 301.127 137.6C297.301 137.6 294.198 140.706 294.198 144.532C294.198 145.488 294.393 146.401 294.745 147.231C294.253 147.121 293.791 146.934 293.266 146.934C289.432 146.934 286.324 150.04 286.324 153.876C286.324 155.328 286.871 156.597 287.632 157.708C287.187 157.62 286.772 157.438 286.299 157.438C282.512 157.438 279.442 160.511 279.442 164.299C279.442 166.014 280.134 167.536 281.176 168.74C280.588 168.564 280 168.372 279.354 168.372C275.726 168.372 272.785 171.313 272.785 174.941C272.785 178.569 275.726 181.51 279.354 181.51C282.982 181.51 285.92 178.569 285.92 174.941C285.92 173.325 285.271 171.895 284.304 170.752C284.947 170.95 285.59 171.153 286.299 171.153C290.084 171.153 293.154 168.081 293.154 164.299C293.154 162.875 292.618 161.627 291.878 160.533C292.34 160.632 292.774 160.814 293.266 160.814C297.098 160.814 300.206 157.708 300.206 153.876C300.206 152.914 300.008 151.996 299.651 151.161C300.143 151.271 300.605 151.458 301.127 151.458C304.953 151.458 308.056 148.358 308.056 144.532C308.056 143.795 307.85 143.124 307.638 142.459C308.248 142.641 308.856 142.839 309.526 142.839C313.248 142.839 316.263 139.826 316.263 136.105C316.263 132.383 313.248 129.371 309.526 129.371C305.808 129.371 302.793 132.383 302.793 136.105C302.793 136.781 302.993 137.397 303.177 138.012ZM371.567 289.612C371.567 292.57 373.964 294.966 376.919 294.966C379.873 294.966 382.27 292.57 382.27 289.612C382.27 286.66 379.873 284.264 376.919 284.264C373.964 284.264 371.567 286.66 371.567 289.612ZM378.301 305.081C378.301 307.923 380.607 310.231 383.452 310.231C386.297 310.231 388.603 307.923 388.603 305.081C388.603 302.233 386.297 299.93 383.452 299.93C380.607 299.93 378.301 302.233 378.301 305.081ZM385.035 320.544C385.035 323.281 387.25 325.496 389.985 325.496C392.717 325.496 394.932 323.281 394.932 320.544C394.932 317.812 392.717 315.596 389.985 315.596C387.25 315.596 385.035 317.812 385.035 320.544ZM391.442 336.144C391.442 338.766 393.569 340.893 396.188 340.893C398.81 340.893 400.938 338.766 400.938 336.144C400.938 333.522 398.81 331.4 396.188 331.4C393.569 331.4 391.442 333.522 391.442 336.144ZM396.71 348.243C394.201 348.243 392.164 350.276 392.164 352.789C392.164 355.301 394.201 357.335 396.71 357.335C399.22 357.335 401.256 355.301 401.256 352.789C401.256 350.276 399.22 348.243 396.71 348.243ZM389.787 363.59C387.388 363.59 385.442 365.536 385.442 367.933C385.442 370.335 387.388 372.281 389.787 372.281C392.186 372.281 394.13 370.335 394.13 367.933C394.13 365.536 392.186 363.59 389.787 363.59ZM378.059 375.425C375.773 375.425 373.917 377.283 373.917 379.57C373.917 381.856 375.773 383.709 378.059 383.709C380.349 383.709 382.201 381.856 382.201 379.57C382.201 377.283 380.349 375.425 378.059 375.425ZM364.831 378.877C362.16 378.877 359.999 381.044 359.999 383.715C359.999 386.373 362.16 388.541 364.831 388.541C367.502 388.541 369.663 386.373 369.663 383.715C369.663 381.044 367.502 378.877 364.831 378.877ZM250.789 128.453C250.789 132.35 253.949 135.506 257.847 135.506C261.744 135.506 264.905 132.35 264.905 128.453C264.905 124.55 261.744 121.395 257.847 121.395C253.949 121.395 250.789 124.55 250.789 128.453ZM266.716 129.184C266.716 133.059 269.858 136.198 273.73 136.198C277.606 136.198 280.744 133.059 280.744 129.184C280.744 125.309 277.606 122.17 273.73 122.17C269.858 122.17 266.716 125.309 266.716 129.184ZM288.627 127.749C284.776 127.749 281.654 130.872 281.654 134.72C281.654 136.484 282.366 138.056 283.449 139.282C282.616 138.93 281.704 138.727 280.742 138.727C276.935 138.727 273.848 141.811 273.848 145.62C273.848 149.424 276.935 152.513 280.742 152.513C284.548 152.513 287.635 149.424 287.635 145.62C287.635 143.877 286.931 142.327 285.865 141.118C286.714 141.481 287.643 141.695 288.627 141.695C292.478 141.695 295.6 138.573 295.6 134.72C295.6 133.285 295.061 132.026 294.319 130.921C295.21 131.344 296.183 131.625 297.235 131.625C301.028 131.625 304.101 128.547 304.101 124.759C304.101 120.966 301.028 117.893 297.235 117.893C293.442 117.893 290.37 120.966 290.37 124.759C290.37 126.166 290.894 127.398 291.62 128.486C290.705 128.046 289.713 127.749 288.627 127.749ZM371.878 299.221C368.937 299.221 366.552 301.607 366.552 304.547C366.552 307.488 368.937 309.874 371.878 309.874C374.822 309.874 377.207 307.488 377.207 304.547C377.207 301.607 374.822 299.221 371.878 299.221ZM383.158 319.241C383.158 316.426 380.877 314.145 378.059 314.145C375.242 314.145 372.961 316.426 372.961 319.241C372.961 322.061 375.242 324.342 378.059 324.342C380.877 324.342 383.158 322.061 383.158 319.241ZM389.111 333.94C389.111 331.246 386.929 329.064 384.238 329.064C381.55 329.064 379.368 331.246 379.368 333.94C379.368 336.628 381.55 338.81 384.238 338.81C386.929 338.81 389.111 336.628 389.111 333.94ZM388.097 353.976C390.661 353.976 392.739 351.898 392.739 349.336C392.739 346.769 390.661 344.692 388.097 344.692C385.532 344.692 383.455 346.769 383.455 349.336C383.455 351.898 385.532 353.976 388.097 353.976ZM258.058 143.465C258.058 139.711 255.013 136.665 251.259 136.665C247.502 136.665 244.459 139.711 244.459 143.465C244.459 147.22 247.502 150.265 251.259 150.265C255.013 150.265 258.058 147.22 258.058 143.465ZM266.186 135.17C262.404 135.17 259.339 138.238 259.339 142.019C259.339 145.796 262.404 148.863 266.186 148.863C269.968 148.863 273.032 145.796 273.032 142.019C273.032 138.238 269.968 135.17 266.186 135.17ZM361.189 318.565C361.189 321.456 363.531 323.798 366.42 323.798C369.308 323.798 371.65 321.456 371.65 318.565C371.65 315.679 369.308 313.337 366.42 313.337C363.531 313.337 361.189 315.679 361.189 318.565ZM367.255 332.461C367.255 335.209 369.484 337.436 372.235 337.436C374.984 337.436 377.213 335.209 377.213 332.461C377.213 329.707 374.984 327.481 372.235 327.481C369.484 327.481 367.255 329.707 367.255 332.461ZM382.319 346.528C382.319 343.916 380.203 341.8 377.592 341.8C374.981 341.8 372.865 343.916 372.865 346.528C372.865 349.139 374.981 351.255 377.592 351.255C380.203 351.255 382.319 349.139 382.319 346.528ZM382.067 357.356C379.596 357.356 377.592 359.357 377.592 361.831C377.592 364.299 379.596 366.305 382.067 366.305C384.54 366.305 386.544 364.299 386.544 361.831C386.544 359.357 384.54 357.356 382.067 357.356ZM267.939 347.605C270.594 347.605 272.754 345.45 272.754 342.79C272.754 340.129 270.594 337.974 267.939 337.974C265.279 337.974 263.124 340.129 263.124 342.79C263.124 345.45 265.279 347.605 267.939 347.605ZM255.813 348.908C258.825 348.908 261.266 346.467 261.266 343.455C261.266 340.442 258.825 338.002 255.813 338.002C252.803 338.002 250.36 340.442 250.36 343.455C250.36 346.467 252.803 348.908 255.813 348.908ZM259.96 162.292C263.58 162.292 266.513 159.357 266.513 155.734C266.513 152.117 263.58 149.182 259.96 149.182C256.341 149.182 253.405 152.117 253.405 155.734C253.405 159.357 256.341 162.292 259.96 162.292ZM280.684 157.471C280.684 153.766 277.68 150.76 273.975 150.76C270.27 150.76 267.266 153.766 267.266 157.471C267.266 161.176 270.27 164.178 273.975 164.178C277.68 164.178 280.684 161.176 280.684 157.471ZM355.222 313.54C352.262 313.54 349.86 315.937 349.86 318.9C349.86 321.863 352.262 324.259 355.222 324.259C358.182 324.259 360.585 321.863 360.585 318.9C360.585 315.937 358.182 313.54 355.222 313.54ZM355.58 331.966C355.58 334.775 357.855 337.051 360.664 337.051C363.473 337.051 365.749 334.775 365.749 331.966C365.749 329.157 363.473 326.881 360.664 326.881C357.855 326.881 355.58 329.157 355.58 331.966ZM370.916 345.043C370.916 342.388 368.764 340.234 366.109 340.234C363.454 340.234 361.302 342.388 361.302 345.043C361.302 347.698 363.454 349.853 366.109 349.853C368.764 349.853 370.916 347.698 370.916 345.043ZM372.865 362.886C375.369 362.886 377.397 360.858 377.397 358.357C377.397 355.85 375.369 353.822 372.865 353.822C370.364 353.822 368.332 355.85 368.332 358.357C368.332 360.858 370.364 362.886 372.865 362.886ZM378.172 371.168C378.172 368.815 376.267 366.908 373.917 366.908C371.567 366.908 369.663 368.815 369.663 371.168C369.663 373.515 371.567 375.422 373.917 375.422C376.267 375.422 378.172 373.515 378.172 371.168ZM265.358 332.488C265.358 329.674 263.074 327.393 260.26 327.393C257.446 327.393 255.162 329.674 255.162 332.488C255.162 335.303 257.446 337.584 260.26 337.584C263.074 337.584 265.358 335.303 265.358 332.488ZM190.765 339.689C194.286 339.689 197.141 336.836 197.141 333.313C197.141 329.795 194.286 326.936 190.765 326.936C187.244 326.936 184.388 329.795 184.388 333.313C184.388 336.836 187.244 339.689 190.765 339.689ZM188.879 323.127C188.879 319.593 186.013 316.723 182.476 316.723C178.938 316.723 176.069 319.593 176.069 323.127C176.069 326.667 178.938 329.531 182.476 329.531C186.013 329.531 188.879 326.667 188.879 323.127ZM247.826 170.521C247.826 173.863 250.536 176.579 253.881 176.579C257.223 176.579 259.933 173.863 259.933 170.521C259.933 167.179 257.223 164.469 253.881 164.469C250.536 164.469 247.826 167.179 247.826 170.521ZM260.826 169.84C260.826 173.325 263.652 176.15 267.137 176.15C270.622 176.15 273.447 173.325 273.447 169.84C273.447 166.354 270.622 163.529 267.137 163.529C263.652 163.529 260.826 166.354 260.826 169.84ZM344.347 332.488C344.347 335.352 346.669 337.678 349.536 337.678C352.4 337.678 354.725 335.352 354.725 332.488C354.725 329.619 352.4 327.299 349.536 327.299C346.669 327.299 344.347 329.619 344.347 332.488ZM359.521 344.796C359.521 342.097 357.333 339.909 354.634 339.909C351.935 339.909 349.747 342.097 349.747 344.796C349.747 347.495 351.935 349.683 354.634 349.683C357.333 349.683 359.521 347.495 359.521 344.796ZM362.745 352.063C360.216 352.063 358.16 354.113 358.16 356.647C358.16 359.176 360.216 361.232 362.745 361.232C365.279 361.232 367.329 359.176 367.329 356.647C367.329 354.113 365.279 352.063 362.745 352.063ZM364.167 363.656C361.803 363.656 359.885 365.569 359.885 367.933C359.885 370.296 361.804 372.22 364.167 372.22C366.531 372.22 368.447 370.296 368.447 367.933C368.447 365.569 366.531 363.656 364.167 363.656ZM277.658 335.116C277.658 332.763 275.75 330.856 273.398 330.856C271.039 330.856 269.132 332.763 269.132 335.116C269.132 337.469 271.039 339.376 273.398 339.376C275.75 339.376 277.658 337.469 277.658 335.116ZM263.388 325.035C263.388 327.552 265.427 329.586 267.939 329.586C270.451 329.586 272.491 327.552 272.491 325.035C272.491 322.517 270.451 320.483 267.939 320.483C265.427 320.483 263.388 322.517 263.388 325.035ZM251.693 330.856C254.364 330.856 256.53 328.685 256.53 326.013C256.53 323.342 254.364 321.176 251.693 321.176C249.019 321.176 246.853 323.342 246.853 326.013C246.853 328.685 249.019 330.856 251.693 330.856ZM239.358 330.949C242.191 330.949 244.486 328.652 244.486 325.821C244.486 322.99 242.191 320.692 239.358 320.692C236.527 320.692 234.229 322.99 234.229 325.821C234.229 328.652 236.527 330.949 239.358 330.949ZM202.57 329.707C205.609 329.707 208.075 327.239 208.075 324.199C208.075 321.159 205.609 318.691 202.57 318.691C199.527 318.691 197.062 321.159 197.062 324.199C197.062 327.239 199.527 329.707 202.57 329.707ZM199.964 315.267C199.964 312.238 197.507 309.781 194.478 309.781C191.449 309.781 188.992 312.238 188.992 315.267C188.992 318.295 191.449 320.752 194.478 320.752C197.507 320.752 199.964 318.295 199.964 315.267ZM224.315 246.665C224.315 243.795 221.993 241.476 219.129 241.476C216.262 241.476 213.94 243.795 213.94 246.665C213.94 249.529 216.262 251.848 219.129 251.848C221.993 251.848 224.315 249.529 224.315 246.665ZM254.942 189.667C258.001 189.667 260.483 187.188 260.483 184.126C260.483 181.07 258.001 178.585 254.942 178.585C251.883 178.585 249.401 181.07 249.401 184.126C249.401 187.188 251.883 189.667 254.942 189.667ZM267.131 177.953C263.874 177.953 261.236 180.592 261.236 183.846C261.236 187.105 263.874 189.744 267.131 189.744C270.388 189.744 273.027 187.105 273.027 183.846C273.027 180.592 270.388 177.953 267.131 177.953ZM340.191 332.038C337.286 332.038 334.93 334.39 334.93 337.298C334.93 340.201 337.286 342.559 340.191 342.559C343.096 342.559 345.451 340.201 345.451 337.298C345.451 334.39 343.096 332.038 340.191 332.038ZM344.885 353.635C347.614 353.635 349.824 351.425 349.824 348.699C349.824 345.967 347.615 343.757 344.885 343.757C342.159 343.757 339.949 345.967 339.949 348.699C339.949 351.425 342.159 353.635 344.885 353.635ZM357.069 359.275C357.069 356.724 355.002 354.658 352.452 354.658C349.904 354.658 347.837 356.724 347.837 359.275C347.837 361.826 349.904 363.892 352.452 363.892C355.002 363.892 357.069 361.826 357.069 359.275ZM354.631 367.933C352.262 367.933 350.338 369.857 350.338 372.231C350.338 374.606 352.262 376.53 354.631 376.53C357.006 376.53 358.93 374.606 358.93 372.231C358.93 369.857 357.006 367.933 354.631 367.933ZM260.933 313.194C258.49 313.194 256.508 315.179 256.508 317.619C256.508 320.065 258.49 322.044 260.933 322.044C263.377 322.044 265.358 320.065 265.358 317.619C265.358 315.179 263.377 313.194 260.933 313.194ZM249.665 319.988C252.193 319.988 254.243 317.938 254.243 315.41C254.243 312.875 252.193 310.825 249.665 310.825C247.133 310.825 245.083 312.875 245.083 315.41C245.083 317.938 247.133 319.988 249.665 319.988ZM238.124 320.01C240.737 320.01 242.859 317.894 242.859 315.278C242.859 312.661 240.737 310.539 238.124 310.539C235.507 310.539 233.388 312.661 233.388 315.278C233.388 317.894 235.507 320.01 238.124 320.01ZM226.613 320.093C229.252 320.093 231.393 317.955 231.393 315.316C231.393 312.677 229.252 310.534 226.613 310.534C223.972 310.534 221.831 312.678 221.831 315.316C221.831 317.955 223.972 320.093 226.613 320.093ZM215.127 319.78C217.769 319.78 219.91 317.641 219.91 314.997C219.91 312.359 217.769 310.22 215.127 310.22C212.486 310.22 210.348 312.359 210.348 314.997C210.348 317.641 212.486 319.78 215.127 319.78ZM211.433 307.818C211.433 305.174 209.292 303.036 206.651 303.036C204.01 303.036 201.869 305.174 201.869 307.818C201.869 310.457 204.01 312.601 206.651 312.601C209.292 312.601 211.433 310.457 211.433 307.818ZM225.709 259.203C228.265 259.203 230.34 257.131 230.34 254.575C230.34 252.013 228.265 249.941 225.709 249.941C223.15 249.941 221.078 252.013 221.078 254.575C221.078 257.131 223.15 259.203 225.709 259.203ZM225.758 244.043C225.758 246.566 227.803 248.611 230.326 248.611C232.849 248.611 234.897 246.566 234.897 244.043C234.897 241.52 232.849 239.475 230.326 239.475C227.803 239.475 225.758 241.52 225.758 244.043ZM230.387 233.511C230.387 236.028 232.426 238.068 234.946 238.068C237.464 238.068 239.506 236.028 239.506 233.511C239.506 230.993 237.464 228.948 234.946 228.948C232.426 228.948 230.387 230.993 230.387 233.511ZM234.944 222.978C234.944 225.529 237.013 227.596 239.564 227.596C242.114 227.596 244.184 225.529 244.184 222.978C244.184 220.422 242.114 218.356 239.564 218.356C237.013 218.356 234.944 220.422 234.944 222.978ZM239.503 212.446C239.503 215.03 241.598 217.124 244.184 217.124C246.768 217.124 248.862 215.03 248.862 212.446C248.862 209.857 246.768 207.763 244.184 207.763C241.598 207.763 239.503 209.857 239.503 212.446ZM244.679 202.228C244.679 204.844 246.801 206.966 249.42 206.966C252.036 206.966 254.158 204.844 254.158 202.228C254.158 199.611 252.036 197.489 249.42 197.489C246.801 197.489 244.679 199.611 244.679 202.228ZM264.319 196.989C264.319 194.257 262.107 192.047 259.375 192.047C256.643 192.047 254.43 194.257 254.43 196.989C254.43 199.721 256.643 201.936 259.375 201.936C262.107 201.936 264.319 199.721 264.319 196.989ZM275.651 199.924C275.651 196.945 273.235 194.526 270.253 194.526C267.271 194.526 264.855 196.945 264.855 199.924C264.855 202.909 267.271 205.322 270.253 205.322C273.235 205.322 275.651 202.909 275.651 199.924ZM340.367 366.525C340.367 369.087 342.445 371.165 345.006 371.165C347.568 371.165 349.646 369.087 349.646 366.525C349.646 363.964 347.568 361.886 345.006 361.886C342.445 361.886 340.367 363.964 340.367 366.525ZM280.967 334.841C283.075 334.841 284.784 333.132 284.784 331.021C284.784 328.915 283.075 327.206 280.967 327.206C278.859 327.206 277.149 328.915 277.149 331.021C277.149 333.132 278.859 334.841 280.967 334.841ZM276.443 317.641C274.404 317.641 272.746 319.296 272.746 321.335C272.746 323.38 274.404 325.035 276.443 325.035C278.485 325.035 280.14 323.38 280.14 321.335C280.14 319.296 278.485 317.641 276.443 317.641ZM269.341 309.781C267.367 309.781 265.768 311.38 265.768 313.354C265.768 315.327 267.367 316.927 269.341 316.927C271.314 316.927 272.917 315.327 272.917 313.354C272.917 311.38 271.314 309.781 269.341 309.781ZM260.26 311.177C262.165 311.177 263.712 309.632 263.712 307.725C263.712 305.817 262.165 304.273 260.26 304.273C258.352 304.273 256.808 305.817 256.808 307.725C256.808 309.632 258.352 311.177 260.26 311.177ZM249.942 308.373C251.836 308.373 253.369 306.84 253.369 304.943C253.369 303.052 251.836 301.519 249.942 301.519C248.051 301.519 246.517 303.052 246.517 304.943C246.517 306.84 248.051 308.373 249.942 308.373ZM235.787 304.723C235.787 306.62 237.327 308.159 239.223 308.159C241.12 308.159 242.659 306.62 242.659 304.723C242.659 302.827 241.12 301.288 239.223 301.288C237.327 301.288 235.787 302.827 235.787 304.723ZM228.499 301.337C226.597 301.337 225.055 302.882 225.055 304.784C225.055 306.686 226.597 308.23 228.499 308.23C230.401 308.23 231.942 306.686 231.942 304.784C231.942 302.882 230.401 301.337 228.499 301.337ZM222.609 300.859C222.609 298.952 221.064 297.401 219.156 297.401C217.249 297.401 215.702 298.952 215.702 300.859C215.702 302.766 217.249 304.311 219.156 304.311C221.064 304.311 222.609 302.766 222.609 300.859ZM216.183 290.684C216.183 292.597 217.733 294.147 219.646 294.147C221.559 294.147 223.109 292.597 223.109 290.684C223.109 288.771 221.559 287.221 219.646 287.221C217.733 287.221 216.183 288.771 216.183 290.684ZM227.512 280.894C227.512 278.959 225.942 277.393 224.01 277.393C222.075 277.393 220.506 278.959 220.506 280.894C220.506 282.829 222.075 284.396 224.01 284.396C225.942 284.396 227.512 282.829 227.512 280.894ZM228.372 267.487C226.377 267.487 224.758 269.103 224.758 271.104C224.758 273.1 226.377 274.716 228.372 274.716C230.368 274.716 231.986 273.099 231.986 271.104C231.986 269.103 230.368 267.487 228.372 267.487ZM236.461 261.309C236.461 259.253 234.793 257.587 232.737 257.587C230.678 257.587 229.013 259.253 229.013 261.309C229.013 263.37 230.678 265.035 232.737 265.035C234.793 265.035 236.461 263.37 236.461 261.309ZM237.101 247.682C234.982 247.682 233.264 249.402 233.264 251.519C233.264 253.64 234.982 255.355 237.101 255.355C239.218 255.355 240.935 253.64 240.935 251.519C240.935 249.402 239.218 247.682 237.101 247.682ZM241.463 237.782C239.284 237.782 237.516 239.546 237.516 241.728C237.516 243.911 239.284 245.675 241.463 245.675C243.643 245.675 245.41 243.911 245.41 241.728C245.41 239.546 243.643 237.782 241.463 237.782ZM249.887 231.938C249.887 229.696 248.068 227.882 245.828 227.882C243.585 227.882 241.768 229.696 241.768 231.938C241.768 234.181 243.585 235.995 245.828 235.995C248.068 235.995 249.887 234.181 249.887 231.938ZM250.192 217.976C247.889 217.976 246.023 219.845 246.023 222.148C246.023 224.452 247.889 226.315 250.192 226.315C252.493 226.315 254.362 224.452 254.362 222.148C254.362 219.845 252.493 217.976 250.192 217.976ZM259.446 212.727C259.446 210.363 257.531 208.445 255.167 208.445C252.803 208.445 250.885 210.363 250.885 212.727C250.885 215.09 252.803 217.009 255.167 217.009C257.531 217.009 259.446 215.09 259.446 212.727ZM269.572 211.985C269.572 209.522 267.574 207.527 265.111 207.527C262.646 207.527 260.647 209.522 260.647 211.985C260.647 214.453 262.646 216.448 265.111 216.448C267.574 216.448 269.572 214.453 269.572 211.985ZM345.732 376.458C345.732 379.421 343.33 381.823 340.367 381.823C337.401 381.823 334.999 379.421 334.999 376.458C334.999 375.716 335.15 375.013 335.419 374.375C334.529 374.897 333.551 375.282 332.44 375.282C329.134 375.282 326.454 372.6 326.454 369.29C326.454 368.241 326.798 367.306 327.27 366.449C327.136 366.454 327.023 366.525 326.886 366.525C323.359 366.525 320.504 363.667 320.504 360.144C320.504 358.857 320.976 357.73 321.628 356.73C318.497 356.142 316.081 353.52 316.081 350.216C316.081 349.051 316.452 348.012 316.969 347.055C313.938 346.231 311.664 343.576 311.664 340.283C311.664 339.211 311.939 338.216 312.363 337.304C309.452 336.292 307.333 333.61 307.333 330.356C307.333 329.317 307.55 328.333 307.935 327.431C305.142 326.321 303.155 323.616 303.155 320.423C303.155 319.422 303.372 318.482 303.724 317.608C300.94 316.443 298.98 313.7 298.98 310.495C298.98 309.522 299.206 308.61 299.533 307.758C296.754 306.543 294.805 303.789 294.805 300.562C294.805 299.611 295.036 298.726 295.347 297.885C292.576 296.632 290.628 293.872 290.628 290.635C290.628 289.689 290.864 288.815 291.164 287.98C288.421 286.682 286.491 283.939 286.491 280.702C286.491 279.69 286.728 278.739 287.068 277.849C284.441 276.552 282.591 273.902 282.591 270.774C282.591 269.636 282.847 268.565 283.278 267.586C280.75 266.371 278.971 263.837 278.971 260.847C278.971 259.528 279.4 258.351 279.994 257.274C277.438 256.279 275.61 253.822 275.61 250.914C275.61 249.369 276.215 248.017 277.075 246.868C274.349 246.241 272.271 243.911 272.271 240.986C272.271 239.183 273.076 237.595 274.313 236.468C271.356 236.424 268.967 234.022 268.967 231.053C268.967 228.058 271.397 225.628 274.395 225.628C276.374 225.628 278.032 226.744 278.98 228.327C279.277 227.53 279.719 226.826 280.277 226.205C277.806 225.963 275.786 224.358 274.986 222.099C274.525 224.281 272.678 225.952 270.358 225.952C267.689 225.952 265.529 223.792 265.529 221.126C265.529 218.46 267.689 216.294 270.358 216.294C272.318 216.294 273.989 217.476 274.744 219.153C274.981 217.498 275.816 216.091 277.083 215.112C276.888 215.134 276.718 215.228 276.517 215.228C273.285 215.228 270.666 212.611 270.666 209.379C270.666 206.147 273.285 203.525 276.517 203.525C277.152 203.525 277.732 203.701 278.304 203.888C277.694 202.887 277.248 201.777 277.248 200.518C277.248 198.715 277.979 197.088 279.153 195.895C278.675 196.01 278.218 196.186 277.704 196.186C274.252 196.186 271.454 193.388 271.454 189.936C271.454 186.484 274.252 183.686 277.704 183.686C279.112 183.686 280.346 184.236 281.39 185.022C281.39 184.962 281.357 184.912 281.357 184.852C281.357 181.092 284.408 178.041 288.168 178.041C288.432 178.041 288.657 178.162 288.913 178.189C288.487 177.288 288.209 176.309 288.209 175.243C288.209 171.39 291.337 168.262 295.193 168.262C295.427 168.262 295.622 168.372 295.85 168.394C295.539 167.602 295.336 166.75 295.336 165.849C295.336 161.99 298.466 158.862 302.325 158.862C302.718 158.862 303.059 159.022 303.438 159.087C303.334 158.609 303.147 158.159 303.147 157.647C303.147 153.843 306.231 150.76 310.032 150.76C310.604 150.76 311.115 150.952 311.645 151.084C311.623 150.87 311.519 150.683 311.519 150.457C311.519 146.807 314.479 143.85 318.126 143.85C321.773 143.85 324.731 146.807 324.731 150.457C324.731 154.107 321.773 157.065 318.126 157.065C317.637 157.065 317.203 156.889 316.744 156.784C316.782 157.081 316.917 157.339 316.917 157.647C316.917 161.451 313.836 164.529 310.032 164.529C309.666 164.529 309.353 164.376 309.004 164.321C309.119 164.826 309.312 165.304 309.312 165.849C309.312 169.708 306.184 172.841 302.325 172.841C302.092 172.841 301.894 172.731 301.663 172.709C301.973 173.495 302.177 174.341 302.177 175.243C302.177 175.815 301.982 176.32 301.853 176.854C302.944 174.38 305.401 172.643 308.276 172.643C308.721 172.643 309.111 172.819 309.535 172.896C309.515 172.698 309.416 172.522 309.416 172.319C309.416 168.537 312.481 165.475 316.26 165.475C316.944 165.475 317.568 165.678 318.192 165.865C318.225 162.314 321.1 159.439 324.659 159.439C328.235 159.439 331.135 162.342 331.135 165.92C331.135 169.499 328.235 172.396 324.659 172.396C324.09 172.396 323.579 172.209 323.051 172.071C323.054 172.159 323.101 172.231 323.101 172.319C323.101 176.095 320.039 179.157 316.26 179.157C315.87 179.157 315.532 178.997 315.158 178.937C315.185 179.19 315.309 179.415 315.309 179.679C315.309 183.565 312.159 186.715 308.276 186.715C308.026 186.715 307.814 186.6 307.572 186.572C307.707 187.122 307.907 187.65 307.907 188.238C307.907 191.019 306.272 193.361 303.95 194.532C304.678 194.284 305.428 194.07 306.239 194.07C306.561 194.07 306.836 194.213 307.143 194.251C307.121 194.015 307.006 193.806 307.006 193.564C307.006 189.656 310.178 186.484 314.089 186.484C314.669 186.484 315.185 186.682 315.727 186.814C315.834 183.181 318.78 180.256 322.439 180.256C323.335 180.256 324.181 180.449 324.964 180.767C325.286 177.563 327.902 175.029 331.19 175.029C334.697 175.029 337.541 177.871 337.541 181.378C337.541 184.885 334.697 187.732 331.19 187.732C330.459 187.732 329.782 187.545 329.128 187.314C328.958 190.898 326.058 193.762 322.439 193.762C321.985 193.762 321.589 193.592 321.161 193.504C321.161 193.526 321.172 193.542 321.172 193.564C321.172 197.478 318 200.65 314.089 200.65C313.814 200.65 313.58 200.523 313.311 200.496C313.344 200.771 313.476 201.018 313.476 201.304C313.476 203.948 311.986 206.163 309.87 207.422C310.463 207.268 311.038 207.059 311.681 207.059C312.146 207.059 312.55 207.241 312.989 207.323C313.064 203.552 316.117 200.512 319.904 200.512C320.71 200.512 321.457 200.716 322.177 200.969C322.554 197.692 325.239 195.109 328.62 195.109C329.747 195.109 330.753 195.466 331.682 195.961C332.124 192.96 334.601 190.618 337.723 190.618C341.158 190.618 343.945 193.405 343.945 196.84C343.945 200.276 341.158 203.063 337.723 203.063C336.761 203.063 335.876 202.805 335.062 202.414C334.691 205.701 332.006 208.291 328.62 208.291C327.957 208.291 327.356 208.093 326.754 207.917C326.506 211.517 323.576 214.398 319.904 214.398C319.569 214.398 319.283 214.255 318.962 214.205C318.962 214.266 318.995 214.315 318.995 214.37C318.995 217.19 317.346 219.565 315.007 220.785C315.686 220.565 316.373 220.356 317.123 220.356C317.821 220.356 318.456 220.565 319.091 220.752C319.404 217.322 322.202 214.596 325.717 214.596C326.756 214.596 327.713 214.876 328.595 215.294C329.131 212.287 331.64 209.962 334.798 209.962C336.156 209.962 337.349 210.478 338.385 211.198C338.921 208.378 341.285 206.207 344.256 206.207C347.62 206.207 350.349 208.939 350.349 212.303C350.349 215.667 347.62 218.394 344.256 218.394C343.047 218.394 341.983 217.949 341.035 217.344C340.559 220.417 338.011 222.819 334.798 222.819C333.9 222.819 333.048 222.627 332.273 222.297C331.789 225.551 329.104 228.085 325.717 228.085C325.157 228.085 324.659 227.893 324.14 227.766C323.959 231.515 320.919 234.516 317.123 234.516C316.78 234.516 316.485 234.368 316.156 234.324C316.076 236.16 315.353 237.815 314.179 239.079C314.795 239.106 315.367 239.26 315.933 239.431C316.466 236.177 319.162 233.653 322.568 233.653C323.499 233.653 324.385 233.846 325.195 234.181C325.715 231.086 328.287 228.679 331.533 228.679C332.825 228.679 333.96 229.151 334.974 229.795C335.585 226.975 337.976 224.82 340.98 224.82C342.571 224.82 343.984 225.463 345.089 226.436C345.707 223.803 347.964 221.797 350.789 221.797C354.084 221.797 356.753 224.468 356.753 227.761C356.753 231.059 354.084 233.73 350.789 233.73C349.33 233.73 348.041 233.148 347.002 232.274C346.43 235.138 344.017 237.347 340.98 237.347C339.814 237.347 338.784 236.941 337.849 236.385C337.286 239.431 334.741 241.778 331.533 241.778C330.725 241.778 329.967 241.586 329.252 241.316C328.834 244.697 326.061 247.352 322.568 247.352C322.013 247.352 321.518 247.159 320.998 247.033C320.822 248.759 320.149 250.342 318.981 251.502C319.943 251.508 320.864 251.694 321.699 252.046C322.4 249.149 324.893 246.951 328.01 246.951C329.208 246.951 330.269 247.352 331.239 247.913C331.819 244.999 334.268 242.767 337.346 242.767C338.891 242.767 340.254 243.383 341.356 244.301C342.027 241.662 344.311 239.673 347.158 239.673C349.024 239.673 350.635 240.558 351.756 241.882C352.378 239.326 354.576 237.386 357.322 237.386C360.546 237.386 363.157 240.002 363.157 243.224C363.157 246.45 360.546 249.061 357.322 249.061C355.585 249.061 354.068 248.27 352.999 247.066C352.391 249.792 350.069 251.876 347.158 251.876C345.726 251.876 344.465 251.31 343.426 250.48C342.785 253.316 340.372 255.471 337.346 255.471C336.266 255.471 335.299 255.135 334.408 254.657C333.87 257.768 331.278 260.182 328.01 260.182C327.243 260.182 326.531 259.984 325.847 259.742C325.536 261.633 324.536 263.221 323.049 264.299C323.384 264.249 323.686 264.101 324.035 264.101C325.272 264.101 326.372 264.519 327.375 265.096C328.076 262.331 330.47 260.242 333.452 260.242C334.917 260.242 336.203 260.819 337.28 261.649C337.915 258.923 340.243 256.85 343.162 256.85C344.987 256.85 346.581 257.681 347.708 258.939C348.395 256.422 350.602 254.525 353.34 254.525C355.522 254.525 357.347 255.762 358.38 257.516C358.935 254.943 361.115 252.975 363.853 252.975C367.008 252.975 369.564 255.531 369.564 258.686C369.564 261.836 367.008 264.392 363.853 264.392C361.783 264.392 360.051 263.232 359.051 261.583C358.509 264.31 356.22 266.404 353.34 266.404C351.622 266.404 350.105 265.651 349.019 264.486C348.343 267.152 346.037 269.164 343.162 269.164C341.799 269.164 340.606 268.636 339.586 267.883C338.987 270.791 336.533 273.017 333.452 273.017C332.41 273.017 331.467 272.709 330.599 272.269C329.961 275.381 327.336 277.766 324.035 277.766C323.758 277.766 323.521 277.64 323.252 277.607C323.546 278.322 323.673 279.113 323.719 279.921C324.857 278.074 326.806 276.777 329.137 276.777C330.632 276.777 331.943 277.365 333.039 278.217C333.716 275.551 336.019 273.539 338.894 273.539C340.633 273.539 342.192 274.276 343.31 275.436C343.973 272.869 346.202 270.934 348.978 270.934C351.146 270.934 352.958 272.148 354.002 273.88C354.598 271.324 356.781 269.378 359.518 269.378C362.124 269.378 364.243 271.137 364.963 273.512C365.295 270.758 367.544 268.592 370.386 268.592C373.453 268.592 375.94 271.082 375.94 274.149C375.94 277.217 373.453 279.701 370.386 279.701C367.901 279.701 365.878 278.047 365.166 275.793C364.834 278.668 362.481 280.933 359.518 280.933C357.44 280.933 355.703 279.773 354.686 278.129C354.104 280.806 351.828 282.856 348.978 282.856C347.332 282.856 345.842 282.191 344.764 281.108C344.11 283.807 341.791 285.852 338.894 285.852C337.539 285.852 336.351 285.325 335.334 284.583C334.7 287.49 332.234 289.711 329.137 289.711C328.598 289.711 328.117 289.53 327.614 289.403C327.883 290.123 328.078 290.887 328.078 291.701C328.078 293.933 326.908 295.813 325.223 297.022C325.525 296.978 325.794 296.846 326.108 296.846C326.952 296.846 327.751 297.022 328.485 297.324C328.309 296.758 328.128 296.181 328.128 295.554C328.128 292.179 330.863 289.447 334.235 289.447C336.01 289.447 337.574 290.228 338.69 291.437C339.306 288.832 341.54 286.847 344.338 286.847C346.457 286.847 348.233 288.024 349.275 289.7C349.797 287.073 352.007 285.05 354.791 285.05C357.457 285.05 359.601 286.908 360.241 289.376C360.491 286.545 362.8 284.297 365.7 284.297C368.767 284.297 371.254 286.781 371.254 289.849C371.254 292.916 368.767 295.406 365.7 295.406C363.13 295.406 361.063 293.625 360.428 291.256C360.178 294.191 357.789 296.516 354.791 296.516C352.76 296.516 351.058 295.395 350.041 293.801C349.53 296.555 347.233 298.677 344.338 298.677C342.659 298.677 341.158 297.962 340.084 296.835C339.476 299.573 337.151 301.662 334.235 301.662C333.435 301.662 332.679 301.486 331.979 301.205C332.174 301.815 332.361 302.431 332.361 303.102C332.361 306.554 329.56 309.352 326.108 309.352C324.544 309.352 323.156 308.72 322.062 307.774C321.784 308.445 321.35 309.011 320.886 309.555C322.768 309.803 324.335 310.831 325.333 312.342C326.196 310.154 328.304 308.593 330.802 308.593C331.959 308.593 332.976 309.011 333.889 309.588C333.713 309.033 333.54 308.478 333.54 307.862C333.54 304.663 336.134 302.068 339.336 302.068C341.494 302.068 343.299 303.3 344.297 305.048C344.693 302.321 346.944 300.194 349.78 300.194C352.433 300.194 354.552 302.057 355.154 304.526C355.239 301.568 357.633 299.194 360.607 299.194C363.633 299.194 366.087 301.645 366.087 304.674C366.087 307.703 363.633 310.16 360.607 310.16C358.04 310.16 355.986 308.357 355.387 305.982C355.302 309.022 352.839 311.468 349.78 311.468C347.7 311.468 345.957 310.286 344.979 308.61C344.597 311.446 342.269 313.662 339.336 313.662C338.217 313.662 337.231 313.26 336.346 312.711C336.53 313.282 336.706 313.865 336.706 314.497C336.706 317.757 334.062 320.401 330.802 320.401C328.812 320.401 327.141 319.351 326.069 317.845C325.728 318.845 325.198 319.73 324.448 320.439C327.202 320.439 329.42 322.336 330.121 324.87C330.621 322.297 332.778 320.318 335.496 320.318C336.967 320.318 338.283 320.912 339.278 321.841C339.108 321.308 338.943 320.769 338.943 320.175C338.943 317.141 341.403 314.684 344.435 314.684C347.469 314.684 349.926 317.141 349.926 320.175C349.926 323.21 347.469 325.667 344.435 325.667C342.997 325.667 341.711 325.084 340.732 324.177C340.914 324.727 341.079 325.288 341.079 325.898C341.079 328.982 338.58 331.477 335.496 331.477C332.971 331.477 330.92 329.773 330.23 327.47C329.892 329.355 328.746 330.927 327.083 331.763C327.63 331.587 328.186 331.417 328.79 331.417C331.918 331.417 334.455 333.956 334.455 337.084C334.455 340.212 331.918 342.746 328.79 342.746C327.608 342.746 326.569 342.301 325.663 341.68C325.5 342.466 325.245 343.186 324.846 343.856C326.19 344.285 327.298 345.093 328.133 346.193C328.801 344.016 330.75 342.4 333.147 342.4C336.087 342.4 338.47 344.785 338.47 347.726C338.47 350.667 336.087 353.047 333.147 353.047C331.657 353.047 330.318 352.432 329.354 351.448C329.169 352.404 328.812 353.267 328.268 354.037C330.283 354.493 331.976 355.79 332.767 357.654C333.122 355.246 335.106 353.371 337.607 353.371C340.359 353.371 342.59 355.603 342.59 358.357C342.59 361.106 340.359 363.337 337.607 363.337C335.656 363.337 334.007 362.183 333.188 360.55C333.122 361.578 332.789 362.496 332.292 363.337C332.344 363.332 332.388 363.304 332.44 363.304C335.747 363.304 338.426 365.987 338.426 369.291C338.426 370.203 338.187 371.05 337.822 371.825C338.589 371.401 339.427 371.094 340.367 371.094C343.33 371.094 345.732 373.496 345.732 376.458ZM291.963 190.354C292.453 190.25 292.914 190.057 293.437 190.057C293.665 190.057 293.857 190.167 294.08 190.189C293.923 189.651 293.772 189.112 293.747 188.535C293.266 189.26 292.678 189.859 291.963 190.354ZM317.706 273.413C317.703 273.413 317.703 273.418 317.7 273.418H317.708C317.706 273.418 317.706 273.413 317.706 273.413ZM326.273 332.071C325.684 332.263 325.085 332.444 324.434 332.444C323.519 332.444 322.678 332.208 321.902 331.84C321.768 332.478 321.628 333.093 321.342 333.659C322.166 333.978 322.895 334.445 323.541 335.028C324.052 333.725 325.036 332.697 326.273 332.071ZM320.212 322.176C320.166 322.176 320.124 322.204 320.078 322.204C319.349 322.204 318.679 322.011 318.027 321.791C317.917 322.374 317.86 322.968 317.623 323.495C318.088 323.688 318.448 324.034 318.857 324.309C319.165 323.506 319.61 322.77 320.212 322.176ZM322.455 298.16C322.1 298.215 321.782 298.369 321.411 298.369C320.188 298.369 319.105 297.951 318.118 297.374C317.923 297.836 317.571 298.193 317.291 298.605C318.541 298.902 319.704 299.424 320.583 300.309C321.029 299.435 321.677 298.737 322.455 298.16ZM311.681 221.681C311.467 221.681 311.285 221.577 311.074 221.56C311.076 221.61 311.104 221.654 311.104 221.703C311.104 223.605 310.337 225.293 309.166 226.612C309.518 226.634 309.834 226.744 310.169 226.815C310.392 224.364 311.816 222.324 313.888 221.236C313.179 221.461 312.464 221.681 311.681 221.681ZM306.239 208.543C306.008 208.543 305.813 208.434 305.588 208.412C305.637 208.747 305.786 209.044 305.786 209.39C305.786 209.841 305.61 210.231 305.53 210.654C306.154 209.632 306.989 208.796 308.02 208.186C307.435 208.335 306.871 208.543 306.239 208.543ZM303.037 194.9C302.322 195.142 301.591 195.351 300.797 195.351C300.544 195.351 300.333 195.23 300.085 195.208C300.258 195.818 300.465 196.417 300.465 197.082C300.465 197.121 300.443 197.159 300.443 197.198C301.124 196.236 301.973 195.433 303.037 194.9ZM295.193 182.23C294.891 182.23 294.635 182.092 294.344 182.059C294.684 182.807 294.858 183.631 294.904 184.494C296.166 182.516 298.277 181.13 300.797 181.13C301.069 181.13 301.3 181.257 301.564 181.284C301.437 180.756 301.24 180.251 301.24 179.679C301.24 179.102 301.437 178.585 301.569 178.052C300.486 180.504 298.046 182.23 295.193 182.23ZM350.847 377.091C348.236 377.091 346.117 379.212 346.117 381.823C346.117 384.44 348.236 386.556 350.847 386.556C353.46 386.556 355.58 384.44 355.58 381.823C355.58 379.212 353.46 377.091 350.847 377.091Z" fill="white"/>
</g>
<defs>
<clipPath id="clip0_820_283">
<rect width="525.128" height="512" fill="white" transform="translate(0 0.0507812)"/>
</clipPath>
</defs>
</svg>
