<svg width="527" height="513" viewBox="0 0 527 513" fill="none" xmlns="http://www.w3.org/2000/svg">
<g clip-path="url(#clip0_820_426)">
<path d="M433.034 0.0507812H93.8889C42.5312 0.0507812 0.897461 41.6845 0.897461 93.0422V419.059C0.897461 470.417 42.5312 512.051 93.8889 512.051H433.034C484.392 512.051 526.026 470.417 526.026 419.059V93.0422C526.026 41.6845 484.392 0.0507812 433.034 0.0507812Z" fill="#000B1D"/>
<path d="M290.361 214.455C278.1 255.546 267.784 295.156 255.523 333.926C248.564 355.798 240.943 376.675 231.334 389.929C220.729 404.84 200.846 419.09 176.989 419.09C160.087 419.09 143.519 411.137 143.519 393.574C143.519 382.638 154.785 372.366 163.732 372.366C165.62 372.292 167.492 372.749 169.132 373.687C170.773 374.624 172.117 376.004 173.011 377.669C181.295 392.58 189.249 401.195 192.894 401.195C196.539 401.195 199.521 396.225 205.485 374.687L248.979 214.482L217.686 214.447C215.366 207.488 218.668 199.155 222.644 197.498H253.793C259.757 178.278 266.79 158.631 276.731 141.068C291.643 114.227 315.502 93.0195 348.306 93.0195C373.159 93.0195 383.431 104.949 383.431 120.193C383.101 136.429 368.853 144.713 362.224 144.713C356.923 144.713 354.272 140.738 352.615 135.104C346.982 113.897 339.691 107.6 335.383 107.6C331.076 107.6 324.447 115.552 317.159 132.121C307.548 152.998 301.083 175.738 295.119 197.607L333.016 197.557C335.335 202.197 333.451 211.8 327.818 214.451L290.361 214.455Z" fill="white"/>
</g>
<defs>
<clipPath id="clip0_820_426">
<rect width="525.128" height="512" fill="white" transform="translate(0.897461 0.0507812)"/>
</clipPath>
</defs>
</svg>
