<svg width="1025" height="237" viewBox="0 0 1025 237" fill="none" xmlns="http://www.w3.org/2000/svg">
<g clip-path="url(#clip0_2_14694)">
<path d="M291.677 98.9479C284.417 94.0613 265.345 91.9777 251.479 95.7106C250.734 81.8976 243.61 70.2558 230.578 60.1055L225.757 56.8683L222.542 61.7241C216.225 71.313 213.562 84.0952 214.501 95.715C215.247 102.874 217.734 110.919 222.542 116.757C204.491 127.228 187.858 124.85 114.182 124.85H0.436008C0.102635 141.488 2.7784 173.488 23.1273 199.539C25.3732 202.416 27.8384 205.202 30.5142 207.882C47.06 224.45 72.0586 236.6 109.44 236.631C166.465 236.684 215.326 205.855 245.049 131.325C254.831 131.487 280.645 133.075 293.278 108.664C293.585 108.252 296.493 102.189 296.493 102.189L291.677 98.9523V98.9479ZM74.6686 81.7791H42.6823V113.765H74.6686V81.7791ZM115.994 81.7791H84.0074V113.765H115.994V81.7791ZM157.319 81.7791H125.333V113.765H157.319V81.7791ZM198.644 81.7791H166.658V113.765H198.644V81.7791ZM33.3522 81.7791H1.35717V113.765H33.3435V81.7791H33.3522ZM74.6774 41.3752H42.6911V73.3615H74.6774V41.3752ZM116.003 41.3752H84.0162V73.3615H116.003V41.3752ZM157.328 41.3752H125.341V73.3615H157.328V41.3752ZM157.314 0.975586H125.328V32.9619H157.314V0.975586ZM1022.43 187.27C1022.43 195.578 1015.91 202.101 1007.43 202.101C998.942 202.101 992.327 195.578 992.327 187.27C992.327 178.962 999.025 172.619 1007.43 172.619C1015.83 172.619 1022.43 179.142 1022.43 187.27ZM996.077 187.27C996.077 193.793 1000.9 198.973 1007.51 198.973C1014.12 198.973 1018.68 193.793 1018.68 187.362C1018.68 180.931 1013.94 175.567 1007.43 175.567C1000.92 175.567 996.082 180.839 996.082 187.27H996.077ZM1005.1 194.955H1001.71V180.304C1003.04 180.037 1004.92 179.857 1007.33 179.857C1010.11 179.857 1011.35 180.304 1012.43 180.931C1013.23 181.554 1013.86 182.717 1013.86 184.147C1013.86 185.757 1012.61 187.007 1010.82 187.542V187.722C1012.25 188.252 1013.05 189.327 1013.5 191.292C1013.94 193.525 1014.21 194.42 1014.58 194.955H1010.91C1010.47 194.42 1010.19 193.082 1009.75 191.38C1009.48 189.775 1008.59 189.06 1006.71 189.06H1005.1V194.959V194.955ZM1005.19 186.647H1006.8C1008.68 186.647 1010.19 186.024 1010.19 184.506C1010.19 183.164 1009.21 182.265 1007.07 182.265C1006.17 182.265 1005.55 182.357 1005.19 182.454V186.647ZM446.801 38.9977C444.7 36.9448 442.178 35.9008 439.155 35.9008C436.133 35.9008 433.536 36.9448 431.514 38.9977C429.487 41.0506 428.496 43.6825 428.496 46.8188V99.1935C418.1 90.6004 406.103 86.2665 392.457 86.2665C376.595 86.2665 363.032 91.9953 351.794 103.492C340.556 114.95 334.976 128.811 334.976 145.067C334.976 161.324 340.595 175.146 351.794 186.643C363.032 198.1 376.56 203.868 392.457 203.868C408.353 203.868 421.732 198.14 433.12 186.643C444.358 175.299 449.937 161.442 449.937 145.067V46.8144C449.937 43.6781 448.906 41.0462 446.801 38.9933V38.9977ZM425.667 159.236V159.315C423.794 163.767 421.232 167.675 417.986 171.005C414.74 174.374 410.915 177.005 406.559 178.979C402.164 180.953 397.501 181.923 392.496 181.923C387.491 181.923 382.714 180.953 378.319 178.979C373.924 177.005 370.138 174.374 366.932 171.044C363.721 167.715 361.163 163.807 359.29 159.354C357.417 154.862 356.461 150.103 356.461 145.067C356.461 140.032 357.417 135.272 359.29 130.781C361.163 126.289 363.725 122.42 366.932 119.091C370.143 115.761 373.963 113.129 378.319 111.155C382.714 109.182 387.417 108.212 392.496 108.212C397.576 108.212 402.164 109.182 406.559 111.155C410.955 113.129 414.74 115.761 417.986 119.13C421.232 122.499 423.794 126.407 425.667 130.82C427.54 135.272 428.496 139.997 428.496 145.028C428.496 150.059 427.54 154.823 425.667 159.236ZM921.687 122.499C918.897 115.529 914.647 109.221 909.071 103.567L908.997 103.527C897.645 92.0698 884.073 86.3016 868.334 86.3016C852.595 86.3016 838.905 92.0304 827.667 103.527C816.429 114.985 810.853 128.846 810.853 145.103C810.853 161.359 816.473 175.181 827.667 186.678C838.905 198.135 852.437 203.903 868.334 203.903C882.774 203.903 895.271 199.144 905.9 189.621C907.957 187.454 908.997 184.822 908.997 181.76C908.997 178.699 908.005 175.992 905.974 173.939C903.952 171.886 901.391 170.842 898.333 170.842C895.662 170.921 893.289 171.812 891.267 173.593C888.056 176.378 884.577 178.51 880.796 179.905C877.01 181.3 872.883 181.997 868.378 181.997C864.399 181.997 860.579 181.379 856.951 180.102C853.315 178.826 849.919 177.08 846.897 174.799C843.835 172.514 841.204 169.807 838.949 166.592C836.694 163.416 834.975 159.894 833.83 156.025H915.12C918.134 156.025 920.656 154.981 922.762 152.928C924.867 150.875 925.898 148.243 925.898 145.107C925.898 136.979 924.477 129.43 921.696 122.499H921.687ZM833.747 134.189C834.856 130.355 836.536 126.833 838.791 123.622C841.05 120.446 843.721 117.7 846.779 115.415C849.876 113.129 853.236 111.388 856.942 110.111C860.645 108.835 864.426 108.217 868.334 108.217C872.242 108.217 876.015 108.835 879.677 110.111C883.349 111.388 886.718 113.129 889.731 115.415C892.793 117.7 895.464 120.407 897.719 123.622C900.009 126.798 901.737 130.32 902.921 134.189H833.742H833.747ZM1021.58 93.6578C1019.67 91.7628 1017.26 90.2889 1014.36 89.2055C1011.45 88.122 1008.28 87.3851 1004.8 86.9596C1001.36 86.5341 998.113 86.3411 995.099 86.3411C988.252 86.3411 981.834 87.464 975.799 89.7099C969.758 91.9558 964.179 95.1667 959.055 99.347V97.2591C959.055 94.2412 958.025 91.6838 955.919 89.5564C953.822 87.4289 951.335 86.3455 948.396 86.3455C945.457 86.3455 942.852 87.4289 940.755 89.5564C938.649 91.6838 937.619 94.2806 937.619 97.2591V192.994C937.619 196.012 938.649 198.569 940.755 200.697C942.852 202.824 945.374 203.908 948.396 203.908C951.418 203.908 953.857 202.824 955.919 200.697C958.025 198.569 959.055 195.973 959.055 192.994V145.107C959.055 139.997 960.012 135.198 961.885 130.706C963.758 126.214 966.319 122.345 969.565 119.016C972.82 115.687 976.641 113.055 980.992 111.155C985.387 109.221 990.055 108.252 995.064 108.252C1000.07 108.252 1004.8 109.142 1009.13 110.884C1010.84 111.66 1012.34 112.046 1013.64 112.046C1015.13 112.046 1016.54 111.774 1017.84 111.195C1019.14 110.616 1020.29 109.84 1021.24 108.835C1022.2 107.831 1022.96 106.668 1023.53 105.313C1024.11 103.997 1024.41 102.562 1024.41 101.014C1024.41 97.996 1023.46 95.5571 1021.55 93.6578H1021.58H1021.58ZM572.838 122.534C570.048 115.603 565.881 109.256 560.266 103.527C548.918 92.0698 535.351 86.3016 519.604 86.3016C503.856 86.3016 490.179 92.0304 478.941 103.527C467.703 114.985 462.127 128.846 462.127 145.103C462.127 161.359 467.746 175.181 478.941 186.678C490.179 198.135 503.707 203.903 519.604 203.903C535.5 203.903 548.879 198.175 560.266 186.678C571.505 175.334 577.084 161.477 577.084 145.103C577.005 136.974 575.593 129.465 572.842 122.534H572.838ZM552.814 159.231V159.31C550.941 163.763 548.379 167.671 545.133 171C541.887 174.369 538.062 177.001 533.706 178.975C529.35 180.949 524.648 181.918 519.643 181.918C514.638 181.918 509.861 180.949 505.466 178.975C501.071 177.001 497.285 174.369 494.079 171.04C490.868 167.711 488.31 163.802 486.437 159.35C484.564 154.858 483.608 150.099 483.608 145.063C483.608 140.027 484.564 135.268 486.437 130.776C488.31 126.284 490.872 122.416 494.079 119.086C497.29 115.757 501.11 113.125 505.466 111.151C509.861 109.177 514.563 108.208 519.643 108.208C524.723 108.208 529.311 109.177 533.706 111.151C538.101 113.125 541.887 115.757 545.133 119.126C548.379 122.495 550.941 126.403 552.814 130.816C554.687 135.268 555.643 139.992 555.643 145.024C555.643 150.055 554.687 154.819 552.814 159.231ZM802.747 97.2196C802.747 95.7501 802.44 94.3552 801.87 93.0393C801.295 91.7233 800.532 90.5258 799.576 89.5169C798.62 88.5124 797.475 87.6965 796.176 87.157C794.878 86.6174 793.465 86.306 791.974 86.306C789.833 86.306 787.921 86.8499 786.241 87.9729L724.865 128.815V46.8934C724.865 43.7965 723.834 41.2041 721.733 39.0723C719.632 36.9448 717.149 35.8614 714.206 35.8614C711.263 35.8614 708.666 36.9448 706.56 39.0723C704.459 41.1997 703.428 43.7965 703.428 46.8934V192.836C703.428 195.854 704.459 198.451 706.56 200.618C708.661 202.785 711.184 203.868 714.206 203.868C717.228 203.868 719.671 202.785 721.733 200.618C723.834 198.451 724.865 195.854 724.865 192.836V154.937L737.402 146.537L784.828 201.004C786.741 202.899 789.149 203.829 792.013 203.829C793.505 203.829 794.917 203.557 796.216 202.978C797.514 202.434 798.663 201.622 799.615 200.618C800.571 199.613 801.335 198.451 801.909 197.096C802.484 195.78 802.787 194.345 802.787 192.915C802.787 190.051 801.795 187.494 799.804 185.252L755.663 134.426L798.655 105.857C801.405 103.962 802.743 101.058 802.743 97.145V97.224L802.747 97.2196ZM621.032 119.012C624.318 115.682 628.143 113.05 632.538 111.151C636.933 109.217 641.596 108.247 646.601 108.247C651.111 108.247 655.278 109.024 659.138 110.568C662.958 112.116 666.63 114.401 670.104 117.38C672.166 119.042 674.499 119.893 677.096 119.893C680.193 119.893 682.715 118.849 684.742 116.757C686.768 114.665 687.76 112.033 687.76 108.896C687.76 105.76 686.536 102.856 684.053 100.615C673.504 91.0917 661.011 86.3279 646.601 86.3279C630.74 86.3279 617.177 92.0567 605.938 103.554C594.7 115.011 589.125 128.873 589.125 145.129C589.125 161.385 594.744 175.207 605.938 186.704C617.177 198.162 630.705 203.93 646.601 203.93C660.971 203.93 673.469 199.17 684.053 189.643C686.308 187.322 687.457 184.651 687.457 181.554C687.457 178.457 686.461 175.786 684.439 173.733C682.413 171.68 679.855 170.636 676.798 170.636C674.201 170.715 671.942 171.487 670.034 172.957C666.595 175.975 663.002 178.221 659.142 179.729C655.322 181.238 651.154 181.975 646.606 181.975C641.601 181.975 636.938 181.006 632.543 179.072C628.147 177.137 624.327 174.505 621.037 171.215C617.751 167.925 615.15 163.978 613.277 159.525C611.404 155.034 610.448 150.235 610.448 145.124C610.448 140.014 611.404 135.215 613.277 130.724C615.15 126.232 617.747 122.363 621.037 119.034V118.994L621.032 119.012Z" fill="#1D63ED"/>
</g>
<defs>
<clipPath id="clip0_2_14694">
<rect width="1024" height="235.651" fill="white" transform="translate(0.409668 0.975586)"/>
</clipPath>
</defs>
</svg>
