<svg width="404" height="513" viewBox="0 0 404 513" fill="none" xmlns="http://www.w3.org/2000/svg">
<g clip-path="url(#clip0_795_4285)">
<path d="M202.012 512.575C78.492 448.037 1.85846 272.415 0.597656 126.725C42.6521 117.055 126.242 99.7747 202.012 0.574707C277.782 99.7747 361.372 117.055 403.426 126.732C402.146 272.415 325.532 448.011 202.012 512.575Z" fill="#FFCE00"/>
<path d="M26.7676 145.983C29.8652 209.707 47.8876 278.994 77.4108 338.623C109.5 403.423 153.494 453.823 202.012 482.367C250.518 453.848 294.518 403.423 326.601 338.623C356.131 278.975 374.172 209.701 377.244 145.983C335.696 135.807 266.736 113.707 202.012 39.2114C137.296 113.707 68.3228 135.807 26.7676 145.983Z" fill="#004987"/>
<path d="M39.5483 154.949C43.4843 215.045 60.4059 278.034 87.7403 333.234C117.136 392.594 157.59 439.967 202.012 467.551C246.428 439.96 286.876 392.594 316.284 333.234C343.6 278.034 360.534 215.032 364.476 154.949C321.104 143.615 260.304 120.389 202.012 56.6323C143.696 120.396 82.8955 143.615 39.5483 154.949Z" fill="#15284B"/>
<path d="M196.323 28.1971L202.012 21.6435V0.574707C126.236 99.7747 42.6522 117.055 0.584961 126.725L14.601 137.029L19.3626 135.871C63.3306 125.106 137.724 100.556 196.31 28.2035" fill="#EDAA00"/>
<path d="M403.196 126.655L388.815 136.952L388.585 142.002C388.335 207.647 365.801 285.413 335.817 345.944C303.414 411.372 255.695 463.864 205.852 493.17L202.012 495.416V512.575C325.532 448.037 402.153 272.415 403.42 126.725C403.345 126.698 403.268 126.677 403.19 126.661" fill="#EDAA00"/>
<path d="M183.779 311.237H118.096C113.8 311.21 109.688 309.492 106.651 306.453C103.614 303.415 101.897 299.302 101.872 295.007V197.4H126.192V288.472H183.792L183.779 311.237Z" fill="#DADBE1"/>
<path d="M106.307 200.255V292.242C106.335 295.051 107.462 297.737 109.447 299.725C111.431 301.714 114.115 302.846 116.924 302.879H176.975V291.32H119.375V200.255H106.307Z" fill="white"/>
<path d="M194.69 311.275H219.599L229.346 286.373H267.106L258.972 265.534H237.679L252.879 226.955L285.353 311.256H311.183C311.183 311.256 272.668 216.312 271.196 212.325C268.169 204.133 263.42 197.438 252.866 197.438H252.649C242.108 197.438 237.724 204.075 234.729 212.274L194.69 311.275Z" fill="#DADBE1"/>
<path d="M201.628 302.917H214.223C216.226 297.797 223.964 277.957 223.964 277.957H259.734C257.993 273.477 257.039 271.039 255.996 268.357H227.708L251.561 207.359L279.58 279.269C279.625 279.365 285.602 295.583 288.284 302.904H301.999C296.655 289.791 268.444 219.455 265.423 212.082C262.402 204.709 258.895 200.965 253.135 200.965H252.854C244.399 200.818 241.372 204.651 238.364 212.063C238.364 212.063 205.852 292.491 201.641 302.943" fill="white"/>
<path d="M323.081 351.295C286.524 344.255 245.411 340.319 201.936 340.319C156.457 340.319 113.616 344.62 75.8107 352.248C59.7147 355.487 45.2763 358.7 35.4907 361.848C44.7835 376.37 55.4523 393.247 64.4123 406.975C73.3723 404.754 82.8763 402.661 92.6683 400.684C125.366 394.124 162.531 390.386 201.955 390.386C239.644 390.386 275.286 393.797 306.953 399.864C318.563 402.098 329.552 404.344 339.708 406.636C349.027 392.421 359.324 376.197 368.611 362.034C357.891 358.776 341.897 354.866 323.12 351.269" fill="#FFCE00"/>
<path d="M85.212 371C85.212 375.371 86.8376 378.392 90.0376 379.96C93.2376 381.528 96.2392 381.298 99.8488 380.805L114.722 378.885V364.229L101.353 365.803V370.866C104.892 370.572 105.558 370.539 107.113 370.315V374.335L99.836 375.263C96.2456 375.743 93.8456 374.968 93.8456 369.656C93.8456 363.506 96.7192 362.277 99.836 361.861L114.71 359.941V354.495L99.836 356.415C90.0056 357.733 85.1992 362.501 85.1992 370.975M140.783 351.775L127.695 377.234L136.182 376.523C136.182 376.523 137.462 373.695 137.865 372.767L151.145 371.66C151.574 372.517 152.918 375.135 152.918 375.135L161.692 374.386L148.47 351.128L140.783 351.775ZM140.431 366.597L144.412 358.028C145.5 360.114 147.702 364.376 148.514 365.919L140.431 366.597ZM181.903 367.122C181.142 366.482 181.078 365.24 181.078 363.461V349.292L173.154 349.643V363.999C173.154 367.237 173.602 369.375 176.034 371.263C178.927 373.56 182.127 373.599 186.338 373.394L194.972 373.01V367.768L186.85 368.152C184.169 368.28 182.882 368.005 181.903 367.128M218.434 349.298L205.302 373.266L213.82 373.535L215.574 369.848L228.694 370.245C229.11 371.135 230.511 374.085 230.511 374.085L239.343 374.367L226.127 349.573L218.434 349.298ZM218.05 364.018C218.831 362.431 221.014 358.015 222.07 355.909C223.158 358.104 225.43 362.655 226.236 364.312L218.05 364.018ZM278.383 353.343L269.135 352.575C269.135 352.575 264.802 357.451 263.644 358.763C262.486 357.24 258.114 351.621 258.114 351.621L248.732 350.84C248.732 350.84 258.575 363.083 259.234 363.877C258.594 364.6 248.354 375.173 248.354 375.173L257.865 375.967C257.865 375.967 262.646 370.54 263.868 369.132C265.014 370.738 269.494 376.972 269.494 376.972L279.055 377.797L268.38 364.357C269.02 363.679 278.37 353.343 278.37 353.343M312.45 358.104C312.45 358.104 306.895 364.037 305.615 365.336C304.406 363.666 298.946 356.216 298.946 356.216L289.814 354.936L301.775 370.373V380.965L309.718 382.092V371.506C310.044 371.192 321.794 359.448 321.794 359.448L312.45 358.104Z" fill="#15284B"/>
<path d="M352.054 367.077C344.195 379.48 333.257 394.597 333.257 394.597C323.567 392.677 313.071 390.828 302.025 388.972C271.791 383.852 237.775 381.055 201.859 381.055C164.284 381.055 128.835 384.152 97.609 389.644C88.2778 391.295 79.2282 393.048 70.665 394.892L64.3354 406.975C71.1322 405.292 81.7882 402.975 85.4554 402.149C85.5194 402.149 93.3338 413.9 93.5002 413.669C93.7498 413.292 99.0746 407.98 102.319 405.1C105.547 402.273 108.916 399.611 112.412 397.125C140.118 393.349 170.23 390.36 201.878 390.36C239.567 390.36 275.215 393.765 306.876 399.852C322.473 402.834 333.756 405.362 339.983 406.796C349.366 392.389 358.748 377.164 368.534 362.111L352.054 367.077Z" fill="#EDAA00"/>
<path d="M201.404 77.8549C201.42 98.3483 193.341 118.018 178.925 132.584C164.509 147.15 144.924 155.432 124.431 155.628C124.235 155.645 124.053 155.736 123.921 155.881C123.788 156.026 123.715 156.215 123.715 156.412C123.715 156.608 123.788 156.798 123.921 156.943C124.053 157.088 124.235 157.178 124.431 157.196C144.898 157.366 164.467 165.622 178.872 180.162C193.276 194.702 201.348 214.348 201.327 234.815C201.332 234.942 201.366 235.066 201.427 235.177C201.488 235.288 201.575 235.383 201.679 235.455C201.791 235.527 201.921 235.57 202.054 235.578C202.188 235.585 202.321 235.559 202.441 235.5L202.62 235.417C202.752 235.35 202.864 235.249 202.943 235.124C203.022 234.998 203.065 234.854 203.068 234.706C203.057 214.214 211.148 194.55 225.577 179.999C240.005 165.448 259.601 157.191 280.092 157.029C280.193 157.031 280.293 157.013 280.387 156.976C280.481 156.939 280.566 156.884 280.639 156.813C280.711 156.743 280.769 156.66 280.809 156.567C280.85 156.475 280.871 156.375 280.873 156.274C280.879 156.168 280.863 156.062 280.827 155.962C280.79 155.863 280.733 155.772 280.66 155.695C280.587 155.618 280.499 155.557 280.401 155.516C280.303 155.475 280.198 155.454 280.092 155.455C259.606 155.308 240.008 147.074 225.564 132.547C211.12 118.019 203 98.3731 202.972 77.8869C202.982 77.778 202.969 77.6682 202.934 77.5646C202.899 77.461 202.843 77.3658 202.769 77.285C202.695 77.2043 202.606 77.1398 202.506 77.0957C202.405 77.0516 202.297 77.0288 202.188 77.0288C202.079 77.0288 201.97 77.0516 201.87 77.0957C201.77 77.1398 201.681 77.2043 201.607 77.285C201.533 77.3658 201.477 77.461 201.442 77.5646C201.407 77.6682 201.394 77.778 201.404 77.8869" fill="#004987"/>
<path d="M202.012 104.332C202.046 104.333 202.079 104.341 202.109 104.356C202.14 104.37 202.167 104.391 202.189 104.415C202.212 104.44 202.229 104.47 202.241 104.501C202.252 104.533 202.257 104.567 202.255 104.6C203.269 117.868 208.953 130.348 218.297 139.821C227.642 149.295 240.042 155.149 253.295 156.344C253.329 156.343 253.364 156.348 253.396 156.359C253.428 156.371 253.457 156.389 253.482 156.412C253.507 156.436 253.528 156.464 253.542 156.495C253.556 156.526 253.563 156.56 253.564 156.594C253.564 156.748 253.385 156.824 253.27 156.824C240.048 158.004 227.67 163.824 218.326 173.253C208.983 182.682 203.276 195.112 202.217 208.344C202.217 208.415 202.166 208.594 202.006 208.594C201.846 208.594 201.794 208.415 201.788 208.344C200.73 195.114 195.026 182.684 185.685 173.255C176.344 163.826 163.968 158.006 150.748 156.824C150.633 156.824 150.447 156.754 150.447 156.594C150.447 156.434 150.582 156.376 150.716 156.344C163.969 155.149 176.369 149.295 185.714 139.821C195.059 130.348 200.743 117.868 201.756 104.6C201.753 104.566 201.758 104.531 201.769 104.499C201.781 104.466 201.799 104.437 201.822 104.411C201.845 104.386 201.874 104.366 201.906 104.352C201.937 104.338 201.971 104.331 202.006 104.332" fill="#FFCE00"/>
<path d="M202.012 104.332C201.897 104.332 201.782 104.415 201.763 104.6C200.75 117.871 195.064 130.353 185.717 139.827C176.369 149.301 163.965 155.153 150.71 156.344C150.676 156.343 150.641 156.348 150.609 156.359C150.577 156.371 150.548 156.389 150.523 156.412C150.498 156.436 150.477 156.464 150.463 156.495C150.449 156.526 150.442 156.56 150.441 156.594H202.012V104.332Z" fill="#EDAA00"/>
<path d="M202.012 208.575C202.166 208.575 202.211 208.395 202.223 208.325C203.283 195.093 208.989 182.663 218.333 173.234C227.676 163.805 240.054 157.985 253.276 156.805C253.391 156.805 253.571 156.735 253.571 156.575H202.012V208.575Z" fill="#EDAA00"/>
<path d="M236.31 156.408C217.513 156.242 202.217 141.106 202.217 122.661C202.222 122.637 202.222 122.612 202.217 122.588C202.212 122.565 202.202 122.542 202.189 122.522C202.175 122.501 202.157 122.484 202.137 122.471C202.117 122.457 202.094 122.448 202.07 122.443C202.046 122.439 202.021 122.439 201.997 122.444C201.973 122.449 201.951 122.458 201.93 122.472C201.91 122.485 201.893 122.503 201.88 122.523C201.866 122.544 201.857 122.567 201.852 122.591C201.846 122.614 201.846 122.638 201.852 122.661C201.842 131.61 198.297 140.192 191.988 146.538C185.679 152.884 177.117 156.48 168.169 156.543C168.12 156.544 168.074 156.564 168.04 156.599C168.005 156.633 167.985 156.679 167.983 156.728C167.987 156.775 168.008 156.818 168.043 156.849C168.077 156.88 168.123 156.896 168.169 156.895C177.141 157.025 185.702 160.676 192.009 167.059C198.315 173.442 201.862 182.046 201.884 191.019C201.883 191.04 201.887 191.061 201.894 191.081C201.901 191.101 201.912 191.119 201.927 191.134C201.941 191.15 201.958 191.162 201.977 191.171C201.996 191.18 202.017 191.185 202.038 191.186C202.061 191.187 202.083 191.185 202.105 191.178C202.127 191.171 202.147 191.159 202.164 191.144C202.181 191.129 202.195 191.111 202.205 191.091C202.216 191.071 202.222 191.048 202.223 191.026C202.267 181.987 205.864 173.329 212.239 166.921C218.613 160.513 227.253 156.87 236.291 156.779C236.337 156.776 236.381 156.756 236.414 156.723C236.447 156.691 236.467 156.647 236.47 156.6C236.47 156.552 236.451 156.506 236.418 156.471C236.384 156.436 236.339 156.416 236.291 156.415" fill="white"/>
</g>
<defs>
<clipPath id="clip0_795_4285">
<rect width="402.842" height="512" fill="white" transform="translate(0.584961 0.574707)"/>
</clipPath>
</defs>
</svg>
