<svg width="526" height="513" viewBox="0 0 526 513" fill="none" xmlns="http://www.w3.org/2000/svg">
<g clip-path="url(#clip0_820_334)">
<path d="M432.639 0.0507812H93.4939C42.1361 0.0507812 0.502441 41.6845 0.502441 93.0422V419.059C0.502441 470.417 42.1361 512.051 93.4939 512.051H432.639C483.997 512.051 525.631 470.417 525.631 419.059V93.0422C525.631 41.6845 483.997 0.0507812 432.639 0.0507812Z" fill="#1E3101"/>
<path d="M236.826 306.37H155.451L138.895 357.901C138.669 358.839 138.124 359.668 137.352 360.247C136.58 360.826 135.631 361.117 134.667 361.071H93.4516C91.1011 361.071 90.2792 359.78 90.9856 357.196L161.44 155.125C162.145 153.012 162.849 150.946 163.554 148.243C164.476 143.543 164.947 138.766 164.963 133.976C164.915 133.641 164.946 133.3 165.053 132.979C165.16 132.658 165.34 132.366 165.58 132.127C165.819 131.888 166.111 131.707 166.432 131.6C166.753 131.493 167.094 131.462 167.429 131.51H223.44C225.081 131.51 226.02 132.097 226.258 133.272L306.225 357.548C306.929 359.899 306.224 361.073 304.111 361.071H258.315C257.528 361.158 256.737 360.956 256.089 360.502C255.44 360.049 254.98 359.374 254.792 358.606L236.826 306.37ZM168.133 262.921H223.792C222.383 258.226 220.739 252.942 218.861 247.069C216.978 241.201 214.982 234.919 212.872 228.222C210.758 221.529 208.644 214.836 206.531 208.142C204.417 201.45 202.48 194.991 200.719 188.767C198.957 182.548 197.372 176.853 195.963 171.682H195.611C193.627 181.196 191.158 190.603 188.213 199.864C184.921 210.432 181.575 221.236 178.173 232.273C174.766 243.315 171.419 253.531 168.133 262.921Z" fill="#99E83F"/>
<path d="M329.474 186.019H367.872C368.915 186.028 369.926 186.377 370.752 187.013C371.579 187.648 372.175 188.536 372.451 189.542C373.276 191.372 373.867 193.298 374.213 195.275C374.704 197.541 375.057 199.835 375.27 202.144C375.5 204.61 375.618 207.252 375.622 210.07C382.207 202.403 390.148 196.014 399.048 191.224C408.593 185.823 419.414 183.085 430.38 183.298C430.811 183.236 431.25 183.276 431.663 183.413C432.076 183.551 432.451 183.783 432.758 184.09C433.066 184.398 433.298 184.773 433.435 185.186C433.573 185.598 433.613 186.038 433.551 186.468V229.093C433.551 230.739 432.373 231.559 430.029 231.559C422.716 231.055 415.369 231.588 408.207 233.145C401.904 234.397 395.761 236.347 389.889 238.957C384.836 241.308 379.48 244.01 376.662 247.059V357.891C376.662 360.005 375.723 361.062 373.844 361.062H332.645C332.166 361.13 331.678 361.087 331.219 360.934C330.76 360.781 330.344 360.524 330.002 360.182C329.66 359.84 329.402 359.423 329.249 358.964C329.096 358.505 329.053 358.017 329.121 357.539V237.196C329.121 232.032 329.063 226.572 328.946 220.815C328.824 215.063 328.648 209.368 328.417 203.729C328.257 198.624 327.786 193.533 327.008 188.485C326.92 188.144 326.923 187.786 327.015 187.447C327.108 187.107 327.288 186.797 327.537 186.548C327.786 186.299 328.095 186.119 328.435 186.026C328.775 185.934 329.133 185.931 329.474 186.019Z" fill="#99E83F"/>
</g>
<defs>
<clipPath id="clip0_820_334">
<rect width="525.128" height="512" fill="white" transform="translate(0.502441 0.0507812)"/>
</clipPath>
</defs>
</svg>
