<svg width="513" height="513" viewBox="0 0 513 513" fill="none" xmlns="http://www.w3.org/2000/svg">
<g clip-path="url(#clip0_832_212)">
<path d="M256.523 0.0507812C269.805 0.0507812 282.85 1.06221 295.586 3.01223L291.924 26.7346C280.382 24.9674 268.56 24.0508 256.523 24.0508C244.488 24.0508 232.666 24.9673 221.124 26.7344L217.462 3.01198C230.198 1.06212 243.242 0.0507812 256.523 0.0507812Z" fill="#3A76F0"/>
<path d="M317.275 7.30273L311.58 30.6229C334.971 36.3156 356.971 45.5543 376.984 57.7367L389.448 37.2215C367.365 23.7786 343.086 13.5844 317.275 7.30273Z" fill="#3A76F0"/>
<path d="M407.816 49.5195L393.634 68.8818C412.76 82.9173 429.656 99.8143 443.691 118.942L463.055 104.758C447.567 83.6517 428.923 65.0069 407.816 49.5195Z" fill="#3A76F0"/>
<path d="M475.352 123.129L454.837 135.59C467.019 155.603 476.258 177.606 481.95 200.997L505.272 195.301C498.99 169.491 488.795 145.212 475.352 123.129Z" fill="#3A76F0"/>
<path d="M509.564 216.989L485.839 220.651C487.608 232.193 488.524 244.015 488.524 256.05C488.524 268.087 487.608 279.909 485.839 291.451L509.564 295.113C511.512 282.377 512.524 269.332 512.524 256.05C512.524 242.769 511.512 229.725 509.564 216.989Z" fill="#3A76F0"/>
<path d="M454.837 376.514C467.019 356.498 476.258 334.498 481.95 311.106L505.272 316.802C498.99 342.614 488.795 366.892 475.352 388.975L454.837 376.514Z" fill="#3A76F0"/>
<path d="M443.692 393.161L463.055 407.344C447.567 428.451 428.924 447.094 407.816 462.582L393.631 443.219C412.76 429.184 429.656 412.288 443.692 393.161Z" fill="#3A76F0"/>
<path d="M376.984 454.364L389.445 474.879C367.362 488.323 343.083 498.518 317.273 504.799L311.578 481.478C334.968 475.785 356.971 466.547 376.984 454.364Z" fill="#3A76F0"/>
<path d="M291.922 485.366L295.585 509.091C282.849 511.04 269.804 512.051 256.523 512.051C243.242 512.051 230.196 511.04 217.46 509.091L221.121 485.369C232.659 487.136 244.48 488.051 256.523 488.051C268.559 488.051 280.381 487.136 291.922 485.366Z" fill="#3A76F0"/>
<path d="M201.466 481.485L195.772 504.8C176.383 500.08 157.859 493.155 140.481 484.301L116.184 489.971L110.73 466.598L143.564 458.938L151.374 462.915C167.114 470.934 183.894 477.21 201.466 481.485Z" fill="#3A76F0"/>
<path d="M90.4746 471.325L95.928 494.698L54.2816 504.413C26.5671 510.88 1.69373 486.006 8.16047 458.294L17.878 416.646L41.2503 422.099L31.5327 463.747C29.1076 474.141 38.4352 483.466 48.8282 481.043L90.4746 471.325Z" fill="#3A76F0"/>
<path d="M45.9767 401.843L22.6044 396.39L28.2736 372.092C19.4204 354.713 12.4937 336.188 7.7749 316.801L31.0897 311.106C35.3648 328.678 41.6403 345.459 49.6586 361.2L53.6378 369.011L45.9767 401.843Z" fill="#3A76F0"/>
<path d="M27.2037 291.45L3.4846 295.111C1.53476 282.376 0.523438 269.331 0.523438 256.05C0.523438 242.769 1.53485 229.724 3.48486 216.987L27.2072 220.649C25.44 232.192 24.5234 244.014 24.5234 256.05C24.5234 268.092 25.4391 279.913 27.2037 291.45Z" fill="#3A76F0"/>
<path d="M31.0955 200.995L7.77539 195.299C14.0571 169.489 24.2512 145.21 37.6942 123.127L58.2094 135.588C46.027 155.602 36.7883 177.604 31.0955 200.995Z" fill="#3A76F0"/>
<path d="M69.3549 118.94L49.9927 104.757C65.48 83.6504 84.1248 65.0059 105.231 49.5186L119.415 68.8808C100.287 82.9163 83.3904 99.8129 69.3549 118.94Z" fill="#3A76F0"/>
<path d="M136.063 57.7355L123.601 37.22C145.685 23.7773 169.963 13.5833 195.774 7.30176L201.469 30.6219C178.079 36.3147 156.076 45.5528 136.063 57.7355Z" fill="#3A76F0"/>
<path d="M464.523 256.051C464.523 370.928 371.4 464.051 256.523 464.051C220.086 464.051 185.838 454.681 156.055 438.22C153.187 436.636 149.841 436.115 146.65 436.857L54.1273 458.448L75.7161 365.923C76.4604 362.732 75.9375 359.385 74.3529 356.518C57.8924 326.736 48.5234 292.488 48.5234 256.051C48.5234 141.176 141.648 48.0508 256.523 48.0508C371.4 48.0508 464.523 141.176 464.523 256.051Z" fill="#3A76F0"/>
</g>
<defs>
<clipPath id="clip0_832_212">
<rect width="512" height="512" fill="white" transform="translate(0.523438 0.0507812)"/>
</clipPath>
</defs>
</svg>
