<svg width="692" height="513" viewBox="0 0 692 513" fill="none" xmlns="http://www.w3.org/2000/svg">
<g clip-path="url(#clip0_2_14956)">
<path d="M357.054 412.646C350.429 412.646 345.051 418.017 345.051 424.646C345.051 431.269 350.429 436.647 357.054 436.647C363.68 436.647 369.051 431.269 369.051 424.647C369.051 418.017 363.68 412.646 357.054 412.646ZM357.054 434.073C355.816 434.074 354.59 433.831 353.446 433.358C352.302 432.884 351.262 432.19 350.387 431.315C349.511 430.439 348.817 429.399 348.344 428.255C347.871 427.111 347.628 425.885 347.629 424.646C347.629 419.438 351.84 415.227 357.054 415.227C362.262 415.227 366.478 419.438 366.478 424.646C366.478 429.857 362.262 434.073 357.054 434.073ZM361.986 421.865C361.986 421.331 361.88 420.801 361.675 420.308C361.471 419.814 361.17 419.366 360.792 418.989C360.028 418.226 358.993 417.798 357.914 417.799H352.131V431.498H354.702V425.935H356.546L359.143 431.498H361.986L359.274 425.697C360.066 425.416 360.752 424.897 361.238 424.211C361.723 423.525 361.984 422.705 361.986 421.865ZM357.914 423.363H354.702V420.365H357.914C358.312 420.366 358.693 420.524 358.975 420.805C359.256 421.086 359.414 421.468 359.415 421.866C359.415 422.063 359.376 422.257 359.3 422.439C359.225 422.621 359.114 422.786 358.975 422.925C358.835 423.064 358.67 423.174 358.488 423.249C358.306 423.324 358.111 423.363 357.914 423.363Z" fill="#C8102E"/>
<path d="M634.574 157.016C663.646 132.174 691.821 92.1147 691.821 46.2418C691.821 39.6018 683.721 37.7338 680.437 42.2482C650.482 83.1259 622.234 98.6563 605.17 104.568C633.545 83.0867 661.373 48.0114 668.49 8.2338C669.273 0.976188 661.378 -1.14221 657.73 2.65619C622.989 37.3922 575.159 74.4611 446.621 74.4611C415.561 74.4611 380.056 73.5603 357.096 73.5603C252.736 73.5603 214.357 138.107 205.705 156.026C197.113 154.784 188.414 154.019 179.766 154.019C80.8538 154.019 0.380859 234.492 0.380859 333.413C0.379259 432.325 80.8513 512.801 179.765 512.801C252.564 512.801 316.919 469.812 345.034 403.014C347.012 403.217 349.112 403.554 350.882 403.554C373.613 403.554 378.38 396.906 378.38 391.312C378.38 388.312 375.408 384.689 373.937 382.579C407.284 382.399 417.064 380.837 431.496 375.85C433.843 375.118 435.221 372.937 435.221 370.618C435.221 365.698 425.133 357.554 417.826 351.225C464.466 350.442 498.809 342.112 498.809 331.204C498.809 329.073 498.606 326.388 486.229 316.639C512.542 309.482 558.773 291.738 558.773 280.185C558.773 275.708 554.909 272.964 550.395 269.817C591.355 254.384 625.797 227.188 625.797 217.437C625.797 209.576 614.216 208.909 608.474 208.465C628.884 195.392 657.303 173.112 657.303 163.489C657.303 153.524 641.686 157.449 634.574 157.016Z" fill="#C8102E"/>
<path d="M622.605 159.569C655.246 135.11 686.274 92.8669 686.274 46.2452C686.274 45.2652 685.306 45.1132 684.901 45.522C634.445 114.408 588.564 113.73 588.564 113.73C586.557 113.73 586.083 110.916 587.677 109.806C620.253 90.6461 655.193 51.122 663.039 7.25799C663.146 6.66999 662.268 5.95799 661.649 6.57159C624.595 43.63 573.669 80.0053 446.62 80.0053C405.932 80.0053 384.699 79.1053 357.096 79.1053C246.926 79.1053 213.048 152.331 209.038 162.024C199.366 160.385 189.575 159.56 179.766 159.558C83.7519 159.558 5.91577 237.391 5.91577 333.416C5.91577 429.427 83.7519 507.266 179.765 507.266C253.285 507.266 316.143 461.629 341.561 397.146C344.812 397.701 347.95 398.016 350.877 398.016C368.59 398.016 372.843 394.062 372.843 391.315C372.843 389.452 361.515 377.072 367.139 377.072C406.423 377.072 415.265 375.606 429.688 370.622C422.768 359.792 397.705 345.774 410.611 345.774C472.872 345.774 493.276 333.754 493.276 331.207C493.276 328.232 473.424 313.935 473.424 313.935C502.102 309.207 553.238 286.335 553.238 280.189C553.238 276.631 538.652 270.66 540.99 267.288C586.461 252.164 620.256 222.779 620.256 217.441C620.256 213.157 593.601 213.658 593.601 213.658V210.826C616.651 198.843 651.762 169.867 651.762 163.493C651.762 159.432 618.814 166.237 622.605 159.569Z" fill="white"/>
<path d="M222.45 300.564C216.823 293.252 209.366 287.427 200.754 283.782L199.355 285.153L202.243 305.014C203.145 305.727 204.011 306.484 204.838 307.282L219.387 307.403C220.442 305.139 221.462 302.859 222.45 300.564ZM159.496 285.448L175.585 297.437C176.727 297.307 177.875 297.231 179.024 297.207L193.336 283.123L193.045 281.195C188.706 280.092 184.245 279.535 179.767 279.535C172.823 279.533 165.944 280.878 159.513 283.495L159.496 285.448ZM194.348 290.081L186.471 297.811C189.759 298.426 192.945 299.499 195.935 300.997L194.348 290.081ZM200.19 363.318C197.43 365.201 194.423 366.696 191.255 367.759L200.103 374.348L200.191 363.318H200.19ZM128.341 412.98L153.96 387.775C143.944 383.021 135.458 375.563 129.424 366.357L107.94 395.179C113.856 402.055 120.726 408.05 128.341 412.98ZM209.678 312.981C211.089 315.041 212.281 317.242 213.235 319.549C214.409 317.399 215.545 315.229 216.643 313.04L209.678 312.981ZM161.525 390.764C160.898 390.563 160.275 390.351 159.656 390.128L133.345 416.005C143.7 421.837 155.065 425.656 166.841 427.26L161.525 390.764ZM209.484 355.686L208.164 355.883C207.452 356.783 206.697 357.648 205.901 358.475L205.726 378.547L207.294 379.708C212.137 376.821 216.5 373.195 220.222 368.96C214.882 364.109 211.057 359.511 209.484 355.686ZM159.346 303.499C162.102 301.608 165.11 300.113 168.282 299.059L159.437 292.459L159.346 303.499V303.499ZM126.312 361.052C126.01 360.469 125.715 359.882 125.428 359.291L88.527 358.979C91.7718 370.584 97.1726 381.282 104.259 390.623L126.312 361.052ZM200.042 381.372L183.961 369.377C182.819 369.506 181.673 369.581 180.524 369.602L166.208 383.68L166.484 385.616C170.825 386.719 175.288 387.276 179.767 387.273C186.711 387.277 193.59 385.935 200.022 383.32L200.042 381.372ZM165.197 376.728L173.064 368.992C169.779 368.377 166.595 367.308 163.605 365.816L165.197 376.728ZM205.654 387.749L205.346 424.645C216.944 421.403 227.639 416.005 236.985 408.912L207.407 386.863C206.824 387.164 206.247 387.463 205.654 387.749ZM149.854 353.831C147.97 351.07 146.48 348.061 145.427 344.89L138.825 353.735L149.854 353.831V353.831ZM154.697 359.532L134.633 359.364L133.469 360.928C139.311 370.736 148.176 378.546 158.789 383.029L160.182 381.653L157.297 361.801C156.397 361.084 155.53 360.327 154.697 359.532ZM153.645 308.337L153.808 288.271L152.249 287.1C142.435 292.946 134.633 301.811 130.139 312.429L131.518 313.831L151.377 310.932C152.092 310.032 152.849 309.166 153.645 308.337ZM136.443 318.829L144.177 326.701C144.793 323.414 145.866 320.229 147.363 317.239L136.443 318.829ZM127.553 320.126C126.459 324.469 125.905 328.931 125.904 333.41C125.899 340.353 127.243 347.231 129.861 353.662L131.808 353.679L143.803 337.592C143.666 336.452 143.59 335.304 143.577 334.155L129.492 319.851L127.553 320.127V320.126ZM167.471 392.323L172.649 427.879C181.697 428.56 190.795 427.943 199.667 426.044L199.969 390.105C193.484 392.414 186.651 393.592 179.767 393.589C175.554 393.589 171.439 393.156 167.471 392.323ZM232.412 261.94C232.412 259.489 232.358 257.032 232.277 254.559C231.917 254.313 231.559 254.069 231.199 253.835L205.578 279.035C213.053 282.592 219.715 287.653 225.148 293.899C229.106 283.549 232.412 271.908 232.412 261.939V261.94ZM152.133 279.943C152.713 279.645 153.293 279.343 153.884 279.065L154.193 242.167C142.596 245.407 131.898 250.804 122.549 257.899L152.133 279.943ZM192.069 274.492L186.885 238.93C184.534 238.764 182.165 238.66 179.767 238.66C172.943 238.66 166.281 239.395 159.864 240.776L159.566 276.707C166.051 274.398 172.884 273.221 179.767 273.226C183.985 273.226 188.098 273.665 192.069 274.492ZM254.316 391.852C243.38 386.196 233.074 379.54 225.03 373.058C221.423 377.16 217.283 380.761 212.72 383.764L241.534 405.237C246.216 401.21 250.491 396.712 254.316 391.852ZM226.204 250.812C215.848 244.979 204.481 241.157 192.705 239.55L198.018 276.051C198.651 276.254 199.274 276.465 199.89 276.682L226.204 250.812ZM85.0286 333.41C85.0286 340.238 85.755 346.893 87.1334 353.307L123.065 353.606C120.76 347.122 119.584 340.291 119.589 333.41C119.589 329.189 120.021 325.082 120.846 321.1L85.2958 326.29C85.1166 328.659 85.027 331.034 85.0286 333.41ZM85.9126 320.47L122.411 315.154C122.611 314.52 122.83 313.912 123.05 313.285L97.175 286.976C91.336 297.328 87.5143 308.693 85.9126 320.47ZM100.201 281.981L125.397 307.597C130.154 297.61 137.565 289.123 146.82 283.064L118.004 261.577C111.124 267.491 105.128 274.363 100.201 281.981ZM179.765 352.943C190.553 352.943 199.299 344.196 199.299 333.408C199.299 322.619 190.553 313.874 179.765 313.874C168.976 313.874 160.23 322.619 160.23 333.408C160.23 344.196 168.976 352.943 179.765 352.943Z" fill="#C8102E"/>
<path d="M179.766 216.205C115.036 216.205 62.5659 268.681 62.5659 333.413C62.5659 398.143 115.036 450.613 179.766 450.613C219.282 450.613 254.225 431.059 275.462 401.098C271.009 399.528 266.486 397.676 262.004 395.612C243.173 420.464 213.35 436.522 179.766 436.522C122.818 436.522 76.6491 390.356 76.6491 333.413C76.6491 276.46 122.818 230.293 179.766 230.293C198.791 230.293 216.617 235.458 231.916 244.447C231.775 239.339 231.749 234.079 232.152 228.546C216.389 220.651 198.596 216.205 179.766 216.205Z" fill="#C8102E"/>
<path d="M310.029 405.642C302.459 407.454 292.693 406.309 282.205 403.275C259.881 435.949 222.327 457.403 179.763 457.403C111.296 457.403 55.7775 401.893 55.7775 333.415C55.7775 331.217 55.8399 329.041 55.9439 326.877C52.1103 332.695 53.2159 342.294 46.4175 342.294C41.0255 342.294 44.0143 334.949 40.0679 334.949C37.6119 334.949 37.2679 338.318 34.2143 338.318C33.8567 338.318 33.5391 338.191 33.3079 338.191C32.6519 338.191 32.3599 339.615 31.1159 339.615C29.5287 339.615 28.4143 337.741 27.1535 337.741C25.7319 337.741 25.2791 340.454 23.3935 340.454C21.4599 340.454 19.5879 337.217 18.8335 335.737C20.0783 423.569 91.652 494.375 179.766 494.375C247.2 494.375 304.939 452.909 328.899 394.084C310.846 388.624 293.594 379.413 293.594 379.413C294.695 390.169 310.029 405.642 310.029 405.642ZM34.7831 271.872C38.5007 274.945 35.5375 280.32 38.2055 284.018C58.6231 225.5 114.29 183.51 179.766 183.51C201.163 183.51 221.511 188.004 239.925 196.081C241.342 192.672 242.908 189.327 244.616 186.054C224.772 177.308 202.838 172.441 179.766 172.441C112.132 172.441 54.2583 214.164 30.4295 273.262C31.7551 274.131 33.2151 270.577 34.7831 271.872ZM376.319 106.443H464.882C578.018 106.443 627.553 65.9947 647.065 30.1403C648.191 27.9843 646.806 27.5323 644.656 29.4427C620.025 51.5403 583.276 90.1107 433.221 90.1107H369.899C270.291 90.1107 232.782 135.024 222.999 164.98C227.955 166.253 232.854 167.743 237.679 169.444C255.387 137.564 289.135 106.443 376.319 106.443Z" fill="#C8102E"/>
<path d="M374.243 129.279C285.617 129.279 234.568 190.148 240.411 248.305C244.764 291.637 220.516 326.841 220.516 326.841C220.516 326.841 254.339 311.526 254.339 249.823C254.339 191.338 312.519 148.771 361.553 148.771C408.969 148.771 463.986 149.069 491.265 149.069C635.931 149.069 670.935 82.2346 675.919 69.193C676.797 67.237 675.531 67.633 675.055 68.5426C644.852 109.275 602.559 132.535 487.799 132.535C414.08 132.535 390.768 129.279 374.243 129.279Z" fill="#C8102E"/>
<path d="M407.284 179.923C383.353 179.923 380.95 186.585 380.95 186.585C380.193 187.514 380.579 189.694 378.902 190.33C373.435 192.442 367.385 187.913 362.679 194.003C359.837 197.682 352.942 193.145 348.47 195.742C347.465 196.33 348.486 198.878 349.263 199.215C351.357 200.135 354.814 199.863 356.114 200.943C357.487 202.069 357.366 203.679 358.641 204.622C360.219 205.778 363.183 206.294 364.503 208.118C365.535 209.522 365.865 212.314 367.363 212.395C403.287 214.435 440.166 214.43 474.256 201.222C478.117 195.142 440.811 179.923 407.284 179.923ZM266.08 259.144C266.553 262.619 265.646 267.955 266.367 268.026C291.373 270.755 316.755 266.309 339.895 255.688C346.334 252.955 314.766 236.519 288.502 236.519C279.969 236.519 274.158 240.15 274.158 240.15C272.694 240.991 271.52 244.422 269.818 246.978C268.549 248.877 270.978 251.852 269.958 253.076C268.073 255.348 265.746 256.74 266.08 259.143V259.144ZM300.277 198.275C299.067 198.478 298.158 200.443 297.261 201.718C294.992 204.912 287.804 204.206 287.863 207.842C287.945 214.472 280.559 215.685 279.386 220.461C278.469 224.204 276.457 227.032 276.181 231.059C302.712 231.203 330.005 229.492 353.525 215.986C359.674 213.186 321.131 195.262 300.277 198.275ZM384.747 175.53C382.816 167.834 373.478 166.392 367.112 162.669C364.587 161.189 361.624 161.864 358.708 163.116C352.39 165.83 344.265 161.222 337.744 165.908C335.887 167.256 334.894 169.764 332.493 170.386C329.513 171.16 326.507 171.283 323.464 171.669C322.347 171.824 320.254 172.578 320.391 173.845C320.999 179.256 315.964 180.385 311.971 181.781C308.065 183.154 309.452 188.305 309.33 192.098C335.178 192.427 362.068 188.786 384.747 175.53ZM252.974 303.157C259.618 306.613 291.755 301.97 308.51 291.557C291.299 276.958 263.756 271.662 263.756 271.662C259.937 282.083 255.986 292.454 252.974 303.158V303.157Z" fill="#C8102E"/>
<path d="M248.157 309.239C245.018 310.908 241.419 315.645 244.267 317.569C249.366 321.025 257.827 328.77 296.853 328.77C334.854 328.77 349.312 317.026 356.502 309.734C356.502 305.029 323.07 295.398 318.582 298.013C317.203 298.697 317.04 300.078 316.854 300.686C315.354 301.274 310.71 301.347 309.607 302.153C307.015 304.055 307.53 307.159 306.838 307.342C300.908 308.817 293.558 305.082 287.942 307.64C286.437 308.336 286.566 312.525 284.571 312.678C280.505 312.985 276.03 310.567 272.157 311.803C271.468 312.031 269.374 312.334 267.998 313.201C265.87 312.109 264.738 311.845 261.958 311.172C259.902 310.668 257.914 312.081 255.395 311.653C253.037 311.243 250.388 308.051 248.157 309.239ZM402.253 281.802C409.271 278.149 417.717 277.802 422.873 270.832C391.372 254.379 354.586 256.082 350.094 258.682C348.986 259.33 347.694 261.624 346.286 262.521C344.125 263.94 342.118 263.258 340.686 264.691C339.828 265.549 340.77 267.817 340.165 268.657C339.374 269.769 337.63 269.965 336.541 270.553C335.434 271.158 333.098 270.17 331.359 270.905C329.626 271.64 329.555 273.263 328.422 273.837C324.197 275.99 318.067 273.494 315.158 273.539C313.657 273.565 314.046 275.931 314.53 276.407C316.413 278.273 321.861 278.841 321.653 281.605C321.605 282.171 320.299 284.099 319.474 284.205C322.362 290.372 349.23 298.548 384.573 286.825C390.474 285.049 396.576 284.752 402.253 281.801V281.802ZM442.458 236.396C445.348 234.46 449.032 234.437 450.754 231.701C454.567 226.751 417.765 218.57 402.832 218.57C387.992 218.57 360.589 222.293 355.886 223.945C353.938 224.756 353.834 228.729 351.549 229.011C347.148 229.552 342.789 230.086 338.362 230.457C336.906 230.576 337.272 232.909 337.726 233.266C340.604 235.591 341.494 237.032 342.706 240.592C342.828 240.927 345.817 240.632 346.47 241.189C349.346 243.671 351.4 247.203 355.002 248.078C372.431 252.26 389.278 253.414 407.118 249.269C409.029 248.829 410.428 247.276 412.133 247.068C418.392 246.257 424.905 245.88 429.757 241.259C433.181 237.992 438.645 238.965 442.458 236.396ZM484.788 161.047C485.812 160.412 484.979 157.099 484.121 156.972C480.125 156.364 475.796 154.749 471.473 158.63C470.01 159.95 467.286 157.11 465.263 158.332C463.624 159.306 462.009 161.926 460.487 162.604C456.341 164.448 452.319 160.141 447.743 160.676C446.4 160.825 446.727 163.812 445.393 164.124C441.456 165.056 438.017 160.769 435.796 162.21C432.396 164.402 429.54 167.194 425.425 165.342C421.474 163.547 416.257 159.812 413.554 162.165C408.862 166.263 403.155 160.325 399.03 161.925C395.534 163.28 386.134 165.52 392.546 169.237C412.466 181.296 454.061 178.901 484.788 161.048V161.047ZM287.334 387.178C286.294 385.29 283.6 386.303 281.746 385.212C280.4 384.396 279.756 381.593 278.438 380.509C277.42 379.67 274.962 381.573 273.699 380.835C271.907 379.782 270.539 377.512 269.14 375.947C267.584 374.221 266.154 372.345 264.623 370.617C263.188 368.993 261.654 367.507 259.822 366.423C258.837 365.841 256.923 367.099 255.733 366.789C253.625 366.226 252.398 362.562 250.673 361.031C249.682 360.153 248.101 360.032 247.225 359.199C246.327 358.335 246.136 356.748 245.193 355.703C243.946 354.335 242.122 353.849 240.774 352.745C238.948 351.251 237.581 347.465 236.173 345.381C234.769 343.295 232.689 343.064 231.338 341.237C229.646 338.947 228.656 335.1 226.587 332.781C224.516 330.439 219.329 334.177 217.745 337.332C215.145 342.493 215.297 349.048 219.261 353.472C238.766 375.26 264.091 393.331 293.076 398.102C290.914 394.983 288.635 389.546 287.334 387.178ZM351.467 379.884C348.515 379.062 345.926 377.43 343.222 376.313C341.553 375.626 339.946 378.215 338.147 377.145C334.509 374.973 331.379 371.861 328.483 369.547C326.187 367.709 321.582 363.099 319.603 364.028C318.824 364.374 317.704 368.657 315.824 367.248C311.29 363.851 308.346 360.197 304.117 356.492C302.178 354.805 300.331 360.381 297.872 359.199C292.215 356.449 289.938 350.319 285.587 345.975C280.51 340.92 275.655 335.063 268.67 333.211C267.51 332.907 268.15 334.599 267.062 335.449C261.727 339.614 255.854 332.499 250.672 330.124C245.919 327.929 241.737 324.445 236.389 324.081C235.255 323.997 235.306 325.709 235.737 326.217C266.199 362.253 308.467 389.287 354.893 388.197C355.97 388.173 358.168 388.293 356.362 386.056C354.918 384.283 353.298 380.393 351.467 379.884ZM394.586 353.635C393.23 353.435 391.124 355.267 389.948 355.045C386.348 354.369 383.5 351.136 379.132 348.829C377.331 347.88 376.394 352.137 374.982 352.048C367.74 351.634 357.276 343.957 350.812 340.084C349.666 339.392 342.758 340.77 341.612 341.001C337.455 341.837 332.167 334.56 328.9 333.025C326.423 331.872 322.975 330.65 320.626 332.409C317.437 334.781 313.649 333.509 310.156 333.462C308.802 333.433 307.606 336.316 305.926 336.845C301.164 338.373 295.893 335.061 291.218 337.393C291.083 337.457 290.445 338.435 290.481 338.773C290.802 341.702 294.075 342.195 296.234 343.512C329.71 364.746 381.406 371.621 410.211 365.179C410.864 364.977 409.846 362.514 407.903 361.031C405.894 359.489 402.933 358.909 401.683 358.033C398.776 355.996 397.226 354.032 394.586 353.635ZM461.975 322.733C458.431 323.783 455.691 321.185 452.747 322.309C452.071 322.573 451.61 323.688 451.047 323.693C445.497 323.803 441.799 317.831 436.148 318.281C434.75 318.391 434.777 320.865 433.587 321.146C430.106 321.962 427.019 317.749 423.88 319.261C421.643 320.355 420.066 320.273 417.923 319.644C415.142 318.828 413.076 316.356 410.391 315.932C408.018 315.56 405.686 317.913 403.009 317.133C396.35 315.194 391.186 308.865 384.038 310.381C380.509 311.127 377.474 308.713 375.038 310.173C372.364 311.757 371.604 313.685 368.894 315.296C367.059 316.41 362.762 316.269 360.839 317.434C359.384 318.326 359.013 320.572 357.347 321.261C354.22 322.553 350.519 321.636 347.59 323.293C347.246 323.485 347.052 325.121 348.307 325.472C375.603 334.723 419.783 344.902 472.554 331.208C474.181 330.712 474.519 329.738 473.195 328.21C470.297 324.858 466.315 321.442 461.975 322.733ZM525.128 276.483C520.465 278.653 515.064 276.243 509.895 277.471C508.543 277.791 509.579 279.717 508.228 279.905C503.16 280.623 497.903 279.328 493.152 281.183C489.437 282.626 484.979 280.986 480.89 281.09C479.334 281.132 479.298 283.218 479.058 284.909C478.839 286.341 476.674 287.2 476.035 287.011C470.97 285.505 466.115 284.96 460.979 284.205C448.081 282.301 435.312 278.2 423.185 281.821C419.228 283.009 413.982 284 410.951 287.079C409.786 288.272 408.545 290.625 406.995 291.191C399.573 293.889 391.49 294.391 384.094 297.025C381.859 297.813 377.602 300.948 379.194 301.359C379.194 301.359 402.013 307.983 426.909 307.983C474.823 307.983 511.349 296.194 538.069 281.617C536.535 279.681 528.661 274.84 525.128 276.483ZM577.706 224.007C574.767 224.975 570.757 222.201 568.244 224.055C564.492 226.821 560.085 226.32 556.232 225.924C554.395 225.729 551.512 225.082 549.886 226.354C548.834 227.181 550.345 228.507 551.33 229.396C541.632 232.734 530.935 229.59 521.738 233.325C521.048 233.605 520.634 236.98 518.935 237.319C510.491 239.025 502.591 235.709 494.219 237.243C492.091 237.637 493.035 242.142 490.808 242.249C483.291 242.617 475.968 241.985 468.459 241.673C459.527 241.301 451.298 244.541 442.869 247.124C440.361 247.878 439.61 251.863 436.911 252.271C429.624 253.383 422.209 252.108 415.564 255.389C415.116 255.609 415.086 257.844 415.575 258.108C423.719 262.709 433.052 265.887 438.619 273.328C495.291 272.732 556.271 265.324 603.457 226.636C604.388 225.881 598.8 224.716 595.791 224.018C592.858 223.337 590.444 223.337 586.887 222.175C583.723 221.131 580.801 222.994 577.706 224.007ZM636.548 170.707C635.972 170.36 627.396 168.816 622.653 169.93C621.637 170.169 621.038 171.824 620.087 171.978C613.963 172.96 609.648 175.885 603.428 176.076C602.128 176.107 599.331 177.033 597.656 177.829C595.399 178.919 592.307 176.271 590.544 178.246C589.408 179.521 591.389 182.583 589.326 183.556C583.908 186.107 577.576 181.531 572.271 184.989C570.727 185.988 573.904 189.371 571.911 190.001C564.284 192.385 551.096 180.545 546.103 192.838C545.327 194.769 542.938 193.896 541.446 193.508C540.002 193.134 537.962 192.467 537.103 193.181C532.431 196.984 529.685 198.501 523.114 196.657C521.453 196.179 521.423 201.121 518.194 200.336C514.502 199.447 510.953 196.784 507.578 198.292C506.008 198.993 507.165 203.099 504.879 203.322C495.694 204.197 486.227 202.874 477.763 206.634C475.675 207.566 475.481 211.32 472.557 211.802C466.117 212.868 459.693 212.116 453.675 214.069C452.699 214.382 452.927 217.25 454.416 217.467C458.275 218.04 462.659 217.441 465.619 219.206C469.253 221.376 471.555 227.491 475.129 227.635C547.907 229.042 600.483 202.961 636.548 172.882C637.975 171.644 637.235 171.129 636.548 170.707ZM618.708 128.016C617.616 128.512 617.962 132.114 615.882 133.08C612.299 134.728 608.224 134.68 604.396 135.843C602.947 136.292 603.028 138.218 601.819 138.972C599.784 140.269 597.029 139.192 595.543 140.289C586.349 147.027 575.42 144.004 565.21 145.692C565.371 153.387 553.224 148.688 548.246 152.036C542.808 155.68 543.531 154.684 535.44 154.76C532.927 154.788 534.283 158.498 532.26 158.54C525.81 158.656 517.474 156.609 512.664 158.008C511.8 158.259 511.519 162.325 509.807 162.784C506.298 163.724 502.614 164.104 499.251 165.168C496.647 165.992 500.051 170.912 496.563 172.018C490.639 173.892 484.115 172.524 478.14 175.91C475.796 177.25 472.357 175.986 469.312 176.546C466.723 177.01 465.732 179.73 467.848 180.925C469.763 182.004 472.959 181.722 474.845 182.653C479.221 184.812 482.851 187.936 487.555 188.232C564.439 192.962 663.886 138.312 679.551 72.1155C680.096 69.4515 678.875 69.9427 678.332 71.4275C661.652 111.147 618.708 128.016 618.708 128.016Z" fill="#C8102E"/>
</g>
<defs>
<clipPath id="clip0_2_14956">
<rect width="691.44" height="512" fill="white" transform="translate(0.380859 0.800781)"/>
</clipPath>
</defs>
</svg>
