<svg width="1025" height="186" viewBox="0 0 1025 186" fill="none" xmlns="http://www.w3.org/2000/svg">
<g clip-path="url(#clip0_861_219)">
<path d="M84.332 0.249268V162.583L121.089 174.229V38.1136C121.089 31.6996 123.948 27.441 128.535 28.9056C134.532 30.5689 135.698 36.4772 135.698 42.8198V97.1821C158.577 108.256 176.589 97.1763 176.589 67.9585C176.589 38.102 166.029 24.8013 134.955 14.1076C122.698 10.0265 99.9829 3.1398 84.332 0.249268Z" fill="black"/>
<path d="M128.08 150.498L187.113 129.486C193.792 127.011 194.812 123.647 189.408 121.88C183.918 120.08 174.12 120.595 167.37 123.018L128.08 136.879V114.764L130.329 114.021C130.329 114.021 141.702 109.992 157.699 108.257C173.664 106.507 193.244 108.485 208.632 114.285C225.968 119.792 227.911 127.825 223.525 133.415C219.075 138.947 208.287 142.949 208.287 142.949L128.08 171.762" fill="black"/>
<path d="M16.9854 148.261C-0.788052 143.31 -3.7519 132.847 4.35623 126.804C11.8353 121.285 24.5725 117.131 24.5725 117.131L77.2251 98.358V119.724L39.3705 133.293C32.6652 135.692 31.6599 139.066 37.0608 140.832C42.5582 142.669 52.3142 142.175 59.0233 139.699L77.2251 133.137V152.211C76.0519 152.408 74.7476 152.606 73.557 152.809C55.4092 155.821 36.0748 154.584 16.9854 148.261Z" fill="black"/>
<path d="M214.147 163.159C214.147 163.699 214.017 164.052 213.742 164.23C213.423 164.446 213.006 164.554 212.482 164.554H209.842V161.86H212.636C213.031 161.86 213.327 161.928 213.564 162.021C213.95 162.21 214.147 162.59 214.147 163.159ZM216.055 169.336C215.922 169.297 215.829 169.166 215.752 168.944C215.717 168.772 215.692 168.529 215.685 168.216L215.642 166.995C215.623 166.43 215.515 165.99 215.277 165.727C215.16 165.521 214.949 165.39 214.749 165.247C215.011 165.008 215.252 164.763 215.457 164.494C215.692 164.114 215.829 163.599 215.829 163.049C215.829 161.928 215.347 161.131 214.407 160.689C213.938 160.49 213.327 160.361 212.599 160.361H208.142V169.949H209.842V166.046H212.433C212.916 166.046 213.24 166.107 213.477 166.187C213.798 166.391 213.971 166.7 213.992 167.23L214.075 168.726C214.1 169.108 214.126 169.336 214.147 169.509L214.274 169.839L214.309 169.949H216.175V169.403M204.649 165.372C204.649 163.414 205.383 161.617 206.722 160.286C208.094 158.926 209.925 158.192 211.827 158.192C213.732 158.192 215.517 158.926 216.856 160.286C218.207 161.617 218.936 163.414 218.936 165.372C218.936 169.297 215.744 172.483 211.827 172.483C209.925 172.483 208.094 171.757 206.722 170.414C205.383 169.06 204.649 167.283 204.649 165.372ZM211.827 173.953C214.126 173.953 216.26 173.046 217.886 171.441C219.494 169.806 220.401 167.672 220.401 165.372C220.401 163.051 219.494 160.88 217.886 159.277C216.26 157.637 214.126 156.759 211.827 156.759C207.057 156.759 203.2 160.608 203.2 165.372C203.2 167.672 204.09 169.806 205.697 171.441C207.326 173.046 209.529 173.953 211.827 173.953Z" fill="black"/>
<path d="M345.224 42.852L300.835 42.8327C300.652 42.8327 300.505 42.9775 300.505 43.1453V146.961C300.505 147.127 300.652 147.283 300.835 147.283H318.825L319.141 146.961L319.163 54.4141L319.269 54.2598L339.867 54.2212C347.367 54.2212 351.487 61.7794 351.487 75.4756C351.487 89.1795 347.367 96.755 339.867 96.755L327.469 96.7415C327.284 96.7415 327.159 96.8824 327.159 97.0599V107.831C327.159 108.041 327.284 108.169 327.469 108.169H345.224C351.487 108.169 357.621 105.266 362.048 100.278C367.292 94.3585 370.053 85.8124 370.053 75.5701C370.053 55.7224 360.359 42.852 345.224 42.852Z" fill="black"/>
<path d="M399.476 42.8327H381.475C381.27 42.8327 381.124 42.9775 381.124 43.1453V146.961C381.124 147.129 381.27 147.283 381.475 147.283H399.476L399.806 146.961V43.1453L399.476 42.8327Z" fill="black"/>
<path d="M477.983 68.1026C477.983 67.9193 477.821 67.7804 477.643 67.7804H445.587C416.842 67.7804 413.168 88.8804 413.168 107.424L413.189 123.461C413.189 137.261 421.772 147.281 433.571 147.281H451.061L451.378 146.961V136.202C451.378 136.026 451.229 135.87 451.061 135.87L438.569 135.891C435.69 135.831 431.815 134.614 431.815 124.719V107.404C431.802 95.8983 432.873 88.5427 435.262 84.3574C437.849 79.738 441.923 79.1186 445.587 79.1186H459.25L459.366 79.2807L459.349 146.961C459.349 147.125 459.488 147.281 459.679 147.281H477.647C477.825 147.281 477.983 147.125 477.983 146.961" fill="black"/>
<path d="M607.472 86.2774L598.607 85.602C591.96 85.0289 587.016 81.3473 587.016 70.4548C587.016 57.7369 592.72 54.2578 600.334 54.2578H624.869L625.195 53.9414V43.1453L624.869 42.8347H624.356L597.775 42.8405C581.031 42.8405 569.123 52.6756 569.123 72.2763V73.1292C569.123 88.5948 578.64 99.7575 592.822 100.842L601.644 101.496C608.375 102.005 612.566 108.024 612.566 117.157V119.725C612.566 125.434 611.138 135.881 598.893 135.881H573.401C573.229 135.881 573.081 136.03 573.081 136.213V146.959L573.401 147.281H605.05C614.802 147.281 631.132 143.335 631.132 116.792C631.132 107.175 628.948 99.5954 624.52 94.1173C620.745 89.4129 615.153 86.8678 607.472 86.2774Z" fill="black"/>
<path d="M754.894 68.1026C754.894 67.9193 754.742 67.7804 754.572 67.7804H722.444C693.761 67.7804 690.048 88.8804 690.048 107.424L690.071 123.461C690.071 137.261 698.647 147.281 710.508 147.281H727.949L728.273 146.961V136.202C728.273 136.026 728.121 135.87 727.949 135.87L715.449 135.891C712.582 135.831 708.742 134.614 708.731 124.719V107.404C708.731 95.8983 709.813 88.5427 712.146 84.3574C714.735 79.738 718.836 79.1186 722.438 79.1186H736.164L736.299 79.2807L736.266 146.961C736.266 147.125 736.414 147.281 736.594 147.281H754.587C754.765 147.281 754.894 147.125 754.894 146.961" fill="black"/>
<path d="M682.575 67.7823H663.048L662.945 67.6627V54.5801C662.945 54.4064 662.812 54.2598 662.631 54.2598H644.647C644.464 54.2598 644.304 54.4064 644.304 54.5801V123.47C644.304 137.269 652.906 147.283 664.75 147.283H677.63C677.815 147.283 677.958 147.127 677.958 146.961V136.213C677.958 136.038 677.815 135.872 677.63 135.872H669.722C667.696 135.841 662.945 135.738 662.926 125.571V79.1939L663.036 79.0897C669.018 79.1206 682.575 79.0897 682.575 79.0897L682.892 78.7944V68.1045C682.892 67.9232 682.743 67.7823 682.575 67.7823Z" fill="black"/>
<path d="M808.166 67.7823H788.748L788.617 67.6627V54.5801L788.32 54.2598H770.3C770.122 54.2598 769.968 54.4064 769.968 54.5801V123.47C769.968 137.269 778.554 147.283 790.391 147.283H803.267C803.46 147.283 803.585 147.127 803.585 146.961V136.213C803.585 136.038 803.46 135.872 803.267 135.872H795.361C793.329 135.841 788.617 135.738 788.617 125.571V79.1939L788.725 79.0897C794.661 79.1206 808.166 79.0897 808.166 79.0897L808.486 78.7944V68.1045C808.486 67.9232 808.324 67.7823 808.166 67.7823Z" fill="black"/>
<path d="M837.903 67.7823H819.921C819.753 67.7823 819.593 67.9232 819.593 68.1045V146.961L819.921 147.283H837.903C838.099 147.283 838.235 147.127 838.235 146.961V68.1045C838.235 67.9232 838.099 67.7823 837.903 67.7823Z" fill="black"/>
<path d="M837.903 42.8322H819.921L819.593 43.1448V58.2207C819.593 58.404 819.753 58.5391 819.921 58.5391H837.903C838.099 58.5391 838.235 58.404 838.235 58.2207V43.1448C838.235 42.9769 838.099 42.8322 837.903 42.8322Z" fill="black"/>
<path d="M962.324 67.7823H930.229C930.062 67.7823 929.913 67.9232 929.913 68.1045L929.903 146.961L930.204 147.283H948.219L948.524 146.961L948.499 79.2614L948.624 79.1302L962.309 79.1206C966.01 79.1206 970.07 79.7168 972.667 83.9966C975.042 87.8635 976.119 94.6614 976.119 105.33C976.134 105.791 976.105 146.961 976.105 146.961C976.105 147.127 976.248 147.283 976.426 147.283H994.363C994.558 147.283 994.701 147.127 994.701 146.961V107.414C994.701 88.8804 990.998 67.7823 962.324 67.7823Z" fill="black"/>
<path d="M895.501 130.649C892.671 135.311 888.177 135.934 884.099 135.934C880.063 135.934 875.555 135.311 872.694 130.649C870.114 126.454 868.919 119.104 868.919 107.515V107.422C868.919 93.7456 870.602 85.9751 874.367 82.2742C876.618 80.0282 879.538 79.1174 884.099 79.1174C888.727 79.1174 891.617 80.0282 893.867 82.2742C897.599 85.9751 899.285 93.7784 899.285 107.515C899.285 119.12 898.087 126.475 895.501 130.649ZM884.099 67.7811C854.06 67.7811 850.22 88.9795 850.22 107.515C850.22 126.072 854.06 147.34 884.099 147.34C914.141 147.34 917.971 126.072 917.971 107.515C917.971 88.9795 914.141 67.7811 884.099 67.7811Z" fill="black"/>
<path d="M488.133 67.7821L487.924 68.0947L514.607 146.229C514.651 146.405 514.651 146.675 514.595 146.847L499.571 185.533C499.508 185.716 499.591 185.852 499.768 185.852H515.413C515.606 185.852 515.809 185.716 515.872 185.533L562.711 68.0947C562.777 67.9075 562.694 67.7821 562.511 67.7821H545.441C545.256 67.7821 545.061 67.9229 545.003 68.0947L525.173 119.439H524.951L507.444 68.0947C507.403 67.9075 507.203 67.7821 507.023 67.7821" fill="black"/>
<path d="M1017.83 136.508C1017.83 137.029 1017.69 137.369 1017.41 137.572C1017.1 137.792 1016.68 137.884 1016.17 137.884H1013.53V135.2H1016.32C1016.71 135.2 1017.01 135.262 1017.24 135.366C1017.62 135.553 1017.83 135.928 1017.83 136.508ZM1019.73 142.681C1019.6 142.633 1019.5 142.502 1019.42 142.284C1019.4 142.122 1019.37 141.855 1019.37 141.556L1019.33 140.35C1019.3 139.76 1019.2 139.318 1018.95 139.077C1018.83 138.864 1018.63 138.72 1018.43 138.571C1018.68 138.34 1018.93 138.102 1019.13 137.828C1019.37 137.448 1019.5 136.954 1019.5 136.404C1019.5 135.262 1019.02 134.471 1018.09 134.033C1017.6 133.836 1017.01 133.705 1016.28 133.705H1011.83V143.289H1013.53V139.38H1016.11C1016.59 139.38 1016.93 139.447 1017.15 139.524C1017.47 139.729 1017.64 140.043 1017.67 140.568L1017.76 142.071C1017.78 142.442 1017.8 142.681 1017.83 142.832L1017.94 143.173L1017.98 143.289H1019.85V142.733M1008.33 138.712C1008.33 136.748 1009.06 134.965 1010.41 133.614C1011.78 132.269 1013.61 131.532 1015.5 131.532C1017.41 131.532 1019.19 132.269 1020.53 133.614C1021.88 134.965 1022.62 136.748 1022.62 138.712C1022.62 142.637 1019.42 145.824 1015.5 145.824C1013.61 145.824 1011.78 145.097 1010.41 143.754C1009.06 142.409 1008.33 140.618 1008.33 138.712ZM1015.5 147.283C1017.8 147.283 1019.95 146.376 1021.58 144.782C1023.17 143.156 1024.07 141.002 1024.07 138.712C1024.07 136.391 1023.17 134.216 1021.58 132.613C1019.95 130.982 1017.8 130.098 1015.5 130.098C1010.75 130.098 1006.89 133.942 1006.89 138.712C1006.89 141.002 1007.77 143.156 1009.39 144.782C1011.01 146.376 1013.21 147.283 1015.5 147.283Z" fill="black"/>
</g>
<defs>
<clipPath id="clip0_861_219">
<rect width="1024" height="185.601" fill="white" transform="translate(0.0712891 0.25)"/>
</clipPath>
</defs>
</svg>
