<svg width="1025" height="494" viewBox="0 0 1025 494" fill="none" xmlns="http://www.w3.org/2000/svg">
<g clip-path="url(#clip0_879_3651)">
<path d="M1011.53 60.2603C882.674 90.6438 877.046 16.1355 683.26 2.47345C422.416 -15.9188 203.224 97.5476 28.0555 112.087C-9.99982 115.247 -5.06427 146.869 22.2835 152.237C88.3048 167.621 156.431 165.665 218.786 157.318C216.691 162.334 214.588 170.064 221.554 175.988C246.249 196.948 345.525 198.742 389.108 196.237C403.906 195.394 435.496 192.414 435.496 192.414C426.488 193.268 412.41 220.68 442.176 228.399C626.128 279.821 712.675 362.859 812.032 493.637C852.406 488.485 890.425 439.979 874.215 402.953L882.27 383.08L912.01 369.328L903.486 303.005L948.822 281.686C948.822 281.686 1019.43 92.2227 1023.56 78.4258C1027.7 64.6289 1019.14 58.4632 1011.53 60.2581" fill="#FFFFFE"/>
<path d="M501.105 86.3353C373.564 93.8574 220.538 165.826 25.6895 133.746C198.387 110.472 330.044 53.4381 490.631 30.7285L501.103 86.3353H501.105ZM514.851 160.745C444.307 169.048 362.462 188.741 244.388 166.526C346.162 163.762 422.335 129.752 506.184 113.039L514.851 160.747V160.745Z" fill="#C60C30"/>
<path d="M522.383 159.956C574.084 154.409 619.682 156.167 669.387 186.426C565.723 175.197 514.966 204.108 450.354 210.535C678.618 270.342 762.189 398.142 818.79 468.962C858.356 452.176 860.495 417.852 850.417 405.6L860.602 383.797L861.071 369.795L888.346 357.057L879.716 289.209L930.787 268.322L998.453 83.381C883.804 107.132 846.658 33.1077 683.545 23.0098C617.1 18.8894 557.264 21.9423 501.086 29.3017L510.246 85.9141C547.788 84.6219 583.129 89.3884 616.661 104.621C579.794 102.34 546.62 105.393 514.258 111.388L522.383 159.956Z" fill="#002244"/>
<path d="M698.48 316.013C760.178 359.151 791.868 406.947 824.025 448.785C840.379 441.999 845.511 423.05 840.126 416.354L824.556 397.217L842.266 398.259L850.393 384.159L828.377 382.858L803.573 387.327L828.728 370.129L847.877 371.25L848.588 360.362L829.025 351.009L835.749 343.667L871.935 345.919L861.533 265.459C847.229 263.718 835.201 271.204 830.005 291.857L765.862 288.088C774.888 267.659 788.948 258.468 815.63 261.861C800.661 240.929 727.717 238.991 717.416 271.833L774.043 318.167L781.37 360.516L758.105 326.802C737.186 308.715 715.214 296.042 698.484 316.013" fill="#B0B7BC"/>
<path d="M888.275 108.514L892.832 148.924L938.395 165.997L895.656 176.687L899.873 231.171L862.915 185.133L807.653 198.13L841.797 158.421L813.641 121.17L860.81 137.335L888.275 108.514Z" fill="#FFFFFE"/>
</g>
<defs>
<clipPath id="clip0_879_3651">
<rect width="1024" height="493.174" fill="white" transform="translate(0.642334 0.462891)"/>
</clipPath>
</defs>
</svg>
