<svg width="486" height="513" viewBox="0 0 486 513" fill="none" xmlns="http://www.w3.org/2000/svg">
<g clip-path="url(#clip0_795_5041)">
<path d="M243.359 0.574707C160.769 0.574707 69.6396 24.9805 0.801758 63.8927C8.0134 312.099 142.618 443.551 243.359 512.575C344.108 443.551 478.703 312.099 485.915 63.8927C417.078 24.9805 325.941 0.574707 243.359 0.574707Z" fill="#1456A2"/>
<path d="M243.359 29.6733C219.322 29.6733 194.272 31.9489 169.176 36.1701C180.77 176.715 240.495 291.607 347.035 378.417C413.015 295.974 449.594 196.427 456.056 80.8909C392.688 48.7654 313.697 29.6733 243.359 29.6733Z" fill="white"/>
<path d="M243.359 19.6379C317.717 19.6379 400.632 40.2601 466.415 74.9624C458.344 249.829 383.314 389.173 243.359 489.296C103.397 389.173 28.3795 249.829 20.3022 74.9624C86.0839 40.2601 168.995 19.6379 243.359 19.6379ZM243.359 10.6099C165.294 10.6099 78.9618 32.626 11.042 69.6835C17.952 252.363 96.0794 397.189 243.359 500.366C390.639 397.189 468.755 252.354 475.676 69.6835C407.759 32.626 321.404 10.6099 243.359 10.6099Z" fill="white"/>
<path d="M218.191 141.137C219.337 141.166 220.477 140.957 221.538 140.523C222.676 139.924 223.246 138.786 223.246 137.11V109.234C223.246 107.542 222.71 106.404 221.64 105.82C221.003 105.462 219.847 105.251 218.18 105.143V103.681H235.996C238.887 103.604 241.772 104.004 244.533 104.864C248.814 106.344 250.954 109.044 250.954 112.965C251.038 115.17 250.066 117.283 248.336 118.654C246.711 119.994 244.775 120.904 242.706 121.3V121.835C244.675 122.186 246.562 122.892 248.279 123.917C251.352 125.813 252.891 128.468 252.895 131.881C252.895 135.071 251.421 137.659 248.472 139.647C245.524 141.634 241.602 142.618 236.707 142.599H218.191L218.191 141.137ZM239.638 119.394C240.856 118.233 241.465 116.17 241.465 113.204C241.526 111.286 241.112 109.383 240.258 107.663C239.467 106.162 237.936 105.388 235.671 105.388C234.464 105.388 233.633 105.598 233.16 106.008C232.688 106.417 232.46 107.146 232.46 108.175V121.112C236.023 121.112 238.416 120.532 239.638 119.371L239.638 119.394ZM232.91 139.504C233.377 140.335 234.276 140.744 235.614 140.744C238.334 140.744 240.232 140.003 241.306 138.52C242.379 137.037 242.931 134.928 242.962 132.194C242.962 128.102 241.751 125.382 239.33 124.036C237.866 123.209 235.568 122.83 232.438 122.898V137.302C232.398 138.068 232.553 138.831 232.887 139.521L232.91 139.504Z" fill="#1456A2"/>
<path d="M260.564 119.368C262.932 116.734 266.333 115.264 269.876 115.346C273.454 115.25 276.885 116.767 279.222 119.476C281.658 122.212 282.964 125.77 282.876 129.432C282.952 133.075 281.67 136.615 279.279 139.365C276.933 142.096 273.475 143.616 269.876 143.501C266.332 143.59 262.927 142.12 260.563 139.479C258.085 136.73 256.762 133.131 256.869 129.432C256.869 125.419 258.101 122.072 260.563 119.391L260.564 119.368ZM265.965 137.88C266.618 140.371 267.922 141.617 269.876 141.617C271.735 141.617 272.955 140.669 273.536 138.773C274.116 136.877 274.407 133.763 274.407 129.431C274.407 125.142 274.097 122.04 273.479 120.124C272.86 118.209 271.669 117.242 269.904 117.223C267.954 117.223 266.651 118.471 265.994 120.966C265.561 122.633 265.345 125.461 265.345 129.431C265.345 133.402 265.55 136.258 265.966 137.902L265.965 137.88Z" fill="#1456A2"/>
<path d="M307.024 117.108C308.803 118.291 309.695 119.808 309.699 121.659C309.707 122.631 309.319 123.563 308.623 124.242C307.401 125.423 305.545 125.655 304.07 124.811C303.034 124.215 302.516 123.129 302.516 121.551C302.516 121.38 302.527 121.136 302.55 120.817V119.748C302.55 118.735 302.316 118.041 301.85 117.666C301.375 117.295 300.79 117.095 300.188 117.097C298.406 117.097 297.137 118.081 296.391 120.055C295.601 122.205 295.215 124.483 295.253 126.773C295.253 130.376 295.964 133.397 297.387 135.836C298.81 138.275 300.734 139.492 303.159 139.488C304.523 139.531 305.871 139.179 307.041 138.476C307.924 137.866 308.721 137.138 309.408 136.314L310.479 137.298C308.86 139.697 306.569 141.565 303.893 142.668C302.534 143.18 301.093 143.439 299.641 143.431C296.176 143.528 292.85 142.067 290.58 139.448C288.226 136.785 286.969 133.329 287.062 129.777C286.966 126.019 288.291 122.362 290.773 119.537C293.27 116.704 296.592 115.287 300.74 115.287C302.957 115.235 305.139 115.852 307.001 117.056L307.024 117.108Z" fill="#1456A2"/>
<path d="M313.026 141.225C313.863 141.178 314.667 140.886 315.337 140.383C315.844 139.934 316.094 139.052 316.094 137.738V108.4C316.094 107.263 315.889 106.46 315.474 106.005C315.058 105.55 314.244 105.232 313.026 105.078V103.673H324.171V119.875C325.214 118.575 326.471 117.461 327.888 116.581C329.225 115.789 330.756 115.382 332.31 115.404C334.319 115.332 336.28 116.026 337.797 117.344C339.243 118.618 339.964 120.802 339.96 123.897V137.738C339.96 139.031 340.177 139.885 340.609 140.298C341.265 140.783 342.028 141.102 342.835 141.225V142.602H329.299V141.225C330.062 141.132 330.788 140.842 331.405 140.383C331.785 140.027 331.974 139.219 331.974 137.96V124.028C332.021 123.028 331.888 122.029 331.582 121.076C331.204 119.94 330.1 119.208 328.907 119.301C327.743 119.374 326.644 119.862 325.81 120.677C324.763 121.599 324.234 122.225 324.234 122.566V137.977C324.234 139.233 324.423 140.041 324.803 140.401C325.422 140.859 326.15 141.149 326.914 141.243V142.62H313.026V141.243L313.026 141.225Z" fill="#1456A2"/>
<path d="M354.975 116.058V135.611C354.92 136.485 355.064 137.36 355.396 138.171C355.882 139.127 356.848 139.604 358.293 139.604C359.261 139.589 360.202 139.286 360.997 138.734C361.686 138.264 362.327 137.727 362.91 137.13V120.797C362.91 119.597 362.665 118.766 362.175 118.294C361.686 117.822 360.752 117.537 359.329 117.48V116.058H370.776V136.794C370.776 137.994 371.004 138.825 371.453 139.297C371.903 139.769 372.785 140.031 374.1 140.139V141.465C370.537 141.799 368.285 142.051 367.344 142.221C365.84 142.526 364.355 142.921 362.898 143.405V139.604C361.849 140.554 360.705 141.393 359.483 142.108C357.978 142.953 356.281 143.4 354.554 143.405C352.684 143.4 350.866 142.787 349.375 141.658C347.775 140.481 346.978 138.376 346.978 135.361V120.797C346.978 119.579 346.785 118.783 346.409 118.407C345.74 117.912 344.957 117.593 344.132 117.48V116.058L354.975 116.058Z" fill="#1456A2"/>
<path d="M377.609 141.225C378.377 141.191 379.122 140.958 379.772 140.548C380.415 140.048 380.728 139.109 380.728 137.738V120.802C380.728 119.602 380.518 118.788 380.085 118.356C379.652 117.924 378.827 117.634 377.609 117.486V116.063H388.526V120.199C389.327 119.109 390.264 118.127 391.315 117.275C392.911 116.044 394.872 115.381 396.888 115.392C399.191 115.392 400.982 115.936 402.261 117.025C403.143 117.883 403.834 118.918 404.287 120.063H404.685C405.577 118.917 406.627 117.904 407.805 117.053C409.303 115.97 411.106 115.389 412.956 115.392C414.916 115.37 416.817 116.059 418.306 117.332C419.862 118.625 420.64 120.67 420.64 123.465V137.949C420.64 139.284 420.856 140.137 421.289 140.509C421.968 140.95 422.756 141.194 423.566 141.215V142.591H409.905V141.215C410.692 141.163 411.45 140.902 412.102 140.458C412.517 140.082 412.722 139.246 412.722 137.949V124.028C412.783 122.828 412.551 121.631 412.045 120.541C411.612 119.716 410.781 119.3 409.541 119.3C408.361 119.378 407.246 119.865 406.387 120.677C405.3 121.582 404.754 122.208 404.754 122.566V137.977C404.754 139.233 404.943 140.04 405.323 140.401C405.942 140.859 406.67 141.149 407.435 141.243V142.619H393.927V141.243C394.7 141.197 395.447 140.946 396.09 140.515C396.523 140.139 396.739 139.291 396.739 137.977V124.028C396.793 122.843 396.581 121.661 396.119 120.569C395.709 119.723 394.855 119.3 393.557 119.3C392.31 119.33 391.126 119.857 390.268 120.762C389.254 121.718 388.748 122.321 388.748 122.566V137.977C388.748 139.234 388.924 140.042 389.283 140.401C389.897 140.868 390.627 141.159 391.395 141.243V142.619H377.608V141.243L377.609 141.225Z" fill="#1456A2"/>
<path d="M266.328 211.493C269.334 211.493 271.259 211.087 272.106 210.276C272.954 209.451 273.381 207.886 273.381 205.599V182.81C273.455 181.742 273.276 180.672 272.857 179.687C272.476 179.042 271.752 178.681 271.007 178.765C270.246 178.825 269.497 178.989 268.782 179.254C268.148 179.448 267.283 179.755 266.186 180.176V178.674L281.122 172.234H282.163V205.941C282.163 208.099 282.51 209.561 283.205 210.327C283.899 211.093 285.671 211.473 288.521 211.465V212.876H266.322V211.465L266.328 211.493Z" fill="#1456A2"/>
<path d="M307.809 185.178C308.306 183.949 308.542 182.629 308.503 181.304C308.577 179.478 308.168 177.666 307.32 176.047C306.526 174.663 305.159 173.971 303.216 173.971C301.933 173.93 300.693 174.432 299.801 175.353C298.91 176.286 298.43 177.535 298.469 178.824C298.469 181.02 299.577 183.105 301.793 185.081C303.092 186.236 304.553 187.194 306.13 187.926C306.8 187.079 307.373 186.159 307.837 185.184L307.809 185.178ZM298.042 208.081C298.987 210.569 300.664 211.811 303.074 211.808C304.42 211.818 305.709 211.263 306.625 210.277C307.646 209.257 308.157 207.551 308.157 205.157C308.21 202.927 307.398 200.762 305.891 199.116C304.946 198.08 303.078 196.656 300.285 194.843C299.43 196.079 298.694 197.394 298.088 198.769C297.517 200.312 297.243 201.948 297.279 203.593C297.257 205.121 297.522 206.639 298.059 208.07L298.042 208.081ZM293.369 196.584C294.903 195.42 296.64 194.55 298.492 194.019V193.45C298.033 193.336 297.118 192.72 295.748 191.601C294.611 190.703 293.591 189.665 292.714 188.512C292.019 187.597 291.482 186.572 291.126 185.48C290.869 184.519 290.741 183.528 290.745 182.533C290.745 179.666 291.978 177.229 294.445 175.223C296.911 173.216 300.137 172.215 304.121 172.219C307.821 172.219 310.653 173.057 312.619 174.733C314.584 176.41 315.577 178.374 315.596 180.627C315.599 182.949 314.466 185.127 312.562 186.458C311.154 187.477 309.594 188.268 307.94 188.802V189.206C310.752 191.227 312.678 192.873 313.717 194.144C315.476 196.258 316.419 198.932 316.375 201.682C316.375 205.474 315.066 208.431 312.448 210.551C309.83 212.671 306.487 213.731 302.419 213.731C299.428 213.74 296.501 212.865 294.006 211.216C291.43 209.521 290.14 207.027 290.136 203.736C290.136 200.702 291.213 198.312 293.369 196.568L293.369 196.584Z" fill="#1456A2"/>
<path d="M334.107 197.864V181.024H333.703L322.142 197.311V197.88L334.107 197.864ZM319.797 196.845C319.972 196.58 320.503 195.821 321.391 194.57L327.544 185.82L335.513 175.329L337.909 172.24H342.622V197.84H346.299V204.422H342.605V212.888H334.067V204.445H319.325V197.721C319.464 197.418 319.628 197.127 319.814 196.85L319.797 196.845Z" fill="#1456A2"/>
<path d="M366.999 185.178C367.493 183.948 367.73 182.629 367.693 181.304C367.766 179.478 367.358 177.666 366.509 176.047C365.718 174.665 364.346 173.971 362.405 173.971C361.123 173.93 359.883 174.432 358.99 175.353C358.1 176.286 357.62 177.535 357.658 178.824C357.658 181.02 358.766 183.105 360.982 185.081C362.281 186.234 363.74 187.192 365.314 187.926C365.986 187.08 366.558 186.16 367.021 185.184L366.999 185.178ZM357.232 208.081C358.176 210.569 359.852 211.811 362.258 211.808C363.606 211.819 364.897 211.264 365.815 210.277C366.836 209.257 367.346 207.55 367.346 205.157C367.401 202.927 366.591 200.763 365.086 199.116C364.142 198.08 362.273 196.656 359.48 194.843C358.623 196.078 357.887 197.392 357.283 198.769C356.712 200.312 356.438 201.948 356.475 203.593C356.45 205.121 356.714 206.64 357.254 208.07L357.232 208.081ZM352.564 196.584C354.099 195.42 355.836 194.55 357.687 194.019V193.45C357.228 193.336 356.313 192.72 354.943 191.601C353.806 190.701 352.785 189.664 351.904 188.512C351.212 187.595 350.676 186.57 350.316 185.48C350.063 184.518 349.937 183.527 349.94 182.533C349.94 179.666 351.174 177.229 353.64 175.223C356.107 173.216 359.332 172.215 363.316 172.219C367.016 172.219 369.849 173.057 371.814 174.733C373.78 176.41 374.772 178.374 374.791 180.627C374.794 182.949 373.661 185.127 371.757 186.458C370.348 187.478 368.786 188.269 367.13 188.802V189.206C369.945 191.227 371.873 192.873 372.913 194.144C374.669 196.259 375.612 198.933 375.571 201.682C375.571 205.474 374.262 208.431 371.643 210.551C369.025 212.671 365.682 213.731 361.614 213.731C358.623 213.74 355.697 212.865 353.202 211.216C350.617 209.521 349.327 207.027 349.331 203.736C349.331 200.702 350.409 198.312 352.564 196.568L352.564 196.584Z" fill="#1456A2"/>
<path d="M97.9322 97.2903H37.0859V99.691C37.0859 99.691 37.2169 100.891 38.9529 101.022C40.6889 101.153 47.3883 102.558 50.3193 109.095C53.2507 115.631 100.226 221.735 100.226 221.735C100.922 221.924 101.64 222.014 102.361 222.003C102.998 222.053 103.635 221.915 104.194 221.605L147.247 113.916C147.247 113.916 150.542 107.385 153.616 103.876C156.149 100.974 158.414 101.316 160.15 100.918C161.886 100.519 162.285 99.6432 162.285 98.9776V97.288H124.718V98.6647C124.821 99.6477 125.565 100.443 126.539 100.61C129.75 100.747 138.373 101.128 139.887 106.362C141.355 111.431 137.223 120.061 137.223 120.061L112.566 180.801L83.2975 114.155C83.2975 114.155 80.4971 107.328 82.8934 104.022C85.2897 100.717 90.4636 100.859 92.9966 100.99C95.5295 101.121 97.1289 100.194 97.5502 99.6591C97.9714 99.1243 97.9486 97.2583 97.9486 97.2583L97.9322 97.2903Z" fill="white"/>
<path d="M250.2 303.221H188.232C188.232 303.221 188.232 306.487 190.879 306.748C192.159 306.879 202.234 308.142 202.831 313.006C202.962 314.053 203.224 400.963 203.224 400.963C203.224 400.963 203.446 414.912 200.998 417.137C198.847 419.088 191.22 421.119 189.398 421.608C189.163 421.677 188.998 421.887 188.988 422.132L188.897 424.123C188.897 424.437 189.152 424.692 189.466 424.692H291.717L298.991 385.296C299.024 385.115 298.968 384.93 298.841 384.798C298.713 384.666 298.53 384.603 298.348 384.63L295.069 385.142C294.855 385.176 294.679 385.328 294.614 385.535C293.942 387.873 289.406 401.39 280.225 409.082C271.237 416.608 265.71 418.303 260.121 419.242C254.799 420.135 246.427 420.676 241.849 419.629C238.497 418.867 234.689 416.113 233.482 414.663C232.828 413.883 232.959 404.69 232.959 404.69V320.494C232.959 320.494 232.959 312.529 235.708 310.333C238.457 308.137 244.246 306.92 247.211 306.8C250.177 306.681 250.182 303.751 250.182 303.751V303.222L250.2 303.221Z" fill="white"/>
<path d="M174.088 227.374V220.695C174.088 220.381 173.833 220.126 173.519 220.126H163.473V194.566C163.473 188.257 167.275 184.895 170.685 183.916C172.489 183.404 175.449 183.791 176.735 184.69C178.346 185.828 177.766 187.006 177.122 188.166C176.479 189.327 174.163 190.322 173.906 197.268C173.65 204.214 178.027 206.023 184.556 206.154C191.085 206.285 193.703 201.387 193.959 198.19C194.187 194.463 193.324 190.751 191.478 187.506C191.465 187.47 191.45 187.436 191.432 187.403C191.358 187.272 191.267 187.159 191.193 187.033C191.119 186.908 191.017 186.755 190.92 186.612C186.645 180.11 177.214 178.614 171.453 178.381C170.315 178.335 168.34 178.381 168.22 178.381C167.805 178.381 167.389 178.415 166.973 178.449C161.851 178.824 156.728 180.514 150.899 184.013C139.566 190.839 139.731 205.346 139.731 205.346L139.857 220.138H131.171C130.856 220.138 130.602 220.393 130.602 220.707V227.386C130.602 227.7 130.856 227.955 131.171 227.955H139.839V378.616C147.322 387.976 155.2 397.116 163.472 406.036V227.974H173.518C173.674 227.974 173.823 227.91 173.931 227.797C174.038 227.684 174.096 227.53 174.088 227.374Z" fill="white"/>
</g>
<defs>
<clipPath id="clip0_795_5041">
<rect width="485.114" height="512" fill="white" transform="translate(0.801758 0.574707)"/>
</clipPath>
</defs>
</svg>
