<svg width="1024" height="206" viewBox="0 0 1024 206" fill="none" xmlns="http://www.w3.org/2000/svg">
<g clip-path="url(#clip0_779_131)">
<path d="M268.588 118.401C268.588 126.336 262.96 130.955 253.741 130.955H235.303V105.255H253.262C262.362 105.255 268.588 110.229 268.588 118.401ZM266.432 82.5156C266.432 90.0955 261.045 94.2404 252.185 94.2404H235.303V70.6725H252.185C261.045 70.6725 266.432 75.054 266.432 82.5156ZM282.236 119.822C282.236 109.992 275.053 101.228 266.193 99.6886C274.215 96.8459 280.321 90.806 280.321 80.8573C280.321 69.2514 270.982 59.6582 253.382 59.6582H221.654V141.969H254.938C271.94 141.969 282.236 132.376 282.236 119.822Z" fill="#20964F"/>
<path d="M291.322 109.044C291.322 129.178 305.091 143.035 322.212 143.035C333.227 143.035 341.129 137.824 345.32 132.257V141.969H359.088V76.7121H345.32V86.1869C341.249 80.857 333.586 75.646 322.451 75.646C305.091 75.646 291.322 88.9108 291.322 109.044ZM345.32 109.281C345.32 123.375 335.621 131.31 325.325 131.31C315.148 131.31 305.33 123.138 305.33 109.044C305.33 94.9507 315.148 87.3714 325.325 87.3714C335.621 87.3714 345.32 95.3062 345.32 109.281Z" fill="#20964F"/>
<path d="M422.632 141.969H436.162V103.478C436.162 85.2392 424.548 75.646 409.103 75.646C401.2 75.646 393.897 78.8437 389.467 84.1736V76.7121H375.818V141.969H389.467V105.492C389.467 93.5296 396.053 87.3714 406.109 87.3714C416.047 87.3714 422.632 93.5296 422.632 105.492V141.969Z" fill="#20964F"/>
<path d="M452.374 141.969H466.023V113.9L490.448 141.969H508.886L478.475 109.4L508.886 76.712H489.968L466.023 105.254V54.3281H452.374V141.969Z" fill="#20964F"/>
<path d="M517.472 141.969H531.121V76.7122H517.472V141.969ZM524.416 68.0668C529.205 68.0668 533.037 64.2769 533.037 59.4209C533.037 54.5653 529.205 50.7754 524.416 50.7754C519.507 50.7754 515.676 54.5653 515.676 59.4209C515.676 64.2769 519.507 68.0668 524.416 68.0668Z" fill="#20964F"/>
<path d="M594.659 141.969H608.188V103.478C608.188 85.2392 596.571 75.646 581.126 75.646C573.224 75.646 565.922 78.8437 561.492 84.1736V76.7121H547.843V141.969H561.492V105.492C561.492 93.5296 568.077 87.3714 578.133 87.3714C588.072 87.3714 594.659 93.5296 594.659 105.492V141.969Z" fill="#20964F"/>
<path d="M619.85 109.044C619.85 129.178 633.617 143.035 650.98 143.035C661.754 143.035 669.656 137.705 673.849 132.139V143.035C673.849 156.062 665.947 162.458 655.411 162.458C645.951 162.458 638.646 157.839 636.61 151.088H623.081C624.76 165.537 637.81 174.183 655.411 174.183C675.999 174.183 687.616 160.8 687.616 143.035V76.7121H673.849V86.1869C669.776 80.6204 661.754 75.646 650.98 75.646C633.617 75.646 619.85 88.9108 619.85 109.044ZM673.849 109.281C673.849 123.375 664.149 131.31 653.853 131.31C643.675 131.31 633.856 123.138 633.856 109.044C633.856 94.9507 643.675 87.3714 653.853 87.3714C664.149 87.3714 673.849 95.3062 673.849 109.281Z" fill="#20964F"/>
<path d="M748.527 84.2922C748.527 92.4638 743.737 98.267 733.082 98.267H717.995V70.6725H733.082C743.737 70.6725 748.527 76.0018 748.527 84.2922ZM704.347 59.6582V141.969H717.995V109.045H728.411L747.566 141.969H763.853L743.259 107.86C757.265 104.426 762.533 94.0037 762.533 84.2922C762.533 70.9091 752.834 59.6582 733.082 59.6582H704.347Z" fill="#20964F"/>
<path d="M774.247 109.044C774.247 129.178 788.014 143.035 805.137 143.035C816.151 143.035 824.053 137.824 828.245 132.257V141.969H842.013V76.7121H828.245V86.1869C824.172 80.857 816.509 75.646 805.376 75.646C788.014 75.646 774.247 88.9108 774.247 109.044ZM828.245 109.281C828.245 123.375 818.546 131.31 808.249 131.31C798.072 131.31 788.258 123.138 788.258 109.044C788.258 94.9507 798.072 87.3714 808.249 87.3714C818.546 87.3714 828.245 95.3062 828.245 109.281Z" fill="#20964F"/>
<path d="M860.9 123.849C860.9 137.113 868.204 141.969 879.935 141.969H890.709V130.718H882.33C876.584 130.718 874.667 128.705 874.667 123.849V87.7264H890.709V76.7121H874.667V60.4868H860.9V76.7121H853.117V87.7264H860.9V123.849Z" fill="#20964F"/>
<path d="M929.871 87.0158C940.049 87.0158 948.07 93.4113 948.309 103.478H911.792C913.226 93.1746 920.65 87.0158 929.871 87.0158ZM960.762 122.546H946.034C943.519 127.638 938.849 131.665 930.469 131.665C920.411 131.665 912.628 125.151 911.673 114.374H962.076C962.435 112.124 962.554 109.992 962.554 107.742C962.554 88.5552 949.265 75.646 930.469 75.646C910.956 75.646 897.542 88.7925 897.542 109.281C897.542 129.77 911.553 143.035 930.469 143.035C946.631 143.035 957.047 133.916 960.762 122.546Z" fill="#20964F"/>
<path d="M1024 123.73C1023.28 100.162 986.044 107.505 986.044 94.3585C986.044 89.9769 989.878 87.0158 997.182 87.0158C1004.6 87.0158 1009.03 90.9241 1009.51 96.609H1023.16C1022.44 83.5814 1012.63 75.646 997.66 75.646C982.095 75.646 972.276 84.0547 972.276 94.4774C972.276 118.401 1010.59 111.058 1010.59 123.849C1010.59 128.349 1006.4 131.665 998.496 131.665C990.953 131.665 985.805 127.283 985.327 121.954H971.201C971.799 133.797 982.932 143.035 998.735 143.035C1014.3 143.035 1024 134.744 1024 123.73Z" fill="#20964F"/>
<path fill-rule="evenodd" clip-rule="evenodd" d="M203.69 0.497559H0V73.6009C2.29741 70.0715 5.08622 66.7219 8.37347 63.5481C19.3424 52.9617 32.478 47.6016 47.9157 47.6016C56.8533 47.6016 65.2493 49.6116 73.1034 53.4977C80.958 57.5179 87.4581 62.7442 92.6037 69.4446L70.5303 84.1851C64.7077 77.0825 57.1244 73.4644 47.9157 73.4644C39.7905 73.4644 33.0196 76.2787 27.4675 81.773C21.9153 87.401 19.2069 94.1014 19.2069 101.874C19.2069 109.78 21.9153 116.48 27.4675 121.974C33.0196 127.603 39.7905 130.283 47.9157 130.283C57.3952 130.283 64.9785 126.397 70.5303 118.356V115.408H44.9365V93.1633H95.8538V154.136H74.5933V144.353C72.0202 148.105 68.3639 151.053 63.4886 153.063C58.6138 155.207 53.4678 156.146 47.9157 156.146C32.478 156.146 19.3424 150.919 8.37347 140.199C5.08622 137.065 2.29741 133.743 0 130.23V205.298H203.69V133.053C201.83 135.536 199.718 137.917 197.353 140.199C186.384 150.919 173.249 156.146 157.811 156.146C142.509 156.146 129.373 150.919 118.269 140.199C107.164 129.613 101.747 116.882 101.747 101.874C101.747 86.9988 107.164 74.2688 118.269 63.5481C129.373 52.9617 142.509 47.6016 157.811 47.6016C173.249 47.6016 186.384 52.9617 197.353 63.5481C199.718 65.8589 201.83 68.263 203.69 70.7622V0.497559ZM137.498 81.773C131.81 87.401 129.102 94.1014 129.102 101.874C129.102 109.78 131.81 116.48 137.498 121.974C143.051 127.603 149.821 130.283 157.811 130.283C165.936 130.283 172.707 127.603 178.259 122.108C183.676 116.614 186.52 109.914 186.52 101.874C186.52 93.9671 183.676 87.2668 178.259 81.773C172.707 76.2787 165.936 73.4644 157.811 73.4644C149.821 73.4644 143.051 76.2787 137.498 81.773Z" fill="#20964F"/>
</g>
<defs>
<clipPath id="clip0_779_131">
<rect width="1024" height="204.8" fill="white" transform="translate(0 0.497559)"/>
</clipPath>
</defs>
</svg>
