<svg width="875" height="513" viewBox="0 0 875 513" fill="none" xmlns="http://www.w3.org/2000/svg">
<g clip-path="url(#clip0_879_3689)">
<path d="M442.868 506.712C442.893 507.047 442.498 509.282 441.615 510.256C440.725 511.239 439.421 511.599 438.161 511.876C436.102 512.33 434.068 511.893 432.429 510.651C431.084 509.635 430.244 508.207 430.144 506.822L430.135 506.745L430.126 506.754L414.822 456.975C406.25 431.448 393.291 404.065 368.153 379.832C337.788 350.568 293.027 330.322 231.307 317.979C177.512 307.214 142.104 297.952 116.496 287.969C91.9138 278.388 77.4166 268.411 63.2125 256.396C27.0077 225.755 1.76958 186.692 0.130859 137.485C0.130859 137.485 36.1518 188.345 75.7433 164.054C94.4593 152.576 107.915 154.213 107.915 154.213C95.7375 140.786 86.7537 123.252 84.3502 104.182C82.4347 88.9332 83.6856 72.0052 88.0646 53.8755C95.519 23.0166 117.227 0.402196 117.438 0.0507812C117.438 0.0507812 108.898 74.1811 144.373 100.481C166.25 112.782 188.697 107.82 188.697 107.82C188.697 107.82 159.24 94.1917 155.114 50.4433C153.308 31.2138 156.148 16.0902 156.904 12.2283C156.904 12.2283 195.791 67.0781 234.752 44.5493C243.466 39.5112 289.447 15.7643 309.272 10.4985C338.376 2.78198 367.177 2.23575 394.877 8.88714C417.872 14.4042 440.319 24.9175 461.607 40.1248C499.553 67.2383 524.127 102.44 532.926 116.32C532.926 116.32 609.296 112.96 651.091 166.334L651.149 166.417L747.816 209.05L736.856 216.052L736.377 216.364L736.873 216.675C768.154 236.542 822.882 271.753 837.783 284.449L837.816 284.482L837.867 284.507L865.56 297.666L860.509 311.06V311.069C860.172 311.967 852.659 333.44 866.838 344.062L873.964 349.402L874.115 349.521L874.048 349.688L852.28 407.3L846.767 399.902C816.402 358.084 787.702 350.36 773.279 350.065C756.958 349.721 755.807 358.412 757.832 362.157C764.396 374.275 800.979 380.555 814.535 381.933C814.526 381.933 823.503 383.1 823.763 383.133L788.523 414.68L724.633 410.667L724.373 410.651L724.398 410.39L725.474 397.854V397.778C725.147 395.401 720.828 373.996 668.585 352.509L668.434 352.458L668.283 352.525C659.399 356.624 641.171 363.694 618.832 364.894C591.897 366.347 566.903 359.084 544.538 343.321L544.387 343.228L544.201 343.27C535.233 346.327 517.542 353.23 499.861 365.364C467.043 387.911 449.133 417.393 446.637 453.004C446.637 453.004 443.762 482.352 442.871 506.72" fill="#002244"/>
<path d="M234.545 110.965C305.691 89.134 353.844 92.5353 370.282 120.486C309.877 127.389 249.47 144.517 190.745 171.42C161.325 169.42 134.297 157.423 118.432 139.295C98.4306 116.441 91.8266 82.3752 105.617 39.4097C106.601 76.4722 117.391 98.2271 135.291 110.477C156.292 124.853 188.755 125.004 234.546 110.964L234.545 110.965ZM455.679 52.8018C480.058 71.0298 502.942 96.1368 521.9 125.457C484.916 118.631 446.981 115.936 409.147 117.455C397.962 95.0953 379.027 78.7045 358.439 73.5917C335.59 67.9235 306.302 72.2989 271.385 86.5976C240.031 99.4361 215.022 100.855 197.045 90.8219C186.994 85.2138 179.161 76.0443 173.743 63.5827C169.398 53.5993 167.608 43.8343 166.7 38.4429L167.137 38.8872C176.667 48.7614 201.987 74.9919 241.14 54.7154C256.03 46.9989 295.796 27.4944 313.385 22.7658C340.537 15.4699 367.463 15.3005 393.355 22.0011C414.793 27.5509 435.76 37.9131 455.677 52.7999L455.679 52.8018ZM23.7705 173.561C23.7705 173.561 45.2669 194.023 81.4371 175.509C122.103 154.694 129.036 177.676 163.004 188.399C40.3016 258.845 23.7705 173.563 23.7705 173.563V173.561Z" fill="#FB4F14"/>
<path d="M842.199 321.015C842.292 311.569 844.821 303.877 845.35 302.399L828.87 294.708L828.803 294.692L828.77 294.641C818.594 283.641 708.395 214.394 707.286 213.69L706.866 213.429L707.277 213.169L715.42 207.745L640.736 176.139L640.652 176.097L640.594 176.021C610.281 130.721 550.541 128.917 539.07 129C561.826 136.029 568.776 142.948 570.533 147.556C571.702 150.637 570.533 152.56 570.482 152.636L570.357 152.838L570.138 152.78C312.455 82.601 101.657 244.068 92.8242 250.969C102.942 261.171 125.682 274.916 207.425 293.053C225.67 278.812 312.622 217.038 443.864 220.674L422.57 188.532C422.57 188.532 503.859 209.64 550.264 235.401C546.684 269.727 567.962 302.809 602.283 312.934C626.889 320.188 652.26 313.925 670.428 298.475L728.741 335.656L672.797 313.968C649.006 331.164 617.601 337.151 587.541 327.386C550.346 315.319 525.681 282.523 522.178 245.947C396.248 214.351 303.396 293.916 284.84 311.432C299.84 316.175 313.682 321.567 326.236 327.57C341.531 334.891 355.305 343.296 367.381 352.684C376.709 341.315 413.895 302.262 485.209 301.674C485.209 301.674 415.19 319.777 392.869 376.764C412.701 399.712 422.912 423.961 430.761 447.118C432.542 425.11 439.585 404.908 451.779 387.066C461.753 372.491 475.142 359.441 491.578 348.29C519.562 329.305 547.06 322.32 547.336 322.253L547.487 322.211L547.606 322.311C604.347 368.006 666.805 332.025 667.425 331.648L667.551 331.581L667.702 331.632C685.165 338.298 699.921 345.772 711.527 353.859C720.829 360.315 728.158 367.192 733.309 374.27C741.301 385.26 741.528 393.162 741.477 394.808L783.789 397.58L796.202 386.992C757.746 382.012 746.09 370.073 743.712 359.845C739.577 335.168 764.787 332.129 776.277 333.622C803.059 337.114 835.624 361.087 847.885 377.762L856.962 353.412C844.608 344.033 842.104 330.616 842.197 321.009" fill="#FFFFFE"/>
<path d="M693.008 221.926C692.276 226.855 687.847 230.456 682.789 230.063C677.513 229.668 673.554 225.059 673.957 219.777C674.159 217.301 675.284 215.109 676.965 213.53C648.678 199.659 633.879 197.551 633.879 197.551C668.141 220.273 682.764 239.223 682.764 239.223L692.024 232.909L778.658 281.222C744.194 253.136 715.513 234.402 693.008 221.926Z" fill="#002244"/>
<path d="M673.957 219.776C673.552 225.058 677.511 229.667 682.789 230.062C687.847 230.457 692.277 226.854 693.008 221.925C691.646 221.169 690.302 220.43 688.975 219.725L679.521 226.661L682.152 216.131C680.379 215.215 678.647 214.35 676.966 213.527C675.286 215.106 674.159 217.298 673.958 219.775" fill="#FB4F14"/>
<path d="M679.519 226.662L688.973 219.726C686.628 218.45 684.352 217.257 682.148 216.132L679.517 226.662M830.01 304.414C809.614 312.567 835.901 335.933 835.901 335.933C778.738 290.852 830.01 304.414 830.01 304.414ZM581.353 157.189C618.311 157.936 581.629 142.268 581.629 142.268C581.629 142.268 608.235 146.348 623.715 171.009C609.109 165.383 593.135 160.084 581.353 157.189Z" fill="#002244"/>
</g>
<defs>
<clipPath id="clip0_879_3689">
<rect width="873.985" height="512" fill="white" transform="translate(0.130859 0.0507812)"/>
</clipPath>
</defs>
</svg>
