<svg width="634" height="513" viewBox="0 0 634 513" fill="none" xmlns="http://www.w3.org/2000/svg">
<g clip-path="url(#clip0_795_4480)">
<path d="M405.537 368.987L422.398 391.354L429.146 386.289L412.268 363.922L405.537 368.987Z" fill="white"/>
<path d="M361.828 90.3718H354.351V76.4915H356.499C359.219 76.4915 361.829 75.4107 363.752 73.487C365.676 71.5633 366.757 68.9541 366.757 66.2335C366.757 63.513 365.676 60.9038 363.752 58.9801C361.829 57.0563 359.219 55.9756 356.499 55.9756H345.872V114.774H361.828C365.061 114.774 368.161 113.49 370.447 111.204C372.733 108.918 374.018 105.818 374.018 102.585C374.018 99.3523 372.733 96.2519 370.447 93.966C368.161 91.6801 365.061 90.3958 361.828 90.3958" fill="white"/>
<path d="M292.827 100.927C292.827 92.031 286.48 84.8184 278.651 84.8184C270.821 84.8184 264.466 92.031 264.466 100.927C264.466 109.822 270.813 117.035 278.651 117.035C286.488 117.035 292.827 109.822 292.827 100.927Z" fill="white"/>
<path d="M217.239 84.8184C211.581 84.8184 206.709 88.5449 204.417 93.9864H230.062C227.778 88.5449 222.905 84.8184 217.239 84.8184Z" fill="white"/>
<path d="M370.78 387.676L394.918 447.437L402.724 444.255L378.586 384.519L370.78 387.676Z" fill="white"/>
<path d="M255.45 253.313C258.52 253.313 263.007 259.388 263.544 263.547C263.825 265.719 263.248 267.554 264.939 267.554C266.109 267.554 266.99 264.228 266.99 261.263C266.99 258.298 265.115 254.563 262.118 251.213C259.121 247.863 258.856 244.538 255.41 244.538C253.391 244.538 253.391 247.831 250.514 252.479C249.632 253.914 248.694 256.102 249.52 258.089C250.233 258.57 252.781 253.281 255.45 253.281" fill="white"/>
<path d="M249.183 293.503C254.376 293.503 255.659 292.654 255.659 288.302C255.659 286.138 254.737 286.074 253.783 286.074C250.161 286.074 246.683 291.291 246.683 292.598C246.683 292.966 247.124 293.503 249.183 293.503Z" fill="white"/>
<path d="M214.034 224.222C217.143 213.86 212.431 203.851 208.768 203.851C208.497 203.849 208.228 203.903 207.979 204.01C207.729 204.117 207.504 204.275 207.319 204.472C207.133 204.67 206.99 204.904 206.899 205.16C206.807 205.416 206.77 205.688 206.789 205.958C206.789 209.34 210.836 209.092 213.2 224.334L214.034 224.222Z" fill="white"/>
<path d="M631.668 317.201C631.46 307.985 626.379 303.224 622.156 304.01C622.195 302.718 621.877 301.44 621.238 300.316C620.6 299.192 619.664 298.266 618.533 297.639L614.326 294.609C612.916 293.391 611.337 292.045 608.372 292.045C603.307 292.045 600.927 298.568 600.927 298.568C596.92 295.883 596.327 294.096 594.564 288.799C591.606 280.609 586.87 280.456 582.286 280.312C579.313 280.152 578.359 279.928 572.004 276.073C572.004 276.073 577.221 265.983 576.42 254.571C579.737 255.495 583.162 255.977 586.606 256.006C604.878 256.006 615.793 241.973 615.793 228.413C615.793 213.115 605.567 206.471 594.235 197.327C604.974 198.056 618.854 190.066 618.854 175.641C618.854 168.741 613.605 163.251 613.605 163.251C607.691 168.396 602.265 171.442 594.459 173.397C588.657 174.415 573.238 177.076 573.238 191.677C573.238 208.835 598.53 213.684 598.53 228.301C598.511 229.698 598.213 231.077 597.655 232.358C597.097 233.639 596.289 234.796 595.279 235.761C594.269 236.727 593.077 237.481 591.772 237.981C590.467 238.48 589.076 238.715 587.679 238.671C571.908 238.671 562.748 221.97 543.971 216.312V0.574707H90.8581V216.312C72.0973 221.97 62.9212 238.671 47.1496 238.671C45.7531 238.715 44.3619 238.48 43.0571 237.981C41.7523 237.481 40.5601 236.727 39.55 235.761C38.5399 234.796 37.7322 233.639 37.1739 232.358C36.6157 231.077 36.3181 229.698 36.2986 228.301C36.2986 213.684 61.5748 208.835 61.5748 191.677C61.5748 177.076 46.1719 174.415 40.3617 173.397C33.2248 171.707 26.641 168.214 21.2403 163.251C21.2403 163.251 15.9911 168.741 15.9911 175.641C15.9911 190.066 29.8714 198.08 40.5941 197.327C29.2783 206.471 19.0204 213.115 19.0204 228.413C19.0204 241.973 29.9355 256.006 48.2235 256.006C51.667 255.977 55.0917 255.495 58.4093 254.571C57.6079 265.983 62.817 276.073 62.817 276.073C56.4539 279.928 55.5162 280.152 52.543 280.312C47.959 280.456 43.2227 280.609 40.2655 288.799C38.5105 294.096 37.8613 295.883 33.9024 298.568C33.9024 298.568 31.4982 292.045 26.4654 292.045C23.4922 292.045 21.8974 293.391 20.503 294.609L16.2796 297.639C15.1529 298.269 14.2209 299.196 13.5849 300.32C12.949 301.443 12.6337 302.719 12.6733 304.01C8.45789 303.208 3.36899 308.017 3.14459 317.201C3.14459 317.201 0.860596 319.741 0.860596 322.578C0.860596 326.77 5.77319 328.436 15.6064 329.959L15.975 328.677L27.2508 330.432C37.4126 330.432 38.5425 322.418 42.1809 318.796L48.1433 319.982C63.6905 317.305 63.3299 308.762 71.1917 308.762C74.8701 308.762 82.0827 310.453 85.8814 310.453C87.5545 310.443 89.2183 310.203 90.826 309.74V362.769C90.826 420.566 194.519 512.575 317.382 512.575C440.245 512.575 543.971 420.59 543.971 362.793V309.764C545.581 310.228 547.248 310.468 548.924 310.477C552.73 310.477 559.943 308.786 563.589 308.786C571.467 308.786 571.106 317.305 586.662 320.006L592.648 318.82C596.271 322.45 597.417 330.456 607.578 330.456L618.854 328.645L619.207 329.927C629.056 328.404 633.968 326.721 633.968 322.546C633.968 319.709 631.668 317.169 631.668 317.169M12.6332 325.127C12.6332 325.127 5.07597 323.74 5.07597 322.578C5.07597 320.927 7.12756 320.006 7.34394 317.553C7.76868 312.745 7.28784 310.589 11.6795 308.057C12.9377 308.057 16.2635 311.302 16.2635 312.008C16.2635 313.611 14.5005 317.666 12.6332 325.127ZM95.0735 4.79009H539.772V215.278C537.539 214.832 535.275 214.564 533 214.477V11.5619H101.837V214.509C99.5678 214.599 97.3089 214.866 95.0815 215.31L95.0735 4.79009ZM336.015 304.178C334.412 306.182 334.308 312.473 341.625 312.473C354.928 312.473 359.208 306.863 365.611 301.79C370.419 305.909 374.571 307.977 378.305 307.977L385.269 307.424C392.939 307.424 398.997 312.473 406.963 312.473C407.252 312.473 407.492 312.408 407.765 312.392C396.811 325.765 383.025 336.539 367.402 343.937C351.779 351.335 334.709 355.173 317.423 355.173C300.136 355.173 283.066 351.335 267.443 343.937C251.82 336.539 238.034 325.765 227.08 312.392C227.353 312.392 227.593 312.473 227.882 312.473C235.848 312.473 241.898 307.424 249.576 307.424L256.54 307.977C260.291 307.977 264.394 305.909 269.234 301.79C275.645 306.831 279.917 312.473 293.22 312.473C300.529 312.473 300.433 306.182 298.83 304.178C305.065 305.292 309.545 300.708 305.987 294.81C294.879 291.548 294.975 281.362 285.27 272.939C275.189 248.777 278.907 233.15 270.925 222.507C255.859 202.472 252.83 198.385 243.677 190.772C231.993 180.858 229.413 178.326 220.781 172.796C233.95 153.411 252.636 138.427 274.419 129.785C260.667 127.677 250.137 115.576 250.137 100.934C250.137 84.8021 262.895 71.7232 278.659 71.7232C286.192 71.7232 290.68 75.1051 292.844 77.3811V37.6476H308.246V113.781C294.466 115.85 281.799 122.545 272.328 132.766C262.856 142.987 257.142 156.126 256.126 170.024C255.109 183.922 258.85 197.752 266.734 209.242C274.617 220.733 286.175 229.2 299.507 233.253C312.84 237.305 327.155 236.703 340.099 231.543C353.044 226.384 363.849 216.975 370.739 204.863C377.628 192.75 380.193 178.654 378.012 164.891C375.83 151.128 369.032 138.516 358.735 129.128C381.234 137.656 400.56 152.906 414.088 172.804C405.449 178.334 402.868 180.866 391.176 190.78C382.008 198.393 378.978 202.472 363.928 222.515C355.914 233.158 359.672 248.785 349.583 272.947C339.918 281.346 339.966 291.556 328.875 294.818C325.348 300.716 329.812 305.3 336.047 304.186M105.043 302.711C111.855 298.704 116.431 286.812 116.431 283.478L117.793 283.814V362.785C117.793 403.239 210.187 485.624 317.39 485.624C424.594 485.624 516.94 403.239 516.94 362.785V283.822L518.31 283.486C518.31 286.812 522.886 298.712 529.682 302.719V362.825C529.682 413.906 430.452 498.406 317.31 498.406C204.168 498.406 105.043 413.874 105.043 362.793V302.711ZM262.438 406.701L269.122 409.009C267.399 418.186 266.533 427.378 263.512 440.569L283.339 384.422L291.449 387.147L262.398 463.128L254.969 460.58L262.07 418.947L241.834 456.068L234.397 453.519L258.271 375.783L266.349 378.556L247.404 434.991C253.174 422.778 258.159 414.956 262.438 406.701ZM245.192 377.53L231.384 367.833L215.356 390.77L225.694 398.03L220.886 404.922L210.515 397.71L194.487 420.662L208.28 430.335L203.471 437.219L189.671 427.554C188.763 426.922 187.989 426.116 187.394 425.184C186.798 424.251 186.393 423.211 186.201 422.121C186.009 421.032 186.034 419.915 186.274 418.835C186.515 417.756 186.967 416.734 187.603 415.829L224.452 362.985C225.087 362.079 225.894 361.308 226.828 360.714C227.761 360.12 228.802 359.716 229.892 359.525C230.981 359.334 232.098 359.359 233.177 359.599C234.257 359.84 235.279 360.29 236.184 360.925L250.009 370.598L245.192 377.53ZM148.735 390.112L143.126 383.877L203.527 329.446L208.857 335.369L176.752 377.466L214.835 341.996L220.445 348.255L160.035 402.638L154.69 396.716L186.786 354.634L148.735 390.112ZM216.855 286.852C215.252 284.696 213.417 281.017 211.637 276.986C213.937 276.986 216.967 276.185 220.789 274.686C222.385 274.707 223.98 274.594 225.558 274.35C225.164 275.397 224.838 276.467 224.58 277.555C222.008 280.416 218.289 282.981 216.855 286.844M169.291 292.63C172.249 292.63 177.041 292.013 177.77 292.013C178.499 292.013 180.134 292.189 180.511 295.218C180.888 298.248 182.819 299.915 182.819 301.157C182.819 302.399 179.149 304.763 175.102 304.763C171.84 304.763 171.479 297.302 168.185 295.499C165.781 294.144 166.342 292.662 169.291 292.662M339.694 387.372L348.06 386.346L352.067 419.115C353.165 428.155 345.167 432.01 345.167 432.01L349.583 468.073L341.232 469.107L336.8 433.044C336.8 433.044 328.065 431.12 326.983 422.217L322.976 389.431L331.319 388.429L335.783 424.693L344.149 423.659L339.694 387.372ZM454.054 348.784L438.426 335.689C436.652 334.067 435.28 332.052 434.419 329.807L439.981 323.163C440.421 325.092 441.377 326.865 442.746 328.292C442.746 328.292 447.314 332.139 456.434 339.752C467.966 349.441 460.232 360.124 460.232 360.124C469.168 349.481 479.394 359.026 479.394 359.026L494.781 371.921C496.856 373.781 499.43 374.996 502.186 375.415L496.624 382.042C493.419 382.042 490.485 379.301 490.485 379.301C490.485 379.301 476.565 367.625 471.965 363.786C466.588 359.266 461.226 365.726 461.226 365.726L490.029 389.888L484.691 396.299L422.398 344.112L427.792 337.701L454.623 360.188C460.232 353.464 454.086 348.816 454.086 348.816M434.507 379.43C436.848 382.515 436.367 384.735 435.429 386.867C437.529 386.258 439.933 386.618 442.962 390.625L459.255 412.263C460.625 414.09 462.372 414.916 464.512 415.853L457.612 421.071C455.653 420.23 453.914 418.949 452.531 417.328L434.235 393.054L427.487 398.134L449.389 427.217L442.674 432.274L393.74 367.361L407.172 357.175C408.056 356.509 409.062 356.025 410.133 355.748C411.205 355.472 412.32 355.41 413.415 355.564C414.511 355.719 415.565 356.088 416.518 356.651C417.471 357.213 418.303 357.957 418.968 358.842L434.507 379.43ZM409.247 437.86C410.506 440.967 410.478 444.447 409.17 447.534C407.863 450.621 405.382 453.062 402.275 454.321C399.168 455.579 395.688 455.551 392.601 454.244C389.514 452.936 387.073 450.456 385.814 447.349L364.321 394.135C363.062 391.028 363.09 387.548 364.398 384.461C365.705 381.374 368.185 378.933 371.293 377.675C374.4 376.416 377.88 376.444 380.967 377.752C384.054 379.059 386.495 381.539 387.754 384.647L409.247 437.86ZM465.514 292.638C468.487 292.638 469.064 294.12 466.612 295.475C463.334 297.278 462.981 304.739 459.704 304.739C455.697 304.739 452.002 302.335 452.002 301.133C452.002 299.931 453.917 298.2 454.302 295.194C454.687 292.189 456.314 291.989 457.043 291.989C457.772 291.989 462.549 292.606 465.514 292.606M410.217 277.531C409.96 276.442 409.631 275.371 409.231 274.326C410.822 274.571 412.43 274.684 414.04 274.662C417.854 276.201 420.9 276.93 423.184 276.962C421.404 280.969 419.601 284.672 417.966 286.828C416.532 282.965 412.813 280.416 410.241 277.539M217.239 117.075C222.432 117.075 226.976 113.869 229.453 109.157L241.153 116.882C238.609 120.929 235.082 124.267 230.901 126.585C226.719 128.902 222.02 130.125 217.239 130.137C201.476 130.137 188.701 117.059 188.701 100.926C188.701 84.7941 201.436 71.7152 217.239 71.7152C233.043 71.7152 245.769 84.7941 245.769 100.926C245.769 101.728 245.729 102.609 245.657 103.419H203.183C204.257 111.128 210.123 117.043 217.207 117.043M170.325 92.8722L193.325 128.655H172.834L154.546 100.245V79.8334H159.891C163.003 79.7528 165.961 78.4597 168.134 76.2299C170.306 74.0001 171.522 71.0099 171.522 67.8965C171.522 64.7832 170.306 61.7929 168.134 59.5631C165.961 57.3333 163.003 56.0403 159.891 55.9596H149.12V128.639H131.489V42.0874H163.858C177.794 42.0874 189.078 53.6436 189.078 67.8925C189.122 73.5421 187.305 79.049 183.907 83.5626C180.509 88.0761 175.719 91.345 170.277 92.8642M391.28 102.569C391.28 116.994 379.868 128.647 365.811 128.647H358.19C349.753 121.085 339.377 116.021 328.225 114.021V42.0954H360.53C373.545 42.0954 384.107 52.9063 384.107 66.2176C384.173 69.0852 383.632 71.9344 382.518 74.5779C381.405 77.2215 379.745 79.5997 377.648 81.5564C381.783 83.27 385.304 86.1951 387.745 89.947C390.187 93.699 391.436 98.102 391.328 102.577M365.226 143.785C369.686 150.763 372.566 158.633 373.662 166.841C374.758 175.05 374.044 183.399 371.57 191.303C369.097 199.206 364.924 206.473 359.344 212.592C353.764 218.712 346.913 223.536 339.271 226.727C331.628 229.917 323.38 231.397 315.105 231.061C306.831 230.725 298.73 228.583 291.371 224.784C284.012 220.985 277.574 215.622 272.508 209.071C267.442 202.519 263.871 194.939 262.046 186.861L270.933 196.061L282.089 214.044C289.44 217.063 297.31 218.62 305.257 218.628L312.606 208.322L337.137 207.665L337.73 209.348C347.509 203.253 355.376 194.53 360.434 184.176C357.072 185.578 353.608 186.722 350.072 187.598C350.072 187.598 343.34 176.21 338.371 165.816C341.555 159.299 345.211 153.023 349.31 147.039C349.31 147.039 360.81 152.448 366.22 156.864C366.414 157.528 366.556 158.206 366.645 158.892C366.645 158.371 366.717 157.858 366.717 157.337C366.72 152.789 366.22 148.255 365.226 143.817M299.511 146.582C306.9 154.997 313.936 166.273 313.936 166.273C310.53 172.892 300.705 188.576 300.705 188.576C287.442 185.37 278.37 182.164 278.37 182.164C277.516 173.641 277.443 165.057 278.154 156.52C283.908 153.514 299.495 146.55 299.495 146.55M299.495 120.529C312.216 116.309 326.016 116.703 338.475 121.643L335.318 129.544C327.021 128.68 318.663 128.57 310.346 129.216L299.495 120.529ZM269.964 149.499L262.599 159.837C265.375 149.367 271.093 139.912 279.075 132.59L269.964 149.499ZM421.429 115.448C424.339 115.41 427.116 114.219 429.15 112.137C431.184 110.055 432.31 107.251 432.28 104.34V74.6884H447.666V103.298C447.666 118.14 435.926 130.169 421.429 130.169C406.931 130.169 395.151 118.124 395.151 103.282V74.6724H410.554V104.324C410.513 107.236 411.629 110.046 413.657 112.136C415.686 114.226 418.46 115.425 421.372 115.472M457.9 37.6716H473.319V128.655H457.9V37.6716ZM487.873 37.6716H503.292V128.655H487.873V37.6716ZM117.817 27.5419V206.415C112.552 210.999 108.401 213.628 105.067 214.261V14.8076H529.786V214.261C526.468 213.644 522.317 210.999 517.044 206.415V27.5419H117.817ZM18.4434 301.285C23.949 298.079 23.9169 296.228 26.5055 296.228C28.2125 296.228 29.6309 299.313 29.6309 299.313C27.1145 303.537 24.5981 308.001 21.2322 308.001C19.0604 308.001 16.9367 306.614 16.9367 305.276C16.9367 303.938 16.5841 302.359 18.4434 301.269M85.9535 306.254C81.5378 306.27 76.9938 304.603 71.2237 304.603C62.6888 304.603 62.4965 309.163 57.3595 311.968C52.2225 314.773 50.5475 315.75 48.1433 315.75C46.244 315.75 44.0562 314.596 42.1569 314.596C36.0341 314.596 36.6512 326.217 27.2187 326.217C23.2838 326.217 20.8876 324.934 17.6019 324.726C18.0988 317.105 21.7612 312.641 21.7612 312.641C27.5874 312.473 30.9292 305.252 30.9292 305.252C42.4854 298.841 41.8603 296.709 44.2004 290.226C46.6928 283.293 49.3935 284.984 56.542 284.311C63.8909 280.993 68.2666 278.525 66.9603 275.135C65.654 271.745 62.6247 265.807 62.6247 258.121C62.6247 251.622 62.6728 249.763 61.0219 249.763C59.1786 249.763 54.7148 251.814 48.1994 251.814C32.1153 251.814 23.2117 239.793 23.2117 228.437C23.2117 208.402 46.0356 203.081 46.0356 196.029C46.0356 193.625 43.1025 193.064 39.6885 193.064C27.2428 193.064 20.1664 184.248 20.1664 175.665C20.242 173.466 20.9033 171.328 22.0817 169.47C22.0817 169.47 29.679 175.881 39.6324 177.58C49.5859 179.279 57.3514 182.453 57.3514 191.701C57.3514 206.351 32.0592 211.047 32.0592 228.325C32.0734 230.279 32.4772 232.21 33.2471 234.005C34.017 235.8 35.1375 237.424 36.5429 238.781C37.9482 240.138 39.6103 241.201 41.4316 241.907C43.2529 242.613 45.1969 242.949 47.1496 242.895C68.3467 242.895 75.7116 219.277 104.105 218.62C118.819 216.913 123.403 200.629 139.495 200.901C141.691 200.997 144.825 202.248 149.809 197.415C154.794 192.583 155.812 189.089 171.367 184.889C188.012 180.377 190.4 171.546 205.154 171.546C216.694 171.546 232.073 186.628 240.977 194.033C249.88 201.438 253.118 205.253 267.479 224.983C273.938 234.055 271.695 252.447 281.688 275.344C291.561 283.654 290.544 292.974 302.845 298.087C303.783 300.107 300.793 300.051 299.479 300.051C285.711 300.051 284.357 283.614 275.205 279.455C272.945 278.429 273.169 279.351 274.171 280.961C284.204 293.832 277.256 297.11 293.212 305.052C297.796 307.336 294.615 308.257 293.212 308.257C276.856 308.257 273.538 296.789 268.369 297.038C265.163 300.003 260.507 303.769 256.524 303.769C255.33 303.769 251.459 303.232 249.56 303.232C240.368 303.232 235.615 308.289 227.866 308.289C222.192 308.289 222.304 303.825 222.304 303.825C221.914 302.34 221.646 300.826 221.503 299.297C221.503 295.948 225.285 293.183 225.285 292.149C225.285 288.823 220.413 293.752 220.413 290.266C220.413 287.06 223.346 284.776 228.299 279.847C229.1 276.216 230.748 272.825 233.107 269.95C233.107 267.458 227.281 270.856 220.196 270.471C210.491 274.726 206.893 272.346 208.656 269.742C210.692 266.712 213.312 262.128 213.312 253.137C213.312 248.224 211.341 248.28 210.908 250.853C207.342 266.031 204.89 269.638 196.627 270.76C193.942 271.12 190.545 272.21 192.716 276.105L202.67 294.112C203.744 296.068 199.336 306.005 200.827 306.005C202.317 306.005 209.706 297.911 206.965 292.293L198.51 275.464C200.602 273.06 204.313 274.662 206.637 275.656C208.111 279.663 210.491 285.137 212.375 287.717C214.258 290.298 214.867 291.596 214.867 294.818C214.867 298.039 211.702 302.527 209.193 306.606C206.685 310.685 203.495 310.91 197.276 310.854C187.571 315.526 174.941 320.262 170.982 320.262C160.917 320.262 161.574 308.377 156.245 308.377C155.05 308.377 151.997 308.802 151.236 307.937C151.236 307.937 144.624 297.31 144.624 296.14C144.624 293.736 148.551 292.862 156.645 292.862C164.547 292.862 166.983 309.043 173.883 309.043C181.008 309.043 188.998 304.715 188.998 300.323C188.998 291.211 178.411 287.068 171.704 281.755C164.21 275.816 166.374 269.501 163.762 269.501C160.316 269.501 163.361 276.594 163.361 278.269C163.361 279.944 161.63 280.817 158.472 280.817C145.906 280.817 143.606 278.172 135.689 278.172C128.78 278.172 125.984 280.048 120.806 280.048C106.309 280.048 111.943 260.878 111.943 256.19C111.943 255.557 111.142 254.868 110.14 254.868C108.457 254.868 107.688 262.737 105.844 274.302C104.49 280.304 97.125 294.008 75.6074 294.609C58.4975 295.082 49.9625 300.652 45.2743 308.57C44.6011 309.467 45.651 311.631 47.3179 309.603C52.0382 304.899 60.0762 297.903 76.1684 298.384C93.4466 298.873 102.615 292.926 109.378 280.577C110.629 280.577 111.606 281.939 112.408 282.773C112.408 286.403 110.148 287.877 108.866 291.003C107.864 293.407 105.315 298.6 102.727 299.33C96.6282 300.996 93.0459 306.286 85.8974 306.286M539.756 362.809C539.756 418.626 435.782 508.415 317.399 508.415C199.015 508.415 95.0574 418.658 95.0574 362.809V308.041C97.4616 306.734 99.6014 305.196 101.813 304.146V362.793C101.813 415.1 202.566 501.628 317.39 501.628C432.215 501.628 532.968 415.076 532.968 362.793V304.146C535.196 305.204 537.287 306.734 539.74 308.041L539.756 362.809ZM607.578 326.241C598.162 326.241 598.763 314.62 592.64 314.62C590.741 314.62 588.553 315.774 586.662 315.774C584.322 315.774 582.615 314.757 577.47 311.96C572.325 309.163 572.124 304.603 563.589 304.603C557.875 304.603 553.275 306.302 548.924 306.302C541.783 306.302 538.201 301.012 532.094 299.346C529.506 298.616 526.957 293.423 525.963 291.019C524.673 287.893 522.429 286.419 522.429 282.789C523.231 281.987 524.192 280.593 525.443 280.593C532.174 292.942 541.382 298.889 558.661 298.4C574.689 297.943 582.759 304.939 587.463 309.62C589.13 311.647 590.188 309.483 589.507 308.586C584.778 300.668 576.284 295.098 559.19 294.625C537.64 294.024 530.291 280.32 528.937 274.318C527.109 262.754 526.324 254.884 524.641 254.884C523.615 254.884 522.83 255.573 522.83 256.206C522.83 260.894 528.44 280.064 513.975 280.064C508.813 280.064 506.001 278.189 499.108 278.189C491.159 278.189 488.867 280.833 476.293 280.833C473.167 280.833 471.42 279.976 471.42 278.285C471.42 276.594 474.465 269.517 471.019 269.517C468.407 269.517 470.555 275.832 463.061 281.771C456.37 287.084 445.775 291.227 445.775 300.339C445.775 304.731 453.789 309.059 460.898 309.059C467.798 309.059 470.25 292.878 478.136 292.878C486.278 292.878 490.157 293.776 490.157 296.156C490.157 297.326 483.561 307.953 483.561 307.953C482.76 308.818 479.715 308.393 478.536 308.393C473.207 308.393 473.864 320.278 463.799 320.278C459.848 320.278 447.226 315.542 437.521 310.87C431.294 310.926 428.072 310.693 425.588 306.622C423.103 302.551 419.994 298.047 419.994 294.826C419.994 291.604 420.587 290.298 422.47 287.725C424.354 285.153 426.75 279.711 428.224 275.664C430.541 274.67 434.259 273.036 436.351 275.472L427.896 292.301C425.155 297.911 432.464 306.013 434.051 306.013C435.637 306.013 431.101 296.076 432.175 294.12L442.145 276.113C444.309 272.218 440.919 271.128 438.234 270.768C429.972 269.646 427.519 266.039 423.961 250.861C423.528 248.288 421.557 248.232 421.557 253.145C421.557 262.136 424.161 266.72 426.213 269.75C427.976 272.354 424.378 274.734 414.673 270.479C407.572 270.864 401.762 267.466 401.762 269.958C404.129 272.828 405.777 276.221 406.571 279.855C411.523 284.776 414.456 287.068 414.456 290.274C414.456 293.728 409.584 288.831 409.584 292.157C409.584 293.191 413.366 295.956 413.366 299.305C413.223 300.834 412.955 302.349 412.565 303.833C412.565 303.833 412.677 308.297 407.003 308.297C399.27 308.297 394.501 303.24 385.309 303.24C383.394 303.24 379.539 303.777 378.345 303.777C374.338 303.777 369.666 300.011 366.5 297.046C361.355 296.829 358.022 308.265 341.657 308.265C340.255 308.265 337.089 307.311 341.657 305.06C357.613 297.118 350.665 293.84 360.698 280.969C361.692 279.367 361.94 278.437 359.68 279.463C350.512 283.622 349.15 300.059 335.39 300.059C334.06 300.059 331.094 300.115 332.024 298.095C344.318 292.974 343.292 283.67 353.181 275.352C363.191 252.455 360.947 234.063 367.374 224.991C381.751 205.277 385.005 201.446 393.892 194.041C402.78 186.636 418.175 171.554 429.731 171.554C444.469 171.554 446.857 180.369 463.51 184.897C479.057 189.097 480.059 192.591 485.044 197.423C490.029 202.256 493.178 201.005 495.374 200.909C511.466 200.637 516.05 216.937 530.764 218.628C559.158 219.285 566.506 242.903 587.72 242.903C589.668 242.946 591.605 242.601 593.418 241.888C595.231 241.175 596.884 240.107 598.28 238.748C599.676 237.388 600.787 235.764 601.548 233.971C602.31 232.177 602.706 230.25 602.714 228.301C602.714 211.023 577.454 206.327 577.454 191.677C577.454 182.429 585.219 179.263 595.173 177.556C605.126 175.849 612.723 169.446 612.723 169.446C613.893 171.307 614.549 173.444 614.623 175.641C614.623 184.232 607.546 193.04 595.084 193.04C591.67 193.04 588.753 193.576 588.753 196.005C588.753 203.057 611.569 208.378 611.569 228.413C611.569 239.745 602.69 251.79 586.59 251.79C580.066 251.79 575.602 249.739 573.767 249.739C572.164 249.739 572.164 251.598 572.164 258.097C572.164 265.807 569.119 271.769 567.813 275.135C566.506 278.501 570.882 280.993 578.231 284.311C585.379 284.984 588.064 283.293 590.573 290.226C592.913 296.709 592.304 298.833 603.844 305.252C603.844 305.252 607.202 312.465 613.012 312.641C613.012 312.641 616.674 317.105 617.179 324.726C613.861 324.934 611.481 326.217 607.562 326.217M617.94 305.276C617.94 306.614 615.801 308.001 613.653 308.001C610.295 308.001 607.763 303.537 605.246 299.313C605.246 299.313 606.665 296.228 608.38 296.228C610.96 296.228 610.928 298.079 616.434 301.285C618.293 302.359 617.94 303.898 617.94 305.292M622.204 325.143C620.321 317.682 618.558 313.651 618.558 312.024C618.558 311.319 621.899 308.073 623.142 308.073C627.549 310.605 627.076 312.793 627.493 317.569C627.71 320.022 629.777 320.943 629.777 322.594C629.777 323.756 622.204 325.143 622.204 325.143Z" fill="white"/>
<path d="M381.038 286.074C380.1 286.074 379.163 286.138 379.163 288.302C379.163 292.654 380.461 293.495 385.638 293.495C387.706 293.495 388.154 292.966 388.154 292.598C388.154 291.291 384.66 286.074 381.038 286.074Z" fill="white"/>
<path d="M426.069 203.842C422.43 203.842 417.726 213.876 420.803 224.222L421.605 224.326C424.009 209.1 428.016 209.332 428.016 205.95C428.034 205.678 427.995 205.404 427.902 205.148C427.809 204.891 427.664 204.656 427.475 204.458C427.287 204.26 427.06 204.103 426.808 203.997C426.557 203.891 426.286 203.839 426.012 203.842" fill="white"/>
<path d="M385.301 258.065C386.143 256.07 385.205 253.882 384.324 252.455C381.447 247.783 381.463 244.505 379.411 244.505C375.981 244.505 375.693 247.839 372.703 251.173C369.714 254.507 367.831 258.289 367.831 261.223C367.831 264.156 368.712 267.514 369.882 267.514C371.573 267.514 371.012 265.686 371.277 263.507C371.822 259.363 376.326 253.281 379.371 253.281C382.056 253.281 384.588 258.538 385.301 258.089" fill="white"/>
<path d="M365.226 143.785C366.22 148.218 366.72 152.747 366.717 157.289C366.717 157.826 366.661 158.339 366.661 158.892C367.158 161.937 367.799 168.765 366.877 181.187C364.796 182.309 362.656 183.318 360.466 184.208C355.406 194.56 347.539 203.282 337.762 209.38L341.922 221.065C332.641 226.57 321.422 229.447 321.422 229.447C309.721 226.899 302.989 221.81 302.989 221.81L305.265 218.604C297.315 218.621 289.44 217.071 282.089 214.044L283.323 216.056L281.023 217.915C291.427 226.595 304.593 231.267 318.141 231.086C331.69 230.906 344.727 225.885 354.896 216.931C365.066 207.977 371.697 195.681 373.591 182.265C375.486 168.849 372.519 155.197 365.226 143.777" fill="#C1C5C7"/>
<path d="M414.032 274.678C412.423 274.702 410.815 274.598 409.223 274.366C409.641 275.406 409.973 276.478 410.217 277.571C412.789 280.432 416.508 283.005 417.942 286.86C419.545 284.712 421.38 281.025 423.16 276.986C420.876 276.986 417.83 276.233 414.016 274.686" fill="#FFC72C"/>
<path d="M211.629 276.978C213.401 280.985 215.22 284.704 216.847 286.852C218.273 282.997 221.992 280.441 224.564 277.564C224.823 276.474 225.155 275.403 225.558 274.358C223.967 274.599 222.358 274.704 220.749 274.67C216.935 276.217 213.889 276.946 211.597 276.97" fill="#FFC72C"/>
<path d="M385.261 307.424L378.297 307.969C374.563 307.969 370.443 305.909 365.603 301.79C359.192 306.831 354.92 312.473 341.617 312.473C334.308 312.473 334.404 306.182 336.007 304.17C329.772 305.284 325.308 300.7 328.835 294.81C339.942 291.548 339.878 281.322 349.543 272.931C359.648 248.769 355.898 233.15 363.896 222.507C378.962 202.472 381.992 198.401 391.144 190.772C402.82 180.858 405.417 178.326 414.056 172.788C400.539 152.889 381.224 137.634 358.735 129.096C367.844 137.398 374.241 148.252 377.092 160.243C379.944 172.234 379.117 184.805 374.72 196.319C370.324 207.834 362.561 217.757 352.443 224.795C342.325 231.834 330.322 235.661 317.998 235.78C305.673 235.898 293.599 232.301 283.348 225.458C273.097 218.615 265.145 208.843 260.528 197.415C255.911 185.988 254.844 173.434 257.465 161.391C260.085 149.348 266.273 138.373 275.221 129.897C274.94 129.897 274.684 129.817 274.419 129.777C252.637 138.417 233.951 153.398 220.781 172.78C229.405 178.318 232.001 180.85 243.678 190.764C252.862 198.393 255.875 202.448 270.925 222.499C278.939 233.142 275.205 248.761 285.286 272.923C294.951 281.314 294.903 291.54 305.987 294.802C309.545 300.692 305.065 305.276 298.83 304.162C300.433 306.174 300.537 312.465 293.22 312.465C279.933 312.465 275.637 306.855 269.242 301.782C264.434 305.901 260.307 307.961 256.556 307.961L249.592 307.416C241.922 307.416 235.856 312.465 227.898 312.465C227.629 312.449 227.361 312.417 227.097 312.368C238.049 325.742 251.835 336.518 267.458 343.917C283.081 351.316 300.152 355.154 317.439 355.154C334.725 355.154 351.796 351.316 367.419 343.917C383.042 336.518 396.828 325.742 407.781 312.368C407.516 312.418 407.248 312.45 406.979 312.465C399.013 312.465 392.955 307.416 385.285 307.416" fill="#FFC72C"/>
<path d="M149.12 55.9758H159.867C163.029 55.9758 166.063 57.2322 168.299 59.4685C170.535 61.7049 171.792 64.738 171.792 67.9007C171.792 71.0633 170.535 74.0965 168.299 76.3328C166.063 78.5692 163.029 79.8255 159.867 79.8255H154.537V100.245L172.825 128.687H193.309L170.317 92.8724C175.76 91.3534 180.55 88.0848 183.95 83.5714C187.35 79.0581 189.168 73.5509 189.126 67.9007C189.126 53.6517 177.834 42.1035 163.906 42.1035H131.553V128.655H149.12V55.9758Z" fill="#B91F31"/>
<path d="M365.859 128.655C379.932 128.655 391.344 116.995 391.344 102.577C391.447 98.1011 390.196 93.698 387.753 89.9454C385.31 86.1929 381.791 83.266 377.656 81.5485C379.747 79.591 381.399 77.2126 382.504 74.5701C383.609 71.9276 384.142 69.081 384.067 66.2177C384.067 52.8904 373.521 42.1035 360.498 42.1035H328.29V114.037C339.434 116.032 349.802 121.094 358.23 128.655H365.859ZM345.864 55.9758H356.499C359.219 55.9758 361.829 57.0565 363.752 58.9803C365.676 60.904 366.757 63.5132 366.757 66.2337C366.757 68.9543 365.676 71.5635 363.752 73.4872C361.829 75.411 359.219 76.4917 356.499 76.4917H354.351V90.372H361.828C365.063 90.372 368.166 91.6571 370.453 93.9445C372.741 96.232 374.026 99.3344 374.026 102.569C374.026 105.804 372.741 108.907 370.453 111.194C368.166 113.482 365.063 114.767 361.828 114.767H345.864V55.9758Z" fill="#B91F31"/>
<path d="M503.284 37.6636H487.865V128.655H503.284V37.6636Z" fill="#B91F31"/>
<path d="M473.327 37.6636H457.908V128.655H473.327V37.6636Z" fill="#B91F31"/>
<path d="M421.372 130.153C435.87 130.153 447.61 118.132 447.61 103.282V74.6724H432.224V104.324C432.224 107.202 431.08 109.962 429.045 111.997C427.01 114.032 424.25 115.175 421.372 115.175C418.495 115.175 415.735 114.032 413.7 111.997C411.665 109.962 410.522 107.202 410.522 104.324V74.6724H395.151V103.282C395.151 118.116 406.907 130.153 421.405 130.153" fill="#B91F31"/>
<path d="M217.239 130.137C222.024 130.12 226.726 128.892 230.907 126.567C235.089 124.242 238.614 120.897 241.153 116.842L229.453 109.101C226.936 113.869 222.408 117.075 217.239 117.075C210.155 117.075 204.289 111.168 203.215 103.451H245.689C245.761 102.649 245.801 101.784 245.801 100.942C245.801 84.802 233.035 71.7231 217.271 71.7231C201.508 71.7231 188.733 84.802 188.733 100.942C188.733 117.083 201.428 130.137 217.239 130.137ZM217.239 84.8181C222.889 84.8181 227.762 88.5446 230.062 93.9861H204.417C206.701 88.5446 211.573 84.8181 217.239 84.8181Z" fill="#B91F31"/>
<path d="M292.827 77.365C290.664 75.097 286.176 71.691 278.643 71.691C262.919 71.691 250.097 84.786 250.097 100.926C250.097 115.584 260.627 127.669 274.379 129.777C274.652 129.817 274.916 129.873 275.181 129.921C284.266 121.267 295.803 115.63 308.214 113.781V37.6475H292.827V77.365ZM278.643 117.026C270.821 117.026 264.474 109.814 264.474 100.926C264.474 92.0387 270.821 84.818 278.643 84.818C286.464 84.818 292.827 92.0306 292.827 100.926C292.827 109.822 286.48 117.026 278.643 117.026Z" fill="#B91F31"/>
<path d="M175.118 304.731C179.165 304.731 182.843 302.327 182.843 301.117C182.843 299.907 180.92 298.192 180.527 295.21C180.134 292.229 178.508 292.005 177.778 292.005C177.049 292.005 172.273 292.622 169.307 292.622C166.342 292.622 165.757 294.113 168.21 295.459C171.487 297.262 171.856 304.723 175.118 304.723" fill="#B91F31"/>
<path d="M21.1922 308.001C24.5501 308.001 27.0825 303.537 29.5909 299.314C29.5909 299.314 28.1725 296.244 26.4655 296.244C23.8769 296.244 23.917 298.071 18.4114 301.285C16.5361 302.359 16.8967 303.898 16.8967 305.292C16.8967 306.686 19.0285 308.033 21.1922 308.033" fill="#B91F31"/>
<path d="M11.6875 308.057C7.29581 310.597 7.77665 312.777 7.35191 317.569C7.12752 320.014 5.07593 320.943 5.07593 322.594C5.07593 323.748 12.6251 325.127 12.6251 325.127C14.5084 317.665 16.2715 313.626 16.2715 312.008C16.2715 311.318 12.9377 308.057 11.6875 308.057Z" fill="#B91F31"/>
<path d="M281.696 275.311C271.678 252.415 273.938 234.023 267.503 224.951C253.134 205.245 249.872 201.406 240.977 194.001C232.081 186.596 216.694 171.514 205.154 171.514C190.392 171.514 188.012 180.329 171.367 184.857C155.812 189.072 154.81 192.567 149.825 197.383C144.84 202.199 141.683 200.981 139.511 200.869C123.403 200.605 118.835 216.897 104.097 218.588C75.7275 219.245 68.3626 242.871 47.1976 242.871C45.2443 242.926 43.2995 242.591 41.4777 241.884C39.6558 241.178 37.9935 240.114 36.5884 238.756C35.1833 237.398 34.0638 235.773 33.2957 233.976C32.5275 232.179 32.1261 230.247 32.1152 228.293C32.1152 211.031 57.3914 206.335 57.3914 191.669C57.3914 182.421 49.6098 179.271 39.6724 177.548C29.735 175.825 22.1137 169.454 22.1137 169.454C20.9437 171.315 20.2883 173.452 20.2143 175.649C20.2143 184.224 27.2827 193.047 39.7365 193.047C43.1665 193.047 46.0756 193.584 46.0756 195.997C46.0756 203.041 23.2436 208.37 23.2436 228.389C23.2436 239.737 32.1392 251.798 48.2314 251.798C54.7628 251.798 59.2346 249.747 61.0538 249.747C62.7047 249.747 62.6566 251.598 62.6566 258.089C62.6566 265.807 65.7019 271.769 67.0082 275.159C68.3145 278.549 63.9228 280.993 56.59 284.311C49.4335 284.984 46.7328 283.293 44.2404 290.217C41.9003 296.701 42.5174 298.825 30.9692 305.236C30.9692 305.236 27.6273 312.448 21.8011 312.633C19.2822 316.175 17.8381 320.368 17.6418 324.71C20.8955 324.958 23.2997 326.24 27.2507 326.24C36.6832 326.24 36.0661 314.604 42.1888 314.604C44.0881 314.604 46.276 315.774 48.1753 315.774C50.5074 315.774 52.1823 314.756 57.3593 311.959C62.5364 309.163 62.7047 304.603 71.2396 304.603C76.9536 304.603 81.5457 306.31 85.9133 306.31C93.0458 306.31 96.612 301.028 102.743 299.361C105.331 298.632 107.88 293.439 108.882 291.003C110.164 287.901 112.424 286.419 112.424 282.78C111.622 281.979 110.645 280.593 109.394 280.593C102.639 292.934 93.4305 298.849 76.1923 298.36C60.1643 297.919 52.1021 304.907 47.3418 309.619C45.6909 311.631 44.617 309.483 45.3063 308.57C50.0265 300.652 58.5214 295.09 75.6393 294.625C97.157 294.016 104.538 280.32 105.868 274.302C107.703 262.737 108.489 254.876 110.164 254.876C111.198 254.876 111.983 255.565 111.983 256.198C111.983 260.894 106.373 280.048 120.798 280.048C125.975 280.048 128.764 278.172 135.68 278.172C143.598 278.172 145.89 280.833 158.48 280.833C161.614 280.833 163.353 279.96 163.353 278.269C163.353 276.578 160.307 269.525 163.754 269.525C166.366 269.525 164.234 275.832 171.695 281.755C178.395 287.076 188.982 291.227 188.982 300.339C188.982 304.715 180.968 309.05 173.883 309.05C166.983 309.05 164.531 292.878 156.629 292.878C148.511 292.878 144.608 293.76 144.608 296.14C144.608 297.326 151.22 307.952 151.22 307.952C151.973 308.818 155.042 308.409 156.228 308.409C161.558 308.409 160.901 320.27 170.958 320.27C174.909 320.27 187.547 315.526 197.244 310.854C203.479 310.91 206.685 310.693 209.177 306.614C211.669 302.535 214.835 298.055 214.835 294.818C214.835 291.58 214.258 290.29 212.359 287.725C210.459 285.161 208.079 279.711 206.605 275.664C204.288 274.678 200.57 273.027 198.478 275.464L206.933 292.293C209.674 297.903 202.365 306.005 200.794 306.005C199.224 306.005 203.735 296.052 202.654 294.112L192.684 276.105C190.52 272.202 193.91 271.12 196.595 270.743C204.849 269.613 207.302 266.023 210.868 250.837C211.285 248.28 213.272 248.224 213.272 253.121C213.272 262.112 210.676 266.696 208.624 269.726C206.861 272.346 210.451 274.726 220.156 270.471C227.265 270.84 233.091 267.442 233.091 269.95C230.725 272.821 229.077 276.213 228.282 279.847C223.338 284.76 220.405 287.06 220.405 290.266C220.405 293.72 225.269 288.831 225.269 292.149C225.269 293.183 221.479 295.963 221.479 299.313C221.624 300.842 221.892 302.356 222.28 303.841C222.28 303.841 222.184 308.289 227.89 308.289C235.615 308.289 240.376 303.248 249.576 303.248C251.475 303.248 255.346 303.785 256.556 303.785C260.563 303.785 265.211 300.003 268.385 297.053C273.546 296.845 276.863 308.273 293.228 308.273C294.631 308.273 297.812 307.327 293.228 305.067C277.28 297.126 284.22 293.848 274.187 280.969C273.193 279.366 272.945 278.437 275.221 279.455C284.373 283.63 285.735 300.051 299.487 300.051C300.825 300.051 303.799 300.107 302.861 298.095C290.551 292.974 291.585 283.67 281.712 275.343M214.034 224.23L213.192 224.326C210.828 209.099 206.781 209.332 206.781 205.95C206.763 205.678 206.802 205.405 206.894 205.149C206.987 204.893 207.131 204.659 207.319 204.461C207.506 204.263 207.732 204.106 207.983 203.999C208.234 203.893 208.504 203.84 208.776 203.842C212.415 203.842 217.135 213.876 214.034 224.23ZM249.199 293.511C247.131 293.511 246.707 292.974 246.707 292.59C246.707 291.291 250.185 286.074 253.799 286.074C254.761 286.074 255.666 286.146 255.666 288.302C255.666 292.646 254.376 293.511 249.199 293.511ZM264.963 267.546C263.264 267.546 263.849 265.703 263.56 263.539C263.015 259.379 258.527 253.313 255.474 253.313C252.789 253.313 250.257 258.57 249.544 258.121C248.702 256.142 249.648 253.946 250.521 252.511C253.398 247.839 253.398 244.562 255.434 244.562C258.864 244.562 259.152 247.895 262.15 251.245C265.147 254.595 266.998 258.346 266.998 261.295C266.998 264.244 266.133 267.586 264.963 267.586" fill="#B91F31"/>
<path d="M457.043 292.013C456.313 292.013 454.639 292.205 454.302 295.218C453.965 298.232 452.002 299.915 452.002 301.141C452.002 302.367 455.664 304.755 459.703 304.755C462.973 304.755 463.334 297.294 466.612 295.491C469.064 294.144 468.487 292.654 465.522 292.654C462.556 292.654 457.772 292.037 457.043 292.037" fill="#B91F31"/>
<path d="M616.426 301.277C610.92 298.072 610.952 296.236 608.372 296.236C606.657 296.236 605.238 299.306 605.238 299.306C607.755 303.537 610.287 307.993 613.645 307.993C615.793 307.993 617.932 306.623 617.932 305.252C617.932 303.882 618.285 302.351 616.426 301.245" fill="#B91F31"/>
<path d="M627.485 317.561C627.068 312.753 627.549 310.589 623.142 308.057C621.891 308.057 618.558 311.326 618.558 312.008C618.558 313.61 620.305 317.665 622.204 325.135C622.204 325.135 629.769 323.74 629.769 322.586C629.769 320.935 627.702 320.022 627.485 317.561Z" fill="#B91F31"/>
<path d="M603.868 305.244C592.328 298.833 592.937 296.709 590.596 290.225C588.104 283.285 585.419 284.976 578.263 284.303C570.922 280.985 566.53 278.549 567.845 275.151C569.159 271.753 572.212 265.815 572.212 258.089C572.212 251.59 572.156 249.747 573.815 249.747C575.666 249.747 580.122 251.798 586.638 251.798C602.73 251.798 611.625 239.737 611.625 228.397C611.625 208.362 588.809 203.049 588.809 195.989C588.809 193.584 591.726 193.055 595.14 193.055C607.586 193.055 614.679 184.24 614.679 175.649C614.603 173.45 613.942 171.312 612.763 169.454C612.763 169.454 605.15 175.865 595.213 177.548C585.275 179.231 577.494 182.429 577.494 191.677C577.494 206.327 602.754 211.023 602.754 228.301C602.746 230.255 602.347 232.189 601.582 233.987C600.816 235.785 599.698 237.411 598.294 238.771C596.89 240.131 595.229 241.196 593.407 241.904C591.586 242.612 589.641 242.949 587.687 242.895C566.474 242.895 559.109 219.269 530.732 218.604C516.002 216.897 511.418 200.613 495.342 200.893C493.138 200.997 489.996 202.256 485.012 197.407C480.027 192.559 479.009 189.08 463.47 184.881C446.809 180.377 444.429 171.538 429.683 171.538C418.135 171.538 402.756 186.628 393.844 194.017C384.933 201.406 381.719 205.237 367.342 224.967C360.931 234.039 363.142 252.431 353.133 275.327C343.268 283.662 344.318 292.958 331.976 298.071C331.054 300.099 334.027 300.043 335.35 300.043C349.118 300.043 350.464 283.622 359.632 279.447C361.892 278.429 361.66 279.326 360.65 280.945C350.633 293.816 357.581 297.093 341.625 305.043C337.041 307.327 340.206 308.289 341.625 308.289C357.965 308.289 361.299 296.837 366.468 297.029C369.674 299.987 374.322 303.777 378.321 303.777C379.499 303.777 383.37 303.224 385.269 303.224C394.469 303.224 399.23 308.273 406.979 308.273C412.653 308.273 412.533 303.817 412.533 303.817C412.923 302.33 413.191 300.813 413.334 299.281C413.334 295.939 409.544 293.175 409.544 292.141C409.544 288.823 414.432 293.744 414.432 290.258C414.432 287.052 411.499 284.776 406.53 279.839C405.735 276.208 404.087 272.818 401.722 269.95C401.722 267.45 407.532 270.848 414.625 270.479C424.329 274.718 427.92 272.33 426.157 269.734C424.121 266.704 421.509 262.12 421.509 253.129C421.509 248.216 423.472 248.272 423.913 250.845C427.487 266.015 429.939 269.621 438.186 270.751C440.87 271.112 444.276 272.21 442.097 276.105L432.143 294.096C431.069 296.052 435.493 306.005 434.002 306.005C432.512 306.005 425.107 297.911 427.848 292.293L436.302 275.464C434.211 273.059 430.508 274.662 428.192 275.672C426.71 279.679 424.321 285.145 422.438 287.693C420.555 290.241 419.994 291.612 419.994 294.826C419.994 298.039 423.159 302.543 425.668 306.622C428.176 310.701 431.382 310.918 437.601 310.862C447.306 315.526 459.936 320.278 463.887 320.278C473.96 320.278 473.287 308.393 478.633 308.393C479.811 308.393 482.872 308.826 483.641 307.944C483.641 307.944 490.237 297.326 490.237 296.14C490.237 293.736 486.326 292.878 478.216 292.878C470.322 292.878 467.878 309.042 460.994 309.042C453.845 309.042 445.863 304.723 445.863 300.347C445.863 291.211 456.45 287.084 463.149 281.755C470.643 275.824 468.479 269.517 471.099 269.517C474.553 269.517 471.492 276.594 471.492 278.277C471.492 279.959 473.247 280.833 476.381 280.833C488.963 280.833 491.255 278.18 499.18 278.18C506.081 278.18 508.885 280.048 514.046 280.048C528.544 280.048 522.918 260.886 522.918 256.19C522.918 255.573 523.719 254.884 524.721 254.884C526.396 254.884 527.181 262.745 529.025 274.31C530.379 280.312 537.728 294.024 559.262 294.617C576.364 295.098 584.907 300.66 589.579 308.578C590.268 309.483 589.21 311.631 587.543 309.611C582.831 304.915 574.793 297.919 558.741 298.392C541.462 298.889 532.294 292.958 525.515 280.593C524.264 280.593 523.287 281.971 522.501 282.78C522.501 286.411 524.745 287.885 526.044 291.003C527.029 293.407 529.578 298.624 532.166 299.345C538.265 301.004 541.847 306.294 548.996 306.294C553.355 306.294 557.955 304.603 563.669 304.603C572.204 304.603 572.397 309.163 577.534 311.968C582.671 314.772 584.394 315.798 586.734 315.798C588.617 315.798 590.805 314.62 592.704 314.62C598.835 314.62 598.226 326.24 607.642 326.24C611.577 326.24 613.973 324.99 617.259 324.742C616.746 317.129 613.084 312.673 613.084 312.673C607.274 312.504 603.916 305.276 603.916 305.276M371.285 263.531C371.004 265.703 371.573 267.538 369.874 267.538C368.704 267.538 367.839 264.196 367.839 261.247C367.839 258.298 369.714 254.531 372.695 251.189C375.676 247.847 375.989 244.521 379.419 244.521C381.454 244.521 381.438 247.799 384.332 252.463C385.213 253.882 386.135 256.086 385.293 258.073C384.596 258.554 382.048 253.305 379.379 253.305C376.317 253.305 371.822 259.379 371.285 263.539M385.638 293.511C380.461 293.511 379.17 292.654 379.17 288.302C379.17 286.146 380.092 286.074 381.046 286.074C384.652 286.074 388.146 291.291 388.146 292.598C388.146 292.974 387.705 293.511 385.638 293.511ZM421.645 224.342L420.843 224.23C417.758 213.876 422.446 203.858 426.117 203.858C426.389 203.854 426.659 203.907 426.909 204.012C427.16 204.118 427.386 204.274 427.574 204.471C427.761 204.669 427.906 204.903 427.999 205.158C428.091 205.414 428.13 205.686 428.112 205.958C428.112 209.348 424.049 209.116 421.701 224.342" fill="#B91F31"/>
<path d="M95.0735 215.271C97.3022 214.834 99.5605 214.567 101.829 214.469V11.5541H532.992V214.501C535.263 214.6 537.524 214.868 539.756 215.303V4.78223H95.0735V215.271Z" fill="#182852"/>
<path d="M532.992 362.8C532.992 415.1 432.223 501.627 317.414 501.627C202.606 501.627 101.837 415.076 101.837 362.8V304.138C99.6173 305.18 97.5016 306.742 95.0493 308.032V362.8C95.0493 418.61 199.023 508.391 317.422 508.391C435.822 508.391 539.764 418.634 539.764 362.8V308.032C537.359 306.742 535.22 305.196 533.008 304.138L532.992 362.8Z" fill="#182852"/>
<path d="M529.786 214.26V14.8154H105.043V214.26C108.377 213.643 112.536 210.999 117.809 206.415V27.5337H517.004V206.415C522.277 210.999 526.436 213.627 529.754 214.26" fill="#182852"/>
<path d="M105.083 362.801C105.083 413.874 204.321 498.382 317.455 498.382C430.589 498.382 529.786 413.874 529.786 362.801V302.696C522.982 298.689 518.414 286.78 518.414 283.462C517.949 283.59 517.493 283.694 517.036 283.823V362.793C517.036 403.24 424.642 485.624 317.487 485.624C210.331 485.624 117.817 403.248 117.817 362.801V283.831C117.377 283.702 116.896 283.598 116.447 283.47C116.447 286.804 111.887 298.697 105.083 302.704V362.801Z" fill="#182852"/>
<path d="M160.019 402.639L220.445 348.255L214.803 341.988L176.744 377.483L208.856 335.385L203.527 329.479L143.117 383.87L148.743 390.113L186.802 354.627L154.682 396.716L160.019 402.639Z" fill="#182852"/>
<path d="M245.184 377.531L249.993 370.63L236.168 360.949C234.342 359.674 232.086 359.171 229.891 359.553C227.696 359.934 225.741 361.168 224.452 362.985L187.499 415.781C186.86 416.687 186.406 417.711 186.164 418.793C185.922 419.875 185.896 420.994 186.088 422.086C186.28 423.178 186.687 424.221 187.284 425.155C187.881 426.09 188.657 426.897 189.567 427.53L203.359 437.147L208.167 430.263L194.375 420.582L210.403 397.63L220.765 404.89L225.574 397.99L215.228 390.738L231.256 367.801L245.184 377.531Z" fill="#182852"/>
<path d="M262.406 463.168L291.441 387.147L283.355 384.39L263.56 440.536C266.533 427.345 267.399 418.137 269.106 408.977L262.446 406.669C258.151 414.956 253.182 422.745 247.412 434.975L266.357 378.524L258.271 375.767L234.397 453.503L241.834 456.036L262.07 418.963L254.969 460.58L262.406 463.168Z" fill="#182852"/>
<path d="M352.083 419.107L348.076 386.338L339.717 387.356L344.165 423.635L335.799 424.669L331.335 388.406L322.992 389.407L326.999 422.193C328.081 431.096 336.808 433.028 336.808 433.028L341.248 469.091L349.599 468.089L345.183 432.026C345.183 432.026 353.197 428.187 352.083 419.139" fill="#182852"/>
<path d="M385.774 447.317C387.031 450.426 389.472 452.909 392.56 454.219C395.648 455.528 399.13 455.558 402.239 454.301C405.349 453.044 407.831 450.603 409.141 447.515C410.451 444.427 410.48 440.946 409.223 437.836L387.722 384.623C386.445 381.545 384.004 379.096 380.931 377.809C377.858 376.521 374.401 376.5 371.312 377.748C368.222 378.997 365.751 381.415 364.436 384.477C363.121 387.538 363.068 390.995 364.289 394.095L385.774 447.317ZM378.562 384.511L402.692 444.263L394.886 447.469L370.788 387.668L378.562 384.511Z" fill="#182852"/>
<path d="M452.507 417.296C453.885 418.921 455.625 420.2 457.588 421.03L464.48 415.805C462.332 414.876 460.585 414.042 459.223 412.231L442.922 390.593C439.893 386.586 437.497 386.242 435.389 386.851C436.343 384.719 436.824 382.483 434.483 379.414L418.992 358.858C418.33 357.966 417.498 357.214 416.544 356.647C415.589 356.079 414.531 355.707 413.432 355.551C412.332 355.395 411.213 355.459 410.138 355.739C409.064 356.019 408.055 356.51 407.172 357.183L393.724 367.336L442.61 432.25L449.325 427.185L427.399 398.07L434.131 393.005L452.507 417.296ZM422.398 391.354L405.569 368.987L412.317 363.922L429.146 386.29L422.398 391.354Z" fill="#182852"/>
<path d="M471.965 363.794C476.565 367.633 490.486 379.31 490.486 379.31C490.486 379.31 493.427 382.05 496.624 382.05L502.186 375.439C499.433 375.011 496.862 373.798 494.781 371.945L479.346 359.018C479.346 359.018 469.112 349.473 460.192 360.116C460.192 360.116 467.918 349.433 456.378 339.76L442.698 328.3C441.325 326.875 440.369 325.101 439.933 323.171L434.419 329.807C435.276 332.052 436.649 334.064 438.426 335.681L454.078 348.776C454.078 348.776 460.249 353.424 454.615 360.148L427.784 337.709L422.382 344.12L484.699 396.331L490.053 389.92L461.226 365.75C461.226 365.75 466.58 359.291 471.965 363.794Z" fill="#182852"/>
<path d="M341.905 221.041L337.746 209.34L337.153 207.657L312.622 208.322L305.249 218.644L302.989 221.81C302.989 221.81 309.729 226.891 321.422 229.439C321.422 229.439 332.593 226.562 341.873 221.041" fill="#182852"/>
<path d="M366.885 181.187C367.791 168.757 367.157 161.953 366.653 158.884C366.559 158.203 366.414 157.531 366.22 156.872C360.81 152.456 349.318 147.047 349.318 147.047C345.213 153.028 341.554 159.304 338.371 165.824C343.34 176.242 350.072 187.606 350.072 187.606C353.612 186.741 357.081 185.608 360.45 184.216C362.645 183.334 364.786 182.322 366.861 181.187" fill="#182852"/>
<path d="M313.936 166.241C313.936 166.241 306.86 154.965 299.471 146.55C299.471 146.55 283.884 153.514 278.13 156.52C277.427 165.044 277.504 173.615 278.362 182.125C278.362 182.125 287.418 185.33 300.689 188.536C300.689 188.536 310.522 172.852 313.936 166.233" fill="#182852"/>
<path d="M262.551 159.837L269.915 149.499L279.027 132.582C271.039 139.899 265.32 149.356 262.551 159.829" fill="#182852"/>
<path d="M335.286 129.544L338.427 121.635C325.964 116.702 312.162 116.311 299.439 120.529L310.298 129.216C318.62 128.58 326.983 128.69 335.286 129.544Z" fill="#182852"/>
<path d="M281.023 217.923L283.323 216.064L282.081 214.044L270.973 196.037L262.038 186.861C264.778 199.021 271.451 209.938 281.023 217.923Z" fill="#182852"/>
</g>
<defs>
<clipPath id="clip0_795_4480">
<rect width="633.108" height="512" fill="white" transform="translate(0.860596 0.574707)"/>
</clipPath>
</defs>
</svg>
