<svg width="1025" height="494" viewBox="0 0 1025 494" fill="none" xmlns="http://www.w3.org/2000/svg">
<g clip-path="url(#clip0_879_3562)">
<path d="M1023.35 303.971C1019.21 278.757 1002.58 241.725 946.792 208.406C943.024 206.155 939.067 203.962 934.989 201.806C945.425 198.3 956.213 194.682 956.213 194.682L894.39 170.602C889.097 168.538 883.549 166.683 877.931 164.878L886.328 156.361L838.923 149.727C818.438 146.856 802.282 146.196 789.902 146.376C789.781 144.382 789.626 142.543 789.419 140.893C789.419 140.876 781.503 81.5857 781.503 81.5857C781.503 81.5857 763.162 106.603 761.338 109.087C757.44 102.6 753.018 96.4972 747.941 90.7649C747.941 90.7565 696.812 33.0045 696.812 33.0045C696.812 33.0045 698.852 49.9938 700.486 63.5553C683.907 52.004 665.678 41.6843 645.51 33.0468C563.244 -2.19729 459.213 -9.51868 360.076 12.9279C277.157 31.7137 157.433 80.6907 57.9963 207.306L0.604004 280.388L86.9897 246.012C87.6774 245.737 154.363 219.765 208.141 212.194C228.197 209.367 243.553 209.142 231.087 236.583C221.263 258.24 198.945 289.849 198.712 290.166L155.455 353.013L227.611 327.988C262.317 315.931 293.469 309.991 309.223 309.432C314.849 309.536 315.882 313.247 314.108 317.287C313.601 318.688 313.309 319.418 309.411 325.4L264.167 389.906L338.379 363.35C392.235 344.048 463.041 331.337 488.369 341.005C490.435 341.788 497.128 345.337 490.494 355.055L461.346 401.377C461.346 401.377 504.379 394.853 510.496 393.909C513.878 436.208 535.118 459.275 537.736 461.939L569 493.969L579.977 450.595C587.857 419.382 602.707 402.373 615.956 393.11C615.956 393.126 618.501 410.933 618.501 410.933L647.486 400.49C671.852 391.69 691.139 381.12 705.025 369.061C723.394 367.61 768.268 364.937 811.37 369.199C885.661 376.537 935.491 366.672 948.999 363.467C967.066 359.194 982.295 366.905 982.458 366.99L1004.54 378.987L1016.46 356.642C1017.87 353.961 1024.6 340.013 1024.6 319.335C1024.6 314.212 1024.19 309.039 1023.35 303.96" fill="#FFFFFE"/>
<path d="M1013 308.253C1009.33 285.919 994.197 252.901 942.886 222.238C929.164 214.074 914.263 207.087 899.18 201.147L917.35 195.045L892.392 185.318C880.028 180.497 867.038 176.526 853.642 173.303C856.215 170.698 859.001 167.854 859.001 167.854L839.877 165.165C810.418 161.049 790.081 161.521 778.113 162.638C778.225 160.061 778.312 157.336 778.312 154.587C778.312 150.738 778.166 146.946 777.762 143.88L774.552 119.929C774.552 119.929 762.92 135.801 761.242 138.097C757.397 127.424 751.09 114.197 739.579 101.169L718.914 77.8185L721.254 97.309C702.68 80.0699 676.973 61.9464 641.733 46.8466C561.79 12.5991 460.425 5.52747 363.69 27.4323C282.612 45.7971 165.529 93.7244 68.1825 217.665L43.6538 248.92L80.5886 234.208C81.2763 233.941 149.974 206.759 205.82 199.3C227.716 196.395 242.831 198.983 248.364 206.613C253.527 213.763 251.866 227.908 243.846 244.485C232.869 267.232 210.431 299.891 210.206 300.233L191.708 327.09L222.559 316.4C263.21 302.28 314.462 291.839 326.341 299.599C329.085 301.395 330.564 303.509 331.142 306.465C333.044 316.33 324.542 331.284 321.413 335.769L302.047 363.33L333.793 351.986C384.51 333.818 475.438 312.989 503.545 334.506C516.546 344.466 504.398 364.147 503.854 364.972L491.38 384.816L514.54 381.285L525.871 379.53C525.801 381.344 525.683 383.183 525.683 384.909C525.683 429.692 548.362 453.506 549.454 454.64L562.831 468.339L567.529 449.767C580.692 397.637 611.844 379.59 629.206 373.47C629.688 376.926 632.105 393.811 632.105 393.811L644.494 389.342C674.882 378.386 691.899 366.363 701.241 357.34C715.221 356.119 766.437 352.253 815.615 357.099C888.037 364.266 936.174 354.752 949.209 351.658C973.221 345.988 992.733 356.36 992.94 356.462L1002.47 361.661L1007.59 352.08C1007.92 351.479 1014.09 339.489 1014.09 321.366C1014.09 317.293 1013.77 312.912 1013 308.253Z" fill="#9E7C0C"/>
<path d="M936.513 233.062C915.091 217.928 886.235 206.918 858.24 199.047C869.897 195.283 881.573 195.532 881.573 195.532C863.636 188.683 844.905 184.402 827.484 181.704L834.005 175.86C802.096 170.428 779.821 170.841 766.607 172.216C768.268 165.684 769.618 155.707 767.914 142.387C767.914 142.387 764.042 153.868 754.658 161.001C753.42 146.1 748.652 124.545 732.461 109.919L735.463 136.225C721.199 114.767 694.055 87.3263 642.736 63.3478C503.232 -1.78478 257.417 22.9047 122.481 196.992C122.481 196.992 174.954 170.798 247.651 169.061C285.739 168.168 294.995 189.472 281.118 225.376C267.163 261.463 242.704 293.122 242.704 293.122C242.704 293.122 407.217 234.89 355.28 315.785C355.28 315.785 479.47 278.632 516.722 322.213C534.041 342.436 513.874 370.718 513.874 370.718L549.105 363.105C537.681 407.801 557.683 436.35 557.683 436.35C572.222 377.919 622.922 362.356 640.87 359.408L644.75 375.238C674.827 364.374 688.973 352.817 697.058 343.295C760.75 333.292 803.998 341.843 853.098 344.516C924.617 348.417 961.585 335.973 973.399 336.052C982.07 336.13 992.352 343.684 992.352 343.684C992.352 343.684 1022.08 293.564 936.517 233.062" fill="black"/>
<path d="M877.802 328.118C828.282 328.359 784.163 315.769 724.352 323.141L704.316 307.07C698.905 320.949 691.48 330.387 691.48 330.387C698.088 318.579 691.334 304.552 688.537 297.686C663.896 284.596 623.573 259.554 657.823 251.382C636.487 248.201 571.488 241.79 490.05 265.019C490.05 265.019 565.337 214.787 710.124 238.396C671.006 215.071 585.289 216.034 585.289 216.034C663.399 196.526 757.666 227.378 792.663 238.808L760.047 215.253L801.248 218.818L779.102 200.987C779.102 200.987 866.753 207.199 923.802 245.194C990.477 284.211 982.314 325.179 982.314 325.179C966.672 292.453 850.931 270.091 717.202 254.314C681.491 250.12 666.408 252.45 667.914 260.777C669.343 268.614 689.957 284.093 710.605 292.214C695.841 278.052 708.668 274.442 708.668 274.442C732.139 272.525 883.653 286.698 961.039 319.826C940.072 324.716 913.419 327.921 877.802 328.118ZM434.799 248.288C434.041 248.768 433.258 249.276 432.501 249.784C431.667 250.376 430.823 250.943 429.989 251.511L428.777 252.336C425.146 252.533 421.567 252.653 418.082 252.653L386 254.501C366.951 255.472 334.801 259.331 324.107 260.688L320.492 261.126C345.417 173.991 367.914 143.449 382.978 128.512C391.935 117.597 407.773 110.198 420.471 105.883C335.152 109.948 252.207 127.488 252.207 127.488C305.85 85.9019 430.228 56.8449 501.929 64.1494C573.621 71.4623 568.742 100.511 561.369 117.079C555.398 130.469 526.113 148.618 498.573 154.479C527.084 158.193 543.233 180.176 533.021 202.123C532.143 204.004 531.13 205.826 530.044 207.58C499.614 214.8 472.607 226.246 450.447 238.751C449.672 239.206 448.906 239.653 448.132 240.093C447.099 240.694 446.058 241.297 445.034 241.906L442.677 243.307C441.714 243.891 440.766 244.483 439.828 245.07C439.046 245.569 435.681 247.7 434.795 248.284L434.799 248.288Z" fill="#FFFFFE"/>
<path d="M604 68.9334C758.921 115.117 735.459 203.892 735.459 203.892C735.459 203.892 722.949 204.683 708.194 177.131C694.265 151.125 673.687 147.79 673.687 147.79C673.687 147.79 688.888 146.39 710.234 155.679C710.234 155.679 680.242 110.733 594.622 114.197C594.622 114.197 637.812 119.508 656.103 143.63C656.103 143.63 597.936 134.479 545.618 161.523C545.618 161.523 592.282 153.815 628.072 177.903C628.072 177.903 574.404 173.889 544.947 204.434C571.162 199.594 599.586 198.022 629.363 201.545C648.849 204.501 665.419 208.446 677.61 211.833C647.283 208.49 615.116 208.585 585.287 216.036C585.287 216.036 671.001 215.073 710.122 238.398C565.337 214.789 490.047 265.021 490.047 265.021C571.486 241.792 636.485 248.203 657.821 251.383C623.571 259.555 663.894 284.598 688.535 297.688C691.33 304.554 698.084 318.579 691.486 330.372C675.295 352.562 657.203 357.073 657.203 357.073C667.914 330.02 654.829 310.701 654.829 310.701C654.829 310.701 645.77 338.58 606.487 354.976C563.409 372.99 556.725 399.26 556.725 399.26C556.725 399.26 555.159 375.248 577.923 349.991C585.236 341.844 590.612 335.071 594.011 329.142L545.849 342.325C578.154 248.523 391.694 286.249 391.694 286.249C398.55 276.538 411.775 264.016 429.987 251.512C430.821 250.945 431.665 250.378 432.499 249.786C433.256 249.278 434.039 248.772 434.797 248.29C435.683 247.706 436.57 247.122 437.471 246.563L439.828 245.076C440.766 244.492 441.712 243.899 442.677 243.313L445.034 241.912C446.058 241.303 447.099 240.7 448.132 240.099C448.906 239.661 449.672 239.214 450.447 238.757C472.61 226.254 499.614 214.806 530.044 207.586C531.128 205.832 532.143 204.01 533.021 202.129C543.233 180.18 527.086 158.197 498.573 154.485C526.113 148.624 555.398 130.473 561.369 117.085C568.742 100.517 573.621 71.4684 501.929 64.1555C430.228 56.8511 305.85 85.9058 252.207 127.494C252.207 127.494 335.152 109.954 420.471 105.889C407.773 110.204 391.935 117.604 382.978 128.518C367.914 143.455 345.415 173.997 320.492 261.132L324.107 260.694L292.197 265.688C292.197 265.688 340.986 187.749 308.785 154.602C281.099 126.095 188.803 155.11 188.803 155.11C280.489 67.3993 445.681 21.7487 604 68.9376V68.9334ZM441.526 225.198C436.674 226.427 431.984 226.857 428.036 226.857H409.711C409.711 226.857 417.067 203.945 428.897 178.927H436.081C453.159 178.927 462.631 188.519 451.998 211.395C449.279 217.231 445.639 221.726 441.528 225.198H441.526ZM473.331 146.091C468.16 147.621 462.413 148.506 456.289 148.506H443.436C451.395 130.2 457.753 119.028 462.165 112.377C478.907 112.523 485.712 120.869 476.85 139.868C475.741 142.274 474.552 144.329 473.331 146.089V146.091Z" fill="#241773"/>
<path d="M476.852 139.869C475.743 142.275 474.554 144.329 473.333 146.09C483.598 143.038 491.537 137.368 495.443 130.603C504.03 115.624 497.447 104.881 483.596 103.412L469.203 103.454C469.203 103.454 466.716 105.501 462.165 112.375C478.907 112.521 485.712 120.867 476.85 139.867M451.995 211.394C449.276 217.23 445.637 221.724 441.525 225.196C452.383 222.515 464.118 216.017 470.578 202.13C481.23 179.243 471.74 169.653 454.678 169.653H433.463C431.881 172.756 430.349 175.858 428.895 178.926H436.079C453.157 178.926 462.628 188.518 451.995 211.394Z" fill="black"/>
<path d="M554.833 94.1559C548.132 83.1633 531.767 76.6587 502.714 75.1796C502.714 75.1796 473.299 71.1931 436.081 76.1678C421.352 78.1357 349.755 85.4147 288.791 115.142C342.105 102.173 405.116 97.4209 445.011 95.9778C461.786 95.3853 480.217 95.9101 480.217 95.9101C492.149 95.9101 503.213 99.4332 507.456 106.386C511.853 113.579 513.065 122.208 504.798 132.743C500.247 138.554 494.904 144.671 479.393 150.979L497.272 147.172C523.994 141.465 548.246 126.469 553.822 114.842C557.891 106.35 558.123 99.5454 554.837 94.1559" fill="#9E7C0C"/>
<path d="M425.507 162.223H454.947C470.14 162.223 477.127 168.444 480.327 173.687C485.341 181.895 484.449 192.955 478.236 206.809C466.251 233.528 437.215 235.933 428.499 235.933L395.092 237.205C409.572 191.313 425.507 162.223 425.507 162.223ZM440.821 244.442C462.072 231.344 488.664 218.874 519.026 210.427C520.945 207.875 522.596 205.175 523.912 202.323C526.965 195.782 527.319 187.653 525.141 181.224C521.864 171.469 515.334 164.973 494.753 160.159C467.671 153.843 428.112 156.628 428.112 156.628C437.215 134.549 444.012 121.642 450.817 110.452C444.966 110.074 415.465 113.203 392.813 134.791C373.086 152.21 351.775 197.458 334.826 251.342C363.983 248.282 390.413 246.899 390.413 246.899L418.133 245.703C425.421 245.703 433.085 245.307 440.821 244.44V244.442Z" fill="#9E7C0C"/>
<path d="M687.72 170.79C692.159 181.291 686.042 192.953 674.049 196.846C662.064 200.748 648.737 195.367 644.298 184.865C639.858 174.355 645.984 162.675 657.969 158.8C669.946 154.907 683.281 160.271 687.72 170.79ZM686.628 177.193C684.22 170.893 676.863 167.73 670.178 170.138C663.511 172.518 660.026 179.548 662.444 185.839C664.863 192.146 672.218 195.301 678.903 192.921C685.587 190.524 689.055 183.486 686.628 177.195V177.193Z" fill="#C60C30"/>
<path d="M656.885 186.233C653.546 178.344 658.373 169.474 667.639 166.459C671.217 165.299 674.926 165.17 678.316 165.917C673.689 162.995 667.417 162.085 661.541 164C652.249 167.007 647.431 175.86 650.787 183.802C652.835 188.666 657.516 192.043 662.969 193.211C660.284 191.519 658.125 189.147 656.885 186.233Z" fill="#FFFFFE"/>
</g>
<defs>
<clipPath id="clip0_879_3562">
<rect width="1024" height="493.836" fill="white" transform="translate(0.604004 0.132812)"/>
</clipPath>
</defs>
</svg>
