<svg width="512" height="513" viewBox="0 0 512 513" fill="none" xmlns="http://www.w3.org/2000/svg">
<g clip-path="url(#clip0_795_5170)">
<path fill-rule="evenodd" clip-rule="evenodd" d="M510.43 256.574C510.43 397.086 396.521 511.007 255.997 511.007C115.473 511.007 1.56433 397.086 1.56433 256.574C1.56433 116.063 115.473 2.1416 255.997 2.1416C396.521 2.1416 510.43 116.063 510.43 256.574Z" fill="#FFFFFE"/>
<path fill-rule="evenodd" clip-rule="evenodd" d="M338.557 222.175C336.01 220.982 333.813 219.532 332.163 218.032C316.912 246.245 299.994 253.061 290.806 253.061V247.426C300.397 246.426 315.443 241.321 329.52 216.906C327.382 216.587 324.992 215.853 322.578 214.727C318.104 212.643 314.714 209.748 313.438 207.207C316.202 206.551 320.603 207.279 325.076 209.362C327.659 210.566 329.893 212.048 331.555 213.577C331.133 210.452 331.85 206.346 333.758 202.258C336.07 197.297 339.526 193.654 342.705 192.414C343.795 195.641 343.223 200.633 340.917 205.593C339.014 209.676 336.329 212.866 333.668 214.558C335.908 214.853 338.472 215.606 341.056 216.81C345.535 218.893 348.925 221.795 350.201 224.336C347.437 224.986 343.03 224.258 338.557 222.175ZM255.994 308.434C236.246 286.332 232.465 244.108 232.465 229.604H279.523C279.523 244.108 275.748 286.332 255.994 308.434ZM238.666 138.708C245.205 135.301 252.779 137.384 252.779 137.384L240.876 147.011L238.666 138.708ZM221.182 253.061C212 253.061 195.082 246.245 179.831 218.032C178.176 219.532 175.978 220.982 173.431 222.175C168.958 224.258 164.55 224.986 161.793 224.336C163.063 221.795 166.459 218.893 170.939 216.81C173.516 215.606 176.086 214.853 178.32 214.558C175.659 212.866 172.98 209.676 171.077 205.593C168.765 200.633 168.193 195.641 169.283 192.414C172.462 193.654 175.918 197.297 178.23 202.258C180.139 206.346 180.861 210.452 180.433 213.577C182.101 212.048 184.329 210.566 186.918 209.362C191.391 207.279 195.793 206.551 198.55 207.207C197.28 209.748 193.89 212.643 189.417 214.727C186.996 215.853 184.606 216.587 182.474 216.906C196.545 241.321 211.597 246.426 221.182 247.426V253.061ZM354.126 267.396C368.185 272.984 389.005 281.316 417.627 281.316C433.552 281.316 443.204 273.592 443.204 268.462C443.204 267.758 442.957 265.976 440.735 265.325C429.597 262.074 387.404 250.237 374.543 246.372C369.781 244.939 364.579 241.868 373.483 241.682C380.991 241.519 404.514 242.007 415.773 236.474C428.712 230.116 429.862 222.121 429.862 219.248C429.862 218.574 429.344 218.183 428.748 218.213C398.458 219.736 373.58 219.122 371.882 219.026C369.137 218.875 367.926 217.882 370.726 215.377C373.838 212.638 392.671 196.923 397.085 192.631C403.214 186.682 404.767 181.257 404.767 176.585C404.767 170.167 402.823 166.651 401.691 165.14C401.306 164.628 400.565 164.568 400.101 165.013C381.136 183.425 358.154 195.834 356.848 196.496C354.403 197.73 353.38 196.129 356.041 191.355C357.552 188.639 359.557 186.182 362.965 180.125C368.089 171.034 368.902 161.202 368.637 153.49C368.384 146.331 365.945 138.456 357.793 134.85C357.047 134.524 356.161 134.735 355.65 135.379C354.837 136.421 353.591 138.372 352.362 141.707C349.942 148.27 349.726 157.03 338.124 163.731C331.723 167.428 322.801 173.87 322.801 179.686C322.801 182.1 323.451 184.304 323.451 187.26C323.451 189.795 322.265 190.758 319.76 190.571C316.75 190.355 314.829 189.518 312.222 192.083C304.774 199.404 295.027 211.644 284.96 211.644C280.769 211.644 278.602 206.237 277.573 199.578C276.989 195.87 276.76 191.782 276.735 188.025C276.693 181.029 277.482 175.195 277.482 175.195C277.482 175.195 280.649 176.031 283.997 175.369C291.198 173.93 293.1 168.036 293.1 163.966C293.1 162.731 292.775 161.792 292.601 161.509C292.601 161.509 289.168 165.001 284.713 165.001C280.041 165.001 278.548 159.408 278.548 155.807C278.548 147.011 284.43 142.718 287.411 140.768C291.836 137.866 292.143 135.042 292.143 132.296C292.143 128.835 291.559 126.498 291.559 126.498C289.656 130.123 287.808 133.657 280.625 133.657C272.551 133.657 261.846 132.483 258.023 127.787C257.361 126.974 256.235 126.402 253.219 126.402C238.666 126.402 220.574 128.672 203.68 138.287C201.428 139.57 201.573 141.28 201.843 142.038C202.427 143.651 203.583 146.741 203.583 146.741C203.583 146.741 213.602 139.78 220.418 139.78C223.759 139.78 224.753 141.671 226.522 150.612C223.386 151.738 216.642 152.147 209.11 152.147C195.287 152.147 194.943 147.385 194.943 144.326C194.943 144.145 194.896 143.983 194.54 143.983C193.336 143.983 189.862 145.066 189.862 150.22C189.862 153.887 192.758 158.969 208.045 158.969C217.286 158.969 224.987 155.868 227.45 154.952C228.714 160.438 228.985 162.268 218.587 162.268C212.741 162.268 209.646 161.148 209.646 161.148C209.646 161.148 208.966 163.255 208.966 164.754C208.966 166.019 209.628 166.579 211.615 167.512C214.276 168.765 219.153 170.6 227.534 170.6C231.285 170.6 232.875 169.583 234 169.583C236.264 169.583 237.919 176.598 237.919 178.765C237.919 180.481 235.752 180.565 230.261 180.565C225.631 180.565 225.728 181.143 225.692 181.426C225.511 182.727 231.766 187.886 232.898 187.886C234.566 187.886 238.329 183.551 238.474 183.413C238.474 183.413 238.943 186.086 238.943 191.204C238.943 202.221 233.922 211.644 227.034 211.644C216.962 211.644 207.22 199.404 199.766 192.083C197.165 189.518 195.239 190.355 192.234 190.571C189.723 190.758 188.543 189.795 188.543 187.26C188.543 184.304 189.188 182.1 189.188 179.686C189.188 173.87 180.271 167.428 173.871 163.731C162.269 157.03 162.046 148.27 159.626 141.707C158.397 138.372 157.157 136.421 156.339 135.379C155.833 134.735 154.948 134.524 154.195 134.85C146.049 138.456 143.605 146.331 143.351 153.49C143.087 161.202 143.905 171.034 149.029 180.125C152.431 186.182 154.436 188.639 155.953 191.355C158.614 196.129 157.591 197.73 155.146 196.496C153.84 195.834 130.859 183.425 111.893 165.013C111.429 164.568 110.683 164.628 110.298 165.14C109.171 166.651 107.221 170.167 107.221 176.585C107.221 181.257 108.781 186.682 114.904 192.631C119.323 196.923 138.156 212.638 141.268 215.377C144.062 217.882 142.858 218.875 140.106 219.026C138.415 219.122 113.531 219.736 83.2403 218.213C82.6441 218.183 82.1321 218.646 82.1264 219.248C82.0963 222.121 83.2824 230.116 96.215 236.474C107.48 242.007 131.003 241.519 138.505 241.682C147.416 241.868 142.237 245.023 137.445 246.372C124.585 250.243 82.3915 262.074 71.2527 265.331C69.0374 265.981 68.7843 267.764 68.7843 268.462C68.7843 273.598 78.4417 281.316 94.3604 281.316C122.983 281.316 143.803 272.99 157.861 267.396C164.466 264.669 165.544 267.192 159.102 271.749C147.392 280.04 111.899 304.087 93.7346 315.942C92.2111 316.936 91.8379 319.031 92.9638 320.458C106.125 337.081 133.712 319.488 143.267 314.147C152.208 309.169 170.921 295.502 180 290.288C186.424 286.591 186.075 290.131 183.227 295.182C180.975 299.174 176.622 305.52 167.121 316.062L172.998 320.867C172.998 320.867 167.543 327.767 161.902 333.962C159.607 336.455 153.352 344.077 150.065 344.077C146.819 344.077 143.213 338.219 139.709 336.521C137.277 335.341 133.441 338.249 133.441 338.249C133.441 338.249 131.009 336.749 127.023 336.749C124.783 336.749 122.688 337.021 120.358 338.965C117.251 341.561 118.113 347.16 118.113 347.16C118.877 343.848 121.123 342.632 123.441 342.632C129.925 342.632 131.864 347.129 135.459 349.375C138.704 351.41 142.46 352.326 142.46 352.326C139.348 355.101 131.81 356.233 128.745 359.069C127.583 360.14 127.794 362.675 127.794 362.675C123.381 364.24 121.49 365.655 121.49 368.69C121.49 373.145 124.182 377.059 124.182 377.059C124.561 374.157 125.103 369.973 130.732 368.75C130.732 368.75 131.816 369.701 133.117 369.701C135.916 369.701 144.592 363.897 146.085 361.982C146.085 361.982 146.807 363.367 145.507 365.92C143.032 370.797 142.075 374.133 142.075 376.445C142.075 378.166 142.256 379.148 142.587 379.606C143.207 380.454 144.803 380.28 144.803 380.28C148.156 390.587 155.375 393.724 155.375 393.724C153.454 390.021 152.437 384.253 152.419 381.303C152.419 380.689 152.485 379.979 152.485 379.979C153.581 380.129 154.803 380.033 155.531 379.582C156.615 378.901 157.542 377.329 157.542 373.814C157.542 370.436 155.658 368.076 155.658 365.902C155.658 363.066 157.043 361.23 157.043 361.23C158.849 364.319 163.774 373.061 166.893 373.061C167.844 373.061 168.801 372.682 169.994 372.038C169.994 372.038 173.154 374.175 176.869 381.863C176.869 381.863 178.314 379.124 178.314 375.21C178.314 371.339 175.069 369.021 174.25 368.19C174.25 368.19 175.653 365.993 175.653 364.541C175.653 360.309 162.967 356.564 162.967 350.417C162.967 348.267 166.195 343.957 169.71 339.718C177.453 330.38 180.548 327.032 180.548 327.032L186.105 331.578C194.691 318.88 204.246 303.539 214.848 303.539C219.213 303.539 221.616 306.267 221.616 310.475C221.616 318.085 209.411 332.379 203.944 338.387C196.015 347.099 183.926 355.794 183.926 368.563C183.926 374.837 186.502 383.591 186.502 383.591C188.881 375.03 189.723 371.923 190.747 371.923C191.987 371.923 192.433 377.498 199.17 389.293C200.898 392.321 201.765 393.471 201.765 393.471C201.38 377.637 201.548 370.544 202.939 370.544C203.65 370.544 204.384 372.754 206.365 376.276C209.195 381.303 211.886 385.018 211.886 385.018C211.886 358.395 223.765 345.125 231.026 345.125C236.011 345.125 237.324 350.712 237.324 356.281C237.324 371.664 224.933 380.731 224.933 396.03C224.933 410.264 234.843 416.664 234.843 416.664C234.855 415.688 236.788 402.189 238.925 398.342C239.786 396.801 240.701 396.024 241.676 396.024C243.128 396.024 243.995 397.415 247.896 404.417C250.461 409.023 253.995 413.821 255.994 415.814C257.993 413.821 261.533 409.023 264.092 404.417C267.993 397.415 268.866 396.024 270.311 396.024C271.287 396.024 272.202 396.801 273.063 398.342C275.2 402.189 277.133 415.688 277.145 416.664C277.145 416.664 287.055 410.264 287.055 396.03C287.055 380.731 274.665 371.664 274.665 356.281C274.665 350.712 275.977 345.125 280.962 345.125C288.223 345.125 300.102 358.395 300.102 385.018C300.102 385.018 302.8 381.303 305.629 376.276C307.604 372.754 308.345 370.544 309.055 370.544C310.446 370.544 310.608 377.637 310.229 393.471C310.229 393.471 311.096 392.321 312.824 389.293C319.556 377.498 320.001 371.923 321.247 371.923C322.265 371.923 323.108 375.03 325.492 383.591C325.492 383.591 328.068 374.837 328.068 368.563C328.068 355.794 315.973 347.099 308.05 338.387C302.583 332.379 290.373 318.085 290.373 310.475C290.373 306.267 292.781 303.539 297.146 303.539C307.743 303.539 317.303 318.88 325.889 331.578L331.447 327.032C331.447 327.032 334.535 330.38 342.284 339.718C345.794 343.957 349.027 348.267 349.027 350.417C349.027 356.564 336.335 360.309 336.335 364.541C336.335 365.993 337.744 368.19 337.744 368.19C336.919 369.021 333.674 371.339 333.674 375.21C333.674 379.124 335.125 381.863 335.125 381.863C338.84 374.175 342.001 372.038 342.001 372.038C343.193 372.682 344.15 373.061 345.095 373.061C348.214 373.061 353.139 364.319 354.946 361.23C354.946 361.23 356.336 363.066 356.336 365.902C356.336 368.076 354.446 370.436 354.446 373.814C354.446 377.329 355.379 378.901 356.463 379.582C357.191 380.033 358.414 380.129 359.509 379.979C359.509 379.979 359.57 380.689 359.57 381.303C359.551 384.253 358.54 390.021 356.619 393.724C356.619 393.724 363.832 390.587 367.192 380.28C367.192 380.28 368.787 380.454 369.401 379.606C369.732 379.148 369.919 378.166 369.919 376.445C369.919 374.133 368.956 370.797 366.481 365.92C365.18 363.367 365.903 361.982 365.903 361.982C367.396 363.897 376.078 369.701 378.872 369.701C380.172 369.701 381.262 368.75 381.262 368.75C386.892 369.973 387.427 374.157 387.813 377.059C387.813 377.059 390.498 373.145 390.498 368.69C390.498 365.655 388.607 364.24 384.194 362.675C384.194 362.675 384.405 360.14 383.249 359.069C380.179 356.233 372.64 355.101 369.528 352.326C369.528 352.326 373.291 351.41 376.53 349.375C380.13 347.129 382.063 342.632 388.547 342.632C390.865 342.632 393.117 343.848 393.881 347.16C393.881 347.16 394.743 341.561 391.636 338.965C389.306 337.021 387.211 336.749 384.965 336.749C380.985 336.749 378.547 338.249 378.547 338.249C378.547 338.249 374.717 335.341 372.279 336.521C368.781 338.219 365.175 344.077 361.929 344.077C358.636 344.077 352.387 336.455 350.087 333.962C344.445 327.767 338.991 320.867 338.991 320.867L344.873 316.062C335.366 305.52 331.013 299.174 328.761 295.182C325.919 290.131 325.564 286.591 331.988 290.288C341.068 295.502 359.786 309.169 368.727 314.147C378.282 319.488 405.863 337.081 419.024 320.458C420.156 319.031 419.783 316.936 418.254 315.942C400.089 304.087 364.597 280.04 352.893 271.749C346.444 267.192 347.486 264.753 354.126 267.396ZM244.71 279.346V239.104H267.279V245.286H253.835V255.221H265.364V261.39H253.835V273.164H267.279V279.346H244.71ZM287.783 89.2606C287.783 89.2606 284.147 94.698 280.748 99.9045C278.186 103.821 276.82 108.394 276.82 113.077V115.314H230.773V113.077C230.773 108.394 229.407 103.821 226.845 99.9045C223.446 94.698 219.809 89.2606 219.809 89.2606L240.172 98.4498L253.796 86.3957L267.421 98.4498L287.783 89.2606ZM255.994 453.113C147.632 453.113 59.4704 364.939 59.4704 256.565C59.4704 148.197 147.632 60.0476 255.994 60.0476C364.362 60.0476 452.536 148.197 452.536 256.565C452.536 364.939 364.362 453.113 255.994 453.113ZM255.994 20.2259C125.681 20.2259 19.6488 126.264 19.6488 256.565C19.6488 386.884 125.681 492.916 255.994 492.916C386.326 492.916 492.339 386.884 492.339 256.565C492.339 126.264 386.326 20.2259 255.994 20.2259ZM255.988 504.151C119.485 504.151 8.40809 393.098 8.40809 256.571C8.40809 120.05 119.485 8.98524 255.988 8.98524C392.497 8.98524 503.568 120.05 503.568 256.571C503.568 393.098 392.497 504.151 255.988 504.151ZM255.988 0.574219C114.831 0.574219 -0.00292969 115.427 -0.00292969 256.571C-0.00292969 397.722 114.831 512.574 255.988 512.574C397.157 512.574 511.997 397.722 511.997 256.571C511.997 115.427 397.157 0.574219 255.988 0.574219Z" fill="#D8252C"/>
</g>
<defs>
<clipPath id="clip0_795_5170">
<rect width="512" height="512" fill="white" transform="translate(-0.00292969 0.574219)"/>
</clipPath>
</defs>
</svg>
