<svg width="1024" height="310" viewBox="0 0 1024 310" fill="none" xmlns="http://www.w3.org/2000/svg">
<g clip-path="url(#clip0_842_2420)">
<path fill-rule="evenodd" clip-rule="evenodd" d="M635.278 242.818C575.761 286.168 489.54 309.925 415.243 309.925C311.159 309.925 217.395 271.718 146.5 206.671C140.925 201.517 145.886 195.316 152.587 199.446C229.126 243.842 323.766 270.694 421.535 270.694C487.481 270.694 559.957 257.268 626.677 228.369C636.689 224.227 645.109 235.582 635.278 242.818Z" fill="#FF9900"/>
<path fill-rule="evenodd" clip-rule="evenodd" d="M660.048 213.907C652.425 204.611 609.747 209.776 590.552 211.836C584.75 212.86 583.839 207.706 589.062 203.576C623.115 179.83 678.946 187.055 685.42 194.28C691.94 202.54 683.702 259.338 651.776 286.178C646.861 290.308 642.219 287.202 644.38 282.048C651.583 264.492 667.659 224.238 660.048 213.907Z" fill="#FF9900"/>
<path fill-rule="evenodd" clip-rule="evenodd" d="M591.872 34.2522V10.4954C591.918 7.40067 594.546 4.30591 597.788 4.30591H701.952C705.252 4.30591 707.971 7.40067 707.971 10.4954V31.1461C707.925 34.2522 705.104 38.3824 700.12 45.5959L646.167 123.056C666.214 122.032 687.388 125.115 705.593 135.446C709.712 137.506 710.827 141.636 711.122 144.742V169.523C711.122 172.617 707.391 176.747 703.465 174.677C671.391 158.156 628.873 156.097 593.408 174.677C589.779 176.747 585.967 172.617 585.967 169.523V145.766C585.967 141.636 586.047 135.446 589.858 130.292L652.379 39.4177H597.936C594.58 39.4177 591.906 37.3584 591.872 34.2636V34.2522ZM797.924 35.2762C774.565 35.2762 773.075 67.2933 773.075 86.9086C773.075 106.524 772.779 149.885 797.651 149.885C822.227 149.885 823.364 114.784 823.364 94.1335C823.364 80.7077 822.761 64.1872 818.654 50.7728C815.104 39.4064 807.982 35.2762 797.924 35.2762ZM797.651 2.23516C844.709 2.23516 870.127 42.5125 870.127 94.1335C870.127 143.695 842.035 182.926 797.651 182.926C751.514 182.926 726.335 142.66 726.335 92.0627C726.335 41.4771 751.787 2.23516 797.651 2.23516ZM540.831 179.831C538.726 180.855 534.915 180.855 533.322 179.831C522.502 171.571 515.14 159.18 515.14 159.18C497.732 176.736 485.433 181.89 462.916 181.89C436.235 181.89 415.471 165.381 415.471 132.34C415.471 106.512 429.42 88.968 449.263 80.7077C466.443 72.4474 490.496 71.4234 508.86 69.3527C508.86 69.3527 510.373 49.7374 505.003 42.5011C500.861 36.3116 493.739 34.2522 487.219 34.2522C475.443 34.2522 464.088 40.4417 461.847 52.8321C461.198 55.9269 458.604 59.033 455.851 59.033L425.495 55.9269C423.174 54.9029 420.011 52.8321 420.773 48.702C427.861 11.5308 461.505 0.175781 491.679 0.175781C507.108 0.175781 527.258 4.30591 539.409 15.6609C554.837 30.1107 553.358 49.7374 553.358 70.388V119.95C553.358 135.423 559.525 141.624 565.316 149.885C567.342 152.991 567.797 156.085 565.203 158.145C558.729 163.31 540.831 179.831 540.831 179.831ZM508.86 101.358C508.86 113.76 509.167 124.08 502.943 135.435C497.926 144.73 489.916 149.885 481.007 149.885C468.844 149.885 461.733 140.6 461.733 127.175C461.733 99.299 485.956 95.1688 508.86 95.1688V101.358ZM125.349 179.831C123.255 180.855 119.398 180.855 117.885 179.831C107.065 171.571 99.7035 159.18 99.7035 159.18C82.2955 176.736 69.9847 181.89 47.4795 181.89C20.7531 181.89 0 165.381 0 132.34C0 106.512 13.9492 88.968 33.792 80.7077C50.9724 72.4474 75.0137 71.4234 93.3774 69.3527C93.3774 69.3527 94.902 49.7374 89.5317 42.5011C85.3447 36.3116 78.2564 34.2522 71.7369 34.2522C59.9723 34.2522 48.6172 40.4417 46.3644 52.8321C45.7159 55.9269 43.1332 59.033 40.3911 59.033L10.0124 55.9269C7.69138 54.9029 4.52836 52.8321 5.29067 48.702C12.379 11.5308 46.0231 0.175781 76.197 0.175781C91.6252 0.175781 111.787 4.30591 123.938 15.6609C139.366 30.1107 137.887 49.7374 137.887 70.388V119.95C137.887 135.423 144.054 141.624 149.845 149.885C151.859 152.991 152.326 156.085 149.732 158.145C143.246 163.31 125.349 179.831 125.349 179.831ZM93.3774 101.358C93.3774 113.76 93.6846 124.08 87.4382 135.435C82.4092 144.73 74.4107 149.885 65.4905 149.885C53.339 149.885 46.2165 140.6 46.2165 127.175C46.2165 99.299 70.4512 95.1688 93.3433 95.1688V101.358H93.3774ZM217.998 86.9086C217.998 68.3173 217.134 42.5125 239.912 42.5125C262.394 42.5125 259.425 69.364 259.425 86.9086L259.459 173.641C259.459 176.736 261.962 179.831 265.136 179.831H296.789C300.191 179.831 302.888 176.736 302.888 173.641V86.9086C302.888 77.6129 302.592 64.1872 305.869 55.9269C309.134 47.6666 317.099 42.5011 324.79 42.5011C333.983 42.5011 341.06 45.6072 343.438 56.9623C344.917 63.1632 344.303 80.7077 344.303 86.9086V173.641C344.303 176.736 346.806 179.831 349.98 179.831H381.645C385.035 179.831 387.732 176.736 387.732 173.641L387.777 70.388C387.777 52.8321 389.825 33.2168 379.779 19.7911C370.916 7.40067 356.42 1.21116 343.086 1.21116C324.449 1.21116 307.007 11.5308 299.304 32.1815C290.429 11.5308 278.016 1.21116 258.207 1.21116C238.694 1.21116 224.176 11.5308 216.474 32.1815H215.871V11.5308C215.871 7.40067 213.197 5.34129 209.954 5.34129H180.406C177.129 5.34129 174.49 7.40067 174.49 11.5308V173.641C174.49 176.736 177.163 179.831 180.406 179.831H212.059C215.336 179.831 217.975 176.736 217.975 173.641L217.998 86.9086ZM937.324 173.641C937.324 176.736 934.65 179.831 931.408 179.831H899.755C896.478 179.831 893.838 176.736 893.838 173.641V11.5308C893.838 7.40067 896.512 5.34129 899.755 5.34129H929.018C932.432 5.34129 934.923 8.43605 934.923 9.47143V34.2522H935.538C944.412 12.5662 956.826 2.22378 978.739 2.22378C992.95 2.22378 1006.84 7.38929 1015.72 20.8151C1024 34.2522 1024 55.9269 1024 71.4234V174.665C1023.66 177.76 1021.06 179.831 1017.94 179.831H986.169C983.222 179.831 980.867 177.76 980.526 174.665L980.571 75.5536C980.571 42.5125 967.942 42.5125 960.683 42.5125C952.218 42.5125 945.402 48.702 942.421 54.9029C938.007 65.2225 937.279 74.5182 937.279 85.8732L937.324 173.641Z" fill="black"/>
</g>
<defs>
<clipPath id="clip0_842_2420">
<rect width="1024" height="309.749" fill="white" transform="translate(0 0.175781)"/>
</clipPath>
</defs>
</svg>
