<svg width="1024" height="146" viewBox="0 0 1024 146" fill="none" xmlns="http://www.w3.org/2000/svg">
<g clip-path="url(#clip0_806_445)">
<path d="M273.94 107.49C276.511 108.524 280.32 109.19 285.368 109.497V111.657H228.393V109.497C233.431 109.19 237.251 108.524 239.821 107.49C242.391 106.466 244.173 104.817 245.146 102.544C246.118 100.281 246.61 96.9323 246.61 92.5087V23.6344H246.149L207.084 113.665H206.623L164.772 23.9519H164.311V92.5087C164.311 96.9323 164.823 100.281 165.857 102.544C166.881 104.807 168.663 106.456 171.182 107.49C173.701 108.524 177.49 109.19 182.528 109.497V111.657H139.059V109.497C144.097 109.19 147.886 108.524 150.405 107.49C152.924 106.466 154.706 104.817 155.73 102.544C156.754 100.281 157.276 96.9323 157.276 92.5087V23.4808C157.276 19.0571 156.764 15.7087 155.73 13.4456C154.696 11.1826 152.924 9.53394 150.405 8.4997C147.876 7.4757 144.097 6.79986 139.059 6.49266V4.33202H178.053L213.668 82.0843L248.207 4.33202H285.368V6.49266C280.32 6.79986 276.511 7.4757 273.94 8.4997C271.37 9.53394 269.568 11.2031 268.534 13.5173C267.5 15.8315 266.988 19.1493 266.988 23.4808V92.5087C266.988 96.9323 267.5 100.281 268.534 102.544C269.568 104.817 271.37 106.456 273.94 107.49ZM351.355 55.4501C354.54 61.3176 356.137 67.9531 356.137 75.3669C356.137 82.7807 354.54 89.4162 351.355 95.2837C348.16 101.151 343.716 105.688 338.002 108.872C332.288 112.067 325.775 113.665 318.464 113.665C311.153 113.665 304.671 112.067 299.008 108.872C293.345 105.688 288.891 101.151 285.655 95.2837C282.409 89.4162 280.791 82.7807 280.791 75.3669C280.791 67.9531 282.409 61.3176 285.655 55.4501C288.901 49.5826 293.345 45.0565 299.008 41.8616C304.671 38.6667 311.153 37.0693 318.464 37.0693C325.775 37.0693 332.288 38.6667 338.002 41.8616C343.716 45.0565 348.16 49.5826 351.355 55.4501ZM335.913 75.3669C335.913 68.0555 335.217 61.7784 333.824 56.5253C332.431 51.2722 330.424 47.2888 327.803 44.5547C325.181 41.8309 322.058 40.4587 318.464 40.4587C314.86 40.4587 311.747 41.8207 309.125 44.5547C306.504 47.2888 304.497 51.2722 303.104 56.5253C301.711 61.7784 301.015 68.0555 301.015 75.3669C301.015 82.6783 301.711 88.9554 303.104 94.2085C304.497 99.4616 306.504 103.445 309.125 106.179C311.747 108.913 314.86 110.275 318.464 110.275C322.068 110.275 325.181 108.913 327.803 106.179C330.424 103.455 332.431 99.4616 333.824 94.2085C335.217 88.9554 335.913 82.6783 335.913 75.3669ZM408.494 53.5967C411.167 53.5967 413.594 54.0575 415.754 54.9893V38.0011C414.413 37.3867 412.826 37.0795 410.972 37.0795C406.231 37.0795 402.043 39.1685 398.387 43.3362C394.732 47.5039 391.885 52.2962 389.243 61.8399H388.895V37.6939H388.28L357.704 46.5003V48.5074C361.206 48.5074 363.909 48.8453 365.814 49.5109C367.718 50.1765 369.08 51.2619 369.91 52.757C370.729 54.252 371.149 56.2795 371.149 58.86V97.1576C371.149 100.353 370.842 102.718 370.227 104.264C369.613 105.81 368.476 106.968 366.828 107.736C365.179 108.504 362.557 109.097 358.953 109.507V111.668H401.879V109.507C398.275 109.2 395.571 108.657 393.769 107.889C391.967 107.121 390.707 105.933 389.99 104.336C389.274 102.738 388.905 100.342 388.905 97.1576V66.8063C392.141 59.1979 399.268 53.5967 408.494 53.5967ZM633.825 104.172C633.211 102.575 632.904 100.189 632.904 96.9938V61.7784C632.904 45.2408 623.749 37.0693 611.748 37.0693C599.747 37.0693 592.036 45.5685 588.739 50.0946H588.431V37.6939H587.817L557.24 46.5003V48.5074C560.64 48.5074 563.313 48.8453 565.269 49.5109C567.224 50.1765 568.617 51.2312 569.436 52.6751C570.255 54.1189 570.675 56.1259 570.675 58.6962V96.9835C570.675 100.178 570.368 102.575 569.754 104.162C569.139 105.759 568.003 106.937 566.354 107.715C564.705 108.483 562.084 109.077 558.479 109.487V111.647H598.63V109.487C595.855 109.077 593.715 108.483 592.22 107.715C590.725 106.947 589.722 105.759 589.21 104.162C588.698 102.564 588.442 100.178 588.442 96.9835V55.7061C591.995 51.3951 596.173 47.2581 602.962 47.2581C612.291 47.2581 615.158 54.293 615.158 62.2392V96.9835C615.158 100.178 614.871 102.575 614.308 104.162C613.745 105.759 612.762 106.937 611.369 107.715C609.976 108.483 607.846 109.077 604.959 109.487V111.647H644.649V109.487C641.249 109.077 638.751 108.483 637.164 107.715C635.546 106.947 634.45 105.769 633.825 104.172ZM1024 90.348C1020.59 97.7925 1011.08 113.665 991.724 113.665C973.343 113.665 958.065 98.6322 958.065 75.9915C958.065 68.885 959.611 62.3519 962.693 56.3819C965.786 50.412 969.974 45.7016 975.278 42.2507C980.582 38.7999 986.419 37.0795 992.809 37.0795C1011.35 37.0795 1020.6 50.1458 1020.6 63.765V66.837H974.592C974.592 67.1135 974.582 67.3797 974.582 67.6562C974.582 84.0402 981.873 99.7791 1000.21 99.7791C1014.16 99.7791 1020 92.0581 1022.29 89.2831L1024 90.348ZM974.909 61.6248H1003.77C1003.57 50.4325 1000.23 40.6635 991.109 40.6226C982.549 40.5919 976.343 48.5791 974.909 61.6248ZM819.19 104.172C818.575 102.575 818.268 100.189 818.268 96.9938V61.7784C818.268 56.4229 817.367 51.8968 815.565 48.1899C813.763 44.4831 811.264 41.708 808.079 39.8546C804.885 38.0011 801.229 37.0795 797.112 37.0795C792.371 37.0795 788.183 38.2879 784.527 40.7045C780.872 43.1211 777.4 46.6027 774.103 51.1288H773.796V0.727539H773.181L742.605 9.53394V11.541C746.005 11.541 748.677 11.8789 750.633 12.5445C752.589 13.2101 753.981 14.2648 754.801 15.7087C755.62 17.1525 756.04 19.1595 756.04 21.7298V96.9835C756.04 100.178 755.732 102.575 755.118 104.162C754.504 105.759 753.367 106.937 751.718 107.715C750.07 108.483 747.448 109.077 743.844 109.487V111.647H783.995V109.487C781.22 109.077 779.08 108.483 777.585 107.715C776.09 106.947 775.086 105.759 774.574 104.162C774.062 102.564 773.806 100.178 773.806 96.9835V55.7061C777.359 51.3951 781.537 47.2581 788.326 47.2581C792.136 47.2581 795.116 48.5176 797.286 51.0367C799.447 53.5557 800.533 57.2933 800.533 62.229V96.9835C800.533 100.178 800.246 102.575 799.683 104.162C799.119 105.759 798.136 106.937 796.744 107.715C795.351 108.483 793.221 109.077 790.333 109.487V111.647H830.024V109.487C826.624 109.077 824.125 108.483 822.538 107.715C820.91 106.947 819.814 105.769 819.19 104.172ZM707.031 104.991C684.257 105.145 666.194 86.8357 666.194 57.1295C666.194 25.7336 683.018 7.4245 702.259 7.4245C721.5 7.4245 729.754 24.7608 733.962 41.7899L737.045 41.7387V10.4043C729.815 6.4005 717.957 1.88466 700.723 1.88466C667.484 1.88466 642.396 26.2047 642.396 58.6757C642.396 89.6107 663.327 114.074 699.341 113.921C719.196 113.767 733.041 101.919 739.656 92.8363L737.505 90.5323C733.041 95.6114 724.111 104.838 707.031 104.991ZM936.294 68.7314L925.645 63.6319C918.569 60.4677 914.524 56.2795 914.524 51.1288C914.524 45.292 919.869 41.2984 927.345 41.2984C938.23 41.2984 943.872 47.3195 946.207 60.7032H949.422V41.2472C946.227 40.0082 937.789 37.0795 929.198 37.0795C912.21 37.0795 901.868 47.7599 901.868 60.0888C901.868 64.8299 903.127 68.9669 905.646 72.5202C908.165 76.0735 911.954 79.1352 916.992 81.7055L928.113 87.2658C935.721 90.7371 938.773 94.1573 938.773 99.308C938.773 105.001 934.185 109.456 925.491 109.456C912.783 109.456 906.742 97.4034 905.083 87.7266H901.868V107.643C906.711 110.777 915.825 113.665 924.262 113.665C940.544 113.665 951.9 103.691 951.9 89.58C951.89 79.4117 946.463 73.0527 936.294 68.7314ZM92.1907 64.8709V92.5087C92.1907 96.8299 92.8051 100.148 94.0442 102.472C95.2832 104.786 97.3414 106.466 100.219 107.49C103.096 108.524 107.479 109.19 113.347 109.497V111.657H53.5859V109.497C58.624 109.19 62.4128 108.524 64.9318 107.49C67.4509 106.466 69.2326 104.817 70.2566 102.544C71.2806 100.281 71.8029 96.9323 71.8029 92.5087V23.9519C71.8029 9.8309 65.4234 6.9637 55.7363 6.9637C45.1072 6.9637 38.6048 9.82066 38.6048 23.4911V100.199C38.6048 117.535 27.3408 134.022 5.09952 134.022C3.3792 134.022 1.67936 133.919 0 133.725V131.871C5.28384 131.554 9.56416 129.762 12.8205 126.454C16.425 122.799 18.2272 116.808 18.2272 108.463V23.4808C18.2272 19.1595 17.7152 15.8315 16.681 13.5173C15.6467 11.2031 13.8445 9.53394 11.2742 8.4997C8.704 7.4757 4.94592 6.79986 0 6.49266V4.33202H105.523C129.526 4.33202 144.384 16.3333 144.384 34.4479C144.384 55.1839 124.017 64.8709 105.81 64.8709H92.1907ZM92.1907 60.7237H99.5533C112.077 60.7237 122.614 53.3919 122.614 34.6015C122.614 11.6331 107.448 8.47922 99.9322 8.47922H92.1907V60.7237ZM551.014 105.493C553.564 105.493 555.807 104.377 557.23 103.414V107.08C554.383 109.743 549.1 113.613 541.153 113.613C534.456 113.613 528.835 109.364 527.34 102.882H526.94C524.329 107.817 516.352 114.054 507.648 114.054C497.203 114.054 489.513 107.09 489.513 96.5023C489.513 88.2283 495.176 82.7192 504.596 79.381L526.94 71.3323V60.9592C526.94 51.5282 520.12 47.1762 512.727 47.1762C505.18 47.1762 498.217 50.3711 490.967 57.7643L488.796 55.7368C495.176 45.4354 505.334 37.0181 519.987 37.0181C533.914 37.0181 545.085 46.1624 544.942 60.9592L544.655 97.9563C544.635 103.169 546.816 105.493 551.014 105.493ZM526.94 76.1656L517.949 79.8111C510.986 82.5656 506.491 85.7605 506.491 93.1538C506.491 99.3899 510.843 103.742 516.936 103.742C520.131 103.742 524.769 101.274 526.95 98.5195V76.1656H526.94ZM891.914 105.493C894.474 105.493 896.707 104.367 898.14 103.414V107.08C895.294 109.743 890.01 113.624 882.053 113.624C875.356 113.624 869.734 109.374 868.239 102.892H867.84C865.229 107.828 857.252 114.064 848.548 114.064C838.103 114.064 830.413 107.101 830.413 96.5125C830.413 88.2386 836.076 82.7295 845.496 79.3912L867.84 71.3426V60.9592C867.84 51.5282 861.02 47.1762 853.627 47.1762C846.08 47.1762 839.117 50.3711 831.867 57.7643L829.686 55.7368C836.065 45.4354 846.223 37.0181 860.877 37.0181C874.803 37.0181 885.975 46.1624 885.832 60.9592L885.545 97.9563C885.535 103.169 887.706 105.493 891.914 105.493ZM867.83 76.1656L858.839 79.8111C851.876 82.5656 847.381 85.7605 847.381 93.1538C847.381 99.3899 851.732 103.742 857.825 103.742C861.02 103.742 865.659 101.274 867.84 98.5195V76.1656H867.83ZM471.173 42.1483C477.778 47.2991 480.696 54.7128 480.696 61.0411C480.696 77.6607 466.493 86.2725 450.324 86.2725C446.065 86.2725 441.948 85.6683 438.19 84.4805C436.101 86.0882 434.309 88.1874 434.309 90.645C434.309 95.9288 442.921 96.9938 448.061 97.2907L465.592 98.4991C479.642 99.4104 488.55 104.387 488.55 116.931C488.55 132.793 469.791 145.941 442.47 145.941C426.609 145.941 415.273 140.504 415.273 130.827C415.273 122.42 419.901 117.607 431.8 111.893C424.018 109.63 422.216 104.991 422.216 100.455C422.216 94.2495 427.756 88.6789 435.261 83.3951C426.271 79.6063 419.953 72.1003 419.953 61.0207C419.953 44.4011 434.156 35.7893 450.324 35.7893C457.759 35.7893 463.677 37.4789 468.234 40.1311C471.634 33.301 478.341 25.3547 490.363 25.3547V39.5371C483.942 37.5506 476.109 38.5848 471.173 42.1483ZM427.96 124.201C427.96 132.967 437.934 136.889 450.929 136.889C463.319 136.889 480.082 131.298 480.082 122.379C480.082 117.238 477.215 116.03 469.658 115.426L439.296 113.173C437.514 113.04 435.907 112.835 434.463 112.559C430.09 115.969 427.96 119.471 427.96 124.201ZM461.957 61.0514C461.957 46.8485 457.277 40.0491 450.324 40.0491C443.372 40.0491 438.692 46.8485 438.692 61.0514C438.692 75.2543 443.372 82.0536 450.324 82.0536C457.277 82.0536 461.957 75.2543 461.957 61.0514Z" fill="black"/>
</g>
<defs>
<clipPath id="clip0_806_445">
<rect width="1024" height="145.213" fill="white" transform="translate(0 0.727539)"/>
</clipPath>
</defs>
</svg>
