<svg width="1025" height="386" viewBox="0 0 1025 386" fill="none" xmlns="http://www.w3.org/2000/svg">
<g clip-path="url(#clip0_9_1106)">
<path d="M1024.37 217.15C1024.37 225.417 1017.85 231.868 1009.4 231.868C1001.06 231.868 994.347 225.369 994.347 217.15C994.347 209.075 1001.01 202.624 1009.4 202.624C1017.85 202.624 1024.37 209.075 1024.37 217.15ZM998.089 217.15C998.089 223.649 1002.89 228.762 1009.5 228.762C1015.93 228.762 1020.63 223.602 1020.63 217.246C1020.63 210.747 1015.93 205.538 1009.4 205.538C1002.89 205.538 998.089 210.747 998.089 217.15ZM1007.06 224.796H1003.65V210.269C1005 209.982 1006.86 209.839 1009.27 209.839C1012.05 209.839 1013.29 210.269 1014.35 210.89C1015.17 211.512 1015.78 212.659 1015.78 214.092C1015.78 215.669 1014.54 216.912 1012.76 217.485V217.676C1014.2 218.202 1014.97 219.252 1015.45 221.212C1015.88 223.41 1016.17 224.318 1016.5 224.844H1012.86C1012.42 224.318 1012.14 222.98 1011.71 221.307C1011.42 219.73 1010.56 219.014 1008.69 219.014H1007.1V224.796H1007.06ZM1007.15 216.529H1008.74C1010.61 216.529 1012.14 215.908 1012.14 214.379C1012.14 213.04 1011.18 212.18 1009.03 212.18C1008.11 212.18 1007.49 212.276 1007.15 212.372V216.529Z" fill="black"/>
<path fill-rule="evenodd" clip-rule="evenodd" d="M310.874 0.394043C315.59 59.5803 349.846 90.7879 381.394 119.528C409.193 144.852 434.888 168.262 436.416 207.209C441.527 126.833 402.524 98.3427 366.483 72.0154C340.64 53.1389 316.321 35.3741 310.874 0.394043ZM388.223 26.6759C390.033 49.571 403.288 61.6424 415.493 72.756C426.237 82.5418 436.168 91.5849 436.752 106.62C438.734 75.5676 423.66 64.5572 409.727 54.3803C399.733 47.0801 390.326 40.2087 388.223 26.6759ZM372.25 158.905C358.004 150.542 342.528 141.455 336 119.426C340.865 132.213 351.488 136.996 362.775 142.08C378.525 149.173 395.569 156.848 400.066 187.663C396.384 173.074 384.794 166.269 372.25 158.905Z" fill="#D7AB4E"/>
<path fill-rule="evenodd" clip-rule="evenodd" d="M169.457 248.639L164.662 189.433V189.481H159.531C159.291 194.307 158.523 197.508 157.277 199.086C156.03 200.663 154.544 201.475 152.818 201.475C150.996 201.475 147.495 200.52 142.316 198.56C132.101 194.737 124.189 192.3 118.627 191.153C113.016 190.006 106.83 189.433 99.9249 189.433C81.223 189.433 64.9668 193.4 51.2041 201.427C34.6602 211.175 21.6648 224.985 12.266 242.952C4.30571 258.052 0.373535 273.822 0.373535 290.307C0.373535 313.054 7.42269 333.124 21.5689 350.421C40.4146 373.597 67.9878 385.209 104.385 385.209C116.996 385.209 128.505 383.871 138.815 381.195C149.125 378.519 159.675 374.314 170.32 368.579V311.429C170.32 301.489 171.279 294.799 173.101 291.359C175.739 286.532 180.678 284.144 187.919 284.144H191.372V278.839H118.722V284.144C126.299 284.144 131.574 284.908 134.547 286.389C137.52 287.87 139.726 290.069 141.165 292.984C142.604 295.899 143.322 302.062 143.322 311.429V365.474C137.329 368.914 131.095 371.494 124.62 373.215C118.147 374.936 111.482 375.796 104.576 375.796C92.6359 375.796 81.0791 372.403 69.906 365.521C58.6849 358.688 49.6217 347.937 42.6685 333.314C35.7152 318.644 32.2625 302.302 32.2625 284.334C32.2625 262.353 37.4894 243.43 47.9433 227.518C60.4592 208.643 78.6335 199.23 102.515 199.23C120.065 199.23 134.5 204.628 145.721 215.38C153.393 222.787 159.723 233.873 164.662 248.639H169.457ZM331.492 238.986C316.003 222.978 297.685 214.95 276.584 214.95C255.294 214.95 236.976 222.07 221.678 236.215C204.127 252.509 195.304 273.535 195.304 299.291C195.304 324.569 202.976 345.069 218.225 360.838C233.475 376.703 252.273 384.635 274.667 384.635C296.821 384.635 315.715 376.511 331.347 360.265C346.98 344.066 354.797 323.661 354.797 299.004C354.797 275.016 347.029 254.994 331.492 238.986ZM239.277 239.942C248.004 229.142 259.706 223.742 274.331 223.742C289.868 223.742 302 229.19 310.776 240.085C321.805 253.656 327.319 274.395 327.319 302.254C327.319 327.771 322.284 346.455 312.311 358.306C302.288 370.156 289.629 376.13 274.331 376.13C259.993 376.13 248.484 370.682 239.853 359.787C228.439 345.595 222.734 325.286 222.734 298.861C222.734 272.961 228.248 253.322 239.277 239.942ZM497.698 336.134L501.726 336.994L487.675 380.909H361.606V376.417H367.696C374.553 376.417 379.492 374.171 382.465 369.727C384.144 367.147 385.007 361.269 385.007 352.094V247.54C385.007 237.315 383.856 231.006 381.554 228.522C378.485 224.938 373.834 223.17 367.648 223.17H361.558V218.726H435.263V223.17C426.583 223.075 420.541 223.886 417.04 225.559C413.587 227.231 411.19 229.382 409.943 231.963C408.696 234.543 408.073 240.66 408.073 250.264V352.19C408.073 358.784 408.648 363.324 409.847 365.809C410.854 367.529 412.34 368.724 414.307 369.536C416.273 370.349 422.555 370.731 433.105 370.731H444.901C457.416 370.731 466.192 369.822 471.227 367.959C476.263 366.143 480.866 362.894 485.038 358.259C489.354 353.527 493.525 346.217 497.698 336.134ZM503.502 376.417V380.909V380.957H576.295C607.896 380.957 631.441 372.451 646.882 355.535C660.741 340.435 667.646 321.655 667.646 299.148C667.646 282.28 663.761 267.467 655.993 254.613C648.224 241.806 638.01 232.583 625.303 227.04C612.644 221.498 594.133 218.726 569.869 218.726H503.502V223.17H509.591C515.777 223.17 520.429 224.938 523.642 228.522C525.8 231.006 526.902 237.315 526.902 247.54V352.237C526.902 361.317 526.039 367.194 524.217 369.871C521.34 374.219 516.449 376.417 509.591 376.417H503.502ZM575.527 372.546C568.67 372.546 560.182 371.447 550.064 369.154V231.293C559.223 229 567.375 227.853 574.664 227.853C593.845 227.853 609.575 234.303 621.802 247.206C634.031 260.108 640.168 277.788 640.168 300.295C640.168 322.515 634.031 340.1 621.802 353.05C609.527 366.047 594.133 372.546 575.527 372.546ZM817.597 214.95L821.337 270.285H817.597C812.609 253.752 805.56 241.805 796.305 234.542C787.098 227.279 776.02 223.599 763.121 223.599C752.284 223.599 742.501 226.37 733.821 231.866C725.094 237.362 718.237 246.106 713.201 258.052C708.167 269.999 705.673 284.907 705.673 302.731C705.673 317.401 708.023 330.112 712.77 340.816C717.517 351.52 724.615 359.739 734.109 365.473C743.604 371.208 754.442 374.123 766.574 374.123C777.22 374.123 786.57 371.876 794.627 367.337C802.683 362.845 811.554 353.909 821.337 340.578L824.933 342.966C816.781 357.35 807.238 367.911 796.353 374.648C785.467 381.338 772.568 384.683 757.654 384.683C730.656 384.683 709.797 374.744 694.979 354.818C683.951 340.004 678.387 322.611 678.387 302.444C678.387 286.294 682.032 271.432 689.273 257.861C696.514 244.29 706.536 233.73 719.34 226.275C732.144 218.773 746.05 215.045 761.203 215.045C772.951 215.045 784.556 217.913 795.969 223.695C799.326 225.51 801.772 226.37 803.258 226.37C805.464 226.37 807.334 225.607 808.917 224.125C811.027 221.927 812.465 218.917 813.233 215.045H817.597V214.95ZM970.855 238.986C955.318 222.978 937.048 214.95 915.947 214.95C894.657 214.95 876.338 222.07 861.041 236.215C843.394 252.509 834.619 273.535 834.619 299.291C834.619 324.569 842.243 345.069 857.54 360.838C872.789 376.703 891.636 384.635 913.982 384.635C936.184 384.635 955.078 376.511 970.711 360.265C986.344 344.066 994.156 323.661 994.156 299.004C994.156 275.016 986.392 254.994 970.855 238.986ZM878.64 239.942C887.367 229.142 899.068 223.742 913.694 223.742C929.231 223.742 941.363 229.19 950.186 240.085C961.216 253.656 966.728 274.395 966.728 302.254C966.728 327.771 961.743 346.455 951.721 358.306C941.746 370.156 929.039 376.13 913.741 376.13C899.404 376.13 887.895 370.682 879.263 359.787C867.802 345.595 862.096 325.286 862.096 298.861C862.096 272.961 867.611 253.322 878.64 239.942Z" fill="black"/>
</g>
<defs>
<clipPath id="clip0_9_1106">
<rect width="1024" height="384.815" fill="white" transform="translate(0.37207 0.393555)"/>
</clipPath>
</defs>
</svg>
