<svg width="902" height="513" viewBox="0 0 902 513" fill="none" xmlns="http://www.w3.org/2000/svg">
<g clip-path="url(#clip0_830_296)">
<path d="M508.512 256.046C508.512 397.431 394.678 512.051 254.252 512.051C113.826 512.051 0 397.465 0 256.046C0 114.628 113.834 0.0507812 254.252 0.0507812C394.669 0.0507812 508.512 114.662 508.512 256.046ZM787.439 256.046C787.439 389.142 730.517 497.028 660.308 497.028C590.1 497.028 533.178 389.108 533.178 256.046C533.178 122.985 590.1 15.0647 660.308 15.0647C730.517 15.0647 787.439 122.985 787.439 256.046ZM901.523 256.046C901.523 375.294 881.502 471.956 856.81 471.956C832.118 471.956 812.096 375.26 812.096 256.046C812.096 136.833 832.118 40.1367 856.818 40.1367C881.519 40.1367 901.523 136.807 901.523 256.046Z" fill="black"/>
</g>
<defs>
<clipPath id="clip0_830_296">
<rect width="901.523" height="512" fill="white" transform="translate(0 0.0507812)"/>
</clipPath>
</defs>
</svg>
