<svg width="513" height="513" viewBox="0 0 513 513" fill="none" xmlns="http://www.w3.org/2000/svg">
<g clip-path="url(#clip0_795_4112)">
<path d="M256.554 0.574707C115.398 0.574707 0.553955 115.419 0.553955 256.575C0.553955 397.731 115.398 512.575 256.554 512.575C397.71 512.575 512.554 397.731 512.554 256.575C512.554 115.419 397.71 0.574707 256.554 0.574707Z" fill="#141946"/>
<path d="M256.554 494.128C387.751 494.128 494.107 387.772 494.107 256.575C494.107 125.378 387.751 19.0215 256.554 19.0215C125.357 19.0215 19.0007 125.378 19.0007 256.575C19.0007 387.772 125.357 494.128 256.554 494.128Z" fill="white"/>
<path d="M377.831 369.133L417.901 398.28C488.957 317.488 488.957 195.662 417.901 114.87L377.831 144.016C375.031 141.004 372.125 138.098 369.112 135.298L398.259 95.2281C317.467 24.1714 195.641 24.1714 114.849 95.2281L143.995 135.298C140.983 138.098 138.077 141.004 135.277 144.016L95.2071 114.87C24.1504 195.662 24.1504 317.488 95.2071 398.28L135.277 369.133C138.077 372.146 140.983 375.052 143.995 377.852L114.849 417.922C195.641 488.978 317.467 488.978 398.259 417.922L369.112 377.852C372.125 375.052 375.031 372.146 377.831 369.133ZM256.554 408.067C173.024 408.067 105.061 340.105 105.061 256.575C105.061 173.045 173.024 105.082 256.554 105.082C340.084 105.082 408.046 173.045 408.046 256.575C408.046 340.105 340.084 408.067 256.554 408.067Z" fill="#7CCDEF"/>
<path d="M265.792 239.924L256.554 201.627L247.293 239.924L210.83 229.112L238.07 256.567L210.83 284.022L247.293 273.241L256.554 311.522L265.792 273.241L302.285 284.022L275.023 256.567L302.285 229.112L265.792 239.924Z" fill="#FF0000"/>
<path d="M360.267 228.971V191.862L321.266 152.861H191.842L152.841 191.862V237.542L133.808 256.575L152.841 275.608V321.287L191.842 360.288H321.266L360.267 321.287V284.178H320.91V309.392L309.372 320.931H203.736L192.198 309.392V203.757L203.736 192.219H309.372L320.91 203.757V228.971H360.267Z" fill="#FF0000"/>
</g>
<defs>
<clipPath id="clip0_795_4112">
<rect width="512" height="512" fill="white" transform="translate(0.553955 0.574707)"/>
</clipPath>
</defs>
</svg>
