<svg width="1112" height="513" viewBox="0 0 1112 513" fill="none" xmlns="http://www.w3.org/2000/svg">
<g clip-path="url(#clip0_857_343)">
<path d="M1111.58 175.564C1111.6 220.793 1094.16 264.285 1062.9 296.97C1031.64 329.656 988.966 349.011 943.781 351C898.596 352.988 854.387 337.456 820.375 307.643C786.362 277.831 765.172 236.038 761.223 190.982C771.576 192.039 781.789 194.184 791.694 197.381C797.19 234.526 816.729 268.147 846.281 291.313C875.834 314.479 913.147 325.424 950.531 321.892C987.914 318.36 1022.52 300.621 1047.21 272.33C1071.9 244.039 1084.8 207.354 1083.24 169.837C1081.68 132.319 1065.79 96.8284 1038.84 70.681C1011.89 44.5336 975.935 29.7221 938.388 29.3C900.84 28.8779 864.562 42.8773 837.03 68.4122C809.499 93.9471 792.814 129.071 790.414 166.545C780.88 164.087 771.156 162.435 761.344 161.608C765.107 116.521 786.13 74.6269 820.029 44.6623C853.928 14.6977 898.086 -1.02401 943.294 0.775827C988.502 2.57566 1031.27 21.7581 1062.68 54.3228C1094.09 86.8875 1111.71 130.32 1111.88 175.564H1111.58Z" fill="#F0282D"/>
<path d="M745.987 190.311C780.996 190.313 814.842 202.872 841.378 225.706C867.914 248.541 885.38 280.137 890.602 314.754C900.388 317.923 910.478 320.068 920.707 321.152C916.868 277.457 896.8 236.784 864.459 207.151C832.119 177.517 789.851 161.073 745.987 161.059C740.807 161.059 735.749 161.059 730.813 161.729C730.813 166.299 731.3 170.931 731.3 175.685C731.3 180.438 731.3 186.045 730.63 191.103C735.731 190.561 740.858 190.296 745.987 190.311ZM891.699 345.468C890.048 371.991 881.202 397.563 866.112 419.436C851.022 441.31 830.257 458.66 806.049 469.621C781.841 480.582 755.104 484.74 728.71 481.649C702.317 478.559 677.264 468.336 656.243 452.078C635.222 435.821 619.027 414.144 609.399 389.375C599.771 364.607 597.072 337.683 601.594 311.496C606.115 285.31 617.686 260.85 635.062 240.744C652.439 220.639 674.965 205.647 700.22 197.38C701.324 190.16 701.875 182.866 701.866 175.563C701.866 172.515 701.866 169.469 701.866 166.543C670.674 174.634 642.311 191.157 619.888 214.299C597.464 237.442 581.844 266.311 574.74 297.743C567.637 329.174 569.324 361.954 579.616 392.491C589.908 423.027 608.409 450.141 633.09 470.859C657.771 491.578 687.679 505.101 719.537 509.948C751.395 514.795 783.972 510.777 813.697 498.336C843.423 485.895 869.15 465.51 888.058 439.416C906.966 413.322 918.325 382.526 920.89 350.404C911.038 349.586 901.272 347.934 891.699 345.468Z" fill="#00A651"/>
<path d="M555.788 0.0508695C511.654 0.0490493 469.139 16.6746 436.714 46.6151C404.289 76.5555 384.334 117.613 380.825 161.607C390.615 162.44 400.318 164.091 409.833 166.544C411.484 140.021 420.329 114.449 435.419 92.5752C450.51 70.7013 471.274 53.3519 495.482 42.3909C519.691 31.4299 546.428 27.2714 572.821 30.3621C599.215 33.4529 624.268 43.676 645.289 59.9334C666.31 76.1908 682.504 97.868 692.133 122.636C701.761 147.405 704.459 174.329 699.938 200.515C695.416 226.702 683.846 251.162 666.469 271.267C649.093 291.373 626.567 306.365 601.312 314.632C600.256 321.856 599.726 329.148 599.727 336.449C599.727 339.496 599.727 342.543 599.727 345.468C641.085 334.756 677.115 309.327 701.064 273.949C725.012 238.57 735.234 195.671 729.814 153.294C724.394 110.917 703.702 71.9725 671.62 43.7608C639.538 15.5492 598.267 0.00805119 555.544 0.0508695H555.788ZM555.788 321.823C520.769 321.835 486.908 309.283 460.359 286.447C433.81 263.611 416.336 232.007 411.113 197.38C401.307 194.204 391.197 192.059 380.947 190.981C384.801 234.692 404.89 275.374 437.254 305.008C469.617 334.642 511.907 351.077 555.788 351.075C560.907 351.075 565.965 351.075 570.963 350.405C570.658 345.834 570.414 341.142 570.414 336.449C570.414 331.757 570.719 326.089 571.145 321.031C566.044 321.571 560.918 321.836 555.788 321.823Z" fill="black"/>
<path d="M350.354 191.103C350.78 186.045 351.024 180.865 351.024 175.685C351.024 170.505 351.024 166.299 350.537 161.729C355.473 161.302 360.531 161.059 365.711 161.059C409.588 161.07 451.87 177.511 484.231 207.142C516.591 236.773 536.684 277.446 540.553 321.152C530.2 320.091 519.987 317.946 510.082 314.754C504.866 280.178 487.436 248.615 460.951 225.786C434.465 202.956 400.678 190.371 365.711 190.311C360.584 190.256 355.457 190.479 350.354 190.981V191.103ZM540.614 350.526C538.046 382.645 526.686 413.436 507.779 439.527C488.872 465.617 463.148 486 433.426 498.44C403.704 510.881 371.13 514.9 339.276 510.056C307.421 505.212 277.514 491.693 252.833 470.98C228.152 450.267 209.649 423.16 199.352 392.629C189.055 362.098 187.361 329.321 194.456 297.891C201.551 266.461 217.161 237.591 239.575 214.444C261.989 191.297 290.343 174.767 321.528 166.665C321.528 169.651 321.528 172.759 321.528 175.685C321.537 182.988 320.987 190.282 319.883 197.502C294.628 205.769 272.102 220.761 254.725 240.866C237.349 260.972 225.778 285.432 221.257 311.618C216.735 337.805 219.434 364.728 229.062 389.497C238.69 414.265 254.885 435.943 275.906 452.2C296.926 468.457 321.979 478.681 348.373 481.771C374.767 484.862 401.504 480.704 425.712 469.742C449.92 458.781 470.685 441.432 485.775 419.558C500.865 397.685 509.711 372.113 511.362 345.59C520.958 348.02 530.744 349.631 540.614 350.404V350.526Z" fill="#FFB114"/>
<path d="M351.024 175.563C351.024 140.85 340.731 106.917 321.445 78.0538C302.16 49.191 274.748 26.695 242.678 13.4109C210.607 0.126828 175.317 -3.3489 141.271 3.42327C107.225 10.1954 75.9522 26.9115 51.4064 51.4573C26.8606 76.0031 10.1447 107.276 3.37249 141.322C-3.39968 175.368 0.0760466 210.658 13.3601 242.729C26.6442 274.799 49.1401 302.21 78.0029 321.496C106.866 340.781 140.799 351.075 175.512 351.075C180.631 351.075 185.689 351.075 190.687 350.405C190.382 345.834 190.138 341.142 190.138 336.449C190.138 331.757 190.443 326.089 190.808 321.031C185.728 321.574 180.622 321.838 175.512 321.823C138.736 321.69 103.359 307.708 76.4299 282.661C49.5007 257.614 32.9955 223.342 30.2025 186.672C27.4095 150.001 38.5338 113.624 61.3591 84.7883C84.1843 55.9521 117.035 36.7729 153.367 31.0719C189.699 25.3708 226.846 33.5662 257.406 54.0254C287.967 74.4846 309.698 105.706 318.271 141.469C326.844 177.233 321.629 214.913 303.666 247.004C285.702 279.095 256.308 303.241 221.34 314.632C220.284 321.856 219.755 329.148 219.756 336.449C219.756 339.496 219.756 342.543 219.756 345.468C257.352 335.664 290.634 313.666 314.388 282.92C338.143 252.173 351.027 214.416 351.024 175.563Z" fill="#0078D0"/>
</g>
<defs>
<clipPath id="clip0_857_343">
<rect width="1111.88" height="512" fill="white" transform="translate(0 0.0507812)"/>
</clipPath>
</defs>
</svg>
