<svg width="767" height="513" viewBox="0 0 767 513" fill="none" xmlns="http://www.w3.org/2000/svg">
<g clip-path="url(#clip0_879_3641)">
<path d="M80.8843 363.442C134.19 329.401 150.958 291.053 150.958 291.053L0.00537109 312.722L64.1555 198.759L193.046 187.905C193.046 187.905 243.19 143.145 320.828 111.051C320.828 111.051 328.924 96.9293 373.264 71.4021C373.264 71.4021 413.931 47.4476 460.243 32.1201C460.243 32.1201 491.632 21.3216 500.894 20.7783L498.171 10.7939L557.355 5.7217L558.88 0.0507812C558.88 0.0507812 589.773 2.13578 607.492 9.97977L610.982 5.33177C610.982 5.33177 652.328 24.3414 683.1 71.0513C683.1 71.0513 712.947 69.3905 739.664 82.1778C739.664 82.1778 767.978 93.4396 766.7 126.317C766.7 126.317 766.509 168.266 753.972 209.84C753.972 209.84 752.047 216.35 750.258 220.232C750.258 220.232 747.655 225.528 742.633 232.214C742.633 232.214 728.612 246.655 723.175 259.371C723.175 259.371 720.228 267.83 714.375 283.196C714.375 283.196 709.872 304.33 679.178 305.505C679.178 305.505 649.306 343.317 636.85 354.171L635.796 344.986C635.796 344.986 614.956 364.299 596.87 375.704L602.978 322.173C602.978 322.173 604.479 312.613 598.41 311.926L582.8 311.551C582.8 311.551 587.91 343.772 581.738 358.669C581.738 358.669 577.81 382.056 541.535 393.19C541.535 393.19 513.508 402.113 481.44 404.62L474.549 403.525L424.069 424.22L438.825 371.272C438.825 371.272 419.909 373.189 418.28 370.817L362.067 394.923L384.162 331.592L399.302 323.204L394.471 316.639L363.394 316.918L351.959 325.816C325.56 318.94 299.898 320.793 299.898 320.793L169.274 426.84L136.544 499.213L97.4582 446.937L109.691 430.93L105.044 427.433L87.3269 441.378L61.0965 512.051L22.4655 457.513L32.3994 435.348L30.2034 421.77C41.7019 414.174 49.1429 409.085 54.9557 402.553C58.1256 398.463 59.8745 397.042 63.5551 390.165C67.0284 381.764 67.1557 372.665 71.0287 369.782C75.8758 366.492 79.5808 364.279 80.8827 363.449" fill="#FFFFFE"/>
<path d="M71.4872 210.182L21.5421 298.226L666.003 202.147C666.003 202.147 643.604 185.11 676.072 158.168L71.4872 210.182Z" fill="#C60C30"/>
<path d="M725.664 145.907L210.981 188.201C266.251 142.961 342.203 115.525 342.203 115.525L335.455 111.818L348.096 105.868L349.908 100.421C449.327 33.8383 519.409 30.5884 519.409 30.5884L516.247 21.1799C550.23 17.6331 565.809 17.7457 565.809 17.7457L567.111 14.1826C592.751 13.8955 610.86 26.363 610.86 26.363L614.708 20.6285C667.702 57.3229 675.369 84.0885 675.369 84.0885C713.815 80.9414 734.352 92.275 734.352 92.275C761.987 104.16 753.738 144.504 753.738 144.504C753.802 152.276 746.129 193.059 746.129 193.059C739.773 221.198 728.332 231.917 728.332 231.917C713.553 246.47 709.967 261.262 709.967 261.262C702.317 282.316 699.61 285.032 699.61 285.032C693.709 294.705 669.787 294.225 669.787 294.225C664.198 307.732 642.407 331.334 642.407 331.334L640.41 324.609L611.649 350.241L616.152 314.578C617.797 302.413 604.694 299.617 604.694 299.617L541.814 302.365C532.615 345.169 499.574 351.711 499.574 351.711C451.937 361.351 420.277 359.387 420.277 359.387L418.241 357.853L381.863 373.691L394.686 338.141L414.073 330.44C415.566 329.96 415.022 327.964 415.022 327.964L413.171 322.268C433.141 320.464 451.369 306.437 451.369 306.437C453.693 304.552 450.211 303.753 450.211 303.753L357.659 305.797L350.362 312.802C270.418 299.568 215.666 322.939 215.666 322.939C153.608 346.063 115.872 405.136 115.872 405.136L77.3131 434.761L57.8385 487.349L36.3116 456.43L45.1034 436.246L43.7624 426.837C62.5355 414.825 70.6388 400.695 70.6388 400.695C77.1777 391.99 76.667 384.792 76.667 384.792C77.1385 379.025 82.4081 375.933 82.4081 375.933C154.264 332.474 165.098 286.579 165.098 286.579L671.765 209.884C663.516 248.416 694.705 234.374 694.705 234.374C674.527 220.133 692.788 210.013 692.788 210.013C675.341 180.324 725.661 145.907 725.661 145.907H725.664ZM548.13 310.271L569.873 310.023C569.873 310.023 574.224 338.729 571.646 351.533C571.646 351.533 567.359 370.567 547.931 378.011C547.931 378.011 519.314 390.128 476.404 392.876L474.327 391.094L441.798 404.824L452.482 366.98C452.482 366.98 496.087 363.609 509.261 359.663C509.261 359.663 543.068 353.018 548.13 310.269V310.271ZM280.296 321.508L159.877 419.098L133.862 476.758L110.779 445.814L123.786 427.883L122.772 420.75C150.152 405.431 150.296 382.842 150.296 382.842C203.14 320.581 280.296 321.508 280.296 321.508Z" fill="#00338D"/>
</g>
<defs>
<clipPath id="clip0_879_3641">
<rect width="766.737" height="512" fill="white" transform="translate(0.00537109 0.0507812)"/>
</clipPath>
</defs>
</svg>
