<svg width="1025" height="314" viewBox="0 0 1025 314" fill="none" xmlns="http://www.w3.org/2000/svg">
<g clip-path="url(#clip0_9_1032)">
<path d="M501.953 19.4875H528.377V103.221C528.377 117.978 523.916 129.302 514.65 136.852C493.717 152.295 465.577 152.295 444.643 136.852C435.378 129.302 430.917 117.978 430.917 103.221V19.4875H457.341V103.221C457.341 111.801 459.4 117.635 463.518 121.409C473.127 128.959 486.854 128.959 496.462 121.409C500.58 117.635 502.296 111.458 502.296 103.221L501.953 19.4875ZM586.373 70.6201C579.853 70.2769 573.333 73.7086 570.244 79.5425V146.461H544.85V52.0888H568.528L569.215 62.7271C575.735 54.491 586.03 49.6866 596.325 50.0298C604.218 49.6866 612.111 52.4319 617.945 57.9227C623.436 63.4134 626.181 72.6791 626.181 86.0628V146.118H600.787V86.406C600.787 80.2289 599.414 76.1108 597.012 74.0518C594.266 71.6496 590.491 70.2769 586.373 70.6201ZM643.34 27.7236C643.34 24.2919 644.713 20.8601 647.115 18.4579C652.949 13.6535 661.871 13.6535 667.705 18.4579C670.107 20.8601 671.823 24.2919 671.48 27.7236C671.48 31.1553 670.107 34.587 667.705 36.9892C661.871 41.7936 652.949 41.7936 647.115 36.9892C644.713 34.587 643.34 31.1553 643.34 27.7236ZM670.45 52.0888V146.461H645.056V52.0888H670.45ZM735.996 146.118C731.192 147.834 726.044 148.52 720.897 148.52C713.69 148.863 706.827 146.461 700.993 142C696.188 137.882 693.786 130.675 693.786 120.38V70.6201H679.716V52.0888H693.786V28.7531H719.181V52.0888H735.31V70.6201H719.181V117.978C718.838 120.723 719.524 123.812 721.583 125.871C723.642 127.243 726.387 127.93 728.79 127.93C730.162 127.93 731.535 127.93 732.908 127.587C734.28 127.587 735.31 127.243 735.996 127.243V146.118ZM827.28 131.361C823.505 136.166 819.044 140.284 813.553 143.029C806.346 146.804 798.454 148.52 790.561 148.52C775.804 148.52 764.136 144.059 755.9 135.136C747.664 126.214 743.203 114.889 743.546 102.878V99.4465C742.86 86.7491 747.321 74.0518 755.557 64.443C763.793 55.1773 775.461 50.0298 787.815 50.7161C801.542 50.7161 811.837 54.8342 818.701 63.4134C825.564 71.9927 829.339 83.3174 829.339 97.0443V107.683H769.284C769.97 113.173 772.372 118.664 776.491 122.439C780.609 126.214 786.443 128.273 792.276 127.93C801.199 128.273 809.778 124.498 814.926 117.291L827.28 131.361ZM787.472 70.6201C782.668 70.2769 778.206 72.3359 775.118 76.1108C772.029 80.2289 769.97 85.0333 769.284 90.1809H804.287V88.1218C804.287 83.6606 802.915 79.1993 800.169 75.4245C797.081 71.9927 792.276 70.2769 787.472 70.6201ZM899.689 146.804L898.317 136.852C895.571 140.284 892.139 143.372 888.021 145.432C883.903 147.491 879.099 148.52 874.294 148.52C863.313 148.863 853.018 143.716 847.184 134.793C840.32 124.498 836.889 112.487 837.575 100.476V98.7601C837.575 84.3469 840.664 72.6791 847.184 63.7566C853.361 54.8342 863.656 50.0298 874.638 50.3729C883.56 50.0298 891.796 53.8046 897.287 60.6681V12.624H922.682V146.804H899.689ZM862.627 100.476C862.283 106.996 863.656 113.86 866.745 119.694C869.49 124.841 874.981 128.273 880.815 127.587C887.678 127.93 894.198 124.155 897.287 117.978V80.572C894.542 74.3949 888.021 70.2769 880.815 70.6201C874.981 70.2769 869.49 73.3654 866.745 78.8562C863.656 85.0333 862.283 91.8967 862.627 98.7601V100.476ZM535.241 171.513V298.829H509.16L458.027 214.752V298.829H431.603V171.513H458.027L509.16 255.59V171.513H535.241ZM609.023 298.829C607.65 296.084 606.964 293.339 606.62 290.25C603.875 293.339 600.787 295.741 597.012 297.457C592.55 299.516 587.746 300.545 582.598 300.545C574.362 300.888 566.126 297.8 559.949 292.652C553.772 287.505 550.683 280.298 550.683 272.405C550.34 263.483 554.458 254.56 561.665 249.413C568.872 243.922 579.853 241.176 594.266 241.176H605.591V235.686C605.934 231.911 604.561 228.136 602.159 225.047C599.414 222.302 595.639 220.929 591.521 221.272C582.598 221.272 578.137 225.047 578.137 232.597H552.743C552.743 224.361 556.861 216.468 563.724 211.321C572.303 205.143 582.598 202.055 592.894 202.398C602.502 202.055 612.111 204.8 620.004 210.634C627.211 216.125 630.642 224.361 630.642 235.686V275.494C630.642 279.955 630.986 284.073 631.672 288.534C632.358 291.623 633.045 294.368 634.417 297.113V298.829H609.023ZM588.089 281.328C591.864 281.328 595.639 280.298 599.071 278.582C601.816 277.21 603.875 274.807 605.591 272.405V255.933H595.296C590.148 255.59 584.658 256.962 580.539 260.051C577.451 262.796 575.735 266.571 575.735 270.346C575.735 273.435 576.765 276.18 578.824 278.239C581.569 280.298 585.001 281.328 588.089 281.328ZM695.502 298.143C693.1 298.829 691.041 299.516 688.639 299.859C685.893 300.202 683.148 300.545 680.402 300.545C673.196 300.888 666.332 298.486 660.498 294.025C655.694 289.907 653.292 282.7 653.292 272.405V222.645H639.222V204.114H653.292V180.778H678.687V204.114H694.816V222.645H678.687V270.003C678.343 272.748 679.03 275.837 681.089 277.896C683.148 279.269 685.893 279.955 688.295 279.955C689.668 279.955 691.041 279.955 692.413 279.612C693.786 279.612 694.816 279.269 695.502 279.269V298.143ZM706.14 179.749C706.14 176.317 707.513 172.885 709.915 170.483C715.749 165.679 724.672 165.679 730.505 170.483C735.653 175.631 735.653 183.867 730.505 189.358C724.672 194.162 715.749 194.162 709.915 189.358C707.17 186.612 705.797 183.18 706.14 179.749ZM732.908 204.114V298.829H707.513V204.114H732.908ZM747.321 252.501V250.785C746.978 238.431 751.096 226.077 758.989 216.468C766.882 207.202 777.863 202.741 791.933 202.741C806.346 202.741 817.328 207.202 825.221 216.468C833.114 226.077 837.232 238.431 836.889 250.785V252.501C837.232 264.855 833.114 277.21 825.221 286.818C817.328 296.084 806.346 300.545 792.276 300.545C777.863 300.545 766.882 296.084 758.989 286.818C751.096 277.21 746.978 264.855 747.321 252.501ZM772.716 250.442V252.158C772.372 259.021 774.088 265.885 777.177 271.719C782.668 279.955 793.992 282.357 802.228 276.866C804.287 275.494 806.003 273.778 807.376 271.719C810.465 265.542 811.837 259.021 811.837 252.158V250.442C812.18 243.579 810.465 237.058 807.376 230.881C804.287 225.391 798.454 221.959 792.276 222.645C786.099 222.302 780.265 225.391 777.177 230.881C774.088 237.058 772.372 243.922 772.716 250.442ZM891.11 222.988C884.59 222.645 878.069 226.077 874.981 232.254V298.829H849.586V204.114H873.265L874.294 215.095C880.815 206.859 890.767 202.055 901.405 202.398C909.641 202.055 917.534 204.8 923.368 210.291C928.859 215.782 931.604 225.047 931.604 238.431V298.829H906.209V238.431C906.209 232.254 904.837 228.136 902.435 226.077C899.003 223.675 894.885 222.645 891.11 222.988ZM999.552 272.405C999.552 269.66 998.18 266.914 995.777 265.542C990.973 262.796 985.482 261.08 980.335 260.394C971.755 258.678 963.519 255.59 956.313 250.785C950.135 246.667 946.361 239.461 946.704 231.911C946.704 224.018 950.479 216.468 956.656 211.321C963.519 205.487 972.442 202.398 984.453 202.398C996.464 202.398 1006.42 205.143 1013.62 210.977C1020.49 216.125 1024.26 224.361 1024.26 232.94H998.866C998.866 229.509 997.836 226.42 995.434 224.018C992.346 221.616 988.571 220.243 984.453 220.586C981.021 220.243 977.589 221.272 974.501 223.332C972.442 225.047 971.069 227.793 971.069 230.538C971.069 233.283 972.442 236.029 974.844 237.402C978.962 239.804 983.766 241.176 988.571 241.863C997.493 243.579 1006.07 246.667 1013.97 251.128C1020.83 255.246 1024.26 262.11 1024.26 271.376C1024.26 279.612 1020.14 287.161 1013.62 291.966C1006.42 297.457 996.807 300.202 984.453 300.202C971.412 300.202 961.117 296.77 954.254 289.907C947.733 284.416 943.958 276.523 943.615 268.287H967.637C967.637 272.405 969.696 276.523 973.128 278.925C976.56 280.984 980.678 282.357 985.139 282.014C994.405 282.7 999.552 279.269 999.552 272.405Z" fill="black"/>
<path d="M296.737 285.445C286.785 290.25 275.804 291.622 264.822 289.22C257.272 287.504 250.409 285.102 243.546 282.014L228.446 275.837C215.405 271.719 201.335 271.375 187.952 274.807H186.579C173.195 271.032 159.125 271.375 146.085 275.837C140.937 277.552 136.133 279.955 130.985 282.014C124.122 285.102 116.915 287.848 109.708 289.563C99.0701 291.966 87.7455 290.593 77.7935 285.789L76.4208 285.102C76.0776 285.102 76.0776 285.102 76.0776 285.445C82.5979 292.309 91.1772 297.113 100.1 299.515C106.277 301.231 112.797 301.574 118.974 300.888C128.583 299.515 137.849 296.084 145.742 290.593L160.155 280.984C165.645 277.552 172.166 276.18 178.343 277.552C181.775 277.896 179.029 279.611 178.686 279.955C170.107 284.073 161.871 289.22 154.321 295.054C149.173 298.829 139.908 307.752 139.908 307.752L146.771 313.586L154.321 305.349C163.586 295.741 174.225 287.504 185.893 280.984C186.922 280.298 187.952 280.298 188.981 280.984C200.649 287.504 211.287 295.741 220.553 305.349L228.103 313.586L234.966 307.752L220.553 295.054C213.003 289.22 204.767 284.073 196.188 279.955C195.501 279.611 193.099 277.896 196.531 277.552C202.708 276.18 209.228 277.552 214.719 280.984L229.132 290.593C237.025 296.084 246.291 299.515 255.9 300.888C262.077 301.574 268.597 301.231 274.774 299.515C283.697 296.77 292.276 291.966 298.796 285.445C298.796 285.445 298.453 285.102 298.11 285.102L296.737 285.445ZM330.368 255.589C325.907 259.021 321.102 261.423 315.955 263.139C308.748 265.198 300.855 266.571 293.305 266.571C283.353 266.914 273.745 267.6 263.793 268.973C263.106 268.973 262.763 268.973 263.106 268.63C271.686 265.198 278.549 258.335 282.324 250.099L291.933 230.538C291.933 230.195 291.933 230.195 291.933 229.852C291.246 230.195 281.638 238.431 277.176 242.549L261.047 258.335C253.841 264.512 245.261 268.973 235.996 271.375H235.653L235.309 271.719L253.841 276.18C261.734 278.582 269.97 279.955 278.206 280.641C299.139 282.7 319.386 273.091 331.054 255.933C331.054 255.589 330.711 255.589 330.368 255.589ZM360.567 209.604C355.763 215.438 349.929 220.586 343.409 224.704C337.918 228.479 332.084 231.567 325.907 234.313C318.014 237.401 310.807 241.863 304.287 247.01L302.914 248.04C302.571 248.04 302.571 248.04 302.571 247.697C302.571 247.353 312.866 237.058 315.955 215.438C316.298 207.545 317.671 199.996 319.386 192.446C319.386 192.103 319.386 192.103 319.386 191.76C312.18 200.682 306.689 210.634 302.914 221.272L296.737 238.774C294.335 246.667 289.874 253.874 284.04 259.708L283.353 260.394V260.737C284.04 260.737 284.726 260.394 285.412 260.394L305.316 256.276C316.298 254.56 326.593 250.099 335.516 243.578C344.781 237.058 351.988 228.136 357.135 218.184C358.508 215.438 359.538 212.693 360.567 209.948C361.253 209.261 360.91 209.261 360.567 209.604ZM373.608 158.129C370.519 167.394 365.028 175.974 357.822 182.837C349.586 190.73 342.036 199.652 335.172 208.575C335.172 208.918 334.486 208.575 334.829 208.232C337.575 198.966 338.261 189.014 336.888 179.062C335.516 170.826 332.084 161.904 331.054 151.952L330.711 151.608C330.711 151.952 330.368 152.295 330.368 152.638C328.309 159.158 326.936 165.678 326.25 172.542C325.907 180.778 327.279 191.416 326.593 199.652C325.907 209.261 325.22 219.213 320.759 227.793C320.759 228.136 320.759 228.136 320.759 228.479L341.349 215.782C349.929 210.291 357.135 203.427 362.969 195.191C370.519 184.553 374.294 172.199 374.294 159.158C374.294 158.815 374.294 158.129 374.294 157.786C373.951 157.786 373.608 158.129 373.608 158.129Z" fill="#009EDB"/>
<path d="M351.644 163.62C351.988 163.62 351.988 163.62 351.644 163.62C351.644 160.874 351.644 158.129 351.301 155.384C350.615 145.775 344.781 137.882 339.633 129.646C336.202 124.498 333.113 119.007 330.368 113.173C330.368 113.173 330.025 112.83 329.681 112.83C329.681 113.517 329.681 116.605 330.025 118.321C331.74 132.048 335.172 145.775 340.32 158.815C343.408 167.051 344.438 175.631 343.751 184.21C343.751 184.896 343.751 184.896 344.095 185.24C347.183 180.778 353.36 174.601 357.135 169.797C360.91 164.992 381.5 141.657 371.548 109.399C371.205 108.026 370.519 106.653 369.832 105.281L369.489 105.624C369.489 128.959 358.165 138.911 353.703 154.697C352.674 158.472 351.988 161.218 351.644 163.62ZM351.988 115.576L349.929 110.085L348.556 106.996C345.124 100.819 340.32 95.3286 334.486 91.2105C329.681 87.0924 325.563 82.6312 322.132 77.4836C322.132 77.4836 321.788 77.4836 321.445 77.4836H321.102C321.445 78.5131 324.534 88.8083 326.593 93.6127C330.025 100.133 334.143 106.653 338.947 112.144L339.977 113.517C345.81 121.41 350.272 129.989 353.36 139.255C353.36 139.598 353.703 139.598 353.703 139.598L359.537 121.753C361.596 115.576 363.312 109.055 364.685 102.535C366.744 87.0924 361.94 67.5316 353.017 56.5501C353.017 56.5501 352.674 56.8933 352.674 57.2365L353.017 58.6092L353.703 60.6682C355.419 68.9043 355.762 77.8268 354.047 86.0629C352.674 92.5832 352.331 99.4466 352.331 106.31C352.331 107.34 353.017 115.919 353.017 116.262C353.017 116.605 352.674 116.262 352.331 116.262M324.534 29.4396C327.279 32.1849 329.681 35.2735 331.054 39.0484C333.456 44.8823 334.143 53.4616 335.858 59.9819L338.947 71.3065C338.947 71.6497 338.604 71.9929 338.261 71.6497C333.113 65.4726 326.936 60.325 319.729 56.207C314.925 53.4616 311.15 49.6867 307.718 45.5686L306.003 43.1664C306.003 43.1664 305.659 42.8233 305.316 43.1664C305.316 43.5096 305.316 43.8528 305.316 44.196C307.032 51.7457 310.464 58.9523 315.955 64.7863C320.416 68.9043 325.22 72.6792 329.681 76.4541C335.515 81.2585 341.006 87.0924 346.154 92.9264C346.154 92.9264 346.497 93.2695 346.497 92.9264V87.4356L346.84 70.9634V65.4726C346.84 59.9819 345.81 54.1479 343.751 49.0004C340.32 40.4211 333.799 33.5576 325.907 29.4396C325.563 29.0964 324.877 29.0964 324.191 28.7532C324.191 28.7532 324.191 29.0964 324.534 29.4396ZM289.187 13.3105C293.992 17.7717 298.11 22.9193 301.884 28.4101C305.316 33.9008 309.091 38.7052 313.896 43.1664C316.984 46.255 326.25 53.4616 328.652 55.5206C328.309 52.7753 323.848 33.2145 311.836 23.6057C304.973 18.1149 296.737 13.9968 288.158 11.9378C288.158 12.281 288.158 12.281 288.158 12.6242L289.187 13.3105ZM97.0109 280.641C104.904 279.955 113.14 278.582 120.69 276.18L139.221 271.719H139.564C139.564 271.719 139.564 271.376 139.221 271.376H138.878C129.612 268.974 121.033 264.512 113.483 258.335L97.3541 242.892L82.5977 230.195V230.881C83.9704 232.94 89.118 244.265 92.2065 250.442C95.9814 259.022 102.845 265.542 111.424 268.974C111.767 269.317 111.424 269.317 110.738 269.317C101.129 267.944 91.177 267.258 81.225 266.914C73.6752 266.914 65.7823 265.542 58.5757 263.483C53.4281 261.767 48.6237 259.365 44.1625 255.933C43.8193 255.933 43.8193 255.933 43.4761 255.933C50.3396 265.542 59.9484 273.092 70.9299 277.21C79.5092 279.955 88.0884 280.984 97.0109 280.641ZM89.118 260.394C89.8043 260.394 90.1475 260.737 91.177 260.737V260.394L90.4906 259.708C84.6567 253.874 80.5387 246.667 77.7933 238.774L71.6162 221.273C67.8413 210.634 62.3506 200.682 55.144 191.76C55.144 192.103 55.144 192.103 55.144 192.446C57.203 199.996 58.2325 207.546 58.9188 215.439C62.0074 236.715 72.3025 247.011 72.3025 247.354C72.3025 247.697 72.3025 248.04 71.9594 247.697L70.5867 246.667C64.0664 241.52 56.8598 237.059 48.9669 233.97C42.7898 231.225 36.9559 228.136 31.4651 224.361C24.9448 220.243 19.1109 215.096 14.3065 209.262H13.9633C14.9929 212.007 16.0224 214.752 17.3951 217.498C22.5426 227.45 30.0924 236.372 39.3581 242.892C48.2805 249.756 58.5757 254.217 69.5572 255.59C76.0774 257.306 82.5977 259.022 89.118 260.394ZM33.8673 215.782L54.4576 228.479C54.4576 228.479 54.8008 228.136 54.8008 227.793C50.3396 218.87 49.6532 209.262 48.9669 199.653C48.2805 191.073 49.6532 180.778 49.31 172.542C48.6237 165.679 47.251 158.815 45.192 152.295C45.192 151.952 44.8488 151.609 44.8488 151.266L44.5056 151.609C43.8193 161.561 40.0444 170.483 38.6717 178.719C37.299 188.328 37.9854 198.28 40.7307 207.889C41.0739 208.232 40.3876 208.575 40.3876 208.232C33.5241 198.966 25.9743 190.387 17.7382 182.494C10.5316 175.631 5.04087 167.395 1.95232 158.129C1.95232 158.129 1.60915 157.786 1.26598 157.786C0.922808 157.786 1.26598 158.472 1.26598 159.159C1.26598 171.856 5.04087 184.553 12.5906 195.192C18.0814 203.085 25.288 210.291 33.8673 215.782ZM30.0924 185.583C30.4356 185.24 30.4356 185.24 30.4356 184.553C29.7492 175.974 30.7788 167.051 34.2105 159.159C39.0149 146.118 42.4466 132.734 44.5056 118.664C44.5056 116.948 44.8488 113.86 44.8488 113.173C44.5056 113.173 44.5056 113.173 44.5056 113.517C41.7603 119.351 38.6717 124.841 35.24 129.989C29.7492 137.539 24.2585 145.775 23.5721 155.384C23.229 158.129 23.229 160.874 23.5721 163.62C23.5721 163.62 23.5721 163.963 23.229 163.963C23.229 163.963 23.229 163.963 23.229 163.62L20.8268 155.384C16.0224 139.598 5.04087 129.646 5.04087 106.31L4.6977 105.967C4.01135 107.34 3.66818 108.712 2.98184 110.085C-6.97014 142.343 13.277 165.679 17.3951 170.483C21.5131 175.288 27.0039 181.122 30.0924 185.583ZM15.6792 121.41L21.5131 139.255C21.5131 139.255 21.8563 139.255 21.8563 138.911C24.9448 129.646 29.7492 121.066 35.24 113.173L36.2695 111.801C41.0739 105.967 45.192 99.7898 48.6237 93.2695C50.6827 88.4651 53.7713 78.17 54.1144 77.1404H53.7713C53.4281 77.1404 53.4281 77.1404 53.0849 77.1404C49.6532 82.288 45.5351 86.7493 40.7307 90.8673C34.8968 94.9854 29.7492 100.476 26.3175 106.996C25.9743 108.026 25.288 109.055 24.9448 110.085L22.8858 115.919C22.8858 115.919 22.5426 116.605 22.5426 115.919C22.5426 115.233 23.229 107.34 23.229 105.967C23.229 99.1034 22.5426 92.24 21.1699 85.7197C19.4541 77.1404 19.7973 68.5612 21.5131 60.325C21.5131 59.6387 21.8563 58.9523 22.1995 58.266C22.1995 57.9228 22.5426 57.2365 22.5426 56.8933C22.5426 56.5501 22.5426 56.5501 22.1995 56.207C13.277 67.1885 8.12942 87.0924 10.1884 102.192C11.9043 108.712 13.6202 115.233 15.6792 121.41ZM28.0334 71.3065L28.3766 87.7788V92.9264H28.7197C33.5241 86.7493 39.0149 81.2585 44.8488 76.1109L58.5757 64.4431C64.0664 58.6092 67.4981 51.4026 69.214 43.8528C69.214 43.5096 69.214 43.1664 69.214 42.8233H68.8708L67.155 45.2255C64.0664 49.3435 59.9484 53.1184 55.4871 55.8638C47.251 61.0114 41.7603 64.7863 36.9558 71.3065C36.6127 71.6497 36.2695 71.6497 36.6127 70.9634L39.7012 59.6387C41.4171 53.1184 42.1034 44.5391 44.5056 38.7052C45.8783 35.2735 48.2805 31.8418 51.0259 29.0964C51.0259 28.7532 51.0259 28.7532 51.0259 28.4101C50.3396 28.4101 49.9964 28.7532 49.31 29.0964C40.7307 33.5576 34.5536 40.7642 31.1219 49.0004C29.0629 54.1479 27.6902 59.6387 28.0334 65.4726V71.3065ZM46.2215 55.1775L61.321 42.8233C65.7823 38.362 69.9003 33.5576 73.3321 28.0669C76.7638 22.5761 81.225 17.4286 86.0294 12.9673L87.0589 11.9378C87.0589 11.5946 87.0589 11.5946 87.0589 11.2515C78.4796 13.3105 70.2435 17.0854 63.3801 22.9193C50.6827 32.8713 46.5647 52.4321 46.2215 55.1775ZM184.177 161.561C185.206 160.188 182.804 159.159 182.118 161.561C181.431 163.963 183.147 163.277 184.177 161.561ZM210.258 101.162C209.228 100.819 205.453 105.281 206.14 105.967C207.855 104.937 209.228 103.222 210.258 101.162ZM210.944 100.476C211.63 100.819 214.033 99.4466 213.689 99.1034C213.346 98.7603 210.258 97.3876 210.258 98.0739C210.258 99.4466 210.601 100.133 210.944 100.476ZM257.272 143.029C258.645 142.686 258.302 140.627 257.272 140.627C256.243 140.627 254.87 142.343 255.213 142.343C255.556 142.343 256.586 143.373 257.272 143.029ZM240.457 97.3876C239.427 97.3876 239.084 98.4171 240.114 99.1034C241.143 99.4466 241.829 99.1034 242.516 98.7603C243.202 98.4171 243.888 97.7308 243.888 96.7012C243.888 95.6717 242.516 94.299 243.202 93.6127C243.888 92.9264 244.918 93.9559 245.604 93.6127C246.291 93.2695 246.634 92.5832 246.634 91.8968C246.634 91.2105 246.291 89.1515 244.918 89.1515C243.545 89.1515 242.173 91.8968 242.173 91.8968C241.829 92.5832 241.829 93.6127 242.173 94.299C242.516 95.6717 242.173 97.3876 240.457 97.3876Z" fill="#009EDB"/>
<path d="M263.106 97.7306C263.106 98.417 264.822 102.878 265.165 103.908C265.508 104.937 265.851 108.712 266.537 108.369C267.224 108.026 267.224 105.967 266.881 104.937C266.537 102.535 265.851 99.7897 265.165 97.7306C264.822 96.3579 262.419 91.2104 261.733 91.5535C261.047 91.8967 262.763 94.9853 263.106 96.3579C263.449 97.7306 262.763 97.0443 263.106 97.7306ZM251.095 39.3914C252.124 39.7346 252.124 37.6756 250.408 36.3029C248.693 34.9302 245.947 35.6165 246.633 36.3029C248.006 37.3324 249.379 38.7051 251.095 39.3914ZM199.619 24.635C197.217 23.2623 199.276 21.2033 197.56 19.8306C195.501 19.1443 193.442 19.4874 192.069 20.8601C190.353 22.9192 194.128 22.2328 195.158 22.9192C196.187 23.6055 199.619 26.0077 199.962 25.6645C200.305 25.3214 199.962 24.635 199.619 24.635ZM213.346 17.7716C210.257 16.3989 198.933 16.3989 199.276 19.4874C199.619 22.576 205.796 19.4874 207.512 19.4874C209.228 19.4874 216.091 19.1443 213.346 17.7716ZM182.117 150.236C181.431 149.893 180.401 150.579 180.058 149.893C179.715 149.206 179.029 149.55 179.029 149.893C179.029 150.236 178.685 150.922 179.372 151.609C180.058 152.295 181.431 152.295 182.117 151.609C182.46 151.265 182.46 150.579 182.117 150.236ZM175.597 127.243C176.626 127.243 176.626 126.557 176.97 126.557C177.313 126.557 176.97 127.243 177.999 127.243C179.029 127.243 180.058 124.841 176.97 124.841C174.567 124.841 174.911 127.243 175.597 127.243ZM179.715 129.989C177.999 129.646 178.342 130.675 176.97 130.675C174.911 131.018 176.626 129.302 175.94 128.616C175.597 128.273 174.567 129.989 174.224 131.018C174.224 131.705 174.224 133.077 174.911 133.42L181.431 134.107C182.804 134.107 181.431 130.332 179.715 129.989ZM158.438 152.295C159.125 152.295 159.468 150.236 159.125 149.206C158.781 148.177 156.722 148.863 156.722 149.55C156.722 150.236 158.095 152.295 158.438 152.295ZM130.985 152.295C130.985 151.609 130.985 148.863 130.298 148.177C129.612 147.491 129.612 148.52 129.269 148.52C128.926 148.52 128.926 147.147 128.582 147.147C128.239 147.147 128.582 149.206 129.269 150.579C129.955 151.952 130.985 154.011 130.985 152.295ZM130.298 146.118C130.985 144.059 131.328 142 131.328 139.941C131.328 138.225 130.298 136.852 129.955 136.852C129.612 136.852 129.955 137.882 130.298 139.598C130.298 141.313 129.612 143.029 129.269 144.745C129.269 145.088 129.955 146.804 130.298 146.118Z" fill="#009EDB"/>
<path d="M95.2943 222.989C146.427 274.121 228.788 274.121 279.921 222.989C331.053 171.856 331.053 89.4947 279.921 38.3621C228.788 -12.7705 146.427 -12.7705 95.2943 38.3621C44.1617 89.4947 44.1617 172.199 95.2943 222.989ZM62.693 133.421H82.5969C82.9401 143.716 84.6559 153.668 87.7445 163.277C86.715 162.934 85.6855 162.59 84.6559 161.904C83.2833 161.218 82.2537 162.247 81.9106 162.247C80.5379 162.247 78.822 161.218 78.822 162.247C78.822 163.277 80.1947 162.59 80.1947 163.277C80.1947 163.963 76.763 163.963 76.4198 162.59C76.0767 161.218 75.3903 159.845 75.0471 161.561C74.704 163.277 73.3313 162.934 72.6449 163.277C72.3018 163.62 71.9586 164.306 71.9586 164.993C71.9586 165.679 70.2427 165.336 70.2427 166.365C70.2427 167.395 71.2722 167.738 71.6154 168.767C71.9586 169.797 72.9881 170.483 72.3018 170.826C71.6154 171.17 71.9586 170.483 71.2722 170.826C70.5859 171.17 74.3608 181.465 75.0471 181.122C75.7335 180.778 74.0176 177.69 74.0176 176.317C74.0176 174.945 74.3608 174.601 75.3903 173.915C76.4198 173.229 79.1652 178.033 80.1947 177.347C81.2242 176.66 79.8515 175.974 80.8811 175.631C81.9106 175.288 84.9991 180.092 86.0286 178.719C86.715 177.69 87.4013 179.406 87.4013 179.749C88.4308 181.465 90.1467 181.465 91.1762 183.524C92.2057 185.583 94.6079 189.358 96.3238 189.358C98.0396 189.358 97.0101 187.642 97.6965 187.642C98.3828 187.642 99.0692 190.044 100.099 191.417C100.785 192.446 101.815 193.133 103.187 193.476C105.589 196.564 108.335 199.653 111.08 202.741L97.0101 216.811C75.3903 194.848 63.0361 164.993 62.693 133.421ZM176.283 104.937L174.91 105.624C172.851 106.653 171.135 107.683 169.763 109.056L155.693 94.9855C163.929 87.7789 174.224 83.3176 184.862 82.9745V102.878C182.46 103.222 180.058 103.565 177.656 104.594C178.342 103.222 179.715 101.849 179.715 101.849C179.715 101.849 177.312 103.222 176.283 104.937ZM165.644 137.539C165.644 137.882 165.644 138.225 165.644 138.225C165.644 137.539 165.301 137.196 164.958 136.509C164.615 136.166 164.272 135.823 163.929 135.823C163.585 135.823 163.242 135.823 162.899 135.823H162.213L161.526 136.166H156.722C156.036 136.166 155.693 136.166 155.693 135.823C155.349 134.45 157.408 135.48 158.781 131.362C159.124 131.019 159.124 130.332 159.467 129.989L159.811 129.303L160.154 128.96L160.497 128.616C161.183 127.93 161.87 127.93 162.556 127.93H163.242L163.929 128.616L164.958 130.675C165.301 131.019 165.644 131.019 165.644 131.362C166.331 131.705 166.674 132.048 167.017 132.391L167.36 132.734V133.078C167.704 133.421 167.704 133.421 168.047 133.421H168.39C168.733 133.421 168.733 133.421 169.076 133.421H169.419C170.106 133.078 170.106 133.421 170.449 133.421V133.764C170.449 134.107 170.449 134.107 170.106 134.45C170.106 134.793 169.763 134.793 169.763 135.137C169.419 135.48 169.076 135.823 168.733 135.823C168.047 135.823 167.36 135.48 167.017 135.48C166.674 135.48 166.331 135.48 166.331 135.823V137.539M128.582 170.483C127.552 168.767 127.209 166.365 127.209 164.306C127.209 162.247 126.523 160.188 125.493 158.472C125.15 157.1 124.807 155.727 124.807 154.354C124.807 151.952 122.748 152.638 122.748 151.952C122.748 151.266 124.464 151.952 124.464 151.266C124.464 150.579 122.405 147.834 120.689 147.148C118.973 146.461 119.659 145.432 119.659 144.402C119.659 143.373 119.659 142.343 118.973 141.657C118.63 140.284 118.973 137.882 120.689 137.882C121.375 137.882 122.405 138.568 123.434 137.882C124.464 137.196 123.778 135.137 123.778 133.421H133.386C133.386 134.793 133.73 136.509 133.73 137.882C133.043 138.225 132.7 138.911 133.043 139.255C133.386 139.598 133.73 139.941 134.073 139.598C135.789 149.55 140.25 158.815 147.113 166.365L133.043 180.435C132.014 179.406 130.984 178.033 129.955 176.66C129.955 176.317 129.955 175.974 129.955 175.631C129.955 173.229 128.239 171.856 127.552 169.797M115.198 146.461C114.169 142.343 113.826 137.882 113.482 133.421H121.719C121.032 134.45 119.316 135.48 118.973 136.509C118.63 137.539 116.571 140.971 117.944 142.343C121.032 145.775 117.257 147.148 115.198 146.461ZM116.914 197.251L115.198 198.967C114.512 198.28 113.482 197.251 112.796 196.564C114.169 195.878 115.541 196.221 116.914 197.251ZM138.191 109.056C137.848 109.056 137.848 109.399 137.504 109.399C136.475 110.428 133.73 110.085 134.073 111.115C134.416 112.144 141.622 108.712 141.622 109.399C141.622 110.085 138.534 111.115 136.475 112.144C134.416 113.174 133.73 114.889 130.298 114.889C128.582 114.889 127.896 116.262 127.209 117.292C126.18 118.664 125.493 120.037 124.807 121.41C124.807 123.469 124.464 125.528 123.434 127.587H113.482C114.169 110.085 121.032 93.2696 133.043 80.2291L147.113 94.2991C143.681 99.1036 140.593 103.908 138.191 109.056ZM151.231 98.7604L163.585 111.115C163.242 111.115 162.899 111.115 162.213 111.115C160.84 111.115 160.84 110.085 159.811 110.085C157.752 110.428 157.408 111.115 157.065 110.771C155.693 109.399 153.977 108.369 151.918 107.34C149.515 106.653 147.113 106.653 145.054 107.683C144.711 107.683 144.711 108.026 144.368 108.026C146.77 104.937 149.172 101.849 151.231 98.7604ZM134.073 123.812C134.073 125.185 133.73 126.557 133.73 127.93H126.523C126.18 126.9 126.523 125.871 127.209 124.841C127.896 123.469 129.611 122.782 131.327 123.126C132.014 123.126 133.043 123.469 134.073 123.812ZM140.25 139.941L140.936 140.971C141.622 141.657 142.309 142.343 142.995 142C143.681 141.657 145.397 142 145.741 142C146.77 142.343 147.456 143.03 148.143 143.716C148.829 144.745 150.202 144.059 151.231 144.745C152.261 145.432 153.29 146.118 151.918 146.804C150.545 147.491 153.29 148.863 153.633 148.863C153.977 148.863 154.32 148.177 154.32 147.148C154.32 146.804 155.006 145.432 156.036 145.775C157.065 146.118 160.154 149.893 161.183 148.52C162.213 147.148 161.526 145.432 161.87 144.745C161.87 144.402 162.213 144.059 162.556 144.059C163.585 145.775 164.272 147.148 165.644 148.52L151.574 162.59C145.741 156.413 141.622 148.52 140.25 139.941ZM151.231 90.8674L137.504 76.7974C150.545 64.7864 167.36 57.9229 184.862 57.2366V77.1406C172.508 77.4837 160.84 82.2881 151.231 90.8674ZM133.386 72.6793L119.316 58.6093C137.161 41.7939 160.497 32.1851 184.862 31.4987V51.4027C165.644 52.089 147.113 59.6388 133.386 72.6793ZM129.268 76.4542C116.228 90.5243 108.678 108.712 107.992 127.93H88.0877C88.774 103.565 98.3828 80.2291 115.198 62.3842L129.268 76.4542ZM107.992 133.421C107.992 137.196 108.335 140.627 109.021 144.402C108.678 144.402 108.678 143.373 107.648 143.716C106.619 144.059 102.844 150.579 101.128 153.325C99.7555 155.727 101.815 160.874 99.7555 162.59C97.6965 163.277 95.6374 163.62 93.5784 163.62H93.2352C89.8035 154.011 88.0877 144.059 87.7445 134.107L107.992 133.421ZM184.519 255.59C153.29 254.904 123.434 242.549 101.128 220.93L115.198 206.86C134.073 224.704 158.781 235 184.519 235.686V255.59ZM184.519 230.195C160.154 229.509 136.818 219.9 118.973 203.085L121.375 200.682C121.718 201.026 122.405 201.369 123.091 201.712C124.464 202.398 126.18 202.741 127.896 202.398C129.268 202.055 132.014 199.653 133.73 199.653C135.445 199.653 138.191 200.339 139.907 199.31C141.622 198.28 138.877 194.848 137.848 193.133C137.504 192.789 137.504 192.446 137.161 192.103C150.545 203.428 167.704 209.948 185.205 210.291L184.519 230.195ZM184.519 204.457C167.017 203.771 150.202 196.908 137.161 184.897L151.231 170.826C157.752 176.66 165.644 181.122 174.567 183.181C171.478 184.553 170.106 186.612 170.449 188.328C170.792 190.044 168.39 191.074 168.39 193.133C168.39 195.192 171.135 196.564 171.478 198.623C171.822 199.653 174.224 201.369 176.283 202.741C179.028 203.428 181.774 203.771 184.176 203.428L184.519 204.457ZM183.833 177.004C182.803 176.317 182.117 177.69 180.744 178.376C171.135 177.004 162.556 172.885 155.349 166.708L169.419 152.638C173.881 156.07 179.028 158.472 184.519 158.815C184.519 159.502 185.205 160.188 185.205 161.561C185.205 162.934 184.176 163.62 184.519 164.306C184.862 164.993 187.951 164.306 188.294 163.277C188.637 162.247 187.264 161.561 186.921 160.531C186.578 159.845 186.578 159.502 186.235 158.815H187.264C188.294 158.815 189.323 158.815 190.353 158.472C190.696 158.472 191.039 158.129 191.039 157.786C191.039 157.443 191.382 157.1 191.382 156.756C191.382 156.413 191.726 156.413 191.726 156.07L192.069 156.413C192.412 157.1 193.098 159.159 193.785 158.815C194.471 158.472 194.814 155.384 194.471 154.697C193.785 153.668 193.785 152.638 194.471 151.609C194.471 151.266 194.814 149.207 195.5 149.55C196.187 149.893 195.5 151.609 195.5 152.295C195.5 153.325 196.187 154.697 197.216 154.011C197.903 153.668 198.589 152.638 199.275 152.982C199.962 153.325 197.559 154.011 197.216 154.697C196.873 155.384 198.246 155.727 197.903 156.07C197.559 156.413 197.216 156.07 196.873 156.413C196.53 156.756 197.559 158.815 196.873 159.159C196.187 159.502 193.785 160.188 193.098 160.531C192.412 160.874 191.726 160.188 192.069 159.845C192.412 159.502 192.069 158.129 191.382 158.129C190.696 158.129 190.696 158.472 190.696 159.159C190.696 159.845 191.382 160.874 191.382 161.218C191.382 161.561 190.353 161.904 189.667 162.247C188.98 163.277 187.951 164.306 186.921 164.993C185.892 165.679 183.833 165.679 183.833 166.365C183.833 167.052 184.862 167.052 185.205 167.395C185.892 168.424 186.235 169.797 184.862 170.483C183.489 171.17 181.774 169.454 181.087 169.797C180.401 170.14 180.058 171.856 179.715 173.915C179.371 175.974 183.489 176.66 185.548 175.631C186.921 174.945 186.578 172.885 187.951 172.199C189.323 171.513 188.98 170.14 190.353 170.483C191.726 170.826 191.382 169.454 192.755 169.454C194.128 169.454 194.128 170.483 195.844 170.826C198.589 171.513 198.589 173.572 198.932 172.542C199.275 171.513 199.618 170.826 197.559 170.14C195.5 169.454 194.471 167.052 196.187 167.738C198.246 168.767 199.962 168.767 200.305 169.797C200.648 170.826 202.707 170.483 203.05 171.513C203.393 173.229 204.766 171.513 203.737 170.483C202.707 169.454 203.05 169.111 203.737 168.424C204.423 167.738 204.766 168.767 205.796 167.395C206.825 166.022 205.452 166.365 205.109 165.679C204.766 164.993 205.109 161.218 206.482 161.904C207.855 162.59 209.227 161.561 208.541 161.218C207.855 160.874 208.884 158.815 209.227 158.815C209.57 158.815 209.227 160.188 209.57 160.531C209.914 160.874 213.345 159.502 213.689 161.218C214.032 162.934 211.286 163.963 210.6 163.963C209.227 163.963 208.198 165.336 207.168 166.708C206.139 168.081 205.109 168.424 205.796 169.797C206.482 171.17 207.855 170.826 209.227 170.14C210.6 169.454 211.63 168.424 212.316 168.081C213.689 167.395 214.718 171.513 214.032 172.199C213.345 172.885 211.973 173.229 211.286 173.915C209.227 174.945 207.168 175.974 204.766 175.974C203.393 176.317 203.393 176.66 203.05 178.033C202.707 179.406 196.53 178.376 195.157 178.376C193.785 178.376 196.187 175.288 194.128 175.631C192.069 175.974 190.01 176.317 187.951 176.66C187.607 176.66 185.548 178.376 183.833 177.004ZM202.021 208.919C203.737 209.605 205.452 210.978 206.482 212.35C207.511 214.066 207.855 214.752 207.168 216.468C205.452 219.557 206.139 221.616 209.57 222.645C211.63 223.332 212.316 225.391 213.689 226.763C206.139 228.822 198.246 229.852 190.353 230.195V210.291C194.128 209.948 198.246 209.605 202.021 208.919ZM190.353 204.8V202.398C194.814 201.712 193.785 204.457 196.873 203.428C197.903 203.085 198.932 203.428 199.618 204.114C196.53 204.114 193.441 204.457 190.353 204.8ZM190.353 255.933V235.686C200.648 235.343 210.943 233.627 220.895 230.195C221.238 230.538 221.581 230.538 221.925 230.538C223.297 230.538 224.67 229.852 225.7 229.166C229.131 227.793 232.22 226.077 234.965 224.018C243.888 219.557 252.467 213.38 259.674 206.516L273.744 220.586C251.437 242.549 221.581 254.904 190.353 255.933ZM245.947 76.4542L250.751 71.6498C252.124 73.0225 253.496 74.052 255.556 74.3952C257.271 74.7384 257.958 75.4247 258.301 77.1406C258.644 78.8564 260.36 79.5428 262.076 79.8859C263.792 80.2291 264.821 82.2881 266.194 82.2881C267.567 82.2881 272.028 88.4652 273.744 90.5243C274.773 91.5538 276.146 93.2696 277.175 91.8969C278.205 90.5243 278.205 90.8674 278.891 90.5243C284.039 102.192 287.127 115.233 287.47 127.93H267.567C267.567 123.469 266.88 119.008 265.851 114.546C266.537 113.174 266.88 111.801 266.88 110.085C266.88 108.712 265.507 108.026 264.478 109.056C263.792 106.31 262.762 103.908 261.733 101.506C261.389 100.133 261.046 98.4172 260.703 97.0445C260.703 96.7014 260.017 96.3582 259.33 95.6718C258.644 94.2991 258.301 93.2696 257.615 92.2401C258.644 91.5538 258.987 89.8379 257.615 90.1811C255.556 90.5243 256.928 89.1516 256.242 88.4652C255.555 87.7789 255.556 88.4652 255.212 88.8084C252.467 84.6903 249.722 80.9154 246.29 77.1406C246.29 77.1406 246.29 77.1406 246.29 76.7974C245.604 76.7974 245.604 76.4542 245.947 76.4542ZM257.958 192.789C257.271 191.417 256.928 189.701 256.242 188.328C255.899 186.956 253.153 186.956 253.153 187.642C253.153 189.015 253.153 190.387 252.81 191.76V192.103L245.604 184.897C258.644 170.826 266.194 152.638 266.88 133.421H286.784C286.098 157.786 276.489 181.122 259.674 198.623L258.644 197.594C258.987 196.221 258.644 194.505 257.958 192.789ZM241.485 206.516C242.515 204.8 244.574 201.712 245.604 199.996C246.633 198.28 242.858 195.878 240.799 195.192C238.74 194.505 238.74 193.476 238.74 191.76C239.77 191.074 240.799 190.044 241.829 189.015L255.899 203.085C251.094 207.546 246.29 211.321 240.799 214.752C240.456 214.066 242.858 211.664 243.544 210.634C244.231 209.605 240.799 208.232 241.485 206.516ZM250.065 124.498C248.349 122.096 250.751 121.753 253.153 120.723C254.526 120.037 256.242 121.067 256.242 120.38C256.242 119.694 256.928 118.321 257.615 117.978C258.301 117.635 259.33 116.948 259.674 116.262C259.674 116.948 260.017 117.635 260.017 118.321C259.33 119.694 258.987 120.723 258.987 122.096C258.987 123.126 258.987 124.498 260.017 122.096C260.017 121.753 260.36 121.753 260.36 121.41C261.046 123.812 261.046 125.871 261.046 127.93H246.29C246.29 127.93 246.29 127.93 246.29 127.587C247.319 125.871 251.094 126.214 250.065 124.498ZM252.81 96.3582C252.81 96.3582 252.81 96.7013 252.467 96.7013C252.124 97.0445 250.408 94.2991 250.408 96.3582C250.408 98.4172 251.094 99.1036 252.467 99.4467C253.84 99.7899 253.153 100.476 254.183 100.819C254.526 100.819 255.212 101.163 255.556 101.506C257.271 105.281 258.301 109.056 259.33 113.174C258.644 113.517 258.301 113.86 257.958 114.203C257.271 114.889 257.615 116.262 256.928 117.292C255.899 119.008 255.555 120.037 252.81 119.351C251.094 118.664 252.467 116.605 252.81 114.889C253.153 113.174 253.84 113.517 253.84 112.487C253.84 111.458 250.408 107.683 248.692 109.056C246.976 110.428 247.319 111.801 245.947 113.174C245.26 113.86 244.574 113.86 243.544 113.174C242.515 112.487 242.172 111.801 242.515 111.115C242.858 110.428 240.113 107.34 239.083 105.967C237.711 104.251 235.652 103.222 233.593 103.222C231.877 100.133 229.474 97.0445 227.072 94.2991L241.142 80.2291C245.947 85.3767 249.722 90.5243 252.81 96.3582ZM229.131 105.967L228.445 106.997C228.102 107.683 226.386 106.31 226.043 106.653C225.7 106.997 228.445 110.428 225.7 109.399C222.954 108.369 224.67 108.369 224.67 107.34C224.67 106.31 222.268 105.624 223.641 104.937C225.013 104.251 223.641 103.222 225.013 102.878C226.386 102.535 226.043 101.163 224.327 100.819C222.611 100.476 222.954 104.594 221.925 103.908C220.895 103.565 219.866 103.565 218.836 103.565L223.641 98.7604C224.327 99.1036 224.67 99.1035 225.356 99.1035C226.043 101.849 227.759 103.908 229.131 105.967ZM223.641 175.631C225.7 175.974 228.102 176.317 230.161 177.004C231.533 177.69 232.563 179.063 233.593 177.347C235.652 174.258 237.024 170.826 237.711 167.052C238.397 161.904 237.367 160.188 236.681 160.188C235.995 160.188 234.622 161.561 233.249 161.561C232.563 161.561 232.563 162.934 232.563 163.963C232.563 164.993 231.19 166.022 230.847 165.336C230.504 164.649 229.818 164.993 230.161 165.679C230.504 166.365 227.415 166.022 226.043 165.336C223.984 164.306 228.445 164.306 230.504 162.59C232.22 161.218 233.936 159.502 235.652 157.786C236.681 156.07 236.681 154.011 238.397 152.638C240.113 151.266 242.858 151.609 243.201 149.55C243.544 147.491 243.888 147.834 244.917 148.177C245.947 148.52 255.556 147.834 255.556 144.745C255.556 143.373 253.496 141.657 251.437 141.314C250.065 141.314 249.722 138.568 249.035 137.196C248.349 135.823 247.663 134.45 246.633 133.078H261.046C260.36 150.579 253.496 167.395 241.485 180.435L241.142 180.092V178.719C241.485 175.974 239.426 171.513 238.74 172.199C238.054 172.885 238.74 172.885 236.681 175.974C235.995 177.004 234.965 178.719 233.593 178.719C232.22 178.719 232.22 178.033 230.161 178.376C228.445 178.719 226.386 178.719 224.67 178.376C221.581 177.347 218.493 175.974 215.404 173.915C215.748 173.572 216.777 174.258 216.777 173.229C216.777 172.199 222.268 175.288 223.641 175.631ZM277.519 217.155L263.448 203.085C281.293 184.21 291.589 159.502 292.275 133.764H312.522C311.836 164.993 299.482 194.505 277.519 217.155ZM312.522 127.93H292.275C291.932 113.174 288.5 98.7604 281.98 85.3767L282.323 85.0335C283.696 83.6608 275.803 73.3657 274.43 72.3362C273.057 71.3066 271.685 69.5908 269.969 67.8749C267.223 65.1295 264.478 62.041 262.419 58.9524L277.175 44.1961C299.481 66.8454 311.836 96.7014 312.522 127.93ZM190.353 5.76082C221.581 6.44716 251.437 18.8013 274.087 40.4212L260.36 54.148C259.674 53.8049 258.987 53.4617 259.33 52.7754C260.017 51.7458 258.301 51.7458 257.958 49.0005C257.271 46.2551 255.212 43.8529 252.81 42.4802C251.094 41.4507 250.065 40.078 248.349 39.3917C246.633 38.7053 243.201 36.6463 241.485 37.3326C240.456 37.6758 239.083 38.019 238.054 38.019C223.297 30.126 207.168 26.008 190.696 25.6648L190.353 5.76082ZM190.353 31.4987C205.109 31.8419 219.179 35.6168 232.563 42.137C232.906 44.1961 233.936 46.5983 235.308 48.3141C235.995 50.03 237.024 51.4027 238.054 53.1185C239.083 54.148 238.397 56.2071 238.74 57.9229C238.74 58.6093 239.426 59.2956 239.77 59.982C239.77 61.0115 239.77 61.6978 239.77 62.7273C239.77 63.0705 241.142 63.0705 242.172 62.3842C243.201 61.6978 243.888 60.3251 245.26 60.6683C246.633 61.0115 248.349 63.7569 249.378 65.4727L242.858 71.993C242.172 70.6203 241.485 68.9044 241.829 68.9044C242.172 68.9044 242.858 69.2476 243.201 69.2476C244.574 69.2476 242.172 68.2181 242.172 67.8749C241.142 66.8454 241.142 65.4727 239.77 64.4432C238.397 63.4137 236.338 64.1 235.652 62.7273C234.279 60.3251 232.563 58.2661 230.161 56.5502C229.818 56.5502 232.906 60.3251 231.877 61.0115C230.847 61.6978 227.072 58.6093 226.729 59.2956C226.386 59.982 230.847 61.6978 232.22 63.0705C232.906 63.7569 234.279 65.8159 235.652 67.5317C222.611 57.5798 206.825 52.089 190.353 51.4027V31.4987ZM190.353 56.8934C207.855 57.5798 224.67 64.4432 237.711 76.4542L223.641 90.5243C214.375 82.2881 202.707 77.4837 190.353 76.7974V56.8934ZM190.353 82.6313C201.334 83.3176 211.63 87.4357 219.522 94.6423L218.836 95.3287L218.15 94.9855C216.434 94.2991 213.002 97.7309 213.689 98.074C214.375 98.4172 215.748 96.7014 216.434 97.0445H216.777L210.943 103.222C209.227 103.908 207.511 105.281 207.511 106.31C207.511 106.31 207.511 106.31 207.511 106.653L205.452 108.712L204.423 107.683C202.707 106.31 200.991 105.281 198.932 104.594C199.962 103.908 200.305 102.878 200.648 101.506C200.648 99.4467 199.962 100.133 198.932 101.163C197.903 102.192 196.873 102.535 196.187 103.565C194.471 102.878 192.412 102.535 190.696 102.535V82.6313H190.353ZM187.951 108.026C188.294 108.712 187.951 109.399 187.607 109.742C186.921 110.428 184.862 108.026 184.519 110.085C183.833 112.144 185.892 111.115 185.892 111.458C186.921 112.83 188.294 113.517 190.01 113.86C191.382 113.86 193.441 113.86 193.441 115.233C193.441 115.919 195.157 115.919 195.5 116.605C195.5 117.635 196.53 119.351 197.216 119.008C197.903 118.664 198.932 119.351 199.275 120.037C199.618 120.723 199.275 121.067 198.932 121.753C197.903 122.782 199.962 122.439 200.305 124.498C200.648 126.557 198.589 125.185 198.246 126.557C197.559 127.587 196.873 128.273 196.187 129.303C195.844 129.646 196.53 130.332 196.873 129.989C197.216 129.646 197.903 128.616 198.932 128.616C199.962 128.616 200.991 132.391 202.021 132.734C203.05 133.078 202.707 134.45 203.05 134.793C203.393 135.137 201.334 134.793 201.678 135.48C202.021 136.166 204.08 136.509 204.08 137.539C203.737 138.568 203.05 139.598 201.678 139.598C200.648 139.598 198.932 137.196 198.932 137.882C198.932 138.568 199.618 140.627 200.648 140.627C201.678 140.627 204.08 139.598 203.05 140.971C202.021 142.343 202.364 144.402 201.678 144.402C200.991 144.402 200.648 144.402 201.334 145.432C201.678 146.461 201.334 147.491 200.648 148.52C199.962 149.207 198.246 148.52 198.246 148.177C198.246 147.834 200.305 147.834 200.305 146.804C200.305 145.775 199.275 145.432 197.216 146.118C196.187 146.461 195.844 145.775 195.157 145.775C194.471 145.775 192.412 148.177 192.412 148.52C192.412 148.863 192.412 149.55 192.412 150.236C192.412 151.609 192.069 152.638 191.382 153.668C190.01 154.011 188.98 154.011 187.607 154.011C182.117 154.011 176.626 151.609 172.508 148.177C173.194 147.834 174.224 147.491 175.253 147.491C176.283 147.834 176.626 147.148 177.312 146.804C177.999 146.461 179.715 147.491 180.744 146.804C181.774 146.118 184.176 141.657 183.833 140.627C183.489 139.598 186.235 137.882 185.892 137.539C185.548 137.196 185.205 137.882 185.205 137.539C185.205 137.196 185.892 137.196 185.205 135.823C184.519 134.45 183.489 135.137 182.803 135.137C181.774 134.45 180.058 134.107 179.715 134.45C179.371 134.793 178.342 133.764 177.999 134.107C177.656 134.107 176.969 134.45 176.969 135.137C176.626 135.823 177.312 136.509 177.312 137.196C176.969 138.568 174.91 139.598 174.91 140.627C174.91 141.657 173.881 140.971 173.537 141.314C173.194 141.657 173.537 142.343 172.851 142.343C172.165 142.343 171.135 144.059 170.449 145.432C169.419 144.059 168.39 142.343 167.36 140.971C168.047 140.627 168.733 140.284 169.076 140.627C170.106 141.314 174.224 134.107 173.537 132.048C172.851 129.989 171.822 131.362 170.792 131.705C169.763 132.048 169.763 131.019 170.106 130.675C170.449 130.332 174.91 130.332 172.508 128.96C171.478 128.273 168.733 128.273 169.076 127.244C169.419 126.214 170.792 127.244 171.135 127.244C172.851 127.93 173.881 124.498 174.91 124.498C176.626 124.498 175.94 121.067 174.224 122.096C172.508 123.126 171.822 122.782 171.135 123.812C170.449 124.841 168.733 126.214 168.733 124.841C168.733 124.155 172.508 122.096 173.194 121.067C173.881 120.38 174.567 119.351 174.91 118.321C175.253 117.292 180.058 116.605 181.087 115.919C181.774 115.233 182.46 114.203 182.46 113.174C182.46 112.144 181.087 112.487 180.744 111.801C180.401 111.115 182.46 111.801 182.46 110.771C182.46 109.742 180.744 110.771 180.058 110.085C180.058 109.742 180.058 109.742 180.401 109.399C183.489 108.369 185.548 108.026 187.951 108.026H188.637H187.951ZM184.862 5.76082V25.6648C159.124 26.3511 134.416 36.6463 115.541 54.4912L101.471 40.4212C123.778 18.8013 153.633 6.44716 184.862 5.76082ZM97.0101 44.5392L111.08 58.6093C93.2352 77.4837 82.9401 102.192 82.2537 127.93H62.3498C63.3793 96.7014 75.7335 66.8454 97.0101 44.5392Z" fill="#009EDB"/>
</g>
<defs>
<clipPath id="clip0_9_1032">
<rect width="1024" height="313.573" fill="white" transform="translate(0.260742 0.0136719)"/>
</clipPath>
</defs>
</svg>
