<svg width="781" height="513" viewBox="0 0 781 513" fill="none" xmlns="http://www.w3.org/2000/svg">
<g clip-path="url(#clip0_879_3748)">
<path d="M388.143 0.0507812C177.826 0.0698617 0.134766 117.902 0.134766 257.379C0.134766 402.569 166.952 512.051 388.143 512.051C517.238 512.051 639.632 466.693 715.557 390.73C757.35 348.923 780.333 301.55 780.288 257.379C780.233 188.607 739.765 124.018 666.341 75.4845C592.725 26.8328 493.937 0.0507812 388.143 0.0507812Z" fill="#FFB612"/>
<path d="M116.803 427.918C49.3246 382.926 12.1523 322.342 12.1523 257.378C12.1523 126.71 187.854 12.0798 388.145 12.0625C597.64 12.0538 768.155 122.101 768.283 257.378C768.32 298.363 746.578 342.697 707.059 382.241C633.345 455.996 514.128 500.039 388.147 500.039C282.892 500.039 186.522 474.417 116.807 427.918" fill="#203731"/>
<path d="M556.466 189.986C526.259 145.011 460.123 113.822 382.243 113.822C275.355 113.822 188.683 172.596 188.683 245.092C188.683 317.577 249.861 381.227 382.243 381.155C461.74 381.118 525.657 346.796 555.515 301.714L329.712 302.106L329.018 243.468L720.981 243.331C721.51 248.032 722.058 252.615 722.058 257.38C722.058 370.247 572.554 461.738 388.143 461.738C203.741 461.738 54.2451 370.247 54.2451 257.38C54.2451 144.512 212.615 49.562 388.143 48.8769C534.24 48.3201 658.433 108.665 703.723 189.895L556.466 189.986Z" fill="#FFFFFE"/>
</g>
<defs>
<clipPath id="clip0_879_3748">
<rect width="780.153" height="512" fill="white" transform="translate(0.134277 0.0507812)"/>
</clipPath>
</defs>
</svg>
