<svg width="527" height="513" viewBox="0 0 527 513" fill="none" xmlns="http://www.w3.org/2000/svg">
<g clip-path="url(#clip0_820_366)">
<path d="M433.125 0.0507812H93.9795C42.6217 0.0507812 0.988037 41.6845 0.988037 93.0422V419.059C0.988037 470.417 42.6217 512.051 93.9795 512.051H433.125C484.483 512.051 526.116 470.417 526.116 419.059V93.0422C526.116 41.6845 484.483 0.0507812 433.125 0.0507812Z" fill="#001E36"/>
<path d="M185.204 361.915H60.2871C58.1727 361.915 57.116 360.623 57.1169 358.04V134.346C57.1169 132.233 58.0682 131.176 59.9708 131.176H98.6506C100.127 131.176 100.87 132.002 100.87 133.642V317.529H191.862C193.764 317.529 194.504 318.586 194.081 320.699L188.375 358.745C188.161 360.154 187.738 361.035 187.106 361.387C186.528 361.724 185.873 361.906 185.204 361.915Z" fill="#31A8FF"/>
<path d="M216.589 186.832H251.146C253.048 186.832 254.422 188.006 255.267 190.355C256.027 191.915 256.561 193.575 256.853 195.286C257.296 197.557 257.614 199.85 257.804 202.156C258.012 204.622 258.118 207.264 258.121 210.082C263.911 202.538 271.062 196.146 279.205 191.235C288.036 185.876 298.204 183.128 308.532 183.309C310.434 183.309 311.385 184.366 311.385 186.48V229.105C311.385 230.751 310.328 231.573 308.214 231.571C301.252 231.069 294.254 231.603 287.448 233.156C281.738 234.422 276.203 236.374 270.962 238.969C266.916 240.933 263.305 243.688 260.34 247.071V358.742C260.34 360.855 259.495 361.912 257.804 361.912H219.441C217.326 361.912 216.269 360.738 216.271 358.389V237.207C216.271 232.044 216.218 226.583 216.112 220.826C216.004 215.074 215.845 209.379 215.637 203.741C215.497 198.906 215.074 194.083 214.369 189.298C214.298 188.617 214.466 187.932 214.844 187.36C215.083 187.158 215.361 187.006 215.661 186.915C215.962 186.824 216.277 186.796 216.589 186.832Z" fill="#31A8FF"/>
<path d="M466.211 154.543C461.529 152.652 456.615 151.397 451.6 150.811C444.2 149.88 436.746 149.451 429.289 149.528C407.828 149.528 389.055 154.128 373.492 163.2C357.98 172.216 345.401 185.52 337.269 201.514C328.834 217.809 324.556 236.963 324.556 258.446C324.39 271.425 326.041 284.363 329.46 296.884C332.423 307.549 337.119 317.654 343.361 326.795C349.205 335.232 356.468 342.591 364.826 348.548C373.237 354.497 382.602 358.965 392.518 361.759C402.906 364.679 413.649 366.138 424.439 366.095C431.993 366.125 439.541 365.644 447.03 364.654C453.067 363.945 458.99 362.475 464.657 360.277C465.741 359.775 466.636 358.94 467.212 357.894C467.788 356.847 468.014 355.644 467.858 354.46V321.821C467.923 321.237 467.858 320.646 467.665 320.09C467.473 319.535 467.159 319.03 466.747 318.611C466.199 318.158 465.039 317.616 463.333 318.923C458.423 320.765 453.302 321.985 448.089 322.555C441.75 323.221 435.378 323.535 429.004 323.496C423.209 323.463 417.443 322.681 411.848 321.171C406.022 319.63 400.438 317.284 395.26 314.201C389.879 310.926 385.182 306.643 381.425 301.587C377.172 295.885 373.924 289.5 371.82 282.705C369.349 274.426 368.17 265.816 368.325 257.177C368.032 245.112 370.516 233.142 375.584 222.189C380.13 212.736 387.257 204.762 396.142 199.187C405.809 193.441 416.907 190.553 428.149 190.86C435.037 190.827 441.915 191.402 448.702 192.58C454.19 193.464 459.498 195.237 464.415 197.83C464.837 198.084 465.32 198.219 465.812 198.222C466.305 198.226 466.789 198.098 467.215 197.851C467.687 197.456 468.055 196.951 468.288 196.381C468.52 195.811 468.609 195.193 468.548 194.581V159.722C468.654 158.729 468.494 157.725 468.083 156.815C467.672 155.904 467.026 155.12 466.211 154.543Z" fill="#31A8FF"/>
</g>
<defs>
<clipPath id="clip0_820_366">
<rect width="525.128" height="512" fill="white" transform="translate(0.988037 0.0507812)"/>
</clipPath>
</defs>
</svg>
