<svg width="549" height="513" viewBox="0 0 549 513" fill="none" xmlns="http://www.w3.org/2000/svg">
<g clip-path="url(#clip0_2_15033)">
<path d="M456.133 407.551C449.508 407.551 444.129 412.921 444.129 419.551C444.129 426.173 449.508 431.552 456.133 431.552C462.758 431.552 468.129 426.173 468.129 419.552C468.129 412.921 462.758 407.551 456.133 407.551ZM456.133 428.977C454.895 428.978 453.669 428.735 452.525 428.262C451.381 427.789 450.341 427.094 449.466 426.219C448.59 425.343 447.896 424.304 447.423 423.16C446.949 422.016 446.706 420.79 446.707 419.552C446.707 414.344 450.919 410.132 456.133 410.132C461.341 410.132 465.557 414.344 465.557 419.552C465.557 424.761 461.341 428.977 456.133 428.977ZM461.064 416.769C461.064 416.235 460.959 415.706 460.754 415.212C460.549 414.718 460.249 414.27 459.871 413.892C459.493 413.515 459.044 413.215 458.55 413.011C458.056 412.807 457.527 412.703 456.992 412.704H451.21V426.402H453.78V420.839H455.625L458.222 426.402H461.064L458.353 420.601C459.145 420.32 459.831 419.801 460.316 419.115C460.802 418.429 461.063 417.61 461.065 416.769H461.064ZM456.992 418.267H453.78V415.269H456.992C457.818 415.269 458.494 415.941 458.494 416.77C458.493 417.168 458.334 417.548 458.053 417.829C457.771 418.11 457.39 418.267 456.992 418.267Z" fill="#00205B"/>
<path d="M548.764 232.353C548.764 176.699 514.165 121.838 452.761 88.127L429.232 106.797C471.196 133.202 495.892 172.661 495.892 217.441C495.892 321.961 366.736 416.629 223.001 416.629C208.248 416.629 193.78 415.55 179.804 413.475L131.301 449.369C161.928 459.73 196.105 465.23 231.822 465.23C402.449 465.23 548.764 350.033 548.764 232.353Z" fill="#00205B"/>
<path d="M331.741 271.214L243.958 288.377L438.67 128.382L348.025 140.534L524.213 0.800781L319.102 54.768C316.398 54.7112 313.686 54.6696 310.943 54.6696C142.852 54.6696 -0.00878906 168.907 -0.00878906 289.433C-0.00878906 348.567 31.8424 395.609 81.2112 426.089L5.4144 512.801L331.741 271.214ZM23.4232 271.61C23.4232 163.533 158.663 72.4272 296.318 72.4272C297.268 72.4272 298.206 72.4448 299.158 72.4552L166.074 221.339L242.6 209.235L91.824 355.053L152.974 344.008L110.261 392.866C58.3624 368.289 23.4232 325.906 23.4232 271.61Z" fill="#00205B"/>
</g>
<defs>
<clipPath id="clip0_2_15033">
<rect width="548.772" height="512" fill="white" transform="translate(-0.00878906 0.800781)"/>
</clipPath>
</defs>
</svg>
