<svg width="1025" height="187" viewBox="0 0 1025 187" fill="none" xmlns="http://www.w3.org/2000/svg">
<g clip-path="url(#clip0_806_181)">
<path d="M0.501465 0.339844V131.998C0.501465 162.228 25.1047 186.808 55.3639 186.808H209.771V55.1502C209.771 24.9197 185.167 0.339844 154.908 0.339844H0.501465Z" fill="#26D07C"/>
<path fill-rule="evenodd" clip-rule="evenodd" d="M8.98535 8.81543H154.908C180.36 8.81543 201.287 29.7225 201.287 55.15V178.332H55.3639C29.9123 178.332 8.98535 157.425 8.98535 131.997V8.81543Z" fill="white"/>
<path fill-rule="evenodd" clip-rule="evenodd" d="M150.516 145.137H118.303C118.303 145.137 137.413 141.066 134.137 125.869C131.953 115.827 119.667 110.399 119.667 110.399C139.596 106.329 134.41 91.1306 134.41 91.1306C134.41 91.1306 131.133 80.0039 118.303 75.6617H151.334C160.071 75.6617 167.168 82.7182 169.352 88.4169C171.809 95.7447 169.625 107.142 155.157 110.128C162.255 113.113 168.26 116.641 169.898 125.054C171.809 133.195 165.803 145.137 150.516 145.137ZM84.7118 147.579L114.195 38.7532H121.019L91.5365 147.579H84.7118ZM40.5003 111.415C61.5204 107.073 56.0608 90.2466 56.0608 90.2466C56.0608 90.2466 52.7846 78.0346 39.1352 73.4211H71.6321C81.4771 73.4211 89.3759 81.0196 91.0146 89.4332C93.4708 101.645 83.6434 111.415 74.9077 111.415H40.5003ZM39.1352 66.1628H85.8166V41.4669H39.1352V66.1628ZM153.494 17.0088H17.4692V130.302C17.4692 151.775 35.0025 169.574 56.7784 169.574H192.803V56.2801C192.803 34.8078 175.27 17.0088 153.494 17.0088Z" fill="#1D4094"/>
<path fill-rule="evenodd" clip-rule="evenodd" d="M988.382 116.37H969.372V70.7782H988.382C1001.31 70.7782 1009.29 80.2762 1009.29 93.5743C1009.29 106.872 1001.31 116.37 988.382 116.37ZM986.291 55.5811H952.263V131.567H986.291C1008.91 131.567 1024.5 116.37 1024.5 93.5743C1024.5 70.7781 1008.91 55.5811 986.291 55.5811Z" fill="#1D4094"/>
<path fill-rule="evenodd" clip-rule="evenodd" d="M906.703 85.9754H885.728V70.7782H906.703C915.629 70.7782 919.946 71.3994 919.946 78.3765C919.946 85.4037 915.913 85.9754 906.703 85.9754ZM868.619 55.5811V131.567H885.728V100.073H901.687L923.748 131.567H944.659L921.657 98.7306C933.586 96.1319 938.661 89.6457 938.661 78.3594C938.661 62.3513 929.451 55.5811 906.639 55.5811H868.619Z" fill="#1D4094"/>
<path fill-rule="evenodd" clip-rule="evenodd" d="M834.399 131.567H851.507V55.5811H834.399V131.567Z" fill="#1D4094"/>
<path fill-rule="evenodd" clip-rule="evenodd" d="M800.181 84.3472H765.963V55.5811H748.854V131.567H765.963V99.5441H800.181V131.567H817.289V55.5811H800.181V84.3472Z" fill="#1D4094"/>
<path fill-rule="evenodd" clip-rule="evenodd" d="M661.408 55.5811H733.646V70.778H706.082V131.567H688.972V70.778H661.408V55.5811Z" fill="#1D4094"/>
<path fill-rule="evenodd" clip-rule="evenodd" d="M551.151 99.5441H585.368V131.567H602.477V55.5811H585.368V84.3472H551.151V55.5811H534.042V131.567H551.151V99.5441Z" fill="#1D4094"/>
<path fill-rule="evenodd" clip-rule="evenodd" d="M450.398 55.5811H518.834V70.778H491.27V131.567H474.16V70.778H446.324L450.398 55.5811Z" fill="#1D4094"/>
<path fill-rule="evenodd" clip-rule="evenodd" d="M395.269 99.5441H424.924L428.916 84.3472H395.269V70.778H433.098L437.09 55.5811H378.16V131.567H395.269V99.5441Z" fill="#1D4094"/>
<path fill-rule="evenodd" clip-rule="evenodd" d="M343.942 131.567H361.051V55.5811H343.942V131.567Z" fill="#1D4094"/>
<path fill-rule="evenodd" clip-rule="evenodd" d="M286.912 99.5441H317.328V84.3472H286.912V70.778H328.734V55.5811H269.803V131.567H286.912V99.5441Z" fill="#1D4094"/>
</g>
<defs>
<clipPath id="clip0_806_181">
<rect width="1024" height="186.468" fill="white" transform="translate(0.501465 0.339844)"/>
</clipPath>
</defs>
</svg>
