<svg width="526" height="513" viewBox="0 0 526 513" fill="none" xmlns="http://www.w3.org/2000/svg">
<g clip-path="url(#clip0_820_392)">
<path d="M503.965 21.9883H22.5288V490.296H503.965V21.9883Z" fill="#000F34"/>
<path fill-rule="evenodd" clip-rule="evenodd" d="M0.57959 0.0507812V512.051H525.708V0.0507812H0.57959ZM22.5283 21.9995H503.964V490.307H22.5283V21.9995Z" fill="#7AA7FF"/>
<path fill-rule="evenodd" clip-rule="evenodd" d="M278.325 351.017C278.325 353.274 277.504 354.299 275.863 354.915C266.427 358.812 251.453 360.248 236.068 360.248C179.863 360.248 130.017 323.53 130.017 236.966C130.017 162.709 173.915 112.863 240.991 112.863C258.632 112.863 271.556 114.709 278.325 117.991C280.171 118.812 280.581 119.838 280.581 121.889V152.863C280.581 155.735 279.145 155.735 278.12 155.325C269.504 151.017 256.581 148.556 241.402 148.556C199.145 148.556 171.043 180.556 171.043 235.735C171.043 303.838 209.607 324.145 241.402 324.145C255.761 324.145 265.402 323.12 275.863 319.427C277.299 318.607 278.325 318.607 278.325 321.274V351.017ZM292.273 220.145C290.838 220.145 290.838 219.325 290.838 217.684V187.94C290.838 186.094 291.248 185.684 292.684 185.684H312.786V174.607C312.786 161.274 315.043 149.786 319.966 140.145C328.991 121.684 344.786 113.479 366.53 113.479C373.094 113.479 377.402 113.889 381.094 115.325C382.94 116.145 383.35 116.761 383.35 118.607V147.53C383.35 149.376 382.53 149.991 380.889 149.786C378.017 148.966 373.915 148.761 371.043 148.761C358.325 148.761 352.376 157.786 352.376 175.017V186.094H381.094C382.94 186.094 383.556 186.504 383.556 187.94V218.094C383.556 219.94 383.145 220.35 381.299 220.556H352.376V354.915C352.376 356.35 351.966 357.376 349.915 357.376H315.658C313.812 357.376 313.197 356.35 313.197 354.915V220.35H292.273V220.145Z" fill="#7AA7FF"/>
</g>
<defs>
<clipPath id="clip0_820_392">
<rect width="525.128" height="512" fill="white" transform="translate(0.57959 0.0507812)"/>
</clipPath>
</defs>
</svg>
