<svg width="526" height="513" viewBox="0 0 526 513" fill="none" xmlns="http://www.w3.org/2000/svg">
<g clip-path="url(#clip0_820_310)">
<path d="M93.7239 0.0507812H432.869C484.227 0.0507812 525.861 41.6847 525.861 93.0422V419.059C525.861 470.417 484.227 512.051 432.869 512.051H93.7239C42.3663 512.051 0.732422 470.417 0.732422 419.059V93.0422C0.732422 41.6847 42.3663 0.0507812 93.7239 0.0507812Z" fill="#1E3101"/>
<path d="M114.316 359.085V133.982C114.316 132.341 115.021 131.516 116.43 131.516C120.185 131.516 124.646 131.457 129.816 131.339C134.978 131.223 140.557 131.107 146.548 130.987C152.537 130.871 158.878 130.752 165.571 130.634C172.264 130.518 178.898 130.459 185.476 130.457C203.321 130.457 218.351 132.689 230.567 137.15C241.586 140.876 251.633 147.016 259.98 155.116C267.057 162.138 272.524 170.612 276.01 179.953C279.305 189.042 280.975 198.643 280.942 208.309C280.942 227.1 276.596 242.6 267.908 254.81C259.16 267.069 246.865 276.351 232.68 281.407C216.87 287.101 200.164 289.906 183.362 289.687C178.194 289.687 174.555 289.628 172.442 289.51C170.328 289.394 167.157 289.335 162.93 289.332V358.73C163.149 360.262 162.086 361.682 160.554 361.901C160.291 361.938 160.024 361.938 159.762 361.901H116.782C115.137 361.903 114.316 360.969 114.316 359.085ZM162.93 173.789V246.709C165.98 246.946 168.798 247.064 171.385 247.062H183.01C191.537 247.186 200.03 245.998 208.196 243.539C215.176 241.467 221.412 237.43 226.162 231.914C230.742 226.514 233.033 219 233.033 209.368C233.219 202.555 231.446 195.829 227.926 189.993C224.224 184.351 218.874 179.983 212.603 177.489C204.415 174.305 195.668 172.809 186.887 173.086C181.251 173.086 176.26 173.146 171.914 173.262C167.564 173.382 164.571 173.559 162.93 173.789Z" fill="#99E83F"/>
<path d="M411.633 327.028V355.914C411.633 358.501 410.694 360.028 408.815 360.494C404.191 361.943 399.485 363.12 394.724 364.017C389.144 365.01 383.481 365.483 377.814 365.426C362.544 365.426 350.569 361.433 341.883 353.449C333.192 345.467 328.846 332.669 328.848 315.051V227.687H308.064C306.183 227.687 305.246 226.63 305.246 224.516V189.641C305.246 187.764 306.303 186.825 308.417 186.823H329.201C329.433 182.832 329.726 178.194 330.082 172.91C330.435 167.625 330.903 162.341 331.492 157.057C332.076 151.773 332.603 147.487 333.076 144.2C333.308 143.496 333.666 142.839 334.133 142.264C334.588 141.691 335.198 141.262 335.894 141.032L377.814 135.748C378.733 135.597 379.329 135.597 379.751 135.844C380.217 136.081 380.28 136.689 380.28 137.862C379.808 143.266 379.455 150.607 379.224 159.878C378.987 169.157 378.751 178.141 378.519 186.825H411.28C412.69 186.825 413.394 187.764 413.394 189.644V225.223C413.573 226.387 412.792 227.481 411.633 227.689H378.167V303.076C378.167 311.062 379.517 316.757 382.219 320.16C384.915 323.567 389.906 325.271 397.189 325.269C399.303 325.269 401.294 325.214 403.178 325.092C405.055 324.976 406.935 324.801 408.815 324.564C409.453 324.326 410.167 324.389 410.751 324.739C411.335 325.092 411.633 325.855 411.633 327.028Z" fill="#99E83F"/>
</g>
<defs>
<clipPath id="clip0_820_310">
<rect width="525.128" height="512" fill="white" transform="translate(0.732422 0.0507812)"/>
</clipPath>
</defs>
</svg>
