<svg width="859" height="513" viewBox="0 0 859 513" fill="none" xmlns="http://www.w3.org/2000/svg">
<g clip-path="url(#clip0_879_3657)">
<path d="M429.786 512.051C369.534 512.051 269.065 496.224 184.215 451.594C101.167 407.925 40.7951 357.268 14.2054 308.929C5.21064 292.572 0.524428 274.29 0.644588 256.043C0.524428 237.795 5.21064 219.514 14.2054 203.172C40.7951 154.833 101.167 104.161 184.215 60.5079C269.081 15.8772 369.534 0.0507812 429.786 0.0507812C490.037 0.0507812 590.492 15.8772 675.358 60.5079C758.406 104.178 818.778 154.833 845.367 203.172C854.362 219.514 859.049 237.795 858.927 256.043C859.049 274.29 854.362 292.572 845.367 308.913C818.778 357.25 758.406 407.925 675.358 451.576C590.508 496.19 490.037 512.035 429.786 512.035" fill="white"/>
<path d="M834.794 256.043C834.915 241.366 831.121 226.879 824.031 214.005C800.103 170.49 742.374 122.168 663.773 80.8491C582.853 38.2961 487.43 23.2422 429.788 23.2422C372.145 23.2422 276.722 38.2961 195.802 80.8491C117.201 122.168 59.4898 170.49 35.5437 214.005C28.4715 226.861 24.6607 241.348 24.7808 256.043C24.6607 270.719 28.4715 285.206 35.5437 298.081C59.4726 341.596 117.201 389.917 195.802 431.236C276.722 473.789 372.145 488.843 429.788 488.843C487.43 488.843 582.853 473.789 663.773 431.236C742.374 389.917 800.085 341.596 824.031 298.081C831.103 285.224 834.915 270.737 834.794 256.043Z" fill="#115740"/>
<path d="M621.768 213.729L595.299 259.578C592.5 264.436 594.662 270.65 599.881 272.71L648.117 291.747H544.608L528.712 319.28H684.045C687.323 319.28 690.361 317.53 691.991 314.697L718.462 268.847C721.259 263.991 719.097 257.775 713.878 255.715L654.005 232.097H739.678L752.929 209.146H629.732C626.454 209.146 623.415 210.897 621.784 213.729H621.768Z" fill="white"/>
<path d="M592.811 232.097L606.063 209.146H459.194L445.943 232.097H482.66L432.312 319.298H505.747L556.095 232.097H592.811Z" fill="white"/>
<path d="M427.572 232.097L440.825 209.146H321.506L257.907 319.298H409.36L425.255 291.747H347.237L357.845 273.396H399.129L412.38 250.446H371.081L381.69 232.097H427.572Z" fill="white"/>
<path d="M736.675 181.235C736.675 181.235 725.791 179.038 693.813 176.824L581.721 165.802C520.113 160.361 466.041 146.199 415.901 111.01H414.218L456.532 179.313H242.338L180.079 287.163C178.43 289.996 175.41 291.748 172.131 291.748H104L88.105 319.281H224.366C230.923 319.281 236.983 315.78 240.262 310.098L309.165 190.778H763.522C757.875 187.483 748.811 183.311 736.675 181.217V181.235Z" fill="white"/>
</g>
<defs>
<clipPath id="clip0_879_3657">
<rect width="858.287" height="512" fill="white" transform="translate(0.642334 0.0507812)"/>
</clipPath>
</defs>
</svg>
