<svg width="1024" height="181" viewBox="0 0 1024 181" fill="none" xmlns="http://www.w3.org/2000/svg">
<g clip-path="url(#clip0_736_195)">
<path d="M364.81 180.224C327.68 180.224 293.274 169.165 270.336 148.541C262.134 141.171 255.598 132.136 251.166 122.039C246.734 111.942 244.507 101.015 244.634 89.9891C244.608 79.0083 246.882 68.1437 251.309 58.0946C255.735 48.0456 262.217 39.0346 270.336 31.6416C291.635 12.288 329.319 0 364.81 0C404.071 0 435.507 9.89184 459.53 31.6826C467.618 39.073 474.056 48.0857 478.425 58.1324C482.793 68.1792 484.995 79.0342 484.885 89.9891C484.83 100.955 482.555 111.796 478.198 121.859C473.84 131.922 467.49 140.999 459.53 148.541C437.146 169.288 402.002 180.224 364.81 180.224V156.508C384.492 156.508 402.76 149.709 415.519 137.011C428.278 124.314 434.074 108.913 434.074 89.9072C434.074 71.7619 427.704 54.8045 415.519 42.8032C402.924 30.4128 384.225 23.4291 364.81 23.4291C345.395 23.4291 326.615 30.3514 314.02 42.8032C301.875 54.825 295.588 71.8438 295.588 89.9072C295.406 98.5858 296.94 107.215 300.103 115.299C303.267 123.382 307.996 130.761 314.02 137.011C326.615 149.565 345.272 156.508 364.81 156.508V180.224ZM93.6961 0C73.851 0 51.3025 3.72736 32.2561 12.288C14.4795 20.2342 0.000126193 32.9933 0.000126193 54.1491C-0.0265811 65.2279 4.18682 75.8969 11.7761 83.968C16.9166 88.7194 25.211 96.7885 46.8788 101.54C56.5659 103.588 77.2712 106.885 97.8945 109.056C118.518 111.227 138.506 113.152 146.698 115.343C153.211 117.002 164.168 119.255 164.168 131.543C164.168 143.831 152.638 147.517 150.631 148.316C148.623 149.115 134.779 155.464 109.916 155.464C93.4432 155.006 77.1198 152.2 61.4401 147.128C52.1627 143.811 42.4347 139.448 33.362 128.369C29.7006 123.151 27.6693 116.965 27.5252 110.592H4.99725V173.67H30.0238V165.13C30.0199 164.497 30.1848 163.874 30.5017 163.325C30.8187 162.777 31.2761 162.323 31.8268 162.01C32.3776 161.697 33.0019 161.536 33.6353 161.545C34.2687 161.553 34.8884 161.731 35.4305 162.058C47.2213 167.189 59.4858 171.154 72.0488 173.896C85.1969 176.64 93.6961 178.627 110.039 178.627C127.285 178.954 144.472 176.528 160.952 171.438C171.896 168.438 182.164 163.37 191.201 156.508C196.284 152.604 200.393 147.574 203.204 141.813C206.015 136.053 207.451 129.719 207.401 123.31C207.487 111.134 202.787 99.4106 194.314 90.665C189.603 86.0927 184.145 82.3594 178.176 79.6262C171.759 76.7271 165.098 74.4037 158.27 72.6835C145.285 69.5091 116.122 65.536 102.175 64.1434C87.5521 62.6278 62.1774 60.5184 52.0398 57.385C48.9678 56.4224 42.7009 53.4528 42.7009 46.1824C42.7009 41.001 45.5681 36.6182 51.2206 33.0752C60.2113 27.4432 78.3566 23.9411 97.2801 23.9411C115.597 23.72 133.764 27.2683 150.651 34.3654C155.188 36.342 159.455 38.8884 163.349 41.943C169.696 47.3642 174.091 54.7163 175.862 62.8736H196.076V7.96672H173.548V14.336C173.548 16.384 171.5 19.0874 167.404 16.855C157.246 11.5712 128.696 0.14336 93.6961 0ZM588.268 10.0762L698.368 109.425L697.242 42.537C697.119 33.751 695.521 30.0851 686.019 30.0851H665.334V10.0762H759.542V30.0851H739.328C729.662 30.0851 729.088 33.1981 728.924 42.537L730.624 170.353H698.368L571.536 57.1802V137.482C571.638 146.227 572.047 150.344 581.038 150.344H603.566V170.353H511.222V150.344H532.849C540.918 150.344 540.59 142.643 540.59 137.032V43.2947C540.59 37.1507 539.73 30.1056 527.073 30.1056H509.543V10.0762H588.268ZM867.021 150.303C868.883 150.303 870.744 150.187 872.592 149.955C873.551 149.666 874.437 149.173 875.187 148.508C875.937 147.843 876.533 147.023 876.933 146.104C877.216 144.681 877.36 143.234 877.363 141.783V110.141C877.363 109.076 877.363 109.056 876.012 107.377C874.66 105.697 818.34 41.8406 815.78 38.9734C812.585 35.4918 806.974 30.1056 798.433 30.1056H778.875V10.0762H889.262V30.0646H875.95C872.878 30.0646 870.83 32.9933 873.452 36.2086C873.452 36.2086 910.602 80.6502 910.951 81.1213C911.299 81.5923 911.606 81.6947 912.077 81.2646C912.548 80.8346 950.149 36.6182 950.436 36.2086C950.88 35.6254 951.148 34.9267 951.207 34.1958C951.266 33.4648 951.114 32.7323 950.769 32.0852C950.424 31.4382 949.9 30.9038 949.26 30.5456C948.621 30.1874 947.891 30.0205 947.159 30.0646H933.499V10.0762H1024V30.1056H1003.79C996.455 30.1056 993.546 31.4573 987.955 37.6832L927.027 107.192C926.431 108.053 926.169 109.101 926.29 110.141V141.763C926.301 143.214 926.452 144.661 926.741 146.084C927.135 147.003 927.726 147.825 928.473 148.49C929.219 149.155 930.103 149.648 931.062 149.934C932.895 150.176 934.743 150.293 936.592 150.282H957.256V170.312H847.442V150.282L867.021 150.303Z" fill="black"/>
</g>
<defs>
<clipPath id="clip0_736_195">
<rect width="1024" height="180.285" fill="white"/>
</clipPath>
</defs>
</svg>
