<svg width="513" height="513" viewBox="0 0 513 513" fill="none" xmlns="http://www.w3.org/2000/svg">
<g clip-path="url(#clip0_795_4450)">
<path d="M256.861 11.7472C305.273 11.7689 352.592 26.1388 392.84 53.0413C433.088 79.9438 464.46 118.172 482.992 162.896C501.523 207.62 506.384 256.834 496.958 304.319C487.533 351.804 464.245 395.43 430.037 429.686C407.35 452.501 380.362 470.588 350.636 482.898C320.909 495.209 289.036 501.499 256.861 501.403C191.439 501.403 129.956 475.978 83.7508 429.815C37.5453 383.653 12.0332 322.12 12.0332 256.575C12.0228 224.421 18.3484 192.58 30.6485 162.871C42.9485 133.163 60.982 106.169 83.7185 83.4324C106.455 60.696 133.449 42.6625 163.157 30.3624C192.866 18.0623 224.707 11.7368 256.861 11.7472ZM256.861 0.575757C188.378 0.575757 124.05 27.2259 75.7126 75.6354C51.9036 99.3564 33.0304 127.56 20.1831 158.616C7.33572 189.672 0.768868 222.967 0.861813 256.575C0.861813 325.073 27.5119 389.408 75.8566 437.717C124.201 486.025 188.435 512.575 256.861 512.575C307.497 512.568 356.993 497.546 399.092 469.411C441.191 441.275 474.002 401.288 493.377 354.505C512.751 307.723 517.819 256.247 507.94 206.584C498.06 156.922 473.677 111.304 437.873 75.4986C414.152 51.6651 385.94 32.7717 354.87 19.9114C323.8 7.05108 290.488 0.47915 256.861 0.575757Z" fill="#0A2240"/>
<path d="M256.861 11.7471C305.273 11.7688 352.592 26.1386 392.84 53.0412C433.088 79.9437 464.46 118.172 482.992 162.896C501.523 207.62 506.384 256.833 496.958 304.319C487.533 351.804 464.245 395.43 430.037 429.686C407.35 452.501 380.362 470.588 350.636 482.898C320.909 495.209 289.036 501.499 256.861 501.403C191.439 501.403 129.956 475.978 83.7508 429.815C37.5453 383.653 12.0332 322.12 12.0332 256.575C12.0228 224.421 18.3484 192.58 30.6484 162.871C42.9485 133.163 60.982 106.169 83.7185 83.4323C106.455 60.6959 133.449 42.6624 163.157 30.3623C192.866 18.0622 224.707 11.7367 256.861 11.7471Z" fill="white"/>
<path d="M59.7441 240.636C53.9819 240.636 49.7683 244.525 49.7683 249.934C49.7683 255.344 53.8306 258.736 58.7285 258.736C59.8996 258.779 61.0639 258.54 62.1231 258.038C63.1823 257.537 64.1055 256.788 64.8148 255.855C64.4763 260.587 61.2639 263.288 56.5317 263.288C54.8877 263.239 53.2736 262.836 51.7995 262.107L50.4454 266.659C51.7995 267.502 54.3348 268.013 56.5317 268.013C65.4919 268.013 70.2169 262.431 70.2169 253.132C70.2241 244.698 65.4919 240.636 59.7441 240.636ZM59.5784 253.997C57.0431 253.997 55.0119 252.304 55.0119 249.769C55.0587 248.59 55.56 247.475 56.4106 246.658C57.2612 245.84 58.3951 245.384 59.5748 245.384C60.7546 245.384 61.8885 245.84 62.7391 246.658C63.5897 247.475 64.0909 248.59 64.1378 249.769C64.1192 250.347 63.9862 250.915 63.7464 251.442C63.5067 251.968 63.1648 252.441 62.7408 252.835C62.3167 253.228 61.8189 253.533 61.276 253.733C60.7332 253.932 60.1562 254.022 59.5784 253.997Z" fill="#0A2240"/>
<path d="M28.8083 246.218V249.934H35.0675V267.516H40.6424V241.312H35.7374C35.2332 244.021 32.525 246.218 28.8083 246.218Z" fill="#0A2240"/>
<path d="M449.894 240.636C444.132 240.636 439.926 244.525 439.926 249.769C439.926 255.178 443.981 258.556 448.886 258.556C451.587 258.556 453.928 257.375 454.972 255.855C454.634 260.587 451.421 263.123 446.689 263.123C445.056 263.12 443.441 262.774 441.95 262.107L440.603 266.501C442.474 267.506 444.565 268.03 446.689 268.028C455.642 268.028 460.374 262.446 460.374 252.981C460.403 244.698 455.657 240.636 449.894 240.636ZM449.729 253.997C449.143 254.029 448.556 253.937 448.008 253.728C447.46 253.518 446.962 253.195 446.547 252.779C446.133 252.364 445.81 251.866 445.601 251.317C445.392 250.768 445.302 250.182 445.335 249.596C445.334 249.026 445.448 248.462 445.67 247.938C445.892 247.413 446.219 246.939 446.629 246.544C447.04 246.149 447.526 245.841 448.059 245.639C448.591 245.437 449.159 245.345 449.729 245.368C452.264 245.368 454.295 247.061 454.295 249.596C454.317 252.304 452.286 253.997 449.75 253.997H449.729Z" fill="#0A2240"/>
<path d="M478.489 249.934C477.273 249.87 476.06 250.115 474.964 250.646C473.869 251.178 472.925 251.979 472.223 252.974C472.727 248.069 476.444 245.361 480.866 245.361C482.384 245.4 483.879 245.745 485.26 246.376L486.78 241.817C485.053 240.954 483.134 240.545 481.205 240.628C472.562 240.628 466.663 246.549 466.663 256.013C466.663 263.792 471.568 268.02 477.315 268.02C483.063 268.02 487.457 264.131 487.457 258.722C487.457 253.312 483.747 249.934 478.489 249.934ZM477.308 263.288C476.717 263.311 476.127 263.215 475.574 263.005C475.021 262.794 474.516 262.474 474.089 262.064C473.663 261.654 473.323 261.161 473.092 260.617C472.86 260.072 472.741 259.486 472.742 258.894C472.742 256.193 474.773 254.501 477.308 254.501C479.844 254.501 481.868 256.193 481.868 258.894C481.868 261.595 479.844 263.288 477.308 263.288Z" fill="#0A2240"/>
<path d="M187.888 431.162L169.968 449.76L172.503 424.06L166.078 421.014L163.543 455.839L169.463 458.713L193.974 433.863L187.888 431.162Z" fill="#0A2240"/>
<path d="M130.576 395.826L121.112 387.183L98.9631 411.024L103.703 415.417L112.151 406.119L114.521 408.488L110.797 422.008L116.041 426.74L119.93 412.371C123.82 414.236 128.213 413.386 131.455 410.174C135.315 405.975 135.135 400.227 130.576 395.826ZM126.492 405.802C124.634 407.833 122.098 407.999 119.563 405.636L115.839 402.251L122.098 395.66L125.815 399.038C128.213 401.235 128.379 403.943 126.492 405.802Z" fill="#0A2240"/>
<path d="M125.844 434.202L142.748 445.532L146.134 440.627L134.465 432.682L138.528 426.596L149.346 433.525L152.386 428.793L141.733 421.864L145.795 415.777L157.629 423.556L161.007 418.478L144.102 407.156L125.844 434.202Z" fill="#0A2240"/>
<path d="M325.331 432.005L337.496 462.264L343.417 459.901L331.244 429.635L325.331 432.005Z" fill="#0A2240"/>
<path d="M352.204 418.313C344.598 422.706 341.047 432.344 346.29 441.469C351.534 450.595 361.675 452.122 369.281 447.894C377.06 443.335 380.611 433.698 375.368 424.565C369.944 415.439 359.817 413.919 352.204 418.313ZM366.235 442.485C362.014 444.855 355.589 444.516 352.038 438.091C348.321 431.667 350.857 426.257 355.25 423.556C359.644 421.187 365.903 421.525 369.62 427.777C373.337 434.202 370.664 439.784 366.235 442.485Z" fill="#0A2240"/>
<path d="M388.556 391.936L403.091 407.998L378.58 400.896L372.494 406.14L394.304 430.651L399.036 426.43L383.478 409.014L410.02 416.454L415.091 412.061L393.454 387.715L388.556 391.936Z" fill="#0A2240"/>
<path d="M212.737 438.43C204.094 436.399 194.817 440.792 192.454 451.107C189.746 461.421 196.005 469.539 204.627 471.562C213.27 473.723 222.54 469.2 224.91 459.051C227.618 448.744 221.359 440.461 212.737 438.43ZM218.687 457.366C216.821 464.633 210.908 466.665 206.176 465.649C201.271 464.461 197.043 459.728 198.735 452.627C200.594 445.359 206.514 443.335 211.246 444.516C216.123 445.532 220.343 450.264 218.687 457.366Z" fill="#0A2240"/>
<path d="M242.319 444.012L235.901 443.5L233.87 476.129L255.68 477.649L256.019 471.397L240.633 470.547L242.319 444.012Z" fill="#0A2240"/>
<path d="M318.906 434.713L292.868 441.808L294.395 447.556L304.363 444.855L311.299 470.547L317.379 468.862L310.45 443.162L320.591 440.627L318.906 434.713Z" fill="#0A2240"/>
<path d="M286.443 442.823L280.191 443.673L282.222 463.956C282.726 468.184 280.529 470.719 276.813 471.058C273.096 471.396 270.388 469.365 269.877 465.137L268.191 444.854L261.766 445.359L263.79 466.326C264.467 474.249 270.388 477.987 277.317 477.31C284.246 476.633 289.49 471.735 288.64 463.79L286.443 442.823Z" fill="#0A2240"/>
<path d="M105.899 140.05L88.3174 125.342L115.529 128.892L119.93 123.656L94.9079 102.689L90.8528 107.594L107.419 121.459L82.0583 117.908L76.9875 123.995L101.844 144.955L105.899 140.05Z" fill="#0A2240"/>
<path d="M160.33 92.3748L155.937 68.3753L173.519 85.4458L179.101 82.4062L171.826 49.605L165.912 52.1403L171.487 74.9658L154.417 58.3995L148.669 61.6119L152.897 84.7687L136.662 67.6982L131.426 71.4148L154.417 95.5944L160.33 92.3748Z" fill="#0A2240"/>
<path d="M142.921 104.043L139.032 99.4764L128.213 108.437L123.308 102.523L133.111 94.4057L129.567 90.012L119.757 98.2952L114.859 92.3745L125.844 83.4215L121.961 78.855L106.238 91.8703L127.032 116.893L142.921 104.043Z" fill="#0A2240"/>
<path d="M388.045 88.3196L384.666 115.712L389.737 120.105L410.697 95.083L405.799 91.0279L391.934 107.421L395.485 82.2333L389.399 77.1626L368.439 102.185L373.337 106.24L388.045 88.3196Z" fill="#0A2240"/>
<path d="M346.456 80.7136L357.98 87.1384L356.972 94.9174L362.885 98.2954L367.783 63.8088L361.524 60.2578L334.644 82.5863L340.564 85.7987L346.456 80.7136ZM361.164 68.2024L359.003 81.0521L351.217 76.8241L361.164 68.2024Z" fill="#0A2240"/>
<path d="M332.425 75.4695L318.906 70.5717L327.693 45.5494L321.607 43.3525L310.961 74.1226L330.567 81.2173L332.425 75.4695Z" fill="#0A2240"/>
<path d="M421.854 106.413L396.501 126.868L403.934 135.994C409.696 143.262 418.815 144.954 426.759 138.53C434.877 131.939 435.043 122.64 429.295 115.538L421.854 106.413ZM422.531 133.286C417.122 137.687 411.886 136.167 408.335 132.105L404.95 128.215L421.35 115.034L424.563 118.917C427.941 123.145 428.114 128.727 422.524 133.286H422.531Z" fill="#0A2240"/>
<path d="M262.443 33.7153L256.018 33.8882L256.861 55.5252L242.492 34.3924L234.547 34.7309L235.728 67.1864L242.153 66.8479L241.31 44.0296L256.861 66.5166L263.625 66.1781L262.443 33.7153Z" fill="#0A2240"/>
<path d="M212.06 65.6668L210.541 58.2336L223.052 55.691L221.698 50.1161L209.359 52.6514L207.667 45.3839L221.532 42.51L220.178 36.5894L200.226 40.9902L207.163 72.9343L227.107 68.7135L225.926 62.7929L212.06 65.6668Z" fill="#0A2240"/>
<path d="M296.592 66.344L296.419 70.0606L301.461 70.9105L304.198 54.1785L288.136 51.4775L287.293 56.8868L297.434 58.7451C296.757 60.7762 293.883 64.5073 287.797 63.6501C282.553 62.6345 278.333 58.068 279.348 50.8005C280.695 43.1944 286.616 40.659 291.348 41.5017C296.592 42.3445 298.788 46.2339 299.127 49.1078L305.379 47.9266C304.536 42.683 300.812 37.1225 292.364 35.5811C283.569 34.0613 274.782 39.3049 273.089 49.7849C271.404 60.0992 277.821 67.8709 286.616 69.0594C291.182 69.8949 294.899 68.2023 296.592 66.344Z" fill="#0A2240"/>
<path d="M429.676 255.754C429.682 239.605 425.343 223.751 417.115 209.854C408.886 195.958 397.072 184.53 382.909 176.769C384.825 170.256 384.948 163.346 383.266 156.769C381.584 150.191 378.158 144.189 373.35 139.396C368.541 134.603 362.529 131.195 355.947 129.533C349.364 127.871 342.455 128.015 335.947 129.951C328.179 115.694 316.702 103.801 302.73 95.5304C288.758 87.2602 272.81 82.9202 256.573 82.9697C240.337 83.0191 224.416 87.4561 210.494 95.8113C196.573 104.167 185.168 116.129 177.487 130.434C171.099 128.727 164.375 128.727 157.988 130.435C151.6 132.143 145.773 135.499 141.09 140.167C136.407 144.834 133.032 150.65 131.303 157.032C129.574 163.414 129.552 170.138 131.238 176.531C116.983 184.247 105.073 195.667 96.7654 209.585C88.4575 223.504 84.0591 239.407 84.034 255.617C84.009 271.826 88.3581 287.743 96.6229 301.687C104.888 315.632 116.762 327.088 130.994 334.848C129.04 341.365 128.885 348.289 130.545 354.887C132.205 361.486 135.619 367.512 140.424 372.329C145.23 377.145 151.248 380.573 157.843 382.248C164.437 383.923 171.362 383.784 177.883 381.845C185.651 395.999 197.08 407.805 210.974 416.028C224.868 424.251 240.716 428.59 256.861 428.59C273.006 428.59 288.855 424.251 302.748 416.028C316.642 407.805 328.071 395.999 335.839 381.845C342.372 383.809 349.315 383.966 355.931 382.299C362.546 380.632 368.585 377.204 373.408 372.379C378.23 367.553 381.655 361.512 383.318 354.895C384.98 348.279 384.819 341.336 382.851 334.804C397.035 327.046 408.867 315.611 417.106 301.702C425.345 287.792 429.688 271.921 429.676 255.754Z" fill="#0A2240"/>
<path d="M220.74 275.922L198.411 294.303C198.415 294.322 198.415 294.342 198.411 294.361L158.796 326.975C143.444 305.793 135.358 280.212 135.747 254.055C136.137 227.898 144.981 202.569 160.957 181.854C161.252 181.465 161.562 181.084 161.864 180.702L162.585 179.794C164.162 177.835 165.797 175.919 167.497 174.068C127.428 177.669 95.9739 212.912 95.9739 255.884C95.9739 298.855 127.428 334.113 167.497 337.7L174.75 338.37C174.75 338.37 175.29 346.408 175.362 347.099C179.792 386.333 214.624 416.887 256.977 416.887C299.948 416.887 335.205 385.432 338.792 345.371C336.941 347.063 335.025 348.698 333.03 350.283L332.13 351.003C331.741 351.306 331.359 351.615 330.97 351.911C310.256 367.885 284.928 376.728 258.773 377.117C232.617 377.507 207.038 369.422 185.857 354.072L245.495 282.044C244.055 279.883 242.535 278.176 240.986 277.276L221.842 275.043L220.747 275.936M108.485 255.855C108.485 221.138 128.962 191.916 156.808 183.165C136.446 197.239 122.631 224.509 122.631 255.855C122.631 287.201 136.446 314.5 156.808 328.603C128.962 319.823 108.485 290.608 108.485 255.855ZM256.948 404.347C222.231 404.347 193.009 383.876 184.258 356.023C198.332 376.393 225.601 390.2 256.948 390.2C288.294 390.2 315.564 376.393 329.609 356.023C320.886 383.876 291.672 404.347 256.948 404.347ZM348.66 174.32H348.574C347.76 174.234 346.946 174.14 346.125 174.075L339.376 173.441C339.376 173.441 338.735 166.397 338.764 166.426C335.162 126.357 299.919 94.9028 256.948 94.9028C213.976 94.9028 178.719 126.357 175.132 166.426C176.99 164.726 178.911 163.086 180.894 161.507L181.802 160.786C182.183 160.484 182.565 160.174 182.954 159.879C203.67 143.902 229 135.058 255.159 134.668C281.317 134.279 306.899 142.365 328.082 157.718L315.78 172.714L301.252 190.31L254.607 247.212C265.296 247.262 274.472 247.305 279.211 247.305H279.78L355.834 185.751C370.852 206.924 378.678 232.358 378.159 258.311C377.641 284.264 368.805 309.365 352.953 329.921C352.658 330.31 352.355 330.691 352.045 331.08L351.325 331.981C349.741 333.94 348.106 335.856 346.413 337.707C386.474 334.106 417.929 298.863 417.929 255.891C417.95 213.712 387.656 178.995 348.66 174.32ZM256.948 121.567C225.601 121.567 198.332 135.375 184.258 155.744C193.009 127.891 222.231 107.421 256.948 107.421C291.665 107.421 320.886 127.899 329.609 155.737C315.564 135.375 288.294 121.567 256.948 121.567ZM357.066 328.574C377.435 314.5 391.243 287.23 391.243 255.884C391.243 225.063 377.889 198.19 358.11 183.921L358.319 183.756L358.096 183.532C385.466 192.666 405.418 221.584 405.418 255.884C405.41 290.608 384.94 319.823 357.087 328.603L357.066 328.574ZM373.149 345.68C373.154 349.665 372.256 353.599 370.523 357.187C368.791 360.776 366.268 363.925 363.145 366.4C360.022 368.875 356.379 370.61 352.489 371.476C348.6 372.342 344.565 372.317 340.687 371.401C341.925 368.249 342.983 365.029 343.856 361.757C346.208 362.188 348.627 362.095 350.939 361.485C353.251 360.875 355.401 359.763 357.235 358.228C359.069 356.693 360.542 354.773 361.55 352.605C362.558 350.436 363.075 348.072 363.066 345.68C363.062 344.714 362.97 343.749 362.792 342.799C366.063 341.927 369.283 340.871 372.436 339.637C372.915 341.616 373.162 343.644 373.171 345.68H373.149ZM167.706 140.402C169.371 140.403 171.033 140.562 172.669 140.878C171.46 144.06 170.436 147.309 169.6 150.609C168.972 150.528 168.339 150.487 167.706 150.486C163.373 150.492 159.22 152.216 156.156 155.279C153.092 158.343 151.369 162.497 151.363 166.829C151.361 167.404 151.392 167.979 151.457 168.551C148.156 169.401 144.907 170.44 141.726 171.662C141.431 170.068 141.281 168.451 141.279 166.829C141.294 159.824 144.087 153.111 149.046 148.162C154.004 143.213 160.722 140.433 167.727 140.431L167.706 140.402ZM362.857 168.702C363.003 167.828 363.08 166.944 363.087 166.059C363.101 163.672 362.589 161.311 361.587 159.144C360.585 156.977 359.118 155.058 357.29 153.523C355.463 151.987 353.319 150.873 351.012 150.26C348.705 149.647 346.291 149.55 343.942 149.975C343.082 146.699 342.036 143.474 340.809 140.316C345.164 139.309 349.704 139.424 354.003 140.651C358.302 141.878 362.218 144.176 365.386 147.331C368.553 150.485 370.868 154.392 372.112 158.686C373.357 162.98 373.491 167.519 372.501 171.878C369.349 170.638 366.129 169.578 362.857 168.702ZM173.346 372.222C168.951 373.18 164.385 373 160.08 371.699C155.774 370.398 151.872 368.02 148.743 364.789C145.614 361.558 143.362 357.582 142.199 353.237C141.037 348.893 141.003 344.323 142.1 339.961C145.039 341.078 148.035 342.04 151.075 342.842C150.9 343.793 150.811 344.757 150.808 345.724C150.814 350.058 152.539 354.212 155.604 357.276C158.669 360.34 162.825 362.063 167.158 362.067C168.061 362.061 168.962 361.981 169.852 361.829C170.801 365.362 171.968 368.833 173.346 372.222Z" fill="#CE0E2D"/>
<path d="M209.374 342.864L221.244 321.436C223.405 338.398 231.918 348.259 231.918 348.259L225.378 356.232L209.374 342.864ZM184.344 275.302C184.344 272.342 184.841 266.933 191.547 266.933H199.081V281.064C199.14 285.483 198.911 289.9 198.397 294.289L220.725 275.893V266.911H243.997C249.932 269.495 255.105 273.557 259.022 278.709C278.145 303.724 289.504 341.229 315.636 346.328L348.214 314.024L338.944 305.748C338.944 305.748 325.698 318.821 314.685 318.281C301.612 317.647 296.354 300.101 288.986 286.834C285.219 279.87 280.918 273.209 276.121 266.911H277.029C277.029 266.911 296.952 267.552 308.426 261.336C323.796 253.01 333.419 238.194 335.724 220.064L304.27 236.407C299.156 243.164 290.937 247.319 279.226 247.319C269.718 247.319 242.341 247.161 220.74 247.024V190.36C231.054 184.281 247.685 175.011 271.101 176.87C284.498 177.928 294.575 183.186 301.23 190.346L315.693 172.692C310.476 168.67 304.682 165.458 298.508 163.163C260.319 148.606 223.534 167.261 208.603 175.904C192.188 185.47 178.805 180.37 178.805 180.37L175.456 196.936C182.816 200.375 191.088 201.35 199.045 199.717V246.866L191.806 246.823C185.115 246.823 184.604 241.406 184.604 238.453V226.633H172.813L172.517 287.136H184.344V275.302Z" fill="white"/>
</g>
<defs>
<clipPath id="clip0_795_4450">
<rect width="512" height="512" fill="white" transform="translate(0.86084 0.574707)"/>
</clipPath>
</defs>
</svg>
