<svg width="1025" height="312" viewBox="0 0 1025 312" fill="none" xmlns="http://www.w3.org/2000/svg">
<g clip-path="url(#clip0_2_14681)">
<path d="M157.953 311.026C244.963 311.026 315.498 241.533 315.498 155.809C315.498 70.0847 244.963 0.591797 157.953 0.591797C70.9436 0.591797 0.408203 70.0847 0.408203 155.809C0.408203 241.533 70.9436 311.026 157.953 311.026Z" fill="#FF0000"/>
<path d="M157.954 248.948C210.16 248.948 252.481 207.252 252.481 155.818C252.481 104.383 210.16 62.6875 157.954 62.6875C105.748 62.6875 63.4272 104.383 63.4272 155.818C63.4272 207.252 105.748 248.948 157.954 248.948Z" fill="#FF0000" stroke="white" stroke-width="15.5217"/>
<path d="M126.446 201.662L208.284 155.822L126.446 109.955V201.662Z" fill="white"/>
<path d="M484.594 125.313C477.105 162.215 471.414 207.267 468.426 225.867H466.318C463.899 206.698 458.208 161.944 450.447 125.623L431.265 35.2222H372.8V279.042H409.056V78.0362L412.639 96.8045L449.503 279.003H485.772L522.028 96.8045L525.908 77.9327V279.029H562.177V35.2092H503.156L484.594 125.313ZM660.209 242.424C656.898 249.111 649.732 253.755 642.515 253.755C634.133 253.755 630.822 247.365 630.822 231.688V100.892H589.456V233.99C589.456 266.845 600.529 281.926 625.13 281.926C641.894 281.926 655.372 274.657 664.685 257.234H665.59L669.173 279.016H701.536V100.905H660.171V242.411L660.209 242.424ZM781.563 171.205C768.072 161.608 759.691 155.218 759.691 141.274C759.691 131.405 764.476 125.882 775.859 125.882C787.565 125.882 791.458 133.707 791.73 160.469L826.511 159.033C829.202 115.754 814.508 97.7228 776.454 97.7228C741.103 97.7228 723.706 113.115 723.706 144.779C723.706 173.546 738.102 186.623 761.476 203.788C781.563 218.908 793.256 227.329 793.256 239.539C793.256 248.852 787.254 255.229 776.764 255.229C764.476 255.229 757.272 243.885 759.108 224.121L724.055 224.69C718.636 261.58 733.963 283.091 774.695 283.091C810.369 283.091 828.956 267.103 828.956 235.154C828.917 206.09 813.952 194.449 781.563 171.205ZM891.25 100.892H851.682V279.003H891.263V100.905L891.25 100.892ZM871.757 30.5527C856.494 30.5527 849.277 36.0759 849.277 55.271C849.277 75.0353 856.442 79.9634 871.77 79.9634C887.356 79.9634 894.251 75.0094 894.251 55.271C894.251 36.9813 887.356 30.5527 871.757 30.5527ZM1024.3 214.795L988.04 213.049C988.04 244.429 984.457 254.595 972.182 254.595C959.894 254.595 957.786 243.252 957.786 206.349V171.813C957.786 136.048 960.205 124.743 972.493 124.743C983.875 124.743 986.876 135.479 986.876 168.631L1022.81 166.329C1025.23 138.726 1021.61 119.828 1010.53 109.092C1002.42 101.228 990.149 97.49 973.075 97.49C932.925 97.49 916.434 118.418 916.434 177.09V202.08C916.434 262.524 930.507 281.991 971.587 281.991C988.972 281.991 1000.95 278.499 1009.05 270.945C1020.71 260.416 1025.19 242.424 1024.3 214.795Z" fill="#282828"/>
</g>
<defs>
<clipPath id="clip0_2_14681">
<rect width="1024" height="310.434" fill="white" transform="translate(0.409668 0.583984)"/>
</clipPath>
</defs>
</svg>
