<svg width="526" height="513" viewBox="0 0 526 513" fill="none" xmlns="http://www.w3.org/2000/svg">
<g clip-path="url(#clip0_820_290)">
<path d="M432.393 0.0507812H93.2479C41.8902 0.0507812 0.25647 41.6845 0.25647 93.0422V419.059C0.25647 470.417 41.8902 512.051 93.2479 512.051H432.393C483.751 512.051 525.385 470.417 525.385 419.059V93.0422C525.385 41.6845 483.751 0.0507812 432.393 0.0507812Z" fill="#001E36"/>
<path d="M276.036 361.912H137.241C134.891 361.912 133.717 360.62 133.718 358.037V134.343C133.657 133.912 133.696 133.473 133.834 133.061C133.972 132.648 134.203 132.273 134.511 131.965C134.819 131.658 135.194 131.426 135.607 131.288C136.019 131.151 136.458 131.111 136.889 131.173H179.867C180.202 131.126 180.543 131.157 180.863 131.264C181.184 131.371 181.476 131.552 181.715 131.791C181.954 132.03 182.134 132.321 182.241 132.642C182.349 132.963 182.38 133.304 182.333 133.639V317.526H283.435C285.548 317.526 286.37 318.583 285.901 320.696L279.56 358.742C279.545 359.261 279.41 359.77 279.166 360.228C278.921 360.687 278.574 361.082 278.151 361.384C277.497 361.723 276.773 361.904 276.036 361.912Z" fill="#31A8FF"/>
<path d="M310.908 186.82H349.305C350.348 186.829 351.359 187.178 352.185 187.814C353.012 188.45 353.608 189.338 353.884 190.343C354.722 191.886 355.317 193.55 355.646 195.275C356.138 197.541 356.491 199.835 356.703 202.144C356.935 204.61 357.052 207.252 357.055 210.07C363.64 202.403 371.582 196.014 380.482 191.224C390.479 185.818 401.704 183.088 413.067 183.298C413.498 183.236 413.937 183.276 414.35 183.413C414.762 183.551 415.137 183.783 415.445 184.09C415.752 184.398 415.984 184.773 416.122 185.186C416.259 185.598 416.299 186.038 416.237 186.468V229.093C416.237 230.739 415.063 231.561 412.715 231.559C398.524 230.681 384.33 233.218 371.323 238.957C366.902 240.869 362.894 243.621 359.521 247.059V358.73C359.521 360.844 358.582 361.901 356.703 361.901H314.078C313.599 361.969 313.111 361.925 312.652 361.773C312.194 361.62 311.777 361.362 311.435 361.02C311.093 360.679 310.836 360.262 310.683 359.803C310.53 359.344 310.487 358.856 310.555 358.378V237.196C310.555 232.032 310.497 226.572 310.379 220.815C310.258 215.063 310.082 209.367 309.85 203.729C309.694 198.89 309.224 194.065 308.442 189.286C308.354 188.945 308.356 188.587 308.449 188.247C308.541 187.908 308.721 187.598 308.97 187.349C309.219 187.1 309.529 186.92 309.869 186.827C310.209 186.734 310.567 186.732 310.908 186.82Z" fill="#31A8FF"/>
</g>
<defs>
<clipPath id="clip0_820_290">
<rect width="525.128" height="512" fill="white" transform="translate(0.25647 0.0507812)"/>
</clipPath>
</defs>
</svg>
