<svg width="1025" height="226" viewBox="0 0 1025 226" fill="none" xmlns="http://www.w3.org/2000/svg">
<g clip-path="url(#clip0_806_197)">
<path d="M307.631 4.96261C303.765 1.0958 297.788 1.0958 293.922 4.96261L288.297 10.587C284.431 14.4539 284.431 20.4298 288.297 24.2966L377.234 113.585L288.297 202.873C284.431 206.74 284.431 212.716 288.297 216.583L293.922 222.207C297.788 226.074 303.765 226.074 307.631 222.207L415.902 113.585L307.631 4.96261Z" fill="#FAA74A"/>
<path d="M983.972 20.4296C983.972 8.82919 992.756 0.0410156 1004.36 0.0410156C1015.96 0.0410156 1024.75 8.82919 1024.75 20.4296C1024.75 32.0301 1015.96 40.8183 1004.36 40.8183C992.756 40.8183 983.972 32.0301 983.972 20.4296ZM1022.29 20.4296C1022.29 9.88379 1014.91 2.50171 1004.36 2.50171C993.811 2.50171 986.433 10.2353 986.433 20.4296C986.433 30.9755 993.811 38.3576 1004.36 38.3576C1014.56 38.7091 1022.29 30.6239 1022.29 20.4296ZM1000.84 30.6239H998.031V9.5323C999.437 9.18074 1001.2 9.18074 1002.95 9.18074C1008.23 9.18074 1011.39 11.6414 1011.39 16.2113C1011.39 19.7266 1008.93 21.8357 1006.47 22.5388L1013.5 30.9755H1010.34L1004.01 23.2419H1001.2L1000.84 30.6239ZM1000.84 20.7812H1003.3C1006.12 20.7812 1008.58 19.375 1008.58 16.2113C1008.58 13.3991 1006.47 11.993 1002.95 11.993C1002.25 11.993 1001.2 11.993 1000.49 11.993L1000.84 20.7812Z" fill="#1E3860"/>
<path d="M903.119 100.93C903.119 100.93 892.929 98.4692 887.303 96.3602C869.371 90.0323 852.851 80.5412 852.851 63.3164C852.851 43.2792 870.074 29.5696 896.087 29.5696C913.316 29.5696 926.671 34.491 936.165 43.9823L939.33 47.146C943.197 51.0129 949.169 51.0129 953.036 47.146L958.662 41.5216C962.53 37.6548 962.53 31.6788 958.662 27.812C957.256 26.0543 955.498 24.6482 955.498 24.6482C940.384 10.2356 919.639 2.50195 896.087 2.50195C874.645 2.50195 857.422 8.1264 843.012 20.0783C829.299 31.6788 822.618 46.0914 822.618 63.668C822.618 106.555 862.696 117.1 897.845 126.592L898.9 126.943C929.836 134.325 945.301 146.629 945.301 163.502C945.301 184.945 927.375 197.6 897.845 197.6C879.216 197.6 862.696 191.273 851.444 180.024L848.28 176.86C844.412 172.993 838.441 172.993 834.573 176.86L827.892 183.539C824.025 187.406 824.025 193.382 827.892 197.248L831.057 200.412C847.225 216.231 870.425 225.019 897.845 225.019C920.694 225.019 939.33 219.395 954.091 207.794C968.507 196.897 975.534 181.781 975.534 163.15C976.237 123.428 941.791 109.718 903.119 100.93Z" fill="#1E3860"/>
<path d="M653.183 2.15039C591.665 2.15039 542.1 52.0674 542.1 113.585C542.1 175.102 591.665 225.019 653.183 225.019C714.703 225.019 764.268 175.102 764.268 113.585C764.268 52.0674 714.351 2.15039 653.183 2.15039ZM653.183 29.5696C699.583 29.5696 737.2 67.1828 737.2 113.585C737.2 159.986 699.583 197.6 653.183 197.6C606.781 197.6 569.168 159.986 569.168 113.585C569.168 67.1828 606.781 29.5696 653.183 29.5696Z" fill="#1E3860"/>
<path d="M504.838 216.583L499.213 222.207C495.347 226.074 489.37 226.074 485.504 222.207L409.925 146.628L429.26 127.294L504.838 202.873C508.705 206.388 508.705 212.715 504.838 216.583Z" fill="#1E3860"/>
<path d="M504.838 10.587L499.213 4.96261C495.347 1.0958 489.37 1.0958 485.504 4.96261L409.925 80.5412L429.26 99.875L504.838 24.2966C508.705 20.7814 508.705 14.4539 504.838 10.587Z" fill="#1E3860"/>
<path d="M195.845 113.936C195.494 159.986 157.88 197.6 111.83 197.6C65.4284 197.6 27.8147 159.986 27.8147 113.585C27.8147 67.1828 65.7801 29.5696 111.83 29.5696C157.88 29.5696 195.494 66.8318 195.845 113.233V113.936ZM213.422 2.15039H205.337C200.064 2.15039 195.494 6.36875 195.494 11.9932V40.4669C175.457 16.9146 145.577 2.15039 111.83 2.15039C50.3125 2.15039 0.74707 52.0674 0.74707 113.585C0.74707 175.102 50.6641 225.019 111.83 225.019C145.225 225.019 175.457 210.255 195.845 186.703V215.176C195.845 220.449 200.064 225.019 205.688 225.019H213.773C219.046 225.019 223.616 220.801 223.616 215.176V11.9932C223.265 6.72024 219.046 2.15039 213.422 2.15039Z" fill="#1E3860"/>
</g>
<defs>
<clipPath id="clip0_806_197">
<rect width="1024" height="225.066" fill="white" transform="translate(0.74707 0.0410156)"/>
</clipPath>
</defs>
</svg>
