<svg width="1025" height="256" viewBox="0 0 1025 256" fill="none" xmlns="http://www.w3.org/2000/svg">
<g clip-path="url(#clip0_761_504)">
<path d="M124.542 142.074C125.688 121.628 135.7 103.615 150.805 90.8457C165.617 78.3036 185.555 70.6379 207.309 70.6379C229.042 70.6379 248.979 78.3036 263.803 90.8457C278.897 103.615 288.909 121.628 290.065 142.052C291.212 163.06 282.767 182.576 267.955 197.043C252.85 211.758 231.366 220.992 207.309 220.992C183.252 220.992 161.725 211.758 146.631 197.043C131.808 182.576 123.385 163.06 124.542 142.074Z" fill="white"/>
<path d="M164.844 143.909C165.432 133.418 170.569 124.175 178.32 117.623C185.92 111.188 196.15 107.255 207.313 107.255C218.464 107.255 228.694 111.188 236.3 117.623C244.044 124.175 249.182 133.418 249.775 143.898C250.363 154.677 246.031 164.691 238.43 172.114C230.68 179.664 219.656 184.402 207.313 184.402C194.969 184.402 183.923 179.664 176.178 172.114C168.572 164.691 164.251 154.677 164.844 143.909Z" fill="#265787"/>
<path d="M97.2165 165.107C97.2887 169.212 98.5979 177.19 100.562 183.42C104.689 196.607 111.691 208.807 121.433 219.558C131.43 230.61 143.74 239.486 157.959 245.788C172.905 252.407 189.099 255.78 205.92 255.752C222.713 255.73 238.907 252.29 253.853 245.622C268.072 239.259 280.371 230.343 290.352 219.287C300.088 208.491 307.078 196.269 311.217 183.082C313.297 176.419 314.612 169.656 315.139 162.871C315.655 156.186 315.439 149.49 314.49 142.799C312.637 129.762 308.127 117.529 301.181 106.378C294.829 96.1313 286.64 87.1606 276.904 79.6101L276.926 79.5933L178.669 4.14894C178.58 4.08236 178.508 4.01035 178.414 3.94933C171.967 -0.999302 161.127 -0.982631 154.037 3.97709C146.869 8.99229 146.048 17.2861 152.428 22.5177L152.4 22.5455L193.382 55.871L68.4734 56.0042H68.307C57.9826 56.0153 48.0576 62.7891 46.0937 71.3493C44.0743 80.0704 51.0866 87.3047 61.8216 87.3436L61.805 87.3825L125.116 87.2605L12.1411 173.978C11.9969 174.083 11.8415 174.194 11.7084 174.3C1.05106 182.46 -2.39403 196.03 4.31879 204.618C11.1315 213.351 25.6168 213.367 36.385 204.668L98.0432 154.206C98.0432 154.206 97.1444 161.018 97.2165 165.107ZM255.656 187.919C242.951 200.862 225.165 208.202 205.92 208.241C186.647 208.274 168.861 201.001 156.156 188.08C149.948 181.784 145.388 174.538 142.575 166.821C139.818 159.237 138.747 151.188 139.457 143.066C140.129 135.127 142.492 127.554 146.265 120.702C149.971 113.967 155.074 107.882 161.377 102.733C173.726 92.6696 189.449 87.2215 205.892 87.1993C222.353 87.1771 238.064 92.5752 250.424 102.606C256.716 107.732 261.814 113.795 265.52 120.519C269.309 127.365 271.656 134.91 272.355 142.871C273.054 150.982 271.983 159.021 269.226 166.611C266.408 174.35 261.864 181.595 255.656 187.919Z" fill="#EA7600"/>
<path d="M837.996 143.737C838.945 133.152 847.128 126.439 859.627 126.439C872.143 126.439 880.32 133.152 881.269 143.737H837.996ZM879.988 169.873C876.786 177.717 869.242 182.361 858.995 182.361C846.163 182.361 837.525 174.35 837.175 161.695H910.944V157.973C910.944 126.273 892.337 108.458 858.995 108.458C826.618 108.458 807.04 126.439 807.04 154.638C807.04 183.01 826.923 200.962 858.995 200.962C878.24 200.962 893.164 194.366 902.362 182.771L879.988 169.873Z" fill="#265787"/>
<path d="M510.682 143.787C511.659 133.202 519.842 126.489 532.352 126.489C544.846 126.489 553.023 133.202 553.983 143.787H510.682ZM552.701 169.922C549.495 177.789 541.955 182.433 531.686 182.433C518.876 182.433 510.216 174.399 509.878 161.739H583.63V158.039C583.63 126.322 565.028 108.503 531.686 108.503C499.293 108.503 479.753 126.489 479.753 154.688C479.753 183.06 499.626 201.012 531.686 201.012C550.926 201.012 565.861 194.438 575.076 182.826L552.701 169.922Z" fill="#265787"/>
<path d="M473.146 89.291H446.544V198.122H473.146V89.291Z" fill="#265787"/>
<path d="M590.249 118.206H617V124.686C626.47 114.578 637.843 109.468 650.669 109.468C665.443 109.468 676.628 114.578 682.403 123.277C687.224 130.461 687.54 139.132 687.54 150.527V198.122H660.75V156.303C660.75 138.949 657.26 130.938 642.026 130.938C626.631 130.938 617 140.108 617 155.504V198.122H590.249V118.206Z" fill="#265787"/>
<path d="M773.692 155.987C773.692 170.882 763.739 180.652 748.339 180.652C732.927 180.652 722.974 171.215 722.974 156.159C722.974 140.88 732.794 131.449 748.339 131.449C763.739 131.449 773.692 141.046 773.692 155.987ZM773.692 121.829C766.929 114.578 757.143 110.6 743.54 110.6C714.192 110.6 694.153 128.697 694.153 155.82C694.153 182.411 714.053 201.012 743.057 201.012C756.355 201.012 766.119 197.65 773.692 190.111V198.122H800.46V82.3896L773.692 89.291V121.829Z" fill="#265787"/>
<path d="M385.74 131.449C401.296 131.449 411.077 140.88 411.077 156.159C411.077 171.215 401.141 180.652 385.74 180.652C370.351 180.652 360.409 170.882 360.409 155.987C360.409 141.046 370.351 131.449 385.74 131.449ZM360.409 89.291L333.63 82.3896V198.122H360.409V190.111C367.943 197.65 377.724 201.012 391.033 201.012C420.053 201.012 439.926 182.411 439.926 155.82C439.926 128.697 419.881 110.6 390.55 110.6C376.919 110.6 367.139 114.578 360.409 121.829V89.291Z" fill="#265787"/>
<path d="M917.546 198.122V118.206H944.314V123.143C952.331 113.49 960.813 108.686 970.461 108.686C972.375 108.686 974.783 108.997 977.984 109.313V132.097C975.404 131.759 972.53 131.759 969.479 131.759C953.917 131.759 944.314 142.022 944.314 159.476V198.122H917.546Z" fill="#265787"/>
<path d="M1003.29 120.652V106.024H1010.45C1011.37 106.024 1012.22 106.216 1012.99 106.599C1013.76 106.982 1014.38 107.537 1014.83 108.264C1015.29 108.978 1015.52 109.85 1015.52 110.88C1015.52 111.911 1015.28 112.79 1014.81 113.516C1014.33 114.243 1013.7 114.798 1012.91 115.181C1012.11 115.551 1011.23 115.736 1010.27 115.736H1005.37V112.981H1009.48C1010.03 112.981 1010.51 112.803 1010.9 112.446C1011.31 112.089 1011.52 111.561 1011.52 110.861C1011.52 110.134 1011.31 109.619 1010.9 109.315C1010.51 108.997 1010.04 108.839 1009.5 108.839H1007.1V120.652H1003.29ZM1012.63 113.893L1015.96 120.652H1011.8L1008.68 113.893H1012.63ZM1009.02 129.373C1006.83 129.373 1004.77 128.963 1002.86 128.144C1000.94 127.324 999.256 126.188 997.803 124.735C996.349 123.281 995.213 121.596 994.394 119.68C993.575 117.765 993.165 115.71 993.165 113.516C993.165 111.323 993.575 109.268 994.394 107.352C995.213 105.436 996.349 103.752 997.803 102.298C999.256 100.845 1000.94 99.7085 1002.86 98.8892C1004.77 98.07 1006.83 97.6604 1009.02 97.6604C1011.21 97.6604 1013.27 98.07 1015.19 98.8892C1017.1 99.7085 1018.79 100.845 1020.24 102.298C1021.69 103.752 1022.83 105.436 1023.65 107.352C1024.47 109.268 1024.88 111.323 1024.88 113.516C1024.88 115.71 1024.47 117.765 1023.65 119.68C1022.83 121.596 1021.69 123.281 1020.24 124.735C1018.79 126.188 1017.1 127.324 1015.19 128.144C1013.27 128.963 1011.21 129.373 1009.02 129.373ZM1009.02 125.19C1011.19 125.19 1013.15 124.669 1014.91 123.625C1016.68 122.568 1018.09 121.16 1019.13 119.403C1020.17 117.632 1020.7 115.67 1020.7 113.516C1020.7 111.363 1020.17 109.407 1019.11 107.65C1018.07 105.879 1016.66 104.472 1014.89 103.428C1013.13 102.371 1011.17 101.842 1009.02 101.842C1006.88 101.842 1004.92 102.371 1003.15 103.428C1001.38 104.472 999.977 105.879 998.933 107.65C997.889 109.407 997.367 111.363 997.367 113.516C997.367 115.67 997.889 117.632 998.933 119.403C999.977 121.16 1001.38 122.568 1003.15 123.625C1004.92 124.669 1006.88 125.19 1009.02 125.19Z" fill="#236192"/>
</g>
<defs>
<clipPath id="clip0_761_504">
<rect width="1024" height="255.505" fill="white" transform="translate(0.876953 0.247559)"/>
</clipPath>
</defs>
</svg>
