<svg width="344" height="513" viewBox="0 0 344 513" fill="none" xmlns="http://www.w3.org/2000/svg">
<g clip-path="url(#clip0_795_4133)">
<path d="M253.164 107.551L172.313 43.9922L91.4619 107.551L172.313 52.6578L253.164 107.551Z" fill="white"/>
<path d="M128.838 409.516L172.313 461.701L215.782 409.516L172.313 450.028L128.838 409.516Z" fill="white"/>
<path d="M212.928 273.663L172.313 231.839L131.699 273.663L124.313 267.116L88.2559 304.325C89.9625 307.21 91.7118 310.038 93.5038 312.812L127.667 272.415L134.553 279.416L172.313 234.693L210.073 279.416L216.979 272.415L251.136 312.812C252.915 310.034 254.656 307.212 256.384 304.325L220.313 267.116L212.928 273.663Z" fill="white"/>
<path d="M172.313 326.975C179.028 326.972 185.494 324.437 190.421 319.875C195.348 315.314 198.373 309.061 198.892 302.367L197.286 301.471L198.495 295.385C197.7 291.088 195.861 287.052 193.141 283.633C190.42 280.213 186.901 277.515 182.892 275.775L172.313 283.455L161.74 275.775C157.731 277.515 154.21 280.214 151.489 283.635C148.768 287.055 146.93 291.093 146.137 295.391L147.347 301.465L145.74 302.361C146.257 309.055 149.281 315.308 154.207 319.871C159.133 324.434 165.599 326.971 172.313 326.975ZM172.313 298.495L182.899 306.175L178.854 318.623H165.772L161.734 306.175L172.313 298.495Z" fill="white"/>
<path d="M97.8495 197.055L105.888 194.699C110.189 193.419 113.702 188.901 113.702 184.607V147.435C113.702 143.122 110.189 140.645 105.888 141.893L97.8495 144.248C93.5551 145.528 90.0415 150.059 90.0415 154.354V191.551C90.0415 195.845 93.5551 198.335 97.8495 197.055ZM97.0943 153.381C97.1425 152.659 97.4061 151.968 97.8511 151.398C98.296 150.827 98.9019 150.403 99.5903 150.181L104.147 148.843C104.43 148.726 104.738 148.682 105.043 148.716C105.347 148.75 105.638 148.861 105.888 149.038C106.138 149.216 106.339 149.453 106.472 149.729C106.605 150.005 106.666 150.31 106.649 150.616V185.579C106.607 186.31 106.345 187.01 105.899 187.59C105.452 188.17 104.842 188.602 104.147 188.831L99.5903 190.149C99.3087 190.266 99.002 190.31 98.6988 190.277C98.3956 190.243 98.1059 190.134 97.8566 189.958C97.6073 189.782 97.4067 189.546 97.2734 189.272C97.1401 188.997 97.0784 188.694 97.0943 188.389V153.381Z" fill="white"/>
<path d="M164.972 177.854V140.645C164.984 139.642 164.784 138.648 164.388 137.727C163.991 136.806 163.406 135.978 162.669 135.297C161.933 134.617 161.062 134.098 160.113 133.774C159.163 133.451 158.157 133.33 157.158 133.419L149.126 134.059C147.018 134.247 145.053 135.208 143.611 136.757C142.168 138.306 141.349 140.333 141.312 142.45V179.646C141.298 180.65 141.496 181.645 141.892 182.567C142.288 183.489 142.874 184.317 143.611 184.999C144.347 185.68 145.219 186.199 146.169 186.521C147.119 186.844 148.127 186.964 149.126 186.872L157.158 186.264C159.266 186.068 161.229 185.102 162.67 183.551C164.112 181.999 164.931 179.972 164.972 177.854ZM150.892 180.312C150.573 180.342 150.251 180.304 149.947 180.201C149.643 180.098 149.364 179.932 149.129 179.714C148.893 179.496 148.707 179.231 148.58 178.936C148.454 178.641 148.391 178.322 148.396 178.002V143.013C148.412 142.337 148.675 141.691 149.134 141.195C149.594 140.7 150.22 140.39 150.892 140.325L155.449 139.979C155.768 139.95 156.09 139.987 156.394 140.09C156.698 140.193 156.977 140.358 157.212 140.575C157.448 140.792 157.636 141.057 157.763 141.351C157.891 141.645 157.955 141.963 157.952 142.283V177.266C157.941 177.943 157.68 178.593 157.217 179.089C156.755 179.584 156.125 179.89 155.449 179.947L150.892 180.312Z" fill="white"/>
<path d="M274.457 154.738L266.425 151.308C262.124 149.452 258.611 151.468 258.611 155.788V192.959C258.611 197.253 262.124 202.284 266.425 204.121L274.457 207.551C278.752 209.388 282.272 207.365 282.272 203.071V165.881C282.272 161.58 278.752 156.556 274.457 154.738ZM275.225 198.975C275.225 200.345 274.099 200.997 272.723 200.402L268.166 198.482C267.47 198.164 266.871 197.666 266.431 197.039C265.991 196.413 265.726 195.68 265.664 194.917V159.897C265.664 158.514 266.79 157.881 268.166 158.457L272.723 160.415C273.421 160.73 274.022 161.228 274.462 161.855C274.902 162.482 275.166 163.216 275.225 163.98V198.975Z" fill="white"/>
<path d="M83.795 156.645C83.795 152.351 80.275 150.347 75.9806 152.216L70.1694 154.738C65.8686 156.587 62.355 161.624 62.355 165.925V203.115C62.355 207.41 65.8686 209.413 70.1694 207.551L75.9806 205.029C80.275 203.179 83.795 198.136 83.795 193.842V190.29L84.851 189.151V188.434L75.6734 192.395V193.125L76.7294 193.343V195.775C76.666 196.539 76.4018 197.273 75.9635 197.902C75.5252 198.532 74.9283 199.034 74.2334 199.359L71.8846 200.376C70.515 200.971 69.3886 200.331 69.3886 198.949V163.979C69.4525 163.215 69.717 162.481 70.1553 161.852C70.5935 161.223 71.19 160.72 71.8846 160.395L74.2334 159.378C75.6094 158.789 76.7294 159.423 76.7294 160.805V165.349L75.6734 166.482V167.211L84.8382 163.237V162.495L83.7822 162.283L83.795 156.645Z" fill="white"/>
<path d="M136.121 180.92L135.398 181.042L134.726 182.226L126.995 183.621V138.629L128.057 137.765V137.036L118.886 138.706V139.436L119.942 139.903V189.925L118.886 190.789V191.519L136.121 188.389V180.92Z" fill="white"/>
<path d="M253.427 191V153.791C253.427 149.516 249.907 145.048 245.612 143.896L228.716 139.372V140.095L229.766 141.048V191.084L228.716 191.461V192.191L245.612 196.716C249.907 197.861 253.427 195.282 253.427 191ZM243.878 189.836L236.838 187.916V147.967L243.878 149.848C244.574 150.057 245.189 150.477 245.636 151.051C246.083 151.624 246.341 152.322 246.374 153.048V188.024C246.384 188.329 246.319 188.63 246.185 188.904C246.051 189.177 245.853 189.413 245.606 189.592C245.36 189.771 245.074 189.886 244.772 189.929C244.471 189.971 244.164 189.939 243.878 189.836Z" fill="white"/>
<path d="M194.771 186.066L193.209 185.004L187.391 165.119C188.922 164.648 190.261 163.696 191.21 162.405C192.158 161.115 192.666 159.553 192.659 157.951V141.695C192.635 139.601 191.814 137.594 190.361 136.085C188.909 134.576 186.936 133.677 184.844 133.573L170.156 132.978V133.695L171.219 134.412V184.428L170.156 185.068V185.797L179.327 185.887V185.157L178.265 184.447V165.176L180.473 165.285L186.585 186.207L194.771 186.796V186.066ZM185.606 156.556C185.609 156.88 185.545 157.202 185.419 157.502C185.293 157.801 185.108 158.071 184.873 158.296C184.639 158.521 184.361 158.695 184.056 158.809C183.752 158.922 183.428 158.972 183.103 158.956L178.265 158.77V139.736L183.103 139.935C183.774 139.963 184.407 140.248 184.873 140.73C185.339 141.213 185.601 141.856 185.606 142.527V156.556Z" fill="white"/>
<path d="M214.355 188.588V189.317L223.526 191.045V190.316L222.464 189.484V145.855C222.388 143.682 221.572 141.601 220.15 139.956C218.729 138.311 216.788 137.202 214.649 136.812L208.832 135.884C204.537 135.199 201.024 138.162 201.024 142.456V186.072L199.961 186.572V187.301L209.126 188.466V187.743L208.07 186.904V169.234L215.411 170.399V188.095L214.355 188.588ZM208.07 162.808V144.703C208.061 144.388 208.123 144.076 208.252 143.788C208.38 143.501 208.572 143.247 208.812 143.044C209.053 142.841 209.336 142.695 209.641 142.616C209.946 142.538 210.264 142.529 210.573 142.591L212.915 142.968C213.6 143.093 214.222 143.448 214.676 143.976C215.131 144.504 215.39 145.172 215.411 145.868V163.98L208.07 162.808Z" fill="white"/>
<path d="M187.379 203.967V203.602H181.12V203.967C181.587 203.967 181.971 204.21 181.971 204.511V218.661C181.971 218.949 181.587 219.205 181.12 219.205V219.57H187.379V219.205C186.905 219.205 186.528 218.949 186.528 218.661V204.511C186.528 204.21 186.905 203.967 187.379 203.967Z" fill="white"/>
<path d="M195.647 219.205V219.57H205.887C210.297 219.57 213.875 216.882 213.875 211.589C213.875 206.296 210.297 203.602 205.887 203.602H195.647V203.967C196.121 203.967 196.499 204.21 196.499 204.511V218.661C196.499 218.949 196.121 219.205 195.647 219.205ZM201.055 207.186H204.953C207.391 207.186 209.356 208.37 209.356 211.589C209.356 214.808 207.391 215.986 204.953 215.986H201.068L201.055 207.186Z" fill="white"/>
<path d="M168.96 214.092C170.319 214.044 171.607 213.471 172.552 212.492C173.496 211.514 174.024 210.207 174.024 208.847C174.024 207.487 173.496 206.18 172.552 205.201C171.607 204.223 170.319 203.65 168.96 203.602H157.536V203.967C158.003 203.967 158.387 204.21 158.387 204.511V218.661C158.387 218.949 158.003 219.205 157.536 219.205V219.57H163.795V219.205C163.328 219.205 162.944 218.949 162.944 218.661V214.092H168.96ZM162.944 207.186H167.98C168.207 207.172 168.434 207.204 168.648 207.282C168.862 207.359 169.058 207.479 169.223 207.634C169.389 207.79 169.521 207.978 169.611 208.186C169.701 208.395 169.748 208.62 169.748 208.847C169.748 209.074 169.701 209.299 169.611 209.507C169.521 209.716 169.389 209.904 169.223 210.059C169.058 210.215 168.862 210.335 168.648 210.412C168.434 210.489 168.207 210.522 167.98 210.508H162.944V207.186Z" fill="white"/>
<path d="M125.133 208.837C125.133 208.149 124.997 207.467 124.733 206.831C124.469 206.195 124.082 205.617 123.595 205.131C123.107 204.645 122.529 204.259 121.892 203.997C121.255 203.735 120.573 203.6 119.885 203.602H107.673V203.967C108.147 203.967 108.525 204.21 108.525 204.511V218.661C108.525 218.949 108.147 219.205 107.673 219.205V219.57H113.933V219.205C113.459 219.205 113.081 218.949 113.081 218.661V214.092H116.141L119.341 218.661C119.545 218.949 119.341 219.205 118.873 219.205V219.57H125.126V219.205C124.895 219.203 124.667 219.153 124.456 219.06C124.245 218.966 124.055 218.831 123.897 218.661L120.633 214.047C121.883 213.863 123.026 213.235 123.852 212.279C124.678 211.322 125.132 210.101 125.133 208.837ZM118.912 210.495H113.062V207.173H118.912C119.139 207.159 119.366 207.192 119.579 207.269C119.793 207.346 119.989 207.466 120.154 207.622C120.32 207.777 120.452 207.965 120.542 208.174C120.632 208.382 120.679 208.607 120.679 208.834C120.679 209.061 120.632 209.286 120.542 209.495C120.452 209.703 120.32 209.891 120.154 210.047C119.989 210.202 119.793 210.322 119.579 210.399C119.366 210.476 119.139 210.509 118.912 210.495Z" fill="white"/>
<path d="M145.254 219.205V219.57H150.784V219.16C150.634 219.135 150.492 219.078 150.367 218.991C150.242 218.905 150.137 218.792 150.061 218.661L144.672 204.511C144.55 204.21 144.838 203.967 145.312 203.967V203.602H136.832V203.967C137.305 203.967 137.593 204.21 137.472 204.511L132.077 218.661C132.002 218.793 131.899 218.906 131.775 218.992C131.651 219.079 131.509 219.136 131.36 219.16V219.57H136.889V219.205C136.416 219.205 136.128 218.949 136.249 218.661L137.267 215.986H144.877L145.894 218.661C146.016 218.949 145.721 219.205 145.254 219.205ZM138.144 213.695L141.069 206.015L144 213.695H138.144Z" fill="white"/>
<path d="M221.657 213.317L219.417 218.719L219.782 218.815C219.782 218.815 220.07 218.418 220.384 218.418C221.318 218.418 222.726 219.698 228.576 219.698C232.582 219.698 236.973 218.648 236.973 214.296C236.973 207.525 224.742 210.514 224.742 208.114C224.742 207.007 226.662 206.533 227.904 206.533C232.192 206.533 234.624 207.615 234.24 208.453L234.605 208.632L236.697 204.383L236.371 204.261C236.288 204.405 236.169 204.524 236.025 204.607C235.881 204.691 235.718 204.734 235.552 204.735C234.969 204.735 231.584 203.455 227.904 203.455C223.936 203.455 220.179 205.247 220.179 208.146C220.179 214.917 232.416 211.595 232.416 214.328C232.416 215.608 231.136 216.146 228.576 216.146C222.733 216.146 221.625 214.277 221.971 213.477L221.657 213.317Z" fill="white"/>
<path d="M172.313 0.574707L0.934082 145.048C0.934082 264.748 75.7245 419.135 172.313 512.575C268.896 419.135 343.693 264.748 343.693 145.048L172.313 0.574707ZM172.313 497.029C79.7117 403.589 12.9533 260.651 11.1741 149.586C18.0733 143.775 160.569 23.6467 172.313 13.7331C184.064 23.6467 326.553 143.775 333.453 149.586C331.673 260.651 264.921 403.589 172.313 497.029Z" fill="#C1C5C8"/>
<path d="M172.313 65.5923L32.1533 157.317C37.9133 288.965 126.233 393.829 172.313 439.935C218.393 393.855 306.713 288.965 312.473 157.317L172.313 65.5923ZM172.313 427.698C132.749 387.954 59.8909 301.048 43.3085 191.698C41.6842 181.065 40.6309 170.354 40.1533 159.608L172.313 72.9843L304.48 159.608C303.996 170.353 302.943 181.065 301.325 191.698C284.736 301.048 211.872 387.954 172.313 427.698Z" fill="#C1C5C8"/>
<path d="M163.251 363.896C161.651 363.896 160.352 364.773 160.352 365.816C160.352 366.86 161.632 367.775 163.251 367.775C164.87 367.775 166.144 366.911 166.144 365.816C166.144 364.722 164.851 363.896 163.251 363.896Z" fill="#C1C5C8"/>
<path d="M127.641 272.414L93.478 312.811C117.523 350.354 145.555 378.091 172.307 397.502V351.294C161.684 351.161 151.541 346.847 144.076 339.287C136.611 331.728 132.425 321.531 132.425 310.907C132.425 300.283 136.611 290.087 144.076 282.527C151.541 274.968 161.684 270.654 172.307 270.52V234.693L134.547 279.416L127.641 272.414ZM162.502 372.76C166.841 372.76 167.033 369.099 167.033 369.099C165.518 369.961 163.815 370.44 162.073 370.494C159.174 370.494 156.953 368.574 156.953 365.861C156.953 362.738 160.153 361.246 163.244 361.246C168.166 361.246 170.553 363.806 170.553 368.286C170.553 372.856 166.585 375.326 162.496 375.326C160.856 375.334 159.228 375.057 157.683 374.507C157.455 374.523 157.241 374.626 157.088 374.795L156.761 374.654L158.841 371.134L159.11 371.256C158.982 371.896 159.699 372.76 162.502 372.76Z" fill="#C1C5C8"/>
<path d="M172.314 36.6001L20.9663 152.971C27.1487 284.094 120.141 418.494 172.314 470.597C224.486 418.494 317.472 284.094 323.661 152.971L172.314 36.6001ZM172.314 43.9921L253.171 107.55L172.314 52.6577L91.4623 107.55L172.314 43.9921ZM172.314 65.5921L312.473 157.317C306.713 288.965 218.394 393.829 172.314 439.935C126.234 393.855 37.9135 288.965 32.1855 157.317L172.314 65.5921ZM172.314 461.701L128.838 409.535L172.314 450.027L215.782 409.535L172.314 461.701Z" fill="#8AB7E9"/>
<path d="M181.376 372.607C182.969 372.607 184.269 371.73 184.269 370.649C184.269 369.567 182.989 368.729 181.376 368.729C179.763 368.729 178.477 369.593 178.477 370.649C178.477 371.705 179.776 372.607 181.376 372.607Z" fill="#8AB7E9"/>
<path d="M212.697 310.885C212.7 316.19 211.657 321.444 209.629 326.346C207.601 331.248 204.627 335.703 200.876 339.455C197.126 343.208 192.674 346.185 187.773 348.216C182.872 350.248 177.619 351.294 172.313 351.294V397.502C199.078 378.091 227.11 350.354 251.149 312.811L216.985 272.414L210.073 279.416L172.313 234.693V270.488C177.618 270.489 182.87 271.534 187.77 273.565C192.67 275.596 197.122 278.571 200.872 282.323C204.622 286.074 207.596 290.527 209.625 295.428C211.654 300.328 212.698 305.581 212.697 310.885ZM182.118 363.73C177.785 363.73 177.593 367.384 177.593 367.384C179.112 366.534 180.814 366.064 182.553 366.014C185.459 366.014 187.673 367.934 187.673 370.629C187.673 373.758 184.473 375.262 181.389 375.262C176.473 375.262 174.073 372.664 174.073 368.222C174.073 363.634 178.048 361.182 182.131 361.182C183.771 361.175 185.399 361.452 186.944 362.002C187.174 361.985 187.389 361.882 187.545 361.714L187.865 361.854L185.785 365.374L185.523 365.24C185.638 364.606 184.928 363.73 182.118 363.73Z" fill="#8AB7E9"/>
<path d="M207.334 306.738C207.33 299.812 205.273 293.043 201.423 287.287C197.572 281.53 192.101 277.044 185.702 274.397C179.302 271.749 172.261 271.058 165.469 272.412C158.677 273.765 152.439 277.102 147.543 282C142.647 286.899 139.314 293.139 137.964 299.932C136.614 306.725 137.309 313.765 139.96 320.163C142.611 326.562 147.1 332.03 152.859 335.877C158.617 339.724 165.388 341.778 172.313 341.778C176.914 341.778 181.469 340.871 185.72 339.11C189.97 337.349 193.831 334.768 197.084 331.514C200.336 328.26 202.915 324.397 204.674 320.146C206.433 315.895 207.337 311.339 207.334 306.738ZM145.734 302.354L140.614 305.208C140.614 304.92 140.614 304.632 140.614 304.338C140.604 298.827 142.038 293.41 144.774 288.626L146.112 295.384C146.908 291.085 148.749 287.048 151.473 283.628C154.198 280.208 157.722 277.511 161.734 275.775L162.214 274.303C168.77 272.118 175.857 272.118 182.412 274.303L182.892 275.775C186.899 277.515 190.416 280.213 193.136 283.631C195.855 287.049 197.694 291.083 198.489 295.378L199.833 288.626C202.571 293.409 204.008 298.827 204 304.338C204 304.632 204 304.92 204 305.208L198.88 302.354C198.313 309.008 195.27 315.208 190.352 319.725C185.433 324.243 178.998 326.75 172.32 326.75C165.641 326.75 159.206 324.243 154.288 319.725C149.369 315.208 146.326 309.008 145.76 302.354H145.734Z" fill="#8AB7E9"/>
<path d="M172.313 351.294C180.303 351.297 188.114 348.93 194.758 344.493C201.402 340.056 206.581 333.748 209.639 326.367C212.698 318.986 213.499 310.864 211.941 303.027C210.383 295.191 206.536 287.993 200.886 282.344C195.237 276.694 188.039 272.847 180.203 271.289C172.366 269.731 164.244 270.532 156.863 273.591C149.482 276.649 143.174 281.828 138.737 288.472C134.3 295.116 131.933 302.927 131.936 310.917C131.939 321.625 136.194 331.893 143.766 339.464C151.337 347.036 161.605 351.291 172.313 351.294ZM172.313 271.749C179.243 271.745 186.019 273.797 191.783 277.645C197.547 281.492 202.041 286.963 204.695 293.365C207.349 299.767 208.045 306.813 206.694 313.61C205.344 320.408 202.007 326.652 197.107 331.553C192.207 336.454 185.963 339.791 179.166 341.143C172.369 342.495 165.324 341.8 158.921 339.147C152.519 336.494 147.047 332.002 143.198 326.239C139.349 320.475 137.296 313.7 137.299 306.77C137.295 302.169 138.197 297.612 139.955 293.359C141.712 289.107 144.291 285.243 147.543 281.988C150.794 278.733 154.656 276.15 158.906 274.388C163.156 272.625 167.712 271.718 172.313 271.717V271.749Z" fill="#323E48"/>
<path d="M256.39 304.325C254.662 307.211 252.921 310.034 251.142 312.811C227.104 350.354 199.072 378.091 172.307 397.503C145.555 378.091 117.523 350.354 93.4782 312.811C91.7076 310.034 89.9582 307.205 88.2302 304.325C69.5998 273.311 53.7278 236.024 43.3022 191.685C59.8846 301.048 132.742 387.954 172.313 427.698C211.878 387.954 284.742 301.048 301.331 191.698C290.899 236.024 275.027 273.311 256.39 304.325Z" fill="#323E48"/>
<path d="M172.313 13.7329C160.569 23.6465 18.0731 143.775 11.1675 149.586C12.9531 260.651 79.7051 403.589 172.313 497.029C264.927 403.589 331.673 260.651 333.452 149.586C326.553 143.775 184.057 23.6465 172.313 13.7329ZM20.9659 152.971L172.313 36.6001L323.66 152.971C317.471 284.095 224.486 418.494 172.313 470.597C120.14 418.494 27.1483 284.095 20.9659 152.971Z" fill="#8A2432"/>
<path d="M118.912 207.186H113.062V210.495H118.912C119.138 210.509 119.366 210.476 119.579 210.399C119.793 210.322 119.989 210.202 120.154 210.046C120.32 209.891 120.452 209.703 120.542 209.494C120.632 209.286 120.679 209.061 120.679 208.834C120.679 208.607 120.632 208.382 120.542 208.173C120.452 207.965 120.32 207.777 120.154 207.621C119.989 207.466 119.793 207.346 119.579 207.269C119.366 207.192 119.138 207.159 118.912 207.173V207.186Z" fill="#8A2432"/>
<path d="M272.723 160.415L268.166 158.457C266.79 157.881 265.664 158.514 265.664 159.897V194.873C265.726 195.635 265.991 196.368 266.431 196.995C266.871 197.621 267.47 198.119 268.166 198.437L272.723 200.357C274.099 200.953 275.225 200.3 275.225 198.93V163.98C275.166 163.216 274.902 162.482 274.462 161.855C274.022 161.228 273.421 160.73 272.723 160.415Z" fill="#8A2432"/>
<path d="M104.147 148.831L99.5902 150.168C98.9018 150.391 98.296 150.815 97.851 151.385C97.406 151.955 97.1424 152.646 97.0942 153.368V188.344C97.0784 188.649 97.14 188.952 97.2733 189.227C97.4066 189.501 97.6073 189.737 97.8565 189.913C98.1058 190.089 98.3956 190.199 98.6987 190.232C99.0019 190.265 99.3086 190.221 99.5902 190.104L104.147 188.786C104.842 188.557 105.452 188.125 105.899 187.545C106.345 186.966 106.606 186.265 106.649 185.535V150.603C106.666 150.297 106.605 149.992 106.472 149.716C106.339 149.44 106.138 149.203 105.888 149.026C105.638 148.849 105.347 148.738 105.043 148.704C104.738 148.67 104.43 148.713 104.147 148.831Z" fill="#8A2432"/>
<path d="M243.878 149.848L236.838 147.967V187.935L243.878 189.855C244.166 189.959 244.476 189.991 244.779 189.948C245.082 189.904 245.37 189.786 245.617 189.604C245.864 189.423 246.063 189.183 246.194 188.906C246.326 188.629 246.388 188.324 246.374 188.018V153.023C246.336 152.301 246.075 151.609 245.629 151.04C245.182 150.472 244.57 150.056 243.878 149.848Z" fill="#8A2432"/>
<path d="M167.981 207.186H162.944V210.495H167.981C168.207 210.509 168.435 210.476 168.648 210.399C168.862 210.322 169.058 210.202 169.223 210.046C169.389 209.891 169.521 209.703 169.611 209.494C169.701 209.286 169.748 209.061 169.748 208.834C169.748 208.607 169.701 208.382 169.611 208.173C169.521 207.965 169.389 207.777 169.223 207.621C169.058 207.466 168.862 207.346 168.648 207.269C168.435 207.192 168.207 207.159 167.981 207.173V207.186Z" fill="#8A2432"/>
<path d="M172.313 72.9844L40.147 159.608C40.6246 170.354 41.6778 181.066 43.3022 191.698C53.7278 236.024 69.5998 273.311 88.2302 304.338L124.313 267.116L131.725 273.663L172.313 231.839L212.934 273.663L220.313 267.116L256.371 304.325C275.008 273.311 290.88 236.024 301.305 191.685C302.923 181.052 303.977 170.34 304.461 159.596L172.313 72.9844ZM84.8574 163.224L75.6734 167.212V166.482L76.7294 165.349V160.805C76.7294 159.423 75.6094 158.789 74.2334 159.378L71.8846 160.396C71.19 160.721 70.5935 161.223 70.1552 161.852C69.717 162.482 69.4525 163.215 69.3886 163.98V198.975C69.3886 200.357 70.515 200.997 71.8846 200.402L74.2334 199.384C74.9283 199.06 75.5252 198.558 75.9635 197.928C76.4018 197.299 76.666 196.565 76.7294 195.8V193.343L75.6734 193.125V192.396L84.8382 188.434V189.151L83.7822 190.29V193.855C83.7822 198.149 80.2622 203.192 75.9678 205.042L70.1566 207.564C65.8558 209.426 62.3422 207.423 62.3422 203.128V165.925C62.3422 161.624 65.8558 156.588 70.1566 154.738L75.9678 152.216C80.2622 150.348 83.7822 152.351 83.7822 156.645V162.296L84.8382 162.508L84.8574 163.224ZM118.893 190.744L119.949 189.88V139.903L118.893 139.436V138.706L128.057 137.036V137.765L127.001 138.629V183.615L134.733 182.22L135.405 181.036L136.128 180.914V188.383L118.893 191.512V190.744ZM97.8494 197.055C93.555 198.335 90.0414 195.826 90.0414 191.532V154.354C90.0414 150.06 93.555 145.503 97.8494 144.248L105.888 141.893C110.189 140.645 113.702 143.122 113.702 147.436V184.626C113.702 188.92 110.189 193.458 105.888 194.719L97.8494 197.055ZM123.904 218.642C124.061 218.811 124.251 218.947 124.462 219.04C124.673 219.134 124.902 219.183 125.133 219.186V219.551H118.88V219.186C119.347 219.186 119.552 218.93 119.347 218.642L116.147 214.072H113.088V218.642C113.088 218.93 113.465 219.186 113.939 219.186V219.551H107.673V219.186C108.147 219.186 108.525 218.93 108.525 218.642V204.511C108.525 204.21 108.147 203.967 107.673 203.967V203.602H119.904C121.234 203.596 122.517 204.095 123.494 204.999C124.47 205.903 125.066 207.144 125.162 208.471C125.258 209.799 124.847 211.113 124.011 212.148C123.175 213.183 121.977 213.861 120.659 214.047L123.904 218.642ZM150.784 219.551H145.254V219.186C145.721 219.186 146.016 218.93 145.894 218.642L144.877 215.967H137.267L136.249 218.642C136.134 218.93 136.422 219.186 136.889 219.186V219.551H131.353V219.141C131.503 219.117 131.644 219.059 131.768 218.973C131.892 218.887 131.996 218.773 132.07 218.642L137.465 204.492C137.581 204.191 137.293 203.948 136.825 203.948V203.583H145.305V203.948C144.832 203.948 144.544 204.191 144.665 204.492L150.054 218.642C150.131 218.773 150.235 218.886 150.36 218.972C150.485 219.058 150.628 219.116 150.777 219.141L150.784 219.551ZM149.126 186.84C148.127 186.932 147.12 186.812 146.169 186.49C145.219 186.167 144.347 185.648 143.611 184.967C142.874 184.286 142.289 183.457 141.892 182.535C141.496 181.613 141.299 180.618 141.312 179.615V142.437C141.349 140.321 142.168 138.293 143.611 136.744C145.053 135.195 147.018 134.234 149.126 134.047L157.158 133.407C158.157 133.317 159.164 133.438 160.113 133.762C161.062 134.085 161.933 134.604 162.669 135.285C163.406 135.966 163.991 136.793 164.388 137.714C164.785 138.636 164.984 139.63 164.973 140.632V177.855C164.931 179.972 164.112 182 162.67 183.551C161.229 185.102 159.267 186.068 157.158 186.264L149.126 186.84ZM168.966 214.072H162.95V218.642C162.95 218.93 163.334 219.186 163.801 219.186V219.551H157.542V219.186C158.009 219.186 158.393 218.93 158.393 218.642V204.511C158.393 204.21 158.009 203.967 157.542 203.967V203.602H168.966C170.325 203.649 171.613 204.223 172.558 205.201C173.503 206.18 174.031 207.487 174.031 208.847C174.031 210.207 173.503 211.514 172.558 212.492C171.613 213.471 170.325 214.044 168.966 214.092V214.072ZM187.385 203.948C186.912 203.948 186.534 204.191 186.534 204.492V218.642C186.534 218.93 186.912 219.186 187.385 219.186V219.551H181.126V219.186C181.593 219.186 181.977 218.93 181.977 218.642V204.511C181.977 204.21 181.593 203.967 181.126 203.967V203.602H187.385V203.948ZM194.771 186.815L186.585 186.226L180.473 165.304L178.265 165.196V184.479L179.328 185.189V185.919L170.157 185.829V185.1L171.219 184.46V134.424L170.157 133.695V132.965L184.845 133.56C186.936 133.665 188.91 134.563 190.362 136.072C191.814 137.581 192.635 139.588 192.659 141.682V157.938C192.667 159.54 192.159 161.102 191.21 162.393C190.262 163.683 188.923 164.635 187.392 165.106L193.209 184.991L194.771 186.053V186.815ZM205.913 219.589H195.673V219.224C196.147 219.224 196.525 218.968 196.525 218.68V204.511C196.525 204.21 196.147 203.967 195.673 203.967V203.602H205.913C210.323 203.602 213.901 206.29 213.901 211.589C213.901 216.888 210.323 219.57 205.913 219.57V219.589ZM208.07 169.253V186.936L209.126 187.775V188.498L199.961 187.333V186.604L201.024 186.104V142.469C201.024 138.175 204.537 135.212 208.832 135.896L214.649 136.824C216.786 137.214 218.725 138.321 220.147 139.964C221.568 141.606 222.385 143.684 222.464 145.855V189.471L223.526 190.303V191.032L214.355 189.304V188.575L215.411 188.076V170.399L208.07 169.253ZM228.55 219.743C222.701 219.743 221.293 218.463 220.358 218.463C220.045 218.463 219.757 218.86 219.757 218.86L219.392 218.764L221.632 213.362L221.945 213.516C221.6 214.316 222.707 216.184 228.55 216.184C231.11 216.184 232.39 215.64 232.39 214.367C232.39 211.634 220.153 214.956 220.153 208.184C220.153 205.285 223.91 203.493 227.878 203.493C231.558 203.493 234.918 204.773 235.526 204.773C235.692 204.773 235.855 204.729 235.999 204.646C236.143 204.563 236.262 204.443 236.345 204.3L236.672 204.421L234.579 208.671L234.214 208.492C234.598 207.672 232.166 206.572 227.878 206.572C226.63 206.572 224.717 207.045 224.717 208.152C224.717 210.552 236.947 207.564 236.947 214.335C236.953 218.674 232.582 219.724 228.576 219.724L228.55 219.743ZM253.401 191.02C253.401 195.301 249.881 197.88 245.587 196.728L228.691 192.204V191.474L229.741 191.096V141.042L228.717 140.095V139.378L245.613 143.903C249.907 145.055 253.427 149.522 253.427 153.797L253.401 191.02ZM282.246 203.09C282.246 207.384 278.726 209.407 274.432 207.57L266.425 204.095C262.125 202.258 258.611 197.228 258.611 192.933V155.768C258.611 151.468 262.125 149.452 266.425 151.288L274.457 154.719C278.752 156.536 282.272 161.56 282.272 165.861L282.246 203.09Z" fill="#8A2432"/>
<path d="M138.144 213.682H144L141.068 206.002L138.144 213.682Z" fill="#8A2432"/>
<path d="M183.104 139.935L178.265 139.736V158.77L183.104 158.956C183.428 158.972 183.752 158.922 184.057 158.809C184.361 158.695 184.639 158.521 184.873 158.296C185.108 158.071 185.294 157.801 185.42 157.502C185.546 157.202 185.609 156.88 185.606 156.556V142.527C185.602 141.856 185.339 141.213 184.873 140.73C184.407 140.247 183.774 139.963 183.104 139.935Z" fill="#8A2432"/>
<path d="M155.417 139.979L150.861 140.325C150.188 140.391 149.562 140.7 149.103 141.196C148.643 141.691 148.38 142.337 148.365 143.013V177.989C148.36 178.31 148.422 178.628 148.548 178.923C148.675 179.218 148.862 179.483 149.097 179.701C149.332 179.919 149.611 180.085 149.915 180.188C150.219 180.291 150.541 180.329 150.861 180.299L155.417 179.947C156.093 179.89 156.723 179.584 157.185 179.089C157.648 178.593 157.909 177.944 157.92 177.266V142.283C157.923 141.963 157.859 141.645 157.731 141.351C157.604 141.057 157.416 140.793 157.181 140.575C156.945 140.358 156.666 140.193 156.362 140.09C156.058 139.988 155.737 139.95 155.417 139.979Z" fill="#8A2432"/>
<path d="M204.953 207.186H201.068V215.986H204.953C207.392 215.986 209.356 214.808 209.356 211.589C209.356 208.37 207.379 207.186 204.953 207.186Z" fill="#8A2432"/>
<path d="M215.411 145.855C215.39 145.159 215.131 144.491 214.676 143.963C214.222 143.435 213.6 143.08 212.915 142.955L210.573 142.578C210.264 142.516 209.946 142.525 209.641 142.603C209.336 142.682 209.053 142.828 208.812 143.031C208.572 143.234 208.38 143.488 208.252 143.775C208.123 144.063 208.061 144.375 208.07 144.69V162.795L215.411 163.967V145.855Z" fill="#8A2432"/>
<path d="M182.892 306.162L172.313 298.482L161.734 306.162L165.772 318.61H178.847L182.892 306.162Z" fill="#8A2432"/>
<path d="M182.892 275.775L182.412 274.303C175.857 272.118 168.769 272.118 162.214 274.303L161.734 275.775L172.313 283.455L182.892 275.775Z" fill="#8A2432"/>
<path d="M144.793 288.626C142.058 293.41 140.623 298.827 140.633 304.338C140.633 304.632 140.633 304.92 140.633 305.208L145.753 302.354L147.36 301.458L146.15 295.384L144.793 288.626Z" fill="#8A2432"/>
<path d="M198.489 295.372L197.273 301.458L198.88 302.354L204 305.208C204 304.92 204 304.632 204 304.338C204.008 298.827 202.571 293.409 199.833 288.626L198.489 295.372Z" fill="#8A2432"/>
<path d="M163.251 361.221C160.16 361.221 156.96 362.712 156.96 365.836C156.96 368.543 159.187 370.469 162.08 370.469C163.815 370.421 165.513 369.951 167.027 369.1C167.027 369.1 166.835 372.76 162.496 372.76C159.692 372.76 158.976 371.896 159.11 371.212L158.841 371.09L156.761 374.61L157.088 374.751C157.241 374.581 157.455 374.478 157.683 374.463C159.228 375.013 160.856 375.29 162.496 375.282C166.585 375.282 170.553 372.824 170.553 368.242C170.56 363.807 168.172 361.221 163.251 361.221ZM163.251 367.794C161.651 367.794 160.352 366.93 160.352 365.836C160.352 364.741 161.632 363.916 163.251 363.916C164.87 363.916 166.144 364.792 166.144 365.836C166.144 366.879 164.851 367.794 163.251 367.794Z" fill="#8A2432"/>
<path d="M185.753 365.413L187.833 361.893L187.513 361.752C187.357 361.921 187.142 362.024 186.912 362.04C185.367 361.49 183.739 361.213 182.099 361.221C178.016 361.221 174.042 363.666 174.042 368.261C174.042 372.69 176.441 375.301 181.357 375.301C184.441 375.301 187.642 373.797 187.642 370.667C187.642 367.986 185.421 366.053 182.522 366.053C180.79 366.099 179.095 366.562 177.581 367.403C177.581 367.403 177.773 363.749 182.105 363.749C184.915 363.749 185.625 364.626 185.497 365.298L185.753 365.413ZM181.357 368.709C182.95 368.709 184.249 369.573 184.249 370.629C184.249 371.685 182.969 372.587 181.357 372.587C179.744 372.587 178.457 371.71 178.457 370.629C178.457 369.547 179.776 368.709 181.376 368.709H181.357Z" fill="#8A2432"/>
</g>
<defs>
<clipPath id="clip0_795_4133">
<rect width="342.758" height="512" fill="white" transform="translate(0.934082 0.574707)"/>
</clipPath>
</defs>
</svg>
