<svg width="541" height="513" viewBox="0 0 541 513" fill="none" xmlns="http://www.w3.org/2000/svg">
<g clip-path="url(#clip0_2_15184)">
<path d="M263.949 317.994L376.951 261.613C454.345 283.347 477.282 312.701 477.282 312.701L521.553 262.655C523.959 260.089 531.257 251.026 531.257 234.585C531.257 216.861 512.731 203.066 499.738 193.763C477.683 135.939 355.778 119.177 346.796 99.0464C343.668 92.069 325.944 31.9186 325.944 31.9186C315.357 0.800784 283.999 0.800781 272.209 0.800781C260.34 0.800781 234.916 4.81081 234.916 4.81081C234.916 48.1993 229.061 101.051 222.886 110.756C222.886 110.756 200.831 122.305 175.006 131.608L113.252 89.9837L129.452 145.964C25.4322 203.147 0.0888672 302.836 0.0888672 302.836C0.0888672 302.836 26.7956 512.801 290.014 512.801C429.162 512.801 509.522 445.513 509.522 445.513L464.69 345.262C464.69 345.262 396.199 380.871 308.7 380.871C228.019 380.871 196.5 343.257 184.951 321.362C253.282 323.367 263.949 317.994 263.949 317.994Z" fill="#97999B"/>
<path d="M489.633 201.143C468.139 143.078 349.522 132.491 336.45 105.063C331.157 94.0753 324.42 67.8497 314.635 35.8497C306.776 12.752 283.598 12.752 272.049 12.752C260.981 12.752 246.625 14.9976 246.625 14.9976C246.625 38.6567 242.134 107.389 231.146 119.258C228.42 122.627 208.209 130.807 186.234 139.308L192.811 143.719L186.074 150.456L173.402 163.128L159.527 206.597L141.402 197.133L147.818 213.253L115.497 218.627L133.783 224.963L81.1715 265.384L95.367 266.506L76.6001 300.431C103.628 288.16 111.888 285.835 111.888 285.835L104.109 277.815L158.645 255.84C158.645 255.84 154.555 266.747 154.555 287.92C154.555 290.968 155.036 295.459 156.079 300.672C162.816 333.634 194.976 401.644 308.62 401.644C390.826 401.644 454.264 372.932 454.264 372.932L483.698 438.857C483.698 438.857 406.545 492.271 289.853 492.271C51.3369 492.271 21.1014 304.762 21.1014 304.762C53.9836 216.782 109.322 178.286 144.53 161.925L133.542 160.722L132.58 157.434C39.6277 208.682 12.1189 303.719 12.1189 303.719C12.1189 303.719 40.4297 501.013 290.014 501.013C417.693 501.013 494.926 441.825 494.926 441.825L458.836 361.063C458.836 361.063 391.387 392.662 308.7 392.662C185.593 392.662 167.387 308.692 167.387 308.692C167.387 308.692 237.482 312.862 259.938 306.847L375.828 248.942C454.344 271.078 476.961 295.058 476.961 295.058L512.891 254.637C512.891 254.637 519.467 248.461 519.467 234.587C519.387 221.594 499.979 208.521 489.633 201.143ZM237.242 222.637L178.455 214.697L208.049 198.176L237.242 222.637ZM227.457 143.399L190.966 201.704L178.134 171.068L227.457 143.399ZM106.756 253.915L175.006 207.96L169.873 244.451L106.756 253.915Z" fill="#00205B"/>
<path d="M165.222 240.922L169.552 216.14L123.357 247.499L165.222 240.922ZM188.48 213.093L226.816 217.744L204.279 204.591L188.48 213.093ZM185.512 172.671L189.763 191.599L216.791 155.027L185.512 172.671Z" fill="#00205B"/>
<path d="M83.0963 269.474L69.4622 269.795L126.405 227.369L101.703 217.584L142.124 209.805L128.089 181.414L153.031 195.609L162.976 164.652C132.981 175.078 68.58 208.121 31.2065 305.564C35.6978 327.94 74.7554 482.567 290.014 482.567C382.966 482.567 450.816 447.359 471.668 435.008L449.452 385.203C428.841 393.143 375.026 411.108 308.78 411.108C177.893 411.188 145.011 321.524 145.011 287.84C145.011 280.381 145.492 274.045 146.134 268.913L116.059 278.857L119.989 287.359L96.4897 295.86L76.2792 309.173L117.342 316.792L108.841 346.146L126.485 340.933L143.407 384L163.618 381.434L170.354 411.669C170.354 411.669 208.45 438.055 273.011 443.83C358.264 451.449 434.535 422.336 434.535 422.336C434.535 422.336 343.587 458.025 260.821 449.283C197.623 442.627 156.48 416.882 156.48 416.882L155.999 389.614L131.056 389.935L119.347 348.151L97.1314 358.577L106.916 321.203L64.3294 315.99L72.991 289.925L83.0963 269.474ZM170.675 162.887L183.026 146.286L122.956 104.822L140.119 155.429L170.675 162.887Z" fill="#00205B"/>
<path d="M528.129 421.053C521.392 421.053 515.938 426.506 515.938 433.243C515.938 439.98 521.392 445.434 528.129 445.434C534.866 445.434 540.319 439.98 540.319 433.243C540.319 426.506 534.866 421.053 528.129 421.053ZM528.129 442.867C522.836 442.867 518.505 438.536 518.505 433.243C518.505 427.95 522.756 423.699 528.129 423.699C533.422 423.699 537.753 427.95 537.753 433.243C537.673 438.617 533.422 442.867 528.129 442.867Z" fill="#041C2C"/>
<path d="M533.182 430.433C533.182 428.187 531.337 426.262 529.011 426.262H523.157V440.217H525.803V434.523H527.648L530.294 440.217H533.182L530.455 434.282C531.979 433.801 533.182 432.277 533.182 430.433ZM529.011 431.957H525.723V428.909H529.011C529.813 428.909 530.535 429.55 530.535 430.433C530.535 431.315 529.813 431.957 529.011 431.957ZM460.44 205.069C411.277 201.059 392.189 184.939 392.189 172.267C392.189 166.172 397.803 165.049 401.573 165.049C421.623 165.049 452.66 180.929 457.713 194.483C448.891 185.019 433.492 176.758 421.783 176.758C419.297 176.758 416.65 177.48 416.65 180.608C416.65 188.548 430.766 200.979 482.335 206.753C462.605 149.811 353.693 145.801 329.232 110.032C322.415 100.087 311.187 36.568 299.878 27.8262C287.447 18.2823 255.528 22.6131 255.528 22.6131C255.528 31.4352 253.362 109.39 237.242 125.671C226.335 134.814 208.049 138.824 186.154 150.373L173.482 163.044L159.608 206.513L141.482 197.049L147.898 213.17L115.578 218.543L133.863 224.879L81.2518 265.3L95.4473 266.423L76.6804 300.347C103.708 288.077 111.969 285.751 111.969 285.751L104.189 277.731L158.726 255.756C158.726 255.756 154.635 266.663 154.635 287.836C154.635 290.884 155.117 295.375 156.159 300.588C158.485 296.097 201.392 216.939 293.302 211.566L254.806 241.32L178.455 300.267C178.455 300.267 241.332 302.914 256.731 298.503C305.332 275.886 344.229 254.794 374.706 239.475C403.979 224.799 425.553 215.576 440.47 215.576C458.916 215.576 484.5 233.38 506.395 248.458C506.395 248.458 507.758 247.335 508.881 244.929C514.174 226.082 486.826 211.325 460.44 205.069ZM169.873 244.448L106.756 253.911L175.006 207.956L169.873 244.448ZM227.457 143.395L190.966 201.701L178.134 171.064L227.457 143.395ZM178.455 214.693L208.049 198.172L237.242 222.633L178.455 214.693ZM285.122 117.25C276.059 117.811 257.693 123.746 257.693 123.746C257.693 123.746 274.214 114.202 277.583 109.069C280.951 103.936 281.833 46.1119 281.833 46.1119C281.833 46.1119 287.127 102.733 291.618 108.428C296.109 114.122 312.791 121.18 312.791 121.18C312.791 121.18 291.778 116.849 285.122 117.25Z" fill="#041C2C"/>
<path d="M291.698 108.431C287.207 102.737 281.913 46.1152 281.913 46.1152C281.913 46.1152 281.031 103.94 277.663 109.073C274.294 114.205 257.773 123.749 257.773 123.749C257.773 123.749 276.139 117.734 285.202 117.253C291.858 116.852 312.951 121.183 312.951 121.183C312.951 121.183 296.189 114.125 291.698 108.431ZM156.079 300.591C158.405 298.266 205.402 251.429 254.806 241.323L293.302 211.569C201.392 217.023 158.485 296.18 156.079 300.591ZM510.806 236.832C510.806 225.123 495.407 217.183 482.335 206.757C430.766 200.982 416.65 188.551 416.65 180.611C416.65 177.484 419.297 176.762 421.783 176.762C433.492 176.762 448.891 185.023 457.713 194.486C452.58 181.012 421.623 165.053 401.573 165.053C397.803 165.053 392.189 166.256 392.189 172.271C392.189 184.942 411.277 201.063 460.44 205.073C486.826 211.328 514.174 226.005 508.881 245.012C509.923 243.088 510.806 240.441 510.806 236.832ZM414.084 236.752L433.252 243.569C436.781 242.045 440.63 240.2 440.951 239.719C441.192 239.158 441.192 238.757 440.39 238.035C439.828 237.474 431.247 234.346 425.954 232.341L414.084 236.752ZM430.204 230.657C435.337 232.662 442.395 235.549 442.956 235.629C443.758 235.789 445.121 235.87 445.923 235.629C446.565 235.469 450.736 233.383 453.783 231.779C450.816 230.336 444.801 227.529 440.791 227.529C436.941 227.609 430.204 230.657 430.204 230.657ZM449.132 237.313C448.971 237.714 449.132 238.035 449.773 238.516C450.495 239.078 460.44 244.21 461.242 244.291C462.044 244.371 462.685 244.371 463.487 244.21C464.049 244.05 467.497 241.885 469.823 240.281L456.59 233.143C453.142 234.827 449.452 236.832 449.132 237.313ZM458.515 247.82C458.756 247.338 458.836 247.018 458.675 246.536C458.034 245.814 448.169 240.682 447.126 240.521C446.004 240.361 445.362 240.361 444.4 240.842C443.517 241.243 438.545 244.05 436.7 245.012L452.099 251.99C455.066 250.226 458.274 248.221 458.515 247.82ZM477.442 253.273C477.843 253.353 478.806 253.113 479.848 252.712C480.41 252.471 482.655 250.627 484.179 249.343L472.309 241.804C469.422 243.649 466.455 245.654 466.134 246.055C466.134 246.135 466.214 246.456 466.776 247.338L477.442 253.273ZM482.335 254.476C482.014 255.198 481.933 255.439 482.094 255.599C482.495 256 488.67 260.09 492.841 262.897L497.653 258.085L486.665 251.028C484.66 252.391 482.495 254.075 482.335 254.476ZM475.517 256.481C475.758 256.08 475.598 255.599 475.197 255.118C474.555 254.556 465.091 249.424 464.37 249.263C463.568 249.103 462.124 249.343 461.402 249.584C461.001 249.744 458.194 251.669 455.628 253.514L470.144 260.251C472.63 258.647 475.277 256.802 475.517 256.481ZM478.084 258.406C477.683 258.566 474.956 260.652 472.871 262.256L486.024 270.356L490.916 264.982C486.906 262.256 481.132 258.246 480.65 258.085C480.169 257.925 478.725 258.165 478.084 258.406Z" fill="white"/>
<path d="M374.786 239.558C445.683 258.405 475.918 282.946 475.918 282.946L483.457 274.445C479.929 271.799 453.783 253.834 402.615 237.072C417.853 231.057 436.299 223.919 441.272 223.919C452.58 223.919 475.838 238.596 500.781 254.956L506.475 248.54C484.66 233.463 459.076 215.658 440.55 215.658C425.553 215.658 403.979 224.881 374.786 239.558Z" fill="white"/>
</g>
<defs>
<clipPath id="clip0_2_15184">
<rect width="540.231" height="512" fill="white" transform="translate(0.0888672 0.800781)"/>
</clipPath>
</defs>
</svg>
