<svg width="358" height="513" viewBox="0 0 358 513" fill="none" xmlns="http://www.w3.org/2000/svg">
<g clip-path="url(#clip0_795_4430)">
<path d="M246.381 0.574707H111.904L0.42395 93.5417V419.608L111.904 512.575H246.381L357.861 419.608V93.5417L246.381 0.574707Z" fill="#ECE83A"/>
<path d="M241.912 12.849L345.553 99.2719V413.877L241.912 500.3H116.387L12.7323 413.877V99.2719L116.387 12.849H241.912ZM244.136 6.69824H114.149L6.58826 96.3966V416.753L114.149 506.451H244.136L351.703 416.753V96.3966L349.493 94.552L244.136 6.69824Z" fill="#1F1646"/>
<path d="M154.485 316.855V217.547L201.25 316.855H228.45L129.828 107.417V316.855H154.485Z" fill="#1F1646"/>
<path d="M203.8 49.6045V148.912L157.035 49.6045H129.828L228.45 259.036V49.6045H203.8Z" fill="#1F1646"/>
<path d="M105.177 83.0103H86.6909V283.443H105.177V83.0103Z" fill="#1F1646"/>
<path d="M62.0402 116.416H49.7115V250.037H62.0402V116.416Z" fill="#1F1646"/>
<path d="M253.108 283.45H271.594V83.017H253.108L253.108 283.45Z" fill="#1F1646"/>
<path d="M296.245 250.044H308.573V116.422H296.245V250.044Z" fill="#1F1646"/>
<path d="M175.386 439.877L161.701 426.186V416.264H166.732V426.186H174.992V412.908L170.72 408.635H157.72L153.448 412.908V430.329L166.97 443.851V455.665H161.782V443.851H153.448V459.333L157.72 463.606H171.113L175.386 459.333V439.877Z" fill="#1F1646"/>
<path d="M183.293 412.908V459.333L187.565 463.606H200.565L204.837 459.333V443.851H196.659V455.665H191.702V416.264H196.659V426.186H204.837V412.908L200.565 408.635H187.565L183.293 412.908Z" fill="#1F1646"/>
<path d="M147.595 372.653L133.917 358.961V349.047H138.942V358.961H147.202V345.69L142.923 341.417H129.929L125.657 345.69V363.105L139.179 376.627V388.44H133.991V376.627H125.657V392.109L129.929 396.381H143.323L147.595 392.109V372.653Z" fill="#1F1646"/>
<path d="M69.744 341.417L79.8076 371.439V341.417H88.0607V396.347H80.6011L70.2187 366.4V396.347H62.0334V341.417H69.744Z" fill="#1F1646"/>
<path d="M163.755 341.417V364.074H169.106V341.417H177.359V396.347H169.106V372.015H163.755V396.381H155.502V341.451L163.755 341.417Z" fill="#1F1646"/>
<path d="M192.339 341.417L197.357 384.67L202.369 341.417H210.371L203 396.347H191.729L184.357 341.417H192.339Z" fill="#1F1646"/>
<path d="M225.568 341.417V396.347H217.376V341.417H225.568Z" fill="#1F1646"/>
<path d="M241.905 341.417V388.284H249.697V396.381H233.645V341.451L241.905 341.417Z" fill="#1F1646"/>
<path d="M264.223 341.417V388.284H272.021V396.381H255.983V341.451L264.223 341.417Z" fill="#1F1646"/>
<path d="M296.245 349.514H286.601V364.074H295.709V372.015H286.601V388.291H296.272V396.388H278.321V341.458H296.245V349.514Z" fill="#1F1646"/>
<path d="M111.993 396.381H119.995L112.623 341.451H101.332L93.9674 396.381H101.97L103.034 387.199H110.962L111.993 396.381ZM103.95 379.258L106.981 353.129L110.006 379.258H103.95Z" fill="#1F1646"/>
</g>
<defs>
<clipPath id="clip0_795_4430">
<rect width="357.437" height="512" fill="white" transform="translate(0.42395 0.574707)"/>
</clipPath>
</defs>
</svg>
