<svg width="1025" height="184" viewBox="0 0 1025 184" fill="none" xmlns="http://www.w3.org/2000/svg">
<g clip-path="url(#clip0_755_230)">
<mask id="mask0_755_230" style="mask-type:luminance" maskUnits="userSpaceOnUse" x="0" y="0" width="1023" height="184">
<path d="M1022.04 0.724121H0.103027V183.276H1022.04V0.724121Z" fill="white"/>
</mask>
<g mask="url(#mask0_755_230)">
<path d="M206.356 51.6891C169.232 51.6891 140.224 79.871 140.224 117.598C140.224 155.326 168.499 183.266 206.356 183.266C244.213 183.266 272.979 154.843 272.979 117.357C272.979 80.1121 244.705 51.6891 206.356 51.6891ZM206.606 156.077C185.465 156.077 169.973 139.658 169.973 117.608C169.973 95.3069 185.215 78.897 206.356 78.897C227.747 78.897 243.23 95.5574 243.23 117.608C243.23 139.658 227.747 156.077 206.606 156.077ZM281.087 80.3625H299.527V180.827H329.027V54.1381H281.087V80.3625ZM65.9844 78.8876C81.4762 78.8876 93.7674 88.4424 98.4336 102.654H129.658C124 72.2735 98.9253 51.6891 66.2349 51.6891C29.1105 51.6891 0.103027 79.871 0.103027 117.608C0.103027 155.344 28.3777 183.276 66.2349 183.276C98.1922 183.276 123.758 162.691 129.417 132.06H98.4336C94.0087 146.272 81.7173 156.077 66.2258 156.077C44.8341 156.077 29.8432 139.658 29.8432 117.608C29.8527 95.3069 44.6022 78.8876 65.9844 78.8876ZM841.589 105.353L819.956 102.171C809.633 100.706 802.257 97.2736 802.257 89.1846C802.257 80.3625 811.85 75.9562 824.874 75.9562C839.133 75.9562 848.232 82.0788 850.197 92.1251H878.715C875.515 66.6426 855.848 51.6982 825.615 51.6982C794.39 51.6982 773.742 67.6261 773.742 90.1678C773.742 111.726 787.265 124.231 814.548 128.146L836.18 131.327C846.757 132.793 852.656 136.967 852.656 144.806C852.656 154.853 842.333 159.018 828.074 159.018C810.615 159.018 800.783 151.912 799.308 141.133H770.299C773.009 165.882 792.425 183.276 827.823 183.276C860.032 183.276 881.413 168.573 881.413 143.331C881.413 120.789 865.931 109.027 841.589 105.353ZM314.277 1.94861C303.461 1.94861 295.346 9.78723 295.346 20.5665C295.346 31.3457 303.452 39.1843 314.277 39.1843C325.093 39.1843 333.211 31.3457 333.211 20.5665C333.211 9.78723 325.093 1.94861 314.277 1.94861ZM747.192 97.5146C747.192 70.0749 730.477 51.6982 695.077 51.6982C661.644 51.6982 642.961 68.6093 639.27 94.5833H668.527C670.002 84.5369 677.868 76.2066 694.586 76.2066C709.587 76.2066 716.96 82.8207 716.96 90.91C716.96 101.448 703.434 104.138 686.719 105.854C664.103 108.303 636.078 116.142 636.078 145.548C636.078 168.341 653.044 183.034 680.088 183.034C701.226 183.034 714.501 174.213 721.144 160.242C722.129 172.738 731.47 180.827 744.503 180.827H761.711V154.611H747.201V97.5146H747.192ZM718.184 129.37C718.184 146.281 703.434 158.776 685.484 158.776C674.42 158.776 665.078 154.12 665.078 144.324C665.078 131.828 680.076 128.396 693.844 126.931C707.119 125.706 714.493 122.765 718.184 117.125V129.37ZM561.589 51.6891C545.113 51.6891 531.348 58.5536 521.516 70.0658V0.724121H492.017V180.827H521.022V164.166C530.854 176.17 544.874 183.276 561.589 183.276C596.987 183.276 623.787 155.344 623.787 117.608C623.787 79.871 596.496 51.6891 561.589 51.6891ZM557.165 156.077C536.023 156.077 520.532 139.658 520.532 117.608C520.532 95.5574 536.265 78.897 557.404 78.897C578.797 78.897 593.786 95.3163 593.786 117.608C593.786 139.658 578.304 156.077 557.165 156.077ZM421.458 51.6891C402.284 51.6891 389.742 59.5277 382.369 70.5572V54.1381H353.109V180.817H382.608V111.968C382.608 92.6074 394.899 78.8876 413.092 78.8876C430.057 78.8876 440.623 90.8915 440.623 108.294V180.827H470.122V106.095C470.133 74.2308 453.667 51.6891 421.458 51.6891ZM1022.04 113.443C1022.04 77.1807 995.485 51.6982 959.836 51.6982C921.98 51.6982 894.198 80.1215 894.198 117.608C894.198 157.06 923.945 183.276 960.33 183.276C991.061 183.276 1015.15 165.14 1021.29 139.417H990.559C986.135 150.687 975.319 157.06 960.812 157.06C941.878 157.06 927.619 145.298 924.427 124.713H1022.03V113.443H1022.04ZM926.153 103.637C930.831 85.9934 944.103 77.422 959.346 77.422C976.061 77.422 988.845 86.9766 991.794 103.637H926.153Z" fill="#0052FF"/>
</g>
</g>
<defs>
<clipPath id="clip0_755_230">
<rect width="1024" height="182.552" fill="white" transform="translate(0.103027 0.724121)"/>
</clipPath>
</defs>
</svg>
