<svg width="624" height="513" viewBox="0 0 624 513" fill="none" xmlns="http://www.w3.org/2000/svg">
<g clip-path="url(#clip0_2_15096)">
<path d="M405.942 478.852C399.317 478.852 393.938 484.222 393.938 490.852C393.938 497.474 399.317 502.852 405.942 502.852C412.567 502.852 417.938 497.474 417.938 490.852C417.938 484.222 412.567 478.852 405.942 478.852ZM405.942 500.278C404.077 500.278 402.254 499.726 400.704 498.69C399.153 497.655 397.945 496.183 397.231 494.46C396.758 493.316 396.515 492.09 396.516 490.852C396.516 485.644 400.727 481.432 405.942 481.432C411.15 481.432 415.366 485.644 415.366 490.852C415.366 496.062 411.15 500.278 405.942 500.278ZM410.873 488.07C410.873 487.536 410.767 487.007 410.562 486.513C410.358 486.02 410.057 485.571 409.679 485.194C408.915 484.432 407.88 484.004 406.801 484.004H401.018V497.703H403.589V492.14H405.433L408.03 497.703H410.873L408.162 491.902C408.953 491.621 409.639 491.101 410.124 490.415C410.609 489.729 410.871 488.91 410.873 488.07ZM406.801 489.568H403.589V486.57H406.801C407.199 486.571 407.58 486.729 407.862 487.01C408.143 487.291 408.301 487.673 408.302 488.071C408.301 488.468 408.142 488.849 407.861 489.129C407.579 489.41 407.198 489.568 406.801 489.568Z" fill="black"/>
<path d="M419.004 311.975C421.737 307.28 424.226 302.527 426.41 297.786L623.142 192.426H416.136C400.617 176.161 378.174 166.256 350.583 163.46L334.182 0.802734L236.455 162.628H183.853L166.042 192.427H0.0126953L112.098 282.726L42.5119 399.191H93.5759L24.9503 512.803L237.099 399.179C243.385 399.132 249.67 398.952 255.949 398.636L384.725 502.4L370.909 365.201C390.157 351.847 405.93 334.374 419.004 311.975Z" fill="#00823E"/>
<path d="M418.112 290.056L580.344 203.168H411.344C396.138 185.031 371.873 174.848 340.807 173.519L326.726 33.9219L242.521 173.36H189.941L172.142 203.168H30.4624L126.113 280.218L61.4424 388.434H112.608L54.3824 484.853L234.397 388.434C242.762 388.433 251.126 388.185 259.477 387.692L371.472 477.912L359.579 359.824C379.883 346.992 396.314 329.539 409.722 306.564C412.924 301.078 415.747 295.539 418.112 290.056Z" fill="black"/>
<path d="M404.138 234.627C404.138 234.627 402.508 229.31 400.137 224.648L367.165 240.755C369.309 246.355 372.381 259.742 364.195 279.638C354.855 302.297 327.048 342.374 251.204 342.374H149.444L99.3125 366.954H189.137L177.629 370.066L113.231 428.967L229.011 366.954H233.841C245.496 366.954 256.308 366.51 266.367 365.647L286.739 363.189C290.682 362.549 294.484 361.829 298.173 361.043C336.021 352.96 360.428 336.88 378.22 314.715C382.955 308.808 387.238 302.479 391.164 295.74C396.692 286.252 400.59 277.183 403.012 268.618C406.559 256.03 406.864 244.551 404.137 234.627H404.138ZM169.742 249.061L91.3757 224.654L91.3701 224.648L154.128 275.208L169.742 249.061ZM289.381 194.85H321.363L311.812 100.178L289.381 194.85ZM411.338 245.479C412.108 246.982 412.81 248.519 413.443 250.084C413.574 250.407 413.681 250.74 413.805 251.063C414.278 252.283 414.711 253.518 415.101 254.767C415.237 255.231 415.361 255.691 415.503 256.155C415.845 257.396 416.154 258.647 416.431 259.905C416.516 260.323 416.617 260.731 416.703 261.155C417.044 262.893 417.323 264.642 417.54 266.399L417.545 266.395L467.698 239.272L494.724 224.648L411.338 245.479ZM338.098 362.989C335.806 363.235 333.527 363.421 331.263 363.573C331.099 363.583 330.929 363.595 330.765 363.602C328.57 363.754 326.381 363.856 324.231 363.933C324.044 363.947 323.863 363.951 323.676 363.955C321.498 364.031 319.36 364.075 317.267 364.091H316.989C314.839 364.105 312.73 364.099 310.693 364.069V364.075L344.949 428.967L338.098 362.989Z" fill="#A2AAAD"/>
<path d="M317.171 217.904H223.915L223.733 217.812L149.445 342.372L199.717 317.819L228.401 270.981L237.182 256.646L230.686 251.418L217.708 240.958L217.703 240.952H295.51C296.987 240.952 298.406 240.969 299.804 241.009C299.917 241.009 300.024 241.015 300.125 241.02C301.365 241.053 302.581 241.104 303.764 241.172C304.143 241.196 304.5 241.224 304.889 241.252C305.766 241.308 306.633 241.365 307.481 241.444C307.967 241.49 308.437 241.552 308.917 241.596C309.602 241.676 310.297 241.756 310.971 241.835C311.503 241.908 312.018 241.993 312.539 242.072C313.115 242.157 313.681 242.248 314.225 242.349C314.779 242.445 315.3 242.552 315.826 242.666C316.304 242.764 316.781 242.869 317.257 242.978C317.806 243.107 318.333 243.255 318.841 243.396C319.249 243.509 319.667 243.622 320.052 243.741C320.57 243.903 321.085 244.077 321.596 244.262C322.442 244.562 323.277 244.896 324.097 245.263L324.952 245.665C325.666 246.03 326.365 246.422 327.049 246.841C327.492 247.124 327.921 247.408 328.34 247.712C328.538 247.854 328.724 248.002 328.912 248.148C329.33 248.476 329.72 248.81 330.099 249.166C330.252 249.308 330.388 249.456 330.536 249.603C330.914 249.987 331.282 250.372 331.609 250.784C331.723 250.915 331.819 251.051 331.921 251.186C332.265 251.628 332.593 252.08 332.889 252.567C332.945 252.663 333.008 252.776 333.064 252.878C333.38 253.407 333.665 253.953 333.918 254.513C333.941 254.559 333.947 254.609 333.975 254.655C334.246 255.282 334.484 255.933 334.687 256.618L334.693 256.612L367.167 240.754C358.268 220.185 332.985 217.904 317.173 217.904H317.171Z" fill="#A2AAAD"/>
<path d="M266.366 365.652L344.948 428.964L310.692 364.074C300.543 363.93 291.982 363.336 286.738 363.186L266.365 365.645M143.209 379.349L113.23 428.965L177.628 370.063M199.715 317.817L149.443 342.37H251.204C327.047 342.37 354.855 302.294 364.194 279.635C372.38 259.739 369.308 246.353 367.164 240.752L334.689 256.61C334.876 257.244 335.047 257.877 335.182 258.562C338.056 273.662 325.712 295.246 304.812 307.47C288.299 317.127 268.43 317.817 251.265 317.817H199.713" fill="white"/>
<path d="M223.73 217.809L223.912 217.9H317.169C332.982 217.9 358.265 220.18 367.164 240.75L400.135 224.644C402.506 229.306 404.136 234.623 404.136 234.623C407.032 238.165 409.397 241.758 411.337 245.474L494.723 224.644H400.135C389.997 206.025 366.977 194.846 333.83 194.846H289.38L311.811 100.174V100.168L254.631 194.846H202.137L184.327 224.644H91.375V224.65L169.741 249.056L154.127 275.204L99.3118 366.95L149.443 342.369L223.731 217.809H223.73Z" fill="white"/>
</g>
<defs>
<clipPath id="clip0_2_15096">
<rect width="623.13" height="512" fill="white" transform="translate(0.012207 0.800781)"/>
</clipPath>
</defs>
</svg>
