<svg width="576" height="513" viewBox="0 0 576 513" fill="none" xmlns="http://www.w3.org/2000/svg">
<g clip-path="url(#clip0_879_3791)">
<path fill-rule="evenodd" clip-rule="evenodd" d="M444.126 374.962C431.065 394.719 418.645 412.935 408.535 427.549C420.233 437.22 419.534 449.404 419.534 451.715C419.308 464.67 412.411 474.34 406.094 479.993C398.236 486.69 387.498 489.937 376.167 490.02C375.836 490.02 367.729 489.771 364.944 489.131C363.747 490.885 361.436 493.019 357.678 494.548C357.265 495.733 356.695 496.918 355.948 498.044C352.855 502.69 347.723 505.274 342.496 505.274C342.496 505.274 337.198 505.12 333.536 502.596C328.843 499.502 326.259 494.358 326.259 489.119V488.977C326.271 486.476 326.875 483.94 328.084 481.641C327.539 480.349 325.631 472.633 325.631 472.633L330.621 468.236C331.024 467.999 332.256 466.139 333.643 461.386C335.112 456.752 336.867 449.866 340.541 441.842C345.222 431.65 351.717 421.101 356.458 413.801C355.996 411.466 353.542 410.387 351.776 409.961C349.797 409.427 347.355 408.278 345.413 406.014C343.373 403.644 341.81 400.301 342.686 395.987C343.551 391.732 346.218 388.663 349.335 387.229V387.217C352.867 385.38 357.228 386.257 357.228 386.257C367.622 387.217 375.302 396.864 375.302 396.864C385.649 382.429 409.72 346.624 410.23 345.842C378.68 351.874 346.087 352.692 319.018 348.2C269.797 340.034 231.93 313.83 207.467 301.883C183.005 289.948 136.404 277.717 88.3322 289.948C40.2727 302.179 8.53335 346.458 8.53335 346.458C22.886 245.338 85.5233 228.295 91.5322 226.588C100.658 218.043 112.629 191.969 84.2788 174.38C74.5958 168.371 66.4654 160.763 66.4654 160.763C72.4032 161.462 86.3292 159.625 94.0567 156.567C103.337 152.905 111.87 151.684 111.87 151.684C104.546 144.703 93.3574 141.207 93.3574 141.207C104.534 140.508 122.003 136.668 132.824 131.773C143.645 126.89 149.583 118.155 147.829 114.315C146.087 110.463 136.309 112.573 136.309 112.573C139.805 107.334 148.184 105.236 148.184 105.236C124.089 103.838 106.537 116.958 106.537 116.958C109.215 111.21 118.021 100.875 118.021 100.875C114.679 101.977 105.423 104.869 104.842 105.047C142.566 75.9148 184.676 50.3028 243.675 49.9236C302.662 49.5325 360.132 75.9741 398.425 88.2289C436.743 100.484 457.07 106.67 498.444 100.555C518.248 97.6156 535.589 89.4971 548.293 81.8882C548.293 81.8882 557.182 59.2866 557.858 26.8361C557.858 26.8361 568.512 45.9413 568.559 75.6896C568.666 177.782 519.196 252.342 503.386 279.484C488.275 306.185 468.411 338.162 444.126 374.962ZM552.915 0.0507812C552.915 0.0507812 554.255 24.5961 549.62 47.0673C545.14 68.78 542.675 77.0526 542.675 77.0526C533.193 82.6111 517.845 89.4497 495.409 93.183C453.537 100.164 415.539 88.9163 374.058 72.6318C332.564 56.3473 277.05 38.8065 225.542 44.7206C175.598 50.4569 139.864 70.6881 120.866 83.8793C101.867 97.0586 98.3708 100.543 82.0862 105.201C82.0862 105.201 94.8863 110.238 101.476 110.238C101.476 110.238 98.3708 123.05 99.5322 127.305C99.5322 127.305 126.673 114.896 129.778 120.715C132.883 126.534 120.083 130.422 111.171 132.733C102.258 135.068 78.981 134.665 78.981 134.665C78.981 134.665 89.8966 143.115 93.7485 148.982C93.7485 148.982 73.1736 157.942 50.2876 154.837C50.2876 154.837 49.5291 163.311 68.338 177.189C64.3321 178.623 59.2595 180.946 56.1187 184.3C56.1187 184.3 75.8284 180.235 88.2137 194.031C91.473 198.12 92.5396 201.782 92.1722 206.404C91.4967 214.784 88.2848 217.984 80.3914 223.198C75.8759 225.035 71.0758 227.335 66.4417 230.167C44.6461 243.56 28.7053 263.945 17.5171 287.234C12.6697 297.32 8.79409 309.042 6.0563 319.673C3.31851 330.363 2.3111 339.857 1.6711 345.783C1.03109 351.697 0.154053 370.34 0.154053 370.34C0.154053 370.34 9.93187 356.639 14.5186 350.073C19.0815 343.531 48.0002 307.169 90.1218 296.633C103.597 293.208 117.014 291.773 129.838 291.773C160.664 291.75 188.196 300.117 204.493 308.094C228.149 319.542 267.011 346.565 317.963 355.015C329.958 356.994 342.887 357.978 356.292 357.978C369.151 357.978 382.461 357.042 395.759 355.229C388.245 366.44 381.039 376.918 374.188 386.624C367.243 380.011 357.821 379.323 357.821 379.323C346.395 378.245 340.672 385.202 340.672 385.202C338.36 387.703 336.63 390.95 335.954 394.778C335.148 398.322 336.108 402.448 336.773 404.544C338.953 411.466 344.867 414.618 347.166 415.626C330.467 437.872 325.619 463.485 325.619 463.496L317.998 470.216L320.748 481.356C316.505 495.022 323.166 505.274 331.806 509.517C340.576 513.831 348.766 511.33 348.766 511.33C353.921 509.884 358.591 506.637 361.767 501.872C362.255 501.149 362.68 500.414 363.059 499.68C364.837 498.72 366.366 497.641 367.67 496.479C370.076 496.752 376.239 496.942 376.239 496.942C388.873 496.835 401.222 493.256 410.645 485.256C418.064 478.619 426.23 467.3 426.514 451.833C426.514 448.93 427.048 437.22 417.377 427.016C478.403 337.415 518.023 279.732 543.315 221.041C610.326 65.4733 553.164 0.607821 552.915 0.0507812Z" fill="#B1BABF"/>
<path fill-rule="evenodd" clip-rule="evenodd" d="M351.764 455.341C351.753 455.365 351.741 455.401 351.729 455.424C351.717 455.436 351.717 455.448 351.717 455.46C351.729 455.436 351.741 455.413 351.753 455.389C351.753 455.365 351.764 455.353 351.764 455.341ZM473.649 315.086C446.793 327.602 384.821 348.354 323.106 336.834C301.631 332.828 273.364 326.12 235.983 303.459C211.462 288.609 184.984 274.41 123.26 274.683C72.1306 274.932 39.289 298.102 28.8356 306.719C56.5809 216.194 138.596 229.432 138.596 229.432C123.627 222.25 105.66 225 105.66 225C131.355 184.573 89.9559 165.645 89.9559 165.645C93.4403 165.645 109.156 161.106 117.18 158.309C125.215 155.524 139.959 153.592 139.959 153.592C134.815 148.863 118.922 145.047 118.922 145.047C133.938 145.047 147.532 137.77 156.99 127.921C160.285 124.496 169.304 107.346 159.076 100.697C149.666 94.5814 130.999 101.373 130.987 101.384C131.011 101.361 186.869 41.1767 302.14 66.8954C356.825 79.1028 418.467 111.127 475.38 111.47C494.509 111.589 536.713 105.378 561.899 80.0273C560.571 128.193 551.599 195.654 473.649 315.086ZM401.092 421.066C401.021 421.006 400.914 420.935 400.855 420.888C399.397 419.561 397.514 417.96 395.427 416.218C398.828 411.371 437.797 353.427 449.223 335.459C453.218 334.049 457.104 332.508 460.944 330.896C453.218 343.116 411.059 406.642 401.092 421.066ZM399.053 471.792C393.768 476.402 384.784 479.341 375.397 479.164C367.03 478.998 361.151 477.647 355.83 474.755C355.806 474.814 355.794 474.861 355.783 474.933C355.367 475.288 354.526 477.22 348.376 478.133C344.25 478.808 341.857 477.979 341.607 477.896C348.861 485.232 355.427 480.61 355.427 480.61C355.736 481.89 356.185 482.802 356.185 482.802C356.185 482.802 354.006 486.003 347.367 484.9C346.561 484.77 345.874 484.544 345.198 484.296C345.329 484.367 345.447 484.414 345.578 484.497C348.126 486.168 348.813 489.593 347.143 492.13C345.447 494.678 342.034 495.365 339.487 493.694C336.949 492.011 336.25 488.586 337.933 486.05C339.308 483.964 341.821 483.146 344.084 483.822C339.107 481.427 337.827 476.426 337.827 476.426C344.191 470.784 343.99 460.568 350.484 446.37C350.781 445.718 351.113 445.054 351.433 444.39C351.433 444.414 351.421 444.438 351.409 444.461C349.998 447.993 348.647 454.061 349.204 458.482C349.323 459.442 349.514 460.319 349.738 461.173V461.184C349.833 461.576 352.013 470.405 357.975 468.971C357.916 469.101 357.05 471.045 357.038 471.069C359.646 472.693 365.619 475.525 375.788 475.656C390.07 475.845 397.88 466.448 400.025 459.454C401.71 454.014 399.101 447.97 393.72 442.672C395.296 440.847 396.256 438.3 395.202 434.79C395.688 436.414 392.642 439.306 389.43 439.021C389.133 438.998 388.849 438.95 388.553 438.867C383.705 437.516 378.182 431.614 373.501 428.118C368.843 424.621 367.48 419.205 367.575 415.365C367.646 411.525 366.342 406.974 362.68 403.525C359.018 400.077 355.736 399.744 354.692 399.472C353.637 399.188 353.341 398.535 353.447 397.836C353.662 396.686 355.143 396.9 355.143 396.9C364.032 398.677 370.526 407.485 371.96 410.067C373.287 412.438 387.32 423.401 392.748 428.201C395.285 430.049 406.271 438.476 408.239 447.116C410.574 457.427 404.329 467.193 399.053 471.792ZM383.219 448.349C384.962 449.214 387.462 450.909 388.636 453.362C388.944 454.014 389.086 454.642 389.086 455.341C389.265 458.21 385.91 462.405 382.935 463.507C380.778 464.396 377.922 464.835 375.16 464.823C374.283 464.823 373.418 464.787 372.576 464.704C373.359 463.389 374.307 461.789 375.362 460.07C377.732 456.195 380.672 451.679 383.219 448.349ZM358.473 431.294C360.82 427.312 363.284 423.401 365.785 419.513C365.904 419.337 366.022 419.158 366.141 418.98C366.034 419.798 365.75 424.242 367.243 428.651C368.108 430.761 369.483 432.894 371.652 434.885C373.596 436.675 375.219 438.109 376.57 439.235C370.006 447.721 360.701 463.59 360.701 463.59C356.718 463.827 354.727 462.512 352.477 457.712C352.156 457.024 351.907 456.266 351.717 455.472V455.46C350.532 450.518 351.61 444.153 351.635 443.975C351.8 443.644 356.221 435.11 358.473 431.294ZM424.073 342.867C429.525 341.539 434.917 340.094 440.215 338.434C440.369 338.387 440.524 338.339 440.677 338.28C435.261 346.494 392.618 407.507 389.679 411.466C389.442 411.276 382.117 405.006 381.858 404.781C392.725 389.682 423.457 343.803 424.073 342.867ZM557.858 26.8359C557.182 59.2864 548.293 81.888 548.293 81.888C535.589 89.4969 518.248 97.6155 498.444 100.555C457.07 106.67 436.743 100.484 398.425 88.2288C360.132 75.9739 302.662 49.5323 243.675 49.9234C184.676 50.3027 142.566 75.9147 104.842 105.047C105.423 104.869 114.679 101.977 118.021 100.875C118.021 100.875 109.215 111.21 106.537 116.958C106.537 116.958 124.089 103.838 148.184 105.236C148.184 105.236 139.805 107.334 136.309 112.573C136.309 112.573 146.087 110.463 147.829 114.315C149.583 118.155 143.645 126.89 132.824 131.773C122.003 136.667 104.534 140.508 93.3574 141.207C93.3574 141.207 104.546 144.703 111.87 151.684C111.87 151.684 103.337 152.905 94.0566 156.567C86.3292 159.625 72.4032 161.462 66.4654 160.762C66.4654 160.762 74.5958 168.371 84.2788 174.38C112.629 191.968 100.658 218.043 91.5322 226.588C85.5233 228.295 22.886 245.338 8.53333 346.458C8.53333 346.458 40.2727 302.179 88.3322 289.948C136.403 277.717 183.005 289.948 207.467 301.883C231.93 313.83 269.797 340.034 319.018 348.2C346.087 352.692 378.68 351.874 410.23 345.842C409.72 346.624 385.649 382.429 375.302 396.864C375.302 396.864 367.622 387.217 357.228 386.257C357.228 386.257 352.867 385.38 349.335 387.217V387.229C346.218 388.663 343.551 391.732 342.686 395.987C341.81 400.301 343.373 403.643 345.413 406.014C347.355 408.277 349.797 409.427 351.776 409.96C353.542 410.387 355.996 411.466 356.458 413.8C351.717 421.101 345.222 431.649 340.541 441.842C336.867 449.866 335.112 456.752 333.643 461.386C332.256 466.138 331.024 467.999 330.621 468.236L325.631 472.633C325.631 472.633 327.539 480.349 328.084 481.641C326.875 483.94 326.271 486.476 326.259 488.977V489.119C326.259 494.358 328.843 499.502 333.536 502.596C337.198 505.119 342.496 505.273 342.496 505.273C347.723 505.273 352.855 502.69 355.948 498.044C356.695 496.918 357.265 495.733 357.678 494.547C361.436 493.019 363.747 490.885 364.944 489.131C367.729 489.771 375.836 490.02 376.167 490.02C387.498 489.937 398.236 486.69 406.094 479.993C412.411 474.34 419.308 464.67 419.534 451.715C419.534 449.404 420.233 437.22 408.535 427.549C418.645 412.935 431.065 394.719 444.126 374.962C468.411 338.162 488.275 306.185 503.386 279.484C519.196 252.342 568.666 177.782 568.559 75.6895C568.512 45.9412 557.858 26.8359 557.858 26.8359ZM351.729 455.424C351.717 455.436 351.717 455.448 351.717 455.46C351.729 455.436 351.741 455.413 351.753 455.389C351.753 455.365 351.764 455.353 351.764 455.341C351.753 455.365 351.741 455.401 351.729 455.424Z" fill="black"/>
<path fill-rule="evenodd" clip-rule="evenodd" d="M433.07 249.426C405.477 268.946 362.277 274.908 362.277 274.908C361.791 276.78 358.935 278.748 358.935 278.748C358.935 278.748 363.356 280.383 374.212 288.549C385.056 296.715 382.117 296.312 385.578 298.647C389.039 300.97 391.006 300.318 391.006 300.318C392.049 302.416 392.181 305.533 392.181 305.533C393.625 306.896 400.701 313.652 394.123 320.644C387.533 327.637 379.925 321.142 379.925 321.142C377.234 321.711 374.615 320.822 374.615 320.822C374.615 320.822 360.535 329.687 346.551 320.028C335.172 312.182 335.859 302.878 336.524 299.666C332.683 301.871 328.558 303.589 324.328 304.917C312.914 308.496 298.348 309.977 283.877 305.166C274.372 301.966 266.502 296.419 260.291 290.268C254.069 284.105 249.471 277.302 246.472 271.174C246.022 270.238 245.595 269.314 245.216 268.413C244.22 270.783 239.456 279.78 224.7 279.139C207.716 278.404 201.826 262.842 201.826 262.842C201.826 262.842 199.207 261.965 197.405 259.903C197.405 259.903 187.426 260.496 186.383 250.943C185.352 241.39 195.082 240.276 197.062 240.063C197.062 240.063 199.029 237.645 201.127 236.602C201.127 236.602 202.312 238.321 206.472 238.546C210.632 238.771 208.048 237.313 221.631 237.349C235.213 237.373 239.717 238.748 239.717 238.748C239.717 238.748 238.626 235.453 239.373 233.663C239.373 233.663 208.522 202.848 198.294 170.635C188.066 138.421 191.195 126.474 203.616 92.5069C203.616 92.5069 212.825 150.38 241.091 186.741C257.222 207.494 275.367 223.672 287.989 233.746C288.274 233.746 288.57 233.758 288.855 233.758C286.164 230.759 284.114 227.239 283.094 223.21C280.57 213.254 276.434 203.998 274.537 196.626C272.641 189.242 276.86 174.487 276.86 174.487C271.195 165.408 273.957 150.463 273.957 150.463C273.957 150.463 277.026 149.005 279.361 146.172C281.684 143.328 280.878 134.937 282.774 122.587C284.671 110.237 292.706 97.461 310.508 90.1958C328.215 82.9661 354.81 92.4476 355.047 92.5306C355.284 92.6017 382.224 101.076 391.99 117.526C401.803 134.06 400.499 149.112 394.562 160.098C388.625 171.097 382.911 177.295 383.065 180.969C383.207 184.632 384.784 187.642 384.784 187.642C384.784 187.642 377.981 201.236 367.966 205.076C367.966 205.076 362.431 219.382 356.458 224.122C350.508 228.863 341.619 233.746 333.595 240.17C330.431 242.706 326.792 244.27 322.917 245.065C323.178 245.254 323.427 245.444 323.687 245.633C339.818 245.207 363.948 243.251 389.205 236.46C433.685 224.49 475.937 183.885 475.937 183.885C465.366 218.469 460.648 229.894 433.07 249.426ZM475.38 111.47C418.467 111.126 356.825 79.1024 302.141 66.8949C186.869 41.1763 131.011 101.36 130.987 101.384C130.999 101.372 149.666 94.581 159.076 100.697C169.304 107.345 160.285 124.495 156.99 127.92C147.532 137.769 133.938 145.046 118.922 145.046C118.922 145.046 134.815 148.863 139.959 153.592C139.959 153.592 125.215 155.523 117.18 158.309C109.156 161.106 93.4404 165.645 89.9559 165.645C89.9559 165.645 131.355 184.572 105.66 224.999C105.66 224.999 123.627 222.25 138.596 229.432C138.596 229.432 56.581 216.193 28.8357 306.718C39.2891 298.102 72.1307 274.931 123.26 274.682C184.984 274.41 211.462 288.608 235.983 303.459C273.364 326.12 301.631 332.828 323.107 336.834C384.821 348.354 446.793 327.601 473.649 315.086C551.599 195.654 560.571 128.193 561.899 80.0268C536.713 105.378 494.509 111.588 475.38 111.47Z" fill="#A71930"/>
<path fill-rule="evenodd" clip-rule="evenodd" d="M351.431 444.389C351.431 444.412 351.419 444.436 351.408 444.46C349.996 447.992 348.646 454.059 349.202 458.482C349.32 459.441 349.511 460.319 349.736 461.171V461.184C346.405 476.485 339.957 476.734 338.251 476.508C337.978 476.472 337.824 476.424 337.824 476.424C344.187 470.784 343.986 460.568 350.482 446.368C350.778 445.716 351.111 445.052 351.431 444.389ZM366.14 418.977C366.04 419.796 365.746 424.238 367.242 428.648C367.23 428.659 359.014 439.4 351.716 455.47C351.832 455.167 351.769 455.315 351.725 455.427C351.72 455.438 351.717 455.448 351.713 455.458C350.532 450.517 351.609 444.152 351.633 443.974C351.798 443.642 356.218 435.109 358.471 431.29C360.818 427.309 363.283 423.398 365.785 419.51C365.904 419.333 366.021 419.155 366.14 418.977ZM440.676 338.285C435.26 346.498 392.614 407.503 389.676 411.462C389.438 411.272 382.113 405.002 381.854 404.777C392.723 389.678 423.454 343.807 424.07 342.871C429.523 341.544 434.917 340.098 440.214 338.439C440.369 338.391 440.524 338.344 440.676 338.285ZM370.058 293.856C370.058 293.856 372.445 295.771 372.644 295.921C373.552 296.608 375.498 298.409 376.394 299.289C377.132 300.018 377.871 300.747 378.601 301.484C379.137 302.028 381.359 304.124 382.111 304.684C382.681 305.109 383.26 305.483 383.859 305.777C384.408 306.046 384.977 306.258 385.579 306.404L385.523 306.444C384.287 307.371 382.834 307.979 381.271 307.979C380.734 307.979 380.152 307.9 379.632 307.774C378.903 307.596 378.205 307.331 377.537 306.987C377.117 306.768 376.704 306.533 376.308 306.268C376.065 306.105 375.82 305.929 375.57 305.74C375.565 305.733 375.556 305.714 375.551 305.71C375.621 305.388 375.677 305.046 375.699 304.662C375.783 303.27 375.495 301.673 374.975 300.385C374.106 298.107 370.144 293.929 370.058 293.856ZM355.721 284.943C355.917 285.054 356.104 285.151 356.308 285.266C357.273 285.809 358.241 286.346 359.199 286.897C361.219 288.062 363.212 289.271 365.174 290.531C366.574 291.43 367.964 292.354 369.316 293.324C369.489 293.452 369.661 293.579 369.831 293.706C371.153 295.177 372.5 297.067 373.125 298.822C373.861 300.846 373.912 302.716 373.649 304.086C369.353 299.952 360.319 293.312 357.777 291.996C358.025 288.959 356.769 286.466 355.721 284.943ZM283.571 249.523C284.942 249.7 286.281 249.901 287.592 250.122C286.847 251.143 286.134 252.196 285.458 253.276C286.911 253.54 288.383 253.841 289.871 254.176C290.478 253.066 291.11 251.977 291.762 250.916C293.012 251.185 294.244 251.474 295.454 251.783C294.898 252.882 294.354 254.007 293.822 255.149C295.207 255.519 296.601 255.922 298.003 256.359C298.444 255.185 298.887 254.026 299.329 252.888C300.505 253.253 301.671 253.643 302.829 254.06C302.494 255.235 302.149 256.425 301.792 257.628C303.174 258.119 304.527 258.636 305.857 259.171C306.12 257.944 306.363 256.726 306.581 255.52C307.74 256.002 308.891 256.511 310.054 257.055C309.934 258.283 309.783 259.52 309.6 260.76C310.987 261.38 312.34 262.019 313.658 262.673C313.764 261.425 313.829 260.177 313.85 258.935C315.033 259.549 316.22 260.198 317.421 260.883C317.477 262.136 317.48 263.388 317.428 264.636C318.154 265.031 318.863 265.43 319.563 265.831C319.57 266.027 319.572 266.223 319.577 266.419C319.602 267.52 319.588 268.629 319.538 269.743C319.524 270.063 319.507 270.385 319.489 270.706C318.65 270.281 317.802 269.856 316.938 269.437C316.619 271.368 316.148 273.273 315.505 275.142C314.229 274.402 312.926 273.69 311.614 273.008C312.191 271.217 312.644 269.405 312.988 267.581C311.584 266.943 310.149 266.317 308.685 265.706C308.299 267.437 307.835 269.168 307.294 270.891C305.95 270.27 304.591 269.674 303.226 269.114C303.759 267.439 304.243 265.764 304.683 264.098C303.25 263.545 301.793 263.008 300.313 262.489C299.808 264.107 299.285 265.741 298.744 267.385C297.351 266.885 295.957 266.415 294.547 265.977C295.105 264.339 295.673 262.722 296.246 261.127C294.753 260.652 293.267 260.205 291.789 259.785C291.136 261.376 290.511 262.999 289.928 264.655C288.505 264.274 287.06 263.93 285.617 263.613C286.217 261.922 286.891 260.273 287.621 258.665C286.081 258.275 284.555 257.912 283.047 257.579C282.229 259.231 281.505 260.938 280.891 262.701C279.433 262.449 277.964 262.236 276.495 262.053C277.102 260.196 277.87 258.41 278.767 256.696C277.819 256.515 276.879 256.344 275.951 256.183C276.153 255.878 276.358 255.576 276.565 255.276C277.206 254.348 277.872 253.449 278.566 252.58C278.646 252.478 278.725 252.374 278.808 252.274C279.612 252.369 280.427 252.476 281.249 252.593C281.977 251.538 282.752 250.514 283.571 249.523ZM462.26 204.674C462.038 205.191 453.251 225.375 416.702 241.23C415.077 241.936 413.419 242.637 411.682 243.322C404.252 246.117 388.607 251.404 367.917 255.14C359.553 256.65 351.091 257.68 342.625 258.391C341.947 258.447 337.04 258.807 337.04 258.807C335.5 256.834 333.812 254.889 331.966 252.978C343.184 252.483 354.701 251.37 366.006 249.338C412.646 240.957 441.29 221.451 455.024 210.605C456.279 209.612 457.385 208.712 458.395 207.88C460.751 205.971 462.216 204.762 462.26 204.674ZM220.657 244.137C221.073 244.134 221.903 244.151 221.84 244.158C219.667 244.278 216.227 245.075 214.037 246.391C214.025 246.396 214.013 246.407 214 246.416C212.747 247.146 211.411 248.372 210.729 249.661C210.684 249.745 210.435 250.214 210.368 250.29C203.238 250.29 201.962 244.892 201.936 244.794C202.525 245.046 203.124 245.219 203.74 245.335L204.231 245.414C204.725 245.48 205.233 245.51 205.756 245.511C207.946 245.532 210.219 245.118 212.587 244.788C215.26 244.415 217.958 244.15 220.657 244.137ZM222.166 244.154C223.1 244.173 224.033 244.202 224.966 244.248C226.438 244.319 227.908 244.425 229.377 244.556C232.333 244.82 235.773 245.213 238.706 245.677C236.945 246.262 234.519 247.414 232.885 249.999C232.863 250.021 232.839 250.045 232.821 250.066C229.987 249.577 218.778 249.43 212.861 250.129C213.476 248.88 214.644 247.418 216.449 246.246C218.005 245.225 220.228 244.529 222.166 244.154ZM202.142 117.382C204.694 128.119 212.276 168.098 251.965 211.093C259.817 219.6 268.405 227.488 277.121 234.697C274.49 235.123 271.948 235.672 269.526 236.333C263.427 230.958 249.321 217.06 248.584 216.336L248.554 216.307C236.746 204.42 227.931 192.998 221.299 182.379C219.917 180.117 218.843 178.254 217.986 176.86L216.673 174.5C198.366 140.969 202.142 117.382 202.142 117.382ZM281.717 190.193C283.573 188.639 287.752 189.363 287.752 189.363C287.752 189.363 289.627 191.334 290.069 192.808C290.499 194.292 290.055 202.378 293.249 207.941V207.809C293.249 207.809 293.407 207.221 294.085 206.212C294.769 205.201 296.097 203.769 296.894 204.334C297.69 204.898 297.583 206.488 297.564 208.191C297.551 209.893 296.977 211.712 296.546 212.228C296.546 212.228 297.209 213.585 299.012 214.444C299.012 214.444 298.936 213.796 299.067 212.871C299.352 211.239 300.172 209.893 300.697 208.409C300.857 207.89 301.364 207.355 302.12 207.761C302.135 207.761 303.625 208.538 304.947 209.198C305.1 209.31 306.018 210.01 305.528 211.328C305.505 211.377 305.5 211.404 305.486 211.441C305.467 211.501 305.44 211.552 305.421 211.613C304.926 212.856 304.505 213.992 303.871 215.304C303.871 215.304 303.546 216.516 302.977 216.567C302.977 216.567 304.088 217.296 304.588 217.507C305.352 217.83 306.304 218.24 306.773 218.356C306.773 218.356 306.266 217.572 306.394 216.451C306.699 214.853 307.172 212.654 307.575 210.814C307.713 210.381 308.102 209.65 308.991 209.93C309.991 210.342 311.009 210.733 312.028 211.105C312.884 211.464 312.877 212.309 312.843 212.594C312.376 214.627 311.852 217.062 311.296 219.007C311.169 219.303 310.991 219.719 310.843 219.872C310.843 219.872 311.759 220.516 312.376 220.678C312.986 220.838 314.149 221.074 314.149 221.074C314.149 221.074 313.926 220.287 314.208 219.449C314.213 219.432 314.213 219.418 314.213 219.398C314.667 218.099 315.123 216.795 315.584 215.485C315.694 215.149 316.019 214.408 316.204 213.927C316.303 213.684 316.699 212.939 317.606 213.131C318.802 213.49 320.004 213.821 321.211 214.122C322.105 214.386 321.593 215.756 321.593 215.756C321.593 215.756 320.298 218.939 319.46 220.99C319.45 220.986 319.168 221.708 318.705 222.087C318.705 222.087 319.537 222.456 320.161 222.58C321.477 222.84 322.259 222.815 322.589 222.838C322.589 222.838 322.183 221.856 322.66 220.683C322.688 220.634 322.701 220.574 322.72 220.52C323.121 219.592 323.538 218.664 323.922 217.733C324.034 217.47 324.134 217.205 324.238 216.939C324.373 216.536 325.012 215.877 326.065 216.064C326.1 216.067 326.123 216.062 326.156 216.067C326.995 216.224 327.834 216.365 328.674 216.494C328.683 216.504 330.186 216.812 329.637 218.22C328.877 219.907 328.072 221.599 327.169 223.301C328.107 223.374 329.054 223.428 330.001 223.454C330.001 223.454 329.882 223.37 330.271 222.317C330.66 221.266 331.799 219.025 331.912 218.692C332.026 218.363 332.461 217.062 333.008 216.997C333.559 216.939 335.704 218.657 335.146 221.972C341.042 219.454 345.544 212.754 346.783 211.841C347.866 211.043 350.03 210.61 350.574 210.51C351.485 211.034 354.128 212.691 354.577 214.643C354.577 214.643 350.135 218.731 344.665 221.14C339.188 223.551 330.905 228.773 327.641 230.949C326.405 231.771 324.724 232.481 322.6 232.873C321.275 230.509 316.667 227.592 310.762 225.608C304.588 223.534 298.919 223.134 296.607 224.419C294.921 222.692 293.893 220.967 293.365 219.447C292.081 215.744 288.615 206.578 285.708 201.357C282.796 196.133 281.717 190.193 281.717 190.193ZM299.604 122.22C299.723 116.068 306.229 90.7528 339.972 96.501C346.194 97.7929 351.184 99.2981 352.487 99.7129C352.618 99.7603 352.736 99.7958 352.867 99.8432C353.507 100.045 354.384 100.329 355.44 100.72C355.747 100.839 356.067 100.957 356.398 101.088C356.837 101.254 357.299 101.431 357.785 101.633C358.425 101.894 359.101 102.178 359.812 102.486C360.511 102.806 361.246 103.138 362.006 103.505C363.652 104.3 365.406 105.236 367.172 106.303C367.35 106.397 367.527 106.504 367.693 106.611C367.753 106.634 367.8 106.67 367.847 106.705C381.584 115.061 385.353 125.266 385.353 133.704C385.353 141.123 382.437 147.192 380.837 149.432C378.585 152.56 376.559 154.706 375.516 156.282C374.271 154.054 373.311 151.683 372.944 149.313L372.944 149.322L372.946 149.349C372.993 150.049 373.795 160.813 379.274 166.34L379.557 166.617C379.557 166.617 376.369 173.74 375.705 178.066C375.053 182.404 376.736 186.967 376.736 186.967C376.736 186.967 376.31 187.654 375.693 188.602C372.329 192.572 366.437 196.01 363.273 195.429C359.681 194.765 351.03 191.826 346.016 192.857C341.904 193.71 339.426 196.033 338.064 198.38C338.064 198.38 338.075 198.368 338.087 198.368C337.72 198.807 337.376 199.293 337.139 199.861C337.139 199.861 336.072 201.722 335.776 204.211C335.042 203.891 334.413 203.642 334.413 203.642C334.425 203.773 334.425 203.95 334.389 204.14C334.342 204.507 334.176 205.1 334.154 205.183C334.141 205.313 334.129 205.408 334.106 205.444C334.022 205.776 333.927 206.107 333.844 206.439C333.514 207.648 333.217 208.632 332.837 209.817C332.825 209.829 332.801 209.864 332.789 209.9C332.41 211.026 331.272 210.659 331.272 210.659C331.261 210.659 331.143 210.611 331.143 210.611C330.312 210.196 329.4 209.758 328.452 209.307C328.452 209.307 327.385 208.75 327.551 207.648C327.539 207.624 327.551 207.601 327.563 207.565C327.575 207.518 327.563 207.482 327.588 207.447C327.622 207.352 327.646 207.233 327.681 207.15C327.978 206.084 328.606 203.796 328.689 203.263C328.795 202.635 329.21 201.485 329.471 201.035C329.293 200.857 328.843 200.371 328.452 200.181C328.12 200.015 327.764 199.944 327.278 199.98C327.101 200.134 326.804 200.596 326.792 200.845C326.781 200.987 326.402 202.173 325.986 203.476C325.561 204.792 325.074 206.238 324.861 206.89C324.625 207.601 324.114 207.755 323.699 207.755C323.441 207.755 323.223 207.695 323.131 207.665L323.083 207.648C322.254 207.316 321.127 206.913 320.238 206.581C320.18 206.57 320.132 206.534 320.072 206.522C319.006 206.119 319.077 205.207 319.148 204.839C319.61 203.464 320.203 201.722 320.653 200.359C320.748 200.039 320.866 199.719 320.961 199.387C320.961 199.376 320.973 199.364 320.985 199.34C321.021 199.198 321.423 198.178 322.04 197.87C321.637 197.562 320.831 197.242 320.228 197.029C319.503 196.792 318.212 196.567 318.141 196.555C318.354 197.017 318.402 197.823 318.295 198.226C318.14 198.759 316.718 203.725 316.659 203.915C316.588 204.104 316.339 204.697 315.948 204.839C315.569 204.981 314.502 204.638 314.502 204.638C314.431 204.626 314.383 204.614 314.324 204.602C313.423 204.33 312.143 204.128 311.291 203.891C311.291 203.891 309.892 203.488 310.33 202.208C310.33 202.208 311.243 198.866 311.693 197.278C311.693 197.242 311.705 197.183 311.717 197.135C311.752 197.017 311.954 196.353 312.025 195.346C312.096 194.338 311.42 194.101 310.923 194.101C310.45 194.101 309.927 194.955 309.81 195.453C309.678 195.986 309.382 196.875 309.382 196.875L309.346 196.958C309.311 197.041 309.275 197.124 309.252 197.195C308.766 198.487 308.386 199.553 307.948 200.845C307.535 201.937 306.4 201.853 306.165 201.823L306.123 201.817C305.103 201.604 304.12 201.402 303.207 201.236C303.195 201.236 303.077 201.201 303.077 201.189C303.077 201.189 301.939 200.798 302.318 199.672C302.318 199.636 302.318 199.601 302.342 199.565C302.746 198.392 303.089 197.444 303.563 196.27C303.693 195.962 304.167 194.836 304.44 194.398C304.724 193.959 305.103 193.722 305.103 193.722C305.116 193.461 304.724 192.975 304.013 192.727C303.931 192.703 303.835 192.679 303.729 192.655C304.143 191.624 304.665 190.202 304.914 189.005C305.696 186.101 305.601 182.012 302.235 178.161C298.857 174.309 290.17 171.441 286.923 169.805C283.663 168.169 280.736 160.312 281.127 154.883C281.127 154.883 285.216 152.252 287.302 148.4C289.411 144.56 291.142 136.963 291.142 136.963C299.023 136.075 306.395 127.683 306.847 127.162C304.89 129.046 302.33 130.457 299.675 131.547C299.817 129.746 299.521 126.711 299.604 122.22Z" fill="white"/>
<path fill-rule="evenodd" clip-rule="evenodd" d="M353.445 397.833C353.661 396.683 355.142 396.896 355.142 396.896C364.031 398.674 370.526 407.48 371.959 410.064C373.287 412.435 387.32 423.398 392.748 428.198C395.286 430.047 406.272 438.475 408.239 447.115C410.575 457.426 404.329 467.192 399.053 471.792C393.767 476.402 384.783 479.34 375.396 479.164C367.028 478.997 361.15 477.647 355.83 474.755C355.803 474.814 355.792 474.862 355.781 474.933C355.366 475.287 354.523 477.219 348.374 478.133C344.248 478.808 341.855 477.979 341.605 477.896C348.859 485.233 355.424 480.61 355.424 480.61C355.735 481.891 356.183 482.802 356.183 482.802C356.183 482.802 354.003 486.004 347.366 484.901C346.559 484.77 345.872 484.546 345.197 484.297C345.326 484.368 345.445 484.415 345.575 484.498C348.125 486.17 348.811 489.595 347.141 492.13C345.445 494.679 342.033 495.367 339.485 493.695C336.947 492.013 336.248 488.587 337.931 486.051C339.306 483.965 341.817 483.146 344.082 483.823C339.104 481.429 337.824 476.425 337.824 476.425C337.824 476.425 337.978 476.472 338.251 476.509C339.958 476.734 346.405 476.485 349.737 461.185C349.831 461.576 352.012 470.404 357.974 468.97C357.914 469.102 357.049 471.044 357.037 471.069C359.643 472.693 365.618 475.525 375.787 475.656C390.07 475.845 397.88 466.447 400.026 459.454C401.709 454.013 399.102 447.968 393.72 442.671C395.296 440.845 396.258 438.297 395.202 434.788C395.688 436.413 392.642 439.305 389.429 439.02C389.132 438.995 388.85 438.948 388.554 438.866C383.705 437.514 378.181 431.612 373.501 428.115C368.843 424.619 367.48 419.203 367.575 415.363C367.644 411.522 366.341 406.97 362.679 403.521C359.017 400.073 355.735 399.741 354.691 399.468C353.635 399.184 353.338 398.532 353.445 397.833ZM383.216 448.348C384.958 449.213 387.459 450.908 388.632 453.361C388.94 454.013 389.084 454.641 389.084 455.339C389.263 458.208 385.907 462.404 382.931 463.508C380.774 464.396 377.917 464.835 375.155 464.822C374.278 464.822 373.415 464.788 372.573 464.705C373.355 463.388 374.304 461.789 375.357 460.07C377.727 456.194 380.669 451.678 383.216 448.348ZM367.242 428.649C368.107 430.758 369.482 432.892 371.651 434.883C373.596 436.672 375.218 438.107 376.57 439.234C370.004 447.72 360.699 463.589 360.699 463.589C356.718 463.827 354.725 462.512 352.474 457.711C352.153 457.022 351.905 456.265 351.716 455.471C359.014 439.401 367.23 428.659 367.242 428.649ZM460.945 330.901C453.218 343.121 411.058 406.639 401.088 421.063C401.02 421.004 400.911 420.933 400.853 420.886C399.394 419.558 397.51 417.957 395.424 416.216C398.825 411.367 437.797 353.421 449.223 335.464C453.218 334.053 457.105 332.513 460.945 330.901ZM355.329 270.785C355.329 270.785 356.022 270.273 356.435 270.796C356.678 271.118 356.707 271.536 356.248 271.958C355.799 272.384 354.227 273.433 353.297 276.164C352.364 278.914 352.942 281.571 354.016 283.498C355.014 285.287 355.438 287.443 355.095 289.468C354.977 290.188 354.757 290.908 354.45 291.568C353.688 293.197 353.091 294.899 352.401 296.559C351.646 298.369 350.808 300.054 349.729 301.08C348.532 302.216 346.6 301.865 345.416 300.909C345.368 300.869 345.309 300.844 345.262 300.802C345.761 302.941 347.102 303.797 348.491 304.105C347.84 308.373 349.355 311.48 354.494 314C359.751 316.576 368.871 316.568 375.682 310.067C375 309.3 374.183 308.738 373.389 308.102C373.378 308.092 373.366 308.08 373.355 308.077C373.885 307.924 374.567 307.634 375.002 307.092C375.245 306.79 375.417 306.292 375.542 305.72L375.57 305.741C375.82 305.929 376.066 306.106 376.308 306.268C376.704 306.534 377.117 306.768 377.538 306.988C378.205 307.331 378.903 307.597 379.632 307.775C380.152 307.9 380.734 307.98 381.271 307.98C382.834 307.98 384.287 307.372 385.523 306.445C385.538 306.434 385.554 306.427 385.566 306.416C385.579 306.421 385.683 307.174 385.69 307.34C385.741 308.313 385.635 309.861 384.721 311.371C385.662 310.652 386.978 310.499 388.093 311.109C389.607 311.926 390.172 313.824 389.348 315.334C388.53 316.847 386.635 317.414 385.12 316.59C383.658 315.796 383.116 314.014 383.818 312.532C383.575 312.782 383.343 313.037 383.038 313.275C381.244 314.652 379.843 314.866 378.97 314.812C378.351 314.773 377.991 314.601 377.991 314.601C377.991 314.601 378.028 314.208 377.853 313.554C377.829 313.465 377.815 313.387 377.783 313.287C377.996 313.306 378.392 313.312 378.885 313.243C380.403 313.027 382.885 312.065 384.075 308.157C384.075 308.157 383.783 308.537 383.283 309.027C382.191 310.106 379.94 311.72 376.843 311.49C375.357 312.764 366.156 320.077 355.133 316.175C343.095 311.912 343.002 304.481 343.303 302.054C343.5 300.468 344.347 297.857 344.389 297.73C345.368 294.687 350.334 283.698 350.359 281.996C350.387 280.294 351.299 274.081 355.329 270.785ZM357.777 291.996C360.319 293.313 369.353 299.952 373.649 304.086C373.514 304.775 373.324 305.372 373.052 305.722C372.625 306.256 372.005 306.55 371.473 306.729C367.694 304.142 361.953 300.749 355.901 298.024C356.274 297.089 356.704 295.928 357.215 294.49C357.539 293.565 357.777 291.996 357.777 291.996ZM246.666 233.963C247.315 233.793 247.562 234.622 247.562 234.622C248.784 239.681 245.766 245.186 244.765 246.561C243.76 247.931 241.085 259.694 240.029 262.717C240.029 262.717 238.784 265.819 238.288 266.819C237.196 269.005 232.506 274.807 220.334 270.94C209.185 267.402 206.203 256.033 205.786 254.131C201.985 251.684 202.091 247.088 202.091 247.088C200.221 252.18 203.296 254.511 204.017 254.978C203.934 254.924 203.296 255.591 203.221 255.678C203.209 255.692 203.067 255.895 203.055 255.893C203.055 255.893 201.962 255.687 200.957 254.267C200.539 253.674 200.131 252.894 199.832 251.797C199.723 251.401 199.654 251.018 199.613 250.651C199.608 250.694 199.607 250.734 199.601 250.775C199.342 252.496 197.731 253.677 196.013 253.419C194.295 253.16 193.105 251.548 193.365 249.827C193.623 248.104 195.235 246.921 196.952 247.185C198.308 247.388 199.332 248.433 199.578 249.713C199.674 246.612 201.936 244.795 201.936 244.795C201.962 244.892 203.238 250.291 210.368 250.291C210.12 250.825 209.958 251.324 209.967 251.712C209.991 252.407 210.356 253.049 210.695 253.491L210.345 253.49C209.557 253.492 207.635 253.509 207.633 253.674C209.142 262.972 216.414 268.479 222.158 269.593C227.769 270.683 230.852 269.124 232.902 265.342C234.201 265.935 235.797 266.039 237.488 264.639C235.012 264.744 233.939 263.244 233.751 262.159C233.26 259.311 235.034 254.997 235.724 251.721C236.423 248.444 238.912 246.438 240.933 245.552C242.96 244.666 245.015 242.891 245.933 240.139C246.847 237.399 246.22 235.613 246.118 235C246.011 234.387 246.279 234.071 246.666 233.963ZM462.26 204.675C462.264 204.673 462.043 205.321 462.043 205.321C459.32 213.17 454.279 220.472 448.759 226.605C444.747 231.063 440.374 235.124 435.707 238.89C428.549 244.666 420.411 249.35 412.112 253.268C403.868 257.16 395.225 260.251 386.445 262.686C372.711 266.495 358.18 268.492 343.82 269.297C342.725 267.17 341.419 264.996 339.942 262.804C386.093 259.5 416.471 241.416 416.471 241.416L416.702 241.231C453.251 225.376 462.038 205.192 462.26 204.675ZM212.861 250.129C218.778 249.43 229.987 249.577 232.821 250.067C232.839 250.045 232.863 250.022 232.885 250C232.445 250.697 232.049 251.471 231.758 252.392C231.291 253.839 230.939 255.029 230.668 256C223.848 254.128 213 253.55 213 253.55C212.689 253.094 212.371 252.48 212.352 251.798C212.342 251.353 212.553 250.761 212.861 250.129ZM202.142 117.382C202.142 117.382 198.366 140.97 216.673 174.5L216.617 174.399L216.569 174.312C216.569 174.312 229.616 206.584 263.835 236.852L264.878 237.769C262.377 238.64 260.026 239.588 257.874 240.615C257.53 240.778 254.079 237.341 253.655 236.965C250.207 233.912 246.845 230.762 243.589 227.505C236.001 219.917 229.004 211.72 222.87 202.911C217.889 195.761 213.416 188.23 209.799 180.298C206.263 172.548 203.381 164.517 201.578 156.182C199.881 148.336 199.128 140.267 199.553 132.246C199.803 127.505 200.38 122.576 201.914 118.059L202.142 117.382ZM284.518 175.55C284.518 175.55 287.736 177.111 288.738 177.697C288.738 177.697 288.731 177.731 288.722 177.801C288.601 178.702 287.752 185.121 287.708 188.209C287.704 188.683 287.712 189.079 287.752 189.364C287.752 189.364 283.573 188.639 281.717 190.193C281.717 190.193 282.796 196.133 285.708 201.358C288.615 206.578 292.081 215.745 293.365 219.447C293.893 220.968 294.921 222.692 296.607 224.419C298.919 223.134 304.588 223.535 310.762 225.609C316.667 227.593 321.275 230.51 322.6 232.873C324.724 232.482 326.405 231.772 327.641 230.949C330.905 228.773 339.188 223.552 344.665 221.141C350.135 218.731 354.577 214.644 354.577 214.644C354.128 212.692 351.485 211.035 350.574 210.511C350.655 210.497 350.701 210.491 350.701 210.491C352.221 208.954 356.391 201.596 356.907 200.684C356.944 200.622 356.96 200.59 356.96 200.59C358.117 200.731 361.614 201.42 361.614 201.42C361.614 201.42 357.971 209.893 355.813 213.541C353.662 217.175 351.91 218.413 349.812 219.894C347.718 221.371 338.47 227.482 336.021 229.207C333.581 230.934 327.086 236.76 321.415 237.767C318.603 238.264 316.162 238.325 313.848 238.065C311.533 237.805 309.338 237.225 307.023 236.45C307.009 236.448 306.995 236.44 306.982 236.433C306.963 236.429 306.945 236.426 306.936 236.423C302.305 234.864 298.551 232.977 294.662 228.788C291.233 225.095 289.532 218.075 288.552 214.467C288.411 213.951 288.287 213.505 288.171 213.148C287.264 210.299 283.578 199.847 282.796 197.404C282.009 194.958 281.361 192.917 281.842 188.716C282.291 184.771 284.25 176.652 284.495 175.652C284.508 175.584 284.518 175.55 284.518 175.55ZM337.144 199.867C337.144 199.867 339.242 198.385 342.998 198.564C342.998 198.564 342.975 198.587 342.975 198.599L342.998 198.587C342.892 198.871 342.04 201.206 341.812 203.256C341.683 204.524 341.067 207.726 341.067 207.749C339.965 211.589 336.267 213.71 335.934 213.498C335.543 213.249 335.034 212.312 336.692 207.002C336.692 206.742 337.547 206.434 337.736 206.446C338.079 206.386 338.423 206.339 338.766 206.28C338.766 206.28 338.672 206.078 338.316 205.569C338.162 205.319 337.76 205.164 337.511 205.022C337.226 204.868 335.781 204.228 335.781 204.216C336.052 201.936 336.971 200.181 337.123 199.905L337.144 199.867ZM281.128 154.886C280.737 160.315 283.665 168.174 286.924 169.809C290.171 171.443 298.859 174.312 302.239 178.165C305.605 182.017 305.7 186.107 304.917 189.01C304.667 190.206 304.146 191.63 303.732 192.661C303.505 192.601 303.269 192.566 303.033 192.542C302.345 192.459 301.254 192.387 301.028 193.241C301.017 193.276 301.005 193.301 301.005 193.301C301.112 193.667 301.195 194.119 301.147 194.367C301.087 194.64 300.993 194.889 300.946 195.009C299.085 200.235 298.101 200.684 297.639 200.649C297.248 200.626 295.577 196.692 297.011 192.968C297.022 192.945 297.033 192.921 297.033 192.898C297.768 191.237 298.468 190.028 299.121 188.938C300.27 187.042 301.005 184.471 301.005 184.471L301.028 184.518V184.482C301.989 185.135 302.805 185.929 303.565 186.793C303.588 186.818 303.599 186.83 303.599 186.841C303.944 187.41 304.476 187.848 304.785 188.453C304.869 188.63 304.928 188.797 304.928 188.926C305.188 187.931 305.153 186.723 304.773 185.751C304.75 185.716 304.75 185.679 304.738 185.644C303.329 181.791 299.678 179.528 296.287 177.608C294.023 176.328 291.665 175.212 289.282 174.171C282.302 171.101 282.195 169.062 281.259 165.839C281.152 165.435 281.057 164.96 280.986 164.439C280.856 163.409 280.82 162.175 280.82 160.955C280.82 157.909 281.128 154.886 281.128 154.886ZM375.687 188.607C375.665 188.655 375.639 188.69 375.604 188.737C374.206 191.227 372.323 193.893 370.021 195.624C367.343 197.639 366.028 199.191 358.597 197.436C355.681 196.738 352.729 196.11 349.755 195.742C345.95 195.256 340.913 195.126 338.139 198.325C338.126 198.35 338.115 198.35 338.092 198.373C338.067 198.373 338.056 198.397 338.045 198.409C339.419 196.05 341.896 193.716 346.021 192.862C351.035 191.83 359.686 194.769 363.279 195.434C366.443 196.015 372.323 192.577 375.687 188.607ZM329.799 169.44C332.479 170.513 333.968 173.203 333.16 175.617C332.651 177.157 332.769 178.39 332.887 180.025L332.901 180.073V180.098C332.959 181.412 333.255 182.111 333.574 183.012C333.896 183.855 334.288 185.194 333.79 186.568L333.16 188.44C332.32 190.966 329.285 192.21 326.394 191.25C326.394 191.237 328.336 190.741 328.966 188.88C328.977 188.856 328.989 188.831 328.989 188.809C330.186 188.63 331.23 187.92 331.607 186.782L332.272 184.827C332.935 182.824 331.454 181.922 331.371 178.686C331.252 177.015 331.135 175.39 331.786 173.459C332.308 171.894 331.434 170.16 329.799 169.44ZM322.706 172.096C323.526 169.702 326.334 168.434 329.156 169.228C327.412 168.789 325.646 169.655 325.125 171.219C324.473 173.163 323.371 174.372 322.28 175.628C320.254 178.165 318.522 177.987 317.86 179.991L317.196 181.945C316.815 183.073 317.218 184.258 318.049 185.123C318.037 185.147 318.024 185.181 318.024 185.206C317.397 187.078 318.653 188.642 318.653 188.642C315.774 187.671 314.113 184.85 314.954 182.337L315.584 180.464C316.021 179.064 317.122 178.224 317.907 177.75C318.712 177.228 319.365 176.849 320.206 175.842L320.241 175.793C321.345 174.562 322.197 173.637 322.706 172.096ZM373.413 166.099L373.519 166.11C373.519 166.11 372.037 176.114 369.596 180.037C367.153 183.973 364.82 187.6 358.75 187.268C358.75 187.268 362.27 186.249 361.145 183.486C361.062 183.286 361.003 183.084 360.956 182.871C362.579 181.958 364.037 181.271 365.364 179.884C367.13 178.046 368.528 175.781 369.535 173.459C369.975 172.427 370.343 171.374 370.64 170.295C370.64 170.295 371.422 166.703 372.938 166.171C373.105 166.147 373.258 166.122 373.413 166.099ZM325.848 156.32C327.14 159.129 337.32 162.543 340.107 161.109C340.094 161.168 339.834 164.83 339.845 167.011C339.857 169.205 340.605 177.679 344.315 179.896C344.327 179.896 343.4 180.997 344.586 184.447C344.301 184.353 339.655 182.634 337.985 178.876C336.255 175.011 337.938 164.629 331.728 162.46C325.467 160.434 320.55 169.738 316.826 171.776C313.119 173.814 308.187 172.238 308.187 172.238C311.048 170.332 311.16 168.954 311.162 168.784L311.162 168.766C315.451 169.24 321.144 162.934 322.482 161.18C323.81 159.439 325.848 156.32 325.848 156.32ZM296.18 140.153L296.252 140.201L296.276 140.213C296.382 140.319 296.501 140.438 296.608 140.556C297.497 141.895 295.956 145.227 295.956 145.227C295.565 146.199 295.256 147.194 294.995 148.202C294.106 151.651 293.774 155.929 295.196 159.366C295.256 159.485 296.158 161.049 296.11 161.097C296.027 161.168 295.943 161.239 295.848 161.298C295.753 161.369 295.66 161.43 295.565 161.488C293.099 162.934 295.032 165.707 295.186 165.92C290.159 162.543 290.468 158.24 290.906 153.63C291.333 149.03 296.18 140.153 296.18 140.153ZM362.006 103.506L363.379 104.087C398.71 121.082 390.923 147.927 388.896 153.059C387.059 157.669 383.409 162.22 381.81 164.816C379.936 162.765 377.413 159.708 375.516 156.283C376.559 154.706 378.585 152.561 380.837 149.432C382.437 147.192 385.353 141.124 385.353 133.705C385.353 125.266 381.584 115.062 367.847 106.706C367.8 106.67 367.753 106.635 367.693 106.611C367.527 106.505 367.35 106.398 367.172 106.303C365.406 105.236 363.652 104.3 362.006 103.506ZM307.204 133.931C313.107 132.461 322.695 141.398 328.336 146.104C333.137 150.347 335.236 150.75 335.662 150.869C336.1 151.034 338.008 151.981 344.374 151.484C351.723 151.141 364.76 149.79 368.588 154.531C368.588 154.661 359.32 153.618 353.072 154.626C346.861 155.941 338.045 156.784 334.132 155.42C330.197 154.15 323.667 148.154 319.519 143.366C315.169 138.826 307.204 134.085 307.204 133.931ZM327.266 95.1504C330.099 95.1504 333.133 95.3519 336.392 95.8141C337.566 96.0156 338.704 96.2408 339.806 96.4659L339.972 96.5015C306.229 90.7533 299.723 116.069 299.604 122.22C299.521 126.712 299.817 129.746 299.675 131.548C294.769 133.598 289.518 134.345 289.518 134.345C289.803 131.5 289.791 125.219 291.012 120.265C292.161 115.607 299.936 95.2689 327.266 95.1504Z" fill="#B1BABF"/>
<path fill-rule="evenodd" clip-rule="evenodd" d="M310.508 90.1966C328.215 82.9669 354.81 92.4485 355.047 92.5314C355.284 92.6025 382.224 101.077 391.99 117.527C401.803 134.06 400.499 149.112 394.562 160.099C388.625 171.098 382.911 177.296 383.065 180.97C383.208 184.633 384.784 187.643 384.784 187.643C384.784 187.643 377.981 201.237 367.966 205.077C367.966 205.077 362.431 219.382 356.458 224.123C350.508 228.864 341.619 233.747 333.595 240.171C330.431 242.707 326.792 244.271 322.917 245.065C323.178 245.255 323.427 245.445 323.687 245.634C339.818 245.208 363.948 243.252 389.205 236.461C433.685 224.49 475.937 183.886 475.937 183.886C465.366 218.47 460.648 229.895 433.07 249.427C405.477 268.947 362.277 274.908 362.277 274.908C361.791 276.781 358.935 278.748 358.935 278.748C358.935 278.748 363.356 280.384 374.212 288.55C385.056 296.716 382.117 296.313 385.578 298.648C388.829 300.83 390.762 300.387 390.985 300.325L391.006 300.319C392.049 302.417 392.181 305.534 392.181 305.534C393.625 306.897 400.701 313.652 394.123 320.645C387.533 327.638 379.925 321.143 379.925 321.143C377.234 321.712 374.615 320.823 374.615 320.823C374.615 320.823 360.535 329.688 346.551 320.029C335.172 312.183 335.859 302.879 336.524 299.667C332.683 301.872 328.558 303.59 324.328 304.917C312.914 308.497 298.348 309.978 283.877 305.166C274.372 301.966 266.502 296.42 260.291 290.269C254.069 284.106 249.471 277.303 246.472 271.175C246.022 270.239 245.595 269.314 245.216 268.414C244.22 270.784 239.456 279.781 224.7 279.14C207.716 278.405 201.826 262.843 201.826 262.843C201.826 262.843 199.207 261.966 197.405 259.904C197.405 259.904 187.426 260.497 186.383 250.944C185.352 241.391 195.082 240.277 197.062 240.064C197.062 240.064 199.029 237.646 201.127 236.603C201.127 236.603 202.312 238.322 206.472 238.547C210.632 238.772 208.048 237.314 221.631 237.35C235.213 237.374 239.717 238.748 239.717 238.748C239.717 238.748 238.626 235.453 239.373 233.664C239.373 233.664 208.522 202.849 198.294 170.635C188.066 138.422 191.195 126.475 203.616 92.5077C203.616 92.5077 212.825 150.381 241.091 186.742C257.222 207.495 275.367 223.673 287.989 233.747C288.274 233.747 288.57 233.759 288.855 233.759C286.164 230.76 284.114 227.24 283.095 223.21C280.57 213.255 276.434 203.999 274.537 196.627C272.641 189.243 276.86 174.487 276.86 174.487C271.195 165.409 273.957 150.464 273.957 150.464C273.957 150.464 277.026 149.006 279.361 146.173C281.684 143.329 280.878 134.938 282.775 122.588C284.671 110.238 292.706 97.4618 310.508 90.1966ZM356.434 270.796C356.019 270.274 355.332 270.784 355.332 270.784C351.302 274.079 350.39 280.289 350.354 281.996C350.33 283.703 345.366 294.689 344.393 297.735C344.345 297.855 343.504 300.473 343.302 302.049C343.006 304.479 343.101 311.91 355.13 316.177C366.154 320.077 375.362 312.763 376.843 311.495C379.936 311.72 382.188 310.109 383.279 309.03C383.729 308.592 384.002 308.248 384.061 308.165C382.888 312.064 380.399 313.024 378.882 313.238C378.396 313.309 377.993 313.309 377.779 313.285C377.815 313.392 377.827 313.463 377.85 313.559C378.028 314.209 377.993 314.6 377.993 314.6C377.993 314.6 378.348 314.778 378.965 314.814C379.842 314.861 381.24 314.648 383.043 313.273C383.339 313.036 383.575 312.787 383.812 312.538C383.113 314.02 383.658 315.798 385.117 316.592C386.633 317.411 388.529 316.852 389.347 315.337C390.176 313.83 389.608 311.922 388.091 311.104C386.976 310.5 385.662 310.654 384.725 311.365C385.637 309.86 385.744 308.307 385.685 307.336C385.685 307.169 385.578 306.423 385.566 306.423C385.578 306.411 385.578 306.411 385.578 306.411C384.973 306.257 384.405 306.043 383.859 305.783C383.255 305.486 382.686 305.107 382.117 304.68C381.359 304.123 379.144 302.026 378.598 301.48C377.874 300.746 377.128 300.023 376.393 299.288C375.504 298.411 373.548 296.609 372.647 295.922C372.47 295.781 370.467 294.192 370.123 293.919C370.633 294.44 374.165 298.245 374.97 300.39C375.492 301.67 375.788 303.27 375.705 304.657C375.682 305.048 375.622 305.392 375.551 305.712C375.551 305.712 375.563 305.735 375.575 305.735C375.563 305.735 375.551 305.723 375.539 305.723C375.421 306.292 375.243 306.79 375.006 307.098C374.567 307.633 373.88 307.929 373.359 308.082C373.37 308.082 373.382 308.094 373.394 308.106C374.188 308.734 375.006 309.303 375.682 310.073C368.867 316.568 359.753 316.58 354.49 313.996C349.359 311.485 347.841 308.378 348.493 304.1C347.107 303.803 345.767 302.938 345.258 300.805C345.305 300.84 345.366 300.864 345.413 300.912C346.598 301.872 348.529 302.215 349.726 301.077C350.804 300.058 351.646 298.375 352.404 296.562C353.092 294.903 353.684 293.196 354.455 291.572C354.763 290.909 354.976 290.186 355.095 289.474C355.44 287.448 355.012 285.291 354.016 283.501C352.938 281.569 352.369 278.914 353.293 276.165C354.23 273.427 355.794 272.384 356.244 271.957C356.707 271.543 356.683 271.116 356.434 270.796ZM355.723 284.947C356.766 286.464 358.022 288.966 357.773 291.999C357.773 291.999 357.536 293.563 357.217 294.488C356.707 295.922 356.268 297.083 355.901 298.02C361.958 300.746 367.693 304.147 371.474 306.731C372.007 306.553 372.625 306.257 373.05 305.723C373.323 305.368 373.514 304.775 373.643 304.088C373.916 302.713 373.858 300.84 373.122 298.826C372.505 297.072 371.154 295.175 369.827 293.707C369.662 293.575 369.483 293.457 369.317 293.326C367.966 292.354 366.579 291.43 365.169 290.529C363.213 289.273 361.222 288.064 359.196 286.903C358.236 286.346 357.276 285.812 356.304 285.267C356.102 285.149 355.913 285.054 355.723 284.947ZM304.701 242.92C281.21 235.039 255.728 246.689 250.134 253.765C249.897 254.049 249.684 254.345 249.506 254.665C249.483 254.701 249.471 254.772 249.435 254.796C249.435 254.796 249.293 255.009 249.139 255.448C246.911 262.108 260.41 290.411 285.892 298.968C311.397 307.525 338.964 293.848 341.453 286.429C341.631 285.895 341.667 285.457 341.667 285.457C341.916 283.703 341.524 281.202 340.553 278.274C336.76 267.015 324.15 249.451 304.701 242.92ZM319.577 266.42C328.528 271.667 335.188 277.316 338.584 281.361C333.607 277.69 327.137 273.614 319.538 269.743C319.588 268.629 319.602 267.521 319.577 266.42ZM246.662 233.96C246.283 234.067 246.01 234.387 246.117 235.003C246.223 235.608 246.851 237.397 245.927 240.135C245.014 242.896 242.964 244.662 240.937 245.551C238.911 246.44 236.422 248.443 235.722 251.726C235.035 254.997 233.257 259.311 233.755 262.156C233.933 263.246 235.011 264.74 237.488 264.645C235.794 266.043 234.205 265.937 232.902 265.344C230.851 269.125 227.77 270.677 222.152 269.587C216.416 268.485 209.139 262.974 207.633 253.67C207.633 253.512 209.559 253.494 210.345 253.492H210.691C210.359 253.054 209.992 252.402 209.968 251.714C209.956 251.323 210.122 250.825 210.371 250.292C210.431 250.209 210.679 249.747 210.727 249.664C211.414 248.372 212.742 247.151 213.998 246.417C214.01 246.405 214.022 246.393 214.034 246.393C216.226 245.077 219.663 244.283 221.844 244.165C221.903 244.153 221.074 244.129 220.659 244.141C217.956 244.153 215.266 244.414 212.588 244.793C210.217 245.125 207.942 245.528 205.761 245.516C205.062 245.504 204.386 245.457 203.734 245.338C203.13 245.219 202.525 245.042 201.933 244.793C201.933 244.793 199.669 246.606 199.574 249.711C199.337 248.431 198.306 247.388 196.955 247.187C195.236 246.926 193.625 248.099 193.364 249.83C193.103 251.548 194.3 253.16 196.019 253.421C197.725 253.682 199.337 252.497 199.598 250.778C199.61 250.731 199.61 250.695 199.61 250.648C199.657 251.015 199.728 251.406 199.835 251.797C200.131 252.899 200.534 253.67 200.961 254.262C201.956 255.685 203.059 255.898 203.059 255.898C203.071 255.898 203.213 255.697 203.225 255.673C203.296 255.59 203.888 254.974 204.007 254.974C203.272 254.488 200.238 252.153 202.087 247.092C202.087 247.092 201.98 251.691 205.785 254.132C206.199 256.028 209.186 267.406 220.339 270.938C232.511 274.814 237.192 269.006 238.294 266.814C238.78 265.818 240.025 262.713 240.025 262.713C241.08 259.691 243.758 247.934 244.765 246.559C245.761 245.184 248.783 239.685 247.563 234.624C247.563 234.624 247.314 233.794 246.662 233.96ZM462.26 204.674C462.212 204.769 460.755 205.978 458.396 207.886C457.389 208.716 456.275 209.616 455.018 210.612C441.294 221.456 412.648 240.953 366.01 249.344C354.704 251.371 343.184 252.485 331.96 252.982C333.81 254.891 335.504 256.834 337.044 258.814C337.044 258.814 341.951 258.447 342.627 258.387C351.089 257.676 359.551 256.657 367.919 255.14C388.612 251.406 404.257 246.12 411.676 243.323C413.418 242.636 415.077 241.936 416.701 241.225L416.477 241.415C416.477 241.415 386.088 259.501 339.948 262.808C341.418 265 342.721 267.169 343.824 269.303C358.176 268.497 372.707 266.494 386.443 262.689C395.225 260.248 403.865 257.166 412.114 253.267C420.411 249.356 428.553 244.662 435.711 238.891C440.369 235.122 444.743 231.068 448.76 226.6C454.283 220.473 459.32 213.172 462.046 205.326L462.248 204.71L462.26 204.674ZM222.164 244.153C220.232 244.532 218.004 245.219 216.451 246.251C214.638 247.424 213.476 248.882 212.86 250.126C212.552 250.766 212.339 251.359 212.351 251.797C212.374 252.485 212.694 253.089 213.002 253.551C213.002 253.551 223.847 254.132 230.674 256.005C230.934 255.033 231.29 253.836 231.752 252.39C232.048 251.465 232.451 250.695 232.89 249.996C234.525 247.412 236.943 246.262 238.709 245.682C235.77 245.208 232.333 244.816 229.382 244.556C227.912 244.425 226.442 244.319 224.961 244.248C224.037 244.2 223.1 244.176 222.164 244.153ZM253.699 253.037C258.963 251.868 267.963 251.318 278.566 252.581C277.873 253.449 277.207 254.349 276.565 255.277C267.911 253.733 260.052 253.093 253.699 253.037ZM202.146 117.385L201.909 118.06C200.38 122.576 199.799 127.506 199.55 132.247C199.124 140.271 199.882 148.342 201.577 156.176C203.379 164.52 206.259 172.544 209.802 180.295C213.417 188.236 217.885 195.761 222.875 202.908C229.002 211.714 236.007 219.916 243.592 227.501C246.84 230.76 250.206 233.913 253.654 236.971C254.081 237.338 257.53 240.775 257.874 240.621C260.031 239.59 262.377 238.642 264.878 237.765C230.425 207.72 216.996 175.341 216.582 174.333L216.676 174.499C217.103 175.281 217.53 176.064 217.992 176.858C218.845 178.256 219.912 180.117 221.299 182.381C227.936 193 236.742 204.425 248.558 216.313C248.594 216.348 263.266 230.819 269.524 236.331C271.954 235.667 274.49 235.122 277.121 234.695C268.41 227.489 259.817 219.596 251.96 211.098C212.279 168.099 204.694 128.123 202.146 117.385ZM284.517 175.554C284.517 175.554 284.505 175.59 284.493 175.649C284.244 176.656 282.289 184.775 281.838 188.721C281.779 189.243 281.743 189.729 281.72 190.191C281.53 193.427 282.099 195.264 282.798 197.409C283.58 199.85 287.266 210.304 288.167 213.148C288.286 213.504 288.416 213.954 288.558 214.464C289.53 218.079 291.237 225.095 294.662 228.793C298.551 232.976 302.306 234.861 306.941 236.425C306.941 236.425 306.964 236.425 306.976 236.437C307 236.437 307.012 236.449 307.024 236.449C309.335 237.231 311.527 237.8 313.85 238.061C316.161 238.322 318.603 238.262 321.413 237.765C327.089 236.757 333.584 230.938 336.025 229.208C338.467 227.477 347.723 221.373 349.81 219.892C351.907 218.41 353.662 217.178 355.818 213.539C357.975 209.889 361.613 201.415 361.613 201.415C361.613 201.415 358.117 200.727 356.956 200.585C356.956 200.585 356.944 200.621 356.908 200.68C356.387 201.593 352.215 208.953 350.699 210.493C350.699 210.493 350.65 210.493 350.579 210.517C350.034 210.612 347.865 211.039 346.787 211.845C345.542 212.757 341.038 219.453 335.148 221.978C335.705 218.659 333.561 216.941 333.003 217C332.458 217.059 332.032 218.363 331.913 218.695C331.794 219.027 330.656 221.267 330.277 222.322C329.886 223.376 330.006 223.459 330.006 223.459C329.056 223.424 328.108 223.376 327.172 223.305C328.073 221.599 328.878 219.904 329.637 218.221C330.13 216.945 328.955 216.571 328.726 216.511L328.689 216.502L328.677 216.49C327.835 216.36 326.995 216.23 326.154 216.064H326.07C325.015 215.874 324.376 216.538 324.244 216.941C324.138 217.202 324.032 217.474 323.924 217.735C323.533 218.659 323.118 219.596 322.715 220.52C322.704 220.579 322.692 220.639 322.656 220.686C322.182 221.859 322.585 222.843 322.585 222.843C322.265 222.819 321.483 222.843 320.155 222.582C319.539 222.452 318.709 222.085 318.709 222.085C319.172 221.705 319.456 220.982 319.456 220.982C320.298 218.932 321.589 215.756 321.589 215.756C321.589 215.756 322.099 214.381 321.21 214.12C320.001 213.824 318.804 213.492 317.607 213.136C316.695 212.935 316.304 213.682 316.209 213.93C316.019 214.405 315.699 215.151 315.581 215.483C315.118 216.799 314.668 218.102 314.218 219.394C314.218 219.418 314.218 219.43 314.206 219.453C313.921 220.283 314.147 221.077 314.147 221.077C314.147 221.077 312.985 220.84 312.381 220.674C311.764 220.52 310.84 219.868 310.84 219.868C310.995 219.726 311.172 219.299 311.302 219.003C311.847 217.059 312.381 214.63 312.843 212.591C312.878 212.307 312.89 211.465 312.025 211.11C311.006 210.73 309.986 210.339 308.991 209.925C308.102 209.652 307.711 210.387 307.569 210.813C307.166 212.65 306.704 214.855 306.395 216.455C306.265 217.569 306.775 218.351 306.775 218.351C306.302 218.245 305.352 217.83 304.594 217.51C304.084 217.296 302.982 216.562 302.982 216.562C303.551 216.514 303.871 215.305 303.871 215.305C304.499 213.99 304.926 212.852 305.424 211.607C305.435 211.548 305.471 211.501 305.483 211.442C305.495 211.406 305.506 211.382 305.53 211.323C306.016 210.007 305.104 209.308 304.949 209.202C303.622 208.538 302.129 207.756 302.117 207.756C301.358 207.353 300.861 207.886 300.695 208.407C300.173 209.889 299.355 211.24 299.071 212.876C298.941 213.8 299.012 214.44 299.012 214.44C297.21 213.587 296.546 212.224 296.546 212.224C296.973 211.714 297.554 209.889 297.566 208.194C297.578 206.487 297.684 204.899 296.89 204.33C296.096 203.773 294.769 205.196 294.081 206.215C293.406 207.222 293.252 207.815 293.252 207.815V207.945C290.052 202.375 290.502 194.292 290.063 192.81C289.625 191.329 287.752 189.361 287.752 189.361C287.717 189.077 287.705 188.686 287.705 188.212C287.752 185.118 288.606 178.707 288.724 177.806C288.736 177.735 288.736 177.699 288.736 177.699C287.74 177.107 284.517 175.554 284.517 175.554ZM327.267 95.1507C299.936 95.2692 292.161 115.607 291.012 120.265C289.791 125.219 289.803 131.5 289.518 134.345C289.518 134.345 294.769 133.598 299.675 131.548C302.33 130.458 304.89 129.047 306.847 127.163C306.395 127.684 299.023 136.075 291.142 136.964C291.142 136.964 289.412 144.561 287.302 148.401C285.216 152.253 281.127 154.884 281.127 154.884C281.127 154.884 280.819 157.907 280.819 160.952C280.819 162.173 280.855 163.406 280.985 164.437C281.056 164.958 281.151 165.432 281.257 165.835C282.194 169.059 282.3 171.098 289.281 174.167C291.663 175.21 294.022 176.324 296.286 177.604C299.675 179.524 303.326 181.788 304.736 185.64C304.748 185.676 304.748 185.711 304.773 185.747C305.151 186.718 305.186 187.927 304.926 188.923C304.926 188.793 304.866 188.627 304.784 188.449C304.477 187.844 303.942 187.406 303.598 186.837C303.598 186.825 303.588 186.813 303.563 186.79C302.804 185.924 301.986 185.13 301.026 184.478V184.514L301.003 184.467C301.003 184.467 300.268 187.038 299.118 188.935C298.466 190.025 297.767 191.234 297.032 192.893C297.032 192.917 297.021 192.941 297.009 192.964C295.575 196.686 297.246 200.621 297.637 200.644C298.099 200.68 299.083 200.23 300.943 195.003C300.991 194.884 301.086 194.636 301.145 194.363C301.192 194.114 301.109 193.664 301.003 193.296C301.003 193.296 301.015 193.273 301.026 193.237C301.252 192.384 302.342 192.455 303.029 192.538C303.266 192.561 303.504 192.597 303.729 192.656C303.835 192.68 303.931 192.704 304.013 192.727C304.724 192.976 305.117 193.462 305.104 193.723C305.104 193.723 304.724 193.96 304.44 194.399C304.167 194.837 303.693 195.963 303.563 196.271C303.089 197.444 302.746 198.393 302.342 199.566C302.318 199.601 302.318 199.637 302.318 199.673C301.984 200.666 302.83 201.087 303.034 201.173L303.077 201.19C303.077 201.202 303.195 201.237 303.207 201.237C304.12 201.403 305.104 201.604 306.123 201.818C306.123 201.818 307.487 202.067 307.948 200.846C308.386 199.554 308.766 198.487 309.252 197.196C309.275 197.124 309.311 197.041 309.346 196.97V196.959L309.382 196.876C309.382 196.876 309.678 195.987 309.81 195.453C309.927 194.956 310.45 194.102 310.923 194.102C311.421 194.102 312.096 194.339 312.025 195.347C311.954 196.354 311.752 197.018 311.717 197.136C311.705 197.184 311.693 197.243 311.693 197.279C311.243 198.867 310.33 202.209 310.33 202.209C309.892 203.489 311.291 203.892 311.291 203.892C312.144 204.129 313.424 204.33 314.324 204.603C314.384 204.615 314.431 204.627 314.502 204.639C314.502 204.639 315.569 204.982 315.948 204.84C316.339 204.698 316.588 204.105 316.659 203.916C316.718 203.726 318.141 198.76 318.295 198.227C318.403 197.824 318.354 197.018 318.141 196.556C318.212 196.567 319.504 196.793 320.228 197.03C320.831 197.243 321.637 197.563 322.04 197.871C321.424 198.179 321.021 199.199 320.985 199.341C320.973 199.364 320.961 199.376 320.961 199.388C320.867 199.72 320.748 200.04 320.653 200.36C320.203 201.723 319.61 203.465 319.148 204.84C319.077 205.207 319.006 206.12 320.072 206.523L320.238 206.582C321.127 206.914 322.254 207.317 323.083 207.649C323.083 207.649 323.355 207.756 323.699 207.756C324.114 207.756 324.625 207.602 324.861 206.89C325.074 206.239 325.561 204.793 325.987 203.477C326.403 202.173 326.781 200.988 326.792 200.846C326.804 200.597 327.101 200.135 327.278 199.981C327.764 199.945 328.12 200.016 328.452 200.182C328.843 200.372 329.293 200.858 329.471 201.036C329.21 201.486 328.795 202.636 328.689 203.264C328.606 203.797 327.978 206.084 327.681 207.151C327.646 207.234 327.622 207.353 327.588 207.447C327.563 207.483 327.575 207.519 327.563 207.566C327.551 207.602 327.539 207.625 327.551 207.649C327.385 208.751 328.452 209.308 328.452 209.308C329.4 209.759 330.313 210.197 331.143 210.612C331.143 210.612 331.261 210.659 331.273 210.659C331.273 210.659 332.41 211.027 332.79 209.901C332.801 209.865 332.825 209.83 332.837 209.818C333.217 208.633 333.514 207.649 333.844 206.44C333.927 206.108 334.022 205.776 334.106 205.444C334.129 205.409 334.141 205.314 334.154 205.184C334.176 205.101 334.342 204.508 334.39 204.141C334.425 203.951 334.425 203.773 334.413 203.643C334.413 203.643 335.043 203.892 335.776 204.212C335.776 204.224 337.222 204.864 337.507 205.018C337.756 205.16 338.158 205.314 338.313 205.575C338.668 206.073 338.763 206.274 338.763 206.274L337.732 206.44C337.542 206.428 336.689 206.736 336.689 206.997C335.03 212.307 335.539 213.243 335.931 213.492C336.262 213.705 339.96 211.596 341.062 207.756C341.062 207.72 341.678 204.52 341.81 203.252C342.034 201.202 342.887 198.867 342.995 198.582L342.97 198.594C342.97 198.582 342.995 198.559 342.995 198.559C339.237 198.381 337.139 199.862 337.139 199.862C337.376 199.293 337.72 198.807 338.087 198.369C338.111 198.345 338.123 198.345 338.135 198.321C340.908 195.121 345.945 195.252 349.75 195.738C352.724 196.105 355.676 196.733 358.591 197.433C366.034 199.187 367.339 197.634 370.016 195.619C372.329 193.889 374.212 191.222 375.61 188.733C375.635 188.686 375.67 188.65 375.693 188.603C376.31 187.655 376.736 186.967 376.736 186.967C376.736 186.967 375.053 182.404 375.705 178.067C376.369 173.741 379.557 166.618 379.557 166.618C373.631 161 372.944 149.314 372.944 149.314C373.311 151.684 374.271 154.055 375.516 156.283C377.413 159.708 379.936 162.766 381.81 164.816C383.409 162.221 387.059 157.669 388.896 153.059C390.923 147.927 398.71 121.083 363.379 104.087L362.006 103.506C361.246 103.139 360.511 102.807 359.812 102.487C359.101 102.167 358.425 101.883 357.785 101.634C357.299 101.432 356.837 101.254 356.399 101.089C356.055 100.958 355.736 100.84 355.44 100.721C354.384 100.33 353.507 100.046 352.867 99.844C352.736 99.7966 352.618 99.7611 352.487 99.7137C351.184 99.2989 346.194 97.7937 339.972 96.5018L339.806 96.4663C338.704 96.2411 337.566 96.0159 336.393 95.8144C333.133 95.3522 330.099 95.1507 327.267 95.1507ZM325.125 171.22C325.646 169.655 327.412 168.789 329.156 169.229C329.262 169.252 329.368 169.275 329.464 169.312C329.579 169.35 329.688 169.396 329.799 169.441C331.434 170.16 332.308 171.894 331.786 173.46C331.135 175.39 331.252 177.015 331.371 178.686C331.454 181.922 332.935 182.824 332.272 184.827L331.607 186.782C331.23 187.92 330.186 188.63 328.989 188.809C328.43 188.88 327.838 188.88 327.245 188.691C325.411 188.074 324.378 186.201 324.947 184.531C325.042 184.246 324.875 183.938 324.579 183.83C324.282 183.737 323.975 183.889 323.88 184.163C323.325 185.846 321.368 186.711 319.519 186.095C318.926 185.894 318.452 185.538 318.049 185.123C317.219 184.258 316.816 183.073 317.196 181.946L317.86 179.991C318.522 177.987 320.254 178.165 322.28 175.629C323.371 174.372 324.473 173.163 325.125 171.22ZM340.107 161.109C340.107 161.109 340.153 161.168 340.178 161.204C340.356 161.464 341.184 162.615 342.454 163.835C342.679 164.06 342.915 164.273 343.165 164.488C343.177 164.499 343.199 164.51 343.211 164.534C344.137 165.304 345.227 166.016 346.484 166.432C350.31 167.723 355.894 166.81 361.879 165.719C362.402 165.638 362.91 165.566 363.421 165.506C368.79 164.891 373.508 166.076 373.508 166.076L373.519 166.11L373.413 166.1C373.258 166.122 373.105 166.147 372.938 166.171C371.422 166.703 370.64 170.295 370.64 170.295C370.343 171.374 369.975 172.427 369.535 173.46C368.528 175.782 367.13 178.046 365.364 179.885C364.037 181.271 362.579 181.959 360.956 182.871C360.943 182.86 360.943 182.859 360.943 182.859C360.92 182.859 360.006 183.144 359.521 183.202C355.845 183.654 348.119 182.468 344.41 179.931C344.374 179.919 344.35 179.907 344.327 179.897C340.605 177.679 339.857 169.205 339.845 167.011C339.834 164.83 340.094 161.168 340.107 161.109ZM296.217 140.154C296.488 140.26 300.791 142.145 304.583 145.759C304.964 146.116 305.331 146.484 305.688 146.862C309.81 151.343 313.712 155.444 317.54 156.724C318.784 157.139 320.099 157.233 321.297 157.175C321.309 157.175 321.331 157.175 321.357 157.162C321.688 157.15 322.008 157.127 322.315 157.091C324.282 156.842 325.848 156.321 325.848 156.321C325.848 156.321 323.811 159.439 322.482 161.18C321.144 162.934 315.451 169.24 311.162 168.766C311.128 168.766 311.091 168.743 311.056 168.743C306.562 168.518 299.678 164.807 297.022 162.235C296.667 161.879 296.122 161.109 296.11 161.109C296.027 161.18 295.943 161.239 295.848 161.299C295.943 161.239 296.027 161.168 296.11 161.097C296.158 161.05 295.256 159.485 295.197 159.367C293.774 155.93 294.106 151.651 294.995 148.202C295.256 147.195 295.565 146.199 295.956 145.227C295.956 145.227 297.497 141.896 296.608 140.557C296.501 140.438 296.382 140.319 296.276 140.213L296.253 140.201C296.253 140.19 296.239 140.178 296.217 140.154Z" fill="#0A0B09"/>
<path fill-rule="evenodd" clip-rule="evenodd" d="M338.844 287.931C329.402 293.882 308.331 299.387 288.038 292.58C268.121 285.892 254.887 268.867 250.649 258.501C250.152 257.425 250.023 254.52 252.933 253.174C252.933 253.174 251.094 253.436 249.439 254.794C249.439 254.794 249.293 255.009 249.144 255.453C246.914 262.103 260.411 290.411 285.895 298.966C311.393 307.524 338.97 293.847 341.459 286.434C341.63 285.895 341.664 285.461 341.664 285.461C341.086 283.646 339.979 282.516 339.979 282.516C341.396 285.191 339.942 287.152 338.844 287.931Z" fill="#C2242B"/>
<path fill-rule="evenodd" clip-rule="evenodd" d="M319.538 269.742C319.524 270.062 319.507 270.385 319.489 270.706C318.65 270.28 317.802 269.856 316.938 269.437C316.619 271.367 316.148 273.273 315.505 275.142C314.23 274.401 312.926 273.69 311.614 273.008C312.191 271.217 312.644 269.405 312.989 267.581C311.584 266.943 310.149 266.317 308.685 265.706C308.299 267.437 307.835 269.168 307.294 270.891C305.95 270.27 304.592 269.674 303.226 269.114C303.76 267.438 304.243 265.764 304.683 264.097C303.25 263.545 301.793 263.008 300.313 262.489C299.808 264.107 299.285 265.741 298.744 267.385C297.351 266.885 295.957 266.414 294.547 265.977C295.105 264.339 295.673 262.721 296.247 261.127C294.753 260.652 293.267 260.205 291.789 259.784C291.136 261.376 290.511 262.999 289.928 264.654C288.505 264.274 287.06 263.93 285.617 263.613C286.218 261.921 286.891 260.273 287.621 258.664C286.081 258.275 284.555 257.912 283.047 257.579C282.229 259.231 281.505 260.938 280.891 262.701C279.434 262.449 277.964 262.235 276.495 262.053C277.102 260.196 277.87 258.41 278.767 256.696C277.819 256.515 276.879 256.344 275.951 256.183C276.153 255.878 276.358 255.576 276.565 255.276C267.911 253.732 260.052 253.092 253.699 253.036C258.963 251.867 267.963 251.317 278.566 252.58C278.647 252.478 278.725 252.373 278.808 252.274C279.612 252.369 280.427 252.475 281.249 252.593C281.977 251.538 282.752 250.514 283.571 249.523C284.942 249.7 286.282 249.901 287.592 250.122C286.847 251.143 286.135 252.196 285.458 253.275C286.911 253.54 288.383 253.841 289.872 254.176C290.478 253.066 291.11 251.976 291.762 250.916C293.012 251.185 294.244 251.474 295.454 251.783C294.898 252.882 294.354 254.007 293.822 255.149C295.207 255.519 296.601 255.922 298.003 256.359C298.444 255.185 298.887 254.026 299.329 252.888C300.505 253.253 301.671 253.643 302.829 254.06C302.494 255.235 302.149 256.424 301.792 257.627C303.174 258.119 304.528 258.636 305.857 259.171C306.12 257.944 306.363 256.725 306.581 255.52C307.741 256.001 308.891 256.511 310.054 257.055C309.934 258.283 309.783 259.52 309.6 260.76C310.987 261.38 312.34 262.019 313.658 262.673C313.764 261.425 313.829 260.177 313.85 258.935C315.033 259.549 316.221 260.198 317.421 260.883C317.477 262.136 317.48 263.387 317.428 264.635C318.154 265.031 318.864 265.43 319.563 265.831C319.57 266.027 319.572 266.222 319.577 266.419C328.528 271.666 335.188 277.315 338.584 281.36C333.607 277.689 327.137 273.613 319.538 269.742ZM304.703 242.92C281.216 235.041 255.732 246.683 250.13 253.759C249.902 254.047 249.688 254.349 249.507 254.668C249.489 254.701 249.466 254.768 249.439 254.792C251.094 253.434 252.933 253.172 252.933 253.172C250.023 254.519 250.152 257.424 250.649 258.5C254.887 268.865 268.121 285.891 288.038 292.579C308.331 299.385 329.402 293.88 338.844 287.929C339.942 287.151 341.396 285.189 339.979 282.514C339.979 282.514 341.086 283.645 341.664 285.459C341.91 283.697 341.526 281.201 340.547 278.279C336.762 267.019 324.151 249.446 304.703 242.92Z" fill="#DC4405"/>
</g>
<defs>
<clipPath id="clip0_879_3791">
<rect width="575.718" height="512" fill="white" transform="translate(0.154053 0.0507812)"/>
</clipPath>
</defs>
</svg>
