<svg width="684" height="513" viewBox="0 0 684 513" fill="none" xmlns="http://www.w3.org/2000/svg">
<g clip-path="url(#clip0_780_186)">
<path d="M588.894 294.579C565.012 294.713 544.332 300.45 526.987 308.989C520.583 296.314 514.179 285.24 513.111 276.968C511.911 267.362 510.443 261.491 511.911 250.017C513.378 238.543 520.049 222.266 520.049 220.931C519.916 219.731 518.582 213.86 504.839 213.727C491.097 213.593 479.223 216.395 477.888 219.997C476.554 223.6 473.886 231.872 472.151 240.411C469.75 252.952 444.667 297.381 430.391 320.73C425.721 311.657 421.718 303.652 420.918 297.248C419.717 287.642 418.249 281.771 419.717 270.297C421.185 258.823 427.856 242.545 427.856 241.211C427.722 240.01 426.388 234.14 412.646 234.007C398.903 233.873 387.029 236.675 385.695 240.277C384.361 243.88 382.893 252.419 379.958 260.691C377.156 268.963 343.801 343.145 335.128 362.491C330.725 372.364 326.856 380.236 324.054 385.572C321.253 390.909 323.921 385.973 323.654 386.506C321.253 391.043 319.918 393.578 319.918 393.578V393.711C318.051 397.047 316.049 400.249 315.115 400.249C314.448 400.249 313.114 391.309 315.382 379.035C320.319 353.285 332.327 313.125 332.193 311.657C332.193 310.99 334.461 303.919 324.455 300.317C314.715 296.714 311.246 302.718 310.446 302.718C309.645 302.718 308.978 304.853 308.978 304.853C308.978 304.853 319.785 259.623 288.298 259.623C268.552 259.623 241.334 281.104 227.858 300.717C219.319 305.387 201.174 315.26 181.962 325.8C174.623 329.803 167.018 334.072 159.814 337.941L158.346 336.34C120.188 295.647 49.6083 266.828 52.5436 212.126C53.6109 192.246 60.5488 139.812 188.099 76.3034C292.567 24.2694 376.222 38.5454 390.765 70.2995C411.445 115.662 346.069 199.984 237.465 212.126C196.104 216.795 174.357 200.785 168.886 194.781C163.149 188.51 162.349 188.243 160.214 189.444C156.745 191.312 158.88 196.916 160.214 200.251C163.416 208.657 176.758 223.6 199.44 231.071C219.319 237.609 267.884 241.211 326.589 218.53C392.366 193.046 443.733 122.334 428.656 63.2282C413.313 3.05552 313.514 -16.6907 219.186 16.7978C163.016 36.8109 102.176 68.0313 58.4141 108.991C6.38006 157.557 -1.89202 199.984 1.57692 217.596C13.7182 280.437 100.308 321.397 134.998 351.684C133.263 352.617 131.662 353.551 130.194 354.352C112.85 362.891 46.8065 397.447 30.2623 434.004C11.5835 475.364 33.1976 505.117 47.607 509.12C92.1695 521.528 137.799 499.247 162.482 462.556C187.032 425.865 184.096 378.234 172.756 356.487L172.355 355.686L185.964 347.681C194.77 342.477 203.442 337.674 211.047 333.538C206.778 345.146 203.709 358.888 202.108 378.901C200.24 402.383 209.846 432.803 222.521 444.811C228.125 450.015 234.796 450.148 238.932 450.148C253.608 450.148 260.279 438.007 267.618 423.464C276.69 405.719 284.695 385.172 284.695 385.172C284.695 385.172 274.689 440.808 302.04 440.808C312.047 440.808 322.053 427.867 326.589 421.196V421.329C326.589 421.329 326.856 420.929 327.39 419.995C328.457 418.394 328.991 417.46 328.991 417.46V417.193C332.994 410.255 341.933 394.378 355.275 368.094C372.486 334.205 389.03 291.778 389.03 291.778C389.03 291.778 390.631 302.184 395.568 319.262C398.503 329.402 404.907 340.476 409.844 351.283C405.841 356.887 403.44 360.089 403.44 360.089L403.573 360.222C400.371 364.492 396.769 369.028 393.033 373.564C379.424 389.842 363.147 408.387 361.012 413.724C358.477 419.995 359.011 424.665 363.947 428.4C367.55 431.069 373.954 431.602 380.758 431.069C393.033 430.268 401.572 427.2 405.841 425.332C412.512 422.93 420.117 419.328 427.455 413.991C440.797 404.118 448.936 390.109 448.136 371.43C447.735 361.156 444.4 351.016 440.264 341.41C441.465 339.676 442.665 337.941 443.866 336.073C464.947 305.253 481.224 271.364 481.224 271.364C481.224 271.364 482.825 281.771 487.762 298.849C490.297 307.521 495.366 316.994 499.903 326.334C480.157 342.477 467.748 361.156 463.479 373.431C455.607 396.113 461.745 406.386 473.352 408.788C478.556 409.855 486.027 407.453 491.631 405.052C498.569 402.784 506.974 398.914 514.712 393.177C528.055 383.304 540.863 369.562 540.196 351.016C539.796 342.477 537.527 334.072 534.459 326.067C551.27 319.129 573.017 315.126 600.635 318.462C660.008 325.4 671.749 362.491 669.48 377.967C667.212 393.444 654.804 401.983 650.668 404.652C646.532 407.186 645.198 408.12 645.598 409.988C646.132 412.79 648 412.657 651.602 412.123C656.539 411.323 682.822 399.448 683.89 370.896C685.491 334.205 650.668 294.179 588.894 294.579ZM130.995 448.947C111.382 470.428 83.764 478.566 72.023 471.629C59.348 464.29 64.2846 432.67 88.4337 409.855C103.11 395.979 122.189 383.171 134.731 375.299C137.532 373.565 141.802 371.03 146.872 367.961C147.672 367.427 148.206 367.16 148.206 367.16C149.14 366.627 150.207 365.96 151.275 365.292C160.214 397.847 151.675 426.399 130.995 448.947ZM274.422 351.417C267.618 368.094 253.208 410.922 244.536 408.521C237.064 406.519 232.528 374.098 243.068 342.077C248.405 325.933 259.746 306.721 266.417 299.249C277.224 287.241 288.965 283.239 291.9 288.175C295.369 294.579 278.691 341.01 274.422 351.417ZM392.766 407.987C389.831 409.455 387.162 410.522 385.962 409.721C385.028 409.188 387.162 407.186 387.162 407.186C387.162 407.186 401.972 391.309 407.843 383.971C411.178 379.702 415.181 374.765 419.45 369.162V370.763C419.45 389.975 401.038 402.784 392.766 407.987ZM484.026 387.173C481.891 385.572 482.158 380.636 489.363 365.159C492.164 359.022 498.569 348.748 509.643 339.009C510.977 343.011 511.777 346.88 511.644 350.483C511.51 374.498 494.433 383.438 484.026 387.173Z" fill="#CF649A"/>
</g>
<defs>
<clipPath id="clip0_780_186">
<rect width="683.054" height="512" fill="white" transform="translate(0.888916 0.574707)"/>
</clipPath>
</defs>
</svg>
