<svg width="577" height="513" viewBox="0 0 577 513" fill="none" xmlns="http://www.w3.org/2000/svg">
<g clip-path="url(#clip0_2_15061)">
<path d="M444.548 386.782C435.062 387.139 429.872 386.155 425.965 384.277C421.745 382.247 417.27 378.356 410.634 369.392C409.948 368.468 408.427 366.409 406.174 363.367C450.304 328.992 479.072 275.749 480.236 215.87L553.744 101.975C553.744 101.975 515.163 83.4958 452.646 68.1499L494.597 11.2695C494.597 11.2695 460.387 2.21635 454.376 1.23197C451.155 0.710164 446.368 0.292402 441.342 2.32039C437.211 3.99143 434.213 6.79492 432.036 9.73286C431.828 10.017 418.763 27.7046 398.54 55.1152C367.399 33.2372 329.474 20.3674 288.611 20.3674C247.747 20.3674 209.821 33.238 178.682 55.1168C158.459 27.7046 145.394 10.017 145.186 9.73366C142.993 6.79652 140.011 3.99223 135.879 2.32199C130.854 0.292402 126.068 0.710164 122.846 1.23197C116.821 2.21635 82.6245 11.2678 82.6245 11.2678L124.576 68.1491C62.0581 83.4958 23.476 101.975 23.476 101.975L96.9852 215.87C97.1535 223.872 97.8158 231.857 98.9684 239.777C97.5214 239.718 42.2072 236.034 42.2072 277.926C42.2072 304.473 68.9776 327.991 100.892 336.955C115.418 341.041 130.466 341.996 145.842 339.773C153.523 348.349 161.934 356.268 171.031 363.367C168.779 366.408 167.258 368.468 166.587 369.393C159.95 378.356 155.477 382.263 151.256 384.276C147.348 386.155 142.159 387.14 132.673 386.782L0.956055 380.965L24.4595 436.981C26.3691 441.455 29.2326 446.243 34.273 449.568C39.523 453.044 45.1748 453.655 49.6493 453.655H137.536C147.349 453.655 156.387 452.939 164.962 448.629C174.388 443.886 181.411 435.669 189.093 425.318C191.762 421.725 199.979 410.614 212.074 394.224L288.611 512.803L365.147 394.224C377.242 410.599 385.459 421.724 388.129 425.318C395.825 435.684 402.834 443.886 412.26 448.628C420.835 452.939 429.872 453.654 439.685 453.654H527.572C532.06 453.654 537.698 453.044 542.947 449.568C547.988 446.227 550.866 441.456 552.761 436.981L576.264 380.965L444.548 386.782Z" fill="#010101"/>
<path d="M438.474 92.6484C463.842 98.5691 488.226 106.102 511.551 115.199L475.787 170.603C469.375 141.626 456.385 115.094 438.474 92.6484ZM288.607 403.749C275.141 403.749 261.987 402.348 249.28 399.691L288.607 460.63L327.934 399.692C315 402.395 301.821 403.754 288.607 403.749ZM138.741 92.6484C113.372 98.5691 88.9888 106.102 65.6646 115.199L101.426 170.603C107.839 141.626 120.83 115.094 138.74 92.6484H138.741Z" fill="#89734C"/>
<path d="M443.813 80.123C474.013 87.3114 503.333 96.8415 531.564 108.922L479.068 190.261C478.313 183.662 477.218 177.106 475.787 170.62L511.55 115.214C488.241 106.118 463.856 98.6014 438.473 92.6663C437.801 91.8194 437.12 90.979 436.43 90.1453L443.828 80.123H443.813ZM327.934 399.709L288.607 460.646L249.279 399.709C242.781 398.35 236.359 396.647 230.041 394.608L288.607 485.358L347.173 394.608C340.847 396.64 334.421 398.343 327.919 399.709H327.934ZM101.426 170.62L65.6628 115.214C88.9734 106.118 113.357 98.6014 138.74 92.6663C139.413 91.8192 140.094 90.9788 140.783 90.1453L133.386 80.123C103.186 87.3114 73.866 96.8415 45.6343 108.922L98.1298 190.262C98.886 183.662 99.9812 177.106 101.411 170.62H101.426Z" fill="white"/>
<path d="M381.194 101.173C416.316 53.5829 441.983 18.7894 442.773 17.7458C445.308 14.3301 448.023 13.7787 452.213 14.4646C457.194 15.2697 466.113 17.4921 472.183 19.1176C472.183 19.1176 437.821 65.7084 392.544 127.079C389.098 117.981 385.296 109.316 381.194 101.173ZM200.217 106.855C162.964 56.372 135.254 18.8343 134.45 17.7458C131.914 14.3301 129.2 13.7787 125.01 14.4646C120.028 15.2697 111.11 17.4921 105.04 19.1176C105.04 19.1176 142.368 69.7195 190.45 134.908C192.851 125.288 196.163 115.863 200.218 106.856L200.217 106.855ZM445.054 400.179C423.474 400.999 413.632 395.943 399.882 377.36C397.361 373.96 390.575 364.773 380.733 351.441C374.871 356.959 368.219 361.821 360.942 365.996C381.06 393.258 395.139 412.319 398.868 417.344C413.348 436.851 419.732 440.267 439.686 440.267H527.572C534.194 440.267 537.638 438.373 540.457 431.752C543.276 425.115 555.759 395.287 555.759 395.287C555.759 395.287 471.064 399.194 445.069 400.179H445.054ZM195.61 352.634L177.34 377.36C163.591 395.927 153.747 400.984 132.167 400.179C106.173 399.194 21.4775 395.287 21.4775 395.287C21.4775 395.287 33.9608 425.13 36.7795 431.752C39.5981 438.387 43.0427 440.267 49.6644 440.267H137.551C157.491 440.267 163.873 436.851 178.369 417.344C182.143 412.258 196.504 392.826 216.996 365.056C210.121 361.507 203.022 357.376 195.61 352.634Z" fill="#CF4520"/>
<path d="M129.244 26.6789L105.039 19.1176C111.109 17.4929 120.027 15.2697 125.009 14.4646C129.199 13.7787 131.913 14.3301 134.449 17.7458C135.269 18.8343 162.964 56.372 200.218 106.855C198.69 110.253 197.273 113.7 195.968 117.191L129.244 26.6789ZM385.863 110.941C421.76 62.2478 447.978 26.6789 447.978 26.6789L472.183 19.1176C466.113 17.4929 457.194 15.2697 452.213 14.4646C448.023 13.7787 445.308 14.3301 442.773 17.7458C441.997 18.8046 416.317 53.5837 381.194 101.173C382.805 104.35 384.356 107.615 385.863 110.956V110.941ZM195.61 352.633L177.34 377.359C163.591 395.927 153.747 400.984 132.167 400.178C106.202 399.193 21.5976 395.302 21.4775 395.286L47.0394 406.516C47.0394 406.516 115.852 409.111 136.014 409.573C157.132 410.05 169.69 403.608 184.678 383.639C186.528 381.178 193.417 371.856 203.857 357.733C201.08 356.078 198.331 354.378 195.61 352.633ZM445.054 400.179C423.474 400.999 413.632 395.943 399.882 377.36C397.361 373.96 390.575 364.774 380.733 351.441C378.391 353.633 375.931 355.736 373.364 357.72C383.804 371.857 390.709 381.178 392.559 383.639C407.533 403.609 420.089 410.051 441.222 409.575C461.385 409.112 530.196 406.517 530.196 406.517L555.758 395.287C555.639 395.287 471.049 399.194 445.069 400.179H445.054Z" fill="white"/>
<path d="M494.164 415.825C493.538 424.31 493.075 431.664 493.001 440.254H485.529C486.334 435.422 488.811 421.18 490.839 414.185C491.524 411.843 491.972 410.65 493.314 410.904C494.73 411.157 494.358 413.051 494.149 415.826H494.165L494.164 415.825ZM472.719 433.215C473.807 433.304 474.18 432.156 474.508 430.037C476.775 415.408 478.759 408.397 478.759 408.397L478.683 408.368C476.731 408.443 474.792 408.502 472.868 408.563C472.227 412.618 471.182 420.672 471.48 428.875C471.585 431.589 471.987 433.14 472.703 433.215H472.719ZM506.885 429.292C506.825 431.186 507.124 431.709 507.81 431.813C508.585 431.933 509.078 431.336 509.526 429.532C512.492 417.481 515.267 409.129 515.997 407.026C513.999 407.101 511.851 407.176 509.585 407.265C508.661 412.171 507.11 421.358 506.885 429.292ZM98.4763 408.413C98.4763 408.413 100.445 415.423 102.727 430.053C103.055 432.156 103.427 433.319 104.516 433.23C105.232 433.17 105.65 431.605 105.74 428.89C106.038 420.702 104.993 412.634 104.352 408.577C102.428 408.518 100.49 408.443 98.5355 408.384L98.4611 408.413H98.4763ZM69.409 431.813C70.0957 431.709 70.3934 431.186 70.335 429.292C70.1109 421.358 68.5743 412.171 67.6347 407.265C65.3675 407.176 63.2058 407.101 61.2227 407.025C61.9525 409.129 64.7272 417.481 67.694 429.531C68.1421 431.336 68.6335 431.932 69.409 431.813ZM86.3812 414.185C85.6953 411.843 85.248 410.65 83.9058 410.904C82.4893 411.157 82.8622 413.051 83.0703 415.826C83.697 424.31 84.1587 431.664 84.234 440.254H91.7057C90.8997 435.422 88.4244 421.18 86.3964 414.185H86.3812Z" fill="#CF4520"/>
<path d="M116.42 408.959C117.479 414.939 119.522 426.87 121.342 440.248H91.6932C90.8881 435.416 88.4119 421.173 86.3847 414.179C85.6981 411.837 85.2507 410.644 83.9078 410.897C82.4912 411.151 82.865 413.045 83.073 415.819C83.6997 424.305 84.1615 431.657 84.2367 440.248H56.9606C52.5452 423.753 49.0559 412.613 47.0127 406.468H47.0575C47.0575 406.468 52.7093 406.707 61.2406 407.021C61.9713 409.153 64.7596 417.505 67.7127 429.525C68.1609 431.33 68.6523 431.926 69.4278 431.806C70.1136 431.702 70.4122 431.18 70.3521 429.286C70.1288 421.353 68.593 412.165 67.6535 407.259C76.7506 407.587 87.8013 407.99 98.5534 408.363L98.4798 408.392C98.4798 408.392 100.449 415.401 102.729 430.033C103.058 432.134 103.431 433.298 104.519 433.209C105.235 433.148 105.653 431.584 105.743 428.868C106.041 420.681 104.997 412.612 104.37 408.556C108.547 408.706 112.617 408.84 116.436 408.959H116.42ZM530.182 406.484L516 407.005C515.269 409.138 512.48 417.49 509.528 429.51C509.079 431.315 508.588 431.911 507.813 431.791C507.127 431.687 506.828 431.165 506.887 429.272C507.112 421.337 508.647 412.151 509.587 407.244C500.49 407.572 489.438 407.975 478.687 408.348L478.761 408.377C478.761 408.377 476.792 415.387 474.51 430.018C474.182 432.12 473.809 433.283 472.721 433.194C472.004 433.135 471.587 431.569 471.497 428.854C471.199 420.667 472.244 412.597 472.87 408.542C468.693 408.691 464.622 408.825 460.805 408.944C459.745 414.924 457.703 426.855 455.883 440.233H485.531C486.337 435.4 488.812 421.158 490.84 414.163C491.526 411.822 491.974 410.629 493.316 410.882C494.732 411.136 494.36 413.03 494.151 415.804C493.525 424.29 493.063 431.642 492.988 440.233H520.265C524.679 423.738 528.169 412.598 530.212 406.454H530.167L530.182 406.484ZM293.923 41.564C249.093 41.564 199.222 109.6 199.222 168.509C199.222 192.938 207.813 204.779 222.279 201.259C219.997 192.774 222.055 183.199 228.468 176.89C225.321 191.879 234.448 203.541 249.257 202.826C274.491 201.603 296.205 163.722 336.233 163.722C347.776 163.722 358.29 168.628 362.958 176.667C362.929 176.667 357.411 173.774 344.66 173.774C340.155 173.774 335.89 174.34 331.789 175.295C338.097 219.931 289.703 239.111 262.322 216.605C257.654 218.455 252.837 219.543 247.796 219.543C239.847 219.543 233.687 216.963 229.317 212.982C216.373 230.64 196.583 249.774 171.408 263.182C193.436 275.649 212.032 292.397 223.039 310.414C163.102 270.832 125.578 255.68 94.6183 255.68C71.5022 255.68 58.542 264.121 58.542 277.991C58.542 288.967 66.6547 300.465 79.0483 309.339C98.0925 322.091 126.623 328.533 149.456 321.494C120.596 298.497 102.731 287.103 85.2675 280.332C151.125 279.482 198.864 369.426 289.896 369.426C326.778 369.426 361.721 354.662 380.005 331.128C394.352 312.665 400.854 285.984 400.854 249.252C400.854 143.573 348.805 41.5488 293.923 41.5488V41.564ZM232.882 150.21C232.3 156.489 228.602 161.291 224.635 160.918C220.668 160.545 217.924 155.162 218.505 148.868C219.087 142.589 222.786 137.802 226.753 138.16C230.72 138.533 233.463 143.916 232.882 150.21ZM245.499 110.883C242.591 116.475 237.252 119.473 233.568 117.564C229.884 115.654 229.258 109.57 232.166 103.963C235.074 98.37 240.413 95.3721 244.097 97.2816C247.78 99.1903 248.407 105.275 245.499 110.883ZM262.992 159.174C260.458 164.96 255.387 168.315 251.643 166.675C247.9 165.034 246.93 159.024 249.451 153.252C251.986 147.466 257.056 144.11 260.8 145.751C264.543 147.391 265.513 153.403 262.992 159.174ZM258.279 81.1594C255.461 78.1022 256.923 72.1663 261.561 67.871C266.199 63.591 272.239 62.5922 275.058 65.6341C277.876 68.6913 276.415 74.6272 271.776 78.9233C267.139 83.2025 261.098 84.2013 258.279 81.1594ZM287.764 125.125C283.246 129.524 277.235 130.688 274.341 127.72C271.448 124.753 272.762 118.772 277.295 114.372C281.813 109.973 287.823 108.81 290.717 111.777C293.611 114.746 292.284 120.725 287.764 125.125ZM322.975 102.292C317.233 104.901 311.178 103.948 309.449 100.145C307.718 96.342 310.969 91.1512 316.711 88.5422C322.453 85.9316 328.508 86.8864 330.238 90.6894C331.969 94.4917 328.718 99.6825 322.975 102.292ZM229.392 266.97C225.351 268.028 220.787 263.927 219.191 257.827C217.596 251.728 219.579 245.926 223.606 244.867C227.647 243.809 232.212 247.909 233.807 254.009C235.402 260.109 233.419 265.91 229.392 266.97ZM247.974 302.837C244.47 305.044 238.893 302.495 235.537 297.155C232.181 291.816 232.3 285.701 235.82 283.494C239.326 281.286 244.903 283.838 248.258 289.176C251.613 294.514 251.494 300.629 247.974 302.837ZM248.988 243.704C246.051 238.126 246.648 232.027 250.331 230.073C254.014 228.12 259.399 231.072 262.352 236.65C265.289 242.227 264.693 248.328 261.008 250.282C257.325 252.234 251.942 249.281 248.988 243.704H248.988ZM278.354 332.694C275.759 335.841 269.703 335.14 264.842 331.114C259.98 327.102 258.146 321.286 260.741 318.138C263.335 314.991 269.391 315.693 274.252 319.719C279.115 323.732 280.948 329.547 278.354 332.695V332.694ZM285.243 277.887C282.335 280.84 276.325 279.631 271.836 275.186C267.348 270.758 266.079 264.762 268.988 261.809C271.896 258.856 277.906 260.065 282.396 264.509C286.884 268.938 288.152 274.934 285.243 277.887ZM317.875 298.989C315.95 302.867 309.806 303.746 304.154 300.943C298.502 298.139 295.489 292.725 297.414 288.834C299.337 284.956 305.482 284.075 311.133 286.879C316.786 289.683 319.798 295.097 317.875 298.989ZM324.869 254.323C319.083 256.828 312.998 255.636 311.269 251.669C309.553 247.701 312.848 242.436 318.635 239.931C324.422 237.425 330.506 238.619 332.237 242.585C333.952 246.552 330.655 251.817 324.869 254.323ZM356.695 312.142C355.666 316.349 349.865 318.541 343.735 317.035C337.605 315.528 333.475 310.905 334.518 306.685C335.548 302.479 341.349 300.287 347.478 301.794C353.608 303.299 357.739 307.923 356.695 312.143V312.142ZM365.523 241.497C359.319 242.615 353.652 240.02 352.877 235.71C352.1 231.4 356.5 226.986 362.704 225.867C368.909 224.749 374.576 227.329 375.352 231.654C376.128 235.963 371.728 240.379 365.524 241.497L365.523 241.497ZM179.297 242.213C175.047 224.898 178.85 211.774 192.451 202.229C196.538 209.85 202.487 214.264 209.945 215.07C201.578 225.077 191.407 234.04 179.297 242.213Z" fill="white"/>
<path d="M293.241 27.9629C242.564 27.9629 186.057 99.7579 186.057 169.554C186.057 176.802 186.667 183.275 187.846 188.912C166.534 202.305 158.884 224.392 166.027 250.447C162.941 252.206 159.734 253.92 156.437 255.621C138.84 249.73 127.968 247.373 112.711 245.405C93.2343 243.257 72.6088 245.256 59.887 254.339C55.9495 257.157 52.9668 260.542 50.954 264.45C48.9556 268.343 47.8672 272.831 47.8672 277.947C47.8672 283.778 49.2085 289.222 51.595 294.277C54.8603 301.183 60.1263 307.416 66.7929 312.89C76.1877 321.032 88.5357 327.64 102.421 331.547C119.452 336.334 143.642 335.618 162.552 329.922C163.955 330.786 165.475 331.726 167.161 332.74C216.42 369.816 249.872 383.61 289.93 383.61C333.447 383.61 371.626 366.967 392.341 338.317C406.897 318.184 415.278 289.222 414.772 248.283C413.34 133.493 358.741 28.0085 293.24 28.0085V27.9637L293.241 27.9629ZM192.454 202.26C196.54 209.88 202.489 214.295 209.947 215.101C201.58 225.107 191.409 234.071 179.3 242.243C175.05 224.928 178.851 211.804 192.454 202.26ZM380.007 331.143C361.737 354.678 326.795 369.442 289.898 369.442C198.866 369.442 151.128 279.483 85.2689 280.348C102.733 287.118 120.599 298.513 149.457 321.509C126.64 328.55 98.0946 322.106 79.0504 309.355C66.6721 300.481 58.5433 288.983 58.5433 278.007C58.5433 264.137 71.5043 255.696 94.6205 255.696C114.739 255.696 137.631 262.094 167.622 277.424C183.804 285.687 202.044 296.544 223.041 310.413C212.035 292.414 193.438 275.666 171.41 263.183C196.585 249.79 216.375 230.641 229.32 212.998C233.689 216.98 239.834 219.56 247.797 219.56C252.838 219.56 257.656 218.456 262.323 216.621C289.705 239.126 338.099 219.962 331.791 175.31C335.892 174.357 340.157 173.79 344.662 173.79C357.427 173.79 362.946 176.683 362.96 176.683C358.292 168.645 347.778 163.738 336.236 163.738C296.207 163.738 274.492 201.619 249.26 202.841C234.45 203.557 225.337 191.895 228.47 176.907C222.057 183.216 219.999 192.79 222.28 201.276C207.814 204.795 199.223 192.953 199.223 168.524C199.223 109.615 249.111 41.5794 293.926 41.5794C348.808 41.5794 400.857 143.604 400.857 249.283C400.857 286 394.354 312.681 380.007 331.159V331.143Z" fill="#010101"/>
<path d="M296.119 210.255C288.945 213.237 281.638 212.507 276.357 208.957C287.752 201.291 299.012 191.016 311.823 183.559C313.866 193.999 307.14 205.676 296.119 210.255Z" fill="#CF4520"/>
<path d="M232.888 150.223C232.307 156.503 228.607 161.289 224.64 160.931C220.673 160.559 217.929 155.176 218.512 148.881C219.093 142.603 222.792 137.815 226.759 138.173C230.725 138.546 233.469 143.93 232.888 150.223ZM244.103 97.2948C240.42 95.3861 235.08 98.3688 232.173 103.976C229.264 109.569 229.89 115.668 233.573 117.578C237.257 119.487 242.597 116.503 245.504 110.895C248.414 105.304 247.787 99.2028 244.104 97.2948H244.103ZM275.049 65.6482C272.23 62.591 266.19 63.5898 261.552 67.8851C256.928 72.1651 255.452 78.1162 258.271 81.1734C261.09 84.2306 267.13 83.231 271.768 78.9357C276.406 74.6557 277.867 68.7054 275.049 65.6482ZM260.806 145.765C257.063 144.124 251.993 147.494 249.456 153.266C246.922 159.052 247.905 165.063 251.649 166.689C255.392 168.33 260.463 164.959 262.998 159.187C265.534 153.401 264.55 147.39 260.806 145.765H260.806ZM290.723 111.791C287.83 108.823 281.819 109.986 277.301 114.386C272.782 118.786 271.454 124.766 274.348 127.734C277.241 130.701 283.251 129.539 287.77 125.139C292.289 120.739 293.617 114.759 290.723 111.791ZM330.259 90.7027C328.529 86.9004 322.474 85.9456 316.732 88.5555C310.991 91.1653 307.739 96.3697 309.469 100.158C311.199 103.961 317.254 104.915 322.996 102.306C328.738 99.6966 331.989 94.4905 330.259 90.7027ZM260.746 318.151C258.152 321.299 259.986 327.1 264.848 331.127C269.71 335.139 275.764 335.854 278.36 332.708C280.955 329.561 279.12 323.76 274.259 319.733C269.396 315.72 263.342 315.005 260.746 318.151ZM235.825 283.507C232.321 285.714 232.186 291.829 235.542 297.168C238.898 302.507 244.462 305.057 247.981 302.85C251.486 300.643 251.619 294.529 248.264 289.189C244.908 283.85 239.345 281.3 235.825 283.507ZM223.611 244.881C219.57 245.94 217.601 251.742 219.197 257.841C220.793 263.941 225.357 268.042 229.398 266.983C233.44 265.924 235.409 260.123 233.814 254.023C232.217 247.924 227.654 243.823 223.612 244.881H223.611ZM297.404 288.847C295.481 292.724 298.493 298.153 304.146 300.956C309.797 303.76 315.942 302.88 317.865 299.003C319.79 295.125 316.777 289.696 311.125 286.893C305.473 284.089 299.328 284.969 297.404 288.846V288.847ZM334.509 306.697C333.481 310.903 337.612 315.542 343.726 317.048C349.856 318.554 355.657 316.362 356.686 312.156C357.715 307.951 353.584 303.313 347.469 301.806C341.339 300.301 335.538 302.492 334.509 306.697ZM269.009 261.822C266.101 264.776 267.368 270.756 271.858 275.2C276.347 279.629 282.342 280.838 285.265 277.9C288.188 274.961 286.905 268.966 282.416 264.522C277.927 260.092 271.931 258.885 269.009 261.822ZM250.352 230.086C246.668 232.041 246.057 238.14 249.01 243.718C251.947 249.296 257.331 252.233 261.03 250.294C264.713 248.341 265.325 242.241 262.372 236.663C259.435 231.086 254.05 228.148 250.351 230.086H250.352ZM332.242 242.599C330.527 238.632 324.428 237.439 318.641 239.944C312.854 242.45 309.559 247.699 311.274 251.681C312.989 255.648 319.088 256.841 324.875 254.336C330.661 251.831 333.957 246.581 332.242 242.599ZM375.357 231.667C374.582 227.357 368.915 224.762 362.711 225.881C356.507 226.999 352.107 231.399 352.883 235.724C353.659 240.034 359.325 242.629 365.53 241.511C371.733 240.392 376.132 235.992 375.357 231.667Z" fill="#010101"/>
<path d="M79.0646 309.354C98.1088 322.106 126.638 328.549 149.457 321.509C120.599 298.512 102.732 287.118 85.2686 280.347C72.5173 280.63 63.7483 287.626 68.7743 300.316C71.697 303.523 75.1719 306.565 79.0494 309.354H79.0646ZM289.913 369.441C326.794 369.441 361.737 354.677 380.021 331.143C394.368 312.68 400.87 286 400.87 249.268C400.87 193.713 386.494 139.174 364.869 99.9355C366.536 103.736 368.231 107.525 369.954 111.3C394.189 164.542 408.953 275.158 369.552 323.596C337.86 362.537 251.376 376.436 172.409 320.481C205.502 344.119 241.608 369.441 289.898 369.441H289.913ZM327.421 153.103C291.643 154.043 266.886 188.762 247.319 190.85C237.596 191.879 230.526 186.302 228.469 176.905C225.322 191.894 234.45 203.556 249.259 202.841C274.493 201.618 296.206 163.737 336.235 163.737C347.777 163.737 358.292 168.643 362.959 176.682C359.053 164.632 346.675 152.582 327.421 153.089V153.103ZM222.28 201.275C208.307 204.675 199.821 193.758 199.254 171.015C201.312 189.389 213.735 192.074 221.893 189.254C221.088 193.237 221.221 197.352 222.28 201.275Z" fill="#89734C"/>
<path d="M321.954 486.01C316.257 486.01 311.648 490.633 311.648 496.331C311.648 502.028 316.257 506.636 321.954 506.636C327.652 506.636 332.245 502.026 332.245 496.331C332.245 490.635 327.651 486.01 321.954 486.01ZM321.954 504.414C317.465 504.414 313.855 500.79 313.855 496.315C313.855 491.841 317.465 488.202 321.954 488.202C326.444 488.202 330.037 491.826 330.037 496.315C330.037 500.804 326.413 504.414 321.954 504.414Z" fill="#010101"/>
<path d="M326.178 493.901C326.178 491.977 324.613 490.396 322.689 490.396H317.722V502.179H319.929V497.406H321.511L323.748 502.179H326.178L323.852 497.198C324.533 496.956 325.123 496.51 325.539 495.919C325.956 495.329 326.179 494.624 326.178 493.901ZM322.689 495.184H319.929V492.619H322.689C323.404 492.619 323.971 493.186 323.971 493.901C323.971 494.616 323.404 495.184 322.689 495.184Z" fill="#010101"/>
</g>
<defs>
<clipPath id="clip0_2_15061">
<rect width="575.308" height="512" fill="white" transform="translate(0.956055 0.800781)"/>
</clipPath>
</defs>
</svg>
