<svg width="458" height="513" viewBox="0 0 458 513" fill="none" xmlns="http://www.w3.org/2000/svg">
<g clip-path="url(#clip0_2_14974)">
<path d="M292.759 498.401V508.121H290.328V498.401H287.515V495.986H295.572V498.401H292.759ZM305.931 508.121V500.959L303.884 505.421H301.737L299.69 500.959V508.122H297.26V495.986H299.69L302.81 502.466L305.931 495.986H308.361V508.12L305.931 508.121ZM0.537598 52.8532V149.892C0.537598 176.356 4.31986 246.102 39.3385 321.981C82.0523 414.53 144.89 469.034 229.169 512.801C312.756 469.387 376.015 415.12 419.001 321.981C454.021 246.102 457.802 176.356 457.802 149.892V52.8515C387.115 16.0523 306.29 0.800781 229.169 0.800781C152.764 0.800781 71.6838 15.8074 0.537598 52.8532Z" fill="#041E42"/>
<path d="M12.9458 60.3833V149.893C12.9458 175.537 16.6146 243.136 50.6041 316.782C90.3191 402.835 150.552 457.99 229.17 498.822C308.103 457.825 368.157 402.536 407.735 316.782C441.723 243.136 445.392 175.537 445.392 149.893V60.3833C382.788 27.7906 300.851 13.209 229.17 13.209C157.239 13.209 75.4276 27.8497 12.9466 60.3833H12.9458Z" fill="#B9975B"/>
<path d="M322.355 241.802C332.567 236.057 346.29 223.291 346.29 223.291C353.631 201.59 359.973 172.496 359.973 172.496C359.973 169.624 356.503 164.955 356.503 164.955C353.031 163.162 345.014 161.965 345.014 161.965C333.165 163.879 317.727 175.488 305.438 185.129C311.822 185.129 322.993 183.066 322.993 183.066C320.758 188.811 312.779 203.811 312.779 203.811C317.886 204.13 327.78 201.896 327.78 201.896C323.95 213.704 316.611 228.078 316.611 228.078L322.355 241.802ZM236.984 201.418C235.384 200.739 233.776 200.079 232.161 199.438C229.237 198.276 226.297 197.153 223.342 196.072C223.342 196.072 222.369 196.078 220.453 196.296C219.974 196.351 219.434 196.42 218.837 196.503C217.4 196.709 215.968 196.953 214.543 197.235C207.046 198.708 194.811 202.044 178.036 209.598H178.035L176.595 206.637L174.674 202.69L155.443 229.156H155.445C161.978 230.378 168.743 230.776 174.959 230.746C188.633 230.679 199.645 228.543 199.645 228.543C206.802 222.511 213.144 215.968 217.485 211.214C218.712 209.872 219.921 208.514 221.114 207.142C222.391 205.673 223.194 204.707 223.42 204.449C227.889 203.172 231.401 202.534 236.984 201.418V201.418ZM266.356 218.884C255.506 210.267 248.475 207.929 248.475 207.929C248.475 207.929 249.125 220.265 248.168 224.175C237.623 238.645 225.047 252.211 225.047 252.211L262.766 234.92C264.95 226.871 266.356 218.884 266.356 218.884Z" fill="#041E42"/>
<path d="M229.168 124.756C112.317 124.756 34.7673 162.61 28.5312 165.752C32.2321 238.676 62.4385 370.384 186.995 456.401C203.663 447.477 214.773 432.468 221.377 420.773C234.51 436.65 235.868 458.805 235.869 458.818C234.911 469.669 229.168 481.734 229.168 481.734H229.169C240.017 476.105 250.599 469.979 260.882 463.374C277.531 452.668 292.597 441.161 306.224 429.078L306.225 429.08C306.616 428.733 307.006 428.384 307.397 428.036C351.323 382.589 352.58 314.479 352.58 314.479C343.005 274.746 326.186 260.954 326.186 260.954C329.537 279.131 331.611 299.078 331.611 299.078C320.92 322.693 301.772 338.491 301.772 338.491C284.538 340.407 270.876 338.689 246.96 330.592C226.214 323.57 210.817 312.641 210.817 312.641C210.817 312.641 202.919 312.162 193.823 313.119C186.125 313.929 176.829 315.992 176.829 315.992C187.121 297.8 193.225 279.319 194.337 270.913C187.331 263.5 179.755 256.448 172.01 250.874C154.965 251.668 141.405 252.655 141.405 252.655L147.149 229.359C147.149 229.359 143.229 232.623 138.848 237.005C134.145 241.708 128.958 247.55 128.958 247.55C118.744 251.697 104.383 253.932 104.383 253.932C97.0436 252.018 90.0216 247.23 90.0216 247.23C107.256 221.7 135.341 211.486 135.341 211.486C130.233 205.424 130.553 200.636 130.553 200.636C137.713 195.903 144.254 192.005 150.035 188.816C148.619 192.558 148.424 195.198 148.424 195.198C148.424 195.198 158.251 187.274 164.235 183.683C168.584 181.088 172.996 178.601 177.467 176.222C181.801 162.255 189.233 150.93 191.148 149.321C191.148 149.321 195.064 148.695 197.094 148.937C197.475 153.506 202.692 160.787 204.814 163.579C193.974 167.12 184.586 174.174 184.586 174.174C184.586 174.174 208.403 167.82 229.485 167.114C258.047 166.156 275.649 172.598 275.649 172.598C271.358 178.792 265.549 185.318 265.549 185.318C312.795 169.302 317.729 157.061 343.339 151.556C352.674 153.071 361.13 156.103 361.13 156.103C367.194 162.486 368.63 169.028 368.63 169.028C365.12 196.315 354.109 226.966 354.109 226.966C345.493 237.496 330.653 247.071 330.653 247.071C345.493 245.157 367.514 238.441 367.514 238.441C381.204 248.432 399.179 270.148 406.637 279.497C422.163 236.434 428.269 196.028 429.807 165.752C423.572 162.61 346.024 124.756 229.169 124.756H229.168Z" fill="#041E42"/>
<path d="M98.0009 308.183C98.0009 308.183 104.22 298.346 108.953 293.832L102.307 275.138C99.8119 272.804 97.6137 270.488 95.6071 267.878C93.9156 265.672 92.3284 263.389 90.8507 261.034L84.2767 278.183C84.2767 278.183 90.341 295.097 98.0009 308.183ZM106.937 318.063C106.937 318.063 110.767 331.308 122.256 340.404C122.256 340.404 139.489 333.223 164.382 330.841C164.382 330.841 132.467 317.757 111.724 303.076C111.724 303.076 107.256 308.809 106.937 318.063ZM199.647 228.544C199.647 228.544 188.634 230.681 174.959 230.747C168.743 230.775 161.978 230.378 155.445 229.157L169.487 235.725C179.623 236.203 191.509 236.045 203.715 233.172C209.54 227.747 218.635 217.854 223.423 209.557C223.423 209.557 223.582 207.322 223.421 204.449C223.195 204.708 222.391 205.673 221.114 207.142C219.921 208.515 218.711 209.872 217.485 211.215C213.144 215.969 206.803 222.511 199.646 228.544H199.647ZM159.275 312.012C159.275 312.012 160.422 310.207 161.973 307.2C155.89 301.557 149.222 297.412 149.222 297.412C156.575 297.207 162.863 298.291 165.728 298.891C166.189 297.716 166.637 296.481 167.072 295.202C159.832 289.426 151.083 285.326 151.083 285.326C159.104 284.15 166.957 284.736 169.718 285.009C169.916 283.882 170.072 282.739 170.201 281.588C161.559 275.678 148.983 272.2 148.983 272.2C154.641 270.361 159.864 269.529 163.204 269.153L156.88 261.735C156.88 261.735 149.78 261.416 142.12 262.014C132.243 262.678 123.186 263.97 123.186 263.97C121.681 265.101 119.391 266.921 117.706 268.238C114.638 270.985 113.534 272.499 111.563 274.98L111.871 293.215C117.742 295.953 140.771 306.488 159.275 312.012ZM256.931 364.338C256.931 364.338 260.282 372.237 262.436 383.486C264.282 393.128 263.394 399.045 263.394 399.045C232.756 363.94 188.317 342.331 188.317 342.331C188.317 342.331 249.911 393.073 235.868 458.814C234.911 469.666 229.168 481.731 229.168 481.731C240.016 476.102 250.599 469.976 260.882 463.371C277.531 452.665 292.596 441.158 306.224 429.075C288.948 390.352 256.931 364.338 256.931 364.338ZM178.035 209.598C194.812 202.044 207.047 198.709 214.543 197.236C215.968 196.954 217.399 196.71 218.837 196.504C219.375 196.428 219.914 196.359 220.453 196.298C222.371 196.078 223.339 196.072 223.339 196.072H223.343C201.072 192.143 174.673 202.69 174.673 202.69L176.595 206.638L178.035 209.598Z" fill="white"/>
<path d="M186.561 220.417C183.288 221.749 178.859 220.004 177.305 218.329C176.108 220.363 174.752 222.651 174.752 222.651C174.752 222.651 184.008 226.96 194.858 221.694C201.537 218.452 203.157 212.599 203.157 212.599C199.071 212.913 195.07 213.426 191.475 214.111C191.049 215.717 189.793 219.099 186.561 220.416L186.561 220.417ZM28.1107 149.451C88.3072 122.06 162.903 109.584 229.168 109.584C295.214 109.584 369.91 122.021 430.225 149.462V69.5803C430.225 69.5803 351.079 28.3691 229.168 28.3691C107.256 28.3691 28.1099 69.5803 28.1099 69.5803L28.1107 149.451Z" fill="#C8102E"/>
<path d="M136.174 93.098C130.448 94.166 124.74 95.3315 119.053 96.5942V54.9523C115.557 55.73 112.066 56.5463 108.581 57.3963V109.564C117.722 107.328 126.923 105.348 136.174 103.624V93.098ZM229.547 74.2114C230.39 74.2114 231.23 74.2138 232.072 74.2196C234.899 81.1766 237.723 88.1575 240.549 95.1597C244.332 95.246 248.112 95.3735 251.894 95.5412C249.071 88.4756 246.244 81.4306 243.42 74.4111C244.587 74.444 245.755 74.4802 246.923 74.5221C248.577 71.5811 250.233 68.642 251.893 65.7048V52.3776C250.243 49.3096 248.59 46.2439 246.932 43.1805C237.579 42.8529 228.219 42.7838 218.862 42.9734C218.862 60.3622 218.862 77.7503 218.86 95.1375C222.422 95.0652 225.984 95.0307 229.547 95.034V74.2114ZM229.547 53.3921C233.435 53.3962 237.325 53.4438 241.214 53.5351V63.8313C237.326 63.739 233.436 63.691 229.547 63.6874V53.3921ZM67.453 100.663C71.4259 99.3277 75.4154 98.0417 79.4204 96.8055V86.2791C75.4155 87.5157 71.426 88.8017 67.453 90.137V79.8416C73.0115 77.9738 78.6017 76.2017 84.2212 74.5262V64.0023C75.1398 66.7082 66.1359 69.6677 57.22 72.8772C57.22 90.2661 57.22 107.655 57.2184 125.044C60.6168 123.819 64.0285 122.632 67.453 121.482V100.663ZM379.645 97.0324C383.405 98.1997 387.15 99.4097 390.882 100.663V121.482C394.302 122.633 397.715 123.82 401.115 125.044V81.8902C399.535 78.3219 397.951 74.7558 396.361 71.192C389.003 68.6255 381.587 66.2288 374.118 64.0039C372.515 66.5276 370.909 69.0596 369.302 71.5997V114.761C372.761 115.754 376.208 116.783 379.645 117.848V97.0324ZM379.645 76.2131C383.405 77.3795 387.151 78.5904 390.882 79.8457V90.1395C387.147 88.885 383.402 87.6733 379.645 86.5093V76.2131ZM188.896 96.6329C190.545 93.5038 192.199 90.377 193.857 87.2524V53.1109C192.206 50.2288 190.552 47.3483 188.895 44.4695C181.21 45.0795 173.541 45.867 165.893 46.8288C164.243 50.043 162.597 53.2589 160.956 56.4772V90.6319C162.6 93.4104 164.246 96.1972 165.893 98.9921C173.541 98.0312 181.211 97.2445 188.895 96.6329H188.896ZM171.577 56.6737C175.448 56.2322 179.321 55.8352 183.199 55.4817V86.5915C179.32 86.9433 175.447 87.3395 171.577 87.7826V56.6737ZM287.512 46.2312C283.969 45.8209 280.422 45.4486 276.872 45.1123V97.2798C280.422 97.6152 283.968 97.9868 287.512 98.3962V46.2312ZM344.894 99.3884V65.2469C343.273 61.8687 341.648 58.4929 340.018 55.1192C330.847 53.0675 321.622 51.2701 312.352 49.729V101.895C321.622 103.435 330.847 105.231 340.018 107.283C341.645 104.645 343.271 102.012 344.894 99.3884ZM334.405 95.533C330.582 94.7222 326.75 93.9565 322.91 93.2361V62.1255C326.747 62.8473 330.58 63.6135 334.405 64.4232V95.533Z" fill="white"/>
</g>
<defs>
<clipPath id="clip0_2_14974">
<rect width="457.264" height="512" fill="white" transform="translate(0.538086 0.800781)"/>
</clipPath>
</defs>
</svg>
