<svg width="526" height="513" viewBox="0 0 526 513" fill="none" xmlns="http://www.w3.org/2000/svg">
<g clip-path="url(#clip0_820_375)">
<path d="M432.182 512.051H93.1672C41.8803 512.051 0.155273 470.326 0.155273 419.039V93.0627C0.155273 41.7757 41.8803 0.0507812 93.1672 0.0507812H432.182C483.469 0.0507812 525.194 41.7757 525.194 93.0627V419.039C525.194 470.326 483.469 512.051 432.182 512.051Z" fill="#00005B"/>
<path fill-rule="evenodd" clip-rule="evenodd" d="M263.226 161.832C212.809 161.832 171.519 202.688 171.519 253.54C171.519 304.393 212.374 345.248 263.226 345.248C314.079 345.248 354.934 304.393 354.934 253.54C354.5 202.688 313.644 161.832 263.226 161.832ZM313.644 259.625L232.802 303.088C227.586 306.131 223.24 303.523 222.805 297.438V210.511C222.805 204.427 227.152 201.819 232.802 204.861L313.644 248.325C319.294 251.367 319.294 256.582 313.644 259.625Z" fill="#9999FF"/>
<path opacity="0.6" d="M313.092 470.768C307.876 470.768 302.661 469.464 298.314 466.857L56.6573 332.12C49.7032 328.208 44.4876 321.689 42.749 313.865C40.5759 306.042 41.8798 298.218 45.7915 291.264L186.613 53.9534C192.264 44.826 202.26 39.1758 213.126 39.1758C218.342 39.1758 223.557 40.4797 227.904 43.0875L469.561 177.824C476.515 181.736 481.73 188.256 483.469 196.079C485.642 203.902 484.338 211.726 480.426 218.68L339.605 455.991C333.954 465.118 323.958 470.768 313.092 470.768ZM213.126 61.3422C210.083 61.3422 207.041 63.0807 205.302 65.6885L64.4808 302.999C63.6115 304.738 63.1769 306.476 63.6115 308.65C64.0462 310.823 65.3501 312.127 67.0886 312.996L308.746 447.733C310.05 448.602 311.353 448.602 312.657 448.602C315.7 448.602 318.742 446.863 320.046 444.69L460.868 207.38C461.737 205.641 462.172 203.902 461.737 201.729C461.302 199.556 459.999 198.252 458.26 197.383L216.603 62.6461C216.168 61.7768 214.43 61.3422 213.126 61.3422Z" fill="#9999FF"/>
</g>
<defs>
<clipPath id="clip0_820_375">
<rect width="525.039" height="512" fill="white" transform="translate(0.155273 0.0507812)"/>
</clipPath>
</defs>
</svg>
