<svg width="438" height="512" viewBox="0 0 438 512" fill="none" xmlns="http://www.w3.org/2000/svg">
<g clip-path="url(#clip0_746_273)">
<path fill-rule="evenodd" clip-rule="evenodd" d="M422.529 122.821L434.554 93.3525C434.554 93.3525 419.25 76.9748 400.668 58.4165C382.094 39.8582 342.749 50.7767 342.749 50.7767L297.944 0H140.572L95.7671 50.7767C95.7671 50.7767 56.4219 39.8582 37.8476 58.4165C19.2653 76.9748 3.96976 93.3525 3.96976 93.3525L15.9946 122.821L0.682983 166.487C0.682983 166.487 45.6878 336.726 50.9627 357.521C61.3441 398.454 68.4467 414.278 97.9556 435.025C127.456 455.764 181.007 491.782 189.745 497.25C198.491 502.701 209.426 512 219.262 512C229.098 512 240.025 502.701 248.763 497.25C257.509 491.79 311.051 455.764 340.568 435.025C370.069 414.286 377.18 398.454 387.561 357.521C392.828 336.726 437.825 166.487 437.825 166.487L422.529 122.821Z" fill="url(#paint0_linear_746_273)"/>
<path fill-rule="evenodd" clip-rule="evenodd" d="M274.993 92.2543C281.55 92.2543 330.187 82.9792 330.187 82.9792C330.187 82.9792 387.818 152.563 387.818 167.441C387.818 179.739 382.855 184.549 377.019 190.224C375.801 191.411 374.534 192.629 373.275 193.976L330.066 239.807C329.603 240.294 329.132 240.775 328.655 241.25C324.343 245.579 317.993 251.96 322.467 262.558L323.389 264.714C328.303 276.194 334.371 290.367 326.651 304.717C318.434 319.996 304.365 330.193 295.347 328.502C286.336 326.818 265.156 315.763 257.372 310.721C249.588 305.67 224.905 285.341 224.905 277.556C224.905 271.071 242.654 260.281 251.28 255.03C252.995 253.988 254.35 253.17 255.128 252.641C256.018 252.04 257.509 251.118 259.345 249.98C267.209 245.09 281.422 236.271 281.783 232.367C282.224 227.541 282.055 226.13 275.706 214.218C274.359 211.685 272.78 208.975 271.153 206.169C265.108 195.788 258.342 184.164 259.85 175.835C261.533 166.431 276.283 161.044 288.773 156.475C290.328 155.914 291.86 155.352 293.319 154.799L306.329 149.917C318.803 145.252 332.656 140.065 334.948 139.015C338.107 137.564 337.289 136.169 327.71 135.263C326.159 135.111 324.609 134.951 323.06 134.782C311.195 133.523 289.318 131.207 278.688 134.165C276.596 134.75 274.255 135.383 271.794 136.049C259.85 139.279 245.203 143.239 243.792 145.524C243.552 145.925 243.311 146.27 243.079 146.59C241.732 148.498 240.858 149.749 242.349 157.862C242.79 160.283 243.704 165.036 244.835 170.921C248.121 188.14 253.276 214.995 253.925 221.024C254.014 221.874 254.118 222.683 254.214 223.469C255.04 230.203 255.585 234.684 247.761 236.472L245.716 236.937C236.882 238.957 223.935 241.931 219.262 241.931C214.58 241.931 201.625 238.965 192.791 236.937L190.755 236.472C182.931 234.684 183.484 230.203 184.31 223.469C184.406 222.683 184.502 221.866 184.59 221.024C185.24 214.987 190.402 188.06 193.705 170.848C194.827 164.996 195.733 160.267 196.174 157.862C197.657 149.749 196.783 148.498 195.437 146.59C195.189 146.24 194.948 145.885 194.715 145.524C193.32 143.239 178.682 139.279 166.729 136.049C164.268 135.383 161.92 134.75 159.835 134.165C149.197 131.199 127.328 133.523 115.464 134.782C113.652 134.974 112.081 135.143 110.814 135.263C101.226 136.169 100.417 137.564 103.575 139.015C105.86 140.065 119.713 145.252 132.178 149.917C136.964 151.705 141.558 153.42 145.197 154.799C146.664 155.352 148.187 155.906 149.75 156.483C162.24 161.052 176.991 166.431 178.674 175.835C180.173 184.164 173.407 195.788 167.371 206.169C165.735 208.975 164.164 211.685 162.809 214.218C156.468 226.13 156.3 227.541 156.741 232.367C157.094 236.279 171.299 245.09 179.171 249.98C181.007 251.118 182.498 252.04 183.388 252.641C184.173 253.17 185.52 253.988 187.236 255.03C195.862 260.273 213.61 271.063 213.61 277.556C213.61 285.333 188.935 305.67 181.143 310.721C173.367 315.771 152.187 326.818 143.169 328.502C134.158 330.185 120.081 319.996 111.872 304.725C104.152 290.367 110.213 276.194 115.127 264.722L116.049 262.558C120.53 251.96 114.181 245.579 109.86 241.25C109.386 240.775 108.918 240.294 108.457 239.807L65.2482 193.976C63.9816 192.637 62.7149 191.411 61.4964 190.224C55.6604 184.557 50.7062 179.739 50.7062 167.441C50.7062 152.571 108.337 82.9792 108.337 82.9792C108.337 82.9792 156.965 92.2543 163.523 92.2543C168.758 92.2543 178.858 88.7831 189.392 85.1597C192.062 84.2458 194.755 83.3159 197.409 82.434C210.516 78.065 219.262 78.033 219.262 78.033C219.262 78.033 228 78.065 241.115 82.434C243.76 83.3159 246.462 84.2458 249.131 85.1597C259.657 88.7831 269.766 92.2543 274.993 92.2543ZM266.648 338.41C276.925 343.701 284.22 347.453 286.978 349.176C290.545 351.405 288.372 355.613 285.118 357.914C281.871 360.199 238.197 393.981 233.964 397.716L232.241 399.247C228.16 402.927 222.949 407.617 219.254 407.617C215.566 407.617 210.355 402.919 206.267 399.247L204.56 397.716C200.311 393.981 156.645 360.199 153.398 357.906C150.151 355.613 147.971 351.413 151.538 349.168C154.296 347.453 161.599 343.693 171.892 338.394L181.672 333.352C197.064 325.399 216.264 318.625 219.262 318.625C222.252 318.625 241.444 325.391 256.851 333.352C260.347 335.163 263.625 336.863 266.648 338.41Z" fill="white"/>
<path fill-rule="evenodd" clip-rule="evenodd" d="M342.749 50.7767L297.944 0H140.572L95.7671 50.7767C95.7671 50.7767 56.422 39.8582 37.8477 58.4165C37.8477 58.4165 90.3078 53.6867 108.337 82.9791C108.337 82.9791 156.965 92.2543 163.523 92.2543C170.08 92.2543 184.286 86.803 197.401 82.434C210.516 78.065 219.262 78.033 219.262 78.033C219.262 78.033 228 78.065 241.115 82.434C254.23 86.803 268.435 92.2543 274.993 92.2543C281.55 92.2543 330.187 82.9791 330.187 82.9791C348.216 53.6867 400.668 58.4165 400.668 58.4165C382.094 39.8582 342.749 50.7767 342.749 50.7767Z" fill="url(#paint1_linear_746_273)"/>
</g>
<defs>
<linearGradient id="paint0_linear_746_273" x1="0.691" y1="515.615" x2="437.825" y2="515.615" gradientUnits="userSpaceOnUse">
<stop stop-color="#FF5500"/>
<stop offset="0.41" stop-color="#FF5500"/>
<stop offset="0.582" stop-color="#FF2000"/>
<stop offset="1" stop-color="#FF2000"/>
</linearGradient>
<linearGradient id="paint1_linear_746_273" x1="45.6397" y1="91.9176" x2="400.668" y2="91.9176" gradientUnits="userSpaceOnUse">
<stop stop-color="#FF452A"/>
<stop offset="1" stop-color="#FF2000"/>
</linearGradient>
<clipPath id="clip0_746_273">
<rect width="437.142" height="512" fill="white" transform="translate(0.682983)"/>
</clipPath>
</defs>
</svg>
