<svg width="1024" height="280" viewBox="0 0 1024 280" fill="none" xmlns="http://www.w3.org/2000/svg">
<g clip-path="url(#clip0_843_2432)">
<path d="M705.581 272.619H793.842C814.678 239.035 838.187 208.543 865.243 179.827C891.854 208.543 914.024 239.035 934.86 272.619H1024C993.399 226.214 960.135 182.029 920.208 138.288C959.686 96.3052 993.399 52.9909 1024 7.49219H936.625C914.901 41.0746 891.391 69.3477 865.225 97.1929C838.615 69.3477 815.107 41.0746 793.825 7.49219H705.564C735.721 54.3234 769.87 96.3052 809.777 138.288C769.888 182.029 735.738 227.546 705.581 272.619Z" fill="#04006C"/>
<path d="M532.179 279.69C568.093 279.69 599.141 266.441 623.097 237.707V272.622H692.715V7.47792H623.097V42.3929C599.141 13.6759 568.093 0.410156 532.179 0.410156C459.441 0.410156 399.127 62.7095 399.127 140.05C399.127 217.374 459.441 279.69 532.179 279.69ZM464.771 140.05C464.771 96.7528 499.811 61.8388 543.265 61.8388C586.719 61.8388 621.76 96.7528 621.76 140.05C621.76 183.364 586.719 218.262 543.265 218.262C499.794 218.262 464.771 183.348 464.771 140.05ZM482.951 140.05C482.951 173.633 510.006 200.591 543.265 200.591C576.524 200.591 603.58 173.633 603.58 140.05C603.58 106.468 576.524 79.5092 543.265 79.5092C510.006 79.5092 482.951 106.468 482.951 140.05Z" fill="#04006C"/>
<path d="M0 272.622H73.1823V107.782C105.122 82.5993 119.755 74.6438 131.732 74.6438C145.92 74.6438 155.241 83.487 155.241 105.58V272.604H228.424V107.338C260.363 82.5993 274.551 74.6438 286.973 74.6438C301.162 74.6438 310.483 83.487 310.483 105.58V272.604H383.665V79.9531C383.614 20.2999 349.464 0.410156 316.651 0.410156C288.704 0.410156 260.329 11.9005 223.078 40.1736C211.101 10.569 184.936 0.410156 161.427 0.410156C133.48 0.410156 105.105 12.7883 68.7448 40.6175V7.47792H0V272.622Z" fill="#04006C"/>
</g>
<defs>
<clipPath id="clip0_843_2432">
<rect width="1024" height="279.28" fill="white" transform="translate(0 0.410156)"/>
</clipPath>
</defs>
</svg>
