<svg width="1024" height="282" viewBox="0 0 1024 282" fill="none" xmlns="http://www.w3.org/2000/svg">
<g clip-path="url(#clip0_759_396)">
<path d="M145.607 1.06115C68.3195 -2.0084 3.18197 58.1571 0.112419 135.444C-2.95713 212.743 57.2084 277.881 134.507 280.939C211.795 284.008 276.932 223.843 280.002 146.555C283.071 69.2682 222.894 4.11903 145.607 1.06115ZM204.734 206.231C203.635 208.156 201.817 209.567 199.679 210.153C197.541 210.74 195.258 210.454 193.331 209.359C174.815 198.823 154.464 191.903 133.364 188.969C112.273 185.974 90.8062 187.016 70.1052 192.039C67.9925 192.448 65.8032 192.029 63.9919 190.867C62.1806 189.705 60.8867 187.889 60.3789 185.798C59.8711 183.707 60.1885 181.5 61.2651 179.637C62.3418 177.774 64.0949 176.397 66.1603 175.792C88.9193 170.26 112.32 169.128 135.698 172.407C159.075 175.699 181.251 183.238 201.606 194.816C202.561 195.36 203.399 196.087 204.073 196.955C204.747 197.823 205.243 198.816 205.534 199.876C205.824 200.936 205.903 202.042 205.766 203.133C205.628 204.223 205.278 205.276 204.734 206.231ZM223.139 169.466C222.461 170.723 221.543 171.833 220.435 172.734C219.328 173.635 218.053 174.309 216.685 174.716C215.317 175.124 213.882 175.258 212.462 175.11C211.042 174.962 209.665 174.535 208.41 173.855C186.727 162.132 163.121 154.385 138.709 150.979C114.303 147.524 89.476 148.465 65.4016 153.757C64.0067 154.066 62.5645 154.097 61.1576 153.847C59.7508 153.598 58.407 153.073 57.2034 152.303C55.9997 151.534 54.96 150.534 54.1437 149.361C53.3274 148.188 52.7506 146.866 52.4465 145.47C52.1372 144.075 52.1064 142.633 52.3558 141.226C52.6051 139.819 53.1298 138.475 53.8997 137.272C54.6696 136.068 55.6695 135.028 56.8422 134.212C58.0148 133.396 59.3371 132.819 60.7331 132.515C87.3322 126.657 114.767 125.621 141.732 129.457C168.71 133.203 194.797 141.762 218.751 154.725C224.026 157.585 225.987 164.179 223.139 169.466ZM243.541 128.021C241.902 131.168 239.081 133.535 235.697 134.603C232.314 135.671 228.645 135.352 225.497 133.717C200.247 120.59 172.94 111.874 144.755 107.947C116.577 103.95 87.9243 104.799 60.0328 110.456C56.5762 111.113 52.9998 110.382 50.0787 108.421C47.1576 106.459 45.1269 103.426 44.4269 99.9775C43.7268 96.5293 44.4136 92.9441 46.3386 89.9988C48.2635 87.0535 51.2715 84.9854 54.7107 84.2425C85.579 77.9769 117.291 77.0296 148.478 81.4413C179.674 85.7957 209.898 95.4466 237.845 109.978C244.393 113.386 246.949 121.462 243.541 128.021ZM402.41 127.601L392.7 124.718C373.209 118.941 367.723 116.77 367.723 108.927C367.723 101.493 375.986 93.4394 394.147 93.4394C412.109 93.4394 427.282 102.216 435.113 108.729C436.467 109.849 437.914 109.336 437.914 107.585V81.8849C437.914 80.7527 437.599 80.1342 436.771 79.5156C427.083 72.2794 410.253 67.0273 393.318 67.0273C358.853 67.0273 338.206 86.6351 338.206 108.927C338.206 134.102 354.208 142.891 380.527 150.314L391.883 153.512C411.596 159.09 415.202 164.039 415.202 171.672C415.202 184.476 405.503 188.397 391.042 188.397C372.882 188.397 350.695 177.765 340.272 164.763C339.339 163.619 338.206 164.144 338.206 165.486V193.766C338.206 194.898 338.323 195.412 339.14 196.334C347.812 205.834 368.552 214.191 392.711 214.191C422.427 214.191 444.719 196.859 444.719 170.026C444.719 149.17 432.44 136.588 402.41 127.601ZM520.372 107.06C500.764 107.06 489.408 119.035 482.802 131.009V110.374C482.802 109.441 482.289 108.927 481.355 108.927H455.445C454.523 108.927 454.009 109.441 454.009 110.374V242.774C454.009 243.707 454.523 244.221 455.456 244.221H481.367C482.289 244.221 482.802 243.707 482.802 242.774V189.833C489.408 201.796 500.554 213.572 520.582 213.572C547.006 213.572 565.983 190.755 565.983 160.106C565.983 129.457 546.796 107.06 520.372 107.06ZM512.739 188.595C498.908 188.595 486.934 174.975 482.184 159.907C486.934 144.011 497.87 131.838 512.739 131.838C526.873 131.838 536.677 142.576 536.677 160.118C536.677 177.659 526.873 188.595 512.739 188.595ZM986.979 108.927H960.555C959.621 108.927 959.213 109.126 958.804 110.059L932.17 174.053L905.443 110.059C905.034 109.126 904.626 108.927 903.692 108.927H860.964V102.111C860.964 90.9651 868.492 85.8064 878.19 85.8064C883.979 85.8064 890.27 88.7943 894.705 91.4787C895.744 92.0972 896.456 91.3853 896.048 90.4516L886.757 68.2645C886.477 67.5897 885.964 67.0386 885.31 66.7122C880.77 64.3429 873.347 62.2771 866.122 62.2771C844.239 62.2771 831.645 78.9904 831.645 100.255V108.927H814.103C813.17 108.927 812.656 109.441 812.656 110.374V131.009C812.656 131.943 813.17 132.457 814.103 132.457H831.645V210.281C831.645 211.214 832.159 211.716 833.093 211.716H859.516C860.45 211.716 860.964 211.203 860.964 210.281V132.457H883.559L916.379 203.768L898.732 242.575C898.218 243.719 898.837 244.233 899.864 244.233H928.039C928.972 244.233 929.392 244.022 929.789 243.1L988.111 110.573C988.519 109.639 988.006 108.927 986.979 108.927ZM630.397 106.453C596.959 106.453 573.943 130.087 573.943 160.328C573.943 190.358 596.947 214.202 630.397 214.202C663.731 214.202 686.956 190.358 686.956 160.328C686.956 130.087 663.731 106.453 630.397 106.453ZM630.491 188.911C614.501 188.911 603.145 176.737 603.145 160.316C603.145 143.918 614.501 131.733 630.491 131.733C646.387 131.733 657.743 143.906 657.743 160.328C657.743 176.737 646.387 188.922 630.491 188.922M1021.96 114.996C1020.62 112.678 1018.67 110.775 1016.32 109.499C1013.84 108.15 1011.05 107.467 1008.23 107.515C1005.24 107.515 1002.55 108.176 1000.14 109.499C997.788 110.774 995.833 112.677 994.495 114.996C993.141 117.346 992.464 119.996 992.464 122.944C992.464 125.862 993.141 128.496 994.495 130.846C995.857 133.18 997.74 135.013 1000.14 136.343C1002.55 137.674 1005.24 138.335 1008.23 138.327C1011.22 138.319 1013.92 137.658 1016.32 136.343C1018.72 135.028 1020.6 133.196 1021.96 130.846C1023.31 128.496 1023.99 125.866 1024 122.956C1024 119.999 1023.32 117.346 1021.96 114.996ZM1019.49 129.55C1018.42 131.471 1016.83 133.049 1014.9 134.102C1012.85 135.215 1010.56 135.778 1008.23 135.736C1005.89 135.783 1003.57 135.22 1001.51 134.102C999.591 133.043 998.01 131.466 996.946 129.55C995.838 127.527 995.275 125.251 995.312 122.944C995.312 120.486 995.857 118.299 996.946 116.385C998.035 114.471 999.556 112.962 1001.51 111.857C1003.46 110.752 1005.7 110.207 1008.23 110.223C1010.72 110.223 1012.94 110.767 1014.88 111.857C1016.85 112.954 1018.39 114.471 1019.49 116.409C1020.6 118.346 1021.15 120.544 1021.15 123.003C1021.15 125.43 1020.6 127.609 1019.49 129.539M787.995 62.0787C778.074 62.0787 770.861 69.0814 770.861 78.3718C770.861 87.6621 778.086 94.6766 787.995 94.6766C798.102 94.6766 805.327 87.6738 805.327 78.3718C805.327 69.0814 798.102 62.0787 787.995 62.0787ZM1013.59 122.641C1014.08 122.301 1014.48 121.843 1014.76 121.309C1015.03 120.776 1015.17 120.183 1015.15 119.583C1015.15 118.276 1014.64 117.241 1013.61 116.479C1012.59 115.708 1011.1 115.323 1009.17 115.323H1002.3V129.667H1005.62V123.96H1007.41L1011.78 129.667H1015.86L1011.08 123.621C1011.98 123.495 1012.84 123.159 1013.59 122.641ZM1008.64 121.369H1005.61V117.867H1008.76C1009.69 117.867 1010.41 118.008 1010.9 118.288C1011.15 118.413 1011.35 118.609 1011.49 118.85C1011.62 119.091 1011.68 119.366 1011.66 119.641C1011.67 119.91 1011.6 120.174 1011.46 120.404C1011.32 120.634 1011.12 120.819 1010.88 120.937C1010.18 121.264 1009.41 121.412 1008.64 121.369ZM801.3 108.927H774.888C773.954 108.927 773.441 109.441 773.441 110.374V210.281C773.441 211.214 773.954 211.716 774.888 211.716H801.3C802.234 211.716 802.747 211.203 802.747 210.281V110.374C802.747 109.441 802.234 108.927 801.3 108.927ZM762.4 186.016C758.636 188.074 754.398 189.108 750.11 189.016C741.648 189.016 736.279 184.055 736.279 173.119V132.457H762.084C763.018 132.457 763.532 131.943 763.532 131.009V110.374C763.532 109.441 763.018 108.927 762.084 108.927H736.291V81.9899C736.291 80.8578 735.556 80.2392 734.54 81.0562L688.392 117.389C687.773 117.902 687.575 118.416 687.575 119.256V131.009C687.575 131.943 688.089 132.457 689.01 132.457H706.973V177.449C706.973 201.807 721.013 213.164 741.029 213.164C749.701 213.164 758.07 210.899 763.018 208.005C763.742 207.596 763.835 207.188 763.835 206.453V186.845C763.835 185.818 763.322 185.491 762.4 186.016Z" fill="#1ED760"/>
</g>
<defs>
<clipPath id="clip0_759_396">
<rect width="1024" height="280.102" fill="white" transform="translate(0 0.94873)"/>
</clipPath>
</defs>
</svg>
