<svg width="1025" height="297" viewBox="0 0 1025 297" fill="none" xmlns="http://www.w3.org/2000/svg">
<g clip-path="url(#clip0_2_14908)">
<path fill-rule="evenodd" clip-rule="evenodd" d="M933.454 0.982422C936.52 1.70992 939.549 2.5933 942.644 3.13521C967.476 7.48534 989.538 17.7371 1008.33 34.9668C1009.77 36.3031 1011.07 37.8026 1012.72 39.5322C1000.58 53.5996 987.378 66.2566 975.055 80.3091C974.09 79.3515 973.348 78.676 972.68 77.9485C959.689 63.7475 943.684 55.3516 924.843 52.8499C918.266 51.9739 911.533 52.0481 905.008 53.8149C895.224 56.4725 887.689 61.9361 884.779 72.2844C882.04 82.0462 885.64 91.8822 893.687 97.9694C900.984 103.485 909.224 107.041 917.717 110.092C932.935 115.578 948.323 120.589 963.319 126.631C978.604 132.793 992.879 140.869 1004.08 153.638C1014.4 165.389 1021.07 178.766 1023.26 194.518C1026.39 216.997 1020.73 237.24 1008.77 255.91C1001.45 267.357 991.297 275.783 979.561 282.182C964.811 290.229 949.043 294.831 932.304 295.767C924.776 296.197 917.219 296.798 909.699 296.568C887.971 295.9 866.933 291.669 847.276 281.892C832.577 274.58 819.824 264.529 809.119 251.864C808.793 251.471 808.6 250.951 808.206 250.231C820.752 236.876 833.297 223.544 846.259 209.759C847.892 211.54 849.332 213.062 850.713 214.636C858.953 224.064 868.596 231.524 879.946 236.669C887.711 240.18 895.766 242.214 904.236 243.32C912.446 244.396 920.374 243.639 928.243 241.791C935.978 239.972 942.719 236.015 947.247 229.208C956.088 215.92 952.258 201.37 940.12 192.663C934.182 188.402 927.36 185.143 920.56 182.403C909.573 177.964 898.252 174.364 887.088 170.348C875.73 166.265 864.565 161.714 854.291 155.211C836.155 143.727 823.157 128.19 818.436 106.566C814.175 87.0718 817.099 68.4539 826.319 50.8381C837.685 29.1172 855.137 14.7603 877.816 6.78011C884.43 4.44916 891.208 2.7195 898.2 1.94004C898.809 1.87323 899.373 1.31648 899.96 0.982422H933.454ZM374.203 208.341C375.673 208.601 376.356 208.823 377.024 208.823C394.083 208.749 411.135 208.667 428.186 208.564C428.335 208.564 428.506 208.385 428.624 208.252C428.728 208.126 428.765 207.947 429.04 207.302L402.383 140.684H401.321L374.203 208.341ZM410.43 0.982422C413.354 3.21687 415.299 6.1417 416.74 9.55647C425.106 29.5403 433.517 49.5019 441.987 69.4412C449.67 87.5395 457.464 105.593 465.17 123.677C474.004 144.447 482.763 165.255 491.62 186.019C498.189 201.43 504.856 216.804 511.485 232.185C519.405 250.58 527.341 268.968 535.254 287.363C535.752 288.514 536.101 289.716 536.628 291.223H462.809C459.862 283.971 456.841 276.57 453.857 269.161C452.906 266.8 451.971 264.425 451.155 262.02C450.279 259.436 448.772 258.256 445.921 258.404C441.437 258.627 436.924 258.471 432.425 258.471H360.604C359.527 258.471 358.443 258.545 357.367 258.449C355.103 258.263 353.826 259.095 352.943 261.418C349.899 269.413 346.61 277.312 343.396 285.248C342.58 287.252 341.704 289.226 340.82 291.305H278.76C279.065 289.857 279.132 288.633 279.592 287.571C291.514 259.793 303.518 232.051 315.425 204.265C330.049 170.125 344.621 135.955 359.186 101.785C368.034 81.0218 376.831 60.2436 385.635 39.458C389.755 29.7333 393.875 20.0087 397.906 10.2543C399.465 6.46833 401.499 3.15006 405.033 0.982422H410.437H410.43ZM0.107422 4.38235C5.29639 5.18408 8.98583 7.57442 12.2373 10.8853C25.837 24.7671 39.4664 38.6266 53.0884 52.4861C76.3831 76.1965 99.6852 99.9069 122.987 123.603C123.982 124.62 125.066 125.547 126.313 126.72C127.657 125.481 128.874 124.456 129.988 123.328C166.659 86.0326 203.346 48.7299 239.98 11.3901C243.366 7.94559 247.062 5.27316 251.784 4.50112C252.058 4.73867 252.207 4.8426 252.333 4.97622C252.452 5.095 252.63 5.23604 252.645 5.38451C252.734 6.10458 252.823 6.83208 252.823 7.55957L252.83 290.563C248.933 291.713 204.504 292.107 194.631 291.097V154.692C189.783 158.366 186.554 162.405 182.917 165.975C179.027 169.784 175.256 173.725 171.433 177.608L160.357 188.891L149.281 200.153C145.451 204.035 141.583 207.866 137.79 211.785C134.137 215.564 130.574 219.431 126.588 223.655L59.1385 155.107C58.656 155.434 58.5075 155.494 58.4184 155.605C58.307 155.738 58.2031 155.917 58.1809 156.087C58.1289 156.444 58.1066 156.815 58.1066 157.179C58.0695 201.526 58.0398 245.874 57.9953 290.214C57.9953 290.385 57.8765 290.54 57.8097 290.704C54.0831 291.684 8.23607 291.988 0.107422 291.053V4.38235ZM629.153 56.428C628.27 63.6435 628.485 128.688 629.421 133.142C641.298 132.86 653.331 134.055 665.216 131.768C674.867 129.912 683.033 125.31 688.563 116.624C691.955 111.287 693.462 105.445 694.16 99.1572C695.14 90.3233 693.73 82.0239 689.424 74.4149C682.936 62.9606 672.298 58.1799 659.946 57.0961C651.379 56.3537 642.738 56.3834 634.134 56.1236C632.561 56.0716 630.987 56.3166 629.153 56.428ZM562.135 290.867V5.8893C563.411 5.77795 564.777 5.54783 566.143 5.54783C596.386 5.52556 626.644 5.32512 656.88 5.62206C671.942 5.76311 687.004 6.75784 701.606 11.0412C719.704 16.3563 735.071 26.0142 746.666 41.3064C755.782 53.3398 760.407 67.088 761.713 82.2318C762.723 93.8717 761.565 105.148 758.239 116.246C753.214 132.978 743.155 145.94 729.273 156.013C727.699 157.149 726.118 158.27 724.188 159.643C726.912 161.803 729.162 163.6 731.418 165.374C740.096 172.204 746.436 180.986 751.996 190.48C759.204 202.788 764.007 216.135 768.602 229.579C774.771 247.648 780.925 265.724 787.057 283.8C787.859 286.161 788.512 288.573 789.38 291.446H720.58C719.504 291.446 718.42 291.416 717.336 291.446C715.644 291.505 714.686 290.733 714.293 289.033C712.125 279.828 710.076 270.594 707.701 261.441C702.883 242.949 698.124 224.398 689.194 207.376C683.522 196.56 675.29 188.802 663.123 186.293C659.448 185.529 655.685 184.957 651.943 184.831C645.114 184.608 638.262 184.757 631.425 184.809C630.742 184.809 630.059 185.143 629.643 185.254C629.294 185.61 629.153 185.722 629.057 185.87C628.96 186.019 628.893 186.197 628.834 186.368C628.775 186.538 628.715 186.709 628.701 186.887C628.671 187.258 628.649 187.622 628.649 187.986C628.619 222.067 628.589 256.148 628.545 290.229C628.545 290.392 628.411 290.555 628.344 290.711C624.41 291.654 567.947 291.81 562.127 290.86" fill="#0000A0"/>
</g>
<defs>
<clipPath id="clip0_2_14908">
<rect width="1024" height="295.637" fill="white" transform="translate(0.107422 0.982422)"/>
</clipPath>
</defs>
</svg>
