<svg width="828" height="513" viewBox="0 0 828 513" fill="none" xmlns="http://www.w3.org/2000/svg">
<g clip-path="url(#clip0_876_1795)">
<path d="M179.953 115.197C179.953 115.197 250.38 0.0507812 394.582 0.0507812C538.784 0.0507812 605.863 111.849 605.863 111.849H801.48L793.708 159.916C793.708 159.916 788.088 178.928 779.12 181.2H792.512C792.512 181.2 796.936 197.94 770.152 256.051H827.187C827.187 256.051 829.459 357.805 706.421 405.872C706.421 405.872 642.69 425.96 610.287 391.285C610.287 391.285 545.48 512.051 394.462 512.051C243.565 512.051 175.29 387.937 175.29 387.937H0L27.9795 337.598H8.8482L31.2079 296.226H69.2312L75.9271 280.563H58.1112L101.754 200.092H126.386L136.43 175.46H115.146L147.55 115.077H179.953V115.197Z" fill="white"/>
<path d="M396.734 485.148C520.131 485.148 620.211 383.633 620.211 258.323C620.211 133.013 520.131 31.498 396.734 31.498C273.338 31.498 173.377 133.013 173.377 258.323C173.377 383.633 273.338 485.148 396.734 485.148Z" fill="#FCB724"/>
<path d="M329.42 314.409C326.431 314.29 324.518 312.257 323.8 310.224C322.844 307.354 322.963 302.333 324.039 300.061L375.694 208.35C376.531 206.676 378.683 203.089 381.194 203.089C385.738 203.089 387.77 197.111 379.998 197.111H338.627C330.855 197.111 330.855 202.97 338.268 202.97C341.257 202.97 342.453 205.959 341.616 207.752L330.137 228.438C328.702 230.71 325.594 230.949 322.246 230.949H312.441C311.724 230.949 311.245 231.547 311.245 232.145C311.245 232.862 311.843 233.34 312.441 233.34H322.246C324.876 233.34 327.029 234.177 325.474 237.167L287.331 306.637C284.581 310.463 279.081 311.3 279.44 304.007L292.951 202.252C293.429 199.024 292.592 196.872 289.244 196.872H268.798C266.406 196.872 264.852 198.067 263.656 199.622L256.362 208.829C255.406 209.785 253.373 209.785 251.101 209.785H233.883C233.166 209.785 232.688 210.383 232.688 210.981C232.688 211.698 233.285 212.177 233.883 212.177H247.873C250.384 212.177 253.254 212.774 252.177 213.97L232.448 238.721C231.851 239.439 229.937 239.558 228.742 239.558H223.241C222.524 239.558 222.046 240.156 222.046 240.754C222.046 241.471 222.644 241.95 223.241 241.95H227.905C229.34 241.95 229.34 242.667 228.742 243.265L210.208 266.461C209.252 267.418 207.458 267.538 205.545 267.538H189.164C188.447 267.538 187.968 268.135 187.968 268.733C187.968 269.451 188.566 269.929 189.164 269.929H203.154C205.306 269.929 206.98 270.288 205.784 271.723L179.479 304.724C174.576 311.061 150.782 314.17 146.119 314.17L235.079 147.728C235.916 145.815 239.264 142.945 242.612 142.945H261.504C270.352 142.945 270.113 136.967 262.461 136.967H167.522C159.75 136.967 159.511 142.945 168.359 142.945H185.936C190.958 142.945 192.512 145.935 191.197 148.446L188.686 152.989C187.849 154.424 186.653 155.022 181.87 155.022H150.782C150.064 155.022 149.586 155.62 149.586 156.218C149.586 156.935 150.184 157.413 150.782 157.413H181.751C183.425 157.413 185.936 157.892 184.381 160.881L180.077 169.012C179.359 170.207 177.446 170.805 175.294 170.805H161.184C160.467 170.805 159.989 171.403 159.989 172.001C159.989 172.718 160.587 173.197 161.184 173.197H175.174C177.207 173.197 177.207 174.512 176.011 176.425L165.967 194.958C165.13 196.513 163.456 196.752 160.347 196.752H154.728C154.01 196.752 153.532 197.35 153.532 197.948C153.532 198.665 154.13 199.143 154.728 199.143H160.228C162.38 199.143 162.858 200.339 161.902 202.372L153.652 217.677C152.456 219.829 150.662 220.666 145.162 220.666H114.074C113.356 220.666 112.878 221.264 112.878 221.862C112.878 222.46 113.476 223.057 114.074 223.057H145.043C148.51 223.057 149.825 224.612 148.51 227.123L132.488 257.255C131.531 258.57 128.901 258.809 124.476 258.809H93.3881C92.6707 258.809 92.1924 259.407 92.1924 260.005C92.1924 260.722 92.7903 261.2 93.3881 261.2H124.357C128.064 261.2 130.335 261.32 129.259 263.353L120.052 280.69C118.378 283.321 113.596 283.321 111.682 283.321H101.878C101.16 283.321 100.682 283.919 100.682 284.517C100.682 285.234 101.28 285.712 101.878 285.712H111.682C115.15 285.712 116.943 286.31 116.106 288.223L103.791 311.42C102.954 314.529 98.1709 314.648 94.4643 314.648H46.397C45.6796 314.648 45.2013 315.246 45.2013 315.844C45.2013 316.561 45.7991 317.04 46.397 317.04H94.3447C97.5731 317.04 101.519 317.398 100.084 320.029L92.1924 334.856C91.475 336.051 88.7249 336.171 84.8986 336.171H75.0939C74.3765 336.171 73.8982 336.769 73.8982 337.367C73.8982 338.084 74.496 338.562 75.0939 338.562H84.8986C87.29 338.562 90.1597 338.801 89.2032 340.595L84.3008 350.041C82.7464 352.432 81.0724 354.465 77.3657 354.465H53.0929C44.2447 354.465 44.4839 360.444 52.2559 360.444L193.708 360.563C197.893 360.563 198.012 359.965 199.925 356.976L220.85 320.388H328.105C335.877 320.507 333.964 314.648 329.42 314.409ZM245.242 303.528C244.166 309.626 238.068 313.572 230.535 315.605L222.644 317.638L229.1 306.039C230.774 302.811 227.068 301.017 223.002 305.68C195.621 337.606 186.892 352.911 144.684 352.911H133.325C129.857 352.911 126.15 351.596 128.422 348.248L143.369 320.388H200.164C207.936 320.388 205.904 314.529 201.36 314.409C198.371 314.29 195.023 312.616 192.751 308.909C192.153 307.833 190.718 303.887 192.871 300.778L214.632 271.842H250.743L245.242 303.528ZM253.373 267.059H218.1L262.7 208.231L253.373 267.059Z" fill="#552C81"/>
<path d="M498.487 281.523C477.562 306.871 465.844 315.48 444.561 315.48C437.386 315.48 433.56 313.926 435.593 310.339L460.702 259.761H470.268C481.029 259.761 479.475 268.728 476.605 281.044C476.127 282.718 477.323 282.838 478.638 281.403L502.552 239.434C503.748 236.803 500.759 236.205 499.204 238.238C487.247 254.5 474.692 253.304 469.312 253.304H465.007L491.91 202.008H502.791C516.422 202.845 522.759 214.444 518.814 242.303H524.433L544.163 203.324C545.717 200.095 542.369 196.986 538.662 196.986H404.624C396.852 196.986 396.493 202.965 403.907 202.965C409.885 202.965 409.646 211.574 404.265 215.759L347.35 260.956L358.829 314.285C359.666 318.35 362.296 320.263 366.72 320.263H477.562C482.106 320.263 484.019 318.35 485.454 316.437L505.541 281.762C508.411 276.979 502.074 277.338 498.487 281.523ZM421.364 257.25L411.559 257.13C410.842 257.13 410.363 257.728 410.363 258.326C410.363 258.924 410.961 259.522 411.559 259.522L421.483 259.402C424.831 259.402 427.94 259.88 427.103 261.315L401.515 310.219C398.287 316.078 391.591 314.524 390.515 309.861L377.84 244.336L422.44 209.78C426.864 205.954 435.354 199.736 439.778 199.856H449.463C455.441 199.856 457.474 202.606 456.039 206.193L454.365 209.541C453.289 211.454 449.702 211.574 446.832 211.574H441.213C440.495 211.574 440.017 212.172 440.017 212.77C440.017 213.487 440.615 213.965 441.213 213.965H446.713C449.104 213.965 452.093 213.965 451.017 215.759L430.332 255.217C429.255 256.891 424.951 257.25 421.364 257.25Z" fill="#552C81"/>
<path d="M789.884 285.238C789.286 282.368 788.21 284.162 786.297 287.749C785.699 288.825 783.906 288.944 781.993 288.944H776.373C775.655 288.944 775.177 289.542 775.177 290.14C775.177 290.858 775.775 291.336 776.373 291.336H781.993C784.145 291.336 784.145 292.771 783.188 294.923C779.242 303.293 775.297 308.793 769.916 315.489C769.079 316.565 766.927 317.402 765.253 317.402H759.513C758.796 317.402 758.318 318 758.318 318.598C758.318 319.315 758.916 319.794 759.513 319.794H765.133C767.883 319.794 765.133 321.468 764.655 322.185C754.731 335.338 747.915 341.316 740.621 347.175C739.784 347.893 735.719 347.653 732.849 347.653H727.229C726.512 347.653 726.034 348.251 726.034 348.849C726.034 349.567 726.632 350.045 727.229 350.045H732.73C736.915 350.045 733.806 352.436 733.208 353.034C717.783 365.828 694.826 370.013 684.304 368.698C650.226 364.393 643.171 338.566 640.66 328.164C640.182 326.011 638.508 321.587 637.91 318.837C636.834 313.456 652.259 311.902 656.444 314.772C662.901 319.076 677.966 323.5 689.804 323.5C700.685 323.5 723.164 315.609 729.621 296.836C736.197 277.585 719.577 256.302 712.163 248.888C702.717 239.442 693.869 224.496 697.695 213.615C700.565 205.365 705.228 201.539 715.392 201.539C728.425 201.539 737.991 209.909 737.991 221.866C737.991 222.942 737.273 224.137 736.436 224.137H731.773C731.056 224.137 730.577 224.735 730.577 225.333C730.577 226.05 731.175 226.529 731.773 226.529H736.078C737.273 226.529 738.11 227.485 737.752 228.92C736.915 232.866 736.675 235.736 735.719 239.682C735.241 241.953 738.589 243.627 739.784 241.953L760.35 205.365C761.785 202.615 758.557 201.897 756.046 202.734C750.426 204.647 741.339 206.082 738.11 203.691C730.458 198.191 723.403 194.604 712.761 194.604C694.587 194.604 681.793 199.147 673.542 214.093C672.944 215.289 671.151 215.289 669.597 215.289H666.129C665.412 215.289 664.933 215.887 664.933 216.485C664.933 217.202 665.531 217.681 666.129 217.681H669.118C670.433 217.681 671.27 218.039 670.673 219.474C670.075 220.789 669.596 222.224 669.118 223.779C667.086 230.235 667.683 239.442 670.912 247.454C671.151 247.932 670.433 248.291 669.238 248.291H663.618C662.901 248.291 662.422 248.888 662.422 249.486C662.422 250.084 663.02 250.682 663.618 250.682H669.238C671.749 250.682 672.347 250.921 673.423 252.476C676.292 256.541 679.282 259.53 682.988 264.193C684.184 265.628 679.162 266.107 676.532 266.107H654.411C653.694 266.107 653.215 266.704 653.215 267.302C653.215 268.02 653.813 268.498 654.411 268.498H676.771C680.358 268.498 686.575 268.498 687.173 269.215C692.554 275.433 699.13 285.118 700.206 293.249C700.565 295.521 699.609 296.597 696.739 296.597H693.75C693.032 296.597 692.554 297.195 692.554 297.793C692.554 298.51 693.152 298.988 693.75 298.988H696.38C698.652 298.988 699.848 299.347 699.369 301.021C696.5 310.348 692.076 317.043 674.379 316.924C655.846 316.804 652.02 298.63 657.52 279.618C658.596 275.792 657.52 274.237 655.726 277.227L642.813 297.554C642.454 298.032 641.258 299.228 639.226 299.228H637.432C636.715 299.228 636.236 299.825 636.236 300.423C636.236 301.141 636.834 301.619 637.552 301.619C639.226 301.619 639.823 302.456 639.226 303.413L634.443 310.826C626.671 293.01 613.518 271.009 606.583 262.998L606.703 262.639C623.921 261.563 649.389 245.421 653.454 231.072C660.629 206.082 636.356 196.756 623.084 196.756H564.853C557.081 196.756 556.603 202.615 564.016 202.615C568.081 202.615 571.549 206.082 569.755 209.669L556.842 232.866C555.766 234.779 551.82 234.66 546.559 234.66H540.939C540.221 234.66 539.743 235.257 539.743 235.855C539.743 236.573 540.341 237.051 540.939 237.051H546.439C550.146 237.051 554.211 237.29 552.896 239.921L537.591 267.422C536.873 268.737 534.841 268.857 529.699 268.857H524.079C523.362 268.857 522.884 269.455 522.884 270.052C522.884 270.77 523.482 271.248 524.079 271.248H529.58C533.645 271.248 535.199 271.846 534.004 273.879L513.677 310.706C511.285 313.337 508.296 313.815 503.394 313.815C495.98 313.815 496.1 319.674 503.752 319.674H553.613C561.385 319.674 559.353 313.696 554.809 313.696C552.178 313.696 549.309 308.793 551.102 305.804L576.571 257.617H579.201C590.561 257.617 593.311 276.15 595.343 296.477C595.463 297.912 592.713 298.032 587.093 298.032H572.984C572.266 298.032 571.788 298.63 571.788 299.228C571.788 299.945 572.386 300.423 572.984 300.423H586.973C590.68 300.423 595.822 300.423 596.061 301.619C597.017 310.467 597.735 318.359 599.409 325.533C599.887 327.805 595.941 327.446 591.756 327.446H573.701C572.984 327.446 572.505 328.044 572.505 328.642C572.505 329.359 573.103 329.838 573.701 329.838H591.756C597.376 329.838 600.365 329.838 600.604 331.033C608.377 359.491 641.617 381.851 674.021 380.655C701.761 379.579 725.197 364.513 737.273 354.828C753.176 342.034 776.731 315.25 786.178 295.64C787.612 293.01 790.482 288.466 789.884 285.238ZM603.235 247.334C599.289 250.562 593.191 254.15 591.995 253.073C590.321 251.399 585.18 247.932 582.43 246.617L605.507 204.408C606.463 202.973 607.54 202.136 610.051 202.136C619.018 202.136 622.008 211.941 617.823 224.018C614.953 232.507 610.17 241.714 603.235 247.334Z" fill="#552C81"/>
<path d="M322.481 159.678C317.818 165.776 311.6 167.211 304.665 167.211H302.752L315.068 142.938C315.666 141.862 316.981 140.906 318.535 140.906C320.09 140.906 319.851 137.797 317.818 137.797H298.447C296.773 137.797 296.176 140.906 297.73 140.906C299.404 140.906 299.643 142.699 298.926 144.254L287.925 165.896C287.208 167.092 286.012 167.331 284.577 167.689C283.023 168.168 281.827 171.157 283.74 171.157H314.589C316.981 171.157 317.579 170.32 318.177 169.363L324.394 159.798C325.231 158.602 323.438 158.483 322.481 159.678Z" fill="#552583"/>
<path d="M415.507 138.753C414.55 139.231 412.398 139.59 411.441 138.753C408.93 136.72 404.148 135.166 401.637 135.166C394.343 135.166 389.082 136.601 385.973 143.416C383.223 149.275 386.092 154.178 392.43 157.167C395.18 158.482 398.886 160.156 397.452 163.504C396.375 165.896 393.625 166.254 390.995 166.135C387.527 166.135 382.386 163.504 381.549 158.602C381.31 157.047 379.396 157.406 378.918 158.243L374.494 166.972C373.777 168.167 375.57 169.483 376.288 168.646C377.722 167.091 380.951 166.733 382.625 167.689C384.777 169.124 390.397 171.755 393.745 171.635C401.158 171.635 405.941 169.722 410.007 163.385C413.713 157.645 411.441 151.906 404.745 148.677C401.158 147.003 398.169 144.014 399.723 140.786C400.8 138.634 403.908 139.112 405.463 139.351C408.452 139.829 412.278 142.699 412.757 145.21C412.996 146.286 414.311 146.525 414.909 145.569L417.181 140.188C417.779 139.231 416.105 138.394 415.507 138.753Z" fill="#552583"/>
<path d="M629.657 147.482L632.288 142.579C633.483 140.427 631.57 137.916 628.461 137.916H592.471C589.84 137.916 590.677 140.666 591.753 140.666C594.025 140.666 594.743 143.536 593.308 145.808L582.427 165.776C580.872 167.689 579.796 168.526 577.405 168.526C575.492 168.526 574.894 171.276 577.525 171.276H613.993C615.428 171.276 616.146 170.798 616.624 169.961L621.646 163.385C622.842 161.83 620.211 161.83 619.494 162.548C613.156 168.885 606.46 168.646 601.558 168.646H597.373L602.395 157.526H603.471C606.7 157.526 610.406 157.526 611.363 159.917C611.602 160.515 613.156 160.993 613.874 159.917L618.178 151.427C618.896 150.112 616.983 149.873 616.385 150.83C614.711 153.819 607.297 152.982 605.384 152.982H604.308L610.526 140.666H617.461C621.766 140.666 625.472 143.775 626.668 147.003C626.907 147.84 629.179 148.438 629.657 147.482Z" fill="#552583"/>
<path d="M537.468 137.796H524.674C522.044 137.796 522.881 140.546 523.957 140.546C526.707 140.546 529.218 143.774 527.664 146.764L522.403 156.449L510.685 139.35C509.848 138.274 508.054 137.796 506.5 137.796H493.825C491.195 137.796 491.793 140.427 492.869 140.427C495.499 140.427 494.901 142.459 494.184 143.894L484.14 163.264C483.542 164.819 480.792 165.058 479.955 163.025L472.183 137.676C471.824 136.72 467.281 136.72 466.205 137.676L446.715 153.699H436.671C434.638 153.699 433.921 154.536 433.921 155.612C433.921 156.688 434.638 157.645 436.79 157.645H442.051L436.79 161.949C433.801 164.101 430.812 167.091 428.899 167.091H427.703C425.79 167.091 424.714 167.449 424.714 168.884C424.714 170.439 425.551 170.917 427.344 170.917H443.127C446.117 170.917 445.519 167.091 444.084 167.091C442.41 167.091 439.78 165.058 442.29 162.069L447.073 157.525H456.519C462.139 157.525 466.085 163.982 462.737 166.015L460.106 167.449C458.911 168.047 458.313 170.917 460.106 170.917H490.836C493.108 170.917 492.63 167.928 491.553 167.928C488.445 167.928 489.88 163.384 490.477 162.188L498.608 146.883L509.967 168.884C510.685 170.2 511.402 170.917 512.717 170.917H517.022C518.457 170.917 518.816 170.08 519.533 169.004L532.447 145.688C534.479 141.503 536.153 140.307 538.784 140.307C539.262 140.546 540.099 137.796 537.468 137.796ZM451.497 153.818L463.454 144.014V153.818H451.497Z" fill="#552583"/>
<path d="M355.363 136.361C344.602 136.361 333.362 141.742 331.21 152.982C329.297 162.906 336.112 173.069 348.189 173.069C359.667 173.069 370.309 165.536 372.461 154.656C374.494 143.775 366.363 136.361 355.363 136.361ZM358.472 157.167C355.004 163.982 349.265 168.047 345.678 166.254C341.971 164.46 341.851 157.406 345.319 150.59C348.787 143.775 354.526 139.709 358.113 141.503C361.7 143.296 361.82 150.351 358.472 157.167Z" fill="#552583"/>
<path d="M574.057 152.982H560.187C557.556 152.982 558.393 155.732 559.469 155.732C560.546 155.732 561.622 156.33 561.622 158.004C561.622 163.624 559.23 165.776 554.447 165.776C549.186 165.776 547.273 159.319 550.86 151.547C553.132 146.525 559.111 141.862 566.285 141.862C570.709 141.862 574.296 142.819 574.894 146.884C575.013 147.841 576.568 147.841 577.046 146.884L580.394 141.025C580.753 140.427 580.155 139.59 579.198 139.59C578.361 139.59 576.448 140.666 575.253 139.71C572.503 137.677 566.404 135.645 561.861 135.645C554.447 135.645 544.045 137.319 536.99 149.515C530.653 160.515 539.86 172.233 548.469 172.233C553.252 172.233 558.752 168.765 561.98 167.331L565.567 169.722C566.046 170.32 567.241 171.157 568.318 171.157H569.633C570.829 171.157 571.307 169.483 571.785 168.407L577.285 155.254C577.405 153.939 577.046 152.982 574.057 152.982Z" fill="#552583"/>
<path d="M764.293 138.753C763.337 139.231 761.185 139.59 760.228 138.753C757.717 136.72 752.934 135.166 750.423 135.166C743.129 135.166 737.868 136.601 734.76 143.416C732.009 149.275 734.879 154.178 741.216 157.167C743.966 158.482 747.673 160.156 746.238 163.504C745.162 165.896 742.292 166.254 739.781 166.135C736.314 166.135 731.172 163.504 730.335 158.602C730.096 157.047 728.183 157.406 727.705 158.243L723.281 166.972C722.563 168.167 724.357 169.483 725.074 168.646C726.509 167.091 729.738 166.733 731.412 167.689C733.564 169.124 739.184 171.755 742.532 171.635C749.945 171.635 754.728 169.722 758.793 163.385C762.5 157.645 760.228 151.906 753.532 148.677C749.945 147.003 746.956 144.014 748.51 140.786C749.586 138.634 752.695 139.112 754.249 139.351C757.239 139.829 761.065 142.699 761.543 145.21C761.782 146.286 763.098 146.525 763.695 145.569L765.967 140.188C766.565 139.231 764.891 138.394 764.293 138.753Z" fill="#552583"/>
<path d="M667.681 159.678C663.017 165.776 656.8 167.211 649.865 167.211H647.951L660.267 142.938C660.865 141.862 662.18 140.906 663.735 140.906C665.289 140.906 665.05 137.797 663.017 137.797H643.647C641.973 137.797 641.375 140.906 642.929 140.906C644.603 140.906 644.843 142.699 644.125 144.254L633.125 165.896C632.407 167.092 631.212 167.331 629.777 167.689C628.222 168.168 627.027 171.157 628.94 171.157H659.789C662.18 171.157 662.778 170.32 663.376 169.363L669.594 159.798C670.431 158.602 668.637 158.483 667.681 159.678Z" fill="#552583"/>
<path d="M714.313 140.666C718.617 140.666 722.324 143.775 723.52 147.003C723.759 147.84 726.15 148.438 726.629 147.482L729.259 142.579C730.455 140.427 728.542 137.916 725.433 137.916H689.323C686.692 137.916 687.529 140.666 688.605 140.666C690.877 140.666 691.595 143.536 690.16 145.808L679.279 165.776C677.605 167.689 676.648 168.526 674.257 168.526C672.463 168.526 671.746 171.276 674.376 171.276H710.845C712.28 171.276 712.998 170.798 713.476 169.961L718.498 163.385C719.694 161.83 717.063 161.83 716.346 162.548C710.008 168.885 703.312 168.646 698.41 168.646H694.225L699.247 157.526H700.323C703.552 157.526 707.258 157.526 708.215 159.917C708.454 160.515 710.008 160.993 710.726 159.917L715.03 151.427C715.748 150.112 713.835 149.993 713.237 150.83C711.563 153.819 704.149 152.982 702.236 152.982H701.16L707.378 140.666H714.313Z" fill="#552583"/>
<path d="M572.263 111.49C569.513 108.262 565.687 101.566 538.186 77.532C497.771 42.2587 444.204 26.2363 393.865 26.2363C356.798 26.2363 324.275 34.6062 288.404 54.3353C242.608 79.5647 223.596 108.501 218.933 114.479C215.466 118.784 214.987 121.295 217.259 122.61C218.814 123.567 221.922 120.219 224.792 116.392C238.423 98.3372 256.359 80.5212 275.131 70.1186C280.99 70.9556 289.241 79.0864 292.349 83.5105C280.273 90.0869 260.304 105.272 252.652 111.131C246.076 116.153 243.804 119.023 245.597 121.056C247.032 122.73 252.054 119.382 256.239 115.914C263.533 109.936 285.056 94.7501 295.697 89.0107C302.991 97.5002 300.6 113.164 298.089 116.631C296.773 118.425 296.534 120.458 298.089 121.295C299.643 122.132 301.198 119.979 303.35 116.99C308.252 109.816 306.339 92.5978 302.035 86.3802C315.068 78.369 333.721 72.8687 344.96 70.3578C345.917 72.1513 359.667 112.207 362.178 119.501C363.613 123.447 365.048 128.23 367.918 127.393C369.831 126.795 368.516 122.49 366.961 118.066C364.929 112.686 354.645 79.0864 351.417 69.0425C355.124 67.0098 377.603 62.4661 383.223 62.7053C380.473 77.2928 390.756 83.3909 402.474 91.0434C408.691 95.1088 448.269 117.827 456.519 122.969C461.183 125.838 464.889 127.752 465.846 126.317C467.042 124.762 463.813 121.414 459.509 118.903C456.041 116.871 419.213 95.5871 403.908 85.7823C392.908 78.8473 387.049 71.4339 389.68 61.6291C393.267 60.553 404.387 60.4334 415.865 60.553C494.304 61.1509 557.198 106.109 564.133 113.403C567.72 117.11 572.622 120.219 574.535 118.664C576.09 117.468 573.937 113.403 572.263 111.49ZM298.926 80.5212C296.773 76.9341 286.849 67.8468 281.468 66.0532C294.023 56.7267 323.198 43.3349 334.319 41.0631C336.232 44.2915 341.373 57.8029 343.047 63.5423C333.242 65.6945 307.176 75.021 298.926 80.5212ZM384.538 55.2919C374.255 55.8898 355.722 59.9552 349.145 61.8683C347.471 57.4442 342.808 43.574 341.254 39.1499C360.146 33.7692 381.907 31.9757 398.767 33.4105C394.223 36.9976 386.332 51.2265 384.538 55.2919ZM435.475 54.6941C418.496 53.4984 404.626 53.0201 392.43 54.2158C395.897 45.3676 402.952 37.1172 408.452 33.4105C420.05 33.8888 432.007 35.5628 441.453 37.4759C471.824 43.4544 518.935 61.9878 539.262 89.2499C512.239 71.0752 467.161 56.8463 435.475 54.6941Z" fill="black"/>
<path d="M589.242 379.926C592.112 374.545 594.503 371.556 591.992 370.121C589.721 368.806 587.568 373.828 584.699 378.611C575.492 394.514 565.567 407.666 542.969 428.232C517.978 451.07 489.162 464.343 479.118 467.691C470.629 443.777 438.106 341.664 437.269 338.794C435.953 334.489 434.877 333.174 433.442 333.652C431.768 334.25 432.844 336.642 433.681 340.468C434.518 344.294 473.259 465.06 474.455 469.245C466.802 473.071 435.595 481.8 413.833 482.517C394.462 483.115 371.624 482.517 360.146 479.887C346.634 469.006 316.024 425.722 304.306 402.644C290.556 375.502 281.468 350.512 279.197 339.87C278.12 334.848 276.686 331.141 274.055 331.62C271.305 332.098 272.859 336.163 274.533 341.544C278.718 355.534 285.414 375.382 299.643 403.601C314.829 433.494 341.851 468.528 349.743 478.093C324.992 472.952 294.98 461.353 266.522 440.07C241.891 421.776 220.846 398.46 210.205 381.361C208.411 378.491 206.259 374.306 203.628 376.1C202.432 376.937 203.867 380.165 205.78 383.513C221.205 411.253 258.87 450.473 307.056 471.995C363.255 497.105 424.475 495.79 479.238 474.506C527.066 455.973 568.676 417.83 589.242 379.926Z" fill="black"/>
</g>
<defs>
<clipPath id="clip0_876_1795">
<rect width="827.19" height="512" fill="white" transform="translate(0 0.0507812)"/>
</clipPath>
</defs>
</svg>
