<svg width="526" height="513" viewBox="0 0 526 513" fill="none" xmlns="http://www.w3.org/2000/svg">
<g clip-path="url(#clip0_820_294)">
<path d="M432.522 0.0507812H93.3762C42.0185 0.0507812 0.384766 41.6845 0.384766 93.0422V419.059C0.384766 470.417 42.0185 512.051 93.3762 512.051H432.522C483.879 512.051 525.513 470.417 525.513 419.059V93.0422C525.513 41.6845 483.879 0.0507812 432.522 0.0507812Z" fill="#49021F"/>
<path d="M191.09 133.988V358.386C191.09 360.736 190.033 361.91 187.92 361.909H145.294C143.412 361.909 142.473 360.734 142.477 358.386V133.988C142.477 132.111 143.533 131.171 145.646 131.169H188.272C188.654 131.115 189.045 131.15 189.411 131.273C189.778 131.395 190.111 131.601 190.385 131.875C190.658 132.148 190.864 132.481 190.986 132.848C191.109 133.215 191.144 133.605 191.09 133.988Z" fill="#FF3366"/>
<path d="M317.204 365.448C300.99 365.695 284.924 362.325 270.175 355.584C256.436 349.225 244.951 338.845 237.238 325.817C229.251 312.552 225.259 295.936 225.261 275.971C225.128 259.803 229.26 243.885 237.238 229.823C245.457 215.498 257.543 203.778 272.114 196.004C287.376 187.55 305.812 183.322 327.42 183.323C328.592 183.323 330.119 183.381 331.999 183.499C333.876 183.62 336.107 183.796 338.693 184.027V114.629C338.693 112.989 339.398 112.163 340.807 112.163H385.193C385.48 112.122 385.772 112.149 386.048 112.24C386.323 112.332 386.573 112.486 386.778 112.691C386.983 112.897 387.138 113.146 387.229 113.422C387.321 113.697 387.348 113.989 387.307 114.277V322.47C387.307 326.467 387.483 330.811 387.835 335.505C388.187 340.205 388.481 344.432 388.716 348.186C388.759 348.918 388.581 349.646 388.203 350.274C387.826 350.903 387.268 351.403 386.602 351.709C375.151 356.485 363.224 360.028 351.023 362.277C339.866 364.336 328.549 365.397 317.204 365.448ZM338.693 321.766V225.596C336.789 225.08 334.844 224.726 332.881 224.538C330.481 224.297 328.07 224.18 325.658 224.186C317.11 224.101 308.662 226.032 300.999 229.823C293.536 233.532 287.164 239.116 282.506 246.027C277.689 253.073 275.282 262.349 275.283 273.857C275.112 281.536 276.366 289.18 278.982 296.402C281.111 302.221 284.477 307.509 288.846 311.902C293.03 315.944 298.094 318.959 303.641 320.709C309.501 322.607 315.625 323.558 321.783 323.527C325.07 323.527 328.123 323.41 330.942 323.175C333.568 322.977 336.165 322.505 338.693 321.766Z" fill="#FF3366"/>
</g>
<defs>
<clipPath id="clip0_820_294">
<rect width="525.128" height="512" fill="white" transform="translate(0.384766 0.0507812)"/>
</clipPath>
</defs>
</svg>
