<svg width="1024" height="225" viewBox="0 0 1024 225" fill="none" xmlns="http://www.w3.org/2000/svg">
<g clip-path="url(#clip0_807_2862)">
<path d="M246.923 12.1852L247.234 12.116V9.73065H184.401L126.063 147.833L67.7245 9.722H0.0259284V12.1247L0.328424 12.1938C11.7973 14.8039 17.6139 18.6932 17.6139 32.7117V196.863C17.6139 210.89 11.7714 214.78 0.302495 217.381L0 217.442V219.853H45.9361V217.45L45.6336 217.381C34.1647 214.771 28.3482 210.89 28.3482 196.863V42.2273L103.281 219.853H107.533L184.661 37.275V200.908C183.675 211.988 177.902 215.402 167.522 217.761L167.211 217.839V220.216H247.234V217.848L246.923 217.779C236.526 215.41 230.623 211.988 229.637 200.925L229.586 32.703H229.637C229.637 18.6845 235.463 14.7953 246.923 12.1852ZM283.482 120.928C284.778 91.4391 295.296 70.152 312.953 69.7804C318.39 69.8668 322.953 71.6731 326.505 75.1389C334.042 82.5025 337.585 97.9038 337.041 120.928H283.482ZM282.687 129.242H376.46V128.845C376.201 106.287 369.719 88.7425 357.204 76.7032C346.401 66.2974 330.386 60.5672 313.576 60.5672H313.204C304.475 60.5672 293.775 62.6933 286.152 66.5566C277.3 70.7268 269.539 76.8991 263.482 84.5854C253.241 97.368 247.035 114.636 245.523 134.056C245.349 136.228 245.234 138.404 245.177 140.582C245.137 142.264 245.134 143.955 245.168 145.655C246.18 189.621 269.766 224.762 311.648 224.762C348.415 224.762 369.814 197.693 375.155 161.359L372.459 160.408C363.081 179.932 346.237 191.764 327.067 190.321C300.897 188.35 280.854 161.627 282.669 129.251M482.507 188.825C479.43 196.172 473.008 200.225 464.409 200.225C455.809 200.225 447.944 194.27 442.352 183.467C436.354 171.868 433.191 155.464 433.191 136.044C433.191 95.6135 445.68 69.4606 464.996 69.4606C473.095 69.4606 479.464 73.5054 482.507 80.5579V188.825ZM544.717 217.649C533.248 214.918 527.432 210.847 527.432 196.111V0.0507812L457.754 20.7242V23.2565L458.186 23.222C467.788 22.4441 474.313 23.7751 478.099 27.3013C481.063 30.067 482.507 34.2933 482.507 40.2481V67.1271C475.636 62.7106 467.468 60.5499 457.546 60.5499C437.443 60.5499 419.06 69.0803 405.811 84.5681C391.991 100.704 384.688 122.769 384.688 148.351C384.688 194.046 407.021 224.753 440.261 224.753C459.707 224.753 475.35 214.019 482.507 195.921V220.216H545.02V217.709L544.717 217.649ZM604.473 26.7136C604.473 12.4531 593.791 1.68426 579.625 1.68426C565.52 1.68426 554.492 12.6778 554.492 26.7136C554.492 40.7494 565.537 51.743 579.625 51.743C593.799 51.743 604.473 40.9828 604.473 26.7136ZM620.92 217.649C609.451 214.918 603.635 210.847 603.635 196.111H603.583V61.0253L541.061 79.1059V81.5604L541.433 81.595C554.967 82.805 558.666 87.498 558.666 103.418V220.224H621.24V217.718L620.92 217.649ZM781.122 217.649C769.653 214.918 763.836 210.847 763.836 196.111V61.0253L704.296 78.5095V80.9727L704.642 81.0073C715.705 82.1827 718.903 87.1436 718.903 103.133V188.523C715.221 195.869 708.298 200.242 699.923 200.536C686.328 200.536 678.844 191.289 678.844 174.504V61.0253L616.322 79.1059V81.5604L616.702 81.595C630.228 82.805 633.936 87.498 633.936 103.418V175.688C633.9 180.734 634.334 185.771 635.232 190.735L636.356 195.662C641.663 214.78 655.534 224.762 677.262 224.762C695.662 224.762 711.798 213.284 718.903 195.333V220.268H781.416V217.753L781.122 217.649ZM1024 220.224V217.709L1023.7 217.632C1011.25 214.745 1006.4 209.3 1006.4 198.203V106.313C1006.4 77.6626 990.432 60.5499 963.665 60.5499C944.158 60.5499 927.711 71.9065 921.376 89.5895C916.346 70.8521 901.869 60.5499 880.461 60.5499C861.663 60.5499 846.928 70.5409 840.601 87.4288V61.0339L778.088 78.3713V80.8431L778.46 80.8777C791.83 82.0704 795.693 86.9016 795.693 102.415V220.224H854.032V217.718L853.712 217.632C843.79 215.289 840.584 211.003 840.584 200V94.6887C843.211 88.5092 848.509 81.1888 858.967 81.1888C871.966 81.1888 878.551 90.2637 878.551 108.12V220.233H936.898V217.727L936.596 217.64C926.665 215.298 923.459 211.011 923.459 200.009V106.305C923.489 102.801 923.214 99.3024 922.638 95.8469C925.421 89.1315 931.021 81.1888 941.911 81.1888C955.083 81.1888 961.487 90.0044 961.487 108.12V220.233L1024 220.224Z" fill="black"/>
</g>
<defs>
<clipPath id="clip0_807_2862">
<rect width="1024" height="224.711" fill="white" transform="translate(0 0.0507812)"/>
</clipPath>
</defs>
</svg>
