<svg width="1025" height="369" viewBox="0 0 1025 369" fill="none" xmlns="http://www.w3.org/2000/svg">
<g clip-path="url(#clip0_861_264)">
<path d="M184.106 0.0156276L0.0712891 184.051L184.106 368.086L368.142 184.051L184.106 0.0156276Z" fill="url(#paint0_linear_861_264)"/>
<path d="M194.214 45.1641L119.716 119.689L194.214 194.187V45.1641Z" fill="url(#paint1_linear_861_264)"/>
<path d="M173.86 322.963L248.385 248.465L173.86 173.967V322.963Z" fill="url(#paint2_linear_861_264)"/>
<path d="M478.345 70.6807C476.11 69.8825 473.849 69.2706 471.534 68.8715C469.219 68.4724 466.957 68.2595 464.723 68.2595C463.312 68.2595 461.902 68.3926 460.519 68.6852C459.109 68.9779 457.885 69.4036 456.874 70.0155C455.836 70.6275 455.011 71.4523 454.373 72.5166C453.734 73.5808 453.415 74.8313 453.415 76.2681C453.415 77.4654 453.628 78.5296 454.08 79.4609C454.532 80.3655 455.224 81.2435 456.235 82.0949C457.219 82.9197 458.523 83.7445 460.093 84.5427C461.663 85.3409 463.605 86.1923 465.893 87.1235C468.58 88.1612 471.028 89.2521 473.237 90.4228C475.445 91.5934 477.307 92.9238 478.851 94.3871C480.394 95.8505 481.564 97.5267 482.363 99.4158C483.161 101.305 483.56 103.513 483.56 106.041C483.56 109.021 482.948 111.628 481.751 113.863C480.553 116.098 478.904 117.934 476.775 119.371C474.673 120.807 472.279 121.872 469.618 122.563C466.957 123.255 464.217 123.601 461.397 123.601C458.576 123.601 455.517 123.335 452.164 122.776C448.812 122.244 445.646 121.366 442.586 120.142L444.688 111.788C447.561 113.038 450.435 113.97 453.335 114.528C456.235 115.087 458.869 115.38 461.211 115.38C464.962 115.38 467.915 114.661 470.07 113.198C472.226 111.735 473.316 109.579 473.316 106.706C473.316 105.402 473.024 104.205 472.438 103.141C471.853 102.076 470.975 101.119 469.858 100.214C468.714 99.3359 467.277 98.4579 465.547 97.6331C463.818 96.8083 461.849 95.9569 459.614 95.1055C456.98 94.0678 454.665 92.977 452.617 91.8063C450.594 90.6356 448.892 89.3319 447.482 87.8951C446.071 86.4584 444.981 84.862 444.236 83.0793C443.464 81.2967 443.091 79.3278 443.091 77.1461C443.091 74.2726 443.703 71.745 444.927 69.5898C446.151 67.4081 447.774 65.6255 449.796 64.2153C451.818 62.8052 454.08 61.7675 456.554 61.129C459.055 60.4638 461.636 60.1445 464.323 60.1445C467.25 60.1445 470.07 60.3574 472.811 60.7565C475.525 61.1556 478.026 61.7675 480.314 62.5657L478.292 70.7339L478.345 70.6807ZM537.012 99.7616C537.012 103.487 536.48 106.812 535.443 109.739C534.378 112.666 532.888 115.167 530.92 117.216C528.951 119.291 526.583 120.861 523.816 121.951C521.022 123.042 517.909 123.574 514.45 123.574C510.991 123.574 507.878 123.042 505.085 121.951C502.291 120.861 499.923 119.291 497.981 117.216C496.012 115.14 494.522 112.666 493.458 109.739C492.393 106.812 491.888 103.487 491.888 99.7616C491.888 96.0367 492.42 92.7907 493.458 89.8374C494.522 86.8841 496.012 84.4097 497.981 82.3876C499.95 80.3921 502.318 78.8223 505.085 77.7314C507.878 76.6406 510.991 76.1084 514.45 76.1084C517.909 76.1084 521.022 76.6406 523.816 77.7048C526.609 78.7691 528.977 80.3123 530.92 82.361C532.888 84.4097 534.378 86.8841 535.443 89.8374C536.507 92.7907 537.012 96.1166 537.012 99.7616ZM527.008 99.7616C527.008 97.4203 526.769 95.2385 526.263 93.2696C525.758 91.3008 525.013 89.598 523.975 88.1612C522.938 86.7244 521.661 85.607 520.064 84.8088C518.494 84.0106 516.605 83.6115 514.45 83.6115C512.295 83.6115 510.406 84.0106 508.836 84.8088C507.266 85.607 505.963 86.7511 504.925 88.2144C503.887 89.6778 503.142 91.3806 502.637 93.3229C502.131 95.2651 501.892 97.4203 501.892 99.7616C501.892 104.631 502.93 108.568 505.005 111.548C507.08 114.528 510.22 116.045 514.45 116.098C518.734 116.045 521.9 114.528 523.949 111.575C525.997 108.622 527.008 104.684 527.008 99.735V99.7616ZM556.169 77.1461V83.5051H556.355C557.633 81.1637 559.575 79.3278 562.156 78.0507C564.736 76.747 567.583 76.1084 570.67 76.1084C575.831 76.1084 579.929 77.5984 582.962 80.5783C585.995 83.5583 587.538 87.5759 587.538 92.6311V122.563H577.534V96.3294C577.534 94.3871 577.401 92.6045 577.109 91.0081C576.816 89.4117 576.284 88.0548 575.539 86.9639C574.767 85.873 573.783 85.0482 572.559 84.4629C571.335 83.9042 569.738 83.6115 567.823 83.6115C566.413 83.6115 565.029 83.8775 563.699 84.3831C562.342 84.8886 561.145 85.7134 560.107 86.7777C559.043 87.8685 558.191 89.2787 557.526 91.0347C556.861 92.7907 556.515 94.9193 556.515 97.4469V122.563H546.511V77.1461H556.249H556.169ZM616.965 110.59H617.151L629.523 77.1461H640.06L614.863 139.326H604.327L611.803 121.606L593.631 77.1461H604.513L616.992 110.59H616.965ZM445.938 151.724H456.208V213.132H445.938V151.724ZM479.037 167.715V174.074H479.223C480.5 171.732 482.443 169.896 485.023 168.619C487.604 167.316 490.451 166.677 493.537 166.677C498.699 166.677 502.796 168.167 505.83 171.147C508.863 174.127 510.406 178.144 510.406 183.2V213.132H500.402V186.898C500.402 184.956 500.269 183.173 499.976 181.577C499.684 179.98 499.151 178.623 498.406 177.533C497.635 176.442 496.65 175.617 495.426 175.031C494.203 174.446 492.606 174.18 490.69 174.18C489.28 174.18 487.897 174.446 486.567 174.952C485.21 175.457 484.012 176.282 482.975 177.346C481.91 178.437 481.059 179.847 480.394 181.603C479.729 183.359 479.383 185.488 479.383 188.015V213.132H469.379V167.715H479.117H479.037ZM517.962 167.715H525.705V155.928H535.709V167.715H545.899V175.191H535.709V198.924C535.709 200.467 535.762 201.718 535.895 202.676C536.001 203.607 536.267 204.352 536.693 204.857C537.092 205.363 537.651 205.709 538.369 205.895C539.061 206.055 540.046 206.161 541.27 206.161C542.148 206.161 542.946 206.135 543.691 206.081C544.409 206.028 545.127 205.948 545.846 205.815V213.132C544.861 213.238 543.691 213.372 542.334 213.478C540.977 213.584 539.646 213.638 538.29 213.638C535.602 213.638 533.421 213.345 531.798 212.786C530.148 212.201 528.897 211.376 527.966 210.259C527.062 209.141 526.45 207.784 526.157 206.214C525.864 204.645 525.705 202.809 525.705 200.76V175.218H517.962V167.741V167.715ZM561.783 193.257C562.129 197.567 563.752 200.866 566.626 203.181C569.499 205.496 573.171 206.667 577.694 206.667C579.636 206.667 581.632 206.507 583.707 206.188C585.782 205.868 587.698 205.39 589.454 204.778L590.784 212.094C586.74 213.478 582.084 214.143 576.816 214.143C572.825 214.143 569.286 213.558 566.2 212.387C563.087 211.216 560.506 209.567 558.378 207.491C556.276 205.39 554.679 202.915 553.588 200.015C552.497 197.115 551.965 193.949 551.965 190.516C551.965 187.084 552.471 183.891 553.508 180.965C554.546 178.038 556.01 175.51 557.952 173.408C559.894 171.307 562.209 169.63 564.949 168.46C567.663 167.289 570.723 166.704 574.129 166.704C577.534 166.704 580.381 167.236 582.855 168.3C585.357 169.364 587.432 170.854 589.135 172.77C590.837 174.686 592.115 177.054 592.966 179.821C593.817 182.614 594.243 185.674 594.243 189.053V193.257H561.836H561.783ZM574.075 173.728C570.563 173.728 567.743 174.872 565.588 177.133C563.459 179.395 562.182 182.375 561.757 186.047H584.851V185.887C584.904 182.215 583.946 179.289 582.004 177.08C580.035 174.872 577.401 173.781 574.049 173.781L574.075 173.728ZM628.353 174.499C627.342 174.26 626.091 174.153 624.575 174.153C623.218 174.1 621.834 174.34 620.371 174.872C618.907 175.431 617.683 176.255 616.672 177.399C615.688 178.544 614.89 180.087 614.304 182.056C613.719 183.998 613.426 186.259 613.426 188.84V213.105H603.422V167.688H613.16V173.701H613.347C615.449 168.992 619.493 166.65 625.479 166.65C625.958 166.65 626.464 166.65 627.049 166.704C627.634 166.73 628.22 166.783 628.805 166.837L628.379 174.499H628.353ZM660.414 183.519C660.414 180.486 659.536 178.171 657.779 176.548C656.023 174.952 653.31 174.153 649.611 174.153C647.962 174.153 646.073 174.366 643.944 174.792C641.816 175.218 639.74 175.83 637.745 176.628L635.723 169.311C637.292 168.673 639.527 168.087 642.401 167.502C645.274 166.916 647.908 166.65 650.303 166.65C656.928 166.65 661.93 168.061 665.309 170.907C668.688 173.754 670.418 177.958 670.418 183.519V202.782C670.418 204.378 670.471 206.135 670.604 208.024C670.71 209.913 670.923 211.615 671.216 213.105H662.329C662.09 212.307 661.903 211.323 661.717 210.179C661.531 209.035 661.398 207.944 661.292 206.906H661.105C659.935 209.035 658.152 210.764 655.757 212.121C653.363 213.478 650.463 214.143 647.057 214.143C645.062 214.143 643.119 213.904 641.204 213.425C639.288 212.946 637.585 212.148 636.069 211.03C634.552 209.913 633.328 208.449 632.37 206.693C631.439 204.911 630.96 202.755 630.96 200.254C630.96 196.982 631.758 194.321 633.328 192.246C634.898 190.171 637.053 188.601 639.793 187.483C642.534 186.366 645.647 185.594 649.159 185.195C652.671 184.796 656.423 184.583 660.414 184.583V183.546V183.519ZM658.471 191.075C656.13 191.075 653.868 191.182 651.713 191.421C649.531 191.661 647.642 192.086 645.993 192.751C644.343 193.417 643.039 194.295 642.082 195.412C641.124 196.53 640.645 197.993 640.645 199.749C640.645 201.931 641.283 203.66 642.587 204.964C643.864 206.241 645.807 206.906 648.387 206.906C650.436 206.906 652.245 206.56 653.788 205.868C655.332 205.177 656.609 204.272 657.567 203.128C658.524 201.984 659.243 200.68 659.722 199.217C660.201 197.753 660.414 196.21 660.414 194.614V191.075H658.471ZM712.323 175.776C711.046 175.191 709.662 174.792 708.199 174.526C706.735 174.26 705.352 174.127 704.075 174.127C701.68 174.127 699.552 174.553 697.716 175.404C695.88 176.255 694.337 177.426 693.113 178.889C691.889 180.353 690.931 182.082 690.293 184.104C689.654 186.1 689.335 188.228 689.335 190.463C689.335 192.698 689.654 194.8 690.293 196.742C690.931 198.685 691.862 200.414 693.113 201.904C694.337 203.394 695.933 204.565 697.849 205.39C699.791 206.214 701.92 206.64 704.261 206.64C705.724 206.64 707.135 206.534 708.465 206.294C709.822 206.055 711.179 205.629 712.589 205.017L714.265 212.414C712.509 213.052 710.753 213.478 708.997 213.744C707.241 214.01 705.458 214.116 703.649 214.116C699.658 214.116 696.146 213.505 693.06 212.307C690 211.11 687.446 209.434 685.424 207.305C683.402 205.177 681.885 202.702 680.847 199.829C679.81 196.955 679.304 193.842 679.304 190.463C679.304 187.084 679.863 183.758 680.98 180.885C682.098 177.985 683.694 175.484 685.77 173.408C687.845 171.307 690.372 169.657 693.352 168.46C696.332 167.262 699.738 166.65 703.543 166.65C707.693 166.65 711.285 167.183 714.265 168.273L712.323 175.75V175.776ZM719.427 167.688H727.169V155.901H737.173V167.688H747.364V175.165H737.173V198.898C737.173 200.441 737.227 201.691 737.36 202.649C737.466 203.58 737.732 204.325 738.158 204.831C738.557 205.336 739.116 205.682 739.834 205.868C740.526 206.028 741.51 206.135 742.734 206.135C743.612 206.135 744.41 206.108 745.155 206.055C745.874 206.001 746.592 205.922 747.31 205.789V213.105C746.326 213.212 745.155 213.345 743.798 213.451C742.441 213.558 741.111 213.611 739.754 213.611C737.067 213.611 734.885 213.318 733.262 212.76C731.613 212.174 730.362 211.349 729.431 210.232C728.526 209.114 727.914 207.758 727.622 206.188C727.329 204.618 727.169 202.782 727.169 200.733V175.191H719.427V167.715V167.688ZM766.76 150.314V159.44H756.49V150.314H766.76ZM766.574 167.688V213.105H756.569V167.688H766.574ZM796.958 204.405H797.144L809.437 167.688H820.053L802.652 213.105H790.972L773.757 167.688H784.639L796.932 204.405H796.958ZM832.611 193.23C832.957 197.541 834.58 200.84 837.453 203.155C840.327 205.469 843.999 206.64 848.522 206.64C850.464 206.64 852.459 206.48 854.535 206.161C856.61 205.842 858.526 205.363 860.282 204.751L861.585 212.068C857.541 213.451 852.885 214.116 847.617 214.116C843.626 214.116 840.087 213.531 837.001 212.36C833.888 211.19 831.307 209.54 829.179 207.465C827.077 205.363 825.48 202.889 824.39 199.988C823.299 197.088 822.767 193.922 822.767 190.49C822.767 187.058 823.272 183.865 824.31 180.938C825.347 178.011 826.811 175.484 828.753 173.382C830.695 171.253 833.01 169.604 835.751 168.433C838.464 167.262 841.524 166.677 844.93 166.677C848.335 166.677 851.182 167.209 853.657 168.273C856.158 169.338 858.233 170.828 859.936 172.743C861.639 174.659 862.916 177.027 863.767 179.794C864.619 182.588 865.044 185.647 865.044 189.027V193.23H832.638H832.611ZM844.903 173.701C841.391 173.701 838.571 174.845 836.416 177.107C834.287 179.368 833.01 182.348 832.584 186.02H855.679V185.86C855.732 182.189 854.774 179.262 852.832 177.054C850.863 174.845 848.229 173.754 844.877 173.754L844.903 173.701ZM445.885 242.266H481.99V250.434H456.155V268.075H479.968V276.323H456.155V295.506H482.762V303.674H445.859V242.266H445.885ZM503.329 258.257V264.616H503.515C504.792 262.274 506.734 260.438 509.315 259.161C511.896 257.858 514.743 257.219 517.829 257.219C522.991 257.219 527.088 258.709 530.121 261.689C533.155 264.669 534.698 268.686 534.698 273.742V303.674H524.694V277.44C524.694 275.498 524.561 273.715 524.268 272.119C523.975 270.522 523.443 269.165 522.698 268.075C521.927 266.984 520.942 266.159 519.718 265.573C518.494 265.015 516.898 264.722 514.982 264.722C513.572 264.722 512.189 264.988 510.858 265.494C509.501 265.999 508.304 266.824 507.266 267.888C506.202 268.979 505.351 270.389 504.686 272.145C504.02 273.901 503.674 276.03 503.674 278.557V303.674H493.67V258.257H503.408H503.329ZM542.254 258.257H549.996V246.47H560.001V258.257H570.191V265.733H560.001V289.466C560.001 291.009 560.054 292.26 560.187 293.218C560.293 294.149 560.559 294.894 560.985 295.399C561.384 295.905 561.943 296.251 562.661 296.437C563.353 296.597 564.337 296.703 565.561 296.703C566.439 296.703 567.237 296.677 567.982 296.623C568.701 296.57 569.419 296.49 570.138 296.357V303.674C569.153 303.78 567.982 303.913 566.626 304.02C565.269 304.126 563.938 304.18 562.581 304.18C559.894 304.18 557.712 303.887 556.089 303.328C554.44 302.743 553.189 301.918 552.258 300.801C551.353 299.683 550.741 298.326 550.449 296.756C550.156 295.187 549.996 293.351 549.996 291.302V265.76H542.254V258.283V258.257ZM586.075 283.799C586.421 288.109 588.044 291.408 590.917 293.723C593.791 296.038 597.462 297.209 601.986 297.209C603.928 297.209 605.923 297.049 607.999 296.73C610.074 296.41 611.99 295.932 613.746 295.32L615.076 302.636C611.032 304.02 606.376 304.685 601.108 304.685C597.117 304.685 593.578 304.1 590.492 302.929C587.379 301.758 584.798 300.109 582.669 298.033C580.567 295.932 578.971 293.457 577.88 290.557C576.789 287.657 576.257 284.491 576.257 281.058C576.257 277.626 576.763 274.433 577.8 271.507C578.838 268.58 580.301 266.052 582.244 263.95C584.186 261.849 586.501 260.172 589.241 259.002C591.955 257.831 595.015 257.246 598.42 257.246C601.826 257.246 604.673 257.778 607.147 258.842C609.648 259.906 611.724 261.396 613.426 263.312C615.129 265.228 616.406 267.596 617.258 270.363C618.109 273.156 618.535 276.216 618.535 279.595V283.799H586.128H586.075ZM598.367 264.27C594.855 264.27 592.035 265.414 589.88 267.675C587.751 269.937 586.474 272.917 586.048 276.589H609.143V276.429C609.196 272.757 608.238 269.831 606.296 267.622C604.327 265.414 601.693 264.323 598.341 264.323L598.367 264.27ZM652.644 265.041C651.633 264.802 650.383 264.695 648.866 264.695C647.509 264.642 646.126 264.882 644.662 265.414C643.199 265.973 641.975 266.797 640.964 267.941C639.98 269.086 639.182 270.629 638.596 272.598C638.011 274.54 637.718 276.801 637.718 279.382V303.647H627.714V258.23H637.452V264.243H637.638C639.74 259.534 643.784 257.192 649.771 257.192C650.25 257.192 650.755 257.192 651.341 257.246C651.926 257.272 652.511 257.325 653.097 257.379L652.671 265.041H652.644ZM656.955 258.257H664.697V246.47H674.701V258.257H684.892V265.733H674.701V289.466C674.701 291.009 674.754 292.26 674.887 293.218C674.994 294.149 675.26 294.894 675.686 295.399C676.085 295.905 676.644 296.251 677.362 296.437C678.054 296.597 679.038 296.703 680.262 296.703C681.14 296.703 681.938 296.677 682.683 296.623C683.402 296.57 684.12 296.49 684.838 296.357V303.674C683.854 303.78 682.683 303.913 681.326 304.02C679.969 304.126 678.639 304.18 677.282 304.18C674.595 304.18 672.413 303.887 670.79 303.328C669.14 302.743 667.89 301.918 666.959 300.801C666.054 299.683 665.442 298.326 665.149 296.756C664.857 295.187 664.697 293.351 664.697 291.302V265.76H656.955V258.283V258.257ZM720.278 274.088C720.278 271.054 719.4 268.74 717.644 267.117C715.888 265.52 713.174 264.722 709.476 264.722C707.826 264.722 705.937 264.935 703.809 265.361C701.68 265.786 699.605 266.398 697.609 267.196L695.587 259.88C697.157 259.241 699.392 258.656 702.266 258.07C705.139 257.485 707.773 257.219 710.168 257.219C716.793 257.219 721.795 258.629 725.174 261.476C728.579 264.323 730.282 268.527 730.282 274.088V293.351C730.282 294.947 730.335 296.703 730.468 298.592C730.575 300.481 730.788 302.184 731.08 303.674H722.194C721.954 302.876 721.768 301.891 721.582 300.747C721.396 299.603 721.263 298.512 721.156 297.475H720.97C719.799 299.603 718.017 301.333 715.622 302.69C713.227 304.047 710.327 304.712 706.922 304.712C704.926 304.712 702.984 304.472 701.068 303.993C699.153 303.514 697.45 302.716 695.933 301.599C694.417 300.481 693.193 299.018 692.235 297.262C691.304 295.479 690.825 293.324 690.825 290.823C690.825 287.55 691.623 284.89 693.193 282.815C694.763 280.739 696.918 279.169 699.658 278.052C702.399 276.934 705.512 276.163 709.024 275.764C712.536 275.365 716.287 275.152 720.278 275.152V274.114V274.088ZM718.336 281.644C715.995 281.644 713.733 281.75 711.578 281.99C709.396 282.229 707.507 282.655 705.857 283.32C704.208 283.985 702.904 284.863 701.946 285.981C700.988 287.098 700.51 288.562 700.51 290.318C700.51 292.499 701.148 294.229 702.452 295.532C703.729 296.81 705.671 297.475 708.252 297.475C710.301 297.475 712.11 297.129 713.653 296.437C715.196 295.745 716.473 294.841 717.431 293.697C718.389 292.552 719.108 291.249 719.586 289.785C720.065 288.322 720.278 286.779 720.278 285.182V281.644H718.336ZM752.845 240.883V250.009H742.574V240.883H752.845ZM752.658 258.257V303.674H742.654V258.257H752.658ZM775.833 258.257V264.616H776.019C777.296 262.274 779.238 260.438 781.819 259.161C784.4 257.858 787.247 257.219 790.333 257.219C795.495 257.219 799.592 258.709 802.625 261.689C805.659 264.669 807.202 268.686 807.202 273.742V303.674H797.198V277.44C797.198 275.498 797.065 273.715 796.772 272.119C796.479 270.522 795.947 269.165 795.202 268.075C794.431 266.984 793.446 266.159 792.222 265.573C790.998 265.015 789.402 264.722 787.486 264.722C786.076 264.722 784.693 264.988 783.362 265.494C782.005 265.999 780.808 266.824 779.77 267.888C778.706 268.979 777.855 270.389 777.19 272.145C776.524 273.901 776.179 276.03 776.179 278.557V303.674H766.174V258.257H775.912H775.833ZM828.194 258.257V264.802H828.381C829.551 262.381 831.387 260.518 833.915 259.215C836.442 257.884 839.13 257.246 842.003 257.246C848.841 257.246 853.417 259.72 855.705 264.642H855.971C857.621 262.008 859.696 260.093 862.251 258.922C864.805 257.751 867.545 257.192 870.472 257.246C873.292 257.246 875.74 257.645 877.842 258.443C879.944 259.241 881.7 260.385 883.057 261.849C884.414 263.312 885.452 265.041 886.143 267.063C886.808 269.059 887.154 271.294 887.154 273.768V303.701H877.15V277.467C877.15 275.178 877.044 273.343 876.804 271.959C876.565 270.576 876.113 269.325 875.447 268.181C874.782 267.037 873.851 266.185 872.627 265.6C871.43 265.041 869.913 264.749 868.104 264.749C866.88 264.749 865.656 264.962 864.406 265.387C863.182 265.813 862.091 266.478 861.16 267.356C860.229 268.234 859.457 269.431 858.872 270.868C858.286 272.332 857.994 274.034 857.994 275.977V303.674H847.99V276.934C847.99 275.045 847.883 273.343 847.644 271.826C847.404 270.309 846.978 269.006 846.34 267.968C845.701 266.904 844.77 266.106 843.573 265.547C842.376 265.015 840.859 264.722 839.05 264.722C837.693 264.722 836.389 264.988 835.085 265.494C833.808 265.999 832.691 266.771 831.733 267.782C830.802 268.793 830.03 270.123 829.418 271.826C828.806 273.529 828.487 275.604 828.487 278.052V303.674H818.483V258.257H828.221H828.194ZM905.832 283.799C906.178 288.109 907.801 291.408 910.674 293.723C913.548 296.038 917.22 297.209 921.743 297.209C923.685 297.209 925.681 297.049 927.756 296.73C929.831 296.41 931.747 295.932 933.503 295.32L934.807 302.636C930.762 304.02 926.106 304.685 920.838 304.685C916.847 304.685 913.309 304.1 910.222 302.929C907.109 301.758 904.528 300.109 902.4 298.033C900.298 295.932 898.702 293.457 897.611 290.557C896.52 287.657 895.988 284.491 895.988 281.058C895.988 277.626 896.493 274.433 897.531 271.507C898.569 268.58 900.032 266.052 901.974 263.95C903.916 261.849 906.231 260.172 908.972 259.002C911.686 257.831 914.745 257.246 918.151 257.246C921.557 257.246 924.403 257.778 926.878 258.842C929.379 259.906 931.454 261.396 933.157 263.312C934.86 265.228 936.137 267.596 936.988 270.363C937.84 273.156 938.265 276.216 938.265 279.595V283.799H905.859H905.832ZM918.124 264.27C914.612 264.27 911.792 265.414 909.637 267.675C907.508 269.937 906.231 272.917 905.806 276.589H928.9V276.429C928.953 272.757 927.995 269.831 926.053 267.622C924.084 265.414 921.45 264.323 918.098 264.323L918.124 264.27ZM957.209 258.257V264.616H957.396C958.673 262.274 960.615 260.438 963.196 259.161C965.777 257.858 968.624 257.219 971.71 257.219C976.872 257.219 980.969 258.709 984.002 261.689C987.035 264.669 988.578 268.686 988.578 273.742V303.674H978.574V277.44C978.574 275.498 978.441 273.715 978.149 272.119C977.856 270.522 977.324 269.165 976.579 268.075C975.807 266.984 974.823 266.159 973.599 265.573C972.375 265.015 970.779 264.722 968.863 264.722C967.453 264.722 966.069 264.988 964.739 265.494C963.382 265.999 962.185 266.824 961.147 267.888C960.083 268.979 959.231 270.389 958.566 272.145C957.901 273.901 957.555 276.03 957.555 278.557V303.674H947.551V258.257H957.289H957.209ZM996.135 258.257H1003.88V246.47H1013.88V258.257H1024.07V265.733H1013.88V289.466C1013.88 291.009 1013.93 292.26 1014.07 293.218C1014.17 294.149 1014.44 294.894 1014.87 295.399C1015.26 295.905 1015.82 296.251 1016.54 296.437C1017.23 296.597 1018.22 296.703 1019.44 296.703C1020.32 296.703 1021.12 296.677 1021.86 296.623C1022.58 296.57 1023.3 296.49 1024.02 296.357V303.674C1023.03 303.78 1021.86 303.913 1020.51 304.02C1019.15 304.126 1017.82 304.18 1016.46 304.18C1013.77 304.18 1011.59 303.887 1009.97 303.328C1008.32 302.743 1007.07 301.918 1006.14 300.801C1005.23 299.683 1004.62 298.326 1004.33 296.756C1004.04 295.187 1003.88 293.351 1003.88 291.302V265.76H996.135V258.283V258.257Z" fill="#002F67"/>
</g>
<defs>
<linearGradient id="paint0_linear_861_264" x1="0.0740189" y1="184.08" x2="368.149" y2="184.08" gradientUnits="userSpaceOnUse">
<stop stop-color="#EF4123"/>
<stop offset="0.02" stop-color="#EF4123"/>
<stop offset="0.08" stop-color="#EF4920"/>
<stop offset="0.17" stop-color="#F2621B"/>
<stop offset="0.29" stop-color="#F68A12"/>
<stop offset="0.43" stop-color="#FCC006"/>
<stop offset="0.5" stop-color="#FFDD00"/>
<stop offset="0.57" stop-color="#FCC006"/>
<stop offset="0.71" stop-color="#F68A12"/>
<stop offset="0.83" stop-color="#F2621B"/>
<stop offset="0.92" stop-color="#EF4920"/>
<stop offset="0.98" stop-color="#EF4123"/>
<stop offset="1" stop-color="#EF4123"/>
</linearGradient>
<linearGradient id="paint1_linear_861_264" x1="219.544" y1="119.689" x2="121.286" y2="119.689" gradientUnits="userSpaceOnUse">
<stop offset="0.2" stop-color="#FFDA00"/>
<stop offset="0.29" stop-color="#FDC703"/>
<stop offset="0.48" stop-color="#F8970C"/>
<stop offset="0.75" stop-color="#F14A1B"/>
<stop offset="0.9" stop-color="#ED1C24"/>
</linearGradient>
<linearGradient id="paint2_linear_861_264" x1="148.504" y1="248.465" x2="246.788" y2="248.465" gradientUnits="userSpaceOnUse">
<stop offset="0.2" stop-color="#FFDA00"/>
<stop offset="0.29" stop-color="#FDC703"/>
<stop offset="0.48" stop-color="#F8970C"/>
<stop offset="0.75" stop-color="#F14A1B"/>
<stop offset="0.9" stop-color="#ED1C24"/>
</linearGradient>
<clipPath id="clip0_861_264">
<rect width="1024" height="368.07" fill="white" transform="translate(0.0712891 0.015625)"/>
</clipPath>
</defs>
</svg>
