<svg width="526" height="513" viewBox="0 0 526 513" fill="none" xmlns="http://www.w3.org/2000/svg">
<g clip-path="url(#clip0_820_491)">
<path d="M432.778 0.0507812H93.6326C42.2748 0.0507812 0.641113 41.6845 0.641113 93.0422V419.059C0.641113 470.417 42.2748 512.051 93.6326 512.051H432.778C484.136 512.051 525.769 470.417 525.769 419.059V93.0422C525.769 41.6845 484.136 0.0507812 432.778 0.0507812Z" fill="#49021F"/>
<path d="M191.348 133.988V358.386C191.348 360.736 190.292 361.91 188.178 361.909H145.552C143.671 361.909 142.732 360.734 142.735 358.386V133.988C142.735 132.111 143.791 131.171 145.905 131.169H188.53C188.913 131.115 189.303 131.15 189.67 131.273C190.036 131.395 190.37 131.601 190.643 131.875C190.916 132.148 191.122 132.481 191.245 132.848C191.367 133.215 191.403 133.605 191.348 133.988Z" fill="white"/>
<path d="M317.463 365.448C301.248 365.695 285.183 362.325 270.434 355.584C256.694 349.225 245.209 338.845 237.497 325.817C229.51 312.552 225.517 295.936 225.519 275.971C225.387 259.803 229.518 243.885 237.497 229.823C245.715 215.498 257.802 203.778 272.372 196.004C287.635 187.55 306.07 183.322 327.678 183.323C328.85 183.323 330.377 183.381 332.258 183.499C334.135 183.62 336.366 183.796 338.951 184.027V114.629C338.951 112.989 339.656 112.163 341.065 112.163H385.451C385.738 112.122 386.031 112.149 386.306 112.24C386.581 112.332 386.831 112.486 387.036 112.691C387.241 112.897 387.396 113.146 387.488 113.422C387.58 113.697 387.606 113.989 387.565 114.277V322.47C387.565 326.467 387.741 330.811 388.093 335.505C388.446 340.205 388.739 344.432 388.974 348.186C389.018 348.918 388.839 349.646 388.462 350.274C388.084 350.903 387.526 351.403 386.86 351.709C375.409 356.485 363.482 360.028 351.281 362.277C340.125 364.336 328.807 365.397 317.463 365.448ZM338.951 321.766V225.596C337.047 225.08 335.103 224.726 333.139 224.538C330.739 224.297 328.328 224.18 325.917 224.186C317.368 224.101 308.92 226.032 301.258 229.823C293.794 233.532 287.422 239.116 282.764 246.027C277.948 253.073 275.54 262.349 275.542 273.857C275.37 281.536 276.624 289.18 279.24 296.402C281.369 302.221 284.735 307.509 289.105 311.902C293.288 315.944 298.353 318.959 303.9 320.709C309.759 322.607 315.883 323.558 322.042 323.527C325.328 323.527 328.381 323.41 331.201 323.175C333.826 322.977 336.424 322.505 338.951 321.766Z" fill="white"/>
</g>
<defs>
<clipPath id="clip0_820_491">
<rect width="525.128" height="512" fill="white" transform="translate(0.641113 0.0507812)"/>
</clipPath>
</defs>
</svg>
