<svg width="513" height="512" viewBox="0 0 513 512" fill="none" xmlns="http://www.w3.org/2000/svg">
<g clip-path="url(#clip0_768_946)">
<path d="M256.167 512C253.618 512 251.082 511.953 248.558 511.881L300.872 368.095H372.872C385.506 368.095 399.384 358.376 403.698 346.513L460.457 190.601C469.737 165.073 455.124 144.19 427.959 144.19H328.072L244.267 374.495H244.232L196.718 505.043C84.0065 478.246 0.166504 376.924 0.166504 256C0.166504 135.076 79.2421 39.6089 187.046 9.44593L138.015 144.19H138.004L56.4984 368.083H110.756L180.066 177.825H220.836L151.527 368.083H205.761L270.353 190.59C279.645 165.061 265.02 144.178 237.891 144.178H192.285L244.658 0.272593C248.475 0.106667 252.303 0 256.167 0C397.547 0 512.167 114.619 512.167 256C512.167 397.381 397.547 512 256.167 512ZM411.058 177.707H370.3L313.209 334.341H353.98L411.07 177.707H411.058Z" fill="#0096D6"/>
</g>
<defs>
<clipPath id="clip0_768_946">
<rect width="512" height="512" fill="white" transform="translate(0.166504)"/>
</clipPath>
</defs>
</svg>
