<svg width="1025" height="171" viewBox="0 0 1025 171" fill="none" xmlns="http://www.w3.org/2000/svg">
<g clip-path="url(#clip0_2_14818)">
<path d="M0.779297 16.5166C0.779297 9.31445 6.10888 4.41699 14.4634 4.41699H54.4352C90.662 4.41699 115.293 24.3669 115.293 53.6796C115.293 82.4882 90.878 103.879 54.4352 103.879H48.8896C34.9174 103.879 27.7153 111.081 27.7153 122.676V155.518C27.7153 164.809 22.3857 170.642 14.2473 170.642C6.10888 170.642 0.779297 164.809 0.779297 155.518V16.5166ZM27.7153 58.1449C27.7153 72.7653 35.1335 79.7513 49.3217 79.7513H52.7787C72.7287 79.7513 87.421 71.6129 87.421 53.7516C87.421 35.8903 72.8007 27.7519 52.7787 27.7519H49.3937C35.2055 27.7519 27.7873 34.738 27.7873 49.3583V58.1449H27.7153ZM115.365 157.823C115.365 165.457 120.695 170.57 128.833 170.57C134.163 170.57 139.06 167.113 141.869 159.911L146.767 146.875C150.728 136.432 157.714 131.535 165.348 131.535H209.497C217.132 131.535 224.118 136.432 228.079 146.875L232.976 159.911C235.785 167.113 240.61 170.57 246.012 170.57C254.15 170.57 259.48 165.457 259.48 157.823C259.48 155.734 259.048 153.141 258.112 150.62L205.392 13.4917C202.151 5.13721 194.733 0.959961 187.531 0.959961C180.329 0.959961 172.91 5.13721 169.669 13.4917L116.95 150.62C115.797 153.213 115.365 155.734 115.365 157.823ZM166.717 95.524C166.717 93.0033 167.437 90.6266 168.589 87.1696L178.6 59.5134C180.473 54.1838 183.714 51.591 187.459 51.591C191.204 51.591 194.445 54.1118 196.317 59.5134L206.328 87.1696C207.481 90.6266 208.201 93.0033 208.201 95.524C208.201 102.51 204.24 107.408 193.797 107.408H181.265C170.678 107.408 166.717 102.51 166.717 95.524ZM250.621 17.0207C250.621 9.60253 255.951 4.48902 264.594 4.48902H371.473C380.044 4.48902 385.445 9.60253 385.445 17.0207C385.445 24.4389 380.116 29.5525 371.473 29.5525H353.612C339.424 29.5525 331.79 36.7546 331.79 53.2475V155.302C331.79 164.809 326.46 170.642 318.105 170.642C309.751 170.642 304.421 164.809 304.421 155.302V53.2475C304.421 36.7546 296.787 29.5525 282.599 29.5525H264.738C255.951 29.5525 250.621 24.4389 250.621 17.0207ZM410.509 155.518C410.509 164.809 415.838 170.642 423.977 170.642C432.115 170.642 437.445 164.809 437.445 155.518V118.571C437.445 108.128 443.495 103.662 450.913 103.662H452.785C457.683 103.662 462.58 106.687 465.533 111.081L500.824 162.936C504.065 167.833 508.242 170.57 513.571 170.57C520.558 170.57 526.103 164.737 526.103 157.823C526.103 155.014 525.167 151.989 523.078 148.964L499.599 115.978C496.79 112.017 495.638 108.776 495.638 105.967C495.638 100.133 500.752 95.9562 506.801 91.5629C517.749 83.4245 529.56 72.7653 529.56 52.3112C529.56 23.7187 507.234 4.41699 470.503 4.41699H423.761C415.406 4.41699 410.293 9.31445 410.293 16.5166V155.518H410.509ZM437.445 56.0563V49.0703C437.445 33.9458 445.367 27.6799 457.395 27.6799H468.99C488.94 27.6799 501.76 35.0981 501.76 52.3112C501.76 69.5243 488.292 77.3746 468.27 77.3746H457.323C445.367 77.4467 437.445 71.1808 437.445 56.0563ZM564.13 155.014V16.5166C564.13 9.31445 569.244 4.41699 577.599 4.41699H665.465C673.819 4.41699 678.933 9.31445 678.933 16.5166C678.933 23.7187 673.819 28.6162 665.465 28.6162H609.936C598.989 28.6162 591.139 35.0981 591.139 47.4137V52.5273C591.139 64.8429 599.061 71.3249 609.936 71.3249H652.933C661.287 71.3249 666.401 76.2223 666.401 83.4244C666.401 90.6266 661.287 95.524 652.933 95.524H611.593C600.645 95.524 591.139 102.294 591.139 115.978V122.46C591.139 136.144 600.645 142.914 611.593 142.914H665.537C673.891 142.914 679.005 147.812 679.005 155.014C679.005 162.216 673.891 167.113 665.537 167.113H577.671C569.244 167.113 564.13 162.216 564.13 155.014ZM694.921 85.8012C694.921 35.6023 732.589 0.959961 776.738 0.959961C820.887 0.959961 858.554 35.6023 858.554 85.8012C858.554 136 820.887 170.642 776.738 170.642C732.589 170.642 694.921 136 694.921 85.8012ZM725.602 85.8012C725.602 121.092 746.489 143.634 776.738 143.634C806.915 143.634 827.873 121.092 827.873 85.8012C827.873 50.2226 806.987 27.968 776.738 27.968C746.561 27.896 725.602 50.2226 725.602 85.8012ZM890.82 155.518C890.82 164.809 896.149 170.642 904.287 170.642C912.426 170.642 917.755 164.809 917.755 155.518V84.4327C917.755 75.8622 922.869 71.685 928.199 71.685C932.376 71.685 935.833 73.9896 938.426 78.1669L983.007 152.781C989.057 163.008 994.602 170.642 1005.98 170.642C1016.93 170.642 1024.78 162.72 1024.78 149.972V16.0844C1024.78 6.79369 1019.45 0.959961 1011.31 0.959961C1003.17 0.959961 997.843 6.79369 997.843 16.0844V87.1696C997.843 95.7401 992.73 99.9173 987.4 99.9173C983.223 99.9173 979.694 97.6126 977.173 93.4354L932.592 18.8213C926.542 8.59423 920.996 0.959961 909.617 0.959961C898.67 0.959961 890.82 8.88232 890.82 21.6301V155.518Z" fill="black"/>
</g>
<defs>
<clipPath id="clip0_2_14818">
<rect width="1024" height="169.682" fill="white" transform="translate(0.779297 0.959961)"/>
</clipPath>
</defs>
</svg>
