<svg width="1024" height="108" viewBox="0 0 1024 108" fill="none" xmlns="http://www.w3.org/2000/svg">
<g clip-path="url(#clip0_806_334)">
<path d="M373.586 14.8135H438.009V31.5286H392.254V48.8551H432.519V65.5714H392.254V83.5063H438.619V100.223H373.586V14.8135Z" fill="#004185"/>
<path d="M452.439 14.8135H472.693L495.144 50.9294L517.594 14.8135H537.848V100.223H519.18V44.462L495.144 80.9449H494.655L470.862 44.8289V100.223H452.439V14.8135Z" fill="#004185"/>
<path d="M554.948 14.8135H589.844C610.22 14.8135 622.544 26.8926 622.544 44.3404V44.5847C622.544 64.3512 607.17 74.6002 588.014 74.6002H573.738V100.223H554.948L554.948 14.8135ZM588.624 57.8839C590.471 58.1177 592.346 57.9592 594.127 57.4186C595.908 56.878 597.555 55.9676 598.96 54.7468C600.365 53.526 601.497 52.0225 602.281 50.3343C603.065 48.6462 603.484 46.8116 603.51 44.9505V44.7062C603.51 36.2873 597.653 31.7728 588.258 31.7728H573.738V57.8839H588.624Z" fill="#004185"/>
<path d="M628.933 57.7623V57.518C629.255 45.715 634.162 34.5016 642.614 26.2559C651.065 18.0102 662.396 13.3806 674.203 13.3488C686.01 13.317 697.366 17.8856 705.862 26.0857C714.357 34.2858 719.325 45.4726 719.711 57.2737V57.518C719.388 69.3211 714.481 80.5344 706.03 88.7801C697.578 97.0259 686.248 101.655 674.44 101.687C662.633 101.719 651.277 97.1504 642.782 88.9503C634.286 80.7502 629.319 69.5634 628.933 57.7623ZM700.067 57.7623V57.518C700.187 54.0427 699.607 50.5787 698.362 47.3318C697.116 44.085 695.231 41.1215 692.818 38.6175C690.405 36.1135 687.514 34.12 684.315 32.7555C681.116 31.391 677.676 30.6833 674.199 30.6744C670.747 30.6608 667.328 31.3469 664.149 32.6913C660.97 34.0358 658.096 36.0107 655.701 38.4967C653.307 40.9828 651.441 43.9284 650.216 47.1557C648.991 50.383 648.434 53.825 648.576 57.2739V57.5182C648.456 60.9934 649.036 64.4573 650.281 67.7041C651.527 70.9508 653.412 73.9141 655.824 76.4181C658.237 78.922 661.129 80.9154 664.327 82.2798C667.526 83.6443 670.966 84.3519 674.443 84.3608C677.895 84.3746 681.314 83.6886 684.493 82.3443C687.672 81 690.546 79.0252 692.941 76.5393C695.336 74.0533 697.202 71.1077 698.427 67.8805C699.652 64.6532 700.209 61.2112 700.067 57.7623Z" fill="#004185"/>
<path d="M720.851 14.8137H740.983L758.675 72.0376L777.831 14.8135H793.936L813.093 72.0376L830.785 14.8137H850.429L821.267 100.223H804.918L785.64 45.1947L766.361 100.223H750.012L720.851 14.8137Z" fill="#004185"/>
<path d="M859.047 14.8135H923.471V31.5286H877.716V48.8551H917.98V65.5714H877.716V83.5063H924.081V100.223H859.047V14.8135Z" fill="#004185"/>
<path d="M937.899 14.8139H976.944C981.46 14.5305 985.988 15.1506 990.262 16.6379C994.536 18.1252 998.47 20.4498 1001.84 23.4758C1004.3 26.076 1006.21 29.1431 1007.47 32.4961C1008.73 35.8491 1009.3 39.42 1009.16 42.9981V43.2423C1009.43 49.0517 1007.79 54.7902 1004.48 59.5743C1001.17 64.3584 996.386 67.9229 990.854 69.7192L1011.72 100.223H989.756L971.454 72.892H956.69V100.223H937.9L937.899 14.8139ZM975.724 56.2984C984.875 56.2984 990.121 51.417 990.121 44.2193V43.9751C990.121 35.9219 984.51 31.7732 975.358 31.7732H956.69V56.2984H975.724Z" fill="#004185"/>
<path d="M345.677 15.0229C258.913 35.4777 259.604 -7.54744 186.092 1.51046L148.446 18.9972C225.822 5.25792 227.456 57.8858 332.017 28.2897C336.78 26.9415 341.298 25.6429 345.677 24.5273L345.677 15.0229Z" fill="#DB1830"/>
<path d="M345.677 35.3738C330.282 37.2871 315.058 40.3828 300.138 44.6337C190.075 75.5655 193.037 24.3764 111.774 36.1363L74.189 53.623C153.716 42.8785 156.984 92.6285 265.061 62.9155C300.295 53.2288 325.256 50.5402 345.677 51.7781V35.3738Z" fill="#DB1830"/>
<path d="M345.677 73.4218C318.817 67.3753 287.687 63.7852 231.282 79.2595C119.604 109.897 121.381 59.7358 37.5778 70.7622L0 88.2489C81.2022 77.8268 85.2874 126.96 195.446 97.5414C277.143 75.7239 305.332 91.607 345.677 99.9942L345.677 73.4218Z" fill="#DB1830"/>
<path d="M1016.65 29.5157C1015.19 29.5152 1013.77 29.0838 1012.56 28.2758C1011.35 27.4679 1010.41 26.3198 1009.86 24.9767C1009.3 23.6335 1009.16 22.1557 1009.44 20.7299C1009.72 19.3041 1010.42 17.9945 1011.45 16.9666C1012.48 15.9386 1013.79 15.2386 1015.21 14.9548C1016.64 14.6711 1018.12 14.8165 1019.46 15.3726C1020.8 15.9287 1021.95 16.8706 1022.76 18.0791C1023.57 19.2877 1024 20.7086 1024 22.1623C1024 24.1118 1023.22 25.9807 1021.84 27.3592C1020.47 28.7377 1018.6 29.5132 1016.65 29.5157ZM1016.65 15.9496C1015.42 15.95 1014.22 16.315 1013.19 16.9983C1012.17 17.6815 1011.38 18.6525 1010.91 19.7883C1010.44 20.9241 1010.31 22.1737 1010.55 23.3792C1010.79 24.5847 1011.39 25.6919 1012.26 26.5608C1013.13 27.4296 1014.23 28.0212 1015.44 28.2605C1016.64 28.4999 1017.89 28.3764 1019.03 27.9056C1020.16 27.4348 1021.14 26.6379 1021.82 25.6156C1022.5 24.5933 1022.86 23.3915 1022.86 22.1623C1022.86 20.5144 1022.21 18.9346 1021.04 17.7697C1019.87 16.6049 1018.29 15.9503 1016.65 15.9496Z" fill="#004185"/>
<path d="M1014.02 18.4098H1017.34C1018.12 18.3665 1018.9 18.6349 1019.48 19.1568C1019.69 19.3699 1019.85 19.6211 1019.95 19.8958C1020.06 20.1706 1020.11 20.4636 1020.1 20.758V20.7803C1020.12 21.303 1019.95 21.8146 1019.63 22.2264C1019.3 22.6381 1018.85 22.924 1018.34 23.0343L1020.35 25.8477H1018.79L1016.97 23.2579H1015.33V25.8477H1014.02L1014.02 18.4098ZM1017.24 22.0999C1018.18 22.0999 1018.77 21.6079 1018.77 20.8565V20.8341C1018.77 20.0379 1018.2 19.5996 1017.23 19.5996H1015.33V22.0999H1017.24Z" fill="#004185"/>
</g>
<defs>
<clipPath id="clip0_806_334">
<rect width="1024" height="106.821" fill="white" transform="translate(0 0.239258)"/>
</clipPath>
</defs>
</svg>
