<svg width="1025" height="134" viewBox="0 0 1025 134" fill="none" xmlns="http://www.w3.org/2000/svg">
<g clip-path="url(#clip0_2_14816)">
<path d="M609.264 0.129883C588.112 0.129883 567.436 18.4249 565.062 44.8598V2.30833H534.688V130.608H565.434V68.5096C565.434 51.1147 578.341 26.5713 609.264 26.5713V0.129883ZM932.019 110.07V22.1687H949.832C973.579 22.1687 992.872 36.3482 992.872 65.4115C992.872 94.4749 973.579 110.07 949.832 110.07H932.019ZM901.593 130.628H953.543C985.45 130.628 1024.78 110.781 1024.78 65.4115C1024.78 20.7534 985.45 2.32137 953.543 2.32137H901.593V130.628ZM784.915 66.8399C784.915 43.4444 797.53 24.308 818.31 24.308C838.346 24.308 849.48 43.4444 849.48 66.8334C849.48 90.2288 838.346 109.372 818.31 109.372C797.53 109.372 784.915 90.2288 784.915 66.8399ZM753.745 68.2552C753.745 106.535 774.525 133.472 807.176 133.472C830.924 133.472 845.025 118.588 852.447 94.4814V130.634H882.867V2.33442H852.447V36.3547C845.768 13.6767 831.667 0.20815 809.407 0.20815C776.013 0.20815 753.745 29.2715 753.745 68.2552ZM60.8887 133.472C23.0399 133.472 0.779297 104.408 0.779297 68.2552C0.779297 30.6868 25.2705 0.20815 72.0223 0.20815C120.255 0.20815 136.58 31.3978 137.324 49.1188H102.449C101.705 39.1919 92.7958 24.308 71.2722 24.308C48.2746 24.308 33.4299 43.4444 33.4299 66.8334C33.4299 90.2288 48.2746 109.372 71.2788 109.372C92.0588 109.372 100.962 93.777 104.673 78.1822H71.2788V65.418H141.348V130.641H110.615V89.5244C108.391 104.408 98.7441 133.472 60.8953 133.472H60.8887ZM203.675 133.459C174.735 133.459 156.923 115.033 156.923 78.1691V2.32137H188.093V78.1756C188.093 97.312 197.74 106.528 214.065 106.528C245.972 106.528 257.849 68.9596 257.849 42.727V2.32137H289.012V130.628H258.592V83.1326C252.657 109.359 236.325 133.465 203.675 133.465V133.459ZM475.217 0.129883C448.626 0.129883 431.851 24.6667 426.378 47.3513C425.439 16.9574 409.786 0.129883 384.747 0.129883C363.106 0.129883 343.03 18.5619 337.819 47.7231V2.31485H307.438V130.621H338.21V84.6262C338.21 73.2187 343.187 26.4212 374.161 26.4212C394.23 26.4212 396.324 43.7118 396.324 67.3486V130.621H427.083V84.6262C427.083 73.2187 432.262 26.4212 463.242 26.4212C483.292 26.4212 485.366 43.7118 485.366 67.3486V130.621H516.164V54.7345C516.308 18.3271 502.846 0.142927 475.217 0.142927V0.129883ZM675.282 0.129883C635.438 0.129883 608.448 29.9694 608.448 66.8008C608.448 107.376 634.12 133.459 675.282 133.459C715.12 133.459 742.592 103.626 742.592 66.8008C742.592 26.2191 716.418 0.129883 675.282 0.129883ZM675.282 110.748C652.089 110.748 637.062 91.9964 637.062 66.8008C637.062 41.6051 652.141 22.8405 675.282 22.8405C698.417 22.8405 712.89 41.5986 712.89 66.8008C712.89 91.9964 698.404 110.748 675.282 110.748Z" fill="black"/>
</g>
<defs>
<clipPath id="clip0_2_14816">
<rect width="1024" height="133.342" fill="white" transform="translate(0.779297 0.129883)"/>
</clipPath>
</defs>
</svg>
