<svg width="1024" height="426" viewBox="0 0 1024 426" fill="none" xmlns="http://www.w3.org/2000/svg">
<g clip-path="url(#clip0_852_260)">
<path fill-rule="evenodd" clip-rule="evenodd" d="M1022.97 245.64H884.722C887.981 278.744 912.166 289.379 939.61 289.379C967.74 289.379 990.381 283.032 1009.08 273.084V330.03C985.351 343.681 958.203 350.23 930.862 348.897C862.081 348.897 813.711 306.016 813.711 220.597C813.711 148.729 854.705 91.611 921.771 91.611C989.009 91.611 1024 147.871 1024 220.254C1024 227.115 1023.31 241.866 1022.97 245.64ZM921.428 149.243C903.761 149.243 884.208 161.764 884.208 193.496H957.105C957.105 161.764 938.752 149.243 921.428 149.243ZM702.392 348.897C677.692 348.897 662.598 338.606 652.65 331.059L652.307 410.475L581.639 425.397V96.2422H646.132L647.504 113.738C662.463 99.5489 682.289 91.6307 702.906 91.611C752.649 91.611 799.303 136.207 799.303 218.539C799.303 308.246 752.992 348.897 702.392 348.897ZM686.097 154.217C669.802 154.217 659.682 160.049 652.307 168.111L652.65 273.084C659.511 280.631 669.459 286.463 686.097 286.463C712.169 286.463 729.664 258.161 729.664 220.083C729.664 183.205 711.826 154.217 686.097 154.217ZM484.385 96.2422H555.224V343.923H484.385V96.2422ZM484.385 15.6257L555.224 0.703125V58.3353L484.385 73.4294V15.7973V15.6257ZM410.286 176.001V343.923H339.618V96.2422H403.082L405.14 117.168C422.293 86.8083 457.798 92.9832 467.232 96.2422V161.25C458.313 158.334 427.953 153.874 410.286 176.001ZM263.633 256.96C263.633 298.641 308.229 285.776 317.148 282.003V339.635C307.715 344.781 290.734 348.897 267.578 348.897C257.927 349.179 248.32 347.494 239.34 343.946C230.361 340.397 222.197 335.059 215.346 328.256C208.495 321.453 203.099 313.327 199.488 304.373C195.876 295.419 194.124 285.824 194.337 276.171L194.509 50.2736L263.461 35.5226V96.2422H317.32V156.79H263.633V257.132V256.96ZM179.414 268.967C179.414 319.91 139.792 348.897 81.131 348.897C54.8075 348.878 28.7689 343.448 4.63116 332.946V265.537C28.3015 278.401 57.8037 288.006 81.131 288.006C96.9112 288.006 107.374 283.89 107.374 270.854C107.374 236.892 0 249.585 0 171.37C0 121.456 39.1075 91.611 96.3966 91.611C119.724 91.611 143.051 95.0415 166.55 104.475V171.027C144.834 159.598 120.759 153.373 96.2251 152.845C81.474 152.845 71.5256 157.133 71.5256 168.282C71.5256 200.014 179.414 184.92 179.414 269.139V268.967Z" fill="#635BFF"/>
</g>
<defs>
<clipPath id="clip0_852_260">
<rect width="1024" height="424.694" fill="white" transform="translate(0 0.703125)"/>
</clipPath>
</defs>
</svg>
