<svg width="328" height="513" viewBox="0 0 328 513" fill="none" xmlns="http://www.w3.org/2000/svg">
<g clip-path="url(#clip0_795_4390)">
<path d="M216.717 45.3747L210.771 73.9059C209.018 82.2259 206.829 92.5811 204.371 104.076L202.944 104.716C205.683 73.9955 205.606 49.5027 200.16 37.7779C195.379 27.6982 188.362 18.842 179.642 11.8835C167.142 1.80351 159.078 0.574707 159.078 0.574707L159.232 125.087L19.1232 190.264C0.0320032 199.224 0 221.695 0 221.695V436.05L163.712 512.575L327.418 436.05V46.8403L244.627 85.3491C241.559 77.5921 237.575 70.2291 232.762 63.4163C230.842 60.5875 228.883 57.9827 227.002 55.5891C223.648 51.3267 216.717 45.3491 216.717 45.3491" fill="#C4C7C9"/>
<path d="M67.0144 96.4273L74.5408 118.194L82.0736 96.4273L104.672 100.798L89.5936 83.3969L104.672 65.9953L82.0736 70.3665L74.5408 48.6001L67.0144 70.3665L44.4096 65.9953L59.4944 83.3969L44.4096 100.798L67.0144 96.4273Z" fill="#C4C7C9"/>
<path d="M19.1232 294.456C0.0320032 303.416 0 325.874 0 325.874V429.97C0 429.97 3.66211e-06 407.487 19.1232 398.552L327.424 255.109V151.02L19.1232 294.456Z" fill="#8AC8EC"/>
<path d="M293.882 306.495C303.405 295.186 305.402 284.613 305.402 284.613C305.402 284.613 223.955 311.109 197.152 319.935C203.866 316.978 208.73 315.301 211.667 314.04C222.592 309.349 293.472 285.509 301.408 270.655C309.146 256.159 308.87 244.204 308.87 244.204C308.87 244.204 229.427 290.156 200.909 306.738C207.578 301.938 212.506 298.968 215.424 296.907C226.208 289.285 297.741 246.988 302.918 229.004C307.981 211.461 304.928 198.533 304.928 198.533C304.928 198.533 229.408 266.629 202.157 291.333C207.802 285.17 212.128 281.093 214.682 278.367C224.64 267.576 292.608 205.093 294.099 184.332C295.526 164.095 289.235 150.751 289.235 150.751C289.235 150.751 221.037 244.767 197.997 276.684C202.842 268.466 206.688 262.936 208.877 259.288C217.197 245.272 276.646 161.669 273.459 138.77C270.355 116.44 260.422 103.397 260.422 103.397C260.422 103.397 208.736 219.704 190.701 260.511C194.182 250.021 197.216 242.866 198.778 238.271C204.589 221.119 249.882 116.53 241.126 92.3507C237.402 82.0723 233.446 75.5891 228.525 68.2099C225.798 64.0406 222.692 60.1327 219.245 56.5363C216.832 67.8963 198.912 152.645 187.155 208.357L180.282 247.66C177.805 261.861 180.134 271.34 181.248 274.738L182.125 277.24C195.2 315.98 185.12 334.744 180.141 341.055L179.942 341.304C177.971 343.86 175.526 346.013 172.742 347.647C169.85 349.183 166.629 349.995 163.354 350.015C161.442 350.013 159.542 349.726 157.715 349.163C140.486 343.474 146.752 324.075 146.797 323.89C145.37 331.967 147.437 337.221 149.389 340.21C150.813 342.396 152.758 344.194 155.049 345.442C157.34 346.69 159.906 347.349 162.515 347.359C171.27 347.359 176.077 341.413 177.651 339.448L177.85 339.211C182.592 333.208 192.198 315.09 178.867 276.767C178.502 275.691 174.579 263.327 176.986 249.471L186.214 196.3C192.883 153.932 206.739 65.7395 195.77 42.1555C190.701 31.2755 183.482 23.5955 176.659 18.0339C172.673 14.7263 168.302 11.9113 163.642 9.6499L163.917 219.73C163.917 230.955 164.301 240.21 164.832 247.787C164.832 247.787 165.229 253.112 165.818 258.667C166.406 264.223 169.018 275.583 170.49 280.747L172.307 286.802C179.13 310.706 175.968 325.842 170.47 332.78C169.152 334.405 166.957 337.298 162.63 337.298C157.779 337.298 152.602 331.538 158.79 317.061C164.979 302.584 168.102 287.327 154.95 274.251C153.7 272.936 152.345 271.725 150.899 270.629C144.46 265.667 137.625 261.241 130.464 257.394C127.456 255.756 111.059 259.122 111.059 259.122L71.776 241.541L71.7056 242.258C71.7056 242.258 128.083 282.815 138.336 291.423C147.776 299.32 142.816 311.82 133.741 318.943C123.379 327.09 92.7168 344.319 92.7168 344.319V346.175C92.7168 366.655 95.744 375.115 109.696 392.255C136.576 425.24 148.736 438.527 148.736 472.895C150.266 473.951 155.686 476.306 155.686 476.306V418.117C155.686 391.717 162.56 373.995 194.579 373.995L172.179 353.029C175.43 355.448 177.504 357.336 178.957 358.424C184.589 362.623 217.645 391.826 227.597 391.493C237.299 391.167 243.29 387.506 243.29 387.506C243.29 387.506 191.616 357.695 177.203 349.451C181.984 351.57 185.139 353.336 187.142 354.251C194.234 357.515 236.96 381.618 247.712 378.955C258.163 376.351 263.872 370.975 263.872 370.975C263.872 370.975 200.122 350.315 182.912 344.805C188.806 346.04 192.781 347.269 195.232 347.813C203.693 349.733 255.712 366.047 266.758 360.671C277.536 355.436 282.502 348.268 282.502 348.268C282.502 348.268 209.786 340.824 188.294 338.668C193.491 338.738 198.534 339.052 200.902 339.071C210.502 339.212 270.842 344.92 281.6 336.511C292.102 328.325 295.84 319.404 295.84 319.404C295.84 319.404 216.973 327.723 192.89 330.367C199.334 329.016 203.936 328.447 206.758 327.89C217.254 325.797 284.115 318.079 293.875 306.469" fill="black"/>
<path d="M135.437 272.613C135.437 272.613 132.141 273.49 129.638 271.973C127.136 270.456 126.362 267.141 126.362 267.141C126.362 267.141 129.658 266.264 132.16 267.781C134.662 269.298 135.437 272.6 135.437 272.6" fill="#D14F53"/>
<path d="M282.042 412.862C282.042 412.862 283.866 412.075 283.866 409.374V405.438L263.834 414.814V448.619L269.926 445.752V433.394L276.922 430.098C277.456 429.716 277.884 429.204 278.164 428.61C278.444 428.016 278.567 427.361 278.522 426.706V423.243L269.952 427.288V418.565L282.042 412.862Z" fill="black"/>
<path d="M302.522 403.052C303.283 402.7 303.898 402.962 303.898 403.692V406.335C303.895 406.517 303.928 406.698 303.996 406.867C304.064 407.036 304.164 407.19 304.291 407.32C304.418 407.451 304.57 407.554 304.738 407.626C304.905 407.697 305.085 407.735 305.267 407.736H305.312C305.478 407.724 305.64 407.683 305.792 407.615L309.754 405.752V401.471C309.723 400.087 309.146 398.771 308.148 397.812C307.15 396.852 305.813 396.327 304.429 396.351C303.773 396.355 303.122 396.477 302.509 396.709L291.187 401.976C289.985 402.58 288.974 403.504 288.265 404.648C287.557 405.791 287.179 407.108 287.174 408.453V430.258C287.173 430.869 287.291 431.474 287.524 432.04C287.756 432.605 288.097 433.119 288.528 433.552C288.959 433.985 289.471 434.329 290.035 434.565C290.599 434.8 291.203 434.922 291.814 434.924H291.917C292.599 434.918 293.272 434.763 293.888 434.469L305.734 428.914C306.932 428.312 307.938 427.39 308.642 426.25C309.346 425.11 309.72 423.796 309.722 422.456V416.274L305.152 418.392C304.762 418.607 304.437 418.923 304.211 419.307C303.986 419.692 303.869 420.129 303.872 420.575V422.156C303.838 422.575 303.693 422.978 303.452 423.323C303.212 423.668 302.884 423.943 302.502 424.12L294.63 427.916C293.862 428.28 293.261 428.005 293.261 427.276V408.978C293.298 408.56 293.443 408.158 293.684 407.813C293.924 407.468 294.25 407.193 294.63 407.013L302.522 403.052Z" fill="black"/>
<path d="M223.802 456.396L212.243 438.93L206.086 441.797V475.634C206.086 475.634 208.646 474.412 210.438 473.573C210.79 473.375 212.192 472.44 212.192 470.072V449.816L224.038 467.224L229.965 464.453V430.655L225.722 432.639C225.299 432.908 223.859 433.516 223.859 436.082L223.802 456.396Z" fill="black"/>
<path d="M195.002 477.886V460.92L189.056 477.374L183.872 479.8L176.941 468.53V486.526C176.998 487.266 176.836 488.007 176.475 488.656C176.114 489.304 175.571 489.833 174.912 490.174L171.072 491.992V458.174L176.602 455.614L185.562 471.442L194.054 447.448L200.915 444.248V478.014L197.632 479.55C197.159 479.74 196.631 479.733 196.163 479.533C195.695 479.333 195.325 478.954 195.136 478.482C195.063 478.291 195.017 478.09 195.002 477.886Z" fill="black"/>
<path d="M235.123 428.236V454.802C235.123 456.012 235.604 457.173 236.46 458.029C237.315 458.884 238.476 459.365 239.686 459.365H239.744C240.408 459.353 241.062 459.203 241.664 458.924L254.394 453.004C255.654 452.436 256.725 451.517 257.477 450.357C258.23 449.197 258.632 447.845 258.637 446.463V417.215L254.387 419.205C252.781 419.954 252.525 421.72 252.525 422.757V446.207C252.488 446.624 252.342 447.024 252.102 447.367C251.862 447.709 251.535 447.983 251.155 448.159L242.547 452.172C241.786 452.524 241.178 452.248 241.178 451.493V428.453C241.178 427.944 240.975 427.456 240.615 427.096C240.255 426.736 239.767 426.533 239.258 426.533C238.993 426.535 238.732 426.589 238.49 426.693L235.123 428.236Z" fill="black"/>
</g>
<defs>
<clipPath id="clip0_795_4390">
<rect width="327.424" height="512" fill="white" transform="translate(0 0.574707)"/>
</clipPath>
</defs>
</svg>
