<svg width="1024" height="239" viewBox="0 0 1024 239" fill="none" xmlns="http://www.w3.org/2000/svg">
<g clip-path="url(#clip0_768_1028)">
<path d="M598.926 1.14697H464.958V37.0246H514.223V238.364H549.426V37.0246H598.926V1.14697Z" fill="#E01E2B"/>
<path d="M979.28 1.14697H942.02V238.364H979.28V1.14697Z" fill="#E01E2B"/>
<path d="M375.766 145.074L402.068 54.4359L428.403 145.074H375.766ZM429.718 23.6837C426.346 10.1958 415.792 0.855489 402.068 0.855489C396.4 0.848769 390.863 2.55478 386.182 5.74987C381.5 8.94496 377.893 13.48 375.834 18.7606C375.295 20.2442 312.104 238.343 312.104 238.343H348.656L366.055 178.558H438.114L455.379 238.276H492.302L429.718 23.6837Z" fill="#E01E2B"/>
<path d="M637.813 145.074L664.046 54.4359L690.281 145.074H637.813ZM691.764 23.6837C688.392 10.1958 677.837 0.855469 664.215 0.855469C658.56 0.866881 653.04 2.5811 648.372 5.7747C643.704 8.9684 640.108 13.4935 638.049 18.7606C637.509 20.2442 574.319 238.343 574.319 238.343H610.905L628.304 178.558H700.025L717.256 238.276H754.112L691.764 23.6837Z" fill="#E01E2B"/>
<path d="M910.026 63.6295C910.543 72.2762 910.069 80.9539 908.61 89.4923C907.317 98.4191 903.995 106.931 898.897 114.373C893.8 121.814 887.063 127.987 879.206 132.418C871.989 136.633 867.943 139.533 867.943 139.533C866.879 140.392 866.022 141.482 865.438 142.72C864.854 143.958 864.558 145.312 864.572 146.68C864.526 149.377 865.302 152.024 866.797 154.268C866.797 154.268 869.292 157.64 876.508 168.868C883.724 180.097 923.042 238.364 923.042 238.364H881.263L827.513 157.033C823.414 151.641 821.252 145.024 821.376 138.251C821.268 133.016 822.822 127.882 825.814 123.586C828.808 119.291 833.086 116.054 838.035 114.343C838.035 114.343 875.126 102.306 875.126 73.4756C875.192 68.4328 874.558 63.4053 873.237 58.5378C871.563 52.4144 867.959 46.9943 862.959 43.0823C857.96 39.1701 851.832 36.9749 845.486 36.8223H817.196C816.135 36.8179 815.083 37.0231 814.101 37.4261C813.119 37.8291 812.227 38.422 811.475 39.1708C810.723 39.9196 810.127 40.8095 809.719 41.7895C809.312 42.7694 809.103 43.8202 809.103 44.8814V238.364H773.428V31.0901C773.418 23.1808 776.542 15.5901 782.116 9.97854C787.689 4.36703 795.259 1.19156 803.168 1.14698H844.508C853.124 1.1425 861.656 2.83572 869.616 6.12967C877.578 9.42363 884.812 14.2538 890.905 20.3444C896.999 26.4349 901.833 33.6663 905.131 41.6257C908.429 49.585 910.126 58.1161 910.126 66.7317" fill="#E01E2B"/>
<path d="M1006.7 224.042H1009.57C1010.54 224.135 1011.52 223.923 1012.37 223.435C1012.61 223.243 1012.8 222.995 1012.93 222.714C1013.06 222.433 1013.12 222.125 1013.11 221.816C1013.13 221.401 1013 220.995 1012.74 220.669C1012.49 220.323 1012.15 220.054 1011.76 219.894C1010.98 219.691 1010.17 219.612 1009.37 219.657H1006.7V224.042ZM1004.34 232.303V217.634H1009.37C1010.62 217.585 1011.87 217.733 1013.07 218.072C1013.83 218.33 1014.48 218.828 1014.93 219.489C1015.36 220.115 1015.59 220.854 1015.6 221.613C1015.61 222.134 1015.52 222.65 1015.32 223.132C1015.12 223.613 1014.83 224.049 1014.46 224.412C1013.65 225.224 1012.57 225.695 1011.42 225.727C1011.89 225.917 1012.31 226.191 1012.67 226.536C1013.5 227.416 1014.22 228.389 1014.83 229.436L1016.62 232.303H1013.72L1012.43 230.01C1011.82 228.749 1010.99 227.608 1009.97 226.638C1009.41 226.287 1008.75 226.111 1008.08 226.132H1006.7V232.37L1004.34 232.303ZM1010.31 213.419C1008.35 213.437 1006.42 213.947 1004.71 214.904C1002.92 215.859 1001.45 217.312 1000.46 219.084C999.48 220.81 998.961 222.763 998.961 224.75C998.961 226.736 999.48 228.688 1000.46 230.414C1001.46 232.173 1002.92 233.63 1004.68 234.629C1006.4 235.602 1008.35 236.111 1010.33 236.111C1012.31 236.111 1014.25 235.602 1015.97 234.629C1017.73 233.637 1019.18 232.178 1020.16 230.414C1021.16 228.695 1021.69 226.74 1021.69 224.75C1021.69 222.759 1021.16 220.804 1020.16 219.084C1019.2 217.3 1017.73 215.844 1015.94 214.904C1014.24 213.951 1012.33 213.441 1010.38 213.419H1010.31ZM1010.38 211.16C1012.74 211.163 1015.06 211.767 1017.12 212.914C1019.25 214.072 1021.01 215.816 1022.18 217.938C1023.35 219.995 1023.97 222.316 1024 224.682C1024.01 227.048 1023.39 229.373 1022.21 231.426C1021.06 233.553 1019.32 235.299 1017.19 236.45C1015.14 237.633 1012.81 238.257 1010.44 238.257C1008.08 238.257 1005.75 237.633 1003.7 236.45C1001.57 235.292 999.816 233.549 998.642 231.426C997.48 229.368 996.866 227.046 996.856 224.682C996.882 222.316 997.508 219.995 998.677 217.938C999.862 215.813 1001.63 214.071 1003.77 212.914C1005.83 211.768 1008.15 211.165 1010.51 211.16" fill="#E01E2B"/>
<path d="M0 238.364C0 238.364 38.7438 233.981 68.9229 209.062C97.6858 185.458 108.072 164.923 115.254 141.623C122.436 118.323 123.515 62.7527 123.515 46.2301V1.14697H105.644V18.0068C105.34 43.0942 103.148 90.7738 91.6499 121.762C64.0672 196.316 0 203.06 0 203.06V238.364Z" fill="#E01E2B"/>
<path d="M294.846 238.364C294.846 238.364 256.271 233.981 225.923 209.062C197.161 185.458 186.775 164.923 179.593 141.623C172.41 118.323 171.332 62.7527 171.332 46.2301V1.14697H189.202V18.0068C189.539 43.0942 191.698 90.7738 203.196 121.762C230.947 196.316 294.846 203.06 294.846 203.06V238.364Z" fill="#E01E2B"/>
<path d="M163.952 1.14697H130.94V238.364H163.952V1.14697Z" fill="#E01E2B"/>
</g>
<defs>
<clipPath id="clip0_768_1028">
<rect width="1024" height="237.509" fill="white" transform="translate(0 0.855469)"/>
</clipPath>
</defs>
</svg>
