<svg width="526" height="513" viewBox="0 0 526 513" fill="none" xmlns="http://www.w3.org/2000/svg">
<g clip-path="url(#clip0_820_396)">
<path d="M432.845 0.0507812H93.6995C42.3417 0.0507812 0.708008 41.6845 0.708008 93.0422V419.059C0.708008 470.417 42.3417 512.051 93.6995 512.051H432.845C484.203 512.051 525.836 470.417 525.836 419.059V93.0422C525.836 41.6845 484.203 0.0507812 432.845 0.0507812Z" fill="#00005B"/>
<path d="M74.7508 133.288C74.7814 132.971 74.8757 132.663 75.0283 132.383C75.1809 132.104 75.3885 131.858 75.6386 131.66C75.8887 131.463 76.1762 131.318 76.4838 131.234C76.7914 131.151 77.1126 131.131 77.4283 131.175H139.006C139.815 131.065 140.635 131.256 141.314 131.71C141.992 132.165 142.48 132.851 142.687 133.641C144.245 139.75 146.141 147.089 148.376 155.658C150.604 164.233 153.002 173.686 155.571 184.016C158.134 194.353 160.755 204.921 163.436 215.72C166.113 226.526 168.735 237.035 171.301 247.249C173.862 257.465 176.038 266.859 177.826 275.431C179.609 284.006 181.06 291.11 182.177 296.743H182.512C183.4 291.811 184.962 285.235 187.197 277.016C189.424 268.798 191.989 259.58 194.893 249.363C197.791 239.147 200.747 228.637 203.762 217.834C206.775 207.035 209.731 196.349 212.631 185.777C215.527 175.209 218.26 165.404 220.83 156.362C223.392 147.324 225.456 139.75 227.021 133.641C227.132 132.931 227.501 132.288 228.057 131.833C228.612 131.378 229.316 131.144 230.033 131.175H289.937C290.299 131.126 290.667 131.152 291.019 131.251C291.37 131.35 291.697 131.521 291.98 131.752C292.262 131.984 292.494 132.271 292.661 132.596C292.828 132.921 292.926 133.276 292.949 133.641L300.981 358.743C301.105 359.136 301.124 359.553 301.036 359.955C300.948 360.357 300.756 360.729 300.479 361.033C300.199 361.325 299.861 361.554 299.486 361.706C299.111 361.858 298.708 361.929 298.303 361.914H254.798C254.196 361.936 253.605 361.749 253.124 361.386C252.873 361.135 252.682 360.83 252.567 360.494C252.451 360.158 252.413 359.801 252.456 359.448C252.456 347.47 252.4 334.906 252.288 321.755C252.172 308.605 252.005 295.395 251.786 282.124C251.561 268.859 251.561 256.118 251.786 243.902C252.006 231.694 252.118 220.421 252.121 210.084C252.121 199.753 252.177 190.77 252.288 183.135C252.398 175.506 252.454 169.811 252.456 166.05H252.121C250.782 171.923 248.997 179.614 246.766 189.124C244.533 198.635 241.912 209.321 238.902 221.18C235.89 233.042 232.655 245.313 229.197 257.993C225.735 270.675 222.388 283.24 219.157 295.686C215.92 308.137 212.797 319.762 209.786 330.561C206.775 341.366 204.265 350.878 202.256 359.096C202.055 359.914 201.581 360.64 200.911 361.152C200.242 361.665 199.418 361.934 198.575 361.914H160.758C159.857 362.039 158.941 361.818 158.195 361.295C157.45 360.772 156.931 359.986 156.742 359.096C154.735 350.878 152.448 341.366 149.882 330.561C147.314 319.762 144.693 308.49 142.017 296.743C139.341 285.003 136.496 272.966 133.483 260.635C130.472 248.305 127.627 236.387 124.95 224.88C122.273 213.375 119.875 202.572 117.755 192.471C115.631 182.375 113.679 173.451 111.898 165.698H111.228V193.527C111.228 204.332 111.061 216.251 110.727 229.283C110.392 242.317 110.057 255.939 109.723 270.147C109.388 284.359 108.998 299.037 108.552 314.181C108.102 329.328 107.544 344.3 106.878 359.096C106.878 360.978 105.984 361.914 104.201 361.914H65.3808C64.6204 361.948 63.8659 361.765 63.2058 361.386C62.6455 361.033 62.4781 360.152 62.7034 358.743L74.7508 133.288Z" fill="#9999FF"/>
<path d="M431.038 285.059H361.64C362.492 291.639 364.777 297.952 368.334 303.554C372.273 309.426 377.844 314.018 384.361 316.764C391.523 320.055 400.858 321.699 412.368 321.696C419.984 321.728 427.588 321.08 435.089 319.758C442.17 318.492 449.084 316.424 455.697 313.593C456.869 312.658 457.459 313.241 457.459 315.355V348.821C457.517 349.733 457.334 350.644 456.93 351.463C456.527 352.103 455.985 352.645 455.344 353.048C448.05 356.498 440.36 359.042 432.447 360.622C422.228 362.541 411.843 363.427 401.447 363.264C384.768 363.264 370.795 360.681 359.526 355.514C348.873 350.821 339.464 343.704 332.049 334.73C325.123 326.274 319.971 316.51 316.901 306.019C313.861 295.666 312.319 284.93 312.322 274.139C312.289 262.356 314.132 250.643 317.782 239.44C321.297 228.512 326.855 218.35 334.163 209.497C341.37 200.746 350.382 193.656 360.583 188.712C372.056 183.42 384.589 180.829 397.219 181.139C408.905 180.843 420.512 183.128 431.214 187.832C440.257 191.927 448.174 198.152 454.288 205.974C460.059 213.421 464.471 221.829 467.322 230.809C470.097 239.463 471.523 248.494 471.549 257.582C471.549 262.75 471.373 267.447 471.02 271.673C470.669 275.9 470.375 278.953 470.14 280.832C470.049 281.609 469.675 282.325 469.091 282.844C468.506 283.364 467.751 283.651 466.969 283.65C465.56 283.65 463.153 283.826 459.748 284.179C456.341 284.531 452.114 284.766 447.066 284.883C442.013 285.004 436.67 285.063 431.038 285.059ZM361.64 250.889H407.788C413.424 250.889 417.593 250.83 420.293 250.712C422.01 250.713 423.722 250.536 425.402 250.184V248.07C425.331 245.315 424.856 242.585 423.993 239.968C422.092 233.958 418.271 228.738 413.116 225.111C407.961 221.483 401.758 219.649 395.459 219.889C389.53 219.53 383.626 220.905 378.465 223.845C373.304 226.785 369.111 231.163 366.396 236.445C363.993 240.951 362.384 245.837 361.64 250.889Z" fill="#9999FF"/>
</g>
<defs>
<clipPath id="clip0_820_396">
<rect width="525.128" height="512" fill="white" transform="translate(0.708008 0.0507812)"/>
</clipPath>
</defs>
</svg>
