<svg width="513" height="513" viewBox="0 0 513 513" fill="none" xmlns="http://www.w3.org/2000/svg">
<g clip-path="url(#clip0_826_277)">
<path d="M282.106 435.076H229.649C223.82 405.933 197.857 383.678 167.124 383.678C144.34 383.678 124.734 395.335 113.077 412.821V413.351C94.0018 403.813 76.516 390.567 61.6796 375.2C43.664 357.185 33.5964 340.759 29.3574 330.161C41.0146 327.512 51.6121 321.153 60.09 312.146C71.2173 300.488 77.0459 284.592 77.0459 268.696V230.545C77.0459 185.506 91.8823 140.997 119.966 105.495C159.706 54.6277 218.522 26.0146 282.106 26.0146C336.683 26.0146 388.081 47.2095 426.761 85.8902C465.442 124.571 486.637 175.968 486.637 230.545C486.637 285.122 465.442 336.52 426.761 375.2C388.314 413.436 336.33 434.953 282.106 435.076Z" fill="white"/>
<path d="M512.071 230.015C512.071 168.55 488.227 110.794 444.777 67.3445C401.47 24.4595 343.054 0.294261 282.107 0.0507812C211.634 0.0507812 145.929 31.8431 100.89 88.5394C68.5681 129.34 51.6122 179.677 51.6122 231.605V268.696C51.6122 287.771 38.3654 305.787 11.8718 307.377C5.51333 307.906 0.214604 312.145 0.214604 318.504C-0.84514 335.99 17.7004 367.782 43.1342 393.216C60.62 411.232 81.285 425.538 103.54 436.665C101.897 445.88 102.295 455.343 104.707 464.388C107.118 473.432 111.483 481.838 117.496 489.012C123.508 496.186 131.02 501.954 139.503 505.91C147.987 509.866 157.234 511.913 166.594 511.907C197.857 511.907 223.291 490.182 229.119 461.039H282.636C289.525 497.071 327.146 521.975 367.416 508.198C402.388 496.541 417.754 456.801 405.037 424.478C418.814 415.471 432.06 404.873 444.247 393.216C465.804 371.865 482.901 346.442 494.545 318.425C506.188 290.408 512.146 260.355 512.071 230.015ZM282.107 435.076H229.649C223.821 405.933 197.857 383.678 167.124 383.678C144.34 383.678 124.735 395.335 113.077 412.821V413.351C94.002 403.813 76.5162 390.567 61.6798 375.2C43.6641 357.185 33.5965 340.759 29.3576 330.161C41.0148 327.512 51.6122 321.153 60.0901 312.145C71.2175 300.488 77.0461 284.592 77.0461 268.696V230.545C77.0461 185.506 91.8825 140.997 119.966 105.495C159.706 54.6276 218.522 26.0145 282.107 26.0145C336.683 26.0145 388.081 47.2094 426.762 85.8901C465.442 124.571 486.637 175.968 486.637 230.545C486.637 285.122 465.442 336.52 426.762 375.2C388.314 413.436 336.33 434.953 282.107 435.076Z" fill="black"/>
<path d="M384.372 204.582C398.419 204.582 409.806 193.194 409.806 179.148C409.806 165.101 398.419 153.714 384.372 153.714C370.325 153.714 358.938 165.101 358.938 179.148C358.938 193.194 370.325 204.582 384.372 204.582Z" fill="black"/>
<path d="M230.709 204.582C244.755 204.582 256.143 193.194 256.143 179.148C256.143 165.101 244.755 153.714 230.709 153.714C216.662 153.714 205.275 165.101 205.275 179.148C205.275 193.194 216.662 204.582 230.709 204.582Z" fill="black"/>
<path d="M238.657 262.868C236.538 258.629 231.769 255.45 227 255.45C224.86 255.433 222.752 255.957 220.868 256.972C218.985 257.987 217.388 259.461 216.226 261.258C215.064 263.054 214.374 265.114 214.219 267.248C214.065 269.382 214.451 271.52 215.343 273.465C231.769 307.907 266.74 332.281 308.07 332.281C349.4 332.281 384.372 308.437 400.798 273.465C404.507 264.987 398.678 255.45 389.141 255.45H388.611C383.842 255.45 379.603 258.099 377.484 262.868C365.297 288.832 338.803 306.847 308.07 306.847C277.338 306.847 250.844 288.832 238.657 262.868Z" fill="black"/>
</g>
<defs>
<clipPath id="clip0_826_277">
<rect width="511.9" height="512" fill="white" transform="translate(0.171387 0.0507812)"/>
</clipPath>
</defs>
</svg>
