<svg width="1025" height="104" viewBox="0 0 1025 104" fill="none" xmlns="http://www.w3.org/2000/svg">
<g clip-path="url(#clip0_777_458)">
<path d="M945.534 99.2245C945.534 96.949 947.383 95.1001 949.801 95.1001C952.219 95.1001 954.068 96.949 954.068 99.2245C954.068 101.5 952.219 103.491 949.801 103.491C947.383 103.491 945.534 101.642 945.534 99.2245ZM946.388 99.2245C946.388 101.073 947.952 102.638 949.943 102.638C951.792 102.638 953.356 101.216 953.356 99.2245C953.356 97.3757 951.792 95.9534 949.943 95.9534C947.81 95.9534 946.388 97.5179 946.388 99.2245Z" fill="#E31837"/>
<path d="M951.934 101.643H951.081L949.659 99.5092H948.805V101.643H948.236V96.9492H950.37C950.796 96.9492 951.223 96.9492 951.507 97.2337C951.934 97.3759 952.076 97.8026 952.076 98.2292C952.076 99.0826 951.365 99.5092 950.512 99.5092L951.934 101.643ZM949.659 98.9403C950.37 98.9403 951.223 99.0826 951.223 98.2292C951.223 97.6603 950.654 97.5181 950.085 97.5181H948.805V98.9403H949.659Z" fill="#E31837"/>
<path d="M929.463 103.492C959.33 77.8915 1001.29 53.0027 1024.33 44.0427C1020.77 41.7671 1015.22 38.496 1008.97 34.9404C979.241 44.7538 944.539 66.5138 913.534 91.1182C918.796 95.1004 924.343 99.2249 929.463 103.492Z" fill="#E31837"/>
<path d="M915.81 33.9449C911.401 31.8115 906.565 29.8204 902.867 28.1138C891.632 33.6604 876.983 42.0515 858.494 55.2782C862.476 57.4115 866.743 59.9715 871.294 62.5315C885.516 52.0071 899.881 42.0515 915.81 33.9449Z" fill="#012169"/>
<path d="M942.405 21.7137C937.001 18.727 918.227 11.7582 905.285 8.77148C901.445 10.1937 896.041 12.327 892.343 13.8915C897.036 15.1715 914.53 19.8648 929.463 27.4026C933.303 25.5537 938.707 23.2782 942.405 21.7137Z" fill="#E31837"/>
<path d="M878.832 19.8647C862.192 27.5447 844.699 38.0692 835.17 44.1847C838.583 45.7492 841.996 47.0292 846.69 49.3047C867.739 35.0825 884.236 26.407 890.779 23.5625C886.085 21.8559 881.676 20.7181 878.832 19.8647Z" fill="#012169"/>
<path d="M954.921 17.3048C958.761 16.0248 963.17 14.887 967.01 13.7492C955.916 9.05589 941.978 4.07811 929.463 0.949219C927.472 1.51811 921.498 3.08255 917.374 4.36255C921.641 5.64255 935.721 8.91366 954.921 17.3048ZM884.805 70.7803C889.356 73.4826 894.192 77.1803 898.885 80.3092C930.032 56.1314 960.752 37.5003 994.458 26.9759C989.765 24.5581 985.641 22.4248 980.378 19.8648C960.183 24.9848 925.623 38.7803 884.805 70.7803Z" fill="#E31837"/>
<path d="M0.325195 96.096H23.0808C34.6008 96.096 40.0052 90.1227 40.0052 81.7316C40.0052 74.9049 36.4496 70.3538 29.0541 68.9316C35.5963 67.3671 38.583 63.3849 38.583 57.5538C38.583 50.1583 33.1785 44.1849 21.6585 44.1849H0.467418V96.096H0.325195ZM20.0941 74.0516C24.3608 74.0516 27.3474 76.1849 27.3474 80.4516C27.3474 85.0027 24.503 86.8516 20.0941 86.8516H12.6985V73.9094H20.0941V74.0516ZM18.6719 53.2871C22.9385 53.2871 25.9252 55.136 25.9252 59.4027C25.9252 63.6694 23.0808 65.5183 18.6719 65.5183H12.6985V53.2871H18.6719ZM85.943 44.0427H73.143L53.6585 96.096H66.6008L70.1563 85.2871H88.9296L92.4852 96.096H105.57L85.943 44.0427ZM79.543 56.5582L85.6585 75.7583H73.143L79.543 56.5582ZM170.423 44.0427H158.619V78.8871L136.432 44.0427H123.205V96.096H135.01V61.3938L157.196 96.096H170.423V44.0427ZM224.894 96.096L207.827 69.6427V96.096H195.17V44.0427H207.827V69.0738L224.041 44.0427H238.121L221.054 69.0738L239.685 96.096H224.894ZM284.485 70.0694C284.485 80.4516 290.743 86.8516 298.85 86.8516C306.956 86.8516 313.214 80.4516 313.214 70.0694C313.214 59.6871 306.956 53.2871 298.85 53.2871C290.743 53.2871 284.485 59.6871 284.485 70.0694ZM271.116 70.0694C271.259 54.8516 281.925 42.9049 298.85 42.9049C315.774 42.9049 326.441 54.8516 326.583 70.0694C326.441 85.2871 315.774 97.2338 298.85 97.2338C281.925 97.2338 271.259 85.2871 271.116 70.0694ZM343.934 96.096H356.592V75.616H373.09V65.6605H356.592V53.9983H376.503L378.779 44.0427H343.934V96.096ZM437.801 44.0427H425.001L405.516 96.096H418.459L422.014 85.2871H440.787L444.343 96.096H457.427L437.801 44.0427ZM431.401 56.5582L437.516 75.7583H425.001L431.401 56.5582ZM532.521 44.0427H517.73L504.219 72.2027L490.707 44.0427H475.916V96.096H487.294V61.2516L504.076 96.096L520.859 61.2516V96.096H532.663L532.521 44.0427ZM557.125 96.096H592.681V86.1405H569.783V74.4783H587.845V64.8071H569.783V53.9983H590.69L592.965 44.0427H557.125V96.096ZM640.894 96.096H654.69L641.747 74.0516C648.859 72.0605 652.272 67.0827 652.272 59.8294C652.272 50.4427 646.583 44.1849 633.783 44.1849H613.73V96.2383H626.103V75.7583H629.516L640.894 96.096ZM631.365 53.7138C636.627 53.7138 639.33 55.9894 639.33 60.3983C639.33 64.8071 636.627 67.0827 631.365 67.0827H625.961V53.7138H631.365ZM673.605 96.096H686.263V44.1849H673.605V96.096ZM748.556 82.1582C743.721 85.5716 739.454 86.7094 735.045 86.7094C725.374 86.7094 718.547 80.0249 718.547 70.0694C718.547 60.1138 725.232 53.4294 734.619 53.4294C738.885 53.4294 743.152 54.5671 747.845 57.9805V46.176C743.578 43.7583 738.601 42.7627 733.054 42.7627C715.845 42.7627 705.036 54.7094 704.894 69.9271C705.036 85.2871 715.561 97.0916 733.054 97.0916C738.885 97.0916 743.863 96.096 748.414 93.6782V82.1582H748.556ZM794.921 44.0427H782.121L762.636 96.096H775.578L779.134 85.2871H797.907L801.463 96.096H814.547L794.921 44.0427ZM788.521 56.5582L794.636 75.7583H782.121L788.521 56.5582Z" fill="#012169"/>
</g>
<defs>
<clipPath id="clip0_777_458">
<rect width="1024" height="102.542" fill="white" transform="translate(0.325195 0.949219)"/>
</clipPath>
</defs>
</svg>
