<svg width="511" height="513" viewBox="0 0 511 513" fill="none" xmlns="http://www.w3.org/2000/svg">
<g clip-path="url(#clip0_876_1583)">
<path d="M341.682 494.439C342.115 494.874 342.403 495.603 342.547 495.456C343.848 495.456 346.449 495.021 346.449 495.021L349.05 493.854L356.421 490.944C356.421 490.944 375.061 482.063 375.061 481.918C375.208 481.918 378.386 480.172 378.386 480.172L380.119 479.443L382.143 477.988L385.466 475.948L389.37 473.766L394.425 470.418L403.241 464.156L407.431 460.808L413.645 456.295L419.283 452.074L422.028 450.036L425.785 446.541L429.687 442.611L435.899 435.914L443.125 428.926L451.508 419.175L456.131 413.06L457.72 410.876L462.633 404.761L472.17 390.932L474.918 386.417L481.276 373.608L484.887 366.62L491.101 353.953L494.426 346.239L497.893 334.883C497.893 334.883 502.23 319.307 504.542 311.153C504.831 310.28 504.975 309.406 504.395 308.533C503.095 306.64 502.085 304.312 500.785 302.127C500.205 301.108 499.193 299.943 498.616 299.07C498.037 298.197 496.304 296.013 495.727 295.286C495.003 294.413 494.282 293.829 493.414 293.102C491.39 291.209 489.657 289.316 487.923 288.152C487.056 287.717 486.332 287.134 485.611 286.55C480.409 282.475 475.062 279.271 469.136 276.651C466.679 275.631 464.078 274.614 461.477 273.741C459.744 273.159 456.71 272.43 454.83 272.139C453.674 271.992 452.809 271.992 451.941 272.43C451.073 273.012 451.073 274.323 450.929 275.487C450.64 278.689 450.496 282.328 450.207 285.532C449.916 288.881 449.628 292.229 449.484 295.722C449.195 298.779 449.051 301.836 448.76 304.894C448.327 308.971 447.751 312.902 447.027 316.976C445.582 324.402 443.993 331.825 442.548 339.251C442.113 341.288 441.825 343.472 441.101 345.366C439.8 348.567 438.791 351.771 438.211 355.12C436.767 362.105 434.31 368.802 431.853 375.499C429.975 380.887 427.951 386.564 424.918 391.367C424.629 391.658 424.485 392.096 424.485 392.387C423.04 395.88 421.593 399.228 420.148 402.724C419.138 404.905 417.691 406.945 416.826 409.129C415.669 411.893 414.08 414.515 412.489 416.99C409.888 421.065 407.142 424.996 404.977 429.217C403.385 432.13 401.652 434.897 399.774 437.663C399.195 438.389 398.762 439.118 398.327 439.7C396.738 442.029 395.437 444.36 393.704 446.541C390.524 450.619 387.057 454.84 383.732 458.771C381.564 461.246 379.254 463.574 376.941 466.05C374.917 468.234 372.895 470.418 370.727 472.599C370.294 473.037 369.715 473.475 369.282 473.911C368.126 474.931 366.681 475.948 365.669 477.115C363.068 479.734 360.178 482.354 357.145 484.538C355.697 485.411 354.397 486.284 353.243 487.451C349.63 490.07 345.872 492.255 341.682 494.439Z" fill="#BD1B21"/>
<path d="M507.573 294.265C507.717 294.265 507.717 293.974 507.717 293.683C507.864 293.101 507.864 291.934 507.864 291.934L509.597 275.63L510.754 260.343V245.203V242.875L509.018 225.698C509.018 225.698 506.996 210.264 505.407 202.258C504.828 199.493 503.095 198.036 500.782 196.872C500.061 196.435 499.193 196.144 498.325 195.853C496.736 195.271 494.859 194.543 493.123 194.106C489.221 193.087 485.608 191.922 481.706 191.194C477.084 190.467 472.458 189.884 467.836 189.447C463.934 189.156 460.176 189.011 456.419 188.865C453.383 188.865 451.505 188.865 448.471 188.865C446.88 188.865 445.147 188.865 444.426 189.884C443.702 190.903 444.135 192.796 444.57 194.543C445.147 198.328 445.726 200.22 446.303 203.861C448.18 214.923 450.06 225.842 450.493 237.051C450.637 242.146 450.928 247.096 451.217 252.191C451.217 253.649 451.217 254.522 451.217 255.977C451.217 256.851 451.505 257.724 451.794 258.453C452.229 259.179 452.95 259.179 453.674 259.47C454.683 259.761 455.551 259.908 456.419 260.052C457.431 260.343 459.164 260.637 460.465 261.072C464.943 262.527 469.569 264.129 473.903 265.876C476.939 267.04 479.829 268.933 482.719 270.388C483.007 270.535 483.298 270.826 483.731 270.97C485.464 272.282 487.2 273.593 488.933 274.757C492.979 277.667 497.025 280.58 500.205 284.655C500.782 285.384 501.506 286.113 502.227 286.839C503.383 287.859 505.407 291.79 506.852 293.536C507.141 294.118 507.429 294.265 507.573 294.265Z" fill="#BD1B21"/>
<path d="M393.699 111.419C395.291 111.273 396.591 111.273 397.745 111.128C398.613 110.982 399.481 110.982 399.769 110.108C400.202 109.235 399.481 108.216 399.192 107.779C399.046 107.051 396.012 101.956 396.012 101.956L393.122 97.4433L381.129 80.1192L378.672 77.2076L376.503 73.8595L372.602 69.4919L362.921 58.8649L358.728 54.7886L343.701 40.8129L331.417 31.2048L326.938 28.8756L312.488 19.9951L302.372 14.4631L300.492 13.5896L292.256 10.5326L279.972 5.8739L279.106 5.58285L275.06 4.56391L274.048 4.41812L270.579 3.54471L263.355 2.23445L259.886 2.08893L253.384 0.924195L245.58 0.342093L242.835 0.0507812H237.921L229.829 0.342093L221.735 1.21551L215.523 1.36104L210.03 1.9434L204.395 3.10786L200.06 4.41812L193.124 5.72838H191.534L185.031 8.05757L181.274 9.07677L178.962 10.5326L173.326 12.1339L170.581 13.7352L167.112 15.0454L158.731 18.5393L148.038 22.7612L144.569 24.508L137.055 28.5843L130.552 32.8061L124.483 36.009L122.315 37.319L115.668 40.8129L114.656 41.5408L106.998 47.5097L100.784 51.7315L99.6276 52.6049L92.4022 58.2825L89.9456 60.3206C89.9456 60.3206 86.0439 63.6688 86.0439 64.1056L88.7895 63.2322L93.7028 61.4851C93.8473 61.4851 94.7144 61.6306 94.7144 61.6306L101.651 58.7191H102.662L110.321 55.662L114.367 54.3517C114.367 54.4973 118.414 52.896 118.414 52.896L124.194 50.8578L138.067 45.4715H139.367L146.448 42.9965L152.084 40.6674L152.951 41.2497C152.951 41.2497 163.644 41.5408 163.789 41.5408L170.725 42.1231L170.87 42.2687L184.742 43.4334L184.887 43.2879L204.107 44.3068L204.251 44.7436L211.042 50.7123H211.622L218.557 57.5546L219.134 57.2633L228.673 57.5546L229.106 57.2633L253.239 58.7191L253.384 59.3014L264.076 65.5614H264.509L283.441 74.8784L283.585 75.8974L294.278 71.6758L310.031 77.0621L312.632 81.4295L318.7 81.2839L324.193 87.5439H324.77L329.248 92.6391L329.395 92.9302H329.972L342.401 95.8417L347.023 102.975L358.584 107.197C358.584 107.197 370.869 110.4 377.227 111.128C382.718 112.001 389.365 111.71 393.699 111.419Z" fill="#BD1B21"/>
<path d="M500.927 184.936C500.494 183.044 499.193 179.405 499.193 179.405L498.47 177.366L497.893 174.891L495.869 168.777L493.991 163.391L488.065 150.143L485.464 143.592L481.995 136.168L477.949 129.471L477.081 127.578L474.336 122.192L471.879 117.97L470.725 116.515L453.527 93.0763C453.527 93.0763 451.794 91.0381 451.07 90.1647C450.638 89.5823 450.493 89.291 450.061 89.291H449.914C449.914 89.291 444.568 98.0259 442.402 100.501C440.233 102.976 435.755 107.052 435.755 107.052C435.755 107.052 431.997 110.109 431.418 110.691C430.841 111.128 427.949 113.021 427.949 113.021L424.047 115.35C424.047 115.35 421.013 116.66 420.581 116.951C420.146 117.097 419.569 117.388 419.28 117.679C418.992 118.116 418.845 118.407 418.992 118.989C419.136 119.572 419.28 120.008 419.569 120.445C421.158 123.793 422.602 127.287 424.338 130.49C426.939 135.294 428.528 140.535 430.841 145.63C431.562 147.232 432.286 148.979 432.863 150.726C434.307 155.238 435.755 159.751 437.2 164.119C437.776 166.157 438.5 168.049 439.077 170.088C439.656 172.125 440.089 174.018 440.666 176.056C440.957 177.366 441.822 177.949 443.267 177.949C444.568 177.949 445.868 177.949 447.169 177.803C451.794 177.658 456.417 177.512 461.042 177.366C462.343 177.366 471.591 178.24 471.591 178.24C471.591 178.24 474.916 178.531 476.505 178.822C479.974 179.405 483.44 180.278 486.909 181.006C489.799 181.588 492.835 182.607 495.58 183.917C496.881 184.5 498.326 184.936 499.77 185.373C500.203 185.519 500.927 185.664 501.071 185.519C500.782 185.664 500.927 185.228 500.927 184.936Z" fill="#BD1B21"/>
<path d="M440.666 81.2835C440.522 80.5554 439.365 78.8085 439.365 78.8085L438.5 77.2072L436.043 74.2957L434.307 71.9662L431.129 68.9091C431.129 68.9091 430.406 68.3268 430.117 68.0357C424.626 63.5228 413.643 54.6424 413.643 54.4968L410.609 52.0221L404.974 46.9266L376.506 29.7483L353.817 18.9755C353.817 18.9755 341.968 14.3171 341.824 14.3171L337.487 12.8613L322.748 7.76611L312.344 5.1456L302.228 2.96193L300.639 2.81641L299.915 3.54429L300.35 3.98087C300.35 3.98087 301.362 4.41771 301.939 4.70876C304.973 6.01901 308.154 7.03822 311.332 8.34821C313.356 9.22189 315.233 10.2408 317.402 10.8232C318.846 11.2598 320.147 11.8421 321.448 12.57C326.217 15.3361 330.984 18.1021 335.754 21.0137C338.643 22.7607 341.244 24.6531 343.701 26.9823C345.581 28.7294 347.459 30.3307 349.771 31.641C350.783 32.2233 351.504 33.0967 352.517 33.8246C352.949 34.2615 353.529 34.698 353.961 35.1349C356.707 37.4641 359.743 39.5022 362.344 42.1227C364.945 45.0343 367.835 47.8003 370.58 50.4206C373.181 53.0411 375.927 55.6616 378.095 58.5731C379.972 61.0479 381.852 63.3771 384.018 65.5607C388.211 69.637 391.389 74.5867 395.146 78.954C395.579 79.5364 395.87 80.1188 396.303 80.8467C398.76 84.6317 400.925 88.7079 403.818 92.2019C405.839 94.6766 407.719 97.2971 409.02 100.209C409.885 101.955 411.041 103.557 412.198 105.158C412.777 106.177 413.934 106.614 414.51 106.469C415.087 106.469 416.099 105.886 416.099 105.886L418.124 105.013C418.124 105.013 420.725 103.848 421.737 103.411C422.602 102.975 424.482 101.955 425.059 101.373C425.639 100.791 428.384 98.8984 429.973 97.4426C431.418 95.9868 434.451 92.4929 434.451 92.4929L436.62 89.5814L440.377 83.1759C440.089 83.4672 440.81 82.0114 440.666 81.2835Z" fill="#BD1B21"/>
<path d="M428.817 177.074C427.228 172.27 426.071 167.757 424.338 163.098C422.893 159.313 421.881 155.237 420.004 151.598C418.992 149.414 418.412 146.939 417.547 144.61C417.112 143.445 416.535 142.281 416.102 141.116C413.934 135.147 411.188 130.197 408.299 124.52C408.152 124.229 408.008 123.937 407.719 123.355C407.431 122.773 407.287 122.336 406.563 121.899C405.842 121.463 405.262 121.754 403.962 121.899C401.505 122.19 398.471 122.482 397.171 122.482C396.014 122.482 391.245 122.918 387.343 123.21L386.622 122.918H384.165H381.997L369.715 121.317C365.234 120.735 354.973 118.114 354.973 118.114L347.461 115.494L338.21 112.291L337.489 112.728L322.895 111.563L322.46 111.854L314.224 105.594H313.356L308.298 100.936L308.154 99.9169L302.23 99.0435L301.651 99.3345L297.028 97.7332L296.449 97.2966L285.756 98.0245L276.072 94.0938L242.549 95.8408L241.97 95.5495L235.611 95.9864L234.89 96.4229L218.415 97.7332L217.983 97.2966L194.427 110.981L194.138 112L193.126 113.019L192.982 112.582L181.132 111.418L180.41 111.709L159.601 111.854L159.167 111.563L153.242 111.418L151.364 110.399L129.543 127.431L129.399 127.868L121.74 133.982L113.214 129.906L112.636 130.052L109.457 129.178C109.457 129.178 93.7053 133.255 93.8498 133.4C93.9943 133.546 79.11 131.071 79.11 131.071L78.0984 130.052L75.3528 132.963L69.428 135.875L69.2835 136.312L57.5785 145.338L40.8155 157.421L22.0296 171.542L13.5037 177.802L13.0703 181.441L9.45755 189.739L8.01252 196.873L5.70037 211.284L4.25534 217.546L3.67717 225.115L1.65423 240.691L0.787109 275.048L1.65423 277.088L2.23214 286.548C2.23214 286.548 2.37661 288.15 2.81004 288.297L44.4282 244.915L58.1564 239.382L69.5724 238.8L76.5089 230.792L77.2315 229.337L78.0984 229.772L96.8843 227.591L97.7514 227.009H104.688L105.699 227.444L108.011 224.387L116.393 219.001L125.352 212.742L150.641 213.033L150.786 213.615L160.612 214.488L168.415 212.886L182.577 198.328H182.866L194.138 187.555L211.045 185.372L211.768 184.935L212.49 185.663L221.305 189.885L221.884 189.302L229.688 188.283L230.12 187.847L237.344 186.682L237.924 186.245L245.871 193.088L246.304 192.505L262.49 192.214L263.935 191.195L276.94 191.777L277.664 192.068L279.686 191.632L279.974 191.049L285.176 188.72H285.756L291.826 185.954L292.403 185.372L298.761 182.897L299.194 182.169L316.969 175.327L317.113 175.036L320.294 174.017L321.015 173.289L321.883 174.308L327.085 176.783H328.674L334.456 179.985L334.888 179.403L336.621 178.529H336.766L339.658 177.219L339.802 177.074L343.992 176.055L354.685 178.821L356.998 178.238L358.875 179.549L366.678 180.713L374.338 183.625L378.819 183.334L380.263 184.353L381.42 183.625C381.42 183.625 396.447 181.732 404.106 181.15C409.02 180.713 413.934 180.277 418.847 179.694C421.593 179.403 424.338 179.112 427.083 178.821C428.528 179.403 429.396 178.821 428.817 177.074Z" fill="#BD1B21"/>
<path d="M439.8 254.958C439.8 253.94 439.656 253.211 439.512 252.191C439.365 249.281 439.221 246.368 439.077 243.457C439.077 242.437 438.932 241.564 438.788 240.547C438.5 236.907 438.5 233.268 438.065 229.628C437.488 224.969 436.911 220.456 436.187 215.797C435.61 212.304 435.031 208.665 434.31 205.169C433.586 201.531 433.009 198.037 432.285 194.397C431.562 190.612 430.696 190.175 426.939 190.612C426.651 190.612 426.36 190.758 426.071 190.758C424.626 191.049 422.749 191.195 421.304 191.486C413.934 192.505 406.995 192.796 399.483 193.669L378.239 201.094L347.605 200.22L344.281 199.056V199.638L335.321 206.334L334.02 206.48L326.941 213.177L326.505 214.195L308.154 216.67L291.391 229.772H289.657L280.698 235.014L277.084 235.449L273.615 238.507L272.75 237.78L255.699 236.616L252.662 239.964V240.547L237.924 256.851L237.779 257.724L237.2 257.871L218.415 279.561L213.213 279.707L212.778 280.289L197.317 283.056H196.161C196.161 283.056 195.872 283.782 195.727 283.782C195.583 283.782 170.294 298.049 170.294 298.049L158.878 296.74L156.421 297.614L145.005 296.885L133.733 308.676L126.942 309.987L123.04 309.84L119.138 311.589L116.826 311.298L116.971 311.733L102.953 322.652L101.653 322.943L79.6876 340.123L79.8323 341.14L66.2486 374.186L66.8265 375.644L44.4279 377.681L36.9136 384.087L36.1909 386.416L46.1619 400.391L53.5318 411.748L59.8903 419.9L70.2948 431.253C70.2948 431.253 70.2948 431.982 70.5837 432.126C70.7282 432.273 72.0287 432.273 72.0287 432.273C72.0287 432.273 78.2425 434.311 78.2425 434.457L85.9014 436.933L86.0461 437.368L86.7685 437.224L99.4851 442.172H100.497L101.219 443.047H102.375C102.52 443.047 105.41 445.085 105.41 445.085L110.757 442.172H111.046L113.358 440.572L132.577 445.376L146.595 438.097L177.808 435.039L190.525 414.22C192.548 412.183 196.161 408.399 196.161 408.399H196.594C196.594 408.399 200.929 404.322 201.074 404.178C201.074 404.031 201.074 403.593 201.074 403.593L209.167 396.17L212.925 392.239C212.925 392.239 213.79 391.801 213.79 391.657C213.934 391.657 218.127 387.145 218.127 387.145L221.593 383.505L222.461 383.358L221.593 380.157L225.207 366.763L232.286 364.726L232.577 364.435L234.599 363.997V362.833L243.994 347.546L244.859 347.111L248.761 339.541L255.119 335.901L255.987 334.881L257.288 335.025C257.288 335.025 261.045 332.844 261.189 332.844H261.622L268.557 329.786L269.137 328.913L292.114 318.286L293.559 318.139L293.847 316.828L294.715 316.102L297.025 308.094L304.252 304.892L312.635 303.872L320.291 298.487L331.131 298.922L332.143 299.795L332.72 299.069L347.894 292.225L347.75 290.188L351.36 283.2L358.875 281.163L359.31 280.725L369.571 278.541L373.472 273.884L374.049 273.737C374.049 273.737 376.362 271.408 376.506 271.408L383.586 272.428L383.877 272.719L387.778 273.302L390.088 273.593C390.088 273.593 400.349 268.789 404.685 267.04C406.563 266.314 408.296 265.876 410.032 265.294C412.489 264.421 414.799 263.547 417.256 262.819C418.556 262.383 419.568 262.092 420.869 261.801L425.638 260.928L431.273 260.052L434.31 259.908C434.31 259.908 436.043 259.761 436.62 259.617C437.199 259.47 438.211 259.47 438.932 258.888C439.656 258.162 439.656 257.58 439.656 256.851C439.8 256.269 439.8 255.831 439.8 254.958Z" fill="#BD1B21"/>
<path d="M439.509 275.196C439.509 274.321 439.654 273.012 438.932 272.283C438.353 271.557 437.488 271.41 436.908 271.41C436.331 271.41 433.73 271.701 433.73 271.701L429.249 272.43C428.672 272.43 428.237 272.574 427.804 272.721C425.203 273.303 422.458 273.885 419.857 274.614C416.967 275.487 413.931 276.214 411.186 277.525C408.296 278.836 404.971 279.853 402.082 281.309C401.07 281.893 391.245 286.697 386.764 288.881L380.984 294.993L380.84 296.304L380.117 296.013L376.503 296.304L376.215 296.595L364.51 300.526L364.654 301.837L363.498 303.001V303.73L358.007 313.481H357.286L357.139 314.501C357.139 314.501 355.986 316.395 354.829 318.432L330.119 334.445H329.539L325.782 337.649L323.036 347.985L320.58 350.314L310.899 386.126L312.199 390.204L297.893 397.045H295.581L292.835 409.565L292.4 410L288.934 421.357L289.078 421.939L287.633 431.693L287.054 432.422L287.489 433.295L273.76 455.132L272.748 455.423L269.425 460.664L269.281 461.682L257.576 478.279L245.148 485.702L245.869 486.722C245.869 486.867 245.148 491.817 245.148 491.817L246.304 493.71L244.568 494.292L235.611 499.678L234.743 499.387L221.593 507.248L220.004 509.723C220.004 509.868 225.207 510.452 225.207 510.452L233.731 511.179L239.513 511.47L246.448 511.761L249.482 511.908L254.54 512.052L259.598 511.908L278.094 509.576L288.934 507.686L297.17 505.355L306.129 502.735L317.546 498.223L318.414 497.785L321.592 495.894C321.592 495.894 330.84 490.944 335.03 487.887C342.112 482.501 349.192 477.112 355.695 471C358.007 468.816 360.031 466.776 362.344 464.595C364.366 462.555 366.534 460.373 368.556 458.333C368.847 457.898 369.424 457.607 369.568 457.169C370.292 455.423 371.592 454.258 372.749 453.094C373.614 452.218 374.482 451.345 375.203 450.328C376.65 448.144 378.672 446.397 380.552 444.648C381.997 443.193 383.441 441.591 384.598 439.845C386.764 436.787 388.788 433.586 390.812 430.382C393.557 426.16 396.591 422.085 398.904 417.717C401.505 413.058 403.962 408.254 406.563 403.597C408.729 399.667 411.041 395.589 412.775 391.512C415.667 384.524 418.556 377.683 421.302 370.695C424.191 363.27 426.36 355.555 428.384 347.839C429.829 342.162 430.838 336.194 432.862 330.661C433.151 329.932 433.295 329.206 433.439 328.333C434.163 323.674 435.031 318.87 435.752 314.21C436.476 309.698 437.052 305.329 437.632 300.817C438.065 297.759 438.641 294.702 438.788 291.645C439.221 287.423 439.365 283.202 439.509 278.98C439.509 278.545 439.509 277.525 439.509 277.525C439.509 277.525 439.509 275.923 439.509 275.196Z" fill="#BD1B21"/>
</g>
<defs>
<clipPath id="clip0_876_1583">
<rect width="509.967" height="512" fill="white" transform="translate(0.787109 0.0507812)"/>
</clipPath>
</defs>
</svg>
