<svg width="513" height="512" viewBox="0 0 513 512" fill="none" xmlns="http://www.w3.org/2000/svg">
<g clip-path="url(#clip0_750_355)">
<path d="M256.491 341.394C267.705 341.394 278.809 339.186 289.17 334.894C299.53 330.603 308.944 324.312 316.874 316.383C324.803 308.453 331.094 299.04 335.385 288.679C339.676 278.318 341.885 267.214 341.885 256C341.885 244.786 339.676 233.682 335.385 223.321C331.094 212.961 324.803 203.547 316.874 195.617C308.944 187.688 299.53 181.397 289.17 177.106C278.809 172.815 267.705 170.606 256.491 170.606C233.843 170.606 212.123 179.603 196.108 195.617C180.094 211.632 171.097 233.352 171.097 256C171.097 278.648 180.094 300.368 196.108 316.383C212.123 332.397 233.843 341.394 256.491 341.394Z" fill="#CC0000"/>
<path fill-rule="evenodd" clip-rule="evenodd" d="M512.491 256C512.491 323.895 485.52 389.01 437.511 437.019C389.501 485.029 324.387 512 256.491 512C188.596 512 123.481 485.029 75.4719 437.019C27.4626 389.01 0.491211 323.895 0.491211 256C0.491211 188.105 27.4626 122.99 75.4719 74.9807C123.481 26.9713 188.596 0 256.491 0C324.387 0 389.501 26.9713 437.511 74.9807C485.52 122.99 512.491 188.105 512.491 256ZM427.097 256C427.097 301.247 409.122 344.642 377.128 376.637C345.133 408.631 301.739 426.606 256.491 426.606C211.244 426.606 167.85 408.631 135.855 376.637C103.86 344.642 85.8855 301.247 85.8855 256C85.8855 210.753 103.86 167.358 135.855 135.364C167.85 103.369 211.244 85.3943 256.491 85.3943C301.739 85.3943 345.133 103.369 377.128 135.364C409.122 167.358 427.097 210.753 427.097 256Z" fill="#CC0000"/>
</g>
<defs>
<clipPath id="clip0_750_355">
<rect width="512" height="512" fill="white" transform="translate(0.491211)"/>
</clipPath>
</defs>
</svg>
