<svg width="515" height="513" viewBox="0 0 515 513" fill="none" xmlns="http://www.w3.org/2000/svg">
<g clip-path="url(#clip0_795_4185)">
<path d="M506.84 41.2902C489.399 34.9682 402.794 6.54883 257.825 6.54883C112.856 6.54883 26.243 34.9682 8.80204 41.2902C7.46213 59.1605 6.75146 76.4979 6.75146 93.1098C6.75146 350.098 160.234 461.288 257.825 505.986C355.423 461.288 508.906 350.098 508.906 93.1098C508.906 76.4757 508.165 59.1383 506.848 41.2902M488.881 193.655C467.783 311.263 412.699 387.171 328.892 444.824C307.113 459.815 283.402 473.577 257.825 486.487C227.303 471.06 199.432 454.455 174.336 435.985C194.161 367.102 239.784 336.854 239.784 336.854C212.505 305.415 245.625 282.407 245.625 282.407C239.74 294.658 238.415 312.758 252.399 324.507C266.383 336.255 281.27 323.026 291.93 323.507C302.59 323.988 316.492 331.939 316.492 331.939C327.989 328.275 330.128 318.94 330.128 318.94C330.128 318.94 328.381 314.668 324.532 313.277C322.892 313.234 321.267 313.599 319.803 314.339C318.339 315.08 317.082 316.172 316.144 317.518C315.285 309.879 325.087 304.534 325.087 304.534C328.142 304.554 331.156 305.249 333.911 306.57C336.666 307.89 339.096 309.804 341.025 312.174L356.297 312.447C359.132 304.815 364.381 304.023 364.381 304.023L337.945 276.255C323.628 260.532 339.256 248.361 339.256 248.361C338.261 245.19 336.663 242.241 334.548 239.678C334.548 239.678 354.061 238.738 368.445 237.331C403.379 233.896 406.421 189.85 488.896 193.655C409.582 181.373 394.814 220.667 357.407 223.651C338.16 225.191 321.785 224.968 321.785 224.968C321.785 224.968 310.896 216.751 300.132 211.421L248.453 211.073C248.453 211.073 233.988 216.322 223.905 226.456L163.498 225.916C109.273 223.925 93.3568 170.691 26.5836 192.922C96.1255 182.388 93.9935 235.74 162.373 242.002L237.193 245.948C237.193 245.948 243.434 242.661 239.977 232.623C243.678 233.741 255.893 250.619 241.191 264.87C236.201 270.163 220.152 282.955 176.49 291.32C180.356 281.297 186.92 272.539 195.456 266.017C189.912 265.499 184.197 264.929 178.57 264.366C143.95 287.026 112.916 314.74 86.5019 346.589C57.7716 304.534 37.5471 254.409 26.6058 192.914C19.1215 150.77 15.9754 103.34 17.4115 49.4481C17.4115 49.4481 107.481 15.0621 257.825 15.0621C408.168 15.0621 498.238 49.4481 498.238 49.4481C499.674 103.651 496.491 151.362 488.881 193.662M297.608 229.188C293.714 225.701 292.848 220.194 299.088 217.099C296.823 223.636 310.414 224.813 315.996 233.282C323.066 244.075 312.998 250.064 313.568 257.785C309.659 246.599 299.429 246.518 294.757 242.506C290.086 238.493 290.079 234.466 292.189 232.016C293.928 237.065 302.405 233.497 297.593 229.196M308.963 276.751C288.547 265.751 261.326 268.082 261.326 268.082C264.761 261.528 269.899 256.019 276.199 252.137C290.908 256.031 299.762 259.54 308.971 276.744" fill="white"/>
<path d="M52.8638 160.668L69.5719 157.462V112.298L84.2072 109.522V93.5094L69.5719 96.3521V75.8537L84.2072 72.8186V56.377L52.8638 63.5133V160.668Z" fill="white"/>
<path d="M115.203 50.6694C97.5027 53.5269 96.3182 56.3918 96.1479 73.4109V135.313C96.3108 151.222 97.436 153.013 115.203 151.288C133.147 149.067 135.701 147.224 135.857 131.367V111.898L119.148 113.445V132.315C119.148 134.95 117.505 135.802 116.047 136.016C114.685 136.076 112.871 135.861 112.871 132.752V71.5083C112.871 69.0432 114.248 67.8439 115.832 67.6515C117.579 67.3702 119.171 68.3918 119.171 70.8643V82.9383L135.879 81.1986V68.6953C135.753 50.9285 133.177 48.3672 115.225 50.6694" fill="white"/>
<path d="M205.265 42.3489L182.391 44.0072V145.166L205.791 143.841C220.337 143.027 222.669 140.962 222.899 126.815V63.3655C222.595 43.9998 219.812 41.7715 205.236 42.3415M206.191 125.993C206.191 128.281 205.895 129.08 203.622 129.206L199.047 129.606V61.2557L203.622 60.8411C205.199 60.8411 206.094 61.5814 206.191 65.194V125.993Z" fill="white"/>
<path d="M244.33 41.2163L234.306 143.234L249.726 143.064L251.014 125.297L260.172 125.179L261.585 142.738L277.006 142.857L266.908 40.8535L244.33 41.2163ZM251.88 109.766L255.7 69.68L259.335 109.655L251.88 109.766Z" fill="white"/>
<path d="M306.121 129.028V42.1487L289.405 41.4307V143.175L317.699 144.093L317.684 129.369L306.121 129.028Z" fill="white"/>
<path d="M346.681 131.079L346.696 45.0805L329.973 43.6592V144.855L357.896 147.047V132.137L346.681 131.079Z" fill="white"/>
<path d="M378.979 48.8188L369 147.876L384.421 149.356L385.709 131.205L394.703 132.004L395.991 150.511L411.411 152.266L401.306 51.6911L378.979 48.8188ZM386.53 115.651L390.232 77.0457L393.867 116.281L386.53 115.651Z" fill="white"/>
<path d="M442.022 57.5395C424.144 54.5783 423.122 56.8954 422.967 73.9737V87.6615C423.107 96.1451 424.706 100.927 430.199 105.761L442.258 115.385C444.59 117.413 446.034 119.723 446.108 122.788V138.622C446.108 141.013 444.183 141.347 442.703 141.25C441.853 141.088 441.088 140.633 440.539 139.965C439.99 139.297 439.692 138.458 439.697 137.593V123.373L422.974 121.389V135.794C423.13 151.733 424.98 154.109 442.688 156.826C460.677 159.113 462.675 158.262 462.801 141.968V121.707C462.624 115.155 460.58 109.722 455.465 105.288L442.762 95.1087C440.652 93.1766 439.756 91.5331 439.682 88.1278V76.6905C439.682 74.3142 441.333 73.7294 442.695 73.8552C444.139 74.1958 446.078 76.1427 446.078 78.6597V88.4314L462.786 90.8669V81.073C462.624 64.8608 459.825 61.0262 442.059 57.5395" fill="white"/>
<path d="M261.304 403.635L259.927 381.101L244.174 403.635H217.961L235.202 418.641L221.744 441.974L246.884 427.494L263.955 441.73L262.282 418.47L287.614 403.635H261.304Z" fill="white"/>
<path d="M242.597 172.186H228.532C220.892 172.186 217.013 172.83 217.013 178.035V179.863C217.013 183.653 218.723 185.711 228.228 185.711H237.43C241.287 185.711 243.16 185.171 244.759 184.112V186.629C244.759 188.265 243.345 189.139 239.954 189.139H216.784V193.655H240.058C250.6 193.655 254.123 191.789 254.123 185.4V179.515C254.123 174.052 250.311 172.149 242.612 172.149M239.732 181.321H231.123C227.133 181.321 226.104 180.781 226.104 179.034C226.104 177.287 227.177 176.673 230.945 176.673H239.94C243.722 176.673 244.781 177.22 244.781 179.034C244.781 180.848 243.752 181.321 239.718 181.321" fill="#C3C6C8"/>
<path d="M287.644 180.093H278.449C274.592 180.093 272.705 180.641 271.098 181.677V179.227C271.098 177.546 272.52 176.65 275.918 176.65H297.978V172.187H275.858C265.324 172.187 261.793 174.045 261.793 180.433V186.252C261.793 191.723 265.65 193.655 273.312 193.655H287.377C295.032 193.655 298.896 192.981 298.896 187.806V185.978C298.896 182.173 297.208 180.108 287.695 180.108M284.979 189.109H275.925C272.164 189.109 271.091 188.562 271.091 186.763C271.091 184.964 272.127 184.46 276.11 184.46H284.749C288.754 184.46 289.768 184.986 289.768 186.763C289.768 188.539 288.71 189.109 284.934 189.109" fill="#C3C6C8"/>
<path d="M512.6 37.0779C512.6 37.0779 423.359 0.574707 257.825 0.574707C92.291 0.574707 3.05022 37.0779 3.05022 37.0779C-18.0626 299.833 111.072 446.394 257.825 512.575C404.571 446.386 533.705 299.833 512.6 37.0779ZM257.825 505.986C160.227 461.288 6.75162 350.098 6.75162 93.1097C6.75162 76.4756 7.4919 59.1383 8.8096 41.2901C26.2506 34.9903 112.871 6.57098 257.825 6.57098C402.779 6.57098 489.407 34.9903 506.84 41.3123C508.195 59.1827 508.898 76.5201 508.898 93.1319C508.898 350.091 355.416 461.281 257.825 505.971" fill="#C6093B"/>
<path d="M373.309 254.358L346.17 260.421C341.447 263.633 333.319 270.563 337.908 276.27L364.373 303.957C359.362 314.668 369.407 321.212 369.407 321.212C368.075 328.808 358.118 339.149 358.118 339.149L347.502 339.793L342.957 347.115L313.916 349.373L307.764 346.493C284.682 391.31 301.309 425.54 328.892 444.817C412.699 387.171 467.776 311.263 488.888 193.655C411.537 197.978 410.885 245.415 373.309 254.358Z" fill="#C6093B"/>
<path d="M26.6133 192.914C37.5398 254.358 57.7717 304.504 86.5094 346.597C112.932 314.732 143.978 287.004 178.615 264.337C169.376 263.397 160.426 262.412 153.061 261.479C90.1367 253.558 87.3533 193.847 26.6503 192.877" fill="#C6093B"/>
<path d="M313.568 257.756C312.983 250.049 323.036 244.053 315.981 233.267C310.414 224.769 296.815 223.643 299.073 217.077C292.855 220.194 293.706 225.687 297.593 229.173C302.427 233.504 293.936 237.05 292.189 231.986C290.057 234.452 290.071 238.486 294.765 242.476C299.458 246.466 309.652 246.57 313.568 257.756Z" fill="#C6093B"/>
<path d="M364.381 303.993C364.381 303.993 359.132 304.778 356.297 312.418L341.025 312.136C339.096 309.767 336.666 307.853 333.911 306.533C331.155 305.212 328.142 304.517 325.087 304.497C325.087 304.497 315.285 309.871 316.137 317.511C317.075 316.165 318.332 315.072 319.796 314.329C321.259 313.586 322.883 313.217 324.524 313.254C328.381 314.653 330.121 318.932 330.121 318.932C330.121 318.932 327.989 328.26 316.485 331.924C316.485 331.924 302.575 323.981 291.922 323.5C281.269 323.019 266.382 336.218 252.391 324.499C238.4 312.781 239.732 294.658 245.618 282.399C245.618 282.399 212.497 305.4 239.777 336.84C239.777 336.84 194.153 367.08 174.329 435.978C199.424 454.441 227.303 471.045 257.817 486.487C283.379 473.569 307.09 459.8 328.884 444.824C301.316 425.577 284.697 391.332 307.742 346.5L313.894 349.373L342.957 347.115L347.517 339.83L358.148 339.186C358.148 339.186 368.112 328.822 369.429 321.257C369.429 321.257 359.376 314.698 364.41 303.986M263.947 441.737L246.92 427.502L221.751 441.967L235.239 418.633L217.976 403.642H244.204L259.964 381.086L261.326 403.642H287.673L262.333 418.448L263.947 441.737Z" fill="#001F5B"/>
<path d="M251.858 109.773L259.313 109.677L255.678 69.6797L251.858 109.773Z" fill="#001F5B"/>
<path d="M498.246 49.4184C498.246 49.4184 408.198 15.062 257.825 15.062C107.452 15.062 17.4044 49.4184 17.4044 49.4184C15.9757 103.289 19.1218 150.718 26.6061 192.855C93.3646 170.647 109.281 223.865 163.484 225.842L223.891 226.382C233.959 216.27 248.438 211.007 248.438 211.007L300.11 211.355C310.881 216.707 321.756 224.924 321.756 224.924C321.756 224.924 338.123 225.146 357.371 223.606C394.777 220.601 409.583 181.336 488.874 193.655C496.484 151.37 499.682 103.659 498.246 49.4258M84.2073 72.8187L69.5423 75.8538V96.33L84.1851 93.5021V109.507L69.5423 112.305V157.462L52.8342 160.675V63.5504L84.1777 56.3993L84.2073 72.8187ZM135.864 81.2357L119.156 82.9605V70.8643C119.156 68.4362 117.557 67.3998 115.81 67.6515C114.248 67.8292 112.849 69.0284 112.849 71.5084V132.737C112.849 135.854 114.67 136.061 116.025 136.002C117.505 135.772 119.141 134.913 119.141 132.3V113.438L135.849 111.876V131.345C135.686 147.224 133.132 149.075 115.188 151.266C97.4213 153.013 96.3035 151.214 96.1332 135.306V73.4109C96.2961 56.3845 97.4879 53.49 115.188 50.6695C133.184 48.3598 135.701 50.9138 135.849 68.6953L135.864 81.2357ZM182.368 145.203V43.9848L205.243 42.3487C219.819 41.7713 222.595 43.9922 222.914 63.3727V126.859C222.669 140.991 220.345 143.034 205.798 143.841L182.368 145.203ZM254.124 185.378C254.124 191.759 250.578 193.632 240.058 193.632H216.799V189.08H239.97C243.368 189.08 244.781 188.221 244.781 186.585V184.031C243.182 185.09 241.332 185.63 237.453 185.63H228.266C218.753 185.63 217.051 183.579 217.051 179.782V177.953C217.051 172.771 220.907 172.098 228.569 172.098H242.598C250.304 172.098 254.109 174.03 254.109 179.463L254.124 185.378ZM260.179 125.156L251.037 125.268L249.749 143.034L234.329 143.212L244.345 41.2087L266.945 40.846L277.072 142.834L261.652 142.716L260.179 125.156ZM298.859 187.784C298.859 192.966 295.002 193.632 287.34 193.632H273.275C265.569 193.632 261.763 191.7 261.763 186.23V180.367C261.763 173.971 265.324 172.112 275.829 172.112H297.948V176.628H275.918C272.527 176.628 271.098 177.494 271.098 179.16V181.647C272.705 180.603 274.57 180.048 278.449 180.048H287.644C297.164 180.048 298.844 182.114 298.844 185.919L298.859 187.784ZM289.406 143.167V41.4308L306.114 42.1711V129.028L317.677 129.369V144.093L289.406 143.167ZM329.973 144.855V43.6294L346.659 45.0434V131.057L357.874 132.115V147.017L329.973 144.855ZM395.991 150.474L394.703 131.967L385.709 131.16L384.413 149.327L368.993 147.846L378.965 48.7966L401.291 51.6689L411.411 152.199L395.991 150.474ZM462.816 90.8519L446.108 88.4164V78.6447C446.108 76.1277 444.183 74.1512 442.725 73.8403C441.363 73.7218 439.705 74.2992 439.705 76.6755V88.1351C439.786 91.5404 440.689 93.1986 442.784 95.1011L455.48 105.287C460.662 109.729 462.646 115.14 462.824 121.699V141.953C462.676 158.24 460.684 159.106 442.71 156.818C425.01 154.109 423.152 151.718 422.997 135.787V121.388L439.705 123.395V137.593C439.698 138.459 439.995 139.3 440.544 139.969C441.093 140.639 441.86 141.095 442.71 141.258C444.191 141.354 446.115 141.013 446.115 138.63V122.773C446.071 119.701 444.635 117.398 442.266 115.37L430.214 105.746C424.721 100.927 423.145 96.1227 422.982 87.6687V73.9587C423.13 56.8878 424.151 54.556 442.029 57.5171C459.796 61.0186 462.631 64.8385 462.824 81.0654L462.816 90.8519Z" fill="#001F5B"/>
<path d="M284.756 184.438H276.117C272.127 184.438 271.091 184.978 271.091 186.733C271.091 188.487 272.172 189.08 275.94 189.08H284.934C288.702 189.08 289.775 188.532 289.775 186.733C289.775 184.934 288.761 184.438 284.756 184.438Z" fill="#001F5B"/>
<path d="M386.523 115.666L393.844 116.295L390.21 77.0308L386.523 115.666Z" fill="#001F5B"/>
<path d="M203.652 60.8485L199.077 61.2556V129.628L203.652 129.228C205.872 129.073 206.169 128.258 206.22 126.015V65.2013C206.139 61.5666 205.243 60.8189 203.652 60.8485Z" fill="#001F5B"/>
<path d="M239.94 176.628H230.946C227.163 176.628 226.089 177.176 226.089 178.989C226.089 180.803 227.118 181.277 231.108 181.277H239.711C243.745 181.277 244.774 180.751 244.774 178.989C244.774 177.228 243.715 176.628 239.933 176.628" fill="#001F5B"/>
<path d="M368.43 237.331C354.047 238.73 334.518 239.678 334.518 239.678C336.642 242.234 338.251 245.178 339.256 248.346C339.256 248.346 323.665 260.524 337.968 276.248C333.393 270.54 341.491 263.589 346.222 260.398L373.309 254.357C410.856 245.474 411.507 198 488.859 193.699C406.384 189.842 403.334 233.911 368.408 237.375" fill="#001F5B"/>
<path d="M178.571 264.322C184.197 264.892 189.912 265.462 195.456 265.98C186.929 272.503 180.368 281.254 176.498 291.268C220.174 282.918 236.224 270.126 241.213 264.833C255.9 250.597 243.686 233.741 239.999 232.564C243.441 242.595 237.208 245.889 237.208 245.889L162.388 241.958C94.0233 235.688 96.1405 182.336 26.606 192.863C87.3089 193.855 90.0998 253.566 153.024 261.487C160.382 262.419 169.31 263.411 178.571 264.344" fill="#001F5B"/>
<path d="M308.993 276.699C299.791 259.525 290.938 255.971 276.214 252.1C269.913 255.975 264.775 261.478 261.341 268.03C261.341 268.03 288.561 265.699 308.978 276.699" fill="#001F5B"/>
</g>
<defs>
<clipPath id="clip0_795_4185">
<rect width="514.095" height="512" fill="white" transform="translate(0.776855 0.574707)"/>
</clipPath>
</defs>
</svg>
