<svg width="526" height="513" viewBox="0 0 526 513" fill="none" xmlns="http://www.w3.org/2000/svg">
<g clip-path="url(#clip0_820_314)">
<path d="M93.8518 0.0507812H432.997C484.416 0.0507812 525.989 41.6234 525.989 93.0422V419.059C525.989 470.478 484.416 512.051 432.997 512.051H93.8518C42.433 512.051 0.860352 470.478 0.860352 419.059V93.0422C0.860352 41.6234 42.433 0.0507812 93.8518 0.0507812Z" fill="#1E3101"/>
<path d="M165.181 365.452C153.147 365.671 141.112 364.358 129.516 362.17C120.326 360.42 111.136 357.576 102.603 353.637C100.634 352.762 99.7586 350.793 99.7586 347.729V305.719C99.7586 305.063 99.9774 304.188 100.634 303.75C101.29 303.312 102.165 303.531 102.822 303.969C112.668 310.095 123.171 314.69 134.111 317.753C144.613 320.817 155.553 322.348 166.494 322.348C179.841 322.348 189.468 320.379 195.157 316.222C200.408 312.94 203.69 307.251 203.69 300.905C203.69 297.186 202.815 293.466 200.846 290.184C198.22 286.464 194.938 283.182 191 280.776C184.873 277.056 178.309 273.774 171.526 271.367L154.022 263.928C139.8 257.801 128.422 251.237 120.326 244.454C112.887 238.546 107.198 230.888 103.697 222.136C100.634 213.822 99.1022 205.288 99.1022 196.317C98.6646 170.936 113.543 147.524 136.736 137.24C149.208 131.333 164.743 128.27 183.341 128.27C193.844 128.27 204.347 128.926 214.849 130.458C222.945 131.333 230.822 133.74 238.261 137.24C239.793 138.116 240.887 139.866 240.668 141.835V181.658C240.668 182.314 240.23 182.97 239.574 183.408C238.699 183.846 237.824 183.189 237.167 182.97C235.854 182.314 234.541 181.658 233.229 181.001C230.603 179.907 227.977 178.813 225.133 177.719C222.507 176.844 219.663 175.969 216.818 175.093C215.506 174.656 213.974 174.437 212.661 173.999C203.034 171.811 193.188 170.717 183.341 170.936C177.434 170.936 171.745 171.374 166.056 172.687C162.118 173.562 158.179 175.093 154.678 177.063C151.834 178.594 149.646 181.001 148.114 183.846C146.801 186.471 145.926 189.316 145.926 192.16C145.926 195.661 147.02 199.381 148.989 202.225C151.834 205.945 155.553 208.789 159.492 210.977C166.056 214.697 172.839 218.198 179.841 221.261L192.969 226.293C208.504 232.639 220.538 239.422 229.29 246.642C237.167 252.769 243.512 260.864 247.67 269.835C251.171 278.369 252.921 287.558 252.921 296.748C253.14 309.876 249.201 322.567 241.762 333.288C233.885 344.01 223.164 352.324 210.911 357.357C198.658 362.608 183.123 365.452 165.181 365.452Z" fill="#99E83F"/>
<path d="M353.791 183.395C371.076 183.395 385.298 186.458 395.801 192.803C406.085 198.711 414.399 207.682 419.651 218.622C424.902 230 427.527 242.471 427.309 254.943V322.991C427.309 327.367 427.309 331.743 427.527 335.682C427.746 339.62 427.746 343.777 427.965 347.935C427.965 348.81 427.746 349.466 427.309 349.685C416.806 353.624 407.398 356.906 399.083 359.094C391.206 361.282 383.329 363.032 375.233 364.126C367.138 365.001 358.823 365.658 350.509 365.439C338.256 365.658 326.221 363.47 314.844 359.094C304.56 355.155 295.589 348.372 289.025 339.62C282.461 330.868 279.179 319.928 279.179 306.581C279.179 293.89 282.68 283.388 289.462 274.854C296.902 266.102 306.748 259.319 317.907 255.818C331.254 251.442 345.039 249.254 359.042 249.473H371.951C374.577 249.473 377.203 249.473 379.828 249.911V247.723C379.609 245.535 379.391 243.565 378.515 241.596C377.64 238.752 375.89 236.126 373.702 233.938C370.857 231.312 367.357 229.343 363.637 228.03C357.948 226.28 352.04 225.624 346.133 225.842C337.599 225.842 329.066 226.499 320.751 228.249C313.312 229.781 306.092 231.969 299.309 235.032C298.652 235.251 297.777 235.251 297.121 235.032C296.464 234.813 296.027 233.938 296.027 233.282V197.836C295.808 196.085 296.902 194.553 298.433 193.897C306.748 190.177 315.719 187.552 324.69 186.02C334.536 184.27 344.163 183.395 353.791 183.395ZM379.828 324.304V286.889C376.984 286.451 374.358 286.013 371.733 285.795C369.107 285.576 366.044 285.357 362.324 285.357C349.633 285.357 340.662 287.326 335.411 291.046C330.379 294.547 327.315 300.454 327.534 306.581C327.534 310.301 328.628 313.801 330.598 316.865C333.004 320.365 336.505 322.991 340.444 324.523C345.914 326.711 351.821 327.805 357.948 327.586C361.886 327.586 366.044 327.367 369.982 326.711C373.045 326.054 376.546 325.179 379.828 324.304Z" fill="#99E83F"/>
</g>
<defs>
<clipPath id="clip0_820_314">
<rect width="525.128" height="512" fill="white" transform="translate(0.860352 0.0507812)"/>
</clipPath>
</defs>
</svg>
