<svg width="1025" height="416" viewBox="0 0 1025 416" fill="none" xmlns="http://www.w3.org/2000/svg">
<g clip-path="url(#clip0_874_657)">
<path d="M1024.02 415.991H0.120361V0.111328H1024.12L1024.02 415.991Z" fill="#0058A3"/>
<path d="M20.0826 208.052C20.0826 308.591 226.255 392.079 512.068 392.079C797.986 392.079 1004.05 308.695 1004.05 208.052C1004.05 107.409 797.882 24.0254 511.964 24.0254C226.047 24.0254 20.0826 107.513 20.0826 208.052Z" fill="#FFDB00"/>
<path d="M483.061 267.003C486.284 271.786 489.819 276.152 493.874 280.103H383.146C383.146 275.737 378.987 266.795 374.204 259.725C369.318 252.655 344.053 213.978 344.053 213.978V267.003C344.053 271.474 344.053 275.737 346.34 280.103H254.015C256.094 275.737 256.094 271.474 256.094 267.003V141.199C256.094 136.729 256.094 132.466 254.015 128.099H346.34C344.053 132.466 344.053 136.729 344.053 141.095V195.992C344.053 195.992 373.58 157.731 380.338 148.581C385.537 141.823 391.775 132.362 391.775 127.891H488.051C480.543 133.553 473.829 140.197 468.089 147.646L432.843 190.585C432.843 190.585 477.238 258.374 483.061 267.003ZM511.964 141.199V267.003C511.964 271.474 511.964 275.737 509.781 280.103H687.882V237.995C683.515 240.179 679.252 240.179 674.885 240.179H599.923V220.217H671.974V188.298H599.923V168.44H674.781C679.252 168.44 683.515 168.44 687.882 170.519V128.307H509.885C511.964 132.57 511.964 136.833 511.964 141.199ZM934.914 267.003C936.37 271.89 938.865 276.36 942.088 280.103H845.5C845.916 275.737 844.356 271.474 842.589 267.003L839.054 258.374L838.222 256.19H782.598L781.662 258.374L778.543 267.003C777.192 271.474 775.528 275.737 776.152 280.103H699.838C702.957 276.256 705.245 271.89 706.7 267.003L752.447 141.199C754.006 136.729 755.566 132.466 755.046 128.099H883.865C882.617 132.466 884.905 136.729 886.568 141.095L934.914 267.003ZM826.058 224.063L812.542 188.818C811.315 185.562 810.307 182.227 809.526 178.837C809.006 182.268 807.967 185.595 806.927 188.818C806.511 190.273 800.689 205.661 794.139 224.063H826.058ZM210.14 127.995H109.809C111.888 132.362 111.888 136.625 111.888 140.991V266.899C111.888 271.37 111.888 275.633 109.809 279.999H210.14C207.956 275.633 207.956 271.37 207.956 266.899V141.095C207.956 136.625 207.956 132.258 210.14 127.995ZM903.931 140.056C903.82 137.509 904.218 134.966 905.104 132.575C905.989 130.185 907.343 127.995 909.087 126.136C910.83 124.276 912.928 122.784 915.256 121.746C917.585 120.708 920.097 120.147 922.646 120.094H923.893C934.81 119.886 943.648 128.515 943.856 139.224V140.056C943.993 145.364 942.017 150.509 938.361 154.36C934.705 158.211 929.669 160.452 924.361 160.59C919.053 160.728 913.908 158.751 910.057 155.095C906.206 151.439 903.965 146.404 903.827 141.095L903.931 140.056ZM907.986 140.056C907.986 148.789 914.952 155.963 923.893 156.171C932.731 156.171 939.905 149.101 940.113 140.16C940.113 131.322 933.043 124.148 924.101 124.044C915.576 123.732 908.402 130.283 908.09 138.808L907.986 140.056ZM919.942 151.908H916.407V127.995H925.453C929.716 128.099 932.939 131.53 932.939 135.793C932.939 138.704 931.379 141.303 928.78 142.759L933.874 152.116H929.924L925.245 143.487H920.046L919.942 151.908ZM919.942 140.056H924.829C927.116 140.056 929.196 138.392 929.196 136.001C929.238 135.451 929.168 134.899 928.99 134.378C928.812 133.856 928.53 133.376 928.16 132.968C927.79 132.559 927.341 132.23 926.84 132.001C926.339 131.771 925.796 131.647 925.245 131.634H920.046L919.942 140.056Z" fill="#0058A3"/>
</g>
<defs>
<clipPath id="clip0_874_657">
<rect width="1024" height="415.88" fill="white" transform="translate(0.120361 0.111328)"/>
</clipPath>
</defs>
</svg>
