<svg width="1025" height="298" viewBox="0 0 1025 298" fill="none" xmlns="http://www.w3.org/2000/svg">
<g clip-path="url(#clip0_826_283)">
<path d="M591.133 210.206C595.02 193.03 608.31 180.961 627.536 180.961C645.342 180.961 658.447 190.771 661.902 210.206H591.133ZM628.979 297.128C659.446 297.128 679.498 283.838 690.542 271.152C693.812 267.475 693.195 263.995 689.925 261.527L673.143 249.064C669.676 246.411 667.01 247.423 664.357 250.076C660.261 254.161 650.241 265.007 629.399 265.007C611.605 265.007 594.231 253.963 590.529 235.96H691.776C695.873 235.96 698.526 233.504 698.526 229.419V223.299C698.526 183.195 673.378 149.051 626.734 149.051C585.198 149.051 552.078 179.32 552.078 223.706C552.078 268.08 585.001 297.128 628.979 297.128ZM421.166 294.66H537.332C541.417 294.66 544.082 292.216 544.082 288.12V268.894C544.082 264.822 541.417 262.354 537.332 262.354H464.528L536.333 186.07C539.195 182.997 539.615 180.961 539.615 176.667V158.046C539.615 153.962 536.95 151.506 532.853 151.506H422.412C418.328 151.506 415.662 153.962 415.662 158.046L415.465 177.272C415.465 181.369 418.118 183.812 422.215 183.812H489.911L417.711 260.725C414.848 263.761 414.441 265.834 414.441 270.128V288.12C414.441 292.216 417.106 294.66 421.166 294.66ZM314.205 263.588C290.908 263.588 274.126 245.585 274.126 223.089C274.126 200.594 290.895 182.59 314.205 182.59C337.527 182.59 353.89 200.594 353.89 223.089C353.89 245.585 337.527 263.588 314.205 263.588ZM307.677 297.128C329.766 297.128 345.511 288.329 352.878 275.039V288.12C352.878 292.216 355.543 294.66 359.628 294.66H383.357C387.441 294.66 390.107 292.216 390.107 288.12V158.059C390.107 153.962 387.441 151.506 383.357 151.506H359.615C355.519 151.506 352.866 153.962 352.866 158.046V171.139C345.499 157.849 329.766 149.051 308.48 149.051C268.807 149.051 235.675 179.32 235.675 223.706C235.675 268.08 268.807 297.128 307.677 297.128ZM129.122 151.506H103.122C99.247 151.506 96.5816 152.938 95.1502 157.429L66.522 247.83L39.5227 157.232C38.5109 153.752 36.4501 151.506 31.7487 151.506H6.60031C1.49166 151.506 -0.963949 154.776 0.677236 159.897L43.8293 288.329C45.2607 292.624 47.7163 294.672 51.6033 294.672H79.2073C83.082 294.672 86.3643 292.821 87.7834 288.329L115.609 199.767L143.423 288.329C144.855 292.833 147.717 294.672 152.036 294.672H178.999C183.503 294.672 185.958 292.426 187.39 288.329L230.542 159.897C232.183 154.776 229.727 151.506 224.619 151.506H200.285C195.571 151.506 193.535 153.752 192.511 157.232L165.733 247.83L137.093 157.442C135.662 152.95 133.021 151.506 129.122 151.506Z" fill="black"/>
<path d="M1024.17 134.132C1024.2 116.646 1020.77 99.3262 1014.07 83.1758C1007.36 67.0255 997.523 52.3646 985.117 40.0415C972.802 27.6325 958.149 17.7899 942.004 11.0838C925.86 4.37777 908.545 0.941433 891.063 0.97386C850.379 0.97386 812.484 19.1133 786.607 51.5544C767.903 75.0655 757.724 104.224 757.732 134.268V156.356C757.732 167.597 748.86 178.691 733.892 178.703C732.673 178.709 731.488 179.105 730.511 179.833C729.534 180.562 728.816 181.584 728.462 182.75C725.674 191.993 736.965 212.366 752.957 228.543C763.137 238.84 774.965 247.364 787.952 253.766C787.031 259.083 787.284 264.537 788.692 269.746C790.101 274.955 792.631 279.793 796.106 283.922C799.581 288.051 803.916 291.369 808.809 293.646C813.701 295.923 819.032 297.103 824.429 297.103C832.975 297.152 841.273 294.226 847.899 288.827C854.525 283.428 859.066 275.893 860.744 267.512H891.804C895.937 288.44 917.68 302.779 940.94 294.919C945.943 293.219 950.5 290.416 954.272 286.716C958.044 283.016 960.936 278.515 962.732 273.546C966.006 264.816 965.945 255.185 962.559 246.498C970.731 241.266 978.311 235.164 985.166 228.296C997.567 215.96 1007.4 201.286 1014.09 185.125C1020.78 168.964 1024.21 151.636 1024.16 134.144L1024.17 134.132ZM891.026 252.828H860.781C859.317 245.619 855.74 239.009 850.506 233.841C845.272 228.672 838.617 225.179 831.391 223.807C824.164 222.434 816.692 223.244 809.927 226.134C803.163 229.023 797.411 233.861 793.406 240.031V240.278C782.321 234.565 772.226 227.107 763.507 218.19C753.093 207.652 747.429 198.015 744.837 191.931C751.619 190.28 757.777 186.702 762.569 181.628C768.949 174.754 772.478 165.709 772.441 156.331V134.305C772.411 108.041 781.139 82.5178 797.244 61.7717C820.295 32.2181 854.389 15.6705 891.026 15.6705C914.446 15.6828 937.336 22.6372 956.804 35.6549C976.272 48.6727 991.444 67.1694 1000.4 88.8075C1009.36 110.446 1011.71 134.254 1007.14 157.224C1002.57 180.193 991.295 201.293 974.739 217.857C963.768 228.898 950.729 237.669 936.368 243.67C922.006 249.67 906.591 252.782 891.026 252.828Z" fill="black"/>
<path d="M891.039 252.827H860.781C859.312 245.622 855.733 239.017 850.498 233.853C845.264 228.689 838.611 225.198 831.387 223.826C824.163 222.454 816.694 223.262 809.93 226.148C803.167 229.034 797.415 233.866 793.407 240.031V240.278C782.321 234.564 772.226 227.106 763.507 218.19C753.093 207.651 747.429 198.014 744.837 191.931C751.619 190.28 757.777 186.701 762.57 181.627C768.949 174.754 772.478 165.709 772.441 156.331V134.304C772.412 108.041 781.139 82.5172 797.244 61.7712C820.295 32.2175 854.39 15.6699 891.026 15.6699C914.446 15.6822 937.336 22.6367 956.804 35.6544C976.272 48.6721 991.445 67.1688 1000.4 88.807C1009.36 110.445 1011.71 134.253 1007.14 157.223C1002.57 180.193 991.295 201.293 974.739 217.856C963.768 228.897 950.73 237.669 936.368 243.669C922.006 249.669 906.603 252.781 891.039 252.827Z" fill="white"/>
<path d="M1024.17 134.132C1024.2 116.646 1020.77 99.3262 1014.07 83.1758C1007.36 67.0255 997.523 52.3646 985.117 40.0415C972.802 27.6325 958.149 17.7899 942.004 11.0838C925.86 4.37777 908.545 0.941433 891.063 0.97386C850.379 0.97386 812.484 19.1133 786.607 51.5544C767.903 75.0655 757.724 104.224 757.732 134.268V156.356C757.732 167.597 748.86 178.691 733.892 178.703C732.673 178.709 731.488 179.105 730.511 179.833C729.534 180.562 728.816 181.584 728.462 182.75C725.674 191.993 736.965 212.366 752.957 228.543C763.137 238.84 774.965 247.364 787.952 253.766C787.031 259.083 787.284 264.537 788.692 269.746C790.101 274.955 792.631 279.793 796.106 283.922C799.581 288.051 803.916 291.369 808.809 293.646C813.701 295.923 819.032 297.103 824.429 297.103C832.975 297.152 841.273 294.226 847.899 288.827C854.525 283.428 859.066 275.893 860.744 267.512H891.804C895.937 288.44 917.68 302.779 940.94 294.919C945.943 293.219 950.5 290.416 954.272 286.716C958.044 283.016 960.936 278.515 962.732 273.546C966.006 264.816 965.945 255.185 962.559 246.498C970.731 241.266 978.311 235.164 985.166 228.296C997.567 215.96 1007.4 201.286 1014.09 185.125C1020.78 168.964 1024.21 151.636 1024.16 134.144L1024.17 134.132ZM891.026 252.828H860.781C859.317 245.619 855.74 239.009 850.506 233.841C845.272 228.672 838.617 225.179 831.391 223.807C824.164 222.434 816.692 223.244 809.927 226.134C803.163 229.023 797.411 233.861 793.406 240.031V240.278C782.321 234.565 772.226 227.107 763.507 218.19C753.093 207.652 747.429 198.015 744.837 191.931C751.619 190.28 757.777 186.702 762.569 181.628C768.949 174.754 772.478 165.709 772.441 156.331V134.305C772.411 108.041 781.139 82.5178 797.244 61.7717C820.295 32.2181 854.389 15.6705 891.026 15.6705C914.446 15.6828 937.336 22.6372 956.804 35.6549C976.272 48.6727 991.444 67.1694 1000.4 88.8075C1009.36 110.446 1011.71 134.254 1007.14 157.224C1002.57 180.193 991.295 201.293 974.739 217.857C963.768 228.898 950.729 237.669 936.368 243.67C922.006 249.67 906.591 252.782 891.026 252.828Z" fill="black"/>
<path d="M950.195 119.398C954.123 119.398 957.889 117.837 960.666 115.061C963.443 112.284 965.003 108.517 965.003 104.59C965.003 100.663 963.443 96.8963 960.666 94.1193C957.889 91.3423 954.123 89.7822 950.195 89.7822C946.268 89.7822 942.502 91.3423 939.725 94.1193C936.948 96.8963 935.388 100.663 935.388 104.59C935.388 108.517 936.948 112.284 939.725 115.061C942.502 117.837 946.268 119.398 950.195 119.398ZM861.3 119.398C865.227 119.398 868.994 117.837 871.771 115.061C874.547 112.284 876.108 108.517 876.108 104.59C876.108 100.663 874.547 96.8963 871.771 94.1193C868.994 91.3423 865.227 89.7822 861.3 89.7822C857.373 89.7822 853.606 91.3423 850.829 94.1193C848.052 96.8963 846.492 100.663 846.492 104.59C846.492 108.517 848.052 112.284 850.829 115.061C853.606 117.837 857.373 119.398 861.3 119.398ZM865.829 153.097C865.215 151.832 864.255 150.766 863.061 150.023C861.866 149.28 860.485 148.892 859.079 148.902C857.845 148.903 856.63 149.214 855.548 149.807C854.465 150.4 853.549 151.255 852.883 152.295C852.217 153.334 851.823 154.524 851.737 155.755C851.651 156.986 851.876 158.22 852.391 159.341C857.181 169.5 864.761 178.087 874.247 184.101C883.732 190.116 894.732 193.309 905.964 193.309C917.195 193.309 928.195 190.116 937.681 184.101C947.166 178.087 954.746 169.5 959.537 159.341C960.052 158.219 960.276 156.984 960.19 155.752C960.103 154.52 959.708 153.329 959.041 152.289C958.373 151.25 957.456 150.395 956.371 149.803C955.287 149.211 954.071 148.901 952.836 148.902H952.651C951.272 148.908 949.922 149.305 948.76 150.048C947.598 150.79 946.671 151.848 946.086 153.097C942.489 160.696 936.808 167.118 929.704 171.615C922.6 176.111 914.365 178.499 905.957 178.499C897.55 178.499 889.315 176.111 882.211 171.615C875.107 167.118 869.426 160.696 865.829 153.097Z" fill="black"/>
</g>
<defs>
<clipPath id="clip0_826_283">
<rect width="1024" height="296.154" fill="white" transform="translate(0.171387 0.973633)"/>
</clipPath>
</defs>
</svg>
