<svg width="415" height="513" viewBox="0 0 415 513" fill="none" xmlns="http://www.w3.org/2000/svg">
<g clip-path="url(#clip0_795_5194)">
<path d="M207.33 512.574C321.619 512.574 414.643 419.497 414.643 305.066V18.1016C414.612 11.1226 409.158 5.37409 402.197 4.98303C338.695 2.07604 273.156 0.574219 207.33 0.574219C141.509 0.574219 75.9675 2.07604 12.4536 4.98303C5.49586 5.37454 0.0483229 11.1262 0.0297852 18.1016V305.066C0.0297852 419.488 93.0134 512.574 207.33 512.574Z" fill="#B2B2B2"/>
<path d="M207.329 501.813C315.705 501.813 403.883 413.562 403.883 305.066V18.1015L403.854 18.1527C403.857 17.508 403.604 16.8886 403.149 16.4316C402.695 15.9747 402.077 15.7178 401.433 15.7178C338.193 12.8222 272.905 11.3203 207.325 11.3203C141.746 11.3203 76.4662 12.8221 13.2083 15.7178C12.5647 15.7193 11.948 15.9767 11.4939 16.4333C11.0399 16.8899 10.7871 17.5084 10.7871 18.1527V18.1015V305.066C10.7644 413.582 98.9277 501.813 207.329 501.813Z" fill="#00205B"/>
<path d="M375.803 306.39C375.803 399.829 300.122 475.596 206.747 475.596C113.372 475.596 37.7092 399.826 37.7092 306.39C37.7092 212.955 113.385 137.176 206.747 137.176C300.109 137.176 375.803 212.946 375.803 306.39Z" fill="#DA291C"/>
<path d="M333.316 422.207C333.583 421.917 333.844 421.639 334.123 421.343C334.805 420.558 335.526 419.784 336.209 418.999C336.368 418.834 336.527 418.652 336.675 418.481C337.465 417.571 338.277 416.644 339.056 415.728C339.061 415.705 339.061 415.682 339.056 415.66C345.399 408.115 351.076 400.035 356.027 391.51C360.933 383.016 365.117 374.124 368.53 364.926C368.53 364.869 368.576 364.778 368.598 364.693C369.013 363.618 369.383 362.52 369.775 361.433C369.854 361.16 369.957 360.864 370.036 360.625C370.349 359.681 370.678 358.725 370.968 357.781C371.105 357.36 371.235 356.928 371.383 356.507C371.622 355.699 371.872 354.88 372.116 354.072C372.275 353.503 372.446 352.934 372.611 352.365C372.798 351.683 372.997 350.983 373.179 350.3C373.361 349.618 373.549 348.895 373.747 348.19C373.884 347.621 374.032 347.052 374.168 346.483C374.378 345.647 374.577 344.816 374.765 343.98C374.873 343.553 374.969 343.121 375.055 342.694C375.265 341.704 375.47 340.737 375.674 339.747C375.731 339.469 375.788 339.213 375.839 338.94C376.066 337.802 376.277 336.664 376.487 335.526C376.487 335.447 376.487 335.384 376.515 335.31C378.191 325.648 379.037 315.86 379.045 306.052C379.045 296.302 378.207 286.571 376.538 276.966C376.538 276.812 376.487 276.693 376.459 276.556C376.277 275.458 376.066 274.383 375.862 273.291C375.799 272.955 375.748 272.636 375.674 272.301C375.47 271.379 375.288 270.446 375.077 269.53C374.969 269.041 374.873 268.563 374.765 268.074C374.577 267.295 374.378 266.51 374.197 265.73C374.043 265.116 373.907 264.496 373.748 263.876C373.588 263.256 373.407 262.584 373.179 261.936C372.997 261.191 372.793 260.434 372.582 259.7C372.452 259.182 372.298 258.676 372.139 258.158C371.883 257.294 371.616 256.418 371.378 255.57C371.258 255.166 371.122 254.796 371.014 254.432C370.696 253.442 370.366 252.435 370.031 251.434C369.951 251.229 369.871 251.019 369.792 250.803C369.4 249.665 369.008 248.527 368.57 247.389V247.338C365.157 238.083 360.956 229.138 356.015 220.601C350.427 210.961 343.905 201.895 336.544 193.533C336.441 193.396 336.311 193.26 336.203 193.14C335.475 192.304 334.748 191.491 333.992 190.683C333.759 190.427 333.52 190.171 333.304 189.926C332.634 189.204 331.986 188.527 331.326 187.833C330.968 187.48 330.656 187.139 330.315 186.792C329.746 186.223 329.178 185.62 328.564 185.045C328.127 184.607 327.689 184.163 327.24 183.725C326.791 183.287 326.245 182.758 325.745 182.292L324.086 180.75C323.694 180.375 323.279 180.011 322.864 179.612C322.216 179.043 321.534 178.429 320.886 177.837L320.011 177.058C319.226 176.375 318.419 175.698 317.612 175.021L317.141 174.629C309.642 168.43 301.632 162.879 293.196 158.035C284.699 153.145 275.796 149 266.586 145.645C266.484 145.599 266.365 145.559 266.245 145.514C265.194 145.127 264.131 144.763 263.068 144.41C262.75 144.291 262.46 144.183 262.153 144.08C261.238 143.767 260.318 143.483 259.391 143.187C258.942 143.045 258.476 142.886 258.01 142.755C257.231 142.516 256.447 142.283 255.64 142.049C255.043 141.867 254.447 141.685 253.861 141.526L251.838 140.957L249.667 140.388L248.007 139.996C247.166 139.785 246.302 139.575 245.444 139.37C245.012 139.296 244.614 139.211 244.199 139.114C243.182 138.903 242.193 138.687 241.204 138.477C240.937 138.431 240.636 138.38 240.42 138.329C239.249 138.09 238.101 137.885 236.93 137.675C236.87 137.682 236.809 137.682 236.748 137.675C217.323 134.332 197.472 134.322 178.044 137.646L177.703 137.72C176.566 137.908 175.475 138.113 174.361 138.323C174.054 138.38 173.741 138.454 173.423 138.505C172.479 138.71 171.525 138.898 170.581 139.108L169.155 139.415C168.342 139.597 167.54 139.785 166.733 139.984C166.131 140.121 165.534 140.274 164.938 140.428C164.341 140.582 163.579 140.769 162.931 140.951C162.198 141.133 161.471 141.344 160.743 141.52L159.123 142.009C158.288 142.254 157.418 142.487 156.571 142.749L155.372 143.142L152.451 144.075C152.218 144.171 151.957 144.262 151.741 144.331C150.604 144.723 149.467 145.116 148.33 145.531C148.296 145.531 148.268 145.565 148.217 145.565C138.952 148.956 129.995 153.133 121.442 158.052C112.929 162.926 104.855 168.53 97.3104 174.8C97.2308 174.857 97.1456 174.936 97.0774 174.982C96.1907 175.716 95.3269 176.461 94.4857 177.201L93.8094 177.804C93.0762 178.441 92.3487 179.089 91.6496 179.744C91.2859 180.051 90.9392 180.369 90.5982 180.699C89.973 181.268 89.3763 181.837 88.7794 182.406C88.3305 182.827 87.8872 183.242 87.4268 183.686C86.9665 184.13 86.4379 184.67 85.9548 185.142C85.4718 185.614 84.8977 186.206 84.3691 186.735C83.977 187.133 83.5848 187.549 83.1927 187.958C82.5789 188.595 81.9765 189.215 81.374 189.864C81.0955 190.183 80.8056 190.49 80.5215 190.808C79.8338 191.542 79.1574 192.31 78.464 193.084C78.2992 193.289 78.123 193.476 77.9582 193.681C77.2004 194.569 76.4312 195.464 75.6507 196.366C75.6109 196.418 75.5598 196.452 75.52 196.503C62.0501 212.588 51.6469 231.012 44.8294 250.86C44.7726 251.048 44.693 251.241 44.6248 251.429C44.2781 252.447 43.9655 253.466 43.6302 254.478C43.5052 254.842 43.3972 255.184 43.2949 255.536C43.005 256.412 42.7265 257.323 42.4878 258.21C42.3457 258.705 42.2036 259.194 42.0445 259.672C41.8342 260.429 41.641 261.214 41.4364 261.993C41.2602 262.607 41.1011 263.216 40.9419 263.848C40.7828 264.479 40.6123 265.15 40.4702 265.776C40.2713 266.533 40.0894 267.301 39.9018 268.052C39.7882 268.569 39.6802 269.093 39.5608 269.605C39.3733 270.498 39.1744 271.391 38.9925 272.273C38.9186 272.643 38.8334 273.029 38.7652 273.371C38.5549 274.435 38.3673 275.487 38.1968 276.522C38.1968 276.71 38.1286 276.869 38.1002 277.091C34.7697 296.322 34.7697 315.983 38.1002 335.214C38.1002 335.351 38.1457 335.47 38.1684 335.584C38.3503 336.722 38.5662 337.797 38.7708 338.906C38.8504 339.208 38.9016 339.521 38.9527 339.828C39.1573 340.772 39.3619 341.717 39.5552 342.672C39.6632 343.162 39.7541 343.611 39.8678 344.077C40.0496 344.891 40.2542 345.693 40.4361 346.478C40.5782 347.098 40.7203 347.679 40.8737 348.282C41.0272 348.885 41.2375 349.63 41.4421 350.301C41.6467 350.972 41.8172 351.723 42.0104 352.451C42.1696 353.02 42.323 353.544 42.4992 354.073C42.7379 354.92 42.9709 355.779 43.2551 356.599C43.3631 356.997 43.4938 357.406 43.6245 357.799C43.9371 358.766 44.2497 359.733 44.5851 360.695C44.6703 360.956 44.7499 361.207 44.8408 361.451C45.233 362.589 45.6251 363.67 46.0173 364.791C46.0463 364.841 46.0711 364.895 46.0911 364.95C52.8932 383.406 62.8299 400.546 75.4629 415.614C75.5136 415.682 75.5686 415.747 75.6277 415.808C76.3779 416.712 77.1339 417.583 77.9011 418.465C78.0716 418.669 78.2705 418.88 78.4694 419.096C79.1287 419.847 79.7994 420.586 80.47 421.309C80.7712 421.656 81.0838 421.986 81.368 422.305L83.1583 424.171C83.5618 424.586 83.9483 425.018 84.3802 425.433C84.886 425.957 85.3976 426.469 85.9034 426.975C86.4092 427.481 86.9208 427.988 87.4436 428.488L88.7167 429.711C89.3419 430.28 89.9614 430.883 90.5866 431.458C90.9048 431.771 91.2629 432.084 91.5982 432.368C92.3143 433.051 93.0645 433.705 93.8148 434.371C94.0308 434.553 94.241 434.746 94.4684 434.939C95.355 435.696 96.2189 436.453 97.1112 437.181C97.1752 437.246 97.2436 437.307 97.3158 437.363C112.464 449.904 129.645 459.757 148.115 466.495C148.205 466.541 148.308 466.569 148.41 466.626C149.479 467.007 150.547 467.371 151.615 467.764L152.502 468.077L155.293 468.981C155.747 469.118 156.179 469.26 156.645 469.385C157.43 469.647 158.237 469.875 159.044 470.108C159.612 470.29 160.215 470.455 160.817 470.608C161.419 470.762 162.141 470.978 162.823 471.177C163.505 471.376 164.273 471.581 164.983 471.746L166.643 472.161C167.512 472.372 168.348 472.577 169.223 472.73C169.638 472.833 170.041 472.918 170.479 472.998C171.451 473.231 172.457 473.441 173.457 473.635C173.73 473.697 173.974 473.726 174.253 473.794C175.389 474.01 176.572 474.238 177.725 474.443C177.784 474.448 177.843 474.448 177.901 474.443C198.664 478.039 219.908 477.802 240.585 473.743C240.767 473.715 240.96 473.663 241.153 473.641C242.216 473.43 243.296 473.191 244.33 472.975C244.699 472.878 245.052 472.821 245.393 472.719C246.308 472.514 247.229 472.304 248.138 472.088L249.621 471.729C250.4 471.536 251.184 471.314 251.963 471.109C252.588 470.95 253.191 470.768 253.81 470.608C254.43 470.449 255.117 470.239 255.771 470.04C256.424 469.84 257.254 469.619 257.976 469.385C258.482 469.226 258.999 469.067 259.528 468.89C260.38 468.623 261.233 468.356 262.102 468.06C262.472 467.94 262.824 467.792 263.171 467.684C264.205 467.343 265.205 466.985 266.194 466.621L266.734 466.427C285.086 459.693 302.158 449.882 317.221 437.414C317.351 437.311 317.448 437.209 317.584 437.118C318.437 436.418 319.25 435.701 320.091 434.99C320.346 434.757 320.625 434.535 320.892 434.308C321.597 433.682 322.273 433.056 322.972 432.436C323.336 432.089 323.728 431.748 324.109 431.395C324.711 430.826 325.285 430.32 325.859 429.768C326.331 429.33 326.797 428.875 327.263 428.42C327.729 427.965 328.201 427.493 328.673 427.015C329.241 426.48 329.809 425.928 330.344 425.365C330.707 424.978 331.071 424.597 331.48 424.227C332.049 423.527 332.696 422.879 333.316 422.207ZM257.208 465.164C251.86 466.161 246.462 463.695 243.71 458.997C242.572 457.038 241.983 454.807 242.005 452.54V451.101C242.025 451.001 242.007 450.898 241.954 450.811C241.797 450.552 241.464 450.462 241.198 450.606C241.132 450.65 241.078 450.708 241.039 450.777L240.516 451.488C237.674 454.981 230.564 458.684 218.834 460.897C218.55 460.948 218.266 460.983 218.004 461.039C217.966 461.044 217.928 461.044 217.891 461.039C216.644 461.248 215.369 461.447 214.066 461.637C213.81 461.682 213.548 461.716 213.281 461.745C208.113 462.495 202.902 462.919 197.68 463.013C146.29 463.702 110.667 442.903 88.8815 423.892C57.46 392.74 39.7926 350.303 39.8165 306.036C39.8409 293.731 41.2285 281.467 43.954 269.468C45.2383 265.863 48.0601 263.019 51.6519 261.708C55.2438 260.397 59.2324 260.756 62.5336 262.687L63.7839 263.438C63.8715 263.493 63.9706 263.528 64.0738 263.54C64.3877 263.54 64.6421 263.285 64.6421 262.971C64.6358 262.895 64.6186 262.82 64.591 262.749L64.2102 261.93C62.5506 257.715 62.9144 249.75 66.8473 238.532C66.9553 238.264 67.0349 238.008 67.1372 237.724C67.1372 237.724 67.1372 237.644 67.1883 237.616C67.6317 236.45 68.075 235.249 68.558 234.043C68.666 233.787 68.7683 233.548 68.8592 233.292C70.8044 228.47 73.0441 223.771 75.5658 219.224C100.669 174.601 136.583 154.28 163.991 145.002C219.415 130.073 278.616 144.605 320.856 183.504C324.386 187.618 324.929 193.518 322.208 198.209C321.069 200.17 319.419 201.785 317.434 202.88L316.178 203.608C316.086 203.645 316.008 203.711 315.956 203.796C315.811 204.061 315.899 204.393 316.155 204.552C316.225 204.583 316.297 204.606 316.371 204.621L317.264 204.7C321.702 205.4 328.505 209.678 336.297 218.689C336.479 218.888 336.65 219.122 336.837 219.326C336.871 219.326 336.894 219.4 336.917 219.423C337.701 220.373 338.508 221.38 339.338 222.41C339.497 222.614 339.656 222.825 339.838 223.03C343.058 227.119 346.023 231.403 348.716 235.858C375.008 279.787 374.724 320.917 369.092 349.168C354.178 404.503 311.937 448.303 257.208 465.164Z" fill="white"/>
<path d="M55.1231 63.4632L54.2077 39.4621L49.1557 41.6867L48.1096 36.316L55.6686 33.4718L59.8175 33.312L60.9545 63.2072L55.1231 63.4632Z" fill="white"/>
<path d="M74.4863 59.6519C74.531 60.6095 74.1917 61.5453 73.5439 62.2513C72.8961 62.9574 71.9935 63.3753 71.0365 63.4122C69.0339 63.4829 67.3532 61.9153 67.2826 59.9107C67.2119 57.9063 68.7781 56.2239 70.7807 56.1532C71.7364 56.1226 72.6648 56.4746 73.3603 57.1313C74.0558 57.788 74.4611 58.6953 74.4863 59.6519Z" fill="white"/>
<path d="M94.9467 37.0674L95.1763 44.787L104.842 44.5249L104.975 49.2696L95.3087 49.5142L95.6618 62.104L89.8974 62.2858L89.0676 32.3456L105.063 31.9077L105.204 36.7937L94.9467 37.0674Z" fill="white"/>
<path d="M122.144 61.8703C115.136 62.0182 111.749 58.7983 111.641 53.5703L111.334 38.6315L117.018 38.5007L117.308 52.1542C117.381 55.704 119.092 57.1661 122.332 57.1035C125.827 57.0296 127.174 55.0499 127.094 51.7162L126.816 38.2851L132.42 38.1543L132.749 52.348C132.875 57.468 129.732 61.6885 122.144 61.8703Z" fill="white"/>
<path d="M144.548 61.5345C143.02 61.5536 141.494 61.3971 140.002 61.0681L140.132 56.005C141.702 56.5646 143.361 56.8289 145.026 56.7843C146.93 56.7843 148.521 55.8457 148.498 54.1049C148.436 50.6063 139.212 52.6884 139.103 45.1732C139.029 40.6221 142.4 37.5787 148.725 37.4819C150.136 37.4898 151.544 37.5867 152.942 37.7721L152.846 42.5678C151.447 42.2123 150.009 42.0365 148.566 42.0444C146.139 42.0785 145.156 43.0286 145.156 44.4508C145.196 47.7389 154.619 46.22 154.733 53.3136C154.818 58.1434 150.965 61.4493 144.548 61.5345Z" fill="white"/>
<path d="M165.249 61.2732C163.732 61.2619 162.22 61.0961 160.736 60.7783L160.895 55.7152C162.455 56.2848 164.107 56.5569 165.766 56.5173C167.67 56.5173 169.262 55.5901 169.233 53.8663C169.233 50.3677 159.975 52.4043 159.907 44.8667C159.856 40.3156 163.237 37.3005 169.569 37.2266C170.972 37.2519 172.373 37.362 173.763 37.5565L173.661 42.3351C172.264 41.9735 170.829 41.7825 169.387 41.7662C166.937 41.8117 165.948 42.7504 165.948 44.167C165.994 47.4494 175.423 45.9703 175.485 53.0589C175.537 57.9229 171.677 61.2106 165.249 61.2732Z" fill="white"/>
<path d="M190.425 60.6759C188.76 60.6759 185.73 60.6133 182.19 60.6361L182.076 37.5566C184.423 37.5566 188.197 37.3973 191.266 37.3745C197.467 37.3745 199.996 39.4793 200.002 43.1089C200.046 45.3857 198.629 47.4352 196.484 48.1946V48.2402C199.058 48.9285 200.343 50.8798 200.366 53.3601C200.371 56.836 197.996 60.6645 190.425 60.6759ZM190.169 41.3966C189.464 41.3966 188.538 41.4421 187.788 41.4421L187.816 46.9546H189.453C192.147 46.9546 193.96 45.9648 193.943 43.968C193.932 42.4377 193.045 41.3682 190.158 41.3967L190.169 41.3966ZM189.771 50.4987C189.277 50.4987 188.407 50.4987 187.816 50.5555L187.845 56.4491C188.656 56.5367 189.472 56.5785 190.289 56.5743C193.085 56.5743 194.352 55.2715 194.335 53.3658C194.324 51.3576 192.63 50.527 189.76 50.527L189.771 50.4987Z" fill="white"/>
<path d="M221.56 60.5899L220.15 56.5395H211.267L209.784 60.5786H204.038L212.597 37.5044H219.417L227.874 60.5901L221.56 60.5899ZM216.814 46.9364C216.422 45.8669 215.984 44.5357 215.677 43.5231C215.393 44.5357 215.052 45.736 214.66 46.8055L212.597 52.4033H218.797L216.814 46.9364Z" fill="white"/>
<path d="M233.159 60.6361L233.327 37.5796L239.047 37.6131L238.888 55.6354L246.391 55.6866L246.338 60.75L233.159 60.6361Z" fill="white"/>
<path d="M251.838 60.795L252.12 37.7446L257.805 37.8241L257.602 55.8234L265.079 55.9205L265 60.9601L251.838 60.795Z" fill="white"/>
<path d="M282.566 61.6655C272.108 61.4835 268.886 54.4407 269.012 47.0057C269.171 37.5055 274.275 30.9405 284.277 31.1223C286.416 31.1668 288.542 31.4803 290.603 32.0553L289.892 37.272C287.942 36.6517 285.914 36.3108 283.868 36.2594C278.298 36.1741 275.479 40.3326 275.343 46.1409C275.223 52.6433 277.872 56.3808 283.896 56.4488C285.89 56.4497 287.864 56.0633 289.711 55.311L290.279 60.431C287.797 61.2792 285.189 61.6968 282.566 61.6655Z" fill="white"/>
<path d="M296.708 61.5579L297.282 38.4951L302.958 38.6319L302.543 56.6259L310.029 56.8131L309.896 61.8704L296.708 61.5579Z" fill="white"/>
<path d="M325.089 62.6785C318.098 62.4737 314.858 59.1116 315.035 53.8665L315.467 38.9507L321.15 39.1043L320.735 52.7578C320.65 56.3076 322.27 57.8777 325.504 57.9574C329.016 58.0541 330.443 56.1483 330.528 52.8374L330.949 39.3887L336.553 39.548L336.138 53.7073C336.007 58.8443 332.67 62.9177 325.089 62.6785Z" fill="white"/>
<path d="M352.145 63.2816C350.474 63.2077 347.456 63.0199 343.904 62.8891L344.768 39.8325C347.109 39.9349 350.86 39.9349 353.93 40.0373C360.136 40.2706 362.563 42.4892 362.455 46.113C362.394 48.3848 360.895 50.3657 358.727 51.0396V51.0965C361.067 51.7273 362.617 53.9481 362.404 56.3644C362.245 59.8403 359.715 63.5604 352.145 63.2816ZM351.9 53.1044C351.412 53.1044 350.519 53.0589 349.951 53.1044L349.712 58.998C350.522 59.1161 351.338 59.1882 352.156 59.2142C354.952 59.3166 356.288 58.0764 356.333 56.1877C356.39 54.1227 354.771 53.2182 351.9 53.1044ZM352.685 44.0023C351.963 44.0023 351.042 44.0023 350.286 43.9625L350.082 49.4579C350.735 49.5205 351.412 49.5432 351.718 49.566C354.43 49.6627 356.265 48.7354 356.333 46.75C356.39 45.197 355.555 44.1161 352.685 44.0023Z" fill="white"/>
<path d="M51.321 111.24L50.7525 98.255L38.1124 98.7758L38.6809 111.77L32.9007 111.999L31.679 82.0883L37.4133 81.849L37.9138 93.7971L50.5822 93.3027L50.0878 81.36L55.8451 81.127L57.0669 111.02L51.321 111.24Z" fill="white"/>
<path d="M64.7398 110.728L63.9551 87.669L78.1241 87.1914L78.283 91.6608L69.821 91.9609L69.9798 96.5689L78.0332 96.304L78.1868 100.63L70.1334 100.921L70.3038 105.97L78.7553 105.67L78.9142 110.216L64.7398 110.728Z" fill="white"/>
<path d="M86.331 110.023L85.6318 86.9698L91.3626 86.8047L92.0335 109.837L86.331 110.023Z" fill="white"/>
<path d="M108.02 109.546C104.917 109.631 102.422 109.586 100.308 109.546L99.7395 86.5406C101.82 86.4496 105.889 86.2505 108.725 86.1936C116.21 85.9945 121.257 89.0664 121.45 97.1335C121.66 105.536 115.784 109.364 108.02 109.546ZM108.265 90.8749C107.364 90.8849 106.464 90.9476 105.571 91.0627L105.889 104.682C106.747 104.762 107.608 104.787 108.469 104.756C112.584 104.648 115.505 102.224 115.392 97.5764C115.295 93.048 112.897 90.7498 108.287 90.8749L108.265 90.8749Z" fill="white"/>
<path d="M127.847 108.972L127.432 85.9115L141.6 85.667L141.688 90.1514L133.223 90.2838L133.302 94.9094L141.371 94.7417L141.459 99.0936L133.382 99.2613L133.479 104.302L141.944 104.134L142.033 108.724L127.847 108.972Z" fill="white"/>
<path d="M163.933 108.406L156.897 97.2335C156.079 95.8825 155.341 94.4844 154.687 93.0465H154.624C154.709 94.1843 154.777 95.3221 154.783 97.1083L154.931 108.486L149.435 108.56L149.156 85.5035L156.835 85.4182L163.655 96.3237C164.567 97.7285 165.385 99.1917 166.105 100.704H166.156C166.031 99.3216 165.974 97.4102 165.945 95.0152L165.786 85.3438L171.333 85.2812L171.578 108.344L163.933 108.406Z" fill="white"/>
<path d="M195.36 108.204L195.315 98.8821L185.517 98.9351L185.561 108.222L179.885 108.275L179.788 85.1889H185.464L185.517 94.0093L195.315 93.9564L195.262 85.1377H200.974L201.071 108.186L195.36 108.204Z" fill="white"/>
<path d="M209.351 108.186L209.422 85.1143H223.59V89.6039H215.115V94.2031H223.175V98.555H215.098V103.622H223.555V108.168L209.351 108.186Z" fill="white"/>
<path d="M230.917 108.248L231.067 85.1885L236.796 85.2167L236.646 108.274L230.917 108.248Z" fill="white"/>
<path d="M268.937 108.663L267.533 97.5582C267.289 95.6183 267.084 93.8207 266.965 92.4951H266.914C266.573 93.9571 266.158 95.5443 265.709 97.0462L261.833 108.566L255.888 108.492L252.711 97.7517C252.165 95.9864 251.712 94.1939 251.352 92.3814H251.307C251.193 94.0881 251.011 95.7948 250.738 97.6493L249.215 108.407L243.532 108.333L247.414 85.3096L254.597 85.4063L258.201 97.1539C258.633 98.5902 258.987 100.049 259.264 101.523H259.315C259.586 100.082 259.966 98.663 260.451 97.279L264.515 85.5428L271.813 85.6225L275.018 108.73L268.937 108.663Z" fill="white"/>
<path d="M296.037 109.166L296.602 85.1375L291.394 87.0495L290.661 81.6047L298.412 79.2725L302.561 79.3696L301.907 109.289L296.037 109.166Z" fill="white"/>
<path d="M317.965 110.225C311.668 110.066 308.07 106.812 308.201 102.068C308.309 98.6258 310.9 96.2536 313.833 94.5071C310.804 92.698 309.059 90.3827 309.167 87.3789C309.298 82.1908 313.714 79.0278 319.744 79.1927C325.507 79.352 329.048 82.606 328.946 86.81C328.838 90.1892 326.49 92.2884 323.643 94.0747C326.803 95.9861 329.247 98.3641 329.128 101.908C328.968 107.626 323.813 110.413 317.965 110.225ZM318.329 96.902C316.055 98.2559 314.236 99.5757 314.163 101.698C314.089 103.973 315.788 105.486 318.624 105.555C321.176 105.629 323.171 104.36 323.239 102.141C323.313 99.7976 320.994 98.3582 318.306 96.902H318.329ZM319.17 83.7437C316.533 83.6697 314.975 85.0066 314.918 86.9636C314.862 88.9206 316.481 90.2006 319.147 91.6854C321.75 90.1664 323.057 88.841 323.125 87.1342C323.194 85.4276 321.983 83.829 319.17 83.7437Z" fill="white"/>
<path d="M351.527 103.631L351.271 110.776L345.701 110.571L345.934 103.449L333.817 103.028L333.163 98.4769L345.127 80.625L352.311 80.8696L351.714 98.4258L356.17 98.5964L355.994 103.773L351.527 103.631ZM346.639 86.126H346.582L338.682 98.1747C340.649 98.1747 344.786 98.3055 346.218 98.3567L346.639 86.126Z" fill="white"/>
<path d="M370.197 112.009C363.991 111.747 360.006 107.361 360.37 98.8618C360.859 86.6251 367.895 81.0726 376.523 81.4142C377.677 81.4476 378.828 81.5597 379.967 81.7499L379.757 86.8073C378.609 86.4954 377.428 86.3216 376.239 86.2896C371.652 86.1075 368.384 88.457 366.934 93.2811C366.798 93.668 366.673 94.1913 366.491 94.7659L366.519 94.8114C368.031 93.2299 370.219 92.3425 373.089 92.4733C378.773 92.7065 382.183 96.5692 381.944 101.672C381.66 108.277 376.886 112.281 370.197 112.009ZM371.447 97.1095C370.158 97.0045 368.883 97.4449 367.933 98.3237C366.982 99.2025 366.443 100.44 366.446 101.735C366.332 104.755 367.872 107.076 370.794 107.196C374.045 107.332 375.852 105.193 375.954 102.224C376.057 99.2543 374.573 97.2347 371.447 97.1095Z" fill="white"/>
<path d="M208.618 376.039C164.924 376.039 160.104 345.171 160.104 312.147C160.116 271.603 169.34 240.645 213.733 240.645C223.162 240.645 225.31 241.816 233.932 244.189L231.204 267.382C222.582 264.845 221.394 263.462 212.352 263.462C190.124 263.462 188.203 284.989 188.203 307.881C188.203 332.696 190.442 352.88 214.125 352.88C222.178 352.88 225.117 350.525 231.982 347.379L234.926 370.185C225.099 373.701 221.003 376.039 208.618 376.039Z" fill="white"/>
<path d="M300.981 374.265H301.685C322.111 374.185 326.46 359.918 326.516 341.195V241.639H300.98V294.687H271.324V241.621H245.788V374.263H271.324V316.692H300.98L300.981 374.265Z" fill="white"/>
<path d="M118.366 273.331C118.366 267.608 119.736 263.233 126.016 263.233H155.081V241.615H117.888C97.2745 241.615 92.881 255.917 92.8528 274.695V374.252H118.366V318.467H149.397V297.419H118.366V273.331Z" fill="white"/>
</g>
<defs>
<clipPath id="clip0_795_5194">
<rect width="414.614" height="512" fill="white" transform="translate(0.0297852 0.574219)"/>
</clipPath>
</defs>
</svg>
