<svg width="1024" height="227" viewBox="0 0 1024 227" fill="none" xmlns="http://www.w3.org/2000/svg">
<g clip-path="url(#clip0_806_516)">
<path fill-rule="evenodd" clip-rule="evenodd" d="M105.249 87.7957C114.979 80.4274 125.651 72.3193 136.339 63.9425C143.109 58.6418 145.825 50.3107 135.66 43.5707C127.298 38.0116 89.9298 10.8492 76.4398 2.20386C68.3823 -2.9651 47.7875 6.55694 53.8129 27.2936C57.9177 41.3866 77.7219 63.8564 105.249 87.7957Z" fill="#FFBF3F"/>
<path fill-rule="evenodd" clip-rule="evenodd" d="M38.1033 139.187C28.3633 146.55 17.7011 154.663 7.00844 163.025C0.222917 168.346 -2.46798 176.677 7.68243 183.417C16.0643 188.966 53.4227 216.133 66.9126 224.789C74.9701 229.942 95.575 220.42 89.5294 199.679C85.4297 185.596 65.6204 163.126 38.1033 139.187Z" fill="#FFBF3F"/>
<path fill-rule="evenodd" clip-rule="evenodd" d="M120.107 129.233L59.5444 66.4559C41.9852 47.8527 35.9953 34.834 36.801 24.7647C37.247 19.2106 33.6794 22.1042 13.3076 36.4405C-14.8886 56.2903 8.20958 81.9881 23.2097 97.571L83.7676 160.338C101.342 178.947 107.322 191.94 106.521 202.019C106.075 207.579 109.638 204.695 130.02 190.349C158.216 170.494 135.097 144.806 120.107 129.233Z" fill="#FFBF3F"/>
<path fill-rule="evenodd" clip-rule="evenodd" d="M283.279 85.4085L276.833 87.618C268.517 74.0368 251.556 56.5738 234.417 56.5738C222.711 56.5738 213.214 62.8475 213.214 75.0605C213.214 88.971 227.809 92.7059 238.659 96.1012L248.673 99.3242C269.536 106.11 289.892 115.774 289.892 140.889C289.892 164.124 270.554 180.244 248.328 180.244C241.031 180.244 233.911 178.718 226.953 176.509C223.73 175.495 221.698 174.644 218.302 174.644C215.414 174.644 213.894 174.984 203.201 180.071L192.179 140.889L198.792 138.679C208.801 154.794 225.26 173.63 245.784 173.63C257.997 173.63 270.554 164.975 270.554 151.911C270.554 138 256.978 133.759 246.129 130.373C223.563 123.076 195.23 114.588 195.23 85.7531C195.23 64.2056 212.363 49.9555 233.232 49.9555C240.189 49.9555 245.444 51.1414 251.89 53.3508C254.272 54.1971 256.472 55.0434 259.021 55.0434C263.262 55.0434 269.024 51.6481 272.08 48.7646L283.279 85.4085ZM320.44 136.987C320.44 149.539 323.151 172.612 339.95 172.612C356.405 172.612 358.781 149.027 358.781 136.987C358.781 124.601 357.418 100.003 340.285 100.003C323.323 100.003 320.44 124.429 320.44 136.982M296.014 137.488C296.014 108.142 320.947 93.3849 341.815 93.3849C369.636 93.3849 383.207 115.1 383.207 133.931C383.207 159.887 365.734 179.225 339.438 179.225C315.859 179.225 296.014 161.58 296.014 137.488ZM447.338 165.482C438.348 172.779 428.507 179.225 416.461 179.225C400.179 179.225 393.221 168.198 393.221 154.115V123.583C393.221 114.588 391.017 108.481 381.175 107.296V102.035L417.652 91.6873V153.776C417.652 160.394 422.4 164.803 429.525 164.803C436.144 164.803 442.59 159.887 447.338 155.813V123.583C447.338 114.588 445.134 108.481 435.292 107.296V102.035L471.769 91.6873V155.985C471.769 164.975 473.973 171.087 483.982 171.933V177.193H447.343V165.487L447.338 165.482ZM478.392 102.714V94.738C500.107 92.7059 503.497 80.4879 508.585 65.0519H515.031V94.738H538.616V102.714H514.697V154.794C514.697 161.078 516.901 167.007 525.556 167.007C530.132 167.007 535.053 163.789 538.616 160.901L542.518 164.635C536.072 172.946 524.533 179.225 514.19 179.225C496.033 179.225 490.271 165.315 490.271 155.646V102.714H478.392ZM578.315 106.444C587.472 99.3191 595.277 93.3849 607.495 93.3849C620.387 93.3849 631.414 103.728 631.414 116.797V160.901C631.586 170.914 637.181 171.933 642.268 171.933V177.188H595.788V171.933C601.895 171.933 606.476 171.254 606.988 158.022V119.341C606.988 116.965 604.778 107.802 594.598 107.802C588.831 107.802 583.403 111.704 578.315 114.253V160.901C578.483 170.914 584.082 171.933 589.17 171.933V177.188H542.69V171.933C548.796 171.933 553.378 171.254 553.889 158.022V81.8511C553.717 72.856 551.68 66.7496 541.844 65.5587V60.3036L578.315 49.9555V106.444ZM737.109 85.4085L730.663 87.618C722.352 74.0368 705.386 56.5738 688.247 56.5738C676.546 56.5738 667.049 62.8475 667.049 75.0605C667.049 88.971 681.639 92.7059 692.494 96.1012L702.507 99.3242C723.37 106.11 743.727 115.774 743.727 140.889C743.727 164.124 724.389 180.244 702.163 180.244C694.865 180.244 687.745 178.718 680.787 176.509C677.564 175.495 675.532 174.644 672.137 174.644C669.248 174.644 667.728 174.984 657.035 180.071L646.013 140.889L652.627 138.679C662.635 154.794 679.095 173.63 699.619 173.63C711.832 173.63 724.389 164.975 724.389 151.911C724.389 138 710.818 133.759 699.963 130.373C677.397 123.076 649.064 114.588 649.064 85.7531C649.064 64.2056 666.198 49.9555 687.066 49.9555C694.019 49.9555 699.279 51.1414 705.725 53.3508C708.102 54.1971 710.306 55.0434 712.855 55.0434C717.092 55.0434 722.859 51.6481 725.914 48.7646L737.109 85.4085ZM742.039 102.714V94.738C763.754 92.7059 767.144 80.4879 772.237 65.0519H778.683V94.738H802.263V102.714H778.344V154.794C778.344 161.078 780.548 167.007 789.204 167.007C793.78 167.007 798.7 163.789 802.263 160.901L806.165 164.635C799.719 172.946 788.18 179.225 777.837 179.225C759.68 179.225 753.918 165.315 753.918 155.646V102.714H742.039Z" fill="#002D72"/>
<path fill-rule="evenodd" clip-rule="evenodd" d="M856.046 132.233C842.469 133.758 827.885 139.358 827.885 155.478C827.885 163.11 831.787 169.044 839.758 169.044C846.037 169.044 852.144 164.296 856.046 159.715V132.233ZM880.471 157.51C880.644 161.752 880.304 167.012 886.243 167.012C887.597 167.012 889.122 166.505 890.485 165.998L891.671 169.044C887.597 174.811 879.965 179.225 872.84 179.225C865.715 179.225 859.608 175.323 856.046 169.044C847.39 175.835 838.572 179.225 827.373 179.225C813.462 179.225 802.44 172.779 802.44 157.85C802.44 134.098 838.066 127.652 856.046 124.768V120.187C856.046 112.044 856.725 98.9794 844.846 98.9794C836.535 98.9794 834.498 105.258 832.126 111.704C830.089 117.471 826.187 123.75 819.569 123.75C814.142 123.75 808.881 119.681 808.881 113.909C808.881 105.598 818.89 93.3848 847.735 93.3848C855.199 93.3848 866.561 94.7378 872.667 99.6584C880.304 105.937 880.471 113.574 880.471 121.378V157.51ZM888.96 102.714V94.7378C910.674 92.7057 914.07 80.4877 919.163 65.0518H925.609V94.7378H949.188V102.714H925.269V154.794C925.269 161.078 927.474 167.007 936.124 167.007C940.705 167.007 945.626 163.789 949.188 160.9L953.09 164.635C946.639 172.946 935.105 179.225 924.762 179.225C906.605 179.225 900.838 165.314 900.838 155.645V102.714H888.965H888.96Z" fill="#002D72"/>
<path fill-rule="evenodd" clip-rule="evenodd" d="M1001.61 128.676C1001.61 112.044 998.385 100.677 984.981 100.677C970.396 100.677 965.982 117.644 965.81 128.671H1001.61L1001.61 128.676ZM966.155 135.968C966.155 151.744 977.182 169.044 994.989 169.044C1004.66 169.044 1013.49 163.45 1019.93 156.664L1024 160.227C1013.48 172.612 1002.12 179.225 985.487 179.225C962.08 179.225 941.724 163.45 941.724 138.684C941.724 127.652 945.626 116.625 952.751 107.975C960.722 98.3056 971.577 93.3799 984.134 93.3799C1007.72 93.3799 1023.83 112.044 1023.32 135.968H966.155Z" fill="#002D72"/>
</g>
<defs>
<clipPath id="clip0_806_516">
<rect width="1024" height="225.345" fill="white" transform="translate(0 0.820312)"/>
</clipPath>
</defs>
</svg>
