<svg width="1024" height="150" viewBox="0 0 1024 150" fill="none" xmlns="http://www.w3.org/2000/svg">
<g clip-path="url(#clip0_806_458)">
<path d="M112.044 2.89746H92.6333C92.0531 2.89746 91.5828 3.36779 91.5828 3.94796V23.3585C91.5828 23.9387 92.0531 24.409 92.6333 24.409H112.044C112.624 24.409 113.094 23.9387 113.094 23.3585V3.94796C113.094 3.36779 112.624 2.89746 112.044 2.89746Z" fill="#EA4224"/>
<path d="M112.044 33.4277H92.6333C92.0531 33.4277 91.5828 33.8981 91.5828 34.4782V53.8888C91.5828 54.469 92.0531 54.9393 92.6333 54.9393H112.044C112.624 54.9393 113.094 54.469 113.094 53.8888V34.4782C113.094 33.8981 112.624 33.4277 112.044 33.4277Z" fill="#EA4224"/>
<path d="M112.044 63.9492H92.6333C92.0531 63.9492 91.5828 64.4195 91.5828 64.9997V84.4103C91.5828 84.9905 92.0531 85.4608 92.6333 85.4608H112.044C112.624 85.4608 113.094 84.9905 113.094 84.4103V64.9997C113.094 64.4195 112.624 63.9492 112.044 63.9492Z" fill="#EA4224"/>
<path d="M81.5131 2.89746H62.1025C61.5223 2.89746 61.052 3.36779 61.052 3.94796V23.3585C61.052 23.9387 61.5223 24.409 62.1025 24.409H81.5131C82.0932 24.409 82.5636 23.9387 82.5636 23.3585V3.94796C82.5636 3.36779 82.0932 2.89746 81.5131 2.89746Z" fill="#EA4224"/>
<path d="M81.5131 33.4277H62.1025C61.5223 33.4277 61.052 33.8981 61.052 34.4782V53.8888C61.052 54.469 61.5223 54.9393 62.1025 54.9393H81.5131C82.0932 54.9393 82.5636 54.469 82.5636 53.8888V34.4782C82.5636 33.8981 82.0932 33.4277 81.5131 33.4277Z" fill="#EA4224"/>
<path d="M81.5131 63.9492H62.1025C61.5223 63.9492 61.052 64.4195 61.052 64.9997V84.4103C61.052 84.9905 61.5223 85.4608 62.1025 85.4608H81.5131C82.0932 85.4608 82.5636 84.9905 82.5636 84.4103V64.9997C82.5636 64.4195 82.0932 63.9492 81.5131 63.9492Z" fill="#EA4224"/>
<path d="M50.9918 2.89746H31.5813C31.0011 2.89746 30.5308 3.36779 30.5308 3.94796V23.3585C30.5308 23.9387 31.0011 24.409 31.5813 24.409H50.9918C51.572 24.409 52.0423 23.9387 52.0423 23.3585V3.94796C52.0423 3.36779 51.572 2.89746 50.9918 2.89746Z" fill="#EA4224"/>
<path d="M50.9918 63.9492H31.5813C31.0011 63.9492 30.5308 64.4195 30.5308 64.9997V84.4103C30.5308 84.9905 31.0011 85.4608 31.5813 85.4608H50.9918C51.572 85.4608 52.0423 84.9905 52.0423 84.4103V64.9997C52.0423 64.4195 51.572 63.9492 50.9918 63.9492Z" fill="#EA4224"/>
<path d="M20.4611 2.89746H1.0505C0.470324 2.89746 0 3.36779 0 3.94796V23.3585C0 23.9387 0.470324 24.409 1.0505 24.409H20.4611C21.0412 24.409 21.5116 23.9387 21.5116 23.3585V3.94796C21.5116 3.36779 21.0412 2.89746 20.4611 2.89746Z" fill="#EA4224"/>
<path d="M20.4611 33.4277H1.0505C0.470324 33.4277 0 33.8981 0 34.4782V53.8888C0 54.469 0.470324 54.9393 1.0505 54.9393H20.4611C21.0412 54.9393 21.5116 54.469 21.5116 53.8888V34.4782C21.5116 33.8981 21.0412 33.4277 20.4611 33.4277Z" fill="#EA4224"/>
<path d="M20.4611 63.9492H1.0505C0.470324 63.9492 0 64.4195 0 64.9997V84.4103C0 84.9905 0.470324 85.4608 1.0505 85.4608H20.4611C21.0412 85.4608 21.5116 84.9905 21.5116 84.4103V64.9997C21.5116 64.4195 21.0412 63.9492 20.4611 63.9492Z" fill="#EA4224"/>
<path d="M112.044 94.4795H92.6333C92.0531 94.4795 91.5828 94.9498 91.5828 95.53V114.941C91.5828 115.521 92.0531 115.991 92.6333 115.991H112.044C112.624 115.991 113.094 115.521 113.094 114.941V95.53C113.094 94.9498 112.624 94.4795 112.044 94.4795Z" fill="#EA4224"/>
<path d="M20.4611 94.4795H1.0505C0.470324 94.4795 0 94.9498 0 95.53V114.941C0 115.521 0.470324 115.991 1.0505 115.991H20.4611C21.0412 115.991 21.5116 115.521 21.5116 114.941V95.53C21.5116 94.9498 21.0412 94.4795 20.4611 94.4795Z" fill="#EA4224"/>
<path d="M50.9918 94.4795H31.5813C31.0011 94.4795 30.5308 94.9498 30.5308 95.53V114.941C30.5308 115.521 31.0011 115.991 31.5813 115.991H50.9918C51.572 115.991 52.0423 115.521 52.0423 114.941V95.53C52.0423 94.9498 51.572 94.4795 50.9918 94.4795Z" fill="#EA4224"/>
<path d="M81.5131 94.4795H62.1025C61.5223 94.4795 61.052 94.9498 61.052 95.53V114.941C61.052 115.521 61.5223 115.991 62.1025 115.991H81.5131C82.0932 115.991 82.5636 115.521 82.5636 114.941V95.53C82.5636 94.9498 82.0932 94.4795 81.5131 94.4795Z" fill="#EA4224"/>
<path d="M153.685 2.89746H174.506C174.785 2.89746 175.052 3.00814 175.249 3.20515C175.446 3.40215 175.556 3.66935 175.556 3.94796V96.8462H225.176C225.315 96.8461 225.452 96.8736 225.58 96.927C225.708 96.9804 225.824 97.0586 225.922 97.1572C226.02 97.2557 226.097 97.3727 226.149 97.5012C226.201 97.6297 226.228 97.7674 226.226 97.9061V114.941C226.228 115.08 226.201 115.218 226.149 115.346C226.097 115.475 226.02 115.592 225.922 115.69C225.824 115.789 225.708 115.867 225.58 115.92C225.452 115.974 225.315 116.001 225.176 116.001H153.685C153.406 115.999 153.139 115.886 152.942 115.687C152.745 115.489 152.635 115.221 152.635 114.941V3.94796C152.635 3.66935 152.745 3.40215 152.942 3.20515C153.139 3.00814 153.407 2.89746 153.685 2.89746Z" fill="#113B5E"/>
<path d="M231.167 74.6241C231.167 50.5856 247.454 31.2129 271.18 31.2129C296.96 31.2129 310.853 51.3617 311.194 79.7157C311.196 79.8564 311.171 79.9963 311.119 80.1271C311.066 80.2579 310.989 80.377 310.89 80.4774C310.791 80.5779 310.674 80.6577 310.544 80.7121C310.414 80.7665 310.275 80.7946 310.134 80.7946H252.404C253.984 93.287 260.921 101.757 273.12 101.757C281.202 101.757 286.048 98.2272 288.518 92.4447C288.593 92.2542 288.723 92.0904 288.892 91.9741C289.06 91.8578 289.26 91.7943 289.464 91.7917H308.629C308.789 91.7901 308.947 91.825 309.091 91.8937C309.235 91.9624 309.362 92.0631 309.461 92.1881C309.561 92.3131 309.63 92.4592 309.665 92.6151C309.7 92.7711 309.698 92.9329 309.661 93.0882C306.178 106.906 293.515 118.357 273.272 118.357C246.347 118.357 231.167 98.8234 231.167 74.6241ZM252.688 65.9267H288.745C288.121 55.6488 281.316 47.8127 271.511 47.8127C260.107 47.8127 254.58 55.3271 252.688 65.9267Z" fill="#113B5E"/>
<path d="M343.04 44.5005C348.576 35.7937 356.488 31.251 367.561 31.251C384.322 31.251 395.556 43.9043 395.556 61.6113V114.969C395.556 115.249 395.445 115.517 395.248 115.715C395.052 115.914 394.785 116.027 394.505 116.029H375.104C374.823 116.029 374.553 115.917 374.354 115.719C374.156 115.52 374.044 115.25 374.044 114.969V64.8102C374.044 56.1128 368.981 49.9423 359.971 49.9423C350.479 49.895 343.542 57.4661 343.542 68.539V114.912C343.542 115.193 343.43 115.463 343.231 115.662C343.032 115.861 342.763 115.972 342.482 115.972H323.081C322.942 115.972 322.804 115.945 322.676 115.891C322.548 115.838 322.432 115.76 322.334 115.661C322.237 115.563 322.16 115.446 322.107 115.317C322.055 115.189 322.029 115.051 322.03 114.912V34.4687C322.029 34.3304 322.055 34.1932 322.107 34.0652C322.16 33.9372 322.237 33.8209 322.335 33.7231C322.433 33.6253 322.549 33.548 322.677 33.4956C322.805 33.4433 322.942 33.417 323.081 33.4182H342.008C342.147 33.417 342.284 33.4433 342.412 33.4956C342.54 33.548 342.656 33.6253 342.754 33.7231C342.852 33.8209 342.929 33.9372 342.982 34.0652C343.034 34.1932 343.06 34.3304 343.059 34.4687L343.04 44.5005Z" fill="#113B5E"/>
<path d="M406.363 74.7856C406.363 49.479 420.758 31.2514 441.001 31.2514C452.358 31.2514 459.986 36.4661 464.415 43.2706V3.94791C464.415 3.6693 464.526 3.40211 464.723 3.2051C464.92 3.00809 465.187 2.89741 465.466 2.89741H484.867C485.454 2.89741 485.927 3.37061 485.927 2.52832V113.512C485.927 115.518 485.454 115.992 484.867 115.992H466.261C466.121 115.992 465.984 115.964 465.855 115.911C465.726 115.858 465.61 115.78 465.511 115.681C465.413 115.583 465.335 115.466 465.281 115.337C465.228 115.209 465.201 115.071 465.201 114.932V105.392C460.469 113.143 452.074 118.358 440.689 118.358C420.285 118.358 406.363 101.001 406.363 74.7856ZM464.888 75.2588C464.888 59.7569 459.825 48.6083 446.065 48.6083C434.206 48.6083 428.187 59.7569 428.187 74.7856C428.187 90.4485 434.358 100.338 445.43 100.338C458.245 100.329 464.888 90.1267 464.888 75.2588Z" fill="#113B5E"/>
<path d="M500.974 33.4274H520.376C520.517 33.4224 520.657 33.4458 520.789 33.4963C520.921 33.5468 521.041 33.6234 521.143 33.7214C521.245 33.8195 521.325 33.937 521.381 34.067C521.436 34.197 521.464 34.3367 521.464 34.4779V114.922C521.464 115.061 521.437 115.199 521.383 115.327C521.33 115.456 521.252 115.573 521.153 115.671C521.055 115.769 520.938 115.848 520.81 115.901C520.681 115.954 520.543 115.982 520.404 115.982H501.003C500.723 115.979 500.456 115.866 500.259 115.668C500.063 115.469 499.952 115.201 499.952 114.922V34.4779C499.952 34.2042 500.059 33.9412 500.25 33.745C500.441 33.5488 500.701 33.4348 500.974 33.4274Z" fill="#113B5E"/>
<path d="M556.386 44.5005C561.922 35.7937 569.834 31.251 580.907 31.251C597.668 31.251 608.902 43.9043 608.902 61.6113V114.969C608.902 115.25 608.79 115.52 608.591 115.719C608.392 115.917 608.123 116.029 607.842 116.029H588.44C588.161 116.027 587.894 115.914 587.697 115.715C587.5 115.517 587.39 115.249 587.39 114.969V64.8102C587.39 56.1128 582.327 49.9423 573.308 49.9423C563.844 49.9423 556.859 57.5135 556.859 68.6052V114.979C556.859 115.258 556.749 115.526 556.552 115.725C556.355 115.923 556.088 116.036 555.809 116.039H536.408C536.126 116.039 535.857 115.927 535.658 115.728C535.459 115.529 535.348 115.26 535.348 114.979V34.535C535.348 34.3962 535.375 34.2588 535.429 34.1308C535.482 34.0027 535.56 33.8865 535.659 33.7888C535.757 33.6911 535.874 33.6139 536.003 33.5617C536.131 33.5095 536.269 33.4832 536.408 33.4845H555.336C555.614 33.4845 555.881 33.5951 556.078 33.7922C556.275 33.9892 556.386 34.2564 556.386 34.535V44.5005Z" fill="#113B5E"/>
<path d="M709.238 59.8418C709.238 26.311 730.116 0.682617 763.486 0.682617C790.808 0.682617 807.162 16.6767 810.001 37.592C810.02 37.7419 810.007 37.8942 809.962 38.0385C809.917 38.1828 809.842 38.3158 809.742 38.4288C809.641 38.5417 809.518 38.6319 809.38 38.6932C809.242 38.7546 809.092 38.7857 808.941 38.7845H788.224C787.984 38.781 787.751 38.6957 787.566 38.5426C787.38 38.3896 787.252 38.1778 787.202 37.9422C784.884 27.0303 776.442 19.9607 763.486 19.9607C742.608 19.9607 732.643 37.3554 732.643 59.8229C732.643 82.9149 744.662 99.5242 763.647 99.5242C776.745 99.5242 786.095 91.8584 787.874 80.4922C787.913 80.243 788.038 80.0156 788.229 79.8508C788.42 79.686 788.663 79.5947 788.915 79.5931H809.31C809.457 79.5926 809.602 79.6226 809.736 79.6811C809.871 79.7396 809.992 79.8254 810.092 79.933C810.191 80.0406 810.267 80.1678 810.315 80.3064C810.363 80.445 810.382 80.592 810.37 80.7382C809.505 90.4864 805.094 99.5785 797.972 106.291C790.221 113.569 779.3 118.31 763.647 118.31C731.848 118.357 709.238 93.8458 709.238 59.8418Z" fill="#113B5E"/>
<path d="M823.364 2.89746H842.765C843.045 2.89745 843.313 3.00782 843.511 3.20456C843.71 3.4013 843.823 3.66848 843.825 3.94796V114.932C843.825 115.213 843.713 115.483 843.515 115.681C843.316 115.88 843.046 115.992 842.765 115.992H823.364C823.084 115.989 822.817 115.876 822.621 115.678C822.424 115.479 822.313 115.211 822.313 114.932V3.94796C822.313 3.66935 822.424 3.40215 822.621 3.20515C822.818 3.00814 823.085 2.89746 823.364 2.89746Z" fill="#113B5E"/>
<path d="M910.773 115.991C910.494 115.989 910.227 115.876 910.03 115.678C909.833 115.479 909.723 115.211 909.723 114.931V106.499C904.186 113.938 897.42 118.206 885.997 118.206C868.015 118.206 857.841 106.66 857.841 88.9433V34.4783C857.841 34.1997 857.952 33.9325 858.149 33.7355C858.346 33.5385 858.613 33.4278 858.892 33.4278H878.142C878.28 33.4265 878.418 33.4528 878.546 33.505C878.675 33.5572 878.792 33.6344 878.89 33.7321C878.989 33.8298 879.067 33.946 879.121 34.0741C879.174 34.2021 879.201 34.3395 879.201 34.4783V85.2997C879.201 94.7637 883.47 100.016 892.65 100.016C902.767 100.016 908.937 92.445 908.937 81.6656V34.4783C908.937 34.3395 908.965 34.2021 909.018 34.0741C909.071 33.946 909.15 33.8298 909.248 33.7321C909.347 33.6344 909.464 33.5572 909.592 33.505C909.721 33.4528 909.858 33.4265 909.997 33.4278H929.36C929.639 33.4278 929.906 33.5385 930.103 33.7355C930.3 33.9325 930.411 34.1997 930.411 34.4783V114.922C930.411 115.201 930.301 115.47 930.104 115.668C929.907 115.867 929.64 115.979 929.36 115.982L910.773 115.991Z" fill="#113B5E"/>
<path d="M965.163 105.865V114.931C965.163 115.212 965.051 115.482 964.852 115.681C964.653 115.88 964.384 115.991 964.103 115.991H945.496C944.91 115.991 944.437 115.518 944.437 113.512V2.5752C944.437 3.41749 944.91 2.94429 945.496 2.94429H964.898C965.176 2.94429 965.443 3.05497 965.64 3.25197C965.837 3.44898 965.948 3.71618 965.948 3.99479V43.2702C970.377 36.4656 977.816 31.251 989.04 31.251C1009.44 31.251 1024 49.5164 1024 74.7852C1024 101.038 1010.08 118.319 989.674 118.319C978.289 118.357 969.904 113.455 965.163 105.865ZM1002.18 74.7852C1002.18 59.7564 996.167 48.6079 984.138 48.6079C970.538 48.6079 965.475 60.2296 965.475 75.2584C965.475 90.1263 972.914 100.328 984.933 100.328C996.006 100.328 1002.18 90.448 1002.18 74.7852Z" fill="#113B5E"/>
<path d="M520.385 2.89746H500.975C500.394 2.89746 499.924 3.36779 499.924 3.94796V23.3585C499.924 23.9387 500.394 24.409 500.975 24.409H520.385C520.965 24.409 521.436 23.9387 521.436 23.3585V3.94796C521.436 3.36779 520.965 2.89746 520.385 2.89746Z" fill="#EA4224"/>
<path d="M697.371 33.4275H678.765C678.485 33.4274 678.217 33.5378 678.018 33.7346C677.82 33.9313 677.707 34.1985 677.705 34.478V43.7053C672.973 36.1341 664.578 31.2129 653.193 31.2129C632.789 31.2129 619.709 49.7906 619.709 74.7471C619.709 99.183 633.423 115.953 653.827 115.953C665.051 115.953 672.499 110.814 677.231 103.423V116.767C677.231 127.84 671.383 133.689 659.203 133.689C649.682 133.689 645.073 129.241 643.161 124.509C643.086 124.317 642.956 124.151 642.788 124.032C642.62 123.912 642.421 123.844 642.215 123.837H622.804C622.65 123.836 622.498 123.869 622.358 123.933C622.218 123.997 622.094 124.091 621.994 124.208C621.894 124.325 621.821 124.463 621.779 124.611C621.738 124.759 621.729 124.915 621.754 125.067C624.489 140.143 637.956 149.986 659.515 149.986C671.534 149.986 681.973 147.146 688.777 140.815C694.787 135.279 698.431 127.565 698.431 116.133V34.478C698.428 34.1985 698.315 33.9313 698.117 33.7346C697.918 33.5378 697.65 33.4274 697.371 33.4275ZM658.692 97.9527C647.25 97.9527 641.533 87.8641 641.533 73.5736C641.533 58.6773 647.401 48.6076 657.934 48.6076C669.367 48.6076 676.436 59.018 676.436 73.1193C676.436 87.4099 671.629 97.9527 658.692 97.9527Z" fill="#113B5E"/>
</g>
<defs>
<clipPath id="clip0_806_458">
<rect width="1024" height="149.303" fill="white" transform="translate(0 0.682617)"/>
</clipPath>
</defs>
</svg>
