<svg width="1024" height="138" viewBox="0 0 1024 138" fill="none" xmlns="http://www.w3.org/2000/svg">
<g clip-path="url(#clip0_806_232)">
<path d="M201.083 51.278C201.34 61.5641 192.288 62.9527 189.665 63.0813L183.905 63.5442L185.191 69.1501L189.845 69.2787C197.945 69.2787 205.274 72.3646 206.174 84.888C206.534 89.0538 205.094 102.889 186.168 102.889C186.168 102.889 179.353 103.48 177.219 100.857C176.224 99.6972 175.677 98.2196 175.676 96.6913V40.7861C175.639 40.391 175.694 39.9927 175.837 39.6224C175.98 39.2521 176.206 38.9199 176.499 38.6517C177.347 37.7003 182.336 37.7003 185.191 37.7003C194.422 37.7003 200.851 39.0117 201.083 51.278ZM219.443 49.1436C219.443 35.4373 211.446 28.8799 189.176 28.8799H155.335C155.652 29.7137 155.893 30.5743 156.055 31.4514C156.246 32.3578 156.367 33.2778 156.415 34.203V106.669C156.356 107.533 156.236 108.393 156.055 109.24C155.89 110.117 155.649 110.977 155.335 111.812H199.771C208.951 111.812 224.432 104.406 224.432 87.1509C224.432 71.1817 215.149 66.7586 210.983 65.8072L207.537 64.9843L210.494 63.8014C215.277 61.7698 219.443 58.2726 219.443 49.1436Z" fill="#231F20"/>
<path d="M246.47 70.333C246.47 50.6865 248.039 36.7487 268.766 36.7487C289.492 36.7487 291.035 50.6865 291.035 70.333C291.035 89.9795 289.492 104.072 268.766 104.072C248.039 104.072 246.47 90.0053 246.47 70.333ZM268.766 27.4141C235.336 27.4141 227.312 47.1892 227.312 70.4102C227.312 93.6311 235.336 113.355 268.766 113.355C302.196 113.355 310.219 93.6826 310.219 70.333C310.219 46.9835 302.196 27.4141 268.766 27.4141Z" fill="#231F20"/>
<path d="M360.261 34.1258C361.017 33.3263 361.619 32.3933 362.035 31.3743C362.586 30.6302 362.884 29.7287 362.884 28.8027H382.17L379.316 31.3743C378.365 32.3257 377.645 33.0458 376.744 34.1258L349.898 65.7043L383.328 106.669L385.719 109.24C386.532 110.141 387.39 110.999 388.291 111.812H364.093C363.998 110.924 363.764 110.056 363.398 109.24C362.819 108.337 362.174 107.478 361.47 106.669L332.411 68.7901V106.669C332.439 107.53 332.516 108.388 332.643 109.24C332.808 110.117 333.049 110.977 333.363 111.812H312.147C312.461 110.977 312.702 110.117 312.867 109.24C313.048 108.393 313.168 107.533 313.228 106.669V34.1258C313.179 33.2007 313.059 32.2807 312.867 31.3743C312.705 30.4972 312.464 29.6365 312.147 28.8027H333.363C333.046 29.6365 332.805 30.4972 332.643 31.3743C332.509 32.2858 332.432 33.2047 332.411 34.1258V66.7586L360.261 34.1258Z" fill="#231F20"/>
<path d="M422.081 111.812C422.408 110.982 422.649 110.12 422.801 109.24C422.981 108.393 423.101 107.533 423.161 106.669V34.1258C423.112 33.2007 422.992 32.2807 422.801 31.3743C422.652 30.4941 422.411 29.6321 422.081 28.8027H471.3L473.871 41.789C473.215 41.1337 472.385 40.6788 471.48 40.4775C470.897 40.3432 470.303 40.2657 469.705 40.2461H442.344V59.8926H467.134L469.268 70.1788C468.885 70.0523 468.488 69.9746 468.085 69.9473C467.46 69.8111 466.823 69.7336 466.182 69.7159H442.344V106.669C442.372 107.53 442.45 108.388 442.576 109.24C442.741 110.117 442.982 110.977 443.296 111.812H422.081Z" fill="#231F20"/>
<path d="M476.545 111.812C476.859 110.977 477.1 110.117 477.265 109.24C477.425 108.39 477.537 107.532 477.6 106.669V34.1258C477.547 33.2025 477.435 32.2834 477.265 31.3743C477.103 30.4972 476.862 29.6365 476.545 28.8027H497.632C497.315 29.6345 497.082 30.496 496.938 31.3743C496.782 32.2836 496.696 33.2034 496.681 34.1258V106.669C496.705 107.531 496.79 108.39 496.938 109.24C497.086 110.118 497.318 110.979 497.632 111.812H476.545Z" fill="#231F20"/>
<path d="M521.085 106.669C521.156 107.532 521.276 108.391 521.445 109.24C521.61 110.117 521.851 110.977 522.165 111.812H504.524C504.851 110.982 505.092 110.12 505.244 109.24C505.425 108.393 505.545 107.533 505.604 106.669V34.1258C505.556 33.2007 505.435 32.2807 505.244 31.3743C505.095 30.4941 504.854 29.6321 504.524 28.8027H522.165L566.729 73.9589V34.1258C566.668 33.2019 566.548 32.2828 566.369 31.3743C566.207 30.4972 565.966 29.6365 565.649 28.8027H583.29C582.973 29.6365 582.732 30.4972 582.57 31.3743C582.388 32.2815 582.276 33.2014 582.236 34.1258V114.846L521.085 53.1295V106.669Z" fill="#231F20"/>
<path d="M640.224 71.9017H622.943L631.661 51.7666L640.224 71.9017ZM593.165 106.669C593.165 106.669 592.702 107.389 592.11 108.572C591.479 109.708 590.756 110.792 589.95 111.812H607.951C607.687 111.163 607.522 110.478 607.462 109.78C607.43 108.722 607.596 107.667 607.951 106.669L619.137 81.1849H643.695L655.113 106.669C655.468 107.667 655.634 108.722 655.602 109.78C655.542 110.478 655.377 111.163 655.113 111.812H678.257C677.463 110.788 676.75 109.705 676.122 108.572L675.145 106.669L639.401 28.8799H626.543C626.471 29.3569 626.429 29.8378 626.415 30.3199C626.295 31.0089 626.096 31.6819 625.823 32.3257L593.165 106.669Z" fill="#231F20"/>
<path d="M697.415 106.669C697.474 107.533 697.594 108.393 697.775 109.24C697.94 110.117 698.181 110.977 698.495 111.812H680.854C681.181 110.982 681.422 110.12 681.574 109.24C681.755 108.393 681.875 107.533 681.934 106.669V34.1258C681.886 33.2007 681.765 32.2807 681.574 31.3743C681.425 30.4941 681.184 29.6321 680.854 28.8027H698.495L743.059 73.9589V34.1258C743.011 33.2007 742.891 32.2807 742.699 31.3743C742.537 30.4972 742.296 29.6365 741.979 28.8027H759.62C759.29 29.6321 759.049 30.4941 758.9 31.3743C758.709 32.2807 758.588 33.2007 758.54 34.1258V114.846L697.415 53.1295V106.669Z" fill="#231F20"/>
<path d="M833.012 110.603C832.163 110.86 824.68 113.354 807.759 113.354C774.329 113.354 766.306 93.682 766.306 70.3324C766.306 46.9829 774.252 27.4135 807.759 27.4135C816.574 27.2731 825.325 28.9357 833.475 32.2994V44.4371C827.547 40.5728 820.646 38.4685 813.571 38.3682C794.619 38.3682 787.367 50.763 787.11 70.4096C786.853 90.0561 794.027 103.068 811.437 103.068C823.111 103.068 837.152 96.4078 837.152 96.4078L833.012 110.603Z" fill="#231F20"/>
<path d="M843.967 111.812C844.281 110.977 844.522 110.117 844.687 109.24C844.847 108.39 844.958 107.532 845.021 106.669V34.1258C844.968 33.2025 844.857 32.2834 844.687 31.3743C844.525 30.4972 844.284 29.6365 843.967 28.8027H865.156C864.839 29.6345 864.607 30.496 864.462 31.3743C864.307 32.2836 864.221 33.2034 864.205 34.1258V106.669C864.229 107.531 864.315 108.39 864.462 109.24C864.61 110.118 864.842 110.979 865.156 111.812H843.967Z" fill="#231F20"/>
<path d="M922.244 71.9017H904.963L913.655 51.7666L922.244 71.9017ZM875.185 106.669C874.787 107.281 874.427 107.917 874.105 108.572C873.478 109.705 872.764 110.788 871.971 111.812H889.971C889.707 111.163 889.543 110.478 889.483 109.78C889.451 108.722 889.616 107.667 889.971 106.669L901.363 81.1849H925.921L937.365 106.669C937.732 107.663 937.898 108.721 937.853 109.78C937.794 110.478 937.629 111.163 937.365 111.812H960.509C959.715 110.788 959.002 109.705 958.374 108.572C957.783 107.389 957.397 106.669 957.397 106.669L921.653 28.8799H908.795C908.723 29.3569 908.68 29.8378 908.667 30.3199C908.559 31.0117 908.36 31.6861 908.075 32.3257L875.185 106.669Z" fill="#231F20"/>
<path d="M962.875 111.812C963.188 110.979 963.421 110.118 963.569 109.24C963.749 108.393 963.87 107.533 963.929 106.669V34.1258C963.88 33.2007 963.76 32.2807 963.569 31.3743C963.424 30.496 963.191 29.6345 962.875 28.8027H984.064C983.747 29.6365 983.506 30.4972 983.344 31.3743C983.21 32.2858 983.133 33.2047 983.112 34.1258V101.449H1014.69C1016.34 101.419 1017.98 101.212 1019.58 100.831C1021.11 100.443 1022.59 99.8908 1024 99.1857L1019.35 111.812H962.875Z" fill="#231F20"/>
<path d="M77.7774 27.6709C78.3217 27.7033 78.8529 27.8506 79.3361 28.1033C79.8192 28.356 80.2433 28.7082 80.5804 29.1367L130.443 75.6815C130.443 74.4472 131.188 61.5638 129.62 59.6094L87.7807 19.9306C85.8264 18.1048 84.952 17.5905 84.0006 17.5391H48.7962C46.5076 17.5391 44.6561 17.5391 43.5246 18.8506L11.4318 51.1491L4.77152 45.106L33.4699 16.6648C35.8871 14.0932 37.7386 11.5217 41.6731 11.3674H84.7977C86.0667 11.3686 87.2951 11.8144 88.2693 12.6275L130.494 52.7691C130.494 51.0462 130.494 49.2718 130.494 47.4975C130.494 44.2316 130.288 37.8542 128.231 35.5398L97.3725 6.25005C94.6467 3.39564 91.818 0.335511 86.7778 0.335511H41.6216C40.7045 0.276785 39.7854 0.413794 38.9253 0.737444C38.0652 1.06109 37.2838 1.56398 36.6329 2.21273L3.04859 36.2342C1.83997 37.4171 0.0398937 38.9857 0.0398937 40.6572V55.495L48.2819 101.448C48.7509 101.932 49.3156 102.312 49.94 102.564C50.5644 102.817 51.2347 102.936 51.9078 102.914H73.8687C76.0031 102.914 79.2175 99.5454 80.8376 98.0539L103.981 74.2158L111.567 81.4161L86.7778 106.36C85.8196 107.328 84.6718 108.088 83.4063 108.593C82.1408 109.097 80.7848 109.335 79.4232 109.292H52.0364C50.2866 109.422 48.5518 108.889 47.1762 107.8L0.0398937 63.1324C0.0398937 63.801 0.0398937 70.3842 0.0398937 71.8242C-0.0992202 73.5558 0.126425 75.2972 0.702255 76.9361C1.27809 78.575 2.19129 80.0749 3.38289 81.3389L41.0045 116.826C43.0874 118.909 44.6303 120.375 46.5076 120.375C50.8535 120.375 75.103 120.375 81.3004 120.375C85.3892 120.375 88.5265 116.26 92.9752 111.452L117.302 86.7906L124.657 93.4509V94.6338L96.4725 123.075C95.5864 124.27 94.418 125.226 93.0717 125.859C91.7254 126.492 90.2433 126.781 88.7579 126.701H47.1247C42.676 126.701 40.3359 123.975 38.1501 121.892L0.0656097 85.6591C0.0656097 86.9963 0.0656097 88.6421 0.0656097 90.4164C0.0656097 95.0195 0.374194 100.703 1.5571 102.348L34.4213 133.464C36.9929 135.855 38.7158 137.398 41.6474 137.707H91.3294C92.9752 137.707 94.5182 136.01 95.7011 134.93C97.3726 133.438 98.7355 131.972 98.7612 131.947L129.902 99.8026C130.32 94.3179 130.388 88.8123 130.108 83.319L82.7919 38.3943C81.3308 36.4491 79.1572 35.1635 76.7488 34.8198H54.9679C54.45 34.7699 53.9274 34.8313 53.4351 34.9998C52.9428 35.1684 52.4922 35.4402 52.1135 35.797L24.4695 63.6725L17.4749 56.8065L43.1903 30.8596C44.3395 29.7027 45.732 28.8163 47.2666 28.2647C48.8011 27.7132 50.4393 27.5103 52.0621 27.6709H77.7774ZM52.525 46.5717C53.5047 45.4191 54.8811 44.6758 56.3823 44.4888H71.3229C72.4855 44.697 73.5944 45.1367 74.5839 45.7816C75.5734 46.4265 76.4233 47.2636 77.0831 48.2432C83.7948 54.7235 98.2726 68.8155 98.2726 68.8155L78.4718 88.9249C76.8003 90.6222 75.7716 91.9594 74.2802 91.9594H54.8908L30.3069 69.0984C30.3069 69.0984 48.3076 50.7119 52.4992 46.5717" fill="#C41230"/>
</g>
<defs>
<clipPath id="clip0_806_232">
<rect width="1024" height="137.385" fill="white" transform="translate(0 0.322266)"/>
</clipPath>
</defs>
</svg>
