<svg width="653" height="512" viewBox="0 0 653 512" fill="none" xmlns="http://www.w3.org/2000/svg">
<g clip-path="url(#clip0_765_672)">
<path fill-rule="evenodd" clip-rule="evenodd" d="M647.356 13.9339C641.096 3.837 627.567 6.86361 611.21 14.7444C590.016 23.8242 551.861 66.2214 542.574 89.8471C534.296 123.76 514.913 155.06 483.415 188.774C451.718 214.616 395.395 204.32 362.888 183.721C360.871 183.721 227.419 79.7501 227.419 79.7501C179.572 42.0003 146.255 25.6434 106.082 20.7976C104.064 19.5902 102.245 17.5725 101.641 16.1584C95.3813 2.22447 94.174 3.44007 89.7251 0C84.4823 4.04374 80.6453 6.25993 75.3942 7.87247C72.9713 7.87247 72.5661 7.87247 71.152 7.07034C67.927 5.65627 64.4951 2.82814 61.0633 2.62967C57.0196 3.44007 53.7946 11.511 48.345 19.5902C48.345 19.5902 39.0502 27.6611 30.574 34.7232C27.3407 37.5513 26.9355 42.0003 24.7193 44.6217C20.2787 49.4676 15.0276 57.34 14.2172 57.34C12.1994 62.988 11.3973 68.0406 15.0276 70.662C15.0276 76.922 18.2609 78.5345 19.4683 79.9486C20.4771 81.9663 20.6838 82.7767 22.0979 84.1908C24.5208 85.1996 26.5386 85.6049 28.9615 86.2085C41.8783 98.1247 47.1294 97.918 62.0722 95.9003C87.9058 97.7195 85.6896 106.402 85.0859 119.526C83.4734 121.544 83.0682 121.337 81.2489 122.346C69.7379 122.346 57.6233 119.724 46.1205 119.724C20.8823 121.949 -0.924109 126.39 1.09362 156.871C2.71443 168.787 24.3141 185.342 35.6266 162.932C37.2392 152.628 45.9138 157.276 53.3893 159.699C98.6064 179.281 134.752 189.378 158.775 168.985C166.043 159.905 170.484 166.364 177.951 171.813C214.295 215.021 266.384 243.079 346.531 244.088C373.184 250.753 393.576 261.859 403.673 288.098C428.498 351.698 459.996 402.976 506.23 429.827C502.393 470.008 504.014 503.317 544.592 512C555.292 503.317 540.35 490.194 552.663 460.721C551.654 447.598 540.35 436.897 536.513 411.858C489.269 373.099 509.257 357.147 502.194 331.305C501.583 293.555 493.313 264.687 477.362 236.017C475.542 231.37 478.569 227.938 482.811 225.515C509.463 205.528 524.001 185.946 530.459 166.967C540.35 133.253 557.103 106.808 580.927 87.8293C601.121 71.6709 620.298 66.6266 642.105 52.2874C655.625 30.0841 653.607 24.0309 647.356 13.9339Z" fill="black"/>
</g>
<defs>
<clipPath id="clip0_765_672">
<rect width="651.231" height="512" fill="white" transform="translate(0.963867)"/>
</clipPath>
</defs>
</svg>
