<svg width="453" height="513" viewBox="0 0 453 513" fill="none" xmlns="http://www.w3.org/2000/svg">
<g clip-path="url(#clip0_795_4027)">
<path d="M416.077 186.295C416.077 163.643 421.523 143.585 428.711 127.288L442.965 94.916L409.424 85.0207C394.829 80.7072 384.193 69.6748 377.827 52.2385L363.021 11.7529L330.068 39.0464C319.22 48.0229 306.818 53.8914 293.664 53.8914C276.02 53.8914 258.557 45.0936 247.646 34.2953L226.413 13.299L205.195 34.2953C194.274 45.0936 176.814 53.8914 159.166 53.8914C145.999 53.8914 133.604 48.0229 122.767 39.0464L89.7996 11.7529L75.0195 52.2385C68.6307 69.6748 58.0085 80.7072 43.3975 85.0207L9.86199 94.916L24.1287 127.288C31.2995 143.585 36.7525 163.643 36.7525 186.295C36.7525 241.571 9.63159 252.56 9.63159 310.596C9.63159 388.299 67.4787 444.107 131.532 460.579C163.191 468.588 177.935 469.374 201.539 475.979C204.602 479.201 226.413 502.759 226.413 502.759C226.413 502.759 248.22 479.201 251.293 475.979C274.891 469.374 289.644 468.588 321.313 460.579C385.343 444.107 443.2 388.299 443.2 310.596C443.198 252.56 416.077 241.571 416.077 186.295ZM317.504 445.614C283.593 454.181 260.19 456.364 242.961 462.58C240.752 464.652 226.411 480.195 226.411 480.195C226.411 480.195 212.079 464.652 209.868 462.58C192.639 456.364 169.229 454.181 135.328 445.614C63.957 427.558 24.868 367.65 24.868 310.596C24.868 258.789 51.9399 242.785 51.9399 186.165C51.9399 142.053 30.8858 104.795 30.8858 104.795C30.8858 104.795 82.6404 100.285 96.6678 37.3643C96.6678 37.3643 127.712 69.3279 159.166 69.3279C199.732 69.3279 226.412 34.8638 226.412 34.8638C226.412 34.8638 253.101 69.3279 293.664 69.3279C325.118 69.3279 356.159 37.3643 356.159 37.3643C370.189 100.285 421.957 104.795 421.957 104.795C421.957 104.795 400.896 142.053 400.896 186.165C400.896 242.785 427.962 258.789 427.962 310.596C427.96 367.65 388.862 427.558 317.504 445.614Z" fill="#D0D3D4"/>
<path d="M385.66 186.165C385.66 145.787 400.927 114.671 400.927 114.671C400.927 114.671 365.707 107.565 349.299 62.9879C349.299 62.9879 325.922 84.7927 293.663 84.7927C253.252 84.7927 226.411 56.4185 226.411 56.4185C226.411 56.4185 199.578 84.7927 159.165 84.7927C126.906 84.7927 103.529 62.9879 103.529 62.9879C87.1255 107.564 51.9007 114.671 51.9007 114.671C51.9007 114.671 67.1647 145.787 67.1647 186.165C67.1647 246.084 40.082 263.414 40.082 310.596C40.082 376.542 91.4799 418.528 139.123 430.635C176.867 440.216 201.536 441.294 218.106 449.296C218.106 449.296 224.13 454.804 226.41 457.344C228.702 454.804 234.727 449.296 234.727 449.296C251.284 441.293 275.966 440.215 313.701 430.635C361.351 418.528 412.744 376.542 412.744 310.596C412.745 263.414 385.66 246.085 385.66 186.165ZM84.4595 186.165C84.4595 160.554 78.9033 138.441 74.1326 124.128C85.2494 118.023 99.211 107.237 110.34 88.6641C122.302 95.3481 139.241 102.094 159.166 102.094C189.349 102.094 212.927 88.9176 226.412 79.015C239.896 88.9176 263.483 102.094 293.664 102.094C298.477 102.094 303.115 101.691 307.561 100.996L60.4947 286.55C67.6139 258.621 84.4595 235.497 84.4595 186.165ZM118.118 404.239C86.4983 388.001 58.8259 356.797 57.4453 313.966L347.451 96.1817C357.57 110.224 369.174 118.905 378.7 124.127C373.926 138.44 368.372 160.553 368.372 186.164C368.372 196.819 369.149 206.222 370.451 214.749L118.118 404.239ZM309.441 413.865C279.552 421.471 242.987 425.375 231.948 431.682C229.458 433.501 226.411 436.742 226.411 436.742C226.411 436.742 223.365 433.502 220.88 431.682C209.835 425.375 173.269 421.471 143.381 413.865C142.248 413.579 141.131 413.268 140 412.949L375.199 236.316C383.204 264.35 395.448 282.705 395.448 310.597C395.448 366.56 350.865 403.337 309.441 413.865Z" fill="#D0D3D4"/>
<path d="M165.144 314.149L138.056 272.656L107.963 295.26C107.963 295.26 118.505 295.547 118.505 306.595V384.714L139.74 368.78V313.532L163.932 350.6L186.384 333.751V236.368L165.144 252.308V314.149Z" fill="#D0D3D4"/>
<path d="M251.223 223.663L227.281 241.635V205.641L194.931 229.931C194.931 229.931 205.472 230.23 205.472 241.284V319.41L227.28 303.028V267.408L251.222 249.442V285.05L271.987 269.455V172.064L251.222 187.672L251.223 223.663Z" fill="#D0D3D4"/>
<path d="M311.922 214.614V142.094L279.578 166.377C279.578 166.377 290.124 166.666 290.124 177.711V255.846L350.326 210.622C349.03 195.033 350.326 185.781 350.326 185.781L311.922 214.614Z" fill="#D0D3D4"/>
<path d="M356.158 37.3643C356.158 37.3643 325.116 69.328 293.663 69.328C253.1 69.328 226.41 34.8638 226.41 34.8638C226.41 34.8638 199.73 69.328 159.164 69.328C127.71 69.328 96.6661 37.3643 96.6661 37.3643C82.6395 100.285 30.8841 104.796 30.8841 104.796C30.8841 104.796 51.9382 142.053 51.9382 186.165C51.9382 242.785 24.8662 258.789 24.8662 310.596C24.8662 367.651 63.9552 427.557 135.326 445.614C169.228 454.182 192.637 456.364 209.866 462.58C212.078 464.652 226.409 480.195 226.409 480.195C226.409 480.195 240.751 464.652 242.959 462.58C260.188 456.364 283.591 454.182 317.503 445.614C388.86 427.558 427.958 367.651 427.958 310.596C427.958 258.789 400.893 242.785 400.893 186.165C400.893 142.053 421.954 104.796 421.954 104.796C421.954 104.796 370.188 100.285 356.158 37.3643ZM385.66 186.165C385.66 246.084 412.745 263.415 412.745 310.596C412.745 376.543 361.352 418.528 313.702 430.636C275.967 440.216 251.285 441.294 234.728 449.296C234.728 449.296 228.703 454.804 226.411 457.344C224.131 454.804 218.107 449.296 218.107 449.296C201.537 441.294 176.868 440.215 139.124 430.636C91.4808 418.528 40.083 376.543 40.083 310.596C40.083 263.415 67.1656 246.084 67.1656 186.165C67.1656 145.787 51.9017 114.671 51.9017 114.671C51.9017 114.671 87.1256 107.566 103.53 62.9881C103.53 62.9881 126.907 84.793 159.166 84.793C199.58 84.793 226.412 56.4187 226.412 56.4187C226.412 56.4187 253.253 84.793 293.664 84.793C325.923 84.793 349.3 62.9881 349.3 62.9881C365.707 107.565 400.928 114.671 400.928 114.671C400.928 114.671 385.66 145.787 385.66 186.165Z" fill="black"/>
<path d="M384.094 49.9452L366.053 0.574707L325.801 33.8896C315.139 42.7265 304.315 47.2143 293.663 47.2143C279.406 47.2143 263.19 40.2802 252.339 29.5503L226.41 3.89721L200.484 29.5503C189.637 40.2811 173.422 47.2143 159.164 47.2143C148.505 47.2143 137.693 42.7265 127.028 33.8896L86.7706 0.574707L68.7295 49.9452C63.1234 65.2875 53.9654 74.9427 41.5143 78.6193L0.682617 90.6515L18.0023 129.988C26.0048 148.142 30.0639 167.076 30.0639 186.295C30.0639 239.452 2.94211 251.553 2.94211 310.596C2.94211 395.659 68.7303 451.33 129.844 467.055C160.737 474.583 170.066 475.077 197.957 481.949C200.234 484.392 226.41 512.575 226.41 512.575C226.41 512.575 252.586 484.392 254.855 481.949C282.75 475.077 292.084 474.583 322.969 467.055C384.086 451.33 449.881 395.659 449.881 310.596C449.881 251.553 422.753 239.452 422.753 186.295C422.753 167.076 426.806 148.142 434.812 129.988L452.141 90.6515L411.318 78.6193C398.848 74.9427 389.704 65.2875 384.094 49.9452ZM428.711 127.288C421.523 143.585 416.077 163.642 416.077 186.295C416.077 241.571 443.198 252.56 443.198 310.596C443.198 388.299 385.341 444.107 321.311 460.579C289.643 468.588 274.889 469.374 251.291 475.979C248.218 479.201 226.411 502.759 226.411 502.759C226.411 502.759 204.6 479.201 201.537 475.979C177.934 469.374 163.189 468.588 131.531 460.579C67.4778 444.107 9.6298 388.299 9.6298 310.596C9.6298 252.56 36.7507 241.571 36.7507 186.295C36.7507 163.643 31.2977 143.585 24.1269 127.288L9.8602 94.916L43.3957 85.0206C58.0067 80.7071 68.6298 69.6748 75.0177 52.2385L89.7978 11.7529L122.765 39.0464C133.602 48.0229 145.998 53.8913 159.164 53.8913C176.812 53.8913 194.271 45.0936 205.193 34.2952L226.411 13.299L247.644 34.2952C258.556 45.0936 276.018 53.8913 293.663 53.8913C306.816 53.8913 319.219 48.0229 330.066 39.0464L363.02 11.7529L377.825 52.2385C384.191 69.6748 394.828 80.7071 409.422 85.0206L442.963 94.916L428.711 127.288Z" fill="black"/>
<path d="M347.451 96.1826L57.4454 313.967C58.8251 356.798 86.4984 388.001 118.118 404.24L370.451 214.752C369.149 206.224 368.372 196.822 368.372 186.167C368.372 160.556 373.926 138.443 378.7 124.13C369.175 118.906 357.571 110.225 347.451 96.1826ZM186.383 333.752L163.932 350.601L139.74 313.532V368.781L118.505 384.715V306.594C118.505 295.546 107.963 295.26 107.963 295.26L138.056 272.656L165.144 314.149V252.306L186.383 236.366V333.752ZM271.988 269.455L251.223 285.05V249.443L227.281 267.409V303.029L205.473 319.41V241.285C205.473 230.23 194.932 229.931 194.932 229.931L227.282 205.642V241.635L251.224 223.664V187.673L271.989 172.065L271.988 269.455ZM350.326 210.624L290.124 255.848V177.712C290.124 166.668 279.578 166.379 279.578 166.379L311.922 142.095V214.616L350.326 185.783C350.326 185.783 349.03 195.035 350.326 210.624Z" fill="black"/>
<path d="M293.663 102.094C263.483 102.094 239.895 88.9177 226.411 79.0151C212.926 88.9177 189.348 102.094 159.165 102.094C139.24 102.094 122.301 95.3483 110.34 88.6641C99.2103 107.237 85.2486 118.023 74.1318 124.128C78.9025 138.441 84.4587 160.554 84.4587 186.165C84.4587 235.497 67.6131 258.62 60.4949 286.55L307.56 100.995C303.114 101.691 298.476 102.094 293.663 102.094Z" fill="black"/>
<path d="M140.001 412.949C141.131 413.267 142.248 413.579 143.382 413.866C173.27 421.471 209.836 425.375 220.881 431.683C223.365 433.501 226.412 436.742 226.412 436.742C226.412 436.742 229.458 433.502 231.949 431.683C242.988 425.376 279.553 421.471 309.442 413.866C350.866 403.337 395.449 366.561 395.449 310.597C395.449 282.706 383.205 264.35 375.2 236.316L140.001 412.949Z" fill="black"/>
<path d="M424.534 462.866C424.534 453.227 416.717 445.419 407.075 445.419C397.436 445.419 389.635 453.226 389.635 462.866C389.635 472.512 397.437 480.312 407.075 480.312C416.717 480.312 424.534 472.512 424.534 462.866ZM393.37 462.866C393.37 455.299 399.505 449.161 407.075 449.161C414.651 449.161 420.79 455.299 420.79 462.866C420.79 470.446 414.651 476.571 407.075 476.571C399.505 476.571 393.37 470.446 393.37 462.866Z" fill="white"/>
<path d="M414.249 472.836L410.31 464.392C412.615 463.58 414.249 461.398 414.249 458.826C414.249 455.546 411.606 452.909 408.329 452.909H399.908V472.837H403.663V464.731H406.336L410.123 472.837L414.249 472.836ZM408.329 460.995H403.661V456.644H408.329C409.533 456.644 410.511 457.611 410.511 458.826C410.511 460.02 409.533 460.995 408.329 460.995Z" fill="white"/>
</g>
<defs>
<clipPath id="clip0_795_4027">
<rect width="451.458" height="512" fill="white" transform="translate(0.682617 0.574707)"/>
</clipPath>
</defs>
</svg>
