<svg width="733" height="512" viewBox="0 0 733 512" fill="none" xmlns="http://www.w3.org/2000/svg">
<g clip-path="url(#clip0_754_200)">
<path d="M305.063 55.84C328.663 31.28 361.463 16 397.783 16C446.103 16 488.183 42.96 510.663 82.88C530.183 74.16 551.783 69.28 574.423 69.28C661.543 69.28 732.103 140.48 732.103 228.4C732.103 316.32 661.463 387.52 574.423 387.52C563.783 387.52 553.383 386.48 543.383 384.4C523.623 419.6 485.943 443.44 442.743 443.44C424.663 443.44 407.543 439.28 392.343 431.84C372.343 478.96 325.623 512 271.303 512C216.983 512 166.423 476.16 147.863 425.92C139.783 427.6 131.383 428.56 122.743 428.56C55.3031 428.56 0.663086 373.36 0.663086 305.2C0.663086 259.52 25.2231 219.68 61.7031 198.32C54.1831 181.04 50.0231 161.92 50.0231 141.92C50.0231 63.52 113.623 0 192.103 0C238.183 0 279.143 21.92 305.063 55.84Z" fill="#0D9DDA"/>
<path d="M106.663 265.52C106.183 266.72 106.823 266.96 106.983 267.2C108.343 268.16 109.783 268.88 111.143 269.76C118.583 273.68 125.623 274.88 132.983 274.88C148.023 274.88 157.303 266.88 157.303 254.08V253.84C157.303 242 146.743 237.68 136.903 234.56L135.623 234.16C128.183 231.76 121.783 229.68 121.783 224.72V224.48C121.783 220.32 125.543 217.2 131.383 217.2C137.863 217.2 145.543 219.36 150.423 222.08C150.423 222.08 151.863 223.04 152.423 221.6C152.743 220.8 155.223 214.08 155.463 213.36C155.783 212.56 155.223 212 154.743 211.68C149.063 208.24 141.303 205.92 133.223 205.92H131.703C117.943 205.92 108.343 214.24 108.343 226.08V226.32C108.343 238.88 118.903 242.88 128.823 245.76L130.423 246.24C137.623 248.48 143.863 250.4 143.863 255.44V255.68C143.863 260.32 139.783 263.76 133.303 263.76C130.743 263.76 122.663 263.76 113.943 258.16C112.903 257.52 112.263 257.12 111.463 256.64C111.063 256.4 109.943 255.92 109.463 257.28L106.503 265.52H106.663Z" fill="white"/>
<path d="M326.263 265.52C325.783 266.72 326.423 266.96 326.583 267.2C327.943 268.16 329.383 268.88 330.743 269.76C338.183 273.68 345.223 274.88 352.583 274.88C367.623 274.88 376.903 266.88 376.903 254.08V253.84C376.903 242 366.423 237.68 356.503 234.56L355.223 234.16C347.783 231.76 341.383 229.68 341.383 224.72V224.48C341.383 220.32 345.143 217.2 350.983 217.2C357.463 217.2 365.143 219.36 370.023 222.08C370.023 222.08 371.463 223.04 372.023 221.6C372.343 220.8 374.823 214.08 375.063 213.36C375.383 212.56 374.823 212 374.343 211.68C368.663 208.24 360.903 205.92 352.823 205.92H351.303C337.543 205.92 327.943 214.24 327.943 226.08V226.32C327.943 238.88 338.503 242.88 348.423 245.76L350.023 246.24C357.223 248.48 363.463 250.4 363.463 255.44V255.68C363.463 260.32 359.383 263.76 352.903 263.76C350.343 263.76 342.263 263.76 333.543 258.16C332.503 257.52 331.863 257.12 331.063 256.64C330.823 256.48 329.543 256 329.063 257.28L326.103 265.52H326.263Z" fill="white"/>
<path d="M488.743 226.88C487.543 222.72 485.623 219.04 483.063 216C480.503 212.96 477.303 210.48 473.463 208.72C469.623 206.96 465.143 206 460.023 206C454.903 206 450.423 206.88 446.583 208.72C442.743 210.48 439.543 212.96 436.983 216C434.423 219.04 432.503 222.72 431.303 226.88C430.103 231.04 429.463 235.52 429.463 240.32C429.463 245.12 430.103 249.68 431.303 253.76C432.503 257.92 434.423 261.6 436.983 264.64C439.543 267.68 442.823 270.16 446.583 271.92C450.423 273.68 454.903 274.56 460.023 274.56C465.143 274.56 469.623 273.68 473.463 271.92C477.303 270.16 480.503 267.76 483.063 264.64C485.623 261.6 487.543 257.92 488.743 253.76C489.943 249.6 490.583 245.12 490.583 240.32C490.583 235.52 489.943 230.96 488.743 226.88ZM476.183 240.32C476.183 247.6 474.823 253.28 472.183 257.36C469.543 261.36 465.543 263.28 460.023 263.28C454.503 263.28 450.503 261.36 447.863 257.36C445.223 253.28 443.863 247.6 443.863 240.32C443.863 233.04 445.223 227.36 447.783 223.36C450.423 219.36 454.343 217.44 459.943 217.44C465.543 217.44 469.463 219.36 472.103 223.36C474.743 227.36 476.103 233.04 476.103 240.32" fill="white"/>
<path fill-rule="evenodd" clip-rule="evenodd" d="M591.623 261.36C591.223 260.16 590.023 260.64 590.023 260.64C588.183 261.36 586.263 262 584.183 262.32C582.103 262.64 579.783 262.8 577.303 262.8C571.223 262.8 566.423 260.96 562.983 257.44C559.543 253.84 557.543 248.08 557.623 240.32C557.623 233.2 559.383 227.92 562.423 223.84C565.463 219.76 570.103 217.76 576.343 217.76C581.543 217.76 585.463 218.32 589.623 219.68C589.623 219.68 590.583 220.08 591.063 218.8C592.183 215.76 592.983 213.6 594.183 210.24C594.503 209.28 593.703 208.88 593.383 208.8C591.783 208.16 587.943 207.12 585.063 206.72C582.343 206.32 579.223 206.08 575.703 206.08C570.423 206.08 565.783 206.96 561.703 208.8C557.703 210.56 554.343 213.04 551.623 216.08C548.903 219.12 546.903 222.8 545.543 226.96C544.183 231.12 543.463 235.6 543.463 240.48C543.463 250.88 546.263 259.28 551.783 265.44C557.303 271.6 565.623 274.72 576.503 274.72C582.903 274.72 589.463 273.44 594.263 271.52C594.263 271.52 595.143 271.12 594.743 270L591.703 261.52L591.623 261.36Z" fill="white"/>
<path fill-rule="evenodd" clip-rule="evenodd" d="M655.703 224.56C654.663 220.56 652.023 216.48 650.263 214.64C647.543 211.68 644.903 209.68 642.183 208.48C638.743 206.96 634.583 206 630.023 206C624.743 206 619.943 206.88 616.023 208.72C612.103 210.56 608.823 213.04 606.263 216.16C603.703 219.28 601.783 222.96 600.503 227.2C599.303 231.36 598.663 235.92 598.663 240.72C598.663 245.52 599.303 250.16 600.583 254.24C601.863 258.4 603.943 262 606.743 265.04C609.543 268.08 613.143 270.48 617.383 272.08C621.623 273.76 626.823 274.56 632.743 274.56C644.983 274.56 651.463 271.76 654.103 270.32C654.583 270.08 654.983 269.6 654.503 268.32L651.703 260.56C651.303 259.44 650.103 259.84 650.103 259.84C647.063 260.96 642.743 262.96 632.663 262.96C626.103 262.96 621.223 261.04 618.183 258C615.063 254.88 613.543 250.32 613.223 243.92H655.623C655.623 243.92 656.743 243.92 656.823 242.88C656.823 242.4 658.263 234.16 655.543 224.64L655.703 224.56ZM613.543 233.44C614.103 229.44 615.223 226.08 616.983 223.44C619.543 219.44 623.543 217.28 629.143 217.28C634.743 217.28 638.343 219.44 640.983 223.44C642.743 226.08 643.463 229.52 643.783 233.44H613.543Z" fill="white"/>
<path fill-rule="evenodd" clip-rule="evenodd" d="M316.183 224.56C315.143 220.56 312.503 216.48 310.743 214.64C308.023 211.68 305.383 209.68 302.663 208.48C299.223 206.96 295.063 206 290.503 206C285.223 206 280.423 206.88 276.503 208.72C272.583 210.56 269.303 213.04 266.743 216.16C264.183 219.28 262.263 222.96 260.983 227.2C259.783 231.36 259.143 235.92 259.143 240.72C259.143 245.52 259.783 250.16 261.063 254.24C262.343 258.4 264.423 262 267.223 265.04C270.023 268.08 273.623 270.48 277.863 272.08C282.103 273.76 287.303 274.56 293.223 274.56C305.463 274.56 311.943 271.76 314.583 270.32C315.063 270.08 315.463 269.6 314.903 268.32L312.103 260.56C311.703 259.44 310.503 259.84 310.503 259.84C307.463 260.96 303.143 262.96 293.063 262.96C286.503 262.96 281.623 261.04 278.583 258C275.463 254.88 273.943 250.32 273.623 243.92H316.023C316.023 243.92 317.143 243.92 317.223 242.88C317.223 242.4 318.663 234.16 315.943 224.64L316.183 224.56ZM274.023 233.44C274.583 229.44 275.703 226.08 277.463 223.44C280.103 219.44 284.023 217.28 289.623 217.28C295.223 217.28 298.823 219.44 301.543 223.44C303.303 226.08 304.023 229.52 304.343 233.44H274.103H274.023Z" fill="white"/>
<path d="M199.223 231.36C197.463 231.2 195.303 231.2 192.583 231.2C188.983 231.2 185.463 231.68 182.103 232.56C178.823 233.44 175.783 234.8 173.223 236.64C170.663 238.48 168.583 240.8 167.063 243.6C165.543 246.4 164.823 249.68 164.823 253.36C164.823 257.04 165.463 260.4 166.743 263.04C168.023 265.68 169.863 267.92 172.263 269.68C174.583 271.36 177.543 272.64 180.903 273.44C184.263 274.16 188.023 274.56 192.103 274.56C196.423 274.56 200.823 274.16 204.983 273.52C209.143 272.8 214.263 271.76 215.623 271.44C217.063 271.12 218.583 270.72 218.583 270.72C219.623 270.48 219.543 269.36 219.543 269.36V230.56C219.543 222.08 217.223 215.76 212.743 211.84C208.263 207.92 201.783 206 193.303 206C190.103 206 184.983 206.4 181.943 207.04C181.943 207.04 172.663 208.8 168.903 211.84C168.903 211.84 168.103 212.32 168.503 213.52L171.543 221.6C171.943 222.64 172.903 222.32 172.903 222.32C172.903 222.32 173.223 222.16 173.623 222C181.783 217.6 192.103 217.68 192.103 217.68C196.663 217.68 200.183 218.64 202.583 220.4C204.903 222.16 206.103 224.88 206.103 230.48V232.24C202.503 231.68 199.143 231.44 199.143 231.44L199.223 231.36ZM182.343 261.12C180.663 259.76 180.423 259.44 179.863 258.64C179.063 257.36 178.583 255.52 178.583 253.12C178.583 249.36 179.783 246.72 182.343 244.88C182.343 244.88 186.023 241.68 194.663 241.84C200.743 241.84 206.183 242.8 206.183 242.8V262.08C206.183 262.08 200.823 263.2 194.743 263.6C186.103 264.08 182.263 261.12 182.343 261.12Z" fill="white"/>
<path fill-rule="evenodd" clip-rule="evenodd" d="M541.143 209.52C541.463 208.56 540.823 208.08 540.503 208C539.783 207.76 536.183 206.96 533.383 206.8C528.023 206.48 525.063 207.36 522.423 208.56C519.783 209.76 516.903 211.68 515.223 213.84V208.64C515.223 207.92 514.743 207.36 514.023 207.36H503.143C502.423 207.36 501.943 207.92 501.943 208.64V271.92C501.943 272.64 502.503 273.2 503.223 273.2H514.343C515.063 273.2 515.623 272.64 515.623 271.92V240.32C515.623 236.08 516.103 231.84 517.063 229.2C517.943 226.56 519.223 224.48 520.743 222.96C522.263 221.44 524.023 220.4 525.943 219.84C527.943 219.2 530.103 219.04 531.623 219.04C533.863 219.04 536.263 219.6 536.263 219.6C537.063 219.68 537.543 219.2 537.783 218.48C538.503 216.56 540.583 210.72 540.983 209.6L541.143 209.52Z" fill="white"/>
<path fill-rule="evenodd" clip-rule="evenodd" d="M436.583 180.24C435.223 179.84 434.023 179.52 432.423 179.28C430.823 178.96 428.823 178.8 426.663 178.8C418.983 178.8 412.983 180.96 408.743 185.28C404.503 189.52 401.623 196 400.263 204.48L399.783 207.36H390.183C390.183 207.36 388.983 207.36 388.743 208.56L387.143 217.36C387.063 218.24 387.383 218.72 388.503 218.72H397.863L388.343 271.76C387.623 276 386.743 279.52 385.783 282.24C384.823 284.88 383.943 286.8 382.823 288.24C381.703 289.6 380.743 290.64 378.983 291.2C377.543 291.68 375.863 291.92 374.023 291.92C372.983 291.92 371.623 291.76 370.583 291.52C369.543 291.36 369.063 291.12 368.263 290.8C368.263 290.8 367.143 290.4 366.743 291.52C366.423 292.4 363.863 299.28 363.623 300.16C363.303 300.96 363.783 301.68 364.263 301.84C365.543 302.32 366.423 302.56 368.103 302.96C370.423 303.52 372.423 303.52 374.343 303.52C378.263 303.52 381.783 302.96 384.743 301.92C387.703 300.88 390.263 298.96 392.583 296.48C395.063 293.76 396.583 290.88 398.103 286.96C399.543 283.12 400.823 278.32 401.863 272.72L411.383 218.64H425.383C425.383 218.64 426.583 218.64 426.823 217.44L428.423 208.64C428.503 207.76 428.183 207.28 427.063 207.28H413.543C413.543 207.28 414.263 202.24 415.783 197.68C416.423 195.76 417.703 194.24 418.743 193.12C419.783 192.08 420.983 191.36 422.263 190.88C423.623 190.48 425.143 190.24 426.823 190.24C428.103 190.24 429.383 190.4 430.343 190.56C431.623 190.8 432.183 190.96 432.503 191.12C433.863 191.52 434.103 191.12 434.343 190.48L437.623 181.6C437.943 180.64 437.143 180.24 436.823 180.16L436.583 180.24Z" fill="white"/>
<path fill-rule="evenodd" clip-rule="evenodd" d="M247.223 271.92C247.223 272.64 246.743 273.2 246.023 273.2H234.743C234.023 273.2 233.543 272.64 233.543 271.92V181.44C233.543 180.72 234.023 180.16 234.743 180.16H246.023C246.743 180.16 247.223 180.72 247.223 181.44V271.92Z" fill="white"/>
</g>
<defs>
<clipPath id="clip0_754_200">
<rect width="731.44" height="512" fill="white" transform="translate(0.663086)"/>
</clipPath>
</defs>
</svg>
