<svg width="1025" height="184" viewBox="0 0 1025 184" fill="none" xmlns="http://www.w3.org/2000/svg">
<g clip-path="url(#clip0_9_1285)">
<path d="M311.294 41.1675L344.944 141.469H326.418L319.279 119.265H284.606L277.762 141.508H259.236L292.886 41.2068L311.294 41.1675ZM289.759 102.784H314.106L301.697 63.9812L289.759 102.784Z" fill="#171717"/>
<path d="M359.065 141.431V41.4634H401.428C418.833 41.4634 429.237 52.0049 429.237 63.4314V84.6717C429.237 92.6565 423.829 100.405 414.408 104.221L431.243 141.431H411.851L396.118 106.345H377.709V141.431H359.065ZM377.611 58.0033V89.9424H400.012C405.912 89.9424 410.848 86.5204 410.848 80.6793V67.4238C410.848 61.2877 405.715 58.0033 399.284 58.0033H377.611Z" fill="#171717"/>
<path d="M465.896 141.431V57.8656H441.076V41.4634H507.118V57.8656H484.304V141.431H465.896Z" fill="#171717"/>
<path d="M529.499 112.913V119.266C529.499 128.116 537.779 134.822 548.478 134.822H560.278C571.252 134.822 579.807 129.532 579.807 120.269V113.365C579.807 97.9662 524.622 95.0949 524.622 68.7215V59.714C524.622 49.5855 534.18 40.7354 547.003 40.7354H560.278C574.674 40.7354 585.235 50.2935 585.235 61.2873V70.2751H576.955V62.7034C576.955 54.4432 569.266 48.1695 559.57 48.1695H548.143C539.726 48.1695 532.882 53.7156 532.882 60.9923V68.2691C532.882 87.9361 588.087 90.5125 588.087 112.205V121.763C588.087 134.311 576.523 142.296 560.986 142.296H548.143C532.606 142.296 521.199 132.305 521.199 120.662V112.952L529.499 112.913Z" fill="#171717"/>
<path d="M629.348 141.43V48.8774H601.382V41.6006H664.316V48.8774H637.608V141.43H629.348Z" fill="#171717"/>
<path d="M708.921 40.8926L744.144 141.43H735.747L724.615 109.432H684.671L673.697 141.509H665.28L700.68 40.9712L708.921 40.8926ZM687.287 101.86H722.078L704.692 51.5127L687.287 101.86Z" fill="#171717"/>
<path d="M773.389 141.43V48.8774H745.442V41.6006H808.377V48.8774H781.669V141.43H773.389Z" fill="#171717"/>
<path d="M826.884 141.43V41.6006H835.144V141.43H826.884Z" fill="#171717"/>
<path d="M886.415 142.295C872.648 142.295 862.815 132.304 862.815 120.661V62.4276C862.815 50.7258 872.806 40.7939 886.415 40.7939H906.24C919.79 40.7939 929.624 50.7848 929.624 62.4276V120.622C929.624 132.304 919.79 142.256 906.24 142.256L886.415 142.295ZM905.532 134.881C907.592 134.915 909.639 134.537 911.552 133.769C913.464 133.002 915.204 131.86 916.67 130.411C918.135 128.962 919.297 127.235 920.086 125.331C920.875 123.427 921.276 121.385 921.265 119.324V63.706C921.276 61.646 920.875 59.6046 920.086 57.7018C919.296 55.799 918.135 54.0732 916.669 52.6257C915.203 51.1782 913.463 50.0383 911.55 49.273C909.638 48.5077 907.591 48.1323 905.532 48.1691H886.848C884.78 48.119 882.723 48.4845 880.799 49.2439C878.875 50.0032 877.123 51.141 875.647 52.5898C874.17 54.0387 873 55.769 872.204 57.6785C871.409 59.5879 871.005 61.6375 871.016 63.706V119.265C871.002 121.335 871.404 123.387 872.199 125.299C872.993 127.21 874.163 128.943 875.64 130.394C877.116 131.845 878.869 132.985 880.795 133.745C882.72 134.506 884.778 134.872 886.848 134.822L905.532 134.881Z" fill="#171717"/>
<path d="M957.374 141.431V41.601H965.929L1016 126.897V41.4634H1024.26V141.431H1015.71L965.653 55.9973V141.431H957.374Z" fill="#171717"/>
<path d="M0.260986 141.41L17.8236 171.796C19.5703 175.268 22.2481 178.187 25.5578 180.226C28.8676 182.264 32.679 183.343 36.5662 183.34H153.231L129.04 141.41H0.260986Z" fill="#13AFF0"/>
<path d="M208.279 141.626C208.288 137.587 207.126 133.632 204.935 130.239L136.593 11.4311C134.804 8.0591 132.13 5.23778 128.86 3.2698C125.589 1.30182 121.844 0.261434 118.027 0.260254H81.8987L187.471 183.163L204.109 154.351C207.394 148.766 208.279 146.386 208.279 141.626Z" fill="#13AFF0"/>
<path d="M111.832 111.615L64.6508 29.8984L17.4697 111.615H111.832Z" fill="#13AFF0"/>
</g>
<defs>
<clipPath id="clip0_9_1285">
<rect width="1024" height="183.08" fill="white" transform="translate(0.260742 0.260742)"/>
</clipPath>
</defs>
</svg>
