<svg width="649" height="513" viewBox="0 0 649 513" fill="none" xmlns="http://www.w3.org/2000/svg">
<g clip-path="url(#clip0_879_3645)">
<path fill-rule="evenodd" clip-rule="evenodd" d="M598.307 246.085C577.636 248.889 541.515 263.849 548.378 271.881C555.239 279.904 575.25 290.937 578.093 292.328C568.556 292.328 537.206 295.569 533.706 304.457C530.196 313.343 579.067 343.132 596.962 350.134C574.703 343.866 521.616 333.409 518.086 340.569C514.559 347.728 523.733 369.856 532.119 376.44C525.979 374.602 493.915 365.483 488.771 377.341C483.116 390.388 514.456 438.247 518.013 447.189C503.565 432.852 463.988 400.713 458.379 404.391C452.771 408.068 454.154 425.98 455.612 435.09C450.18 428.469 440.848 417.856 432.787 421.031C424.726 424.207 425.721 454.962 425.2 468.064C418.552 452.65 407.697 421.617 397.648 422.749C387.602 423.881 376.328 444.997 374.185 453.068C372.651 444.989 366.077 427.225 356.132 427.225C346.187 427.225 323.065 474.239 316.074 489.515C316.044 477.694 318.876 420.019 312.609 417.159C306.341 414.298 285.189 427.448 280.646 433.428C282.328 425.85 283.759 400.24 278.121 397.149C272.476 394.046 256.392 393.071 227.31 419.963C232.137 409.646 240.088 398.42 242.019 387.537C254.061 386.915 265.984 385.55 278.01 383.2C304.251 402.19 336.511 413.398 371.379 413.398C459.447 413.398 530.836 342.008 530.836 253.942C530.836 247.041 530.39 240.244 529.545 233.586C535.453 228.024 541.116 222.638 546.389 217.614C545.182 220.503 544.515 223.985 544.626 228.275C544.97 241.72 579.801 244.591 598.307 246.085ZM201.722 303.396C196.699 300.675 173.337 299.599 173.337 299.599C173.337 299.599 199.643 281.918 199.031 269.132C198.416 256.354 156.464 249.808 139.879 246.13C154.513 243.047 201.908 232.341 203.943 222.804C205.986 213.277 189.13 206.507 182.047 203.183C189.985 203.286 210.108 206.656 212.82 196.832C215.921 185.568 166.371 156.234 155.079 152.166C157.606 152.761 204.797 163.774 222.051 160.041C234.893 157.255 219.924 139.975 217.453 137.931C221.242 139.779 242.878 144.237 249.071 133.966C255.265 123.695 234.251 82.7918 222.486 65.4548C232.933 75.8734 280.643 109.813 287.756 104.037C294.879 98.2625 289.436 79.6072 285.621 73.4508C293.31 80.6467 300.878 90.2666 310.647 90.0624C315.54 89.961 321.696 73.7846 322.709 37.226C329.329 57.711 345.133 85.5496 356.741 83.8594C368.358 82.1791 372.324 64.9351 373.93 57.5899C375.268 65.4732 381.366 85.7355 389.113 86.4778C398.62 87.9637 416.812 45.6488 423.433 26.5286C424.436 35.9723 417.509 84.4721 427.759 88.5032C438.001 92.5413 454.94 72.1226 464.55 60.6815C458.72 71.7507 447.324 98.5217 454.113 104.929C460.9 111.336 484.367 104.623 493.512 97.0822C490.95 102.691 490.402 107.177 491.1 111.392C480.67 113.435 469.909 116.435 458.793 120.576C433.684 104.094 403.653 94.492 371.376 94.492C283.318 94.492 211.928 165.882 211.928 253.94C211.928 275.139 216.069 295.363 223.582 313.861C214.51 320.584 205.818 325.915 196.912 330.028C203.422 322.274 209.077 307.371 201.722 303.396ZM648.621 125.393C648.514 122.973 648.052 121.535 648.052 121.535L648.045 121.522C645.101 111.237 634.599 104.885 620.298 104.885C618.778 104.885 617.23 104.963 615.701 105.116C604.744 106.204 585.258 112.802 579.474 114.825C561.311 110.235 544.285 107.999 527.481 107.999C518.794 107.999 510.155 108.615 501.538 109.818L501.55 109.812L497.997 110.292C497.997 110.292 496.612 105.794 500.231 95.2892C502.105 89.8426 504.677 84.8327 504.677 84.8327C504.677 84.8327 465.124 105.392 460.185 98.8287C455.245 92.2666 477.364 40.0961 477.364 40.0961C477.364 40.0961 439.234 82.4622 431.743 80.5833C428.807 79.8467 428.527 64.5027 428.381 47.9897C428.183 25.6287 428.962 0.0507812 428.962 0.0507812C428.962 0.0507812 397.563 78.11 389.902 77.7044C383.259 77.3523 373.594 35.6853 373.594 35.6853C373.594 35.6853 367.531 71.5902 356.634 75.9818C345.736 80.3735 317.705 13.2255 317.705 13.2255C317.705 13.2255 316.41 80.434 308.613 81.9425C300.816 83.4496 275.994 58.3322 275.994 58.3322C275.994 58.3322 287.631 91.8089 283.69 96.2174C281.338 98.8499 257.463 84.0876 232.623 66.2718C218.273 55.9772 206.274 47.3517 206.274 47.3517C206.274 47.3517 220.275 70.6043 231.406 94.909C239.068 111.642 243.717 127.7 241.713 130.825C236.797 138.491 199.931 127.566 199.931 127.566C199.931 127.566 220.886 147.754 219.534 152.952C218.879 155.476 198.039 153.654 176.861 150.759C154.397 147.687 131.538 143.451 131.538 143.451C131.538 143.451 206.352 186.947 204.004 194.777C202.146 200.97 155.585 195.897 155.585 195.897C155.585 195.897 196.067 214.393 195.902 220.504C195.739 226.617 116.663 246.625 116.663 246.625C116.663 246.625 188.28 261.607 189.65 269.593C191.019 277.58 161.404 303.207 161.404 303.207C161.404 303.207 195.883 306.323 197.594 310.838C199.307 315.351 189.215 333.185 180.457 336.012C169.634 339.507 159.779 341.731 147.779 341.731C146.052 341.731 144.365 341.681 142.715 341.591C143.308 340.824 143.896 340.032 144.406 339.277C147.358 334.954 149.556 330.336 150.754 325.929L150.766 325.882L150.777 325.836C151.392 323.416 151.709 321.005 151.72 318.671V318.57L151.717 318.47C151.634 315.816 150.772 313.555 149.207 312.016C146.275 309.46 143.539 309.764 141.579 310.636L134.776 313.971C134.27 314.193 133.698 314.409 133.007 314.617C131.704 315.008 128.959 315.474 123.27 315.474C117.875 315.474 111.455 315.072 105.246 314.684C105.246 314.684 101.434 314.471 100.697 314.471C93.2909 314.471 88.3471 316.829 85.3682 318.986L83.7479 318.133C68.6007 310.088 50.9715 306.833 39.9621 304.802C39.1069 304.643 38.2898 304.499 37.52 304.347C25.361 301.962 18.7059 294.747 18.1645 294.161C17.1346 293.047 15.7929 291.603 14.0425 290.593C14.0425 290.593 10.8779 288.618 6.18852 290.062C3.12888 291.138 1.83618 293.524 1.83618 293.524C-0.786122 297.88 1.71646 304.275 5.01568 311.489C8.76913 319.685 20.5351 340.152 48.6974 353.218C57.9174 357.5 70.0475 360.548 84.7489 362.275C95.8157 363.575 105.16 363.739 108.884 363.746C112.469 365.492 123.504 370.592 139.911 375.721C157.924 381.35 186.073 388.043 218.324 388.195C218.324 388.195 229.768 388.34 235.947 387.946C236.569 390.522 232.099 399.733 226.727 410.53C220.362 423.325 212.194 438.461 212.194 438.461C212.194 438.461 226.949 425.42 240.702 415.752C254.543 406.022 270.047 398.203 273.712 402.709C280.639 411.222 273.249 446.354 273.249 446.354C273.249 446.354 301.211 421.61 307.695 424.962C310.664 426.496 310.961 444.985 310.972 464.461C310.988 487.539 310.392 512.051 310.392 512.051C310.392 512.051 348.908 434.115 356.921 436.342C364.934 438.569 373.704 474.104 373.704 474.104C373.704 474.104 388.337 430.811 397.279 431.862C400.854 431.424 408.535 445.465 415.36 459.817C422.842 475.547 429.25 490.925 429.25 490.925C429.25 490.925 429.407 474.85 430.528 458.424C431.541 443.585 433.427 429.098 436.689 428.294C443.561 426.603 463.493 453.317 463.493 453.317C463.493 453.317 456.445 416.083 461.967 412.928C467.489 409.773 533.833 467.13 533.833 467.13C533.833 467.13 490.295 386.46 495.591 380.3C500.887 374.14 547.387 386.706 547.387 386.706C547.387 386.706 540.458 378.524 534.53 369.28C528.333 359.615 523.172 348.815 525.596 346.218C527.799 343.859 552.043 346.315 577.09 351.173C605.969 356.775 624.757 360.769 624.757 360.769C624.757 360.769 607.747 351.563 582.662 336.47C560.942 323.403 541.837 308.693 542.651 306.309C544.408 301.165 596.28 296.231 596.28 296.231C596.28 296.231 587.575 291.11 578.221 285.39C568.066 279.18 557.222 271.449 557.222 268.618C557.222 266.145 570.229 260.012 587.384 254.736C607.951 248.412 626.975 244.172 626.975 244.172C626.975 244.172 556.26 238.495 551.843 228.413C548.827 221.527 554.367 212.548 558.426 206.746C562.488 200.948 568.298 195.684 568.298 195.684C587.618 177.844 612.209 161.419 620.064 156.589C620.62 156.247 621.15 155.91 621.691 155.572C621.691 155.572 639.831 142.18 641.695 140.615C643.321 139.252 647.469 134.9 648.401 129.362C648.401 129.362 648.728 127.834 648.621 125.393Z" fill="white"/>
<path fill-rule="evenodd" clip-rule="evenodd" d="M458.793 120.576C469.909 116.436 480.671 113.435 491.099 111.393C490.402 107.178 490.95 102.692 493.512 97.0831C484.367 104.624 460.9 111.337 454.114 104.93C447.325 98.5225 458.72 71.7516 464.55 60.6823L464.106 61.2119C454.424 72.7403 437.845 92.4816 427.759 88.5026C420.364 85.5955 421.909 59.5401 422.969 41.7047C423.377 34.8196 423.712 29.1596 423.433 26.5293C416.812 45.6483 398.62 87.9646 389.113 86.4786C381.368 85.7364 375.268 65.474 373.93 57.5907C372.324 64.936 368.358 82.1799 356.741 83.8603C345.133 85.5504 329.329 57.7119 322.709 37.2267C321.696 73.7854 315.54 89.9618 310.647 90.0632C302.585 90.2322 296.022 83.7096 289.655 77.3813C288.305 76.0404 286.966 74.7094 285.621 73.4502C289.436 79.6081 294.879 98.2634 287.756 104.038C280.643 109.814 232.933 75.8742 222.486 65.4557C234.251 82.7926 255.265 123.696 249.071 133.967C242.878 144.237 221.242 139.78 217.453 137.932C219.924 139.975 234.893 157.256 222.051 160.042C204.797 163.774 157.606 152.762 155.08 152.167C166.372 156.235 215.921 185.568 212.82 196.833C210.569 204.987 196.323 204.051 187.006 203.439C185.098 203.313 183.396 203.201 182.047 203.184C182.63 203.458 183.281 203.756 183.981 204.075C191.78 207.643 205.818 214.063 203.943 222.805C201.908 232.342 154.513 243.048 139.879 246.131C142.118 246.628 144.821 247.176 147.821 247.786C167.041 251.69 198.5 258.081 199.03 269.131C199.643 281.919 173.337 299.6 173.337 299.6C173.337 299.6 196.699 300.676 201.722 303.397C209.077 307.372 203.422 322.275 196.912 330.028C205.818 325.916 214.51 320.585 223.582 313.862C216.069 295.364 211.928 275.14 211.928 253.941C211.928 165.883 283.318 94.4929 371.376 94.4929C403.653 94.4929 433.684 104.094 458.793 120.576ZM532.113 376.439C523.727 369.855 514.553 347.727 518.082 340.568C521.61 333.407 574.697 343.864 596.956 350.132C579.062 343.13 530.19 313.341 533.702 304.455C537.202 295.569 568.55 292.328 578.088 292.328C575.245 290.935 555.235 279.902 548.372 271.879C541.51 263.847 577.632 248.887 598.302 246.083C579.796 244.589 544.965 241.72 544.62 228.273C544.509 223.983 545.178 220.501 546.385 217.614C541.11 222.636 535.447 228.022 529.54 233.584C530.385 240.242 530.831 247.039 530.831 253.94C530.831 342.006 459.441 413.396 371.375 413.396C336.505 413.396 304.247 402.189 278.005 383.198C265.98 385.548 254.057 386.913 242.013 387.535C240.682 395.041 236.488 402.709 232.43 410.13C230.603 413.469 228.803 416.76 227.304 419.961C256.387 393.069 272.47 394.045 278.117 397.147C283.753 400.238 282.324 425.849 280.642 433.426C285.183 427.446 306.335 414.298 312.603 417.157C317.724 419.493 316.771 458.414 316.267 479.03C316.154 483.648 316.064 487.348 316.068 489.513C323.06 474.237 346.181 427.223 356.126 427.223C366.072 427.223 372.647 444.987 374.179 453.066C376.324 444.997 387.596 423.881 397.644 422.747C406.178 421.785 415.294 444.026 421.921 460.194C423.095 463.062 424.193 465.739 425.195 468.062C425.279 465.959 425.324 463.401 425.373 460.576C425.629 445.798 426.015 423.695 432.781 421.029C440.842 417.854 450.175 428.467 455.606 435.088C454.149 425.978 452.765 408.066 458.375 404.389C463.983 400.711 503.559 432.85 518.007 447.188C517.11 444.932 514.445 440.201 511.052 434.175C500.994 416.316 484.537 387.096 488.766 377.339C493.911 365.481 525.975 374.6 532.113 376.439Z" fill="#FC4C02"/>
<path fill-rule="evenodd" clip-rule="evenodd" d="M579.732 120.642C579.732 120.642 604.097 111.867 616.253 110.66C628.24 109.461 640.525 113.538 642.902 123.79H642.894C637.219 114.894 583.334 132.787 568.012 138.954C563.852 140.634 538.214 152.195 512.027 167.146L512.018 167.155C512.015 167.153 512.014 167.151 512.013 167.151C512.01 167.15 512.008 167.151 512.007 167.153C512.006 167.154 512.004 167.155 512 167.155C511.953 167.174 511.832 167.229 511.656 167.322C496.159 172.726 465.886 189.367 454.372 200.138C440.469 213.131 432.066 228.019 422.005 245.844C412.385 262.887 401.25 282.617 382.341 305.941C365.125 327.178 350.249 342.073 338.512 351.86C331.018 358.184 324.426 362.641 319.578 365.213C319.392 364.618 319.345 364.155 319.345 364.155C319.319 363.987 319.309 363.802 319.309 363.597C319.309 360.099 322.962 352.589 326.389 345.542L326.391 345.538C327.12 344.038 327.84 342.559 328.512 341.145C331.102 335.694 332.884 331.246 332.884 331.236C338.836 316.463 342.002 302.348 342.885 298.133C344.232 292.802 347.685 277.741 347.685 277.741C347.685 277.741 285.488 333.614 221.017 352.324C199.056 358.694 175.396 363.876 157.771 364.248C157.771 364.248 142.663 363.597 141.66 363.282C126.349 360.728 108.12 353.662 92.083 336.539C90.0308 334.914 87.9787 333.214 85.9265 331.432C86.0403 331.549 86.3754 332.004 86.9009 332.718C89.2931 335.97 95.6328 344.59 103.04 351.098C102.899 351.11 102.753 351.121 102.601 351.134C102.519 351.141 102.434 351.146 102.348 351.153C99.3693 351.4 94.1199 351.834 79.9278 349.817C26.1904 342.174 9.27151 300.11 8.83516 295.068C8.11177 295.272 7.47936 295.495 7.02527 295.913C7.47936 295.486 8.11177 295.262 8.83516 295.058C10.8718 294.482 12.4304 296.168 14.0719 297.944C14.7054 298.63 15.3515 299.328 16.0419 299.914L16.2393 300.083C18.848 302.307 25.1684 307.696 36.4894 309.823C37.2646 309.968 38.0845 310.12 38.9445 310.279C50.9717 312.499 70.85 316.168 86.0843 325.943L86.0945 325.925C87.2592 326.625 88.5749 327.47 90.0452 328.415C105.561 338.38 138.307 359.413 192.78 338.09C220.265 327.336 244.826 305.812 281.319 269.708C287.253 263.849 293.131 257.692 299.121 251.34C298.266 247.06 295.927 239.316 290.773 236.112C282.779 231.116 270.66 230.921 262.664 231.506C260.925 231.636 259.365 231.788 257.96 231.926H257.958C252.898 232.422 249.851 232.72 247.715 231.005C246.526 230.057 246.461 228.506 247.11 226.743C252.144 220.614 261.02 212.814 283.883 209.804C296.654 208.125 305.603 208.47 313.43 208.772C323.308 209.152 331.398 209.463 343.126 205.552C347.287 201.345 352.143 196.963 355.932 193.545C364.689 185.615 374.076 177.713 384.29 169.95C394.516 162.186 405.565 154.572 417.656 147.209C482.433 107.79 535.233 109.09 579.732 120.642ZM143.386 315.654H143.376C142.358 315.788 141.587 316.32 140.586 317.012C139.304 317.895 137.645 319.041 134.601 319.953C128.678 321.73 116.449 320.965 104.885 320.244C104.121 320.196 103.359 320.149 102.601 320.102C93.715 319.554 89.0264 322.896 87.1219 324.754L87.4801 324.958L87.7398 325.106C93.9064 328.621 111.106 338.422 125.871 341.264C126.698 341.422 128.695 341.757 130.57 341.943C132.438 342.128 134.656 342.036 135.131 342.008C135.167 341.97 138.046 338.721 139.793 336.149C142.67 331.933 144.453 327.847 145.372 324.467C145.873 322.489 146.135 320.549 146.144 318.644C146.035 315.22 143.924 315.567 143.434 315.647C143.415 315.65 143.4 315.653 143.386 315.654ZM500.633 251.398C496.057 265.512 489.026 284.808 480.419 301.133C470.185 320.532 456.703 333.93 449.599 339.076C448.42 338.36 447.973 336.856 447.937 335.305C447.921 334.553 448.359 332.952 449.054 330.415C450.911 323.619 454.603 310.115 456.341 288.254C464.01 282.487 470.902 276.998 476.992 271.938C484.736 265.494 492.714 258.521 500.633 251.398Z" fill="#008E97"/>
<path fill-rule="evenodd" clip-rule="evenodd" d="M639.719 134.516C639.719 134.516 639.719 134.506 639.728 134.506C640.229 133.588 641.586 131.071 641.316 129.381C640.712 125.499 632.374 126.586 611.751 133.56C611.713 133.575 611.674 133.588 611.633 133.6C611.6 133.612 611.568 133.622 611.536 133.634C609.781 134.229 607.952 134.86 606.021 135.537C565.902 149.63 526.654 183.593 482.697 221.632C460.267 241.042 436.611 261.513 410.99 280.944L411.556 280.062C419.715 267.779 425.938 256.69 431.639 246.531C441.665 228.664 450.075 213.678 464.56 200.14C476.288 188.949 494.264 177.277 512.001 167.156C511.955 167.174 511.834 167.229 511.658 167.322C496.159 172.726 465.888 189.368 454.372 200.14C440.469 213.131 432.066 228.019 422.005 245.845C412.387 262.889 401.251 282.617 382.342 305.942C365.127 327.179 350.25 342.073 338.513 351.861C331.019 358.185 324.427 362.641 319.579 365.215L319.588 365.239C319.672 365.495 320.289 367.368 321.937 367.777C324.751 368.482 335.273 363.189 348.7 351.851H348.708L348.863 351.778C351.011 350.757 375.109 339.3 386.883 332.872C401.388 324.96 425.298 310.056 430.518 306.592C430.518 306.583 430.526 306.583 430.526 306.583C439.849 300.38 456.341 288.281 456.341 288.253C464.012 282.486 470.902 276.998 476.994 271.937C484.737 265.493 492.714 258.52 500.635 251.397C496.057 265.511 489.028 284.808 480.42 301.132C470.186 320.531 456.704 333.93 449.6 339.075C451.711 340.418 454.79 338.661 455.519 338.244L455.588 338.206C455.611 338.192 455.63 338.182 455.645 338.173C461.495 334.97 477.988 320.967 489.036 298.56C504.119 267.971 510.815 244.143 511.49 241.739L511.493 241.729C511.522 241.625 511.539 241.563 511.546 241.545C512.217 240.924 526.672 227.285 540.299 214.429L540.374 214.358L540.396 214.337C552.588 202.836 564.087 191.986 564.421 191.679C583.456 174.083 608.248 157.312 617.144 151.843C626.44 146.123 632.085 141.796 635.401 138.889C638.725 135.984 639.719 134.516 639.719 134.516ZM538.678 131.088C543.815 131.085 555.851 130.716 560.743 129.534C563.112 128.962 564.821 128.317 565.985 127.876C567.225 127.407 567.847 127.172 567.99 127.509C568.269 128.161 565.58 129.689 557.161 133.14C551.003 135.662 545.341 137.203 536.213 139.474C532 140.743 526.052 142.655 526.052 142.655C526.042 142.643 526.033 142.629 526.024 142.616L526.003 142.585C525.993 142.57 525.983 142.554 525.972 142.539V142.537C525.859 142.384 525.771 142.229 525.696 142.074C525.692 142.065 525.688 142.055 525.682 142.047L525.675 142.033L525.669 142.022C525.138 140.857 525.609 139.67 526.159 138.824C509.558 137.603 501.432 146.977 501.432 146.977C500.831 147.432 500.114 148.289 499.35 149.364C501.757 145.681 507.138 138.685 515.134 135.195C525.02 130.876 531.845 130.986 536.845 131.067C537.485 131.078 538.095 131.088 538.678 131.088ZM342.885 298.132C344.232 292.802 347.686 277.741 347.686 277.741C347.686 277.741 285.489 333.614 221.017 352.324C199.057 358.695 175.395 363.877 157.771 364.247L157.944 364.251L158.145 364.257C163.33 364.391 203.201 365.423 246.851 349.047C283.612 335.62 319.762 313.695 342.885 298.132ZM146.146 318.645C146.138 320.549 145.876 322.489 145.375 324.467C144.456 327.848 142.673 331.932 139.796 336.149C138.049 338.721 135.172 341.971 135.134 342.009C134.659 342.035 132.441 342.128 130.573 341.942C128.698 341.758 126.701 341.423 125.874 341.265V341.257C125.762 341.102 126.894 340.154 128.652 338.682C134.801 333.537 148.596 321.996 143.389 315.655L143.435 315.648C143.925 315.567 146.038 315.221 146.146 318.645ZM283.884 209.802C296.649 208.124 305.597 208.468 313.423 208.769C323.303 209.15 331.396 209.461 343.129 205.547C347.231 201.397 352.015 197.079 355.78 193.679L355.926 193.547C349.977 195.458 345.38 196.595 341.046 197.362C335.99 198.361 331.646 198.711 325.851 199.181C320.361 199.626 313.569 200.175 303.635 201.481C271.55 205.702 256.546 215.757 252.339 219.643C251.07 220.816 250.098 221.832 248.764 223.689C247.846 224.966 247.2 226.478 247.1 226.753C252.139 220.619 261.011 212.81 283.884 209.802ZM326.389 345.544C327.119 344.042 327.84 342.561 328.512 341.145C331.102 335.694 332.885 331.246 332.885 331.237C311.817 342.417 278.136 356.744 247.669 363.885C187.673 377.954 149.248 365.753 142.665 363.598L141.801 363.319L141.736 363.301H141.728C141.713 363.296 141.7 363.294 141.69 363.291C141.68 363.289 141.67 363.286 141.662 363.282C126.35 360.729 108.121 353.662 92.0842 336.538C90.0321 334.914 87.9799 333.214 85.9278 331.431C86.0416 331.549 86.3767 332.004 86.9022 332.718C89.2943 335.97 95.634 344.59 103.042 351.099C102.824 351.116 102.594 351.134 102.349 351.154C99.3706 351.4 94.1212 351.834 79.9291 349.817C26.1917 342.175 9.27279 300.111 8.83644 295.068C8.29784 295.216 7.80572 295.384 7.40641 295.625C7.40641 295.634 7.39712 295.634 7.39712 295.634C7.26711 295.718 7.13711 295.811 7.02655 295.913C5.69779 297.12 5.903 300.036 10.0817 309.173C15.6987 321.439 28.606 337.755 51.0408 348.165C71.5531 357.692 102.791 358.175 109.105 358.175C109.485 358.175 109.776 358.171 109.969 358.168C110.065 358.167 110.136 358.165 110.182 358.165C110.192 358.165 110.192 358.175 110.192 358.175C110.192 358.175 163.121 385.559 230.387 382.374C230.392 382.374 230.416 382.374 230.461 382.374C232.379 382.395 271.554 382.825 319.347 364.156C319.32 363.988 319.31 363.802 319.31 363.598C319.31 360.101 322.962 352.589 326.389 345.544Z" fill="#005778"/>
<path fill-rule="evenodd" clip-rule="evenodd" d="M499.352 149.364C500.114 148.291 500.832 147.432 501.432 146.978C501.432 146.978 509.558 137.605 526.159 138.824C525.609 139.669 525.14 140.857 525.669 142.023C525.673 142.03 525.678 142.038 525.682 142.047C525.688 142.055 525.692 142.065 525.696 142.074C525.769 142.23 525.861 142.385 525.972 142.538C515.656 146.051 498.212 152.971 492.677 161.171C492.677 161.171 496.359 153.581 499.352 149.364ZM332.885 331.236C338.837 316.463 342.004 302.349 342.887 298.132C319.765 313.695 283.615 335.62 246.853 349.047C203.202 365.423 163.333 364.391 158.147 364.257C157.99 364.253 157.865 364.25 157.772 364.248C157.772 364.248 143.194 363.616 141.728 363.301L142.665 363.598C149.248 365.753 187.673 377.954 247.67 363.885C278.136 356.744 311.817 342.417 332.885 331.236Z" fill="white"/>
</g>
<defs>
<clipPath id="clip0_879_3645">
<rect width="647.9" height="512" fill="white" transform="translate(0.742188 0.0507812)"/>
</clipPath>
</defs>
</svg>
