<svg width="486" height="513" viewBox="0 0 486 513" fill="none" xmlns="http://www.w3.org/2000/svg">
<g clip-path="url(#clip0_881_184)">
<path d="M485.032 29.7983V0.0507812H3.0779V29.7983C3.0779 29.7983 3.06224 196.646 3.06224 197.642C2.95981 263.592 22.9957 328.001 60.4904 382.255L0.511719 442.234L42.5852 484.307L98.7854 428.107C112.264 441.534 126.889 453.758 142.495 464.639C170.919 484.483 202.343 499.637 235.569 509.525L244.055 512.051L252.542 509.525C319.747 489.585 378.702 448.445 420.606 392.247C462.51 336.048 485.115 267.805 485.048 197.704C485.048 196.708 485.032 29.7983 485.032 29.7983Z" fill="white"/>
<path d="M455.282 29.3047H32.828C32.828 29.3047 32.8124 196.398 32.8124 197.394C32.7085 265.824 56.4358 332.154 99.9188 384.993L455.282 29.6298V29.3047Z" fill="url(#paint0_linear_881_184)"/>
<path d="M244.055 480.887C366.216 444.531 455.298 331.365 455.298 197.395C455.298 196.424 455.283 37.7138 455.282 29.6309L99.9189 384.994C137.336 430.606 187.528 463.999 244.055 480.887Z" fill="white"/>
<path d="M101.837 336.624L99.2301 339.23L106.41 346.41L104.755 348.064L97.5748 340.885L94.9685 343.492L93.624 342.148L100.493 335.279L101.837 336.624ZM113.009 334.844L109.285 326.486L111.664 324.107L120.188 332.631L118.636 334.182L111.974 327.52L111.933 327.562L116.051 336.769L114.892 337.927L105.685 333.81L105.643 333.851L112.305 340.513L110.754 342.065L102.23 333.541L104.63 331.141L113.009 334.844Z" fill="#001F5B"/>
<path d="M192.711 197.166L198.101 213.755L183.989 203.505L169.878 213.755L175.265 197.166L161.156 186.912H178.602L183.989 170.318L189.378 186.912H206.822L192.711 197.166Z" fill="white"/>
<path d="M111.501 197.166L125.612 186.912H108.17L102.779 170.318L97.3907 186.912H79.9424L94.0569 197.166L88.6654 213.755L102.779 203.505L116.886 213.755L111.501 197.166Z" fill="white"/>
<path d="M148.776 240.933L143.384 224.342L137.995 240.933H120.55L134.66 251.187L129.272 267.775L143.384 257.525L157.493 267.775L152.106 251.187L166.216 240.933H148.776Z" fill="white"/>
<path d="M95.9885 132.202L79.9879 95.7636H79.4803V144.395C79.4907 144.564 79.4652 144.734 79.4052 144.893C79.3453 145.052 79.2524 145.197 79.1326 145.317C79.0128 145.438 78.8689 145.531 78.7102 145.592C78.5516 145.653 78.3818 145.68 78.2122 145.67H63.8651C63.6949 145.68 63.5244 145.654 63.365 145.593C63.2056 145.533 63.0608 145.439 62.9401 145.319C62.8194 145.199 62.7255 145.054 62.6646 144.895C62.6038 144.735 62.5773 144.565 62.587 144.395V60.5903C62.5771 60.4203 62.6035 60.2502 62.6644 60.0911C62.7252 59.932 62.8192 59.7877 62.94 59.6677C63.0609 59.5477 63.2058 59.4548 63.3653 59.395C63.5248 59.3353 63.6951 59.3101 63.8651 59.3211H78.9737C79.4046 59.2764 79.8382 59.377 80.2054 59.607C80.5726 59.837 80.8524 60.1831 81.0004 60.5903L102.844 109.857H103.357L124.812 60.5903C124.961 60.1824 125.242 59.8361 125.611 59.6061C125.98 59.3762 126.415 59.2759 126.847 59.3211H141.701C141.871 59.3105 142.04 59.3361 142.199 59.3962C142.358 59.4562 142.502 59.5494 142.621 59.6695C142.741 59.7896 142.834 59.9339 142.894 60.0926C142.953 60.2514 142.978 60.4211 142.967 60.5903V144.395C142.978 144.564 142.953 144.734 142.893 144.893C142.834 145.052 142.741 145.197 142.621 145.317C142.502 145.438 142.358 145.531 142.199 145.592C142.041 145.653 141.871 145.68 141.701 145.67H127.35C127.181 145.679 127.012 145.653 126.853 145.592C126.695 145.531 126.551 145.437 126.432 145.316C126.312 145.196 126.22 145.051 126.16 144.893C126.1 144.734 126.075 144.564 126.086 144.395V95.7636H125.576L109.577 132.202C109.409 132.704 109.081 133.137 108.644 133.436C108.207 133.735 107.685 133.883 107.156 133.858H98.3962C97.8696 133.881 97.3499 133.731 96.9156 133.433C96.4813 133.134 96.1559 132.702 95.9885 132.202Z" fill="white"/>
<path d="M155.86 145.67H212.114C212.284 145.679 212.454 145.653 212.613 145.592C212.771 145.531 212.916 145.437 213.036 145.317C213.156 145.197 213.249 145.052 213.309 144.893C213.369 144.734 213.395 144.564 213.385 144.394V130.3C213.395 130.13 213.369 129.961 213.308 129.802C213.248 129.644 213.154 129.5 213.034 129.38C212.914 129.26 212.77 129.167 212.612 129.107C212.453 129.046 212.283 129.02 212.114 129.03H174.02C173.916 129.045 173.81 129.036 173.711 129.003C173.611 128.97 173.521 128.914 173.447 128.84C173.373 128.766 173.317 128.675 173.284 128.576C173.251 128.476 173.242 128.371 173.257 128.267V60.5899C173.267 60.4205 173.242 60.2508 173.182 60.0919C173.122 59.9331 173.029 59.7889 172.909 59.6688C172.789 59.5487 172.645 59.4556 172.486 59.3956C172.327 59.3356 172.157 59.31 171.988 59.3207H155.86C155.691 59.3103 155.521 59.336 155.363 59.3961C155.204 59.4562 155.06 59.5494 154.94 59.6694C154.82 59.7894 154.727 59.9336 154.667 60.0923C154.607 60.251 154.582 60.4206 154.592 60.5899V144.394C154.582 144.564 154.607 144.734 154.667 144.893C154.727 145.052 154.82 145.196 154.94 145.316C155.06 145.437 155.204 145.531 155.362 145.592C155.521 145.652 155.691 145.679 155.86 145.67Z" fill="white"/>
<path d="M260.232 93.7294L255.663 93.0952C245.76 91.7016 242.204 88.5279 242.204 83.5742C242.204 78.1099 246.137 74.1786 253.758 74.1786C260.871 74.1786 267.215 76.4614 273.82 80.7814C273.962 80.8743 274.121 80.9379 274.287 80.9686C274.454 80.9993 274.625 80.9965 274.79 80.9602C274.955 80.9239 275.112 80.855 275.25 80.7574C275.389 80.6599 275.506 80.5356 275.596 80.3921L283.343 68.8393C283.977 67.9489 283.851 67.4468 283.094 66.9375C275.851 61.3488 265.183 57.9219 253.758 57.9219C235.089 57.9219 223.157 68.4616 223.157 84.3328C223.157 99.5708 232.93 107.822 250.459 110.237L255.029 110.869C265.313 112.267 268.359 115.444 268.359 120.524C268.359 126.614 263.282 130.808 254.266 130.808C245.125 130.808 237.382 126.492 231.664 121.92C231.536 121.793 231.382 121.694 231.213 121.631C231.044 121.568 230.864 121.541 230.684 121.553C230.504 121.565 230.328 121.615 230.169 121.7C230.009 121.784 229.87 121.902 229.76 122.045L220.108 133.093C219.847 133.401 219.714 133.797 219.738 134.199C219.761 134.602 219.939 134.98 220.235 135.254C226.964 141.732 240.04 147.061 253.507 147.061C275.851 147.061 287.413 135.506 287.413 119.891C287.413 104.269 278.012 96.1433 260.232 93.7294Z" fill="white"/>
<path d="M465.199 29.3041L465.198 19.3887H22.9121L22.9115 29.3041C22.9115 29.3041 22.8959 196.399 22.8959 197.394C22.7945 263.947 44.5101 328.698 84.7171 381.732C85.3413 382.555 85.9795 383.366 86.6111 384.183L28.561 442.234L42.5851 456.258L99.2952 399.548C115.47 417.89 133.78 434.232 153.837 448.225C180.521 466.868 210.027 481.105 241.226 490.391L244.055 491.234L246.884 490.391C278.083 481.105 307.589 466.868 334.273 448.225C360.657 429.822 383.982 407.384 403.393 381.732C443.601 328.698 465.316 263.947 465.215 197.394C465.215 196.399 465.199 29.3041 465.199 29.3041ZM100.53 369.759C62.9313 320.171 42.6276 259.624 42.7296 197.394C42.7296 196.546 42.7407 75.1643 42.7441 39.2218H431.573L100.75 370.045C100.678 369.949 100.602 369.855 100.53 369.759ZM430.086 289.889C420.267 318.608 405.917 345.572 387.58 369.759C369.423 393.755 347.604 414.746 322.924 431.961C298.79 448.822 272.183 461.832 244.055 470.525C215.927 461.832 189.32 448.822 165.187 431.961C146.086 418.633 128.68 403.028 113.352 385.491L445.368 53.4757C445.372 99.8063 445.381 196.637 445.381 197.394C445.417 228.858 440.249 260.111 430.086 289.889Z" fill="url(#paint1_radial_881_184)"/>
</g>
<defs>
<linearGradient id="paint0_linear_881_184" x1="32.8124" y1="207.149" x2="455.282" y2="207.149" gradientUnits="userSpaceOnUse">
<stop stop-color="#E2231A"/>
<stop offset="0.1602" stop-color="#DB231B"/>
<stop offset="0.39438" stop-color="#C7231F"/>
<stop offset="0.67397" stop-color="#A72325"/>
<stop offset="0.98636" stop-color="#7B232E"/>
<stop offset="1" stop-color="#79232E"/>
</linearGradient>
<radialGradient id="paint1_radial_881_184" cx="0" cy="0" r="1" gradientUnits="userSpaceOnUse" gradientTransform="translate(244.055 255.311) scale(228.66)">
<stop stop-color="#009ADD"/>
<stop offset="1" stop-color="#001F5B"/>
</radialGradient>
<clipPath id="clip0_881_184">
<rect width="484.536" height="512" fill="white" transform="translate(0.511719 0.0507812)"/>
</clipPath>
</defs>
</svg>
