<svg width="1024" height="262" viewBox="0 0 1024 262" fill="none" xmlns="http://www.w3.org/2000/svg">
<g clip-path="url(#clip0_845_2681)">
<path d="M-0.00377283 190.623V257.596H46.9003V193.521C46.9003 187.288 49.3712 181.31 53.7692 176.901C58.1674 172.493 64.1326 170.017 70.3524 170.017H118.445C140.88 170.01 162.395 161.073 178.258 145.172C194.119 129.269 203.032 107.706 203.034 85.2197C203.034 62.7305 194.12 41.1624 178.255 25.259C162.39 9.35558 140.871 0.419431 118.432 0.416016H-0.00377283V84.1314H46.9003V44.6628H115.271C125.887 44.6628 136.068 48.8885 143.576 56.4107C151.083 63.9329 155.303 74.1357 155.307 84.7753C155.307 95.4173 151.089 105.623 143.581 113.148C136.072 120.674 125.889 124.9 115.271 124.9H65.5656C56.9531 124.896 48.4244 126.593 40.4668 129.895C32.5093 133.196 25.279 138.038 19.1893 144.141C13.0997 150.245 8.27025 157.492 4.97696 165.468C1.68366 173.444 -0.0088409 181.992 -0.00377283 190.623Z" fill="#6D4AFF"/>
<path d="M70.3396 170.018C51.6838 170.02 33.7927 177.448 20.6012 190.669C7.40961 203.89 -0.00208089 221.822 -0.00378418 240.519V257.597H46.9003V193.523C46.9003 187.291 49.3694 181.315 53.7648 176.907C58.1601 172.499 64.1219 170.022 70.3396 170.018Z" fill="url(#paint0_linear_845_2681)"/>
<path d="M210.305 257.604V155.574C210.305 113.949 234.561 80.797 283.078 80.797C290.865 80.6832 298.636 81.5487 306.208 83.3729V125.346C300.696 124.979 295.927 124.979 293.711 124.979C268.01 124.979 256.959 136.763 256.959 160.707V257.604H210.305Z" fill="#6D4AFF"/>
<path d="M320.19 171.073C320.19 119.872 358.779 80.8281 412.443 80.8281C466.106 80.8281 504.69 119.846 504.69 171.073C504.69 222.3 466.1 261.66 412.443 261.66C358.786 261.66 320.19 222.249 320.19 171.073ZM458.756 171.073C458.756 141.972 439.275 121.347 412.449 121.347C385.624 121.347 366.137 141.953 366.137 171.073C366.137 200.541 385.618 220.8 412.449 220.8C439.281 220.8 458.756 200.515 458.756 171.073Z" fill="#6D4AFF"/>
<path d="M653.894 171.073C653.894 119.872 692.483 80.8281 746.147 80.8281C799.811 80.8281 838.394 119.846 838.394 171.073C838.394 222.3 799.804 261.685 746.147 261.685C692.491 261.685 653.894 222.249 653.894 171.073ZM792.454 171.073C792.454 141.972 772.973 121.347 746.147 121.347C719.322 121.347 699.835 141.953 699.835 171.073C699.835 200.541 719.316 220.8 746.147 220.8C772.979 220.8 792.454 200.515 792.454 171.073Z" fill="#6D4AFF"/>
<path d="M862.652 257.594V159.248C862.652 113.572 891.687 80.7871 943.507 80.7871C994.96 80.7871 1024 113.572 1024 159.248V257.594H977.689V162.932C977.689 137.52 966.29 121.679 943.507 121.679C920.723 121.679 909.325 137.52 909.325 162.932V257.594H862.652Z" fill="#6D4AFF"/>
<path d="M639.951 121.677H589.59V186.137C589.59 208.605 597.672 218.922 620.829 218.922C623.033 218.922 628.54 218.922 635.53 218.554V256.497C625.975 259.072 617.539 260.547 608.332 260.547C569.376 260.573 542.93 236.971 542.93 192.403V121.677H511.671V84.4747H519.465C522.548 84.4764 525.601 83.8689 528.45 82.6868C531.298 81.5047 533.886 79.7714 536.066 77.5858C538.244 75.4003 539.973 72.8055 541.15 69.9501C542.329 67.0945 542.933 64.0342 542.93 60.9443V25.9062H589.602V84.4747H639.951V121.677Z" fill="#6D4AFF"/>
</g>
<defs>
<linearGradient id="paint0_linear_845_2681" x1="35.1679" y1="244.93" x2="35.1679" y2="146.519" gradientUnits="userSpaceOnUse">
<stop stop-color="#6D4BFD"/>
<stop offset="1" stop-color="#1C0554"/>
</linearGradient>
<clipPath id="clip0_845_2681">
<rect width="1024" height="261.263" fill="white" transform="translate(0 0.419922)"/>
</clipPath>
</defs>
</svg>
