<svg width="1025" height="191" viewBox="0 0 1025 191" fill="none" xmlns="http://www.w3.org/2000/svg">
<g clip-path="url(#clip0_821_510)">
<path d="M88.8454 -0.00292969C97.5782 -0.00292969 105.639 0.668827 113.029 2.6841C120.418 4.02761 126.464 6.71464 131.838 10.0734C137.212 13.4322 141.242 18.1345 143.929 24.1803C146.616 30.2261 147.96 37.6155 147.96 45.6765C147.96 55.0811 145.945 63.1422 141.242 69.188C137.212 75.2339 130.494 80.6079 122.433 84.6385C133.853 87.9972 142.586 94.0431 147.96 102.104C153.334 110.165 156.693 120.242 156.693 131.661C156.693 141.066 154.678 149.127 151.319 155.845C147.96 162.562 142.586 168.608 136.54 172.639C130.494 176.669 123.105 180.028 115.044 182.043C106.983 184.059 98.9217 185.402 90.8607 185.402H0.845215V-0.00292969H88.8454ZM83.4713 75.2339C90.8607 75.2339 96.9065 73.2186 101.609 69.8598C106.311 66.501 108.326 60.4552 108.326 53.0659C108.326 49.0353 107.655 45.0048 106.311 42.3178C104.968 39.6307 102.952 37.6155 100.265 35.6002C97.5782 34.2567 94.8912 32.9132 91.5324 32.2414C88.1736 31.5697 84.8148 31.5696 80.7843 31.5696H41.8224V75.2339H83.4713ZM85.4866 154.501C89.5171 154.501 93.5477 153.829 96.9065 153.158C100.265 152.486 103.624 151.142 106.311 149.127C108.998 147.112 111.013 145.097 113.029 141.738C114.372 138.379 115.716 134.348 115.716 129.646C115.716 120.242 113.029 113.524 107.655 108.822C102.281 104.791 94.8912 102.776 86.1584 102.776H41.8224V154.501H85.4866ZM215.136 153.829C220.51 159.203 228.571 161.891 239.319 161.891C246.708 161.891 253.426 159.875 258.8 156.516C264.174 152.486 267.533 148.455 268.876 144.425H301.792C296.418 160.547 288.357 171.967 277.609 179.356C266.861 186.074 254.098 190.104 238.647 190.104C227.899 190.104 218.494 188.089 209.762 184.73C201.029 181.371 194.311 176.669 188.265 169.952C182.22 163.906 177.517 156.516 174.83 147.784C171.471 139.051 170.128 129.646 170.128 118.898C170.128 108.822 171.471 99.4171 174.83 90.6843C178.189 81.9514 182.891 74.5621 188.937 67.8445C194.983 61.7987 202.372 56.4247 210.433 53.0659C219.166 49.7071 227.899 47.6918 238.647 47.6918C250.067 47.6918 260.143 49.7071 268.876 54.4094C277.609 59.1117 284.327 64.4857 289.701 72.5468C295.075 79.9362 299.105 88.669 301.792 98.0736C303.136 107.478 303.808 116.883 303.136 127.631H205.731C205.731 138.379 209.762 148.455 215.136 153.829ZM257.456 83.2949C252.754 78.5926 245.365 75.9056 236.632 75.9056C230.586 75.9056 225.884 77.2491 221.853 79.2644C217.823 81.2797 215.136 83.9667 212.449 86.6537C209.762 89.3408 208.418 92.6995 207.746 96.0583C207.075 99.4171 206.403 102.104 206.403 104.791H266.861C265.517 94.7148 262.159 87.9972 257.456 83.2949ZM355.533 -0.00292969V69.8598H356.205C360.907 61.7987 366.953 56.4247 374.342 53.0659C381.731 49.7071 388.449 47.6918 395.838 47.6918C405.915 47.6918 413.976 49.0353 420.022 51.7224C426.067 54.4094 431.441 58.4399 434.8 63.1422C438.159 67.8445 440.846 73.8903 442.19 80.6079C443.533 87.3255 444.205 94.7148 444.205 103.448V186.074H407.258V110.165C407.258 98.7454 405.243 90.6843 401.884 85.3102C398.525 79.9362 392.48 77.2491 383.747 77.2491C373.67 77.2491 366.281 80.6079 362.25 85.982C357.548 92.0278 355.533 102.104 355.533 115.539V186.074H318.586V-0.00292969H355.533ZM471.075 71.2033C475.106 65.1575 479.808 61.127 485.854 57.0964C491.9 53.7376 498.617 51.0506 506.006 49.7071C513.396 48.3636 520.785 47.6918 528.174 47.6918C534.892 47.6918 541.61 48.3636 548.999 49.0353C555.716 49.7071 562.434 51.7224 567.808 54.4094C573.854 57.0964 577.885 61.127 581.915 65.8293C585.274 70.5316 587.289 77.2491 587.289 85.3102V155.845C587.289 161.891 587.961 167.936 588.633 173.31C589.304 178.684 591.32 183.387 593.335 186.074H555.716C554.373 184.73 553.701 182.043 553.029 180.028C552.358 178.013 552.358 175.326 552.358 173.31C546.312 179.356 539.594 183.387 531.533 186.074C523.472 188.761 515.411 189.433 507.35 189.433C500.632 189.433 495.258 188.761 489.213 186.746C483.839 185.402 479.136 182.715 474.434 179.356C470.403 175.997 467.045 171.967 464.358 166.593C462.342 161.219 460.999 155.845 460.999 148.455C460.999 141.066 462.342 134.348 465.029 129.646C467.716 124.944 471.075 120.913 475.106 117.555C479.136 114.868 484.51 112.18 489.884 110.837C495.258 109.493 500.632 108.15 506.678 107.478L522.8 105.463C528.174 104.791 532.877 104.119 536.907 103.448C540.938 102.104 544.297 100.761 546.984 98.7454C549.671 96.7301 550.342 94.0431 550.342 90.0125C550.342 85.982 549.671 82.6232 548.327 80.6079C546.984 78.5926 544.968 76.5774 542.953 75.2339C540.938 73.8903 538.251 73.2186 535.564 72.5468C532.877 71.8751 529.518 71.8751 526.159 71.8751C518.77 71.8751 513.396 73.2186 509.365 76.5774C505.335 79.9362 502.648 85.3102 501.976 92.0278H465.029C465.029 83.9667 467.716 76.5774 471.075 71.2033ZM544.297 123.6C542.281 124.272 539.594 124.944 536.907 125.616C534.22 126.287 531.533 126.287 528.174 126.959C525.487 127.631 522.129 127.631 519.442 128.303L511.381 130.318C508.694 130.99 506.007 132.333 504.663 133.677C502.648 135.02 501.304 137.036 499.961 139.051C497.945 141.738 497.945 144.425 497.945 147.784C497.945 151.142 498.617 153.829 499.961 155.845C501.304 157.86 502.648 159.875 504.663 161.219C506.678 162.562 509.365 163.234 512.052 163.906C514.739 164.578 517.426 164.578 520.785 164.578C528.174 164.578 533.549 163.234 537.579 161.219C541.61 158.532 544.297 155.845 546.312 152.486C548.327 149.127 549.671 145.768 549.671 142.41C550.342 139.051 550.342 136.364 550.342 134.348V120.242C548.327 121.585 546.312 122.929 544.297 123.6ZM643.045 51.0506V69.8598H643.717C648.419 61.7987 654.465 56.4247 661.854 53.0659C669.243 49.7071 677.305 47.6918 684.694 47.6918C694.77 47.6918 702.831 49.0353 708.877 51.7224C715.595 54.4094 720.297 58.4399 723.656 63.1422C727.015 67.8445 729.702 73.8903 731.717 80.6079C733.06 87.3255 733.732 94.7148 733.732 103.448V186.074H696.785V110.165C696.785 98.7454 694.77 90.6843 691.411 85.3102C688.053 79.9362 682.007 76.5774 672.602 76.5774C662.526 76.5774 655.137 80.6079 650.434 86.6537C645.732 92.6995 643.717 102.776 643.717 116.211V186.746H606.77V51.0506H643.045ZM816.358 75.2339C810.312 75.2339 805.61 76.5774 801.58 79.2644C797.549 81.9514 794.19 85.3102 791.503 90.0125C788.816 94.0431 787.473 98.7454 786.129 104.119C784.786 109.493 784.786 114.196 784.786 119.57C784.786 124.272 785.457 129.646 786.129 134.348C787.473 139.723 788.816 143.753 791.503 147.784C794.19 151.814 796.877 155.173 800.908 157.86C804.938 160.547 809.641 161.891 815.687 161.891C824.419 161.891 831.137 159.203 836.511 154.501C841.213 149.799 844.572 143.081 845.244 134.348H880.847C878.16 152.486 871.442 165.921 860.022 175.326C848.603 184.73 833.824 189.433 815.687 189.433C805.61 189.433 796.206 187.417 788.144 184.058C779.412 180.7 772.694 175.997 766.648 169.952C760.602 163.906 755.9 156.516 752.541 148.455C749.183 139.723 747.839 130.99 747.839 120.913C747.839 110.165 749.183 100.761 752.541 92.0278C755.9 83.2949 759.931 75.2339 765.977 68.5163C772.022 61.7987 779.412 57.0964 787.473 53.0659C796.206 49.7071 805.61 47.6918 816.358 47.6918C824.419 47.6918 831.809 49.0353 839.198 51.0506C846.587 53.0659 853.305 56.4247 858.679 60.4552C864.725 64.4857 869.427 69.8598 872.786 76.5774C876.145 82.6232 878.16 90.6843 878.832 99.4171H842.557C841.213 83.2949 832.48 75.2339 816.358 75.2339ZM198.342 12.7605H273.579V30.8979H198.342V12.7605ZM936.603 153.829C941.977 159.203 950.71 161.891 960.786 161.891C968.175 161.891 974.893 159.875 980.267 156.516C985.641 152.486 989 148.455 990.343 144.425H1022.59C1017.21 160.547 1009.15 171.967 998.404 179.356C987.656 186.074 974.893 190.104 959.443 190.104C948.694 190.104 939.29 188.089 930.557 184.73C921.824 181.371 915.107 176.669 909.061 169.952C903.015 163.906 898.313 156.516 895.626 147.784C892.267 139.051 890.923 129.646 890.923 118.898C890.923 108.822 892.267 99.4171 895.626 90.6843C898.984 81.9514 903.687 74.5621 909.732 67.8445C915.778 61.7987 923.168 56.4247 931.229 53.0659C939.962 49.7071 949.366 47.6918 959.443 47.6918C970.862 47.6918 980.939 49.7071 989 54.4094C997.733 59.1117 1004.45 64.4857 1009.82 72.5468C1015.2 79.9362 1019.23 88.669 1021.92 98.0736C1024.6 107.478 1025.27 117.555 1024.6 128.303H927.198C927.198 138.379 931.229 148.455 936.603 153.829ZM979.595 83.2949C974.893 78.5926 967.504 75.9056 958.771 75.9056C952.725 75.9056 948.023 77.2491 943.992 79.2644C939.961 81.2797 936.603 83.9667 934.587 86.6537C932.572 89.3408 930.557 92.6995 929.885 96.0583C929.213 99.4171 928.542 102.104 928.542 104.791H989C986.985 94.7148 983.626 87.9972 979.595 83.2949Z" fill="#191919"/>
</g>
<defs>
<clipPath id="clip0_821_510">
<rect width="1024" height="190.107" fill="white" transform="translate(0.845215 -0.00292969)"/>
</clipPath>
</defs>
</svg>
