<svg width="1024" height="287" viewBox="0 0 1024 287" fill="none" xmlns="http://www.w3.org/2000/svg">
<g clip-path="url(#clip0_780_164)">
<path d="M295.474 70.4401V85.2611C287.031 74.2261 271.399 66.6861 253.296 66.6861C210.507 66.6861 178.632 104.774 178.632 149.497C178.632 195.449 210.186 232.308 253.296 232.308C271.399 232.308 287.031 225.059 295.474 213.409V228.197H348.855V70.4401H295.474ZM367.28 0.540952V228.197H422.587V144.06C422.587 127.686 430.387 117.945 442.874 117.945C455.36 117.945 461.941 126.423 461.941 142.183V228.133H517.216V128.948C517.216 90.5359 496.609 66.6214 463.481 66.6214C455.6 66.3336 447.762 67.9208 440.601 71.2547C433.44 74.5885 427.159 79.5755 422.267 85.8114V0.476562L367.28 0.540952ZM872.973 149.399C872.973 196.613 837.054 232.21 789.258 232.21C741.462 232.21 705.543 196.613 705.543 149.399C705.543 102.186 741.462 66.589 789.258 66.589C837.054 66.589 872.973 102.186 872.973 149.399ZM696.17 149.399C696.17 196.613 660.251 232.21 612.487 232.21C564.723 232.21 528.772 196.613 528.772 149.399C528.772 102.186 564.691 66.589 612.487 66.589C660.282 66.589 696.17 102.186 696.17 149.399ZM0 70.3429L66.8308 229.362L42.7883 286.673H101.498L190.509 70.3429H132.12L95.8806 162.894L59.9614 70.3106L0 70.3429ZM264.53 181.825C260.272 181.916 256.039 181.144 252.082 179.555C248.125 177.966 244.525 175.592 241.496 172.574C238.466 169.556 236.069 165.955 234.445 161.986C232.822 158.016 232.007 153.758 232.046 149.465C232.002 145.169 232.815 140.91 234.437 136.938C236.059 132.965 238.456 129.364 241.486 126.345C244.517 123.325 248.118 120.952 252.077 119.365C256.036 117.777 260.271 117.008 264.53 117.104C268.76 117.052 272.958 117.853 276.875 119.461C280.792 121.069 284.352 123.451 287.343 126.466C290.335 129.481 292.697 133.069 294.291 137.019C295.887 140.969 296.681 145.2 296.63 149.465C296.681 153.729 295.887 157.96 294.291 161.909C292.697 165.859 290.335 169.447 287.343 172.463C284.352 175.479 280.792 177.86 276.875 179.468C272.958 181.075 268.76 181.878 264.53 181.825ZM643.72 149.465C643.819 145.287 643.082 141.132 641.552 137.249C640.022 133.365 637.73 129.833 634.814 126.862C631.897 123.893 628.418 121.546 624.581 119.964C620.745 118.382 616.631 117.596 612.487 117.654C608.342 117.596 604.229 118.382 600.392 119.964C596.556 121.546 593.076 123.893 590.159 126.862C587.243 129.833 584.953 133.365 583.422 137.249C581.892 141.132 581.155 145.287 581.254 149.465C581.155 153.641 581.892 157.794 583.423 161.676C584.953 165.557 587.245 169.088 590.162 172.055C593.078 175.022 596.558 177.365 600.394 178.944C604.23 180.523 608.343 181.305 612.487 181.243C616.63 181.305 620.743 180.523 624.579 178.944C628.415 177.365 631.896 175.022 634.812 172.055C637.729 169.088 640.021 165.557 641.552 161.676C643.082 157.794 643.82 153.641 643.72 149.465ZM820.49 149.465C820.59 145.287 819.852 141.132 818.322 137.249C816.792 133.365 814.5 129.833 811.585 126.862C808.669 123.893 805.188 121.546 801.352 119.964C797.516 118.382 793.402 117.596 789.258 117.654C785.113 117.596 781 118.382 777.164 119.964C773.326 121.546 769.847 123.893 766.931 126.862C764.014 129.833 761.723 133.365 760.193 137.249C758.662 141.132 757.925 145.287 758.025 149.465C757.925 153.641 758.662 157.794 760.193 161.676C761.723 165.557 764.016 169.088 766.932 172.055C769.849 175.022 773.33 177.365 777.166 178.944C781.002 180.523 785.114 181.305 789.258 181.243C793.401 181.305 797.513 180.523 801.35 178.944C805.186 177.365 808.667 175.022 811.582 172.055C814.499 169.088 816.791 165.557 818.322 161.676C819.852 157.794 820.59 153.641 820.49 149.465ZM879.841 194.77C879.777 199.543 880.661 204.282 882.44 208.706C884.22 213.13 886.859 217.15 890.203 220.531C893.547 223.912 897.528 226.583 901.912 228.388C906.296 230.195 910.994 231.097 915.729 231.046C920.621 231.084 925.472 230.141 929.999 228.271C934.527 226.403 938.639 223.644 942.099 220.156C945.558 216.668 948.295 212.522 950.149 207.958C952.004 203.395 952.939 198.503 952.9 193.572C952.983 188.794 952.11 184.048 950.334 179.617C948.558 175.185 945.916 171.161 942.564 167.781C939.212 164.402 935.219 161.738 930.824 159.948C926.428 158.157 921.72 157.278 916.98 157.36C912.095 157.343 907.253 158.301 902.736 160.178C898.219 162.055 894.114 164.814 890.66 168.298C887.204 171.781 884.467 175.919 882.605 180.473C880.743 185.027 879.793 189.908 879.809 194.834L879.841 194.77ZM958.549 0.605736L899.68 143.478H965.29L1024 0.50856L958.549 0.605736Z" fill="#6001D2"/>
</g>
<defs>
<clipPath id="clip0_780_164">
<rect width="1024" height="286.197" fill="white" transform="translate(0 0.476562)"/>
</clipPath>
</defs>
</svg>
