<svg width="1024" height="165" viewBox="0 0 1024 165" fill="none" xmlns="http://www.w3.org/2000/svg">
<g clip-path="url(#clip0_795_3973)">
<path fill-rule="evenodd" clip-rule="evenodd" d="M597.515 35.5877L597.483 35.5716C601.323 31.3788 605.577 26.9259 610.03 22.6416C604.611 20.0005 599.607 17.0067 594.766 14.1105C584.276 7.83497 574.552 2.01774 563.043 1.23924C554.116 0.68672 545.18 2.16385 536.905 5.55971C536.905 5.55971 532.431 -0.513543 518.655 1.4545C504.878 3.42254 462.442 21.1503 426.279 78.9615C393.591 131.222 408.951 161.189 432.43 160.865C457.876 160.512 482.076 132.222 490.287 108.897C498.497 85.5731 488.811 79.2536 481.369 79.8532C473.144 80.5451 458.614 87.864 450.619 104.039C442.623 120.214 442.623 130.177 442.623 130.177C445.891 126.748 449.445 123.605 453.248 120.783C456.67 118.11 460.441 115.917 464.457 114.263C465.396 110.084 466.794 106.021 468.623 102.147C471.514 96.1206 476.096 89.8471 481.754 88.4329C493.239 85.5575 487.735 106.499 479.294 120.152C474.758 127.44 458.66 148.519 444.838 148.519C431.015 148.519 428.37 135.204 431.276 122.704C434.182 110.204 438.226 94.3985 458.429 65.6157C478.633 36.8331 500.48 19.7665 513.134 12.617C526.127 5.25221 531.416 8.48101 531.416 8.48101C531.416 8.48101 514.826 18.6595 505.386 30.9597C496.376 42.7065 490.979 55.9139 495.161 62.3869C499.158 68.5524 513.196 68.6754 528.679 46.3505C543.962 24.3022 540.119 11.1871 540.119 11.1871C541.125 10.86 542.152 10.6031 543.193 10.4183C550.65 9.4189 556.616 11.4023 565.841 16.1379C570.34 18.4482 574.756 21.4073 579.472 24.5679C584.886 28.1956 590.697 32.0896 597.483 35.5716L597.469 35.5877H597.515ZM534.89 12.8938C534.89 12.8938 525.05 16.8144 513.611 29.4222C502.172 42.0299 495.499 56.2214 500.434 59.9729C502.326 61.4028 506.692 61.6489 514.626 54.5147C521.941 48.1613 527.683 40.1985 531.4 31.2519C536.228 19.4805 535.055 13.7095 534.905 12.9725C534.896 12.9278 534.89 12.9017 534.89 12.8938Z" fill="black"/>
<path d="M617.447 42.7292L617.441 42.7372C644.316 48.0571 667.856 31.4056 680.372 17.2296C684.939 12.1565 688.868 6.54385 692.072 0.516602C686.372 6.45078 679.993 11.6939 673.069 16.1379L672.991 16.1226C661.337 23.595 645.209 30.3754 629.71 28.8841C625.789 32.9431 621.592 37.6326 617.41 42.7218L617.447 42.7292Z" fill="black"/>
<path fill-rule="evenodd" clip-rule="evenodd" d="M626.912 138.249C624.683 141.816 622.146 148.657 629.511 144.399C638.474 139.217 651.251 119.798 651.251 119.798H657.032C651.764 127.914 645.895 135.623 639.474 142.861C630.387 152.932 619.301 162.08 611.491 161.173C602.373 160.112 605.233 148.135 605.233 148.135C605.233 148.135 592.133 161.973 583.139 161.035C570.946 159.682 574.666 144.614 574.666 144.614C574.666 144.614 560.829 161.527 551.48 161.019C536.751 160.174 540.457 142.2 544.547 129.623C546.745 122.873 548.775 117.569 548.775 117.569C548.775 117.569 547.314 117.953 544.162 118.414C542.517 118.645 539.55 118.814 539.55 118.814C536.169 124.776 532.484 130.559 528.51 136.142C523.606 142.661 502.772 165.063 490.471 160.574C479.124 156.423 482.876 139.048 489.488 125.211C499.128 105.084 526.25 76.1632 541.887 79.9608C558.108 83.897 542.256 113.479 542.256 113.479C542.256 113.479 542.256 113.586 542.424 113.664C543.449 113.848 544.502 113.79 545.5 113.494C547.527 113.084 549.513 112.492 551.434 111.726C551.434 111.726 567.733 77.593 585.737 55.268C603.742 32.9431 639.704 -5.46444 653.804 3.83763C657.247 6.12854 655.679 14.0007 651.036 23.5642C648.944 24.2259 646.819 24.7802 644.671 25.2247C647.245 20.9541 649.192 16.3352 650.452 11.5099C652.573 -0.0215782 625.636 24.2868 606.386 50.4556C594.809 66.2203 584.525 82.8952 575.635 100.318C579.113 98.2041 582.433 95.8399 585.568 93.2452C594.155 86.1238 602.318 78.5047 610.015 70.4282C617.399 62.8203 624.325 54.7802 630.756 46.3504C632.816 46.2535 634.869 46.0431 636.906 45.72C629.869 55.2636 622.2 64.3246 613.951 72.8421C613.271 73.5216 612.587 74.207 611.898 74.896C604.803 82.0012 597.321 89.4939 590.734 95.0439C584.303 100.545 577.518 105.62 570.423 110.235C570.423 110.235 553.51 144.183 562.736 146.367C568.117 147.658 578.757 131.284 578.757 131.284C578.757 131.284 592.595 110.112 600.99 100.533C612.336 87.6179 622.161 80.1761 631.924 79.9762C637.644 79.8686 641.011 85.9723 641.011 85.9723L643.702 81.8059H660.261C660.261 81.8059 629.341 134.266 626.866 138.218L626.912 138.249ZM637.291 91.8458C637.492 91.4893 637.657 91.1131 637.782 90.7238C637.704 90.1088 637.417 89.54 636.969 89.112C636.521 88.6839 635.94 88.4221 635.322 88.3711C632.771 88.2484 629.265 88.7399 620.116 98.8725C612.514 107.262 605.976 116.558 600.651 126.548C595.408 136.127 593.286 143.261 596.3 145.106C597.277 145.608 598.408 145.724 599.468 145.429C601.512 144.937 603.818 143.03 607.34 138.956C608.657 137.429 610.092 135.389 611.734 133.058L611.749 133.036C612.153 132.464 612.569 131.873 612.997 131.268C619.055 123.027 634.277 97.0739 637.291 91.831V91.8458ZM542.178 102.854C543.716 98.8569 545.654 91.016 541.61 87.9406C537.259 84.6659 526.235 92.338 526.127 100.241C526.019 108.144 533.923 111.942 535.813 112.449C536.889 112.741 537.259 112.695 537.782 111.834C539.454 108.957 540.923 105.967 542.178 102.886V102.854ZM533.799 117.538C531.055 116.269 528.494 114.635 526.189 112.68C523.866 110.74 521.922 108.389 520.454 105.745C520.326 105.529 520.199 105.67 520.063 105.821C520.035 105.853 520.006 105.885 519.977 105.914C519.803 106.088 519.114 106.777 513.212 115.416C507.277 124.103 498.236 142 506.446 145.06C511.705 147.013 520.454 137.803 525.25 131.699C528.498 127.441 531.441 122.962 534.061 118.292C534.307 117.769 534.061 117.645 533.799 117.538Z" fill="black"/>
<path d="M440.578 41.876H424.834L415.932 56.2672H431.676L440.578 41.876Z" fill="black"/>
<path fill-rule="evenodd" clip-rule="evenodd" d="M403.616 81.2522H409.336C409.336 81.2522 380.43 123.027 364.087 121.121C354.969 120.06 357.675 108.82 357.675 108.82C357.675 108.82 344.836 123.811 333.075 120.813C322.404 118.076 329.292 100.348 329.292 100.348C329.11 100.422 328.439 101.066 327.376 102.089C321.328 107.9 302.573 125.922 288.778 120.613C271.865 114.063 280.613 92.2761 283.843 85.726C286.579 80.2066 289.608 74.8253 289.608 74.8253C289.608 74.8253 287.01 75.5633 285.38 75.9323C283.751 76.3013 281.306 76.778 281.306 76.778C281.306 76.778 273.28 89.8312 268.375 96.3353C263.47 102.839 242.606 125.226 230.321 120.767C218.036 116.308 221.096 99.1185 227.984 85.4033C239.177 63.2631 265.746 36.0487 281.797 40.1386C297.849 44.2283 284.58 70.4741 284.58 70.4741C284.58 70.4741 287.794 70.8892 295.497 65.6308C298.678 63.4659 302.146 60.2533 305.848 56.8258C315.077 48.2769 325.75 38.3913 337.01 40.0924C344.452 41.2148 351.386 48.8563 341.9 63.3553C338.825 67.9679 333.766 72.1807 329.861 68.0601C327.432 65.5232 329.553 60.8338 332.106 57.6357C333.103 56.3324 334.406 55.2946 335.9 54.6136C337.393 53.9325 339.031 53.6292 340.669 53.7304C340.669 53.7304 343.284 47.7186 336.626 47.8416C331.229 47.9492 317.575 60.5108 309.873 73.2108C302.892 84.9118 292.206 104.776 302.892 109.112C312.748 113.095 331.506 90.8306 340.193 79.1611C348.88 67.4912 368.653 41.0457 385.258 39.9848C390.978 39.6158 394.376 44.828 394.376 44.828L396.297 41.7529H412.872C412.872 41.7529 381.66 94.0139 379.215 97.9347C377.294 101.009 374.741 107.974 381.814 104.085C388.887 100.194 403.616 81.2522 403.616 81.2522ZM366.024 91.6612C372.727 82.4361 391.208 50.3016 391.208 50.3016C391.129 49.6872 390.842 49.1183 390.394 48.6902C389.946 48.2621 389.366 48.0004 388.749 47.9492C386.196 47.8262 381.952 48.6872 373.373 59.2962C364.794 69.9052 358.398 78.3462 353.631 87.1254C348.373 96.704 346.082 103.47 349.095 105.299C350.075 105.795 351.203 105.909 352.262 105.622C354.231 105.13 356.798 103.162 360.32 99.1028C361.98 97.212 363.855 94.6592 366.054 91.6612H366.024ZM281.567 48.1491C277.215 44.8587 266.192 52.5464 266.084 60.4493C265.976 68.3523 276.078 70.8123 277.385 70.8738C277.676 70.9507 277.985 70.929 278.263 70.8122C278.541 70.6954 278.773 70.4901 278.923 70.2281C280.105 67.9115 281.167 65.5354 282.105 63.1093C283.643 59.1117 285.564 51.2702 281.521 48.1952L281.567 48.1491ZM274.956 75.8708C271.956 74.9326 269.088 73.6151 266.422 71.9501C263.822 70.2709 261.703 67.945 260.272 65.2003C260.138 64.9725 259.992 65.1418 259.855 65.301C259.835 65.3245 259.816 65.3477 259.796 65.3695C259.642 65.5386 258.75 66.7071 252.831 75.3942C246.911 84.0812 238.132 101.855 246.357 104.9C251.616 106.852 260.457 97.6112 265.239 91.5072C268.842 86.7434 272.173 81.7792 275.217 76.6396C275.417 76.1168 275.217 75.9938 274.924 75.9015L274.956 75.8708Z" fill="black"/>
<path d="M394.575 164.894C382.348 156.432 367.707 152.158 352.847 152.717C348.825 152.825 344.884 153.881 341.347 155.8C337.81 157.718 334.775 160.444 332.49 163.756C326.156 152.702 313.64 145.921 294.283 146.074C277.893 146.26 261.567 150.31 246.205 154.119C232.254 157.579 219.098 160.842 207.412 160.835C183.826 160.835 166.652 146.013 167.221 119.706C168.236 73.58 207.197 32.0667 236.41 13.3395C253.154 2.57679 267.16 -0.590522 276.386 0.439621C283.074 1.17763 291.115 8.91146 286.041 20.3045C278.584 36.9868 268.283 35.5876 268.667 27.6232C268.827 25.5455 269.478 23.5354 270.566 21.7581C271.654 19.9807 273.148 18.4867 274.925 17.3986C276.811 16.3719 278.928 15.8427 281.075 15.8611C282.612 14.6157 283.673 5.4981 271.68 8.49633C259.688 11.4945 245.081 23.2873 231.305 38.5089C217.529 53.7305 196.096 82.4823 190.791 112.68C188.316 126.686 189.961 152.225 223.079 151.948C235.849 151.843 251.384 147.969 268.113 143.798C288.227 138.783 310.066 133.338 330.891 133.498C344.175 133.442 357.221 137.014 368.622 143.83C378.494 149.98 390.317 158.774 394.514 164.832L394.575 164.894Z" fill="black"/>
<path d="M92.8359 105.084H126.077L124.986 97.5189H101.477V88.2942H117.314V80.6063H101.477V72.7648H124.539L125.647 65.2002H92.8516L92.8359 105.084Z" fill="black"/>
<path d="M43.6353 105.084H52.2762V87.4483H72.6331V105.069H81.3048V65.3235H72.6485V79.7302H52.2762V65.3081H43.6814L43.6353 105.084Z" fill="black"/>
<path d="M0 73.0724H13.2535V105.038H21.9252V73.0724H35.1787V65.2925H0V73.0724Z" fill="black"/>
<path d="M1014.45 65.4158H1024L1008.27 91.7997V105.161H999.6V91.9693L983.713 65.4004H993.476L1004.01 84.0049L1014.45 65.4158Z" fill="black"/>
<path d="M968.459 92.3225V65.4158L976.905 65.3696V105.115H968.188L948.892 77.7314V105.115H940.446V65.3696H949.427L968.459 92.3225Z" fill="black"/>
<path fill-rule="evenodd" clip-rule="evenodd" d="M932.857 105.13H923.736L920.426 96.2586H902.975L899.674 105.084H890.619L906.44 65.354H917.092L932.857 105.13ZM911.758 73.0262L905.807 88.7857L917.66 88.7709L911.758 73.0262Z" fill="black"/>
<path fill-rule="evenodd" clip-rule="evenodd" d="M856.127 65.3386H876.567C879.217 65.2529 881.86 65.8121 884.255 66.9684C886.248 67.9552 887.894 69.5196 888.989 71.458C890.042 73.4505 890.594 75.6699 890.594 77.9233C890.594 80.1768 890.042 82.3962 888.989 84.3883C887.886 86.3294 886.239 87.9016 884.255 88.9092C881.86 90.0708 879.226 90.6355 876.567 90.554H864.803V105.068H856.127V65.3386ZM864.861 82.8818H876.41C877.867 82.9765 879.3 82.509 880.419 81.5749C881.35 80.5841 881.86 79.279 881.86 77.9233C881.86 76.5677 881.35 75.2625 880.419 74.2717C879.283 73.3626 877.851 72.9079 876.394 72.9956H864.861V82.8818Z" fill="black"/>
<path d="M832.962 65.3389H844.602L844.61 105.099H836.222V75.8863L824.014 104.484H818.215L806.145 76.609V105.038H797.75V65.3389H809.389L821.289 93.0147L832.962 65.3389Z" fill="black"/>
<path fill-rule="evenodd" clip-rule="evenodd" d="M778.023 103.116C774.647 104.895 770.876 105.794 767.061 105.729L767.015 105.745C763.199 105.805 759.43 104.906 756.052 103.131C752.9 101.446 750.285 98.9101 748.503 95.8125C746.707 92.5477 745.766 88.8829 745.766 85.1571C745.766 81.4318 746.707 77.7667 748.503 74.5023C750.291 71.4038 752.912 68.8684 756.067 67.1836C759.464 65.4602 763.221 64.562 767.03 64.562C770.839 64.562 774.595 65.4602 777.993 67.1836C781.194 68.8498 783.859 71.3868 785.681 74.5023C787.47 77.7657 788.409 81.4276 788.409 85.1497C788.409 88.8713 787.47 92.5337 785.681 95.7968C783.867 98.9085 781.213 101.445 778.023 103.116ZM760.757 96.2586C762.676 97.3593 764.855 97.9223 767.067 97.8886C769.282 97.9371 771.466 97.3724 773.38 96.2586C775.224 95.1943 776.732 93.6335 777.731 91.7533C778.762 89.7077 779.3 87.4489 779.3 85.1571C779.3 82.8662 778.762 80.6072 777.731 78.5614C776.741 76.6665 775.232 75.093 773.38 74.0257C771.449 72.9623 769.28 72.4048 767.076 72.4048C764.872 72.4048 762.703 72.9623 760.772 74.0257C758.927 75.0639 757.409 76.5978 756.391 78.4538C755.322 80.4848 754.793 82.7558 754.853 85.0501C754.802 87.3427 755.33 89.6114 756.391 91.6455C757.383 93.5635 758.896 95.1622 760.757 96.2586Z" fill="black"/>
<path d="M734.373 104.207C731.46 105.259 728.382 105.779 725.286 105.745L725.333 105.791C721.315 105.862 717.343 104.938 713.77 103.1C710.478 101.408 707.716 98.8402 705.788 95.68C703.86 92.5206 702.839 88.8903 702.839 85.1884C702.839 81.4863 703.86 77.8561 705.788 74.6961C707.716 71.5362 710.478 68.9688 713.77 67.276C717.3 65.4576 721.224 64.5387 725.194 64.6007C728.292 64.5453 731.373 65.0666 734.281 66.1381C736.912 67.0995 739.255 68.7131 741.092 70.8276L735.695 76.824C734.32 75.3867 732.681 74.2278 730.868 73.4107C729.144 72.6882 727.293 72.322 725.425 72.3345C723.027 72.3026 720.661 72.8849 718.552 74.0257C716.557 75.1008 714.889 76.6943 713.724 78.6383C712.506 80.5988 711.872 82.8654 711.894 85.1728C711.863 87.4473 712.462 89.6863 713.627 91.6406C714.791 93.5949 716.474 95.1886 718.49 96.2431C720.635 97.3931 723.037 97.9759 725.471 97.9347C727.414 97.9668 729.344 97.5972 731.138 96.8481C732.931 96.0998 734.551 94.9877 735.895 93.5833L741.307 99.4873C739.44 101.63 737.052 103.255 734.373 104.207Z" fill="black"/>
</g>
<defs>
<clipPath id="clip0_795_3973">
<rect width="1024" height="164.638" fill="white" transform="translate(0 0.255859)"/>
</clipPath>
</defs>
</svg>
