<svg width="1024" height="249" viewBox="0 0 1024 249" fill="none" xmlns="http://www.w3.org/2000/svg">
<g clip-path="url(#clip0_29_535)">
<path fill-rule="evenodd" clip-rule="evenodd" d="M685.706 137.684C680.412 132.487 672.409 128.584 664.292 128.584C658.673 128.584 651.643 131.822 651.643 138.17C651.643 155.087 709.218 141.959 709.218 181.064C709.218 208.185 682.158 216.059 658.713 216.059C642.661 216.059 626.365 212.193 614.864 200.79L634.641 181.013C641.189 187.459 650.191 191.94 660.341 191.94C667.999 191.94 675.931 189.147 675.931 183.471C675.931 165.099 618.389 179.865 618.389 140.341C618.389 115.391 641.368 104.468 664.352 104.468C678.774 104.468 694.786 107.973 704.923 118.457L685.706 137.684Z" fill="#231F20"/>
<path fill-rule="evenodd" clip-rule="evenodd" d="M268.474 213.419H302.294V48.0239H268.474V213.419Z" fill="#231F20"/>
<path fill-rule="evenodd" clip-rule="evenodd" d="M382.343 133.351C365.42 133.351 355.31 144.298 355.31 160.273C355.31 176.238 365.42 187.171 382.343 187.171C399.243 187.171 409.397 176.238 409.397 160.273C409.397 144.298 399.243 133.351 382.343 133.351ZM440.499 213.421H409.397V199.439H408.934C403.758 207.087 390.687 216.058 375.354 216.058C342.904 216.058 321.493 193.32 321.493 161.154C321.493 131.591 340.405 104.467 371.528 104.467C385.507 104.467 398.582 108.184 406.213 118.456H406.679V107.087H440.499V213.421Z" fill="#231F20"/>
<path fill-rule="evenodd" clip-rule="evenodd" d="M467.106 107.086H500.947V124.152H501.372C508.585 111.243 518.05 104.469 532.924 104.469C536.766 104.469 541.061 104.679 544.202 105.557V135.548C539.464 134.221 534.73 133.35 529.777 133.35C504.094 133.35 500.947 147.785 500.947 169.017V213.42H467.106V107.086Z" fill="#231F20"/>
<path fill-rule="evenodd" clip-rule="evenodd" d="M596.33 107.085V213.419H562.523V107.085H596.33ZM596.33 48.0239V81.2434H562.523V48.0239H596.33Z" fill="#231F20"/>
<path fill-rule="evenodd" clip-rule="evenodd" d="M188.865 187.173C205.765 187.173 215.899 176.239 215.899 160.271C215.899 144.299 205.765 133.352 188.865 133.352C171.962 133.352 161.811 144.299 161.811 160.271C161.811 176.239 171.962 187.173 188.865 187.173ZM188.865 104.468C222.669 104.468 249.716 126.366 249.716 160.271C249.716 194.176 222.669 216.06 188.865 216.06C155.065 216.06 128.014 194.176 128.014 160.271C128.014 126.366 155.065 104.468 188.865 104.468Z" fill="#231F20"/>
<path fill-rule="evenodd" clip-rule="evenodd" d="M0 107.086H36.5388L64.2577 179.296H64.7L90.3829 107.086H124.426L81.1579 213.421H45.3248L0 107.086Z" fill="#231F20"/>
<path fill-rule="evenodd" clip-rule="evenodd" d="M882.235 36.1957H917.676V0.750977H882.235V36.1957Z" fill="#EEEFEF"/>
<path fill-rule="evenodd" clip-rule="evenodd" d="M882.235 71.6372H917.676V36.1958H882.235V71.6372Z" fill="#B5D5F0"/>
<path fill-rule="evenodd" clip-rule="evenodd" d="M882.235 107.079H917.676V71.6372H882.235V107.079Z" fill="#6CADDE"/>
<path fill-rule="evenodd" clip-rule="evenodd" d="M846.793 107.079H882.235V71.6372H846.793V107.079Z" fill="#B5D5F0"/>
<path fill-rule="evenodd" clip-rule="evenodd" d="M846.793 177.968H882.235V142.526H846.793V177.968Z" fill="#D6A6CC"/>
<path fill-rule="evenodd" clip-rule="evenodd" d="M917.676 107.079H953.117V71.6372H917.676V107.079Z" fill="#B5D5F0"/>
<path fill-rule="evenodd" clip-rule="evenodd" d="M917.676 177.968H953.117V142.526H917.676V177.968Z" fill="#DAE7A2"/>
<path fill-rule="evenodd" clip-rule="evenodd" d="M882.235 142.523H917.676V107.075H882.235V142.523Z" fill="#231F20"/>
<path fill-rule="evenodd" clip-rule="evenodd" d="M882.235 177.968H917.676V142.526H882.235V177.968Z" fill="#91268F"/>
<path fill-rule="evenodd" clip-rule="evenodd" d="M882.235 213.409H917.676V177.968H882.235V213.409Z" fill="#D6A6CC"/>
<path fill-rule="evenodd" clip-rule="evenodd" d="M882.235 248.851H917.676V213.409H882.235V248.851Z" fill="#EEEFEF"/>
<path fill-rule="evenodd" clip-rule="evenodd" d="M775.907 142.523H811.349V107.075H775.907V142.523Z" fill="#EEEFEF"/>
<path fill-rule="evenodd" clip-rule="evenodd" d="M811.349 142.523H846.793V107.075H811.349V142.523Z" fill="#D6A6CC"/>
<path fill-rule="evenodd" clip-rule="evenodd" d="M846.793 142.523H882.235V107.075H846.793V142.523Z" fill="#91268F"/>
<path fill-rule="evenodd" clip-rule="evenodd" d="M917.676 142.523H953.117V107.075H917.676V142.523Z" fill="#8DC63F"/>
<path fill-rule="evenodd" clip-rule="evenodd" d="M953.117 142.523H988.559V107.075H953.117V142.523Z" fill="#DAE7A2"/>
<path fill-rule="evenodd" clip-rule="evenodd" d="M988.559 142.523H1024V107.075H988.559V142.523Z" fill="#EEEFEF"/>
</g>
<defs>
<clipPath id="clip0_29_535">
<rect width="1024" height="248.1" fill="white" transform="translate(0 0.750977)"/>
</clipPath>
</defs>
</svg>
