<svg width="1025" height="147" viewBox="0 0 1025 147" fill="none" xmlns="http://www.w3.org/2000/svg">
<g clip-path="url(#clip0_2_14822)">
<path d="M175.957 35.7075L140.396 116.924L130.224 46.3524C128.962 36.7325 145.285 30.8187 145.285 30.8187C143.786 27.507 138.661 27.5858 138.661 27.5858H127.622C125.887 10.2386 141.657 -2.45641 158.61 1.40729C175.327 5.11329 181.398 23.3279 175.957 35.6286" fill="#6E55DC"/>
<path d="M109.957 143.26L40.6476 97.0531C22.9849 85.3045 5.55887 97.2897 1.85288 109.669C-3.58784 127.963 8.63408 143.26 27.7948 143.26H109.957Z" fill="#FCCC12"/>
<path d="M119.026 28.7687C121.628 10.8696 105.543 -2.45626 88.1161 1.4863C71.4 5.19229 65.3285 23.4069 70.7691 35.7076L106.331 116.924L119.026 28.6899V28.7687Z" fill="#EF1541"/>
<path d="M103.493 130.249L69.3502 52.5024C61.3866 34.4456 40.1755 32.2377 28.5056 42.8037C20.3051 50.2946 13.9182 70.5592 32.2905 82.8603L103.493 130.328V130.249Z" fill="#FF7112"/>
<path d="M219.01 143.26C238.171 143.26 250.393 128.042 244.952 109.67C241.246 97.2903 223.82 85.2257 206.157 97.0537L136.847 143.26H219.01Z" fill="#05AC3F"/>
<path d="M214.436 82.8603C232.808 70.5592 226.421 50.2946 218.221 42.8037C206.551 32.2377 185.34 34.4456 177.376 52.5024L143.233 130.328L214.436 82.8603Z" fill="#069DE0"/>
<path d="M382.547 4.48242L342.175 79.5484L301.725 4.48242H269.238V143.26H299.753V64.3305L332.713 122.917H351.637L384.597 64.3305V143.26H415.113V4.48242H382.547Z" fill="black"/>
<path d="M1005.47 98.2365L1004.68 97.2902L1003.66 96.1073C989.939 107.777 981.183 114.401 961.392 114.401H960.526C933.321 114.401 916.448 93.2685 916.448 73.7135C916.448 51.241 936.316 33.0264 960.685 33.0264C980.317 33.1841 990.727 43.7501 995.694 48.7966L996.483 49.5852L997.031 49.0332L997.113 48.9544L997.584 48.4812L998.454 47.6138L1019.43 26.6395C1016.9 24.1162 997.348 0.776367 960.92 0.776367C919.049 0.776367 884.276 32.6322 884.04 73.5557C884.04 113.297 917.472 146.729 960.526 146.887C992.934 146.887 1009.34 133.64 1024.55 120.551L1005.39 98.2365H1005.47Z" fill="black"/>
<path d="M871.264 99.5772C871.264 137.347 841.063 143.26 822.142 143.26H741.478V4.40381H822.06C846.741 4.40381 866.532 18.4393 866.532 44.7755C866.532 57.786 857.387 64.9615 850.372 68.5096C861.801 74.2656 871.264 82.7816 871.264 99.5772ZM770.89 30.5035V56.7609H818.435C826.32 56.7609 834.913 53.5278 834.913 43.7505C834.913 33.9729 828.21 30.5035 817.329 30.5035H770.89ZM839.88 99.5772C839.88 86.2514 828.763 82.7816 817.964 82.7816H770.89V115.899H819.065C827.898 115.899 839.88 112.824 839.88 99.4983V99.5772Z" fill="black"/>
<path d="M585.586 4.40381H618.153L685.177 94.2149V4.40381H715.69V143.26H683.128L616.105 53.2912V143.26H585.586V4.40381Z" fill="black"/>
<path d="M538.278 64.9608C514.938 55.0259 473.462 62.5956 473.699 43.5924C473.778 36.2593 484.501 29.9513 501.691 29.7935C521.011 29.6358 545.452 39.8865 545.452 39.8865L560.987 15.2061C560.987 15.2061 529.368 0.776367 502.243 0.776367C460.767 0.776367 441.291 19.0698 441.291 41.7789C441.291 64.4882 454.38 74.4232 461.477 77.8929C484.501 89.0895 510.364 86.0141 524.242 93.0319C539.46 100.602 533.469 118.816 502.243 116.293C479.297 114.401 465.735 109.827 449.255 100.05L432.223 123.863C464.315 143.654 495.304 146.808 502.243 146.887C526.449 147.045 565.796 140.579 565.243 100.68C565.007 84.4375 557.121 72.9249 538.278 64.9608Z" fill="black"/>
</g>
<defs>
<clipPath id="clip0_2_14822">
<rect width="1024" height="146.179" fill="white" transform="translate(0.553711 0.710938)"/>
</clipPath>
</defs>
</svg>
