<svg width="526" height="513" viewBox="0 0 526 513" fill="none" xmlns="http://www.w3.org/2000/svg">
<g clip-path="url(#clip0_820_404)">
<path d="M93.1197 0.0507812H432.265C483.684 0.0507812 525.256 41.6234 525.256 93.0422V419.059C525.256 470.478 483.684 512.051 432.265 512.051H93.1197C41.7009 512.051 0.128235 470.478 0.128235 419.059V93.0422C0.128235 41.6234 41.7009 0.0507812 93.1197 0.0507812Z" fill="#000B1D"/>
<path d="M124.847 357.794V133.958C124.847 132.426 125.503 131.551 127.035 131.551C130.755 131.551 135.349 131.551 140.382 131.332C145.633 131.113 151.103 131.113 157.011 130.895C162.919 130.676 169.264 130.676 176.047 130.457C182.83 130.238 189.394 130.238 195.958 130.238C213.9 130.238 228.779 132.426 241.032 137.021C251.972 140.741 262.037 146.867 270.351 154.963C277.353 161.965 282.823 170.498 286.324 179.907C289.606 189.096 291.356 198.505 291.356 208.351C291.356 227.168 286.98 242.703 278.228 254.956C269.476 267.209 257.223 276.399 243.001 281.65C227.247 287.339 210.399 290.184 193.77 289.965C188.519 289.965 185.018 289.965 182.83 289.746C180.642 289.527 176.703 290.184 172.546 290.184V358.45C172.765 359.982 171.671 361.295 170.139 361.514C169.92 361.514 169.702 361.514 169.264 361.514L127.254 360.857C125.722 360.638 124.847 359.763 124.847 357.794ZM172.546 174.437V247.298C175.609 247.517 179.329 247.079 181.955 247.079H193.551C202.085 247.298 210.618 245.985 218.714 243.578C225.715 241.609 231.842 237.452 236.655 231.982C241.25 226.512 243.438 219.072 243.438 209.445C243.657 202.662 241.907 195.879 238.406 189.972C234.686 184.283 229.435 179.907 223.09 177.5C214.994 174.218 206.242 172.905 197.271 173.124C191.582 173.124 186.549 173.124 182.392 173.343C179.11 173.343 175.828 173.78 172.546 174.437Z" fill="white"/>
<path d="M337.086 227.392H315.424C313.674 227.173 313.017 226.298 313.017 224.985V188.883C312.799 187.789 313.674 186.695 314.768 186.476C314.987 186.476 315.205 186.476 315.424 186.476H337.086V181.444C337.086 174.004 337.523 166.784 338.836 159.344C339.93 153.218 341.899 147.31 344.525 141.621C349.12 132.213 355.903 124.117 364.655 117.991C373.407 111.864 384.785 108.801 399.226 108.801C402.727 108.801 406.009 109.02 409.51 109.238C412.354 109.457 414.98 110.114 417.605 111.208C419.137 111.645 420.012 113.177 420.012 114.708V149.498C420.012 151.249 419.137 151.686 417.168 151.249C415.417 151.03 413.667 150.811 411.917 150.811H406.665C402.727 150.811 399.007 151.467 395.506 153.218C392.224 154.968 389.599 158.032 388.505 161.532C386.317 166.565 385.223 171.816 385.004 177.286V186.257H414.761C416.074 186.257 416.949 186.476 417.387 186.914C417.824 187.57 418.043 188.226 417.824 189.102V224.985C417.824 226.736 416.73 227.392 414.761 227.392H385.004V357.58C385.004 358.237 384.785 359.112 384.566 359.768C384.129 360.425 383.253 360.862 381.94 360.862H340.149C338.18 360.862 337.305 359.768 337.305 357.799V227.392H337.086Z" fill="white"/>
</g>
<defs>
<clipPath id="clip0_820_404">
<rect width="525.128" height="512" fill="white" transform="translate(0.128235 0.0507812)"/>
</clipPath>
</defs>
</svg>
