<svg width="1024" height="362" viewBox="0 0 1024 362" fill="none" xmlns="http://www.w3.org/2000/svg">
<g clip-path="url(#clip0_806_427)">
<path d="M435.814 305.724C433.562 299.171 429.058 294.464 421.761 294.464C411.897 294.464 405.884 303.697 405.884 321.826C405.884 339.955 411.041 349.188 422.189 349.188C428.945 349.188 432.931 346.824 437.323 337.726L451.06 341.351C446.556 354.864 436.354 361.62 422.189 361.62C402.461 361.62 391.088 347.117 391.088 321.804C391.088 296.491 402.461 281.988 422.189 281.988C437.007 281.988 445.587 288.744 449.213 302.391L435.814 305.724ZM464.437 360.651V304.868H476.666V314.417H476.868C480.089 307.661 484.593 304.013 492.632 303.787V317.84C491.846 317.776 491.055 317.776 490.268 317.84C483.512 317.84 477.814 325.474 477.814 326.848V360.741L464.437 360.651ZM514.95 334.888C515.175 346.486 520.31 350.99 526.548 350.99C532.786 350.99 535.669 348.22 538.979 344.347L548.641 350.359C543.483 358.287 535.984 361.732 525.242 361.732C510.761 361.732 501.641 350.472 501.641 332.749C501.641 315.025 510.761 303.787 525.895 303.787C540.488 303.675 548.641 316.016 548.641 329.438V334.888H514.95ZM536.412 325.88C536.209 318.155 532.111 313.651 525.67 313.651C519.229 313.651 515.175 318.155 514.95 325.88H536.412ZM609.851 360.651H598.591L597.96 354.638C593.231 359.255 588.839 361.732 582.826 361.732C568.008 361.732 560.509 348.648 560.509 331.262C560.509 317.525 568.458 303.787 582.826 303.787C585.378 303.878 587.886 304.474 590.205 305.541C592.525 306.608 594.609 308.125 596.339 310.003H596.564V283.181H609.873L609.851 360.651ZM596.541 319.236C593.843 316.388 590.147 314.693 586.227 314.507C578.3 314.507 573.796 320.948 573.796 332.749C573.796 344.549 578.3 350.99 586.227 350.99C591.925 350.99 593.749 348.22 596.541 346.058V319.236ZM627.687 294.554V282.1H640.997V294.554H627.687ZM640.997 360.651H627.687V304.868H640.997V360.651ZM662.751 304.868V286.402H676.038V304.868H686.983V315.588H676.038V347.117C676.038 350.112 677.547 350.968 680.88 350.968C682.946 350.831 684.992 350.477 686.983 349.909V360.854C683.498 361.351 679.986 361.637 676.466 361.71C666.602 361.71 662.751 356.778 662.751 348.828V315.588H655.004V304.868H662.751ZM777.357 283.181H792.153V331.69C792.153 354.323 778.213 361.732 762.449 361.732C746.684 361.732 732.722 354.323 732.722 331.69V283.181H747.518V332.343C747.518 344.887 752.472 349.278 762.449 349.278C772.425 349.278 777.357 344.887 777.357 332.343V283.181ZM810.012 360.651V304.868H822.24V310.859C827.172 307.436 832.847 303.787 839.401 303.787C850.661 303.787 855.931 311.084 855.931 322.457V360.741H842.621V324.484C842.621 316.962 840.256 314.597 835.752 314.597C833.38 314.658 831.047 315.215 828.902 316.231C826.757 317.247 824.849 318.7 823.299 320.497V360.741L810.012 360.651ZM873.789 294.554V282.1H887.076V294.554H873.789ZM887.076 360.651H873.789V304.868H887.076V360.651ZM925.901 303.787C941.035 303.787 950.156 315.048 950.156 332.749C950.156 350.45 941.035 361.732 925.901 361.732C910.768 361.732 901.647 350.472 901.647 332.749C901.647 315.025 910.768 303.787 925.901 303.787ZM925.901 314.507C918.492 314.507 914.956 320.317 914.956 332.749C914.956 345.18 918.492 350.99 925.901 350.99C933.311 350.99 936.846 345.202 936.846 332.749C936.846 320.295 933.311 314.507 925.901 314.507ZM963.375 360.651V304.868H975.604V310.859C980.536 307.436 986.233 303.787 992.787 303.787C1004.05 303.787 1009.29 311.084 1009.29 322.457V360.741H995.985V324.484C995.985 316.962 993.733 314.597 989.229 314.597C986.856 314.656 984.521 315.211 982.376 316.227C980.231 317.243 978.323 318.698 976.775 320.497V360.741L963.375 360.651ZM999.092 203.662C997.403 203.009 996.998 202.761 996.998 195.51V32.8001C996.998 2.37513 976.797 0.84375 972.879 0.84375C966.576 1.16206 960.457 3.06771 955.088 6.38375L890.454 40.93C884.757 44.1504 872.933 50.8614 872.933 65.4996C872.933 80.1379 885.162 91.2404 902.052 91.353C904.484 91.353 911.849 91.4656 912.817 92.8393C913.785 94.2131 913.267 171.098 913.267 171.098C913.267 176.525 913.267 181.434 912.997 186.209C912.918 189.521 911.64 192.691 909.399 195.131C907.158 197.571 904.107 199.114 900.814 199.473C900.814 199.473 877.347 203.977 874.082 203.977C870.551 203.932 867.174 202.525 864.656 200.049C862.138 197.573 860.674 194.22 860.57 190.69C860.57 190.69 860.457 164.769 860.164 155.243C859.769 140.431 853.511 126.381 842.765 116.18C832.019 105.978 817.663 100.459 802.85 100.834C793.984 100.893 785.263 103.087 777.425 107.23C775.418 104.898 772.924 103.036 770.118 101.775C767.312 100.514 764.263 99.8853 761.188 99.9333C756.683 99.9333 754.251 100.857 749.117 103.582C743.982 106.307 712.273 123.422 712.273 123.422C710.144 124.499 708.167 125.854 706.396 127.453C697.878 116.763 686.78 108.417 674.146 103.199C664.61 99.2763 654.393 97.2787 644.082 97.3209C631.165 97.3159 618.428 100.348 606.899 106.173C595.371 111.998 585.373 120.453 577.714 130.854V61.6487C577.714 47.3032 568.053 36.8763 555.194 36.8763C551.533 37.1524 547.968 38.1797 544.722 39.894L510.446 55.8835C499.952 60.7929 494.682 68.1796 494.682 77.8408C494.473 82.4637 495.96 87.0037 498.863 90.6075C501.765 94.2113 505.885 96.6307 510.446 97.411V101.51C504.431 99.9941 498.25 99.2375 492.047 99.2576C489.27 99.2636 486.495 99.429 483.737 99.7531C472.565 101.213 461.857 105.139 452.388 111.246C442.92 117.353 434.928 125.489 428.99 135.065C428.855 112.387 428.99 71.5801 428.99 67.6841C428.99 63.7881 429.238 46.56 416.379 40.6597C413.205 39.2577 409.745 38.6267 406.281 38.8185C402.817 39.0103 399.447 40.0194 396.448 41.7632C392.575 43.9026 372.982 55.0953 362.105 61.2433C351.227 67.3914 345.485 74.2375 345.485 84.2141C345.485 91.2179 348.435 100.249 361.857 104.28V131.462C354.063 120.417 343.703 111.431 331.667 105.276C319.632 99.1208 306.282 95.9813 292.764 96.1273C274.517 96.0569 256.73 101.852 242.026 112.657C239.446 114.319 236.448 115.217 233.378 115.247C230.328 115.229 227.347 114.342 224.782 112.691C222.218 111.04 220.177 108.693 218.898 105.924L196.377 50.8614C192.121 38.25 182.865 30.7282 171.763 30.7282C168.513 30.8285 165.318 31.589 162.372 32.9634C159.425 34.3378 156.79 36.2974 154.625 38.723C154.625 38.723 130.686 36.0205 121.362 36.0205C91.6338 36.2355 62.8501 46.4887 39.6808 65.1168C14.0977 85.8806 0 114.414 0 145.424C0 182.02 18.0163 214.787 48.126 233.096C78.8662 251.878 116.205 254.243 145.279 254.243H991.571C1015.49 254.243 1024 240.415 1024 227.556C1024 209.878 1007.76 205.486 999.092 203.662Z" fill="#231F20"/>
<path d="M199.485 142.339H156.696C149.4 142.339 141.54 141.888 141.54 151.099C141.54 164.612 156.696 152.901 156.696 173.62C156.696 178.642 156.989 186.231 156.989 190.42C156.989 203.549 154.535 212.49 135.325 212.49C95.7339 212.535 69.2049 182.56 69.2049 142.046C69.2049 106.869 88.9553 75.5886 125.506 75.5886C159.669 75.5886 185.14 108.941 193.81 108.941C194.676 108.951 195.534 108.779 196.329 108.436C197.124 108.093 197.838 107.586 198.424 106.949C199.01 106.312 199.456 105.558 199.732 104.737C200.008 103.917 200.108 103.047 200.026 102.185C199.706 99.5851 199.086 97.0308 198.179 94.5732L182.415 56.0184C180.816 50.9964 177.55 45.7041 171.875 45.7041C166.2 45.7041 163.745 53.8114 158.588 53.8114C146.405 53.8114 133.658 50.9964 121.475 50.9964C70.5562 50.9964 15.021 88.155 15.021 145.402C15.021 176.119 30.1772 204.63 55.9179 220.259C82.4694 236.451 114.966 239.266 145.301 239.266H192.459C194.241 239.265 195.968 238.648 197.347 237.52C198.726 236.391 199.672 234.82 200.026 233.073C200.138 231.897 200.138 230.714 200.026 229.538V173.237C200.026 166.256 200.026 160.107 207.345 158.441C212.502 157.045 215.204 155.266 215.204 149.951C214.664 141.055 206.534 142.339 199.485 142.339ZM415.478 216.679C413.811 206.071 413.811 63.7879 413.811 63.7879L413.001 58.4506C412.235 56.1986 410.748 53.8114 408.001 53.8114C406.222 54.2403 404.475 54.7972 402.776 55.4779L369.897 74.1923C365.753 76.1291 360.506 78.9216 360.506 84.2364C360.506 92.8842 373.77 87.8171 375.684 95.9019C376.718 99.632 377.189 103.496 377.081 107.365V198.55C377.081 235.415 359.943 219.313 359.943 233.006C360.506 240.01 367.397 239.266 373.207 239.266H417.392C422.932 239.266 430.679 239.717 430.679 232.51C430.679 224.358 417.685 225.349 415.478 216.679Z" fill="#FFCE34"/>
<path d="M361.091 174.499C361.012 172.034 360.794 169.575 360.438 167.134C356.722 141.619 337.558 121.013 312.402 113.829C305.382 111.837 298.1 110.925 290.805 111.126C252.971 112.14 223.087 142.159 224.033 178.169C224.333 189.172 227.533 199.901 233.311 209.27C239.199 218.663 247.271 226.494 256.839 232.093C266.407 237.693 277.187 240.896 288.261 241.429C290.242 241.429 292.224 241.587 294.251 241.429C332.153 240.528 362.06 210.509 361.091 174.499ZM314.204 208.594C308.394 220.35 296.976 227.804 284.365 221.566C258.128 208.549 260.786 162.202 272.924 138.871C278.217 128.715 290.265 121.305 301.165 126.71C324.428 138.218 324.293 188.326 314.204 208.594ZM571.184 225.169C562.333 220.665 563.166 201.545 562.896 193.168C562.626 184.79 562.648 94.236 562.648 94.236C562.648 82.2327 562.333 73.6299 562.333 61.604C562.333 56.8748 560.419 51.8302 555.172 51.8302C553.282 52.4505 551.438 53.203 549.654 54.0823L516.774 69.4411C513.194 71.1076 509.591 73.3371 509.591 77.7962C509.591 88.4258 523.958 75.5441 525.355 96.7358V123.467C515.165 117.641 503.691 114.43 491.957 114.121C489.76 114.123 487.564 114.251 485.381 114.504C453.132 118.31 430.139 149.771 430.139 181.728C430.139 216.071 449.191 241.474 484.188 241.474C501.618 241.474 513.757 233.659 525.648 222.219V230.056C525.648 235.348 526.188 240.641 531.165 240.934H570.936C576.161 240.934 579.223 238.321 579.223 233.299C578.638 228.525 574.787 226.858 571.184 225.169ZM525.332 181.187C525.332 195.442 517.833 212.107 503.51 214.134C489.187 216.161 482.161 211.702 476.193 204.293C468.063 194.226 466.532 178.552 467.185 166.008C467.815 149.478 477.004 131.462 495.223 131.462C519.995 131.462 525.332 157.451 525.332 177.561V181.187ZM704.999 156.55C702.233 147.668 697.517 139.517 691.198 132.691C684.878 125.865 677.114 120.536 668.471 117.094C637.101 104.01 596.992 118.445 583.547 150.672C568.706 186.254 584.718 221.071 619.129 235.416C638.002 243.387 658.953 245.015 678.831 240.055C684.799 238.006 695.113 234.74 697.906 228.052C698.508 226.393 698.438 224.564 697.71 222.957C696.982 221.349 695.654 220.09 694.01 219.449C689.303 217.805 668.111 231.34 647.212 222.625C631.448 216.026 622.935 201.906 622.823 184.925L687.952 184.475C692.929 184.745 705.225 184.362 706.418 181.547C708.558 176.368 705.698 159.86 704.999 156.55ZM668.314 162.991C668.201 163.238 667.526 164.162 667.413 164.432C665.296 166.684 660.95 166.256 658.405 166.436L630.57 166.234C629.055 166.376 627.527 166.231 626.066 165.806C619.715 163.148 626.246 143.285 627.957 139.051C632.146 129.007 643.249 121.823 653.946 126.282C664.643 130.741 672.818 152.068 668.314 162.991ZM915.227 239.267C907.029 239.267 897.211 239.425 897.211 229.268C897.211 213.661 922.524 219.269 925.947 204.676C928.672 193.844 928.672 181.975 928.672 171.143V99.9337C928.672 78.2241 923.897 77.0305 902.683 76.3549C895.927 76.3549 888.315 73.3146 888.315 65.5001C888.315 58.744 895.071 55.8388 900.296 52.7986L962.43 19.6036C965.613 17.5053 969.263 16.2215 973.059 15.8652C980.896 15.8652 982.27 25.7066 982.27 32.8231V195.533C982.27 206.05 983.644 213.842 994.589 217.895C1001.07 219.945 1008.62 219.764 1009.29 227.579C1009.29 237.398 1000.76 239.267 991.841 239.267H915.227ZM802.873 115.811C831.181 115.811 844.671 137.678 845.234 155.694C845.797 173.71 845.459 202.604 845.909 211.432C846.36 220.26 850.188 221.498 857.687 226.025C858.938 226.653 859.987 227.619 860.715 228.813C861.444 230.007 861.823 231.382 861.809 232.781C861.809 239.199 856.021 239.335 850.774 239.335H801.589C797.198 239.335 791.68 238.929 791.68 233.344C791.68 224.133 806.296 225.98 806.296 215.08C806.296 212.558 806.296 175.985 806.476 166.706C806.724 154.41 799.022 140.448 786.591 140.448C772.245 140.448 767.899 158.059 767.899 168.936V190.218C767.753 199.255 768.31 208.291 769.565 217.242C771.48 225.079 783.641 224.899 783.641 233.277C783.641 239.717 776.186 239.267 771.209 239.267H727.407C722.723 239.267 715.269 239.717 715.269 233.277C715.269 222.962 731.281 231.948 731.281 199.248C731.281 190.601 731.011 175.129 731.011 166.481C731.011 143.556 714.413 152.496 714.413 142.722C714.413 139.907 717.206 137.858 719.413 136.754L758.801 115.811C759.586 115.328 760.472 115.035 761.39 114.955C766.593 114.955 768.011 119.459 768.011 123.963V134.187C775.984 124.233 788.527 115.811 802.873 115.811Z" fill="#FFCE34"/>
</g>
<defs>
<clipPath id="clip0_806_427">
<rect width="1024" height="360.888" fill="white" transform="translate(0 0.84375)"/>
</clipPath>
</defs>
</svg>
