<svg width="1024" height="294" viewBox="0 0 1024 294" fill="none" xmlns="http://www.w3.org/2000/svg">
<g clip-path="url(#clip0_829_283)">
<path d="M98.7768 200.731C92.4453 188.019 133.967 112.734 146.867 112.734C159.787 112.743 201.219 188.158 194.957 200.731C188.695 213.3 105.104 213.439 98.7727 200.731H98.7768Z" fill="url(#paint0_linear_829_283)"/>
<path fill-rule="evenodd" clip-rule="evenodd" d="M1.96443 265.343C-17.1076 227.036 108.021 0.191406 146.871 0.191406C185.762 0.191406 310.678 227.477 291.806 265.343C272.934 303.21 21.0528 303.655 1.97259 265.343M51.9678 232.103C64.4717 257.201 229.503 256.923 241.864 232.103C254.225 207.275 172.376 58.3661 146.912 58.3661C121.447 58.3661 39.4557 207.001 51.9555 232.103H51.9678Z" fill="url(#paint1_linear_829_283)"/>
<path d="M582.325 58.3379C581.182 58.3379 580.619 58.3379 580.183 58.5623C579.796 58.7556 579.48 59.067 579.281 59.4516C579.061 59.8881 579.065 60.4633 579.065 61.6056V225.38C579.065 226.522 579.065 227.094 579.281 227.53C579.477 227.914 579.799 228.224 580.179 228.424C580.619 228.644 581.182 228.648 582.325 228.648H605.272C606.415 228.648 606.986 228.644 607.422 228.424C607.809 228.228 608.123 227.916 608.32 227.53C608.536 227.094 608.54 226.522 608.54 225.38V61.6056C608.54 60.4633 608.54 59.8922 608.316 59.4516C608.119 59.0683 607.806 58.7569 607.422 58.5623C606.986 58.3379 606.415 58.3379 605.272 58.3379H582.325ZM629.733 58.3379C628.591 58.3379 628.02 58.3379 627.583 58.5623C627.198 58.7563 626.883 59.0676 626.686 59.4516C626.47 59.8881 626.466 60.4633 626.466 61.6056V225.38C626.466 226.522 626.466 227.094 626.69 227.53C626.886 227.914 627.196 228.224 627.583 228.424C628.02 228.644 628.591 228.648 629.733 228.648H652.673C653.815 228.648 654.386 228.644 654.823 228.424C655.209 228.228 655.524 227.916 655.72 227.53C655.941 227.094 655.941 226.522 655.941 225.38V61.6056C655.941 60.4633 655.941 59.8922 655.716 59.4516C655.52 59.0683 655.207 58.7569 654.823 58.5623C654.386 58.3379 653.815 58.3379 652.673 58.3379H629.733ZM848.778 58.3379C834.679 58.3379 823.429 62.1632 815.028 69.8137C806.629 77.4616 802.43 88.2589 802.43 102.206V106.257H760.957C759.733 106.257 759.117 106.257 758.591 106.456C758.127 106.636 757.714 106.926 757.387 107.301C757.016 107.725 756.804 108.296 756.376 109.443L726.064 190.618L695.533 109.426C695.105 108.284 694.892 107.713 694.521 107.293C694.19 106.921 693.775 106.634 693.31 106.456C692.779 106.252 692.167 106.257 690.952 106.257H667.421C665.813 106.257 665.014 106.261 664.496 106.599C664.051 106.894 663.739 107.351 663.627 107.872C663.504 108.476 663.79 109.222 664.385 110.72L710.99 228.644L708.29 235.171C705.883 240.268 703.107 244.392 699.963 247.544C696.964 250.694 692.09 252.269 685.342 252.269C682.938 252.269 680.388 252.043 677.693 251.591C676.698 251.481 675.706 251.342 674.719 251.175C673.132 250.91 672.336 250.78 671.827 250.971C671.375 251.125 670.996 251.443 670.766 251.861C670.497 252.334 670.497 253.085 670.497 254.57V272.226C670.497 273.217 670.497 273.715 670.68 274.184C670.853 274.602 671.118 274.976 671.455 275.277C671.839 275.608 672.239 275.747 673.046 276.028C674.996 276.694 677.004 277.173 679.043 277.46C682.195 278.058 685.421 278.359 688.72 278.362C700.265 278.362 709.863 275.063 717.514 268.465C725.311 262.019 731.535 252.87 736.186 241.017L779.095 132.582H802.43V225.376C802.43 226.518 802.43 227.09 802.654 227.526C802.85 227.911 803.163 228.224 803.548 228.419C803.984 228.64 804.547 228.644 805.69 228.644H828.637C829.779 228.644 830.355 228.64 830.787 228.419C831.173 228.224 831.488 227.912 831.685 227.526C831.905 227.09 831.905 226.518 831.905 225.376V132.582H855.864C857.007 132.582 857.569 132.582 858.006 132.358C858.392 132.163 858.707 131.85 858.904 131.464C859.12 131.032 859.124 130.457 859.124 129.314V109.52C859.124 108.378 859.124 107.807 858.899 107.37C858.704 106.985 858.391 106.673 858.006 106.477C857.569 106.257 857.007 106.257 855.864 106.257H831.905V102.21C831.905 96.0604 833.703 91.5592 837.298 88.7062C841.051 85.7091 846.151 84.2092 852.597 84.2065C853.834 84.2065 855.112 84.2677 856.431 84.3901C857.839 84.5206 858.545 84.5818 859.018 84.3737C859.439 84.1978 859.785 83.8803 859.997 83.4762C860.25 83.0193 860.246 82.3543 860.246 81.0285V62.9641C860.246 61.7239 860.246 61.1079 860.001 60.5694C859.777 60.095 859.427 59.6913 858.989 59.4027C858.492 59.0845 857.924 59.011 856.798 58.856C854.142 58.4954 851.459 58.3222 848.778 58.3379ZM403.737 61.0386C402.595 61.0386 402.024 61.0386 401.587 61.2629C401.201 61.458 400.887 61.7709 400.69 62.1564C400.474 62.5929 400.47 63.1559 400.47 64.2981V177.8C400.472 184.697 398.296 190.246 393.942 194.445C389.746 198.494 384.048 200.521 376.849 200.523H370.44C369.297 200.523 368.726 200.523 368.29 200.74C367.903 200.936 367.588 201.25 367.392 201.637C367.176 202.078 367.18 202.641 367.18 203.783V225.376C367.18 226.518 367.18 227.09 367.396 227.526C367.591 227.912 367.904 228.227 368.29 228.424C368.726 228.64 369.297 228.644 370.44 228.644H376.845C387.949 228.644 397.55 226.468 405.646 222.117C413.898 217.768 420.197 211.693 424.543 203.893C429.044 196.096 431.296 187.024 431.299 176.678V64.2981C431.299 63.1559 431.291 62.5888 431.066 62.1523C430.874 61.7693 430.565 61.4567 430.185 61.2589C429.749 61.0386 429.173 61.0386 428.031 61.0386H403.737ZM870.971 61.0386C870.306 61.0508 869.902 61.0957 869.576 61.2629C869.194 61.4601 868.884 61.7727 868.69 62.1564C868.466 62.5929 868.47 63.1559 868.47 64.2981V89.2692C868.47 90.4115 868.47 90.9827 868.69 91.4192C868.883 91.8043 869.193 92.1185 869.576 92.3167C870.012 92.537 870.587 92.537 871.73 92.537H894.677C895.82 92.537 896.383 92.537 896.819 92.3126C897.206 92.1175 897.52 91.8047 897.717 91.4192C897.941 90.9827 897.933 90.4115 897.933 89.2692V64.2981C897.933 63.1559 897.937 62.5929 897.721 62.1564C897.524 61.7687 897.208 61.4543 896.819 61.2589C896.383 61.0386 895.82 61.0386 894.677 61.0386H870.971ZM506.11 103.556C494.712 103.556 484.362 106.331 475.06 111.882C465.914 117.431 458.642 125.005 453.243 134.606C447.994 144.057 445.369 154.931 445.369 167.23C445.369 179.074 447.994 189.872 453.243 199.622C461.116 214.251 465.841 217.099 475.289 222.794C484.737 228.497 495.76 231.347 508.358 231.344C520.803 231.344 531.677 228.57 540.978 223.022C549.393 217.944 555.549 211.681 559.446 204.232C559.912 203.334 560.148 202.885 560.148 202.392C560.14 201.952 559.998 201.525 559.74 201.168C559.446 200.772 558.965 200.531 557.986 200.054L540.57 191.516C539.297 190.887 538.661 190.569 538.094 190.541C537.591 190.504 537.09 190.624 536.658 190.883C536.16 191.161 535.667 191.801 534.683 193.09C532.201 196.318 529.149 199.065 525.68 201.196C521.029 204.047 515.33 205.472 508.582 205.472C499.73 205.475 492.305 202.777 486.308 197.378C480.311 191.977 476.864 184.776 475.966 175.777H561.87C562.686 175.777 563.085 175.777 563.473 175.613C563.806 175.459 564.096 175.225 564.317 174.932C564.562 174.594 564.636 174.251 564.787 173.578C565.031 172.512 565.196 171.369 565.28 170.151C565.579 167.902 565.729 165.652 565.729 163.403C565.729 152.456 563.404 142.483 558.753 133.484C554.102 124.484 547.355 117.284 538.51 111.882C529.657 106.334 518.857 103.559 506.11 103.556ZM977.872 103.556C970.222 103.556 963.322 105.057 957.172 108.06C951.28 110.961 946.415 115.592 943.228 121.335V109.52C943.228 108.378 943.228 107.807 943.004 107.37C942.809 106.984 942.496 106.67 942.111 106.473C941.674 106.252 941.103 106.252 939.961 106.252H918.82C917.678 106.252 917.107 106.252 916.67 106.477C916.285 106.673 915.973 106.985 915.777 107.37C915.557 107.807 915.557 108.378 915.557 109.52V225.372C915.557 226.514 915.557 227.085 915.777 227.522C915.973 227.909 916.287 228.223 916.674 228.419C917.107 228.636 917.678 228.64 918.82 228.64H941.76C942.902 228.64 943.473 228.64 943.914 228.415C944.299 228.22 944.611 227.907 944.807 227.522C945.027 227.085 945.027 226.514 945.027 225.372V156.876C945.03 148.929 947.281 142.555 951.779 137.755C956.43 132.952 962.43 130.55 969.778 130.55C977.127 130.553 983.049 132.955 987.545 137.755C992.195 142.406 994.521 148.779 994.521 156.876V225.376C994.521 226.518 994.517 227.09 994.741 227.526C994.936 227.912 995.249 228.227 995.635 228.424C996.071 228.64 996.642 228.644 997.784 228.644H1020.73C1021.87 228.644 1022.45 228.644 1022.88 228.419C1023.26 228.222 1023.57 227.91 1023.77 227.526C1023.99 227.09 1024 226.518 1024 225.376V149.904C1024 140.752 1022.04 132.729 1018.14 125.834C1014.36 118.895 1008.66 113.191 1001.72 109.402C994.821 105.502 986.872 103.553 977.872 103.556ZM871.738 106.257C870.596 106.257 870.024 106.257 869.588 106.481C869.206 106.678 868.896 106.991 868.703 107.374C868.478 107.811 868.478 108.382 868.478 109.524V225.376C868.478 226.518 868.478 227.09 868.703 227.526C868.896 227.911 869.206 228.225 869.588 228.424C870.024 228.64 870.596 228.644 871.738 228.644H894.686C895.828 228.644 896.391 228.644 896.827 228.419C897.215 228.225 897.531 227.912 897.729 227.526C897.949 227.09 897.945 226.518 897.945 225.376V109.524C897.945 108.382 897.945 107.811 897.729 107.374C897.533 106.987 897.218 106.673 896.831 106.477C896.391 106.257 895.828 106.257 894.686 106.257H871.738ZM506.122 127.858C513.922 127.858 520.371 130.257 525.468 135.054C530.717 139.705 533.64 145.78 534.239 153.278H476.651C478.302 145.178 481.752 138.954 487.001 134.606C492.4 130.107 498.774 127.858 506.122 127.858Z" fill="black"/>
</g>
<defs>
<linearGradient id="paint0_linear_829_283" x1="48.9571" y1="122.574" x2="293.732" y2="257.2" gradientUnits="userSpaceOnUse">
<stop stop-color="#AA5CC3"/>
<stop offset="1" stop-color="#00A4DC"/>
</linearGradient>
<linearGradient id="paint1_linear_829_283" x1="48.957" y1="122.575" x2="293.732" y2="257.201" gradientUnits="userSpaceOnUse">
<stop stop-color="#AA5CC3"/>
<stop offset="1" stop-color="#00A4DC"/>
</linearGradient>
<clipPath id="clip0_829_283">
<rect width="1024" height="293.719" fill="white" transform="translate(0 0.191406)"/>
</clipPath>
</defs>
</svg>
