<svg width="861" height="513" viewBox="0 0 861 513" fill="none" xmlns="http://www.w3.org/2000/svg">
<g clip-path="url(#clip0_879_3815)">
<path d="M432.796 512.051C579.401 512.051 723.847 462.348 800.785 385.405C839.86 346.335 860.511 301.217 860.511 254.901C860.511 208.926 840.129 164.255 801.586 125.708C725.242 49.3747 580.481 0.0507812 432.796 0.0507812C329.379 0.0507812 223.848 24.3899 143.258 66.83C51.1924 115.305 0.494629 182.101 0.494629 254.899C0.494629 300.552 20.947 345.13 59.651 383.821C98.3317 422.489 154.532 455.03 222.194 477.91C288.227 500.249 361.059 512.047 432.794 512.047" fill="#FFFFFE"/>
<path d="M149.641 78.9549C62.3 124.946 14.1958 187.435 14.1958 254.901C14.1958 296.841 33.2671 338.063 69.3471 374.147C106.539 411.326 160.91 442.725 226.581 464.933C291.224 486.794 362.535 498.353 432.798 498.353C575.947 498.353 716.593 450.21 791.101 375.713C827.543 339.283 846.808 297.505 846.808 254.901C846.808 212.637 827.823 171.314 791.897 135.394C717.999 61.4996 577.037 13.7559 432.8 13.7559C331.544 13.7559 228.335 37.5156 149.645 78.9531" fill="black"/>
<path d="M432.541 474.069C558.911 474.069 678.668 432.831 745.054 366.46C778.54 332.97 796.238 294.749 796.238 255.912C796.238 217.083 778.54 178.861 745.054 145.378C678.659 78.9989 558.911 37.7695 432.541 37.7695C339.751 37.7695 247.378 60.672 179.115 100.614C108.004 142.221 68.8359 197.373 68.8359 255.91C68.8359 294.749 86.5405 332.969 120.036 366.459C186.415 432.829 306.165 474.067 432.541 474.067" fill="#B3995D"/>
<path d="M433.198 466.324C618.432 466.324 768.602 370.368 768.602 254.749C768.602 139.13 618.432 45.4043 433.198 45.4043C247.957 45.4043 97.7937 139.13 97.7937 254.749C97.7937 370.368 247.957 466.324 433.198 466.324Z" fill="#AA0000"/>
<path d="M695.545 228.449H694.62V220.81H561.544C558.689 205.848 550.083 191.959 537.79 181.116C525.681 167.203 508.1 156.74 488.073 152.765L479.785 151.052C460.575 147.016 445.402 143.822 384.371 144.138C384.371 144.131 372.632 143.736 361.234 142.224C358.348 141.49 355.824 140.619 353.656 139.677C354.497 134.599 363.78 127.601 374.269 126.25C375.349 126.049 441.405 113.896 509.392 157.927L511.058 158.999H555.744V90.6294H548.103V82.9905H486.785L476.451 90.8841C458.793 86.4629 372.33 67.5404 297.654 100.229C266.273 113.193 246.802 137.663 248.192 162.517C248.895 175.049 254.891 185.975 265.264 194.448C272.888 203.97 284.882 211.394 300.502 215.9C322.607 222.265 341.328 224.889 359.481 225.931V257.098H367.115V264.737H390.437C400.092 264.737 402.578 270.086 403.171 272.077C373.412 270.132 328.163 261.667 294.853 230.847L293.602 229.497H293.364C291.527 227.737 289.721 225.917 287.954 224.017L285.956 221.865H252.43V319.18H260.071V326.805H287.423C291.429 327.09 304.133 325.678 312.907 300.051C327.13 305.013 362.184 315.562 405.349 316.736V377.28C403.851 397.614 359.058 403.972 343.461 404.589L337.009 404.844V434.946H344.643V442.571H541.298V413.773L536.288 412.445C535.386 412.214 534.522 411.975 533.657 411.735V405.145L527.521 404.62C516.462 403.641 507.957 401.727 501.365 399.372C488.993 392.443 486.878 386.824 486.609 385.915V353.635H544.245C550.334 354.553 555.552 357.224 559.973 360.688C568.27 370.904 572.058 382.587 572.114 382.781L573.588 387.511L578.535 387.527H578.696C579.383 389.263 579.738 390.359 579.762 390.42L581.229 395.159L586.183 395.166H612.199V278.066H604.558V270.427H573.719L572.616 275.775C564.543 314.691 519.533 314.119 479.518 308.286C487.366 306.157 495.246 303.563 503.103 300.446C524.528 291.935 540.604 280.36 550.628 266.795H637.013C643.033 266.988 648.15 268.5 652.456 271.316C661.508 284.589 660.606 304.159 660.59 304.381L660.212 311.466H668.245L668.238 312.006L667.852 319.09L674.944 319.107H702.273V228.451H695.551" fill="black"/>
<path d="M557.768 252.426C564.059 244.817 564.351 227.532 564.351 227.532H687.896V304.745H667.296C667.296 304.745 670.236 253.738 629.356 252.426H557.768ZM412.066 318.363C439.865 318.957 463.443 313.062 463.443 313.062C470.521 311.496 566.236 339.584 579.186 277.148H597.825V380.806H578.531C578.531 380.806 567.086 343.519 537.334 339.268H472.243V378.847C472.243 378.847 472.49 406.596 526.931 411.311V428.227H343.721V411.311C343.721 411.311 409.955 408.734 412.069 377.66V318.365L412.066 318.363ZM469.222 216.372C460.362 213.678 447.543 213.101 432.794 212.538C380.021 210.524 346.811 216.812 294.716 201.796C235.59 184.757 246.203 128.766 300.35 106.387C380.907 71.1216 477.927 98.2157 477.927 98.2157L489.056 89.7123H541.382V144.646H505.403C434.114 98.4704 365.759 111.944 365.759 111.944C343.516 114.823 321.93 139.346 359.863 148.829C371.972 150.465 384.398 150.86 384.398 150.86C453.232 150.497 462.771 154.603 486.765 159.356C549.125 171.717 583.623 250.566 492.978 286.565C399.401 323.721 301.001 283.679 301.001 283.679C292.827 314.421 280.079 312.463 280.079 312.463H259.147V228.59H283.011C338.95 289.065 434.764 278.718 434.764 278.718C434.764 278.718 463.219 277.993 481.856 260.407C496.411 242.643 494.105 223.66 469.222 216.376V216.372ZM391.05 250.388H366.2V228.117C385.463 228.117 424.763 228.287 452.569 228.117C480.538 228.117 484.281 244.292 472.488 255.232C461.375 265.542 438.098 272.88 410.538 267.865C410.538 267.865 408.261 250.388 391.05 250.388Z" fill="#FFFFFE"/>
</g>
<defs>
<clipPath id="clip0_879_3815">
<rect width="860.017" height="512" fill="white" transform="translate(0.494629 0.0507812)"/>
</clipPath>
</defs>
</svg>
