<svg width="633" height="513" viewBox="0 0 633 513" fill="none" xmlns="http://www.w3.org/2000/svg">
<g clip-path="url(#clip0_876_1526)">
<path d="M315.513 512.051L273.646 457.685C220.404 440.109 183.322 391.993 179.905 335.992L153.93 302.279C129.225 312.922 104.52 329.791 104.52 329.791L26.6462 251.624L59.4559 179.682L0.793945 103.443H94.1697L112.235 64.0668L158.471 45.416L163.597 31.4768L201.07 48.5896L209.98 17.4644L216.107 15.4382C245.744 5.57572 279.896 0.253913 314.854 0.0586172C315.855 0.00979331 326.962 0.205088 327.231 0.205088C328.525 0.205088 333.993 0.498033 333.993 0.498033C363.58 1.91393 391.361 6.84514 416.603 15.1452L422.804 17.1958L431.006 46.9052L444.506 36.701L520.256 63.6274L538.541 103.517H632.38L573.059 180.048L605.381 250.965L526.286 332.403C526.286 332.403 497.284 311.262 477.413 303.377L453.563 334.112C450.853 391.456 411.843 441.72 357.013 458.589L315.513 512.051Z" fill="white"/>
<path d="M315.586 474.383L585.387 126.488H47.5674L315.586 474.383Z" fill="#919798"/>
<path d="M25.4014 115.576L315.562 492.204L607.651 115.576H25.4014ZM585.387 126.488L315.586 474.359L47.5674 126.488H585.387Z" fill="#00428B"/>
<path d="M546.45 150.705L546.353 150.485L546.133 150.363L528.874 138.768L535.294 126.488L535.489 126.122L535.318 125.732L511.566 73.6609L511.419 73.3435L511.077 73.2215L447.02 50.4207L446.581 50.2742L446.215 50.5672L429.224 63.5299L429.029 63.6764L428.931 63.8961L426.026 71.0244C426.026 71.0244 399.466 64.3599 360.48 60.454C356.525 60.0634 345.906 59.1846 328.964 57.8419L327.328 57.7199L325.62 57.5978L325.229 57.5734L324.96 57.8419L312.291 70.4629L312.315 57.5246C312.315 57.5246 276.405 59.5508 252.896 62.7487C229.388 65.9467 206.269 71.7812 206.269 71.7812L202.022 62.6755L201.875 62.3825L201.582 62.2361L171.336 48.2968L170.482 47.9062L170.164 48.7851L166.649 58.3546L165.843 56.426L165.502 55.6448L164.696 55.9622L121.438 73.2947L121.121 73.4412L120.974 73.7585L41.1958 249.036L106.693 314.656L109.745 312.923C111.722 311.8 114.505 310.14 117.654 308.284C125.564 303.622 136.427 297.226 141.627 294.736L142.676 294.223C149.39 290.976 152.758 289.341 184.592 275.719L187.253 274.718C187.301 274.718 190.841 273.326 197.384 271.154C214.863 265.344 260.293 251.819 304.332 251.819H304.821C306.578 251.819 308.336 251.844 310.094 251.893C339.974 252.723 374.932 259.07 399.002 264.245C422.145 269.225 439.55 274.034 444.506 275.426L447.826 276.451C469.723 284.922 496.503 298.886 521.306 314.778L524.455 316.804L590.758 248.524L546.45 150.705Z" fill="#00428B"/>
<path d="M539.322 156.783L475.607 114.233L464.524 83.1074L484.248 90.1137L492.231 109.57L522.233 119.188L504.706 80.5198L448.094 60.4043L437.695 68.4358L456.516 129.612L517.107 172.431L532.633 211.148L507.44 199.772L498.798 175.678L467.892 166.572L484.419 221.035C489.521 222.915 494.575 224.843 499.604 226.87C513.372 232.435 526.847 238.612 540.005 245.349C549.135 250.012 558.095 254.968 566.932 260.192L580.114 246.668L539.322 156.783Z" fill="#F48326"/>
<path d="M109.549 185.613L130.788 166.645L135.865 172.553L114.895 232.85C126.369 227.797 138.038 223.183 149.878 218.984L165.062 169.257L151.953 147.604L179.123 121.8L194.991 68.9241L175.486 60.1602L157.958 110.009L129.86 134.202L155.468 69.5832L127.931 80.5686L52.0835 246.96L63.9477 258.874C70.9784 254.772 78.1311 250.842 85.357 247.058L109.549 185.613Z" fill="#F48326"/>
<path d="M301.745 66.9473L278.48 68.1679L267.543 192.986C277.43 192.034 287.39 191.399 297.424 191.082L301.745 66.9473Z" fill="#F48326"/>
<path d="M370.757 167.085L343.733 165.474L339.388 89.0401L362.262 90.163L359.577 69.0955L328.818 66.8984L315.049 80.6424L315.025 176.24L329.477 191.033C344.393 191.497 359.162 192.596 373.736 194.378L370.757 167.085Z" fill="#F48326"/>
<path d="M217.719 116.211L227.459 163.668L221.161 199.627C230.584 197.82 240.105 196.258 249.723 194.988H249.772L264.809 69.8281L243.205 72.9773L236.101 113.965L228.069 75.3941L202.681 81.7656L167.357 213.175C177.537 210.002 187.863 207.145 198.287 204.607L217.719 116.211Z" fill="#F48326"/>
<path d="M405.447 160.178L413.039 149.925L424.146 159.079L434.375 205.608C445.092 208.294 455.687 211.345 466.159 214.739L447.094 146.483L427.442 130.42L438.647 115.504L429.346 80.8633L405.593 75.5415L414.919 110.426L400.15 130.175L389.237 72.783L367.267 70C367.267 70 378.276 154.148 383.476 195.624C393.436 197.04 403.274 198.749 413.063 200.75L405.447 160.178Z" fill="#F48326"/>
<path d="M270.961 216.691C270.961 216.691 280.116 211.321 298.425 209.295L297.839 194.867C287.805 195.209 277.821 195.844 267.934 196.771C268.789 202.435 270.082 210.833 270.961 216.691Z" fill="#919798"/>
<path d="M329.159 208.439C336.605 209.318 344.563 211.735 351.569 213.712C357.892 215.226 364.703 217.936 370.293 220.426L373.369 198.235C358.649 196.429 344.734 195.33 329.672 194.842C329.452 199.163 329.452 205.241 329.159 208.439Z" fill="#919798"/>
<path d="M232.805 243.616C241.325 237.269 246.451 230.751 255.411 225.307C253.702 217.251 251.431 206.803 249.796 198.82C240.031 200.114 230.364 201.725 220.77 203.581C224.456 215.543 229.143 231.557 232.805 243.616Z" fill="#919798"/>
<path d="M377.715 224.917C386.015 229.726 392.508 235.17 399.93 242.396L401.394 243.519L413.112 204.752C403.03 202.653 393.216 200.847 382.939 199.406L377.715 224.917Z" fill="#919798"/>
<path d="M414.65 258.582L442.577 265.149L466.061 218.693C455.247 215.153 444.799 212.248 433.691 209.465L414.65 258.582Z" fill="#919798"/>
<path d="M190.085 265.148C197.384 262.463 207.539 258.777 217.035 256.262L198.922 208.342C187.961 211.003 178.416 213.786 167.748 217.155C174.485 233.193 182.053 249.744 190.085 265.148Z" fill="#919798"/>
<path d="M147.974 282.407C149.585 281.016 165.428 274.18 176.292 269.591C168.04 254.675 158.129 238.221 149.878 223.037C138.063 227.26 127.297 231.63 115.872 236.708L147.974 282.407Z" fill="#919798"/>
<path d="M108.451 303.377C113.504 300.35 118.85 297.25 124.733 293.832L87.7003 250.135C80.6697 253.797 73.7123 257.605 66.8525 261.608L108.451 303.377Z" fill="#919798"/>
<path d="M457.347 270.885C479.586 279.502 510.662 296.932 523.039 305.232C528.752 299.788 559.682 267.296 563.929 262.853C538.199 247.767 511.199 234.926 483.077 224.6L457.347 270.885Z" fill="#919798"/>
<path d="M324.887 207.707L314.268 207.341L314.073 181.537L325.131 193.011L324.887 207.707Z" fill="#919798"/>
<path d="M316.685 202.605C247.672 202.605 191.744 258.558 191.744 327.57C191.744 396.559 247.672 452.511 316.685 452.511C385.673 452.511 441.625 396.583 441.625 327.57C441.625 258.558 385.673 202.605 316.685 202.605Z" fill="#00428B"/>
<path d="M324.374 211.955C314.78 215.299 305.553 220.181 296.398 224.405C290.149 220.67 286.585 219.718 282.361 217.008C295.495 212.223 309.654 211.515 324.374 211.955Z" fill="#F48326"/>
<path d="M413.868 265.003C384.428 235.343 340.266 237.491 302.794 226.994C302.794 226.994 324.838 216.497 336.214 213.592C366.851 218.816 396.487 237.125 413.868 265.003Z" fill="#F48326"/>
<path d="M248.38 269.47C220.086 312.85 216.278 366.312 238.786 413.159C209.687 388.722 192.33 341.387 205.415 295.42C216.107 280.455 229.876 267.248 248.38 269.47Z" fill="#F48326"/>
<path d="M278.651 300.35C293.884 345.659 297.277 395.85 336.727 441.476C305.968 447.725 275.477 438.497 251.163 423.093C221.063 379.152 223.895 313.606 253.995 271.031C268.691 275.255 276.674 294.442 278.651 300.35Z" fill="#F48326"/>
<path d="M257.51 266.247C262.075 259.803 267.25 253.7 273.06 248.012C337.068 266.077 398.098 332.453 408.547 397.657C405.495 402.588 398.196 409.448 393.289 414.355C377.373 428.66 359.845 436.057 343.025 440.085C313.145 409.082 303.307 368.827 292.736 329.157C284.631 298.715 279.017 275.719 257.534 266.418L257.51 266.247Z" fill="#F48326"/>
<path d="M407.058 265.955C376.152 238.687 333.089 242.178 296.96 229.459C289.978 233.731 283.143 238.784 277.333 244.009C341.341 264.075 399.417 326.667 413.258 391.335C423.292 376.834 429.346 359.99 431.811 342.145C433.325 314.73 433.056 289.781 407.058 265.955Z" fill="#F48326"/>
<path d="M267.763 246.009C261.587 251.942 256.973 257.8 252.14 264.611L251.993 264.563C235.051 260.779 221.673 269.543 210.957 280.455C216.083 267.516 226.824 252.161 238.176 242.152C248.673 242.592 256.29 242.421 267.763 246.009Z" fill="#F48326"/>
<path d="M272.304 242.031C278.358 236.636 284.217 231.925 291.516 227.555L275.111 219.426C264.175 223.893 252.481 229.703 244.45 237.051C256.851 238.516 262.173 239.273 272.304 242.031Z" fill="#F48326"/>
<path d="M298.986 49.4431L293.932 54.472L285.266 54.9846L282.044 52.1773L277.967 55.6438L268.544 56.5226L264.394 52.5679L269.838 15.657L276.991 14.6805L273.134 47.2705L278.236 46.709L282.215 14.0458L289.27 13.3622L286.34 45.7813L291.345 45.3175L293.908 13.0449C296.911 12.7275 298.473 12.7519 301.085 12.6055L298.986 49.4431Z" fill="#00428B"/>
<path d="M322.128 12.118L322.201 35.3582L326.767 35.3337L326.498 12.24C326.498 12.24 331.283 12.3865 333.431 12.5818L334.359 38.6294L329.964 42.9991L328.524 43.0723L328.719 54.2286L320.981 54.0089L320.883 42.8526L319.321 42.7306L314.634 37.9458L314.927 12.0447C317.441 11.9959 322.128 12.118 322.128 12.118Z" fill="#00428B"/>
<path d="M264.638 16.4141L263.418 24.055L254.776 25.6906L253.214 34.601C256.387 34.0395 258.316 33.7222 262.075 33.2339C261.538 36.5539 261.392 37.7013 260.806 40.826L252.14 42.071L250.504 50.6152L259.39 49.3214C259.39 49.3214 258.511 55.0826 258.047 57.6459C251.822 58.4026 245.573 59.3059 239.616 60.3312C239.616 60.3312 246.305 29.3768 247.965 19.8073L264.638 16.4141Z" fill="#00428B"/>
<path d="M232.122 61.6987L223.113 63.4563L227.239 46.5877L224.456 40.5335L217.377 64.8234L208.588 66.8252C212.25 53.6671 215.985 40.5091 219.647 27.351C222.674 26.3501 224.92 25.6422 227.581 24.861C228.557 27.0825 230.925 31.5499 230.925 31.5499L233.049 23.2986C233.049 23.2986 238.615 21.8339 241.422 21.1992L232.122 61.6987Z" fill="#00428B"/>
<path d="M358.673 19.271C359.576 29.8414 361.31 39.9723 362.384 49.8348L358.453 55.8401L345.735 54.9857L341.145 49.9812C340.315 39.1911 339.778 28.3034 339.095 17.4645C340.267 15.9265 342.049 14.7303 343.464 13.2168L354.059 14.2421L358.673 19.271ZM346.809 21.053L349.055 46.2706L353.522 46.6124L351.154 21.5413L346.809 21.053Z" fill="#00428B"/>
<path d="M399.783 23.0545C401.37 29.1087 404.47 41.5832 404.47 41.5832L407.497 42.1935L408.962 40.1917L405.202 24.6657C405.202 24.6657 408.937 25.7154 412.941 26.9116L416.945 41.9494L415.065 44.6591L418.556 48.4918L423.829 66.8008L415.138 64.8478L411.72 52.0071L406.301 50.7865L409.255 63.554L400.442 61.8207C397.366 48.0524 391.8 20.9551 391.8 20.9551C391.8 20.9551 396.243 21.9071 399.783 23.0545Z" fill="#00428B"/>
<path d="M386.015 24.5197L388.92 39.6063L387.235 41.9255L390.189 45.4652L392.752 60.4542L384.282 58.9894L381.962 46.5149L376.86 45.9535L378.667 58.135L370.22 57.0853L364.605 15.6582L380.766 18.5144L386.015 24.5197ZM373.784 25.0568L375.298 35.554L380.083 36.091L378.056 25.8136L373.784 25.0568Z" fill="#00428B"/>
</g>
<defs>
<clipPath id="clip0_876_1526">
<rect width="631.586" height="512" fill="white" transform="translate(0.793945 0.0507812)"/>
</clipPath>
</defs>
</svg>
