<svg width="545" height="513" viewBox="0 0 545 513" fill="none" xmlns="http://www.w3.org/2000/svg">
<g clip-path="url(#clip0_876_1866)">
<path d="M504.551 117.564C510.783 106.27 514.118 93.6068 514.256 80.7079C513.972 67.5615 510.504 54.6801 504.149 43.1683C497.794 31.6565 488.741 21.8576 477.768 14.612C448.037 -5.5361 403.564 -8.36176 371.99 29.3546C338.385 25.0428 304.234 29.3116 272.724 41.763C241.216 29.3003 207.063 25.0311 173.457 29.3546C141.884 -8.36176 97.2873 -5.5361 67.6793 14.6121C56.6875 21.8383 47.621 31.6328 41.2636 43.1489C34.9062 54.6649 31.4492 67.5561 31.1914 80.7079C31.3895 93.5987 34.7204 106.248 40.897 117.564C17.0631 151.841 0.600586 192.628 0.600586 234.031C0.600586 283.91 21.9773 309.709 29.9629 320.766L36.3513 314.378C58.9567 371.874 97.5329 402.833 144.218 430.967C144.218 430.967 145.201 425.315 146.183 420.155C196.431 463.646 220.388 452.958 272.601 512.051C324.691 453.203 349.262 463.277 399.018 420.155C400.001 425.192 400.984 430.967 400.984 430.967C421.747 418.435 480.348 386.985 508.851 314.378L515.239 320.766C520.153 314.009 544.601 286.735 544.601 234.031C544.847 192.629 528.384 151.964 504.551 117.564Z" fill="#707271"/>
<path d="M490.177 118.301C538.09 44.7114 429.363 -31.8271 376.782 42.2543C341.587 36.496 305.48 40.9295 272.724 55.0312C239.968 40.9294 203.86 36.4959 168.666 42.2543C115.961 -31.8271 7.3576 44.7114 55.2709 118.301C0.723447 193.243 6.12906 267.201 31.4371 301.969L41.8798 291.527C41.8798 291.527 56.7452 363.765 135.372 411.31L138.198 395.707C186.603 447.429 230.83 446.201 272.601 493.5C314.372 446.323 358.599 447.429 407.004 395.707L409.83 411.31C488.457 363.888 503.322 291.527 503.322 291.527L513.765 301.969C539.441 267.078 544.847 193.366 490.177 118.301Z" fill="#12173F"/>
<path d="M273.215 393.374C273.215 393.374 235.499 393.988 229.847 397.428C229.847 397.428 223.336 408.608 273.215 408.485C320.637 408.239 313.635 399.64 314.003 398.288C300.692 394.812 286.971 393.159 273.215 393.374Z" fill="#5D76A9"/>
<path d="M240.536 349.515C240.536 349.515 246.433 332.438 252.698 337.843C261.421 345.337 272.724 360.571 272.724 362.169V382.44L258.964 383.177C247.719 384.653 236.563 386.744 225.548 389.443C190.411 302.461 209.945 236.734 219.282 213.146C184.514 220.64 178.863 178.869 178.863 178.869C184.108 178.643 189.308 179.922 193.851 182.555C204.115 187.843 213.828 194.139 222.844 201.352C225.424 203.317 227.759 205.283 229.97 207.126C253.681 227.028 272.846 222.974 272.846 222.974V308.113C272.724 308.235 203.679 302.83 240.536 349.515Z" fill="#5D76A9"/>
<path d="M305.28 349.514C349.262 304.918 277.515 307.497 272.969 308.235C280.341 308.603 335.871 308.972 305.28 349.514Z" fill="#5D76A9"/>
<path d="M334.397 214.62C373.956 321.135 323.831 389.688 323.463 390.057C354.545 308.481 334.643 240.788 321.006 215.603C315.899 216.039 310.767 216.121 305.649 215.849C311.734 212.074 317.525 207.844 322.971 203.195C323.463 202.703 323.954 202.335 324.569 201.72C333.256 193.731 343.277 187.327 354.177 182.801C359.038 180.915 364.113 179.636 369.288 178.992C369.288 178.992 365.602 214.129 334.397 214.62Z" fill="#5D76A9"/>
<path d="M397.052 76.776C397.052 76.776 413.146 36.4796 462.657 46.1852C462.657 46.1852 417.201 16.3315 385.627 70.2647C385.627 70.2647 340.294 49.0108 272.724 78.2502C272.724 78.2502 209.208 55.8907 160.926 68.5447C160.926 68.5447 132.792 19.6485 93.1099 39.7967C53.4279 59.9448 74.1905 106.384 81.0702 118.547C81.0702 118.547 15.3429 185.502 40.0367 268.184L53.3051 251.721C53.3051 251.721 72.2247 341.896 120.875 370.276L123.824 348.162C123.824 348.162 174.686 409.467 234.393 435.512C240.044 438.215 271.741 453.94 272.724 461.68V418.803C272.724 418.803 231.322 422.243 220.265 403.078C212.771 390.056 165.103 305.04 188.691 215.97C188.691 215.97 165.717 212.53 161.417 173.831C149.367 168.545 136.212 166.269 123.087 167.197C123.087 167.197 161.049 155.28 196.677 169.04C232.305 182.8 241.887 217.936 265.967 202.456L272.601 103.558L279.849 202.456C303.929 217.936 313.511 182.923 349.139 169.04C384.767 155.28 422.852 167.197 422.852 167.197C410.724 159.546 397.261 154.252 383.17 151.595C362.776 147.54 332.8 160.563 332.8 160.563C332.8 160.563 336.977 132.552 350.614 117.564C362.408 104.664 388.944 101.838 397.052 76.776ZM89.6701 110.807C88.1959 97.2927 105.273 84.0244 105.273 84.0244C98.27 76.776 85.9845 83.0416 85.9845 83.0416C97.0415 61.2963 121.981 71.9847 121.981 71.9847C112.521 60.4364 92.6187 61.1735 92.6187 61.1735C117.313 36.6026 147.166 74.0733 147.166 74.0733C120.63 80.0931 89.6701 110.807 89.6701 110.807Z" fill="#5D76A9"/>
<path d="M222.845 201.474C219.036 200.246 212.771 204.177 209.208 211.057C197.414 207.617 193.36 194.84 193.851 182.678C204.116 187.966 213.828 194.262 222.845 201.474Z" fill="#FFBB22"/>
<path d="M338.82 211.057C335.134 203.809 328.377 199.878 324.568 201.72C333.255 193.731 343.277 187.327 354.176 182.801C354.668 194.963 350.613 207.74 338.82 211.057Z" fill="#FFBB22"/>
</g>
<defs>
<clipPath id="clip0_876_1866">
<rect width="544.003" height="512" fill="white" transform="translate(0.600586 0.0507812)"/>
</clipPath>
</defs>
</svg>
