<svg width="526" height="513" viewBox="0 0 526 513" fill="none" xmlns="http://www.w3.org/2000/svg">
<g clip-path="url(#clip0_820_286)">
<path d="M432.265 0.0507812H93.1199C41.7621 0.0507812 0.128418 41.6845 0.128418 93.0422V419.059C0.128418 470.417 41.7621 512.051 93.1199 512.051H432.265C483.623 512.051 525.257 470.417 525.257 419.059V93.0422C525.257 41.6845 483.623 0.0507812 432.265 0.0507812Z" fill="#00005B"/>
<path d="M211.087 306.37H129.711L113.155 357.901C112.929 358.839 112.384 359.669 111.612 360.247C110.84 360.826 109.891 361.118 108.927 361.071H67.7113C65.3609 361.071 64.5389 359.78 65.2454 357.196L135.701 155.125C136.405 153.012 137.11 150.946 137.814 148.243C138.736 143.543 139.208 138.766 139.223 133.976C139.175 133.641 139.206 133.3 139.313 132.979C139.42 132.658 139.6 132.366 139.84 132.127C140.079 131.888 140.37 131.708 140.691 131.6C141.012 131.493 141.354 131.462 141.689 131.51H197.701C199.341 131.51 200.28 132.097 200.519 133.272L280.485 357.548C281.189 359.899 280.484 361.073 278.372 361.071H232.576C231.789 361.159 230.998 360.956 230.349 360.503C229.701 360.049 229.24 359.374 229.053 358.605L211.087 306.37ZM142.394 262.921H198.053C196.644 258.226 195 252.942 193.12 247.069C191.238 241.201 189.242 234.919 187.132 228.222C185.019 221.529 182.905 214.836 180.791 208.142C178.678 201.449 176.74 194.991 174.978 188.767C173.218 182.548 171.633 176.853 170.223 171.682H169.87C167.888 181.197 165.419 190.603 162.473 199.864C159.181 210.432 155.835 221.235 152.433 232.273C149.026 243.315 145.68 253.531 142.394 262.921Z" fill="#9999FF"/>
<path d="M410.124 286.304H340.727C341.576 293.171 343.857 299.783 347.42 305.713C351.359 311.586 356.931 316.178 363.448 318.923C372.28 322.745 381.833 324.617 391.454 324.412C399.087 324.266 406.692 323.431 414.175 321.918C420.869 321.014 427.428 319.304 433.711 316.825C434.883 315.89 435.472 316.473 435.472 318.587V352.053C435.531 352.965 435.348 353.876 434.944 354.695C434.54 355.335 433.999 355.877 433.358 356.28C426.389 359.367 419.055 361.552 411.533 362.782C401.315 364.701 390.929 365.586 380.533 365.424C363.855 365.424 349.881 362.84 338.612 357.674C327.959 352.981 318.55 345.863 311.136 336.89C304.21 328.434 299.058 318.669 295.987 308.179C292.947 297.825 291.405 287.089 291.408 276.298C291.376 264.516 293.219 252.803 296.869 241.599C300.383 230.671 305.942 220.51 313.249 211.656C320.456 202.906 329.469 195.816 339.67 190.872C350.001 185.824 362.215 184.014 376.306 184.014C387.992 183.718 399.599 186.003 410.3 190.707C419.299 194.544 427.221 200.528 433.374 208.133C439.145 215.581 443.558 223.988 446.408 232.969C449.184 241.623 450.61 250.653 450.636 259.742C450.636 264.91 450.46 269.607 450.107 273.832C449.755 278.059 449.462 281.113 449.227 282.992C449.135 283.768 448.762 284.484 448.177 285.004C447.593 285.523 446.838 285.81 446.056 285.81C444.646 285.81 442.239 285.986 438.835 286.338C435.427 286.69 431.2 286.925 426.153 287.043C421.099 287.164 415.761 286.304 410.124 286.304ZM340.727 254.213H386.874C392.511 254.213 396.679 254.154 399.379 254.037C401.186 253.856 402.931 253.278 404.488 252.344V250.23C404.417 247.475 403.943 244.745 403.079 242.128C401.179 236.118 397.357 230.898 392.202 227.271C387.047 223.643 380.844 221.808 374.545 222.048C368.617 221.69 362.712 223.064 357.551 226.004C352.391 228.944 348.197 233.322 345.482 238.605C343.069 243.518 341.463 248.789 340.727 254.213Z" fill="#9999FF"/>
</g>
<defs>
<clipPath id="clip0_820_286">
<rect width="525.128" height="512" fill="white" transform="translate(0.128418 0.0507812)"/>
</clipPath>
</defs>
</svg>
