<svg width="513" height="513" viewBox="0 0 513 513" fill="none" xmlns="http://www.w3.org/2000/svg">
<g clip-path="url(#clip0_861_165)">
<path d="M326.666 140.716C326.413 140.918 326.228 141.205 326.228 141.559C326.228 141.846 326.397 142.082 326.565 142.301C378.022 203.637 477.637 349.901 458.155 410.224C457.987 410.73 458.004 411.287 458.458 411.54C458.913 411.826 459.502 411.54 459.805 411.135C492.589 368.097 512.071 314.368 512.071 256.051C512.071 185.002 483.177 120.749 436.535 74.3717C436.182 74.0344 435.811 73.7309 435.39 73.5117C431.096 71.2856 404.627 63.0389 326.666 140.716ZM77.5621 73.5117C77.1412 73.7309 76.7707 74.0344 76.434 74.3717C29.7922 120.749 0.881104 185.002 0.881104 256.051C0.881104 314.368 20.3629 368.097 53.1468 411.135C53.4667 411.54 54.0561 411.826 54.5107 411.54C54.9485 411.287 54.9653 410.73 54.7969 410.224C35.332 349.901 134.947 203.637 186.387 142.301C186.572 142.082 186.741 141.846 186.741 141.559C186.741 141.205 186.539 140.918 186.303 140.716C108.325 63.0389 81.8559 71.2856 77.5621 73.5117ZM389.624 37.5064C350.475 14.2168 308.06 0.0507812 256.485 0.0507812C204.892 0.0507812 162.477 14.2168 123.328 37.5064C122.874 37.7762 122.688 38.3159 122.907 38.7881C123.109 39.2434 123.631 39.3446 124.137 39.2265C173.641 28.5177 248.806 71.3193 255.946 75.6197C256.097 75.704 256.266 75.8052 256.485 75.8052C256.703 75.8052 256.855 75.704 257.023 75.6197C264.146 71.3193 339.328 28.5177 388.816 39.2265C389.321 39.3446 389.843 39.2434 390.062 38.7881C390.281 38.3159 390.095 37.7762 389.624 37.5064ZM256.485 205.374C256.771 205.374 257.124 205.61 257.31 205.778C333.755 264.011 464.638 408.066 424.732 448.742C379.774 488.154 320.924 512.051 256.485 512.051C192.045 512.051 133.195 488.154 88.2207 448.742C48.3142 408.066 179.197 264.011 255.626 205.778C255.828 205.61 256.198 205.374 256.485 205.374Z" fill="#107B10"/>
</g>
<defs>
<clipPath id="clip0_861_165">
<rect width="511.19" height="512" fill="white" transform="translate(0.881104 0.0507812)"/>
</clipPath>
</defs>
</svg>
