<svg width="807" height="513" viewBox="0 0 807 513" fill="none" xmlns="http://www.w3.org/2000/svg">
<g clip-path="url(#clip0_795_5276)">
<path d="M795.826 218.023C773.455 207.18 734.448 194.673 734.448 194.673C732.775 194.239 729.41 193.151 729.41 193.151C730.335 191.799 731.072 190.332 731.603 188.787C732.945 184.007 732.676 178.422 729.553 176.678C729.553 176.678 746.556 177.608 750.242 176.192C760.702 172.155 764.711 158.285 761.033 148.46C759.109 143.317 750.922 140.104 749.248 135.802C747.646 131.731 746.563 128.527 742.232 126.331C735.163 122.791 717.284 119.711 709.409 120.392C702.77 120.967 701.49 128.553 697.392 130.297C680.972 137.298 673.652 134.014 673.804 158.25C673.81 158.956 673.872 159.661 673.992 160.357C668.051 157.506 653.196 150.301 646.306 147.274V0.574219H160.457V147.274C153.567 150.301 138.713 157.507 132.771 160.357C132.891 159.661 132.954 158.956 132.959 158.25C133.111 134.015 125.8 137.298 109.371 130.297C105.273 128.526 104.002 120.967 97.3539 120.392C89.4793 119.711 71.6003 122.809 64.531 126.331C60.1552 128.527 59.162 131.731 57.5154 135.802C55.8421 140.104 47.6722 143.317 45.7301 148.46C42.0523 158.285 46.0611 172.155 56.5218 176.192C60.2086 177.608 77.21 176.723 77.21 176.723C74.087 178.493 73.8185 184.052 75.1609 188.831C75.6913 190.376 76.4286 191.844 77.3532 193.195C77.3532 193.195 73.9886 194.284 72.3152 194.717C72.3152 194.717 33.3538 207.224 10.9378 218.067C10.9378 218.067 -15.9077 230.566 17.3896 228.176C19.0003 228.176 43.9757 226.264 70.0243 222.431L69.8632 223.883C69.8632 232.221 71.6529 232.168 78.6684 234.557L78.4358 236.027C69.6574 237.797 52.2168 239.505 46.1411 243.515C39.4924 247.941 21.3089 244.515 10.4011 259.2C7.5287 263.059 2.75922 274.779 5.56897 278.602C10.1685 284.798 36.5218 293.951 39.9576 294.021C48.1991 294.198 49.0402 287.524 54.8567 283.577C57.6485 281.665 60.9864 282.948 64.0825 282.143C68.7445 280.921 71.3307 276.725 75.4286 274.619C77.8177 273.397 82.9541 272.22 86.2297 274.114C100.699 282.922 145.056 271.742 160.501 262.74V342.243C160.501 370.568 164.134 381.367 172.823 396.325L173.539 397.503C222.978 470.633 306.768 512.574 403.421 512.574C500.074 512.574 583.736 470.769 633.03 397.837L633.773 396.704C642.614 381.471 646.301 370.54 646.301 342.25V262.763C661.701 271.765 706.058 282.944 720.528 274.138C723.803 272.244 728.939 273.421 731.329 274.642C735.427 276.749 738.013 280.945 742.675 282.166C745.771 282.971 749.109 281.688 751.901 283.6C757.717 287.548 758.567 294.221 766.8 294.045C770.236 293.974 796.588 284.857 801.188 278.626C803.998 274.802 799.229 263.082 796.356 259.223C785.448 244.538 767.265 247.938 760.616 243.538C754.54 239.564 737.09 237.794 728.322 236.024L728.089 234.483C735.096 232.094 736.93 232.147 736.894 223.809L736.733 222.357C762.782 226.19 787.739 228.102 789.368 228.102C822.692 230.492 795.82 217.993 795.82 217.993L795.826 218.023Z" fill="white"/>
<path d="M379.687 287.587C354.806 287.61 330.425 280.679 309.353 267.591C334.151 299.142 373.424 316.112 413.676 312.67C453.928 309.229 489.676 285.844 508.633 250.552L508.49 250.508C506.136 249.871 502.637 248.508 498.584 246.923C494.038 245.153 485.743 241.922 482.924 241.612C482.123 242.138 481.355 242.712 480.625 243.329C479.039 244.629 477.374 245.832 475.64 246.932C450.645 272.926 415.955 287.62 379.687 287.587Z" fill="#DADADA"/>
<path d="M749.805 162.308C751.237 160.201 751.255 156.324 750.145 154.058C748.857 151.403 744.937 150.677 742.459 149.765C739.345 150.438 742.799 153.12 740.123 154.279L734.119 153.509C730.343 149.65 738.235 150.181 738.674 148.119C739.318 145.118 736.472 142.356 738.342 139.418C738.084 138.645 737.523 138.007 736.785 137.647C733.689 136.55 715.192 132.168 712.625 132.337L711.846 133.222C712.589 134.24 715.712 137.037 715.846 137.293C717.081 139.497 708.768 141.073 707.39 141.365C700.75 142.746 682.988 144.853 685.592 155.227C686.809 160.113 704.464 172.522 706.621 177.895C707.086 179.054 709.386 181.488 707.847 182.524C704.599 184.701 688.25 181.789 687.364 184.294C688.259 187.676 698.004 190.234 701.163 191.437C704.894 192.845 708.321 193.898 712.286 191.995C716.68 189.862 719.543 184.108 718.747 179.329C717.867 176.023 716.478 172.871 714.63 169.982C713.351 168.291 702.603 159.882 705.619 158.75C709.243 159.892 714.192 158.865 716.743 162.29C723.508 164.185 730.738 165.353 737.655 166.583C742.129 167.371 747.167 166.158 749.788 162.29L749.805 162.308ZM601.819 244.874C602.475 243.6 602.518 242.102 601.935 240.794C601.439 240.144 600.736 239.679 599.94 239.475C596.817 240.147 593.676 241.564 590.15 240.687C586.911 240.687 581.685 237.828 580.244 242.121C579.689 244.874 578.123 247.193 577.452 249.831C577.452 251.256 578.795 252.584 580.137 253.239C582.132 253.673 584.611 254.779 586.401 254.451C589.738 252.141 589.515 247.955 592.853 245.538C594.642 245.972 594.857 248.397 596.861 248.194C598.972 247.961 600.837 246.73 601.864 244.892L601.819 244.874ZM682.936 193.704C683.517 190.588 679.965 190.093 677.817 189.402C672.672 187.756 667.562 186.145 662.364 184.684C658.552 183.613 654.722 181.613 650.892 180.825C646.069 179.834 642.248 179.736 638.875 175.514L639.653 175.072C644.226 176.842 651.572 180.754 656.351 177.603C658.615 176.107 660.987 172.089 659.931 169.362C659.125 167.3 656.575 167.026 654.812 166.264C647.313 163.034 639.966 159.059 632.638 155.448C617.139 147.794 601.676 140.102 586.249 132.372C579.234 128.831 571.26 124.795 563.548 123.131C557.284 121.776 550.125 123.494 544.64 126.76C539.154 130.026 539.342 137.585 535.288 136.78C534.648 136.178 534.286 135.343 534.286 134.469C532.649 131.903 527.53 139.116 523.387 141.179C514.134 145.782 497.902 163.307 491.226 171.663C487.011 176.974 485.329 183.657 483.772 190.047L484.667 191.251C486.689 191.738 488.559 190.915 490.34 190.047C492.022 190.472 491.87 192.57 492.792 193.782C499.539 202.776 517.471 197.553 527.279 200.864C527.422 201.466 527.279 201.997 526.608 202.067C522.214 202.625 516.398 201.722 511.897 201.598C501.526 201.333 491.136 201.209 480.775 200.642L479.54 201.306C478.582 203.404 472.882 215.469 471.978 216.487C470.591 218 468.533 219.142 467.057 220.797C463.039 225.223 460.122 230.631 455.066 234.074C453.554 235.11 450.512 235.676 449.84 237.376L450.619 238.261C465.948 239.5 467.496 223.594 477.769 220C478.022 220.07 478.236 220.238 478.361 220.467C478.486 220.696 478.511 220.965 478.431 221.213C475.669 223.965 473.346 227.117 471.541 230.56C465.545 242.571 461.277 238.916 455.514 244.43L456.409 245.758C473.411 245.262 476.462 235.826 481.992 235.074C486.717 234.419 504.363 242.615 510.251 244.208C513.186 245.005 516.085 245.979 519.199 245.979C520.237 245.979 521.633 245.412 522.519 245.456C524.792 245.527 525.203 249.537 530.206 247.227C533.185 245.819 533.382 241.615 533.785 238.738C534.232 235.295 529.91 232.356 530.206 230.48C530.635 227.824 533.991 231.365 534.76 229.046C535.226 227.656 533.481 224.832 532.649 223.735C530.411 220.911 524.103 216.078 524.971 211.962C525.341 211.358 525.941 210.924 526.635 210.758L547.217 213.281C547.933 213.369 551.064 220.592 551.109 221.318C551.163 222.416 548.165 229.868 547.53 231.338C545.812 235.383 542.805 238.322 542.859 243.004C542.913 248.749 546.832 254.095 549.758 258.849C552.997 264.159 558.187 261.61 562.885 263.133C564.818 263.77 566.903 265.089 568.8 265.93C574.932 268.716 581.289 270.988 587.807 272.719C591.279 273.542 596.656 272.391 598.706 269.178C600.209 266.833 595.127 266.133 597.373 263.558C598.563 262.194 600.057 262.274 601.713 262.46C605.292 262.849 623.609 265.053 625.516 263.009C626.169 262.327 625.193 261.407 624.621 261.132C620.925 259.362 615.216 258.521 611.198 257.406C606.286 256.034 601.203 255.689 596.29 254.21C592.102 252.945 592.371 257.176 589.391 259.052C584.917 261.894 572.828 256.229 571.369 251.086C569.964 246.182 574.483 239.977 577.704 236.675C580.245 234.073 583.333 233.692 585.829 231.718C587.413 230.462 586.286 227.965 586.277 226.328C588.746 223.256 598.035 228.098 601.847 227.098C605.972 225.965 602.894 220.566 606.411 219.512C609.516 220.397 611.959 222.584 614.983 223.681C617.229 224.496 621.185 224.912 622.661 226.868C623.833 228.434 622.661 230.612 622.321 232.258C623.413 234.303 626.876 234.914 629.005 235.241C632.424 235.728 636.164 235.533 639.646 235.896C643.126 236.259 646.616 237.242 650.026 237.552L661.578 238.676C664.37 240.003 660.898 242.367 663.466 247.704C660.719 247.306 649.408 243.978 648.111 247.704C658.097 256.918 680.79 263.46 694.213 265.31C702.418 266.478 711.116 266.195 719.357 265.531C720.46 265.543 721.539 265.215 722.445 264.593C722.445 264.646 726.856 260.973 729.219 261.345C732.449 261.876 736.207 267.992 742.919 270.532C747.492 273.082 751.868 268.656 755.384 270.647C759.742 273.073 762.462 285.34 769.397 283.411C770.802 283.021 776.825 280.959 777.648 280.162C779.939 278.303 776.073 273.417 774.069 270.16C773.362 269.16 772.869 268.39 772.037 268.204C763.984 266.168 767.778 257.069 756.252 254.927C751.062 253.971 749.792 253.537 744.62 252.581C743.206 252.307 740.038 253.006 739.868 251.006L740.763 250.041L749.998 249.829L749.783 248.625C735 246.784 720.513 242.632 705.72 240.906C704.611 240.26 703.206 236.888 703.376 235.843C703.823 233.188 708.083 238.136 710.284 232.869C711.555 229.815 708.494 227.213 710.946 225.708C717.443 226.54 723.93 227.346 730.427 228.249C693.738 219.583 656.719 212.316 620.03 203.713C612.084 201.845 603.923 200.606 596.121 198.207L596.237 197.322C628.603 201.801 660.665 209.528 693.148 212.935V212.121C675.171 208.731 657.355 204.208 639.396 201.004C612.55 196.233 585.553 192.259 558.609 188.169C541.035 185.514 523.164 182.257 505.438 180.761L504.883 181.973C506.073 183.416 507.729 184.089 509.357 184.939C509.612 185.281 509.566 185.758 509.25 186.045C506.986 185.806 496.901 186.444 496.892 184.071C500.642 180.531 501.563 178.761 507.013 179.221C515.496 180 524.015 181.239 532.507 182.301C581.186 188.497 630.224 194.933 678.59 203.217C729.596 211.945 756.593 215.857 798.494 223.832C784.257 218.778 720.025 200.969 687.25 195.393C685.711 195.118 683.769 195.393 683.027 193.622L682.936 193.704ZM670.945 250.247C673.388 250.34 675.821 250.618 678.22 251.079C683.67 252.186 689.12 252.619 694.677 254.168C695.677 254.645 696.403 255.548 696.645 256.62C696.268 257.09 695.686 257.354 695.08 257.328L673.38 251.831L670.945 250.247ZM551.23 241.396L557.234 227.419C557.446 226.359 558.371 225.584 559.462 225.551C560.796 225.985 562.469 226.206 562.916 227.747L557.771 238.678C554.192 243.308 556.769 249.69 557.995 254.31C557.819 254.915 557.287 255.354 556.653 255.416C553.073 251.876 549.87 246.945 551.203 241.431L551.23 241.396ZM505.504 231.615C504.143 232.633 501.736 232.066 500.018 231.845C497.951 230.712 497.495 228.304 497.262 226.065C497.217 225.457 497.474 224.866 497.951 224.48C500.358 224.48 502.765 225.056 504.367 226.976C505.056 228.446 506.318 230.03 505.504 231.615ZM578.504 174.558L581.493 175.921C581.493 175.921 537.44 169.725 516.169 166.671C515.275 166.565 512.518 166.3 512.975 164.751C513.532 164.388 514.202 164.235 514.863 164.317L578.504 174.558ZM589.842 155.085L589.395 155.528C578.155 153.377 566.594 150.757 555.57 147.721C554.72 147.491 552.76 147.322 553.01 146.074C557.046 145.304 575.525 150.128 580.16 151.677C582.218 152.368 583.435 151.899 585.529 151.677C587.157 152.567 588.624 153.719 589.869 155.085L589.842 155.085ZM204.851 240.768C204.269 242.076 204.311 243.574 204.967 244.848C205.994 246.686 207.859 247.917 209.97 248.15C211.974 248.371 212.189 245.946 213.978 245.494C217.316 247.911 217.093 252.097 220.43 254.408C222.22 254.735 224.663 253.629 226.694 253.195C228.019 252.54 229.379 251.212 229.379 249.787C228.708 247.132 227.142 244.83 226.587 242.077C225.146 237.784 219.92 240.643 216.681 240.643C213.102 241.529 210.014 240.104 206.9 239.431C206.101 239.633 205.394 240.098 204.896 240.75L204.851 240.768ZM356.164 238.236L356.942 237.351C356.271 235.651 353.229 235.085 351.716 234.049C346.669 230.588 343.743 225.198 339.726 220.772C338.249 219.144 336.147 217.975 334.804 216.462C333.909 215.47 328.2 203.38 327.243 201.281L326.017 200.618C315.646 201.184 305.257 201.308 294.885 201.574C290.411 201.697 284.568 202.6 280.175 202.043C279.503 201.972 279.36 201.441 279.503 200.839C289.347 197.564 307.243 202.786 313.99 193.758C314.885 192.545 314.76 190.447 316.442 190.022C318.232 190.907 320.093 191.713 322.115 191.226L323.01 190.022C321.453 183.632 319.771 176.904 315.556 171.638C308.881 163.3 292.649 145.757 283.405 141.154C279.253 139.092 274.134 131.878 272.497 134.445C272.497 135.318 272.135 136.153 271.495 136.755C267.441 137.56 267.566 129.966 262.144 126.735C256.721 123.504 249.482 121.778 243.218 123.132C235.504 124.796 227.531 128.859 220.516 132.373C205.102 140.104 189.653 147.805 174.173 155.475C166.844 159.087 159.498 163.061 151.998 166.292C150.209 167.054 147.685 167.328 146.88 169.39C145.797 172.117 148.168 176.135 150.459 177.631C155.238 180.782 162.585 176.896 167.157 175.099L167.936 175.542C164.562 179.738 160.777 179.835 155.918 180.853C152.088 181.641 148.258 183.641 144.447 184.712C139.248 186.173 134.138 187.784 128.993 189.43C126.846 190.12 123.293 190.616 123.875 193.732C123.132 195.502 121.19 195.21 119.66 195.502C86.8726 201.078 22.642 218.888 8.40601 223.942C50.3294 215.975 77.3088 212.054 128.31 203.327C176.676 195.042 225.713 188.589 274.393 182.41C282.858 181.348 291.395 180.109 299.887 179.33C305.345 178.825 306.258 180.658 310.007 184.181C310.007 186.553 299.914 185.951 297.65 186.155C297.334 185.867 297.288 185.39 297.543 185.048C299.153 184.163 300.818 183.526 302.017 182.083L301.462 180.87C283.735 182.366 265.865 185.614 248.291 188.279C221.347 192.368 194.323 196.342 167.504 201.113C149.509 204.317 131.711 208.841 113.752 212.23V213C146.252 209.592 178.296 201.865 210.663 197.387L210.779 198.272C202.949 200.618 194.78 201.821 186.842 203.689C150.154 212.302 113.143 219.56 76.4566 228.225C82.9442 227.34 89.4406 226.517 95.9284 225.685C98.3892 227.19 95.3199 229.792 96.5906 232.846C98.7919 238.112 103.051 233.156 103.499 235.82C103.669 236.864 102.264 240.246 101.154 240.883C86.3712 242.609 71.8749 246.76 57.0919 248.601L56.8771 249.805L66.1118 250.018L67.0067 250.982C66.8367 252.983 63.669 252.283 62.2551 252.558C57.0472 253.514 55.7765 253.948 50.6224 254.904C39.0964 257.072 42.9 266.171 34.8375 268.18C34.0053 268.384 33.5131 269.136 32.8062 270.137C30.8286 273.394 26.9629 278.28 29.2269 280.139C30.0501 280.935 36.0724 282.998 37.4773 283.387C44.4123 285.317 47.1325 273.049 51.4904 270.624C55.0698 268.632 59.3829 273.058 63.9556 270.509C70.667 267.968 74.4253 261.852 77.6561 261.321C80.0185 260.949 84.4121 264.623 84.4301 264.569C85.3358 265.191 86.4147 265.519 87.5173 265.508C95.7588 266.18 104.457 266.455 112.672 265.286C126.094 263.392 148.742 256.895 158.728 247.681C157.431 243.954 146.12 247.282 143.373 247.681C145.941 242.37 142.478 239.98 145.261 238.652L156.841 237.555C160.259 237.245 163.749 236.253 167.221 235.899C170.693 235.545 174.442 235.731 177.861 235.244C179.991 234.934 183.454 234.306 184.545 232.261C184.241 230.615 183.033 228.437 184.205 226.871C185.682 224.915 189.637 224.499 191.883 223.684C194.908 222.587 197.35 220.383 200.456 219.515C203.972 220.569 200.894 225.968 205.019 227.101C208.822 228.137 218.119 223.259 220.59 226.331C220.59 227.968 219.453 230.465 221.037 231.721C223.534 233.695 226.63 234.076 229.162 236.678C232.384 239.98 236.912 246.185 235.498 251.089C234.039 256.196 221.977 261.861 217.476 259.055C214.496 257.179 214.791 252.948 210.576 254.213C205.664 255.692 200.581 256.037 195.668 257.409C191.605 258.524 185.896 259.374 182.201 261.135C181.646 261.41 180.671 262.33 181.306 263.012C183.212 265.056 201.538 262.852 205.109 262.463C206.782 262.277 208.259 262.197 209.449 263.561C211.677 266.136 206.612 266.836 208.115 269.181C210.165 272.377 215.543 273.527 219.015 272.722C225.532 270.991 231.89 268.719 238.021 265.933C239.927 265.092 242.003 263.773 243.936 263.136C248.634 261.613 253.824 264.127 257.063 258.852C259.998 254.098 263.909 248.752 263.963 243.007C264.016 238.325 261.01 235.386 259.291 231.341C258.674 229.872 255.712 222.419 255.712 221.321C255.757 220.595 258.889 213.355 259.605 213.284L280.186 210.761C280.881 210.927 281.48 211.361 281.851 211.965C282.745 216.081 276.41 220.914 274.173 223.738C273.341 224.8 271.596 227.624 272.07 229.049C272.84 231.377 276.186 227.845 276.616 230.483C276.938 232.359 272.616 235.298 273.036 238.741C273.412 241.618 273.609 245.822 276.616 247.23C281.582 249.549 282.029 245.539 284.302 245.459C285.197 245.415 286.584 245.964 287.622 245.982C290.718 246.026 293.609 245.034 296.571 244.211C302.414 242.618 320.105 234.422 324.829 235.077C330.359 235.829 333.455 245.265 350.412 245.761L351.307 244.433C345.544 238.918 341.276 242.574 335.281 230.563C333.476 227.12 331.152 223.968 328.39 221.216C328.31 220.968 328.335 220.699 328.46 220.47C328.585 220.241 328.799 220.073 329.052 220.003C339.325 223.597 340.873 239.476 356.202 238.264L356.164 238.236ZM135.842 250.247L133.408 251.832L111.708 257.328C111.102 257.354 110.519 257.091 110.142 256.62C110.385 255.548 111.11 254.645 112.111 254.168C117.668 252.619 123.117 252.186 128.567 251.079C130.967 250.618 133.399 250.34 135.842 250.247ZM255.557 241.396C256.899 246.91 253.66 251.858 250.108 255.381C249.473 255.318 248.942 254.88 248.765 254.274C249.991 249.654 252.559 243.272 248.989 238.643L243.871 227.747C244.318 226.207 245.991 225.976 247.325 225.552C248.416 225.585 249.341 226.359 249.553 227.419L255.557 241.396ZM253.767 146.101C254.018 147.35 252.049 147.518 251.208 147.748C240.184 150.784 228.623 153.404 217.383 155.555L216.936 155.112C218.181 153.746 219.648 152.594 221.276 151.704C223.343 151.926 224.56 152.395 226.645 151.704C231.271 150.155 249.749 145.331 253.785 146.101L253.767 146.101ZM290.643 166.708C269.391 169.797 225.32 175.958 225.32 175.958L228.308 174.595L291.941 164.327C292.602 164.246 293.271 164.399 293.829 164.761C294.285 166.31 291.52 166.531 290.625 166.681L290.643 166.708ZM309.569 226.101C309.336 228.376 308.88 230.748 306.813 231.881C305.095 232.103 302.697 232.669 301.328 231.651C300.522 230.067 301.775 228.482 302.464 227.013C304.066 225.092 306.473 224.517 308.88 224.517C309.357 224.902 309.614 225.494 309.569 226.101ZM121.189 155.29C123.793 144.916 106.031 142.809 99.3914 141.428C98.0133 141.136 89.7092 139.561 90.9352 137.357C91.0694 137.1 94.2013 134.303 94.935 133.285L94.1565 132.4C91.6063 132.205 73.1096 136.587 69.9959 137.711C69.258 138.071 68.6971 138.708 68.4388 139.481C70.309 142.42 67.4635 145.181 68.1078 148.182C68.5462 150.244 76.4477 149.713 72.6625 153.573L66.6581 154.343C63.9736 153.183 67.4366 150.501 64.3226 149.828C61.8439 150.713 57.9245 151.51 56.636 154.121C55.5263 156.387 55.5442 160.264 56.976 162.371C59.5979 166.239 64.6537 167.452 69.1096 166.664C76.0267 165.433 83.2567 164.265 90.0217 162.371C92.5719 158.963 97.5205 159.99 101.145 158.83C104.161 159.963 93.4136 168.372 92.134 170.062C90.2892 172.94 88.901 176.08 88.0177 179.374C87.2213 184.154 90.0847 189.907 94.4784 192.04C98.4068 193.943 101.879 192.925 105.602 191.482C108.76 190.279 118.478 187.721 119.4 184.339C118.506 181.834 102.166 184.747 98.9173 182.569C97.3781 181.533 99.6868 179.099 100.143 177.94C102.3 172.567 119.955 160.157 121.172 155.272L121.189 155.29ZM39.3297 254.735C38.7749 252.965 27.7954 254.93 27.1866 257.028C26.2918 260.108 35.4281 264.162 39.3297 254.735ZM14.7664 273.625C15.4023 274.144 16.0922 274.595 16.8245 274.97C19.1511 276.218 21.3614 278.404 22.9184 276.422C23.7237 275.413 28.019 268.084 28.8332 265.313C29.1554 264.198 28.4037 262.605 25.7102 262.498H25.1733C18.1846 263.189 15.9744 269.155 14.7485 273.66L14.7664 273.625ZM779.602 257.028C778.994 254.93 768.015 253.001 767.459 254.736C771.361 264.162 780.488 260.108 779.602 257.028ZM777.947 265.278C778.752 268.048 783.047 275.377 783.853 276.386C785.41 278.369 787.62 276.183 789.947 274.935C790.683 274.572 791.379 274.133 792.023 273.625C790.797 269.119 788.586 263.153 781.598 262.463H781.061C778.376 262.569 777.616 264.162 777.947 265.278Z" fill="#DD0741"/>
<path d="M633.51 342.246V271.603H620.186V342.246C620.186 367.349 617.242 373.226 611.345 383.45C566.245 450.234 489.904 486.72 403.386 486.72C316.868 486.72 240.579 450.234 195.447 383.458C189.541 373.27 186.588 367.358 186.588 342.255V271.435H173.255V342.246C173.255 368.924 176.486 377.298 183.876 390.044L184.36 390.814C233.675 463.758 315.549 499.934 403.385 499.934C491.221 499.934 573.095 463.758 622.42 390.803L622.886 390.042C630.277 377.323 633.51 368.942 633.51 342.246ZM303.074 143.094C308.126 132.078 313.802 121.354 320.076 110.971C310.325 120.407 302.277 131.424 296.283 143.544C297.554 144.606 298.824 145.713 300.104 146.89C301.088 145.624 302.081 144.359 303.111 143.093L303.074 143.094ZM509.245 420.889L531.392 407.16L526.399 399.273L512.556 407.877L492.682 346.076L487.912 338.517L465.765 352.245L470.758 360.132L484.628 351.528L504.503 413.329L509.281 420.889H509.245ZM498.337 154.766C486.704 146.8 469.407 138.276 469.407 138.276C457.103 155.422 446.866 176.603 446.866 176.603C452.924 189.118 461.989 203.255 466.973 212.008C473.684 202.271 476.431 193.101 480.611 179.947C483.644 170.397 487.769 165.227 498.338 154.783L498.337 154.766ZM395.896 177.071C395.896 177.071 381.024 153.65 365.471 136.178C365.471 136.178 332.693 150.641 320.613 156.864L320.085 165.716C320.273 166.317 324.559 172.478 326.42 179.179L330.107 190.774C330.537 192.084 330.939 193.27 330.939 193.27C331.763 195.651 332.89 198.581 334.259 201.652C335.508 204.488 336.931 207.246 338.519 209.91C339.769 212.008 341.346 213.899 343.19 215.513L343.342 215.637C344.993 217.051 346.944 218.079 349.051 218.647C354.724 220.205 361.096 221.86 368.022 223.515C368.022 223.515 388.701 190.879 395.896 177.071ZM403.386 77.3327C390.326 77.3274 377.356 79.4537 364.997 83.6261L387.673 101.329C387.673 101.329 415.35 98.7358 440.209 101.896C442.881 97.5871 444.986 92.9587 446.473 88.1231C472.838 100.502 493.506 122.27 504.342 149.074C506.392 147.127 508.459 145.268 510.499 143.559C490.527 103.046 448.952 77.3411 403.386 77.3327ZM557.208 388.022L563.875 381.481L506.543 324.309L506.185 323.955L499.519 330.496L556.85 387.668L557.208 388.022ZM561.888 325.53L584.59 339.693L580.671 345.845L527.293 312.546L531.222 306.394L538.38 310.882L543.383 303.031L538.738 300.128C534.79 297.663 529.812 297.468 525.68 299.618C521.548 301.768 518.889 305.935 518.705 310.55C518.521 315.165 520.84 319.526 524.788 321.991L573.109 352.086C579.215 355.892 587.283 354.081 591.131 348.041C594.979 342.002 593.148 334.02 587.042 330.215L558.926 312.672L551.982 323.559L559.937 328.524L561.87 325.488L561.888 325.53ZM465.81 438.249L455.224 403.949L462.741 401.683C465 401.007 466.894 399.467 468.001 397.405C469.108 395.343 469.337 392.929 468.638 390.698L460.494 364.374C459.366 360.682 455.92 358.161 452.02 358.178C451.135 358.179 450.254 358.31 449.407 358.567L432.915 363.489L456.701 440.496L456.853 440.974L465.801 438.266L465.81 438.249ZM452.468 395.053L444.638 369.685L451.663 367.56L459.51 392.955L452.468 395.08V395.053ZM427.815 445.736L420.728 365.002L411.368 365.808L418.455 446.542L427.815 445.736ZM392.424 437.841L375.798 435.885L378.957 409.516L391.43 410.985L392.54 401.745L380.067 400.275L383.234 373.898L399.86 375.881L400.97 366.649L383.834 364.631C378.966 364.07 374.56 367.517 373.99 372.332L366.438 435.327C365.881 440.133 369.35 444.482 374.205 445.064L391.341 447.073L392.424 437.841ZM403.386 313.105C447.463 313.113 487.943 289.052 508.626 250.552L508.483 250.508C506.13 249.87 502.631 248.507 498.577 246.923L497.996 246.702C487.608 265.2 472.255 280.497 453.63 290.906L444.127 264.466L392.531 265.847L372.326 293.888C372.326 293.888 380.773 300.173 395.94 305.475C371.937 305.26 348.606 297.591 329.248 283.549C329.848 283.052 330.416 282.516 330.948 281.947C330.948 281.947 316.97 262.032 308.416 246.852L308.192 246.931C304.138 248.516 300.64 249.879 298.286 250.516L298.143 250.56C318.83 289.057 359.313 313.115 403.386 313.105ZM348.031 430.833L332.211 425.452L355.861 357.659L347.011 354.64L320.264 431.205L344.97 439.614L348.031 430.833ZM292.175 370.476C292.555 370.53 292.937 370.562 293.321 370.573C295.37 370.573 297.115 369.688 298.797 367.741L315.513 348.551C317.059 346.792 317.833 344.496 317.665 342.171C317.497 339.847 316.401 337.683 314.618 336.159L301.544 325.007L248.068 386.4L261.106 397.526C262.887 399.057 265.213 399.82 267.566 399.645C269.918 399.471 272.103 398.373 273.633 396.597L289.687 378.177C292.237 375.247 293.043 372.866 292.202 370.494L292.175 370.476ZM284.846 369.98L284.623 370.237L266.86 390.595L260.775 385.4L278.752 364.767L284.846 369.963L284.846 369.98ZM290.502 362.97L284.927 358.216L302.456 338.097L308.031 342.841L290.502 362.97ZM250.028 332.512L254.243 338.469L229.876 355.339C228.152 356.694 226.77 358.428 225.84 360.402L225.697 360.668L231.299 368.59L231.684 367.82C232.578 365.961 233.473 364.2 235.263 362.951L257.357 347.656C260.551 345.443 261.929 343.292 261.706 340.823C262.531 341.166 263.415 341.349 264.31 341.363C265.935 341.302 267.499 340.738 268.784 339.752L289.741 325.226C291.677 323.894 292.997 321.853 293.408 319.556C293.82 317.259 293.289 314.894 291.933 312.985L282.037 299L214.923 345.47L220.292 353.082L250.028 332.512ZM257.249 327.094L257.527 326.9L279.808 311.471L284.416 317.986L284.13 318.181L261.857 333.609L257.249 327.094ZM620.182 135.347L633.515 141.481V13.2412H173.26V141.366L186.594 135.17V26.4679H620.178V135.337L620.182 135.347Z" fill="#001F47"/>
</g>
<defs>
<clipPath id="clip0_795_5276">
<rect width="805.348" height="512" fill="white" transform="translate(0.710693 0.574219)"/>
</clipPath>
</defs>
</svg>
