<svg width="1024" height="224" viewBox="0 0 1024 224" fill="none" xmlns="http://www.w3.org/2000/svg">
<g clip-path="url(#clip0_807_2824)">
<path d="M563.702 103.206C563.352 102.194 563.011 101.343 562.625 100.519C560.579 96.2521 557.723 92.4223 554.214 89.2431C550.765 86.2747 546.819 83.9376 542.557 82.3384C538.39 80.8614 534.003 80.0988 529.581 80.0813H509.458C507.902 80.0512 506.363 79.7476 504.911 79.1856C503.39 78.5923 501.982 77.7406 500.751 76.669C499.39 75.5818 498.306 74.1879 497.589 72.6013C496.872 71.0147 496.542 69.2812 496.626 67.5428C496.534 65.7929 496.86 64.0461 497.577 62.4469C498.295 60.8476 499.382 59.4417 500.751 58.3448C501.965 57.2877 503.351 56.4456 504.849 55.8553C506.321 55.2891 507.881 54.9855 509.458 54.9596H558.644V31.4229H509.458C505.01 31.4347 500.596 32.1978 496.401 33.6798C492.139 35.2867 488.193 37.6302 484.744 40.6028C481.232 43.7975 478.378 47.6459 476.342 51.9322C475.992 52.6936 475.66 53.5356 475.329 54.4759C473.849 58.5966 473.127 62.9504 473.194 67.3277V67.7578C473.125 72.1092 473.839 76.4383 475.302 80.5379C475.66 81.5679 475.992 82.392 476.386 83.225C478.429 87.4945 481.286 91.3243 484.798 94.5005C488.245 97.4719 492.192 99.8096 496.456 101.406C500.615 102.872 504.993 103.626 509.404 103.636H529.581C531.14 103.667 532.682 103.97 534.136 104.531C535.657 105.124 537.064 105.972 538.297 107.039C539.526 108.112 540.55 109.399 541.319 110.836C542.059 112.531 542.432 114.362 542.413 116.21C542.433 117.996 542.095 119.769 541.418 121.423C540.633 122.932 539.575 124.284 538.297 125.408C537.079 126.464 535.69 127.305 534.19 127.898C532.718 128.464 531.158 128.767 529.581 128.794H480.404V152.375H529.581C534.021 152.364 538.426 151.601 542.61 150.118C546.875 148.519 550.822 146.178 554.268 143.204C557.782 140.006 560.639 136.154 562.679 131.866C563.029 131.104 563.37 130.235 563.684 129.331C565.164 125.207 565.886 120.85 565.818 116.47V116.049C565.896 111.675 565.179 107.324 563.702 103.206Z" fill="#521B74"/>
<path d="M275.205 46.1558C271.14 41.6648 266.232 38.0135 260.759 35.4085C259.692 34.9248 258.571 34.5128 257.441 34.1009C252.146 32.2161 246.553 31.3058 240.932 31.414H240.323C234.699 31.3051 229.103 32.2154 223.805 34.1009C222.675 34.4949 221.563 34.9248 220.487 35.4085C215.014 38.0135 210.106 41.6648 206.04 46.1558C202.22 50.5735 199.211 55.6309 197.154 61.0942C195.254 66.466 194.278 72.1191 194.266 77.8156V152.751H217.824V77.8156C217.852 74.9965 218.378 72.2046 219.375 69.5669C220.433 66.8756 221.95 64.3879 223.859 62.214C225.855 59.9233 228.268 58.0301 230.969 56.6344C234.033 55.3225 237.331 54.646 240.664 54.646C243.996 54.646 247.294 55.3225 250.357 56.6344C253.057 58.0319 255.469 59.9245 257.468 62.214C259.358 64.3933 260.86 66.8804 261.907 69.5669C262.911 72.2028 263.439 74.9953 263.467 77.8156V152.751H286.98V77.8156C286.972 72.1185 285.996 66.4648 284.092 61.0942C282.038 55.6291 279.029 50.5713 275.205 46.1558Z" fill="#521B74"/>
<path d="M426.666 106.646C426.654 109.472 426.138 112.275 425.142 114.921C424.101 117.614 422.599 120.105 420.702 122.283C418.703 124.569 416.291 126.459 413.592 127.853C410.53 129.171 407.231 129.85 403.898 129.85C400.564 129.85 397.265 129.171 394.204 127.853C391.505 126.459 389.092 124.569 387.093 122.283C385.184 120.106 383.667 117.615 382.61 114.921C381.611 112.284 381.086 109.492 381.058 106.672V31.7188H357.537V106.646C357.546 112.343 358.526 117.997 360.433 123.366C362.486 128.835 365.495 133.896 369.32 138.314C373.389 142.786 378.293 146.421 383.757 149.017C384.833 149.5 385.945 149.912 387.075 150.324C392.374 152.205 397.97 153.115 403.593 153.011H404.247C409.867 153.115 415.46 152.205 420.757 150.324C421.895 149.921 423.007 149.5 424.074 149.017C429.542 146.424 434.449 142.788 438.521 138.314C442.342 133.894 445.351 128.833 447.407 123.366C449.312 117.996 450.288 112.342 450.295 106.646V31.7188H426.666V106.646Z" fill="#521B74"/>
<path d="M335.222 31.7188H309.916V153.029H335.222V31.7188Z" fill="#521B74"/>
<path d="M31.7803 130.73C31.7803 139.017 29.1529 145.382 23.898 149.824C18.7866 154.266 10.8206 156.655 0 156.989V181.833C6.4109 181.801 12.7857 180.872 18.939 179.075C25.4336 177.291 31.5437 174.328 36.9634 170.334C42.5602 166.133 47.1111 160.699 50.262 154.454C53.8489 148.018 55.6424 140.122 55.6424 130.766V31.4248H31.7803V130.73Z" fill="#521B74"/>
<path d="M159.772 46.1558C155.706 41.6648 150.798 38.0135 145.326 35.4085C144.249 34.9248 143.137 34.5128 142.007 34.1009C136.71 32.2154 131.113 31.3051 125.49 31.414H124.889C119.265 31.3051 113.669 32.2154 108.371 34.1009C107.241 34.4949 106.129 34.9248 105.053 35.4085C99.5806 38.0135 94.6726 41.6648 90.6067 46.1558C86.783 50.5713 83.7742 55.6291 81.7202 61.0942C79.8204 66.466 78.8446 72.1191 78.8325 77.8155V106.645C78.8434 112.342 79.8198 117.995 81.7202 123.366C83.776 128.833 86.7848 133.894 90.6067 138.314C93.3691 141.369 96.5441 144.024 100.04 146.204C101.66 147.23 103.333 148.169 105.053 149.017C105.69 149.303 106.353 149.563 107.017 149.823L108.371 150.324C111.6 151.515 114.965 152.301 118.387 152.662C120.545 152.91 122.716 153.033 124.889 153.029H125.49C128.763 153.031 132.029 152.732 135.246 152.133C137.55 151.718 139.812 151.101 142.007 150.288L142.312 150.172C143.343 149.805 144.348 149.42 145.326 148.981C149.407 147.012 153.195 144.486 156.579 141.475C157.697 140.464 158.762 139.397 159.772 138.278C160.606 137.302 161.377 136.299 162.13 135.278C163.98 132.797 165.589 130.146 166.937 127.361C167.534 126.053 168.108 124.709 168.658 123.331C168.928 122.56 169.17 121.79 169.403 121.011H142.976C142.671 121.414 142.357 121.826 142.016 122.22C140.02 124.505 137.611 126.395 134.915 127.79C131.983 129.068 128.822 129.738 125.624 129.761H125.22C121.882 129.778 118.578 129.097 115.518 127.764C114.064 127 112.685 126.101 111.402 125.077C110.709 124.52 110.05 123.921 109.429 123.285C109.088 122.937 108.73 122.587 108.416 122.22C106.507 120.043 104.99 117.552 103.932 114.858C102.929 112.222 102.404 109.429 102.381 106.609V104.379H171.537V77.7794C171.525 72.0836 170.549 66.4299 168.649 61.0587C166.594 55.6068 163.588 50.5612 159.772 46.1558ZM147.989 81.7832H102.39V77.8246C102.415 75.005 102.94 72.2125 103.941 69.576C104.999 66.8847 106.516 64.3969 108.425 62.223C110.421 59.9347 112.83 58.0415 115.527 56.6434C118.591 55.3315 121.891 54.6551 125.225 54.6551C128.559 54.6551 131.859 55.3315 134.923 56.6434C137.62 58.0415 140.03 59.9347 142.025 62.223C143.934 64.3969 145.451 66.8847 146.509 69.576C147.51 72.2125 148.036 75.005 148.06 77.8246L147.989 81.7832Z" fill="#521B74"/>
<path d="M741.816 152.536C747.207 152.632 752.574 151.765 757.664 149.975L757.79 149.921C758.989 149.5 759.965 149.124 760.838 148.73C761.706 148.336 762.416 147.924 763.368 147.396L772.066 142.523V152.052H786.035L785.956 75.6752C785.944 70.1661 785.005 64.698 783.173 59.5003C781.18 54.2628 778.282 49.4131 774.62 45.1707C770.729 40.9178 766.049 37.4569 760.838 34.9786C759.941 34.5846 759.001 34.2084 757.79 33.7785H757.664C752.568 31.9824 747.189 31.1149 741.792 31.2171H741.099C735.708 31.1161 730.341 31.9837 725.257 33.7785H725.131C723.92 34.1994 722.95 34.5846 722.071 34.9786C716.86 37.455 712.18 40.9126 708.277 45.1617C704.609 49.4019 701.717 54.2519 699.723 59.4912C697.892 64.6889 696.953 70.1565 696.935 75.6662V108.025C696.953 113.534 697.898 119.001 699.723 124.199C701.717 129.439 704.609 134.289 708.277 138.529C712.174 142.779 716.848 146.24 722.053 148.721C722.95 149.115 723.908 149.491 725.113 149.912L725.239 149.966C730.329 151.763 735.708 152.63 741.111 152.527L741.816 152.536ZM728.197 136.165C724.619 134.304 721.426 131.792 718.782 128.758C716.288 125.886 714.312 122.608 712.933 119.068V118.969C711.608 115.461 710.915 111.747 710.891 107.998V75.7017C710.909 71.9672 711.59 68.2651 712.897 64.7666V64.6678C714.282 61.1037 716.276 57.8046 718.782 54.9151C721.426 51.8811 724.619 49.3715 728.197 47.5172L728.516 47.356C732.576 45.5747 736.961 44.6595 741.394 44.6691H741.521C745.954 44.6606 750.339 45.5757 754.399 47.356L754.712 47.5172C758.29 49.3715 761.489 51.8811 764.139 54.9151C766.627 57.7896 768.603 61.0706 769.982 64.6142V64.713C771.301 68.2217 771.994 71.9352 772.03 75.6843V108.025C771.994 111.773 771.301 115.486 769.982 118.996V119.094C768.603 122.637 766.627 125.916 764.127 128.785C761.483 131.821 758.29 134.333 754.712 136.191L754.387 136.344C750.333 138.13 745.948 139.045 741.515 139.031H741.394C736.961 139.043 732.576 138.128 728.516 136.344L728.197 136.165Z" fill="#63EA7A"/>
<path d="M836.307 48.0455L836.626 47.8842C840.686 46.1022 845.071 45.187 849.505 45.1974H849.619C854.052 45.1889 858.437 46.104 862.497 47.8842L862.823 48.0455C866.395 49.903 869.587 52.4124 872.237 55.4434C874.725 58.3196 876.701 61.6 878.086 65.1425V65.2413C879.405 68.7488 880.098 72.4635 880.128 76.2125V151.748H894.031V76.2125C894.012 70.7028 893.067 65.2352 891.242 60.0375C889.248 54.7983 886.351 49.9481 882.682 45.7079C878.797 41.4544 874.117 37.9934 868.912 35.5159C868.015 35.1218 867.063 34.7367 865.852 34.3157H865.726C860.63 32.5189 855.257 31.6513 849.854 31.7543H849.161C843.77 31.6533 838.403 32.521 833.319 34.3157H833.193C831.994 34.7367 831.012 35.1218 830.145 35.5159C824.935 37.9941 820.254 41.455 816.363 45.7079C812.695 49.9484 809.803 54.7989 807.816 60.0375C805.979 65.234 805.039 70.7022 805.027 76.2125V151.748H818.917V76.2125C818.947 72.4641 819.64 68.75 820.959 65.2413V65.1425C822.339 61.597 824.32 58.3154 826.82 55.4434C829.482 52.4027 832.705 49.893 836.307 48.0455Z" fill="#63EA7A"/>
<path d="M600.186 139.102C604.076 143.353 608.756 146.813 613.96 149.294C614.858 149.688 615.816 150.064 617.02 150.494L617.141 150.539C622.237 152.336 627.616 153.204 633.019 153.101H633.705C639.096 153.201 644.463 152.334 649.553 150.539L649.68 150.494C650.878 150.064 651.854 149.688 652.728 149.294C657.932 146.815 662.606 143.354 666.498 139.102C670.166 134.86 673.063 130.01 675.057 124.773C676.882 119.574 677.822 114.107 677.834 108.598V76.2126C677.822 70.7035 676.882 65.236 675.057 60.0376C673.063 54.7996 670.166 49.9503 666.498 45.7079C662.606 41.455 657.926 37.9941 652.716 35.5159C651.818 35.1218 650.921 34.7457 649.668 34.3158H649.541C644.445 32.5197 639.072 31.6521 633.669 31.7543H632.989C627.616 31.6322 622.261 32.4723 617.177 34.2352L617.056 34.2889C615.852 34.7098 614.876 35.086 613.996 35.4801C613.249 35.8473 612.442 36.2682 611.551 36.7697L602.829 41.615V0.416992H588.843V108.535C588.859 114.045 589.802 119.512 591.632 124.709C593.616 129.971 596.511 134.843 600.186 139.102ZM602.744 86.5653H602.829V74.1164C603.076 71.0926 603.732 68.1158 604.78 65.2679L604.823 65.1697C606.202 61.6267 608.178 58.3462 610.671 55.47C613.322 52.4414 616.514 49.9328 620.086 48.0723L620.405 47.9111C624.465 46.1299 628.85 45.2147 633.284 45.2243H633.41C637.838 45.2146 642.223 46.1298 646.277 47.9111L646.602 48.0723C650.18 49.9299 653.378 52.4426 656.029 55.479C658.51 58.3529 660.492 61.6303 661.871 65.1697V65.2679C663.191 68.7772 663.883 72.4907 663.919 76.2391V108.562C663.883 112.31 663.191 116.024 661.871 119.533V119.631C660.492 123.176 658.51 126.457 656.017 129.331C653.372 132.364 650.174 134.873 646.602 136.729L646.277 136.89C642.223 138.672 637.832 139.587 633.404 139.577H633.32C628.887 139.585 624.501 138.67 620.442 136.89L620.122 136.729C616.55 134.868 613.358 132.359 610.708 129.331C608.214 126.454 606.238 123.174 604.859 119.631V119.533C603.534 116.025 602.841 112.31 602.811 108.562L602.744 86.5653Z" fill="#63EA7A"/>
<path d="M997.484 31.6651H977.721L927.099 82.231V0.453125H913.119V152.071H927.099V101.97L977.263 152.071H997.02L936.972 92.1006L997.484 31.6651Z" fill="#63EA7A"/>
<path d="M1011.63 20.2242H1008.72V28.3851H1006.94V20.2242H1004.03V18.752H1011.63V20.2242Z" fill="#63EA7A"/>
<path d="M1024 18.752V28.3851H1022.42V22.1628C1022.42 21.9141 1022.43 21.6454 1022.46 21.3568L1019.55 26.8263C1019.42 27.0883 1019.21 27.2193 1018.92 27.2193H1018.66C1018.38 27.2193 1018.17 27.0883 1018.03 26.8263L1015.09 21.3368C1015.1 21.4833 1015.12 21.6277 1015.12 21.7698C1015.13 21.9119 1015.13 22.043 1015.13 22.1628V28.3851H1013.56V18.752H1014.91C1014.99 18.752 1015.05 18.7541 1015.12 18.7586C1015.18 18.763 1015.22 18.7741 1015.27 18.7919C1015.31 18.8097 1015.36 18.8385 1015.39 18.8785C1015.43 18.9185 1015.47 18.9718 1015.51 19.0384L1018.39 24.3879C1018.47 24.5301 1018.54 24.6766 1018.6 24.8276C1018.66 24.9787 1018.73 25.1341 1018.79 25.294C1018.86 25.1297 1018.92 24.972 1018.99 24.821C1019.05 24.6656 1019.12 24.5168 1019.2 24.3746L1022.04 19.0384C1022.08 18.9718 1022.11 18.9185 1022.16 18.8785C1022.2 18.8385 1022.24 18.8097 1022.28 18.7919C1022.33 18.7741 1022.39 18.763 1022.45 18.7586C1022.5 18.7541 1022.57 18.752 1022.65 18.752H1024Z" fill="#63EA7A"/>
<path d="M920.335 206.974H921.823C922.335 206.974 922.75 206.913 923.063 206.79C923.371 206.655 923.66 206.431 923.913 206.119L933.611 195.141C933.882 194.789 934.171 194.545 934.466 194.409C934.767 194.274 935.129 194.206 935.562 194.206H938.899L927.798 206.75C927.527 207.075 927.262 207.346 927.003 207.563C926.762 207.766 926.497 207.936 926.214 208.072C926.581 208.193 926.913 208.376 927.208 208.62C927.509 208.85 927.798 209.156 928.081 209.535L939.67 223.339H936.255C935.996 223.339 935.773 223.326 935.586 223.299C935.406 223.258 935.255 223.204 935.117 223.136C934.984 223.055 934.858 222.967 934.749 222.872C934.659 222.764 934.562 222.641 934.466 222.506L924.425 210.938C924.154 210.599 923.859 210.362 923.551 210.226C923.238 210.077 922.762 210.003 922.124 210.003H920.335V223.339H916.414V194.206H920.335V206.974Z" fill="#521B74"/>
<path d="M898.801 194.206V223.339H896.825C896.518 223.339 896.253 223.285 896.036 223.177C895.831 223.068 895.627 222.886 895.422 222.628L878.568 200.671C878.598 201.01 878.616 201.342 878.634 201.667C878.646 201.993 878.652 202.297 878.652 202.582V223.339H875.195V194.206H877.231C877.405 194.206 877.556 194.219 877.676 194.246C877.797 194.26 877.905 194.294 878.002 194.348C878.098 194.389 878.189 194.457 878.285 194.552C878.381 194.633 878.484 194.742 878.592 194.877L895.446 216.814C895.416 216.461 895.392 216.122 895.362 215.797C895.35 215.458 895.344 215.14 895.344 214.841V194.206H898.801Z" fill="#521B74"/>
<path d="M852.986 212.524L848.414 200.671C848.276 200.319 848.137 199.912 847.987 199.451C847.836 198.977 847.691 198.476 847.559 197.947C847.276 199.045 846.981 199.96 846.685 200.692L842.108 212.524H852.986ZM861.202 223.339H858.148C857.799 223.339 857.516 223.252 857.299 223.076C857.082 222.899 856.919 222.676 856.811 222.405L854.082 215.37H841.011L838.289 222.405C838.204 222.649 838.048 222.865 837.819 223.055C837.59 223.245 837.307 223.339 836.964 223.339H833.916L845.565 194.206H849.553L861.202 223.339Z" fill="#521B74"/>
<path d="M811.682 220.209C812.809 220.209 813.779 220.08 814.592 219.822C815.405 219.565 816.068 219.206 816.586 218.745C817.116 218.271 817.501 217.715 817.742 217.078C817.989 216.427 818.11 215.715 818.11 214.943C818.11 213.439 817.573 212.253 816.501 211.385C815.435 210.505 813.827 210.064 811.682 210.064H805.382V220.209H811.682ZM805.382 197.317V207.258H810.586C811.701 207.258 812.658 207.136 813.471 206.892C814.303 206.648 814.977 206.309 815.507 205.875C816.049 205.442 816.447 204.92 816.706 204.31C816.965 203.686 817.092 203.009 817.092 202.277C817.092 200.556 816.58 199.302 815.55 198.516C814.519 197.717 812.917 197.317 810.749 197.317H805.382ZM810.749 194.206C812.538 194.206 814.08 194.382 815.363 194.734C816.664 195.087 817.73 195.588 818.555 196.239C819.399 196.89 820.013 197.689 820.404 198.638C820.802 199.573 820.995 200.63 820.995 201.81C820.995 202.528 820.88 203.219 820.651 203.883C820.435 204.534 820.103 205.144 819.652 205.713C819.206 206.282 818.64 206.797 817.947 207.258C817.266 207.705 816.471 208.072 815.55 208.356C817.688 208.763 819.296 209.528 820.368 210.653C821.453 211.765 821.995 213.228 821.995 215.045C821.995 216.278 821.76 217.403 821.302 218.419C820.856 219.436 820.188 220.31 819.308 221.042C818.441 221.774 817.369 222.343 816.098 222.75C814.821 223.143 813.375 223.339 811.749 223.339H801.46V194.206H810.749Z" fill="#521B74"/>
<path d="M772.638 220.209C773.843 220.209 774.921 220.005 775.867 219.599C776.819 219.192 777.614 218.623 778.264 217.891C778.933 217.159 779.433 216.285 779.77 215.269C780.125 214.252 780.3 213.134 780.3 211.914V194.206H784.221V211.914C784.221 213.595 783.95 215.153 783.408 216.59C782.884 218.027 782.113 219.274 781.113 220.331C780.126 221.375 778.909 222.194 777.475 222.791C776.036 223.387 774.427 223.685 772.638 223.685C770.849 223.685 769.235 223.387 767.795 222.791C766.362 222.194 765.139 221.375 764.139 220.331C763.133 219.274 762.362 218.027 761.82 216.59C761.29 215.153 761.025 213.595 761.025 211.914V194.206H764.952V211.894C764.952 213.113 765.121 214.231 765.458 215.248C765.814 216.265 766.314 217.139 766.964 217.871C767.627 218.603 768.434 219.178 769.379 219.599C770.343 220.005 771.428 220.209 772.638 220.209Z" fill="#521B74"/>
<path d="M743.779 194.206V223.339H741.81C741.496 223.339 741.231 223.285 741.015 223.177C740.81 223.068 740.611 222.886 740.406 222.628L723.552 200.671C723.577 201.01 723.601 201.342 723.613 201.667C723.625 201.993 723.631 202.297 723.631 202.582V223.339H720.179V194.206H722.209C722.384 194.206 722.534 194.219 722.655 194.246C722.781 194.26 722.89 194.294 722.98 194.348C723.077 194.389 723.173 194.457 723.269 194.552C723.36 194.633 723.462 194.742 723.57 194.877L740.424 216.814C740.4 216.461 740.37 216.122 740.346 215.797C740.328 215.458 740.322 215.14 740.322 214.841V194.206H743.779Z" fill="#521B74"/>
<path d="M697.965 212.524L693.393 200.671C693.254 200.319 693.11 199.912 692.965 199.451C692.814 198.977 692.67 198.476 692.537 197.947C692.254 199.045 691.959 199.96 691.664 200.692L687.086 212.524H697.965ZM706.181 223.339H703.127C702.777 223.339 702.494 223.252 702.277 223.076C702.061 222.899 701.898 222.676 701.783 222.405L699.061 215.37H685.99L683.267 222.405C683.183 222.649 683.026 222.865 682.797 223.055C682.568 223.245 682.285 223.339 681.942 223.339H678.894L690.544 194.206H694.531L706.181 223.339Z" fill="#521B74"/>
<path d="M664.877 194.206V223.339H661.42V201.932C661.42 201.647 661.426 201.342 661.444 201.017C661.468 200.692 661.498 200.359 661.522 200.021L651.523 218.237C651.21 218.847 650.734 219.151 650.096 219.151H649.529C648.891 219.151 648.415 218.847 648.108 218.237L637.898 199.939C637.982 200.657 638.018 201.322 638.018 201.932V223.339H634.567V194.206H637.47C637.826 194.206 638.097 194.24 638.283 194.308C638.476 194.375 638.657 194.565 638.832 194.877L648.897 212.809C649.059 213.134 649.216 213.472 649.367 213.825C649.529 214.177 649.68 214.537 649.812 214.902C649.951 214.537 650.09 214.177 650.24 213.825C650.391 213.459 650.553 213.113 650.728 212.788L660.607 194.877C660.769 194.565 660.95 194.375 661.137 194.308C661.342 194.24 661.619 194.206 661.968 194.206H664.877Z" fill="#521B74"/>
<path d="M597.124 217.322C597.341 217.322 597.531 217.41 597.693 217.586L599.259 219.274C598.066 220.656 596.616 221.734 594.908 222.506C593.214 223.279 591.161 223.665 588.748 223.665C586.661 223.665 584.763 223.306 583.056 222.587C581.348 221.855 579.891 220.839 578.684 219.538C577.478 218.223 576.543 216.651 575.878 214.821C575.215 212.991 574.883 210.979 574.883 208.783C574.883 206.587 575.228 204.574 575.919 202.744C576.611 200.915 577.58 199.343 578.826 198.028C580.087 196.713 581.592 195.697 583.34 194.978C585.088 194.246 587.02 193.881 589.134 193.881C591.208 193.881 593.038 194.213 594.624 194.877C596.209 195.541 597.605 196.442 598.812 197.581L597.511 199.39C597.429 199.526 597.32 199.641 597.185 199.736C597.063 199.817 596.894 199.858 596.677 199.858C596.433 199.858 596.135 199.729 595.783 199.471C595.43 199.2 594.969 198.902 594.4 198.577C593.83 198.252 593.119 197.961 592.265 197.703C591.411 197.432 590.361 197.296 589.114 197.296C587.609 197.296 586.234 197.561 584.987 198.089C583.74 198.604 582.662 199.356 581.754 200.346C580.86 201.335 580.162 202.542 579.66 203.965C579.159 205.388 578.908 206.994 578.908 208.783C578.908 210.599 579.166 212.219 579.681 213.642C580.209 215.065 580.921 216.272 581.815 217.261C582.724 218.236 583.787 218.982 585.007 219.497C586.241 220.012 587.569 220.27 588.992 220.27C589.859 220.27 590.639 220.222 591.33 220.127C592.035 220.019 592.679 219.856 593.261 219.639C593.858 219.422 594.407 219.151 594.908 218.826C595.423 218.488 595.931 218.088 596.433 217.627C596.663 217.423 596.894 217.322 597.124 217.322Z" fill="#521B74"/>
<path d="M550.445 220.209C551.571 220.209 552.54 220.08 553.353 219.822C554.166 219.565 554.831 219.206 555.346 218.745C555.874 218.271 556.26 217.715 556.504 217.078C556.748 216.427 556.87 215.715 556.87 214.943C556.87 213.439 556.335 212.253 555.264 211.385C554.193 210.505 552.587 210.064 550.445 210.064H544.143V220.209H550.445ZM544.143 197.317V207.258H549.348C550.459 207.258 551.421 207.136 552.235 206.892C553.061 206.648 553.739 206.309 554.268 205.875C554.81 205.442 555.21 204.92 555.467 204.31C555.725 203.686 555.853 203.009 555.853 202.277C555.853 200.556 555.338 199.302 554.308 198.516C553.278 197.717 551.679 197.317 549.511 197.317H544.143ZM549.511 194.206C551.3 194.206 552.838 194.382 554.125 194.734C555.427 195.087 556.491 195.588 557.318 196.239C558.158 196.89 558.774 197.689 559.167 198.638C559.56 199.573 559.757 200.63 559.757 201.81C559.757 202.528 559.642 203.219 559.411 203.883C559.195 204.534 558.863 205.144 558.415 205.713C557.968 206.282 557.399 206.797 556.707 207.258C556.03 207.705 555.23 208.072 554.308 208.356C556.45 208.763 558.056 209.528 559.126 210.653C560.211 211.765 560.753 213.228 560.753 215.045C560.753 216.278 560.523 217.403 560.062 218.419C559.614 219.436 558.951 220.31 558.069 221.042C557.202 221.774 556.132 222.343 554.858 222.75C553.583 223.143 552.133 223.339 550.507 223.339H540.219V194.206H549.511Z" fill="#521B74"/>
<path d="M522.604 194.206V223.339H519.148V201.932C519.148 201.647 519.155 201.342 519.168 201.017C519.195 200.692 519.222 200.359 519.249 200.021L509.247 218.237C508.935 218.847 508.461 219.151 507.824 219.151H507.255C506.617 219.151 506.143 218.847 505.831 218.237L495.626 199.939C495.707 200.657 495.747 201.322 495.747 201.932V223.339H492.291V194.206H495.199C495.551 194.206 495.822 194.24 496.012 194.308C496.202 194.375 496.385 194.565 496.561 194.877L506.624 212.809C506.787 213.134 506.943 213.472 507.092 213.825C507.255 214.177 507.403 214.537 507.539 214.902C507.675 214.537 507.817 214.177 507.966 213.825C508.115 213.459 508.278 213.113 508.454 212.788L518.335 194.877C518.498 194.565 518.673 194.375 518.863 194.308C519.067 194.24 519.345 194.206 519.697 194.206H522.604Z" fill="#521B74"/>
<path d="M474.95 198.76C474.828 198.964 474.693 199.119 474.543 199.227C474.408 199.323 474.238 199.37 474.035 199.37C473.805 199.37 473.534 199.254 473.222 199.024C472.91 198.794 472.517 198.543 472.043 198.272C471.582 197.988 471.02 197.73 470.355 197.499C469.705 197.269 468.912 197.154 467.976 197.154C467.096 197.154 466.316 197.276 465.639 197.52C464.974 197.75 464.412 198.069 463.951 198.476C463.504 198.882 463.165 199.363 462.935 199.919C462.704 200.461 462.589 201.051 462.589 201.687C462.589 202.501 462.785 203.179 463.179 203.721C463.585 204.249 464.114 204.703 464.765 205.083C465.428 205.462 466.174 205.794 467.001 206.079C467.841 206.35 468.695 206.634 469.562 206.933C470.444 207.231 471.297 207.57 472.124 207.949C472.964 208.315 473.71 208.783 474.361 209.352C475.025 209.922 475.553 210.62 475.946 211.446C476.353 212.273 476.556 213.289 476.556 214.496C476.556 215.77 476.339 216.97 475.906 218.094C475.472 219.206 474.835 220.175 473.994 221.002C473.167 221.828 472.145 222.479 470.925 222.953C469.718 223.427 468.343 223.665 466.798 223.665C464.9 223.665 463.179 223.326 461.634 222.649C460.089 221.957 458.767 221.029 457.669 219.863L458.807 217.992C458.916 217.844 459.045 217.721 459.194 217.627C459.357 217.518 459.533 217.464 459.722 217.464C459.899 217.464 460.095 217.539 460.312 217.688C460.543 217.823 460.8 218 461.085 218.217C461.369 218.433 461.694 218.67 462.061 218.928C462.426 219.186 462.84 219.422 463.301 219.639C463.775 219.856 464.31 220.039 464.907 220.189C465.503 220.324 466.174 220.392 466.919 220.392C467.855 220.392 468.688 220.263 469.42 220.006C470.152 219.748 470.769 219.389 471.27 218.928C471.785 218.453 472.178 217.891 472.449 217.241C472.721 216.59 472.856 215.865 472.856 215.065C472.856 214.184 472.652 213.466 472.246 212.91C471.853 212.341 471.331 211.867 470.68 211.487C470.03 211.108 469.285 210.789 468.444 210.531C467.604 210.26 466.75 209.989 465.883 209.718C465.015 209.434 464.161 209.108 463.321 208.742C462.481 208.376 461.735 207.902 461.085 207.319C460.434 206.736 459.905 206.011 459.499 205.144C459.106 204.263 458.909 203.178 458.909 201.891C458.909 200.861 459.106 199.865 459.499 198.902C459.905 197.94 460.488 197.086 461.248 196.341C462.02 195.595 462.962 194.999 464.073 194.551C465.198 194.104 466.486 193.881 467.936 193.881C469.562 193.881 471.04 194.138 472.368 194.653C473.71 195.168 474.889 195.914 475.906 196.89L474.95 198.76Z" fill="#521B74"/>
<path d="M411.219 197.418V207.604H423.194V210.816H411.219V223.339H407.275V194.206H425.227V197.418H411.219Z" fill="#521B74"/>
<path d="M391.469 208.783C391.469 210.965 391.123 212.971 390.431 214.801C389.741 216.617 388.765 218.182 387.504 219.497C386.243 220.812 384.725 221.835 382.95 222.567C381.188 223.285 379.236 223.644 377.095 223.644C374.953 223.644 373.002 223.285 371.239 222.567C369.477 221.835 367.966 220.812 366.706 219.497C365.445 218.182 364.469 216.617 363.778 214.801C363.087 212.971 362.741 210.965 362.741 208.783C362.741 206.601 363.087 204.602 363.778 202.785C364.469 200.956 365.445 199.383 366.706 198.069C367.966 196.74 369.477 195.71 371.239 194.978C373.002 194.246 374.953 193.881 377.095 193.881C379.236 193.881 381.188 194.246 382.95 194.978C384.725 195.71 386.243 196.74 387.504 198.069C388.765 199.383 389.741 200.956 390.431 202.785C391.123 204.602 391.469 206.601 391.469 208.783ZM387.423 208.783C387.423 206.994 387.179 205.388 386.691 203.965C386.203 202.542 385.511 201.342 384.617 200.366C383.722 199.377 382.638 198.618 381.364 198.089C380.09 197.561 378.667 197.296 377.095 197.296C375.536 197.296 374.12 197.561 372.846 198.089C371.572 198.618 370.48 199.377 369.573 200.366C368.678 201.342 367.987 202.542 367.499 203.965C367.011 205.388 366.767 206.994 366.767 208.783C366.767 210.572 367.011 212.178 367.499 213.601C367.987 215.011 368.678 216.21 369.573 217.2C370.48 218.176 371.572 218.928 372.846 219.457C374.12 219.972 375.536 220.229 377.095 220.229C378.667 220.229 380.09 219.972 381.364 219.457C382.638 218.928 383.722 218.176 384.617 217.2C385.511 216.21 386.203 215.011 386.691 213.601C387.179 212.178 387.423 210.572 387.423 208.783Z" fill="#521B74"/>
<path d="M326.367 194.206V223.339H324.395C324.083 223.339 323.819 223.285 323.602 223.177C323.399 223.068 323.196 222.886 322.992 222.628L306.138 200.671C306.165 201.01 306.186 201.342 306.199 201.667C306.213 201.993 306.219 202.297 306.219 202.582V223.339H302.763V194.206H304.796C304.973 194.206 305.121 194.219 305.244 194.246C305.366 194.26 305.474 194.294 305.569 194.348C305.664 194.389 305.759 194.457 305.854 194.552C305.948 194.633 306.05 194.742 306.159 194.877L323.012 216.814C322.985 216.461 322.958 216.122 322.931 215.797C322.918 215.458 322.911 215.14 322.911 214.841V194.206H326.367Z" fill="#521B74"/>
<path d="M286.955 208.783C286.955 210.965 286.609 212.971 285.918 214.801C285.227 216.617 284.251 218.182 282.991 219.497C281.73 220.812 280.212 221.835 278.436 222.567C276.674 223.285 274.723 223.644 272.581 223.644C270.44 223.644 268.488 223.285 266.726 222.567C264.964 221.835 263.453 220.812 262.192 219.497C260.932 218.182 259.956 216.617 259.265 214.801C258.574 212.971 258.228 210.965 258.228 208.783C258.228 206.601 258.574 204.602 259.265 202.785C259.956 200.956 260.932 199.383 262.192 198.069C263.453 196.74 264.964 195.71 266.726 194.978C268.488 194.246 270.44 193.881 272.581 193.881C274.723 193.881 276.674 194.246 278.436 194.978C280.212 195.71 281.73 196.74 282.991 198.069C284.251 199.383 285.227 200.956 285.918 202.785C286.609 204.602 286.955 206.601 286.955 208.783ZM282.909 208.783C282.909 206.994 282.665 205.388 282.178 203.965C281.689 202.542 280.998 201.342 280.104 200.366C279.209 199.377 278.125 198.618 276.85 198.089C275.576 197.561 274.154 197.296 272.581 197.296C271.023 197.296 269.606 197.561 268.332 198.089C267.058 198.618 265.967 199.377 265.059 200.366C264.164 201.342 263.473 202.542 262.985 203.965C262.497 205.388 262.254 206.994 262.254 208.783C262.254 210.572 262.497 212.178 262.985 213.601C263.473 215.011 264.164 216.21 265.059 217.2C265.967 218.176 267.058 218.928 268.332 219.457C269.606 219.972 271.023 220.229 272.581 220.229C274.154 220.229 275.576 219.972 276.85 219.457C278.125 218.928 279.209 218.176 280.104 217.2C280.998 216.21 281.689 215.011 282.178 213.601C282.665 212.178 282.909 210.572 282.909 208.783Z" fill="#521B74"/>
<path d="M242.421 223.339H238.477V194.206H242.421V223.339Z" fill="#521B74"/>
<path d="M221.135 198.76C221.014 198.964 220.878 199.119 220.729 199.227C220.593 199.323 220.424 199.37 220.22 199.37C219.99 199.37 219.719 199.254 219.407 199.024C219.096 198.794 218.703 198.543 218.228 198.272C217.768 197.988 217.205 197.73 216.541 197.499C215.89 197.269 215.097 197.154 214.162 197.154C213.281 197.154 212.502 197.276 211.824 197.52C211.16 197.75 210.598 198.069 210.137 198.476C209.69 198.882 209.35 199.363 209.12 199.919C208.89 200.461 208.775 201.051 208.775 201.687C208.775 202.501 208.971 203.179 209.364 203.721C209.771 204.249 210.3 204.703 210.95 205.083C211.614 205.462 212.36 205.794 213.186 206.079C214.026 206.35 214.881 206.634 215.748 206.933C216.629 207.231 217.483 207.57 218.31 207.949C219.15 208.315 219.895 208.783 220.546 209.352C221.21 209.922 221.739 210.62 222.132 211.446C222.538 212.273 222.742 213.289 222.742 214.496C222.742 215.77 222.525 216.97 222.091 218.094C221.658 219.206 221.02 220.175 220.18 221.002C219.353 221.828 218.33 222.479 217.11 222.953C215.904 223.427 214.528 223.665 212.983 223.665C211.086 223.665 209.364 223.326 207.819 222.649C206.274 221.957 204.953 221.029 203.854 219.863L204.993 217.992C205.101 217.844 205.23 217.721 205.38 217.627C205.542 217.518 205.718 217.464 205.908 217.464C206.084 217.464 206.281 217.539 206.498 217.688C206.728 217.823 206.986 218 207.27 218.217C207.555 218.433 207.88 218.67 208.246 218.928C208.612 219.186 209.025 219.422 209.486 219.639C209.961 219.856 210.496 220.039 211.092 220.189C211.689 220.324 212.36 220.392 213.105 220.392C214.04 220.392 214.874 220.263 215.606 220.006C216.338 219.748 216.954 219.389 217.456 218.928C217.971 218.453 218.364 217.891 218.635 217.241C218.906 216.59 219.042 215.865 219.042 215.065C219.042 214.184 218.838 213.466 218.431 212.91C218.039 212.341 217.516 211.867 216.866 211.487C216.215 211.108 215.47 210.789 214.63 210.531C213.79 210.26 212.936 209.989 212.068 209.718C211.201 209.434 210.347 209.108 209.506 208.742C208.666 208.376 207.921 207.902 207.27 207.319C206.619 206.736 206.091 206.011 205.684 205.144C205.291 204.263 205.095 203.178 205.095 201.891C205.095 200.861 205.291 199.865 205.684 198.902C206.091 197.94 206.674 197.086 207.433 196.341C208.205 195.595 209.147 194.999 210.259 194.551C211.384 194.104 212.671 193.881 214.122 193.881C215.748 193.881 217.226 194.138 218.554 194.653C219.895 195.168 221.075 195.914 222.091 196.89L221.135 198.76Z" fill="#521B74"/>
<path d="M188.616 223.339H184.672V194.206H188.616V223.339Z" fill="#521B74"/>
<path d="M170.675 194.206L158.802 223.339H155.264L143.391 194.206H146.542C146.894 194.206 147.179 194.294 147.396 194.47C147.613 194.646 147.776 194.87 147.884 195.141L156.098 215.696C156.274 216.156 156.443 216.658 156.606 217.2C156.782 217.742 156.938 218.311 157.074 218.907C157.209 218.311 157.351 217.742 157.501 217.2C157.649 216.658 157.812 216.156 157.989 215.696L166.182 195.141C166.263 194.911 166.418 194.701 166.649 194.511C166.893 194.308 167.185 194.206 167.523 194.206H170.675Z" fill="#521B74"/>
<path d="M129.372 223.339H125.428V194.206H129.372V223.339Z" fill="#521B74"/>
<path d="M109.58 208.783C109.58 210.965 109.234 212.951 108.544 214.74C107.852 216.529 106.876 218.06 105.616 219.334C104.355 220.608 102.837 221.598 101.062 222.303C99.2999 222.994 97.3476 223.339 95.2063 223.339H84.3296V194.206H95.2063C97.3476 194.206 99.2999 194.558 101.062 195.263C102.837 195.954 104.355 196.944 105.616 198.232C106.876 199.506 107.852 201.037 108.544 202.826C109.234 204.615 109.58 206.601 109.58 208.783ZM105.534 208.783C105.534 206.994 105.29 205.395 104.802 203.985C104.314 202.575 103.624 201.382 102.729 200.407C101.834 199.431 100.75 198.685 99.4758 198.17C98.2018 197.655 96.7784 197.398 95.2063 197.398H88.2738V220.148H95.2063C96.7784 220.148 98.2018 219.89 99.4758 219.375C100.75 218.86 101.834 218.121 102.729 217.159C103.624 216.184 104.314 214.991 104.802 213.581C105.29 212.171 105.534 210.572 105.534 208.783Z" fill="#521B74"/>
</g>
<defs>
<clipPath id="clip0_807_2824">
<rect width="1024" height="223.268" fill="white" transform="translate(0 0.416992)"/>
</clipPath>
</defs>
</svg>
