<svg width="405" height="513" viewBox="0 0 405 513" fill="none" xmlns="http://www.w3.org/2000/svg">
<g clip-path="url(#clip0_846_2876)">
<path d="M2.34209e-05 378.721V512.051H93.4737V384.49C93.4724 372.083 98.3956 360.182 107.162 351.402C111.5 347.058 116.651 343.611 122.322 341.259C127.992 338.907 134.071 337.696 140.21 337.696H236.052C280.763 337.683 323.638 319.891 355.25 288.234C386.861 256.576 404.621 213.645 404.625 168.88C404.625 124.108 386.862 81.1697 355.245 49.5087C323.627 17.8478 280.744 0.0572902 236.027 0.0507812H2.34209e-05V166.713H93.4737V88.1383H229.727C240.205 88.1394 250.58 90.2055 260.258 94.2186C269.937 98.2317 278.73 104.113 286.134 111.526C301.1 126.509 309.507 146.819 309.512 167.995C309.514 189.176 301.11 209.492 286.144 224.481C278.739 231.897 269.945 237.78 260.265 241.795C250.584 245.809 240.207 247.876 229.727 247.878H130.671C113.506 247.87 96.5085 251.249 80.652 257.821C64.7909 264.395 50.382 274.033 38.2496 286.183C26.1117 298.338 16.4872 312.765 9.92611 328.64C3.36258 344.52 -0.0102549 361.537 2.34209e-05 378.721Z" fill="url(#paint0_radial_846_2876)"/>
<path d="M140.184 337.695C121.771 337.699 103.54 341.332 86.5316 348.387C69.5237 355.441 54.0731 365.779 41.0631 378.809C14.7728 405.129 0.00325446 440.827 0 478.051V512.05H93.4737V384.49C93.4722 372.087 98.3919 360.19 107.153 351.41C111.488 347.067 116.636 343.62 122.304 341.266C127.971 338.913 134.047 337.7 140.184 337.695Z" fill="url(#paint1_linear_846_2876)"/>
</g>
<defs>
<radialGradient id="paint0_radial_846_2876" cx="0" cy="0" r="1" gradientUnits="userSpaceOnUse" gradientTransform="translate(406.097 -71.0371) scale(514.705 515.333)">
<stop stop-color="#A995FF"/>
<stop offset="1" stop-color="#6652F5"/>
</radialGradient>
<linearGradient id="paint1_linear_846_2876" x1="70.092" y1="486.833" x2="70.092" y2="290.915" gradientUnits="userSpaceOnUse">
<stop stop-color="#6D4BFD"/>
<stop offset="1" stop-color="#1C0554"/>
</linearGradient>
<clipPath id="clip0_846_2876">
<rect width="404.625" height="512" fill="white" transform="translate(0 0.0507812)"/>
</clipPath>
</defs>
</svg>
