<svg width="578" height="513" viewBox="0 0 578 513" fill="none" xmlns="http://www.w3.org/2000/svg">
<g clip-path="url(#clip0_825_239)">
<path fill-rule="evenodd" clip-rule="evenodd" d="M491.104 113.749C496.154 111.709 501.384 110.807 506.66 113.174C506.919 113.287 507.19 113.388 507.449 113.512C508.734 114.076 509.591 115.26 510.606 116.116C511.676 117.029 512.015 118.923 512.409 120.456C512.725 121.64 512.962 122.745 514.326 123.387C513.649 124.21 512.815 124.943 513.345 125.969C513.751 126.758 514.326 127.468 514.822 128.223V131.278C513.435 131.323 513.198 132.439 513.243 133.758L513.412 137.332L514.54 137.219C514.54 138.335 514.799 139.474 514.461 140.376C514.078 141.424 514.235 142.405 514.235 143.374C514.269 144.468 514.574 145.561 514.788 146.745C514.314 147.229 512.883 146.79 513.086 148.052C513.198 148.729 513.638 149.36 513.965 150.081C512.928 151.13 512.928 151.13 513.649 152.392C513.367 152.956 512.917 153.463 512.894 153.971C512.815 157.285 512.781 160.588 512.849 163.891C512.86 164.736 513.255 165.57 513.559 166.743C513.164 167.216 512.511 168.039 513.097 169.178C513.21 169.414 513.119 169.831 513.007 170.124C512.556 171.319 512.894 172.176 514.033 172.638C513.92 173.258 513.638 173.844 513.773 174.307C514.021 175.096 514.111 175.75 513.638 176.494C513.446 176.787 513.525 177.283 513.57 177.689C513.683 178.523 513.796 179.233 513.04 179.988C512.375 180.665 512.781 181.307 513.886 181.566L512.623 183.843L513.875 185.038C513.255 185.625 513.221 185.782 513.108 187.146C513.04 187.879 512.556 188.668 513.604 189.13C513.773 189.209 514.01 189.48 513.987 189.559C513.345 191.024 514.686 191.464 515.498 192.23C515.273 192.58 515.148 192.907 514.912 193.155C514.202 193.91 513.661 194.553 515.284 194.823C515.487 194.857 515.577 195.488 515.712 195.838C516.028 196.672 516.028 197.709 517.211 198.002C517.505 198.081 517.775 198.385 517.989 198.645C519.59 200.606 521.067 201.125 523.626 200.121C527.267 198.701 530.897 197.224 534.391 195.5C539.667 192.884 544.807 190.01 550.027 187.293C555.257 184.587 560.736 183.641 566.575 184.937C567.511 185.151 568.57 184.881 569.483 185.129C570.543 185.41 571.693 185.827 572.46 186.538C574.455 188.386 575.796 190.697 576.608 193.29C576.698 193.583 576.98 193.82 577.172 194.079V194.925C576.191 196.266 576.191 196.266 577.172 197.461V198.306C576.856 198.374 576.36 198.329 576.236 198.532C575.593 199.479 574.917 200.448 574.477 201.508C572.088 207.201 567.68 210.977 562.494 214.077C557.557 217.019 552.056 218.496 546.633 220.243C540.208 222.306 533.749 224.347 527.436 226.737C520.796 229.25 514.269 232.046 507.787 234.943C503.391 236.905 499.13 239.227 494.846 241.436C489.807 244.04 484.791 246.701 479.763 249.35C473.484 252.664 467.183 255.922 460.938 259.304C451.592 264.376 442.27 269.472 432.981 274.68C426.691 278.22 420.491 281.94 414.246 285.592C408.913 288.714 403.536 291.781 398.261 294.993C393.605 297.834 389.028 300.833 384.452 303.797C382.456 305.094 380.664 306.751 378.556 307.833C373.325 310.516 368.557 313.898 363.698 317.145C361.466 318.644 359.302 320.222 357.104 321.766C356.878 321.924 356.54 322.093 356.472 322.319C355.988 324.01 354.409 324.528 353.124 325.306C351.625 326.219 350.532 327.132 350.656 329.195C350.791 331.495 350.419 333.828 350.272 336.151C350.25 336.421 350.16 336.804 350.295 336.973C351.039 337.875 350.475 338.495 349.957 339.194C349.731 339.51 349.427 340.152 349.551 340.288C350.847 341.719 349.618 343.049 349.461 344.526C350.565 345.496 350.486 346.668 350.137 348.1C349.742 349.61 348.615 351.234 350.058 352.857C350.115 352.936 349.461 353.635 348.931 354.311C348.953 354.379 348.931 354.92 349.19 355.303C349.912 356.43 350.036 357.49 349.337 358.651C349.19 358.922 349.111 359.44 349.269 359.643C350.103 360.849 349.495 361.999 349.382 363.228C349.134 366.069 349.179 368.943 349.269 371.795C349.314 372.889 349.077 374.072 349.754 375.121C349.912 375.369 349.878 375.989 349.697 376.135C348.649 376.947 348.829 377.826 349.145 378.75C349.393 379.427 349.54 380.611 349.517 381.343C349.404 385.131 349.269 388.919 349.134 392.717C349.1 393.811 349.134 394.938 348.908 396.009C348.762 396.764 348.717 397.351 349.303 397.914C349.416 398.027 349.449 398.309 349.427 398.512C349.258 400.112 348.931 401.713 348.897 403.325C348.863 404.813 349.122 406.313 349.235 407.609C348.728 408.364 348.063 409.007 347.837 409.785C347.601 410.596 347.781 411.532 347.781 412.434C348.311 412.772 348.908 413.11 349.427 413.527C349.596 413.651 349.54 414.034 349.596 414.373L347.68 414.835L349.032 416.638C348.965 417.134 348.728 417.676 348.897 417.901C349.641 418.837 349.404 419.671 348.965 420.606C348.457 421.711 348.097 422.861 347.612 424.157C348.085 425.431 348.683 426.931 349.179 428.475C349.303 428.869 349.269 429.591 349.021 429.783C347.127 431.282 347.623 432.883 348.672 434.551L349.213 435.408C347.634 435.971 347.071 437.223 347.68 438.677C347.758 438.846 347.95 439.116 348.074 439.116C349.258 439.071 349.201 440.199 349.799 440.83L348.57 441.518C349.168 443.919 349.168 443.919 348.435 445.519L350.825 448.022L349.664 451.009L351.016 451.178C350.374 452.193 350.441 453.117 351.501 453.782C351.061 455.259 352.369 456.601 351.76 458.122L350.374 458.731C351.388 459.746 350.994 460.681 350.644 461.696C350.272 462.778 351.14 464.243 352.166 464.12C353.406 463.962 353.519 464.762 353.463 465.405C353.248 467.693 354.083 469.632 355.323 471.56C354.691 473.025 354.128 474.547 352.268 475.054L353.846 475.313L353.891 475.652L352.471 476.272C352.527 477.207 352.628 478.289 352.662 479.36C352.696 480.51 353.305 480.995 354.421 480.984C355.458 480.972 356.596 481.694 356.258 482.427C355.695 483.61 356.63 483.712 357.104 484.366C355.943 484.997 356.968 487.274 354.736 487.353L355.92 487.804L354.917 489.574C355.537 490.509 356.54 491.197 356.754 492.471C356.833 492.899 357.881 493.17 358.603 493.575C357.746 494.443 356.946 495.233 357.171 496.495C357.205 496.721 356.788 496.98 356.641 497.262C356.36 497.78 356.123 498.333 355.83 498.941L357.701 500.012C356.991 500.655 356.157 501.196 355.616 501.951C355.086 502.684 355.007 503.721 354.488 504.442C353.665 505.57 352.786 506.787 351.648 507.554C349.912 508.737 348.063 509.752 346.225 510.789C345.042 511.454 343.723 511.882 342.37 511.984C340.657 512.097 339.157 512.119 337.466 511.623C336.948 511.432 336.452 511.195 335.911 511.06C332.754 510.225 329.993 508.782 327.704 506.37C325.991 504.566 325.427 502.323 324.694 500.147C322.519 493.767 322.293 487.184 322.688 480.533C322.958 475.685 322.902 470.816 323.071 465.968C323.184 462.316 323.488 458.663 323.635 455.011C323.759 451.708 323.747 448.405 323.849 445.091C323.928 442.228 324.086 439.364 324.164 436.501C324.232 433.976 324.3 431.462 324.255 428.937C324.221 426.976 323.939 425.014 323.939 423.053C323.95 420.798 324.21 418.566 324.277 416.323C324.311 415.432 324.164 414.542 324.108 413.651C324.074 413.313 323.871 412.817 324.018 412.67C325.19 411.453 324.66 409.987 324.672 408.646C324.717 401.037 324.706 393.428 324.717 385.83L324.739 366.835C324.739 361.83 324.739 356.825 324.784 351.82C324.807 350.151 324.999 348.483 325.066 346.815C325.078 346.341 324.954 345.868 324.863 345.214C322.338 346.172 320.163 347.502 318.122 348.956C314.267 351.707 310.513 354.615 306.737 357.49C302.802 360.488 298.88 363.521 294.979 366.565L286.637 373.137C283.774 375.357 280.82 377.443 278.025 379.731C273.132 383.711 268.353 387.825 263.483 391.816C260.124 394.544 256.64 397.114 253.292 399.853L238.198 412.31C234.647 415.218 231.04 418.07 227.455 420.945C227.286 421.08 227.106 421.193 226.959 421.339C224.975 423.357 222.991 425.364 221.041 427.393C220.116 428.362 219.35 429.478 218.347 430.357C216.081 432.353 213.635 434.168 211.402 436.219C209.013 438.395 206.803 440.774 204.492 443.039C203.14 444.37 201.697 445.598 200.378 446.951C199.645 447.706 199.093 448.619 198.427 449.431C197.751 450.231 197.052 451.009 196.342 451.765C195.282 452.892 194.223 454.019 193.129 455.113L178.813 469.271C178.159 469.902 177.618 470.647 177.009 471.334L172.105 476.824C171.542 477.455 170.956 478.064 170.358 478.673L167.405 481.66C166.954 482.111 166.458 482.528 166.007 482.968C164.136 484.794 162.287 486.654 160.404 488.458L154.847 493.643C153.111 495.3 151.161 496.281 148.669 496.371C144.464 496.518 140.463 496.089 136.765 493.857C134.736 492.64 133.304 491.039 132.233 488.987C130.971 486.552 130.486 483.892 130.351 481.254C130.261 479.518 130.543 477.579 131.704 476.035C133.417 473.78 135.119 471.526 136.855 469.294C141.522 463.274 147.249 458.269 152.761 453.061C156.684 449.375 160.686 445.767 164.632 442.115C167.901 439.071 171.102 435.96 174.428 432.984C177.956 429.805 181.575 426.728 185.182 423.65C189.285 420.156 193.411 416.695 197.559 413.279C201.009 410.427 204.549 407.722 207.976 404.847C210.737 402.536 213.319 400.022 216.058 397.678C217.817 396.178 219.733 394.859 221.548 393.405L231.806 385.142L240.295 378.356C242.324 376.721 244.375 375.087 246.438 373.475C247.825 372.381 249.257 371.344 250.632 370.228C251.725 369.326 252.661 368.233 253.788 367.41L267.834 357.467C271.464 354.863 274.981 352.113 278.6 349.497L288.317 342.632C291.417 340.412 294.494 338.157 297.561 335.869C302.724 331.991 307.819 328.034 313.038 324.213C316.521 321.654 320.118 319.253 323.702 316.829C324.288 316.446 324.683 315.814 324.751 315.115C325.032 312.365 325.111 309.614 324.818 306.852C324.672 305.398 324.852 303.922 324.762 302.456C324.728 301.904 324.435 301.058 324.063 300.923C323.635 300.776 322.913 301.193 322.428 301.52C319.791 303.245 317.187 305.026 314.571 306.785C314.346 306.943 313.917 307.078 313.636 307.1C311.64 307.292 309.893 308.216 308.089 308.96C307.582 309.163 307.12 309.502 306.613 309.704C306.241 309.874 305.733 310.122 305.44 309.998C304.121 309.445 302.96 310.043 301.743 310.313C298.327 311.091 294.866 311.576 291.372 311.362C285.465 311.001 280.55 308.6 276.909 303.978C275.128 301.723 274.395 298.973 273.764 296.211C272.467 290.507 272.862 284.713 272.907 278.941C272.918 276.19 272.997 273.44 272.93 270.689C272.896 269.156 272.58 267.646 272.456 266.112C272.388 265.414 272.31 264.647 272.535 264.016C274.046 259.574 273.392 254.919 274.023 250.409C275.015 243.251 275.939 236.07 278.216 229.149C280.302 222.814 283.267 216.907 287.257 211.518C289.016 209.14 290.594 206.558 292.657 204.461C294.866 202.207 297.561 200.415 300.052 198.453C300.435 198.149 300.988 198.036 301.337 197.698C304.482 194.71 308.642 194.09 312.576 192.941C314.526 192.377 316.488 192.715 318.28 193.504C319.058 193.854 319.994 194.789 320.309 195.578C320.85 196.931 321.087 198.352 320.535 199.93C320.118 201.113 320.151 202.5 319.881 203.796C319.317 206.423 317.547 208.384 316.364 210.673C316.014 211.349 315.101 211.766 314.425 212.274C313.32 213.085 312.418 214.032 311.967 215.374C311.787 215.892 311.516 216.501 311.088 216.783C309.904 217.606 309.532 218.755 308.957 219.995C308.394 221.235 307.582 222.498 306.872 223.738C306.399 224.572 306.083 225.519 305.835 226.443C305.497 227.661 305.328 228.867 304.369 229.87C303.761 230.49 303.468 231.46 303.208 232.328C302.588 234.425 302.25 236.612 301.472 238.641C300.706 240.625 300.593 242.699 300.255 244.75C300.086 245.776 300.277 246.813 300.706 247.76C301.326 249.113 301.416 250.285 300.74 251.616C300.379 252.348 300.289 253.228 300.176 254.051C299.928 255.719 299.714 257.387 299.556 259.067C299.454 260.183 299.477 261.322 299.443 262.438C299.443 262.934 299.556 263.452 299.443 263.903C298.417 267.679 299.004 271.501 299.353 275.255C299.545 277.216 300.379 279.2 301.337 280.981C302.555 283.258 304.685 284.374 307.391 284.138C312.215 283.709 316.116 281.568 319.498 278.129C322.676 274.905 323.928 270.949 324.615 266.744C325.596 260.702 326.566 254.659 327.095 248.549C327.411 244.908 328.087 241.29 328.268 237.637C328.369 235.777 328.955 233.85 328.155 231.978C328.087 231.832 328.121 231.584 328.211 231.449C329.451 229.746 329.17 227.729 329.339 225.812C329.677 222.385 330.015 218.936 330.252 215.509C330.624 210.233 330.861 204.957 331.266 199.693C331.537 196.255 331.819 192.794 332.461 189.412C333.341 184.835 336.452 182.04 340.645 180.101C343.689 178.681 346.823 178.466 350.024 178.861C352.121 179.109 354.026 179.909 355.593 181.6C357.284 183.438 358.107 185.974 357.78 188.443C357.6 189.829 357.645 191.261 357.656 192.681C357.656 193.132 357.927 193.594 357.994 194.068C358.062 194.417 358.051 194.789 357.994 195.139C357.949 195.319 357.611 195.522 357.656 195.635C358.535 198.228 356.382 200.775 357.566 203.357C356.574 205.825 357.814 208.418 356.777 211.056C355.785 213.536 355.965 216.512 355.773 219.285C355.435 224.11 355.266 228.969 354.894 233.805C354.522 238.652 353.981 243.465 353.541 248.301C353.339 250.409 353.226 252.517 353.034 254.625C352.933 255.73 352.606 256.824 352.583 257.928C352.549 261.062 352.358 264.196 352.02 267.319C351.839 268.976 351.828 270.622 352.335 272.313C352.673 273.44 352.211 274.77 352.11 276.01C351.997 277.746 351.546 279.538 351.862 281.196C352.223 283.157 351.715 284.938 351.524 286.798C351.377 288.32 351.321 289.853 351.287 291.386C351.242 293.201 351.264 295.016 351.287 296.831C351.298 297.304 351.445 297.767 351.58 298.544C352.358 298.184 353 297.958 353.553 297.597C356.63 295.591 359.651 293.472 362.785 291.51C368.433 287.982 374.148 284.544 379.83 281.06C384.294 278.31 388.769 275.57 393.21 272.797C396.096 271.005 398.903 269.1 401.812 267.364C403.39 266.417 405.081 265.662 406.772 264.884C408.688 263.982 410.548 263.024 412.081 261.513C412.352 261.254 412.791 261.13 413.175 261.006C414.02 260.724 414.978 260.634 415.734 260.194C421.133 257.083 426.477 253.87 431.876 250.748C436.543 248.053 441.255 245.427 445.956 242.789L469.922 229.386L486.651 220.007C488.263 219.105 489.841 218.158 491.431 217.211C491.859 216.963 492.287 216.692 492.659 216.366C493.595 215.576 493.493 215.159 492.434 214.449C491.205 213.626 489.875 212.86 488.928 211.778C487.226 209.839 486.166 207.516 486.087 204.901C485.997 201.801 486.042 198.701 485.974 195.601C485.896 191.825 486.594 188.116 486.82 184.373C486.854 183.877 486.955 183.336 486.809 182.908C485.884 180.225 486.301 177.632 487.158 175.039C487.271 174.712 487.282 174.363 487.181 174.036C486.741 172.717 486.245 171.398 487.226 170.091C486.82 165.796 489.063 161.681 486.583 157.172C485.163 154.579 485.433 151.479 486.831 148.898C488.669 145.527 487.71 143.385 486.11 141.57C485.704 141.119 485.129 140.556 484.577 140.499C481.815 140.195 478.997 139.305 476.359 141.131C474.634 142.337 472.706 143.25 471.072 144.558C470.001 145.437 469.212 146.609 468.626 147.861C468.22 148.684 467.69 149.202 467.025 149.732C465.672 150.803 464.331 151.817 463.79 153.677C463.553 154.523 462.324 155.098 461.4 155.898C461.242 157.352 461.219 159.055 460.047 160.43C459.822 160.7 459.855 161.219 459.81 161.613C459.63 163.034 460.103 164.578 459.021 165.841C458.931 165.954 458.987 166.235 459.021 166.427C459.28 167.644 459.292 167.644 457.962 167.419L457.353 168.794L458.288 169.414V172.199C457.781 172.424 456.992 172.537 456.722 172.976C456.451 173.405 456.586 174.183 456.722 174.758C456.924 175.637 457.251 176.482 457.578 177.317C457.928 178.207 457.826 178.895 457.094 179.582C456.395 180.247 455.741 181.025 455.312 181.882C455.087 182.333 455.132 183.37 455.448 183.573C456.8 184.486 456.53 185.873 456.755 187.124L457.015 188.77C456.564 188.961 456.113 189.728 455.414 188.815C455.121 190.066 454.084 191.182 455.211 192.49C455.267 192.546 455.2 192.76 455.132 192.873C453.667 195.646 454.602 198.645 454.32 201.531C454.219 202.624 455.245 202.207 455.707 202.703C454.85 203.999 453.543 205.284 455.166 206.806L454.399 207.528L455.865 208.711C455.572 209.703 455.211 210.605 455.053 211.541C454.907 212.386 455.324 213.604 454.873 214.088C453.892 215.148 454.895 215.689 455.042 216.478C455.155 217.019 455.008 217.696 454.749 218.203C453.881 219.939 452.911 221.63 451.987 223.332C451.953 223.389 451.885 223.445 451.874 223.513C451.48 226.894 448.605 228.179 446.238 229.758C444.321 231.043 442.089 231.899 439.981 232.891C437.422 234.098 434.694 234.098 432.023 233.557C428.663 232.88 427.277 230.705 426.713 226.861C426.488 225.418 426.488 223.952 426.544 222.487C426.916 214.776 427.378 207.077 427.762 199.377C427.931 196.063 427.976 192.76 428.134 189.457C428.404 183.979 428.742 178.5 429.013 173.033C429.238 168.738 429.396 164.443 429.61 160.148C429.734 157.544 429.734 154.917 430.106 152.336C430.839 147.331 432.812 142.641 436.442 139.181C440.883 134.931 446.283 132.248 452.832 133.105C453.497 133.195 454.501 133.014 455.076 132.654C456.564 131.752 457.781 131.977 459.393 132.676C461.422 133.555 463.767 133.781 465.988 132.935C469.257 131.695 472.019 129.79 474.104 127.051C474.611 126.397 475.446 125.36 476.021 124.774C477.869 122.936 479.695 121.088 481.567 119.284C482.063 118.788 482.638 118.382 483.258 118.044C485.85 116.579 488.353 114.854 491.104 113.749ZM207.57 0.164198C208.573 -0.0161673 211.076 0.0514712 212.113 0.141654C213.916 0.299473 216.024 0.896931 218.02 1.49439C225.099 3.63623 229.698 8.12281 231.694 15.2247C232.483 18.0316 232.821 20.816 232.708 23.7018C232.595 27.1739 231.446 30.2852 229.529 33.1485C228.492 34.6816 227.342 36.1358 226.283 37.6576C226.091 37.9281 225.922 38.334 225.978 38.6271C226.215 40.0023 225.144 40.8816 224.693 41.9751C224.58 42.2231 224.163 42.4034 223.848 42.5162C222.461 43.0234 221.176 43.5646 220.951 45.3006C220.86 45.9431 220.398 45.9995 219.733 45.6613C218.301 47.0253 216.791 48.2879 215.495 49.7308C211.662 54.0257 208.021 58.4785 204.966 63.3483C203.906 65.0393 203.23 66.9556 202.069 68.5451C196.962 75.5568 194.403 83.7634 190.796 91.4627C188.699 95.9493 186.85 100.537 184.821 105.058C184.258 106.343 183.919 107.594 183.987 109.003C184.021 109.747 183.773 110.548 183.48 111.247C183.063 112.227 182.454 113.118 181.992 114.087C180.56 117.041 179.106 119.972 177.776 122.97C177.111 124.47 176.592 126.048 176.243 127.648C175.848 129.385 175.273 130.974 174.315 132.518C173.492 133.837 173.109 135.427 172.601 136.926C171.903 139 171.316 141.108 170.617 143.182C169.907 145.268 169.062 147.308 168.397 149.405C167.833 151.231 167.382 153.091 166.965 154.963C166.244 158.254 165.522 161.523 163.966 164.544C163.561 165.334 163.583 166.089 164.034 166.799C164.553 167.588 164.26 168.129 163.809 168.907C162.749 170.79 161.565 172.582 161.103 174.825C160.494 177.734 159.942 180.698 158.375 183.359C157.552 184.757 157.022 186.199 156.91 187.947C156.707 190.99 155.94 193.989 155.478 197.01C155.365 197.754 155.534 198.543 155.534 199.31C155.534 201.361 154.655 203.176 153.855 205.003C153.719 205.318 153.483 205.701 153.178 205.814C151.521 206.491 151.228 208.001 150.845 209.467L149.537 214.427C149.458 214.697 149.357 215.035 149.154 215.182C147.756 216.242 147.97 218.023 147.193 219.364C146.708 220.221 146.55 221.247 146.11 222.137C144.859 224.617 144.081 227.255 143.405 229.915L142.108 235.225C140.722 240.557 139.606 245.957 138.366 251.311C137.385 255.482 136.371 259.653 135.435 263.847C135.367 264.14 135.322 264.433 135.322 264.737L135.243 266.552C135.21 266.969 135.21 267.488 134.973 267.77C134.296 268.57 135.097 269.28 134.973 270.002C134.86 270.689 133.958 271.129 134.533 272.11C134.77 272.515 134.387 273.541 133.97 274.026C132.346 275.852 131.647 278.546 132.188 280.801C132.831 283.529 132.775 286.167 130.836 288.523C130.328 289.132 129.844 290.169 130.024 290.834C130.667 293.133 129.528 295.039 128.874 297.011C128.559 297.969 128.265 298.837 128.288 299.863C128.322 301.825 128.243 303.797 128.108 305.748C128.074 306.255 127.736 306.819 127.375 307.191C126.676 307.923 126.293 308.634 126.586 309.693C126.766 310.268 126.721 310.967 126.586 311.576C125.876 314.901 125.053 318.204 124.376 321.541C124.061 323.074 123.993 324.652 123.79 326.219C123.621 327.482 124.467 327.955 125.639 328.316C125.549 330.131 125.864 332.025 125.289 333.592C124.557 335.576 124.771 337.875 122.9 339.555C121.885 340.479 121.468 342.069 121.434 343.692C121.355 346.172 120.87 348.652 120.555 351.143C120.465 351.854 120.363 352.552 120.284 353.263C120.172 354.345 120.284 355.213 121.265 356.081C122.618 357.298 122.077 358.347 119.721 359.237C120.059 361.402 118.977 363.295 118.345 365.325C117.646 367.568 117.489 369.969 117.173 372.314C116.373 378.345 115.572 384.376 114.817 390.429C113.983 397.114 113.239 403.799 112.371 410.483C111.525 416.999 110.601 423.526 109.665 430.042C108.966 435.002 108.29 439.962 107.411 444.899C106.734 448.687 105.878 452.452 104.908 456.183C103.386 462.057 97.8965 464.807 93.083 465.427C87.4353 466.171 82.2837 461.346 81.4044 456.758C80.4124 451.641 78.992 446.602 77.9662 441.484C77.0869 437.132 76.5232 432.725 75.7792 428.351C75.1029 424.338 74.404 420.347 73.6938 416.345C73.6261 415.928 73.4683 415.489 73.2203 415.162C72.7356 414.519 72.6228 413.944 72.9723 413.178C73.1639 412.772 73.085 412.174 72.9723 411.712C72.0367 408.037 71.6421 404.272 71.0446 400.552C70.8868 399.605 70.5036 398.895 69.3763 398.895C70.8192 396.426 70.6839 395.694 68.3843 393.856C68.4632 393.383 68.497 392.819 68.6774 392.289C69.1846 390.711 69.0832 389.144 68.8352 387.6L68.2715 384.5C67.3133 378.502 66.3439 372.505 65.397 366.497C64.7206 362.191 64.1006 357.884 63.458 353.578L60.8766 336.207C60.234 331.957 59.5351 327.718 58.9038 323.469C58.2275 319.005 57.5962 314.529 56.9536 310.065C56.8973 309.637 56.9762 309.107 56.7394 308.814C55.1951 306.852 55.6798 304.587 55.6347 302.388C55.6009 301.182 55.4543 299.976 55.274 298.781C54.4172 293.111 53.5267 287.463 52.6361 281.804C52.343 279.899 52.1514 277.971 51.7118 276.111C51.5089 275.266 50.9227 274.432 50.3252 273.755C49.7052 273.057 49.4459 272.403 49.5136 271.445C49.5812 270.588 49.2317 269.697 49.1867 268.829C49.1416 267.815 49.1979 266.778 49.2994 265.763C49.3445 265.087 49.5474 264.433 49.6827 263.779C49.0063 262.877 48.4426 263.858 47.6986 264.072C47.6535 263.61 47.4957 263.227 47.6197 262.979C48.1045 261.953 47.8001 261.119 46.9546 260.544C46.1543 260.003 45.2412 259.563 44.3281 259.259C44.1026 259.191 43.4939 259.766 43.3135 260.16C42.7724 261.389 42.4117 262.708 41.8368 263.926C41.555 264.512 40.9688 264.951 40.5066 265.447C40.3262 265.628 39.8866 265.808 39.9091 265.921C40.1684 267.206 39.0862 267.386 38.3309 267.758C38.5789 269.528 38.2182 270.982 37.4291 272.606C36.6513 274.173 35.1745 275.627 35.5127 277.633C34.2164 279.64 34.2953 282.097 33.3934 284.149C33.2018 284.6 33.0553 285.051 32.9425 285.502L32.3225 288.128C31.8716 289.819 30.9698 291.397 30.2258 293.021C29.9778 293.551 29.6058 294.035 30.1356 294.419C29.572 295.32 28.6927 296.177 28.5574 297.124C28.2756 299.345 26.7763 300.957 26.0774 302.952C25.4799 304.688 24.533 306.323 24.0483 308.081C23.6763 309.434 22.2446 310.392 22.6505 311.982C21.5344 312.974 20.5424 314.146 19.3024 314.912C15.5373 317.28 11.4791 318.261 7.09396 316.75C2.14519 315.059 -0.808288 310.02 0.194993 304.959C0.465541 303.628 0.871366 302.31 1.32228 301.024C3.00193 296.222 5.03103 291.521 6.32741 286.629C7.45469 282.436 9.41616 278.637 10.8365 274.601C11.1296 273.733 11.0958 272.752 11.3776 271.884C11.9525 270.159 12.2344 268.39 13.5307 266.857C14.3649 265.865 14.3311 264.174 14.7031 262.798C14.9737 261.772 14.9849 260.544 15.6049 259.766C17.2282 257.692 17.8482 255.189 18.378 252.822C19.1108 249.587 20.4973 246.611 21.4443 243.465L23.6086 237.153C24.2174 235.18 24.5105 233.106 25.2094 231.167C26.0548 228.732 27.2272 226.421 27.4188 223.806C30.688 217.042 32.0633 209.647 34.8815 202.725C35.8058 200.471 36.4033 198.104 37.26 195.815C38.5564 192.354 40.7208 189.559 43.9561 187.586C49.7841 184.058 58.4642 185.23 62.5337 190.99C64.3035 193.47 65.4421 196.289 65.9719 199.298C67.2908 206.693 68.5984 214.088 69.8497 221.506C70.4134 224.888 70.8305 228.303 71.3716 231.697C71.5181 232.677 71.8788 233.613 72.1043 234.582C72.1945 234.988 72.1719 235.405 72.1832 235.822C72.1832 236.172 72.0479 236.6 72.1832 236.871C73.2541 238.877 72.9159 241.211 73.7952 243.251C73.9869 243.713 73.9079 244.3 73.9192 244.829C73.9192 245.168 73.7727 245.754 73.908 245.821C75.5651 246.689 74.573 248.414 75.193 249.598C75.2832 249.778 75.317 250.037 75.2607 250.229C74.3589 253.385 75.644 256.305 76.1625 259.304C76.6585 262.156 76.7825 265.087 77.4814 267.882C77.9662 269.81 77.9549 271.749 78.3043 273.643C78.4396 274.387 79.0371 275.052 79.5444 275.976C79.1385 276.731 79.5443 277.622 79.9276 278.682C80.9422 281.522 82.7458 284.149 82.3062 287.441C82.1935 288.331 83.1291 289.346 83.6138 290.372C82.3062 292.209 83.1629 294.216 83.8055 296.076C84.4029 297.8 84.8877 299.457 84.7862 301.284C84.6509 303.73 85.7444 305.883 86.511 308.115C86.6575 308.521 86.8153 308.915 87.007 309.299C87.7961 310.866 87.6382 312.275 87.007 313.954C86.3193 315.758 85.9022 317.945 86.3306 319.749C86.7589 321.552 86.8153 323.739 88.5401 325.193C88.991 325.565 89.1488 326.49 89.1488 327.166C89.1601 328.586 88.9684 329.984 88.8783 331.405C88.8332 332.261 88.5626 333.208 88.8219 333.952C89.6899 336.466 89.611 339.025 89.6899 341.607C89.7124 342.305 89.5884 343.038 90.4903 343.41C90.7495 343.523 90.9975 343.963 91.0088 344.256C91.0652 345.732 90.9975 347.22 91.0877 348.697C91.1215 349.272 91.347 349.926 91.6852 350.388C92.0685 350.895 92.6885 351.234 93.455 351.854C93.8721 350.591 94.447 349.43 94.6274 348.224C95.2474 344.109 95.6645 339.983 96.2845 335.88C97.2765 329.218 98.3812 322.578 99.4296 315.916C99.8805 313.075 100.275 310.234 100.715 307.405C101.03 305.353 101.357 303.302 101.729 301.25C102.733 295.613 103.927 289.977 104.75 284.318C105.63 278.197 106.881 272.177 108.2 266.146C108.73 263.779 109.214 261.389 109.688 258.999L112.45 244.649C112.765 243.105 113.16 241.572 113.521 240.038L116.057 229.589C116.328 228.484 116.677 227.39 116.959 226.297C119.056 218.248 121.107 210.188 123.26 202.162C123.869 199.885 124.827 197.709 125.447 195.443C125.909 193.73 126 191.904 126.428 190.179C127.33 186.639 128.311 183.122 129.291 179.605C130.328 175.862 131.433 172.154 132.459 168.411C133.113 166.078 133.676 163.71 134.285 161.354C134.319 161.219 134.308 161.039 134.398 160.948C135.751 159.472 135.525 157.657 135.57 155.876C135.57 155.391 135.593 154.805 135.852 154.433C137.543 151.953 137.622 148.988 138.445 146.271C139.617 142.281 140.711 138.301 142.571 134.536C143.664 132.304 144.284 129.824 144.915 127.412C145.423 125.462 145.806 123.545 146.978 121.798C147.711 120.693 148.038 119.295 148.5 118.022C151.51 109.792 154.52 101.563 157.496 93.334C158.894 89.4787 160.156 85.5896 161.577 81.7568C163.797 75.7597 166.097 69.8077 168.352 63.8218C170.696 57.5767 173.007 51.309 175.386 45.0751C176.254 42.798 177.28 40.566 178.181 38.3114C179.376 35.3128 180.549 32.303 181.676 29.2932C183.344 24.9193 185.328 20.7258 187.662 16.6563C189.838 12.8461 192.577 9.59955 195.711 6.62352C199.07 3.44459 202.892 0.987113 207.57 0.164198ZM177.663 251.401L179.241 251.503C181.8 251.852 183.367 253.228 184.066 255.358C184.517 256.688 185.295 257.974 184.889 259.574C184.72 260.228 185.667 261.13 186.163 262.043C184.573 262.866 184.246 263.249 184.618 264.805C184.934 266.079 185.576 267.285 186.196 268.784C185.779 269.506 185.464 270.486 185.994 271.67C186.219 272.166 185.813 273.023 185.498 273.609C184.889 274.702 184.686 275.773 184.754 277.025C184.821 278.456 184.562 279.933 184.314 281.365C183.919 283.664 183.919 286.065 182.612 288.173C182.431 288.444 182.499 288.85 182.499 289.199C182.443 292.265 182.499 295.332 182.341 298.387C182.251 299.875 182.003 301.441 181.36 302.783C180.74 304.091 180.842 305.342 180.74 306.65C180.628 308.092 180.402 309.535 180.177 310.967C179.906 312.613 179.546 314.247 179.298 315.893C178.802 319.196 178.283 322.51 177.945 325.825C177.731 327.809 177.979 329.815 177.832 331.799C177.607 334.617 178.407 337.424 177.325 340.254C176.592 342.181 176.626 344.357 176.265 346.42C176.141 347.153 175.814 347.863 175.623 348.596C175.442 349.306 175.329 350.027 175.172 350.839L177.201 350.952L176.727 352.958C175.814 353.229 174.507 352.564 174.371 354.018C174.36 354.198 173.864 354.525 173.717 354.469C172.297 353.973 171.959 355.19 171.215 355.776C168.284 358.054 165.263 360.207 161.813 361.864C159.942 362.754 158.093 363.25 156.019 363.07C151.826 362.732 149.278 360.635 149.075 356.735C148.85 352.361 148.974 347.964 149.086 343.568C149.199 339.453 149.515 335.35 149.695 331.236C149.864 327.628 149.751 324.032 150.586 320.459C150.958 318.813 150.608 317.032 150.586 315.318C150.586 314.98 150.473 314.473 150.665 314.326C151.262 313.864 151.386 313.312 151.397 312.748V311.598L152.074 299.491C152.198 296.865 152.277 294.238 152.367 291.6C152.389 291.262 152.367 290.913 152.389 290.563C152.727 286.877 152.987 283.191 153.426 279.516C153.99 274.793 155.162 270.227 157.282 265.853C159.356 261.581 162.433 258.255 166.582 255.629C169.084 254.028 171.655 252.641 174.585 251.852C176.119 251.435 177.629 251.277 179.252 251.503L177.663 251.401ZM252.492 223.467C254.859 223.467 256.843 224.155 258.004 226.443C258.793 228.01 259.661 229.532 260.327 231.144C260.642 231.911 260.597 232.846 260.665 233.714C260.676 234.053 260.462 234.391 260.484 234.718C260.777 239.655 257.497 242.383 254.228 245.089C251.951 246.971 249.629 248.809 247.25 250.567C243.496 253.34 240.937 257.117 238.435 260.983C237.815 261.953 237.353 262.945 237.341 264.185C237.341 264.974 236.733 265.718 236.518 266.518C236.124 267.972 236.146 269.494 235.47 270.926C235.075 271.76 235.29 272.876 235.211 274.206C234.196 274.883 233.959 276.247 233.959 277.43C233.959 279.854 233.328 282.233 233.756 284.701C233.982 286.099 233.441 287.632 233.373 289.098C233.114 294.858 232.821 300.619 232.697 306.379C232.607 310.347 232.325 314.315 231.694 318.204C231.119 321.845 229.462 325.126 226.756 327.786C222.698 331.799 217.67 334.234 213.026 335.091C210.557 335.542 207.987 334.178 206.555 331.608C205.631 329.95 204.977 328.169 204.977 326.208C204.954 323.773 205.146 321.293 204.864 318.881C204.582 316.536 205.45 314.371 205.428 312.094C205.405 309.502 206.037 306.954 205.259 304.294C204.853 302.941 205.574 301.25 205.732 299.717C205.811 298.939 205.946 298.127 205.789 297.383C205.417 295.636 206.037 293.956 205.935 292.254C205.935 292.186 205.98 292.119 205.969 292.051C205.811 289.83 206.127 287.722 206.95 285.614C207.344 284.6 207.13 283.337 207.232 282.199C207.434 279.967 207.694 277.746 207.852 275.514C208.088 271.929 208.269 268.345 208.449 264.748C208.641 261.028 208.708 257.286 208.968 253.566C209.249 249.62 210.117 245.754 211.842 242.192C213.578 238.607 216.543 236.161 220.004 234.334C223.431 232.531 227.128 231.742 230.972 231.336C233.486 231.065 235.898 230.287 238.153 229.014C239.393 228.315 240.791 227.954 242.098 227.379C243.451 226.759 244.77 226.049 246.123 225.418C248.152 224.448 250.181 223.479 252.492 223.467ZM403.841 149.089C406.377 149.247 407.673 150.521 407.617 152.708C407.572 154.072 408.406 155.098 409.038 156.09C409.872 157.409 409.545 158.671 409.534 159.945C409.534 161.005 409.353 162.2 408.756 163.09C408.045 164.139 408.575 165.052 408.496 166.021C408.361 167.825 408.237 169.696 406.952 171.466C407.223 171.77 407.685 172.063 407.64 172.289C407.358 173.642 406.952 174.994 406.614 176.358C406.05 178.59 406.129 180.822 406.738 183.032C406.986 183.934 407.02 184.779 406.67 185.692C406.456 186.29 406.693 187.011 406.749 187.676C406.749 187.811 406.941 187.936 406.929 188.059C406.817 190.404 406.659 192.76 406.591 195.105C406.569 196.255 406.659 197.416 406.839 198.554C407.132 200.358 407.02 201.925 405.487 203.436C404.867 204.056 405.126 205.386 405.081 206.4C405.047 207.381 405.081 208.351 406.366 208.914C406.749 209.083 406.896 209.636 407.403 210.38L404.889 209.963C405.16 210.549 405.351 211.045 405.633 211.507C405.859 211.913 406.197 212.262 406.614 212.815L404.833 212.702C404.641 213.998 404.359 215.295 404.269 216.591C404.044 220.57 403.818 224.561 403.694 228.54C403.683 228.811 403.717 229.081 403.773 229.341L404.179 230.941C404.292 231.55 404.438 232.17 404.382 232.767C404.314 233.579 403.92 234.38 403.953 235.18C404.066 237.457 402.285 239.046 401.09 240.737C399.591 242.857 397.517 244.705 394.958 246.002C392.297 247.355 389.626 248.685 386.909 249.925C384.812 250.883 382.591 251.503 380.145 251.39C375.005 251.108 372.514 248.583 372.39 244.3C372.277 240.749 372.716 237.164 373.066 233.613C373.63 228.033 374.351 222.464 374.982 216.884C375.839 209.219 376.606 201.553 377.552 193.888C378.387 187.067 379.413 180.27 380.348 173.461C380.54 171.996 380.765 170.553 380.878 169.087C381.171 165.221 382.794 161.704 384.891 158.378C387.022 154.996 390.313 152.471 394.146 150.487C397.156 148.954 400.515 148.875 403.841 149.089ZM188.654 186.233C191.653 186.188 192.712 186.876 193.569 189.018C193.839 189.694 194.042 190.416 194.426 191.036C196.117 193.741 195.519 196.57 194.538 199.208C193.93 200.809 192.475 202.117 191.405 203.56C191.371 203.605 191.258 203.605 191.235 203.65C189.206 207.054 185.644 208.745 182.443 210.819C180.797 211.879 179.016 212.758 177.235 213.604C174.709 214.799 172.218 213.897 170.291 212.578C168.555 211.383 167.619 209.331 167.574 207.054C167.529 205.16 167.98 203.357 168.825 201.722C169.693 200.031 170.065 198.115 171.485 196.683C172.579 195.601 173.515 194.327 174.721 193.38C177.02 191.577 179.376 189.829 181.879 188.307C184.055 186.989 186.546 186.222 188.654 186.233ZM406.986 102.95C409.387 102.341 411.743 102.172 414.122 103.119C414.82 103.401 415.632 103.344 416.489 103.457C417.368 105.103 418.721 106.501 418.89 108.699C418.98 110.052 418.822 111.179 418.529 112.487C417.796 115.868 415.756 118.247 413.682 120.682C413.299 121.133 412.949 121.595 412.667 122.114C410.503 125.969 406.986 128.156 403.277 129.802C401.068 130.782 398.43 130.41 396.062 129.486C395.025 129.069 393.966 128.528 393.132 127.784C392.478 127.198 392.016 126.262 391.734 125.383C389.716 119.295 392.027 114.347 395.814 110.007C398.836 106.557 402.544 104.066 406.986 102.95Z" fill="#E10A0A"/>
</g>
<defs>
<clipPath id="clip0_825_239">
<rect width="577.172" height="512" fill="white" transform="translate(0 0.0507812)"/>
</clipPath>
</defs>
</svg>
