<svg width="551" height="513" viewBox="0 0 551 513" fill="none" xmlns="http://www.w3.org/2000/svg">
<g clip-path="url(#clip0_876_1646)">
<path d="M507.833 70.7765C470.074 25.337 414.395 -0.422622 355.195 0.0573716H112.639L0 512.051H207.357L237.277 388.052C264.797 388.052 338.556 388.052 338.556 388.052C407.355 388.692 464.314 365.333 502.554 320.373C571.993 244.374 559.993 133.656 507.833 70.7765Z" fill="#D4D4D4"/>
<path d="M226.397 374.933L196.477 498.932H16.7998L123.358 13.8181H355.035C410.075 12.6981 462.234 37.1778 496.954 79.7372C548.473 141.976 553.273 245.015 492.154 312.054C454.394 356.374 399.355 375.573 337.596 375.573L226.397 374.933Z" fill="#091F40"/>
<path d="M99.5187 121.016H201.277C213.277 121.016 225.277 130.616 219.837 145.496C216.317 155.096 213.917 165.335 212.637 175.415C211.517 183.255 220.477 188.055 225.277 188.055H432.474C436.634 188.055 438.394 186.935 438.394 185.015C438.394 180.215 437.754 176.055 437.274 171.255C436.634 166.455 436.154 165.815 431.834 165.815C406.075 165.815 395.355 154.456 368.315 137.016C341.436 119.576 301.916 109.496 267.677 109.496H101.279L99.5187 121.016Z" fill="#FDB525"/>
<path d="M225.277 255.254C221.757 246.934 218.717 238.454 216.317 230.135C213.277 217.495 201.917 209.815 189.438 210.295H80.479L83.5189 198.295H436.794C440.314 198.295 439.834 199.415 439.194 203.735C439.194 207.895 438.074 215.095 437.434 219.255C436.794 223.415 433.274 222.295 430.234 222.775C419.515 222.775 408.155 225.815 399.035 231.094C384.635 241.814 352.955 261.654 335.516 267.094C315.676 273.174 245.597 294.774 225.277 255.254Z" fill="#FDB525"/>
<path d="M60.6392 299.574H245.117C252.317 298.934 260.157 301.334 265.437 306.134C282.236 319.254 301.916 328.854 322.876 334.294C332.476 337.334 349.276 333.654 363.515 325.334C400.635 304.374 423.995 264.855 431.835 239.095C433.594 232.535 430.075 233.175 424.635 233.175C409.115 234.295 392.955 248.215 371.355 261.975C349.756 275.735 306.076 288.855 264.797 288.375H63.0392L60.6392 299.574Z" fill="#FDB525"/>
<path d="M331.196 52.8558C337.116 52.2158 342.556 52.2158 348.636 53.9758C383.355 67.7356 416.955 104.215 430.714 143.255C433.114 150.455 434.234 155.254 430.714 155.894C414.555 157.654 407.355 149.975 388.155 136.695C369.595 124.055 349.276 113.975 327.676 107.415C304.316 99.5752 261.277 99.0952 255.837 98.4552C250.397 98.4552 251.037 96.0552 253.437 93.6553C274.396 72.5355 301.276 58.1357 331.196 52.8558Z" fill="#FDB525"/>
<path d="M498.874 185.655C498.874 187.415 497.114 188.695 495.354 188.695H455.194C449.754 188.695 449.754 186.295 449.754 183.255C449.754 180.215 448.634 174.295 448.634 170.615C448.634 167.095 447.514 163.415 451.674 161.655C463.034 156.215 472.634 147.255 478.554 136.536C480.314 133.496 482.714 128.216 485.114 132.376C494.714 148.055 497.754 166.615 498.874 185.655Z" fill="#FDB525"/>
<path d="M484.474 258.134C483.834 259.254 481.434 260.534 480.314 258.134C474.394 244.374 464.154 233.014 451.034 226.455C448.634 225.335 447.514 222.935 447.994 219.895C448.474 216.855 449.754 207.895 449.754 203.735C449.754 200.695 450.874 198.295 453.274 198.295H495.354C496.474 198.295 498.874 199.415 498.874 200.695C498.874 221.015 493.594 240.214 484.474 258.134Z" fill="#FDB525"/>
<path d="M374.875 337.174C371.835 337.814 365.275 336.534 375.515 330.614C406.075 312.694 433.594 271.255 440.794 247.415C443.834 238.455 443.834 237.815 447.354 239.095C454.554 242.615 460.474 248.055 465.274 254.615C470.714 262.455 473.594 277.335 470.074 282.135C446.874 311.414 412.635 331.894 374.875 337.174Z" fill="#FDB525"/>
<path d="M452.794 148.056C445.594 151.576 444.474 151.096 442.554 145.656C429.434 98.9369 389.915 64.2173 374.235 53.9775C371.195 52.2175 371.835 50.9375 374.235 50.9375C412.635 56.3774 450.234 76.6972 468.794 105.497C480.314 122.937 459.994 144.376 452.794 148.056Z" fill="#FDB525"/>
</g>
<defs>
<clipPath id="clip0_876_1646">
<rect width="550.828" height="512" fill="white" transform="translate(0 0.0507812)"/>
</clipPath>
</defs>
</svg>
