<svg width="1025" height="142" viewBox="0 0 1025 142" fill="none" xmlns="http://www.w3.org/2000/svg">
<g clip-path="url(#clip0_736_242)">
<path d="M931.578 45.4706C926.289 45.4011 921.062 46.6773 916.363 49.1865C911.664 51.6957 907.632 55.3609 904.627 59.8593V47.9168H883.753V128.916H904.627V89.2713C904.627 74.0362 911.631 64.946 923.362 64.946C933.701 64.946 941.099 72.0219 941.099 83.8458V128.916H961.817V79.3178C961.824 58.1579 949.462 45.4706 931.578 45.4706Z" fill="#000B50"/>
<path d="M725.265 128.857H703.247V83.7912C703.247 72.6624 696.281 64.8933 686.286 64.8933C673.812 64.8933 666.368 73.9825 666.368 89.2159V128.857H644.175V47.8911H666.368V59.8578C669.56 55.3596 673.84 51.6943 678.835 49.1852C683.829 46.676 689.381 45.4004 695.002 45.4708C707.729 45.4708 717.334 51.8348 722.043 62.5661C725.383 57.2873 730.071 52.9387 735.652 49.9431C741.232 46.9474 747.515 45.4066 753.889 45.4708C772.278 45.4708 784.153 58.7493 784.153 79.3227V128.916H762.144V83.8504C762.144 72.7216 755.178 64.9527 745.176 64.9527C732.709 64.9527 725.255 74.0419 725.255 89.2753L725.265 128.857Z" fill="#000B50"/>
<path d="M273.059 74.3228L268.319 72.4227L272.851 70.109C273.382 69.8387 285.51 63.3535 285.51 47.7481C285.51 34.5749 273.801 21.241 251.416 21.241H197.324V128.916H251.52C287.054 128.916 288.849 104.52 288.849 99.6307C288.856 80.8841 273.217 74.3988 273.059 74.3228ZM219.7 38.9575H246.44C253.778 38.9575 261.68 43.2387 261.68 52.6544C261.68 61.8418 254.012 66.6552 246.44 66.6552H219.7V38.9575ZM249.942 111.2H219.7V83.5019H249.942C259.849 83.5019 265.026 90.5445 265.026 97.5111C265.026 105.457 258.683 111.217 249.942 111.217V111.2Z" fill="#000B50"/>
<path d="M380.371 88.5676C379.89 63.1989 362.436 45.4679 337.911 45.4679C313.016 45.4679 294.235 63.989 294.235 88.5507C294.089 99.7919 298.354 110.654 306.141 118.864C314.101 127.096 325.515 131.608 337.929 131.608C350.342 131.608 361.757 127.08 369.716 118.864C373.993 114.401 377.229 109.068 379.191 103.24H359.077C354.96 110.47 347.198 114.854 337.929 114.854C327.255 114.854 318.64 107.369 316.272 95.7891L315.694 92.9855H380.371V88.5676ZM316.874 78.2112C318.157 73.6909 320.911 69.7121 324.712 66.8887C328.515 64.0651 333.151 62.5537 337.911 62.5872C347.948 62.5872 355.451 68.4323 358.07 78.2112H316.874Z" fill="#000B50"/>
<path d="M579.57 88.5676C579.103 63.1989 562.198 45.4679 538.44 45.4679C514.317 45.4679 496.125 63.989 496.125 88.5507C495.988 99.7911 500.118 110.651 507.657 118.864C515.368 127.096 526.424 131.608 538.457 131.608C550.49 131.608 561.537 127.08 569.248 118.864C573.391 114.401 576.526 109.068 578.428 103.24H558.918C554.929 110.47 547.403 114.854 538.433 114.854C528.094 114.854 519.749 107.369 517.454 95.7891L516.894 92.9855H579.545L579.57 88.5676ZM518.055 78.2112C519.298 73.6903 521.967 69.7114 525.652 66.8878C529.337 64.0643 533.83 62.5531 538.44 62.5872C548.163 62.5872 555.43 68.4323 557.967 78.2112H518.055Z" fill="#000B50"/>
<path d="M872.986 88.5676C872.517 63.1989 855.61 45.4679 831.85 45.4679C807.724 45.4679 789.541 63.989 789.541 88.5507C789.398 99.79 793.527 110.651 801.066 118.864C808.784 127.096 819.842 131.608 831.868 131.608C843.893 131.608 854.951 127.08 862.662 118.864C866.805 114.401 869.94 109.068 871.842 103.24H852.33C848.341 110.47 840.823 114.854 831.843 114.854C821.502 114.854 813.158 107.369 810.862 95.7891L810.303 92.9855H872.986V88.5676ZM811.471 78.2112C812.712 73.6903 815.381 69.7106 819.064 66.8868C822.747 64.0632 827.241 62.5521 831.85 62.5872C841.573 62.5872 848.842 68.4323 851.379 78.2112H811.471Z" fill="#000B50"/>
<path d="M638.792 45.5477C625.099 44.7012 613.457 50.6266 607.564 61.8506V47.9093H584.954V128.916H607.564V93.7455C607.564 72.2623 623.006 61.3003 638.792 67.4542V45.5477Z" fill="#000B50"/>
<path d="M493.561 111.3C490.379 112.696 486.941 113.421 483.464 113.43C473.86 113.43 468.565 107.602 468.565 97.0159V64.5699H494.513V48.0205H468.547V13.174L446.891 21.0372V48.0205H410.103V13.1655L388.447 21.0288V99.9169C388.447 120.648 399.216 131.608 419.582 131.608C427.528 131.608 434.344 130.327 440.355 127.689L435.102 111.318C431.918 112.714 428.48 113.438 425.005 113.447C415.4 113.447 410.103 107.619 410.103 97.0328V64.5954H446.906V99.9169C446.906 120.648 457.676 131.608 478.049 131.608C485.988 131.608 492.806 130.327 498.814 127.689L493.561 111.3Z" fill="#000B50"/>
<path d="M1018.55 111.292C1015.42 112.688 1012.04 113.413 1008.61 113.421C999.141 113.421 993.932 107.594 993.932 97.0075V64.5615H1019.49V48.0119H993.924V13.1655L972.584 21.0288V99.9169C972.584 120.648 983.195 131.608 1003.27 131.608C1011.1 131.608 1017.82 130.327 1023.73 127.689L1018.55 111.292Z" fill="#000B50"/>
<path d="M86.9573 115.218L155.37 139.684C166.574 125.423 173.097 107.267 173.097 87.0155C173.097 38.7782 136.071 2.39795 86.9573 2.39795C37.8437 2.39795 0.817383 38.7782 0.817383 87.0155C0.817383 107.267 7.34946 125.399 18.5533 139.684L86.9573 115.218Z" fill="#FFC729"/>
</g>
<defs>
<clipPath id="clip0_736_242">
<rect width="1024" height="140.848" fill="white" transform="translate(0.817383 0.576172)"/>
</clipPath>
</defs>
</svg>
