<svg width="526" height="513" viewBox="0 0 526 513" fill="none" xmlns="http://www.w3.org/2000/svg">
<g clip-path="url(#clip0_820_470)">
<path d="M432.137 0.0507812H92.9915C41.6337 0.0507812 0 41.6845 0 93.0422V419.059C0 470.417 41.6337 512.051 92.9915 512.051H432.137C483.495 512.051 525.128 470.417 525.128 419.059V93.0422C525.128 41.6845 483.495 0.0507812 432.137 0.0507812Z" fill="#032D2D"/>
<path d="M185.132 355.821C185.132 358.156 184.523 359.979 182.737 360.656C172.342 365.043 156.305 366.979 138.553 366.979C77.0126 366.979 29.0703 326.737 29.0703 249.335C29.0703 178.006 73.472 129.363 143.656 129.363C163.767 129.363 176.617 131.147 184.929 135.357C186.485 136.034 187.053 137.325 187.053 139.59V177.917C187.053 180.91 185.579 180.955 184.357 180.274C173.818 174.803 158.88 172.62 142.869 172.62C100.5 172.62 74.5938 201.87 74.5938 247.816C74.5938 302.547 110.743 323.374 143.925 323.374C159.508 323.374 171.141 322.064 182.673 317.744C184.203 317.073 185.132 317.344 185.132 319.494L185.132 355.821Z" fill="#CCFCEB"/>
<path d="M335.087 279.726C335.087 337.978 292.797 366.656 248.957 366.656C247.493 366.656 245.502 366.587 243.367 366.459V420.436C243.367 421.955 243.068 422.833 241.254 423.149C229.619 424.515 208.079 426.724 206.181 426.848C204.572 426.848 204.237 426.258 204.237 424.66V238.322C204.237 233.968 203.752 222.04 203.414 217.575C203.414 216.966 203.45 216.083 204.457 215.767C218.906 210.502 239.126 202.957 263.882 202.957C312.743 202.957 335.087 240.222 335.087 279.726ZM243.367 242.698V329.344C245.688 329.857 249.897 329.942 252.444 329.942C272.004 329.942 294.803 317.194 294.803 282.746C294.803 255.485 282.316 240.213 260.376 240.213C253.846 240.213 249.121 240.985 243.367 242.698Z" fill="#CCFCEB"/>
<path d="M494.245 356.584C494.245 358.686 493.669 360.327 491.983 360.936C482.164 364.885 467.019 366.626 450.25 366.626C392.126 366.626 346.844 330.408 346.844 260.746C346.844 196.549 388.782 152.77 455.07 152.77C474.066 152.77 486.203 154.374 494.053 158.165C495.523 158.774 496.06 159.934 496.06 161.975V196.468C496.06 199.163 494.669 199.203 493.513 198.59C483.557 193.667 469.451 191.701 454.327 191.701C414.31 191.701 389.842 218.026 389.842 259.379C389.842 308.637 423.985 327.383 455.327 327.383C470.045 327.383 481.03 326.203 491.921 322.314C493.365 321.708 494.245 321.953 494.245 323.889V356.584Z" fill="#CCFCEB"/>
</g>
<defs>
<clipPath id="clip0_820_470">
<rect width="525.128" height="512" fill="white" transform="translate(0 0.0507812)"/>
</clipPath>
</defs>
</svg>
