<svg width="513" height="512" viewBox="0 0 513 512" fill="none" xmlns="http://www.w3.org/2000/svg">
<g clip-path="url(#clip0_768_922)">
<path d="M503.081 148.182L364 9.10406C358.131 3.23386 350.327 3.05176e-05 342.023 3.05176e-05C333.723 3.05176e-05 325.918 3.23254 320.047 9.10406L203.413 125.737L9.28349 319.866C-2.83434 331.987 -2.83382 351.704 9.28349 363.821L148.361 502.899C154.232 508.769 162.036 512 170.339 512C178.639 512 186.445 508.769 192.315 502.899L366.321 328.891L503.08 192.134C515.195 180.017 515.195 160.301 503.081 148.182Z" fill="white"/>
<path d="M370.931 198.28C363.058 206.142 352.718 210.066 342.442 210.066C332.153 210.065 321.832 206.142 313.951 198.28C306.098 190.419 302.139 180.087 302.138 169.798C302.139 159.487 306.098 149.15 313.95 141.31C321.831 133.452 332.137 129.49 342.444 129.492C352.718 129.492 363.058 133.418 370.931 141.312C378.774 149.15 382.743 159.488 382.742 169.798C382.743 180.074 378.775 190.417 370.931 198.28ZM493.244 158.069L354.166 18.9924C347.461 12.2875 336.589 12.2875 329.883 18.9924L179.511 169.366L342.869 332.723L493.244 182.35C499.948 175.647 499.948 164.775 493.244 158.069Z" fill="#E21737"/>
<path d="M200.812 314.417C208.674 306.532 218.998 302.608 229.292 302.608C239.599 302.605 249.921 306.532 257.772 314.417C265.671 322.272 269.605 332.568 269.604 342.903C269.604 353.196 265.669 363.52 257.772 371.36C249.921 379.195 239.597 383.146 229.292 383.159C218.99 383.159 208.674 379.198 200.814 371.36C192.942 363.496 189.007 353.172 189.007 342.903C189.007 332.596 192.943 322.275 200.812 314.417ZM139.561 369.758C131.676 377.585 121.353 381.516 111.063 381.516C100.746 381.513 90.4331 377.588 82.5681 369.758C74.6907 361.91 70.7861 351.581 70.7855 341.288C70.7855 330.98 74.7103 320.658 82.569 312.768C90.4341 304.918 100.746 300.996 111.063 300.99C121.353 300.996 131.692 304.918 139.56 312.773C147.42 320.658 151.337 330.98 151.328 341.272C151.328 351.573 147.42 361.918 139.561 369.758ZM19.1203 329.703C12.4144 336.409 12.4144 347.279 19.1197 353.984L158.197 493.062C161.55 496.415 165.943 498.091 170.339 498.091C174.732 498.091 179.128 496.415 182.48 493.062L332.78 342.761L169.42 179.402L19.1203 329.703Z" fill="#006391"/>
<path d="M217.637 493.065H219.123C220.648 493.065 221.145 492.625 221.145 491.729C221.145 490.949 220.763 490.509 219.332 490.509H217.637V493.065ZM217.637 497.639H216.379V489.478H219.506C221.449 489.478 222.403 490.205 222.403 491.805C222.403 493.273 221.488 493.903 220.268 494.056L222.593 497.639H221.222L219.048 494.094H217.637V497.639ZM219.143 487.631C215.863 487.631 213.327 490.166 213.327 493.542C213.327 496.993 215.863 499.49 219.143 499.49C222.383 499.49 224.92 496.993 224.92 493.542C224.92 490.166 222.383 487.631 219.143 487.631ZM219.143 486.486C222.994 486.486 226.293 489.478 226.293 493.542C226.293 497.639 222.994 500.636 219.143 500.636C215.253 500.636 211.955 497.639 211.955 493.542C211.955 489.478 215.253 486.486 219.143 486.486Z" fill="#006391"/>
</g>
<defs>
<clipPath id="clip0_768_922">
<rect width="511.971" height="512" fill="white" transform="translate(0.195312)"/>
</clipPath>
</defs>
</svg>
