<svg width="417" height="513" viewBox="0 0 417 513" fill="none" xmlns="http://www.w3.org/2000/svg">
<g clip-path="url(#clip0_876_1567)">
<path d="M0.380371 185.284V306.768C68.439 316.75 149.656 310.171 207.052 226.232C209.434 222.716 210.908 225.211 209.32 228.274C193.327 260.942 155.327 291.115 122.546 316.864C91.0118 341.478 6.50565 430.181 7.63996 508.108C7.75339 514.12 7.86682 512.419 13.1981 508.562C38.8335 489.506 89.0835 488.939 119.937 503.685C124.247 505.726 124.587 505.046 124.02 499.488C118.122 439.029 131.734 373.012 157.596 334.672C175.405 308.129 223.499 239.73 231.78 186.078C232.687 180.519 229.738 181.427 222.819 188.686C168.372 246.196 70.0271 244.721 6.50565 183.809C2.53556 180.179 0.720664 181.881 0.380371 185.284Z" fill="#DB0032"/>
<path d="M118.348 0.0507812L114.265 12.4148H101.107L111.769 20.1281L107.913 32.3786L118.348 24.8922L128.557 32.3786L124.701 20.2415L135.363 12.4148H122.205L118.348 0.0507812Z" fill="#003DA6"/>
<path d="M195.822 45.3105L199.792 57.5611H212.95L202.287 65.3878L206.258 77.525L195.822 70.0385L185.5 77.525L189.47 65.3878L178.694 57.5611H191.852L195.822 45.3105Z" fill="#003DA6"/>
<path d="M162.587 10.373L166.557 22.737H179.715L169.052 30.5638L172.909 42.8143L162.587 35.2145L152.264 42.8143L156.121 30.4503L145.458 22.737H158.616L162.587 10.373Z" fill="#003DA6"/>
<path d="M208.527 87.959L212.497 100.323H225.655L214.992 108.036L218.849 120.287L208.527 112.687L198.204 120.287L202.174 108.036L191.398 100.323H204.443L208.527 87.959Z" fill="#003DA6"/>
<path d="M202.968 133.105L206.939 145.469H220.097L209.434 153.296L213.291 165.433L202.968 157.947L192.646 165.433L196.503 153.183L185.84 145.469H198.998L202.968 133.105Z" fill="#003DA6"/>
<path d="M178.013 169.176L181.87 181.54H195.141L184.479 189.253L188.336 201.504L178.127 193.904L167.691 201.504L171.661 189.253L160.885 181.54H174.043L178.013 169.176Z" fill="#003DA6"/>
<path d="M138.88 189.254L142.85 201.618H155.894L145.232 209.445L149.202 221.695L138.88 214.209L128.557 221.695L132.414 209.445L121.751 201.618H134.909L138.88 189.254Z" fill="#003DA6"/>
<path d="M39.4006 41.2266L35.317 53.5906H22.2725L32.8216 61.4173L28.9649 73.5544L39.2871 66.068L49.7228 73.5544L45.7527 61.4173L56.5287 53.5906H43.2572L39.4006 41.2266Z" fill="#003DA6"/>
<path d="M71.842 10.373L67.8719 22.737H54.7139L65.3764 30.5638L61.4063 42.8143L71.842 35.2145L82.1642 42.8143L78.3075 30.4503L88.9701 22.737H75.812L71.842 10.373Z" fill="#003DA6"/>
<path d="M24.2007 82.4023L20.344 94.7663H7.18604L17.8486 102.48L13.9919 114.73L24.2007 107.244L34.5229 114.73L30.6663 102.48L41.4422 94.7663H28.2842L24.2007 82.4023Z" fill="#003DA6"/>
<path d="M28.2843 127.547L24.3143 139.911H11.1562L21.8188 147.738L17.9621 159.875L28.2843 152.388L38.6066 159.875L34.6365 147.738L45.299 139.911H32.141L28.2843 127.547Z" fill="#003DA6"/>
<path d="M53.126 164.412L49.2693 176.776H36.1113L46.7739 184.489L42.8038 196.74L53.126 189.14L63.5616 196.74L59.5916 184.489L70.3675 176.776H57.2095L53.126 164.412Z" fill="#003DA6"/>
<path d="M92.3732 187.779L88.4031 200.143H75.2451L85.9076 207.97L82.051 220.107L92.2598 212.621L102.809 220.107L98.7254 207.857L109.501 200.143H96.3433L92.3732 187.779Z" fill="#003DA6"/>
<path d="M306.985 479.523C282.597 479.523 283.618 448.329 283.618 412.372C283.618 376.414 287.021 345.221 306.985 345.221C331.372 345.221 332.733 376.301 332.733 412.372C332.733 448.329 327.629 479.523 306.985 479.523ZM337.157 303.024C315.378 303.024 293.033 311.758 281.349 330.021H280.895L283.051 298.487C284.298 277.162 289.176 219.085 318.781 219.085C332.96 219.085 329.784 237.915 331.372 246.536C335.342 266.613 344.077 289.639 371.527 289.639C390.243 289.639 409.867 277.275 409.867 251.867C409.867 212.733 377.198 187.098 337.384 187.098C235.41 187.098 194.461 264.911 194.461 359.173C194.461 440.956 226.222 511.624 313.79 511.624C370.619 511.624 416.786 471.129 416.786 403.184C417.013 345.561 386.613 303.024 337.157 303.024Z" fill="#003DA6"/>
</g>
<defs>
<clipPath id="clip0_876_1567">
<rect width="416.407" height="512" fill="white" transform="translate(0.380371 0.0507812)"/>
</clipPath>
</defs>
</svg>
