<svg width="513" height="513" viewBox="0 0 513 513" fill="none" xmlns="http://www.w3.org/2000/svg">
<g clip-path="url(#clip0_2_14921)">
<path d="M421.415 464.816C414.789 464.816 409.411 470.187 409.411 476.816C409.411 483.44 414.789 488.818 421.415 488.818C428.04 488.818 433.411 483.44 433.411 476.817C433.411 470.187 428.04 464.816 421.415 464.816ZM421.415 486.243C416.2 486.243 411.989 482.027 411.989 476.817C411.989 471.608 416.2 467.398 421.415 467.398C426.623 467.398 430.839 471.609 430.839 476.817C430.839 482.025 426.623 486.243 421.415 486.243ZM426.346 474.036C426.346 473.501 426.24 472.972 426.035 472.479C425.83 471.985 425.53 471.537 425.152 471.159C424.774 470.782 424.325 470.482 423.831 470.278C423.338 470.074 422.808 469.969 422.274 469.97H416.492V483.668H419.062V478.104H420.907L423.504 483.668H426.346L423.635 477.868C424.427 477.586 425.112 477.067 425.597 476.381C426.083 475.695 426.344 474.876 426.346 474.036ZM422.274 475.533H419.062V472.536H422.274C423.1 472.536 423.776 473.207 423.776 474.036C423.774 474.433 423.616 474.814 423.334 475.095C423.053 475.375 422.671 475.533 422.274 475.533Z" fill="#010101"/>
<path d="M256.593 9.01172C119.744 9.01172 8.81079 119.953 8.81079 256.805C8.81079 393.657 119.744 504.59 256.593 504.59C393.442 504.59 504.384 393.641 504.384 256.805C504.384 119.97 393.437 9.01172 256.593 9.01172Z" fill="#FFB81C"/>
<path d="M256.593 18.2176C124.837 18.2176 18.0095 125.037 18.0095 256.807C18.0095 388.578 124.837 495.389 256.593 495.389C388.35 495.389 495.179 388.567 495.179 256.807C495.179 125.047 388.35 18.2168 256.594 18.2168L256.593 18.2176Z" fill="#010101"/>
<path d="M368.388 164.039L409.412 123.017C403.491 116.263 397.135 109.904 390.384 103.98L349.096 145.279L368.388 164.039ZM270.052 54.1345C265.596 53.8465 261.124 53.6465 256.595 53.6465C252.065 53.6465 247.591 53.8465 243.132 54.1345V119.43H270.052V54.1345ZM142.636 123.82L122.809 103.98C116.055 109.902 109.697 116.261 103.777 123.017L142.635 161.875V123.819L142.636 123.82ZM142.636 351.73L103.777 390.589C109.699 397.341 116.057 403.699 122.809 409.621L142.635 389.789L142.636 351.73ZM159.755 243.348H53.9235C53.6379 247.79 53.4419 252.279 53.4419 256.806C53.4419 261.329 53.6379 265.799 53.9427 270.26H159.755V243.348ZM459.26 243.348H370.441L356.611 256.806L370.451 270.26H459.258C459.552 265.799 459.743 261.329 459.743 256.806C459.743 252.279 459.552 247.79 459.26 243.348ZM349.089 368.332L390.378 409.62C397.13 403.697 403.489 397.34 409.412 390.588L368.383 349.567L349.089 368.332ZM243.132 459.469C247.591 459.751 252.066 459.959 256.595 459.959C261.123 459.959 265.596 459.751 270.052 459.469V394.16H243.132V459.469Z" fill="#FFB81C"/>
<path d="M153.06 346.546V383.75H318.311L360.131 343.054V274.767L341.672 256.807L360.131 238.837V170.55L318.311 129.857H153.06V167.048L170.193 183.722V329.888L153.06 346.546Z" fill="#FFB81C"/>
<path d="M303.589 194.193L291.853 182.783H224.113V230.341H291.853L303.589 218.939V194.193ZM303.589 294.678L291.853 283.274H224.113V330.824H291.853L303.589 319.427V294.678Z" fill="#010101"/>
<path d="M161.657 350.182V375.149H314.806L351.526 339.426V278.398L329.327 256.809L351.525 235.198V174.18L314.806 138.447H161.658V163.419L178.785 180.091V333.518L161.657 350.182ZM215.497 174.18H295.359L312.176 190.556V222.576L295.359 238.944H215.498V174.179L215.497 174.18ZM215.497 274.671H295.359L312.176 291.044V323.05L295.359 339.426H215.498V274.671H215.497Z" fill="#010101"/>
<path d="M131.394 416.723C159.82 439.034 194.338 453.886 232.044 458.429V394.165H153.936L131.394 416.723ZM322.541 394.164H281.143V458.429C318.848 453.886 353.374 439.034 381.792 416.723L341.152 376.065L322.542 394.164H322.541ZM159.756 281.359H54.9652C59.518 319.069 74.3763 353.574 96.6819 382.022L159.756 318.926V281.358V281.359ZM159.756 194.686L96.6819 131.599C74.3763 160.031 59.518 194.543 54.9644 232.259H159.756V194.686ZM341.153 137.534L381.8 96.8809C353.374 74.5785 318.848 59.7225 281.143 55.1777V119.434H322.542L341.153 137.534ZM370.557 336.051L416.52 382.022C438.818 353.574 453.668 319.07 458.227 281.358H370.558V336.051L370.557 336.051ZM232.044 119.435V55.1777C194.338 59.7225 159.82 74.5785 131.391 96.8817L153.939 119.434H232.043L232.044 119.435ZM370.557 232.259H458.227C453.671 194.543 438.818 160.031 416.52 131.595L370.558 177.567L370.557 232.259ZM234.53 193.207V219.917H287.628L293.161 214.531V198.587L287.628 193.207H234.53ZM234.53 293.701V320.392H287.628L293.161 315.009V299.081L287.628 293.701H234.53Z" fill="white"/>
</g>
<defs>
<clipPath id="clip0_2_14921">
<rect width="512.008" height="512" fill="white" transform="translate(0.59082 0.800781)"/>
</clipPath>
</defs>
</svg>
