<svg width="1024" height="302" viewBox="0 0 1024 302" fill="none" xmlns="http://www.w3.org/2000/svg">
<g clip-path="url(#clip0_778_2145)">
<path d="M149.827 6.99854C71.1411 6.99854 6.46741 71.6722 6.46741 150.359C6.46741 229.045 70.0632 293.719 149.827 293.719C228.514 293.719 293.187 230.123 293.187 150.359C293.187 71.6722 228.514 6.99854 149.827 6.99854Z" fill="white"/>
<path d="M275.941 273.238H278.097C280.253 273.238 281.331 274.316 281.331 276.472C281.331 277.55 280.253 279.706 278.097 279.706H275.941V273.238ZM275.941 282.94H277.019C281.331 282.94 280.253 285.095 280.253 288.329C280.253 289.407 280.253 291.563 281.331 292.641H286.72C286.72 291.563 285.642 287.251 285.642 286.173C285.642 281.862 282.408 281.862 281.331 281.862C284.564 281.862 285.642 278.628 285.642 276.472C285.642 272.161 283.486 270.005 279.175 270.005H269.474V293.718H274.863V282.94H275.941ZM278.097 260.304C267.318 260.304 257.617 268.927 257.617 280.784C257.617 291.563 266.24 301.264 278.097 301.264C288.876 301.264 298.577 292.641 298.577 280.784C298.577 268.927 288.876 260.304 278.097 260.304ZM278.097 296.952C269.474 296.952 261.928 289.407 261.928 280.784C261.928 272.161 269.474 264.615 278.097 264.615C286.72 264.615 294.265 272.161 294.265 280.784C294.265 289.407 286.72 296.952 278.097 296.952Z" fill="#F58025"/>
<path d="M224.202 171.916H192.943C194.021 167.605 194.021 163.293 190.787 157.904L140.126 69.5165C132.581 56.5818 125.036 46.8807 118.568 39.3355C139.048 50.1144 178.931 72.7502 256.539 118.022L260.851 120.178C274.863 128.801 283.486 141.735 281.331 150.359C278.097 164.371 257.617 171.916 224.202 171.916ZM122.88 258.148L118.568 261.382C104.556 270.005 88.3874 270.005 81.92 263.538C73.2968 254.914 77.6084 233.356 93.7768 204.253L108.867 177.306C112.101 180.54 116.413 182.695 121.802 182.695H223.124C238.215 182.695 250.072 181.618 260.851 178.384C241.448 191.319 201.566 213.954 122.88 258.148ZM68.9853 72.7502V67.3607C68.9853 51.1923 75.4526 37.1797 85.1537 35.0239C97.0105 31.7902 114.257 46.8807 130.425 74.906L145.516 101.853C141.204 102.931 136.893 106.165 134.737 110.476L84.0758 197.786C76.5305 210.721 71.1411 221.5 68.9853 232.279C68.9853 209.643 68.9853 163.293 68.9853 72.7502ZM149.827 0.53125C66.8295 0.53125 0 67.3607 0 150.359C0 233.356 66.8295 300.186 149.827 300.186C232.825 300.186 299.655 233.356 299.655 150.359C299.655 67.3607 232.825 0.53125 149.827 0.53125Z" fill="#F58025"/>
<path d="M454.872 41.4912H356.783H354.627V51.1923H356.783C391.276 55.5038 395.587 59.8154 395.587 78.1396V263.538H435.47V166.527H451.638C489.364 166.527 568.051 166.527 568.051 104.009C568.051 41.4912 494.754 41.4912 454.872 41.4912ZM450.56 150.359H435.47V78.1396C435.47 60.8933 435.47 58.7375 467.806 58.7375C504.455 58.7375 523.857 74.9059 523.857 105.087C523.857 144.969 486.131 150.359 450.56 150.359Z" fill="#006AAA"/>
<path d="M792.253 41.4912H768.539V215.032C763.149 206.409 644.581 41.4912 644.581 41.4912H560.505V51.1923H562.661C597.154 55.5038 601.465 57.6596 601.465 81.3733V263.538H627.335V77.0617C633.802 85.6849 762.072 263.538 762.072 263.538H796.564V41.4912H792.253Z" fill="#006AAA"/>
<path d="M825.667 144.969C825.667 205.331 862.316 266.771 945.314 266.771C984.118 266.771 1003.52 262.46 1021.84 258.148H1024V239.824L1020.77 240.902C1001.36 246.291 983.04 248.447 967.95 248.447C902.198 248.447 869.861 211.799 869.861 137.424C869.861 87.8407 893.575 57.6597 933.457 57.6597C960.404 57.6597 975.495 68.4386 979.806 88.9186V91.0744H1024V86.7628C1022.92 74.906 1012.14 37.1797 935.613 37.1797C862.316 37.1797 825.667 73.8281 825.667 144.969Z" fill="#006AAA"/>
</g>
<defs>
<clipPath id="clip0_778_2145">
<rect width="1024" height="300.733" fill="white" transform="translate(0 0.53125)"/>
</clipPath>
</defs>
</svg>
