<svg width="454" height="513" viewBox="0 0 454 513" fill="none" xmlns="http://www.w3.org/2000/svg">
<g clip-path="url(#clip0_9_1000)">
<path d="M176.727 202.438V182.487C169.801 181.39 162.806 180.788 155.794 180.688C87.9145 180.545 27.8177 224.532 7.43424 289.28C-12.9492 354.027 11.1111 424.508 66.8316 463.276C25.093 418.606 13.5035 353.578 37.2401 297.239C60.9766 240.9 115.606 203.772 176.727 202.438Z" fill="#25F4EE"/>
<path d="M180.488 428.443C218.441 428.391 249.637 398.492 251.299 360.576V22.2224H313.115C311.853 15.1525 311.251 7.98063 311.316 0.799316H226.769V338.826C225.363 376.935 194.093 407.121 155.958 407.183C144.562 407.086 133.352 404.283 123.251 399.006C136.529 417.403 157.801 428.343 180.488 428.443Z" fill="#25F4EE"/>
<path d="M428.57 137.023V118.217C405.821 118.225 383.576 111.511 364.628 98.9199C381.238 118.229 403.684 131.604 428.57 137.023Z" fill="#25F4EE"/>
<path d="M364.628 98.917C345.964 77.6629 335.675 50.3415 335.683 22.0557H313.115C319.006 53.6618 337.633 81.4552 364.628 98.917Z" fill="#FE2C55"/>
<path d="M155.794 265.232C123.226 265.399 94.9506 287.711 87.2153 319.348C79.48 350.986 94.2702 383.827 123.087 399.003C107.473 377.446 105.267 348.952 117.378 325.248C129.489 301.545 153.87 286.635 180.488 286.655C187.586 286.743 194.634 287.845 201.421 289.926V203.906C194.49 202.868 187.495 202.322 180.488 202.271H176.727V267.685C169.905 265.856 162.854 265.029 155.794 265.232Z" fill="#FE2C55"/>
<path d="M428.57 137.025V202.439C386.455 202.357 345.434 189.027 311.316 164.335V336.21C311.136 421.975 241.559 491.405 155.794 491.405C123.944 491.461 92.8604 481.633 66.8316 463.277C110.27 509.995 177.873 525.374 237.246 502.043C296.62 478.713 335.669 421.426 335.683 357.633V186.249C369.915 210.778 410.987 223.935 453.1 223.862V139.641C444.856 139.615 436.635 138.738 428.57 137.025Z" fill="#FE2C55"/>
<path d="M311.316 336.206V164.331C345.538 188.88 386.617 202.04 428.734 201.944V136.53C403.852 131.276 381.353 118.075 364.628 98.917C337.633 81.4552 319.006 53.6618 313.115 22.0557H251.299V360.572C250.062 390.773 229.834 416.878 200.897 425.614C171.961 434.35 140.667 423.801 122.924 399.33C94.1067 384.154 79.3166 351.313 87.0518 319.675C94.7871 288.038 123.062 265.726 155.631 265.559C162.731 265.622 169.783 266.724 176.563 268.829V203.416C115.1 204.457 60.0576 241.715 36.2536 298.391C12.4496 355.067 24.381 420.455 66.6681 465.071C92.9535 482.823 124.082 492.019 155.794 491.4C241.559 491.4 311.136 421.97 311.316 336.206Z" fill="black"/>
</g>
<defs>
<clipPath id="clip0_9_1000">
<rect width="452.84" height="512" fill="white" transform="translate(0.260742 0.800781)"/>
</clipPath>
</defs>
</svg>
