<svg width="850" height="513" viewBox="0 0 850 513" fill="none" xmlns="http://www.w3.org/2000/svg">
<g clip-path="url(#clip0_2_14897)">
<path d="M-0.00341797 199.608C-0.00341797 197.627 1.18518 196.438 3.36429 196.438C13.0712 196.438 22.7782 199.211 27.5326 201.192C29.7117 202.183 30.9003 202.381 33.8718 201.192C40.0129 198.617 50.7104 196.438 61.6059 196.438C129.554 196.438 159.27 236.256 159.27 303.412C159.27 370.568 125.79 422.867 43.9749 422.867H37.0414C10.8921 422.867 -0.00341797 411.972 -0.00341797 391.567V199.608ZM37.4376 400.085C37.4376 402.661 38.4281 403.849 41.0034 403.849C93.6982 403.849 119.055 364.824 119.055 303.412C119.055 242.001 100.037 217.239 52.4933 217.239C4.9491 217.239 37.4376 219.021 37.4376 224.964V399.887V400.085Z" fill="#001E60"/>
<path d="M171.75 338.281C171.75 282.218 203.644 253.295 245.642 253.295C287.639 253.295 319.731 282.416 319.731 338.281C319.731 394.145 287.837 423.266 245.642 423.266C203.446 423.266 171.75 394.145 171.75 338.281ZM282.092 338.281C282.092 289.548 266.046 270.728 245.642 270.728C225.237 270.728 209.389 289.548 209.389 338.281C209.389 387.013 225.435 405.635 245.642 405.635C265.848 405.635 282.092 386.815 282.092 338.281Z" fill="#001E60"/>
<path d="M327.657 256.65C360.542 256.65 368.466 275.073 368.466 308.552V359.068C368.466 390.566 376.192 405.027 393.427 405.027C410.662 405.027 418.388 390.566 418.388 359.068V268.14C418.388 266.357 419.576 264.97 422.35 264.97C440.971 264.97 453.055 272.102 453.055 290.327V359.068C453.055 390.566 460.781 405.027 478.412 405.027C496.043 405.027 503.967 390.566 503.967 359.068V281.809C503.967 263.583 516.249 256.452 534.475 256.452C552.7 256.452 538.437 257.64 538.437 259.621V358.87C538.437 401.065 521.4 423.054 483.166 423.054C444.933 423.054 445.725 414.338 438.198 398.094C437.405 396.311 437.009 396.311 436.415 396.311C435.82 396.311 435.226 396.311 434.632 398.094C427.104 414.338 412.841 423.054 389.663 423.054C351.43 423.054 334.393 401.065 334.393 358.87V341.239C334.393 297.062 334.393 279.233 326.073 262.791C325.28 261.602 324.488 260.612 324.488 259.423C324.488 258.235 325.676 256.848 328.054 256.848L327.657 256.65Z" fill="#001E60"/>
<path d="M691.369 416.134C691.369 417.917 690.181 419.304 687.407 419.304C669.182 419.304 656.702 412.172 656.702 392.956V315.301C656.702 294.104 650.164 278.454 626.59 278.454C603.017 278.454 589.942 298.859 589.942 322.631V394.343C589.942 412.568 576.669 419.7 559.236 419.7C541.803 419.7 555.274 418.511 555.274 416.53V260.823C555.274 258.248 556.463 257.059 558.642 257.059C577.858 257.059 589.546 265.181 589.546 278.652C589.546 292.123 589.942 280.237 590.536 280.237C591.131 280.237 591.725 279.445 593.508 276.671C602.818 261.814 618.072 253.295 637.684 253.295C669.975 253.295 691.171 272.115 691.171 304.802V416.53L691.369 416.134Z" fill="#001E60"/>
<path d="M746.835 494.185C790.813 494.185 809.435 459.518 809.435 401.87V399.097C809.435 397.71 809.435 397.314 808.444 397.314C807.454 397.314 807.256 398.106 805.671 400.88C796.756 415.341 782.295 423.067 761.693 423.067C727.223 423.067 709.196 404.248 709.196 371.363V260.228C709.196 257.851 710.384 256.663 712.762 256.663C731.383 256.663 743.665 263.794 743.665 283.01V360.864C743.665 381.862 750.005 397.71 772.984 397.71C795.964 397.71 809.039 378.495 809.039 354.722V282.019C809.039 263.794 821.321 256.663 839.744 256.663C858.168 256.663 843.706 257.851 843.706 259.832V400.087C843.706 471.602 807.256 512.807 746.241 512.807C685.226 512.807 655.312 482.299 655.312 430.793C655.312 379.287 656.303 428.02 657.888 428.02C661.057 428.02 664.623 430.199 672.745 432.18C679.877 433.765 685.028 433.963 687.207 434.161C689.386 434.161 690.574 435.349 690.574 437.33C690.574 471.602 707.215 494.383 746.637 494.383L746.835 494.185Z" fill="#001E60"/>
<path d="M402.733 42.9007C235.932 -9.79412 225.631 210.692 410.261 212.673C440.174 213.069 468.304 207.126 493.463 193.655C652.538 109.264 531.102 -84.28 402.733 42.9007ZM387.281 61.324C365.292 88.86 360.141 119.169 360.141 139.772C360.141 176.222 377.574 196.231 395.205 203.362C253.563 180.779 283.675 27.4488 387.281 61.324ZM423.732 200.787C385.3 202.57 380.942 151.064 380.942 139.178C380.942 114.415 393.026 83.9075 407.289 68.2575C415.61 71.4271 459.588 95.9916 459.588 145.121C459.588 194.25 446.91 199.796 423.732 200.787ZM456.22 198.212C472.266 184.345 479.2 157.799 479.2 143.14C479.2 79.7474 429.081 55.1829 422.345 51.8152C522.782 -40.1035 619.059 131.848 456.22 198.41V198.212Z" fill="#001E60"/>
</g>
<defs>
<clipPath id="clip0_2_14897">
<rect width="849.107" height="512" fill="white" transform="translate(0 0.800781)"/>
</clipPath>
</defs>
</svg>
