<svg width="1025" height="335" viewBox="0 0 1025 335" fill="none" xmlns="http://www.w3.org/2000/svg">
<g clip-path="url(#clip0_2_14809)">
<path d="M132.297 260.031C60.8261 260.031 0.779297 201.795 0.779297 130.324C0.779297 58.8528 60.8261 0.617188 132.297 0.617188C171.829 0.617188 199.937 16.1165 221.113 36.3527L196.14 61.3258C180.955 47.0803 160.405 36.0044 132.297 36.0044C80.1567 36.0044 39.3709 78.0789 39.3709 130.289C39.3709 182.499 80.1567 224.539 132.297 224.539C166.117 224.539 185.413 210.955 197.743 198.59C207.843 188.455 214.496 173.931 217.038 153.973H131.392V118.551H251.485C252.739 124.89 253.366 132.483 253.366 140.703C253.366 167.278 246.087 200.193 222.716 223.598C199.972 247.318 170.889 259.961 132.297 259.961V260.031Z" fill="#4285F4"/>
<path d="M433.228 176.508C433.228 224.609 395.646 260.031 349.566 260.031C303.486 260.031 265.905 224.609 265.905 176.508C265.905 128.408 303.486 92.9863 349.566 92.9863C395.646 92.9863 433.228 128.095 433.228 176.508ZM396.587 176.508C396.587 146.45 374.783 125.901 349.531 125.901C324.28 125.901 302.476 146.45 302.476 176.508C302.476 206.567 324.28 227.116 349.531 227.116C374.783 227.116 396.587 206.253 396.587 176.508Z" fill="#EA4335"/>
<path d="M615.353 176.508C615.353 224.609 577.772 260.031 531.692 260.031C485.612 260.031 448.031 224.609 448.031 176.508C448.031 128.408 485.612 92.9863 531.692 92.9863C577.772 92.9863 615.353 128.095 615.353 176.508ZM578.712 176.508C578.712 146.45 556.909 125.901 531.657 125.901C506.405 125.901 484.602 146.45 484.602 176.508C484.602 206.567 506.405 227.116 531.657 227.116C556.909 227.116 578.712 206.253 578.712 176.508Z" fill="#FBBC04"/>
<path d="M789.573 98.0367V247.98C789.573 309.663 753.21 334.985 710.23 334.985C669.758 334.985 645.412 307.783 636.251 285.631L668.19 272.36C673.868 285.979 687.8 302.105 710.23 302.105C737.746 302.105 754.813 285.039 754.813 253.065V241.048H753.559C745.339 251.184 729.526 260.031 709.603 260.031C667.877 260.031 629.634 223.668 629.634 176.822C629.634 129.976 667.877 92.9863 709.603 92.9863C729.526 92.9863 745.339 101.833 753.559 111.655H754.813V98.0367H789.573ZM757.32 176.822C757.32 147.391 737.711 125.901 712.738 125.901C687.765 125.901 666.275 147.426 666.275 176.822C666.275 206.218 687.451 227.116 712.738 227.116C738.025 227.116 757.32 205.905 757.32 176.822Z" fill="#4285F4"/>
<path d="M852.615 9.46387V254.945H815.939V9.46387H852.615Z" fill="#34A853"/>
<path d="M994.756 204.024L1023.21 223.006C1014.05 236.625 991.9 260.031 953.657 260.031C906.253 260.031 870.831 223.32 870.831 176.508C870.831 126.841 906.567 92.9863 949.547 92.9863C992.527 92.9863 1014.02 127.468 1020.98 146.137L1024.78 155.611L913.184 201.795C921.718 218.548 934.988 227.116 953.657 227.116C972.325 227.116 985.282 217.956 994.756 204.024ZM907.193 173.966L981.799 142.967C977.689 132.518 965.359 125.239 950.835 125.239C932.201 125.239 906.253 141.679 907.228 173.966H907.193Z" fill="#EA4335"/>
</g>
<defs>
<clipPath id="clip0_2_14809">
<rect width="1024" height="334.367" fill="white" transform="translate(0.779297 0.617188)"/>
</clipPath>
</defs>
</svg>
