<svg width="526" height="513" viewBox="0 0 526 513" fill="none" xmlns="http://www.w3.org/2000/svg">
<g clip-path="url(#clip0_820_487)">
<path d="M503.763 21.9258H22.3958V490.165H503.763V21.9258Z" fill="#002623"/>
<path fill-rule="evenodd" clip-rule="evenodd" d="M0.512939 0.0507812V512.051H525.641V0.0507812H0.512939ZM22.3933 21.9311H503.761V490.17H22.3933V21.9311Z" fill="#00E6D2"/>
<path fill-rule="evenodd" clip-rule="evenodd" d="M142.733 356.265C142.733 358.015 142.077 357.796 140.326 357.796H108.381C106.193 357.796 105.536 357.14 105.536 354.952V125.208C105.536 123.458 106.193 121.926 107.724 121.926C125.01 121.27 140.545 120.832 166.583 120.832C216.907 120.832 247.321 144.9 247.321 188.442C247.321 224.326 223.253 244.456 203.342 251.895C213.625 269.618 248.196 333.29 259.355 354.514C260.449 356.265 260.449 357.796 258.042 357.796H221.283C218.877 357.796 217.783 358.234 217.126 357.14C209.03 343.136 183.649 293.249 167.458 263.711H142.733V356.265ZM164.176 228.702C189.995 228.702 208.374 218.418 208.374 192.162C208.374 166.343 191.745 154.965 165.707 154.965C156.518 154.965 147.765 155.403 142.733 155.622V228.702H164.176ZM328.716 355.389C328.716 357.14 328.059 357.796 326.528 357.796H291.738C289.988 357.796 289.331 356.702 289.331 355.389V123.676C289.331 122.145 289.769 121.488 291.738 121.488H326.528C328.059 121.488 328.716 122.145 328.716 123.676V194.131C339.656 185.598 353.222 180.347 370.07 180.347C393.044 180.347 420.613 191.943 420.613 243.362V354.952C420.613 357.14 419.957 357.796 418.206 357.796H383.854C382.104 357.796 381.448 356.702 381.448 354.952V247.082C381.448 225.858 373.133 214.261 356.285 214.261C345.345 214.261 336.593 217.762 328.935 224.764V355.389H328.716Z" fill="#00E6D2"/>
</g>
<defs>
<clipPath id="clip0_820_487">
<rect width="525.128" height="512" fill="white" transform="translate(0.512939 0.0507812)"/>
</clipPath>
</defs>
</svg>
