<svg width="1024" height="154" viewBox="0 0 1024 154" fill="none" xmlns="http://www.w3.org/2000/svg">
<g clip-path="url(#clip0_806_205)">
<path d="M586.737 1.93066C608.109 1.93066 631.42 11.3331 631.42 39.3594C631.42 58.83 618.816 69.2905 609.625 73.3721C620.327 76.1538 636.771 85.7676 636.771 108.866C636.771 129.183 621.595 151.616 589.093 151.616H522.372V1.96077H586.737V1.93066ZM583.742 64.9976C597.439 64.9976 608.32 57.0763 608.32 42.5341C608.32 27.9919 598.284 22.0055 584.592 22.0055H545.889V64.9675H583.742V64.9976ZM585.253 131.481C603.212 131.481 612.826 122.713 612.826 107.324C612.826 92.9938 601.49 84.6493 584.376 84.6493H545.889V131.481H585.226H585.253Z" fill="#22303B"/>
<path d="M726.654 151.615C726.443 150.557 726.443 149.469 726.443 147.987C726.232 145.629 726.232 142.636 726.232 139.431C721.092 144.571 711.267 153.127 688.59 153.127C665.918 153.127 648.835 140.52 648.835 117.633C648.835 92.8419 669.574 85.9786 680.915 84.2856C686.9 83.4394 698.024 81.9276 707.638 80.4459C713.412 79.811 719.19 78.9346 725.387 78.0879V73.5831C725.387 62.2457 721.546 53.2664 701.231 53.2664C679.642 53.2664 676.863 64.3919 676.224 72.0713H653.341C653.341 56.8943 660.837 34.6426 700.808 34.6426C740.774 34.6426 748.063 55.1712 748.063 73.1294V133.415C748.063 140.036 748.063 147.534 749.542 151.585H726.654V151.615ZM725.355 95.8047L712.535 97.5278L691.585 100.733C681.126 102.456 672.146 106.295 672.146 117.633C672.146 125.554 677.497 135.168 692.673 135.168C704.432 135.168 712.355 131.964 718.129 126.612C723.057 121.684 725.387 114.852 725.387 108.23V95.8348L725.355 95.8047Z" fill="#22303B"/>
<path d="M844.175 151.615V78.9042C844.175 62.4572 835.829 54.1133 820.653 54.1133C804.177 54.1133 790.723 65.4507 790.723 87.4604V151.615H768.046V36.1545H790.512V50.4849C797.131 41.9291 809.106 34.6729 826.215 34.6729C851.221 34.6729 866.852 49.215 866.852 72.1016V151.646H844.175V151.615Z" fill="#22303B"/>
<path d="M909.448 1.96094H886.777V151.616H909.448V1.96094Z" fill="#22303B"/>
<path d="M946.334 92.6301L983.4 36.2754H956.281L918.365 93.9301L964.474 151.615H993.495L946.334 92.6301Z" fill="#22303B"/>
<path d="M205.1 151.615C204.889 150.557 204.889 149.469 204.889 147.987C204.677 145.629 204.677 142.636 204.677 139.431C199.538 144.571 189.712 153.127 167.037 153.127C144.361 153.127 127.249 140.52 127.249 117.633C127.249 92.8419 147.99 85.9786 159.327 84.2856C165.313 83.4394 176.439 81.9276 186.054 80.4459C191.828 79.811 197.603 78.9346 203.8 78.0879V73.5831C203.8 62.2457 199.961 53.2664 179.644 53.2664C158.057 53.2664 155.276 64.3919 154.611 72.0713H131.724C131.724 56.8943 139.222 34.6426 179.19 34.6426C219.159 34.6426 226.445 55.1712 226.445 73.1294V133.415C226.445 140.036 226.445 147.534 227.957 151.585H205.07L205.1 151.615ZM203.831 95.8047L191.011 97.5278L170.06 100.733C159.569 102.456 150.59 106.295 150.59 117.633C150.59 125.554 155.941 135.168 171.118 135.168C182.879 135.168 190.8 131.964 196.575 126.612C201.503 121.684 203.831 114.852 203.831 108.23V95.8348V95.8047Z" fill="#F46A21"/>
<path d="M315.119 68.6553C314.061 56.6824 304.87 52.8427 291.386 52.8427C282.195 52.8427 267.652 55.6244 267.652 67.3854C267.652 74.2181 272.157 77.8761 279.625 79.7809C300.576 84.9205 339.487 81.5045 339.487 116.545C339.487 132.145 330.084 153.096 289.239 153.096C263.571 153.096 243.496 140.489 242.831 116.545H266.352C266.352 125.736 272.762 134.926 290.509 134.926C309.979 134.926 316.6 126.159 316.6 118.449C316.6 110.74 312.549 107.747 303.116 105.419C281.741 100.279 244.947 104.36 244.947 68.6553C244.947 49.1847 261.636 34.6426 292.202 34.6426C330.477 34.6426 336.887 57.5292 337.522 68.6553H315.058H315.119Z" fill="#F46A21"/>
<path d="M380.21 1.96094H357.535V151.616H380.21V1.96094Z" fill="#F46A21"/>
<path d="M417.07 92.6301L454.135 36.2754H427.048L389.105 93.9301L435.209 151.615H464.235L417.07 92.6301Z" fill="#F46A21"/>
<path d="M71.8044 63.6668H34.4358V87.0674H71.8044C82.8998 87.0674 91.9093 96.2887 91.9093 107.596C91.9093 118.903 82.8998 128.125 71.8044 128.125H23.4006V25.3311H63.3992C74.4946 25.3311 83.5047 33.9174 83.5047 44.4989C83.5047 47.4618 82.7789 50.2434 81.5391 52.7224L103.761 60.19C105.756 55.3224 106.935 50.0316 106.935 44.4688C106.935 21.0075 87.4046 1.90039 63.3992 1.90039H0V151.555L71.8345 151.495C95.8393 151.495 115.37 131.783 115.37 107.566C115.37 83.3486 95.8393 63.6367 71.8345 63.6367L71.8044 63.6668Z" fill="#F46A21"/>
<path d="M1017.23 2.71681C1019.31 3.92593 1020.98 5.58879 1022.18 7.67477C1023.39 9.76075 1024 12.0887 1024 14.6284C1024 17.1681 1023.39 19.5261 1022.18 21.6126C1020.98 23.6986 1019.31 25.3615 1017.23 26.5706C1015.11 27.7803 1012.78 28.3845 1010.27 28.3845C1007.76 28.3845 1005.41 27.7803 1003.29 26.5706C1001.18 25.3615 999.511 23.6986 998.333 21.6126C997.15 19.5261 996.516 17.1982 996.516 14.6284C996.516 12.0585 997.124 9.73064 998.333 7.64466C999.543 5.55869 1001.2 3.92593 1003.29 2.71681C1005.37 1.50717 1007.7 0.902344 1010.27 0.902344C1012.84 0.902344 1015.17 1.50717 1017.26 2.71681H1017.23ZM1016.23 24.9378C1018.02 23.9099 1019.4 22.4589 1020.43 20.6449C1021.46 18.831 1021.97 16.8052 1021.97 14.5983C1021.97 12.3913 1021.46 10.3957 1020.46 8.58174C1019.44 6.7678 1018.04 5.37698 1016.26 4.34904C1014.48 3.32111 1012.48 2.80714 1010.27 2.80714C1008.07 2.80714 1006.07 3.32111 1004.29 4.34904C1002.5 5.37698 1001.08 6.79791 1000.06 8.58174C999.025 10.3957 998.513 12.3913 998.513 14.5983C998.513 16.8052 999.025 18.831 1000.06 20.6449C1001.08 22.4589 1002.5 23.8798 1004.29 24.9378C1006.07 25.9658 1008.07 26.5104 1010.27 26.5104C1012.48 26.5104 1014.48 25.9964 1016.26 24.9378H1016.23ZM1015.35 17.9541L1018.11 22.761H1014.23L1011.33 17.531C1011.09 17.138 1010.82 16.8353 1010.55 16.6843C1010.27 16.5332 1009.88 16.4423 1009.39 16.4423H1007.74V22.761H1004.25V6.49576H1011.3C1013.15 6.49576 1014.6 6.91887 1015.6 7.79573C1016.59 8.67259 1017.11 9.88172 1017.11 11.3935C1017.11 12.6026 1016.77 13.6306 1016.05 14.4773C1015.35 15.3241 1014.35 15.8681 1013.09 16.1101C1014.02 16.352 1014.78 16.9563 1015.38 17.924L1015.35 17.9541ZM1013 13.2983C1013.45 12.9354 1013.69 12.3612 1013.69 11.5747C1013.69 10.7887 1013.45 10.1537 1013 9.79138C1012.54 9.39785 1011.81 9.21667 1010.85 9.21667H1007.64V13.8725H1010.85C1011.81 13.8725 1012.51 13.6913 1013 13.3284V13.2983Z" fill="#22303B"/>
</g>
<defs>
<clipPath id="clip0_806_205">
<rect width="1024" height="152.225" fill="white" transform="translate(0 0.902344)"/>
</clipPath>
</defs>
</svg>
