<svg width="512" height="513" viewBox="0 0 512 513" fill="none" xmlns="http://www.w3.org/2000/svg">
<g clip-path="url(#clip0_879_3633)">
<path d="M0 256.048C0 397.211 114.841 512.051 256.003 512.051C397.159 512.051 512.005 397.21 512.005 256.048C512.005 114.892 397.159 0.0507812 256.003 0.0507812C114.839 0.0507812 0 114.892 0 256.048Z" fill="black"/>
<path d="M256.003 506.437C394.28 506.437 506.385 394.331 506.385 256.049C506.385 117.772 394.28 5.66602 256.003 5.66602C117.719 5.66602 5.61459 117.772 5.61459 256.049C5.61459 394.332 117.72 506.437 256.003 506.437Z" fill="#A5ACAF"/>
<path d="M256.003 465.535C371.356 465.535 464.873 372.018 464.873 256.665C464.873 141.311 371.356 47.7891 256.003 47.7891C140.644 47.7891 47.1272 141.313 47.1272 256.665C47.1272 372.018 140.644 465.535 256.003 465.535Z" fill="#FFFFFE"/>
<path d="M257.086 256.946C259.498 171.393 340.312 151.307 360.616 153.149C310.564 150.432 261.168 129.28 257.35 50.1309C251.321 123.736 221.786 144.662 153.721 153.397C202.34 155.861 251.551 175.1 257.084 256.946" fill="#FFB612"/>
<path d="M360.905 362.837C363.318 277.284 442.71 256.173 463.02 258.016C412.8 256.161 364.429 232.292 360.618 153.148C354.589 226.759 325.151 248.209 257.087 256.945C305.706 259.409 355.366 280.992 360.906 362.837" fill="#C60C30"/>
<path d="M258.341 464.666C260.749 379.101 340.595 360.996 360.905 362.84C310.852 360.115 260.904 336.103 257.086 256.947C251.057 330.557 222.397 352.67 154.337 361.399C202.949 363.875 252.801 382.826 258.34 464.666" fill="#00539B"/>
<path d="M198.891 238.657L207.045 238.571L207.08 242.504C208.306 240.344 209.044 239.054 211.82 238.432H213.847V247.974C206.827 247.479 207.293 249.937 207.202 251.826V269.982H198.892V238.656L198.891 238.657ZM235.629 248.872L228.351 248.837C228.351 248.083 228.368 247.421 228.229 246.845C228.028 246.038 226.951 245.272 225.857 245.262C224.567 245.262 223.571 245.676 223.139 246.926C222.621 248.435 222.863 250.658 226.79 251.101L228.789 251.596C231.017 252.345 233.171 252.967 234.847 256.163C235.129 256.711 235.175 256.889 235.624 258.454C236.573 261.702 235.946 264.178 234.886 266.114C234.242 267.271 232.658 268.711 232.093 269.062C229.013 270.962 224.855 271.163 221.077 270.018C219.223 269.454 217.202 268.037 216.2 266.091C215.163 264.081 215.14 262.434 215.008 259.715L222.045 259.67C221.901 260.77 222.581 262.042 223.669 262.457C224.77 262.889 227.516 262.906 228 261.674C228.34 260.804 228.558 260.332 227.804 259.198C226.429 257.119 223.486 256.779 220.9 256.128C216.276 254.959 215.154 250.478 215.355 247.081C215.453 245.475 215.74 243.62 216.755 242.37C218.891 239.727 219.824 239.859 221.103 239.244C225.358 237.176 230.65 238.645 233.472 241.507C235.055 243.102 235.571 246.038 235.629 248.872ZM100.651 238.84H94.8816L91.7432 238.863C91.6677 237.488 91.4613 235.702 90.551 234.867C89.2036 233.641 86.1515 234.32 85.345 236.024C83.883 239.087 85.7537 241.967 90.4646 243.471L91.7607 244.115C96.2114 246.287 97.4441 247.352 99.1084 249.701C99.6088 250.41 100.588 252.259 100.986 254.515C101.833 259.341 100.618 262.335 99.5292 264.978C99.5292 264.978 99.1151 266.228 97.9688 267.292C93.2928 271.657 86.8151 271.847 82.0124 269.568C79.8006 268.508 78.0972 267.483 76.882 264.754C75.6844 262.077 75.4133 259.647 75.7585 255.696L84.7246 255.645C84.5574 256.901 84.9256 260.073 85.7672 260.955C86.602 261.83 89.9993 262.683 91.3062 260.367C91.7675 259.555 91.8821 256.025 90.4539 254.666C87.7646 252.081 85.4435 251.822 82.2768 249.84C77.756 247.019 75.3553 241.957 75.6426 237.155C75.7801 234.879 76.4032 233.296 77.5078 231.304C78.6137 229.335 80.1795 227.538 82.4426 226.547C88.4659 223.904 95.8257 225.413 99.0679 231.137C99.9203 232.634 100.773 234.867 100.651 238.84ZM105.229 238.679V235.788L113.624 231.181L113.659 238.782L116.856 238.714L116.891 246.125L113.661 246.073V258.409C113.661 260.096 113.356 260.77 116.741 260.718L116.736 270.104C112.74 270.006 105.173 271.365 105.138 262.538L105.075 245.913L101.942 246.017L101.907 238.784L105.23 238.68L105.229 238.679ZM164.552 226.107L173.011 226.13V270.251H164.552V226.107ZM182.432 261.119C182.444 263.93 188.582 264.506 188.731 260.964V260.072L195.642 260.036L195.654 263.728C195.723 266.181 194.705 268.847 190.558 270.276C186.158 271.646 183.411 270.823 180.838 270.276C177.458 269.038 175.816 266.348 175.661 262.56V247.277C175.506 244.409 177.1 241.91 179.871 240.089C184.592 238.027 187.172 238.58 190.719 239.807C194.099 241.65 195.626 243.93 195.66 247.115V256.812H182.403L182.432 261.119ZM182.731 250.265L188.985 250.288C190.274 244.812 181.683 244.103 182.731 250.265ZM148.774 261.119C148.791 263.93 154.929 264.506 155.086 260.964V260.072L161.99 260.036L162.007 263.728C162.065 266.181 161.051 268.847 156.905 270.276C152.506 271.646 149.758 270.823 147.185 270.276C143.805 269.038 142.164 266.348 142.009 262.56V247.277C141.854 244.409 143.455 241.91 146.218 240.089C150.94 238.027 153.525 238.58 157.062 239.807C160.448 241.65 161.968 243.93 162.009 247.115V256.812H148.787L148.775 261.119H148.774ZM149.079 250.265L155.333 250.288C156.622 244.812 148.031 244.103 149.079 250.265ZM125.854 261.119C125.872 263.93 132.01 264.506 132.166 260.964V260.072L139.07 260.036L139.088 263.728C139.151 266.181 138.131 268.847 133.985 270.276C129.586 271.646 126.833 270.823 124.265 270.276C120.886 269.038 119.244 266.348 119.089 262.56V247.277C118.934 244.409 120.535 241.91 123.298 240.089C128.015 238.027 130.606 238.58 134.142 239.807C137.528 241.65 139.048 243.93 139.089 247.115V256.812H125.868L125.856 261.119H125.854ZM126.159 250.265L132.413 250.288C133.702 244.812 125.111 244.103 126.159 250.265Z" fill="black"/>
</g>
<defs>
<clipPath id="clip0_879_3633">
<rect width="512.005" height="512" fill="white" transform="translate(0 0.0507812)"/>
</clipPath>
</defs>
</svg>
