<svg width="1025" height="292" viewBox="0 0 1025 292" fill="none" xmlns="http://www.w3.org/2000/svg">
<g clip-path="url(#clip0_750_341)">
<path fill-rule="evenodd" clip-rule="evenodd" d="M760.378 222.113C725.198 222.113 703.342 201.679 703.342 168.768C703.342 134.568 723.509 113.318 755.98 113.318L758.725 113.303C762.784 113.303 768.395 113.431 776.056 114.407V73.144H799.029V218.403C799.029 218.403 777.212 222.113 760.378 222.113ZM760.179 131.437C737.947 131.437 727.139 143.463 727.139 168.198C727.139 190.393 740.169 204.179 761.136 204.179C765.16 204.179 769.773 203.928 776.056 203.374V132.906C769.768 131.905 764.72 131.437 760.179 131.437Z" fill="#404041"/>
<path fill-rule="evenodd" clip-rule="evenodd" d="M446.055 218.8L384.057 110.328L384.042 218.8H362.441V81.4976H392.675L454.672 188.999L454.646 81.4976H476.524V218.8H446.055Z" fill="#404041"/>
<path fill-rule="evenodd" clip-rule="evenodd" d="M643.499 220.905C633.065 220.905 622.174 219.735 609.21 217.235L607.833 216.963V197.782L609.886 198.233C621.299 200.667 631.165 202.771 641.021 202.771C649.003 202.771 667.568 201.497 667.568 189.743C667.568 179.873 654.738 177.405 644.426 175.428L643.781 175.3C641.866 174.921 640.053 174.561 638.502 174.171C623.388 170.234 607.265 164.331 607.265 144.021C607.265 124.218 622.907 112.86 650.175 112.86C663.257 112.86 672.759 114.276 680.388 115.416L684.121 115.975V134.566L682.129 134.222C673.492 132.625 663.37 130.988 653.616 130.988C642.807 130.988 629.931 133.016 629.931 142.681C629.931 150.688 640.453 152.982 652.638 155.637C669.662 159.352 690.793 163.977 690.793 187.264C690.793 208.642 673.553 220.905 643.499 220.905Z" fill="#404041"/>
<path fill-rule="evenodd" clip-rule="evenodd" d="M863.452 220.905C839.675 220.905 817.68 216.717 817.68 186.31C817.68 153.223 851.702 153.223 872.033 153.223C874.066 153.223 883.62 153.66 886.564 153.793C886.538 135.233 886.287 130.804 859.438 130.804C848.794 130.804 836.967 132.924 826.532 134.791L824.541 135.151V116.816L825.902 116.539C837.991 114.066 849.649 112.86 861.538 112.86C887.562 112.86 909.614 115.493 909.614 147.85V218.436L908.027 218.6C890.004 220.628 875.684 220.905 863.452 220.905ZM871.455 169.587C851.855 169.587 839.711 172.477 839.711 186.874C839.711 203.53 855.215 204.921 869.745 204.921C875.188 204.921 884.952 204.228 887.937 204.003V170.152C883.722 169.992 872.781 169.587 871.455 169.587Z" fill="#404041"/>
<path fill-rule="evenodd" clip-rule="evenodd" d="M541.439 220.905C517.662 220.905 495.667 216.717 495.667 186.31C495.667 153.223 529.689 153.223 550.021 153.223C552.048 153.223 561.606 153.66 564.551 153.793C564.525 135.233 564.274 130.804 537.425 130.804C526.781 130.804 514.959 132.924 504.519 134.791L502.528 135.151V116.816L503.889 116.539C515.983 114.066 527.636 112.86 539.524 112.86C565.549 112.86 587.601 115.493 587.601 147.85V218.436L586.013 218.6C567.992 220.628 553.671 220.905 541.439 220.905ZM549.442 169.587C529.843 169.587 517.698 172.477 517.698 186.874C517.698 203.53 533.201 204.921 547.732 204.921C553.174 204.921 562.938 204.228 565.923 204.003V170.152C561.71 169.992 550.768 169.587 549.442 169.587Z" fill="#404041"/>
<path fill-rule="evenodd" clip-rule="evenodd" d="M1001 265.436V220.406C992.035 221.669 987.269 221.669 983.428 221.669C974.343 221.669 964.25 219.687 956.422 216.361C938.937 209.083 928.498 190.554 928.498 166.789C928.498 154.906 931.381 133.221 950.678 121.533C960.339 115.733 971.787 113.254 988.962 113.254C995.128 113.254 1003.43 113.731 1011.46 114.198L1024.49 114.87V255.012L1001 265.436ZM987.24 131.378C963.938 131.378 952.111 143.291 952.111 166.789C952.111 197.011 969.76 203.355 984.575 203.355C988.174 203.355 992.239 203.355 1001.22 202.22V132.029C994.185 131.552 990.956 131.378 987.24 131.378Z" fill="#404041"/>
<path fill-rule="evenodd" clip-rule="evenodd" d="M259.913 0.107422L184 209.182C182.136 214.341 177.431 218.108 171.788 218.678V218.801H252.028C258.321 218.801 263.697 214.792 265.714 209.182L341.629 0.107422H259.913ZM165.261 215.607C169.895 215.607 173.981 213.308 176.479 209.797C176.741 209.432 177.652 208.149 178.287 206.398L206.134 129.684L189.848 84.8849C187.769 79.9112 182.859 76.4157 177.14 76.4157C172.511 76.4157 168.42 78.7101 165.922 82.226C165.661 82.5854 164.576 84.2227 164.115 85.624L136.277 162.308L152.631 207.286C154.75 212.179 159.599 215.607 165.261 215.607ZM90.0907 73.2094H171.207V73.2556C165.181 73.5071 160.075 77.3926 158.119 82.8231L82.2111 291.892H0.491211L76.3999 82.8231C78.4274 77.213 83.7931 73.2094 90.0907 73.2094Z" fill="#0090BA"/>
</g>
<defs>
<clipPath id="clip0_750_341">
<rect width="1024" height="291.785" fill="white" transform="translate(0.491211 0.107422)"/>
</clipPath>
</defs>
</svg>
