<svg width="1024" height="345" viewBox="0 0 1024 345" fill="none" xmlns="http://www.w3.org/2000/svg">
<g clip-path="url(#clip0_806_390)">
<path fill-rule="evenodd" clip-rule="evenodd" d="M721.51 123.568C773.226 123.568 790.692 155.822 790.692 197.124C790.692 249.177 763.829 285.437 710.434 285.437C664.433 285.437 641.601 256.553 641.601 209.885C641.601 153.121 671.141 123.568 721.51 123.568ZM394.669 66.4971H548.074L548.039 116.399L533.304 121.121C531.283 86.2143 523.463 81.9174 485.424 81.1313C461.882 80.6348 449.731 85.9601 449.731 110.14V165.52H478.839C498.326 165.52 501.441 152.783 501.441 137.014L516.211 137.062V209.163L501.441 209.122C501.66 186.16 496.062 182.306 479.271 182.306H449.731V220.967C449.731 260.584 456.09 269.757 481.848 268.652L481.676 281.406H394.669V268.652C410.763 268.652 422.608 260.584 422.608 241.121V112.835C422.608 89.3291 418.157 79.2518 394.669 79.2518V66.4971ZM723.88 264.621C755.773 264.621 765.17 249.177 765.17 200.806C765.17 156.477 752.144 144.148 712.898 144.148C682.779 144.148 667.11 149.776 667.11 208.206C667.11 245.146 682.903 264.621 723.88 264.621ZM810.645 226.274L825.421 226.15V234.1C825.439 261.045 837.189 268.191 862.698 268.191C883.515 268.191 893.267 259.231 893.267 246.476C893.267 204.837 809.983 216.923 809.983 164.215C809.983 143.723 825.061 126.695 860.718 125.117C877.593 124.367 897.582 128.681 910.484 126.937V169.061L895.714 173.612C895.714 144.06 880.979 142.098 865.092 141.761C846.841 141.383 833.489 145.065 833.489 159.492C833.489 192.739 916.767 185.362 916.767 238.762C916.767 260.584 903.368 284.444 865.092 284.444C842.242 284.444 824.263 280.336 810.645 281.259V226.274ZM926.951 144.391L926.903 131.465C945.935 129.479 959.789 116.807 961.385 85.8892L976.622 86.2143V127.611H1003.77C1012.5 127.611 1019.23 126.258 1023.93 124.237L1018.21 144.391H976.622V241.777C976.622 258.894 987.278 262.599 1014.82 262.599C1020.2 262.599 1018.63 262.269 1024 261.932L1020.72 280.059C1012.31 282.062 1005.86 283.416 994.099 283.416C972.603 283.416 951.106 272.009 951.106 250.507V144.391H926.951ZM539.746 281.406L539.705 268.592C555.492 267.901 563.276 264.29 563.276 252.191V166.892C563.276 151.46 560.823 147.765 539.995 147.765L540.119 135.034C558.376 133.474 575.77 129.479 585.422 123.568V168.576H586.102C593.153 143.055 612.722 123.568 643.947 123.568L638.64 151.79C620.56 150.88 609.62 154.138 603.118 160.397C592.408 170.693 588.779 189.393 588.779 230.707C588.779 262.269 590.452 268.989 616.996 268.592V281.406H539.746Z" fill="#1A1918"/>
<path fill-rule="evenodd" clip-rule="evenodd" d="M136.301 3.08402C141.543 0.808504 148.08 -0.125344 155.037 0.790773C156.485 0.962175 157.903 1.26361 159.274 1.58277C176.882 5.16449 188.2 22.3047 184.624 39.9001L170.9 108.78L136.301 3.08402Z" fill="#1A1918"/>
<path fill-rule="evenodd" clip-rule="evenodd" d="M70.6829 31.7199C74.5424 27.4998 80.1277 23.989 86.8538 21.9913C88.2841 21.5539 89.6731 21.2525 91.0561 20.9924C108.586 17.1093 125.934 28.1677 129.793 45.6803L145.302 114.188L70.6829 31.7199Z" fill="#1A1918"/>
<mask id="mask0_806_390" style="mask-type:luminance" maskUnits="userSpaceOnUse" x="0" y="60" width="125" height="93">
<path d="M0 60.1436V152.505H124.119V60.1436H0Z" fill="white"/>
</mask>
<g mask="url(#mask0_806_390)">
<path fill-rule="evenodd" clip-rule="evenodd" d="M22.4006 84.6064C24.1974 79.1688 27.8796 73.6957 33.2226 69.1152C34.3397 68.1695 35.4863 67.3007 36.6625 66.5087C51.078 55.8525 71.3981 58.8786 82.0841 73.3234L124.119 129.608L22.4006 84.6064Z" fill="#1A1918"/>
<path fill-rule="evenodd" clip-rule="evenodd" d="M-0.21867 152.506C-0.768338 146.82 0.342822 140.307 3.36305 133.965C4.00729 132.664 4.71063 131.4 5.44944 130.194C14.2737 114.567 34.1091 109.094 49.7245 117.93L111.01 152.252L-0.21867 152.506Z" fill="#1A1918"/>
</g>
<path fill-rule="evenodd" clip-rule="evenodd" d="M6.79682 223.768C3.98345 218.78 2.34626 212.397 2.54131 205.381C2.57086 203.903 2.7068 202.485 2.87229 201.078C4.59814 183.217 20.4677 170.137 38.3408 171.845L108.291 178.323L6.79682 223.768Z" fill="#1A1918"/>
<path fill-rule="evenodd" clip-rule="evenodd" d="M42.1354 286.01C37.5371 282.606 33.4471 277.446 30.7756 270.95C30.22 269.573 29.7412 268.232 29.3334 266.878C23.6594 249.856 32.8206 231.469 49.8604 225.765L116.382 203.211L42.1354 286.01Z" fill="#1A1918"/>
<mask id="mask1_806_390" style="mask-type:luminance" maskUnits="userSpaceOnUse" x="71" y="222" width="99" height="123">
<path d="M71.752 344.133H169.694V222.65H71.752V344.133Z" fill="white"/>
</mask>
<g mask="url(#mask1_806_390)">
<path fill-rule="evenodd" clip-rule="evenodd" d="M99.7738 328.518C94.1766 327.277 88.3371 324.186 83.2482 319.351C82.1843 318.346 81.2032 317.282 80.2812 316.224C68.1648 302.985 69.0632 282.452 82.3025 270.312L133.895 222.65L99.7738 328.518Z" fill="#1A1918"/>
<path fill-rule="evenodd" clip-rule="evenodd" d="M169.694 343.886C164.097 345.026 157.495 344.588 150.876 342.277C149.487 341.763 148.163 341.202 146.898 340.582C130.437 333.43 122.901 314.303 130.077 297.843L157.814 233.301L169.694 343.886Z" fill="#1A1918"/>
</g>
<path fill-rule="evenodd" clip-rule="evenodd" d="M239.822 329.488C235.17 332.792 228.976 335.09 221.972 335.64C220.506 335.752 219.07 335.776 217.675 335.74C199.713 335.906 185.061 321.473 184.896 303.54L183.992 233.301L239.822 329.488Z" fill="#1A1918"/>
<path fill-rule="evenodd" clip-rule="evenodd" d="M298.069 287.825C295.137 292.761 290.439 297.347 284.245 300.71C282.95 301.425 281.656 302.01 280.355 302.554C264.007 309.995 244.763 302.802 237.322 286.472L207.917 222.681L298.069 287.825Z" fill="#1A1918"/>
<path fill-rule="evenodd" clip-rule="evenodd" d="M334.264 226.072C333.626 231.758 331.179 237.876 326.9 243.461C326.002 244.625 325.074 245.701 324.087 246.729C312.201 260.152 291.686 261.429 278.251 249.525L225.424 203.211L334.264 226.072Z" fill="#1A1918"/>
<path fill-rule="evenodd" clip-rule="evenodd" d="M342.285 154.941C343.987 160.403 344.259 166.999 342.592 173.825C342.267 175.25 341.836 176.615 341.369 177.945C335.955 195.067 317.733 204.536 300.605 199.146L233.509 178.299L342.285 154.941Z" fill="#1A1918"/>
<path fill-rule="evenodd" clip-rule="evenodd" d="M320.617 86.6865C324.406 90.9893 327.32 96.8997 328.602 103.809C328.862 105.245 329.057 106.67 329.158 108.076C331.185 125.92 318.365 141.99 300.546 144.018L230.779 152.251L320.617 86.6865Z" fill="#1A1918"/>
<path fill-rule="evenodd" clip-rule="evenodd" d="M272.997 33.2031C278.251 35.585 283.299 39.7992 287.282 45.6032C288.098 46.8089 288.849 48.0383 289.522 49.2854C298.636 64.735 293.471 84.6296 278.003 93.7671L217.628 129.661L272.997 33.2031Z" fill="#1A1918"/>
<path fill-rule="evenodd" clip-rule="evenodd" d="M207.87 3.58008C213.603 3.63327 219.951 5.44186 225.938 9.1063C227.203 9.87466 228.361 10.6785 229.484 11.5532C244.083 21.9615 247.493 42.2579 237.061 56.8685L196.51 114.217L207.87 3.58008Z" fill="#1A1918"/>
</g>
<defs>
<clipPath id="clip0_806_390">
<rect width="1024" height="343.691" fill="white" transform="translate(0 0.442383)"/>
</clipPath>
</defs>
</svg>
