<svg width="513" height="513" viewBox="0 0 513 513" fill="none" xmlns="http://www.w3.org/2000/svg">
<g clip-path="url(#clip0_781_239)">
<path d="M256.868 512.575C398.253 512.575 512.868 397.96 512.868 256.575C512.868 115.19 398.253 0.574707 256.868 0.574707C115.483 0.574707 0.868164 115.19 0.868164 256.575C0.868164 397.96 115.483 512.575 256.868 512.575Z" fill="#CD201F"/>
<path d="M241.508 144.959C195.428 117.823 163.172 98.8789 163.172 98.8789V414.783C163.172 414.783 318.82 322.623 430.948 256.575C370.02 220.735 296.292 177.215 241.508 144.959Z" fill="white"/>
<path d="M248.676 205.887C227.684 193.599 212.836 184.895 212.836 184.895V328.255C212.836 328.255 284.004 286.271 334.692 256.575C307.044 240.191 273.764 220.223 248.676 205.887Z" fill="#CD201F"/>
<path d="M244.58 285.247H212.836V392.767H244.58V285.247Z" fill="#CD201F"/>
</g>
<defs>
<clipPath id="clip0_781_239">
<rect width="512" height="512" fill="white" transform="translate(0.868164 0.574707)"/>
</clipPath>
</defs>
</svg>
