<svg width="514" height="513" viewBox="0 0 514 513" fill="none" xmlns="http://www.w3.org/2000/svg">
<g clip-path="url(#clip0_876_1841)">
<path d="M17.9567 343.49C13.8535 337.386 0.157715 314.18 0.157715 276.76C0.262262 260.544 2.61743 244.421 7.15581 228.853C7.19303 228.737 7.2185 228.617 7.23176 228.496L9.4335 219.861L9.97819 220.399C10.3083 219.379 10.6747 218.316 11.0279 217.236C12.8038 211.895 14.659 206.307 15.0815 204.986C15.372 203.841 16.9961 197.444 18.2736 192.987C18.6598 191.634 18.9833 190.531 19.3233 189.577L19.4058 188.947C19.8217 185.626 20.3465 182.444 20.9671 179.374C21.185 177.724 21.4722 176.123 21.7 174.772L21.7957 174.182L22.04 173.637C22.1852 173.267 22.3206 172.977 22.4196 172.749C26.3828 154.654 35.0346 137.92 47.5072 124.224L47.5897 124.138L47.6723 124.053C50.5303 121.331 53.6344 118.88 56.9447 116.731C58.8923 114.173 65.2467 105.937 71.073 99.4107C73.0536 97.2123 74.9549 95.2119 76.744 93.5911C78.7419 89.1592 81.3074 85.0059 84.376 81.2354C92.1092 71.6513 102.338 64.3886 113.936 60.2477C125.024 52.7362 136.682 46.1009 148.801 40.4021C156.31 32.8799 164.63 26.214 173.608 20.5269C192.965 7.64146 215.592 0.538751 238.839 0.0507812C239.853 0.0507813 240.883 0.0705852 241.903 0.100294L251.641 0.384181L239.582 16.5888C245.997 16.1046 252.48 15.8603 259.032 15.8559C292.481 15.8104 325.622 22.2436 356.626 34.8004L356.771 34.8598L356.903 34.9192C358.751 35.7976 360.551 36.7728 362.297 37.8406C364.24 38.969 366.017 40.3609 367.578 41.9767C371.509 42.4515 375.346 43.5165 378.96 45.1358L379.112 45.1952L379.237 45.2645C411.536 62.1544 439.822 85.7965 462.175 114.585L462.376 114.836L462.535 115.117C463.505 117.009 464.167 119.044 464.495 121.144C464.868 121.382 465.39 121.712 465.978 122.102C467.356 122.972 468.64 123.984 469.81 125.119L470.104 125.423L470.351 125.769C498.439 166.377 513.478 214.583 513.462 263.959C513.496 310.781 499.967 356.612 474.511 395.909L474.415 396.048L474.326 396.17C474.047 396.539 473.734 396.88 473.392 397.19C473.004 397.563 472.592 397.912 472.16 398.233C471.21 398.952 470.218 399.613 469.189 400.214C469.094 400.686 468.955 401.32 468.773 402.02C468.363 403.899 467.654 405.701 466.674 407.357L466.605 407.466L466.509 407.605C442.609 440.136 411.356 466.556 375.301 484.707C339.245 502.858 299.408 512.227 259.041 512.048C147.105 512.048 51.9998 441.575 17.9699 343.49" fill="white"/>
<path d="M466.189 128.654C464.676 127.323 463.034 126.147 461.287 125.142C460.922 125.007 460.595 124.786 460.332 124.499C460.069 124.212 459.878 123.867 459.775 123.491C459.56 121.482 459.02 119.521 458.177 117.685C436.265 89.4813 408.547 66.3166 376.9 49.7604C373.478 48.22 369.821 47.2627 366.083 46.9282C365.748 46.9383 365.417 46.8626 365.12 46.7083C364.823 46.554 364.57 46.3263 364.386 46.0468C361.612 43.2683 358.331 41.0473 354.721 39.5042C324.321 27.1965 291.825 20.8911 259.028 20.9362C248.885 20.9389 238.751 21.5418 228.679 22.7418L241.744 5.17061C189.447 3.60923 151.918 44.4524 151.918 44.4524L151.938 44.5086C139.448 50.3115 127.457 57.1312 116.085 64.8988L116.115 64.8328C108.368 67.3902 101.24 71.5376 95.1884 77.0094C89.1369 82.4812 84.2949 89.1566 80.9727 96.6082C74.0671 102.385 60.3778 120.56 60.3778 120.56C57.0531 122.618 53.955 125.021 51.135 127.73C44.8632 134.256 33.3559 148.988 27.2292 174.36C27.0708 174.779 26.8694 175.178 26.6845 175.604C26.4502 177.017 26.1729 178.615 25.9518 180.196C25.3576 183.21 24.8327 186.333 24.4168 189.591L24.6809 189.234C24.5851 189.917 24.5092 190.32 24.5092 190.32C23.8655 190.762 19.9439 206.393 19.9439 206.393C19.3101 208.373 12.1866 229.79 12.1866 229.79L12.1371 229.747C12.131 229.792 12.131 229.838 12.1371 229.882C-6.60923 295.381 18.2901 335.079 22.5319 341.189C55.6508 437.541 149.016 506.968 259.028 506.968C298.595 507.145 337.642 497.964 372.984 480.174C408.326 462.385 438.961 436.492 462.389 404.607C463.349 402.676 464.002 400.607 464.324 398.474C464.333 398.084 464.434 397.701 464.619 397.357C464.804 397.013 465.067 396.717 465.387 396.494C467.18 395.661 468.816 394.525 470.223 393.137C495.166 354.666 508.421 309.788 508.382 263.939C508.406 215.596 493.687 168.395 466.189 128.634" fill="black"/>
<path d="M154.377 81.5889C155.037 80.9287 155.621 80.3015 156.13 79.7271C156.975 78.8557 157.302 78.6444 157.401 78.7071C157.465 78.6545 157.526 78.5971 157.582 78.5355C157.727 70.9548 158.746 63.4161 160.619 56.0689C183.287 24.3794 220.697 16.0014 220.697 16.0014C225.345 14.681 222.348 16.721 222.348 16.721C198.795 43.1059 201.244 64.9156 201.244 64.9156L223.728 146.925C223.728 146.925 205.506 140.515 191.47 111.701C184.98 169.187 239.199 215.804 239.199 215.804C241.56 217.821 237.843 215.632 237.843 215.632C224.266 208.852 208.635 194.562 204.357 190.545C205.503 194.971 231.894 327.635 231.97 328.028C232.096 328.645 232.452 329.926 232.729 330.778L241.873 308.06L249.429 375.047C215.059 407.031 178.458 394.365 176.197 393.533C177.075 394.969 177.768 396.019 177.768 396.019C177.768 396.019 207.51 454.397 328.584 448.207C328.584 448.207 331.485 448.187 331.043 448.567C331.092 448.66 330.934 448.801 330.383 448.99C328.473 449.604 326.52 450.073 324.54 450.393C178.355 489.44 102.601 364.87 99.3296 359.308C94.5663 352.657 90.5502 345.501 87.3536 337.971C87.2348 337.677 87.0632 336.686 87.7399 337.456C87.7399 337.456 103.254 353.63 147.158 357.628C147.33 357.614 147.501 357.587 147.669 357.549C113.729 319.716 99.3098 292.311 97.1641 288.116C97.1641 288.116 97.1642 288.116 97.1245 288.116C97.0849 288.116 93.0511 281.976 88.2118 264.599C88.2118 264.599 88.334 263.728 88.75 264.599C90.4005 268.052 101.624 284.613 115.3 288.317H115.326C103.74 269.607 96.5106 240.007 95.6028 235.679C111.411 257.796 139.39 259.397 139.39 259.397C139.35 259.32 139.301 259.247 139.245 259.179C139.283 259.227 139.314 259.281 139.338 259.338C93.2954 213.411 103.215 163.407 121.905 127.298C130.652 110.69 141.568 95.3188 154.367 81.5889" fill="white"/>
<path d="M292.141 385.616L261.93 417.405C261.956 417.387 261.979 417.366 261.999 417.342L299.284 388.729L279.986 322.164L288.414 242.115L273.688 318.56L292.141 385.616Z" fill="#BBC4CA"/>
<path d="M298.868 189.763C296.227 203.436 291.936 217.432 284.476 223.678C285.03 223.404 285.69 223.044 286.456 222.592C289.469 220.786 292.23 218.59 294.669 216.062C298.695 211.74 301.825 206.663 303.877 201.124C305.93 195.585 306.864 189.694 306.625 183.792C306.497 175.294 305.106 166.862 302.499 158.773C301.944 169.17 300.731 179.52 298.868 189.763Z" fill="#BBC4CA"/>
<path d="M298.538 87.6226C309.062 71.7185 326.359 70.3452 333.694 70.2693C328.02 68.597 322.136 67.7444 316.221 67.7375C308.389 67.6884 300.63 69.2444 293.422 72.3093C292.923 72.5338 292.53 72.7253 292.24 72.8672C294.932 77.5109 297.047 82.4661 298.538 87.6226Z" fill="#BBC4CA"/>
<path d="M285.232 121C285.357 121.017 285.472 121.078 285.557 121.17C285.643 121.263 285.693 121.382 285.7 121.508C285.727 122.981 285.741 124.461 285.743 125.948C285.743 160.183 276.649 197.679 273.17 210.704C284.153 185.633 289.823 158.558 289.823 131.187C289.852 121.079 289.041 110.986 287.4 101.012C286.767 97.2526 286.129 94.3675 285.674 92.453C282.347 118.227 272.546 129.919 272.496 129.975C272.443 130.04 272.374 130.091 272.297 130.124C272.219 130.157 272.135 130.17 272.051 130.164C271.963 130.156 271.878 130.127 271.804 130.078C271.731 130.03 271.67 129.964 271.628 129.886C259.317 107.741 241.91 88.845 220.849 74.7596C218.971 73.5086 217.479 72.5942 216.485 72C247.165 138.68 256.143 190.096 258.451 207.05C258.52 205.099 258.563 203.109 258.563 201.109C258.563 170.66 250.769 133.943 246.867 117.508C245.57 112.025 244.709 108.806 244.709 108.799C244.681 108.692 244.687 108.579 244.726 108.475C244.765 108.371 244.835 108.281 244.926 108.219C245.022 108.161 245.132 108.133 245.243 108.138C245.354 108.143 245.461 108.182 245.55 108.248C259.335 118.97 269.017 149.389 270.73 155.03C274.358 149.239 277.276 143.032 279.422 136.544C282.393 128.622 284.661 121.389 284.67 121.376C284.703 121.27 284.77 121.176 284.859 121.11C284.949 121.043 285.057 121.007 285.169 121.007H285.238" fill="#BBC4CA"/>
<path d="M27.1201 259.268C27.1201 290.957 32.5866 324.149 59.866 366.474L59.909 366.533C85.6567 420.805 133.168 450.022 155.308 461.229C162.675 464.956 167.191 466.689 167.247 466.709C197.796 481.469 231.257 489.217 265.185 489.386C311.135 488.935 355.937 474.973 394.009 449.24C400.572 444.783 404.054 441.822 404.054 441.822L404.384 442.222L404.054 441.819C405.374 440.743 406.342 439.891 407.058 439.254C406.665 439.466 406.272 439.706 405.886 439.938C404.477 440.773 403.186 441.611 403.179 441.621C354.912 469.947 310.421 478.592 274.134 478.592C217.251 478.592 180.451 457.387 180.418 457.367C59.8297 394.13 58.0769 284.52 58.0769 284.444C58.0731 284.325 58.1109 284.208 58.1837 284.114C58.2566 284.019 58.36 283.953 58.4764 283.926C58.591 283.897 58.712 283.908 58.8199 283.956C58.9277 284.005 59.0161 284.088 59.0705 284.193C74.6314 314.335 93.4932 324.621 101.891 327.889C103.109 328.357 104.096 328.678 104.826 328.879C69.7558 284.702 59.7274 247.513 59.7274 219.477C59.7274 182.338 77.3118 161.317 77.3547 161.264C77.4284 161.174 77.5304 161.111 77.6442 161.086C77.758 161.061 77.877 161.075 77.9819 161.126C78.0895 161.174 78.1774 161.258 78.2313 161.363C78.2853 161.468 78.3021 161.588 78.279 161.703C76.0323 173.116 74.8664 184.716 74.7965 196.347C74.7965 220.811 80.5434 236.038 83.379 242.099C83.4615 242.277 83.5474 242.449 83.6299 242.607C82.6053 234.05 82.0905 225.439 82.0883 216.82C82.0196 163.159 103.094 111.631 140.747 73.3984C133.095 76.607 123.8 84.8265 116.227 92.5838C107.846 101.166 101.518 109.118 101.502 109.132C101.434 109.217 101.342 109.279 101.238 109.31C101.134 109.341 101.023 109.338 100.92 109.303C100.82 109.264 100.734 109.194 100.675 109.103C100.616 109.013 100.586 108.906 100.59 108.798C101.253 102.197 103.24 95.7979 106.433 89.9826C100.085 96.4346 94.973 103.996 91.3509 112.291C88.9082 117.419 86.7946 122.699 85.0229 128.096L84.9107 128.287C70.8089 144.42 59.9696 163.134 52.9934 183.394C51.8413 186.804 51.3429 188.745 51.3429 188.745C51.1305 189.795 50.8211 190.823 50.4186 191.815C50.3064 191.94 50.3064 192.178 49.8112 192.251C49.6892 192.25 49.5703 192.212 49.4711 192.141C49.3718 192.07 49.2969 191.97 49.2567 191.855C49.2103 191.75 49.1823 191.639 49.1741 191.525C49.1435 191.278 49.1292 191.03 49.1312 190.782C49.1312 189.775 49.2534 188.385 49.2534 188.385C49.6231 172.778 56.1062 155.233 58.7173 148.747C40.3308 168.523 35.8249 195.334 35.8249 216.747C35.8398 225.259 36.5152 233.758 37.8451 242.165C38.8354 248.543 39.8455 252.362 39.8455 252.375V252.507C40.307 266.162 41.976 279.749 44.8333 293.109C47.3057 305.521 49.7386 314.751 49.7386 314.734C50.2682 316.061 50.6522 317.441 50.884 318.85C50.8764 318.973 50.8531 319.094 50.8147 319.21C50.7663 319.317 50.6889 319.407 50.5914 319.471C50.4938 319.535 50.3802 319.571 50.2635 319.573C50.1467 319.564 50.0333 319.529 49.9309 319.472C49.8285 319.415 49.7394 319.337 49.6693 319.243C49.5482 319.1 49.4379 318.948 49.3392 318.788C49.1048 318.458 48.844 317.989 48.5931 317.543C48.1079 316.685 47.6655 315.83 47.6655 315.82C34.8279 296.15 28.5627 263.707 27.1268 255.521C27.1268 256.755 27.1069 257.993 27.1069 259.235" fill="#BBC4CA"/>
<path d="M310.002 104.444L309.741 104.203L309.864 103.873C315.762 88.1171 343.464 74.111 348.845 71.4834C338.023 65.3234 325.786 62.0815 313.333 62.0755C306.948 62.0756 300.592 62.9192 294.428 64.5843C291.958 65.2203 289.541 66.0514 287.202 67.0699L286.823 67.2449L286.575 66.9148C281.695 61.052 276.345 55.5972 270.578 50.6046C265.772 46.3595 262.085 43.4975 261.765 43.2599C261.062 42.801 260.619 42.5369 260.563 41.8734C260.57 41.7157 260.618 41.5625 260.703 41.4296C260.789 41.2967 260.908 41.189 261.048 41.1175C261.273 41.0007 261.515 40.9205 261.765 40.8798C262.31 40.7918 262.863 40.752 263.415 40.761C264.075 40.761 264.647 40.8006 264.785 40.8039C375.266 40.8336 434.001 119.77 434.014 119.793C434.693 120.483 435.1 121.395 435.159 122.362C435.064 124.745 432.367 125.877 429.931 126.653C428.311 127.128 426.655 127.472 424.979 127.679C415.137 129.073 405.21 129.785 395.27 129.809C337.833 129.809 310.055 104.513 309.986 104.454" fill="#0064B1"/>
<path d="M272.344 423.584C272.254 423.554 272.173 423.5 272.11 423.429C272.047 423.358 272.004 423.271 271.985 423.178C271.967 423.084 271.975 422.987 272.008 422.897C272.04 422.807 272.096 422.728 272.169 422.666L309.24 392.842L290.424 323.191V322.996L295.616 276.291C295.622 276.212 295.646 276.136 295.687 276.069C295.727 276.002 295.784 275.945 295.851 275.904C295.914 275.861 295.986 275.833 296.061 275.821C296.137 275.81 296.214 275.816 296.287 275.838C304.717 278.43 308.669 289.897 310.715 300.596C311.823 306.738 312.485 312.952 312.696 319.19C322.539 297.892 325.751 280.786 325.751 267.52C325.751 248.727 319.308 237.642 316.129 233.288C315.6 232.536 315.017 231.825 314.383 231.159C314.287 231.059 314.234 230.926 314.234 230.788C314.234 230.65 314.287 230.517 314.383 230.417C314.481 230.32 314.614 230.266 314.752 230.266C314.891 230.266 315.023 230.32 315.122 230.417C359.273 272.237 368.139 330.767 368.139 371.131C368.255 386.651 366.9 402.147 364.092 417.411V417.471C363.591 418.78 362.788 419.952 361.749 420.893C360.71 421.834 359.463 422.516 358.111 422.884C342.74 426.344 327.038 428.115 311.283 428.166C298.162 428.453 285.065 426.908 272.371 423.578" fill="#0064B1"/>
<path d="M376.141 418.524C375.753 418.183 375.451 417.756 375.259 417.277C375.066 416.799 374.988 416.281 375.032 415.767C375.039 415.076 375.128 414.388 375.296 413.717C375.296 413.717 376.735 408.178 378.171 398.655C380.072 385.783 381.026 372.79 381.026 359.779C381.026 317.734 370.942 259.099 324.101 213.492C323.64 213.19 323.214 212.838 322.83 212.442C322.633 212.239 322.516 211.972 322.5 211.69C322.501 211.558 322.538 211.43 322.608 211.318C322.677 211.206 322.775 211.116 322.893 211.056C323.083 210.963 323.295 210.92 323.507 210.931C324.225 210.971 324.936 211.099 325.622 211.313C333.702 214.048 340.99 218.72 346.848 224.92C346.772 224.309 346.67 223.537 346.548 222.626C346.008 219.219 345.257 215.849 344.3 212.535C341.495 202.331 336.513 192.855 329.696 184.76C329.094 184.137 328.523 183.484 327.986 182.803C327.775 182.556 327.637 182.255 327.587 181.935C327.586 181.779 327.645 181.629 327.752 181.515C327.866 181.406 328.019 181.344 328.177 181.344C328.516 181.384 328.838 181.515 329.108 181.723C329.458 181.948 329.934 182.281 330.577 182.763C333.383 184.12 451.037 241.049 455.163 356.016C455.163 356.016 455.223 356.676 455.223 357.716C455.353 359.831 455.051 361.95 454.336 363.944C453.62 365.938 452.505 367.766 451.06 369.316C449.918 370.735 422.045 405.412 381.017 418.728C380.178 419.029 379.296 419.191 378.405 419.21C377.59 419.248 376.786 419.004 376.128 418.52" fill="#0064B1"/>
<path d="M464.644 337.595C464.281 336.464 464.102 335.283 464.113 334.096C461.439 223.479 340.164 153.838 309.851 138.201C305.526 135.967 303.084 134.834 303.084 134.834L300.948 133.844L303.288 133.818H303.579C308.975 133.842 314.306 135.006 319.221 137.232C324.137 139.459 328.528 142.698 332.106 146.738C332.046 143.939 331.662 141.156 330.96 138.446C330.366 136.112 329.792 134.534 329.792 134.534L329.396 133.451L330.465 133.86C343.161 138.696 359.514 140.301 375.56 140.297C389.626 140.196 403.67 139.196 417.608 137.303C428.944 135.805 436.368 134.309 436.381 134.309H436.407H436.437C437.031 134.257 437.596 134.234 438.121 134.234C439.838 134.016 441.582 134.301 443.141 135.054C444.7 135.806 446.007 136.995 446.905 138.475C462.059 155.38 480.845 194.569 483.981 241.631C484.368 247.54 484.549 253.277 484.549 258.797C484.523 300.085 474.646 330.181 468.836 337.317C468.559 337.76 468.19 338.139 467.756 338.429C467.321 338.719 466.83 338.914 466.314 339.001C465.923 338.968 465.551 338.813 465.252 338.559C464.952 338.304 464.74 337.963 464.644 337.581" fill="#0064B1"/>
<path d="M206.483 27.5379C206.568 27.4518 206.638 27.3526 206.691 27.2441H206.658C205.311 27.6271 181.151 34.7539 173.998 71.5996C173.998 71.5996 173.942 72.2598 174.328 71.6524C176.503 68.0675 184.046 56.6395 190.995 60.0296C190.995 60.0296 191.038 59.749 191.09 59.2737C191.464 56.1542 193.731 43.3497 206.48 27.5214" fill="black"/>
<path d="M187.958 360.576C182.736 350.085 149.204 276.82 149.204 276.82C138.76 280.154 125.823 271.65 125.823 271.65V271.69C142.328 315.514 181.168 353.842 187.36 360.79C187.399 360.815 187.433 360.848 187.459 360.886C188.509 362.038 188.509 361.616 188.509 361.616C188.357 361.401 188.205 361.038 187.958 360.576Z" fill="black"/>
<path d="M154.71 122.002C124.43 191.198 192.56 219.712 193.457 220.078H193.487L189.879 204.151L187.819 195.024C186.171 194.487 184.552 193.862 182.97 193.152C182.445 192.927 181.937 192.67 181.425 192.439C180.795 192.132 180.154 191.831 179.56 191.518C149.792 175.673 152.68 137.791 154.516 125.498C154.509 125.412 154.509 125.326 154.516 125.241C154.585 124.884 154.641 124.534 154.697 124.207C154.879 123.052 155.027 122.27 155.126 121.85C155.156 121.662 155.182 121.54 155.182 121.54V121.491C155.265 120.57 154.852 121.623 154.7 122.012" fill="black"/>
<path d="M199.535 316.788L194.633 229.84L223.869 326.787C223.869 326.787 214.274 303.878 199.538 316.788" fill="#BBC4CA"/>
<path d="M201.297 66.7903L207.777 118.781C207.777 118.781 210.939 132.975 191.47 111.684C205.503 140.498 223.724 146.909 223.724 146.909L201.416 65.5293C201.251 65.9282 201.21 66.3675 201.297 66.7903Z" fill="#BBC4CA"/>
<path d="M170.228 161.628C168.595 157.946 167.726 153.97 167.673 149.942C167.724 146.168 168.585 142.448 170.197 139.034C171.809 135.621 174.135 132.593 177.018 130.156L177.296 129.948C177.022 122.93 177.119 115.902 177.586 108.895C170.113 119.9 154.268 145.978 173.232 166.378C172.929 165.952 172.651 165.569 172.397 165.196C171.598 164.055 170.873 162.863 170.228 161.628Z" fill="#BBC4CA"/>
<path d="M190.028 172.21C183.093 159.214 178.775 144.983 177.319 130.324C177.299 130.201 177.29 130.076 177.292 129.951L177.012 130.159C174.129 132.596 171.804 135.623 170.192 139.036C168.581 142.449 167.721 146.168 167.67 149.942C167.723 153.97 168.592 157.945 170.225 161.628C170.87 162.863 171.594 164.055 172.394 165.196C172.651 165.566 172.925 165.952 173.229 166.378C173.533 166.803 173.988 167.249 174.43 167.724C176.678 170.085 179.383 171.964 182.38 173.247C185.377 174.529 188.603 175.189 191.863 175.185C191.863 175.185 191.13 174.145 190.041 172.214" fill="black"/>
<path d="M216.488 337.342C219.512 337.375 221.813 340.138 223.698 343.971C225.733 348.473 227.271 353.184 228.286 358.02C229.752 364.354 230.689 370.686 231.201 374.551C231.201 376.297 231.171 377.575 231.125 378.318V378.38C231.765 374.188 237.915 333.553 217.261 327.832C217.261 327.832 202.895 324.158 203.822 354.098C203.911 353.415 203.987 352.817 204.04 352.263C208.757 341.667 212.702 337.425 216.488 337.342Z" fill="#BBC4CA"/>
<path d="M231.211 374.549C231.128 373.282 229.762 364.352 228.296 358.018C227.281 353.183 225.742 348.474 223.708 343.972C221.823 340.136 219.522 337.37 216.498 337.344C212.712 337.426 208.767 341.661 204.05 352.261C203.823 352.844 203.748 353.476 203.832 354.096L210.946 369.769C210.946 369.769 215.033 327.804 231.098 378.253C231.098 378.349 231.098 378.428 231.128 378.461V378.362V378.392V378.319C231.275 377.069 231.3 375.808 231.204 374.553" fill="black"/>
</g>
<defs>
<clipPath id="clip0_876_1841">
<rect width="513.305" height="512" fill="white" transform="translate(0.157715 0.0507812)"/>
</clipPath>
</defs>
</svg>
