<svg width="1025" height="211" viewBox="0 0 1025 211" fill="none" xmlns="http://www.w3.org/2000/svg">
<path d="M0.791294 206.266L38.561 51.0166L85.0768 117.091L7.70808 209.059C7.02263 209.742 5.09092 210.921 3.03458 209.99C0.96084 209.05 0.666667 207.135 0.791294 206.266Z" fill="url(#paint0_linear_72_37)"/>
<path fill-rule="evenodd" clip-rule="evenodd" d="M38.5566 50.9325L115.568 24.1113L204.27 155.609L118.722 201.615L38.5566 50.9325Z" fill="url(#paint1_linear_72_37)"/>
<path d="M222.354 2.76854L118.505 201.609L205.448 155.051L230.343 6.29277C230.466 5.11804 230.9 2.21209 227.741 1.09919C225.235 0.215741 222.911 1.65564 222.354 2.76854Z" fill="#FF5A5A"/>
<path d="M322.528 70.7877C321.515 70.7948 320.514 71.0015 319.581 71.3959C318.648 71.7904 317.802 72.3648 317.091 73.0865C316.381 73.8081 315.819 74.6628 315.439 75.6016C315.059 76.5405 314.867 77.545 314.876 78.5579V129.163L275.329 73.5976C272.944 70.1643 268.128 69.4053 264.577 71.8629C263.547 72.6365 262.724 73.6522 262.18 74.82C261.637 75.9878 261.389 77.2717 261.46 78.5579V153.432C261.46 157.787 264.948 161.328 269.23 161.328C273.377 161.328 276.883 157.714 276.883 153.432V102.447L315.987 157.534C316.177 157.904 316.484 158.211 316.719 158.473C317.42 159.344 318.304 160.052 319.307 160.547C320.311 161.042 321.41 161.311 322.528 161.337C326.748 161.337 330.298 157.723 330.298 153.441V78.5579C330.27 76.5058 329.443 74.5457 327.992 73.0946C326.54 71.6434 324.58 70.8158 322.528 70.7877ZM403.257 86.581C405.328 86.5363 407.3 85.6851 408.752 84.2086C410.205 82.7321 411.025 80.7468 411.036 78.6753C411.012 76.6186 410.186 74.6526 408.732 73.1973C407.279 71.742 405.313 70.9129 403.257 70.8871H361.695C360.669 70.875 359.651 71.0682 358.701 71.4553C357.75 71.8424 356.887 72.4156 356.161 73.1412C355.436 73.8669 354.862 74.7303 354.475 75.6806C354.088 76.631 353.895 77.6492 353.907 78.6753V153.657C353.907 157.949 357.404 161.446 361.695 161.446H403.257C405.313 161.42 407.279 160.591 408.732 159.136C410.186 157.68 411.012 155.714 411.036 153.657C411.027 151.584 410.209 149.597 408.756 148.118C407.302 146.64 405.329 145.787 403.257 145.743H369.601V123.95H398.423C400.424 123.832 402.305 122.954 403.681 121.496C405.056 120.037 405.822 118.108 405.822 116.103C405.822 114.098 405.056 112.169 403.681 110.711C402.305 109.252 400.424 108.374 398.423 108.256H369.601V86.572L403.257 86.581ZM535.232 75.6396C534.867 74.7068 534.319 73.8563 533.621 73.138C532.923 72.4197 532.088 71.8479 531.166 71.4563C530.211 71.0441 529.184 70.8266 528.144 70.8166C527.104 70.8066 526.072 71.0043 525.11 71.3981C524.147 71.7919 523.273 72.3739 522.538 73.11C521.803 73.8461 521.222 74.7214 520.83 75.6847L503.058 132.967L487.482 95.6071C486.853 94.1817 485.827 92.9681 484.525 92.1122C483.224 91.2563 481.703 90.7945 480.145 90.7824C478.578 90.7631 477.042 91.2143 475.734 92.0776C474.426 92.941 473.407 94.1767 472.809 95.6252L457.25 132.976L439.334 75.6215C438.965 74.6712 438.406 73.8061 437.691 73.0791C436.977 72.3521 436.121 71.7784 435.178 71.3931C434.242 70.9996 433.237 70.8014 432.222 70.8108C431.208 70.8201 430.206 71.0367 429.278 71.4473C428.347 71.8073 427.496 72.3491 426.777 73.0409C426.057 73.7327 425.482 74.5608 425.085 75.4769C424.254 77.4093 424.222 79.5922 424.995 81.5485L449.769 155.925C449.814 156.061 449.86 156.124 449.896 156.214C450.79 158.835 453.347 161.545 457.106 161.545C460.873 161.545 463.159 158.916 464.225 156.377C464.316 156.169 464.406 156.016 464.478 155.745L480.145 118.375L496.047 156.323L496.11 156.504L496.128 156.522C496.664 157.98 497.629 159.243 498.897 160.141C500.165 161.04 501.676 161.532 503.23 161.554C506.961 161.554 509.301 158.934 510.368 156.386C510.413 156.278 510.476 156.169 510.485 156.07L535.178 81.6117C535.97 79.7029 535.996 77.5602 535.232 75.6396ZM609.591 123.453C606.971 119.234 602.815 115.782 596.897 112.891C592.325 110.723 586.841 109.051 579.486 107.615L579.369 107.633C572.872 106.431 567.352 104.489 564.199 102.311C562.97 101.533 561.908 100.52 561.072 99.3295C560.516 98.4124 560.254 97.3464 560.323 96.2757C560.323 93.7007 561.859 91.216 564.714 89.0928C568.192 86.5178 573.071 85.0451 578.104 85.0451C585.332 85.0451 591.204 88.5688 597.592 92.8243C599.201 93.9085 601.116 94.2699 603.013 93.8633C603.922 93.6726 604.783 93.2996 605.544 92.767C606.305 92.2344 606.95 91.5531 607.441 90.7643C609.654 87.602 608.778 83.1748 605.489 80.8799L605.173 80.6721C598.767 76.525 589.994 70.86 578.104 70.86C569.981 70.86 562.22 73.2362 556.239 77.564C549.742 82.3526 546.029 89.1741 546.029 96.2395C546.029 100.034 547.059 103.693 549.002 106.811C551.568 110.903 555.561 114.246 560.838 116.749C565.102 118.782 570.397 120.372 577.137 121.646L577.245 121.628C584.329 122.947 590.4 125.034 593.906 127.329C595.496 128.395 596.616 129.498 597.394 130.799C598.107 132 598.387 133.003 598.387 134.359C598.387 137.421 596.707 140.204 593.382 142.635C589.56 145.445 584.076 147.062 578.375 147.062C569.846 147.206 560.594 142.111 555.245 137.711C553.774 136.498 551.883 135.919 549.985 136.1C548.088 136.281 546.34 137.208 545.126 138.677L545.089 138.741C543.933 140.243 543.404 142.135 543.615 144.019C543.825 145.903 544.759 147.632 546.219 148.842C553.384 154.498 564.759 161.247 578.375 161.382C587.112 161.382 595.406 158.817 601.712 154.182C608.687 149.158 612.672 141.948 612.672 134.368C612.672 130.528 611.579 126.634 609.591 123.453ZM673.622 110.822C675.829 108.665 677.585 106.091 678.789 103.249C679.992 100.408 680.619 97.3557 680.634 94.2699C680.634 81.2865 670.153 70.7154 657.296 70.7154H637.771C636.565 70.7341 635.414 71.2221 634.562 72.0757C633.711 72.9293 633.225 74.0813 633.209 75.2872V157.181C633.209 159.72 635.196 161.762 637.771 161.762H662.789C669.851 161.74 676.615 158.92 681.6 153.918C686.584 148.917 689.382 142.143 689.38 135.081C689.362 129.951 687.866 124.935 685.071 120.633C682.277 116.331 678.302 112.925 673.622 110.822ZM642.488 108.274V80.0125H657.305C665.075 80.0125 671.382 86.4094 671.382 94.2699C671.382 101.986 665.075 108.274 657.305 108.274H642.488ZM680.137 135.063C680.028 144.821 672.421 152.483 662.807 152.483H642.479V117.698H662.807C672.258 117.698 680.028 125.513 680.137 135.063ZM771.454 154.245C771.123 153.398 770.559 152.662 769.826 152.123C769.094 151.584 768.223 151.264 767.316 151.2C767.111 150.866 766.947 150.508 766.828 150.134C766.35 148.697 765.78 145.842 765.78 140.439C765.78 129.2 758.679 122.947 754.45 120.201C758.328 117.797 761.53 114.445 763.754 110.462C765.978 106.478 767.151 101.994 767.163 97.4322C767.163 82.6869 755.273 70.7154 740.663 70.7154H715.464C714.328 70.8344 713.274 71.3649 712.502 72.2071C711.729 73.0492 711.292 74.1448 711.272 75.2872V157.281C711.324 158.476 711.836 159.604 712.701 160.431C713.565 161.258 714.715 161.72 715.911 161.72C717.107 161.72 718.257 161.258 719.122 160.431C719.986 159.604 720.498 158.476 720.551 157.281V124.04H739.976C740.117 124.11 740.262 124.17 740.41 124.221L740.663 124.284C742.19 124.519 746.527 125.829 750.113 128.395C754.559 131.702 756.628 135.542 756.628 140.475C756.628 147.568 757.423 152.257 759.167 155.636C760.775 158.844 763.919 160.533 766.214 160.533H766.684C767.38 160.533 767.904 160.533 768.527 160.307C769.646 159.86 770.564 159.022 771.111 157.948C771.658 156.874 771.796 155.639 771.5 154.471L771.454 154.254V154.245ZM758.037 97.4141C758.037 106.774 750.484 114.572 741.214 114.807H720.632V80.0125H740.708C750.258 80.0125 758.037 87.8098 758.037 97.4141ZM843.283 80.0125C845.84 80.0125 847.837 77.9345 847.837 75.3143C847.845 74.7127 847.734 74.1155 847.508 73.5577C847.283 72.9998 846.948 72.4927 846.524 72.066C846.1 71.6393 845.594 71.3016 845.038 71.0728C844.482 70.844 843.885 70.7286 843.283 70.7335H798.243C797.038 70.7522 795.886 71.2402 795.035 72.0938C794.183 72.9474 793.697 74.0994 793.681 75.3053V157.199C793.681 159.612 795.488 161.59 798.008 161.78H843.301C843.903 161.785 844.5 161.67 845.056 161.441C845.612 161.212 846.118 160.874 846.542 160.448C846.966 160.021 847.301 159.514 847.526 158.956C847.752 158.398 847.863 157.801 847.855 157.199C847.871 156.59 847.765 155.984 847.543 155.416C847.322 154.849 846.989 154.331 846.565 153.894C846.141 153.456 845.634 153.108 845.073 152.868C844.513 152.629 843.911 152.504 843.301 152.501H802.942V120.969H838.043C839.273 120.969 840.453 120.48 841.324 119.61C842.194 118.74 842.682 117.56 842.682 116.329C842.682 115.099 842.194 113.918 841.324 113.048C840.453 112.178 839.273 111.69 838.043 111.69H802.942V80.0035H843.274L843.283 80.0125ZM935.107 155.51L904.731 74.0494C904.144 72.2785 902.346 71.0949 900.249 71.0949C899.305 71.0965 898.381 71.3711 897.589 71.8857C896.797 72.4002 896.171 73.1328 895.786 73.9952L865.392 155.465C864.967 156.618 864.998 157.89 865.481 159.02C865.963 160.15 866.859 161.054 867.985 161.545L868.274 161.663H868.591C868.717 161.663 868.88 161.699 869.015 161.717C869.286 161.762 869.539 161.798 869.72 161.798C871.617 161.798 873.325 160.615 874.057 158.762L881.429 139.048H919.169L926.56 158.78C926.909 159.651 927.506 160.399 928.277 160.932C929.048 161.466 929.959 161.761 930.896 161.78C931.154 161.776 931.411 161.749 931.664 161.699C931.773 161.681 931.881 161.654 932.026 161.654H932.342L932.631 161.527C933.738 161.037 934.614 160.139 935.075 159.02C935.536 157.901 935.548 156.646 935.107 155.519V155.51ZM915.745 129.76H884.854L900.367 88.5597L915.745 129.76ZM1024.61 154.697L1024.56 154.516C1024.22 153.649 1023.64 152.9 1022.88 152.358C1022.12 151.816 1021.22 151.505 1020.29 151.462C1020.17 151.235 1020.03 151.017 1019.87 150.811L987.411 111.428L1019.99 78.847C1020.44 78.3932 1020.8 77.8529 1021.04 77.2584C1021.28 76.6639 1021.4 76.0273 1021.38 75.3866C1021.37 74.7973 1021.25 74.2159 1021.01 73.6772C1020.77 73.1385 1020.42 72.6536 1019.99 72.2514C1019.24 71.4581 1018.2 70.9912 1017.11 70.9503C1016.45 70.9168 1015.79 71.0145 1015.18 71.2379C1014.56 71.4613 1013.99 71.8058 1013.5 72.2514L963.161 122.595V75.6125C963.188 74.986 963.089 74.3604 962.868 73.7734C962.647 73.1864 962.31 72.6502 961.877 72.1971C961.443 71.744 960.922 71.3834 960.346 71.137C959.769 70.8906 959.148 70.7636 958.521 70.7636C957.894 70.7636 957.273 70.8906 956.697 71.137C956.12 71.3834 955.599 71.744 955.166 72.1971C954.732 72.6502 954.395 73.1864 954.174 73.7734C953.954 74.3604 953.854 74.986 953.882 75.6125V156.946C953.882 158.177 954.371 159.357 955.241 160.227C956.111 161.097 957.291 161.586 958.521 161.586C959.752 161.586 960.932 161.097 961.802 160.227C962.672 159.357 963.161 158.177 963.161 156.946V135.66L980.779 118.041L1012.62 156.594L1012.8 156.82C1014.73 159.06 1016.29 160.777 1018.42 160.867H1019.85C1020.35 160.88 1020.85 160.807 1021.33 160.651L1021.63 160.524C1022.75 160.085 1023.68 159.248 1024.23 158.173C1024.78 157.097 1024.91 155.866 1024.61 154.697Z" fill="#274464"/>
<defs>
<linearGradient id="paint0_linear_72_37" x1="49.463" y1="110.67" x2="-13.858" y2="224.835" gradientUnits="userSpaceOnUse">
<stop stop-color="#D23434"/>
<stop offset="1" stop-color="#FF5A5A"/>
</linearGradient>
<linearGradient id="paint1_linear_72_37" x1="78.5313" y1="35.7509" x2="149.85" y2="145.54" gradientUnits="userSpaceOnUse">
<stop stop-color="#FF5A5A"/>
<stop offset="1" stop-color="#DE3232"/>
</linearGradient>
</defs>
</svg>
