<svg width="590" height="513" viewBox="0 0 590 513" fill="none" xmlns="http://www.w3.org/2000/svg">
<g clip-path="url(#clip0_2_15047)">
<path d="M521.062 346.152C513.701 346.152 507.725 352.12 507.725 359.487C507.725 366.845 513.701 372.821 521.062 372.821C528.423 372.821 534.391 366.845 534.391 359.487C534.391 352.12 528.423 346.152 521.062 346.152ZM521.062 369.96C519.687 369.962 518.324 369.691 517.053 369.165C515.782 368.639 514.627 367.868 513.654 366.895C512.681 365.922 511.91 364.767 511.384 363.496C510.858 362.225 510.588 360.862 510.59 359.487C510.59 353.7 515.269 349.021 521.062 349.021C526.849 349.021 531.533 353.7 531.533 359.487C531.533 365.275 526.849 369.96 521.062 369.96ZM526.541 356.396C526.541 355.802 526.424 355.214 526.196 354.666C525.969 354.117 525.635 353.619 525.215 353.199C524.795 352.78 524.296 352.447 523.747 352.22C523.198 351.994 522.61 351.878 522.016 351.879H515.591V367.099H518.447V360.918H520.497L523.382 367.099H526.542L523.528 360.653C524.408 360.341 525.17 359.765 525.71 359.002C526.249 358.24 526.539 357.33 526.541 356.396ZM522.016 358.06H518.447V354.729H522.016C522.458 354.73 522.883 354.905 523.195 355.218C523.508 355.531 523.685 355.955 523.685 356.397C523.683 356.838 523.507 357.261 523.194 357.573C522.881 357.884 522.458 358.059 522.016 358.06Z" fill="#010101"/>
<path d="M586.88 335.165C586.88 313.709 607.948 233.914 454.817 113.394L480.556 107.669L467.31 63.9583L441.754 80.9912V54.497H391.606C358.95 30.9663 343.204 0.802734 291.641 0.802734C270.126 0.802734 247.521 5.08362 242.608 5.08362C238.843 5.08362 227.374 2.65696 207.862 2.65696C151.57 2.65696 146.404 44.633 153.439 59.3841C79.4139 110.081 42.741 146.658 42.741 159.83C42.741 164.928 45.7419 171.559 45.7419 181.109C45.7419 201.936 0.768555 247.798 0.768555 272.071C0.768555 294.751 29.6441 296.285 29.6441 296.285C31.2628 302.984 20.0868 325.161 30.1312 336.512C16.2539 351.598 32.445 359.128 32.445 371.14C32.445 379.293 26.8103 381.773 26.8103 396.78C26.8103 413.885 34.8592 434.568 77.0903 434.568C93.7837 434.568 108.575 431.946 120.329 431.946C123.583 467.384 138.725 481.321 141.215 490.226C143.219 497.36 147.873 512.803 157.271 512.803C169.521 512.803 237.124 490.619 288.471 459.473C314.227 469.054 346.936 465.893 358.816 465.893C371.777 465.893 377.16 473.817 384.782 473.817C389.385 473.817 424.297 434.861 422.076 349.536C443.943 386.552 456.921 410.632 458.22 424.407C486.543 414.287 510.405 347.178 500.025 304.469C500.025 304.469 535.776 362.516 589.956 353.938C589.956 353.938 586.88 343.354 586.88 335.165Z" fill="#010101"/>
<path d="M555.077 226.516C519.31 168.987 456.795 120.61 442.391 109.897C442.206 113.197 441.259 116.288 439.691 118.986C438.835 120.482 437.792 121.862 436.589 123.095C435.258 124.465 433.739 125.639 432.078 126.58C434.56 136.494 438.358 150.708 443.414 167.205C450.909 185.534 459.378 208.079 466.445 231.581C474.613 251.021 484.027 270.407 494.727 287.623C539.02 358.879 583.366 349.081 583.366 349.081C575.77 336.828 598.089 295.721 555.077 226.517V226.516ZM433.26 62.8359H400.36L421.38 85.5959H433.26V62.8359Z" fill="#FF6720"/>
<path d="M494.996 296.454C493.587 294.331 492.215 292.184 490.88 290.014C484.784 280.227 479.108 269.74 473.833 258.938C471.688 249.809 469.181 240.628 466.447 231.582C459.38 208.08 450.911 185.535 443.416 167.206C438.36 150.709 434.562 136.495 432.08 126.58C430.349 127.574 428.482 128.308 426.538 128.76C425.037 129.108 423.494 129.313 421.902 129.313C420.434 129.313 419 129.15 417.625 128.86C415.75 128.458 413.939 127.799 412.242 126.904C405.905 274.05 420.476 299.52 423.152 341.509C460.319 400.106 461.635 417.205 461.635 417.205C461.635 417.205 505.024 386.784 494.996 296.454Z" fill="#FFD100"/>
<path d="M478.778 283.673C477.504 275.557 475.81 267.271 473.831 258.937C471.686 249.807 469.179 240.626 466.445 231.58C459.378 208.078 450.908 185.534 443.413 167.205C436.053 149.266 429.679 135.419 426.536 128.758C425.034 129.106 423.491 129.312 421.899 129.312C420.432 129.312 418.997 129.148 417.623 128.858C416.231 144.716 411.226 212.409 420.867 273.377C434.676 360.833 467.829 392.487 467.829 392.487C467.829 392.487 490.758 359.452 478.778 283.672V283.673ZM478.292 317.983L452.015 303.794C451.202 298.716 449.064 285.183 446.397 268.294L475.072 284.678C476.985 296.921 477.975 308.004 478.292 317.983ZM467.139 247.979C470.009 258.68 472.457 269.401 474.267 279.832L445.644 263.458C444.041 253.367 442.443 243.275 440.849 233.182L467.139 247.979ZM433.184 152.808C442.793 175.07 456.157 208.54 465.715 242.794L440.093 228.376C434.426 192.416 428.489 154.905 428.489 154.905C427.81 150.586 432.078 149.999 433.186 152.808L433.184 152.808ZM419.653 157.336C419.836 152.612 424.195 152.225 424.714 155.504L436.17 228L420.978 242.098C418.286 210.384 418.698 179.352 419.653 157.336ZM424.624 272.783C423.282 264.256 422.234 255.585 421.413 246.914L436.882 232.541L441.854 264.004L425.822 279.883C425.4 277.52 425 275.153 424.624 272.783ZM426.644 284.427L442.582 268.648L448.243 304.475L435.331 320.228C432.128 309.679 429.167 297.784 426.644 284.427ZM436.689 324.589L449.232 309.304C451.312 317.839 457.884 344.76 458.161 345.935C457.682 346.808 453.122 355.075 450.682 359.483C446.08 350.261 441.216 338.722 436.689 324.589ZM467.09 385.86C463.862 381.871 458.638 374.641 452.787 363.593L460.737 349.172L474.97 361.343C472.507 373.249 469.27 381.332 467.09 385.859V385.86ZM475.794 357.018L461.91 345.146C458.937 332.991 455.971 320.834 453.013 308.675L478.385 322.376C478.544 336.091 477.438 347.611 475.794 357.018Z" fill="#001871"/>
<path d="M401.384 107.254C326.688 163.135 286.492 246.479 274.328 275.007C274.328 275.007 272.71 278.361 274.587 282.016L298.247 328.04C299.237 329.958 301.358 330.353 302.96 328.901L341.879 293.754C344.563 291.334 345.426 287.432 345.426 287.432C363.16 185.942 387.147 136.306 401.979 113.818C401.56 112.187 401.307 110.499 401.307 108.746C401.307 108.238 401.359 107.743 401.384 107.254Z" fill="#CE1126"/>
<path d="M463.337 77.4746L443.314 90.8231L447.926 106.066L470.479 101.043L463.337 77.4746ZM408.284 124.131C406.81 122.827 405.529 121.321 404.479 119.658C380.533 158.021 350.063 253.992 350.063 336.18C350.063 420.225 375.788 464.88 385.086 464.88C392.254 464.88 417.441 419.84 417.441 361.887C417.441 346.081 404.159 282.536 404.159 163.248C404.159 137.647 406.121 130.81 408.284 124.131ZM280.172 277.573L301.359 323.333L339.936 287.603C339.936 287.603 358.556 179.169 391.702 119.355C304.251 204.251 280.172 277.573 280.172 277.573ZM345.998 239.298C345.586 241.055 345.184 242.782 344.789 244.476C339.607 267.05 336.565 283.728 336.263 285.439C336.23 285.531 336.23 285.571 336.23 285.571L333.572 288.036L302.674 316.662L284.456 277.304C284.456 277.304 285.069 275.374 286.551 271.753C287.096 270.396 287.759 268.819 288.539 267.008C292.219 258.593 298.65 245.319 308.981 228.282C310.055 226.495 311.193 224.673 312.359 222.811C326.874 199.653 348.186 170.337 378.78 137.34C364.936 165.713 353.518 207.366 345.998 239.299V239.298ZM421.902 93.1457C413.281 93.1457 406.297 100.131 406.297 108.746C406.297 117.361 413.281 124.335 421.902 124.335C430.503 124.335 437.472 117.361 437.472 108.746C437.472 100.131 430.503 93.1457 421.902 93.1457Z" fill="#00843D"/>
<path d="M398.591 140.148C398.591 140.148 356.047 229.814 356.047 334.287C356.047 403.476 377.47 456.332 383.416 456.332C388.094 456.332 409.985 423.422 409.985 354.737C409.985 326.943 394.952 221.522 398.591 140.148ZM380.446 200.537C381.202 197.787 385.083 197.057 384.554 201.734C381.721 225.701 379.809 247.383 378.569 266.735L363.578 278.296C367.535 249.019 373.973 222.368 380.446 200.537ZM362.898 283.58L378.267 271.722C377.228 289.197 376.733 304.665 376.589 318.107L359.721 329.659C359.906 313.864 361.081 298.401 362.898 283.58ZM359.679 334.44L376.557 322.885C376.456 344.665 377.254 360.707 378.008 370.761L362.807 380.22C360.731 365.048 359.686 349.753 359.679 334.44ZM400.813 409.664C398.842 411.048 392.67 413.202 382.777 396.784C377.017 414.226 370.142 409.36 367.594 406.686C366.059 399.93 364.65 392.528 363.443 384.576L380.531 373.947L404.242 389.7C403.399 396.403 402.255 403.064 400.813 409.664ZM406.354 354.737C406.354 365.864 405.769 376.06 404.762 385.298L383.122 370.911C382.401 361.437 381.605 346.26 381.638 325.569L405.885 342.305C406.187 347.167 406.354 351.356 406.354 354.737ZM405.55 337.315L381.656 320.823C381.756 307.472 382.189 292.023 383.205 274.491L401.139 287.738C402.917 306.904 404.594 324.092 405.55 337.314V337.315ZM400.67 282.632L383.466 269.93C384.706 249.761 386.686 226.964 389.687 201.606C390.517 194.478 394.758 198.104 394.892 201.911C395.957 228.955 398.355 257.309 400.67 282.632Z" fill="#FFD100"/>
<path d="M360.929 121.694C366.145 121.694 365.465 114.715 360.635 114.715C285.855 114.715 243.044 124.21 236.464 125.787C232.329 89.1255 211.266 77.4598 211.266 53.7442C211.266 44.5371 217.348 42.6642 222.335 42.6642C239.793 42.6642 252.88 63.1353 277.137 63.1353C299.681 63.1353 304.527 47.1709 317.365 47.1709C336.648 47.1709 328.163 98.4402 362.354 98.4402C373.162 98.4402 380.248 94.1149 380.248 94.1149C384.841 91.5549 380.448 86.0526 376.515 88.1149C376.515 88.1149 369.649 91.6455 362.933 91.6455C334.049 91.6455 346.659 40.1833 316.609 40.1833C302.223 40.1833 297.425 56.0251 276.683 56.0251C253.517 56.0251 244.32 35.2695 221.346 35.2695C208.316 35.2695 203.655 44.0011 203.655 52.754C203.655 78.9931 229.562 98.9691 229.562 134.963C229.562 171.545 217.07 203.769 217.07 254.609C217.07 313.894 273.38 331.351 273.38 386.605C273.38 417.86 285.369 437.202 298.801 437.202C306.188 437.202 313.089 432.862 316.324 421.374C318.253 422.205 320.03 422.655 321.54 422.655C325.28 422.655 339.281 418.55 339.281 402.097C339.281 354.995 258.354 330.613 258.354 256.797C258.354 221.306 264.048 164.518 272.76 164.518C277.32 164.518 283.021 184.394 293.921 184.394C307.421 184.394 302.699 145.17 308.737 145.17C313.549 145.17 320.744 163.482 329.345 163.482C336.312 163.482 338.627 149.288 341.654 138.111C342.752 132.922 335.374 131.45 334.334 136.732C332.473 145.032 328.531 156.009 328.531 156.009C324.155 151.614 317.011 138.187 308.375 138.187C294.641 138.187 296.645 177.338 293.585 177.338C287.817 177.338 284.195 157.023 271.686 157.023C255.588 157.023 250.809 213.039 250.809 257.157C250.809 334.739 331.785 360.687 331.785 401.359C331.785 411.591 324.356 415.078 321.389 415.078C320.182 415.078 318.94 414.808 317.707 414.34C318.069 411.516 318.26 408.405 318.26 404.966C318.26 380.988 305.072 376.492 299.698 376.492C294.331 376.492 291.338 381.154 291.338 388.86C291.338 399.197 300.46 410.701 309.383 417.275C308.057 423.728 305.223 429.659 299.203 429.659C287.549 429.659 280.969 402.661 280.969 386.554C280.969 328.281 224.666 311.363 224.666 253.119C224.666 203.507 237.16 171.696 237.16 138.691C237.16 136.636 237.109 134.67 237.025 132.742C244.772 130.885 293.025 120.084 360.929 121.694ZM298.917 389.305C298.917 385.246 299.957 383.728 301.04 383.728C307.587 383.728 310.555 396.892 310.555 402.148C310.555 403.558 310.563 406.207 310.371 409.327C304.033 403.197 298.917 393.782 298.917 389.305Z" fill="#FFD100"/>
<path d="M246.295 388.115C259.368 367.964 251.913 333.262 226.979 342.888C212.574 319.344 196.259 287.532 196.259 248.158C196.259 206.218 204.827 195.202 204.827 158.173C204.827 95.0413 175.633 82.5284 156.852 69.8262C112.246 100.051 53.0207 141.465 53.0207 163.482C53.0207 170.007 55.9043 176.063 55.9043 182.469C55.9043 205.249 11.5078 249.524 11.5078 270.951C11.5078 278.982 17.9229 285.732 28.2349 285.732C38.5487 285.732 64.8074 281.91 74.6758 280.852C84.5451 279.788 85.6358 275.056 85.6358 272.501C85.6358 266.102 75.49 257.207 67.8269 257.207C61.4385 257.207 60.8518 260.974 60.8518 261.921C60.8518 266.12 66.9043 267.338 66.9043 267.338C74.5336 266.273 74.5843 273.006 67.2811 273.006C61.2527 273.006 54.562 268.578 54.562 260.923C54.562 253.255 60.7176 251.343 65.2785 251.343C84.4447 251.343 95.4705 268.67 92.3007 279.696C116.07 291.501 115.39 308.857 111.526 308.857C103.291 308.857 109.01 286.998 78.0207 286.998C69.3194 286.998 51.1576 289.613 46.874 290.049C42.6056 290.467 41.314 291.089 40.8118 294.627C40.2927 298.15 35.7807 310.929 35.7807 318.79C35.7807 330.429 43.5274 331.201 48.5096 331.201C61.538 331.201 83.6225 328.073 83.6225 322.849C83.6225 319.511 78.0207 320.46 75.9585 320.46C72.0687 320.46 70.3007 318.038 70.3007 316.647C70.3007 313.189 75.8927 311.504 82.5985 311.504C93.7007 311.504 94.8652 318.723 94.3052 322.113C93.0714 329.582 105.129 327.781 105.129 343.626C105.129 345.384 104.97 349.933 101.196 349.933C97.3896 349.933 97.3389 345.186 97.3389 342.527C97.3389 339.852 92.9967 335.712 89.29 335.712C85.3496 335.712 71.0963 343.072 40.3763 340.256C28.2696 355.464 42.5718 356.562 42.5718 371.939C42.5718 389.163 37.3585 387.977 37.3585 398.486C37.3585 419.352 60.2456 424.802 83.0429 424.802C130.324 424.802 183.598 413.796 202.363 379.989C195.906 409.912 171.826 420.642 130.894 429.935C135.522 463.071 142.398 470.765 147.395 479.706C152.399 488.636 153.481 501.237 162.277 501.237C172.816 501.237 234.995 478.808 276.832 453.604L246.295 388.115ZM130.332 102.466L152.493 85.9017C153.077 85.4684 153.783 85.229 154.511 85.2171C155.239 85.2051 155.952 85.4212 156.55 85.8351C172.799 97.1968 181.83 108.312 182.206 108.784C182.762 109.5 183.014 110.406 182.908 111.307C182.802 112.208 182.346 113.031 181.639 113.598C180.932 114.166 180.03 114.434 179.128 114.343C178.226 114.252 177.395 113.811 176.815 113.113C176.74 113.013 168.742 103.208 154.621 92.9488C153.565 93.7195 151.611 95.1977 149.323 96.9071C156.29 102.804 175.583 119.654 188.411 135.591C188.989 136.303 189.26 137.215 189.166 138.127C189.072 139.039 188.62 139.877 187.909 140.455C186.398 141.65 184.235 141.412 183.045 139.931C169.89 123.599 149.004 105.681 143.631 101.153C141.767 102.547 139.902 103.941 138.036 105.333C150.68 115.759 159.777 126.537 160.188 127.028C161.648 128.71 160.894 131.001 159.762 131.895C159.416 132.187 159.016 132.408 158.584 132.545C158.153 132.682 157.698 132.732 157.247 132.693C156.796 132.653 156.358 132.526 155.956 132.318C155.555 132.108 155.198 131.822 154.907 131.476C154.798 131.343 144.125 118.711 130.282 107.958C128.689 106.608 128.277 103.992 130.332 102.466ZM83.5051 221.038C79.7149 221.038 82.2145 211.701 82.1807 208.226C61.018 207.92 58.6625 200.328 83.018 200.124C82.298 196.975 79.7736 184.457 83.5896 177.72L71.7007 173.101C62.0243 169.225 80.4536 162.842 77.7869 157.069C77.7869 157.069 72.2874 152.885 72.2874 148.174C72.2874 143.465 79.6314 137.885 93.8083 137.885C120.262 137.885 127.18 160.495 148.283 160.495C152.382 160.495 163.408 158.263 163.408 162.759C163.408 167.252 154.512 171.938 146.498 171.938C128.043 171.938 114.108 158.047 104.818 158.047C103.955 158.047 102.187 158.34 101.481 160.062L98.9834 165.814C97.1292 170.039 99.9567 171.716 99.9567 171.716L132.588 190.912C139.43 194.94 135.807 198.161 132.335 199.176C132.335 199.176 112.315 205.284 94.5647 207.472C92.6358 216.347 87.5034 221.037 83.5051 221.037V221.038ZM187.221 322.582C142.438 309.335 170.903 253.976 191.638 259.495C164.499 284.112 178.189 312.688 187.22 322.582H187.221Z" fill="#CC8A00"/>
<path d="M94.7158 155.715L81.4945 159.233C78.7105 159.97 78.5603 161.61 81.1425 162.863L91.2047 167.738C92.2447 168.25 93.4678 167.792 93.9194 166.732L97.3914 158.821C98.4314 156.439 97.2163 155.044 94.7158 155.715Z" fill="#CC8A00"/>
<path d="M237.678 346.085C228.74 343.478 218.159 352.842 214.025 367.005C209.909 381.155 213.815 394.749 222.754 397.346C231.708 399.946 242.307 390.59 246.422 376.428C250.539 362.265 246.633 348.691 237.678 346.085ZM239.221 374.331C236.604 383.312 230.451 389.433 225.486 387.981C220.515 386.548 218.612 378.078 221.227 369.093C223.844 360.111 229.998 354 234.953 355.441C239.925 356.885 241.836 365.352 239.221 374.331ZM75.9271 352.307C71.5999 346.2 69.2097 351.727 64.5733 354.1C59.9466 356.48 54.0666 355.191 56.4924 362.265C59.1146 369.888 53.5582 385.491 56.0053 390.27C57.9342 394.059 62.2097 395.585 65.6799 393.81C68.7911 392.207 70.2764 389.449 70.8782 386.237C72.5297 377.535 67.5404 365.512 69.8231 364.346C72.12 363.172 78.9519 374.247 86.9768 377.989C89.9288 379.364 93.0479 379.773 96.1573 378.19C99.6284 376.41 100.895 372.051 98.9502 368.271C96.5013 363.492 80.5884 358.877 75.9271 352.307ZM139.195 248.698C136.821 249.329 133.141 251.43 127.155 253.005C121.185 254.581 113.639 254.624 112.432 250.054C112.33 249.657 112.33 249.229 112.381 248.785C112.86 245.098 118.275 240.152 118.275 240.152C118.275 240.152 111.123 238.52 108.894 235.533C108.626 235.185 108.408 234.808 108.299 234.404C107.091 229.848 113.69 226.154 119.66 224.579C125.645 223.006 129.896 223.015 132.252 222.395C137.099 221.119 141.19 217.938 140.167 214.068C138.289 206.958 128.984 208.707 123.835 210.064C98.2613 216.805 92.5937 227.303 94.4986 234.564C96.4186 241.828 104.718 243.72 104.718 243.72C104.718 243.72 98.4311 249.458 100.341 256.724C102.253 263.983 112.365 270.322 137.939 263.583C143.085 262.224 152.057 259.156 150.179 252.042C149.156 248.176 144.04 247.42 139.195 248.698ZM421.9 98.7578C416.384 98.7578 411.906 103.218 411.906 108.74C411.906 114.256 416.383 118.717 421.9 118.717C427.402 118.717 431.868 114.256 431.868 108.74C431.868 103.218 427.402 98.7578 421.9 98.7578Z" fill="#CE1126"/>
<path d="M97.7593 183.225C95.914 189.924 97.2144 197.665 97.6411 199.724C118.552 198.471 127.086 194.606 127.086 194.606L97.7593 183.225ZM69.8224 364.347C67.5398 365.513 72.5291 377.536 70.8776 386.24C72.2704 390.171 78.0713 404.558 87.8482 399.546C97.6411 394.532 89.3744 381.419 86.9762 377.991C78.9522 374.249 72.1193 363.173 69.8224 364.347ZM151.78 219.755C143.697 221.88 136.327 229.976 121.638 233.853C116.271 235.271 111.702 235.535 108.894 235.535C111.122 238.522 118.275 240.153 118.275 240.153C118.275 240.153 112.86 245.1 112.382 248.786C114.829 247.397 118.939 245.386 124.328 243.973C138.992 240.098 149.39 243.52 157.49 241.379C161.262 240.377 168.272 238.439 165.438 227.712C162.604 216.988 155.561 218.753 151.779 219.755H151.78ZM354.288 173.681C353.857 173.464 353.357 173.426 352.898 173.576C352.438 173.726 352.057 174.052 351.838 174.483C345.397 187.265 339.327 200.231 333.636 213.365L312.356 222.807C311.214 224.62 310.088 226.444 308.978 228.278L331.524 218.28C325.663 232.056 320.834 244.585 316.928 255.476L288.537 267.005C287.856 268.578 287.193 270.16 286.55 271.749L315.3 260.063C306.487 285.198 302.892 300.558 302.823 300.845C302.742 301.193 302.767 301.558 302.894 301.893C303.021 302.227 303.246 302.516 303.538 302.722C303.732 302.859 303.951 302.955 304.183 303.007C305.156 303.24 306.144 302.639 306.362 301.666C306.43 301.381 309.884 286.625 318.335 262.395L333.571 288.033L336.228 285.568C336.228 285.568 336.228 285.527 336.261 285.435L319.92 257.917C323.982 246.543 328.346 235.28 333.008 224.139L344.787 244.473C345.182 242.778 345.584 241.051 345.996 239.295L334.768 219.944C341.066 205.122 347.844 190.508 355.092 176.127C355.31 175.696 355.349 175.197 355.199 174.737C355.047 174.279 354.72 173.9 354.288 173.682V173.681ZM541.821 230.625C513.534 185.105 453.391 131.023 439.691 118.986C438.835 120.482 437.792 121.863 436.589 123.096C445.258 147.557 478.745 239.303 509.582 288.921C539.751 337.449 569.262 335.087 569.262 335.087C569.262 335.087 579.166 290.698 541.821 230.625V230.625ZM559.538 276.958L534.788 272.439L505.475 225.293L540.656 235.689C549.61 250.642 555.581 264.555 559.538 276.958ZM537.788 231.052L502.59 220.652L475.458 177.019L499.957 183.098C514.153 198.689 527.87 215.391 537.788 231.052ZM441.184 125.179C451.89 134.759 473.832 154.957 495.482 178.234L472.726 172.585L458.07 149.019C457.881 148.714 457.605 148.471 457.278 148.323C456.951 148.175 456.587 148.129 456.233 148.189C455.998 148.228 455.773 148.314 455.572 148.441C455.369 148.567 455.192 148.732 455.054 148.926C454.914 149.12 454.814 149.339 454.76 149.572C454.706 149.805 454.699 150.046 454.74 150.281C454.78 150.517 454.867 150.743 454.994 150.945L470.312 175.602L467.158 192.848C455.438 164.338 445.98 138.557 441.184 125.179ZM469.725 199.046L473.179 180.193L499.824 223.083L491.062 246.87C483.592 231.385 476.349 214.904 469.725 199.046ZM512.686 287.002C506.23 276.641 499.675 264.44 493.268 251.399L502.256 227.008L531.619 274.241L522.606 301.214C519.326 297.072 516.007 292.359 512.686 287.002ZM566.162 331.288C559.806 330.49 543.607 326.265 525.306 304.551L534.117 278.249L548.035 300.642C548.29 301.05 548.695 301.341 549.163 301.451C549.631 301.56 550.124 301.481 550.534 301.229C551.388 300.693 551.657 299.569 551.113 298.721L537.378 276.606L560.729 280.871C568.09 306.125 566.999 324.453 566.162 331.289V331.288Z" fill="white"/>
</g>
<defs>
<clipPath id="clip0_2_15047">
<rect width="589.188" height="512" fill="white" transform="translate(0.768555 0.800781)"/>
</clipPath>
</defs>
</svg>
