<svg width="395" height="513" viewBox="0 0 395 513" fill="none" xmlns="http://www.w3.org/2000/svg">
<g clip-path="url(#clip0_795_4069)">
<path d="M367.807 9.19482H8.76123V315.368C8.76123 365.384 28.6301 413.352 63.9969 448.719C99.3637 484.086 147.331 503.955 197.348 503.955C247.364 503.955 295.331 484.086 330.698 448.719C366.065 413.352 385.934 365.384 385.934 315.368V9.19482H367.807Z" fill="black"/>
<path d="M138.998 51.1239H149.27V100.326C149.27 102.84 148.271 105.251 146.493 107.029C144.715 108.807 142.304 109.806 139.79 109.806H120.403C119.161 109.814 117.93 109.574 116.783 109.099C115.635 108.624 114.594 107.924 113.721 107.041C112.849 106.157 112.162 105.108 111.701 103.954C111.24 102.801 111.014 101.567 111.038 100.326V51.1239H121.31V98.0842C121.313 98.3906 121.377 98.6935 121.498 98.9749C121.619 99.2564 121.795 99.5109 122.016 99.7234C122.236 99.9359 122.497 100.102 122.783 100.213C123.069 100.323 123.374 100.375 123.68 100.366H136.628C136.934 100.375 137.239 100.323 137.525 100.213C137.811 100.102 138.071 99.9359 138.292 99.7234C138.513 99.5109 138.689 99.2564 138.81 98.9749C138.931 98.6935 138.995 98.3906 138.998 98.0842V51.1239ZM94.4343 60.5701V109.779H84.1619V90.5408H66.4748V109.779H56.2024V60.5701C56.2024 58.0558 57.2012 55.6445 58.9791 53.8667C60.7569 52.0888 63.1682 51.09 65.6825 51.09H85.0964C86.336 51.0853 87.5641 51.3283 88.7085 51.8048C89.8529 52.2814 90.8905 52.9818 91.7604 53.8649C92.6303 54.7481 93.315 55.7962 93.7741 56.9476C94.2333 58.0991 94.4578 59.3307 94.4343 60.5701ZM84.1619 62.8115C84.1594 62.5051 84.0956 62.2022 83.9745 61.9208C83.8534 61.6393 83.6773 61.3848 83.4566 61.1723C83.2358 60.9598 82.9749 60.7934 82.6891 60.6831C82.4032 60.5727 82.0982 60.5205 81.7919 60.5295H68.8448C68.5385 60.5205 68.2335 60.5727 67.9476 60.6831C67.6618 60.7934 67.4008 60.9598 67.1801 61.1723C66.9594 61.3848 66.7833 61.6393 66.6622 61.9208C66.541 62.2022 66.4773 62.5051 66.4748 62.8115V80.2684H84.1619V62.8115ZM216.775 60.5295H231.591V109.779H241.863V60.5295H256.693V51.1239H216.775V60.5295ZM269.931 109.779H280.204V51.1171H269.931V109.779ZM195.167 76.9233C191.849 75.9685 188.91 75.2169 186.059 74.4855C183.52 73.8084 181.123 73.2261 178.665 72.515C177.541 72.2171 176.322 71.391 176.322 69.9757V62.8115C176.325 62.5051 176.388 62.2022 176.509 61.9208C176.631 61.6393 176.807 61.3848 177.027 61.1723C177.248 60.9598 177.509 60.7934 177.795 60.6831C178.081 60.5727 178.386 60.5205 178.692 60.5295H191.294C191.6 60.5205 191.905 60.5727 192.191 60.6831C192.477 60.7934 192.738 60.9598 192.959 61.1723C193.179 61.3848 193.355 61.6393 193.476 61.9208C193.598 62.2022 193.661 62.5051 193.664 62.8115V67.7276H203.936V60.5701C203.936 58.0617 202.942 55.6555 201.172 53.8786C199.401 52.1017 196.998 51.099 194.49 51.09H175.435C174.194 51.0826 172.963 51.3236 171.817 51.7989C170.67 52.2742 169.63 52.9742 168.758 53.8576C167.886 54.7411 167.199 55.7901 166.739 56.9429C166.278 58.0957 166.053 59.329 166.077 60.5701V72.3932C166.077 78.1963 171.331 80.4716 175.279 81.6701C179.044 82.7942 181.766 83.4984 184.644 84.2501C186.757 84.7986 188.87 85.3403 191.524 86.0784C193.556 86.5862 193.867 87.8322 193.867 88.5296V98.0842C193.864 98.3906 193.801 98.6935 193.68 98.9749C193.558 99.2564 193.382 99.5109 193.162 99.7234C192.941 99.9359 192.68 100.102 192.394 100.213C192.108 100.323 191.803 100.375 191.497 100.366H178.516C178.21 100.375 177.905 100.323 177.619 100.213C177.333 100.102 177.072 99.9359 176.851 99.7234C176.631 99.5109 176.455 99.2564 176.333 98.9749C176.212 98.6935 176.149 98.3906 176.146 98.0842V93.2832H165.874V100.326C165.874 102.84 166.872 105.251 168.65 107.029C170.428 108.807 172.839 109.806 175.354 109.806H194.774C196.016 109.813 197.247 109.572 198.394 109.097C199.541 108.622 200.581 107.922 201.454 107.038C202.327 106.155 203.014 105.106 203.475 103.953C203.936 102.8 204.162 101.567 204.139 100.326V86.2002C204.112 81.7107 201.099 78.5891 195.167 76.9233ZM328.566 51.1171V79.5574L306.755 51.1171H296.807V109.779H306.734V70.4633L328.566 98.8223V109.779H338.493V51.1171H328.566Z" fill="white"/>
<path d="M122.048 375.526H112.751V342.305C112.755 340.246 113.574 338.273 115.03 336.817C116.486 335.361 118.459 334.542 120.518 334.538H142.607V343.213H122.827C122.634 343.2 122.444 343.264 122.298 343.391C122.152 343.517 122.062 343.697 122.048 343.89V353.864H142.607V363.162H122.048V375.526ZM252.156 342.305V367.759C252.16 369.818 252.979 371.792 254.435 373.247C255.891 374.703 257.864 375.523 259.923 375.526H282.012V366.852H262.225C262.032 366.865 261.842 366.801 261.696 366.674C261.55 366.547 261.46 366.368 261.447 366.175V343.924C261.46 343.731 261.55 343.551 261.696 343.424C261.842 343.297 262.032 343.234 262.225 343.247H282.012V334.538H259.923C257.864 334.542 255.891 335.361 254.435 336.817C252.979 338.273 252.16 340.246 252.156 342.305ZM322.695 300.234L322.607 300.992L323.365 300.898C328.88 300.181 333.994 297.635 337.89 293.667C341.785 289.699 344.237 284.539 344.851 279.012L344.932 278.254L344.181 278.348C338.668 279.068 333.555 281.615 329.66 285.583C325.765 289.55 323.313 294.709 322.695 300.234ZM289.704 262.049C288.441 262.67 287.231 263.395 286.088 264.216C284.268 265.513 282.632 267.05 281.226 268.787C277.748 273.122 275.818 278.493 275.741 284.05V284.815L276.479 284.639C281.896 283.383 286.734 280.347 290.221 276.016C293.707 271.685 295.64 266.309 295.71 260.749V259.984L294.966 260.16C293.146 260.591 291.382 261.225 289.704 262.049ZM238.478 247.403L238.295 246.665L237.618 247.024C232.807 249.581 228.972 253.651 226.706 258.605C224.439 263.56 223.867 269.122 225.077 274.435C225.124 274.644 225.158 274.861 225.212 275.071L225.402 275.809L226.079 275.45C227.119 274.898 228.117 274.271 229.065 273.575C232.955 270.741 235.934 266.835 237.638 262.335C239.342 257.834 239.698 252.935 238.66 248.236C238.593 247.958 238.552 247.68 238.478 247.403ZM297.322 227.021L298.074 226.892C303.558 225.969 308.573 223.231 312.315 219.118C316.058 215.005 318.311 209.754 318.713 204.207L318.767 203.449L318.016 203.571C312.533 204.497 307.52 207.236 303.778 211.348C300.036 215.461 297.782 220.71 297.376 226.255L297.322 227.021ZM246.306 213.2L246.461 213.945L247.138 213.613C252.149 211.206 256.207 207.187 258.662 202.2C261.117 197.213 261.829 191.546 260.681 186.107L260.519 185.355L259.842 185.687C254.832 188.097 250.774 192.117 248.319 197.105C245.864 202.093 245.152 207.76 246.299 213.2H246.306ZM197.307 214.771V214.73L197.341 214.771L197.808 214.168C201.243 209.795 203.11 204.395 203.11 198.834C203.11 193.273 201.243 187.873 197.808 183.5L197.334 182.897L196.86 183.5C193.429 187.875 191.565 193.274 191.565 198.834C191.565 204.394 193.429 209.793 196.86 214.168L197.307 214.771ZM56.7847 293.666C60.6847 297.624 65.7936 300.169 71.3028 300.898L72.0612 300.992L71.98 300.234C71.3585 294.71 68.9048 289.553 65.0105 285.587C61.1162 281.62 56.0056 279.072 50.494 278.348L49.7356 278.254L49.8236 279.012C50.4461 284.536 52.8961 289.693 56.7847 293.666ZM113.442 268.787C112.036 267.052 110.403 265.515 108.587 264.216C107.442 263.394 106.23 262.669 104.964 262.049C103.287 261.223 101.522 260.589 99.7025 260.16L98.9576 259.984V260.749C99.0276 266.309 100.961 271.685 104.447 276.016C107.934 280.347 112.772 283.383 118.189 284.639L118.934 284.815V284.05C118.855 278.493 116.922 273.121 113.442 268.787ZM157.05 247.057L156.373 246.698L156.184 247.437C156.116 247.714 156.068 247.992 156.008 248.269C154.86 253.557 155.468 259.074 157.738 263.985C160.009 268.896 163.818 272.933 168.589 275.484L169.266 275.843L169.456 275.105C169.503 274.895 169.537 274.678 169.584 274.468C170.799 269.157 170.229 263.594 167.963 258.639C165.697 253.684 161.862 249.613 157.05 247.057ZM82.3742 219.118C86.1183 223.218 91.122 225.953 96.5944 226.892L97.3528 227.021L97.2919 226.255C96.8861 220.71 94.6319 215.461 90.89 211.348C87.1481 207.236 82.1348 204.497 76.6523 203.571L75.8939 203.449L75.9481 204.207C76.3685 209.755 78.6303 215.003 82.3742 219.118ZM147.516 213.613L148.193 213.945L148.349 213.2C149.494 207.76 148.782 202.093 146.327 197.106C143.872 192.118 139.815 188.098 134.806 185.687L134.129 185.355L133.973 186.107C132.827 191.546 133.539 197.212 135.994 202.199C138.449 207.186 142.506 211.205 147.516 213.613ZM89.2067 252.305C124.588 252.305 135.503 236.69 161.086 236.69C168.887 236.69 176.038 239.527 182.078 244.484C184.957 240.242 188.17 236.237 191.687 232.505C184.468 223.242 178.401 214.161 178.401 199.325C178.401 182.308 186.473 172.916 190.745 168.291L183.432 156.712C176.949 163.219 171.916 171.023 168.663 179.613C162.115 170.038 150.611 166.138 147.672 166.138V179.823C154.308 179.823 163.876 189.98 165.278 204.356C165.97 211.528 167.834 218.537 170.796 225.104C167.159 223.777 163.326 223.066 159.454 222.998C146.026 222.998 132.368 228.944 132.368 228.944C125.069 200.178 113.164 188.856 92.5315 183.893V197.558C104.314 200.943 112.995 208.873 119.353 233.406C119.353 233.406 106.44 238.674 94.2988 238.674C85.7532 238.674 78.0472 236.853 71.4789 227.887L58.8229 232.837C58.8229 232.837 64.809 252.305 89.2067 252.305ZM22.5819 23.0155H372.113V315.368C372.113 411.734 293.713 490.154 197.348 490.154C100.982 490.154 22.5819 411.734 22.5819 315.368V23.0155ZM178.624 381.424C163.808 408.68 134.054 442.293 90.5542 442.537C103.424 453.371 117.863 462.191 133.377 468.695C144.652 461.26 175.855 432.922 178.624 381.424ZM304.141 442.537C260.641 442.293 230.887 408.68 216.071 381.424C218.84 432.922 250.05 461.26 261.318 468.695C276.833 462.192 291.272 453.373 304.141 442.537ZM31.202 129.335H363.5V31.6356H31.202V129.335ZM31.202 315.368C31.1697 350.081 42.068 383.922 62.3509 412.092C133.811 412.092 178.55 388.995 178.55 328.458C178.55 306.504 167.221 302.658 153.8 302.658C125.61 302.658 100.894 327.564 78.352 327.564C63.2854 327.564 52.8911 321.273 46.9728 318.544L52.6541 306.186C52.6541 306.186 65.6012 313.858 75.9007 313.858C86.8366 313.858 97.8674 306.735 97.8674 306.735C91.7935 303.726 86.5311 299.302 82.5232 293.835C78.3249 288.181 75.4064 279.479 74.3229 272.207H88.0149C89.8567 280.766 95.7005 296.936 113.523 296.957C119.543 296.957 132.287 290.415 139.39 290.415C129.328 278.051 124.635 257.574 124.635 257.574C124.635 257.574 130.547 255.4 137.44 252.725C149.5 296.564 159.041 276.981 179.173 295.237C179.173 238.945 216.26 236.047 216.26 199.312C216.26 182.295 208.196 172.903 203.923 168.278L211.236 156.698C217.724 163.21 222.76 171.022 226.011 179.62C232.553 170.045 244.057 166.145 247.003 166.145V179.83C240.36 179.83 230.792 189.987 229.397 204.363C228.705 211.534 226.841 218.544 223.878 225.111C227.516 223.783 231.349 223.071 235.221 223.005C248.648 223.005 262.307 228.95 262.307 228.95C269.606 200.185 281.511 188.863 302.15 183.9V197.558C290.368 200.943 281.687 208.873 275.328 233.406C275.328 233.406 288.235 238.674 300.383 238.674C308.935 238.674 316.634 236.853 323.203 227.887L335.845 232.837C335.845 232.837 329.866 252.292 305.468 252.292C270.08 252.292 259.165 236.677 233.589 236.677C216.91 236.677 192.892 250.843 192.892 299.895V317.996C192.892 317.996 192.607 367.895 192.607 369.506C192.607 424.931 181.529 463.745 175.435 480.072C189.962 481.995 204.679 481.995 219.206 480.072C213.112 463.766 202.061 424.931 202.061 369.52C202.061 367.908 201.776 318.009 201.776 318.009C201.776 310.344 201.776 305.231 201.776 299.909C201.776 274.177 210.308 263.715 210.308 263.715C215.617 276.473 215.434 292.616 215.434 295.277C235.6 276.947 245.114 296.632 257.194 252.725C260.539 254.032 269.992 257.574 269.992 257.574C269.992 257.574 265.381 278.051 255.339 290.395C262.449 290.395 275.186 296.923 281.213 296.936C299.028 296.936 304.872 280.746 306.714 272.186H320.413C319.329 279.459 316.411 288.16 312.213 293.815C308.201 299.281 302.937 303.705 296.862 306.714C296.862 306.714 307.892 313.838 318.835 313.838C329.135 313.838 342.075 306.166 342.075 306.166L347.756 318.524C341.838 321.232 331.444 327.543 316.377 327.543C293.835 327.543 269.125 302.638 240.929 302.638C227.508 302.638 216.179 306.484 216.179 328.437C216.179 388.975 260.918 412.045 332.378 412.072C352.664 383.903 363.562 350.061 363.527 315.348V137.935H31.202V315.368ZM394.554 0.574707V315.368C394.554 367.671 373.777 417.831 336.794 454.814C299.81 491.798 249.65 512.575 197.348 512.575C145.045 512.575 94.8849 491.798 57.9015 454.814C20.9182 417.831 0.141113 367.671 0.141113 315.368V0.574707H394.554ZM385.934 9.19483H8.76124V315.368C8.76124 365.384 28.6301 413.352 63.9969 448.719C99.3637 484.086 147.331 503.955 197.348 503.955C247.364 503.955 295.331 484.086 330.698 448.719C366.065 413.352 385.934 365.384 385.934 315.368V9.19483Z" fill="#00B140"/>
</g>
<defs>
<clipPath id="clip0_795_4069">
<rect width="394.413" height="512" fill="white" transform="translate(0.141113 0.574707)"/>
</clipPath>
</defs>
</svg>
