<svg width="644" height="513" viewBox="0 0 644 513" fill="none" xmlns="http://www.w3.org/2000/svg">
<g clip-path="url(#clip0_2_15000)">
<path d="M583.93 135.783C545.626 97.4827 494.83 76.2099 440.733 75.7803C444.629 57.9435 450.693 38.9027 458.829 19.0267L458.979 18.6515C459.762 16.7196 460.065 14.6266 459.863 12.5518C459.66 10.4769 458.958 8.48208 457.816 6.73793C456.674 4.99625 455.126 3.55695 453.307 2.54292C451.487 1.52889 449.45 0.970265 447.367 0.914734L446.988 0.905934C444.54 0.837134 442.092 0.802734 439.643 0.802734C419.358 0.802734 378.899 3.22113 335.827 19.4307C290.315 36.5563 253.913 64.1731 227.625 101.519C216.789 116.916 202.188 141.969 194.175 173.887C193.058 178.326 192.043 182.791 191.13 187.277C189.636 187.308 188.133 187.32 186.626 187.32C168.64 187.32 146.984 185.336 122.271 181.41C100.318 177.919 63.7553 165.69 55.8993 162.718C50.1678 160.546 44.4889 158.237 38.8673 155.795L32.2345 152.865L0.146484 138.618L19.4265 176.181C26.9249 192.17 33.7753 205.123 38.8129 212.991C51.9353 233.48 67.0977 250.277 84.6913 263.728L102.234 296.216C112.554 315.356 123.013 330.658 134.198 343.006C140.423 349.874 147.313 355.904 151.992 359.748C158.438 365.049 165.642 369.891 173.409 374.136L182.546 393.952C183.509 396.03 193.149 413.04 207.409 427.168C216.614 436.288 232.909 446.682 241.718 450.284L242.804 450.74C249.515 453.584 267.339 461.133 295.713 461.133C300.959 461.133 306.473 460.848 312.106 460.29L312.822 460.218C317.07 465.621 319.286 469.658 319.591 472.54C319.817 474.613 319.03 476.538 317.497 480C316.692 481.622 314.644 483.64 312.273 485.978L312.178 486.072C310.765 487.468 309.16 489.052 307.593 490.807L307.137 491.317C305.426 493.221 304.322 495.593 303.967 498.128C303.613 500.664 304.025 503.247 305.149 505.548C307.294 509.954 311.846 512.803 316.747 512.803C317.015 512.803 317.283 512.795 317.56 512.781L318.238 512.735C328.499 512.092 349.682 506.3 363.976 488.664C367.561 484.24 370.58 479.647 373.105 474.75C394.113 481.916 416.262 485.548 439.055 485.548C493.782 485.548 545.23 464.232 583.93 425.537C622.626 386.833 643.942 335.385 643.942 280.657C643.942 225.935 622.626 174.483 583.93 135.783Z" fill="white"/>
<path d="M578.848 140.866C541.506 103.524 491.863 82.9619 439.052 82.9619C436.732 82.9619 434.339 83.0139 431.933 83.0987C436.438 58.4283 444.664 34.6651 452.167 16.3227L452.316 15.9523C452.665 15.0979 452.8 14.1716 452.711 13.2532C452.622 12.3348 452.311 11.4518 451.805 10.6803C451.299 9.90942 450.615 9.27223 449.809 8.82301C449.004 8.37378 448.103 8.12583 447.181 8.10028L446.789 8.09228C444.408 8.02323 442.027 7.98856 439.645 7.98828C419.85 7.98828 380.366 10.3523 338.362 26.1579C294.224 42.7643 258.947 69.5123 233.507 105.657C223.019 120.551 208.891 144.787 201.147 175.636C199.598 181.802 198.249 188.016 197.102 194.268L196.407 194.299C193.219 194.439 189.927 194.511 186.627 194.511C168.263 194.511 146.228 192.493 121.141 188.511C98.6505 184.935 61.3593 172.468 53.3545 169.441C46.749 166.934 40.2107 164.253 33.7465 161.401L30.7065 160.057L16.1489 153.588L24.5793 171.003C31.7929 186.826 39.6569 200.975 44.8689 209.115C64.5017 239.773 88.8401 261.833 119.271 276.552C137.248 285.247 158.083 289.076 168.902 290.583C177.004 291.711 190.808 292.775 197.306 292.775H197.315L198.567 292.763C199.133 294.955 199.751 297.182 200.415 299.439C200.027 299.439 199.639 299.443 199.256 299.443C186.857 299.443 175.693 298.553 161.919 296.471C150.52 294.747 139.871 292.332 129.363 289.101C124.832 287.704 120.111 286.179 116.231 284.481L100.294 277.497L108.559 292.805C118.607 311.425 128.737 326.268 139.527 338.177C145.458 344.721 152.062 350.499 156.559 354.195C162.791 359.322 169.783 363.997 177.337 368.093C197.727 379.134 216.935 384.061 239.609 384.061C239.898 384.061 240.191 384.056 240.49 384.052L244.314 384.018C246.012 386.203 247.741 388.365 249.499 390.503C247.405 390.639 245.429 390.699 243.291 390.699C240.345 390.699 236.977 390.579 232.698 390.328C221.206 389.651 202.292 385.504 197.089 383.022L182.119 375.855L189.071 390.933C189.923 392.763 199.163 408.875 212.473 422.063C220.831 430.34 236.295 440.303 244.501 443.655L245.612 444.123C251.952 446.809 268.8 453.945 295.711 453.945H295.715C300.727 453.945 305.998 453.673 311.392 453.137L315.697 452.707C316.689 453.677 317.558 454.619 318.277 455.525C329.731 470.011 327.483 475.209 324.021 483.023C322.701 485.795 320.206 488.251 317.319 491.1L317.234 491.185C315.825 492.577 314.368 494.012 312.951 495.601L312.495 496.107C311.76 496.928 311.28 497.944 311.111 499.033C310.942 500.121 311.091 501.235 311.542 502.24C311.991 503.245 312.722 504.099 313.646 504.698C314.57 505.297 315.648 505.615 316.749 505.615C316.868 505.615 316.987 505.616 317.111 505.607L317.787 505.559C326.878 504.993 345.664 499.837 358.391 484.138C363.551 477.772 366.954 471.578 369.355 465.762C391.394 474.119 414.842 478.36 439.053 478.36C491.859 478.36 541.507 457.795 578.848 420.453C616.19 383.111 636.751 333.464 636.751 280.661C636.751 227.855 616.19 178.207 578.848 140.866Z" fill="#010101"/>
<path d="M631.045 280.655C631.045 331.937 611.075 380.15 574.811 416.415C538.551 452.675 490.339 472.649 439.056 472.649C415.442 472.649 392.645 468.51 371.224 460.364C372.147 457.622 372.892 454.978 373.531 452.475C374.587 448.353 375.179 443.865 375.656 439.139C377.64 438.547 380.327 437.551 385.667 435.149C392.003 432.297 396.153 430.325 396.822 430.01C410.499 433.868 424.707 435.826 439.056 435.826C480.503 435.826 519.467 419.685 548.778 390.377C578.085 361.07 594.227 322.102 594.227 280.656C594.227 236.761 575.513 194.74 542.881 165.339C542.859 164.819 542.83 162.481 543.826 159.181C544.064 158.394 544.307 157.547 544.546 156.708C544.784 155.861 545.014 155.06 545.239 154.319C556.957 166.037 563.779 163.869 564.021 163.759C564.464 163.496 564.971 163.359 565.486 163.363C567.887 163.363 570.374 166.067 570.651 166.373L570.685 166.416L570.727 166.369L570.685 166.408L570.881 166.203L571.081 165.995V165.99C570.74 165.603 567.959 162.278 569.259 159.667C569.382 159.377 572.145 152.403 559.759 139.251L559.452 138.923L559.282 139.34C559.235 139.46 558.175 142.218 559.223 147.136L559.265 147.46C559.265 147.489 559.601 150.274 558.06 152.025C557.226 152.973 555.974 153.455 554.351 153.455L553.015 153.361C550.932 152.697 548.935 152.361 547.083 152.361L545.891 152.412C546.112 151.85 546.363 151.271 546.653 150.649C547.186 149.504 547.688 148.345 547.939 147.239L548.719 147.115C550.979 147.115 553.475 149.167 553.768 149.414L553.811 149.453L553.845 149.401L553.807 149.449L553.977 149.214L554.143 148.98C553.773 148.657 550.536 145.736 551.469 142.972C551.55 142.665 553.325 135.376 539.24 124.058L538.887 123.773L538.78 124.212C538.751 124.335 538.083 127.218 539.798 131.944L539.879 132.255C539.887 132.285 540.659 135.205 539.163 137.16C538.252 138.357 536.669 138.965 534.51 138.969C533.294 138.753 532.062 138.642 530.827 138.637C527.523 138.637 525.781 139.493 525.709 139.532L525.309 139.732L525.662 140.013C528.562 142.317 531.125 143.969 533.42 145.203L532.675 145.485C532.011 145.736 531.329 146 530.601 146.259C528.809 146.907 527.041 147.647 525.875 148.158C524.74 148.663 523.633 149.227 522.558 149.849C497.645 133.911 468.772 125.485 439.056 125.485C435.637 125.485 432.184 125.6 428.756 125.825C428.113 113.708 429.02 101.198 430.936 88.8373C433.64 88.7221 436.357 88.6621 439.056 88.6621C490.339 88.6621 538.551 108.637 574.811 144.897C611.075 181.161 631.045 229.373 631.045 280.656" fill="#B9975B"/>
<path d="M555.663 321.831L553.577 330.819L559.389 355.307C559.389 355.307 542.379 357.972 534.808 359.113C532.48 366.927 520.817 397.587 520.817 397.587L518.483 396.434C516.789 379.683 508.069 371.116 498.11 364.703C492.519 361.11 486.132 358.645 480.039 356.707C471.809 354.093 463.267 352.509 454.628 351.244C456.118 347.736 455.705 343.508 454.623 340.863C452.852 336.52 450.178 333.566 447.764 330.483C458.396 328.673 459.626 321.154 459.201 316.568C457.859 318.91 452.175 328.528 443.783 326.634C426.534 306.311 423.596 305.208 421.927 298.651C420.735 293.967 422.936 287.947 427.858 284.621C436.859 279.027 442.476 284.707 451.583 296.156C456.425 302.24 473.911 325.442 485.408 338.484C494.2 348.464 502.998 354.884 513.898 360.595C519.889 363.737 526.803 366.105 526.803 366.105L528.234 363.818C528.234 363.818 519.706 355.319 514.273 344.522C511.602 339.22 509.585 333.595 508.311 328.111C505.135 314.409 508.188 300.286 508.188 300.286C508.188 300.286 500.11 301.619 492.591 290.539C490.62 287.635 488.772 280.866 488.188 276.552C487.775 273.478 487.486 271.094 487.439 268.527C501.26 255.919 520.076 233.364 527.276 231.691C529.452 236.209 560.905 302.909 560.905 302.909L553.854 306.293L553.883 313.967L535.473 327.468L555.664 321.831H555.663Z" fill="white"/>
<path d="M342.366 477.879C342.45 477.266 342.498 476.832 342.51 476.7C343.43 467.758 340.866 461.564 338.397 456.462C336.068 451.651 332.998 447.959 330.051 444.59C324.793 438.566 317.899 433.308 314.263 430.71C313.638 430.263 251.476 385.291 224.681 320.094C204.115 270.094 206.611 225.526 212.321 196.942C214.207 187.494 216.545 178.642 219.678 169.07L219.776 168.756C230.957 134.552 247.75 111.005 259.869 97.2742C299.134 52.7662 362.19 25.9878 433.237 23.5566C428.094 36.3862 423.354 52.1486 419.131 70.479C418.343 73.911 411.59 104.154 413.298 128.778C391.472 135.258 371.894 145.874 355.088 160.346C343.383 170.425 333.015 183.526 325.891 197.237C316.83 214.685 315.081 228.856 313.803 239.202C313.65 240.45 313.501 241.65 313.347 242.796C311.35 257.665 316.222 295.415 336.945 319.452C342.625 326.047 350.51 335.828 360.495 348.205L360.623 348.366C367.262 356.597 374.751 365.884 383.178 376.201C380.142 379.249 373.402 386.433 367.474 400.488C364.51 407.513 362.634 414.304 361.892 420.666C361.598 423.17 361.394 425.797 361.172 428.569C360.576 436.135 359.908 444.659 357.251 453.102C355.475 458.753 353.432 463.338 350.826 467.533C348.407 471.433 345.384 475.099 342.366 477.879Z" fill="#C8102E"/>
<path d="M548.758 300.258L534.66 308.795L535.01 309.647L558.518 303.983L548.758 300.258ZM533.184 268.323C533.184 268.323 532.958 264.717 532.013 263.299C531.068 261.882 536.245 259.671 536.245 259.671L533.567 258.207L532.92 259.369L520.832 263.601L510.758 271.862L519.398 269.082L537.148 271.347L533.184 268.323ZM484.537 115.825C485.142 114.667 486.41 114.083 488.305 114.083C489.851 114.083 491.278 114.483 491.55 114.564L491.606 114.577L491.681 114.305L491.716 114.015C491.243 113.867 487.108 112.503 486.841 109.595C486.79 109.281 485.474 101.897 468.021 97.2226L467.586 97.1074L467.663 97.5498C467.684 97.6778 468.237 100.595 471.733 104.235L471.921 104.465C471.938 104.491 473.82 106.858 473.241 109.247C472.887 110.711 471.682 111.903 469.711 112.776C464.142 114.168 461.975 116.732 461.885 116.843L461.599 117.191L462.033 117.303C466.466 118.465 470.474 119.052 473.939 119.052C481.897 119.052 484.405 115.999 484.537 115.825Z" fill="#010101"/>
<path d="M509.657 122.263C511.539 122.263 513.463 123.094 513.834 123.26L513.885 123.285L514.004 123.021L514.076 122.741C513.63 122.527 509.721 120.607 509.852 117.69C509.848 117.375 509.567 109.877 492.927 102.843L492.511 102.668L492.527 103.116C492.531 103.244 492.676 106.206 495.627 110.29L495.785 110.554C495.801 110.58 497.339 113.186 496.436 115.472C495.883 116.869 494.524 117.886 492.451 118.478C486.745 119.086 484.246 121.33 484.139 121.429L483.807 121.731L484.224 121.906C490.024 124.315 495.107 125.542 499.344 125.542C504.576 125.542 506.595 123.664 506.715 123.545C507.323 122.694 508.315 122.263 509.657 122.263Z" fill="#010101"/>
<path d="M531.538 128.888C531.577 128.577 532.33 121.113 516.818 111.848L516.431 111.613L516.384 112.065C516.372 112.192 516.107 115.139 518.462 119.584L518.586 119.878C518.598 119.908 519.765 122.696 518.552 124.838C517.81 126.145 516.325 126.964 514.192 127.265L513.425 127.252C508.201 127.252 505.659 128.968 505.553 129.041L505.182 129.292L505.57 129.522C513.8 134.38 519.382 135.402 522.614 135.402C525.998 135.398 527.514 134.334 527.622 134.252C528.196 133.644 528.983 133.332 529.958 133.332C532.078 133.332 534.43 134.78 534.706 134.955L534.758 134.985L534.91 134.742L535.022 134.474C534.608 134.206 531.002 131.762 531.538 128.888ZM578.824 181.996L579.91 181.774C582.456 181.774 584.772 185.12 585.028 185.504L585.058 185.546L585.296 185.384L585.504 185.184C585.236 184.772 582.92 181.08 584.572 178.67C584.734 178.397 588.434 171.874 577.99 157.134L577.726 156.768L577.5 157.16C577.44 157.265 575.996 159.867 576.367 164.904L576.359 165.193C576.359 165.411 576.244 170.529 571.654 170.529C570.947 170.529 570.159 170.405 569.354 170.184C565.838 168.493 563.146 168.242 561.861 168.242C561.149 168.242 560.754 168.314 560.737 168.319L560.294 168.404L560.558 168.77C569.167 180.769 575.656 182.068 578.049 182.068L578.824 181.996Z" fill="#010101"/>
<path d="M590.968 202.096L591.688 202.003C594.404 202.003 596.405 205.975 596.627 206.427L596.652 206.473L596.908 206.35L597.146 206.175C596.933 205.732 595.153 201.751 597.121 199.596C597.321 199.35 601.885 193.396 593.569 177.357L593.36 176.957L593.089 177.315C593.007 177.417 591.232 179.78 590.895 184.795L590.849 185.119C590.814 185.311 590.086 189.807 586.217 189.807C585.309 189.807 584.287 189.556 583.223 189.092C578.863 186.201 575.648 186.052 575.047 186.052L574.494 186.078L574.702 186.474C582.686 201.67 589.997 202.104 590.806 202.104L590.968 202.096Z" fill="#010101"/>
<path d="M600.218 223.685L600.568 223.664C603.488 223.664 605.047 228.207 605.226 228.748L605.242 228.807L605.515 228.714L605.775 228.582C605.631 228.109 604.413 223.924 606.661 222.059C606.891 221.841 612.234 216.574 606.213 199.543L606.065 199.117L605.741 199.432C605.648 199.521 603.557 201.62 602.531 206.556L602.445 206.853C602.433 206.892 601.206 210.899 597.851 210.899C596.778 210.899 595.59 210.499 594.347 209.732C590.046 205.929 586.704 205.593 586.563 205.584L586.112 205.542L586.269 205.968C592.38 222.97 599.853 223.664 600.218 223.685Z" fill="#010101"/>
<path d="M602.51 231.713C598.78 227.357 595.51 226.561 595.374 226.527L594.939 226.429L595.029 226.868C598.738 244.55 606.04 246.271 606.402 246.343C609.565 246.403 610.554 251.453 610.659 252.049L610.672 252.109L610.954 252.057L611.226 251.955C611.149 251.469 610.519 247.157 613.006 245.619C613.262 245.441 619.282 240.961 615.671 223.257L615.578 222.818L615.215 223.086C615.118 223.163 612.75 224.956 611.055 229.699L610.932 229.976C610.915 230.014 609.34 233.395 606.385 233.395C605.159 233.395 603.842 232.816 602.51 231.713M463.877 108.465C464.515 99.0118 435.519 106.553 435.519 106.553C435.519 106.553 463.259 117.602 463.877 108.465ZM446.901 452.853L446.957 453.13V453.096L446.965 453.13L446.948 452.556L446.697 452.56C445.764 452.56 441.098 452.411 440.433 449.46C440.314 449.17 437.18 442.353 419.119 442.209H418.667L418.854 442.617C418.91 442.745 420.332 445.785 425.301 448.557C427.021 449.941 427.869 451.405 427.83 452.913C427.766 455.369 425.331 457.163 425.305 457.184L425.147 457.307C420.758 459.926 419.451 462.629 419.395 462.745L419.203 463.153L419.821 463.157C437.742 463.157 440.923 456.413 441.055 456.111C442.068 453.385 446.415 453.147 446.91 453.13L446.901 452.853Z" fill="#010101"/>
<path d="M470.776 450.541L470.729 450.269L470.823 450.533L470.818 450.503L470.831 450.533L470.733 449.967L470.677 449.975L470.725 450.158V450.248L470.677 449.975C470.031 450.074 469.378 450.124 468.724 450.124C466.896 450.124 464.58 449.732 463.856 447.799C463.737 447.604 460.846 443.043 449.116 443.043C446.846 443.043 444.364 443.218 441.736 443.563L441.294 443.622L441.532 444.001C441.609 444.121 443.44 446.935 448.74 448.992C450.636 450.128 451.679 451.461 451.844 452.956C452.122 455.404 449.959 457.512 449.937 457.533L449.695 457.763C445.795 460.927 444.888 463.745 444.853 463.865L444.717 464.294L445.164 464.235C463.064 461.782 465.296 454.621 465.385 454.297C466.011 451.469 470.265 450.631 470.772 450.541H470.776Z" fill="#010101"/>
<path d="M493.932 444.117L493.873 444.133C493.583 444.223 492.104 444.657 490.53 444.657C488.698 444.657 487.456 444.086 486.821 442.916C486.723 442.792 484.258 439.867 476.606 439.867C473.046 439.867 468.917 440.51 464.331 441.774L463.896 441.894L464.186 442.238C464.28 442.345 466.481 444.883 472.021 446.186C474.048 447.05 475.265 448.226 475.64 449.686C476.253 452.066 474.4 454.459 474.38 454.485L474.205 454.71C470.752 458.398 470.236 461.326 470.215 461.45L470.143 461.898L470.577 461.774C487.967 456.878 489.188 449.473 489.236 449.145C489.461 446.249 493.583 444.831 494.052 444.678L493.966 444.414L494.098 444.666L494.089 444.636L494.106 444.662L493.932 444.117Z" fill="#010101"/>
<path d="M516.102 435.118L516.051 435.143L516.149 435.305L516.174 435.39L516.051 435.143C515.676 435.318 513.709 436.195 511.805 436.195C510.507 436.195 509.536 435.778 508.893 434.914C508.813 434.837 506.837 433.053 501.812 433.053C497.521 433.053 492.356 434.342 486.463 436.889L486.049 437.068L486.385 437.366C486.488 437.459 489.017 439.67 494.685 440.198C496.813 440.772 498.185 441.769 498.755 443.161C499.688 445.434 498.185 448.062 498.168 448.083L498.074 448.27C495.119 452.434 495.008 455.436 495.008 455.564L494.996 456.015L495.408 455.832C511.955 448.581 512.146 441.079 512.142 440.746C511.972 437.851 515.854 435.876 516.302 435.658L516.182 435.407L516.345 435.637L516.332 435.612L516.349 435.637L516.102 435.118Z" fill="#010101"/>
<path d="M536.819 423.148L536.776 423.177L536.891 423.327L536.925 423.412L536.776 423.177C536.512 423.353 534.128 424.864 531.982 424.864C531.036 424.864 530.266 424.566 529.648 423.944C529.589 423.901 528.12 422.893 524.875 422.893C521.623 422.893 515.998 423.949 507.703 428.994L507.319 429.228L507.695 429.476C507.797 429.543 510.263 431.161 515.282 431.161L516.304 431.136C518.492 431.408 519.987 432.209 520.749 433.507C521.989 435.632 520.86 438.438 520.847 438.467L520.779 438.655C518.424 443.19 518.731 446.183 518.747 446.311L518.799 446.758L519.183 446.524C534.571 437.054 533.723 429.603 533.676 429.271C533.106 426.426 536.683 423.931 537.091 423.659L536.938 423.425L537.13 423.633L537.112 423.604L537.138 423.629L536.819 423.148Z" fill="#010101"/>
<path d="M555.681 408.428L555.639 408.462V408.466C555.349 408.713 552.85 410.834 550.567 410.834C549.865 410.834 549.251 410.634 548.69 410.199C548.651 410.182 547.659 409.684 545.688 409.684C542.239 409.684 536.307 411.17 527.651 418.234L527.307 418.519L527.711 418.715C527.779 418.749 529.448 419.541 532.599 419.541C533.847 419.541 535.167 419.417 536.47 419.166H536.631C538.764 419.166 540.306 419.762 541.208 420.929C542.712 422.862 541.987 425.775 541.979 425.805L541.937 426.001C540.229 430.817 540.953 433.737 540.983 433.865L541.094 434.299L541.443 434.013C555.375 422.513 553.505 415.245 553.416 414.925C552.454 412.184 555.651 409.225 556.018 408.892L555.834 408.688L556.056 408.862L556.035 408.837L556.06 408.858L555.681 408.428Z" fill="#010101"/>
<path d="M572.332 391.252L572.298 391.294C572.017 391.618 569.543 394.373 567.133 394.373C566.622 394.373 566.141 394.245 565.66 393.973C565.634 393.965 565.072 393.773 564.016 393.773C561.091 393.773 554.853 395.212 545.928 404.83L545.626 405.162L546.048 405.303C546.086 405.311 547.023 405.61 548.726 405.61C550.625 405.61 552.682 405.248 554.785 404.546C557.097 404.191 558.838 404.622 559.911 405.822C561.458 407.555 561.163 410.323 561.159 410.353L561.12 410.681C560.136 415.607 561.236 418.353 561.282 418.473L561.458 418.89L561.759 418.558C573.975 405.243 571.122 398.303 570.986 397.996C569.658 395.416 572.417 392.044 572.732 391.669L572.524 391.486L572.766 391.63L572.741 391.61L572.77 391.626L572.332 391.252Z" fill="#010101"/>
<path d="M586.453 371.932L586.423 371.979C586.159 372.379 583.877 375.772 581.322 375.772L580.215 375.551L579.573 375.504C577.703 375.504 570.929 376.48 562.174 389.032L561.919 389.402L562.362 389.479C562.374 389.483 562.724 389.543 563.354 389.543C564.657 389.543 567.378 389.274 570.912 387.52C571.789 387.256 572.602 387.124 573.326 387.124C577.835 387.124 578.018 392.178 578.022 392.396L578.031 392.652C577.725 397.718 579.206 400.311 579.27 400.417L579.5 400.809L579.751 400.434C590.009 385.562 586.223 379.085 586.049 378.804C584.38 376.436 586.633 372.728 586.905 372.289H586.909L586.674 372.14L586.934 372.247L586.905 372.23L586.938 372.243L586.453 371.932Z" fill="#010101"/>
<path d="M598.272 351.147L598.022 351.033L598.293 351.105L598.264 351.088L598.295 351.096L597.774 350.857L597.749 350.909C597.532 351.373 595.564 355.393 592.835 355.393L592.095 355.298H592.018C591.213 355.298 583.924 355.741 576.089 371.138L575.927 371.56H576.396C576.992 371.56 580.189 371.406 584.528 368.443C585.66 367.923 586.7 367.659 587.624 367.659C591.44 367.659 592.218 372.096 592.248 372.283L592.304 372.611C592.704 377.619 594.513 379.961 594.589 380.062L594.871 380.416L595.071 380.011C603.178 363.861 598.537 357.973 598.324 357.713C596.336 355.597 598.068 351.594 598.272 351.147Z" fill="#010101"/>
<path d="M606.408 329.618V329.614L606.144 329.529L606.425 329.567L606.396 329.559H606.425L605.88 329.393L605.864 329.444C605.693 329.98 604.156 334.566 601.214 334.566L600.839 334.545C600.524 334.57 593.06 335.315 587.06 352.36L586.912 352.785L587.359 352.743C587.499 352.73 590.841 352.369 595.074 348.57C596.364 347.757 597.56 347.349 598.637 347.349C601.968 347.349 603.219 351.325 603.232 351.364L603.3 351.546C604.352 356.554 606.485 358.67 606.579 358.76L606.902 359.074L607.051 358.649C612.952 341.57 607.575 336.346 607.332 336.116C605.092 334.285 606.26 330.121 606.408 329.618Z" fill="#010101"/>
<path d="M613.402 313.526C610.933 312.002 611.558 307.684 611.634 307.198L611.362 307.152L611.584 307.144L611.643 307.152L611.614 307.144H611.643L611.082 307.05L611.074 307.106H611.069C610.966 307.689 609.983 312.751 606.76 312.824C606.454 312.888 599.155 314.616 595.459 332.304L595.366 332.742L595.804 332.64C595.94 332.606 599.206 331.814 602.898 327.484C604.265 326.342 605.585 325.768 606.81 325.768C609.762 325.768 611.342 329.144 611.358 329.178L611.448 329.358C613.146 334.177 615.548 335.995 615.65 336.068L616.012 336.336L616.102 335.893C619.699 318.189 613.675 313.718 613.402 313.526ZM390.714 445.67C390.714 445.67 416.738 460.518 418.591 451.222C420.379 442.243 390.714 445.67 390.714 445.67ZM613.314 270.598C608.456 270.598 604.518 274.536 604.518 279.394C604.518 284.253 608.456 288.191 613.314 288.191C618.172 288.191 622.111 284.253 622.111 279.394C622.111 274.536 618.173 270.598 613.314 270.598Z" fill="#010101"/>
<path d="M396.894 335.208C405.916 344.814 413.87 353.291 416.928 360.04C417.089 360.398 417.238 360.751 417.375 361.096C417.524 361.487 417.656 361.883 417.775 362.284C417.864 362.587 417.945 362.884 418.009 363.179C418.265 364.311 418.46 365.405 418.613 366.457C418.767 367.505 418.873 368.518 418.941 369.484C419.005 370.455 419.036 371.388 419.036 372.282C419.031 373.178 418.996 374.074 418.929 374.968C418.881 375.631 418.816 376.293 418.733 376.952L418.656 377.54C418.358 379.669 417.937 381.543 417.554 383.195C420.564 380.729 424.771 376.965 428.067 373.967L428.94 373.171C430.068 372.137 431.051 371.235 431.783 370.557C432.183 370.187 432.588 369.816 433.002 369.446C433.419 369.075 433.84 368.697 434.271 368.318C435.131 367.555 436.024 366.78 436.94 365.984C440.364 362.999 443.859 359.959 446.567 357.034C448.184 355.284 449.527 353.572 450.392 351.946L450.65 351.469C451.625 349.659 452.28 348.433 452.242 346.279C452.229 345.723 452.181 345.168 452.098 344.618C451.948 343.548 451.662 342.503 451.246 341.506C450.56 339.883 449.539 338.355 448.142 336.528C446.729 334.674 445.278 332.85 443.79 331.056C442.748 329.804 441.693 328.564 440.623 327.335C439.978 326.6 439.33 325.867 438.677 325.138C437.947 324.328 437.213 323.522 436.476 322.719C436.031 322.236 435.583 321.755 435.134 321.276C434.78 320.893 434.424 320.514 434.075 320.135C433.649 319.683 433.226 319.237 432.81 318.794C432.737 318.713 432.664 318.636 432.592 318.559C432.316 318.266 432.04 317.976 431.767 317.687C431.469 317.371 431.175 317.056 430.881 316.75C425.044 310.547 420.952 305.982 419.206 300.923C418.899 300.075 418.671 299.2 418.525 298.309C418.491 298.13 418.473 297.947 418.448 297.764C418.44 297.704 418.432 297.649 418.427 297.594C418.243 296.232 418.211 294.854 418.333 293.485C420.189 280.626 436.267 272.012 447.636 286.311L452.076 291.833C452.076 291.833 473 318.241 484.181 331.789L489.937 338.58C490.146 338.802 490.326 338.998 490.479 339.151C499.911 350.231 517.112 359.001 521.238 360.896C520.94 360.543 520.595 360.134 520.22 359.679C518.164 357.167 515.136 353.181 512.65 348.765C511.97 347.564 511.343 346.334 510.772 345.078C510.66 344.835 510.55 344.588 510.44 344.342C509.787 342.9 509.161 341.446 508.562 339.982C507.356 337.001 506.224 333.726 505.317 329.937C504.854 327.987 504.476 326.018 504.185 324.035L504.133 323.695C504.04 323.013 503.955 322.345 503.877 321.689C503.827 321.233 503.78 320.782 503.737 320.339C503.673 319.676 503.621 319.012 503.58 318.347C503.576 318.299 503.572 318.257 503.572 318.211C503.527 317.558 503.494 316.905 503.473 316.251C503.437 315.279 503.422 314.305 503.427 313.331C503.432 312.403 503.457 311.521 503.496 310.695C503.565 308.955 503.713 307.219 503.937 305.492C503.942 305.436 503.95 305.39 503.959 305.339C504.082 304.372 504.211 303.657 504.292 303.227C503.466 303.034 502.654 302.789 501.859 302.495C499.709 301.707 496.695 300.242 493.952 297.623C492.464 296.207 491.196 294.575 490.192 292.783C487.447 287.89 484.845 281.992 484.33 272.097C483.7 272.561 483.074 273.038 482.44 273.519C479.569 275.695 476.602 277.951 472.919 279.693C470.908 280.643 467.217 282.12 462.831 282.623C461.833 282.739 460.83 282.799 459.825 282.802C458.98 282.802 458.136 282.756 457.296 282.666C456.486 282.576 455.681 282.438 454.886 282.252C444.424 279.825 437.971 274.971 434.568 266.983C433.792 265.173 433.247 263.272 432.946 261.325C432.8 260.358 432.711 259.382 432.681 258.404C432.656 257.415 432.689 256.428 432.788 255.428C432.996 253.247 433.376 250.884 434.031 248.53C434.322 247.47 434.67 246.426 435.075 245.404C435.687 243.847 436.457 242.356 437.371 240.955C437.68 240.487 438.008 240.027 438.358 239.583C439.242 238.449 440.253 237.419 441.372 236.514C442.07 235.949 442.81 235.439 443.586 234.986C443.85 234.827 444.122 234.679 444.399 234.534C444.966 234.242 445.546 233.976 446.137 233.738C446.563 233.569 446.996 233.419 447.436 233.29C448.797 232.904 450.206 232.711 451.62 232.715C456.913 232.715 461.946 235.249 464.271 238.983C464.351 238.762 464.433 238.519 464.523 238.263C465.131 236.454 465.889 233.747 466.779 230.548C468.815 223.255 471.595 213.266 475.419 203.771C475.988 202.353 476.551 200.934 477.108 199.512C477.54 198.405 477.976 197.299 478.416 196.195C481.508 188.442 484.884 180.688 489.941 174.506C482.908 169.469 476.308 166.318 470.538 164.351C470.065 164.188 469.59 164.032 469.112 163.883C460.2 161.072 453.439 161.072 450.372 161.072L449.275 161.076C437.744 161.23 427.7 162.827 418.144 166.096C414.657 167.298 411.245 168.707 407.925 170.315C407.043 170.744 406.165 171.184 405.294 171.635C404.877 171.857 404.456 172.066 404.034 172.291C396.37 176.422 389.303 181.753 383.064 188.007C383.048 188.025 383.034 188.042 383.017 188.055C374.531 196.571 367.574 206.785 362.72 217.954C360.772 222.436 359.175 227.063 357.942 231.791C356.622 236.867 355.4 242.279 354.821 248.197C354.58 250.644 354.461 253.101 354.464 255.559C354.472 258.735 354.693 262.052 355.2 265.539C355.4 266.931 355.648 268.35 355.946 269.798C356.462 272.304 357.098 274.783 357.854 277.227C359.664 283.155 362.304 289.524 366.033 296.41C367.736 299.552 369.69 302.655 371.802 305.709C379.104 316.252 388.434 326.199 396.894 335.208Z" fill="#B9975B"/>
<path d="M447.029 13.8037L446.624 13.7957C444.297 13.7284 441.97 13.6956 439.642 13.6973C420.234 13.6973 381.53 16.0093 340.368 31.4997C297.325 47.6925 262.939 73.7509 238.171 108.943C227.964 123.445 214.215 147.029 206.679 177.026C194.22 226.635 198.397 264.258 201.995 282.264C205.483 299.753 213.215 321.463 222.165 338.925C223.962 342.437 233.138 358.588 239.231 367.427C245.473 376.475 252.229 385.159 259.464 393.435C269.143 404.504 275.283 410.325 280.213 415.009C281.903 416.609 283.363 417.993 284.756 419.39C291.795 426.458 299.501 432.382 306.301 437.606C313.25 442.945 319.25 447.557 322.754 451.985C336.379 469.213 333.054 476.715 329.209 485.401C327.459 489.113 324.483 492.052 321.327 495.161C319.951 496.518 318.53 497.919 317.202 499.401L316.75 499.912L317.431 499.865C325.594 499.354 342.476 494.709 353.959 480.547C362.471 470.043 365.835 459.947 368.003 451.461C369.356 446.164 369.915 439.952 370.507 433.381C370.851 429.521 371.213 425.535 371.745 421.617C372.609 415.307 374.534 408.635 377.025 403.309C381.053 394.677 385.371 388.172 390.187 383.449C388.704 381.933 387.265 380.367 385.835 378.791C380.675 384.177 374.555 393.409 371.563 400.43C366.193 413.033 365.55 420.349 365.082 425.692C364.958 427.127 364.847 428.366 364.664 429.554C364.468 430.832 364.354 432.484 364.213 434.396C363.677 441.783 362.782 454.144 355.557 467.241C350.469 476.455 343.643 483.357 334.715 488.313C336.877 485.217 339.244 478.929 338.542 471.166C337.192 456.2 325.59 444.61 316.094 437.525C287.226 415.967 263.151 391.313 244.545 364.246C226.274 337.668 214.147 310.064 208.497 282.201C201.625 248.274 202.791 212.759 211.87 179.479C220.649 147.306 236.616 117.718 258.047 93.9029C300.259 46.9829 362.667 21.4261 438.539 19.9781L437.662 22.4557C433.579 34.0077 429.359 45.9557 425.876 59.1165C423.176 69.3229 420.975 79.6269 419.144 90.6253C416.99 103.608 416.219 117.075 417.113 128.001L423.036 126.647C420.809 87.0013 434.792 43.7157 446.876 14.1789L447.029 13.8037ZM540.308 158.173C541.326 154.371 542.791 151.305 543.761 149.274C544.502 147.729 544.945 146.796 544.894 146.264L544.877 146.128L544.766 146.056L544.012 145.919C539.512 145.919 520.44 151.233 501.974 167.503C489.865 178.169 485.33 189.622 482.328 197.201L481.834 198.441C474.247 217.413 467.336 242.846 465.616 253.039C464.483 248.726 462.878 243.681 461.145 241.599C459.442 239.546 456.627 236.817 451.893 236.817C451.16 236.817 450.385 236.881 449.602 237.013C445.063 237.766 440.959 241.453 439.14 246.393L439.089 246.537C437.863 249.863 436.709 252.997 436.875 258.489C436.964 261.537 437.811 264.778 439.089 266.937C443.628 274.623 450.649 278.519 459.953 278.519C461.153 278.519 462.406 278.455 463.679 278.327C467.298 277.965 471.147 276.479 474.809 274.031C483.265 268.381 490.103 261.125 497.346 253.444C501.45 249.097 505.695 244.596 510.268 240.419C513.083 237.851 519.679 231.839 526.41 227.913C531.426 224.993 536.455 222.932 541.368 221.786L542.143 221.361L541.982 220.369L541.803 219.917C540.134 215.565 538.759 209.983 537.587 202.843C536.629 196.95 536.059 191.121 536.399 181.809C536.583 176.691 538.094 166.446 540.308 158.173ZM400.287 414.852C405.759 412.361 411.418 409.784 417.362 407.256C430.344 401.746 440.031 398.365 451.927 395.197C463.867 392.016 475.87 389.155 491.454 389.057H491.718C496.188 389.057 501.868 389.729 505.76 390.701C500.348 374.631 481.443 369.092 474.282 366.997C467.474 365.005 451.727 362.394 446.567 361.905L445.831 361.837L446.431 361.402C448.125 360.167 449.075 358.984 450.267 357.484L451.216 356.309L451.315 356.194L451.467 356.216C460.596 357.285 470.427 359.328 478.437 361.824C486.927 364.468 494.187 368.032 500.016 372.421C503.235 374.844 505.977 377.88 508.651 381.972C512.019 387.12 513.186 395.159 513.156 400.477V400.992L512.726 400.707C508.698 398.054 504.563 396.419 500.438 395.845C497.487 395.436 494.315 395.231 491.006 395.231C482.767 395.231 473.562 396.47 462.879 399.021C452.941 401.389 443.152 404.352 432.954 408.081C421.535 412.25 412.546 416.205 400.143 421.766C398.251 422.616 396.364 423.474 394.48 424.342C388.425 427.114 382.668 429.75 376.328 431.939C376.537 429.635 376.759 427.301 377.027 424.985C385.304 421.669 392.913 418.211 400.287 414.852Z" fill="#B9975B"/>
<path d="M295.713 448.241C269.957 448.241 253.883 441.428 247.833 438.865L246.7 438.393C239.108 435.289 224.257 425.708 216.487 418.005C203.96 405.597 195.01 390.167 194.252 388.537L193.928 387.833L194.627 388.17C201.039 391.232 220.787 395.345 232.36 396.026C236.763 396.285 240.232 396.405 243.29 396.405C247.565 396.405 251.078 396.166 254.91 395.771C255.17 396.069 255.425 396.371 255.689 396.673C257.188 398.388 258.702 400.088 260.232 401.774C256.247 402.157 251.61 402.396 245.551 402.541L244.512 402.553C236.963 402.553 215.559 400.965 209.244 399.381C221.336 415.054 232.198 425.717 251.223 433.628C258.198 436.526 265.474 438.639 272.916 439.929C280.266 441.202 288.803 441.82 299.026 441.82C300.474 441.82 301.986 441.803 303.57 441.781C306.167 443.778 308.62 445.665 310.825 447.457C305.716 447.968 300.644 448.241 295.713 448.241ZM205.02 311.478C203.531 311.533 202.04 311.561 200.55 311.559C187.806 311.559 171.026 310.031 155.66 307.467C141.796 305.155 131.811 302.703 126.642 300.353C126.978 300.889 127.383 301.541 127.842 302.29C132.552 309.937 143.588 327.833 157.865 339.636C170.388 349.987 185.937 361.356 206.353 367.197C216.049 369.969 224.173 371.357 236.56 372.298C237.988 374.331 239.443 376.345 240.924 378.34C240.485 378.345 240.043 378.357 239.608 378.357C217.935 378.357 199.567 373.644 180.053 363.076C172.827 359.158 166.142 354.687 160.181 349.791C155.829 346.214 149.452 340.632 143.754 334.348C133.276 322.783 123.41 308.306 113.578 290.095L113.196 289.38L113.936 289.708C118.088 291.53 122.997 293.114 127.68 294.553C138.466 297.874 149.383 300.344 161.063 302.111C175.135 304.24 186.563 305.151 199.256 305.151C200.44 305.151 201.653 305.138 202.872 305.121C203.552 307.233 204.272 309.353 205.021 311.478M149.718 204.679L149.267 204.633C123.234 201.921 93.8507 194.903 76.5971 189.713C64.1043 185.961 52.2459 181.845 41.3587 177.489L40.9419 177.305C44.7139 185.468 49.1467 193.583 54.1155 201.413C67.5019 222.529 83.3715 239.62 101.276 252.215C124.605 268.625 150.966 275.518 158.366 276.961L158.374 276.855H158.63L158.758 276.872L159.712 277.068C162.926 277.702 179.621 280.849 193.238 280.849C194.346 280.849 195.453 280.825 196.56 280.777C196.704 281.543 196.844 282.297 196.985 283.004C197.253 284.332 197.547 285.694 197.857 287.065C197.684 287.07 197.505 287.07 197.313 287.07C191.007 287.07 177.582 286.03 169.688 284.933C159.2 283.468 139.031 279.773 121.76 271.417C92.3003 257.171 68.7243 235.783 49.6699 206.037C44.4371 197.862 36.7003 184.454 29.5603 167.001L29.2619 166.269L29.2195 166.252L29.1891 166.124L28.8491 165.473L29.4963 165.762H29.6283L29.6707 165.839C37.0883 169.143 44.3771 172.149 51.3395 174.781C59.4595 177.85 97.3243 190.501 120.249 194.145C145.631 198.177 167.963 200.221 186.625 200.221C190.096 200.221 193.46 200.145 196.661 200C196.338 201.993 196.04 203.96 195.768 205.901C190.896 206.463 185.825 206.741 180.328 206.741C169.48 206.741 158.979 205.646 149.718 204.679Z" fill="#B9975B"/>
<path d="M601.593 428.377C595.67 428.377 590.862 433.183 590.862 439.113C590.862 445.038 595.67 449.846 601.593 449.846C607.523 449.846 612.329 445.038 612.329 439.113C612.329 433.183 607.523 428.377 601.593 428.377ZM601.593 447.545C596.937 447.545 593.159 443.771 593.159 439.113C593.159 434.458 596.938 430.679 601.593 430.679C606.258 430.679 610.029 434.458 610.029 439.113C610.029 443.771 606.258 447.545 601.593 447.545Z" fill="#010101"/>
<path d="M605.999 436.624C606.002 435.903 605.789 435.198 605.389 434.599C604.99 433.999 604.421 433.532 603.754 433.257C603.313 433.073 602.84 432.979 602.362 432.979L597.184 432.977V445.245H599.49V440.254H601.14L603.464 445.245H606.002L603.583 440.053C604.29 439.799 604.901 439.334 605.333 438.72C605.766 438.106 605.998 437.374 605.999 436.624ZM602.362 437.963H599.49V435.281H602.362C602.709 435.293 603.039 435.44 603.28 435.69C603.522 435.94 603.657 436.274 603.657 436.622C603.657 436.97 603.522 437.304 603.28 437.554C603.039 437.804 602.709 437.951 602.362 437.963Z" fill="#010101"/>
</g>
<defs>
<clipPath id="clip0_2_15000">
<rect width="643.795" height="512" fill="white" transform="translate(0.146484 0.800781)"/>
</clipPath>
</defs>
</svg>
