<svg width="409" height="513" viewBox="0 0 409 513" fill="none" xmlns="http://www.w3.org/2000/svg">
<g clip-path="url(#clip0_2_15163)">
<path d="M0.419678 417.717C100.181 426.44 163.457 454.573 194.248 512.803C299.691 495.713 397.22 428.088 397.22 340.917C397.22 224.78 256.514 206.524 252.762 172.688C311.948 194.139 377.1 171.56 408.191 97.7171C316.247 90.9259 248.945 57.3811 219.849 0.802734C107.077 20.8803 16.8765 93.8563 16.8765 172.688C16.8765 287.832 164.868 318.316 181.448 342.746C100.677 312.119 31.0149 347.023 0.419678 417.717Z" fill="#001425"/>
<path d="M175.415 166.735C162.791 153.909 157.532 143.867 157.532 130.611C157.532 115.452 164.844 108.036 164.844 99.5323C164.844 92.2355 160.26 86.5115 151.476 84.7683C156.69 79.1571 163.754 75.7675 170.329 75.7675C207.964 75.7675 219.077 158.941 297.599 155.955C325.587 153.272 352.029 139.662 368.65 115.811C300.077 106.909 237.477 77.7675 206.891 28.2363C175.159 34.0123 42.1018 79.9275 45.4674 175.897C48.9754 275.976 196.969 303.787 238.367 346.764C271.009 380.651 248.02 414.799 226.978 427.216C194.473 342.68 87.6562 336.666 45.1322 397.688C113.704 406.59 176.304 435.731 206.891 485.262C282.532 469.392 319.022 403.064 305.132 355.223C282.147 276.048 132.9 262.12 93.313 187.959C72.1578 146.233 89.553 101.68 128.229 75.7563C113.052 95.3219 105.787 117.874 106.115 138.979C109.544 142.721 111.011 151.489 111.04 151.667C111.539 154.731 112.439 161.195 110.839 165.156C112.528 169.593 114.698 173.83 117.289 177.892C122.467 179.188 128.287 185.94 128.409 186.078C134.105 192.627 134.992 196.758 135.135 198.33C138.654 201.468 142.431 204.502 146.423 207.452C149.755 207.055 154.825 208.672 159.997 211.959C165.943 215.852 168.907 219.703 169.746 222.597C173.95 225.039 178.193 227.412 182.475 229.716C185.802 228.81 191.27 229.866 196.773 232.678C202.281 235.496 206.345 239.37 207.533 242.619C211.894 244.795 216.287 246.967 220.688 249.146C224.014 248.184 229.536 249.138 235.087 251.964C240.516 254.73 244.486 258.54 245.753 261.76C250.225 264.071 254.669 266.435 259.086 268.851C263.171 268.02 269.686 270.505 273.232 272.612C278.471 275.745 282.074 279.807 283.132 283.098C287.57 285.98 291.863 288.941 295.971 292.003C299.443 291.841 304.549 293.828 309.317 297.889C314.456 302.364 317.098 307.286 317.212 310.712C320.772 314.515 324.033 318.472 326.948 322.604C331.155 323.656 335.4 328.524 337.76 333.408C341.032 340.532 340.602 345.555 339.642 348.147C345.319 365.86 346.85 388.164 337.721 413.824C337.627 414.092 337.507 414.406 337.374 414.738C356.475 393.944 369.392 368.34 368.315 337.602C364.805 237.524 216.813 209.712 175.414 166.735H175.415Z" fill="#96D8D8"/>
<path d="M232.209 177.235C215.297 157.782 204.496 123.306 185.849 109.832C177.488 139.519 194.908 171.997 232.209 177.235Z" fill="#C8102E"/>
<path d="M218.817 456.292C212.719 474.168 206.891 485.262 206.891 485.262C176.305 435.731 113.705 406.59 45.1322 397.688C115.985 362.165 189.341 399.537 218.817 456.292ZM368.649 115.812C297.796 151.333 224.441 113.961 194.965 57.2067C201.063 39.3307 206.891 28.2363 206.891 28.2363C176.927 33.6923 42.0738 79.1211 45.4674 175.897C48.9754 275.976 196.969 303.787 238.367 346.764C271.009 380.651 248.02 414.799 226.978 427.216C224.577 438.101 221.668 447.936 218.817 456.292C234.233 453.607 280.967 428.868 281.274 381.259C281.698 315.643 196.89 298.257 132.609 258.437C79.6978 225.66 69.4274 193.135 66.745 172.549C60.4362 124.12 94.6114 79.8931 144.292 59.0291C137.166 65.1051 131.639 71.0291 128.228 75.7563C113.052 95.3219 105.787 117.874 106.115 138.979C109.544 142.721 111.011 151.49 111.04 151.667C111.539 154.731 112.439 161.195 110.839 165.156C112.528 169.593 114.698 173.83 117.289 177.892C122.467 179.188 128.287 185.94 128.409 186.078C134.105 192.627 134.992 196.759 135.135 198.33C138.654 201.468 142.431 204.502 146.423 207.452C149.755 207.055 154.825 208.672 159.997 211.959C165.943 215.852 168.907 219.703 169.746 222.597C173.95 225.039 178.193 227.412 182.475 229.716C185.802 228.81 191.27 229.866 196.773 232.678C202.281 235.496 206.345 239.37 207.533 242.619C211.894 244.795 216.287 246.966 220.688 249.146C224.014 248.184 229.536 249.139 235.087 251.964C240.516 254.73 244.486 258.54 245.753 261.76C250.249 264.088 254.702 266.448 259.086 268.851C263.171 268.02 269.686 270.505 273.232 272.612C278.471 275.745 282.074 279.807 283.132 283.098C287.57 285.98 291.863 288.941 295.971 292.003C299.443 291.841 304.549 293.828 309.317 297.889C314.456 302.364 317.098 307.286 317.212 310.713C320.772 314.515 324.033 318.472 326.948 322.604C331.155 323.656 335.4 328.524 337.76 333.408C341.032 340.532 340.602 345.555 339.642 348.147C345.319 365.86 346.85 388.164 337.721 413.824C362.137 372.451 359.785 331.375 332.492 296.647C275.463 224.083 131.971 215.413 132.507 132.24C132.635 112.454 140.891 96.7139 151.477 84.7691C156.69 79.1579 163.754 75.7675 170.329 75.7675C207.964 75.7675 219.077 158.942 297.599 155.956C325.587 153.272 352.029 139.663 368.649 115.812Z" fill="#639FB6"/>
<path d="M319.991 490.782V479.982H315.955V477.718H326.564V479.982H322.639V490.782H319.991ZM328.143 490.782V477.718H332.274L334.651 486.714L337.043 477.717H341.176V490.782H338.655V480.365L335.83 490.782H333.439L330.63 480.365V490.782H328.143Z" fill="#001425"/>
</g>
<defs>
<clipPath id="clip0_2_15163">
<rect width="407.771" height="512" fill="white" transform="translate(0.419434 0.800781)"/>
</clipPath>
</defs>
</svg>
