<svg width="468" height="512" viewBox="0 0 468 512" fill="none" xmlns="http://www.w3.org/2000/svg">
<g clip-path="url(#clip0_764_583)">
<path d="M430.455 483.855C391.68 505.743 325.157 512 233.136 512C141.116 512 74.5929 505.743 35.8177 483.855C12.5445 470.749 0.763794 452.881 0.763794 440.07C0.763794 432.774 4.64534 428.604 13.2888 428.604H452.976C461.627 428.604 465.501 432.774 465.501 440.07C465.509 452.881 453.728 470.749 430.455 483.855ZM452.976 144.306H13.2888C4.64534 144.306 0.763794 139.839 0.763794 131.8C0.763794 84.1402 72.5046 0 233.136 0C392.28 0 465.509 84.1402 465.509 131.8C465.509 139.839 461.627 144.306 452.976 144.306Z" fill="#FF8732"/>
<path fill-rule="evenodd" clip-rule="evenodd" d="M318.603 223.987C318.603 245.724 303.836 260.619 280.419 260.619C258.194 260.619 235.673 244.98 235.682 211.337C235.682 176.191 258.203 161 281.324 161C294.449 161 303.244 164.421 309.511 169.039C312.936 171.724 315.177 175.592 315.177 180.659C315.177 187.507 309.807 194.06 301.9 194.06C298.779 194.06 296.739 193.011 294.515 191.868C291.851 190.499 288.922 188.993 283.557 188.993C275.506 188.993 265.061 194.947 265.061 211.329C265.061 226.073 272.664 233.968 283.852 233.968C287.438 233.968 290.567 232.178 290.567 229.501C290.567 227.415 288.775 226.52 285.941 226.52C280.419 226.52 273.113 222.501 273.113 214.158C273.113 204.776 279.971 200.605 288.775 200.605H293.545C310.247 200.605 318.603 210.138 318.603 223.987ZM92.9366 336.872C92.9366 337.463 93.0806 338.806 94.4252 340.892C98.0105 346.398 107.854 358.312 116.21 367.414C122.772 374.559 126.206 380.52 126.206 388.559C126.206 401.513 114.569 413.58 100.7 413.58C92.4963 413.58 84.7414 409.257 78.4745 402.408C69.2227 392.131 59.235 374.71 55.8016 366.52C55.7113 366.338 55.6207 366.129 55.5236 365.904C54.9847 364.657 54.2452 362.947 52.2242 362.947C50.4315 362.947 49.6872 364.282 49.6872 366.072V387.217C49.6872 401.817 41.0358 413.58 25.3735 413.58C9.55925 413.58 1.05984 401.809 1.05984 387.217V295.477C1.05984 280.878 9.56725 269.114 25.3735 269.114C41.0358 269.114 49.6872 280.885 49.6872 295.477V310.373C49.6872 312.307 50.4315 313.498 52.2242 313.498C53.2647 313.498 54.0089 313.202 55.3535 311.859C60.7156 306.641 69.071 293.535 76.0816 282.22C81.3001 273.733 89.055 269.114 97.2579 269.114C110.087 269.114 121.868 279.247 121.868 292.201C121.868 297.26 120.075 303.365 115.753 310.069C110.087 318.852 99.7955 328.529 95.6176 332.405C93.8326 334.043 92.9366 335.234 92.9366 336.872ZM18.2108 259.725H39.2431C59.083 259.725 71.16 246.467 71.16 229.941C71.16 217.092 63.7318 210.961 61.6497 209.242L61.468 209.092L61.439 209.069C60.7045 208.478 59.9793 207.894 59.9793 207.302C59.9793 206.721 60.2529 206.414 60.7274 205.88C60.8602 205.731 61.0092 205.564 61.1719 205.368C64.005 202.092 66.838 196.881 66.838 189.282C66.838 171.413 54.7533 161.88 35.9618 161.88H18.2108C6.43005 161.88 0.763794 168.736 0.763794 177.966V243.638C0.763794 252.876 6.43005 259.725 18.2108 259.725ZM27.0142 187.5C27.0142 185.566 28.2067 184.072 30.7438 184.072H32.6805C39.0911 184.072 41.0359 188.538 41.0359 192.414C41.0359 195.987 39.0991 201.053 32.6805 201.053H30.7438C28.2067 201.053 27.0142 199.567 27.0142 197.624V187.5ZM27.0142 222.35C27.0142 220.415 28.2067 218.922 30.7438 218.922H33.4248C40.5877 218.922 42.6685 223.684 42.6685 228.008C42.6685 231.883 40.5797 237.389 33.4248 237.389H30.7438C28.2067 237.389 27.0142 235.903 27.0142 233.961V222.35ZM422.404 244.382C422.404 253.315 417.186 260.468 407.638 260.468C398.09 260.468 392.872 253.324 392.872 244.398V177.974C392.872 168.736 398.538 161.887 410.319 161.887H427.173C446.117 161.887 461.779 172.612 461.779 191.527C461.779 204.033 456.409 211.929 451.783 215.501C450.439 216.54 450.143 217.587 450.591 218.777C452.528 223.988 455.657 228.159 460.731 234.56C463.412 237.98 465.501 241.704 465.501 246.771C465.501 254.371 458.786 260.476 451.031 260.476C446.261 260.476 441.491 258.39 436.417 251.685C432.391 246.467 428.814 236.19 427.47 228.598C427.173 226.808 426.581 225.77 424.789 225.77C423.3 225.77 422.404 226.665 422.404 228.598V244.382ZM424.492 186.604C421.956 186.604 420.763 188.099 420.763 190.033V200.158C420.763 202.099 421.956 203.586 424.492 203.586H426.581C432.848 203.586 434.785 198.671 434.785 194.947C434.785 191.071 432.848 186.604 426.581 186.604H424.492ZM162.436 269.107C145.733 269.107 136.634 281.613 136.634 297.251V385.419C136.634 401.058 145.733 413.564 162.436 413.564C179.139 413.564 188.238 401.058 188.238 385.419V297.251C188.238 281.621 179.147 269.107 162.436 269.107ZM420.315 326.444H427.622C452.832 326.444 465.357 340.293 465.349 360.239C465.349 391.812 443.124 413.405 408.078 413.405C374.665 413.405 340.811 390.622 340.811 341.923C340.811 290.986 374.673 269.098 409.422 269.098C428.814 269.098 442.531 274.013 451.631 280.718C456.85 284.593 460.131 290.252 460.131 297.548C460.131 307.377 452.08 317.054 440.147 317.054C435.464 317.054 432.418 315.512 429.098 313.831C425.121 311.818 420.751 309.606 412.704 309.606C400.627 309.606 384.965 318.245 384.965 341.923C384.965 363.219 396.45 374.687 413.304 374.687C418.378 374.687 423.148 372.162 423.148 368.286C423.148 365.162 420.315 363.971 416.289 363.971C408.086 363.971 397.05 358.161 397.05 345.95C397.05 332.549 407.189 326.444 420.315 326.444ZM371.248 259.724C379.603 259.724 386.165 254.809 386.165 245.875C386.165 237.084 379.603 232.17 371.248 232.17H357.826C355.289 232.17 354.096 230.684 354.096 228.741V225.912C354.096 223.979 355.289 222.485 357.826 222.485H368.118C375.281 222.485 380.947 218.169 380.947 210.569C380.947 202.977 375.281 198.654 368.118 198.654H357.826C355.289 198.654 354.096 197.168 354.096 195.226V192.845C354.096 190.911 355.289 189.416 357.826 189.416H371.248C379.603 189.416 386.165 184.502 386.165 175.567C386.165 166.777 379.603 161.862 371.248 161.862H343.06C331.28 161.862 325.613 168.711 325.613 177.949V243.621C325.613 252.851 331.28 259.708 343.06 259.708H371.248V259.724ZM152 227.854C152 246.019 139.171 260.467 115.01 260.467C90.8476 260.467 78.1705 246.026 78.1628 227.854V177.669C78.1628 168.735 83.3808 161.583 92.9283 161.583C102.476 161.583 107.847 168.735 107.847 177.669V226.216C107.847 229.788 109.639 233.96 115.01 233.96C120.379 233.96 122.468 229.788 122.468 226.216V177.669C122.468 168.735 127.686 161.583 137.234 161.583C146.782 161.583 152 168.735 152 177.669V227.854ZM219.715 260.468C227.47 260.468 234.185 254.362 234.185 246.763C234.185 241.697 232.096 237.973 229.415 234.552L228.695 233.611C224.665 228.344 221.103 223.688 219.275 218.769C218.827 217.579 219.123 216.532 220.467 215.493C225.093 211.921 230.463 204.026 230.463 191.519C230.463 172.604 214.801 161.88 195.858 161.88H178.995C167.214 161.88 161.548 168.728 161.548 177.966V244.389C161.548 253.324 166.766 260.476 176.314 260.476C185.861 260.476 191.079 253.324 191.079 244.389V228.607C191.079 226.673 191.976 225.778 193.465 225.778C195.257 225.778 195.849 226.817 196.146 228.607C197.49 236.198 201.068 246.475 205.093 251.694C210.167 258.382 214.937 260.468 219.715 260.468ZM195.249 203.578H193.161C190.624 203.578 189.431 202.092 189.431 200.15V190.033C189.431 188.099 190.624 186.605 193.161 186.605H195.249C201.516 186.605 203.452 191.072 203.452 194.947C203.452 198.664 201.516 203.578 195.249 203.578ZM281.756 295.022C281.756 280.574 290.103 269.107 305.469 269.107C320.835 269.107 329.182 280.574 329.182 295.022V387.065C329.182 401.809 320.531 413.573 304.869 413.573C295.769 413.573 287.27 410 279.363 394.657L258.635 354.445C257.594 352.359 256.698 351.616 255.506 351.616C253.865 351.616 252.969 352.815 252.969 355.492V387.656C252.969 402.105 244.621 413.573 229.255 413.573C213.897 413.573 205.541 402.105 205.541 387.656V295.614C205.541 280.869 214.193 269.107 229.855 269.107C239.251 269.107 247.454 272.678 255.361 288.022L276.089 328.234C277.13 330.319 278.027 331.062 279.219 331.062C280.859 331.062 281.756 329.864 281.756 327.187V295.022Z" fill="#D62300"/>
</g>
<defs>
<clipPath id="clip0_764_583">
<rect width="467.2" height="512" fill="white" transform="translate(0.763794)"/>
</clipPath>
</defs>
</svg>
