<svg width="626" height="513" viewBox="0 0 626 513" fill="none" xmlns="http://www.w3.org/2000/svg">
<g clip-path="url(#clip0_876_1814)">
<path d="M454.046 0.0507812L396.706 57.3221L293.505 11.0125L279.301 103.17L187.331 123.098L241.752 155.89L187.006 183.363L233.509 187.397L42.1725 336.234L234.638 233.987L28.1618 391.167L247.944 276.605L13.1783 453.108L271.931 315.239L0.190186 512.051L301.237 347.195L97.0869 512.051L344.803 369.711L340.719 398.406L382.028 375.46L475.346 463.683L525.016 314.466L596.847 309.84L560.302 219.328L625.361 168.41L541.228 135.644L562.547 45.1321L490.94 77.9111L454.046 0.0507812Z" fill="#F9A333"/>
<path d="M551.08 220.643C547.65 303.373 477.815 367.66 395.091 364.236C312.367 360.813 248.081 290.99 251.51 208.273C254.94 125.555 324.757 61.2502 407.462 64.6609C490.167 68.0716 554.509 137.913 551.08 220.643Z" fill="#E66735"/>
<path d="M419.652 343.797C336.947 340.361 272.629 270.519 276.059 187.802C277.515 151.039 292.505 116.11 318.147 89.7266C298.459 102.82 282.155 120.394 270.572 141.006C258.988 161.619 252.456 184.684 251.511 208.31C248.087 291.027 312.367 360.869 395.091 364.267C416.212 365.165 437.283 361.572 456.912 353.726C476.542 345.879 494.284 333.958 508.966 318.749C482.619 336.393 451.333 345.178 419.652 343.828" fill="#BB6130"/>
<path d="M551.148 216.204C551.23 210.893 551.021 205.581 550.525 200.292C541.308 193.746 530.627 189.56 519.417 188.102C517.116 187.815 514.909 187.684 512.651 187.516C511.208 177.673 508.977 167.963 505.98 158.478C507.538 158.578 509.097 158.646 510.675 158.752C521.219 159.538 531.607 160.729 541.851 162.225C540.411 158.409 538.821 154.668 537.113 151.002C525.577 149.249 513.874 147.884 502.014 146.999H501.902C498.099 137.354 493.459 128.061 488.034 119.226C495.691 117.649 502.525 114.519 508.062 109.287C505.225 106.425 502.276 103.676 499.221 101.013C494.407 105.446 488.165 107.791 481.02 108.739C479.929 107.211 478.837 105.671 477.696 104.193C467.807 91.2681 456.052 79.8848 442.816 70.4165C431.303 67.0955 419.434 65.1675 407.462 64.6738C406.795 64.6738 406.127 64.6738 405.448 64.6426C428.219 73.5965 448.571 88.6423 464.926 108.801C449.338 107.298 431.349 102.067 413.547 96.8542C408.297 95.2891 403.147 93.7739 398.152 92.4022C367.874 84.0282 344.585 82.6938 327.107 84.209C314.152 91.605 302.37 100.887 292.146 111.75C311.014 103.869 349.099 90.4256 395.29 103.214C400.198 104.574 405.304 106.058 410.48 107.579C430.9 113.59 453.821 120.28 473.606 120.492C479.059 128.621 483.779 137.218 487.71 146.182C483.819 145.999 479.947 145.874 476.094 145.808C379.833 144.143 297.303 172.95 251.473 218.91C251.706 227.9 252.749 236.851 254.591 245.654C267.516 227.104 286.64 210.362 311.332 196.47C357.922 170.281 419.752 156.501 485.441 157.636C487.704 157.673 489.98 157.767 492.237 157.848C495.581 167.406 498.059 177.245 499.638 187.247C457.332 189.043 429.896 215.45 398.414 243.552C370.118 268.849 335.65 294.046 285.144 309.216C289.902 315.051 295.092 320.52 300.67 325.578C348.226 306.435 379.858 276.612 406.52 252.743C436.83 225.645 462.844 199.656 501.06 198.371C502.067 209.08 502.086 219.858 501.116 230.57C495.972 289.301 461.977 339.065 415.58 363.657C427.265 362.566 438.778 360.084 449.874 356.262C453.616 353.188 457.22 349.958 460.718 346.51C491.121 316.58 510.014 275.77 513.867 231.68C514.826 220.776 514.847 209.809 513.93 198.901C515.85 199.113 517.733 199.269 519.697 199.606C532.717 201.732 543.061 208.298 551.136 216.204" fill="#2A3236"/>
</g>
<defs>
<clipPath id="clip0_876_1814">
<rect width="625.171" height="512" fill="white" transform="translate(0.190186 0.0507812)"/>
</clipPath>
</defs>
</svg>
