<svg width="512" height="512" viewBox="0 0 512 512" fill="none" xmlns="http://www.w3.org/2000/svg">
<g clip-path="url(#clip0_731_4)">
<path d="M3.47876 3.42471V508.587H508.644L508.641 3.42471H3.47876Z" fill="white"/>
<path fill-rule="evenodd" clip-rule="evenodd" d="M3.47876 508.587V3.42471H508.638L508.641 508.587H3.47876ZM464.765 261.851C469.188 248.75 474.197 229.14 475.022 213.402C475.651 201.529 474.052 184.9 462.854 173.084C453.919 163.644 440.269 158.879 422.28 158.879C399.556 158.879 381.247 166.901 367.849 182.764L364.314 186.934L361.964 182.002C360.047 177.983 358.676 176.336 356.588 173.98C347.432 163.621 332.077 158.37 310.952 158.373C291.598 158.373 274.116 164.173 261.72 174.706L258.583 177.371L256.421 173.852C250.567 164.338 235.975 158.18 219.258 158.18C195.206 158.185 170.937 161.451 156.297 185.051L150.229 194.79L149.754 183.319C149.385 174.444 148.574 170.758 144.447 166.389C139.907 161.573 132.267 159.232 121.094 159.241C104.687 159.241 92.3563 166.394 83.3877 181.126C69.5836 203.176 36.2183 275.703 36.955 310.175C37.4386 332.547 52.3662 346.24 76.8996 346.806C97.1179 347.295 113.189 342.107 123.398 331.804L126.003 329.17L128.506 331.878C137.682 341.84 151.632 347.329 167.791 347.329C188.368 347.329 205.963 340.935 216.07 329.776L218.829 326.736L221.423 329.924C230.884 341.547 245.504 347.639 263.7 347.566C287.431 347.46 309.595 336.555 324.503 317.665L328.411 312.713L330.593 318.638C339.78 343.62 364.681 347.344 378.724 347.352C426.411 347.352 447.004 314.633 464.765 261.851Z" fill="#FFED00"/>
<path fill-rule="evenodd" clip-rule="evenodd" d="M3.47876 508.587V3.42471H508.638L508.641 508.587H3.47876ZM467.928 298.832C474.53 285.224 486.952 251.167 489.247 232.778L489.273 232.576C492.072 210.128 494.72 188.885 479.573 167.777C468.804 152.775 450.455 142.709 422.537 142.706C401.434 142.706 382.586 148.423 367.516 160.956C354.611 148.184 336.102 142.387 311.191 142.393C291.698 142.393 275.337 146.85 261.089 155.403C250.746 147.186 238.606 142.052 219.264 142.052C201.731 142.049 177.115 142.962 158.544 158.729C154.251 149.971 145.525 143.093 121.452 143.093C99.2768 143.093 81.1861 153.583 69.322 173.059C53.4812 198.36 19.8571 271.425 20.7161 311.339C21.3561 341.385 43.8869 362.084 76.5241 362.86C96.1365 363.318 112.839 359.12 125.585 350.66C137.111 358.966 151.839 363.452 168.206 363.452C187.793 363.455 205.463 358.312 218.564 349.079C230.434 358.488 246.007 363.574 263.626 363.574C286.484 363.583 307.723 355.689 324.881 340.673C336.583 355.595 356.631 363.352 380.976 363.355C426.553 363.358 450.227 335.326 467.928 298.832Z" fill="#E3000B"/>
<path fill-rule="evenodd" clip-rule="evenodd" d="M0 512V0H512L511.991 511.991L0 512ZM504.946 504.949L504.951 7.04853H7.04284L7.05422 504.946L504.946 504.949Z" fill="black"/>
<path fill-rule="evenodd" clip-rule="evenodd" d="M476.772 154.456C476.769 152.845 477.083 151.25 477.698 149.76C478.313 148.271 479.215 146.918 480.354 145.779C481.493 144.639 482.845 143.735 484.333 143.119C485.822 142.503 487.417 142.187 489.028 142.188C490.64 142.185 492.237 142.5 493.727 143.116C495.218 143.731 496.572 144.635 497.712 145.774C498.852 146.914 499.756 148.268 500.372 149.757C500.988 151.247 501.304 152.844 501.302 154.456C501.305 156.068 500.99 157.665 500.374 159.155C499.758 160.645 498.854 161.999 497.713 163.139C496.573 164.278 495.219 165.182 493.728 165.796C492.238 166.411 490.641 166.726 489.028 166.721C487.417 166.724 485.822 166.409 484.333 165.793C482.844 165.177 481.491 164.274 480.353 163.134C479.214 161.995 478.311 160.642 477.697 159.152C477.082 157.663 476.768 156.067 476.772 154.456ZM489.034 144.623C494.49 144.626 498.924 149.018 498.91 154.473C498.924 159.929 494.473 164.335 489.034 164.335C487.741 164.333 486.462 164.076 485.268 163.58C484.075 163.083 482.991 162.356 482.079 161.44C481.167 160.524 480.444 159.437 479.952 158.242C479.46 157.047 479.209 155.766 479.212 154.473C479.206 153.181 479.456 151.899 479.948 150.704C480.439 149.508 481.162 148.421 482.075 147.506C482.987 146.59 484.072 145.864 485.266 145.369C486.461 144.875 487.741 144.621 489.034 144.623ZM493.81 158.305L495.275 160.865L492.097 160.885L491.082 158.808C490.629 157.899 490.046 157.061 489.35 156.322C488.849 155.802 488.391 155.671 487.262 155.671L486.795 155.674L486.79 160.879H484.17V148.173H490.499C493.227 148.173 494.507 149.695 494.507 151.708C494.512 153.628 493.215 155.008 491.071 155.264L491.076 155.335C492.166 155.713 492.527 156.069 493.81 158.305ZM486.787 150.147V153.637H489.441C491.216 153.637 491.802 152.772 491.776 151.873C491.776 150.753 490.886 150.138 489.156 150.138L486.787 150.147ZM365.13 180.48C377.498 165.831 395.799 155.338 422.263 155.338C468.073 155.338 480.057 185.29 478.555 213.592C477.665 230.602 472.206 250.866 468.127 262.986C450.008 316.834 428.248 350.885 378.726 350.879C356.127 350.885 335.445 342.067 327.296 319.852C312.411 338.688 289.661 350.982 263.723 351.11C243.897 351.206 228.48 344.201 218.681 332.166C207.047 345.006 187.361 350.885 167.794 350.891C150.215 350.879 135.538 344.755 125.904 334.293C115.169 345.119 98.3011 350.865 76.8171 350.362C49.2971 349.702 33.9228 333.19 33.4165 310.269C32.6599 274.788 66.4519 201.537 80.3812 179.297C89.9954 163.519 103.35 155.773 121.085 155.765C130.822 155.773 140.82 157.466 147.001 164.014C152.084 169.39 152.9 174.168 153.276 183.214C168.863 158.097 195.135 154.684 219.238 154.689C237.682 154.689 252.991 161.593 259.413 172.029C271.775 161.522 289.579 154.854 310.935 154.854C332.794 154.857 349.079 160.191 359.216 171.659C361.452 174.177 363.042 176.1 365.13 180.48ZM123.989 304.114C124.803 295.535 118.377 286.271 92.7403 290.719C95.286 285.016 99.072 277.2 103.37 268.325C117.143 239.886 136.175 200.587 136.533 185.213C136.727 177.633 133.672 171.312 121.378 171.318C108.39 171.312 100.244 176.745 93.5708 187.708C79.0983 210.819 48.3641 280.536 49.0098 310.67C49.3739 327.896 62.7285 334.694 77.568 335.041C98.0195 335.516 121.577 329.774 123.992 304.111L123.989 304.114ZM176.185 267.051C174.478 271.642 171.27 281.256 168.678 291.43C177.092 289.331 183.393 287.878 194.193 288.128C206.507 288.429 214.386 293.527 214.38 303.716C214.38 328.388 187.093 335.636 168.186 335.642C147.405 335.642 129.149 323.823 129.149 301.099C129.149 274.458 143.588 234.061 157.138 207.167C173.773 174.126 190.78 169.737 220.058 169.737C232.932 169.737 247.751 175.232 247.751 187.383C247.751 204.228 233.506 210.651 219.355 211.465C213.305 211.812 204.012 212.144 198.454 211.746C198.454 211.746 193.729 218.928 188.737 231.7C214.929 228.014 226.045 233.961 221.625 249.108C215.64 269.585 197.897 270.936 176.182 267.048L176.185 267.051ZM289.86 212.682C293.316 207.838 297.938 203.352 305.03 203.352C313.719 203.352 312.878 207.949 310.815 213.823C304.959 230.548 322.645 230.989 326.963 230.647C342.403 229.444 350.911 219.469 353.004 202.476C355.871 179.339 336.378 170.456 311.669 170.456C270.481 170.456 254.313 195.647 238.891 231.657C231.646 248.573 222.521 277.481 222.524 295.89C222.521 321.746 238.254 335.767 263.609 335.767C300.635 335.767 326.798 306.241 334.273 269.454C336.575 258.133 339.41 236.888 310.653 238.071C296.055 238.674 287.249 241.894 282.607 256.811C277.828 272.176 295.159 272.594 295.159 272.594C291.672 288.481 281.463 298.112 272.367 298.121C266.689 298.121 261.524 295.657 263.253 283.642C265.822 266.075 282.274 223.346 289.86 212.682ZM460.575 233.751C456.206 255.425 446.421 281.082 435.789 300.2C418.438 331.386 397.392 335.755 378.991 335.522C360.602 335.303 339.868 328.522 339.712 300.14C339.601 279.774 348.382 251.011 355.843 232.178C368.856 198.016 382.128 170.155 424.138 170.652C473.114 171.224 464.378 214.787 460.575 233.751ZM399.141 289.323C405.951 277.788 425.119 225.471 425.643 212.389C425.796 208.577 425.168 204.14 419.024 204.069C414.811 204.009 411.147 204.826 407.854 209.914C400.452 219.534 378.786 278.707 379.153 290.512C379.287 294.756 381.656 298.462 386.867 298.462C392.869 298.468 396.194 294.337 399.141 289.323Z" fill="black"/>
</g>
<defs>
<clipPath id="clip0_731_4">
<rect width="512" height="512" fill="white"/>
</clipPath>
</defs>
</svg>
