<svg width="512" height="513" viewBox="0 0 512 513" fill="none" xmlns="http://www.w3.org/2000/svg">
<g clip-path="url(#clip0_781_577)">
<path d="M485.433 9.47998H26.5433C16.4544 9.47998 8.31797 18.2929 8.96889 28.4115L45.4197 488.642C46.0705 497.782 53.8817 504.963 62.9945 504.963H448.982C458.096 504.963 465.581 497.782 466.557 488.642L503.008 28.4115C503.66 17.9665 495.523 9.47998 485.433 9.47998Z" fill="white"/>
<path d="M132.317 12.7412H8.96924L31.751 360.363H132.317V12.7412Z" fill="#DD0E20"/>
<path d="M500.407 13.0678L379.337 9.80371V360.365H476.648L500.407 13.0678Z" fill="#DD0E20"/>
<path d="M338.328 156.035C336.375 167.132 333.772 172.682 332.47 179.536C330.843 186.717 327.914 197.162 324.984 197.162C322.055 198.141 320.754 194.551 318.801 197.162C317.499 198.794 316.848 200.753 315.872 202.058C315.221 203.037 314.57 204.669 314.57 205.975C314.57 207.933 314.57 214.461 312.617 222.948C310.013 235.678 305.132 245.143 299.925 251.019C290.161 262.117 281.048 264.075 280.071 264.728C278.77 265.381 276.492 265.054 275.841 264.728C275.19 264.401 274.539 263.422 273.237 262.443C271.935 261.137 271.61 263.096 271.61 263.422C271.61 263.749 272.261 269.298 270.959 271.582C268.03 276.805 265.101 277.131 263.799 283.66C263.148 285.944 263.799 289.208 261.195 287.576C255.012 283.986 245.899 274.194 243.946 264.401C243.295 261.464 243.946 258.2 245.574 252.651C246.55 249.387 247.201 245.797 247.201 243.838C247.201 240.247 245.899 236.983 247.201 236.657C249.805 236.004 251.106 242.859 252.408 242.206C254.686 240.9 253.059 233.719 253.059 233.719C253.059 233.719 252.083 231.761 248.503 230.782C246.224 230.129 245.574 228.497 247.852 227.518C249.479 226.538 251.432 225.559 254.035 225.886C269.657 228.17 274.214 224.906 280.397 223.274C281.699 222.948 282.35 222.948 283.326 223.274C284.302 223.601 286.906 225.233 287.557 226.538C288.208 227.844 287.557 233.066 288.208 236.983C289.184 240.9 291.788 237.31 292.439 235.678C293.09 234.046 293.741 230.455 294.066 229.476C294.066 228.497 295.043 224.58 296.344 223.274C299.274 220.989 300.25 217.726 300.575 216.42C300.901 215.114 301.877 211.524 301.551 205.975C301.551 200.426 300.575 199.773 298.948 198.794C297.646 197.488 296.019 197.815 292.765 194.877C289.835 192.266 287.231 187.696 285.279 184.759C283.001 181.821 279.421 178.883 275.515 177.904C271.285 176.925 273.237 180.842 273.237 181.821C273.563 182.474 274.213 186.064 272.911 187.043C271.61 188.022 263.148 193.572 255.988 191.939C247.201 189.655 244.272 184.759 243.946 179.862C243.946 176.598 245.574 173.334 247.526 169.417C248.828 167.132 249.153 163.542 249.479 159.951C249.805 157.014 250.781 152.771 251.106 151.465C251.432 150.486 252.734 149.18 255.012 149.507C257.29 149.507 258.917 150.812 259.243 152.771C260.87 159.951 263.148 161.584 264.125 162.236C265.101 162.889 266.728 161.584 267.054 161.257C267.704 160.931 269.332 159.299 268.681 158.32C268.03 157.014 267.379 156.035 267.379 155.382C267.054 154.076 268.681 154.076 269.006 154.403C271.61 156.688 274.214 156.688 279.095 157.667C287.557 158.972 288.533 156.035 294.391 157.014C295.043 157.014 296.67 157.667 296.995 158.646C297.321 159.299 297.972 160.931 298.622 161.257C299.273 161.584 300.901 161.584 301.877 161.91C303.179 162.236 305.132 161.91 304.806 164.195C303.83 170.07 296.995 172.028 293.741 172.355C292.439 172.682 291.788 172.682 291.462 173.008C290.812 173.661 290.812 175.619 291.462 176.598C292.113 177.578 294.717 177.578 298.297 176.925C301.877 176.272 305.457 174.313 308.386 170.07C311.315 165.501 312.942 155.055 313.268 153.097C313.594 151.139 314.244 147.875 315.546 147.222C316.523 146.569 321.404 144.937 322.055 145.263C323.032 145.263 323.357 145.916 324.008 147.548C324.333 149.507 323.683 160.931 323.683 162.563C323.683 164.521 324.659 164.521 324.984 164.195C325.961 163.542 329.215 161.584 329.866 159.299C330.517 157.667 328.89 155.055 329.541 152.771C330.843 149.18 331.819 147.874 332.47 148.201C338.328 147.874 339.304 149.833 338.328 156.035ZM270.633 217.399C269.006 218.052 263.799 219.357 261.195 219.357C258.592 219.357 250.781 220.01 249.479 220.01C247.852 220.01 245.574 219.031 243.946 217.399C243.621 217.072 243.295 215.767 244.597 215.767C247.201 215.767 251.757 214.135 267.704 215.767C269.332 215.767 270.308 216.093 270.633 216.093C271.285 216.093 272.586 216.746 270.633 217.399ZM231.904 210.871C224.094 210.871 220.839 207.933 220.188 206.954C219.537 205.975 220.513 205.322 221.49 205.322C223.442 204.669 226.372 203.037 227.673 202.058C228.975 201.079 232.555 198.794 234.508 197.488C235.485 196.836 240.366 194.877 243.295 196.836C247.526 199.773 251.757 201.732 258.917 201.405C263.799 201.079 263.473 197.162 267.379 196.183C270.959 195.203 271.61 194.224 272.586 193.572C273.888 193.245 275.19 192.918 276.492 194.224C278.445 196.183 279.095 197.488 281.374 200.099C284.302 203.69 287.883 205.322 288.859 205.322C289.835 205.649 290.812 206.301 290.812 206.628C290.812 206.954 290.486 207.933 287.231 208.912C276.817 211.85 265.752 209.892 259.894 207.607C256.965 206.301 254.035 205.975 250.781 207.607C247.852 209.565 239.064 210.871 231.904 210.871ZM228.324 253.63C222.466 253.956 207.17 244.491 200.335 218.052C198.708 211.197 202.939 205.649 205.543 204.669C207.17 204.016 207.821 204.016 208.472 203.69C209.122 203.69 211.726 203.69 211.726 206.628C211.726 209.239 213.679 229.476 218.886 236.983C220.188 238.942 221.49 238.942 222.141 237.31C222.792 235.678 223.768 233.719 223.768 233.066C224.094 232.414 226.046 229.476 226.372 231.761C227.673 236.657 230.602 246.449 231.579 249.06C233.857 253.63 230.602 253.63 228.324 253.63ZM197.406 174.966C197.081 173.334 197.732 170.397 201.962 173.334C202.614 173.661 204.566 174.64 206.844 175.293C208.146 175.619 209.122 174.966 209.448 174.313C209.774 173.334 211.075 171.376 209.122 170.397C207.17 169.417 202.614 168.765 200.01 162.236C199.684 160.931 200.335 159.625 200.986 159.299C201.637 158.972 202.614 158.972 203.59 159.951C204.566 160.605 206.193 162.563 207.821 162.563C209.448 162.563 209.448 161.91 209.774 161.584C211.075 160.278 214.655 154.729 222.141 155.709C225.395 156.035 227.999 156.688 229.301 157.014C229.952 157.014 232.23 157.014 234.183 156.688C236.461 156.361 239.715 155.709 238.088 157.34C236.786 158.972 235.484 159.625 236.786 161.257C236.786 161.257 236.786 161.584 237.112 161.584C238.088 163.216 238.088 165.174 237.112 166.48V166.806C235.484 169.091 231.904 171.376 225.07 172.028C221.815 172.355 221.49 172.028 221.49 173.987C221.49 174.64 221.49 174.966 221.49 175.619C221.815 176.598 222.141 176.925 224.419 176.925C226.046 176.925 228.975 176.598 228.975 176.598C229.626 176.272 230.602 176.925 229.952 177.578L229.626 178.23C227.999 180.189 227.673 182.147 227.348 183.453C227.348 184.432 226.697 185.411 225.721 185.738C224.744 186.391 220.513 187.043 217.259 189.981C214.004 192.592 207.17 194.877 204.241 191.613C200.986 188.022 198.708 180.515 197.406 174.966ZM195.454 141.673C194.477 141.673 193.826 141.346 192.85 141.02C191.548 140.694 190.897 141.02 190.571 140.367C190.246 139.715 190.246 139.062 190.897 138.735C191.548 138.409 192.199 138.735 192.85 138.409C194.152 138.082 195.779 136.45 197.081 138.409C197.406 139.715 196.755 141.673 195.454 141.673ZM184.063 183.779C181.133 181.821 181.133 179.209 180.482 176.598C178.855 171.049 177.228 164.521 175.601 158.972C174.624 155.709 174.624 147.875 178.855 147.875C181.133 147.875 182.761 148.528 183.737 150.812C185.364 155.709 182.435 154.729 183.086 160.605C183.737 164.521 184.388 168.438 185.69 175.293C186.341 178.557 187.317 186.064 184.388 184.106M175.275 106.748C176.903 102.178 179.832 98.5872 182.11 95.6496C184.063 93.0384 183.086 89.7745 182.11 87.1633C181.459 84.5521 179.832 81.6141 179.506 80.9615C179.181 80.3088 179.181 79.9824 179.506 79.6556C179.506 79.6556 179.832 79.6556 179.832 79.3293L183.411 79.0029C193.826 77.6976 202.939 74.1069 205.868 72.4747C207.17 71.822 208.797 71.1693 210.099 70.5166C211.726 69.8635 213.679 69.2108 215.306 69.2108C216.608 68.8845 218.235 68.8845 219.537 68.5581C221.49 68.2318 224.744 69.8635 224.094 70.1899C222.466 71.1693 214.33 73.1278 207.17 81.6141C202.939 86.8365 201.962 90.1009 200.335 92.3857C198.708 94.6706 197.732 95.3233 195.454 97.2818C194.477 98.2608 192.199 99.893 191.223 102.831C190.246 105.768 186.341 115.887 185.69 132.207C185.69 134.165 185.364 136.124 183.411 136.777C181.784 137.43 180.808 138.409 180.482 137.43C179.506 133.839 177.228 126.005 176.577 121.109C176.251 119.477 175.926 118.172 175.601 116.54C174.95 112.296 174.299 108.706 175.275 106.748ZM206.844 146.243C204.892 147.548 203.264 148.854 201.637 149.833C200.01 150.812 197.406 149.833 198.057 147.548C198.383 146.243 200.01 143.305 202.939 142.978C203.264 142.978 204.566 142.652 205.868 142.652C207.17 142.652 208.797 142.326 209.448 142.326C211.401 142.326 211.726 143.958 210.424 144.611C209.448 144.611 208.146 145.59 206.844 146.243ZM209.448 149.833C210.099 149.507 210.099 149.507 211.726 148.528C213.028 147.875 214.33 146.895 215.632 146.243C218.235 144.611 222.792 142.978 225.07 142.978C226.697 142.978 228.975 143.631 230.602 145.263C231.904 146.895 232.555 148.528 230.602 148.201C228.65 147.874 226.697 147.222 223.117 148.201C219.212 149.18 216.608 150.486 214.655 151.465C212.703 152.444 210.75 152.444 210.099 152.444C209.448 152.118 207.495 151.139 209.448 149.833ZM238.739 185.085C239.064 186.064 239.39 187.37 239.064 188.022C239.064 188.675 236.461 189.655 234.183 186.39C232.23 183.126 233.206 179.209 234.183 177.904C236.135 175.619 239.064 177.251 238.739 178.23C237.762 181.168 238.414 184.106 238.739 185.085ZM302.203 154.076C301.551 154.403 298.622 153.424 297.646 153.097C296.019 152.118 294.717 151.465 292.765 149.507C291.462 148.201 288.534 147.548 286.255 147.875C284.302 147.875 282.35 148.528 281.048 148.854C279.746 149.18 279.421 147.875 280.071 147.222C280.397 146.569 282.675 144.937 286.906 143.631C287.557 143.305 288.859 143.631 289.51 143.631C291.462 143.958 293.741 144.937 295.043 146.569C296.67 148.201 299.924 150.812 301.551 152.118C302.203 152.771 304.156 153.097 302.203 154.076ZM300.25 146.569C300.25 146.569 297.646 144.611 296.67 143.305C296.344 142.652 296.344 141.999 297.646 141.999C301.877 141.999 305.457 141.999 307.41 143.305C308.711 144.284 308.712 146.895 308.061 148.201C307.41 149.833 305.782 149.507 304.806 149.18C304.155 149.18 300.25 146.569 300.25 146.569ZM321.079 140.694C320.428 141.346 319.777 141.02 318.475 141.346C317.499 141.673 316.848 141.999 315.872 141.999C314.57 141.999 313.594 140.041 314.57 139.062C315.872 137.43 317.499 138.735 318.801 139.062C319.452 139.062 320.102 139.062 320.754 139.062C321.404 139.388 321.404 139.715 321.079 140.694ZM202.288 60.7241C202.939 59.7451 204.566 58.4397 205.868 57.1339C207.495 55.828 215.306 49.9529 222.792 47.9944C224.094 47.6681 224.419 47.3417 225.395 47.0154C226.372 46.6891 227.348 44.4042 225.07 44.0774C222.792 43.7511 221.815 43.7511 220.513 44.0774C219.212 44.0774 218.561 43.4247 219.537 42.4457C220.513 41.4662 222.141 40.4872 225.07 39.1814C231.579 36.5702 242.97 35.2648 248.503 34.6116C255.663 33.959 256.313 33.959 260.87 34.2853C265.101 34.6116 268.355 35.2648 269.983 35.5911C278.119 36.8965 287.231 40.8135 295.693 45.3832C299.924 47.9944 304.155 50.932 308.061 53.87C319.777 63.0089 333.446 80.6351 331.493 117.845C331.168 122.088 330.843 124.7 330.517 125.679C330.192 126.658 328.89 128.617 327.914 126.005C325.31 118.172 322.381 104.136 315.221 93.0384C314.244 91.4062 312.617 91.733 312.942 93.3648C312.942 94.0179 313.268 101.199 313.268 102.504C311.966 111.644 314.895 108.053 319.126 117.845C320.428 120.783 322.055 126.984 322.381 130.575C322.381 131.554 322.706 132.534 322.706 133.839C322.706 135.145 322.055 135.145 322.055 135.145C319.126 135.145 314.244 133.839 311.641 133.839C308.711 133.839 287.883 133.513 280.071 134.165C272.261 134.818 268.03 137.43 263.473 141.346C262.823 141.999 261.846 142.652 261.195 142.652C260.87 142.652 260.544 142.978 260.219 142.652C259.894 142.652 259.243 142.326 258.266 142.326C256.313 141.999 254.035 141.673 252.082 142.326C250.13 142.978 249.479 143.305 247.201 142.326C244.272 140.694 240.041 133.839 224.419 133.839C215.632 133.839 204.241 133.513 197.732 133.839C195.454 133.839 194.477 134.165 193.826 134.165C193.826 133.839 193.826 133.513 193.826 133.513C193.826 121.109 201.637 124.047 202.614 120.783C204.892 112.949 205.543 93.6911 219.212 81.9405C225.721 76.3917 229.301 76.0654 235.484 76.0654C241.993 76.0654 248.503 77.6976 251.757 79.3293C254.361 80.6351 255.663 81.6141 256.639 80.6351C257.615 79.9824 260.544 77.3708 261.521 76.3917C262.823 75.4127 262.172 74.1069 261.195 73.1278C260.219 72.1484 250.455 59.7451 235.159 57.4602C231.579 56.8075 229.301 56.4812 226.046 56.4812C224.419 56.4812 222.792 56.4812 218.886 56.8075C213.028 57.4602 205.543 60.7241 200.661 62.6826C200.986 62.6826 201.962 61.0509 202.288 60.7241ZM197.406 233.066C197.406 239.268 201.312 256.241 222.466 272.235C231.254 278.764 235.484 281.701 236.461 282.68C237.112 283.006 233.206 283.006 232.23 283.006C230.602 283.006 224.744 282.68 220.513 283.333C216.282 283.986 216.934 284.965 216.608 287.903C216.282 290.187 216.608 294.104 216.608 297.042C216.608 300.306 216.282 302.591 217.584 303.896C218.886 305.529 219.863 305.529 225.395 305.202C230.602 304.876 245.574 304.876 247.201 304.549C249.479 304.223 249.153 304.876 247.852 307.814C245.574 312.71 238.088 334.905 226.697 356.121C225.07 359.059 229.626 357.754 233.532 359.386C240.366 362.65 240.366 363.629 241.993 360.038C243.946 356.121 254.035 332.62 255.663 325.113C255.988 324.134 256.313 323.481 256.313 324.787C256.313 325.766 256.639 355.795 255.663 365.261C255.663 365.914 255.663 366.24 255.988 366.567C256.639 367.219 257.29 367.219 257.941 367.546C261.521 366.24 265.426 365.587 269.006 366.24C269.332 366.24 269.657 366.24 269.983 365.914C270.308 365.914 270.308 365.587 270.308 365.261C270.633 364.608 270.633 364.282 270.959 363.629C271.285 362.976 271.285 361.997 271.285 361.344C271.285 361.017 271.285 360.365 271.285 360.038C271.285 359.386 271.285 358.733 271.285 358.08C271.285 357.427 271.285 356.448 271.285 355.795C271.285 354.816 271.285 354.163 271.285 353.184C271.285 352.205 271.285 351.225 271.285 350.246C271.285 349.267 271.285 349.593 271.285 348.614C271.285 347.635 271.285 346.329 271.285 345.35C271.285 344.044 271.285 343.065 270.959 341.76C270.959 340.454 270.959 339.148 270.633 338.169C270.633 336.863 270.308 335.558 270.308 334.252C270.308 332.946 269.983 331.641 269.983 330.335C269.983 329.03 269.657 327.724 269.657 326.419C269.657 325.113 269.332 323.808 269.006 322.502C268.681 321.196 268.681 319.89 268.355 318.585C268.03 317.279 268.03 316.953 267.704 315.647C267.379 314.342 267.054 313.362 267.054 312.057C266.728 311.077 266.403 309.772 266.077 308.793C265.752 307.814 265.426 307.161 265.101 306.181C265.101 306.181 264.775 304.876 264.775 304.549C264.775 304.223 265.426 304.549 266.077 304.223H266.403C270.308 303.57 276.817 303.897 278.445 304.223C280.071 304.223 287.557 304.876 289.51 305.202C291.462 305.529 294.066 305.855 294.066 299.653C294.066 298.021 294.066 297.042 294.066 295.41C294.066 295.083 294.066 295.083 294.066 294.757C294.066 294.431 294.066 294.104 294.066 293.452C294.066 293.125 294.066 293.125 294.066 292.799C294.066 292.472 294.066 292.472 294.066 292.146C294.066 291.82 294.066 291.82 294.066 291.493C294.066 291.167 294.066 290.841 294.066 290.514V290.187C294.066 289.861 294.066 289.861 294.066 289.535V289.208C294.066 288.882 294.066 288.882 294.066 288.882C294.066 288.556 294.066 288.556 294.066 288.229C294.066 286.597 294.066 283.66 290.812 283.006C287.557 282.027 281.373 282.027 276.166 282.354C275.515 282.354 275.19 282.354 275.515 282.027C276.817 281.048 284.302 276.805 293.415 268.971C303.179 260.158 307.735 255.589 310.664 249.06C310.664 249.06 321.404 228.17 320.754 210.545C320.754 206.954 321.079 207.28 323.357 207.28C324.008 207.28 326.612 207.28 327.914 206.301C332.47 205.322 336.375 189.655 336.375 189.655C336.375 189.655 343.21 166.153 344.837 156.361C346.464 147.875 345.813 142.652 340.606 140.367L339.63 139.715C339.304 139.388 338.979 139.062 339.304 138.735C339.304 138.409 339.63 138.082 339.63 137.756C342.234 128.943 346.79 117.519 345.813 112.949C345.488 111.644 344.512 111.317 344.186 110.991C343.535 110.665 341.582 108.38 340.932 106.748C340.932 106.421 340.932 106.421 340.932 106.095C339.63 89.4482 333.446 68.2318 315.872 49.9529C315.872 49.9529 314.57 48.9735 313.919 48.3208C312.292 47.0154 310.339 45.3832 308.386 43.4247C303.83 39.8345 299.924 37.2233 292.113 33.3063C291.462 32.9799 285.605 30.3687 277.142 28.0839C276.492 27.7575 275.515 27.7575 274.864 27.4307C273.563 27.1044 271.61 26.778 269.332 26.4517C264.125 25.4727 258.266 25.1459 252.082 25.4727C251.432 25.4727 250.455 25.4727 250.13 25.4727C249.805 25.4727 249.479 25.4727 249.153 25.4727C248.828 25.4727 248.177 25.4727 247.852 25.4727C246.55 25.4727 244.922 25.799 242.97 26.1254C240.041 26.4517 237.112 27.1044 235.159 27.4307C232.881 28.0839 230.277 28.4102 226.372 29.7156C224.744 30.0424 223.442 30.6951 221.815 31.0214C221.49 31.0214 220.839 31.3478 220.513 31.3478C218.886 32.0004 217.259 32.3268 215.632 32.9799C214.33 33.3063 209.448 35.5911 208.472 35.9175C207.821 36.2438 207.17 36.5702 206.519 36.8965C202.939 37.876 202.288 40.1608 201.962 41.1399C201.962 41.7926 201.637 42.4457 201.312 43.0984C196.104 53.87 184.388 54.849 179.506 55.1753C178.204 55.1753 177.228 55.5017 177.553 56.4812C178.53 59.7451 184.063 65.2938 187.642 66.5996C187.642 67.2523 184.713 67.5787 184.063 67.905C182.761 68.2318 176.903 67.905 176.577 67.905C170.068 68.5581 168.115 72.8015 167.464 75.0864C167.139 75.739 167.464 76.3917 167.79 77.0444C169.091 79.3293 170.719 80.9614 171.695 83.899C172.021 84.5521 172.346 85.5312 172.346 86.5102C172.346 87.816 173.322 89.1214 172.346 91.4062C170.068 95.6496 164.535 96.9554 163.884 101.199C162.583 107.074 164.861 111.317 167.139 121.109C168.766 127.964 170.393 135.145 171.695 138.082C171.695 138.409 171.695 138.409 171.37 138.409C171.044 138.409 170.068 138.735 169.743 138.735C166.488 140.041 165.512 142.652 165.186 147.548C164.535 158.32 172.346 175.293 174.95 189.655C175.926 194.551 177.879 202.384 181.784 205.322C182.761 205.975 184.388 206.628 185.69 206.628C188.619 207.28 189.921 205.322 189.921 208.26C189.921 208.912 190.246 210.545 190.246 211.524C191.873 222.948 197.406 233.066 197.406 233.066Z" fill="#2A2422"/>
<path d="M404.07 388.432C397.886 386.8 389.75 385.168 379.661 385.168C327.263 385.168 313.919 414.871 311.641 435.11C309.363 457.629 324.984 480.152 363.388 480.152C379.661 480.152 390.076 477.214 393.981 476.235C394.957 475.909 395.608 475.255 395.934 474.276L398.212 462.851C398.538 461.222 396.91 459.588 395.283 460.242C391.052 461.547 383.566 463.506 374.128 463.506C355.577 463.506 342.559 452.406 344.187 433.476C345.814 414.871 358.181 400.836 375.43 400.836C385.845 400.836 390.401 406.384 390.076 413.565C390.076 413.565 390.076 413.565 390.076 413.892C390.076 415.197 391.052 416.176 392.354 416.176H399.188C400.165 416.176 401.141 415.524 401.467 414.218L406.348 392.023C406.348 390.39 405.372 388.759 404.07 388.432Z" fill="#2A2422"/>
<path d="M186.992 388.439L185.69 394.315C185.365 395.62 186.016 396.926 187.318 397.252C189.596 398.231 189.921 400.19 187.969 401.822L155.748 428.587L161.281 403.127C162.258 399.211 165.187 397.578 167.139 396.926H167.465C168.441 396.599 169.092 395.946 169.092 394.967L170.394 389.092C170.72 387.786 169.743 386.48 168.116 386.48H126.783C125.481 386.48 124.505 387.46 124.179 388.439L122.877 394.641C122.552 395.946 123.203 397.252 124.505 397.578C124.83 397.578 124.83 397.578 124.83 397.578C127.434 398.558 130.363 400.843 129.061 407.044L119.298 452.415C116.694 464.819 112.463 467.428 108.557 467.757C107.581 467.757 106.605 468.737 106.279 469.716L104.978 475.588C104.652 477.222 105.628 478.527 107.256 478.527H150.867C151.843 478.527 152.819 477.872 153.145 476.893L154.772 470.041C155.098 469.062 154.447 467.757 153.47 467.428H153.145C150.867 466.448 147.938 464.494 148.588 460.901L153.796 437.727C171.045 469.716 176.903 478.852 197.732 478.852H216.609C217.585 478.852 218.561 478.202 218.887 477.222L220.189 471.346C220.514 469.716 219.537 468.407 217.911 468.407C213.354 468.407 210.751 467.103 206.194 461.226L182.11 428.262L213.68 402.148C217.911 398.884 223.118 397.905 226.047 397.578C226.047 397.578 226.047 397.578 226.372 397.578C227.349 397.578 228.325 396.926 228.325 395.62L229.627 389.745C229.952 388.439 228.976 386.807 227.349 386.807H189.27C188.294 386.48 186.992 387.46 186.992 388.439Z" fill="#2A2422"/>
<path d="M303.178 413.899H310.664C311.64 413.899 312.616 413.246 312.942 411.94L317.824 389.418C318.149 388.113 317.173 386.48 315.545 386.48H238.412C237.111 386.48 236.134 387.46 235.809 388.439L234.507 394.641C234.182 395.946 234.833 396.926 236.134 397.578H236.46C239.064 398.558 242.643 401.169 241.016 407.044L225.72 475.918C225.394 477.222 226.371 478.852 227.998 478.852H262.822C263.798 478.852 264.775 478.202 265.1 476.893L266.727 470.041C267.052 469.062 266.402 468.082 265.425 467.428H265.1C262.822 466.448 259.567 463.839 260.544 458.942C260.544 458.292 263.798 443.275 263.798 443.275H293.415C294.391 443.275 295.367 442.625 295.693 441.316L298.622 428.587C298.947 427.282 297.971 425.648 296.344 425.648H267.704L272.911 401.169H292.763C299.273 401.169 301.225 404.433 300.9 410.308C300.9 410.308 300.9 410.309 300.9 410.635C300.9 412.593 301.876 413.899 303.178 413.899Z" fill="#2A2422"/>
<path d="M485.433 9.47998H26.5433C16.4544 9.47998 8.31797 18.2929 8.96889 28.4115L45.4197 488.642C46.0705 497.782 53.8817 504.963 62.9945 504.963H448.982C458.096 504.963 465.581 497.782 466.557 488.642L503.008 28.4115C503.66 17.9665 495.523 9.47998 485.433 9.47998Z" stroke="white" stroke-width="17.8646"/>
</g>
<defs>
<clipPath id="clip0_781_577">
<rect width="512" height="512" fill="white" transform="translate(0 0.574707)"/>
</clipPath>
</defs>
</svg>
