<svg width="1024" height="376" viewBox="0 0 1024 376" fill="none" xmlns="http://www.w3.org/2000/svg">
<g clip-path="url(#clip0_760_425)">
<path d="M775.458 191.682V274.406H809.346V196.754C809.346 162.17 856.423 162.114 856.423 162.114V128.457C856.423 128.457 843.261 129.043 832.86 131.383C803.37 138.016 775.458 152.563 775.458 191.682Z" fill="#1C1C1E"/>
<path d="M520.002 126.784C533.203 126.784 549.698 134.253 558.678 147.389C567.977 135.443 583.268 127.379 602.162 127.073C626.163 126.766 655.84 141.704 655.84 186.507V274.304H621.944V186.507C621.944 171.57 611.143 160.831 594.974 160.831C578.805 160.831 567.995 171.57 567.995 186.507V274.304H534.108V186.507C534.108 171.57 523.316 160.831 507.13 160.831C490.942 160.831 479.843 171.57 479.843 186.507V274.304H444.201V131.235H479.843V145.606C489.448 133.965 503.526 126.784 520.021 126.784H520.002Z" fill="#1C1C1E"/>
<path d="M733.768 133.056V274.408H699.302V133.056H733.768Z" fill="#1C1C1E"/>
<path d="M716.531 110.566C727.157 110.566 735.772 101.994 735.772 91.4198C735.772 80.8458 727.157 72.2739 716.531 72.2739C705.905 72.2739 697.292 80.8458 697.292 91.4198C697.292 101.994 705.905 110.566 716.531 110.566Z" fill="#1C1C1E"/>
<path d="M948.45 126.478C906.722 126.478 872.899 160.135 872.899 201.659C872.899 243.184 906.722 276.84 948.45 276.84C990.179 276.84 1024 243.184 1024 201.659C1024 160.135 990.179 126.478 948.45 126.478ZM948.45 243.035C924.832 243.035 905.676 223.983 905.676 200.47C905.676 176.958 924.823 157.905 948.45 157.905C972.078 157.905 991.224 176.958 991.224 200.47C991.224 223.983 972.078 243.035 948.45 243.035Z" fill="#1C1C1E"/>
<path d="M0 94.484C0 42.8365 41.8685 0.968018 93.516 0.968018H280.548C332.196 0.968018 374.064 42.8365 374.064 94.484V281.516C374.064 333.164 332.196 375.032 280.548 375.032H93.516C41.8685 375.032 0 333.164 0 281.516V94.484Z" fill="#FFDD33"/>
<path fill-rule="evenodd" clip-rule="evenodd" d="M248.687 72.2739H214.73L243.027 121.992L180.774 72.2739H146.818L177.945 133.042L112.861 72.2739H78.9043L112.861 149.625L78.9043 304.31H112.861L177.945 138.574L146.818 304.31H180.774L243.027 127.524L214.73 304.31H248.687L310.941 110.942L248.687 72.2739Z" fill="#1C1C1E"/>
</g>
<defs>
<clipPath id="clip0_760_425">
<rect width="1024" height="375.78" fill="white" transform="translate(0 0.110107)"/>
</clipPath>
</defs>
</svg>
