<svg width="1024" height="144" viewBox="0 0 1024 144" fill="none" xmlns="http://www.w3.org/2000/svg">
<g clip-path="url(#clip0_857_270)">
<path d="M136.701 0.265625C172.799 0.265625 202.06 30.3871 202.06 67.5448C202.06 104.703 172.799 134.825 136.701 134.825H58.0835L133.929 0.265625H53.5266L0 134.819L133.929 0.265625H136.701Z" fill="#00303C"/>
<path d="M362.104 50.4605C346.985 50.4605 332.58 63.8212 332.58 83.198C332.58 102.574 346.985 115.941 362.104 115.941C377.222 115.941 391.628 102.431 391.628 83.198C391.628 63.9648 377.222 50.4605 362.104 50.4605ZM362.104 112.122C352.405 112.122 345.704 102.287 345.704 83.198C345.704 64.1083 352.411 54.1249 362.104 54.1249C371.797 54.1249 378.509 63.9595 378.509 83.198C378.509 102.436 371.802 112.122 362.104 112.122ZM814.693 50.4605C799.575 50.4605 785.17 63.8212 785.17 83.198C785.17 102.574 799.575 115.941 814.693 115.941C829.816 115.941 844.221 102.431 844.221 83.198C844.221 63.9648 829.816 50.4605 814.693 50.4605ZM814.693 112.122C804.997 112.122 798.297 102.287 798.297 83.198C798.297 64.1083 805.002 54.1249 814.693 54.1249C824.389 54.1249 831.098 63.9595 831.098 83.198C831.098 102.436 824.393 112.122 814.693 112.122ZM275.488 25.4991H252.67V114.473H274.775C303.586 114.473 325.551 95.3886 325.551 68.5179C325.551 41.647 304.728 25.4991 275.488 25.4991ZM274.346 110.51H272.92C268.212 110.51 265.789 109.484 265.789 103.612V29.4615H274.206C298.171 29.4615 311.435 42.53 311.435 69.3956C311.435 97.5852 296.745 110.505 274.351 110.505L274.346 110.51ZM778.408 114.473H765.635L757.69 33.2805L729.163 115.941H728.163L700.066 33.2805L692.461 114.473H687.499L696.027 25.4991H710.762L732.872 92.1549L755.834 25.4991H768.674L778.403 114.473H778.408ZM549.695 109.92C547.268 109.92 544.985 107.718 544.985 103.165V72.1823C544.985 58.5287 536.998 50.4547 524.732 50.4547C513.323 50.4547 504.192 58.3799 500.483 69.2463L503.336 70.4221C506.762 62.3477 512.318 57.5026 519.023 57.5026C528.575 57.5026 532.433 64.6931 532.433 73.3576V78.496L517.74 83.9264C507.044 88.1866 499.627 92.7345 499.627 101.84C499.627 110.946 506.757 115.935 514.601 115.935C522.445 115.935 528.858 110.797 532.571 105.803C534.141 112.116 538.989 115.935 544.981 115.935C550.255 115.935 554.394 112.558 556.959 108.446L555.246 106.537C553.255 108.888 551.968 109.914 549.69 109.914L549.695 109.92ZM532.437 103.314C529.293 106.984 525.307 109.335 521.311 109.335C515.324 109.335 511.328 105.223 511.328 98.9099C511.328 92.1549 515.606 88.7772 521.028 86.7241L532.442 82.3203V103.314H532.437ZM951.033 108.601C936.628 108.601 926.927 95.5322 926.927 78.3577V75.7146H966.581C966.581 63.5288 959.302 50.4605 942.902 50.4605C928.927 50.4605 915.087 64.5553 915.087 83.7885C915.087 103.021 928.784 115.941 945.184 115.941C953.737 115.941 962.155 111.536 967.577 102.872L966.007 101.255C962.154 106.25 957.302 108.601 951.033 108.601ZM942.758 54.2737C950.745 54.2737 954.45 61.7629 954.88 72.188H927.353C928.923 60.5928 934.914 54.2737 942.758 54.2737ZM1024 51.9283L987.418 143.838H982.676L995.683 111.145L970.309 51.9283H983.666L1001.56 96.3658L1019.25 51.9283H1024ZM489.371 114.473H476.813V74.3899C476.813 63.6724 472.819 57.9496 464.686 57.9496C458.697 57.9496 454.13 62.6516 451.851 67.4913C451.996 68.9596 452.135 70.4274 452.135 71.8951V114.473H439.584V74.3899C439.584 63.6724 435.735 57.9496 427.463 57.9496C421.614 57.9496 417.051 62.2098 414.912 67.0501V114.473H402.361V62.6458C402.361 55.4496 400.651 55.0079 393.949 55.0079V51.9283H414.912V64.1141C417.625 58.3909 424.327 50.4605 434.17 50.4605C444.013 50.4605 449.573 56.4814 451.428 64.8477C454.141 59.125 461.126 50.4605 471.398 50.4605C484.092 50.4605 489.371 60.1515 489.371 71.8951V114.473ZM576.987 30.3445C576.987 34.7485 573.566 38.126 569.144 38.126C565.009 38.126 561.443 34.7485 561.443 30.3445C561.443 25.9405 565.009 22.4141 569.144 22.4141C573.566 22.4141 576.987 25.935 576.987 30.3445ZM575.844 114.473H563.3V62.6458C563.3 55.4496 561.587 55.0079 554.882 55.0079V51.9283H575.844V114.473ZM644.734 71.8951V114.473H632.186V74.3899C632.186 63.6724 627.764 57.9496 619.494 57.9496C613.641 57.9496 608.798 62.2098 606.659 67.0501V76.7962L606.654 114.473H594.111V79.8978V62.6458C594.111 55.4496 592.402 55.0079 585.693 55.0079V51.9283H606.659V64.1141C609.372 58.3909 616.498 50.4605 626.199 50.4605C638.895 50.4605 644.738 60.1515 644.738 71.8951H644.734ZM905.588 71.8951V114.473H893.044V74.3899C893.044 63.6724 888.622 57.9496 880.348 57.9496C874.5 57.9496 869.652 62.2098 867.513 67.0501V114.473H854.964V62.6458C854.964 55.4496 853.246 55.0079 846.547 55.0079V51.9283H867.508V64.1141C870.221 58.3909 877.352 50.4605 887.048 50.4605C899.744 50.4605 905.588 60.1515 905.588 71.8951Z" fill="#00303C"/>
</g>
<defs>
<clipPath id="clip0_857_270">
<rect width="1024" height="143.572" fill="white" transform="translate(0 0.265625)"/>
</clipPath>
</defs>
</svg>
