<svg width="513" height="513" viewBox="0 0 513 513" fill="none" xmlns="http://www.w3.org/2000/svg">
<g clip-path="url(#clip0_882_24636)">
<path d="M262.684 28.6299C272.306 26.9859 282.855 30.1474 289.378 37.5242C299.094 48.1257 298.578 66.125 288.44 76.2628C277.807 87.5493 257.879 87.4333 247.183 76.3682C238.394 67.6741 236.834 53.0892 242.894 42.435C247.035 35.0477 254.328 29.9682 262.684 28.6299ZM262.505 37.893C249.164 41.5814 245.159 60.5819 254.654 70.1295C260.872 76.8951 272.422 77.6222 279.409 71.626C287.428 64.9869 288.461 51.8246 281.906 43.8155C277.217 38.1248 269.576 35.7854 262.505 37.893Z" fill="white"/>
<path d="M200.962 35.4159C206.094 34.0565 211.7 33.3715 216.769 35.2684C226.696 38.8725 230.521 53.1097 223.872 61.2557C222.196 63.1315 220.331 64.8282 218.297 66.3036C224.81 71.5727 231.154 77.0526 237.529 82.5008C233.809 83.4598 230.089 84.4083 226.369 85.3462C220.447 80.3089 214.598 75.1978 208.612 70.2343C204.84 71.246 201.057 72.2155 197.263 73.1323C198.696 79.3078 200.34 85.4305 201.91 91.5743C198.759 92.3963 195.598 93.1866 192.426 93.9559C187.947 76.336 183.51 58.7055 178.937 41.1066C186.208 39.1043 193.585 37.3655 200.962 35.4159ZM190.708 47.0712C191.941 53.0254 193.669 58.853 195.039 64.7755C199.834 63.5952 204.64 62.4676 209.392 61.1082C212.491 60.2124 215.547 58.3156 216.853 55.2489C219.014 50.0957 215.262 43.1089 209.329 43.2459C202.89 43.3091 196.915 46.0385 190.666 47.0923L190.708 47.0712Z" fill="white"/>
<path d="M319.074 36.4707L327.326 39.8113C331.868 54.8494 335.419 70.2037 340.436 85.1258C345.167 73.7024 349.519 62.1314 354.515 50.8238C357.392 52.0568 360.3 53.2371 363.198 54.4279C356.401 71.2891 349.498 88.1503 342.733 105.012C340.162 104.074 337.622 103.072 335.103 101.987C330.645 86.3799 326.525 70.6568 321.772 55.1339C317.051 67.0422 312.172 78.8872 307.377 90.7638C304.426 89.5835 301.476 88.3821 298.535 87.1492C305.343 70.2247 312.193 53.3319 319.074 36.4707Z" fill="white"/>
<path d="M147.396 56.1764C150.252 54.7011 153.108 53.2257 155.942 51.7188C164.478 67.8317 172.74 84.1028 181.066 100.332L172.509 104.768C164.078 88.571 155.711 72.3737 147.396 56.1764Z" fill="white"/>
<path d="M98.2348 101.744C98.9303 86.2846 113.684 73.7547 128.848 73.86C128.848 77.0215 128.933 80.183 129.07 83.3445C120.639 83.4393 111.618 88.0129 108.763 96.3592C104.484 108.636 115.475 122.989 128.343 122.505C137.311 122.083 144.73 114.569 146.879 106.128C144.624 103.704 142.464 101.196 140.388 98.5933C136.657 101.439 133.253 104.674 129.628 107.667C127.774 105.559 125.929 103.357 124.148 101.144C130.113 96.1801 135.877 90.9847 141.8 85.9685C146.637 91.9964 152.412 97.413 156.701 103.778C154.72 118.289 142.243 131.578 127.194 132.137C111.25 132.758 97.1388 117.52 98.2348 101.744Z" fill="white"/>
<path d="M349.551 108.289C367.782 99.9848 385.95 91.5436 404.213 83.3027C406.384 85.305 408.597 87.2757 410.81 89.2358C404.656 108.205 398.312 127.173 392.168 146.142C389.428 144.098 386.899 141.758 384.422 139.472C385.94 134.961 387.52 130.461 389.049 125.951C382.726 120.271 376.308 114.738 370.132 108.932C365.633 110.692 361.354 112.947 356.96 114.939C354.451 112.757 351.985 110.534 349.551 108.289ZM378.384 104.811C382.926 109.027 387.552 113.052 392.147 117.162C394.613 109.785 397.1 102.409 399.524 94.937C392.452 98.2038 385.392 101.492 378.352 104.811H378.384Z" fill="white"/>
<path d="M236.275 96.1378C324.628 85.3151 405.024 148.176 415.847 236.528C426.67 324.881 363.809 405.277 275.457 416.1C187.104 426.923 106.708 364.062 95.8848 275.71C91.0794 236.444 100.88 196.768 123.432 164.257C149.156 126.952 191.193 101.344 236.275 96.1378ZM204.123 112.715C203.038 113.115 202.068 113.768 201.278 114.611C173.362 142.548 145.436 170.464 117.499 198.38C115.634 200.372 113.178 202.068 112.377 204.808C106.644 221.1 103.673 238.225 103.567 255.497C154.193 204.914 204.777 154.33 255.318 103.746C237.867 103.799 220.552 106.824 204.123 112.715ZM277.554 125.36C284.931 132.453 292.002 139.935 299.442 147.006C307.978 138.059 316.946 129.544 325.545 120.66C315.576 115.528 305.09 111.471 294.267 108.562C288.693 114.127 283.034 119.638 277.596 125.371L277.554 125.36ZM239.785 132.126V132.326C229.457 142.264 219.477 152.57 209.298 162.655C198.664 173.099 188.126 183.637 177.683 194.27C167.492 204.513 157.228 214.672 147.122 224.936C136.678 235.043 126.572 245.496 116.203 255.676C126.34 266.141 136.742 276.363 147.08 286.638C157.418 296.913 167.429 307.187 177.799 317.262C188.126 327.958 198.78 338.338 209.298 348.877C219.688 359.152 229.784 369.753 240.449 379.754C245.18 385.265 250.692 390.113 255.74 395.35C261.009 390.155 266.183 384.812 271.547 379.68V379.459C280.757 370.554 289.662 361.343 298.799 352.365C300.148 351.185 301.349 349.825 302.361 348.339C302.361 341.215 302.276 334.092 302.361 326.978C292.086 327.389 281.801 327.2 271.515 327.115C270.051 327.326 268.354 326.968 267.079 327.916C263.095 330.793 259.702 334.323 255.813 337.401C251.998 334.345 248.637 330.751 244.685 327.916C243.505 326.968 241.861 327.442 240.47 327.263C230.111 327.136 219.751 327.495 209.413 327.041C198.664 325.081 189.812 315.165 190.276 304.047C190.276 267.954 190.118 231.849 190.371 195.766H209.413H240.428C240.428 195.766 261.146 195.766 271.505 195.766H302.319C308.758 195.893 315.207 195.587 321.635 195.956C321.467 229.183 321.635 262.41 321.562 295.638C321.467 301.518 322.204 307.714 319.728 313.247C316.566 320.339 310.17 325.461 302.561 326.999C302.561 334.144 302.466 341.289 302.614 348.434C313.3 338.096 323.69 327.474 334.228 316.935C344.377 306.713 354.789 296.712 364.705 286.269C375.159 276.353 385.181 265.993 395.35 255.792C385.107 245.644 375.033 235.338 364.705 225.231C354.378 215.125 344.335 204.756 334.039 194.671C323.69 183.911 313.047 173.394 302.371 162.95C292.17 152.602 281.79 142.422 271.568 132.094C266.373 126.751 261.03 121.556 255.761 116.287C250.418 121.524 245.106 126.804 239.827 132.137L239.785 132.126ZM321.098 168.609C328.19 175.986 335.651 183.089 342.764 190.487C353.197 180.349 363.367 169.937 373.694 159.684C367.171 151.738 359.879 144.456 351.922 137.933C341.605 148.176 331.489 158.535 321.098 168.609ZM364.589 212.185C371.818 219.467 379.079 226.728 386.372 233.947C391.904 228.446 397.374 222.881 402.959 217.423C400.166 206.484 396.12 195.914 390.903 185.903C382.083 194.649 373.346 203.449 364.558 212.185H364.589ZM195.608 201.067C195.398 235.359 195.608 269.65 195.524 303.942C195.229 312.794 202.564 321.056 211.426 321.688C221.617 322.099 231.839 321.688 241.987 321.899C247.941 321.572 251.472 327.168 255.687 330.329C259.196 327.684 262.105 324.059 266.225 322.289C278.123 320.993 290.21 322.658 302.129 321.404C310.317 319.675 316.166 312.425 316.124 304.047C316.124 269.745 316.124 235.432 316.124 201.13C276.015 201.015 235.812 201.173 195.608 201.067ZM255.982 407.944C273.465 407.912 290.811 404.877 307.272 398.986C308.536 398.544 309.674 397.774 310.56 396.773C339.318 367.877 368.13 339.034 396.973 310.254C397.616 309.643 398.143 308.937 398.543 308.146C404.993 291.454 407.364 273.549 408.196 255.782C357.392 306.439 306.829 357.328 255.982 407.944ZM108.552 294.331C111.408 305.217 115.465 315.755 120.65 325.756C129.439 316.977 138.217 308.189 146.995 299.41C139.745 292.149 132.484 284.899 125.223 277.638L108.552 294.331ZM137.901 351.922C144.382 359.931 151.685 367.224 159.694 373.694C169.937 363.43 180.191 353.176 190.466 342.923C183.279 335.546 175.986 328.338 168.683 321.119C158.461 331.446 148.197 341.711 137.901 351.922ZM185.934 390.914C195.872 396.215 206.421 400.293 217.338 403.054C222.786 397.416 228.488 392.02 233.883 386.33C226.675 379.111 219.414 371.945 212.269 364.663C203.386 373.262 194.786 382.188 185.934 390.872V390.914Z" fill="white"/>
<path d="M201.13 206.41H310.528C310.528 207.843 310.644 209.277 310.697 210.71C306.102 209.277 300.348 211.437 299.104 216.39C298.051 222.481 299.305 228.741 298.441 234.853C296.944 239.595 291.201 238.868 287.302 238.699C284.678 238.763 282.37 236.961 281.78 234.4C280.937 228.161 282.507 221.67 280.926 215.536C278.534 208.676 267.553 208.644 265.119 215.536C263.369 222.007 265.498 228.951 263.928 235.464C262.221 239.479 257.257 238.889 253.706 238.805C251.176 239.058 248.774 237.656 247.741 235.327C246.339 228.762 248.489 221.754 246.498 215.304C243.842 208.602 233.03 208.887 230.69 215.726C229.289 221.775 230.69 228.098 229.942 234.242C229.404 237.013 226.896 238.952 224.083 238.794C220.247 238.963 214.598 239.542 213.239 234.874C212.301 228.825 213.513 222.629 212.617 216.558C211.416 211.521 205.599 209.308 200.941 210.784L201.13 206.41Z" fill="white"/>
<path d="M201.088 234.684C204.893 234.863 210.246 233.578 212.354 237.782C214.261 244.443 211.595 251.798 213.882 258.416C216.695 265.013 227.487 264.518 229.605 257.626C231.027 251.43 229.489 244.98 230.448 238.657C231.186 235.938 234.073 234.442 236.771 234.663C239.679 234.747 243.178 234.031 245.518 236.233C248.226 238.763 247.024 242.809 247.288 246.076C247.594 250.882 246.023 256.614 249.67 260.545C253.716 265.045 262.168 263.401 263.959 257.531C265.266 251.461 263.959 245.159 264.676 239.026C265.298 236.381 267.722 234.568 270.43 234.695C274.213 234.537 279.735 233.904 281.253 238.446C282.401 244.769 280.779 251.282 282.138 257.552C284.246 264.381 294.837 265.045 297.798 258.606C300.201 252.009 297.513 244.643 299.336 237.93C301.37 233.599 306.766 234.853 310.602 234.674C310.697 243.104 310.602 251.482 310.654 259.892C306.176 258.596 300.633 260.471 299.231 265.245C298.019 271.315 299.231 277.596 298.546 283.719C297.85 286.311 295.437 288.071 292.761 287.934C288.925 288.113 283.276 288.661 281.896 283.972C280.926 277.701 282.465 271.22 281.074 265.003C278.85 257.774 267.29 257.731 265.034 265.003C263.643 271.21 265.224 277.701 264.181 283.972C263.317 286.617 260.724 288.292 257.963 287.997C254.433 288.071 249.596 288.651 247.857 284.709C246.34 278.239 248.405 271.347 246.708 264.908C244.474 258.09 233.725 257.763 230.996 264.36C229.12 270.556 230.869 277.227 229.942 283.592C229.32 286.258 226.875 288.103 224.146 287.966C220.352 288.134 214.841 288.735 213.323 284.203C212.153 277.881 213.808 271.368 212.448 265.098C210.942 260.419 205.462 258.627 201.025 259.944C201.109 251.503 201.057 243.094 201.088 234.684Z" fill="white"/>
<path d="M201.078 283.929C204.945 284.066 210.478 282.781 212.459 287.217C214.029 293.698 211.879 300.654 213.66 307.114C216.042 313.995 227.054 314.027 229.468 307.166C231.08 301.033 229.468 294.52 230.332 288.292C230.869 285.32 233.968 283.655 236.813 283.898C240.375 283.782 245.328 283.36 246.866 287.47C247.92 293.603 246.571 299.937 247.604 306.081C248.7 310.191 252.673 312.857 256.888 312.319C260.714 311.877 263.749 308.894 264.265 305.08C264.781 299.537 264.107 293.962 264.56 288.419C265.129 285.689 267.595 283.792 270.377 283.94C274.045 283.866 279.198 283.076 281.01 287.228C282.749 293.92 280.136 301.244 282.517 307.82C285.394 314.143 295.68 313.7 298.019 307.177C299.779 300.696 297.64 293.74 299.22 287.228C301.202 282.833 306.703 284.066 310.57 283.919C310.57 291.675 310.654 299.442 310.57 307.208C310.581 311.93 306.85 315.808 302.14 315.976C291.043 316.219 279.925 315.776 268.839 316.208C263.896 316.282 259.554 318.843 255.845 321.867C251.819 318.084 246.476 316.018 240.954 316.103C230.469 315.881 219.973 316.187 209.487 315.966C204.85 315.723 201.194 311.908 201.151 307.261C200.962 299.484 201.12 291.707 201.078 283.929Z" fill="white"/>
<path d="M101.776 405.13C107.983 398.322 114.422 391.725 120.808 385.107C125.824 389.892 130.788 394.739 135.899 399.429C134.687 400.894 133.433 402.306 132.168 403.729C128.575 400.346 124.981 396.963 121.482 393.475L117.446 397.353C120.428 400.599 123.769 403.518 126.931 406.584C125.613 407.933 124.317 409.293 123 410.642C119.838 407.649 116.751 404.624 113.515 401.695C111.06 404.203 108.636 406.753 106.212 409.303L101.776 405.13Z" fill="white"/>
<path d="M390.861 385.487C395.825 382.758 402.011 387.869 400.588 393.264C406.3 390.398 413.171 396.91 410.199 402.685C407.227 408.46 401.663 412.012 397.479 416.691C390.945 410.273 384.665 403.602 378.078 397.237C382.22 393.243 385.845 388.448 390.861 385.487ZM386.235 396.742L390.071 400.757C392.062 398.755 394.465 397.005 395.751 394.434C396.562 392.274 393.643 389.913 391.767 391.547C389.755 393.096 387.91 394.834 386.235 396.742ZM400.525 398.186C397.985 399.914 395.983 402.296 393.759 404.393C395.118 405.805 396.52 407.185 397.974 408.555C400.082 406.363 402.537 404.424 404.297 401.895C405.962 399.703 402.696 396.426 400.525 398.186Z" fill="white"/>
<path d="M366.697 406.056C368.372 404.866 370.058 403.685 371.755 402.516C374.917 407.163 378.342 411.673 381.419 416.416C383.684 419.841 384.38 424.604 382.04 428.176C379.669 431.791 375.897 434.246 371.629 434.942C367.645 435.448 363.957 433.055 361.702 429.957C358.393 425.5 355.379 420.842 352.07 416.384C353.745 415.151 355.431 413.939 357.128 412.738C359.826 416.574 362.513 420.41 365.179 424.256C366.402 425.889 367.624 427.744 369.605 428.535C373.726 430.063 378.974 425.278 376.856 421.052C373.958 415.752 370.006 411.104 366.697 406.056Z" fill="white"/>
<path d="M141.062 403.803L146.173 407.27C142.928 412.381 138.965 417.049 136.173 422.434C134.17 426.713 139.45 431.434 143.549 429.811C145.425 429.031 146.563 427.24 147.765 425.68C150.441 421.76 153.118 417.84 155.795 413.919C157.491 415.058 159.188 416.196 160.895 417.323C157.913 421.855 154.846 426.334 151.716 430.77C149.525 433.932 146.015 436.471 142.021 436.218C134.813 435.723 127.152 428.41 130.113 420.801C132.885 414.625 137.469 409.525 141.062 403.803Z" fill="white"/>
<path d="M166.438 420.547C173.373 423.708 180.265 427.028 187.188 430.274L184.67 435.427C182.172 434.183 179.643 433.014 177.061 431.96C174.174 438.588 170.907 445.038 167.935 451.635C166.027 450.771 164.141 449.864 162.286 448.916C165.448 442.424 168.451 435.817 171.592 429.304C169.115 428.071 166.607 426.891 164.099 425.753C164.868 424.014 165.648 422.286 166.438 420.547Z" fill="white"/>
<path d="M329.465 427.745C331.257 426.912 333.027 426.006 334.903 425.342C338.296 431.717 341.363 438.272 344.524 444.785C348.74 442.888 352.755 440.77 356.886 438.799C357.708 440.485 358.519 442.171 359.341 443.868C353.387 446.745 347.496 449.748 341.521 452.583C337.569 444.3 333.227 436.144 329.465 427.745Z" fill="white"/>
<path d="M193.669 432.709C199.075 434.564 204.977 435.28 209.972 438.157C214.788 441.182 213.344 448.696 208.223 450.55C212.838 454.175 211.194 462.648 205.061 463.365C198.464 463.871 192.299 460.625 185.987 459.149C188.569 450.287 191.066 441.466 193.669 432.709ZM197.885 439.59C197.368 441.414 196.831 443.237 196.325 445.07C198.865 445.903 201.478 446.493 204.123 446.83C205.556 446.767 206.663 445.555 206.6 444.132C206.568 443.479 206.305 442.868 205.841 442.404C203.544 440.739 200.551 440.444 197.906 439.548L197.885 439.59ZM194.818 450.034C194.323 451.889 193.764 453.764 193.279 455.63C196.114 456.578 199.012 457.347 201.952 457.916C204.302 458.422 206.168 455.05 204.366 453.417C201.678 451.256 198.022 451.014 194.839 449.992L194.818 450.034Z" fill="white"/>
<path d="M304.036 439.821C308.02 433.277 317.146 431.095 323.922 434.341C323.153 436.164 322.383 437.987 321.625 439.821C318.242 438.693 314.132 437.924 311.202 440.527C306.102 444.669 308.484 453.9 314.701 455.512C318.916 456.714 322.816 453.816 324.839 450.349C326.536 451.139 328.211 451.972 329.887 452.825C326.662 460.012 317.42 463.732 310.233 460.328C302.73 457.019 299.684 446.724 304.036 439.821Z" fill="white"/>
<path d="M229.605 442.319C236.981 439.485 246.466 443.226 248.9 450.94C251.419 457.927 247.646 466.494 240.543 468.939C233.356 471.763 224.019 468.307 221.322 460.835C218.413 453.785 222.291 444.785 229.605 442.319ZM231.776 447.768C225.453 450.297 225.168 460.582 231.417 463.343C236.265 466.009 242.662 462.289 243.115 456.904C244.464 450.739 237.54 444.975 231.776 447.768Z" fill="white"/>
<path d="M258.574 443.151C260.619 442.993 262.674 442.856 264.729 442.719C265.14 450.001 265.688 457.283 266.088 464.575C270.651 464.364 275.204 464.027 279.788 463.785C279.862 465.629 279.957 467.484 280.062 469.338C273.476 469.77 266.889 470.266 260.292 470.529C259.734 461.403 259.165 452.277 258.574 443.151Z" fill="white"/>
<path d="M237.024 0.57665C241.46 -0.171566 245.981 0.20781 250.47 0.0813511C259.354 0.239425 268.28 -0.382333 277.122 0.755799C312.067 3.49574 346.052 13.4544 376.951 29.9995C423.572 55.0278 461.362 93.8086 485.168 141.073C498.931 168.261 507.614 197.726 510.786 228.034C511.229 232.323 511.535 236.623 512.061 240.902C512.22 250.27 512.135 259.649 512.114 269.028C510.765 290.948 507.172 312.825 500.385 333.765C490.985 363.472 476.179 391.198 456.725 415.541C439.558 437.082 419.072 455.745 396.025 470.825C361.28 493.567 321.467 507.393 280.104 511.081C276.468 511.271 272.896 512.135 269.25 512.019C260.113 512.061 250.987 512.061 241.85 512.019C230.3 511.197 218.814 509.722 207.432 507.614C178.463 502.082 150.694 491.512 125.371 476.389C102.735 462.784 82.2483 445.881 64.6073 426.227C56.4191 416.511 48.3257 406.668 41.5496 395.898C18.2601 360.268 4.31795 319.359 0.9984 276.921C-0.213499 266.204 0.513635 255.339 0.334485 244.537C1.39885 220.942 5.69846 197.6 13.0963 175.174C23.8453 142.738 41.0332 112.799 63.6167 87.1589C84.1979 63.7008 108.847 44.1734 136.394 29.5147C167.577 13.0118 201.836 3.14798 237.024 0.57665ZM240.069 8.49088C236.707 8.88079 233.304 8.63841 229.984 9.30232C207.875 11.7261 186.187 17.0374 165.469 25.1097C129.059 39.3047 96.3907 62.5943 70.4033 91.7325C56.9565 107.076 45.3644 123.959 35.8695 142.011C23.076 166.744 14.5506 193.469 10.6514 221.047C8.60702 236.95 7.48997 253.021 8.54379 269.06C10.0929 294.868 15.1302 320.602 24.5409 344.756C29.2093 356.77 34.7735 368.414 41.2018 379.585C81.1207 449.464 152.581 495.516 232.703 503.02C236.423 503.589 240.227 503.272 243.958 503.957C251.883 504.305 259.828 504.221 267.764 504.021C272.116 503.283 276.563 503.599 280.926 502.861C337.58 497.392 390.566 472.395 430.812 432.15C448.916 414.182 464.197 393.569 476.126 371.028C491.069 342.459 500.248 311.223 503.115 279.113C503.694 275.53 503.42 271.873 504.063 268.301C505.033 245.328 502.967 222.333 497.919 199.908C491.501 172.076 480.278 145.583 464.745 121.619C433.13 72.4791 383.674 34.9419 327.568 18.3441C307.64 12.4322 287.07 8.9651 266.299 8.01665C257.563 8.10096 248.763 7.55297 240.069 8.49088Z" fill="#D02030"/>
<path d="M248.679 7.72176C293.909 6.39394 338.644 17.5013 378.004 39.8213C430.432 69.4232 471.373 118.742 490.574 175.828C534.677 305.448 465.345 446.282 335.725 490.374C231.08 525.972 115.507 488.003 52.3724 397.268C-1.74154 319.622 -6.9369 217.939 38.9783 135.182C81.4369 58.611 161.169 10.1456 248.69 7.72176H248.679ZM234.178 16.6687C102.461 28.6297 5.37178 145.109 17.3432 276.827C29.3041 408.544 145.783 505.633 277.501 493.662C409.219 481.701 506.308 365.221 494.336 233.504C486.643 148.745 434.532 74.4394 357.476 38.3248C319.032 20.2728 276.468 12.7907 234.178 16.6687Z" fill="white"/>
<path d="M234.178 16.6692C366.138 4.73992 482.776 102.05 494.705 234C506.634 365.949 409.324 482.597 277.375 494.526C145.415 506.456 28.7772 409.145 16.8479 277.196C8.87049 188.991 50.1488 103.557 124.212 54.9863C157.165 33.3829 194.934 20.2312 234.178 16.6692ZM262.632 28.0927C254.264 29.431 246.982 34.521 242.841 41.9083C236.781 52.5625 238.341 67.2001 247.13 75.8415C257.868 86.9067 277.754 87.0226 288.387 75.7361C298.525 65.5983 299.041 47.599 289.325 36.9975C282.855 29.5786 272.306 26.4909 262.684 28.0927H262.632ZM200.962 34.9004C193.585 36.8289 186.208 38.5783 178.937 40.5911C183.51 58.1899 187.947 75.8204 192.426 93.4404C195.587 92.6711 198.749 91.8807 201.91 91.0587C200.34 84.9149 198.749 78.7922 197.263 72.6168C201.057 71.7 204.84 70.741 208.613 69.7188C214.598 74.6823 220.447 79.7933 226.369 84.8306C230.089 83.8927 233.81 82.9443 237.53 81.9853C231.154 76.537 224.81 71.0677 218.297 65.788C220.321 64.3021 222.186 62.5949 223.851 60.7086C230.469 52.5941 226.675 38.3569 216.769 34.7529C211.658 32.856 206.052 33.541 200.962 34.9004ZM319.117 35.8805C312.225 52.7417 305.375 69.6239 298.578 86.5168C301.518 87.7497 304.468 88.9616 307.419 90.1314C312.214 78.2548 317.093 66.4098 321.814 54.5015C326.567 70.0244 330.688 85.7475 335.145 101.355C337.664 102.43 340.204 103.441 342.775 104.379C349.53 87.5179 356.475 70.6567 363.24 53.7955C360.342 52.6047 357.434 51.4244 354.557 50.1914C349.562 61.4989 345.209 73.0699 340.478 84.4934C335.461 69.6134 331.91 54.2592 327.368 39.1789L319.117 35.8805ZM147.396 55.6397C155.763 71.7948 164.12 87.9921 172.456 104.232L181.066 99.795C172.74 83.566 164.478 67.295 155.942 51.182C153.108 52.689 150.252 54.1643 147.396 55.6397ZM98.2349 101.207C97.1811 117.014 111.25 132.221 127.205 131.568C142.243 131.009 154.72 117.721 156.712 103.209C152.423 96.8864 146.648 91.4276 141.811 85.3997C135.888 90.4159 130.124 95.6113 124.159 100.575C125.94 102.788 127.784 104.948 129.639 107.098C133.264 104.105 136.668 100.87 140.398 98.0245C142.464 100.627 144.624 103.136 146.89 105.559C144.782 113.99 137.321 121.514 128.353 121.936C115.486 122.421 104.495 108.067 108.773 95.7904C111.629 87.4441 120.639 82.8705 129.08 82.7757C128.943 79.6142 128.901 76.4527 128.859 73.2913C113.684 73.2175 98.9304 85.7475 98.2349 101.207ZM349.551 107.751C351.996 109.996 354.451 112.22 356.928 114.422C361.322 112.43 365.601 110.207 370.101 108.415C376.276 114.222 382.747 119.754 389.017 125.435C387.489 129.945 385.908 134.445 384.391 138.955C386.909 141.242 389.396 143.581 392.136 145.626C398.28 126.657 404.624 107.688 410.778 88.7192C408.565 86.7591 406.352 84.7885 404.181 82.7862C385.919 91.0061 367.751 99.4472 349.551 107.751ZM236.275 95.6007C191.193 100.807 149.156 126.415 123.432 163.72C85.1358 218.888 85.1147 292.023 123.369 347.212C174.037 420.316 274.371 438.494 347.475 387.826C420.579 337.159 438.757 236.824 388.089 163.72C354.04 114.612 295.595 88.382 236.275 95.6007ZM101.776 404.593L106.223 408.755C108.647 406.205 111.07 403.655 113.526 401.147C116.687 404.076 119.849 407.101 123.01 410.094C124.328 408.745 125.624 407.385 126.941 406.037C123.78 402.97 120.46 400.051 117.457 396.805L121.493 392.927C124.991 396.415 128.585 399.798 132.179 403.181C133.443 401.758 134.697 400.346 135.909 398.881C130.798 394.192 125.835 389.397 120.818 384.56C114.411 391.188 107.983 397.785 101.776 404.593ZM390.861 384.95C385.845 387.9 382.23 392.706 378.078 396.7C384.665 403.023 390.945 409.736 397.479 416.153C401.694 411.474 407.206 407.786 410.199 402.148C413.192 396.51 406.3 389.86 400.588 392.727C402.011 387.331 395.825 382.22 390.861 384.95ZM366.697 405.52C370.006 410.568 373.958 415.215 376.856 420.516C378.963 424.731 373.694 429.526 369.605 427.998C367.624 427.208 366.444 425.353 365.179 423.72C362.492 419.873 359.805 416.037 357.128 412.201C355.431 413.403 353.745 414.615 352.07 415.848C355.358 420.305 358.393 424.963 361.702 429.421C363.957 432.519 367.645 434.911 371.629 434.406C375.897 433.71 379.669 431.255 382.041 427.64C384.38 424.068 383.685 419.304 381.419 415.879C378.342 411.137 374.948 406.627 371.755 401.979C370.059 403.149 368.372 404.329 366.697 405.52ZM141.062 403.265C137.469 408.956 132.885 414.088 130.092 420.242C127.131 427.851 134.792 435.164 142 435.66C145.994 435.913 149.503 433.341 151.695 430.211C154.825 425.785 157.881 421.307 160.874 416.765C159.167 415.637 157.47 414.499 155.774 413.361C153.086 417.281 150.41 421.201 147.744 425.121C146.584 426.681 145.446 428.473 143.528 429.252C139.408 430.896 134.128 426.175 136.152 421.876C138.944 416.491 142.907 411.822 146.152 406.711L141.062 403.265ZM166.438 420.063C165.648 421.791 164.868 423.53 164.099 425.269C166.607 426.407 169.115 427.587 171.592 428.82C168.43 435.333 165.49 441.94 162.286 448.432C164.141 449.38 166.027 450.287 167.935 451.151C170.907 444.554 174.174 438.104 177.061 431.476C179.643 432.53 182.172 433.699 184.67 434.943L187.188 429.79C180.265 426.491 173.373 423.224 166.438 420.063ZM329.465 427.261C333.227 435.691 337.569 443.785 341.521 452.099C347.496 449.264 353.387 446.261 359.341 443.384C358.519 441.688 357.708 440.001 356.886 438.315C352.755 440.286 348.698 442.404 344.524 444.301C341.363 437.788 338.296 431.234 334.903 424.858C333.027 425.469 331.257 426.386 329.465 427.208V427.261ZM193.669 432.182C191.066 440.981 188.569 449.802 186.008 458.612C192.331 460.098 198.485 463.344 205.082 462.827C211.194 462.111 212.838 453.638 208.244 450.013C213.365 448.179 214.809 440.644 209.993 437.62C204.977 434.701 199.075 433.984 193.669 432.129V432.182ZM304.036 439.337C299.684 446.24 302.73 456.536 310.233 459.845C317.42 463.249 326.662 459.529 329.887 452.342C328.211 451.488 326.536 450.656 324.839 449.865C322.816 453.332 318.895 456.188 314.701 455.029C308.484 453.417 306.102 444.185 311.202 440.044C314.132 437.441 318.242 438.21 321.625 439.337C322.384 437.504 323.153 435.681 323.922 433.858C317.146 430.601 308.02 432.709 304.036 439.285V439.337ZM229.605 441.835C222.291 444.301 218.413 453.269 221.322 460.351C224.019 467.822 233.356 471.279 240.543 468.455C247.646 466.01 251.419 457.442 248.9 450.455C246.445 442.689 236.939 438.948 229.605 441.782V441.835ZM258.574 442.668C259.154 451.804 259.723 460.93 260.282 470.067C266.879 469.804 273.465 469.308 280.051 468.876C279.946 467.021 279.851 465.167 279.777 463.323C275.204 463.565 270.651 463.902 266.078 464.113C265.677 456.82 265.129 449.538 264.718 442.257C262.674 442.32 260.619 442.457 258.574 442.615V442.668Z" fill="#D02030"/>
<path d="M262.505 37.8915C269.576 35.7944 277.227 38.1444 281.906 43.8456C288.46 51.8547 287.428 65.0169 279.408 71.656C272.421 77.6523 260.871 76.9252 254.654 70.1596C245.159 60.5803 249.163 41.5799 262.505 37.8915Z" fill="#D02030"/>
<path d="M190.665 47.091C196.914 46.0372 202.89 43.3078 209.286 43.2657C215.219 43.1287 218.971 50.1155 216.811 55.2687C215.504 58.3354 212.448 60.2322 209.35 61.128C204.597 62.4874 199.791 63.615 194.996 64.7953C193.584 58.8728 191.898 53.0452 190.665 47.091Z" fill="#D02030"/>
<path d="M378.352 104.81C385.381 101.49 392.431 98.2024 399.512 94.9355C397.068 102.312 394.58 109.752 392.136 117.161C387.488 113.051 382.894 108.972 378.352 104.81Z" fill="#D02030"/>
<path d="M204.123 112.715C220.542 106.814 237.856 103.768 255.308 103.705C204.808 154.384 154.225 204.967 103.557 255.456C103.662 238.184 106.634 221.059 112.367 204.767C113.168 202.027 115.623 200.33 117.488 198.339C145.425 170.433 173.352 142.507 201.268 114.57C202.058 113.738 203.038 113.105 204.123 112.715Z" fill="#D02030"/>
<path d="M277.596 125.368C283.034 119.635 288.693 114.124 294.31 108.57C305.133 111.479 315.618 115.536 325.588 120.668C316.988 129.552 308.02 138.067 299.484 147.014C292.044 139.943 285.015 132.461 277.596 125.368Z" fill="#D02030"/>
<path d="M271.568 132.02C281.79 142.347 292.17 152.527 302.371 162.876C302.276 173.814 302.371 184.753 302.371 195.692H271.484C271.568 174.52 271.42 153.244 271.568 132.02Z" fill="#D02030"/>
<path d="M209.392 162.665C219.572 152.58 229.552 142.274 239.879 132.336C240.765 136.456 240.417 140.682 240.427 144.866V195.681C230.089 195.681 219.751 195.681 209.413 195.681C209.392 184.69 209.392 173.678 209.392 162.665Z" fill="#D02030"/>
<path d="M321.098 168.61C331.521 158.536 341.637 148.135 351.923 137.934C359.879 144.457 367.172 151.739 373.695 159.685C363.367 169.938 353.198 180.35 342.765 190.488C335.62 183.09 328.159 176.029 321.098 168.61Z" fill="#D02030"/>
<path d="M364.558 212.185C373.347 203.449 382.083 194.649 390.903 185.902C396.12 195.914 400.166 206.484 402.959 217.422C397.374 222.881 391.904 228.445 386.372 233.946C379.048 226.738 371.776 219.488 364.558 212.185Z" fill="#D02030"/>
<path d="M147.143 224.926C157.302 214.662 167.566 204.503 177.704 194.26C177.788 235.254 177.704 276.258 177.767 317.252C167.397 307.177 157.259 296.86 147.048 286.628C147.28 266.057 147.216 245.486 147.143 224.926Z" fill="#D02030"/>
<path d="M334.007 194.598C344.303 204.725 354.451 214.989 364.673 225.159V286.154C354.757 296.597 344.345 306.598 334.197 316.82C334.112 276.111 334.492 235.339 334.007 194.598Z" fill="#D02030"/>
<path d="M195.608 201.068C235.812 201.174 276.015 201.016 316.219 201.142C316.155 235.444 316.219 269.757 316.219 304.059C316.261 312.437 310.412 319.687 302.224 321.415C290.305 322.669 278.218 321.004 266.32 322.3C262.231 324.071 259.323 327.696 255.782 330.341C251.514 327.18 247.994 321.573 242.082 321.911C231.881 321.668 221.659 322.111 211.521 321.7C202.658 321.067 195.324 312.805 195.619 303.953C195.566 269.651 195.398 235.36 195.608 201.068ZM201.13 206.411L201.004 210.711C205.662 209.236 211.479 211.449 212.68 216.486C213.576 222.556 212.364 228.752 213.302 234.801C214.704 239.47 220.31 238.89 224.146 238.722C226.96 238.88 229.468 236.941 230.005 234.169C230.722 228.025 229.352 221.702 230.753 215.653C233.051 208.814 243.863 208.529 246.561 215.232C248.553 221.692 246.403 228.7 247.804 235.254C248.837 237.583 251.24 238.985 253.769 238.732C257.32 238.816 262.284 239.407 263.991 235.391C265.561 228.879 263.433 221.934 265.182 215.464C267.616 208.624 278.597 208.656 280.989 215.464C282.57 221.597 280.989 228.11 281.843 234.327C282.433 236.888 284.741 238.69 287.365 238.627C291.264 238.795 297.007 239.522 298.504 234.78C299.368 228.668 298.093 222.408 299.168 216.317C300.39 211.364 306.144 209.204 310.76 210.637C310.707 209.204 310.644 207.771 310.591 206.337C274.087 206.422 237.603 206.443 201.13 206.411ZM201.13 234.685V259.914C205.567 258.597 211.047 260.388 212.554 265.067C213.913 271.337 212.259 277.892 213.429 284.173C214.946 288.704 220.458 288.104 224.251 287.935C226.981 288.072 229.426 286.228 230.047 283.562C230.933 277.239 229.183 270.526 231.101 264.33C233.831 257.733 244.58 258.007 246.814 264.877C248.51 271.316 246.445 278.208 247.962 284.679C249.701 288.62 254.538 288.041 258.069 287.967C260.83 288.262 263.422 286.586 264.286 283.941C265.34 277.681 263.749 271.19 265.14 264.972C267.395 257.743 278.955 257.785 281.179 264.972C282.57 271.179 281.031 277.618 282.001 283.941C283.381 288.631 289.03 288.083 292.866 287.904C295.543 288.041 297.956 286.281 298.651 283.688C299.379 277.566 298.124 271.285 299.336 265.215C300.738 260.441 306.281 258.565 310.76 259.861C310.76 251.431 310.76 243.053 310.707 234.643C306.871 234.822 301.476 233.589 299.442 237.9C297.619 244.612 300.306 251.979 297.903 258.576C294.942 265.036 284.298 264.372 282.243 257.522C280.884 251.252 282.507 244.697 281.358 238.416C279.841 233.874 274.319 234.506 270.535 234.664C267.827 234.538 265.403 236.35 264.781 238.996C264.065 245.129 265.372 251.431 264.065 257.501C262.273 263.371 253.822 265.015 249.775 260.515C246.129 256.605 247.667 250.851 247.393 246.046C247.13 242.779 248.331 238.732 245.623 236.203C243.283 234 239.785 234.717 236.876 234.633C234.189 234.432 231.301 235.908 230.553 238.627C229.594 244.95 231.133 251.378 229.71 257.596C227.602 264.488 216.801 264.972 213.987 258.386C211.7 251.768 214.366 244.412 212.459 237.752C210.246 233.537 204.893 234.865 201.088 234.685H201.13ZM201.13 283.931C201.13 291.708 201.046 299.485 201.13 307.262C201.173 311.91 204.829 315.725 209.466 315.967C219.952 316.188 230.448 315.883 240.933 316.104C246.455 316.02 251.798 318.085 255.824 321.868C259.533 318.844 263.875 316.283 268.818 316.209C279.904 315.777 291.022 316.209 302.118 315.977C306.829 315.809 310.56 311.931 310.549 307.21C310.676 299.443 310.549 291.676 310.549 283.92C306.682 284.047 301.181 282.866 299.199 287.229C297.619 293.742 299.758 300.697 297.998 307.178C295.659 313.701 285.352 314.123 282.496 307.821C280.115 301.245 282.728 293.921 280.989 287.229C279.177 283.077 274.024 283.867 270.356 283.941C267.574 283.794 265.108 285.691 264.539 288.42C264.086 293.963 264.76 299.538 264.244 305.081C263.728 308.896 260.693 311.878 256.867 312.321C252.652 312.858 248.679 310.192 247.583 306.082C246.529 299.938 247.931 293.605 246.845 287.472C245.307 283.362 240.354 283.783 236.792 283.899C233.947 283.657 230.848 285.322 230.311 288.293C229.489 294.543 231.059 301.034 229.447 307.168C227.012 314.028 216 313.996 213.639 307.115C211.858 300.655 214.008 293.7 212.438 287.219C210.446 282.782 204.945 284.12 201.078 283.931H201.13Z" fill="#D02030"/>
<path d="M255.982 407.943C306.829 357.359 357.392 306.438 408.218 255.812C407.385 273.58 405.056 291.484 398.565 308.177C398.164 308.967 397.637 309.674 396.995 310.285C368.151 339.086 339.34 367.929 310.581 396.804C309.685 397.805 308.558 398.553 307.293 398.996C290.822 404.887 273.476 407.911 255.982 407.943Z" fill="#D02030"/>
<path d="M108.552 294.331L125.223 277.648C132.495 284.899 139.756 292.16 146.995 299.42C138.206 308.188 129.428 316.967 120.65 325.766C115.465 315.765 111.408 305.227 108.552 294.331Z" fill="#D02030"/>
<path d="M137.901 351.923C148.228 341.733 158.493 331.479 168.683 321.162C175.986 328.381 183.279 335.621 190.466 342.966C180.191 353.209 169.937 363.463 159.694 373.737C151.685 367.256 144.371 359.943 137.901 351.923Z" fill="#D02030"/>
<path d="M209.392 326.977C219.73 327.43 230.089 327.071 240.448 327.198C240.448 344.712 240.343 362.227 240.448 379.742C229.784 369.741 219.688 359.139 209.297 348.865C209.466 341.562 209.392 334.269 209.392 326.977Z" fill="#D02030"/>
<path d="M271.484 327.106C281.769 327.19 292.054 327.38 302.329 326.969C302.255 334.082 302.329 341.206 302.329 348.33C301.317 349.816 300.116 351.175 298.767 352.355C289.641 361.334 280.736 370.534 271.568 379.449C271.441 361.998 271.568 344.557 271.484 327.106Z" fill="#D02030"/>
<path d="M185.934 390.872C194.787 382.188 203.386 373.262 212.28 364.621C219.425 371.903 226.686 379.069 233.894 386.288C228.498 391.978 222.797 397.374 217.349 403.012C206.421 400.251 195.872 396.173 185.934 390.872Z" fill="#D02030"/>
<path d="M386.235 396.742C387.911 394.834 389.755 393.095 391.768 391.546C393.591 389.913 396.563 392.273 395.751 394.434C394.465 397.005 392.063 398.754 390.071 400.757L386.235 396.742Z" fill="#D02030"/>
<path d="M400.525 398.184C402.696 396.424 405.963 399.702 404.266 401.894C402.517 404.423 400.051 406.362 397.943 408.554C396.51 407.184 395.109 405.803 393.728 404.391C395.983 402.294 398.028 399.912 400.525 398.184Z" fill="#D02030"/>
<path d="M197.906 439.549C200.551 440.445 203.544 440.74 205.873 442.405C206.885 443.416 206.885 445.06 205.883 446.072C205.42 446.536 204.809 446.799 204.155 446.831C201.5 446.483 198.886 445.882 196.346 445.029C196.863 443.248 197.39 441.372 197.906 439.549Z" fill="#D02030"/>
<path d="M231.775 447.767C237.539 444.974 244.421 450.739 243.114 456.904C242.661 462.331 236.264 466.009 231.417 463.342C225.199 460.581 225.484 450.296 231.775 447.767Z" fill="#D02030"/>
<path d="M194.84 449.99C198.001 451.044 201.679 451.255 204.387 453.373C206.189 455.006 204.324 458.379 201.974 457.873C199.034 457.304 196.136 456.534 193.301 455.586C193.828 453.721 194.344 451.845 194.84 449.99Z" fill="#D02030"/>
<path d="M239.827 132.137C245.117 126.805 250.428 121.493 255.75 116.203C261.019 121.472 266.341 126.678 271.557 132.011C271.442 153.235 271.557 174.459 271.505 195.683C261.146 195.683 250.787 195.683 240.427 195.683C240.427 178.748 240.427 161.802 240.427 144.867C240.427 140.652 240.765 136.437 239.879 132.337L239.827 132.137Z" fill="#FDB713"/>
<path d="M177.778 194.259C188.253 183.668 198.791 173.13 209.392 162.645C209.445 173.657 209.392 184.669 209.392 195.682C203.069 195.682 196.725 195.682 190.35 195.682C190.097 231.765 190.287 267.869 190.255 303.962C189.791 315.08 198.686 325.039 209.392 326.957C209.392 334.249 209.466 341.542 209.319 348.845C198.78 338.307 188.147 327.926 177.82 317.23C177.704 276.257 177.841 235.253 177.778 194.259Z" fill="#FDB713"/>
<path d="M302.34 162.93C313.015 173.373 323.659 183.89 334.007 194.65C334.492 235.391 334.113 276.163 334.197 316.894C323.659 327.432 313.279 338.054 302.582 348.392C302.435 341.247 302.487 334.103 302.53 326.958C310.138 325.419 316.535 320.297 319.696 313.205C322.173 307.673 321.435 301.476 321.53 295.596C321.583 262.369 321.435 229.142 321.604 195.914C315.175 195.546 308.726 195.851 302.287 195.725C302.319 184.754 302.245 173.816 302.34 162.93Z" fill="#FDB713"/>
<path d="M116.224 255.666C126.593 245.486 136.699 235.032 147.143 224.926C147.206 245.486 147.28 266.025 147.143 286.627C136.763 276.352 126.361 266.13 116.224 255.666Z" fill="#FDB713"/>
<path d="M364.674 225.199C375.001 235.263 385.076 245.57 395.319 255.76C385.149 265.961 375.128 276.32 364.674 286.237C364.716 265.856 364.716 245.506 364.674 225.199Z" fill="#FDB713"/>
<path d="M240.449 327.198C241.829 327.377 243.473 326.903 244.664 327.852C248.616 330.729 251.977 334.322 255.792 337.336C259.628 334.269 263.074 330.739 267.058 327.852C268.322 326.903 270.029 327.262 271.494 327.051V379.394V379.616C266.225 384.769 261.009 390.091 255.687 395.286C250.639 390.017 245.149 385.201 240.396 379.689C240.343 362.227 240.406 344.713 240.449 327.198Z" fill="#FDB713"/>
</g>
<defs>
<clipPath id="clip0_882_24636">
<rect width="511.877" height="512" fill="white" transform="translate(0.278809 0.0507812)"/>
</clipPath>
</defs>
</svg>
