<svg width="288" height="513" viewBox="0 0 288 513" fill="none" xmlns="http://www.w3.org/2000/svg">
<g clip-path="url(#clip0_795_4180)">
<path d="M0.692383 61.1821H287.777L244.62 471.728L144.235 413.77L43.8427 471.728L0.692383 61.1821Z" fill="#FEDD00"/>
<path d="M13.5229 72.7393L53.4737 452.825L144.235 400.427L234.989 452.825L274.94 72.7393H13.5229Z" fill="black"/>
<path d="M244.108 173.56L249.823 119.032L204.516 92.8652H83.947L38.6465 119.032L70.2717 419.9L227.777 328.954L234.816 261.947L189.497 235.78L183.641 291.499L109.333 334.374L89.6743 147.368H198.788L192.933 203.086L244.108 173.56ZM185.542 405.944L180.487 403.058V398.674L185.536 395.743L185.625 400.863L195.659 400.805L195.602 390.272L189.03 394.207L180.519 389.376V374.165L185.568 371.228H195.691L200.811 374.12V403.013L195.691 405.95L185.542 405.944ZM185.6 386.343L188.998 388.262L195.608 384.384V376.328L185.632 376.385L185.6 386.343ZM210.877 405.944L205.828 403.058L205.796 374.165L210.845 371.228H220.968L226.088 374.12V378.497L220.968 381.428L220.879 376.36L210.845 376.417L210.902 386.899L217.526 383.021L226.043 387.84V403.013L220.924 405.95L210.877 405.944ZM210.877 392.761L210.909 400.869L220.943 400.811L220.885 390.822L217.564 388.947L210.877 392.761Z" fill="white"/>
<path d="M202.942 512.543L191.589 506.041L180.378 512.543H173.793L173.735 470.16L180.32 466.321L180.41 504.864L188.39 500.231V470.154L195 470.096L195.058 500.275L202.967 504.864L202.884 466.423L209.591 470.135V512.568L202.942 512.543ZM144.587 512.543L144.529 467.306L164.84 467.242L168.68 473.897L151.165 473.981L151.223 486.651L161.097 486.594L164.936 493.243L151.146 493.345L151.204 505.945L168.61 505.887L168.667 512.562L144.587 512.543ZM131.481 512.543L131.436 496.385L126.208 493.383L118.35 497.927V512.485L111.739 512.543L111.682 467.306L131.468 467.242L138.123 471.018V486.453L132.774 489.557L138.098 492.507V512.543H131.481ZM118.363 490.286L131.436 482.575V473.923L118.375 473.981L118.363 490.286ZM85.4638 512.543L78.8789 508.767L78.847 471.069L85.4318 467.229H98.6399L105.289 471.005L105.321 476.707L98.6719 480.546L98.5823 473.936L85.4638 473.993L85.5214 505.939L98.6399 505.881L98.5823 499.322L105.289 503.033L105.321 508.735L98.6527 512.575L85.4638 512.543ZM255.147 46.7903L248.543 43.0147V37.3194L255.128 33.4798L255.218 40.1543L268.336 40.0967L268.278 30.8049L248.543 19.459V5.32297L255.128 1.4834H268.336L274.972 5.27178V10.9671L268.323 14.8067L268.24 8.19625L255.122 8.25384L255.179 15.6642L274.972 26.9525V42.9507L268.31 46.7903H255.147ZM222.3 46.7903L215.715 43.0147V4.41428L222.293 0.574707L222.383 40.1543L235.501 40.0967L235.418 0.651498L242.144 4.36308V42.9699L235.482 46.8095L222.3 46.7903ZM182.899 46.7903L182.842 1.5602L202.628 1.5026L209.277 5.27178L209.309 19.0814L203.959 22.1851L209.277 25.1351L209.309 42.9699L202.647 46.8095L182.899 46.7903ZM189.484 30.5553V40.1543L202.603 40.0967L202.545 28.9875L197.349 26.031L189.484 30.5553ZM189.484 22.9146L202.577 15.2675V8.17705L189.516 8.23465L189.484 22.9146ZM169.781 46.7903L169.723 9.22014L161.513 14.0708V46.7071L154.902 46.7647L154.864 14.0388L146.545 9.28413L146.628 46.7519L140.018 46.8095L139.934 1.5602L146.545 1.5026L158.192 8.27944L169.755 1.509H176.404L176.462 46.7967L169.781 46.7903ZM113.704 46.7903L107.119 43.0147V4.43987L113.704 0.600304L113.793 40.1799L126.912 40.1223L126.822 0.651498L133.529 4.36308V42.9699L126.867 46.8095L113.704 46.7903ZM79.2373 46.7903L79.1797 1.5602L85.7902 1.5026L85.8478 40.1799L103.279 40.1223L99.5486 46.7903H79.2373ZM52.9427 46.7903L46.3578 43.0147V5.32297L52.9427 1.4834H66.1444L72.7996 5.25258V42.9507L66.138 46.7903H52.9427ZM53.0003 40.1799L66.1188 40.1223L66.0612 8.17705L53.0003 8.23465V40.1799ZM20.0888 46.7903L13.5039 43.0147V5.32297L20.0888 1.4834H33.2969L39.9265 5.27178V10.9671L33.2777 14.8067L33.1945 8.19625L20.076 8.25384L20.1336 40.1991L33.2521 40.1415L33.1945 33.5758L39.9265 37.2682V42.9699L33.2649 46.8095L20.0888 46.7903Z" fill="black"/>
</g>
<defs>
<clipPath id="clip0_795_4180">
<rect width="287.085" height="512" fill="white" transform="translate(0.692383 0.574707)"/>
</clipPath>
</defs>
</svg>
