<svg width="1025" height="404" viewBox="0 0 1025 404" fill="none" xmlns="http://www.w3.org/2000/svg">
<g clip-path="url(#clip0_835_506)">
<path d="M1024.08 121.777C1025.24 119.79 1024.03 118.301 1021.49 118.301C1008.3 118.301 991.035 118.356 977.352 118.356C974.097 118.356 972.387 118.742 970.842 121.777C965.766 131.487 904.03 224.009 892.554 241.94C890.623 244.698 888.251 244.312 887.975 241.167C886.816 230.519 877.603 218.216 863.093 212.368C852.058 207.899 841.19 207.071 829.99 208.561C809.687 211.264 791.591 222.023 775.701 234.05C751.757 252.257 731.068 275.87 704.365 293.359C689.8 302.849 669.828 311.124 656.476 298.766C644.394 287.566 645.773 262.684 664.255 243.429C666.186 241.388 668.559 243.098 668.173 244.919C666.407 253.636 668.559 262.298 675.179 268.367C683.234 275.594 694.765 276.422 704.641 271.567C716.282 265.774 723.123 254.629 725.164 241.995C728.254 222.354 713.137 205.03 694.213 203.651C678.821 202.547 664.09 207.899 649.745 219.761C642.573 225.719 638.435 230.133 632.256 239.016C630.766 241.167 628.394 241.388 628.504 238.188C629.222 213.03 618.849 198.906 598.05 198.41C581.94 198.023 564.671 206.796 551.265 217.499C536.534 229.305 523.679 245.029 509.886 259.76C508.176 261.581 506.686 261.47 506.19 257.939C505.748 241.278 501.61 225.168 493.886 213.692C491.183 209.72 485.445 207.733 480.59 210.437C478.383 211.651 470.604 215.237 464.977 219.761C462.163 222.078 461.115 225.388 462.328 229.692C469.777 254.574 468.121 282.877 458.025 306.766C448.756 328.669 430.715 348.42 409.529 355.096C395.571 359.51 381.061 357.358 372.068 345C359.765 327.952 364.73 298.214 383.102 273.608C399.323 251.926 422.771 238.133 446.163 229.25C448.922 228.202 449.473 226.437 448.701 224.064C447.432 220.202 445.391 214.961 444.563 212.589C442.412 206.906 436.398 205.968 429.06 206.74C412.067 208.727 396.73 214.52 381.558 222.63C341.889 243.871 322.028 284.973 313.311 306.987C309.118 317.58 305.532 324.145 300.897 329.993C294.663 337.827 286.773 345 272.429 357.634C271.105 358.792 270.167 361.22 271.27 363.427C272.76 366.461 280.208 376.999 282.304 377.937C284.622 379.096 287.38 377.496 288.428 376.723C298.47 369.937 310.497 359.124 316.4 351.786C318.442 349.303 320.593 350.351 321.697 354.158C327.214 373.744 341.558 389.744 361.42 396.419C397.778 408.667 435.515 390.902 463.984 360.006C482.08 340.365 488.59 327.731 495.542 319.124C507.293 304.559 530.465 271.953 558.106 251.043C568.257 243.319 580.229 237.471 586.243 241.333C591.098 244.478 592.643 251.76 584.864 265.884C556.726 317.304 515.293 377.716 507.679 392.392C506.3 394.93 507.514 396.916 510.162 396.916C524.893 396.861 539.513 396.861 552.865 396.861C555.071 396.75 556.064 395.757 557.223 394.157C578.85 360.337 599.153 328.117 620.946 294.849C622.16 292.863 623.263 294.408 623.318 295.29C623.76 303.014 625.691 313.607 630.27 320.504C638.49 333.303 650.187 338.82 663.152 338.931C673.469 339.041 678.655 337.496 689.8 333.359C698.848 329.993 706.13 325.579 711.647 321.607C714.903 319.345 715.454 323.152 715.399 323.704C710.379 350.572 716.558 382.351 743.261 395.592C775.205 411.316 810.294 389.192 830.486 369.22C832.473 367.289 834.569 367.51 834.79 371.647C835.231 379.261 838.652 388.309 844.997 394.654C861.934 411.647 896.03 404.916 930.291 378.378C952.305 361.386 975.311 337.386 996.111 312.007C996.883 311.014 997.435 309.469 995.945 307.869C992.8 304.559 988.221 300.752 985.076 297.828C983.642 296.614 981.546 296.945 980.332 297.883C959.036 318.131 939.836 341.248 912.085 360.392C902.761 366.903 887.809 372.199 881.134 363.151C878.541 359.62 878.816 354.765 881.41 348.365C889.409 328.172 1017.46 133.307 1024.08 121.777ZM854.872 285.194C855.148 286.684 857.079 288.118 859.01 288.835C859.672 289.056 860.058 289.552 859.286 291.152C853.824 302.794 848.858 309.525 842.017 319.676C835.728 329.055 828.666 336.338 820.114 343.345C807.204 354.048 789.273 365.634 774.432 357.855C767.867 354.434 764.998 345.22 765.108 337.772C765.439 316.807 774.763 295.235 791.977 274.105C812.997 248.229 836.224 234.823 851.452 242.16C867.231 249.664 862.21 267.925 855.148 282.27C854.651 283.373 854.596 284.311 854.872 285.194Z" fill="#00095B"/>
<path d="M95.6046 396.144C47.8815 396.475 5.84092 367.013 1.04101 315.925C-1.66238 287.622 6.33746 262.408 22.3923 241.664C36.5713 223.182 60.626 207.789 80.9842 204.037C87.6048 202.823 96.4874 203.596 100.184 207.954C105.977 214.685 104.267 222.023 98.5287 225.002C83.0256 232.947 64.3225 246.519 55.1089 265.001C47.6056 280.118 46.116 298.38 57.5364 315.704C76.6809 344.669 130.142 345.441 179.796 299.263C192.099 287.953 203.078 277.139 214.278 264.284C236.181 239.292 243.409 230.133 272.539 189.803C272.87 189.362 272.98 188.7 272.815 188.424C272.594 187.927 272.153 187.762 271.325 187.706C251.905 188.258 234.967 194.051 218.526 206.354C213.782 209.83 206.995 209.334 203.961 204.754C200.651 199.623 203.023 192.893 208.485 189.141C234.967 170.714 263.877 167.403 293.394 162.438C293.394 162.438 295.435 162.548 297.145 160.286C309.283 144.728 318.441 130.715 331.352 114.991C344.372 99.0462 361.199 84.3706 374.054 73.3915C391.985 57.9436 403.46 52.7575 415.157 46.4128C418.246 44.8128 414.771 42.8818 413.833 42.8818C348.565 30.6338 280.76 14.7444 215.933 38.744C171.079 55.516 151.383 91.1015 160.872 114.88C167.603 131.763 189.782 134.466 210.582 124.315C227.85 115.873 243.795 102.246 255.105 84.7017C261.45 74.9915 274.801 81.9983 267.574 98.8807C248.595 143.459 212.347 178.824 168.21 180.314C130.638 181.527 106.418 153.886 106.473 119.791C106.639 52.5368 181.506 8.2894 260.125 1.61367C354.855 -6.22065 444.563 18.9926 538.63 30.4131C610.684 39.1302 679.813 39.3509 752.198 22.6891C760.75 20.8133 766.763 26.2752 766.212 34.9371C765.495 47.461 755.84 59.4884 731.95 72.5088C704.806 87.4051 676.448 91.8739 646.766 92.1498C575.098 92.7567 508.286 64.7848 439.211 49.7782C439.322 52.8126 440.094 56.3988 437.556 58.3298C399.323 86.5775 364.73 115.267 341.558 155.542C340.786 156.48 341.227 157.362 342.551 157.252C362.689 156.204 380.785 155.652 399.543 154.162C402.798 153.886 402.964 153.059 402.633 150.687C400.978 136.783 405.005 121.004 417.253 110.08C429.722 98.8807 445.391 97.6117 455.763 105.667C467.57 114.88 466.521 131.377 460.066 143.79C453.501 156.369 442.687 163.1 432.26 166.355C432.26 166.355 430.108 166.852 430.384 168.838C430.825 172.038 445.004 179.872 446.218 181.969C447.377 183.955 446.77 187.044 444.618 189.417C443.129 191.127 440.756 192.727 437.777 192.672C435.349 192.617 433.86 191.789 430.77 190.079C424.426 186.603 416.481 180.976 411.129 174.3C409.309 172.038 408.426 171.983 403.902 172.259C383.599 173.417 351.875 176.507 330.414 179.155C325.228 179.817 324.455 180.755 323.352 182.576C289.09 239.016 252.567 299.925 212.457 340.641C169.424 384.337 133.618 395.868 95.6046 396.144ZM421.888 145.28C422.439 148.204 423.543 148.756 424.867 148.48C431.377 147.156 438.549 141.804 442.742 135.625C446.604 129.997 448.425 121.832 444.563 118.577C441.142 115.653 435.625 116.48 431.488 120.122C423.322 127.349 420.784 137.666 421.888 145.28Z" fill="#00095B"/>
</g>
<defs>
<clipPath id="clip0_835_506">
<rect width="1024" height="403.84" fill="white" transform="translate(0.523438 0.130859)"/>
</clipPath>
</defs>
</svg>
