<svg width="724" height="513" viewBox="0 0 724 513" fill="none" xmlns="http://www.w3.org/2000/svg">
<g clip-path="url(#clip0_879_3680)">
<path d="M234.044 298.743C234.752 307.228 237.767 324.113 247.524 342.953C259.581 366.219 284.84 397.241 336.936 414.81C345.204 427.795 354.933 439.932 365.947 450.914C405.547 490.421 458.153 512.139 514.073 512.051C570 511.971 622.539 490.107 662.023 450.476C701.506 410.86 723.219 358.223 723.131 302.27C723.043 246.303 701.191 193.733 661.598 154.225C630.222 122.919 590.863 102.778 547.562 95.7908C488.942 42.6789 420.507 61.71 417.573 62.5635C416.587 62.8404 415.121 63.2649 413.296 63.8189C392.233 70.8289 381.344 62.7968 374.287 57.2619C366.471 51.1279 357.939 44.8991 349.706 40.2689C321.746 24.5313 282.007 23.9699 248.537 37.4721C226.489 44.9864 215.373 35.2669 208.798 30.724C165.133 0.579495 111.446 -6.61419 54.4898 5.93223C16.1371 14.3888 0.796875 22.1952 0.796875 22.1952C0.796875 22.1952 27.0714 26.0065 54.5199 37.4872C77.0568 46.9072 94.9741 59.0005 108.541 80.7185C108.541 80.7185 117.08 93.265 111.534 96.9664C105.323 101.107 98.8561 90.9709 98.8561 90.9709C98.6439 98.2655 98.6439 105.525 99.1256 111.038C102.279 168.969 114.086 203.765 142.011 230.354C154.717 242.448 176.152 254.211 209.272 267.232C224.379 273.279 232.554 281.026 234.043 298.742" fill="#FFFFFE"/>
<path d="M652.156 163.689C621.781 133.384 583.223 114.265 541.491 108.395C487.083 56.3049 421.288 75.3947 421.288 75.3947C435.228 77.469 444.489 85.7856 440.92 95.0023C438.547 101.093 428.424 101.413 423.797 101.458C409.098 101.62 396.407 92.5999 386.277 84.3631C375.746 75.7906 358.557 60.5783 343.158 51.9185C314.491 35.7865 268.971 37.7961 236.027 58.8413C255.725 60.1779 279.43 65.8513 293.566 77.5653C301.455 84.1087 311.519 97.2603 303.287 103.402C296.054 108.806 278.283 106.016 269.248 100.78C254.885 92.4614 241.946 79.8503 234.195 70.7073C182.049 9.24112 108.175 5.8091 47.2495 20.8678C87.237 32.0986 113.919 54.8899 130.399 94.179C146.886 133.467 159.687 150.19 186.844 160.837C203.849 167.496 208.447 168.73 207.118 176.275C205.163 187.316 185.019 182.014 169.657 176.011C150.937 168.702 126.276 148.51 111.591 110.639C114.263 159.639 123.604 194.385 151.206 220.674C162.935 231.833 184.471 243.378 218.176 256.355C239.691 264.643 256.726 269.66 272.752 284.025C291.443 300.777 283.48 311.841 271.082 309.744C257.054 307.378 247.041 293.043 247.041 293.043C247.041 293.043 247.064 372.875 345.684 403.604C353.896 417.231 363.82 429.937 375.374 441.452C412.449 478.447 461.698 498.77 514.049 498.69C566.406 498.61 615.597 478.148 652.57 441.044C689.536 403.947 709.862 354.669 709.773 302.281C709.701 249.899 689.235 200.68 652.153 163.692" fill="#002244"/>
<path d="M641.741 173.621C612.322 144.191 574.561 126.147 533.807 121.684C498.739 86.7123 463.75 88.356 463.75 88.356C479.105 97.9883 471.188 119.428 437.032 124.153C403.204 128.827 360.239 117.354 339.316 92.9636C317.75 67.8287 301.467 66.6816 301.467 66.6816C320.173 78.3731 321.501 92.4082 332.857 113.791C344.212 135.18 367.589 142.854 387.951 144.191C409.401 145.6 409.926 155.313 392.629 165.581C373.764 176.768 357.064 166.195 344.927 154.233C325.762 135.319 306.677 131.697 280.302 132.033C253.926 132.369 219.061 135.838 189.627 124.818C160.193 113.791 140.787 75.0359 140.787 75.0359C155.34 126.489 187.679 150.88 217.696 156.774C257.348 164.551 284.76 173.992 301.532 187.583C317.909 200.873 326.631 214.129 332.783 232.421C337.533 246.522 338.381 265.246 333.695 266.371C328.228 267.671 327.105 260.134 320.661 246.99C313.545 232.474 305.05 221.08 287.914 211.939C264.69 199.546 241.964 200.262 218.792 200.583C200.436 200.839 189.672 198.736 189.672 198.736C189.672 198.736 190.438 201.218 220.347 207.938C253.67 215.416 285.907 234.212 307.363 280.036C325.616 319.01 316.092 346.438 275.652 334.024C275.652 334.024 294.54 376.036 356.232 390.998C364.195 405.005 374.09 418.025 385.783 429.73C419.968 463.928 465.415 482.761 513.758 482.761C562.102 482.761 607.541 463.927 641.741 429.73C675.918 395.518 694.741 350.044 694.741 301.665C694.741 253.3 675.92 207.825 641.741 173.621Z" fill="#4B92DB"/>
<path d="M513.758 129.434C559.736 129.434 602.965 147.346 635.479 179.88C668 212.413 685.902 255.665 685.902 301.665C685.902 396.642 608.679 473.918 513.758 473.918C467.779 473.918 424.551 455.997 392.03 423.464C359.516 390.931 341.614 347.678 341.614 301.665C341.614 255.665 359.516 212.413 392.03 179.88C424.551 147.346 467.778 129.434 513.758 129.434Z" fill="#FFFFFE"/>
<path d="M513.977 459.056C427.12 459.187 356.589 388.827 356.458 301.912C356.334 214.99 426.66 144.424 513.524 144.301C600.388 144.17 670.918 214.537 671.042 301.453C671.173 388.374 600.855 458.94 513.977 459.056Z" fill="#002244"/>
<path d="M475.295 269.832H428.682L413.319 297.238L392.658 238.629H634.413L613.788 297.238L598.548 269.832H552.724L513.912 439.727L475.295 269.832Z" fill="#FFFFFE"/>
<path d="M634.413 238.629H392.658L396.576 249.736H511.852L475.295 269.832L513.912 439.704V249.736H630.508L634.413 238.629Z" fill="#A5ACAF"/>
<path d="M395.073 102.692C360.02 101.691 345.729 87.7807 323.953 70.2835C297.306 48.865 267.749 54.8319 267.749 54.8319C285.448 44.6954 320.253 44.2799 345.323 66.2749C367.721 85.9262 378.713 96.588 395.075 102.693L395.073 102.692ZM95.8364 25.4309C134.919 18.2011 167.687 30.4254 192.466 74.3657C216.711 117.356 261.019 118.502 261.019 118.502C227.38 128.039 181.409 119.378 157.31 76.1104C128.642 24.6347 95.8364 25.4309 95.8364 25.4309ZM281.534 274.66C262.274 248.012 232.03 241.667 190.808 230.611C131.787 214.779 131.328 163.275 131.328 163.275C131.328 163.275 140.167 198.992 208.756 212.954C276.892 226.83 281.534 274.661 281.534 274.661V274.66ZM537.382 223.491L513.756 206.521L490.387 223.857L499.226 196.129L475.529 179.259L504.612 178.908L513.333 151.327L522.47 178.908H551.561L528.112 195.901L537.382 223.491ZM433.601 321.039L430.718 350.008L457.408 361.582L428.989 367.782L426.237 396.758L411.546 371.637L383.162 377.968L402.502 356.229L387.716 331.166L414.347 342.858L433.599 321.037L433.601 321.039ZM569.911 362.211L596.426 350.22L593.105 321.302L612.686 342.823L639.127 330.73L624.736 356.011L644.405 377.444L615.927 371.559L601.63 396.906L598.432 367.981L569.911 362.211Z" fill="#C60C30"/>
</g>
<defs>
<clipPath id="clip0_879_3680">
<rect width="722.334" height="512" fill="white" transform="translate(0.796875 0.0507812)"/>
</clipPath>
</defs>
</svg>
