<svg width="1024" height="278" viewBox="0 0 1024 278" fill="none" xmlns="http://www.w3.org/2000/svg">
<g clip-path="url(#clip0_740_15)">
<path d="M969.224 132.351L1023.99 277.365C1007.85 275.057 991.714 272.169 975.276 269.575L944.425 189.437L912.717 262.951C897.153 260.357 881.865 259.484 866.301 257.469L921.943 130.621L871.489 0.608643H918.199L946.448 73.25L976.72 0.608643H1023.99L969.224 132.351ZM834.594 0.608643H792.216V251.996C806.051 252.86 820.465 253.431 834.594 255.161V0.608643ZM755.597 249.108C716.972 246.514 678.338 244.214 638.848 243.34V0.608643H682.082V202.407C706.881 202.986 731.671 205.001 755.597 206.151V249.108ZM592.718 98.9136V142.156H533.626V240.461H490.954V0.608643H612.035V43.8511H533.626V98.9136H592.718ZM418.304 43.8511V242.77C403.89 242.77 389.191 242.77 375.062 243.34V43.8511H330.375V0.608643H463.276V43.8511H418.304ZM283.674 144.456C264.651 144.456 242.161 144.456 226.018 145.329V209.618C251.387 207.88 276.757 205.865 302.412 205.001V246.514L182.775 256.034V0.608643H302.412V43.8511H226.018V102.078C242.74 102.078 268.395 101.214 283.674 101.214V144.456ZM44.1071 120.245V271.304C28.5429 273.042 14.6995 275.057 0 277.365V0.608643H41.2277L97.4403 157.729V0.608643H140.683V259.484C125.404 262.087 109.84 262.951 93.4023 265.251L44.1071 120.245Z" fill="#E50914"/>
</g>
<defs>
<clipPath id="clip0_740_15">
<rect width="1024" height="276.757" fill="white" transform="translate(0 0.608643)"/>
</clipPath>
</defs>
</svg>
