<svg width="928" height="513" viewBox="0 0 928 513" fill="none" xmlns="http://www.w3.org/2000/svg">
<g clip-path="url(#clip0_807_2859)">
<path d="M167.518 48.8901C196.864 18.0599 235.79 0.0507812 281.522 0.0507812C370.611 0.0507812 429.678 65.0975 440.979 162.542C444.643 194.187 444.61 238.801 444.573 290.476C444.568 295.776 444.565 301.15 444.565 306.592V500.176H322.05V356.995C322.05 356.995 321.8 234.452 321.051 211.55C317.763 111.803 258.712 49.1263 167.506 49.0589C139.988 78.1317 125.244 113.678 123.069 168.03C122.77 175.611 122.846 202.481 122.945 237.896C122.996 256.244 123.054 276.888 123.069 298.329C123.16 391.656 123.069 500.196 123.069 500.196H0.554696V279.843C0.554696 272.292 0.417096 264.678 0.278963 257.033C0.00108087 241.656 -0.278963 226.16 0.554696 210.816C1.93891 185.236 6.36387 160.091 18.2998 136.731C45.6211 83.2156 101.603 48.7589 161.283 48.7589C163.368 48.7589 165.454 48.8028 167.518 48.8901Z" fill="#820AD1"/>
<path d="M927.445 301.286C928.279 285.942 927.999 270.445 927.722 255.069C927.583 247.424 927.445 239.81 927.445 232.259V11.905H804.931C804.931 11.905 804.84 120.446 804.931 213.771C804.946 235.213 805.003 255.854 805.055 274.203C805.154 309.619 805.229 336.49 804.931 344.07C802.757 398.424 788.011 433.97 760.495 463.043C669.29 462.974 610.24 400.298 606.951 300.552C606.202 277.65 605.885 220.816 605.885 154.992V11.8115L483.461 11.9259V205.51C483.461 210.952 483.456 216.325 483.453 221.626C483.415 273.301 483.383 317.914 487.047 349.56C498.323 447.005 557.391 512.051 646.48 512.051C692.213 512.051 731.139 494.042 760.485 463.211C762.547 463.299 764.632 463.342 766.717 463.342C826.397 463.342 882.379 428.886 909.701 375.371C921.637 352.01 926.061 326.866 927.445 301.286Z" fill="#820AD1"/>
</g>
<defs>
<clipPath id="clip0_807_2859">
<rect width="928" height="512" fill="white" transform="translate(0 0.0507812)"/>
</clipPath>
</defs>
</svg>
