<svg width="513" height="513" viewBox="0 0 513 513" fill="none" xmlns="http://www.w3.org/2000/svg">
<g clip-path="url(#clip0_832_399)">
<path d="M256.523 0.0507812C188.643 0.0507812 123.483 27.0388 75.5234 75.0308C27.5234 123.023 0.523438 188.183 0.523438 256.051C0.523438 323.919 27.5234 389.079 75.5234 437.071C123.483 485.063 188.643 512.051 256.523 512.051C324.403 512.051 389.563 485.063 437.523 437.071C485.523 389.079 512.523 323.919 512.523 256.051C512.523 188.183 485.523 123.023 437.523 75.0308C389.563 27.0388 324.403 0.0507812 256.523 0.0507812Z" fill="url(#paint0_linear_832_399)"/>
<path d="M116.404 253.346C191.044 220.834 240.804 199.398 265.684 189.042C336.804 159.47 351.563 154.334 361.203 154.162C363.323 154.126 368.043 154.65 371.123 157.142C373.683 159.242 374.404 162.082 374.764 164.074C375.084 166.066 375.524 170.606 375.164 174.15C371.324 214.63 354.644 312.862 346.164 358.202C342.604 377.387 335.524 383.819 328.684 384.447C313.804 385.815 302.523 374.623 288.123 365.186C265.603 350.414 252.884 341.222 231.004 326.81C205.724 310.154 222.124 300.998 236.524 286.038C240.284 282.122 305.803 222.542 307.043 217.138C307.203 216.462 307.364 213.942 305.844 212.614C304.364 211.282 302.163 211.738 300.563 212.098C298.283 212.61 262.323 236.402 192.563 283.47C182.363 290.486 173.123 293.906 164.803 293.726C155.683 293.53 138.084 288.558 125.004 284.31C109.004 279.098 96.2434 276.342 97.3634 267.49C97.9234 262.882 104.284 258.166 116.404 253.346Z" fill="white"/>
</g>
<defs>
<linearGradient id="paint0_linear_832_399" x1="256.523" y1="0.0507813" x2="256.523" y2="512.051" gradientUnits="userSpaceOnUse">
<stop stop-color="#2AABEE"/>
<stop offset="1" stop-color="#229ED9"/>
</linearGradient>
<clipPath id="clip0_832_399">
<rect width="512" height="512" fill="white" transform="translate(0.523438 0.0507812)"/>
</clipPath>
</defs>
</svg>
