<svg width="593" height="513" viewBox="0 0 593 513" fill="none" xmlns="http://www.w3.org/2000/svg">
<g clip-path="url(#clip0_2_14931)">
<path d="M462.303 385.84C455.14 385.84 449.326 391.647 449.326 398.815C449.326 405.974 455.14 411.788 462.303 411.788C469.466 411.788 475.272 405.974 475.272 398.815C475.272 391.647 469.466 385.84 462.303 385.84ZM462.303 409.004C460.287 409.007 458.316 408.41 456.639 407.291C454.963 406.171 453.657 404.579 452.886 402.716C452.375 401.479 452.112 400.153 452.113 398.815C452.113 393.184 456.666 388.632 462.303 388.632C467.933 388.632 472.491 393.184 472.491 398.815C472.491 404.447 467.933 409.004 462.303 409.004ZM467.634 395.807C467.634 394.937 467.376 394.087 466.892 393.364C466.408 392.64 465.72 392.077 464.916 391.746C464.382 391.525 463.81 391.412 463.232 391.412H456.981V406.22H459.759V400.206H461.754L464.561 406.22H467.634L464.703 399.95C465.559 399.646 466.301 399.085 466.825 398.344C467.35 397.602 467.633 396.716 467.634 395.807ZM463.232 397.426H459.759V394.186H463.232C464.124 394.186 464.855 394.911 464.855 395.807C464.853 396.237 464.682 396.648 464.377 396.952C464.073 397.255 463.661 397.426 463.232 397.426Z" fill="#041E42"/>
<path d="M477.528 368.942L592.685 103.929C592.685 103.929 509.345 153.284 414.129 191.005L577.744 69.3614L474.76 87.0825C460.023 78.2548 408.797 51.7061 326.055 51.7061C326.055 51.7061 318.803 51.8773 312.612 52.0261C309.575 43.0946 295.172 0.802734 295.172 0.802734L268.769 55.5444C117.976 74.9346 0.598633 163.994 0.598633 260.094C0.598633 303.04 19.0289 359.524 103.883 390.028L61.0778 495.819L174.324 406.515C198.658 409.8 225.605 411.517 254.712 411.517C288.775 411.517 322.274 408.939 354.437 403.995L478.354 512.803L436.07 385.218C436.07 385.218 461 377.169 477.528 368.942Z" fill="#A2AAAD"/>
<path d="M571.416 127.86C571.416 127.86 474.296 184.412 366.138 221.764L362.335 211.278L547.824 82.6267L341.644 135.428L457.024 88.9488C457.024 88.9488 408.167 61.6814 326.055 61.6814C319.194 61.6814 312.347 61.8474 305.522 62.1683L293.575 27.0781L229.38 160.176L131.443 187.991L222.34 150.7L252.15 89.9348L258.396 77.2092L263.824 66.1527C126.987 85.7506 10.5726 167.323 10.5726 260.095C10.5726 312.091 39.1703 359.727 117.515 384.221L77.0418 472.416L171.337 396.1C195.756 399.637 223.443 401.55 254.71 401.55C293.887 401.55 328.366 398.214 357.624 393.474L462.186 486.399L423.111 378.771C453.525 369.823 469.821 361.647 469.821 361.647L571.417 127.859L571.416 127.86Z" fill="#041E42"/>
<path d="M178.076 252.29L186.161 234.665L138.816 221.641C138.816 221.641 125.346 245.71 178.076 252.29Z" fill="#A2AAAD"/>
<path d="M467.394 120.876L316.554 157.42L289.985 74.3652L247.9 174.818L133.461 203.457L213.569 223.063L198.2 253.779C199.585 253.813 201.001 253.85 202.441 253.878C204.366 253.909 206.332 253.935 208.372 253.935C213.902 253.935 219.513 253.757 225.218 253.41C239.184 252.57 253.655 250.731 268.396 248.104C279.602 246.105 290.968 243.648 302.385 240.822C317.455 237.103 332.629 232.721 347.688 227.904L339.009 204.808L467.394 120.876ZM408.002 388.257C403.953 389.762 400.638 391.156 397.958 393.359C395.431 395.445 393.475 398.259 392.048 402.583C391.504 404.271 391.065 405.992 390.735 407.734L425.705 435.324L408.002 388.258V388.257ZM136.826 390.218C135.731 389.845 134.605 389.566 133.462 389.385C132.472 389.238 131.475 389.15 130.475 389.122L111.453 427.13L147.188 400.504C144.92 396.353 142.283 392.162 136.826 390.218Z" fill="#A2AAAD"/>
<path d="M312.166 336.252C267.898 327.882 241.414 319.318 241.414 319.318C241.414 319.318 261.85 311.402 292.054 297.544C319.014 285.169 353.765 268.064 388.676 247.627C416.756 231.205 444.944 212.642 469.283 192.651C469.283 192.651 327.612 269.945 209.943 269.945C130.899 269.945 94.317 233.283 94.317 208.692C94.317 135.424 223.284 97.5115 252.15 89.9353L258.396 77.2097C134.481 101.601 88.4013 150.282 88.4013 150.282C88.4013 150.282 46.9812 175.335 31.2986 221.827C27.3663 233.429 25.365 245.598 25.3743 257.849C25.3743 313.869 62.0878 387.129 250.324 387.129C383.824 387.129 454.89 351.716 454.89 351.716C433.152 351.077 411.443 349.658 389.806 347.463C360.282 344.477 334.045 340.388 312.167 336.252H312.166ZM423.215 87.9747C423.215 87.9747 384.403 69.0817 308.721 71.5743L312.207 81.8073C320.574 80.8413 366.147 76.5083 423.215 87.9747Z" fill="#C8102E"/>
<path d="M186.15 311.23C232.787 311.23 271.802 302.896 292.054 297.545C319.015 285.169 353.766 268.064 388.677 247.627C359.342 258.751 266.5 291.845 200.735 291.845C100.971 291.845 69.7995 234.056 69.7995 201.443C69.7995 172.285 88.4028 150.283 88.4028 150.283C88.4028 150.283 54.027 174.296 54.027 214.296C54.027 280.1 119.768 311.23 186.15 311.23Z" fill="white"/>
<path d="M224.522 342.028C39.136 342.028 30.8964 243.275 31.2995 221.824C27.6324 232.681 25.3743 244.7 25.3743 257.846C25.3743 257.846 27.3021 367.112 239.102 367.112C308.058 367.112 370.132 352.572 389.807 347.461C360.283 344.474 334.046 340.386 312.168 336.249C297.465 338.563 268.215 342.028 224.522 342.028ZM457.806 262.813C451.773 250.162 434.19 247.968 418.503 257.874C402.825 267.819 394.961 286.093 400.981 298.744C406.973 311.406 424.541 313.595 440.24 303.675C455.944 293.72 463.755 275.458 457.806 262.813Z" fill="white"/>
<path d="M300.875 309.957L300.753 305.515L296.845 310.402L290.731 311.198L294.536 313.252L290.731 318.206L297.236 314.801L301.74 318.024L300.931 312.725L306.98 309.28L300.875 309.957ZM347.926 287.665L347.785 283.127L343.729 288.175L337.354 288.982L341.266 291.15L337.34 296.273L344.144 292.732L348.774 296.106L348 290.576L354.251 286.99L347.926 287.665ZM382.139 291.326L382.01 287.155L378.326 291.739L372.556 292.488L376.13 294.472L372.556 299.125L378.68 295.906L382.925 298.947L382.216 293.956L387.865 290.691L382.139 291.326ZM334.924 316.977V312.852L331.153 317.373L325.375 317.943L328.901 320.009L325.187 324.627L331.409 321.541L335.587 324.688L334.976 319.634L340.723 316.486L334.924 316.977ZM368.794 321.749L368.757 317.578L364.967 322.129L359.174 322.71L362.703 324.766L359.052 329.362L365.232 326.246L369.405 329.409L368.804 324.391L374.552 321.206L368.794 321.749ZM396.753 258.228L396.573 252.948L391.928 258.796L384.561 259.716L389.099 262.237L384.561 268.119L392.363 264.037L397.757 267.938L396.804 261.557L404.058 257.4L396.753 258.228ZM442.898 230.837L438.692 238.51L447.482 232.692L455.375 236.748L452.514 229.174L460.593 223.3L451.524 225.127L449.92 218.776L445.544 226.396L436.465 228.342L442.898 230.837ZM516.412 192.965L505.543 194.199L504.616 186.161L498.346 195.063L487.44 196.502L494.628 200.297L488.585 209.345L499.763 203.101L508.374 209.008L506.139 199.335L516.412 192.965ZM458.873 325.769L458.833 319.378L452.996 326.332L444.073 327.272L449.537 330.398L443.825 337.492L453.35 332.735L459.814 337.549L458.883 329.821L467.758 324.967L458.873 325.769ZM475.899 283.694L475.748 277.848L470.5 284.341L462.318 285.418L467.431 288.175L462.299 294.754L471.02 290.238L477.046 294.559L476.004 287.456L484.022 282.81L475.899 283.694ZM490.57 242.312L490.385 235.921L484.707 242.995L475.818 244.138L481.337 247.141L475.818 254.326L485.262 249.388L491.78 254.103L490.69 246.387L499.405 241.336L490.57 242.312ZM411.595 321.116L407.229 326.366L400.552 327.027L404.596 329.395L400.354 334.697L407.517 331.125L412.372 334.742L411.646 328.969L418.255 325.343L411.623 325.905L411.595 321.116ZM289.984 88.5L268.395 186.577L310.724 159.113L289.984 88.5ZM442.86 133.632L268.395 186.577C268.395 186.577 332.498 200.568 334.448 200.839C336.422 201.125 442.86 133.632 442.86 133.632ZM302.385 240.823L268.396 186.578V248.105C279.602 246.104 290.968 243.647 302.385 240.823ZM202.441 253.878C204.366 253.908 206.332 253.934 208.371 253.934C213.902 253.934 219.513 253.757 225.219 253.41L268.396 186.578L217.711 223.888L202.441 253.878Z" fill="white"/>
<path d="M250.087 176.537L156.05 201.927L268.396 186.576L250.087 176.537ZM392.047 402.58L415.234 420.931L397.959 393.356C395.431 395.441 393.474 398.256 392.047 402.58ZM118.978 417.849L136.826 390.215C135.73 389.841 134.605 389.563 133.461 389.382L118.978 417.848V417.849Z" fill="white"/>
<path d="M420.857 261.523C408.085 269.574 401.382 284.657 405.88 295.192C410.342 305.712 424.333 307.696 437.091 299.629C449.848 291.558 456.516 276.484 452.06 265.994C447.519 255.442 433.604 253.476 420.857 261.523Z" fill="#C8102E"/>
</g>
<defs>
<clipPath id="clip0_2_14931">
<rect width="592.086" height="512" fill="white" transform="translate(0.598633 0.800781)"/>
</clipPath>
</defs>
</svg>
