<svg width="526" height="513" viewBox="0 0 526 513" fill="none" xmlns="http://www.w3.org/2000/svg">
<g clip-path="url(#clip0_820_269)">
<path d="M432.49 0.0507812H93.345C41.9872 0.0507812 0.353516 41.6845 0.353516 93.0422V419.059C0.353516 470.417 41.9872 512.051 93.345 512.051H432.49C483.848 512.051 525.482 470.417 525.482 419.059V93.0422C525.482 41.6845 483.848 0.0507812 432.49 0.0507812Z" fill="#330000"/>
<path d="M254.821 307.303H173.446L156.89 358.735C156.664 359.673 156.118 360.503 155.347 361.082C154.575 361.66 153.625 361.952 152.662 361.906H111.446C109.096 361.906 108.274 360.614 108.98 358.031L179.434 155.121C180.14 153.008 180.844 150.6 181.549 147.899C182.47 143.199 182.942 138.422 182.958 133.633C182.91 133.298 182.941 132.956 183.048 132.635C183.155 132.314 183.335 132.023 183.574 131.783C183.814 131.544 184.105 131.364 184.426 131.257C184.747 131.149 185.089 131.119 185.424 131.166H241.434C243.075 131.166 244.015 131.754 244.253 132.928L324.22 358.383C324.924 360.733 324.219 361.907 322.105 361.906H276.309C275.523 361.993 274.732 361.791 274.083 361.337C273.435 360.883 272.974 360.209 272.787 359.44L254.821 307.303ZM186.128 262.917H241.787C240.378 258.222 238.734 252.938 236.855 247.064C234.973 241.197 232.977 234.915 230.867 228.218C228.753 221.525 226.639 214.832 224.525 208.138C222.412 201.445 220.475 194.987 218.713 188.763C216.952 182.543 215.366 176.848 213.958 171.678H213.605C211.622 181.192 209.153 190.598 206.208 199.86C202.916 210.428 199.569 221.231 196.167 232.269C192.76 243.311 189.414 253.527 186.128 262.917Z" fill="#FF9A00"/>
<path d="M371.774 168.514C368.181 168.659 364.598 168.043 361.259 166.707C357.92 165.372 354.901 163.347 352.399 160.764C349.903 158.07 347.965 154.909 346.695 151.463C345.425 148.017 344.849 144.354 345 140.685C344.872 137.052 345.512 133.433 346.878 130.064C348.243 126.695 350.305 123.652 352.926 121.134C355.523 118.641 358.588 116.689 361.943 115.389C365.299 114.089 368.88 113.467 372.478 113.56C380.933 113.56 387.567 116.084 392.381 121.134C394.812 123.758 396.7 126.835 397.939 130.19C399.178 133.545 399.744 137.111 399.603 140.685C399.75 144.368 399.155 148.044 397.854 151.494C396.553 154.943 394.572 158.096 392.029 160.764C389.371 163.385 386.199 165.426 382.713 166.76C379.226 168.094 375.502 168.691 371.774 168.514ZM347.466 358.389V190.003C347.466 187.889 348.402 186.832 350.284 186.832H393.614C395.492 186.832 396.431 187.889 396.433 190.003V358.389C396.433 360.74 395.493 361.914 393.614 361.912H350.637C348.524 361.912 347.467 360.738 347.466 358.389Z" fill="#FF9A00"/>
</g>
<defs>
<clipPath id="clip0_820_269">
<rect width="525.128" height="512" fill="white" transform="translate(0.353516 0.0507812)"/>
</clipPath>
</defs>
</svg>
