<svg width="395" height="513" viewBox="0 0 395 513" fill="none" xmlns="http://www.w3.org/2000/svg">
<g clip-path="url(#clip0_795_4658)">
<path d="M366.154 68.9702C364.228 68.7647 362.147 68.54 359.9 68.2318C325.866 63.5312 307.436 49.6094 287.908 34.8399C266.647 18.7797 242.547 0.574707 197.596 0.574707C152.646 0.574707 128.546 18.7797 107.284 34.8463C87.7562 49.6158 69.3136 63.5376 35.286 68.2382C33.0449 68.5464 30.9836 68.7712 29.0315 68.9767C21.3257 69.7986 0.950195 71.9691 0.950195 93.4683V303.965C0.950195 357.495 17.781 402.536 50.9802 437.835C83.64 472.549 131.769 497.426 194.032 511.753L197.596 512.575L201.16 511.753C263.449 497.42 311.559 472.582 344.212 437.835C377.411 402.516 394.242 357.495 394.242 303.965V93.4683C394.242 71.9627 373.841 69.7922 366.154 68.9702Z" fill="white"/>
<path d="M197.596 21.2583C159.549 21.2583 140.194 35.8801 119.703 51.3688C98.9232 67.0694 77.4304 83.303 38.0793 88.7356C35.6006 89.0759 33.3274 89.3263 31.1762 89.5511C21.5439 90.5785 21.5439 91.2592 21.5439 93.526V304.094C21.5439 352.21 36.4932 392.499 65.9808 423.849C95.5776 455.333 139.854 478.117 197.596 491.551C255.3 478.11 299.576 455.333 329.237 423.829C358.661 392.48 373.61 352.191 373.61 304.094V93.526C373.61 91.2592 373.61 90.5785 363.978 89.5511C361.826 89.3263 359.56 89.0759 357.081 88.7356C317.723 83.303 296.237 67.0694 275.457 51.3688C254.96 35.8801 235.605 21.2583 197.596 21.2583Z" fill="#EC1458"/>
<path d="M257.753 38.667V472.081C239.7 479.915 219.635 486.407 197.557 491.557C139.847 478.117 95.5838 455.327 65.9549 423.823C36.4673 392.473 21.5181 352.191 21.5181 304.075V93.5324C21.5181 91.2592 21.5181 90.5721 31.1503 89.5447C33.3015 89.3263 35.5683 89.0759 38.047 88.7356C77.3981 83.303 98.8973 67.0565 119.664 51.3688C140.168 35.8737 159.51 21.2583 197.557 21.2583C224.772 21.2583 242.412 28.7265 257.753 38.667Z" fill="#001544"/>
<path d="M244.191 97.9631C230.705 88.1189 216.302 82.9561 201.584 82.9561H200.678C171.139 82.9561 142.936 103.595 121.161 141.103C106.879 165.659 66.4431 243.513 27.3553 318.831C25.8463 321.759 24.3115 324.7 22.7832 327.641C24.386 343.08 28.0287 358.239 33.6163 372.72C79.6457 285.471 136.463 178.271 151.246 151.865C167.595 122.667 183.873 108.642 201.166 108.925C218.338 108.604 234.603 122.667 250.952 151.865C253.039 155.583 255.948 160.894 259.544 167.521V111.686C254.864 106.645 249.724 102.051 244.191 97.9631Z" fill="#EC1458"/>
<path d="M54.5569 221.128L68.1769 196.489C52.3866 199.811 36.803 204.05 21.5054 209.184V231.659C32.2379 227.806 43.1651 224.444 54.2872 221.571L54.5569 221.128Z" fill="#EC1458"/>
<path d="M42.8379 244.47C35.6287 246.778 28.5094 249.295 21.48 252.022V274.927C23.4064 274.125 25.3329 273.348 27.2979 272.577L42.8379 244.47Z" fill="#EC1458"/>
<path d="M145.094 213.422C148.553 213.319 152.033 213.268 155.535 213.268C190.656 213.172 225.635 217.719 259.564 226.792V204.811C225.83 196.265 191.163 191.951 156.364 191.968L145.094 213.422Z" fill="#EC1458"/>
<path d="M203.183 242.447C188.046 240.538 172.808 239.528 157.552 239.423C156.19 239.391 154.848 239.391 153.468 239.391C145.967 239.391 138.505 239.615 131.082 240.065L119.523 262.065L119.106 262.868L47.2686 399.774C51.8154 406.97 56.9418 413.782 62.5967 420.143L146.076 261.269C148.549 261.217 151.053 261.185 153.545 261.185C160.101 261.185 166.593 261.333 173.072 261.654L173.766 261.699L173.124 262.9L79.832 437.019C85.7562 442.071 91.9746 446.767 98.4544 451.082L198.091 265.244L198.816 263.882C219.386 266.376 239.704 270.634 259.544 276.61V253.871C243.102 249.233 226.369 245.693 209.457 243.276C207.37 242.974 205.302 242.704 203.183 242.447Z" fill="#EC1458"/>
<path d="M364.986 80.0985C363.136 79.8994 360.825 79.6554 358.391 79.3151C321.531 74.2035 301.053 58.7919 281.249 43.7977C260.399 28.0457 238.842 11.7607 197.596 11.7607C156.351 11.7607 134.787 28.0521 113.924 43.8169C94.1328 58.7919 73.661 74.2035 36.8015 79.3407C34.3421 79.6875 32.0432 79.9251 30.2002 80.1242C22.0898 80.9846 11.9888 82.0506 11.9888 93.6093V304.094C11.9888 354.714 27.8178 397.206 59.0264 430.392C90.2349 463.578 136.418 487.287 196.517 501.119L197.577 501.369L198.662 501.119C258.761 487.28 305.022 463.488 336.147 430.392C367.272 397.295 383.178 354.74 383.178 304.094V93.6029C383.178 82.0378 373.102 80.959 364.986 80.0985ZM373.526 93.5836V304.094C373.526 352.178 358.59 392.441 329.122 423.765C299.518 455.23 255.274 478.014 197.596 491.441C139.931 478.014 95.6803 455.243 66.0707 423.765C36.6088 392.454 21.6467 352.191 21.6467 304.094V93.6029C21.6467 91.4003 21.6467 90.7325 31.2019 89.7179C33.5586 89.4675 35.697 89.2299 38.1051 88.9024C77.4689 83.4633 98.9617 67.2298 119.755 51.5227C140.233 36.0469 159.568 21.4315 197.577 21.4315C235.586 21.4315 254.921 36.0469 275.399 51.5227C296.186 67.2233 317.678 83.4633 357.049 88.9024C359.431 89.2299 361.582 89.461 363.945 89.7179C373.546 90.7325 373.546 91.4003 373.546 93.6029L373.526 93.5836Z" fill="#001544"/>
<path d="M271.649 156.836C271.649 130.508 277.563 120.426 297.765 120.426H300.835C321.037 120.426 326.951 130.488 326.951 156.836V164.542C326.951 188.892 321.814 199.109 305.677 200.797V177.263C310.743 175.805 311.745 172.812 311.745 160.984V160.342C311.745 145.9 308.675 143.903 300.148 143.903H298.414C289.963 143.903 286.855 145.9 286.855 160.342V160.984C286.855 172.812 287.857 175.805 292.923 177.263V200.772C276.799 199.083 271.649 188.866 271.649 164.516V156.836Z" fill="white"/>
<path d="M272.419 207.322H326.187V230.362H272.419V207.322Z" fill="white"/>
<path d="M272.419 258.79H309.825V235.673H326.187V304.948H309.825V281.831H272.419V258.79Z" fill="white"/>
<path d="M272.419 338.064H295.614L326.187 307.645V335.835L310.364 350.74V351.504L326.187 366.325V391.523L295.614 361.104H272.419V338.064Z" fill="white"/>
<path d="M346.248 169.968C344.084 169.968 343.089 171.721 343.089 178.393C343.089 183.922 343.699 185.591 345.31 185.591C346.922 185.591 347.301 184.423 347.622 177.776C348.033 168.85 349.439 165.312 354.044 165.312C358.648 165.312 359.984 169.904 359.984 177.571C359.984 185.238 358.057 189.977 352.99 189.977V184.712C355.244 184.712 355.797 182.458 355.797 177.006C355.797 171.83 355.302 170.584 353.78 170.584C352.258 170.584 351.905 171.817 351.559 177.783C351.115 185.861 350.679 190.863 345.497 190.863C340.025 190.863 338.915 185.688 338.915 178.104C338.915 169.711 340.347 164.702 346.261 164.702L346.248 169.968Z" fill="white"/>
<path d="M355.264 217.346V207.399H339.21V202.133H355.264V192.186H359.675V217.346H355.264Z" fill="white"/>
<path d="M343.615 254.821H339.197V233.752H359.675V239.018H343.621L343.615 254.821Z" fill="white"/>
<path d="M349.465 256.96C356.252 256.96 359.97 260.813 359.97 269.803C359.97 278.793 356.207 282.71 349.465 282.71C342.722 282.71 338.901 278.819 338.901 269.835C338.901 260.851 342.645 256.96 349.465 256.96ZM349.465 277.445C353.619 277.445 355.552 275.332 355.552 269.835C355.552 264.338 353.626 262.226 349.465 262.226C345.304 262.226 343.319 264.364 343.319 269.835C343.319 275.306 345.291 277.445 349.465 277.445Z" fill="white"/>
<path d="M338.901 298.36C338.901 289.369 342.324 285.484 349.465 285.484H359.675V290.75H349.465C346.601 290.75 343.319 291.54 343.319 298.36C343.319 305.179 346.626 305.969 349.465 305.969H359.675V311.235H349.465C342.356 311.235 338.901 307.343 338.901 298.36Z" fill="white"/>
<path d="M339.197 319.422V314.156H359.675V319.422H339.197Z" fill="white"/>
<path d="M346.248 327.34C344.084 327.34 343.089 329.099 343.089 335.771C343.089 341.3 343.699 342.97 345.31 342.97C346.922 342.97 347.301 341.795 347.622 335.155C348.033 326.229 349.439 322.691 354.044 322.691C358.648 322.691 359.984 327.282 359.984 334.949C359.984 342.617 358.057 347.356 352.99 347.356V342.09C355.244 342.09 355.797 339.836 355.797 334.384C355.797 329.202 355.302 327.963 353.78 327.963C352.258 327.963 351.905 329.189 351.559 335.161C351.115 343.239 350.679 348.242 345.497 348.242C340.025 348.242 338.915 343.06 338.915 335.482C338.915 327.083 340.347 322.081 346.261 322.081L346.248 327.34Z" fill="white"/>
<path d="M171.807 437.244C171.807 439.678 173.792 440.801 181.305 440.801C187.54 440.801 189.415 440.108 189.415 438.297C189.415 436.37 188.099 436.049 180.611 435.69C170.555 435.227 166.568 433.648 166.568 428.472C166.568 423.296 171.743 421.774 180.387 421.774C189.03 421.774 194.386 423.951 194.386 429.66H188.446C188.446 427.091 185.877 426.494 179.744 426.494C173.907 426.494 172.52 427.053 172.52 428.767C172.52 430.482 173.907 430.874 180.631 431.272C189.736 431.766 195.4 432.261 195.4 438.098C195.4 444.263 189.563 445.515 181.022 445.515C171.557 445.515 165.919 443.903 165.919 437.244H171.807Z" fill="white"/>
<path d="M213.849 421.774C223.045 421.774 227.662 425.268 228.252 431.933H222.223C221.664 428.202 218.794 426.751 213.875 426.751C207.839 426.751 205.296 428.896 205.296 433.609C205.296 438.323 207.864 440.538 213.875 440.538C218.787 440.538 221.69 439.055 222.223 435.292H228.252C227.662 441.989 223.045 445.515 213.849 445.515C203.69 445.515 199.336 441.296 199.336 433.609C199.336 425.923 203.69 421.774 213.849 421.774Z" fill="white"/>
</g>
<defs>
<clipPath id="clip0_795_4658">
<rect width="393.292" height="512" fill="white" transform="translate(0.950195 0.574707)"/>
</clipPath>
</defs>
</svg>
