<svg width="1024" height="325" viewBox="0 0 1024 325" fill="none" xmlns="http://www.w3.org/2000/svg">
<g clip-path="url(#clip0_806_316)">
<path d="M194.455 130.397C245.844 92.5498 389.596 44.6326 558 113.036L629.529 97.411C426.749 22.063 254.872 77.2719 194.455 130.397Z" fill="#002F6C"/>
<path d="M194.455 130.398C267.72 60.9526 489.597 -5.02025 743.072 114.773L816.336 98.8002C528.139 -28.2844 277.095 45.3275 194.455 130.398Z" fill="#3E87CB"/>
<path d="M194.455 130.397C278.484 40.1186 524.32 -35.2294 814.253 68.5911L885.087 53.3132C561.473 -58.1463 287.859 25.5351 194.455 130.397Z" fill="#9ADBE8"/>
<path d="M485.083 279.704V284.912H426.402V279.704C438.555 278.315 443.416 274.843 443.416 261.996V204.703C443.763 178.314 439.249 171.717 422.582 171.717C410.777 171.717 400.013 177.967 394.457 188.384V261.996C394.11 274.843 399.318 278.662 411.471 279.704V284.912H352.096V279.704C364.596 278.315 369.457 274.843 369.804 261.996V203.662C369.804 189.078 368.762 171.717 351.054 171.717C338.901 172.064 327.095 177.967 319.804 187.689V261.996C320.151 274.843 325.012 278.662 337.512 279.704V284.912H277.789V279.357C291.331 277.968 295.15 273.454 294.803 261.648V193.939C294.803 178.661 293.067 176.231 277.789 176.231V169.981L319.456 155.05V177.62C333.345 162.342 349.318 155.397 362.165 155.397C375.707 155.745 387.513 165.467 390.29 178.661C400.36 166.856 417.374 155.397 432.652 155.397C465.986 155.397 468.069 184.564 468.069 209.217V261.996C468.069 274.843 472.583 278.662 485.083 279.704ZM589.598 237.69C581.265 252.273 566.334 267.551 547.931 267.551C518.069 267.551 504.875 233.87 504.18 207.481H589.598C588.903 178.314 571.889 155.397 540.639 155.397C506.264 155.397 484.389 184.217 484.389 224.148C484.389 257.829 505.222 287.69 537.167 287.343C565.987 287.69 586.82 264.079 595.501 239.079L589.598 237.69ZM534.736 166.509C551.75 166.509 559.389 181.439 560.084 197.064H505.222C508 180.398 516.333 166.509 534.736 166.509ZM214.594 155.397C192.372 154.703 171.885 167.203 162.51 187.342L160.774 130.744H154.177C150.01 141.508 145.149 142.203 135.427 139.078C130.913 137.689 125.357 135.258 118.76 133.522C110.774 131.439 102.787 130.397 94.454 130.397C38.8979 130.397 0.00862564 171.717 0.00862564 227.967C-0.685826 289.426 40.634 324.496 94.454 324.843C121.19 324.496 146.538 311.996 162.857 290.815L157.649 284.218C138.552 303.315 123.968 310.607 96.8846 310.954C52.4397 310.954 32.6478 269.287 32.6478 230.051C32.6478 179.703 52.4397 140.814 94.8013 142.897C141.33 145.328 153.83 179.703 154.524 223.106C154.524 257.482 178.83 287.69 214.247 287.343C252.789 287.69 276.4 254.009 276.4 217.203C276.4 180.398 251.053 155.745 214.594 155.397ZM248.969 233.87C246.886 257.829 235.08 279.704 214.594 277.968C189.247 275.885 178.83 244.634 182.302 205.398C184.733 181.092 196.538 163.383 216.33 164.772C246.539 167.55 251.053 208.523 248.969 233.87ZM730.224 261.996L729.877 152.619L688.904 169.286C687.516 160.606 679.529 155.397 670.502 155.397C657.307 155.397 645.849 169.286 639.946 178.661V155.05L594.806 170.328V176.231C615.987 169.981 615.293 180.745 615.293 200.537V261.996C615.293 273.454 611.473 278.315 594.806 279.704V284.912H660.432V279.704C646.89 278.662 639.946 276.579 639.946 261.996V194.981C639.946 187.342 648.626 174.147 656.265 173.8C668.418 173.106 665.293 184.911 677.446 185.259C684.391 185.606 688.904 179.356 696.891 179.009C705.919 178.314 705.571 188.731 705.571 196.37V262.343C705.224 273.801 701.405 279.01 684.391 280.051V285.607H750.363V280.399C737.516 278.662 730.224 276.579 730.224 261.996ZM967.727 286.996L901.059 130.05H894.462L850.017 236.301C842.378 255.051 830.225 266.162 809.045 266.162C781.267 266.857 767.03 238.037 767.03 212.342C767.03 189.425 778.489 164.425 801.753 164.078C815.989 164.078 822.239 172.064 822.239 182.828C822.586 189.773 828.489 195.328 835.434 195.675C842.725 195.675 848.281 190.12 848.628 182.828C847.239 163.383 822.586 154.703 806.961 154.703C765.641 154.703 744.808 186.995 744.808 223.454C744.808 258.523 766.683 286.996 796.544 286.649C812.864 286.649 828.142 279.357 837.864 266.162C833.698 277.274 828.836 288.038 822.934 298.454C818.42 306.093 812.864 312.343 803.142 313.038V320.677H858.351V314.079C851.753 314.079 839.948 313.038 839.6 302.621C839.253 292.204 850.712 271.023 854.184 260.259H925.365L935.088 283.524C944.115 304.704 948.629 312.691 922.587 314.079V320.677H994.116V314.079C977.796 314.427 972.935 298.107 967.727 286.996ZM860.087 247.759L890.295 172.759L921.199 247.759H860.087Z" fill="#002F6C"/>
<path d="M1010.44 308.262V298.998H1015.14C1015.51 298.998 1015.92 299.107 1016.37 299.325C1016.81 299.534 1017.19 299.86 1017.5 300.304C1017.82 300.739 1017.97 301.291 1017.97 301.961C1017.97 302.638 1017.81 303.216 1017.49 303.693C1017.16 304.162 1016.76 304.517 1016.29 304.76C1015.83 305.003 1015.4 305.124 1014.99 305.124H1011.6V303.618H1014.36C1014.64 303.618 1014.93 303.479 1015.25 303.203C1015.58 302.927 1015.74 302.513 1015.74 301.961C1015.74 301.392 1015.58 301.007 1015.25 300.806C1014.93 300.605 1014.65 300.505 1014.41 300.505H1012.48V308.262H1010.44ZM1016.04 303.894L1018.35 308.262H1016.12L1013.86 303.894H1016.04ZM1013.96 313.785C1012.57 313.785 1011.27 313.526 1010.05 313.007C1008.84 312.488 1007.77 311.768 1006.85 310.848C1005.93 309.927 1005.21 308.86 1004.69 307.647C1004.18 306.433 1003.92 305.132 1003.92 303.743C1003.92 302.354 1004.18 301.053 1004.69 299.839C1005.21 298.626 1005.93 297.559 1006.85 296.638C1007.77 295.718 1008.84 294.998 1010.05 294.479C1011.27 293.961 1012.57 293.701 1013.96 293.701C1015.35 293.701 1016.65 293.961 1017.86 294.479C1019.08 294.998 1020.14 295.718 1021.06 296.638C1021.98 297.559 1022.7 298.626 1023.22 299.839C1023.74 301.053 1024 302.354 1024 303.743C1024 305.132 1023.74 306.433 1023.22 307.647C1022.7 308.86 1021.98 309.927 1021.06 310.848C1020.14 311.768 1019.08 312.488 1017.86 313.007C1016.65 313.526 1015.35 313.785 1013.96 313.785ZM1013.96 311.375C1015.36 311.375 1016.64 311.032 1017.8 310.346C1018.95 309.659 1019.87 308.739 1020.56 307.584C1021.25 306.429 1021.59 305.149 1021.59 303.743C1021.59 302.337 1021.25 301.057 1020.56 299.902C1019.87 298.747 1018.95 297.827 1017.8 297.141C1016.64 296.454 1015.36 296.111 1013.96 296.111C1012.55 296.111 1011.27 296.454 1010.12 297.141C1008.96 297.827 1008.04 298.747 1007.36 299.902C1006.67 301.057 1006.33 302.337 1006.33 303.743C1006.33 305.149 1006.67 306.429 1007.36 307.584C1008.04 308.739 1008.96 309.659 1010.12 310.346C1011.27 311.032 1012.55 311.375 1013.96 311.375Z" fill="black"/>
</g>
<defs>
<clipPath id="clip0_806_316">
<rect width="1024" height="324.389" fill="white" transform="translate(0 0.455078)"/>
</clipPath>
</defs>
</svg>
