<svg width="1025" height="274" viewBox="0 0 1025 274" fill="none" xmlns="http://www.w3.org/2000/svg">
<g clip-path="url(#clip0_2_15238)">
<path d="M945.395 145.428L961.431 103.386L977.437 145.428H945.395ZM978.076 79.5168H944.776L898.237 193.506H927.081L937.682 165.69H985.16L995.76 193.506H1024.59L978.076 79.5168ZM743.205 173.683C724.411 173.683 709.205 156.738 709.205 135.817C709.205 114.895 724.411 97.9405 743.205 97.9405C761.968 97.9405 777.194 114.895 777.194 135.817C777.194 156.738 761.958 173.683 743.205 173.683ZM743.205 75.6003C727.427 75.8878 712.392 82.3573 701.336 93.6169C690.28 104.877 684.085 120.026 684.085 135.807C684.085 151.587 690.28 166.737 701.336 177.997C712.392 189.256 727.427 195.726 743.205 196.013C751.203 196.159 759.151 194.709 766.583 191.749C774.016 188.789 780.783 184.378 786.492 178.772C792.2 173.167 796.734 166.481 799.829 159.104C802.924 151.727 804.518 143.807 804.518 135.807C804.518 127.807 802.924 119.887 799.829 112.51C796.734 105.133 792.2 98.4464 786.492 92.8413C780.783 87.2361 774.016 82.8246 766.583 79.8644C759.151 76.9042 751.203 75.4546 743.205 75.6003ZM505.556 173.683C486.793 173.683 471.576 156.738 471.576 135.817C471.576 114.895 486.793 97.9405 505.556 97.9405C524.339 97.9405 539.556 114.895 539.556 135.817C539.566 156.738 524.339 173.683 505.556 173.683ZM505.556 75.6003C497.649 75.6003 489.82 77.158 482.515 80.1844C475.21 83.2108 468.574 87.6467 462.984 93.2385C457.394 98.8304 452.96 105.469 449.936 112.774C446.912 120.08 445.357 127.91 445.359 135.817C445.361 147.725 448.894 159.364 455.512 169.264C462.129 179.164 471.533 186.879 482.535 191.434C493.537 195.989 505.643 197.18 517.321 194.855C529 192.53 539.727 186.794 548.145 178.372C556.564 169.951 562.296 159.222 564.618 147.543C566.939 135.863 565.744 123.758 561.186 112.758C556.627 101.757 548.909 92.3553 539.007 85.7414C529.105 79.1275 517.464 75.5983 505.556 75.6003ZM654.414 79.5168L624.91 125.636L595.376 79.5168H566.522L612.201 151.003V193.506H637.609V151.003L683.288 79.5069L654.414 79.5168ZM904.312 79.5168H806.838V101.377H842.946V193.516H868.374V101.377H904.322L904.312 79.5168ZM342.561 101.367H378.679V193.506H404.096V101.367H440.054V79.5168H342.571L342.561 101.367Z" fill="black"/>
<path d="M0.594727 0.0175781H274.162V273.584H0.594727V0.0175781Z" fill="#EB0A1E"/>
<path d="M183.003 77.1392C170.304 73.0529 154.508 70.645 137.383 70.645C120.258 70.645 104.452 73.0529 91.7637 77.1392C57.9937 87.9996 34.7943 110.54 34.7943 136.596C34.7943 173.244 80.7235 202.967 137.393 202.967C194.043 202.967 239.972 173.244 239.972 136.596C239.972 110.54 216.763 87.9996 183.003 77.1392ZM137.383 174.423C128.931 174.423 122.017 157.798 121.617 136.906C132.107 137.853 142.66 137.853 153.149 136.906C152.739 157.808 145.836 174.423 137.383 174.423ZM122.686 120.561C124.994 105.894 130.699 95.5129 137.383 95.5129C144.057 95.5129 149.772 105.904 152.07 120.561C142.296 121.453 132.461 121.453 122.686 120.561ZM161.062 119.452C157.635 96.4321 148.323 79.9368 137.383 79.9368C126.443 79.9368 117.131 96.4321 113.704 119.452C92.8627 116.195 78.2957 108.791 78.2957 100.169C78.2957 88.5491 104.752 79.1275 137.383 79.1275C170.014 79.1275 196.471 88.5491 196.471 100.169C196.471 108.791 181.904 116.195 161.062 119.452ZM49.761 134.159C49.761 122.919 54.0872 112.398 61.6305 103.336C61.5421 103.965 61.4987 104.599 61.5006 105.234C61.5006 119.372 82.7317 131.381 112.335 135.797C112.315 136.866 112.295 137.935 112.295 139.014C112.295 165.291 119.589 187.551 129.66 195.224C84.8798 192.497 49.761 166.21 49.761 134.159ZM145.106 195.234C155.177 187.561 162.471 165.301 162.471 139.024C162.471 137.945 162.461 136.876 162.431 135.807C192.025 131.391 213.256 119.372 213.256 105.244C213.256 104.605 213.206 103.975 213.116 103.346C220.659 112.408 224.985 122.939 224.985 134.169C224.995 166.21 189.876 192.497 145.106 195.234Z" fill="white"/>
</g>
<defs>
<clipPath id="clip0_2_15238">
<rect width="1024" height="273.567" fill="white" transform="translate(0.594727 0.0175781)"/>
</clipPath>
</defs>
</svg>
