<svg width="526" height="513" viewBox="0 0 526 513" fill="none" xmlns="http://www.w3.org/2000/svg">
<g clip-path="url(#clip0_820_437)">
<path d="M432.419 0.0507812H93.2742C41.9164 0.0507812 0.282715 41.6845 0.282715 93.0422V419.059C0.282715 470.417 41.9164 512.051 93.2742 512.051H432.419C483.777 512.051 525.411 470.417 525.411 419.059V93.0422C525.411 41.6845 483.777 0.0507812 432.419 0.0507812Z" fill="#001E36"/>
<path d="M185.528 272.804V359.11C185.582 359.493 185.547 359.884 185.425 360.251C185.303 360.618 185.097 360.951 184.823 361.225C184.55 361.498 184.216 361.704 183.849 361.826C183.482 361.949 183.092 361.984 182.709 361.929H139.379C139.024 361.972 138.663 361.931 138.326 361.809C137.989 361.686 137.687 361.486 137.442 361.224C137.02 360.475 136.836 359.615 136.913 358.758V133.656C136.913 130.369 137.735 128.725 139.379 128.724H278.88C279.737 128.648 280.596 128.832 281.346 129.252C281.814 129.605 282.166 131.19 282.403 134.008L286.278 172.406C286.392 172.745 286.403 173.11 286.309 173.455C286.215 173.801 286.02 174.11 285.749 174.343C285.447 174.638 285.089 174.868 284.695 175.02C284.301 175.171 283.881 175.24 283.459 175.224H185.528V228.77H273.596C275.709 228.77 276.766 229.595 276.766 231.235V269.986C276.821 270.368 276.786 270.759 276.663 271.126C276.541 271.493 276.335 271.826 276.062 272.1C275.788 272.373 275.455 272.579 275.088 272.701C274.721 272.824 274.33 272.859 273.947 272.804L185.528 272.804Z" fill="#31A8FF"/>
<path d="M307.766 186.82H346.164C347.207 186.829 348.218 187.178 349.044 187.814C349.871 188.45 350.467 189.338 350.743 190.343C351.581 191.887 352.175 193.55 352.505 195.275C352.996 197.541 353.349 199.835 353.562 202.144C353.792 204.61 353.91 207.252 353.914 210.07C360.499 202.403 368.44 196.014 377.339 191.224C387.337 185.819 398.562 183.088 409.925 183.298C410.356 183.236 410.795 183.276 411.208 183.413C411.62 183.551 411.995 183.783 412.303 184.09C412.611 184.398 412.843 184.773 412.98 185.186C413.118 185.598 413.157 186.038 413.096 186.468V229.093C413.096 230.739 411.917 231.559 409.573 231.559C395.383 230.681 381.189 233.218 368.181 238.957C363.76 240.869 359.753 243.621 356.38 247.059V358.73C356.38 360.844 355.441 361.901 353.562 361.901H310.937C310.458 361.969 309.97 361.926 309.511 361.773C309.052 361.62 308.636 361.363 308.294 361.021C307.952 360.679 307.694 360.262 307.541 359.803C307.388 359.344 307.345 358.856 307.413 358.378V237.196C307.413 232.032 307.355 226.572 307.238 220.815C307.116 215.063 306.94 209.368 306.709 203.729C306.553 198.89 306.082 194.065 305.3 189.287C305.212 188.946 305.215 188.587 305.307 188.248C305.4 187.908 305.58 187.598 305.829 187.349C306.078 187.1 306.387 186.92 306.727 186.828C307.067 186.735 307.425 186.732 307.766 186.82Z" fill="#31A8FF"/>
</g>
<defs>
<clipPath id="clip0_820_437">
<rect width="525.128" height="512" fill="white" transform="translate(0.282715 0.0507812)"/>
</clipPath>
</defs>
</svg>
