<svg width="1025" height="284" viewBox="0 0 1025 284" fill="none" xmlns="http://www.w3.org/2000/svg">
<g clip-path="url(#clip0_824_155)">
<path d="M280.754 193.339C270.158 192.749 259.86 189.624 250.723 184.227C241.587 178.83 233.879 171.318 228.249 162.323C235.04 108.197 254.805 91.371 280.956 91.371C307.107 91.371 326.974 111.643 326.974 142.051C326.974 172.459 306.702 192.731 280.956 192.731M280.956 57.5168C262.501 56.7689 244.371 62.5312 229.734 73.7962C215.096 85.0612 204.884 101.112 200.882 119.144C192.206 100.965 185.642 81.8526 181.32 62.1793H116.753V142.254C116.753 171.344 103.577 192.934 77.7298 192.934C51.8831 192.934 37.1859 171.445 37.1859 142.254V62.1793H0.0882016V142.254C-0.753741 164.443 6.89446 186.119 21.4751 202.867C28.592 210.616 37.2857 216.751 46.9715 220.859C56.6573 224.968 67.1107 226.955 77.6285 226.686C122.328 226.686 153.648 192.325 153.648 143.166V89.0397C161.24 118.165 173.789 145.767 190.746 170.634L170.88 283.955H208.585L221.661 203.678C225.989 207.404 230.598 210.793 235.446 213.814C248.042 221.769 262.521 226.246 277.409 226.788H280.855C291.93 226.903 302.914 224.776 313.146 220.535C323.377 216.294 332.645 210.026 340.391 202.11C348.137 194.193 354.201 184.792 358.219 174.47C362.236 164.149 364.123 153.121 363.767 142.051C364.026 131.022 362.064 120.053 358 109.797C353.935 99.5405 347.849 90.2063 340.105 82.3487C332.361 74.4912 323.116 68.2707 312.92 64.0571C302.725 59.8435 291.785 57.7227 280.754 57.8209" fill="#14A800"/>
<path d="M814.109 79.8167V62.7883H777.62V221.214H814.616V159.181C814.616 120.969 818.062 93.5003 869.35 97.0479V60.9638C845.429 59.1393 826.779 64.106 814.109 79.9181" fill="#14A800"/>
<path d="M557.77 62.6865L531.011 173.574L502.428 62.6865H455.397L426.813 173.574L400.054 62.6865H362.652L403.703 221.315H448.099L478.912 108.704L509.421 221.315H553.817L597.199 62.6865H557.77Z" fill="#14A800"/>
<path d="M678.49 193.44C652.237 193.44 632.574 172.661 632.574 142.76C632.574 112.859 652.846 92.0804 678.49 92.0804C704.134 92.0804 724.912 111.643 724.912 142.051C724.912 172.459 704.64 192.731 678.895 192.731M678.895 57.4153C667.803 57.2594 656.795 59.3527 646.535 63.5691C636.274 67.7854 626.975 74.0372 619.197 81.947C611.42 89.8569 605.327 99.2608 601.284 109.591C597.242 119.921 595.335 130.963 595.679 142.051C595.289 153.176 597.145 164.266 601.134 174.659C605.123 185.052 611.164 194.535 618.896 202.543C626.629 210.551 635.896 216.92 646.143 221.27C656.39 225.62 667.408 227.862 678.54 227.862C689.673 227.862 700.691 225.62 710.938 221.27C721.185 216.92 730.451 210.551 738.184 202.543C745.917 194.535 751.958 185.052 755.947 174.659C759.936 164.266 761.791 153.176 761.402 142.051C761.674 131.026 759.726 120.06 755.672 109.804C751.619 99.5485 745.543 90.2132 737.807 82.3542C730.071 74.4951 720.832 68.273 710.642 64.0583C700.451 59.8435 689.517 57.7222 678.49 57.8208" fill="#14A800"/>
<path d="M922.26 143.369H930.774L982.366 221.315H1024.03L964.73 134.855C978.991 128.974 991.178 118.979 999.735 106.143C1008.29 93.3077 1012.83 78.2141 1012.77 62.7878H975.981C975.981 96.9461 949.019 109.92 922.26 109.92V0.147461H885.264V221.315H922.159L922.26 143.369Z" fill="#14A800"/>
</g>
<defs>
<clipPath id="clip0_824_155">
<rect width="1024" height="283.808" fill="white" transform="translate(0.0253906 0.147461)"/>
</clipPath>
</defs>
</svg>
