<svg width="1024" height="408" viewBox="0 0 1024 408" fill="none" xmlns="http://www.w3.org/2000/svg">
<g clip-path="url(#clip0_758_376)">
<path d="M204.445 191.112C202.187 142.949 167.413 125.323 130.363 125.533C90.4437 125.751 58.6489 146.172 53.2854 191.968L204.445 191.112ZM52.3453 226.121C55.4006 272.731 87.6654 300.102 131.883 299.858C162.502 299.682 189.672 287.067 198.628 259.88L251.558 259.586C241.595 314.715 183.142 333.735 132.831 334.003C41.2407 334.515 0.380846 284.33 0.00313602 216.292C-0.416542 141.363 41.2742 91.883 132.328 91.3626C204.747 90.9597 258.046 128.571 258.508 211.315L258.592 224.954L52.3453 226.121Z" fill="#E53238"/>
<path d="M390.689 297.458C438.432 297.189 470.789 262.642 470.495 210.836C470.202 159.031 437.366 124.836 389.733 125.105C342.099 125.373 309.633 159.921 309.918 211.726C310.204 263.531 343.274 297.718 390.689 297.458ZM257.299 0.326152L308.634 0.0407715L309.348 129.041C334.344 98.9252 368.942 90.0113 403.078 89.8098C460.297 89.4993 524.046 127.732 524.516 211.13C524.894 280.713 474.65 332.056 403.464 332.451C366.004 332.669 331.078 319.483 309.306 293.16C309.361 303.621 308.829 314.076 307.711 324.477L257.4 324.762C258.155 308.689 258.953 288.133 258.86 271.698L257.299 0.326152Z" fill="#0064D2"/>
<path d="M648.69 215.998C602.123 217.811 573.274 226.314 573.442 256.984C573.551 276.835 589.726 298.272 629.679 298.037C683.524 297.743 712.154 268.19 711.886 220.069V214.723C692.983 214.891 669.59 215.176 648.69 215.998ZM763.539 279.001C763.623 293.924 764.135 308.697 765.487 321.808L717.744 322.076C716.501 311.419 715.87 300.7 715.856 289.971C690.239 321.866 659.552 331.175 616.954 331.418C553.734 331.771 519.715 298.557 519.497 259.922C519.186 203.979 565.108 183.969 645.014 181.711C666.837 181.106 691.422 180.871 711.701 180.737V175.39C711.483 137.93 687.36 122.637 645.778 122.872C614.89 123.048 592.328 135.974 589.936 158.125L535.932 158.419C541.345 103.307 599.135 89.0124 650.042 88.7522C711.004 88.4164 762.566 109.803 762.918 174.299L763.539 279.001Z" fill="#F5AF02"/>
<path d="M771.715 166.711L733.944 96.5246L793.991 96.1888L882.871 271.799L969.559 95.3663L1024 94.9634L866.982 407.632L809.486 407.959L854.66 321.103L771.673 166.72" fill="#86B817"/>
</g>
<defs>
<clipPath id="clip0_758_376">
<rect width="1024" height="407.918" fill="white" transform="translate(0 0.0407715)"/>
</clipPath>
</defs>
</svg>
