<svg width="513" height="513" viewBox="0 0 513 513" fill="none" xmlns="http://www.w3.org/2000/svg">
<g clip-path="url(#clip0_2_15193)">
<path d="M418.068 469.066C411.444 469.066 406.064 474.438 406.064 481.068C406.064 487.69 411.444 493.068 418.068 493.068C424.694 493.068 430.064 487.69 430.064 481.068C430.064 474.438 424.694 469.066 418.068 469.066ZM418.068 490.494C416.83 490.495 415.604 490.252 414.46 489.778C413.316 489.305 412.276 488.611 411.401 487.735C410.525 486.86 409.831 485.82 409.358 484.676C408.885 483.532 408.642 482.306 408.643 481.068C408.643 475.86 412.855 471.648 418.068 471.648C423.276 471.648 427.492 475.859 427.492 481.068C427.492 486.278 423.276 490.494 418.068 490.494ZM423 478.286C423 477.751 422.894 477.222 422.689 476.729C422.485 476.235 422.184 475.787 421.806 475.41C421.428 475.031 420.98 474.732 420.486 474.527C419.992 474.323 419.462 474.219 418.928 474.22H413.145V487.918H415.716V482.355H417.56L420.157 487.918H423L420.288 482.118C421.081 481.837 421.767 481.318 422.252 480.632C422.738 479.946 422.999 479.126 423 478.286H423ZM418.928 479.783H415.716V476.786H418.928C419.754 476.786 420.429 477.458 420.429 478.286C420.428 478.684 420.269 479.065 419.988 479.345C419.706 479.626 419.325 479.783 418.928 479.783Z" fill="#041E42"/>
<path d="M512.315 256.804C512.315 398.194 397.751 512.803 256.355 512.803C114.969 512.803 0.319336 398.195 0.319336 256.804C0.319336 115.409 114.935 0.802734 256.321 0.802734C397.718 0.802734 512.315 115.409 512.315 256.804Z" fill="#A2AAAD"/>
<path d="M256.315 17.9824C124.417 17.9824 17.5095 124.915 17.5095 256.802C17.5095 388.683 124.452 495.62 256.35 495.62C388.249 495.62 495.118 388.684 495.118 256.802C495.118 124.914 388.214 17.9824 256.315 17.9824ZM364.407 302.763L353.804 297.48L286.546 301.979V311.915L317.09 355.854V382.506L274.96 361.734L271.494 352.986L256.312 386.59L241.6 352.979L238.122 361.734L195.999 382.506V355.861L226.55 311.916V301.979L159.29 297.48L148.682 302.763V241.197L148.553 223.881L163.191 259.097L229.914 227.259L233.511 186.389L256.343 80.1936L279.583 186.389L283.18 227.259L349.896 259.098L364.142 223.432L364.406 241.197L364.407 302.763Z" fill="#041E42"/>
<path d="M279.426 82.2543L256.331 24.0527L231.84 82.2575C145.659 93.8839 79.1995 167.686 79.1995 257.058C79.1995 354.494 158.888 433.495 256.331 433.495C353.776 433.495 432.064 354.495 432.064 257.058C432.064 167.685 365.611 93.8791 279.426 82.2543ZM364.411 302.763L353.808 297.48L286.55 301.979V311.915L317.094 355.854V382.506L274.964 361.734L271.498 352.986L256.316 386.59L241.604 352.979L238.127 361.734L196.003 382.506V355.861L226.554 311.916V301.979L159.295 297.48L148.687 302.763V241.197L148.557 223.881L163.195 259.097L229.918 227.259L233.515 186.389L256.347 80.1935L279.587 186.389L283.184 227.259L349.9 259.098L364.147 223.432L364.411 241.197L364.411 302.763Z" fill="white"/>
<path d="M148.543 223.886L163.184 259.102L229.906 227.262L233.506 186.393L238.461 163.505L204.843 141.464L218.374 221.587L182.595 185.889L181.614 214.057L129.26 194.303L148.675 245.712V241.2L148.543 223.886ZM226.541 301.984L179.077 298.808L198.274 315.556L186.99 329.605L211.476 333.588L226.541 311.92V301.984ZM256.335 386.435L241.59 352.984L241.311 353.692L256.338 426.664L271.546 353.15L271.484 352.99L256.335 386.435ZM286.537 311.921L301.609 333.605L326.393 329.616L315.102 315.556L334.323 298.786L286.536 301.983L286.537 311.921ZM283.173 227.264L349.89 259.102L364.135 223.436L364.398 241.199V246.535L384.136 194.295L331.763 214.057L330.775 185.889L295 221.592C295.917 216.029 308.53 141.463 308.53 141.463L274.654 163.711L279.578 186.392L283.173 227.264V227.264ZM393.239 247.388L364.399 247.252V272.549L393.239 247.388ZM120.135 247.388L148.674 272.284V247.252L120.135 247.388Z" fill="#782F40"/>
<path d="M226.49 301.981L182.974 299.071L201.366 315.123C201.075 315.937 191.39 327.915 191.39 327.915L212.933 331.421L226.49 311.917V301.981ZM237.879 165.954L208.089 146.393L208.148 146.747L231.845 204.654L233.453 186.391L237.879 165.954ZM218.359 224.888C218.331 224.865 218.303 224.85 218.274 224.827L184.778 191.417L183.8 217.354L133.719 198.517L182.616 249.801L223.731 230.182L218.359 224.888ZM245.491 361.863L256.365 416.791L256.313 386.613L245.491 361.863ZM126.425 249.722L148.625 269.093V249.618L126.425 249.722ZM305.073 146.571L275.165 166.301L278.519 181.754L305.073 146.571ZM380.039 198.463L330.027 217.385L315.403 242.666L325.405 247.44L380.039 198.463Z" fill="#A6192E"/>
<path d="M364.145 223.431L349.898 259.095L283.182 227.257L279.586 186.387L256.346 80.1914L233.513 186.387L229.915 227.257L163.193 259.095L148.554 223.879L148.684 241.195V302.761L159.292 297.478L226.551 301.977V311.913L196.001 355.859V382.503L238.124 361.731L241.601 352.977L256.314 386.588L271.495 352.983L274.962 361.731L317.09 382.503V355.852L286.547 311.914V301.976L353.806 297.478L364.409 302.761V241.195L364.145 223.43V223.431ZM256.318 375.119L241.758 342.047L236.809 330.571L239.74 345.179L234.498 358.384L200.61 375.099V357.301L231.154 313.363V297.676L158.349 292.804L153.295 295.321V247.295L160.802 265.339L227.819 233.363L232.194 254.788L234.253 230.292L234.275 230.287L238.076 187.026L256.33 98.805L256.318 375.119V375.119Z" fill="#53565A"/>
</g>
<defs>
<clipPath id="clip0_2_15193">
<rect width="511.995" height="512" fill="white" transform="translate(0.319336 0.800781)"/>
</clipPath>
</defs>
</svg>
