<svg width="357" height="513" viewBox="0 0 357 513" fill="none" xmlns="http://www.w3.org/2000/svg">
<g clip-path="url(#clip0_795_4883)">
<path d="M324.209 237.54C305.652 211.307 280.312 190.613 250.899 177.674C255.505 176.645 259.759 174.422 263.235 171.229C268.671 166.128 270.631 158.198 268.253 150.969C269.168 149.803 269.894 148.643 270.6 147.519L271.368 146.317C276.03 139.033 279.826 131.23 282.68 123.067C285.518 114.792 288.043 105.524 287.274 93.8262C286.914 89.033 285.575 85.2852 284.399 81.9764L283.95 80.6958C282.491 76.7493 280.589 74.0469 278.749 71.4281L278.388 70.9054C272.184 62.0455 263.099 56.3531 252.132 54.4505C247.151 53.5619 240.842 53.7134 236.096 54.8373C235.334 55.0193 234.583 55.2462 233.848 55.5168C232.262 53.7884 230.533 52.1972 228.678 50.7601C222.74 46.0557 212.197 41.3723 200.368 42.334C200.029 42.3654 199.689 42.4072 199.354 42.449C199.212 41.8315 199.042 41.221 198.842 40.6195C198.624 39.8991 198.355 39.1951 198.037 38.513C197.884 38.1525 197.724 37.7952 197.556 37.4415L197.07 36.5529C196.854 36.1637 196.627 35.7802 196.391 35.4029C196.141 34.9765 195.86 34.5693 195.549 34.185C195.16 33.6509 194.746 33.1346 194.31 32.6378L193.714 32.0157L193.61 31.9112H197.713V9.06875H189.439V0.574707H167.239V9.07398H158.985V31.9164H163.063C160.479 34.5579 158.609 37.8139 157.632 41.3775C157.48 41.8832 157.346 42.394 157.229 42.909C156.117 42.7974 155.001 42.7381 153.884 42.7313C143.733 42.7313 134.355 46.1289 127.492 52.2655C126.148 53.4643 124.89 54.7569 123.729 56.1336C122.445 55.7163 121.136 55.3845 119.808 55.1404C118.454 54.9479 117.095 54.7997 115.731 54.6961L114.728 54.5916L114.33 54.5393L112.354 54.2518L112.339 54.4087C109.694 54.3146 107.237 54.8059 105.455 55.1404C105.167 55.2032 104.895 55.2345 104.43 55.2973L103.186 55.5063C86.7469 59.3849 74.5103 72.5624 71.259 89.8693C70.5222 93.7258 70.2868 97.6612 70.5586 101.578C71.6928 118.258 76.9879 129.559 82.7795 140.619L83.4225 141.822C85.0167 144.838 86.9612 148.512 89.5382 151.633C88.2837 155.48 88.2994 160.08 89.627 164.199C91.5402 170.011 96.0825 174.533 102.407 176.932C103.411 177.314 104.451 177.632 105.523 177.894C76.1421 190.931 50.8593 211.711 32.3798 238.011C11.7432 267.356 0.834229 301.76 0.834229 337.514C0.834229 434.043 80.5319 512.575 178.488 512.575C276.407 512.575 356.084 434.043 356.084 337.514C356.084 301.557 345.06 266.99 324.209 237.54Z" fill="#FEFEFE"/>
<path d="M9.61572 338.219C9.61572 246.484 85.2101 172.102 178.488 172.102C271.708 172.102 347.302 246.484 347.302 338.219C347.302 429.955 271.708 504.332 178.488 504.332C85.2101 504.332 9.61572 429.955 9.61572 338.219Z" fill="#E01517"/>
<path d="M29.9126 338.376C29.9126 335.193 33.0489 332.626 36.9326 332.626C40.7432 332.626 43.9056 335.188 43.9056 338.376C43.9056 341.523 40.7484 344.116 36.9326 344.116C33.0489 344.116 29.9126 341.523 29.9126 338.376ZM310.242 338.376C310.242 335.193 313.358 332.626 317.215 332.626C321.104 332.626 324.214 335.188 324.214 338.376C324.214 341.523 321.104 344.116 317.215 344.116C313.358 344.116 310.242 341.523 310.242 338.376ZM71.7504 265.652L65.0963 267.058C66.3142 269.457 66.1469 271.877 64.7251 274.187C62.352 277.909 57.3549 276.827 53.5914 274.715C49.8331 272.562 46.3885 268.793 48.103 264.737C49.1327 262.249 50.821 260.853 53.3301 260.383L51.3856 254.11C47.0941 255.082 44.4074 257.382 42.2381 261.386C38.5478 268.249 42.9699 277.324 50.0004 281.343C57.0465 285.326 66.6539 284.767 70.5795 277.528C72.7174 273.508 73.1931 269.98 71.7504 265.652ZM82.0687 236.484C85.3147 239.453 86.5849 244.853 83.5898 248.078L81.5146 250.263L69.4557 238.225L71.489 236.071C74.3326 233.055 79.0579 233.683 82.0687 236.484ZM87.2121 231.012C81.2898 225.549 72.1163 225.345 66.6226 231.221L59.5033 238.79L81.3735 260.461L88.4301 252.913C94.1799 246.824 93.3069 236.73 87.2121 231.012ZM254.087 240.53L270.182 214.013L264.024 210.02L254.871 225.063L255.159 204.385L248.991 200.386L232.912 226.866L239.117 230.839L248.212 215.848L247.919 236.537L254.087 240.53ZM217.811 209.591L212.532 208.216L217.341 199.942L217.811 209.591ZM225.987 223.641L222.615 191.275L216.625 189.717L198.874 216.674L205.549 220.134L208.868 214.478L218.182 216.888L218.533 223.458L225.987 223.641ZM186.966 196.387C186.966 199.064 184.217 200.595 181.655 200.595H180.479V192.164H181.655C184.217 192.164 186.966 193.732 186.966 196.387ZM194.331 196.392C194.331 189.744 188.116 185.186 181.661 185.186H173.203V216.438H180.485V207.578H181.661C188.116 207.578 194.331 203.073 194.331 196.392ZM161.568 208.122C160.69 203.48 157.104 201.416 152.661 200.14L150.533 199.555C148.301 198.912 146.42 198.577 146.566 196.722C146.613 195.54 147.371 194.505 148.432 194.275C150.099 193.857 151.84 193.737 152.969 194.96L156.231 189.08C153.403 186.958 150.533 186.66 147.021 187.459C142.604 188.421 138.5 193.188 139.4 198.217C140.34 203.287 144.689 204.949 149.498 206.434L151.286 207.024C152.781 207.526 154.166 208.038 154.433 209.638C154.559 210.386 154.417 211.155 154.032 211.808C153.646 212.461 153.042 212.957 152.326 213.208C150.277 213.872 147.888 213.381 146.979 211.399L143.477 217.515C146.42 220.348 150.444 220.735 153.774 220.05C159.053 218.895 162.587 213.553 161.568 208.122ZM134.141 223.845L131.407 217.51L121.476 222.031L119.103 216.6L127.199 212.926L124.455 206.564L116.353 210.25L114.618 206.246L124.1 201.912L121.319 195.54L105.204 202.963L117.592 231.482L134.141 223.845ZM299.406 244.571L296.265 237.592L282.157 241.79L287.217 227.583L280.652 223.845L274.693 243.745L266.267 251.81L271.316 257.377L279.7 249.296L299.406 244.571ZM305.141 277.512C300.797 280.105 296.056 280.883 293.871 276.994C291.696 273.095 294.702 269.3 299.098 266.681C303.468 264.068 308.178 263.326 310.347 267.214C312.553 271.093 309.516 274.898 305.141 277.512ZM308.81 284.093C315.882 279.906 320.2 271.046 316.149 263.786C312.061 256.509 302.433 255.903 295.376 260.147C288.346 264.313 284.034 273.189 288.079 280.444C292.188 287.694 301.795 288.295 308.81 284.093ZM302.762 318.978L309.338 317.29L306.735 306.7L329.614 300.83L327.878 293.554L298.413 301.097L302.762 318.978ZM45.7455 379.095C41.5534 380.313 36.4779 378.588 35.3802 374.26L34.6797 371.307L50.9726 367.125L51.6992 370.058C52.6558 374.14 49.692 377.919 45.7455 379.095ZM47.5332 386.429C55.1648 384.202 60.1514 376.294 58.2854 368.39L55.8025 358.171L26.3582 365.704L28.8358 375.886C30.7803 384.15 39.5932 388.781 47.5332 386.429ZM48.9916 421.874L54.9191 418.497L49.6397 408.707L54.6839 405.816L58.9858 413.819L64.8924 410.437L60.6166 402.487L64.354 400.323L69.3564 409.658L75.2787 406.255L66.7533 390.428L40.1734 405.534L48.9916 421.874ZM89.9825 450.56C88.6757 452.249 86.5849 451.554 84.1177 449.635L83.2395 448.872L86.7626 444.209L87.6878 444.941C90.2909 447.022 91.2631 448.877 89.9825 450.56ZM96.0669 440.409C95.126 441.69 93.7617 441.612 91.514 439.845L90.6411 439.176L93.5683 435.292L94.3785 435.919C96.6366 437.754 96.9921 439.233 96.0669 440.409ZM95.3142 455.777C97.4677 452.944 97.1436 449.405 95.2619 446.326C98.1995 447.022 100.923 446.306 102.789 443.823C106.061 439.536 103.029 434.032 98.4713 430.337L91.9897 425.172L73.308 449.787L80.3803 455.39C85.2938 459.405 91.7597 460.497 95.3142 455.777ZM122.281 466.242L117.299 463.952L123.446 456.65L122.281 466.242ZM127.978 481.531L130.132 449.06L124.487 446.494L102.454 469.875L108.476 474.417L112.668 469.488L121.455 473.502L120.671 480.036L127.978 481.531ZM158.212 467.318C157.893 469.483 155.321 470.308 153.183 469.984L152.039 469.812L153.089 462.917L154.245 463.074C157.611 463.639 158.562 465.039 158.212 467.318ZM165.713 487.276L159.163 476.063C160.805 475.481 162.26 474.469 163.378 473.133C164.495 471.798 165.235 470.187 165.519 468.468C166.455 462.29 161.285 457.199 155.274 456.174L146.947 454.862L142.206 485.697L149.409 486.878L150.962 476.696L152.091 476.863L158.834 489.455L165.713 487.276ZM200.991 484.693L196.239 479.701C195.016 482.038 192.904 483.261 190.27 483.261C185.968 483.261 184.06 478.295 183.778 473.889C183.454 469.498 184.687 464.522 188.942 463.738C191.477 463.252 193.568 463.952 195.303 465.912L199.391 460.795C196.213 457.607 192.909 456.551 188.435 456.906C180.84 457.45 175.864 466.195 176.413 474.422C176.977 482.702 182.685 490.705 190.693 490.145C195.178 489.79 198.299 488.253 200.991 484.693ZM233.649 479.78L231.689 473.079L221.287 476.367L219.589 470.69L228.072 468.04L226.096 461.37L217.602 464.067L216.39 459.87L226.3 456.734L224.288 450.1L207.42 455.359L216.275 485.268L233.649 479.78ZM278.733 432.088C282.241 435.799 284.117 440.347 280.997 443.431C277.86 446.577 273.527 444.492 270.056 440.739C266.481 437.017 264.625 432.49 267.746 429.385C270.903 426.27 275.205 428.324 278.733 432.088ZM284.06 426.756C278.383 420.766 268.99 418.597 263.141 424.446C257.323 430.248 259.027 440.017 264.693 446.023C270.37 452.034 279.753 454.219 285.633 448.396C291.508 442.584 289.715 432.82 284.06 426.756ZM265.66 463.335L262.372 457.262L253.12 462.567L241.699 441.361L235.275 444.988L250.068 472.295L265.66 463.335ZM317.299 368.035L316.149 373.549L307.932 368.85L317.299 368.035ZM330.691 359.185L299.318 363.728L298.042 369.927L324.857 387.239L327.952 380.272L322.364 377.114L324.366 367.418L330.753 366.864L330.691 359.185ZM319.233 401.122L292.669 385.99L289.156 392.56L304.205 401.122L284.133 401.907L280.552 408.456L307.127 423.578L310.671 417.039L295.591 408.472L315.715 407.672L319.233 401.122ZM37.654 299.053C39.7762 299.544 40.4139 302.21 39.9434 304.405L39.6821 305.54L33.0803 304.003L33.3364 302.827C34.0891 299.429 35.5684 298.556 37.654 299.053ZM57.564 292.77L46.2735 298.687C45.2542 295.017 42.5674 292.404 39.3214 291.625C33.3991 290.24 28.0936 295.206 26.7555 301.222L24.8267 309.69L54.4121 316.752L56.0481 309.455L46.2891 307.134L46.5244 306.01L59.1792 299.926L57.564 292.759V292.77Z" fill="#F5D10D"/>
<path d="M66.999 338.183C66.999 279.033 116.934 231.053 178.493 231.053C240.006 231.053 289.904 279.043 289.904 338.183C289.904 397.322 240 445.281 178.488 445.281C116.934 445.281 66.9938 397.322 66.999 338.183Z" fill="#FEFEFE"/>
<path d="M66.9937 338.183C66.9937 279.033 116.933 231.053 178.488 231.053C240.011 231.053 289.909 279.043 289.909 338.183C289.909 397.322 240.006 445.281 178.488 445.281C116.928 445.281 66.9937 397.322 66.9937 338.183Z" fill="#FEFEFE"/>
<mask id="mask0_795_4883" style="mask-type:luminance" maskUnits="userSpaceOnUse" x="66" y="231" width="224" height="215">
<path d="M66.9937 338.183C66.9937 279.033 116.933 231.053 178.488 231.053C240.011 231.053 289.909 279.043 289.909 338.183C289.909 397.322 240.006 445.281 178.488 445.281C116.928 445.281 66.9937 397.322 66.9937 338.183Z" fill="white"/>
</mask>
<g mask="url(#mask0_795_4883)">
<path d="M303.886 271.982L333.9 302.889L142.149 500.197L112.119 469.279L303.886 271.982ZM259.257 224.269L289.25 255.203L97.4991 452.479L67.4955 421.545L259.257 224.269ZM225.673 165.103L255.676 196.042L63.9515 393.313L33.9375 362.421L225.673 165.103Z" fill="#0077BD"/>
</g>
<path d="M258.478 104.045C258.143 107.596 257.414 111.099 256.304 114.489C256.215 114.792 256.074 115.059 255.974 115.357C255.87 115.78 255.713 116.109 255.65 116.433C255.452 116.94 255.363 117.296 255.216 117.714C255.07 118.158 254.85 118.524 254.678 118.932C254.538 119.422 254.353 119.898 254.124 120.354C253.915 120.861 253.685 121.342 253.481 121.901C253.209 122.424 252.906 123.004 252.629 123.558C252.321 124.17 251.986 124.75 251.683 125.34C251.312 126.025 250.951 126.715 250.585 127.416C249.482 129.381 248.175 131.346 246.869 133.171C244.731 136.166 242.572 138.711 242.797 144.179C239.07 144.212 235.439 145.362 232.374 147.482C231.506 148.089 230.806 149.124 229.98 149.714C229.954 149.767 229.75 149.809 229.651 149.798C229.651 149.798 229.609 149.505 229.588 149.453C229.588 149.453 229.698 149.244 229.651 149.166C229.579 148.493 229.481 147.823 229.358 147.158C228.907 145.018 227.87 143.045 226.363 141.461C225.621 140.713 224.92 139.997 224.058 139.37C222.343 138.048 222.735 138.575 224.058 137.211C226.363 134.88 227.69 130.442 229.232 127.149C233.205 118.367 236.545 108.734 237.956 97.2082C238.401 93.4081 238.725 88.8082 238.155 84.6997C239.645 84.2293 241.422 84.0306 243.257 83.8686C248.944 83.3877 253.157 86.2469 255.655 89.472C256.084 90.0836 256.706 90.6847 257.072 91.4479C258.583 94.4953 258.692 97.9138 258.536 102.028C258.614 102.033 258.478 103.747 258.478 104.045ZM211.926 116.209C210.891 118.692 209.819 121.169 208.768 123.631C207.692 126.14 206.113 128.435 205.888 131.89C205.778 133.662 206.275 134.984 206.521 136.385C201.837 137.729 197.875 140.149 195.884 144.346C193.537 138.994 191.634 137.311 186.757 134.765C187.614 133.458 188.393 131.744 188.696 129.742C188.947 128.106 188.817 126.145 188.817 124.29V75.7352C191.932 74.1775 195.46 72.8342 199.637 72.5049C205.334 72.0501 209.589 73.8116 212.548 76.4252C214.236 77.9411 215.715 79.5615 216.635 81.9555C220.42 91.8504 214.936 108.802 211.926 116.209ZM161.907 143.526C161.782 143.902 161.698 144.247 161.594 144.712C160.977 144.101 160.653 143.384 160.13 142.653C158.065 139.82 154.464 137.624 150.617 136.798C152.054 130.803 150.246 128.106 148.406 123.861C147.183 121.169 145.85 118.373 144.851 115.529C139.007 99.3408 132.73 74.7996 155.488 72.9335C160.627 72.5049 164.782 74.58 168.373 76.0593C168.744 79.9901 168.452 84.5481 168.452 88.6305V117.207C168.452 121.336 167.939 126.856 168.598 130.604C168.917 132.366 169.701 133.751 170.469 135.031C166.826 136.898 163.251 139.197 161.907 143.526ZM133.184 139.961C132.172 140.726 131.274 141.632 130.519 142.653C128.95 144.587 127.795 146.819 127.795 150.378C125.501 148.632 123.436 146.615 120.362 145.737C118.669 145.183 116.986 144.994 114.733 144.628C115.235 139.579 112.945 136.997 111.126 134.268C109.788 132.298 108.303 130.275 107.174 128.174C105.429 124.954 103.547 121.629 102.308 117.981C99.9557 111.227 96.992 98.4209 101.195 91.4584C103.494 87.5014 107.206 84.867 112.731 84.4645C114.952 84.3808 117.174 84.6788 119.301 85.3322C118.768 89.2002 118.998 93.4185 119.458 97.1298C120.896 109.262 124.403 118.885 128.412 128.174C129.714 131.284 130.911 134.943 132.934 137.337C133.446 137.901 134.031 138.534 134.57 138.999C134.042 139.312 133.66 139.621 133.184 139.961ZM279.245 95.7394C278.932 91.4531 277.557 88.0137 276.397 84.7102C275.194 81.4589 273.496 79.1694 271.734 76.6447C266.925 69.7606 259.654 64.8524 250.183 63.2006C246.053 62.4688 240.748 62.6256 236.942 63.5352C235.97 63.7286 231.297 65.6051 230.869 65.4535C230.67 65.4012 229.227 63.3104 228.992 63.0281C227.685 61.3555 225.568 59.4476 223.948 58.1826C218.81 54.1055 210.195 50.5301 200.787 51.3037C197.844 51.5756 195.277 52.3492 192.622 52.7412C192.674 51.7742 192.773 50.7654 192.826 49.6886V49.192C192.826 48.8313 192.773 48.4654 192.758 48.1048C192.726 47.9741 192.726 47.8695 192.726 47.7389C192.716 47.6186 192.716 47.488 192.674 47.3207C192.674 47.19 192.617 47.0959 192.606 46.9757C192.504 46.3571 192.368 45.7447 192.198 45.141C192.168 45.0153 192.126 44.8927 192.073 44.7751C191.923 44.2403 191.723 43.7206 191.477 43.2226C191.385 42.9829 191.282 42.7474 191.169 42.517C190.897 42.0465 190.62 41.5343 190.317 41.0691C190.212 40.8924 190.093 40.7246 189.961 40.5673C189.683 40.1755 189.386 39.797 189.073 39.433C188.963 39.3494 188.9 39.2344 188.775 39.1403C187.055 37.2639 184.867 35.88 182.434 35.1311V26.8148H190.62V18.4148H182.434V10.0044H174.269V18.42H166.115V26.8148H174.269V35.1259C174.189 35.1548 174.111 35.188 174.034 35.2252C172.874 35.6067 171.787 36.1138 170.767 36.7933C170.61 36.8717 170.454 36.9397 170.313 37.0547C169.701 37.4519 169.11 37.9433 168.52 38.5339C166.57 40.4052 165.164 42.7679 164.458 45.371C163.695 47.88 163.596 50.5458 164.181 53.1019C160.977 52.5739 157.872 51.7219 154.166 51.7219C145.16 51.7219 137.565 54.9418 132.5 59.4737C130.273 61.4077 128.522 63.922 126.384 65.9553L126.29 66.133C125.872 66.248 124.983 65.6103 124.617 65.4535C122.981 64.8838 121.204 64.2356 119.458 63.922C117.592 63.6397 115.862 63.5874 114.079 63.3313H113.949C111.779 63.0856 109.485 63.5038 107.702 63.8383C106.934 63.9951 106.254 64.0631 105.544 64.1781C92.3189 67.2987 81.9065 78.1292 79.1623 92.7076C78.603 95.4885 78.3783 98.9906 78.603 102.341C79.638 117.578 84.4783 127.776 89.8779 138.084C92.2928 142.621 95.0423 148.272 99.1455 150.885C98.5078 151.863 97.7238 152.736 97.3004 153.891C96.2131 156.436 96.2706 159.881 97.1174 162.516C100.327 172.248 115.135 174.705 124.142 169.185C128.156 166.76 130.351 163.916 130.937 157.921C138.427 165.751 154.684 165.427 160.679 156.248C161.406 155.098 161.871 153.713 162.394 152.234C163.418 153.792 164.364 155.433 165.76 156.567C172.257 162.134 184.933 162.124 191.461 156.567C192.878 155.375 193.814 153.75 194.859 152.182C198.131 161.925 210.154 165.746 220.785 161.397C222.997 160.508 224.758 158.883 226.504 157.424C226.504 166.964 236.373 172.573 246.106 171.606C250.422 171.21 254.49 169.412 257.689 166.488C260.538 163.822 262.519 159.034 260.7 153.786C260.234 152.406 259.262 151.486 258.682 150.221C261.656 148.303 262.712 146.181 264.636 143.181C268.941 136.46 272.444 129.259 275.074 121.723C277.552 114.536 279.925 106.079 279.245 95.7394Z" fill="#F5D10D"/>
<path d="M112.731 84.4595C107.206 84.862 103.495 87.4965 101.195 91.4534C96.9921 98.4159 99.9559 111.222 102.308 117.976C103.547 121.624 105.429 124.949 107.169 128.169C108.298 130.27 109.783 132.298 111.131 134.263C112.945 136.992 115.235 139.574 114.738 144.623C116.986 144.989 118.669 145.178 120.362 145.732C123.436 146.615 125.501 148.627 127.795 150.373C127.795 146.819 128.951 144.592 130.514 142.648C131.303 141.602 132.15 140.735 133.179 139.956C133.66 139.621 134.042 139.307 134.57 138.989C133.996 138.463 133.45 137.909 132.934 137.326C130.911 134.932 129.714 131.273 128.412 128.163C124.408 118.875 120.896 109.252 119.458 97.1143C118.998 93.4031 118.768 89.1953 119.301 85.322C117.175 84.6678 114.954 84.3762 112.731 84.4595ZM199.637 72.5051C195.46 72.8344 191.927 74.1778 188.817 75.7355V124.29C188.817 126.146 188.942 128.106 188.696 129.742C188.393 131.744 187.614 133.453 186.757 134.765C191.634 137.311 193.542 138.999 195.884 144.346C197.875 140.144 201.843 137.729 206.521 136.386C206.275 134.985 205.773 133.662 205.888 131.89C206.113 128.435 207.692 126.14 208.768 123.631C209.819 121.169 210.891 118.692 211.926 116.209C214.936 108.802 220.42 91.8506 216.63 81.9557C215.715 79.5565 214.236 77.9413 212.548 76.4255C209.594 73.8119 205.334 72.0504 199.637 72.5051ZM155.489 72.9337C132.73 74.7998 139.008 99.3411 144.851 115.529C145.85 118.373 147.183 121.169 148.406 123.861C150.246 128.106 152.054 130.803 150.622 136.793C154.464 137.63 158.066 139.82 160.136 142.653C160.653 143.379 160.972 144.096 161.599 144.712C161.683 144.312 161.787 143.916 161.913 143.526C163.251 139.198 166.826 136.898 170.47 135.032C169.701 133.751 168.907 132.366 168.598 130.604C167.94 126.857 168.452 121.342 168.452 117.207V88.6307C168.452 84.5536 168.745 79.9903 168.373 76.0596C164.782 74.5803 160.627 72.5051 155.489 72.9337ZM243.246 83.8741C241.412 84.0361 239.64 84.2347 238.145 84.7104C238.715 88.8137 238.39 93.4135 237.941 97.2136C236.53 108.739 233.195 118.373 229.222 127.154C227.68 130.448 226.352 134.885 224.047 137.217C222.725 138.576 222.333 138.053 224.047 139.37C224.91 139.997 225.615 140.719 226.352 141.472C227.743 143.008 228.835 144.702 229.348 147.164C229.463 147.765 229.578 148.58 229.64 149.171C229.682 149.255 229.578 149.511 229.578 149.511L229.64 149.804C229.745 149.814 229.949 149.772 229.97 149.72C230.796 149.129 231.496 148.089 232.364 147.488C235.431 145.368 239.063 144.218 242.792 144.184C242.562 138.712 244.726 136.166 246.858 133.171C248.165 131.341 249.472 129.381 250.58 127.421C250.941 126.715 251.301 126.025 251.673 125.341C251.976 124.75 252.31 124.17 252.619 123.558C252.896 123.004 253.194 122.419 253.471 121.901C253.68 121.342 253.905 120.856 254.114 120.354C254.344 119.898 254.53 119.42 254.668 118.927C254.835 118.525 255.055 118.159 255.206 117.714C255.363 117.296 255.441 116.941 255.64 116.434C255.708 116.11 255.865 115.78 255.964 115.357C256.074 115.059 256.21 114.792 256.293 114.489C257.408 111.1 258.139 107.597 258.473 104.045C258.473 103.748 258.604 102.033 258.525 102.033C258.672 97.9193 258.567 94.5008 257.067 91.4534C256.691 90.6902 256.074 90.0943 255.64 89.4775C253.147 86.2524 248.934 83.3932 243.246 83.8741Z" fill="#E01517"/>
</g>
<defs>
<clipPath id="clip0_795_4883">
<rect width="355.25" height="512" fill="white" transform="translate(0.834229 0.574707)"/>
</clipPath>
</defs>
</svg>
