<svg width="1024" height="323" viewBox="0 0 1024 323" fill="none" xmlns="http://www.w3.org/2000/svg">
<g clip-path="url(#clip0_795_3990)">
<path fill-rule="evenodd" clip-rule="evenodd" d="M839.52 69.9038L839.458 69.8723C846.95 61.6923 855.25 53.0048 863.937 44.6463C853.366 39.4935 843.603 33.6526 834.158 28.0022C813.692 15.7588 794.72 4.40953 772.267 2.89069C754.851 1.81274 737.416 4.69458 721.272 11.3198C721.272 11.3198 712.543 -0.528949 685.666 3.31065C658.788 7.15026 575.997 41.7367 505.445 154.525C441.671 256.485 471.638 314.949 517.443 314.318C567.089 313.629 614.303 258.434 630.321 212.929C646.34 167.424 627.442 155.095 612.923 156.265C596.876 157.615 568.528 171.894 552.93 203.45C537.331 235.007 537.331 254.445 537.331 254.445C543.707 247.756 550.64 241.624 558.06 236.117C564.736 230.902 572.093 226.624 579.927 223.397C581.76 215.243 584.487 207.318 588.055 199.76C593.696 188.002 602.635 175.763 613.673 173.003C636.08 167.394 625.342 208.249 608.874 234.887C600.025 249.105 568.618 290.23 541.651 290.23C514.684 290.23 509.524 264.253 515.193 239.865C520.862 215.478 528.751 184.642 568.168 128.488C607.585 72.3335 650.209 39.0369 674.896 25.0884C700.244 10.7199 710.563 17.0192 710.563 17.0192C710.563 17.0192 678.197 36.8771 659.779 60.8747C642.201 83.7924 631.672 109.56 639.83 122.188C647.629 134.217 675.017 134.457 705.223 90.9016C735.04 47.886 727.542 22.2988 727.542 22.2988C729.505 21.6605 731.509 21.1593 733.54 20.7989C748.089 18.849 759.728 22.7186 777.726 31.9577C786.504 36.465 795.119 42.2381 804.32 48.4044C814.883 55.4818 826.219 63.079 839.458 69.8723L839.431 69.9038H839.52ZM717.342 25.6284C717.342 25.6284 698.144 33.2776 675.826 57.875C653.509 82.4724 640.491 110.16 650.119 117.479C653.809 120.268 662.328 120.748 677.807 106.83C692.078 94.4345 703.28 78.8993 710.533 61.4447C719.952 38.479 717.663 27.2199 717.371 25.7821C717.353 25.6949 717.342 25.6438 717.342 25.6284Z" fill="#F40009"/>
<path d="M878.409 83.8363L878.396 83.8519C930.83 94.2308 976.756 61.7441 1001.17 34.0871C1010.08 24.1896 1017.75 13.2395 1024 1.48047C1012.88 13.0579 1000.44 23.2871 986.925 31.9573L986.774 31.9273C964.038 46.5059 932.571 59.7344 902.334 56.8247C894.685 64.7439 886.496 73.8929 878.337 83.8219L878.409 83.8363Z" fill="#F40009"/>
<path fill-rule="evenodd" clip-rule="evenodd" d="M896.874 270.193C892.524 277.152 887.575 290.5 901.944 282.192C919.432 272.082 944.359 234.196 944.359 234.196H955.638C945.359 250.03 933.908 265.07 921.381 279.192C903.654 298.84 882.026 316.688 866.788 314.918C848.999 312.848 854.579 289.48 854.579 289.48C854.579 289.48 829.02 316.477 811.473 314.648C787.685 312.008 794.944 282.611 794.944 282.611C794.944 282.611 767.946 315.609 749.708 314.618C720.972 312.968 728.202 277.902 736.181 253.364C740.471 240.196 744.429 229.847 744.429 229.847C744.429 229.847 741.58 230.597 735.431 231.496C732.22 231.946 726.432 232.277 726.432 232.277C719.836 243.908 712.648 255.19 704.894 266.084C695.325 278.802 654.68 322.506 630.681 313.749C608.544 305.65 615.862 271.753 628.762 244.756C647.57 205.49 700.484 149.065 730.992 156.474C762.639 164.154 731.711 221.868 731.711 221.868C731.711 221.868 731.711 222.077 732.041 222.228C734.038 222.588 736.094 222.475 738.041 221.897C741.996 221.097 745.87 219.942 749.618 218.447C749.618 218.447 781.416 151.855 816.542 108.299C851.669 64.7439 921.831 -10.1883 949.339 7.95984C956.057 12.4294 952.998 27.7878 943.94 46.4458C939.857 47.7369 935.712 48.8183 931.52 49.6855C936.544 41.3538 940.342 32.3424 942.799 22.9283C946.938 0.43062 894.384 47.8558 856.829 98.9104C834.242 129.667 814.178 162.199 796.834 196.191C803.62 192.067 810.097 187.454 816.212 182.392C832.967 168.498 848.892 153.634 863.908 137.876C878.314 123.034 891.827 107.348 904.374 90.9013C908.392 90.7122 912.397 90.3017 916.372 89.6714C902.642 108.291 887.681 125.969 871.587 142.586C870.26 143.912 868.925 145.249 867.583 146.593C853.74 160.455 839.143 175.073 826.292 185.901C813.744 196.634 800.507 206.535 786.665 215.539C786.665 215.539 753.669 281.771 771.668 286.03C782.166 288.55 802.924 256.605 802.924 256.605C802.924 256.605 829.921 215.298 846.3 196.61C868.437 171.413 887.605 156.894 906.653 156.504C917.811 156.294 924.382 168.203 924.382 168.203L929.63 160.074H961.937C961.937 160.074 901.613 262.423 896.784 270.132L896.874 270.193ZM917.122 179.662C917.516 178.966 917.837 178.232 918.081 177.473C917.928 176.273 917.368 175.163 916.494 174.328C915.621 173.493 914.487 172.982 913.282 172.883C908.304 172.643 901.464 173.602 883.616 193.371C868.784 209.739 856.029 227.875 845.64 247.365C835.411 266.053 831.27 279.971 837.15 283.572C839.056 284.551 841.263 284.776 843.33 284.201C847.32 283.241 851.818 279.521 858.689 271.573C861.258 268.594 864.059 264.614 867.262 260.066L867.292 260.022C868.079 258.906 868.89 257.753 869.727 256.574C881.546 240.496 911.243 189.862 917.122 179.633V179.662ZM731.56 201.139C734.56 193.34 738.341 178.043 730.451 172.043C721.963 165.654 700.455 180.622 700.244 196.04C700.034 211.459 715.454 218.868 719.143 219.857C721.242 220.427 721.963 220.337 722.983 218.658C726.244 213.045 729.111 207.211 731.56 201.2V201.139ZM715.213 229.787C709.858 227.311 704.863 224.123 700.365 220.309C695.834 216.525 692.041 211.938 689.176 206.779C688.927 206.357 688.679 206.633 688.414 206.927C688.358 206.99 688.302 207.052 688.246 207.109C687.907 207.448 686.563 208.792 675.048 225.647C663.468 242.595 645.831 277.512 661.848 283.482C672.107 287.291 689.176 269.323 698.534 257.414C704.87 249.108 710.613 240.368 715.723 231.257C716.204 230.237 715.723 229.996 715.213 229.787Z" fill="#F40009"/>
<path d="M533.341 82.1724H502.624L485.257 110.249H515.974L533.341 82.1724Z" fill="#F40009"/>
<path fill-rule="evenodd" clip-rule="evenodd" d="M461.229 158.995H472.388C472.388 158.995 415.994 240.497 384.108 236.777C366.32 234.707 371.599 212.778 371.599 212.778C371.599 212.778 346.551 242.026 323.604 236.176C302.785 230.836 316.225 196.251 316.225 196.251C315.87 196.394 314.561 197.651 312.486 199.646C300.686 210.984 264.096 246.143 237.182 235.786C204.187 223.009 221.254 180.502 227.554 167.723C232.893 156.955 238.803 146.456 238.803 146.456C238.803 146.456 233.733 147.896 230.553 148.616C227.374 149.335 222.604 150.265 222.604 150.265C222.604 150.265 206.946 175.732 197.377 188.421C187.808 201.11 147.102 244.786 123.134 236.086C99.1669 227.387 105.136 193.851 118.574 167.093C140.413 123.898 192.247 70.8036 223.563 78.7828C254.881 86.7619 228.993 137.967 228.993 137.967C228.993 137.967 235.263 138.777 250.291 128.518C256.498 124.294 263.264 118.026 270.485 111.339C288.492 94.6605 309.314 75.3739 331.283 78.6927C345.801 80.8826 359.33 95.791 340.822 124.078C334.822 133.077 324.953 141.296 317.334 133.257C312.595 128.308 316.734 119.159 321.714 112.919C323.66 110.377 326.203 108.352 329.116 107.023C332.029 105.695 335.225 105.103 338.421 105.3C338.421 105.3 343.522 93.5713 330.533 93.8112C320.003 94.0211 293.366 118.529 278.338 143.306C264.719 166.134 243.871 204.889 264.719 213.348C283.948 221.118 320.543 177.682 337.492 154.915C354.44 132.147 393.017 80.5527 425.413 78.4828C436.572 77.7629 443.202 87.9319 443.202 87.9319L446.95 81.9324H479.288C479.288 81.9324 418.394 183.892 413.624 191.542C409.875 197.54 404.895 211.129 418.694 203.54C432.493 195.95 461.229 158.995 461.229 158.995ZM387.887 179.302C400.965 161.304 437.022 98.6107 437.022 98.6107C436.868 97.4119 436.307 96.3022 435.433 95.4669C434.56 94.6316 433.428 94.1212 432.223 94.0213C427.243 93.7812 418.964 95.4611 402.226 116.159C385.488 136.857 373.009 153.325 363.71 170.453C353.451 189.141 348.981 202.341 354.861 205.909C356.772 206.876 358.972 207.099 361.039 206.539C364.879 205.58 369.888 201.74 376.759 193.821C379.998 190.132 383.657 185.151 387.946 179.302H387.887ZM223.114 94.4112C214.624 87.9918 193.118 102.99 192.907 118.409C192.697 133.827 212.405 138.627 214.955 138.747C215.523 138.897 216.126 138.854 216.669 138.626C217.211 138.399 217.663 137.998 217.955 137.487C220.261 132.967 222.335 128.331 224.164 123.598C227.164 115.799 230.912 100.5 223.024 94.5012L223.114 94.4112ZM210.216 148.496C204.363 146.665 198.768 144.095 193.568 140.846C188.494 137.57 184.36 133.032 181.569 127.678C181.307 127.233 181.023 127.563 180.755 127.874C180.716 127.92 180.678 127.965 180.639 128.008C180.339 128.338 178.599 130.617 167.05 147.566C155.501 164.514 138.373 199.19 154.421 205.13C164.68 208.94 181.929 190.911 191.258 179.002C198.288 169.708 204.787 160.023 210.725 149.995C211.115 148.976 210.725 148.736 210.155 148.556L210.216 148.496Z" fill="#F40009"/>
<path d="M443.59 322.177C419.734 305.667 391.171 297.331 362.179 298.419C354.332 298.631 346.644 300.692 339.743 304.436C332.842 308.178 326.922 313.495 322.464 319.958C310.105 298.391 285.687 285.162 247.922 285.46C215.946 285.823 184.095 293.723 154.123 301.156C126.906 307.906 101.239 314.273 78.4394 314.258C32.4235 314.258 -1.08299 285.342 0.0267752 234.016C2.00701 144.026 78.0186 63.0343 135.013 26.498C167.68 5.50025 195.006 -0.679102 213.005 1.33068C226.054 2.77053 241.742 17.859 231.842 40.0866C217.295 72.6334 197.197 69.9036 197.947 54.3651C198.259 50.3117 199.529 46.3901 201.65 42.9225C203.774 39.4548 206.689 36.54 210.154 34.4172C213.835 32.4141 217.964 31.3818 222.155 31.4176C225.153 28.9878 227.223 11.1997 203.825 17.0491C180.428 22.8984 151.931 45.9061 125.054 75.6029C98.1775 105.3 56.3614 161.394 46.0121 220.309C41.1828 247.635 44.3916 297.461 109.005 296.919C133.918 296.715 164.227 289.157 196.865 281.02C236.108 271.236 278.714 260.612 319.343 260.924C345.26 260.814 370.712 267.784 392.955 281.082C412.215 293.081 435.282 310.238 443.471 322.057L443.59 322.177Z" fill="#F40009"/>
</g>
<defs>
<clipPath id="clip0_795_3990">
<rect width="1024" height="321.205" fill="white" transform="translate(0 0.972168)"/>
</clipPath>
</defs>
</svg>
