<svg width="466" height="512" viewBox="0 0 466 512" fill="none" xmlns="http://www.w3.org/2000/svg">
<g clip-path="url(#clip0_743_397)">
<path d="M187.169 11.9153L184.555 13.4968C180.396 16.0127 176.477 18.8257 172.821 21.8993L180.363 16.5945H244.374L256.011 104.709L197.826 162.893L139.642 203.336V249.97C139.642 282.542 156.666 312.745 184.53 329.612L245.783 366.688L116.368 442.18H91.4086L44.8876 414.021C17.0231 397.154 0 366.951 0 334.38V177.563C0 144.981 17.0339 114.769 44.9126 97.906L184.555 13.4396C185.42 12.9162 186.292 12.4081 187.169 11.9153Z" fill="url(#paint0_radial_743_397)"/>
<path d="M187.169 11.9153L184.555 13.4968C180.396 16.0127 176.477 18.8257 172.821 21.8993L180.363 16.5945H244.374L256.011 104.709L197.826 162.893L139.642 203.336V249.97C139.642 282.542 156.666 312.745 184.53 329.612L245.783 366.688L116.368 442.18H91.4086L44.8876 414.021C17.0231 397.154 0 366.951 0 334.38V177.563C0 144.981 17.0339 114.769 44.9126 97.906L184.555 13.4396C185.42 12.9162 186.292 12.4081 187.169 11.9153Z" fill="url(#paint1_linear_743_397)"/>
<path d="M325.832 197.804V249.94C325.832 282.512 308.808 312.715 280.944 329.582L141.302 414.107C112.736 431.398 77.1931 432.022 48.1243 415.979L184.529 498.546C214.163 516.485 251.308 516.485 280.944 498.546L420.586 414.02C448.45 397.153 465.473 366.95 465.473 334.378V296.717L453.836 279.262L325.832 197.804Z" fill="url(#paint2_radial_743_397)"/>
<path d="M325.832 197.804V249.94C325.832 282.512 308.808 312.715 280.944 329.582L141.302 414.107C112.736 431.398 77.1931 432.022 48.1243 415.979L184.529 498.546C214.163 516.485 251.308 516.485 280.944 498.546L420.586 414.02C448.45 397.153 465.473 366.95 465.473 334.378V296.717L453.836 279.262L325.832 197.804Z" fill="url(#paint3_linear_743_397)"/>
<path d="M420.561 97.9048L280.919 13.4385C252.215 -3.92444 216.47 -4.4623 187.329 11.8249L184.555 13.5029C156.676 30.3661 139.642 60.577 139.642 93.1593V203.522L184.555 176.355C214.177 158.437 251.296 158.437 280.919 176.355L420.561 260.821C447.568 277.158 464.399 306.019 465.424 337.428C465.458 336.414 465.474 335.398 465.474 334.378V177.561C465.474 144.979 448.44 114.768 420.561 97.9048Z" fill="url(#paint4_radial_743_397)"/>
<path d="M420.561 97.9048L280.919 13.4385C252.215 -3.92444 216.47 -4.4623 187.329 11.8249L184.555 13.5029C156.676 30.3661 139.642 60.577 139.642 93.1593V203.522L184.555 176.355C214.177 158.437 251.296 158.437 280.919 176.355L420.561 260.821C447.568 277.158 464.399 306.019 465.424 337.428C465.458 336.414 465.474 335.398 465.474 334.378V177.561C465.474 144.979 448.44 114.768 420.561 97.9048Z" fill="url(#paint5_linear_743_397)"/>
</g>
<defs>
<radialGradient id="paint0_radial_743_397" cx="0" cy="0" r="1" gradientUnits="userSpaceOnUse" gradientTransform="translate(156.15 100.5) rotate(110.528) scale(388.272 677.225)">
<stop offset="0.06441" stop-color="#AE7FE2"/>
<stop offset="1" stop-color="#0078D4"/>
</radialGradient>
<linearGradient id="paint1_linear_743_397" x1="157.236" y1="417.374" x2="101.838" y2="321.558" gradientUnits="userSpaceOnUse">
<stop stop-color="#114A8B"/>
<stop offset="1" stop-color="#0078D4" stop-opacity="0"/>
</linearGradient>
<radialGradient id="paint2_radial_743_397" cx="0" cy="0" r="1" gradientUnits="userSpaceOnUse" gradientTransform="translate(74.8238 399.716) rotate(-8.36717) scale(361.328 238.681)">
<stop offset="0.133928" stop-color="#D59DFF"/>
<stop offset="1" stop-color="#5E438F"/>
</radialGradient>
<linearGradient id="paint3_linear_743_397" x1="423.076" y1="272.01" x2="363.712" y2="357.131" gradientUnits="userSpaceOnUse">
<stop stop-color="#493474"/>
<stop offset="1" stop-color="#8C66BA" stop-opacity="0"/>
</linearGradient>
<radialGradient id="paint4_radial_743_397" cx="0" cy="0" r="1" gradientUnits="userSpaceOnUse" gradientTransform="translate(431.206 285.127) rotate(-165.772) scale(290.023 488.226)">
<stop offset="0.0584996" stop-color="#50E6FF"/>
<stop offset="1" stop-color="#436DCD"/>
</radialGradient>
<linearGradient id="paint5_linear_743_397" x1="150.997" y1="12.2722" x2="238.402" y2="12.2722" gradientUnits="userSpaceOnUse">
<stop stop-color="#2D3F80"/>
<stop offset="1" stop-color="#436DCD" stop-opacity="0"/>
</linearGradient>
<clipPath id="clip0_743_397">
<rect width="465.474" height="512" fill="white"/>
</clipPath>
</defs>
</svg>
