<svg width="1025" height="242" viewBox="0 0 1025 242" fill="none" xmlns="http://www.w3.org/2000/svg">
<g clip-path="url(#clip0_746_261)">
<path d="M267.661 120.28C270.558 133.989 270.558 135.428 270.558 137.236C270.558 160.687 244.21 173.676 209.579 173.676C131.294 173.676 62.7319 127.863 62.7319 97.5494C62.7295 93.33 63.5897 89.1547 65.2596 85.2798C37.1226 86.7189 0.682983 91.7744 0.682983 123.878C0.682983 176.554 125.519 241.5 224.376 241.5C300.134 241.5 319.267 207.237 319.267 180.17C319.267 158.879 300.816 134.709 267.606 120.28M213.195 139.395C234.118 139.395 264.414 135.078 264.414 110.169C264.473 108.249 264.299 106.329 263.897 104.45L251.443 50.2793C248.546 38.3788 246.019 32.9728 225.096 22.5114C208.859 14.2087 173.435 0.5 163.047 0.5C153.305 0.5 150.408 13.1201 138.858 13.1201C127.677 13.0648 119.393 3.83953 108.932 3.83953C98.8209 3.83953 92.3264 10.6846 87.271 24.7623C87.271 24.7623 73.2117 64.4493 71.4036 70.2243C71.1053 71.2795 70.9806 72.3763 71.0346 73.4715C71.0346 88.8961 131.773 139.487 213.195 139.487" fill="#EE0000"/>
<path d="M267.661 120.28C270.558 133.989 270.558 135.428 270.558 137.236C270.558 160.687 244.21 173.676 209.579 173.676C131.294 173.676 62.7318 127.864 62.7318 97.5494C62.7295 93.3301 63.5897 89.1548 65.2595 85.2799L71.4035 70.1321C71.1052 71.1873 70.9806 72.2841 71.0345 73.3794C71.0345 88.8039 131.773 139.395 213.195 139.395C234.118 139.395 264.414 135.078 264.414 110.17C264.473 108.249 264.299 106.329 263.897 104.45L267.587 120.28H267.661Z" fill="black"/>
<path d="M378.124 183.325H408.438V138.528H431.501L454.73 183.418H488.531L461.372 134.044C468.263 131.239 474.157 126.438 478.296 120.256C482.436 114.075 484.631 106.797 484.601 99.3575C484.601 77.2169 467.184 60.1134 441.132 60.1134H378.124V183.325ZM438.309 85.9809C448.346 85.9809 453.974 92.3279 453.974 99.8925C453.974 107.457 448.346 113.804 438.309 113.804H408.438V85.9809H438.309ZM487.424 136.849C487.424 163.952 509.565 185.078 538.108 185.078C552.396 185.535 566.315 180.496 577.001 171.001L558.182 154.284C553.772 158.86 547.259 161.314 539.528 161.314C534.668 161.451 529.88 160.115 525.794 157.48C521.707 154.846 518.513 151.037 516.631 146.554H583.053V139.487C583.053 109.966 563.163 88.6193 536.06 88.6193C529.682 88.5182 523.348 89.694 517.431 92.0775C511.515 94.4611 506.135 98.0042 501.608 102.498C497.081 106.992 493.499 112.347 491.073 118.246C488.646 124.145 487.425 130.47 487.48 136.849M535.451 111.867C539.859 111.909 544.138 113.366 547.656 116.023C551.174 118.681 553.745 122.398 554.99 126.627H516.115C518.919 117.291 525.967 111.867 535.469 111.867M664.622 183.325H692.796V53.9509L664.309 60.1134V95.1692C657.067 91.0621 648.87 88.9365 640.545 89.0068C613.441 89.0068 592.149 109.966 592.149 136.72C592.058 143.007 593.222 149.25 595.573 155.082C597.924 160.914 601.414 166.219 605.84 170.686C610.266 175.152 615.538 178.692 621.348 181.097C627.158 183.501 633.389 184.723 639.677 184.691C648.657 184.733 657.413 181.894 664.659 176.591V183.455L664.622 183.325ZM620.138 136.683C620.138 123.306 630.692 113.085 644.604 113.085C651.845 112.931 658.879 115.506 664.309 120.299V152.864C661.673 155.333 658.575 157.256 655.194 158.522C651.812 159.789 648.213 160.374 644.604 160.244C630.877 160.244 620.138 150.041 620.138 136.664M735.491 183.307H765.768V135.096H816.47V183.325H846.728V60.1134H816.47V107.457H765.768V60.1134H735.491V183.325V183.307ZM890.216 184.894C899.329 185.23 908.318 182.701 915.918 177.661V183.307H944.073V123.657C944.073 100.944 928.759 88.4533 903.242 88.4533C888.98 88.4533 874.902 91.7928 859.754 98.6564L869.976 119.598C880.88 115.022 890.032 112.217 898.131 112.217C909.921 112.217 915.918 116.793 915.918 126.111V130.686C909.018 128.905 901.918 128.019 894.792 128.048C870.806 128.048 856.415 138.085 856.415 156.037C856.415 172.403 869.441 184.912 890.216 184.912M881.508 155.502C881.508 149.358 887.67 146.277 897.006 146.277C902.698 146.307 908.366 147.019 913.888 148.399V160.373C908.443 163.343 902.322 164.856 896.12 164.764C886.895 164.764 881.508 161.24 881.508 155.428M970.07 154.912C970.07 174.801 982.026 184.433 1003.85 184.433C1010.57 184.262 1017.24 183.315 1023.74 181.61V158.547C1019.56 159.838 1015.2 160.461 1010.83 160.392C1001.84 160.392 998.502 157.569 998.502 149.137V113.97H1024.68V90.2061H998.631V60.1134L970.125 66.2758V90.2614H951.287V113.97H970.125V154.986L970.07 154.912Z" fill="black"/>
</g>
<defs>
<clipPath id="clip0_746_261">
<rect width="1024" height="241" fill="white" transform="translate(0.682983 0.5)"/>
</clipPath>
</defs>
</svg>
