<svg width="1025" height="178" viewBox="0 0 1025 178" fill="none" xmlns="http://www.w3.org/2000/svg">
<g clip-path="url(#clip0_846_3155)">
<path fill-rule="evenodd" clip-rule="evenodd" d="M141.166 61.8724L141.178 61.8822L79.6686 130.159L0.625122 43.1546V5.62495C0.625122 1.31531 5.64809 -1.04258 8.96351 1.7108L96.6589 74.5382C105.139 81.5805 117.434 81.5805 125.914 74.5382L141.166 61.8724Z" fill="url(#paint0_linear_846_3155)"/>
<path d="M174.521 34.168L141.166 61.8687L141.178 61.8785L97.0136 100.89C89.4899 107.536 78.2448 107.704 70.5268 101.285L0.625122 43.151V154.687C0.625122 167.331 10.8757 177.582 23.5206 177.582H174.521L190.33 105.875L174.521 34.168Z" fill="url(#paint1_radial_846_3155)"/>
<path fill-rule="evenodd" clip-rule="evenodd" d="M174.521 34.2V177.585H199.052C211.697 177.585 221.948 167.334 221.948 154.69V5.62507C221.948 1.31543 216.924 -1.04283 213.61 1.71104L174.521 34.2Z" fill="url(#paint2_linear_846_3155)"/>
<path d="M295.953 123.275V150.753H315.201V124.475C315.201 121.925 316.206 119.46 318.024 117.659C319.82 115.859 322.28 114.83 324.825 114.83H344.565C353.761 114.83 362.594 111.165 369.096 104.628C375.597 98.1117 379.254 89.2596 379.254 80.0429C379.254 70.8264 375.597 61.9742 369.096 55.4369C362.594 48.921 353.761 45.2559 344.544 45.2559H295.953V79.5928H315.201V63.4103H343.261C347.623 63.4103 351.794 65.1464 354.873 68.2329C357.953 71.3193 359.686 75.4989 359.686 79.8714C359.686 84.2439 357.953 88.4236 354.873 91.5101C351.794 94.5966 347.623 96.3327 343.261 96.3327H322.879C319.35 96.3327 315.842 97.0186 312.592 98.3904C309.319 99.7407 306.368 101.734 303.866 104.242C301.364 106.75 299.396 109.729 298.027 112.987C296.658 116.223 295.953 119.738 295.953 123.275Z" fill="#1B1340"/>
<path d="M382.227 150.754V108.894C382.227 91.8115 392.172 78.2223 412.083 78.2223C415.27 78.1795 418.457 78.5224 421.579 79.2726V96.4841C419.312 96.334 417.366 96.334 416.446 96.334C405.903 96.334 401.369 101.178 401.369 110.995V150.754H382.227Z" fill="#1B1340"/>
<path d="M427.31 115.26C427.31 94.2551 443.136 78.2441 465.165 78.2441C487.194 78.2441 503.02 94.2551 503.02 115.26C503.02 136.265 487.194 152.427 465.165 152.427C443.136 152.427 427.31 136.244 427.31 115.26ZM484.156 115.26C484.156 103.322 476.158 94.8552 465.165 94.8552C454.151 94.8552 446.174 103.3 446.174 115.26C446.174 127.349 454.172 135.665 465.165 135.665C476.179 135.665 484.156 127.327 484.156 115.26Z" fill="#1B1340"/>
<path d="M564.23 115.26C564.23 94.2551 580.056 78.2441 602.085 78.2441C624.092 78.2441 639.918 94.2551 639.918 115.26C639.918 136.265 624.092 152.427 602.085 152.427C580.056 152.427 564.23 136.244 564.23 115.26ZM621.055 115.26C621.055 103.322 613.056 94.8552 602.064 94.8552C591.071 94.8552 583.072 103.3 583.072 115.26C583.072 127.349 591.071 135.665 602.064 135.665C613.056 135.665 621.055 127.327 621.055 115.26Z" fill="#1B1340"/>
<path d="M649.863 150.751V110.412C649.863 91.679 661.776 78.2188 683.034 78.2188C704.143 78.2188 716.056 91.6576 716.056 110.412V150.751H697.064V111.913C697.064 101.496 692.38 94.9799 683.034 94.9799C673.688 94.9799 669.005 101.474 669.005 111.913V150.751H649.863Z" fill="#1B1340"/>
<path d="M558.498 95.003H537.838V121.452C537.838 130.669 541.153 134.891 550.649 134.891C551.547 134.891 553.814 134.891 556.68 134.741V150.302C552.766 151.353 549.302 151.974 545.516 151.974C529.54 151.974 518.676 142.308 518.676 124.024V95.003H505.843V79.7421H509.051C510.313 79.7421 511.575 79.4849 512.73 79.0134C513.906 78.5204 514.954 77.8131 515.852 76.9129C516.751 76.0127 517.457 74.9624 517.948 73.7835C518.44 72.6047 518.676 71.3615 518.676 70.0969V55.7148H537.817V79.7421H558.477V95.003H558.498Z" fill="#1B1340"/>
<path d="M758.845 47.9766H786.037L811.525 109.628C813.796 114.795 815.74 120.068 817.378 125.449H817.64C819.278 120.068 821.222 114.773 823.494 109.628L848.982 47.9766H876.174V150.787H856.473V81.9108C856.452 79.6385 856.56 77.3662 856.801 75.1154H856.473C855.862 77.5378 855.054 79.9172 854.027 82.2109L825.787 149.587H809.45L781.123 82.2109C780.096 79.8958 779.223 77.5378 778.524 75.1154H778.218C778.436 77.3662 778.545 79.6385 778.524 81.9108V150.808H758.845V47.9766Z" fill="#6D4AFF"/>
<path d="M943.553 82.966C949.254 85.9028 953.971 90.4045 957.138 95.9138C960.524 101.895 962.227 108.669 962.096 115.507V150.792H944.842L943.619 140.202C941.369 144.039 938.071 147.169 934.096 149.27C929.838 151.435 925.076 152.528 920.271 152.421C914.134 152.485 908.106 150.877 902.842 147.769C897.513 144.597 893.189 140.052 890.306 134.65C887.161 128.69 885.588 122.067 885.719 115.357C885.632 108.754 887.357 102.259 890.699 96.514C893.975 90.9403 898.714 86.353 904.459 83.2447C910.399 80.0077 917.082 78.3356 923.875 78.4214C930.711 78.2928 937.482 79.8576 943.553 82.966ZM937.241 130.427C940.998 126.911 942.854 121.959 942.854 115.357C943.095 109.955 941.151 104.681 937.482 100.673C935.734 98.8721 933.638 97.4571 931.301 96.4711C928.964 95.4851 926.474 94.9917 923.94 94.9917C921.407 94.9917 918.895 95.4851 916.58 96.4711C914.243 97.4571 912.146 98.8721 910.399 100.673C906.905 104.789 904.982 109.976 904.982 115.335C904.982 120.694 906.905 125.882 910.399 129.998C912.125 131.842 914.221 133.278 916.58 134.264C918.917 135.229 921.45 135.722 923.984 135.657C926.43 135.7 928.876 135.25 931.169 134.35C933.419 133.471 935.494 132.12 937.241 130.427Z" fill="#6D4AFF"/>
<path d="M972.732 65.2563C971.574 64.2059 970.657 62.9411 970.023 61.5263C969.39 60.1115 969.084 58.5895 969.106 57.046C969.084 55.5026 969.412 53.9592 970.023 52.5229C970.657 51.0866 971.574 49.8004 972.732 48.75C975.025 46.5206 978.126 45.2559 981.359 45.2559C984.591 45.2559 987.692 46.5206 989.986 48.75C991.143 49.8219 992.061 51.1081 992.672 52.5229C993.284 53.9592 993.611 55.4812 993.589 57.046C993.611 58.5895 993.306 60.1115 992.672 61.5263C992.061 62.9411 991.143 64.2059 989.986 65.2563C987.671 67.4429 984.569 68.6647 981.359 68.6647C978.126 68.6647 975.047 67.4429 972.732 65.2563ZM991.078 150.789H971.683V79.9404H991.078V150.789Z" fill="#6D4AFF"/>
<path d="M1024.63 150.787H1005.21V47.9766H1024.63V150.787Z" fill="#6D4AFF"/>
</g>
<defs>
<linearGradient id="paint0_linear_846_3155" x1="83.6764" y1="131.363" x2="9.44871" y2="-126.492" gradientUnits="userSpaceOnUse">
<stop stop-color="#E3D9FF"/>
<stop offset="1" stop-color="#7341FF"/>
</linearGradient>
<radialGradient id="paint1_radial_846_3155" cx="0" cy="0" r="1" gradientUnits="userSpaceOnUse" gradientTransform="translate(189.504 51.7229) scale(221.229 208.526)">
<stop offset="0.5561" stop-color="#6D4AFF"/>
<stop offset="0.9944" stop-color="#AA8EFF"/>
</radialGradient>
<linearGradient id="paint2_linear_846_3155" x1="293.523" y1="292.374" x2="122.784" y2="-75.9454" gradientUnits="userSpaceOnUse">
<stop offset="0.271" stop-color="#E3D9FF"/>
<stop offset="1" stop-color="#7341FF"/>
</linearGradient>
<clipPath id="clip0_846_3155">
<rect width="1024" height="177.059" fill="white" transform="translate(0.624878 0.521484)"/>
</clipPath>
</defs>
</svg>
