<svg width="502" height="513" viewBox="0 0 502 513" fill="none" xmlns="http://www.w3.org/2000/svg">
<g clip-path="url(#clip0_2_14951)">
<path d="M426.742 408.441C420.117 408.441 414.737 413.813 414.737 420.442C414.737 427.065 420.117 432.443 426.742 432.443C433.367 432.443 438.737 427.065 438.737 420.443C438.737 413.813 433.367 408.441 426.742 408.441ZM426.742 429.869C425.504 429.87 424.278 429.627 423.134 429.153C421.989 428.68 420.95 427.986 420.074 427.11C419.199 426.235 418.504 425.195 418.031 424.051C417.558 422.907 417.315 421.68 417.316 420.442C417.316 415.234 421.528 411.023 426.742 411.023C431.95 411.023 436.166 415.234 436.166 420.442C436.166 425.653 431.95 429.869 426.742 429.869ZM431.673 417.661C431.671 416.582 431.242 415.547 430.479 414.784C430.101 414.406 429.652 414.107 429.158 413.903C428.664 413.699 428.135 413.594 427.601 413.595H421.818V427.293H424.389V421.73H426.233L428.83 427.293H431.673L428.961 421.493C429.753 421.212 430.439 420.693 430.925 420.007C431.41 419.32 431.671 418.501 431.673 417.661ZM427.601 419.158H424.389V416.161H427.601C428.427 416.161 429.102 416.833 429.102 417.661C429.1 418.058 428.941 418.439 428.659 418.719C428.378 418.999 427.998 419.157 427.601 419.158Z" fill="black"/>
<path d="M501.381 71.6747C501.381 0.805133 421.597 0.805134 410.855 0.805134L391.523 0.802734C391.523 0.802734 418.818 28.2427 418.818 38.1531C418.818 38.6861 418.713 39.2138 418.508 39.706C418.304 40.1983 418.005 40.6454 417.627 41.0219C417.25 41.3983 416.802 41.6968 416.31 41.9001C415.817 42.1034 415.289 42.2076 414.756 42.2067H345.238C344.162 42.2078 343.13 41.7813 342.368 41.0212C341.606 40.261 341.177 39.2294 341.176 38.1531C341.176 28.2435 368.471 0.802734 368.471 0.802734C341.978 0.802734 303.991 6.72433 277.601 25.4803C270.147 24.7318 262.661 24.3567 255.17 24.3563C132.573 24.3563 33.1824 123.749 33.1824 246.354C33.1824 270.546 37.064 293.825 44.2224 315.622C27.8088 335.682 0.684814 376.753 0.684814 429.11C0.684814 474.358 23.044 512.803 23.044 512.803C23.044 512.803 62.8568 454.511 152.081 454.511C158.913 454.511 160.674 448.552 160.953 447.399C189.556 460.828 221.485 468.352 255.17 468.352C377.773 468.352 477.163 368.954 477.163 246.354C477.163 206.973 466.899 169.997 448.914 137.937C473.491 130.385 501.381 110.832 501.381 71.6747Z" fill="white"/>
<path d="M492.232 71.6728C492.232 27.6632 451.843 8.41925 411.195 9.94085C411.195 9.94085 427.977 26.1232 427.977 38.1424C427.977 44.5264 423.214 51.3448 409.865 51.3448H349.719C336.196 51.3448 328.127 46.6968 328.127 38.9049C328.127 26.1353 348.208 11.224 348.208 11.224C348.208 11.224 307.497 13.6752 280.246 35.0232C272.015 34.0592 263.659 33.5032 255.171 33.5032C137.623 33.5032 42.3275 128.798 42.3275 246.352C42.3275 286.858 53.6475 324.722 73.2915 356.952C70.1075 358.64 66.8939 359.763 62.4107 359.763C47.5067 359.763 47.4187 326.725 47.4187 326.725C47.4187 326.725 9.8299 370.552 9.8299 429.107C9.8299 465.161 25.0619 496.174 25.0619 496.174C25.0619 496.174 67.2411 445.358 152.081 445.358C152.081 445.358 111.844 429.193 111.844 409.676C111.849 409.669 112.023 407.6 113.384 405.052C151.027 438.706 200.699 459.194 255.171 459.194C372.731 459.194 468.023 363.905 468.023 246.352C468.023 204.183 455.707 164.909 434.555 131.84C455.083 128.564 492.232 114.534 492.232 71.6728ZM64.7131 246.353C64.7131 141.162 149.987 55.8904 255.17 55.8904C257.642 55.8904 260.081 55.9849 262.525 56.0753C258.595 63.8512 256.243 72.94 256.243 83.6152C256.243 132.543 310.477 133.019 310.477 133.019L284.016 202.927L238.041 144.7C221.715 124.032 204.804 119.687 193.491 119.687C170.397 119.687 152.499 136.042 140.299 168.289L81.3291 324.126C70.6867 300.378 64.7147 274.066 64.7147 246.352L64.7131 246.353ZM88.4955 338.513C100.815 334.514 119.675 329.838 140.521 329.838C167.303 329.838 191.493 336.415 191.493 336.415L214.915 274.546L237.119 314.846L216.987 335.902C204.749 348.711 174.226 340.705 140.521 340.705C117.125 340.705 102.903 343.347 93.2931 346.677C91.6257 343.996 90.026 341.274 88.4955 338.513ZM445.631 246.353C445.631 351.539 360.366 436.809 255.17 436.809C210.506 436.809 169.467 421.398 136.986 395.641C168.358 397.006 185.509 417.283 229.695 417.283C294.592 417.283 332.609 377.949 346.547 341.118L419.093 149.401C435.935 177.804 445.631 210.937 445.631 246.353Z" fill="black"/>
<path d="M429.281 19.3477C429.281 19.3477 437.117 26.7133 437.117 38.1453C437.117 49.5773 428.215 60.4989 409.866 60.4989H349.72C326.348 60.4989 318.984 48.5589 318.984 38.9077C318.984 29.2573 324.455 24.0893 324.455 24.0893C324.455 24.0893 265.384 35.6013 265.384 83.6181C265.384 124.004 310.543 123.882 310.543 123.882H323.712L286.852 221.28L230.865 150.368C227.388 145.968 213.774 128.835 193.492 128.835C165.292 128.835 153.033 160.472 148.851 171.522L89.3588 328.728C89.3588 328.728 111.373 320.696 140.522 320.696C165.108 320.696 185.796 325.664 185.796 325.664L213.369 252.804L248.359 316.316L223.591 342.226C207.298 359.272 173.279 349.845 140.522 349.845C79.3652 349.845 85.2708 368.901 62.41 368.901C46.2164 368.901 42.018 349.241 42.018 349.241C42.018 349.241 18.9724 387.443 18.9724 429.111C18.9724 456.165 28.4708 479.962 28.4708 479.962C28.4708 479.962 76.1292 439.395 124.139 439.395C124.139 439.395 102.704 429.11 102.704 409.679C102.704 404.153 110.039 386.435 133.664 386.435C170.252 386.435 185.492 408.148 229.696 408.148C291.552 408.148 325.912 369.824 338.002 337.891L418.978 123.883C418.978 123.883 483.094 124.004 483.094 71.6757C483.094 23.6661 429.281 19.3477 429.281 19.3477Z" fill="#CC0000"/>
</g>
<defs>
<clipPath id="clip0_2_14951">
<rect width="500.696" height="512" fill="white" transform="translate(0.685059 0.800781)"/>
</clipPath>
</defs>
</svg>
