<svg width="462" height="513" viewBox="0 0 462 513" fill="none" xmlns="http://www.w3.org/2000/svg">
<g clip-path="url(#clip0_2_14820)">
<path d="M461.233 146.61C461.233 150.603 461.501 154.635 461.182 158.603C460.798 163.223 460.132 167.844 459.274 172.426C458.084 178.924 456.671 185.378 455.038 191.779C453.816 196.5 452.281 201.135 450.443 205.653C446.437 215.47 441.995 225.082 436.146 233.939C432.537 239.405 428.851 244.806 425.088 250.143C423.638 252.089 422.055 253.932 420.352 255.66C417.472 258.706 414.695 261.842 411.572 264.555C406.99 268.67 402.192 272.536 397.198 276.138C392.641 279.338 387.522 281.655 382.863 284.765C377.692 288.195 371.779 289.68 366.275 292.278C361.36 294.582 356.1 295.35 351.095 297.142C344.721 299.446 338.027 299.984 331.499 301.379C324.537 302.876 317.459 303.977 310.47 305.41C304.723 306.562 299.028 307.945 293.319 309.225C290.068 309.941 286.792 310.479 283.643 311.439C279.752 312.629 275.963 314.178 272.175 315.586C269.602 316.507 266.902 317.199 264.444 318.389C260.86 320.181 257.481 322.421 253.91 324.328C248.061 327.425 243.185 331.815 238.756 336.615C235.019 340.711 231.768 345.331 228.517 349.875C223.166 357.388 219.48 365.797 216.178 374.398C212.927 382.808 209.945 391.319 206.899 399.818C204.07 407.817 201.395 415.842 198.515 423.816C195.972 430.742 193.335 437.633 190.605 444.487C186.711 454.359 181.912 463.85 176.27 472.838C172.033 479.634 167.502 486.264 161.653 491.755C156.969 496.145 152.438 500.766 146.678 503.837C140.97 506.909 135.082 509.571 128.759 510.967C121.161 512.572 113.38 513.127 105.631 512.618C102.7 512.464 99.8072 511.658 96.8762 511.12C95.1227 510.787 93.3436 510.519 91.6413 509.981C90.2077 509.533 88.8894 508.74 87.5199 508.048C83.6545 506.167 79.5331 504.669 76.0005 502.314C71.6774 499.295 67.5715 495.976 63.7133 492.382C56.6225 486.085 51.298 478.264 46.5367 470.111C43.313 464.654 40.4029 459.017 37.8204 453.229C35.3629 447.649 33.5198 441.799 31.5231 436.014C29.9711 431.512 28.5202 426.976 27.1714 422.408C25.9938 418.351 25.0595 414.204 24.0612 410.083C23.1268 406.269 22.1413 402.48 21.3477 398.627C19.9142 391.767 18.5959 384.894 17.2519 378.033C16.6565 375.138 16.089 372.237 15.5496 369.33C14.7817 364.978 14.0905 360.614 13.361 356.249C12.7978 352.998 12.1834 349.773 11.6971 346.522C11.1339 342.938 10.6731 339.354 10.11 335.783C9.64918 332.686 9.11162 329.601 8.67644 326.504C8.26686 323.611 7.90849 320.718 7.53731 317.826C7.11989 314.713 6.71884 311.599 6.33418 308.482C5.9502 305.462 5.63022 302.454 5.28464 299.433L4.05591 288.963C3.91512 287.709 3.76152 286.493 3.67193 285.239C3.23675 280.106 2.80158 274.948 2.392 269.777C2.12052 266.582 1.90716 263.381 1.75204 260.178C1.48326 255.186 1.21447 250.233 1.11208 245.254C0.917974 237.068 0.807041 228.88 0.779297 220.692C0.779297 215.854 0.804895 211.029 1.12488 206.229C1.45766 201.212 2.14882 196.194 2.68639 191.177C3.12156 187.184 3.50554 183.216 4.03031 179.223C4.32469 176.983 4.84946 174.768 5.31024 172.567C6.48777 167.038 7.56291 161.521 8.90683 156.03C9.87957 152.062 11.2235 148.223 12.3114 144.306C14.3209 136.998 17.3415 130.099 20.2982 123.149C21.6421 119.949 23.306 116.877 24.9955 113.869C27.3762 109.659 29.68 105.422 32.3679 101.454C35.6829 96.6161 39.1899 91.9315 42.9017 87.4006C46.4161 83.0982 50.1454 78.9758 54.0754 75.0493C57.1472 71.9775 60.6286 69.3153 63.9309 66.5378C67.1819 63.8244 70.3433 60.9957 73.7863 58.5511C79.0596 54.7625 84.4737 51.1787 89.9518 47.6845C93.1388 45.6622 96.5306 43.9215 99.8584 42.1296C105.042 39.3266 110.226 36.498 115.473 33.8357C118.801 32.1718 122.219 30.7127 125.636 29.3048C134.378 25.7594 143.094 22.1756 151.939 18.8606C157.826 16.6847 163.867 14.9824 169.845 13.0753C172.917 12.0898 175.924 11.0146 179.022 10.1443C181.582 9.42751 184.167 9.04354 186.753 8.44197C189.568 7.80201 192.307 6.91886 195.149 6.39409C198.976 5.63893 202.867 5.11416 206.758 4.5126C211.11 3.84704 215.449 3.16868 219.813 2.56711C221.592 2.32392 223.435 2.31113 225.253 2.18313C231.268 1.85035 237.335 1.49197 243.351 1.19759C245.757 1.0696 248.24 0.544826 250.582 0.954403C256.253 1.97834 261.961 1.17199 267.631 1.59437C273.109 1.97834 278.549 2.56711 283.989 3.21987C287.905 3.70624 291.771 4.5382 295.687 5.13976C299.117 5.65173 302.535 5.97171 305.952 6.50928C308.704 6.95726 311.456 7.54602 314.208 8.14759C320.095 9.46591 325.97 10.6562 331.794 12.205C336.965 13.6129 341.995 15.7247 347.204 16.9407C353.207 18.387 358.711 21.19 364.496 23.0715C370.409 24.9786 375.503 28.4984 381.135 30.8535C387.727 33.6309 393.422 37.8419 399.284 41.8352C403.726 44.8815 408.052 48.1325 412.084 51.6907C418.061 56.9384 423.859 62.3909 429.439 68.0737C432.742 71.4015 435.557 75.2925 438.565 78.9531C443.429 84.892 446.987 91.6628 450.443 98.4464C453.195 103.873 455.473 109.633 457.316 115.457C458.852 120.231 459.313 125.363 460.452 130.253C461.706 135.628 461.681 141.055 461.386 146.508L461.233 146.61Z" fill="black"/>
</g>
<defs>
<clipPath id="clip0_2_14820">
<rect width="460.774" height="512" fill="white" transform="translate(0.779297 0.800781)"/>
</clipPath>
</defs>
</svg>
