<svg width="1025" height="369" viewBox="0 0 1025 369" fill="none" xmlns="http://www.w3.org/2000/svg">
<g clip-path="url(#clip0_777_633)">
<path d="M695.311 266.252H695.066C651.461 297.118 600.017 329.455 544.408 363.506L542.203 364.731C541.963 364.829 541.748 364.981 541.575 365.175C541.402 365.369 541.276 365.599 541.205 365.849C541.134 366.099 541.121 366.362 541.166 366.618C541.212 366.873 541.315 367.115 541.468 367.326C541.62 367.536 541.819 367.708 542.048 367.83C542.277 367.952 542.531 368.021 542.791 368.031C543.051 368.04 543.309 367.991 543.547 367.886C543.784 367.781 543.995 367.624 544.163 367.425L545.878 366.445C593.157 341.948 647.296 312.797 701.68 282.665L702.66 282.175C699.45 277.252 696.974 271.888 695.311 266.252ZM981.438 34.5084C912.846 -41.1879 470.426 26.9143 282.533 68.0696L278.123 69.0495C277.692 69.1605 277.312 69.4152 277.045 69.7714C276.777 70.1276 276.639 70.5642 276.654 71.0092C276.677 71.2305 276.751 71.4434 276.869 71.632C276.988 71.8206 277.147 71.9798 277.336 72.0978C277.525 72.2157 277.738 72.2893 277.959 72.3129C278.18 72.3365 278.404 72.3096 278.613 72.2341L283.023 71.4992C438.825 43.8173 762.923 5.35675 832.495 74.4388C853.807 95.5064 848.908 122.698 824.166 154.79C837.824 163.713 847.485 177.589 851.113 193.495C947.387 129.558 1012.06 68.3145 981.438 34.5084Z" fill="#CC2427"/>
<path d="M723.237 246.409C723.972 273.111 740.875 294.914 762.923 294.914C805.548 294.914 823.676 242.49 822.451 207.459C821.471 180.757 804.323 158.954 782.275 158.954C745.53 158.954 721.767 211.133 723.237 246.409ZM700.7 244.94C698.985 199.375 734.751 152.83 786.44 152.83C821.226 152.83 843.763 176.102 844.988 211.378C846.703 259.393 813.387 303.488 759.248 303.488C724.462 303.488 701.925 280.46 700.7 244.94Z" fill="#013D5B"/>
<path d="M209.776 232.936C207.492 233.862 205.108 234.519 202.672 234.895L186.504 237.835C182.538 238.117 178.686 239.289 175.235 241.265C174.243 241.872 173.398 242.693 172.763 243.668C172.127 244.642 171.717 245.746 171.561 246.899C171.309 247.977 171.411 249.107 171.852 250.122C172.293 251.137 173.05 251.983 174.01 252.533C177.141 254.283 180.726 255.052 184.299 254.738C187.954 254.666 191.581 254.089 195.078 253.023C198.301 252.08 201.3 250.497 203.897 248.369C205.614 246.862 206.885 244.913 207.572 242.734C208.761 239.587 209.503 236.289 209.776 232.936ZM254.851 205.009C254.606 209.173 253.871 212.848 252.891 219.217L245.297 261.842C244.893 263.567 245.085 265.377 245.841 266.978C246.597 268.58 247.873 269.878 249.462 270.661V272.376H205.612V261.597C198.955 265.344 191.885 268.304 184.544 270.416C177.757 272.25 170.752 273.157 163.722 273.111C149.513 273.111 141.429 271.641 136.04 266.742C130.65 261.842 127.466 258.413 127.711 251.309C128.237 246.704 130.112 242.357 133.1 238.815C136.289 235.237 140.218 232.395 144.614 230.486C150.256 228.096 156.185 226.449 162.252 225.586C169.846 224.362 180.625 223.137 195.078 221.912C199.974 221.765 204.796 220.684 209.286 218.727C212.471 217.502 213.451 216.278 213.941 213.828C214.431 211.378 213.451 206.969 207.572 205.744C191.893 202.804 162.497 207.703 147.308 211.623L155.393 189.331C174.762 186.26 194.331 184.623 213.941 184.431C245.052 184.431 255.096 193.495 254.851 205.009Z" fill="#013D5B"/>
<path d="M381.257 272.376L396.445 186.881H438.335L423.147 272.376H381.257ZM398.895 167.283C400.119 160.179 411.143 154.545 423.637 154.545C436.13 154.545 444.949 160.179 443.724 167.283C442.5 174.388 431.476 180.022 418.982 180.022C406.489 180.022 397.67 174.143 398.895 167.283Z" fill="#013D5B"/>
<path d="M586.543 233.181L579.439 235.14L563.026 238.08C559.144 238.398 555.379 239.569 552.002 241.51C551.016 242.064 550.171 242.839 549.534 243.774C548.897 244.709 548.484 245.778 548.327 246.899C548.035 247.986 548.09 249.138 548.485 250.193C548.881 251.247 549.596 252.152 550.532 252.778C552.737 254.248 556.167 254.738 561.066 254.738C564.71 254.748 568.337 254.254 571.845 253.268C575.067 252.325 578.067 250.742 580.664 248.614C582.381 247.107 583.652 245.158 584.338 242.979C585.371 239.787 586.109 236.507 586.543 233.181ZM631.618 205.009C631.373 209.173 630.638 213.093 629.658 219.217L622.064 262.087C621.66 263.812 621.852 265.622 622.608 267.223C623.364 268.825 624.64 270.123 626.229 270.906V272.376H582.379V261.352C575.781 265.278 568.698 268.325 561.311 270.416C554.431 272.178 547.344 273.002 540.243 272.866C526.28 272.866 518.196 271.396 512.562 266.497C506.927 261.597 504.232 258.168 504.477 251.309C504.941 246.614 506.821 242.172 509.867 238.57C513.07 235.069 517 232.31 521.381 230.486C526.909 228.015 532.768 226.365 538.774 225.586C546.613 224.362 557.391 223.137 571.845 221.912C576.695 221.443 581.467 220.373 586.053 218.727C588.993 217.502 590.218 216.278 590.708 213.828C591.198 211.378 590.218 206.969 584.338 205.744C568.66 202.559 539.263 207.703 524.075 211.378L532.159 189.331C551.527 186.25 571.097 184.613 590.708 184.431C621.819 184.676 631.863 193.74 631.618 205.009Z" fill="#013D5B"/>
<path d="M121.831 241.755C110.415 244.309 98.743 245.542 87.0452 245.429C67.2024 245.429 51.2793 235.63 52.2591 217.258C52.7491 205.254 67.2024 179.777 103.458 179.777C114.942 179.511 126.257 182.574 136.04 188.596L141.184 158.954C128.111 153.762 114.079 151.423 100.029 152.095C52.2591 152.585 6.44939 174.143 0.815034 218.237C-4.81932 262.332 49.8094 274.336 74.0616 274.336C88.025 274.336 102.723 273.601 116.197 272.376L121.831 241.755Z" fill="#013D5B"/>
<path d="M461.362 186.391L464.302 168.998L507.907 159.689L503.253 186.391H524.81L520.646 203.784H499.823L487.329 272.376H444.949L457.688 203.784H441.765L444.949 186.636H461.362V186.391Z" fill="#013D5B"/>
<path d="M673.998 272.376H631.373L652.931 153.32L694.331 154.3L673.998 272.376Z" fill="#013D5B"/>
<path d="M326.138 206.969C320.765 206.985 315.534 208.7 311.195 211.868C306.748 215.577 303.861 220.825 303.111 226.566C301.641 234.16 302.376 239.305 305.315 242.735C307.027 244.399 309.064 245.692 311.297 246.535C313.531 247.378 315.914 247.752 318.299 247.634C322.011 247.709 325.693 246.956 329.078 245.429C332.345 243.918 335.139 241.547 337.162 238.57C339.453 235.164 341.036 231.332 341.816 227.301C343.041 220.442 342.061 215.543 338.876 212.113C337.251 210.386 335.27 209.032 333.071 208.144C330.872 207.256 328.507 206.855 326.138 206.969ZM249.952 302.018L270.284 187.371H307.03L304.09 202.069C308.115 197.036 313.458 193.22 319.524 191.045C327.075 187.961 335.131 186.3 343.286 186.146C352.84 186.146 358.719 186.636 365.823 190.311C372.559 193.69 377.797 199.453 380.522 206.479C383.409 213.884 384.089 221.967 382.481 229.751C381.462 236.434 379.116 242.846 375.582 248.61C372.049 254.374 367.398 259.372 361.904 263.312C350.635 271.396 340.591 273.601 326.138 273.601C321.764 273.681 317.399 273.187 313.154 272.131C310.233 271.496 307.425 270.422 304.825 268.947C302.285 267.114 299.981 264.975 297.966 262.577L291.107 302.018H249.952Z" fill="#013D5B"/>
<path d="M1008.38 217.502C1008.14 210.643 1004.71 205.989 997.606 205.989C980.458 205.989 962.33 239.55 959.146 253.023C987.072 253.023 1009.12 236.365 1008.38 217.502ZM1012.06 270.171L1015.24 272.376C1006.92 289.279 990.012 302.998 969.924 302.998C953.511 302.998 940.283 292.219 939.548 271.886C938.078 235.14 972.619 201.089 1000.55 201.089C1012.55 201.089 1023.82 206.479 1024.31 219.462C1025.29 248.614 984.378 257.433 957.431 257.923C956.548 261.443 956.217 265.08 956.451 268.702C956.941 280.95 964.29 290.994 979.233 290.994C994.177 290.994 1005.45 280.46 1012.06 270.171Z" fill="#013D5B"/>
<path d="M844.498 216.523L854.052 215.543C857.237 215.543 859.932 216.278 860.177 219.217C860.422 222.157 856.992 233.916 856.257 237.1L849.643 265.762C847.193 277.521 844.253 289.769 841.804 299.568H858.462L867.771 254.003C896.677 224.117 907.701 214.318 914.315 214.318C915.042 214.241 915.777 214.327 916.466 214.571C917.155 214.814 917.78 215.209 918.297 215.725C918.814 216.242 919.208 216.868 919.452 217.557C919.696 218.246 919.782 218.981 919.705 219.707C919.95 224.852 916.52 236.855 915.54 240.285L905.741 273.356C903.782 280.95 902.067 287.564 902.312 292.464C902.557 297.363 906.966 302.998 913.336 302.998C925.584 302.998 934.648 290.259 942.242 277.766L940.037 273.601C936.853 278.5 929.749 289.524 923.869 289.524C922.155 289.524 920.44 288.299 920.44 285.36C920.637 280.778 921.461 276.244 922.889 271.886L933.668 232.936C936.363 222.157 937.833 215.298 937.833 211.623C937.833 207.949 933.178 201.089 926.809 201.089C915.785 201.089 901.087 209.173 870.22 244.694H869.73L873.65 227.301C875.855 217.747 877.815 207.949 879.774 201.089C868.167 205.214 856.301 208.569 844.253 211.133L844.498 216.523Z" fill="#013D5B"/>
</g>
<defs>
<clipPath id="clip0_777_633">
<rect width="1024" height="367.623" fill="white" transform="translate(0.325195 0.408691)"/>
</clipPath>
</defs>
</svg>
