<svg width="1024" height="243" viewBox="0 0 1024 243" fill="none" xmlns="http://www.w3.org/2000/svg">
<g clip-path="url(#clip0_806_539)">
<path fill-rule="evenodd" clip-rule="evenodd" d="M1003.73 221.777V133.203H942.514V177.096H919.094V65.8899H942.514V109.783H1003.73V21.2093H803.161V109.783H864.376V65.8899H887.796V177.096H864.376V133.203H803.161V221.777H1003.73ZM782.888 220.006V22.9806C782.888 9.2042 791.156 0.935547 804.933 0.935547H1001.95C1015.73 0.935547 1024 9.2042 1024 22.9806V220.006C1024 233.782 1015.73 242.051 1001.95 242.051H804.933C791.156 242.051 782.888 233.782 782.888 220.006ZM654.379 190.392V74.6562H610.683V52.6111H722.086V74.6562H678.392V190.392H654.379ZM539.841 131.145C521.338 124.847 501.261 116.975 501.261 91.1907C501.261 65.9967 519.961 49.6619 548.7 49.6619C561.689 49.6619 572.514 52.6111 582.16 56.9437V82.1376C571.333 75.4434 560.508 71.5073 548.7 71.5073C534.527 71.5073 525.668 78.1986 525.668 88.829C525.668 101.427 537.283 105.167 555.588 111.464C574.091 117.762 594.165 125.634 594.165 151.419C594.165 177.006 575.072 193.344 545.745 193.344C529.804 193.344 516.812 189.211 505.988 183.698V158.113C518.586 165.985 531.182 171.496 545.745 171.496C560.508 171.496 569.758 164.411 569.758 153.781C569.758 141.185 558.147 137.446 539.841 131.145ZM437.106 190.392H461.119V52.6111H437.106V190.392ZM281.041 137.049V52.6111H305.055V136.658C305.055 158.113 316.866 171.299 336.349 171.299C355.836 171.299 367.644 158.113 367.644 136.658V52.6111H391.657V137.049C391.657 170.512 369.416 193.344 336.349 193.344C303.283 193.344 281.041 170.512 281.041 137.049ZM195.83 119.927C209.41 119.927 219.253 110.48 219.253 97.0948C219.253 83.9089 209.41 74.4594 195.83 74.4594H166.107V119.927H195.83ZM200.16 162.64C193.469 148.86 189.923 141.382 174.376 141.382H166.107V190.392H142.097V52.6111H196.024C224.173 52.6111 243.856 70.72 243.856 96.5045C243.856 117.762 231.258 132.129 211.774 137.049C220.628 146.105 223.58 157.916 229.484 163.82C232.83 167.166 236.375 169.134 241.888 169.134C244.05 169.134 245.822 168.937 247.399 168.544V190.392C244.447 190.982 241.689 191.376 238.737 191.376C214.92 191.376 207.638 178.187 200.16 162.64ZM43.6965 190.392V74.6562H0V52.6111H111.403V74.6562H67.7096V190.392H43.6965Z" fill="#2E1A47"/>
</g>
<defs>
<clipPath id="clip0_806_539">
<rect width="1024" height="241.115" fill="white" transform="translate(0 0.935547)"/>
</clipPath>
</defs>
</svg>
