<svg width="1024" height="146" viewBox="0 0 1024 146" fill="none" xmlns="http://www.w3.org/2000/svg">
<g clip-path="url(#clip0_806_251)">
<path d="M984.977 118.255H992.982V30.292H984.977V118.255Z" fill="#13294B"/>
<path d="M578.547 32.4299V40.0655C566.692 39.1492 560.997 43.8833 561.151 55.4896V57.9331H578.701V65.5684H561.151V118.255H553.145V65.7215H542.831V58.0857H553.145V55.6423C552.991 39.9128 562.074 31.2081 578.547 32.4299Z" fill="#13294B"/>
<path fill-rule="evenodd" clip-rule="evenodd" d="M202.761 65.1107C207.226 59.6128 213.538 56.4059 222.467 56.4059C238.785 56.4059 252.18 70.303 252.18 88.1702C252.18 106.037 238.785 119.934 222.467 119.934C213.692 119.934 207.226 116.728 202.761 111.23V118.255H187.059V33.957H202.761V65.1107ZM202.761 88.1702C202.761 98.2491 209.997 105.122 219.542 105.122C229.241 105.122 236.476 98.2491 236.476 88.1702C236.476 78.0914 229.241 71.2188 219.542 71.2188C209.997 71.2188 202.761 78.0914 202.761 88.1702Z" fill="#13294B"/>
<path d="M277.276 57.9338V68.3183C280.356 60.0717 288.053 56.7119 295.751 56.7119V74.1213C287.591 73.0523 277.276 76.7174 277.276 89.3924V118.256H261.727V57.9338H277.276Z" fill="#13294B"/>
<path fill-rule="evenodd" clip-rule="evenodd" d="M317.915 94.4313H363.638C363.946 92.2933 364.255 90.308 364.255 88.0175C364.255 70.3028 351.476 56.2529 333.464 56.2529C314.374 56.2529 301.442 70.1497 301.442 88.0175C301.442 106.037 314.374 119.781 334.695 119.781C346.396 119.781 355.479 115.047 361.175 106.953L348.551 99.7761C345.78 103.288 341.008 105.732 335.003 105.732C326.844 105.884 320.224 102.372 317.915 94.4313ZM317.761 82.367C319.607 74.7312 325.304 70.1497 333.618 70.1497C340.237 70.1497 346.703 73.6622 348.705 82.367H317.761Z" fill="#13294B"/>
<path fill-rule="evenodd" clip-rule="evenodd" d="M420.908 65.1101V58.085H436.612V118.255H420.908V111.229C416.443 116.728 409.977 119.934 401.048 119.934C384.884 119.934 371.489 106.19 371.489 88.1695C371.489 70.3023 384.884 56.4054 401.048 56.4054C409.977 56.2527 416.443 59.6121 420.908 65.1101ZM387.346 88.1695C387.346 98.249 394.428 105.121 404.127 105.121C413.826 105.121 421.063 98.249 421.063 88.1695C421.063 78.0907 413.98 71.2187 404.127 71.2187C394.428 71.2187 387.346 78.0907 387.346 88.1695Z" fill="#13294B"/>
<path fill-rule="evenodd" clip-rule="evenodd" d="M494.497 33.957V65.1107C490.032 59.6128 483.721 56.4059 474.791 56.4059C458.472 56.4059 445.079 70.303 445.079 88.1702C445.079 106.191 458.472 119.934 474.791 119.934C483.567 119.934 490.032 116.728 494.497 111.23V118.255H510.2V33.957H494.497ZM477.717 105.122C468.017 105.122 460.782 98.2491 460.782 88.1702C460.782 78.0914 467.863 71.2188 477.717 71.2188C487.261 71.2188 494.497 78.0914 494.497 88.1702C494.497 98.2491 487.261 105.122 477.717 105.122Z" fill="#13294B"/>
<path d="M592.547 45.2586C595.781 45.2586 598.399 42.5097 598.399 39.4555C598.399 36.2485 595.781 33.6523 592.547 33.6523C589.315 33.6523 586.698 36.4012 586.698 39.4555C586.698 42.5097 589.161 45.2586 592.547 45.2586Z" fill="#13294B"/>
<path d="M588.551 118.255H596.557V57.9326H588.551V118.255Z" fill="#13294B"/>
<path d="M620.565 67.4014C625.339 59.7655 632.269 56.5586 640.893 56.5586C655.666 56.5586 664.596 66.1793 664.596 81.2984V118.255H656.591V81.2984C656.591 70.6082 650.585 64.347 640.118 64.347C629.494 64.347 620.414 70.6082 620.414 86.7958V118.255H612.409V57.9333H620.414V67.4014H620.565Z" fill="#13294B"/>
<path fill-rule="evenodd" clip-rule="evenodd" d="M730.343 57.9334V69.6926C725.262 61.5985 716.638 56.4062 705.865 56.4062C688.773 56.4062 674.457 70.1502 674.457 88.018C674.457 105.885 688.617 119.63 705.865 119.63C716.638 119.63 725.262 114.437 730.343 106.343V118.103H738.348V57.9334H730.343ZM706.477 111.841C693.085 111.841 682.618 101.457 682.618 88.018C682.618 74.5791 693.085 64.1946 706.477 64.1946C720.025 64.1946 730.343 74.5791 730.343 88.018C730.343 101.457 719.869 111.841 706.477 111.841Z" fill="#13294B"/>
<path d="M760.988 67.4014C765.763 59.7655 772.693 56.5586 781.311 56.5586C796.09 56.5586 805.176 66.1793 805.02 81.2984V118.255H797.015V81.2984C797.015 70.6082 791.009 64.347 780.542 64.347C769.918 64.347 760.838 70.6082 760.838 86.7958V118.255H752.833V57.9333H760.838V67.4014H760.988Z" fill="#13294B"/>
<path d="M847.652 119.63C859.506 119.63 869.818 113.52 874.898 103.9L868.28 100.082C864.431 107.107 857.038 111.841 847.802 111.841C834.41 111.841 823.943 101.457 823.943 88.018C823.943 74.5791 834.41 64.1946 847.802 64.1946C856.888 64.1946 864.587 68.9287 867.818 75.9538L874.436 72.1356C869.974 62.6675 859.813 56.4062 847.802 56.4062C829.486 56.4062 815.937 70.1502 815.937 88.018C815.781 105.885 829.329 119.63 847.652 119.63Z" fill="#13294B"/>
<path fill-rule="evenodd" clip-rule="evenodd" d="M960.655 69.8444V58.0858H968.661V118.255H960.655V106.496C955.575 114.589 946.957 119.782 936.178 119.782C919.086 119.782 904.775 106.038 904.775 88.1704C904.775 70.3026 919.086 56.5586 936.178 56.5586C946.957 56.5586 955.575 61.7509 960.655 69.8444ZM912.775 88.0173C912.775 101.456 923.248 111.841 936.64 111.841C950.188 111.841 960.499 101.456 960.499 88.0173C960.499 74.5784 950.032 64.1945 936.64 64.1945C923.248 64.1945 912.775 74.7315 912.775 88.0173Z" fill="#13294B"/>
<path d="M896.464 39.4555C896.464 42.5097 893.845 45.2586 890.615 45.2586C887.378 45.2586 884.759 42.6624 884.759 39.4555C884.759 36.4012 887.378 33.6523 890.615 33.6523C893.845 33.6523 896.464 36.2485 896.464 39.4555Z" fill="#13294B"/>
<path d="M894.308 118.255H886.921V57.9326H894.308V118.255Z" fill="#13294B"/>
<path d="M1012.52 106.27H1004.75V107.612H1007.92V116.95H1009.34V107.612H1012.52V106.27Z" fill="#13294B"/>
<path d="M1024 106.27H1022.38L1018.97 111.915L1015.54 106.27H1013.92V116.95H1015.36V108.619L1018.88 114.417H1019.06L1022.58 108.604V116.95H1024V106.27Z" fill="#13294B"/>
<path d="M72.349 0.666016C32.388 0.666016 0 33.0541 0 73.0153C0 112.976 32.388 145.364 72.349 145.364C112.31 145.364 144.698 112.976 144.698 73.0153C144.766 33.0541 112.378 0.666016 72.349 0.666016ZM86.2779 125.688L85.3314 126.229C78.9753 129.677 70.9966 127.243 67.5483 120.887L28.1959 47.7943C24.7474 41.4384 27.1816 33.4598 33.5375 30.0114L34.4841 29.4704C40.84 26.022 48.8187 28.3886 52.2671 34.8121L91.6197 107.905C95.0001 114.328 92.634 122.24 86.2779 125.688ZM102.168 105.403L71.6055 48.6733C87.2922 40.2214 106.833 46.1039 115.285 61.7907C123.737 77.4101 117.855 96.951 102.168 105.403Z" fill="#59BEC9"/>
</g>
<defs>
<clipPath id="clip0_806_251">
<rect width="1024" height="144.698" fill="white" transform="translate(0 0.666016)"/>
</clipPath>
</defs>
</svg>
