<svg width="1025" height="151" viewBox="0 0 1025 151" fill="none" xmlns="http://www.w3.org/2000/svg">
<g clip-path="url(#clip0_844_2562)">
<path d="M475.211 0.0332031C464.564 0.0332031 455.949 8.62897 455.949 19.2196L456.001 145.617H494.537L494.486 19.1937C494.486 8.60306 485.845 0.0332031 475.211 0.0332031Z" fill="#FF6700"/>
<path fill-rule="evenodd" clip-rule="evenodd" d="M707.551 99.5064L707.629 99.5576L707.577 19.1937C707.577 8.60306 698.932 0.0332031 688.29 0.0332031C677.654 0.0332031 669.028 8.62897 669.041 19.2196V50.5566C665.114 49.5844 661.005 49.0601 656.785 49.0601C642.833 49.0601 630.013 54.7388 620.883 63.8459C611.728 72.9148 606.006 85.6669 606.019 99.5576C606.019 113.435 611.728 126.188 620.883 135.256C626.721 141.102 639.271 150.055 656.773 150.055C674.284 150.055 686.818 141.102 692.671 135.256C701.828 126.175 707.551 113.422 707.551 99.5446V99.5064ZM656.785 122.248C650.032 122.248 644.556 112.067 644.556 99.5064C644.556 86.9462 650.032 76.7645 656.785 76.7645C663.532 76.7645 669.015 86.9462 669.015 99.5064C669.015 112.067 663.532 122.248 656.785 122.248Z" fill="#FF6700"/>
<path fill-rule="evenodd" clip-rule="evenodd" d="M727.312 63.7565C736.431 54.6494 749.25 48.9707 763.197 48.9707L763.223 48.983C777.332 48.9707 789.445 54.5217 798.959 64.076C815.318 80.5125 811.215 104.789 811.215 104.789H751.395C751.933 108.741 753.029 112.22 754.571 115.111C756.846 119.281 759.782 121.762 763.21 121.762C771.415 121.762 776.172 109.829 776.172 109.829H810.515C810.515 109.829 810.016 122.76 799.407 134.873C790.988 143.276 778.512 149.966 763.444 149.966C748.784 149.966 736.21 144.031 727.312 135.18C718.154 126.098 712.438 113.359 712.438 99.4682C712.438 85.5774 718.154 72.8254 727.312 63.7565ZM752.03 90.4505L774.345 90.387C773.897 88.2379 772.958 84.9889 771.921 83.1218C769.503 78.7853 766.671 76.3426 763.197 76.3297C759.769 76.3426 756.282 79.3226 754.558 82.9811C753.657 84.9092 752.724 87.501 752.03 90.4505Z" fill="#FF6700"/>
<path d="M973.934 49.0098C959.987 49.0098 947.161 54.6884 938.035 63.7956C928.878 72.8768 923.155 85.6165 923.168 99.5072V145.631H961.704V100.288C961.704 94.7618 963.046 90.0424 965.295 86.3839C967.569 82.7772 970.499 80.641 973.934 80.6281C977.369 80.641 980.311 82.7772 982.573 86.3839C984.815 90.0424 986.15 94.7618 986.163 100.288V145.631H1024.7V99.5072C1024.7 85.6165 1018.99 72.8768 1009.83 63.7956C1000.71 54.6884 987.9 48.9968 973.934 49.0098Z" fill="#FF6700"/>
<path fill-rule="evenodd" clip-rule="evenodd" d="M867.645 49.0098C839.615 49.0098 816.886 71.624 816.886 99.5072C816.886 127.391 839.615 150.005 867.645 150.005C895.682 150.005 918.411 127.391 918.411 99.5072C918.411 71.624 895.682 49.0098 867.645 49.0098ZM867.645 122.249C860.898 122.249 855.422 112.068 855.422 99.5072C855.422 86.947 860.898 76.7654 867.645 76.7654C874.398 76.7654 879.875 86.947 879.875 99.5072C879.875 112.068 874.398 122.249 867.645 122.249Z" fill="#FF6700"/>
<path fill-rule="evenodd" clip-rule="evenodd" d="M499.861 99.5072C499.861 71.624 522.594 49.0098 550.625 49.0098C578.656 49.0098 601.39 71.624 601.39 99.5072C601.39 127.391 578.656 150.005 550.625 150.005C522.594 150.005 499.861 127.391 499.861 99.5072ZM538.397 99.5072C538.397 112.068 543.875 122.249 550.625 122.249C557.376 122.249 562.854 112.068 562.854 99.5072C562.854 86.947 557.376 76.7654 550.625 76.7654C543.875 76.7654 538.397 86.947 538.397 99.5072Z" fill="#FF6700"/>
<path fill-rule="evenodd" clip-rule="evenodd" d="M366.584 63.7565C375.7 54.6494 388.52 48.9707 402.471 48.9707L402.497 48.983C416.603 48.9707 428.716 54.5217 438.23 64.076C454.574 80.5125 450.485 104.789 450.485 104.789H390.668C391.208 108.741 392.301 112.22 393.844 115.111C396.119 119.281 399.051 121.762 402.484 121.762C410.688 121.762 415.446 109.829 415.446 109.829H449.791C449.791 109.829 449.289 122.76 438.681 134.873C430.259 143.276 417.786 149.966 402.716 149.966C388.058 149.966 375.482 144.031 366.584 135.18C357.429 126.098 351.707 113.359 351.707 99.4682C351.707 85.5774 357.429 72.8254 366.584 63.7565ZM391.301 90.4505L413.62 90.387C413.17 88.2379 412.231 84.9889 411.19 83.1218C408.772 78.7853 405.943 76.3426 402.471 76.3297C399.038 76.3426 395.554 79.3226 393.831 82.9811C392.932 84.9092 391.995 87.501 391.301 90.4505Z" fill="#FF6700"/>
<path d="M357.3 138.927C357.3 137.649 356.914 136.459 356.284 135.435L335.184 103.689L349.791 77.3019C355.192 68.1818 352.144 56.4402 342.976 51.0551C333.808 45.683 321.991 48.7148 316.591 57.8342L299.142 88.8647V68.1818C299.142 57.6042 290.514 49.009 279.867 49.009C269.22 49.009 260.593 57.5912 260.593 68.1818V145.642H299.129V115.316L319.458 145.63H350.562C354.265 145.63 357.275 142.624 357.275 138.94L357.3 138.927Z" fill="#FF6700"/>
<path d="M204.093 122.274C207.527 122.262 210.458 119.793 212.734 115.623V115.61C214.393 112.49 215.55 108.665 216.039 104.303H254.614C252.968 121.647 243.427 132.571 236.972 138.007C228.138 145.502 216.579 150.068 204.081 150.068C187.454 150.068 175.214 142.266 168.18 135.27C159.025 126.188 153.315 113.436 153.315 99.558C153.302 85.6673 159.025 72.9275 168.18 63.8463C177.309 54.7392 190.129 49.0606 204.081 49.0606C218.045 49.0476 230.852 54.7392 239.981 63.8463C248.081 71.8789 253.482 82.7767 254.614 94.7997H216.039C215.55 90.4379 214.393 86.6265 212.734 83.4929C210.458 79.323 207.527 76.8673 204.093 76.8414C200.66 76.8673 197.729 79.323 195.452 83.4929C193.215 87.7263 191.877 93.1755 191.877 99.558C191.877 105.954 193.215 111.402 195.452 115.623C197.729 119.793 200.66 122.274 204.093 122.274Z" fill="#FF6700"/>
<path d="M143.698 36.5902C147.581 32.7398 149.972 27.4059 149.972 21.5225C149.972 15.639 147.581 10.3051 143.698 6.45476C139.827 2.59207 134.465 0.212891 128.55 0.212891C122.636 0.212891 117.287 2.59207 113.403 6.45476C109.52 10.3051 107.128 15.639 107.128 21.5225C107.128 27.4059 109.52 32.7398 113.403 36.5902L118.135 41.2967C126.03 49.1504 126.596 51.2353 119.087 58.7047L114.792 62.9899C111.256 66.4942 109.083 71.342 109.083 76.6889V145.618H148.031V76.6889C148.031 71.342 145.845 66.4942 142.335 62.9899L138.027 58.7047C130.518 51.2353 131.071 49.1504 138.966 41.2967L143.698 36.5902Z" fill="#FF6700"/>
<path d="M15.564 63.7956C24.6934 54.6884 37.5132 49.0098 51.4644 49.0098C65.4286 48.9968 78.2353 54.6884 87.3651 63.7956C96.5202 72.8768 102.229 85.6165 102.229 99.5072V145.631H63.6928V100.288C63.6799 94.7618 62.3426 90.0424 60.1053 86.3839C57.8422 82.7772 54.8976 80.641 51.4644 80.6281C48.0313 80.641 45.0996 82.7772 42.8236 86.3839C40.5734 90.0424 39.2362 94.7618 39.2362 100.288V145.631H0.699707V99.5072C0.699707 85.6165 6.40881 72.8768 15.564 63.7956Z" fill="#FF6700"/>
</g>
<defs>
<clipPath id="clip0_844_2562">
<rect width="1024" height="150.035" fill="white" transform="translate(0.699707 0.0332031)"/>
</clipPath>
</defs>
</svg>
