<svg width="1024" height="238" viewBox="0 0 1024 238" fill="none" xmlns="http://www.w3.org/2000/svg">
<g clip-path="url(#clip0_806_415)">
<path d="M540.183 128.217C570.693 99.1446 570.693 51.7676 540.183 22.6957C509.676 -6.37643 459.787 -6.37643 428.921 22.6957C423.897 27.7205 422.82 35.2577 426.766 41.3593C427.484 42.4359 428.203 43.5126 428.921 44.5896C434.304 52.8446 446.148 53.9212 453.327 47.4607C471.272 30.5918 500.346 30.5918 516.854 48.8965C531.571 65.0478 530.853 89.095 514.7 104.528L412.053 202.153C410.617 203.589 409.18 204.666 407.744 206.101C400.206 213.279 405.593 225.842 416.359 225.842H547.002C554.181 225.842 559.923 220.458 559.923 213.638V204.307C559.923 197.487 554.181 192.104 547.002 192.104H473.786C473.786 192.104 473.426 192.104 473.786 191.744L540.183 128.217Z" fill="#020D77"/>
<path d="M226.851 113.501V221.175C226.851 230.148 219.673 237.685 210.341 237.685C201.368 237.685 193.831 230.507 193.831 221.175V188.873C191.319 191.744 189.883 193.539 189.883 193.539C187.729 195.333 185.935 197.487 183.781 199.281C164.4 215.791 139.276 225.482 111.998 225.482C49.5472 225.482 -1.05987 174.157 0.0168694 111.706C1.09361 52.8439 48.4706 4.39047 107.332 1.87807C138.558 0.442412 166.912 12.2866 188.088 31.668C193.113 36.3339 194.19 43.8709 190.601 49.6136C189.883 50.6906 189.165 52.126 188.447 53.203C183.781 61.8168 172.296 63.2525 165.476 56.4333C151.479 43.1535 132.815 34.8982 111.998 34.8982C67.1339 34.8982 30.8835 73.3021 34.1138 118.884C36.9851 156.57 67.1339 187.078 104.82 190.667C139.994 193.897 171.219 173.44 183.781 143.29C185.576 138.984 187.012 134.318 188.088 129.652V129.293H122.048C113.075 129.293 105.538 122.114 105.538 112.783C105.538 103.81 112.716 96.2727 122.048 96.2727H210.341C211.059 96.2727 211.777 96.2727 212.135 96.2727C212.853 96.2727 213.212 96.2727 213.571 96.6314C221.467 99.1438 226.851 105.604 226.851 113.501Z" fill="#020D77"/>
<path d="M315.143 1.87891C262.742 1.87891 218.595 38.1293 206.751 86.9419H210.34C224.338 86.9419 235.823 98.068 236.9 111.707C236.9 112.425 236.9 112.784 236.9 113.501C236.9 114.937 236.9 116.732 236.9 118.167V193.539C256.999 213.28 284.635 225.483 314.784 225.483C376.518 225.483 426.407 175.235 426.407 113.86C426.766 52.1268 376.518 1.87891 315.143 1.87891Z" fill="#020D77"/>
<path d="M315.145 191.746C358.357 191.746 393.388 156.715 393.388 113.502C393.388 70.2897 358.357 35.2588 315.145 35.2588C271.932 35.2588 236.901 70.2897 236.901 113.502C236.901 156.715 271.932 191.746 315.145 191.746Z" fill="#1791F5"/>
<path d="M315.142 65.7656C288.583 65.7656 267.048 87.3005 267.048 113.86C267.048 140.42 288.583 161.955 315.142 161.955C341.702 161.955 363.237 140.42 363.237 113.86C363.237 87.3005 341.702 65.7656 315.142 65.7656Z" fill="#8DC9F8"/>
<path d="M315.145 91.9658C303.301 91.9658 293.251 101.656 293.251 113.859C293.251 126.063 302.942 135.753 315.145 135.753C327.349 135.753 337.039 126.063 337.039 113.859C337.039 101.656 326.989 91.9658 315.145 91.9658Z" fill="white"/>
<path d="M669.752 166.26C683.032 160.876 684.469 149.032 684.469 144.008C684.469 125.703 671.189 114.218 650.011 114.218H613.044C606.942 114.218 602.637 118.166 602.637 123.909V215.791C602.637 221.533 606.942 225.481 613.044 225.481H653.958C675.853 225.481 691.288 211.842 691.288 192.461C690.929 182.412 683.75 169.849 669.752 166.26ZM670.111 192.82C670.111 200.716 664.01 209.33 652.525 209.33H622.373V175.233H652.166C663.291 175.233 670.111 184.206 670.111 192.82ZM622.373 159.441V130.728H647.856C657.908 130.728 663.651 135.753 663.651 144.366C663.651 151.904 658.986 159.441 648.934 159.441H622.373Z" fill="#1791F5"/>
<path d="M760.559 122.116C758.045 116.373 753.38 113.502 747.278 113.502H746.201C739.74 113.502 735.435 116.373 732.921 122.116L694.162 214.357C693.084 216.511 693.443 219.382 694.517 221.535C695.594 223.689 697.39 225.483 699.545 225.842C700.622 226.201 702.055 226.56 703.132 226.56C707.438 226.56 711.388 224.406 712.825 220.817L722.514 198.206H771.325L780.659 220.817C782.454 225.483 788.556 227.637 793.939 226.201C796.09 225.483 797.885 224.048 798.963 221.894C800.04 219.741 800.04 216.869 799.322 214.716L760.559 122.116ZM764.15 182.055H728.974L746.56 137.549L764.15 182.055Z" fill="#1791F5"/>
<path d="M890.488 113.5C885.46 113.5 880.795 117.807 880.795 122.473V191.385L832.343 118.166C829.829 114.577 827.319 113.142 822.65 113.142H820.14C814.757 113.142 810.447 117.09 810.447 121.755V217.227C810.447 222.252 814.757 226.2 820.14 226.2C825.882 226.2 830.547 222.252 830.547 217.227V147.598L879.717 221.534C882.231 225.123 884.745 226.558 889.051 226.558H891.561C896.589 226.558 900.895 222.611 900.895 217.945V122.473C900.895 117.448 896.23 113.5 890.488 113.5Z" fill="#1791F5"/>
<path d="M1000.31 211.843L957.244 169.491L993.852 126.422C995.289 124.627 996.007 122.474 995.648 119.961C995.289 117.807 993.852 116.013 992.056 114.577C987.751 112.065 981.649 112.783 979.135 116.372L943.964 158.365V122.474C943.964 117.449 939.299 113.501 933.557 113.501C928.529 113.501 923.864 117.807 923.864 122.474V217.227C923.864 222.252 928.169 226.2 933.557 226.2C939.299 226.2 943.964 222.252 943.964 217.227V181.695L985.955 223.688C988.11 225.841 990.624 226.559 993.493 226.559C995.648 226.559 997.799 225.841 999.235 224.764C1001.39 223.328 1002.47 221.175 1002.83 218.663C1002.83 216.15 1001.75 213.638 1000.31 211.843Z" fill="#1791F5"/>
<path d="M1006.41 109.911H1003.19V108.116H1011.44V109.911H1008.21V119.242H1006.41V109.911ZM1013.23 108.475H1015.03L1018.62 115.295L1022.21 108.475H1024V119.602H1022.21V112.064L1018.98 117.448H1017.9L1014.67 112.064V119.602H1012.87V108.475H1013.23Z" fill="#1791F5"/>
</g>
<defs>
<clipPath id="clip0_806_415">
<rect width="1024" height="236.793" fill="white" transform="translate(0 0.891602)"/>
</clipPath>
</defs>
</svg>
