<svg width="459" height="513" viewBox="0 0 459 513" fill="none" xmlns="http://www.w3.org/2000/svg">
<g clip-path="url(#clip0_2_15043)">
<path d="M340.946 479.925V489.488H338.554V479.925H335.786V477.55H343.714V479.925H340.946ZM353.905 489.488V482.442L351.891 486.832H349.778L347.764 482.442V489.488H345.374V477.549H347.764L350.835 483.924L353.905 477.549H356.295V489.487L353.905 489.488Z" fill="#00205B"/>
<path d="M458.662 201.494C458.75 201.338 458.785 201.158 458.762 200.98C458.739 200.803 458.659 200.638 458.535 200.509C458.452 200.424 458.351 200.358 458.24 200.316C451.342 197.728 444.838 195.937 438.254 195.001C438.068 194.977 437.897 194.886 437.773 194.746C437.649 194.605 437.58 194.424 437.579 194.237C437.579 194.113 437.607 193.991 437.663 193.88C443.059 183.061 446.551 170.63 449.154 157.161C449.266 156.581 448.738 156.069 448.167 156.218C436.035 159.369 422.149 165.073 410.597 170.592C410.442 170.668 410.265 170.688 410.097 170.65C409.929 170.611 409.779 170.516 409.673 170.38C409.602 170.29 409.552 170.186 409.528 170.074C407.829 162.594 405.812 154.153 401.669 146.841C401.611 146.742 401.534 146.657 401.442 146.591C401.349 146.524 401.244 146.477 401.133 146.453C401.021 146.43 400.906 146.43 400.795 146.454C400.684 146.477 400.578 146.524 400.486 146.59C388.263 155.434 377.34 165.159 367.826 175.838C367.703 175.978 367.533 176.069 367.348 176.095C367.163 176.12 366.975 176.079 366.818 175.978C366.714 175.911 366.627 175.821 366.564 175.715C364.112 171.668 360.917 168.049 356.703 165.017C356.542 164.902 356.343 164.852 356.146 164.879C355.949 164.905 355.77 165.005 355.644 165.159C339.949 184.569 320.197 206.617 294.707 224.874C294.178 225.252 293.454 224.736 293.643 224.113C299.429 205.185 308.143 187.148 316.636 170.585C316.691 170.48 316.721 170.364 316.724 170.246C316.728 170.127 316.703 170.01 316.654 169.902C316.605 169.795 316.531 169.7 316.439 169.625C316.348 169.55 316.24 169.498 316.125 169.471C312.55 168.662 307.783 168.207 303.265 167.951C303.164 167.946 303.065 167.92 302.974 167.876C302.883 167.832 302.801 167.77 302.734 167.694C302.667 167.618 302.615 167.53 302.582 167.434C302.55 167.338 302.536 167.237 302.543 167.135C302.553 167 302.598 166.87 302.675 166.758C313.419 150.827 321.633 131.451 326.84 114.029C326.892 113.855 326.88 113.668 326.805 113.502C326.731 113.336 326.599 113.202 326.434 113.126C326.325 113.075 326.205 113.051 326.085 113.056C317.105 113.457 306.26 115.477 297.281 118.592C297.158 118.637 297.025 118.648 296.896 118.624C296.767 118.601 296.646 118.544 296.546 118.458C296.447 118.373 296.371 118.263 296.328 118.139C296.285 118.015 296.275 117.882 296.3 117.753C298.924 102.7 297.708 85.8181 294.838 70.1745C294.819 70.0619 294.774 69.955 294.709 69.8614C294.643 69.7679 294.557 69.69 294.458 69.6334C294.359 69.5766 294.249 69.5423 294.135 69.5329C294.021 69.5236 293.907 69.5394 293.8 69.5792C287.462 71.9667 280.202 75.6222 273.596 79.6126C273.476 79.6865 273.337 79.7259 273.196 79.7263C273.055 79.7267 272.916 79.6882 272.795 79.615C272.674 79.5415 272.576 79.4357 272.512 79.3095C272.448 79.1834 272.42 79.0419 272.432 78.9009C273.426 64.7478 271.858 49.1058 268.825 36.5046C268.801 36.4037 268.756 36.3088 268.693 36.2262C268.63 36.1436 268.551 36.075 268.46 36.0249C268.369 35.9748 268.269 35.9443 268.166 35.9352C268.062 35.9262 267.958 35.9389 267.86 35.9725C263.248 37.5762 257.824 40.4166 252.649 43.5052C252.549 43.5658 252.437 43.6032 252.321 43.6145C252.205 43.6259 252.087 43.6108 251.978 43.5706C251.868 43.5303 251.769 43.4659 251.688 43.382C251.607 43.2981 251.545 43.1971 251.509 43.0862C246.638 28.828 238.821 14.9604 230.397 1.18494C230.325 1.06731 230.224 0.9702 230.103 0.902931C229.983 0.835661 229.847 0.800488 229.709 0.800783C229.571 0.800797 229.435 0.836103 229.315 0.903343C229.194 0.970582 229.093 1.06752 229.021 1.18494C220.596 14.9604 212.78 28.828 207.909 43.0862C207.872 43.1966 207.81 43.2973 207.729 43.381C207.648 43.4646 207.549 43.5292 207.44 43.5699C207.33 43.6099 207.213 43.6249 207.097 43.6137C206.981 43.6025 206.869 43.5654 206.769 43.5052C201.593 40.4157 196.169 37.577 191.558 35.9725C191.46 35.9389 191.355 35.9262 191.252 35.9352C191.149 35.9443 191.048 35.9748 190.957 36.0249C190.867 36.075 190.787 36.1436 190.724 36.2262C190.662 36.3088 190.617 36.4037 190.593 36.5046C187.558 49.1049 185.992 64.7478 186.986 78.9001C186.997 79.041 186.969 79.1822 186.905 79.3082C186.841 79.4342 186.743 79.5401 186.623 79.6142C186.502 79.6874 186.363 79.7259 186.222 79.7255C186.08 79.7251 185.942 79.6857 185.821 79.6118C179.215 75.6222 171.955 71.9667 165.617 69.5792C165.51 69.5399 165.396 69.5245 165.282 69.5341C165.168 69.5437 165.058 69.578 164.959 69.6348C164.86 69.6915 164.775 69.7692 164.71 69.8625C164.644 69.9557 164.599 70.0622 164.579 70.1745C161.71 85.8181 160.493 102.7 163.118 117.753C163.136 117.85 163.135 117.949 163.115 118.044C163.095 118.14 163.056 118.231 163.001 118.312C162.945 118.393 162.874 118.462 162.792 118.515C162.71 118.569 162.618 118.605 162.521 118.623C162.392 118.647 162.26 118.636 162.136 118.592C153.157 115.478 142.313 113.456 133.333 113.056C133.151 113.048 132.972 113.106 132.83 113.219C132.687 113.333 132.591 113.494 132.558 113.673C132.536 113.792 132.543 113.914 132.577 114.029C137.785 131.451 145.998 150.827 156.743 166.758C156.82 166.87 156.866 167 156.875 167.135C156.885 167.271 156.859 167.406 156.799 167.528C156.738 167.65 156.647 167.753 156.533 167.828C156.419 167.902 156.288 167.945 156.152 167.951C151.635 168.207 146.868 168.662 143.293 169.472C143.178 169.499 143.071 169.552 142.979 169.627C142.888 169.701 142.815 169.796 142.765 169.903C142.716 170.011 142.692 170.128 142.694 170.246C142.697 170.364 142.727 170.48 142.781 170.585C151.289 187.175 160.016 205.244 165.802 224.206C165.986 224.807 165.297 225.314 164.782 224.955C142.2 209.166 120.53 186.004 103.774 165.162C103.649 165.007 103.47 164.905 103.272 164.878C103.075 164.852 102.875 164.902 102.713 165.018C98.4997 168.05 95.306 171.668 92.8539 175.715C92.7911 175.821 92.7041 175.911 92.5999 175.978C92.4957 176.044 92.3773 176.085 92.2543 176.097C92.1313 176.109 92.0073 176.092 91.8922 176.046C91.7772 176.001 91.6744 175.93 91.5922 175.838C82.0781 165.159 71.1551 155.434 58.9309 146.59C58.8386 146.524 58.7334 146.477 58.6221 146.454C58.5108 146.431 58.3959 146.431 58.2847 146.454C58.1735 146.478 58.0684 146.524 57.9762 146.591C57.884 146.658 57.8067 146.743 57.7493 146.841C53.6053 154.153 51.5883 162.594 49.8891 170.075C49.8517 170.243 49.7582 170.394 49.624 170.501C49.4898 170.609 49.3228 170.668 49.1507 170.668C49.0364 170.667 48.9237 170.641 48.8207 170.592C37.2685 165.073 23.3823 159.369 11.2511 156.218C10.6793 156.07 10.1512 156.582 10.2636 157.161C12.8678 170.63 16.3583 183.061 21.7551 193.88C21.8117 193.991 21.8408 194.113 21.8398 194.238C21.8388 194.362 21.8078 194.484 21.7494 194.594C21.6917 194.704 21.6083 194.799 21.5062 194.87C21.4041 194.941 21.2864 194.986 21.1631 195.002C14.5799 195.937 8.07429 197.727 1.17728 200.315C1.00969 200.379 0.86753 200.496 0.772473 200.648C0.677416 200.8 0.63468 200.979 0.650783 201.157C0.661297 201.275 0.696886 201.39 0.755924 201.494C8.86606 215.441 18.2249 226.947 28.9942 235.928C29.0905 236.007 29.1661 236.109 29.2147 236.224C29.2632 236.339 29.2832 236.464 29.2729 236.589C29.2627 236.713 29.2225 236.833 29.1558 236.939C29.0891 237.044 28.9979 237.132 28.8899 237.195C24.5766 239.774 20.5806 242.849 16.9835 246.358C16.9075 246.434 16.8473 246.524 16.8062 246.623C16.7651 246.722 16.744 246.828 16.7441 246.936C16.7442 247.043 16.7654 247.149 16.8067 247.248C16.8479 247.347 16.9082 247.437 16.9843 247.513C30.6457 260.953 45.6165 272.993 61.6733 283.454C61.7821 283.524 61.8722 283.62 61.936 283.732C61.9998 283.845 62.0354 283.971 62.0397 284.101C62.0451 284.23 62.0191 284.359 61.9639 284.476C61.9087 284.593 61.8259 284.695 61.7227 284.774C55.7654 289.383 50.5183 294.166 46.0168 299.548C45.882 299.71 45.8157 299.918 45.8319 300.128C45.848 300.337 45.9454 300.533 46.1033 300.672C57.8164 311.038 71.2271 319.436 86.7955 325.791C86.9277 325.844 87.0432 325.932 87.13 326.045C87.2167 326.158 87.2716 326.292 87.2889 326.433C87.3068 326.574 87.2867 326.718 87.2305 326.849C87.1743 326.98 87.0842 327.093 86.9694 327.177C81.4319 331.34 76.9312 335.944 72.7896 340.928C72.7126 341.02 72.6576 341.129 72.6287 341.245C72.5986 341.362 72.5952 341.484 72.6188 341.602C72.6423 341.72 72.6921 341.831 72.7645 341.927C72.8364 342.024 72.929 342.103 73.0355 342.158C84.1614 347.876 97.6651 351.572 111.672 354.107C112.308 354.223 112.359 355.102 111.741 355.294C93.8543 360.829 77.4253 367.981 61.6968 376.739C61.579 376.805 61.4795 376.899 61.4075 377.012C61.3354 377.126 61.2931 377.257 61.2843 377.391C61.2756 377.526 61.3006 377.66 61.3573 377.782C61.414 377.905 61.5004 378.011 61.6087 378.091C73.1374 386.654 84.8941 394.118 98.575 399.452C98.7059 399.501 98.8214 399.584 98.9096 399.692C98.9979 399.801 99.0557 399.931 99.0772 400.069C99.0991 400.207 99.0842 400.348 99.0341 400.479C98.984 400.609 98.9004 400.724 98.7917 400.812C80.095 416.051 64.8064 433.594 51.4532 452.677C51.0537 453.248 51.5316 454.03 52.2239 453.941C71.2781 451.518 89.0099 448.541 104.289 444.353C104.432 444.312 104.584 444.314 104.727 444.358C104.869 444.403 104.995 444.488 105.09 444.603C105.184 444.719 105.243 444.859 105.258 445.008C105.274 445.156 105.245 445.306 105.177 445.438C101.904 451.97 98.9527 458.922 96.2595 466.215C96.0517 466.778 96.5183 467.37 97.1143 467.305C114.295 465.443 129.911 463.262 142.37 460.436C143.067 460.277 143.588 461.043 143.195 461.641C137.925 469.669 134.19 478.358 131.189 487.903C131.007 488.484 131.521 489.057 132.118 488.943C162.237 483.191 189.647 474.573 213.962 462.903C214.618 462.588 215.37 463.04 215.419 463.767C216.884 485.364 225.07 500.382 236.277 512.449C236.692 512.897 237.395 512.919 237.843 512.505L253.578 497.98C254.055 497.539 254.1 496.805 253.673 496.317C250.561 492.758 236.239 476.505 238.773 464.149C239.075 462.677 240.709 461.89 242.078 462.509C260.22 470.716 297.819 483.25 327.343 488.95C327.925 489.063 328.416 488.501 328.238 487.934C325.236 478.377 321.499 469.678 316.222 461.641C315.83 461.043 316.351 460.277 317.048 460.436C329.507 463.262 345.122 465.443 362.303 467.305C362.441 467.319 362.58 467.299 362.708 467.245C362.835 467.19 362.947 467.105 363.032 466.996C363.118 466.887 363.174 466.758 363.196 466.621C363.218 466.485 363.205 466.344 363.158 466.214C360.465 458.922 357.514 451.97 354.242 445.438C354.173 445.306 354.145 445.156 354.16 445.008C354.176 444.86 354.234 444.719 354.328 444.604C354.423 444.488 354.549 444.403 354.691 444.359C354.833 444.314 354.986 444.312 355.129 444.353C370.408 448.541 388.139 451.518 407.194 453.941C407.885 454.03 408.364 453.248 407.964 452.676C394.611 433.595 379.323 416.051 360.626 400.811C360.518 400.723 360.435 400.608 360.385 400.478C360.335 400.348 360.32 400.207 360.341 400.069C360.363 399.931 360.421 399.801 360.509 399.693C360.597 399.584 360.712 399.501 360.843 399.452C374.523 394.118 386.279 386.654 397.809 378.091C397.917 378.011 398.003 377.905 398.06 377.782C398.116 377.66 398.141 377.525 398.132 377.391C398.123 377.256 398.081 377.126 398.01 377.012C397.938 376.898 397.838 376.804 397.721 376.739C381.993 367.981 365.563 360.829 347.677 355.294C347.058 355.103 347.109 354.223 347.747 354.107C361.753 351.572 375.256 347.876 386.382 342.158C386.489 342.103 386.582 342.024 386.654 341.928C386.727 341.831 386.776 341.72 386.8 341.602C386.823 341.484 386.82 341.362 386.79 341.245C386.761 341.129 386.705 341.02 386.628 340.928C382.486 335.943 377.986 331.34 372.447 327.177C372.333 327.093 372.243 326.979 372.187 326.848C372.131 326.717 372.111 326.574 372.129 326.432C372.147 326.291 372.202 326.158 372.288 326.045C372.375 325.932 372.49 325.844 372.622 325.791C388.191 319.436 401.601 311.038 413.314 300.671C413.64 300.384 413.679 299.881 413.4 299.548C408.899 294.166 403.652 289.382 397.694 284.774C397.592 284.695 397.51 284.593 397.455 284.476C397.4 284.359 397.374 284.23 397.378 284.101C397.383 283.972 397.419 283.846 397.482 283.733C397.546 283.62 397.635 283.525 397.743 283.454C413.801 272.993 428.772 260.953 442.433 247.513C442.754 247.198 442.757 246.672 442.433 246.359C438.837 242.85 434.841 239.774 430.528 237.196C430.42 237.133 430.328 237.045 430.261 236.94C430.194 236.834 430.154 236.714 430.144 236.589C430.133 236.465 430.153 236.339 430.202 236.224C430.25 236.109 430.326 236.007 430.423 235.928C441.194 226.947 450.552 215.441 458.662 201.494Z" fill="#00205B"/>
<path d="M226.706 202.17C226.774 202.212 226.83 202.271 226.869 202.341C226.908 202.41 226.929 202.489 226.93 202.568C227.037 208.559 227.185 214.079 227.38 219.447C227.388 219.649 227.552 219.809 227.756 219.811L232.026 219.83H232.03C232.082 219.83 232.133 219.819 232.181 219.799C232.229 219.778 232.272 219.748 232.307 219.71C232.343 219.673 232.372 219.628 232.39 219.58C232.408 219.531 232.417 219.479 232.414 219.427C232.258 215.658 232.111 211.846 231.981 208.099C231.978 207.998 231.999 207.898 232.042 207.808C232.086 207.717 232.15 207.638 232.231 207.578C252.476 192.245 268.469 174.346 276.109 158.467L275.886 158.348C266.497 174.056 251.774 189.134 232.127 203.165C232.011 203.242 231.816 203.179 231.811 203.007C231.054 178.961 231.059 159.138 231.827 142.4C231.893 140.144 231.951 137.779 232.008 135.168C232.01 135.033 232.048 134.902 232.117 134.786C232.186 134.671 232.285 134.575 232.402 134.51C241.051 129.652 248.955 123.326 256.566 115.17L256.39 114.989C248.011 122.323 240.168 127.741 232.409 131.555C232.366 131.575 232.317 131.582 232.27 131.573C232.231 131.567 232.195 131.55 232.165 131.526C232.135 131.502 232.111 131.47 232.097 131.434C232.086 131.406 232.081 131.376 232.081 131.346C232.601 101.678 231.907 67.0536 230.468 50.8066L230.216 50.8188C230.361 68.3379 230.161 85.8586 229.615 103.37C229.614 103.41 229.596 103.449 229.567 103.476C229.537 103.504 229.498 103.519 229.457 103.518C229.457 103.518 229.384 103.51 229.347 103.47C222.214 95.9357 215.656 87.5352 209.858 78.5031L209.639 78.6292C214.439 87.8587 220.798 97.1908 229.081 107.16C229.34 107.472 229.476 107.866 229.461 108.272C229.075 119.491 228.542 130.704 227.862 141.909C227.678 145.647 227.514 149.6 227.347 154.352C227.341 154.514 227.16 154.576 227.053 154.503C217.931 148.025 209.537 139.125 202.78 128.766L202.562 128.895C208.555 140.15 216.665 149.728 226.671 157.362C227.023 157.63 227.224 158.052 227.211 158.49C226.81 171.56 226.692 184.636 226.855 197.711C226.855 197.741 226.844 197.771 226.823 197.793C226.804 197.81 226.78 197.822 226.755 197.826C226.729 197.829 226.703 197.824 226.68 197.812C208.729 186.854 193.861 172.652 182.492 155.598L182.278 155.73C192.496 173.812 208.691 190.738 226.706 202.17ZM97.2539 249.602C97.312 249.602 97.3695 249.59 97.4221 249.565L100.34 248.186C100.388 248.163 100.43 248.129 100.462 248.087C100.495 248.045 100.517 247.996 100.526 247.944C100.536 247.891 100.533 247.838 100.518 247.787C100.503 247.736 100.476 247.689 100.44 247.651C99.3715 246.537 98.2975 245.429 97.2175 244.327C96.9888 244.094 96.8591 243.781 96.8552 243.454C96.657 232.127 92.8769 222.081 85.62 213.595L85.4179 213.748C90.8987 222 93.5571 230.774 93.5434 240.568C93.5434 240.589 93.5223 240.595 93.5013 240.586C86.5566 233.666 78.9859 226.584 70.9995 219.535C70.8768 219.426 70.7812 219.29 70.7204 219.138C70.6596 218.986 70.6353 218.821 70.6493 218.658C71.3521 210.306 69.9343 202.419 66.4357 195.214L66.2028 195.311C68.6444 202.31 69.2429 209.342 68.0338 216.802L67.9109 216.847C59.0769 208.717 49.3226 199.062 38.0947 187.331L37.9062 187.5C47.3468 198.753 58.4962 210.625 71.9934 223.796C74.1701 225.83 76.3098 227.903 78.4117 230.015C77.086 230.113 75.7571 230.162 74.4277 230.161C65.1554 230.162 55.7739 227.843 45.7495 223.072L45.629 223.293C56.2269 229.772 67.3884 232.921 79.7526 232.921C80.1683 232.921 80.5856 232.917 81.0174 232.909C81.2091 232.909 81.3887 232.984 81.5197 233.117C86.0001 237.674 91.0508 243.025 96.9595 249.473C97.0355 249.556 97.1423 249.602 97.2539 249.602ZM389.673 220.012C399.92 209.652 409.63 199.124 418.533 188.723L418.347 188.552C407.799 199.152 397.053 209.633 385.497 220.592C385.477 220.611 385.451 220.621 385.424 220.621C385.381 220.621 385.327 220.593 385.319 220.533C384.225 213.172 384.467 205.139 386.022 197.299L385.779 197.231C383.024 204.839 382.028 213.094 382.736 222.472C382.763 222.824 382.62 223.175 382.357 223.412C373.593 231.233 365.325 239.148 357.784 246.938C357.729 246.993 357.696 247.066 357.691 247.143C357.686 247.22 357.708 247.297 357.754 247.359C357.785 247.4 357.825 247.433 357.87 247.456L360.841 248.987C360.931 249.034 361.033 249.049 361.132 249.031C361.232 249.013 361.322 248.963 361.39 248.889C364.491 245.491 367.637 242.134 370.825 238.817C370.959 238.679 371.119 238.569 371.296 238.492C371.473 238.416 371.664 238.376 371.857 238.374C384.29 238.227 394.964 235.324 404.489 229.499L404.372 229.275C395.102 233.367 386.81 235.273 378.276 235.273C377.048 235.273 375.82 235.234 374.593 235.156C374.573 235.155 374.553 235.147 374.536 235.135C374.519 235.123 374.507 235.105 374.5 235.086C374.492 235.068 374.489 235.048 374.493 235.028C374.497 235.009 374.506 234.991 374.52 234.977C379.477 229.894 384.529 224.905 389.673 220.012ZM240.652 428.669C231.863 428.669 223.519 431.079 219.476 437.019C219.429 437.089 219.344 437.113 219.274 437.067C216.625 435.339 207.907 430.062 197.75 430.062C192.284 430.062 186.326 432.715 180.308 436.12C180.236 436.161 180.152 436.177 180.07 436.165C164.071 433.808 148.734 436.907 133.728 442.739C149.406 438.77 164.184 436.239 175.936 438.536C175.952 438.539 175.967 438.547 175.978 438.558C175.989 438.57 175.996 438.585 175.999 438.6C176.002 438.616 175.999 438.633 175.993 438.647C175.986 438.662 175.975 438.674 175.961 438.682C168.991 442.918 162.085 447.553 155.92 449.645C168.64 448.17 185.232 433.712 198.1 433.712C206.678 433.712 215.318 439.062 217.597 440.581C217.67 440.629 217.694 440.714 217.669 440.798C217.042 442.817 216.795 445.118 217.016 447.732C221.208 436.131 229.71 433.456 241.359 433.456C250.318 433.456 259.292 436.646 269.767 439.03C269.866 439.052 269.958 439.098 270.034 439.164C276.435 444.733 288.192 450.301 293.803 451.242L296.212 451.646L293.938 450.757C289.134 448.88 280.621 444.644 276.347 440.486C276.295 440.435 276.343 440.35 276.415 440.362C280.776 441.099 285.414 441.587 290.42 441.587C309.065 441.587 317.458 438.258 322.732 436.091C317.126 437.28 311.79 438.98 293.067 438.98C276.002 438.98 254.556 428.669 240.652 428.669ZM110.626 273.796C113.776 272.203 116.943 270.642 120.125 269.114L116.426 261.973C107.14 266.431 97.9893 271.169 88.9877 276.178L92.6853 283.32C95.7699 281.604 98.8719 279.919 101.991 278.266L102.556 277.967L121.051 313.691C123.541 312.376 126.041 311.082 128.552 309.809L110.056 274.084L110.627 273.795L110.626 273.796ZM148.068 300.612C149.108 300.612 150.144 300.434 151.145 300.081C154.864 298.77 158.599 297.503 162.348 296.281C164.701 295.513 166.595 293.895 167.683 291.724C168.751 289.591 168.912 287.158 168.137 284.872L158.516 256.505C157.243 252.749 153.591 250.127 149.636 250.127C148.683 250.127 147.737 250.278 146.832 250.573C143.092 251.793 139.367 253.056 135.657 254.363C130.891 256.041 128.348 261.341 129.99 266.178L139.611 294.545C140.209 296.314 141.346 297.851 142.864 298.939C144.381 300.027 146.201 300.612 148.068 300.612ZM141.228 260.938C142.952 260.343 144.678 259.758 146.409 259.181C147.329 258.878 148.331 258.951 149.198 259.383C150.065 259.815 150.726 260.571 151.038 261.488L159.032 285.062C159.186 285.514 159.249 285.991 159.218 286.466C159.186 286.942 159.06 287.407 158.847 287.833C158.635 288.263 158.339 288.645 157.977 288.959C157.615 289.274 157.195 289.513 156.74 289.663C155.012 290.237 153.29 290.822 151.57 291.416C151.188 291.548 150.786 291.616 150.381 291.616H150.38C149.623 291.616 148.886 291.379 148.271 290.938C147.656 290.498 147.194 289.875 146.952 289.159L138.958 265.585C138.31 263.678 139.328 261.593 141.228 260.938ZM236.653 285.976C241.829 285.976 245.799 282.046 245.799 277.031V247.076C245.799 241.969 241.69 237.766 236.638 237.707C232.705 237.66 228.771 237.66 224.838 237.707C219.785 237.764 215.676 241.967 215.676 247.076V277.031C215.676 282.047 219.644 285.977 224.71 285.977C225.682 285.972 230.182 285.901 236.653 285.976ZM224.36 249.394C224.359 247.38 225.994 245.733 228.002 245.722C229.826 245.713 231.65 245.713 233.474 245.722C235.481 245.735 237.115 247.382 237.115 249.394V274.288C237.112 275.249 236.729 276.17 236.048 276.848C235.368 277.527 234.446 277.908 233.484 277.907C231.659 277.898 229.834 277.898 228.009 277.907C225.989 277.907 224.36 276.284 224.36 274.288V249.394ZM222.267 400.32H235.205L237.216 408.21H245.761L234.397 366.225H223.075L211.711 408.21H220.257L222.267 400.32ZM228.736 374.936L233.194 392.429H224.278L228.736 374.936ZM250.809 332.591V319.462C250.809 314.879 247.092 311.175 242.51 311.175H224.38V353.159H232.609V340.89H242.51C247.092 340.89 250.808 337.174 250.808 332.592L250.809 332.591ZM242.588 330.448C242.588 330.783 242.522 331.115 242.394 331.424C242.266 331.733 242.078 332.015 241.841 332.252C241.604 332.488 241.323 332.676 241.014 332.805C240.704 332.933 240.373 332.999 240.038 332.999H232.609V319.066H240.038C240.373 319.066 240.704 319.132 241.014 319.26C241.323 319.388 241.604 319.576 241.841 319.813C242.078 320.05 242.266 320.331 242.394 320.64C242.522 320.95 242.588 321.281 242.588 321.616V330.448ZM139.874 366.226V408.21H164.45V400.319H148.187V366.226H139.874ZM171.185 311.175H164.644L155.529 332.219L146.416 311.175H139.873V353.159H148.104V333.788L155.529 350.595L162.955 333.789V353.158H171.185V311.175ZM188.108 289.889L185.801 275.597L186.419 275.489C187.587 275.287 188.757 275.089 189.93 274.896L190.32 274.831L190.549 275.153C193.597 279.437 196.639 283.726 199.676 288.018C202.411 287.61 205.165 287.223 207.884 286.865C204.894 282.603 201.899 278.346 198.898 274.093L198.445 273.451L199.166 273.145C201.008 272.368 202.536 270.995 203.504 269.246C204.473 267.497 204.827 265.474 204.509 263.5L202.039 248.207C201.313 243.719 197.365 240.334 192.854 240.334C192.403 240.334 191.948 240.369 191.5 240.437C185.013 241.412 178.547 242.519 172.105 243.759L179.801 291.412C182.565 290.88 185.335 290.373 188.108 289.889ZM182.312 250.069C184.841 249.631 187.374 249.214 189.909 248.817C191.897 248.505 193.772 249.914 194.087 251.857L195.748 262.145C195.826 262.615 195.809 263.096 195.698 263.56C195.588 264.024 195.387 264.461 195.106 264.846C194.825 265.234 194.47 265.562 194.062 265.811C193.653 266.06 193.199 266.226 192.726 266.299C190.197 266.694 187.671 267.111 185.149 267.547L184.518 267.655L181.695 250.175L182.312 250.069ZM205.266 353.159H213.726L203.387 311.175H192.178L181.839 353.159H190.299L192.074 345.269H203.49L205.266 353.159ZM193.848 337.379L197.782 319.886L201.717 337.379H193.848ZM282.097 374.116V366.225H255.766V408.21H264.079V391.162H276.922V383.273H264.079V374.116H282.097ZM262.354 239.29L254.299 286.883C257.065 287.266 259.87 287.677 262.654 288.11L267.279 260.77L268.087 263.128C271.226 272.288 274.338 281.457 277.421 290.636C279.617 291.046 281.81 291.47 284 291.909L292.053 244.316C289.294 243.763 286.53 243.233 283.762 242.727L279.134 270.079L278.33 267.691C275.247 258.536 272.135 249.39 268.996 240.255C266.784 239.918 264.57 239.597 262.354 239.29ZM301.404 408.21H313.221C317.849 408.21 321.602 404.495 321.602 399.912V393.902C321.602 390.787 320.394 387.935 317.594 386.515C317.594 386.515 302.885 379.971 302.685 379.862C301.984 379.485 301.305 378.549 301.305 377.6V376.673C301.305 375.261 302.461 374.116 303.887 374.116H310.71C312.134 374.116 313.289 375.259 313.289 376.669V378.422H321.602V374.523C321.602 369.941 317.849 366.225 313.221 366.225H301.404C296.775 366.225 293.023 369.941 293.023 374.523V378.849C293.023 381.963 294.23 384.816 297.031 386.235C297.031 386.235 311.74 392.78 311.94 392.888C312.64 393.266 313.32 394.202 313.32 395.151V397.763C313.32 399.175 312.164 400.319 310.738 400.319H303.914C302.491 400.319 301.336 399.176 301.336 397.767V395.987H293.022V399.913C293.022 404.495 296.775 408.21 301.404 408.21ZM321.601 345.268H305.588V336.113H316.478V328.223H305.587V319.066H321.6V311.176H297.357V353.16H321.6L321.601 345.268ZM286.704 345.268H271.516V311.175H263.285V353.159H286.704V345.268ZM308.147 299.305L320.964 261.173L321.569 261.383C324.904 262.539 328.227 263.729 331.538 264.954L334.1 257.33C324.438 253.756 314.67 250.474 304.81 247.486L302.248 255.11C305.626 256.134 308.994 257.192 312.35 258.285L312.959 258.482L300.142 296.615C302.818 297.49 305.486 298.387 308.147 299.305ZM201.706 374.116V366.225H175.375V408.21H201.706V400.319H183.688V391.162H196.531V383.273H183.688V374.116H201.706ZM363.898 271.509C360.424 269.662 356.928 267.856 353.411 266.092C352.149 265.456 350.754 265.126 349.34 265.129C345.852 265.129 342.568 267.124 340.973 270.211L327.223 296.823C326.115 298.968 325.911 301.398 326.648 303.668C327.399 305.977 329.03 307.86 331.242 308.97C334.767 310.738 338.27 312.548 341.751 314.4C343.079 315.108 344.559 315.48 346.064 315.485C349.409 315.485 352.443 313.632 353.984 310.65L367.734 284.039C370.08 279.502 368.359 273.881 363.898 271.509ZM358.955 282.111L347.528 304.227C347.224 304.818 346.763 305.313 346.195 305.658C345.628 306.003 344.977 306.185 344.313 306.185C343.731 306.185 343.148 306.041 342.626 305.769C341.014 304.925 339.397 304.089 337.776 303.263C337.35 303.046 336.971 302.748 336.66 302.385C336.35 302.022 336.115 301.601 335.968 301.146C335.821 300.691 335.766 300.212 335.805 299.736C335.845 299.26 335.978 298.796 336.197 298.372L347.623 276.257C348.066 275.395 348.833 274.743 349.755 274.445C350.678 274.147 351.681 274.226 352.545 274.666C354.169 275.495 355.789 276.332 357.405 277.178C359.184 278.111 359.879 280.324 358.955 282.111Z" fill="white"/>
</g>
<defs>
<clipPath id="clip0_2_15043">
<rect width="458.122" height="512" fill="white" transform="translate(0.647461 0.800781)"/>
</clipPath>
</defs>
</svg>
