<svg width="460" height="513" viewBox="0 0 460 513" fill="none" xmlns="http://www.w3.org/2000/svg">
<g clip-path="url(#clip0_795_5329)">
<path d="M0.274177 0.574219V9.73891C0.245772 14.7621 0.217367 19.9161 0.194642 25.2294C0.120789 45.2942 -0.00419669 68.0321 0.586636 92.0843C1.60356 133.237 4.20546 180.959 15.8123 222.802C30.2311 274.774 51.4153 320.566 80.6219 362.859C115.748 413.734 163.997 462.68 224.042 508.353L229.587 512.574L235.137 508.353C295.168 462.695 343.415 413.74 378.548 362.867C407.755 320.571 428.956 274.759 443.363 222.811C455.6 178.671 457.924 129.716 458.583 92.0225C458.872 75.7641 458.821 60.4554 458.776 45.6526C458.73 33.0408 458.696 21.1281 458.872 9.93223L459.026 0.579515H449.703H9.42362L0.274177 0.574219Z" fill="white"/>
<path d="M229.582 501.039C165.909 452.605 120.51 404.484 88.1749 357.637C55.4294 310.232 36.7389 263.969 24.6435 220.352C13.4856 180.109 10.81 134.525 9.77626 91.868C9.03205 61.7168 9.38996 34.1098 9.44676 9.76709H449.726C449.34 34.1036 449.965 61.6948 449.437 91.845C448.692 134.511 445.704 180.09 434.546 220.329C422.452 263.934 403.767 310.21 371.026 357.623C338.65 404.487 293.257 452.603 229.582 501.039Z" fill="#D30029"/>
<path d="M18.5727 18.9663C20.4475 135.622 -6.3049 310.52 229.585 489.957C465.473 310.547 438.726 135.648 440.597 18.9928H18.5727V18.9663Z" fill="white"/>
<path d="M318.899 256.924L324.938 256.196C325.033 257.518 325.584 258.767 326.495 259.729C327.356 260.55 328.513 260.988 329.702 260.942C330.891 260.896 332.011 260.37 332.806 259.484C333.736 258.373 334.208 256.949 334.124 255.502C334.197 254.142 333.746 252.806 332.863 251.77C332.084 250.883 330.958 250.38 329.778 250.393C328.815 250.421 327.86 250.578 326.938 250.86L327.625 245.768C329.33 245.814 330.596 245.45 331.488 244.67C332.376 243.89 332.864 242.751 332.818 241.57C332.887 240.599 332.534 239.646 331.849 238.956C331.164 238.265 330.214 237.905 329.244 237.969C328.218 237.958 327.232 238.369 326.517 239.107C325.695 239.993 325.209 241.141 325.142 242.349L319.393 241.371C319.678 239.692 320.295 238.087 321.205 236.649C322.056 235.433 323.22 234.472 324.574 233.867C326.096 233.179 327.751 232.835 329.42 232.86C332.492 232.86 334.954 233.839 336.806 235.796C338.256 237.226 339.074 239.178 339.078 241.217C339.078 244.073 337.516 246.348 334.391 248.044C336.155 248.38 337.742 249.334 338.868 250.734C339.994 252.168 340.583 253.951 340.532 255.775C340.574 258.544 339.441 261.201 337.413 263.085C333.177 266.939 326.773 267.142 322.302 263.563C320.346 261.871 319.123 259.484 318.893 256.907L318.899 256.924ZM308.105 244.408C308.105 242.395 307.633 240.83 306.713 239.715C305.957 238.694 304.772 238.08 303.503 238.054C302.397 238.045 301.348 238.549 300.663 239.419C299.905 240.337 299.527 241.829 299.527 243.896C299.527 245.963 299.941 247.509 300.771 248.533C301.518 249.457 302.638 249.999 303.825 250.01C305.012 250.021 306.142 249.5 306.906 248.59C307.724 247.64 308.145 246.246 308.145 244.408H308.105ZM293.982 258.062L300.021 257.396C300.071 258.411 300.473 259.376 301.157 260.127C301.828 260.74 302.715 261.059 303.622 261.014C304.942 260.999 306.169 260.335 306.906 259.239C307.807 258.052 308.385 255.587 308.639 251.844C307.195 253.605 305.028 254.61 302.753 254.574C300.222 254.589 297.808 253.508 296.129 251.611C294.27 249.631 293.342 247.056 293.345 243.885C293.345 240.586 294.324 237.931 296.282 235.921C298.409 233.845 301.303 232.751 304.269 232.903C307.235 233.055 310.003 234.44 311.905 236.723C314.019 239.279 315.075 243.483 315.075 249.335C315.075 255.285 313.973 259.58 311.769 262.22C309.674 264.821 306.487 266.294 303.151 266.202C300.617 266.202 298.555 265.52 296.987 264.166C295.419 262.812 294.408 260.787 293.965 258.09L293.982 258.062ZM148.319 255.684C148.232 257.145 148.706 258.583 149.643 259.706C150.482 260.637 151.686 261.155 152.938 261.122C154.155 261.151 155.323 260.641 156.131 259.729C156.979 258.803 157.401 257.466 157.398 255.718C157.462 254.37 156.999 253.05 156.108 252.037C155.275 251.121 154.084 250.614 152.847 250.649C151.516 250.555 150.23 251.149 149.438 252.225C148.709 253.214 148.311 254.409 148.302 255.638L148.319 255.684ZM148.888 241.729C148.825 242.802 149.205 243.852 149.939 244.636C150.694 245.355 151.71 245.733 152.751 245.683C153.802 245.733 154.828 245.351 155.591 244.625C156.334 243.839 156.718 242.781 156.654 241.701C156.719 240.66 156.336 239.642 155.602 238.902C154.868 238.163 153.853 237.774 152.813 237.833C151.761 237.789 150.736 238.175 149.973 238.902C149.239 239.661 148.854 240.692 148.91 241.746L148.888 241.729ZM147.598 248.016C144.778 246.996 142.921 244.288 142.985 241.286C142.921 239.002 143.847 236.804 145.524 235.255C147.217 233.674 149.626 232.883 152.751 232.883C155.875 232.883 158.274 233.674 159.949 235.255C161.64 236.796 162.577 238.997 162.516 241.286C162.536 242.718 162.125 244.124 161.335 245.319C160.52 246.522 159.37 247.46 158.028 248.016C159.692 248.633 161.128 249.742 162.147 251.196C163.095 252.617 163.588 254.294 163.562 256.003C163.668 258.742 162.626 261.401 160.687 263.336C158.771 265.232 156.222 266.18 153.04 266.18C150.383 266.277 147.774 265.451 145.655 263.842C143.314 261.987 142.144 259.459 142.144 256.259C142.129 254.551 142.583 252.872 143.456 251.406C144.425 249.851 145.873 248.653 147.581 247.993L147.598 248.016ZM132.924 265.6H126.675V242.037C124.369 244.188 121.619 245.804 118.619 246.77V241.081C120.544 240.377 122.336 239.352 123.92 238.049C125.701 236.723 127.067 234.915 127.857 232.838H132.907V265.554L132.924 265.6Z" fill="#D30029"/>
<path d="M344.437 38.3027C327.354 31.1518 309.249 31.5444 296.022 39.1901C284.353 45.9371 276.469 58.3272 276.366 76.1676C276.134 79.9778 275.234 83.7174 273.707 87.2152L273.605 87.0786C267.828 96.6414 258.192 106.199 247.393 105.385C245.461 95.7428 239.104 82.596 232.997 74.2046C239.57 74.5459 250.358 81.4749 252.693 86.4642C258.096 80.5877 265.759 65.9845 264.015 54.1689C253.278 54.1689 242.841 51.6658 232.105 47.0636C232.105 54.2997 219.516 71.7417 210.795 75.684C215.164 82.1693 218.834 96.2609 218.658 108.884C212.192 114.186 203.671 115.142 196.802 115.028C191.542 106.842 184.452 100.806 184.356 90.5318C184.259 79.8709 194.763 64.5393 206.074 54.6013L200.455 47.5814C193.377 50.0276 187.326 54.1065 181.98 59.4649L181.691 59.0553C175.237 49.6911 164.142 32.8871 148.047 29.041C143.434 30.6338 137.106 40.3217 132.396 50.2376C115.057 53.7874 101.286 66.3601 95.5599 76.9751C89.5835 71.9746 85.2945 66.7352 84.982 60.1305C84.1355 42.0969 107.616 45.055 119.12 50.2323L119.216 37.1482C102.099 29.9916 84.0219 30.3842 70.7966 38.0299C59.1337 44.7769 51.2534 57.167 51.1404 75.0012C51.1404 87.1699 43.6415 96.949 27.9047 102.102C34.7504 105.106 44.1808 102.808 56.7706 99.0589C50.635 107.683 43.2328 112.143 27.8765 115.443C37.4719 118.754 52.3621 117.44 65.8602 113.036C62.3664 120.642 50.7997 127.202 29.0867 129.739C48.0446 136.065 57.2022 134.017 76.7339 128.209C104.054 120.085 121.796 142.351 89.9195 150.082C82.182 151.959 72.7113 148.484 63.1846 144.501L54.095 155.606C66.5647 162.086 87.9713 167.143 98.1344 166.95C129.346 166.381 142.23 141.64 134.453 116.78C129.499 100.942 115.502 91.6574 103.651 83.1363C114.081 68.9143 151.593 52.5243 164.938 85.6848C158.956 99.8388 156.269 114.954 156.843 126.076C157.871 145.987 178.317 164.589 165.307 174.596C162.143 176.832 153.946 180.165 147.697 182.162C120.564 180.575 104.145 166.632 83.421 165.665C67.8891 164.925 55.5324 166.29 47.5735 177.981C36.2911 194.564 46.4884 222.308 71.3203 222.797C71.593 212.938 74.0188 207.676 75.8254 204.058C68.1957 204.058 51.3627 205.361 51.3971 194.347C51.3971 188.738 56.1635 186.923 61.5832 186.798C88.7956 186.189 112.667 221.926 144.794 224.082C145.01 208.154 168.529 189.483 186.771 202.192C195.571 189.267 194.111 178.003 188.532 168.861C198.014 158.371 202.217 146.419 202.411 133.75C202.47 130.874 202.139 128.003 201.428 125.217C207.302 124.358 214.733 122.452 218.704 119.607V234.568C224.044 233.823 225.567 232.912 230.487 228.97V210.112C235.884 209.435 241.849 209.185 247.53 204.423V115.919C257.62 115.464 272.714 110.258 282.235 99.5464L282.395 99.5009C279.526 109.906 271.396 119.332 256.04 122.643C267.453 126.318 281.252 121.801 291.831 114.195C289.064 121.801 277.855 134.407 257.234 136.951C276.197 143.277 283.894 136.604 303.426 130.795C330.751 122.672 347.039 143.516 315.163 151.275C307.425 153.152 297.955 149.676 288.417 145.677L279.327 156.799C291.791 163.273 313.192 168.296 323.378 168.103C353.572 167.534 366.61 144.38 360.384 120.362C387.29 122.296 408.878 167.46 386.375 179.309C377.286 184.093 369.406 182.654 360.401 180.828C340.517 176.795 325.701 167.653 308.647 166.839C293.098 166.117 280.769 167.425 272.816 179.115C261.499 195.699 271.68 223.443 296.528 223.932C296.807 214.067 299.227 208.811 301.039 205.193C293.404 205.193 276.571 206.49 276.611 195.476C276.611 189.867 281.377 188.052 286.797 187.933C314.009 187.324 337.88 223.061 370.012 225.218C370.228 209.289 393.748 190.618 411.99 203.321C421.005 190.072 419.239 178.564 413.319 169.302C423.193 156.383 429.277 143.099 427.556 131.983C426.267 113.209 409.741 107.407 409.592 91.6834C409.479 81.0225 419.955 65.6856 431.317 55.7529L425.692 48.7386C418.708 51.2022 412.283 55.033 406.792 60.0078C400.315 50.6039 389.266 34.0329 373.274 30.1929C368.655 31.7915 362.327 41.4798 357.617 51.3895C340.284 54.945 326.558 67.2101 320.832 77.8366C313.867 72.0055 304.749 59.8939 313.566 51.4063C320.349 44.8755 335.722 47.5095 344.345 51.4063L344.442 38.3222L344.437 38.3027ZM355.231 104.862C348.686 94.5249 336.915 87.4082 327.837 81.8054C333.87 73.568 349.993 63.5669 364.263 63.9024C384.715 64.3916 401.133 88.4834 381.591 103.007C377.097 106.352 369.66 106.506 355.231 104.862Z" fill="#D30029"/>
<path d="M229.582 478.865C146.985 416.043 98.1762 353.806 68.9043 293.488C144.945 291.127 194.784 269.361 229.582 242.823C271.111 271.586 326.225 295.109 390.269 293.454C360.989 353.756 312.183 416.015 229.582 478.849V478.865Z" fill="black"/>
<path d="M229.582 467.777C154.74 410.866 112.6 356.666 84.9351 302.589C141.178 297.952 191.65 282.348 229.582 254.473C267.526 282.348 317.998 297.936 374.238 302.577C346.543 356.621 304.43 410.858 229.582 467.777Z" fill="#FFDC00"/>
<path d="M201.158 402.851C203.684 402.514 206.262 402.195 208.89 401.895C201.158 386.962 211.509 374.31 225.313 374.02C214.815 384.05 215.116 394.977 222.734 400.536C227.722 400.132 228.847 399.967 233.972 399.734C225.013 386.28 234.892 374.567 248.51 372.996C241.925 379.567 238.55 391.77 246.629 399.239C251.254 399.125 253.611 399.079 258.184 399.102C252.929 385.255 263.4 376.609 274.813 376.199C268.564 381.786 263.775 393.004 271.143 400.36C274.705 401.094 278.432 401.026 284.425 402.8C288.345 404.797 291.532 407.92 292.458 410.384C244.056 404.507 236.881 405.992 201.023 411.931C186.543 419.526 179.742 421.551 172.511 414.775C171.266 412.989 172.323 408.296 177.305 407.243C177.249 403.95 179.64 402.123 182.282 401.321C189.156 399.228 192.688 405.024 201.158 402.851ZM179.002 361.021C181.706 360.642 184.463 360.28 187.274 359.935C178.138 344.95 188.336 330.427 203.107 330.108C192.739 341.628 193.931 352.005 202.078 358.393C207.418 357.927 212.872 357.546 218.343 357.256C207.481 344.416 220.195 329.659 234.75 327.884C227.722 335.433 223.239 348.113 231.909 356.698C236.857 356.567 241.799 356.51 246.68 356.538C239.295 342.316 252.253 330.648 264.467 330.176C257.77 336.593 252.861 348.38 260.741 356.839C265.967 357.039 271.092 357.334 276.079 357.738C271.461 347.703 277.96 339.381 290.498 336.963C285.107 342.947 282.005 351.367 287.453 358.876C294.333 359.707 302.514 362.818 308.342 364.133C314.12 367.466 315.841 368.502 320.466 371.841C266.61 363.552 208.03 365.43 178.909 371.431C163.416 380.147 156.15 382.479 148.412 374.691C147.083 372.643 148.213 367.25 153.525 366.044C153.417 359.325 159.172 358.995 164.802 358.995C169.381 363.245 173.892 362.409 179.005 360.998L179.002 361.021ZM160.646 321.484C163.998 321.051 169.594 319.345 173.071 318.969C162.845 300.026 176.548 280.74 195.306 282.561C181.37 295.282 180.462 308.906 190.574 315.955C197.198 315.443 201.777 314.584 208.578 314.248C198.539 298.12 211.276 277.226 228.296 279.307C218.689 288.074 215.083 304.583 225.803 314.088C231.938 313.946 238.068 313.889 244.141 313.918C237.136 296.282 250.185 278.169 268.814 283.738C259.207 286.503 251.793 304.93 261.593 314.276C268.075 314.492 274.432 314.845 280.584 315.266C276.477 301.784 284.226 287.39 301.519 292.994C293.52 298.296 287.941 308.235 294.701 316.523C303.223 317.445 313.392 319.367 320.613 320.824C327.805 324.146 334.139 329.488 336.963 331.064C270.159 321.916 205.99 322.894 161.79 331.923C142.571 341.543 132.249 343.682 122.654 335.086C121.006 332.81 122.404 326.871 129.011 325.534C128.88 318.139 136.016 317.752 143.003 317.752C148.684 322.451 154.292 323.037 160.66 321.478L160.646 321.484Z" fill="black"/>
</g>
<defs>
<clipPath id="clip0_795_5329">
<rect width="458.895" height="512" fill="white" transform="translate(0.130371 0.574219)"/>
</clipPath>
</defs>
</svg>
