<svg width="1025" height="220" viewBox="0 0 1025 220" fill="none" xmlns="http://www.w3.org/2000/svg">
<g clip-path="url(#clip0_755_259)">
<path d="M103.959 115.46H0.103027V219.194H103.838V115.46H103.959Z" fill="#00A4EF"/>
<path d="M218.492 115.46H114.878V219.194H218.613V115.46H218.492Z" fill="#FFB900"/>
<path d="M218.492 0.805664H114.878V104.54H218.613V0.805664H218.492Z" fill="#7FBA00"/>
<path d="M103.959 0.805664H0.103027V104.54H103.838V0.805664H103.959Z" fill="#F25022"/>
<path d="M425.961 44.4835V175.517H403.273V72.6314H403.03L362.386 175.517H347.098L305.483 72.6314H305.241V175.517H284.251V44.4835H317.009L354.621 141.545H355.227L395.023 44.4835H425.961ZM444.888 54.4323C444.888 50.7925 446.101 47.7593 448.77 45.3328C451.561 42.9063 454.594 41.693 458.234 41.693C462.116 41.693 465.514 42.9063 467.94 45.3328C470.367 47.7593 471.823 50.7925 471.823 54.4323C471.823 58.0721 470.609 61.1053 467.94 63.5318C465.15 65.9584 462.116 67.1717 458.234 67.1717C454.23 67.1717 451.197 65.9584 448.77 63.5318C446.344 60.8627 444.888 57.8295 444.888 54.4323ZM469.396 81.4882V175.517H447.314V81.4882H469.396ZM536.49 159.38C539.766 159.38 543.405 158.895 547.409 156.954C551.292 155.498 554.932 153.314 558.329 150.887V171.513C554.689 173.697 550.685 175.153 546.196 176.123C541.586 177.094 536.733 177.701 531.273 177.701C525.077 178.011 518.885 177.024 513.094 174.801C507.302 172.579 502.039 169.172 497.641 164.797C493.243 160.422 489.808 155.176 487.556 149.396C485.303 143.616 484.284 137.429 484.562 131.232C484.562 116.066 489.172 103.57 497.908 93.8636C506.765 84.1574 519.14 79.3044 535.519 79.3044C543.283 79.463 550.927 81.2399 557.965 84.5214V105.754C551.964 100.832 544.491 98.0566 536.733 97.8674C527.997 97.8674 520.96 100.537 515.5 106.36C510.041 112.063 507.614 119.706 507.614 129.412C507.614 138.876 510.405 146.398 515.5 151.615C520.717 156.711 527.633 159.38 536.49 159.38ZM621.055 79.911C623.935 79.8129 626.81 80.2236 629.548 81.1243V103.57C628.334 102.72 626.879 101.75 624.452 101.143C622.025 100.537 619.599 99.9299 616.202 99.9299C610.742 99.9299 606.253 102.356 602.613 106.967C598.973 111.456 596.789 118.493 596.789 128.199V175.517H574.708V81.4882H596.789V96.2901H597.153C599.216 91.1944 602.249 87.1906 606.253 84.1574C610.663 81.3185 615.811 79.8416 621.055 79.911ZM630.761 130.019C630.761 114.489 635.371 102.114 643.864 93.0143C648.649 88.3304 654.356 84.6928 660.622 82.3326C666.888 79.9724 673.576 78.9411 680.262 79.3044C694.822 79.3044 706.348 83.5508 714.477 92.4077C722.727 101.143 726.973 113.033 726.973 127.835C726.973 143.001 722.363 155.134 713.87 164.233C709.19 168.889 703.589 172.513 697.424 174.874C691.26 177.235 684.671 178.281 678.078 177.943C663.519 177.943 651.993 173.697 643.5 165.204C639.16 160.47 635.799 154.924 633.613 148.885C631.426 142.846 630.457 136.434 630.761 130.019ZM653.813 129.048C653.813 138.755 655.997 146.398 660.486 151.615C662.912 154.242 665.888 156.3 669.202 157.642C672.516 158.985 676.086 159.578 679.656 159.38C687.542 159.38 693.851 156.954 698.097 151.615C702.344 146.398 704.528 138.876 704.528 128.563C704.528 118.493 702.344 110.849 698.097 105.511C695.865 102.889 693.068 100.807 689.916 99.4199C686.764 98.033 683.34 97.3778 679.898 97.5034C671.769 97.5034 665.703 100.294 661.093 105.754C655.997 111.456 653.813 119.1 653.813 129.048ZM759.974 106.36C759.974 109.393 760.945 112.063 763.007 113.883C765.191 115.702 769.438 117.886 776.353 120.556C785.21 124.195 791.519 128.199 794.916 132.446C798.556 137.056 800.376 142.152 800.376 148.582C800.376 157.318 796.979 164.355 790.063 169.814C783.39 175.274 773.927 177.579 762.401 177.579C753.791 177.4 745.285 175.674 737.286 172.483V150.645C741.169 153.314 745.779 155.862 750.268 157.318C754.879 158.895 759.125 159.744 763.007 159.744C767.86 159.744 771.864 159.138 773.927 157.682C776.353 156.104 777.567 154.042 777.567 150.645C777.567 147.611 776.353 145.185 773.927 142.758C771.5 140.696 766.647 138.148 759.974 135.479C753.354 133.147 747.428 129.182 742.746 123.953C739.349 119.706 737.529 114.247 737.529 107.574C737.529 99.0807 740.926 92.0437 747.599 86.584C755.072 80.8995 764.305 78.0223 773.684 78.4551C776.96 78.4551 780.6 78.6977 784.604 79.6683C788.486 80.5176 792.126 81.4882 794.916 82.3375V103.934C791.883 102.114 788.486 100.294 784.604 98.7167C780.92 97.3294 777.013 96.6303 773.078 96.6541C768.831 96.6541 765.434 97.5034 763.371 99.0807C762.318 99.9813 761.47 101.097 760.884 102.353C760.298 103.608 759.988 104.975 759.974 106.36ZM809.718 130.019C809.718 114.489 814.329 102.114 822.822 93.0143C827.607 88.3304 833.313 84.6928 839.579 82.3326C845.845 79.9724 852.534 78.9411 859.22 79.3044C873.779 79.3044 885.305 83.5508 893.434 92.4077C901.684 101.143 905.931 113.033 905.931 127.835C905.931 143.001 901.32 155.134 892.827 164.233C888.148 168.889 882.546 172.513 876.382 174.874C870.218 177.235 863.628 178.281 857.036 177.943C842.477 177.943 830.951 173.697 822.458 165.204C813.816 155.567 809.249 142.954 809.718 130.019ZM832.771 129.048C832.771 138.755 834.954 146.398 839.443 151.615C841.869 154.242 844.846 156.3 848.16 157.642C851.474 158.985 855.043 159.578 858.613 159.38C866.499 159.38 872.808 156.954 877.055 151.615C881.301 146.398 883.485 138.876 883.485 128.563C883.485 118.493 881.301 110.849 877.055 105.511C874.823 102.889 872.026 100.807 868.874 99.4199C865.722 98.033 862.297 97.3778 858.856 97.5034C850.727 97.5034 844.661 100.294 840.05 105.754C835.197 111.456 832.771 119.1 832.771 129.048ZM979.576 99.6873H946.575V175.517H924.13V99.6873H908.357V81.4882H924.13V68.3849C924.13 58.6788 927.406 50.5499 933.836 44.1195C940.145 37.8105 948.395 34.7773 958.344 34.7773L965.624 35.02C967.807 35.02 969.627 35.6266 971.083 36.2333V55.4029C969.82 54.8045 968.524 54.2779 967.201 53.8257C965.117 53.197 962.946 52.9102 960.77 52.9764C956.281 52.9764 952.642 54.4323 950.215 57.2228C947.789 59.892 946.575 64.5025 946.575 69.9622V81.1243H979.576V59.892L1001.78 53.2191V81.1243H1024.1V99.3233H1001.66V143.365C1001.66 149.067 1002.87 153.071 1004.69 155.498C1006.75 157.924 1010.15 159.138 1014.64 159.138C1015.85 159.138 1017.43 158.774 1019.25 158.167C1021.07 157.682 1022.53 156.954 1023.74 156.104V174.303C1018.36 176.218 1012.7 177.242 1007 177.337C997.654 177.337 990.738 174.91 986.128 170.057C981.639 165.204 979.212 157.682 979.212 147.611L979.455 99.6873H979.576Z" fill="#737373"/>
</g>
<defs>
<clipPath id="clip0_755_259">
<rect width="1024" height="218.389" fill="white" transform="translate(0.103027 0.805664)"/>
</clipPath>
</defs>
</svg>
