<svg width="343" height="512" viewBox="0 0 343 512" fill="none" xmlns="http://www.w3.org/2000/svg">
<g clip-path="url(#clip0_746_56)">
<path d="M171.524 256C171.524 233.368 180.514 211.663 196.517 195.66C212.521 179.657 234.225 170.667 256.857 170.667C279.489 170.667 301.194 179.657 317.197 195.66C333.2 211.663 342.191 233.368 342.191 256C342.191 278.632 333.2 300.337 317.197 316.34C301.194 332.343 279.489 341.333 256.857 341.333C234.225 341.333 212.521 332.343 196.517 316.34C180.514 300.337 171.524 278.632 171.524 256Z" fill="#1ABCFE"/>
<path d="M0.857178 426.667C0.857178 404.035 9.84763 382.33 25.8507 366.327C41.8538 350.324 63.5587 341.333 86.1905 341.333H171.524V426.667C171.524 449.299 162.533 471.003 146.53 487.006C130.527 503.01 108.822 512 86.1905 512C63.5587 512 41.8538 503.01 25.8507 487.006C9.84763 471.003 0.857178 449.299 0.857178 426.667Z" fill="#0ACF83"/>
<path d="M171.524 0V170.667H256.857C279.489 170.667 301.194 161.676 317.197 145.673C333.2 129.67 342.191 107.965 342.191 85.3333C342.191 62.7015 333.2 40.9967 317.197 24.9936C301.194 8.99045 279.489 0 256.857 0L171.524 0Z" fill="#FF7262"/>
<path d="M0.857178 85.3333C0.857178 107.965 9.84763 129.67 25.8507 145.673C41.8538 161.676 63.5587 170.667 86.1905 170.667H171.524V0H86.1905C63.5587 0 41.8538 8.99045 25.8507 24.9936C9.84763 40.9967 0.857178 62.7015 0.857178 85.3333Z" fill="#F24E1E"/>
<path d="M0.857178 256C0.857178 278.632 9.84763 300.337 25.8507 316.34C41.8538 332.343 63.5587 341.333 86.1905 341.333H171.524V170.667H86.1905C63.5587 170.667 41.8538 179.657 25.8507 195.66C9.84763 211.663 0.857178 233.368 0.857178 256Z" fill="#A259FF"/>
</g>
<defs>
<clipPath id="clip0_746_56">
<rect width="341.333" height="512" fill="white" transform="translate(0.857178)"/>
</clipPath>
</defs>
</svg>
