<svg width="1024" height="298" viewBox="0 0 1024 298" fill="none" xmlns="http://www.w3.org/2000/svg">
<g clip-path="url(#clip0_769_1297)">
<path fill-rule="evenodd" clip-rule="evenodd" d="M923.456 21.8854C882.11 5.74279 835.893 -0.429513 791.661 0.169891C749.693 0.733122 707.82 6.73491 666.519 13.7598C619.565 21.7485 572.962 31.6617 526.443 41.8362C445.469 59.5443 363.981 79.9422 281.133 86.8121C255.644 88.9254 229.804 89.8323 204.797 83.5179C180.194 77.3093 158.232 64.1638 138.93 48.011C139.054 54.3202 140.048 60.6967 141.641 66.794C144.76 78.7252 151.735 88.7291 159.231 98.3685C142.495 99.6707 125.648 100.585 108.887 99.2367C93.2182 97.9785 77.6636 94.4441 62.8229 89.3208C49.298 84.6573 35.4175 79.1128 24.0053 70.4653C16.1047 64.4765 7.179 56.1676 0 49.5198C0 65.267 8.23277 81.9884 17.0522 95.1004C29.1858 113.834 44.5587 131.088 61.6679 145.639C77.7337 159.304 95.6398 169.788 115.996 176.072C137.84 182.814 160.97 184.799 183.729 183.28C196.06 182.455 208.323 180.628 220.38 177.926C230.261 175.712 239.877 172.738 249.737 170.369C253.368 169.498 257.051 168.475 260.703 169.77C265.109 171.335 265.488 175.79 264.967 179.833C263.697 189.705 257.812 199.779 249.832 205.793C242.371 211.417 233.471 211.968 225.526 206.93C218.461 202.448 212.05 197.87 203.621 196.237C193.016 194.183 181.29 195.35 170.635 196.415C158.556 197.622 146.521 199.64 134.351 199.64C117.727 199.64 102.463 195.647 87.0514 189.865C76.0856 185.757 64.2868 180.352 53.635 175.496C67.9021 207.601 99.738 230.353 129.298 247.566C167.993 270.1 211.067 284.472 255.2 291.828C299.54 299.219 344.487 298.186 388.988 292.673C434.862 286.992 480.046 276.694 524.087 262.754C563.06 250.419 601.033 235.271 638.593 219.218C678.733 202.068 718.399 183.895 759.525 169.127C792.124 157.423 825.724 146.995 860.164 142.365C893.995 137.813 934.592 137.343 962.052 160.795C974.628 171.527 981.905 186.762 982.651 203.243C983.426 212.492 983.488 222.176 982.325 231.403C981.576 237.329 981.017 243.651 979.071 249.33C1021.09 212.152 1036.9 149.238 1012.4 97.6814C1000.03 71.6641 972.377 40.5236 923.456 21.8854Z" fill="white"/>
<path fill-rule="evenodd" clip-rule="evenodd" d="M825.1 10.9901C738.518 2.75091 589.716 37.9296 466.914 64.7942C368.483 86.3289 288.452 99.8851 234.723 97.8466C204.59 95.816 174.958 87.2227 151.227 67.9128C154.97 77.1957 173.224 103.35 181.013 106.236C149.599 108.806 117.297 112.421 86.1672 105.673C61.308 100.392 33.8352 91.3617 14.1953 73.1936C29.3502 101.288 52.5198 127.256 78.0668 146.39C123.747 180.61 187.267 179.518 239.48 162.747C240.444 162.44 251.054 159.37 256.603 159.37C270.027 159.846 279.801 169.176 272.116 190.888C265.691 207.22 252.567 219.973 237.422 220.207C217.318 220.207 215.945 204.321 192.961 205.065C152.735 204.005 126.916 221.677 72.9329 191.659C83.8832 202.465 147.274 271.63 283.05 285.875C317.65 289.482 356.478 286.509 374.563 284.621C492.293 272.306 584.104 232.436 665.111 197.257C733.831 166.447 816.28 134.369 877.979 130.966C929.769 126.812 969.975 143.461 985.55 175.513C992.517 189.844 994.146 206.22 990.643 223.205C1042.33 149.749 1019.53 25.7116 825.1 10.9901Z" fill="#E8262B"/>
<path fill-rule="evenodd" clip-rule="evenodd" d="M81.8369 149.211C81.9511 149.299 81.959 149.306 81.8369 149.211V149.211Z" fill="#E8262B"/>
<path fill-rule="evenodd" clip-rule="evenodd" d="M451.87 92.6772C478.748 85.3733 501.345 99.6324 510.107 119.751C511.227 122.239 512.438 122.779 513.674 122.789C516.124 122.815 532.275 119.955 537.713 113.305C537.713 113.305 543.181 133.297 519.524 145.254C519.524 145.254 516.19 146.874 516.17 150.403C516.149 153.764 514.385 170.888 513.466 175.612C513.057 177.72 511.314 182.237 515.475 182.409C518.921 182.549 529.167 180.042 535.576 162.489C535.779 161.395 535.628 162.562 535.628 162.562C530.884 201.272 506.787 230.09 482.634 237.854C465.753 243.28 468.006 232.233 470.923 225.444C480.971 199.371 481.191 186.517 482.678 169.953C484.23 152.688 480.076 101.622 451.87 92.6772ZM432.48 127.213C425.125 128.799 420.86 148.205 420.011 175.72C419.168 203.269 421.191 227.721 431.162 225.657C441.11 223.502 441.922 197.916 442.599 170.388C443.359 142.875 439.472 125.652 432.48 127.213ZM472.196 163.424C471.051 204.442 460.077 243.629 429.973 250.202C401.923 254.826 386.999 210.595 390.711 180.544C392.527 138.981 407.966 109.535 432.124 102.919C455.048 96.7154 473.223 122.671 472.196 163.424Z" fill="#F7EB1E"/>
<path fill-rule="evenodd" clip-rule="evenodd" d="M423.777 88.2905C400.311 103.165 382.78 140.743 380.67 180.118C380.244 188.12 376.688 245.228 419.009 264.202C391.316 268.527 361.16 272.204 346.347 272.697C346.347 272.697 350.65 258.745 351.552 235.146C352.295 215.666 349.283 199.435 342.153 200.479C336.874 201.26 330.745 219.718 330.313 235.945C329.738 257.374 334.426 273.216 334.426 273.216C317.844 273.648 287.781 274.138 249.736 266.729C254.842 265.923 297.698 241.835 303.156 191.652C309.238 135.76 259.818 121.17 237.307 111.82C269.54 112.822 292.045 110.931 338.929 104.017C338.929 104.017 333.186 113.039 333.1 138.279C333.011 161.356 337.976 173.583 342.558 173.517C347.969 173.439 353.054 161.464 353.957 136.953C354.888 111.796 350.575 102.198 350.575 102.198C372.232 98.346 386.911 96.3773 423.777 88.2905Z" fill="#F7EB1E"/>
<path fill-rule="evenodd" clip-rule="evenodd" d="M508.225 70.1483C517.512 72.4348 558.556 85.7353 561.11 142.534C563.44 194.55 541.94 225.806 535.465 233.979C535.465 233.979 549.563 229.293 564.193 223.689C580.083 217.597 595.811 211.328 595.811 211.328C595.811 211.328 591.381 199.805 596.811 179.599C602.699 157.721 611.121 151.455 611.121 151.455C611.121 151.455 609.099 160.337 615.518 176.986C621.853 193.432 629.163 197.699 629.163 197.699L653.376 186.876C653.376 186.876 645.843 170.435 657.206 145.696C666.804 124.792 678.626 99.3796 668.899 68.7712C663.892 53.0007 657.398 43.9321 654.143 40.0774C650.381 40.7129 619.803 46.5131 612.985 47.8645C620.447 50.9132 636.468 60.4726 639.404 86.9652C641.426 105.193 632.067 120.741 632.067 120.741C632.067 120.741 632.995 112.564 626.385 103.239C620.083 94.3517 613.99 92.2306 613.99 92.2306C613.99 92.2306 613.384 104.632 606.058 118.276C600.407 128.784 593.057 134.478 593.057 134.478C593.057 134.478 598.977 111.768 593.091 88.7195C587.651 67.4148 576.197 59.1265 571.315 56.4757C561.097 58.6279 517.628 68.084 508.225 70.1483ZM722.796 29.3088C725.222 50.6496 721.862 79.9067 713.387 81.8909C706.442 83.5212 702.528 50.9803 707.504 31.3654C698.629 32.6571 673.259 36.698 662.133 38.6073C700.828 82.4463 682.629 141.544 660.687 183.782C673.667 177.948 696.457 168.22 709.076 163.071C703.06 141.41 707.082 111.572 714.725 109.104C721.39 106.944 727.665 142.219 721.408 158.134C732.977 153.163 749.023 147.587 765.904 141.772C744.41 132.269 725.936 66.9962 767.297 25.0122C757.598 25.6375 731.779 28.2185 722.796 29.3088Z" fill="#F7EB1E"/>
<path fill-rule="evenodd" clip-rule="evenodd" d="M954.66 125.44C951.53 125.959 947.845 125.605 944.001 124.412C937.943 122.536 933.688 120.782 928.507 118.859L928.886 98.2188C931.398 103.466 939.215 109.724 943.539 109.14C944.699 108.987 945.68 108.111 945.902 107.021C946.246 105.301 945.288 103.073 943.199 100.774C941.103 98.4668 937.324 94.6638 934.109 91.1164C919.824 75.3485 925.84 64.5954 929.156 61.7508C933.894 57.6764 939.701 58.6039 942.089 59.1C950.861 60.9112 957.734 68.2099 960.971 75.4312C962.852 79.6554 964.111 84.2724 963.351 89.2251C961.416 84.2052 948.838 70.2123 944.347 75.7825C941.336 79.5211 948.481 84.9106 955.873 91.429C965.85 100.224 967.078 106.75 964.628 116.072C963.247 121.337 959.799 124.577 954.66 125.44Z" fill="#F7EB1E"/>
<path fill-rule="evenodd" clip-rule="evenodd" d="M778.058 79.9558C778.058 79.9558 777.704 67.7378 782.556 56.0753C787.416 44.4153 794.61 38.0338 799.398 42.2502C803.982 46.3117 800.351 54.2693 796.427 59.1188C792.507 63.9657 790.065 66.2883 785.012 70.7864C779.966 75.2948 778.058 79.9558 778.058 79.9558ZM786.691 89.1639C798.072 78.54 811.109 69.2519 815.942 55.6619C820.775 42.0591 820.694 32.7812 811.086 26.8028C802.056 21.1911 785.5 21.5372 769.706 39.894C752.441 59.9637 749.169 94.7058 754.118 111.577C758.372 126.074 766.701 139.436 782.652 136.31C810.632 130.828 809.651 90.6132 809.651 90.6132C809.651 90.6132 799.209 109.076 789.745 109.678C779.806 110.308 777.43 97.8112 786.691 89.1639Z" fill="#F7EB1E"/>
<path fill-rule="evenodd" clip-rule="evenodd" d="M843.128 55.5789C847.006 46.0635 852.819 40.8341 856.736 44.2446C860.49 47.5284 857.587 54.0261 854.426 57.9868C851.265 61.9502 849.298 63.8543 845.217 67.5437C841.137 71.2384 839.62 75.0414 839.62 75.0414C839.62 75.0414 839.253 65.0944 843.128 55.5789ZM849.679 98.6895C840.286 99.4387 839.22 89.5822 846.692 82.4927C855.883 73.7936 866.423 66.1718 870.261 55.0777C874.113 43.9785 873.985 36.4342 866.14 31.608C858.769 27.0815 845.155 27.7507 832.435 42.772C818.516 59.1909 815.56 87.8511 819.495 101.627C823.462 115.519 830.818 124.5 844.8 120.821C866.08 115.212 871.685 83.4563 871.685 83.4563C871.685 83.4563 859.661 97.8936 849.679 98.6895Z" fill="#F7EB1E"/>
<path fill-rule="evenodd" clip-rule="evenodd" d="M880.245 33.4043C887.02 57.2227 882.293 99.5505 867.201 117.649C885.821 115.835 903.139 115.522 919.502 118.119L920.439 84.803C914.241 99.9328 879.988 119.186 907.35 41.2455C900.63 39.0004 892.839 36.2281 880.245 33.4043Z" fill="#F7EB1E"/>
<path fill-rule="evenodd" clip-rule="evenodd" d="M974.251 131.727C975.229 131.727 975.601 131.673 975.895 131.453C976.187 131.237 976.364 130.87 976.364 130.485C976.364 129.953 976.089 129.552 975.583 129.384C975.308 129.294 974.898 129.257 974.055 129.257H973.21V131.727H974.251ZM974.309 128.469C975.134 128.469 975.523 128.508 975.993 128.653C976.794 128.909 977.345 129.642 977.345 130.464C977.345 131.324 976.756 132.04 975.816 132.314L977.402 135.791H976.307L974.837 132.497L974.76 132.479H974.076H973.33L973.21 132.497V135.791H972.214V128.469H974.309ZM968.944 132.112C968.944 135.244 971.471 137.786 974.625 137.786C977.755 137.786 980.301 135.244 980.301 132.094C980.301 128.927 977.834 126.457 974.68 126.457C971.373 126.457 968.944 128.854 968.944 132.112ZM981.163 132.13C981.163 135.773 978.324 138.574 974.625 138.574C970.903 138.574 968.084 135.791 968.084 132.13C968.084 128.397 970.864 125.671 974.662 125.671C978.324 125.671 981.163 128.49 981.163 132.13Z" fill="#F7EB1E"/>
</g>
<defs>
<clipPath id="clip0_769_1297">
<rect width="1024" height="296.96" fill="white" transform="translate(0 0.130371)"/>
</clipPath>
</defs>
</svg>
