<svg width="1025" height="158" viewBox="0 0 1025 158" fill="none" xmlns="http://www.w3.org/2000/svg">
<g clip-path="url(#clip0_752_2)">
<path d="M59.3512 48.7144V104.186C66.8343 100.138 72.0737 93.092 74.6172 85.1439L75.2169 85.4488C73.5678 105.238 60.0983 125.024 39.1456 125.024C18.0431 125.024 2.47729 109.283 2.47729 84.0945C2.47729 65.2077 14.7501 53.3618 30.4658 42.7153C28.1693 42.1123 25.8042 41.81 23.4299 41.8158C12.6512 41.8158 6.36748 49.1616 6.36748 56.66H5.46544C5.31553 55.6106 5.31553 54.5611 5.31553 53.5117C5.31553 40.1693 12.3514 23.9758 29.4138 23.9758C40.3399 23.9758 48.7225 34.0202 61.4424 34.0202C66.5319 34.0202 72.8182 31.6215 75.3617 26.0746H75.8114C75.6615 35.8217 72.6734 45.8686 59.3512 48.7144ZM67.4314 105.535C59.9483 113.481 51.8681 120.227 41.3918 120.227C21.9358 120.227 6.96968 104.935 6.96968 82.7478C6.96968 69.7052 12.3565 62.6591 18.3429 54.4112H17.7433C14.0005 58.1591 4.12383 67.6038 4.12383 83.6448C4.12383 108.233 19.5397 123.375 39.7453 123.375C53.8145 123.375 63.3913 113.633 67.7338 105.687L67.4314 105.535ZM73.4179 32.8234C70.8744 37.6207 65.4876 43.7672 54.5615 43.7672C43.6355 43.7672 33.6089 36.2714 24.7766 36.2714C16.6939 36.2714 11.1572 41.6684 9.06088 45.7161L9.21333 46.016C12.0541 43.1701 16.394 40.3192 23.4299 40.3192C35.103 40.3192 42.5886 47.5177 54.4116 47.5177C66.9842 47.5177 72.6708 39.2698 73.7177 32.9758L73.4179 32.8234ZM31.8099 43.1676C24.1769 51.1156 17.1411 59.8107 17.1411 76.7512C17.1411 86.0434 20.2842 95.6406 27.3201 101.637L31.66 99.3859V59.206L27.6199 61.3048L26.8703 59.8057L47.8255 48.4095C42.1389 47.2153 37.0494 44.6642 31.8099 43.165V43.1676ZM57.7021 49.0143C56.6553 49.1616 55.6084 49.1616 54.4116 49.1616C52.3153 49.1616 50.3715 49.0143 48.4252 48.562V92.3399L28.8167 102.992C32.8568 105.99 37.7964 107.786 44.0827 107.786C49.1722 107.786 53.662 106.737 57.7021 104.938V49.0143ZM36.1524 56.6625L33.3066 58.309V98.4915L36.1524 96.9924V56.6625ZM122.212 62.3568V114.23C122.212 128.622 109.489 138.369 95.2725 141.215L94.9727 140.615C102.009 137.167 106.051 130.121 106.051 122.625V68.953L97.9685 61.6097L94.8253 65.0552V106.884L99.3152 110.932V111.234L87.1923 124.427L73.273 111.684V111.082L78.6598 105.385V39.1198L94.5255 22.1845L94.8253 22.3318V62.5092L107.848 48.4172L121.467 60.7128L124.008 58.0117L125.207 59.0637L122.212 62.3568ZM80.3038 111.382V111.082L83.447 107.931V36.5738L80.3038 39.8694V106.432L75.5142 111.232V111.529L87.1872 122.023L89.281 119.625L80.3038 111.382ZM110.838 66.5544L101.112 58.1591L99.0153 60.4079L107.698 68.2086V122.178C107.698 125.776 106.948 129.521 105.601 131.623L105.754 131.773C109.494 129.072 110.841 125.024 110.841 119.78L110.838 66.5544ZM146.01 92.4923V100.135L160.526 111.532L168.909 102.537L170.108 103.733L150.652 124.572L130.894 108.681L127.903 111.831L126.704 110.632L130.147 107.034V69.103L158.435 48.4146L173.252 72.4011L146.01 92.4923ZM134.932 105.687V67.6038L131.791 69.8551V107.187L150.35 122.328L152.746 119.78L134.932 105.687ZM146.31 59.5084L146.01 59.6608V90.3935L159.33 80.649L146.31 59.5084ZM150.2 56.5101L147.507 58.459L160.679 79.5996L163.372 77.6482L150.2 56.5101ZM270.811 124.424L250.006 106.434L234.143 124.424L212.588 105.832V76.4488H208.398C204.655 76.4488 202.711 78.85 201.812 81.6959H201.362C200.885 79.8339 200.634 77.9212 200.615 75.9991C200.615 72.1013 201.664 61.907 212.588 61.907V36.1215C212.588 31.1743 206.751 29.2254 206.751 22.6291C206.751 14.0839 214.832 5.68865 229.653 0.436523L230.253 0.88627C224.866 4.03704 222.02 7.03535 222.02 13.4817C222.02 23.3787 231.599 20.8276 231.599 36.4188V42.4154L249.111 23.9758L267.521 42.1182L284.883 23.9758L301.643 40.4665V95.9379L270.811 124.424ZM217.38 103.436V71.804H208.995C204.655 71.804 202.711 74.6498 202.411 77.201L202.559 77.3534C204.058 75.7018 205.555 74.8048 208.995 74.8048H214.232V105.088L233.99 122.181L236.234 119.48L217.38 103.436ZM217.38 34.6198C217.38 28.4758 211.993 26.3745 211.993 22.4792C211.993 17.0797 214.087 12.5848 217.38 8.38713L217.08 8.23722C212.59 11.6878 208.4 17.2347 208.4 22.6291C208.4 28.0286 214.237 30.5746 214.237 35.3745V61.9096H217.38V34.6198ZM248.959 49.6139L237.586 38.5202L231.599 44.6667V97.7368L245.219 109.283L248.959 105.083V49.6139ZM253.749 103.139V47.5177L241.026 34.9247L238.633 37.3234L250.605 48.8669V104.788L270.811 122.328L273.207 120.077L253.749 103.139ZM282.784 47.6701L273.357 38.6701L267.97 44.2195V97.592L282.637 110.482L282.784 110.335V47.665V47.6701ZM287.574 45.5688L276.648 34.9247L274.404 37.3234L284.43 46.918V109.585L287.574 106.587V45.5662V45.5688ZM351.171 124.424L336.952 111.532L324.229 124.424L308.663 110.632L306.567 112.878L305.37 111.682L308.064 108.833V68.6558L336.202 48.2647L352.368 60.8601L355.214 57.8618L356.41 59.0612L353.117 62.5092V104.038L361.05 111.382L363.594 108.683L364.79 109.733L351.171 124.424ZM312.853 107.784V67.3065L309.713 69.5527V109.283L324.082 122.178L326.475 119.78L312.856 107.786L312.853 107.784ZM336.952 68.3559L324.679 58.7588L324.229 59.0612V102.687L334.408 111.529L336.949 108.983V68.3534L336.952 68.3559ZM341.741 109.133V66.1072L329.019 55.7605L326.028 57.8593L338.598 67.7537V110.635L351.171 122.028L353.417 119.627L341.741 109.133ZM394.723 75.5493H410.139V107.636L386.343 124.427C383.199 120.829 378.707 118.28 373.17 118.28C368.681 118.28 365.088 119.78 360.301 123.827L359.551 123.527L379.909 93.8441H367.334V65.9547L392.332 48.5645C395.322 50.9632 397.566 52.3099 401.461 52.3099C404.454 52.3099 408.794 51.7102 412.087 49.0143L412.687 49.3141L394.723 75.5493ZM377.963 113.93C373.62 113.93 370.18 115.429 367.184 117.528V117.828C369.58 116.779 371.974 116.481 374.22 116.481C377.66 116.481 383.05 118.13 386.642 122.328L390.085 119.78C387.24 116.479 383.799 113.93 377.963 113.93ZM393.973 88.7419H385.593L368.081 114.083L368.231 114.383C372.571 111.232 376.761 109.136 381.85 109.136C386.34 109.136 390.98 111.234 393.823 114.832L393.976 114.682L393.973 88.7419ZM372.121 88.7419V64.608L368.98 66.8568V92.0426H381.101L383.497 88.7444H372.124L372.121 88.7419ZM403.405 59.3585C400.262 61.6097 398.465 62.8065 393.226 62.8065C390.233 62.8065 386.64 61.4598 383.799 58.459L383.499 58.6114V80.4966H389.186L403.555 59.5084L403.402 59.3559L403.405 59.3585ZM396.222 58.0092C393.528 58.0092 390.085 56.6625 387.837 53.6642L384.096 56.2102C386.942 59.6583 389.636 61.1574 393.823 61.1574C396.517 61.1574 400.409 60.4053 404.452 56.9573L404.599 56.5101C402.058 57.562 398.915 58.0092 396.222 58.0092ZM398.763 83.7998H389.036L386.79 86.9455H395.622V116.029L398.765 113.78V83.7972L398.763 83.7998ZM461.776 62.3568V114.23C461.776 128.622 449.053 138.369 434.834 141.215L434.537 140.615C441.573 137.167 445.613 130.121 445.613 122.625V68.953L437.532 61.6097L434.387 65.0552V106.884L438.877 110.932V111.234L426.756 124.427L412.837 111.684V111.082L418.224 105.385V39.1198L434.089 22.1819L434.387 22.3293V62.5092L447.409 48.4172L461.029 60.7128L463.572 58.0117L464.771 59.0637L461.773 62.3568H461.776ZM419.868 111.382V111.082L423.011 107.931V36.5738L419.868 39.8694V106.432L415.078 111.232V111.532L426.751 122.026L428.845 119.625L419.868 111.382ZM450.4 66.5544L440.671 58.1591L438.577 60.4079L447.257 68.2086V122.178C447.257 125.776 446.51 129.521 445.163 131.623L445.315 131.773C449.056 129.072 450.402 125.024 450.402 119.78L450.4 66.5544ZM489.017 124.424L476.145 112.581L473.149 115.729L471.95 114.527L475.395 110.782V67.4564L469.109 61.4598L466.713 64.1583L465.516 62.959L478.983 48.2647L490.958 59.0612L493.952 55.763L495.298 56.8124L491.558 60.8601V104.641L498.744 111.384L502.037 107.934L503.231 109.136L489.017 124.424ZM480.185 109.733V65.0552L472.402 57.8593L470.308 60.2605L477.042 66.7069V111.234L489.017 122.026L491.261 119.627L480.185 109.733ZM484.675 47.0679L472.402 35.8242L483.628 23.831L495.9 35.0721L484.675 47.0654V47.0679ZM477.042 33.423L474.798 35.6718L484.525 44.8166L486.768 42.2681L477.042 33.423ZM552.302 124.424L539.279 112.581V68.8057L531.347 61.6097L527.154 66.1072V106.584L531.796 110.929V111.532L519.524 124.424L505.604 111.682V111.232L510.991 105.535V67.7537L503.958 61.3074L501.112 64.4556L499.918 63.2563L513.537 48.4146L527.157 60.5603V63.5586L541.376 48.4146L554.693 60.4079L557.689 57.2596L559.035 58.459L555.442 62.2068V105.083L562.176 111.379L565.471 107.781L566.666 108.981L552.302 124.424ZM512.79 111.382V111.082C512.79 111.382 515.783 108.084 515.783 108.084V65.5024L507.251 57.7068L505.155 59.9556L512.638 66.8517V106.429L507.998 111.229V111.529L519.524 122.023L521.917 119.475L512.79 111.382ZM544.069 110.182V66.2571L534.79 57.8593L532.396 60.4079L540.926 68.0536V111.682L552.149 122.176L554.545 119.625L544.069 110.182ZM594.507 151.409C589.572 146.012 586.127 143.763 581.487 143.763C576.55 143.763 570.861 145.715 565.024 148.861L564.574 148.413L585.23 124.427L570.561 112.733L567.718 115.732L566.523 114.682L569.811 111.084V68.6583L598.25 48.2672L614.115 60.8627L616.809 57.8644L618.008 59.0637L614.865 62.5118V113.788C614.865 121.581 619.202 121.284 619.202 127.128C619.202 133.872 609.473 140.166 594.507 151.409ZM574.604 109.883V67.4564L571.46 69.7052V111.234L586.274 123.228L588.523 120.527L574.604 109.883ZM585.08 139.866C580.14 139.866 575.648 141.365 571.46 144.213V144.516C574.154 143.466 577.147 142.117 582.234 142.117C586.876 142.117 590.767 144.663 594.659 149.163L597.653 146.764C593.91 142.419 589.42 139.868 585.08 139.868V139.866ZM603.339 125.474C599.599 123.075 598.699 120.527 598.699 114.08V111.379L573.854 140.163L574.004 140.313C578.791 137.467 583.134 135.368 590.169 135.368C596.156 135.368 600.196 137.764 604.836 141.665C607.682 139.266 609.625 136.867 609.625 133.119C609.625 130.121 607.079 127.872 603.339 125.474ZM598.699 68.3534L586.274 58.6114L585.974 58.9112V104.935L595.556 112.431L598.699 108.833V68.3559V68.3534ZM607.829 123.375C603.936 120.377 603.487 117.828 603.487 111.382V65.8074L590.914 55.6131L588.073 57.562L600.346 67.304V113.481C600.346 119.927 600.646 121.728 604.686 124.424C608.279 126.823 611.12 129.372 611.12 132.82C611.12 133.717 610.972 135.218 610.972 135.218L611.12 135.368C611.869 134.616 612.769 133.419 612.769 131.468C612.769 128.172 611.122 125.924 607.829 123.375ZM643.75 124.424L629.978 113.63L627.138 116.779L625.941 115.577L629.231 111.981V59.5109H620.549L620.249 59.2085L625.489 51.4104H629.229V41.3686L645.094 24.4281L645.394 24.7305V51.4129H657.367L657.67 51.7153L652.43 59.5109H645.392V104.938L653.627 111.237L656.77 107.786L657.967 108.986L643.75 124.424ZM634.021 38.82L630.878 42.2681V51.4155H634.021V38.82ZM634.021 110.482V59.5109H630.878V112.281L643.6 122.178L645.844 119.78L634.021 110.482ZM706.908 63.8559V105.832L681.615 124.574L662.604 110.182L660.361 112.731L659.164 111.532L661.857 108.533V67.4564L688.352 48.4146L706.011 62.2094L708.852 59.2111L710.051 60.4079L706.908 63.8559ZM666.649 107.034V66.1072L663.506 68.3559V108.683L681.466 122.475L684.311 120.379L666.649 107.034ZM690.745 68.8057L678.172 58.9087L678.025 59.0612V103.733L690.745 113.328V68.8057ZM695.537 66.1072L681.615 55.3082L678.775 57.4095L692.394 67.9036V114.53L695.537 112.134V66.1072ZM764.084 124.422L751.062 112.581V68.8057L743.129 61.6097L738.937 66.1072V106.584L743.579 110.929V111.532L731.306 124.424L717.387 111.682V111.232L722.774 105.535V67.7537L715.74 61.3074L712.894 64.4556L711.7 63.2563L725.32 48.4146L738.939 60.5603V63.5586L753.158 48.4146L766.478 60.4079L769.471 57.2596L770.818 58.459L767.225 62.2068V105.083L773.958 111.379L777.254 107.781L778.448 108.981L764.084 124.422ZM724.57 111.382V111.082C724.57 111.382 727.563 108.084 727.563 108.084V65.5024L719.033 57.7068L716.94 59.9556L724.423 66.8517V106.429L719.783 111.229V111.529L731.309 122.023L733.702 119.475L724.57 111.382ZM755.849 110.182V66.2571L746.575 57.8593L744.179 60.4079L752.708 68.0536V111.682L763.932 122.176L766.328 119.625L755.852 110.182H755.849ZM856.547 124.424C852.354 119.927 850.86 118.428 845.918 117.079V146.462L845.618 146.612L839.632 141.212L822.269 157.253L821.97 157.106V116.779C816.73 117.978 811.193 120.676 805.804 126.071L805.504 125.924C806.554 114.38 812.238 105.835 821.967 102.537V73.3006H818.824C814.484 73.3006 812.09 75.5493 809.994 79.5971H809.547C809.097 78.2504 808.795 76.149 808.795 72.7035C808.795 66.4045 813.437 59.8107 821.07 59.8107H821.967V43.6173L815.831 38.0704L812.837 41.0687L811.788 40.0193L826.907 23.9784L840.973 36.8711V50.516L844.266 46.9155V29.6752H845.913V45.4163L865.816 23.9758L882.729 39.4197V104.636L856.547 124.424ZM821.972 111.232C815.838 112.429 811.498 116.179 808.655 121.126L808.802 121.426C812.995 117.828 816.883 116.182 821.972 114.98V111.232ZM826.764 68.206H818.532C812.842 68.206 810.599 71.804 810.451 76.0016L810.599 76.1515C812.395 73.1532 814.189 72.1038 817.782 71.6541H823.621V153.361L826.764 150.362V68.206ZM826.764 41.2187L819.279 34.3251L816.885 36.8711L823.619 42.8677V59.8082H826.764V41.2161V41.2187ZM844.276 49.7638L840.983 53.2119V140.018L844.276 143.016V49.7638ZM863.882 46.3158L855.05 38.2203L845.92 48.1173V100.888C853.703 101.64 859.09 103.886 863.732 108.983L863.882 108.833V46.3158ZM845.92 111.232V115.13C851.01 116.329 853.104 117.828 856.694 122.026L860.14 119.327C856.547 114.83 852.954 112.134 845.92 111.232ZM868.669 43.9197L858.493 34.4725L856.097 37.021L865.526 45.7161V115.429L868.669 113.031V43.9197ZM934.973 63.8585V105.835L909.675 124.574L890.669 110.182L888.423 112.731L887.226 111.532L889.919 108.533V67.4564L916.414 48.4146L934.073 62.2094L936.914 59.2111L938.113 60.4079L934.973 63.8585ZM894.712 107.034V66.1072L891.568 68.3559V108.683L909.528 122.475L912.374 120.379L894.712 107.034ZM918.807 68.8057L906.237 58.9087L906.085 59.0612V103.733L918.807 113.328V68.8057ZM923.6 66.1072L909.678 55.3082L906.837 57.4095L920.456 67.9036V114.53L923.6 112.134V66.1072ZM969.692 75.5493H985.111V107.636L961.315 124.427C958.172 120.829 953.682 118.28 948.145 118.28C943.655 118.28 940.065 119.78 935.273 123.827L934.526 123.527L954.879 93.8441H942.306V65.9547L967.301 48.5645C970.297 50.9632 972.538 52.3099 976.431 52.3099C979.427 52.3099 983.764 51.7102 987.057 49.0143L987.657 49.3141L969.692 75.5493ZM952.932 113.93C948.592 113.93 945.149 115.429 942.159 117.528V117.828C944.552 116.779 946.946 116.481 949.192 116.481C952.635 116.481 958.022 118.13 961.612 122.328L965.058 119.78C962.214 116.479 958.771 113.93 952.932 113.93ZM968.948 88.7419H960.568L943.058 114.083L943.206 114.383C947.545 111.232 951.735 109.136 956.825 109.136C961.315 109.136 965.955 111.234 968.798 114.832L968.948 114.682V88.7419ZM947.096 88.7419V64.608L943.953 66.8568V92.0426H956.073L958.469 88.7444L947.096 88.7419ZM978.377 59.3585C975.232 61.6097 973.438 62.8065 968.198 62.8065C965.203 62.8065 961.61 61.4598 958.769 58.459L958.469 58.6114V80.4966H964.153L978.522 59.5084L978.377 59.3559V59.3585ZM971.191 58.0092C968.498 58.0092 965.058 56.6625 962.811 53.6642L959.069 56.2102C961.914 59.6583 964.608 61.1574 968.8 61.1574C971.494 61.1574 975.384 60.4053 979.427 56.9573L979.574 56.5101C977.031 57.562 973.887 58.0092 971.191 58.0092ZM973.738 83.7998H964.011L961.765 86.9455H970.594V116.029L973.738 113.78V83.7998ZM1009.96 124.424L996.187 113.63L993.343 116.779L992.149 115.577L995.437 111.981V59.5109H986.757L986.46 59.2085L991.694 51.4104H995.437V41.3686L1011.3 24.4281L1011.6 24.7305V51.4129H1023.58L1023.88 51.7153L1018.64 59.5109H1011.6V104.938L1019.84 111.237L1022.98 107.786L1024.17 108.986L1009.96 124.424ZM1000.23 38.82L997.086 42.2681V51.4155H1000.23V38.82H1000.23ZM1000.23 110.482V59.5109H997.086V112.281L1009.81 122.178L1012.05 119.78L1000.23 110.482H1000.23Z" fill="#111111"/>
</g>
<defs>
<clipPath id="clip0_752_2">
<rect width="1024" height="157.538" fill="white" transform="translate(0.663086 0.230713)"/>
</clipPath>
</defs>
</svg>
