<svg width="400" height="513" viewBox="0 0 400 513" fill="none" xmlns="http://www.w3.org/2000/svg">
<g clip-path="url(#clip0_795_4775)">
<path d="M399.581 0.574707H0.874634L0.998083 327.608C0.980823 338.023 3.35844 348.303 7.9472 357.654C12.536 367.003 19.2129 375.174 27.4623 381.532L28.0506 381.997L200.395 512.575L372.681 381.8C381.055 375.422 387.849 367.2 392.535 357.773C397.221 348.348 399.675 337.968 399.704 327.441L399.581 0.574707Z" fill="white"/>
<path d="M299.665 101.878L255.306 147.304V457.032L299.665 423.363V101.878Z" fill="#E8151E"/>
<path d="M344.104 389.607L365.448 373.412C379.406 362.824 388.448 347.115 388.441 329.634L388.324 11.0542L344.104 56.3353V389.607Z" fill="#E8151E"/>
<path d="M122.709 439.871V283.097L78.3501 328.524V406.26L122.709 439.871Z" fill="#E8151E"/>
<path d="M211.325 490.417V192.346L166.966 237.779V473.401L200.38 498.725L211.325 490.417Z" fill="#E8151E"/>
<path d="M399.581 0.574707H0.874634L0.998083 327.608C0.9856 337.853 3.29045 347.967 7.74006 357.195C12.1897 366.422 18.6688 374.524 26.6925 380.893C26.9467 381.096 27.1936 381.307 27.4551 381.503L28.0433 381.968L200.388 512.546L372.681 381.8C381.055 375.422 387.849 367.2 392.535 357.774C397.221 348.348 399.675 337.968 399.704 327.441L399.581 0.574707ZM259.075 58.3399L58.7706 263.547L58.6907 58.4416L259.075 58.3399ZM365.448 372.265L200.38 497.549L35.8794 372.904L387.613 12.6884L387.729 327.434C387.705 336.116 385.683 344.675 381.819 352.449C377.955 360.224 372.353 367.004 365.448 372.265Z" fill="#282A6F"/>
<path d="M25.2909 24.3954L29.7863 10.5605L34.289 24.3954L48.8356 24.3882L37.0705 32.9433L41.5732 46.7855L29.7936 38.2376L18.0285 46.7927L22.5166 32.9506L10.7443 24.4027L25.2909 24.3954Z" fill="white"/>
<path d="M170.219 24.3446L174.708 10.5024L179.21 24.3373H193.764L181.992 32.8925L186.495 46.7273L174.722 38.1795L162.957 46.7346L167.445 32.8997L155.673 24.3519L170.219 24.3446Z" fill="white"/>
<path d="M25.3998 316.323L29.8952 302.48L34.3979 316.315H48.9445L37.1794 324.87L41.6821 338.705L29.9025 330.158L18.1373 338.713L22.6255 324.878L10.8531 316.33L25.3998 316.323Z" fill="white"/>
<path d="M25.349 170.762L29.8371 156.92L34.3398 170.755L48.8937 170.748L37.1213 179.31L41.624 193.145L29.8517 184.597L18.0793 193.152L22.5747 179.31L10.8024 170.762H25.349Z" fill="white"/>
<path d="M126.783 223.422L131.278 209.58L135.781 223.414H150.328L138.563 231.97L143.065 245.805L131.286 237.257L119.521 245.812L124.009 231.977L112.236 223.429L126.783 223.422Z" fill="white"/>
<path d="M224.259 125.808L228.747 111.973L233.25 125.808L247.797 125.8L236.032 134.355L240.534 148.198L228.762 139.65L216.99 148.205L221.478 134.363L209.705 125.815L224.259 125.808Z" fill="white"/>
<path d="M315.141 24.2866L319.636 10.4517L324.139 24.2866L338.686 24.2793L326.92 32.8344L331.423 46.6766L319.644 38.1287L307.878 46.6838L312.367 32.8417L300.594 24.2938L315.141 24.2866Z" fill="white"/>
<path d="M138.309 160.762C138.165 159.736 137.889 158.733 137.488 157.777C134.401 150.696 131.112 152.032 129.158 142.373C128.835 140.576 128.411 138.799 127.887 137.05C127.531 136.033 126.834 133.978 127.008 132.344C127.364 128.938 128.461 125.082 128.962 121.625C128.962 121.581 128.962 121.545 128.962 121.501C129.516 121.357 130.019 121.063 130.418 120.652C130.816 120.241 131.094 119.728 131.22 119.17C131.366 118.081 131.068 117.659 128.497 116.991L128.41 116.89C126.878 114.101 124.35 113.135 121.518 112.583C120.567 112.437 119.597 112.481 118.664 112.714C117.826 112.823 116.976 112.668 116.231 112.271C114.778 111.465 111.634 108.363 110.726 109.736C110.151 110.626 109.8 111.641 109.702 112.695C109.603 113.749 109.76 114.812 110.159 115.793C111.612 119.235 113.9 120.15 111.488 124.174C110.036 126.578 107.131 130.143 106.448 133.31C104.485 132.056 102.794 130.421 101.474 128.502C100.987 127.237 100.308 126.054 99.4619 124.994V135.314C100.747 136.963 102.229 138.8 103.572 140.398C102.258 139.534 100.747 138.481 99.4619 137.58V145.975C100.493 146.702 102.026 147.602 103.093 148.154C104.071 148.734 105.111 149.201 106.194 149.549C106.673 155.414 109.228 160.916 113.398 165.068C112.716 167.835 112.04 171.205 112.433 172.701C113.762 177.749 118.243 181.736 118.635 184.713C118.816 186.042 117.357 186.681 116.274 187.56L115.788 187.88L131.765 188.192L132.005 187.872C132.255 187.413 132.316 186.872 132.172 186.369C130.908 178.446 130.785 177.298 135.164 172.527C136.542 170.963 137.51 169.082 137.982 167.051C138.254 167.042 138.523 166.978 138.77 166.862C139.017 166.747 139.237 166.582 139.419 166.378C139.601 166.174 139.739 165.935 139.825 165.677C139.911 165.418 139.943 165.144 139.921 164.872C139.648 163.413 139.102 162.017 138.309 160.762ZM125.614 184.655C125.432 185.665 124.844 186.202 124.038 187.044C124.36 185.515 124.344 183.934 123.994 182.411C123.726 181.126 122.731 177.676 122.811 176.964C122.912 176.093 125.854 183.297 125.614 184.655Z" fill="black"/>
<path d="M104.872 187.335C104.191 187.341 103.516 187.211 102.885 186.954C102.254 186.697 101.681 186.318 101.198 185.837C100.715 185.357 100.332 184.786 100.072 184.156C99.8111 183.527 99.6775 182.853 99.6797 182.171V115.43C99.6782 114.422 99.9121 113.427 100.362 112.525L101.321 111.072C97.4567 111.465 93.5618 111.451 89.7011 111.029L90.5654 112.481C91.0367 113.399 91.2851 114.413 91.2916 115.444V182.142C91.2945 182.821 91.163 183.495 90.9045 184.123C90.646 184.751 90.2661 185.322 89.7861 185.803C89.306 186.283 88.7359 186.664 88.1077 186.923C87.4803 187.182 86.8071 187.315 86.128 187.313L71.6758 187.887C71.464 187.887 71.2608 187.971 71.1109 188.121C70.9611 188.27 70.877 188.474 70.877 188.686C70.877 188.898 70.9611 189.101 71.1109 189.251C71.2608 189.4 71.464 189.485 71.6758 189.485L131.169 189.325L132.622 187.872L104.872 187.335Z" fill="#7E4F3A"/>
<path d="M95.5619 111.573C112.781 111.573 126.739 100.957 126.739 87.8617C126.739 74.7661 112.781 64.1499 95.5619 64.1499C78.3428 64.1499 64.3844 74.7661 64.3844 87.8617C64.3844 100.957 78.3428 111.573 95.5619 111.573Z" fill="#006A3F"/>
<path d="M86.0554 96.5112C85.7795 96.4015 85.4846 96.3485 85.1876 96.355C84.8905 96.3616 84.5979 96.4269 84.327 96.5475C83.7707 96.7988 83.3342 97.2577 83.112 97.8264C82.889 98.395 82.8977 99.0283 83.1359 99.5904C83.2558 99.8635 83.4286 100.11 83.6443 100.315C83.86 100.521 84.1142 100.682 84.3923 100.789C84.6545 100.887 84.9327 100.936 85.213 100.934C85.5514 100.935 85.8855 100.863 86.1934 100.723C86.6045 100.537 86.9509 100.234 87.1891 99.8504C87.428 99.467 87.5471 99.0218 87.5326 98.5708C87.5174 98.1205 87.3692 97.6841 87.1063 97.3173C86.8434 96.9506 86.4781 96.6702 86.0554 96.5112Z" fill="#E8151E"/>
<path d="M99.2658 94.1002C99.5548 94.2113 99.8634 94.2621 100.173 94.2512C100.482 94.2396 100.787 94.1663 101.067 94.0348C101.347 93.9157 101.601 93.7421 101.813 93.5235C102.024 93.3057 102.19 93.0471 102.301 92.7639C102.413 92.4799 102.466 92.1778 102.458 91.8735C102.451 91.5692 102.383 91.2693 102.258 90.9919C102.136 90.721 101.962 90.477 101.744 90.2736C101.527 90.0703 101.272 89.9119 100.994 89.8081C100.413 89.588 99.7683 89.6062 99.2004 89.8589C98.6397 90.1059 98.2004 90.5641 97.9767 91.1349C97.7537 91.705 97.7653 92.3405 98.0094 92.9019C98.1285 93.1749 98.3006 93.4219 98.5163 93.6281C98.732 93.8336 98.9869 93.9941 99.2658 94.1002Z" fill="#E8151E"/>
<path d="M114.212 87.4403C114.501 87.5514 114.809 87.6023 115.119 87.5914C115.428 87.5798 115.733 87.5064 116.013 87.375C116.563 87.1259 116.993 86.669 117.207 86.104C117.42 85.539 117.401 84.9123 117.153 84.3611C116.892 83.791 116.417 83.3472 115.831 83.1264C115.561 83.0117 115.271 82.9521 114.978 82.9521C114.685 82.9521 114.395 83.0117 114.125 83.1264C113.566 83.3886 113.131 83.8585 112.913 84.4366C112.695 85.0139 112.71 85.6538 112.955 86.2202C113.074 86.4969 113.245 86.7468 113.461 86.9566C113.677 87.1658 113.932 87.3307 114.212 87.4403Z" fill="#E8151E"/>
<path d="M76.716 87.186C76.44 87.0763 76.1451 87.0233 75.8481 87.0298C75.5511 87.0364 75.2584 87.1017 74.9875 87.2223C74.4312 87.4736 73.9947 87.9326 73.7725 88.5012C73.5495 89.0698 73.5583 89.7031 73.7965 90.2652C73.9163 90.5383 74.0891 90.7845 74.3048 90.99C74.5205 91.1956 74.7747 91.3568 75.0529 91.4635C75.3158 91.5594 75.5939 91.6081 75.8735 91.6088C76.2119 91.6095 76.546 91.5376 76.8539 91.3982C77.265 91.2123 77.6114 90.9087 77.8503 90.5252C78.0885 90.1418 78.2077 89.6966 78.1931 89.2463C78.1779 88.7953 78.0297 88.3589 77.7668 87.9921C77.5039 87.6254 77.1386 87.345 76.716 87.186Z" fill="#E8151E"/>
<path d="M92.9257 81.6813C92.8044 81.4097 92.6309 81.165 92.4137 80.9616C92.1966 80.7583 91.9409 80.6007 91.662 80.4975C91.0811 80.2775 90.4362 80.2957 89.8682 80.5484C89.3076 80.7953 88.8682 81.2536 88.6445 81.8244C88.4216 82.3945 88.4332 83.0299 88.6772 83.5913C88.797 83.8644 88.9699 84.1106 89.1856 84.3161C89.4013 84.5216 89.6554 84.6829 89.9336 84.7896C90.2226 84.9007 90.5313 84.9516 90.8407 84.9407C91.1501 84.9291 91.4543 84.8557 91.7347 84.7243C92.015 84.6052 92.2685 84.4316 92.4805 84.213C92.6919 83.9951 92.8582 83.7366 92.9693 83.4533C93.0804 83.1694 93.1334 82.8673 93.1262 82.563C93.1189 82.2587 93.0506 81.9587 92.9257 81.6813Z" fill="#E8151E"/>
<path d="M108.605 103.425C108.865 103.526 109.14 103.578 109.419 103.578C109.757 103.578 110.092 103.503 110.399 103.36C110.679 103.241 110.933 103.067 111.144 102.848C111.356 102.631 111.523 102.372 111.634 102.089C111.745 101.805 111.798 101.503 111.791 101.198C111.783 100.894 111.715 100.594 111.59 100.317C111.469 100.046 111.295 99.8026 111.077 99.6C110.86 99.3981 110.605 99.2419 110.326 99.1403C109.899 98.9754 109.432 98.9398 108.985 99.0386C108.538 99.1374 108.13 99.3654 107.811 99.6944C107.493 100.024 107.278 100.44 107.195 100.89C107.111 101.34 107.162 101.806 107.342 102.227C107.461 102.501 107.634 102.748 107.851 102.954C108.069 103.16 108.325 103.321 108.605 103.425Z" fill="#E8151E"/>
</g>
<defs>
<clipPath id="clip0_795_4775">
<rect width="398.83" height="512" fill="white" transform="translate(0.874634 0.574707)"/>
</clipPath>
</defs>
</svg>
