<svg width="524" height="512" viewBox="0 0 524 512" fill="none" xmlns="http://www.w3.org/2000/svg">
<g clip-path="url(#clip0_747_299)">
<path fill-rule="evenodd" clip-rule="evenodd" d="M261.379 0C117.299 0 0.824707 117.333 0.824707 262.491C0.824707 378.523 75.454 476.741 178.985 511.504C191.929 514.117 196.67 505.856 196.67 498.907C196.67 492.821 196.243 471.963 196.243 450.229C123.763 465.877 108.67 418.939 108.67 418.939C97.022 388.517 79.7634 380.699 79.7634 380.699C56.0407 364.619 81.4914 364.619 81.4914 364.619C107.806 366.357 121.614 391.563 121.614 391.563C144.905 431.541 182.435 420.245 197.534 413.291C199.689 396.341 206.595 384.608 213.929 378.091C156.121 372.005 95.2994 349.408 95.2994 248.581C95.2994 219.899 105.646 196.432 122.041 178.181C119.454 171.664 110.393 144.715 124.633 108.645C124.633 108.645 146.633 101.691 196.238 135.589C217.476 129.844 239.378 126.921 261.379 126.896C283.379 126.896 305.806 129.941 326.515 135.589C376.126 101.691 398.126 108.645 398.126 108.645C412.366 144.715 403.299 171.664 400.713 178.181C417.539 196.432 427.459 219.899 427.459 248.581C427.459 349.408 366.638 371.568 308.398 378.091C317.891 386.347 326.083 401.989 326.083 426.763C326.083 461.963 325.657 490.213 325.657 498.901C325.657 505.856 330.403 514.117 343.342 511.509C446.873 476.736 521.502 378.523 521.502 262.491C521.929 117.333 405.027 0 261.379 0Z" fill="#24292F"/>
</g>
<defs>
<clipPath id="clip0_747_299">
<rect width="522.667" height="512" fill="white" transform="translate(0.824707)"/>
</clipPath>
</defs>
</svg>
