<svg width="1025" height="206" viewBox="0 0 1025 206" fill="none" xmlns="http://www.w3.org/2000/svg">
<g clip-path="url(#clip0_2_14663)">
<path d="M995.798 75.853V81.046C999.359 76.9851 1008.06 75.6022 1014.93 75.8959L1016.28 75.9767L1017.57 76.1004C1021.54 76.5583 1024.41 77.6352 1024.41 79.0766C1024.41 79.5771 1024.31 80.3013 1024.14 81.1818L1023.89 82.3092L1023.58 83.561L1023.22 84.9112L1022.8 86.3341C1022.73 86.5759 1022.65 86.8196 1022.58 87.0648L1022.1 88.5484L1021.6 90.0402L1021.07 91.5143L1020.53 92.945L1019.99 94.3065C1019.81 94.7459 1019.63 95.1694 1019.45 95.5729L1018.92 96.7184C1018.06 98.5126 1017.28 99.6956 1016.74 99.7299C1003.83 100.034 998.898 103.756 998.686 113.223L998.678 113.877L998.686 159.003H976.065L975.904 134.561L976.059 96.3841L976.058 75.853H995.798Z" fill="#111111"/>
<path d="M964.401 109.866L964.906 112.93L964.993 113.571L965.043 114.034L965.1 114.775L965.125 115.561L965.119 116.105C965.002 120.052 963.201 124.945 954.566 125.502L953.717 125.543L942.284 125.883L907.141 126.737C908.367 134.585 916.368 140.433 931.635 140.433C938.635 140.433 946.175 137.759 954.254 132.412L964.532 148.943C953.456 157.704 941.765 162.085 929.46 162.085C916.822 162.085 908.185 158.711 902.035 154.471L901.108 153.812C900.352 153.258 899.636 152.691 898.955 152.118L898.156 151.427L897.391 150.732C897.266 150.616 897.142 150.499 897.02 150.383L896.303 149.684L895.617 148.986L894.96 148.291C894.853 148.175 894.747 148.06 894.642 147.945C887.753 140.375 884.656 130.407 884.311 120.237C883.5 96.4 900.794 76.6865 923.221 75.8819C943.301 75.1614 960.487 87.9752 964.401 109.866ZM924.067 96.2174C915.376 96.5292 909.171 101.53 907.233 109.854L907.059 110.67L942.169 109.41C940.341 101.202 933.038 95.8955 924.067 96.2174Z" fill="#111111"/>
<path d="M876.37 101.178C875.739 94.4457 874.477 90.9195 871.165 86.5919C865.801 79.6998 857.283 75.853 847.03 75.853C829.206 75.853 815.009 87.5536 815.009 102.46C815.009 112.878 822.107 122.174 831.887 124.739C850.027 129.547 850.027 129.547 853.024 131.952C854.286 133.074 855.075 134.837 855.075 136.44C855.075 139.966 851.447 142.691 846.873 142.691C841.667 142.691 838.512 140.126 837.881 135.318H814.22C815.009 143.652 817.217 148.3 822.423 153.269C828.575 159.039 836.619 162.085 845.926 162.085C864.697 162.085 878.894 150.224 878.894 134.676C878.894 127.784 876.37 122.014 871.322 117.687C867.379 114.321 863.278 112.558 851.132 109.192C842.771 106.948 838.828 104.063 838.828 100.376C838.828 97.3308 841.825 95.2471 846.399 95.2471C850.658 95.2471 852.709 97.0102 853.182 101.178H876.37Z" fill="#111111"/>
<path d="M786.688 159.36H808.831V78.7381H786.688V87.233C782.322 79.5395 774.837 75.853 762.986 75.853C739.284 75.853 722.599 93.6443 722.599 118.969C722.599 144.454 738.816 162.085 762.362 162.085C774.993 162.085 782.946 158.398 786.688 150.705V159.36ZM746.145 118.809C746.145 107.429 754.722 98.613 765.637 98.613C777.02 98.613 785.441 107.268 785.441 118.969C785.441 130.83 777.176 139.485 765.793 139.485C754.566 139.485 746.145 130.669 746.145 118.809Z" fill="#111111"/>
<path d="M641.757 162.084H666.206V117.199C666.206 110.925 667.016 107.868 669.444 105.294C671.711 102.881 675.921 101.111 679.807 101.111C688.389 101.111 692.76 106.903 692.76 118.003V162.084H717.209V116.877C717.209 100.146 715.428 93.3887 709.599 87.1144C704.256 81.6445 696.322 78.4269 687.417 78.4269C677.54 78.4269 670.092 81.9663 666.206 88.5623V54.2949H641.757V162.084Z" fill="#111111"/>
<path d="M612.252 128.684C607.334 136.231 602.257 139.443 594.642 139.443C583.695 139.443 575.762 130.932 575.762 119.21C575.762 107.327 583.695 98.4948 594.642 98.4948C602.574 98.4948 609.079 102.67 611.935 109.735H636.209C631.925 89.6629 614.791 75.853 593.849 75.853C576.552 75.853 562.058 85.912 555.525 100.809L555.53 136.797C562.142 151.794 576.903 162.085 594.483 162.085C614.632 162.085 631.608 148.435 636.367 128.684H612.252Z" fill="#111111"/>
<path d="M522.443 159.417H544.747V54.2949H521.029V87.2437C514.746 80.8108 507.521 77.8297 497.783 77.8297C475.165 77.8297 458.515 95.7162 458.515 119.879C458.515 144.355 475.165 162.084 498.097 162.084C508.935 162.084 515.689 158.946 522.443 150.945V159.417ZM482.233 119.722C482.233 108.268 490.715 99.9525 502.495 99.9525C513.804 99.9525 522.443 108.582 522.443 119.565C522.443 131.175 513.804 139.962 502.181 139.962C490.557 139.962 482.233 131.489 482.233 119.722Z" fill="#111111"/>
<path d="M409.93 75.853C424.064 75.853 435.181 80.9916 443.438 91.1081C449.632 98.9766 453.126 108.772 453.126 118.889C453.126 130.611 448.52 141.852 440.58 150.041C432.798 158.07 422.317 162.085 409.772 162.085C384.839 162.085 366.894 143.939 366.894 118.728C366.894 107.327 371.499 95.9256 379.44 87.8965C386.745 80.3493 398.02 75.853 409.93 75.853ZM410.089 98.4948C399.449 98.4948 390.874 107.487 390.874 118.728C390.874 130.611 399.132 139.443 410.089 139.443C420.888 139.443 429.146 130.611 429.146 118.889C429.146 107.648 420.57 98.4948 410.089 98.4948Z" fill="#111111"/>
<path d="M286.052 162.084H312.358V128.3H324.227C339.305 128.3 348.448 125.565 355.505 118.969C362.723 112.212 366.894 101.915 366.894 90.9755C366.894 79.3922 362.242 68.935 354.222 62.3389C347.165 56.5472 338.342 54.2949 321.18 54.2949H286.052V162.084ZM312.358 104.007V78.5878H322.463C329.039 78.5878 333.049 79.3922 335.616 81.1619C338.663 83.0924 340.588 87.2753 340.588 91.2973C340.588 94.9975 338.984 98.6978 336.418 100.95C333.691 103.202 330.002 104.007 323.425 104.007H312.358Z" fill="#111111"/>
<path d="M102.81 205.2C159.364 205.2 205.21 159.354 205.21 102.8C205.21 46.2464 159.364 0.400391 102.81 0.400391C46.2557 0.400391 0.409668 46.2464 0.409668 102.8C0.409668 159.354 46.2557 205.2 102.81 205.2Z" fill="#FF3382"/>
<path d="M102.81 190.864C151.446 190.864 190.874 151.437 190.874 102.8C190.874 54.1639 151.446 14.7363 102.81 14.7363C54.1732 14.7363 14.7456 54.1639 14.7456 102.8C14.7456 151.437 54.1732 190.864 102.81 190.864Z" fill="white"/>
<path d="M102.81 39.5796C138.955 39.5796 168.257 68.8812 168.257 105.027C168.257 141.172 138.955 170.473 102.81 170.473C92.5961 170.473 82.9289 168.134 74.3148 163.961L74.3155 186.247C59.9747 181.351 47.2984 172.863 37.3599 161.855L37.3629 105.027L37.383 103.388C38.2524 68 67.2121 39.5796 102.81 39.5796Z" fill="url(#paint0_linear_2_14663)"/>
<path style="mix-blend-mode:overlay" d="M102.81 205.2C159.364 205.2 205.21 159.354 205.21 102.8C205.21 46.2464 159.364 0.400391 102.81 0.400391C46.2557 0.400391 0.409668 46.2464 0.409668 102.8C0.409668 159.354 46.2557 205.2 102.81 205.2Z" fill="url(#paint1_linear_2_14663)" fill-opacity="0.3"/>
<path style="mix-blend-mode:overlay" d="M102.81 205.2C159.364 205.2 205.21 159.354 205.21 102.8C205.21 46.2464 159.364 0.400391 102.81 0.400391C46.2557 0.400391 0.409668 46.2464 0.409668 102.8C0.409668 159.354 46.2557 205.2 102.81 205.2Z" fill="url(#paint2_radial_2_14663)" fill-opacity="0.2"/>
</g>
<defs>
<linearGradient id="paint0_linear_2_14663" x1="6582.21" y1="39.5796" x2="6582.21" y2="14706.3" gradientUnits="userSpaceOnUse">
<stop stop-color="#4C3D79"/>
<stop offset="1" stop-color="#0C0D2C"/>
</linearGradient>
<linearGradient id="paint1_linear_2_14663" x1="20480.4" y1="10240.4" x2="0.409668" y2="10240.4" gradientUnits="userSpaceOnUse">
<stop/>
<stop offset="0.510954" stop-color="#E3E3E3" stop-opacity="0"/>
<stop offset="1"/>
</linearGradient>
<radialGradient id="paint2_radial_2_14663" cx="0" cy="0" r="1" gradientUnits="userSpaceOnUse" gradientTransform="translate(10240.4 10240.4) scale(10240)">
<stop stop-color="white" stop-opacity="0"/>
<stop offset="0.918478" stop-color="white" stop-opacity="0"/>
<stop offset="1" stop-color="white"/>
</radialGradient>
<clipPath id="clip0_2_14663">
<rect width="1024" height="204.8" fill="white" transform="translate(0.409668 0.400391)"/>
</clipPath>
</defs>
</svg>
