<svg width="1024" height="159" viewBox="0 0 1024 159" fill="none" xmlns="http://www.w3.org/2000/svg">
<g clip-path="url(#clip0_741_59)">
<path d="M0 115.274V104.05H39.3253V118.326C39.2949 120.202 39.6666 122.063 40.4154 123.783C41.1643 125.503 42.2729 127.042 43.6666 128.298C45.0604 129.554 46.7069 130.496 48.4955 131.062C50.284 131.628 52.173 131.805 54.0354 131.579C57.2169 132.011 60.4445 131.231 63.078 129.395C65.7116 127.558 67.5587 124.799 68.2532 121.664C69.3061 118.073 69.2166 114.244 67.9972 110.706C60.3862 91.5647 8.37904 82.9001 1.7723 53.0664C0.427228 46.5126 0.343687 39.7624 1.52615 33.1773C5.58274 9.2217 26.6337 0.557129 52.7653 0.557129C73.5701 0.557129 102.242 5.40141 102.242 37.5194V47.976H65.7129V38.7994C65.8232 36.9907 65.5406 35.1795 64.8845 33.4903C64.2285 31.8011 63.2145 30.274 61.9122 29.0139C60.61 27.7537 59.0504 26.7905 57.3406 26.1902C55.6308 25.59 53.8113 25.3671 52.0071 25.5367C48.9263 25.1975 45.831 26.0331 43.3394 27.8767C40.8479 29.7202 39.1437 32.4359 38.5672 35.4813C38.1566 38.0239 38.2436 40.6222 38.8232 43.1317C43.1259 60.2048 98.6974 69.3913 104.792 100.239C106.315 108.234 106.399 116.436 105.038 124.461C101.484 148.918 79.6648 158.095 53.2871 158.095C25.5999 158.095 0 148.15 0 115.274ZM476.473 114.772V103.547H515.296V117.568C515.235 119.427 515.576 121.277 516.296 122.992C517.016 124.707 518.098 126.246 519.467 127.505C520.837 128.763 522.462 129.711 524.232 130.283C526.001 130.855 527.873 131.039 529.721 130.821C532.873 131.291 536.088 130.555 538.722 128.759C541.355 126.963 543.215 124.239 543.928 121.133C544.981 117.625 544.895 113.875 543.682 110.42C536.317 91.5647 484.812 82.8509 478.225 53.0664C476.878 46.5994 476.791 39.9332 477.969 33.4333C482.056 9.7337 503.136 1.06913 528.736 1.06913C549.295 1.06913 577.701 6.16941 577.701 37.7754V47.976H541.428V39.0554C541.543 37.2689 541.273 35.4784 540.636 33.8054C539.999 32.1324 539.01 30.616 537.735 29.359C536.46 28.102 534.93 27.1339 533.248 26.5203C531.566 25.9066 529.772 25.6619 527.988 25.8025C524.963 25.4015 521.9 26.186 519.441 27.9919C516.982 29.7978 515.317 32.4851 514.794 35.4911C514.379 38.0331 514.463 40.6315 515.04 43.1415C519.097 60.2147 574.117 69.1451 580.251 99.7271C581.772 107.636 581.856 115.754 580.497 123.693C576.942 148.17 555.379 157.091 529.297 157.091C501.856 157.11 476.473 147.136 476.473 114.772ZM615.51 120.138C615.156 116.918 615.074 113.674 615.263 110.44V4.88942H652.305V113.738C652.257 115.612 652.339 117.488 652.551 119.35C653.377 122.42 655.193 125.131 657.716 127.065C660.239 128.998 663.329 130.046 666.508 130.046C669.686 130.046 672.776 128.998 675.299 127.065C677.822 125.131 679.638 122.42 680.464 119.35C680.684 117.488 680.77 115.613 680.72 113.738V4.88942H717.781V110.42C717.781 113.226 717.525 118.582 717.525 120.118C714.995 147.687 693.422 156.549 666.532 156.549C639.642 156.549 618.05 147.638 615.51 120.118V120.138ZM920.483 118.602C920.106 115.37 919.935 112.118 919.971 108.864V46.952C919.971 44.4018 920.217 39.8136 920.473 37.2536C923.772 9.7337 945.847 1.06913 971.978 1.06913C997.864 1.06913 1020.69 9.7337 1023.24 37.2634C1023.54 40.4868 1023.62 43.7272 1023.48 46.9618V51.7569H986.442V43.6437C986.448 41.7614 986.28 39.8827 985.94 38.0314C984.966 34.9234 983.026 32.2075 980.401 30.2792C977.777 28.3509 974.605 27.311 971.348 27.311C968.091 27.311 964.919 28.3509 962.295 30.2792C959.67 32.2075 957.729 34.9234 956.756 38.0314C956.327 40.3023 956.159 42.6146 956.254 44.9237V112.212C956.211 114.086 956.297 115.962 956.51 117.824C957.388 121.162 959.429 124.077 962.264 126.044C965.1 128.011 968.544 128.902 971.978 128.557C975.351 128.916 978.738 128.024 981.496 126.051C984.255 124.078 986.194 121.161 986.944 117.854C987.286 116.004 987.372 114.115 987.2 112.242V90.7967H972.234V69.3814H1024V108.864C1024.03 112.101 1023.86 115.338 1023.48 118.553C1020.95 145.315 997.883 154.747 971.978 154.747C946.073 154.747 923.013 145.344 920.483 118.582V118.602ZM404.173 151.971L403.188 15.8481L377.785 151.971H340.744L315.617 15.8481L314.632 151.971H278.074L281.116 5.14541H340.744L359.265 119.862L377.785 5.14541H437.403L440.702 151.971H404.173ZM209.318 151.971L189.528 15.8481L169.225 151.971H129.654L156.553 5.14541H221.764L248.663 151.971H209.318ZM829.397 150.444L792.612 28.3428L794.64 150.435H758.603V5.14541H812.895L847.356 123.427L845.377 5.14541H881.66V150.454L829.397 150.444Z" fill="black"/>
</g>
<defs>
<clipPath id="clip0_741_59">
<rect width="1024" height="157.538" fill="white" transform="translate(0 0.557129)"/>
</clipPath>
</defs>
</svg>
