<svg width="1024" height="404" viewBox="0 0 1024 404" fill="none" xmlns="http://www.w3.org/2000/svg">
<g clip-path="url(#clip0_824_232)">
<path d="M546.351 315.711C516.812 315.711 494.187 309.426 477.846 296.857C469.868 290.451 463.457 282.31 459.1 273.052C454.744 263.795 452.557 253.666 452.707 243.435H495.444C495.616 248.86 496.937 254.186 499.32 259.061C501.704 263.936 505.095 268.25 509.271 271.717C519.955 278.002 531.896 281.144 544.466 280.516C549.494 280.516 555.15 279.888 560.178 278.631C565.036 277.743 569.711 276.043 574.005 273.603C577.147 271.717 580.289 268.575 582.803 265.432C585.317 261.033 586.574 256.634 586.574 252.234C586.574 247.206 585.317 242.807 582.803 239.036C579.661 235.265 576.518 232.751 572.119 230.237L555.15 223.952L533.153 218.924L504.871 211.383C496.701 208.869 488.531 205.098 481.617 200.07C474.704 195.67 469.048 189.386 465.277 182.472C460.762 173.75 458.596 164.003 458.992 154.19C458.449 144.725 460.294 135.275 464.357 126.709C468.421 118.143 474.572 110.736 482.246 105.169C490.416 99.5122 499.215 95.1128 508.642 92.5989C519.527 89.8603 530.73 88.5921 541.952 88.828C562.692 87.571 583.432 93.8558 601.029 106.426C608.484 112.556 614.531 120.22 618.76 128.896C622.99 137.571 625.302 147.056 625.54 156.704H583.432C583.22 151.8 581.927 147.004 579.646 142.658C577.364 138.312 574.15 134.524 570.234 131.565C561.435 126.537 551.379 123.395 541.323 124.023C531.421 123.488 521.581 125.893 513.042 130.936C509.741 132.841 507.01 135.594 505.132 138.909C503.253 142.224 502.295 145.981 502.357 149.791C502.357 153.562 503.614 157.333 505.5 160.475C508.014 164.246 510.528 166.76 514.299 168.646C526.066 172.766 538.02 176.331 550.122 179.33L581.546 187.5C590.345 190.014 599.144 193.785 606.686 199.441C614.228 203.841 619.884 210.126 624.283 218.296C628.683 227.095 630.568 237.15 630.568 247.206C630.568 257.262 628.683 267.318 624.283 276.117C620.235 284.735 614.205 292.273 606.686 298.114C598.516 304.398 589.717 308.798 580.289 311.312C568.977 314.454 557.664 316.34 546.351 315.711ZM699.073 239.664L681.476 258.519V311.312H640.624V92.5989H681.476V214.525L736.154 154.819H785.176L728.612 214.525L792.089 310.683H741.81L699.702 239.664H699.073ZM795.86 92.5989H837.34V130.308H795.86V92.5989ZM795.86 154.19H837.34V311.312H795.86V154.19ZM996.347 142.878V124.652H1024V93.2274C1014.82 92.0965 1005.53 92.0965 996.347 93.2274C988.571 94.1907 981.081 96.7589 974.35 100.769C968.065 104.54 963.037 109.568 959.894 115.853C956.255 123.494 954.529 131.907 954.867 140.364V154.19H908.987V124.652H935.384V94.4843C926.585 93.2274 917.158 93.2274 908.359 94.4843C900.817 95.1128 893.904 97.6268 886.99 101.398C880.705 105.169 876.306 110.825 872.535 117.11C868.971 124.553 867.247 132.744 867.507 140.992V153.562H846.767V183.101H867.507V311.312H908.987V183.101H954.867V311.312H996.347V183.101H1024V154.19H996.347V142.878ZM256.62 21.58C274.217 21.58 291.186 24.7225 306.898 31.6358C271.395 9.04576 229.651 -1.72282 187.651 0.87397C145.651 3.47076 105.551 19.2995 73.1018 46.091L65.56 53.0043L58.0181 60.5461L50.4763 68.088L44.1915 76.2583L37.9066 82.5431L31.6218 91.3419L29.1078 95.7413C29.1078 96.9983 27.2224 98.8837 26.5939 99.5122L22.1945 108.311L17.7951 117.738L14.0242 125.909L10.8817 134.079L8.99629 140.364L5.22538 152.933L3.33992 162.989V164.875C-5.45887 212.011 3.33992 261.033 27.2224 303.141L35.3927 315.711L39.7921 321.996L44.1915 327.652L50.4763 335.194L58.0181 342.736L63.046 347.764L66.1884 350.278L67.4454 350.906L68.7024 352.163L74.3588 356.563L75.6157 357.191L76.8727 358.448L83.1575 362.219L86.3 363.476L90.6994 365.99C91.9563 366.618 93.8418 367.875 95.7273 367.875L106.412 372.275L112.068 373.532L117.096 374.789L122.124 375.417L140.35 377.303C170.779 376.174 199.598 363.34 220.796 341.479C231.48 330.166 239.65 316.34 245.935 301.884L246.564 298.742L248.449 293.714L250.335 285.544L251.592 281.773L252.849 266.061V260.404L241.536 259.147C211.42 255.513 183.855 240.435 164.551 217.035C145.246 193.636 135.681 163.708 137.836 133.45C139.581 103.15 152.739 74.6352 174.661 53.6456C196.584 32.6559 225.643 20.7496 255.991 20.3231L256.62 21.58ZM90.0709 324.51C69.851 306.83 53.7583 284.928 42.9288 260.349C32.0994 235.769 26.7972 209.113 27.3966 182.26C27.996 155.408 34.4823 129.014 46.3977 104.943C58.3131 80.871 75.3671 59.7083 96.3557 42.9485L101.384 39.1776C126.334 20.9688 155.555 9.49673 186.229 5.86791L195.028 5.23942H211.997H203.198L195.028 7.12488L186.229 9.01033C147.379 16.0446 111.926 35.6742 85.3455 64.8676C58.7648 94.061 42.5353 131.194 39.1636 170.531C35.2432 218.252 50.1287 265.615 80.6436 302.513L81.9006 304.398V305.027L83.1575 306.284C97.6 323.863 117.453 336.169 139.621 341.285C161.789 346.401 185.027 344.038 205.712 334.566C187.62 344.698 166.879 349.101 146.231 347.193C125.583 345.286 106 337.157 90.0709 323.881V324.51ZM115.21 290.572L113.325 289.943L112.696 289.315L107.668 284.287C90.9295 266.359 78.4411 244.893 71.1296 221.48C63.818 198.067 61.8709 173.309 65.4326 149.041C68.9943 124.774 77.9734 101.619 91.704 81.2948C105.435 60.9705 123.565 43.9979 144.749 31.6358L155.433 25.351L159.204 24.094L164.232 21.58C177.43 16.5522 191.257 13.4097 205.084 11.5243L212.626 10.8958H218.91L236.508 11.5243C206.939 11.395 177.906 19.417 152.597 34.7092C127.289 50.0015 106.685 71.9724 93.0468 98.2092C79.4089 124.446 73.2651 153.934 75.2902 183.434C77.3153 212.934 87.4309 241.305 104.526 265.432L109.554 271.717L117.096 280.516C130.243 295.311 147.936 305.316 167.391 308.957C186.846 312.597 206.959 309.667 224.567 300.628C191.886 324.51 144.121 317.597 115.21 290.572ZM134.693 237.15C140.978 245.949 148.52 254.12 156.69 261.661C167.114 270.067 179.444 275.781 192.595 278.302C205.746 280.822 219.316 280.072 232.109 276.117C221.459 280.801 209.902 283.062 198.273 282.736C186.643 282.41 175.231 279.505 164.861 274.231C154.805 269.203 144.749 261.661 137.207 252.863C123.571 238.046 113.241 220.499 106.902 201.386C100.563 182.273 98.3607 162.031 100.441 142.002C102.521 121.973 108.836 102.615 118.967 85.213C129.098 67.8105 142.814 52.7611 159.204 41.0631L165.489 37.2922L175.545 31.0073L183.715 27.2364C198.799 20.9516 214.511 17.1806 230.852 16.5522H249.706L257.876 18.4376H242.793C208.153 20.7727 175.443 35.2364 150.405 59.2892C127.297 82.3597 113.056 112.834 110.183 145.361C107.309 177.887 115.988 210.386 134.693 237.15Z" fill="black"/>
<path d="M323.239 357.82C325.124 356.563 329.524 351.535 331.409 350.907L338.951 343.365L345.864 335.823L352.778 327.653L358.434 320.74L364.719 311.941L367.233 307.541L369.118 303.77L374.146 294.972L378.546 285.544L382.317 277.374L384.831 269.204L387.344 262.919L390.487 250.349L393.001 240.293V238.408C397.946 211.116 397.263 183.102 390.995 156.084C384.727 129.066 373.005 103.613 356.549 81.2866L352.149 76.2587L345.864 68.0884L338.323 61.1751L333.295 56.1472L330.152 53.6333L328.895 53.0048L327.638 51.7478L321.982 47.3484L320.725 46.7199L319.468 45.463L313.183 41.692L310.041 40.4351L305.641 37.9211L300.613 35.4072L289.929 31.6363L283.644 30.3793L279.245 29.1223L274.217 27.8654L255.991 26.6084C225.561 27.7373 196.742 40.5708 175.545 62.4321C164.861 73.7448 156.69 87.5715 150.406 101.398L149.149 105.169L147.892 110.197L145.378 118.367V122.138C144.209 127.317 143.369 132.565 142.864 137.85V144.135C166.485 144.249 189.517 151.516 208.926 164.979C228.335 178.442 243.21 197.469 251.592 219.553C261.523 245.651 261.994 274.404 252.923 300.813C243.852 327.222 225.812 349.617 201.941 364.105C185.198 374.634 166.124 380.885 146.397 382.31C126.671 383.735 106.896 380.289 88.814 372.275C130.477 399.164 180.78 409.269 229.595 400.557C264.161 394.272 296.214 379.817 323.867 357.82H323.239ZM306.898 78.7727C326.001 95.6807 341.396 116.361 352.114 139.512C362.831 162.663 368.638 187.782 369.169 213.287C369.701 238.793 364.945 264.132 355.201 287.709C345.457 311.286 330.937 332.589 312.555 350.278L306.27 356.563L303.127 359.077L301.242 360.334L299.985 360.963L295.586 364.734L276.731 376.675L269.189 381.074C243.421 393.644 213.883 399.929 184.344 398.672C229.324 396.313 271.88 377.55 303.961 345.933C336.041 314.315 355.421 272.037 358.434 227.095C360.721 184.241 347.812 141.954 321.982 107.683L316.954 101.398L315.697 99.5127L315.069 98.8842L314.44 98.2557C300.042 80.4298 280.115 67.9098 257.807 62.6743C235.499 57.4387 212.082 59.786 191.257 69.3454C209.357 58.9879 230.187 54.4012 250.964 56.1981C271.74 57.9949 291.474 66.0899 307.527 79.4012L306.898 78.7727ZM277.36 108.311L284.273 114.596C303.512 132.93 317.95 155.712 326.316 180.937C334.682 206.161 336.72 233.056 332.251 259.253C327.781 285.45 316.941 310.147 300.684 331.171C284.427 352.194 263.252 368.9 239.022 379.817L235.251 381.074L233.994 381.703H233.366L231.48 382.96L223.938 385.474C203.827 391.758 182.458 394.272 161.09 391.758C191.023 391.817 220.379 383.524 245.857 367.812C271.335 352.1 291.925 329.593 305.311 302.82C318.698 276.047 324.35 246.07 321.633 216.261C318.915 186.451 307.936 157.991 289.929 134.079L285.53 129.052L279.245 121.51C265.982 107.065 248.33 97.3909 229.018 93.9829C209.706 90.5749 189.809 93.6227 172.403 102.655C203.827 80.6581 248.449 85.0575 277.988 108.94L277.36 108.311ZM198.799 375.418L205.084 372.904L210.74 369.761L218.282 365.99L224.567 361.591L232.109 356.563C259.729 335.629 278.481 305.085 284.65 270.981C290.819 236.878 283.955 201.7 265.418 172.417L261.647 166.132L257.877 161.733L253.477 156.076C243.416 142.797 229.535 132.911 213.696 127.744C197.857 122.577 180.817 122.375 164.861 127.166C177.81 121.537 192.02 119.444 206.043 121.1C220.065 122.756 233.397 128.103 244.678 136.593C264.671 152.48 279.989 173.484 289.006 197.375C298.023 221.266 300.402 247.154 295.89 272.288C291.379 297.423 280.146 320.867 263.383 340.131C246.621 359.395 224.954 373.761 200.684 381.703C180.938 387.709 160.058 389.001 139.721 385.474C159.833 386.102 179.944 382.96 198.799 375.418Z" fill="black"/>
</g>
<defs>
<clipPath id="clip0_824_232">
<rect width="1024" height="403.113" fill="white" transform="translate(0 0.494141)"/>
</clipPath>
</defs>
</svg>
