<svg width="1025" height="248" viewBox="0 0 1025 248" fill="none" xmlns="http://www.w3.org/2000/svg">
<g clip-path="url(#clip0_824_188)">
<path d="M194.234 0.404297L216.844 32.1142L331.242 0.404297M75.3746 247.301L137.258 186.8L100.012 146.829M184.864 0.404297L151.789 30.23L207.419 32.3053M56.2839 0.404297L68.1623 24.7516L133.63 28.8305M91.332 126.65L139.699 36.4218L-0.759766 28.8305M96.964 132.371L142.651 181.447L193.049 132.046L208.689 40.0331L147.273 36.8997" fill="#29B2FE"/>
<path d="M290.91 116.124H278.383L267.412 185.366C267.125 187.182 265.409 188.664 263.589 188.664H238.535C236.719 188.664 235.474 187.182 235.76 185.366L251.141 88.2571C255.032 63.6982 267.429 58.2539 284.411 58.2539C289.684 58.2539 295.21 58.7522 299.532 59.5749C301.457 59.906 302.757 61.0597 302.467 62.8721L299.986 78.5393C299.699 80.3484 298.006 81.6694 296.026 81.6694H289.107C284.987 81.6694 283.571 83.3146 282.793 88.2639L282.086 92.7115H294.613C296.429 92.7115 297.675 94.1929 297.388 96.0122L294.726 112.826C294.432 114.642 292.712 116.124 290.903 116.124H290.91ZM353.442 117.277H351.138C344.048 117.277 337.133 118.267 331.579 121.066L321.449 185.032C321.162 186.851 319.554 188.66 317.574 188.66H292.848C290.869 188.66 289.51 186.851 289.797 185.035L303.894 96.0156C304.184 94.1963 305.406 92.7115 307.717 92.7115H331.453C333.76 92.7115 334.621 93.5375 334.228 96.0122L333.603 99.9648C342.249 92.2166 348.315 91.3905 357.053 91.3905C359.852 91.3905 360.241 92.0493 359.825 94.6912L356.637 114.803C356.329 116.782 355.585 117.277 353.442 117.277ZM436.27 149.591H385.001L384.954 149.919C383.568 158.657 386.336 164.095 398.368 164.095C407.106 164.095 423.388 163.275 429.897 162.774C432.559 162.603 433.467 163.098 433.071 165.573L430.726 180.414C430.31 183.052 429.464 184.202 426.699 185.032C415.599 188.5 403.966 190.145 390.118 190.145C367.863 190.145 349.114 178.437 354.101 146.953L355.824 136.071C360.415 107.058 379.735 91.2301 406.772 91.2301C435.621 91.2301 446.073 109.526 441.871 136.068L440.301 145.966C439.96 148.103 438.236 149.584 436.259 149.584L436.27 149.591ZM412.247 131.62C413.817 121.728 410.796 115.792 402.553 115.792C394.641 115.792 389.418 121.732 387.852 131.62L387.776 132.115H412.172L412.247 131.62ZM527.515 149.591H476.247L476.199 149.919C474.813 158.657 477.581 164.095 489.613 164.095C498.351 164.095 514.633 163.275 521.142 162.774C523.805 162.603 524.719 163.098 524.327 165.573L521.979 180.414C521.562 183.052 520.716 184.202 517.951 185.032C506.851 188.5 495.218 190.145 481.37 190.145C459.115 190.145 440.366 178.437 445.353 146.953L447.076 136.071C451.674 107.058 470.994 91.2301 498.031 91.2301C526.88 91.2301 537.332 109.526 533.13 136.068L531.567 145.966C531.225 148.103 529.501 149.584 527.525 149.584L527.515 149.591ZM503.485 131.62C505.055 121.728 502.038 115.792 493.798 115.792C485.886 115.792 480.657 121.732 479.093 131.62L479.015 132.115H503.407L503.485 131.62ZM560.972 188.664H536.082C534.267 188.664 532.744 186.855 533.031 185.039L552.118 64.5208C552.405 62.7117 554.453 61.2269 556.265 61.2269H581.159C582.975 61.2269 584.221 62.7049 583.934 64.5174L564.847 185.035C564.56 186.844 562.788 188.66 560.976 188.66L560.972 188.664ZM648.582 188.664H625.669C623.86 188.664 622.607 187.182 622.894 185.366L623.447 181.905C616.449 186.52 607.636 190.145 598.57 190.145C585.548 190.145 571.53 182.892 575.052 160.637L575.366 158.657C578.5 138.873 594.625 131.784 622.153 131.784H629.243L630 127.005C631.28 118.929 628.874 117.448 620.634 117.448C611.401 117.448 596.434 118.267 591.764 118.602C588.938 118.765 588.351 117.281 588.658 115.301L591.194 99.3129C591.587 96.8416 593.037 96.019 595.119 95.3534C600.82 93.7082 615.36 91.394 625.915 91.394C649.818 91.394 665.932 99.9717 661.652 127.009L652.409 185.37C652.119 187.186 650.395 188.667 648.586 188.667L648.582 188.664ZM627.512 148.933H619.436C611.193 148.933 607.479 151.571 606.383 158.49L606.121 160.142C605.233 165.75 608.762 167.399 613.377 167.399C617.337 167.399 621.969 166.238 624.983 164.927L627.509 148.933H627.512ZM743.784 188.664H719.058C717.078 188.664 715.719 186.855 716.006 185.039L724.857 129.149C726.239 120.411 723.884 117.612 716.46 117.612C712.671 117.612 707.654 119.09 703.551 121.073L693.423 185.039C693.137 186.855 691.529 188.664 689.549 188.664H664.823C662.843 188.664 661.485 186.855 661.772 185.039L675.865 96.0122C676.155 94.1963 677.872 92.7115 679.688 92.7115H702.602C704.418 92.7115 705.664 94.1929 705.377 96.0122L704.776 99.801C714.555 93.2064 724.075 91.3905 733.312 91.3905C759.185 91.3905 759.615 109.526 756.509 129.142L747.658 185.035C747.368 186.855 745.76 188.664 743.784 188.664ZM816.914 187.51C811.101 188.828 803.637 190.145 793.915 190.145C768.691 190.145 757.075 173.99 761.359 146.953L763.318 134.59C767.578 107.717 784.365 91.2301 809.586 91.2301C819.314 91.2301 827.318 92.7081 831.752 93.8584C833.814 94.3567 834.838 95.1828 834.496 97.3263L831.547 115.956C831.233 117.936 830.011 119.417 827.588 119.086C822.058 118.598 816.89 117.936 808.815 117.936C801.728 117.936 796.902 122.39 794.97 134.593L793.011 146.949C791.079 159.152 794.523 163.436 801.612 163.436C809.685 163.436 815.013 163.108 820.727 162.446C823.253 162.122 824.031 163.436 823.697 165.579L820.768 184.045C820.427 186.196 819.14 187.015 816.911 187.513L816.914 187.51ZM913.672 149.591H862.404L862.353 149.919C860.967 158.657 863.735 164.095 875.767 164.095C884.505 164.095 900.787 163.275 907.296 162.774C909.958 162.603 910.87 163.098 910.481 165.573L908.125 180.414C907.716 183.052 906.869 184.202 904.098 185.032C893.004 188.5 881.365 190.145 867.52 190.145C845.266 190.145 826.513 178.437 831.5 146.953L833.223 136.071C837.818 107.058 857.137 91.2301 884.174 91.2301C913.017 91.2301 923.475 109.526 919.27 136.068L917.7 145.966C917.359 148.103 915.638 149.584 913.662 149.584L913.672 149.591ZM889.642 131.62C891.212 121.728 888.195 115.792 879.948 115.792C872.04 115.792 866.814 121.732 865.247 131.62L865.169 132.115H889.564L889.642 131.62ZM965.51 92.7115L950.833 185.035C950.546 186.855 948.939 188.664 946.959 188.664H922.233C920.253 188.664 918.895 186.855 919.181 185.039L928.923 123.961L965.514 92.7183L965.51 92.7115Z" fill="#161F2B"/>
<path d="M973.938 92.7109L968.873 124.387L1023.25 92.7109" fill="#29B2FE"/>
</g>
<defs>
<clipPath id="clip0_824_188">
<rect width="1024" height="247.293" fill="white" transform="translate(0.0253906 0.404297)"/>
</clipPath>
</defs>
</svg>
