<svg width="887" height="512" viewBox="0 0 887 512" fill="none" xmlns="http://www.w3.org/2000/svg">
<path d="M0.767395 347.362C0.767395 255.999 75.5741 184.871 173.068 184.871C229.48 184.871 280.987 210.011 310.419 248.028L268.109 290.336C256.888 275.968 242.569 264.317 226.221 256.248C209.872 248.18 191.912 243.903 173.682 243.735C115.43 243.735 68.8291 287.271 68.8291 347.362C68.8291 408.066 115.43 451.601 173.682 451.601C192.565 451.579 211.188 447.194 228.099 438.793C245.009 430.39 259.752 418.196 271.176 403.16L312.872 444.244C284.666 484.099 230.706 510.465 173.068 510.465C75.5741 510.465 0.767395 439.337 0.767395 347.362Z" fill="#255BE3"/>
<path d="M368.057 195.909H434.893V499.429H368.057V195.909Z" fill="#255BE3"/>
<path d="M559.368 417.876V252.321H486.4V195.909H562.433V130.912L624.977 100.253V195.909H724.311V252.321H624.977V406.84C624.977 437.499 642.146 450.989 674.644 450.989C691.553 451.076 708.284 447.52 723.697 440.563V498.203C704.385 506.676 683.465 510.861 662.381 510.465C602.902 510.465 559.368 477.968 559.368 417.876Z" fill="#255BE3"/>
<path d="M777.045 195.909H843.88V499.429H777.045V195.909Z" fill="#255BE3"/>
<path d="M605.355 2.75934C660.246 2.62802 714.364 15.7081 763.136 40.8937C811.909 66.0808 853.903 102.634 885.576 147.468H807.703C782.177 119.097 750.973 96.4116 716.114 80.8823C681.253 65.3529 643.518 57.328 605.355 57.328C567.194 57.328 529.456 65.3529 494.597 80.8823C459.737 96.4116 428.532 119.097 403.008 147.468H325.135C356.806 102.634 398.803 66.0808 447.574 40.8937C496.347 15.7081 550.463 2.62802 605.355 2.75934Z" fill="#FF3C28"/>
</svg>
