<svg width="1024" height="251" viewBox="0 0 1024 251" fill="none" xmlns="http://www.w3.org/2000/svg">
<g clip-path="url(#clip0_806_280)">
<path d="M954.532 167.346L986.33 183.059V186.631L963.351 175.852L963.841 185.102L956.835 189.36L985.889 204.058L985.644 207.63L964.478 197.302L964.723 210.325C964.748 210.539 964.716 210.756 964.63 210.954C964.544 211.152 964.407 211.324 964.233 211.452L955.267 218.438C955.118 218.572 954.935 218.661 954.739 218.698C954.542 218.734 954.34 218.716 954.153 218.645C953.966 218.575 953.802 218.454 953.679 218.297C953.555 218.139 953.478 217.951 953.454 217.752L929.79 14.1277C929.795 13.8963 929.862 13.6704 929.982 13.4727C930.102 13.2749 930.273 13.1122 930.475 13.0008L953.209 0.898991C953.47 0.731957 953.786 0.674289 954.088 0.738489C954.391 0.802689 954.656 0.983582 954.826 1.24196C954.9 1.49806 954.9 1.76978 954.826 2.02588L956.835 41.8248L943.557 47.8953L990.593 67.1848L990.152 73.5003L957.717 60.9183L958.158 77.758L946.889 84.1274L989.27 101.457V106.597L959.285 95.1416L959.971 109.84L949.388 115.47L987.898 132.309V137.209L960.461 126.195L960.902 137.895L952.327 142.888L987.212 158.404V162.907L962.029 151.893L962.469 162.672L954.532 167.346ZM1023.96 25.769L1000.24 227.071V227.757L988.535 237.556C988.471 237.622 988.395 237.673 988.311 237.709C988.227 237.744 988.136 237.762 988.045 237.762C987.954 237.762 987.863 237.744 987.779 237.709C987.695 237.673 987.619 237.622 987.555 237.556C987.506 237.43 987.506 237.29 987.555 237.164L997.305 41.0556C997.305 40.6146 997.795 40.3696 997.991 39.9287L1022.49 24.9018C1022.58 24.8144 1022.68 24.745 1022.79 24.6977C1022.91 24.6503 1023.03 24.626 1023.15 24.626C1023.27 24.626 1023.4 24.6503 1023.51 24.6977C1023.62 24.745 1023.73 24.8144 1023.81 24.9018C1023.9 25.0283 1023.96 25.1733 1023.99 25.326C1024.01 25.4787 1024 25.6351 1023.96 25.7837V25.769ZM1020.14 212.725C1020.15 213.803 1019.84 214.859 1019.24 215.76C1018.65 216.661 1017.81 217.366 1016.81 217.785C1015.82 218.204 1014.73 218.319 1013.67 218.114C1012.61 217.91 1011.64 217.396 1010.87 216.637C1010.11 215.879 1009.58 214.91 1009.37 213.854C1009.15 212.797 1009.26 211.701 1009.67 210.705C1010.08 209.708 1010.78 208.856 1011.67 208.256C1012.57 207.656 1013.62 207.336 1014.7 207.336C1016.07 207.269 1017.41 207.747 1018.43 208.665C1019.45 209.583 1020.06 210.866 1020.14 212.236V212.725ZM1019.45 212.725C1019.45 211.756 1019.16 210.809 1018.63 210.003C1018.09 209.198 1017.32 208.57 1016.43 208.199C1015.53 207.828 1014.55 207.731 1013.6 207.92C1012.65 208.109 1011.77 208.576 1011.09 209.261C1010.4 209.946 1009.94 210.819 1009.75 211.77C1009.56 212.72 1009.65 213.705 1010.02 214.6C1010.4 215.496 1011.02 216.261 1011.83 216.799C1012.64 217.338 1013.58 217.625 1014.55 217.625C1015.17 217.665 1015.79 217.579 1016.38 217.372C1016.97 217.164 1017.5 216.841 1017.96 216.42C1018.42 215.999 1018.79 215.49 1019.04 214.923C1019.3 214.357 1019.44 213.744 1019.45 213.122V212.725ZM1015.87 213.411L1017 215.665H1015.87L1014.99 213.411H1013.62V215.665H1012.74V209.835H1014.99C1016.61 209.835 1017 210.717 1017 211.648C1016.99 212.017 1016.88 212.377 1016.69 212.688C1016.49 212.999 1016.21 213.249 1015.87 213.411ZM1015.87 211.599C1015.87 211.158 1015.87 210.717 1014.75 210.717H1013.38V212.53H1014.75C1015.68 212.53 1015.87 212.04 1015.87 211.579V211.599Z" fill="#0051A5"/>
<path d="M0 93.9261C0 71.1922 11.2689 58.6494 32.4839 58.6494H57.5695V73.054H34.6887C22.2929 73.054 16.8544 80.3054 16.8544 93.9751C16.8544 107.645 23.0278 115.288 36.0606 115.288H57.5695V129.693H32.6309C11.9549 129.84 0 117.15 0 93.9261Z" fill="black"/>
<path d="M65.6538 72.3682H81.5773V129.791H65.6538V72.3682Z" fill="black"/>
<path d="M168.985 72.3682L156.148 91.9663L143.36 72.3682H87.4077V85.4499H104.213V129.84H120.137V85.4499H135.129L148.211 105.44V129.938H164.134V105.44L185.79 72.3682H168.985Z" fill="black"/>
<path d="M201.204 58.748H221.145L250.249 106.225V58.748H266.613V129.84H246.672L217.569 83.3927V129.84H201.204V58.748Z" fill="black"/>
<path d="M313.11 120.041H291.258L287.632 129.84H271.513L294.296 72.3682H310.17L332.855 129.791H316.735L313.11 120.041ZM302.184 90.6434L295.618 107.645H308.651L302.184 90.6434Z" fill="black"/>
<path d="M341.821 85.4507H325.016V72.418H374.55V85.4507H357.647V129.841H341.821V85.4507Z" fill="black"/>
<path d="M381.409 72.3682H397.382V129.791H381.409V72.3682Z" fill="black"/>
<path d="M406.348 101.08C406.348 81.4815 416.931 71.4375 437.019 71.4375C457.107 71.4375 467.69 81.2366 467.69 101.08C467.69 120.923 457.156 130.771 437.019 130.771C416.882 130.771 406.348 120.825 406.348 101.08ZM451.228 101.08C451.228 88.2919 446.034 83.4414 437.019 83.4414C428.004 83.4414 422.81 88.3409 422.81 101.08C422.81 113.818 428.053 118.718 437.019 118.718C445.985 118.718 451.228 113.867 451.228 101.08Z" fill="black"/>
<path d="M492.09 95.151V129.84H476.705V72.3682H494.001L514.775 106.665V72.3682H530.208V129.791H513.256L492.09 95.151Z" fill="black"/>
<path d="M576.558 120.041H554.755L551.08 129.841H534.961L557.744 72.418H573.618L596.303 129.841H580.183L576.558 120.041ZM565.632 90.6442L559.066 107.646H572.246L565.632 90.6442Z" fill="black"/>
<path d="M601.006 72.3682H616.93V116.758H644.22V129.791H601.006V72.3682Z" fill="black"/>
<path d="M661.79 58.748H702.505C715.734 58.748 722.103 65.8524 722.103 76.7783C722.316 79.8305 721.59 82.8747 720.022 85.5022C718.454 88.1296 716.12 90.2145 713.333 91.4769C716.76 92.8646 719.639 95.3342 721.531 98.5096C723.424 101.685 724.227 105.392 723.818 109.066C723.818 122.442 716.126 129.742 701.917 129.742H661.986L661.79 58.748ZM677.714 87.8023H697.312C698.3 87.9554 699.308 87.912 700.279 87.6745C701.25 87.437 702.165 87.0102 702.97 86.4184C703.776 85.8266 704.457 85.0816 704.974 84.2261C705.491 83.3706 705.834 82.4213 705.984 81.4329C706.057 80.7653 706.057 80.0917 705.984 79.4241C705.984 74.5246 703.534 71.2909 697.263 71.2909H677.665L677.714 87.8023ZM677.714 116.514H698.586C704.759 116.514 706.915 113.28 706.915 108.037C706.915 102.795 703.877 99.8062 697.802 99.8062H677.714V116.514Z" fill="black"/>
<path d="M767.032 120.041H745.18L741.554 129.841H725.435L748.218 72.418H764.288L786.973 129.841H770.658L767.032 120.041ZM756.057 90.6442L749.59 107.744H762.769L756.057 90.6442Z" fill="black"/>
<path d="M807.11 95.151V129.84H791.677V72.3682H809.021L829.795 106.665V72.3682H845.18V129.791H828.227L807.11 95.151Z" fill="black"/>
<path d="M872.078 105.685V129.791H856.155V72.3682H872.078V94.1711L892.46 72.3682H911.274L885.356 100.149L912.401 129.791H893.587L872.078 105.685Z" fill="black"/>
<path d="M130.573 226.376L127.388 215.352H113.571L110.142 226.376H102.89L116.658 184.436H124.742L138.118 226.376H130.573ZM125.673 209.57C125.673 209.57 125.428 208.884 125.134 208.002C124.84 207.12 124.546 206.042 124.203 204.818C123.86 203.593 123.517 202.172 123.076 200.751C122.635 199.33 122.292 197.958 121.949 196.635L121.068 193.255C120.823 192.275 120.676 191.687 120.627 191.393C120.477 192.144 120.264 192.882 119.99 193.598C119.745 194.529 119.402 195.655 119.059 196.88L117.981 200.653L116.854 204.377C116.511 205.553 116.168 206.581 115.923 207.512C115.755 208.179 115.542 208.834 115.286 209.472H125.722L125.673 209.57Z" fill="#0051A5"/>
<path d="M166.878 226.375L157.471 206.777C156.932 205.601 156.344 204.426 155.805 203.201L154.237 199.771C153.747 198.644 153.355 197.615 152.963 196.733L152.131 194.381C152.08 196.25 152.194 198.119 152.473 199.967C152.645 201.956 152.645 203.956 152.473 205.944V226.228H145.614V184.484H153.502L163.693 204.964C164.183 205.944 164.673 206.973 165.114 208.002L166.388 211.04C166.78 212.02 167.123 212.902 167.368 213.735C167.613 214.568 167.809 215.057 168.005 215.694V184.631H174.619V226.522L166.878 226.375Z" fill="#0051A5"/>
<path d="M223.027 226.376L219.352 219.908C218.208 217.767 216.949 215.69 215.58 213.686C214.58 212.243 213.466 210.883 212.248 209.619C211.921 209.254 211.541 208.94 211.121 208.688C210.632 208.453 210.095 208.336 209.553 208.345V226.425H202.694V184.534H215.58C217.664 184.487 219.739 184.819 221.704 185.513C223.296 186.06 224.751 186.946 225.967 188.11C227.054 189.189 227.89 190.494 228.416 191.932C228.962 193.406 229.244 194.965 229.249 196.537C229.248 198.006 229 199.463 228.514 200.849C228.073 202.196 227.374 203.444 226.457 204.524C225.541 205.581 224.426 206.447 223.174 207.071C221.811 207.713 220.319 208.031 218.813 208.002C219.314 208.34 219.774 208.735 220.185 209.178C220.773 209.815 221.312 210.452 221.851 211.138C222.39 211.824 223.027 212.755 223.615 213.686C224.203 214.617 224.791 215.45 225.33 216.331L231.552 226.376H223.027ZM221.802 196.684C221.871 195.777 221.735 194.865 221.404 194.017C221.073 193.169 220.556 192.406 219.891 191.785C217.922 190.542 215.595 189.991 213.277 190.217H209.455V203.446H213.032C214.48 203.488 215.927 203.356 217.343 203.054C218.311 202.863 219.199 202.385 219.891 201.682C220.519 201.087 220.991 200.347 221.263 199.526C221.604 198.617 221.787 197.655 221.802 196.684Z" fill="#0051A5"/>
<path d="M268.789 214.567C268.925 216.306 268.608 218.05 267.87 219.63C267.132 221.21 265.996 222.572 264.575 223.583C260.896 225.712 256.666 226.701 252.424 226.424H240.077V184.533H255.168C256.139 184.576 257.105 184.69 258.059 184.876C258.797 185.014 259.52 185.227 260.214 185.513C260.904 185.76 261.562 186.089 262.174 186.493C263.66 187.292 264.901 188.48 265.764 189.93C266.627 191.38 267.08 193.037 267.074 194.724C267.129 196.807 266.472 198.846 265.212 200.506C263.837 202.173 261.966 203.357 259.871 203.886C261.401 204.243 262.858 204.856 264.183 205.699C265.26 206.336 266.181 207.207 266.878 208.247C267.536 209.162 268.018 210.193 268.299 211.285C268.643 212.344 268.808 213.454 268.789 214.567ZM259.675 195.9C259.708 194.752 259.383 193.622 258.745 192.666C258.165 191.762 257.304 191.074 256.295 190.707C255.809 190.506 255.298 190.374 254.776 190.315H247.084V201.584H252.914C253.935 201.61 254.955 201.511 255.952 201.29C256.765 201.084 257.499 200.641 258.059 200.016C258.688 199.412 259.145 198.651 259.381 197.811C259.59 197.196 259.689 196.549 259.675 195.9ZM261.047 213.881C261.091 212.489 260.696 211.118 259.92 209.962C259.299 208.903 258.302 208.116 257.128 207.757C256.615 207.612 256.09 207.513 255.56 207.463H247.182V220.741H253.453C254.512 220.839 255.579 220.71 256.584 220.364C257.59 220.017 258.51 219.461 259.283 218.732C259.899 218.089 260.377 217.327 260.688 216.493C261 215.659 261.139 214.771 261.096 213.881H261.047Z" fill="#0051A5"/>
<path d="M307.25 223.387C303.936 225.875 299.879 227.17 295.736 227.062C293.167 227.105 290.622 226.569 288.289 225.494C286.063 224.507 284.088 223.034 282.507 221.182C279.156 216.938 277.42 211.643 277.608 206.239C277.444 201.824 278.405 197.441 280.4 193.5C281.843 190.597 284.065 188.154 286.819 186.445C289.51 184.732 292.645 183.847 295.834 183.897C297.794 183.854 299.747 184.135 301.615 184.73C303.308 185.208 304.879 186.043 306.221 187.18L302.987 191.785C301.952 191.007 300.793 190.41 299.558 190.021C298.355 189.631 297.098 189.433 295.834 189.433C294.108 189.399 292.408 189.858 290.934 190.756C289.501 191.689 288.309 192.948 287.456 194.431C286.679 195.872 286.133 197.426 285.839 199.036C285.439 201.152 285.258 203.302 285.3 205.455C285.343 207.443 285.539 209.425 285.888 211.383C286.078 212.811 286.491 214.2 287.113 215.499C287.892 217.359 289.227 218.933 290.934 220.006C292.611 220.988 294.529 221.481 296.471 221.427C297.838 221.459 299.199 221.244 300.489 220.79C301.75 220.314 302.925 219.636 303.967 218.782L307.25 223.387Z" fill="#0051A5"/>
<path d="M359.087 223.387C355.862 225.829 351.912 227.123 347.867 227.061C345.298 227.105 342.753 226.569 340.42 225.494C338.106 224.539 336.044 223.064 334.393 221.182C331.046 216.936 329.31 211.642 329.494 206.238C329.353 201.826 330.313 197.448 332.286 193.5C333.763 190.605 335.999 188.167 338.754 186.444C341.451 184.644 344.624 183.689 347.867 183.701C349.827 183.658 351.78 183.939 353.648 184.533C355.332 185.033 356.899 185.866 358.254 186.983L355.02 191.589C353.974 190.801 352.796 190.203 351.542 189.825C350.356 189.432 349.116 189.233 347.867 189.237C346.14 189.194 344.438 189.654 342.967 190.56C341.534 191.493 340.342 192.752 339.489 194.235C338.696 195.673 338.134 197.227 337.823 198.84C337.463 200.96 337.299 203.109 337.333 205.259C337.317 207.308 337.464 209.356 337.774 211.383C337.964 212.811 338.377 214.199 338.999 215.499C339.778 217.359 341.113 218.933 342.82 220.006C344.497 220.988 346.415 221.48 348.357 221.427C349.708 221.46 351.053 221.244 352.326 220.79C353.602 220.315 354.793 219.636 355.853 218.781L359.087 223.387Z" fill="#0051A5"/>
<path d="M399.606 205.553C399.653 208.567 399.257 211.571 398.43 214.47C397.752 216.897 396.621 219.174 395.099 221.182C393.634 223.011 391.775 224.485 389.66 225.494C387.379 226.512 384.907 227.03 382.409 227.013C379.707 227.07 377.028 226.517 374.569 225.396C372.431 224.401 370.528 222.965 368.984 221.182C367.412 219.15 366.278 216.815 365.652 214.323C364.899 211.511 364.537 208.61 364.574 205.7C364.533 202.599 364.963 199.51 365.848 196.538C366.594 194.075 367.809 191.779 369.425 189.776C370.898 187.973 372.779 186.546 374.912 185.612C377.18 184.537 379.654 183.968 382.164 183.946C384.84 183.878 387.494 184.449 389.905 185.612C392.081 186.657 393.965 188.222 395.393 190.168C396.924 192.218 398.039 194.549 398.675 197.028C399.351 199.817 399.664 202.683 399.606 205.553ZM391.669 205.945C391.719 203.65 391.571 201.355 391.228 199.085C390.983 197.251 390.454 195.466 389.66 193.794C389.009 192.416 387.97 191.259 386.671 190.462C385.193 189.588 383.486 189.179 381.772 189.286C380.265 189.176 378.759 189.507 377.437 190.237C376.114 190.968 375.033 192.068 374.325 193.402C372.729 197.071 372.056 201.074 372.365 205.063C372.323 207.459 372.503 209.853 372.904 212.216C373.153 214.068 373.734 215.861 374.618 217.508C375.322 218.839 376.371 219.956 377.656 220.741C379.046 221.516 380.623 221.89 382.213 221.819C383.621 221.872 385.02 221.569 386.279 220.937C387.495 220.269 388.51 219.288 389.219 218.096C390.111 216.584 390.725 214.924 391.032 213.196C391.513 210.81 391.727 208.378 391.669 205.945Z" fill="#0051A5"/>
<path d="M444.143 226.376L442.232 200.409V193.157C442.076 194.132 441.864 195.098 441.595 196.048C441.35 197.322 441.007 198.547 440.615 199.87L432.629 226.376H426.651L419.694 201.045C419.498 200.36 419.302 199.625 419.106 198.841C419.019 198.075 418.854 197.32 418.616 196.587C418.469 195.852 418.273 195.215 418.126 194.627C418.005 194.225 417.907 193.816 417.832 193.402C417.832 193.745 417.832 194.137 417.832 194.676V201.143L416.02 226.474H409.16L413.031 184.583H422.291L428.709 208.297C429.128 209.748 429.471 211.22 429.738 212.706C429.983 213.882 430.13 214.764 430.277 215.352C430.37 214.41 430.533 213.477 430.767 212.559C431.012 211.334 431.404 209.865 431.796 208.444L438.41 184.583H447.719L451.394 226.474H444.535L444.143 226.376Z" fill="#0051A5"/>
<path d="M489.954 197.027C489.994 198.944 489.627 200.848 488.876 202.612C488.244 204.206 487.275 205.643 486.034 206.826C484.81 208.015 483.337 208.919 481.722 209.472C480.005 210.14 478.175 210.473 476.333 210.452H469.277V226.424H462.369V184.533H477.46C478.412 184.599 479.361 184.714 480.301 184.876C481.022 185.021 481.728 185.234 482.408 185.513C483.024 185.747 483.615 186.042 484.172 186.395C485.967 187.445 487.454 188.949 488.484 190.756C489.497 192.688 490.002 194.846 489.954 197.027ZM482.212 197.468C482.367 195.57 481.769 193.686 480.546 192.225C479.871 191.532 479.052 190.997 478.146 190.658C477.032 190.254 475.851 190.071 474.667 190.119H469.228V204.817H474.667C475.695 204.918 476.734 204.81 477.719 204.498C478.704 204.187 479.616 203.678 480.399 203.004C481.061 202.252 481.562 201.374 481.874 200.422C482.185 199.47 482.3 198.465 482.212 197.468Z" fill="#0051A5"/>
<path d="M519.057 226.376L515.676 215.352H502.055L498.675 226.376H491.423L505.24 184.436H513.275L526.651 226.376H519.057ZM514.157 209.57C514.113 209.01 513.928 208.471 513.618 208.002L512.736 204.818C512.344 203.544 512.001 202.172 511.56 200.751C511.119 199.33 510.825 197.958 510.434 196.635L509.552 193.255C509.369 192.646 509.238 192.023 509.16 191.393C509.01 192.144 508.797 192.882 508.523 193.598C508.278 194.529 507.984 195.655 507.592 196.88L506.514 200.653L505.436 204.377C505.044 205.553 504.75 206.581 504.456 207.512L503.868 209.472H514.255L514.157 209.57Z" fill="#0051A5"/>
<path d="M555.362 226.375L545.955 206.777C545.416 205.601 544.828 204.426 544.289 203.201C543.75 201.976 543.26 200.849 542.77 199.771C542.281 198.693 541.84 197.615 541.497 196.733C541.154 195.851 540.86 194.969 540.615 194.381C540.615 196.145 540.713 198.007 540.909 199.967V226.228H534.049V184.484H541.938L552.129 204.964C552.668 205.944 553.109 206.973 553.549 208.002C553.99 209.031 554.431 210.109 554.823 211.04C555.215 211.971 555.558 212.902 555.852 213.735C556.094 214.373 556.29 215.028 556.44 215.694V184.631H563.055V226.522L555.362 226.375Z" fill="#0051A5"/>
<path d="M589.659 209.522V226.425H582.408V209.473L569.228 184.583H577.655L583.927 197.714C584.515 198.89 585.005 200.017 585.445 201.094L586.18 203.103C586.435 202.385 586.73 201.682 587.062 200.996L588.483 197.812L594.902 184.583H602.986L589.659 209.522Z" fill="#0051A5"/>
<path d="M71.7782 239.55C71.8984 240.761 71.6056 241.976 70.9473 242.999C70.2891 244.022 69.3041 244.792 68.1525 245.185C48.3057 252.387 26.5592 252.387 6.71236 245.185C5.56082 244.792 4.57583 244.022 3.91756 242.999C3.25929 241.976 2.96646 240.761 3.0867 239.55V160.472H71.6802L71.7782 239.55Z" fill="#0051A5"/>
<path d="M21.509 208.634C12.0529 202.706 8.86817 200.109 8.62319 196.189C8.60449 195.143 8.75336 194.101 9.06415 193.103L8.18223 192.515C7.45464 193.732 7.04989 195.115 7.00634 196.532C6.99278 198.435 7.55654 200.297 8.62319 201.873C10.2364 204.231 12.3014 206.246 14.6986 207.801C18.1048 210.201 20.8106 213.465 22.5379 217.257H23.0768V213.387C27.9883 215.487 32.0939 219.111 34.7867 223.725H35.3257C34.4437 218.825 31.602 214.906 21.509 208.634Z" fill="#FEDF01"/>
<path d="M49.4363 195.65C47.4539 196.496 45.7541 197.89 44.5367 199.668H48.7993C48.9071 198.385 49.087 197.109 49.3383 195.846M64.6738 211.035C65.1067 209.989 65.3712 208.881 65.4577 207.752L59.2353 207.409C59.0004 208.938 58.5894 210.434 58.0105 211.868L64.6738 211.035ZM57.9615 195.601C58.3534 196.728 58.6964 197.904 58.9904 199.08H62.616C61.2707 197.608 59.59 196.482 57.7165 195.797M56.0506 199.472C55.6208 197.952 55.0123 196.488 54.2378 195.112H52.67C52.0917 196.6 51.6009 198.122 51.2001 199.668L56.0506 199.472ZM59.0884 201.383C59.2108 202.834 59.2108 204.293 59.0884 205.744L65.0658 205.45C64.9222 204.118 64.5405 202.824 63.9389 201.628L59.0884 201.383ZM57.0795 205.842C56.9802 204.296 56.7838 202.757 56.4916 201.236L50.4652 200.991C50.0808 202.718 49.8188 204.47 49.6812 206.233L57.0795 205.842ZM57.9615 193.005L58.6964 191.976L57.5695 190.555V190.212L60.6562 191.878L59.9703 193.887C60.5207 194.166 61.0454 194.494 61.5381 194.867L63.4979 191.584L58.5984 188.938H47.5254L38.2653 194.083C39.9146 195.153 41.4139 196.438 42.7239 197.904C43.9695 196.073 45.6314 194.564 47.5731 193.499C49.5149 192.435 51.6814 191.845 53.8948 191.78C55.4074 191.719 56.9183 191.935 58.3534 192.417M35.5706 192.27L40.4701 189.232C39.4069 188.692 38.2328 188.407 37.0404 188.399C34.9603 188.591 32.8969 188.935 30.867 189.428L35.3746 192.27M36.4035 180.756C35.7497 180.51 35.0401 180.454 34.3557 180.592C33.6713 180.731 33.0396 181.059 32.5329 181.54C33.0928 181.823 33.7212 181.941 34.3457 181.883C34.7515 181.862 35.1473 181.75 35.5037 181.555C35.86 181.36 36.1676 181.087 36.4035 180.756ZM65.1148 223.725H64.6738C64.6738 220.197 61.4401 219.266 58.0595 219.266H47.3785C47.7787 221.15 47.8615 223.088 47.6234 224.999H47.0845C46.1046 217.012 41.597 213.044 35.3256 208.83V212.456H34.7867C32.6967 208.499 29.6476 205.13 25.9185 202.657C24.9876 201.971 24.0567 201.285 23.0768 200.648V204.519H22.5378C20.7736 200.56 18.0853 197.082 14.6986 194.377C11.7111 192.199 9.34617 189.276 7.83922 185.9C7.28669 184.48 7.02028 182.965 7.05529 181.442C6.98681 180.1 7.26664 178.763 7.86761 177.561C8.46857 176.359 9.37023 175.333 10.485 174.582V176.101C9.5432 177.38 9.02883 178.923 9.0151 180.511C9.00806 182.115 9.39502 183.697 10.142 185.116C14.2982 190.42 19.418 194.891 25.2326 198.296C40.7151 208.634 43.8018 210.447 46.3986 215.935C46.7329 216.709 46.9953 217.513 47.1825 218.335L59.0394 216.522H60.2152C61.5814 215.63 62.7625 214.482 63.6939 213.142L57.7655 212.701L56.8836 214.367H56.3936C56.4774 213.769 56.6084 213.18 56.7856 212.603H55.2667V212.26H56.8836C57.2199 210.648 57.4004 209.007 57.4225 207.36L49.9262 206.478V208.634H49.4853C49.2803 207.926 49.1167 207.206 48.9953 206.478H47.3785V205.989H48.9463C48.7481 204.197 48.7481 202.39 48.9463 200.599H44.5857C44.7947 200.977 44.9749 201.37 45.1247 201.775C45.8663 204.086 46.0013 206.55 45.5166 208.928H44.8797C44.7735 207.245 44.3929 205.59 43.7528 204.029C41.8223 200.419 38.8752 197.455 35.2766 195.503V199.178H34.7377C33.2188 194.279 29.4462 191.731 23.8607 188.889C21.923 188.161 20.2928 186.792 19.241 185.01C18.1892 183.227 17.7793 181.138 18.0792 179.09L19.6471 180.021C19.6405 180.928 19.815 181.827 20.1605 182.665C20.5059 183.504 21.0153 184.265 21.6588 184.903C22.3023 185.542 23.0669 186.046 23.9077 186.386C24.7486 186.725 25.6487 186.893 26.5554 186.88C28.4343 186.862 30.3062 186.648 32.1409 186.243C34.3863 185.631 36.7548 185.631 39.0003 186.243V183.794H37.4814C36.5272 184.524 35.351 184.905 34.1497 184.871C33.5021 184.925 32.8502 184.849 32.2322 184.648C31.6142 184.447 31.0423 184.125 30.5498 183.701C30.0574 183.277 29.6542 182.759 29.3638 182.178C29.0734 181.597 28.9015 180.963 28.8582 180.315V179.531C28.8582 176.199 31.7 175.709 34.0027 175.709H37.9714C38.1949 175.725 38.4193 175.694 38.6301 175.618C38.841 175.542 39.0338 175.423 39.1962 175.268C39.4127 175.04 39.5501 174.748 39.5882 174.435C39.6364 173.914 39.6364 173.389 39.5882 172.868V170.418H28.9072V174.631L24.8406 173.113V172.182H26.8004V170.516H19.5981V167.037H17.1973C16.4597 167.01 15.7404 167.271 15.1917 167.765C14.643 168.259 14.308 168.947 14.2576 169.683C14.2576 171.398 14.8945 172.868 16.6584 172.868H16.9524V174.925H16.6584C15.2984 174.955 13.9783 174.465 12.9677 173.554C11.957 172.643 11.3319 171.382 11.2199 170.026V169.781C11.2711 168.243 11.9282 166.788 13.0479 165.732C14.1676 164.677 15.6591 164.107 17.1973 164.146H22.4398V167.282H42.7239V172.427C42.7727 173.357 42.7727 174.289 42.7239 175.219C42.6849 175.671 42.5513 176.11 42.3318 176.506C42.1124 176.903 41.8119 177.249 41.45 177.522C40.5326 178.059 39.4714 178.299 38.4123 178.208H34.7377C32.4349 178.208 31.7489 178.943 31.7 179.727C31.6521 179.903 31.6521 180.089 31.7 180.266C32.3013 179.777 33.0102 179.438 33.7682 179.276C34.5263 179.114 35.3119 179.134 36.0605 179.335C39.0983 180.315 39.9802 180.413 41.597 179.335V179.678C41.3539 180.076 41.0381 180.425 40.6661 180.707H42.185V188.693L46.7905 185.9H59.6763L65.9967 189.232C66.3257 189.389 66.6128 189.622 66.8343 189.912C67.0557 190.201 67.2053 190.539 67.2706 190.898C67.3397 191.56 67.2028 192.227 66.8786 192.809C66.1446 194.197 65.3265 195.538 64.4288 196.826C66.8023 199.386 68.1308 202.743 68.1525 206.233C68.1493 208.321 67.6712 210.381 66.7545 212.257C65.8377 214.133 64.5063 215.776 62.861 217.061C64.3951 217.545 65.7232 218.528 66.6336 219.854L65.1148 223.725Z" fill="#FEDF01"/>
<path d="M37.8734 240.775H35.4236V233.867H37.7264C40.9601 233.867 42.185 234.847 42.185 237.248C42.185 239.648 40.5682 240.873 37.8734 240.873M37.6284 227.008C39.5882 227.008 40.9111 227.449 40.9111 229.506C40.9111 231.564 39.1473 232.299 37.1385 232.299H35.4236V227.008H37.6284ZM41.5481 232.887C42.4586 232.782 43.3009 232.353 43.9215 231.678C44.5421 231.004 44.8996 230.129 44.9287 229.212C44.9287 227.4 44.1448 225.342 38.7553 225.342H29.3972C29.7742 225.464 30.1122 225.684 30.3771 225.979C30.9982 226.716 31.3138 227.662 31.259 228.624V242.294H39.1963C43.3609 242.294 46.3496 240.726 46.3496 237.101C46.3496 233.475 44.0958 232.936 41.744 232.74" fill="white"/>
<path d="M15.8745 227.007H18.5203C20.774 227.007 21.9009 227.644 21.9009 230.045C21.9009 232.446 20.3821 233.377 17.9323 233.377H15.8745V227.007ZM22.9298 242.49H27.8294L21.509 234.455C24.0567 233.769 25.9676 232.397 25.9676 229.898C25.9676 227.399 24.2037 225.391 19.5982 225.391H10.0441C10.4083 225.516 10.7422 225.716 11.024 225.979C11.3664 226.4 11.6209 226.886 11.7724 227.408C11.9239 227.93 11.9693 228.477 11.9059 229.016V242.343H15.8745V234.896H17.2954L22.9298 242.49Z" fill="white"/>
<path d="M62.1751 227.742C62.7679 228.04 63.249 228.521 63.5469 229.114L64.3799 226.174C62.7856 225.328 60.9883 224.938 59.1864 225.048C57.9327 224.865 56.6541 224.962 55.4426 225.333C54.2311 225.704 53.1168 226.338 52.1798 227.191C51.2428 228.043 50.5064 229.093 50.0235 230.264C49.5407 231.436 49.3234 232.699 49.3873 233.965C49.3142 235.046 49.4553 236.131 49.8027 237.158C50.1501 238.185 50.6968 239.133 51.4116 239.948C52.1263 240.763 52.9949 241.428 53.9676 241.907C54.9403 242.385 55.9978 242.666 57.0796 242.735C57.6338 242.784 58.1912 242.784 58.7454 242.735C60.7252 242.896 62.7073 242.452 64.4289 241.461V239.452C63.103 240.395 61.497 240.861 59.8723 240.775C58.3357 240.753 56.8646 240.149 55.7555 239.085C54.6463 238.021 53.9815 236.577 53.8949 235.043C53.8704 234.684 53.8704 234.324 53.8949 233.965C53.8949 228.722 56.0997 227.007 59.1864 227.007C60.2799 226.953 61.3666 227.208 62.3221 227.742" fill="white"/>
<path d="M76.8247 244.548H77.8536C77.9139 244.391 77.9139 244.216 77.8536 244.058C77.8678 243.93 77.8426 243.8 77.7813 243.687C77.7201 243.573 77.6256 243.48 77.5106 243.422H76.6287L76.8247 244.548ZM77.6576 242.491C77.8314 242.477 78.0062 242.498 78.1718 242.553C78.3374 242.607 78.4907 242.694 78.6227 242.808C78.7548 242.921 78.863 243.06 78.9412 243.216C79.0194 243.372 79.0661 243.542 79.0785 243.716C79.0943 244.03 78.9928 244.34 78.7938 244.584C78.5947 244.828 78.3121 244.99 78.0006 245.038L78.3925 245.675L79.5194 247.586H78.3925L77.9026 246.753C77.4616 245.92 77.2656 245.675 77.1187 245.577V247.635H76.1388V242.736L77.6576 242.491ZM77.3636 241.511C76.911 241.523 76.4655 241.626 76.0535 241.814C75.6415 242.002 75.2714 242.271 74.9652 242.604C74.659 242.938 74.423 243.329 74.2711 243.756C74.1192 244.183 74.0545 244.635 74.081 245.087C74.0869 245.528 74.1812 245.962 74.3584 246.366C74.5355 246.769 74.7918 247.132 75.1122 247.435C75.4325 247.737 75.8103 247.971 76.2231 248.125C76.6359 248.278 77.0753 248.347 77.5153 248.327C77.9553 248.308 78.3868 248.2 78.7842 248.01C79.1817 247.821 79.537 247.553 79.829 247.223C80.121 246.894 80.3439 246.509 80.4843 246.091C80.6247 245.674 80.6798 245.233 80.6463 244.793C80.6337 243.927 80.2838 243.099 79.6709 242.486C79.0579 241.873 78.2303 241.523 77.3636 241.511ZM77.3636 249.203C76.5089 249.213 75.6705 248.968 74.955 248.5C74.2396 248.032 73.6793 247.363 73.3455 246.576C73.0116 245.789 72.9192 244.92 73.08 244.081C73.2408 243.241 73.6475 242.468 74.2485 241.86C74.8495 241.252 75.6176 240.837 76.4553 240.667C77.293 240.496 78.1624 240.579 78.9531 240.904C79.7438 241.228 80.4201 241.781 80.8961 242.491C81.372 243.201 81.6262 244.037 81.6262 244.891C81.6262 246.022 81.1771 247.106 80.3778 247.905C79.5784 248.705 78.4941 249.154 77.3636 249.154" fill="#0051A5"/>
</g>
<defs>
<clipPath id="clip0_806_280">
<rect width="1024" height="249.874" fill="white" transform="translate(0 0.712891)"/>
</clipPath>
</defs>
</svg>
