<svg width="1024" height="242" viewBox="0 0 1024 242" fill="none" xmlns="http://www.w3.org/2000/svg">
<g clip-path="url(#clip0_807_2792)">
<path d="M364.075 218.557C350.95 218.557 339.669 216.142 330.24 211.321C320.802 206.5 313.549 199.204 308.48 189.433C303.403 179.662 300.868 167.562 300.868 153.141V36.0293H321.186V153.397C321.186 164.26 322.893 173.16 326.315 180.098C329.728 187.035 334.635 192.155 341.035 195.44C347.426 198.734 355.132 200.381 364.151 200.381C373.171 200.381 380.851 198.743 387.2 195.475C393.549 192.206 398.413 187.086 401.792 180.123C405.171 173.169 406.852 164.251 406.852 153.397V36.0293H427.17V153.141C427.17 167.562 424.644 179.654 419.592 189.399C414.541 199.152 407.304 206.449 397.892 211.287C388.48 216.134 377.207 218.549 364.083 218.549L364.075 218.557Z" fill="#1E405A"/>
<path d="M410.624 36.029H427.383L495.377 155.282C498.398 160.65 501.419 166.231 504.431 172.016C507.452 177.802 510.66 184.074 514.056 190.824C514.389 191.413 514.688 192.001 514.935 192.582C515.183 193.17 515.456 193.759 515.755 194.339L513.237 199.937C513.195 198.47 513.135 197.027 513.05 195.594C512.964 194.169 512.879 192.744 512.802 191.319C512.589 183.818 512.427 177.187 512.299 171.445C512.171 165.702 512.085 160.419 512.051 155.59L511.923 36.0205H531.55V215.152H507.648L445.943 107.154C442.795 101.702 439.569 95.9245 436.258 89.8232C432.947 83.7218 429.824 77.8168 426.888 72.1165C423.953 66.4162 421.504 61.3645 419.533 56.9613C419.533 56.9613 409.404 36.0205 410.632 36.0205L410.624 36.029Z" fill="#1E405A"/>
<path d="M559.923 215.161V36.0293H665.216V54.4613H580.241V215.161H559.923ZM573.824 131.381V113.205H656.657V131.381H573.824Z" fill="#1E405A"/>
<path d="M751.471 218.677C736.922 218.677 724.13 215.144 713.105 208.078C702.08 201.013 693.512 190.508 687.411 176.565C681.31 162.621 678.255 145.631 678.255 125.587C678.255 105.542 681.31 88.5349 687.411 74.5488C693.512 60.5626 702.054 50.0496 713.045 43.0096C724.036 35.9696 736.819 32.4453 751.411 32.4453C762.982 32.4453 773.478 34.6554 782.891 39.0842C792.303 43.5045 800.222 50.4933 806.639 60.025C813.056 69.5653 817.374 81.6485 819.592 96.2832H799.215C797.201 85.5056 793.907 76.7504 789.342 70.0261C784.768 63.2933 779.281 58.4208 772.864 55.4C766.447 52.3792 759.364 50.8688 751.607 50.8688C740.872 50.8688 731.614 53.6592 723.84 59.2314C716.058 64.8122 710.033 73.1749 705.758 84.328C701.483 95.481 699.341 109.237 699.341 125.587C699.341 141.937 701.457 155.692 705.69 166.845C709.922 177.998 715.981 186.378 723.866 191.976C731.75 197.574 741.018 200.373 751.667 200.373C759.757 200.373 767.258 198.572 774.152 194.963C781.047 191.353 786.816 185.747 791.45 178.135C796.083 170.523 798.984 160.932 800.162 149.361H820.599C819.217 164.831 815.292 177.759 808.84 188.136C802.381 198.513 794.206 206.201 784.307 211.185C774.408 216.177 763.469 218.668 751.479 218.668L751.471 218.677Z" fill="#1E405A"/>
<path d="M911.249 218.557C898.125 218.557 886.844 216.142 877.414 211.321C867.976 206.5 860.723 199.204 855.654 189.433C850.585 179.662 848.042 167.562 848.042 153.141V36.0293H868.36V153.397C868.36 164.26 870.067 173.16 873.489 180.098C876.902 187.035 881.809 192.155 888.209 195.44C894.6 198.734 902.306 200.381 911.326 200.381C920.345 200.381 928.025 198.743 934.374 195.475C940.723 192.206 945.587 187.086 948.966 180.123C952.345 173.169 954.026 164.251 954.026 153.397V36.0293H974.344V153.141C974.344 167.562 971.819 179.654 966.767 189.399C961.715 199.152 954.479 206.449 945.066 211.287C935.654 216.134 924.382 218.549 911.257 218.549L911.249 218.557Z" fill="#1E405A"/>
<path d="M1003.84 57.8828V44.5537H1009.62C1010.55 44.5537 1011.36 44.6988 1012.05 44.9889C1012.74 45.279 1013.27 45.7057 1013.65 46.2518C1014.02 46.8065 1014.21 47.4636 1014.21 48.223C1014.21 48.8545 1014.09 49.4006 1013.86 49.87C1013.63 50.3393 1013.3 50.7148 1012.87 51.0049C1012.45 51.295 1011.94 51.4828 1011.37 51.5766V51.295C1011.94 51.3889 1012.4 51.551 1012.76 51.7814C1013.11 52.0118 1013.38 52.319 1013.56 52.703C1013.73 53.087 1013.84 53.5478 1013.87 54.111L1014.01 56.2188C1014.02 56.4321 1014.04 56.6369 1014.08 56.8332C1014.12 57.0294 1014.17 57.2172 1014.24 57.3964C1014.31 57.5756 1014.38 57.7292 1014.48 57.8742H1012.48C1012.37 57.7036 1012.28 57.5073 1012.22 57.2769C1012.16 57.0465 1012.12 56.7905 1012.1 56.5004C1012.1 56.4492 1012.1 56.3894 1012.09 56.3382C1012.09 56.287 1012.09 56.2273 1012.08 56.1676L1012.02 54.734C1011.99 54.1281 1011.9 53.6588 1011.74 53.3174C1011.57 52.9761 1011.33 52.7286 1011 52.5836C1010.69 52.4385 1010.26 52.3702 1009.74 52.3702H1005.01V50.7404H1009.7C1010.21 50.7404 1010.65 50.655 1011.03 50.4758C1011.4 50.3052 1011.7 50.0406 1011.92 49.6822C1012.13 49.3324 1012.23 48.8972 1012.23 48.3852C1012.23 47.8988 1012.12 47.4892 1011.91 47.1649C1011.69 46.8406 1011.39 46.6017 1010.98 46.4481C1010.58 46.2945 1010.09 46.2177 1009.54 46.2177H1005.01L1005.79 45.3814V57.8828H1003.85H1003.84Z" fill="#1D3F59"/>
<path d="M1009.15 66.0578C1000.97 66.0578 994.304 59.4018 994.304 51.2184C994.304 43.0349 1000.96 36.3789 1009.15 36.3789C1017.34 36.3789 1024 43.0349 1024 51.2184C1024 59.4018 1017.34 66.0578 1009.15 66.0578ZM1009.15 38.1282C1001.93 38.1282 996.062 43.9992 996.062 51.2184C996.062 58.4376 1001.93 64.3085 1009.15 64.3085C1016.37 64.3085 1022.24 58.4376 1022.24 51.2184C1022.24 43.9992 1016.37 38.1282 1009.15 38.1282Z" fill="#1D3F59"/>
<path d="M237.594 218.523C237.594 231.348 226.244 241.768 212.25 241.768H25.344C11.3493 241.768 0 231.348 0 218.523V23.5788C0 10.7361 11.3493 0.333984 25.344 0.333984H212.25C226.244 0.333984 237.594 10.7361 237.594 23.5788V218.531V218.523Z" fill="#1D3F59"/>
<path d="M244.753 69.9144L245.154 73.8995L243.857 77.7565L242.739 81.5027L241.22 85.1293L239.386 88.6365L237.653 92.2547L234.974 95.3949L232.405 97.6136L229.564 99.5336L227.149 101.633L223.966 103.382L221.304 105.609L218.189 107.248L214.81 108.434L211.456 109.731L207.872 110.414L204.331 111.378L200.678 111.856L198.528 111.378L194.569 112.035L190.686 111.608L186.897 111.216L183.279 110.371L178.62 109.731L175.138 108.681L171.349 106.471L168.175 105.021L165.419 103.075L162.424 101.377L159.616 98.4328L156.86 96.4445L155.102 93.7736L152.491 90.9064L151.782 88.372L150.724 85.4195L149.999 82.3816L149.538 79.2669V76.7069L149.103 72.7389L149.666 68.8051L151.236 65.0675L152.653 61.3811L154.624 57.8909L157.082 54.6483L159.224 51.2093L162.185 49.2979L164.309 46.7464L167.279 44.9459L170.035 42.9149L172.92 40.9949L176.324 39.8515L179.448 38.1789L182.963 37.3853L186.513 36.7027L189.978 35.5763L193.613 35.3117H195.738L199.672 34.9277H203.554L207.394 35.2008L211.106 35.8749L215.646 36.8307L219.11 37.9827L222.959 40.0733L226.227 41.4557L229.154 43.2221L231.723 45.3555L235.059 47.8899L237.423 50.1853L239.411 52.7368L241.212 55.3821L242.313 58.3347L243.2 61.3128L243.942 64.3165L244.557 67.3885L244.745 69.9144H244.753ZM197.086 40.9096L193.289 41.4045L189.585 42.0616L186.121 43.4184L182.887 45.0739L180.019 47.1816L177.203 49.2808L174.635 51.6531L171.896 53.9827L170.854 56.5171L169.472 58.8296L167.893 61.1251L166.622 63.5741L165.726 66.1597L165.137 68.8051L165.052 71.4931L165.282 74.1896L165.325 75.7341V78.7123L165.461 81.6648L166.724 84.3443L167.492 87.1176L168.977 89.6008L170.172 92.1864L172.484 94.9427L174.387 97.0845L177.442 99.1069L179.849 100.694L182.059 102.537L184.755 103.741L187.196 104.568L190.456 105.558L193.109 105.882L196.582 106.053H199.45L203.281 105.575L206.959 104.628L210.21 102.879L213.589 101.547L216.815 99.8749L219.597 97.6477L222.293 95.3352L224.248 92.5021L225.63 90.164L227.268 87.9453L228.881 85.6413L229.854 83.1069L230.247 80.4445L230.801 77.8333L231.484 75.188L231.723 72.4829L231.185 70.9555L230.989 68.02L230.707 65.1016L230.127 62.26L229.026 59.5805L227.661 57.0547L225.86 54.7933L224.213 51.6616L222.148 49.6307L219.221 47.4632L216.764 45.9357L214.545 44.1011L211.593 43.3331L208.896 42.164L205.935 41.652L202.965 41.2253L199.979 40.5853L197.112 40.8925L197.086 40.9096Z" fill="white"/>
<path d="M212.258 164.711L208.068 172.485L203.81 180.592L197.896 187.547L191.155 193.691L185.028 200.483L177.408 205.74L169.207 210.203L161.715 211.969L154.513 214.119L147.55 217.098L140.058 218.693L132.19 218.258L124.501 218.454L116.779 217.925L108.971 217.976L101.299 216.184L93.6618 214.256L85.5722 213.368L81.0836 212.123L73.3951 208.078L66.065 203.768L58.658 199.8L52.1642 194.749L44.2026 188.417L37.4954 183.647L32.3924 175.165L26.769 169.499L23.4495 162.57L19.4218 156.033L15.8719 146.945L13.3034 140.221L12.4159 132.891L12.578 125.569L11.9807 118.324L12.1428 111.037L13.9946 103.98L16.0596 96.5983L18.2612 91.5039L21.8196 82.9791L26.6324 75.2138L31.8548 67.7386L38.3658 61.3386L45.4399 55.5444L53.3674 50.8255L60.9364 45.5007L67.985 42.8298L75.7162 41.8826L82.8415 39.5956L90.1119 37.3599L97.9199 37.6671L105.54 36.5749L113.323 36.1396L121.207 36.5066L128.725 39.5188L136.363 41.3791L144.282 42.6762L148.488 44.6559L157.022 46.7722L164.326 51.2522L171.537 55.5615L177.749 60.9631L186.769 66.2538L191.292 72.9439L197.487 80.5044L202.581 86.4522L206.908 92.8522L211.046 99.3802L214.775 108.101L215.287 115.594L217.805 122.651L217.463 129.981L217.762 137.294L217.011 144.402L216.09 151.877L213.905 158.533L212.258 164.737V164.711ZM145.988 54.3498L136.661 51.3972L127.232 49.5967L117.82 48.6751L108.407 48.3082L99.3876 49.9295L90.7178 52.1994L82.1674 54.785L74.2228 58.4031L67.362 60.8266L62.0372 65.1188L55.7652 68.5492L52.3434 74.4116L47.3514 79.0196L42.0351 83.6191L39.8164 89.985L35.9679 95.5743L34.5258 99.1754L31.4538 105.942L29.5594 113.29L28.049 120.074L27.5455 127.259L29.201 134.435L29.6362 141.492L31.3684 150.222L34.9439 156.75L37.6575 165.24L41.8388 171.376L47.1039 176.846L51.7119 182.597L57.6084 187.419L63.4026 192.317L69.7172 196.797L77.2948 199.468L83.7972 202.838L93.073 206.303L102.716 207.66L112.222 208.692L121.677 208.812L130.637 206.875L139.93 205.91L148.13 202.429L156.254 198.947L161.724 194.843L167.543 191.173L172.74 186.855L178.645 183.024L183.629 178.296L187.272 172.682L190.822 167.007L193.032 162.023L195.106 157.859L197.777 150.529L200.141 143.643L200.875 136.475L201.958 129.4L201.276 122.25L199.373 115.261L198.682 106.454L196.062 99.7044L191.991 91.5636L187.511 85.5988L182.946 79.8047L178.586 73.8655L173.005 68.7114L166.955 63.9498L159.812 60.4852L153.284 56.1162L145.98 54.3156L145.988 54.3498Z" fill="white"/>
<path d="M62.7797 90.5483C66.3296 93.1425 71.9445 98.1345 77.4741 100.831C86.8864 105.43 90.112 106.514 101.879 110.405C108.51 112.59 107.537 108.929 107.537 108.929C106.94 106.958 108.305 101.957 108.305 101.957C111.13 96.7777 121.788 102.93 116.762 110.73C115.465 112.735 120.508 113.017 122.684 112.812C122.684 112.812 130.56 112.334 139.17 107.555C147.174 103.118 161.886 95.8134 165.905 92.2209C169.907 88.6283 171.273 97.5542 171.273 97.5542C171.273 97.5542 160.819 107.316 157.133 109.262C149.419 113.341 139.546 119.869 134.067 121.746C127.334 124.016 124.416 127.651 122.906 131.252C122.906 131.252 121.813 134.35 122.522 136.185C123.964 139.871 137.472 165.642 140.962 178.698C145.476 195.653 154.206 208.692 154.206 208.692H143.761C143.761 208.692 129.818 187.743 125.056 175.89C123.153 171.188 116.028 157.33 111.846 153.362C104.457 153.712 87.7397 204.596 87.7397 204.596C87.0229 208.385 84.7786 207.131 84.7786 207.131C84.7786 207.131 74.3765 208.308 74.9909 204.059C76.0064 197.078 86.6218 164.046 89.3525 158.55C90.8288 155.606 96.9984 141.142 98.0053 138.181C99.0293 135.178 98.9525 133.59 98.9525 133.59C97.7152 124.767 93.3717 122.89 93.3717 122.89C90.3082 120.261 75.3322 112.547 69.9818 107.427C60.1173 98.0235 57.4293 96.095 57.2416 94.5761C57.1562 93.8166 57.0112 92.511 57.9242 91.4273C57.9242 91.4273 60.1173 88.5686 62.8053 90.5142" fill="white"/>
<path d="M30.0372 22.8193C29.5252 25.4391 32.8703 31.9671 34.9012 34.4417C45.986 47.9329 52.5567 59.5127 64.9983 72.0993C70.9289 77.5009 75.1444 82.6977 84.8468 87.2887C85.8537 87.8348 88.5417 88.5943 88.2345 87.6983C75.042 68.2081 60.7572 50.2881 40.0127 32.4279C40.0127 32.4279 30.7711 23.6897 30.0372 22.8193Z" fill="white"/>
<path d="M80.2475 33.4776C79.4795 42.4717 71.7654 47.2077 65.3654 53.4797C58.9398 61.9191 44.9025 66.4247 31.5478 70.5975C28.8683 71.8605 22.1697 74.045 16.5803 69.1469C38.6646 58.6679 56.4993 47.3613 69.3249 31.1138C70.6987 29.3645 71.1766 28.2808 72.0385 25.516C72.0385 25.516 80.4779 23.0071 80.2561 33.4861" fill="white"/>
<path d="M11.6139 42.1475L10.624 45.2707C10.624 45.2707 55.2278 61.9448 95.9915 68.4728C95.9915 68.4728 102.263 68.8312 103.543 64.1464C103.543 64.1464 24.9088 46.6957 11.6224 42.1475" fill="white"/>
</g>
<defs>
<clipPath id="clip0_807_2792">
<rect width="1024" height="241.434" fill="white" transform="translate(0 0.333984)"/>
</clipPath>
</defs>
</svg>
