<svg width="416" height="513" viewBox="0 0 416 513" fill="none" xmlns="http://www.w3.org/2000/svg">
<g clip-path="url(#clip0_879_3752)">
<path d="M210.668 353.32C207.626 365.262 208.143 368.651 208.351 372.051C200.039 366.251 178.565 355.336 177.565 327.694C177.1 314.904 178.128 303.432 180.523 295.247C180.129 295.725 179.668 296.27 179.216 296.803C151.706 329.907 120.318 327.675 91.5992 330.627C87.3464 331.063 71.3906 334.284 67.188 335.195C77.4209 324.251 95.128 308.167 106.687 300.275C129.032 285.024 167.868 269.116 167.868 269.116C150.306 278.781 136.105 294.453 136.105 294.453C147.033 287.056 185.191 265.02 185.191 265.02C175.008 274.718 145.989 300.288 128.78 311.67C150.678 301.347 169.203 287.963 179.186 278.523C191.675 266.726 210.428 255.344 218.912 250.963C223.072 255.061 229.092 258.815 234.475 261.031C220.073 271.171 210.466 276.949 206.36 290.658C206.36 290.658 216.899 277.135 232.088 268.852C234.941 267.296 238.034 265.376 241.207 263.195C244.622 264.001 252.033 264.681 255.661 264.681L256.559 264.302C255.972 264.749 254.513 265.584 253.906 266.024C224.884 287.313 198.324 292.905 195.868 336.21C195.868 336.21 199.538 307.991 221.866 293.684C234.515 285.582 257.198 274.804 272.391 259.309C284.031 253.985 291.353 244.879 295.142 232.216L295.227 231.823C298.987 231.452 302.729 230.971 306.659 230.623C306.208 235.197 305.212 241.408 302.985 247.763C300.262 256.262 295.687 265.724 287.619 275.585C273.102 293.317 255.579 304.425 237.336 328.164C219.093 351.908 215.213 376.101 215.213 376.101C211.147 346.572 225.224 327.795 225.224 327.795C223.082 329.491 214.014 340.162 210.667 353.321L210.668 353.32ZM146.569 328.499C160.758 324.948 173.578 309.609 173.578 309.609C172.077 314.794 173.196 330.631 173.196 330.631C173.196 330.631 167.658 332.817 160.907 332.817C154.156 332.817 146.011 328.555 146.011 328.555L146.569 328.501V328.499ZM238.84 399.044C235.64 407.631 233.431 415.589 232.607 418.688C223.09 412.982 208.484 405.37 203.129 397.026C195.947 385.832 196.019 371.173 196.019 371.173C199.574 374.315 208.693 379.417 217.043 384.047C223.86 387.832 234.986 396.122 238.839 399.044H238.84ZM221.019 380.633C221.33 375.01 223.352 364.426 229.13 351.283C235.611 336.553 252.145 318.479 252.145 318.479C257.648 324.181 264.862 335.827 261.991 351.01C259.12 366.183 251.87 371.374 244.483 385.937C243.212 388.447 242.011 391.113 240.894 393.8C236.285 390.145 227.93 384.931 221.018 380.633H221.019ZM189.093 209.367L189.461 209.461L188.937 209.549C181.444 210.871 173.667 212.698 167.086 214.405C167.379 211.796 167.73 209.176 168.149 206.607C168.281 205.894 168.426 205.175 168.583 204.453C171.46 205.154 174.385 205.824 177.314 206.505C179.954 207.117 182.601 207.735 185.211 208.392L189.093 209.367ZM336.119 228.077C339.969 225.518 353.426 226.542 357.912 227.054C362.404 227.567 377.401 229.872 384.838 228.208C392.265 226.543 395.603 225.005 395.603 225.005C395.603 225.005 393.808 238.586 379.451 239.612C365.093 240.638 363.172 237.176 352.404 235.767C352.404 235.767 355.607 233.843 361.378 232.694C361.378 232.694 351.374 231.283 343.812 233.204C336.252 235.128 333.175 238.331 333.175 238.331C333.175 238.331 332.278 230.638 336.12 228.077H336.119ZM193.559 144.742C193.559 144.742 194.715 143.267 194.921 142.951C201.097 133.616 207.812 124.346 211.165 119.84C213.498 116.696 215.277 113.573 216.648 110.674C220.506 102.503 221.05 96.1133 221.05 96.1133C256.69 97.7486 299.389 113.385 333.937 146.104C349.221 160.58 359.334 177.674 365.872 192.246C359.506 191.212 346.275 189.651 331.359 189.552C314.634 189.437 294.579 191.704 290.768 192.155L290.766 192.137C290.705 191.544 290.625 190.96 290.538 190.378L290.464 189.868C290.393 189.41 290.304 188.956 290.216 188.503L290.242 188.498C288.099 172.127 275.984 156.478 260.609 149.979C255.086 147.408 243.455 143.544 231.316 142.453C225.18 141.752 218.587 141.82 210.588 142.667C207.159 143.029 203.826 143.459 200.555 143.876C198.18 144.181 195.852 144.476 193.558 144.742H193.559ZM238.714 448.535C238.714 448.535 230.621 444.332 224.966 436.174C220.532 429.776 220.137 421.918 220.175 418.809C225.878 422.095 232.414 425.344 236.232 427.713C240.428 430.313 243.833 432.886 246.362 435.037C242.339 442.168 238.714 448.535 238.714 448.535ZM215.366 246.056C188.511 253.377 131.3 277.594 97.8505 301.013C83.4151 311.123 67.6617 327.085 58.0654 336.935C48.6682 339.836 36.799 344.812 31.2893 347.221C44.1485 333.085 70.2005 307.759 91.4395 293.488C155.561 250.406 208.573 243.444 212.525 242.646L213.696 243.66C214.226 244.482 214.792 245.274 215.367 246.057L215.366 246.056ZM371.029 315.395C354.491 326.291 343.984 352.266 343.984 352.266C348.229 323.44 366.76 303.305 366.76 303.305C352.915 311.38 342.833 326.826 337.48 361.244C331.364 400.612 320.077 415.717 320.077 415.717L321.254 411.726C325.995 390.456 325.226 380.458 329.072 354.823C332.918 329.192 344.198 313.554 344.198 313.554C330.098 323.424 322.508 344.526 319.844 375.201C316.904 409.028 308.803 421.001 308.803 421.001C313.734 404.098 311.64 385.328 312.404 372.767C313.175 360.204 313.731 343.124 320.776 326.976C327.829 310.827 344.198 295.231 361.378 287.415C378.551 279.595 392.258 283.445 392.258 283.445C401.311 291.934 401.87 300.871 401.87 300.871C401.87 300.871 387.567 304.505 371.029 315.393V315.395ZM226.667 456.445C224.969 450.731 227.524 448.556 228.973 446.677C228.973 446.677 232.768 450.023 236.693 452.02C236.693 452.02 234.545 457.843 232.887 463.101C230.316 461.755 227.708 459.949 226.668 456.446L226.667 456.445ZM224.413 489.5C224.413 489.5 225.726 491.876 227.136 493.79C228.883 496.152 228.51 498.396 227.255 499.814C225.999 501.24 223.984 501.444 222.538 499.74C221.088 498.039 222.128 492.33 224.413 489.5ZM258.392 375.75C259.566 377.964 262.716 383.55 263.608 390.567C264.909 400.785 260.896 412.005 255.663 421.508C254.239 424.089 250.666 427.379 248.844 430.617C247.437 429.052 244.959 426.707 240.776 423.779C239.906 423.176 238.874 422.512 237.736 421.804C241.539 406.593 250.459 387.182 254.072 382.297C255.215 380.754 257.165 377.717 258.392 375.75ZM230.398 480.623C233.435 482.675 236.65 487.266 236.881 489.497C237.231 492.865 231.987 495.522 231.987 495.522C231.987 495.522 232.719 491.828 228.896 489.002C223.312 484.863 221.349 483.245 225.4 476.279C225.4 476.279 227.359 478.569 230.399 480.623H230.398ZM244.018 447.315C248.656 438.967 255.273 430.054 255.273 430.054C255.273 430.054 259.324 442.632 255.939 453.139C252.557 463.648 244.227 472.923 244.227 472.923C244.227 472.923 240.338 467.471 237.299 465.422C237.031 465.239 236.734 465.06 236.427 464.884C237.881 460.794 240.785 453.139 244.019 447.316L244.018 447.315ZM233.196 467.912C237.354 469.896 240.323 472.668 241.87 475.934C243.413 479.197 242.032 482.195 239.24 484.156C239.24 484.156 237.758 480.167 233.828 478.171C229.9 476.173 226.199 474.457 225.282 470.481C224.367 466.508 226.854 463.156 226.854 463.156C226.854 463.156 229.041 465.926 233.196 467.913V467.912Z" fill="#FFC62F"/>
<path d="M213.502 209.885C201.011 206.109 183.057 202.734 167.11 198.205C134.914 189.187 112.806 169.778 101.405 140.515C93.904 121.276 93.7378 103.84 93.822 99.6479C93.8286 99.0474 93.7936 97.9229 93.7968 97.5368C93.973 84.0509 95.7855 71.5614 97.3146 62.5777L97.494 61.4828L97.5192 63.4035C97.47 72.7395 98.112 80.9564 98.3374 83.5105L98.3549 83.7621C98.3899 84.1351 98.6458 81.8446 98.8165 80.6961C99.4411 76.5351 100.155 72.4113 100.568 68.2219C100.983 64.0522 101.926 59.0708 102.106 54.8858C102.179 53.2779 102.249 51.6601 102.203 50.05C102.667 50.3256 102.855 51.8876 102.95 52.3306C103.321 54.0698 104.115 67.7516 104.351 72.4354C104.448 74.3058 104.481 76.1774 104.504 78.0468C104.515 78.9809 104.544 79.8986 104.693 80.8229C104.724 81.068 104.804 81.3338 104.861 81.5974C104.906 81.814 105.596 75.5014 106.111 72.175C106.547 69.377 107.246 66.5385 107.225 63.6847C107.225 63.4364 107.148 63.1268 107.191 62.8818C107.264 62.4607 107.872 64.2786 108.183 67.6181C108.396 71.3919 108.558 75.3067 108.995 78.9962L109.33 81.9146C112.381 108.705 128.437 133.114 150.133 144.046C167.642 153.862 183.984 151.767 201.287 149.55C204.515 149.134 207.808 148.712 211.19 148.356C218.765 147.555 224.96 147.486 230.74 148.141C243.489 149.292 255.276 153.633 259.153 155.645C272.089 161.455 282.234 174.628 284.35 188.481L284.359 188.852C284.908 191.369 285.191 193.976 285.191 196.658L285.188 196.756C285.101 196.246 285.055 195.749 284.941 195.228C284.877 199.716 283.966 203.995 282.386 207.934C283.675 203.943 284.101 199.272 282.927 193.823C282.859 198.927 281.68 203.742 279.658 208.1C280.869 204.195 281.364 200.005 280.968 195.688C280.176 186.947 275.929 179.346 269.691 174.036C274.687 179.377 277.106 187.846 277.829 195.767C279.5 214.327 264.656 226.493 248.733 229.238L248.4 229.32C249.767 229.563 255.075 230.293 260.366 228.608C262.713 228.443 265.832 227.916 268.995 226.386C270.166 225.819 271.646 224.972 273.235 223.863C266.626 229.97 257.812 233.73 248.104 233.73C235.284 233.73 224.009 227.214 217.362 217.319C226.606 218.476 235.663 220.314 235.663 220.314C227.327 213.886 213.512 209.839 213.512 209.839L213.498 209.884L213.502 209.885ZM207.873 113.659C203.535 120.325 197.129 129.388 192.125 136.437C186.088 131.903 176.011 122.917 171.373 110.661C164.206 91.7143 166.616 73.6408 165.368 63.5272C165.006 60.6197 164.547 57.0637 163.975 53.279C165.559 58.5064 167.642 65.9905 168.198 70.7837C168.198 70.7837 167.734 57.1698 165.854 48.7188C165.854 48.7188 170.545 61.8656 171.488 69.3737C171.488 69.3737 172.103 62.1008 171.415 54.3312C172.304 57.313 173.093 60.4502 173.682 63.7536C177.377 84.2631 183.451 98.5792 207.872 113.658L207.873 113.659Z" fill="#FFFFFE"/>
<path d="M356.961 248.351C358.251 249.892 360.551 253.219 360.679 254.376C360.696 254.519 360.681 254.832 360.654 255.256V255.258L360.628 255.562L360.622 255.612C360.461 257.384 359.608 265.63 357.707 267.929C357.427 268.388 357.111 268.83 356.713 269.229C354.531 271.27 350.713 273.21 343.504 278.209C335.556 283.724 329.275 295 329.275 295C329.275 295 331.534 284.346 336.447 278.256C342.536 270.714 350.469 265.73 355.365 263.125L357.565 253.298C355.88 252.173 353.76 251.021 351.709 250.653C347.453 249.904 340.28 250.001 335.89 248.569L335.943 248.481C341.199 247.84 344.276 246.303 352.093 245.018C359.91 243.738 365.937 246.046 365.937 246.046C360.679 246.303 356.961 248.351 356.961 248.351ZM382.39 244.119C382.39 244.119 385.657 251.586 385.501 257.032C385.348 262.477 387.053 266.21 389.076 267.765C391.102 269.318 393.125 269.631 394.37 270.57C395.621 271.5 395.621 274.301 394.996 276.632C394.37 278.964 392.66 279.277 390.794 278.81C389.053 278.379 379.949 277.145 370.066 278.961C369.542 277.132 368.636 272.95 370.605 270.878C373.171 268.196 378.169 268.448 380.088 268.833C380.088 268.833 375.994 266.91 372.402 266.91C368.812 266.91 365.861 269.347 364.836 272.037C364.076 274.037 364.731 278.153 365.116 280.143C354.371 283.307 338.984 291.697 326.361 307.905C312.665 325.481 309.565 347.421 309.565 347.421C309.565 347.421 295.12 350.265 287.644 339.163C277.616 324.275 281.386 306.815 281.386 306.815C281.386 306.815 275.448 309.617 270.749 308.392C269.102 307.962 267.933 306.878 267.104 305.593C274.92 298.648 283.237 292.124 291.486 282.684C295.759 283.634 299.599 284.663 301.694 285.304C306.312 286.712 311.123 290.616 312.403 294.842C313.687 299.074 314.322 313.428 314.322 313.428C316.918 303.444 317.334 298.407 317.586 295.58C317.849 292.764 317.552 285.637 312.142 280.703C309.223 278.041 300.955 275.568 297.676 273.75C310.193 256.516 313.632 230.11 313.632 230.11L313.621 229.359C314.897 229.221 315.73 229.088 315.764 228.957C318.072 228.823 326.265 227.825 328.538 227.783C328.538 227.783 325.113 237.89 328.071 245.359C328.071 245.359 335.697 240.227 346.593 241.004C357.484 241.785 374.918 247.072 382.388 244.118L382.39 244.119ZM279.142 340.268C284.321 347.866 291.264 354.327 302.417 354.327C304.032 354.327 305.947 354.299 308.032 354.245C307.115 360.023 306.664 366.25 306.441 370.77C304.021 371.576 301.869 372.355 300.157 373.074C289.324 377.597 269.162 388.279 269.162 388.279L268.475 388.692C266.815 377.202 263.066 367.762 263.066 367.762C263.066 367.762 270.3 348.952 267.594 337.388C264.037 322.198 258.218 314.12 258.218 314.12C258.857 313.44 259.497 312.8 260.139 312.148C263.953 317.338 270.411 317.487 270.411 317.487C270.411 317.487 273.973 332.679 279.142 340.268ZM389.814 354.086C395.309 354.249 400.365 353.843 400.365 353.843C398.75 355.135 394.386 354.975 391.961 355.299C389.537 355.621 374.51 356.106 356.241 358.856C352.933 359.349 349.323 359.996 345.581 360.731C346.743 357.592 347.822 355.347 349.162 353.241L349.325 353.239C362.74 353.239 384.314 353.928 389.814 354.086ZM396.249 331.881C400.091 333.42 402.271 334.825 403.681 342.773C405.091 350.72 400.604 350.462 398.426 350.339C396.249 350.21 389.913 350.169 380.168 349.013C370.425 347.863 353.022 347.411 353.022 347.411C361.341 324.397 390.35 311.893 390.35 311.893C390.865 318.553 385.863 330.731 385.863 330.731C385.863 330.731 392.401 330.344 396.249 331.883V331.881Z" fill="#E9BF9B"/>
<path d="M368.767 197.964C364.172 197.109 349.533 194.898 331.36 194.776C314.845 194.664 294.93 196.728 291.002 197.165L290.999 197.234C290.976 221.795 269.829 239.326 250.136 239.618C220.394 240.062 209.445 216.097 209.219 214.683C207.099 214.065 204.835 213.448 202.487 212.819C198.536 213.301 194.312 213.907 189.879 214.689C181.684 216.132 173.218 218.152 166.328 219.945C166 223.582 165.474 229.433 165.453 229.932C164.473 250.612 165.776 249.169 165.776 249.169C171.774 246.824 193.898 241.151 193.898 241.151C200.377 239.644 208.071 238.025 217.079 236.363C223.412 249.124 236.565 257.898 251.779 257.898C270.777 257.898 286.564 244.223 289.87 226.191C331.391 221.684 351.018 221.556 376.659 224.966C373.97 210.679 368.768 197.962 368.768 197.962" fill="#4F2683"/>
<path d="M365.932 246.05C365.932 246.05 359.913 243.742 352.099 245.02C344.268 246.298 341.197 247.842 335.941 248.482L335.887 248.571C340.274 250.008 347.448 249.902 351.709 250.648C353.766 251.021 355.883 252.175 357.568 253.293L355.367 263.128C350.466 265.738 342.528 270.709 336.454 278.253C335.992 278.82 335.548 279.442 335.141 280.098C334.946 280.363 334.768 280.648 334.609 280.95C334.376 281.323 334.165 281.696 333.97 282.068C333.722 282.512 333.489 282.973 333.26 283.452C333.029 283.914 332.816 284.376 332.621 284.837C331.752 286.788 331.058 288.742 330.544 290.395L330.367 290.962C329.976 292.256 329.694 293.322 329.515 294.051L329.444 294.333L329.39 294.547L329.319 294.884L329.301 294.975C329.408 294.795 329.959 293.801 330.883 292.364L331.555 291.335C333.33 288.672 336.031 284.979 339.246 281.82C339.69 281.376 340.149 280.933 340.613 280.524C341.554 279.688 342.511 278.909 343.507 278.216C350.717 273.211 354.534 271.276 356.716 269.236C357.109 268.826 357.428 268.381 357.713 267.938C359.613 265.629 360.465 257.376 360.627 255.62V255.566L360.661 255.264C360.678 254.962 360.678 254.714 360.678 254.554V254.377C360.554 253.223 358.246 249.886 356.967 248.36C356.967 248.36 360.678 246.301 365.934 246.052L365.932 246.05ZM365.932 246.05C365.932 246.05 359.913 243.742 352.099 245.02C344.268 246.298 341.197 247.842 335.941 248.482L335.887 248.571C340.274 250.008 347.448 249.902 351.709 250.648C353.766 251.021 355.883 252.175 357.568 253.293L355.367 263.128C350.466 265.738 342.528 270.709 336.454 278.253C335.992 278.82 335.548 279.442 335.141 280.098C334.946 280.363 334.768 280.648 334.609 280.95C334.376 281.323 334.165 281.696 333.97 282.068C333.722 282.512 333.489 282.973 333.26 283.452C333.029 283.914 332.816 284.376 332.621 284.837C331.752 286.788 331.058 288.742 330.544 290.395L330.367 290.962C329.976 292.256 329.694 293.322 329.515 294.051L329.444 294.333L329.39 294.547L329.319 294.884L329.301 294.975C329.408 294.795 329.959 293.801 330.883 292.364L331.555 291.335C333.33 288.672 336.031 284.979 339.246 281.82C339.69 281.376 340.149 280.933 340.613 280.524C341.554 279.688 342.511 278.909 343.507 278.216C350.717 273.211 354.534 271.276 356.716 269.236C357.109 268.826 357.428 268.381 357.713 267.938C359.613 265.629 360.465 257.376 360.627 255.62V255.566L360.661 255.264C360.678 254.962 360.678 254.714 360.678 254.554V254.377C360.554 253.223 358.246 249.886 356.967 248.36C356.967 248.36 360.678 246.301 365.934 246.052L365.932 246.05ZM365.932 246.05C365.932 246.05 359.913 243.742 352.099 245.02C344.268 246.298 341.197 247.842 335.941 248.482L335.887 248.571C340.274 250.008 347.448 249.902 351.709 250.648C353.766 251.021 355.883 252.175 357.568 253.293L355.367 263.128C350.466 265.738 342.528 270.709 336.454 278.253C335.992 278.82 335.548 279.442 335.141 280.098C334.946 280.363 334.768 280.648 334.609 280.95C334.376 281.323 334.165 281.696 333.97 282.068C333.722 282.512 333.489 282.973 333.26 283.452C333.029 283.914 332.816 284.376 332.621 284.837C331.752 286.788 331.058 288.742 330.544 290.395L330.367 290.962C329.976 292.256 329.694 293.322 329.515 294.051L329.444 294.333L329.39 294.547L329.319 294.884L329.301 294.975C329.408 294.795 329.959 293.801 330.883 292.364L331.555 291.335C333.33 288.672 336.031 284.979 339.246 281.82C339.69 281.376 340.149 280.933 340.613 280.524C341.554 279.688 342.511 278.909 343.507 278.216C350.717 273.211 354.534 271.276 356.716 269.236C357.109 268.826 357.428 268.381 357.713 267.938C359.613 265.629 360.465 257.376 360.627 255.62V255.566L360.661 255.264C360.678 254.962 360.678 254.714 360.678 254.554V254.377C360.554 253.223 358.246 249.886 356.967 248.36C356.967 248.36 360.678 246.301 365.934 246.052L365.932 246.05ZM365.932 246.05C365.932 246.05 359.913 243.742 352.099 245.02C344.268 246.298 341.197 247.842 335.941 248.482L335.887 248.571C340.274 250.008 347.448 249.902 351.709 250.648C353.766 251.021 355.883 252.175 357.568 253.293L355.367 263.128C350.466 265.738 342.528 270.709 336.454 278.253C335.992 278.82 335.548 279.442 335.141 280.098C334.946 280.363 334.768 280.648 334.609 280.95C334.376 281.323 334.165 281.696 333.97 282.068C333.722 282.512 333.489 282.973 333.26 283.452C333.029 283.914 332.816 284.376 332.621 284.837C331.752 286.788 331.058 288.742 330.544 290.395L330.367 290.962C329.976 292.256 329.694 293.322 329.515 294.051L329.444 294.333L329.39 294.547L329.319 294.884L329.301 294.975C329.408 294.795 329.959 293.801 330.883 292.364L331.555 291.335C333.33 288.672 336.031 284.979 339.246 281.82C339.69 281.376 340.149 280.933 340.613 280.524C341.554 279.688 342.511 278.909 343.507 278.216C350.717 273.211 354.534 271.276 356.716 269.236C357.109 268.826 357.428 268.381 357.713 267.938C359.613 265.629 360.465 257.376 360.627 255.62V255.566L360.661 255.264C360.678 254.962 360.678 254.714 360.678 254.554V254.377C360.554 253.223 358.246 249.886 356.967 248.36C356.967 248.36 360.678 246.301 365.934 246.052L365.932 246.05ZM352.099 245.02C344.268 246.298 341.197 247.842 335.941 248.482L335.887 248.571C340.274 250.008 347.448 249.902 351.709 250.648C353.766 251.021 355.883 252.175 357.568 253.293L355.367 263.128C350.466 265.738 342.528 270.709 336.454 278.253C335.992 278.82 335.548 279.442 335.141 280.098C334.946 280.363 334.768 280.648 334.609 280.95C334.376 281.323 334.165 281.696 333.97 282.068C333.722 282.512 333.489 282.973 333.26 283.452C333.029 283.914 332.816 284.376 332.621 284.837C331.752 286.788 331.058 288.742 330.544 290.395L330.367 290.962C329.976 292.256 329.694 293.322 329.515 294.051L329.444 294.333L329.39 294.547L329.319 294.884L329.301 294.975C329.408 294.795 329.959 293.801 330.883 292.364L331.555 291.335C333.33 288.672 336.031 284.979 339.246 281.82C339.69 281.376 340.149 280.933 340.613 280.524C341.554 279.688 342.511 278.909 343.507 278.216C350.717 273.211 354.534 271.276 356.716 269.236C357.109 268.826 357.428 268.381 357.713 267.938C359.613 265.629 360.465 257.376 360.627 255.62V255.566L360.661 255.264C360.678 254.962 360.678 254.714 360.678 254.554V254.377C360.554 253.223 358.246 249.886 356.967 248.36C356.967 248.36 360.678 246.301 365.934 246.052C365.934 246.052 359.915 243.744 352.101 245.023L352.099 245.02ZM398.426 350.338C396.241 350.214 389.922 350.179 380.172 349.007C370.423 347.87 353.02 347.409 353.02 347.409C361.332 324.406 390.346 311.889 390.346 311.889C390.862 318.546 385.87 330.722 385.87 330.722C385.87 330.722 392.406 330.351 396.242 331.877C400.096 333.421 402.279 334.823 403.684 342.776C405.085 350.728 400.61 350.462 398.426 350.337V350.338ZM391.962 355.291C389.529 355.63 374.508 356.108 356.236 358.859C352.934 359.356 349.327 359.996 345.582 360.723C346.736 357.599 347.819 355.345 349.167 353.251L349.326 353.232C362.735 353.232 384.308 353.924 389.813 354.082C395.299 354.241 400.358 353.834 400.358 353.834C398.743 355.128 394.394 354.969 391.961 355.29L391.962 355.291ZM337.483 361.24C331.359 400.61 320.084 415.716 320.084 415.716L321.257 411.723C325.998 390.456 325.233 380.463 329.068 354.828C332.922 329.197 344.198 313.556 344.198 313.556C330.098 323.428 322.499 344.536 319.835 375.208C316.995 407.959 309.306 420.242 308.828 420.971C313.727 404.088 311.632 385.326 312.413 372.779C313.176 360.21 313.726 343.132 320.776 326.978C327.826 310.825 344.198 295.24 361.385 287.411C378.555 279.601 392.263 283.452 392.263 283.452C401.301 291.937 401.869 300.866 401.869 300.866C401.869 300.866 387.575 304.505 371.026 315.404C354.493 326.284 343.981 352.273 343.981 352.273C348.226 323.445 366.764 303.298 366.764 303.298C352.914 311.375 342.829 326.819 337.482 361.24H337.483ZM306.447 370.77C304.014 371.569 301.866 372.35 300.16 373.079C289.329 377.602 269.158 388.29 269.158 388.29L268.465 388.697C266.814 377.197 263.067 367.77 263.067 367.77C263.067 367.77 270.292 348.954 267.595 337.397C264.043 322.203 258.222 314.126 258.222 314.126C258.859 313.433 259.497 312.795 260.138 312.156C263.956 317.339 270.401 317.499 270.401 317.499C270.401 317.499 273.971 332.676 279.138 340.274C284.323 347.87 291.265 354.333 302.415 354.333C304.031 354.333 305.95 354.299 308.026 354.242C307.123 360.031 306.66 366.244 306.447 370.77ZM255.662 421.504C254.243 424.095 250.657 427.38 248.843 430.61C247.442 429.048 244.957 426.705 240.784 423.776C239.914 423.171 238.866 422.515 237.73 421.806C241.547 406.592 250.461 387.191 254.065 382.292C255.218 380.747 257.173 377.712 258.398 375.759C259.569 377.962 262.713 383.552 263.6 390.563C264.914 400.789 260.901 412.007 255.661 421.504H255.662ZM255.93 453.136C252.554 463.645 244.228 472.931 244.228 472.931C244.228 472.931 240.339 467.479 237.301 465.42C237.036 465.244 236.734 465.065 236.432 464.886C237.871 460.788 240.783 453.136 244.016 447.315C248.648 438.972 255.272 430.061 255.272 430.061C255.272 430.061 259.32 442.629 255.929 453.138L255.93 453.136ZM239.237 484.148C239.237 484.148 237.765 480.173 233.824 478.166C229.898 476.179 226.204 474.455 225.283 470.479C224.36 466.503 226.846 463.148 226.846 463.148C226.846 463.148 229.048 465.935 233.202 467.908C237.359 469.894 240.324 472.664 241.868 475.93C243.412 479.196 242.027 482.194 239.238 484.149L239.237 484.148ZM231.995 495.526C231.995 495.526 232.721 491.833 228.887 489.011C223.312 484.856 221.341 483.242 225.406 476.282C225.406 476.282 227.36 478.574 230.395 480.617C233.432 482.674 236.646 487.274 236.876 489.492C237.232 492.864 231.994 495.526 231.994 495.526H231.995ZM227.252 499.821C225.993 501.241 223.984 501.455 222.531 499.75C221.092 498.046 222.124 492.331 224.413 489.508C224.413 489.508 225.727 491.887 227.13 493.788C228.888 496.148 228.514 498.402 227.252 499.821ZM236.682 452.015C236.682 452.015 234.553 457.841 232.882 463.094C230.307 461.762 227.714 459.952 226.667 456.453C224.962 450.741 227.519 448.555 228.975 446.674C228.975 446.674 232.757 450.029 236.681 452.015H236.682ZM220.168 418.804C225.868 422.088 232.418 425.336 236.238 427.716C240.428 430.307 243.838 432.881 246.359 435.029C242.345 442.166 238.706 448.538 238.706 448.538C238.706 448.538 230.627 444.329 224.963 436.165C220.525 429.775 220.132 421.912 220.169 418.805L220.168 418.804ZM203.122 397.024C195.948 385.84 196.019 371.177 196.019 371.177C199.571 374.319 208.697 379.414 217.041 384.047C223.861 387.829 234.976 396.118 238.83 399.047C235.634 407.637 233.432 415.591 232.597 418.68C223.096 412.983 208.484 405.367 203.122 397.024ZM261.984 351.012C259.125 366.189 251.865 371.373 244.476 385.929C243.214 388.449 242.009 391.112 240.89 393.794C236.291 390.136 227.928 384.934 221.019 380.639C221.321 375.012 223.347 364.431 229.135 351.277C235.616 336.563 252.147 318.475 252.147 318.475C257.652 324.173 264.861 335.835 261.984 351.013V351.012ZM177.571 327.687C177.092 314.907 178.121 303.439 180.519 295.238C180.128 295.72 179.666 296.268 179.222 296.8C151.7 329.907 120.325 327.672 91.5948 330.634C87.3507 331.062 71.3883 334.291 67.1803 335.196C77.4252 324.244 95.129 308.161 106.689 300.28C128.334 285.513 165.444 270.103 167.753 269.162C150.245 278.856 136.112 294.457 136.112 294.457C146.695 287.287 182.846 266.393 185.084 265.099C174.821 274.878 145.931 300.315 128.779 311.677C150.672 301.345 169.21 287.959 179.19 278.517C191.672 266.73 210.423 255.352 218.91 250.968C223.066 255.068 229.102 258.814 234.482 261.032C220.082 271.167 210.476 276.955 206.356 290.659C206.356 290.659 216.903 277.132 232.085 268.842C234.942 267.297 238.034 265.382 241.213 263.197C244.621 263.994 252.044 264.688 255.663 264.688L256.551 264.295C255.967 264.739 254.511 265.575 253.907 266.019C224.931 287.286 198.401 292.877 195.879 336.03C196.252 333.598 200.585 307.308 221.874 293.675C234.517 285.581 257.193 274.804 272.391 259.309C284.022 253.983 291.355 244.877 295.138 232.221L295.226 231.831C298.99 231.458 302.738 230.979 306.661 230.623C306.217 235.203 305.205 241.416 302.986 247.753C300.269 256.255 295.688 265.717 287.625 275.589C273.102 293.321 255.577 304.415 237.341 328.166C219.087 351.899 215.217 376.095 215.217 376.095C211.255 347.373 224.468 328.824 225.196 327.829C222.995 329.588 213.992 340.239 210.67 353.32C207.636 365.267 208.149 368.657 208.346 372.05C200.036 366.244 178.568 355.344 177.574 327.688L177.571 327.687ZM173.203 330.634C173.203 330.634 167.663 332.817 160.916 332.817C154.15 332.817 146.018 328.559 146.018 328.559L146.568 328.502C160.755 324.952 173.576 309.618 173.576 309.618C172.084 314.802 173.203 330.634 173.203 330.634ZM58.0708 336.933C48.678 339.829 36.7989 344.819 31.2947 347.213C44.1506 333.082 70.1993 307.752 91.4351 293.481C155.554 250.399 208.574 243.44 212.534 242.641L213.69 243.653C214.22 244.488 214.79 245.269 215.357 246.05C188.51 253.381 131.299 277.594 97.8461 301.007C83.4107 311.125 67.6605 327.083 58.0719 336.935L58.0708 336.933ZM101.397 140.518C93.9039 121.275 93.7442 103.844 93.8142 99.6545C93.8317 99.0507 93.7967 97.9153 93.7967 97.5423C93.9739 84.0509 95.7853 71.5549 97.3123 62.5723C97.3834 62.2168 97.437 61.8449 97.4895 61.4894L97.5245 63.4069C97.4709 72.7439 98.1108 80.963 98.3416 83.5193L98.3591 83.7676C98.3941 84.1406 98.6435 81.8501 98.8207 80.6961C99.442 76.5428 100.152 72.4059 100.561 68.2165C100.988 64.0446 101.928 59.0742 102.106 54.8848C102.177 53.2691 102.248 51.6535 102.194 50.0565C102.673 50.3223 102.852 51.8854 102.958 52.3284C103.313 54.0676 104.112 67.7538 104.342 72.4409C104.449 74.3048 104.485 76.1687 104.502 78.0501C104.52 78.9733 104.537 79.8965 104.698 80.8197C104.715 81.068 104.804 81.3349 104.858 81.6007C104.929 81.6007 105.586 75.4413 106.1 72.1751C106.544 69.3705 107.237 66.5298 107.219 63.6902C107.219 63.4419 107.148 63.1225 107.184 62.8917C107.255 62.4662 107.877 64.2765 108.179 67.6138C108.392 71.3952 108.552 75.3002 108.996 78.9919L109.333 81.9212C112.387 108.708 128.439 133.116 150.137 144.05C167.645 153.866 183.981 151.772 201.293 149.553C204.506 149.145 207.81 148.719 211.183 148.364C218.766 147.566 224.962 147.495 230.733 148.133C243.482 149.287 255.273 153.637 259.144 155.643C272.086 161.448 282.227 174.636 284.356 188.482V188.855C284.908 191.375 285.192 193.985 285.192 196.665V196.754C285.102 196.238 285.05 195.759 284.942 195.227C284.873 199.718 283.968 203.996 282.387 207.937C283.665 203.943 284.091 199.275 282.919 193.824C282.866 198.937 281.677 203.748 279.652 208.097C280.861 204.192 281.356 200.002 280.965 195.688C280.167 186.955 275.922 179.357 269.692 174.031C274.681 179.375 277.112 187.842 277.824 195.777C279.493 214.327 264.649 226.486 248.739 229.237L248.4 229.326C249.769 229.557 255.078 230.303 260.37 228.616C262.714 228.439 265.839 227.924 268.999 226.379C270.171 225.829 271.643 224.977 273.243 223.859C266.638 229.966 257.812 233.729 248.098 233.729C235.279 233.729 224.004 227.214 217.363 217.326C226.614 218.48 235.669 220.308 235.669 220.308C227.325 213.882 213.511 209.835 213.511 209.835V209.888C201.01 206.107 183.058 202.735 167.114 198.208C134.921 189.191 112.814 169.772 101.397 140.518ZM171.375 110.661C164.202 91.7198 166.617 73.6496 165.373 63.5316C165 60.6208 164.539 57.0702 163.971 53.2713C165.569 58.5075 167.646 65.9993 168.196 70.7914C168.196 70.7914 167.735 57.2113 165.87 48.7625C166.136 49.5435 170.576 62.0942 171.481 69.3716C171.481 69.3716 172.103 62.0932 171.41 54.3367C172.298 57.3185 173.097 60.4611 173.683 63.7623C177.376 84.2653 183.449 98.5902 207.882 113.661C203.532 120.318 197.122 129.388 192.132 136.436C186.095 131.91 176.009 122.927 171.375 110.661ZM216.654 110.678C220.507 102.513 221.057 96.105 221.057 96.105C256.692 97.7556 299.398 113.377 333.933 146.11C349.225 160.577 359.344 177.672 365.878 192.246C359.503 191.217 346.276 189.655 331.36 189.547C314.633 189.441 294.586 191.696 290.769 192.157V192.14C290.698 191.553 290.629 190.968 290.538 190.382L290.467 189.867C290.396 189.405 290.307 188.961 290.219 188.499H290.236C288.105 172.132 275.979 156.476 260.618 149.979C255.096 147.405 243.466 143.535 231.32 142.452C225.175 141.742 218.589 141.813 210.598 142.665C207.154 143.021 203.833 143.464 200.565 143.873C198.186 144.175 195.86 144.477 193.552 144.743C193.552 144.743 194.723 143.269 194.919 142.95C201.098 133.613 207.81 124.347 211.168 119.838C213.49 116.697 215.285 113.571 216.652 110.678H216.654ZM167.095 214.398C167.379 211.788 167.734 209.18 168.143 206.606C168.285 205.896 168.427 205.168 168.587 204.457C171.464 205.15 174.393 205.825 177.323 206.499C179.951 207.12 182.597 207.741 185.207 208.397C186.52 208.717 187.817 209.036 189.095 209.374L189.468 209.463L188.936 209.551C181.443 210.865 173.666 212.693 167.095 214.397V214.398ZM376.656 224.96C351.015 221.552 331.395 221.677 289.863 226.186C286.561 244.221 270.774 257.907 251.776 257.907C236.557 257.907 223.419 249.12 217.08 236.357C208.078 238.025 200.372 239.641 193.891 241.15C193.891 241.15 171.767 246.831 165.782 249.174C165.782 249.174 164.469 250.611 165.445 229.931C165.48 229.434 165.996 223.576 166.334 219.955C173.223 218.162 181.693 216.139 189.879 214.683C194.317 213.902 198.544 213.298 202.485 212.819C204.829 213.44 207.102 214.061 209.214 214.683C209.445 216.102 220.401 240.067 250.143 239.623C269.834 239.321 290.982 221.801 291 197.234V197.163C294.925 196.737 314.844 194.66 331.36 194.784C349.543 194.908 364.175 197.109 368.773 197.961C368.773 197.961 373.975 210.689 376.656 224.96ZM384.84 228.209C392.264 226.541 395.602 225.014 395.602 225.014C395.602 225.014 393.808 238.594 379.444 239.606C365.097 240.635 363.18 237.174 352.401 235.772C352.401 235.772 355.615 233.837 361.386 232.7C361.386 232.7 351.372 231.281 343.807 233.197C336.26 235.132 333.17 238.327 333.17 238.327C333.17 238.327 332.282 230.641 336.118 228.084C339.972 225.511 353.43 226.54 357.903 227.055C362.399 227.57 377.402 229.877 384.84 228.209ZM389.085 267.76C391.11 269.319 393.134 269.64 394.376 270.565C395.619 271.503 395.619 274.309 394.997 276.636C394.376 278.959 392.653 279.278 390.789 278.817C389.049 278.373 379.956 277.149 370.068 278.959C369.535 277.13 368.629 272.959 370.6 270.882C373.158 268.22 378.078 268.45 380.029 268.823C379.568 268.61 375.768 266.906 372.392 266.906C368.808 266.906 365.86 269.356 364.829 272.038C364.066 274.042 364.723 278.16 365.114 280.149C354.371 283.309 338.976 291.705 326.351 307.912C312.661 325.485 309.573 347.424 309.573 347.424C309.573 347.424 295.118 350.266 287.643 339.171C277.612 324.278 281.39 306.812 281.39 306.812C281.39 306.812 275.444 309.617 270.754 308.391C269.104 307.965 267.931 306.882 267.099 305.586C274.928 298.646 283.238 292.131 291.495 282.689C295.755 283.627 299.591 284.658 301.688 285.314C306.305 286.716 311.116 290.62 312.413 294.847C313.691 299.071 314.33 313.432 314.33 313.432C316.92 303.438 317.33 298.415 317.58 295.574C317.846 292.77 317.545 285.633 312.147 280.699C309.215 278.037 300.96 275.569 297.673 273.757C310.193 256.522 313.638 230.108 313.638 230.108C313.62 229.86 313.62 229.611 313.62 229.362C314.9 229.22 315.731 229.096 315.768 228.954C318.077 228.829 326.263 227.817 328.536 227.782C328.536 227.782 325.111 237.883 328.074 245.356C328.074 245.356 335.692 240.226 346.594 241.007C357.479 241.788 374.913 247.078 382.391 244.114C382.391 244.114 385.658 251.587 385.499 257.036C385.356 262.468 387.059 266.211 389.085 267.76ZM408.207 337.805C407.498 333.456 403.13 329.569 400.946 329.087C398.761 328.609 393.186 327.155 393.186 327.155C397.305 315.529 397.305 308.25 397.305 308.25C400.946 306.312 408.206 303.405 408.206 303.405C405.793 290.551 397.056 280.611 397.056 280.611C397.785 277.948 399.487 273.351 399.487 271.647C399.487 269.942 396.328 267.049 392.937 264.866C389.545 262.683 389.066 258.813 389.066 254.198C389.066 249.6 387.131 243.778 386.402 243.529C385.674 243.299 395.048 240.334 397.962 232.08C400.874 223.844 400.945 217.151 400.945 217.151C397.074 222.797 381.91 225.122 381.91 225.122C380.702 212.271 370.387 170.821 328.693 133.259C287.002 95.6981 215.958 88.8988 215.958 88.8988C216.064 90.9935 215.798 93.4787 215.177 96.2122C214.591 99.7442 213.561 103.916 211.767 107.29C211.661 107.485 211.519 107.734 211.377 107.964C201.575 102.657 191.276 95.5209 186.553 87.1782C177.409 71.0244 178.545 57.1249 173.697 45.7293C165.76 27.0728 154.307 16.9373 150.898 13.9719C148.945 12.2677 148.289 11.7 147.276 12.516C146.281 13.3145 146.939 14.4685 147.755 15.6761C148.518 16.8126 155.657 30.5698 158.32 49.2438C160.984 67.9003 157.451 97.3498 166.186 116.255C171.619 128.023 180.604 137.343 186.623 142.704C186.837 142.881 187.05 143.077 187.245 143.254L189.198 145.189C176.733 146.36 165.138 145.916 152.815 138.993C132.999 129.018 117.799 105.816 115.012 81.266L114.675 78.3192C113.894 71.591 114.213 64.8638 113.911 58.1181C113.646 51.9937 112.971 45.8879 111.905 39.8521C111.444 37.1897 110.893 34.5623 110.254 31.9349L110.236 31.8463C109.97 30.2482 109.508 28.6687 109.046 27.1067C108.744 26.0774 108.407 25.0481 108.069 24.0002C107.288 21.7108 106.275 19.5089 104.979 17.4142C103.416 14.894 101.694 12.4438 99.6882 10.2605C98.4981 8.96427 97.2205 7.74027 95.7821 6.72846C95.7821 6.72846 94.4509 5.89386 93.5452 6.37296C93.5452 6.37296 92.3551 7.20756 93.6163 9.79887C93.6163 9.79887 93.9357 10.3141 94.3087 11.2012C94.5219 11.6978 94.7527 12.3191 94.966 13.0301C95.1618 13.6689 95.3215 14.3613 95.4452 15.1073C96.4395 20.4332 97.1494 31.8999 92.9414 53.7876L92.9063 53.8587C92.5334 57.0363 92.1254 60.2139 91.5752 63.3729C89.8349 73.6157 88.1481 85.2421 87.8638 97.3137C87.8638 97.8464 87.9348 99.4084 87.9173 99.7278C87.7926 110.467 89.8523 180.869 162.671 203.04C162.335 204.548 162.014 206.004 161.783 207.406C156.864 238.453 158.676 251.536 158.676 251.536L158.711 251.856C143.813 257.465 126.962 265.027 109.206 275.181C89.3361 286.062 67.7798 300.866 46.6851 321.067C42.7254 324.884 39.014 328.629 35.4984 332.357C34.6463 333.244 33.7942 334.15 32.941 335.056L32.7813 335.233C21.6482 347.214 13.2497 358.256 7.15918 367.238C40.0619 343.489 91.4669 336.369 107.181 335.444C123.659 334.487 140.349 331.667 140.349 331.667C140.349 331.667 146.867 335.144 154.644 336.848C163.469 338.801 172.702 335.996 172.702 335.996C176.023 353.073 188.026 364.043 191.168 366.509C190.351 371.641 191.186 388.575 196.957 397.984C203.172 408.119 213.434 414.954 213.434 414.954C213.434 414.954 212.724 424.131 215.139 430.7C217.554 437.267 223.164 443.249 223.164 443.249C223.164 443.249 220.607 447.545 220.27 452.942C219.933 458.338 223.164 461.336 223.164 461.336C223.164 461.336 220.235 465.101 219.737 468.03C219.256 470.977 221.068 475.395 221.068 475.395C221.068 475.395 219.293 478.627 218.778 481.112C218.245 483.615 219.737 486.688 219.737 486.688C218.547 489.011 215.016 499.929 220.216 504.313C225.401 508.697 231.864 500.514 231.864 500.514C233.853 499.928 237.598 497.461 239.374 494.691C241.559 491.3 241.559 488.141 241.559 488.141C241.559 488.141 244.347 486.329 246.76 481.715C248.752 477.97 248.467 475.502 248.467 475.502C248.467 475.502 259.742 463.662 262.086 448.875C264.091 436.272 261.126 424.643 261.126 424.643C261.126 424.643 269.598 411.758 269.207 397.024C274.978 392.993 288.898 383.959 306.229 377.215C306.727 387.154 308.289 395.763 305.181 411.74C301.293 431.622 283.59 446.161 283.59 446.161C308.323 443.499 324.82 421.68 331.355 405.919C336.699 393.065 341.565 374.887 343.82 366.651C367.949 361.965 389.987 360.722 397.302 359.623C406.997 358.166 409.43 356 409.66 352.363C409.909 348.723 408.932 342.172 408.202 337.805H408.207ZM365.931 246.05C365.931 246.05 359.911 243.742 352.098 245.02C344.267 246.298 341.196 247.842 335.94 248.482L335.887 248.571C340.274 250.008 347.447 249.902 351.708 250.648C353.765 251.021 355.882 252.175 357.567 253.293L355.365 263.128C350.465 265.738 342.527 270.709 336.453 278.253C335.991 278.82 335.547 279.442 335.14 280.098C334.945 280.363 334.767 280.648 334.608 280.95C334.375 281.323 334.164 281.696 333.969 282.068C333.721 282.512 333.488 282.973 333.259 283.452C333.028 283.914 332.815 284.376 332.62 284.837C331.751 286.788 331.057 288.742 330.543 290.395L330.367 290.962C329.976 292.256 329.693 293.322 329.514 294.051L329.443 294.333L329.39 294.547L329.318 294.884L329.3 294.975C329.406 294.795 329.958 293.801 330.882 292.364L331.555 291.335C333.33 288.672 336.03 284.979 339.244 281.82C339.689 281.376 340.148 280.933 340.612 280.524C341.552 279.688 342.511 278.909 343.507 278.216C350.717 273.211 354.533 271.276 356.715 269.236C357.108 268.826 357.428 268.381 357.713 267.938C359.613 265.629 360.464 257.376 360.626 255.62V255.566L360.66 255.264C360.677 254.962 360.678 254.714 360.678 254.554V254.377C360.554 253.223 358.244 249.886 356.966 248.36C356.966 248.36 360.677 246.301 365.933 246.052L365.931 246.05ZM365.931 246.05C365.931 246.05 359.911 243.742 352.098 245.02C344.267 246.298 341.196 247.842 335.94 248.482L335.887 248.571C340.274 250.008 347.447 249.902 351.708 250.648C353.765 251.021 355.882 252.175 357.567 253.293L355.365 263.128C350.465 265.738 342.527 270.709 336.453 278.253C335.991 278.82 335.547 279.442 335.14 280.098C334.945 280.363 334.767 280.648 334.608 280.95C334.375 281.323 334.164 281.696 333.969 282.068C333.721 282.512 333.488 282.973 333.259 283.452C333.028 283.914 332.815 284.376 332.62 284.837C331.751 286.788 331.057 288.742 330.543 290.395L330.367 290.962C329.976 292.256 329.693 293.322 329.514 294.051L329.443 294.333L329.39 294.547L329.318 294.884L329.3 294.975C329.406 294.795 329.958 293.801 330.882 292.364L331.555 291.335C333.33 288.672 336.03 284.979 339.244 281.82C339.689 281.376 340.148 280.933 340.612 280.524C341.552 279.688 342.511 278.909 343.507 278.216C350.717 273.211 354.533 271.276 356.715 269.236C357.108 268.826 357.428 268.381 357.713 267.938C359.613 265.629 360.464 257.376 360.626 255.62V255.566L360.66 255.264C360.677 254.962 360.678 254.714 360.678 254.554V254.377C360.554 253.223 358.244 249.886 356.966 248.36C356.966 248.36 360.677 246.301 365.933 246.052L365.931 246.05ZM365.931 246.05C365.931 246.05 359.911 243.742 352.098 245.02C344.267 246.298 341.196 247.842 335.94 248.482L335.887 248.571C340.274 250.008 347.447 249.902 351.708 250.648C353.765 251.021 355.882 252.175 357.567 253.293L355.365 263.128C350.465 265.738 342.527 270.709 336.453 278.253C335.991 278.82 335.547 279.442 335.14 280.098C334.945 280.363 334.767 280.648 334.608 280.95C334.375 281.323 334.164 281.696 333.969 282.068C333.721 282.512 333.488 282.973 333.259 283.452C333.028 283.914 332.815 284.376 332.62 284.837C331.751 286.788 331.057 288.742 330.543 290.395L330.367 290.962C329.976 292.256 329.693 293.322 329.514 294.051L329.443 294.333L329.39 294.547L329.318 294.884L329.3 294.975C329.406 294.795 329.958 293.801 330.882 292.364L331.555 291.335C333.33 288.672 336.03 284.979 339.244 281.82C339.689 281.376 340.148 280.933 340.612 280.524C341.552 279.688 342.511 278.909 343.507 278.216C350.717 273.211 354.533 271.276 356.715 269.236C357.108 268.826 357.428 268.381 357.713 267.938C359.613 265.629 360.464 257.376 360.626 255.62V255.566L360.66 255.264C360.677 254.962 360.678 254.714 360.678 254.554V254.377C360.554 253.223 358.244 249.886 356.966 248.36C356.966 248.36 360.677 246.301 365.933 246.052L365.931 246.05ZM365.931 246.05C365.931 246.05 359.911 243.742 352.098 245.02C344.267 246.298 341.196 247.842 335.94 248.482L335.887 248.571C340.274 250.008 347.447 249.902 351.708 250.648C353.765 251.021 355.882 252.175 357.567 253.293L355.365 263.128C350.465 265.738 342.527 270.709 336.453 278.253C335.991 278.82 335.547 279.442 335.14 280.098C334.945 280.363 334.767 280.648 334.608 280.95C334.375 281.323 334.164 281.696 333.969 282.068C333.721 282.512 333.488 282.973 333.259 283.452C333.028 283.914 332.815 284.376 332.62 284.837C331.751 286.788 331.057 288.742 330.543 290.395L330.367 290.962C329.976 292.256 329.693 293.322 329.514 294.051L329.443 294.333L329.39 294.547L329.318 294.884L329.3 294.975C329.406 294.795 329.958 293.801 330.882 292.364L331.555 291.335C333.33 288.672 336.03 284.979 339.244 281.82C339.689 281.376 340.148 280.933 340.612 280.524C341.552 279.688 342.511 278.909 343.507 278.216C350.717 273.211 354.533 271.276 356.715 269.236C357.108 268.826 357.428 268.381 357.713 267.938C359.613 265.629 360.464 257.376 360.626 255.62V255.566L360.66 255.264C360.677 254.962 360.678 254.714 360.678 254.554V254.377C360.554 253.223 358.244 249.886 356.966 248.36C356.966 248.36 360.677 246.301 365.933 246.052L365.931 246.05ZM365.931 246.05C365.931 246.05 359.911 243.742 352.098 245.02C344.267 246.298 341.196 247.842 335.94 248.482L335.887 248.571C340.274 250.008 347.447 249.902 351.708 250.648C353.765 251.021 355.882 252.175 357.567 253.293L355.365 263.128C350.465 265.738 342.527 270.709 336.453 278.253C335.991 278.82 335.547 279.442 335.14 280.098C334.945 280.363 334.767 280.648 334.608 280.95C334.375 281.323 334.164 281.696 333.969 282.068C333.721 282.512 333.488 282.973 333.259 283.452C333.028 283.914 332.815 284.376 332.62 284.837C331.751 286.788 331.057 288.742 330.543 290.395L330.367 290.962C329.976 292.256 329.693 293.322 329.514 294.051L329.443 294.333L329.39 294.547L329.318 294.884L329.3 294.975C329.406 294.795 329.958 293.801 330.882 292.364L331.555 291.335C333.33 288.672 336.03 284.979 339.244 281.82C339.689 281.376 340.148 280.933 340.612 280.524C341.552 279.688 342.511 278.909 343.507 278.216C350.717 273.211 354.533 271.276 356.715 269.236C357.108 268.826 357.428 268.381 357.713 267.938C359.613 265.629 360.464 257.376 360.626 255.62V255.566L360.66 255.264C360.677 254.962 360.678 254.714 360.678 254.554V254.377C360.554 253.223 358.244 249.886 356.966 248.36C356.966 248.36 360.677 246.301 365.933 246.052L365.931 246.05ZM365.931 246.05C365.931 246.05 359.911 243.742 352.098 245.02C344.267 246.298 341.196 247.842 335.94 248.482L335.887 248.571C340.274 250.008 347.447 249.902 351.708 250.648C353.765 251.021 355.882 252.175 357.567 253.293L355.365 263.128C350.465 265.738 342.527 270.709 336.453 278.253C335.991 278.82 335.547 279.442 335.14 280.098C334.945 280.363 334.767 280.648 334.608 280.95C334.375 281.323 334.164 281.696 333.969 282.068C333.721 282.512 333.488 282.973 333.259 283.452C333.028 283.914 332.815 284.376 332.62 284.837C331.751 286.788 331.057 288.742 330.543 290.395L330.367 290.962C329.976 292.256 329.693 293.322 329.514 294.051L329.443 294.333L329.39 294.547L329.318 294.884L329.3 294.975C329.406 294.795 329.958 293.801 330.882 292.364L331.555 291.335C333.33 288.672 336.03 284.979 339.244 281.82C339.689 281.376 340.148 280.933 340.612 280.524C341.552 279.688 342.511 278.909 343.507 278.216C350.717 273.211 354.533 271.276 356.715 269.236C357.108 268.826 357.428 268.381 357.713 267.938C359.613 265.629 360.464 257.376 360.626 255.62V255.566L360.66 255.264C360.677 254.962 360.678 254.714 360.678 254.554V254.377C360.554 253.223 358.244 249.886 356.966 248.36C356.966 248.36 360.677 246.301 365.933 246.052L365.931 246.05Z" fill="black"/>
<path d="M409.666 352.362C409.435 355.999 407.002 358.165 397.308 359.622C389.992 360.721 367.955 361.964 343.826 366.65C341.57 374.887 336.706 393.064 331.36 405.918C324.826 421.679 308.328 443.497 283.595 446.16C283.595 446.16 301.298 431.62 305.187 411.739C308.294 395.763 306.731 387.154 306.235 377.214C288.905 383.958 274.984 392.992 269.213 397.023C269.603 411.757 261.131 424.642 261.131 424.642C261.131 424.642 264.097 436.271 262.092 448.874C259.748 463.66 248.472 475.501 248.472 475.501C248.472 475.501 248.758 477.969 246.766 481.714C244.353 486.328 241.565 488.141 241.565 488.141C241.565 488.141 241.565 491.301 239.379 494.69C237.604 497.46 233.859 499.927 231.87 500.513C231.87 500.513 225.406 508.696 220.222 504.312C215.02 499.928 218.552 489.01 219.743 486.687C219.743 486.687 218.251 483.614 218.783 481.112C219.298 478.626 221.074 475.394 221.074 475.394C221.074 475.394 219.261 470.976 219.743 468.029C220.24 465.1 223.17 461.335 223.17 461.335C223.17 461.335 219.938 458.337 220.275 452.941C220.612 447.545 223.17 443.248 223.17 443.248C223.17 443.248 217.558 437.266 215.144 430.699C212.729 424.131 213.44 414.953 213.44 414.953C213.44 414.953 203.176 408.119 196.962 397.983C191.191 388.575 190.357 371.64 191.174 366.508C188.031 364.042 176.027 353.072 172.707 335.995C172.707 335.995 163.474 338.8 154.649 336.847C146.872 335.143 140.355 331.666 140.355 331.666C140.355 331.666 123.664 334.487 107.187 335.443C91.4724 336.367 40.0674 343.488 7.16472 367.237C13.2552 358.255 21.6537 347.214 32.7868 335.232L32.9465 335.056C33.7986 334.149 34.6507 333.243 35.5039 332.356C39.0195 328.628 42.7309 324.883 46.6906 321.066C67.7853 300.865 89.3416 286.061 109.211 275.18C126.967 265.026 143.818 257.464 158.716 251.855L158.681 251.535C158.681 251.535 156.87 238.453 161.789 207.406C162.02 206.003 162.339 204.547 162.677 203.039C89.8579 180.868 87.7982 110.466 87.9229 99.7269C87.9404 99.4075 87.8693 97.8455 87.8693 97.3128C88.1537 85.2423 89.8404 73.6148 91.5807 63.3721C92.1309 60.212 92.54 57.0343 92.9119 53.8578L92.9469 53.7867C97.1549 31.899 96.445 20.4323 95.4507 15.1064C95.326 14.3604 95.1663 13.6691 94.9716 13.0292C94.7583 12.3193 94.5275 11.698 94.3142 11.2003C93.9412 10.3132 93.6218 9.79798 93.6218 9.79798C92.3606 7.20668 93.5507 6.37208 93.5507 6.37208C94.4564 5.89298 95.7876 6.72758 95.7876 6.72758C97.226 7.73938 98.5047 8.96448 99.6937 10.2596C101.7 12.4429 103.423 14.8931 104.985 17.4133C106.281 19.508 107.293 21.7088 108.075 23.9993C108.412 25.0461 108.75 26.0765 109.051 27.1058C109.513 28.6678 109.975 30.2473 110.242 31.8454L110.259 31.934C110.898 34.5614 111.449 37.1888 111.911 39.8512C112.976 45.887 113.651 51.9928 113.917 58.1173C114.219 64.863 113.899 71.5901 114.68 78.3183L115.017 81.2651C117.806 105.815 133.004 129.016 152.82 138.992C165.144 145.915 176.738 146.359 189.204 145.188L187.25 143.253C187.054 143.076 186.842 142.88 186.629 142.703C180.609 137.342 171.625 128.022 166.191 116.254C157.455 97.3489 160.989 67.8995 158.326 49.2429C155.662 30.5689 148.524 16.8117 147.76 15.6752C146.943 14.4676 146.287 13.3147 147.281 12.5151C148.293 11.698 148.95 12.2668 150.904 13.971C154.313 16.9353 165.766 27.0719 173.703 45.7284C178.551 57.1251 177.414 71.0235 186.559 87.1773C191.282 95.52 201.58 102.656 211.382 107.964C211.525 107.733 211.667 107.484 211.773 107.289C213.567 103.916 214.596 99.7444 215.182 96.2113C215.804 93.4778 216.071 90.9926 215.963 88.8979C215.963 88.8979 287.007 95.6961 328.699 133.259C370.393 170.82 380.708 212.269 381.915 225.121C381.915 225.121 397.079 222.796 400.95 217.151C400.95 217.151 400.879 223.843 397.967 232.079C395.053 240.333 385.68 243.298 386.408 243.529C387.136 243.777 389.071 249.599 389.071 254.197C389.071 258.812 389.55 262.682 392.942 264.865C396.334 267.048 399.492 269.941 399.492 271.646C399.492 273.35 397.789 277.947 397.062 280.61C397.062 280.61 405.798 290.55 408.211 303.404C408.211 303.404 400.95 306.312 397.311 308.249C397.311 308.249 397.311 315.528 393.192 327.154C393.192 327.154 398.767 328.61 400.951 329.086C403.136 329.568 407.503 333.455 408.212 337.804C408.942 342.171 409.919 348.721 409.67 352.362H409.666ZM414.318 336.952C413.199 330.189 407.074 324.278 402.296 323.213C401.96 323.141 401.516 323.053 401.037 322.93C402.279 318.455 402.882 314.885 403.184 312.385C405.938 311.125 409.154 309.811 410.537 309.258L415.242 307.361L414.302 302.39C412.364 292.13 406.986 283.645 403.912 279.456C405.017 275.959 405.672 273.687 405.672 271.754C405.672 267.812 402.512 263.782 396.297 259.787C395.799 259.47 395.232 258.562 395.232 254.284C395.232 254.213 395.161 250.201 394.113 246.119C397.486 243.829 401.71 240.065 403.79 234.208C405.867 228.314 406.649 223.096 406.95 220.06C407.11 218.41 406.877 214.451 406.877 214.451L406.239 206.818C406.239 206.818 402.404 209.871 400.274 211.504C399.704 211.93 399.278 212.25 399.046 212.391C398.744 212.622 398.408 212.835 398.089 213.03C396.525 213.971 394.786 214.717 394.04 215.107C392.369 216.013 389.832 216.971 387.043 217.752C383.032 197.001 368.33 160.7 332.781 128.676C290.024 90.1558 219.405 83.0207 216.424 82.7188L209.801 82.0975C209.801 82.0975 209.658 92.0208 209.035 94.8429L208.966 95.1623C208.735 96.5296 208.468 97.8247 208.148 99.0323C200.106 94.0083 194.495 88.9143 191.779 84.1036C186.753 75.2282 185.12 67.0802 183.557 59.2166C182.457 53.6424 181.391 48.3525 179.225 43.2399C173.507 29.8196 165.286 18.3704 154.791 9.22809C152.891 7.59499 150.956 5.89079 147.974 5.89079C146.783 5.89079 145.008 6.19269 143.215 7.63C141.937 8.6768 138.102 12.5468 142.381 18.8845C142.452 18.9906 149.431 31.7546 152.04 50.0382C152.91 56.0554 153.088 63.476 153.283 71.3221C153.674 87.209 154.135 105.192 160.421 118.824C163.191 124.806 166.76 130.185 170.489 134.853C170.862 135.315 172.283 136.806 172.531 137.108C173.17 137.854 173.828 138.599 174.466 139.309C167.595 138.722 161.699 136.912 155.84 133.628L155.592 133.486C137.551 124.397 123.701 103.131 121.145 80.5519L120.808 77.6051C120.329 73.6115 120.293 69.5643 120.24 65.2863C120.223 62.8547 120.187 60.352 120.081 57.8307C119.796 51.5116 119.104 45.1027 117.985 38.7836C117.523 36.1212 116.954 33.4402 116.333 30.8128L116.28 30.617C115.943 28.682 115.41 26.8542 114.966 25.3808C114.646 24.2629 114.291 23.1614 113.918 22.061C112.995 19.2914 111.77 16.6465 110.243 14.1799C108.218 10.8962 106.3 8.3224 104.223 6.06799C102.59 4.29269 100.992 2.85539 99.3579 1.70139L99.1096 1.54169C98.4172 1.08009 96.5347 0.0507812 94.1906 0.0507812C92.948 0.0507812 91.7579 0.335179 90.675 0.902882L89.9826 1.32838C87.2655 3.24589 85.6324 7.45279 88.0826 12.4943L88.3134 12.9198C88.367 13.0084 88.4906 13.2567 88.6503 13.6122C88.7925 13.9491 88.9347 14.3582 89.0769 14.8012C89.2016 15.1917 89.2902 15.6358 89.3963 16.2385C90.2134 20.6226 90.9769 31.0786 86.9997 52.0607L86.7864 53.1436C86.3423 56.8714 85.9518 59.6935 85.5077 62.3209C83.8035 72.3678 82.0096 84.3497 81.7077 97.1662C81.7077 97.5567 81.7252 98.3738 81.7427 99.0476L81.7602 99.6514C81.6716 108.136 82.9678 181.68 155.574 207.188L155.627 207.205L155.396 207.294C152.094 228.436 151.863 241.466 152.075 247.82C136.325 253.997 120.824 261.417 106.034 269.885C82.8792 282.559 61.394 298.34 42.1643 316.765C38.2757 320.51 34.5468 324.258 30.7829 328.233C29.8947 329.156 29.0251 330.08 28.2616 330.915L28.0133 331.18C18.4958 341.424 9.90151 352.108 2.46231 362.938C2.23151 363.274 1.55661 364.357 1.29081 364.996C0.438707 366.946 -0.466993 370.694 1.30831 372.665C2.37371 373.854 4.46841 374.866 8.42811 373.18C8.62391 373.127 9.38741 372.825 9.67071 372.665C10.4342 372.24 11.5707 371.529 11.9437 371.243C35.9863 352.854 91.2077 342.699 107.331 341.76C120.843 340.961 134.249 338.989 139.222 338.209C141.92 339.489 147.195 341.708 153.143 343.02C155.664 343.57 158.381 343.854 161.24 343.854C163.726 343.854 166.051 343.643 168.04 343.358C172.159 356.369 180.363 365.298 184.625 369.293C184.359 377.139 185.69 391.856 191.567 401.405C196.362 409.233 203.216 415.215 207.033 418.199C207.033 421.944 207.353 427.963 209.235 433.056C210.904 437.618 213.728 441.754 215.822 444.468C215.005 446.653 214.189 449.549 213.993 452.795C213.763 456.45 214.615 459.399 215.68 461.6C214.757 463.268 213.886 465.274 213.549 467.28C213.088 470.031 213.655 473.031 214.295 475.231C213.656 476.636 212.982 478.428 212.606 480.133C212.111 482.583 212.519 485.032 213.033 486.861C211.135 492.381 209.056 503.369 216.107 509.318C218.237 511.109 220.796 512.051 223.493 512.051C228.909 512.051 233.311 508.198 235.426 505.962C238.569 504.489 242.331 501.613 244.466 498.31C246.08 495.807 246.861 493.394 247.252 491.568C248.672 490.146 250.482 487.98 252.115 484.873C253.502 482.248 254.123 479.991 254.389 478.287C257.46 474.613 264.262 465.595 267.208 454.358L267.902 451.252C267.973 450.881 268.044 450.488 268.096 450.08C269.711 439.889 268.4 430.377 267.565 425.938C269.962 421.643 274.668 411.862 275.236 400.519C280.439 397.057 289.512 391.466 300.593 386.442C301.019 393.223 301.145 400.199 299.083 410.779C296.544 423.701 287.115 434.388 282.375 439.074C280.725 440.69 276.657 445.305 276.657 445.305C276.657 445.305 275.096 446.618 275.398 449.298C275.415 449.458 275.54 449.92 275.663 450.257C275.717 450.379 276 450.789 276.125 450.895C278.38 453.079 284.577 452.28 284.577 452.28C311.264 449.422 329.339 427.003 337.028 408.488C341.823 396.95 346.155 381.56 348.728 372.169C364.196 369.365 378.507 367.963 388.22 367.005C392.553 366.578 395.98 366.241 398.234 365.885C404.148 365.016 415.156 363.365 415.848 352.927C416.079 349.607 415.583 344.533 414.321 336.95L414.318 336.952Z" fill="#FFFFFE"/>
</g>
<defs>
<clipPath id="clip0_879_3752">
<rect width="415.616" height="512" fill="white" transform="translate(0.287598 0.0507812)"/>
</clipPath>
</defs>
</svg>
