<svg width="488" height="513" viewBox="0 0 488 513" fill="none" xmlns="http://www.w3.org/2000/svg">
<g clip-path="url(#clip0_876_1670)">
<path d="M475.689 165.857C457.095 145.372 415.968 128.669 363.022 118.584C363.337 112.439 366.961 109.918 373.58 105.348C376.889 102.984 380.828 100.148 384.925 96.5236C402.101 80.2933 381.931 55.5539 381.143 54.2933L370.113 40.7418L372.792 57.9175C374.525 69.5782 370.271 73.8327 357.349 82.8145C355.774 83.9175 354.198 85.1781 353.095 86.4388C353.725 78.56 354.04 69.7357 351.362 58.7054C348.683 47.6751 343.325 43.1054 343.325 43.1054L341.907 59.0206C341.907 59.1782 340.804 71.4691 324.258 86.4388C325.677 84.863 327.095 83.2872 328.198 81.3963C336.234 69.7357 333.871 56.1842 331.349 40.7418L330.719 37.5903C327.883 21.5175 332.295 11.4327 335.131 9.54179C337.968 6.2327 343.168 0.717549 343.168 0.717549C343.168 0.717549 340.331 -0.543058 332.295 0.402396C322.052 1.82058 304.561 7.96603 305.034 22.1478C305.192 28.2933 307.24 34.2812 308.974 39.4812C310.865 44.9963 312.598 50.3539 311.022 53.0327C309.762 55.2388 305.822 56.8145 299.834 58.0751C275.568 62.4872 256.974 73.8327 247.361 90.2206C244.21 95.5781 242.161 101.408 241.058 107.396C180.707 107.554 123.507 115.118 79.2282 128.827C29.5918 144.269 2.17364 165.227 0.125159 189.336C-0.977872 202.099 4.69486 220.378 36.6827 238.184L36.5252 238.499L45.6645 242.911L50.5494 245.275C65.2039 251.893 82.5373 257.566 101.604 262.136C94.6706 265.918 88.3676 270.487 82.8524 275.53C51.9676 300.899 34.1615 338.56 34.1615 378.584C34.1615 414.196 48.0282 447.76 73.2403 472.972C98.4524 498.184 132.016 512.051 167.628 512.051C230.816 512.051 285.652 467.299 298.258 405.687C309.131 373.384 307.713 338.875 307.398 325.796C306.295 296.172 320.949 279.784 330.089 272.378C372.319 267.178 409.507 257.881 437.398 245.433L441.968 243.227L451.58 238.657L451.264 238.342C473.64 225.893 486.089 211.239 487.507 195.639C488.137 185.554 484.198 175.469 475.689 165.857ZM432.198 191.857C435.98 196.111 435.664 198.79 435.664 199.578C435.192 204.463 429.204 210.136 419.119 215.493C397.846 226.681 361.446 235.19 317.955 239.445C319.846 238.342 321.895 237.081 324.258 236.293L325.046 235.978C337.495 230.778 351.677 225.105 352.307 204.463C352.465 201.311 352.622 191.069 354.355 187.445C356.719 182.718 362.707 175.784 367.907 173.893C368.065 173.893 359.083 172.16 359.083 172.16C358.61 172.16 358.137 172.16 357.822 172.002C360.816 169.796 363.022 167.275 364.44 164.596C399.737 172.002 423.531 182.087 432.198 191.857ZM51.1797 196.899C52.5979 179.881 114.052 157.348 213.168 153.881C203.871 160.814 193.155 172.79 190.319 192.33L189.216 199.578C188.586 204.148 187.798 208.718 186.065 213.287C182.283 223.214 171.41 231.566 160.065 237.869C120.04 232.827 86.7918 224.318 67.2524 213.918C56.6949 208.087 50.707 201.942 51.1797 196.899Z" fill="black"/>
<path d="M38.8887 388.354C42.3554 406.003 52.4402 426.96 72.4523 440.985C78.4402 445.239 85.0584 448.548 92.1493 451.227C87.8947 443.979 82.6947 436.415 77.6523 429.009C68.1978 414.985 58.1129 400.33 51.9675 384.73C45.5069 368.5 43.7735 351.639 46.6099 334.621C41.4099 348.33 38.7311 363.3 38.7311 379.057C38.416 382.051 38.5735 385.045 38.8887 388.354Z" fill="#961A31"/>
<path d="M60.4767 381.105C66.307 395.917 76.0767 409.941 85.2161 423.808C92.4646 434.366 99.3979 444.766 104.756 455.166C110.586 456.426 116.731 457.372 122.877 457.844C116.416 448.705 110.901 438.305 106.174 426.487C87.7373 380.475 90.4161 323.432 113.422 290.499C125.24 273.481 139.422 261.978 157.859 251.893C173.459 243.226 183.386 240.705 193.471 234.717C204.343 228.257 210.174 217.384 202.925 193.117C200.877 185.869 200.404 180.354 200.877 175.941C198.355 180.826 196.465 186.341 195.677 192.802C194.574 199.735 194.101 207.299 191.107 214.863C181.495 240.075 135.01 253.941 128.865 255.832C111.216 261.032 97.0343 269.384 86.004 279.154C53.701 307.675 48.0282 350.22 60.4767 381.105Z" fill="#961A31"/>
<path d="M254.61 153.566C255.083 155.142 255.555 156.718 255.713 158.136C256.816 166.96 254.295 174.051 243.422 175.785C232.234 177.518 228.452 167.906 227.664 160.027C227.507 157.191 227.822 154.985 227.98 153.566C226.089 153.566 224.355 153.566 222.464 153.724C218.998 155.772 214.27 158.924 209.858 163.336C207.652 168.221 204.974 174.682 209.07 190.124C216.319 217.385 213.167 233.772 191.422 243.227C163.531 255.203 145.725 262.294 121.774 292.233C110.271 306.572 104.125 330.209 103.18 354.003C102.077 377.166 106.961 401.906 114.998 422.075C120.355 435.627 126.816 447.445 134.38 457.372C141.786 457.057 149.507 456.112 156.913 454.378C148.561 444.766 143.834 432.791 143.046 419.554C140.21 375.275 164.004 356.839 200.561 327.372L216.949 313.663C282.343 258.197 263.277 201.785 270.367 153.566C265.325 153.882 259.967 153.724 254.61 153.566Z" fill="#961A31"/>
<path d="M280.768 154.512C278.719 164.124 277.774 174.209 277.301 184.609C274.622 226.681 276.04 274.112 222.78 321.227L206.707 334.306C171.095 362.827 150.768 380.633 152.186 419.397C152.659 432.16 158.016 443.348 167.155 452.172C177.083 449.178 187.01 444.924 196.465 439.566C242.792 413.409 271.786 374.015 282.974 323.906C290.065 292.075 289.907 266.233 289.749 245.433C289.749 234.875 291.01 214.233 291.01 214.233C292.428 201.154 294.477 183.033 309.604 158.924C310.077 158.136 310.707 157.348 311.022 156.56C301.41 155.772 291.325 154.984 280.768 154.512Z" fill="#961A31"/>
<path d="M296.367 289.554C294.949 297.118 294.477 305.627 293.531 313.978C293.058 317.13 292.586 320.281 292.27 323.433C292.113 324.378 291.955 325.166 291.64 325.954C279.98 379.057 249.725 420.184 201.192 447.76C192.84 452.487 184.331 456.427 175.822 459.421C190.004 468.875 206.707 471.711 218.21 470.136C261.858 463.517 283.131 435.154 293.374 404.584C303.931 373.384 302.828 339.978 302.355 326.269C300.622 280.099 336.234 263.081 336.234 263.081C308.501 261.505 299.361 273.639 296.367 289.554Z" fill="#961A31"/>
<path d="M267.216 459.578C249.41 474.548 230.186 477.699 221.361 479.118C204.186 481.796 183.858 477.699 165.895 463.518C165.58 463.202 165.264 463.045 164.949 462.73C157.228 464.778 149.507 466.039 141.786 466.827C159.434 485.736 182.44 496.451 213.798 498.657H214.27C235.386 490.305 253.822 476.754 267.846 459.105C267.636 459.316 267.426 459.473 267.216 459.578Z" fill="#961A31"/>
<path d="M104.913 491.251C105.228 481.639 102.549 471.869 97.9797 462.415C87.2646 459.263 76.8646 454.851 66.7797 448.706C61.107 445.239 55.907 440.039 51.4949 435.154C63.1555 458.948 81.907 478.488 104.913 491.251Z" fill="#961A31"/>
<path d="M193.786 504.644C176.295 500.705 161.483 494.402 148.562 484.632C141.786 479.432 135.798 473.759 130.283 467.299C123.192 467.141 116.259 466.511 109.325 465.25C113.107 475.177 115.155 485.262 113.895 495.82C130.125 503.226 148.246 507.323 167.313 507.323C176.61 507.323 185.434 506.22 194.101 504.486C193.996 504.591 193.891 504.644 193.786 504.644Z" fill="#961A31"/>
<path d="M343.325 188.39C340.331 198.317 330.404 197.214 327.725 191.699C323.155 183.19 324.889 176.572 329.616 172.002C334.343 167.432 342.065 165.069 349.471 161.76H349.628C340.962 160.342 331.822 158.923 321.895 157.82L321.422 158.293C320.477 159.396 319.689 160.184 318.743 161.287C303.143 184.608 301.252 201.942 299.677 215.178L299.204 219.275C298.259 226.366 298.259 235.032 298.416 245.275V249.529C298.259 252.996 298.101 256.62 297.943 260.087H298.101C298.258 258.669 298.259 258.196 298.259 258.984C302.671 245.117 310.707 236.451 322.21 231.881C334.501 226.838 346.634 222.426 347.265 204.463C347.58 197.057 348.052 189.493 349.786 185.711C352.937 178.778 358.452 176.887 358.452 176.887C352.78 176.414 346.319 178.935 343.325 188.39Z" fill="#961A31"/>
<path d="M358.295 117.639C359.24 105.663 370.428 103.457 381.459 93.0574C395.483 79.6635 377.204 57.4453 377.204 57.4453C379.568 72.415 372.477 78.0877 359.871 87.0696C355.931 89.9059 352.937 93.8453 352.622 98.7301C352.149 104.245 351.677 110.233 350.574 116.379C353.095 116.851 355.616 117.324 358.295 117.639Z" fill="#F9A11E"/>
<path d="M319.531 96.8389C316.222 99.3601 312.913 102.039 310.077 104.56C308.028 106.609 305.98 108.499 304.089 110.548C316.38 111.651 328.356 113.069 340.016 114.645C347.265 101.093 351.046 85.9662 346.634 59.8086C346.477 59.9662 345.374 77.6147 319.531 96.8389Z" fill="#F9A11E"/>
<path d="M250.513 108.027C264.537 108.185 278.561 108.815 291.955 109.603C292.428 109.13 292.901 108.657 293.216 108.342C302.355 98.7301 316.38 90.3786 323.786 79.5058C331.192 68.4755 328.355 55.2392 325.519 39.0089C320.634 11.118 332.61 5.91797 332.61 5.91797C332.61 5.91797 308.974 9.06948 309.446 22.7786C310.077 41.0574 328.986 58.2331 300.622 63.4331C269.422 69.1058 250.04 85.9664 245.786 108.027C247.361 108.027 248.78 108.027 250.513 108.027Z" fill="#F9A11E"/>
<path d="M250.356 115.433C119.883 114.172 10.998 147.736 7.21616 190.754C5.79798 207.93 21.0828 223.687 48.3434 236.924C65.204 244.96 86.7919 252.051 111.531 257.409C116.574 255.202 121.616 253.154 127.131 251.578C131.386 250.318 139.422 247.639 148.246 243.857C111.689 238.657 82.2222 230.306 63.7859 220.378C50.2343 213.13 43.1434 204.936 43.9313 196.427C46.4525 167.748 137.846 145.215 247.992 146.318C358.137 147.421 445.434 171.687 442.913 200.366C442.125 208.087 435.034 215.651 422.428 222.112C399.422 234.245 358.768 243.542 309.289 247.954C307.556 250.318 306.137 252.996 304.877 255.833C327.252 247.324 353.252 259.93 353.252 259.93C353.252 259.93 354.986 260.718 356.246 261.348C389.022 255.518 417.228 247.166 438.343 237.239C463.24 225.421 478.525 211.081 479.786 195.481C483.725 152.463 380.828 116.693 250.356 115.433Z" fill="white"/>
</g>
<defs>
<clipPath id="clip0_876_1670">
<rect width="487.573" height="512" fill="white" transform="translate(-0.000488281 0.0507812)"/>
</clipPath>
</defs>
</svg>
