<svg width="793" height="513" viewBox="0 0 793 513" fill="none" xmlns="http://www.w3.org/2000/svg">
<g clip-path="url(#clip0_2_15113)">
<path d="M527.749 460.715C520.178 460.715 514.03 466.853 514.03 474.43C514.03 481.998 520.178 488.145 527.749 488.145C535.321 488.145 541.459 481.999 541.459 474.431C541.459 466.853 535.321 460.715 527.749 460.715ZM527.749 485.203C524.892 485.204 522.151 484.07 520.129 482.051C519.129 481.05 518.336 479.862 517.795 478.554C517.254 477.246 516.976 475.845 516.977 474.43C516.977 468.478 521.791 463.665 527.749 463.665C533.701 463.665 538.519 468.478 538.519 474.43C538.519 480.384 533.701 485.203 527.749 485.203ZM533.385 471.251C533.385 470.64 533.264 470.036 533.03 469.472C532.796 468.908 532.453 468.395 532.021 467.964C531.148 467.093 529.964 466.604 528.731 466.605H522.123V482.26H525.06V475.902H527.169L530.136 482.26H533.385L530.286 475.631C531.191 475.309 531.975 474.716 532.529 473.932C533.084 473.148 533.383 472.211 533.385 471.251ZM528.731 472.963H525.06V469.537H528.731C529.675 469.537 530.447 470.304 530.447 471.251C530.446 471.705 530.265 472.141 529.943 472.462C529.621 472.783 529.185 472.963 528.731 472.963Z" fill="#0E4431"/>
<path d="M792.962 118.343C792.962 118.343 764.721 108.941 740.282 104.243C740.582 104.188 767.579 82.6129 767.579 82.6129C767.579 82.6129 658.682 53.8476 529.083 62.4547C529.083 62.4547 510.207 0.800781 423.063 0.800781C358.217 0.800781 321.205 41.4518 309.697 73.1144C187.433 100.482 94.3706 163.039 94.3706 163.039L116.832 179.969C59.3014 210.625 0.141602 259.314 0.141602 259.314C0.141602 259.314 5.94366 288.498 41.2735 334.976C41.2735 334.976 64.9297 353.072 127.235 376.609C127.235 376.609 139.152 373.604 145.069 370.592C153.617 373.449 162.437 375.858 171.127 377.451C170.774 385.295 168.506 396.528 182.994 409.862L172.465 415.445C172.465 415.445 185.476 447.673 257.171 464.606C284.547 458.005 409.077 434.462 452.051 512.801L668.69 299.751H622.557L792.962 118.343Z" fill="#DDC9A3"/>
<path d="M751.575 127.416C725.211 117.416 689.963 110.07 689.963 110.07L711.88 93.1446C593.48 69.4234 512.377 76.9096 512.377 76.9096C512.377 76.9096 496.145 15.3672 417.276 15.3672C341.027 15.3672 318.19 83.4751 318.19 83.4751C213.812 104.047 115.577 164.057 115.577 164.057L139.506 182.098C77.9548 212.384 14.1733 263.961 14.1733 263.961C23.1937 292.171 49.5946 326.229 49.5946 326.229C74.1084 343.287 127.9 364.215 127.9 364.215C135.645 362.442 144.016 357.744 144.016 357.744C144.016 357.744 170.742 368.368 199.261 368.368C209.684 368.368 221.343 367.116 221.343 363.043C221.343 356.008 199.972 353.863 199.972 345.989C199.972 340.251 212.817 332.199 261.651 332.199C290.894 332.199 323.996 334.242 323.996 334.242C299.925 334.242 252.657 340.36 252.657 351.577C252.657 360.268 284.776 360.721 284.776 372.43C284.776 389.375 259.624 395.174 230.327 395.174C204.092 395.174 191.648 387.697 185.682 387.697C183.397 387.697 182.001 388.834 182.001 390.308C182.001 396.401 193.692 408.649 203.05 412.086L190.396 419.437C204.592 438.229 257.436 452.329 257.436 452.329C408.205 419.431 454.602 494.633 454.602 494.633L631.255 311.703H589.691L751.575 127.416Z" fill="#0E4431"/>
<path d="M487.84 97.6388C439.261 96.0534 390.479 98.9389 343.843 106.072C343.485 109.019 343.268 112.015 343.268 115.057C343.268 118.434 343.524 121.749 343.955 125.006C389.349 120.16 439.388 118.52 489.4 123.818C489.74 120.938 489.943 118.021 489.943 115.057C489.943 109.051 489.198 103.231 487.84 97.6388ZM416.612 188.394C443.606 188.394 467.185 173.782 479.919 152.052C440.115 157.15 401.994 163.783 368.557 170.443C381.442 181.616 398.218 188.394 416.612 188.394V188.394ZM416.612 41.7266C379.151 41.7266 348.275 69.8116 343.843 106.072C343.843 106.072 380.623 89.508 480.681 79.4299C468.162 56.9412 444.168 41.7266 416.611 41.7266H416.612Z" fill="#EAAA00"/>
<path d="M487.837 97.6406C489.23 103.342 489.936 109.19 489.94 115.059C489.94 118.024 489.737 120.94 489.397 123.818C521.215 127.182 553.037 133.349 583.662 143.293C549.109 144.469 513.896 147.702 479.916 152.053C467.183 173.784 443.603 188.395 416.608 188.395C398.216 188.395 381.439 181.619 368.554 170.445C297.719 184.567 247.955 198.821 247.955 198.821C283.025 200.382 302.841 208.512 302.841 208.512C212.205 226.837 127.938 261.77 100.573 273.722C107.11 284.118 115.628 296.273 115.628 296.273L102.092 313.018C126.287 317.42 156.27 314.858 156.27 314.858L201.216 287.333L236.485 297.913L247.117 283.379H235.532L258.758 245.93L278.285 283.363H269.539L275.454 296.273L299.822 291.943L310.199 278.725H300.922L314.77 257.436H304.342L326.267 220.325L344.996 258.648L336.699 258.645L349.261 281.005H339.355L359.647 317.974L379.92 289.5H366.002L386.965 257.974H373.509L403.731 206.09L429.944 258.632H419.035L436.901 289.486H424.283L441.594 327.776L470.937 279.828H454.745L478.719 240.825H464.008L496.093 175.623L529.79 243.911H517.959L539.653 279.818H524.819L541.433 315.391L568.541 274.108H553.965L585.439 228.738H568.541L618.964 159.149L645.527 207.018L702.062 137.455C636.923 113.086 562.642 100.083 487.837 97.6406ZM343.265 115.059C343.265 112.016 343.482 109.021 343.84 106.074C275.678 116.497 212.091 136.006 160.505 163.936C160.505 163.936 240.124 136.094 343.952 125.008C343.52 121.752 343.265 118.436 343.265 115.059Z" fill="#AC1A2E"/>
<path d="M425.041 141.539C329.329 144.631 243.263 168.506 243.243 168.506C242.585 164.235 241.936 160.105 241.268 155.813C238.303 160.829 235.484 165.635 232.52 170.611C232.511 170.611 189.222 186.478 160.67 201.477C197.307 188.846 227.024 181.065 227.024 181.065C224.1 187.359 221.14 193.637 218.144 199.897C223.639 194.991 228.88 190.294 234.376 185.375C238.312 187.474 242.079 189.533 246.057 191.651C245.5 186.97 244.979 182.419 244.414 177.674C244.429 177.665 340.99 150.815 425.041 141.539Z" fill="white"/>
</g>
<defs>
<clipPath id="clip0_2_15113">
<rect width="792.82" height="512" fill="white" transform="translate(0.141602 0.800781)"/>
</clipPath>
</defs>
</svg>
