<svg width="509" height="513" viewBox="0 0 509 513" fill="none" xmlns="http://www.w3.org/2000/svg">
<g clip-path="url(#clip0_2_15169)">
<path d="M254.14 512.803C394.392 512.803 508.089 398.188 508.089 256.803C508.089 115.418 394.393 0.802734 254.14 0.802734C113.886 0.802734 0.190186 115.418 0.190186 256.803C0.190186 398.188 113.886 512.803 254.14 512.803Z" fill="#6CACE4"/>
<path d="M254.14 40.2237C373.766 40.2237 470.721 137.177 470.721 256.804C470.721 376.43 373.767 473.384 254.14 473.384C134.514 473.384 37.5027 376.43 37.5027 256.804C37.5027 137.177 134.513 40.2237 254.14 40.2237ZM254.14 22.9629C222.581 22.9629 191.935 29.1725 163.11 41.3629C135.255 53.1549 110.247 70.0157 88.7707 91.4917C67.2955 112.968 50.4347 137.975 38.6427 165.831C26.4523 194.655 20.2427 225.302 20.2427 256.861C20.2427 288.419 26.4523 319.066 38.6427 347.891C50.4347 375.746 67.2963 400.754 88.7707 422.229C110.247 443.705 135.255 460.567 163.11 472.359C191.935 484.549 222.582 490.758 254.14 490.758C285.699 490.758 316.346 484.549 345.17 472.359C373.026 460.567 398.034 443.705 419.509 422.229C440.984 400.753 457.846 375.746 469.638 347.891C481.828 319.066 488.038 288.419 488.038 256.861C488.038 225.302 481.828 194.655 469.638 165.831C457.846 137.975 440.984 112.968 419.51 91.4917C398.033 70.0157 373.026 53.1541 345.17 41.3629C316.346 29.1725 285.699 22.9629 254.14 22.9629Z" fill="#010101"/>
<path d="M146.248 150.793L119.76 119.633L124.773 115.361L135.995 128.577L146.591 119.577L135.368 106.361L140.381 102.088L166.87 133.248L161.857 137.521L150.635 124.361L140.039 133.362L151.262 146.521L146.248 150.793Z" fill="white"/>
<path d="M146.193 151.473L119.078 119.573L124.831 114.674L136.053 127.89L145.908 119.517L134.686 106.301L140.438 101.401L167.554 133.301L161.802 138.201L150.579 125.042L140.723 133.416L151.946 146.574L146.193 151.473ZM120.501 119.687L146.363 150.106L150.635 146.461L139.414 133.301L150.75 123.675L161.971 136.833L166.244 133.188L140.382 102.769L136.11 106.414L147.332 119.63L135.996 129.257L124.774 116.041L120.501 119.687ZM186.295 121.909L180.826 119.744L168.01 89.7807L170.174 84.3119L187.492 76.9062L192.96 79.0711L205.778 109.035L203.556 114.503L186.238 121.909H186.295ZM187.435 114.731L197.689 110.345L198.43 108.579L188.29 84.8247L186.467 84.1415L176.213 88.5271L175.472 90.2935L185.612 114.048L187.434 114.731H187.435Z" fill="white"/>
<path d="M186.353 122.42L180.542 120.084L167.613 89.7794L169.948 83.969L187.607 76.449L193.474 78.7282L206.406 109.033L204.013 114.843L186.354 122.363V122.42H186.353ZM181.226 119.401L186.296 121.451L203.214 114.217L205.322 109.147L192.676 79.5258L187.55 77.5314L170.631 84.7666L168.58 89.8362L181.226 119.458V119.401ZM187.436 115.243L185.271 114.445L174.961 90.349L175.872 88.1842L186.468 83.6266L188.633 84.4242L198.943 108.521L198.031 110.685L187.435 115.243H187.436ZM185.955 113.647L187.379 114.217L197.291 110.002L197.917 108.578L187.949 85.2218L186.525 84.6522L176.613 88.8674L175.986 90.2922L185.954 113.647H185.955ZM229.078 107.951L224.52 104.248L221.159 71.8354L224.862 67.2786L243.546 65.3418L248.161 69.0442L249.186 78.785L242.634 79.469L241.951 73.089L240.413 71.8922L229.305 73.0314L228.051 74.513L230.672 100.204L232.21 101.4L243.318 100.261L244.572 98.7794L243.889 92.3994L250.439 91.7162L251.465 101.457L247.705 106.015L229.021 107.951H229.077H229.078Z" fill="white"/>
<path d="M228.963 108.465L224.12 104.534L220.76 71.7227L224.69 66.8803H224.861L243.773 64.8867L248.672 68.8171L249.755 79.2411L242.235 80.0395L241.551 73.3747L240.355 72.4067L229.646 73.4883L228.62 74.6843L231.241 99.9771L232.437 100.945L243.147 99.8627L244.172 98.6667L243.488 92.0019L251.008 91.2043L252.09 101.629L248.103 106.471H247.931L229.019 108.465H228.963H228.963ZM224.975 104.021L229.191 107.496L247.476 105.616L251.008 101.344L250.096 92.2867L244.514 92.8563L245.14 98.9515L243.602 100.718L232.152 101.914L230.329 100.49L227.652 74.3995L229.19 72.6339L240.641 71.4379L242.463 72.8619L243.091 78.9571L248.673 78.3875L247.761 69.3299L243.489 65.9123L225.203 67.7923L221.728 72.0075L225.032 104.021H224.975ZM270.319 106.471L278.181 66.3675L284.675 67.6211L281.314 84.6531L287.978 85.9635L298.916 70.4115L305.979 71.7795L293.048 90.0651L298.119 111.883L291.055 110.516L286.783 92.0019L280.118 90.6915L276.756 107.724L270.263 106.471H270.319H270.319Z" fill="white"/>
<path d="M298.745 112.511L290.657 110.916L286.384 92.4022L280.517 91.263L277.156 108.296L269.75 106.814L277.782 65.7422L285.188 67.2238L281.827 84.2566L287.694 85.3958L298.63 69.8438L306.72 71.439L293.504 90.1806L298.688 112.511H298.745ZM291.453 110.118L297.491 111.315L292.535 90.0102L305.181 72.1222L299.143 70.927L288.207 86.4782L280.801 84.9966L284.161 67.9646L278.636 66.8822L270.945 106.074L276.471 107.157L279.832 90.1238L287.237 91.6046L291.51 110.118H291.453ZM313.784 117.98L332.867 81.807L354.913 93.4278L352.008 98.8966L335.773 90.3518L330.532 100.264L344.887 107.84L342.039 113.195L327.684 105.618L322.443 115.53L338.735 124.132L335.829 129.601L313.669 117.923L313.784 117.98Z" fill="white"/>
<path d="M336.169 130.285L313.155 118.151L332.694 81.1816L355.594 93.2576L352.233 99.5808L335.998 91.036L331.213 100.094L345.568 107.67L342.264 113.879L327.909 106.303L323.124 115.36L339.416 123.962L336.055 130.285H336.169ZM314.409 117.753L335.713 128.975L338.162 124.361L321.87 115.759L327.566 104.993L341.922 112.569L344.314 108.069L329.959 100.493L335.655 89.7264L351.89 98.2712L354.34 93.6568L333.149 82.4912L314.522 117.81L314.409 117.753ZM356.962 146.691L367.898 135.526V130.684L377.298 109.379L382.367 114.335L374.108 133.19L375.019 134.102L393.646 125.386L398.717 130.342L377.697 140.14L372.854 140.311L361.917 151.476L357.018 146.634L356.962 146.691Z" fill="white"/>
<path d="M361.86 152.217L356.278 146.748L367.442 135.356L367.557 130.513L377.127 108.582L382.938 114.221L374.678 133.077L375.134 133.532L393.762 124.817L399.514 130.456L377.698 140.596L373.083 140.767L361.918 152.16L361.86 152.217ZM357.645 146.692L361.861 150.85L372.627 139.856L377.526 139.684L397.862 130.228L393.534 126.013L374.906 134.729L373.538 133.362L381.798 114.506L377.47 110.291L368.469 130.855V135.811L357.645 146.805V146.692ZM166.244 428.611L164.193 423.142L177.637 393.463L183.106 391.412L200.252 399.16L202.359 404.685L198.315 413.628L192.277 410.894L194.897 405.027L194.156 403.204L184.016 398.59L182.193 399.216L171.541 422.743L172.282 424.567L182.421 429.18L184.245 428.553L186.864 422.686L192.902 425.42L188.858 434.364L183.332 436.415L166.186 428.668L166.243 428.611H166.244Z" fill="white"/>
<path d="M183.391 436.865L165.902 428.948L163.68 423.08L177.238 393.003L183.106 390.781L200.594 398.699L202.872 404.566L198.543 414.136L191.651 411.004L194.384 404.908L193.815 403.484L184.017 399.04L182.536 399.553L172.055 422.681L172.624 424.105L182.422 428.548L183.903 428.036L186.637 421.94L193.53 425.074L189.2 434.644L183.275 436.808L183.391 436.865ZM166.643 428.264L183.391 435.84L188.574 433.904L192.334 425.586L187.206 423.251L184.699 428.833L182.478 429.631L171.939 424.903L171.085 422.738L181.909 398.87L184.131 398.072L194.669 402.8L195.524 404.965L193.017 410.548L198.144 412.883L201.904 404.566L199.91 399.44L183.163 391.863L178.035 393.8L164.763 423.137L166.699 428.264H166.643ZM214.55 445.809L220.36 405.364L226.911 406.332L221.955 440.625L240.241 443.245L239.329 449.455L214.549 445.866V445.809H214.55Z" fill="white"/>
<path d="M239.786 449.914L214.038 446.21L220.019 404.797L227.481 405.879L222.525 440.172L240.811 442.793L239.785 449.914H239.786ZM215.119 445.413L238.987 448.831L239.727 443.59L221.443 440.97L226.399 406.677L220.816 405.879L215.119 445.413H215.119ZM270.888 449.002L266.216 445.47L261.318 409.07L267.869 408.158L272.312 441.198L273.851 442.337L284.959 440.856L286.098 439.318L281.598 406.278L288.149 405.366L293.047 441.767L289.516 446.438L270.888 448.945V449.002Z" fill="white"/>
<path d="M270.774 449.517L265.818 445.701L260.805 408.617L268.268 407.591L272.767 440.916L273.963 441.827L284.673 440.403L285.585 439.207L281.085 405.882L288.547 404.857L293.56 441.941L289.743 446.897L270.717 449.461L270.773 449.517H270.774ZM266.672 445.188L271.002 448.492L289.231 446.042L292.533 441.713L287.692 405.997L282.109 406.737L286.552 439.492L285.185 441.314L273.678 442.853L271.856 441.485L267.413 408.73L261.829 409.471L266.672 445.188ZM321.472 437.897L304.553 400.699L325.345 391.242L330.815 393.293L335.941 404.573L334.119 409.414V409.529L339.188 411.351L344.429 422.915L342.379 428.384L321.473 437.897H321.472ZM317.77 413.744L329.106 408.617L329.789 406.851L326.257 399.047L324.492 398.363L313.156 403.49L317.827 413.744H317.77ZM325.005 429.637L336.454 424.453L337.081 422.63L333.435 414.655L331.613 413.914L320.162 419.098L324.948 429.637H325.005Z" fill="white"/>
<path d="M321.245 438.518L303.928 400.409L325.346 390.668L331.213 392.89L336.512 404.51L334.745 409.182L339.53 410.948L344.942 422.854L342.721 428.721L321.188 438.518H321.245ZM305.237 400.922L321.757 437.266L342.037 428.037L343.974 422.91L338.904 411.745L333.892 409.922L333.664 409.466L335.487 404.567L330.531 393.63L325.403 391.694L305.238 400.865V400.922H305.237ZM324.721 430.258L319.537 418.866L331.613 413.397L333.777 414.252L337.537 422.569L336.739 424.79L324.663 430.258H324.721ZM320.847 419.322L325.233 429.006L336.057 424.106L336.569 422.626L333.093 414.992L331.669 414.422L320.847 419.322ZM317.543 414.366L312.473 403.258L324.436 397.846L326.601 398.643L330.303 406.846L329.505 409.011L317.543 414.422V414.366ZM313.725 403.713L317.998 413.112L328.707 408.27L329.22 406.846L325.86 399.384L324.436 398.871L313.725 403.713Z" fill="white"/>
<path d="M254.253 210.147V186.392H174.445V210.546C183.503 210.431 192.617 210.375 201.675 210.318C201.675 251.788 201.675 293.315 201.619 334.786C209.992 334.444 218.422 334.216 226.797 334.045V210.203H254.253V210.147ZM307.972 186.107H274.818C265.589 235.325 256.418 284.429 247.133 333.703C256.019 333.703 264.906 333.703 273.849 333.818C275.217 325.159 276.527 316.5 277.894 307.784C287.008 307.899 296.065 308.127 305.18 308.411C306.604 317.183 307.972 325.956 309.396 334.786C318.225 335.127 327.112 335.583 335.941 336.096C326.656 285.511 317.313 235.61 308.029 186.107H307.972ZM281.369 284.258C284.673 262.498 288.033 240.68 291.337 218.863C294.756 240.737 298.174 262.611 301.535 284.6C294.813 284.429 288.091 284.315 281.369 284.258ZM137.647 310.063C137.647 311.203 137.249 312.228 136.508 313.139C135.71 314.051 134.799 314.563 133.66 314.62C127.793 315.076 121.924 315.531 116.057 316.044C114.918 316.159 114.007 315.816 113.209 315.076C112.469 314.335 112.07 313.424 112.07 312.227C112.07 270.245 112.07 228.262 112.126 186.279H87.0054V314.563C87.0054 318.835 87.7462 322.767 89.2838 326.355C90.8222 329.944 92.8726 332.963 95.4934 335.47C98.1134 337.976 101.247 339.799 104.836 340.995C108.424 342.191 112.241 342.59 116.228 342.135C122.033 341.508 127.844 340.938 133.66 340.425C137.647 340.083 141.464 338.944 144.996 337.122C148.528 335.299 151.604 332.906 154.224 330.058C156.845 327.21 158.952 323.906 160.49 320.146C162.028 316.387 162.769 312.455 162.769 308.411C162.769 267.681 162.825 227.008 162.882 186.279H137.761C137.761 227.521 137.704 268.763 137.647 310.006V310.063ZM397.748 242.56C388.545 244.998 379.336 247.409 370.12 249.795V186.335H344.998C344.998 236.407 345.055 286.537 345.113 336.609C353.486 337.179 361.86 337.805 370.234 338.546V274.347C379.462 272.067 388.634 269.789 397.861 267.511V341.166C406.236 342.078 414.609 343.046 422.926 344.071V186.335H397.805V242.503L397.748 242.56Z" fill="#010101"/>
</g>
<defs>
<clipPath id="clip0_2_15169">
<rect width="507.898" height="512" fill="white" transform="translate(0.19043 0.800781)"/>
</clipPath>
</defs>
</svg>
