<svg width="556" height="513" viewBox="0 0 556 513" fill="none" xmlns="http://www.w3.org/2000/svg">
<g clip-path="url(#clip0_838_1048)">
<path d="M552.14 508.447C549.564 511.019 546.732 512.307 543.128 512.307C539.524 512.307 536.696 511.019 534.12 508.447C531.548 505.871 530.516 503.035 530.516 499.431C530.516 495.827 531.804 492.991 534.12 490.419C536.696 487.843 539.524 486.811 543.128 486.811C546.732 486.811 549.564 488.099 552.14 490.419C554.712 492.991 556 495.827 556 499.431C556 502.779 554.712 505.871 552.14 508.447ZM535.408 491.703C533.348 493.767 532.32 496.339 532.32 499.431C532.32 502.523 533.348 505.099 535.408 507.159C537.468 509.219 540.04 510.507 543.128 510.507C546.22 510.507 548.792 509.475 550.852 507.159C552.912 505.099 553.94 502.523 553.94 499.431C553.94 496.339 552.912 493.767 550.852 491.703C548.792 489.643 546.22 488.615 543.128 488.615C540.3 488.355 537.724 489.387 535.408 491.703ZM543.128 492.219C544.932 492.219 546.22 492.479 546.992 492.735C548.536 493.251 549.048 494.539 549.048 496.339C549.048 497.627 548.536 498.403 547.764 499.175C547.248 499.431 546.476 499.687 545.704 499.947C546.732 500.203 547.504 500.463 548.02 501.235C548.536 502.007 548.792 502.779 548.792 503.295V506.387H546.476V504.583C546.476 503.035 545.96 502.007 545.188 501.491C544.676 501.235 543.644 500.975 542.356 500.975H540.556V506.387H537.98V492.479H543.128V492.219ZM545.704 494.539C545.188 494.279 544.16 494.023 542.616 494.023H540.556V498.915H542.872C543.9 498.915 544.676 498.915 545.188 498.659C546.22 498.403 546.732 497.627 546.732 496.599C546.732 495.567 546.22 495.055 545.704 494.539Z" fill="black"/>
<path d="M459.216 0.0507812H98.5872C44.274 0.0507812 0 43.0608 0 95.6V416.243C0 469.555 42.7296 511.535 97.5576 511.535H458.444C513.272 511.535 556 469.555 556 416.243V95.6C556 42.0308 513.528 0.0507812 459.216 0.0507812ZM544.932 416.243C544.932 463.631 506.836 500.463 458.184 500.463H97.5576C48.9076 500.719 11.0685 463.631 11.0685 416.243V95.6C11.0685 48.2116 49.4224 10.8677 98.5872 10.8677H459.472C507.608 10.8677 545.188 47.9544 545.188 95.6V416.243H544.932Z" fill="#040301"/>
<path d="M544.932 416.242C544.932 463.63 506.836 500.462 458.184 500.462H97.5572C48.9072 500.718 11.0685 463.63 11.0685 416.242V95.5995C11.0685 48.2111 49.422 10.8672 98.5872 10.8672H459.472C507.608 10.8672 545.188 47.9539 545.188 95.5995V416.242H544.932Z" fill="#FFAB00"/>
<path d="M445.316 314.513H399.239L391.259 264.292L361.657 313.998H315.067L343.382 343.873L320.215 394.095L371.182 363.704L411.08 394.61L403.616 343.873" fill="white"/>
<path d="M477.492 304.469H407.732L396.665 234.932L355.994 303.954H348.272C343.639 295.97 341.837 284.381 341.837 277.17C341.837 265.322 342.609 253.733 342.609 238.538C342.609 218.449 336.689 207.89 320.987 204.027V203.512C354.193 198.876 369.38 176.727 369.38 145.822C369.38 101.781 340.035 92.252 301.682 92.252H198.461L154.702 299.318H209.53L225.489 223.858H262.041C281.604 223.858 289.583 233.387 289.583 251.672C289.583 265.58 288.039 276.654 288.039 287.214C288.039 291.077 288.811 300.348 291.643 303.954L331.283 345.934L297.048 419.335L370.152 375.809L424.724 417.791L414.684 348.51L477.492 304.469ZM278.515 185.226H234.756L245.309 135.262H285.98C300.394 135.262 315.582 139.125 315.582 156.638C315.582 179.045 298.335 185.226 278.515 185.226ZM371.182 363.705L320.215 394.095L343.639 344.131L315.324 314.256H361.915L391.259 264.55L399.239 314.771H445.572L403.872 343.874L411.336 394.868L371.182 363.705Z" fill="#040301"/>
</g>
<defs>
<clipPath id="clip0_838_1048">
<rect width="556" height="512" fill="white" transform="translate(0 0.0507812)"/>
</clipPath>
</defs>
</svg>
