<svg width="1025" height="288" viewBox="0 0 1025 288" fill="none" xmlns="http://www.w3.org/2000/svg">
<g clip-path="url(#clip0_756_290)">
<path d="M172.13 0.89883L0.103027 80.564L42.9662 243.691L75.5882 239.685L66.6184 137.117L77.3299 132.345L95.8267 237.195L151.578 230.35L141.668 117.14L152.275 112.42L172.618 227.772L229.014 220.84L218.163 96.7444L228.892 91.9721L251.134 218.123L306.885 211.278V34.6529L172.13 0.89883ZM176.171 248.307L179.01 264.365L306.885 285.684V232.248L176.241 248.307H176.171ZM427.829 214.831V236.829H454.947C454.95 241.29 453.798 245.677 451.603 249.561C449.308 253.431 445.913 256.529 441.85 258.461C436.991 260.681 431.687 261.753 426.348 261.596C420.183 261.767 414.111 260.067 408.931 256.719C403.872 253.207 399.969 248.273 397.715 242.542C394.905 235.375 393.561 227.717 393.761 220.022C393.556 212.386 394.931 204.789 397.802 197.711C400.149 192.069 404.081 187.229 409.123 183.777C414.206 180.477 420.168 178.789 426.227 178.935C429.381 178.907 432.524 179.324 435.562 180.172C438.265 180.946 440.816 182.177 443.104 183.812C445.276 185.377 447.152 187.318 448.642 189.542C450.201 191.922 451.376 194.531 452.126 197.275H482.205C481.417 190.963 479.368 184.874 476.178 179.37C473.005 173.941 468.84 169.155 463.899 165.263C458.723 161.216 452.882 158.098 446.639 156.049C439.858 153.842 432.765 152.748 425.634 152.81C417.291 152.74 409.013 154.278 401.251 157.338C393.793 160.308 387.049 164.825 381.465 170.592C375.622 176.687 371.108 183.928 368.211 191.858C364.901 201.035 363.29 210.738 363.456 220.492C363.456 234.356 366.092 246.31 371.363 256.353C376.348 266.028 384.023 274.054 393.465 279.466C403.032 284.57 413.662 287.361 424.503 287.615C435.343 287.869 446.092 285.579 455.888 280.929C464.363 276.629 471.42 269.977 476.213 261.77C481.148 253.422 483.61 243.436 483.598 231.813V214.814L427.829 214.831ZM802.346 285.91V154.516H892.339V178.831H832.042V208.021H880.792V232.335H832.042V261.596H892.479V285.91H802.346ZM979.703 193.078C979.571 190.819 978.951 188.616 977.887 186.62C976.822 184.624 975.339 182.881 973.537 181.513C969.897 178.743 964.829 177.368 958.402 177.368C954.69 177.244 950.988 177.835 947.499 179.109C944.867 180.069 942.556 181.746 940.828 183.951C939.331 185.966 938.519 188.408 938.512 190.918C938.43 192.919 938.907 194.903 939.888 196.648C940.921 198.383 942.354 199.847 944.068 200.915C946.078 202.218 948.243 203.266 950.512 204.033C953.158 204.955 955.856 205.717 958.594 206.314L970.141 208.997C975.801 210.2 981.318 211.999 986.6 214.361C991.182 216.404 995.413 219.154 999.14 222.512C1002.55 225.62 1005.27 229.412 1007.12 233.642C1009.05 238.206 1010.01 243.124 1009.92 248.08C1010.12 255.582 1007.96 262.957 1003.76 269.172C999.311 275.345 993.169 280.094 986.077 282.845C977.236 286.259 967.807 287.892 958.332 287.652C948.716 287.857 939.152 286.195 930.169 282.758C922.604 279.819 916.099 274.673 911.498 267.988C907.051 261.416 904.729 253.218 904.531 243.395H933.147C933.184 247.189 934.38 250.88 936.575 253.975C938.77 257.069 941.858 259.418 945.426 260.708C949.451 262.237 953.731 262.982 958.036 262.902C961.987 262.988 965.919 262.345 969.636 261.004C972.571 259.967 975.176 258.163 977.177 255.779C978.942 253.56 979.906 250.811 979.912 247.976C979.939 245.434 979.062 242.965 977.439 241.009C975.449 238.839 972.98 237.163 970.228 236.115C966.342 234.531 962.327 233.284 958.228 232.388L944.172 228.991C932.967 226.321 924.125 222.106 917.646 216.347C911.167 210.587 907.951 202.785 907.997 192.938C907.793 185.383 910.068 177.969 914.476 171.829C919.091 165.586 925.308 160.705 932.468 157.704C940.725 154.202 949.626 152.475 958.594 152.635C967.519 152.435 976.383 154.164 984.58 157.704C991.54 160.732 997.517 165.642 1001.84 171.881C1005.99 178.132 1008.18 185.485 1008.11 192.991L979.703 193.078ZM781.167 285.91H751.784V186.024L748.771 185.989L719.093 285.91H689.728L660.85 185.989L657.106 186.024V285.91H627.723V154.516H677.658L702.878 242.577H705.926L731.145 154.516H781.167V285.91ZM581.464 285.91H613.285L569.168 154.534H528.847L484.66 285.91H516.534L525.12 257.102H572.877L581.464 285.91ZM531.947 234.182L546.264 186.024H551.664L566.05 234.182H531.947ZM1017.15 168.415C1015.78 168.411 1014.45 168.006 1013.32 167.25C1012.18 166.495 1011.29 165.422 1010.76 164.165C1010.4 163.311 1010.21 162.393 1010.21 161.466C1010.21 160.539 1010.4 159.621 1010.76 158.766C1011.1 157.941 1011.61 157.19 1012.24 156.554C1012.88 155.925 1013.63 155.417 1014.45 155.056C1016.18 154.359 1018.12 154.359 1019.85 155.056C1020.67 155.413 1021.42 155.921 1022.06 156.554C1022.7 157.19 1023.2 157.941 1023.56 158.766C1023.92 159.621 1024.1 160.539 1024.1 161.466C1024.1 162.393 1023.92 163.311 1023.56 164.165C1023.2 164.991 1022.7 165.741 1022.06 166.377C1021.43 167.015 1020.68 167.523 1019.85 167.875C1018.99 168.233 1018.08 168.417 1017.15 168.415ZM1017.15 166.517C1018.05 166.527 1018.93 166.292 1019.71 165.837C1020.46 165.419 1021.08 164.82 1021.54 164.096C1021.98 163.322 1022.22 162.445 1022.22 161.553C1022.22 160.661 1021.98 159.784 1021.54 159.01C1021.08 158.287 1020.44 157.688 1019.69 157.268C1018.92 156.824 1018.04 156.59 1017.15 156.59C1016.26 156.59 1015.38 156.824 1014.61 157.268C1013.9 157.702 1013.3 158.299 1012.86 159.01C1012.41 159.78 1012.17 160.658 1012.17 161.553C1012.17 162.448 1012.41 163.326 1012.86 164.096C1013.3 164.807 1013.9 165.404 1014.61 165.837C1015.38 166.29 1016.26 166.525 1017.15 166.517ZM1014.61 164.514V158.122H1017.71C1018.12 158.113 1018.53 158.203 1018.91 158.383C1019.25 158.544 1019.53 158.798 1019.73 159.115C1019.93 159.463 1020.03 159.861 1020.02 160.264C1020.04 160.67 1019.93 161.071 1019.71 161.414C1019.52 161.736 1019.22 161.986 1018.87 162.128C1018.49 162.302 1018.07 162.386 1017.65 162.372H1015.56V161.117H1017.31C1017.53 161.129 1017.76 161.055 1017.93 160.908C1018.02 160.823 1018.08 160.722 1018.12 160.611C1018.16 160.501 1018.18 160.382 1018.18 160.264C1018.19 160.145 1018.17 160.026 1018.13 159.915C1018.08 159.804 1018.02 159.703 1017.93 159.62C1017.76 159.473 1017.53 159.399 1017.31 159.411H1016.35V164.514H1014.61ZM1018.77 161.588L1020.2 164.514H1018.26L1016.96 161.588H1018.77ZM491.976 2.11802H521.671V133.512H491.976V2.11802ZM662.697 67.8148C662.697 82.2361 659.962 94.4279 654.493 104.39C649.413 114.009 641.682 121.969 632.217 127.329C622.486 132.52 611.626 135.236 600.596 135.236C589.567 135.236 578.707 132.52 568.976 127.329C559.508 121.949 551.778 113.971 546.7 104.338C541.231 94.2828 538.496 82.0909 538.496 67.7626C538.496 53.4342 541.231 41.2133 546.7 31.0998C551.769 21.5106 559.474 13.5701 568.906 8.21396C578.641 3.03417 589.5 0.325195 600.527 0.325195C611.554 0.325195 622.412 3.03417 632.147 8.21396C641.613 13.5736 649.343 21.534 654.424 31.1521C659.893 41.1843 662.627 53.4052 662.627 67.8148M632.409 67.8148C632.634 60.0842 631.314 52.3863 628.525 45.1728C626.318 39.5348 622.479 34.6834 617.5 31.2392C612.405 28.1074 606.542 26.4493 600.562 26.4493C594.581 26.4493 588.718 28.1074 583.624 31.2392C578.639 34.686 574.789 39.5355 572.564 45.1728C567.326 59.813 567.326 75.8166 572.564 90.4569C574.782 96.0984 578.633 100.95 583.624 104.39C588.718 107.522 594.581 109.18 600.562 109.18C606.542 109.18 612.405 107.522 617.5 104.39C622.485 100.953 626.325 96.0991 628.525 90.4569C631.311 83.2427 632.632 75.5453 632.409 67.8148ZM429.571 87.705L444.828 133.512H477.415L460.451 84.1693H437.408L436.032 79.9196C440.421 79.0662 447.928 77.7425 454.581 73.2141C459.242 70.0438 463.063 65.79 465.717 60.8179C468.372 55.8458 469.78 50.3038 469.821 44.6677C470.021 36.8826 468.055 29.1949 464.143 22.461C460.32 15.9405 454.646 10.7028 447.841 7.41278C439.862 3.71773 431.132 1.92892 422.343 2.18769H369.343V133.512H399.056V87.705H429.571ZM429.013 60.5171C424.968 62.0043 420.676 62.702 416.368 62.5723H399.056V26.2405H416.316C420.627 26.1164 424.919 26.8506 428.944 28.4002C432.126 29.666 434.814 31.9264 436.607 34.8445C438.435 37.7863 439.345 41.2063 439.22 44.6677C439.361 48.0768 438.462 51.4483 436.642 54.3341C434.84 57.1708 432.161 59.3417 429.013 60.5171ZM665.501 2.11802V26.5018H716.532L717.926 30.7689C713.607 31.6049 706.309 32.8938 699.76 37.2132V133.546H729.142V26.4321H763.315V2.04835L665.501 2.11802Z" fill="#EB0029"/>
</g>
<defs>
<clipPath id="clip0_756_290">
<rect width="1024" height="287.35" fill="white" transform="translate(0.103027 0.325195)"/>
</clipPath>
</defs>
</svg>
