<svg width="1025" height="399" viewBox="0 0 1025 399" fill="none" xmlns="http://www.w3.org/2000/svg">
<g clip-path="url(#clip0_781_286)">
<path d="M74.9908 6.48682H0.868164V80.6094H74.9908V6.48682Z" fill="#00C7FD"/>
<path d="M73.1445 392.663V125.452H2.71484V392.399H73.1445V392.663ZM539.51 395.301V329.883C529.223 329.883 520.518 329.355 514.187 328.3C506.801 327.245 501.262 324.607 497.569 320.914C493.876 317.221 491.502 311.946 490.183 304.824C489.128 298.229 488.6 289.524 488.6 278.973V185.858H539.51V125.452H488.6V21.5222H418.171V279.764C418.171 301.658 420.017 320.123 423.71 334.895C427.403 349.403 433.734 361.273 442.439 370.241C451.144 379.21 462.75 385.541 476.73 389.497C490.975 393.454 508.912 395.301 530.278 395.301H539.51ZM942.569 392.663V0.947266H872.139V392.663H942.569ZM350.379 151.83C330.859 130.728 303.426 120.177 268.607 120.177C251.725 120.177 236.162 123.606 222.445 130.464C208.464 137.322 196.858 146.818 187.362 158.952L183.669 163.964V159.48V125.452H114.294V392.399H184.197V250.221V259.981C184.197 258.398 184.197 256.815 184.197 255.233C184.988 230.173 191.055 211.709 202.661 199.839C215.059 187.177 230.095 180.846 247.24 180.846C267.552 180.846 283.115 187.177 293.402 199.311C303.426 211.445 308.701 228.591 308.701 250.485V251.276V392.399H379.659V240.988C379.922 203.004 369.899 172.933 350.379 151.83ZM835.737 258.662C835.737 239.406 832.308 221.469 825.713 204.587C818.855 187.968 809.359 173.197 797.489 160.535C785.355 147.874 770.847 138.114 753.965 130.992C737.083 123.869 718.354 120.44 698.043 120.44C678.787 120.44 660.586 124.133 643.704 131.255C626.822 138.641 612.05 148.401 599.652 160.799C587.255 173.197 577.231 187.968 570.109 204.85C562.723 221.732 559.294 239.933 559.294 259.189C559.294 278.445 562.723 296.646 569.581 313.528C576.44 330.41 586.2 345.182 598.334 357.58C610.468 369.978 625.503 380.001 642.913 387.123C660.322 394.509 679.578 398.202 700.153 398.202C759.768 398.202 796.697 371.033 818.855 345.71L768.209 307.198C757.658 319.859 732.335 337.005 700.681 337.005C680.897 337.005 664.543 332.521 652.145 323.288C639.747 314.32 631.306 301.658 626.822 286.095L626.031 283.721H835.737V258.662ZM626.558 234.13C626.558 214.61 648.98 180.582 697.252 180.319C745.524 180.319 768.209 214.347 768.209 233.866L626.558 234.13ZM1022.76 358.899C1021.44 355.733 1019.59 353.096 1017.22 350.722C1014.84 348.348 1012.21 346.501 1009.04 345.182C1005.88 343.863 1002.45 343.072 999.018 343.072C995.325 343.072 992.159 343.863 988.994 345.182C985.829 346.501 983.191 348.348 980.817 350.722C978.443 353.096 976.596 355.733 975.277 358.899C973.959 362.064 973.167 365.493 973.167 368.923C973.167 372.615 973.959 375.781 975.277 378.946C976.596 382.112 978.443 384.749 980.817 387.123C983.191 389.497 985.829 391.344 988.994 392.663C992.159 393.982 995.589 394.773 999.018 394.773C1002.71 394.773 1005.88 393.982 1009.04 392.663C1012.21 391.344 1014.84 389.497 1017.22 387.123C1019.59 384.749 1021.44 382.112 1022.76 378.946C1024.08 375.781 1024.87 372.352 1024.87 368.923C1024.87 365.493 1024.08 362.064 1022.76 358.899ZM1018.54 377.364C1017.48 380.001 1015.9 382.375 1014.05 384.222C1012.21 386.068 1009.83 387.651 1007.2 388.706C1004.56 389.761 1001.92 390.289 998.754 390.289C995.852 390.289 992.951 389.761 990.313 388.706C987.675 387.651 985.301 386.068 983.455 384.222C981.608 382.375 980.025 380.001 978.97 377.364C977.915 374.726 977.388 372.088 977.388 368.923C977.388 366.021 977.915 363.119 978.97 360.481C980.025 357.844 981.608 355.47 983.455 353.623C985.301 351.777 987.675 350.194 990.313 349.139C992.951 348.084 995.589 347.556 998.754 347.556C1001.66 347.556 1004.56 348.084 1007.2 349.139C1009.83 350.194 1012.21 351.777 1014.05 353.623C1015.9 355.47 1017.48 357.844 1018.54 360.481C1019.59 363.119 1020.12 365.757 1020.12 368.923C1020.12 372.088 1019.59 374.726 1018.54 377.364ZM1003.77 371.297C1005.88 371.033 1007.46 370.241 1008.78 368.923C1010.1 367.604 1010.89 365.757 1010.89 363.119C1010.89 360.218 1010.1 358.107 1008.25 356.525C1006.67 354.942 1003.77 354.151 1000.34 354.151H988.73V383.958H994.27V371.824H998.226L1005.61 383.958H1011.42L1003.77 371.297ZM1000.86 366.812C1000.07 366.812 999.282 366.812 998.226 366.812H994.27V358.371H998.226C999.018 358.371 999.809 358.371 1000.86 358.371C1001.66 358.371 1002.45 358.635 1003.24 358.899C1004.03 359.163 1004.56 359.69 1004.82 360.218C1005.35 360.745 1005.35 361.537 1005.35 362.592C1005.35 363.647 1005.08 364.438 1004.82 364.966C1004.29 365.493 1003.77 366.021 1003.24 366.285C1002.45 366.548 1001.66 366.812 1000.86 366.812Z" fill="#0068B5"/>
</g>
<defs>
<clipPath id="clip0_781_286">
<rect width="1024" height="397.255" fill="white" transform="translate(0.868164 0.947266)"/>
</clipPath>
</defs>
</svg>
