<svg width="1025" height="242" viewBox="0 0 1025 242" fill="none" xmlns="http://www.w3.org/2000/svg">
<g clip-path="url(#clip0_746_29)">
<path d="M565.294 153.442C565.294 155.383 565.123 157.385 564.589 159.136C562.388 166.425 554.838 172.585 545.399 172.585C537.528 172.585 531.276 168.118 531.276 158.67C531.276 144.22 547.185 140.224 565.294 140.319V153.442ZM593.706 128.262C593.706 104.42 583.523 83.4496 549.112 83.4496C531.444 83.4496 517.42 88.4132 509.766 92.8319L515.369 111.992C522.361 107.581 533.512 103.928 544.057 103.928C561.513 103.884 564.376 113.807 564.376 120.17V121.676C526.318 121.619 502.272 134.789 502.272 161.638C502.272 178.03 514.519 193.393 535.813 193.393C548.903 193.393 559.862 188.166 566.416 179.794H567.065C567.065 179.794 571.411 197.976 595.371 191.022C594.11 183.455 593.706 175.389 593.706 165.671V128.262Z" fill="#0071DC"/>
<path d="M0.857178 50.986C0.857178 50.986 25.7192 152.871 29.6867 169.408C34.3181 188.711 42.6636 195.813 66.7226 191.022L82.2497 127.851C86.1842 112.161 88.8246 100.976 91.3544 85.0164H91.7987C93.5763 101.134 96.108 112.21 99.3462 127.908C99.3462 127.908 105.665 156.582 108.901 171.643C112.147 186.7 121.176 196.189 144.743 191.022L181.737 50.986H151.87L139.239 111.529C135.843 129.152 132.765 142.923 130.389 159.045H129.965C127.805 143.079 125.06 129.858 121.606 112.689L108.456 50.986H77.3381L63.2717 111.134C59.288 129.412 55.5589 144.169 53.1885 159.744H52.7624C50.3341 145.078 47.0993 126.53 43.5989 108.838C43.5989 108.838 35.2419 65.8159 32.3104 50.986H0.857178Z" fill="#0071DC"/>
<path d="M238.209 153.442C238.209 155.383 238.042 157.385 237.504 159.136C235.303 166.425 227.753 172.585 218.314 172.585C210.444 172.585 204.193 168.118 204.193 158.67C204.193 144.22 220.1 140.224 238.209 140.319V153.442ZM266.616 128.262C266.616 104.42 256.435 83.4496 222.029 83.4496C204.357 83.4496 190.33 88.4132 182.683 92.8319L188.279 111.992C195.277 107.581 206.418 103.928 216.969 103.928C234.437 103.884 237.295 113.807 237.295 120.17V121.676C199.231 121.619 175.188 134.789 175.188 161.638C175.188 178.03 187.429 193.393 208.71 193.393C221.811 193.393 232.767 188.166 239.333 179.794H239.976C239.976 179.794 244.326 197.976 268.282 191.022C267.024 183.455 266.616 175.389 266.616 165.671V128.262Z" fill="#0071DC"/>
<path d="M314.02 161.291V50.9861H285.584V191.022H314.02V161.291Z" fill="#0071DC"/>
<path d="M686.075 50.9861C686.075 64.4225 686.075 154.293 686.075 154.293C686.075 168.534 688.756 178.513 694.491 184.609C699.501 189.941 707.753 193.393 717.642 193.393C726.049 193.393 734.321 191.797 738.22 190.345L737.853 168.125C734.952 168.837 731.616 169.408 727.052 169.408C717.365 169.408 714.116 163.204 714.116 150.417V110.895H738.882V84.1014H714.116V50.9861H686.075Z" fill="#0071DC"/>
<path d="M612.667 85.8235V191.022H642.002V137.157C642.002 134.249 642.179 131.715 642.638 129.392C644.808 118.107 653.44 110.895 665.827 110.895C669.228 110.895 671.66 111.263 674.293 111.644V84.1014C672.085 83.6557 670.576 83.4497 667.829 83.4497C656.882 83.4497 644.428 90.5169 639.2 105.666H638.403V85.8235H612.667Z" fill="#0071DC"/>
<path d="M333.936 85.8235V191.022H362.522V129.328C362.522 126.436 362.854 123.378 363.864 120.717C366.232 114.506 372.01 107.24 381.237 107.24C392.771 107.24 398.169 116.993 398.169 131.067V191.022H426.726V128.584C426.726 125.821 427.104 122.497 427.917 120.056C430.264 112.99 436.493 107.24 445.07 107.24C456.764 107.24 462.377 116.821 462.377 133.382C462.377 133.382 462.377 177.821 462.377 191.022H490.953V129.064C490.953 96.3889 474.363 83.4497 455.633 83.4497C447.338 83.4497 440.791 85.5298 434.872 89.1629C429.896 92.2167 425.441 96.5543 421.548 102.265H421.126C416.607 90.9289 405.98 83.4497 392.133 83.4497C374.339 83.4497 366.345 92.4674 361.495 100.118H361.072V85.8235H333.936Z" fill="#0071DC"/>
<path d="M892.611 81.5831C898.264 81.5831 902.918 78.6481 903.547 74.8461L909.135 11.7141C909.135 5.47301 901.825 0.347046 892.628 0.347046C883.448 0.347046 876.149 5.47301 876.149 11.7141L881.724 74.8461C882.34 78.6481 886.999 81.5831 892.632 81.5831H892.611Z" fill="#FFC220"/>
<path d="M858.487 101.306C861.324 96.4164 861.105 90.9146 858.119 88.4747L806.227 52.0804C800.836 48.9581 792.742 52.7166 788.15 60.6778C783.544 68.6287 784.36 77.5141 789.749 80.6322L847.202 107.385C850.799 108.723 855.688 106.161 858.508 101.272L858.487 101.306Z" fill="#FFC220"/>
<path d="M926.758 101.272C929.588 106.161 934.462 108.723 938.06 107.385L995.521 80.6322C1000.93 77.5141 1001.71 68.6287 997.134 60.6778C992.521 52.7166 984.418 48.9581 979.038 52.0804L927.144 88.4747C924.176 90.9146 923.956 96.4164 926.779 101.306L926.758 101.272Z" fill="#FFC220"/>
<path d="M892.611 160.44C898.264 160.44 902.918 163.361 903.547 167.159L909.135 230.288C909.135 236.539 901.825 241.655 892.628 241.655C883.448 241.655 876.149 236.539 876.149 230.288L881.724 167.159C882.34 163.361 886.999 160.44 892.632 160.44H892.611Z" fill="#FFC220"/>
<path d="M926.758 140.724C929.588 135.826 934.462 133.282 938.06 134.636L995.521 161.358C1000.93 164.488 1001.71 173.378 997.134 181.338C992.521 189.273 984.418 193.044 979.038 189.932L927.144 153.565C924.176 151.097 923.956 145.6 926.779 140.714L926.758 140.724Z" fill="#FFC220"/>
<path d="M858.487 140.714C861.324 145.6 861.105 151.097 858.119 153.565L806.227 189.932C800.836 193.044 792.742 189.273 788.15 181.338C783.544 173.378 784.36 164.488 789.749 161.358L847.202 134.636C850.799 133.282 855.688 135.826 858.512 140.724L858.487 140.714Z" fill="#FFC220"/>
<path d="M1014.06 185.703H1015.24C1016.54 185.703 1017.67 185.305 1017.67 184.178C1017.67 183.272 1017.11 182.648 1015.41 182.648C1014.74 182.648 1014.34 182.705 1014.06 182.763V185.703ZM1014.06 191.016H1012.31V181.578C1013.26 181.409 1014.28 181.294 1015.58 181.294C1017.17 181.294 1017.96 181.578 1018.58 182.026C1019.15 182.422 1019.53 183.158 1019.53 184.009C1019.53 185.196 1018.69 185.93 1017.67 186.268V186.382C1018.52 186.719 1018.97 187.456 1019.26 188.645C1019.53 190.11 1019.71 190.677 1019.94 191.016H1018.13C1017.84 190.677 1017.62 189.83 1017.39 188.53C1017.17 187.513 1016.54 187.06 1015.19 187.06H1014.06V191.016ZM1015.64 178.632C1011.57 178.632 1008.46 181.969 1008.46 186.039C1008.46 190.229 1011.57 193.5 1015.75 193.5C1019.83 193.564 1022.82 190.229 1022.82 186.099C1022.82 181.969 1019.83 178.632 1015.7 178.632H1015.64ZM1015.75 177.052C1020.84 177.052 1024.86 181.009 1024.86 186.039C1024.86 191.186 1020.84 195.144 1015.7 195.144C1010.55 195.144 1006.48 191.186 1006.48 186.039C1006.48 181.009 1010.55 177.052 1015.7 177.052H1015.75Z" fill="#FFC220"/>
</g>
<defs>
<clipPath id="clip0_746_29">
<rect width="1024" height="241.309" fill="white" transform="translate(0.857178 0.345337)"/>
</clipPath>
</defs>
</svg>
