<svg width="1025" height="264" viewBox="0 0 1025 264" fill="none" xmlns="http://www.w3.org/2000/svg">
<g clip-path="url(#clip0_14_1145)">
<path fill-rule="evenodd" clip-rule="evenodd" d="M560.707 156.977V151.271H639.761V152.949V155.467V157.145H620.963V260.032H617.437L617.1 258.69C614.921 248.451 604.345 244.926 598.976 244.926H598.134H596.962C588.066 245.25 580.108 249.001 571.883 252.877L570.946 253.319C570.107 253.654 569.307 253.99 568.511 254.326C567.714 254.661 566.917 254.997 566.079 255.333C557.348 259.529 547.951 263.221 536.536 263.221C475.441 263.221 430.796 210.519 430.796 136.165C430.796 45.0268 490.547 0.884259 534.021 0.884259C543.586 0.884259 549.797 2.73052 558.187 5.41598L561.714 6.42304C562.514 6.69032 563.352 6.97458 564.219 7.27046L564.23 7.2739C566.086 7.90612 568.104 8.59132 570.272 9.27635L573.63 10.1156C575.981 10.6191 579.003 11.1226 582.526 11.2905C589.744 11.4583 598.134 9.61203 601.66 1.21994L602.162 0.212891H605.015H605.857V92.5259H605.015H601.997L601.66 91.1833C586.217 29.7531 567.251 6.92658 534.189 6.75874H533.852C506.661 6.75874 497.597 24.2143 492.73 33.6135C479.806 58.6218 477.122 115.688 477.122 133.144C477.122 181.986 481.484 202.966 489.709 224.785C498.102 247.108 512.703 257.851 534.691 257.515C555.001 257.179 581.017 248.451 581.017 209.344V156.977H560.707ZM1019.42 167.719V166.209H1024.28V258.522H842.845V252.48H865.001V13.4725H840.329H819.517V193.735C820.019 225.289 799.039 263.389 753.218 263.389C684.908 263.389 661.577 227.807 661.577 181.818V13.4725H638.08V10.1156V7.59803H726.195V10.1156V13.4725H703.537V202.798C703.537 204.813 705.046 254.829 754.73 256.676C768.324 257.179 783.262 251.808 793.835 241.738C802.565 233.513 812.636 217.736 813.138 192.057V13.4725H793.67V10.1156V7.59803H840.329H845.365H847.042H1014.05V92.1904H1010.02L1009.68 90.8475C994.15 12.2299 958.197 12.9693 921.356 13.7269C919.97 13.7554 918.587 13.7839 917.201 13.8082C914.513 13.976 910.152 13.976 907.464 13.976V127.437H909.313H909.516C929.788 127.438 954.477 127.438 959.832 78.2596L960.001 76.749H964.029V185.007H960.001L959.832 183.496C955.923 133.01 932.893 133.249 912.517 133.462L912.127 133.466C911.636 133.471 911.145 133.476 910.653 133.48H907.299V252.647H909.313C910.043 252.647 910.909 252.657 911.896 252.669C926.086 252.832 965.426 253.283 992.729 228.646C1009.34 213.708 1018.24 193.231 1019.42 167.719ZM301.226 1.55576C249.699 1.55576 193.136 53.0832 193.136 131.801C193.136 210.519 251.545 262.718 301.226 262.718C350.908 262.718 409.317 210.519 409.317 131.801C409.149 53.0832 352.755 1.55576 301.226 1.55576ZM361.314 122.066V123.745V124.92V125.927V127.437V127.941V129.452V129.787V131.465V132.808C361.314 147.41 359.97 203.638 345.201 231.667C336.809 247.948 320.528 256.508 300.891 256.508C281.253 256.508 264.805 247.948 256.58 231.667C241.81 203.638 240.635 147.41 240.635 132.808V131.465V129.787V129.452V127.941V127.437V125.927V124.92V123.745V122.066V121.395C241.139 98.9042 243.992 56.7757 256.58 32.103C266.651 11.6263 287.128 7.26239 300.891 7.26239C314.821 7.26239 335.13 11.6263 345.201 32.103C357.787 56.7757 360.475 98.9042 361.146 121.395C361.314 121.563 361.314 121.898 361.314 122.066ZM166.949 7.59803H213.106H214.784V13.3047H194.307H192.126L118.443 259.865H117.1L24.4515 13.3047H22.1017H0.282227V9.9478V7.59803H83.6999V9.9478V13.3047H66.0762H64.9014L131.031 196.588L185.748 13.3047H165.271V7.59803H166.949Z" fill="black"/>
</g>
<defs>
<clipPath id="clip0_14_1145">
<rect width="1024" height="263.176" fill="white" transform="translate(0.282227 0.212891)"/>
</clipPath>
</defs>
</svg>
