<svg width="495" height="513" viewBox="0 0 495 513" fill="none" xmlns="http://www.w3.org/2000/svg">
<g clip-path="url(#clip0_795_4118)">
<path fill-rule="evenodd" clip-rule="evenodd" d="M441.083 36.8327C455.4 77.4238 486.612 187.45 484.935 285.087C431.581 373.662 340.4 451.641 247.744 501.36C155.102 451.641 63.9139 373.662 10.5602 285.087C8.88296 187.45 40.0731 77.4238 54.4049 36.8327C177.273 2.05773 319.216 2.05773 441.083 36.8327Z" fill="white"/>
<path fill-rule="evenodd" clip-rule="evenodd" d="M441.083 36.8325C455.4 77.4236 486.612 187.45 484.935 285.087C431.581 373.662 340.4 451.641 247.744 501.36C155.102 451.641 63.9139 373.662 10.5602 285.087C8.88298 187.45 40.0732 77.4236 54.405 36.8325C177.273 2.05755 319.216 2.05755 441.083 36.8325ZM46.7964 28.648C179.742 -8.78307 309.858 -8.78307 448.684 28.648C464.744 72.0465 497.114 188.364 494.818 287.873C437.951 386.489 328.631 470.925 247.744 512.575C166.857 470.911 57.5146 386.475 0.669732 287.858C-1.62652 188.349 30.737 72.0393 46.7964 28.648Z" fill="#041E42"/>
<path d="M146.521 245.439L136.868 216.955L125.193 223.642V287.088L136.746 280.473V249.275L146.025 275.16L157.916 268.351V204.898L146.521 211.427V245.439Z" fill="#041E42"/>
<path d="M411.462 59.6726V123.118L424.311 115.762V52.3159L411.462 59.6726Z" fill="#041E42"/>
<path d="M186.328 187.061C176.97 192.431 170.65 202.746 170.679 209.044V244.532C170.679 251.011 176.891 257.338 186.645 252.666C202.243 245.194 201.905 237.219 201.876 230.92V222.081L189.092 229.401V238.334L183.47 241.552V202.357L189.092 199.14V211.564L201.876 204.301V191.279C201.847 184.981 195.578 181.763 186.328 187.061Z" fill="#041E42"/>
<path d="M70.9827 253.127C61.6249 258.504 55.3048 268.812 55.3336 275.11V310.605C55.3336 317.084 61.5457 323.404 71.2994 318.732C86.9053 311.275 86.567 303.284 86.5022 296.986V288.146L73.7468 295.438V304.379L68.1322 307.596V268.423L73.7468 265.205V277.637L86.5022 270.367V257.352C86.5022 251.054 80.2325 247.829 70.9827 253.127Z" fill="#041E42"/>
<path d="M213.854 236.34L226.703 228.984V165.538L213.854 172.895V236.34Z" fill="#041E42"/>
<path d="M98.5161 302.37L111.365 295.014V231.568L98.5161 238.925V302.37Z" fill="#041E42"/>
<path d="M368.769 96.2686L377.572 91.2298V142.546L390.421 135.19V83.8659L399.225 78.8271V66.6836L368.769 84.125V96.2686Z" fill="#041E42"/>
<path d="M261.867 179.416L252.207 150.933L240.539 157.62V221.044L252.085 214.429V183.26L261.37 209.116L273.255 202.307V138.875L261.867 145.404V179.416Z" fill="#041E42"/>
<path d="M308.166 152.854L298.506 124.378L286.838 131.058V194.482L298.391 187.874V156.698L307.67 182.555L319.561 175.745V112.321L308.166 118.842V152.854Z" fill="#041E42"/>
<path d="M339.738 100.89L331.453 168.907L344.035 161.708L344.921 150.421L352.263 146.059L353.559 156.259L365.918 149.183L356.172 91.3379L339.738 100.89ZM345.137 138.904L348.585 114.257L350.953 135.312L345.137 138.904Z" fill="#041E42"/>
<path fill-rule="evenodd" clip-rule="evenodd" d="M381.848 44.5489L32.9395 244.381C37.9135 171.304 57.5432 95.376 70.932 54.389C178.259 26.0421 288.342 27.0283 381.848 44.5489ZM112.826 84.8593V99.0112H121.414V110.528H112.826V138.515L98.5159 146.757V73.846H126.668V84.8881L112.826 84.8593ZM168.728 109.614V125.451C168.728 131.756 161.962 138.443 151.618 138.443C141.123 138.443 134.047 131.756 134.047 125.451V85.6655C134.047 79.367 141.123 72.7086 151.618 72.7086C161.962 72.7086 168.728 79.3958 168.728 85.6655V90.7979L154.576 98.9248V83.0094L148.515 86.4862V128.186L154.576 124.716V117.748L168.728 109.614Z" fill="#003087"/>
<path fill-rule="evenodd" clip-rule="evenodd" d="M79.0952 341.731L445.452 131.908C455.53 177.005 463.887 229.682 463.707 278.99C409.569 366.09 326.112 431.817 247.758 477.073C170.046 431.817 122.076 390.456 79.0952 341.731ZM333.627 286.081C337.174 285.117 340.479 283.42 343.33 281.099C343.33 281.099 343.834 287.686 340.537 293.337C338.615 290.581 336.285 288.135 333.627 286.081ZM260.852 291.839L271.988 285.469C271.988 285.469 266.431 284.123 262.58 280.214L292.373 263.118L288.911 258.338H334.814L337.651 263.154C337.651 263.154 345.259 264.939 349.6 269.229L342.553 270.324L346.037 274.247C343.402 277.522 336.528 281.819 329.97 283.151C326.837 281.033 323.531 279.183 320.087 277.623L331.1 271.31C331.1 271.31 324.722 267.365 309.851 263.197C313.881 265.727 317.71 268.565 321.303 271.684L311.722 277.169C311.722 277.169 328.566 284.893 337.802 301.485L326.644 301.73C326.644 301.73 313.731 325.628 293.223 339.161V325.614C293.223 325.614 279.805 324.174 272.175 318.307L279.654 313.845C279.654 313.845 271.124 312.513 263.436 304.487L273.233 298.93C273.233 298.93 267.323 298.174 260.852 291.839ZM324.197 261.607C325.521 263.177 327.187 264.424 329.067 265.253C330.947 266.081 332.992 266.469 335.045 266.386L332.029 261.916L324.197 261.607ZM210.723 376.974L211.824 386.72C205.238 391.075 188.034 400.908 174.3 394.185C163.992 389.146 161.732 374.62 169.455 362.296C178.432 348 192.886 347.705 200.861 352.938C200.861 352.938 199.357 362.419 189.38 368.494L191.504 360.007C186.645 357.553 180.346 359.77 176.747 365.672C171.91 373.59 173.299 382.739 179.842 386.043C190.676 391.528 210.723 376.974 210.723 376.974ZM383.993 337.037C383.993 337.037 390.94 337.037 391.458 343.098C387.967 341.479 385.382 342.58 385.382 342.58C379.724 344.573 373.683 345.243 367.725 344.538L352.983 360.302C353.201 362.707 353.562 365.096 354.063 367.457C343.841 363.894 334.786 358.352 328.991 354.328L334.224 363.685C334.224 363.685 330.215 373.936 308.663 387.692L307.799 378.428C307.799 378.428 286.255 364.916 273.183 367.587C260.83 390.11 238.933 387.289 238.933 387.289L232.872 408.934C232.872 408.934 253.301 411.705 249.256 428.11L243.655 424.77C243.655 424.77 244.181 429.089 240.445 431.141L235.896 424.857C237.63 430.054 229.165 432.177 229.165 432.177C229.165 432.177 228.74 426.527 227.006 424.259L220.441 416.147L214.272 364.996L222.039 368.264C240.61 352.823 247.816 333.237 247.816 333.237C247.816 333.237 274.248 346.647 293.079 344.545C297.038 343.984 317.711 329.537 329.718 306.394L339.177 306.186C339.177 306.186 346.555 317.35 348.606 330.365L341.847 329.098C343.517 332.673 344.803 336.415 345.684 340.262L363.176 330.113C373.613 323.987 388.543 322.814 390.738 329.018C390.738 329.018 385.858 328.637 384.677 330.861C384.677 330.861 391.321 330.379 391.969 335.9C391.976 335.914 386.347 334.309 383.993 337.037ZM289.264 419.148L285.031 416.039C285.873 419.335 283.181 421.437 283.181 421.437C282.065 419.646 280.673 418.043 279.057 416.686C279.179 419.847 274.558 422.445 274.558 422.445C274.122 420.465 273.151 418.642 271.75 417.176L265.912 411.604L249.831 390.082C267.345 389.067 276.587 371.87 276.587 371.87C299.413 393.573 271.066 398.504 271.066 398.504L272.816 406.227C272.816 406.227 292.013 404.78 289.264 419.148ZM344.611 304.652C347.728 308.856 351.615 318.408 353.804 328.745L362.197 315.644L364.975 322C370.475 311.923 375.672 302.608 378.415 297.706C379.569 298.285 380.832 298.616 382.122 298.678V302.277C381.728 303.186 381.524 304.166 381.524 305.156C382.362 306.432 383.505 307.478 384.85 308.201C386.194 307.478 387.337 306.432 388.175 305.156C388.168 304.165 387.96 303.186 387.564 302.277V298.678C388.629 298.505 389.795 298.152 391.076 297.807C392.775 293.581 392.026 287.34 392.026 287.34C393.108 286.071 393.934 284.604 394.459 283.021C393.02 281.467 390.601 280.452 387.549 279.984V279.602L395.388 274.83V269.597L390.443 272.605L390.407 207.749L384.785 201.753L379.163 207.411L379.206 272.634L373.8 269.337V274.83L381.783 279.264V279.703C378.904 279.703 376.485 280.214 374.895 281.423C375.089 283.172 375.685 284.853 376.637 286.333L344.611 304.652ZM235.428 318.192L212.393 331.192C217.504 334.748 233.268 332.308 244.735 326.082C244.735 326.082 269.67 339.643 288.313 339.758L288.256 329.465C253.841 321.288 243.771 297.072 237.198 279.969L168.448 319.272C177.33 326.47 203.676 313.333 224.594 301.953C225.062 302.881 225.595 303.911 226.199 304.998L189.805 325.873C198.868 332.884 217.252 322.85 233.139 315.55C233.83 316.429 234.636 317.321 235.428 318.192ZM332.122 244.95C331.062 243.334 329.615 242.01 327.911 241.099C326.211 242.015 324.767 243.341 323.708 244.957C323.756 246.447 324.013 247.922 324.471 249.341H319.655C320.3 247.215 320.656 245.011 320.713 242.79C318.983 240.156 316.619 237.998 313.839 236.513C311.063 238.006 308.705 240.168 306.979 242.805C307.034 245.027 307.395 247.231 308.051 249.355H303.243C303.704 247.938 303.961 246.461 304.006 244.971C302.943 243.358 301.492 242.037 299.788 241.127C298.086 242.042 296.64 243.368 295.584 244.986C295.633 246.476 295.892 247.952 296.354 249.369V254.747L331.366 254.703V249.369C331.827 247.94 332.082 246.451 332.122 244.95Z" fill="#FE5000"/>
</g>
<defs>
<clipPath id="clip0_795_4118">
<rect width="494.38" height="512" fill="white" transform="translate(0.553711 0.574707)"/>
</clipPath>
</defs>
</svg>
