<svg width="1024" height="237" viewBox="0 0 1024 237" fill="none" xmlns="http://www.w3.org/2000/svg">
<g clip-path="url(#clip0_806_441)">
<path d="M155.119 201.959C155.237 197.012 155.002 191.83 154.413 187.472C142.399 182.879 132.741 177.932 124.025 172.867C120.727 170.982 119.431 170.511 117.9 170.511C116.251 170.511 114.72 171.218 111.893 172.867C92.6947 183.939 59.009 197.012 39.1038 197.366C38.986 193.243 39.5749 189.71 40.046 186.412C36.3948 186.647 31.3302 186.647 26.5011 186.294C25.7943 189.003 25.3232 193.008 25.3232 196.777C25.3232 204.786 29.7989 210.911 40.1638 210.911C60.0689 210.911 97.2882 196.777 117.9 185.352C130.15 192.183 142.634 197.837 155.119 201.959ZM180.678 163.444C175.143 162.266 169.136 160.971 165.484 160.971C162.304 160.971 160.537 162.738 160.537 165.918C160.537 170.982 163.953 184.881 163.953 200.192C163.953 210.086 163.246 217.624 161.951 222.571C151.586 221.04 137.688 215.622 124.143 207.613C120.727 205.61 119.314 205.139 117.9 205.139C116.487 205.139 115.074 205.61 111.776 207.495C98.584 215.033 84.5679 220.804 74.2031 222.571C73.3786 219.862 72.6719 216.329 72.2008 213.149C67.7251 214.798 62.6605 216.211 59.127 216.918C60.5404 229.52 63.6027 236.234 72.6719 236.234C81.9768 236.234 102.942 228.578 117.9 219.98C132.859 228.578 153.824 236.234 162.304 236.234C169.371 236.234 172.669 233.643 174.672 227.989C177.027 221.393 177.852 212.677 177.852 202.43C177.852 194.657 176.909 184.999 175.26 175.458C178.912 176.165 182.563 176.636 185.036 177.107C184.212 173.456 182.563 167.92 180.678 163.444ZM201.526 81.1145C196.579 80.9967 191.396 81.2322 187.038 81.8212C182.445 93.8351 177.498 103.493 172.433 112.209C170.549 115.507 170.078 116.803 170.078 118.334C170.078 119.983 170.785 121.514 172.433 124.341C183.505 143.539 196.579 177.225 196.932 197.13C192.81 197.248 189.276 196.659 185.978 196.188C186.214 199.839 186.214 204.904 185.861 209.733C188.57 210.44 192.574 210.911 196.343 210.911C204.352 210.911 210.477 206.435 210.477 196.07C210.477 176.165 196.343 138.946 184.918 118.334C191.75 106.084 197.403 93.5994 201.526 81.1145ZM60.7757 175.694C60.0689 179.345 59.5978 182.996 59.1267 185.47C62.7779 184.645 68.3137 182.996 72.7894 181.112C73.9673 175.576 75.2629 169.569 75.2629 165.918C75.2629 162.738 73.4962 160.971 70.316 160.971C65.2514 160.971 51.3531 164.387 36.0414 164.387C26.1477 164.387 18.6096 163.68 13.6627 162.385C15.1938 152.02 20.6118 138.121 28.621 124.576C30.6233 121.161 31.0944 119.747 31.0944 118.334C31.0944 116.921 30.6233 115.507 28.7388 112.209C21.2007 99.0176 15.4293 85.0015 13.6626 74.6366C16.3716 73.8121 19.905 73.1055 23.0852 72.6344C21.4362 68.1587 20.0228 63.0941 19.3162 59.5606C6.71361 60.9738 0 64.036 0 73.1054C0 82.4102 7.65585 103.375 16.254 118.334C7.65585 133.292 0 154.257 0 162.738C0 169.805 2.59125 173.103 8.24472 175.105C14.8406 177.46 23.5564 178.285 33.8035 178.285C41.5771 178.285 51.2354 177.343 60.7757 175.694ZM235.8 73.9297C235.8 66.8628 233.209 63.5649 227.556 61.5627C220.96 59.2071 212.244 58.3826 201.997 58.3826C194.223 58.3826 184.565 59.3248 175.025 60.9738C175.731 57.3226 176.203 53.6713 176.674 51.1978C173.022 52.0223 167.487 53.6713 163.011 55.5558C161.833 61.0915 160.537 67.0985 160.537 70.7498C160.537 73.9299 162.304 75.6966 165.484 75.6966C170.549 75.6966 184.447 72.2809 199.759 72.2809C209.653 72.2809 217.191 72.9876 222.138 74.2831C220.607 84.648 215.189 98.5463 207.179 112.091C205.177 115.507 204.706 116.92 204.706 118.334C204.706 119.747 205.177 121.16 207.062 124.458C214.6 137.65 220.371 151.666 222.138 162.031C219.429 162.855 215.895 163.562 212.715 164.033C214.364 168.509 215.778 173.574 216.484 177.107C229.087 175.694 235.8 172.631 235.8 163.562C235.8 154.257 228.145 133.292 219.547 118.334C228.144 103.375 235.8 82.4101 235.8 73.9297ZM80.6809 34.7082C80.5631 39.6551 80.7986 44.8376 81.3876 49.1954C93.4015 53.7889 103.06 58.7358 111.776 63.8004C115.073 65.6849 116.369 66.156 117.9 66.156C119.549 66.156 121.08 65.4492 123.907 63.8004C143.106 52.7288 176.792 39.655 196.697 39.3017C196.814 43.4241 196.226 46.9576 195.754 50.2554C199.406 50.0198 204.47 50.0198 209.299 50.3732C210.006 47.6642 210.477 43.6596 210.477 39.8906C210.477 31.8814 206.002 25.7568 195.637 25.7568C175.732 25.7568 138.512 39.8906 117.9 51.3156C105.651 44.4842 93.1659 38.8306 80.6809 34.7082ZM34.2746 155.553C39.2215 155.671 44.404 155.435 48.7619 154.846C53.3553 142.832 58.3022 133.174 63.3668 124.458C65.2513 121.161 65.7224 119.865 65.7224 118.334C65.7224 116.685 65.0157 115.154 63.3668 112.327C52.2952 93.1283 39.2214 59.4425 38.8681 39.5374C42.9905 39.4196 46.524 40.0085 49.8218 40.4796C49.5862 36.8284 49.5862 31.7638 49.9396 26.9346C47.2306 26.2279 43.226 25.7568 39.457 25.7568C31.4478 25.7568 25.3232 30.2325 25.3232 40.5973C25.3232 60.5025 39.457 97.7218 50.882 118.334C44.0506 130.583 38.397 143.068 34.2746 155.553ZM55.1221 73.2231C60.6578 74.401 66.6648 75.6966 70.316 75.6966C73.4962 75.6966 75.2629 73.9299 75.2629 70.7498C75.2629 65.6852 71.8472 51.7868 71.8472 36.4751C71.8472 26.5814 72.5539 19.0433 73.8494 14.0964C84.2142 15.6276 98.1126 21.0455 111.658 29.0548C115.073 31.057 116.487 31.5281 117.9 31.5281C119.313 31.5281 120.727 31.057 124.025 29.1725C137.216 21.6344 151.232 15.863 161.597 14.0963C162.422 16.8053 163.128 20.3388 163.6 23.5189C168.075 21.8699 173.14 20.4565 176.673 19.7499C175.26 7.1472 172.198 0.433594 163.129 0.433594C153.824 0.433594 132.859 8.08945 117.9 16.6875C102.942 8.08945 81.9765 0.433594 73.4962 0.433594C66.4292 0.433594 63.1313 3.02484 61.1291 8.67831C58.7735 15.2742 57.949 23.99 57.949 34.2371C57.949 42.0107 58.8912 51.6689 60.5402 61.2093C56.889 60.5025 53.2377 60.0314 50.7642 59.5603C51.5887 63.2117 53.2376 68.7474 55.1221 73.2231Z" fill="#009639"/>
<path d="M908.691 88.1819C896.206 88.1819 885.488 93.7176 879.599 97.1333L879.481 90.1842H869.116V179.463H880.188V106.791C889.963 100.785 898.797 97.9577 907.631 97.9577C921.058 97.9577 925.887 104.907 925.887 121.161V179.463H936.958V118.923C936.959 99.2535 928.95 88.1819 908.691 88.1819ZM821.414 88.1819C809.283 88.1819 798.8 91.9509 791.262 97.4867L795.855 105.143C802.569 100.785 811.167 97.958 820.119 97.958C836.137 97.958 841.202 104.083 841.202 120.572V125.637H831.426C801.744 125.637 785.844 136.002 785.844 155.554C785.844 171.808 797.151 181.466 814.701 181.466C824.005 181.466 832.839 178.403 841.791 173.103L841.908 179.463H852.273V118.688C852.273 98.7823 843.44 88.1819 821.414 88.1819ZM841.202 163.916C832.839 168.981 824.477 171.69 816.232 171.69C804.689 171.69 797.505 165.683 797.505 155.082C797.505 141.773 809.754 134.706 832.368 134.706H841.202L841.202 163.916ZM977.005 131.29L1021.06 90.1842H1006.57L964.755 130.348V57.2051H953.802V179.463H964.755V132.704L1009.51 179.463H1024L977.005 131.29ZM751.569 116.45C762.994 113.152 771.121 103.258 771.121 88.2998C771.121 68.3946 758.165 57.2052 733.195 57.2052H699.038V179.463H732.017C759.696 179.463 775.126 166.979 775.126 145.307C775.126 129.052 766.763 119.041 751.569 116.45ZM710.817 67.0988H728.248C750.156 67.0988 759.108 73.6945 759.108 89.3596C759.108 104.436 749.214 112.563 728.366 112.563H710.817V67.0988ZM730.015 169.57H710.817V122.221H731.9C752.865 122.221 763.23 129.288 763.23 145.66C763.23 160.971 752.394 169.57 730.015 169.57Z" fill="#505759"/>
<path d="M457.349 88.1819C443.097 88.1819 431.672 92.1865 423.074 97.9578L431.319 113.741C437.797 109.618 446.513 107.38 454.64 107.38C464.063 107.38 468.774 111.621 468.774 119.276V121.75H462.178C432.968 121.75 416.714 132.586 416.714 153.316C416.714 169.687 427.786 181.466 445.335 181.466C455.111 181.466 463.238 178.639 470.305 173.339L470.541 179.463H492.33V120.69C492.33 98.9001 480.905 88.1819 457.349 88.1819ZM468.774 156.967C463.592 160.736 458.056 162.62 452.52 162.62C445.335 162.62 440.742 158.38 440.742 151.667C440.742 142.833 448.398 138.593 465.005 138.593H468.774V156.967ZM641.678 57.2051V92.3042C635.907 89.4775 630.254 88.1819 623.54 88.1819C601.279 88.1819 582.67 104.789 582.67 135.295C582.67 161.443 597.157 181.466 620.949 181.466C629.783 181.466 637.085 178.992 644.505 173.221L644.623 179.463H665.942V57.2051H641.678ZM641.678 155.436C636.849 158.851 632.256 160.382 627.073 160.382C616.12 160.382 607.639 151.667 607.639 134.588C607.639 117.51 615.766 109.383 627.662 109.383C632.609 109.383 636.732 110.443 641.678 112.916V155.436ZM535.556 78.2881H582.905V57.2051H509.762V179.463H535.556V127.874H573.836V106.909H535.556L535.556 78.2881ZM397.044 57.2051L379.495 145.071L359.354 57.2051H332.028L310.592 145.542L293.396 57.2051H266.895L295.987 179.463H323.195L345.456 89.0064L365.479 179.463H392.686L422.721 57.2051H397.044Z" fill="#009639"/>
</g>
<defs>
<clipPath id="clip0_806_441">
<rect width="1024" height="235.8" fill="white" transform="translate(0 0.433594)"/>
</clipPath>
</defs>
</svg>
