<svg width="1024" height="143" viewBox="0 0 1024 143" fill="none" xmlns="http://www.w3.org/2000/svg">
<g clip-path="url(#clip0_781_508)">
<path d="M0 132.23H124.164L117.029 142.22H0V132.23Z" fill="#D40511"/>
<path d="M1024 142.22H872.006L879.855 132.23H1024.71V142.22H1024Z" fill="#D40511"/>
<path d="M0 113.676H138.436L130.587 123.667H0L0 113.676Z" fill="#D40511"/>
<path d="M0 95.123H152.708L144.859 105.113H0L0 95.123Z" fill="#D40511"/>
<path d="M1024 123.667H886.277L894.127 113.676H1024.71V123.667H1024Z" fill="#D40511"/>
<path d="M907.685 95.123H1024V105.113H899.835L907.685 95.123Z" fill="#D40511"/>
<path d="M134.155 142.22L199.805 54.4487H281.154C290.431 54.4487 290.431 58.0167 285.435 63.7254C281.154 69.4341 273.304 80.1379 269.023 85.8466C266.882 89.4146 262.601 94.4097 276.159 94.4097H385.338C376.775 107.254 346.804 142.934 293.999 142.934C251.183 142.22 134.155 142.22 134.155 142.22Z" fill="#D40511"/>
<path d="M510.216 95.123L474.537 142.933H381.056L416.736 95.123H510.216Z" fill="#D40511"/>
<path d="M646.512 95.123L610.832 142.933H516.638L552.318 95.123H646.512Z" fill="#D40511"/>
<path d="M677.196 95.123C677.196 95.123 670.06 104.4 667.206 108.681C655.075 124.38 665.778 142.933 704.312 142.933H855.593L891.273 95.123H677.196Z" fill="#D40511"/>
<path d="M180.538 0.21603L147.713 43.745H326.11C335.387 43.745 335.387 47.3129 330.392 53.0216C326.11 58.7303 318.261 69.4342 313.979 75.1429C311.838 77.9972 307.557 83.7059 321.115 83.7059H393.901C393.901 83.7059 406.032 68.007 415.309 54.4488C428.867 36.6091 416.736 -0.497559 368.925 -0.497559C326.11 0.21603 180.538 0.21603 180.538 0.21603Z" fill="#D40511"/>
<path d="M654.361 83.7057H424.585L487.381 0.21582H581.575L545.895 48.0263H587.997L623.677 0.21582H717.87L654.361 83.7057Z" fill="#D40511"/>
<path d="M847.744 0.21582L784.948 83.7057H685.045L747.841 0.21582H847.744Z" fill="#D40511"/>
</g>
<defs>
<clipPath id="clip0_781_508">
<rect width="1024" height="142.718" fill="white" transform="translate(0 0.21582)"/>
</clipPath>
</defs>
</svg>
