<svg width="1025" height="195" viewBox="0 0 1025 195" fill="none" xmlns="http://www.w3.org/2000/svg">
<g clip-path="url(#clip0_806_170)">
<path fill-rule="evenodd" clip-rule="evenodd" d="M21.33 19.3279H0.501465V10.8264C1.77668 10.8264 3.0519 10.4014 4.32712 10.4014H54.0606C57.4612 10.4014 58.7364 12.1017 60.0116 15.0772C74.8892 53.7588 90.1918 92.4404 105.494 131.122C105.919 132.397 106.77 133.672 108.045 136.648C124.623 93.7156 140.775 52.4836 157.353 10.8264H213.038V19.3279H192.634C192.634 21.8783 192.209 23.5786 192.209 25.2789V180.005C192.209 185.106 193.91 186.807 198.585 186.381C202.408 186.169 206.24 186.169 210.062 186.381V194.033H139.075V185.956H153.103C155.653 185.956 156.928 185.106 156.928 182.131V44.4072C156.928 43.9821 156.503 43.9821 156.078 42.2818L153.103 48.2328C135.675 93.7156 118.247 139.198 101.244 184.681C99.9685 187.657 99.1183 190.207 95.2927 189.782C91.467 189.357 90.1918 187.657 88.9166 184.256C71.4886 138.773 53.6355 92.8655 35.7825 47.3827C35.3574 45.6824 34.0822 44.4072 33.6571 42.7069C33.2321 42.7069 32.807 43.132 32.3819 43.132C32.3819 44.8323 31.9568 46.5325 31.9568 48.6579V179.155C31.9568 184.256 33.2321 186.381 38.3329 185.956C43.4338 185.531 48.9598 185.956 54.9108 185.956V193.608H4.75219V185.956C8.57489 185.744 12.4065 185.744 16.2292 185.956C20.905 186.381 21.7551 184.681 21.7551 180.005V19.3279H21.33Z" fill="#007856"/>
<path fill-rule="evenodd" clip-rule="evenodd" d="M561.597 49.9336V84.3645C561.597 87.34 562.022 89.4654 565.848 89.4654C585.401 89.0403 604.955 89.0403 624.508 88.1901C633.374 87.9631 641.846 84.4833 648.312 78.4135C654.265 72.2786 658.192 64.4639 659.56 56.0255C660.928 47.5872 659.673 38.9322 655.963 31.2304C648.312 15.9278 634.285 10.8269 618.982 10.4018C601.554 9.5517 583.701 10.4018 566.273 9.97678C562.873 9.97678 561.597 11.252 561.597 14.6526V49.9336ZM561.597 139.624V176.605C561.597 179.581 562.022 181.706 565.848 181.706C586.252 181.281 607.08 181.706 627.484 180.431C640.236 179.581 652.138 174.905 659.364 163.853C663.714 157.39 666.246 149.876 666.695 142.099C667.143 134.321 665.492 126.566 661.915 119.646C655.113 104.768 641.511 99.242 626.208 98.3919C606.23 97.1167 586.252 97.5417 566.273 97.1167C562.447 97.1167 561.172 98.3919 561.172 102.218C561.597 114.97 561.597 127.297 561.597 139.624ZM550.545 1.47532C552.246 1.47532 553.946 1.05025 555.646 1.05025C576.05 1.05025 596.878 0.625177 617.282 1.05025C630.524 0.791746 643.495 4.81722 654.263 12.5272C668.291 23.154 672.541 38.0316 670.841 54.6094C670.367 62.54 667.519 70.1448 662.668 76.4363C657.817 82.7279 651.186 87.4155 643.636 89.8904C641.511 90.7406 639.811 91.5907 635.985 92.8659C638.961 93.7161 640.661 94.5662 642.361 94.9913C663.19 100.517 675.942 115.395 677.217 134.523C678.917 163.003 665.315 179.156 646.187 185.532C637.528 188.356 628.511 189.93 619.407 190.208C598.154 190.633 576.475 190.208 554.796 190.208C553.521 190.208 552.246 189.783 550.545 189.783V1.47532Z" fill="#007856"/>
<path fill-rule="evenodd" clip-rule="evenodd" d="M774.559 133.673V125.597C774.984 121.346 773.284 120.071 769.033 120.071C758.831 120.921 748.204 120.496 738.003 122.196C727.664 123.927 717.544 126.778 707.822 130.698C702.784 132.836 698.594 136.58 695.903 141.346C693.213 146.112 692.173 151.634 692.945 157.052C693.017 162.612 694.814 168.011 698.089 172.504C701.363 176.997 705.953 180.361 711.223 182.132C719.75 185.234 728.959 185.963 737.867 184.241C746.776 182.519 755.05 178.411 761.807 172.355C772.009 161.728 774.984 147.701 774.559 133.673ZM698.046 92.4414C694.991 91.7065 692.004 90.711 689.119 89.4658C690.874 83.6521 693.822 78.2681 697.774 73.6573C701.727 69.0464 706.596 65.3099 712.073 62.6863C719.26 59.0308 727.132 56.9158 735.183 56.4766C743.235 56.0375 751.289 57.2838 758.831 60.1358C774.559 65.6618 781.785 78.839 783.06 94.5667C784.336 111.995 783.91 129.848 784.336 147.701V190.208H774.134V167.254C773.709 167.254 772.859 166.829 772.434 166.829C771.158 168.529 770.308 170.23 769.033 171.93C753.73 196.584 717.174 198.71 697.621 185.957C678.067 173.205 674.242 138.349 700.596 124.747C714.254 118.09 729.189 114.465 744.379 114.12L769.458 112.845C773.284 112.845 774.559 111.57 774.134 107.744C773.989 101.76 773.421 95.7944 772.434 89.8909C769.033 73.7382 758.406 65.2367 742.253 64.3866C721.425 63.5364 706.547 72.0379 698.046 92.4414Z" fill="#007856"/>
<path fill-rule="evenodd" clip-rule="evenodd" d="M963.291 119.22C962.053 120.244 960.914 121.383 959.89 122.621C951.814 131.548 943.313 140.049 935.236 148.976C933.78 150.805 932.894 153.022 932.686 155.352C932.261 166.829 932.686 177.88 932.686 189.782H922.909V1.90039H932.686V136.223C933.111 136.648 933.536 136.648 933.961 137.074C935.661 135.373 937.787 133.673 939.487 131.973C960.316 108.594 981.144 85.2146 1002.82 62.6858C1005.37 60.1353 1010.9 60.5604 1015.58 59.7103C1016 60.1353 1016 60.9855 1016.43 61.4106C1010.47 68.2117 1004.52 74.5878 998.572 81.389C990.496 90.3155 982.419 99.242 973.918 107.743C973.272 108.173 972.729 108.739 972.327 109.403C971.925 110.066 971.674 110.81 971.593 111.582C971.512 112.353 971.602 113.133 971.857 113.866C972.112 114.598 972.525 115.265 973.068 115.82C987.095 135.798 1000.7 155.777 1014.3 175.755C1017.7 180.431 1020.68 185.107 1024.5 190.633C1017.7 191.483 1013.02 191.483 1008.77 185.107C994.746 163.853 979.869 143.025 965.416 122.196C964.811 121.134 964.099 120.137 963.291 119.22Z" fill="#007856"/>
<path fill-rule="evenodd" clip-rule="evenodd" d="M813.665 61.4101V92.0153C816.816 86.2478 820.367 80.7083 824.292 75.4375C837.895 56.7343 865.524 52.0585 883.377 65.2357C888.008 68.6619 891.741 73.1574 894.257 78.3387C896.774 83.52 898 89.2332 897.83 94.9908C898.68 125.171 898.255 155.776 898.255 185.956C898.255 186.381 897.83 186.807 897.83 187.657H888.903V104.768C888.891 98.587 888.033 92.4371 886.353 86.4894C880.827 69.0614 868.5 66.0859 856.173 66.511C829.393 67.3611 814.941 92.0153 814.09 116.244C813.24 137.923 813.665 159.602 813.665 181.281V187.657H803.889V61.4101H813.665ZM301.028 177.88C288.276 179.155 275.523 180.005 264.046 171.504C259.325 168.51 255.443 164.364 252.766 159.456C250.088 154.548 248.704 149.04 248.744 143.449C248.374 136.999 249.093 130.533 250.869 124.321C252.894 119.583 255.776 115.26 259.371 111.569C261.071 109.443 262.771 109.443 264.897 111.569C284.025 130.272 303.578 148.55 322.707 167.253C323.132 167.678 323.557 168.528 324.407 169.379C317.57 174.358 309.466 177.305 301.028 177.88ZM288.701 27.8293C300.178 27.8293 308.254 36.7559 308.679 49.083V52.4836C308.814 59.1154 307.243 65.6707 304.117 71.521C300.991 77.3713 296.414 82.3206 290.826 85.8943C290.321 86.418 289.71 86.8268 289.033 87.0927C288.356 87.3585 287.629 87.4753 286.903 87.4349C286.177 87.3946 285.468 87.1981 284.824 86.8589C284.181 86.5196 283.618 86.0456 283.175 85.4692C273.398 74.8424 267.447 63.3654 268.297 48.913C269.147 36.1608 277.224 27.6593 288.701 27.6593V27.8293ZM357.988 10.4014V58.0095H367.339C372.015 22.3034 393.269 15.5022 417.073 19.753V180.43C416.222 181.706 414.947 183.406 414.097 183.406C408.427 183.689 402.743 183.547 397.094 182.981C378.391 179.58 368.189 165.128 355.012 153.651C363.061 143.194 368.458 130.942 370.74 117.945C371.262 114.524 372.863 111.359 375.31 108.913C377.757 106.466 380.921 104.864 384.342 104.342C390.293 103.492 391.143 100.942 389.443 95.841H335.459V102.897C346.086 103.322 355.012 107.148 357.137 118.625C359.263 130.102 354.162 138.178 347.361 146.68L295.502 97.5413C297.701 96.7149 299.832 95.7201 301.878 94.5658C307.711 92.0747 313.388 89.2358 318.881 86.0643C331.208 78.413 338.859 68.2113 337.159 53.3337C335.459 38.4562 326.107 28.2544 311.23 23.5786C300.773 20.3987 289.75 19.5285 278.924 21.0282C259.796 23.1535 243.643 35.4807 239.392 52.4836C237.239 60.3131 237.124 68.5633 239.058 76.4497C240.993 84.3362 244.912 91.5968 250.444 97.5413C251.705 98.8513 252.843 100.274 253.845 101.792C245.526 105.973 237.438 110.599 229.616 115.649C206.237 131.802 208.362 167.508 230.041 181.961C244.918 191.737 261.496 194.288 278.499 194.288C296.618 194.188 314.326 188.875 329.508 178.985C330.326 178.625 331.221 178.475 332.112 178.549C333.003 178.623 333.861 178.919 334.609 179.41C339.03 183.577 344.243 186.815 349.938 188.933C355.633 191.05 361.694 192.004 367.764 191.737H469.357C471.209 191.808 473.063 191.665 474.883 191.312C476.158 183.661 476.158 183.661 469.357 183.661C466.811 183.448 464.251 183.448 461.705 183.661C456.604 184.086 454.904 182.386 454.904 177.285C455.329 128.402 454.904 79.9433 454.904 31.0599C454.904 19.1579 454.904 19.1579 467.231 19.1579C474.878 18.6927 482.449 20.8966 488.651 25.3931C494.853 29.8897 499.302 36.4 501.237 43.8121C502.937 48.913 503.787 54.0138 505.063 58.6896H513.989V10.4014H357.988Z" fill="#007856"/>
</g>
<defs>
<clipPath id="clip0_806_170">
<rect width="1024" height="193.427" fill="white" transform="translate(0.501465 0.861328)"/>
</clipPath>
</defs>
</svg>
