<svg width="1025" height="178" viewBox="0 0 1025 178" fill="none" xmlns="http://www.w3.org/2000/svg">
<g clip-path="url(#clip0_778_2126)">
<path d="M63.38 4.26649C34.4808 12.3268 11.6761 35.1315 3.81239 64.0307C-12.7014 123.795 31.7286 177.661 88.7404 177.661C93.8518 177.661 98.7667 177.268 103.681 176.482V41.6191H83.2358C76.3551 59.9022 58.8583 59.7056 58.8583 59.7056V78.3819H74.5858V149.745C40.3786 141.685 16.7875 104.922 30.9422 66.1932C36.6434 50.2692 49.2253 37.6872 65.1493 31.7895C109.186 15.2757 150.667 47.5169 150.667 89.3911C150.667 115.145 134.94 137.36 112.528 146.6V174.712C149.881 164.096 177.207 129.889 177.207 89.1945C177.207 32.1827 123.144 -12.2473 63.38 4.26649Z" fill="#026FAA"/>
<path d="M320.327 62.8512C309.711 62.8512 300.667 67.5695 294.573 75.04V64.6206H275.7H269.409H246.015V62.4581C246.015 47.9102 247.784 45.7477 263.511 45.7477V21.96H261.545C230.484 21.96 220.654 31.9862 220.654 62.2615V64.6206H204.927V87.6219H220.654V157.806H246.211V87.6219H269.606V157.806H295.163V106.888C295.163 91.3572 303.223 84.4764 312.856 84.4764C324.259 84.4764 329.96 91.7504 329.96 104.136V157.609H355.91V100.99C355.517 77.0059 342.345 62.8512 320.327 62.8512Z" fill="#026FAA"/>
<path d="M418.23 62.8512C405.845 62.8512 396.212 67.7661 390.314 75.04V21.96H364.757V157.806H390.314V147.779C396.212 155.053 406.238 159.771 418.623 159.771C438.283 159.771 463.25 144.241 463.25 111.41C463.053 78.1855 439.069 62.8512 418.23 62.8512ZM413.315 136.18C397.981 136.18 387.168 122.026 389.921 106.298C391.887 94.5027 402.699 85.656 414.495 86.2458C428.06 86.8356 438.086 97.255 438.086 111.213C438.283 125.368 427.47 136.18 413.315 136.18Z" fill="#026FAA"/>
<path d="M517.706 62.8512C489.2 61.8682 466.199 85.2627 467.771 113.769C469.148 138.343 489.397 158.592 513.971 159.378C542.477 160.361 565.478 136.967 563.905 108.461C562.726 83.8866 542.28 63.8341 517.706 62.8512ZM515.937 135.394C502.175 135.394 491.756 123.402 492.739 109.247C493.722 97.2549 503.551 87.2287 515.74 87.0321C528.912 86.8355 539.528 97.8447 539.528 111.213C539.331 124.385 528.912 135.394 515.937 135.394Z" fill="#026FAA"/>
<path d="M674.587 79.7582C666.527 68.749 652.372 62.8512 640.576 62.8512C612.857 62.8512 593.001 84.673 593.001 111.213C593.001 137.753 613.25 159.575 640.576 159.575C652.569 159.575 666.723 153.677 674.784 142.471V157.806H688.545V21.96H674.587V79.7582ZM641.166 146.6C622.097 146.6 607.352 130.872 607.352 111.213C607.352 91.7504 622.293 75.8264 641.166 75.8264C661.022 75.8264 675.963 91.7504 675.963 111.213C675.963 130.676 661.022 146.6 641.166 146.6Z" fill="#026FAA"/>
<path d="M717.837 64.6206H703.289V157.609H717.837V64.6206Z" fill="#026FAA"/>
<path d="M710.563 22.7461C704.272 22.7461 699.161 27.6609 699.161 34.1485C699.161 40.636 703.879 45.7474 710.563 45.7474C717.247 45.7474 722.162 40.636 722.162 34.1485C722.162 27.4643 717.247 22.7461 710.563 22.7461Z" fill="#026FAA"/>
<path d="M783.302 64.6206H774.652C761.284 64.6206 751.455 69.732 745.753 79.1685V64.6206H731.599V157.609H746.146V109.444C746.146 87.8185 754.207 77.9889 774.259 77.9889H783.302V64.6206Z" fill="#026FAA"/>
<path d="M818.886 63.0476C798.44 65.0135 779.567 84.2796 777.208 104.529C773.473 135.394 793.526 159.378 825.767 159.378C846.606 159.378 861.153 149.745 869.607 133.428L857.222 127.333C851.52 138.736 840.904 146.403 825.767 146.403C807.09 146.403 792.739 134.018 790.773 115.538H872.556V109.443C872.556 79.1682 848.375 60.0987 818.886 63.0476ZM791.363 102.563C795.098 87.0319 808.073 75.6295 824.784 75.6295C842.87 75.6295 855.059 85.8523 857.615 102.563H791.363Z" fill="#026FAA"/>
<path d="M928.585 146.6C905.19 146.6 889.069 125.171 894.967 101.383C898.702 86.2458 913.054 75.6298 928.781 76.023C942.739 76.4162 952.962 83.6901 958.467 96.272L971.442 90.7674C964.561 74.4502 948.244 63.0479 927.995 63.0479C900.668 63.0479 879.24 83.4935 879.24 111.41C879.24 138.146 899.685 159.771 928.191 159.771C950.406 159.771 964.954 147.779 972.425 130.676L959.253 125.171C954.142 137.163 944.115 146.6 928.585 146.6Z" fill="#026FAA"/>
<path d="M1024.33 77.7922V64.8171H1002.31V43.1919H987.759V64.8171H971.835V77.7922H987.759V122.222C987.759 149.942 995.033 157.805 1022.16 157.805H1024.13V144.241C1005.65 144.241 1002.11 141.095 1002.11 122.026V77.7922H1024.33Z" fill="#026FAA"/>
</g>
<defs>
<clipPath id="clip0_778_2126">
<rect width="1024" height="176.882" fill="white" transform="translate(0.325195 0.779297)"/>
</clipPath>
</defs>
</svg>
