<svg width="450" height="513" viewBox="0 0 450 513" fill="none" xmlns="http://www.w3.org/2000/svg">
<g clip-path="url(#clip0_876_1819)">
<path d="M449.158 0.0507812L384.914 64.5114L331.246 10.8881L277.32 64.5114L223.741 10.9315L170.161 64.5548L116.538 10.9315L63.001 64.5548L0.361084 1.35126V286.851C0.361084 411.002 99.9781 512.051 224.087 512.051C348.198 512.051 449.158 411.002 449.158 286.851V0.0507812Z" fill="white"/>
<path d="M20.3885 325.951C25.6772 352.827 36.1677 378.099 51.6436 401.119C60.9636 384.733 79.6473 364.402 116.321 355.776C113.503 346.368 110.989 336.355 108.865 325.951H20.3885Z" fill="#5B6670"/>
<path d="M66.2512 420.454C105.872 466.882 162.964 493.672 223.089 494.061C217.41 491.157 211.862 487.993 206.529 484.526C181.04 468.052 145.971 435.974 123.342 376.498C87.7091 384.258 72.6236 404.459 66.2512 420.454Z" fill="#5B6670"/>
<path d="M145.321 373.419C161.404 413.822 185.68 444.859 217.541 465.667C238.609 479.452 258.811 485.737 272.118 488.599C305.411 480.839 336.536 464.758 362.286 442.084C341.953 439.875 321.146 428.17 299.125 415.815C264.793 396.525 222.006 372.553 164.308 372.553C158.066 372.553 151.694 372.856 145.321 373.419Z" fill="#5B6670"/>
<path d="M232.107 220.873H157.849V309.263H188.67V238.345H211.819V309.263H241.21V233.272C241.21 226.552 237.091 220.873 232.064 220.873H232.107Z" fill="#592C82"/>
<path d="M254.301 220.873V296.69C254.301 303.453 258.376 309.263 263.404 309.263H337.575V255.595H307.969V291.748H284.82V237.908H337.575V220.83H254.301V220.873Z" fill="#592C82"/>
<path d="M75.7881 220.873L59.0119 256.594H49.3449V220.873H18.6536V309.263H49.3449V273.718H59.0119L75.7881 309.263H106.479L84.848 265.134L106.479 220.873H75.7881Z" fill="#592C82"/>
<path d="M146.406 220.873H114.631V309.263H146.406V220.873Z" fill="#592C82"/>
<path d="M430.951 244.802V220.916H349.453V261.274C349.453 267.993 353.528 273.498 358.556 273.498H400.086V292.746H349.453V309.306H430.994V268.731C430.994 262.445 427.527 256.549 422.845 256.549H380.015V238.039H401.429V244.802H430.908H430.951Z" fill="#592C82"/>
<path d="M344.251 131.226H318.241L371.907 77.5598L331.246 36.9414L277.32 90.5646L223.741 36.9414L129.498 131.226H103.488L157.068 77.4732L116.537 36.9414L63 90.5646L18.6536 46.5215V134.521V204.66H430.949V136.602V44.4842L344.251 131.226Z" fill="#592C82"/>
<path d="M108.691 187.666C108.691 189.964 110.555 191.828 112.853 191.828H136.001V185.586H117.101V165.385H136.001V159.186H108.691V187.666Z" fill="white"/>
<path d="M70.9335 159.23V191.873H79.3434V183.333H89.7904V191.873H98.2438V163.392C98.2438 160.965 96.293 159.23 93.6052 159.23H70.9335ZM89.8339 177.134H79.3866V165.473H89.8339V177.134Z" fill="white"/>
<path d="M411.487 159.23H392.369C390.116 159.23 388.25 161.095 388.25 163.349V187.668C388.25 189.965 390.116 191.829 392.369 191.829H411.487C413.785 191.829 415.605 189.922 415.605 187.668V163.349C415.605 161.051 413.74 159.23 411.487 159.23ZM407.151 185.587H396.747V165.429H407.151V185.587Z" fill="white"/>
<path d="M33.1335 174.489C33.1335 176.787 34.9976 178.651 37.2951 178.651H52.0339V185.63H33.1335V191.872H60.4436V176.613C60.4436 174.489 58.8398 172.712 56.7156 172.495H41.5432V165.472H60.4436V159.273H33.1335V174.532V174.489Z" fill="white"/>
<path d="M206.746 159.23H183.599V191.873H192.052V183.333H202.499V191.873H210.953V163.392C210.953 161.095 209.087 159.23 206.791 159.23H206.746ZM202.542 177.134H192.095V165.473H202.542V177.134Z" fill="white"/>
<path d="M351.491 165.429H360.942V191.829H369.351V165.429H378.801V159.23H351.491V165.429Z" fill="white"/>
<path d="M264.055 159.23H222.094V191.873H230.546V165.473H240.907V191.873H249.447V165.473H259.765V191.873H268.217V163.392C268.217 161.095 266.353 159.23 264.055 159.23Z" fill="white"/>
<path d="M338.789 159.23H315.64V191.873H324.052V165.473H334.498V191.873H342.95V163.392C342.95 161.095 341.087 159.23 338.789 159.23Z" fill="white"/>
<path d="M279.661 187.668C279.661 189.965 281.525 191.829 283.823 191.829H306.971V185.587H288.113V178.608H306.971V172.409H288.113V165.429H306.971V159.23H279.661V187.711V187.668Z" fill="white"/>
<path d="M168.558 179.95H173.066V163.347C173.066 160.92 171.072 159.186 168.428 159.186H145.756V191.828H154.166V179.95H160.278L165.307 191.828H173.543L168.558 179.95ZM164.613 173.751H154.166V165.428H164.613V173.751Z" fill="white"/>
<path d="M159.799 350.963C203.712 350.054 247.149 361.064 302.593 392.665C343.557 416.03 361.548 423.096 373.859 420.063C385.172 417.288 395.664 410.611 414.217 371.425C421.282 356.468 426.355 338.782 428.825 325.951H130.799C132.879 334.969 134.917 343.941 137.648 352.221C144.844 351.398 152.3 350.963 159.799 350.963Z" fill="#5B6670"/>
</g>
<defs>
<clipPath id="clip0_876_1819">
<rect width="448.797" height="512" fill="white" transform="translate(0.361084 0.0507812)"/>
</clipPath>
</defs>
</svg>
