<svg width="496" height="513" viewBox="0 0 496 513" fill="none" xmlns="http://www.w3.org/2000/svg">
<g clip-path="url(#clip0_781_386)">
<path d="M302.776 220.928C285.301 239.115 286.88 249.594 268.445 256.668C263.817 258.417 258.136 260.321 250.876 261.992C246.604 248.805 235.862 235.71 224.501 235.71C216.638 235.71 207.536 239.812 197.057 244.44C184.752 249.857 173.484 256.064 169.893 258.417L174.706 264.871C178.375 262.859 188.947 257.612 199.519 253.077C208.697 249.145 216.994 245.91 222.566 245.91C231.575 245.91 237.426 256.141 240.661 264.345C228.866 267.147 209.471 267.828 203.62 267.828C200.912 267.828 199.936 268.277 198.992 269.066C198.11 269.856 197.413 271.233 196.98 273.168L196.284 276.14H202.568C235.228 276.14 266.092 270.985 285.92 258.928C288.722 259.702 291.167 260.228 294.309 260.228C305.655 260.228 317.388 254.036 324.709 248.356C327.341 246.344 327.944 244.517 327.944 242.505C327.944 241.545 327.851 240.663 327.758 239.781L327.418 236.375C316.939 244.672 308.209 250.879 297.374 250.879C295.455 250.879 294.046 250.709 292.916 250.352C303.488 233.403 312.93 218.374 336.086 206.146C333.64 204.66 330.142 202.384 328.316 201.162C319.292 205.109 310.376 212.972 302.776 220.928Z" fill="#63513D"/>
<path d="M266.696 225.989C259.266 225.989 259.962 213.312 259.436 203.282C233.231 205.805 216.808 213.591 198.791 223.28L200.896 231.313C217.226 221.531 232.952 215.943 249.638 214.287C249.824 223.884 253.926 236.746 264.854 236.746C276.555 236.746 290.78 218.389 307.482 196.889L311.862 191.209C309.587 189.459 307.064 187.881 305.485 186.41C288.365 208.436 273.522 225.989 266.696 225.989Z" fill="#63513D"/>
<path d="M220.925 89.5145C216.637 90.3813 213.495 91.1707 209.734 91.1707C207.288 91.1707 204.487 90.8147 201.174 90.0407C198.636 89.4216 195.927 88.8953 192.104 88.8953C185.2 88.8953 177.771 91.5112 172.694 96.4024C163.422 105.225 162.911 114.745 162.292 123.211C161.518 134.495 159.413 137.297 153.314 145.5C148.33 152.218 141.504 161.056 136.272 170.405C137.944 171.179 143.439 174.151 145.358 175.204C151.38 166.133 159.769 154.942 165.264 146.46C170.248 138.783 172.26 135.455 172.601 125.146C172.694 123.397 172.694 121.741 172.864 120.069C173.313 114.745 174.706 109.327 179.783 104.343C183.529 100.566 188.946 98.6623 194.379 98.6623C199.611 98.6623 202.676 100.148 207.211 100.148C210.446 100.148 212.814 99.3588 214.888 98.5849L216.56 97.9658L212.535 107.578L221.962 111.417C215.941 115.162 202.737 131.322 202.737 150.469C202.737 157.357 203.79 163.734 205.276 169.415C205.446 170.018 205.787 170.638 206.746 170.638C207.629 170.638 208.248 170.111 208.325 169.167L208.418 167.155C208.697 161.304 209.115 152.048 211.467 143.751C215.399 129.774 225.971 116.664 236.558 110.364L221.528 103.817L227.983 87.9976L220.925 89.5145Z" fill="#63513D"/>
<path d="M266.339 25.8359C260.658 25.8359 259.095 31.3308 259.095 34.3956C259.095 36.8412 259.962 39.7357 263.026 39.7357C265.549 39.7357 268.691 37.9092 271.137 35.8815C273.505 33.9622 275.069 32.3989 275.069 30.82C275.069 29.3496 273.676 27.941 271.57 26.9814C270.115 26.2693 268.274 25.8359 266.339 25.8359Z" fill="#63513D"/>
<path d="M231.575 136.786L227.38 144.835H272.02L268.708 136.786H231.575Z" fill="#63513D"/>
<path d="M179.937 62.7057C182.29 61.2972 184.302 59.3005 184.302 57.1954C184.302 56.2357 183.884 55.276 182.909 54.3938C181.253 52.8304 178.978 52.041 177.058 52.041C172.678 52.041 170.418 56.1428 170.418 59.9041C170.418 62.7831 171.827 64.4393 174.52 64.4393C176.176 64.4548 178.111 63.7428 179.937 62.7057Z" fill="#63513D"/>
<path d="M439.607 223.033L443.879 226.004C444.482 226.438 444.931 226.701 445.457 226.701C446.34 226.701 446.943 225.834 446.943 225.138C446.943 224.704 446.758 224.255 446.247 223.822C433.477 212.198 419.763 198.05 406.916 184.414C396.87 173.671 386.562 162.326 377.476 150.871C376.856 150.082 376.346 149.726 375.634 149.726C374.597 149.726 374.07 150.423 374.07 151.212C374.07 152.435 374.937 153.905 377.12 157.589C383.744 168.858 391.964 180.219 402.102 190.868C413.03 202.477 425.877 213.312 439.607 223.033Z" fill="#63513D"/>
<path d="M384.657 380.898H374.255C371.547 380.898 369.72 381.858 368.404 383.437C367.352 384.737 366.655 386.409 366.655 388.684V503.04C366.655 505.315 367.352 506.971 368.404 508.287C369.72 509.866 371.547 510.825 374.255 510.825H384.657C387.366 510.825 389.192 509.866 390.508 508.287C391.56 506.987 392.257 505.315 392.257 503.04V388.684C392.257 386.409 391.56 384.753 390.508 383.437C389.192 381.858 387.366 380.898 384.657 380.898Z" fill="#63513D"/>
<path d="M204.053 111.014C204.053 109.884 203.542 108.739 202.227 107.872C200.756 106.82 198.914 106.386 197.258 106.386C193.574 106.386 192.104 108.569 191.392 110.844C191.051 111.897 190.974 112.934 190.974 113.816C190.974 116.958 192.367 119.141 194.642 119.141C197.769 119.141 204.053 114.776 204.053 111.014Z" fill="#63513D"/>
<path d="M83.2119 218.312L83.8465 222.057C84.0942 223.636 84.7133 224.936 86.0135 225.556C87.5923 226.345 89.8677 226.438 93.7992 226.438C103.752 226.438 111.011 225.215 115.206 224.163C125.948 240.136 140.715 246.266 154.955 246.266C167.106 246.266 179.411 241.808 191.206 235.338L189.008 227.382C177.492 233.868 165.527 238.14 154.955 238.14C143.16 238.14 132.666 233.063 123.936 219.875C120.268 214.303 117.389 207.306 113.875 201.099C109.68 193.763 105.145 189.831 97.2045 189.831C89.9451 189.831 82.8714 192.818 75.3643 196.038L75.7048 197.694C76.3085 200.403 77.3765 202.322 79.915 202.322C81.0449 202.322 82.1903 201.796 82.794 201.626C86.9887 200.31 90.0379 199.18 94.3255 199.18C100.873 199.18 104.015 203.019 108.473 212.461L110.145 215.959C105.594 217.507 94.9446 218.312 87.0041 218.312H83.2119Z" fill="#63513D"/>
<path d="M448.336 413.837C418.014 413.837 400.972 437.519 400.972 462.502C400.972 489.156 419.236 512.575 448.491 512.575C463.103 512.575 477.42 507.064 485.639 497.375C489.215 493.165 492.109 487.314 492.109 483.738C492.109 482.515 491.846 481.463 491.15 480.689C490.453 479.807 489.401 479.28 487.574 479.28H473.52C470.718 479.28 468.799 480.317 467.39 482.438C463.288 488.459 457.36 491.617 448.615 491.617C435.504 491.617 427.022 481.649 426.418 470.721H487.404C490.097 470.721 492.048 470.117 493.348 468.801C494.834 467.408 495.53 465.396 495.53 461.65C495.53 450.196 491.955 438.309 484.432 429.238C476.724 420.044 464.852 413.837 448.336 413.837ZM426.573 452.1C427.719 441.358 435.938 433.324 448.413 433.324C460.657 433.324 469.124 441.358 470.269 452.1H426.573Z" fill="#63513D"/>
<path d="M412.612 46.7163H414.02C414.02 47.32 413.927 48.032 413.927 48.6357C413.927 58.511 419.004 65.8478 431.496 65.8478C439.173 65.8478 451.246 61.9937 462.592 58.155C472.018 54.92 480.671 51.6075 484.959 50.3847V39.8903C480.067 41.3762 470.115 45.2149 459.806 48.7904C448.971 52.5517 438.306 55.9725 432.099 55.9725C425.289 55.9725 423.369 52.2112 423.369 46.8711C423.369 35.8658 430.273 20.0622 434.638 11.0537H424.066C418.571 21.7184 396.901 55.8796 385.199 70.027L391.917 77.2865C398.186 70.3057 405.089 58.4181 412.612 46.7163Z" fill="#63513D"/>
<path d="M338.593 46.546C329.77 38.0638 323.052 28.4516 318.765 23.8235C309.23 13.4219 296.924 0.574707 276.663 0.574707C257.082 0.574707 244.158 13.329 239.963 24.3498C238.725 27.5074 237.781 31.3306 236.898 32.7392C234.979 35.8813 226.327 50.6479 222.751 56.4988H238.911L231.047 71.3582C240.211 69.3305 246.758 67.8446 255.504 67.8446C263.274 67.8446 268.877 69.6865 271.323 74.5777C275.873 83.6636 275.873 111.169 283.551 131.895C290.702 151.382 308.193 170.436 327.85 185.002L328.717 185.28C329.677 185.28 330.281 184.568 330.281 183.872C330.281 183.346 330.11 183.005 329.677 182.556C313.239 166.133 299.881 147.962 292.73 128.041C285.656 108.646 286.786 81.3883 280.579 69.2376C276.477 61.2042 267.747 59.0992 259.698 59.0992C253.244 59.0992 247.207 60.4148 244.405 61.0185L251.495 49.0381H239.514C242.037 44.5803 244.684 40.4785 245.984 38.0328C247.114 35.9278 247.563 33.3119 248.956 29.7363C253.507 18.2822 263.552 11.0227 276.663 11.0227C293.086 11.0227 302.698 21.5946 312.233 32.1819C316.598 37.0577 323.78 47.289 332.061 54.889C337.741 60.1362 348.561 65.9716 365.247 83.1993C374.874 93.152 386.05 106.092 397.844 123.397C440.039 185.172 467.746 239.595 483.193 282.052L482.93 282.223C438.631 252.163 400.29 223.776 369.348 188.748C347.415 163.843 328.377 135.022 311.768 98.2135C310.638 95.7834 309.663 93.508 308.611 91.1553C308.193 90.1956 307.744 89.9325 307.047 89.9325C306.165 89.9325 305.546 90.5361 305.546 91.4029C305.546 92.3626 305.995 94.4677 306.939 98.6469C315.777 136.74 340.233 170.901 366.361 199.304C392.396 227.521 421.852 251.823 446.045 269.453L464.929 323.458C465.362 324.773 465.873 326.151 465.873 327.482C465.873 328.442 465.625 329.231 465.021 329.757C464.495 330.268 463.799 330.547 462.22 330.547H456.539C454.094 330.547 453.134 330.191 452.267 329.494C451.385 328.798 450.766 327.745 450.348 326.522C448.692 321.461 438.708 293.058 436.804 287.3C436.463 286.247 435.844 285.907 435.148 285.907C434.281 285.907 433.677 286.603 433.677 287.393C433.677 288.089 433.941 288.878 434.374 291.324C436.897 304.249 439.869 318.768 441.092 324.262C441.633 326.816 442.237 329.169 442.237 330.918C442.237 332.482 441.881 333.364 440.581 334.664L434.714 340.608C433.321 342.016 432.547 342.357 431.402 342.357C429.993 342.357 428.864 341.413 428.337 338.967C421.697 307.948 411.651 269.484 409.036 258.835C408.416 256.466 407.983 255.151 406.59 255.151C405.367 255.151 404.918 256.033 404.918 257.085C404.918 257.875 405.088 258.835 405.197 259.531C406.76 270.536 413.137 310.657 420.041 347.264C421.264 353.563 423.616 357.046 429.049 357.046C431.495 357.046 433.848 356.086 436.03 353.966C439.606 350.39 440.658 349.431 444.946 345.236C448.011 342.264 450.1 341.041 455.332 341.041H468.272C471.321 341.041 472.993 340.267 474.463 338.859C475.872 337.543 476.739 335.717 476.739 333.101C476.739 330.407 476.042 328.21 475.083 325.501C471.77 316.601 461.105 286.464 457.979 277.982L458.226 277.811C469.154 286.108 485.051 296.68 492.047 296.68C494.214 296.68 495.53 295.72 495.53 292.315C495.53 276.232 468.798 210.108 407.72 119.063C375.215 70.5688 346.641 54.2234 338.593 46.546Z" fill="#63513D"/>
<path d="M415.305 107.176C426.326 102.625 436.185 99.6687 445.086 99.6687C457.577 99.6687 467.808 99.6687 484.927 95.6443V87.6109C475.315 89.36 465.099 91.4496 458.459 91.4496C454.527 91.4496 453.382 90.9233 453.382 89.6231C453.382 88.8492 453.908 88.3075 455.394 87.7038C465.873 83.246 484.664 75.7234 495.499 71.7918V61.1426C473.736 69.176 435.566 84.9796 409.531 99.1425C410.243 99.9938 414.794 106.386 415.305 107.176Z" fill="#63513D"/>
<path d="M116.769 105.767C104.464 120.348 97.9939 132.158 87.2363 158.363C88.9854 158.177 91.5239 158.007 94.3255 158.007C95.7341 158.007 96.864 158.007 98.6905 158.1L99.9907 155.298C106.027 142.358 114.154 124.898 125.515 111.448L129.446 106.82C141.164 93.09 148.408 84.9638 152.958 66.2812C154.537 59.6409 155.837 53.6971 160.295 49.425C164.32 45.5863 169.397 43.9146 174.535 43.9146C178.9 43.9146 182.151 44.9672 186.856 46.9639C191.128 48.7904 192.707 49.1464 197.258 49.1464C198.821 49.1464 199.951 49.0535 201.004 48.9761L194.89 57.1952L203.186 63.0461C192.785 66.0954 187.274 76.1565 185.448 80.7846C185.107 81.7442 184.922 82.3479 184.922 82.9671C184.922 83.6636 185.278 84.3601 186.315 84.3601C187.46 84.3601 188.327 83.4933 189.813 81.7442C194.89 75.6147 198.914 71.4355 217.597 65.5846L204.394 55.6164L214.362 41.0356H205.013C199.084 41.0356 195.153 40.9427 189.983 38.59C182.987 35.355 179.411 33.9619 173.204 33.9619C165.604 33.9619 158.701 36.6707 153.02 41.9024C146.473 47.9391 144.445 55.9879 142.092 64.7952C140.266 71.6213 138.068 79.1284 133.192 86.0318C129.09 91.8827 126.134 94.7617 116.769 105.767Z" fill="#63513D"/>
<path d="M41.1104 72.9989C19.7036 72.9989 10.6177 83.3076 10.6177 90.2111C4.24049 92.8424 0.138672 99.9162 0.138672 106.464C0.138672 119.481 9.65799 128.753 22.2421 128.753C26.4368 128.753 30.7243 127.081 33.6962 124.821C35.8787 125.595 38.6648 126.028 41.5438 126.028C47.5805 126.028 54.2982 123.923 59.0346 117.035C59.7312 117.128 60.3503 117.128 61.0468 117.128C68.7242 117.128 75.38 112.051 78.8627 105.411C79.7295 103.77 80.0855 102.439 80.0855 101.495C80.0855 100.535 79.6521 99.7459 78.6924 99.7459C77.4696 99.7459 77.2838 100.891 75.1014 102.888C70.2101 107.346 62.703 109.018 55.0102 109.018C51.2489 114.512 46.6208 117.407 41.2962 117.407C37.3646 117.407 34.3153 116.354 31.1577 114.265C28.6192 117.066 25.4771 118.196 22.4278 118.196C15.5244 118.196 10.6331 113.383 10.6331 106.386C10.6331 101.495 13.7753 97.13 18.1402 95.4583C18.9142 86.8058 28.1704 80.9549 39.7174 80.9549C41.2033 80.9549 42.6893 81.0323 44.2681 81.218C46.0171 78.4319 50.2118 75.46 56.1556 74.6706C57.3784 74.5003 58.3226 74.4075 59.0346 74.0669C59.7312 73.7109 60.0717 73.0144 60.0717 72.2405C60.0717 71.5439 59.8085 70.9248 59.1275 70.4914C58.5238 70.1354 57.4558 69.9651 56.2485 69.7175C50.7381 68.6649 44.1907 65.2596 40.8628 56.9631C27.6596 56.9631 17.9855 46.3758 17.9855 34.5037V33.6988C13.605 31.9498 10.6486 27.7551 10.6486 22.7865C10.6486 16.2235 15.803 10.9918 22.3504 10.9918C26.282 10.9918 29.6873 12.9111 31.8852 15.7901C33.7117 15.2639 35.8013 15.0936 37.8135 15.0936C47.596 15.0936 58.0904 21.3005 60.0872 33.3583C72.6712 34.5037 75.6431 45.153 76.448 49.6108C76.8659 51.8862 77.2219 53.8055 78.7234 53.8055C80.2867 53.8055 80.6427 52.0564 81.169 49.7037C82.1286 45.2304 83.7848 41.6548 87.1127 38.8687C87.1127 27.43 95.6724 17.5547 107.823 17.5547C109.65 13.5303 113.674 10.7441 118.472 10.7441C125.035 10.7441 130.267 15.8056 130.267 22.5388C130.267 26.4703 128.441 29.8756 125.546 31.9652C126.165 34.2406 126.583 36.2528 126.583 38.1721C126.583 45.5245 122.218 50.6634 114.185 53.3721C113.132 57.8454 111.213 61.8544 108.071 64.8262C102.823 69.9032 97.4989 69.9032 97.4989 71.9928C97.4989 73.1227 98.2728 73.8348 100.471 73.8348C110.176 73.8348 119.695 68.4018 120.825 59.4087C130.097 56.2666 135.684 46.9021 135.684 39.4878C135.684 37.5685 135.514 35.9123 134.725 34.3335C137.263 31.9033 140.235 27.7086 140.235 21.5017C140.235 16.0842 137.867 10.5893 133.688 6.54943C129.957 2.94293 124.803 0.574707 118.782 0.574707C110.052 0.574707 104.371 5.29567 101.121 9.92376C91.6015 9.92376 79.2961 20.4956 79.2961 35.6182H77.9804C77.1136 30.3709 71.6806 26.8883 67.1609 26.6097C63.477 15.6044 55.1805 6.17795 41.5438 6.17795C39.9805 6.17795 38.0612 6.27082 36.3895 6.51848C32.365 2.85006 27.9227 0.574707 21.7158 0.574707C9.82825 0.574707 0.138672 10.094 0.138672 22.1518C0.138672 29.6744 3.54396 34.8133 10.014 39.3795L9.92113 40.788C9.92113 50.3847 20.4001 65.4144 35.9561 65.4144C35.9561 67.86 39.0054 71.1879 42.4261 71.7916V73.0144H41.1104V72.9989Z" fill="#63513D"/>
<path d="M276.137 454.979L256.309 449.902C248.09 447.812 244.251 446.311 244.251 441.265C244.251 436.358 248.631 432.427 258.754 432.427C264.698 432.427 270.116 433.742 273.614 437.411C276.493 440.46 275.966 442.039 278.242 443.262C279.65 443.958 281.214 443.958 283.659 443.958H293.535C295.113 443.958 296.243 443.695 297.11 442.735C297.822 441.946 298.24 440.723 298.24 438.711C298.24 434.16 295.284 428.309 290.036 423.851C283.04 417.83 272.035 413.821 258.754 413.821C234.824 413.821 219.098 425.183 219.098 443.339C219.098 449.809 221.451 455.041 225.29 459.143C229.748 463.956 236.125 467.284 245.381 469.637L265.395 474.683C270.89 476.092 275.796 477.763 275.796 482.546C275.796 489.976 267.933 492.499 259.528 492.499C255.426 492.499 251.154 491.725 247.656 489.976C245.211 488.753 243.121 487.019 241.62 484.651C240.319 482.639 239.87 481.153 237.874 480.023C236.651 479.311 235.165 479.234 233.153 479.234H222.318C219.965 479.234 218.835 479.93 218.046 480.89C217.256 481.85 216.993 483.243 216.993 484.651C216.993 488.134 218.216 492.499 221.095 496.446C227.735 505.346 241.62 512.528 259.358 512.528C276.833 512.528 301.026 505.269 301.026 481.85C301.026 475.813 299.277 470.659 296.058 466.464C291.94 461.186 286.089 457.533 276.137 454.979Z" fill="#63513D"/>
<path d="M76.5874 74.2217C81.2155 80.9549 88.9857 93.9724 96.3381 111.277C97.6383 109.079 101.57 103.77 103.149 102.099C96.4155 88.462 85.4102 75.4445 80.5964 70.3057L76.5874 74.2217Z" fill="#63513D"/>
<path d="M292.467 173.919C287.235 176.194 275.177 180.544 263.212 180.544C257.253 180.544 252.284 180.033 246.774 179.321C239.963 178.454 233.493 177.665 227.998 177.665C218.82 177.665 207.458 178.547 196.453 186.317L201.267 192.617C208.774 189.042 220.925 187.292 226.946 187.292C232.456 187.292 238.121 187.896 243.369 188.593C249.312 189.382 256.216 190.249 263.46 190.249C279.898 190.249 295.98 181.519 298.503 179.94C296.491 178.191 293.953 175.745 292.467 173.919Z" fill="#63513D"/>
<path d="M185.881 185.9L180.82 179.337C161.24 186.859 139.492 198.995 139.492 211.409C139.492 218.482 144.739 224.07 156.519 224.07C173.824 224.07 192.259 215.34 207.041 207.214L204.936 204.335C203.713 202.57 202.66 202.059 201.004 202.059C199.951 202.059 198.806 202.477 197.862 202.926C185.2 209.133 171.471 215.34 158.717 215.34C151.364 215.34 149.538 213.08 149.538 209.907C149.538 201.007 173.824 190.683 185.881 185.9Z" fill="#63513D"/>
<path d="M354.056 417.165H338.252V388.684C338.252 386.409 337.54 384.753 336.503 383.437C335.187 381.874 333.345 380.914 330.652 380.914H320.777C318.083 380.914 316.242 381.874 314.926 383.437C313.889 384.753 313.177 386.409 313.177 388.684V417.165H308.286C306.459 417.165 305.051 417.691 303.998 418.558C302.853 419.61 302.342 421.004 302.342 423.093V429.114C302.342 431.219 302.853 432.628 303.998 433.65C305.051 434.532 306.444 435.058 308.286 435.058H313.177V478.646C313.177 489.821 316.242 496.818 321.922 502.405C327.154 507.56 333.98 510.795 345.852 510.795H353.282C355.108 510.795 356.501 510.268 357.554 509.386C358.699 508.349 359.38 506.956 359.38 504.851V497.251C359.38 495.161 358.684 493.753 357.554 492.716C356.501 491.833 355.108 491.307 353.282 491.307H352.229C347.508 491.307 344.273 490.084 342.075 487.979C339.459 485.534 338.144 481.788 338.144 476.881V435.043H354.056C355.882 435.043 357.291 434.516 358.328 433.634C359.473 432.597 359.984 431.188 359.984 429.099V423.078C359.984 420.973 359.458 419.58 358.328 418.542C357.306 417.691 355.898 417.165 354.056 417.165Z" fill="#63513D"/>
<path d="M486.878 400.463C488.704 400.463 490.098 399.937 491.15 399.055C492.295 398.018 492.806 396.609 492.806 394.52V386.393C492.806 383.236 492.203 381.657 491.15 380.527C490.206 379.49 488.612 378.886 486.878 378.886C485.469 378.886 484.076 379.056 481.724 379.304L411.993 386.208C409.996 386.393 409.021 386.997 408.324 387.786C407.519 388.669 407.194 389.783 407.194 391.362V395.913C407.194 397.662 407.535 398.436 408.154 399.148C408.928 400.014 410.073 400.448 411.637 400.448H486.878V400.463Z" fill="#63513D"/>
<path d="M90.9204 316.322C85.0695 319.743 77.8101 321.322 71.4329 321.322C68.7242 321.322 67.5014 321.848 66.5417 322.808C65.4892 323.845 64.9629 325.423 64.9629 327.606V330.655H67.1454C78.8472 330.655 89.6822 328.829 101.57 319.48L140.266 289.235C145.776 295.534 159.661 304.264 176.084 304.264C185.355 304.264 191.283 302.004 199.843 299.822C206.483 298.166 212.953 296.664 227.101 296.664H268.073C289.046 296.664 299.185 292.299 310.36 286.015C334.661 272.378 355.356 249.315 367.074 222.847C364.009 220.912 361.13 219.163 358.684 217.507C345.574 245.121 325.653 265.227 305.206 276.836C295.516 282.347 286.771 285.922 267.902 285.922H227.101C212.52 285.922 203.341 287.841 196.19 289.668C188.497 291.68 183.591 293.692 175.836 293.692C164.304 293.692 153.624 288.012 148.47 282.594L158.097 274.994L153.299 268.617C150.497 270.629 116.336 295.875 109.17 301.555L108.752 301.292C108.922 299.543 108.922 297.98 108.922 296.417C108.922 277.192 100.006 272.564 86.4626 267.147L77.2838 272.58C95.8891 278.771 100.517 283.755 100.517 297.655C100.517 308.645 96.6011 313.01 90.9204 316.322Z" fill="#63513D"/>
<path d="M3.63683 302.964C10.1843 302.964 10.9582 299.032 10.9582 295.271C10.9582 292.748 10.8808 289.854 10.8808 286.711C10.9582 279.467 11.2368 272.997 22.9386 267.75C27.6596 265.661 50.8 256.219 68.0277 248.882C73.1046 246.699 77.8101 244.873 83.0573 244.873C88.9082 244.873 95.6414 247.396 104.015 252.395C111.105 256.59 118.534 262.271 124.385 268.818L131.799 263.138C125.422 255.63 116.599 248.897 107.777 243.665C98.9538 238.434 91.0907 235.353 84.4504 235.353C81.5714 235.353 79.1877 235.88 77.191 236.406C74.8227 237.025 72.6403 237.722 69.8387 237.722C66.6191 237.722 63.8949 236.948 59.9633 232.397C58.4929 230.741 49.0355 219.999 47.0387 216.857C46.0636 215.371 44.33 212.383 44.33 208.901C44.33 207.415 44.5931 205.666 45.4599 204.102C53.5862 210.402 63.6472 214.241 75.8753 215.727L74.2036 207.43C56.6509 202.802 37.9373 187.339 37.9373 177.371C37.9373 175.266 38.4636 173.795 39.2375 171.938C46.0481 178.238 62.0529 184.8 70.69 184.8C75.4109 184.8 79.2651 183.222 82.918 181.736C86.4162 180.343 89.9144 178.965 94.6198 178.965C105.811 178.965 119.602 184.367 131.753 189.521C132.465 189.785 133.239 189.97 134.013 189.97C135.948 189.97 137.434 189.088 138.393 187.246L139.972 184.367C126.614 176.597 105.285 168.285 94.171 168.285C89.1095 168.285 85.441 169.601 81.9429 170.994C78.0113 172.557 74.6061 174.213 71.015 174.213C62.1922 174.213 39.5626 165.483 39.5626 157.001C39.5626 147.033 75.5502 143.194 79.4973 143.194L83.0728 135.068C56.9605 135.068 25.8486 144.231 25.8486 156.382C25.8486 159.88 27.8608 161.614 27.8608 164.849C27.8608 169.229 25.8486 172.201 25.8486 177.077C25.8486 180.312 27.7834 184.414 30.0433 188.005C32.4889 191.766 35.3834 194.211 35.3834 197.369C35.3834 199.722 33.8046 202.508 33.8046 208.018C33.8046 219.813 40.5377 226.98 53.6326 241.034L56.2485 243.836C45.4135 248.03 25.2294 256.76 20.5085 258.773C4.24049 265.568 0.138672 273.88 0.138672 286.99C0.138672 292.051 0.138672 297.81 0.4792 302.964H3.63683Z" fill="#63513D"/>
<path d="M113.72 30.8042C113.72 30.1077 113.101 29.4111 112.25 29.4111C111.445 29.4111 111.027 29.9374 110.238 30.5565C106.91 33.4356 103.938 36.3146 100.811 39.9056C96.3535 44.8897 92.6077 51.5145 89.543 58.774L94.2485 61.653C97.4835 56.8392 107.885 40.4164 113.21 32.1199C113.535 31.6091 113.72 31.1602 113.72 30.8042Z" fill="#63513D"/>
<path d="M295.702 399.07C296.832 398.033 297.358 396.625 297.358 394.535V386.827C297.358 384.737 296.832 383.329 295.702 382.292C294.649 381.409 293.256 380.899 291.43 380.899H92.2207C88.8928 380.899 86.8032 382.028 85.3172 383.778C84.0944 385.279 83.3979 386.92 83.3979 389.799V469.142H82.949C82.949 469.142 39.5316 391.733 37.4265 388.158C35.9406 385.604 34.2844 383.87 32.1019 382.555C29.9194 381.332 27.6441 380.542 23.2791 380.542H8.96145C5.63356 380.542 3.54396 381.672 2.05801 383.421C0.835207 384.907 0.138672 386.579 0.138672 389.458V501.894C0.138672 504.773 0.835207 506.445 2.05801 507.931C3.54396 509.68 5.63356 510.81 8.96145 510.81H17.0877C20.4156 510.81 22.5052 509.68 23.9911 507.931C25.2139 506.445 25.9105 504.773 25.9105 501.894V420.663H26.3594C26.3594 420.663 71.4484 500.517 73.2749 503.489C75.8134 507.668 80.0855 510.826 86.215 510.826H100.115C103.427 510.826 105.517 509.696 107.003 507.947C108.241 506.461 108.922 504.789 108.922 501.91V400.479H291.445C293.256 400.463 294.649 399.937 295.702 399.07Z" fill="#63513D"/>
<path d="M165.001 413.837C134.679 413.837 117.637 437.519 117.637 462.502C117.637 489.156 135.901 512.575 165.156 512.575C179.752 512.575 194.07 507.064 202.289 497.375C205.88 493.165 208.774 487.314 208.774 483.738C208.774 482.515 208.511 481.463 207.815 480.689C207.118 479.807 206.066 479.28 204.239 479.28H190.169C187.383 479.28 185.448 480.317 184.055 482.438C179.953 488.459 173.994 491.617 165.264 491.617C152.169 491.617 143.687 481.649 143.083 470.721H203.899C206.608 470.721 208.527 470.117 209.827 468.801C211.328 467.408 212.025 465.396 212.025 461.65C212.025 450.196 208.449 438.309 200.927 429.238C193.234 420.044 181.501 413.837 165.001 413.837ZM143.238 452.1C144.384 441.358 152.587 433.324 165.079 433.324C177.322 433.324 185.789 441.358 186.919 452.1H143.238Z" fill="#63513D"/>
<path d="M31.3281 101.495C31.3281 102.114 31.7615 102.888 32.7212 102.888C33.3249 102.888 33.8511 102.64 34.9965 102.192L66.9598 91.3566L65.3964 86.1094C52.379 88.2919 42.937 91.6198 32.1949 99.9937C31.5758 100.535 31.3281 100.891 31.3281 101.495Z" fill="#63513D"/>
<path d="M50.7224 39.1165C45.8312 35.3552 40.3363 32.306 33.8663 29.6591L32.7363 29.396C31.7767 29.396 31.3433 30.0925 31.3433 30.7117C31.3433 31.2379 31.5135 31.6713 32.3029 32.3679C39.9029 38.8224 54.5921 51.1589 59.1273 54.9047L62.7802 50.71C58.8487 46.0974 54.8088 42.2587 50.7224 39.1165Z" fill="#63513D"/>
</g>
<defs>
<clipPath id="clip0_781_386">
<rect width="495.391" height="512" fill="white" transform="translate(0.138672 0.574707)"/>
</clipPath>
</defs>
</svg>
