<svg width="1025" height="207" viewBox="0 0 1025 207" fill="none" xmlns="http://www.w3.org/2000/svg">
<g clip-path="url(#clip0_781_320)">
<path d="M47.3592 103.575L24.244 126.698L0.905762 103.575L24.2354 80.245L47.3592 103.575ZM103.869 47.0652L143.681 86.8775L167.019 63.5564L103.869 0.611816L40.7181 63.7624L64.0563 87.0835L103.869 47.0652ZM183.502 80.245L160.378 103.575L183.708 126.904L207.029 103.575L183.502 80.245ZM103.869 160.084L64.0563 120.066L40.7181 143.396L103.869 206.538L167.019 143.387L143.681 120.066L103.869 160.084ZM103.869 126.707L127.198 103.369L103.869 80.2536L80.539 103.575L103.869 126.698V126.707ZM349.212 129.109V128.715C349.212 113.631 341.164 105.986 328.096 100.958C336.136 96.5389 342.974 89.2886 342.974 76.6242V76.2295C342.974 58.5284 328.697 47.0652 305.77 47.0652H253.285V159.887H306.98C332.515 160.084 349.212 149.625 349.212 129.118V129.109ZM318.237 80.8542C318.237 89.2972 311.399 92.7121 300.339 92.7121H277.421V68.7818H301.952C312.411 68.7818 318.237 73.0033 318.237 80.4509V80.8542ZM324.475 125.9C324.475 134.343 317.843 138.17 306.971 138.17H277.421V113.425H306.173C318.846 113.425 324.475 118.058 324.475 125.695V125.9ZM401.294 160.084V47.0652H376.36V159.887H401.294V160.084ZM534.828 160.084V47.0652H510.289V116.651L457.4 47.0652H434.474V159.887H459.013V88.2933L513.712 160.084H534.82H534.828ZM672.369 160.084L623.917 46.4646H600.999L552.529 160.084H578.073L588.326 134.747H635.989L646.243 160.084H672.387H672.369ZM627.126 112.824H597.164L612.248 76.2295L627.126 112.824ZM790.828 160.084V47.0652H766.289V116.651L713.4 47.0652H690.474V159.887H715.013V88.2933L769.712 160.084H790.82H790.828ZM918.923 141.782L903.041 125.9C894.186 133.94 886.343 139.166 873.276 139.166C853.97 139.166 840.499 123.078 840.499 103.772V103.171C840.499 83.8659 854.168 67.9839 873.276 67.9839C884.533 67.9839 893.388 72.8059 902.234 80.6483L918.116 62.3466C907.665 52.0932 894.992 44.8515 873.679 44.8515C839.092 44.8515 814.759 71.1929 814.759 103.171V103.575C814.759 135.948 839.487 161.689 872.675 161.689C894.392 161.895 907.262 154.25 918.923 141.782ZM1024.91 160.084V137.964H963.566V114.231H1016.86V92.1115H963.566V69.1851H1024.1V47.0652H939.035V159.887H1024.91V160.084Z" fill="#F0B90B"/>
</g>
<defs>
<clipPath id="clip0_781_320">
<rect width="1024" height="205.926" fill="white" transform="translate(0.905762 0.611816)"/>
</clipPath>
</defs>
</svg>
