<svg width="513" height="513" viewBox="0 0 513 513" fill="none" xmlns="http://www.w3.org/2000/svg">
<g clip-path="url(#clip0_2_14689)">
<path fill-rule="evenodd" clip-rule="evenodd" d="M256.41 512.801C114.541 512.801 0.409668 398.67 0.409668 256.801C0.409668 114.932 114.541 0.800781 256.41 0.800781C398.278 0.800781 512.41 114.932 512.41 256.801C512.41 398.67 398.278 512.801 256.41 512.801ZM256.41 411.47L275.61 392.27L256.41 318.67L237.21 392.27L256.41 411.47ZM231.878 410.401L222.278 446.67L244.678 424.27L231.878 410.401ZM280.941 410.401L268.141 423.201L290.541 445.601L280.941 410.401ZM299.078 476.532L256.41 433.87L213.741 476.532C227.61 478.67 241.478 480.801 256.41 480.801C271.341 480.801 285.21 479.732 299.078 476.532ZM256.41 32.8008C132.678 32.8008 32.4097 133.07 32.4097 256.801C32.4097 354.932 95.3409 438.132 182.81 468.001L230.81 289.87C220.141 282.401 213.741 269.601 213.741 255.732C213.741 232.27 232.941 213.07 256.41 213.07C279.878 213.07 299.078 232.27 299.078 255.732C299.078 269.601 292.678 281.332 282.01 289.87L330.01 468.001C417.478 438.132 480.41 354.932 480.41 256.801C480.41 133.07 380.141 32.8008 256.41 32.8008ZM402.541 367.732C397.21 374.132 387.61 376.27 380.141 370.932C372.678 365.601 371.61 356.001 376.941 349.601C376.941 349.601 405.741 311.201 405.741 256.801C405.741 202.401 376.941 164.001 376.941 164.001C371.61 157.601 372.678 148.001 380.141 142.67C387.61 137.332 397.21 139.47 402.541 145.87C404.678 148.001 437.741 191.732 437.741 256.801C437.741 321.87 404.678 365.601 402.541 367.732ZM324.678 326.132C318.278 319.732 319.341 308.001 325.741 301.601C325.741 301.601 341.741 284.532 341.741 256.801C341.741 229.07 325.741 213.07 325.741 212.001C319.341 205.601 319.341 194.932 324.678 187.47C331.078 180.001 340.678 180.001 347.078 186.401C348.141 187.47 373.741 214.132 373.741 256.801C373.741 299.47 348.141 326.132 347.078 327.201C340.678 333.601 331.078 332.532 324.678 326.132ZM188.141 326.132C181.741 332.532 172.141 333.601 165.741 327.201C164.678 325.07 139.078 299.47 139.078 256.801C139.078 214.132 164.678 188.532 165.741 186.401C172.141 180.001 182.81 180.001 188.141 187.47C194.541 193.87 193.478 205.601 187.078 212.001C187.078 213.07 171.078 229.07 171.078 256.801C171.078 284.532 187.078 301.601 187.078 301.601C193.478 308.001 194.541 318.67 188.141 326.132ZM132.678 370.932C125.21 376.27 115.61 374.132 110.278 367.732C108.141 365.601 75.0785 321.87 75.0785 256.801C75.0785 191.732 108.141 148.001 110.278 145.87C115.61 139.47 125.21 137.332 132.678 142.67C140.141 148.001 141.21 157.601 135.878 164.001C135.878 164.001 107.078 202.401 107.078 256.801C107.078 311.201 135.878 349.601 135.878 349.601C141.21 356.001 139.078 365.601 132.678 370.932Z" fill="#FC7E0F"/>
</g>
<defs>
<clipPath id="clip0_2_14689">
<rect width="512" height="512" fill="white" transform="translate(0.409668 0.800781)"/>
</clipPath>
</defs>
</svg>
