<svg width="1025" height="192" viewBox="0 0 1025 192" fill="none" xmlns="http://www.w3.org/2000/svg">
<g clip-path="url(#clip0_743_482)">
<path d="M215.396 16.1318C198.885 8.58023 181.35 3.07647 163.046 0.00463867C160.742 3.97247 158.182 9.34814 156.39 13.572C136.923 10.7561 117.596 10.7561 98.3965 13.572C96.6045 9.34814 93.9165 3.97247 91.7405 0.00463867C73.3097 3.07647 55.7745 8.58023 39.3786 16.1318C6.22821 65.0253 -2.73139 112.767 1.7484 159.868C23.7633 175.868 45.0105 185.596 65.8863 191.996C71.006 185.084 75.6139 177.66 79.5817 169.852C72.03 167.036 64.8624 163.58 57.9507 159.484C59.7426 158.205 61.5346 156.797 63.1985 155.389C104.924 174.46 150.119 174.46 191.333 155.389C193.125 156.797 194.789 158.205 196.581 159.484C189.669 163.58 182.502 167.036 174.95 169.852C178.918 177.66 183.526 185.084 188.645 191.996C209.508 185.596 230.883 175.868 252.783 159.868C258.286 105.344 244.066 57.9862 215.396 16.1318ZM85.3413 130.814C72.7978 130.814 62.5583 119.423 62.5583 105.472C62.5583 91.5205 72.5418 80.1285 85.3413 80.1285C98.0125 80.1285 108.38 91.5205 108.124 105.472C108.124 119.423 98.0125 130.814 85.3413 130.814ZM169.446 130.814C156.902 130.814 146.65 119.423 146.65 105.472C146.65 91.5205 156.646 80.1285 169.446 80.1285C182.118 80.1285 192.485 91.5205 192.229 105.472C192.229 119.423 182.246 130.814 169.446 130.814Z" fill="#5865F2"/>
<path d="M341.482 40.1897H395.892C408.948 40.1897 420.083 42.2373 429.171 46.3333C438.258 50.4293 445.042 56.0613 449.522 63.3565C454.001 70.6525 456.305 78.9716 456.305 88.4436C456.305 97.6588 454.002 105.979 449.266 113.53C444.53 120.954 437.363 126.969 427.763 131.321C418.164 135.673 406.26 137.849 392.052 137.849H341.482V40.1897ZM391.412 113.018C400.244 113.018 407.028 110.842 411.764 106.363C416.5 102.011 418.932 95.8668 418.932 88.3156C418.932 81.2756 416.756 75.6436 412.532 71.4205C408.308 67.1965 401.908 65.0205 393.332 65.0205H376.309V113.018H391.412Z" fill="#5865F2"/>
<path d="M541.05 137.728C533.498 135.808 526.715 132.992 520.699 129.152V105.984C525.307 109.568 531.322 112.384 539.002 114.688C546.681 116.992 554.105 118.144 561.273 118.144C564.6 118.144 567.16 117.76 568.824 116.864C570.488 115.968 571.384 114.944 571.384 113.664C571.384 112.256 570.873 111.104 569.977 110.208C569.081 109.312 567.288 108.544 564.6 107.776L547.833 104.065C538.234 101.889 531.45 98.6893 527.354 94.8493C523.259 91.0093 521.339 85.7621 521.339 79.3621C521.339 73.9861 523.131 69.2509 526.586 65.2829C530.17 61.3149 535.162 58.2429 541.69 56.0669C548.217 53.8918 555.769 52.7397 564.6 52.7397C572.408 52.7397 579.576 53.5077 586.104 55.2997C592.631 56.9629 598.007 59.1389 602.231 61.6989V83.5861C597.879 81.0261 592.76 78.9781 587.128 77.4421C581.368 75.9061 575.48 75.1381 569.464 75.1381C560.76 75.1381 556.409 76.6741 556.409 79.6181C556.409 81.0261 557.049 82.0501 558.457 82.8181C559.865 83.5861 562.296 84.2261 565.88 84.9941L579.832 87.5541C588.92 89.0893 595.703 91.9053 600.183 95.8733C604.663 99.8413 606.839 105.6 606.839 113.408C606.839 121.856 603.127 128.64 595.703 133.504C588.28 138.496 577.784 140.927 564.216 140.927C556.281 140.671 548.601 139.647 541.05 137.728Z" fill="#5865F2"/>
<path d="M641.41 134.787C633.474 130.819 627.33 125.572 623.362 118.916C619.266 112.26 617.346 104.709 617.346 96.2608C617.346 87.9416 619.394 80.3896 623.618 73.8624C627.842 67.2064 633.986 62.0864 642.05 58.2472C650.113 54.5352 659.841 52.6152 671.104 52.6152C685.055 52.6152 696.575 55.5592 705.79 61.4464V86.9176C702.59 84.7416 698.751 82.8216 694.399 81.5416C690.047 80.1336 685.439 79.4936 680.576 79.4936C671.872 79.4936 665.217 81.0296 660.225 84.2296C655.361 87.4296 652.929 91.5256 652.929 96.6448C652.929 101.637 655.233 105.733 660.097 108.933C664.832 112.132 671.744 113.796 680.704 113.796C685.311 113.796 689.919 113.156 694.399 111.748C698.879 110.34 702.846 108.805 706.046 106.757V131.459C695.806 137.603 683.903 140.675 670.464 140.675C659.073 140.675 649.473 138.627 641.41 134.787Z" fill="#5865F2"/>
<path d="M742.282 134.787C734.218 130.819 728.075 125.572 723.851 118.788C719.627 112.004 717.451 104.453 717.451 96.0048C717.451 87.6856 719.627 80.1336 723.851 73.6064C728.075 67.0784 734.218 61.9584 742.154 58.2472C750.089 54.5352 759.688 52.6152 770.709 52.6152C781.717 52.6152 791.316 54.4072 799.252 58.2472C807.187 61.9584 813.331 67.0784 817.555 73.6064C821.778 80.1336 823.826 87.5576 823.826 96.0048C823.826 104.325 821.778 112.004 817.555 118.788C813.331 125.572 807.315 130.947 799.252 134.787C791.188 138.627 781.717 140.675 770.709 140.675C759.816 140.675 750.345 138.627 742.282 134.787ZM784.66 110.084C787.988 106.757 789.78 102.149 789.78 96.6448C789.78 91.0136 788.116 86.6616 784.66 83.3336C781.205 80.0056 776.597 78.3416 770.837 78.3416C764.821 78.3416 760.2 80.0056 756.745 83.3336C753.417 86.6616 751.625 91.0136 751.625 96.6448C751.625 102.277 753.289 106.757 756.745 110.084C760.2 113.54 764.821 115.204 770.837 115.204C776.597 115.076 781.333 113.412 784.66 110.084Z" fill="#5865F2"/>
<path d="M909.457 57.7293V87.8084C905.873 85.5044 901.265 84.3524 895.633 84.3524C888.209 84.3524 882.445 86.6564 878.481 91.1356C874.509 95.6156 872.461 102.656 872.461 112.127V137.726H838.289V56.3213H871.825V82.3044C873.617 72.8324 876.689 65.7933 880.785 61.3133C884.881 56.8333 890.257 54.4021 896.781 54.4021C901.645 54.4021 905.873 55.5541 909.457 57.7293Z" fill="#5865F2"/>
<path d="M1024.67 37.3777V137.852H990.502V119.549C987.554 126.461 983.202 131.709 977.314 135.292C971.418 138.876 964.117 140.668 955.413 140.668C947.733 140.668 940.954 138.748 935.19 135.036C929.434 131.325 924.958 126.077 921.886 119.549C918.814 112.894 917.278 105.47 917.278 97.279C917.146 88.703 918.814 81.0238 922.266 74.2398C925.594 67.4566 930.458 62.2086 936.602 58.3686C942.746 54.5286 949.781 52.6086 957.717 52.6086C973.978 52.6086 984.87 59.6486 990.502 73.8558V37.3777H1024.67ZM985.382 109.438C988.834 106.11 990.626 101.63 990.626 96.255C990.626 91.007 988.966 86.783 985.506 83.5838C982.054 80.3838 977.446 78.7198 971.674 78.7198C965.91 78.7198 961.301 80.3838 957.85 83.7118C954.389 87.039 952.73 91.263 952.73 96.639C952.73 102.014 954.389 106.238 957.85 109.566C961.301 112.894 965.786 114.558 971.542 114.558C977.314 114.558 981.922 112.894 985.382 109.438Z" fill="#5865F2"/>
<path d="M487.805 61.1895C497.621 61.1895 505.596 54.0256 505.596 45.1903C505.596 36.3537 497.621 29.1912 487.805 29.1912C477.974 29.1912 470.013 36.3537 470.013 45.1903C470.013 54.0256 477.974 61.1895 487.805 61.1895Z" fill="#5865F2"/>
<path d="M505.596 72.1885C494.716 76.9237 481.149 77.0517 470.013 72.1885V137.849H505.596V72.1885Z" fill="#5865F2"/>
</g>
<defs>
<clipPath id="clip0_743_482">
<rect width="1024" height="191.991" fill="white" transform="translate(0.673828 0.00463867)"/>
</clipPath>
</defs>
</svg>
