<svg width="513" height="513" viewBox="0 0 513 513" fill="none" xmlns="http://www.w3.org/2000/svg">
<g clip-path="url(#clip0_876_1661)">
<path d="M256.624 512.051C398.009 512.051 512.624 397.436 512.624 256.051C512.624 114.666 398.009 0.0507812 256.624 0.0507812C115.239 0.0507812 0.624023 114.666 0.624023 256.051C0.624023 397.436 115.239 512.051 256.624 512.051Z" fill="white"/>
<path fill-rule="evenodd" clip-rule="evenodd" d="M256.624 17.0547C178.132 17.0547 108.443 54.8836 64.9031 113.323C109.087 126.291 240.436 165.966 258.256 173.952C274.057 181.037 283.418 196.452 292.435 203.58C299.434 209.162 306.175 214.186 312.745 218.909C329.018 230.674 365.602 252.831 350.23 296.542C346.194 308.007 337.091 317.84 326.399 324.71C327.043 320.974 328.804 313.288 324.038 308.178C318.413 302.124 294.066 295.683 260.574 299.29C226.567 302.94 180.236 315.65 131.372 342.272C141.591 328.102 160.098 307.878 176.672 301.222C173.838 299.548 65.6331 340.855 38.1523 352.706C75.2942 436.565 159.153 495.09 256.753 495.09C388.746 495.09 495.749 388.087 495.749 256.094C495.749 124.101 388.617 17.0547 256.624 17.0547ZM256.624 443.306C204.969 443.306 158.209 422.352 124.33 388.474C157.865 371.556 194.578 356.227 228.542 353.135C252.974 350.902 273.112 353.393 277.363 360.521C281.614 367.648 273.799 384.48 264.525 395.816C264.525 395.816 359.548 391.565 393.255 317.496C412.706 278.164 402.143 231.104 369.939 201.133C358.517 190.484 337.434 174.897 330.865 170.646C318.799 162.831 304.586 140.16 279.467 129.082C258.857 120.021 207.545 103.92 167.054 91.7249C193.633 77.2117 224.119 68.8816 256.581 68.8816C359.977 68.8816 443.793 152.698 443.793 256.094C443.793 359.49 359.977 443.306 256.581 443.306H256.624Z" fill="#C8102E"/>
<path fill-rule="evenodd" clip-rule="evenodd" d="M252.631 194.863C252.373 219.639 232.965 229.085 214.974 226.595C196.725 224.019 179.936 209.162 186.033 185.374C185.131 182.797 178.69 181.552 170.79 183.484C194.277 159.568 222.187 196.108 252.631 194.906" fill="#C8102E"/>
</g>
<defs>
<clipPath id="clip0_876_1661">
<rect width="512" height="512" fill="white" transform="translate(0.624023 0.0507812)"/>
</clipPath>
</defs>
</svg>
