<svg width="1025" height="234" viewBox="0 0 1025 234" fill="none" xmlns="http://www.w3.org/2000/svg">
<g clip-path="url(#clip0_823_138)">
<path d="M518.721 9.69762C515.165 9.60811 511.718 10.9321 509.137 13.3794C506.555 15.8267 505.049 19.1977 504.948 22.7536C505.186 26.2408 506.739 29.5076 509.294 31.8935C511.848 34.2795 515.213 35.6066 518.708 35.6066C522.204 35.6066 525.568 34.2795 528.123 31.8935C530.677 29.5076 532.23 26.2408 532.468 22.7536C532.368 19.1977 530.862 15.8267 528.28 13.3794C525.698 10.9321 522.252 9.60811 518.695 9.69762" fill="#323232"/>
<path d="M107.701 0.654925C86.1508 0.581188 65.0775 6.99781 47.2253 19.0693C29.373 31.1407 15.569 48.3077 7.61063 68.3349C-0.347752 88.362 -2.09173 110.321 2.60578 131.354C7.30329 152.386 18.2246 171.517 33.9477 186.254V233.448L63.8996 206.216C78.5282 212.778 94.4394 215.984 110.468 215.599C126.496 215.215 142.235 211.25 156.532 203.994C170.829 196.739 183.323 186.377 193.096 173.668C202.87 160.959 209.677 146.224 213.018 130.543C216.359 114.863 216.151 98.633 212.407 83.0434C208.663 67.4538 201.479 52.8992 191.382 40.4457C181.284 27.9922 168.528 17.9554 154.049 11.0704C139.57 4.1854 123.734 0.626677 107.701 0.654925ZM161.685 113.794C161.685 144.975 136.175 161.282 110.984 161.282L110.159 161.243L108.751 161.282C83.4964 161.282 57.9733 144.975 57.9733 113.794V74.2548C57.9261 72.7934 58.1924 71.3389 58.7543 69.9891C59.3162 68.6393 60.1606 67.4255 61.2308 66.4292C62.301 65.433 63.5721 64.6776 64.9587 64.2136C66.3452 63.7497 67.815 63.588 69.2692 63.7396C70.7306 63.6072 72.2034 63.7805 73.5941 64.2487C74.9847 64.7168 76.2626 65.4695 77.3463 66.4587C78.43 67.4479 79.2958 68.652 79.8886 69.9942C80.4814 71.3365 80.7881 72.7875 80.7892 74.2548V113.8C80.8298 117.422 81.5935 121 83.0355 124.323C84.4775 127.646 86.5687 130.647 89.1864 133.151C91.8041 135.655 94.8956 137.611 98.2794 138.904C101.663 140.197 105.271 140.801 108.892 140.68H110.812C114.429 140.797 118.034 140.191 121.414 138.896C124.794 137.601 127.882 135.645 130.495 133.141C133.109 130.638 135.197 127.637 136.636 124.316C138.075 120.995 138.836 117.42 138.875 113.8V74.2548C138.876 72.7872 139.182 71.3357 139.774 69.993C140.367 68.6503 141.232 67.4458 142.316 66.4564C143.4 65.467 144.679 64.7144 146.07 64.2466C147.461 63.7789 148.934 63.6062 150.395 63.7396C151.849 63.589 153.318 63.7514 154.704 64.2158C156.09 64.6801 157.36 65.4358 158.43 66.4319C159.499 67.428 160.343 68.6415 160.904 69.9908C161.466 71.3401 161.732 72.794 161.685 74.2548V113.8V113.794Z" fill="#007B81"/>
<path d="M296.232 50.1209L294.491 50.1657L293.563 50.1209C264.501 50.1209 235.074 68.9368 235.074 104.911V150.537C235.014 152.224 235.318 153.905 235.963 155.466C236.609 157.027 237.582 158.43 238.816 159.583C240.051 160.736 241.518 161.61 243.119 162.147C244.72 162.684 246.418 162.872 248.098 162.697C249.786 162.852 251.487 162.652 253.094 162.111C254.7 161.57 256.176 160.699 257.425 159.554C258.675 158.409 259.672 157.015 260.352 155.462C261.031 153.91 261.378 152.232 261.371 150.537V104.911C261.419 100.739 262.3 96.6181 263.96 92.7903C265.621 88.9625 268.029 85.5046 271.043 82.6192C274.057 79.7338 277.617 77.479 281.514 75.9867C285.41 74.4945 289.566 73.7948 293.736 73.9288C294.491 73.9678 295.247 73.9678 296.002 73.9288C300.177 73.7861 304.339 74.4793 308.243 75.9677C312.148 77.456 315.715 79.7095 318.736 82.5957C321.757 85.482 324.171 88.9428 325.835 92.7749C327.5 96.6071 328.382 100.733 328.43 104.911V150.537C328.423 152.232 328.771 153.91 329.45 155.462C330.13 157.015 331.126 158.409 332.376 159.554C333.626 160.699 335.101 161.57 336.708 162.111C338.314 162.652 340.016 162.852 341.704 162.697C343.384 162.872 345.081 162.684 346.683 162.147C348.284 161.61 349.751 160.736 350.985 159.583C352.22 158.43 353.193 157.027 353.838 155.466C354.484 153.905 354.787 152.224 354.728 150.537V104.911C354.728 68.9368 325.282 50.1209 296.232 50.1209ZM506.766 60.252V153.986C507.136 156.904 508.558 159.587 510.764 161.532C512.971 163.476 515.812 164.549 518.753 164.549C521.694 164.549 524.535 163.476 526.742 161.532C528.948 159.587 530.37 156.904 530.74 153.986V60.0536C530.74 46.2041 506.753 46.4601 506.766 60.252ZM639.758 60.9176C631.227 54.6654 621.13 50.899 610.589 50.0364C600.047 49.1737 589.473 51.2487 580.039 56.0309C570.605 60.8131 562.681 68.1156 557.145 77.128C551.609 86.1404 548.679 96.5104 548.679 107.087C548.679 117.664 551.609 128.034 557.145 137.046C562.681 146.059 570.605 153.361 580.039 158.143C589.473 162.926 600.047 165.001 610.589 164.138C621.13 163.275 631.227 159.509 639.758 153.257C640.132 156.093 641.581 158.678 643.806 160.477C646.03 162.276 648.861 163.153 651.713 162.927C653.199 163.055 654.695 162.879 656.111 162.41C657.527 161.94 658.833 161.188 659.949 160.199C661.065 159.209 661.968 158.003 662.603 156.653C663.238 155.303 663.591 153.839 663.642 152.348V61.5128C663.642 47.9449 640.679 47.9577 639.738 60.9176M605.998 141.001C599.408 141.021 592.954 139.122 587.426 135.535C581.898 131.948 577.535 126.828 574.869 120.801C572.204 114.774 571.352 108.101 572.417 101.598C573.482 95.0945 576.419 89.0423 580.868 84.1809C585.317 79.3194 591.086 75.8592 597.469 74.223C603.853 72.5869 610.575 72.8457 616.814 74.9679C623.053 77.09 628.539 80.9836 632.601 86.1727C636.663 91.3619 639.125 97.622 639.687 104.188V109.948C638.963 118.393 635.103 126.261 628.868 132.002C622.632 137.743 614.474 140.942 605.998 140.969M372.04 19.2729L372.181 106.396C371.757 116.925 373.892 127.4 378.401 136.924C382.241 144.026 387.872 150.001 394.734 154.255C405.049 161.206 417.268 164.784 429.704 164.495C438.746 164.505 447.662 162.373 455.721 158.273C463.781 154.173 470.755 148.223 476.072 140.909C481.388 133.595 484.897 125.125 486.31 116.194C487.724 107.263 487.001 98.1242 484.202 89.526C481.403 80.9278 476.607 73.115 470.207 66.7274C463.807 60.3397 455.985 55.559 447.381 52.7767C438.777 49.9944 429.637 49.2897 420.709 50.7203C411.78 52.1509 403.318 55.6761 396.014 61.0072V19.4713C396.014 5.67937 372.04 5.42337 372.04 19.2729ZM396.014 110.153V104.252C396.775 95.5449 400.868 87.4678 407.439 81.7045C414.01 75.9413 422.551 72.9369 431.283 73.3178C440.015 73.6987 448.263 77.4355 454.307 83.749C460.351 90.0625 463.725 98.4653 463.725 107.206C463.725 115.946 460.351 124.349 454.307 130.662C448.263 136.976 440.015 140.712 431.283 141.093C422.551 141.474 414.01 138.47 407.439 132.707C400.868 126.943 396.775 118.866 396.014 110.159M1000.05 19.4713V60.9688C992.747 55.6296 984.281 52.0972 975.348 50.6612C966.416 49.2252 957.269 49.9264 948.66 52.7074C940.05 55.4884 932.222 60.27 925.817 66.6603C919.412 73.0506 914.613 80.8677 911.812 89.4709C909.011 98.0741 908.289 107.219 909.705 116.155C911.12 125.091 914.633 133.565 919.956 140.881C925.278 148.197 932.259 154.149 940.325 158.247C948.391 162.344 957.314 164.473 966.362 164.457C978.797 164.747 991.016 161.169 1001.33 154.217C1008.2 149.972 1013.83 144.003 1017.67 136.905C1022.18 127.379 1024.32 116.902 1023.89 106.37L1024.03 19.2729C1024.03 5.42337 1000.03 5.67937 1000.04 19.4713M966.362 141.122C959.774 141.142 953.324 139.243 947.798 135.658C942.272 132.073 937.909 126.956 935.243 120.932C932.576 114.909 931.722 108.239 932.783 101.738C933.844 95.2365 936.776 89.1849 941.219 84.3219C945.662 79.459 951.426 75.9951 957.805 74.3531C964.185 72.7112 970.904 72.9624 977.143 75.0759C983.382 77.1894 988.871 81.0739 992.939 86.255C997.007 91.4361 999.478 97.6896 1000.05 104.252V110.159C999.322 118.597 995.458 126.456 989.223 132.187C982.987 137.918 974.831 141.106 966.362 141.122ZM897.082 107.036C896.915 91.9162 890.789 77.4729 880.036 66.8429C869.282 56.213 854.769 50.2547 839.649 50.2623C824.528 50.2699 810.021 56.2427 799.278 66.8835C788.535 77.5242 782.424 91.9737 782.272 107.094C782.272 142.293 809.856 164.386 841.357 164.386C857.16 165.08 872.708 160.223 885.306 150.658C898.285 141.129 886.496 124.239 872.659 133.033C863.909 139.854 852.905 143.12 841.85 142.178C823.93 142.178 810.17 131.74 807.386 116.623H885.184C892.992 116.623 897.082 112.54 897.082 107.855V107.036ZM807.604 96.8536C809.754 90.0097 814.037 84.033 819.827 79.797C825.617 75.5609 832.609 73.2875 839.783 73.3089C846.957 73.3304 853.936 75.6456 859.7 79.9162C865.464 84.1868 869.711 90.189 871.821 97.0456L807.604 96.8536ZM707.866 81.8392C708.225 100.194 770.458 91.6056 770.458 130.818C770.458 153.161 751.149 164.457 728.167 164.572C720.588 165.196 712.96 164.311 705.725 161.968C698.49 159.624 691.791 155.87 686.017 150.921C673.549 141.18 688.577 125.737 699.041 132.559C706.906 139.122 716.622 143.07 726.836 143.855C738.196 144.117 745.396 142.031 746.279 133.877C748.295 115.318 684.135 122.997 684.135 82.5816C684.135 61.1864 702.644 49.7817 725.095 49.7817C732.033 49.4729 738.961 50.5752 745.46 53.0218C751.959 55.4683 757.894 59.2083 762.906 64.0152C769.946 70.4664 760.986 86.0888 747.866 77.4104C741.517 72.7021 733.799 70.2045 725.895 70.3C716.871 70.3 707.713 72.7768 707.892 81.852" fill="#323232"/>
</g>
<defs>
<clipPath id="clip0_823_138">
<rect width="1024" height="232.794" fill="white" transform="translate(0.0253906 0.654297)"/>
</clipPath>
</defs>
</svg>
