<svg width="1025" height="178" viewBox="0 0 1025 178" fill="none" xmlns="http://www.w3.org/2000/svg">
<g clip-path="url(#clip0_861_167)">
<path d="M87.3568 71.4929C87.4531 71.4929 87.5751 71.5777 87.6394 71.6364C113.743 91.808 158.443 141.711 144.813 155.807C129.461 169.46 109.363 177.734 87.3568 177.734C65.3507 177.734 45.2524 169.46 29.9008 155.807C16.2707 141.711 60.9636 91.808 87.0677 71.6364C87.1384 71.5777 87.2604 71.4929 87.3568 71.4929ZM132.827 13.3472C119.46 5.27466 104.969 0.367188 87.3568 0.367188C69.7442 0.367188 55.2534 5.27466 41.8866 13.3472C41.726 13.4385 41.6682 13.6213 41.7389 13.7844C41.8095 13.9476 41.9894 13.9802 42.1628 13.9345C59.0624 10.2278 84.7361 25.0546 87.1705 26.5425C87.2283 26.5752 87.2861 26.6143 87.3568 26.6143C87.4274 26.6143 87.4852 26.5752 87.543 26.5425C89.9774 25.0546 115.645 10.2278 132.551 13.9345C132.724 13.9802 132.904 13.9476 132.975 13.7844C133.045 13.6213 132.981 13.4385 132.827 13.3472ZM26.2589 25.8116C26.1111 25.8899 25.9827 26.0009 25.867 26.1118C9.94381 42.1786 0.0712891 64.4384 0.0712891 89.0475C0.0712891 109.252 6.71935 127.864 17.9151 142.775C18.0243 142.919 18.2298 143.01 18.384 142.919C18.5317 142.827 18.5445 142.632 18.4803 142.462C11.8322 121.56 45.8498 70.8925 63.4237 49.6442C63.4816 49.5724 63.5394 49.4876 63.5394 49.3897C63.5394 49.2657 63.4751 49.1678 63.3916 49.096C36.7673 22.1898 27.7234 25.0481 26.2589 25.8116ZM111.322 49.096C111.238 49.1678 111.174 49.2657 111.174 49.3897C111.174 49.4876 111.232 49.5724 111.29 49.6442C128.864 70.8925 162.881 121.56 156.227 142.462C156.169 142.632 156.182 142.827 156.33 142.919C156.484 143.01 156.689 142.919 156.792 142.775C167.988 127.864 174.642 109.252 174.642 89.0475C174.642 64.4384 164.77 42.1786 148.846 26.1118C148.724 26.0009 148.602 25.8899 148.455 25.8116C146.99 25.0481 137.946 22.1898 111.322 49.096ZM384.515 37.0753H366.382L325.415 143.676H342.058L352.2 116.058H398.704L408.84 143.676H425.483L384.515 37.0753ZM357.313 101.864L375.452 53.0572L393.591 101.864H357.313ZM317.026 87.5335V107.118V143.676H301.951V129.723C298.071 135.101 293.28 139.199 287.704 141.907C282.026 144.668 275.378 146.064 267.946 146.064C260.418 146.064 253.565 144.766 247.572 142.207C241.579 139.649 236.286 135.753 231.828 130.637C227.287 125.573 223.825 119.615 221.551 112.932C219.277 106.256 218.128 98.6667 218.128 90.3788C218.128 81.9865 219.29 74.3382 221.59 67.6361C223.889 60.9275 227.383 54.9824 231.983 49.964C236.53 44.8933 241.939 41.0431 248.053 38.5045C254.162 35.9725 261.157 34.6869 268.826 34.6869C281.634 34.6869 292.4 38.1129 300.808 44.8738C309.126 51.7325 314.187 60.9601 315.851 72.289L315.876 72.4718H299.414L299.388 72.3478C297.93 65.2541 294.416 59.557 288.937 55.4196C283.458 51.2822 276.74 49.1809 268.974 49.1809C258.588 49.1809 250.225 52.9267 244.116 60.3206C237.898 67.623 234.745 77.7382 234.745 90.3788C234.745 103.019 237.898 113.128 244.11 120.431C250.417 127.824 258.883 131.57 269.269 131.57C278.294 131.57 286.021 128.673 292.233 122.956C298.405 117.37 301.694 110.133 302.022 101.434H271.171V87.5335H317.026ZM573.648 51.7194V82.6065H625.766V96.2064H573.648V129.032H632.568V143.676H557.615V37.0753H632.568V51.7194H573.648ZM541.589 37.0753V143.676H526.148V59.0872C524.163 65.0257 521.497 72.3804 518.215 81.0272L494.52 143.676H481.089L481.05 143.578L457.098 81.0272C454.246 73.3071 451.638 66.0503 449.313 59.3873V143.676H433.872V37.0753H455.878L477.37 93.7527C481.68 105.232 485.238 115.177 487.949 123.328C491.128 113.644 494.738 103.196 498.676 92.2648L519.436 37.0753H541.589ZM743.812 46.1528C737.543 40.1294 728.609 37.0753 717.259 37.0753H672.585V143.676H688.617V104.416H717.259C728.609 104.416 737.543 101.362 743.812 95.345C750.088 89.3216 753.267 81.0664 753.267 70.8207C753.267 60.4772 750.088 52.1762 743.812 46.1528ZM688.617 51.4192H716.97C723.457 51.4192 728.467 53.116 731.846 56.4507C735.231 59.792 736.946 64.6211 736.946 70.8207C736.946 77.0138 735.231 81.8234 731.846 85.1124C728.467 88.4015 723.457 90.0721 716.97 90.0721H688.617V51.4192ZM930.742 114.113C930.742 123.968 927.087 131.844 919.88 137.522C912.686 143.193 902.595 146.064 889.883 146.064C876.099 146.064 865.218 142.84 857.536 136.478C849.847 130.108 845.897 120.672 845.801 108.442V108.286H861.827V108.436C861.974 116.313 864.428 122.303 869.117 126.232C873.819 130.174 880.904 132.171 890.179 132.171C897.848 132.171 903.822 130.65 907.945 127.642C912.043 124.653 914.125 120.254 914.125 114.557C914.125 109.956 912.416 106.361 909.044 103.861C905.646 101.349 899.441 99.0713 890.59 97.1005L881.623 95.1558C870.877 92.9696 862.642 89.3477 857.163 84.375C851.671 79.3892 848.884 72.4196 848.884 63.6553C848.884 54.8845 852.269 47.7908 858.936 42.5571C865.591 37.3364 874.718 34.6869 886.068 34.6869C899.756 34.6869 910.194 37.7149 917.092 43.6795C924.004 49.6572 927.607 57.9843 927.8 68.4322L927.806 68.5889H911.928L911.921 68.4453C911.433 61.6518 909.204 56.5943 905.293 53.4031C901.368 50.2054 894.951 48.587 886.216 48.587C879.42 48.587 874.159 49.8791 870.581 52.4373C867.017 54.9824 865.205 58.6565 865.205 63.3551C865.205 68.1581 866.817 71.8322 869.997 74.2794C873.196 76.942 879.208 79.2391 887.86 81.1186L896.968 83.0568C908.89 85.641 917.593 89.4195 922.828 94.2943C928.076 99.1757 930.742 105.845 930.742 114.113ZM1024.07 114.113C1024.07 123.968 1020.42 131.844 1013.21 137.522C1006.02 143.193 995.925 146.064 983.219 146.064C969.435 146.064 958.548 142.84 950.866 136.478C943.177 130.108 939.227 120.672 939.13 108.442V108.286H955.156V108.436C955.304 116.313 957.758 122.303 962.453 126.232C967.148 130.174 974.233 132.171 983.508 132.171C991.178 132.171 997.158 130.65 1001.28 127.642C1005.37 124.653 1007.45 120.254 1007.45 114.557C1007.45 109.956 1005.75 106.361 1002.37 103.861C998.982 101.349 992.771 99.0713 983.92 97.1005L974.959 95.1558C964.207 92.9696 955.972 89.3477 950.493 84.375C945.001 79.3892 942.213 72.4196 942.213 63.6553C942.213 54.8845 945.599 47.7908 952.266 42.5571C958.927 37.3364 968.054 34.6869 979.398 34.6869C993.086 34.6869 1003.52 37.7149 1010.43 43.6795C1017.33 49.6572 1020.94 57.9843 1021.13 68.4322L1021.14 68.5889H1005.26L1005.25 68.4453C1004.76 61.6518 1002.53 56.5943 998.622 53.4031C994.698 50.2054 988.281 48.587 979.545 48.587C972.75 48.587 967.489 49.8791 963.911 52.4373C960.346 54.9824 958.541 58.6565 958.541 63.3551C958.541 68.1581 960.147 71.8322 963.327 74.2794C966.532 76.942 972.538 79.2391 981.19 81.1186L990.298 83.0568C1002.23 85.641 1010.92 89.4195 1016.16 94.2943C1021.41 99.1757 1024.07 105.845 1024.07 114.113ZM801.198 37.0753H783.065L742.097 143.676H758.74L768.876 116.058H815.387L825.522 143.676H842.165L801.198 37.0753ZM773.989 101.864L792.128 53.0572L810.274 101.864H773.989Z" fill="#107B10"/>
</g>
<defs>
<clipPath id="clip0_861_167">
<rect width="1024" height="177.367" fill="white" transform="translate(0.0712891 0.367188)"/>
</clipPath>
</defs>
</svg>
