<svg width="1025" height="288" viewBox="0 0 1025 288" fill="none" xmlns="http://www.w3.org/2000/svg">
<g clip-path="url(#clip0_746_82)">
<path fill-rule="evenodd" clip-rule="evenodd" d="M1007.72 155.839C1009.88 153.321 1013.71 153.436 1015.67 156.122H1015.66L1023.14 166.35C1024.56 168.315 1024.55 171.026 1023.07 172.94C1010.08 189.784 987.328 205.997 959.875 207.566C938.205 208.798 920.334 200.589 910.606 185.068C908.68 181.998 904.433 181.818 902.272 184.722C890.73 200.216 876.765 212.332 862.214 213.166C836.297 214.644 828.978 197.262 835.386 158.936C836.029 155.12 832.684 151.895 829.081 152.846C823.707 154.272 818.002 154.901 812.214 154.401C809.805 154.195 807.547 155.66 806.821 158.049C797.229 189.552 774.404 218.858 744.859 220.555C725.998 221.634 697.823 210.828 700.642 165.681C700.876 162.006 697.579 159.116 694.186 160.143C688.271 161.942 681.902 162.79 675.417 162.237C673.013 162.032 670.765 163.496 670.039 165.887C660.447 197.389 637.622 226.696 608.077 228.391C589.216 229.471 561.041 218.666 563.859 173.519C564.094 169.843 560.797 166.952 557.403 167.981C551.489 169.78 545.12 170.641 538.635 170.074C536.231 169.87 533.983 171.334 533.256 173.723C523.66 205.227 500.839 234.533 471.296 236.229C457.877 237 439.73 231.745 431.397 212.395C429.791 208.658 424.978 208.092 422.595 211.343C410.929 227.262 396.719 239.827 381.881 240.675C366.671 241.548 358.352 235.446 354.734 224.563C353.451 220.722 348.648 219.809 346.056 222.854C335.674 235.06 323.848 244.002 311.885 244.683C293.442 245.75 282.824 232.079 281.948 215.518C280.936 196.195 289.294 173.569 298.626 148.876C299.923 145.445 297.577 141.732 294.034 141.577C288.652 141.347 282.504 140.781 276.726 139.702C274.121 139.201 271.591 140.82 270.85 143.467C259.814 182.871 242.913 221.492 228.654 244.323C227.062 246.88 223.767 247.561 221.371 245.8L210.483 237.784C208.249 236.126 207.644 232.94 209.137 230.538C229.742 197.531 248.037 145.856 254.345 107.634C254.74 105.193 256.727 103.381 259.11 103.24L273.591 102.405C276.911 102.212 279.529 105.308 278.924 108.713L278.862 109.073C278.319 112.105 280.344 114.957 283.269 115.356C296.256 117.142 315.662 117.359 328.834 116.846C332.537 116.704 335.155 120.533 333.809 124.118C323.242 152.229 309.082 191.184 309.897 206.602C310.267 213.565 313.342 217.368 318.748 217.06C329.094 216.47 345.006 195.668 357.068 172.504C357.29 172.092 357.449 171.643 357.548 171.18C361.612 153.042 367.644 132.818 373.737 112.384L374.115 111.115C374.745 108.983 376.585 107.492 378.733 107.364L396.077 106.375C399.658 106.169 402.336 109.767 401.25 113.325C400.358 116.26 399.468 119.175 398.587 122.064C383.325 172.088 370.507 214.1 387.769 213.116C399.053 212.472 415.04 193.33 428.792 166.079C429.014 165.629 429.174 165.153 429.273 164.653C429.965 161.093 430.804 157.369 431.829 153.475C439.848 121.449 448.94 89.7235 458.044 57.9594C460.853 48.1563 463.664 38.3494 466.444 28.5289C467.062 26.3576 468.913 24.8287 471.085 24.7001L488.888 23.6852C492.506 23.4796 495.183 27.1156 494.047 30.7002C486.936 53.0042 479.505 76.7601 472.444 99.6295C470.962 104.448 476.122 108.456 480.197 105.681C487.221 100.876 495.344 97.6892 503.209 97.2396C523.246 96.0962 536.884 112.58 538.191 137.415C538.264 138.726 538.342 140.139 538.376 141.577C538.45 144.328 540.512 146.55 543.145 146.781C552.576 147.617 562.216 144.816 569.662 138.173C570.428 137.492 570.945 136.567 571.203 135.565C578.586 106.9 586.734 78.4482 594.887 49.961C597.681 40.2079 600.475 30.4505 603.24 20.6787C603.854 18.5074 605.707 16.9785 607.882 16.8501L625.68 15.8351C629.298 15.6295 631.98 19.2654 630.844 22.85C623.729 45.1541 616.298 68.9099 609.237 91.7793C607.755 96.5975 612.919 100.606 616.99 97.8306C624.017 93.0256 632.141 89.8395 640.001 89.3895C660.038 88.2465 673.676 104.73 674.988 129.566C675.061 130.875 675.134 132.29 675.173 133.728C675.232 136.477 677.309 138.7 679.937 138.932C689.368 139.766 699.008 136.965 706.454 130.323C707.22 129.643 707.737 128.717 708 127.715C715.382 99.0502 723.526 70.599 731.684 42.1123C734.478 32.3586 737.267 22.6008 740.032 12.8287C740.651 10.6573 742.504 9.12845 744.674 8.99996L762.477 7.98498C766.095 7.7794 768.772 11.4154 767.636 15C760.526 37.304 753.095 61.0597 746.034 83.9291C744.552 88.7473 749.711 92.756 753.787 89.9809C760.809 85.1754 768.933 81.9893 776.798 81.5397C796.834 80.3963 810.473 96.8798 811.785 121.715C811.858 123.039 811.931 124.439 811.965 125.878C812.043 128.614 814.091 130.85 816.72 131.081C825.843 131.89 835.176 129.295 842.51 123.116C843.324 122.434 843.89 121.471 844.163 120.417C852.569 88.0149 864.916 45.5653 876.819 4.94001C877.448 2.7944 879.296 1.30403 881.446 1.17556L899.088 0.160568C902.667 -0.0449997 905.344 3.52674 904.272 7.08562C887.888 61.4839 874.532 109.073 867.164 137.146C857.372 175.227 856.992 186.212 868.125 185.57C877.472 185.03 890.062 171.771 901.936 151.727C902.409 150.944 902.653 150.045 902.692 149.133C904.247 109.008 928.848 72.5076 965.414 70.4132C989.908 69.0128 1003.33 87.5141 1004.29 105.719C1006.12 140.473 971.763 162.688 938.469 160.631C934.592 160.387 931.773 164.551 933.48 168.173C938.132 178.117 947.923 183.669 964.639 182.704C980.54 181.806 997.217 168.083 1007.72 155.839ZM457.357 165.591C449.457 197.262 459.049 209.659 471.456 208.952C491.823 207.783 511.528 170.46 510.012 141.654C509.344 129.077 501.985 122.524 493.393 123.013C479.085 123.835 463.679 140.318 457.357 165.591ZM594.15 157.754C586.251 189.424 595.842 201.822 608.252 201.115H608.238C628.606 199.947 648.32 162.623 646.804 133.818C646.15 121.24 638.777 114.687 630.185 115.175C615.879 115.998 600.475 132.482 594.15 157.754ZM730.947 149.916C723.048 181.587 732.639 193.985 745.044 193.279H745.035C765.388 192.109 785.117 154.786 783.6 125.981C782.942 113.402 775.574 106.85 766.982 107.338C752.676 108.16 737.267 124.645 730.947 149.916ZM978.278 108.52C978.156 100.22 973.055 94.2076 964.785 94.6831H964.776C948.528 95.6208 935.811 113.21 931.764 134.55C931.12 137.942 933.602 141.103 936.923 141.025C957.91 140.499 978.946 126.648 978.278 108.52ZM216.462 123.928C214.339 59.6232 172.526 17.1866 110.74 19.3964C84.2107 20.6041 53.854 30.6641 31.016 48.6513C28.868 50.3472 28.3124 53.4563 29.7691 55.8202L39.46 71.5977C41.1141 74.2957 44.6324 74.8481 47.0398 72.844C64.4217 58.4027 88.1488 48.9341 110.974 47.9318C153.318 46.1716 184.427 73.2809 186.242 125.649C188.514 186.626 147.528 256.377 81.6673 260.154C79.3711 260.283 76.9764 260.335 74.5812 260.335C71.2235 260.335 68.7425 257.059 69.5817 253.666C82.2846 202.389 97.1112 147.401 112.234 96.2273C113.283 92.6682 110.616 89.1222 107.049 89.328L87.7904 90.433C85.6302 90.5612 83.7782 92.0645 83.1487 94.2227C68.6186 144.51 54.0763 199.05 40.9907 250.223C40.2376 253.178 37.2379 254.874 34.4479 253.923C27.6211 251.598 21.3869 248.951 16.0785 245.854C13.5355 244.364 10.3135 245.419 9.00489 248.141L0.733736 265.435C-0.488415 267.992 0.412769 271.127 2.82004 272.501C21.572 283.14 50.0398 289.216 78.6553 287.585C172.823 282.188 218.956 195.207 216.462 123.953V123.928ZM401.523 44.9196C390.067 45.5748 379.906 58.4485 380.623 72.0161C381.091 80.958 386.832 86.9323 395.745 86.4316C407.201 85.7762 417.645 72.2213 416.966 59.3092C416.498 50.3672 409.794 44.4442 401.523 44.9196Z" fill="#0D0C22"/>
</g>
<defs>
<clipPath id="clip0_746_82">
<rect width="1024" height="287.696" fill="white" transform="translate(0.19043 0.1521)"/>
</clipPath>
</defs>
</svg>
