<svg width="513" height="513" viewBox="0 0 513 513" fill="none" xmlns="http://www.w3.org/2000/svg">
<g clip-path="url(#clip0_795_5309)">
<path d="M256.13 0.574219C114.748 0.574219 0.130371 115.192 0.130371 256.574C0.130371 397.957 114.748 512.574 256.13 512.574C397.513 512.574 512.13 397.957 512.13 256.574C512.13 115.192 397.513 0.574219 256.13 0.574219Z" fill="#0066B2"/>
<path d="M256.13 13.374C121.818 13.374 12.9302 122.262 12.9302 256.574C12.9302 390.886 121.818 499.774 256.13 499.774C390.442 499.774 499.33 390.886 499.33 256.574C499.33 122.262 390.442 13.374 256.13 13.374Z" fill="white"/>
<path d="M256.13 24.894C128.174 24.894 24.4502 128.618 24.4502 256.574C24.4502 384.53 128.174 488.254 256.13 488.254C384.086 488.254 487.81 384.53 487.81 256.574C487.81 128.618 384.086 24.894 256.13 24.894ZM256.13 401.214C176.247 401.214 111.49 336.463 111.49 256.574C111.49 176.685 176.247 111.934 256.13 111.934C336.014 111.934 400.77 176.691 400.77 256.574C400.77 336.458 336.019 401.214 256.13 401.214Z" fill="#DC052D"/>
<path d="M128.96 295.928C134.804 314.899 144.834 332.314 158.309 346.889V286.848L124.392 237.298C121.5 256.936 123.055 276.972 128.943 295.927M197.42 343.475V274.737L158.594 218.018V165.982C151.437 173.713 145.221 182.264 140.076 191.457L158.32 218.109V286.848L197.147 343.566V375.862C206.592 380.537 216.559 384.078 226.837 386.409L197.42 343.475ZM236.549 262.625L275.375 319.349V388.088L236.549 331.364V262.625L197.722 205.907V137.168L236.549 193.893V262.625ZM275.677 250.519L236.851 193.795V125.061L275.677 181.779V250.519L314.503 307.236V375.975L275.677 319.257V250.519ZM216.774 129.404C197.609 135.306 180.033 145.479 165.369 159.157L197.437 206V274.738L236.264 331.463V388.232C276.428 394.254 317.148 381.652 346.891 353.996L314.823 307.148V238.409L275.997 181.691V124.916C256.171 121.917 235.922 123.452 216.774 129.404ZM353.982 295.036V226.298L315.156 169.579V137.284C305.708 132.609 295.739 129.068 285.46 126.736L314.849 169.677V238.41L353.675 295.134V347.165C360.83 339.434 367.043 330.883 372.186 321.69L353.982 295.036ZM383.325 217.217C377.479 198.25 367.452 180.835 353.982 166.257V226.298L387.893 275.848C390.788 256.211 389.232 236.174 383.342 217.218" fill="#0066B2"/>
<path d="M101.241 304.429L107.818 318.429L97.1284 338.636C95.5184 341.646 94.1246 344.103 94.1246 344.103L94.2668 344.371C94.2668 344.371 97.1113 344.542 100.485 344.832L123.241 346.885L131.398 360.021L82.1952 388.772L74.3388 376.154L94.9327 364.134C99.7341 361.352 103.358 359.389 103.358 359.389L103.216 359.122C103.216 359.122 100.724 358.94 95.5357 358.177L74.572 355.054L74.4297 354.792L83.2361 335.518C85.4263 330.745 86.6495 328.561 86.6495 328.561L86.5073 328.299C86.5073 328.299 82.8835 330.262 77.9398 332.776L56.6124 343.488L50.3262 330.018L101.241 304.429Z" fill="white"/>
<path d="M138.935 366.548L150.313 376.606L127.557 403.708C123.82 408.208 124.008 412.94 129.662 417.389C135.317 421.839 139.959 420.917 143.458 416.252L164.467 387.756L176.92 396.415L155.353 425.622C145.472 439.019 132.666 436.379 121.589 427.658C110.514 418.937 104.91 407.11 115.61 394.361L138.935 366.548ZM161.628 384.991L147.628 394.771L147.389 394.588L153.618 378.66L161.628 384.991Z" fill="white"/>
<path d="M185.66 401.364L200.451 406.769L208.82 435.361C210.634 441.545 211.368 444.816 211.368 444.816L211.801 444.947C211.801 444.947 212.768 440.698 214.184 435.487L220.26 412.731L234.727 416.144L220.009 471.207L204.649 467.527L195.154 437.654C193.305 431.851 192.532 428.171 192.532 428.171L192.099 428.04C192.099 428.04 190.831 432.511 189.215 437.353L181.45 460.53L167.495 455.41L185.66 401.364Z" fill="white"/>
<path d="M296.552 450.675C296.865 464.18 288.4 473.471 272.243 474.569C257.134 475.587 242.991 468.732 242.177 446.693C241.335 424.353 253.697 415.973 268.21 415.017C283.917 413.953 293.002 422.731 294.561 434.65L279.304 435.685C277.898 430.519 275.139 427.476 268.409 427.931C262.152 428.358 257.709 434.143 258.169 445.606C258.676 457.593 263.648 462.218 270.685 461.74C277.722 461.262 280.811 457.905 281.158 451.705L296.552 450.675Z" fill="white"/>
<path d="M299.933 411.313L314.092 405.849L322.125 425.067L339.754 417.016L330.503 398.337L343.912 391.239L369.176 442.333L355.794 449.431L345.792 429.101L327.307 437.531L336.082 458.408L321.931 463.873L299.968 411.348L299.933 411.313Z" fill="white"/>
<path d="M352.89 384.539L380.149 358.409L388.924 367.025L371.843 383.435L378.375 390.674L394.935 374.784L403.516 383.179L386.408 399.572L393.497 407.535L412.767 389.067L421.542 397.657L391.016 426.929L352.89 384.539Z" fill="white"/>
<path d="M386.973 350.314L394.806 336.627L424.388 333.214C430.788 332.469 434.139 332.298 434.139 332.298L434.344 331.894C434.344 331.894 430.316 330.221 425.419 327.952L404.04 318.116L409.86 304.429L461.628 328.248L455.405 342.738L424.331 347.095C418.301 347.937 414.547 348.074 414.547 348.074L414.348 348.478C414.348 348.478 418.541 350.486 423.035 352.892L444.567 364.475L437.137 377.355L386.973 350.314Z" fill="white"/>
<path d="M61.0415 161.643L72.4759 166.162L63.3738 191.48L74.0463 195.011L82.5791 171.318L93.7292 175.749L85.4348 198.727L105.373 205.216L101.083 219.763L46.4893 201.958L61.0415 161.643Z" fill="white"/>
<path d="M130.858 124.019C140.711 132.951 142.413 145.187 132.565 157.652C123.577 169.058 109.673 174.531 91.7186 161.207C74.0202 148.077 76.3586 132.552 85.7453 120.662C95.6895 108.072 108.37 107.009 118.211 114.023L108.734 126.021C104.103 123.415 99.7626 123.711 95.445 129.184C91.1272 134.657 92.0772 141.426 101.674 148.623C110.856 155.495 118.03 155.245 122.029 150.188C126.301 144.777 125.442 140.392 121.284 136.131L130.858 124.019Z" fill="white"/>
<path d="M168.331 59.5053C178.401 54.8518 188.243 53.8165 192.605 64.1417C196.167 72.567 193.908 76.2532 189.499 79.9458L189.659 80.2871C194.358 79.1891 200.655 79.4167 204.66 88.8205C209.484 100.13 202.089 106.661 192.025 111.314L170.726 121.179L145.2 70.1951L168.331 59.5053ZM176.865 80.1619C180.813 78.3357 181.945 76.4925 180.352 72.6867C178.822 69.0173 176.21 68.7386 172.388 70.4965L163.883 74.4275L168.69 83.9339L176.865 80.1619ZM186.49 100.983C190.842 98.9697 192.037 97.2629 190.194 92.9109C188.487 88.8377 185.461 88.741 181.092 90.7549L173.742 94.1682L178.924 104.488L186.49 100.983Z" fill="white"/>
<path d="M272.011 96.9539L255.832 96.9198L251.19 86.708L231.62 88.4146L228.776 99.2638L212.847 102.063L228.651 42.4491L246.287 40.9302L272.011 96.9539ZM246.787 75.7227L241.905 64.629C240.227 60.863 238.964 57.5122 238.964 57.5122H238.663C238.663 57.5122 237.986 61.0337 236.956 65.033L234.089 76.809L246.787 75.7227Z" fill="white"/>
<path d="M286.409 80.2184L273.199 39.7651L290.266 43.0135L295.437 60.1708C296.41 63.4476 297.269 66.9349 297.269 66.9349L297.559 66.9974C297.559 66.9974 299.783 64.153 302.03 61.6044L313.857 48.1335L330.759 52.2637L301.938 83.5981L297.53 102.508L282.584 99.2593L286.409 80.2184Z" fill="white"/>
<path d="M342.102 57.1787L377.977 76.8739L371.719 87.4723L349.579 75.315L345.148 84.0022L365.583 95.2238L359.484 105.552L339.71 94.6942L334.863 104.166L356.412 116.004L350.153 126.597L316.264 107.98L342.102 57.1787Z" fill="white"/>
<path d="M397.822 92.3105L415.225 110.942C424.128 120.471 426.256 129.664 415.651 138.96C408.876 144.882 403.943 146.515 397.976 144.194L388.874 167.166L378.127 154.024L386.45 135.25L381.489 129.943L368.098 143.278L357.101 132.828L397.822 92.3105ZM389.994 121.478L395.882 127.775C399.153 131.28 401.907 131.376 405.553 128.157C409.2 124.937 409.103 121.967 405.827 118.485L399.637 111.857L389.994 121.478Z" fill="white"/>
<path d="M412.193 219.648L406.994 204.766L423.816 180.178C427.411 174.956 429.504 172.214 429.504 172.214L429.334 171.799C429.334 171.799 425.437 173.739 420.504 175.946L399.057 185.657L392.549 172.294L444.477 148.805L451.338 162.999L434.272 189.315C430.995 194.327 428.583 197.348 428.583 197.348L428.753 197.763C428.753 197.763 433.02 195.915 437.787 194.1L460.639 185.43L465.481 199.487L412.193 219.648Z" fill="white"/>
</g>
<defs>
<clipPath id="clip0_795_5309">
<rect width="512" height="512" fill="white" transform="translate(0.130371 0.574219)"/>
</clipPath>
</defs>
</svg>
