<svg width="1024" height="209" viewBox="0 0 1024 209" fill="none" xmlns="http://www.w3.org/2000/svg">
<g clip-path="url(#clip0_806_447)">
<path d="M103.29 0.447266H43.1119V5.56727H62.2562V105.073C62.2562 134.755 53.9455 143.436 35.3206 143.436C32.0342 143.79 28.7419 142.824 26.1676 140.75C23.5934 138.677 21.9479 135.666 21.593 132.38C21.4821 131.568 21.4821 130.744 21.593 129.931C21.593 119.098 20.9994 112.419 11.0562 112.419C1.11304 112.419 0 122.511 0 125.553C0 139.281 6.08464 149.743 33.4655 149.743C66.1148 149.743 83.7751 138.761 83.7751 102.402V5.49306H103.884L103.29 0.447266Z" fill="#503629"/>
<path d="M111.304 126.592C109.752 126.537 108.204 126.805 106.761 127.38C105.317 127.955 104.009 128.824 102.919 129.931C101.809 131.023 100.934 132.329 100.347 133.771C99.7601 135.213 99.4739 136.76 99.5061 138.316C99.4824 139.838 99.7734 141.349 100.361 142.754C100.948 144.158 101.819 145.426 102.919 146.478C105.154 148.679 108.168 149.906 111.304 149.892C114.486 149.913 117.549 148.688 119.838 146.478C120.938 145.426 121.809 144.158 122.396 142.754C122.984 141.349 123.275 139.838 123.251 138.316C123.271 136.796 122.991 135.287 122.427 133.875C121.863 132.463 121.027 131.176 119.966 130.087C118.905 128.998 117.639 128.129 116.242 127.53C114.845 126.93 113.344 126.611 111.824 126.592H111.304Z" fill="#503629"/>
<path d="M244.87 126.592C243.353 126.552 241.843 126.813 240.428 127.36C239.013 127.906 237.72 128.727 236.623 129.776C235.526 130.824 234.648 132.079 234.038 133.468C233.429 134.858 233.1 136.354 233.071 137.871V138.316C233.071 139.862 233.402 141.391 234.042 142.799C234.682 144.207 235.616 145.461 236.781 146.478C239.025 148.665 242.033 149.89 245.166 149.891C246.734 149.925 248.292 149.64 249.746 149.053C251.2 148.466 252.52 147.59 253.625 146.478C254.764 145.448 255.67 144.187 256.284 142.78C256.898 141.373 257.206 139.851 257.187 138.316C257.228 136.752 256.938 135.196 256.338 133.752C255.737 132.307 254.838 131.005 253.7 129.931C252.619 128.852 251.334 128.001 249.919 127.428C248.505 126.854 246.99 126.57 245.463 126.592" fill="#503629"/>
<path d="M203.242 0.447266H143.88V5.56727H161.169V119.172C161.621 123.806 161.09 128.484 159.611 132.899C158.933 134.485 157.918 135.903 156.636 137.056C155.355 138.21 153.838 139.07 152.19 139.578C148.579 140.793 144.796 141.419 140.986 141.433V146.182H204.058V141.433C199.965 141.46 195.889 140.885 191.963 139.726C190.322 139.205 188.811 138.34 187.532 137.188C186.252 136.037 185.233 134.625 184.543 133.048C183.321 130.116 182.788 126.943 182.984 123.772V84.8902H198.715C244.276 84.8902 257.113 66.9331 257.113 42.5203C257.113 18.1076 249.396 0.447266 203.242 0.447266ZM195.08 79.1023H183.133V6.23509H193.966C229.139 6.08669 237.449 20.4078 237.449 43.856C237.449 67.3041 223.648 79.6218 195.673 79.6218" fill="#503629"/>
<path d="M445.217 132.529C444.247 129.307 443.821 125.947 443.956 122.585V5.56735H459.613V0.818359H421.992L377.173 111.752C377.104 111.936 376.983 112.097 376.825 112.215C376.668 112.333 376.479 112.404 376.283 112.42C376.053 112.428 375.825 112.37 375.627 112.251C375.429 112.133 375.271 111.959 375.17 111.752C375.17 111.752 328.051 2.15401 327.532 0.818359H286.052V5.41894H304.232V128.447C304.066 131.09 303.222 133.645 301.783 135.868C300.086 138.087 297.758 139.742 295.105 140.617C292.26 141.275 289.341 141.549 286.423 141.433V146.182H327.532V141.433C325.014 141.464 322.509 141.088 320.111 140.32C317.178 139.652 314.56 138.003 312.691 135.645C311.232 133.427 310.363 130.873 310.168 128.225L309.723 117.985V20.8531H312.172C312.172 20.8531 365.82 144.698 365.82 146.108H371.015L421.621 21.892H422.957V121.992C423.022 125.447 422.597 128.895 421.695 132.232C421.141 133.718 420.299 135.079 419.216 136.238C418.134 137.397 416.833 138.33 415.388 138.984C412.027 140.169 408.489 140.771 404.925 140.765V145.514H462.433V140.765C458.785 140.757 455.168 140.104 451.747 138.836C450.203 138.144 448.831 137.121 447.728 135.838C446.625 134.556 445.818 133.045 445.366 131.415" fill="#503629"/>
<path d="M522.759 39.4033C492.039 39.4033 472.45 59.6607 472.45 95.0555C472.45 146.998 513.039 150.337 521.72 150.337C539.084 150.337 572.03 139.577 572.03 94.0909C572.03 58.3251 550.956 39.4033 522.537 39.4033M522.537 143.881C499.385 143.881 495.824 132.454 495.824 95.5749C495.824 67.0068 497.604 45.5622 522.537 45.5622C549.324 45.5622 549.472 67.823 549.472 93.5714C549.472 130.673 543.091 143.584 522.537 143.584" fill="#503629"/>
<path d="M652.54 40.9619C634.138 40.9619 628.498 51.7955 623.304 62.7776H621.894C621.894 62.7776 619.223 46.8239 618.258 42.075H582.418V47.4918H601.711V119.691C601.975 124.75 601.166 129.808 599.337 134.532C597.407 138.168 592.955 139.949 585.683 139.949H582.493V146.33H641.855V139.949H639.035C631.17 139.949 627.831 138.242 625.753 134.829C623.654 130.076 622.811 124.863 623.304 119.691V82.0703C623.304 69.53 632.802 55.1347 644.229 55.1347C655.657 55.1347 655.879 73.4628 669.458 66.1167C676.879 62.1097 675.543 41.1103 652.689 41.1103" fill="#503629"/>
<path d="M889.841 135.422C883.46 135.422 881.382 131.86 881.011 125.998V69.0846C881.394 65.1865 880.929 61.2517 879.648 57.5502C878.367 53.8486 876.301 50.4679 873.591 47.64C868.026 42.149 857.489 39.2551 842.129 39.2551C830.648 38.4059 819.194 41.2111 809.405 47.269C806.52 49.0122 804.135 51.4732 802.484 54.4121C800.832 57.351 799.97 60.6677 799.981 64.0388C799.794 65.393 799.932 66.7724 800.383 68.0628C800.835 69.3532 801.587 70.5174 802.579 71.4591C804.396 73.0074 806.722 73.827 809.108 73.7594C815.045 73.7594 818.31 70.7171 819.645 63C819.804 58.5136 821.448 54.2069 824.32 50.7565C826.246 49.0136 828.515 47.6911 830.98 46.8735C833.446 46.0558 836.055 45.7609 838.641 46.0075C841.553 45.6727 844.503 46.0441 847.241 47.0903C849.979 48.1365 852.425 49.8267 854.372 52.018C857.347 56.5142 858.803 61.8453 858.527 67.2295V84.6672C839.457 86.3739 794.416 89.9356 796.42 124.143C797.111 131.056 800.398 137.449 805.617 142.034C810.835 146.62 817.599 149.056 824.543 148.853C831.25 148.65 837.835 147.008 843.852 144.038C849.869 141.067 855.178 136.839 859.418 131.638C860.335 136.277 862.881 140.435 866.596 143.361C870.311 146.287 874.95 147.787 879.675 147.591C893.551 147.591 901.936 140.765 902.827 123.921H899.191C898.3 131.341 893.774 135.199 889.99 135.199M858.75 124.217C858.824 124.327 858.863 124.456 858.863 124.588C858.863 124.72 858.824 124.85 858.75 124.959V125.405C852.592 132.293 844.166 136.743 835.005 137.945C832.861 138.024 830.722 137.68 828.711 136.932C826.7 136.185 824.856 135.048 823.285 133.587C821.714 132.126 820.446 130.369 819.554 128.418C818.662 126.466 818.163 124.358 818.087 122.214C818.013 121.399 818.013 120.58 818.087 119.765C818.087 100.398 844.8 90.6777 859.344 90.6777L858.75 124.217Z" fill="#503629"/>
<path d="M1011.98 134.68C1009.25 129.987 1007.96 124.593 1008.27 119.172V72.053C1008.57 66.017 1007.38 59.9998 1004.78 54.5411C1002.37 50.1231 998.737 46.4915 994.319 44.0785C989.426 41.6919 984.03 40.521 978.588 40.6652C971.617 40.4917 964.738 42.2861 958.741 45.8428C952.743 49.3994 947.869 54.5744 944.677 60.7742H942.377L938.667 41.9267H906.537V47.3435H922.787V119.172C922.911 123.262 922.512 127.352 921.6 131.341C921.22 132.872 920.465 134.284 919.403 135.45C918.34 136.616 917.004 137.499 915.515 138.019C912.64 139.064 909.596 139.567 906.537 139.503V146.108H958.034V139.429C956.062 139.534 954.092 139.194 952.268 138.437C950.445 137.679 948.814 136.522 947.497 135.051C945.166 130.471 944.164 125.331 944.603 120.211V92.8298C943.611 82.7653 944.957 72.6076 948.536 63.1487C950.622 59.5316 953.647 56.546 957.292 54.5082C960.937 52.4704 965.064 51.4562 969.238 51.573C972.099 51.2825 974.982 51.8291 977.537 53.1464C980.093 54.4637 982.211 56.495 983.634 58.9933C986.159 66.8517 987.339 75.0805 987.121 83.3319V117.317C987.505 121.513 987.505 125.735 987.121 129.931C986.973 131.429 986.488 132.873 985.705 134.158C984.921 135.443 983.858 136.534 982.595 137.352C980.079 138.762 977.243 139.503 974.358 139.503V146.182H1024V139.578C1017.77 139.132 1013.69 137.648 1011.83 134.754" fill="#503629"/>
<path d="M779.13 35.1747C777.47 35.8633 776.023 36.9831 774.941 38.4181C773.858 39.8531 773.178 41.5512 772.972 43.337C772.155 47.5666 770.523 50.0895 768.371 50.7573C765.913 51.4018 763.314 51.2458 760.951 50.3121C751.565 42.3515 739.474 38.3122 727.188 39.0332C716.929 38.2336 706.771 41.5334 698.941 48.2096C691.11 54.8859 686.245 64.394 685.412 74.6506C685.412 76.2089 685.412 77.7671 685.412 79.3254C685.412 101.586 693.945 111.9 712.57 115.833C713.758 115.833 713.758 117.317 712.57 117.466C696.914 120.36 682.889 124.886 682.889 140.098C682.875 143.647 683.968 147.113 686.016 150.013C688.065 152.912 690.966 155.101 694.316 156.274C704.241 159.688 714.692 161.321 725.185 161.097C733.46 161.018 741.734 161.39 749.969 162.21C754.784 162.645 759.42 164.25 763.474 166.885C765.229 168.331 766.61 170.178 767.501 172.27C768.393 174.362 768.767 176.638 768.594 178.906C768.519 182.469 767.424 185.936 765.438 188.895C763.452 191.855 760.658 194.182 757.389 195.601C748.633 199.897 738.934 201.913 729.192 201.463C720.188 202.116 711.189 200.13 703.295 195.75C700.974 194.135 699.207 191.843 698.238 189.187C697.268 186.53 697.143 183.64 697.878 180.909C698.589 178.783 698.435 176.463 697.45 174.45C696.464 172.436 694.725 170.892 692.61 170.15H691.497C689.787 169.932 688.051 170.191 686.48 170.898C684.909 171.606 683.563 172.733 682.592 174.157C680.881 177.044 680.079 180.379 680.292 183.729C680.481 188.537 682.282 193.141 685.404 196.802C688.527 200.462 692.79 202.967 697.507 203.912C706.787 206.87 716.486 208.299 726.224 208.142C737.455 208.665 748.655 206.583 758.947 202.057C765.054 199.492 770.276 195.195 773.968 189.696C777.66 184.197 779.661 177.738 779.724 171.114C780.014 164.717 778.302 158.388 774.827 153.009C764.438 138.762 749.746 140.691 716.652 139.059C700.772 139.059 697.656 136.239 697.656 131.638C697.656 124.218 703.518 121.621 726.372 118.134C749.227 114.646 770.226 106.335 770.226 78.806C770.295 72.0742 768.876 65.4104 766.071 59.2906C770.343 60.4766 774.858 60.4766 779.13 59.2906C781.104 58.7592 782.947 57.8258 784.543 56.5489C786.139 55.2721 787.454 53.6792 788.406 51.8703C789.416 50.4891 790.101 48.8973 790.409 47.214C790.718 45.5307 790.642 43.7995 790.187 42.1497C788.257 35.9909 784.547 33.7648 778.908 35.4715M727.708 111.381C714.203 111.381 706.115 106.484 706.115 79.0286C706.115 59.6616 712.867 45.2663 727.708 45.2663C744.626 45.2663 749.227 58.4002 749.227 78.5834C749.227 107.226 740.1 111.381 727.708 111.381Z" fill="#503629"/>
</g>
<defs>
<clipPath id="clip0_806_447">
<rect width="1024" height="207.773" fill="white" transform="translate(0 0.447266)"/>
</clipPath>
</defs>
</svg>
