<svg width="884" height="513" viewBox="0 0 884 513" fill="none" xmlns="http://www.w3.org/2000/svg">
<g clip-path="url(#clip0_876_1767)">
<path d="M721.803 108.98L720.618 113.031C719.975 115.204 719.383 117.378 718.74 119.502C718.098 121.626 717.258 124.442 716.567 126.813C715.875 129.185 715.134 131.358 714.442 133.631L713.257 137.385C767.499 127.505 820.917 118.843 873.512 111.4C823.037 107.553 772.376 106.745 721.803 108.98ZM209.767 229.27L207.593 224.972C140.316 253.088 75.5068 286.782 13.8447 325.7C75.0684 303.535 138.301 282.343 203.543 262.121C207.297 254.415 211.002 246.659 214.806 238.952L211.051 231.839C210.607 230.999 210.212 230.11 209.767 229.27ZM433.749 278.671C430.637 272.248 428.809 269.729 425.746 263.307L420.806 276.793L398.971 294.182L390.425 298.134L390.82 301.296C407.815 301.183 424.753 299.295 441.357 295.664C441.357 289.242 441.357 282.474 440.961 275.558L433.749 278.671ZM484.878 253.377L480.63 257.823L453.41 269.778C453.707 277.584 453.904 285.093 453.904 292.305C470.404 288.155 484.928 283.808 497.871 279.263C498.964 269.389 500.88 259.623 503.601 250.068C499.517 251.551 495.321 252.707 491.053 253.526C488.998 253.755 486.921 253.705 484.878 253.377ZM400.255 135.113L413.692 120.935L424.264 118.564C421.102 97.9141 417.891 79.0431 415.174 64.223C369.109 70.9099 324.045 83.2544 281.003 100.977L282.386 103.892C290.039 119.39 298.91 134.256 308.914 148.352C312.734 147.068 316.587 145.882 320.474 144.795C333.647 141.304 346.705 137.896 359.648 134.569C371.702 131.408 390.82 125.134 400.255 135.113ZM497.377 293.194C484.384 297.591 469.959 301.741 453.756 305.791C453.756 311.275 453.756 342.941 444.815 360.972C469.988 353.863 493.773 342.538 515.161 327.478C503.799 321.995 497.871 307.767 497.377 292.947V293.194ZM481.914 106.312L476.974 118.959L476.48 120.243L491.3 104.435C506.466 101.471 521.583 98.7045 536.749 95.9875L534.229 103.595C541.655 97.6318 550.574 93.8212 560.016 92.5789H561.301C563.642 82.9966 565.391 73.2793 566.537 63.482L558.831 61.8023C538.289 59.5936 517.642 58.5051 496.982 58.5419C473.867 58.5298 450.772 59.899 427.821 62.6422C430.538 77.4623 433.65 95.6417 436.762 115.846C451.78 112.537 466.699 109.375 481.914 106.312ZM354.214 315.424C359.549 322.011 365.033 328.598 370.664 335.185C375.876 329.425 378.718 321.907 378.618 314.14C372.591 314.14 366.07 313.646 359.253 313.053L354.214 315.424ZM269.492 106.065C263.515 108.634 257.587 111.351 251.708 114.117C257.043 132.939 263.317 151.316 270.381 169.248H270.678L272.95 167.223L273.494 166.828C275.47 165.296 277.495 163.913 279.57 162.53H279.965L282.732 160.801L283.176 160.505C285.3 159.22 287.474 158.035 289.648 156.898H290.092L292.908 155.466L293.501 155.169L296.761 153.638C287.016 139.851 278.377 125.315 270.925 110.165L269.492 106.065ZM379.161 344.225C381.977 347.337 384.842 350.351 387.757 353.413L388.696 354.401C393.29 359.342 397.983 363.886 402.725 368.53C410.037 367.838 417.546 366.85 424.363 365.566C426.103 364.016 427.753 362.367 429.303 360.626C429.436 360.362 429.621 360.126 429.846 359.934C437.059 352.574 440.616 333.801 441.505 308.36C425.042 311.824 408.284 313.694 391.462 313.942C391.627 319.59 390.594 325.208 388.431 330.428C386.269 335.647 383.025 340.349 378.914 344.225H379.161ZM580.221 66.7424C579.576 74.5238 578.47 82.2602 576.911 89.9112C586.347 88.4292 595.782 87.046 605.218 85.6628L593.51 132.346L574.688 152.106L590.694 147.166C585.655 167.223 580.715 186.983 575.281 206.743L554.829 228.233C546.234 231.789 532.006 238.607 518.323 244.337C515.069 254.153 512.527 264.191 510.715 274.373C557.547 255.551 581.555 231.592 607.589 190.392C616.555 151.754 615.586 111.475 604.773 73.3127C596.639 71.0403 588.455 68.8502 580.221 66.7424ZM509.43 288.6C509.134 317.499 527.116 316.264 530.03 315.82C557.505 292.959 579.359 264.091 593.905 231.444C572.12 257.033 547.419 274.274 509.43 288.6Z" fill="#EF3B24"/>
<path d="M458.35 416.349C441.033 403.562 424.534 389.703 408.95 374.853L402.33 368.529C397.39 363.886 392.895 359.193 388.301 354.401L387.362 353.413C384.447 350.35 381.582 347.336 378.766 344.224C375.95 341.112 373.233 338.049 370.665 335.184C365.033 328.597 359.549 322.01 354.214 315.424L350.855 317.005L336.035 323.97C368.736 361.946 406.328 395.418 447.828 423.512C451.336 421.24 454.794 418.918 458.252 416.596L458.35 416.349ZM448.816 50.0938C369.237 52.2083 290.997 71.078 219.203 105.472C227.339 134.205 237.644 162.279 250.029 189.453L258.476 180.61C259.316 179.622 260.205 178.733 261.094 177.794C261.283 177.655 261.449 177.489 261.588 177.3L263.91 175.028L264.355 174.632C266.182 172.854 268.06 171.224 269.986 169.692C262.922 151.76 256.648 133.383 251.313 114.561C257.192 111.795 263.12 109.078 269.097 106.509L280.854 101.569C323.897 83.8465 368.961 71.502 415.026 64.8151C419.275 64.1729 423.474 63.6295 427.722 63.0861C450.673 60.3429 473.768 58.9737 496.883 58.9858C517.544 58.9655 538.191 60.0704 558.732 62.2957C522.587 54.6027 485.768 50.5154 448.816 50.0938Z" fill="#FDBB30"/>
<path d="M311.878 186.438C293.501 225.333 275.799 264.491 258.772 303.912C270.529 298.528 282.237 293.242 293.995 288.006C309.77 250.692 326.072 213.625 342.901 176.805C332.478 179.967 322.153 183.227 311.878 186.438ZM443.728 7.36133C336.43 7.36133 253.338 33.8894 158.637 82.6477L165.01 108.287C175.32 150.172 190.334 190.757 209.767 229.268C210.211 230.108 210.607 230.997 211.051 231.837C212.286 234.208 213.521 236.777 214.806 238.951C211.002 246.657 207.297 254.413 203.542 262.12C189.875 290.64 176.603 319.342 163.726 348.225C157.353 362.748 143.521 388.239 164.467 397.329C183.683 402.269 202.159 389.425 218.807 380.977L227.749 376.482L239.407 370.554L241.482 369.516C248.744 365.861 255.956 362.254 263.218 358.698C268.158 356.277 277.594 351.633 289.598 345.903C292.117 348.768 294.538 351.584 297.354 354.4L298.391 355.536C300.861 358.204 303.331 360.822 305.851 363.44L306.295 363.835C347.225 405.504 393.428 441.642 443.728 471.331C556.114 403.948 631.054 324.71 680.85 220.179C681.69 218.499 682.48 216.77 683.271 215.239C684.703 212.126 686.086 209.014 687.519 205.853L687.964 204.865C688.803 202.888 689.693 200.912 690.532 198.887C690.829 198.294 691.076 197.652 691.323 197.01C699.919 176.904 707.625 155.81 714.591 133.777C715.282 131.505 715.974 129.232 716.715 126.96C717.456 124.687 718.147 122.02 718.888 119.649C719.629 117.277 720.123 115.351 720.766 113.177C723.565 103.297 726.265 93.17 728.867 82.7959C634.117 33.84 551.075 7.36133 443.728 7.36133ZM280.558 330.243C265.738 337.653 250.917 345.063 236.097 352.621C222.512 359.537 203.246 372.382 187.833 368.479C173.853 362.452 186.944 338.839 191.242 329.502C207.709 292.649 224.768 256.142 242.421 219.981C248.124 207.554 255.431 195.928 264.157 185.401C280.064 167.814 299.923 158.28 322.202 152.204C335.211 148.713 348.203 145.304 361.179 141.978C370.763 139.606 392.746 131.653 396.945 144.645C399.07 154.525 392.499 165.542 388.745 174.286C378.667 197.965 368.787 221.71 359.105 245.521C354.858 256.716 349.789 267.58 343.939 278.027C328.773 302.529 305.851 317.794 280.558 330.243ZM406.084 158.082C410.333 147.856 414.729 137.581 419.077 127.701C435.873 123.897 452.768 120.192 469.663 116.734C462.055 136.494 454.53 156.254 447.087 176.015C462.994 154.377 479.115 132.97 495.45 111.794C505.33 109.818 515.375 107.924 525.584 106.113C523.015 114.066 520.644 121.97 517.779 129.924L507.355 132.345C495.005 150.359 482.77 168.572 470.651 186.982C477.468 202.131 484.22 217.313 490.905 232.529C479.938 237.469 469.021 242.112 458.054 247.003C450.973 232.512 443.843 218.071 436.663 203.679C428.792 224.789 421.036 245.949 413.396 267.159C396.501 274.964 379.589 282.818 362.661 290.723C367.601 277.582 372.937 264.491 378.173 251.202C390.82 218.993 403.746 186.85 416.952 154.772L406.084 158.082ZM556.015 121.773C549.428 144.826 542.693 167.88 535.81 190.934C541.145 188.958 546.431 186.982 551.816 185.055C553.594 178.633 555.373 172.161 557.201 165.739C564.907 163.203 572.581 160.766 580.221 158.428C576.565 172.721 572.877 186.998 569.155 201.258C554.5 207.285 539.894 213.394 525.337 219.586C520.838 221.782 516.096 223.44 511.209 224.526C496.833 225.712 501.329 209.36 504.293 200.418L526.078 132.246C528.135 124.596 531.882 117.505 537.045 111.498C543.566 105.216 551.963 101.243 560.955 100.185C572.366 98.3076 583.827 96.5292 595.239 94.8496C592.621 105.224 590.299 115.647 587.384 126.021L566.685 130.961C567.822 126.96 568.908 122.909 570.045 118.858L556.015 121.773ZM503.848 250.214C501.127 259.769 499.21 269.535 498.118 279.41C485.175 283.955 470.651 288.302 454.151 292.452C454.151 285.239 454.151 277.631 453.657 269.925L480.877 257.97L485.125 253.524C487.174 253.803 489.251 253.803 491.3 253.524C495.484 252.693 499.597 251.537 503.601 250.066L503.848 250.214ZM441.356 295.663C424.762 299.377 407.824 301.347 390.82 301.541L390.424 298.38L398.971 294.428L420.855 276.841L425.795 263.355C428.957 269.777 430.735 272.296 433.798 278.718L441.011 275.557C441.208 282.226 441.356 288.994 441.356 295.663ZM443.728 450.336C392.867 419.535 346.643 381.662 306.444 337.851L336.084 323.722L350.904 316.757L359.302 312.805C366.119 313.397 372.64 313.743 378.667 313.891C378.816 321.75 375.953 329.368 370.664 335.183C373.381 338.295 376.148 341.407 378.914 344.47C383.025 340.595 386.268 335.892 388.431 330.673C390.594 325.453 391.627 319.835 391.462 314.188C408.161 313.982 424.803 312.179 441.159 308.803C440.27 334.244 436.713 353.264 429.5 360.377C429.275 360.569 429.09 360.804 428.957 361.069C427.407 362.81 425.757 364.459 424.017 366.009C431.032 364.724 437.898 363.094 444.716 361.069C453.509 342.692 453.608 311.026 453.756 305.543C469.959 301.492 484.384 297.342 497.376 292.946C497.871 307.766 503.799 321.993 515.161 327.23C520.101 323.623 525.041 319.77 529.981 315.818C527.066 316.263 509.084 317.498 509.381 288.598C547.37 274.272 572.07 257.031 593.856 231.244C599.666 218.145 604.247 204.534 607.54 190.588C581.506 231.64 557.497 255.599 510.665 274.569C512.477 264.387 515.019 254.349 518.273 244.533C531.957 238.803 546.184 231.985 554.78 228.429L575.281 206.742C580.715 186.982 585.655 167.221 590.595 147.165L574.589 152.105L593.411 132.345L605.415 85.6611C595.98 87.0443 586.544 88.4275 577.109 89.9095C578.668 82.2586 579.773 74.5221 580.419 66.7407C577.405 65.9503 574.342 65.2587 571.329 64.5177L569.501 64.1225L566.735 63.4803C565.581 73.2112 563.832 82.8623 561.498 92.3796H560.214C550.772 93.6219 541.852 97.4325 534.427 103.396L536.946 95.7882C521.78 98.5052 506.664 101.272 491.498 104.236L476.678 120.044L477.172 118.759L482.112 106.113C467.292 109.176 452.471 112.337 437.256 115.598C434.144 95.393 431.032 77.1642 428.315 62.3935C424.066 62.9369 419.867 63.4803 415.619 64.1225C418.336 78.9426 421.547 97.7148 424.708 118.463L414.137 120.834L400.255 135.111C390.82 125.231 371.702 131.406 359.648 134.469C346.474 137.762 333.416 141.171 320.473 144.695C316.587 145.782 312.734 146.967 308.914 148.252C298.91 134.156 290.039 119.289 282.386 103.791L281.002 100.876L269.245 105.817L270.925 109.275C278.377 124.424 287.016 138.96 296.761 152.747L293.501 154.278L292.908 154.575L290.092 156.007H289.647C287.474 157.144 285.3 158.329 283.176 159.614L282.731 159.91L279.965 161.639L279.372 162.281C277.297 163.664 275.272 165.048 273.296 166.579L272.95 167.221L270.431 169.247L269.986 169.593C268.059 171.173 266.182 172.804 264.354 174.533L263.91 174.928L261.588 177.101C261.449 177.29 261.283 177.457 261.094 177.595C260.205 178.534 259.316 179.423 258.476 180.411L250.028 189.254L238.024 201.802C233.403 207.176 229.239 212.926 225.575 218.993C213.871 195.435 203.786 171.106 195.391 146.177C189.529 128.821 184.293 110.839 179.682 92.2314C267.269 48.6601 344.828 25.4419 443.728 25.4913C542.627 25.5407 620.236 48.6601 707.625 92.2314C664.696 253.623 586.446 362.057 443.728 450.089V450.336Z" fill="#002D62"/>
<path d="M872.919 149.24C817.621 153.762 762.672 161.848 708.416 173.446C712.121 163.566 715.579 153.686 718.888 143.806C771.582 134.288 823.469 125.907 874.549 118.661C885.072 117.575 885.072 104.928 874.055 104.187C826.622 100.584 779.025 99.627 731.486 101.322C733.462 93.8623 735.388 86.5016 737.216 78.8446C638.761 28.0609 555.521 0.0507812 443.728 0.0507812C331.934 0.0507812 248.645 28.0608 150.19 78.7952L157.946 110.066C167.303 148.38 180.545 185.64 197.466 221.266C132.338 248.906 69.5578 281.783 9.74445 319.573C-6.45891 329.157 2.08737 338.543 16.1665 332.615C72.1537 312.196 129.952 292.683 189.562 274.075C178.497 297.689 167.661 321.352 157.057 345.064C148.856 363.638 134.579 392.142 161.997 404.097C164.665 404.811 167.394 405.274 170.148 405.481C129.356 433.648 90.2617 464.198 53.0687 496.97C38.5449 509.814 49.413 516.434 61.4668 508.826C141.051 464.959 225.032 422.079 313.113 381.027C352.636 418.958 396.474 452.118 443.728 479.828C550.68 415.608 630.906 340.025 685.79 226.947C750.077 203.894 813.424 182.75 875.834 163.517C886.998 161.096 886.652 148.005 872.919 149.24ZM680.257 221.118L680.702 220.179C631.054 324.711 556.114 403.949 443.579 471.331C393.332 441.632 347.18 405.494 306.296 363.836C309.013 366.701 311.779 369.468 314.595 372.283C225.032 414.224 139.174 457.746 58.0087 502.651C111.046 456.027 167.816 413.83 227.749 376.482L218.807 380.978C202.159 389.425 183.684 402.319 164.467 397.329C143.521 388.24 157.353 362.749 163.726 348.225C176.57 319.343 189.842 290.641 203.543 262.12C138.4 282.243 75.1672 303.436 13.8447 325.699C75.5068 286.781 140.316 253.087 207.593 224.971L209.767 229.269C190.334 190.758 175.32 150.173 165.01 108.287L158.638 82.6484C253.338 33.8901 336.479 7.36205 443.728 7.36205C550.976 7.36205 634.117 33.8407 728.917 82.6484C726.216 92.9237 723.45 103.001 720.617 112.881L721.803 108.831C772.375 106.596 823.037 107.404 873.512 111.251C820.983 118.925 767.564 127.702 713.257 137.582L714.442 133.827C707.477 155.86 699.622 176.954 691.175 197.06C693.052 192.663 694.929 188.168 696.757 183.672C754.982 170.609 814.041 161.597 873.512 156.7C810.049 175.966 745.63 197.439 680.257 221.118ZM269.986 169.396L270.431 169.05H270.134L269.986 169.396ZM443.728 25.492C344.927 25.492 267.269 48.6115 179.732 92.2321C184.309 110.873 189.529 128.854 195.391 146.177C203.768 171.123 213.837 195.468 225.526 219.043C229.203 212.957 233.384 207.19 238.024 201.802L250.028 189.156C237.644 161.982 227.339 133.908 219.203 105.175C291.019 70.8837 369.258 52.1153 448.816 50.0935C485.785 50.3461 522.637 54.268 558.831 61.8014L566.537 63.481L569.304 64.1232L571.132 64.5184C574.145 65.2594 577.208 65.951 580.221 66.7414C588.422 68.8163 596.655 71.0722 604.922 73.5093C617.297 116.796 616.82 162.748 603.55 205.769C590.28 248.79 564.788 287.025 530.179 315.819C525.238 319.771 520.298 323.624 515.358 327.23C493.971 342.29 470.185 353.615 445.012 360.724C438.195 362.65 431.328 364.281 424.313 365.664C417.298 367.047 409.987 367.936 402.676 368.628L409.098 374.704L423.671 372.333C485.469 361.876 540.613 327.379 577.048 276.382C613.484 225.385 628.248 162.036 618.111 100.186C617.815 98.506 617.469 96.7769 617.173 95.2455V94.5045V93.6647V92.8743V92.0345V91.1947V90.3549V89.4657V88.5765V87.786V87.0944L616.926 86.1064V85.2172V84.5256V83.8834V83.1918C616.234 80.5242 615.641 78.2517 614.999 75.9793L624.879 79.0916C631.795 81.364 638.267 83.6858 644.64 86.1064C660.843 92.1333 675.218 98.3084 687.124 103.989C651.668 227.94 574.859 336.023 469.465 410.272L460.87 416.299C457.412 418.621 453.954 420.943 450.446 423.215C408.078 395.313 369.648 361.85 336.183 323.723L306.543 337.851C346.759 381.575 392.982 419.365 443.827 450.089C586.446 362.058 664.696 253.623 707.625 92.2321C620.236 48.6609 542.578 25.492 443.728 25.492ZM354.214 315.423L359.154 313.052L350.756 317.004L354.214 315.423ZM419.077 127.702C414.73 137.878 410.333 148.055 406.085 158.281L416.953 155.267C403.779 187.279 390.853 219.422 378.173 251.697C372.937 264.837 367.799 277.929 362.661 291.217C379.589 282.984 396.501 274.965 413.396 267.159C421.069 245.95 428.825 224.79 436.663 203.68C443.876 218.105 451.006 232.546 458.054 247.004C469.021 242.064 479.938 237.124 490.905 232.529C484.318 217.38 477.567 202.198 470.651 186.982C482.803 168.572 495.038 150.228 507.356 131.95L517.779 129.529C520.397 121.576 523.015 113.672 525.584 105.718C515.507 107.563 505.462 109.456 495.45 111.399C478.983 132.675 462.862 154.081 447.087 175.62C454.53 155.86 462.055 136.1 469.663 116.34C452.768 119.995 435.873 123.7 419.077 127.702ZM587.286 126.22C589.953 115.846 592.522 105.422 595.14 95.0479C583.729 96.7275 572.268 98.506 560.856 100.383C551.824 101.383 543.371 105.323 536.798 111.597C531.635 117.605 527.888 124.695 525.831 132.345L504.046 200.518C501.23 209.459 496.586 225.811 510.962 224.625C515.849 223.539 520.591 221.881 525.09 219.685C539.647 213.527 554.253 207.418 568.909 201.358C572.63 187.065 576.319 172.788 579.974 158.528C572.334 160.899 564.66 163.336 556.954 165.839C555.126 172.261 553.347 178.732 551.569 185.154C546.184 187.081 540.898 189.057 535.563 191.033C542.15 167.98 548.885 144.926 555.768 121.872L569.946 118.859C568.81 122.91 567.723 126.961 566.587 130.962L587.286 126.22ZM343.939 278.077C349.789 267.631 354.858 256.766 359.105 245.571C368.787 221.76 378.667 198.015 388.745 174.336C392.499 165.444 399.07 154.23 396.945 144.695C392.746 131.703 370.763 139.755 361.179 142.028C348.204 145.321 335.211 148.73 322.203 152.254C299.923 158.33 280.064 167.864 264.157 185.451C255.432 195.978 248.124 207.604 242.421 220.031C224.637 256.258 207.577 292.765 191.242 329.552C186.944 339.136 173.853 362.502 187.833 368.529C203.246 372.53 222.414 359.588 236.097 352.671C250.918 345.113 265.738 337.851 280.558 330.293C305.851 317.795 328.773 302.53 343.939 278.077ZM258.772 303.913C275.799 264.492 293.501 225.333 311.878 186.439C322.153 183.228 332.478 179.967 342.901 176.559C326.006 213.576 309.77 250.725 294.192 288.006C282.238 293.243 270.53 298.529 258.772 303.913Z" fill="white"/>
<path d="M696.757 183.474C694.929 187.969 693.052 192.465 691.175 196.862C690.928 197.504 690.681 198.146 690.384 198.739C689.545 200.764 688.655 202.74 687.816 204.716L687.371 205.704C685.938 208.866 684.555 211.978 683.122 215.09C682.332 216.77 681.542 218.499 680.702 220.03L680.257 220.969C745.631 197.454 810.049 175.965 873.512 156.501C814.041 161.399 754.982 170.411 696.757 183.474ZM305.851 363.44C303.332 360.822 300.911 358.204 298.392 355.536L297.354 354.4C294.736 351.584 292.118 348.768 289.598 345.903C277.594 351.633 268.109 356.277 263.218 358.698C255.957 362.254 248.744 365.861 241.482 369.516L239.407 370.554L227.749 376.482C167.816 413.829 111.046 456.027 58.0088 502.651C139.174 457.745 225.032 414.224 314.595 372.283C311.779 369.467 309.013 366.7 306.296 363.835L305.851 363.44ZM642.17 86.1056C635.698 83.685 629.227 81.1656 622.409 79.0908L612.529 75.9785C613.171 78.2015 613.764 80.5234 614.456 83.191V83.8826V84.5248V85.2164V86.1056L614.703 87.0936V87.7852V88.5757V89.4648V90.3541V91.1939V92.0337V92.8735V93.6639V94.5037V95.2447C614.999 96.9243 615.345 98.6533 615.641 100.185C625.874 161.696 611.465 224.763 575.535 275.727C539.604 326.692 485.045 361.452 423.671 372.48L409.098 374.851C424.682 389.702 441.181 403.561 458.499 416.348L467.094 410.321C572.386 336.01 649.087 227.914 684.456 103.989C672.748 98.3075 658.373 92.1325 642.17 86.1056Z" fill="#007DC3"/>
</g>
<defs>
<clipPath id="clip0_876_1767">
<rect width="882.815" height="512" fill="white" transform="translate(0.938477 0.0507812)"/>
</clipPath>
</defs>
</svg>
