<svg width="526" height="513" viewBox="0 0 526 513" fill="none" xmlns="http://www.w3.org/2000/svg">
<g clip-path="url(#clip0_820_322)">
<path d="M93.1086 0.0507812H432.254C483.673 0.0507812 525.245 41.6234 525.245 93.0422V419.059C525.245 470.478 483.673 512.051 432.254 512.051H93.1086C41.6898 512.051 0.117188 470.478 0.117188 419.059V93.0422C0.117188 41.6234 41.6898 0.0507812 93.1086 0.0507812Z" fill="#1E3101"/>
<path d="M65.7588 132.426C65.9776 131.113 66.8528 130.238 68.3844 130.238H129.868C131.837 130.238 133.15 131.113 133.588 132.645C135.119 138.772 137.089 145.992 139.277 154.744C141.465 163.278 143.872 172.686 146.497 183.189C149.123 193.472 151.749 204.194 154.374 214.915C157 225.637 159.625 236.139 162.251 246.423C164.877 256.707 167.065 266.115 168.815 274.649C170.566 283.182 172.097 290.402 173.191 295.872H173.629C174.504 290.84 176.036 284.276 178.224 276.18C180.412 267.866 183.037 258.676 185.882 248.611C188.726 238.327 191.79 227.825 194.853 217.103C197.916 206.382 200.761 195.66 203.824 184.939C206.668 174.437 209.513 164.59 211.919 155.619C214.545 146.649 216.514 138.99 218.046 132.864C218.484 131.332 219.578 130.457 221.109 130.457H281.061C282.812 130.457 283.906 131.332 284.125 132.864L292.22 358.013C292.439 358.888 292.22 359.763 291.783 360.201C291.126 360.857 290.47 361.076 289.595 361.076H246.053C245.396 361.076 244.74 360.857 244.302 360.638C243.865 360.201 243.646 359.544 243.646 358.669C243.646 346.635 243.646 334.163 243.427 321.035C243.208 307.907 243.208 294.778 242.99 281.431C242.771 268.084 242.771 255.394 242.99 243.141C243.208 230.888 243.427 219.729 243.427 209.226C243.427 198.943 243.427 189.972 243.646 182.313C243.865 174.655 243.865 168.966 243.865 165.247H242.99C241.677 171.155 239.926 178.813 237.738 188.221C235.55 197.63 232.925 208.351 229.861 220.385C226.798 232.201 223.516 244.454 220.234 257.144C216.733 269.835 213.451 282.307 210.169 294.778C206.887 307.25 203.824 318.847 200.761 329.568C197.697 340.29 195.29 349.917 193.321 358.013C192.665 359.982 191.352 360.857 189.602 360.857H151.749C149.561 360.857 148.248 359.982 147.81 358.013C145.841 349.698 143.434 340.29 141.027 329.568C138.402 318.847 135.776 307.469 133.15 295.654C130.525 283.838 127.68 271.804 124.617 259.551C121.554 247.298 118.709 235.264 116.084 223.886C113.458 212.29 111.051 201.568 108.863 191.503C106.675 181.438 104.706 172.467 102.955 164.809H102.299C102.299 172.467 102.299 181.876 102.299 192.597C102.299 203.319 102.08 215.353 101.861 228.262C101.643 241.172 101.205 254.956 100.767 269.178C100.33 283.401 100.111 298.061 99.6733 313.158C99.2357 328.255 98.5793 343.353 97.9229 358.013C97.9229 359.982 97.0477 360.857 95.2973 360.857H56.3503C55.475 360.857 54.8186 360.638 54.1622 360.419C53.5058 359.982 53.5058 359.107 53.7246 357.794L65.7588 132.426Z" fill="#99E83F"/>
<path d="M396.37 364.581C379.085 364.581 363.331 361.299 349.327 354.735C335.324 348.171 324.384 338.325 316.288 324.978C308.192 311.631 304.254 295.002 304.254 275.091C304.254 258.462 308.192 242.927 316.288 228.923C324.165 214.92 335.98 203.542 351.078 195.009C366.394 186.475 384.774 182.318 406.435 182.318C407.529 182.318 409.061 182.318 411.03 182.537C412.999 182.756 415.187 182.756 417.813 182.974V113.833C417.813 112.301 418.469 111.426 420.001 111.426H464.418C465.731 111.426 466.606 112.082 466.606 113.614V321.696C466.606 325.634 466.825 330.01 467.044 334.824C467.481 339.419 467.7 343.795 467.919 347.515C467.919 349.265 467.262 350.359 465.731 351.015C453.697 356.048 441.881 359.549 430.066 361.518C418.469 363.487 407.092 364.581 396.37 364.581ZM417.813 320.821V224.547C416.062 224.11 414.312 223.672 411.905 223.453C409.717 223.234 407.31 223.016 404.685 223.016C395.714 223.016 387.618 224.985 379.96 228.704C372.521 232.424 366.175 237.894 361.362 244.896C356.548 251.898 354.141 261.306 354.141 272.684C354.141 281.436 355.454 288.875 357.861 295.221C360.268 301.566 363.55 306.817 367.707 310.756C371.864 314.694 376.678 317.757 382.586 319.508C388.274 321.477 394.401 322.352 400.746 322.352C404.028 322.352 407.092 322.133 409.936 321.915C412.999 322.133 415.406 321.696 417.813 320.821Z" fill="#99E83F"/>
</g>
<defs>
<clipPath id="clip0_820_322">
<rect width="525.128" height="512" fill="white" transform="translate(0.117188 0.0507812)"/>
</clipPath>
</defs>
</svg>
