<svg width="1025" height="128" viewBox="0 0 1025 128" fill="none" xmlns="http://www.w3.org/2000/svg">
<g clip-path="url(#clip0_746_152)">
<path d="M643.217 95.4809C643.217 77.4659 633.546 68.9321 606.618 63.0539C591.638 59.8302 588.034 56.4168 588.034 51.676C588.034 45.7975 593.344 43.1426 603.205 43.1426C615.151 43.1426 626.909 46.7456 638.097 51.8656V28.1618C630.322 24.1795 618.186 21.1454 603.963 21.1454C577.225 21.1454 563.382 32.7129 563.382 51.8656C563.382 67.0359 570.398 79.1723 598.085 84.4819C614.583 87.8953 617.996 90.5504 617.996 96.0499C617.996 101.36 614.583 104.773 602.826 104.773C589.362 104.773 573.243 100.222 562.813 93.9638V118.806C571.157 122.977 582.156 127.529 602.636 127.529C631.649 127.529 643.217 114.633 643.217 95.4809Z" fill="#1868DB"/>
<path d="M934.875 22.6627V126.011H956.873V47.3148L966.164 68.1739L997.262 126.011H1024.95V22.6627H1002.95V89.4131L994.607 70.0708L969.58 22.6627H934.875Z" fill="#1868DB"/>
<path d="M795.12 22.6627H771.04V125.822H795.12V22.6627Z" fill="#1868DB"/>
<path d="M743.154 95.4809C743.154 77.4659 733.482 68.9321 706.557 63.0539C691.576 59.8302 687.969 56.4168 687.969 51.676C687.969 45.7975 693.278 43.1426 703.14 43.1426C715.085 43.1426 726.846 46.7456 738.036 51.8656V28.1618C730.256 24.1795 718.121 21.1454 703.902 21.1454C677.16 21.1454 663.316 32.7129 663.316 51.8656C663.316 67.0359 670.333 79.1723 698.021 84.4819C714.52 87.8953 717.93 90.5504 717.93 96.0499C717.93 101.36 714.52 104.773 702.759 104.773C689.296 104.773 673.178 100.222 662.751 93.9638V118.806C671.096 122.977 682.095 127.529 702.575 127.529C731.774 127.529 743.154 114.633 743.154 95.4809Z" fill="#1868DB"/>
<path d="M376.791 22.6627V126.011H426.095L433.87 103.635H400.874V22.6627H376.791Z" fill="#1868DB"/>
<path d="M279.133 22.6635V45.0399H305.871V126.013H329.954V45.0399H358.589V22.6635H279.133Z" fill="#1868DB"/>
<path d="M244.05 22.6621H212.382L176.352 126.011H203.848L208.968 108.565C215.036 110.272 221.484 111.409 228.31 111.409C234.947 111.409 241.395 110.461 247.653 108.565L252.773 126.011H280.269L244.05 22.6621ZM228.121 89.9815C223.57 89.9815 219.018 89.2226 214.847 88.0846L228.121 42.9527L241.395 88.0846C237.223 89.2226 232.862 89.9815 228.121 89.9815Z" fill="#1868DB"/>
<path d="M511.426 22.6625H479.758L443.729 125.821H471.225L476.344 108.375C482.413 110.083 488.861 111.22 495.687 111.22C502.324 111.22 508.772 110.272 515.03 108.375L520.149 125.821H547.646L511.426 22.6625ZM495.498 89.9814C490.946 89.9814 486.395 89.2231 482.223 88.0851L495.498 42.953L508.772 88.0851C504.6 89.2231 500.049 89.9814 495.498 89.9814Z" fill="#1868DB"/>
<path d="M881.588 22.6625H849.918L813.886 125.821H841.383L846.508 108.375C852.573 110.083 859.019 111.22 865.845 111.22C872.481 111.22 878.934 110.272 885.189 108.375L890.307 125.821H917.805L881.588 22.6625ZM865.845 89.9814C861.298 89.9814 856.745 89.2231 852.573 88.0851L865.845 42.953L879.124 88.0851C874.762 89.2231 870.399 89.9814 865.845 89.9814Z" fill="#1868DB"/>
<path d="M38.2865 58.4991C36.3902 56.4132 33.5457 56.6028 32.2183 59.0681L1.30846 120.698C0.170671 123.163 1.87735 126.008 4.53219 126.008H47.3888C48.7162 126.008 50.0436 125.249 50.6126 123.922C60.0941 104.769 54.4052 75.7557 38.2865 58.4991Z" fill="#1868DB"/>
<path d="M60.8517 2.37029C43.5953 29.6771 44.733 59.8285 56.1109 82.5843C67.4889 105.34 76.2119 122.596 76.7809 123.924C77.3499 125.251 78.6771 126.009 80.0044 126.009H122.861C125.516 126.009 127.413 123.165 126.085 120.7C126.085 120.7 68.437 5.40438 66.9198 2.55992C65.7821 -0.0949196 62.5583 -0.284553 60.8517 2.37029Z" fill="#1868DB"/>
</g>
<defs>
<clipPath id="clip0_746_152">
<rect width="1024" height="127.057" fill="white" transform="translate(0.950195 0.471436)"/>
</clipPath>
</defs>
</svg>
