<svg width="1024" height="298" viewBox="0 0 1024 298" fill="none" xmlns="http://www.w3.org/2000/svg">
<g clip-path="url(#clip0_806_246)">
<path d="M409.441 139.986C420.961 139.986 427.284 141.576 433.724 147.234C439.809 152.563 440.882 162.577 440.882 168.137V208.344H422.885V201.585C418.176 206.537 412.384 209.671 403.371 209.91C389.186 210.319 378.016 201.86 378.016 189.219C378.016 169.764 399.216 165.491 419.977 165.491H422.311C422.311 160.114 419.87 155.139 408.911 155.139C401.471 155.139 395.158 157.464 390.664 161.523L379.77 150.886C387.267 143.676 397.802 139.986 409.441 139.986ZM958.99 139.989C983.685 139.989 993.603 158.732 993.603 176.146V181.183H943.572C943.903 188.002 951.781 193.866 961.063 194.207C969.738 194.548 974.487 191.198 978.958 186.455L991.293 195.279C983.804 204.54 974.538 209.917 961.412 209.917C940.616 209.917 923.63 197.275 923.63 174.961C923.63 157.112 934.994 139.989 958.99 139.989ZM912.419 111.453V208.341H893.922V200.921C889.602 205.793 882.529 209.919 872.72 209.919C863.289 209.919 855.104 206.812 849.06 200.902C842.579 194.567 838.993 185.339 838.993 174.969C838.993 154.69 852.89 139.992 872.079 139.992C880.467 139.992 887.427 142.514 892.77 147.444V111.453H912.419ZM578.967 139.98C600.398 139.98 615.906 154.678 615.906 174.951C615.906 195.219 600.398 209.919 578.967 209.919C557.542 209.919 542.023 195.219 542.023 174.951C542.023 154.678 557.542 139.98 578.967 139.98ZM480.542 120.524V141.576H498.61V157.45H480.542V184.865C480.542 190.287 482.093 193.511 488.119 193.511C492.584 193.511 496.158 192.968 498.61 192.165V207.185C494.531 208.903 489.276 209.914 484.066 209.914C475.848 209.914 470.3 208.252 466.655 204.703C462.793 200.921 461.147 195.282 461.147 185.794V157.45H447.772V141.576H461.147V120.524H480.542ZM666.298 140.006C673.906 139.948 679.037 141.917 683.16 146.112C688.673 151.727 689.751 158.503 689.751 166.657V208.349H670.134V174.586C670.134 168.478 669.561 163.939 667.452 161.347C665.768 159.247 663.396 157.367 658.956 157.613C655.283 157.833 652.394 159.213 650.399 161.398C648.116 163.862 646.8 167.351 646.8 172.063V208.349H627.163V141.594H645.98V148.84C650.102 143.621 658.786 140.05 666.298 140.006ZM827.726 141.584V208.344H808.089V141.584H827.726ZM530.711 141.584V208.344H511.088V141.584H530.711ZM302.937 111.453L344.952 177.234V111.453H366.296V208.341H341.215L298.035 140.347V208.341H276.671V111.453H302.937ZM716.715 141.576L727.73 182.95L738.365 141.576H758.715L769.721 183.05L780.728 141.576H801.311L779.521 208.341H761.482L748.313 166.37L736.604 208.341H717.12L695.26 141.576H716.715ZM422.311 179.331H420.568C417.536 179.331 410.207 179.683 404.671 181.174C400.855 182.199 397.666 184.645 397.666 188.055C397.666 192.87 402.597 194.985 407.037 194.985C416.601 194.985 422.311 189.059 422.311 181.375V179.331ZM875.967 156.9C864.589 156.9 858.644 165.981 858.644 174.969C858.644 183.914 864.589 193.011 875.967 193.011C887.378 193.011 893.322 183.914 893.322 174.969C893.322 165.981 887.378 156.9 875.967 156.9ZM578.967 156.907C567.572 156.907 561.645 165.986 561.645 174.951C561.645 183.92 567.572 192.991 578.967 192.991C590.331 192.991 596.288 183.92 596.288 174.951C596.288 165.986 590.331 156.907 578.967 156.907ZM958.324 155.062C950.101 155.241 944.486 160.679 943.612 167.469H972.968C972.109 160.198 968.025 154.866 958.324 155.062ZM1008.38 111.355C1016.99 111.355 1024 118.217 1024 126.632C1024 135.054 1016.99 141.912 1008.38 141.912C999.765 141.912 992.755 135.054 992.755 126.632C992.755 118.217 999.765 111.355 1008.38 111.355ZM1008.38 114.066C1001.28 114.066 995.526 119.693 995.526 126.632C995.526 133.574 1001.28 139.207 1008.38 139.207C1015.47 139.207 1021.23 133.574 1021.23 126.632C1021.23 119.693 1015.47 114.066 1008.38 114.066ZM1009.26 117.804C1013.54 117.804 1015.55 119.693 1015.55 123.06C1015.55 126.102 1013.71 127.58 1011.28 127.862L1015.94 135.262H1012.5L1008.04 128.112H1005.64V135.262H1002.37V117.804H1009.26ZM520.892 112.01C527.246 112.01 532.515 116.811 532.515 122.743C532.515 128.674 527.246 133.477 520.892 133.477C514.538 133.477 509.279 128.674 509.279 122.743C509.279 116.811 514.538 112.01 520.892 112.01ZM817.882 112.01C824.239 112.01 829.506 116.811 829.506 122.743C829.506 128.674 824.239 133.477 817.882 133.477C811.556 133.477 806.269 128.674 806.269 122.743C806.269 116.811 811.556 112.01 817.882 112.01ZM1012.28 122.937C1012.28 120.592 1010.06 120.47 1008.04 120.511H1005.64V125.402L1008.33 125.401C1010.27 125.386 1012.28 125.168 1012.28 122.937Z" fill="black"/>
<path d="M145.647 226.523C140.114 232.863 132.937 241.879 134.492 248.454V248.46C135.647 253.908 143.421 257.257 143.421 257.257L160.139 266.211L149.289 275.566L162.308 279.618C162.308 279.618 150.376 291.707 149.004 292.917C145.595 293.485 141.983 293.825 138.104 293.825C110.48 293.825 72.0738 277.719 62.5722 277.602C51.1152 277.462 36.7238 283.99 36.7238 283.99L44.2376 275.954C44.2376 275.954 34.4022 277.921 24.8681 277.121L38.3104 268.099C26.5015 267.719 16.1598 264.246 11.2856 260.841C11.2856 260.841 33.0285 259.14 62.5099 259.452C74.4421 259.576 94.6685 260.757 94.6685 260.757C84.6696 256.558 75.3224 251.032 71.3117 241.314L90.376 244.154C82.3727 239.31 70.7521 227.188 68.611 217.804L89.8683 225.169C86.0952 221.122 72.9477 208.961 70.5846 194.863L87.4079 205.319C82.9998 200.933 71.0481 177.634 73.0814 170.822L88.7621 181.239C81.2548 172.068 72.4699 147.764 78.4503 138.301C83.2167 156.615 93.831 163.283 93.831 163.283C86.8613 153.312 71.8336 117.986 86.1848 102.431C89.9566 137.661 105.113 149.555 105.113 149.555C92.5677 129.8 78.2737 69.1558 104.935 56.8899C99.7141 95.8553 112.315 117.035 112.315 117.035C104.362 81.1368 104.623 30.2724 131.623 25.6237C118.365 63.9721 127.784 93.545 127.784 93.545C125.851 3.8474 155.1 5.35817 155.1 5.35817C155.1 5.35817 150.29 30.8305 150.29 76.2225V207.311C150.29 216.366 149.506 221.76 145.647 226.523ZM163.009 258.256C174.776 259.152 183.136 259.927 191.531 260.968C194.705 261.363 195.967 264.99 196.386 266.689C192.365 265.703 186.011 265.441 186.011 265.441L185.661 269.205C185.661 269.205 191.098 267.672 197.049 267.603C197.049 267.603 209.256 267.55 208.677 275.694C205.344 273.418 198.528 274.324 196.603 274.637C190.474 275.634 184.641 278.44 177.889 281.963C171.71 285.188 165.048 288.657 157.22 291.003C160.645 287.71 169.607 277.944 169.607 277.944L157.668 273.834L167.442 265.409L152.421 257.375C156.17 257.693 159.717 258.009 163.009 258.256ZM164.284 245.017H218.611V67.864H168.892V178.24L154.465 164.283V76.2931C154.208 24.5859 160.452 0.0683594 160.452 0.0683594C143.623 0.0683594 134.89 15.8221 132.944 20.4772C123.494 21.5086 115.748 26.8872 110.562 37.3418C107.628 43.2592 106.164 48.9932 105.641 51.7973C85.7265 56.3383 84.0022 91.381 85.3097 97.6768L54.3793 67.864H0.196057V245.017H49.9103V137.955C49.9103 137.955 73.9474 160.456 73.9474 160.45C76.1339 166.907 78.2568 169.49 78.2568 169.49L68.8188 161.492C67.114 178.876 72.0609 187.791 76.6546 194.376L65.182 184.765C64.29 202.02 72.7243 212.608 77.8907 217.158L62.7215 209.802C61.6828 220.13 72.1686 235.258 78.2568 238.179L65.4598 236.293C68.2423 250.534 78.2568 255.652 78.2568 255.652C78.2568 255.652 56.3983 255.202 46.341 255.202C18.3645 255.202 0 257.816 0 257.816C0 257.816 12.3815 269.978 28.1998 270.539L14.1109 279.121C24.3423 282.421 34.066 281.276 34.066 281.276L25.9289 290.891C25.9289 290.891 51.5397 281.163 62.3515 281.9C70.9585 282.489 111.128 297.962 138.104 297.962C156.199 297.962 169.312 291.124 179.847 285.622C186.273 282.266 191.82 279.552 197.284 278.724C207.061 277.24 211.462 280.758 211.462 280.758C212.46 276.694 215.483 266.434 199.632 263.926C199.005 261.136 196.26 257.491 192.158 256.876C183.642 255.6 147.797 252.87 146.747 252.81C143.674 252.625 133.333 250.654 142.844 237.197C143.561 236.183 148.37 230.2 148.37 230.2L164.284 245.017Z" fill="#1C57A5"/>
<path d="M134.492 248.453V248.46C135.647 253.908 143.421 257.257 143.421 257.257L160.139 266.211L149.289 275.566L162.308 279.618C162.308 279.618 150.376 291.707 149.004 292.917C145.595 293.485 141.983 293.825 138.104 293.825C110.48 293.825 72.0738 277.719 62.5722 277.602C51.1152 277.462 36.7238 283.99 36.7238 283.99L44.2376 275.953C44.2376 275.953 34.4023 277.921 24.8681 277.121L38.3104 268.099C26.5015 267.719 16.1598 264.246 11.2856 260.841C11.2856 260.841 33.0285 259.14 62.5099 259.452C74.4421 259.576 94.6685 260.756 94.6685 260.756C84.6696 256.558 75.3224 251.032 71.3117 241.314L90.376 244.154C82.3727 239.31 70.7521 227.188 68.611 217.804L89.8683 225.169C86.0952 221.121 72.9477 208.961 70.5846 194.863L87.4079 205.319C82.9998 200.933 71.0481 177.634 73.0814 170.822L88.7621 181.239C81.2548 172.068 72.4699 147.764 78.4503 138.301C83.2167 156.615 93.831 163.283 93.831 163.283C86.8613 153.312 71.8337 117.986 86.1848 102.431C89.9566 137.661 105.113 149.554 105.113 149.554C92.5677 129.8 78.2737 69.1556 104.935 56.8898C99.7141 95.8552 112.315 117.035 112.315 117.035C104.362 81.1367 104.623 30.2723 131.623 25.6236C118.365 63.972 127.784 93.5449 127.784 93.5449C125.851 3.84728 155.1 5.35805 155.1 5.35805C155.1 5.35805 150.29 30.8303 150.29 76.2224V207.311C150.29 216.366 149.506 221.76 145.647 226.523C140.114 232.863 132.937 241.879 134.492 248.453Z" fill="#FFFFFE"/>
<path d="M163.009 258.256C174.775 259.152 183.136 259.926 191.531 260.968C194.704 261.363 195.966 264.99 196.386 266.689C192.365 265.703 186.01 265.441 186.01 265.441L185.661 269.205C185.661 269.205 191.097 267.672 197.049 267.603C197.049 267.603 209.255 267.55 208.676 275.694C205.343 273.417 198.528 274.324 196.603 274.637C190.474 275.634 184.641 278.439 177.889 281.963C171.71 285.188 165.048 288.657 157.22 291.003C160.645 287.71 169.606 277.944 169.606 277.944L157.668 273.834L167.442 265.409L152.421 257.375C156.169 257.693 159.717 258.009 163.009 258.256Z" fill="#FFFFFE"/>
</g>
<defs>
<clipPath id="clip0_806_246">
<rect width="1024" height="297.894" fill="white" transform="translate(0 0.0683594)"/>
</clipPath>
</defs>
</svg>
