<svg width="526" height="513" viewBox="0 0 526 513" fill="none" xmlns="http://www.w3.org/2000/svg">
<g clip-path="url(#clip0_820_361)">
<path d="M432.997 0.0507812H93.8513C42.4936 0.0507812 0.859863 41.6845 0.859863 93.0422V419.059C0.859863 470.417 42.4936 512.051 93.8513 512.051H432.997C484.354 512.051 525.988 470.417 525.988 419.059V93.0422C525.988 41.6845 484.354 0.0507812 432.997 0.0507812Z" fill="#000B1D"/>
<path d="M93.6372 358.731V135.037C93.6372 132.923 94.3416 131.749 95.7505 131.514C99.7408 131.283 105.847 131.107 114.069 130.986C122.287 130.87 131.211 130.752 140.841 130.633C150.468 130.518 159.275 130.459 167.262 130.457C186.516 130.457 201.84 132.571 213.233 136.798C224.622 141.025 233.37 146.368 239.478 152.827C245.12 158.518 249.344 165.457 251.808 173.083C253.798 179.353 254.865 185.88 254.978 192.458C255.103 199.487 253.908 206.477 251.456 213.066C249.44 218.469 246.586 223.521 243 228.037C240.327 231.468 237.115 234.442 233.49 236.844C238.502 239.5 243.174 242.753 247.404 246.531C252.884 251.444 257.369 257.364 260.615 263.969C264.627 272.433 266.559 281.732 266.25 291.094C266.471 304.491 262.329 317.597 254.449 328.435C246.578 339.24 235.306 347.636 220.632 353.623C205.951 359.611 188.396 362.606 167.966 362.606H144.54C137.143 362.606 130.332 362.547 124.108 362.429C117.883 362.308 112.482 362.191 107.904 362.077C103.324 361.956 99.3904 361.897 96.103 361.901C94.4566 361.67 93.6347 360.613 93.6372 358.731ZM141.194 172.378V221.344H165.148C171.49 221.344 177.713 221.461 183.819 221.696C188.2 221.728 192.566 222.201 196.853 223.105C199.963 220.449 202.534 217.22 204.427 213.594C206.561 209.212 207.589 204.374 207.421 199.503C207.666 193.97 206.053 188.514 202.841 184.003C199.428 179.763 194.829 176.636 189.632 175.02C182.505 172.828 175.068 171.816 167.615 172.025H157.398C154.343 172.025 151.584 172.084 149.12 172.202C146.654 172.323 144.012 172.382 141.194 172.378ZM141.194 262.912V321.037C145.184 321.274 149.177 321.45 153.171 321.566C157.162 321.687 161.976 321.746 167.615 321.742C176.234 321.871 184.829 320.804 193.154 318.571C199.594 317.035 205.424 313.598 209.887 308.708C213.712 304.055 215.715 298.171 215.524 292.151C215.659 286.302 214.066 280.542 210.944 275.594C207.889 270.899 202.253 267.494 194.035 265.378C190.842 264.607 187.608 264.019 184.348 263.617C180.081 263.112 175.786 262.877 171.49 262.912L141.194 262.912Z" fill="white"/>
<path d="M338.487 287.246C339.34 293.826 341.625 300.139 345.181 305.741C349.121 311.614 354.692 316.206 361.21 318.951C368.37 322.243 377.705 323.887 389.215 323.883C396.832 323.915 404.436 323.267 411.937 321.946C419.018 320.68 425.932 318.611 432.545 315.781C433.717 314.845 434.306 315.429 434.306 317.542V351.008C434.364 351.92 434.182 352.831 433.778 353.65C433.374 354.29 432.833 354.832 432.192 355.235C424.898 358.686 417.208 361.229 409.295 362.81C399.077 364.729 388.691 365.614 378.295 365.452C361.617 365.452 347.643 362.868 336.374 357.702C325.721 353.008 316.312 345.891 308.896 336.917C301.971 328.461 296.819 318.697 293.749 308.207C290.708 297.853 289.166 287.117 289.169 276.326C289.136 264.543 290.98 252.831 294.629 241.627C298.144 230.699 303.703 220.538 311.01 211.684C318.217 202.934 327.23 195.844 337.431 190.9C348.903 185.608 361.437 183.017 374.067 183.326C385.753 183.031 397.36 185.316 408.062 190.019C417.105 194.115 425.022 200.34 431.136 208.161C436.907 215.609 441.319 224.016 444.17 232.997C446.945 241.651 448.37 250.681 448.396 259.77C448.396 264.938 448.22 269.635 447.869 273.86C447.516 278.087 446.834 282.48 446.602 284.357C446.484 285.122 446.103 285.823 445.525 286.337C444.946 286.852 444.206 287.148 443.432 287.175C442.023 287.175 338.487 287.246 338.487 287.246ZM338.487 253.076H384.636C390.271 253.076 394.44 253.017 397.141 252.9C398.857 252.901 400.569 252.724 402.249 252.371V250.258C402.179 247.503 401.704 244.773 400.84 242.156C398.939 236.146 395.118 230.926 389.963 227.298C384.808 223.671 378.605 221.836 372.306 222.076C366.378 221.718 360.473 223.092 355.312 226.032C350.152 228.972 345.959 233.35 343.244 238.633C340.841 243.138 339.232 248.024 338.487 253.076Z" fill="white"/>
<path d="M316.296 123.863H421.625C423.268 123.863 424.094 124.806 424.094 126.686V155.264C424.149 155.647 424.114 156.038 423.992 156.406C423.869 156.773 423.663 157.107 423.389 157.381C423.115 157.655 422.781 157.861 422.414 157.983C422.046 158.106 421.655 158.141 421.272 158.086H315.943C314.295 158.086 313.473 157.149 313.473 155.264V126.333C313.473 124.691 314.411 123.863 316.296 123.863Z" fill="white"/>
</g>
<defs>
<clipPath id="clip0_820_361">
<rect width="525.128" height="512" fill="white" transform="translate(0.859863 0.0507812)"/>
</clipPath>
</defs>
</svg>
