<svg width="1024" height="312" viewBox="0 0 1024 312" fill="none" xmlns="http://www.w3.org/2000/svg">
<g clip-path="url(#clip0_824_208)">
<path d="M938.858 151.448H903.191C880.18 151.448 867.524 168.707 867.524 198.621V305.623H798.49V151.448H769.726C746.715 151.448 734.058 168.707 734.058 198.621V305.623H665.025V93.9201H734.058V126.136C745.564 100.823 760.521 93.9201 783.533 93.9201H867.524V126.136C879.029 100.823 893.987 93.9201 916.998 93.9201H940.009L938.858 151.448ZM648.917 215.88H506.247C509.699 240.041 524.656 252.698 548.818 252.698C567.227 252.698 579.883 244.644 584.485 231.988L645.465 249.246C630.508 286.064 593.69 307.925 548.818 307.925C474.031 307.925 439.515 249.246 439.515 198.621C439.515 149.147 469.429 90.4684 544.216 90.4684C623.604 90.4684 650.067 150.298 650.067 195.17C650.067 205.525 650.067 211.277 648.917 215.88ZM583.335 175.61C582.184 157.201 568.378 141.093 545.366 141.093C523.506 141.093 510.849 150.298 506.247 175.61H583.335ZM319.856 305.623H379.685L455.622 95.0707H386.589L349.771 218.181L312.953 93.9201H243.919L319.856 305.623ZM39.1191 305.623H107.002V151.448H172.584V305.623H240.467V93.9201H107.002V81.2639C107.002 67.4572 117.357 58.2527 132.315 58.2527H172.584V0.724609H121.96C72.4854 0.724609 39.1191 31.7898 39.1191 76.6617V93.9201H0V151.448H39.1191V305.623Z" fill="#404145"/>
<path d="M981.429 311.376C1004.44 311.376 1024 291.816 1024 268.805C1024 245.794 1004.44 226.234 981.429 226.234C958.418 226.234 938.858 245.794 938.858 268.805C938.858 291.816 958.418 311.376 981.429 311.376Z" fill="#1DBF73"/>
</g>
<defs>
<clipPath id="clip0_824_208">
<rect width="1024" height="310.652" fill="white" transform="translate(0 0.724609)"/>
</clipPath>
</defs>
</svg>
