<svg width="514" height="513" viewBox="0 0 514 513" fill="none" xmlns="http://www.w3.org/2000/svg">
<g clip-path="url(#clip0_882_24600)">
<path fill-rule="evenodd" clip-rule="evenodd" d="M256.639 0.0507812C324.704 0.0507813 389.982 27.0221 438.111 75.0314C486.24 123.041 513.279 188.155 513.279 256.051C513.279 306.683 498.227 356.178 470.027 398.277C441.827 440.376 401.746 473.188 354.851 492.564C307.956 511.94 256.355 517.009 206.572 507.132C156.788 497.254 111.06 472.872 75.168 437.07C39.2764 401.268 14.8339 355.653 4.93137 305.994C-4.97112 256.335 0.111199 204.862 19.5356 158.084C38.96 111.306 71.8542 71.3242 114.058 43.1946C156.262 15.0649 205.881 0.0507813 256.639 0.0507812Z" fill="#0032A0"/>
<path fill-rule="evenodd" clip-rule="evenodd" d="M256.639 6.84961C322.901 6.84961 386.45 33.1047 433.304 79.8392C480.158 126.574 506.481 189.959 506.481 256.051C506.481 305.339 491.828 353.52 464.375 394.501C436.922 435.482 397.902 467.422 352.25 486.284C306.597 505.145 256.362 510.08 207.898 500.465C159.433 490.849 114.916 467.115 79.975 432.264C45.0341 397.412 21.239 353.009 11.5988 304.668C1.95863 256.328 6.90632 206.222 25.8162 160.686C44.7261 115.15 76.7489 76.2303 117.835 48.8477C158.921 21.465 207.225 6.84961 256.639 6.84961Z" fill="white"/>
<path fill-rule="evenodd" clip-rule="evenodd" d="M256.762 13.6465C321.108 13.6465 382.819 39.1641 428.318 84.5858C473.818 130.007 499.379 191.612 499.379 255.848C499.379 303.751 485.15 350.579 458.491 390.408C431.832 430.238 393.94 461.282 349.607 479.614C305.275 497.945 256.493 502.742 209.43 493.396C162.366 484.051 119.136 460.983 85.2054 427.111C51.2747 393.238 28.1676 350.082 18.8062 303.1C9.44474 256.117 14.2494 207.418 32.6125 163.162C50.9757 118.905 82.0725 81.0783 121.971 54.4649C161.869 27.8514 208.777 13.6465 256.762 13.6465Z" fill="#0032A0"/>
<path fill-rule="evenodd" clip-rule="evenodd" d="M256.815 86.9883C301.705 86.9883 344.757 104.78 376.499 136.45C408.241 168.119 426.074 211.073 426.074 255.86C426.074 289.26 416.147 321.91 397.548 349.681C378.95 377.451 352.516 399.096 321.588 411.878C290.66 424.659 256.628 428.003 223.795 421.487C190.962 414.972 160.803 398.888 137.132 375.271C113.461 351.654 97.3403 321.564 90.8094 288.806C84.2786 256.048 87.6304 222.093 100.441 191.236C113.252 160.378 134.946 134.004 162.781 115.448C190.615 96.8924 223.339 86.9883 256.815 86.9883Z" fill="white"/>
<path fill-rule="evenodd" clip-rule="evenodd" d="M256.466 94.0781C299.46 94.0781 340.694 111.116 371.095 141.443C401.497 171.769 418.576 212.902 418.576 255.79C418.576 287.774 409.069 319.039 391.256 345.633C373.443 372.226 348.125 392.953 318.503 405.193C288.881 417.432 256.286 420.635 224.84 414.395C193.393 408.155 164.508 392.754 141.836 370.138C119.165 347.522 103.725 318.708 97.4702 287.339C91.2151 255.97 94.4254 223.455 106.695 193.906C118.965 164.357 139.743 139.101 166.402 121.332C193.061 103.562 224.403 94.0781 256.466 94.0781Z" fill="#0032A0"/>
<path fill-rule="evenodd" clip-rule="evenodd" d="M256.47 100.354C297.764 100.354 337.367 116.73 366.567 145.88C395.766 175.03 412.17 214.566 412.17 255.79C412.17 286.533 403.039 316.585 385.93 342.147C368.822 367.708 344.504 387.631 316.054 399.396C287.603 411.16 256.297 414.238 226.094 408.241C195.891 402.243 168.148 387.439 146.373 365.701C124.598 343.963 109.769 316.267 103.761 286.115C97.753 255.963 100.836 224.71 112.621 196.307C124.406 167.905 144.362 143.629 169.967 126.549C195.572 109.47 225.675 100.354 256.47 100.354Z" fill="white"/>
<path fill-rule="evenodd" clip-rule="evenodd" d="M292.703 325.474C272.369 331.905 252.844 340.596 234.768 351.998C212.155 366.261 194.689 381.184 179.621 403.587L171.578 415.545L70.873 160.943L78.7952 158.577C113.321 148.266 150.161 146.039 185.882 150.012C211.772 152.891 237.016 159.092 261.353 168.369L264.388 169.526L268.353 178.976C284.751 184.132 301.441 188.655 318.288 192.037C333.579 195.108 349.455 197.36 365.07 197.546C389.852 197.842 406.358 194.228 418.069 181.205C423.587 175.068 427.596 168.134 431.099 155.744C437.818 169.72 441.579 184.231 441.895 200.373C442.276 219.883 437.261 240.011 428.125 256.346C417.906 274.617 403.639 289.193 386.639 301.255C362.44 318.425 333.447 329.873 305.084 338.055L298.486 339.958L292.703 325.474Z" fill="white"/>
<path fill-rule="evenodd" clip-rule="evenodd" d="M80.9651 165.843L173.329 399.356C189.425 375.424 207.752 360.073 230.723 345.585C250.11 333.356 272.155 323.458 297.165 316.198L302.982 330.769C334.569 321.658 361.276 309.954 382.251 295.071C399.09 283.123 412.192 269.301 421.507 252.645C433.462 231.27 438.475 201.158 430.405 175.978C419.848 197.505 396.212 205.501 364.98 205.128C335.64 204.778 299.915 197.056 262.717 185.143L258.652 175.455C234.256 166.155 209.743 160.295 185.043 157.548C150.779 153.737 114.852 155.722 80.9651 165.843Z" fill="#0032A0"/>
<path fill-rule="evenodd" clip-rule="evenodd" d="M415.975 199.715C410.943 204.219 404.414 206.964 396.346 208.891C386.865 211.156 375.768 212.055 364.898 211.926C348.379 211.728 330.48 209.529 314.302 206.281C294.705 202.346 278.126 198.629 256.939 192.105L252.363 180.498C230.001 172.218 208.013 168.241 184.292 165.603C152.95 162.118 120.355 165.218 93.5236 172.517L111.884 218.51C127.745 212.614 146.588 208.99 168.424 207.264C195.739 205.104 227.608 206.007 264.312 210.726L268.261 220.812C308.078 225.134 342.521 225.718 369.051 220.629C389.039 216.796 407.303 210.131 415.975 199.715ZM146.498 305.219L176.172 379.554C190.26 362.566 203.459 351.41 224.787 337.958C249.066 322.644 278.493 311.447 301.976 305.99L307.388 319.531C332.703 312.961 355.857 304.535 377.01 289.527C392.252 278.712 406.147 265.323 415.312 248.934C419.147 242.078 422.351 234.658 424.449 226.681C409.815 242.678 391.517 254.194 372.567 262.772C348.401 273.711 321.848 280.144 293.087 283.471L288.868 272.836C257.197 272.376 233.996 274.499 208.419 280.248C186.57 285.159 162.599 293.732 146.498 305.219Z" fill="white"/>
<path fill-rule="evenodd" clip-rule="evenodd" d="M274.739 197.24C269.077 195.722 263.21 194.037 256.939 192.105L268.298 220.817C274.12 221.449 279.825 221.999 285.409 222.465L274.739 197.24ZM293.089 283.472L307.388 319.532C313.176 318.03 318.85 316.43 324.414 314.677L310.199 281.072C304.586 282.005 298.882 282.802 293.089 283.472Z" fill="#D9E0E7"/>
<path fill-rule="evenodd" clip-rule="evenodd" d="M268.29 220.816L293.087 283.473C298.881 282.803 304.586 282.006 310.199 281.072L285.409 222.466C279.823 222 274.114 221.448 268.29 220.816Z" fill="#082E86"/>
<path fill-rule="evenodd" clip-rule="evenodd" d="M478.476 243.965H474.618L468.593 245.941L469.519 249.783L473.684 248.631V268.424H478.476V243.965Z" fill="white"/>
<path fill-rule="evenodd" clip-rule="evenodd" d="M43.1347 243.834H39.2767L33.2518 245.81L34.1779 249.652L38.3431 248.501V268.294H43.1347V243.834Z" fill="white"/>
<path fill-rule="evenodd" clip-rule="evenodd" d="M68.6561 255.544C68.6545 251.99 68.1169 249.138 66.4431 246.888C64.8711 244.774 62.2889 243.352 58.6985 243.352C53.7977 243.352 49.6646 246.975 49.6648 252.122C49.6648 257.034 53.8276 259.762 58.427 259.768C60.8161 259.772 62.6554 258.863 63.785 257.67C63.6213 261.345 61.6334 264.241 58.4388 264.39C56.3089 264.49 54.5335 263.604 52.8199 261.935L50.3639 265.556C53.0095 267.487 55.2397 268.533 58.4775 268.529C61.1178 268.526 63.6464 267.248 65.4074 265.315C67.7736 262.718 68.6577 258.885 68.6561 255.544ZM59.0807 255.931C56.8271 255.841 54.5346 254.548 54.4143 251.981C54.2836 249.192 56.0626 247.557 58.7868 247.545C62.0719 247.531 63.7251 249.552 63.6286 251.765C63.5322 253.984 61.8104 256.041 59.0807 255.931Z" fill="white"/>
<path fill-rule="evenodd" clip-rule="evenodd" d="M454.495 264.09C457.421 261.451 461.545 258.845 463.7 255.479C464.463 254.287 465.065 252.739 465.057 251.327C465.041 248.411 463.481 245.919 461.166 244.656C459.778 243.898 458.031 243.582 456.419 243.613C454.854 243.644 453.065 244.256 451.666 245.098C450.13 246.024 449.008 247.388 447.901 249.075L451.233 251.609C452.563 249.648 454.158 247.857 456.542 247.863C458.577 247.868 460.177 249.356 460.196 251.574C460.212 253.465 458.912 255.106 457.568 256.235L447.516 264.679V268.294H465.245V264.09H454.495Z" fill="white"/>
<path fill-rule="evenodd" clip-rule="evenodd" d="M251.697 66.4496L259.638 66.7333L260.027 55.8389L265.871 55.9977L272.871 67.206L282.19 67.5389L274.032 54.8465C278.459 53.6448 281.637 49.5988 281.837 44.3749C281.992 40.322 280.558 37.3957 278.518 35.5079C275.722 32.9206 271.559 32.1571 266.729 31.9846L252.946 31.4922L251.697 66.4496ZM266.871 39.19C270.554 39.3216 273.862 40.3217 273.719 44.3233C273.576 48.3397 270.201 49.0862 266.523 48.9548L260.281 48.7319L260.63 38.9671L266.871 39.19Z" fill="white"/>
<path fill-rule="evenodd" clip-rule="evenodd" d="M172.914 86.7145L180.244 83.6498L176.191 73.954L180.118 72.2581C186.392 69.5486 188.855 66.9008 189.984 63.9794C191.113 61.0585 190.96 57.9769 189.656 54.7801C188.124 51.0262 185.109 48.8859 182.468 48.0254C178.848 46.8461 175.106 47.743 170.648 49.6064L159.371 54.3208L172.914 86.7145ZM174.687 55.8589C178.088 54.4374 180.868 54.7973 182.21 58.0091C183.609 61.3552 182.069 63.6469 178.436 65.1654L173.397 67.272L169.528 58.0159L174.687 55.8589Z" fill="white"/>
<path fill-rule="evenodd" clip-rule="evenodd" d="M110.743 135.461L119.391 126.609C122.207 123.727 124.591 120.661 125.502 116.625C126.78 110.955 125.535 104.916 120.761 100.252C116.197 95.7925 110.924 94.5091 105.694 95.3935C101.079 96.1737 97.7851 98.6697 94.6241 101.905L85.7231 111.015L110.743 135.461ZM100.512 106.032C104.556 101.894 110.802 101.909 115.033 106.043C119.316 110.228 119.436 116.338 115.345 120.525L111.184 124.784L96.3513 110.291L100.512 106.032Z" fill="white"/>
<path fill-rule="evenodd" clip-rule="evenodd" d="M216.161 35.2156C226.514 32.7402 236.263 38.7793 238.598 48.542C240.932 58.3047 234.882 68.0471 224.616 70.5762C214.351 73.1053 204.514 67.0125 202.18 57.2497C199.846 47.487 205.809 37.691 216.161 35.2156ZM217.885 42.4249C223.683 41.0385 228.975 44.7035 230.35 50.4542C231.725 56.2047 228.615 61.8345 222.865 63.2532C217.115 64.6719 211.776 60.9746 210.401 55.2241C209.026 49.4735 212.087 43.8113 217.885 42.4249Z" fill="white"/>
<path fill-rule="evenodd" clip-rule="evenodd" d="M418.896 97.0959C425.763 105.229 424.754 116.653 417.084 123.128C409.414 129.604 397.992 128.582 391.116 120.55C384.24 112.519 385.259 100.993 392.928 94.5177C400.598 88.0423 412.029 88.9625 418.896 97.0959ZM413.232 101.878C417.078 106.433 416.185 112.807 411.667 116.622C407.149 120.436 400.722 120.191 396.869 115.693C393.016 111.195 393.917 104.763 398.435 100.949C402.953 97.1348 409.387 97.3225 413.232 101.878Z" fill="white"/>
<path fill-rule="evenodd" clip-rule="evenodd" d="M325.184 41.2806L296.949 34.5703L295.257 41.691L305.437 44.1102L299.041 71.0215L306.868 72.8816L313.264 45.9705L323.492 48.4013L325.184 41.2806Z" fill="white"/>
<path fill-rule="evenodd" clip-rule="evenodd" d="M347.901 49.937L340.545 46.9336L327.323 79.318L334.679 82.3214L347.901 49.937Z" fill="white"/>
<path fill-rule="evenodd" clip-rule="evenodd" d="M143.854 62.5371L121.802 77.2248L141.193 106.338L163.536 91.4564L159.575 85.509L143.844 95.9861L140.028 90.2563L153.65 81.1835L149.738 75.3096L136.116 84.3825L132.376 78.7677L147.815 68.4845L143.854 62.5371Z" fill="white"/>
<path fill-rule="evenodd" clip-rule="evenodd" d="M392.395 74.4469L384.967 69.8948L364.853 85.7937L369.819 60.6105L362.28 55.9902L355.917 93.2705L361.982 96.9875L392.395 74.4469Z" fill="white"/>
<path fill-rule="evenodd" clip-rule="evenodd" d="M351.817 419.192C348.817 421.17 346.485 423.807 345.936 427.166C345.561 429.463 345.929 432.09 347.641 434.801C349.138 437.171 351.396 438.549 353.859 438.944C355.931 439.276 358.018 438.859 360.234 438.376C363.093 437.754 369.159 434.952 370.882 437.94C371.988 439.858 370.284 441.781 368.773 442.777C365.197 445.135 360.817 445.148 357.218 444.675L355.93 451.766C362.892 453.179 369.19 451.162 372.704 448.673C375.516 446.681 377.75 444.367 378.582 441.207C379.228 438.749 379.018 435.72 377.03 432.689C374.997 429.589 371.997 428.47 368.903 428.507C366.09 428.541 363.061 429.528 360.434 430.224C358.73 430.676 354.517 432.166 353.513 429.231C352.906 427.454 354.242 425.932 355.581 425.043C358.568 423.063 361.702 423.013 365.578 423.316L366.029 416.159C360.918 415.353 355.53 416.744 351.817 419.192Z" fill="white"/>
<path fill-rule="evenodd" clip-rule="evenodd" d="M333.3 429.582L308.263 438.254L319.713 471.307L345.079 462.52L342.741 455.768L324.882 461.954L322.628 455.449L338.093 450.092L335.783 443.423L320.318 448.78L318.11 442.406L335.639 436.334L333.3 429.582Z" fill="white"/>
<path fill-rule="evenodd" clip-rule="evenodd" d="M316.899 432.69L322.652 430.697L327.617 423.507L319.981 423.068L316.899 432.69Z" fill="white"/>
<path fill-rule="evenodd" clip-rule="evenodd" d="M299.579 440.773L290.933 441.834L285.087 466.798L273.298 443.998L264.522 445.075L282.748 478.212L289.809 477.346L299.579 440.773Z" fill="white"/>
<path fill-rule="evenodd" clip-rule="evenodd" d="M255.247 479.966L246.875 479.164L244.503 471.221L230.158 469.847L226.254 477.189L218.137 476.411L236.514 442.9L243.597 443.579L255.247 479.966ZM242.334 463.959L239.081 453.067L233.728 463.134L242.334 463.959Z" fill="white"/>
<path fill-rule="evenodd" clip-rule="evenodd" d="M165.465 459.938L158.136 455.814L159.183 447.591L146.624 440.526L140.081 445.658L132.974 441.66L163.346 418.461L169.548 421.949L165.465 459.938ZM160.141 440.072L161.577 428.796L152.605 435.833L160.141 440.072Z" fill="white"/>
<path fill-rule="evenodd" clip-rule="evenodd" d="M198.807 434.725L191.229 432.338L180.72 465.702L204.815 473.291L206.961 466.476L190.445 461.273L198.807 434.725Z" fill="white"/>
<path fill-rule="evenodd" clip-rule="evenodd" d="M155.848 227.998L161.803 243.014L170.494 240.937L167.162 232.507L172.427 231.58C174.988 231.112 177.99 230.744 180.59 231.141C183.38 231.566 185.858 232.576 187.839 233.879C193.014 237.281 197.068 244.678 195.175 250.939C194.29 253.863 192.123 256.206 188.179 257.47L178.284 260.642L174.517 251.112L165.983 253.554L172.577 270.183L191.596 264.41C197.828 262.521 203.265 257.304 203.391 250.386L203.739 231.372L215.587 244.637L210.536 245.2V251.826L220.494 250.554L226.425 257.496L233.01 256.616L203.477 223.578L197.402 224.155L197.099 233.744C194.043 229.415 189.766 227.099 184.648 225.954C176.664 224.166 166.498 225.672 155.848 227.998Z" fill="white"/>
</g>
<defs>
<clipPath id="clip0_882_24600">
<rect width="513.279" height="512" fill="white" transform="translate(0 0.0507812)"/>
</clipPath>
</defs>
</svg>
