<svg width="1025" height="322" viewBox="0 0 1025 322" fill="none" xmlns="http://www.w3.org/2000/svg">
<g clip-path="url(#clip0_750_373)">
<path d="M295.508 228.364C294.067 224.32 292.383 220.408 290.782 216.783C288.317 211.207 285.734 205.62 283.237 200.22L283.039 199.792C260.763 151.552 236.854 102.653 211.976 54.4539L210.92 52.4074C208.382 47.4855 205.759 42.3963 203.067 37.3958C199.874 31.0675 196 25.1052 191.513 19.6145C186.463 13.5893 180.149 8.74348 173.018 5.41881C165.887 2.09414 158.112 0.371571 150.241 0.372559C142.37 0.373547 134.596 2.09807 127.465 5.42453C120.335 8.751 114.023 13.5984 108.974 19.6249C104.492 25.1168 100.621 31.0778 97.4271 37.403C94.7113 42.4484 92.0634 47.5848 89.5029 52.5521L88.5223 54.4534C63.644 102.656 39.7348 151.555 17.459 199.791L17.1344 200.492C14.68 205.805 12.1424 211.298 9.71798 216.781C8.11589 220.403 6.43452 224.312 4.99234 228.366C0.861721 239.41 -0.454523 251.306 1.16193 262.983C2.87615 274.784 7.64925 285.935 15.0085 295.329C22.3678 304.722 32.0579 312.034 43.1191 316.54C51.4739 319.92 60.4071 321.648 69.4221 321.627C72.2539 321.626 75.0834 321.462 77.8963 321.135C89.2981 319.682 100.295 315.971 110.241 310.222C123.288 302.892 136.173 292.15 150.249 276.8C164.325 292.15 177.211 302.892 190.257 310.222C200.203 315.972 211.2 319.682 222.602 321.135C225.415 321.462 228.245 321.626 231.077 321.627C240.091 321.648 249.023 319.92 257.378 316.54C268.439 312.034 278.13 304.722 285.489 295.329C292.849 285.935 297.623 274.785 299.338 262.983C300.952 251.305 299.636 239.409 295.508 228.364ZM150.249 245.099C132.824 223.011 121.642 202.5 117.719 185.305C116.112 178.862 115.732 172.175 116.601 165.591C117.286 160.765 119.059 156.157 121.786 152.113C125.141 147.762 129.453 144.239 134.388 141.814C139.324 139.391 144.751 138.13 150.251 138.13C155.753 138.131 161.179 139.392 166.114 141.817C171.049 144.242 175.36 147.765 178.715 152.116C181.442 156.162 183.215 160.77 183.901 165.597C184.767 172.184 184.387 178.873 182.776 185.318C178.849 202.511 167.67 223.016 150.249 245.099ZM278.985 260.076C277.786 268.327 274.448 276.124 269.303 282.691C264.157 289.26 257.382 294.373 249.647 297.523C241.827 300.657 233.34 301.767 224.975 300.751C216.28 299.631 207.9 296.769 200.341 292.337C188.728 285.813 176.972 275.796 163.743 261.103C184.802 235.136 197.953 211.201 202.822 189.883C205.013 180.918 205.488 171.62 204.222 162.481C203.074 154.607 200.15 147.096 195.673 140.513C190.427 133.411 183.584 127.638 175.696 123.659C167.806 119.681 159.091 117.608 150.251 117.608C141.413 117.608 132.697 119.68 124.807 123.657C116.917 127.635 110.074 133.407 104.829 140.509C100.352 147.09 97.429 154.599 96.2794 162.471C95.0128 171.607 95.4853 180.9 97.6719 189.862C102.538 211.189 115.689 235.13 136.755 261.105C123.527 275.796 111.771 285.813 100.157 292.338C92.5978 296.769 84.219 299.632 75.5238 300.751C67.1581 301.767 58.671 300.657 50.8499 297.523C43.1158 294.373 36.3404 289.26 31.1949 282.692C26.0495 276.124 22.7125 268.327 21.5144 260.076C20.362 251.688 21.3428 243.146 24.3663 235.236C25.5156 232.005 26.8605 228.835 28.5267 225.068C30.8839 219.739 33.3854 214.323 35.8051 209.086L36.13 208.382C58.2812 160.417 82.0579 111.79 106.8 63.8499L107.785 61.9414C110.304 57.0541 112.909 52.0009 115.538 47.1182C118.051 42.0856 121.094 37.334 124.615 32.9438C127.734 29.1754 131.65 26.1413 136.08 24.0585C140.511 21.9755 145.348 20.8953 150.245 20.8949C155.142 20.8945 159.98 21.974 164.411 24.0562C168.842 26.1383 172.757 29.1718 175.877 32.9397C179.4 37.3266 182.444 42.0766 184.956 47.1089C187.56 51.9482 190.142 56.9559 192.64 61.7983L193.698 63.852C218.44 111.787 242.215 160.413 264.369 208.386L264.569 208.818C267.03 214.144 269.575 219.648 271.972 225.07C273.64 228.842 274.987 232.015 276.134 235.234C279.156 243.145 280.137 251.687 278.985 260.076Z" fill="#FF385C"/>
<path d="M418.973 242.514C410.95 242.514 403.571 240.906 396.831 237.691C390.093 234.475 384.317 229.972 379.182 224.184C374.048 218.396 370.198 211.643 367.31 204.247C364.422 196.529 363.138 188.168 363.138 179.164C363.138 170.16 364.743 161.477 367.63 153.759C370.519 146.042 374.69 139.288 379.825 133.178C384.959 127.39 391.056 122.566 398.115 119.35C405.175 116.135 412.556 114.526 420.898 114.526C428.921 114.526 435.98 116.135 442.398 119.672C448.816 122.888 453.95 127.711 458.122 133.821L459.084 118.064H488.607V239.298H459.084L458.122 221.612C453.95 228.043 448.495 233.188 441.436 237.047C435.017 240.585 427.316 242.514 418.973 242.514ZM426.675 213.572C432.45 213.572 437.585 211.964 442.398 209.07C446.891 205.854 450.421 201.674 453.309 196.529C455.876 191.384 457.159 185.274 457.159 178.52C457.159 171.767 455.876 165.657 453.309 160.512C450.742 155.367 446.891 151.187 442.398 147.971C437.906 144.755 432.45 143.468 426.675 143.468C420.898 143.468 415.764 145.077 410.95 147.971C406.459 151.187 402.929 155.367 400.041 160.512C397.474 165.657 396.19 171.767 396.19 178.52C396.19 185.274 397.474 191.384 400.041 196.529C402.608 201.674 406.459 205.854 410.95 209.07C415.764 211.964 420.898 213.572 426.675 213.572ZM538.987 85.2631C538.987 88.8004 538.345 92.0163 536.74 94.5889C535.136 97.1615 532.89 99.4125 530.002 101.021C527.113 102.628 523.905 103.271 520.696 103.271C517.487 103.271 514.278 102.628 511.39 101.021C508.502 99.4125 506.256 97.1615 504.651 94.5889C503.046 91.6947 502.405 88.8004 502.405 85.2631C502.405 81.7258 503.046 78.51 504.651 75.9374C506.256 73.0432 508.502 71.1138 511.39 69.5059C514.278 67.898 517.487 67.2549 520.696 67.2549C523.905 67.2549 527.113 67.898 530.002 69.5059C532.89 71.1138 535.136 73.3649 536.74 75.9374C538.024 78.51 538.987 81.4043 538.987 85.2631ZM504.651 238.977V117.742H536.74V238.977H504.651ZM622.418 149.578V149.9C620.814 149.257 618.889 148.935 617.283 148.614C615.359 148.292 613.754 148.292 611.829 148.292C602.844 148.292 596.105 150.864 591.612 156.332C586.799 161.798 584.553 169.516 584.553 179.485V238.977H552.464V117.742H581.986L582.948 136.073C586.158 129.64 590.008 124.817 595.463 121.28C600.597 117.742 606.694 116.135 613.754 116.135C616 116.135 618.246 116.456 620.172 116.777C621.135 117.099 621.776 117.099 622.418 117.421V149.578ZM635.254 238.977V67.898H667.343V133.178C671.836 127.39 676.97 122.887 683.388 119.35C689.806 116.135 696.865 114.205 704.888 114.205C712.909 114.205 720.29 115.812 727.028 119.029C733.768 122.245 739.543 126.746 744.678 132.535C749.812 138.323 753.662 145.077 756.55 152.473C759.439 160.191 760.722 168.551 760.722 177.556C760.722 186.56 759.118 195.243 756.23 202.96C753.342 210.678 749.171 217.431 744.036 223.541C738.902 229.33 732.805 234.153 725.745 237.369C718.686 240.585 711.305 242.192 702.962 242.192C694.94 242.192 687.88 240.585 681.462 237.047C675.044 233.831 669.91 229.008 665.739 222.898L664.776 238.655L635.254 238.977ZM697.186 213.572C702.962 213.572 708.096 211.964 712.909 209.07C717.402 205.854 720.931 201.674 723.82 196.529C726.387 191.384 727.671 185.274 727.671 178.52C727.671 171.767 726.387 165.657 723.82 160.512C720.931 155.367 717.402 151.187 712.909 147.971C708.417 144.755 702.962 143.468 697.186 143.468C691.41 143.468 686.276 145.077 681.462 147.971C676.97 151.187 673.44 155.367 670.552 160.512C667.984 165.657 666.702 171.767 666.702 178.52C666.702 185.274 667.984 191.384 670.552 196.529C673.119 201.674 676.97 205.854 681.462 209.07C686.276 211.964 691.41 213.572 697.186 213.572ZM772.916 238.977V117.742H802.438L803.401 133.5C806.93 127.711 811.744 123.209 817.841 119.672C823.938 116.135 830.997 114.526 839.02 114.526C848.005 114.526 855.706 116.777 862.124 120.959C868.862 125.139 873.997 131.249 877.527 138.967C881.057 146.684 882.981 156.009 882.981 166.622V239.298H850.893V170.802C850.893 162.442 848.967 155.688 845.116 150.864C841.266 146.042 836.131 143.468 829.393 143.468C824.579 143.468 820.408 144.433 816.557 146.684C813.027 148.935 810.14 151.829 807.893 156.01C805.647 159.869 804.685 164.692 804.685 169.516V238.977H772.916ZM899.026 238.977V67.898H931.115V133.178C935.608 127.39 940.742 122.887 947.16 119.35C953.578 116.135 960.638 114.205 968.66 114.205C976.682 114.205 984.062 115.812 990.802 119.029C997.54 122.245 1003.32 126.746 1008.45 132.535C1013.59 138.323 1017.43 145.077 1020.32 152.473C1023.22 160.191 1024.49 168.551 1024.49 177.556C1024.49 186.56 1022.89 195.243 1020 202.96C1017.11 210.678 1012.95 217.431 1007.81 223.541C1002.67 229.33 996.577 234.153 989.517 237.369C982.458 240.585 975.077 242.192 966.735 242.192C958.712 242.192 951.653 240.585 945.235 237.047C938.816 233.831 933.682 229.008 929.511 222.898L928.548 238.655L899.026 238.977ZM961.279 213.572C967.055 213.572 972.19 211.964 977.003 209.07C981.495 205.854 985.025 201.674 987.913 196.529C990.48 191.384 991.764 185.274 991.764 178.52C991.764 171.767 990.48 165.657 987.913 160.512C985.346 155.367 981.495 151.187 977.003 147.971C972.51 144.755 967.055 143.468 961.279 143.468C955.503 143.468 950.369 145.077 945.556 147.971C941.063 151.187 937.533 155.367 934.645 160.512C931.757 165.657 930.794 171.767 930.794 178.52C930.794 185.274 932.078 191.384 934.645 196.529C937.212 201.674 941.063 205.854 945.556 209.07C950.369 211.964 955.182 213.572 961.279 213.572Z" fill="#FF385C"/>
</g>
<defs>
<clipPath id="clip0_750_373">
<rect width="1024" height="321.255" fill="white" transform="translate(0.491211 0.372559)"/>
</clipPath>
</defs>
</svg>
