<svg width="1024" height="286" viewBox="0 0 1024 286" fill="none" xmlns="http://www.w3.org/2000/svg">
<g clip-path="url(#clip0_743_302)">
<path d="M438.568 103.359L422.685 141.13C420.688 140.125 415.927 139.001 411.43 139.001C406.934 139.001 402.424 140.125 398.047 142.254C389.411 146.632 383.036 155.387 383.036 168.017V237.183H343.507V102.592H381.912V121.478H382.666C391.672 109.469 405.426 100.595 423.32 100.595C429.826 100.595 436.082 101.852 438.581 103.346L438.568 103.359Z" fill="#FF4500"/>
<path d="M430.924 170.278C430.924 131.383 457.572 100.609 497.472 100.609C533.616 100.609 559.511 127.006 559.511 164.155C559.511 170.662 558.889 176.785 557.514 182.67H466.949C471.075 196.807 483.335 207.811 501.718 207.811C511.848 207.811 526.237 204.187 533.987 198.183L546.246 227.701C534.859 235.451 517.482 239.207 502.22 239.207C459.569 239.207 430.924 211.686 430.924 170.291V170.278ZM466.195 157.899H523.102C523.102 140.641 511.345 131.502 496.957 131.502C480.69 131.502 469.687 142.003 466.182 157.899H466.195Z" fill="#FF4500"/>
<path d="M898.68 42.1409C911.945 42.1409 922.816 53.0251 922.816 66.2765C922.816 79.528 911.931 90.4122 898.68 90.4122C885.428 90.4122 874.544 79.528 874.544 66.2765C874.544 53.0251 885.428 42.1409 898.68 42.1409ZM918.438 237.197H878.908V102.606H918.438V237.197Z" fill="#FF4500"/>
<path d="M669.186 44.5742L669.067 115.368H668.313C657.429 104.986 645.672 100.728 630.291 100.728C592.388 100.728 567.248 131.251 567.248 169.895C567.248 208.538 590.762 239.194 629.035 239.194C645.05 239.194 660.18 233.692 669.94 221.181H671.064V237.197H708.716V44.5742H669.186ZM671.064 205.113H669.755L660.934 195.948C655.194 201.674 647.338 205.113 638.16 205.113C618.799 205.113 605.256 189.798 605.256 169.934C605.256 150.07 618.799 134.756 638.16 134.756C657.522 134.756 671.064 150.07 671.064 169.934V205.113Z" fill="#FF4500"/>
<path d="M820.15 44.5742L820.031 115.368H819.277C808.393 104.986 796.636 100.728 781.255 100.728C743.352 100.728 718.211 131.251 718.211 169.895C718.211 208.538 741.725 239.194 779.998 239.194C796.014 239.194 811.143 233.692 820.903 221.181H822.028V237.197H859.679V44.5742H820.15ZM821.842 205.113H820.533L811.712 195.948C805.972 201.674 798.117 205.113 788.939 205.113C769.577 205.113 756.035 189.798 756.035 169.934C756.035 150.07 769.577 134.756 788.939 134.756C808.3 134.756 821.842 150.07 821.842 169.934V205.113Z" fill="#FF4500"/>
<path d="M995.103 102.606H1024V136.25H995.103V237.197H955.574V136.25H926.809V102.606H955.574V66.0251H995.103V102.606Z" fill="#FF4500"/>
<path d="M142.83 0.310059C63.943 0.310059 0 64.253 0 143.14C0 182.577 15.989 218.285 41.8307 244.14L14.6269 271.344C9.23106 276.739 13.0531 285.97 20.6839 285.97H142.83C221.717 285.97 285.66 222.028 285.66 143.14C285.66 64.253 221.717 0.310059 142.83 0.310059Z" fill="#FF4500"/>
<path d="M223.794 175.145C242.214 175.145 257.147 160.212 257.147 141.791C257.147 123.371 242.214 108.438 223.794 108.438C205.373 108.438 190.44 123.371 190.44 141.791C190.44 160.212 205.373 175.145 223.794 175.145Z" fill="url(#paint0_radial_743_302)"/>
<path d="M60.1342 175.144C78.5548 175.144 93.4877 160.212 93.4877 141.791C93.4877 123.37 78.5548 108.438 60.1342 108.438C41.7135 108.438 26.7807 123.37 26.7807 141.791C26.7807 160.212 41.7135 175.144 60.1342 175.144Z" fill="url(#paint1_radial_743_302)"/>
<path d="M142.91 241.852C195.498 241.852 238.13 209.878 238.13 170.437C238.13 130.995 195.498 99.0217 142.91 99.0217C90.321 99.0217 47.6895 130.995 47.6895 170.437C47.6895 209.878 90.321 241.852 142.91 241.852Z" fill="url(#paint2_radial_743_302)"/>
<path d="M114.767 163.613C114.211 175.621 106.184 179.985 96.8335 179.985C87.4834 179.985 80.3551 173.465 80.9106 161.457C81.466 149.449 89.4936 141.593 98.8437 141.593C108.194 141.593 115.322 151.618 114.767 163.626V163.613Z" fill="url(#paint3_radial_743_302)"/>
<path d="M171.066 163.613C171.621 175.621 179.649 179.985 188.999 179.985C198.349 179.985 205.477 173.465 204.922 161.457C204.366 149.449 196.339 141.593 186.989 141.593C177.639 141.593 170.51 151.618 171.066 163.626V163.613Z" fill="url(#paint4_radial_743_302)"/>
<path d="M105.311 158.243C107.356 158.243 109.014 156.437 109.014 154.21C109.014 151.982 107.356 150.176 105.311 150.176C103.266 150.176 101.608 151.982 101.608 154.21C101.608 156.437 103.266 158.243 105.311 158.243Z" fill="#FFC49C"/>
<path d="M193.363 158.243C195.408 158.243 197.066 156.437 197.066 154.21C197.066 151.982 195.408 150.176 193.363 150.176C191.318 150.176 189.66 151.982 189.66 154.21C189.66 156.437 191.318 158.243 193.363 158.243Z" fill="#FFC49C"/>
<path d="M142.91 189.322C131.325 189.322 120.216 189.891 109.953 190.935C108.194 191.107 107.083 192.932 107.771 194.559C113.524 208.3 127.093 217.954 142.91 217.954C158.727 217.954 172.309 208.3 178.049 194.559C178.736 192.932 177.612 191.107 175.866 190.935C165.591 189.891 154.495 189.322 142.91 189.322Z" fill="url(#paint5_radial_743_302)"/>
<path d="M195.056 89.3146C208.108 89.3146 218.689 78.7337 218.689 65.6815C218.689 52.6292 208.108 42.0483 195.056 42.0483C182.004 42.0483 171.423 52.6292 171.423 65.6815C171.423 78.7337 182.004 89.3146 195.056 89.3146Z" fill="url(#paint6_radial_743_302)"/>
<path d="M142.566 102.037C139.735 102.037 137.448 100.86 137.448 99.0349C137.448 77.8616 154.68 60.6294 175.853 60.6294C178.683 60.6294 180.971 62.9173 180.971 65.7475C180.971 68.5776 178.683 70.8656 175.853 70.8656C160.327 70.8656 147.697 83.4955 147.697 99.0216C147.697 100.847 145.409 102.024 142.579 102.024L142.566 102.037Z" fill="url(#paint7_radial_743_302)"/>
<path d="M83.0795 162.515C83.5953 151.194 91.1203 143.788 99.8621 143.788C108.141 143.788 114.542 152.239 114.78 162.74C115.005 150.996 107.995 141.593 98.8437 141.593C89.692 141.593 81.466 149.594 80.9106 161.695C80.3551 173.796 87.4834 179.985 96.8335 179.985C97.0583 179.985 97.2964 179.985 97.5212 179.985C89.0043 179.774 82.577 173.65 83.0927 162.528L83.0795 162.515Z" fill="#842123"/>
<path d="M202.739 162.515C202.224 151.194 194.699 143.788 185.957 143.788C177.678 143.788 171.277 152.239 171.039 162.74C170.814 150.996 177.824 141.593 186.975 141.593C196.325 141.593 204.353 149.594 204.908 161.695C205.464 173.796 198.336 179.985 188.985 179.985C188.761 179.985 188.523 179.985 188.298 179.985C196.815 179.774 203.242 173.65 202.726 162.528L202.739 162.515Z" fill="#842123"/>
</g>
<defs>
<radialGradient id="paint0_radial_743_302" cx="0" cy="0" r="1" gradientUnits="userSpaceOnUse" gradientTransform="translate(224.495 121.776) scale(67.4212 58.6564)">
<stop stop-color="#FEFFFF"/>
<stop offset="0.4" stop-color="#FEFFFF"/>
<stop offset="0.51" stop-color="#F9FCFC"/>
<stop offset="0.62" stop-color="#EDF3F5"/>
<stop offset="0.7" stop-color="#DEE9EC"/>
<stop offset="0.72" stop-color="#D8E4E8"/>
<stop offset="0.76" stop-color="#CCD8DF"/>
<stop offset="0.8" stop-color="#C8D5DD"/>
<stop offset="0.83" stop-color="#CCD6DE"/>
<stop offset="0.85" stop-color="#D8DBE2"/>
<stop offset="0.88" stop-color="#EDE3E9"/>
<stop offset="0.9" stop-color="#FFEBEF"/>
</radialGradient>
<radialGradient id="paint1_radial_743_302" cx="0" cy="0" r="1" gradientUnits="userSpaceOnUse" gradientTransform="translate(60.8351 121.775) scale(67.4212 58.6564)">
<stop stop-color="#FEFFFF"/>
<stop offset="0.4" stop-color="#FEFFFF"/>
<stop offset="0.51" stop-color="#F9FCFC"/>
<stop offset="0.62" stop-color="#EDF3F5"/>
<stop offset="0.7" stop-color="#DEE9EC"/>
<stop offset="0.72" stop-color="#D8E4E8"/>
<stop offset="0.76" stop-color="#CCD8DF"/>
<stop offset="0.8" stop-color="#C8D5DD"/>
<stop offset="0.83" stop-color="#CCD6DE"/>
<stop offset="0.85" stop-color="#D8DBE2"/>
<stop offset="0.88" stop-color="#EDE3E9"/>
<stop offset="0.9" stop-color="#FFEBEF"/>
</radialGradient>
<radialGradient id="paint2_radial_743_302" cx="0" cy="0" r="1" gradientUnits="userSpaceOnUse" gradientTransform="translate(144.96 113.348) scale(203.374 142.362)">
<stop stop-color="#FEFFFF"/>
<stop offset="0.4" stop-color="#FEFFFF"/>
<stop offset="0.51" stop-color="#F9FCFC"/>
<stop offset="0.62" stop-color="#EDF3F5"/>
<stop offset="0.7" stop-color="#DEE9EC"/>
<stop offset="0.72" stop-color="#D8E4E8"/>
<stop offset="0.76" stop-color="#CCD8DF"/>
<stop offset="0.8" stop-color="#C8D5DD"/>
<stop offset="0.83" stop-color="#CCD6DE"/>
<stop offset="0.85" stop-color="#D8DBE2"/>
<stop offset="0.88" stop-color="#EDE3E9"/>
<stop offset="0.9" stop-color="#FFEBEF"/>
</radialGradient>
<radialGradient id="paint3_radial_743_302" cx="0" cy="0" r="1" gradientUnits="userSpaceOnUse" gradientTransform="translate(98.7238 168.948) scale(18.1837 26.3409)">
<stop stop-color="#FF6600"/>
<stop offset="0.5" stop-color="#FF4500"/>
<stop offset="0.7" stop-color="#FC4301"/>
<stop offset="0.82" stop-color="#F43F07"/>
<stop offset="0.92" stop-color="#E53812"/>
<stop offset="1" stop-color="#D4301F"/>
</radialGradient>
<radialGradient id="paint4_radial_743_302" cx="0" cy="0" r="1" gradientUnits="userSpaceOnUse" gradientTransform="translate(187.225 168.948) rotate(180) scale(18.1837 26.3409)">
<stop stop-color="#FF6600"/>
<stop offset="0.5" stop-color="#FF4500"/>
<stop offset="0.7" stop-color="#FC4301"/>
<stop offset="0.82" stop-color="#F43F07"/>
<stop offset="0.92" stop-color="#E53812"/>
<stop offset="1" stop-color="#D4301F"/>
</radialGradient>
<radialGradient id="paint5_radial_743_302" cx="0" cy="0" r="1" gradientUnits="userSpaceOnUse" gradientTransform="translate(142.738 221.953) scale(59.9093 39.5402)">
<stop stop-color="#172E35"/>
<stop offset="0.29" stop-color="#0E1C21"/>
<stop offset="0.73" stop-color="#030708"/>
<stop offset="1"/>
</radialGradient>
<radialGradient id="paint6_radial_743_302" cx="0" cy="0" r="1" gradientUnits="userSpaceOnUse" gradientTransform="translate(195.572 43.7163) scale(52.5959 51.544)">
<stop stop-color="#FEFFFF"/>
<stop offset="0.4" stop-color="#FEFFFF"/>
<stop offset="0.51" stop-color="#F9FCFC"/>
<stop offset="0.62" stop-color="#EDF3F5"/>
<stop offset="0.7" stop-color="#DEE9EC"/>
<stop offset="0.72" stop-color="#D8E4E8"/>
<stop offset="0.76" stop-color="#CCD8DF"/>
<stop offset="0.8" stop-color="#C8D5DD"/>
<stop offset="0.83" stop-color="#CCD6DE"/>
<stop offset="0.85" stop-color="#D8DBE2"/>
<stop offset="0.88" stop-color="#EDE3E9"/>
<stop offset="0.9" stop-color="#FFEBEF"/>
</radialGradient>
<radialGradient id="paint7_radial_743_302" cx="0" cy="0" r="1" gradientUnits="userSpaceOnUse" gradientTransform="translate(173.658 96.9585) scale(43.1136 43.1136)">
<stop offset="0.48" stop-color="#7A9299"/>
<stop offset="0.67" stop-color="#172E35"/>
<stop offset="0.75"/>
<stop offset="0.82" stop-color="#172E35"/>
</radialGradient>
<clipPath id="clip0_743_302">
<rect width="1024" height="285.66" fill="white" transform="translate(0 0.310059)"/>
</clipPath>
</defs>
</svg>
