<svg width="526" height="513" viewBox="0 0 526 513" fill="none" xmlns="http://www.w3.org/2000/svg">
<g clip-path="url(#clip0_820_429)">
<path fill-rule="evenodd" clip-rule="evenodd" d="M0.0258789 0.0507812V512.051H525.154V0.0507812H0.0258789ZM21.9062 21.9311H503.274V490.17H21.9062V21.9311Z" fill="#FFEDCC"/>
<path d="M503.272 21.9258H21.9048V490.165H503.272V21.9258Z" fill="#261A00"/>
<path fill-rule="evenodd" clip-rule="evenodd" d="M115.993 358.013C115.993 360.202 115.336 361.077 113.586 361.077H79.0147C77.2643 361.077 76.6079 360.42 76.6079 358.232V129.364C76.6079 127.613 77.2643 126.957 79.0147 126.957H196.512C198.7 126.957 198.919 127.613 199.357 129.364L202.857 159.121C203.295 161.309 202.201 161.966 200.013 161.966H115.993V227.607H193.011C194.762 227.607 194.762 228.044 194.762 230.013V259.99C194.762 262.178 194.105 262.396 192.355 262.396H115.993V358.013ZM387.746 184.94C413.565 184.94 446.386 196.537 446.386 247.955V358.013C446.386 360.202 445.729 360.858 443.979 360.858H411.815C410.064 360.858 409.408 359.764 409.408 358.013V250.362C409.408 229.576 401.531 218.198 380.088 218.198C369.586 218.198 361.052 220.386 353.613 223.231C355.801 229.576 356.676 238.328 356.676 247.518V358.013C356.676 360.202 356.02 360.858 354.269 360.858H322.324C320.136 360.858 319.48 359.764 319.48 358.013V250.362C319.48 229.576 310.728 218.198 289.941 218.198C280.314 218.198 273.969 220.386 266.967 222.793V358.232C266.967 359.764 266.529 360.639 264.779 360.639H232.177C230.427 360.639 229.77 359.983 229.77 358.232V223.449C229.77 221.261 229.77 213.822 228.676 202.007C228.676 200.256 229.333 200.256 230.864 199.6C248.15 192.817 272.437 184.721 296.505 184.721C312.259 184.721 326.044 187.784 337.422 196.318C351.425 190.629 366.96 184.94 387.746 184.94Z" fill="#FFEDCC"/>
</g>
<defs>
<clipPath id="clip0_820_429">
<rect width="525.128" height="512" fill="white" transform="translate(0.0258789 0.0507812)"/>
</clipPath>
</defs>
</svg>
