<svg width="1024" height="318" viewBox="0 0 1024 318" fill="none" xmlns="http://www.w3.org/2000/svg">
<g clip-path="url(#clip0_806_217)">
<path d="M0 0.430664V317.599H915.257C975.065 317.599 1024 268.664 1024 208.855V0.430664H0Z" fill="#D2282E"/>
<path d="M235.611 190.732C237.423 173.514 225.642 158.109 208.425 154.484C222.924 150.859 230.173 139.985 230.173 120.048C230.173 100.112 216.581 81.9883 185.77 81.9883H99.6814V236.041H190.301C214.768 236.948 234.704 217.917 235.611 193.45C235.611 192.544 235.611 191.638 235.611 190.732ZM138.648 116.424H176.708C183.051 115.517 188.488 120.048 189.395 126.392C189.395 127.298 189.395 127.298 189.395 128.204C189.395 135.454 183.957 139.985 175.802 139.985H137.742V116.424H138.648ZM138.648 200.7V174.42H177.614C187.582 174.42 193.926 178.951 193.926 187.107C193.926 195.263 188.488 200.7 178.52 200.7H138.648Z" fill="white"/>
<path d="M453.097 199.794H379.696V174.42H451.285V139.985H379.696L380.602 118.236H453.097V81.9883H344.354V236.041H453.097V199.794Z" fill="white"/>
<path d="M633.43 236.041C661.522 236.947 686.896 221.542 698.676 196.169L666.053 180.763C660.616 193.45 647.929 201.606 634.336 202.512C611.681 202.512 592.651 184.388 592.651 161.733C592.651 160.827 592.651 159.921 592.651 159.015C591.745 136.36 608.963 117.33 631.618 115.517C632.524 115.517 633.43 115.517 634.336 115.517C647.929 116.423 660.616 124.579 666.053 137.266L698.676 121.861C686.896 96.4872 661.522 81.0819 633.43 81.9881C588.12 81.9881 552.779 112.799 552.779 159.015C552.779 205.231 587.214 236.041 633.43 236.041Z" fill="white"/>
<path d="M860.885 236.041C909.819 236.041 933.381 209.762 933.381 171.702V81.9883H893.508V170.795C893.508 188.919 879.009 203.418 860.885 203.418C842.761 203.418 828.262 188.919 828.262 170.795V81.9883H788.389V172.608C788.389 208.856 811.95 236.041 860.885 236.041Z" fill="white"/>
<path d="M516.531 54.8027H498.407V263.228H516.531V54.8027Z" fill="white"/>
<path d="M752.141 54.8027H734.018V263.228H752.141V54.8027Z" fill="white"/>
<path d="M299.044 54.8027H280.92V263.228H299.044V54.8027Z" fill="white"/>
</g>
<defs>
<clipPath id="clip0_806_217">
<rect width="1024" height="317.168" fill="white" transform="translate(0 0.430664)"/>
</clipPath>
</defs>
</svg>
