<svg width="912" height="513" viewBox="0 0 912 513" fill="none" xmlns="http://www.w3.org/2000/svg">
<g clip-path="url(#clip0_795_4021)">
<path d="M835.511 0.575555H76.2241C56.0955 0.512536 36.7525 8.3826 22.3856 22.4808C15.2848 29.5927 9.67182 38.0478 5.8742 47.3526C2.07658 56.6574 0.170441 66.6254 0.267049 76.6749V415.495C0.157729 425.508 2.05193 435.442 5.83823 444.712C9.62453 453.982 15.2265 462.402 22.3145 469.475C29.3928 476.552 37.7986 482.161 47.0498 485.981C56.3009 489.801 66.2153 491.757 76.2241 491.736H835.511C855.663 491.642 874.957 483.566 889.167 469.276C903.376 454.986 911.344 435.647 911.325 415.495V76.6038C911.401 66.6165 909.493 56.7137 905.712 47.4694C901.931 38.2252 896.353 29.8234 889.301 22.7512C882.249 15.6791 873.863 10.0773 864.629 6.27063C855.395 2.46398 845.498 0.528204 835.511 0.575555Z" fill="white"/>
<path d="M884.655 76.6038C884.731 70.119 883.513 63.6842 881.073 57.6755C878.633 51.6669 875.019 46.2051 870.443 41.6094C865.867 37.0137 860.421 33.3764 854.423 30.9102C848.425 28.4439 841.996 27.1982 835.511 27.2459H623.286L745.045 230.723L756.282 232.145L763.394 241.462V250.139L771.075 251.703L778.187 261.376V269.768L786.153 271.191L794.189 279.938V299.283C803.757 307.922 814.54 315.11 826.194 320.62C836.933 324.745 838.142 341.956 844.614 351.13C852.722 364.501 863.817 369.835 861.47 377.303C856.064 397.288 835.582 430.999 816.521 432.564H741.133V464.853H835.582C842.082 464.825 848.512 463.513 854.504 460.994C860.495 458.474 865.93 454.796 870.497 450.17C875.063 445.544 878.671 440.062 881.112 434.038C883.554 428.015 884.782 421.568 884.726 415.068V76.6038" fill="#BF0D3E"/>
<path d="M365.473 433.062H328.988C328.988 341.885 359.783 291.46 396.695 281.432C401.744 280.507 399.326 255.615 392.925 248.005H371.589C368.175 248.005 370.167 241.604 370.167 241.604L387.449 204.693L385.102 194.593H321.236L373.723 157.895C376.141 61.0995 475.426 53.5607 535.238 93.8862C570.799 117.427 573.501 164.083 570.799 196.3C570.372 198.363 561.553 197.012 561.553 197.012C561.553 197.012 555.508 232.572 571.297 232.572H641.066C669.514 231.434 696.967 250.708 696.967 250.708L703.652 226.313L550.814 27.246H76.2242C63.0955 27.1693 50.468 32.2816 41.0905 41.4701C36.5182 46.0978 32.9072 51.5849 30.4659 57.6149C28.0246 63.645 26.8012 70.0987 26.8663 76.6039V415.495C26.7845 421.981 28.0008 428.418 30.4436 434.427C32.8864 440.437 36.5063 445.897 41.0905 450.486C50.4102 459.805 63.0448 465.048 76.2242 465.066H384.32C376.781 452.122 368.175 437.4 365.544 433.062" fill="#041E42"/>
<path d="M95.2845 361.158C95.2847 354.479 97.2693 347.95 100.986 342.4C104.703 336.85 109.985 332.53 116.162 329.987C122.338 327.444 129.131 326.793 135.678 328.117C142.225 329.441 148.231 332.68 152.934 337.423C157.637 342.166 160.825 348.2 162.094 354.758C163.362 361.316 162.654 368.103 160.059 374.257C157.463 380.412 153.098 385.657 147.517 389.327C141.936 392.997 135.391 394.926 128.711 394.87C124.295 394.879 119.921 394.012 115.842 392.318C111.764 390.623 108.062 388.136 104.953 385C101.843 381.864 99.387 378.141 97.7274 374.049C96.0678 369.956 95.2374 365.575 95.2845 361.158ZM904.782 496.146C904.782 492.305 902.506 491.807 899.235 491.807H892.123V506.032H895.11V500.413H897.528L900.799 506.032H904.142L900.728 500.413C901.265 500.428 901.798 500.327 902.291 500.115C902.785 499.903 903.226 499.587 903.584 499.188C903.943 498.788 904.211 498.316 904.368 497.803C904.526 497.29 904.57 496.749 904.498 496.217M899.021 497.853H895.039V494.368H898.31C899.733 494.368 901.511 494.368 901.511 495.932C901.511 497.497 900.657 497.853 899.021 497.853Z" fill="white"/>
<path d="M898.026 485.264C895.328 485.264 892.691 486.064 890.447 487.561C888.203 489.058 886.452 491.187 885.417 493.678C884.381 496.169 884.107 498.911 884.628 501.558C885.149 504.204 886.442 506.638 888.345 508.55C890.248 510.463 892.674 511.769 895.318 512.304C897.962 512.839 900.706 512.578 903.202 511.556C905.699 510.533 907.836 508.794 909.345 506.558C910.854 504.322 911.667 501.688 911.681 498.991C911.709 497.186 911.376 495.394 910.701 493.721C910.026 492.047 909.022 490.526 907.749 489.246C906.477 487.967 904.961 486.955 903.29 486.272C901.62 485.588 899.83 485.245 898.026 485.264ZM898.026 509.659C895.196 509.659 892.483 508.535 890.482 506.534C888.481 504.534 887.358 501.82 887.358 498.991C887.358 496.161 888.481 493.448 890.482 491.447C892.483 489.447 895.196 488.323 898.026 488.323C900.855 488.323 903.568 489.447 905.569 491.447C907.57 493.448 908.694 496.161 908.694 498.991C908.694 501.82 907.57 504.534 905.569 506.534C903.568 508.535 900.855 509.659 898.026 509.659Z" fill="white"/>
</g>
<defs>
<clipPath id="clip0_795_4021">
<rect width="911.42" height="512" fill="white" transform="translate(0.262573 0.574707)"/>
</clipPath>
</defs>
</svg>
