<svg width="1025" height="140" viewBox="0 0 1025 140" fill="none" xmlns="http://www.w3.org/2000/svg">
<g clip-path="url(#clip0_846_3172)">
<path d="M18.6845 0.824219C8.7109 0.824219 0.625732 8.90939 0.625732 18.8829V24.9025L6.64529 30.9221V133.255L127.037 73.0594L133.056 79.0789H169.174V18.8829C169.174 8.90939 161.089 0.824219 151.115 0.824219H18.6845Z" fill="url(#paint0_linear_846_3172)"/>
<path d="M118.867 24.9004H0.625732V121.93C0.625732 131.508 8.39005 139.272 17.9678 139.272H78.8803L110.489 91.8588C113.546 84.3612 120.908 79.0767 129.505 79.0767H133.056V39.0896C133.056 31.253 126.704 24.9004 118.867 24.9004Z" fill="url(#paint1_radial_846_3172)"/>
<path d="M78.8809 139.277V132.803C78.8809 129.212 80.1651 125.739 82.5018 123.012L112.92 87.5121C113.549 86.6502 114.245 85.8388 114.998 85.0859L112.92 87.5121C110.442 90.9041 108.979 95.0855 108.979 99.6078V139.277H78.8809Z" fill="#B8D7FF"/>
<path d="M124.629 117.516H130.773C131.022 118.576 131.645 119.511 132.535 120.165C133.408 120.818 134.494 121.154 135.598 121.101C138.376 121.101 140.21 119.582 140.21 117.357C140.21 115.132 138.305 113.896 134.53 113.896H132.09V108.88H134.209C137.86 108.88 139.356 107.538 139.356 105.543C139.356 103.547 137.735 102.17 135.492 102.17C134.494 102.117 133.497 102.435 132.749 103.088C131.983 103.741 131.52 104.66 131.431 105.649H125.502C125.715 102.152 128.493 97.1367 135.456 97.1367C141.047 97.1367 144.912 100.298 144.912 104.748C144.912 106.178 144.466 107.574 143.611 108.722C142.757 109.87 141.564 110.735 140.193 111.159V111.247C141.795 111.529 143.238 112.377 144.253 113.631C145.268 114.885 145.802 116.457 145.749 118.081C145.749 122.902 141.297 126.081 135.545 126.081C129.437 126.116 125.074 122.673 124.629 117.516Z" fill="#8F69FF"/>
<path d="M156.486 97.6133H160.955V125.675H155.186V104.147L149.63 107.891V102.222L156.486 97.6133Z" fill="#8F69FF"/>
<path d="M224.86 97.9175V118.843H239.519V98.8316C239.519 96.8891 240.284 95.012 241.669 93.6409C243.037 92.2697 244.91 91.4862 246.848 91.4862H261.881C268.885 91.4862 275.611 88.695 280.562 83.7165C285.514 78.7543 288.299 72.013 288.299 64.994C288.299 57.9752 285.514 51.2338 280.562 46.2553C275.611 41.2932 268.885 38.502 261.865 38.502H224.86V64.6512H239.519V52.3275H260.888C264.21 52.3275 267.386 53.6496 269.731 56.0001C272.077 58.3506 273.396 61.5336 273.396 64.8634C273.396 68.1933 272.077 71.3764 269.731 73.7269C267.386 76.0774 264.21 77.3995 260.888 77.3995H245.366C242.679 77.3995 240.007 77.9219 237.532 78.9665C235.04 79.9949 232.792 81.5129 230.887 83.4227C228.981 85.3325 227.483 87.6014 226.44 90.0825C225.398 92.5472 224.86 95.2242 224.86 97.9175Z" fill="#1B1340"/>
<path d="M290.563 118.845V86.9664C290.563 73.957 298.137 63.6082 313.3 63.6082C315.727 63.5755 318.154 63.8367 320.532 64.408V77.5154C318.805 77.4012 317.323 77.4012 316.623 77.4012C308.593 77.4012 305.14 81.0902 305.14 88.5661V118.845H290.563Z" fill="#1B1340"/>
<path d="M324.896 91.8146C324.896 75.8181 336.948 63.625 353.724 63.625C370.5 63.625 382.552 75.8181 382.552 91.8146C382.552 107.811 370.5 120.119 353.724 120.119C336.948 120.119 324.896 107.795 324.896 91.8146ZM368.187 91.8146C368.187 82.7227 362.096 76.2752 353.724 76.2752C345.336 76.2752 339.261 82.7064 339.261 91.8146C339.261 101.021 345.352 107.354 353.724 107.354C362.112 107.354 368.187 101.004 368.187 91.8146Z" fill="#1B1340"/>
<path d="M429.167 91.8146C429.167 75.8181 441.219 63.625 457.995 63.625C474.754 63.625 486.807 75.8181 486.807 91.8146C486.807 107.811 474.754 120.119 457.995 120.119C441.219 120.119 429.167 107.795 429.167 91.8146ZM472.442 91.8146C472.442 82.7227 466.35 76.2752 457.979 76.2752C449.607 76.2752 443.516 82.7064 443.516 91.8146C443.516 101.021 449.607 107.354 457.979 107.354C466.35 107.354 472.442 101.004 472.442 91.8146Z" fill="#1B1340"/>
<path d="M494.381 118.842V88.1224C494.381 73.8561 503.453 63.6055 519.643 63.6055C535.718 63.6055 544.79 73.8398 544.79 88.1224V118.842H530.327V89.265C530.327 81.3321 526.76 76.3699 519.643 76.3699C512.525 76.3699 508.958 81.3157 508.958 89.265V118.842H494.381Z" fill="#1B1340"/>
<path d="M424.802 76.3867H409.069V96.5292C409.069 103.548 411.593 106.764 418.824 106.764C419.508 106.764 421.235 106.764 423.417 106.649V118.5C420.437 119.3 417.798 119.773 414.915 119.773C402.749 119.773 394.475 112.411 394.475 98.488V76.3867H384.703V64.7648H387.146C388.107 64.7648 389.068 64.5689 389.947 64.2098C390.843 63.8344 391.641 63.2957 392.325 62.6102C393.009 61.9246 393.547 61.1248 393.921 60.227C394.296 59.3292 394.475 58.3825 394.475 57.4195V46.4668H409.052V64.7648H424.786V76.3867H424.802Z" fill="#1B1340"/>
<path d="M597.231 114.757C591.136 111.296 586.086 106.219 582.655 100.097C579.191 93.7147 577.377 86.5645 577.377 79.3002C577.377 72.0358 579.191 64.8858 582.655 58.503C586.086 52.3814 591.119 47.3208 597.231 43.8437C603.555 40.2524 610.728 38.4077 618.016 38.5057C623.948 38.4567 629.831 39.6484 635.256 42.0154C640.224 44.1539 644.619 47.4351 648.083 51.5815C651.515 55.7115 653.901 60.6088 655.061 65.8489H639.733C638.001 61.9474 635.174 58.6499 631.579 56.3482C627.576 54.0138 623.033 52.7731 618.392 52.7568C613.751 52.7405 609.192 53.9322 605.172 56.2339C601.316 58.5356 598.146 61.8332 596.005 65.7836C593.783 69.9627 592.639 74.6152 592.639 79.3492C592.639 84.0831 593.799 88.7355 596.005 92.9148C598.146 96.8653 601.332 100.163 605.221 102.448C609.111 104.734 613.539 105.893 618.049 105.844C622.82 106.007 627.51 104.766 631.579 102.269C635.174 99.9503 638.001 96.6531 639.733 92.7516H655.061C653.901 98.0242 651.499 102.954 648.051 107.117C644.603 111.279 640.224 114.561 635.256 116.699C629.815 119.034 623.932 120.209 618.016 120.111C610.728 120.225 603.555 118.364 597.231 114.757Z" fill="#6D4AFF"/>
<path d="M702.122 66.6362C706.437 68.889 709.999 72.3498 712.384 76.5941C714.934 81.1975 716.208 86.4048 716.094 91.6778V118.809H703.07L702.139 110.663C700.439 113.617 697.956 116.017 694.949 117.633C691.73 119.299 688.135 120.131 684.507 120.066C679.866 120.115 675.307 118.874 671.32 116.491C667.3 114.059 664.032 110.565 661.875 106.402C659.489 101.815 658.296 96.7219 658.394 91.5472C658.329 86.4701 659.636 81.4587 662.169 77.0511C664.636 72.7579 668.215 69.2318 672.546 66.8484C677.072 64.3671 682.17 63.1265 687.334 63.2244C692.465 63.1101 697.547 64.2855 702.122 66.6362ZM697.351 103.154C700.178 100.444 701.583 96.5913 701.583 91.5635C701.763 87.4009 700.309 83.3525 697.514 80.2671C696.223 78.8467 694.638 77.7367 692.89 76.9859C691.125 76.235 689.23 75.8759 687.318 75.9249C685.389 75.8759 683.478 76.2513 681.697 77.0185C679.915 77.7694 678.33 78.912 677.023 80.3324C674.376 83.4994 672.921 87.4988 672.921 91.6125C672.921 95.7262 674.376 99.7257 677.023 102.893C678.33 104.296 679.932 105.406 681.713 106.157C683.494 106.892 685.406 107.251 687.334 107.186C689.181 107.219 691.027 106.876 692.743 106.174C694.458 105.472 696.027 104.443 697.351 103.154Z" fill="#6D4AFF"/>
<path d="M740.361 118.806H725.687V39.7148H740.361V118.806Z" fill="#6D4AFF"/>
<path d="M803.158 96.5373H761.947C762.601 99.8348 764.365 102.806 766.947 104.961C769.529 106.969 772.732 108.013 776 107.932C778.614 108.03 781.229 107.573 783.664 106.593C785.592 105.712 787.177 104.226 788.19 102.365H801.786C800.364 107.785 796.982 112.47 792.275 115.522C787.536 118.575 782.013 120.175 776.376 120.094C771.212 120.208 766.098 118.951 761.587 116.453C757.355 114.086 753.891 110.576 751.603 106.316C749.201 101.81 747.992 96.7661 748.073 91.6564C747.992 86.547 749.217 81.5029 751.652 76.9971C753.973 72.7528 757.437 69.2431 761.636 66.8598C766.032 64.3948 770.983 63.1378 776.033 63.2358C780.967 63.1705 785.821 64.4601 790.086 66.9414C794.22 69.3901 797.602 72.916 799.858 77.144C802.243 81.6008 803.469 86.5796 803.404 91.6401C803.387 93.2564 803.322 94.905 803.158 96.5373ZM766.833 78.3359C764.333 80.3762 762.568 83.2004 761.832 86.3511H789.53C789.105 83.2494 787.504 80.4252 785.053 78.4501C782.487 76.3442 779.252 75.2342 775.934 75.3321C772.65 75.2342 769.431 76.2952 766.833 78.3359Z" fill="#6D4AFF"/>
<path d="M808.731 87.8385C808.6 84.5572 809.123 81.276 810.283 78.1909C811.443 75.1056 813.224 72.2977 815.512 69.9307C820.038 65.4415 826.281 63.2051 834.239 63.2051C842.196 63.2051 848.422 65.4905 852.932 70.045C855.204 72.4283 856.969 75.2362 858.129 78.3215C859.289 81.4066 859.812 84.6715 859.665 87.969V118.904H844.991V88.9974C845.219 85.6185 844.304 82.272 842.376 79.4968C841.33 78.4195 840.072 77.554 838.7 76.9664C837.327 76.3788 835.824 76.0686 834.32 76.0686C832.817 76.0686 831.33 76.3788 829.941 76.9664C828.552 77.554 827.31 78.4195 826.248 79.4968C824.271 82.272 823.307 85.6512 823.503 89.0467V118.855H808.829L808.731 87.8385Z" fill="#6D4AFF"/>
<path d="M907.577 39.7148H922.252V118.806H908.899L907.871 110.416C906.268 113.403 903.818 115.868 900.844 117.5C897.494 119.263 893.769 120.129 889.994 120.047C885.729 120.063 881.529 118.937 877.853 116.799C873.898 114.48 870.679 111.101 868.571 107.036C866.104 102.286 864.878 96.9805 865.025 91.6262C864.878 86.2883 866.104 80.999 868.571 76.265C870.679 72.2003 873.898 68.8211 877.853 66.5031C881.546 64.3646 885.729 63.2382 889.994 63.2545C893.654 63.1729 897.265 63.9728 900.55 65.5889C903.491 67.0091 905.942 69.2945 907.577 72.135V39.7148ZM903.508 103.102C904.93 101.552 906.023 99.7231 906.712 97.748C907.414 95.7726 907.692 93.6669 907.561 91.5609C907.561 86.6148 906.187 82.8112 903.459 80.1665C902.152 78.8607 900.583 77.832 898.867 77.1465C897.151 76.4446 895.321 76.1018 893.458 76.1181C891.595 76.1345 889.781 76.5099 888.066 77.2444C886.366 77.9626 884.814 79.0239 883.523 80.3461C882.134 81.8641 881.055 83.66 880.369 85.5861C879.666 87.5288 879.372 89.5859 879.47 91.6426C879.258 95.8216 880.712 99.9189 883.523 103.037C884.83 104.424 886.415 105.518 888.18 106.237C889.945 106.971 891.84 107.314 893.736 107.265C895.566 107.281 897.364 106.906 899.047 106.204C900.746 105.469 902.266 104.424 903.508 103.102Z" fill="#6D4AFF"/>
<path d="M973.038 66.6362C977.351 68.889 980.913 72.3498 983.299 76.5941C985.849 81.1975 987.122 86.4048 987.008 91.6778V118.809H973.969L973.038 110.663C971.321 113.601 968.837 116.017 965.83 117.633C962.611 119.299 959.017 120.131 955.39 120.066C950.748 120.115 946.19 118.874 942.217 116.491C938.199 114.059 934.915 110.565 932.757 106.402C930.37 101.815 929.179 96.7219 929.277 91.5472C929.211 86.4701 930.517 81.4587 933.05 77.0511C935.518 72.7742 939.096 69.2481 943.412 66.8647C947.953 64.3834 953.053 63.1265 958.233 63.2244C963.378 63.1101 968.461 64.2855 973.038 66.6362ZM968.282 103.154C971.109 100.444 972.513 96.5913 972.513 91.5635C972.696 87.4172 971.24 83.3525 968.461 80.2671C967.139 78.8793 965.553 77.7857 963.79 77.0348C962.024 76.284 960.127 75.8922 958.217 75.8922C956.304 75.8922 954.407 76.284 952.645 77.0348C950.878 77.7857 949.295 78.8793 947.97 80.2671C945.322 83.4341 943.886 87.4335 943.886 91.5472C943.886 95.6609 945.338 99.6604 947.97 102.827C949.279 104.247 950.862 105.357 952.628 106.108C954.391 106.859 956.304 107.219 958.233 107.17C960.094 107.202 961.926 106.859 963.659 106.174C965.389 105.472 966.96 104.443 968.282 103.154Z" fill="#6D4AFF"/>
<path d="M994.33 86.6802C994.069 80.4768 996.207 74.4044 1000.31 69.7192C1004.28 65.3769 1009.95 63.2058 1017.31 63.2058C1019.77 63.1894 1022.22 63.467 1024.63 64.022V77.2446C1023.47 77.2446 1022.14 77.1303 1020.69 77.1303C1016.67 77.1303 1013.73 78.061 1011.86 79.9219C1010.87 81.0808 1010.1 82.4196 1009.61 83.8723C1009.14 85.3254 1008.96 86.8598 1009.07 88.3778V118.872H994.396L994.33 86.6802Z" fill="#6D4AFF"/>
</g>
<defs>
<linearGradient id="paint0_linear_846_3172" x1="142.221" y1="91.3351" x2="43.9107" y2="-51.4957" gradientUnits="userSpaceOnUse">
<stop stop-color="#BFE8FF"/>
<stop offset="0.3075" stop-color="#BFABFF"/>
<stop offset="1" stop-color="#7341FF"/>
</linearGradient>
<radialGradient id="paint1_radial_846_3172" cx="0" cy="0" r="1" gradientUnits="userSpaceOnUse" gradientTransform="translate(127.992 -70.5159) scale(270.39 241.631)">
<stop offset="0.502942" stop-color="#6D4AFF"/>
<stop offset="0.9944" stop-color="#06B8FF"/>
</radialGradient>
<clipPath id="clip0_846_3172">
<rect width="1024" height="138.45" fill="white" transform="translate(0.625 0.826172)"/>
</clipPath>
</defs>
</svg>
