<svg width="1024" height="215" viewBox="0 0 1024 215" fill="none" xmlns="http://www.w3.org/2000/svg">
<g clip-path="url(#clip0_768_989)">
<path d="M237.854 156.961C222.283 179.288 196.413 193.788 167.165 193.788C119.545 193.788 80.9874 155.23 80.9874 107.61C80.9874 59.99 119.545 21.4324 167.165 21.4324C183.972 21.4324 199.626 26.2109 212.891 34.5321L167.248 107.61L252.931 58.1774C239.172 36.839 218.74 20.279 194.6 11.3811C175.486 4.37809 154.807 0.505859 133.221 0.505859C111.636 0.505859 91.0387 4.37809 71.9247 11.3811C52.234 18.6312 34.9325 31.0718 21.8328 46.9727C8.15641 63.4503 0 84.5416 0 107.61C0 130.679 8.15641 151.77 21.7504 168.248C34.8501 184.149 52.1516 196.589 71.8423 203.839C90.9563 210.842 111.636 214.715 133.139 214.715C146.898 214.715 160.245 213.149 173.097 210.183C199.791 204.004 223.436 189.833 241.397 170.307L237.772 156.878L237.854 156.961Z" fill="#CC0000"/>
<path d="M599.537 37.0863C594.841 37.0863 590.31 38.1573 586.273 40.0523L536.428 63.2857C533.956 48.4558 521.021 37.0863 505.533 37.0863C500.754 37.0863 496.305 38.1573 492.268 40.0523L431.301 68.4761H474.143V209.524H536.84V84.1298C536.84 75.4791 543.843 68.4761 552.494 68.4761C561.144 68.4761 568.147 75.4791 568.147 84.1298V209.524H630.845V68.3937C630.845 51.0922 616.839 37.0039 599.455 37.0039L599.537 37.0863Z" fill="#CC0000"/>
<path d="M992.693 37.0863C987.996 37.0863 983.465 38.1573 979.428 40.0523L929.583 63.2857C927.112 48.4558 914.259 37.0863 898.688 37.0863C893.992 37.0863 889.46 38.1573 885.423 40.0523L824.456 68.4761H867.298V209.524H929.995V84.1298C929.995 75.4791 936.998 68.4761 945.649 68.4761C954.3 68.4761 961.303 75.4791 961.303 84.1298V209.524H1024V68.3937C1024 51.0922 1009.99 37.0039 992.61 37.0039L992.693 37.0863Z" fill="#CC0000"/>
<path d="M745.776 37.0859C696.755 37.0859 656.962 76.8793 656.962 125.9C656.962 174.921 696.755 214.714 745.776 214.714C794.797 214.714 834.59 174.921 834.59 125.9C834.59 76.8793 794.797 37.0859 745.776 37.0859ZM766.043 201.615C755.58 204.416 744.87 198.237 742.068 187.774L711.667 74.2429C708.866 63.7796 715.045 53.0692 725.508 50.268C735.972 47.4668 746.682 53.6459 749.483 64.1092L779.885 177.64C782.686 188.103 776.507 198.814 766.043 201.615Z" fill="#CC0000"/>
<path d="M373.547 157.208C373.547 174.509 359.541 188.597 342.157 188.597C324.773 188.597 310.767 174.591 310.767 157.208C310.767 139.824 324.773 125.818 342.157 125.818C359.459 125.818 373.547 139.824 373.547 157.208ZM389.613 209.442H452.31L416.224 74.8196C410.374 53.0692 390.601 37.0859 367.038 37.0859C360.942 37.0859 355.01 38.157 349.572 40.1343L271.88 68.3934H351.797L365.473 119.392C352.209 107.94 334.907 101.019 316.04 101.019C301.952 101.019 288.77 104.644 277.236 110.906C268.255 115.849 260.676 123.017 255.32 131.75C250.789 139.165 248.153 147.815 248.153 157.125C248.153 166.435 250.789 175.168 255.32 182.501C260.676 191.234 268.255 198.402 277.236 203.345C288.77 209.689 302.034 213.231 316.04 213.231C343.064 213.231 366.956 200.049 381.621 179.699L389.53 209.277L389.613 209.442Z" fill="#CC0000"/>
</g>
<defs>
<clipPath id="clip0_768_989">
<rect width="1024" height="214.209" fill="white" transform="translate(0 0.505859)"/>
</clipPath>
</defs>
</svg>
