<svg width="1024" height="277" viewBox="0 0 1024 277" fill="none" xmlns="http://www.w3.org/2000/svg">
<g clip-path="url(#clip0_806_431)">
<path d="M413.62 0.360352H138.089V275.891H413.62V0.360352Z" fill="white"/>
<path d="M551.385 138.45L413.62 0.360352V276.215L551.385 138.45Z" fill="#DB0011"/>
<path d="M275.854 138.45L413.62 0.360352H138.089L275.854 138.45Z" fill="#DB0011"/>
<path d="M0 138.45L138.089 276.215V0.360352L0 138.45Z" fill="#DB0011"/>
<path d="M275.854 138.449L138.089 276.214H413.62L275.854 138.449Z" fill="#DB0011"/>
<path d="M672.294 146.553H622.374V195.824H597.415V80.4258H622.374V127.752H672.294V80.4258H697.254V195.824H672.294V146.553Z" fill="black"/>
<path d="M757.546 198.094C732.586 198.094 712.164 188.045 711.84 160.492H736.8C737.124 172.81 744.256 180.266 757.87 180.266C767.919 180.266 779.588 175.079 779.588 163.734C779.588 154.657 771.809 152.064 758.843 148.174L750.415 145.905C732.262 140.719 714.109 133.587 714.109 112.842C714.109 87.2336 738.097 78.4814 759.815 78.4814C782.182 78.4814 801.631 86.2611 801.955 111.869H776.995C776.023 101.496 769.864 95.3374 758.194 95.3374C748.794 95.3374 739.717 100.2 739.717 110.573C739.717 119.001 747.497 121.594 763.705 126.78L773.429 129.698C793.203 135.857 805.845 142.664 805.845 162.113C805.521 188.045 780.237 198.094 757.546 198.094Z" fill="black"/>
<path d="M819.783 80.7507H859.978C867.434 80.4266 875.213 80.7507 882.669 82.0473C896.607 85.2889 907.305 94.3651 907.305 109.924C907.305 124.836 897.904 132.291 884.29 135.857C899.849 138.774 911.519 146.554 911.519 163.734C911.519 189.99 885.586 195.825 865.489 195.825H820.107L819.783 80.7507ZM859.978 128.725C870.999 128.725 882.345 126.456 882.345 113.166C882.345 101.172 871.972 97.9308 861.599 97.9308H844.095V128.725H859.978ZM862.247 178.645C873.917 178.645 885.262 176.052 885.262 161.789C885.262 147.526 875.538 144.933 863.544 144.933H843.771V178.645H862.247Z" fill="black"/>
<path d="M976.349 198.094C939.072 198.094 922.54 174.431 922.54 139.098C922.54 103.765 941.017 78.1572 977.646 78.1572C1000.66 78.1572 1023.03 88.5301 1023.68 114.462H997.744C996.447 102.793 988.667 96.9581 977.646 96.9581C954.955 96.9581 948.148 121.27 948.148 139.746C948.148 158.223 954.955 179.617 976.674 179.617C988.019 179.617 996.447 173.458 998.068 161.789H1024C1021.41 188.369 1000.34 198.094 976.349 198.094Z" fill="black"/>
</g>
<defs>
<clipPath id="clip0_806_431">
<rect width="1024" height="275.854" fill="white" transform="translate(0 0.360352)"/>
</clipPath>
</defs>
</svg>
