<svg width="1025" height="407" viewBox="0 0 1025 407" fill="none" xmlns="http://www.w3.org/2000/svg">
<g clip-path="url(#clip0_875_709)">
<path fill-rule="evenodd" clip-rule="evenodd" d="M1024.12 379.013V406.085H889.383V379.013H1024.12ZM700.752 379.013V406.085H566.015V379.013H700.752ZM805.877 379.013L795.037 406.085L784.34 379.013H805.877ZM504.036 379.013C484.704 395.825 459.206 406.085 430.739 406.085H215.699V379.013H504.036ZM188.752 379.013V406.085H0.120361V379.013H188.752ZM700.752 324.871V351.942H566.015V324.871H700.752ZM826.945 324.871L816.456 351.942H773.792L763.224 324.871H826.945ZM530.984 324.871C528.551 334.496 524.665 343.584 519.666 351.942H215.699V324.871H530.984ZM188.752 324.871V351.942H0.120361V324.871H188.752ZM1024.12 324.871V351.942H889.383V324.871H1024.12ZM970.226 270.728V297.8H889.383V270.728H970.226ZM700.752 270.728V297.8H619.91V270.728H700.752ZM848.085 270.728L837.498 297.8H752.644L741.973 270.728H848.085ZM527.211 270.728C529.633 279.359 530.984 288.426 530.984 297.8H431.278V270.728H527.211ZM350.436 270.728V297.8H269.594V270.728H350.436ZM134.857 270.728V297.8H54.0151V270.728H134.857ZM970.226 216.586V243.657H889.383V216.586H970.226ZM700.752 216.586V243.657H619.91V216.586H700.752ZM869.201 216.586L858.664 243.657H731.202L720.748 216.586H869.201ZM494.066 216.586C503.359 224.227 511.362 233.385 517.51 243.657H269.594V216.586H494.066ZM134.857 216.586V243.657H54.0151V216.586H134.857ZM787.519 162.443L795.068 184.324L802.61 162.443H970.226V189.514H889.383V164.638L880.221 189.514H709.645L700.752 164.636V189.514H619.91V162.443H787.519ZM134.857 162.443V189.514H54.0151V162.443H134.857ZM517.51 162.443C511.362 172.716 503.359 181.871 494.066 189.514H269.594V162.443H517.51ZM970.226 108.301V135.372H811.96L821.499 108.301H970.226ZM768.726 108.301L778.265 135.372H619.91V108.301H768.726ZM530.984 108.301C530.984 117.672 529.633 126.739 527.211 135.372H431.278V108.301H530.984ZM350.436 108.301V135.372H269.594V108.301H350.436ZM134.857 108.301V135.372H54.0151V108.301H134.857ZM750.067 54.1582L759.432 81.2294H566.018L566.015 54.1582H750.067ZM1024.12 54.1582V81.2294H830.603L840.336 54.1582H1024.12ZM519.666 54.1582C524.665 62.5158 528.551 71.6043 530.984 81.2294H215.699V54.1582H519.666ZM188.752 54.1582V81.2294H0.120361V54.1582H188.752ZM731.145 0.015625L740.689 27.0869H566.018L566.015 0.015625H731.145ZM1024.12 0.015625V27.0869H849.667L858.986 0.015625H1024.12ZM430.739 0.015625C459 0.015625 484.707 10.2756 504.036 27.0869H215.699V0.015625H430.739ZM188.752 0.015625V27.0869H0.120361V0.015625H188.752Z" fill="#161616"/>
</g>
<defs>
<clipPath id="clip0_875_709">
<rect width="1024" height="406.069" fill="white" transform="translate(0.120361 0.015625)"/>
</clipPath>
</defs>
</svg>
