<svg width="1025" height="368" viewBox="0 0 1025 368" fill="none" xmlns="http://www.w3.org/2000/svg">
<g clip-path="url(#clip0_832_140)">
<path d="M184.436 367.963C286.008 367.963 368.349 285.623 368.349 184.05C368.349 82.4782 286.008 0.137695 184.436 0.137695C82.864 0.137695 0.523438 82.4782 0.523438 184.05C0.523438 285.623 82.864 367.963 184.436 367.963Z" fill="#009BFF"/>
<path d="M473.442 141.356C476.298 141.531 479.158 141.094 481.831 140.075C484.504 139.055 486.929 137.477 488.943 135.445C492.742 130.607 494.53 124.49 493.935 118.367V45.1963H527.171V118.367C527.584 125.267 526.52 132.176 524.051 138.632C521.581 145.088 517.764 150.943 512.852 155.807C501.867 165.044 487.772 169.743 473.442 168.943C459.11 169.756 445.01 165.056 434.032 155.807C428.955 151.025 424.966 145.206 422.336 138.746C419.707 132.286 418.499 125.336 418.794 118.367V45.1963H452.029V118.367C451.636 124.473 453.613 130.496 457.547 135.182C459.576 137.321 462.054 138.984 464.802 140.051C467.55 141.119 470.501 141.565 473.442 141.356ZM593.511 169.075C583.909 169.068 574.386 167.332 565.398 163.951C556.611 160.742 548.566 155.781 541.753 149.37L557.779 129.139C562.493 133.417 567.917 136.84 573.806 139.255C580.067 141.77 586.764 143.02 593.511 142.933C597.434 143.147 601.341 142.283 604.808 140.437C606.103 139.676 607.165 138.577 607.883 137.258C608.6 135.938 608.945 134.449 608.881 132.949C608.859 131.336 608.394 129.759 607.537 128.393C606.679 127.026 605.463 125.921 604.02 125.198C598.651 122.183 592.91 119.886 586.943 118.367L579.455 116.397C570.093 114.374 561.462 109.832 554.495 103.26C551.642 100.277 549.417 96.7518 547.95 92.8934C546.483 89.035 545.805 84.9216 545.956 80.7966C546.013 73.741 548.212 66.8692 552.262 61.0917C556.552 55.2499 562.37 50.7044 569.077 47.955C576.931 44.6613 585.389 43.0502 593.905 43.2258C602.909 43.2444 611.827 44.9833 620.178 48.3491C628.389 51.532 635.989 56.1095 642.642 61.8799L626.09 82.7671C621.508 78.9055 616.427 75.6798 610.983 73.1773C605.629 70.5338 599.744 69.1413 593.774 69.105C589.948 68.8589 586.128 69.6774 582.739 71.4696C581.389 72.1777 580.274 73.2618 579.528 74.5908C578.782 75.9198 578.437 77.4366 578.535 78.9575C578.58 80.4191 578.973 81.849 579.681 83.1284C580.389 84.4079 581.393 85.4999 582.607 86.314C586.936 89.1069 591.747 91.0672 596.795 92.0941L605.859 94.59C616.315 96.7435 625.935 101.85 633.578 109.303C638.921 115.247 641.829 122.986 641.722 130.979C641.851 138.185 639.739 145.254 635.679 151.209C631.353 157.07 625.487 161.617 618.733 164.346C610.746 167.66 602.156 169.271 593.511 169.075ZM742.217 166.71L734.467 144.641H689.014L681.395 167.367H648.553L693.087 45.8532H731.708L775.585 166.71H742.217ZM696.765 119.418H725.534L711.872 76.8556L696.765 119.418ZM454.919 322.379V227.664H418.794V201.391H523.887V227.664H488.155V322.379H454.919ZM593.774 324.744C582.442 324.964 571.252 322.2 561.326 316.73C552.039 311.436 544.365 303.717 539.125 294.398C533.512 284.47 530.655 273.222 530.849 261.819C530.718 253.204 532.234 244.643 535.316 236.597C538.283 229.113 542.754 222.317 548.452 216.629C554.169 210.967 560.957 206.502 568.42 203.493C584.623 197.321 602.53 197.321 618.733 203.493C626.194 206.505 632.982 210.97 638.701 216.629C644.402 222.314 648.874 229.111 651.838 236.597C655.285 244.57 657.159 253.135 657.355 261.819C657.589 273.21 654.778 284.457 649.21 294.398C643.88 303.703 636.113 311.378 626.747 316.599C616.678 322.205 605.294 325.017 593.774 324.744ZM593.774 297.288C599.192 297.407 604.515 295.847 609.012 292.822C613.497 289.668 617.039 285.354 619.259 280.342C621.893 274.529 623.194 268.2 623.068 261.819C623.173 255.44 621.872 249.117 619.259 243.297C617.112 238.061 613.567 233.517 609.012 230.16C604.468 227.171 599.147 225.578 593.708 225.578C588.269 225.578 582.948 227.171 578.404 230.16C573.849 233.517 570.304 238.061 568.157 243.297C565.544 249.117 564.243 255.44 564.348 261.819C564.221 268.2 565.523 274.529 568.157 280.342C570.377 285.354 573.919 289.668 578.404 292.822C582.953 295.826 588.325 297.342 593.774 297.157V297.288ZM675.878 322.379V200.865H723.826C734.959 200.633 745.961 203.304 755.748 208.616C764.794 213.639 772.291 221.045 777.424 230.029C782.576 239.739 785.271 250.564 785.271 261.557C785.271 272.549 782.576 283.374 777.424 293.084C772.291 302.068 764.794 309.474 755.748 314.497C745.961 319.809 734.959 322.481 723.826 322.248L675.878 322.379ZM708.588 296.106H723.826C727.765 296.26 731.685 295.484 735.269 293.841C738.852 292.198 741.998 289.733 744.451 286.647C749.751 279.434 752.438 270.632 752.07 261.688C752.438 252.744 749.751 243.941 744.451 236.728C741.998 233.642 738.852 231.178 735.269 229.535C731.685 227.891 727.765 227.116 723.826 227.27H708.588V296.106ZM883.305 322.379L875.686 299.653H830.102L822.482 322.379H789.641L834.174 200.865H872.796L917.329 322.379H883.305ZM838.509 275.087H867.541L853.222 232.525L838.509 275.087ZM981.435 278.634V322.379H947.674V278.634L904.586 200.865H942.157L964.621 249.734L986.953 201.522H1024.52L981.435 278.634Z" fill="#404040"/>
</g>
<defs>
<clipPath id="clip0_832_140">
<rect width="1024" height="367.826" fill="white" transform="translate(0.523438 0.137695)"/>
</clipPath>
</defs>
</svg>
