<svg width="803" height="513" viewBox="0 0 803 513" fill="none" xmlns="http://www.w3.org/2000/svg">
<g clip-path="url(#clip0_2_15037)">
<path d="M789.548 315.27C782.314 315.27 776.441 321.135 776.441 328.374C776.441 335.605 782.314 341.478 789.548 341.478C796.783 341.478 802.647 335.605 802.647 328.374C802.647 321.135 796.783 315.27 789.548 315.27ZM789.548 338.667C788.197 338.668 786.858 338.402 785.608 337.885C784.359 337.369 783.224 336.61 782.268 335.654C781.312 334.698 780.554 333.563 780.037 332.314C779.52 331.065 779.255 329.726 779.256 328.374C779.256 322.687 783.855 318.088 789.548 318.088C795.235 318.088 799.839 322.687 799.839 328.374C799.839 334.062 795.235 338.667 789.548 338.667ZM794.933 325.336C794.933 324.753 794.818 324.175 794.594 323.636C794.371 323.097 794.043 322.607 793.63 322.195C793.217 321.782 792.727 321.456 792.188 321.233C791.648 321.01 791.07 320.896 790.487 320.897H784.173V335.855H786.979V329.78H788.993L791.829 335.855H794.933L791.972 329.521C792.837 329.214 793.585 328.647 794.115 327.898C794.646 327.149 794.931 326.254 794.933 325.336ZM790.487 326.972H786.979V323.698H790.486C790.92 323.699 791.337 323.872 791.645 324.179C791.952 324.486 792.125 324.903 792.126 325.337C792.125 325.771 791.952 326.187 791.645 326.494C791.337 326.8 790.921 326.972 790.487 326.972Z" fill="#041E42"/>
<path d="M161.652 340.499H221.674L201.24 389.862H251.516L271.958 340.498H419.79L415.5 350.871C405.69 374.551 407.025 404.962 417.08 421.08L474.322 512.803L518.622 448.486H591.19L630.812 399.768H538.934L511.211 433.867L456.031 387.993C454.798 386.832 453.37 380.844 455.664 375.326L480.785 314.648C480.785 314.648 486.079 340.499 519.63 340.499H718.989C728.458 340.499 757.285 340.499 768.396 313.658C778.497 289.236 763.422 275.841 763.422 275.841H779.311L797.437 232.118H699.969C687.647 232.118 676.238 235.254 667.263 240.639L713.283 129.517H662.999L612.474 251.533C612.474 251.533 603.465 232.118 573.898 232.118H514.969L610.749 0.802734H560.468L464.681 232.118H341.701C309.627 232.118 279.98 245.634 259.093 268.306C259.093 268.306 258.851 232.118 215.922 232.118H106.498C62.7538 232.118 17.6665 258.229 3.85749 291.565C-5.89392 315.102 7.83387 340.499 39.0047 340.499H81.6372C99.3764 340.499 118.227 328.693 126.354 322.946C126.354 322.946 135.4 340.499 161.654 340.499H161.652Z" fill="white"/>
<path d="M544.706 411.897L524.81 436.369H585.417L605.316 411.897H544.706ZM209.44 169.331L226.84 156.686L244.243 169.331L237.597 148.87L254.994 136.235H233.487L226.84 115.768L220.197 136.235H198.68L216.087 148.87L209.44 169.331ZM322.183 169.331L339.579 156.686L356.989 169.331L350.34 148.87L367.746 136.235H346.239L339.579 115.768L332.94 136.235H311.425L328.829 148.87L322.183 169.331ZM458.971 136.235L452.328 115.768L445.682 136.235H424.175L441.575 148.87L434.925 169.331L452.328 156.686L469.734 169.331L463.082 148.87L480.485 136.235H458.971ZM166.612 196.386H166.677L165.355 216.669H172.364L191.919 191.232H186.216L171.389 211.107H171.315L172.681 191.233H165.492L150.633 211.107H150.568L152.067 191.233H145.933L144.489 216.67H151.363L166.612 196.386ZM206.969 210.97L207.537 216.67H214.298L211.834 191.232H204.653L181.141 216.67H187.269L192.316 210.97H206.969ZM205.944 195.746L206.655 206.804H196.076L205.944 195.746ZM220.84 208.701C218.583 214.161 221.879 217.34 229.24 217.34C237.877 217.34 243.679 214.239 245.852 208.984C250.49 197.782 229.421 204.395 232.149 197.811C233.111 195.488 236.206 194.324 238.572 194.324C242.517 194.324 244.305 195.526 243.15 198.835H248.857C250.816 193.685 248.093 190.562 240.655 190.562C234.741 190.562 228.259 192.918 225.835 198.8C221.594 209.014 241.999 204.001 239.637 209.691C238.876 211.532 236.305 213.562 231.587 213.562C227.076 213.562 225.611 211.725 226.549 208.701H220.839H220.84ZM254.262 216.67L258.784 205.746H272.63L268.104 216.67H273.814L284.349 191.232H278.65L274.35 201.594H260.508L264.792 191.232H259.083L248.54 216.67H254.262ZM287.267 216.67L297.813 191.232H292.104L281.565 216.67H287.267ZM300.244 216.67L308.479 196.799H308.545L315.086 216.67H322.754L333.293 191.232H328.155L320.069 210.753H319.988L313.667 191.232H305.633L295.103 216.67H300.244ZM365.073 199.431C367.535 193.484 363.003 190.562 355.329 190.562C345.311 190.562 337.562 196.258 334.398 203.871C330.584 213.109 335.277 217.341 344.761 217.341C348.452 217.341 354.316 216.626 358.584 215.084L363.515 203.204H349.805L348.166 207.146H356.3L354.298 212.011C351.109 212.889 349.057 213.174 346.835 213.174C339.018 213.174 338.382 208.558 340.346 203.839C343.085 197.221 349.178 194.508 354.533 194.508C357.355 194.508 360.444 195.877 359.15 199.432L365.073 199.431ZM372.086 216.67H377.799L386.611 195.386H396.303L398.029 191.232H372.94L371.217 195.386H380.916L372.086 216.67ZM405.331 217.34C414.71 217.34 422.011 212.868 425.709 203.936C429.409 195.025 425.799 190.562 416.42 190.562C407.05 190.562 399.737 195.025 396.042 203.936C392.343 212.867 395.959 217.34 405.33 217.34H405.331ZM401.959 203.936C404.437 197.944 409.202 194.703 414.7 194.703C420.232 194.703 422.275 197.944 419.791 203.936C417.31 209.939 412.58 213.174 407.051 213.174C401.559 213.174 399.477 209.939 401.959 203.936ZM451.752 210.753H451.68L445.365 191.232H437.321L426.786 216.67H431.926L440.162 196.799H440.23L446.759 216.67H454.446L464.979 191.232H459.835L451.752 210.753Z" fill="#C8102E"/>
<path d="M99.4015 263.724H131.213L139.275 244.244H106.498C67.883 244.244 26.9477 267.505 15.0552 296.199C7.8808 313.547 18.4201 328.376 39.0053 328.376H81.6388C100.169 328.376 122.729 310.548 122.729 310.548L102.802 302.147C102.802 302.147 93.7618 308.902 83.9615 308.902H43.104C37.985 308.902 35.8727 303.982 38.5615 297.457C46.2854 278.82 73.5235 263.724 99.4015 263.724ZM161.654 328.376H186.356C195.229 328.376 202.837 323.211 202.837 323.211L200.704 328.376H224.733L244.405 280.872C252.784 260.645 240.034 244.244 215.926 244.244H153.452L145.387 263.724H213.035C227.477 263.724 223.075 274.337 223.075 274.337H174.357C154.999 274.337 140.721 283.256 136.158 294.272C128.366 313.091 139.774 328.376 161.654 328.376ZM157.258 301.346C158.984 297.196 163.757 293.815 167.925 293.815H201.645C209.353 293.815 216.226 290.888 216.226 290.888L212.275 300.421C210.344 305.099 203.595 308.903 198.327 308.903H161.673C157.506 308.903 155.529 305.519 157.258 301.347V301.346ZM503.344 244.244L495.281 263.724H571.004C585.454 263.724 581.047 274.337 581.047 274.337H532.332C512.976 274.337 498.693 283.256 494.145 294.272C486.337 313.091 497.743 328.376 519.633 328.376H544.325C553.203 328.376 560.821 323.211 560.821 323.211L558.672 328.376H582.711L602.38 280.872C610.759 260.645 598.013 244.244 573.9 244.244H503.344ZM570.256 300.422C568.315 305.099 561.576 308.902 556.314 308.902H519.651C515.488 308.902 513.507 305.519 515.231 301.346C516.956 297.196 521.734 293.815 525.897 293.815H559.624C567.322 293.815 574.201 290.888 574.201 290.888L570.256 300.421V300.422ZM617.812 328.376L695.134 141.646H671.108L593.775 328.376H617.812ZM435.239 244.244H411.208L403.14 263.724H427.164L435.239 244.244ZM400.392 328.376L422.775 274.338H398.735L376.354 328.376H400.392ZM661.774 263.596C654.363 281.513 663.996 296.047 683.324 296.047H732.104C735.656 296.047 737.344 298.925 735.866 302.476C734.395 306.028 730.328 308.902 726.783 308.902H637.555L629.493 328.376H718.99C735.664 328.376 750.758 324.564 757.183 309.027C764.606 291.098 754.965 276.573 735.642 276.573H686.867C683.31 276.573 681.617 273.695 683.095 270.147C684.57 266.589 688.64 263.724 692.189 263.724H771.217L779.282 244.244H699.97C683.303 244.244 666.818 251.412 661.774 263.596ZM243.421 377.733L271.337 310.321C281.994 284.586 305.472 263.724 342.616 263.724H366.452L351.353 300.179C349.368 304.974 343.809 308.903 339.018 308.903H283.481L275.409 328.377H341.883C353.888 328.377 365.98 322.894 372.744 306.547L398.555 244.244H341.704C297.103 244.244 263.159 272.029 248.966 306.294L219.388 377.733H243.421Z" fill="#041E42"/>
<path d="M426.699 355.504C418.758 374.714 419.059 401.331 427.37 414.661L474.827 490.701L506.063 445.349L448.284 397.317C442.2 392.278 440.48 380.29 444.466 370.682L592.607 12.9238H568.57L472.784 244.245H444.295L436.227 263.725H464.725L426.7 355.504H426.699Z" fill="#041E42"/>
</g>
<defs>
<clipPath id="clip0_2_15037">
<rect width="801.884" height="512" fill="white" transform="translate(0.763672 0.800781)"/>
</clipPath>
</defs>
</svg>
