<svg width="1024" height="196" viewBox="0 0 1024 196" fill="none" xmlns="http://www.w3.org/2000/svg">
<g clip-path="url(#clip0_846_3323)">
<path d="M168.314 0.714844C175.227 12.1313 178.344 23.8903 178.344 38.7443C178.344 86.1208 137.893 147.667 105.062 190.883H30.0743L0 11.0878L65.66 4.85517L81.5606 132.791C96.418 108.591 114.752 70.5625 114.752 44.6344C114.752 30.4423 112.321 20.7757 108.52 12.8163L168.314 0.714844Z" fill="#008CFF"/>
<path d="M253.414 79.8967C265.497 79.8967 295.915 74.3703 295.915 57.0849C295.915 48.7848 290.045 44.6446 283.128 44.6446C271.026 44.6446 255.144 59.1541 253.414 79.8967ZM252.03 114.13C252.03 135.237 263.768 143.517 279.329 143.517C296.276 143.517 312.501 139.377 333.59 128.661L325.647 182.59C310.788 189.848 287.631 194.692 265.154 194.692C208.138 194.692 187.733 160.121 187.733 116.902C187.733 60.8866 220.925 1.4082 289.358 1.4082C327.035 1.4082 348.103 22.5126 348.103 51.8992C348.106 99.2744 287.29 113.788 252.03 114.13Z" fill="#008CFF"/>
<path d="M537.592 42.2191C537.592 49.133 536.546 59.1616 535.499 65.7156L515.799 190.195H451.863L469.836 76.0869C470.177 72.992 471.224 66.7612 471.224 63.3041C471.224 55.0036 466.037 52.9328 459.802 52.9328C451.519 52.9328 443.217 56.7321 437.688 59.5063L417.304 190.196H353.009L382.382 3.82938H438.029L438.734 18.7047C451.862 10.062 469.149 0.714844 493.675 0.714844C526.172 0.711291 537.592 17.3134 537.592 42.2191Z" fill="#008CFF"/>
<path d="M727.402 21.8099C745.714 8.68436 763.004 1.4082 786.842 1.4082C819.67 1.4082 831.09 18.0103 831.09 42.9161C831.09 49.8304 830.043 59.859 829.002 66.413L809.321 190.892H745.369L763.686 74.3723C764.022 71.2574 764.732 67.4581 764.732 65.048C764.732 55.7024 759.543 53.6297 753.308 53.6297C745.368 53.6297 737.429 57.0868 731.534 60.2031L711.153 190.894H647.22L665.532 74.3737C665.868 71.2593 666.559 67.46 666.559 65.05C666.559 55.7043 661.365 53.6316 655.154 53.6316C646.854 53.6316 638.569 57.4309 633.04 60.2051L612.639 190.896H548.365L577.737 4.52806H632.704L634.432 20.0866C647.22 10.7625 664.49 1.4153 687.646 1.4153C707.697 1.4082 720.82 10.0526 727.402 21.8099Z" fill="#008CFF"/>
<path d="M958.314 76.0946C958.314 60.8803 954.508 50.5076 943.112 50.5076C917.882 50.5076 912.698 95.1066 912.698 117.922C912.698 135.23 917.542 145.942 928.937 145.942C952.784 145.942 958.314 98.9079 958.314 76.0946ZM847.723 115.168C847.723 56.3957 878.823 1.40234 950.375 1.40234C1004.29 1.40234 1024 33.2204 1024 77.1382C1024 135.228 993.236 195.386 919.956 195.386C865.695 195.386 847.723 159.769 847.723 115.168Z" fill="#008CFF"/>
</g>
<defs>
<clipPath id="clip0_846_3323">
<rect width="1024" height="194.672" fill="white" transform="translate(0 0.714844)"/>
</clipPath>
</defs>
</svg>
