<svg width="41" height="16" viewBox="0 0 41 16" fill="none" xmlns="http://www.w3.org/2000/svg">
<g clip-path="url(#clip0_795_2380)">
<g clip-path="url(#clip1_795_2380)">
<path d="M37.7427 5.13205C37.7171 5.04575 37.6384 4.98602 37.5484 4.9845H21.2343C20.8171 4.57748 20.3377 4.23934 19.8143 3.98269H30.0119C30.0119 3.98269 30.1652 3.98269 30.1243 3.83469L29.2981 0.858676C29.2726 0.772681 29.1945 0.713026 29.1048 0.711121H0.261652C0.261652 0.711121 0.108316 0.711121 0.149651 0.858676L0.975005 3.83649C1.00044 3.92297 1.0791 3.98291 1.16923 3.98449H2.57503C2.66504 3.98601 2.74366 4.04574 2.76925 4.13205L5.44037 13.7631C5.46596 13.8494 5.54458 13.9091 5.63459 13.9107H12.6341C12.6341 13.9107 12.7875 13.9107 12.8119 13.9324C12.8364 13.9542 14.4044 15.2889 16.8333 15.2889C19.2875 15.2889 20.7888 13.9515 20.8137 13.9302C20.8137 13.9302 20.8377 13.9085 20.9915 13.9085H40.0236C40.0236 13.9085 40.1765 13.9085 40.1356 13.7609L37.7427 5.13205Z" fill="white"/>
<path d="M14.1075 13.6652C15.9884 14.763 18.236 14.4732 19.6111 13.6652H20.3786C18.2235 15.243 15.3271 15.0647 13.3506 13.6652H14.1075Z" fill="#FFDC00"/>
<path d="M13.3509 13.6652C11.6038 12.4283 10.5753 10.2367 11.4135 7.45966H9.79485L11.4082 13.4027H5.91718L3.14072 3.40263H1.43451L0.824707 1.21597H28.9429L29.5424 3.47953H8.7203L9.2421 5.41289H12.7581C15.5915 2.73508 19.5417 3.77069 21.0722 5.4969H37.3582L39.5712 13.3729H20.7461C20.6261 13.476 20.5038 13.5738 20.3789 13.6649H19.6096C19.7886 13.5604 19.9588 13.4415 20.1185 13.3094C19.9994 12.8805 19.8856 12.4463 19.7669 12.0072C19.0087 12.7112 17.4989 13.5112 15.3634 12.5641C13.4918 11.6076 12.2198 8.80626 14.6914 6.53755C15.622 5.75844 16.966 5.47089 18.0105 5.78819C17.8865 5.30952 17.778 4.83129 17.6549 4.35263C15.1887 4.03708 12.862 5.19709 11.8589 7.6273C11.2229 9.20066 11.466 11.7607 13.7256 13.4173C13.8518 13.5062 13.9796 13.5886 14.1091 13.6644L13.3509 13.6652ZM15.4373 11.6936L15.3873 11.9185C15.4048 11.8425 15.4208 11.7683 15.4373 11.6936ZM13.6873 9.08251C13.9718 9.56074 14.4873 9.89632 15.2873 10.0639C15.3184 9.95542 15.3491 9.85187 15.3802 9.74342C14.6927 9.6052 14.2118 9.33409 13.9842 8.91497C13.886 8.96919 13.7878 9.0283 13.6895 9.08252L13.6873 9.08251ZM18.2784 6.46385C18.6611 5.6945 19.2145 5.26384 19.8505 5.00874C19.8091 4.90519 19.7616 4.80163 19.7171 4.70296C18.9985 4.9843 18.3887 5.47232 17.9696 6.33052L18.2807 6.46386L18.2784 6.46385ZM21.1069 6.0194C19.6496 6.67586 18.8482 7.46696 18.4189 9.11142C18.5278 9.14075 18.6362 9.17542 18.7398 9.2052C18.7758 9.09142 18.8171 8.9732 18.8536 8.85986C19.8616 9.62387 20.3065 10.6994 20.518 11.6905C20.6371 11.671 20.7305 11.6461 20.8491 11.6314C20.5442 10.2159 19.9238 9.1754 18.9567 8.5292C19.1472 7.99605 19.4711 7.52065 19.8976 7.14829C21.2162 8.14965 21.8625 9.52566 21.9451 11.2172C22.0589 11.2172 22.1727 11.2221 22.2865 11.2221C22.1678 9.30344 21.4229 7.90299 20.1563 6.93143C20.4858 6.68459 20.8454 6.48072 21.2265 6.32478C21.1975 6.31428 21.1678 6.3061 21.1376 6.30033C21.2051 6.20655 21.2709 6.11767 21.3345 6.02389C21.3009 6.01315 21.2661 6.00658 21.2309 6.00433C21.1892 6.00499 21.1476 6.01031 21.1069 6.0194ZM8.21784 12.9684H8.9263C8.88185 12.8058 8.83341 12.6333 8.78674 12.4604C8.57963 12.5787 8.36763 12.6675 8.13519 12.6875L8.21784 12.9684ZM21.4594 5.9309C23.1208 8.01711 23.0763 10.9859 21.2007 12.9394H38.9788L37.0068 5.9309H21.4594ZM4.56783 1.64998H1.41226L1.77937 2.96689H3.48738L6.26874 12.9669H7.7474C7.71674 12.8634 7.68562 12.75 7.65451 12.6416C6.60516 12.3163 6.41361 11.1749 7.05986 10.5256L4.56783 1.64998ZM8.02694 10.567C7.53805 10.567 7.13804 10.947 7.13804 11.4115C7.13804 11.8759 7.53804 12.2595 8.02694 12.2595C8.51585 12.2595 8.91095 11.8799 8.91095 11.4115C8.91095 10.943 8.51095 10.567 8.02694 10.567ZM6.22248 1.64998L8.6474 10.286C9.3092 10.6509 9.5883 11.346 9.15405 12.0958C9.23139 12.3918 9.31405 12.6829 9.39716 12.9687H10.8194L9.20956 7.02271H11.598C11.7961 6.60082 12.0502 6.2076 12.3536 5.8538H8.88511L8.12955 3.04269H28.9562L28.5837 1.65158L6.22248 1.64998ZM17.0595 7.17401C16.9355 7.16912 16.8266 7.16379 16.7391 7.16912C16.6438 7.17226 16.5485 7.16555 16.4546 7.14912C16.4133 7.12468 16.3875 7.06556 16.3875 6.97667C16.3868 6.96713 16.3811 6.95868 16.3725 6.95455C16.3638 6.95041 16.3536 6.95122 16.3458 6.95667C16.2777 7.00452 16.2556 7.0954 16.2942 7.16912C16.3339 7.22888 16.395 7.27118 16.4649 7.28734C16.4852 7.29298 16.506 7.29626 16.5271 7.29712C16.5631 7.29712 16.6044 7.29712 16.6822 7.30201C16.7493 7.30201 16.8155 7.30201 16.8786 7.29712C16.9546 7.29223 17.0204 7.29223 17.0769 7.28734L17.0662 7.21356C17.0635 7.20023 17.0613 7.18734 17.0595 7.17401ZM8.11999 10.138L5.75198 1.64898H5.03198L7.45154 10.26C7.66269 10.1727 7.88982 10.1308 8.11819 10.1369L8.11999 10.138Z" fill="#FFDC00"/>
<path d="M17.695 6.64116C17.7373 6.62534 17.7787 6.60724 17.819 6.58694C17.8243 6.58205 17.8501 6.57716 17.9328 6.57716V6.55227C17.934 6.5443 17.932 6.53614 17.9271 6.52969C17.9223 6.52324 17.915 6.51904 17.907 6.51805C17.8914 6.51805 17.8705 6.51316 17.8501 6.51316C17.8034 6.51316 17.7612 6.51805 17.7465 6.53761C17.7208 6.56739 17.695 6.59183 17.6741 6.61672C17.6798 6.62586 17.6868 6.6341 17.695 6.64116ZM17.2092 6.80383C17.1767 6.73723 17.1369 6.67447 17.0905 6.61672C17.0644 6.59177 17.0233 6.59177 16.9972 6.61672C16.9711 6.66193 16.9559 6.7126 16.9528 6.76472C16.9474 6.77377 16.9474 6.785 16.9528 6.79405C16.963 6.79894 16.9679 6.80916 16.9785 6.81405C16.9892 6.81894 16.999 6.81894 17.0096 6.81405C17.0299 6.79116 17.0376 6.75971 17.0301 6.73005L17.0612 6.71538C17.0727 6.73313 17.0797 6.75342 17.0816 6.77449V6.80027C17.0768 6.81538 17.0923 6.82516 17.1128 6.82516C17.1439 6.82027 17.175 6.8105 17.211 6.80516L17.2092 6.80383ZM17.0905 7.38603L17.0759 7.28914C17.0745 7.26428 17.071 7.23959 17.0652 7.21536L17.0585 7.17092C17.0381 7.14603 17.007 7.12114 16.9914 7.09669C16.8363 7.06736 16.6968 7.03269 16.547 6.99803C16.5254 6.99445 16.5055 6.98419 16.4901 6.9687C16.4348 6.91463 16.3896 6.85111 16.3567 6.78114C16.331 6.71225 16.367 6.67269 16.4496 6.65803C16.5585 6.64292 16.6719 6.62825 16.7856 6.61847C16.8107 6.61583 16.8343 6.60542 16.8532 6.5887C17.0132 6.4358 17.2354 6.40647 17.4683 6.42603C17.5407 6.43092 17.675 6.4607 17.7527 6.43581C17.9959 6.42114 18.0639 6.5247 18.0265 6.68736C18.019 6.72476 18.019 6.7633 18.0265 6.8007C18.099 6.99315 18.1456 7.18559 18.0887 7.3878C18.0163 7.55536 17.9439 7.72825 18.0061 7.84158C18.0834 8.01403 18.1301 8.18648 18.0785 8.34469C18.0265 8.57624 17.8976 8.84779 17.9594 9.05579C18.0163 9.19357 18.1199 9.61799 18.1923 9.82515C18.2347 9.95431 18.3033 10.0734 18.3936 10.1749C18.4552 10.263 18.504 10.3594 18.5385 10.4611C18.4972 10.4611 18.4612 10.466 18.4194 10.466C18.4972 10.9051 18.5488 11.5327 18.6679 11.6349C18.6576 11.6643 18.6523 11.6989 18.6421 11.7287C18.6421 11.7581 18.5852 11.7732 18.5643 11.8074C18.4145 12.1429 18.1972 12.3354 17.7732 12.4487V12.4341C17.7288 12.3167 17.6505 12.1559 17.579 12.0185C17.7116 11.9424 17.8342 11.8499 17.9439 11.7434C17.3217 11.2012 17.303 11.0283 17.1941 10.4514C17.1941 10.4265 17.1839 10.4167 17.1683 10.4167C17.1527 10.4167 17.127 10.4216 17.1065 10.4216C17.1581 10.6092 17.2047 10.7967 17.2563 10.979C16.8683 11.2603 16.6412 11.487 16.5585 12.0985C16.5519 12.1425 16.526 12.1812 16.4879 12.204C16.4498 12.2269 16.4035 12.2316 16.3616 12.2168C16.2412 12.1704 16.1133 12.147 15.9843 12.1479C15.7724 12.1148 15.5698 12.0375 15.3896 11.9212C15.4207 11.7679 15.4465 11.6203 15.4785 11.4674C15.5291 11.4903 15.5835 11.5037 15.6389 11.507C15.6775 11.509 15.7141 11.5248 15.7421 11.5514C15.7684 11.5761 15.8048 11.587 15.8403 11.5808C15.8714 11.5808 15.9958 11.6496 16.0372 11.6154C15.9234 10.7768 16.1612 10.4599 16.7661 10.0519C16.7865 10.0421 16.7972 10.047 16.823 10.0616C16.8487 10.0861 16.8674 10.111 16.8954 10.1359C16.947 10.1554 16.9523 10.1207 16.9212 10.0914C16.7092 9.97319 16.6212 9.75586 16.5799 9.50431C16.5745 9.49453 16.5852 9.47498 16.5385 9.49453C15.6439 9.79542 15.4785 9.6772 14.8892 9.18342L15.0403 8.93764C15.0785 8.87719 15.1172 8.81719 15.1567 8.7563C15.31 8.83508 15.4378 8.95576 15.5252 9.1043C15.5456 9.13408 15.5612 9.12919 15.5821 9.11453C15.8558 8.95675 16.1354 8.81364 16.4145 8.67542C16.409 8.65781 16.4055 8.63961 16.4043 8.62119C16.3421 8.65586 16.2798 8.69009 16.2181 8.71986C15.5154 8.31097 15.1176 8.35986 14.8901 7.42565C14.8967 7.42712 14.9037 7.42601 14.9096 7.42254C15.0336 7.35676 15.1487 7.29899 15.2763 7.23365L15.2923 7.22565C15.3812 7.3341 15.4372 7.49676 15.4785 7.67943C15.4683 7.6941 15.4887 7.71855 15.4994 7.72388C15.8198 7.80788 16.1354 7.89188 16.4505 7.96566C16.38 8.07429 16.3212 8.19004 16.2749 8.311C16.2563 8.38436 16.2418 8.45869 16.2314 8.53366H16.2883C16.3812 8.02566 16.5052 7.84346 17.0172 7.61631C17.0172 7.58209 17.0118 7.54253 17.0118 7.50786C16.9403 7.52298 16.8665 7.52298 16.795 7.50786C16.753 7.495 16.7095 7.48841 16.6656 7.48831C16.5416 7.44875 16.583 7.33542 16.6447 7.3452C16.7228 7.3323 16.8028 7.33902 16.8776 7.36475C16.9034 7.37986 16.9861 7.38475 17.0896 7.38475L17.0905 7.38603Z" fill="black"/>
<path d="M13.6883 9.08217C13.7865 9.02795 13.8847 8.96883 13.9829 8.91461C14.2105 9.33372 14.6914 9.60481 15.3789 9.74307C15.3478 9.85151 15.3172 9.95507 15.286 10.0635C14.4896 9.89596 13.9727 9.56041 13.686 9.08216L13.6883 9.08217Z" fill="black"/>
<path d="M18.2794 6.46365L17.9683 6.33032C18.3874 5.47211 18.9972 4.98411 19.7158 4.70276C19.7603 4.80142 19.8092 4.90498 19.8492 5.00854C19.2132 5.26499 18.6598 5.69434 18.2771 6.46365L18.2794 6.46365Z" fill="black"/>
<path d="M21.1079 6.01964C21.1486 6.01054 21.1901 6.00563 21.2319 6.00497C21.2671 6.00722 21.3018 6.01379 21.3354 6.02453C21.2732 6.11831 21.2061 6.2072 21.1385 6.30098C21.1688 6.30674 21.1985 6.31492 21.2274 6.32542C20.846 6.48173 20.4861 6.68605 20.1563 6.93342C21.423 7.90498 22.1679 9.30544 22.2865 11.2241C22.1728 11.2241 22.059 11.2192 21.9452 11.2192C21.8625 9.52765 21.2163 8.15254 19.8976 7.15029C19.4712 7.52263 19.1472 7.99804 18.9567 8.53119C19.9238 9.1774 20.5443 10.2201 20.8492 11.6334C20.7305 11.6481 20.6372 11.673 20.5181 11.6925C20.3065 10.7014 19.8616 9.62586 18.8536 8.86186C18.8172 8.97519 18.7758 9.09341 18.7398 9.20719C18.6363 9.17741 18.5278 9.14275 18.4189 9.11341C18.8483 7.46585 19.6496 6.67695 21.1079 6.02095L21.1079 6.01964Z" fill="black"/>
<path d="M22.5291 6.35566L23.9353 11.5387C24.0593 12.0276 24.3024 12.4067 24.9575 12.4018H26.2139C26.5659 12.4018 26.7828 12.2685 26.6433 11.7653C26.1579 9.96623 25.6707 8.16297 25.1815 6.35531H24.4365L25.8895 11.6323C25.9312 11.7554 25.8895 11.8101 25.7966 11.8146H25.3868C25.3103 11.8167 25.2441 11.762 25.2317 11.6866C24.7459 9.911 24.2539 8.13589 23.7686 6.35553L22.5291 6.35566ZM26.9135 6.35566H25.6535L27.3184 12.4002H28.0784L27.1064 8.86417L28.9869 12.4002H30.2313L28.5784 6.35566H27.8855L28.806 9.67477L26.9135 6.35566ZM35.0621 6.35566H33.7954L35.4652 12.4002H36.2208L35.2488 8.86417L37.1354 12.4002H38.3763L36.727 6.35566H36.0341L36.9545 9.67477L35.0621 6.35566ZM29.044 6.35566L30.7205 12.4002H31.6769L30.0005 6.35566H29.044ZM30.7449 7.02231C31.0449 8.52142 31.5516 10.149 32.0063 11.6383C32.177 12.1859 32.5081 12.4325 32.8392 12.4028C32.8771 12.402 32.9149 12.4036 32.9525 12.4077C33.3765 12.4077 33.7903 12.4077 34.2036 12.4028C34.5814 12.4126 34.8139 12.2646 34.845 11.9095V11.737C34.8375 11.6574 34.8255 11.5783 34.809 11.5001L33.5205 6.80899C33.4317 6.51788 33.2259 6.39921 32.9516 6.36988C32.8762 6.35994 32.8002 6.35504 32.7241 6.35521C32.3107 6.35032 31.8659 6.35032 31.3699 6.35521C30.9699 6.36499 30.7597 6.54232 30.7441 6.87786V7.02231L30.7449 7.02231ZM21.4589 5.93076H37.006L38.9758 12.9393H21.2002C23.0758 10.9859 23.1202 8.01707 21.4589 5.93076ZM32.9525 8.10097C33.2782 9.28942 33.5987 10.4632 33.9303 11.6565C33.9458 11.7454 33.9045 11.7899 33.8009 11.7992H33.476C33.2849 11.7894 33.1711 11.553 33.0987 11.3103C33.0543 11.1325 33.0058 10.9503 32.9538 10.7725C32.6076 9.52495 32.2249 8.24759 31.976 7.04894C31.9653 6.96005 31.9862 6.9156 32.0844 6.9156C32.2396 6.9156 32.4 6.91071 32.5498 6.91071C32.5911 6.91071 32.6325 6.9156 32.6387 6.96005C32.7471 7.34449 32.8507 7.71915 32.9538 8.09915L32.9525 8.10097Z" fill="white"/>
<path d="M4.56736 1.64978L7.05937 10.5273C6.41317 11.1784 6.60471 12.318 7.65403 12.6433C7.68514 12.7518 7.71625 12.8656 7.74692 12.9687H6.26826L3.48689 2.96862H1.78069L1.41357 1.64997L4.56736 1.64978Z" fill="#E30613"/>
<path d="M8.0266 10.5667C8.51238 10.5667 8.9106 10.9467 8.9106 11.4111C8.9106 11.8756 8.5106 12.2591 8.0266 12.2591C7.5426 12.2591 7.1377 11.8796 7.1377 11.4111C7.1377 10.9427 7.5377 10.5667 8.0266 10.5667Z" fill="#E30613"/>
<path d="M6.22217 1.64979H28.5838L28.9562 3.0409H8.13012L8.88568 5.85201H12.355C12.0517 6.20582 11.7975 6.59901 11.5995 7.02092H9.20968L10.8177 12.9684H9.39548C9.31237 12.6827 9.2297 12.3906 9.15237 12.0955C9.58659 11.3457 9.30748 10.6506 8.64571 10.2857L6.22217 1.64979Z" fill="#E30613"/>
<path d="M18.0092 5.78813C16.9647 5.47213 15.6207 5.75835 14.6901 6.53749C12.2185 8.80415 13.4901 11.6075 15.3621 12.564C17.4976 13.5111 19.0066 12.712 19.7675 12.0067C19.8861 12.4458 19.9999 12.88 20.119 13.3089C18.7746 14.4333 15.9208 14.9755 13.723 13.4173C11.4639 11.7604 11.2208 9.2004 11.8563 7.62729C12.8594 5.19617 15.1861 4.03707 17.6524 4.35262C17.7764 4.83129 17.8848 5.30953 18.0079 5.78818L18.0092 5.78813Z" fill="#E30613"/>
<path d="M17.0591 7.17367C17.0591 7.187 17.0631 7.19989 17.0657 7.21322L17.076 7.28878C17.0195 7.29367 16.9538 7.29367 16.8778 7.29856C16.8155 7.30345 16.7484 7.30345 16.6813 7.30345C16.6035 7.29856 16.5622 7.29856 16.5262 7.29856C16.5051 7.29769 16.4843 7.29441 16.464 7.28878C16.3941 7.27261 16.333 7.23031 16.2933 7.17056C16.2548 7.09684 16.2768 7.00596 16.3449 6.95811C16.3527 6.95266 16.3629 6.95185 16.3716 6.95598C16.3802 6.96012 16.3859 6.96856 16.3866 6.97811C16.3866 7.067 16.4124 7.12611 16.4538 7.15056C16.5476 7.16699 16.6429 7.17369 16.7382 7.17056C16.8271 7.16522 16.9346 7.17056 17.0586 7.17545L17.0591 7.17367Z" fill="#E30613"/>
<path d="M14.8887 7.42216C15.0171 7.35772 15.146 7.29594 15.2753 7.23016C15.1473 7.2955 15.0327 7.35283 14.9082 7.41905C14.9023 7.42252 14.8954 7.42363 14.8887 7.42216Z" fill="#EB1C24"/>
<path d="M15.2858 7.18866C15.2895 7.19982 15.2911 7.21157 15.2906 7.22333C15.1573 7.29222 15.0218 7.35666 14.8875 7.42022C14.8409 7.39577 14.7893 7.366 14.7542 7.34155C14.7284 7.31666 14.7542 7.28733 14.7853 7.302C14.8164 7.31666 14.8578 7.322 14.8991 7.33177H14.92C14.8801 7.27946 14.8331 7.23295 14.7804 7.19355L14.796 7.16378C14.8373 7.18378 14.8849 7.20333 14.9293 7.22333L14.8515 7.10466C14.8569 7.09978 14.8671 7.09489 14.8778 7.08511C14.9308 7.14429 14.9905 7.19723 15.0555 7.24289C15.0392 7.16491 15.0149 7.0888 14.9831 7.01578L15.0142 7.00111C15.0547 7.07527 15.1033 7.14473 15.1591 7.20822C15.1295 7.14523 15.0931 7.08563 15.0507 7.03044C15.0298 6.986 15.0867 6.98111 15.1022 6.99089C15.1741 7.0467 15.2369 7.11326 15.2884 7.18822L15.2858 7.18866Z" fill="#E30613"/>
<path d="M15.079 8.93316C15.0215 9.01405 14.9656 9.09494 14.9091 9.17938L15.079 8.93316ZM15.2099 8.75227C15.1645 8.81449 15.1215 8.87405 15.079 8.93316L15.2099 8.75227ZM15.2099 8.75005L15.079 8.93316L14.9091 9.17938C14.8856 9.16471 14.8681 9.1496 14.8451 9.13493C14.8337 9.12515 14.7577 9.09049 14.7172 9.06604C14.7057 9.05138 14.7112 9.03627 14.7347 9.03138C14.7752 9.02649 14.8162 9.02649 14.8566 9.0216C14.8102 9.00204 14.7637 8.97715 14.7172 8.9576C14.7163 8.94579 14.7183 8.93394 14.7232 8.92293C14.7732 8.92293 14.8277 8.91804 14.8801 8.91804C14.8354 8.89263 14.7927 8.86456 14.7522 8.83404C14.7287 8.79982 14.7697 8.78471 14.7872 8.79449C14.8428 8.80281 14.8992 8.80623 14.9556 8.80471L14.8451 8.71093C14.8516 8.70178 14.8593 8.69342 14.8681 8.68604C14.9206 8.70115 14.9791 8.7207 15.031 8.74026C15.0081 8.71092 14.9846 8.67626 14.9616 8.64648C14.9671 8.6367 14.9731 8.6367 14.9846 8.62692C15.0634 8.66303 15.1393 8.70417 15.2114 8.75003L15.2099 8.75005Z" fill="#E30613"/>
<path d="M17.7726 12.4312C17.7326 12.3538 17.6943 12.2729 17.6561 12.1903L17.5903 12.0445C17.6579 12.1705 17.7188 12.3 17.7726 12.4325L17.7726 12.4312Z" fill="#EB1C24"/>
<path d="M17.6562 12.1902C17.63 12.1328 17.6037 12.0746 17.5762 12.0164L17.5904 12.0431L17.6562 12.1902Z" fill="#EB1C24"/>
<path d="M17.5764 12.0117C17.6431 12.1588 17.7048 12.301 17.7715 12.4428C17.7213 12.4703 17.6746 12.4903 17.6333 12.5099C17.6591 12.4655 17.6848 12.421 17.7057 12.3766C17.6542 12.4108 17.6022 12.4503 17.5506 12.4899C17.5866 12.4357 17.6177 12.3814 17.6488 12.3268C17.5866 12.337 17.5195 12.3517 17.4577 12.3663C17.5093 12.3175 17.5608 12.2726 17.6128 12.2232C17.556 12.2432 17.504 12.2677 17.4524 12.2877C17.4835 12.2383 17.5195 12.1939 17.5506 12.1495C17.4988 12.1501 17.447 12.1534 17.3955 12.1592C17.4524 12.1099 17.5146 12.061 17.5764 12.0117Z" fill="#E30613"/>
<path d="M15.3891 11.9182L15.2546 11.9282L15.3736 11.8342L15.1821 11.7852L15.3786 11.7112L15.2236 11.6222L15.3996 11.5972L15.2491 11.4742L15.4511 11.4892L15.3271 11.4252L15.4766 11.4647L15.3891 11.9182Z" fill="#E30613"/>
<path d="M22.5293 6.35565H23.7702C24.256 8.13611 24.748 9.91122 25.2333 11.6892C25.2457 11.7646 25.312 11.8193 25.3884 11.8172H25.7969C25.8898 11.8123 25.9302 11.7581 25.8898 11.635L24.4369 6.35593H25.1818C25.6674 8.16099 26.1551 9.96425 26.6449 11.766C26.7844 12.2673 26.5675 12.4007 26.2155 12.4007H24.9591C24.3026 12.4055 24.0595 12.0259 23.9369 11.5375L22.5293 6.35565Z" fill="#E30613"/>
<path d="M26.9138 6.35516L28.8064 9.67418L27.8859 6.35516H28.5789L30.2329 12.4012H28.9874L27.1049 8.86518L28.0769 12.4012H27.3169L25.6523 6.35516H26.9138Z" fill="#E30613"/>
<path d="M35.0624 6.35516L36.9544 9.67418L36.0344 6.35516H36.7269L38.3769 12.4012H37.1359L35.2489 8.86518L36.2209 12.4012H35.4654L33.7954 6.35516H35.0624Z" fill="#E30613"/>
<path d="M29.0439 6.35516H30.001L31.676 12.4012H30.7195L29.0439 6.35516Z" fill="#E30613"/>
<path d="M32.9527 8.10114C32.8496 7.72114 32.746 7.34559 32.6376 6.96204C32.6322 6.91759 32.5931 6.9127 32.5487 6.9127C32.3989 6.9127 32.2376 6.91759 32.0833 6.91759C31.9851 6.91759 31.9642 6.96204 31.9749 7.05093C32.2229 8.25094 32.6055 9.52694 32.9527 10.7745C33.0047 10.9523 33.0514 11.1345 33.0976 11.3123C33.17 11.5541 33.2838 11.7905 33.4749 11.8012H33.8007C33.9043 11.7914 33.9456 11.747 33.93 11.6585C33.5989 10.4647 33.2785 9.29097 32.9522 8.10296L32.9527 8.10114ZM30.7451 7.02249V6.87938C30.7607 6.54382 30.9727 6.36647 31.3709 6.35672C31.8669 6.35184 32.3118 6.35184 32.7251 6.35672C32.8012 6.35655 32.8772 6.36145 32.9527 6.37139C33.2269 6.40072 33.4336 6.51939 33.5216 6.8105L34.8105 11.5003C34.827 11.5785 34.839 11.6576 34.8465 11.7372V11.9097C34.8154 12.2652 34.5829 12.4128 34.2051 12.403C33.7918 12.4079 33.378 12.4079 32.954 12.4079C32.9164 12.4038 32.8785 12.4022 32.8407 12.403C32.5096 12.4328 32.1785 12.1861 32.0078 11.6385C31.5518 10.1479 31.0451 8.5203 30.7451 7.02249Z" fill="#E30613"/>
<path d="M17.6952 6.64115C17.6871 6.63409 17.68 6.62585 17.6743 6.61671C17.6952 6.59182 17.721 6.56737 17.7468 6.5376C17.7623 6.51804 17.8037 6.51315 17.8503 6.51315C17.8708 6.51315 17.8917 6.51804 17.9072 6.51804C17.9152 6.51903 17.9225 6.52323 17.9274 6.52968C17.9322 6.53613 17.9343 6.54429 17.933 6.55226V6.57804C17.8503 6.57804 17.8245 6.58293 17.8192 6.58782C17.7789 6.60812 17.7375 6.62622 17.6952 6.64204L17.6952 6.64115Z" fill="white"/>
<path d="M17.209 6.80366C17.173 6.80899 17.1419 6.81877 17.1108 6.82366C17.0903 6.82366 17.0748 6.81388 17.0797 6.79877V6.77433C17.0778 6.75325 17.0708 6.73296 17.0592 6.71522L17.0281 6.72988C17.0356 6.75954 17.028 6.79099 17.0077 6.81388C16.997 6.81877 16.9868 6.82366 16.9766 6.81388C16.9663 6.80411 16.961 6.79877 16.9508 6.79388C16.9454 6.78483 16.9454 6.7736 16.9508 6.76455C16.9539 6.71243 16.9691 6.66176 16.9952 6.61655C17.0213 6.5916 17.0624 6.5916 17.0886 6.61655C17.135 6.67431 17.1748 6.73707 17.2072 6.80366L17.209 6.80366Z" fill="white"/>
</g>
</g>
<defs>
<clipPath id="clip0_795_2380">
<rect width="40" height="16" fill="white" transform="translate(0.142578)"/>
</clipPath>
<clipPath id="clip1_795_2380">
<rect width="40" height="14.5778" fill="white" transform="translate(0.142578 0.711121)"/>
</clipPath>
</defs>
</svg>
