<svg width="13" height="16" viewBox="0 0 13 16" fill="none" xmlns="http://www.w3.org/2000/svg">
<g clip-path="url(#clip0_795_2562)">
<path d="M6.4791 16C10.0506 16 12.9577 13.0913 12.9577 9.51537V0.54773C12.9567 0.329636 12.7862 0.149996 12.5687 0.137775C10.5843 0.046932 8.53618 0 6.4791 0C4.4222 0 2.37403 0.046932 0.389221 0.137775C0.171791 0.15001 0.00155587 0.329749 0.000976562 0.54773V9.51537C0.000976562 13.0911 2.90671 16 6.4791 16Z" fill="#B2B2B2"/>
<path d="M6.47886 15.6637C9.86559 15.6637 12.6211 12.9059 12.6211 9.51537V0.547726L12.6203 0.549326C12.6204 0.529179 12.6124 0.509826 12.5982 0.495545C12.584 0.481265 12.5647 0.473237 12.5446 0.473238C10.5683 0.38275 8.52809 0.335815 6.47873 0.335815C4.42937 0.335815 2.38939 0.382747 0.412576 0.473238C0.392462 0.473285 0.373192 0.481327 0.359001 0.495597C0.344812 0.509866 0.336914 0.529194 0.336914 0.549326V0.547726V9.51537C0.336204 12.9065 3.09131 15.6637 6.47886 15.6637Z" fill="#00205B"/>
<path d="M11.7436 9.55675C11.7436 12.4767 9.37861 14.8444 6.46066 14.8444C3.5427 14.8444 1.17822 12.4766 1.17822 9.55675C1.17822 6.63689 3.54308 4.2688 6.46066 4.2688C9.37823 4.2688 11.7436 6.63661 11.7436 9.55675Z" fill="#DA291C"/>
<path d="M10.4163 13.176C10.4247 13.167 10.4329 13.1583 10.4416 13.149C10.4629 13.1245 10.4854 13.1003 10.5067 13.0758C10.5117 13.0706 10.5167 13.0649 10.5213 13.0596C10.546 13.0312 10.5714 13.0022 10.5957 12.9736C10.5959 12.9729 10.5959 12.9721 10.5957 12.9714C10.7939 12.7357 10.9714 12.4831 11.1261 12.2167C11.2794 11.9513 11.4101 11.6734 11.5168 11.386C11.5168 11.3842 11.5182 11.3814 11.5189 11.3787C11.5319 11.3451 11.5434 11.3108 11.5557 11.2768C11.5582 11.2683 11.5614 11.2591 11.5639 11.2516C11.5736 11.2221 11.5839 11.1922 11.593 11.1627C11.5972 11.1496 11.6013 11.136 11.6059 11.1229C11.6134 11.0976 11.6212 11.072 11.6289 11.0468C11.6338 11.029 11.6392 11.0112 11.6443 10.9935C11.6502 10.9721 11.6564 10.9503 11.6621 10.9289C11.6678 10.9076 11.6736 10.885 11.6798 10.863C11.6841 10.8452 11.6887 10.8274 11.693 10.8097C11.6995 10.7835 11.7058 10.7576 11.7116 10.7314C11.715 10.7181 11.718 10.7046 11.7207 10.6913C11.7273 10.6603 11.7336 10.6301 11.74 10.5992C11.7418 10.5905 11.7436 10.5825 11.7452 10.5739C11.7523 10.5384 11.7589 10.5028 11.7654 10.4673C11.7654 10.4648 11.7654 10.4628 11.7663 10.4605C11.8187 10.1585 11.8451 9.85267 11.8454 9.54619C11.8454 9.2415 11.8192 8.93739 11.767 8.63723C11.767 8.63243 11.7654 8.6287 11.7646 8.62443C11.7589 8.59012 11.7523 8.55652 11.7459 8.52239C11.7439 8.5119 11.7423 8.50194 11.74 8.49146C11.7336 8.46266 11.728 8.4335 11.7214 8.40488C11.718 8.38959 11.715 8.37466 11.7116 8.35937C11.7058 8.33501 11.6995 8.31048 11.6939 8.28613C11.6891 8.26693 11.6848 8.24755 11.6798 8.22817C11.6749 8.20879 11.6692 8.18782 11.6621 8.16755C11.6564 8.14426 11.65 8.12062 11.6434 8.09768C11.6393 8.0815 11.6345 8.06568 11.6296 8.04951C11.6216 8.02248 11.6132 7.99511 11.6058 7.96862C11.602 7.956 11.5978 7.94444 11.5944 7.93306C11.5845 7.90213 11.5742 7.87066 11.5637 7.83937C11.5612 7.83297 11.5587 7.8264 11.5562 7.81964C11.544 7.78409 11.5317 7.74853 11.518 7.71298V7.71138C11.4114 7.42214 11.2801 7.14261 11.1257 6.87582C10.9511 6.57459 10.7473 6.29128 10.5172 6.02996C10.514 6.02569 10.5099 6.02142 10.5066 6.01769C10.4838 5.99156 10.4611 5.96613 10.4375 5.94089C10.4302 5.93289 10.4227 5.92489 10.416 5.91725C10.395 5.89467 10.3748 5.87351 10.3542 5.85182C10.343 5.8408 10.3332 5.83014 10.3226 5.81929C10.3048 5.80151 10.287 5.78267 10.2679 5.76472C10.2542 5.75103 10.2405 5.73716 10.2265 5.72347C10.2124 5.70978 10.1954 5.69325 10.1798 5.67867L10.1279 5.6305C10.1156 5.61876 10.1027 5.60739 10.0897 5.59494C10.0695 5.57716 10.0482 5.55796 10.0279 5.53947L10.0006 5.51512C9.97605 5.49378 9.95083 5.47263 9.92561 5.45147L9.91087 5.43921C9.67654 5.24549 9.42624 5.07201 9.1626 4.92065C8.89707 4.76784 8.61885 4.6383 8.33105 4.53345C8.32785 4.53203 8.32412 4.53078 8.32039 4.52936C8.28753 4.51727 8.25432 4.50589 8.22111 4.49487C8.21116 4.49114 8.2021 4.48776 8.19251 4.48456C8.16392 4.47479 8.13514 4.4659 8.1062 4.45665C8.09216 4.45221 8.0776 4.44723 8.06304 4.44314C8.03871 4.43567 8.0142 4.42838 7.98897 4.4211C7.97033 4.41541 7.95168 4.40972 7.93338 4.40474L7.87015 4.38696L7.80231 4.36919L7.75044 4.35692C7.72416 4.35034 7.69716 4.34376 7.67034 4.33736C7.65684 4.33505 7.64441 4.33239 7.63145 4.32936C7.59965 4.32279 7.56875 4.31603 7.53785 4.30945C7.5295 4.30803 7.52009 4.30643 7.51334 4.30483C7.47675 4.29736 7.44088 4.29096 7.40429 4.28439C7.4024 4.28461 7.40049 4.28461 7.3986 4.28439C6.79157 4.17992 6.17122 4.17962 5.56408 4.2835L5.55342 4.28581C5.5179 4.29167 5.4838 4.29807 5.44899 4.30465C5.4394 4.30643 5.42963 4.30874 5.41969 4.31034C5.3902 4.31674 5.36036 4.32261 5.33088 4.32919L5.2863 4.33879C5.2609 4.34447 5.23586 4.35034 5.21064 4.35656C5.19182 4.36083 5.17317 4.36563 5.15452 4.37043C5.13587 4.37523 5.11207 4.3811 5.09182 4.38679C5.06891 4.39247 5.04618 4.39905 5.02344 4.40456L4.97283 4.41985C4.94672 4.4275 4.91954 4.43478 4.89308 4.44296L4.85561 4.45523L4.76431 4.48438C4.75703 4.48741 4.74886 4.49025 4.74211 4.49238C4.70659 4.50465 4.67107 4.51692 4.63555 4.5299C4.63448 4.5299 4.6336 4.53096 4.632 4.53096C4.34248 4.63692 4.06257 4.76747 3.79529 4.92119C3.52926 5.07348 3.27695 5.24861 3.04117 5.44455C3.03868 5.44633 3.03602 5.44882 3.03389 5.45024C3.00618 5.47318 2.97919 5.49647 2.9529 5.51957L2.93176 5.53842C2.90885 5.55833 2.88612 5.57859 2.86427 5.59904C2.85291 5.60864 2.84207 5.6186 2.83141 5.62891C2.81188 5.64669 2.79323 5.66446 2.77458 5.68224C2.76055 5.6954 2.7467 5.70837 2.73231 5.72224C2.71792 5.73611 2.7014 5.753 2.68631 5.76775C2.67121 5.78251 2.65328 5.801 2.63676 5.81753C2.6245 5.82997 2.61225 5.84295 2.59999 5.85575C2.58081 5.87566 2.56199 5.89504 2.54316 5.91531C2.53446 5.92526 2.5254 5.93486 2.51652 5.94482C2.49503 5.96775 2.47389 5.99175 2.45222 6.01593C2.44707 6.02233 2.44157 6.0282 2.43642 6.0346C2.41273 6.06233 2.3887 6.0903 2.36431 6.11851C2.36306 6.12011 2.36146 6.12117 2.36022 6.12277C1.93929 6.62542 1.61419 7.20119 1.40114 7.82143C1.39936 7.8273 1.39688 7.83334 1.39475 7.83921C1.38391 7.87103 1.37414 7.90285 1.36366 7.9345C1.35976 7.94588 1.35638 7.95654 1.35319 7.96757C1.34413 7.99494 1.33543 8.02339 1.32797 8.05112C1.32353 8.06659 1.31909 8.08188 1.31411 8.09681C1.30754 8.12045 1.3015 8.14498 1.29511 8.16934C1.2896 8.18854 1.28463 8.20756 1.27966 8.22729C1.27468 8.24703 1.26936 8.26801 1.26491 8.28756C1.2587 8.31121 1.25302 8.33521 1.24715 8.35867C1.2436 8.37485 1.24023 8.39121 1.2365 8.40721C1.23064 8.43512 1.22442 8.46303 1.21874 8.49058C1.21643 8.50214 1.21376 8.51422 1.21163 8.52489C1.20506 8.55814 1.1992 8.59102 1.19387 8.62338C1.19387 8.62925 1.19174 8.63422 1.19085 8.64116C1.08677 9.24212 1.08677 9.85654 1.19085 10.4575C1.19085 10.4618 1.19227 10.4655 1.19298 10.4691C1.19867 10.5046 1.20542 10.5382 1.21181 10.5729C1.2143 10.5823 1.2159 10.5921 1.21749 10.6017C1.22389 10.6312 1.23028 10.6607 1.23632 10.6906C1.23969 10.7059 1.24254 10.7199 1.24609 10.7345C1.25177 10.7599 1.25817 10.785 1.26385 10.8095C1.26829 10.8289 1.27273 10.847 1.27753 10.8659C1.28232 10.8847 1.28889 10.908 1.29529 10.929C1.30168 10.9499 1.30701 10.9734 1.31305 10.9962C1.31802 11.0139 1.32282 11.0303 1.32832 11.0468C1.33578 11.0733 1.34306 11.1002 1.35194 11.1258C1.35532 11.1382 1.3594 11.151 1.36349 11.1633C1.37326 11.1935 1.38302 11.2237 1.3935 11.2538C1.39617 11.2619 1.39865 11.2698 1.4015 11.2774C1.41375 11.313 1.42601 11.3467 1.43826 11.3818C1.43917 11.3834 1.43994 11.385 1.44057 11.3867C1.65313 11.9635 1.96365 12.4991 2.35844 12.97C2.36002 12.9721 2.36174 12.9742 2.36359 12.9761C2.38703 13.0043 2.41065 13.0315 2.43463 13.0591C2.43996 13.0655 2.44617 13.0721 2.45239 13.0788C2.47299 13.1023 2.49395 13.1254 2.51491 13.148C2.52432 13.1588 2.53409 13.1691 2.54297 13.1791L2.59892 13.2374C2.61153 13.2504 2.62361 13.2639 2.6371 13.2769C2.65291 13.2932 2.6689 13.3092 2.6847 13.325C2.70051 13.3408 2.7165 13.3567 2.73283 13.3723L2.77262 13.4105C2.79216 13.4283 2.81152 13.4472 2.83105 13.4651C2.841 13.4749 2.85219 13.4847 2.86266 13.4936C2.88504 13.5149 2.90849 13.5353 2.93193 13.5561C2.93868 13.5618 2.94525 13.5679 2.95236 13.5739C2.98007 13.5976 3.00706 13.6212 3.03494 13.644C3.03695 13.646 3.03908 13.6479 3.04134 13.6496C3.51471 14.0416 4.05162 14.3495 4.6288 14.56C4.63164 14.5615 4.63484 14.5623 4.63804 14.5641C4.67143 14.576 4.70482 14.5874 4.73821 14.5997L4.76591 14.6095L4.85312 14.6377C4.86733 14.642 4.88082 14.6464 4.89539 14.6503C4.9199 14.6585 4.94512 14.6656 4.97034 14.6729C4.9881 14.6786 5.00693 14.6838 5.02575 14.6886C5.04458 14.6934 5.06713 14.7001 5.08845 14.7063C5.10976 14.7126 5.13374 14.719 5.15594 14.7241L5.2078 14.7371C5.23498 14.7437 5.26108 14.7501 5.28843 14.7549C5.3014 14.7581 5.31401 14.7607 5.32769 14.7632C5.35806 14.7705 5.38949 14.7771 5.42075 14.7831C5.42928 14.7851 5.43692 14.786 5.44562 14.7881C5.48114 14.7949 5.51808 14.802 5.55414 14.8084C5.55597 14.8086 5.55781 14.8086 5.55964 14.8084C6.20846 14.9208 6.87235 14.9134 7.51849 14.7865C7.52418 14.7856 7.53021 14.784 7.53625 14.7833C7.56947 14.7767 7.60321 14.7693 7.63554 14.7625C7.64708 14.7595 7.65809 14.7577 7.66875 14.7545C7.69734 14.7481 7.72612 14.7415 7.75453 14.7348L7.80089 14.7236C7.82522 14.7175 7.84973 14.7106 7.87406 14.7042C7.8936 14.6992 7.91243 14.6935 7.93179 14.6886C7.95115 14.6836 7.97264 14.677 7.99306 14.6708C8.01348 14.6646 8.03942 14.6576 8.06197 14.6503C8.07778 14.6454 8.09394 14.6404 8.11046 14.6349C8.1371 14.6265 8.16374 14.6182 8.19092 14.6089C8.20246 14.6052 8.21347 14.6006 8.22431 14.5972C8.25663 14.5865 8.28789 14.5753 8.3188 14.5639L8.33567 14.5579C8.90915 14.3474 9.44266 14.0409 9.91336 13.6512C9.91745 13.648 9.92047 13.6448 9.92473 13.642C9.95137 13.6201 9.97677 13.5977 10.0031 13.5755C10.011 13.5682 10.0198 13.5613 10.0281 13.5542C10.0501 13.5346 10.0713 13.5151 10.0931 13.4957C10.1045 13.4848 10.1167 13.4742 10.1286 13.4632C10.1475 13.4454 10.1654 13.4296 10.1833 13.4123C10.1981 13.3986 10.2126 13.3844 10.2272 13.3702C10.2418 13.356 10.2565 13.3412 10.2712 13.3263C10.289 13.3096 10.3068 13.2923 10.3235 13.2747C10.3348 13.2626 10.3462 13.2507 10.359 13.2392C10.3767 13.2173 10.397 13.197 10.4163 13.176ZM8.03798 14.5184C7.87085 14.5496 7.70215 14.4725 7.61617 14.3257C7.58059 14.2645 7.56218 14.1948 7.56288 14.1239V14.079C7.56351 14.0758 7.56294 14.0726 7.56129 14.0699C7.55637 14.0618 7.54598 14.059 7.53766 14.0635C7.53561 14.0649 7.53391 14.0667 7.53269 14.0688L7.51635 14.0911C7.42755 14.2002 7.20535 14.3159 6.83879 14.3851C6.8299 14.3867 6.82102 14.3878 6.81285 14.3895C6.81167 14.3897 6.81048 14.3897 6.8093 14.3895C6.77035 14.3961 6.7305 14.4023 6.68977 14.4082C6.68178 14.4096 6.67361 14.4107 6.66526 14.4116C6.50374 14.435 6.34091 14.4483 6.17774 14.4512C4.57179 14.4727 3.45856 13.8228 2.77777 13.2287C1.79585 12.2552 1.24374 10.929 1.24449 9.54567C1.24525 9.16115 1.28861 8.7779 1.37378 8.40292C1.41392 8.29028 1.5021 8.2014 1.61434 8.16043C1.72659 8.11946 1.85123 8.13067 1.9544 8.19101L1.99347 8.21448C1.99621 8.21622 1.9993 8.21732 2.00253 8.21768C2.01234 8.21768 2.02029 8.20972 2.02029 8.1999C2.02009 8.19753 2.01955 8.19519 2.01869 8.19297L2.00679 8.16737C1.95493 8.03564 1.9663 7.78674 2.0892 7.43618C2.09257 7.42782 2.09506 7.41982 2.09826 7.41093C2.09826 7.41093 2.09826 7.40844 2.09986 7.40755C2.11371 7.37111 2.12756 7.3336 2.14266 7.29591C2.14603 7.28791 2.14923 7.28044 2.15207 7.27244C2.21286 7.12173 2.28285 6.9749 2.36165 6.83281C3.14614 5.43834 4.26845 4.80331 5.12494 4.51335C6.85695 4.04685 8.70697 4.50095 10.027 5.71654C10.1373 5.84513 10.1542 6.0295 10.0692 6.1761C10.0336 6.23738 9.98206 6.28783 9.92004 6.32205L9.88079 6.34481C9.87791 6.34596 9.87548 6.34802 9.87386 6.35067C9.86933 6.35896 9.87206 6.36934 9.88008 6.37432C9.88224 6.37527 9.8845 6.37598 9.88682 6.37645L9.91471 6.37894C10.0534 6.40081 10.266 6.53449 10.5095 6.81609C10.5152 6.82232 10.5205 6.8296 10.5264 6.836C10.5275 6.836 10.5282 6.83832 10.5289 6.83903C10.5534 6.86871 10.5786 6.90018 10.6045 6.93236C10.6095 6.93876 10.6145 6.94534 10.6202 6.95174C10.7208 7.07952 10.8134 7.21341 10.8976 7.35262C11.7192 8.7254 11.7103 10.0107 11.5343 10.8935C11.0683 12.6228 9.74826 13.9915 8.03798 14.5184Z" fill="white"/>
<path d="M1.72259 1.9653L1.69398 1.21526L1.53611 1.28478L1.50342 1.11695L1.73964 1.02806L1.86929 1.02307L1.90482 1.9573L1.72259 1.9653Z" fill="white"/>
<path d="M2.32773 1.84618C2.32912 1.8761 2.31852 1.90535 2.29828 1.92741C2.27803 1.94948 2.24983 1.96254 2.21992 1.96369C2.15734 1.9659 2.10482 1.91691 2.10261 1.85427C2.1004 1.79163 2.14935 1.73905 2.21193 1.73684C2.24179 1.73589 2.27081 1.74689 2.29254 1.76741C2.31428 1.78793 2.32694 1.81628 2.32773 1.84618Z" fill="white"/>
<path d="M2.96693 1.14043L2.9741 1.38167L3.27616 1.37347L3.2803 1.52175L2.97824 1.52939L2.98927 1.92282L2.80913 1.9285L2.7832 0.99287L3.28306 0.979187L3.28747 1.13188L2.96693 1.14043Z" fill="white"/>
<path d="M3.81681 1.9155C3.59782 1.92012 3.49196 1.8195 3.48859 1.65613L3.479 1.18929L3.65661 1.1852L3.66567 1.61187C3.66798 1.72281 3.72144 1.7685 3.82268 1.76654C3.93191 1.76423 3.974 1.70236 3.97151 1.59819L3.96281 1.17847L4.13793 1.17438L4.14823 1.61793C4.15214 1.77793 4.05392 1.90982 3.81681 1.9155Z" fill="white"/>
<path d="M4.51737 1.90503C4.4696 1.90562 4.42193 1.90073 4.37528 1.89045L4.37936 1.73223C4.4284 1.74972 4.48025 1.75797 4.53228 1.75658C4.59178 1.75658 4.64151 1.72725 4.6408 1.67285C4.63885 1.56352 4.3506 1.62858 4.34721 1.39373C4.3449 1.25151 4.45022 1.1564 4.64789 1.15338C4.69197 1.15363 4.73598 1.15665 4.77968 1.16245L4.77666 1.31231C4.73295 1.30121 4.68801 1.29571 4.64292 1.29596C4.56708 1.29703 4.53635 1.32671 4.53635 1.37116C4.5376 1.47391 4.83208 1.42645 4.83563 1.64812C4.8383 1.79905 4.7179 1.90236 4.51737 1.90503Z" fill="white"/>
<path d="M5.16403 1.89684C5.11662 1.89649 5.06937 1.89131 5.02301 1.88138L5.02798 1.72316C5.07671 1.74096 5.12834 1.74946 5.18019 1.74822C5.23969 1.74822 5.28942 1.71925 5.28853 1.66538C5.28853 1.55605 4.99921 1.61969 4.99709 1.38414C4.99549 1.24192 5.10117 1.1477 5.29902 1.14539C5.34288 1.14618 5.38665 1.14962 5.43009 1.1557L5.42689 1.30503C5.38325 1.29373 5.33841 1.28776 5.29333 1.28725C5.21679 1.28867 5.18588 1.31801 5.18588 1.36227C5.1873 1.46485 5.48196 1.41863 5.48392 1.64015C5.48552 1.79214 5.36489 1.89489 5.16403 1.89684Z" fill="white"/>
<path d="M5.95085 1.87816C5.89881 1.87816 5.80414 1.87621 5.69349 1.87692L5.68994 1.15568C5.76329 1.15568 5.88123 1.15071 5.97714 1.14999C6.17091 1.14999 6.24994 1.21577 6.25012 1.32919C6.25152 1.40034 6.20721 1.46439 6.14019 1.48812V1.48955C6.22064 1.51106 6.26078 1.57203 6.26149 1.64954C6.26167 1.75817 6.18743 1.87781 5.95085 1.87816ZM5.94286 1.27568C5.92083 1.27568 5.89188 1.27711 5.86844 1.27711L5.86933 1.44937H5.92047C6.00466 1.44937 6.06132 1.41844 6.06079 1.35604C6.06043 1.30822 6.03272 1.2748 5.9425 1.27569L5.94286 1.27568ZM5.93042 1.56012C5.91497 1.56012 5.8878 1.56012 5.86933 1.5619L5.87021 1.74608C5.89558 1.74881 5.92107 1.75012 5.94659 1.74999C6.03397 1.74999 6.07357 1.70928 6.07304 1.64972C6.07269 1.58697 6.01976 1.56101 5.93007 1.56101L5.93042 1.56012Z" fill="white"/>
<path d="M6.92354 1.87551L6.87949 1.74893H6.60189L6.55554 1.87515H6.37598L6.64346 1.15408H6.85658L7.12087 1.87551L6.92354 1.87551ZM6.77524 1.44883C6.76298 1.41541 6.74931 1.37381 6.73971 1.34217C6.73083 1.37381 6.72018 1.41132 6.70792 1.44474L6.64345 1.61967H6.83722L6.77524 1.44883Z" fill="white"/>
<path d="M7.28613 1.87692L7.29137 1.1564L7.47013 1.15745L7.46517 1.72065L7.69965 1.72225L7.69799 1.88048L7.28613 1.87692Z" fill="white"/>
<path d="M7.87012 1.88188L7.87894 1.16156L8.0566 1.16404L8.05025 1.72652L8.28391 1.72955L8.28142 1.88704L7.87012 1.88188Z" fill="white"/>
<path d="M8.83043 1.90909C8.50362 1.9034 8.40293 1.68331 8.40685 1.45097C8.41182 1.15409 8.57131 0.948931 8.88389 0.954613C8.95074 0.956004 9.01716 0.965799 9.08157 0.983769L9.05937 1.14679C8.99842 1.12741 8.93504 1.11675 8.8711 1.11515C8.69705 1.11248 8.60895 1.24243 8.60469 1.42394C8.60096 1.62714 8.68373 1.74394 8.87199 1.74607C8.93428 1.74609 8.99599 1.73402 9.05368 1.71051L9.07144 1.87051C8.99389 1.89702 8.91238 1.91007 8.83043 1.90909Z" fill="white"/>
<path d="M9.27197 1.90574L9.2899 1.18503L9.46728 1.1893L9.45432 1.75162L9.68824 1.75746L9.68411 1.9155L9.27197 1.90574Z" fill="white"/>
<path d="M10.1591 1.94077C9.94066 1.93437 9.83942 1.82931 9.84494 1.6654L9.85844 1.19928L10.036 1.20408L10.0231 1.63075C10.0204 1.74168 10.071 1.79075 10.1721 1.79324C10.2819 1.79626 10.3264 1.73671 10.3291 1.63324L10.3422 1.21297L10.5174 1.21795L10.5044 1.66042C10.5003 1.82096 10.396 1.94825 10.1591 1.94077Z" fill="white"/>
<path d="M11.0046 1.95962C10.9524 1.95731 10.8581 1.95144 10.7471 1.94735L10.7741 1.22684C10.8472 1.23004 10.9645 1.23004 11.0604 1.23324C11.2543 1.24053 11.3302 1.30986 11.3268 1.4231C11.3249 1.4941 11.278 1.556 11.2103 1.57706V1.57884C11.2834 1.59855 11.3318 1.66795 11.3252 1.74346C11.3202 1.85208 11.2412 1.96833 11.0046 1.95962ZM10.997 1.64158C10.9817 1.64158 10.9538 1.64016 10.936 1.64158L10.9286 1.82576C10.9539 1.82945 10.9794 1.8317 11.005 1.83251C11.0923 1.83571 11.1341 1.79696 11.1355 1.73794C11.1373 1.67341 11.0867 1.64514 10.997 1.64158ZM11.0215 1.35714C10.9989 1.35714 10.9701 1.35714 10.9465 1.3559L10.9401 1.52763C10.9606 1.52959 10.9817 1.5303 10.9913 1.53101C11.076 1.53403 11.1334 1.50505 11.1355 1.44301C11.1373 1.39448 11.1112 1.3607 11.0215 1.35714Z" fill="white"/>
<path d="M1.60405 3.45831L1.58628 3.05252L1.19128 3.0688L1.20905 3.47486L1.02841 3.48204L0.990234 2.54731L1.16943 2.53984L1.18507 2.91321L1.58096 2.89777L1.56551 2.52456L1.74543 2.51727L1.78361 3.45142L1.60405 3.45831Z" fill="white"/>
<path d="M2.02306 3.44231L1.99854 2.72171L2.44132 2.70679L2.44628 2.84645L2.18184 2.85583L2.18681 2.99983L2.43848 2.99156L2.44328 3.12673L2.19161 3.13583L2.19693 3.29362L2.46104 3.28424L2.46601 3.42631L2.02306 3.44231Z" fill="white"/>
<path d="M2.69812 3.42027L2.67627 2.69986L2.85536 2.6947L2.87632 3.41447L2.69812 3.42027Z" fill="white"/>
<path d="M3.37547 3.40537C3.2785 3.40803 3.20053 3.40661 3.13446 3.40537L3.1167 2.68645C3.1817 2.68361 3.30887 2.67738 3.3975 2.67561C3.63141 2.66938 3.78913 2.76538 3.79515 3.01748C3.80172 3.28005 3.61809 3.39968 3.37547 3.40537ZM3.38311 2.8219C3.35496 2.82221 3.32685 2.82417 3.29892 2.82776L3.30887 3.25336C3.33567 3.25588 3.3626 3.25665 3.3895 3.25567C3.51809 3.25229 3.60938 3.17656 3.60583 3.03132C3.60281 2.88981 3.52786 2.81799 3.38382 2.8219L3.38311 2.8219Z" fill="white"/>
<path d="M3.99539 3.38742L3.98242 2.66679L4.42518 2.65915L4.42794 2.79929L4.16339 2.80342L4.16587 2.94797L4.418 2.94273L4.42076 3.07873L4.16835 3.08397L4.17139 3.24149L4.43593 3.23625L4.43869 3.37969L3.99539 3.38742Z" fill="white"/>
<path d="M5.12291 3.36976L4.90303 3.0206C4.87746 2.97838 4.85439 2.93469 4.83395 2.88976H4.83199C4.83466 2.92531 4.83679 2.96087 4.83697 3.01669L4.84158 3.37225L4.66984 3.37456L4.66113 2.65404L4.90108 2.65137L5.11421 2.99217C5.1427 3.03607 5.16827 3.0818 5.19076 3.12906H5.19236C5.18845 3.08586 5.18667 3.02613 5.18579 2.95128L5.18081 2.64905L5.35416 2.64709L5.36179 3.36781L5.12291 3.36976Z" fill="white"/>
<path d="M6.10527 3.36343L6.10389 3.07212L5.79768 3.07378L5.79906 3.36398L5.62169 3.36564L5.61865 2.64421H5.79603L5.79768 2.91985L6.10389 2.91819L6.10223 2.64261H6.28071L6.28375 3.36288L6.10527 3.36343Z" fill="white"/>
<path d="M6.54248 3.36286L6.54469 2.64188H6.98744V2.78218H6.72262V2.9259H6.97448V3.0619H6.72207V3.22024H6.98634V3.36231L6.54248 3.36286Z" fill="white"/>
<path d="M7.21631 3.3648L7.221 2.6442L7.40003 2.64508L7.39534 3.36562L7.21631 3.3648Z" fill="white"/>
<path d="M8.40426 3.37778L8.36039 3.03075C8.35276 2.97013 8.34636 2.91395 8.34263 2.87253H8.34103C8.33038 2.91822 8.31741 2.96782 8.30338 3.01475L8.18225 3.37475L7.99647 3.37244L7.89719 3.0368C7.88015 2.98163 7.86598 2.92561 7.85474 2.86898H7.85332C7.84977 2.92231 7.84409 2.97564 7.83556 3.0336L7.78796 3.36976L7.61035 3.36745L7.73166 2.64798L7.95616 2.651L8.06876 3.01812C8.08225 3.063 8.09334 3.10858 8.10197 3.15465H8.10357C8.11206 3.10961 8.12393 3.06527 8.13909 3.02202L8.26608 2.65527L8.49413 2.65776L8.5943 3.37988L8.40426 3.37778Z" fill="white"/>
<path d="M9.25101 3.39349L9.26866 2.6426L9.1059 2.70235L9.08301 2.5322L9.32521 2.45932L9.45487 2.46235L9.43445 3.39735L9.25101 3.39349Z" fill="white"/>
<path d="M9.93658 3.4266C9.73979 3.42162 9.62737 3.31993 9.63146 3.17167C9.63483 3.06411 9.71582 2.98998 9.80746 2.9354C9.7128 2.87887 9.65827 2.80651 9.66165 2.71265C9.66573 2.55052 9.80373 2.45167 9.99218 2.45683C10.1723 2.4618 10.2829 2.56349 10.2797 2.69487C10.2764 2.80047 10.203 2.86607 10.114 2.92189C10.2128 2.98162 10.2892 3.05593 10.2854 3.16669C10.2804 3.34535 10.1193 3.43246 9.93658 3.4266ZM9.94795 3.01024C9.87691 3.05255 9.82007 3.0938 9.81776 3.16011C9.81546 3.23122 9.86856 3.27851 9.95719 3.28064C10.0369 3.28295 10.0993 3.24331 10.1014 3.17397C10.1037 3.10073 10.0312 3.05575 9.94724 3.01024H9.94795ZM9.97424 2.59905C9.89183 2.59673 9.84316 2.63851 9.84138 2.69967C9.83961 2.76082 9.89023 2.80082 9.97352 2.84722C10.0549 2.79976 10.0957 2.75834 10.0978 2.705C10.1 2.65167 10.0622 2.60171 9.97424 2.59905Z" fill="white"/>
<path d="M10.9855 3.22052L10.9775 3.44381L10.8034 3.43741L10.8107 3.21484L10.432 3.20168L10.4116 3.05946L10.7855 2.50159L11.01 2.50923L10.9913 3.05786L11.1306 3.06319L11.1251 3.22497L10.9855 3.22052ZM10.8327 2.67349H10.831L10.5841 3.05001C10.6455 3.05001 10.7748 3.0541 10.8196 3.0557L10.8327 2.67349Z" fill="white"/>
<path d="M11.5685 3.48232C11.3746 3.47415 11.2501 3.33708 11.2615 3.07149C11.2767 2.68909 11.4966 2.51558 11.7662 2.52625C11.8023 2.52729 11.8383 2.5308 11.8739 2.53674L11.8673 2.69478C11.8314 2.68504 11.7945 2.67961 11.7573 2.6786C11.614 2.67292 11.5119 2.74634 11.4666 2.89709C11.4623 2.90918 11.4584 2.92553 11.4527 2.94349L11.4536 2.94491C11.5009 2.89549 11.5692 2.86776 11.6589 2.87185C11.8365 2.87913 11.9431 2.99984 11.9357 3.15932C11.9268 3.36572 11.7776 3.49085 11.5685 3.48232ZM11.6076 3.01673C11.5673 3.01345 11.5275 3.02721 11.4978 3.05467C11.4681 3.08213 11.4512 3.12079 11.4513 3.16126C11.4478 3.25566 11.4959 3.32819 11.5872 3.33193C11.6888 3.33619 11.7453 3.26935 11.7485 3.17655C11.7517 3.08375 11.7053 3.02064 11.6076 3.01673Z" fill="white"/>
<path d="M6.51949 11.7333C5.15404 11.7333 5.00342 10.7686 5.00342 9.73666C5.00377 8.46964 5.29202 7.5022 6.67932 7.5022C6.97397 7.5022 7.04111 7.53882 7.31054 7.61295L7.22529 8.33775C6.95586 8.25846 6.91873 8.21526 6.63616 8.21526C5.94155 8.21526 5.8815 8.88797 5.8815 9.60333C5.8815 10.3788 5.95147 11.0095 6.69156 11.0095C6.94323 11.0095 7.03506 10.9359 7.24959 10.8376L7.34159 11.5503C7.03451 11.6602 6.90649 11.7333 6.51949 11.7333Z" fill="white"/>
<path d="M9.40593 11.6778H9.42795C10.0663 11.6753 10.2021 11.2295 10.2039 10.6444V7.53327H9.40591V9.19102H8.47916V7.53271H7.68115V11.6778H8.47916V9.87868H9.40591L9.40593 11.6778Z" fill="white"/>
<path d="M3.69914 8.52364C3.69914 8.3448 3.74195 8.20808 3.9382 8.20808H4.8465V7.53253H3.68422C3.04003 7.53253 2.90274 7.97945 2.90186 8.56629V11.6774H3.69914V9.93416H4.66887V9.27641H3.69914V8.52364Z" fill="white"/>
</g>
<defs>
<clipPath id="clip0_795_2562">
<rect width="12.9567" height="16" fill="white" transform="translate(0.000976562)"/>
</clipPath>
</defs>
</svg>
