<svg width="18" height="16" viewBox="0 0 18 16" fill="none" xmlns="http://www.w3.org/2000/svg">
<g clip-path="url(#clip0_795_2654)">
<path d="M8.86107 16C13.6367 16 17.5083 12.4183 17.5083 7.99985C17.5083 3.58143 13.6367 0 8.86107 0C4.08543 0 0.213867 3.58173 0.213867 7.99985C0.213867 12.418 4.08543 16 8.86107 16Z" fill="white"/>
<path d="M7.42746 8.06217C7.26009 6.30822 6.30237 4.95156 5.28832 5.03386C4.27427 5.11616 3.5881 6.6027 3.75565 8.35647C3.78674 8.68733 3.84836 9.01464 3.93974 9.33432C4.30081 10.5868 5.07962 11.4499 5.89478 11.3848C6.64998 11.3243 7.22338 10.4837 7.39767 9.33414C7.45951 8.91293 7.46952 8.48576 7.42746 8.06217ZM5.73243 9.63256C5.52355 9.64935 5.31948 9.53714 5.14731 9.33429C4.91576 9.06178 4.74245 8.62707 4.69477 8.12744C4.61156 7.25705 4.94131 6.51948 5.43133 6.48015C5.92133 6.44084 6.38598 7.11467 6.46899 7.98527C6.52145 8.536 6.40885 9.03352 6.19478 9.33429C6.07065 9.50948 5.9123 9.61806 5.73243 9.63256Z" fill="#E30613"/>
<path d="M8.87687 15.0876H8.84574C8.22469 15.0847 7.55385 14.9922 6.9789 14.8586C7.97025 13.1605 8.1307 11.488 8.1307 11.488V5.98952L4.86743 3.13923C3.58111 4.17126 2.7704 5.68896 2.7704 7.38172C2.7704 9.68453 4.27578 11.6698 6.43442 12.5432L5.74995 14.4529C3.048 13.3432 1.16455 10.8557 1.16455 7.96451C1.16455 4.5435 3.80368 1.69023 7.3136 1.01366C7.34611 1.0082 7.37902 1.00545 7.41199 1.00545C7.70023 1.00545 7.93506 1.20755 7.93506 1.45678C7.93506 1.64647 7.79958 1.80869 7.60837 1.87661C6.99045 1.99741 6.39389 2.20822 5.83799 2.50216L8.84573 5.12155L11.8818 2.50061C11.3265 2.20741 10.7309 1.99702 10.1139 1.8762C9.92175 1.80921 9.78723 1.64719 9.78723 1.45636C9.78723 1.20713 10.0215 1.00504 10.3103 1.00504C10.3433 1.00504 10.3762 1.00779 10.4087 1.01324C13.9191 1.68975 16.5577 4.54368 16.5577 7.9641C16.5577 10.8547 14.6746 13.3421 11.9726 14.4525L11.2874 12.5432C13.4459 11.6699 14.9523 9.68447 14.9523 7.38169C14.9523 5.68917 14.1416 4.17179 12.8557 3.1395L9.59209 5.98944V11.4879C9.59209 11.4879 9.75235 13.1605 10.7439 14.8594C10.1689 14.9912 9.49813 15.0847 8.87687 15.0884L8.87687 15.0876Z" fill="#E30613"/>
<path d="M13.6461 7.50309C13.8646 8.66089 13.0954 10.2567 11.6067 11.3374C11.3658 11.5122 11.3133 11.6091 11.1396 11.7L10.7995 10.7189C11.0051 10.6219 11.0821 10.5765 11.3521 10.3805C12.0527 9.87197 12.4297 9.1884 12.3214 8.61342C12.2476 8.22221 11.9415 7.83538 11.4307 8.20617C11.0439 8.48688 10.8118 8.70788 10.4878 9.05633L10.4947 6.24L12.8479 4.23624L12.8264 5.48603L11.5796 6.46444L11.5908 7.29323C11.7 7.19359 11.8156 7.10097 11.9367 7.01595C12.7539 6.42284 13.484 6.64248 13.6459 7.50144L13.6461 7.50309Z" fill="#E30613"/>
<path d="M8.86115 15.61C4.32764 15.61 0.63916 12.1958 0.63916 7.99957C0.63916 3.80329 4.32764 0.389435 8.86115 0.389435C13.3947 0.389435 17.0831 3.80329 17.0831 7.99957C17.0831 12.1958 13.3947 15.61 8.86115 15.61ZM8.86115 0.489623C4.38369 0.489623 0.739647 3.85875 0.739647 7.99986C0.739647 12.141 4.38369 15.5101 8.86115 15.5101C13.3386 15.5101 16.9827 12.141 16.9827 7.99986C16.9827 3.85875 13.3395 0.489623 8.86115 0.489623Z" fill="#E30613"/>
</g>
<defs>
<clipPath id="clip0_795_2654">
<rect width="17.2944" height="16" fill="white" transform="translate(0.213867)"/>
</clipPath>
</defs>
</svg>
