<svg width="17" height="16" viewBox="0 0 17 16" fill="none" xmlns="http://www.w3.org/2000/svg">
<g clip-path="url(#clip0_820_214)">
<path d="M3.04856 0H13.6469C15.2537 0 16.5528 1.29915 16.5528 2.90598V13.094C16.5528 14.7009 15.2537 16 13.6469 16H3.04856C1.44172 16 0.142578 14.7009 0.142578 13.094V2.90598C0.142578 1.29915 1.44172 0 3.04856 0Z" fill="#000B1D"/>
<path d="M13.3391 9.26497C12.5802 8.45813 10.481 8.78634 9.98871 8.86839C9.26392 8.16412 8.75794 7.32993 8.587 7.02224C8.8605 6.24275 9.03828 5.4154 9.06563 4.60172C9.06563 3.86326 8.77162 3.0701 7.9511 3.0701C7.66392 3.07694 7.40409 3.2342 7.2605 3.47352C6.91179 4.07523 7.04854 5.31967 7.60922 6.57779C7.28102 7.50087 6.80922 8.8342 6.187 9.91454C5.34597 10.2496 3.56136 11.0701 3.39042 11.9795C3.33572 12.2462 3.43144 12.5197 3.63657 12.7043C3.83486 12.8821 4.09469 12.971 4.36136 12.9641C5.43486 12.9641 6.50837 11.4735 7.23315 10.1949C7.8417 9.98292 8.81264 9.70258 9.79042 9.5248C10.9255 10.5163 11.9374 10.6667 12.4502 10.6667C13.1477 10.6667 13.4075 10.3658 13.5032 10.1128C13.6058 9.82565 13.5443 9.49745 13.3391 9.26497ZM12.6007 9.78463C12.5665 9.98292 12.3135 10.1812 11.8417 10.0786C11.2947 9.94189 10.7819 9.68206 10.3511 9.32651C10.7203 9.26497 11.5819 9.18292 12.1904 9.29916C12.4092 9.34018 12.6622 9.46326 12.6007 9.78463ZM7.70495 3.73335C7.75281 3.64446 7.8417 3.58292 7.94427 3.58292C8.20409 3.58292 8.2588 3.89745 8.2588 4.15728C8.22461 4.7795 8.08785 5.4154 7.91691 5.98292C7.47931 4.82053 7.54085 4.01369 7.70495 3.73335ZM7.64341 9.4154C7.87589 8.95728 8.20409 8.12309 8.32033 7.78805C8.58016 8.21882 9.01777 8.75899 9.25025 9.00514C9.25709 8.9983 8.36136 9.18292 7.64341 9.4154ZM5.92717 10.5915C5.23657 11.6992 4.55965 12.3966 4.16307 12.3966C4.10153 12.3966 4.03315 12.3761 3.98529 12.3351C3.91008 12.2735 3.87589 12.1778 3.8964 12.0821C3.97162 11.6855 4.75794 11.1111 5.92717 10.5915Z" fill="white"/>
</g>
<defs>
<clipPath id="clip0_820_214">
<rect width="16.4103" height="16" fill="white" transform="translate(0.142578)"/>
</clipPath>
</defs>
</svg>
