<svg width="17" height="16" viewBox="0 0 17 16" fill="none" xmlns="http://www.w3.org/2000/svg">
<g clip-path="url(#clip0_820_77)">
<path d="M13.8014 0H3.2031C1.59817 0 0.297119 1.30105 0.297119 2.90598V13.094C0.297119 14.6989 1.59817 16 3.2031 16H13.8014C15.4063 16 16.7074 14.6989 16.7074 13.094V2.90598C16.7074 1.30105 15.4063 0 13.8014 0Z" fill="#49021F"/>
<path d="M6.89514 4.18574V11.1982C6.89514 11.2716 6.86212 11.3083 6.79608 11.3083H5.46402C5.40522 11.3083 5.37588 11.2716 5.37598 11.1982V4.18574C5.37598 4.12708 5.409 4.09772 5.47504 4.09767H6.80707C6.81903 4.09597 6.83122 4.09707 6.84268 4.1009C6.85414 4.10472 6.86456 4.11116 6.8731 4.11971C6.88164 4.12825 6.88808 4.13866 6.89191 4.15013C6.89573 4.16159 6.89684 4.17378 6.89514 4.18574Z" fill="#FF3366"/>
<path d="M12.1462 10.0203V11.1541C12.1471 11.1741 12.1424 11.194 12.1327 11.2115C12.123 11.2289 12.1086 11.2434 12.0912 11.2532C11.9036 11.3236 11.7073 11.368 11.5077 11.3853C11.2876 11.4073 11.0747 11.4183 10.8692 11.4184C10.4525 11.425 10.0381 11.3541 9.64726 11.2092C9.30303 11.08 8.99119 10.8771 8.73357 10.6147C8.48243 10.3555 8.28589 10.0486 8.15561 9.71202C8.01802 9.35761 7.94891 8.98032 7.95195 8.60016C7.94184 8.08057 8.07516 7.56825 8.33727 7.11951C8.59787 6.68656 8.97316 6.33413 9.4216 6.10121C9.88758 5.85179 10.4325 5.72703 11.0564 5.72693C11.2735 5.72296 11.4907 5.73584 11.7059 5.76546C11.8322 5.78504 11.9573 5.81262 12.0802 5.84802C12.0994 5.86135 12.1147 5.87964 12.1244 5.90096C12.1341 5.92229 12.1378 5.94584 12.1352 5.96911L12.1242 7.10299C12.1242 7.16905 12.0948 7.19474 12.0361 7.18005C11.9147 7.13679 11.7893 7.10546 11.6618 7.08649C11.4797 7.05878 11.2956 7.04589 11.1114 7.04796C10.8311 7.0437 10.5533 7.10002 10.2968 7.21307C10.0609 7.31761 9.86163 7.49009 9.72432 7.70847C9.58483 7.92864 9.51511 8.20752 9.51515 8.54512C9.51515 8.9268 9.59772 9.2277 9.76285 9.44782C9.92084 9.6627 10.1393 9.82559 10.3904 9.91568C10.6354 10.006 10.8943 10.0526 11.1554 10.0533C11.332 10.0541 11.5084 10.0449 11.6839 10.0258C11.8107 10.0143 11.9361 9.99038 12.0582 9.95421C12.1168 9.93958 12.1461 9.9616 12.1462 10.0203Z" fill="#FF3366"/>
</g>
<defs>
<clipPath id="clip0_820_77">
<rect width="16.4103" height="16" fill="white" transform="translate(0.297119)"/>
</clipPath>
</defs>
</svg>
