<svg width="18" height="16" viewBox="0 0 18 16" fill="none" xmlns="http://www.w3.org/2000/svg">
<g clip-path="url(#clip0_820_188)">
<path d="M2.45155 0H15.0671C16.2139 0 17.1426 0.92871 17.1426 2.07557V13.9244C17.1426 15.0713 16.2139 16 15.0671 16H2.45155C1.30469 16 0.375977 15.0713 0.375977 13.9244V2.07557C0.375977 0.92871 1.30469 0 2.45155 0Z" fill="black"/>
<path d="M8.45387 4.0202C10.679 4.0202 12.4866 5.82153 12.4866 8.04669V8.05293C12.4866 10.2781 10.6853 12.0856 8.4601 12.0856H8.45387C6.2287 12.0856 4.42114 10.2843 4.42114 8.05916V8.05293C4.42114 5.82776 6.22247 4.0202 8.44763 4.0202H8.45387ZM8.45387 11.3252C10.2614 11.3252 11.7262 9.86048 11.7262 8.05293C11.7262 6.24537 10.2614 4.78062 8.45387 4.78062C6.64631 4.78062 5.18156 6.24537 5.18156 8.05293C5.18156 9.86048 6.64631 11.3252 8.45387 11.3252Z" fill="white"/>
<path d="M12.5614 12.3287L8.03003 8.04667L12.5614 3.88306L12.9478 4.30066L8.86525 8.0529L12.9478 11.9111L12.5614 12.3287Z" fill="white"/>
<path d="M13.1535 4.67466C13.6974 4.67466 14.1383 4.23375 14.1383 3.68985C14.1383 3.14596 13.6974 2.70505 13.1535 2.70505C12.6096 2.70505 12.1687 3.14596 12.1687 3.68985C12.1687 4.23375 12.6096 4.67466 13.1535 4.67466Z" fill="white"/>
<path d="M8.4538 9.09382C8.99769 9.09382 9.43861 8.65291 9.43861 8.10901C9.43861 7.56512 8.99769 7.12421 8.4538 7.12421C7.90991 7.12421 7.46899 7.56512 7.46899 8.10901C7.46899 8.65291 7.90991 9.09382 8.4538 9.09382Z" fill="white"/>
<path d="M13.0913 13.2948C13.6351 13.2948 14.0761 12.8539 14.0761 12.31C14.0761 11.7661 13.6351 11.3252 13.0913 11.3252C12.5474 11.3252 12.1064 11.7661 12.1064 12.31C12.1064 12.8539 12.5474 13.2948 13.0913 13.2948Z" fill="white"/>
</g>
<defs>
<clipPath id="clip0_820_188">
<rect width="16.7667" height="16" fill="white" transform="translate(0.375977)"/>
</clipPath>
</defs>
</svg>
