<svg width="17" height="16" viewBox="0 0 17 16" fill="none" xmlns="http://www.w3.org/2000/svg">
<g clip-path="url(#clip0_820_159)">
<path d="M0.09375 0V16H16.504V0H0.09375Z" fill="#EAEAEA"/>
<path d="M5.02375 8.04102L6.80153 6.33162L8.50409 8.04102L6.76734 9.7641L5.02375 8.04102ZM9.98785 7.9453L7.51948 5.50427L8.3605 4.6359L11.6836 7.97949L8.32632 11.3231L7.46478 10.4684L9.98785 7.9453ZM9.13999 3.8906L9.91948 3.11795L14.8631 8.04786L9.94683 12.9573L9.08529 12.0821L13.2426 7.97949L9.13999 3.8906ZM8.3058 1.50427L9.20153 2.39316L3.46478 8.00684L9.17418 13.7231L8.26478 14.6325L1.73486 8.04102L8.3058 1.50427Z" fill="#EC1C24"/>
</g>
<defs>
<clipPath id="clip0_820_159">
<rect width="16.4103" height="16" fill="white" transform="translate(0.09375)"/>
</clipPath>
</defs>
</svg>
