<svg width="17" height="16" viewBox="0 0 17 16" fill="none" xmlns="http://www.w3.org/2000/svg">
<g clip-path="url(#clip0_820_143)">
<path d="M13.9568 0H3.3585C1.75357 0 0.452515 1.30105 0.452515 2.90598V13.094C0.452515 14.6989 1.75357 16 3.3585 16H13.9568C15.5617 16 16.8628 14.6989 16.8628 13.094V2.90598C16.8628 1.30105 15.5617 0 13.9568 0Z" fill="#00005B"/>
<path d="M2.76635 4.16401C2.76731 4.15409 2.77026 4.14448 2.77502 4.13573C2.77979 4.12699 2.78628 4.1193 2.7941 4.11313C2.80191 4.10696 2.8109 4.10243 2.82051 4.09982C2.83012 4.09722 2.84016 4.09658 2.85002 4.09795H4.77432C4.7996 4.09455 4.82525 4.1005 4.84644 4.1147C4.86763 4.1289 4.88289 4.15035 4.88936 4.17503C4.93804 4.36595 4.9973 4.59529 5.06714 4.86306C5.13676 5.13104 5.2117 5.42643 5.29198 5.74924C5.37207 6.07228 5.45399 6.40253 5.53776 6.74001C5.62143 7.07767 5.70336 7.40609 5.78354 7.72527C5.86359 8.04452 5.93156 8.33808 5.98745 8.60597C6.04318 8.87394 6.0885 9.09595 6.12342 9.27198H6.13389C6.16164 9.11785 6.21044 8.91236 6.2803 8.65549C6.34988 8.39868 6.43005 8.11063 6.52081 7.79133C6.61136 7.47208 6.70374 7.14366 6.79796 6.80605C6.89209 6.46858 6.98448 6.13466 7.0751 5.80428C7.16562 5.47402 7.25103 5.16761 7.33132 4.88506C7.4114 4.60263 7.47589 4.36595 7.52479 4.17503C7.52827 4.15286 7.53979 4.13275 7.55716 4.11853C7.57452 4.10432 7.59651 4.09699 7.61893 4.09795H9.49092C9.50223 4.09642 9.51374 4.09723 9.52472 4.10034C9.5357 4.10345 9.54593 4.10878 9.55476 4.11601C9.56359 4.12324 9.57084 4.13221 9.57605 4.14237C9.58126 4.15252 9.58433 4.16364 9.58506 4.17503L9.83604 11.2095C9.83992 11.2217 9.84052 11.2348 9.83777 11.2474C9.83502 11.2599 9.82902 11.2715 9.82037 11.281C9.81162 11.2902 9.80104 11.2973 9.78932 11.3021C9.7776 11.3068 9.765 11.309 9.75237 11.3086H8.39283C8.37402 11.3092 8.35554 11.3034 8.34053 11.292C8.33268 11.2842 8.32672 11.2747 8.32309 11.2642C8.31947 11.2537 8.31829 11.2425 8.31963 11.2315C8.31963 10.8572 8.31788 10.4646 8.31439 10.0536C8.31078 9.64266 8.30555 9.22984 8.29869 8.81512C8.29169 8.40059 8.29169 8.00244 8.29869 7.62069C8.30558 7.23918 8.30907 6.8869 8.30916 6.56386C8.30916 6.24101 8.31091 5.9603 8.31439 5.72172C8.31782 5.48332 8.31956 5.30535 8.31963 5.1878H8.30916C8.26733 5.37134 8.21155 5.6117 8.14182 5.90887C8.07205 6.20609 7.99013 6.54002 7.89608 6.91064C7.80194 7.28131 7.70085 7.66478 7.5928 8.06103C7.48461 8.45734 7.38002 8.84998 7.27905 9.23895C7.1779 9.62803 7.08028 9.99132 6.9862 10.3288C6.89209 10.6664 6.81366 10.9637 6.75089 11.2205C6.74461 11.2461 6.72979 11.2687 6.70887 11.2848C6.68795 11.3008 6.66219 11.3092 6.63585 11.3086H5.45409C5.42591 11.3125 5.39728 11.3056 5.37399 11.2892C5.3507 11.2729 5.33448 11.2483 5.32858 11.2205C5.26584 10.9637 5.19438 10.6664 5.1142 10.3288C5.03396 9.99132 4.95203 9.63905 4.86842 9.27198C4.78479 8.90508 4.69589 8.52895 4.60174 8.14359C4.50764 7.75829 4.41875 7.38584 4.33506 7.02624C4.25143 6.66673 4.17648 6.32914 4.11022 6.01345C4.04387 5.69798 3.98286 5.4191 3.92721 5.1768H3.90628V6.04647C3.90628 6.38413 3.90105 6.75659 3.89061 7.16384C3.88014 7.57116 3.86969 7.99683 3.85924 8.44084C3.84877 8.88496 3.83657 9.34365 3.82264 9.81691C3.80859 10.2903 3.79115 10.7581 3.77034 11.2205C3.77034 11.2793 3.74239 11.3086 3.68667 11.3086H2.47354C2.44978 11.3096 2.4262 11.3039 2.40557 11.292C2.38806 11.281 2.38283 11.2535 2.38987 11.2095L2.76635 4.16401Z" fill="#9999FF"/>
<path d="M13.9003 8.90608H11.7316C11.7583 9.11171 11.8297 9.30899 11.9408 9.48404C12.0639 9.66756 12.238 9.81105 12.4417 9.89685C12.6655 9.99971 12.9572 10.0511 13.3169 10.051C13.5549 10.052 13.7925 10.0317 14.0269 9.99043C14.2482 9.95087 14.4643 9.88623 14.6709 9.79777C14.7075 9.76854 14.726 9.78677 14.726 9.85283V10.8986C14.7278 10.9271 14.7221 10.9556 14.7094 10.9812C14.6968 11.0012 14.6799 11.0181 14.6599 11.0307C14.4319 11.1386 14.1916 11.218 13.9444 11.2674C13.625 11.3274 13.3005 11.3551 12.9756 11.35C12.4544 11.35 12.0177 11.2693 11.6656 11.1078C11.3327 10.9611 11.0386 10.7387 10.8069 10.4583C10.5905 10.1941 10.4295 9.88892 10.3335 9.56109C10.2385 9.23753 10.1903 8.90204 10.1904 8.56482C10.1894 8.19661 10.247 7.83058 10.3611 7.48048C10.4709 7.13897 10.6446 6.82143 10.873 6.54475C11.0982 6.27131 11.3798 6.04975 11.6986 5.89525C12.0571 5.72986 12.4488 5.6489 12.8435 5.65857C13.2087 5.64934 13.5714 5.72075 13.9058 5.86772C14.1884 5.99572 14.4358 6.19024 14.6269 6.43466C14.8072 6.6674 14.9451 6.93013 15.0342 7.21077C15.1209 7.48122 15.1655 7.76341 15.1663 8.04743C15.1663 8.20893 15.1608 8.35571 15.1498 8.48776C15.1388 8.61986 15.1296 8.71527 15.1223 8.77398C15.1194 8.79826 15.1077 8.82063 15.0895 8.83687C15.0712 8.8531 15.0476 8.86207 15.0232 8.86206C14.9791 8.86206 14.9039 8.86756 14.7975 8.87857C14.691 8.88957 14.5589 8.89691 14.4012 8.90059C14.2433 8.90436 14.0763 8.90619 13.9003 8.90608ZM11.7316 7.83825H13.1738C13.3499 7.83825 13.4802 7.83642 13.5645 7.83274C13.6182 7.83277 13.6717 7.82724 13.7242 7.81624V7.75018C13.722 7.66408 13.7071 7.57878 13.6802 7.49699C13.6208 7.30918 13.5014 7.14606 13.3403 7.0327C13.1792 6.91934 12.9853 6.86201 12.7885 6.8695C12.6032 6.85831 12.4187 6.90126 12.2574 6.99313C12.0962 7.08501 11.9651 7.22182 11.8803 7.3869C11.8052 7.5277 11.7549 7.68039 11.7316 7.83825Z" fill="#9999FF"/>
</g>
<defs>
<clipPath id="clip0_820_143">
<rect width="16.4103" height="16" fill="white" transform="translate(0.452515)"/>
</clipPath>
</defs>
</svg>
