<svg width="17" height="16" viewBox="0 0 17 16" fill="none" xmlns="http://www.w3.org/2000/svg">
<g clip-path="url(#clip0_820_122)">
<path d="M13.9048 16H3.31055C1.70784 16 0.403931 14.6961 0.403931 13.0934V2.90662C0.403931 1.30391 1.70784 0 3.31055 0H13.9048C15.5075 0 16.8114 1.30391 16.8114 2.90662V13.0934C16.8114 14.6961 15.5075 16 13.9048 16Z" fill="#00005B"/>
<path fill-rule="evenodd" clip-rule="evenodd" d="M8.6249 5.05576C7.04935 5.05576 5.75903 6.33251 5.75903 7.92164C5.75903 9.51078 7.03577 10.7875 8.6249 10.7875C10.214 10.7875 11.4908 9.51078 11.4908 7.92164C11.4772 6.33251 10.2005 5.05576 8.6249 5.05576ZM10.2005 8.11178L7.67414 9.47002C7.51115 9.56509 7.37533 9.48361 7.36175 9.29346V6.57699C7.36175 6.38684 7.49757 6.30533 7.67414 6.40041L10.2005 7.75865C10.377 7.85372 10.377 8.01671 10.2005 8.11178Z" fill="#9999FF"/>
<path opacity="0.6" d="M10.1832 14.7097C10.0202 14.7097 9.85723 14.6689 9.7214 14.5874L2.16962 10.3769C1.9523 10.2547 1.78932 10.0509 1.73499 9.80645C1.66707 9.56197 1.70782 9.31749 1.83006 9.10017L6.23074 1.68421C6.40731 1.39898 6.71971 1.22241 7.05926 1.22241C7.22225 1.22241 7.38524 1.26316 7.52106 1.34465L15.0728 5.55518C15.2902 5.67742 15.4532 5.88116 15.5075 6.12564C15.5754 6.37012 15.5346 6.6146 15.4124 6.83192L11.0117 14.2479C10.8352 14.5331 10.5228 14.7097 10.1832 14.7097ZM7.05926 1.91511C6.96419 1.91511 6.86911 1.96944 6.81478 2.05093L2.4141 9.4669C2.38694 9.52122 2.37336 9.57555 2.38694 9.64347C2.40052 9.71138 2.44127 9.75212 2.4956 9.77929L10.0474 13.9898C10.0881 14.017 10.1289 14.017 10.1696 14.017C10.2647 14.017 10.3598 13.9626 10.4005 13.8947L14.8012 6.47878C14.8284 6.42445 14.8419 6.37012 14.8284 6.30221C14.8148 6.2343 14.774 6.19355 14.7197 6.16639L7.16792 1.95586C7.15434 1.92869 7.10001 1.91511 7.05926 1.91511Z" fill="#9999FF"/>
</g>
<defs>
<clipPath id="clip0_820_122">
<rect width="16.4075" height="16" fill="white" transform="translate(0.403931)"/>
</clipPath>
</defs>
</svg>
