<svg width="17" height="16" viewBox="0 0 17 16" fill="none" xmlns="http://www.w3.org/2000/svg">
<g clip-path="url(#clip0_820_30)">
<path d="M13.6957 0H3.09739C1.49246 0 0.191406 1.30105 0.191406 2.90598V13.094C0.191406 14.6989 1.49246 16 3.09739 16H13.6957C15.3006 16 16.6017 14.6989 16.6017 13.094V2.90598C16.6017 1.30105 15.3006 0 13.6957 0Z" fill="#EB1000"/>
<path d="M9.1491 10.7182C9.1491 10.7863 9.09396 10.8414 9.02594 10.8414C8.95791 10.8414 8.90277 10.7863 8.90277 10.7182C8.90277 10.6502 8.95791 10.5951 9.02594 10.5951C9.09396 10.5951 9.1491 10.6502 9.1491 10.7182ZM8.90277 11.0135C8.86644 11.0135 8.83457 11.0276 8.80709 11.0472C8.8125 11.0314 8.81714 11.0151 8.81714 10.9974C8.81714 10.9113 8.74731 10.8414 8.66116 10.8414C8.57502 10.8414 8.50519 10.9113 8.50519 10.9974C8.50519 11.0836 8.57502 11.1533 8.66116 11.1533C8.69337 11.1533 8.72163 11.1413 8.74654 11.1245C8.74001 11.1424 8.73503 11.1613 8.73503 11.1813C8.73503 11.2739 8.81018 11.3492 8.90277 11.3492C8.99545 11.3492 9.0706 11.2739 9.0706 11.1813C9.0706 11.0888 8.99544 11.0135 8.90277 11.0135ZM8.61126 11.3859C8.60516 11.2853 8.52357 11.2049 8.42136 11.2049C8.40341 11.2049 8.38726 11.2106 8.37085 11.215C8.4004 11.1827 8.41955 11.1406 8.41955 11.0934C8.41955 10.9932 8.3383 10.912 8.23816 10.912C8.13801 10.912 8.05676 10.9932 8.05676 11.0934C8.05676 11.1935 8.13801 11.2748 8.23816 11.2748C8.25379 11.2748 8.26779 11.2696 8.2823 11.2659C8.24984 11.3002 8.22914 11.3461 8.22914 11.3971C8.22914 11.4845 8.28874 11.5553 8.36871 11.5787C8.36862 11.5812 8.36725 11.5833 8.36725 11.5859C8.36725 11.7003 8.46009 11.7932 8.57467 11.7932C8.68916 11.7932 8.78201 11.7003 8.78201 11.5859C8.78201 11.4844 8.70763 11.4038 8.61126 11.3859ZM8.13165 11.5728C8.14067 11.5493 8.14685 11.5244 8.14685 11.4976C8.14685 11.3877 8.06225 11.3002 7.95515 11.2896C7.98152 11.2559 7.99981 11.2154 7.99981 11.1692C7.99981 11.0743 7.93204 10.9989 7.84323 10.9792C7.88386 10.9453 7.91126 10.8964 7.91126 10.8393C7.91126 10.7686 7.87003 10.709 7.81146 10.6782C7.90198 10.6743 7.97456 10.6007 7.97456 10.5093C7.97456 10.4154 7.89838 10.3393 7.80441 10.3393C7.71045 10.3393 7.63426 10.4154 7.63426 10.5093C7.63426 10.5731 7.67085 10.6267 7.72282 10.6559C7.62301 10.6581 7.54245 10.7388 7.54245 10.8393C7.54245 10.9254 7.60266 10.9943 7.68228 11.0147C7.63538 11.051 7.60317 11.1053 7.60317 11.1692C7.60317 11.2693 7.67858 11.3487 7.77504 11.3622C7.74377 11.3992 7.72273 11.4454 7.72273 11.4976C7.72273 11.5993 7.79582 11.6802 7.89125 11.7008C7.87553 11.7326 7.86471 11.7671 7.86471 11.8051C7.86471 11.9365 7.9713 12.043 8.10271 12.043C8.23412 12.043 8.34071 11.9365 8.34071 11.8051C8.34071 11.684 8.24881 11.5878 8.13165 11.5728ZM5.69642 10.1113C5.69642 10.1957 5.64798 10.2666 5.57918 10.3053C5.59172 10.303 5.60315 10.2977 5.61629 10.2977C5.74109 10.2977 5.84226 10.3989 5.84226 10.5236C5.84226 10.5597 5.83204 10.5925 5.8171 10.6227C5.85652 10.5887 5.90625 10.566 5.96242 10.566C6.0849 10.566 6.18367 10.6643 6.18651 10.7861C6.21082 10.6928 6.29018 10.6236 6.38981 10.6191C6.36902 10.5879 6.35391 10.5523 6.35391 10.5118C6.35391 10.4022 6.44272 10.3133 6.55231 10.3133C6.66182 10.3133 6.75063 10.4022 6.75063 10.5118C6.75063 10.6138 6.67256 10.6949 6.57344 10.7059C6.60307 10.7438 6.6236 10.7895 6.6236 10.8414C6.6236 10.9 6.5999 10.9524 6.56313 10.9922C6.60385 11.0316 6.62789 11.0853 6.63442 11.1446C6.64104 11.0876 6.66586 11.0369 6.70623 11.0001C6.66062 10.9611 6.63021 10.9053 6.63021 10.8407C6.63021 10.7299 6.71602 10.6418 6.82432 10.632C6.79675 10.5988 6.77803 10.5576 6.77803 10.5111C6.77803 10.4412 6.8172 10.3827 6.87285 10.3491C6.79074 10.3359 6.72692 10.2678 6.72692 10.1818C6.72692 10.0864 6.80423 10.0091 6.89965 10.0091C6.99507 10.0091 7.07237 10.0864 7.07237 10.1818C7.07237 10.2422 7.03956 10.2927 6.99267 10.3237C7.0874 10.3353 7.16187 10.413 7.16187 10.5111C7.16187 10.6074 7.08972 10.6837 6.99731 10.6974C7.03235 10.7352 7.05485 10.7851 7.05485 10.8407C7.05485 10.8972 7.03192 10.9479 6.99585 10.986C7.05374 11.0283 7.09376 11.0932 7.09376 11.1704C7.09376 11.2124 7.0795 11.2499 7.05992 11.2839C7.13636 11.3272 7.19021 11.406 7.19021 11.5C7.19021 11.527 7.18274 11.5517 7.17484 11.5761C7.20095 11.5885 7.22474 11.6044 7.24561 11.6239C7.22182 11.5874 7.20447 11.5464 7.20447 11.4995C7.20447 11.45 7.22345 11.4066 7.24999 11.3688C7.17106 11.3368 7.11515 11.2602 7.11515 11.1697C7.11515 11.1056 7.14452 11.0496 7.18901 11.0103C7.12897 10.9761 7.08663 10.9141 7.08663 10.84C7.08663 10.7363 7.16711 10.6538 7.26855 10.6449C7.23067 10.6117 7.2055 10.5645 7.2055 10.5102C7.2055 10.436 7.25034 10.3726 7.31424 10.3446C7.30479 10.3463 7.2962 10.3503 7.28633 10.3503C7.19279 10.3503 7.11704 10.2744 7.11704 10.1809C7.11704 10.0875 7.19279 10.0115 7.28633 10.0115C7.37986 10.0115 7.45561 10.0875 7.45561 10.1809C7.45561 10.2501 7.4137 10.3096 7.35409 10.3357C7.365 10.3336 7.37505 10.3292 7.38656 10.3292C7.48653 10.3292 7.56761 10.4102 7.56761 10.5102C7.56761 10.603 7.49676 10.6768 7.40674 10.6871C7.45227 10.7236 7.48336 10.7772 7.48336 10.84C7.48336 10.8943 7.46137 10.9434 7.42598 10.9792C7.49624 11.0147 7.54571 11.0857 7.54571 11.1697C7.54571 11.2119 7.53042 11.249 7.50938 11.2824C7.6012 11.3133 7.66828 11.3975 7.66828 11.4995C7.66828 11.528 7.66149 11.5546 7.65204 11.5799C7.76198 11.612 7.84392 11.7094 7.84392 11.8296C7.84392 11.9757 7.72556 12.094 7.57955 12.094C7.45347 12.094 7.35298 12.0038 7.32652 11.8856C7.30007 12.0143 7.1915 12.1129 7.05494 12.1129C6.94388 12.1129 6.85001 12.0473 6.80371 11.9542C6.7563 12.0586 6.65237 12.132 6.53024 12.132C6.4185 12.132 6.32488 12.0683 6.27283 11.9779C6.22009 12.0732 6.12226 12.1404 6.00562 12.1404C5.89268 12.1404 5.79803 12.0768 5.744 11.9863C5.68989 12.0775 5.59464 12.1416 5.48092 12.1416C5.34805 12.1416 5.23665 12.0573 5.19233 11.9399C5.13599 11.9959 5.05852 12.0306 4.9728 12.0306C4.80076 12.0306 4.66119 11.8911 4.66119 11.719C4.66119 11.7056 4.66721 11.6941 4.66884 11.6812C4.63697 11.6924 4.60391 11.7015 4.56818 11.7015C4.39743 11.7015 4.25897 11.563 4.25897 11.3923C4.25897 11.3253 4.28483 11.2667 4.32098 11.2161C4.1681 11.202 4.047 11.0774 4.047 10.9208C4.047 10.8015 4.11786 10.7004 4.21869 10.6518C4.12971 10.6018 4.06701 10.51 4.06701 10.4008C4.06701 10.2433 4.19241 10.1167 4.34864 10.1108C4.29848 10.0598 4.26713 9.98989 4.26713 9.91259C4.26713 9.75593 4.39408 9.62898 4.55074 9.62898C4.55546 9.62898 4.55941 9.63139 4.56414 9.63173C4.50951 9.58071 4.4743 9.50943 4.4743 9.42869C4.4743 9.27426 4.59944 9.14921 4.75387 9.14921C4.76529 9.14921 4.77491 9.15436 4.78591 9.15573C4.72372 9.10523 4.68146 9.03119 4.68146 8.94479C4.68146 8.79259 4.8048 8.66925 4.95691 8.66925C4.97495 8.66925 4.99067 8.67612 5.00767 8.67956C4.9375 8.63043 4.88863 8.55313 4.88863 8.46089C4.88863 8.31092 5.01016 8.18947 5.16004 8.18947C5.18478 8.18947 5.20702 8.19738 5.22987 8.20356C5.1512 8.15701 5.0958 8.07507 5.0958 7.97698C5.0958 7.82925 5.21553 7.70952 5.36317 7.70952C5.39452 7.70952 5.42355 7.71742 5.45147 7.72739C5.36429 7.68444 5.30296 7.59666 5.30296 7.49308C5.30296 7.34758 5.42089 7.22974 5.5663 7.22974C5.64386 7.22974 5.71188 7.26461 5.76007 7.31804C5.79021 7.30481 5.8232 7.29674 5.85832 7.29674C5.93683 7.29674 6.00348 7.33608 6.04823 7.39362C6.07898 7.37782 6.11247 7.36665 6.14949 7.36665C6.22971 7.36665 6.29679 7.41097 6.33656 7.47418C6.36679 7.45666 6.39994 7.44395 6.43748 7.44395C6.53282 7.44395 6.60934 7.51026 6.63236 7.59838C6.65289 7.59065 6.67462 7.58515 6.69789 7.58515C6.80079 7.58515 6.88419 7.66847 6.88419 7.77136C6.88419 7.82599 6.8598 7.87392 6.82235 7.9081C6.84193 7.89985 6.8634 7.89522 6.88599 7.89522C6.97686 7.89522 7.05047 7.96891 7.05047 8.05978C7.05047 8.10444 7.03235 8.14481 7.0034 8.17436C7.02934 8.151 7.06284 8.13588 7.10046 8.13588C7.18145 8.13588 7.24716 8.2015 7.24716 8.28258C7.24716 8.36349 7.18145 8.42911 7.10046 8.42911C7.01955 8.42911 6.95385 8.36349 6.95385 8.28258C6.95385 8.24273 6.96999 8.20682 6.99576 8.18037C6.96656 8.207 6.92859 8.22417 6.88599 8.22417C6.79521 8.22417 6.7216 8.15048 6.7216 8.05978C6.7216 8.01426 6.74024 7.97303 6.77013 7.94314C6.74797 7.95259 6.72358 7.95774 6.6979 7.95774C6.61716 7.95774 6.55008 7.9057 6.52423 7.83372C6.49769 7.84626 6.46883 7.85451 6.43748 7.85451C6.37074 7.85451 6.31431 7.82066 6.27678 7.77136C6.24019 7.7973 6.19785 7.81586 6.14949 7.81586C6.08482 7.81586 6.02753 7.78768 5.98647 7.74388C5.94868 7.76793 5.90642 7.78545 5.85832 7.78545C5.79425 7.78545 5.73696 7.75951 5.69342 7.71914C5.65511 7.74079 5.61337 7.75642 5.5663 7.75642C5.53555 7.75642 5.50704 7.74852 5.47964 7.7389C5.5048 7.75127 5.52851 7.76604 5.54843 7.78528C5.58365 7.76621 5.62196 7.75247 5.66481 7.75247C5.73773 7.75247 5.80181 7.78528 5.84716 7.83561C5.8822 7.81345 5.92137 7.7973 5.96586 7.7973C6.0405 7.7973 6.10354 7.83561 6.14502 7.89092C6.17904 7.86636 6.21872 7.84884 6.26398 7.84884C6.35279 7.84884 6.42717 7.90518 6.4568 7.98368C6.48034 7.97303 6.50602 7.96633 6.53359 7.96633C6.63734 7.96633 6.72134 8.0505 6.72134 8.15409C6.72134 8.19239 6.70709 8.22606 6.68742 8.25578C6.7021 8.25149 6.71671 8.24651 6.73285 8.24651C6.82493 8.24651 6.89957 8.32123 6.89957 8.4133C6.89957 8.43993 6.89192 8.46432 6.88084 8.48665C6.90326 8.47308 6.92808 8.46312 6.95617 8.46312C7.03819 8.46312 7.10476 8.5296 7.10476 8.61171C7.10476 8.69365 7.03819 8.76013 6.95617 8.76013C6.87414 8.76013 6.80758 8.69365 6.80758 8.61171C6.80758 8.59007 6.81264 8.5698 6.82098 8.55124C6.79504 8.56808 6.76601 8.5801 6.73285 8.5801C6.64069 8.5801 6.56605 8.50538 6.56605 8.4133C6.56605 8.38238 6.5767 8.35507 6.59148 8.33016C6.57293 8.33618 6.55412 8.34184 6.53359 8.34184C6.45869 8.34184 6.39513 8.29718 6.36499 8.23379C6.33467 8.25097 6.30143 8.26368 6.26398 8.26368C6.20343 8.26368 6.15018 8.23672 6.11221 8.19532C6.07253 8.2295 6.02237 8.25218 5.96586 8.25218C5.90745 8.25218 5.85532 8.22847 5.81503 8.19222C5.77295 8.22521 5.72236 8.24805 5.66481 8.24805C5.6314 8.24805 5.59979 8.24101 5.57068 8.22899C5.59825 8.24101 5.62281 8.25819 5.64429 8.27863C5.68311 8.24874 5.72949 8.22796 5.78231 8.22796C5.85119 8.22796 5.91123 8.25973 5.95332 8.30766C5.99025 8.27519 6.03749 8.25372 6.09057 8.25372C6.17405 8.25372 6.24483 8.30337 6.2785 8.37414C6.30581 8.35885 6.3357 8.34769 6.36928 8.34769C6.47381 8.34769 6.55858 8.43237 6.55858 8.53681C6.55858 8.56086 6.55309 8.58354 6.54493 8.60467C6.55643 8.60209 6.56726 8.59763 6.57962 8.59763C6.67299 8.59763 6.74874 8.67338 6.74874 8.76683C6.74874 8.78297 6.74376 8.79775 6.73955 8.81252C6.76128 8.80015 6.78507 8.79122 6.81187 8.79122C6.89441 8.79122 6.96132 8.85822 6.96132 8.94084C6.96132 9.02329 6.89441 9.09029 6.81187 9.09029C6.72924 9.09029 6.66234 9.02329 6.66234 8.94084C6.66234 8.92864 6.66655 8.91782 6.66929 8.90648C6.64284 8.92349 6.61329 8.93586 6.57962 8.93586C6.48626 8.93586 6.41051 8.8601 6.41051 8.76683C6.41051 8.74879 6.41558 8.73213 6.42081 8.71581C6.40407 8.72062 6.38758 8.72612 6.36928 8.72612C6.30005 8.72612 6.24208 8.68695 6.2091 8.63147C6.17491 8.65569 6.13558 8.67286 6.09057 8.67286C6.03543 8.67286 5.98604 8.65053 5.94859 8.61566C5.92841 8.63713 5.90436 8.65431 5.87722 8.66668C5.89053 8.66393 5.9029 8.65861 5.91707 8.65861C5.99523 8.65861 6.06085 8.7031 6.09744 8.76614C6.12853 8.74432 6.16426 8.72869 6.20506 8.72869C6.31045 8.72869 6.39582 8.81424 6.39582 8.91954C6.39582 8.93311 6.39084 8.94513 6.38809 8.95784C6.4008 8.95492 6.41283 8.95011 6.42649 8.95011C6.52036 8.95011 6.59655 9.02638 6.59655 9.12035C6.59655 9.12876 6.59294 9.13598 6.59182 9.14388C6.61433 9.13031 6.63923 9.12035 6.66749 9.12035C6.75003 9.12035 6.81694 9.18734 6.81694 9.26979C6.81694 9.35242 6.75003 9.41924 6.66749 9.41924C6.58495 9.41924 6.51804 9.35242 6.51804 9.26979C6.51804 9.26567 6.52002 9.26241 6.52036 9.25829C6.49305 9.27701 6.46196 9.29041 6.42649 9.29041C6.33252 9.29041 6.25634 9.21414 6.25634 9.12035C6.25634 9.11279 6.25969 9.10643 6.26063 9.09922C6.24277 9.10471 6.22473 9.11038 6.20506 9.11038C6.14133 9.11038 6.08774 9.07723 6.05312 9.0293C6.01602 9.06091 5.96955 9.08204 5.91707 9.08204C5.86477 9.08204 5.81847 9.06108 5.78154 9.02965C5.77243 9.04167 5.76402 9.05353 5.75268 9.06366C5.82156 9.06658 5.87945 9.10283 5.91673 9.15573C5.95066 9.12705 5.99291 9.10781 6.04075 9.10781C6.14812 9.10781 6.23512 9.1949 6.23512 9.30226C6.23512 9.30536 6.23349 9.30793 6.23332 9.31102C6.24655 9.30776 6.25917 9.30295 6.27334 9.30295C6.36765 9.30295 6.44418 9.37956 6.44418 9.47387C6.44418 9.56818 6.36765 9.64462 6.27334 9.64462C6.18256 9.64462 6.10998 9.57316 6.10466 9.48384C6.08439 9.49088 6.06343 9.49672 6.04075 9.49672C5.98252 9.49672 5.93193 9.46992 5.89629 9.42938C5.85729 9.46855 5.80327 9.49294 5.74358 9.49294C5.69393 9.49294 5.65039 9.47335 5.61397 9.44518C5.60882 9.4536 5.60366 9.46167 5.59756 9.4694C5.6552 9.47696 5.70441 9.50496 5.7392 9.54808C5.7751 9.51149 5.82483 9.48847 5.88023 9.48847C5.98956 9.48847 6.0782 9.57711 6.0782 9.68636C6.0782 9.79578 5.98956 9.88442 5.88023 9.88442C5.82397 9.88442 5.77381 9.86054 5.73774 9.82275C5.69737 9.87171 5.63862 9.90486 5.57017 9.90486M5.60057 11.2344C5.64644 11.2657 5.68474 11.3062 5.7057 11.3583C5.71248 11.3471 5.71918 11.3361 5.72743 11.3262C5.69393 11.2849 5.67186 11.2348 5.66971 11.1781C5.6503 11.2013 5.62702 11.2195 5.60057 11.2344ZM6.13154 11.2978C6.15825 11.3229 6.17998 11.3524 6.19527 11.3863C6.20145 11.3731 6.21116 11.3624 6.21932 11.3506C6.18952 11.3222 6.16942 11.286 6.15653 11.2459C6.15035 11.2647 6.14168 11.2813 6.13154 11.2978ZM6.6346 11.1966C6.6309 11.2307 6.62103 11.2619 6.60505 11.2904C6.65229 11.3275 6.68458 11.3786 6.69901 11.4389C6.70649 11.4098 6.71825 11.3839 6.73483 11.36C6.67986 11.3231 6.64267 11.2655 6.6346 11.1966ZM6.07975 10.9785C6.11599 11.0089 6.14219 11.0481 6.15688 11.0941C6.17122 11.0505 6.19613 11.0132 6.23031 10.984C6.19845 10.9462 6.17758 10.8993 6.17637 10.8464C6.16169 10.9026 6.12759 10.9484 6.07975 10.9785ZM5.61629 10.7497C5.53306 10.7497 5.4634 10.7026 5.42424 10.6356C5.42527 10.6451 5.42974 10.6531 5.42974 10.6629C5.42974 10.7062 5.41616 10.7449 5.3971 10.7806C5.42304 10.7717 5.44983 10.7641 5.47886 10.7641C5.61551 10.7641 5.72528 10.8728 5.73009 11.0084C5.75053 10.9842 5.77484 10.9647 5.80284 10.9498C5.76239 10.9091 5.73731 10.8531 5.73731 10.7911C5.73731 10.7553 5.74736 10.7229 5.76221 10.6928C5.72262 10.727 5.67263 10.7497 5.61629 10.7497ZM5.47105 10.3367C5.41436 10.3367 5.36412 10.3139 5.32443 10.2793C5.30571 10.3384 5.26629 10.3858 5.21364 10.4168C5.29162 10.4288 5.35621 10.4741 5.39366 10.5403C5.39323 10.5344 5.39031 10.5295 5.39031 10.5236C5.39031 10.4389 5.43893 10.368 5.50789 10.3293C5.49544 10.3314 5.4841 10.3367 5.47105 10.3367ZM5.78231 8.68832C5.73035 8.68832 5.68483 8.66805 5.64635 8.63902C5.63673 8.6483 5.6241 8.65362 5.61311 8.66135C5.67134 8.66513 5.72451 8.6878 5.76333 8.72663C5.78206 8.70653 5.80421 8.69038 5.82938 8.67887C5.81366 8.68214 5.79906 8.68832 5.78231 8.68832ZM5.56664 8.22744C5.54689 8.21885 5.53057 8.2051 5.51391 8.19188C5.50446 8.19841 5.49561 8.20562 5.48539 8.21112C5.51382 8.21266 5.54156 8.21713 5.56664 8.22744ZM5.76943 7.26839C5.80765 7.26839 5.84338 7.25912 5.87602 7.24417C5.92008 7.29193 5.98183 7.32285 6.05192 7.32285C6.0922 7.32285 6.12845 7.31048 6.16177 7.29313C6.2024 7.34449 6.26252 7.37953 6.33312 7.37953C6.37332 7.37953 6.40896 7.36596 6.44143 7.34724C6.47725 7.40478 6.53814 7.44515 6.61089 7.44515C6.63743 7.44515 6.66251 7.43931 6.6857 7.43004C6.70494 7.51163 6.77485 7.57347 6.8622 7.57347C6.9578 7.57347 7.03381 7.49995 7.04343 7.40685C7.06576 7.46817 7.12331 7.51249 7.19236 7.51249C7.28066 7.51249 7.35229 7.44103 7.35229 7.35256C7.35229 7.26427 7.28066 7.19281 7.19236 7.19281C7.11051 7.19281 7.04549 7.25517 7.03604 7.33453C7.0126 7.25946 6.945 7.20397 6.8622 7.20397C6.84314 7.20397 6.82579 7.20947 6.80852 7.2148C6.79461 7.1162 6.71336 7.03907 6.61089 7.03907C6.58126 7.03907 6.55352 7.04611 6.52809 7.05762C6.49125 6.98633 6.41893 6.936 6.33312 6.936C6.30366 6.936 6.27583 6.94235 6.25015 6.95283C6.20712 6.88704 6.13635 6.841 6.05192 6.841C6.02409 6.841 5.9985 6.84822 5.97359 6.85681C5.92635 6.79359 5.85446 6.74996 5.76943 6.74996C5.62625 6.74996 5.51013 6.86591 5.51013 7.00918C5.51013 7.15227 5.62625 7.26839 5.76943 7.26839ZM5.97247 6.78037C6.00314 6.78037 6.03165 6.77281 6.05888 6.76302C6.10225 6.82039 6.16787 6.86007 6.24543 6.86007C6.27772 6.86007 6.30847 6.85337 6.33656 6.84169C6.37564 6.90147 6.43988 6.94339 6.51667 6.94339C6.54871 6.94339 6.57868 6.93566 6.60608 6.92329C6.63898 6.98942 6.70554 7.03597 6.78439 7.03597C6.80646 7.03597 6.82682 7.02996 6.84666 7.02343C6.85585 7.11619 6.93143 7.18937 7.02651 7.18937C7.10759 7.18937 7.17407 7.13595 7.19829 7.06294C7.22303 7.1198 7.27954 7.15983 7.34559 7.15983C7.43431 7.15983 7.50629 7.08785 7.50629 6.99904C7.50629 6.91023 7.43431 6.83826 7.34559 6.83826C7.27757 6.83826 7.22002 6.88086 7.19657 6.94064C7.1702 6.87192 7.10458 6.82262 7.02651 6.82262C7.01165 6.82262 6.99834 6.82778 6.98451 6.83104C6.98228 6.72213 6.89398 6.63418 6.78439 6.63418C6.76154 6.63418 6.7405 6.64019 6.72006 6.64724C6.68871 6.56461 6.6102 6.50535 6.51667 6.50535C6.49511 6.50535 6.47553 6.51187 6.45577 6.51771C6.41678 6.4399 6.33836 6.3851 6.24543 6.3851C6.22507 6.3851 6.20686 6.3918 6.18797 6.39678C6.14339 6.32223 6.06549 6.27001 5.97247 6.27001C5.83161 6.27001 5.71729 6.38424 5.71729 6.52527C5.71729 6.66613 5.83161 6.78037 5.97247 6.78037ZM6.1756 6.29251C6.19853 6.29251 6.21906 6.28513 6.24019 6.27946C6.28082 6.34869 6.35288 6.39747 6.43902 6.39747C6.46316 6.39747 6.48506 6.3906 6.50696 6.38373C6.54183 6.45622 6.6145 6.50707 6.7003 6.50707C6.72581 6.50707 6.74943 6.50071 6.77219 6.49264C6.79916 6.57028 6.87096 6.6268 6.95788 6.6268C6.97652 6.6268 6.99327 6.62095 7.01045 6.61615C7.01028 6.61872 7.00899 6.62078 7.00899 6.62319C7.00899 6.72368 7.09033 6.8051 7.19082 6.8051C7.26047 6.8051 7.31905 6.76456 7.34954 6.70702C7.37376 6.76577 7.43131 6.80716 7.49873 6.80716C7.58797 6.80716 7.66038 6.73484 7.66038 6.64552C7.66038 6.55637 7.58797 6.48387 7.49873 6.48387C7.43904 6.48387 7.38905 6.51789 7.36105 6.56599C7.33683 6.49401 7.27095 6.44145 7.19082 6.44145C7.17716 6.44145 7.16514 6.44625 7.15234 6.44918C7.1532 6.44196 7.15663 6.43561 7.15663 6.42805C7.15663 6.31828 7.06765 6.2293 6.95789 6.2293C6.93951 6.2293 6.92301 6.23514 6.90618 6.23978C6.88265 6.14581 6.80157 6.0747 6.7003 6.0747C6.68493 6.0747 6.67136 6.08037 6.65684 6.08346C6.62395 5.99396 6.53986 5.92937 6.43903 5.92937C6.42606 5.92937 6.41481 5.9347 6.40244 5.93676C6.36258 5.8507 6.2767 5.79023 6.1756 5.79023C6.03698 5.79023 5.92455 5.90257 5.92455 6.04137C5.92455 6.18 6.03698 6.29251 6.1756 6.29251ZM6.37873 5.80449C6.39385 5.80449 6.40699 5.79848 6.42142 5.7959C6.4568 5.87749 6.5378 5.93487 6.63253 5.93487C6.65083 5.93487 6.66706 5.92851 6.68407 5.92439C6.7125 6.00891 6.78988 6.07075 6.88393 6.07075C6.90463 6.07075 6.92344 6.06439 6.94242 6.05889C6.96063 6.14873 7.03622 6.21762 7.1313 6.21762C7.14907 6.21762 7.16505 6.21195 7.18145 6.20748C7.17931 6.21865 7.17476 6.22896 7.17476 6.24064C7.17476 6.3401 7.25549 6.42101 7.35512 6.42101C7.41593 6.42101 7.46712 6.38888 7.49976 6.34267C7.52132 6.40726 7.58024 6.4545 7.65196 6.4545C7.74163 6.4545 7.81438 6.38167 7.81438 6.292C7.81438 6.20233 7.74163 6.1295 7.65196 6.1295C7.59991 6.1295 7.55568 6.15561 7.52596 6.19357C7.50491 6.1173 7.43809 6.0601 7.35512 6.0601C7.34215 6.0601 7.33073 6.06491 7.31845 6.06748C7.32231 6.05219 7.3279 6.03742 7.3279 6.02093C7.3279 5.91237 7.23995 5.82441 7.13129 5.82441C7.11747 5.82441 7.10527 5.82957 7.09221 5.83232C7.07916 5.72684 6.99284 5.64422 6.88393 5.64422C6.87268 5.64422 6.86306 5.64886 6.85224 5.65057C6.82759 5.54991 6.74093 5.47364 6.63253 5.47364C6.62446 5.47364 6.61767 5.47742 6.60986 5.47828C6.57653 5.38122 6.48712 5.31045 6.37873 5.31045C6.24234 5.31045 6.13171 5.4209 6.13171 5.55747C6.13171 5.69386 6.24234 5.80449 6.37873 5.80449ZM6.58186 5.31646C6.5926 5.31646 6.60179 5.31165 6.61209 5.31028C6.64061 5.40321 6.72383 5.47209 6.82613 5.47209C6.83996 5.47209 6.8519 5.4666 6.86512 5.46419C6.88445 5.56056 6.96553 5.6346 7.06748 5.6346C7.08354 5.6346 7.09771 5.62893 7.11266 5.62549C7.11901 5.72719 7.20155 5.80827 7.30479 5.80827C7.32171 5.80827 7.33683 5.80277 7.35246 5.79865C7.34593 5.8172 7.34061 5.83661 7.34061 5.8574C7.34061 5.95617 7.42074 6.03639 7.51952 6.03639C7.58969 6.03639 7.64904 5.99499 7.67833 5.93607C7.67738 5.94294 7.67421 5.94913 7.67421 5.95634C7.67421 6.04652 7.7473 6.11953 7.83748 6.11953C7.92767 6.11953 8.00076 6.04652 8.00076 5.95634C8.00076 5.86616 7.92767 5.79298 7.83748 5.79298C7.77375 5.79298 7.71999 5.8306 7.6931 5.88385C7.69448 5.87475 7.69843 5.86667 7.69843 5.8574C7.69843 5.75862 7.61838 5.67857 7.51952 5.67857C7.50724 5.67857 7.49641 5.68321 7.48473 5.68562C7.49367 5.66328 7.49925 5.63924 7.49925 5.61381C7.49925 5.50645 7.41216 5.41936 7.30479 5.41936C7.29526 5.41936 7.28701 5.42348 7.27782 5.42486C7.27782 5.42451 7.278 5.42434 7.278 5.424C7.278 5.3077 7.18378 5.21357 7.06748 5.21357C7.06044 5.21357 7.05451 5.21683 7.04773 5.21752C7.03355 5.10569 6.94182 5.01791 6.82613 5.01791C6.82184 5.01791 6.81831 5.02014 6.81411 5.02032C6.7892 4.91261 6.69712 4.8305 6.58186 4.8305C6.44762 4.8305 6.33888 4.93941 6.33888 5.07357C6.33888 5.20773 6.44761 5.31646 6.58186 5.31646ZM6.7886 4.83016C6.79813 4.83016 6.80629 4.82586 6.81548 4.82466C6.83188 4.93271 6.92095 5.01688 7.03355 5.01688C7.0479 5.01688 7.06044 5.01121 7.07409 5.00863C7.07547 5.12321 7.16823 5.2158 7.28306 5.2158C7.30634 5.2158 7.32773 5.20962 7.34868 5.20257C7.34628 5.21477 7.3413 5.22611 7.3413 5.23916C7.3413 5.34687 7.42873 5.4343 7.53644 5.4343C7.56865 5.4343 7.59776 5.42451 7.62456 5.41077C7.59948 5.44186 7.5823 5.47982 7.5823 5.52277C7.5823 5.62292 7.66338 5.704 7.76336 5.704C7.86342 5.704 7.9445 5.62292 7.9445 5.52277C7.9445 5.42279 7.86342 5.34171 7.76336 5.34171C7.73501 5.34171 7.70908 5.34944 7.6852 5.36113C7.71286 5.32746 7.73158 5.28606 7.73158 5.23916C7.73158 5.13146 7.64423 5.04402 7.53644 5.04402C7.51737 5.04402 7.50019 5.04969 7.48284 5.05484C7.48679 5.03887 7.49263 5.02341 7.49263 5.00623C7.49263 4.89045 7.39876 4.79666 7.28306 4.79666C7.27353 4.79666 7.26537 4.80078 7.25618 4.80216C7.25627 4.79855 7.25816 4.7958 7.25816 4.79219C7.25816 4.66817 7.15758 4.56768 7.03355 4.56768C7.02986 4.56768 7.02685 4.56957 7.02316 4.56974C7.01182 4.44846 6.91288 4.35227 6.7886 4.35227C6.65667 4.35227 6.54965 4.45928 6.54965 4.59121C6.54965 4.72314 6.65667 4.83016 6.7886 4.83016ZM7.08689 4.39624C7.10287 4.39624 7.11695 4.39023 7.13207 4.38714C7.13121 4.39487 7.12752 4.40157 7.12752 4.40947C7.12752 4.53263 7.22741 4.63261 7.35074 4.63261C7.37505 4.63261 7.3973 4.62591 7.41928 4.61887C7.41336 4.63828 7.40709 4.65769 7.40709 4.67899C7.40709 4.79563 7.50157 4.89011 7.61812 4.89011C7.66544 4.89011 7.70701 4.87155 7.74223 4.84527C7.71079 4.88049 7.69027 4.92584 7.69027 4.97686C7.69027 5.08731 7.77976 5.17681 7.89022 5.17681C8.00067 5.17681 8.09017 5.08731 8.09017 4.97686C8.09017 4.8664 8.00067 4.7769 7.89022 4.7769C7.8459 4.7769 7.80708 4.79408 7.77392 4.81848C7.80733 4.7812 7.82915 4.7331 7.82915 4.67899C7.82915 4.56252 7.73467 4.46805 7.61812 4.46805C7.59742 4.46805 7.5787 4.47423 7.5598 4.47973C7.56736 4.45739 7.57397 4.43438 7.57397 4.40947C7.57397 4.28613 7.474 4.18616 7.35074 4.18616C7.3382 4.18616 7.3273 4.19131 7.31527 4.19337C7.31682 4.18238 7.32171 4.17276 7.32171 4.16142C7.32171 4.03173 7.21658 3.9266 7.08689 3.9266C6.9572 3.9266 6.85198 4.03173 6.85198 4.16142C6.85198 4.29111 6.9572 4.39624 7.08689 4.39624ZM7.49401 4.06385C7.52038 4.06385 7.54477 4.05698 7.56839 4.0489C7.55533 4.07707 7.54692 4.108 7.54692 4.14115C7.54692 4.2638 7.64629 4.36309 7.76885 4.36309C7.89142 4.36309 7.99071 4.2638 7.99071 4.14115C7.99071 4.01867 7.89142 3.91921 7.76885 3.91921C7.74429 3.91921 7.7217 3.92591 7.69963 3.93312C7.71466 3.90255 7.72479 3.86939 7.72479 3.83298C7.72479 3.70552 7.62147 3.60228 7.49401 3.60228C7.36655 3.60228 7.26322 3.70552 7.26322 3.83298C7.26322 3.96044 7.36655 4.06385 7.49401 4.06385ZM7.97645 3.8584C8.10168 3.8584 8.2032 3.75688 8.2032 3.63165C8.2032 3.50642 8.10168 3.4049 7.97645 3.4049C7.85122 3.4049 7.7497 3.50642 7.7497 3.63165C7.7497 3.75688 7.85122 3.8584 7.97645 3.8584ZM8.49643 3.79639C8.61942 3.79639 8.71914 3.69676 8.71914 3.57376C8.71914 3.45077 8.61942 3.35114 8.49643 3.35114C8.37343 3.35114 8.2738 3.45077 8.2738 3.57376C8.2738 3.69676 8.37343 3.79639 8.49643 3.79639ZM9.01159 3.88314C9.13227 3.88314 9.23018 3.78522 9.23018 3.66446C9.23018 3.5437 9.13227 3.44579 9.01159 3.44579C8.89083 3.44579 8.79292 3.5437 8.79292 3.66446C8.79292 3.78522 8.89083 3.88314 9.01159 3.88314ZM9.66573 4.31087C9.6452 4.30451 9.62442 4.29798 9.60166 4.29798C9.4821 4.29798 9.38513 4.39504 9.38513 4.5146C9.38513 4.54449 9.39123 4.573 9.40222 4.59894C9.38685 4.59551 9.37242 4.58967 9.35601 4.58967C9.2362 4.58967 9.13905 4.68672 9.13905 4.80662C9.13905 4.85197 9.15615 4.89165 9.17994 4.92635C9.16602 4.9236 9.15305 4.91794 9.13828 4.91794C9.01993 4.91794 8.92399 5.01396 8.92399 5.13232C8.92399 5.18591 8.94563 5.23349 8.97818 5.27111C8.9598 5.26562 8.94142 5.25961 8.92124 5.25961C8.80786 5.25961 8.71596 5.35151 8.71596 5.46488C8.71596 5.57826 8.80786 5.67016 8.92124 5.67016C9.03461 5.67016 9.12643 5.57826 9.12643 5.46488C9.12643 5.41438 9.10616 5.36972 9.07593 5.33399C9.09602 5.34017 9.11612 5.34653 9.13828 5.34653C9.25655 5.34653 9.35249 5.2505 9.35249 5.13232C9.35249 5.08783 9.33574 5.04883 9.31264 5.01465C9.32707 5.01774 9.34064 5.02341 9.35601 5.02341C9.47574 5.02341 9.57288 4.92636 9.57288 4.80662C9.57288 4.77656 9.5667 4.74788 9.55553 4.72177C9.57091 4.7252 9.58534 4.73104 9.60166 4.73104C9.72121 4.73104 9.81818 4.63416 9.81818 4.5146C9.81818 4.49158 9.81174 4.47062 9.80513 4.44984C9.82419 4.45551 9.84318 4.46169 9.86414 4.46169C9.98043 4.46169 10.0747 4.36756 10.0747 4.25126C10.0747 4.13497 9.98043 4.04083 9.86414 4.04083C9.74793 4.04083 9.65371 4.13497 9.65371 4.25126C9.65371 4.27239 9.65997 4.29163 9.66573 4.31087ZM11.8029 9.04837C11.8029 9.14079 11.8778 9.21568 11.9701 9.21568C12.0625 9.21568 12.1374 9.14079 12.1374 9.04837C12.1374 8.95612 12.0625 8.88123 11.9701 8.88123C11.8778 8.88123 11.8029 8.95612 11.8029 9.04837ZM12.0134 9.53175C12.0134 9.62056 12.0854 9.69271 12.1743 9.69271C12.2632 9.69271 12.3353 9.62056 12.3353 9.53175C12.3353 9.44277 12.2632 9.3708 12.1743 9.3708C12.0854 9.3708 12.0134 9.44277 12.0134 9.53175ZM12.2238 10.015C12.2238 10.1005 12.293 10.1697 12.3785 10.1697C12.4638 10.1697 12.5331 10.1005 12.5331 10.015C12.5331 9.9296 12.4638 9.86037 12.3785 9.86037C12.293 9.86037 12.2238 9.9296 12.2238 10.015ZM12.424 10.5025C12.424 10.5844 12.4905 10.6509 12.5723 10.6509C12.6543 10.6509 12.7207 10.5844 12.7207 10.5025C12.7207 10.4205 12.6543 10.3542 12.5723 10.3542C12.4905 10.3542 12.424 10.4205 12.424 10.5025ZM12.5886 10.8806C12.5102 10.8806 12.4466 10.9441 12.4466 11.0226C12.4466 11.1011 12.5102 11.1647 12.5886 11.1647C12.6671 11.1647 12.7307 11.1011 12.7307 11.0226C12.7307 10.9441 12.6671 10.8806 12.5886 10.8806ZM12.3723 11.3602C12.2973 11.3602 12.2365 11.421 12.2365 11.4959C12.2365 11.5709 12.2973 11.6318 12.3723 11.6318C12.4473 11.6318 12.508 11.5709 12.508 11.4959C12.508 11.421 12.4473 11.3602 12.3723 11.3602ZM12.0058 11.73C11.9343 11.73 11.8764 11.7881 11.8764 11.8595C11.8764 11.931 11.9343 11.9889 12.0058 11.9889C12.0773 11.9889 12.1352 11.931 12.1352 11.8595C12.1352 11.7881 12.0773 11.73 12.0058 11.73ZM11.5924 11.8379C11.5089 11.8379 11.4414 11.9056 11.4414 11.9891C11.4414 12.0722 11.5089 12.1399 11.5924 12.1399C11.6759 12.1399 11.7434 12.0722 11.7434 11.9891C11.7434 11.9056 11.6759 11.8379 11.5924 11.8379ZM8.02858 4.01214C8.02858 4.13393 8.12736 4.23254 8.24915 4.23254C8.37094 4.23254 8.46971 4.13394 8.46971 4.01214C8.46971 3.89018 8.37094 3.79158 8.24915 3.79158C8.12736 3.79158 8.02858 3.89018 8.02858 4.01214ZM8.52632 4.03499C8.52632 4.15609 8.62449 4.25418 8.74551 4.25418C8.86661 4.25418 8.9647 4.15609 8.9647 4.03499C8.9647 3.91389 8.86661 3.8158 8.74551 3.8158C8.62449 3.8158 8.52632 3.91388 8.52632 4.03499ZM9.21103 3.99016C9.0907 3.99016 8.99313 4.08773 8.99313 4.20797C8.99313 4.26311 9.01537 4.31224 9.04921 4.35055C9.02319 4.33955 8.99467 4.3332 8.96461 4.3332C8.84565 4.3332 8.7492 4.42957 8.7492 4.54861C8.7492 4.66748 8.84565 4.76402 8.96461 4.76402C9.08357 4.76402 9.18002 4.66748 9.18002 4.54861C9.18002 4.49416 9.15804 4.44571 9.12471 4.40792C9.15125 4.41926 9.18028 4.42596 9.21103 4.42596C9.33136 4.42596 9.42893 4.32839 9.42893 4.20797C9.42893 4.16314 9.4121 4.1238 9.38891 4.08927C9.41674 4.1025 9.44714 4.11126 9.48004 4.11126C9.59856 4.11126 9.69459 4.01506 9.69459 3.89671C9.69459 3.77818 9.59856 3.68216 9.48004 3.68216C9.36151 3.68216 9.26548 3.77818 9.26548 3.89671C9.26548 3.94068 9.28189 3.97916 9.30456 4.01317C9.27596 3.99943 9.24495 3.99016 9.21103 3.99016ZM11.8126 9.34864C11.7207 9.34864 11.6462 9.42319 11.6462 9.51509C11.6462 9.60699 11.7207 9.68155 11.8126 9.68155C11.9046 9.68155 11.9792 9.60699 11.9792 9.51509C11.9792 9.42319 11.9046 9.34864 11.8126 9.34864ZM12.1651 9.97426C12.1651 9.88631 12.0938 9.81502 12.0058 9.81502C11.9178 9.81502 11.8465 9.88631 11.8465 9.97426C11.8465 10.0624 11.9178 10.1337 12.0058 10.1337C12.0938 10.1337 12.1651 10.0624 12.1651 9.97426ZM12.3512 10.4336C12.3512 10.3494 12.283 10.2812 12.1989 10.2812C12.1149 10.2812 12.0467 10.3494 12.0467 10.4336C12.0467 10.5176 12.1149 10.5858 12.1989 10.5858C12.283 10.5858 12.3512 10.5176 12.3512 10.4336ZM12.3195 11.0597C12.3996 11.0597 12.4645 10.9948 12.4645 10.9148C12.4645 10.8345 12.3996 10.7696 12.3195 10.7696C12.2393 10.7696 12.1744 10.8345 12.1744 10.9148C12.1744 10.9948 12.2393 11.0597 12.3195 11.0597ZM8.25576 4.48127C8.25576 4.36395 8.1606 4.26878 8.04327 4.26878C7.92586 4.26878 7.83078 4.36395 7.83078 4.48127C7.83078 4.5986 7.92586 4.69376 8.04327 4.69376C8.1606 4.69376 8.25576 4.5986 8.25576 4.48127ZM8.50974 4.22206C8.39156 4.22206 8.29579 4.31791 8.29579 4.43609C8.29579 4.55411 8.39155 4.64996 8.50974 4.64996C8.62792 4.64996 8.72369 4.55411 8.72369 4.43609C8.72369 4.31791 8.62792 4.22206 8.50974 4.22206ZM11.4786 9.95313C11.4786 10.0435 11.5518 10.1167 11.642 10.1167C11.7323 10.1167 11.8055 10.0435 11.8055 9.95313C11.8055 9.86295 11.7323 9.78977 11.642 9.78977C11.5518 9.78977 11.4786 9.86295 11.4786 9.95313ZM11.6682 10.3874C11.6682 10.4733 11.7378 10.5428 11.8238 10.5428C11.9097 10.5428 11.9793 10.4733 11.9793 10.3874C11.9793 10.3013 11.9097 10.2318 11.8238 10.2318C11.7378 10.2318 11.6682 10.3013 11.6682 10.3874ZM12.1389 10.827C12.1389 10.7454 12.0728 10.6792 11.9912 10.6792C11.9096 10.6792 11.8435 10.7454 11.8435 10.827C11.8435 10.9086 11.9096 10.9747 11.9912 10.9747C12.0728 10.9747 12.1389 10.9086 12.1389 10.827ZM12.131 11.1654C12.0538 11.1654 11.9912 11.2279 11.9912 11.3052C11.9912 11.3823 12.0538 11.445 12.131 11.445C12.2083 11.445 12.2709 11.3823 12.2709 11.3052C12.2709 11.2279 12.2083 11.1654 12.131 11.1654ZM8.56454 10.8606C8.6475 10.8606 8.71501 10.7933 8.71501 10.7102C8.71501 10.627 8.6475 10.5597 8.56454 10.5597C8.48139 10.5597 8.41406 10.627 8.41406 10.7102C8.41406 10.7933 8.4814 10.8606 8.56454 10.8606ZM8.18559 10.9014C8.27973 10.9014 8.356 10.8251 8.356 10.7309C8.356 10.6368 8.27973 10.5605 8.18559 10.5605C8.09154 10.5605 8.01519 10.6368 8.01519 10.7309C8.01519 10.8251 8.09154 10.9014 8.18559 10.9014ZM8.3152 5.06961C8.42831 5.06961 8.51996 4.97789 8.51996 4.86468C8.51996 4.75165 8.42831 4.65992 8.3152 4.65992C8.20208 4.65992 8.11035 4.75165 8.11035 4.86468C8.11035 4.97789 8.20208 5.06961 8.3152 5.06961ZM8.96281 4.91897C8.96281 4.80319 8.86893 4.70922 8.75315 4.70922C8.63737 4.70922 8.54349 4.80319 8.54349 4.91897C8.54349 5.03474 8.63737 5.12854 8.75315 5.12854C8.86893 5.12854 8.96281 5.03474 8.96281 4.91897ZM11.2921 9.79612C11.1996 9.79612 11.1246 9.87102 11.1246 9.96361C11.1246 10.0562 11.1996 10.1311 11.2921 10.1311C11.3846 10.1311 11.4597 10.0562 11.4597 9.96361C11.4597 9.87102 11.3846 9.79612 11.2921 9.79612ZM11.3033 10.3719C11.3033 10.4597 11.3744 10.5308 11.4622 10.5308C11.55 10.5308 11.6211 10.4597 11.6211 10.3719C11.6211 10.2841 11.55 10.213 11.4622 10.213C11.3744 10.213 11.3033 10.2841 11.3033 10.3719ZM11.7826 10.7806C11.7826 10.6976 11.7153 10.6303 11.6323 10.6303C11.5494 10.6303 11.4821 10.6976 11.4821 10.7806C11.4821 10.8636 11.5494 10.9309 11.6323 10.9309C11.7153 10.9309 11.7826 10.8636 11.7826 10.7806ZM11.8435 11.3382C11.9217 11.3382 11.9851 11.2748 11.9851 11.1966C11.9851 11.1183 11.9217 11.0549 11.8435 11.0549C11.7653 11.0549 11.7018 11.1183 11.7018 11.1966C11.7018 11.2748 11.7653 11.3382 11.8435 11.3382ZM12.0093 11.597C12.0093 11.5235 11.9498 11.4638 11.8764 11.4638C11.8029 11.4638 11.7434 11.5235 11.7434 11.597C11.7434 11.6703 11.8029 11.7299 11.8764 11.7299C11.9498 11.7299 12.0093 11.6703 12.0093 11.597ZM8.48389 10.3882C8.48389 10.3003 8.41251 10.229 8.32456 10.229C8.23661 10.229 8.16524 10.3003 8.16524 10.3882C8.16524 10.4762 8.23661 10.5475 8.32456 10.5475C8.41251 10.5475 8.48389 10.4762 8.48389 10.3882ZM6.15284 10.6133C6.26286 10.6133 6.3521 10.5241 6.3521 10.414C6.3521 10.3041 6.26286 10.2147 6.15284 10.2147C6.04282 10.2147 5.95358 10.3041 5.95358 10.414C5.95358 10.5241 6.04282 10.6133 6.15284 10.6133ZM6.09392 10.0957C6.09392 9.98525 6.00434 9.89559 5.8938 9.89559C5.78326 9.89559 5.69359 9.98525 5.69359 10.0957C5.69359 10.2063 5.78326 10.2958 5.8938 10.2958C6.00434 10.2958 6.09392 10.2063 6.09392 10.0957ZM7.93599 5.32677C7.93599 5.43121 8.02068 5.51607 8.12521 5.51607C8.22965 5.51607 8.31434 5.43121 8.31434 5.32677C8.31434 5.22233 8.22965 5.13764 8.12521 5.13764C8.02068 5.13764 7.93599 5.22233 7.93599 5.32677ZM8.34225 5.30547C8.34225 5.41438 8.43055 5.50267 8.53946 5.50267C8.64836 5.50267 8.73666 5.41438 8.73666 5.30547C8.73666 5.19656 8.64836 5.10827 8.53946 5.10827C8.43055 5.10827 8.34225 5.19656 8.34225 5.30547ZM10.9523 10.3882C10.9523 10.4777 11.0248 10.5504 11.1144 10.5504C11.2039 10.5504 11.2766 10.4777 11.2766 10.3882C11.2766 10.2986 11.2039 10.2261 11.1144 10.2261C11.0248 10.2261 10.9523 10.2986 10.9523 10.3882ZM11.4265 10.7729C11.4265 10.6885 11.3581 10.6202 11.2738 10.6202C11.1894 10.6202 11.121 10.6885 11.121 10.7729C11.121 10.8572 11.1894 10.9256 11.2738 10.9256C11.3581 10.9256 11.4265 10.8572 11.4265 10.7729ZM11.5272 11C11.4482 11 11.3839 11.064 11.3839 11.1432C11.3839 11.2222 11.4482 11.2865 11.5272 11.2865C11.6064 11.2865 11.6705 11.2222 11.6705 11.1432C11.6705 11.064 11.6064 11 11.5272 11ZM11.5717 11.3622C11.4978 11.3622 11.4378 11.422 11.4378 11.4959C11.4378 11.5697 11.4978 11.6299 11.5717 11.6299C11.6455 11.6299 11.7054 11.5697 11.7054 11.4959C11.7054 11.422 11.6455 11.3622 11.5717 11.3622ZM8.86824 10.4704C8.86824 10.3968 8.80863 10.3372 8.73511 10.3372C8.66142 10.3372 8.60181 10.3968 8.60181 10.4704C8.60181 10.5439 8.66142 10.6035 8.73511 10.6035C8.80863 10.6035 8.86824 10.5439 8.86824 10.4704ZM8.4223 10.1553C8.4223 10.234 8.48603 10.2975 8.56453 10.2975C8.64304 10.2975 8.70677 10.234 8.70677 10.1553C8.70677 10.0766 8.64304 10.0131 8.56453 10.0131C8.48603 10.0131 8.4223 10.0766 8.4223 10.1553ZM8.05684 10.3372C8.14033 10.3372 8.20801 10.2694 8.20801 10.1859C8.20801 10.1024 8.14033 10.0347 8.05684 10.0347C7.97327 10.0347 7.90559 10.1024 7.90559 10.1859C7.90559 10.2694 7.97327 10.3372 8.05684 10.3372ZM7.67137 10.3402C7.75992 10.3402 7.83164 10.2683 7.83164 10.1799C7.83164 10.0914 7.75992 10.0196 7.67137 10.0196C7.5829 10.0196 7.5111 10.0914 7.5111 10.1799C7.5111 10.2683 7.5829 10.3402 7.67137 10.3402ZM6.52173 10.3013C6.61673 10.3013 6.69377 10.2242 6.69377 10.1292C6.69377 10.0342 6.61673 9.95708 6.52173 9.95708C6.42666 9.95708 6.34961 10.0342 6.34961 10.1292C6.34961 10.2242 6.42665 10.3013 6.52173 10.3013ZM6.44031 9.85006C6.44031 9.75541 6.36353 9.67863 6.26888 9.67863C6.17423 9.67863 6.09744 9.75541 6.09744 9.85006C6.09744 9.94472 6.17423 10.0215 6.26888 10.0215C6.36353 10.0215 6.44031 9.94472 6.44031 9.85006ZM7.20129 7.70626C7.20129 7.61659 7.12872 7.5441 7.03922 7.5441C6.94964 7.5441 6.87706 7.61659 6.87706 7.70626C6.87706 7.79576 6.94964 7.86825 7.03922 7.86825C7.12872 7.86825 7.20129 7.79576 7.20129 7.70626ZM8.15836 5.92508C8.25396 5.92508 8.33152 5.84761 8.33152 5.75193C8.33152 5.65642 8.25396 5.57877 8.15836 5.57877C8.06277 5.57877 7.98521 5.65642 7.98521 5.75193C7.98521 5.84761 8.06277 5.92508 8.15836 5.92508ZM8.53928 5.55902C8.4375 5.55902 8.35505 5.64147 8.35505 5.74317C8.35505 5.84503 8.4375 5.92748 8.53928 5.92748C8.64106 5.92748 8.72352 5.84503 8.72352 5.74317C8.72352 5.64147 8.64106 5.55902 8.53928 5.55902ZM10.8224 10.3742C10.7316 10.3742 10.658 10.4477 10.658 10.5386C10.658 10.6293 10.7316 10.7029 10.8224 10.7029C10.9132 10.7029 10.9868 10.6293 10.9868 10.5386C10.9868 10.4477 10.9132 10.3742 10.8224 10.3742ZM10.9691 11.0491C11.0544 11.0491 11.1234 10.98 11.1234 10.8948C11.1234 10.8095 11.0544 10.7404 10.9691 10.7404C10.8839 10.7404 10.8148 10.8095 10.8148 10.8948C10.8148 10.98 10.8839 11.0491 10.9691 11.0491ZM11.3499 11.2253C11.3499 11.1456 11.2853 11.081 11.2056 11.081C11.1259 11.081 11.0613 11.1456 11.0613 11.2253C11.0613 11.305 11.1259 11.3696 11.2056 11.3696C11.2853 11.3696 11.3499 11.305 11.3499 11.2253ZM11.2737 11.4959C11.1996 11.4959 11.1395 11.556 11.1395 11.6302C11.1395 11.7044 11.1996 11.7645 11.2737 11.7645C11.3479 11.7645 11.408 11.7044 11.408 11.6302C11.408 11.556 11.3479 11.4959 11.2737 11.4959ZM8.3456 9.78531C8.26924 9.78531 8.20732 9.84732 8.20732 9.92359C8.20732 10 8.26924 10.0619 8.3456 10.0619C8.42196 10.0619 8.48388 10 8.48388 9.92359C8.48388 9.84732 8.42196 9.78531 8.3456 9.78531ZM7.99345 9.99762C8.07247 9.99762 8.13655 9.93355 8.13655 9.85453C8.13655 9.77534 8.07247 9.71127 7.99345 9.71127C7.91435 9.71127 7.85028 9.77534 7.85028 9.85453C7.85028 9.93355 7.91435 9.99762 7.99345 9.99762ZM7.6328 9.99831C7.71448 9.99831 7.78079 9.93218 7.78079 9.85041C7.78079 9.76864 7.71448 9.70234 7.6328 9.70234C7.55104 9.70234 7.48481 9.76864 7.48481 9.85041C7.48481 9.93218 7.55104 9.99831 7.6328 9.99831ZM7.2731 10.0009C7.35555 10.0009 7.42246 9.93407 7.42246 9.85161C7.42246 9.76916 7.35555 9.70216 7.2731 9.70216C7.19056 9.70216 7.12365 9.76916 7.12365 9.85161C7.12365 9.93406 7.19056 10.0009 7.2731 10.0009ZM6.91416 9.9911C6.9967 9.9911 7.06361 9.92428 7.06361 9.84165C7.06361 9.75919 6.9967 9.69237 6.91416 9.69237C6.83162 9.69237 6.7648 9.75919 6.7648 9.84165C6.7648 9.92427 6.83162 9.9911 6.91416 9.9911ZM6.79873 9.6173C6.79873 9.53468 6.73182 9.46786 6.64928 9.46786C6.56674 9.46786 6.49983 9.53468 6.49983 9.6173C6.49983 9.69976 6.56674 9.76675 6.64928 9.76675C6.73182 9.76675 6.79873 9.69976 6.79873 9.6173ZM7.24484 8.09809C7.32472 8.09809 7.38956 8.03333 7.38956 7.95345C7.38956 7.8734 7.32472 7.80864 7.24484 7.80864C7.16488 7.80864 7.10011 7.8734 7.10011 7.95345C7.10011 8.03333 7.16488 8.09809 7.24484 8.09809ZM7.24638 7.62432C7.24638 7.70317 7.31029 7.76707 7.38913 7.76707C7.46798 7.76707 7.53197 7.70317 7.53197 7.62432C7.53197 7.54547 7.46798 7.48157 7.38913 7.48157C7.31029 7.48157 7.24638 7.54547 7.24638 7.62432ZM7.39102 7.29519C7.39102 7.37387 7.45475 7.4376 7.53351 7.4376C7.61219 7.4376 7.676 7.37387 7.676 7.29519C7.676 7.21652 7.61219 7.15261 7.53351 7.15261C7.45475 7.15261 7.39102 7.21652 7.39102 7.29519ZM7.53343 6.96606C7.53343 7.04577 7.5981 7.11036 7.67781 7.11036C7.75751 7.11036 7.82219 7.04577 7.82219 6.96606C7.82219 6.88619 7.75751 6.8216 7.67781 6.8216C7.5981 6.8216 7.53343 6.88619 7.53343 6.96606ZM7.67592 6.63693C7.67592 6.71767 7.74137 6.78312 7.82219 6.78312C7.90292 6.78312 7.96837 6.71767 7.96837 6.63693C7.96837 6.55603 7.90292 6.49058 7.82219 6.49058C7.74137 6.49058 7.67592 6.55603 7.67592 6.63693ZM7.83765 6.3176C7.83765 6.39936 7.90396 6.46567 7.98581 6.46567C8.06757 6.46567 8.13388 6.39936 8.13388 6.3176C8.13388 6.23583 8.06757 6.16952 7.98581 6.16952C7.90396 6.16952 7.83765 6.23583 7.83765 6.3176ZM8.45142 6.15389C8.45142 6.06852 8.38228 5.99946 8.2969 5.99946C8.21153 5.99946 8.14239 6.06852 8.14239 6.15389C8.14239 6.23926 8.21153 6.30849 8.2969 6.30849C8.38228 6.30849 8.45142 6.23926 8.45142 6.15389ZM8.80554 6.24562C8.80554 6.15252 8.73004 6.07693 8.63685 6.07693C8.54366 6.07693 8.46816 6.15252 8.46816 6.24562C8.46816 6.3389 8.54366 6.41431 8.63685 6.41431C8.73004 6.41431 8.80554 6.3389 8.80554 6.24562ZM10.8279 11.4519C10.8279 11.532 10.8928 11.5969 10.9729 11.5969C11.0529 11.5969 11.1179 11.532 11.1179 11.4519C11.1179 11.3719 11.0529 11.3069 10.9729 11.3069C10.8928 11.3069 10.8279 11.3719 10.8279 11.4519ZM8.97165 10.4618C9.03753 10.4618 9.09095 10.4083 9.09095 10.3424C9.09095 10.2766 9.03753 10.2232 8.97165 10.2232C8.90577 10.2232 8.85235 10.2766 8.85235 10.3424C8.85235 10.4083 8.90577 10.4618 8.97165 10.4618ZM8.83028 9.92427C8.76655 9.92427 8.71475 9.97598 8.71475 10.0397C8.71475 10.1036 8.76655 10.1553 8.83028 10.1553C8.89409 10.1553 8.9458 10.1036 8.9458 10.0397C8.9458 9.97598 8.89409 9.92427 8.83028 9.92427ZM8.60834 9.67863C8.54667 9.67863 8.49668 9.72862 8.49668 9.79029C8.49668 9.85196 8.54667 9.90194 8.60834 9.90194C8.67001 9.90194 8.72008 9.85196 8.72008 9.79029C8.72008 9.72862 8.67 9.67863 8.60834 9.67863ZM8.32456 9.72226C8.38408 9.72226 8.43244 9.67399 8.43244 9.61438C8.43244 9.55478 8.38408 9.50651 8.32456 9.50651C8.26495 9.50651 8.21668 9.55478 8.21668 9.61438C8.21668 9.67399 8.26495 9.72226 8.32456 9.72226ZM8.00213 9.63465C8.06131 9.63465 8.10923 9.58673 8.10923 9.52746C8.10923 9.46837 8.06131 9.42044 8.00213 9.42044C7.94304 9.42044 7.89511 9.46837 7.89511 9.52746C7.89511 9.58673 7.94303 9.63465 8.00213 9.63465ZM7.5598 9.52059C7.5598 9.57986 7.60789 9.62796 7.66716 9.62796C7.72642 9.62796 7.77452 9.57986 7.77452 9.52059C7.77452 9.46133 7.72642 9.41323 7.66716 9.41323C7.60789 9.41323 7.5598 9.46133 7.5598 9.52059ZM7.33202 9.41478C7.27258 9.41478 7.2244 9.46305 7.2244 9.52248C7.2244 9.58192 7.27258 9.63019 7.33202 9.63019C7.39145 9.63019 7.43964 9.58192 7.43964 9.52248C7.43964 9.46305 7.39145 9.41478 7.33202 9.41478ZM7.14796 9.39983C7.14796 9.34022 7.09968 9.29178 7.04008 9.29178C6.98047 9.29178 6.93211 9.34022 6.93211 9.39983C6.93211 9.45944 6.98047 9.50771 7.04008 9.50771C7.09968 9.50771 7.14796 9.45944 7.14796 9.39983ZM6.94714 9.08187C6.94714 9.14165 6.99559 9.19009 7.05537 9.19009C7.11514 9.19009 7.16359 9.14165 7.16359 9.08187C7.16359 9.02209 7.11514 8.97365 7.05537 8.97365C6.99559 8.97365 6.94714 9.02209 6.94714 9.08187ZM7.30118 8.77593C7.30118 8.71546 7.25214 8.6665 7.19176 8.6665C7.13129 8.6665 7.08225 8.71546 7.08225 8.77593C7.08225 8.83639 7.13129 8.88535 7.19176 8.88535C7.25214 8.88535 7.30118 8.83639 7.30118 8.77593ZM7.32807 8.35696C7.26571 8.35696 7.21512 8.40746 7.21512 8.46999C7.21512 8.53235 7.26571 8.58285 7.32807 8.58285C7.39042 8.58285 7.44101 8.53234 7.44101 8.46999C7.44101 8.40746 7.39042 8.35696 7.32807 8.35696ZM7.58084 8.16388C7.58084 8.09963 7.5287 8.04758 7.46446 8.04758C7.40013 8.04758 7.34808 8.09963 7.34808 8.16388C7.34808 8.2283 7.40013 8.28034 7.46446 8.28034C7.5287 8.28034 7.58084 8.2283 7.58084 8.16388ZM7.60085 7.73804C7.53463 7.73804 7.48095 7.7918 7.48095 7.85794C7.48095 7.92425 7.53463 7.97784 7.60085 7.97784C7.66699 7.97784 7.72067 7.92425 7.72067 7.85794C7.72067 7.79181 7.66699 7.73804 7.60085 7.73804ZM7.73716 7.42866C7.66905 7.42866 7.61382 7.48381 7.61382 7.552C7.61382 7.6202 7.66905 7.67534 7.73716 7.67534C7.80527 7.67534 7.8605 7.6202 7.8605 7.552C7.8605 7.48381 7.80527 7.42866 7.73716 7.42866ZM8.00041 7.24606C8.00041 7.17598 7.94355 7.11929 7.87355 7.11929C7.80346 7.11929 7.74669 7.17598 7.74669 7.24606C7.74669 7.31615 7.80347 7.37284 7.87355 7.37284C7.94355 7.37284 8.00041 7.31615 8.00041 7.24606ZM8.00994 6.80974C7.93797 6.80974 7.87965 6.86815 7.87965 6.94012C7.87965 7.0121 7.93797 7.07033 8.00994 7.07033C8.08183 7.07033 8.14024 7.0121 8.14024 6.94012C8.14024 6.86815 8.08183 6.80974 8.00994 6.80974ZM8.29913 6.64569C8.29913 6.57183 8.23927 6.51188 8.1654 6.51188C8.09154 6.51188 8.03159 6.57183 8.03159 6.64569C8.03159 6.71956 8.09154 6.77951 8.1654 6.77951C8.23927 6.77951 8.29913 6.71956 8.29913 6.64569ZM8.61555 6.6225C8.61555 6.54555 8.55311 6.48319 8.47615 6.48319C8.39911 6.48319 8.33667 6.54555 8.33667 6.6225C8.33667 6.69963 8.39911 6.76199 8.47615 6.76199C8.55311 6.76199 8.61555 6.69963 8.61555 6.6225ZM10.9956 11.7623C10.9956 11.8549 10.9205 11.93 10.8279 11.93C10.7352 11.93 10.6602 11.8549 10.6602 11.7623C10.6602 11.7391 10.6649 11.7171 10.6733 11.6972C10.6455 11.7135 10.6149 11.7256 10.5802 11.7256C10.4769 11.7256 10.3931 11.6417 10.3931 11.5383C10.3931 11.5055 10.4039 11.4763 10.4186 11.4495C10.4144 11.4497 10.4109 11.4519 10.4066 11.4519C10.2964 11.4519 10.2072 11.3626 10.2072 11.2525C10.2072 11.2123 10.2219 11.1771 10.2423 11.1458C10.1445 11.1274 10.069 11.0455 10.069 10.9422C10.069 10.9058 10.0806 10.8734 10.0967 10.8435C10.002 10.8177 9.93095 10.7347 9.93095 10.6318C9.93095 10.5983 9.93954 10.5672 9.95277 10.5387C9.86181 10.5071 9.79559 10.4233 9.79559 10.3216C9.79559 10.2891 9.80237 10.2584 9.8144 10.2302C9.72714 10.1955 9.66504 10.111 9.66504 10.0112C9.66504 9.97993 9.67182 9.95056 9.68282 9.92324C9.59581 9.88683 9.53457 9.80111 9.53457 9.70096C9.53457 9.67055 9.54161 9.64204 9.55184 9.61541C9.465 9.57745 9.40411 9.49139 9.40411 9.39055C9.40411 9.36084 9.41132 9.33318 9.42103 9.3069C9.33445 9.26773 9.27355 9.1815 9.27355 9.08032C9.27355 9.05078 9.28094 9.02346 9.2903 8.99735C9.20459 8.95681 9.14429 8.87109 9.14429 8.76992C9.14429 8.73831 9.15168 8.70859 9.16233 8.68076C9.08022 8.64022 9.02241 8.55743 9.02241 8.45968C9.02241 8.42412 9.0304 8.39063 9.04388 8.36005C8.96487 8.32209 8.9093 8.2429 8.9093 8.14945C8.9093 8.10822 8.92269 8.07146 8.94125 8.03779C8.86137 8.0067 8.80425 7.92991 8.80425 7.83904C8.80425 7.79077 8.82315 7.74852 8.85003 7.71261C8.76483 7.69303 8.6999 7.6202 8.6999 7.52881C8.6999 7.47247 8.72506 7.42282 8.76371 7.38761C8.6713 7.38623 8.59666 7.31117 8.59666 7.21841C8.59666 7.12479 8.67258 7.04886 8.76629 7.04886C8.82813 7.04886 8.87992 7.08373 8.90955 7.1332C8.91883 7.1083 8.93266 7.08631 8.95009 7.0669C8.87288 7.05934 8.80975 7.00918 8.78476 6.93858C8.77033 7.00677 8.71261 7.05899 8.64012 7.05899C8.55672 7.05899 8.48921 6.99149 8.48921 6.90817C8.48921 6.82486 8.55672 6.75718 8.64012 6.75718C8.70136 6.75718 8.75358 6.79411 8.7772 6.8465C8.78459 6.7948 8.8107 6.75082 8.85029 6.72024C8.84419 6.72093 8.83887 6.72385 8.8326 6.72385C8.73159 6.72385 8.64974 6.64209 8.64974 6.54108C8.64974 6.44007 8.73159 6.35813 8.8326 6.35813C8.85244 6.35813 8.87056 6.36363 8.88843 6.36947C8.86936 6.33821 8.85544 6.30351 8.85544 6.26417C8.85544 6.20783 8.87829 6.15698 8.91497 6.1197C8.90002 6.12331 8.88576 6.12881 8.8697 6.12881C8.76182 6.12881 8.67439 6.04137 8.67439 5.9335C8.67439 5.82562 8.76182 5.73818 8.8697 5.73818C8.91368 5.73818 8.95224 5.75536 8.98488 5.77993C8.98488 5.77804 8.98385 5.77649 8.98385 5.7746C8.98385 5.6571 9.07919 5.56177 9.19668 5.56177C9.20493 5.56177 9.21197 5.56554 9.21996 5.5664C9.20665 5.53823 9.19797 5.50765 9.19797 5.47433C9.19797 5.35391 9.29571 5.25617 9.41622 5.25617C9.42352 5.25617 9.42962 5.25961 9.43675 5.26029C9.42704 5.23556 9.42068 5.20893 9.42068 5.18076C9.42068 5.06017 9.51851 4.96243 9.6391 4.96243C9.65138 4.96243 9.66203 4.96741 9.67389 4.96947C9.67062 4.95452 9.66478 4.94044 9.66478 4.92446C9.66478 4.80559 9.76115 4.70922 9.87994 4.70922C9.8978 4.70922 9.91378 4.71524 9.93035 4.71936C9.92967 4.71266 9.9264 4.70682 9.9264 4.69978C9.9264 4.58571 10.0189 4.4933 10.1329 4.4933C10.2469 4.4933 10.3393 4.58571 10.3393 4.69978C10.3393 4.81384 10.2469 4.90625 10.1329 4.90625C10.1176 4.90625 10.104 4.90076 10.0897 4.89749C10.0909 4.90677 10.0951 4.91484 10.0951 4.92446C10.0951 5.04333 9.99881 5.13953 9.87994 5.13953C9.86851 5.13953 9.85872 5.13472 9.84781 5.133C9.85142 5.14881 9.85743 5.16375 9.85743 5.18076C9.85743 5.30135 9.75969 5.39926 9.6391 5.39926C9.6318 5.39926 9.62562 5.39582 9.6184 5.39514C9.62811 5.4197 9.63446 5.44616 9.63446 5.47433C9.63446 5.49219 9.62837 5.508 9.62433 5.52466C9.65843 5.44736 9.73521 5.39308 9.82505 5.39308C9.83897 5.39308 9.85116 5.39857 9.86439 5.40098C9.86379 5.39479 9.8607 5.3893 9.8607 5.38294C9.8607 5.26476 9.95646 5.16908 10.0746 5.16908C10.0959 5.16908 10.1154 5.17543 10.1349 5.18127C10.136 5.0703 10.2258 4.98046 10.337 4.98046C10.4488 4.98046 10.5394 5.07116 10.5394 5.18299C10.5394 5.29482 10.4488 5.38535 10.337 5.38535C10.3193 5.38535 10.3033 5.37951 10.2868 5.37521C10.2869 5.37796 10.2883 5.38019 10.2883 5.38294C10.2883 5.50095 10.1927 5.59664 10.0746 5.59664C10.0624 5.59664 10.0518 5.59165 10.0401 5.58976C10.041 5.59767 10.0448 5.60471 10.0448 5.61295C10.0448 5.7344 9.94642 5.83283 9.82505 5.83283C9.81724 5.83283 9.81062 5.82922 9.80307 5.82837C9.80727 5.84554 9.81354 5.86203 9.81354 5.88041C9.81354 5.96733 9.76244 6.04051 9.68986 6.0771C9.71262 6.06937 9.73607 6.06267 9.76141 6.06267C9.77146 6.06267 9.78005 6.06714 9.78967 6.06834C9.78898 6.06095 9.78537 6.05443 9.78537 6.04687C9.78537 5.92473 9.88449 5.82562 10.0067 5.82562C10.0248 5.82562 10.041 5.8318 10.0579 5.83592C10.0613 5.72238 10.1533 5.63099 10.2676 5.63099C10.2956 5.63099 10.3221 5.637 10.3466 5.64697C10.3566 5.54682 10.4384 5.46763 10.5411 5.46763C10.6507 5.46763 10.7396 5.55644 10.7396 5.66603C10.7396 5.77563 10.6507 5.86461 10.5411 5.86461C10.5183 5.86461 10.4971 5.85877 10.4767 5.85156C10.4714 5.96356 10.3808 6.05305 10.2676 6.05305C10.2535 6.05305 10.2411 6.04773 10.2277 6.04498C10.2277 6.04567 10.228 6.04618 10.228 6.04687C10.228 6.16918 10.1289 6.26829 10.0067 6.26829C9.99812 6.26829 9.99082 6.26434 9.9824 6.26348C9.98343 6.27207 9.98756 6.2798 9.98756 6.28873C9.98756 6.37136 9.941 6.44059 9.87487 6.47992C9.89342 6.47511 9.91137 6.46859 9.93147 6.46859C9.94599 6.46859 9.95861 6.47426 9.97235 6.47683C9.97467 6.35899 10.0701 6.264 10.1885 6.264C10.2136 6.264 10.237 6.27035 10.2595 6.27826C10.2712 6.17588 10.3552 6.09514 10.4608 6.09514C10.496 6.09514 10.5275 6.10631 10.5565 6.12176C10.5703 6.02797 10.6477 5.9548 10.7453 5.9548C10.8526 5.9548 10.9397 6.04189 10.9397 6.14925C10.9397 6.25661 10.8526 6.3437 10.7453 6.3437C10.7152 6.3437 10.6876 6.33563 10.6621 6.32343C10.6505 6.42616 10.5666 6.50707 10.4608 6.50707C10.4401 6.50707 10.4213 6.50088 10.4025 6.49538C10.3948 6.6079 10.3032 6.69791 10.1885 6.69791C10.178 6.69791 10.169 6.69345 10.159 6.6919C10.159 6.69379 10.16 6.69534 10.16 6.69705C10.16 6.78518 10.1085 6.85939 10.0354 6.89752C10.0566 6.89065 10.0781 6.88412 10.1015 6.88412C10.1233 6.88412 10.1432 6.89065 10.163 6.89649C10.1728 6.7893 10.2603 6.7041 10.3701 6.7041C10.4026 6.7041 10.4325 6.71286 10.46 6.72591C10.4768 6.63195 10.5552 6.55929 10.6539 6.55929C10.6963 6.55929 10.7336 6.57543 10.766 6.59794C10.7827 6.50981 10.8566 6.44196 10.9494 6.44196C11.0546 6.44196 11.1399 6.52734 11.1399 6.63246C11.1399 6.73759 11.0546 6.8228 10.9494 6.8228C10.9116 6.8228 10.8784 6.80888 10.8488 6.78999C10.8339 6.88601 10.7543 6.96108 10.6539 6.96108C10.6258 6.96108 10.5992 6.95507 10.575 6.94476C10.5598 7.04645 10.4759 7.12564 10.3701 7.12564C10.3526 7.12564 10.337 7.11963 10.3208 7.11568C10.3151 7.23283 10.2201 7.32662 10.1015 7.32662C10.0908 7.32662 10.0816 7.32199 10.0713 7.32061C10.0688 7.37799 10.0462 7.42969 10.0095 7.4692C10.0288 7.47006 10.0467 7.47487 10.0643 7.4802C10.081 7.3785 10.1653 7.29966 10.2717 7.29966C10.3008 7.29966 10.3285 7.30567 10.3538 7.31615C10.37 7.21943 10.4504 7.1442 10.5519 7.1442C10.5922 7.1442 10.6277 7.15897 10.6594 7.17907C10.6785 7.09094 10.7532 7.02361 10.8471 7.02361C10.8968 7.02361 10.9409 7.0437 10.9755 7.07411C10.9948 6.99183 11.0653 6.92913 11.1536 6.92913C11.2566 6.92913 11.34 7.01261 11.34 7.11551C11.34 7.21858 11.2566 7.30206 11.1536 7.30206C11.108 7.30206 11.0677 7.28385 11.0352 7.25654C11.0174 7.34604 10.942 7.41509 10.8471 7.41509C10.8106 7.41509 10.7784 7.40238 10.7492 7.38503C10.7316 7.4802 10.6521 7.55355 10.5519 7.55355C10.5266 7.55355 10.5029 7.54753 10.4806 7.53912C10.4675 7.64476 10.3808 7.72773 10.2717 7.72773C10.2543 7.72773 10.2389 7.72172 10.2226 7.71777C10.2171 7.77171 10.1961 7.82118 10.1596 7.85742C10.1897 7.8576 10.2184 7.86344 10.2445 7.87443C10.2664 7.7839 10.3443 7.71519 10.4417 7.71519C10.4792 7.71519 10.5123 7.72773 10.5427 7.74525C10.5608 7.65421 10.6373 7.58447 10.7335 7.58447C10.7818 7.58447 10.8244 7.6037 10.8588 7.63239C10.8798 7.54994 10.9512 7.48775 11.0401 7.48775C11.0985 7.48775 11.1488 7.51541 11.1838 7.55681C11.2032 7.47693 11.272 7.41629 11.3578 7.41629C11.4585 7.41629 11.5401 7.49806 11.5401 7.59872C11.5401 7.69956 11.4585 7.78115 11.3578 7.78115C11.3035 7.78115 11.2561 7.75642 11.2227 7.7188C11.2037 7.804 11.1311 7.8691 11.0401 7.8691C10.9954 7.8691 10.956 7.85141 10.9235 7.82547C10.9035 7.91411 10.8281 7.98145 10.7335 7.98145C10.6998 7.98145 10.6695 7.97097 10.6417 7.95602C10.6249 8.05325 10.5439 8.12866 10.4417 8.12866C10.4178 8.12866 10.3955 8.12248 10.3741 8.11492C10.3644 8.17401 10.3332 8.22366 10.2867 8.25732C10.2972 8.25578 10.3066 8.25114 10.3175 8.25114C10.3562 8.25114 10.3905 8.2642 10.4219 8.28223C10.4438 8.19583 10.5186 8.13055 10.6118 8.13055C10.6576 8.13055 10.6978 8.14859 10.7314 8.17453C10.7513 8.08932 10.824 8.02456 10.9152 8.02456C10.9723 8.02456 11.0221 8.0505 11.0573 8.08984C11.0788 8.01116 11.1478 7.9519 11.2333 7.9519C11.3015 7.9519 11.3585 7.99055 11.3908 8.04535C11.4082 7.96496 11.4763 7.90346 11.5618 7.90346C11.6604 7.90346 11.7403 7.98334 11.7403 8.08194C11.7403 8.18037 11.6604 8.26024 11.5618 8.26024C11.4972 8.26024 11.443 8.224 11.4118 8.17247C11.3949 8.25767 11.3233 8.32312 11.2333 8.32312C11.1796 8.32312 11.1322 8.29958 11.0983 8.26316C11.0772 8.34648 11.0051 8.40935 10.9152 8.40935C10.8726 8.40935 10.8354 8.39286 10.8035 8.36932C10.7848 8.4602 10.7081 8.52977 10.6118 8.52977C10.5792 8.52977 10.5498 8.52015 10.5226 8.5064C10.5027 8.60363 10.4207 8.67818 10.3175 8.67818C10.3089 8.67818 10.3015 8.67423 10.2931 8.6732C10.3023 8.69553 10.3062 8.72027 10.3077 8.74552C10.3432 8.6878 10.4041 8.64726 10.477 8.64726C10.5237 8.64726 10.5647 8.66564 10.5989 8.69227C10.62 8.60896 10.692 8.54608 10.7819 8.54608C10.8362 8.54608 10.8849 8.5691 10.9199 8.60535C10.9406 8.52513 11.0102 8.46466 11.097 8.46466C11.1648 8.46466 11.2214 8.50262 11.254 8.55673C11.2726 8.47686 11.3408 8.41605 11.4264 8.41605C11.5078 8.41605 11.574 8.47102 11.5965 8.54523C11.6069 8.45916 11.6772 8.39148 11.766 8.39148C11.8618 8.39148 11.9396 8.4693 11.9396 8.56515C11.9396 8.66101 11.8618 8.73865 11.766 8.73865C11.6883 8.73865 11.6251 8.68694 11.6029 8.61652C11.5925 8.70636 11.519 8.77713 11.4264 8.77713C11.3614 8.77713 11.3072 8.74088 11.2754 8.68952C11.2572 8.77318 11.1861 8.83725 11.097 8.83725C11.0455 8.83725 10.999 8.81646 10.9653 8.78262C10.9449 8.86697 10.8724 8.93087 10.7819 8.93087C10.7395 8.93087 10.7024 8.91438 10.6706 8.89119C10.6508 8.98206 10.5738 9.05146 10.477 9.05146C10.4601 9.05146 10.4451 9.04579 10.4294 9.04184C10.4378 9.06434 10.4439 9.08822 10.4439 9.11364C10.4439 9.18338 10.4073 9.24213 10.3546 9.27993C10.3641 9.27855 10.3725 9.27443 10.3823 9.27443C10.4087 9.27443 10.4337 9.27993 10.4566 9.28937C10.4511 9.27168 10.4454 9.25364 10.4454 9.23406C10.4454 9.12859 10.5309 9.04322 10.6363 9.04322C10.6918 9.04322 10.7406 9.06761 10.7755 9.1054C10.7947 9.02398 10.8646 8.96196 10.952 8.96196C11.0182 8.96196 11.0737 8.99872 11.1063 9.05112C11.1226 8.96901 11.1916 8.90579 11.2786 8.90579C11.362 8.90579 11.429 8.96385 11.449 9.04098C11.4568 8.95252 11.5289 8.88226 11.6195 8.88226C11.7154 8.88226 11.7931 8.9599 11.7931 9.05576C11.7931 9.15161 11.7154 9.22943 11.6195 9.22943C11.5392 9.22943 11.4747 9.17377 11.4548 9.09973C11.447 9.19146 11.3724 9.26413 11.2786 9.26413C11.2152 9.26413 11.162 9.22908 11.1302 9.17927C11.1143 9.26533 11.0425 9.33163 10.952 9.33163C10.8995 9.33163 10.8526 9.3093 10.8191 9.27409C10.8001 9.35963 10.7274 9.42491 10.6363 9.42491C10.6113 9.42491 10.5877 9.41941 10.5658 9.41065C10.5719 9.42972 10.5777 9.44896 10.5777 9.46992C10.5777 9.57779 10.4902 9.66523 10.3823 9.66523C10.3334 9.66523 10.2901 9.64547 10.2559 9.61593C10.2472 9.63689 10.2336 9.65458 10.2191 9.67159C10.2779 9.67932 10.3269 9.71144 10.3581 9.75868C10.3851 9.69031 10.4509 9.64152 10.529 9.64152C10.5652 9.64152 10.5969 9.65458 10.6255 9.67262C10.62 9.65527 10.6145 9.63792 10.6145 9.61868C10.6145 9.5187 10.6956 9.43762 10.7957 9.43762C10.8631 9.43762 10.9195 9.4761 10.9507 9.53073C10.9631 9.44553 11.0334 9.37905 11.1221 9.37905C11.205 9.37905 11.2712 9.43728 11.29 9.51441C11.2927 9.42199 11.3675 9.34778 11.4604 9.34778C11.555 9.34778 11.6317 9.4244 11.6317 9.51905C11.6317 9.6137 11.555 9.69049 11.4604 9.69049C11.3802 9.69049 11.316 9.63414 11.2973 9.55993C11.2946 9.65493 11.2177 9.73137 11.1221 9.73137C11.0571 9.73137 11.0026 9.69444 10.972 9.64204C10.9601 9.73068 10.8873 9.79991 10.7957 9.79991C10.7607 9.79991 10.7299 9.78737 10.7022 9.77019C10.708 9.78806 10.7135 9.80626 10.7135 9.82602C10.7135 9.92788 10.6309 10.0105 10.529 10.0105C10.4668 10.0105 10.4146 9.9777 10.3811 9.93063C10.3705 9.9619 10.3539 9.98955 10.3304 10.0117C10.4165 10.0117 10.4858 10.071 10.5077 10.1502C10.5233 10.0698 10.5908 10.0079 10.6757 10.0079C10.7217 10.0079 10.7628 10.0265 10.7939 10.0555C10.7886 10.0389 10.7834 10.022 10.7834 10.0035C10.7834 9.90865 10.8603 9.83186 10.955 9.83186C11.0498 9.83186 11.1266 9.90865 11.1266 10.0035C11.1266 10.0983 11.0498 10.1751 10.955 10.1751C10.9101 10.1751 10.8699 10.1569 10.8393 10.1285C10.845 10.1457 10.8501 10.1632 10.8501 10.1823C10.8501 10.2787 10.7721 10.3566 10.6757 10.3566C10.5968 10.3566 10.5327 10.3034 10.5111 10.2314C10.5006 10.2903 10.4648 10.3395 10.4128 10.3656C10.4299 10.3601 10.4472 10.3548 10.4661 10.3548C10.5639 10.3548 10.6432 10.4341 10.6432 10.5319C10.6432 10.6296 10.5639 10.7088 10.4661 10.7088C10.4292 10.7088 10.3967 10.6949 10.3684 10.6755C10.3633 10.7 10.3553 10.7225 10.3429 10.7435C10.3849 10.7569 10.4195 10.7821 10.4456 10.8165C10.4665 10.7485 10.5274 10.698 10.6023 10.698C10.6942 10.698 10.7686 10.7725 10.7686 10.8644C10.7686 10.9563 10.6942 11.0307 10.6023 11.0307C10.5557 11.0307 10.5139 11.0115 10.4837 10.9807C10.478 11.0106 10.4668 11.0376 10.4498 11.0616C10.5128 11.0759 10.5657 11.1164 10.5904 11.1747C10.6015 11.0994 10.6635 11.0408 10.7417 11.0408C10.8276 11.0408 10.8974 11.1106 10.8974 11.1966C10.8974 11.2825 10.8276 11.3523 10.7417 11.3523C10.6807 11.3523 10.6292 11.3162 10.6036 11.2652C10.6015 11.2973 10.5911 11.326 10.5756 11.3523C10.5772 11.3521 10.5786 11.3512 10.5802 11.3512C10.6835 11.3512 10.7673 11.4351 10.7673 11.5383C10.7673 11.5668 10.7598 11.5933 10.7484 11.6175C10.7723 11.6043 10.7985 11.5947 10.8279 11.5947C10.9205 11.5947 10.9956 11.6697 10.9956 11.7623ZM9.3153 5.94655C9.33058 5.94329 9.34501 5.93728 9.36133 5.93728C9.36846 5.93728 9.37447 5.94071 9.38143 5.9414C9.37654 5.92456 9.37181 5.90773 9.37104 5.88969C9.35601 5.91237 9.33763 5.93109 9.3153 5.94655ZM10.1197 8.54214C10.1197 8.54214 10.1197 8.54231 10.1196 8.54231H10.1198C10.1197 8.54231 10.1197 8.54214 10.1197 8.54214ZM10.3875 10.3752C10.3691 10.3812 10.3504 10.3869 10.33 10.3869C10.3014 10.3869 10.2751 10.3795 10.2509 10.368C10.2467 10.3879 10.2423 10.4071 10.2334 10.4248C10.2591 10.4348 10.2819 10.4494 10.3021 10.4676C10.3181 10.4269 10.3488 10.3948 10.3875 10.3752ZM10.1981 10.066C10.1966 10.066 10.1953 10.0669 10.1939 10.0669C10.1711 10.0669 10.1501 10.0608 10.1298 10.054C10.1264 10.0722 10.1245 10.0907 10.1172 10.1072C10.1317 10.1132 10.1429 10.1241 10.1557 10.1326C10.1653 10.1076 10.1793 10.0845 10.1981 10.066ZM10.2682 9.31549C10.2571 9.31721 10.2471 9.32202 10.2355 9.32202C10.1973 9.32202 10.1635 9.30896 10.1326 9.29092C10.1265 9.30535 10.1155 9.31652 10.1068 9.3294C10.1458 9.33868 10.1822 9.355 10.2097 9.38265C10.2236 9.35534 10.2438 9.33353 10.2682 9.31549ZM9.93147 6.92552C9.92477 6.92552 9.9191 6.92226 9.91249 6.92174C9.91257 6.92329 9.91343 6.92466 9.91343 6.92621C9.91343 6.98565 9.88947 7.03838 9.85288 7.07961C9.86387 7.0803 9.87375 7.08373 9.88423 7.08596C9.89119 7.00935 9.93568 6.94562 10.0004 6.91161C9.97828 6.91865 9.95595 6.92552 9.93147 6.92552ZM9.76141 6.51497C9.75419 6.51497 9.74809 6.51153 9.74105 6.51085C9.7426 6.52133 9.74723 6.5306 9.74723 6.54142C9.74723 6.55551 9.74174 6.56771 9.73925 6.58093C9.75874 6.54898 9.78485 6.52287 9.81706 6.5038C9.79877 6.50844 9.78116 6.51497 9.76141 6.51497ZM9.66134 6.08861C9.63901 6.09617 9.61617 6.1027 9.59134 6.1027C9.58344 6.1027 9.57683 6.09892 9.5691 6.09823C9.57451 6.1173 9.58095 6.13603 9.58095 6.15681C9.58095 6.15801 9.58027 6.15922 9.58027 6.16042C9.60157 6.13036 9.62811 6.10528 9.66134 6.08861ZM9.41622 5.69266C9.40677 5.69266 9.39878 5.68837 9.38968 5.68734C9.40033 5.7107 9.40574 5.73647 9.4072 5.76344C9.44662 5.7016 9.51258 5.65831 9.59134 5.65831C9.59985 5.65831 9.60706 5.66226 9.61531 5.66312C9.61136 5.64663 9.60517 5.63082 9.60517 5.61296C9.60517 5.59492 9.61136 5.57877 9.61548 5.56211C9.58164 5.63872 9.50537 5.69266 9.41622 5.69266ZM11.1554 11.7821C11.0738 11.7821 11.0076 11.8484 11.0076 11.93C11.0076 12.0117 11.0738 12.0779 11.1554 12.0779C11.2371 12.0779 11.3033 12.0117 11.3033 11.93C11.3033 11.8484 11.2371 11.7821 11.1554 11.7821Z" fill="white"/>
</g>
<defs>
<clipPath id="clip0_820_30">
<rect width="16.4103" height="16" fill="white" transform="translate(0.191406)"/>
</clipPath>
</defs>
</svg>
