<svg width="18" height="16" viewBox="0 0 18 16" fill="none" xmlns="http://www.w3.org/2000/svg">
<g clip-path="url(#clip0_820_134)">
<path d="M16.3584 0.683746H1.31567V15.3162H16.3584V0.683746Z" fill="#1A2600"/>
<path d="M0.631958 0V16H17.0422V0H0.631958ZM1.31572 0.683761H16.3585V15.3162H1.31572V0.683761Z" fill="#8DD933"/>
<path d="M12.0166 5.53845H10.6832V5.81196H12.0166C12.4131 5.81196 12.7345 6.13332 12.7345 6.52991V9.75042C12.7345 10.147 12.4131 10.4684 12.0166 10.4684H9.99946H9.72595H7.70886C7.31228 10.4684 6.99091 10.147 6.99091 9.75042V8.95726H6.71741V9.74358C6.71741 10.2906 7.16185 10.735 7.70886 10.735H9.72595V11.8291H8.22168V12.1026H11.5037V11.8291H9.99946V10.735H12.0166C12.5636 10.735 13.008 10.2906 13.008 9.74358V6.52991C13.008 5.9829 12.5636 5.53845 12.0166 5.53845Z" fill="#EAFFC4"/>
<path d="M6.99089 5.1282L9.65072 6.41367L6.99089 7.70598V5.1282ZM9.91055 9.09401C10.4439 9.09401 10.82 8.65641 10.82 8.12307V4.86837C10.82 4.33504 10.4029 3.89743 9.86269 3.89743H5.7738C5.24046 3.89743 4.80286 4.3282 4.80286 4.86837V8.12307C4.80286 8.65641 5.24046 9.10085 5.7738 9.10085H9.91055V9.09401Z" fill="#8DD933"/>
</g>
<defs>
<clipPath id="clip0_820_134">
<rect width="16.4103" height="16" fill="white" transform="translate(0.631958)"/>
</clipPath>
</defs>
</svg>
