<svg width="18" height="16" viewBox="0 0 18 16" fill="none" xmlns="http://www.w3.org/2000/svg">
<g clip-path="url(#clip0_820_166)">
<path d="M17.3243 0H0.914062V16H17.3243V0Z" fill="#DCDCDC"/>
<path fill-rule="evenodd" clip-rule="evenodd" d="M5.08498 11.8359C6.37045 12.0273 8.25079 11.8496 8.25079 10.2632C8.25079 8.77948 5.51574 8.14358 4.58583 8.55384L8.89352 3.95897C8.63369 3.89743 8.33284 3.95213 8.33968 3.94529L7.10207 5.21709C6.40463 5.24444 5.73455 5.2923 5.07814 5.347C4.61318 5.38803 4.23027 5.72307 4.17557 6.16068C4.07301 6.94017 4.02515 7.75384 4.02515 8.59487C4.02515 9.42905 4.07301 10.2496 4.17557 11.0222C4.24395 11.5214 4.61318 11.7675 5.08498 11.8359ZM7.21147 11.9726C7.84053 12 8.46275 12.0137 9.11916 12.0137C10.5345 12.0137 11.8884 11.9521 13.1534 11.8359C13.6183 11.7949 14.0012 11.4598 14.0559 11.0222C14.1585 10.2427 14.2063 9.42905 14.2063 8.59487C14.2063 7.75384 14.1585 6.94017 14.0559 6.16068C13.9944 5.72307 13.6183 5.38803 13.1534 5.347C12.5995 5.29914 12.0251 5.25811 11.444 5.23076C11.444 5.23076 9.02344 10.0308 8.77728 10.5299C8.42173 11.2615 7.92258 11.7949 7.21147 11.9726ZM9.91233 3.64444L6.0354 7.73333C7.04053 7.87692 8.74993 9.01196 8.4901 10.5231C9.0166 9.40854 8.04566 8.04102 7.12258 7.48717L10.5004 3.88376C10.3294 3.77435 10.1858 3.71965 9.91233 3.64444Z" fill="#4D4D4D"/>
</g>
<defs>
<clipPath id="clip0_820_166">
<rect width="16.4103" height="16" fill="white" transform="translate(0.914062)"/>
</clipPath>
</defs>
</svg>
