<svg width="17" height="16" viewBox="0 0 17 16" fill="none" xmlns="http://www.w3.org/2000/svg">
<g clip-path="url(#clip0_820_130)">
<path d="M13.726 0H3.12766C1.52273 0 0.22168 1.30105 0.22168 2.90598V13.094C0.22168 14.6989 1.52273 16 3.12766 16H13.726C15.3309 16 16.6319 14.6989 16.6319 13.094V2.90598C16.6319 1.30105 15.3309 0 13.726 0Z" fill="#00005B"/>
<path d="M8.07357 9.93219V11.0661C8.078 11.0979 8.07177 11.1303 8.05584 11.1581C8.03991 11.186 8.01518 11.2078 7.98553 11.2202C7.77611 11.2954 7.55843 11.3453 7.33714 11.3688C7.05036 11.4029 6.76176 11.4195 6.47296 11.4184C6.06283 11.4203 5.65411 11.3703 5.25651 11.2697C4.88424 11.1763 4.52931 11.024 4.2052 10.8184C3.89279 10.6196 3.61718 10.3682 3.39059 10.0753C3.15568 9.76774 2.9768 9.42117 2.86218 9.05152C2.73166 8.62355 2.66851 8.17787 2.67502 7.73049C2.67502 6.9893 2.83648 6.33796 3.15939 5.77646C3.48157 5.21576 3.95961 4.76067 4.53546 4.46645C5.19264 4.13044 5.92211 3.96051 6.66013 3.97151C6.94515 3.96871 7.23007 3.98341 7.51329 4.01555C7.71041 4.037 7.90436 4.08134 8.09122 4.14766C8.11129 4.16281 8.12697 4.18303 8.13665 4.20624C8.14632 4.22946 8.14964 4.25483 8.14627 4.27975V5.51776C8.14627 5.58382 8.12046 5.60584 8.06921 5.58382C7.86069 5.48627 7.63939 5.41878 7.41192 5.38337C7.14609 5.34182 6.87736 5.32157 6.6083 5.32283C6.16946 5.31292 5.73568 5.41808 5.3501 5.62786C5.00588 5.81793 4.72322 6.1025 4.53546 6.44798C4.33666 6.82989 4.23817 7.25604 4.24924 7.68645C4.24313 7.993 4.28968 8.29833 4.38686 8.58914C4.47174 8.83414 4.60044 9.06168 4.76666 9.26067C4.91974 9.44478 5.10656 9.59797 5.31708 9.71202C5.52378 9.82259 5.74396 9.90585 5.97209 9.95972C6.19303 10.02 6.4202 10.0546 6.64907 10.0627C6.89717 10.0641 7.14517 10.0531 7.39216 10.0296C7.59534 10.0027 7.79455 9.95152 7.98553 9.87715C8.01475 9.85514 8.03676 9.84963 8.05157 9.86064C8.0603 9.87021 8.06679 9.88158 8.0706 9.89395C8.0744 9.90632 8.07542 9.91938 8.07357 9.93219Z" fill="#9999FF"/>
<path d="M10.6012 7.33417V11.194C10.6012 11.2528 10.5754 11.2821 10.5242 11.2821H9.15051C9.13705 11.284 9.12333 11.2827 9.11043 11.2784C9.09753 11.2741 9.08581 11.2669 9.07619 11.2573C9.06658 11.2477 9.05934 11.2359 9.05503 11.2231C9.05073 11.2102 9.04949 11.1964 9.05142 11.183V3.58026C9.05142 3.529 9.08066 3.5032 9.13949 3.5032H10.5242C10.5346 3.50173 10.5453 3.5027 10.5553 3.50605C10.5653 3.5094 10.5744 3.51504 10.5819 3.52251C10.5894 3.52998 10.595 3.53909 10.5984 3.54911C10.6017 3.55913 10.6027 3.5698 10.6012 3.58026L10.6092 6.17828C10.8082 6.04625 11.0216 5.9373 11.2452 5.85353C11.4764 5.76925 11.7461 5.74929 12.0543 5.74929C12.2727 5.75014 12.4898 5.78354 12.6983 5.84836C12.9202 5.9099 13.1253 6.0208 13.2983 6.17278C13.4816 6.33791 13.6103 6.56185 13.7204 6.8443C13.8305 7.1269 13.8855 7.49201 13.8855 7.93963V11.183C13.8855 11.249 13.8562 11.2821 13.7975 11.2821H12.5084C12.4935 11.2842 12.4782 11.2828 12.4639 11.2781C12.4496 11.2733 12.4365 11.2652 12.4259 11.2545C12.4152 11.2439 12.4071 11.2308 12.4024 11.2165C12.3976 11.2022 12.3962 11.1869 12.3984 11.172V8.09377C12.4054 7.89584 12.3697 7.69873 12.2938 7.51581C12.2326 7.37579 12.1334 7.25567 12.0075 7.16905C11.8543 7.08229 11.6798 7.04033 11.5039 7.04796C11.3397 7.04729 11.1764 7.07141 11.0195 7.11951C10.8685 7.16574 10.7268 7.23842 10.6012 7.33417Z" fill="#9999FF"/>
</g>
<defs>
<clipPath id="clip0_820_130">
<rect width="16.4103" height="16" fill="white" transform="translate(0.22168)"/>
</clipPath>
</defs>
</svg>
