<svg width="18" height="16" viewBox="0 0 18 16" fill="none" xmlns="http://www.w3.org/2000/svg">
<g clip-path="url(#clip0_820_45)">
<path d="M14.3368 0H3.7385C2.13357 0 0.83252 1.30105 0.83252 2.90598V13.094C0.83252 14.6989 2.13357 16 3.7385 16H14.3368C15.9417 16 17.2428 14.6989 17.2428 13.094V2.90598C17.2428 1.30105 15.9417 0 14.3368 0Z" fill="#00005B"/>
<path d="M7.46797 9.57265H4.925L4.40277 11.1773C4.39572 11.2066 4.37866 11.2325 4.35455 11.2506C4.33043 11.2687 4.30077 11.2778 4.27066 11.2764H2.98266C2.90921 11.2764 2.88353 11.236 2.9056 11.1553L5.11647 4.84624C5.1385 4.7802 5.1605 4.72133 5.18254 4.63687C5.21134 4.48999 5.22608 4.34071 5.22657 4.19104C5.22508 4.18057 5.22604 4.1699 5.22939 4.15986C5.23273 4.14983 5.23836 4.14072 5.24584 4.13324C5.25332 4.12576 5.26243 4.12013 5.27246 4.11678C5.28249 4.11344 5.29316 4.11247 5.30363 4.11396H7.05397C7.10525 4.11396 7.13461 4.13231 7.14204 4.16902L9.63184 11.1663C9.65384 11.2397 9.63181 11.2764 9.56576 11.2764H8.13464C8.11006 11.2791 8.08533 11.2728 8.06507 11.2586C8.04482 11.2444 8.03042 11.2233 8.02456 11.1993L7.46797 9.57265ZM5.32563 8.21486H7.06498C7.02095 8.06814 6.96958 7.90301 6.91087 7.71947C6.85204 7.53611 6.78967 7.33979 6.72374 7.13051C6.65767 6.92136 6.5916 6.7122 6.52555 6.50302C6.45952 6.29387 6.39897 6.09205 6.34393 5.89755C6.28888 5.70319 6.23934 5.52522 6.19533 5.36365H6.18431C6.12234 5.66096 6.04518 5.9549 5.95314 6.24432C5.85027 6.57459 5.74568 6.91218 5.63937 7.25711C5.5329 7.60217 5.42832 7.92142 5.32563 8.21486Z" fill="#9999FF"/>
<path d="M10.4024 11.1716V7.11401C10.4024 6.98931 10.4006 6.84987 10.3969 6.69569C10.3931 6.54158 10.3876 6.3948 10.3804 6.25535C10.373 6.11601 10.3656 5.98659 10.3584 5.90575C10.3541 5.89477 10.3528 5.88283 10.3548 5.8712C10.3567 5.85958 10.3617 5.84869 10.3694 5.83969C10.3784 5.83181 10.3888 5.8258 10.4002 5.82202C10.4115 5.81824 10.4235 5.81676 10.4354 5.81767H11.5343C11.5722 5.81643 11.6099 5.82396 11.6444 5.83969C11.6591 5.84724 11.6717 5.85817 11.6813 5.87157C11.6908 5.88497 11.6971 5.90046 11.6995 5.91675C11.7141 5.96079 11.7306 6.01033 11.749 6.06537C11.7693 6.13823 11.7822 6.21294 11.7875 6.28837C12.0004 6.10192 12.247 5.95804 12.5141 5.86454C12.7796 5.77261 13.0588 5.7261 13.3398 5.72694C13.5586 5.72794 13.7759 5.76323 13.9838 5.83152C14.2237 5.90825 14.4426 6.03968 14.6232 6.21543C14.8037 6.39118 14.9409 6.60647 15.0241 6.84431C15.1341 7.12691 15.1773 7.49208 15.1773 7.93965V11.1716C15.1773 11.2376 15.148 11.2707 15.0892 11.2707L13.8029 11.2821C13.7879 11.2842 13.7727 11.2828 13.7584 11.2781C13.744 11.2733 13.731 11.2652 13.7203 11.2546C13.7096 11.2439 13.7016 11.2308 13.6968 11.2165C13.692 11.2022 13.6907 11.1869 13.6928 11.172V8.10558C13.6892 7.90022 13.644 7.69771 13.5599 7.51033C13.5009 7.37209 13.4035 7.25366 13.2792 7.16907C13.1387 7.0831 12.9759 7.04094 12.8113 7.04797C12.6345 7.04545 12.4588 7.07723 12.2939 7.14154C12.1433 7.2017 12.0051 7.28944 11.8866 7.40023V11.1716C11.8866 11.2376 11.8573 11.2707 11.7986 11.2707H10.5015C10.488 11.2726 10.4743 11.2714 10.4614 11.2671C10.4485 11.2628 10.4368 11.2555 10.4272 11.2459C10.4175 11.2363 10.4103 11.2246 10.406 11.2117C10.4017 11.1988 10.4005 11.1851 10.4024 11.1716Z" fill="#9999FF"/>
</g>
<defs>
<clipPath id="clip0_820_45">
<rect width="16.4103" height="16" fill="white" transform="translate(0.83252)"/>
</clipPath>
</defs>
</svg>
