<svg width="17" height="16" viewBox="0 0 17 16" fill="none" xmlns="http://www.w3.org/2000/svg">
<g clip-path="url(#clip0_820_118)">
<path d="M13.4973 16H2.90308C1.30036 16 -0.00354004 14.6961 -0.00354004 13.0934V2.90662C-0.00354004 1.30391 1.30036 0 2.90308 0H13.4973C15.1 0 16.4039 1.30391 16.4039 2.90662V13.0934C16.4039 14.6961 15.1 16 13.4973 16Z" fill="#001E36"/>
<path fill-rule="evenodd" clip-rule="evenodd" d="M8.12455 8.82554L9.12964 10.6863C9.91742 10.4282 10.5422 9.83063 10.8546 9.05643L10.9361 8.83912H8.12455V8.82554ZM8.26037 6.91042L7.32319 5.21262C6.53541 5.51143 5.92421 6.12264 5.61182 6.89684L5.63898 6.91042H8.26037ZM7.32319 8.35016L6.37243 10.0072C6.87497 10.469 7.52693 10.7271 8.20604 10.7271C8.36903 10.7271 8.51844 10.7135 8.66784 10.6863L8.68142 10.6592L7.32319 8.35016ZM9.11606 7.44013L10.0668 5.79667C9.55069 5.34845 8.89874 5.10397 8.21963 5.10397C8.0838 5.10397 7.94798 5.11755 7.81216 5.13113L7.79857 5.17189L9.11606 7.44013ZM7.37752 7.3858H5.46241C5.42166 7.56237 5.40808 7.73894 5.40808 7.91551C5.40808 8.5403 5.6254 9.15151 6.0057 9.65406L6.04645 9.68122L7.37752 7.3858ZM9.03457 8.33656H10.9768C11.004 8.17357 11.0176 8.01059 11.0176 7.8476C11.0176 7.22281 10.8003 6.62519 10.4064 6.13623L10.3656 6.09547L9.03457 8.33656Z" fill="#31A8FF"/>
<path opacity="0.6" d="M9.7757 14.6961C9.61271 14.6961 9.44972 14.6553 9.3139 14.5738L1.7757 10.3769C1.55838 10.2547 1.39539 10.0509 1.34106 9.82003C1.27315 9.57555 1.3139 9.33107 1.43614 9.11375L5.83682 1.71137C6.01339 1.42614 6.32578 1.24957 6.66534 1.24957C6.82833 1.24957 6.99132 1.29032 7.12714 1.37181L14.6653 5.55517C14.8827 5.67742 15.0456 5.88115 15.1 6.11205C15.1679 6.35653 15.1271 6.60102 15.0049 6.81833L10.6042 14.2207C10.4412 14.5195 10.1153 14.6961 9.7757 14.6961ZM6.66534 1.92869C6.57027 1.92869 6.47519 1.98302 6.42086 2.06451L2.03376 9.46689C2.0066 9.52122 1.99302 9.57555 2.0066 9.64346C2.02018 9.71137 2.06093 9.75212 2.11526 9.77928L9.65346 13.9762C9.69421 14.0034 9.73495 14.0034 9.7757 14.0034C9.87078 14.0034 9.96585 13.9491 10.0066 13.8812L14.4073 6.47877C14.4344 6.42445 14.448 6.37012 14.4344 6.3022C14.4209 6.23429 14.3801 6.19355 14.3258 6.16638L6.78758 1.95585C6.74684 1.94227 6.70609 1.92869 6.66534 1.92869Z" fill="#31A8FF"/>
</g>
<defs>
<clipPath id="clip0_820_118">
<rect width="16.4075" height="16" fill="white" transform="translate(-0.00354004)"/>
</clipPath>
</defs>
</svg>
