<svg width="17" height="16" viewBox="0 0 17 16" fill="none" xmlns="http://www.w3.org/2000/svg">
<g clip-path="url(#clip0_820_162)">
<path d="M1.04297 0.482666H16.4316V15.5147H1.04297V0.482666Z" fill="#002616"/>
<path d="M1.25738 0.683761H16.1634V15.2465H1.25738V0.683761ZM0.503906 16H16.9142V0H0.503906V16Z" fill="#CCFFEA"/>
<path d="M8.29071 11.0608V10.1384C8.29071 10.0553 8.25585 10.0553 8.21563 10.0848C7.88849 10.1947 7.58549 10.2296 7.13502 10.2296C6.14289 10.2296 4.93358 9.59945 4.93358 7.46772C4.93358 5.74358 5.81576 4.74073 7.13502 4.74073C7.60695 4.74073 8.00916 4.82385 8.28266 4.95256C8.31752 4.96597 8.36579 4.96597 8.36579 4.86943V3.89608C8.36579 3.82905 8.35238 3.79419 8.29607 3.77274C8.08424 3.67084 7.67398 3.61453 7.12697 3.61453C5.02743 3.61453 3.65454 5.17243 3.65454 7.49186C3.65454 10.2001 5.21244 11.3477 6.97145 11.3477C7.45679 11.3477 7.92872 11.2995 8.22367 11.1761C8.27194 11.1654 8.29071 11.1305 8.29071 11.0608ZM10.4868 6.76788C10.6718 6.71425 10.8434 6.67939 11.0821 6.67939C11.9374 6.67939 12.4362 7.28003 12.4362 8.40354C12.4362 9.7791 11.6371 10.3261 10.8702 10.3261C10.7469 10.3261 10.5967 10.3127 10.4948 10.2778L10.4868 6.76788ZM11.2188 5.60682C10.4197 5.60682 9.73599 5.84547 9.28283 5.99027C9.26138 6.00367 9.1863 6.07339 9.1863 6.0868C9.20775 6.245 9.25333 6.51046 9.25333 6.6338V12.9914C9.25333 13.0451 9.3016 13.0612 9.36327 13.0612L10.4358 12.9593C10.4895 12.9459 10.4841 12.8976 10.4841 12.8574V11.3611C10.586 11.3745 10.7174 11.3611 10.8059 11.3611C12.2565 11.3611 13.6777 10.3556 13.6777 8.31773C13.6857 6.76788 12.8196 5.60682 11.2188 5.60682Z" fill="#CCFFEA"/>
</g>
<defs>
<clipPath id="clip0_820_162">
<rect width="16.4103" height="16" fill="white" transform="translate(0.503906)"/>
</clipPath>
</defs>
</svg>
