<svg width="18" height="16" viewBox="0 0 18 16" fill="none" xmlns="http://www.w3.org/2000/svg">
<g clip-path="url(#clip0_820_16)">
<path d="M14.465 0H3.86668C2.26175 0 0.960693 1.30105 0.960693 2.90598V13.094C0.960693 14.6989 2.26175 16 3.86668 16H14.465C16.0699 16 17.371 14.6989 17.371 13.094V2.90598C17.371 1.30105 16.0699 0 14.465 0Z" fill="#330000"/>
<path d="M8.91284 9.60194H6.36987L5.85248 11.2092C5.84542 11.2385 5.82837 11.2644 5.80426 11.2825C5.78014 11.3006 5.75047 11.3097 5.72036 11.3083H4.43237C4.35892 11.3083 4.33323 11.2679 4.35531 11.1872L6.557 4.84625C6.57904 4.78021 6.60106 4.70498 6.62308 4.62057C6.65187 4.47369 6.66662 4.32441 6.66711 4.17474C6.66562 4.16427 6.66658 4.1536 6.66992 4.14357C6.67327 4.13354 6.6789 4.12442 6.68638 4.11694C6.69385 4.10947 6.70297 4.10383 6.713 4.10049C6.72303 4.09714 6.7337 4.09617 6.74417 4.09767H8.4945C8.54578 4.09767 8.57514 4.11602 8.58258 4.15272L11.0815 11.1982C11.1035 11.2716 11.0815 11.3083 11.0155 11.3083H9.58435C9.55977 11.311 9.53504 11.3047 9.51478 11.2905C9.49452 11.2763 9.48012 11.2552 9.47427 11.2312L8.91284 9.60194ZM6.76617 8.21487H8.50552C8.46149 8.06815 8.41011 7.90302 8.35141 7.71948C8.29258 7.53612 8.2302 7.3398 8.16428 7.13052C8.0982 6.92137 8.03214 6.7122 7.96609 6.50303C7.90005 6.29388 7.83951 6.09206 7.78447 5.89756C7.72941 5.7032 7.67988 5.52523 7.63586 5.36366H7.62485C7.56287 5.66097 7.48572 5.95491 7.39368 6.24433C7.29081 6.57459 7.18622 6.91219 7.07991 7.25712C6.97344 7.60217 6.86886 7.92142 6.76617 8.21487Z" fill="#FF9A00"/>
<path d="M12.5675 5.26458C12.4552 5.26909 12.3433 5.24985 12.2389 5.20811C12.1346 5.16638 12.0402 5.10309 11.962 5.02239C11.8841 4.93819 11.8235 4.83941 11.7838 4.73172C11.7441 4.62404 11.7261 4.50957 11.7308 4.3949C11.7268 4.28137 11.7468 4.16827 11.7895 4.06299C11.8322 3.95771 11.8966 3.86262 11.9785 3.78393C12.0597 3.70605 12.1554 3.64503 12.2603 3.6044C12.3652 3.56378 12.4771 3.54435 12.5895 3.54725C12.8537 3.54725 13.0611 3.62614 13.2115 3.78393C13.2874 3.86593 13.3465 3.9621 13.3852 4.06694C13.4239 4.17178 13.4416 4.28323 13.4372 4.3949C13.4418 4.51002 13.4232 4.62488 13.3825 4.73268C13.3419 4.84047 13.28 4.93899 13.2005 5.02239C13.1174 5.10428 13.0183 5.16807 12.9094 5.20975C12.8004 5.25143 12.684 5.2701 12.5675 5.26458ZM11.8079 11.1982V5.93609C11.8079 5.87005 11.8371 5.83701 11.896 5.83701H13.25C13.3087 5.83701 13.3381 5.87004 13.3381 5.93609V11.1982C13.3381 11.2716 13.3088 11.3083 13.25 11.3083H11.907C11.8409 11.3083 11.8079 11.2716 11.8079 11.1982Z" fill="#FF9A00"/>
</g>
<defs>
<clipPath id="clip0_820_16">
<rect width="16.4103" height="16" fill="white" transform="translate(0.960693)"/>
</clipPath>
</defs>
</svg>
