<svg width="18" height="16" viewBox="0 0 18 16" fill="none" xmlns="http://www.w3.org/2000/svg">
<g clip-path="url(#clip0_820_73)">
<path d="M14.3911 0H3.79282C2.18789 0 0.886841 1.30105 0.886841 2.90598V13.094C0.886841 14.6989 2.18789 16 3.79282 16H14.3911C15.996 16 17.2971 14.6989 17.2971 13.094V2.90598C17.2971 1.30105 15.996 0 14.3911 0Z" fill="#00005B"/>
<path d="M7.33633 9.57264H4.79333L4.27594 11.183C4.26889 11.2123 4.25184 11.2382 4.22773 11.2563C4.20361 11.2744 4.17394 11.2835 4.14383 11.282H2.85583C2.78238 11.282 2.75669 11.2417 2.77877 11.161L4.9805 4.84623C5.0025 4.78019 5.02451 4.70497 5.04654 4.62055C5.08014 4.47754 5.09816 4.3313 5.10026 4.18441C5.09877 4.17394 5.09974 4.16327 5.10308 4.15324C5.10643 4.14321 5.11206 4.1341 5.11954 4.12662C5.12701 4.11915 5.13612 4.11351 5.14615 4.11016C5.15618 4.10682 5.16685 4.10585 5.17732 4.10734H6.92769C6.97893 4.10734 7.00829 4.12569 7.01576 4.16239L9.505 11.172C9.527 11.2454 9.50499 11.2821 9.43896 11.282H8.00784C7.98326 11.2848 7.95853 11.2785 7.93827 11.2643C7.91801 11.2501 7.90361 11.229 7.89776 11.205L7.33633 9.57264ZM5.18967 8.21485H6.92902C6.88498 8.06814 6.8336 7.903 6.77487 7.71946C6.71604 7.5361 6.65367 7.33978 6.58774 7.1305C6.5217 6.92135 6.45565 6.71219 6.38959 6.50301C6.32355 6.29386 6.263 6.09204 6.20793 5.89754C6.15291 5.70318 6.10338 5.52522 6.05933 5.36364H6.04831C5.98637 5.66096 5.90921 5.95491 5.81714 6.24432C5.71427 6.57458 5.60969 6.91217 5.5034 7.2571C5.39693 7.60216 5.29235 7.92141 5.18967 8.21485Z" fill="#9999FF"/>
<path d="M14.756 5.89473V10.0863C14.756 10.2698 14.7579 10.4331 14.7615 10.5762C14.7651 10.7193 14.7725 10.8441 14.7835 10.9505C14.7946 11.0569 14.8037 11.1207 14.8111 11.194C14.8183 11.2528 14.7927 11.282 14.734 11.282H13.5561C13.5288 11.2849 13.5012 11.279 13.4774 11.2652C13.4537 11.2513 13.435 11.2302 13.424 11.205C13.4082 11.1488 13.3953 11.0919 13.3855 11.0343C13.3751 10.9869 13.3696 10.9385 13.3689 10.8899C13.1474 11.0876 12.8839 11.2325 12.5983 11.3138C12.3507 11.3812 12.0954 11.4164 11.8388 11.4183C11.5864 11.4214 11.3352 11.3823 11.0957 11.3027C10.8738 11.227 10.6736 11.0986 10.5122 10.9285C10.3371 10.7391 10.2055 10.5136 10.127 10.2679C10.0282 9.95289 9.98167 9.62378 9.98934 9.29369V5.90573C9.98763 5.89376 9.98872 5.88156 9.99254 5.87009C9.99636 5.85863 10.0028 5.84821 10.0113 5.83966C10.0199 5.83111 10.0303 5.82467 10.0418 5.82085C10.0533 5.81703 10.0655 5.81594 10.0774 5.81765H11.3857C11.3976 5.81595 11.4098 5.81706 11.4213 5.82088C11.4327 5.82471 11.4432 5.83115 11.4517 5.83969C11.4602 5.84823 11.4667 5.85865 11.4705 5.87011C11.4743 5.88157 11.4754 5.89376 11.4737 5.90573V9.11754C11.4737 9.41856 11.5398 9.65524 11.6719 9.82759C11.804 10.0001 12.07 10.0863 12.3782 10.0863C12.5361 10.0883 12.693 10.0602 12.8405 10.0037C12.995 9.94926 13.141 9.87329 13.2743 9.77806V5.89473C13.2743 5.84346 13.3073 5.81765 13.3734 5.81765H14.679C14.6894 5.81618 14.7001 5.81716 14.7101 5.82051C14.7201 5.82386 14.7293 5.8295 14.7367 5.83697C14.7442 5.84445 14.7498 5.85355 14.7532 5.86358C14.7565 5.8736 14.7575 5.88426 14.756 5.89473Z" fill="#9999FF"/>
</g>
<defs>
<clipPath id="clip0_820_73">
<rect width="16.4103" height="16" fill="white" transform="translate(0.886841)"/>
</clipPath>
</defs>
</svg>
