<svg width="17" height="16" viewBox="0 0 17 16" fill="none" xmlns="http://www.w3.org/2000/svg">
<g clip-path="url(#clip0_820_8)">
<path d="M13.6444 0H3.04612C1.44119 0 0.140137 1.30105 0.140137 2.90598V13.094C0.140137 14.6989 1.44119 16 3.04612 16H13.6444C15.2493 16 16.5504 14.6989 16.5504 13.094V2.90598C16.5504 1.30105 15.2493 0 13.6444 0Z" fill="#001E36"/>
<path d="M3.83533 11.2202V4.18572C3.83533 4.13445 3.85736 4.10866 3.9014 4.10866C4.01869 4.10866 4.12578 4.10694 4.28731 4.10315C4.44866 4.09954 4.62296 4.09588 4.81021 4.09215C4.99738 4.08853 5.19554 4.08485 5.40469 4.08113C5.61383 4.07753 5.82115 4.07569 6.02666 4.07562C6.58432 4.07562 7.05401 4.14535 7.43574 4.28479C7.78008 4.40127 8.09412 4.59307 8.35498 4.84622C8.57611 5.06565 8.74699 5.33045 8.85585 5.62233C8.95884 5.90639 9.01102 6.20636 9.01 6.50852C9.01 7.09575 8.87422 7.58013 8.60268 7.96164C8.32933 8.34473 7.94512 8.63481 7.50182 8.79279C7.03944 8.96532 6.52566 9.02383 5.96062 9.02383C5.7991 9.02383 5.68534 9.02199 5.61934 9.01832C5.5533 9.0147 5.45423 9.01286 5.32213 9.01281V11.2092C5.32405 11.2226 5.32281 11.2364 5.31851 11.2493C5.31421 11.2621 5.30697 11.2739 5.29735 11.2835C5.28774 11.2931 5.27602 11.3003 5.26312 11.3046C5.25022 11.3089 5.2365 11.3102 5.22304 11.3083H3.91238C3.86097 11.3082 3.83533 11.279 3.83533 11.2202ZM5.32213 5.42968V7.72403C5.41741 7.73143 5.50548 7.73509 5.58632 7.73503H5.9496C6.2169 7.73415 6.48244 7.69176 6.73673 7.60938C6.95482 7.5446 7.1497 7.4185 7.29816 7.2461C7.44125 7.07736 7.51281 6.84251 7.51283 6.54155C7.51864 6.32861 7.46323 6.11847 7.35318 5.93607C7.23749 5.7597 7.07029 5.62325 6.87431 5.54528C6.61842 5.44581 6.34509 5.39901 6.07069 5.40767C5.89454 5.40767 5.73859 5.4095 5.60284 5.41317C5.46696 5.41695 5.37339 5.42246 5.32213 5.42968Z" fill="#31A8FF"/>
<path d="M13.2664 7.30688C13.0595 7.20058 12.8391 7.12281 12.6114 7.07569C12.3604 7.01811 12.1038 6.98857 11.8463 6.98762C11.707 6.98384 11.5679 7.00054 11.4334 7.03717C11.3479 7.05622 11.2718 7.10497 11.2188 7.17477C11.1829 7.2306 11.1638 7.29555 11.1637 7.36192C11.1658 7.4263 11.189 7.48822 11.2298 7.53805C11.2941 7.61327 11.3727 7.675 11.461 7.71969C11.6179 7.80422 11.7796 7.87957 11.9453 7.94537C12.3148 8.06904 12.6678 8.23724 12.9966 8.44625C13.2206 8.58763 13.406 8.78245 13.5361 9.01319C13.6454 9.23169 13.7002 9.47345 13.6957 9.71775C13.7023 10.0403 13.6101 10.3572 13.4315 10.626C13.2403 10.8987 12.9747 11.1108 12.6664 11.2369C12.3324 11.3837 11.9195 11.457 11.4279 11.4571C11.1156 11.4603 10.8039 11.4307 10.4977 11.369C10.2565 11.3248 10.0217 11.2508 9.79867 11.1489C9.7746 11.1364 9.75457 11.1174 9.74092 11.094C9.72727 11.0706 9.72057 11.0438 9.72161 11.0167V9.82783C9.72028 9.81619 9.72214 9.80441 9.727 9.79374C9.73185 9.78308 9.7395 9.77393 9.74915 9.76728C9.7586 9.76194 9.76946 9.7596 9.78028 9.76058C9.79109 9.76157 9.80135 9.76583 9.80968 9.77279C10.0731 9.92809 10.3591 10.0414 10.6573 10.1085C10.9203 10.1744 11.1899 10.2095 11.461 10.2131C11.7178 10.2131 11.9067 10.1801 12.0279 10.1141C12.0826 10.089 12.1289 10.0486 12.1611 9.99785C12.1934 9.94705 12.2102 9.88799 12.2096 9.82783C12.2096 9.73254 12.1545 9.64081 12.0444 9.55262C11.9344 9.46455 11.7105 9.35813 11.3729 9.23336C11.0272 9.11305 10.6995 8.94641 10.3986 8.73799C10.1834 8.58833 10.0063 8.3904 9.88123 8.16003C9.77297 7.9431 9.71824 7.70341 9.72161 7.46099C9.721 7.16972 9.80101 6.88396 9.95278 6.63535C10.1258 6.36159 10.3743 6.14368 10.6684 6.00786C10.9912 5.84652 11.3949 5.76579 11.8793 5.76568C12.163 5.7634 12.4465 5.78364 12.727 5.82622C12.9301 5.85199 13.1287 5.9057 13.3171 5.98585C13.332 5.99013 13.3458 5.99784 13.3572 6.00834C13.3687 6.01885 13.3776 6.03188 13.3831 6.04639C13.3906 6.07328 13.3943 6.10106 13.3941 6.12896V7.24082C13.3949 7.25376 13.3923 7.26667 13.3865 7.27826C13.3807 7.28985 13.3719 7.29972 13.3611 7.30688C13.3464 7.3142 13.3302 7.31801 13.3138 7.31801C13.2973 7.31801 13.2811 7.3142 13.2664 7.30688Z" fill="#31A8FF"/>
</g>
<defs>
<clipPath id="clip0_820_8">
<rect width="16.4103" height="16" fill="white" transform="translate(0.140137)"/>
</clipPath>
</defs>
</svg>
