<svg width="18" height="16" viewBox="0 0 18 16" fill="none" xmlns="http://www.w3.org/2000/svg">
<g clip-path="url(#clip0_820_33)">
<path d="M14.1061 0H3.50779C1.90286 0 0.601807 1.30105 0.601807 2.90598V13.094C0.601807 14.6989 1.90286 16 3.50779 16H14.1061C15.711 16 17.0121 14.6989 17.0121 13.094V2.90598C17.0121 1.30105 15.711 0 14.1061 0Z" fill="#00005B"/>
<path d="M7.19424 9.57264H4.65124L4.13385 11.183C4.1268 11.2123 4.10975 11.2382 4.08564 11.2563C4.06152 11.2744 4.03185 11.2835 4.00174 11.282H2.71374C2.64029 11.282 2.6146 11.2417 2.63668 11.1609L4.83841 4.84623C4.86041 4.78019 4.88244 4.71563 4.90444 4.63116C4.93328 4.48429 4.94802 4.335 4.94848 4.18533C4.94699 4.17486 4.94795 4.16419 4.9513 4.15416C4.95464 4.14413 4.96028 4.13502 4.96775 4.12754C4.97523 4.12006 4.98434 4.11443 4.99437 4.11108C5.0044 4.10773 5.01507 4.10676 5.02554 4.10825H6.77591C6.82716 4.10825 6.85651 4.12661 6.86398 4.16331L9.36291 11.1719C9.38491 11.2454 9.3629 11.2821 9.29688 11.282H7.86575C7.84117 11.2848 7.81644 11.2785 7.79618 11.2643C7.77592 11.2501 7.76152 11.229 7.75568 11.205L7.19424 9.57264ZM5.04757 8.21485H6.78692C6.74289 8.06813 6.6915 7.903 6.63278 7.71946C6.57395 7.5361 6.51157 7.33978 6.44565 7.1305C6.37961 6.92135 6.31356 6.71219 6.24749 6.50301C6.18145 6.29386 6.1209 6.09204 6.06583 5.89754C6.01081 5.70318 5.96128 5.52521 5.91723 5.36364H5.90621C5.84427 5.66096 5.76711 5.9549 5.67504 6.24431C5.57218 6.57458 5.4676 6.91217 5.36131 7.2571C5.25484 7.60215 5.15026 7.9214 5.04757 8.21485Z" fill="#9999FF"/>
<path d="M13.4142 8.94588H11.2456C11.2721 9.16045 11.3434 9.36708 11.4547 9.55241C11.5778 9.73593 11.7519 9.87943 11.9556 9.96522C12.2316 10.0847 12.5301 10.1432 12.8308 10.1368C13.0693 10.1322 13.307 10.1061 13.5408 10.0588C13.75 10.0306 13.955 9.97713 14.1513 9.89966C14.1879 9.87043 14.2064 9.88866 14.2064 9.95472V11.0005C14.2082 11.029 14.2025 11.0575 14.1898 11.0831C14.1772 11.1031 14.1603 11.12 14.1403 11.1326C13.9225 11.2291 13.6933 11.2974 13.4583 11.3358C13.1389 11.3958 12.8144 11.4234 12.4895 11.4184C11.9683 11.4184 11.5316 11.3376 11.1795 11.1762C10.8466 11.0295 10.5526 10.8071 10.3208 10.5267C10.1044 10.2624 9.9434 9.95729 9.84745 9.62947C9.75245 9.30591 9.70426 8.97041 9.70436 8.63319C9.70334 8.26498 9.76094 7.89896 9.875 7.54886C9.98483 7.20734 10.1585 6.8898 10.3869 6.61312C10.6121 6.33968 10.8938 6.11812 11.2125 5.96362C11.5354 5.80588 11.9171 5.7493 12.3574 5.7493C12.7226 5.74007 13.0853 5.81148 13.4197 5.95845C13.7009 6.07839 13.9485 6.26536 14.1408 6.50303C14.3211 6.73577 14.459 6.9985 14.5481 7.27914C14.6348 7.54959 14.6794 7.83178 14.6802 8.1158C14.6802 8.2773 14.6747 8.42408 14.6637 8.55613C14.6527 8.68823 14.6435 8.78364 14.6362 8.84236C14.6333 8.86663 14.6217 8.889 14.6034 8.90524C14.5851 8.92147 14.5615 8.93044 14.5371 8.93043C14.4931 8.93043 14.4178 8.93593 14.3114 8.94694C14.205 8.95794 14.0729 8.96528 13.9151 8.96896C13.7572 8.97273 13.5904 8.94588 13.4142 8.94588ZM11.2456 7.94303H12.6877C12.8638 7.94303 12.9941 7.94119 13.0785 7.93752C13.1349 7.93188 13.1895 7.91381 13.2381 7.88461V7.81855C13.2359 7.73246 13.2211 7.64715 13.1941 7.56536C13.1347 7.37755 13.0153 7.21444 12.8542 7.10108C12.6931 6.98771 12.4992 6.93038 12.3024 6.93788C12.1171 6.92668 11.9326 6.96964 11.7713 7.06151C11.6101 7.15338 11.479 7.2902 11.3942 7.45527C11.3188 7.60882 11.2686 7.77352 11.2456 7.94303Z" fill="#9999FF"/>
</g>
<defs>
<clipPath id="clip0_820_33">
<rect width="16.4103" height="16" fill="white" transform="translate(0.601807)"/>
</clipPath>
</defs>
</svg>
