<svg width="17" height="16" viewBox="0 0 17 16" fill="none" xmlns="http://www.w3.org/2000/svg">
<g clip-path="url(#clip0_820_37)">
<path d="M13.5162 0H2.91795C1.31302 0 0.0119629 1.30105 0.0119629 2.90598V13.094C0.0119629 14.6989 1.31302 16 2.91795 16H13.5162C15.1212 16 16.4222 14.6989 16.4222 13.094V2.90598C16.4222 1.30105 15.1212 0 13.5162 0Z" fill="#001E36"/>
<path d="M8.63009 11.3083H4.29272C4.2193 11.3083 4.18261 11.2679 4.18264 11.1872V4.19673C4.18072 4.18327 4.18196 4.16955 4.18626 4.15665C4.19056 4.14375 4.1978 4.13203 4.20742 4.12242C4.21703 4.1128 4.22875 4.10556 4.24165 4.10126C4.25455 4.09696 4.26827 4.09573 4.28173 4.09765H5.62478C5.63525 4.09618 5.64591 4.09716 5.65593 4.10051C5.66595 4.10386 5.67506 4.1095 5.68253 4.11697C5.69001 4.12444 5.69564 4.13355 5.69899 4.14357C5.70234 4.1536 5.70332 4.16426 5.70184 4.17473V9.92119H8.86129C8.92733 9.92119 8.95302 9.95421 8.93835 10.0203L8.7402 11.2092C8.73973 11.2254 8.73552 11.2413 8.72788 11.2556C8.72024 11.27 8.70938 11.2823 8.69617 11.2917C8.67574 11.3024 8.6531 11.308 8.63009 11.3083Z" fill="#31A8FF"/>
<path d="M9.71982 5.837H10.9197C10.9523 5.83728 10.9839 5.84819 11.0097 5.86805C11.0356 5.88792 11.0542 5.91567 11.0628 5.94709C11.089 5.99532 11.1076 6.0473 11.1179 6.1012C11.1333 6.17202 11.1443 6.24372 11.1509 6.31588C11.1582 6.39294 11.1618 6.4755 11.1619 6.56356C11.3677 6.32396 11.6159 6.12431 11.894 5.97462C12.2064 5.8057 12.5572 5.72037 12.9123 5.72692C12.9258 5.725 12.9395 5.72624 12.9524 5.73054C12.9653 5.73484 12.977 5.74208 12.9866 5.7517C12.9962 5.76131 13.0035 5.77303 13.0077 5.78593C13.012 5.79882 13.0133 5.81254 13.0114 5.826V7.15803C13.0114 7.20947 12.9747 7.23515 12.9013 7.23509C12.4578 7.20766 12.0143 7.28694 11.6078 7.46628C11.4696 7.52603 11.3444 7.61202 11.239 7.71947V11.2092C11.239 11.2752 11.2096 11.3083 11.1509 11.3083H9.81888C9.80392 11.3104 9.78867 11.309 9.77434 11.3043C9.76 11.2995 9.74698 11.2914 9.73629 11.2808C9.72561 11.2701 9.71756 11.257 9.71279 11.2427C9.70802 11.2284 9.70665 11.2131 9.7088 11.1982V7.41123C9.7088 7.24988 9.70697 7.07924 9.70329 6.89933C9.69952 6.71958 9.69401 6.5416 9.68677 6.36541C9.6819 6.21417 9.6672 6.06341 9.64276 5.91407C9.64001 5.90342 9.64008 5.89222 9.64297 5.8816C9.64587 5.87098 9.65149 5.8613 9.65927 5.85352C9.66705 5.84573 9.67673 5.84011 9.68735 5.83722C9.69797 5.83432 9.70916 5.83424 9.71982 5.837Z" fill="#31A8FF"/>
</g>
<defs>
<clipPath id="clip0_820_37">
<rect width="16.4103" height="16" fill="white" transform="translate(0.0119629)"/>
</clipPath>
</defs>
</svg>
