<svg width="18" height="16" viewBox="0 0 18 16" fill="none" xmlns="http://www.w3.org/2000/svg">
<g clip-path="url(#clip0_820_147)">
<path d="M14.3671 0H3.76878C2.16385 0 0.862793 1.30105 0.862793 2.90598V13.094C0.862793 14.6989 2.16385 16 3.76878 16H14.3671C15.972 16 17.2731 14.6989 17.2731 13.094V2.90598C17.2731 1.30105 15.972 0 14.3671 0Z" fill="#012D2D"/>
<path d="M8.74315 9.9323V11.066C8.74767 11.0975 8.74178 11.1297 8.72635 11.1576C8.71092 11.1855 8.68681 11.2076 8.65768 11.2205C8.44209 11.2953 8.21863 11.3451 7.99169 11.3689C7.70486 11.4028 7.41624 11.4192 7.12742 11.4181C6.71731 11.4202 6.30859 11.3703 5.91101 11.2697C5.53864 11.1764 5.18362 11.024 4.85939 10.8185C4.54681 10.6199 4.27124 10.3684 4.04503 10.0752C3.80966 9.76722 3.63071 9.41997 3.51648 9.04956C3.38439 8.62253 3.31957 8.17755 3.32434 7.73059C3.32434 6.98939 3.48594 6.33799 3.80913 5.7764C4.13209 5.21546 4.61096 4.76035 5.18759 4.46631C5.78018 4.15452 6.48833 3.99862 7.31203 3.99862C7.5971 3.996 7.88207 4.01061 8.16537 4.04238C8.36248 4.06388 8.55639 4.1084 8.74315 4.17503C8.76333 4.19007 8.77911 4.21025 8.78885 4.23346C8.79859 4.25666 8.80193 4.28206 8.79853 4.307V5.51794C8.79853 5.58631 8.77255 5.60614 8.72127 5.58631C8.51495 5.49179 8.29623 5.4271 8.07169 5.39418C7.80594 5.35246 7.53728 5.33211 7.26827 5.33332C6.77642 5.33332 6.35454 5.43247 6.00263 5.63076C5.65823 5.82089 5.37542 6.1056 5.18759 6.45127C4.98881 6.83313 4.89024 7.2592 4.90109 7.68956C4.89448 7.99626 4.94074 8.30181 5.03785 8.59281C5.1228 8.83769 5.25137 9.06517 5.41733 9.26426C5.57057 9.44819 5.75736 9.60134 5.96776 9.71554C6.17445 9.82612 6.39464 9.90933 6.6228 9.96307C6.8444 10.0172 7.07162 10.045 7.29973 10.0458C7.5787 10.0458 7.82645 10.0349 8.04298 10.013C8.25115 9.99236 8.45626 9.94785 8.65426 9.88033C8.68297 9.85845 8.70554 9.85298 8.72263 9.86392C8.73973 9.87486 8.74315 9.89537 8.74315 9.9323Z" fill="#03F2C4"/>
<path d="M12.0765 5.72719C12.5606 5.72719 12.9752 5.80058 13.3202 5.94737C13.6473 6.08138 13.9406 6.28617 14.179 6.54702C14.4035 6.79541 14.5773 7.0853 14.6905 7.40036C14.8056 7.7217 14.8634 8.06074 14.8614 8.40207C14.8724 8.85833 14.7762 9.31081 14.5804 9.72309C14.4005 10.091 14.1399 10.4135 13.818 10.6667C13.4943 10.9206 13.1267 11.1129 12.7336 11.2342C12.3325 11.3581 11.915 11.4204 11.4953 11.4188C11.4658 11.4186 11.4364 11.4168 11.4071 11.4133C11.3708 11.4133 11.3305 11.4079 11.286 11.4079V13.2786C11.2874 13.291 11.2861 13.3035 11.2823 13.3154C11.2786 13.3272 11.2724 13.3382 11.2641 13.3475C11.2559 13.3568 11.2458 13.3643 11.2345 13.3696C11.2232 13.3748 11.211 13.3776 11.1985 13.3778C11.0887 13.3851 10.9583 13.396 10.8074 13.4106C10.657 13.4257 10.512 13.44 10.3725 13.4551C10.2331 13.4701 10.112 13.4804 10.0095 13.4879C9.94654 13.4903 9.88391 13.4976 9.82212 13.5098C9.77836 13.5098 9.75374 13.4804 9.75374 13.4222V6.96002C9.75374 6.90873 9.75374 6.83489 9.74827 6.73984C9.7428 6.6448 9.74143 6.55113 9.73733 6.45882C9.73548 6.38702 9.73 6.31536 9.72092 6.24412C9.71822 6.2292 9.72132 6.21382 9.72958 6.20112C9.73784 6.18841 9.75064 6.17933 9.76536 6.17574C9.9477 6.10964 10.1585 6.04355 10.3978 5.97745C10.6365 5.90907 10.897 5.85301 11.1794 5.80104C11.4756 5.74963 11.7758 5.72492 12.0765 5.72719ZM11.9438 7.02634C11.8295 7.02559 11.7152 7.03313 11.6019 7.0489C11.4942 7.06518 11.3876 7.08802 11.2826 7.11728V10.1258C11.3271 10.1327 11.3838 10.1381 11.4536 10.1422C11.5233 10.1463 11.5801 10.1477 11.6238 10.1477C11.8924 10.1462 12.1578 10.0901 12.404 9.98292C12.6609 9.87356 12.8805 9.69211 13.0365 9.46053C13.2056 9.21757 13.2902 8.89848 13.2902 8.50326C13.2902 8.03329 13.1725 7.66999 12.9373 7.41335C12.7021 7.15671 12.3719 7.02748 11.9466 7.02566L11.9438 7.02634Z" fill="#03F2C4"/>
</g>
<defs>
<clipPath id="clip0_820_147">
<rect width="16.4103" height="16" fill="white" transform="translate(0.862793)"/>
</clipPath>
</defs>
</svg>
