<svg width="18" height="16" viewBox="0 0 18 16" fill="none" xmlns="http://www.w3.org/2000/svg">
<g clip-path="url(#clip0_820_104)">
<path d="M16.4964 0.685883H1.45154V15.3205H16.4964V0.685883Z" fill="#000F34"/>
<path fill-rule="evenodd" clip-rule="evenodd" d="M0.765625 0V16H17.1759V0H0.765625ZM1.45152 0.685897H16.4964V15.3205H1.45152V0.685897Z" fill="#CADBFE"/>
<path fill-rule="evenodd" clip-rule="evenodd" d="M9.44516 10.9679C9.44516 11.0385 9.41952 11.0705 9.36824 11.0897C9.07337 11.2115 8.60542 11.2564 8.12465 11.2564C6.36824 11.2564 4.81055 10.109 4.81055 7.40384C4.81055 5.08333 6.18234 3.52563 8.2785 3.52563C8.82978 3.52563 9.23362 3.58333 9.44516 3.68589C9.50285 3.71153 9.51568 3.74358 9.51568 3.80769V4.77563C9.51568 4.86538 9.4708 4.86538 9.43875 4.85256C9.16952 4.71794 8.76568 4.64102 8.29132 4.64102C6.9708 4.64102 6.0926 5.64102 6.0926 7.36538C6.0926 9.49358 7.29773 10.1282 8.29132 10.1282C8.74003 10.1282 9.04132 10.0961 9.36824 9.98076C9.41311 9.95512 9.44516 9.95512 9.44516 10.0385V10.9679ZM9.88106 6.8782C9.83619 6.8782 9.83619 6.85256 9.83619 6.80128V5.87179C9.83619 5.8141 9.84901 5.80128 9.89388 5.80128H10.5221V5.45512C10.5221 5.03846 10.5926 4.67948 10.7464 4.3782C11.0285 3.80128 11.5221 3.54487 12.2016 3.54487C12.4067 3.54487 12.5413 3.55769 12.6567 3.60256C12.7144 3.6282 12.7272 3.64743 12.7272 3.70512V4.60897C12.7272 4.66666 12.7016 4.68589 12.6503 4.67948C12.5605 4.65384 12.4323 4.64743 12.3426 4.64743C11.9452 4.64743 11.7593 4.92948 11.7593 5.46794V5.8141H12.6567C12.7144 5.8141 12.7336 5.82692 12.7336 5.87179V6.8141C12.7336 6.87179 12.7208 6.88461 12.6631 6.89102H11.7593V11.0897C11.7593 11.1346 11.7464 11.1667 11.6823 11.1667H10.6118C10.5541 11.1667 10.5349 11.1346 10.5349 11.0897V6.88461H9.88106V6.8782Z" fill="#CADBFE"/>
</g>
<defs>
<clipPath id="clip0_820_104">
<rect width="16.4103" height="16" fill="white" transform="translate(0.765625)"/>
</clipPath>
</defs>
</svg>
