<svg width="18" height="16" viewBox="0 0 18 16" fill="none" xmlns="http://www.w3.org/2000/svg">
<g clip-path="url(#clip0_820_81)">
<path d="M14.2117 0H3.61338C2.00845 0 0.707397 1.30105 0.707397 2.90598V13.094C0.707397 14.6989 2.00845 16 3.61338 16H14.2117C15.8166 16 17.1177 14.6989 17.1177 13.094V2.90598C17.1177 1.30105 15.8166 0 14.2117 0Z" fill="#1E3101"/>
<path d="M8.09252 9.57264H5.54955L5.03216 11.183C5.02511 11.2123 5.00806 11.2382 4.98394 11.2563C4.95983 11.2744 4.93016 11.2835 4.90005 11.282H3.61206C3.53861 11.282 3.51292 11.2417 3.535 11.161L5.73669 4.84623C5.75872 4.78019 5.78072 4.71563 5.80276 4.63116C5.83156 4.48428 5.8463 4.335 5.84679 4.18533C5.8453 4.17486 5.84626 4.16419 5.84961 4.15416C5.85295 4.14413 5.85859 4.13501 5.86606 4.12753C5.87354 4.12006 5.88265 4.11442 5.89268 4.11108C5.90271 4.10773 5.91339 4.10676 5.92385 4.10826H7.67419C7.72547 4.10826 7.75483 4.12661 7.76226 4.16331L10.2612 11.172C10.2832 11.2454 10.2612 11.2821 10.1952 11.282H8.76403C8.73945 11.2848 8.71472 11.2784 8.69447 11.2643C8.67421 11.2501 8.65981 11.229 8.65395 11.205L8.09252 9.57264ZM5.94586 8.21485H7.68521C7.64117 8.06814 7.5898 7.903 7.53109 7.71946C7.47227 7.5361 7.40989 7.33978 7.34396 7.1305C7.27789 6.92135 7.21183 6.71219 7.14578 6.50302C7.07974 6.29386 7.0192 6.09204 6.96415 5.89755C6.9091 5.70318 6.85956 5.52522 6.81555 5.36364H6.80453C6.74255 5.66095 6.6654 5.9549 6.57336 6.24432C6.47049 6.57458 6.3659 6.91218 6.25959 7.2571C6.15312 7.60216 6.04854 7.92141 5.94586 8.21485Z" fill="#99E83F"/>
<path d="M10.9878 5.81196H12.1877C12.2203 5.81225 12.2519 5.82315 12.2777 5.84302C12.3035 5.86289 12.3222 5.89063 12.3308 5.92206C12.3566 5.97924 12.3751 6.03943 12.3859 6.10121C12.4012 6.17203 12.4122 6.24372 12.4189 6.31589C12.4261 6.39294 12.4298 6.4755 12.4299 6.56356C12.6357 6.32396 12.8838 6.12432 13.1619 5.97462C13.4602 5.80583 13.7984 5.72028 14.1411 5.72693C14.1545 5.725 14.1683 5.72624 14.1812 5.73053C14.1941 5.73483 14.2058 5.74207 14.2154 5.75169C14.225 5.7613 14.2323 5.77302 14.2366 5.78592C14.2409 5.79882 14.2421 5.81254 14.2402 5.826V7.15804C14.2402 7.20947 14.2033 7.2351 14.1301 7.2351C13.9016 7.21933 13.672 7.23601 13.4482 7.28464C13.2512 7.32378 13.0592 7.3847 12.8757 7.46628C12.7178 7.53973 12.5504 7.62419 12.4624 7.71947V11.183C12.4624 11.249 12.433 11.2821 12.3743 11.282H11.0868C11.0719 11.2842 11.0566 11.2828 11.0423 11.2781C11.028 11.2733 11.0149 11.2652 11.0042 11.2545C10.9936 11.2439 10.9855 11.2308 10.9807 11.2165C10.976 11.2022 10.9746 11.1869 10.9767 11.172V7.41124C10.9767 7.24988 10.9749 7.07925 10.9713 6.89934C10.9675 6.71958 10.9619 6.54161 10.9547 6.36541C10.9497 6.20588 10.935 6.04679 10.9107 5.88904C10.9079 5.87838 10.908 5.86719 10.9109 5.85658C10.9138 5.84596 10.9194 5.83628 10.9272 5.8285C10.935 5.82072 10.9447 5.8151 10.9553 5.8122C10.9659 5.8093 10.9771 5.80922 10.9878 5.81196Z" fill="#99E83F"/>
</g>
<defs>
<clipPath id="clip0_820_81">
<rect width="16.4103" height="16" fill="white" transform="translate(0.707397)"/>
</clipPath>
</defs>
</svg>
