<svg width="18" height="16" viewBox="0 0 18 16" fill="none" xmlns="http://www.w3.org/2000/svg">
<g clip-path="url(#clip0_820_93)">
<mask id="mask0_820_93" style="mask-type:luminance" maskUnits="userSpaceOnUse" x="1" y="0" width="16" height="16">
<path d="M3.85787 0.587891C1.95702 0.587891 1.51941 1.72293 1.51941 3.62379L1.52625 12.8682C1.52625 14.7759 2.12112 15.4118 4.02197 15.4118H14.2237C16.1245 15.4118 16.7673 14.7759 16.7673 12.8682V3.27507C16.7673 1.36738 16.0562 0.587891 14.1553 0.587891H3.85787Z" fill="white"/>
</mask>
<g mask="url(#mask0_820_93)">
<path d="M16.7126 0.642609H1.58093V15.3571H16.7126V0.642609Z" fill="url(#paint0_radial_820_93)"/>
</g>
<path fill-rule="evenodd" clip-rule="evenodd" d="M0.938232 2.94701V13.0803C0.938232 14.694 2.18268 16 3.80319 16H14.422C16.0425 16 17.3553 14.6872 17.3553 13.0735V2.9265C17.3485 1.31282 16.0357 0 14.4152 0H3.80319C2.18268 0 0.938232 1.31282 0.938232 2.9265V2.94701ZM14.2032 0.690598C15.5092 0.690598 16.6579 1.7641 16.6579 3.07009V12.8C16.6579 14.106 15.5981 15.3094 14.2921 15.3094H3.99464C2.68866 15.3094 1.62883 14.2017 1.62883 12.8957V3.20684C1.62883 1.90769 2.68866 0.690598 3.98781 0.690598H14.2032Z" fill="#AAA0FF"/>
<path d="M10.2169 3.78821L5.41006 8.59505L4.80151 11.0497L7.24938 10.4344L12.0562 5.62752L10.2169 3.78821Z" fill="#AAA0FF"/>
<path d="M10.5587 12.2805C10.5109 12.2805 10.463 12.2805 10.4083 12.2736C10.1348 12.2394 9.93652 12.0412 9.8408 11.7266C9.83396 11.6993 9.82712 11.6788 9.82028 11.6514C9.16387 12.0001 8.36387 12.2463 7.55704 12.2463H5.07498C4.99977 12.2463 4.93823 12.1847 4.93823 12.1095C4.93823 12.0343 4.99977 11.9728 5.07498 11.9728H7.55704C8.37755 11.9728 9.16387 11.713 9.7861 11.3711C9.75191 10.7557 9.99122 10.0036 10.3673 9.68218C10.5998 9.48389 10.8664 9.44971 11.1331 9.57278C11.3519 9.67535 11.4408 9.88047 11.3861 10.1335C11.2904 10.5506 10.7912 11.0839 10.0801 11.5147C10.087 11.5625 10.1006 11.6104 10.1143 11.6514C10.1827 11.8702 10.2921 11.9865 10.4562 12.007C11.0647 12.0822 11.6049 11.5078 11.9263 11.1728C12.1246 10.9608 12.2134 10.8651 12.3297 10.8856C12.3844 10.8924 12.4254 10.9266 12.4528 10.9745C12.5075 11.0771 12.4528 11.1933 12.357 11.3984C12.2818 11.5625 12.1382 11.8702 12.1998 11.9659C12.2203 12.0001 12.2818 12.0138 12.3707 12.0138C12.5553 12.0138 13.116 11.5967 13.1639 11.4531C13.1844 11.3779 13.2596 11.3437 13.3348 11.3642C13.41 11.3847 13.4442 11.46 13.4237 11.5352C13.3417 11.8087 12.6716 12.2873 12.3707 12.2873C12.1793 12.2873 12.0425 12.2258 11.9673 12.1095C11.8579 11.9318 11.9263 11.6924 12.022 11.4668C11.6801 11.8087 11.1741 12.2805 10.5587 12.2805ZM10.8186 9.76424C10.7228 9.76424 10.6271 9.80526 10.5382 9.88047C10.2579 10.1198 10.0596 10.701 10.0459 11.2001C10.6408 10.8172 11.0374 10.3728 11.1058 10.0651C11.1399 9.90099 11.0716 9.84629 11.0032 9.8121C10.9417 9.78475 10.8801 9.76424 10.8186 9.76424Z" fill="#DDD8FF"/>
</g>
<defs>
<radialGradient id="paint0_radial_820_93" cx="0" cy="0" r="1" gradientUnits="userSpaceOnUse" gradientTransform="translate(7.61041 5.54382) scale(9.86414)">
<stop stop-color="#28254A" stop-opacity="0.8833"/>
<stop offset="0.9833" stop-color="#03042B"/>
</radialGradient>
<clipPath id="clip0_820_93">
<rect width="16.4171" height="16" fill="white" transform="translate(0.938232)"/>
</clipPath>
</defs>
</svg>
