<svg width="17" height="16" viewBox="0 0 17 16" fill="none" xmlns="http://www.w3.org/2000/svg">
<g clip-path="url(#clip0_820_242)">
<path d="M13.5187 0H2.92039C1.31546 0 0.0144043 1.30105 0.0144043 2.90598V13.094C0.0144043 14.6989 1.31546 16 2.92039 16H13.5187C15.1236 16 16.4247 14.6989 16.4247 13.094V2.90598C16.4247 1.30105 15.1236 0 13.5187 0Z" fill="#000B1D"/>
<path d="M8.07711 9.93219V11.0661C8.08154 11.0979 8.0753 11.1303 8.05937 11.1581C8.04344 11.186 8.01872 11.2078 7.98907 11.2202C7.77353 11.2952 7.55004 11.3451 7.32304 11.3688C7.0398 11.4029 6.75471 11.4195 6.46943 11.4183C6.0593 11.4203 5.65058 11.3703 5.25298 11.2697C4.88071 11.1763 4.52578 11.024 4.20167 10.8184C3.88926 10.6196 3.61365 10.3682 3.38706 10.0753C3.15215 9.76773 2.97327 9.42117 2.85865 9.05151C2.73158 8.61968 2.67171 8.17087 2.68114 7.72083C2.68114 6.97964 2.83285 6.3379 3.15586 5.77645C3.47804 5.21576 3.95608 4.76066 4.53193 4.46644C5.12641 4.15459 5.85464 3.97849 6.67668 3.97849C6.9617 3.97568 7.24663 3.99039 7.52985 4.02252C7.72183 4.04649 7.91011 4.09408 8.09043 4.1642C8.1105 4.17935 8.12618 4.19957 8.13586 4.22278C8.14554 4.246 8.14886 4.27137 8.14549 4.29629L8.14274 5.51776C8.14274 5.58381 8.11693 5.60583 8.06568 5.58381C7.85947 5.48896 7.64076 5.42408 7.41618 5.39116C7.15034 5.3496 6.88161 5.32936 6.61256 5.33061C6.12077 5.33061 5.69877 5.42969 5.34656 5.62785C5.00235 5.81792 4.71968 6.10249 4.53193 6.44798C4.33313 6.82988 4.23464 7.25604 4.2457 7.68644C4.2396 7.993 4.28615 8.29833 4.38332 8.58914C4.46821 8.83414 4.5969 9.06167 4.76313 9.26066C4.91621 9.44477 5.10302 9.59796 5.31355 9.71202C5.52016 9.82729 5.74076 9.91548 5.9699 9.97441C6.19156 10.0283 6.41879 10.056 6.64691 10.057C6.89148 10.0584 7.13597 10.0474 7.37942 10.0239C7.58765 9.99888 7.79225 9.94962 7.98906 9.87715C8.01828 9.85513 8.04029 9.84963 8.0551 9.86064C8.06383 9.8702 8.07033 9.88157 8.07413 9.89394C8.07794 9.90632 8.07895 9.91938 8.07711 9.93219Z" fill="white"/>
<path d="M11.2029 5.7493C11.7459 5.7493 12.1844 5.84837 12.5184 6.04652C12.8523 6.24467 13.0782 6.46855 13.2397 6.80602C13.4049 7.16089 13.4877 7.54852 13.4819 7.9399V10.0645C13.4819 10.2041 13.4837 10.3362 13.4874 10.4609C13.491 10.5858 13.4965 10.7142 13.5039 10.8462C13.5039 10.8756 13.4965 10.894 13.4819 10.9012C13.1517 11.0261 12.8798 11.1469 12.623 11.2202C12.3779 11.2912 12.1276 11.3427 11.8744 11.3743C11.6187 11.4044 11.3613 11.4191 11.1038 11.4184C10.7222 11.4237 10.343 11.3564 9.98642 11.2202C9.65723 11.0985 9.36758 10.8891 9.1488 10.6147C8.94327 10.3433 8.84053 9.99837 8.84058 9.57992C8.84058 9.18362 8.94883 8.85336 9.16533 8.58915C9.38171 8.32494 9.70571 8.12679 10.08 7.9947C10.495 7.85614 10.9305 7.78913 11.368 7.79655H11.7698C11.8525 7.79459 11.9353 7.79827 12.0175 7.80755V7.74149C12.0134 7.67583 12.0005 7.61103 11.979 7.54885C11.9497 7.45892 11.8986 7.37761 11.8304 7.31216C11.743 7.2181 11.6359 7.14466 11.5166 7.0972C11.3401 7.04379 11.156 7.01962 10.9717 7.02565C10.7055 7.02373 10.4399 7.04955 10.1791 7.10271C9.93691 7.15414 9.69204 7.29085 9.48664 7.37893C9.46525 7.38632 9.442 7.38632 9.4206 7.37893C9.4096 7.37497 9.4003 7.36733 9.39428 7.3573C9.38826 7.34727 9.3859 7.33547 9.38758 7.32389V6.1783C9.38577 6.15252 9.39228 6.12684 9.40615 6.10504C9.42002 6.08324 9.44053 6.06647 9.46464 6.0572C9.70683 5.94711 10.001 5.8869 10.3057 5.83186C10.6017 5.77759 10.9019 5.74996 11.2029 5.7493ZM11.9916 10.0994V8.99562C11.9035 8.98099 11.845 8.96999 11.7643 8.9626C11.6835 8.95537 11.5844 8.95169 11.4671 8.95158C11.0708 8.95158 10.8065 9.0104 10.6414 9.12771C10.4763 9.2452 10.3938 9.37454 10.3938 9.57992C10.3926 9.68366 10.4255 9.78492 10.4873 9.86822C10.5622 9.9852 10.6692 10.0781 10.7956 10.1359C10.9387 10.1983 11.1038 10.1985 11.324 10.1985C11.4493 10.199 11.5744 10.1898 11.6983 10.171C11.7978 10.1549 11.8959 10.131 11.9916 10.0994Z" fill="white"/>
</g>
<defs>
<clipPath id="clip0_820_242">
<rect width="16.4103" height="16" fill="white" transform="translate(0.0144043)"/>
</clipPath>
</defs>
</svg>
