<svg width="17" height="16" viewBox="0 0 17 16" fill="none" xmlns="http://www.w3.org/2000/svg">
<g clip-path="url(#clip0_820_101)">
<path d="M13.8596 0H3.26133C1.6564 0 0.355347 1.30105 0.355347 2.90598V13.094C0.355347 14.6989 1.6564 16 3.26133 16H13.8596C15.4646 16 16.7656 14.6989 16.7656 13.094V2.90598C16.7656 1.30105 15.4646 0 13.8596 0Z" fill="#008CAD"/>
<path d="M13.5503 9.26317C13.2243 8.91316 12.6007 8.73545 11.6969 8.73545C11.1953 8.74032 10.6949 8.78375 10.2 8.86536C9.88303 8.55636 9.5944 8.21956 9.33758 7.859C9.14264 7.58954 8.9625 7.30967 8.79795 7.02064C9.11631 6.01873 9.27761 5.2054 9.27761 4.60246C9.27761 3.86222 8.98435 3.07083 8.16124 3.07083C8.02139 3.07489 7.88485 3.11431 7.76436 3.18542C7.64387 3.25652 7.54336 3.357 7.47221 3.47746C7.1211 4.0804 7.26175 5.32109 7.82216 6.58358C7.62701 7.16362 7.41443 7.72834 7.15385 8.35411C6.93094 8.89053 6.67871 9.41428 6.3983 9.923C5.55871 10.2607 3.77409 11.0806 3.60404 11.9863C3.57847 12.1175 3.58755 12.253 3.63037 12.3796C3.67319 12.5062 3.74827 12.6194 3.84821 12.7081C4.04957 12.8826 4.30906 12.9752 4.57539 12.9675C5.6504 12.9675 6.7224 11.4793 7.44383 10.1983C7.85409 10.0587 8.27242 9.93223 8.68889 9.82222C9.14571 9.70126 9.58729 9.60205 10.0038 9.5282C11.142 10.5214 12.1537 10.6719 12.6607 10.6719C13.3573 10.6719 13.6179 10.3698 13.7128 10.1159C13.7646 9.97224 13.7769 9.8173 13.7483 9.66729C13.7197 9.51727 13.6513 9.3777 13.5503 9.26317ZM12.809 9.78536C12.7708 9.98269 12.5669 10.1103 12.2878 10.1103C12.2084 10.11 12.1293 10.1001 12.0523 10.0808C11.5399 9.95869 11.0493 9.71124 10.5598 9.32526C10.9253 9.26944 11.2945 9.24103 11.6642 9.24027C11.9108 9.23624 12.1571 9.25521 12.4001 9.29695C12.6214 9.34269 12.8711 9.46481 12.809 9.78536ZM7.91371 3.73456C7.93638 3.69034 7.97026 3.65286 8.01198 3.62587C8.05369 3.59888 8.10177 3.58333 8.15139 3.58078C8.41197 3.58078 8.46865 3.89476 8.46865 4.15753C8.47084 4.5762 8.34442 5.24341 8.12746 5.98153C7.69026 4.82365 7.75132 4.01251 7.91371 3.73456ZM9.44117 9.00587C9.14571 9.06803 8.84042 9.13996 8.53081 9.22174C8.30845 9.28061 8.08274 9.34481 7.85703 9.4136C7.97696 9.16834 8.08712 8.92519 8.18305 8.69408C8.30954 8.38871 8.42831 8.08348 8.53737 7.78468C8.6331 7.9351 8.73195 8.08086 8.83392 8.22194C9.0293 8.49324 9.24013 8.75306 9.46537 9.00013L9.44117 9.00587ZM6.13443 10.59C5.4465 11.6977 4.76951 12.3976 4.37375 12.3976C4.30887 12.4004 4.24546 12.3777 4.19713 12.3344C4.16027 12.3046 4.13232 12.2652 4.11635 12.2206C4.10038 12.1759 4.09701 12.1278 4.1066 12.0814C4.18182 11.6846 4.96575 11.1122 6.13443 10.59Z" fill="white"/>
</g>
<defs>
<clipPath id="clip0_820_101">
<rect width="16.4103" height="16" fill="white" transform="translate(0.355347)"/>
</clipPath>
</defs>
</svg>
