<svg width="18" height="16" viewBox="0 0 18 16" fill="none" xmlns="http://www.w3.org/2000/svg">
<g clip-path="url(#clip0_820_173)">
<path d="M14.2391 0H3.64085C2.03592 0 0.734863 1.30105 0.734863 2.90598V13.094C0.734863 14.6989 2.03592 16 3.64085 16H14.2391C15.8441 16 17.1451 14.6989 17.1451 13.094V2.90598C17.1451 1.30105 15.8441 0 14.2391 0Z" fill="#000B1D"/>
<path d="M9.78071 6.69995C9.39758 7.98404 9.07517 9.22185 8.69204 10.4334C8.47455 11.1169 8.2364 11.7693 7.93612 12.1835C7.60471 12.6495 6.98336 13.0948 6.23783 13.0948C5.70967 13.0948 5.19189 12.8462 5.19189 12.2974C5.19189 11.9557 5.54396 11.6347 5.82358 11.6347C5.88258 11.6323 5.94105 11.6466 5.99232 11.6759C6.04358 11.7052 6.08558 11.7484 6.11352 11.8004C6.37241 12.2664 6.62096 12.5356 6.73487 12.5356C6.84879 12.5356 6.94197 12.3803 7.12834 11.7072L8.48754 6.7008L7.50964 6.69971C7.43712 6.48222 7.54031 6.22182 7.66455 6.17003H8.63797C8.82434 5.56941 9.04411 4.95544 9.35479 4.40661C9.82077 3.56783 10.5664 2.90509 11.5915 2.90509C12.3682 2.90509 12.6892 3.27789 12.6892 3.75426C12.6788 4.26164 12.2336 4.52052 12.0264 4.52052C11.8608 4.52052 11.7779 4.39628 11.7262 4.22025C11.5501 3.5575 11.3223 3.36074 11.1877 3.36074C11.0531 3.36074 10.8459 3.60923 10.6182 4.127C10.3178 4.77941 10.1158 5.49004 9.92942 6.17345L11.1137 6.1719C11.1862 6.31687 11.1273 6.61697 10.9512 6.69982L9.78071 6.69995Z" fill="white"/>
</g>
<defs>
<clipPath id="clip0_820_173">
<rect width="16.4103" height="16" fill="white" transform="translate(0.734863)"/>
</clipPath>
</defs>
</svg>
