<svg width="18" height="16" viewBox="0 0 18 16" fill="none" xmlns="http://www.w3.org/2000/svg">
<g clip-path="url(#clip0_820_184)">
<path d="M14.4699 0H3.87156C2.26663 0 0.965576 1.30105 0.965576 2.90598V13.094C0.965576 14.6989 2.26663 16 3.87156 16H14.4699C16.0748 16 17.3758 14.6989 17.3758 13.094V2.90598C17.3758 1.30105 16.0748 0 14.4699 0Z" fill="#001E36"/>
<path d="M6.75436 8.5231V11.2202C6.75607 11.2322 6.75497 11.2444 6.75115 11.2558C6.74733 11.2673 6.74089 11.2777 6.73235 11.2863C6.7238 11.2948 6.71338 11.3012 6.70191 11.3051C6.69045 11.3089 6.67825 11.31 6.66628 11.3083H5.31221C5.3011 11.3096 5.28983 11.3083 5.27931 11.3045C5.26879 11.3007 5.25932 11.2944 5.25168 11.2862C5.2385 11.2628 5.23274 11.236 5.23516 11.2092V4.17473C5.23516 4.07203 5.26084 4.02066 5.31222 4.0206H9.67163C9.69839 4.01823 9.72524 4.02399 9.74868 4.03711C9.76331 4.04813 9.77431 4.09767 9.7817 4.18573L9.9028 5.38567C9.90638 5.39626 9.90673 5.40768 9.90378 5.41847C9.90084 5.42925 9.89474 5.43891 9.88627 5.44621C9.87684 5.45543 9.86564 5.46262 9.85333 5.46735C9.84103 5.47208 9.82789 5.47425 9.81472 5.47373H6.75436V7.14704H9.50649C9.57253 7.14704 9.60555 7.17283 9.60555 7.22409V8.43503C9.60726 8.447 9.60617 8.4592 9.60235 8.47066C9.59853 8.48213 9.59209 8.49255 9.58354 8.5011C9.575 8.50965 9.56458 8.51608 9.55311 8.5199C9.54164 8.52372 9.52944 8.52482 9.51748 8.52311L6.75436 8.5231Z" fill="#31A8FF"/>
<path d="M10.5744 5.837H11.7744C11.807 5.83729 11.8386 5.84819 11.8644 5.86806C11.8902 5.88793 11.9088 5.91567 11.9175 5.9471C11.9436 5.99533 11.9622 6.04731 11.9725 6.10121C11.9879 6.17203 11.9989 6.24372 12.0055 6.31589C12.0128 6.39294 12.0164 6.4755 12.0166 6.56356C12.2223 6.32396 12.4705 6.12432 12.7486 5.97462C13.061 5.80571 13.4118 5.72038 13.7669 5.72693C13.7804 5.725 13.7941 5.72624 13.807 5.73053C13.8199 5.73483 13.8316 5.74207 13.8412 5.75169C13.8508 5.7613 13.8581 5.77302 13.8624 5.78592C13.8667 5.79882 13.8679 5.81254 13.866 5.826V7.15804C13.866 7.20947 13.8292 7.2351 13.7559 7.2351C13.3125 7.20765 12.8689 7.28693 12.4624 7.46628C12.3243 7.52603 12.199 7.61201 12.0936 7.71947V11.2092C12.0936 11.2752 12.0643 11.3083 12.0055 11.3083H10.6735C10.6586 11.3104 10.6433 11.309 10.629 11.3043C10.6146 11.2995 10.6016 11.2914 10.5909 11.2808C10.5802 11.2701 10.5722 11.2571 10.5674 11.2427C10.5626 11.2284 10.5613 11.2131 10.5634 11.1982V7.41124C10.5634 7.24988 10.5616 7.07925 10.5579 6.89934C10.5541 6.71958 10.5486 6.54161 10.5414 6.36541C10.5365 6.21417 10.5218 6.06341 10.4974 5.91408C10.4946 5.90342 10.4947 5.89223 10.4976 5.88161C10.5005 5.87099 10.5061 5.86132 10.5139 5.85353C10.5217 5.84575 10.5313 5.84013 10.542 5.83723C10.5526 5.83433 10.5638 5.83425 10.5744 5.837Z" fill="#31A8FF"/>
</g>
<defs>
<clipPath id="clip0_820_184">
<rect width="16.4103" height="16" fill="white" transform="translate(0.965576)"/>
</clipPath>
</defs>
</svg>
