<svg width="17" height="16" viewBox="0 0 17 16" fill="none" xmlns="http://www.w3.org/2000/svg">
<g clip-path="url(#clip0_820_20)">
<path d="M3.27683 0H13.8751C15.482 0 16.7811 1.29915 16.7811 2.90598V13.094C16.7811 14.7009 15.482 16 13.8751 16H3.27683C1.66999 16 0.37085 14.7009 0.37085 13.094V2.90598C0.37085 1.29915 1.66999 0 3.27683 0Z" fill="#000B1D"/>
<path d="M6.47004 11.4188C6.09397 11.4256 5.7179 11.3846 5.35551 11.3162C5.06833 11.2615 4.78115 11.1726 4.51448 11.0496C4.45294 11.0222 4.42559 10.9607 4.42559 10.865V9.55214C4.42559 9.53162 4.43243 9.50427 4.45294 9.4906C4.47346 9.47692 4.50081 9.48376 4.52132 9.49743C4.82901 9.68889 5.15722 9.83248 5.4991 9.9282C5.8273 10.0239 6.16918 10.0718 6.51106 10.0718C6.92816 10.0718 7.22901 10.0103 7.40679 9.88034C7.57089 9.77778 7.67346 9.6 7.67346 9.40171C7.67346 9.28547 7.64611 9.16923 7.58457 9.06667C7.50252 8.95043 7.39995 8.84786 7.27688 8.77265C7.08542 8.65641 6.88029 8.55384 6.66833 8.47863L6.11448 8.24615C5.67004 8.0547 5.31448 7.84957 5.06149 7.63761C4.82901 7.45299 4.65123 7.21367 4.54183 6.94017C4.44611 6.68034 4.39824 6.41367 4.39824 6.13333C4.38457 5.34017 4.84952 4.60855 5.57431 4.28718C5.96405 4.10256 6.44953 4.00684 7.03072 4.00684C7.35893 4.00684 7.68713 4.02735 8.01534 4.07521C8.26833 4.10256 8.51448 4.17778 8.74696 4.28718C8.79482 4.31453 8.82901 4.36923 8.82217 4.43077V5.67521C8.82217 5.69572 8.8085 5.7094 8.79482 5.72308C8.77431 5.74359 8.7538 5.73675 8.72645 5.71624C8.48029 5.59316 8.22047 5.49743 7.9538 5.44273C7.65294 5.37436 7.34525 5.34017 7.03756 5.34701C6.85294 5.34701 6.67517 5.36068 6.49739 5.40171C6.37431 5.42906 6.25123 5.47692 6.14183 5.53846C6.05294 5.58632 5.98457 5.66154 5.9367 5.75043C5.89568 5.83248 5.86833 5.92137 5.86833 6.01026C5.86833 6.11966 5.90252 6.2359 5.96406 6.32478C6.05294 6.44102 6.16918 6.52991 6.29226 6.59829C6.49739 6.71453 6.70935 6.82393 6.92816 6.91966L7.33841 7.07692C7.82388 7.27521 8.19995 7.48718 8.47346 7.71282C8.71961 7.90427 8.9179 8.15726 9.04782 8.43761C9.15722 8.70427 9.21192 8.99145 9.21192 9.27863C9.21876 9.68889 9.09568 10.0855 8.8632 10.4205C8.61705 10.7556 8.282 11.0154 7.8991 11.1726C7.51619 11.3299 7.03072 11.4188 6.47004 11.4188Z" fill="white"/>
<path d="M12.9451 10.2154V11.118C12.9451 11.2 12.9178 11.2479 12.8563 11.2615C12.7127 11.3094 12.5622 11.3436 12.4187 11.3709C12.2409 11.4051 12.0699 11.4188 11.8922 11.412C11.4135 11.412 11.0375 11.2889 10.7708 11.0359C10.5041 10.7829 10.3605 10.3863 10.3605 9.83932V7.09744H9.69729C9.63575 7.09744 9.6084 7.06325 9.6084 7.00171L9.61524 5.91453C9.61524 5.853 9.64942 5.82564 9.71096 5.82564H10.3742C10.381 5.70257 10.381 5.56582 10.3947 5.40171C10.4084 5.23761 10.4221 5.07351 10.4357 4.90941C10.4494 4.7453 10.4699 4.60855 10.4836 4.50599C10.4904 4.48547 10.5041 4.46496 10.5178 4.44445C10.5315 4.42394 10.552 4.41026 10.5725 4.40342L11.8853 4.23932C11.9058 4.23248 11.9195 4.23248 11.94 4.23932C11.9537 4.24616 11.9605 4.26667 11.9605 4.3077C11.9469 4.47864 11.9332 4.70428 11.9263 4.99829C11.9195 5.28547 11.9195 5.55898 11.9127 5.83248H12.8836C12.9246 5.83248 12.952 5.85983 12.952 5.92137L12.9451 7.02906C12.952 7.06325 12.9246 7.09744 12.8905 7.10428H11.9195V9.47693C11.9195 9.72308 11.9469 9.9077 12.0289 10.0103C12.111 10.1128 12.2682 10.1675 12.4939 10.1675C12.5622 10.1675 12.6238 10.1675 12.6785 10.1607C12.7332 10.1539 12.7947 10.1538 12.8563 10.147C12.8768 10.1402 12.8973 10.1402 12.9178 10.1539C12.9383 10.1607 12.9451 10.1812 12.9451 10.2154Z" fill="white"/>
</g>
<defs>
<clipPath id="clip0_820_20">
<rect width="16.4103" height="16" fill="white" transform="translate(0.37085)"/>
</clipPath>
</defs>
</svg>
