<svg width="17" height="16" viewBox="0 0 17 16" fill="none" xmlns="http://www.w3.org/2000/svg">
<g clip-path="url(#clip0_820_113)">
<path d="M14.0905 0H3.49216C1.88723 0 0.586182 1.30105 0.586182 2.90598V13.094C0.586182 14.6989 1.88723 16 3.49216 16H14.0905C15.6954 16 16.9964 14.6989 16.9964 13.094V2.90598C16.9964 1.30105 15.6954 0 14.0905 0Z" fill="#001E36"/>
<path d="M6.34292 11.3083H2.43928C2.3732 11.3083 2.34018 11.2679 2.34021 11.1872V4.19673C2.34021 4.13069 2.36994 4.09767 2.42939 4.09766H3.63814C3.68426 4.09766 3.70749 4.12346 3.70749 4.17473V9.92119H6.551C6.61043 9.92119 6.63355 9.95422 6.62035 10.0203L6.44201 11.2092C6.43534 11.2532 6.42213 11.2807 6.40238 11.2918C6.38431 11.3023 6.36383 11.308 6.34292 11.3083Z" fill="#31A8FF"/>
<path d="M7.32376 5.83699H8.40369C8.46312 5.83699 8.50605 5.87369 8.53247 5.94709C8.55622 5.99584 8.57291 6.04774 8.58202 6.1012C8.59587 6.17216 8.60579 6.24382 8.61174 6.31588C8.61826 6.39293 8.62156 6.47549 8.62165 6.56356C8.80258 6.32783 9.02605 6.12807 9.28052 5.97461C9.55648 5.80714 9.87423 5.72126 10.197 5.72692C10.2564 5.72692 10.2861 5.75994 10.2861 5.82599V7.15803C10.2861 7.20946 10.2531 7.23515 10.1871 7.23509C9.96949 7.2194 9.75079 7.2361 9.53812 7.28463C9.35969 7.32419 9.1867 7.38518 9.02291 7.46627C8.89649 7.52767 8.78363 7.61376 8.691 7.71946V11.2092C8.691 11.2752 8.66458 11.3083 8.61174 11.3083H7.41291C7.3468 11.3083 7.31378 11.2716 7.31384 11.1982V7.41123C7.31384 7.24987 7.31219 7.07924 7.30888 6.89933C7.30549 6.71957 7.30053 6.5416 7.29401 6.36541C7.28964 6.21431 7.27642 6.06361 7.2544 5.91407C7.25218 5.89277 7.25743 5.87137 7.26925 5.85352C7.27672 5.84718 7.28541 5.84244 7.29479 5.8396C7.30416 5.83675 7.31402 5.83587 7.32376 5.83699Z" fill="#31A8FF"/>
<path d="M15.1245 4.82742C14.9781 4.76833 14.8246 4.7291 14.6679 4.7108C14.4366 4.68169 14.2037 4.6683 13.9706 4.67072C13.3 4.67072 12.7133 4.81447 12.227 5.09797C11.7422 5.37971 11.3492 5.79547 11.095 6.29526C10.8314 6.80448 10.6977 7.40305 10.6977 8.0744C10.6926 8.47998 10.7441 8.88429 10.851 9.27557C10.9436 9.60885 11.0903 9.92464 11.2854 10.2103C11.468 10.4739 11.695 10.7039 11.9562 10.8901C12.219 11.076 12.5117 11.2156 12.8216 11.3029C13.1462 11.3942 13.4819 11.4398 13.8191 11.4384C14.0552 11.4394 14.291 11.4243 14.5251 11.3934C14.7137 11.3712 14.8988 11.3253 15.0759 11.2566C15.1098 11.2409 15.1378 11.2148 15.1557 11.1821C15.1737 11.1494 15.1808 11.1118 15.1759 11.0748V10.0549C15.178 10.0366 15.1759 10.0181 15.1699 10.0008C15.1639 9.98343 15.1541 9.96763 15.1412 9.95455C15.1241 9.94038 15.0878 9.92345 15.0345 9.96431C14.8811 10.0219 14.7211 10.06 14.5582 10.0778C14.36 10.0986 14.1609 10.1084 13.9617 10.1072C13.7806 10.1062 13.6005 10.0817 13.4256 10.0345C13.2435 9.9864 13.0691 9.91309 12.9072 9.81675C12.7391 9.71441 12.5923 9.58055 12.4749 9.42254C12.342 9.24437 12.2405 9.04482 12.1748 8.83249C12.0975 8.57378 12.0607 8.30469 12.0655 8.03474C12.0564 7.65772 12.134 7.28363 12.2924 6.94137C12.4344 6.64597 12.6572 6.39677 12.9348 6.22255C13.2369 6.04297 13.5837 5.95275 13.935 5.96234C14.1503 5.96129 14.3652 5.97927 14.5773 6.01607C14.7488 6.0437 14.9147 6.09912 15.0683 6.18016C15.0815 6.18807 15.0966 6.1923 15.112 6.19241C15.1274 6.19252 15.1425 6.18851 15.1558 6.18079C15.1706 6.16845 15.1821 6.15269 15.1894 6.13487C15.1966 6.11706 15.1994 6.09775 15.1975 6.07861V4.98926C15.2008 4.95823 15.1958 4.92687 15.183 4.89842C15.1701 4.86996 15.1499 4.84545 15.1245 4.82742Z" fill="#31A8FF"/>
</g>
<defs>
<clipPath id="clip0_820_113">
<rect width="16.4103" height="16" fill="white" transform="translate(0.586182)"/>
</clipPath>
</defs>
</svg>
