<svg width="41" height="16" viewBox="0 0 41 16" fill="none" xmlns="http://www.w3.org/2000/svg">
<g clip-path="url(#clip0_843_2470)">
<g clip-path="url(#clip1_843_2470)">
<path d="M0.26123 4.52548V11.4745H2.35759V10.4962H1.56563V5.50378H2.35759V4.52548H0.26123ZM4.16243 9.23841C4.05891 9.23841 3.97609 9.197 3.91397 9.11418C3.85186 9.03137 3.8208 8.92008 3.8208 8.78032C3.8208 8.64056 3.84151 8.52927 3.88291 8.44646C3.92432 8.35846 3.99938 8.28858 4.10808 8.23682C4.2116 8.19023 4.30479 8.16176 4.38761 8.15141C4.47561 8.13588 4.54031 8.09965 4.58172 8.04271H4.59725V8.54739C4.59725 8.78032 4.5636 8.95372 4.49631 9.0676C4.42902 9.18148 4.31773 9.23841 4.16243 9.23841ZM4.68266 10.0692H6.03364C5.97671 9.96049 5.94047 9.83109 5.92494 9.68098C5.90941 9.53087 5.90165 9.35747 5.90165 9.16077V7.111C5.90165 6.83666 5.86024 6.61408 5.77742 6.44327C5.69978 6.26727 5.5859 6.1301 5.43579 6.03176C5.29086 5.92823 5.11487 5.85835 4.90782 5.82212C4.70595 5.78071 4.48337 5.76001 4.24009 5.76001C4.07961 5.76001 3.90621 5.77812 3.71986 5.81436C3.53352 5.84541 3.36012 5.9127 3.19966 6.01623C3.03919 6.11458 2.90461 6.25692 2.79591 6.44327C2.68721 6.62443 2.63286 6.86771 2.63286 7.17311H3.84409C3.84927 6.95053 3.88291 6.80301 3.94503 6.73054C4.00714 6.6529 4.10549 6.61408 4.24009 6.61408C4.4782 6.61408 4.59725 6.74348 4.59725 7.00229C4.59725 7.1317 4.56619 7.23264 4.50408 7.3051C4.44196 7.37239 4.33585 7.42416 4.18572 7.46039L3.63446 7.59238C3.41188 7.64414 3.22554 7.70885 3.07543 7.78649C2.92532 7.85896 2.80627 7.94954 2.71827 8.05824C2.63027 8.16176 2.56557 8.28599 2.52416 8.43093C2.48793 8.57586 2.46981 8.74667 2.46981 8.94337C2.46981 9.12454 2.49052 9.29018 2.53193 9.44029C2.57334 9.5904 2.64063 9.7198 2.7338 9.8285C2.82697 9.9372 2.94602 10.0174 3.09096 10.0692C3.24107 10.1261 3.42223 10.1546 3.63446 10.1546C3.85186 10.1546 4.04338 10.108 4.20902 10.0148C4.37985 9.92167 4.50408 9.78192 4.58172 9.59557H4.59725C4.6076 9.68357 4.61795 9.76639 4.6283 9.84403C4.63866 9.92167 4.65677 9.99673 4.68266 10.0692ZM7.79614 7.97283C7.79614 7.74508 7.80132 7.55615 7.81167 7.40604C7.82202 7.25593 7.84014 7.13688 7.86602 7.04888C7.89708 6.95571 7.93849 6.89101 7.99025 6.85477C8.04201 6.81854 8.1093 6.80042 8.19212 6.80042C8.26976 6.80042 8.33447 6.81854 8.38623 6.85477C8.43799 6.89101 8.47681 6.95571 8.50269 7.04888C8.53375 7.13688 8.55445 7.25593 8.56481 7.40604C8.57516 7.55615 8.58033 7.74508 8.58033 7.97283C8.58033 8.19541 8.57516 8.38175 8.56481 8.53186C8.55445 8.68197 8.53375 8.80361 8.50269 8.89678C8.47681 8.98478 8.43799 9.04689 8.38623 9.08313C8.33447 9.11936 8.26976 9.13748 8.19212 9.13748C8.1093 9.13748 8.04201 9.11936 7.99025 9.08313C7.93849 9.04689 7.89708 8.98478 7.86602 8.89678C7.84014 8.80361 7.82202 8.68197 7.81167 8.53186C7.80132 8.38175 7.79614 8.19541 7.79614 7.97283ZM8.58033 4.52548V6.34233H8.56481C8.49234 6.12493 8.37587 5.97482 8.21541 5.892C8.06013 5.804 7.88414 5.76001 7.68744 5.76001C7.49592 5.76001 7.31993 5.79624 7.15947 5.86871C6.99901 5.94117 6.86184 6.06023 6.74796 6.22586C6.63926 6.3915 6.55385 6.6089 6.49174 6.87807C6.42962 7.14723 6.39857 7.48109 6.39857 7.87966C6.39857 8.66127 6.49174 9.23583 6.67808 9.60334C6.86442 9.97085 7.19052 10.1546 7.65638 10.1546C7.90484 10.1546 8.10412 10.1028 8.25423 9.99932C8.40434 9.89579 8.5234 9.72756 8.61139 9.49464H8.62692V10.0692H9.97791V4.52548H8.58033ZM10.5566 5.86871V9.03654C10.5566 9.25912 10.585 9.44546 10.642 9.59557C10.6989 9.74051 10.7766 9.85697 10.8749 9.94496C10.9732 10.0278 11.0871 10.0821 11.2165 10.108C11.3511 10.1391 11.496 10.1546 11.6513 10.1546C12.1534 10.1546 12.4925 9.95532 12.6685 9.55675H12.684V10.0692H14.035V5.86871H12.6374V8.64056C12.6374 8.81655 12.6115 8.94337 12.5598 9.02101C12.508 9.09866 12.42 9.13748 12.2958 9.13748C12.1715 9.13748 12.0835 9.09866 12.0318 9.02101C11.98 8.94337 11.9541 8.81655 11.9541 8.64056V5.86871H10.5566ZM14.6137 4.52548V10.0692H16.0112V4.52548H14.6137ZM16.3281 5.86871V6.80819H16.794V9.04431C16.794 9.27724 16.8147 9.46617 16.8561 9.6111C16.9027 9.75086 16.9726 9.85697 17.0657 9.92944C17.1641 10.0019 17.2883 10.0485 17.4384 10.0692C17.5885 10.0847 17.7697 10.0925 17.9819 10.0925C18.101 10.0925 18.2252 10.0873 18.3546 10.077C18.484 10.0718 18.6134 10.0692 18.7428 10.0692V9.13748H18.5254C18.4115 9.13748 18.3261 9.11418 18.2692 9.0676C18.2174 9.01584 18.1915 8.93043 18.1915 8.81138V6.80819H18.7428V5.86871H18.1915V4.63418H16.794V5.86871H16.3281ZM22.1373 8.76479H20.9106C20.9106 9.22547 21.0374 9.57228 21.291 9.80521C21.5498 10.0381 21.9717 10.1546 22.5566 10.1546C22.8206 10.1546 23.0561 10.1235 23.2631 10.0614C23.4754 9.99932 23.6514 9.90614 23.7911 9.78191C23.9361 9.65769 24.0473 9.51016 24.125 9.33935C24.2026 9.16853 24.2414 8.9796 24.2414 8.77256C24.2414 8.50339 24.1897 8.28858 24.0862 8.12812C23.9878 7.96248 23.8636 7.83308 23.7135 7.7399C23.5634 7.64156 23.4003 7.5665 23.2243 7.51474C23.0535 7.46298 22.893 7.4138 22.7429 7.36722C22.5928 7.32063 22.466 7.26887 22.3625 7.21193C22.2641 7.14982 22.215 7.05923 22.215 6.94018C22.215 6.83666 22.2486 6.75643 22.3159 6.69949C22.3832 6.64255 22.4686 6.61408 22.5721 6.61408C22.6912 6.61408 22.7818 6.64773 22.8439 6.71502C22.9112 6.77713 22.9448 6.89877 22.9448 7.07994H24.156C24.156 6.19998 23.6307 5.76001 22.5799 5.76001C22.2952 5.76001 22.0467 5.79365 21.8345 5.86094C21.6275 5.92823 21.4541 6.0214 21.3143 6.14046C21.1797 6.25951 21.0788 6.39927 21.0115 6.55973C20.9442 6.71502 20.9106 6.88583 20.9106 7.07217C20.9106 7.33616 20.9597 7.55097 21.0581 7.71661C21.1616 7.87707 21.2884 8.00648 21.4385 8.10483C21.5886 8.20317 21.7491 8.28082 21.9199 8.33775C22.0959 8.39469 22.259 8.44904 22.4091 8.50081C22.5592 8.55257 22.6834 8.61209 22.7818 8.67938C22.8853 8.74667 22.937 8.84243 22.937 8.96666C22.937 9.08054 22.8956 9.16853 22.8128 9.23065C22.7352 9.29276 22.642 9.32382 22.5333 9.32382C22.4039 9.32382 22.3055 9.27465 22.2383 9.1763C22.202 9.12971 22.1761 9.07019 22.1606 8.99772C22.1451 8.92525 22.1373 8.84761 22.1373 8.76479ZM24.3726 5.86871L25.2267 10.0692H26.8106L27.2376 7.09547H27.2532L27.6802 10.0692H29.2641L30.1182 5.86871H28.7672L28.4178 8.88902H28.4023L27.9908 5.86871H26.5L26.0885 8.88902H26.073L25.7236 5.86871H24.3726ZM30.4228 4.52548V5.5659H31.8204V4.52548H30.4228ZM30.4228 5.86871V10.0692H31.8204V5.86871H30.4228ZM34.4433 7.29734V10.0692H35.8408V7.29734C35.8408 7.12135 35.8667 6.99453 35.9185 6.91689C35.9702 6.83924 36.0582 6.80042 36.1825 6.80042C36.3067 6.80042 36.3947 6.83924 36.4465 6.91689C36.4982 6.99453 36.5241 7.12135 36.5241 7.29734V10.0692H37.9217V6.90136C37.9217 6.67361 37.8932 6.48726 37.8363 6.34233C37.7793 6.1974 37.7017 6.08093 37.6033 5.99294C37.505 5.90494 37.3885 5.84541 37.2539 5.81436C37.1245 5.77812 36.9822 5.76001 36.8269 5.76001C36.6095 5.76001 36.405 5.80918 36.2135 5.90753C36.0272 6.0007 35.8797 6.16634 35.771 6.40444C35.683 6.18704 35.5613 6.02658 35.406 5.92306C35.2559 5.81436 35.0359 5.76001 34.7461 5.76001C34.2492 5.76001 33.9101 5.96705 33.729 6.38115H33.7134V5.86871H32.3624V10.0692H33.76V7.29734C33.76 7.12135 33.7859 6.99453 33.8377 6.91689C33.8894 6.83924 33.9774 6.80042 34.1016 6.80042C34.2259 6.80042 34.3139 6.83924 34.3656 6.91689C34.4174 6.99453 34.4433 7.12135 34.4433 7.29734ZM38.9568 5.50378V10.4962H38.1649V11.4745H40.2612V4.52548H38.1649V5.50378H38.9568Z" fill="black"/>
</g>
</g>
<defs>
<clipPath id="clip0_843_2470">
<rect width="40" height="16" fill="white" transform="translate(0.26123)"/>
</clipPath>
<clipPath id="clip1_843_2470">
<rect width="40" height="6.94905" fill="white" transform="translate(0.26123 4.52548)"/>
</clipPath>
</defs>
</svg>
