<svg width="41" height="16" viewBox="0 0 41 16" fill="none" xmlns="http://www.w3.org/2000/svg">
<g clip-path="url(#clip0_9_1631)">
<g clip-path="url(#clip1_9_1631)">
<path d="M9.32476 6.90283H9.4392L9.96477 9.49089H9.83869L9.69069 8.74289H8.0927L7.53765 9.49089H7.39307L9.32476 6.90283ZM9.66738 8.62798L9.35286 7.04971L8.17834 8.62798H9.66943H9.66738Z" fill="#364251"/>
<path d="M11.0187 6.92334H11.5586C11.98 6.92334 12.3542 7.04098 12.5865 7.27218C12.6817 7.36815 12.7561 7.48246 12.8052 7.60806C12.8542 7.73366 12.8768 7.86789 12.8715 8.00249C12.874 8.18799 12.8393 8.37213 12.7695 8.5442C12.6996 8.71628 12.5959 8.87285 12.4645 9.0048C12.1541 9.31283 11.684 9.49302 11.1475 9.49302H10.3252L11.0187 6.92334ZM11.1667 9.37947C11.6621 9.37947 12.0801 9.21763 12.3727 8.92796C12.4926 8.80691 12.5871 8.66342 12.6506 8.50584C12.7141 8.34824 12.7454 8.17969 12.7427 8.00997C12.7479 7.88928 12.7282 7.76881 12.685 7.65588C12.6418 7.54296 12.5758 7.43994 12.4912 7.3531C12.2857 7.14366 11.9547 7.03758 11.5703 7.03758H11.1118L10.4794 9.37947H11.1646H11.1667Z" fill="#364251"/>
<path d="M13.1538 6.92334H13.2833L13.6794 9.35704L15.3993 6.92334H15.5439L13.6972 9.50732H13.5917L13.1538 6.92334Z" fill="#364251"/>
<path d="M16.3751 6.90283H16.4895L17.0172 9.49089H16.8911L16.743 8.74289H15.143L14.5879 9.49089H14.4434L16.3751 6.90283ZM16.7177 8.62798L16.4031 7.04971L15.228 8.62798H16.7191H16.7177Z" fill="#364251"/>
<path d="M17.9554 6.92334H18.0699L19.3163 9.29855L19.9605 6.92334H20.0824L19.3869 9.49099H19.2834L18.0253 7.09742L17.3778 9.49099H17.2593L17.9554 6.92334Z" fill="#364251"/>
<path d="M21.2213 7.03486H20.3003L20.3298 6.92334H22.3011L22.2718 7.0369H21.3466L20.6847 9.49302H20.5587L21.2213 7.03486Z" fill="#364251"/>
<path d="M23.1602 6.90283H23.2747L23.8016 9.49089H23.6762L23.5282 8.74289H21.9282L21.373 9.49089H21.2285L23.1602 6.90283ZM23.5028 8.62798L23.1882 7.04971L22.0131 8.62798H23.5042H23.5028Z" fill="#364251"/>
<path d="M24.1074 8.45881C24.1074 7.64281 24.7768 6.87646 25.6758 6.87646C26.1555 6.87646 26.4414 7.0893 26.6078 7.33887L26.5078 7.40685C26.3488 7.17566 26.1117 6.99206 25.6684 6.99206C24.8508 6.99206 24.2369 7.70062 24.2369 8.45676C24.2369 9.02933 24.6144 9.42576 25.2099 9.42576C25.4944 9.42434 25.7728 9.34274 26.0123 9.19048L26.2673 8.30649H25.3778L25.4073 8.18545H26.4249L26.1178 9.2612C25.8462 9.43737 25.5289 9.53182 25.2044 9.53319C24.5439 9.53387 24.1074 9.08984 24.1074 8.45881Z" fill="#364251"/>
<path d="M27.256 6.92334H29.0685L29.035 7.0369H27.3485L27.0491 8.14188H28.5772L28.5477 8.25545H27.0223L26.7188 9.3788H28.4243L28.3928 9.49099H26.5605L27.256 6.92334Z" fill="#364251"/>
<path d="M30.6168 9.66232C29.7616 9.66232 29.1729 9.06664 29.1729 8.26017V8.25269C29.1714 8.06564 29.2079 7.8802 29.28 7.70732C29.3519 7.53446 29.4582 7.37768 29.5924 7.24628C29.7266 7.11486 29.886 7.01146 30.061 6.94221C30.2361 6.87296 30.4234 6.83924 30.612 6.84307C31.1066 6.84307 31.4047 6.97566 31.6912 7.21707L31.3115 7.6713C31.0999 7.49586 30.9113 7.39454 30.5934 7.39454C30.1542 7.39454 29.8047 7.7801 29.8047 8.24317V8.25066C29.8047 8.74909 30.1473 9.11492 30.6366 9.11492C30.8387 9.12085 31.0378 9.06353 31.2054 8.95104V8.56413H30.5968V8.04665H31.7899V9.22984C31.4644 9.51003 31.0476 9.66367 30.6168 9.66232Z" fill="#D9C685"/>
<path d="M33.6471 9.66203C32.7993 9.66203 32.1909 9.03506 32.1909 8.25988V8.2524C32.1909 7.4772 32.8075 6.84277 33.6545 6.84277C34.5015 6.84277 35.1087 7.46701 35.1087 8.24491V8.2524C35.1087 9.02759 34.4919 9.66203 33.6471 9.66203ZM34.4789 8.2524C34.4789 7.78524 34.1363 7.3956 33.6471 7.3956C33.1577 7.3956 32.8248 7.77708 32.8248 8.24424V8.25172C32.8248 8.71888 33.1674 9.10852 33.6566 9.10852C34.146 9.10852 34.4789 8.72704 34.4789 8.25988V8.2524Z" fill="#D9C685"/>
<path d="M35.5098 9.61505V6.88965H36.1141V9.07038H37.4847V9.61437H35.5112L35.5098 9.61505Z" fill="#D9C685"/>
<path d="M39.0295 9.61505H37.9585V6.88965H39.0295C39.8929 6.88965 40.489 7.47784 40.489 8.24487V8.25236C40.4897 9.01939 39.8929 9.61505 39.0295 9.61505ZM39.8573 8.25507C39.8573 7.77228 39.5235 7.43364 39.0295 7.43364H38.5629V9.07378H39.0295C39.5242 9.07378 39.8573 8.74263 39.8573 8.25779V8.25236V8.25507Z" fill="#D9C685"/>
<path d="M1.02733 9.51324C1.01406 9.51308 1.001 9.50993 0.989128 9.50404C0.977259 9.49816 0.966891 9.48967 0.958805 9.47924L0.507231 8.90259C0.500139 8.89355 0.49492 8.88319 0.491874 8.87213C0.488827 8.86108 0.488012 8.84953 0.489477 8.83814C0.490941 8.82677 0.494656 8.8158 0.500408 8.80585C0.506159 8.79591 0.513834 8.78719 0.522991 8.7802L3.6751 6.35398C3.69359 6.33995 3.71691 6.33372 3.74001 6.33664C3.76311 6.33957 3.78411 6.35142 3.79845 6.36962L4.24933 6.94694C4.25643 6.95599 4.26165 6.96635 4.26468 6.97741C4.26773 6.98847 4.26855 7.00001 4.26709 7.01139C4.26562 7.02276 4.26191 7.03374 4.25615 7.04368C4.25041 7.05363 4.24273 7.06234 4.23357 7.06934L1.08146 9.49554C1.0659 9.50725 1.04685 9.51348 1.02733 9.51324ZM0.699784 8.86451L1.0424 9.3038L4.05747 6.98434L3.71485 6.54506L0.699784 8.86451Z" fill="#D9C685"/>
<path d="M4.30349 9.66088C4.29023 9.66073 4.27717 9.65759 4.2653 9.6517C4.25343 9.64581 4.24305 9.63733 4.23497 9.62688L3.78409 9.04957C3.77699 9.04051 3.77177 9.03017 3.76874 9.01911C3.76569 9.00804 3.76486 8.99649 3.76633 8.98512C3.7678 8.97375 3.77151 8.96277 3.77727 8.95283C3.78301 8.94288 3.79069 8.93417 3.79985 8.92717L6.95196 6.50096C6.97044 6.48692 6.99378 6.48069 7.01686 6.48362C7.03996 6.48655 7.06096 6.4984 7.0753 6.5166L7.52618 7.09391C7.53328 7.10296 7.5385 7.11332 7.54155 7.12438C7.54458 7.13544 7.54541 7.14699 7.54394 7.15836C7.54247 7.16973 7.53876 7.18071 7.533 7.19065C7.52726 7.20059 7.51958 7.20932 7.51042 7.2163L4.35764 9.6432C4.34207 9.65491 4.32302 9.66114 4.30349 9.66088ZM3.97595 9.01217L4.31857 9.45144L7.33363 7.13199L6.99101 6.69272L3.97595 9.01217Z" fill="#D9C685"/>
<path d="M5.32665 6.41797L2.1333 8.87512L2.24122 9.01322L5.43456 6.55607L5.32665 6.41797Z" fill="#D9C685"/>
<path d="M5.77781 6.99512L2.58447 9.45227L2.69238 9.59038L5.88573 7.13322L5.77781 6.99512Z" fill="#D9C685"/>
<path d="M2.81803 6.46401C3.06806 6.27051 3.36182 6.14039 3.67391 6.08492C3.98601 6.02946 4.30702 6.05031 4.60917 6.14568C4.91131 6.24104 5.18549 6.40805 5.40795 6.63224C5.63041 6.85643 5.79444 7.13105 5.88587 7.43231L6.03389 7.31876C5.87683 6.85721 5.56384 6.46371 5.14791 6.20494C4.732 5.94617 4.23871 5.83803 3.75164 5.89885C3.26458 5.95967 2.81366 6.1857 2.4753 6.53866C2.13694 6.89161 1.93194 7.34978 1.89502 7.83555L2.08963 7.68527C2.1675 7.20123 2.4279 6.76465 2.81803 6.46401Z" fill="#D9C685"/>
<path d="M5.94375 8.31092C5.87366 8.74355 5.65783 9.13981 5.3315 9.43501C5.00518 9.73023 4.58764 9.90693 4.14707 9.93628C3.70649 9.96564 3.2689 9.84593 2.90573 9.59666C2.54257 9.3474 2.27529 8.98333 2.14752 8.56388L1.99951 8.67745C2.15655 9.13899 2.46954 9.53248 2.88547 9.79126C3.3014 10.05 3.79467 10.1582 4.28175 10.0974C4.76882 10.0365 5.21974 9.81051 5.55808 9.45755C5.89645 9.10459 6.10145 8.64641 6.13837 8.16064L5.94375 8.31092Z" fill="#D9C685"/>
<path d="M1.77284 7.71657C1.83652 7.21683 2.06776 6.7529 2.42937 6.39942C2.79099 6.04593 3.26192 5.82346 3.76642 5.7678C4.2709 5.71214 4.77957 5.82653 5.2106 6.09257C5.64162 6.3586 5.9699 6.7608 6.14263 7.23444L6.2879 7.12224C6.09107 6.62151 5.73175 6.2001 5.26671 5.92455C4.80167 5.649 4.25738 5.53502 3.71979 5.60059C3.18221 5.66616 2.68194 5.90756 2.29798 6.28666C1.91403 6.66577 1.66826 7.16098 1.59948 7.69411C1.58424 7.82045 1.57897 7.94776 1.58372 8.07491L1.75708 7.93891C1.758 7.86592 1.76325 7.79181 1.77284 7.71657Z" fill="#D9C685"/>
<path d="M6.27632 8.05517C6.26226 8.57742 6.06501 9.07845 5.71857 9.47185C5.37212 9.86524 4.89821 10.1263 4.37854 10.2101C3.85888 10.2939 3.32603 10.1952 2.87189 9.93089C2.41775 9.66659 2.07076 9.25333 1.89078 8.76235L1.74414 8.87456C1.92258 9.32909 2.23516 9.71956 2.64096 9.99486C3.04678 10.2702 3.52689 10.4175 4.01846 10.4175C4.34486 10.4175 4.66793 10.3523 4.96844 10.2258C5.26894 10.0994 5.54074 9.91421 5.76765 9.68137C5.99454 9.44852 6.17193 9.17276 6.28921 8.87048C6.4065 8.56821 6.46131 8.24561 6.45038 7.92188L6.27632 8.05517Z" fill="#D9C685"/>
</g>
</g>
<defs>
<clipPath id="clip0_9_1631">
<rect width="40" height="16" fill="white" transform="translate(0.48877)"/>
</clipPath>
<clipPath id="clip1_9_1631">
<rect width="40" height="4.83497" fill="white" transform="translate(0.48877 5.58252)"/>
</clipPath>
</defs>
</svg>
