<svg width="41" height="16" viewBox="0 0 41 16" fill="none" xmlns="http://www.w3.org/2000/svg">
<g clip-path="url(#clip0_842_2402)">
<g clip-path="url(#clip1_842_2402)">
<path fill-rule="evenodd" clip-rule="evenodd" d="M25.1202 11.4285C22.7953 13.1218 19.4273 14.0498 16.525 14.0498C12.4593 14.0498 8.7966 12.5573 6.02727 10.0165C5.80949 9.81512 6.00327 9.5729 6.26505 9.73423C9.25482 11.4685 12.9517 12.5173 16.7708 12.5173C19.3468 12.5173 22.1779 11.9929 24.7842 10.864C25.1753 10.7022 25.5042 11.1458 25.1202 11.4285Z" fill="#FF9900"/>
<path fill-rule="evenodd" clip-rule="evenodd" d="M26.0878 10.2991C25.7901 9.93601 24.123 10.1378 23.3732 10.2182C23.1465 10.2582 23.111 10.0569 23.315 9.89556C24.6452 8.96801 26.8261 9.25023 27.079 9.53245C27.3336 9.85512 27.0118 12.0738 25.7647 13.1222C25.5727 13.2836 25.3914 13.1622 25.4758 12.9609C25.7572 12.2751 26.3852 10.7027 26.0878 10.2991Z" fill="#FF9900"/>
<path fill-rule="evenodd" clip-rule="evenodd" d="M23.4247 3.28134V2.35334C23.4265 2.23245 23.5291 2.11156 23.6558 2.11156H27.7247C27.8536 2.11156 27.9598 2.23245 27.9598 2.35334V3.16C27.958 3.28134 27.8478 3.44267 27.6531 3.72445L25.5456 6.75023C26.3287 6.71023 27.1558 6.83067 27.8669 7.23423C28.0278 7.31467 28.0714 7.476 28.0829 7.59734V8.56534C28.0829 8.68623 27.9371 8.84756 27.7838 8.76667C26.5309 8.12134 24.87 8.04089 23.4847 8.76667C23.3429 8.84756 23.194 8.68623 23.194 8.56534V7.63734C23.194 7.476 23.1971 7.23423 23.346 7.03289L25.7882 3.48311H23.6616C23.5305 3.48311 23.426 3.40267 23.4247 3.28178V3.28134ZM31.4736 3.32134C30.5611 3.32134 30.5029 4.572 30.5029 5.33823C30.5029 6.10445 30.4914 7.79823 31.4629 7.79823C32.4229 7.79823 32.4674 6.42711 32.4674 5.62045C32.4674 5.096 32.4438 4.45067 32.2834 3.92667C32.1447 3.48267 31.8665 3.32134 31.4736 3.32134ZM31.4629 2.03067C33.3011 2.03067 34.294 3.604 34.294 5.62045C34.294 7.55645 33.1967 9.08889 31.4629 9.08889C29.6607 9.08889 28.6771 7.516 28.6771 5.53956C28.6771 3.56356 29.6714 2.03067 31.4629 2.03067ZM21.4309 8.968C21.3487 9.008 21.1998 9.008 21.1376 8.968C20.7149 8.64534 20.4274 8.16134 20.4274 8.16134C19.7474 8.84712 19.2669 9.04845 18.3874 9.04845C17.3451 9.04845 16.534 8.40356 16.534 7.11289C16.534 6.104 17.0789 5.41867 17.854 5.096C18.5251 4.77334 19.4647 4.73334 20.182 4.65245C20.182 4.65245 20.2411 3.88623 20.0314 3.60356C19.8696 3.36178 19.5914 3.28134 19.3367 3.28134C18.8767 3.28134 18.4331 3.52311 18.3456 4.00711C18.3202 4.128 18.2189 4.24934 18.1114 4.24934L16.9256 4.128C16.8349 4.088 16.7114 4.00711 16.7411 3.84578C17.018 2.39378 18.3322 1.95023 19.5109 1.95023C20.1136 1.95023 20.9007 2.11156 21.3754 2.55511C21.978 3.11956 21.9202 3.88623 21.9202 4.69289V6.62889C21.9202 7.23334 22.1611 7.47556 22.3874 7.79823C22.4665 7.91956 22.4842 8.04045 22.3829 8.12089C22.13 8.32267 21.4309 8.968 21.4309 8.968ZM20.182 5.90267C20.182 6.38711 20.194 6.79023 19.9509 7.23378C19.7549 7.59689 19.442 7.79823 19.094 7.79823C18.6189 7.79823 18.3411 7.43556 18.3411 6.91111C18.3411 5.82223 19.2874 5.66089 20.182 5.66089V5.90267ZM5.20113 8.968C5.11935 9.008 4.96869 9.008 4.90958 8.968C4.48691 8.64534 4.19935 8.16134 4.19935 8.16134C3.51935 8.84712 3.03847 9.04845 2.15935 9.04845C1.11535 9.04845 0.304688 8.40356 0.304688 7.11289C0.304688 6.104 0.849576 5.41867 1.62469 5.096C2.2958 4.77334 3.23491 4.73334 3.95224 4.65245C3.95224 4.65245 4.0118 3.88623 3.80202 3.60356C3.63847 3.36178 3.36158 3.28134 3.10691 3.28134C2.64735 3.28134 2.2038 3.52311 2.1158 4.00711C2.09047 4.128 1.98958 4.24934 1.88247 4.24934L0.695799 4.128C0.605132 4.088 0.481576 4.00711 0.511354 3.84578C0.788243 2.39378 2.10247 1.95023 3.28113 1.95023C3.8838 1.95023 4.67135 2.11156 5.14602 2.55511C5.74869 3.11956 5.69091 3.88623 5.69091 4.69289V6.62889C5.69091 7.23334 5.9318 7.47556 6.15802 7.79823C6.23669 7.91956 6.25491 8.04045 6.15358 8.12089C5.90024 8.32267 5.20113 8.968 5.20113 8.968ZM3.95224 5.90267C3.95224 6.38711 3.96424 6.79023 3.72024 7.23378C3.5238 7.59689 3.21135 7.79823 2.86291 7.79823C2.38824 7.79823 2.11002 7.43556 2.11002 6.91111C2.11002 5.82223 3.05669 5.66089 3.95091 5.66089V5.90267H3.95224ZM8.82024 5.33823C8.82024 4.612 8.78647 3.604 9.67624 3.604C10.5545 3.604 10.4385 4.65289 10.4385 5.33823L10.4398 8.72623C10.4398 8.84712 10.5376 8.968 10.6616 8.968H11.898C12.0309 8.968 12.1362 8.84712 12.1362 8.72623V5.33823C12.1362 4.97511 12.1247 4.45067 12.2527 4.128C12.3802 3.80534 12.6914 3.60356 12.9918 3.60356C13.3509 3.60356 13.6274 3.72489 13.7202 4.16845C13.778 4.41067 13.754 5.096 13.754 5.33823V8.72623C13.754 8.84712 13.8518 8.968 13.9758 8.968H15.2127C15.3451 8.968 15.4505 8.84712 15.4505 8.72623L15.4522 4.69289C15.4522 4.00711 15.5322 3.24089 15.1398 2.71645C14.7936 2.23245 14.2274 1.99067 13.7065 1.99067C12.9785 1.99067 12.2971 2.39378 11.9962 3.20045C11.6496 2.39378 11.1647 1.99067 10.3909 1.99067C9.62869 1.99067 9.06158 2.39378 8.76069 3.20045H8.73713V2.39378C8.73713 2.23245 8.63269 2.152 8.50602 2.152H7.3518C7.2238 2.152 7.12069 2.23245 7.12069 2.39378V8.72623C7.12069 8.84712 7.22513 8.968 7.3518 8.968H8.58824C8.71624 8.968 8.81936 8.84712 8.81936 8.72623L8.82024 5.33823ZM36.9189 8.72623C36.9189 8.84712 36.8145 8.968 36.6878 8.968H35.4514C35.3234 8.968 35.2202 8.84712 35.2202 8.72623V2.39378C35.2202 2.23245 35.3247 2.152 35.4514 2.152H36.5945C36.7278 2.152 36.8251 2.27289 36.8251 2.31334V3.28134H36.8491C37.1958 2.43423 37.6807 2.03023 38.5367 2.03023C39.0918 2.03023 39.6345 2.232 39.9811 2.75645C40.3047 3.28134 40.3047 4.128 40.3047 4.73334V8.76623C40.2914 8.88712 40.19 8.968 40.0678 8.968H38.8269C38.7118 8.968 38.6198 8.88712 38.6065 8.76623L38.6082 4.89467C38.6082 3.604 38.1149 3.604 37.8314 3.604C37.5007 3.604 37.2345 3.84578 37.118 4.088C36.9456 4.49111 36.9171 4.85423 36.9171 5.29778L36.9189 8.72623Z" fill="black"/>
</g>
</g>
<defs>
<clipPath id="clip0_842_2402">
<rect width="40" height="16" fill="white" transform="translate(0.304688)"/>
</clipPath>
<clipPath id="clip1_842_2402">
<rect width="40" height="12.0996" fill="white" transform="translate(0.304688 1.95023)"/>
</clipPath>
</defs>
</svg>
