<svg width="65" height="64" viewBox="0 0 65 64" fill="none" xmlns="http://www.w3.org/2000/svg">
<g clip-path="url(#clip0_731_72)">
<path d="M64.6122 34.5884V0.0284424H0.754395V63.8862H64.6122V45.2551C64.47 45.2551 64.6122 34.5884 64.6122 34.5884Z" fill="#006FCF"/>
<path d="M56.79 31.0329H61.6255V19.7973H56.3633V21.3618L55.3677 19.7973H50.8166V21.7884L49.9633 19.7973H41.5722C41.2877 19.7973 41.0033 19.9396 40.7188 19.9396C40.4344 19.9396 40.2922 20.0818 40.0077 20.224C39.7233 20.3662 39.5811 20.3662 39.2966 20.5084V19.7973H15.2611L14.55 21.6462L13.8388 19.7973H8.14995V21.7884L7.29662 19.7973H2.74551L0.754395 24.6329V31.0329H4.02551L4.59439 29.4684H5.73217L6.30106 31.0329H31.3322V29.6107L32.3277 31.0329H39.2966V30.1796C39.4388 30.3218 39.7233 30.3218 39.8655 30.464C40.0077 30.6062 40.2922 30.6062 40.4344 30.7484C40.7188 30.8907 41.0033 30.8907 41.2877 30.8907H46.4077L46.9766 29.3262H48.1144L48.6833 30.8907H55.6522V29.4684L56.79 31.0329ZM64.6122 45.2551V34.7307H25.5011L24.5055 36.1529L23.51 34.7307H12.1322V45.9662H23.51L24.5055 44.544L25.5011 45.9662H32.6122V43.5484H32.3277C33.3233 43.5484 34.1766 43.4062 34.8877 43.1218V46.1084H40.0077V44.6862L41.0033 46.1084H62.1944C63.0477 45.824 63.9011 45.6818 64.6122 45.2551Z" fill="white"/>
<path d="M62.1944 42.5529H58.3544V44.1173H62.0522C63.6166 44.1173 64.6122 43.1218 64.6122 41.6995C64.6122 40.2773 63.7588 39.5662 62.3366 39.5662H60.6299C60.2033 39.5662 59.9188 39.2818 59.9188 38.8551C59.9188 38.4284 60.2033 38.144 60.6299 38.144H63.9011L64.6122 36.5795H60.7722C59.2077 36.5795 58.2122 37.5751 58.2122 38.8551C58.2122 40.2773 59.0655 40.9884 60.4877 40.9884H62.1944C62.6211 40.9884 62.9055 41.2729 62.9055 41.6995C63.0477 42.2684 62.7633 42.5529 62.1944 42.5529ZM55.2255 42.5529H51.3855V44.1173H55.0833C56.6477 44.1173 57.6433 43.1218 57.6433 41.6995C57.6433 40.2773 56.79 39.5662 55.3677 39.5662H53.6611C53.2344 39.5662 52.95 39.2818 52.95 38.8551C52.95 38.4284 53.2344 38.144 53.6611 38.144H56.9322L57.6433 36.5795H53.8033C52.2388 36.5795 51.2433 37.5751 51.2433 38.8551C51.2433 40.2773 52.0966 40.9884 53.5188 40.9884H55.2255C55.6522 40.9884 55.9366 41.2729 55.9366 41.6995C56.0788 42.2684 55.6522 42.5529 55.2255 42.5529ZM50.2477 38.0018V36.4373H44.2744V43.9751H50.2477V42.4107H45.9811V40.8462H50.1055V39.2818H45.9811V37.8595H50.2477V38.0018ZM40.5766 38.0018C41.2877 38.0018 41.5722 38.4284 41.5722 38.8551C41.5722 39.2818 41.2877 39.7084 40.5766 39.7084H38.4433V37.8595L40.5766 38.0018ZM38.4433 41.2729H39.2966L41.5722 43.9751H43.7055L41.1455 41.1307C42.4255 40.8462 43.1366 39.9929 43.1366 38.8551C43.1366 37.4329 42.1411 36.4373 40.5766 36.4373H36.5944V43.9751H38.3011L38.4433 41.2729ZM33.8922 38.9973C33.8922 39.5662 33.6077 39.9929 32.8966 39.9929H30.6211V38.0018H32.7544C33.4655 38.0018 33.8922 38.4284 33.8922 38.9973ZM28.9144 36.4373V43.9751H30.6211V41.4151H32.8966C34.4611 41.4151 35.5988 40.4195 35.5988 38.8551C35.5988 37.4329 34.6033 36.2951 33.0388 36.2951L28.9144 36.4373ZM26.3544 43.9751H28.4877L25.5011 40.1351L28.4877 36.4373H26.3544L24.5055 38.8551L22.6566 36.4373H20.5233L23.51 40.1351L20.5233 43.8329H22.6566L24.5055 41.4151L26.3544 43.9751ZM19.9544 38.0018V36.4373H13.9811V43.9751H19.9544V42.4107H15.6877V40.8462H19.8122V39.2818H15.6877V37.8595H19.9544V38.0018ZM54.5144 24.6329L57.5011 29.184H59.6344V21.6462H57.9277V26.624L57.5011 25.9129L54.7988 21.6462H52.5233V29.184H54.2299V24.064L54.5144 24.6329ZM47.1188 24.4907L47.6877 22.9262L48.2566 24.4907L48.9677 26.1973H46.4077L47.1188 24.4907ZM50.1055 29.184H51.9544L48.6833 21.6462H46.4077L43.1366 29.184H44.9855L45.6966 27.6195H49.3944L50.1055 29.184ZM42.1411 29.184L42.8522 27.6195H42.4255C41.1455 27.6195 40.4344 26.7662 40.4344 25.4862V25.344C40.4344 24.064 41.1455 23.2107 42.4255 23.2107H44.2744V21.6462H42.2833C40.0077 21.6462 38.7277 23.2107 38.7277 25.344V25.4862C38.7277 27.7618 40.0077 29.184 42.1411 29.184ZM35.7411 29.184H37.4477V21.7884H35.7411V29.184ZM32.0433 23.2107C32.7544 23.2107 33.0388 23.6373 33.0388 24.064C33.0388 24.4907 32.7544 24.9173 32.0433 24.9173H29.91V23.0684L32.0433 23.2107ZM29.91 26.4818H30.7633L33.0388 29.184H35.1722L32.6122 26.3395C33.8922 26.0551 34.6033 25.2018 34.6033 24.064C34.6033 22.6418 33.6077 21.6462 32.0433 21.6462H28.0611V29.184H29.7677L29.91 26.4818ZM26.7811 23.2107V21.6462H20.8077V29.184H26.7811V27.6195H22.5144V26.0551H26.6388V24.4907H22.5144V23.0684H26.7811V23.2107ZM13.8388 29.184H15.4033L17.5366 23.0684V29.184H19.2433V21.6462H16.3988L14.6922 26.7662L12.9855 21.6462H10.1411V29.184H11.8477V23.0684L13.8388 29.184ZM4.59439 24.4907L5.16328 22.9262L5.73217 24.4907L6.44328 26.1973H3.88328L4.59439 24.4907ZM7.58106 29.184H9.42995L6.15884 21.6462H4.02551L0.754395 29.184H2.60328L3.31439 27.6195H7.01217L7.58106 29.184Z" fill="#006FCF"/>
</g>
<defs>
<clipPath id="clip0_731_72">
<rect width="64" height="64" fill="white" transform="translate(0.754395)"/>
</clipPath>
</defs>
</svg>
