<svg width="18" height="16" viewBox="0 0 18 16" fill="none" xmlns="http://www.w3.org/2000/svg">
<g clip-path="url(#clip0_2_7525)">
<path d="M13.8622 12.0619C13.5658 12.073 13.4036 12.0423 13.2815 11.9836C13.1496 11.9201 13.0098 11.7985 12.8024 11.5184C12.781 11.4895 12.7335 11.4252 12.6631 11.3301C14.0421 10.2559 14.9411 8.59208 14.9775 6.72086L17.2746 3.16163C17.2746 3.16163 16.069 2.58416 14.1153 2.1046L15.4263 0.327085C15.4263 0.327085 14.3572 0.0441754 14.1694 0.0134135C14.0687 -0.00289282 13.9191 -0.0159479 13.7621 0.0474266C13.633 0.0996469 13.5393 0.187256 13.4712 0.279066C13.4647 0.287945 13.0565 0.840684 12.4245 1.69727C11.4514 1.01358 10.2662 0.611395 8.9892 0.611395C7.71221 0.611395 6.52703 1.0136 5.55392 1.69732C4.92195 0.840684 4.5137 0.287945 4.50719 0.279091C4.43867 0.187306 4.34546 0.0996719 4.21636 0.0474767C4.05932 -0.0159479 3.90974 -0.00289282 3.80907 0.0134135C3.62078 0.0441754 2.55214 0.327035 2.55214 0.327035L3.86312 2.10457C1.90944 2.58416 0.703748 3.16163 0.703748 3.16163L3.00091 6.72086C3.00617 6.97093 3.02687 7.22043 3.06289 7.46795C3.01767 7.4661 1.2891 7.35098 1.2891 8.66011C1.2891 9.48968 2.12567 10.2246 3.12301 10.5047C3.57693 10.6324 4.04719 10.6623 4.52768 10.5928C4.76772 10.8608 5.03057 11.1083 5.31486 11.3301C5.24448 11.4252 5.19694 11.4895 5.17598 11.5184C4.96857 11.7985 4.82877 11.9206 4.69687 11.9835C4.57475 12.0423 4.41258 12.073 4.11614 12.0619L0 11.8801L0.734484 13.6306C0.794157 13.7704 0.883642 13.92 1.04115 14.0239C1.20522 14.1325 1.38183 14.1516 1.52166 14.1516H4.26813C4.57477 14.1516 4.8572 14.1293 5.12518 13.9946C5.41975 13.8463 5.63923 13.5896 5.87928 13.2661C5.96268 13.1538 6.21948 12.8066 6.59743 12.2944L8.98923 16L11.381 12.2944C11.759 12.8061 12.0157 13.1538 12.0992 13.2661C12.3397 13.59 12.5587 13.8463 12.8532 13.9945C13.1212 14.1293 13.4036 14.1516 13.7103 14.1516H16.4567C16.597 14.1516 16.7732 14.1325 16.9372 14.0239C17.0947 13.9195 17.1847 13.7704 17.2439 13.6306L17.9784 11.8801L13.8622 12.0619Z" fill="#010101"/>
<path d="M13.6728 2.87012C14.4655 3.05514 15.2275 3.29053 15.9564 3.57481L14.8388 5.30621C14.6384 4.40066 14.2325 3.57154 13.6728 2.87012ZM8.98941 12.592C8.56859 12.592 8.15754 12.5482 7.76043 12.4652L8.98941 14.3695L10.2184 12.4652C9.81418 12.5497 9.40234 12.5922 8.98941 12.592ZM4.30609 2.87012C3.51331 3.05514 2.75134 3.29053 2.02246 3.57481L3.14002 5.30621C3.34042 4.40066 3.74638 3.57154 4.30607 2.87012H4.30609Z" fill="#89734C"/>
<path d="M13.8396 2.479C14.7833 2.70364 15.6996 3.00146 16.5818 3.37898L14.9413 5.92081C14.9177 5.71459 14.8835 5.50972 14.8388 5.30702L15.9563 3.5756C15.2279 3.29134 14.4659 3.05645 13.6727 2.87098C13.6517 2.84451 13.6304 2.81825 13.6089 2.7922L13.84 2.479H13.8396ZM10.2183 12.4661L8.98937 14.3704L7.7604 12.4661C7.55732 12.4236 7.35663 12.3704 7.15919 12.3067L8.9894 15.1426L10.8196 12.3067C10.6219 12.3702 10.4211 12.4234 10.2179 12.4661H10.2183ZM3.13998 5.30702L2.02238 3.5756C2.75083 3.29134 3.51283 3.05645 4.30603 2.87098C4.32705 2.84451 4.34834 2.81825 4.36988 2.7922L4.13872 2.479C3.19498 2.70364 2.27873 3.00146 1.39648 3.37898L3.03697 5.92084C3.0606 5.71461 3.09482 5.50973 3.13951 5.30702H3.13998Z" fill="white"/>
<path d="M11.8828 3.13662C12.9803 1.64944 13.7824 0.562145 13.8071 0.529533C13.8863 0.422792 13.9711 0.40556 14.1021 0.426993C14.2577 0.452153 14.5365 0.521605 14.7262 0.572399C14.7262 0.572399 13.6523 2.02836 12.2374 3.94618C12.1297 3.6619 12.0109 3.39109 11.8828 3.13662ZM6.22721 3.31419C5.06306 1.7366 4.19713 0.563546 4.17199 0.529533C4.09274 0.422792 4.00793 0.40556 3.87698 0.426993C3.72129 0.452153 3.44261 0.521605 3.25294 0.572399C3.25294 0.572399 4.41944 2.15371 5.92199 4.19085C5.99702 3.89023 6.10051 3.59569 6.22724 3.31421L6.22721 3.31419ZM13.8784 12.4806C13.204 12.5062 12.8964 12.3482 12.4667 11.7675C12.3879 11.6612 12.1759 11.3741 11.8683 10.9575C11.6852 11.1299 11.4773 11.2819 11.2499 11.4123C11.8786 12.2643 12.3185 12.8599 12.435 13.017C12.8876 13.6266 13.087 13.7333 13.7106 13.7333H16.457C16.664 13.7333 16.7716 13.6741 16.8597 13.4672C16.9478 13.2598 17.3379 12.3277 17.3379 12.3277C17.3379 12.3277 14.6912 12.4498 13.8788 12.4806H13.8784ZM6.08323 10.9948L5.51231 11.7675C5.08265 12.3477 4.77503 12.5057 4.10064 12.4806C3.28833 12.4498 0.641602 12.3277 0.641602 12.3277C0.641602 12.3277 1.0317 13.2603 1.11979 13.4672C1.20787 13.6746 1.31551 13.7333 1.52244 13.7333H4.26891C4.89202 13.7333 5.09147 13.6266 5.54447 13.017C5.66239 12.8581 6.11119 12.2508 6.75154 11.383C6.53671 11.2721 6.31487 11.143 6.08323 10.9948Z" fill="#CF4520"/>
<path d="M4.0093 0.808691L3.25291 0.572399C3.44259 0.52163 3.72127 0.452153 3.87695 0.426993C4.0079 0.40556 4.09271 0.422792 4.17197 0.529533C4.19758 0.563546 5.06306 1.7366 6.22724 3.31419C6.1795 3.42039 6.13521 3.52812 6.09444 3.63719L4.0093 0.808691ZM12.0286 3.44188C13.1504 1.92022 13.9697 0.808691 13.9697 0.808691L14.7262 0.572399C14.5365 0.52163 14.2577 0.452153 14.1021 0.426993C13.9711 0.40556 13.8863 0.422792 13.8071 0.529533C13.7828 0.562621 12.9803 1.64947 11.8828 3.13662C11.9331 3.23591 11.9816 3.33794 12.0286 3.44236V3.44188ZM6.08323 10.9948L5.51231 11.7675C5.08265 12.3477 4.77503 12.5057 4.10064 12.4805C3.28925 12.4498 0.645353 12.3281 0.641602 12.3277L1.44041 12.6786C1.44041 12.6786 3.59079 12.7597 4.22086 12.7741C4.88082 12.7891 5.27324 12.5877 5.7416 11.9637C5.79942 11.8868 6.01471 11.5955 6.34096 11.1541C6.25419 11.1024 6.16827 11.0493 6.08323 10.9948ZM13.8784 12.4806C13.204 12.5062 12.8964 12.3482 12.4667 11.7675C12.3879 11.6612 12.1759 11.3742 11.8683 10.9575C11.7951 11.026 11.7183 11.0917 11.6381 11.1537C11.9643 11.5955 12.1801 11.8868 12.2379 11.9637C12.7058 12.5877 13.0982 12.7891 13.7586 12.7742C14.3887 12.7597 16.5391 12.6786 16.5391 12.6786L17.3379 12.3277C17.3341 12.3277 14.6907 12.4498 13.8788 12.4806H13.8784Z" fill="white"/>
<path d="M15.4132 12.9693C15.3936 13.2345 15.3792 13.4643 15.3769 13.7327H15.1434C15.1685 13.5817 15.2459 13.1367 15.3093 12.9181C15.3307 12.8449 15.3447 12.8076 15.3866 12.8155C15.4309 12.8235 15.4193 12.8826 15.4127 12.9693H15.4132L15.4132 12.9693ZM14.743 13.5128C14.7771 13.5156 14.7887 13.4797 14.799 13.4135C14.8698 12.9563 14.9318 12.7372 14.9318 12.7372L14.9294 12.7363C14.8684 12.7386 14.8078 12.7405 14.7477 12.7424C14.7277 12.8691 14.695 13.1208 14.7043 13.3771C14.7076 13.462 14.7202 13.5104 14.7426 13.5128H14.743ZM15.8108 13.3902C15.8089 13.4494 15.8182 13.4657 15.8396 13.4689C15.8639 13.4727 15.8793 13.454 15.8933 13.3977C15.986 13.0211 16.0727 12.7601 16.0955 12.6944C16.033 12.6967 15.9659 12.699 15.8951 12.7018C15.8662 12.8551 15.8178 13.1422 15.8108 13.3902ZM3.04796 12.7377C3.04796 12.7377 3.10949 12.9568 3.18079 13.414C3.19104 13.4797 3.20267 13.516 3.23671 13.5132C3.25907 13.5114 3.27215 13.4624 3.27495 13.3776C3.28426 13.1217 3.25162 12.8696 3.23159 12.7428C3.17146 12.741 3.11089 12.7386 3.04982 12.7368L3.04749 12.7377H3.04796ZM2.13961 13.4689C2.16107 13.4657 2.17038 13.4494 2.16855 13.3902C2.16155 13.1422 2.11353 12.8551 2.08417 12.7018C2.01331 12.699 1.94576 12.6967 1.88379 12.6943C1.9066 12.7601 1.99331 13.0211 2.08602 13.3976C2.10002 13.454 2.11538 13.4727 2.13961 13.4689ZM2.66999 12.9181C2.64856 12.8449 2.63458 12.8076 2.59264 12.8155C2.54837 12.8234 2.56003 12.8826 2.56653 12.9693C2.58611 13.2345 2.60054 13.4643 2.60289 13.7327H2.83638C2.8112 13.5817 2.73384 13.1367 2.67047 12.9181H2.66999Z" fill="#CF4520"/>
<path d="M3.60844 12.755C3.64153 12.9419 3.70538 13.3147 3.76225 13.7328H2.83572C2.81056 13.5818 2.73318 13.1367 2.66983 12.9181C2.64837 12.8449 2.63439 12.8077 2.59242 12.8156C2.54816 12.8235 2.55984 12.8827 2.56634 12.9694C2.58592 13.2346 2.60035 13.4643 2.6027 13.7328H1.75032C1.61235 13.2173 1.5033 12.8692 1.43945 12.6772H1.44085C1.44085 12.6772 1.61747 12.6846 1.88408 12.6944C1.90691 12.7611 1.99404 13.0221 2.08633 13.3977C2.10033 13.4541 2.11569 13.4727 2.13992 13.469C2.16136 13.4657 2.17069 13.4494 2.16881 13.3902C2.16183 13.1423 2.11384 12.8552 2.08448 12.7019C2.36876 12.7121 2.7141 12.7247 3.0501 12.7364L3.0478 12.7373C3.0478 12.7373 3.10932 12.9563 3.1806 13.4136C3.19086 13.4792 3.20251 13.5156 3.23652 13.5128C3.25891 13.5109 3.27196 13.462 3.27476 13.3772C3.28409 13.1213 3.25145 12.8692 3.23187 12.7424C3.3624 12.7471 3.4896 12.7513 3.60892 12.755H3.60844ZM16.5385 12.6777L16.0953 12.6939C16.0725 12.7606 15.9853 13.0216 15.893 13.3972C15.879 13.4536 15.8637 13.4723 15.8394 13.4685C15.818 13.4653 15.8087 13.4489 15.8105 13.3898C15.8175 13.1418 15.8655 12.8547 15.8949 12.7014C15.6106 12.7117 15.2653 12.7242 14.9293 12.7359L14.9316 12.7368C14.9316 12.7368 14.8701 12.9559 14.7987 13.4131C14.7885 13.4788 14.7768 13.5151 14.7428 13.5123C14.7204 13.5105 14.7074 13.4616 14.7046 13.3767C14.6953 13.1209 14.7279 12.8687 14.7475 12.742C14.617 12.7466 14.4898 12.7508 14.3705 12.7545C14.3373 12.9414 14.2735 13.3143 14.2166 13.7323H15.1432C15.1683 13.5813 15.2457 13.1362 15.3091 12.9176C15.3305 12.8445 15.3445 12.8072 15.3864 12.8151C15.4307 12.823 15.4191 12.8822 15.4125 12.9689C15.393 13.2341 15.3785 13.4639 15.3762 13.7323H16.2286C16.3665 13.2169 16.4756 12.8687 16.5394 12.6767H16.538L16.5385 12.6777ZM9.15541 1.27391C7.75447 1.27391 6.19599 3.40004 6.19599 5.24095C6.19599 6.00434 6.46445 6.37439 6.91652 6.26439C6.84522 5.99922 6.90952 5.7 7.10992 5.50285C7.01158 5.97126 7.29682 6.3357 7.75957 6.31334C8.54815 6.27512 9.22672 5.09134 10.4776 5.09134C10.8383 5.09134 11.1669 5.24465 11.3127 5.49587C11.3118 5.49587 11.1394 5.40549 10.7409 5.40549C10.6001 5.40549 10.4669 5.42317 10.3387 5.453C10.5358 6.84789 9.02354 7.44725 8.16786 6.74395C8.022 6.80175 7.87147 6.83576 7.71393 6.83576C7.46554 6.83576 7.27301 6.75513 7.13646 6.63074C6.73195 7.18252 6.11351 7.78048 5.32681 8.19947C6.01517 8.58907 6.5963 9.11245 6.94028 9.67546C5.06723 8.43853 3.8946 7.96503 2.92713 7.96503C2.20475 7.96503 1.79974 8.2288 1.79974 8.66225C1.79974 9.00525 2.05327 9.36457 2.44057 9.64188C3.0357 10.0404 3.92727 10.2417 4.64079 10.0217C3.73894 9.30307 3.18065 8.94701 2.63492 8.7354C4.69296 8.70884 6.18481 11.5196 9.02957 11.5196C10.1821 11.5196 11.2741 11.0582 11.8455 10.3228C12.2938 9.74582 12.497 8.91204 12.497 7.76415C12.497 4.4617 10.8705 1.27344 9.15541 1.27344V1.27391ZM7.24788 4.6691C7.22969 4.86533 7.11412 5.01539 6.99015 5.00373C6.86618 4.99208 6.78042 4.82384 6.79858 4.62716C6.81676 4.43093 6.93235 4.28135 7.05633 4.29253C7.1803 4.30419 7.26603 4.47243 7.24788 4.6691ZM7.64215 3.44013C7.55127 3.61489 7.38443 3.70855 7.26931 3.64891C7.15419 3.58923 7.13463 3.39911 7.22549 3.22387C7.31638 3.0491 7.48322 2.95541 7.59834 3.01509C7.71343 3.07473 7.73301 3.26488 7.64215 3.44013ZM8.18882 4.94921C8.10961 5.13003 7.95115 5.2349 7.83415 5.18363C7.71718 5.13236 7.68687 4.94453 7.76565 4.76416C7.84486 4.58334 8.00332 4.47848 8.12031 4.52975C8.23728 4.58102 8.2676 4.76886 8.18882 4.94921ZM8.04153 2.51127C7.95347 2.41573 7.99914 2.23023 8.14407 2.09601C8.28903 1.96225 8.47778 1.93104 8.56586 2.0261C8.65395 2.12164 8.60828 2.30714 8.46332 2.44139C8.31839 2.57512 8.12962 2.60633 8.04153 2.51127ZM8.96294 3.8852C8.82173 4.02268 8.63391 4.05904 8.54348 3.96628C8.45307 3.87357 8.49411 3.68667 8.63576 3.54917C8.77697 3.41169 8.96479 3.37535 9.05523 3.46806C9.14564 3.56085 9.10417 3.74769 8.96294 3.8852ZM10.0633 3.17167C9.88385 3.2532 9.69462 3.22342 9.64058 3.10457C9.58651 2.98572 9.6881 2.82351 9.86754 2.74198C10.047 2.6604 10.2362 2.69024 10.2903 2.80908C10.3443 2.9279 10.2427 3.09012 10.0633 3.17167ZM7.13881 8.31784C7.01251 8.3509 6.8699 8.22275 6.82004 8.03213C6.77017 7.84153 6.83217 7.66023 6.95799 7.62715C7.08429 7.59406 7.22692 7.72221 7.27676 7.91283C7.32663 8.10346 7.26466 8.28473 7.13881 8.31784ZM7.71951 9.4387C7.60999 9.50767 7.4357 9.42799 7.33083 9.26113C7.22597 9.09429 7.22969 8.90319 7.33969 8.83421C7.44923 8.76524 7.62352 8.84497 7.72836 9.01178C7.83323 9.1786 7.8295 9.36969 7.71951 9.4387ZM7.7512 7.59078C7.65941 7.41646 7.67804 7.22589 7.79316 7.16482C7.90826 7.10379 8.07652 7.19603 8.16881 7.37035C8.26059 7.54464 8.24196 7.73529 8.12682 7.79634C8.01172 7.85736 7.84348 7.76507 7.75117 7.59078H7.7512ZM8.66888 10.3717C8.58777 10.4701 8.39852 10.4482 8.24661 10.3223C8.09468 10.197 8.03736 10.0152 8.11846 9.91686C8.19952 9.81852 8.38877 9.84043 8.54068 9.96625C8.69264 10.0917 8.74993 10.2734 8.66888 10.3718V10.3717ZM8.88416 8.65899C8.79327 8.75128 8.60548 8.71352 8.46517 8.57461C8.32492 8.43621 8.28528 8.24884 8.37619 8.15658C8.46705 8.06429 8.65487 8.10205 8.79517 8.24093C8.93543 8.37936 8.97507 8.56671 8.88416 8.65899ZM9.9039 9.31845C9.84376 9.43962 9.65176 9.46711 9.47511 9.3795C9.29849 9.29187 9.20433 9.1227 9.26448 9.0011C9.32458 8.87991 9.5166 8.85239 9.69322 8.94C9.86987 9.02764 9.964 9.19683 9.9039 9.31845ZM10.1225 7.92264C9.94164 8.00092 9.7515 7.96365 9.69745 7.83968C9.64385 7.71571 9.74682 7.55117 9.92766 7.47289C10.1085 7.39458 10.2986 7.43187 10.3527 7.55582C10.4063 7.67979 10.3033 7.84433 10.1225 7.92264ZM11.117 9.72948C11.0849 9.86094 10.9036 9.92944 10.712 9.88239C10.5205 9.8353 10.3914 9.69082 10.424 9.55894C10.4562 9.42752 10.6375 9.35899 10.829 9.40608C11.0206 9.45313 11.1496 9.59763 11.117 9.72951V9.72948ZM11.3929 7.52181C11.199 7.55677 11.0219 7.47566 10.9977 7.34099C10.9734 7.20628 11.1109 7.06835 11.3048 7.03339C11.4987 6.99845 11.6758 7.07906 11.7 7.21421C11.7243 7.34889 11.5868 7.48687 11.3929 7.52183L11.3929 7.52181ZM5.57333 7.54419C5.44053 7.0031 5.55937 6.59297 5.98439 6.29471C6.11211 6.53285 6.29803 6.6708 6.5311 6.69596C6.26962 7.00868 5.95177 7.28879 5.57333 7.54419Z" fill="white"/>
<path d="M9.13374 0.848633C7.5501 0.848633 5.78424 3.09223 5.78424 5.27334C5.78424 5.49986 5.80332 5.70214 5.84016 5.87828C5.17415 6.29682 4.93509 6.98703 5.15832 7.80125C5.06186 7.85622 4.96165 7.90979 4.85863 7.96296C4.30872 7.77886 3.96896 7.70521 3.49218 7.64369C2.88354 7.57659 2.23899 7.63904 1.84144 7.9229C1.71839 8.01095 1.62518 8.11672 1.56228 8.23887C1.49983 8.36052 1.46582 8.50077 1.46582 8.66063C1.46582 8.84285 1.50774 9.01297 1.58232 9.17095C1.68435 9.38676 1.84892 9.58154 2.05725 9.7526C2.35084 10.0071 2.73671 10.2135 3.17063 10.3356C3.70284 10.4852 4.45878 10.4629 5.04973 10.2849C5.09355 10.3119 5.14107 10.3412 5.19374 10.3729C6.73308 11.5315 7.77846 11.9626 9.03027 11.9626C10.3902 11.9626 11.5833 11.4425 12.2306 10.5472C12.6855 9.91804 12.9474 9.01297 12.9316 7.73365C12.8868 4.14643 11.1806 0.850058 9.13371 0.850058V0.848658L9.13374 0.848633ZM5.98414 6.29542C6.11184 6.53356 6.29776 6.67151 6.53083 6.6967C6.26935 7.00939 5.95151 7.2895 5.57308 7.5449C5.44028 7.00379 5.55908 6.59368 5.98414 6.29542ZM11.8452 10.323C11.2743 11.0585 10.1823 11.5199 9.0293 11.5199C6.18455 11.5199 4.69272 8.70862 2.63462 8.73566C3.18038 8.94724 3.7387 9.30333 4.6405 10.022C3.92747 10.242 3.03543 10.0406 2.4403 9.64214C2.05347 9.36483 1.79945 9.00551 1.79945 8.66251C1.79945 8.22909 2.20448 7.96529 2.92686 7.96529C3.55555 7.96529 4.27093 8.16521 5.20817 8.6443C5.71384 8.90252 6.28383 9.24181 6.94001 9.6752C6.59606 9.11273 6.01491 8.58935 5.32654 8.19925C6.11324 7.78072 6.73168 7.18231 7.13621 6.63097C7.27277 6.75542 7.46479 6.83605 7.71364 6.83605C7.87115 6.83605 8.02171 6.80154 8.16756 6.74421C9.02324 7.44749 10.5356 6.8486 10.3385 5.45324C10.4666 5.42345 10.5999 5.40572 10.7407 5.40572C11.1396 5.40572 11.312 5.49613 11.3125 5.49613C11.1666 5.24493 10.838 5.0916 10.4773 5.0916C9.22645 5.0916 8.54786 6.27538 7.75933 6.31357C7.29653 6.33596 7.01177 5.97152 7.10965 5.50313C6.90925 5.70028 6.84495 5.99948 6.91623 6.26468C6.46415 6.37465 6.1957 6.00458 6.1957 5.24118C6.1957 3.40027 7.75468 1.27415 9.15515 1.27415C10.8702 1.27415 12.4967 4.46243 12.4967 7.76488C12.4967 8.9123 12.2935 9.74608 11.8452 10.3235V10.323Z" fill="#010101"/>
<path d="M9.22398 6.54519C8.99982 6.6384 8.77146 6.61556 8.60645 6.50464C8.96253 6.26508 9.31439 5.94398 9.71475 5.71094C9.77857 6.03719 9.56839 6.4021 9.22398 6.54519Z" fill="#CF4520"/>
<path d="M7.24758 4.66951C7.22943 4.86574 7.11383 5.01532 6.98986 5.00414C6.86589 4.99249 6.78013 4.82427 6.79834 4.62757C6.81649 4.43137 6.93209 4.28177 7.05606 4.29294C7.18001 4.3046 7.26577 4.47284 7.24758 4.66951ZM7.59807 3.0155C7.48298 2.95585 7.31611 3.04906 7.22525 3.22428C7.13434 3.39907 7.15392 3.58967 7.26902 3.64935C7.38414 3.70899 7.551 3.61576 7.64186 3.44051C7.73277 3.26577 7.71319 3.07512 7.5981 3.0155H7.59807ZM8.56514 2.02654C8.47704 1.93101 8.28829 1.96222 8.14336 2.09644C7.99885 2.2302 7.95273 2.41617 8.04082 2.51171C8.1289 2.60724 8.31767 2.576 8.4626 2.44178C8.60754 2.30803 8.6532 2.12208 8.56514 2.02654ZM8.12005 4.53019C8.00308 4.47892 7.84462 4.58423 7.76536 4.7646C7.68615 4.94542 7.71689 5.13324 7.83389 5.18406C7.95086 5.23533 8.10932 5.12999 8.18855 4.94962C8.26778 4.7688 8.23704 4.58098 8.12002 4.53019H8.12005ZM9.05493 3.4685C8.96452 3.37576 8.7767 3.4121 8.6355 3.54961C8.49429 3.68709 8.4528 3.87398 8.54321 3.96672C8.63362 4.05945 8.82144 4.02311 8.96267 3.88564C9.10388 3.74813 9.14537 3.56126 9.05493 3.4685ZM10.2904 2.8095C10.2364 2.69067 10.0472 2.66084 9.86772 2.74239C9.6883 2.82395 9.58669 2.98659 9.64076 3.10496C9.69483 3.22383 9.88403 3.25364 10.0635 3.17209C10.2429 3.09055 10.3445 2.92787 10.2904 2.8095ZM8.11817 9.91727C8.03709 10.0156 8.09441 10.1969 8.24635 10.3228C8.39828 10.4481 8.58748 10.4705 8.66858 10.3721C8.74969 10.2738 8.69234 10.0925 8.54043 9.96669C8.38848 9.84129 8.19928 9.81896 8.11817 9.91727ZM7.3394 8.83463C7.22988 8.9036 7.22568 9.09468 7.33054 9.26154C7.43541 9.42838 7.60927 9.50806 7.71924 9.43911C7.82878 9.37013 7.83294 9.17906 7.7281 9.0122C7.62323 8.84536 7.44939 8.76568 7.3394 8.83463ZM6.9577 7.62756C6.8314 7.66065 6.76987 7.84197 6.81977 8.03257C6.86964 8.22319 7.01224 8.35134 7.13854 8.31825C7.26484 8.28516 7.32637 8.10387 7.27652 7.91325C7.22663 7.72265 7.08402 7.5945 6.95772 7.62756H6.9577ZM9.26372 9.00149C9.20362 9.12266 9.29775 9.2923 9.4744 9.37991C9.65101 9.46755 9.84304 9.44004 9.90314 9.31889C9.96329 9.19769 9.86912 9.02803 9.69251 8.94044C9.51589 8.85281 9.32386 8.88032 9.26372 9.00147V9.00149ZM10.4233 9.55933C10.3911 9.69076 10.5202 9.83574 10.7113 9.88278C10.9028 9.92985 11.0841 9.86135 11.1163 9.72992C11.1484 9.5985 11.0193 9.45357 10.8283 9.40647C10.6367 9.35943 10.4554 9.42791 10.4233 9.55933ZM8.37637 8.15699C8.28551 8.24928 8.3251 8.43615 8.46541 8.57505C8.60568 8.71345 8.79303 8.75122 8.88437 8.65941C8.97573 8.56757 8.93564 8.38023 8.79533 8.24135C8.65505 8.10292 8.46771 8.06518 8.37637 8.15699ZM7.79335 7.16523C7.67823 7.2263 7.65912 7.4169 7.7514 7.59122C7.84319 7.76554 8.01146 7.85732 8.12705 7.79672C8.24214 7.7357 8.26125 7.54508 8.16897 7.37076C8.07718 7.19647 7.90892 7.10466 7.79332 7.16523H7.79335ZM10.3524 7.55626C10.2988 7.43228 10.1082 7.39499 9.92737 7.4733C9.74655 7.55161 9.64356 7.71564 9.69716 7.84007C9.75075 7.96404 9.94135 8.00133 10.1222 7.92302C10.303 7.84474 10.406 7.68068 10.3524 7.55626ZM11.6998 7.21462C11.6755 7.07995 11.4984 6.99884 11.3046 7.0338C11.1107 7.06877 10.9732 7.20625 10.9974 7.34142C11.0217 7.4761 11.1988 7.55718 11.3927 7.52224C11.5865 7.48728 11.724 7.3498 11.6998 7.21462Z" fill="#010101"/>
<path d="M2.44077 9.64248C3.0359 10.041 3.92745 10.2423 4.64052 10.0223C3.73872 9.30367 3.18038 8.94761 2.63465 8.736C2.23617 8.74485 1.96214 8.96346 2.1192 9.36004C2.21053 9.46026 2.31912 9.55532 2.4403 9.64248H2.44077ZM9.02977 11.5202C10.1823 11.5202 11.2743 11.0588 11.8457 10.3234C12.294 9.74642 12.4972 8.91267 12.4972 7.76478C12.4972 6.0287 12.0479 4.32434 11.3722 3.09814C11.4242 3.21692 11.4772 3.3353 11.5311 3.45328C12.2884 5.1171 12.7498 8.57384 11.5185 10.0875C10.5281 11.3044 7.8255 11.7388 5.35777 9.99019C6.39192 10.7289 7.52026 11.5202 9.02932 11.5202H9.02977ZM10.2019 4.75964C9.08384 4.789 8.31019 5.87397 7.69873 5.93922C7.39486 5.97138 7.17395 5.79709 7.10965 5.50345C7.01131 5.97186 7.29655 6.33627 7.75935 6.31394C8.54791 6.27572 9.22645 5.09194 10.4773 5.09194C10.838 5.09194 11.1666 5.24525 11.3125 5.49647C11.1904 5.1199 10.8036 4.74333 10.2019 4.75919V4.75964ZM6.91625 6.26499C6.47958 6.37126 6.21441 6.0301 6.19667 5.31938C6.261 5.89355 6.64922 5.97746 6.90415 5.88935C6.87901 6.01381 6.88315 6.14241 6.91625 6.26499Z" fill="#89734C"/>
<path d="M10.0311 15.1626C9.85301 15.1626 9.70898 15.3071 9.70898 15.4851C9.70898 15.6632 9.85301 15.8072 10.0311 15.8072C10.2091 15.8072 10.3526 15.6631 10.3526 15.4851C10.3526 15.3071 10.2091 15.1626 10.0311 15.1626ZM10.0311 15.7377C9.89075 15.7377 9.77796 15.6245 9.77796 15.4846C9.77796 15.3448 9.89075 15.2311 10.0311 15.2311C10.1714 15.2311 10.2837 15.3444 10.2837 15.4846C10.2837 15.6249 10.1704 15.7377 10.0311 15.7377Z" fill="#010101"/>
<path d="M10.1637 15.4093C10.1637 15.3492 10.1147 15.2998 10.0546 15.2998H9.89941V15.668H9.96839V15.5188H10.0178L10.0877 15.668H10.1637L10.091 15.5123C10.1123 15.5048 10.1307 15.4908 10.1437 15.4724C10.1567 15.4539 10.1637 15.4319 10.1637 15.4093ZM10.0546 15.4494H9.96839V15.3693H10.0546C10.077 15.3693 10.0947 15.387 10.0947 15.4093C10.0947 15.4317 10.077 15.4494 10.0546 15.4494Z" fill="#010101"/>
</g>
<defs>
<clipPath id="clip0_2_7525">
<rect width="17.9784" height="16" fill="white"/>
</clipPath>
</defs>
</svg>
