<svg width="17" height="16" viewBox="0 0 17 16" fill="none" xmlns="http://www.w3.org/2000/svg">
<g clip-path="url(#clip0_2_7163)">
<path d="M16.8716 4.99112C16.8716 4.80053 16.8717 4.61 16.8705 4.41941C16.8696 4.25888 16.8677 4.09839 16.8634 3.93791C16.8539 3.58835 16.8333 3.23572 16.7712 2.89006C16.7081 2.53904 16.6052 2.21235 16.4428 1.89345C16.2834 1.58019 16.0751 1.29361 15.8265 1.04505C15.578 0.7965 15.2913 0.588146 14.978 0.428633C14.6593 0.266373 14.3327 0.163459 13.9819 0.10039C13.6361 0.0382068 13.2834 0.0176417 12.9337 0.00815693C12.7732 0.00381344 12.6127 0.00195195 12.4521 0.000976878C12.2616 -8.68336e-05 12.071 1.80903e-06 11.8804 1.80903e-06H5.90718C5.71659 1.80903e-06 5.52606 -8.68336e-05 5.33547 0.00106552C5.17494 0.00204059 5.01445 0.00390209 4.85397 0.00824558C4.50427 0.017686 4.15152 0.0382954 3.80572 0.100478C3.45492 0.163548 3.1284 0.266462 2.80965 0.428722C2.49634 0.58819 2.20967 0.796545 1.96111 1.04514C1.7126 1.2937 1.50425 1.58028 1.34478 1.89354C1.18243 2.21243 1.07947 2.53913 1.01641 2.89015C0.954311 3.23577 0.933701 3.58839 0.924261 3.93795C0.919917 4.09844 0.918056 4.25893 0.917081 4.41946C0.915929 4.60995 0.916017 4.80053 0.916017 4.99112V10.9645C0.916017 11.1551 0.915929 11.3456 0.917081 11.5362C0.918056 11.6967 0.919917 11.8572 0.924261 12.0177C0.933701 12.3672 0.954311 12.7199 1.01641 13.0655C1.07947 13.4166 1.18243 13.7432 1.34478 14.0621C1.50425 14.3754 1.7126 14.662 1.96111 14.9105C2.20967 15.1591 2.49634 15.3674 2.80965 15.527C3.1284 15.6892 3.45488 15.7921 3.80572 15.8552C4.15152 15.9174 4.50427 15.938 4.85397 15.9474C5.01445 15.9518 5.17494 15.9536 5.33547 15.9546C5.52606 15.9558 5.71659 15.9557 5.90718 15.9557H11.8806C12.0712 15.9557 12.2617 15.9558 12.4523 15.9546C12.6128 15.9536 12.7733 15.9518 12.9338 15.9474C13.2835 15.938 13.6362 15.9174 13.982 15.8552C14.3328 15.7921 14.6594 15.6892 14.9781 15.527C15.2914 15.3675 15.5781 15.1591 15.8266 14.9105C16.0752 14.662 16.2835 14.3754 16.443 14.0621C16.6053 13.7432 16.7083 13.4166 16.7714 13.0655C16.8334 12.7199 16.8541 12.3672 16.8635 12.0177C16.8678 11.8572 16.8697 11.6967 16.8707 11.5362C16.8718 11.3456 16.8717 11.1551 16.8717 10.9645L16.8716 4.99112Z" fill="url(#paint0_linear_2_7163)"/>
<path d="M8.88854 5.80261C9.54795 5.80261 10.0825 6.33699 10.0825 6.99618C10.0825 7.65537 9.54795 8.18976 8.88854 8.18976C8.22913 8.18976 7.69461 7.65537 7.69461 6.99618C7.6947 6.33699 8.22922 5.80261 8.88854 5.80261ZM12.3253 7.41462C12.3253 8.59255 11.7292 9.63374 10.8228 10.253C10.7766 10.2846 10.714 10.2489 10.7174 10.1931C10.7301 9.98362 10.734 9.79818 10.7233 9.60728C10.7197 9.54452 10.7444 9.48345 10.7902 9.44041C11.3307 8.93307 11.669 8.21262 11.669 7.41462C11.669 5.8456 10.3616 4.57602 8.77876 4.63731C7.32231 4.69373 6.14767 5.88349 6.10928 7.34003C6.08748 8.16768 6.42973 8.91738 6.98716 9.44055C7.03294 9.48354 7.05749 9.54461 7.05399 9.60728C7.04327 9.79818 7.04717 9.98357 7.05993 10.1932C7.0633 10.2489 7.00085 10.2846 6.95476 10.2532C6.03673 9.62617 5.43688 8.56631 5.45218 7.3699C5.47549 5.55086 6.93433 4.05205 8.75274 3.98162C10.7093 3.90583 12.3253 5.47507 12.3253 7.41462ZM8.87374 2.28615C11.7093 2.27813 14.0187 4.58187 14.0187 7.41466C14.0187 9.64793 12.5833 11.552 10.5864 12.2541C10.5375 12.2713 10.4878 12.2307 10.4955 12.1794C10.522 12.004 10.5469 11.8276 10.5697 11.6542C10.5778 11.5929 10.6166 11.5399 10.6733 11.5152C12.2544 10.8248 13.3623 9.24673 13.3623 7.41462C13.3623 4.93635 11.3354 2.92243 8.85175 2.94251C6.42224 2.96214 4.43841 4.94206 4.41501 7.37078C4.39715 9.22147 5.50993 10.8192 7.10346 11.5151C7.16014 11.5398 7.19923 11.5927 7.2073 11.654C7.23021 11.8274 7.25517 12.0039 7.28158 12.1794C7.28929 12.2307 7.23961 12.2713 7.19064 12.2541C5.1745 11.5452 3.73069 9.61101 3.7587 7.34991C3.79349 4.55864 6.08149 2.29409 8.87374 2.28615ZM8.88859 8.67206C9.34252 8.67206 9.72706 8.82009 9.94591 9.05096C10.0602 9.17147 10.1206 9.295 10.1396 9.47095C10.1764 9.81169 10.1557 10.1051 10.1158 10.5742C10.0778 11.0212 10.0056 11.6172 9.91126 12.2243C9.8442 12.6563 9.78968 12.8895 9.74004 13.0565C9.65955 13.327 9.35883 13.5638 8.88859 13.5638C8.41834 13.5638 8.11757 13.327 8.03713 13.0565C7.98749 12.8895 7.93297 12.6563 7.86587 12.2243C7.7716 11.6172 7.6994 11.0212 7.66133 10.5742C7.62139 10.1051 7.6007 9.81174 7.63753 9.47095C7.65654 9.295 7.71695 9.17147 7.83121 9.05096C8.05016 8.82009 8.43469 8.67206 8.88859 8.67206Z" fill="white"/>
</g>
<defs>
<linearGradient id="paint0_linear_2_7163" x1="8.89386" y1="1.80903e-06" x2="8.89386" y2="15.9557" gradientUnits="userSpaceOnUse">
<stop stop-color="#D56EFC"/>
<stop offset="1" stop-color="#832BC1"/>
</linearGradient>
<clipPath id="clip0_2_7163">
<rect width="16" height="16" fill="white" transform="translate(0.916016)"/>
</clipPath>
</defs>
</svg>
