<svg width="121" height="64" viewBox="0 0 121 64" fill="none" xmlns="http://www.w3.org/2000/svg">
<g clip-path="url(#clip0_756_268)">
<g clip-path="url(#clip1_756_268)">
<path d="M116.735 38.1104C116.807 38.93 117.463 39.9736 118.6 39.9736H119.264C119.388 39.973 119.507 39.9234 119.595 39.8355C119.683 39.7476 119.733 39.6286 119.733 39.5043V24.8846H119.73C119.724 24.7651 119.672 24.6526 119.585 24.5701C119.498 24.4876 119.383 24.4414 119.264 24.4411H117.205C117.085 24.4414 116.97 24.4876 116.883 24.5701C116.797 24.6526 116.745 24.7651 116.738 24.8846H116.735V26.0729C115.473 24.5171 113.483 23.8711 111.488 23.8711C110.41 23.8713 109.341 24.0841 108.345 24.4973C107.348 24.9104 106.443 25.5159 105.68 26.279C104.917 27.0421 104.313 27.9479 103.9 28.9448C103.488 29.9417 103.276 31.0101 103.276 32.0889C103.275 33.1679 103.487 34.2365 103.9 35.2335C104.312 36.2306 104.917 37.1366 105.68 37.8999C106.442 38.6633 107.348 39.2689 108.344 39.6822C109.341 40.0955 110.409 40.3085 111.488 40.3089C113.483 40.3089 115.658 39.5343 116.735 38.1082V38.1104ZM111.496 37.4321C108.612 37.4321 106.274 35.0407 106.274 32.09C106.274 29.1393 108.612 26.7479 111.496 26.7479C114.381 26.7479 116.719 29.1393 116.719 32.09C116.719 35.0407 114.381 37.4321 111.496 37.4321ZM100.672 38.6129V31.0486C100.672 26.7832 97.9831 23.9064 93.6974 23.9064C91.6509 23.9064 89.9731 25.0904 89.3806 26.1082C89.252 25.3121 88.8309 24.4764 87.5217 24.4764H86.8552C86.7309 24.4767 86.6117 24.5262 86.5237 24.6142C86.4358 24.7021 86.3862 24.8213 86.3859 24.9457V39.5664H86.3892C86.402 39.8129 86.6067 40.01 86.8552 40.01H88.9156C88.9467 40.01 88.9777 40.0057 89.0077 40.0004C89.0217 39.9982 89.0334 39.9918 89.0474 39.9886L89.0934 39.9746C89.1117 39.9661 89.1277 39.9564 89.1449 39.9468L89.1706 39.9329C89.1907 39.919 89.2097 39.9036 89.2274 39.8868L89.2381 39.8793C89.3242 39.7972 89.3756 39.6852 89.3817 39.5664H89.3838V30.9307C89.3835 29.8312 89.82 28.7766 90.5971 27.9988C91.3743 27.221 92.4286 26.7838 93.5281 26.7832C94.6274 26.7838 95.6815 27.2209 96.4587 27.9984C97.2358 28.776 97.6724 29.8303 97.6724 30.9296L97.6734 38.1489V38.1468L97.6756 38.1661V39.5664H97.6777C97.6917 39.8129 97.8952 40.01 98.1438 40.01H100.204C100.235 40.0097 100.266 40.0065 100.296 40.0004C100.308 39.9982 100.32 39.9929 100.332 39.9896C100.349 39.9854 100.366 39.9811 100.382 39.9746C100.399 39.9671 100.414 39.9575 100.43 39.9489L100.459 39.9329C100.478 39.9198 100.496 39.9054 100.513 39.89L100.527 39.8793C100.546 39.8604 100.563 39.84 100.579 39.8182L100.582 39.8139C100.635 39.7419 100.665 39.6564 100.67 39.5675H100.673L100.672 38.6129ZM79.2202 38.1104C79.292 38.93 79.9488 39.9736 81.0845 39.9736H81.7488C82.0059 39.9736 82.217 39.7625 82.217 39.5043V24.8846H82.2149C82.2083 24.7652 82.1564 24.6528 82.0698 24.5704C81.9832 24.488 81.8684 24.4417 81.7488 24.4411H79.6884C79.5689 24.4417 79.454 24.488 79.3674 24.5704C79.2808 24.6528 79.2289 24.7652 79.2224 24.8846H79.2202V26.0729C77.9581 24.5171 75.9684 23.8711 73.9724 23.8711C72.8936 23.8715 71.8255 24.0844 70.829 24.4976C69.8325 24.9108 68.9272 25.5163 68.1647 26.2794C67.4022 27.0425 66.7974 27.9483 66.385 28.9451C65.9726 29.9419 65.7605 31.0102 65.7609 32.0889C65.7609 36.6286 69.437 40.3089 73.9724 40.3089C75.9684 40.3089 78.1424 39.5343 79.2202 38.1082V38.1104ZM73.9809 37.4321C71.0967 37.4321 68.7577 35.0407 68.7577 32.09C68.7577 29.1393 71.0967 26.7479 73.9809 26.7479C76.8652 26.7479 79.2031 29.1393 79.2031 32.09C79.2031 35.0407 76.8652 37.4321 73.9809 37.4321ZM53.5799 36.0157C54.9545 36.9693 56.4556 37.4321 57.8977 37.4321C59.2724 37.4321 60.6931 36.7196 60.6931 35.4789C60.6931 33.8225 57.5967 33.5643 55.652 32.9021C53.7074 32.2411 52.0317 30.8739 52.0317 28.6593C52.0317 25.2704 55.0488 23.87 57.8645 23.87C59.6484 23.87 61.4892 24.4593 62.6827 25.3036C63.0942 25.6143 62.8434 25.9732 62.8434 25.9732L61.7045 27.6018C61.5759 27.7839 61.3531 27.9425 61.0317 27.7443C60.7102 27.5461 59.5831 26.7479 57.8645 26.7479C56.147 26.7479 55.1109 27.5407 55.1109 28.5264C55.1109 29.705 56.4567 30.0768 58.0327 30.4796C60.7777 31.22 63.7724 32.1104 63.7724 35.4789C63.7724 38.4639 60.9824 40.3089 57.8977 40.3089C55.5609 40.3089 53.5713 39.6425 51.902 38.4168C51.5549 38.0686 51.797 37.745 51.797 37.745L52.9306 36.125C53.162 35.8229 53.4524 35.9279 53.5799 36.0157ZM45.6609 38.1104C45.7338 38.93 46.3895 39.9736 47.5252 39.9736H48.1895C48.3138 39.973 48.4328 39.9234 48.5207 39.8355C48.6086 39.7476 48.6582 39.6286 48.6588 39.5043V24.8846H48.6556C48.6493 24.7651 48.5975 24.6526 48.5108 24.5701C48.4241 24.4876 48.3092 24.4414 48.1895 24.4411H46.1302C46.0107 24.4417 45.8958 24.488 45.8092 24.5704C45.7226 24.6528 45.6707 24.7652 45.6642 24.8846H45.6609V26.0729C44.3988 24.5171 42.4092 23.8711 40.4142 23.8711C38.2354 23.8719 36.1462 24.7382 34.6061 26.2793C33.066 27.8204 32.2011 29.9102 32.2017 32.0889C32.2017 36.6286 35.8788 40.3089 40.4142 40.3089C42.4092 40.3089 44.5842 39.5343 45.6609 38.1082V38.1104ZM40.4217 37.4321C37.5374 37.4321 35.1995 35.0407 35.1995 32.09C35.1995 29.1393 37.5374 26.7479 40.4227 26.7479C43.307 26.7479 45.6449 29.1393 45.6449 32.09C45.6449 35.0407 43.3059 37.4321 40.4217 37.4321Z" fill="#690031"/>
<path d="M20.6891 32.6482C19.2233 32.6482 17.8175 33.2305 16.781 34.267C15.7445 35.3035 15.1622 36.7093 15.1622 38.1752C15.1622 39.641 15.7445 41.0468 16.781 42.0833C17.8175 43.1198 19.2233 43.7022 20.6891 43.7022C22.155 43.7022 23.5608 43.1198 24.5973 42.0833C25.6338 41.0468 26.2161 39.641 26.2161 38.1752C26.2161 36.7093 25.6338 35.3035 24.5973 34.267C23.5608 33.2305 22.155 32.6482 20.6891 32.6482ZM6.33092 32.6493C5.59877 32.6391 4.8719 32.7745 4.19253 33.0476C3.51316 33.3208 2.89484 33.7262 2.37349 34.2403C1.85215 34.7544 1.43817 35.3671 1.15561 36.0426C0.873046 36.7181 0.727539 37.443 0.727539 38.1752C0.727539 38.9074 0.873046 39.6323 1.15561 40.3078C1.43817 40.9833 1.85215 41.5959 2.37349 42.1101C2.89484 42.6242 3.51316 43.0296 4.19253 43.3027C4.8719 43.5759 5.59877 43.7113 6.33092 43.7011C7.78315 43.6809 9.16905 43.0898 10.1889 42.0557C11.2087 41.0216 11.7804 39.6276 11.7804 38.1752C11.7804 36.7228 11.2087 35.3288 10.1889 34.2947C9.16905 33.2606 7.78315 32.6695 6.33092 32.6493ZM19.0359 25.7407C19.0359 27.2064 18.4537 28.6121 17.4173 29.6485C16.3809 30.6849 14.9752 31.2672 13.5095 31.2672C12.0438 31.2672 10.6381 30.6849 9.60171 29.6485C8.56531 28.6121 7.98306 27.2064 7.98306 25.7407C7.98306 24.275 8.56531 22.8694 9.60171 21.8329C10.6381 20.7965 12.0438 20.2143 13.5095 20.2143C14.9752 20.2143 16.3809 20.7965 17.4173 21.8329C18.4537 22.8694 19.0359 24.275 19.0359 25.7407Z" fill="#F06A6A"/>
</g>
</g>
<defs>
<clipPath id="clip0_756_268">
<rect width="120" height="64" fill="white" transform="translate(0.804688)"/>
</clipPath>
<clipPath id="clip1_756_268">
<rect width="120" height="23.5714" fill="white" transform="translate(0.804688 20.2143)"/>
</clipPath>
</defs>
</svg>
