<svg width="41" height="16" viewBox="0 0 41 16" fill="none" xmlns="http://www.w3.org/2000/svg">
<g clip-path="url(#clip0_768_1011)">
<g clip-path="url(#clip1_768_1011)">
<path d="M24.3276 3.37253H19.0945V4.774H21.0189V12.6388H22.394V4.774H24.3276V3.37253Z" fill="#E01E2B"/>
<path d="M39.1847 3.37253H37.7292V12.6388H39.1847V3.37253Z" fill="#E01E2B"/>
<path d="M15.6098 8.99469L16.6372 5.45413L17.666 8.99469H15.6098ZM17.7173 4.25287C17.5856 3.726 17.1733 3.36115 16.6372 3.36115C16.4159 3.36088 16.1996 3.42752 16.0167 3.55233C15.8338 3.67714 15.6929 3.85429 15.6125 4.06056C15.5914 4.11852 13.123 12.638 13.123 12.638H14.5509L15.2305 10.3026H18.0453L18.7197 12.6354H20.162L17.7173 4.25287Z" fill="#E01E2B"/>
<path d="M25.8462 8.99469L26.871 5.45413L27.8957 8.99469H25.8462ZM27.9537 4.25287C27.822 3.726 27.4097 3.36115 26.8775 3.36115C26.6566 3.36159 26.441 3.42855 26.2587 3.5533C26.0764 3.67806 25.9359 3.85482 25.8554 4.06056C25.8343 4.11852 23.366 12.638 23.366 12.638H24.7951L25.4748 10.3026H28.2764L28.9495 12.6354H30.3891L27.9537 4.25287Z" fill="#E01E2B"/>
<path d="M36.4794 5.81325C36.4996 6.15101 36.4811 6.48998 36.4241 6.82352C36.3736 7.17222 36.2438 7.50472 36.0447 7.79543C35.8456 8.0861 35.5824 8.32723 35.2755 8.50029C34.9936 8.66494 34.8356 8.77821 34.8356 8.77821C34.794 8.81179 34.7605 8.85437 34.7377 8.90274C34.7149 8.95107 34.7033 9.00398 34.7039 9.05743C34.7021 9.16275 34.7324 9.26615 34.7908 9.3538C34.7908 9.3538 34.8883 9.48554 35.1701 9.92414C35.452 10.3628 36.9879 12.6388 36.9879 12.6388H35.3559L33.2563 9.46183C33.0961 9.25119 33.0117 8.99273 33.0166 8.72814C33.0123 8.52367 33.073 8.32311 33.1899 8.1553C33.3068 7.98753 33.474 7.86109 33.6673 7.79426C33.6673 7.79426 35.1161 7.32403 35.1161 6.19787C35.1187 6.00088 35.0939 5.80449 35.0424 5.61436C34.977 5.37516 34.8362 5.16344 34.6409 5.01062C34.4456 4.85781 34.2062 4.77206 33.9583 4.7661H32.8532C32.8118 4.76592 32.7707 4.77394 32.7323 4.78968C32.694 4.80542 32.6591 4.82858 32.6298 4.85783C32.6004 4.88708 32.5771 4.92185 32.5612 4.96013C32.5453 4.99841 32.5371 5.03945 32.5371 5.0809V12.6388H31.1436V4.54218C31.1432 4.23323 31.2652 3.93671 31.4829 3.71751C31.7006 3.49831 31.9964 3.37427 32.3053 3.37253H33.9201C34.2567 3.37235 34.59 3.43849 34.9009 3.56716C35.2119 3.69583 35.4945 3.88451 35.7325 4.12243C35.9706 4.36034 36.1594 4.64282 36.2882 4.95373C36.4171 5.26464 36.4833 5.59788 36.4833 5.93443" fill="#E01E2B"/>
<path d="M40.256 12.0794H40.3679C40.4059 12.083 40.4441 12.0747 40.4772 12.0556C40.4867 12.0482 40.4943 12.0385 40.4993 12.0275C40.5044 12.0165 40.5067 12.0045 40.5062 11.9924C40.5069 11.9762 40.5018 11.9603 40.4917 11.9476C40.4821 11.9341 40.4689 11.9236 40.4535 11.9173C40.423 11.9094 40.3915 11.9063 40.36 11.9081H40.256V12.0794ZM40.1638 12.4021V11.8291H40.36C40.4089 11.8271 40.4578 11.8329 40.5049 11.8462C40.5344 11.8563 40.5598 11.8757 40.5773 11.9015C40.5941 11.926 40.6033 11.9548 40.6037 11.9845C40.6041 12.0048 40.6003 12.025 40.5926 12.0438C40.5849 12.0626 40.5734 12.0796 40.5589 12.0938C40.5274 12.1256 40.485 12.1439 40.4403 12.1452C40.4584 12.1526 40.475 12.1633 40.4891 12.1768C40.5215 12.2112 40.5497 12.2492 40.5734 12.2901L40.6432 12.4021H40.5299L40.4798 12.3125C40.4558 12.2632 40.4233 12.2187 40.3837 12.1808C40.3616 12.1671 40.3359 12.1602 40.3099 12.161H40.256V12.4047L40.1638 12.4021ZM40.3969 11.6644C40.3203 11.6651 40.2451 11.685 40.1782 11.7224C40.1083 11.7597 40.0507 11.8165 40.0123 11.8857C39.9738 11.9531 39.9536 12.0294 39.9536 12.107C39.9536 12.1846 39.9738 12.2609 40.0123 12.3283C40.0513 12.397 40.1082 12.4539 40.1769 12.4929C40.2442 12.5309 40.3202 12.5508 40.3975 12.5508C40.4748 12.5508 40.5508 12.5309 40.6182 12.4929C40.6868 12.4542 40.7433 12.3972 40.7815 12.3283C40.8207 12.2611 40.8414 12.1848 40.8414 12.107C40.8414 12.0292 40.8207 11.9529 40.7815 11.8857C40.7442 11.816 40.6868 11.7591 40.6169 11.7224C40.5504 11.6852 40.4757 11.6653 40.3995 11.6644H40.3969ZM40.3995 11.5762C40.4917 11.5763 40.5824 11.5999 40.6629 11.6447C40.7462 11.6899 40.8147 11.758 40.8605 11.8409C40.9062 11.9213 40.9307 12.0119 40.9317 12.1044C40.9319 12.1968 40.9078 12.2876 40.8618 12.3678C40.8169 12.4509 40.7487 12.5191 40.6656 12.564C40.5855 12.6103 40.4946 12.6347 40.4021 12.6347C40.3097 12.6347 40.2188 12.6103 40.1387 12.564C40.0555 12.5188 39.9869 12.4507 39.9411 12.3678C39.8957 12.2874 39.8717 12.1967 39.8713 12.1044C39.8723 12.0119 39.8968 11.9213 39.9425 11.8409C39.9888 11.7579 40.0578 11.6899 40.1413 11.6447C40.222 11.5999 40.3126 11.5764 40.4048 11.5762" fill="#E01E2B"/>
<path d="M0.931641 12.6388C0.931641 12.6388 2.44507 12.4676 3.62394 11.4942C4.74749 10.5722 5.1532 9.77004 5.43374 8.85987C5.71429 7.9497 5.75645 5.779 5.75645 5.13359V3.37253H5.05834V4.03111C5.04649 5.01109 4.96087 6.87357 4.51171 8.08406C3.43427 10.9963 0.931641 11.2598 0.931641 11.2598V12.6388Z" fill="#E01E2B"/>
<path d="M12.449 12.6388C12.449 12.6388 10.9422 12.4676 9.75673 11.4942C8.63321 10.5722 8.22752 9.77004 7.94697 8.85987C7.66639 7.9497 7.62427 5.779 7.62427 5.13359V3.37253H8.32234V4.03111C8.33551 5.01109 8.41983 6.87357 8.86898 8.08406C9.953 10.9963 12.449 11.2598 12.449 11.2598V12.6388Z" fill="#E01E2B"/>
<path d="M7.33592 3.37253H6.04639V12.6388H7.33592V3.37253Z" fill="#E01E2B"/>
</g>
</g>
<defs>
<clipPath id="clip0_768_1011">
<rect width="40" height="16" fill="white" transform="translate(0.931641)"/>
</clipPath>
<clipPath id="clip1_768_1011">
<rect width="40" height="9.27768" fill="white" transform="translate(0.931641 3.36115)"/>
</clipPath>
</defs>
</svg>
