<svg width="15" height="16" viewBox="0 0 15 16" fill="none" xmlns="http://www.w3.org/2000/svg">
<g clip-path="url(#clip0_795_2137)">
<path d="M14.2696 0.251007L0.775391 0.251534C0.775391 0.560506 0.775786 1.09008 0.779079 1.18424C0.779605 1.19965 0.78 1.23258 0.780395 1.28131C0.796595 3.11881 0.982558 4.901 1.31813 6.43505C1.91198 9.15178 3.11428 11.3512 5.21648 13.5662C6.11433 14.5131 7.2593 15.4603 7.5285 15.6798C7.79733 15.464 8.93182 14.5392 9.82801 13.5945C11.9294 11.3791 13.1319 9.1796 13.7268 6.46269C14.0622 4.92945 14.2481 3.14739 14.2639 1.30949C14.2642 1.2605 14.2645 1.22744 14.2652 1.21203C14.269 1.10509 14.2695 0.513358 14.2696 0.251007Z" fill="white"/>
<path d="M11.3298 7.13928C11.2773 7.31048 11.2185 7.48302 11.1547 7.6561L11.1663 3.17125L12.0718 2.50208C12.0612 2.67632 12.0466 2.90587 12.036 3.03375C12.0332 3.06589 12.03 3.1108 12.026 3.16769C11.9872 3.71373 11.8687 5.37539 11.3298 7.13928ZM9.10494 4.69479V11.1808C9.50147 10.702 9.86723 10.1836 10.1907 9.64609V3.89232L9.10494 4.69479ZM6.96621 6.27547V12.2776C7.21133 12.5283 7.41679 12.7284 7.52608 12.8337C7.63408 12.7321 7.83494 12.5405 8.07412 12.3006V5.45668L6.96621 6.27547ZM4.854 7.8365V9.60196C5.18472 10.1566 5.56057 10.6917 5.96925 11.1847V7.01221L4.854 7.8365Z" fill="#E0092C"/>
<path d="M4.45597 6.62721C4.4906 6.55861 4.59597 6.53029 4.6447 6.59456C4.75072 6.54239 4.79655 6.53806 4.83961 6.56151L4.95881 6.58969C5.02938 6.51488 5.13345 6.54163 5.17758 6.63829C5.19982 6.68782 5.12635 6.7223 5.10379 6.67277C4.95314 6.70109 4.90876 6.70359 4.87043 6.68438L4.75401 6.64937C4.71252 6.69675 4.64812 6.74892 4.59715 6.67567C4.50378 6.71337 4.43147 6.67581 4.45597 6.62721ZM4.8566 6.86795C4.83184 6.91695 4.90402 6.95425 4.9974 6.91695C5.02085 6.95 5.06391 6.96148 5.15426 6.88997L5.27093 6.92472C5.30938 6.945 5.35351 6.94174 5.50403 6.91378C5.52686 6.96318 5.6006 6.9291 5.57782 6.87903C5.53382 6.78211 5.43002 6.75562 5.23997 6.80252C5.19745 6.77907 5.15096 6.78367 5.04519 6.8353C4.99686 6.7709 4.89098 6.79948 4.8566 6.86795ZM4.33151 6.67264C4.35403 6.72217 4.42805 6.68769 4.40553 6.63815C4.36075 6.54172 4.2571 6.51461 4.06771 6.56138C4.02452 6.53793 3.97881 6.54213 3.8724 6.59443C3.82367 6.53016 3.71844 6.55861 3.68393 6.62708C3.65931 6.67567 3.73174 6.71324 3.82472 6.67554C3.84803 6.70913 3.89149 6.72007 3.98145 6.64923L4.09814 6.68425C4.13659 6.70359 4.18071 6.70095 4.33151 6.67264ZM4.83013 7.02415C4.78746 7.00074 4.74123 7.00494 4.63548 7.05684C4.58714 6.99243 4.48139 7.02102 4.44662 7.08989C4.42252 7.13835 4.49416 7.1756 4.58754 7.13809C4.63864 7.2112 4.70304 7.15903 4.74426 7.1116L4.86095 7.14653C4.89941 7.16614 4.94366 7.16323 5.09446 7.13518C5.1171 7.18458 5.19084 7.15032 5.16793 7.1007C5.12371 7.00373 5.01938 6.97743 4.83013 7.02415ZM5.76996 6.37713C5.79274 6.41019 5.8366 6.42149 5.92683 6.35065L6.04309 6.3854C6.08155 6.40545 6.12608 6.40228 6.27673 6.37396C6.29924 6.42363 6.37276 6.38937 6.35038 6.33971C6.30612 6.24305 6.20218 6.21616 6.0124 6.26266C5.96948 6.23921 5.92392 6.24359 5.81762 6.29611C5.76889 6.2313 5.66393 6.26002 5.62945 6.32867C5.60399 6.3774 5.67711 6.41465 5.76996 6.37713ZM4.35337 6.88997L4.46993 6.92472C4.50839 6.945 4.55264 6.94174 4.70344 6.91378C4.72609 6.96318 4.79945 6.9291 4.77719 6.87903C4.73267 6.78211 4.62863 6.75562 4.55856 6.8303L4.43937 6.80252C4.39631 6.77907 4.35008 6.78367 4.24432 6.8353C4.19612 6.77103 4.09036 6.79962 4.05586 6.86795C4.03149 6.91695 4.10367 6.95425 4.19665 6.91695C4.24735 6.9894 4.31215 6.9379 4.35337 6.88997ZM5.34972 7.15769L5.49604 7.04961L5.42636 7.05684C5.3779 6.99243 5.27267 7.02102 5.23774 7.08989C5.21693 7.13139 5.27856 7.17471 5.34972 7.15769ZM4.25789 7.34287L4.37471 7.37767C4.4133 7.39768 4.45742 7.39437 4.60782 7.36619C4.63061 7.41612 4.70436 7.3816 4.68184 7.33171C4.63719 7.23514 4.53314 7.2083 4.46268 7.28325L4.34389 7.25515C4.30122 7.23188 4.25486 7.23621 4.1491 7.28825C4.10064 7.22371 3.99501 7.25229 3.96024 7.32063C3.93549 7.36949 4.00765 7.40674 4.10103 7.36923C4.12421 7.40241 4.16767 7.41402 4.25789 7.34287ZM3.97157 4.46861C3.77876 4.46861 3.61808 4.57371 3.55789 4.72043L4.39236 4.71874C4.33243 4.57215 4.16438 4.46861 3.97157 4.46861ZM4.70923 3.67829H5.54133L5.14332 2.84659V2.59649H5.24408V2.55896H5.14332L5.1067 2.44781V2.55896L5.04769 2.57924L4.99646 2.59649H5.1067V2.84659L4.70923 3.67829ZM5.01634 7.28825C4.96855 7.22371 4.86266 7.25229 4.82776 7.32117C4.8034 7.36949 4.87544 7.40674 4.90046 7.35801C4.90942 7.33984 4.95301 7.34761 4.98883 7.42443L5.2084 7.26216C5.16664 7.24542 5.1092 7.24278 5.01634 7.28825ZM12.343 2.15293L12.3386 2.23142L12.3355 2.28555C12.3354 2.28779 12.3349 2.29621 12.3342 2.3078C12.3283 2.41106 12.3026 2.85134 12.2856 3.05482C12.2829 3.08629 12.2798 3.13015 12.2759 3.18547C12.2365 3.73848 12.1165 5.42162 11.5692 7.21263C11.4619 7.5632 11.3296 7.91882 11.177 8.27413C10.677 9.438 9.95031 10.5993 9.09882 11.575C8.42135 12.3517 7.61747 13.0911 7.60943 13.0986L7.52354 13.1775L7.43859 13.0976C7.43073 13.0902 6.64776 12.3512 5.97091 11.575C5.15399 10.6386 4.45175 9.531 3.95458 8.41456C3.93377 8.36779 3.91336 8.32103 3.89321 8.27427C3.88886 8.26413 3.88465 8.25399 3.8803 8.24372C3.73319 7.89855 3.60518 7.5532 3.501 7.21277C2.9522 5.41783 2.83314 3.73493 2.7939 3.18191C2.79007 3.12831 2.78704 3.08564 2.78454 3.05508C2.76532 2.82882 2.73581 2.30768 2.73463 2.28568L2.72712 2.15319L12.343 2.15293ZM4.70923 4.79882V3.79854H5.54133V5.10884L6.28347 4.62865L7.77434 4.96962V4.58452L7.69318 4.60046L7.63878 4.78131L7.57875 4.78194L7.59876 4.56371C7.59876 4.56371 7.43993 4.66353 7.36396 4.70319L7.26583 4.69792L7.5645 4.50457L7.55159 4.38237L7.40215 4.40162L7.34877 4.34168L7.53145 4.22461L7.57201 4.16507L7.58045 4.20679L7.63592 4.22341L7.60269 4.25145L7.70202 4.36472L7.77447 4.35945V3.87479L7.69331 3.89139L7.63891 4.07168L7.57888 4.07262L7.59889 3.85451C7.59889 3.85451 7.44007 3.95407 7.36405 3.99398L7.26596 3.98845L7.56464 3.7955L7.55173 3.67302L7.40228 3.69225L7.34891 3.6322L7.53158 3.51525L7.57214 3.45585L7.58058 3.49707L7.63605 3.5138L7.60282 3.54185L7.70216 3.65537L7.7746 3.65024V3.45268C7.59233 3.41686 7.45284 3.25922 7.43743 3.07233H7.22987V2.8221H7.4281C7.46745 2.66195 7.61823 2.5666 7.7746 2.52182V2.42199H8.01244V2.52182C8.18364 2.57661 8.29968 2.62231 8.35868 2.8221H8.5565V3.07233H8.34881C8.33381 3.25922 8.19472 3.41673 8.01244 3.45268L8.01048 3.63364L8.12031 3.62666L8.37396 3.68172L8.56097 3.67434L8.36619 3.76574L8.25345 3.73268L8.37539 3.9201L8.35672 4.06457L8.31152 4.06864L8.30098 3.93234L8.18918 3.84555L8.2288 3.97633C8.2288 3.97633 8.18905 4.04772 8.161 4.07932L8.09579 4.07512C8.10794 4.05614 8.15702 3.97093 8.15702 3.97093L8.04456 3.82053L8.00874 3.82764L8.00373 4.34391L8.12017 4.33574L8.37383 4.39121L8.56084 4.38371L8.36592 4.47522L8.25319 4.44204L8.37512 4.62945L8.35645 4.77403L8.31125 4.77814L8.30071 4.64169L8.18891 4.55504L8.22858 4.68582C8.22858 4.68582 8.18878 4.75706 8.16073 4.78868L8.09552 4.78484C8.10767 4.76563 8.1568 4.68055 8.1568 4.68055L8.04456 4.52989L8.00137 4.53856L7.99677 5.03023L8.15256 5.08633L8.15466 5.08709L11.7875 2.40382H2.99277C3.00304 2.57806 3.02148 2.87992 3.03451 3.03374C3.03728 3.06535 3.04031 3.10908 3.04426 3.16413C3.06454 3.45032 3.10708 4.04482 3.22035 4.79882H4.70923ZM6.96528 5.52529C6.74218 5.52529 6.56187 5.89471 6.55807 6.26476L7.23684 5.76313C7.16453 5.64736 7.06957 5.52529 6.96528 5.52529ZM4.01766 7.92012C4.10077 7.883 4.14397 7.8797 4.18163 7.90051L4.29885 7.93437L4.48705 7.79528L4.40131 7.7763C4.35983 7.82387 4.29516 7.8759 4.24419 7.80305C4.15134 7.8403 4.07877 7.80305 4.1034 7.75459C4.13817 7.68559 4.2434 7.65727 4.29226 7.72181C4.39802 7.66964 4.44411 7.66531 4.48705 7.68849L4.57753 7.72864L4.78232 7.57732L4.65865 7.53515C4.61756 7.58299 4.55277 7.63498 4.50193 7.56204C4.40868 7.59903 4.33612 7.56258 4.36088 7.51385C4.39565 7.44493 4.50127 7.41666 4.54961 7.48116C4.65576 7.42903 4.70159 7.42443 4.74439 7.4477L4.89374 7.49487L4.89427 7.495L4.98883 7.42443L5.97515 6.69559C5.83777 6.7194 5.78457 6.7027 5.74768 6.68425L5.63115 6.64923C5.54106 6.72007 5.49706 6.70913 5.47429 6.67554C5.38129 6.71324 5.30898 6.67567 5.3335 6.62708C5.36785 6.55847 5.47362 6.53016 5.52167 6.59443C5.62784 6.54226 5.6742 6.53793 5.71713 6.56138L5.83567 6.58956C5.90007 6.52198 5.99373 6.56705 6.04349 6.64499L6.43136 6.35829C6.35614 5.2703 5.62994 5.20576 5.54133 6.41939H3.54183C3.55368 6.46682 3.56593 6.51421 3.57844 6.56205C3.60979 6.57571 3.63533 6.60166 3.65206 6.63815C3.66668 6.6704 3.6406 6.69573 3.6144 6.69622C3.6252 6.73588 3.6352 6.77523 3.64627 6.81516L3.69421 6.84401C3.82815 6.75562 3.9318 6.78197 3.97644 6.87903C3.99896 6.9291 3.92534 6.96318 3.90295 6.91378C3.76546 6.93924 3.71646 6.94411 3.67972 6.92932C3.6892 6.96229 3.69882 6.9952 3.70856 7.02812C3.72371 7.03379 3.73754 7.04246 3.7482 7.05697C3.85462 7.00494 3.90098 7.00088 3.94312 7.02428C4.1329 6.97729 4.23669 7.00414 4.28146 7.10084C4.30412 7.15046 4.22983 7.18472 4.20758 7.13532C4.05678 7.16337 4.01253 7.16627 3.97433 7.14666L3.85738 7.11173C3.80813 7.15059 3.77402 7.16323 3.74834 7.16274C3.7569 7.19066 3.76651 7.21871 3.77546 7.24676C3.8342 7.23237 3.89637 7.26257 3.92811 7.33184C3.95102 7.38173 3.87727 7.41626 3.85422 7.36632L3.80866 7.34989C3.82038 7.3853 3.8321 7.42059 3.84435 7.45614L3.9289 7.47615C3.99936 7.40134 4.10327 7.42796 4.14739 7.52488C4.16991 7.57428 4.09603 7.60894 4.07377 7.55927C3.97315 7.57325 3.92284 7.58219 3.88912 7.58165C3.90045 7.61301 3.91099 7.64423 3.92258 7.67558C3.97065 7.67808 4.01674 7.70903 4.04282 7.76567C4.06415 7.81319 3.99752 7.84584 3.97236 7.80448C3.98751 7.84294 4.00225 7.88153 4.01766 7.92012ZM4.08786 8.09029L4.19032 8.01459L4.09589 7.9881L4.07495 8.05961C4.07917 8.06988 4.08352 8.08015 4.08786 8.09029ZM12.0713 2.50206L11.1659 3.17124L10.1902 3.89231L9.10449 4.69475L8.07368 5.45664L6.96582 6.27543L5.96881 7.01231L4.85358 7.83651L4.19019 8.32684C4.38222 8.75642 4.60479 9.18471 4.85358 9.6021C5.18428 10.1567 5.56018 10.6918 5.96881 11.1849C6.03192 11.261 6.09553 11.3362 6.16007 11.4101C6.43069 11.7205 6.71846 12.0248 6.96582 12.2777C7.21089 12.5284 7.41635 12.7285 7.52569 12.8338C7.63364 12.7322 7.8345 12.5406 8.07368 12.3007C8.33023 12.0432 8.63078 11.73 8.90985 11.4101C8.97555 11.3348 9.04049 11.2582 9.10463 11.1808C9.50121 10.7019 9.86692 10.1835 10.1904 9.6461C10.4601 9.19789 10.7002 8.73655 10.9041 8.27413C10.9949 8.06792 11.0784 7.86152 11.1543 7.65593C11.2182 7.4829 11.2771 7.31036 11.3293 7.13916C11.8683 5.37526 11.9868 3.71359 12.0257 3.16755C12.0297 3.11079 12.0329 3.06588 12.0357 3.03361C12.0462 2.90586 12.0608 2.67631 12.0713 2.50206ZM5.43002 12.3363C5.542 12.5293 5.57148 12.7051 5.57148 12.8498C5.57148 12.9662 5.54092 13.042 5.4926 13.0632C5.44016 13.0865 5.39067 13.0817 5.20339 12.8717L4.8163 12.4374V10.9731L5.26079 11.4713C5.48456 11.7226 5.542 12.0116 5.542 12.1624C5.54186 12.3724 5.46821 12.3485 5.43002 12.3363ZM5.00017 11.7519L5.22394 12.0031C5.29884 12.0876 5.35878 12.1076 5.35878 11.9914C5.35878 11.8708 5.30518 11.7744 5.21889 11.6773L5.00017 11.4314V11.7519ZM5.38076 12.6033C5.38076 12.4746 5.31188 12.3485 5.24301 12.2716L5.00017 11.9987V12.3905L5.23408 12.6534C5.32676 12.7573 5.38076 12.7523 5.38076 12.6033ZM5.84567 13.6045L6.03666 13.8187V12.3553L5.84567 12.1412V13.6045ZM6.74401 13.0307L6.52712 12.8308V14.2933L7.24845 14.9682V14.6818L6.74415 14.2065L6.74401 13.0307ZM8.40688 13.9193C8.40688 14.0352 8.37316 14.1777 8.31916 14.3036C8.26149 14.4398 8.20629 14.5429 7.99806 14.7383L7.56901 15.1436V13.6786L8.06171 13.2137C8.31076 12.9795 8.37409 13.1442 8.37409 13.2949C8.37409 13.5049 8.29258 13.6414 8.24961 13.7117C8.37423 13.6621 8.40688 13.7741 8.40688 13.9193ZM7.77206 14.0602L8.02097 13.8256C8.10463 13.747 8.17073 13.6374 8.17073 13.5212C8.17073 13.4009 8.1116 13.42 8.01575 13.5107L7.77206 13.7396V14.0602ZM8.19472 14.0861C8.19472 13.9576 8.11857 13.9806 8.04259 14.0525L7.77206 14.3067V14.6984L8.03272 14.4534C8.13558 14.3564 8.19472 14.2351 8.19472 14.0861ZM9.21446 12.1207L9.57218 13.2491L9.34171 13.4658L9.27677 13.2249L8.90234 13.5777L8.83164 13.9467L8.6084 14.1571L8.96992 12.3513L9.21446 12.1207ZM9.2175 13.0283L9.09159 12.5671L8.95884 13.272L9.2175 13.0283ZM10.4621 11.3049C10.5938 11.9149 10.2902 12.308 10.1688 12.4289C10.0472 12.5502 9.71167 12.795 9.57915 12.1849C9.4468 11.5747 9.75075 11.1817 9.87192 11.0604C9.99337 10.9393 10.3295 10.6947 10.4621 11.3049ZM10.2695 11.496C10.1912 11.1322 10.0255 11.187 9.92186 11.2905C9.81806 11.394 9.69188 11.6298 9.77129 11.9937C9.84968 12.3577 10.0155 12.3025 10.1187 12.1991C10.2221 12.096 10.3487 11.86 10.2695 11.496ZM13.4378 4.22564L13.0516 4.70029L12.6652 4.22564H12.3519L12.8738 4.90088L12.3519 5.58666H12.6652L13.0516 5.11161L13.4378 5.58666H13.7513L13.2295 4.90088L13.7513 4.22564H13.4378ZM2.37482 4.22564L1.98867 4.70029L1.60226 4.22564H1.28907L1.81101 4.90088L1.28907 5.58666H1.60239L1.9888 5.11161L2.37495 5.58666H2.68853L2.16673 4.90088L2.68853 4.22564H2.37482ZM1.71881 1.64693H1.57921L1.98169 0.747539H2.12419L2.52022 1.64693H2.37561L2.24826 1.35086H1.85078L1.71881 1.64693ZM1.91005 1.22153H2.19031L2.05031 0.908082L1.91005 1.22153ZM2.92981 1.64693H3.05809V0.876999H3.37049V0.747539H2.61741V0.876999H2.92981V1.64693ZM3.75479 1.2405H4.27725V1.64693H4.40553V0.747539H4.27725V1.11103H3.75479V0.747539H3.62664V1.64693H3.75479V1.2405ZM5.44226 1.51786H4.90164V0.747539H4.77363V1.64693H5.44226V1.51786ZM6.37486 1.51786H5.75205V1.24313H6.0547V1.11327H5.75205V0.876999H6.35262V0.747539H5.62351V1.64693H6.37486V1.51786ZM6.86545 1.64693H6.99387V0.876999H7.30612V0.747539H6.55329V0.876999H6.86545V1.64693ZM7.675 0.747539H7.54672V1.64693H7.67514L7.675 0.747539ZM8.41121 1.66655C8.6662 1.66655 8.77183 1.57871 8.85611 1.48665L8.77089 1.39274C8.73168 1.43937 8.63234 1.53696 8.44216 1.53696C8.19852 1.53696 8.07024 1.36522 8.07024 1.20454C8.07024 0.980255 8.24385 0.857771 8.40991 0.857771C8.59299 0.857771 8.706 0.960763 8.74615 0.994476L8.84213 0.9119C8.79948 0.869755 8.65249 0.728047 8.40871 0.728047C8.14505 0.728047 7.9421 0.939293 7.9421 1.20441C7.9421 1.48059 8.1702 1.66655 8.41121 1.66655ZM9.94964 1.66655C10.205 1.66655 10.3105 1.57871 10.3949 1.48665L10.3095 1.39274C10.2701 1.43937 10.1705 1.53696 9.98073 1.53696C9.73721 1.53696 9.6088 1.36522 9.6088 1.20454C9.6088 0.980255 9.78224 0.857771 9.9483 0.857771C10.1314 0.857771 10.2441 0.960763 10.2845 0.994476L10.3811 0.9119C10.3381 0.869755 10.1909 0.728047 9.94727 0.728047C9.68384 0.728047 9.48053 0.939293 9.48053 1.20441C9.48039 1.48059 9.70903 1.66655 9.94964 1.66655ZM11.3337 1.51786H10.7937V0.747539H10.665V1.64693H11.3336L11.3337 1.51786ZM11.9314 1.66655C12.2576 1.66655 12.3215 1.47809 12.3215 1.30753V0.747539H12.1935V1.30766C12.1935 1.4395 12.1389 1.53696 11.9314 1.53696C11.7233 1.53696 11.6687 1.4395 11.6687 1.30766V0.747539H11.5406V1.30766C11.5406 1.47822 11.6045 1.66655 11.9314 1.66655ZM13.1708 1.64693H12.6628V0.747539H13.1708C13.303 0.747539 13.4318 0.82195 13.4318 0.992109C13.4318 1.09036 13.3845 1.14106 13.3525 1.17333C13.4023 1.19624 13.4741 1.27289 13.4741 1.38576C13.4742 1.55684 13.3429 1.64693 13.1708 1.64693ZM12.7907 1.12394H13.1708C13.2584 1.12394 13.3033 1.07218 13.3033 0.992109C13.3033 0.920199 13.2611 0.876999 13.1708 0.876999H12.7907V1.12394ZM12.7907 1.51786H13.1708C13.2902 1.51786 13.3463 1.4719 13.3463 1.3859C13.3463 1.30543 13.3051 1.25393 13.1708 1.25393H12.7907V1.51786ZM14.5156 1.22087C14.5152 1.23496 14.5149 1.26578 14.5145 1.31148C14.4985 3.1665 14.3108 4.96622 13.9715 6.51618C13.3664 9.28034 12.1445 11.5165 10.0098 13.767C8.97858 14.8541 7.63856 15.9129 7.62511 15.9235L7.52881 16L7.43109 15.9239C7.41621 15.9119 6.06524 14.826 5.03438 13.7387C2.89886 11.4886 1.67707 9.25256 1.07295 6.48853C0.733688 4.93791 0.545881 3.13792 0.52955 1.28343C0.529155 1.23786 0.528892 1.20731 0.528365 1.19282C0.524414 1.07969 0.524414 0.411437 0.524414 0.126039V0.000526587L14.5204 0L14.5205 0.125378C14.5205 0.164232 14.521 1.07903 14.5156 1.22087ZM14.2696 0.25089L0.775305 0.251417C0.775305 0.56039 0.775701 1.08996 0.778993 1.18413C0.77952 1.19954 0.779915 1.23246 0.78031 1.28119C0.796509 3.11869 0.982472 4.90088 1.31805 6.43493C1.91189 9.15166 3.11419 11.3511 5.21639 13.566C6.11424 14.513 7.25922 15.4602 7.52841 15.6797C7.79725 15.4638 8.93173 14.5391 9.82793 13.5944C11.9294 11.379 13.1318 9.17948 13.7267 6.46258C14.0621 4.92933 14.248 3.14727 14.2638 1.30938C14.2642 1.26038 14.2644 1.22733 14.2651 1.21192C14.2689 1.10498 14.2694 0.513242 14.2696 0.25089Z" fill="#1C1C1C"/>
</g>
<defs>
<clipPath id="clip0_795_2137">
<rect width="13.9961" height="16" fill="white" transform="translate(0.524414)"/>
</clipPath>
</defs>
</svg>
