<svg width="17" height="16" viewBox="0 0 17 16" fill="none" xmlns="http://www.w3.org/2000/svg">
<g clip-path="url(#clip0_876_2784)">
<path d="M8.5752 16C12.9935 16 16.5752 12.4183 16.5752 8C16.5752 3.58172 12.9935 0 8.5752 0C4.15692 0 0.575195 3.58172 0.575195 8C0.575195 12.4183 4.15692 16 8.5752 16Z" fill="white"/>
<path fill-rule="evenodd" clip-rule="evenodd" d="M8.57529 0.531372C6.12242 0.531372 3.94463 1.71353 2.58401 3.53976C3.96475 3.94499 8.06942 5.18484 8.62628 5.43443C9.12007 5.65583 9.41259 6.13755 9.69437 6.36029C9.91309 6.53473 10.1238 6.69172 10.3291 6.83932C10.8376 7.20698 11.9809 7.89937 11.5005 9.26536C11.3743 9.62362 11.0899 9.9309 10.7558 10.1456C10.7759 10.0289 10.8309 9.78867 10.682 9.62899C10.5062 9.43979 9.74536 9.23852 8.69873 9.35123C7.636 9.46529 6.18817 9.86247 4.66116 10.6944C4.98052 10.2516 5.55885 9.6196 6.0768 9.41161C5.98823 9.35928 2.60682 10.6501 1.74805 11.0205C2.90873 13.6411 5.52933 15.47 8.57931 15.47C12.7041 15.47 16.0479 12.1261 16.0479 8.00135C16.0479 3.87656 12.7001 0.531372 8.57529 0.531372ZM8.57529 13.8517C6.96106 13.8517 5.49981 13.1969 4.4411 12.1382C5.48907 11.6095 6.63634 11.1305 7.69773 11.0339C8.46123 10.9641 9.09055 11.0419 9.22339 11.2647C9.35623 11.4874 9.11202 12.0134 8.82218 12.3677C8.82218 12.3677 11.7917 12.2348 12.845 9.92017C13.4528 8.69105 13.1228 7.2204 12.1164 6.2838C11.7595 5.95103 11.1006 5.46395 10.8953 5.3311C10.5183 5.08689 10.0741 4.3784 9.28914 4.03221C8.64506 3.74908 7.04157 3.2459 5.77623 2.86482C6.60682 2.41128 7.55952 2.15096 8.57394 2.15096C11.8051 2.15096 14.4243 4.77022 14.4243 8.00135C14.4243 11.2325 11.8051 13.8517 8.57394 13.8517H8.57529Z" fill="#C8102E"/>
<path fill-rule="evenodd" clip-rule="evenodd" d="M8.4506 6.08789C8.44255 6.86213 7.83604 7.15733 7.27381 7.0795C6.70353 6.99899 6.17888 6.53472 6.36942 5.79134C6.34124 5.71083 6.13996 5.67192 5.89307 5.7323C6.62705 4.9849 7.49924 6.1268 8.4506 6.08923" fill="#C8102E"/>
</g>
<defs>
<clipPath id="clip0_876_2784">
<rect width="16" height="16" fill="white" transform="translate(0.575195)"/>
</clipPath>
</defs>
</svg>
