<svg width="18" height="16" viewBox="0 0 18 16" fill="none" xmlns="http://www.w3.org/2000/svg">
<g clip-path="url(#clip0_879_4041)">
<path d="M15.993 3.43193C13.7234 1.99843 8.52451 0.901985 4.64666 0L0.187988 4.79496L4.01518 4.71316C2.10951 7.79354 2.49785 15.0371 7.31683 16C7.06872 15.5242 6.63797 14.6501 7.19638 13.5679C7.59408 12.7982 9.80501 8.56673 9.80501 8.56673H10.3343C11.051 8.56673 11.2869 8.8363 10.969 9.21634C12.8794 9.19198 14.0525 8.46924 14.5789 7.69694C14.1782 6.96333 12.9034 6.09966 12.3865 5.74959H15.0595C15.826 5.74959 15.9989 6.07092 15.8184 6.42074C17.0693 6.17468 17.7088 4.51561 15.993 3.43193" fill="#A5ACAF"/>
<path d="M15.6876 3.57815C12.5962 1.84334 4.94162 0.687042 4.94162 0.687042L1.6626 4.20125H5.06229C2.55215 7.51964 3.10836 14.2182 6.79967 15.6108C6.53785 14.9879 6.40521 14.265 6.87709 13.3451C7.40962 12.3078 8.25719 10.5641 9.4714 8.23626H10.4623C11.2846 8.23626 11.5475 8.58414 11.436 8.85262C12.1122 8.85262 13.3486 8.78628 14.2458 7.69695C13.4984 6.65226 11.0272 5.43413 11.0272 5.43413H15.2667C15.8896 5.43413 16.201 5.65582 16.1149 6.03131C17.198 5.50219 16.9164 4.26759 15.6876 3.57815Z" fill="#FFFFFE"/>
<path d="M10.6698 5.54808C10.6698 5.54808 13.4022 6.88561 13.9334 7.6969C13.6535 8.06935 13.2256 8.3302 12.6527 8.46119C13.0188 8.1799 13.0882 7.90944 12.8631 7.90944H12.0532C11.9149 8.04562 11.8412 8.29167 12.0267 8.53971C11.7135 8.47118 11.4119 8.21337 11.3887 7.90944H9.67372C9.90271 7.45106 10.5635 6.14092 10.7479 5.78002L10.6698 5.54808H10.6698ZM15.559 3.81113C16.7554 4.46794 16.6764 5.37275 16.3226 5.67145C16.329 5.34839 16.0117 5.10799 15.4394 5.10799H9.84956L10.4504 5.42999C10.4504 5.42999 6.85279 12.5972 6.57665 13.1628C6.25789 13.8163 6.17048 14.5501 6.44511 15.1615C5.73341 14.7101 5.17459 13.9837 4.78123 13.0982L4.4618 13.0764L7.85521 8.0946C7.84805 8.06261 7.84173 8.0302 7.83608 7.998L4.41005 12.0389C4.23459 11.3871 4.13348 10.6846 4.11173 9.96406L3.7236 9.86683L7.93243 6.5441C7.94288 6.50886 7.95396 6.47384 7.96526 6.43881L4.14869 8.75643C4.20631 8.11723 4.32655 7.47828 4.51204 6.86151L4.11717 6.63787L8.60909 5.14002C8.62911 5.10933 8.64956 5.0789 8.67 5.04885L4.89954 5.81968C5.10307 5.36584 5.34596 4.93228 5.631 4.53087L5.28177 4.20128H9.79089C9.80349 4.17603 9.81589 4.15125 9.82828 4.12689L3.11475 3.61325L5.02366 1.55711L4.72509 1.17703C4.72509 1.17703 12.9592 2.38425 15.5589 3.81121L15.559 3.81113Z" fill="black"/>
<path d="M15.8547 4.32674L15.9265 4.64436C15.4373 4.73637 14.5716 4.80971 14.327 4.82951C14.315 4.85388 14.3026 4.87824 14.29 4.90327H15.5786C16.0898 4.90327 16.3051 5.14583 16.3505 5.28529C16.4175 5.09449 16.3557 4.58279 15.8547 4.32674ZM14.4218 3.69888C14.7075 3.79418 15.3505 4.15314 15.594 4.43401H15.132C14.9498 4.13422 14.4218 3.69888 14.4218 3.69888Z" fill="#FFFFFE"/>
<path d="M4.75666 7.66861L7.50274 6.16835C7.51753 6.13113 7.53296 6.09371 7.54906 6.05653L4.90628 7.00661C4.84757 7.22459 4.7978 7.44586 4.75666 7.66865V7.66861ZM5.98457 4.69308C5.86344 4.8591 5.75103 5.03182 5.64647 5.21022L8.33253 4.73009C8.356 4.69919 8.37994 4.6683 8.40384 4.63808L5.98457 4.69308ZM7.68865 9.6353C7.67082 9.60332 7.65341 9.5709 7.63647 9.5387L5.40661 12.9028C5.52361 13.1245 5.65296 13.3318 5.79364 13.5222L7.68865 9.6353ZM4.71013 10.7028L7.18896 7.9362C7.18702 7.89662 7.18571 7.85721 7.18483 7.81785L4.62988 9.99081C4.64708 10.2316 4.67422 10.4696 4.71013 10.7029V10.7028ZM12.4291 7.53563L10.483 7.24499L10.2856 7.62747H12.3832L12.4291 7.53563ZM13.7733 4.0543L4.86342 2.82075L5.40855 2.2301C8.4097 2.69414 11.999 3.42775 13.8214 3.9588C13.806 3.9899 13.7897 4.02189 13.7733 4.0543Z" fill="#A71930"/>
</g>
<defs>
<clipPath id="clip0_879_4041">
<rect width="16.8506" height="16" fill="white" transform="translate(0.187988)"/>
</clipPath>
</defs>
</svg>
