<svg width="17" height="16" viewBox="0 0 17 16" fill="none" xmlns="http://www.w3.org/2000/svg">
<g clip-path="url(#clip0_795_1405)">
<path d="M16.522 8C16.522 12.4183 12.94 16 8.52197 16C4.10394 16 0.521973 12.4183 0.521973 8C0.521973 3.58173 4.10371 0 8.52197 0C12.9402 0 16.522 3.58173 16.522 8Z" fill="#2D2A26"/>
<path d="M8.52204 15.8213C6.97668 15.821 5.46609 15.3625 4.18123 14.5039C2.89637 13.6452 1.89492 12.4249 1.30349 10.9972C0.712051 9.56948 0.557176 7.99847 0.858439 6.48275C1.1597 4.96703 1.90358 3.57466 2.99603 2.48163C3.72062 1.75096 4.58238 1.17058 5.53184 0.773799C6.48131 0.377023 7.49978 0.171665 8.52882 0.169512C9.55785 0.167359 10.5772 0.368454 11.5283 0.761254C12.4794 1.15405 13.3436 1.73083 14.0712 2.45846C14.7989 3.1861 15.3756 4.05028 15.7684 5.0014C16.1612 5.95251 16.3623 6.97184 16.3602 8.00087C16.358 9.02991 16.1527 10.0484 15.7559 10.9978C15.3591 11.9473 14.7787 12.8091 14.0481 13.5337C13.324 14.2614 12.4627 14.8383 11.5142 15.231C10.5657 15.6237 9.54865 15.8243 8.52204 15.8213ZM8.52204 0.384986C4.31904 0.384986 0.899848 3.80418 0.899848 8.00718C0.899848 12.2102 4.31904 15.6301 8.52204 15.6301C12.7251 15.6301 16.1442 12.21 16.1442 8.00718C16.1442 3.80441 12.7251 0.384986 8.52204 0.384986Z" fill="#AA9767"/>
<path d="M5.21554 3.93457C4.61111 4.42577 4.12382 5.04556 3.78912 5.74883C3.45443 6.4521 3.28076 7.22115 3.28076 8C3.28076 8.77885 3.45443 9.54791 3.78912 10.2512C4.12382 10.9544 4.61111 11.5742 5.21554 12.0654V3.93457Z" fill="#A32035"/>
<path d="M11.8086 3.91885V12.0807C12.4189 11.59 12.9114 10.9686 13.2498 10.2624C13.5882 9.5561 13.7639 8.78293 13.7639 7.99978C13.7639 7.21663 13.5882 6.44346 13.2498 5.73719C12.9114 5.03093 12.4189 4.40956 11.8086 3.91885Z" fill="#A32035"/>
<path d="M9.73965 13.0946V2.90543C8.93284 2.70658 8.08959 2.70849 7.28369 2.91098V13.089C8.08959 13.2915 8.93284 13.2934 9.73965 13.0946Z" fill="#A32035"/>
<path d="M10.0671 5.05918L10.5758 4.03699H6.45924L6.96791 5.05942L4.76953 11.5796L6.76491 12.8876L7.18109 11.7031H9.87705L10.2592 12.8786L12.2814 11.5753L10.0671 5.05918ZM7.96907 9.3778L8.52051 7.72254L9.0893 9.37895L7.96907 9.3778Z" fill="#2D2A26"/>
<path d="M9.86028 5.04507L10.2693 4.22681H6.7664L7.17519 5.04507L4.94189 11.6682L5.7123 12.388L6.1123 12.5764L6.59646 12.7921L7.04548 11.511H10.0159L10.4483 12.8411L11.2644 12.4041L12.1199 11.6971L9.86028 5.04507ZM7.70374 9.56923L8.51762 7.12461L9.35669 9.56947L7.70374 9.56923Z" fill="#AA9767"/>
<path d="M7.70403 9.56926L6.34912 10.5413L8.52207 4.22244L10.695 10.5413L9.35698 9.5695L8.51791 7.12464L7.70403 9.56926Z" fill="#716134"/>
<path d="M5.77588 12.2085L6.34906 10.5413H10.695L11.2547 12.1695L10.3928 12.67L10.0161 11.511H7.04571L6.64108 12.665L5.77588 12.2085Z" fill="#716134"/>
<path d="M8.5219 13.3068C5.59542 13.3068 3.21484 10.9253 3.21484 8C3.21484 5.07468 5.59565 2.69318 8.5219 2.69318C11.4481 2.69318 13.8287 5.07375 13.8287 8C13.8287 10.9262 11.4481 13.3068 8.5219 13.3068ZM8.5219 2.90913C5.7145 2.90913 3.43057 5.19283 3.43057 8C3.43057 10.8072 5.71473 13.0911 8.5219 13.0911C11.3291 13.0911 13.613 10.8072 13.613 8C13.613 5.19283 11.3291 2.90913 8.5219 2.90913Z" fill="#AA9767"/>
<path d="M8.52211 13.1151C5.7013 13.1151 3.40674 10.8208 3.40674 8C3.40674 5.17919 5.7013 2.88486 8.52211 2.88486C11.3429 2.88486 13.6375 5.17919 13.6375 8C13.6375 10.8208 11.3429 13.1151 8.52211 13.1151ZM8.52211 3.07515C5.80697 3.07515 3.59726 5.28416 3.59726 8C3.59726 10.7158 5.80628 12.9249 8.52211 12.9249C11.238 12.9249 13.447 10.7158 13.447 8C13.447 5.28416 11.2375 3.07515 8.52211 3.07515Z" fill="#716134"/>
<path d="M8.7576 0.979661C8.77209 0.933419 8.7865 0.887176 8.80084 0.840933C8.61587 0.831222 8.4309 0.830683 8.24592 0.839315C8.26003 0.885557 8.27436 0.9318 8.28847 0.978043C8.15668 1.40964 8.02504 1.84533 7.89355 2.28509C8.00338 2.27353 8.11344 2.26475 8.2235 2.25943L8.28454 2.04232C8.44115 2.03631 8.59775 2.03677 8.75436 2.04371C8.77471 2.11615 8.7949 2.18868 8.81494 2.26128C8.925 2.26729 9.0349 2.27662 9.14465 2.28926C9.0161 1.8481 8.88731 1.41157 8.75829 0.979661M8.52199 1.19885C8.57194 1.38059 8.62203 1.56301 8.67228 1.74614C8.57086 1.74305 8.4692 1.74267 8.36731 1.74498C8.41895 1.56232 8.47051 1.38028 8.52199 1.19885Z" fill="#AA9767"/>
<path d="M12.1909 3.56648C12.276 3.63677 12.3591 3.70937 12.4402 3.78428L12.6385 3.67631C12.7526 3.78421 12.862 3.89635 12.9666 4.01272L12.8531 4.2081C12.9257 4.29087 12.9961 4.37565 13.0642 4.46243C13.289 4.06166 13.5103 3.66405 13.7283 3.2696L13.8573 3.20371C13.7534 3.08625 13.6449 2.97326 13.532 2.86475C13.0886 3.09473 12.6416 3.32864 12.1909 3.56648ZM12.9091 3.52764L13.4066 3.2548C13.3123 3.41804 13.2177 3.58166 13.1229 3.74567C13.054 3.67107 12.9831 3.59831 12.91 3.52741" fill="#AA9767"/>
<path d="M11.7793 1.60925C11.7288 1.69341 11.678 1.7775 11.6269 1.86151C11.7314 1.91584 11.835 1.97203 11.9368 2.03099L11.356 2.99376C11.4443 3.04463 11.5315 3.09727 11.6177 3.15168C11.8114 2.83076 12.0051 2.50983 12.1985 2.18891C12.2854 2.24378 12.3712 2.3002 12.4558 2.35815L12.6822 2.15746C12.394 1.9545 12.0923 1.77134 11.7793 1.60925Z" fill="#AA9767"/>
<path d="M10.7662 1.18635C10.6868 1.45348 10.6076 1.72084 10.5287 1.98843C10.4732 1.67552 10.4163 1.36778 10.3579 1.0652C10.2487 1.03683 10.1388 1.01179 10.0281 0.990051C10.0291 1.03784 10.0298 1.08554 10.0305 1.13317L9.66699 2.35861C9.76718 2.37911 9.86661 2.40223 9.96526 2.42797C10.0443 2.16084 10.1235 1.89379 10.2027 1.62681C10.261 1.92986 10.3178 2.23814 10.3731 2.55167C10.4656 2.58358 10.5581 2.61795 10.6506 2.65479L11.054 1.2941C10.9592 1.25587 10.8636 1.22034 10.7671 1.18751" fill="#AA9767"/>
<path d="M3.53893 2.86475C3.42579 2.97265 3.31727 3.08563 3.21338 3.20371L3.3424 3.2696C3.56051 3.66405 3.78193 4.06166 4.00667 4.46243C4.07465 4.3755 4.14502 4.29072 4.21777 4.2081C4.17985 4.1429 4.14193 4.07816 4.10401 4.01319C4.20883 3.89665 4.3182 3.78452 4.43211 3.67677L4.63049 3.78475C4.71141 3.70983 4.79457 3.63723 4.87997 3.56694C4.4291 3.32895 3.98209 3.09504 3.53893 2.86521M3.94864 3.74567C3.85292 3.58166 3.75804 3.41812 3.66401 3.25504C3.82926 3.34521 3.99511 3.43608 4.16159 3.52764C4.08883 3.59854 4.01785 3.6713 3.94864 3.7459" fill="#AA9767"/>
<path d="M5.29154 1.60925L5.44391 1.86151C5.3394 1.91584 5.23581 1.97203 5.13408 2.03099L5.71512 2.99376C5.62649 3.04463 5.53917 3.09727 5.45315 3.15168C5.2594 2.83076 5.06579 2.50983 4.87235 2.18891C4.78541 2.24378 4.69947 2.30027 4.61454 2.35839L4.38818 2.15769C4.67601 1.95477 4.97728 1.77161 5.28992 1.60948" fill="#AA9767"/>
<path d="M6.72847 2.2326C6.62535 1.87237 6.5223 1.51206 6.41934 1.15167C6.322 1.18196 6.22512 1.21479 6.12939 1.24948C6.25949 1.7042 6.38959 2.15892 6.51968 2.61364C6.77811 2.5199 7.04222 2.44268 7.31044 2.38242C7.31275 2.28131 7.31514 2.18042 7.3176 2.07976C7.11876 2.12169 6.92238 2.17287 6.72847 2.23329" fill="#AA9767"/>
<path d="M6.32383 13.2985C6.23042 13.2581 6.13793 13.216 6.04637 13.1722L5.46094 14.4652C5.55342 14.5087 5.64591 14.5507 5.73839 14.5912L6.32383 13.2985Z" fill="#AA9767"/>
<path d="M7.73174 13.6848C7.70862 13.7806 7.68734 13.8761 7.66515 13.972C7.54862 13.9554 7.43262 13.9352 7.31717 13.9117L7.06284 15.0069C6.96295 14.9866 6.86361 14.9635 6.7648 14.9376L7.01914 13.8423C6.90538 13.8127 6.79239 13.7797 6.68018 13.7433L6.74677 13.4566C7.06788 13.5611 7.39743 13.6375 7.73174 13.6851" fill="#AA9767"/>
<path d="M8.50783 14.5813C8.66737 14.5822 8.82691 14.5766 8.98645 14.5644C8.98444 14.4662 8.98244 14.3679 8.98043 14.2696C8.8212 14.2821 8.66167 14.2877 8.50182 14.2865C8.50013 14.2034 8.49843 14.1202 8.49673 14.037C8.69986 14.0381 8.90291 14.0287 9.10506 14.0088L9.0091 13.7223C8.73501 13.7451 8.45964 13.7485 8.18506 13.7325C8.19446 14.2054 8.20402 14.6783 8.21373 15.1512C8.48831 15.1673 8.76368 15.1639 9.03777 15.141C9.06598 15.0402 9.09373 14.9394 9.12171 14.8382C8.91964 14.8582 8.71666 14.8676 8.51361 14.8664C8.51161 14.7714 8.50968 14.6764 8.50783 14.5813Z" fill="#AA9767"/>
<path d="M10.6681 13.7193C10.614 13.5256 10.417 13.4271 10.2246 13.486C10.0111 13.5515 9.79416 13.6051 9.57471 13.6465C9.60137 13.689 9.62804 13.7314 9.65471 13.7736C9.76939 14.1841 9.88423 14.5946 9.99922 15.0051C10.2042 14.9648 10.4069 14.914 10.6066 14.8527C10.799 14.7938 10.9072 14.5771 10.854 14.3838L10.669 13.7193M10.5657 14.4839C10.5707 14.502 10.5685 14.5212 10.5596 14.5377C10.5506 14.5541 10.5357 14.5664 10.5178 14.572C10.4192 14.6021 10.3197 14.6297 10.2193 14.6548C10.1446 14.3884 10.07 14.1222 9.99575 13.856C10.0961 13.8308 10.1956 13.8032 10.2942 13.773C10.3029 13.7702 10.312 13.7693 10.321 13.7701C10.3301 13.771 10.3388 13.7737 10.3468 13.778C10.3548 13.7823 10.3618 13.7882 10.3675 13.7952C10.3731 13.8023 10.3773 13.8105 10.3798 13.8192C10.4415 14.0407 10.5031 14.2622 10.5648 14.4837" fill="#AA9767"/>
<path d="M5.2725 12.7223L4.77377 13.3928C4.82325 13.0889 4.87566 12.7806 4.931 12.468C4.85393 12.4063 4.77878 12.3428 4.70557 12.2775C4.42302 12.657 4.14063 13.0365 3.8584 13.416C3.9347 13.4839 4.0127 13.5498 4.09239 13.6134L4.59112 12.9429C4.53578 13.255 4.4836 13.5633 4.43458 13.8678C4.51551 13.9236 4.5979 13.9775 4.68175 14.0296L5.52869 12.8909C5.44175 12.8372 5.35636 12.7814 5.2725 12.7235" fill="#AA9767"/>
<path d="M4.12173 11.6673L3.26855 12.3283C3.25371 12.3398 3.235 12.345 3.21637 12.3429C3.19774 12.3409 3.18064 12.3317 3.16867 12.3172C3.11811 12.2556 3.06886 12.1925 3.02092 12.1281C3.0099 12.113 3.00518 12.0943 3.00777 12.0758C3.01036 12.0573 3.02005 12.0406 3.03479 12.0291L3.88797 11.3681C3.81953 11.2741 3.7541 11.1778 3.69167 11.0793C3.66254 11.1202 3.63317 11.1609 3.60404 11.2016L2.86161 11.7767C2.70277 11.8997 2.66115 12.1385 2.78138 12.2999C2.83348 12.3699 2.88743 12.4386 2.94323 12.5061C3.07086 12.6622 3.31317 12.6805 3.47225 12.5575L4.32543 11.8964C4.2556 11.822 4.18793 11.7456 4.12242 11.6673" fill="#AA9767"/>
<path d="M12.1868 12.8049C12.3488 12.6824 12.5045 12.5519 12.6534 12.4139L12.4041 12.2435C12.1888 12.4367 11.9601 12.6144 11.7197 12.7753L11.8423 12.8613L12.6353 13.8645C12.7198 13.8072 12.8027 13.7477 12.8839 13.6862C12.7641 13.5346 12.6443 13.3828 12.5244 13.231C12.6515 13.1348 12.7748 13.0336 12.8943 12.9274L12.7116 12.6962C12.592 12.8024 12.4687 12.9037 12.3417 13L12.187 12.8039" fill="#AA9767"/>
<path d="M13.6737 11.2645C13.636 11.2361 13.5931 11.2156 13.5473 11.2041C13.5016 11.1927 13.454 11.1906 13.4074 11.198C13.3608 11.2054 13.3162 11.2221 13.2762 11.2471C13.2362 11.2721 13.2017 11.3049 13.1747 11.3436C13.1231 11.4139 13.0704 11.4832 13.0168 11.5517C12.9868 11.5881 12.9645 11.6303 12.9512 11.6755C12.9379 11.7208 12.9339 11.7683 12.9394 11.8152C12.9449 11.862 12.9598 11.9073 12.9831 11.9483C13.0065 11.9893 13.038 12.0251 13.0755 12.0537L13.6651 12.5001C13.8251 12.6215 14.0633 12.597 14.1872 12.4386C14.2411 12.3699 14.2939 12.3005 14.3453 12.2305C14.4642 12.0687 14.4233 11.8324 14.2633 11.7112L14.1708 11.6419C14.1145 11.7269 14.0566 11.8108 13.9969 11.8934L14.0894 11.9628C14.1043 11.974 14.1141 11.9906 14.1168 12.0091C14.1195 12.0275 14.1148 12.0463 14.1037 12.0613C14.0566 12.1259 14.0083 12.1896 13.959 12.2525C13.9474 12.267 13.9306 12.2765 13.9122 12.2789C13.8938 12.2813 13.8751 12.2764 13.8603 12.2652L13.2707 11.8185C13.2563 11.8072 13.2469 11.7907 13.2446 11.7726C13.2423 11.7544 13.2473 11.7361 13.2584 11.7216C13.3077 11.6584 13.356 11.5947 13.4032 11.5304C13.4141 11.5158 13.4304 11.506 13.4485 11.5033C13.4666 11.5007 13.4851 11.5052 13.4998 11.5161L13.5634 11.5642C13.623 11.4817 13.6811 11.3979 13.7375 11.3128L13.6737 11.2645Z" fill="#AA9767"/>
<path d="M13.8594 4.529C14.4617 5.4572 14.8123 6.52612 14.8766 7.63076C14.9409 8.73541 14.7167 9.83778 14.2261 10.8296L14.4002 10.9163C14.9141 9.87777 15.1444 8.72184 15.0676 7.56565C14.9908 6.40947 14.6097 5.29414 13.963 4.3327L13.8594 4.529Z" fill="#AA9767"/>
<path d="M3.18099 4.529C2.57848 5.45714 2.22785 6.52607 2.16356 7.63075C2.09926 8.73542 2.32352 9.83782 2.81428 10.8296L2.63994 10.9163C2.12598 9.87779 1.8957 8.72187 1.97244 7.56569C2.04918 6.4095 2.43022 5.29416 3.07694 4.3327L3.18099 4.529Z" fill="#AA9767"/>
</g>
<defs>
<clipPath id="clip0_795_1405">
<rect width="16" height="16" fill="white" transform="translate(0.521973)"/>
</clipPath>
</defs>
</svg>
