<svg width="13" height="16" viewBox="0 0 13 16" fill="none" xmlns="http://www.w3.org/2000/svg">
<g clip-path="url(#clip0_795_2141)">
<path d="M12.9801 0H0.520508L0.524366 10.2198C0.523826 10.5453 0.598127 10.8665 0.741525 11.1587C0.884924 11.4509 1.09358 11.7062 1.35137 11.9049L1.36976 11.9194L6.75551 16L12.1395 11.9133C12.4012 11.714 12.6134 11.457 12.7599 11.1625C12.9063 10.8679 12.983 10.5435 12.9839 10.2146L12.9801 0Z" fill="white"/>
<path d="M9.85789 3.16574L8.47168 4.58532V14.2643L9.85789 13.2122V3.16574Z" fill="#E8151E"/>
<path d="M11.2466 12.1573L11.9136 11.6512C12.3498 11.3203 12.6323 10.8294 12.6321 10.2831L12.6285 0.327484L11.2466 1.74252V12.1573Z" fill="#E8151E"/>
<path d="M4.32762 13.728V8.82883L2.94141 10.2484V12.6777L4.32762 13.728Z" fill="#E8151E"/>
<path d="M7.09715 15.3076V5.99286L5.71094 7.41266V14.7758L6.75514 15.5672L7.09715 15.3076Z" fill="#E8151E"/>
<path d="M12.9801 0H0.520508L0.524366 10.2198C0.523976 10.5399 0.596002 10.856 0.735052 11.1444C0.874103 11.4327 1.07657 11.6859 1.32732 11.8849C1.33526 11.8913 1.34298 11.8979 1.35115 11.904L1.36953 11.9185L6.75529 15.9991L12.1395 11.9133C12.4012 11.714 12.6134 11.457 12.7599 11.1625C12.9063 10.8679 12.983 10.5435 12.9839 10.2146L12.9801 0ZM8.58927 1.80516L2.32976 8.21787L2.32726 1.80834L8.58927 1.80516ZM11.9134 11.6153L6.75506 15.5304L1.61441 11.6353L12.6061 0.378553L12.6097 10.2144C12.6089 10.4857 12.5458 10.7531 12.425 10.9961C12.3043 11.239 12.1292 11.4509 11.9134 11.6153Z" fill="#282A6F"/>
<path d="M1.28368 0.744383L1.42417 0.312042L1.56487 0.744383L2.01946 0.744156L1.6518 1.0115L1.79251 1.44407L1.42439 1.17695L1.05673 1.4443L1.19699 1.01173L0.829102 0.74461L1.28368 0.744383Z" fill="white"/>
<path d="M5.81249 0.742809L5.95275 0.310242L6.09346 0.742582H6.54826L6.18038 1.00993L6.32109 1.44227L5.9532 1.17515L5.58554 1.4425L5.7258 1.01016L5.35791 0.743036L5.81249 0.742809Z" fill="white"/>
<path d="M1.2871 9.86711L1.42758 9.43454L1.56829 9.86688H2.02287L1.65521 10.1342L1.79592 10.5666L1.42781 10.2994L1.06015 10.5668L1.20041 10.1345L0.83252 9.86733L1.2871 9.86711Z" fill="white"/>
<path d="M1.28515 5.31834L1.4254 4.88577L1.56611 5.31811L2.02092 5.31789L1.65303 5.58546L1.79374 6.0178L1.42586 5.75068L1.05797 6.01803L1.19845 5.58546L0.830566 5.31834H1.28515Z" fill="white"/>
<path d="M4.45507 6.96397L4.59555 6.5314L4.73626 6.96374H5.19084L4.82318 7.23109L4.96389 7.66343L4.59578 7.39631L4.22812 7.66366L4.36837 7.23132L4.00049 6.9642L4.45507 6.96397Z" fill="white"/>
<path d="M7.5012 3.91354L7.64145 3.4812L7.78216 3.91354L8.23674 3.91331L7.86908 4.18066L8.00979 4.61323L7.6419 4.34611L7.27402 4.61346L7.41427 4.18089L7.04639 3.91377L7.5012 3.91354Z" fill="white"/>
<path d="M10.3413 0.740995L10.4818 0.308655L10.6225 0.740995L11.0771 0.740768L10.7094 1.00812L10.8501 1.44068L10.482 1.17356L10.1143 1.44091L10.2546 1.00834L9.88672 0.741222L10.3413 0.740995Z" fill="white"/>
<path d="M4.81552 5.00585C4.81103 4.97378 4.8024 4.94244 4.78987 4.91257C4.69342 4.69129 4.59061 4.73305 4.52956 4.43121C4.51949 4.37504 4.50623 4.3195 4.48985 4.26485C4.47873 4.23308 4.45694 4.16885 4.46239 4.11779C4.47351 4.01135 4.50778 3.89084 4.52344 3.78281C4.52344 3.78145 4.52344 3.78031 4.52344 3.77895C4.54075 3.77444 4.55648 3.76527 4.56894 3.75242C4.58138 3.73958 4.59007 3.72355 4.59402 3.7061C4.59856 3.67206 4.58925 3.6589 4.50891 3.63802L4.50619 3.63484C4.4583 3.54769 4.37932 3.5175 4.29081 3.50026C4.2611 3.49569 4.23078 3.49708 4.20162 3.50434C4.17545 3.50775 4.14888 3.50291 4.12559 3.4905C4.0802 3.46531 3.98193 3.3684 3.95356 3.41129C3.93561 3.43909 3.92463 3.47082 3.92156 3.50377C3.91848 3.5367 3.92338 3.56993 3.93586 3.60057C3.98125 3.70814 4.05274 3.73674 3.97739 3.86247C3.932 3.93759 3.84122 4.04902 3.81989 4.14797C3.75854 4.10878 3.70569 4.05769 3.66443 3.99773C3.64922 3.9582 3.628 3.92123 3.60156 3.88811V4.21061C3.64173 4.26213 3.68803 4.31955 3.73002 4.36948C3.68894 4.34247 3.64173 4.30956 3.60156 4.28142V4.54377C3.63379 4.56647 3.68168 4.59461 3.71504 4.61186C3.74561 4.62997 3.77811 4.64459 3.81195 4.65543C3.82692 4.83872 3.90674 5.01068 4.03708 5.14043C4.01575 5.22689 3.99464 5.3322 4.0069 5.37895C4.04843 5.53668 4.18846 5.66128 4.20071 5.75433C4.20639 5.79586 4.16077 5.81583 4.12695 5.84329L4.11175 5.85328L4.61104 5.86304L4.61853 5.85305C4.62636 5.83868 4.62824 5.8218 4.62375 5.80607C4.58426 5.55847 4.5804 5.52261 4.71725 5.3735C4.7603 5.32462 4.79056 5.26584 4.80531 5.20238C4.81382 5.20211 4.82221 5.20009 4.82993 5.19648C4.83765 5.19288 4.84455 5.18772 4.85022 5.18135C4.85589 5.17497 4.86021 5.16752 4.86291 5.15945C4.86559 5.15134 4.86661 5.14279 4.8659 5.1343C4.85739 5.08868 4.8403 5.04509 4.81552 5.00585ZM4.41881 5.75251C4.41314 5.78406 4.39475 5.80085 4.36956 5.82718C4.37962 5.77938 4.37914 5.72998 4.3682 5.68238C4.3598 5.64221 4.32871 5.53441 4.33121 5.51217C4.33439 5.48494 4.4263 5.71007 4.41881 5.75251Z" fill="black"/>
<path d="M3.77036 5.83626C3.74907 5.83644 3.72797 5.8324 3.70827 5.82437C3.68855 5.81633 3.67064 5.80446 3.65555 5.78946C3.64046 5.77444 3.62847 5.7566 3.62035 5.73692C3.6122 5.71727 3.60802 5.69618 3.60809 5.6749V3.58922C3.60805 3.55772 3.61536 3.52663 3.62943 3.49844L3.65938 3.45305C3.53862 3.46533 3.41691 3.46488 3.29626 3.45169L3.32327 3.49708C3.338 3.52574 3.34576 3.55745 3.34597 3.58968V5.67399C3.34606 5.69521 3.34195 5.71625 3.33387 5.73588C3.32579 5.75551 3.31392 5.77335 3.29892 5.78837C3.28392 5.8034 3.2661 5.81529 3.24647 5.82339C3.22686 5.83149 3.20582 5.83565 3.1846 5.83558L2.73297 5.85351C2.72635 5.85351 2.72 5.85614 2.71532 5.86081C2.71064 5.86549 2.70801 5.87184 2.70801 5.87847C2.70801 5.8851 2.71064 5.89145 2.71532 5.89613C2.72 5.9008 2.72635 5.90344 2.73297 5.90344L4.59215 5.89844L4.63754 5.85305L3.77036 5.83626Z" fill="#7E4F3A"/>
<path d="M3.47967 3.46871C4.01777 3.46871 4.45397 3.13695 4.45397 2.72772C4.45397 2.31848 4.01777 1.98672 3.47967 1.98672C2.94157 1.98672 2.50537 2.31848 2.50537 2.72772C2.50537 3.13695 2.94157 3.46871 3.47967 3.46871Z" fill="#006A3F"/>
<path d="M3.18247 2.998C3.17384 2.99457 3.16463 2.99292 3.15535 2.99312C3.14607 2.99332 3.13692 2.99537 3.12845 2.99913C3.11107 3.00699 3.09743 3.02133 3.09049 3.0391C3.08352 3.05687 3.08379 3.07666 3.09123 3.09423C3.09498 3.10276 3.10038 3.11045 3.10712 3.11688C3.11386 3.1233 3.1218 3.12834 3.1305 3.13167C3.13869 3.13474 3.14738 3.13628 3.15614 3.13621C3.16672 3.13623 3.17716 3.13399 3.18678 3.12963C3.19963 3.12382 3.21045 3.11433 3.2179 3.10235C3.22536 3.09037 3.22908 3.07646 3.22863 3.06236C3.22815 3.04829 3.22352 3.03465 3.21531 3.02319C3.20709 3.01173 3.19568 3.00297 3.18247 2.998Z" fill="#E8151E"/>
<path d="M3.59506 2.92266C3.6041 2.92613 3.61374 2.92772 3.62341 2.92738C3.63308 2.92701 3.64259 2.92472 3.65135 2.92061C3.66011 2.91689 3.66803 2.91147 3.67465 2.90464C3.68126 2.89783 3.68646 2.88975 3.68993 2.8809C3.6934 2.87202 3.69506 2.86258 3.69483 2.85307C3.6946 2.84356 3.69247 2.83419 3.68857 2.82552C3.68475 2.81706 3.67931 2.80943 3.67252 2.80308C3.66573 2.79672 3.65777 2.79177 3.64908 2.78853C3.63092 2.78165 3.61077 2.78222 3.59302 2.79012C3.5755 2.79783 3.56177 2.81215 3.55478 2.82999C3.54781 2.84781 3.54817 2.86767 3.5558 2.88521C3.55952 2.89374 3.5649 2.90146 3.57164 2.9079C3.57838 2.91433 3.58635 2.91934 3.59506 2.92266Z" fill="#E8151E"/>
<path d="M4.06247 2.71457C4.0715 2.71804 4.08115 2.71963 4.09082 2.71929C4.10048 2.71892 4.10999 2.71663 4.11875 2.71252C4.13596 2.70474 4.14937 2.69046 4.15606 2.67281C4.16274 2.65515 4.16212 2.63556 4.15438 2.61834C4.14624 2.60052 4.13139 2.58666 4.11308 2.57976C4.10464 2.57617 4.09558 2.57431 4.08641 2.57431C4.07724 2.57431 4.06819 2.57617 4.05975 2.57976C4.04229 2.58795 4.0287 2.60263 4.02189 2.6207C4.01506 2.63874 4.01554 2.65874 4.02321 2.67644C4.02691 2.68508 4.03226 2.69289 4.039 2.69945C4.04574 2.70599 4.05373 2.71114 4.06247 2.71457Z" fill="#E8151E"/>
<path d="M2.89048 2.70662C2.88185 2.70319 2.87264 2.70153 2.86336 2.70174C2.85407 2.70194 2.84493 2.70398 2.83646 2.70775C2.81908 2.7156 2.80544 2.72995 2.79849 2.74772C2.79153 2.76549 2.7918 2.78528 2.79924 2.80284C2.80299 2.81138 2.80839 2.81907 2.81513 2.82549C2.82187 2.83192 2.82981 2.83696 2.8385 2.84029C2.84672 2.84329 2.85541 2.84481 2.86415 2.84483C2.87473 2.84485 2.88517 2.84261 2.89479 2.83825C2.90763 2.83244 2.91846 2.82295 2.92593 2.81097C2.93337 2.79899 2.93709 2.78507 2.93664 2.771C2.93616 2.75691 2.93153 2.74327 2.92332 2.73181C2.9151 2.72035 2.90369 2.71159 2.89048 2.70662Z" fill="#E8151E"/>
<path d="M3.39706 2.53457C3.39327 2.52608 3.38785 2.51843 3.38106 2.51208C3.37428 2.50572 3.36629 2.5008 3.35757 2.49757C3.33942 2.4907 3.31926 2.49126 3.30152 2.49916C3.284 2.50688 3.27026 2.5212 3.26327 2.53904C3.25631 2.55685 3.25667 2.57671 3.2643 2.59425C3.26804 2.60279 3.27344 2.61048 3.28018 2.6169C3.28692 2.62333 3.29487 2.62836 3.30356 2.6317C3.31259 2.63517 3.32224 2.63676 3.3319 2.63642C3.34157 2.63606 3.35108 2.63377 3.35984 2.62966C3.3686 2.62594 3.37652 2.62051 3.38315 2.61368C3.38975 2.60687 3.39495 2.59879 3.39842 2.58994C3.4019 2.58107 3.40355 2.57163 3.40333 2.56212C3.4031 2.55261 3.40097 2.54324 3.39706 2.53457Z" fill="#E8151E"/>
<path d="M3.88709 3.21407C3.8952 3.21723 3.90382 3.21884 3.91251 3.21884C3.92309 3.21884 3.93355 3.2165 3.94315 3.21203C3.95191 3.20831 3.95983 3.20289 3.96643 3.19605C3.97306 3.18925 3.97826 3.18117 3.98173 3.17232C3.9852 3.16344 3.98686 3.154 3.98663 3.14449C3.98641 3.13498 3.98427 3.12561 3.98037 3.11694C3.97658 3.10847 3.97113 3.10087 3.96435 3.09454C3.95756 3.08823 3.9496 3.08335 3.94088 3.08017C3.92754 3.07502 3.91294 3.07391 3.89896 3.077C3.885 3.08008 3.87223 3.08721 3.86229 3.09749C3.85232 3.10779 3.84563 3.12078 3.84302 3.13485C3.84041 3.14892 3.842 3.16346 3.8476 3.17663C3.85133 3.18521 3.85675 3.19292 3.86354 3.19937C3.87032 3.20579 3.87833 3.21081 3.88709 3.21407Z" fill="#E8151E"/>
</g>
<defs>
<clipPath id="clip0_795_2141">
<rect width="12.4634" height="16" fill="white" transform="translate(0.520508)"/>
</clipPath>
</defs>
</svg>
