<svg width="121" height="64" viewBox="0 0 121 64" fill="none" xmlns="http://www.w3.org/2000/svg">
<g clip-path="url(#clip0_761_516)">
<g clip-path="url(#clip1_761_516)">
<path d="M1.04333 37.8673L11.5155 31.3472H16.9502C17.1179 31.3472 17.2712 31.4797 17.2712 31.6685C17.2712 31.8218 17.2014 31.8848 17.1179 31.9336L11.9758 35.0192C11.6409 35.2216 11.5223 35.6195 11.5223 35.9197L11.5155 37.8673H18.0528V26.5651C18.0528 26.3487 17.8852 26.1603 17.6341 26.1603H11.3969L0.952637 32.6525V37.8673H1.04333Z" fill="black"/>
<path d="M86.9131 37.8676H96.3318V35.3333H89.8991V33.2113H95.0759V30.6702H89.8991V28.6946H96.3318V26.1603H86.9131V37.8676Z" fill="black"/>
<path d="M27.7294 26.1603L23.2432 37.8676H26.327L27.1082 35.6754H32.1178L32.8851 37.8676H36.0735L31.5318 26.1603H27.7294ZM27.9945 33.1834L29.634 28.5968L31.2456 33.1834H27.9945Z" fill="black"/>
<path d="M48.8687 28.6946H52.6431V37.8676H55.6223V28.6946H59.3828V26.1603H48.8687V28.6946Z" fill="black"/>
<path d="M44.5292 33.3578C44.5292 34.8798 43.5943 35.4942 41.9967 35.4942C40.4478 35.4942 39.4362 34.8519 39.4362 33.3578V26.1184H36.4502V33.6999C36.4502 37.0785 39.4642 38.1327 41.9895 38.1327C44.5013 38.1327 47.5013 37.0785 47.5013 33.6999V26.1184H44.5153V33.3578H44.5292Z" fill="black"/>
<path d="M120.953 26.1603H117.402L113.146 30.9145V26.1603H110.16L110.174 37.8676H113.146V33.4208L117.178 37.8676H120.953L115.511 32.0872L120.953 26.1603Z" fill="black"/>
<path d="M79.8942 26.1603H74.4243V37.8676H79.8942C84.0874 37.8676 85.2454 36.3037 85.2454 31.9268C85.2454 27.8149 84.1361 26.1603 79.8942 26.1603ZM79.7756 35.3333H77.4035V28.6946H79.7756C81.6454 28.6946 82.2035 29.204 82.2035 31.9268C82.2035 34.412 81.5756 35.3333 79.7756 35.3333Z" fill="black"/>
<path d="M105.352 30.9775L102.631 30.6702C101.041 30.4957 100.643 30.0977 100.643 29.5601C100.643 28.9597 101.459 28.4224 103.057 28.4224C104.592 28.4224 105.394 28.9948 105.541 29.8534H108.464C108.317 27.375 106.245 25.8394 103.218 25.8394C99.6175 25.8394 97.8107 27.2704 97.8107 29.8047C97.8107 31.8641 99.0107 32.8345 101.494 33.0995L104.257 33.3929C105.311 33.5115 105.792 33.9163 105.792 34.4468C105.792 35.0471 105.087 35.5848 103.392 35.5848C101.431 35.5848 100.643 35.089 100.511 34.0907H97.6431C97.7756 36.7855 99.5269 38.1607 103.287 38.1607C106.72 38.1607 108.638 36.653 108.638 34.3841C108.638 32.4086 107.501 31.2218 105.352 30.9775Z" fill="black"/>
<path d="M66.3246 25.8394C62.0687 25.8394 59.8643 28.4571 59.8643 31.9826C59.8643 35.5221 62.0687 38.1539 66.3246 38.1539C70.5944 38.1539 72.7992 35.5221 72.7992 31.9826C72.806 28.4571 70.5944 25.8394 66.3246 25.8394ZM66.3246 35.5221C64.1198 35.5221 62.9062 34.1745 62.9062 31.9826C62.9062 29.8323 64.1198 28.4711 66.3246 28.4711C68.5501 28.4711 69.7433 29.8323 69.7433 31.9826C69.7501 34.1817 68.5501 35.5221 66.3246 35.5221Z" fill="black"/>
</g>
</g>
<defs>
<clipPath id="clip0_761_516">
<rect width="120" height="64" fill="white" transform="translate(0.952637)"/>
</clipPath>
<clipPath id="clip1_761_516">
<rect width="120" height="12.3213" fill="white" transform="translate(0.952637 25.8394)"/>
</clipPath>
</defs>
</svg>
