<svg width="41" height="16" viewBox="0 0 41 16" fill="none" xmlns="http://www.w3.org/2000/svg">
<g clip-path="url(#clip0_761_516)">
<g clip-path="url(#clip1_761_516)">
<path d="M0.925252 9.95576L4.41597 7.78239H6.22756C6.28344 7.78239 6.33454 7.82657 6.33454 7.8895C6.33454 7.9406 6.31126 7.96162 6.28344 7.97785L4.56941 9.00639C4.45777 9.07385 4.41824 9.20651 4.41824 9.30657L4.41597 9.95576H6.59508V6.18836C6.59508 6.11624 6.5392 6.05344 6.4555 6.05344H4.37645L0.89502 8.2175V9.95576H0.925252Z" fill="black"/>
<path d="M29.5486 9.95588H32.6882V9.11111H30.5439V8.40376H32.2695V7.55672H30.5439V6.89821H32.6882V6.05344H29.5486V9.95588Z" fill="black"/>
<path d="M9.8206 6.05344L8.3252 9.95588H9.35314L9.61355 9.22514H11.2834L11.5392 9.95588H12.602L11.0881 6.05344H9.8206ZM9.90896 8.39445L10.4555 6.86561L10.9927 8.39445H9.90896Z" fill="black"/>
<path d="M16.8672 6.89821H18.1253V9.95588H19.1184V6.89821H20.3719V6.05344H16.8672V6.89821Z" fill="black"/>
<path d="M15.4206 8.45259C15.4206 8.95994 15.1089 9.16471 14.5764 9.16471C14.0601 9.16471 13.7229 8.95062 13.7229 8.45259V6.03946H12.7275V8.56662C12.7275 9.69283 13.7322 10.0442 14.574 10.0442C15.4112 10.0442 16.4112 9.69283 16.4112 8.56662V6.03946H15.4159V8.45259H15.4206Z" fill="black"/>
<path d="M40.8951 6.05344H39.7113L38.2928 7.63815V6.05344H37.2974L37.302 9.95588H38.2928V8.47361L39.6369 9.95588H40.8951L39.0811 8.02908L40.8951 6.05344Z" fill="black"/>
<path d="M27.209 6.05344H25.3857V9.95588H27.209C28.6068 9.95588 28.9928 9.43457 28.9928 7.97559C28.9928 6.60496 28.623 6.05344 27.209 6.05344ZM27.1695 9.11111H26.3788V6.89821H27.1695C27.7928 6.89821 27.9788 7.068 27.9788 7.97559C27.9788 8.804 27.7695 9.11111 27.1695 9.11111Z" fill="black"/>
<path d="M35.695 7.65916L34.788 7.55671C34.2578 7.49856 34.1252 7.3659 34.1252 7.18668C34.1252 6.98656 34.3974 6.80746 34.9299 6.80746C35.4415 6.80746 35.709 6.99826 35.7578 7.28447H36.7323C36.6833 6.45832 35.9927 5.94644 34.9834 5.94644C33.7834 5.94644 33.1811 6.42346 33.1811 7.26823C33.1811 7.95468 33.5811 8.27814 34.4089 8.3665L35.3299 8.46429C35.6811 8.50382 35.8415 8.63874 35.8415 8.81558C35.8415 9.0157 35.6067 9.19492 35.0415 9.19492C34.388 9.19492 34.1252 9.02967 34.0811 8.69689H33.1252C33.1694 9.59516 33.7532 10.0535 35.0067 10.0535C36.1508 10.0535 36.7903 9.55098 36.7903 8.79468C36.7903 8.13617 36.4113 7.74059 35.695 7.65916Z" fill="black"/>
<path d="M22.6857 5.94644C21.267 5.94644 20.5322 6.81904 20.5322 7.9942C20.5322 9.17402 21.267 10.0513 22.6857 10.0513C24.1089 10.0513 24.8439 9.17402 24.8439 7.9942C24.8461 6.81904 24.1089 5.94644 22.6857 5.94644ZM22.6857 9.17402C21.9507 9.17402 21.5462 8.72483 21.5462 7.9942C21.5462 7.27743 21.9507 6.8237 22.6857 6.8237C23.4275 6.8237 23.8252 7.27743 23.8252 7.9942C23.8275 8.72722 23.4275 9.17402 22.6857 9.17402Z" fill="black"/>
</g>
</g>
<defs>
<clipPath id="clip0_761_516">
<rect width="40" height="16" fill="white" transform="translate(0.89502)"/>
</clipPath>
<clipPath id="clip1_761_516">
<rect width="40" height="4.1071" fill="white" transform="translate(0.89502 5.94644)"/>
</clipPath>
</defs>
</svg>
