<svg width="41" height="16" viewBox="0 0 41 16" fill="none" xmlns="http://www.w3.org/2000/svg">
<g clip-path="url(#clip0_806_1030)">
<g clip-path="url(#clip1_806_1030)">
<path d="M12.5423 3.79642C12.3913 3.64537 12.1579 3.64537 12.0068 3.79642L11.7871 4.01613C11.6361 4.16717 11.6361 4.40061 11.7871 4.55166L15.2612 8.03948L11.7871 11.5273C11.6361 11.6784 11.6361 11.9118 11.7871 12.0628L12.0068 12.2825C12.1579 12.4336 12.3913 12.4336 12.5423 12.2825L16.7717 8.03948L12.5423 3.79642Z" fill="#FAA74A"/>
<path d="M38.9619 4.40062C38.9619 3.94748 39.305 3.60419 39.7583 3.60419C40.2116 3.60419 40.5547 3.94748 40.5547 4.40062C40.5547 4.85376 40.2116 5.19705 39.7583 5.19705C39.305 5.19705 38.9619 4.85376 38.9619 4.40062ZM40.4585 4.40062C40.4585 3.98867 40.1704 3.70031 39.7583 3.70031C39.3463 3.70031 39.0581 4.0024 39.0581 4.40062C39.0581 4.81256 39.3463 5.10093 39.7583 5.10093C40.1566 5.11466 40.4585 4.79883 40.4585 4.40062ZM39.621 4.79883H39.5111V3.97494C39.566 3.96121 39.6347 3.96121 39.7034 3.96121C39.9094 3.96121 40.033 4.05733 40.033 4.23584C40.033 4.37315 39.9369 4.45554 39.8407 4.48301L40.1154 4.81257H39.9918L39.7446 4.51047H39.6347L39.621 4.79883ZM39.621 4.41435H39.7171C39.827 4.41435 39.9231 4.35942 39.9231 4.23584C39.9231 4.12599 39.8407 4.07106 39.7034 4.07106C39.6759 4.07106 39.6347 4.07106 39.6072 4.07106L39.621 4.41435Z" fill="#1E3860"/>
<path d="M35.8038 7.54516C35.8038 7.54516 35.4057 7.44904 35.1859 7.36665C34.4854 7.11947 33.8401 6.74873 33.8401 6.07588C33.8401 5.29318 34.5129 4.75765 35.5291 4.75765C36.2021 4.75765 36.7238 4.94989 37.0946 5.32064L37.2182 5.44423C37.3693 5.59527 37.6026 5.59527 37.7536 5.44423L37.9734 5.22452C38.1245 5.07347 38.1245 4.84004 37.9734 4.68899C37.9185 4.62033 37.8498 4.56541 37.8498 4.56541C37.2594 4.00241 36.4491 3.70032 35.5291 3.70032C34.6915 3.70032 34.0187 3.92002 33.4558 4.38689C32.9201 4.84004 32.6592 5.40303 32.6592 6.08962C32.6592 7.76487 34.2247 8.1768 35.5977 8.54757L35.6389 8.56128C36.8474 8.84964 37.4515 9.33027 37.4515 9.98938C37.4515 10.827 36.7512 11.3213 35.5977 11.3213C34.87 11.3213 34.2247 11.0742 33.7852 10.6348L33.6616 10.5112C33.5105 10.3601 33.2773 10.3601 33.1262 10.5112L32.8652 10.7721C32.7141 10.9231 32.7141 11.1566 32.8652 11.3076L32.9888 11.4312C33.6204 12.0491 34.5266 12.3924 35.5977 12.3924C36.4903 12.3924 37.2182 12.1727 37.7948 11.7195C38.358 11.2939 38.6324 10.7034 38.6324 9.97565C38.6599 8.42398 37.3144 7.88844 35.8038 7.54516Z" fill="#1E3860"/>
<path d="M26.0403 3.68658C23.6373 3.68658 21.7012 5.63647 21.7012 8.03949C21.7012 10.4425 23.6373 12.3924 26.0403 12.3924C28.4435 12.3924 30.3796 10.4425 30.3796 8.03949C30.3796 5.63647 28.4297 3.68658 26.0403 3.68658ZM26.0403 4.75765C27.8529 4.75765 29.3223 6.22691 29.3223 8.03949C29.3223 9.85205 27.8529 11.3213 26.0403 11.3213C24.2278 11.3213 22.7585 9.85205 22.7585 8.03949C22.7585 6.22691 24.2278 4.75765 26.0403 4.75765Z" fill="#1E3860"/>
<path d="M20.2456 12.0628L20.0259 12.2825C19.8749 12.4336 19.6414 12.4336 19.4904 12.2825L16.5381 9.33027L17.2933 8.57501L20.2456 11.5273C20.3967 11.6646 20.3967 11.9118 20.2456 12.0628Z" fill="#1E3860"/>
<path d="M20.2456 4.01613L20.0259 3.79642C19.8749 3.64537 19.6414 3.64537 19.4904 3.79642L16.5381 6.74871L17.2933 7.50394L20.2456 4.55166C20.3967 4.41434 20.3967 4.16717 20.2456 4.01613Z" fill="#1E3860"/>
<path d="M8.17572 8.05323C8.16198 9.85205 6.6927 11.3213 4.89386 11.3213C3.0813 11.3213 1.61202 9.85205 1.61202 8.03949C1.61202 6.22691 3.09504 4.75765 4.89386 4.75765C6.6927 4.75765 8.16198 6.2132 8.17572 8.02576V8.05323ZM8.8623 3.68658H8.54647C8.34049 3.68658 8.16198 3.85136 8.16198 4.07107V5.18332C7.37928 4.26331 6.2121 3.68658 4.89386 3.68658C2.49084 3.68658 0.554688 5.63647 0.554688 8.03949C0.554688 10.4425 2.50457 12.3924 4.89386 12.3924C6.19837 12.3924 7.37928 11.8157 8.17572 10.8957V12.0079C8.17572 12.2139 8.34049 12.3924 8.5602 12.3924H8.87601C9.08198 12.3924 9.26049 12.2276 9.26049 12.0079V4.07107C9.24678 3.86509 9.08198 3.68658 8.8623 3.68658Z" fill="#1E3860"/>
</g>
</g>
<defs>
<clipPath id="clip0_806_1030">
<rect width="40" height="16" fill="white" transform="translate(0.554688)"/>
</clipPath>
<clipPath id="clip1_806_1030">
<rect width="40" height="8.79163" fill="white" transform="translate(0.554688 3.60419)"/>
</clipPath>
</defs>
</svg>
