<svg width="121" height="64" viewBox="0 0 121 64" fill="none" xmlns="http://www.w3.org/2000/svg">
<g clip-path="url(#clip0_737_2)">
<g clip-path="url(#clip1_737_2)">
<path d="M30.9007 43.448V41H30.8527C29.7277 42.878 27.7267 43.85 25.4527 43.85C20.8177 43.85 17.0527 40.361 17.0527 35.786C17.0527 30.725 20.6887 27.176 25.3477 27.176C27.6637 27.176 29.6107 28.034 30.8407 29.837H30.8977V27.605H33.8707V43.448H30.9007ZM30.9577 35.555C30.9577 32.468 28.7257 29.9 25.4347 29.9C22.4617 29.9 20.0347 32.447 20.0347 35.561C20.0347 38.537 22.4677 41.141 25.4347 41.141C26.9063 41.1275 28.3128 40.5327 29.3475 39.4862C30.3821 38.4398 30.961 37.0266 30.9577 35.555Z" fill="#151515"/>
<path d="M47.4098 43.448V34.814C47.4098 31.466 46.0958 29.894 43.4618 29.894C40.8278 29.894 39.2858 31.811 39.2858 34.787V43.454H36.3098V27.605H39.0848V29.3H39.1418C40.3118 27.8 41.9468 27.2 43.7768 27.2C47.5808 27.2 50.3768 29.6 50.3768 33.98V43.454H47.4068L47.4098 43.448Z" fill="#151515"/>
<path d="M90.8888 43.448V41H90.8348C89.7188 42.887 87.7148 43.859 85.4558 43.859C80.8208 43.859 77.0558 40.37 77.0558 35.795C77.0558 30.734 80.6858 27.185 85.3508 27.185C87.6668 27.185 89.6138 28.043 90.8438 29.846H90.8978V27.605H93.8528V43.448H90.8888ZM90.9458 35.555C90.9458 32.468 88.7138 29.894 85.4258 29.894C82.4498 29.894 80.0258 32.441 80.0258 35.555C80.0258 38.531 82.4588 41.135 85.4258 41.135C86.896 41.1215 88.3013 40.5274 89.3353 39.4822C90.3693 38.4369 90.9482 37.0253 90.9458 35.555Z" fill="#151515"/>
<path d="M98.3858 43.448V30.323H96.2528V27.605H98.3978V22.286H101.353V27.605H103.957V30.323H101.353V43.448H98.3858Z" fill="#151515"/>
<path d="M107.653 36.815C108.34 39.443 110.428 41.135 112.861 41.135C113.784 41.1421 114.692 40.8982 115.488 40.4296C116.284 39.9609 116.937 39.285 117.379 38.474H120.352C119.787 40.0446 118.753 41.4032 117.389 42.3651C116.025 43.327 114.398 43.8455 112.729 43.85C108.268 43.85 104.653 39.902 104.653 35.669C104.653 30.665 108.427 27.173 112.633 27.173C113.712 27.1529 114.784 27.3495 115.786 27.7511C116.788 28.1527 117.699 28.7512 118.466 29.5112C119.232 30.2712 119.838 31.1773 120.248 32.1757C120.658 33.1741 120.864 34.2447 120.853 35.324C120.867 35.8256 120.837 36.3274 120.766 36.824H107.653V36.815ZM117.892 34.529C117.667 31.829 115.291 29.894 112.744 29.894C110.311 29.894 107.881 31.811 107.644 34.529H117.892Z" fill="#151515"/>
<path d="M13.4528 31.964C13.018 31.5198 12.5244 31.1372 11.9858 30.827C12.173 30.6397 12.3464 30.4392 12.5048 30.227C13.3929 29.0149 13.8185 27.5253 13.7048 26.027C13.6085 24.4624 12.9476 22.986 11.8448 21.872C11.2125 21.2555 10.463 20.7722 9.64055 20.4506C8.81811 20.1291 7.93951 19.9758 7.05678 20H0.852783V43.85H8.15478C10.8938 43.85 12.5798 42.65 13.5158 41.633C14.7217 40.3138 15.384 38.5873 15.3698 36.8C15.3897 34.999 14.7013 33.2622 13.4528 31.964ZM7.05678 22.781C9.56778 22.781 10.8068 24.506 10.9208 26.21C10.9635 27.0611 10.6895 27.8979 10.1515 28.5589C9.61358 29.2198 8.84986 29.658 8.00778 29.789H3.63378V22.781H7.05678ZM8.15178 41.081H3.63378V32.57H7.75278C11.3198 32.57 12.5828 34.85 12.5828 36.803C12.5798 38.855 11.1968 41.069 8.15178 41.069V41.081Z" fill="#151515"/>
<path d="M74.6138 27.617C71.7998 27.407 70.7138 28.817 70.7138 28.817V27.617H67.7528V43.448H70.7258V34.556C70.7233 33.9071 70.8245 33.2619 71.0258 32.645C71.6678 30.701 73.7738 30.077 75.8258 30.845L77.0528 28.235C76.2852 27.8796 75.4581 27.67 74.6138 27.617Z" fill="#151515"/>
<path d="M52.7738 22.286H55.7498V43.451H52.7738V22.286Z" fill="#151515"/>
<path d="M62.4308 43.448L55.8668 35.519L61.7528 27.605H65.1158L59.3228 35.519L65.9378 43.448H62.4308Z" fill="#151515"/>
</g>
</g>
<defs>
<clipPath id="clip0_737_2">
<rect width="120" height="64" fill="white" transform="translate(0.852783)"/>
</clipPath>
<clipPath id="clip1_737_2">
<rect width="120" height="24" fill="white" transform="translate(0.852783 20)"/>
</clipPath>
</defs>
</svg>
