<svg width="120" height="64" viewBox="0 0 120 64" fill="none" xmlns="http://www.w3.org/2000/svg">
<g clip-path="url(#clip0_769_1244)">
<path fill-rule="evenodd" clip-rule="evenodd" d="M119.966 43.1236C119.924 42.8036 118.553 38.6886 117.382 40.0075C116.212 41.3277 113.209 46.3287 103.57 51.67C98.8269 54.2979 98.4583 50.9953 98.2225 49.661C98.2225 49.661 104.775 44.9887 108.119 38.8012C110.392 34.5953 108.927 33.6374 107.997 32.6859C107.153 31.8228 105.04 29.8714 102.297 31.9135C99.5541 33.9556 92.9754 40.5416 93.6894 47.7624C92.6207 48.864 89.5094 51.4593 87.4964 50.9968C85.4838 50.531 87.6078 46.1213 89.1121 43.1106C90.6104 40.1123 93.5499 37.7078 94.4534 36.3459C95.3582 34.9847 94.8546 34.5491 94.6747 34.3327C94.493 34.1162 94.0749 33.8164 93.4267 32.6195C92.7792 31.4236 91.8481 32.2566 91.8481 32.2566C87.5134 35.1523 84.4649 42.7942 84.4649 42.7942C83.594 43.7856 82.288 43.3965 82.038 43.2978C81.6558 43.1459 81.3684 42.1911 81.2912 41.7023C81.2278 41.309 80.9669 39.6933 80.7565 39.2522C80.5473 38.8118 80.3194 38.592 79.1982 38.9419C77.891 39.3497 76.9521 40.1645 76.5718 40.6131C76.189 41.0608 76.3668 41.1644 76.4613 42.585C76.5066 43.2851 76.5685 43.3047 76.086 44.5307C75.3588 46.3834 74.0966 48.7481 73.6984 49.542C73.3552 50.2264 70.8697 53.5855 69.8632 53.6646C68.9666 53.7367 68.6355 52.2735 68.6355 52.2735C68.6355 52.2735 68.121 48.893 68.4915 47.2217C85.9052 27.2717 90.2645 13.1914 90.2645 13.1914C90.3429 12.9535 90.7502 12.1301 89.5076 10.2545C87.898 7.82275 86.2186 7.92639 86.2186 7.92639C86.2186 7.92639 85.0454 7.77333 82.4429 10.5126C65.8717 27.9488 64.2276 46.2578 64.2276 46.2578C64.0628 46.6001 63.9988 46.6608 63.2836 47.4669C62.531 48.3145 61.4334 48.9186 61.4334 48.9186C61.4334 48.9186 60.3822 49.1961 60.1576 48.291C60.0136 47.7072 60.1102 47.2595 60.1881 46.4761C60.2599 45.7494 61.2806 43.3527 61.2806 43.3527C61.2806 43.3527 62.8157 39.9683 63.1559 38.9636C63.4965 37.9586 63.4167 36.8465 63.1016 36.0607C62.7873 35.2752 61.3727 34.4691 60.9186 34.1542C60.477 33.849 60.0051 33.3823 60.067 32.7127C60.0884 32.4942 59.8865 32.3109 60.7357 30.4021C61.5864 28.4924 60.0184 28.0294 59.562 27.9492C59.107 27.8696 57.8466 27.4781 56.6937 28.5053C54.6515 30.3272 54.5911 33.5179 54.5911 33.5179C54.5844 33.9393 54.7354 34.3529 54.5343 34.8275C54.4199 35.1004 54.1367 35.6211 53.4014 37.1453C52.6548 38.6934 51.0841 41.7959 50.1129 43.5233C49.2954 44.9766 48.1666 46.6478 47.4382 47.4792C46.9446 48.0416 46.2859 48.4957 46.2859 48.4957C46.2859 48.4957 45.5547 49.0569 45.5369 47.673C45.5176 46.2288 47.4726 41.8246 47.4726 41.8246C47.4726 41.8246 48.8426 38.3804 49.0195 37.9656C49.27 37.3763 49.4343 36.6004 49.0472 36.121C48.4815 35.4201 47.014 35.0593 46.3671 35.3884C45.722 35.7174 44.5633 37.7111 43.8753 38.8468C43.0053 40.2859 41.5949 43.0898 39.9743 45.8656C38.4051 48.5512 36.6563 49.5266 36.6563 49.5266C36.6563 49.5266 35.7144 50.1084 34.9851 49.4315C34.5697 49.0472 31.1626 45.99 39.2815 36.7943C42.6267 33.0062 44.3743 32.3713 46.1135 33.6139C46.7879 34.0963 47.45 34.9186 48.3131 34.9431C49.7778 34.9838 50.2572 33.1472 50.2572 33.1472C50.3067 32.8281 51.5897 29.3263 46.1132 29.2649C37.2235 29.1641 32.1361 39.3699 32.1361 39.3699C30.4398 32.8601 25.6303 32.3704 25.6303 32.3704C31.165 28.4142 34.3221 25.8855 38.3381 18.8255C42.3541 11.7645 36.506 6.18994 36.506 6.18994C34.0229 3.13542 27.9463 -0.0496217 17.7039 3.1311C7.00103 6.45575 6.11481 9.10338 5.04788 12.3465C3.98047 15.5896 6.07375 14.7533 7.35918 14.1204C8.6451 13.4861 13.6872 11.3931 13.6872 11.3931C13.6872 11.3931 0.914125 51.4623 0.536141 53.4104C0.197325 55.1601 -1.48732 59.9148 3.62608 60.5582C3.62608 60.5582 4.41742 60.6786 5.13896 60.4115C5.86047 60.1455 5.87934 59.6676 5.87934 59.6676C6.17853 58.5253 6.66409 56.7269 6.79574 56.5479C9.59547 65.1236 18.6562 62.6258 24.2632 57.5991C28.3356 53.9502 30.7451 48.9666 30.7451 48.9666C34.1968 56.6207 38.3629 52.5778 38.3629 52.5778C40.0568 51.1906 42.2321 48.0105 42.2321 48.0105C43.5408 54.2545 48.1054 51.6513 48.1054 51.6513C50.2521 50.3514 52.4057 46.4247 52.8308 45.7102C55.2601 41.6241 57.5493 36.6684 57.5493 36.6684C57.5493 36.6684 57.8566 36.6868 58.547 37.2972C59.1617 37.8418 58.8592 38.7312 58.6041 39.5526C58.3472 40.3746 57.354 42.4715 56.8371 44.2629C56.3079 46.0993 56.2074 47.8708 56.915 49.4714C57.6087 51.0376 59.6417 52.3701 61.0334 52.5295C62.8091 52.7339 64.4607 51.2924 64.4607 51.2924C64.7146 55.8412 68.208 57.4493 68.208 57.4493C72.7626 59.8644 77.0134 52.1965 77.0134 52.1965C79.9131 47.3742 79.6724 46.1618 79.9215 45.4234C80.2542 45.8638 81.0838 46.345 82.8232 46.6895C82.3583 48.3846 82.8492 50.0392 82.8492 50.0392C82.8492 50.0392 84.1739 53.4391 87.1674 54.2635C90.3743 55.1472 94.6068 51.8515 94.6068 51.8515C94.6068 51.8515 99.4056 60.2469 110.147 52.9545C120.887 45.6622 120.009 43.4439 119.966 43.1236ZM16.0797 10.3821C16.0797 10.3821 27.6877 4.72314 32.6916 7.58094C37.6969 10.4387 36.1727 15.5555 28.5475 24.0449C28.5475 24.0449 22.7178 29.3642 19.2385 30.8627C19.2385 30.8627 14.8523 31.5541 13.5938 32.1893C13.5938 32.1893 14.6353 28.6882 15.8862 24.6807C17.4369 19.7204 19.4513 14.2384 18.3353 12.7855C16.9758 11.0145 16.0797 10.3821 16.0797 10.3821ZM22.3002 52.9642C22.3002 52.9642 15.4129 59.8834 13.0959 57.2051C10.8998 54.6668 14.8566 51.2507 16.4048 50.4084C18.4118 49.3174 24.4845 48.1793 22.3002 52.9642ZM25.3599 48.4709C25.3599 48.4709 19.0805 40 8.39357 49.9647L11.929 37.5432C11.929 37.5432 15.6706 37.8982 20.8939 35.4282C20.8939 35.4282 32.1863 35.792 25.3599 48.4709ZM83.6595 15.1294C84.6753 14.1607 84.4018 15.223 84.2922 15.5474C84.2922 15.5474 79.7428 28.4161 69.9653 39.9538C69.9653 39.9538 75.1306 23.2816 83.6595 15.1294ZM105.237 34.5207C105.591 34.2762 106.039 34.6327 105.763 35.3494C105.665 35.6051 103.726 40.889 98.0465 44.8124C98.0465 44.8124 98.6297 39.0922 105.237 34.5207ZM94.3798 30.1142C95.6063 30.7159 95.6063 30.3968 95.9257 29.9035C96.2448 29.4098 98.0619 27.9857 98.0619 27.9857C98.0619 27.9857 99.7555 26.9584 101.493 24.4888C103.156 22.1228 101.705 20.5667 100.332 19.2223C98.9585 17.8778 95.7974 19.7007 93.4035 23.402C91.0086 27.1024 93.1562 29.5125 94.3798 30.1142Z" fill="#EB008B"/>
<path fill-rule="evenodd" clip-rule="evenodd" d="M109.636 54.0471H110.663V54.201H110.235V55.3334H110.064V54.201H109.636V54.0471Z" fill="#333333"/>
<path fill-rule="evenodd" clip-rule="evenodd" d="M111.863 55.3343V54.5742C111.863 54.5364 111.867 54.3731 111.867 54.2526H111.863L111.508 55.3343H111.339L110.983 54.2551H110.979C110.979 54.3731 110.983 54.5364 110.983 54.5739V55.3343H110.817V54.0474H111.061L111.423 55.1351L111.786 54.0474H112.029V55.3343H111.863Z" fill="#333333"/>
</g>
<defs>
<clipPath id="clip0_769_1244">
<rect width="120" height="60.3774" fill="white" transform="translate(0 1.81131)"/>
</clipPath>
</defs>
</svg>
