<svg width="22" height="16" viewBox="0 0 22 16" fill="none" xmlns="http://www.w3.org/2000/svg">
<g clip-path="url(#clip0_795_2649)">
<path d="M6.72537 0.87832C6.83298 0.765375 7.07257 0.532257 7.515 0.547164C7.79183 0.419309 8.10836 0.469682 8.22613 0.538806C8.22613 0.538806 8.42535 0.534062 8.55396 0.595957C10.1813 0.0523162 11.941 0.0523162 13.5681 0.595957C13.6965 0.534063 13.8957 0.538806 13.8957 0.538806C14.0135 0.469683 14.33 0.41931 14.6068 0.547164C15.0486 0.532255 15.2882 0.766277 15.3965 0.87832C15.4574 0.707093 15.5639 0.562071 15.8139 0.477804C15.9041 0.0142718 16.5056 -0.195134 17.3548 0.232711C17.7338 -0.111104 18.2897 0.2553 18.4718 0.752267C18.7515 0.681563 19.1951 0.942241 19.1653 1.77758C19.4487 1.79249 19.5588 2.09112 19.4785 2.57498C19.647 2.53906 20.4748 2.385 21.0679 3.13972C21.3508 3.49979 21.1866 3.95969 20.8856 4.18425C20.8655 4.24027 20.7396 4.74289 20.3597 4.94777C20.3371 5.20257 20.778 5.7472 20.9438 6.10546C21.4099 7.11315 21.1782 8.82474 19.4505 9.11749C19.527 9.18932 19.7025 9.43035 19.76 9.63049C19.8343 9.88936 19.7783 10.1394 19.6472 10.3533C19.5046 10.5883 18.9704 10.9219 18.8389 11.0895C19.087 11.2361 19.3668 11.5356 19.2411 12.1008L18.7502 14.3117C18.6697 14.6717 18.4298 14.9765 18.0386 15.0555C17.8403 15.0955 17.6325 15.0535 17.5082 15.0205C16.6495 14.7928 16.0282 14.9695 15.0763 15.2783C14.58 15.4391 14.0399 15.6171 13.3987 15.7565C11.8569 16.0812 10.2645 16.0812 8.7227 15.7565C8.08219 15.6182 7.54071 15.4398 7.04438 15.2789C6.09252 14.9701 5.47117 14.7935 4.61251 15.0212C4.48752 15.0542 4.2804 15.0962 4.08208 15.0562C3.69087 14.9771 3.45036 14.6722 3.37049 14.3123L2.8798 12.1015C2.75413 11.5368 3.03502 11.2368 3.28207 11.0902C3.14963 10.9226 2.61628 10.5889 2.47371 10.354C2.34353 10.1397 2.28758 9.8896 2.3609 9.63116C2.41843 9.43102 2.59396 9.18999 2.67043 9.11817C0.943602 8.82496 0.711898 7.11337 1.17845 6.10567C1.34427 5.74741 1.7851 5.20211 1.76256 4.94798C1.38151 4.74378 1.25628 4.24049 1.2362 4.18447C0.935231 3.95993 0.770971 3.50001 1.0539 3.13993C1.64704 2.38522 2.47526 2.53928 2.64334 2.57519C2.56302 2.09133 2.67312 1.7927 2.95648 1.7778C2.92669 0.941991 3.37024 0.681767 3.65002 0.752482C3.83209 0.255533 4.388 -0.111104 4.76702 0.232926C5.61622 -0.195124 6.21885 0.0142625 6.30795 0.477794C6.55793 0.563183 6.66445 0.707084 6.72537 0.87832Z" fill="white"/>
<path d="M8.89732 14.9288C8.28613 14.7964 7.77151 14.6252 7.29864 14.4718C6.37364 14.1716 5.56143 13.9211 4.49743 14.1725C4.27994 14.2265 4.20413 14.2252 4.1563 14.0042L3.71479 12.0144C3.6744 11.8291 3.72877 11.7905 3.90723 11.7503C5.22255 11.4677 6.30707 11.6622 7.39804 11.9407C7.96974 12.0866 8.53716 12.2536 9.13165 12.3841C9.73652 12.517 10.3689 12.6123 11.0602 12.6123C11.7515 12.6123 12.3839 12.517 12.9887 12.3841C13.5832 12.2536 14.1506 12.0866 14.7223 11.9407C15.8134 11.6622 16.8979 11.4677 18.2131 11.7503C18.3916 11.7905 18.446 11.8291 18.4056 12.0144L17.9638 14.0054C17.9153 14.2265 17.84 14.2276 17.6218 14.1734C16.5574 13.9225 15.747 14.1734 14.8215 14.4729C14.3477 14.6263 13.834 14.7975 13.2228 14.9299C11.7964 15.2296 10.3234 15.2296 8.89707 14.9299L8.89732 14.9288ZM8.87318 3.52131L8.81565 3.48652L8.83009 3.42056C8.86844 3.24617 8.84475 3.09076 8.5765 3.08174L8.51017 3.07948L8.30712 2.44021L8.36307 2.40045C8.54717 2.26966 8.50453 2.10521 8.25477 2.01644L8.19273 1.99385V1.92812C8.19273 1.82172 8.25681 1.76276 8.30238 1.7212L8.33735 1.68935C8.34818 1.67896 8.35991 1.66676 8.37096 1.65524C8.39603 1.62794 8.41755 1.59758 8.43504 1.56488L8.45128 1.53439L8.48332 1.52174C10.1404 0.873287 11.9806 0.873287 13.6376 1.52174L13.6696 1.53439L13.6859 1.56488C13.7034 1.59758 13.7249 1.62794 13.75 1.65524C13.7615 1.66789 13.7725 1.67783 13.7836 1.68935L13.8186 1.7212C13.8637 1.76276 13.9282 1.82172 13.9282 1.92812V1.9943L13.8662 2.01689C13.6164 2.10725 13.5729 2.27125 13.7579 2.4009L13.8138 2.44066L13.6108 3.07993L13.5444 3.08219C13.2762 3.09077 13.2525 3.24619 13.2908 3.42101L13.3053 3.48697L13.2478 3.52176C13.1672 3.57055 13.0966 3.76437 13.1433 3.90577L13.213 4.11607L13.0129 4.02097C11.7782 3.42913 10.3422 3.42913 9.10752 4.02097L8.90786 4.11698L8.97757 3.90667C9.02427 3.76481 8.95343 3.57099 8.87311 3.5222L8.87318 3.52131Z" fill="#FFFF00"/>
<path d="M18.381 5.22203C18.3751 5.23038 18.3686 5.23831 18.3616 5.24575C18.2887 5.3221 18.1448 5.39732 18.0189 5.39348L17.9129 5.39032L17.9223 5.49604C17.9639 5.95326 18.235 6.56539 18.5089 6.88257C18.7874 7.20424 18.9349 7.55369 18.9196 7.86769L18.9151 7.95804L19.0053 7.96663C19.5339 8.0161 19.9025 7.76513 20.0343 7.40417C20.2349 6.85526 19.8441 6.26185 19.5786 5.86019C19.2284 5.33047 19.2869 4.72939 19.3669 4.34988L19.38 4.28776L19.3275 4.25229C19.2217 4.18114 19.1657 4.06074 19.1657 3.92296C19.1657 3.7698 19.2036 3.60264 19.3559 3.44994C19.517 3.28888 19.6891 3.26922 19.9391 3.26922C20.0621 3.26922 20.3678 3.40476 20.458 3.53826C20.4605 3.54155 20.4613 3.54584 20.46 3.54978C20.46 3.5534 20.454 3.56446 20.4334 3.57553C20.3299 3.63065 20.2723 3.72146 20.2333 3.81001C20.1977 3.8911 20.1728 3.98372 20.1397 4.07091C20.0821 4.22159 20.0088 4.33318 19.7699 4.33318H19.6986L19.6794 4.40094C19.6449 4.52618 19.6254 4.6551 19.6214 4.78495C19.6068 5.17734 19.7042 5.44387 19.8484 5.68152C19.8976 5.76239 19.9741 5.87737 20.0544 6.0068C20.1364 6.13578 20.2107 6.26951 20.2768 6.40731C20.6191 7.14665 20.3897 8.05631 19.5549 8.32128C19.4213 8.36375 19.1212 8.40577 18.8036 8.35133L18.7503 8.34206L18.7158 8.3834C18.6971 8.40599 18.677 8.42745 18.6558 8.44869C18.624 8.48054 18.5854 8.51465 18.543 8.55079L18.5225 8.56864L18.5146 8.59439C18.4428 8.83067 18.4656 9.10692 18.7043 9.38319C18.7986 9.4923 18.8805 9.58107 18.9432 9.65788C19.006 9.73468 19.0382 9.78731 19.0504 9.82933C19.0664 9.88535 19.0556 9.95786 18.8266 10.123C18.2434 10.5422 18.0076 10.8987 17.879 11.1542C17.8197 11.2728 17.7865 11.3663 17.7488 11.43C17.722 11.4752 17.7064 11.4833 17.6746 11.4835C17.5598 11.4795 17.3919 11.4596 17.2685 11.4076L17.1929 11.3756L17.1519 11.4454C17.077 11.5714 16.7778 11.5947 16.6571 11.5156L16.6174 11.4896L16.5723 11.5063C16.3241 11.5983 16.1583 11.5845 16.0579 11.5545C16.0192 11.5435 15.9825 11.5266 15.9489 11.5043C15.9411 11.4989 15.9335 11.493 15.9264 11.4867C15.4867 11.4533 15.4548 11.0028 15.6459 10.7584C15.6881 10.7044 15.8201 10.5431 16.0954 10.5431C16.2829 10.5431 17.17 9.9861 17.17 9.69153C17.17 9.62376 17.1248 9.57497 17.0924 9.54538C17.0496 9.50953 17.0038 9.47755 16.9554 9.44983C16.8548 9.38951 16.7208 9.31949 16.5868 9.23207C16.3205 9.05881 16.0888 8.83833 16.0888 8.51509C16.0888 8.25554 16.1617 7.80916 16.888 7.80916H16.982V7.71497C16.982 7.18864 16.4541 6.66298 16.1924 6.46352C16.0505 6.35168 15.9373 6.20757 15.8621 6.04314L15.8452 6.00723L15.808 5.99413C15.5388 5.8997 15.2988 5.59339 15.0723 5.23399C14.9594 5.05645 14.8566 4.87417 14.7584 4.71287C14.6603 4.55158 14.5628 4.40293 14.4651 4.30176L14.4367 4.27217H14.3961C14.2774 4.27352 14.1265 4.22699 13.9984 4.17797L13.9519 4.15967L13.9106 4.18813C13.6789 4.34829 13.4258 4.24461 13.4143 4.10907L13.4061 4.02391H13.3206C13.1882 4.02391 13.1332 3.94327 13.1282 3.82174C13.1228 3.6862 13.1859 3.55857 13.2469 3.52153L13.3044 3.48674L13.29 3.42078C13.2541 3.25769 13.1882 2.76411 14.5818 3.37447C14.6204 3.39142 14.6599 3.41039 14.7003 3.43072L14.8771 3.51972L14.834 3.32613C14.7801 3.08262 14.6711 2.85333 14.4428 2.65455L14.395 2.61298L14.339 2.64303C14.2474 2.68979 14.1836 2.68188 14.1055 2.64303C14.0545 2.61515 14.0056 2.58343 13.9593 2.54815C13.9018 2.50637 13.8391 2.4578 13.7671 2.40991C13.5704 2.27573 13.6148 2.10879 13.8662 2.0182L13.9282 1.99561V1.92807C13.9288 1.88103 13.9147 1.83499 13.8878 1.79638C13.8769 1.78023 13.8645 1.76511 13.8508 1.7512C13.8393 1.73945 13.8267 1.72861 13.8131 1.71551C13.7996 1.7024 13.7906 1.69427 13.777 1.6823C13.7635 1.67033 13.7545 1.65971 13.7423 1.64616C13.7164 1.61594 13.6947 1.58245 13.6776 1.54654C13.6074 1.40197 13.7678 1.23346 13.9709 1.32584L14.1028 1.25107C14.1099 1.24689 14.1175 1.24362 14.1254 1.24136C14.1671 1.22744 14.211 1.22146 14.2549 1.22374C14.3767 1.22668 14.4625 1.26644 14.4769 1.28812L14.6348 1.28496C14.6298 1.28807 14.6258 1.29263 14.6233 1.29806C14.6291 1.29566 14.6352 1.29414 14.6414 1.29354C14.674 1.29116 14.7067 1.29723 14.7364 1.31116C14.8171 1.34572 14.9338 1.44218 15.033 1.6814L15.0648 1.75798L15.1447 1.73539C15.2129 1.71598 15.2824 1.70164 15.3527 1.69247C15.3978 1.68728 15.5585 1.6753 15.5968 1.66988C15.638 1.66325 15.6768 1.64622 15.7096 1.62041C15.7353 1.59995 15.7592 1.57728 15.7809 1.55264L15.8096 1.52237C15.8182 1.51379 15.8272 1.50498 15.8367 1.49707C15.8519 1.48317 15.8695 1.47201 15.8886 1.46409C15.935 1.45234 15.9823 1.44404 16.03 1.43925L16.1367 1.42524L16.1088 1.3211C16.1011 1.29264 16.0914 1.25334 16.0862 1.21787C16.0835 1.20293 16.0817 1.18785 16.0808 1.17269C16.0804 1.16879 16.0804 1.16485 16.0808 1.16095C16.0853 1.14626 16.1033 1.12458 16.171 1.10334C16.243 1.08075 16.3226 1.07036 16.3727 1.05297C16.4027 1.04281 16.4341 1.03219 16.463 1.02067C16.4964 1.00838 16.5281 0.991833 16.5573 0.971424C16.6301 0.923371 16.6558 0.828604 16.6173 0.750275C16.636 0.752082 16.6624 0.756148 16.696 0.762021C16.7613 0.773766 16.8252 0.792003 16.8869 0.816462C16.9102 0.825458 16.9329 0.836258 16.9546 0.848765C16.9578 0.850641 16.9608 0.852677 16.9638 0.854864C16.9628 0.863924 16.9608 0.872854 16.958 0.881519C16.9501 0.906367 16.8537 1.08234 16.8537 1.08234C16.8537 1.08234 17.0468 1.06404 17.0712 1.06381C17.1026 1.06338 17.1339 1.06557 17.1648 1.07037C17.2145 1.0785 17.2612 1.08844 17.3022 1.09499C17.3476 1.1043 17.3944 1.10521 17.4401 1.0977C17.502 1.08582 17.5504 1.03743 17.5624 0.975492C17.569 0.938043 17.5681 0.899633 17.5597 0.862547C17.6065 0.87237 17.652 0.887922 17.695 0.908854C17.853 0.984529 17.9121 1.07782 17.8886 1.14265C17.8699 1.19438 17.7984 1.24498 17.7959 1.24679L17.6853 1.32088C17.6853 1.32088 17.7981 1.40469 17.8006 1.40717C17.8085 1.41311 17.8161 1.41952 17.8232 1.42637C17.8475 1.4524 17.868 1.48176 17.8841 1.51356C17.9518 1.63939 18.0923 1.59534 18.1494 1.56236C18.2205 1.52289 18.2721 1.45565 18.2918 1.37667C18.366 1.45461 18.4366 1.58314 18.4452 1.67711C18.4529 1.75934 18.4321 1.85285 18.3942 1.88199C18.3811 1.89216 18.3085 1.90458 18.2965 1.90458L18.1611 1.91994C18.1611 1.91994 18.2322 2.05842 18.239 2.08236C18.2512 2.12767 18.2563 2.17463 18.2539 2.22151C18.2478 2.37963 18.3985 2.40742 18.4795 2.39409C18.5494 2.38187 18.6137 2.34779 18.6631 2.29673C18.6692 2.30848 18.6753 2.32203 18.6816 2.33716C18.7243 2.4413 18.7471 2.57796 18.7186 2.67599C18.7019 2.73314 18.62 2.81152 18.5934 2.81694C18.5824 2.81885 18.5712 2.81938 18.56 2.81853C18.5427 2.81853 18.5255 2.81559 18.5106 2.81378C18.4912 2.81094 18.4716 2.80973 18.452 2.81017C18.366 2.81514 18.3419 2.86641 18.3491 2.92628C18.352 2.94663 18.3533 2.96716 18.3531 2.98772C18.3531 3.01031 18.3509 3.03425 18.3482 3.07197C18.3256 3.36315 18.5722 3.36292 18.7317 3.27663C18.7398 3.32605 18.7427 3.37616 18.7405 3.42617C18.7397 3.4999 18.7251 3.57282 18.6977 3.64122C18.6717 3.69905 18.6419 3.72074 18.6135 3.72571C18.5458 3.737 18.5185 3.72435 18.5099 3.72006C18.3847 3.65658 18.352 3.70018 18.3364 3.77337C18.3337 3.78579 18.3319 3.79777 18.3272 3.81335C18.3205 3.83452 18.3122 3.85514 18.3024 3.87502C18.2329 4.0223 18.2972 4.13615 18.426 4.16168C18.491 4.17205 18.5576 4.16702 18.6203 4.147C18.6189 4.19382 18.6119 4.2403 18.5995 4.28547C18.5584 4.43682 18.4786 4.52785 18.3725 4.51881C18.3678 4.5178 18.3633 4.51613 18.359 4.51384C18.3475 4.50774 18.3364 4.49984 18.3256 4.49261C18.309 4.48056 18.2916 4.46969 18.2735 4.46008C18.2474 4.44581 18.2182 4.43806 18.1884 4.43749C18.1569 4.43749 18.1036 4.45579 18.0804 4.52785C18.0722 4.55638 18.0669 4.58567 18.0646 4.61527C18.0587 4.69059 18.061 4.76633 18.0714 4.84116C18.0804 4.92404 18.1045 5.00457 18.1424 5.0788C18.1817 5.14951 18.25 5.21998 18.3563 5.21998C18.3662 5.22089 18.3742 5.22135 18.381 5.22203ZM5.50222 0.75334C5.46551 0.831226 5.49168 0.924286 5.56359 0.971551C5.59277 0.992151 5.62446 1.00893 5.65789 1.02147C5.687 1.03299 5.71836 1.04406 5.74814 1.05378C5.79822 1.07117 5.87786 1.08156 5.94983 1.10415C6.01752 1.12538 6.03669 1.14707 6.04008 1.16175C6.0405 1.16565 6.0405 1.16959 6.04008 1.1735C6.03916 1.18865 6.03735 1.20373 6.03466 1.21868C6.02857 1.25504 6.01887 1.29344 6.0121 1.32191L5.98413 1.42537L6.09084 1.43937C6.13854 1.44416 6.18582 1.45247 6.2323 1.46422C6.25188 1.47213 6.26991 1.48345 6.28554 1.49765C6.29502 1.50556 6.30404 1.51437 6.31262 1.52295L6.34127 1.55322C6.36301 1.57785 6.38687 1.60053 6.41256 1.62099C6.44536 1.6468 6.48418 1.66383 6.52537 1.67046C6.56372 1.67656 6.72323 1.68853 6.76948 1.69305C6.83978 1.70222 6.90931 1.71656 6.9775 1.73597L7.05736 1.75856L7.08918 1.68198C7.18845 1.44276 7.30509 1.3463 7.38585 1.31174C7.41548 1.29781 7.44819 1.29174 7.48084 1.29412C7.48704 1.29472 7.49313 1.29624 7.49889 1.29864C7.49645 1.29322 7.49244 1.28865 7.48738 1.28554L7.64531 1.2887C7.65975 1.26611 7.74548 1.22726 7.86731 1.22432C7.9112 1.22204 7.95512 1.22802 7.99681 1.24194C8.00509 1.24485 8.01274 1.24929 8.01937 1.25504C8.35463 1.23403 8.51435 1.40255 8.44419 1.54712C8.42684 1.58332 8.40476 1.61704 8.37854 1.64742C8.36681 1.66074 8.35598 1.67272 8.34379 1.68356C8.33161 1.6944 8.31898 1.70615 8.3077 1.71676C8.29642 1.72738 8.28153 1.74071 8.27002 1.75245C8.25636 1.76637 8.24397 1.78149 8.23302 1.79763C8.20619 1.83625 8.19207 1.88229 8.19264 1.92933V1.99551L8.25468 2.0181C8.50601 2.10846 8.55045 2.27562 8.35372 2.40981C8.28175 2.4586 8.21836 2.50626 8.1615 2.54806C8.11523 2.58333 8.06636 2.61505 8.0153 2.64293C7.93724 2.68269 7.8734 2.69059 7.7818 2.64293L7.72517 2.61424L7.67734 2.65581C7.44902 2.85459 7.34005 3.085 7.28612 3.32739L7.24303 3.52098L7.41991 3.43198C7.4603 3.41165 7.49978 3.39267 7.53836 3.37573C8.93197 2.76581 8.86609 3.25895 8.83021 3.42204L8.81577 3.488L8.8733 3.52279C8.93422 3.55983 8.99739 3.68836 8.99198 3.823C8.98724 3.94452 8.93196 4.02517 8.79953 4.02517H8.71402L8.70613 4.11033C8.69327 4.24587 8.44013 4.34955 8.20844 4.18939L8.16715 4.16093L8.12068 4.17923C7.99253 4.22937 7.84159 4.27478 7.72293 4.27342H7.68232L7.65367 4.30189C7.55688 4.40309 7.45942 4.55172 7.36037 4.713C7.26133 4.87429 7.15732 5.05657 7.04656 5.23412C6.82095 5.59352 6.57998 5.89982 6.31085 5.99425L6.27362 6.00736L6.2567 6.04327C6.18155 6.2077 6.06832 6.35182 5.92641 6.46365C5.66515 6.66312 5.13677 7.18876 5.13677 7.7151V7.80929H5.23085C5.9571 7.80929 6.02998 8.25567 6.02998 8.51522C6.02998 8.83846 5.7985 9.05895 5.53204 9.2322C5.39803 9.31962 5.26401 9.39032 5.1634 9.44996C5.11502 9.47768 5.06919 9.50966 5.02646 9.54551C4.99374 9.5751 4.94884 9.62435 4.94884 9.69166C4.94884 9.98532 5.83596 10.5433 6.02344 10.5433C6.29868 10.5433 6.42953 10.7046 6.47286 10.7585C6.66395 11.003 6.63214 11.4534 6.26485 11.4534H6.23236L6.19491 11.4868C6.18778 11.4932 6.18024 11.499 6.17235 11.5044C6.13883 11.5267 6.10207 11.5436 6.06338 11.5546C5.96298 11.5846 5.79603 11.5984 5.549 11.5065L5.50387 11.4897L5.46417 11.5157C5.34346 11.5948 5.04431 11.5715 4.9694 11.4455L4.92744 11.375L4.85051 11.4077C4.72777 11.4597 4.55992 11.4796 4.44442 11.4836C4.4126 11.4836 4.39704 11.4757 4.37019 11.4301C4.33251 11.3664 4.29935 11.272 4.24001 11.1543C4.11209 10.8988 3.87633 10.5423 3.29244 10.1231C3.06344 9.95843 3.05261 9.88592 3.06863 9.82944C3.08081 9.78742 3.11375 9.73457 3.1758 9.65799C3.23784 9.58141 3.32041 9.49241 3.41472 9.3833C3.65342 9.10704 3.6762 8.83076 3.60446 8.5945L3.59656 8.56875L3.57626 8.5509C3.53452 8.51476 3.49594 8.48065 3.46345 8.4488C3.44224 8.42757 3.42217 8.40566 3.40344 8.38352L3.36892 8.34218L3.31568 8.35144C2.99801 8.40588 2.69796 8.36386 2.56438 8.3214C1.72963 8.05643 1.49949 7.14677 1.84241 6.40743C1.90859 6.26964 1.98287 6.1359 2.06487 6.00691C2.14519 5.87747 2.22279 5.76249 2.27085 5.68164C2.41502 5.444 2.51271 5.17745 2.49781 4.78506C2.49382 4.6552 2.47436 4.52629 2.43983 4.40106L2.42065 4.33329H2.35184C2.11292 4.33329 2.0396 4.2217 1.98206 4.07103C1.9489 3.98384 1.92431 3.89032 1.88843 3.81012C1.8494 3.72157 1.79187 3.63077 1.68832 3.57565C1.66779 3.56458 1.66282 3.55306 1.6617 3.54989C1.66049 3.54595 1.66125 3.54167 1.66373 3.53837C1.75397 3.40419 2.05968 3.26934 2.18264 3.26934C2.43261 3.26934 2.60474 3.28876 2.76585 3.45005C2.91837 3.60275 2.95604 3.7699 2.95604 3.92307C2.95604 4.06086 2.90009 4.18126 2.79428 4.25241L2.74171 4.28787L2.7548 4.34999C2.83376 4.72904 2.89332 5.33126 2.54204 5.85984C2.2765 6.26147 1.88574 6.85488 2.0863 7.40382C2.21806 7.76525 2.5867 8.01577 3.11531 7.96628L3.20556 7.9577L3.20105 7.86734C3.1857 7.55334 3.33326 7.20389 3.61188 6.88222C3.88645 6.56597 4.15765 5.95291 4.19849 5.49569L4.20796 5.38997L4.10193 5.39314C3.97603 5.39698 3.83119 5.32175 3.75922 5.2454C3.75175 5.23768 3.74482 5.22945 3.73846 5.22078H3.76418C3.87045 5.22078 3.93881 5.1503 3.97806 5.0796C4.01598 5.00537 4.04006 4.92484 4.04913 4.84196C4.05949 4.76713 4.06176 4.69139 4.0559 4.61607C4.0536 4.58647 4.04831 4.55718 4.04011 4.52865C4.01755 4.45591 3.96363 4.43829 3.93204 4.43829C3.90228 4.43886 3.87311 4.44661 3.84698 4.46088C3.82887 4.47049 3.81146 4.48136 3.79487 4.49341C3.78404 4.50063 3.7723 4.50854 3.76148 4.51464C3.75722 4.51692 3.75266 4.5186 3.74794 4.51961C3.6419 4.52864 3.56203 4.43761 3.52098 4.28626C3.50858 4.2411 3.50161 4.19461 3.50022 4.14779C3.56293 4.16782 3.62946 4.17285 3.69447 4.16248C3.8233 4.13695 3.8876 4.0231 3.81811 3.87582C3.80825 3.85594 3.79995 3.83532 3.79329 3.81415C3.78855 3.79856 3.78675 3.78659 3.78404 3.77417C3.76892 3.70098 3.73576 3.65738 3.61054 3.72085C3.60197 3.72515 3.57399 3.7378 3.50699 3.7265C3.47856 3.72153 3.44878 3.69985 3.42283 3.64202C3.39537 3.57361 3.38083 3.50069 3.37997 3.42697C3.37776 3.37695 3.38071 3.32684 3.38876 3.27743C3.54895 3.36372 3.79486 3.36395 3.77231 3.07277C3.7696 3.03505 3.76757 3.01042 3.76735 2.98851C3.76718 2.96796 3.76853 2.94742 3.77141 2.92707C3.77863 2.86721 3.75449 2.81593 3.66853 2.81096C3.64891 2.81052 3.62929 2.81173 3.60987 2.81458C3.59498 2.81638 3.57783 2.81864 3.56068 2.81932C3.54946 2.82018 3.53817 2.81965 3.52707 2.81774C3.50044 2.81164 3.41855 2.73393 3.40185 2.67678C3.37342 2.5783 3.39621 2.44163 3.43885 2.33796C3.44517 2.32282 3.45126 2.30927 3.45735 2.29753C3.50676 2.34858 3.57105 2.38266 3.641 2.39489C3.72154 2.40821 3.87225 2.38156 3.86661 2.2223C3.86422 2.17542 3.86925 2.12846 3.8815 2.08315C3.88827 2.05921 3.95934 1.92074 3.95934 1.92074L3.82397 1.90538C3.81201 1.90402 3.73937 1.8925 3.72628 1.88279C3.68838 1.85365 3.66762 1.76013 3.67529 1.67791C3.68387 1.58393 3.75448 1.4554 3.82645 1.37973C3.84847 1.45765 3.90048 1.52363 3.97107 1.56315C4.02815 1.59613 4.16961 1.64018 4.23639 1.51436C4.2533 1.48239 4.27473 1.45302 4.30001 1.42717C4.30677 1.42035 4.31393 1.41394 4.32144 1.40797C4.32347 1.24578 4.25218 1.19518 4.23346 1.14345C4.21089 1.07862 4.2691 0.985325 4.42703 0.90965C4.47017 0.888216 4.51578 0.872207 4.56285 0.861988C4.55441 0.899077 4.55349 0.937484 4.56014 0.974933C4.57212 1.03687 4.62054 1.08527 4.68242 1.09714C4.72816 1.10466 4.77487 1.10374 4.82027 1.09443C4.86134 1.08788 4.90804 1.07794 4.95767 1.06981C4.98864 1.06501 5.01996 1.06282 5.0513 1.06326C5.07567 1.06326 5.26879 1.08178 5.26879 1.08178C5.26879 1.08178 5.172 0.906261 5.16343 0.881188C5.15987 0.871446 5.15767 0.861261 5.15689 0.850918C5.15959 0.848659 5.15869 0.853403 5.16681 0.848433C5.18851 0.835927 5.21113 0.825127 5.2345 0.816131C5.29615 0.791673 5.36009 0.773437 5.42537 0.76169C5.45079 0.75718 5.47641 0.754396 5.50222 0.75334Z" fill="#FF0000"/>
<path d="M2.06008 4.04058C2.12776 4.21316 2.17018 4.26647 2.48717 4.2545C2.54154 4.42528 2.57399 4.60229 2.58373 4.78129C2.59908 5.19265 2.49597 5.47524 2.34459 5.72508C2.29518 5.8064 2.21869 5.92161 2.13815 6.05128C2.05787 6.17724 1.98517 6.30789 1.92043 6.44252C1.59285 7.15023 1.82026 7.99531 2.59186 8.24038C2.70602 8.27652 2.95804 8.31289 3.23237 8.2781C3.19265 8.20578 3.16283 8.12843 3.1437 8.04815C2.57425 8.10823 2.1571 7.84484 2.00683 7.4328C1.89403 7.12672 1.95291 6.81657 2.06075 6.54504C2.1686 6.27351 2.33532 6.01871 2.47137 5.81294C2.80256 5.31235 2.76106 4.72707 2.6469 4.22741C2.757 4.16891 2.87071 4.12373 2.87025 3.92246C2.87025 3.77969 2.84002 3.63648 2.70894 3.51338C2.41316 3.23553 1.94681 3.41241 1.78394 3.53597C1.86429 3.59839 1.92659 3.68112 1.96443 3.77564C2.00098 3.85809 2.02623 3.9518 2.06008 4.04058ZM5.8983 5.82941C5.95358 5.88566 6.03232 5.91977 6.14242 5.91977C6.3836 5.91977 6.62612 5.68529 6.88964 5.28727C7.01599 5.09639 7.13195 4.89285 7.2407 4.71169C7.34944 4.53052 7.46315 4.35026 7.57912 4.22965L7.63845 4.16775C7.85098 4.19396 8.17991 4.04351 8.17991 4.04351L8.26654 4.10315C8.3413 4.15162 8.43114 4.17114 8.51923 4.15804C8.56883 4.15527 8.60849 4.11575 8.61151 4.0661C8.62482 3.96626 8.5366 3.89126 8.48268 3.8628C8.36987 3.80859 8.45064 3.63872 8.5639 3.69293C8.5639 3.69293 8.69453 3.74624 8.78094 3.92063C8.87479 3.92966 8.88359 3.87906 8.88946 3.82056C8.90096 3.70761 8.83328 3.50884 8.53255 3.5068C8.40756 3.51584 8.39403 3.32812 8.51902 3.31909C8.51902 3.31909 8.651 3.31163 8.73719 3.35026C8.75253 3.26103 8.71914 3.21902 8.68236 3.20478C8.57407 3.16277 8.2783 3.16096 7.57913 3.46975C7.4212 3.53933 7.08932 3.74082 6.77212 3.86257C6.84206 3.94615 6.95261 3.99404 7.05707 3.90775C7.22718 3.76725 7.19243 4.48715 6.92914 4.52556C6.86713 4.53295 6.80459 4.51684 6.75384 4.48038C6.74722 4.52759 6.73455 4.57375 6.71616 4.61772C6.65728 4.73066 6.68164 4.86823 6.86575 4.85807C6.86823 5.08012 6.67014 5.39071 6.34933 5.27303C6.12372 5.19013 6.21622 4.84633 5.9624 4.88767C5.95518 4.88902 5.92878 5.01304 5.94142 5.16935C5.97909 5.63741 6.165 5.53078 6.17537 5.58296C6.19861 5.69703 6.06368 5.8005 5.8983 5.82941ZM6.0991 6.11675C5.84777 6.10364 5.71195 5.97579 5.64357 5.80863C5.51046 5.75871 5.39901 5.63876 5.3769 5.41489C5.35614 5.20526 5.47752 4.93328 5.26409 4.93328C5.22912 4.93328 5.18897 5.09614 5.17182 5.17611C5.0633 5.67759 5.30493 5.54703 5.21378 5.65341C5.05856 5.83412 4.52566 5.79527 4.58455 5.27076C4.60125 5.12099 4.74812 4.83661 4.59493 4.83661C4.48596 4.83661 4.49972 5.24322 4.30727 5.41172C4.29441 5.94326 3.95465 6.64238 3.68956 6.94779C3.23835 7.46959 3.17675 8.00947 3.53908 8.37248C3.59255 8.42601 3.66564 8.48542 3.7401 8.55183C3.82849 8.62678 3.91017 8.70932 3.98421 8.79851C4.1365 8.99029 4.25179 9.28123 3.99098 9.56406C3.92826 9.63183 3.87388 9.69666 3.82403 9.7511C3.70671 9.87963 3.78657 9.92594 3.889 9.99777C4.31767 10.2973 4.57013 10.5648 4.73842 10.804C4.81124 10.908 4.8761 11.0175 4.93245 11.1313C4.97893 11.2241 5.01638 11.3093 5.05608 11.3877C5.08226 11.4394 5.30832 11.52 5.46827 11.3877C5.47211 11.2826 5.42902 11.1618 5.36697 11.073C5.29207 10.9646 5.45451 10.8521 5.52941 10.96C5.61402 11.0825 5.68396 11.2783 5.66365 11.4326C5.84414 11.4956 5.99034 11.4893 6.11487 11.4166C6.13314 11.2313 6.08283 11.0976 6.02079 11.0158C5.94114 10.911 6.0984 10.7913 6.17871 10.8961C6.27145 11.0261 6.32059 11.1823 6.31904 11.342C6.42666 11.3307 6.46569 11.26 6.47833 11.1778C6.49818 11.0477 6.4508 10.8911 6.39372 10.8182C6.3583 10.773 6.25294 10.6427 6.02576 10.6427C5.81459 10.6427 4.84762 10.068 4.84762 9.68761C4.84762 9.57308 4.9232 9.49718 4.96043 9.46443C5.00799 9.4241 5.05912 9.38819 5.11317 9.35713C5.21289 9.29727 5.34578 9.22792 5.47888 9.1414C5.74059 8.97108 5.93009 8.77748 5.93009 8.51115C5.93009 8.27916 5.86038 7.96021 5.38728 7.91728C5.28598 7.90802 4.94078 7.87436 4.72106 7.98663C4.60374 8.04649 4.49951 7.90124 4.6069 7.82511C4.6069 7.82511 4.72941 7.73476 5.03714 7.70584C5.04052 7.12687 5.60634 6.5764 5.86694 6.37737C5.95904 6.30482 6.03763 6.21664 6.0991 6.11675ZM3.73515 8.80779C3.74034 9.01109 3.67333 9.22885 3.48698 9.44457C3.39334 9.55277 3.31122 9.64019 3.24986 9.71722C3.13705 9.85885 3.12893 9.88618 3.34845 10.0459C3.94158 10.4771 4.18998 10.8419 4.32445 11.1114C4.41357 11.2901 4.43726 11.3922 4.47336 11.389C4.55098 11.3836 4.62807 11.3722 4.70393 11.3549C4.74185 11.3463 4.77898 11.3345 4.81493 11.3197C4.6755 11.026 4.479 10.6488 3.78749 10.1622C3.4078 9.89408 3.59256 9.72015 3.85788 9.43282C4.06409 9.20919 3.92353 8.99301 3.73515 8.80779ZM6.89178 2.9716H6.27721V2.49362C6.27721 2.49362 6.76206 2.49588 6.90894 2.47826C6.96352 2.47242 7.01865 2.47424 7.07273 2.48368C7.08221 2.48526 7.10635 2.48075 7.10703 2.46561C7.12101 2.38113 7.11537 2.19002 7.11537 2.19002C7.18725 2.10974 7.22632 2.0053 7.22479 1.89749C7.06032 1.83582 6.89133 1.78455 6.75957 1.76806C6.71287 1.76264 6.55156 1.75044 6.51252 1.74434C6.45984 1.73672 6.40995 1.7159 6.36745 1.6838C6.33948 1.66257 6.25081 1.5442 6.20456 1.53404C5.85305 1.45633 5.45509 1.49315 5.36281 1.51393C5.29121 1.53083 5.23353 1.58379 5.21053 1.65376C5.1442 1.65376 4.99845 1.65376 4.93709 1.6655C4.86579 1.68041 4.83917 1.68493 4.83737 1.73327C4.83421 1.81821 5.04606 1.95216 5.04606 1.95216C5.01657 2.11079 4.97563 2.26705 4.92355 2.41976C4.90663 2.46697 4.90573 2.50627 4.94611 2.60047C5.00319 2.73239 5.14149 2.80377 5.32966 2.83382C5.4666 2.85641 5.63965 3.07236 5.72447 3.10647C5.77614 3.12725 6.10171 3.12431 6.22737 3.11934C6.47892 3.1094 6.73725 3.08998 6.82364 3.07055C6.85004 3.06513 6.87735 3.00571 6.89178 2.9716ZM6.36859 3.28264C6.0665 3.29958 5.7283 3.30297 5.64662 3.25847C5.47719 3.16654 5.38063 3.01699 5.29671 3.00073C5.10156 2.96301 4.88384 2.88304 4.79111 2.66843C4.68056 2.41227 4.79449 2.36167 4.86014 2.02328C4.61987 1.83782 4.63047 1.66185 4.7514 1.55636C4.80284 1.51118 4.96573 1.48565 5.11961 1.48565C5.16202 1.31375 5.597 1.30313 5.92052 1.32753C5.92751 1.30223 5.93608 1.27196 5.94308 1.24847C5.95661 1.20329 5.95662 1.19064 5.886 1.17618C5.73461 1.14501 5.64888 1.12084 5.54397 1.05985C5.45372 1.00699 5.40048 0.912566 5.41808 0.865129C5.43816 0.812271 5.27865 0.866259 5.26331 0.895625C5.23714 0.94532 5.37341 1.14817 5.37341 1.14817C5.27248 1.13985 5.1712 1.13676 5.06996 1.13891C4.90571 1.14772 4.80644 1.19041 4.69026 1.17776C4.55151 1.1624 4.47458 1.05307 4.4845 0.974462C4.49059 0.926122 4.30401 1.05894 4.3092 1.11451C4.31349 1.15766 4.37531 1.23288 4.5285 1.33272C4.26205 1.48836 4.3286 1.67743 4.09983 1.68646C4.03214 1.68894 3.85166 1.63721 3.83316 1.5394C3.82165 1.48067 3.69621 1.70001 3.77089 1.81047C3.80992 1.8683 3.85165 1.86243 4.04162 1.87485C3.96491 2.02642 3.9525 2.09826 3.9525 2.22566C3.9525 2.34809 3.91302 2.39372 3.81984 2.45155C3.75216 2.49334 3.59987 2.51932 3.50264 2.42263C3.47579 2.39575 3.45007 2.59499 3.47376 2.65485C3.49745 2.71471 3.52994 2.74521 3.6247 2.74227C3.76796 2.73798 3.84895 2.70884 3.8467 2.73595C3.83808 2.8714 3.83951 3.00731 3.85098 3.14256C3.86678 3.36845 3.62289 3.47011 3.45617 3.38178C3.41352 3.35919 3.45301 3.64539 3.53174 3.65285C3.67884 3.66753 3.81579 3.53267 3.82188 3.57198C3.85843 3.80374 3.90942 3.82791 3.92341 3.93929C3.95657 4.20088 3.70231 4.26888 3.61252 4.22979C3.55047 4.20291 3.63124 4.48505 3.76187 4.43309C3.80699 4.41479 3.86971 4.35832 3.92973 4.35832C4.02516 4.35832 4.08314 4.39175 4.1224 4.51645C4.14248 4.5797 4.15286 4.71636 4.1321 4.85527C4.12223 4.94554 4.09585 5.03322 4.05426 5.11392C4.02696 5.16293 3.97575 5.21737 3.9286 5.22935C3.84061 5.25194 4.07118 5.35652 4.18489 5.28989C4.27649 5.23612 4.34462 4.88734 4.3638 4.83969C4.41953 4.70032 4.51474 4.65898 4.59438 4.65898C4.70646 4.6553 4.80582 4.73066 4.83262 4.83969C4.84599 4.90496 4.84421 4.97242 4.82743 5.03689C4.81683 5.08523 4.76742 5.26278 4.76133 5.2917C4.69793 5.59869 5.03635 5.60998 4.99935 5.57158C4.94746 5.51601 4.95423 5.33236 4.99664 5.13832C5.00634 5.09314 5.0438 4.93502 5.07967 4.87493C5.13495 4.78051 5.21278 4.75453 5.26354 4.75453C5.52909 4.75453 5.5697 4.96687 5.56834 5.0884C5.56834 5.14013 5.55436 5.3554 5.55436 5.39719C5.55436 5.7602 6.01438 5.66714 5.93608 5.63167C5.84584 5.59124 5.79034 5.44847 5.76394 5.18326C5.74138 4.96347 5.80027 4.74437 5.81786 4.73892C6.00264 4.68267 6.19081 4.67748 6.30474 4.90517C6.33339 4.96232 6.35889 5.06217 6.39499 5.09244C6.47034 5.15501 6.62398 5.0904 6.6594 4.98988C6.49222 4.92708 6.485 4.68538 6.56374 4.52453C6.60529 4.43308 6.63523 4.33678 6.65286 4.23787C6.67926 4.26701 6.83673 4.38561 6.91592 4.3594C6.97503 4.33998 7.03685 4.08698 6.97504 4.12176C6.84238 4.19608 6.68174 4.02847 6.62309 3.94986C6.55546 3.86403 6.51718 3.7587 6.51389 3.64942C6.50735 3.53241 6.49674 3.38656 6.36859 3.28264ZM7.16682 3.45771C7.21082 3.14824 7.31843 2.84261 7.61557 2.58418L7.71123 2.50082L7.82404 2.55842C7.88518 2.5896 7.91721 2.58553 7.97227 2.55842C8.01882 2.5326 8.06345 2.50346 8.10583 2.47123C8.16404 2.42876 8.22992 2.38087 8.30301 2.3305C8.44537 2.23472 8.38807 2.16221 8.23397 2.10958L8.09861 2.05875V1.94964C8.09861 1.77932 8.17689 1.70636 8.24526 1.6456C8.25789 1.6343 8.38897 1.52813 8.36979 1.45675C8.34723 1.36933 8.16674 1.39847 8.16674 1.39847C8.08575 1.42106 8.02145 1.54168 7.99686 1.60177C7.94654 1.72353 7.76402 1.64695 7.81434 1.5261C7.84503 1.45614 7.88568 1.39101 7.93504 1.33273C7.93098 1.29117 7.76831 1.3045 7.718 1.34177C7.67519 1.39963 7.64449 1.46556 7.62775 1.53559C7.60407 1.66547 7.40982 1.63001 7.4335 1.50035C7.44257 1.45935 7.4558 1.41938 7.47298 1.38108C7.38274 1.37588 7.26993 1.49086 7.17969 1.70118C7.24873 1.72512 7.31663 1.75087 7.38093 1.7764C7.41342 1.94762 7.38093 2.1236 7.28347 2.24828C7.28347 2.42899 7.29475 2.68898 7.09305 2.65828C7.03859 2.64842 6.98322 2.6444 6.92791 2.64631C6.77584 2.6646 6.55271 2.66099 6.44599 2.66167V2.80217H7.06687C7.13456 2.86858 7.02671 3.20878 6.85254 3.23903C6.80562 3.24739 6.71108 3.25778 6.59467 3.26727C6.6804 3.40641 6.68875 3.57923 6.6989 3.67838C6.85938 3.6148 7.01569 3.54111 7.16682 3.45771ZM14.9535 3.45771C15.1051 3.54116 15.2617 3.61487 15.4226 3.67841C15.4327 3.57924 15.4411 3.40734 15.5268 3.26729C15.4104 3.25781 15.3159 3.24742 15.2689 3.23906C15.0948 3.20834 14.9874 2.8686 15.0546 2.8022H15.6735V2.66169C15.5668 2.66169 15.3436 2.66463 15.1915 2.64633C15.1362 2.64443 15.0809 2.64844 15.0264 2.65831C14.8247 2.68903 14.836 2.43016 14.836 2.2483C14.7376 2.12338 14.7063 1.94764 14.7376 1.77643C14.8019 1.7509 14.8698 1.72515 14.9389 1.7012C14.8486 1.4909 14.7358 1.37593 14.6456 1.38111C14.6628 1.41933 14.6761 1.45922 14.6853 1.50015C14.7078 1.62981 14.5147 1.66528 14.491 1.53539C14.4743 1.46536 14.4436 1.39943 14.4008 1.34157C14.3507 1.3043 14.1878 1.29097 14.1837 1.33254C14.2333 1.39049 14.2741 1.45532 14.3051 1.525C14.3554 1.64675 14.1729 1.72243 14.1226 1.60067C14.098 1.54172 14.0339 1.41996 13.9527 1.39737C13.9527 1.39737 13.7722 1.36823 13.7497 1.45565C13.7305 1.52703 13.8625 1.6332 13.8742 1.6445C13.9419 1.70526 14.0208 1.77823 14.0208 1.94855V2.05788L13.8855 2.1087C13.7314 2.16134 13.6741 2.23385 13.8164 2.32962C13.8895 2.37887 13.9554 2.42789 14.0136 2.47036C14.056 2.50259 14.1006 2.53173 14.1472 2.55755C14.2022 2.58556 14.2343 2.58963 14.2954 2.55755L14.4082 2.49995L14.5039 2.5833C14.8019 2.84262 14.9096 3.14824 14.9535 3.45771ZM15.7529 3.28264C15.6247 3.38655 15.6141 3.53248 15.6074 3.64949C15.6041 3.75877 15.5658 3.8641 15.4982 3.94993C15.4386 4.02854 15.2789 4.19615 15.1462 4.12183C15.0844 4.08705 15.1462 4.34005 15.2053 4.35947C15.2845 4.38568 15.442 4.26708 15.4684 4.23795C15.486 4.33685 15.516 4.43315 15.5575 4.5246C15.6362 4.68544 15.629 4.92715 15.4618 4.98995C15.4973 5.09047 15.6509 5.15508 15.7263 5.09251C15.7626 5.06224 15.7881 4.96239 15.8165 4.90524C15.9304 4.67755 16.1186 4.68274 16.3034 4.73899C16.321 4.74441 16.3794 4.96352 16.3573 5.18333C16.3309 5.44853 16.275 5.5913 16.1852 5.63174C16.106 5.66721 16.5651 5.76027 16.5651 5.39726C16.5651 5.35548 16.5516 5.1402 16.5511 5.08847C16.5498 4.96694 16.5904 4.7546 16.8559 4.7546C16.9067 4.7546 16.9845 4.78058 17.0398 4.875C17.0757 4.936 17.1131 5.09367 17.1228 5.13839C17.1648 5.33243 17.172 5.51609 17.1201 5.57165C17.084 5.61005 17.4222 5.59876 17.3581 5.29064C17.352 5.26195 17.3026 5.08418 17.292 5.03584C17.2753 4.97137 17.2735 4.9039 17.2868 4.83863C17.3136 4.72961 17.413 4.65424 17.5251 4.65792C17.6047 4.65792 17.6999 4.69971 17.7557 4.83863C17.7748 4.8863 17.843 5.23508 17.9346 5.28883C18.0474 5.35547 18.2788 5.25088 18.1911 5.22829C18.1437 5.21632 18.0925 5.16188 18.0652 5.11286C18.0236 5.03216 17.9972 4.94448 17.9874 4.85421C17.9666 4.71461 17.977 4.57795 17.9971 4.51539C18.0363 4.39115 18.0943 4.35727 18.1897 4.35727C18.2497 4.35727 18.312 4.41374 18.3576 4.43203C18.4882 4.48376 18.569 4.20162 18.5069 4.22873C18.4167 4.26781 18.1629 4.19982 18.1961 3.93824C18.21 3.82687 18.261 3.8027 18.2976 3.57092C18.3037 3.53162 18.4406 3.66647 18.5877 3.65179C18.6665 3.64411 18.7059 3.35813 18.6635 3.38072C18.4966 3.46905 18.2527 3.36717 18.2685 3.1415C18.28 3.00626 18.2814 2.87035 18.2728 2.73489C18.2705 2.70778 18.3515 2.73692 18.4948 2.74121C18.5895 2.74392 18.6229 2.71207 18.6457 2.65379C18.6685 2.59551 18.6446 2.39447 18.6182 2.42135C18.521 2.51803 18.368 2.49205 18.301 2.45026C18.2078 2.39221 18.1683 2.34658 18.1683 2.22437C18.1683 2.09697 18.1559 2.02514 18.0792 1.87357C18.2699 1.86114 18.3116 1.86701 18.3499 1.80919C18.4246 1.69918 18.2994 1.47985 18.2877 1.53812C18.2685 1.63593 18.0885 1.68766 18.021 1.68517C17.7916 1.67614 17.8581 1.48706 17.5923 1.33144C17.7455 1.2316 17.8073 1.15637 17.8116 1.11323C17.8173 1.05766 17.6311 0.924834 17.6363 0.973177C17.6463 1.05269 17.5686 1.16202 17.4306 1.17648C17.3144 1.18913 17.2151 1.14643 17.0509 1.13762C16.9496 1.13548 16.8483 1.13857 16.7474 1.14689C16.7474 1.14689 16.8828 0.943585 16.8575 0.89434C16.8422 0.864974 16.6827 0.810988 16.7028 0.863845C16.7203 0.911282 16.668 1.0057 16.5769 1.05856C16.4719 1.11955 16.3862 1.14372 16.2348 1.1749C16.1642 1.18935 16.1642 1.20178 16.1777 1.24718C16.1847 1.26977 16.1933 1.30095 16.2003 1.32625C16.5238 1.30208 16.9588 1.31269 17.0012 1.48437C17.1551 1.48437 17.3171 1.51057 17.3694 1.55507C17.4904 1.65943 17.501 1.83653 17.2607 2.02199C17.3263 2.36082 17.4412 2.41099 17.3297 2.66715C17.237 2.88175 17.0193 2.96081 16.8241 2.99944C16.7402 3.01571 16.6436 3.16525 16.4742 3.25719C16.3923 3.30304 16.0539 3.29958 15.7529 3.28264ZM15.2297 2.9716C15.2441 3.00571 15.2714 3.06512 15.2987 3.07122C15.3851 3.09064 15.6435 3.11007 15.895 3.12001C16.0207 3.12498 16.3462 3.12791 16.3979 3.10713C16.4816 3.07212 16.6553 2.85617 16.7907 2.83448C16.9777 2.80511 17.116 2.73305 17.1742 2.60113C17.2153 2.50626 17.2146 2.46695 17.1968 2.42042C17.1445 2.26797 17.1033 2.11193 17.0736 1.9535C17.0736 1.9535 17.2855 1.81955 17.2823 1.73461C17.2805 1.6856 17.2539 1.68108 17.1826 1.66685C17.1212 1.65397 16.9755 1.6551 16.9091 1.6551C16.8867 1.58455 16.8292 1.53085 16.7573 1.51346C16.665 1.49268 16.267 1.45586 15.9155 1.53357C15.8693 1.54373 15.7802 1.6621 15.7527 1.68333C15.7102 1.71531 15.6604 1.73606 15.6078 1.74365C15.5688 1.74975 15.4075 1.76195 15.3596 1.76737C15.2279 1.78273 15.0589 1.83514 14.8944 1.8968C14.8927 2.00503 14.9318 2.10992 15.0041 2.19046C15.0041 2.19046 14.9984 2.38157 15.0124 2.46605C15.0124 2.48119 15.0372 2.4857 15.0467 2.48412C15.1008 2.47468 15.1559 2.47286 15.2105 2.4787C15.3567 2.49632 15.8422 2.49406 15.8422 2.49406V2.97204L15.2297 2.9716ZM18.3854 8.80779C18.197 8.99302 18.0565 9.2092 18.2627 9.43283C18.5278 9.72016 18.7139 9.89501 18.3331 10.1622C17.6416 10.6488 17.4451 11.0253 17.3056 11.3197C17.3416 11.3345 17.3787 11.3463 17.4166 11.3549C17.4928 11.3723 17.5702 11.3837 17.6481 11.389C17.6851 11.3922 17.7079 11.2901 17.797 11.1114C17.9324 10.8419 18.1805 10.4771 18.773 10.0459C18.9925 9.88618 18.9842 9.85885 18.8716 9.71723C18.8102 9.6402 18.7281 9.55278 18.6345 9.44457C18.4474 9.22885 18.3804 9.01017 18.3854 8.80779ZM16.0214 6.11675C16.0835 6.21749 16.1629 6.30637 16.2561 6.37923C16.5167 6.57779 17.0825 7.12874 17.0859 7.7077C17.3936 7.73752 17.5161 7.82697 17.5161 7.82697C17.6235 7.9031 17.5193 8.04835 17.402 7.98849C17.1822 7.87554 16.8379 7.90988 16.7357 7.91914C16.262 7.96206 16.1929 8.28057 16.1929 8.51301C16.1929 8.77934 16.3818 8.97294 16.6441 9.14326C16.7773 9.22978 16.9101 9.29913 17.0099 9.35899C17.0639 9.39005 17.115 9.42597 17.1626 9.46629C17.1991 9.49904 17.2754 9.57494 17.2754 9.68947C17.2754 10.0699 16.3084 10.6445 16.0973 10.6445C15.8703 10.6445 15.7647 10.7746 15.7293 10.82C15.6724 10.893 15.6248 11.0496 15.6447 11.1797C15.6573 11.2619 15.6964 11.3326 15.804 11.3439C15.8024 11.1841 15.8516 11.028 15.9443 10.898C16.024 10.7932 16.1812 10.9129 16.1022 11.0177C16.0402 11.0995 15.9894 11.2332 16.0082 11.4184C16.1327 11.4912 16.2789 11.4975 16.4594 11.4345C16.4391 11.2802 16.509 11.0843 16.5936 10.9619C16.6685 10.8535 16.831 10.966 16.7561 11.0749C16.694 11.1652 16.6509 11.2845 16.6548 11.3895C16.8147 11.5212 17.0408 11.4406 17.0669 11.3895C17.1066 11.3111 17.1441 11.226 17.1906 11.1331C17.2469 11.0193 17.3118 10.9099 17.3846 10.8058C17.5531 10.5666 17.8058 10.2992 18.234 9.99963C18.3364 9.9278 18.4163 9.88149 18.299 9.75296C18.2491 9.69852 18.1948 9.63414 18.132 9.56592C17.8712 9.2831 17.9865 8.99216 18.1388 8.80037C18.2129 8.71118 18.2945 8.62864 18.3829 8.55369C18.4574 8.48796 18.5305 8.42787 18.5839 8.37434C18.9463 8.01177 18.8856 7.47077 18.4335 6.94965C18.1684 6.64357 17.8286 5.94441 17.8158 5.41359C17.6233 5.24575 17.6371 4.83847 17.5281 4.83847C17.3749 4.83847 17.5218 5.12286 17.5385 5.27262C17.5974 5.79713 17.0647 5.83622 16.9092 5.65527C16.819 5.54888 17.0597 5.67944 16.9512 5.17797C16.9341 5.09801 16.8939 4.93514 16.8589 4.93514C16.6451 4.93514 16.7664 5.20621 16.7461 5.41675C16.7236 5.64061 16.6126 5.76056 16.4795 5.81049C16.4086 5.97584 16.2719 6.10364 16.0214 6.11675ZM16.2222 5.82941C16.0569 5.8005 15.922 5.69704 15.9445 5.58251C15.9549 5.53033 16.1408 5.63695 16.1785 5.1689C16.1911 5.01259 16.1647 4.88857 16.1575 4.88722C15.9037 4.84588 15.9969 5.18969 15.7706 5.27258C15.4498 5.39027 15.2517 5.07967 15.2541 4.85762C15.4382 4.86779 15.4626 4.73112 15.4037 4.61727C15.3853 4.5733 15.3727 4.52714 15.366 4.47993C15.3153 4.51639 15.2528 4.5325 15.1907 4.52511C14.927 4.48671 14.8927 3.7668 15.0628 3.9073C15.1673 3.99359 15.2778 3.9457 15.3478 3.86212C15.0306 3.74037 14.6982 3.53888 14.5408 3.46931C13.8414 3.16051 13.5458 3.16232 13.4375 3.20434C13.4008 3.21857 13.3674 3.26058 13.3827 3.34981C13.4689 3.31118 13.6009 3.31864 13.6009 3.31864C13.7259 3.32768 13.7123 3.51539 13.5873 3.50636C13.2866 3.50839 13.2189 3.7074 13.2304 3.82011C13.2363 3.87862 13.2451 3.92922 13.339 3.92018C13.4254 3.74579 13.556 3.69248 13.556 3.69248C13.6688 3.63827 13.7502 3.80814 13.6372 3.86236C13.5833 3.89082 13.4951 3.96581 13.5084 4.06566C13.5114 4.1153 13.5511 4.15482 13.6007 4.15759C13.6888 4.17066 13.7787 4.15115 13.8536 4.1027L13.94 4.04307C13.94 4.04307 14.2694 4.19351 14.4814 4.16731L14.5408 4.2292C14.657 4.35051 14.7707 4.53054 14.8792 4.71125C14.9877 4.89195 15.1048 5.09525 15.2302 5.28683C15.4938 5.68506 15.7363 5.91936 15.9775 5.91936C16.0882 5.92024 16.167 5.88566 16.2222 5.82941ZM20.0605 4.04058C20.0943 3.9518 20.1196 3.85806 20.1559 3.77561C20.1937 3.68109 20.256 3.59836 20.3364 3.53594C20.1731 3.41238 19.7067 3.2355 19.4114 3.51335C19.2805 3.63691 19.2499 3.77967 19.2499 3.92243C19.2499 4.12369 19.3627 4.16887 19.4732 4.22738C19.3591 4.72704 19.3175 5.31167 19.6487 5.81291C19.7841 6.01869 19.9517 6.2744 20.0594 6.54501C20.167 6.81563 20.2252 7.12669 20.1135 7.43277C19.963 7.84413 19.5459 8.10817 18.9764 8.04811C18.9577 8.12834 18.9282 8.20569 18.8889 8.27807C19.1632 8.31286 19.4152 8.27649 19.5294 8.24035C20.301 7.99526 20.5284 7.1502 20.2008 6.44249C20.1361 6.30786 20.0634 6.17721 19.9831 6.05125C19.9028 5.92158 19.8252 5.80638 19.7767 5.72505C19.6253 5.47521 19.5222 5.19262 19.5375 4.78126C19.547 4.60231 19.5793 4.42528 19.6334 4.25447C19.9504 4.26689 19.9943 4.21316 20.0605 4.04058ZM11.0603 15.0597C11.7806 15.0632 12.4993 14.9885 13.2036 14.837C13.8114 14.7053 14.3228 14.535 14.7932 14.3825C15.7182 14.0823 16.553 13.8229 17.6449 14.0811C17.8401 14.1295 17.8408 14.1288 17.8726 13.9842L18.3139 11.995C18.3396 11.8771 18.3396 11.8762 18.1932 11.8432C16.8991 11.5651 15.8319 11.7556 14.7455 12.033C14.1726 12.1791 13.6043 12.3463 13.0083 12.4771C12.3969 12.6112 11.7579 12.7075 11.0594 12.7075C10.3609 12.7075 9.72199 12.6112 9.11059 12.4771C8.51521 12.3463 7.9469 12.1791 7.37338 12.033C6.28684 11.7556 5.2197 11.5651 3.92569 11.8432C3.77927 11.8762 3.77927 11.8771 3.80499 11.995L4.2465 13.9851C4.27831 14.1297 4.27898 14.1304 4.47414 14.082C5.56699 13.8238 6.39997 14.082 7.32586 14.3834C7.79783 14.5349 8.30932 14.7057 8.91687 14.8369C9.62116 14.9885 10.3399 15.0632 11.0603 15.0597ZM8.79828 12.1132C7.42925 11.3403 6.54814 9.92204 6.46094 8.35072C6.37375 6.77954 7.09249 5.27225 8.36758 4.35233C8.29138 4.33904 8.21887 4.3097 8.15483 4.26627C8.0251 4.31709 7.85973 4.36859 7.72167 4.36679C7.36837 4.73546 6.95796 5.85068 6.35784 6.07656C6.27615 6.25698 6.15234 6.41511 5.99687 6.5376C5.73538 6.73683 5.24468 7.23785 5.24468 7.71426C6.04627 7.71426 6.13787 8.2295 6.13787 8.51415C6.13787 9.26412 5.05674 9.49474 5.05674 9.69081C5.05674 9.90722 5.8712 10.448 6.03724 10.448C6.35602 10.448 6.5126 10.6375 6.5609 10.6994C6.72672 10.9117 6.79102 11.4351 6.41086 11.5311C7.22261 11.6703 7.99195 11.9151 8.79828 12.1132ZM15.6666 8.09446C15.6673 9.75967 14.7711 11.2958 13.322 12.1132C14.1295 11.9151 14.8979 11.6704 15.7099 11.5322C15.3297 11.4362 15.394 10.9128 15.5599 10.7004C15.6081 10.6385 15.7647 10.449 16.0835 10.449C16.2496 10.449 17.064 9.90824 17.064 9.69185C17.064 9.49577 15.9829 9.26515 15.9829 8.51519C15.9829 8.23056 16.0745 7.71529 16.8761 7.71529C16.8761 7.23867 16.3854 6.73787 16.1239 6.53863C15.9684 6.41613 15.8446 6.25801 15.7629 6.07759C15.1628 5.8517 14.7524 4.73557 14.3991 4.36693C14.261 4.36874 14.0956 4.31724 13.9659 4.26641C13.9019 4.30984 13.8294 4.33918 13.7532 4.35247C14.9555 5.21868 15.6677 6.61138 15.6666 8.09446ZM6.88071 8.09446C6.88071 9.5895 7.67731 10.9709 8.97045 11.7183C10.2636 12.4658 11.8568 12.4658 13.1499 11.7183C14.4431 10.9708 15.2397 9.58935 15.2397 8.09446C15.2397 5.7829 13.3685 3.90974 11.0602 3.90974C8.75193 3.90974 6.88071 5.78284 6.88071 8.09446ZM13.9443 2.65159L13.8276 3.01776C14.0282 3.05842 14.2872 3.14313 14.62 3.28883C14.6601 3.30645 14.701 3.3261 14.7429 3.34711C14.6922 3.11941 14.592 2.90957 14.3819 2.72635C14.2132 2.81196 14.0947 2.7573 13.9443 2.65159ZM8.29286 3.01776L8.17622 2.65159C8.02574 2.7573 7.90729 2.81197 7.73899 2.72635C7.5285 2.90955 7.42832 3.11942 7.37802 3.34712C7.41999 3.32611 7.46082 3.30646 7.50098 3.28884C7.83399 3.14314 8.0923 3.05842 8.29286 3.01776ZM13.603 1.60933C11.9681 0.969597 10.1525 0.969597 8.5177 1.60933C8.42069 1.7914 8.28667 1.80495 8.28667 1.92808C8.55289 2.02408 8.7061 2.27346 8.4173 2.47859L8.57974 2.98887C8.938 3.00062 8.96532 3.24526 8.92199 3.44178C9.0481 3.51813 9.12504 3.76255 9.06683 3.93558C10.3274 3.33155 11.7933 3.33155 13.0538 3.93558C12.9965 3.76232 13.0725 3.51791 13.1987 3.44156C13.1553 3.24504 13.1826 3.00039 13.5409 2.98865L13.7033 2.47837C13.4146 2.27326 13.568 2.02386 13.834 1.92786C13.834 1.80498 13.7 1.79139 13.603 1.60933ZM8.50415 1.31183C10.1518 0.692272 11.9679 0.692272 13.6156 1.31183C13.7072 1.21402 13.8875 1.18533 14.0084 1.24C14.0274 1.07984 14.4678 1.1074 14.5537 1.23571C14.5943 1.1693 14.9075 1.13609 15.1177 1.64525C15.1906 1.62483 15.2648 1.60973 15.3397 1.60007C15.3849 1.59487 15.5428 1.58313 15.5803 1.57748C15.6858 1.56099 15.7283 1.42568 15.8526 1.37689C15.9062 1.36219 15.961 1.35199 16.0164 1.34639C15.9994 1.2845 15.9748 1.17923 15.9875 1.13564C16.0254 1.00597 16.2413 1.0001 16.3403 0.965088C16.4563 0.926234 16.5924 0.885573 16.5202 0.76811C16.3859 0.549221 16.9879 0.708023 17.047 0.806061C17.0806 0.861629 17.0201 0.970736 17.0201 0.970736C17.0728 0.966415 17.1258 0.96831 17.178 0.976384C17.3754 1.00869 17.5291 1.07194 17.4488 0.818259C17.3969 0.652681 18.0805 0.876313 17.9733 1.17313C17.9426 1.25761 17.8443 1.32335 17.8443 1.32335C17.895 1.36166 17.9363 1.41112 17.965 1.46792C18.013 1.55827 18.2003 1.45346 18.2003 1.3299C18.2003 1.07735 18.5141 1.42387 18.5367 1.66694C18.5448 1.75187 18.5297 1.89283 18.4494 1.95517C18.4103 1.98522 18.305 1.99696 18.305 1.99696C18.305 1.99696 18.3514 2.07693 18.3458 2.22286C18.3411 2.35026 18.5653 2.31434 18.6303 2.17542C18.6842 2.06021 18.8803 2.44649 18.8065 2.7004C18.7839 2.78172 18.6799 2.89172 18.6116 2.90686C18.5383 2.92335 18.4367 2.88427 18.4401 2.91296C18.4468 2.96749 18.4468 3.02264 18.4401 3.07718C18.4268 3.25789 18.6066 3.28297 18.7442 3.15059C18.8492 3.04985 18.9157 3.76819 18.6278 3.81676C18.4575 3.84544 18.434 3.75802 18.4273 3.79078C18.4198 3.8335 18.406 3.87485 18.3862 3.91344C18.2959 4.10567 18.5374 4.09415 18.6601 4.02638C18.7702 3.96652 18.726 4.64105 18.3634 4.60985C18.2944 4.60397 18.2452 4.5292 18.1872 4.5292C18.1292 4.5292 18.1254 5.12782 18.3566 5.12782C18.6951 5.12782 18.3221 5.50776 18.0036 5.4879C18.0428 5.92476 18.3061 6.5191 18.5676 6.82065C18.8557 7.15316 19.0188 7.52498 19.0012 7.87082C19.5 7.9221 19.8294 7.69011 19.9456 7.37116C20.1261 6.87578 19.7742 6.32641 19.4998 5.91145C19.128 5.34943 19.193 4.71625 19.2742 4.33021C19.1388 4.2385 19.0711 4.08625 19.0711 3.92359C19.0711 3.7526 19.1088 3.55314 19.2891 3.38417C19.7403 2.9613 20.4262 3.32228 20.5358 3.48695C20.5719 3.54094 20.5561 3.61729 20.4771 3.65931C20.1692 3.82376 20.3537 4.42735 19.7694 4.42735C19.7371 4.54526 19.7187 4.66658 19.7148 4.78879C19.7008 5.1606 19.7924 5.40909 19.9282 5.63294C20.0261 5.79467 20.2335 6.09151 20.3616 6.368C20.7204 7.14257 20.4864 8.1243 19.5821 8.41142C19.4326 8.45885 19.112 8.50177 18.7756 8.44259C18.7548 8.46744 18.7322 8.49183 18.7079 8.51578C18.6792 8.54447 18.6452 8.57519 18.6082 8.60749C18.5405 8.81757 18.5529 9.06538 18.7744 9.32197C19.1546 9.76179 19.333 9.87405 18.8805 10.1996C18.0064 10.828 17.9417 11.3019 17.8224 11.4896C18.0072 11.5164 18.1964 11.5527 18.39 11.5983C18.4832 11.6209 18.6734 11.6724 18.6109 11.9532L18.1192 14.1669C18.0459 14.4942 17.8034 14.4154 17.6858 14.3833C15.5615 13.8192 14.536 15.342 11.0603 15.342C7.58453 15.342 6.55922 13.8193 4.43344 14.3826C4.3168 14.4136 4.07247 14.4935 4.00003 14.1662L3.50841 11.9525C3.44592 11.6717 3.63611 11.6198 3.72929 11.5976C3.92331 11.5524 4.11252 11.5162 4.29692 11.489C4.17757 11.3012 4.11282 10.8273 3.2388 10.1989C2.78624 9.87338 2.96469 9.76111 3.34484 9.3213C3.56639 9.06469 3.57925 8.81689 3.51112 8.60681C3.47412 8.57451 3.44005 8.54379 3.4114 8.5151C3.38748 8.49116 3.36492 8.46676 3.34371 8.44191C3.00732 8.50177 2.68673 8.45818 2.53714 8.41074C1.63357 8.12363 1.39959 7.14189 1.75831 6.36732C1.88646 6.09083 2.09381 5.79402 2.19172 5.63226C2.32709 5.4084 2.41914 5.15992 2.40515 4.78811C2.4015 4.66625 2.38355 4.54525 2.35168 4.42757C1.76735 4.42757 1.9519 3.82307 1.64394 3.65952C1.56497 3.61751 1.54918 3.54116 1.58528 3.48717C1.6938 3.32068 2.3808 2.95926 2.83087 3.38303C3.01136 3.552 3.04881 3.75145 3.04881 3.92245C3.04881 4.086 2.98112 4.2387 2.84576 4.32907C2.9272 4.71557 2.99218 5.34874 2.62015 5.91031C2.3458 6.32527 1.99341 6.87464 2.17432 7.37002C2.29051 7.68944 2.6199 7.92232 3.11873 7.87103C3.10226 7.52519 3.26425 7.15338 3.55235 6.82087C3.81451 6.51817 4.07779 5.92386 4.11638 5.48811C3.79782 5.50799 3.4258 5.12803 3.7633 5.12803C3.99455 5.12803 3.98891 4.53327 3.93115 4.53327C3.8734 4.53327 3.82399 4.60804 3.75495 4.61391C3.39238 4.64508 3.34886 3.97057 3.45827 4.03044C3.581 4.09708 3.82287 4.10883 3.73216 3.9175C3.7124 3.87891 3.69856 3.83756 3.6911 3.79484C3.68433 3.76209 3.66087 3.84951 3.49053 3.82082C3.20265 3.77225 3.26921 3.05277 3.37412 3.15466C3.51174 3.28703 3.69157 3.26196 3.67824 3.08124C3.67156 3.02671 3.67156 2.97156 3.67824 2.91702C3.68163 2.88856 3.5801 2.92741 3.50678 2.91092C3.43909 2.89579 3.33554 2.78578 3.31185 2.70446C3.23807 2.44988 3.43413 2.06429 3.48805 2.17948C3.55303 2.3184 3.77751 2.35432 3.77255 2.22692C3.76691 2.07986 3.81361 2.00103 3.81361 2.00103C3.81361 2.00103 3.70803 1.98928 3.669 1.95924C3.58868 1.89734 3.57379 1.75594 3.58168 1.671C3.60424 1.42794 3.91807 1.08144 3.91807 1.33396C3.91807 1.45752 4.10556 1.56234 4.15339 1.47198C4.18205 1.41518 4.22334 1.36572 4.27409 1.32741C4.27409 1.32741 4.17572 1.26168 4.14504 1.17719C4.03743 0.880372 4.72148 0.657637 4.66959 0.822322C4.58972 1.076 4.74336 1.01275 4.94032 0.980446C4.99256 0.972373 5.04557 0.970477 5.09825 0.974799C5.09825 0.974799 5.03778 0.865692 5.0714 0.810123C5.13051 0.712085 5.73245 0.553283 5.59819 0.772172C5.5269 0.888733 5.66294 0.928264 5.77733 0.967567C5.87637 1.00168 6.09318 1.00845 6.1302 1.13812C6.14283 1.18171 6.11824 1.28698 6.10132 1.34887C6.15667 1.35447 6.21146 1.36467 6.26512 1.37937C6.38943 1.42816 6.43184 1.56347 6.53743 1.57996C6.57533 1.58583 6.73236 1.59758 6.77793 1.60255C6.85293 1.61219 6.92713 1.62729 6.99993 1.64773C7.21133 1.13858 7.52448 1.17178 7.5651 1.23819C7.65106 1.10988 8.09147 1.08232 8.11041 1.24248C8.23269 1.18533 8.41296 1.21402 8.50455 1.31183L8.50415 1.31183ZM12.2885 2.56124L12.6122 2.64799L12.6955 2.33716C12.7151 2.26352 12.7384 2.18897 12.7632 2.11127L12.7562 2.10878C12.693 2.17881 12.6395 2.24048 12.5775 2.30418L12.2903 2.55785L12.2885 2.56124ZM12.7377 3.23033L12.4757 3.16008L12.5578 2.85287L11.9712 2.69474L12.0186 2.51764L12.73 1.88718L13.0727 1.97911L12.8748 2.71824L13.0348 2.76116L12.9802 2.96446L12.8202 2.92154L12.7377 3.23033ZM11.328 2.78667C11.4681 2.79412 11.5523 2.6378 11.5681 2.33647C11.5834 2.04123 11.5187 1.8779 11.3779 1.87044C11.2488 1.86367 11.1543 2.01569 11.139 2.31386C11.1205 2.61859 11.1981 2.77853 11.328 2.7862V2.78667ZM11.3163 2.99742C10.9862 2.98026 10.8382 2.68841 10.8561 2.30462C10.8764 1.91676 11.0632 1.64142 11.3957 1.65879C11.7362 1.67663 11.8743 1.97346 11.8549 2.34709C11.8341 2.74126 11.6579 3.01504 11.3163 2.99699L11.3163 2.99742ZM10.1205 1.93392C10.001 1.95063 9.93012 2.06403 9.94975 2.20137C9.96622 2.31839 10.0522 2.40648 10.1873 2.38751C10.2843 2.37373 10.3452 2.3211 10.3725 2.26191C10.3803 2.24139 10.3824 2.21912 10.3784 2.19753C10.3588 2.05093 10.2796 1.9111 10.1201 1.93346L10.1205 1.93392ZM9.91207 3.10042L9.88139 2.88175C9.92702 2.87972 9.97235 2.87329 10.0168 2.86255C10.1146 2.84547 10.2057 2.80134 10.2798 2.73515C10.3587 2.66327 10.4066 2.56361 10.4136 2.45708H10.4086C10.3545 2.53388 10.267 2.58403 10.1411 2.60187C9.91094 2.63418 9.70541 2.50339 9.67113 2.25852C9.63548 2.00485 9.81462 1.76607 10.0998 1.72588C10.4314 1.67912 10.6304 1.90659 10.6733 2.21088C10.7108 2.47856 10.6507 2.68525 10.528 2.83185C10.4186 2.96061 10.255 3.04532 10.0558 3.08034C10.0083 3.09067 9.96013 3.09724 9.91163 3.09999L9.91207 3.10042ZM9.45091 3.22624L9.14611 2.22892H9.14227L8.94126 2.41438L8.83341 2.22508L9.11092 1.97457L9.3345 1.9068L9.71262 3.14512L9.45091 3.22624ZM5.97458 1.77309C5.96488 1.77309 5.90689 1.82324 5.88275 1.884C5.91885 1.87564 6.00706 1.84831 6.0858 1.82211C6.05524 1.79378 6.01608 1.77652 5.97458 1.77309ZM6.26629 1.86842C6.26629 1.86842 5.86627 2.02654 5.79522 1.96103C5.70993 1.8831 5.88952 1.67167 5.9633 1.67167C6.14446 1.67167 6.26629 1.86842 6.26629 1.86842ZM15.8548 1.86842C15.8548 1.86842 15.9766 1.67166 16.1578 1.67166C16.2315 1.67166 16.4111 1.884 16.3259 1.96193C16.2548 2.02586 15.8548 1.86842 15.8548 1.86842ZM16.1465 1.77309C16.1044 1.77618 16.0647 1.79346 16.0337 1.82211C16.1131 1.84831 16.2013 1.87564 16.2367 1.884C16.2137 1.82324 16.1562 1.77309 16.1465 1.77309ZM16.0441 13.6241V12.8669C16.0441 12.7314 16.0402 12.6184 16.035 12.5215H16.3159L16.331 12.686H16.3385C16.4175 12.5639 16.5542 12.4917 16.6995 12.4953C16.9122 12.4953 17.1135 12.6309 17.1135 12.9826V13.6241H16.7911V13.0239C16.7911 12.8658 16.7308 12.7553 16.5864 12.7553C16.4926 12.7565 16.4097 12.8168 16.3795 12.9058C16.3708 12.9327 16.3667 12.9609 16.3676 12.9891V13.6241L16.0441 13.6241ZM5.01817 13.6408L4.96515 12.1199L5.28799 12.1086L5.33154 13.3591L5.98852 13.3365L5.99777 13.6076L5.01817 13.6408ZM7.21494 13.4084L6.47403 13.2349C6.44786 13.393 6.58097 13.506 6.75221 13.5444C6.8588 13.5709 6.96922 13.5786 7.07844 13.567L7.0737 13.7897C6.934 13.81 6.79168 13.8028 6.65474 13.7684C6.2836 13.6826 6.11664 13.4156 6.19336 13.0838C6.25518 12.8154 6.49929 12.5477 6.88327 12.6365C7.25554 12.7226 7.31037 13.046 7.25487 13.2871C7.24571 13.3288 7.23234 13.3694 7.21494 13.4084ZM6.52186 13.018L6.98235 13.1244C7.00062 13.0485 6.99882 12.8827 6.81765 12.8409C6.65408 12.8034 6.55548 12.9263 6.52186 13.018ZM7.55811 12.8457L7.88773 12.9663L7.86878 13.531C7.86562 13.6313 7.85727 13.7192 7.84621 13.8055L7.85298 13.8082C7.90149 13.7325 7.9509 13.6625 8.01091 13.5823L8.35315 13.1353L8.67532 13.2527L7.88568 14.1384L7.58088 14.028L7.55811 12.8457ZM9.67616 14.1199L8.92983 13.9724C8.90907 14.1317 9.04602 14.2385 9.21838 14.272C9.32584 14.2949 9.43646 14.2989 9.54529 14.2839L9.54845 14.5067C9.40946 14.5318 9.26691 14.5295 9.1288 14.4999C8.75496 14.4271 8.579 14.1662 8.64374 13.8317C8.69631 13.5606 8.93095 13.2855 9.31788 13.3607C9.69283 13.4337 9.75896 13.7551 9.71181 13.9979C9.70403 14.0397 9.69209 14.0806 9.67616 14.1199ZM8.96977 13.7542L9.43364 13.8446C9.44944 13.7682 9.44199 13.6026 9.25947 13.5672C9.09455 13.5349 9.00023 13.6612 8.96977 13.7542ZM9.99225 14.6352L10.0584 13.9026C10.0728 13.7377 10.0796 13.6316 10.0809 13.5363L10.3575 13.5604L10.3498 13.7757H10.358C10.4299 13.6142 10.5755 13.5525 10.6925 13.5629C10.7168 13.5641 10.7407 13.5684 10.7638 13.5758L10.7377 13.8755C10.7069 13.8661 10.6752 13.86 10.6431 13.8572C10.5033 13.845 10.4074 13.9155 10.3747 14.0287C10.3685 14.0527 10.3644 14.0772 10.3625 14.1019L10.3135 14.6628L9.99225 14.6352ZM11.3346 13.0519L11.3687 14.0307H11.3732C11.3989 13.9878 11.4287 13.9404 11.4567 13.8999L11.7049 13.5484L12.0981 13.5347L11.6875 13.995L12.2012 14.6341L11.7992 14.6483L11.4714 14.1907L11.378 14.3072L11.3904 14.6625L11.0677 14.6738L11.0116 13.0635L11.3346 13.0519ZM13.3552 13.2896L13.4996 14.0323C13.5265 14.1714 13.5524 14.2837 13.5743 14.3711L13.2986 14.4247L13.2519 14.2613L13.2447 14.2627C13.2153 14.3422 13.1319 14.4838 12.922 14.5247C12.7122 14.5656 12.5006 14.4773 12.432 14.1245L12.3097 13.494L12.6256 13.4323L12.7384 14.0079C12.7718 14.1798 12.8512 14.2733 12.9895 14.2464C13.0787 14.2284 13.1478 14.1577 13.1637 14.068C13.1683 14.0426 13.1678 14.0165 13.1623 13.9912L13.0382 13.3503L13.3552 13.2896ZM13.8556 14.1861L13.8507 13.9467C13.9555 13.9709 14.0645 13.9702 14.169 13.9447C14.2818 13.9121 14.3179 13.8575 14.301 13.7981C14.2829 13.7353 14.2351 13.717 14.0918 13.7143C13.8486 13.7115 13.7232 13.6192 13.6873 13.4884C13.6316 13.2936 13.7563 13.0967 14.0226 13.0201C14.1278 12.988 14.239 12.9803 14.3477 12.9975L14.352 13.227C14.2656 13.2095 14.1764 13.2116 14.0909 13.2333C14.0007 13.2589 13.9605 13.3106 13.9781 13.3707C13.9957 13.4308 14.0537 13.4448 14.2037 13.4488C14.4294 13.454 14.548 13.5279 14.5956 13.6887C14.6505 13.8803 14.5408 14.0727 14.2315 14.1615C14.1098 14.199 13.9811 14.2074 13.8556 14.1861ZM15.7871 13.2234L15.0399 13.3666C15.0802 13.522 15.2472 13.5699 15.4195 13.536C15.5278 13.517 15.6318 13.4793 15.7271 13.4244L15.8132 13.6298C15.6938 13.7051 15.5608 13.7565 15.4218 13.7811C15.048 13.8538 14.7869 13.6779 14.7224 13.3433C14.6698 13.0723 14.784 12.7291 15.1712 12.6539C15.5459 12.5809 15.7275 12.8541 15.7747 13.0969C15.7831 13.1386 15.7873 13.1808 15.7871 13.2234ZM14.9954 13.1491L15.4593 13.0587C15.4451 12.9819 15.3763 12.8312 15.1937 12.8667C15.029 12.8986 14.9889 13.0515 14.9954 13.1491ZM10.783 4.85693H11.3186C11.3778 4.85693 11.4257 4.80889 11.4257 4.74963C11.4257 4.69037 11.3778 4.64233 11.3186 4.64233H10.783V4.85693ZM10.783 5.37805H11.3344C11.402 5.37805 11.4569 5.32314 11.4569 5.25539C11.4569 5.18765 11.402 5.13274 11.3344 5.13274H10.783V5.37805ZM11.6441 4.9832C11.7578 5.09392 11.7932 5.26249 11.7338 5.40971C11.6744 5.55693 11.532 5.65352 11.3734 5.65411H10.4766V4.36653H11.3576C11.5032 4.36676 11.6356 4.45142 11.697 4.58366C11.7584 4.7159 11.7378 4.87155 11.6441 4.9832ZM11.8501 7.18792H11.5214L11.4181 6.97332H10.6995L10.5959 7.18792H10.2661L10.9091 5.90035H11.2071L11.8501 7.18792ZM11.0582 6.2299L10.8326 6.69772H11.2838L11.0582 6.2299ZM11.495 7.46395H11.8634L11.2114 8.30221V8.75152H10.905V8.30221L10.253 7.46395H10.6214L11.0582 8.05126L11.495 7.46395ZM13.2097 7.46395V7.73999H12.3523V7.95458H13.179V8.2304H12.3519V8.47571H13.2092V8.75153H12.0457V7.46396L13.2097 7.46395ZM14.1739 8.26113H13.944V8.75155H13.6379V7.46398H14.4201C14.6179 7.46466 14.7852 7.61055 14.8131 7.80662C14.841 8.0027 14.721 8.18958 14.5313 8.24554L14.9085 8.75155H14.5412L14.1739 8.26113ZM14.3889 7.74H13.944V7.98532H14.3887C14.4564 7.98532 14.5112 7.9304 14.5112 7.86266C14.5112 7.79492 14.4566 7.74 14.3889 7.74ZM10.3955 8.75155H10.0676L9.96409 8.53672H9.2444L9.14084 8.75155H8.81169L9.45469 7.46398H9.75182L10.3955 8.75155ZM9.6038 7.79353L9.37819 8.26113H9.8294L9.6038 7.79353ZM7.66196 7.9555H8.19756C8.2549 7.95286 8.30003 7.90555 8.30003 7.84809C8.30003 7.79062 8.2549 7.74331 8.19756 7.74068H7.66196V7.9555ZM7.66196 8.47662H8.21336C8.28102 8.47662 8.33587 8.42171 8.33587 8.35396C8.33587 8.28622 8.28102 8.2313 8.21336 8.2313H7.66196V8.47662ZM8.52311 8.08153C8.63685 8.19245 8.6722 8.36128 8.61252 8.50859C8.55284 8.65591 8.41003 8.75239 8.25124 8.75265H7.35556V7.46508H8.23544C8.3811 7.4653 8.51344 7.54996 8.57485 7.6822C8.63627 7.81444 8.61565 7.97032 8.52196 8.08198L8.52311 8.08153ZM11.64 9.02735V9.30339H10.7827V9.51799H11.6093V9.7938H10.7827V10.0393H11.64V10.3152H10.4765V9.02758L11.64 9.02735ZM11.425 11.0204C11.4251 10.953 11.3709 10.8981 11.3036 10.8975H10.7827V11.1426H11.3036C11.3707 11.1421 11.4249 11.0876 11.425 11.0204ZM10.4774 11.909V10.6215H11.3363C11.5258 10.6235 11.6877 10.7587 11.7235 10.945C11.7594 11.1312 11.6594 11.3171 11.4843 11.3895L11.8706 11.9091H11.5022L11.1346 11.4186H10.7827V11.9091L10.4774 11.909Z" fill="black"/>
</g>
<defs>
<clipPath id="clip0_795_2649">
<rect width="20.3064" height="16" fill="white" transform="translate(0.907715)"/>
</clipPath>
</defs>
</svg>
