<svg width="41" height="16" viewBox="0 0 41 16" fill="none" xmlns="http://www.w3.org/2000/svg">
<g clip-path="url(#clip0_821_512)">
<g clip-path="url(#clip1_821_512)">
<path d="M3.75721 4.28696C4.09834 4.28696 4.41322 4.3132 4.70187 4.39192C4.99051 4.4444 5.22668 4.54936 5.4366 4.68056C5.64653 4.81177 5.80397 4.99545 5.90893 5.23162C6.01389 5.46778 6.06637 5.75643 6.06637 6.07131C6.06637 6.43868 5.98765 6.75356 5.80397 6.98973C5.64653 7.22589 5.38412 7.43582 5.06923 7.59326C5.51532 7.72446 5.85645 7.96063 6.06637 8.27551C6.2763 8.5904 6.4075 8.98401 6.4075 9.4301C6.4075 9.79746 6.32878 10.1123 6.19758 10.3748C6.06637 10.6372 5.85645 10.8733 5.62029 11.0308C5.38412 11.1882 5.09547 11.3194 4.78059 11.3981C4.4657 11.4769 4.15082 11.5293 3.83593 11.5293H0.319702V4.28696H3.75721ZM3.54728 7.22589C3.83593 7.22589 4.0721 7.14717 4.25578 7.01597C4.43946 6.88477 4.51818 6.6486 4.51818 6.35996C4.51818 6.20251 4.49194 6.04507 4.43946 5.94011C4.38698 5.83515 4.30826 5.75643 4.2033 5.6777C4.09834 5.62522 3.99337 5.57274 3.86217 5.5465C3.73097 5.52026 3.59977 5.52026 3.44232 5.52026H1.92037V7.22589H3.54728ZM3.62601 10.3223C3.78345 10.3223 3.94089 10.296 4.0721 10.2698C4.2033 10.2436 4.3345 10.1911 4.43946 10.1123C4.54442 10.0336 4.62315 9.95491 4.70187 9.8237C4.75435 9.6925 4.80683 9.53506 4.80683 9.35138C4.80683 8.98401 4.70187 8.7216 4.49194 8.53792C4.28202 8.38048 3.99337 8.30175 3.65225 8.30175H1.92037V10.3223H3.62601ZM8.69042 10.296C8.90035 10.506 9.21523 10.6109 9.63508 10.6109C9.92373 10.6109 10.1861 10.5322 10.3961 10.401C10.606 10.2436 10.7372 10.0861 10.7897 9.92867H12.0754C11.8655 10.5584 11.5506 11.0045 11.1308 11.2932C10.7109 11.5556 10.2124 11.713 9.60884 11.713C9.18899 11.713 8.82163 11.6343 8.4805 11.5031C8.13937 11.3719 7.87697 11.1882 7.6408 10.9258C7.40464 10.6896 7.22096 10.401 7.11599 10.0599C6.98479 9.71874 6.93231 9.35138 6.93231 8.93153C6.93231 8.53792 6.98479 8.17055 7.11599 7.82943C7.2472 7.4883 7.43088 7.19965 7.66704 6.93725C7.90321 6.70108 8.19186 6.49116 8.50674 6.35996C8.84787 6.22875 9.18899 6.15003 9.60884 6.15003C10.0549 6.15003 10.4485 6.22875 10.7897 6.41244C11.1308 6.59612 11.3932 6.80605 11.6031 7.12093C11.813 7.40958 11.9705 7.7507 12.0754 8.11807C12.1279 8.48544 12.1542 8.85281 12.1279 9.27265H8.32306C8.32306 9.6925 8.4805 10.0861 8.69042 10.296ZM10.3436 7.54078C10.1599 7.3571 9.87125 7.25213 9.53012 7.25213C9.29396 7.25213 9.11027 7.30462 8.95283 7.38334C8.79539 7.46206 8.69042 7.56702 8.58546 7.67198C8.4805 7.77694 8.42802 7.90815 8.40178 8.03935C8.37554 8.17055 8.3493 8.27551 8.3493 8.38048H10.7109C10.6585 7.98687 10.5273 7.72446 10.3436 7.54078ZM14.1747 4.28696V7.01597H14.2009C14.3846 6.70108 14.6208 6.49116 14.9094 6.35996C15.1981 6.22875 15.4605 6.15003 15.7491 6.15003C16.1427 6.15003 16.4576 6.20251 16.6938 6.30748C16.9299 6.41244 17.1399 6.56988 17.2711 6.75356C17.4023 6.93725 17.5072 7.17341 17.5597 7.43582C17.6122 7.69822 17.6384 7.98687 17.6384 8.328V11.5556H16.1952V8.5904C16.1952 8.14431 16.1165 7.82943 15.9853 7.6195C15.8541 7.40958 15.6179 7.30462 15.2768 7.30462C14.8832 7.30462 14.5945 7.43582 14.4371 7.64574C14.2534 7.88191 14.1747 8.27551 14.1747 8.80032V11.5556H12.7315V4.28696H14.1747ZM18.6881 7.06845C18.8455 6.83229 19.0292 6.67484 19.2653 6.5174C19.5015 6.3862 19.7639 6.28124 20.0526 6.22875C20.3412 6.17627 20.6299 6.15003 20.9185 6.15003C21.1809 6.15003 21.4433 6.17627 21.732 6.20251C21.9944 6.22875 22.2568 6.30748 22.4667 6.41244C22.7029 6.5174 22.8603 6.67484 23.0177 6.85853C23.1489 7.04221 23.2277 7.30462 23.2277 7.6195V10.3748C23.2277 10.6109 23.2539 10.8471 23.2801 11.057C23.3064 11.2669 23.3851 11.4506 23.4638 11.5556H21.9944C21.9419 11.5031 21.9156 11.3981 21.8894 11.3194C21.8632 11.2407 21.8632 11.1357 21.8632 11.057C21.627 11.2932 21.3646 11.4506 21.0497 11.5556C20.7348 11.6605 20.4199 11.6868 20.105 11.6868C19.8426 11.6868 19.6327 11.6605 19.3966 11.5818C19.1866 11.5293 19.0029 11.4244 18.8193 11.2932C18.6618 11.162 18.5306 11.0045 18.4257 10.7946C18.3469 10.5847 18.2945 10.3748 18.2945 10.0861C18.2945 9.79746 18.3469 9.53506 18.4519 9.35138C18.5569 9.16769 18.6881 9.01025 18.8455 8.87905C19.0029 8.77408 19.2129 8.66912 19.4228 8.61664C19.6327 8.56416 19.8426 8.51168 20.0788 8.48544L20.7086 8.40672C20.9185 8.38048 21.1022 8.35424 21.2596 8.328C21.4171 8.27551 21.5483 8.22303 21.6532 8.14431C21.7582 8.06559 21.7844 7.96063 21.7844 7.80318C21.7844 7.64574 21.7582 7.51454 21.7057 7.43582C21.6532 7.3571 21.5745 7.27837 21.4958 7.22589C21.4171 7.17341 21.3121 7.14717 21.2071 7.12093C21.1022 7.09469 20.971 7.09469 20.8398 7.09469C20.5511 7.09469 20.3412 7.14717 20.1838 7.27837C20.0263 7.40958 19.9214 7.6195 19.8951 7.88191H18.4519C18.4519 7.56702 18.5569 7.27837 18.6881 7.06845ZM21.5483 9.11521C21.4696 9.14145 21.3646 9.16769 21.2596 9.19393C21.1547 9.22017 21.0497 9.22017 20.9185 9.24641C20.8135 9.27265 20.6823 9.27265 20.5774 9.29889L20.2625 9.37762C20.1575 9.40386 20.0526 9.45634 20.0001 9.50882C19.9214 9.5613 19.8689 9.64002 19.8164 9.71874C19.7377 9.8237 19.7377 9.92867 19.7377 10.0599C19.7377 10.1911 19.7639 10.296 19.8164 10.3748C19.8689 10.4535 19.9214 10.5322 20.0001 10.5847C20.0788 10.6372 20.1838 10.6634 20.2887 10.6896C20.3937 10.7159 20.4987 10.7159 20.6299 10.7159C20.9185 10.7159 21.1284 10.6634 21.2859 10.5847C21.4433 10.4797 21.5483 10.3748 21.627 10.2436C21.7057 10.1123 21.7582 9.98115 21.7582 9.84995C21.7844 9.71874 21.7844 9.61378 21.7844 9.53506V8.98401C21.7057 9.03649 21.627 9.08897 21.5483 9.11521ZM25.4056 6.28124V7.01597H25.4319C25.6156 6.70108 25.8517 6.49116 26.1404 6.35996C26.429 6.22875 26.7439 6.15003 27.0325 6.15003C27.4261 6.15003 27.741 6.20251 27.9772 6.30748C28.2396 6.41244 28.4233 6.56988 28.5545 6.75356C28.6857 6.93725 28.7907 7.17341 28.8694 7.43582C28.9219 7.69822 28.9481 7.98687 28.9481 8.328V11.5556H27.5049V8.5904C27.5049 8.14431 27.4261 7.82943 27.2949 7.6195C27.1637 7.40958 26.9276 7.27837 26.5602 7.27837C26.1666 7.27837 25.878 7.43582 25.6943 7.67198C25.5106 7.90815 25.4319 8.30175 25.4319 8.82656V11.5818H23.9886V6.28124H25.4056ZM32.1757 7.22589C31.9395 7.22589 31.7558 7.27837 31.5984 7.38334C31.4409 7.4883 31.3097 7.6195 31.2048 7.80318C31.0998 7.96063 31.0473 8.14431 30.9949 8.35424C30.9424 8.56416 30.9424 8.74784 30.9424 8.95777C30.9424 9.14145 30.9686 9.35138 30.9949 9.53506C31.0473 9.74498 31.0998 9.90243 31.2048 10.0599C31.3097 10.2173 31.4147 10.3485 31.5721 10.4535C31.7296 10.5584 31.9133 10.6109 32.1494 10.6109C32.4906 10.6109 32.753 10.506 32.9629 10.3223C33.1466 10.1386 33.2778 9.87619 33.304 9.53506H34.6948C34.5898 10.2436 34.3274 10.7684 33.8813 11.1357C33.4352 11.5031 32.8579 11.6868 32.1494 11.6868C31.7558 11.6868 31.3885 11.6081 31.0736 11.4769C30.7325 11.3457 30.47 11.162 30.2339 10.9258C29.9977 10.6896 29.814 10.401 29.6828 10.0861C29.5516 9.74498 29.4991 9.40386 29.4991 9.01025C29.4991 8.5904 29.5516 8.22303 29.6828 7.88191C29.814 7.54078 29.9715 7.22589 30.2076 6.96349C30.4438 6.70108 30.7325 6.5174 31.0473 6.35996C31.3885 6.22875 31.7558 6.15003 32.1757 6.15003C32.4906 6.15003 32.7792 6.20251 33.0679 6.28124C33.3565 6.35996 33.6189 6.49116 33.8288 6.6486C34.065 6.80605 34.2487 7.01597 34.3799 7.27837C34.5111 7.51454 34.5898 7.82943 34.616 8.17055H33.1991C33.1466 7.54078 32.8055 7.22589 32.1757 7.22589ZM8.03441 4.78553H10.9733V5.49402H8.03441V4.78553ZM36.8727 10.296C37.0827 10.506 37.4238 10.6109 37.8174 10.6109C38.106 10.6109 38.3684 10.5322 38.5784 10.401C38.7883 10.2436 38.9195 10.0861 38.972 9.92867H40.2315C40.0216 10.5584 39.7067 11.0045 39.2869 11.2932C38.867 11.5556 38.3684 11.713 37.7649 11.713C37.3451 11.713 36.9777 11.6343 36.6366 11.5031C36.2954 11.3719 36.033 11.1882 35.7969 10.9258C35.5607 10.6896 35.377 10.401 35.2721 10.0599C35.1409 9.71874 35.0884 9.35138 35.0884 8.93153C35.0884 8.53792 35.1409 8.17055 35.2721 7.82943C35.4033 7.4883 35.5869 7.19965 35.8231 6.93725C36.0593 6.70108 36.3479 6.49116 36.6628 6.35996C37.0039 6.22875 37.3713 6.15003 37.7649 6.15003C38.211 6.15003 38.6046 6.22875 38.9195 6.41244C39.2606 6.59612 39.523 6.80605 39.7329 7.12093C39.9429 7.40958 40.1003 7.7507 40.2053 8.11807C40.3102 8.48544 40.3365 8.87905 40.3102 9.29889H36.5054C36.5054 9.6925 36.6628 10.0861 36.8727 10.296ZM38.5521 7.54078C38.3684 7.3571 38.0798 7.25213 37.7387 7.25213C37.5025 7.25213 37.3188 7.30462 37.1614 7.38334C37.0039 7.46206 36.8727 7.56702 36.794 7.67198C36.7153 7.77694 36.6366 7.90815 36.6103 8.03935C36.5841 8.17055 36.5578 8.27551 36.5578 8.38048H38.9195C38.8408 7.98687 38.7096 7.72446 38.5521 7.54078Z" fill="#191919"/>
</g>
</g>
<defs>
<clipPath id="clip0_821_512">
<rect width="40" height="16" fill="white" transform="translate(0.319702)"/>
</clipPath>
<clipPath id="clip1_821_512">
<rect width="40" height="7.42606" fill="white" transform="translate(0.319702 4.28696)"/>
</clipPath>
</defs>
</svg>
