<svg width="17" height="16" viewBox="0 0 17 16" fill="none" xmlns="http://www.w3.org/2000/svg">
<g clip-path="url(#clip0_820_108)">
<path d="M13.6802 0H3.08189C1.47696 0 0.175903 1.30105 0.175903 2.90598V13.094C0.175903 14.6989 1.47696 16 3.08189 16H13.6802C15.2851 16 16.5862 14.6989 16.5862 13.094V2.90598C16.5862 1.30105 15.2851 0 13.6802 0Z" fill="#000B1D"/>
<path d="M3.0752 11.2092V4.21873C3.0752 4.1527 3.09721 4.116 3.14123 4.10866C3.26593 4.10143 3.45675 4.09593 3.71368 4.09215C3.97049 4.08853 4.24937 4.08485 4.55032 4.08113C4.85117 4.07753 5.12639 4.07569 5.37598 4.07562C5.97767 4.07562 6.45654 4.14168 6.81258 4.27379C7.16848 4.40588 7.44186 4.57285 7.63272 4.77467C7.80905 4.95252 7.94104 5.16936 8.01804 5.40767C8.0802 5.60363 8.11357 5.80758 8.1171 6.01314C8.12099 6.2328 8.08365 6.45124 8.00702 6.65714C7.94402 6.82598 7.85486 6.98387 7.7428 7.125C7.65926 7.23221 7.55889 7.32515 7.44559 7.40021C7.60221 7.48322 7.74821 7.58487 7.88042 7.70294C8.05166 7.85647 8.19181 8.04146 8.29324 8.24787C8.41862 8.51236 8.479 8.80298 8.46936 9.09552C8.47624 9.5142 8.3468 9.92376 8.10057 10.2624C7.85461 10.6001 7.50235 10.8625 7.04378 11.0496C6.58501 11.2367 6.03641 11.3303 5.39798 11.3303H4.66591C4.43474 11.3303 4.22191 11.3284 4.02742 11.3248C3.83287 11.321 3.66408 11.3173 3.52104 11.3138C3.37791 11.31 3.25498 11.3081 3.15225 11.3082C3.1008 11.301 3.07512 11.268 3.0752 11.2092ZM4.56134 5.38565V6.91583H5.3099C5.50809 6.91583 5.70258 6.9195 5.89337 6.92684C6.03027 6.92785 6.16673 6.94261 6.30069 6.97087C6.39788 6.88786 6.47823 6.78696 6.53737 6.67364C6.60406 6.53671 6.63619 6.38552 6.63095 6.23331C6.63858 6.0604 6.5882 5.88991 6.48782 5.74893C6.38115 5.61644 6.23745 5.51871 6.07503 5.46821C5.85232 5.39971 5.61991 5.3681 5.38699 5.37463H5.06772C4.97226 5.37463 4.88604 5.37647 4.80904 5.38014C4.73198 5.38393 4.64941 5.38577 4.56134 5.38565ZM4.56134 8.21485V10.0313C4.68604 10.0387 4.81081 10.0442 4.93564 10.0478C5.06034 10.0516 5.21079 10.0534 5.38699 10.0533C5.65633 10.0573 5.92493 10.024 6.1851 9.9542C6.38636 9.90618 6.56854 9.79879 6.70801 9.64596C6.82752 9.50056 6.89012 9.31668 6.88416 9.12856C6.88838 8.94577 6.83859 8.76579 6.74103 8.61115C6.64557 8.46443 6.46944 8.35802 6.21262 8.29191C6.11284 8.26781 6.01177 8.24943 5.9099 8.23687C5.77656 8.2211 5.64236 8.21375 5.50809 8.21485L4.56134 8.21485Z" fill="white"/>
<path d="M10.7268 8.97444C10.7534 9.18006 10.8248 9.37734 10.9359 9.5524C11.0591 9.73592 11.2332 9.87941 11.4368 9.96521C11.6606 10.0681 11.9523 10.1194 12.312 10.1193C12.55 10.1203 12.7877 10.1001 13.0221 10.0588C13.2434 10.0192 13.4594 9.95459 13.6661 9.86613C13.7027 9.8369 13.7211 9.85513 13.7211 9.92119V10.967C13.7229 10.9955 13.7172 11.0239 13.7046 11.0496C13.692 11.0696 13.6751 11.0865 13.655 11.0991C13.4271 11.2069 13.1868 11.2864 12.9395 11.3358C12.6202 11.3958 12.2956 11.4234 11.9707 11.4183C11.4495 11.4183 11.0129 11.3376 10.6607 11.1762C10.3278 11.0295 10.0338 10.8071 9.80205 10.5267C9.58563 10.2624 9.42464 9.95727 9.32869 9.62945C9.23366 9.3059 9.18546 8.9704 9.18556 8.63318C9.18455 8.26497 9.24215 7.89894 9.3562 7.54884C9.46605 7.20734 9.63975 6.8898 9.86809 6.61311C10.0933 6.33967 10.375 6.11812 10.6937 5.96361C11.0523 5.79822 11.4439 5.71726 11.8386 5.72693C12.2038 5.7177 12.5665 5.78911 12.901 5.93608C13.1836 6.06408 13.431 6.25861 13.622 6.50302C13.8024 6.73576 13.9403 6.99849 14.0293 7.27913C14.1161 7.54958 14.1606 7.83177 14.1614 8.11578C14.1614 8.27729 14.1559 8.42407 14.1449 8.55612C14.1339 8.68822 14.1126 8.82548 14.1053 8.88414C14.1017 8.90806 14.0898 8.92994 14.0717 8.94602C14.0536 8.9621 14.0305 8.97136 14.0063 8.97222C13.9623 8.97221 10.7268 8.97444 10.7268 8.97444ZM10.7268 7.90661H12.1689C12.345 7.90661 12.4753 7.90478 12.5597 7.9011C12.6133 7.90113 12.6668 7.8956 12.7193 7.88459V7.81854C12.7171 7.73244 12.7023 7.64714 12.6753 7.56535C12.6159 7.37754 12.4965 7.21442 12.3354 7.10106C12.1743 6.9877 11.9804 6.93037 11.7836 6.93786C11.5983 6.92666 11.4138 6.96961 11.2525 7.06149C11.0913 7.15336 10.9602 7.29018 10.8754 7.45526C10.8003 7.59606 10.75 7.74874 10.7268 7.90661Z" fill="white"/>
<path d="M10.0333 3.86899H13.3248C13.3761 3.86899 13.402 3.89846 13.402 3.95719V4.85025C13.4037 4.86223 13.4026 4.87445 13.3988 4.88593C13.395 4.89742 13.3885 4.90785 13.3799 4.91641C13.3714 4.92497 13.361 4.93142 13.3495 4.93524C13.338 4.93907 13.3258 4.94017 13.3138 4.93845H10.0223C9.97075 4.93845 9.94507 4.90917 9.94507 4.85025V3.94617C9.94507 3.89484 9.97436 3.86899 10.0333 3.86899Z" fill="white"/>
</g>
<defs>
<clipPath id="clip0_820_108">
<rect width="16.4103" height="16" fill="white" transform="translate(0.175903)"/>
</clipPath>
</defs>
</svg>
