<svg width="121" height="64" viewBox="0 0 121 64" fill="none" xmlns="http://www.w3.org/2000/svg">
<g clip-path="url(#clip0_736_228)">
<g clip-path="url(#clip1_736_228)">
<path d="M109.926 29.0083C109.306 29.0001 108.694 29.1497 108.143 29.4437C107.593 29.7378 107.12 30.1673 106.768 30.6945V29.2949H104.322V38.7871H106.768V34.1412C106.768 32.3558 107.589 31.2906 108.963 31.2906C110.175 31.2906 111.042 32.1198 111.042 33.5054V38.7871H113.47V32.9747C113.471 30.4951 112.022 29.0083 109.926 29.0083Z" fill="#000B50"/>
<path d="M85.749 38.7801H83.1687V33.499C83.1687 32.1948 82.3524 31.2844 81.1812 31.2844C79.7193 31.2844 78.847 32.3495 78.847 34.1347V38.7801H76.2462V29.2919H78.847V30.6943C79.221 30.1672 79.7226 29.7376 80.3079 29.4436C80.8932 29.1496 81.5438 29.0001 82.2025 29.0083C83.694 29.0083 84.8195 29.7541 85.3713 31.0117C85.7628 30.3931 86.3122 29.8835 86.9661 29.5324C87.6201 29.1814 88.3564 29.0008 89.1034 29.0083C91.2583 29.0083 92.6499 30.5644 92.6499 32.9753V38.7871H90.0707V33.5059C90.0707 32.2018 89.2544 31.2914 88.0823 31.2914C86.6213 31.2914 85.7479 32.3565 85.7479 34.1417L85.749 38.7801Z" fill="#000B50"/>
<path d="M32.7561 32.3894L32.2007 32.1667L32.7318 31.8956C32.794 31.8639 34.2153 31.1039 34.2153 29.2752C34.2153 27.7314 32.8431 26.1689 30.2198 26.1689H23.881V38.7871H30.2321C34.3961 38.7871 34.6065 35.9281 34.6065 35.3552C34.6074 33.1583 32.7746 32.3983 32.7561 32.3894ZM26.5031 28.245H29.6367C30.4966 28.245 31.4227 28.7467 31.4227 29.8501C31.4227 30.9268 30.524 31.4909 29.6367 31.4909H26.5031V28.245ZM30.0472 36.7109H26.5031V33.4651H30.0472C31.2081 33.4651 31.8148 34.2904 31.8148 35.1068C31.8148 36.038 31.0714 36.7129 30.0472 36.7129V36.7109Z" fill="#000B50"/>
<path d="M45.3318 34.0587C45.2754 31.0858 43.23 29.008 40.356 29.008C37.4386 29.008 35.2377 31.1784 35.2377 34.0567C35.2206 35.3741 35.7204 36.6469 36.6329 37.6091C37.5657 38.5738 38.9033 39.1025 40.358 39.1025C41.8128 39.1025 43.1504 38.5718 44.0832 37.6091C44.5843 37.0861 44.9635 36.4611 45.1935 35.7782H42.8363C42.3539 36.6254 41.4443 37.1391 40.358 37.1391C39.1072 37.1391 38.0977 36.262 37.8202 34.905L37.7524 34.5764H45.3318V34.0587ZM37.8907 32.8451C38.041 32.3153 38.3638 31.8491 38.8092 31.5182C39.2548 31.1873 39.7982 31.0102 40.356 31.0141C41.5322 31.0141 42.4114 31.6991 42.7183 32.8451H37.8907Z" fill="#000B50"/>
<path d="M68.6753 34.0587C68.6206 31.0858 66.6395 29.008 63.8554 29.008C61.0285 29.008 58.8966 31.1784 58.8966 34.0567C58.8806 35.374 59.3646 36.6467 60.2481 37.6091C61.1516 38.5738 62.4473 39.1025 63.8574 39.1025C65.2676 39.1025 66.5621 38.5718 67.4657 37.6091C67.9513 37.0861 68.3186 36.4611 68.5415 35.7782H66.2552C65.7877 36.6254 64.9058 37.1391 63.8545 37.1391C62.6429 37.1391 61.6651 36.262 61.3961 34.905L61.3305 34.5764H68.6724L68.6753 34.0587ZM61.4666 32.8451C61.6122 32.3153 61.925 31.849 62.3568 31.5181C62.7886 31.1872 63.3152 31.0101 63.8554 31.0141C64.9948 31.0141 65.8464 31.6991 66.1437 32.8451H61.4666Z" fill="#000B50"/>
<path d="M103.06 34.0587C103.005 31.0858 101.024 29.008 98.2394 29.008C95.4121 29.008 93.2813 31.1784 93.2813 34.0567C93.2646 35.3738 93.7484 36.6466 94.6319 37.6091C95.5363 38.5738 96.8322 39.1025 98.2415 39.1025C99.6507 39.1025 100.947 38.5718 101.85 37.6091C102.336 37.0861 102.703 36.4611 102.926 35.7782H100.639C100.172 36.6254 99.2909 37.1391 98.2386 37.1391C97.0267 37.1391 96.0489 36.262 95.7799 34.905L95.7143 34.5764H103.06V34.0587ZM95.8513 32.8451C95.9967 32.3153 96.3094 31.8489 96.741 31.518C97.1726 31.1871 97.6992 31.01 98.2394 31.0141C99.3788 31.0141 100.231 31.6991 100.528 32.8451H95.8513Z" fill="#000B50"/>
<path d="M75.6154 29.0173C74.0108 28.9181 72.6464 29.6125 71.9559 30.9278V29.2941H69.3063V38.787H71.9559V34.6655C71.9559 32.1479 73.7655 30.8633 75.6154 31.5845V29.0173Z" fill="#000B50"/>
<path d="M58.5961 36.7227C58.2232 36.8863 57.8204 36.9713 57.4129 36.9723C56.2874 36.9723 55.6669 36.2893 55.6669 35.0488V31.2465H58.7077V29.3071H55.6648V25.2235L53.127 26.145V29.3071H48.8159V25.2225L46.2781 26.144V35.3887C46.2781 37.8182 47.5401 39.1025 49.9267 39.1025C50.8579 39.1025 51.6567 38.9524 52.3611 38.6433L51.7454 36.7247C51.3723 36.8883 50.9695 36.9733 50.5622 36.9742C49.4367 36.9742 48.8159 36.2913 48.8159 35.0507V31.2495H53.1288V35.3887C53.1288 37.8182 54.3908 39.1025 56.7783 39.1025C57.7086 39.1025 58.5076 38.9524 59.2118 38.6433L58.5961 36.7227Z" fill="#000B50"/>
<path d="M120.119 36.7217C119.752 36.8853 119.355 36.9702 118.954 36.9713C117.844 36.9713 117.233 36.2883 117.233 35.0478V31.2455H120.229V29.3061H117.233V25.2225L114.732 26.144V35.3887C114.732 37.8182 115.975 39.1025 118.328 39.1025C119.245 39.1025 120.032 38.9524 120.725 38.6433L120.119 36.7217Z" fill="#000B50"/>
<path d="M10.9473 37.1819L18.9644 40.0489C20.2774 38.3778 21.0418 36.25 21.0418 33.8768C21.0418 28.224 16.7028 23.9607 10.9473 23.9607C5.19181 23.9607 0.852783 28.224 0.852783 33.8768C0.852783 36.25 1.61826 38.3749 2.93122 40.0489L10.9473 37.1819Z" fill="#FFC729"/>
</g>
</g>
<defs>
<clipPath id="clip0_736_228">
<rect width="120" height="64" fill="white" transform="translate(0.852783)"/>
</clipPath>
<clipPath id="clip1_736_228">
<rect width="120" height="16.5056" fill="white" transform="translate(0.852783 23.7472)"/>
</clipPath>
</defs>
</svg>
