<svg width="41" height="16" viewBox="0 0 41 16" fill="none" xmlns="http://www.w3.org/2000/svg">
<g clip-path="url(#clip0_781_314)">
<g clip-path="url(#clip1_781_314)">
<path d="M2.12513 8.00001L1.2222 8.90329L0.310547 8.00001L1.22186 7.0887L2.12513 8.00001ZM4.33253 5.79261L5.8877 7.34778L6.79935 6.4368L4.33253 3.97803L1.86572 6.44485L2.77737 7.35583L4.33253 5.79261ZM7.44321 7.0887L6.53993 8.00001L7.45125 8.91133L8.36223 8.00001L7.44321 7.0887ZM4.33253 10.2074L2.77737 8.6442L1.86572 9.55552L4.33253 12.022L6.79935 9.55518L5.8877 8.6442L4.33253 10.2074ZM4.33253 8.90362L5.24385 7.99197L4.33253 7.08903L3.42122 8.00001L4.33253 8.90329V8.90362ZM13.9163 8.99747V8.98205C13.9163 8.39283 13.6019 8.0942 13.0914 7.89779C13.4055 7.72518 13.6726 7.44196 13.6726 6.94726V6.93184C13.6726 6.2404 13.1149 5.79261 12.2193 5.79261H10.1691V10.1997H12.2666C13.264 10.2074 13.9163 9.79885 13.9163 8.9978V8.99747ZM12.7063 7.1125C12.7063 7.4423 12.4392 7.57569 12.0072 7.57569H11.1119V6.64092H12.0702C12.4787 6.64092 12.7063 6.80582 12.7063 7.09674V7.1125ZM12.95 8.87212C12.95 9.20192 12.6909 9.3514 12.2662 9.3514H11.1119V8.38478H12.2351C12.7301 8.38478 12.95 8.56577 12.95 8.86407V8.87212ZM15.9507 10.2074V5.79261H14.9767V10.1997H15.9507V10.2074ZM21.1669 10.2074V5.79261H20.2083V8.51081L18.1424 5.79261H17.2468V10.1997H18.2054V7.40308L20.3421 10.2074H21.1666H21.1669ZM26.5396 10.2074L24.6469 5.76915H23.7517L21.8583 10.2074H22.8561L23.2567 9.21767H25.1185L25.519 10.2074H26.5403H26.5396ZM24.7723 8.36132H23.6019L24.1911 6.93184L24.7723 8.36132ZM31.1669 10.2074V5.79261H30.2083V8.51081L28.1424 5.79261H27.2468V10.1997H28.2054V7.40308L30.3421 10.2074H31.1666H31.1669ZM36.1706 9.49251L35.5502 8.87212C35.2043 9.18617 34.898 9.39028 34.3875 9.39028C33.6334 9.39028 33.1072 8.76185 33.1072 8.00772V7.98426C33.1072 7.23014 33.6411 6.60975 34.3875 6.60975C34.8272 6.60975 35.1731 6.79811 35.5187 7.10445L36.1391 6.38954C35.7308 5.98902 35.2358 5.70614 34.4033 5.70614C33.0522 5.70614 32.1017 6.7351 32.1017 7.98426V8.00001C32.1017 9.26459 33.0676 10.2701 34.364 10.2701C35.2123 10.2781 35.7151 9.9795 36.1706 9.49251ZM40.3105 10.2074V9.34336H37.9145V8.41629H39.9962V7.55223H37.9145V6.65667H40.279V5.79261H36.9562V10.1997H40.3105V10.2074Z" fill="#F0B90B"/>
</g>
</g>
<defs>
<clipPath id="clip0_781_314">
<rect width="40" height="16" fill="white" transform="translate(0.310547)"/>
</clipPath>
<clipPath id="clip1_781_314">
<rect width="40" height="8.04397" fill="white" transform="translate(0.310547 3.97803)"/>
</clipPath>
</defs>
</svg>
