<svg width="121" height="64" viewBox="0 0 121 64" fill="none" xmlns="http://www.w3.org/2000/svg">
<g clip-path="url(#clip0_761_456)">
<g clip-path="url(#clip1_761_456)">
<path d="M15.4445 33.6493C15.5788 31.2533 16.7521 29.1424 18.5222 27.646C20.258 26.1762 22.5945 25.2779 25.1438 25.2779C27.6905 25.2779 30.027 26.1762 31.7641 27.646C33.5329 29.1424 34.7062 31.2532 34.8418 33.6467C34.9761 36.1086 33.9865 38.3956 32.2507 40.0909C30.4806 41.8154 27.963 42.8975 25.1438 42.8975C22.3246 42.8975 19.8019 41.8154 18.0331 40.0909C16.2959 38.3956 15.3089 36.1086 15.4445 33.6493Z" fill="white"/>
<path d="M20.1675 33.8643C20.2364 32.6349 20.8384 31.5518 21.7466 30.784C22.6373 30.0298 23.8362 29.5689 25.1442 29.5689C26.451 29.5689 27.6498 30.0298 28.5412 30.784C29.4488 31.5518 30.0508 32.6349 30.1203 33.863C30.1893 35.1262 29.6815 36.2997 28.7908 37.1696C27.8826 38.0544 26.5908 38.6096 25.1442 38.6096C23.6977 38.6096 22.4033 38.0544 21.4957 37.1696C20.6044 36.2997 20.0979 35.1262 20.1675 33.8643Z" fill="#265787"/>
<path d="M12.2424 36.3484C12.2509 36.8295 12.4043 37.7645 12.6345 38.4946C13.1182 40.0399 13.9386 41.4695 15.0802 42.7295C16.2518 44.0246 17.6944 45.0648 19.3607 45.8033C21.1122 46.5789 23.0099 46.9742 24.9811 46.971C26.9491 46.9684 28.8468 46.5653 30.5983 45.7838C32.2645 45.0381 33.7059 43.9934 34.8755 42.6976C36.0164 41.4325 36.8356 40.0003 37.3206 38.4549C37.5644 37.6741 37.7185 36.8816 37.7803 36.0865C37.8407 35.303 37.8154 34.5183 37.7042 33.7343C37.487 32.2065 36.9585 30.7729 36.1445 29.4662C35.4001 28.2654 34.4405 27.2141 33.2996 26.3293L33.3022 26.3273L21.7877 17.4862C21.7773 17.4784 21.7688 17.4699 21.7578 17.4628C21.0023 16.8829 19.732 16.8848 18.9011 17.466C18.0611 18.0538 17.9649 19.0257 18.7125 19.6388L18.7093 19.642L23.5118 23.5474L8.8741 23.563H8.8546C7.6447 23.5643 6.48162 24.3581 6.25147 25.3612C6.01482 26.3832 6.83658 27.231 8.09459 27.2356L8.09264 27.2401L15.5119 27.2258L2.27266 37.388C2.25575 37.4004 2.23755 37.4134 2.22194 37.4257C0.97304 38.3821 0.569318 39.9723 1.35598 40.9787C2.15434 42.002 3.85183 42.004 5.11374 40.9845L12.3393 35.0709C12.3393 35.0709 12.234 35.8693 12.2424 36.3484ZM30.8095 39.0218C29.3207 40.5385 27.2364 41.3987 24.9811 41.4032C22.7226 41.4071 20.6382 40.5548 19.1494 39.0407C18.4219 38.3028 17.8875 37.4537 17.5579 36.5494C17.2348 35.6606 17.1093 34.7173 17.1925 33.7655C17.2712 32.8351 17.5482 31.9477 17.9902 31.1448C18.4245 30.3555 19.0227 29.6424 19.7612 29.039C21.2084 27.8597 23.0509 27.2213 24.9779 27.2187C26.9068 27.2161 28.748 27.8486 30.1965 29.0241C30.9337 29.6248 31.5312 30.3354 31.9655 31.1234C32.4095 31.9256 32.6845 32.8098 32.7664 33.7427C32.8484 34.6932 32.7229 35.6353 32.3998 36.5247C32.0695 37.4316 31.537 38.2806 30.8095 39.0218Z" fill="#EA7600"/>
<path d="M99.0526 33.8442C99.1637 32.6037 100.123 31.817 101.587 31.817C103.054 31.817 104.012 32.6037 104.124 33.8442H99.0526ZM103.973 36.9069C103.598 37.8262 102.714 38.3704 101.513 38.3704C100.01 38.3704 98.9973 37.4316 98.9563 35.9486H107.601V35.5124C107.601 31.7975 105.421 29.71 101.513 29.71C97.7191 29.71 95.4248 31.817 95.4248 35.1217C95.4248 38.4464 97.7549 40.5503 101.513 40.5503C103.769 40.5503 105.517 39.7773 106.595 38.4185L103.973 36.9069Z" fill="#265787"/>
<path d="M60.6953 33.85C60.8097 32.6095 61.7686 31.8229 63.2347 31.8229C64.6988 31.8229 65.6571 32.6095 65.7696 33.85H60.6953ZM65.6194 36.9127C65.2436 37.8346 64.3601 38.3788 63.1567 38.3788C61.6555 38.3788 60.6407 37.4374 60.601 35.9538H69.2439V35.5202C69.2439 31.8034 67.064 29.7151 63.1567 29.7151C59.3606 29.7151 57.0708 31.8229 57.0708 35.1275C57.0708 38.4523 59.3996 40.5561 63.1567 40.5561C65.4113 40.5561 67.1615 39.7857 68.2414 38.4249L65.6194 36.9127Z" fill="#265787"/>
<path d="M56.2966 27.4638H53.1792V40.2174H56.2966V27.4638Z" fill="#265787"/>
<path d="M70.0195 30.8522H73.1545V31.6116C74.2642 30.4271 75.597 29.8283 77.1001 29.8283C78.8314 29.8283 80.1421 30.4271 80.8189 31.4465C81.3838 32.2884 81.4209 33.3045 81.4209 34.6399V40.2174H78.2814V35.3167C78.2814 33.2831 77.8725 32.3443 76.0872 32.3443C74.2831 32.3443 73.1545 33.419 73.1545 35.2231V40.2174H70.0195V30.8522Z" fill="#265787"/>
<path d="M91.5167 35.2796C91.5167 37.0252 90.3504 38.1701 88.5456 38.1701C86.7396 38.1701 85.5732 37.0643 85.5732 35.2998C85.5732 33.5093 86.724 32.4041 88.5456 32.4041C90.3504 32.4041 91.5167 33.5288 91.5167 35.2796ZM91.5167 31.2768C90.7242 30.427 89.5774 29.9609 87.9833 29.9609C84.5441 29.9609 82.1958 32.0816 82.1958 35.2601C82.1958 38.3762 84.5278 40.5561 87.9267 40.5561C89.4851 40.5561 90.6293 40.1621 91.5167 39.2786V40.2174H94.6536V26.655L91.5167 27.4638V31.2768Z" fill="#265787"/>
<path d="M46.054 32.4041C47.8769 32.4041 49.0231 33.5093 49.0231 35.2998C49.0231 37.0643 47.8587 38.1701 46.054 38.1701C44.2505 38.1701 43.0855 37.0252 43.0855 35.2796C43.0855 33.5288 44.2505 32.4041 46.054 32.4041ZM43.0855 27.4638L39.9473 26.655V40.2174H43.0855V39.2786C43.9683 40.1621 45.1145 40.5561 46.6742 40.5561C50.075 40.5561 52.4038 38.3762 52.4038 35.2601C52.4038 32.0816 50.0549 29.9609 46.6176 29.9609C45.0203 29.9609 43.8741 30.427 43.0855 31.2768V27.4638Z" fill="#265787"/>
<path d="M108.375 40.2174V30.8522H111.512V31.4308C112.451 30.2996 113.445 29.7366 114.576 29.7366C114.8 29.7366 115.082 29.773 115.458 29.8101V32.4802C115.155 32.4405 114.818 32.4405 114.461 32.4405C112.637 32.4405 111.512 33.6432 111.512 35.6886V40.2174H108.375Z" fill="#265787"/>
<path d="M118.423 31.1389V29.4247H119.262C119.37 29.4247 119.469 29.4472 119.559 29.4921C119.65 29.537 119.722 29.602 119.775 29.6872C119.829 29.7708 119.856 29.873 119.856 29.9938C119.856 30.1146 119.828 30.2175 119.773 30.3027C119.717 30.3879 119.643 30.4529 119.55 30.4978C119.457 30.5412 119.354 30.5628 119.241 30.5628H118.667V30.24H119.148C119.213 30.24 119.269 30.2191 119.315 30.1773C119.363 30.1355 119.387 30.0735 119.387 29.9915C119.387 29.9063 119.363 29.8459 119.315 29.8103C119.269 29.7731 119.214 29.7546 119.15 29.7546H118.869V31.1389H118.423ZM119.517 30.3468L119.907 31.1389H119.42L119.055 30.3468H119.517ZM119.094 32.1608C118.837 32.1608 118.597 32.1128 118.372 32.0168C118.148 31.9208 117.95 31.7877 117.78 31.6173C117.61 31.447 117.476 31.2496 117.38 31.0251C117.284 30.8005 117.236 30.5598 117.236 30.3027C117.236 30.0457 117.284 29.8049 117.38 29.5804C117.476 29.3558 117.61 29.1584 117.78 28.9881C117.95 28.8178 118.148 28.6846 118.372 28.5886C118.597 28.4926 118.837 28.4446 119.094 28.4446C119.352 28.4446 119.592 28.4926 119.817 28.5886C120.041 28.6846 120.239 28.8178 120.409 28.9881C120.579 29.1584 120.713 29.3558 120.809 29.5804C120.905 29.8049 120.953 30.0457 120.953 30.3027C120.953 30.5598 120.905 30.8005 120.809 31.0251C120.713 31.2496 120.579 31.447 120.409 31.6173C120.239 31.7877 120.041 31.9208 119.817 32.0168C119.592 32.1128 119.352 32.1608 119.094 32.1608ZM119.094 31.6708C119.348 31.6708 119.578 31.6096 119.784 31.4873C119.992 31.3634 120.157 31.1985 120.279 30.9925C120.401 30.7851 120.463 30.5551 120.463 30.3027C120.463 30.0503 120.401 29.8211 120.277 29.6152C120.154 29.4077 119.989 29.2428 119.782 29.1205C119.576 28.9966 119.347 28.9347 119.094 28.9347C118.844 28.9347 118.614 28.9966 118.407 29.1205C118.199 29.2428 118.035 29.4077 117.912 29.6152C117.79 29.8211 117.729 30.0503 117.729 30.3027C117.729 30.5551 117.79 30.7851 117.912 30.9925C118.035 31.1985 118.199 31.3634 118.407 31.4873C118.614 31.6096 118.844 31.6708 119.094 31.6708Z" fill="#236192"/>
</g>
</g>
<defs>
<clipPath id="clip0_761_456">
<rect width="120" height="64" fill="white" transform="translate(0.952637)"/>
</clipPath>
<clipPath id="clip1_761_456">
<rect width="120" height="29.942" fill="white" transform="translate(0.952637 17.029)"/>
</clipPath>
</defs>
</svg>
