<svg width="41" height="16" viewBox="0 0 41 16" fill="none" xmlns="http://www.w3.org/2000/svg">
<g clip-path="url(#clip0_807_1899)">
<g clip-path="url(#clip1_807_1899)">
<path d="M18.6051 4.25812C16.5026 4.25812 14.7959 5.93366 14.7959 8.00001C14.7959 10.0664 16.5016 11.7419 18.6051 11.7419C20.7086 11.7419 22.4143 10.0674 22.4143 8.00001C22.4143 5.93262 20.7097 4.25812 18.6051 4.25812Z" fill="#ED1C24"/>
<path d="M18.4885 6.85878L17.8272 6.01167C17.8007 5.97737 17.7584 5.9545 17.7097 5.9545C17.661 5.9545 17.6219 5.97529 17.5944 6.00855L16.8071 6.98351V8.51042L17.5901 7.52505C17.6177 7.49075 17.661 7.46789 17.7097 7.46789C17.7584 7.46789 17.8028 7.49075 17.8303 7.5261L18.4948 8.37946C18.5202 8.41167 18.5604 8.4335 18.6049 8.4335C18.6493 8.4335 18.6895 8.41167 18.7149 8.37946L19.3794 7.5261C19.4069 7.49075 19.4503 7.46789 19.5 7.46789C19.5498 7.46789 19.5921 7.49075 19.6196 7.52505L20.4026 8.51042V6.98351L19.6154 6.00855C19.5889 5.97529 19.5466 5.9545 19.5 5.9545C19.4535 5.9545 19.409 5.97737 19.3826 6.01167L18.7213 6.85878C18.6948 6.89309 18.6525 6.91492 18.6049 6.91492C18.5573 6.91492 18.5149 6.89309 18.4885 6.85878ZM20.4016 9.63091H16.8071V8.51147H20.4016V9.63091Z" fill="white"/>
<path d="M2.88149 7.17392C2.88149 7.56473 2.69948 7.78093 2.22122 7.78093H1.81384V6.58456C1.86569 6.58041 2.03922 6.57625 2.09107 6.57625H2.23074C2.71959 6.57625 2.88149 6.77998 2.88149 7.17392ZM3.85811 8.72681C3.85811 8.11042 3.34599 7.888 2.72594 7.87345V7.85057C3.25289 7.80898 3.68777 7.59176 3.68777 7.0679C3.68777 6.48478 3.1968 6.37564 2.64764 6.37564C1.98737 6.37564 1.21283 6.39331 0.554688 6.37564V6.57625C0.693301 6.56689 1.03084 6.5856 1.03084 6.7571V9.2434C1.03084 9.40971 0.683778 9.43256 0.554688 9.43256V9.62798C1.19167 9.61135 1.94611 9.62798 2.58521 9.62798C3.25816 9.62798 3.85811 9.40553 3.85811 8.72783V8.72681ZM3.01586 8.66444C3.01586 9.17478 2.83492 9.41593 2.2064 9.41593H1.8149V7.9909H2.2318C2.80318 7.9909 3.01586 8.18111 3.01586 8.66444Z" fill="#0079C1"/>
<path d="M8.11692 9.62181C7.82066 9.62181 7.52544 9.61868 7.23023 9.62699V9.42742C7.3646 9.42742 7.73812 9.42014 7.73812 9.2424V6.937H7.72755L6.3922 9.67065H6.23031L4.92778 6.9318H4.91718V9.2424C4.91718 9.42432 5.28648 9.42742 5.4272 9.42742L5.4325 9.62699C5.0632 9.61556 4.56061 9.60726 4.19768 9.62699V9.42742C4.3384 9.42742 4.65584 9.41599 4.65584 9.2424V6.75924C4.65584 6.58878 4.32783 6.57527 4.19768 6.57527L4.19238 6.37466C4.61352 6.39233 5.06428 6.39233 5.48434 6.37466L6.60276 8.678L7.74235 6.37882C8.14656 6.39649 8.60367 6.3913 9.00786 6.37466V6.57527C8.87349 6.57527 8.52114 6.58463 8.52114 6.75924V9.2424C8.52114 9.42014 8.86924 9.42742 9.00786 9.42742V9.62699C8.71265 9.61868 8.41213 9.62181 8.11692 9.62181Z" fill="#0079C1"/>
<path d="M12.122 7.99714C12.122 8.61663 12.0596 9.48246 11.1232 9.48246C10.1868 9.48246 10.118 8.61663 10.118 7.99714C10.118 7.37766 10.1857 6.51805 11.1232 6.51805C12.0607 6.51805 12.122 7.38286 12.122 7.99714ZM12.9982 7.99714C12.9982 6.92136 12.3295 6.31744 11.1221 6.31744C9.91483 6.31744 9.23975 6.9151 9.23975 7.99714C9.23975 9.07918 9.90848 9.68098 11.1221 9.68098C12.3358 9.68098 12.9982 9.07918 12.9982 7.99714Z" fill="#0079C1"/>
<path d="M29.9955 10.661L29.5352 9.08629H27.5513L27.0815 10.661H26.0098L28.0201 4.67398H29.1629L31.1827 10.661H29.9955ZM28.729 6.33601C28.6581 6.10941 28.5956 5.75289 28.5693 5.56164H28.5512C28.5163 5.75289 28.4455 6.1011 28.3747 6.33601L27.7461 8.44185H29.3492L28.729 6.33601Z" fill="#0079C1"/>
<path d="M35.4258 10.7224C34.6291 10.7224 34.1497 10.2526 34.1497 9.42625V6.64062H33.6187V5.97019H34.1497V4.93493L35.23 4.6387V5.97019H36.0099V6.64062H35.23V9.4252C35.23 9.78173 35.4068 9.99065 35.7442 9.99065C35.8417 9.99065 35.9306 9.97297 36.0099 9.94699V10.6174C35.868 10.6871 35.6639 10.7214 35.4249 10.7214L35.4258 10.7224Z" fill="#0079C1"/>
<path d="M38.5345 10.7565C37.1791 10.7565 36.5146 9.72958 36.5146 8.31079C36.5146 6.89198 37.1791 5.87439 38.5345 5.87439C39.89 5.87439 40.5546 6.90133 40.5546 8.31079C40.5546 9.72022 39.89 10.7565 38.5345 10.7565ZM38.5345 6.5365C37.8352 6.5365 37.5961 7.31087 37.5961 8.29416C37.5961 9.27743 37.8352 10.0518 38.5345 10.0518C39.2341 10.0518 39.4731 9.27743 39.4731 8.29416C39.4731 7.31087 39.2341 6.5365 38.5345 6.5365Z" fill="#0079C1"/>
<path d="M31.731 4.25812V10.6609H32.8122V4.25812H31.731Z" fill="#0079C1"/>
</g>
</g>
<defs>
<clipPath id="clip0_807_1899">
<rect width="40" height="16" fill="white" transform="translate(0.554688)"/>
</clipPath>
<clipPath id="clip1_807_1899">
<rect width="40" height="7.48379" fill="white" transform="translate(0.554688 4.25812)"/>
</clipPath>
</defs>
</svg>
