<svg width="41" height="16" viewBox="0 0 41 16" fill="none" xmlns="http://www.w3.org/2000/svg">
<g clip-path="url(#clip0_806_1096)">
<g clip-path="url(#clip1_806_1096)">
<path d="M4.82015 6.45102C4.82015 7.17903 4.48713 7.58177 3.61001 7.58177H2.86071V5.35706C2.95558 5.34739 3.27312 5.34159 3.368 5.34159H3.62356C4.51811 5.34159 4.82015 5.72108 4.82015 6.45102ZM6.60146 9.35533C6.60146 8.20715 5.66434 7.79088 4.52778 7.76571V7.7231C5.49588 7.64373 6.28779 7.23905 6.28779 6.26321C6.28779 5.177 5.3894 4.97369 4.3845 4.97369C3.17631 4.97369 1.75901 5.00662 0.554688 4.97369V5.34739C0.80833 5.32996 1.42792 5.36481 1.42792 5.68428V10.308C1.42792 10.6177 0.792841 10.6603 0.554688 10.6603V11.0243C1.71641 10.9934 3.1008 11.0243 4.27219 11.0243C5.50363 11.0243 6.60146 10.6081 6.60146 9.35533ZM5.05248 9.23723C5.05248 10.1879 4.72139 10.639 3.57128 10.639H2.8549V7.97482H3.61776C4.66911 7.97482 5.05831 8.32913 5.05831 9.22948L5.05248 9.23723Z" fill="#0079C1"/>
<path d="M14.3948 11.0147C13.8527 11.0147 13.3125 11.0147 12.7723 11.0243V10.6526C13.0182 10.6526 13.6997 10.639 13.6997 10.308V6.01345H13.6804L11.2369 11.0979H10.9426L8.55911 6.00377H8.54168V10.308C8.54168 10.6468 9.21741 10.6526 9.473 10.6526L9.48463 11.0243C8.80887 11.003 7.88725 10.9876 7.22314 11.0243V10.6526C7.48066 10.6526 8.06151 10.6313 8.06151 10.308V5.67656C8.06151 5.36094 7.46128 5.33384 7.22314 5.33384V4.96014C7.99761 4.99307 8.81857 4.99307 9.58723 4.96014L11.6241 9.25658L13.7094 4.97565C14.449 5.00855 15.2855 4.99887 16.0329 4.96597V5.33964C15.787 5.33964 15.1422 5.35706 15.1422 5.68235V10.308C15.1422 10.639 15.7792 10.6526 16.0329 10.6526V11.0243C15.4849 11.0089 14.935 11.0147 14.3948 11.0147Z" fill="#0079C1"/>
<path d="M21.7215 7.98837C21.7215 9.1501 21.6072 10.7552 19.8918 10.7552C18.1763 10.7552 18.0524 9.14235 18.0524 7.98837C18.0524 6.83439 18.1763 5.23316 19.8918 5.23316C21.6072 5.23316 21.7215 6.83826 21.7215 7.98837ZM23.3247 7.98837C23.3247 5.9844 22.101 4.85947 19.8918 4.85947C17.6826 4.85947 16.4473 5.97472 16.4473 7.98837C16.4473 10.002 17.6729 11.125 19.8918 11.125C22.1107 11.125 23.3247 10.004 23.3247 7.98837Z" fill="#0079C1"/>
<path d="M33.5845 1.02966C32.2061 1.02966 30.8583 1.43847 29.7121 2.20438C28.5659 2.97029 27.6724 4.05892 27.1449 5.33257C26.6173 6.60624 26.4792 8.00773 26.7482 9.35986C27.0171 10.712 27.681 11.9539 28.6559 12.9288C29.6307 13.9036 30.8725 14.5675 32.2248 14.8364C33.577 15.1053 34.9783 14.9673 36.2519 14.4398C37.5256 13.9122 38.6143 13.0188 39.3802 11.8725C40.1461 10.7262 40.5549 9.3786 40.5549 8C40.5549 6.15136 39.8205 4.37841 38.5134 3.07123C37.206 1.76404 35.4333 1.02966 33.5845 1.02966Z" fill="#ED1C24"/>
<path d="M33.3713 5.87018L32.1613 4.29218C32.1362 4.25903 32.1036 4.23215 32.0665 4.21367C32.0291 4.19518 31.9882 4.18562 31.9463 4.18567C31.9059 4.18545 31.866 4.1946 31.8298 4.21241C31.7935 4.23023 31.7618 4.25619 31.7372 4.28831L30.2969 6.10252V8.94876L31.7333 7.11129C31.7595 7.07817 31.7927 7.05138 31.8306 7.03292C31.8685 7.01446 31.9101 7.00487 31.9522 7.00481C31.9948 7.00465 32.0369 7.01435 32.0751 7.03317C32.1136 7.05196 32.1471 7.07937 32.173 7.11322L33.3889 8.70285C33.4118 8.73268 33.4411 8.75716 33.4745 8.77453C33.508 8.79193 33.5448 8.80182 33.5824 8.80353C33.6203 8.80221 33.6571 8.79251 33.6906 8.77509C33.724 8.75766 33.7533 8.73299 33.7762 8.70285L34.9921 7.11322C35.0183 7.0797 35.0518 7.05252 35.09 7.03376C35.1282 7.01499 35.1703 7.00509 35.2129 7.00481C35.255 7.00442 35.2968 7.01385 35.3348 7.03233C35.3727 7.05079 35.4059 7.07784 35.4315 7.11129L36.8643 8.94681V6.10059L35.4237 4.28638C35.3989 4.25423 35.3668 4.22825 35.3303 4.21046C35.2938 4.19264 35.2533 4.18353 35.2129 4.18375C35.1714 4.18411 35.1304 4.19387 35.093 4.21233C35.0559 4.23076 35.0233 4.25741 34.9979 4.29023L33.7974 5.87018C33.7726 5.90294 33.7402 5.92946 33.7031 5.94761C33.6663 5.96576 33.6256 5.97504 33.5844 5.97474C33.5434 5.9746 33.5027 5.96512 33.4659 5.947C33.4291 5.9289 33.3967 5.90261 33.3713 5.87018ZM36.8741 11.034H30.291V8.94681H36.8741V11.034Z" fill="white"/>
</g>
</g>
<defs>
<clipPath id="clip0_806_1096">
<rect width="40" height="16" fill="white" transform="translate(0.554688)"/>
</clipPath>
<clipPath id="clip1_806_1096">
<rect width="40" height="13.9407" fill="white" transform="translate(0.554688 1.02966)"/>
</clipPath>
</defs>
</svg>
