<svg width="41" height="16" viewBox="0 0 41 16" fill="none" xmlns="http://www.w3.org/2000/svg">
<g clip-path="url(#clip0_806_1112)">
<g clip-path="url(#clip1_806_1112)">
<path d="M8.40958 7.30715C8.41962 7.70895 8.06603 7.76319 7.96357 7.76821L7.73857 7.7863L7.78879 8.00528L7.97061 8.0103C8.28703 8.0103 8.57331 8.13084 8.60847 8.62004C8.62253 8.78277 8.56628 9.32319 7.82696 9.32319C7.82696 9.32319 7.56077 9.34629 7.47739 9.24383C7.43853 9.19852 7.41715 9.1408 7.41712 9.0811V6.89731C7.41568 6.88187 7.41784 6.86631 7.42341 6.85185C7.42899 6.83738 7.43784 6.82441 7.44927 6.81393C7.48242 6.77677 7.67729 6.77677 7.78879 6.77677C8.14941 6.77677 8.40054 6.828 8.40958 7.30715ZM9.12679 7.22377C9.12679 6.68837 8.81439 6.43222 7.94449 6.43222H6.62256C6.63493 6.46479 6.64435 6.49841 6.65068 6.53267C6.65816 6.56808 6.66286 6.60401 6.66475 6.64015V9.47085C6.66244 9.50463 6.65774 9.53819 6.65068 9.5713C6.64423 9.60554 6.63482 9.63915 6.62256 9.67175H8.35835C8.71695 9.67175 9.32167 9.38246 9.32167 8.70843C9.32167 8.08463 8.95904 7.91186 8.79631 7.87469L8.66171 7.84255L8.77722 7.79634C8.96406 7.71698 9.12679 7.58037 9.12679 7.22377Z" fill="#231F20"/>
<path d="M10.1824 8.05149C10.1824 7.28405 10.2437 6.73961 11.0533 6.73961C11.863 6.73961 11.9232 7.28405 11.9232 8.05149C11.9232 8.81893 11.863 9.3694 11.0533 9.3694C10.2437 9.3694 10.1824 8.81994 10.1824 8.05149ZM11.0533 6.37497C9.74749 6.37497 9.43408 7.14744 9.43408 8.0545C9.43408 8.96157 9.74749 9.73203 11.0533 9.73203C12.3592 9.73203 12.6726 8.96358 12.6726 8.05149C12.6726 7.1394 12.3592 6.37497 11.0533 6.37497Z" fill="#231F20"/>
<path d="M14.6275 6.63716C14.657 6.60593 14.6805 6.56949 14.6968 6.52968C14.7183 6.50061 14.7299 6.4654 14.7299 6.42923H15.4833L15.3718 6.52968C15.3347 6.56685 15.3065 6.59497 15.2714 6.63716L14.2227 7.8707L15.5285 9.47088L15.6219 9.57133C15.6537 9.6065 15.6872 9.64003 15.7224 9.67178H14.7772C14.7735 9.63707 14.7643 9.60317 14.75 9.57133C14.7274 9.53606 14.7022 9.50248 14.6747 9.47088L13.5396 7.99124V9.47088C13.5407 9.5045 13.5437 9.53804 13.5486 9.57133C13.5551 9.60556 13.5645 9.63917 13.5768 9.67178H12.748C12.7603 9.63917 12.7697 9.60556 12.7762 9.57133C12.7832 9.53822 12.7879 9.50465 12.7902 9.47088V6.63716C12.7883 6.60102 12.7836 6.56509 12.7762 6.52968C12.7698 6.49542 12.7604 6.4618 12.748 6.42923H13.5768C13.5644 6.4618 13.555 6.49542 13.5486 6.52968C13.5434 6.56529 13.5404 6.60118 13.5396 6.63716V7.91188L14.6275 6.63716Z" fill="#231F20"/>
<path d="M17.042 9.67178C17.0548 9.63934 17.0642 9.60568 17.0701 9.57133C17.0772 9.53822 17.0819 9.50465 17.0842 9.47088V6.63716C17.0823 6.60102 17.0776 6.56509 17.0701 6.52968C17.0643 6.4953 17.0549 6.46163 17.042 6.42923H18.9646L19.0651 6.93651C19.0394 6.91091 19.007 6.89314 18.9716 6.88528C18.9489 6.88003 18.9257 6.877 18.9023 6.87624H17.8335V7.64368H18.8019L18.8853 8.04548C18.8703 8.04054 18.8548 8.0375 18.8391 8.03644C18.8146 8.03112 18.7897 8.02809 18.7647 8.0274H17.8335V9.47088C17.8346 9.5045 17.8377 9.53804 17.8426 9.57133C17.849 9.60556 17.8584 9.63917 17.8707 9.67178H17.042Z" fill="#231F20"/>
<path d="M19.1699 9.67178C19.1822 9.63917 19.1916 9.60556 19.198 9.57133C19.2043 9.53812 19.2087 9.50458 19.2111 9.47088V6.63716C19.209 6.60109 19.2047 6.56519 19.198 6.52968C19.1917 6.49542 19.1823 6.4618 19.1699 6.42923H19.9936C19.9812 6.46172 19.9721 6.49537 19.9665 6.52968C19.9604 6.5652 19.9571 6.60113 19.9565 6.63716V9.47088C19.9574 9.50456 19.9607 9.53813 19.9665 9.57133C19.9723 9.60561 19.9814 9.63925 19.9936 9.67178H19.1699Z" fill="#231F20"/>
<path d="M20.9096 9.47088C20.9124 9.5046 20.9171 9.53813 20.9237 9.57133C20.9301 9.60556 20.9395 9.63917 20.9518 9.67178H20.2627C20.2755 9.63934 20.2849 9.60568 20.2908 9.57133C20.2979 9.53822 20.3026 9.50465 20.3049 9.47088V6.63716C20.303 6.60102 20.2983 6.56509 20.2908 6.52968C20.285 6.4953 20.2756 6.46163 20.2627 6.42923H20.9518L22.6926 8.19314V6.63716C22.6902 6.60107 22.6855 6.56517 22.6785 6.52968C22.6722 6.49542 22.6628 6.4618 22.6504 6.42923H23.3395C23.3271 6.4618 23.3177 6.49542 23.3114 6.52968C23.3043 6.56512 23.2999 6.60105 23.2983 6.63716V9.79031L20.9096 7.37949V9.47088Z" fill="#231F20"/>
<path d="M25.5634 8.11276H24.8884L25.2289 7.32623L25.5634 8.11276ZM23.7252 9.47085C23.7252 9.47085 23.7071 9.49898 23.684 9.54519C23.6593 9.58958 23.6311 9.6319 23.5996 9.67175H24.3028C24.2925 9.64641 24.286 9.61966 24.2837 9.5924C24.2824 9.55105 24.2889 9.50983 24.3028 9.47085L24.7397 8.47539H25.699L26.145 9.47085C26.1589 9.50983 26.1654 9.55105 26.1641 9.5924C26.1618 9.61966 26.1553 9.64641 26.145 9.67175H27.0491C27.0181 9.63176 26.9902 9.58945 26.9657 9.54519L26.9275 9.47085L25.5313 6.43222H25.029C25.0262 6.45085 25.0245 6.46964 25.024 6.48847C25.0193 6.51539 25.0116 6.54168 25.0009 6.56682L23.7252 9.47085Z" fill="#231F20"/>
<path d="M27.7973 9.47088C27.7996 9.50465 27.8043 9.53822 27.8114 9.57133C27.8178 9.60556 27.8272 9.63917 27.8395 9.67178H27.1504C27.1632 9.63934 27.1726 9.60568 27.1785 9.57133C27.1856 9.53822 27.1903 9.50465 27.1926 9.47088V6.63716C27.1907 6.60102 27.186 6.56509 27.1785 6.52968C27.1727 6.4953 27.1633 6.46163 27.1504 6.42923H27.8395L29.5803 8.19314V6.63716C29.5784 6.60102 29.5737 6.56509 29.5662 6.52968C29.5599 6.49542 29.5505 6.4618 29.5381 6.42923H30.2272C30.2143 6.46163 30.2049 6.4953 30.1991 6.52968C30.1916 6.56509 30.1869 6.60102 30.185 6.63716V9.79031L27.7973 7.37949V9.47088Z" fill="#231F20"/>
<path d="M33.0945 9.62456C33.0613 9.63461 32.769 9.73205 32.108 9.73205C30.8022 9.73205 30.4888 8.9636 30.4888 8.05151C30.4888 7.13941 30.7992 6.37498 32.108 6.37498C32.4524 6.3695 32.7942 6.43445 33.1125 6.56584V7.03997C32.881 6.88902 32.6114 6.80682 32.335 6.8029C31.5947 6.8029 31.3115 7.28708 31.3014 8.05452C31.2914 8.82196 31.5716 9.33024 32.2517 9.33024C32.7077 9.33024 33.2562 9.07008 33.2562 9.07008L33.0945 9.62456Z" fill="#231F20"/>
<path d="M33.522 9.67178C33.5342 9.63917 33.5436 9.60556 33.5501 9.57133C33.5563 9.53812 33.5607 9.50458 33.5632 9.47088V6.63716C33.5611 6.60109 33.5567 6.56519 33.5501 6.52968C33.5438 6.49542 33.5343 6.4618 33.522 6.42923H34.3497C34.3373 6.46172 34.3282 6.49537 34.3226 6.52968C34.3165 6.5652 34.3131 6.60113 34.3125 6.63716V9.47088C34.3135 9.50456 34.3168 9.53813 34.3226 9.57133C34.3283 9.60561 34.3374 9.63925 34.3497 9.67178H33.522Z" fill="#231F20"/>
<path d="M36.58 8.11276H35.905L36.2445 7.32623L36.58 8.11276ZM34.7418 9.47085C34.7262 9.49477 34.7122 9.51959 34.6996 9.54519C34.6751 9.58945 34.6472 9.63176 34.6162 9.67175H35.3194C35.3091 9.64641 35.3026 9.61966 35.3003 9.5924C35.299 9.55105 35.3055 9.50983 35.3194 9.47085L35.7644 8.47539H36.7237L37.1707 9.47085C37.185 9.5097 37.1915 9.55102 37.1898 9.5924C37.1874 9.61966 37.181 9.64641 37.1707 9.67175H38.0747C38.0437 9.63176 38.0159 9.58945 37.9914 9.54519C37.9682 9.49898 37.9532 9.47085 37.9532 9.47085L36.5569 6.43222H36.0547C36.0519 6.45085 36.0502 6.46964 36.0496 6.48847C36.0454 6.51549 36.0377 6.54184 36.0265 6.56682L34.7418 9.47085Z" fill="#231F20"/>
<path d="M38.167 9.67178C38.1793 9.63925 38.1883 9.60561 38.1941 9.57133C38.2012 9.53822 38.2059 9.50465 38.2082 9.47088V6.63716C38.2063 6.60102 38.2016 6.56509 38.1941 6.52968C38.1885 6.49537 38.1794 6.46172 38.167 6.42923H38.9947C38.9823 6.4618 38.9729 6.49542 38.9666 6.52968C38.9614 6.56529 38.9583 6.60118 38.9575 6.63716V9.26696H40.1911C40.2554 9.2658 40.3194 9.25772 40.3819 9.24285C40.4417 9.22766 40.4996 9.20611 40.5547 9.17856L40.3729 9.67178H38.167Z" fill="#231F20"/>
<path d="M3.59287 6.38502C3.61413 6.38628 3.63488 6.39204 3.65375 6.40191C3.67263 6.41178 3.68919 6.42554 3.70236 6.44228L5.6501 8.26043C5.6501 8.21222 5.67923 7.70896 5.61795 7.63262L3.98362 6.08266C3.90728 6.01134 3.87313 5.99125 3.83596 5.98924H2.46079C2.37139 5.98924 2.29906 5.98924 2.25487 6.04047L1.00124 7.30213L0.741075 7.06607L1.8621 5.95509C1.95653 5.85464 2.02885 5.75419 2.18254 5.74816H3.8671C3.91667 5.74821 3.96465 5.76562 4.00271 5.79738L5.65211 7.36542C5.65211 7.29812 5.65211 7.2288 5.65211 7.15949C5.65211 7.03192 5.64407 6.7828 5.56371 6.6924L4.3583 5.54827C4.25182 5.43677 4.14133 5.31723 3.94445 5.31723H2.18053C2.14471 5.31493 2.10881 5.32029 2.07521 5.33293C2.04161 5.34557 2.01108 5.36522 1.98566 5.39056L0.673773 6.71952C0.626561 6.76573 0.556246 6.827 0.556246 6.8923V7.4719L2.4407 9.26695C2.45902 9.28583 2.48108 9.30068 2.50547 9.31054C2.52986 9.3204 2.55604 9.32505 2.58234 9.32421H3.44018C3.52356 9.32421 3.64912 9.19262 3.7124 9.13435L4.61646 8.20318L4.91279 8.48444L3.94445 9.45881C3.90701 9.49664 3.86218 9.52633 3.81275 9.54603C3.76331 9.56574 3.71035 9.57503 3.65716 9.57332H2.58736C2.51901 9.5784 2.45124 9.55761 2.39751 9.51506L0.556246 7.77023C0.556246 7.79635 0.556246 8.0535 0.556246 8.10976C0.550812 8.1774 0.559626 8.24542 0.582119 8.30944C0.604613 8.37346 0.640285 8.43205 0.686832 8.48142L2.15642 9.86764C2.23779 9.94901 2.29806 10.0063 2.37139 10.0063C2.54115 10.0063 3.4884 10.0063 3.73049 10.0063C3.8902 10.0063 4.01275 9.84554 4.18653 9.6577L5.13679 8.69438L5.42408 8.95455V9.00075L4.32314 10.1117C4.28853 10.1584 4.24289 10.1958 4.1903 10.2205C4.13771 10.2452 4.07982 10.2565 4.02179 10.2534H2.3955C2.22172 10.2534 2.13031 10.1469 2.04492 10.0655L0.55725 8.65018C0.55725 8.70242 0.55725 8.7667 0.55725 8.83602C0.55725 9.01582 0.569304 9.23782 0.615512 9.30211L1.89927 10.5176C1.99972 10.611 2.06702 10.6712 2.18154 10.6833H4.12224C4.18653 10.6833 4.2468 10.617 4.29301 10.5748C4.3583 10.5166 4.41154 10.4593 4.41255 10.4583L5.629 9.20266C5.6453 8.98842 5.64799 8.77336 5.63704 8.55877L3.78875 6.8039C3.73167 6.72792 3.64677 6.6777 3.55269 6.66427H2.70187C2.68164 6.66232 2.66122 6.66472 2.64199 6.6713C2.62276 6.67789 2.60516 6.6885 2.59037 6.70244L1.51053 7.79133L1.2373 7.52313L2.24181 6.50958C2.2867 6.46439 2.34109 6.42976 2.40104 6.40821C2.46098 6.38667 2.52497 6.37875 2.58836 6.38502H3.59287ZM2.60644 7.12333C2.64471 7.07831 2.69848 7.04927 2.75712 7.04197H3.34074C3.38615 7.0501 3.42947 7.06727 3.46812 7.09247C3.50677 7.11766 3.53997 7.15036 3.56575 7.18862C3.82792 7.44176 4.39346 7.99223 4.39346 7.99223L3.61999 8.77775C3.5547 8.84405 3.51452 8.89629 3.45626 8.89629H2.69886L1.73855 8.00328C1.73855 8.00328 2.4417 7.28506 2.60544 7.12333" fill="#C41230"/>
</g>
</g>
<defs>
<clipPath id="clip0_806_1112">
<rect width="40" height="16" fill="white" transform="translate(0.554688)"/>
</clipPath>
<clipPath id="clip1_806_1112">
<rect width="40" height="5.36659" fill="white" transform="translate(0.554688 5.31671)"/>
</clipPath>
</defs>
</svg>
