<svg width="11" height="16" viewBox="0 0 11 16" fill="none" xmlns="http://www.w3.org/2000/svg">
<g clip-path="url(#clip0_795_2660)">
<path d="M5.5003 0L0.508301 8.00825V8.0085L5.50605 16L10.5036 8.00825L5.5003 0Z" fill="white"/>
<path d="M5.50056 0.508453L0.825684 8.00825L5.50606 15.4925L10.1861 8.00825L5.50056 0.508453Z" fill="black"/>
<path d="M5.50128 1.71948L1.58203 8.00701L5.50603 14.2815L9.42953 8.00701L5.50128 1.71948Z" fill="white"/>
<path d="M5.50195 2.27484L1.9292 8.00649L5.50595 13.7262L9.08295 8.00649L5.50195 2.27484Z" fill="black"/>
<path d="M5.50203 2.71976L2.20703 8.00576L5.50603 13.281L8.80453 8.00576L5.50203 2.71976Z" fill="white"/>
<path d="M5.50031 2.59851L4.50781 4.09151H6.52606L5.50031 2.59851Z" fill="black"/>
<path d="M7.28776 10.6663H3.76201L2.44238 8.57275H8.54701L7.28776 10.6663Z" fill="black"/>
<path d="M3.79482 5.28299H7.23982L8.49907 7.37649H2.4751L3.79482 5.28299Z" fill="black"/>
<path d="M5.50037 13.4905L4.47412 11.8362H6.59312L5.50037 13.4905Z" fill="black"/>
<path d="M3.8501 10.643H6.3306C7.03982 10.643 7.66765 9.96369 7.66765 9.02894C7.66765 8.50094 7.43361 8.17969 7.30915 8.00637C7.45099 7.85864 7.665 7.66254 7.665 6.91322C7.665 6.37792 7.21162 5.33099 6.1526 5.33099H3.85012L3.8501 10.643Z" fill="black"/>
<path d="M4.03323 10.469H6.0974C6.7607 10.469 7.46743 10.0372 7.46743 9.04306C7.46743 8.54973 7.24225 8.24838 7.07593 8.01958C7.20891 7.88163 7.48515 7.66208 7.48515 6.96216C7.48515 6.46261 7.20058 5.50598 5.99065 5.50598H4.0332L4.03323 10.469Z" fill="white"/>
<path d="M4.2124 10.2908H5.95495C6.72003 10.2908 7.28918 9.89023 7.28918 8.96738C7.28918 8.50943 6.97128 8.10836 6.80903 8.01716C6.95335 7.93005 7.30548 7.68543 7.30548 7.03546C7.30548 6.51581 7.0241 5.68436 5.90105 5.68436H4.2124V10.2908Z" fill="black"/>
<path d="M4.98096 8.389H5.86748C6.16056 8.389 6.43806 8.5602 6.43806 8.87273C6.43806 9.25548 6.17121 9.37868 5.81748 9.37868H4.98096V8.389Z" fill="white"/>
<path d="M4.98096 6.53876H5.74336C5.99691 6.53876 6.34886 6.58747 6.34886 7.01556C6.34886 7.48418 6.01056 7.51333 5.74336 7.51333H4.98096V6.53876Z" fill="white"/>
<path d="M5.16504 6.71552H5.71751C5.89641 6.71552 6.14499 6.72298 6.14499 7.02539C6.14499 7.32209 5.90634 7.33597 5.71751 7.33597H5.16504V6.71552Z" fill="black"/>
<path d="M5.17629 8.56525H5.77912C5.97415 8.56525 6.22237 8.67885 6.22237 8.88667C6.22237 9.15832 5.98052 9.20222 5.74507 9.20222H5.17627L5.17629 8.56525Z" fill="black"/>
</g>
<defs>
<clipPath id="clip0_795_2660">
<rect width="9.99525" height="16" fill="white" transform="translate(0.508301)"/>
</clipPath>
</defs>
</svg>
