<svg width="17" height="16" viewBox="0 0 17 16" fill="none" xmlns="http://www.w3.org/2000/svg">
<g clip-path="url(#clip0_795_2527)">
<path fill-rule="evenodd" clip-rule="evenodd" d="M0.96875 7.99996C0.96875 3.58175 4.55032 0 8.96862 0C13.387 0 16.9687 3.58175 16.9687 7.99996C16.9687 12.4183 13.387 16 8.96862 16C4.55032 16 0.96875 12.4183 0.96875 7.99996Z" fill="#FFD900"/>
<path fill-rule="evenodd" clip-rule="evenodd" d="M1.35303 7.99995C1.35303 3.79405 4.76253 0.38446 8.96843 0.38446C13.1744 0.38446 16.584 3.79405 16.584 7.99995C16.584 12.206 13.1744 15.6155 8.96843 15.6155C4.76253 15.6155 1.35303 12.206 1.35303 7.99995Z" fill="black"/>
<path fill-rule="evenodd" clip-rule="evenodd" d="M1.77637 7.99995C1.77637 4.02761 4.99652 0.807373 8.96885 0.807373C12.9414 0.807373 16.1615 4.02761 16.1615 7.99995C16.1615 11.9725 12.9414 15.1926 8.96885 15.1926C4.99652 15.1926 1.77637 11.9725 1.77637 7.99995Z" fill="#FFD900"/>
<path fill-rule="evenodd" clip-rule="evenodd" d="M10.1454 14.1285C9.61424 14.1285 9.22761 13.7266 9.22761 13.2675C9.22761 13.2004 9.22275 13.1707 9.2259 13.1225H9.72696C9.87211 13.1225 9.84879 13.3192 9.84879 13.3192C9.84879 13.4705 10.0125 13.5392 10.1358 13.5424C10.2858 13.5466 10.4081 13.4085 10.4081 13.2572L10.4059 12.9637C10.3101 13.0158 10.12 13.0148 10.12 13.0148C9.66601 13.0023 9.22266 12.6107 9.22266 12.1264V11.9107C9.22266 11.4264 9.63566 11.0453 10.12 11.0453H10.1399C10.6241 11.0453 11.0002 11.4375 11.0002 11.9219V13.2447C11.0002 13.7431 10.6473 14.1234 10.1454 14.1285Z" fill="black"/>
<path fill-rule="evenodd" clip-rule="evenodd" d="M10.1256 11.6709H10.1341C10.2855 11.6709 10.4082 11.7936 10.4082 11.9449V12.1186C10.4082 12.27 10.2855 12.3926 10.1341 12.3926H10.1256C9.9742 12.3926 9.85156 12.27 9.85156 12.1186V11.9449C9.85156 11.7936 9.9742 11.6709 10.1256 11.6709Z" fill="#FFD900"/>
<path fill-rule="evenodd" clip-rule="evenodd" d="M4.65743 9.87132V8.46825H5.47525C6.15199 8.46825 6.39365 9.69737 5.51397 9.87132H4.65743ZM4.65743 7.39975V6.06061H5.58159C6.18098 6.06061 6.30397 7.21571 5.61761 7.39975H4.65743ZM3.55518 4.94962V10.9216L5.43663 10.9236C6.95441 10.9236 7.72506 9.08186 6.66971 7.94665C6.66971 7.94665 6.66647 7.94341 6.66647 7.93783C6.66647 7.93224 6.67403 7.92639 6.67403 7.92639C7.5511 6.93569 7.18374 5.1956 5.5526 4.94962H3.55518Z" fill="black"/>
<path fill-rule="evenodd" clip-rule="evenodd" d="M12.429 9.87132V8.46825H13.2414C13.9181 8.46825 14.1598 9.69737 13.2801 9.87132H12.429ZM12.429 7.39975V6.06061H13.3477C13.9471 6.06061 14.0701 7.21571 13.3837 7.39975H12.429ZM11.3213 4.94962V10.9216L13.2027 10.9236C14.7205 10.9236 15.4913 9.08186 14.4357 7.94665C14.4357 7.94665 14.4326 7.94341 14.4326 7.93783C14.4326 7.93224 14.4401 7.92639 14.4401 7.92639C15.3171 6.93569 14.9499 5.1956 13.3187 4.94962H11.3213Z" fill="black"/>
<path fill-rule="evenodd" clip-rule="evenodd" d="M7.79006 11.0493H7.80996C8.29419 11.0493 8.68676 11.4419 8.68676 11.9263V13.2505C8.68676 13.7348 8.29419 14.1275 7.80996 14.1275H7.79006C7.30575 14.1275 6.91309 13.7348 6.91309 13.2505V11.9263C6.91309 11.4419 7.30575 11.0493 7.79006 11.0493Z" fill="black"/>
<path fill-rule="evenodd" clip-rule="evenodd" d="M7.79547 11.6783H7.8043C7.95574 11.6783 8.07837 11.801 8.07837 11.9524V13.2671C8.07837 13.4184 7.95574 13.5411 7.8043 13.5411H7.79547C7.64412 13.5411 7.52148 13.4184 7.52148 13.2671V11.9524C7.52148 11.801 7.64412 11.6783 7.79547 11.6783Z" fill="#FFD900"/>
<path fill-rule="evenodd" clip-rule="evenodd" d="M6.58447 1.96661L8.54138 8.02101H9.38792L11.3214 1.96661H10.1372L8.96258 6.00765L7.79586 1.96661H6.58447Z" fill="black"/>
</g>
<defs>
<clipPath id="clip0_795_2527">
<rect width="15.9999" height="16" fill="white" transform="translate(0.96875)"/>
</clipPath>
</defs>
</svg>
