<svg width="17" height="16" viewBox="0 0 17 16" fill="none" xmlns="http://www.w3.org/2000/svg">
<g clip-path="url(#clip0_2_7385)">
<path d="M13.2228 14.5005C13.0157 14.5005 12.8477 14.6683 12.8477 14.8755C12.8477 15.0825 13.0157 15.2505 13.2228 15.2505C13.4298 15.2505 13.5977 15.0825 13.5977 14.8755C13.5977 14.6683 13.4298 14.5005 13.2228 14.5005ZM13.2228 15.1701C13.0598 15.1701 12.9282 15.0383 12.9282 14.8755C12.9282 14.7127 13.0598 14.5812 13.2228 14.5812C13.3855 14.5812 13.5173 14.7128 13.5173 14.8755C13.5173 15.0383 13.3855 15.1701 13.2228 15.1701ZM13.3769 14.7886C13.3769 14.7719 13.3736 14.7554 13.3672 14.7399C13.3608 14.7245 13.3514 14.7105 13.3396 14.6987C13.3278 14.6869 13.3137 14.6775 13.2983 14.6712C13.2829 14.6648 13.2663 14.6615 13.2496 14.6615H13.0689V15.0896H13.1493V14.9157H13.2069L13.2881 15.0896H13.3769L13.2922 14.9083C13.3169 14.8995 13.3383 14.8833 13.3535 14.8619C13.3687 14.8404 13.3768 14.8148 13.3769 14.7886ZM13.2496 14.8354H13.1493V14.7417H13.2496C13.2754 14.7417 13.2966 14.7627 13.2966 14.7886C13.2965 14.801 13.2916 14.8129 13.2828 14.8217C13.274 14.8305 13.2621 14.8354 13.2496 14.8354Z" fill="#010101"/>
<path d="M8.0723 0.256836C3.79578 0.256836 0.329102 3.72376 0.329102 8.00039C0.329102 12.277 3.79578 15.7437 8.0723 15.7437C12.3488 15.7437 15.8158 12.2765 15.8158 8.00039C15.8158 3.72429 12.3487 0.256836 8.0723 0.256836Z" fill="#FFB81C"/>
<path d="M8.07245 0.544459C3.95505 0.544459 0.616699 3.88256 0.616699 8.00038C0.616699 12.1182 3.95505 15.4561 8.07245 15.4561C12.1898 15.4561 15.5282 12.1179 15.5282 8.00038C15.5282 3.88288 12.1898 0.544434 8.07247 0.544434L8.07245 0.544459Z" fill="#010101"/>
<path d="M11.5657 5.10114L12.8477 3.81919C12.6627 3.60814 12.464 3.40941 12.2531 3.22429L10.9628 4.51489L11.5657 5.10114ZM8.49271 1.66662C8.35346 1.65762 8.21371 1.65137 8.07216 1.65137C7.93061 1.65137 7.79078 1.65762 7.65146 1.66662V3.70712H8.49271V1.66662ZM4.51096 3.84429L3.89136 3.22429C3.68029 3.40935 3.48161 3.60808 3.29661 3.81919L4.51093 5.03352V3.84427L4.51096 3.84429ZM4.51096 10.9665L3.29661 12.1808C3.48168 12.3918 3.68035 12.5905 3.89136 12.7756L4.51093 12.1558L4.51096 10.9665ZM5.04591 7.57954H1.73868C1.72976 7.71837 1.72363 7.85864 1.72363 8.00009C1.72363 8.14144 1.72976 8.28114 1.73928 8.42054H5.04591V7.57954ZM14.4055 7.57954H11.6299L11.1977 8.00009L11.6302 8.42054H14.4054C14.4146 8.28114 14.4205 8.14144 14.4205 8.00009C14.4205 7.85864 14.4146 7.71837 14.4055 7.57954ZM10.9626 11.4853L12.2529 12.7755C12.4639 12.5905 12.6626 12.3918 12.8477 12.1808L11.5655 10.8989L10.9626 11.4853ZM7.65146 14.3333C7.79078 14.3421 7.93063 14.3486 8.07216 14.3486C8.21368 14.3486 8.35346 14.3421 8.49271 14.3333V12.2924H7.65146V14.3333Z" fill="#FFB81C"/>
<path d="M4.83691 10.8047V11.9674H10.001L11.3079 10.6956V8.56163L10.7311 8.00038L11.3079 7.43883V5.30485L10.001 4.0332H4.83694V5.1954L5.37234 5.71648V10.2842L4.83691 10.8047Z" fill="#FFB81C"/>
<path d="M9.54075 6.04356L9.174 5.68701H7.05713V7.17319H9.174L9.54075 6.81689V6.04356ZM9.54075 9.18374L9.174 8.82734H7.05713V10.3133H9.174L9.54075 9.95714V9.18374Z" fill="#010101"/>
<path d="M5.10547 10.918V11.6982H9.89137L11.0389 10.5819V8.67472L10.3452 8.00007L11.0388 7.32474V5.41792L9.89137 4.30127H5.10549V5.08164L5.64072 5.60264V10.3972L5.10547 10.918ZM6.78797 5.41792H9.28367L9.80919 5.92967V6.93029L9.28367 7.44179H6.78799V5.41789L6.78797 5.41792ZM6.78797 8.55827H9.28367L9.80919 9.06992V10.0701L9.28367 10.5819H6.78799V8.55827H6.78797Z" fill="#010101"/>
<path d="M4.15991 12.9975C5.04823 13.6947 6.12691 14.1589 7.30521 14.3008V12.2926H4.86436L4.15991 12.9975ZM10.1333 12.2925H8.83956V14.3008C10.0178 14.1589 11.0968 13.6947 11.9849 12.9975L10.7149 11.7269L10.1333 12.2925H10.1333ZM5.04621 8.76737H1.77151C1.91378 9.94582 2.37811 11.0241 3.07516 11.9131L5.04621 9.94134V8.76734V8.76737ZM5.04621 6.05884L3.07516 4.08737C2.37811 4.97587 1.91378 6.05439 1.77148 7.23302H5.04621V6.05884ZM10.7149 4.27284L11.9851 3.00244C11.0968 2.30549 10.0179 1.84124 8.83956 1.69922V3.70722H10.1333L10.7149 4.27284ZM11.6338 10.4765L13.0701 11.9131C13.7669 11.0241 14.231 9.94584 14.3734 8.76734H11.6338V10.4765L11.6338 10.4765ZM7.30521 3.70724V1.69922C6.12691 1.84124 5.04821 2.30549 4.15981 3.00247L4.86443 3.70722H7.30518L7.30521 3.70724ZM11.6338 7.23302H14.3734C14.2311 6.05439 13.7669 4.97587 13.0701 4.08727L11.6338 5.52389L11.6338 7.23302ZM7.38291 6.01264V6.84732H9.04221L9.21513 6.67902V6.18077L9.04221 6.01264H7.38291ZM7.38291 9.15307V9.98717H9.04221L9.21513 9.81894V9.32119L9.04221 9.15307H7.38291Z" fill="white"/>
</g>
<defs>
<clipPath id="clip0_2_7385">
<rect width="16.0002" height="16" fill="white" transform="translate(0.0722656)"/>
</clipPath>
</defs>
</svg>
