<svg width="13" height="16" viewBox="0 0 13 16" fill="none" xmlns="http://www.w3.org/2000/svg">
<g clip-path="url(#clip0_776_243)">
<path d="M10.0159 1.86461C10.0159 2.2129 9.8927 2.69711 9.4 2.69711C8.80536 2.69711 8.80536 2.03026 8.80536 1.8901C8.80536 1.74993 8.80536 1.03637 9.41699 1.03637C9.9734 1.03637 10.0159 1.65224 10.0159 1.86461ZM8.80961 0H8.41035V2.56968L8.40186 2.95195H8.78837L8.79686 2.62915C8.84933 2.71589 8.92042 2.78988 9.00499 2.84577C9.14638 2.93767 9.3121 2.98502 9.4807 2.98168C9.62603 2.98496 9.77004 2.95354 9.90079 2.89001C10.0315 2.82648 10.1453 2.73269 10.2325 2.61641C10.3387 2.47624 10.4364 2.25113 10.4364 1.83488C10.4364 1.36767 10.292 1.1553 10.1858 1.03212C9.99039 0.811256 9.7228 0.760287 9.50618 0.760287C9.02198 0.760287 8.86482 1.02787 8.80961 1.12556V0Z" fill="#009900"/>
<path d="M11.1286 1.94956C11.1286 1.75843 11.1286 1.07884 11.7657 1.07884C12.2372 1.07884 12.3519 1.4781 12.3519 1.86461C12.3519 2.01752 12.3306 2.32333 12.1777 2.53146C12.0418 2.71834 11.8294 2.73958 11.7275 2.73958C11.1668 2.74383 11.1286 2.2129 11.1286 1.94956ZM10.7421 3.7802H11.1371V2.71834C11.2518 2.90523 11.4811 3.0369 11.7912 3.0369C12.3009 3.0369 12.7639 2.68861 12.7639 1.8901C12.7639 1.09159 12.3264 0.781525 11.8677 0.781525C11.6935 0.781525 11.341 0.832494 11.1371 1.16804L11.1286 0.815504H10.7251C10.7336 1.01938 10.7378 1.07035 10.7378 1.16379V3.7802H10.7421Z" fill="#009900"/>
<path fill-rule="evenodd" clip-rule="evenodd" d="M7.56919 5.25403C7.34633 4.73637 7.07168 4.24257 6.74944 3.78018C6.42911 4.24377 6.15457 4.73737 5.92969 5.25403C6.24795 5.59116 6.52329 5.96637 6.74944 6.3711C6.97345 5.965 7.24898 5.58954 7.56919 5.25403Z" fill="#009900"/>
<path fill-rule="evenodd" clip-rule="evenodd" d="M5.93408 14.5262C6.15694 15.0438 6.43159 15.5376 6.75383 16C6.89824 15.7791 7.27202 15.2355 7.57358 14.5262C7.25664 14.1879 6.98142 13.8129 6.75383 13.4091C6.52625 13.8129 6.25103 14.1879 5.93408 14.5262Z" fill="#009900"/>
<path fill-rule="evenodd" clip-rule="evenodd" d="M5.93405 5.25405C5.54527 4.84512 5.11862 4.47393 4.65982 4.14548C4.51704 4.69036 4.42882 5.24811 4.39648 5.81046C4.81045 6.0182 5.19708 6.27642 5.54753 6.57924C5.61995 6.12298 5.74982 5.67771 5.93405 5.25405Z" fill="#009900"/>
<path fill-rule="evenodd" clip-rule="evenodd" d="M7.56934 14.5262C7.95713 14.9361 8.38388 15.3074 8.84356 15.6347C8.98595 15.0898 9.07416 14.5321 9.1069 13.9697C8.69384 13.7605 8.30739 13.5024 7.95585 13.201C7.88085 13.6566 7.75107 14.1016 7.56934 14.5262Z" fill="#009900"/>
<path fill-rule="evenodd" clip-rule="evenodd" d="M4.39659 5.81047C3.89277 5.55735 3.36487 5.3553 2.8208 5.20734C2.87391 5.76874 2.98203 6.32356 3.1436 6.86383C3.60285 6.91667 4.05371 7.02653 4.48579 7.19088C4.40026 6.73605 4.37031 6.27252 4.39659 5.81047Z" fill="#009900"/>
<path fill-rule="evenodd" clip-rule="evenodd" d="M9.10262 13.9697C9.60645 14.2229 10.1343 14.4249 10.6784 14.5729C10.6253 14.0115 10.5172 13.4566 10.3556 12.9164C9.89622 12.862 9.44536 12.7507 9.01343 12.5851C9.10305 13.0408 9.13303 13.5063 9.10262 13.9697Z" fill="#009900"/>
<path fill-rule="evenodd" clip-rule="evenodd" d="M3.69991 8.12954C3.46348 7.73192 3.27662 7.30685 3.1435 6.86381C2.58379 6.79823 2.01895 6.78827 1.45728 6.83408C1.70011 7.3416 1.99021 7.82511 2.32375 8.2782C2.7744 8.17105 3.23677 8.12111 3.69991 8.12954Z" fill="#009900"/>
<path fill-rule="evenodd" clip-rule="evenodd" d="M9.79907 11.6506C10.0372 12.0474 10.2242 12.4727 10.3555 12.9164C10.9152 12.982 11.48 12.9919 12.0417 12.9461C11.798 12.4368 11.5064 11.9519 11.171 11.4977C10.722 11.6068 10.261 11.6582 9.79907 11.6506Z" fill="#009900"/>
<path fill-rule="evenodd" clip-rule="evenodd" d="M2.32374 8.2782C1.77662 8.40988 1.24329 8.59334 0.730957 8.82611C1.1331 9.22165 1.57264 9.57726 2.04341 9.88797C2.42961 9.63302 2.84628 9.42754 3.28365 9.27634C2.92443 8.98373 2.6021 8.64856 2.32374 8.2782Z" fill="#009900"/>
<path fill-rule="evenodd" clip-rule="evenodd" d="M11.46 9.88797C11.0738 10.1429 10.6571 10.3484 10.2197 10.4996C10.5787 10.7911 10.8998 11.1264 11.1754 11.4977C11.7229 11.3676 12.2564 11.184 12.7682 10.9498C12.3688 10.5529 11.9305 10.1972 11.46 9.88797Z" fill="#009900"/>
<path fill-rule="evenodd" clip-rule="evenodd" d="M3.28365 10.4996C2.84628 10.3484 2.42961 10.1429 2.04341 9.88797C1.57264 10.1987 1.1331 10.5543 0.730957 10.9498C1.24251 11.1845 1.77604 11.3681 2.32374 11.4977C2.60322 11.1283 2.92543 10.7933 3.28365 10.4996Z" fill="#009900"/>
<path fill-rule="evenodd" clip-rule="evenodd" d="M10.2197 9.27634C10.6567 9.42842 11.0733 9.63384 11.46 9.88797C11.9307 9.57726 12.3703 9.22165 12.7724 8.82611C12.2609 8.59139 11.7273 8.40786 11.1796 8.2782C10.9013 8.64856 10.5789 8.98373 10.2197 9.27634Z" fill="#009900"/>
<path fill-rule="evenodd" clip-rule="evenodd" d="M2.32375 11.502C1.98666 11.9542 1.69635 12.4395 1.45728 12.9504C2.01902 12.9939 2.58364 12.984 3.1435 12.9206C3.27662 12.4776 3.46348 12.0525 3.69991 11.6549C3.2368 11.6577 2.77494 11.6064 2.32375 11.502Z" fill="#009900"/>
<path fill-rule="evenodd" clip-rule="evenodd" d="M11.1754 8.27819C11.5117 7.82466 11.8033 7.33961 12.0461 6.82983C11.4844 6.78626 10.9197 6.79622 10.3599 6.85956C10.2268 7.30259 10.0399 7.72766 9.80347 8.12529C10.2653 8.12032 10.726 8.17166 11.1754 8.27819Z" fill="#009900"/>
<path fill-rule="evenodd" clip-rule="evenodd" d="M4.48579 12.5851C4.05323 12.7487 3.60263 12.86 3.1436 12.9164C2.98203 13.4566 2.87391 14.0115 2.8208 14.5729C3.36487 14.4249 3.89277 14.2229 4.39659 13.9697C4.37043 13.5063 4.40038 13.0414 4.48579 12.5851Z" fill="#009900"/>
<path fill-rule="evenodd" clip-rule="evenodd" d="M9.01343 7.19088C9.4455 7.02653 9.89637 6.91667 10.3556 6.86383C10.5172 6.32356 10.6253 5.76874 10.6784 5.20734C10.1343 5.3553 9.60645 5.55735 9.10262 5.81047C9.13303 6.27253 9.10304 6.73658 9.01343 7.19088Z" fill="#009900"/>
<path fill-rule="evenodd" clip-rule="evenodd" d="M4.39648 13.9697C4.42882 14.5321 4.51704 15.0898 4.65982 15.6347C5.11969 15.3076 5.54646 14.9363 5.93405 14.5262C5.74982 14.101 5.61996 13.6544 5.54753 13.1967C5.19714 13.5008 4.81053 13.7604 4.39648 13.9697Z" fill="#009900"/>
<path fill-rule="evenodd" clip-rule="evenodd" d="M9.1025 5.81046C9.07017 5.24811 8.98195 4.69036 8.83916 4.14548C8.3793 4.47258 7.95253 4.84387 7.56494 5.25405C7.74667 5.67861 7.87645 6.12356 7.95146 6.57924C8.30371 6.27879 8.69004 6.02076 9.1025 5.81046Z" fill="#009900"/>
<path fill-rule="evenodd" clip-rule="evenodd" d="M6.32898 7.51366C6.40741 7.1115 6.54935 6.72439 6.74948 6.36686C6.52333 5.96212 6.24799 5.58692 5.92973 5.24979C5.74607 5.67365 5.61622 6.11884 5.54321 6.57498C5.85274 6.84473 6.1179 7.1615 6.32898 7.51366Z" fill="#99CC00"/>
<path fill-rule="evenodd" clip-rule="evenodd" d="M7.17001 12.2665C7.09087 12.6685 6.94897 13.0555 6.74951 13.4133C6.97422 13.819 7.24968 14.1943 7.56926 14.5304C7.75156 14.1046 7.88135 13.6581 7.95578 13.2009C7.64536 12.9337 7.38004 12.6182 7.17001 12.2665Z" fill="#99CC00"/>
<path fill-rule="evenodd" clip-rule="evenodd" d="M4.48559 7.19086C4.86782 7.33658 5.22472 7.54154 5.5432 7.79824C5.47948 7.39441 5.47948 6.98307 5.5432 6.57924C5.19237 6.2769 4.80581 6.01872 4.39215 5.81046C4.36948 6.27266 4.40084 6.73593 4.48559 7.19086Z" fill="#99CC00"/>
<path fill-rule="evenodd" clip-rule="evenodd" d="M9.01351 12.5851C8.63129 12.4394 8.27439 12.2344 7.95591 11.9777C8.02037 12.3816 8.01894 12.7933 7.95166 13.1967C8.30249 13.499 8.68905 13.7572 9.10271 13.9655C9.13298 13.5034 9.103 13.0394 9.01351 12.5851Z" fill="#99CC00"/>
<path fill-rule="evenodd" clip-rule="evenodd" d="M4.90198 8.33768C4.70371 7.97972 4.56323 7.59268 4.48574 7.19088C4.05367 7.02653 3.6028 6.91667 3.14355 6.86383C3.27668 7.30686 3.46354 7.73194 3.69997 8.12956C4.10919 8.1342 4.51502 8.20447 4.90198 8.33768Z" fill="#99CC00"/>
<path fill-rule="evenodd" clip-rule="evenodd" d="M8.59717 11.4425C8.79544 11.8005 8.93592 12.1875 9.01341 12.5893C9.44597 12.753 9.89657 12.8642 10.3556 12.9206C10.2225 12.4776 10.0356 12.0525 9.79919 11.6549C9.39022 11.6439 8.98515 11.5723 8.59717 11.4425Z" fill="#99CC00"/>
<path fill-rule="evenodd" clip-rule="evenodd" d="M3.28355 9.27636C3.67052 9.14264 4.0762 9.07097 4.48557 9.06399C4.1763 8.79677 3.91237 8.48121 3.70404 8.12956C3.241 8.12324 2.7789 8.17316 2.32788 8.27822C2.60352 8.64952 2.92458 8.98485 3.28355 9.27636Z" fill="#99CC00"/>
<path fill-rule="evenodd" clip-rule="evenodd" d="M10.2196 10.4996C9.83262 10.6333 9.42694 10.705 9.01758 10.712C9.32685 10.9792 9.59077 11.2948 9.7991 11.6464C10.2624 11.6537 10.7248 11.6023 11.1753 11.4935C10.8973 11.1255 10.5764 10.7918 10.2196 10.4996Z" fill="#99CC00"/>
<path fill-rule="evenodd" clip-rule="evenodd" d="M4.33706 9.88796C3.95537 9.74199 3.59969 9.53546 3.2837 9.27634C2.84633 9.42754 2.42966 9.63302 2.04346 9.88796C2.42966 10.1429 2.84633 10.3484 3.2837 10.4996C3.60074 10.242 3.95616 10.0356 4.33706 9.88796Z" fill="#99CC00"/>
<path fill-rule="evenodd" clip-rule="evenodd" d="M9.16211 9.88796C9.54465 10.0349 9.90159 10.2413 10.2197 10.4996C10.6567 10.3475 11.0733 10.1421 11.46 9.88796C11.0738 9.63302 10.6571 9.42754 10.2197 9.27634C9.90324 9.53702 9.5459 9.74368 9.16211 9.88796Z" fill="#99CC00"/>
<path fill-rule="evenodd" clip-rule="evenodd" d="M3.69989 11.6506C3.90956 11.2999 4.17332 10.9846 4.48142 10.7162C4.07205 10.7092 3.66637 10.6376 3.2794 10.5038C2.92043 10.7954 2.59937 11.1307 2.32373 11.502C2.77474 11.607 3.23685 11.657 3.69989 11.6506Z" fill="#99CC00"/>
<path fill-rule="evenodd" clip-rule="evenodd" d="M9.7991 8.12953C9.58944 8.48023 9.32568 8.79559 9.01758 9.06396C9.42694 9.07094 9.83262 9.14262 10.2196 9.27633C10.5786 8.98482 10.8996 8.64949 11.1753 8.27819C10.7246 8.17081 10.2623 8.12086 9.7991 8.12953Z" fill="#99CC00"/>
<path fill-rule="evenodd" clip-rule="evenodd" d="M4.90198 11.4425C4.51502 11.5757 4.10919 11.646 3.69997 11.6507C3.46354 12.0483 3.27668 12.4734 3.14355 12.9164C3.60295 12.862 4.0538 12.7507 4.48574 12.5851C4.56396 12.1848 4.70441 11.7993 4.90198 11.4425Z" fill="#99CC00"/>
<path fill-rule="evenodd" clip-rule="evenodd" d="M8.59717 8.33768C8.98413 8.20447 9.38996 8.1342 9.79919 8.12956C10.0374 7.73284 10.2243 7.30754 10.3556 6.86383C9.89635 6.91667 9.44549 7.02653 9.01341 7.19088C8.93786 7.59321 8.79727 7.98055 8.59717 8.33768Z" fill="#99CC00"/>
<path fill-rule="evenodd" clip-rule="evenodd" d="M6.32898 12.2665C6.11895 12.6182 5.85363 12.9337 5.54321 13.2009C5.61623 13.6584 5.74607 14.105 5.92973 14.5304C6.24799 14.1933 6.52333 13.818 6.74948 13.4133C6.55184 13.0546 6.41005 12.6679 6.32898 12.2665Z" fill="#99CC00"/>
<path fill-rule="evenodd" clip-rule="evenodd" d="M5.54334 11.9819C5.22546 12.2395 4.86841 12.4446 4.48573 12.5893C4.39823 13.0439 4.36826 13.5077 4.39654 13.9697C4.8096 13.7604 5.19605 13.5023 5.54759 13.2009C5.48031 12.7975 5.47887 12.3858 5.54334 11.9819Z" fill="#99CC00"/>
<path fill-rule="evenodd" clip-rule="evenodd" d="M7.17001 7.51368C7.38135 7.16296 7.64651 6.84763 7.95578 6.57925C7.88336 6.12298 7.75349 5.67772 7.56926 5.25406C7.25232 5.59229 6.9771 5.96732 6.74951 6.37113C6.95029 6.72685 7.09229 7.11267 7.17001 7.51368Z" fill="#99CC00"/>
<path fill-rule="evenodd" clip-rule="evenodd" d="M7.95591 7.79824C8.27319 7.5398 8.63039 7.33466 9.01351 7.19086C9.10102 6.73629 9.13099 6.27251 9.10271 5.81046C8.68965 6.01974 8.3032 6.27784 7.95166 6.57924C8.01894 6.98267 8.02037 7.39435 7.95591 7.79824Z" fill="#99CC00"/>
<path fill-rule="evenodd" clip-rule="evenodd" d="M6.3332 8.74543C6.13308 8.38315 5.86482 8.06297 5.54318 7.8025C5.61135 8.21012 5.75389 8.60172 5.96367 8.9578C5.65123 8.68807 5.29109 8.47918 4.90182 8.34192C5.10453 8.70242 5.37241 9.02215 5.69184 9.28485C5.30563 9.13687 4.89489 9.06337 4.48133 9.06823C4.79492 9.33755 5.15665 9.54508 5.54743 9.67986C5.13412 9.67338 4.72334 9.74545 4.33691 9.89223C4.72409 10.0362 5.13435 10.1082 5.54743 10.1046C5.15665 10.2394 4.79492 10.4469 4.48133 10.7162C4.89489 10.7211 5.30563 10.6476 5.69184 10.4996C5.37145 10.7613 5.10341 11.0813 4.90182 11.4425C5.29075 11.3045 5.65077 11.0957 5.96367 10.8267C5.75207 11.1819 5.60941 11.5738 5.54318 11.982C5.86173 11.7184 6.12947 11.3988 6.3332 11.039C6.25668 11.446 6.25668 11.8638 6.3332 12.2708C6.54349 11.9149 6.68606 11.5232 6.75369 11.1155C6.82062 11.5234 6.96323 11.9153 7.17418 12.2708C7.2507 11.8638 7.2507 11.446 7.17418 11.039C7.37679 11.3996 7.64468 11.7193 7.9642 11.982C7.89641 11.5736 7.75231 11.1817 7.53946 10.8267C7.85341 11.0965 8.21497 11.3054 8.60556 11.4425C8.40397 11.0813 8.13593 10.7613 7.81554 10.4996C8.20175 10.6476 8.61249 10.7211 9.02606 10.7162C8.71163 10.4471 8.3502 10.2383 7.95996 10.1004C8.37327 10.1068 8.78405 10.0348 9.17047 9.88798C8.78339 9.7436 8.37307 9.67161 7.95996 9.67561C8.35073 9.54083 8.71247 9.3333 9.02606 9.06398C8.61249 9.05912 8.20175 9.13262 7.81554 9.2806C8.13717 9.01897 8.40663 8.69908 8.60981 8.33768C8.21922 8.47484 7.85766 8.68371 7.54371 8.95355C7.75656 8.59853 7.90065 8.2066 7.96845 7.79825C7.6499 8.06184 7.38216 8.38139 7.17843 8.74118C7.25495 8.33416 7.25495 7.91645 7.17843 7.50943C6.96748 7.86495 6.82486 8.25678 6.75794 8.66473C6.69101 8.25678 6.5484 7.86495 6.33744 7.50943C6.25733 7.9174 6.25588 8.33692 6.3332 8.74543Z" fill="white"/>
<path fill-rule="evenodd" clip-rule="evenodd" d="M6.3332 8.74543C6.25668 8.33842 6.25668 7.9207 6.3332 7.51368C6.12317 7.16202 5.85784 6.8465 5.54743 6.57925C5.48159 6.98292 5.48159 7.39459 5.54743 7.79826C5.86454 8.0638 6.13079 8.38473 6.3332 8.74543Z" fill="#FFE600"/>
<path fill-rule="evenodd" clip-rule="evenodd" d="M7.16577 11.0348C7.24229 11.4418 7.24229 11.8595 7.16577 12.2665C7.37712 12.6173 7.64228 12.9326 7.95154 13.201C8.01672 12.7974 8.01815 12.386 7.95579 11.982C7.63619 11.7178 7.36832 11.3966 7.16577 11.0348Z" fill="#FFE600"/>
<path fill-rule="evenodd" clip-rule="evenodd" d="M5.5432 7.79824C5.22532 7.54066 4.86827 7.33561 4.4856 7.19086C4.56115 7.59319 4.70174 7.98053 4.90184 8.33766C5.29155 8.47396 5.65187 8.68294 5.96369 8.95353C5.75326 8.59776 5.61068 8.20603 5.5432 7.79824Z" fill="#FFE600"/>
<path fill-rule="evenodd" clip-rule="evenodd" d="M7.95575 11.982C8.27303 12.2404 8.63023 12.4455 9.01335 12.5893C8.93779 12.187 8.7972 11.7997 8.59711 11.4425C8.20729 11.3037 7.84603 11.095 7.53101 10.8267C7.74635 11.1805 7.89062 11.5729 7.95575 11.982Z" fill="#FFE600"/>
<path fill-rule="evenodd" clip-rule="evenodd" d="M5.69614 9.2806C5.37575 9.01886 5.10771 8.69894 4.90612 8.33767C4.51916 8.20446 4.11333 8.13419 3.7041 8.12955C3.91377 8.48024 4.17753 8.79561 4.48563 9.06398C4.89916 9.05947 5.30983 9.13296 5.69614 9.2806Z" fill="#FFE600"/>
<path fill-rule="evenodd" clip-rule="evenodd" d="M7.80713 10.4996C8.12752 10.7613 8.39556 11.0813 8.59715 11.4425C8.98411 11.5757 9.38994 11.646 9.79916 11.6507C9.5895 11.3 9.32574 10.9846 9.01764 10.7162C8.60408 10.7211 8.19334 10.6476 7.80713 10.4996Z" fill="#FFE600"/>
<path fill-rule="evenodd" clip-rule="evenodd" d="M5.54741 9.67986C5.15664 9.54508 4.79491 9.33756 4.48131 9.06824C4.07195 9.07521 3.66627 9.14689 3.2793 9.28061C3.59588 9.53888 3.95142 9.74531 4.33266 9.89223C4.7203 9.74453 5.13265 9.67244 5.54741 9.67986Z" fill="#FFE600"/>
<path fill-rule="evenodd" clip-rule="evenodd" d="M7.95166 10.1003C8.34191 10.2382 8.70334 10.447 9.01776 10.7162C9.42712 10.7092 9.83281 10.6376 10.2198 10.5038C9.90225 10.2447 9.54517 10.0382 9.16217 9.89221C8.77547 10.0376 8.3647 10.1082 7.95166 10.1003Z" fill="#FFE600"/>
<path fill-rule="evenodd" clip-rule="evenodd" d="M4.33705 9.88797C3.95536 10.0339 3.59968 10.2405 3.28369 10.4996C3.67066 10.6333 4.07635 10.705 4.48571 10.712C4.7993 10.4426 5.16103 10.2351 5.55181 10.1003C5.13699 10.1085 4.72449 10.0364 4.33705 9.88797Z" fill="#FFE600"/>
<path fill-rule="evenodd" clip-rule="evenodd" d="M9.16217 9.88796C9.54471 9.74105 9.90165 9.53463 10.2198 9.27634C9.83281 9.14262 9.42712 9.07094 9.01776 9.06396C8.70417 9.33328 8.34244 9.54081 7.95166 9.67559C8.3648 9.67125 8.77518 9.74325 9.16217 9.88796Z" fill="#FFE600"/>
<path fill-rule="evenodd" clip-rule="evenodd" d="M5.69614 10.4996C5.30993 10.6476 4.89919 10.7211 4.48563 10.7162C4.17636 10.9834 3.91243 11.299 3.7041 11.6507C4.11313 11.6439 4.51864 11.5737 4.90612 11.4425C5.10499 11.0794 5.37344 10.759 5.69614 10.4996Z" fill="#FFE600"/>
<path fill-rule="evenodd" clip-rule="evenodd" d="M7.80713 9.2806C8.19334 9.13262 8.60408 9.05911 9.01764 9.06398C9.32691 8.79676 9.59084 8.48119 9.79916 8.12955C9.39013 8.13626 8.98463 8.20647 8.59715 8.33767C8.39556 8.69894 8.12752 9.01886 7.80713 9.2806Z" fill="#FFE600"/>
<path fill-rule="evenodd" clip-rule="evenodd" d="M6.3291 12.2665C6.40824 12.6685 6.55014 13.0555 6.7496 13.4133C6.9479 13.055 7.08974 12.6681 7.17009 12.2665C6.9598 11.9107 6.81723 11.519 6.7496 11.1112C6.68389 11.5195 6.5412 11.9116 6.3291 12.2665Z" fill="#FFE600"/>
<path fill-rule="evenodd" clip-rule="evenodd" d="M6.33341 11.0348C6.13216 11.3963 5.86407 11.7163 5.5434 11.9777C5.47968 12.3816 5.47968 12.7929 5.5434 13.1967C5.85266 12.9283 6.11782 12.613 6.32917 12.2623C6.25626 11.8562 6.2577 11.4403 6.33341 11.0348Z" fill="#FFE600"/>
<path fill-rule="evenodd" clip-rule="evenodd" d="M4.90184 11.4425C4.70357 11.8005 4.56309 12.1875 4.4856 12.5893C4.86782 12.4436 5.22472 12.2387 5.5432 11.982C5.61138 11.5743 5.75391 11.1827 5.96369 10.8267C5.6508 11.0957 5.29078 11.3046 4.90184 11.4425Z" fill="#FFE600"/>
<path fill-rule="evenodd" clip-rule="evenodd" d="M7.17009 7.51368C7.09166 7.11153 6.94972 6.72442 6.7496 6.36688C6.55062 6.72494 6.40874 7.11187 6.3291 7.51368C6.54006 7.8692 6.68267 8.26104 6.7496 8.66898C6.81652 8.26104 6.95914 7.8692 7.17009 7.51368Z" fill="#FFE600"/>
<path fill-rule="evenodd" clip-rule="evenodd" d="M7.16577 8.74543C7.36723 8.38407 7.63529 8.06413 7.95579 7.8025C8.02026 7.39861 8.01883 6.98693 7.95154 6.5835C7.64228 6.85188 7.37712 7.1672 7.16577 7.51793C7.24657 7.92311 7.24657 8.34025 7.16577 8.74543Z" fill="#FFE600"/>
<path fill-rule="evenodd" clip-rule="evenodd" d="M8.59711 8.33766C8.79538 7.97969 8.93586 7.59266 9.01335 7.19086C8.63113 7.33657 8.27423 7.54154 7.95575 7.79824C7.88795 8.20659 7.74386 8.59851 7.53101 8.95353C7.84603 8.68521 8.20729 8.47651 8.59711 8.33766Z" fill="#FFE600"/>
</g>
<defs>
<clipPath id="clip0_776_243">
<rect width="12.0414" height="16" fill="white" transform="translate(0.730957)"/>
</clipPath>
</defs>
</svg>
