<svg width="55" height="64" viewBox="0 0 55 64" fill="none" xmlns="http://www.w3.org/2000/svg">
<g clip-path="url(#clip0_746_269)">
<path fill-rule="evenodd" clip-rule="evenodd" d="M52.9212 15.3527L54.4243 11.6691C54.4243 11.6691 52.5113 9.62185 50.1885 7.30206C47.8668 4.98228 42.9486 6.34709 42.9486 6.34709L37.3481 0H17.6765L12.0759 6.34709C12.0759 6.34709 7.1578 4.98228 4.83601 7.30206C2.51322 9.62185 0.601277 11.6691 0.601277 11.6691L2.10438 15.3527L0.19043 20.8109C0.19043 20.8109 5.81603 42.0908 6.47539 44.6902C7.77307 49.8067 8.6609 51.7848 12.3495 54.3782C16.0371 56.9705 22.7309 61.4728 23.8232 62.1562C24.9164 62.8376 26.2832 64 27.5128 64C28.7423 64 30.1081 62.8376 31.2004 62.1562C32.2936 61.4738 38.9864 56.9705 42.6761 54.3782C46.3637 51.7858 47.2525 49.8067 48.5502 44.6902C49.2085 42.0908 54.8331 20.8109 54.8331 20.8109L52.9212 15.3527Z" fill="url(#paint0_linear_746_269)"/>
<path fill-rule="evenodd" clip-rule="evenodd" d="M34.4792 11.5318C35.2989 11.5318 41.3784 10.3724 41.3784 10.3724C41.3784 10.3724 48.5823 19.0703 48.5823 20.9302C48.5823 22.4673 47.962 23.0686 47.2325 23.778C47.0802 23.9264 46.9218 24.0787 46.7645 24.247L41.3634 29.9758C41.3054 30.0367 41.2466 30.0969 41.187 30.1562C40.6479 30.6973 39.8543 31.495 40.4134 32.8197L40.5287 33.0892C41.1429 34.5242 41.9015 36.2959 40.9365 38.0896C39.9094 39.9995 38.1508 41.2741 37.0234 41.0627C35.8971 40.8523 33.2496 39.4704 32.2766 38.8401C31.3036 38.2088 28.2183 35.6676 28.2183 34.6946C28.2183 33.8839 30.4368 32.5351 31.5151 31.8788C31.7295 31.7485 31.8989 31.6463 31.9961 31.5801C32.1073 31.505 32.2937 31.3897 32.5232 31.2475C33.5062 30.6362 35.2828 29.5339 35.3279 29.0459C35.3831 28.4427 35.362 28.2663 34.5684 26.7772C34.4 26.4606 34.2026 26.1219 33.9992 25.7712C33.2436 24.4735 32.3979 23.0205 32.5863 21.9793C32.7967 20.8039 34.6405 20.1305 36.2017 19.5593C36.3961 19.4892 36.5875 19.4191 36.7699 19.3499L38.3963 18.7397C39.9555 18.1565 41.6871 17.5081 41.9736 17.3768C42.3685 17.1955 42.2662 17.0211 41.0688 16.9079C40.8749 16.8889 40.6812 16.8688 40.4876 16.8478C39.0045 16.6904 36.2699 16.4008 34.9411 16.7706C34.6796 16.8437 34.387 16.9229 34.0794 17.0061C32.5863 17.4099 30.7555 17.9049 30.5791 18.1905C30.5491 18.2406 30.519 18.2837 30.49 18.3238C30.3216 18.5623 30.2124 18.7186 30.3988 19.7327C30.4539 20.0353 30.5681 20.6295 30.7094 21.3651C31.1203 23.5175 31.7646 26.8744 31.8458 27.628C31.8568 27.7342 31.8698 27.8354 31.8818 27.9336C31.985 28.7754 32.0532 29.3355 31.0752 29.559L30.8196 29.6171C29.7154 29.8696 28.097 30.2414 27.5128 30.2414C26.9276 30.2414 25.3083 29.8706 24.204 29.6171L23.9495 29.559C22.9714 29.3355 23.0406 28.7754 23.1438 27.9336C23.1558 27.8354 23.1679 27.7332 23.1789 27.628C23.26 26.8734 23.9054 23.5075 24.3182 21.356C24.4585 20.6245 24.5718 20.0333 24.6269 19.7327C24.8122 18.7186 24.703 18.5623 24.5347 18.3238C24.5037 18.28 24.4736 18.2356 24.4445 18.1905C24.2701 17.9049 22.4404 17.4099 20.9463 17.0061C20.6386 16.9229 20.345 16.8437 20.0845 16.7706C18.7548 16.3998 16.0211 16.6904 14.5381 16.8478C14.3116 16.8718 14.1152 16.8928 13.9569 16.9079C12.7584 17.0211 12.6572 17.1955 13.052 17.3768C13.3376 17.5081 15.0692 18.1565 16.6274 18.7397C17.2256 18.9631 17.7998 19.1776 18.2547 19.3499C18.4381 19.4191 18.6285 19.4882 18.8239 19.5603C20.3851 20.1315 22.2289 20.8039 22.4394 21.9793C22.6267 23.0205 21.781 24.4735 21.0264 25.7712C20.822 26.1219 20.6256 26.4606 20.4563 26.7772C19.6636 28.2663 19.6426 28.4427 19.6977 29.0459C19.7418 29.5349 21.5175 30.6362 22.5015 31.2475C22.731 31.3897 22.9173 31.505 23.0286 31.5801C23.1268 31.6463 23.2951 31.7485 23.5096 31.8788C24.5878 32.5341 26.8064 33.8829 26.8064 34.6946C26.8064 35.6666 23.722 38.2088 22.748 38.8401C21.776 39.4714 19.1285 40.8523 18.0012 41.0627C16.8749 41.2731 15.1152 39.9995 14.0891 38.0906C13.1241 36.2959 13.8817 34.5242 14.496 33.0903L14.6112 32.8197C15.1714 31.495 14.3777 30.6973 13.8376 30.1562C13.7784 30.0969 13.7199 30.0367 13.6622 29.9758L8.26111 24.247C8.10278 24.0797 7.94446 23.9264 7.79214 23.778C7.06264 23.0696 6.44336 22.4673 6.44336 20.9302C6.44336 19.0713 13.6472 10.3724 13.6472 10.3724C13.6472 10.3724 19.7258 11.5318 20.5454 11.5318C21.1998 11.5318 22.4624 11.0979 23.7791 10.645C24.1128 10.5307 24.4495 10.4145 24.7812 10.3043C26.4196 9.75813 27.5128 9.75412 27.5128 9.75412C27.5128 9.75412 28.6051 9.75813 30.2445 10.3043C30.5751 10.4145 30.9128 10.5307 31.2465 10.645C32.5622 11.0979 33.8258 11.5318 34.4792 11.5318ZM33.436 42.3013C34.7207 42.9626 35.6326 43.4316 35.9773 43.647C36.4232 43.9256 36.1516 44.4517 35.7448 44.7393C35.339 45.0249 29.8797 49.2476 29.3506 49.7145L29.1352 49.9059C28.6251 50.3659 27.9738 50.9521 27.5118 50.9521C27.0509 50.9521 26.3995 50.3649 25.8885 49.9059L25.675 49.7145C25.1439 49.2476 19.6857 45.0249 19.2798 44.7383C18.874 44.4517 18.6014 43.9266 19.0474 43.646C19.3921 43.4316 20.305 42.9616 21.5916 42.2992L22.8141 41.6689C24.7381 40.6749 27.138 39.8281 27.5128 39.8281C27.8866 39.8281 30.2855 40.6739 32.2115 41.6689C32.6484 41.8954 33.0583 42.1079 33.436 42.3013Z" fill="white"/>
<path fill-rule="evenodd" clip-rule="evenodd" d="M42.9485 6.34709L37.348 0H17.6764L12.0759 6.34709C12.0759 6.34709 7.15773 4.98228 4.83594 7.30206C4.83594 7.30206 11.3935 6.71084 13.6471 10.3724C13.6471 10.3724 19.7256 11.5318 20.5453 11.5318C21.365 11.5318 23.1407 10.8504 24.7801 10.3043C26.4195 9.75813 27.5127 9.75412 27.5127 9.75412C27.5127 9.75412 28.605 9.75813 30.2443 10.3043C31.8837 10.8504 33.6594 11.5318 34.4791 11.5318C35.2988 11.5318 41.3783 10.3724 41.3783 10.3724C43.632 6.71084 50.1885 7.30206 50.1885 7.30206C47.8667 4.98228 42.9485 6.34709 42.9485 6.34709Z" fill="url(#paint1_linear_746_269)"/>
</g>
<defs>
<linearGradient id="paint0_linear_746_269" x1="0.191432" y1="64.4519" x2="54.8331" y2="64.4519" gradientUnits="userSpaceOnUse">
<stop stop-color="#FF5500"/>
<stop offset="0.41" stop-color="#FF5500"/>
<stop offset="0.582" stop-color="#FF2000"/>
<stop offset="1" stop-color="#FF2000"/>
</linearGradient>
<linearGradient id="paint1_linear_746_269" x1="5.80995" y1="11.4897" x2="50.1885" y2="11.4897" gradientUnits="userSpaceOnUse">
<stop stop-color="#FF452A"/>
<stop offset="1" stop-color="#FF2000"/>
</linearGradient>
<clipPath id="clip0_746_269">
<rect width="54.6427" height="64" fill="white" transform="translate(0.19043)"/>
</clipPath>
</defs>
</svg>
