<svg width="41" height="16" viewBox="0 0 41 16" fill="none" xmlns="http://www.w3.org/2000/svg">
<g clip-path="url(#clip0_796_134)">
<g clip-path="url(#clip1_796_134)">
<path fill-rule="evenodd" clip-rule="evenodd" d="M4.60622 3.59142L0.954708 5.69963C0.886038 5.73921 0.84375 5.81256 0.84375 5.89183V10.1081C0.84375 10.1875 0.886038 10.2608 0.954708 10.3005L4.60622 12.4087C4.67489 12.4482 4.75948 12.4482 4.82815 12.4087L6.27233 11.5749L7.42789 12.0728C7.50139 12.1045 7.58313 12.0504 7.58276 11.9705L7.57793 10.8211L8.47966 10.3005C8.54834 10.2608 8.59063 10.1875 8.59063 10.1081V5.89183C8.59063 5.81256 8.54834 5.73921 8.47966 5.69963L4.82815 3.59142C4.75948 3.55172 4.67489 3.55172 4.60622 3.59142Z" fill="#111111"/>
<path fill-rule="evenodd" clip-rule="evenodd" d="M1.75342 6.28303V9.69386L4.70718 11.3992L7.66095 9.69386V6.28303L4.70718 4.57773L1.75342 6.28303Z" fill="url(#paint0_linear_796_134)"/>
<path fill-rule="evenodd" clip-rule="evenodd" d="M4.70703 7.99445V11.3992L7.6608 9.69384V6.28302L4.70703 7.99445Z" fill="url(#paint1_linear_796_134)"/>
<path fill-rule="evenodd" clip-rule="evenodd" d="M1.75342 6.28302V9.69384L4.70718 11.3992V7.99445L1.75342 6.28302Z" fill="url(#paint2_linear_796_134)"/>
<path fill-rule="evenodd" clip-rule="evenodd" d="M5.75208 9.61212C6.11386 9.64075 6.48459 9.42765 6.86505 8.95546C6.89913 8.91304 6.93256 8.95756 6.93256 9.00995C6.93256 9.06194 6.89999 9.10438 6.86505 9.14398C6.48019 9.58074 6.10881 9.80455 5.75208 9.80074C5.71778 9.80037 5.68457 9.79876 5.68457 9.74664C5.68457 9.69413 5.7184 9.60952 5.75208 9.61212Z" fill="#111111"/>
<path fill-rule="evenodd" clip-rule="evenodd" d="M6.05103 8.46722C6.05103 8.64725 5.92314 8.86871 5.76563 8.96166C5.60811 9.05464 5.48047 8.98418 5.48047 8.80378C5.48047 8.62377 5.60811 8.40241 5.76563 8.30946C5.92314 8.21648 6.05103 8.28696 6.05103 8.46722Z" fill="#111111"/>
<path fill-rule="evenodd" clip-rule="evenodd" d="M5.98671 8.39648C5.98671 8.46594 5.93729 8.55166 5.87653 8.58745C5.81553 8.62323 5.76611 8.59606 5.76611 8.52645C5.76611 8.45686 5.81553 8.37126 5.87653 8.33547C5.93729 8.29932 5.98671 8.32686 5.98671 8.39648Z" fill="white"/>
<path fill-rule="evenodd" clip-rule="evenodd" d="M7.13697 7.82625C7.13697 8.00626 7.00933 8.22762 6.85157 8.32057C6.69405 8.41367 6.56641 8.34319 6.56641 8.16318C6.56641 7.98278 6.69405 7.76132 6.85157 7.66837C7.00933 7.57539 7.13697 7.64622 7.13697 7.82625Z" fill="#111111"/>
<path fill-rule="evenodd" clip-rule="evenodd" d="M7.0724 7.75546C7.0724 7.82495 7.02335 7.91065 6.96222 7.94643C6.90125 7.98259 6.85205 7.95529 6.85205 7.8858C6.85205 7.81584 6.90125 7.73052 6.96222 7.69436C7.02335 7.6587 7.0724 7.68587 7.0724 7.75546Z" fill="white"/>
<path fill-rule="evenodd" clip-rule="evenodd" d="M5.60963 5.74063C5.54459 6.15317 5.1619 6.47018 4.69943 6.47018C4.23684 6.47018 3.85415 6.15317 3.78912 5.74063C3.7735 5.80334 3.76514 5.86852 3.76514 5.93553C3.76514 6.41447 4.18334 6.8028 4.69943 6.8028C5.21528 6.8028 5.63361 6.41447 5.63361 5.93553C5.63361 5.86852 5.62512 5.80334 5.60963 5.74063Z" fill="#111111"/>
<path fill-rule="evenodd" clip-rule="evenodd" d="M39.6572 10.3969L37.7015 8.65317L39.0279 7.42266C39.2083 7.25527 39.219 6.97333 39.0514 6.79292L38.9208 6.65226C38.7532 6.47185 38.4711 6.46134 38.2905 6.62872L36.9477 7.87436V5.29322C36.9477 5.04707 36.7482 4.84747 36.5017 4.84747H36.3097C36.0635 4.84747 35.8638 5.04707 35.8638 5.29322V10.6588C35.8638 10.9051 36.0635 11.1045 36.3097 11.1045H36.5017C36.7482 11.1045 36.9477 10.9051 36.9477 10.6588V9.43285L38.9356 11.2052C39.1192 11.3693 39.4013 11.3532 39.5652 11.1694L39.6931 11.0262C39.8569 10.8425 39.8409 10.5607 39.6572 10.3969Z" fill="#111111"/>
<path fill-rule="evenodd" clip-rule="evenodd" d="M31.1689 10.6603V8.72115C31.1689 7.74495 31.9608 6.95364 32.9374 6.95364H33.5684C34.5452 6.95364 35.3371 7.74495 35.3371 8.72102V10.6603C35.3371 10.9063 35.1374 11.106 34.8911 11.106H34.6991C34.4526 11.106 34.2532 10.9063 34.2532 10.6603V8.72102C34.2532 8.34326 33.9465 8.03692 33.5684 8.03692H32.9374C32.5595 8.03692 32.2529 8.34326 32.2529 8.72115V10.6603C32.2529 10.9063 32.0534 11.106 31.8069 11.106H31.6149C31.3684 11.106 31.1689 10.9063 31.1689 10.6603Z" fill="#111111"/>
<path fill-rule="evenodd" clip-rule="evenodd" d="M30.1946 11.106H30.0026C29.7563 11.106 29.5566 10.9064 29.5566 10.6602V7.40427C29.5566 7.15811 29.7563 6.95865 30.0026 6.95865H30.1946C30.4411 6.95865 30.6408 7.15811 30.6408 7.40427V10.6602C30.6408 10.9064 30.4411 11.106 30.1946 11.106Z" fill="#111111"/>
<path fill-rule="evenodd" clip-rule="evenodd" d="M30.1944 6.63385H30.0026C29.7563 6.63385 29.5566 6.43426 29.5566 6.18798V5.99644C29.5566 5.75029 29.7563 5.55069 30.0026 5.55069H30.1944C30.4408 5.55069 30.6406 5.75029 30.6406 5.99644V6.18798C30.6406 6.43426 30.4408 6.63385 30.1944 6.63385Z" fill="#111111"/>
<path fill-rule="evenodd" clip-rule="evenodd" d="M28.6918 11.0997C27.715 11.0997 26.9233 10.3084 26.9233 9.33242V5.59408C26.9233 5.37356 27.1023 5.19489 27.3228 5.19489H27.6076C27.8283 5.19489 28.0073 5.37356 28.0073 5.59408V9.33242C28.0073 9.71006 28.3136 10.0164 28.6918 10.0164C28.9123 10.0164 29.0914 10.1951 29.0914 10.4157V10.7004C29.0914 10.9209 28.9123 11.0997 28.6918 11.0997Z" fill="#111111"/>
<path fill-rule="evenodd" clip-rule="evenodd" d="M26.4848 10.3893L24.5291 8.64558L25.8555 7.41507C26.0359 7.24765 26.0465 6.96571 25.879 6.7853L25.7483 6.64467C25.5807 6.46426 25.2986 6.45372 25.118 6.62113L23.7753 7.86675V5.28562C23.7753 5.03947 23.5756 4.83987 23.3293 4.83987H23.1373C22.891 4.83987 22.6914 5.03947 22.6914 5.28562V10.6512C22.6914 10.8975 22.891 11.0969 23.1373 11.0969H23.3293C23.5756 11.0969 23.7753 10.8975 23.7753 10.6512V9.42526L25.7632 11.1976C25.9468 11.3617 26.2289 11.3456 26.3927 11.1618L26.5207 11.0186C26.6845 10.8349 26.6684 10.5531 26.4848 10.3893Z" fill="#111111"/>
<path fill-rule="evenodd" clip-rule="evenodd" d="M21.7151 11.1066H20.7704C19.7936 11.1066 19.002 10.3153 19.002 9.3392V8.72208C19.002 7.74589 19.7936 6.95468 20.7703 6.95468H21.7151C21.9614 6.95468 22.1612 7.15429 22.1612 7.4003V7.59224C22.1612 7.83837 21.9614 8.0381 21.7151 8.0381H20.7703C20.3923 8.0381 20.0859 8.34417 20.0859 8.72208V9.3392C20.0859 9.71696 20.3923 10.0233 20.7704 10.0233H21.7151C21.9614 10.0233 22.1612 10.2228 22.1612 10.469V10.6608C22.1612 10.9071 21.9614 11.1066 21.7151 11.1066Z" fill="#111111"/>
<path fill-rule="evenodd" clip-rule="evenodd" d="M18.0282 11.106H17.8362C17.5899 11.106 17.3901 10.9064 17.3901 10.6602V7.40427C17.3901 7.15811 17.5899 6.95865 17.8362 6.95865H18.0282C18.2745 6.95865 18.4742 7.15811 18.4742 7.40427V10.6602C18.4742 10.9064 18.2745 11.106 18.0282 11.106Z" fill="#111111"/>
<path fill-rule="evenodd" clip-rule="evenodd" d="M18.0279 6.63385H17.8362C17.5899 6.63385 17.3901 6.43426 17.3901 6.18798V5.99644C17.3901 5.75029 17.5899 5.55069 17.8362 5.55069H18.0279C18.2742 5.55069 18.474 5.75029 18.474 5.99644V6.18798C18.474 6.43426 18.2742 6.63385 18.0279 6.63385Z" fill="#111111"/>
<path fill-rule="evenodd" clip-rule="evenodd" d="M15.2211 11.1051H15.029C14.7827 11.1051 14.583 10.9057 14.583 10.6594V8.72968C14.583 7.75374 15.3748 6.9624 16.3515 6.9624H16.4278C16.6741 6.9624 16.8738 7.16186 16.8738 7.40814V7.59993C16.8738 7.84622 16.6741 8.0457 16.4278 8.0457H16.3515C15.9735 8.0457 15.6671 8.35202 15.6671 8.72968V10.6594C15.6671 10.9057 15.4674 11.1051 15.2211 11.1051Z" fill="#111111"/>
<path fill-rule="evenodd" clip-rule="evenodd" d="M10.9917 8.6839C11.0125 8.32532 11.3122 8.03967 11.6762 8.03967H12.2882C12.6657 8.03967 12.9727 8.34648 12.9727 8.72377V9.33557C12.9727 9.71271 12.6657 10.0195 12.2882 10.0195H11.6762C11.2988 10.0195 10.9917 9.71271 10.9917 9.33557V8.6839ZM12.2882 6.95637H11.6762C11.4343 6.95637 11.2038 7.00517 10.9938 7.09332V6.00507C10.9938 5.75892 10.7941 5.55945 10.5477 5.55945H10.3557C10.1094 5.55945 9.90771 5.75892 9.90771 6.00507V9.33557C9.90771 10.3101 10.701 11.1029 11.6762 11.1029H12.2882C13.2634 11.1029 14.0567 10.3101 14.0567 9.33557V8.72377C14.0567 7.74919 13.2634 6.95637 12.2882 6.95637Z" fill="#111111"/>
<path d="M40.8438 7.44078C40.8438 7.85405 40.5344 8.18071 40.1385 8.18071C39.7425 8.18071 39.4258 7.85158 39.4258 7.44078C39.4258 7.02998 39.7401 6.69589 40.1385 6.69589C40.5369 6.69589 40.8438 7.02255 40.8438 7.44078ZM40.6904 7.4383C40.6904 7.09927 40.4503 6.84685 40.1385 6.84685C39.8267 6.84685 39.5842 7.10174 39.5842 7.4383C39.5842 7.77486 39.8217 8.03223 40.1385 8.03223C40.4553 8.03223 40.6904 7.77981 40.6904 7.4383ZM40.2944 7.52492L40.4825 7.81693H40.2993L40.1311 7.56204H40.0346V7.81693H39.8688V7.06462H40.1385C40.2993 7.06462 40.4107 7.16114 40.4107 7.31457C40.4107 7.41355 40.3662 7.48532 40.2919 7.52739L40.2944 7.52492ZM40.037 7.41355H40.141C40.2028 7.41355 40.2424 7.37148 40.2424 7.31457C40.2424 7.2527 40.2004 7.2131 40.141 7.2131H40.037V7.41355Z" fill="#111111"/>
</g>
</g>
<defs>
<linearGradient id="paint0_linear_796_134" x1="0.839406" y1="3.52229" x2="0.839406" y2="12.4546" gradientUnits="userSpaceOnUse">
<stop stop-color="#FEDD57"/>
<stop offset="1" stop-color="#FEBD3A"/>
</linearGradient>
<linearGradient id="paint1_linear_796_134" x1="4.70666" y1="6.28304" x2="4.70666" y2="11.4005" gradientUnits="userSpaceOnUse">
<stop stop-color="#FCEA98"/>
<stop offset="1" stop-color="#FFC553"/>
</linearGradient>
<linearGradient id="paint2_linear_796_134" x1="1.753" y1="6.28302" x2="1.753" y2="11.4005" gradientUnits="userSpaceOnUse">
<stop stop-color="#FEDD57"/>
<stop offset="1" stop-color="#FEBD3A"/>
</linearGradient>
<clipPath id="clip0_796_134">
<rect width="40" height="16" fill="white" transform="translate(0.84375)"/>
</clipPath>
<clipPath id="clip1_796_134">
<rect width="40" height="8.87671" fill="white" transform="translate(0.84375 3.56165)"/>
</clipPath>
</defs>
</svg>
