<svg width="17" height="16" viewBox="0 0 17 16" fill="none" xmlns="http://www.w3.org/2000/svg">
<g clip-path="url(#clip0_2_7407)">
<path d="M8.57519 16C4.15751 16 0.575195 12.4177 0.575195 8C0.575195 3.58231 4.15751 0 8.57519 0C12.9929 0 16.5752 3.58231 16.5752 8C16.5752 12.4177 12.9929 16 8.57519 16Z" fill="#FFB81C"/>
<path d="M8.57008 15.5386C4.40828 15.5386 1.03418 12.1645 1.03418 8.0027C1.03418 3.8409 4.40828 0.466797 8.57008 0.466797C12.7319 0.466797 16.106 3.8409 16.106 8.0027C16.106 12.1645 12.7319 15.5386 8.57008 15.5386Z" fill="#003087"/>
<path d="M11.4001 1.82615C12.0273 2.03185 12.5416 2.22502 12.519 2.28021C12.4964 2.3379 11.9646 2.18739 11.3374 1.97917C10.3917 1.6681 9.22768 1.23411 9.24273 1.20401C9.25277 1.1739 10.4544 1.51508 11.4001 1.82615ZM11.8743 7.08169C11.9019 7.11931 10.6225 7.64111 9.56885 8.0174C8.86895 8.26576 8.26939 8.44889 8.21921 8.38115C8.16904 8.31342 8.73599 8.08263 9.4359 7.83427C10.487 7.45798 11.8467 7.04406 11.8743 7.08169ZM3.43025 5.00705C3.36754 4.88664 3.2998 4.58059 3.2998 4.2645C3.2998 3.37896 3.89686 3.08545 4.77237 2.91486C4.92037 2.88727 4.94295 2.86971 5.0433 2.7217C5.70808 1.75588 6.54345 1.27422 7.47164 1.27422C8.04612 1.27422 8.4199 1.40718 10.1734 2.02932C10.6476 2.1974 11.2145 2.40561 11.9169 2.65647C12.2531 2.77689 12.6218 2.90483 13.0257 3.04531C13.5751 3.23597 13.7482 3.32377 13.7482 3.42411C13.7482 3.54202 13.5375 3.5671 13.5375 3.66243C13.5375 3.73769 13.821 3.82298 14.0844 3.84807C13.8335 4.04876 13.0433 3.92835 13.0433 3.73518C13.0433 3.63233 13.2038 3.57965 13.2038 3.49937C13.2038 3.37896 12.7172 3.13813 12.2079 3.08545C12.4086 3.76027 12.2355 4.01615 12.2355 4.16667C12.2355 4.30966 12.4588 4.38241 12.7398 4.32471C12.8802 4.48777 13.101 4.63076 13.2741 4.69097C13.2465 4.73612 13.2314 4.82142 13.249 4.87159C13.3218 4.84399 13.4321 4.81891 13.5074 4.81891C13.6579 4.98699 13.7256 5.32314 13.6955 5.53387C13.5199 5.47366 13.2942 5.44105 13.1461 5.43603C12.9931 5.20774 12.7448 4.99451 12.4939 4.86406C12.0574 4.80135 11.3801 4.92678 10.9938 5.06977C11.1969 5.09987 11.5958 5.08984 11.789 5.06475C11.8768 5.14001 12.0474 5.23032 12.1502 5.27799C12.1201 5.33067 12.1201 5.40843 12.1377 5.45359C12.2155 5.40843 12.3083 5.37331 12.3835 5.36328C12.5491 5.48871 12.6946 5.77469 12.7272 6.01803C12.5667 5.98793 12.366 5.97789 12.228 5.98542C11.9646 5.72954 11.5557 5.48369 11.2622 5.48369C10.9436 5.48369 10.6501 5.64675 10.4494 5.64675C10.1408 5.64675 9.83226 5.30558 9.34559 5.30558C9.21012 5.30558 9.07967 5.33067 8.94672 5.37833C8.97431 5.65679 9.13737 5.96033 9.24524 6.10834C9.15744 6.11837 9.01946 6.11587 8.93417 6.10834C9.00943 6.21872 9.11479 6.28645 9.18002 6.30401C8.99187 6.4169 8.87647 6.52979 8.81125 6.74302C8.95926 6.78065 9.1173 6.7656 9.2051 6.72295C9.26531 6.64518 9.36064 6.57494 9.45346 6.54986C9.71185 6.69787 9.85734 6.93117 9.87741 7.09423C9.69178 7.11179 9.51116 7.17952 9.41834 7.23722C9.24775 7.18454 9.11479 7.16698 9.0019 7.16698C8.7962 7.16698 8.62812 7.2322 8.47509 7.2322C8.31956 7.2322 8.2142 7.1444 8.18911 7.0566C8.23427 6.91612 8.2744 6.69285 8.2744 6.50972C8.2744 6.00549 7.82034 5.59156 7.0803 5.53888C7.25339 5.62167 7.4591 5.76466 7.52934 5.87504C7.37883 5.94277 7.21577 6.1259 7.21577 6.28394C7.21577 6.41439 7.32113 6.53731 7.43151 6.57494C7.49171 6.52979 7.58704 6.48463 7.65728 6.46456C7.84543 6.63264 7.95832 6.88852 7.96083 7.08169C7.82536 7.06663 7.59457 7.09925 7.46161 7.12684C7.33869 7.02399 7.23583 6.96378 7.14301 6.92364C6.95989 6.84838 6.81439 6.87347 6.67139 6.83333C6.55349 6.80323 6.4682 6.72295 6.45816 6.65773C6.60617 6.52226 6.75669 6.26638 6.75669 6.008C6.75669 5.64675 6.54095 5.43603 6.34778 5.43603C6.19476 5.43603 6.07434 5.56397 6.07434 5.7471C6.07434 5.95281 6.24493 6.15851 6.50332 6.17858C6.3528 6.33412 6.17218 6.4445 5.95393 6.4445C5.82097 6.4445 5.72063 6.40436 5.66544 6.40436C5.5676 6.40436 5.45722 6.447 5.40956 6.447C5.38698 6.447 5.37444 6.43446 5.37444 6.41188C5.37444 6.33412 5.51743 6.1535 5.60272 6.07322C5.45722 6.06068 5.35688 6.08325 5.25904 6.16102C5.12107 6.26889 5.06086 6.43697 4.89027 6.43697C4.72972 6.43697 4.66199 6.24381 4.53405 6.1259C4.44374 6.04061 4.37851 6.04061 4.23552 5.91016C4.00974 5.70194 3.95706 5.48118 3.91693 5.43101C3.84418 5.34823 3.53812 5.21276 3.43025 5.00705ZM4.83759 5.34572C4.83759 5.2253 4.75982 5.13249 4.66199 5.09987C4.67202 4.98448 4.7247 4.8741 4.78742 4.82392C4.73223 4.79884 4.63188 4.80887 4.57669 4.8741C4.52652 4.9318 4.50645 5.02712 4.4914 5.12747C4.47886 5.20524 4.46882 5.28551 4.45126 5.35826C4.42116 5.48118 4.36597 5.5439 4.32081 5.55393C4.36095 5.57902 4.42618 5.59658 4.47886 5.574C4.56666 5.53386 4.60931 5.44105 4.62436 5.32063C4.6645 5.3407 4.70212 5.38836 4.70212 5.44105C4.70212 5.5138 4.64443 5.56899 4.56415 5.59156C4.71718 5.6016 4.83759 5.48871 4.83759 5.34572ZM3.61087 3.73017C3.9972 3.61477 4.27064 3.68501 4.27064 3.88319C4.27064 4.00611 4.17782 4.07134 4.17782 4.19677C4.17782 4.30966 4.27566 4.36485 4.38604 4.36485C4.64443 4.36485 4.86017 4.14911 4.86017 3.87316C4.86017 3.60975 4.66199 3.3915 4.30576 3.3915C4.03232 3.38899 3.74634 3.54202 3.61087 3.73017Z" fill="white"/>
<path d="M12.8802 13.0297C12.7372 13.0297 12.6319 13.1476 12.5416 13.2605C12.2706 13.5992 11.9947 13.7848 11.5632 13.7848C10.8984 13.7848 10.2537 13.2229 10.2537 12.5305C10.2537 12.109 10.4419 11.6424 10.4419 11.2937C10.4419 11.0253 10.2738 10.8823 10.0907 10.8823C10.0054 10.8823 9.94515 10.93 9.94515 10.9651C9.94515 11.0253 10.1458 10.9475 10.1458 11.231C10.1458 11.5622 9.92257 12.0589 9.92257 12.5782C9.92257 13.4135 10.7078 14.0858 11.5206 14.0858C12.0072 14.0858 12.371 13.855 12.6369 13.4988C12.6745 13.5816 12.7623 13.6443 12.8752 13.6443C13.0383 13.6443 13.1612 13.5089 13.1612 13.3332C13.1587 13.1802 13.0383 13.0297 12.8802 13.0297ZM10.5798 11.6951C10.6877 11.798 11.0841 12.0915 11.5356 12.385C11.9872 12.6785 12.4161 12.9218 12.5566 12.977C12.5867 12.9896 12.6068 12.9921 12.6093 12.9846C12.6143 12.977 12.6118 12.9695 12.5742 12.9469C12.2581 12.7512 11.9144 12.5305 11.5808 12.3147C11.2496 12.099 10.9085 11.8732 10.5999 11.665C10.5623 11.6399 10.5547 11.6399 10.5497 11.6475C10.5472 11.655 10.5573 11.6725 10.5798 11.6951ZM10.5974 12.3047C10.5949 12.3173 10.5949 12.3323 10.5924 12.3474C10.5899 12.3624 10.5899 12.375 10.5874 12.39C10.5848 12.4778 10.7203 12.5556 10.7956 12.4301C10.7906 12.4628 10.788 12.4929 10.783 12.5255C10.7805 12.6108 10.916 12.691 10.9912 12.5631C10.9862 12.5957 10.9837 12.6258 10.9787 12.6584C10.9762 12.7437 11.1142 12.8215 11.1894 12.6961C11.1869 12.7287 11.1819 12.7588 11.1794 12.7914C11.1769 12.8767 11.3149 12.9544 11.3901 12.8265C11.3876 12.8591 11.3826 12.8892 11.3801 12.9218C11.37 13.0071 11.5155 13.0824 11.5908 12.957L11.5808 13.0523C11.5783 13.1376 11.7162 13.2128 11.794 13.0874L11.784 13.1827C11.7815 13.2781 11.937 13.3332 12.0047 13.2204C12.0022 13.2454 11.9997 13.2605 11.9972 13.2856C11.9822 13.4185 12.1302 13.4938 12.2305 13.4185C12.2957 13.3684 12.3835 13.2831 12.4387 13.2128C12.524 13.105 12.3735 13.0121 12.2907 13.0799C12.2681 13.0974 12.2481 13.115 12.2255 13.1326C12.228 13.0949 12.228 13.0573 12.2305 13.0197C12.233 12.9419 12.095 12.8541 12.0223 13.0297C12.0248 12.9846 12.0248 12.9394 12.0273 12.8942C12.0298 12.8165 11.8918 12.7287 11.8191 12.9043C11.8216 12.8591 11.8241 12.814 11.8241 12.7688C11.8266 12.6885 11.6886 12.6032 11.6184 12.7763C11.6209 12.7312 11.6234 12.686 11.6234 12.6384C11.6259 12.5606 11.4905 12.4703 11.4177 12.6459C11.4202 12.6007 11.4227 12.5556 11.4227 12.5079C11.4252 12.4276 11.2898 12.3398 11.217 12.5129C11.2195 12.4678 11.222 12.4201 11.2245 12.375C11.2271 12.2947 11.0916 12.2044 11.0188 12.38C11.0213 12.3348 11.0239 12.2872 11.0264 12.242C11.0289 12.1617 10.8934 12.0714 10.8232 12.247C10.8257 12.2019 10.8282 12.1542 10.8307 12.109C10.8332 12.0313 10.7103 11.961 10.6526 12.0639C10.6476 12.0714 10.64 12.084 10.635 12.099C10.6375 12.0589 10.64 12.0162 10.6425 11.9761C10.6451 11.8757 10.4795 11.8331 10.4444 11.9334C10.4218 11.9987 10.4017 12.1642 10.3992 12.2596C10.3992 12.3474 10.5347 12.4126 10.5974 12.3047ZM7.00504 11.231C7.00504 10.945 7.20573 11.0253 7.20573 10.9651C7.20573 10.93 7.14553 10.8823 7.06023 10.8823C6.8746 10.8823 6.70903 11.0253 6.70903 11.2937C6.70903 11.6449 6.89717 12.109 6.89717 12.5305C6.89717 13.2229 6.25246 13.7873 5.58767 13.7873C5.15619 13.7873 4.88024 13.6017 4.60931 13.263C4.519 13.1501 4.41364 13.0322 4.27064 13.0322C4.1126 13.0322 3.99219 13.1827 3.99219 13.3358C3.99219 13.5114 4.11511 13.6468 4.27817 13.6468C4.38855 13.6468 4.47635 13.5841 4.51649 13.5013C4.7824 13.855 5.14615 14.0883 5.63283 14.0883C6.44562 14.0883 7.23082 13.416 7.23082 12.5807C7.22831 12.0589 7.00504 11.5647 7.00504 11.231ZM4.59426 12.9795C4.73223 12.9218 5.16121 12.681 5.61527 12.3875C6.06682 12.094 6.46318 11.8005 6.57105 11.6951C6.59614 11.6725 6.60366 11.655 6.59865 11.65C6.59363 11.6424 6.5861 11.6424 6.54847 11.6675C6.23991 11.8757 5.89874 12.1015 5.5676 12.3173C5.23646 12.533 4.89027 12.7512 4.57419 12.9494C4.53656 12.972 4.53405 12.9795 4.53907 12.9871C4.54409 12.9921 4.56415 12.9921 4.59426 12.9795ZM6.51084 11.9711C6.51335 12.0112 6.51586 12.0539 6.51837 12.094L6.50081 12.0589C6.4406 11.956 6.31768 12.0288 6.3227 12.104C6.32521 12.1492 6.32772 12.1968 6.33022 12.242C6.25747 12.0664 6.12452 12.1592 6.12703 12.237C6.12953 12.2821 6.13204 12.3298 6.13455 12.375C6.0618 12.1994 5.92634 12.2897 5.92884 12.3699C5.93135 12.4151 5.93386 12.4628 5.93637 12.5079C5.86362 12.3323 5.72816 12.4226 5.73066 12.5029C5.73317 12.5481 5.73568 12.5932 5.73568 12.6409C5.66293 12.4653 5.52747 12.5556 5.52997 12.6333C5.53248 12.6785 5.53499 12.7237 5.53499 12.7713C5.46475 12.5982 5.32678 12.6835 5.32928 12.7638C5.33179 12.8089 5.33179 12.8541 5.3343 12.8993C5.26155 12.7237 5.12609 12.8115 5.12609 12.8917C5.12859 12.9369 5.12859 12.982 5.1311 13.0272C5.05835 12.8541 4.92289 12.9394 4.92289 13.0172C4.9254 13.0548 4.9254 13.0924 4.9279 13.1301C4.90533 13.1125 4.88526 13.0949 4.86268 13.0774C4.7799 13.0096 4.62938 13.1025 4.71467 13.2103C4.76986 13.2806 4.85766 13.3659 4.92289 13.416C5.02072 13.4913 5.17124 13.416 5.15619 13.2831C5.15368 13.258 5.15117 13.2429 5.14866 13.2179C5.2164 13.3307 5.37193 13.2756 5.36942 13.1802C5.36691 13.1501 5.3619 13.1175 5.35939 13.0874C5.43715 13.2153 5.57513 13.1401 5.57262 13.0523L5.56259 12.957C5.63784 13.0824 5.78334 13.0071 5.77331 12.9218C5.7708 12.8892 5.76578 12.8591 5.76328 12.8265C5.83853 12.9544 5.97651 12.8767 5.974 12.7914L5.96146 12.6961C6.03672 12.824 6.17469 12.7462 6.17218 12.6584C6.16716 12.6258 6.16465 12.5957 6.15964 12.5631C6.2374 12.691 6.37287 12.6108 6.36785 12.5255C6.36284 12.4929 6.36033 12.4628 6.35531 12.4301C6.43057 12.5581 6.56603 12.4778 6.56353 12.39L6.55851 12.3474C6.556 12.3323 6.556 12.3198 6.55349 12.3047C6.61621 12.4101 6.75418 12.3449 6.75167 12.2545C6.75167 12.1592 6.7291 11.9911 6.70652 11.9284C6.67391 11.8281 6.50583 11.8707 6.51084 11.9711Z" fill="#FFB81C"/>
<path d="M8.57522 10.2802C6.37515 8.63957 3.81636 6.49721 2.25098 4.6333C2.27606 4.92681 2.49682 5.54142 3.00858 6.10335C4.36575 7.58595 6.34254 9.21405 8.14875 10.5938C7.80758 10.8421 7.47895 11.078 7.16788 11.2962C7.15533 11.3664 7.16788 11.5295 7.18293 11.6023C7.20802 11.6725 7.28829 11.7854 7.34348 11.8305C7.73232 11.5471 8.14624 11.241 8.57522 10.9174C9.00168 11.241 9.41811 11.5471 9.80695 11.8305C9.86465 11.7854 9.94242 11.6725 9.9675 11.6023C9.98004 11.5295 9.99259 11.369 9.98255 11.2962C9.67148 11.078 9.34285 10.8421 9.00168 10.5938C10.8079 9.21405 12.7847 7.58595 14.1419 6.10335C14.6561 5.54142 14.8769 4.92681 14.8995 4.6333C13.3341 6.49972 10.7753 8.63957 8.57522 10.2802Z" fill="white"/>
<path d="M4.56381 5.59417C4.64158 5.5716 4.69927 5.51641 4.69927 5.44366C4.69927 5.39098 4.66164 5.34331 4.62402 5.32324C4.60896 5.44366 4.56632 5.53648 4.47852 5.57661C4.49357 5.58163 4.52618 5.59166 4.56381 5.59417Z" fill="#C8102E"/>
<path d="M14.2973 14.2236C14.0866 14.2236 13.916 14.3942 13.916 14.6049C13.916 14.8157 14.0866 14.9863 14.2973 14.9863C14.508 14.9863 14.6786 14.8157 14.6786 14.6049C14.6761 14.3942 14.5055 14.2236 14.2973 14.2236ZM14.2973 14.9035C14.1318 14.9035 13.9988 14.7705 13.9988 14.6049C13.9988 14.4394 14.1318 14.3064 14.2973 14.3064C14.4629 14.3064 14.5959 14.4394 14.5959 14.6049C14.5959 14.7705 14.4629 14.9035 14.2973 14.9035ZM14.4529 14.5171C14.4529 14.4444 14.3952 14.3867 14.3249 14.3867H14.1418V14.8232H14.2246V14.6476H14.2823L14.3651 14.8232H14.4554L14.3701 14.6401C14.4177 14.62 14.4529 14.5723 14.4529 14.5171ZM14.3224 14.5648H14.2196V14.4695H14.3224C14.3475 14.4695 14.3701 14.4895 14.3701 14.5171C14.3701 14.5422 14.35 14.5648 14.3224 14.5648Z" fill="#003087"/>
</g>
<defs>
<clipPath id="clip0_2_7407">
<rect width="16" height="16" fill="white" transform="translate(0.575195)"/>
</clipPath>
</defs>
</svg>
