<svg width="16" height="16" viewBox="0 0 16 16" fill="none" xmlns="http://www.w3.org/2000/svg">
<g clip-path="url(#clip0_764_580)">
<path d="M14.4093 15.1205C13.1976 15.8045 11.1187 16 8.24309 16C5.36745 16 3.28861 15.8045 2.07688 15.1205C1.34959 14.7109 0.981445 14.1525 0.981445 13.7522C0.981445 13.5242 1.10274 13.3939 1.37285 13.3939H15.1131C15.3834 13.3939 15.5045 13.5242 15.5045 13.7522C15.5047 14.1525 15.1366 14.7109 14.4093 15.1205ZM15.1131 4.50956H1.37285C1.10274 4.50956 0.981445 4.36998 0.981445 4.11874C0.981445 2.62938 3.22335 0 8.24309 0C13.2163 0 15.5047 2.62938 15.5047 4.11874C15.5047 4.36998 15.3834 4.50956 15.1131 4.50956Z" fill="#FF8732"/>
<path fill-rule="evenodd" clip-rule="evenodd" d="M10.9139 6.99961C10.9139 7.67887 10.4525 8.14435 9.72069 8.14435C9.02615 8.14435 8.32237 7.65563 8.32263 6.60429C8.32263 5.50599 9.02641 5.03125 9.74895 5.03125C10.1591 5.03125 10.434 5.13815 10.6298 5.28249C10.7368 5.36639 10.8069 5.48727 10.8069 5.64559C10.8069 5.85961 10.639 6.06437 10.3919 6.06437C10.2944 6.06437 10.2307 6.03161 10.1612 5.99589C10.0779 5.95309 9.98639 5.90605 9.81873 5.90605C9.56713 5.90605 9.24075 6.09209 9.24075 6.60405C9.24075 7.06479 9.47833 7.31151 9.82797 7.31151C9.94003 7.31151 10.0378 7.25557 10.0378 7.17191C10.0378 7.10673 9.98179 7.07877 9.89325 7.07877C9.72069 7.07877 9.49235 6.95315 9.49235 6.69245C9.49235 6.39927 9.70667 6.26891 9.98179 6.26891H10.1308C10.6528 6.26891 10.9139 6.56683 10.9139 6.99961ZM3.86185 10.5272C3.86185 10.5457 3.86635 10.5877 3.90837 10.6529C4.02041 10.8249 4.32803 11.1973 4.58913 11.4817C4.79421 11.705 4.90151 11.8913 4.90151 12.1425C4.90151 12.5473 4.53787 12.9244 4.10445 12.9244C3.84809 12.9244 3.60575 12.7893 3.40991 12.5753C3.12079 12.2541 2.80867 11.7097 2.70138 11.4537C2.69855 11.4481 2.69572 11.4415 2.69269 11.4345C2.67585 11.3956 2.65274 11.3421 2.58958 11.3421C2.53356 11.3421 2.5103 11.3838 2.5103 11.4398V12.1005C2.5103 12.5568 2.23995 12.9244 1.7505 12.9244C1.2563 12.9244 0.990697 12.5565 0.990697 12.1005V9.23367C0.990697 8.77743 1.25655 8.40983 1.7505 8.40983C2.23995 8.40983 2.5103 8.77767 2.5103 9.23367V9.69917C2.5103 9.75959 2.53356 9.79681 2.58958 9.79681C2.6221 9.79681 2.64536 9.78757 2.68737 9.74561C2.85494 9.58255 3.11605 9.17299 3.33513 8.81937C3.49821 8.55417 3.74055 8.40983 3.99689 8.40983C4.39781 8.40983 4.76595 8.72647 4.76595 9.13129C4.76595 9.28937 4.70993 9.48015 4.57487 9.68967C4.39781 9.96413 4.07619 10.2666 3.94563 10.3877C3.88985 10.4389 3.86185 10.4761 3.86185 10.5272ZM1.52666 8.11641H2.18392C2.80392 8.11641 3.18133 7.70211 3.18133 7.18567C3.18133 6.78413 2.9492 6.59253 2.88413 6.53883L2.87845 6.53413L2.87755 6.53341C2.85459 6.51493 2.83193 6.49669 2.83193 6.47819C2.83193 6.46005 2.84048 6.45045 2.85531 6.43377C2.85946 6.42911 2.86412 6.42387 2.8692 6.41777C2.95773 6.31537 3.04627 6.15255 3.04627 5.91507C3.04627 5.35667 2.66862 5.05875 2.08138 5.05875H1.52666C1.15852 5.05875 0.981445 5.27301 0.981445 5.56145V7.61371C0.981445 7.90239 1.15852 8.11641 1.52666 8.11641ZM1.80177 5.85937C1.80177 5.79895 1.83904 5.75225 1.91832 5.75225H1.97884C2.17917 5.75225 2.23995 5.89183 2.23995 6.01295C2.23995 6.12459 2.17942 6.28291 1.97884 6.28291H1.91832C1.83904 6.28291 1.80177 6.23647 1.80177 6.17577V5.85937ZM1.80177 6.94843C1.80177 6.88799 1.83904 6.84131 1.91832 6.84131H2.0021C2.22594 6.84131 2.29097 6.99013 2.29097 7.12525C2.29097 7.24635 2.22569 7.41841 2.0021 7.41841H1.91832C1.83904 7.41841 1.80177 7.37197 1.80177 7.31129V6.94843ZM14.1577 7.63693C14.1577 7.91611 13.9946 8.13963 13.6963 8.13963C13.3979 8.13963 13.2348 7.91637 13.2348 7.63743V5.56169C13.2348 5.27301 13.4119 5.05899 13.78 5.05899H14.3067C14.8987 5.05899 15.3882 5.39413 15.3882 5.98523C15.3882 6.37605 15.2204 6.62279 15.0758 6.73441C15.0338 6.76687 15.0245 6.79959 15.0385 6.83679C15.0991 6.99963 15.1968 7.12997 15.3554 7.33001C15.4392 7.43689 15.5045 7.55327 15.5045 7.71159C15.5045 7.94909 15.2946 8.13987 15.0523 8.13987C14.9032 8.13987 14.7542 8.07469 14.5956 7.86517C14.4698 7.70211 14.358 7.38095 14.316 7.14371C14.3067 7.08777 14.2882 7.05531 14.2322 7.05531C14.1857 7.05531 14.1577 7.08329 14.1577 7.14371V7.63693ZM14.223 5.83139C14.1437 5.83139 14.1064 5.87809 14.1064 5.93853V6.25493C14.1064 6.31561 14.1437 6.36207 14.223 6.36207H14.2882C14.4841 6.36207 14.5446 6.20849 14.5446 6.09211C14.5446 5.97099 14.4841 5.83139 14.2882 5.83139H14.223ZM6.03371 8.40959C5.51175 8.40959 5.22739 8.80041 5.22739 9.28911V12.0443C5.22739 12.5331 5.51175 12.9239 6.03371 12.9239C6.55567 12.9239 6.84003 12.5331 6.84003 12.0443V9.28911C6.84003 8.80065 6.55591 8.40959 6.03371 8.40959ZM14.0924 10.2014H14.3208C15.1086 10.2014 15.5 10.6342 15.4997 11.2575C15.4997 12.2441 14.8052 12.9189 13.71 12.9189C12.6658 12.9189 11.6079 12.2069 11.6079 10.6851C11.6079 9.09333 12.6661 8.40933 13.752 8.40933C14.358 8.40933 14.7867 8.56291 15.071 8.77243C15.2341 8.89355 15.3367 9.07037 15.3367 9.29837C15.3367 9.60553 15.0851 9.90795 14.7122 9.90795C14.5658 9.90795 14.4706 9.85977 14.3669 9.80723C14.2426 9.74433 14.106 9.67521 13.8546 9.67521C13.4772 9.67521 12.9877 9.94515 12.9877 10.6851C12.9877 11.3506 13.3466 11.709 13.8733 11.709C14.0319 11.709 14.1809 11.6301 14.1809 11.509C14.1809 11.4113 14.0924 11.3741 13.9666 11.3741C13.7103 11.3741 13.3654 11.1925 13.3654 10.8109C13.3654 10.3922 13.6822 10.2014 14.0924 10.2014ZM12.5591 8.11637C12.8202 8.11637 13.0252 7.96279 13.0252 7.68359C13.0252 7.40889 12.8202 7.25531 12.5591 7.25531H12.1396C12.0604 7.25531 12.0231 7.20887 12.0231 7.14817V7.05977C12.0231 6.99935 12.0604 6.95265 12.1396 6.95265H12.4613C12.6851 6.95265 12.8622 6.81779 12.8622 6.58029C12.8622 6.34305 12.6851 6.20795 12.4613 6.20795H12.1396C12.0604 6.20795 12.0231 6.16151 12.0231 6.10083V6.02641C12.0231 5.96597 12.0604 5.91927 12.1396 5.91927H12.5591C12.8202 5.91927 13.0252 5.76569 13.0252 5.48649C13.0252 5.21179 12.8202 5.05821 12.5591 5.05821H11.6782C11.3101 5.05821 11.133 5.27223 11.133 5.56091V7.61317C11.133 7.90161 11.3101 8.11587 11.6782 8.11587H12.5591V8.11637ZM5.70759 7.12045C5.70759 7.68809 5.30667 8.13959 4.55163 8.13959C3.79657 8.13959 3.40041 7.68833 3.40017 7.12045V5.55217C3.40017 5.27297 3.56323 5.04947 3.86159 5.04947C4.15997 5.04947 4.32779 5.27297 4.32779 5.55217V7.06927C4.32779 7.18089 4.38381 7.31125 4.55163 7.31125C4.71943 7.31125 4.78471 7.18089 4.78471 7.06927V5.55217C4.78471 5.27297 4.94777 5.04947 5.24615 5.04947C5.54451 5.04947 5.70759 5.27297 5.70759 5.55217V7.12045ZM7.82367 8.13963C8.06601 8.13963 8.27585 7.94883 8.27585 7.71135C8.27585 7.55303 8.21057 7.43665 8.12679 7.32977L8.10429 7.30035C7.97837 7.13577 7.86705 6.99027 7.80991 6.83655C7.79591 6.79935 7.80517 6.76663 7.84719 6.73417C7.99173 6.62253 8.15955 6.37581 8.15955 5.98499C8.15955 5.39389 7.67011 5.05875 7.07813 5.05875H6.55117C6.18301 5.05875 6.00595 5.27277 6.00595 5.56145V7.63717C6.00595 7.91637 6.16901 8.13987 6.46739 8.13987C6.76575 8.13987 6.92881 7.91637 6.92881 7.63717V7.14397C6.92881 7.08353 6.95683 7.05557 7.00335 7.05557C7.05937 7.05557 7.07787 7.08803 7.08713 7.14397C7.12915 7.38121 7.24095 7.70235 7.36675 7.86543C7.52531 8.07445 7.67437 8.13963 7.82367 8.13963ZM7.05911 6.36183H6.99385C6.91457 6.36183 6.87729 6.31537 6.87729 6.25469V5.93853C6.87729 5.87811 6.91457 5.83141 6.99385 5.83141H7.05911C7.25495 5.83141 7.31547 5.97101 7.31547 6.09211C7.31547 6.20825 7.25495 6.36183 7.05911 6.36183ZM9.76245 9.21945C9.76245 8.76793 10.0233 8.40959 10.5035 8.40959C10.9837 8.40959 11.2445 8.76793 11.2445 9.21945V12.0958C11.2445 12.5566 10.9742 12.9241 10.4847 12.9241C10.2004 12.9241 9.93477 12.8125 9.68767 12.333L9.03991 11.0764C9.00739 11.0112 8.97939 10.988 8.94213 10.988C8.89085 10.988 8.86285 11.0255 8.86285 11.1091V12.1143C8.86285 12.5658 8.60199 12.9241 8.12179 12.9241C7.64185 12.9241 7.38075 12.5658 7.38075 12.1143V9.23793C7.38075 8.77717 7.65111 8.40959 8.14055 8.40959C8.43417 8.40959 8.69053 8.52121 8.93761 9.00069L9.58537 10.2573C9.61789 10.3225 9.64591 10.3457 9.68317 10.3457C9.73443 10.3457 9.76245 10.3082 9.76245 10.2246V9.21945Z" fill="#D62300"/>
</g>
<defs>
<clipPath id="clip0_764_580">
<rect width="14.6" height="16" fill="white" transform="translate(0.981445)"/>
</clipPath>
</defs>
</svg>
