<svg width="59" height="64" viewBox="0 0 59 64" fill="none" xmlns="http://www.w3.org/2000/svg">
<g clip-path="url(#clip0_764_580)">
<path d="M54.0097 60.4818C49.1628 63.2178 40.8475 64 29.3449 64C17.8423 64 9.52698 63.2178 4.68008 60.4818C1.77092 58.8437 0.29834 56.6101 0.29834 55.0088C0.29834 54.0968 0.783533 53.5754 1.86396 53.5754H56.8248C57.9063 53.5754 58.3905 54.0968 58.3905 55.0088C58.3915 56.6101 56.9189 58.8437 54.0097 60.4818ZM56.8248 18.0382H1.86396C0.783533 18.0382 0.29834 17.4799 0.29834 16.475C0.29834 10.5175 9.26594 0 29.3449 0C49.2379 0 58.3915 10.5175 58.3915 16.475C58.3915 17.4799 57.9063 18.0382 56.8248 18.0382Z" fill="#FF8732"/>
<path fill-rule="evenodd" clip-rule="evenodd" d="M40.0282 27.9984C40.0282 30.7155 38.1824 32.5774 35.2553 32.5774C32.4771 32.5774 29.662 30.6225 29.6631 26.4171C29.6631 22.0239 32.4782 20.125 35.3683 20.125C37.009 20.125 38.1084 20.5526 38.8917 21.1299C39.3199 21.4655 39.6 21.949 39.6 22.5823C39.6 23.4384 38.9287 24.2574 37.9403 24.2574C37.5503 24.2574 37.2952 24.1264 37.0172 23.9835C36.6842 23.8123 36.3181 23.6242 35.6475 23.6242C34.6411 23.6242 33.3355 24.3683 33.3355 26.4162C33.3355 28.2591 34.2859 29.246 35.6844 29.246C36.1327 29.246 36.5238 29.0223 36.5238 28.6876C36.5238 28.4269 36.2997 28.315 35.9455 28.315C35.2553 28.315 34.3419 27.8126 34.3419 26.7698C34.3419 25.597 35.1992 25.0756 36.2997 25.0756H36.8959C38.9838 25.0756 40.0282 26.2673 40.0282 27.9984ZM11.8199 42.109C11.8199 42.1829 11.8379 42.3507 12.006 42.6115C12.4542 43.2997 13.6847 44.789 14.7291 45.9268C15.5494 46.8199 15.9786 47.565 15.9786 48.5699C15.9786 50.1891 14.524 51.6975 12.7903 51.6975C11.7649 51.6975 10.7955 51.1571 10.0122 50.3011C8.8557 49.0164 7.60724 46.8388 7.17807 45.815C7.16677 45.7922 7.15545 45.7661 7.14332 45.738C7.07595 45.5822 6.98352 45.3684 6.73089 45.3684C6.5068 45.3684 6.41376 45.5353 6.41376 45.759V48.4021C6.41376 50.2271 5.33234 51.6975 3.37456 51.6975C1.39777 51.6975 0.335345 50.2261 0.335345 48.4021V36.9347C0.335345 35.1097 1.39877 33.6393 3.37456 33.6393C5.33234 33.6393 6.41376 35.1107 6.41376 36.9347V38.7966C6.41376 39.0383 6.5068 39.1872 6.73089 39.1872C6.86095 39.1872 6.95398 39.1502 7.12205 38.9824C7.79232 38.3302 8.83674 36.6919 9.71306 35.2775C10.3654 34.2167 11.3347 33.6393 12.3601 33.6393C13.9638 33.6393 15.4363 34.9058 15.4363 36.5251C15.4363 37.1574 15.2123 37.9206 14.672 38.7586C13.9638 39.8565 12.6773 41.0662 12.1551 41.5506C11.9319 41.7554 11.8199 41.9042 11.8199 42.109ZM2.47921 32.4656H5.10825C7.58824 32.4656 9.09786 30.8084 9.09786 28.7426C9.09786 27.1365 8.16934 26.3701 7.90908 26.1553L7.88636 26.1365L7.88274 26.1336C7.79092 26.0597 7.70028 25.9867 7.70028 25.9127C7.70028 25.8402 7.73448 25.8018 7.7938 25.735C7.81039 25.7164 7.82902 25.6954 7.84935 25.671C8.20349 25.2614 8.55762 24.6102 8.55762 23.6602C8.55762 21.4266 7.04703 20.235 4.69809 20.235H2.47921C1.00662 20.235 0.29834 21.092 0.29834 22.2458V30.4548C0.29834 31.6095 1.00662 32.4656 2.47921 32.4656ZM3.57964 23.4374C3.57964 23.1958 3.72871 23.009 4.04584 23.009H4.28793C5.08925 23.009 5.33235 23.5673 5.33235 24.0518C5.33235 24.4983 5.09025 25.1316 4.28793 25.1316H4.04584C3.72871 25.1316 3.57964 24.9458 3.57964 24.703V23.4374ZM3.57964 27.7937C3.57964 27.5519 3.72871 27.3652 4.04584 27.3652H4.38096C5.27632 27.3652 5.53643 27.9605 5.53643 28.501C5.53643 28.9854 5.27532 29.6736 4.38096 29.6736H4.04584C3.72871 29.6736 3.57964 29.4878 3.57964 29.2451V27.7937ZM53.0033 30.5477C53.0033 31.6644 52.3511 32.5585 51.1576 32.5585C49.9641 32.5585 49.3119 31.6654 49.3119 30.5497V22.2467C49.3119 21.092 50.0201 20.2359 51.4927 20.2359H53.5995C55.9675 20.2359 57.9253 21.5765 57.9253 23.9409C57.9253 25.5042 57.254 26.4911 56.6758 26.9376C56.5077 27.0675 56.4707 27.1983 56.5267 27.3471C56.7688 27.9985 57.1599 28.5199 57.7943 29.32C58.1294 29.7475 58.3905 30.213 58.3905 30.8463C58.3905 31.7963 57.5511 32.5594 56.5818 32.5594C55.9855 32.5594 55.3893 32.2987 54.755 31.4607C54.2518 30.8084 53.8047 29.5238 53.6366 28.5748C53.5995 28.351 53.5255 28.2212 53.3015 28.2212C53.1154 28.2212 53.0033 28.3331 53.0033 28.5748V30.5477ZM53.2644 23.3255C52.9473 23.3255 52.7983 23.5123 52.7983 23.7541V25.0197C52.7983 25.2624 52.9473 25.4482 53.2644 25.4482H53.5255C54.3088 25.4482 54.551 24.8339 54.551 24.3684C54.551 23.8839 54.3088 23.3255 53.5255 23.3255H53.2644ZM20.5074 33.6383C18.4195 33.6383 17.2821 35.2016 17.2821 37.1564V48.1774C17.2821 50.1322 18.4195 51.6955 20.5074 51.6955C22.5952 51.6955 23.7327 50.1322 23.7327 48.1774V37.1564C23.7327 35.2026 22.5962 33.6383 20.5074 33.6383ZM52.7422 40.8055H53.6556C56.8068 40.8055 58.3725 42.5366 58.3715 45.0299C58.3715 48.9765 55.5934 51.6756 51.2126 51.6756C47.0359 51.6756 42.8043 48.8277 42.8043 42.7403C42.8043 36.3733 47.037 33.6373 51.3807 33.6373C53.8047 33.6373 55.5193 34.2516 56.6567 35.0897C57.3091 35.5742 57.7192 36.2814 57.7192 37.1934C57.7192 38.4221 56.7128 39.6318 55.2212 39.6318C54.6359 39.6318 54.2551 39.439 53.8401 39.2289C53.343 38.9773 52.7967 38.7008 51.7908 38.7008C50.2812 38.7008 48.3235 39.7806 48.3235 42.7403C48.3235 45.4024 49.7591 46.8358 51.8659 46.8358C52.5001 46.8358 53.0963 46.5203 53.0963 46.0358C53.0963 45.6452 52.7423 45.4963 52.239 45.4963C51.2136 45.4963 49.8341 44.7702 49.8341 43.2438C49.8341 41.5686 51.1015 40.8055 52.7422 40.8055ZM46.6088 32.4654C47.6532 32.4654 48.4735 31.8511 48.4735 30.7343C48.4735 29.6355 47.6532 29.0212 46.6088 29.0212H44.9311C44.614 29.0212 44.4649 28.8354 44.4649 28.5926V28.2391C44.4649 27.9974 44.614 27.8106 44.9311 27.8106H46.2176C47.113 27.8106 47.8213 27.2711 47.8213 26.3211C47.8213 25.3722 47.113 24.8318 46.2176 24.8318H44.9311C44.614 24.8318 44.4649 24.646 44.4649 24.4033V24.1056C44.4649 23.8638 44.614 23.677 44.9311 23.677H46.6088C47.6532 23.677 48.4735 23.0627 48.4735 21.9459C48.4735 20.8471 47.6532 20.2328 46.6088 20.2328H43.0854C41.6128 20.2328 40.9045 21.0889 40.9045 22.2436V30.4526C40.9045 31.6064 41.6128 32.4634 43.0854 32.4634H46.6088V32.4654ZM19.2029 28.4818C19.2029 30.7523 17.5992 32.5583 14.5791 32.5583C11.5588 32.5583 9.97418 30.7533 9.97322 28.4818V22.2086C9.97322 21.0918 10.6255 20.1978 11.8189 20.1978C13.0124 20.1978 13.6837 21.0918 13.6837 22.2086V28.277C13.6837 28.7235 13.9078 29.245 14.5791 29.245C15.2503 29.245 15.5114 28.7235 15.5114 28.277V22.2086C15.5114 21.0918 16.1636 20.1978 17.3571 20.1978C18.5506 20.1978 19.2029 21.0918 19.2029 22.2086V28.4818ZM27.6672 32.5585C28.6366 32.5585 29.4759 31.7953 29.4759 30.8454C29.4759 30.2121 29.2148 29.7466 28.8797 29.319L28.7897 29.2014C28.286 28.5431 27.8407 27.9611 27.6122 27.3462C27.5562 27.1974 27.5932 27.0665 27.7613 26.9366C28.3395 26.4901 29.0107 25.5032 29.0107 23.9399C29.0107 21.5755 27.053 20.235 24.6851 20.235H22.5772C21.1046 20.235 20.3963 21.091 20.3963 22.2458V30.5486C20.3963 31.6654 21.0486 32.5594 22.2421 32.5594C23.4355 32.5594 24.0878 31.6654 24.0878 30.5486V28.5758C24.0878 28.3341 24.1999 28.2223 24.3859 28.2223C24.61 28.2223 24.684 28.3521 24.7211 28.5758C24.8891 29.5248 25.3363 30.8094 25.8395 31.4617C26.4738 32.2978 27.07 32.5585 27.6672 32.5585ZM24.609 25.4473H24.3479C24.0308 25.4473 23.8817 25.2614 23.8817 25.0187V23.7541C23.8817 23.5124 24.0308 23.3256 24.3479 23.3256H24.609C25.3923 23.3256 25.6344 23.884 25.6344 24.3684C25.6344 24.833 25.3923 25.4473 24.609 25.4473ZM35.4223 36.8778C35.4223 35.0717 36.4658 33.6383 38.3865 33.6383C40.3073 33.6383 41.3507 35.0717 41.3507 36.8778V48.3831C41.3507 50.2262 40.2693 51.6966 38.3115 51.6966C37.174 51.6966 36.1116 51.25 35.1232 49.3321L32.5322 44.3056C32.4021 44.0449 32.2901 43.952 32.1411 43.952C31.9359 43.952 31.8239 44.1019 31.8239 44.4365V48.4571C31.8239 50.2631 30.7805 51.6966 28.8597 51.6966C26.9399 51.6966 25.8955 50.2631 25.8955 48.4571V36.9517C25.8955 35.1087 26.977 33.6383 28.9347 33.6383C30.1092 33.6383 31.1347 34.0848 32.123 36.0027L34.714 41.0292C34.8441 41.2899 34.9562 41.3828 35.1052 41.3828C35.3103 41.3828 35.4223 41.233 35.4223 40.8983V36.8778Z" fill="#D62300"/>
</g>
<defs>
<clipPath id="clip0_764_580">
<rect width="58.4" height="64" fill="white" transform="translate(0.29834)"/>
</clipPath>
</defs>
</svg>
