<svg width="121" height="64" viewBox="0 0 121 64" fill="none" xmlns="http://www.w3.org/2000/svg">
<g clip-path="url(#clip0_768_948)">
<g clip-path="url(#clip1_768_948)">
<path d="M27.9722 37.7832C26.1474 40.3997 23.1158 42.099 19.6883 42.099C14.1078 42.099 9.58934 37.5805 9.58934 32C9.58934 26.4195 14.1078 21.901 19.6883 21.901C21.6579 21.901 23.4923 22.461 25.0467 23.4361L19.698 32L29.739 26.2071C28.1266 23.7065 25.7322 21.7659 22.9034 20.7231C20.6634 19.9025 18.2401 19.4487 15.7105 19.4487C13.1809 19.4487 10.7672 19.9025 8.52731 20.7231C6.2198 21.5728 4.19229 23.0306 2.65717 24.894C1.05446 26.825 0.0986328 29.2966 0.0986328 32C0.0986328 34.7033 1.05446 37.175 2.64751 39.106C4.18263 40.9693 6.21015 42.4272 8.51765 43.2768C10.7576 44.0975 13.1809 44.5513 15.7009 44.5513C17.3132 44.5513 18.8773 44.3678 20.3835 44.0203C23.5116 43.2962 26.2826 41.6355 28.3873 39.3473L27.9625 37.7736L27.9722 37.7832Z" fill="#CC0000"/>
<path d="M70.3568 23.7355C69.8065 23.7355 69.2754 23.861 68.8024 24.083L62.9612 26.8057C62.6715 25.0678 61.1557 23.7355 59.3406 23.7355C58.7806 23.7355 58.2593 23.861 57.7862 24.083L50.6416 27.4139H55.6621V43.943H63.0095V29.2484C63.0095 28.2346 63.8301 27.4139 64.8439 27.4139C65.8576 27.4139 66.6783 28.2346 66.6783 29.2484V43.943H74.0256V27.4043C74.0256 25.3768 72.3843 23.7258 70.3471 23.7258L70.3568 23.7355Z" fill="#CC0000"/>
<path d="M116.43 23.7355C115.88 23.7355 115.349 23.861 114.876 24.083L109.034 26.8057C108.745 25.0678 107.239 23.7355 105.414 23.7355C104.864 23.7355 104.333 23.861 103.859 24.083L96.7148 27.4139H101.735V43.943H109.083V29.2484C109.083 28.2346 109.903 27.4139 110.917 27.4139C111.931 27.4139 112.752 28.2346 112.752 29.2484V43.943H120.099V27.4043C120.099 25.3768 118.458 23.7258 116.42 23.7258L116.43 23.7355Z" fill="#CC0000"/>
<path d="M87.4939 23.7354C81.7492 23.7354 77.0859 28.3987 77.0859 34.1434C77.0859 39.888 81.7492 44.5513 87.4939 44.5513C93.2385 44.5513 97.9018 39.888 97.9018 34.1434C97.9018 28.3987 93.2385 23.7354 87.4939 23.7354ZM89.8689 43.0162C88.6428 43.3444 87.3877 42.6203 87.0594 41.3941L83.4967 28.0898C83.1685 26.8636 83.8926 25.6085 85.1188 25.2802C86.3449 24.952 87.6001 25.6761 87.9283 26.9022L91.491 40.2066C91.8192 41.4328 91.0951 42.6879 89.8689 43.0162Z" fill="#CC0000"/>
<path d="M43.8734 37.8122C43.8734 39.8397 42.2321 41.4907 40.1949 41.4907C38.1577 41.4907 36.5164 39.8494 36.5164 37.8122C36.5164 35.775 38.1577 34.1337 40.1949 34.1337C42.2224 34.1337 43.8734 35.775 43.8734 37.8122ZM45.7561 43.9334H53.1034L48.8746 28.1574C48.1891 25.6085 45.8719 23.7354 43.1106 23.7354C42.3962 23.7354 41.701 23.861 41.0638 24.0927L31.9593 27.4043H41.3245L42.9272 33.3806C41.3728 32.0386 39.3453 31.2276 37.1343 31.2276C35.4833 31.2276 33.9385 31.6524 32.5869 32.3862C31.5345 32.9655 30.6462 33.8054 30.0187 34.8289C29.4877 35.6978 29.1787 36.7115 29.1787 37.8025C29.1787 38.8935 29.4877 39.917 30.0187 40.7762C30.6462 41.7996 31.5345 42.6396 32.5869 43.2189C33.9385 43.9623 35.493 44.3775 37.1343 44.3775C40.3011 44.3775 43.101 42.8327 44.8195 40.448L45.7464 43.9141L45.7561 43.9334Z" fill="#CC0000"/>
</g>
</g>
<defs>
<clipPath id="clip0_768_948">
<rect width="120" height="64" fill="white" transform="translate(0.0986328)"/>
</clipPath>
<clipPath id="clip1_768_948">
<rect width="120" height="25.1026" fill="white" transform="translate(0.0986328 19.4487)"/>
</clipPath>
</defs>
</svg>
