<svg width="30" height="16" viewBox="0 0 30 16" fill="none" xmlns="http://www.w3.org/2000/svg">
<g clip-path="url(#clip0_879_4047)">
<path d="M22.8336 7.86293C22.8336 7.86293 23.1823 7.09545 23.0251 6.15414C23.0251 6.15414 22.3628 5.91 21.1596 6.15414C21.1596 6.15414 20.5839 7.44385 19.8511 8.0717C19.8511 8.0717 20.4098 6.76387 20.0777 5.78787C20.0777 5.78787 21.0893 5.3869 22.3283 5.47397C23.5663 5.56104 23.8448 5.82299 23.8448 5.82299C23.8448 5.82299 23.5312 7.3049 22.8335 7.86293H22.8336ZM22.0342 10.5647C22.6098 10.144 22.5485 9.31948 22.5485 9.31948C22.688 9.64596 22.7661 10.0822 22.688 10.3939C22.6099 10.7048 22.408 11.0164 21.5669 11.0936C20.726 11.172 20.2433 10.9069 20.2433 10.9069C20.6176 10.5337 20.9806 9.52187 20.9806 9.52187C21.1678 10.2387 21.0087 10.5703 21.0087 10.5703C21.4136 10.6944 22.0342 10.5647 22.0342 10.5647H22.0342ZM23.3587 10.4286C23.5614 11.9081 22.2456 12.5292 21.5144 12.5292C20.7829 12.5292 19.7775 12.2186 19.3938 10.9764C19.0102 9.73371 19.0102 8.19881 19.5035 7.44963C19.5035 7.44963 19.175 8.92963 19.3575 9.77049C19.5401 10.6109 19.8874 11.3235 20.5635 11.4518C21.24 11.5793 22.2456 11.5429 22.6107 11.1222C22.9768 10.7019 23.1227 10.0991 22.7574 9.2765C22.3914 8.4548 21.6605 7.39449 22.8681 6.33546C22.8681 6.33546 22.3371 6.97436 22.5381 7.90677C22.7388 8.83833 23.1554 8.9494 23.3587 10.4286ZM18.6351 4.30915C15.8809 3.93029 13.6217 4.49281 13.6217 4.49281C15.8403 3.77795 17.8574 3.86729 18.8518 3.98119C18.7588 4.09528 18.6872 4.20507 18.635 4.30915H18.6351ZM18.5059 4.99404C15.814 4.80762 13.6794 5.46734 13.6794 5.46734C15.6203 4.72098 17.4369 4.62261 18.516 4.65264C18.4914 4.78226 18.4926 4.89782 18.5059 4.99404ZM13.9719 8.88579C12.9442 7.62542 13.3768 5.94113 13.3768 5.94113C13.3768 5.94113 13.4154 7.38583 14.6763 8.6621C15.9377 9.93886 17.5031 10.2843 17.5031 10.2843C17.5031 10.2843 14.9997 10.147 13.9718 8.88579H13.9719ZM19.5026 3.39933C19.361 3.49764 19.2391 3.59404 19.1328 3.6894C16.1854 2.99327 13.6076 3.48659 13.6076 3.48659C16.7995 2.64954 19.5026 3.39933 19.5026 3.39933ZM17.204 1.857L17.2047 1.85639L17.2055 1.85596C17.2498 1.83705 18.1469 1.46224 19.0628 1.6704C20.0023 1.88427 20.5852 2.52084 20.5852 2.52084C20.5852 2.52084 19.7415 2.26798 18.178 2.29585C18.178 2.29585 18.1164 2.18201 18.2774 1.94364C18.2774 1.94364 18.0268 1.87045 17.2037 1.857H17.2039H17.204ZM24.1224 2.11748C24.6031 2.02083 25.0419 2.26791 25.248 2.46011C25.248 2.46011 24.1365 2.25453 23.6155 2.73446C23.6155 2.73446 23.643 2.21302 24.1224 2.11748ZM29.4198 5.7832C28.3337 5.1909 27.1018 5.00681 26.1568 4.96997C26.1568 4.96997 25.7723 4.97697 25.713 4.97531C25.7324 4.81806 25.7274 4.67714 25.7025 4.55261C25.9371 4.54561 26.2341 4.53622 26.2776 4.53407L26.3133 4.53192C28.207 4.46996 29.2082 4.97034 29.2082 4.97034L29.1122 4.89733C28.1899 4.46996 27.214 4.31357 26.3699 4.28968H26.3361C26.3361 4.28968 25.9284 4.28907 25.6182 4.29478C25.5333 4.11561 25.4091 3.98046 25.284 3.88166C25.6827 3.87932 26.1447 3.88061 26.4108 3.89253L26.4302 3.89314C27.8872 3.90849 28.682 4.25364 28.682 4.25364L28.5864 4.17848C27.8636 3.87011 27.1251 3.73048 26.4328 3.68431C26.4328 3.68431 25.5301 3.63598 24.8342 3.64004C25.0358 3.79262 25.19 4.01226 25.2048 4.32788C25.2521 5.30008 24.2479 5.69189 24.2479 5.69189C24.4838 5.53482 24.907 5.00233 24.7976 4.31191C24.6873 3.62235 23.7935 3.29458 23.7935 3.29458C23.7935 3.29458 22.7467 3.74811 22.5196 4.60198C22.5196 4.60198 22.5373 3.71323 21.0545 3.13751C21.0545 3.13751 21.7521 2.92849 22.5025 2.98044C23.2523 3.03325 23.7935 3.29458 23.7935 3.29458C23.7935 3.29458 23.9317 2.92917 24.6674 2.80421C25.4038 2.67926 26.1998 2.85935 26.1998 2.85935C26.0529 2.5912 25.8837 2.2 25.1434 1.89778C24.4038 1.59555 23.7402 1.86904 23.7402 1.86904C23.7402 1.86904 23.6921 1.51192 23.1544 1.16413C22.2805 0.599094 19.9693 0.262357 19.5236 0.238103C19.0786 0.214708 19.8578 0.5014 20.1699 0.679531C20.5248 0.881487 20.9218 1.22479 20.9559 1.55066C20.9646 1.63835 20.944 1.71455 20.9048 1.77816C20.8733 1.6871 20.8076 1.57068 20.6919 1.42208C20.0588 0.609286 18.4532 0.25769 17.248 0.337944C16.043 0.418383 15.0854 0.874057 15.0854 0.874057C15.0993 0.985382 14.6411 1.37376 13.3774 1.51321C12.1733 1.64516 11.3234 1.42509 11.0177 1.37978L10.9945 1.37529C10.8706 1.35994 10.7776 1.36553 10.7386 1.45469L10.7346 1.46703L10.732 1.48361C10.7267 1.54575 10.7648 1.63153 10.7648 1.63153L10.7471 1.5977C10.8329 1.7622 11.3451 2.70634 12.0202 3.19093C12.0202 3.19093 12.4236 3.1054 12.9022 3.05388C12.9022 3.05388 5.50546 6.65279 2.50879 12.2757C3.81447 12.1224 5.53248 12.0237 7.39742 12.188L7.38483 12.1867H7.38379C7.6531 11.7338 9.00453 9.20478 12.2184 7.65097C12.2184 7.65097 9.84208 9.30254 8.99753 12.3928C10.072 12.575 11.1694 12.8576 12.2441 13.2758C15.6983 14.6215 18.61 16.0285 21.8924 15.9996L22.4503 15.9751L22.4493 15.9725C21.5773 14.1556 20.7189 13.3251 20.7189 13.3251C21.368 13.4416 21.8924 13.2566 21.902 13.2534C21.9507 13.2357 21.9928 13.2183 22.0282 13.2021C23.1018 12.6235 23.2808 11.644 23.369 10.9424C23.4699 10.1311 23.326 9.61219 23.326 9.61219C23.326 9.61219 25.1846 7.17319 25.6563 5.25476C25.6563 5.25476 25.8943 5.22222 26.0774 5.22602C28.2921 5.25095 29.5025 5.86622 29.5025 5.86622L29.4199 5.78302L29.4198 5.7832ZM27.0231 1.63221C27.0299 1.61667 27.0352 1.60218 27.0395 1.58793L27.0492 1.55238L27.049 1.55066C27.0062 1.42872 26.9215 1.41975 26.7423 1.43381C26.4815 1.48343 26.2405 1.51511 26.0373 1.53513H26.0378L26.0046 1.53875L25.9809 1.5409L25.893 1.549L25.8804 1.54943C25.6189 1.57093 25.4533 1.57197 25.4533 1.57197C26.1216 2.0772 26.1998 2.8596 26.1998 2.8596L26.234 2.83043C26.7469 2.4582 27.023 1.63221 27.023 1.63221H27.0231Z" fill="black"/>
<path d="M20.0776 5.78791C20.4098 6.76392 19.8511 8.07175 19.8511 8.07175C20.5839 7.4439 21.1596 6.15419 21.1596 6.15419C22.3628 5.91005 23.0251 6.15419 23.0251 6.15419C23.1823 7.0955 22.8336 7.86298 22.8336 7.86298C23.5312 7.30495 23.8448 5.82304 23.8448 5.82304C23.8448 5.82304 23.5663 5.56103 22.3284 5.47402C21.0893 5.38695 20.0777 5.78791 20.0777 5.78791H20.0776ZM24.1224 2.11753C23.643 2.21307 23.6155 2.73451 23.6155 2.73451C24.1365 2.25458 25.248 2.46016 25.248 2.46016C25.0419 2.26796 24.6031 2.02088 24.1224 2.11753ZM22.0341 10.5649C22.0341 10.5649 21.4135 10.6945 21.0086 10.5704C21.0086 10.5704 21.1677 10.2388 20.9805 9.52198C20.9805 9.52198 20.6176 10.5338 20.2433 10.9071C20.2433 10.9071 20.7259 11.172 21.5668 11.0937C22.408 11.0165 22.6097 10.7049 22.6879 10.394C22.766 10.0824 22.6879 9.64608 22.5485 9.31959C22.5485 9.31959 22.6098 10.1441 22.0341 10.5649H22.0341ZM19.0628 1.67039C18.147 1.46223 17.2498 1.83704 17.2056 1.85595C17.249 1.8374 18.1057 1.47985 18.999 1.65694C18.4914 1.56072 18.2775 1.94363 18.2775 1.94363C18.1165 2.182 18.1781 2.29584 18.1781 2.29584C19.7415 2.26797 20.5853 2.52082 20.5853 2.52082C20.5853 2.52082 20.0023 1.88425 19.0628 1.67039Z" fill="#BFC0BF"/>
<path d="M25.6562 5.25501C25.1844 7.17343 23.3259 9.61244 23.3259 9.61244L23.3267 9.61158C24.7314 8.4136 25.6677 6.29469 26.0773 5.22627C25.8942 5.22246 25.6562 5.25501 25.6562 5.25501ZM25.7128 4.97538C25.7722 4.9771 26.1567 4.97003 26.1567 4.97003C26.1923 4.85042 26.2357 4.69802 26.2774 4.53419C26.234 4.53634 25.937 4.54567 25.7024 4.55274C25.7273 4.67726 25.7322 4.81806 25.7128 4.97538ZM22.538 7.90684C22.337 6.97443 22.8679 6.33552 22.8679 6.33552C21.6604 7.39455 22.3913 8.45486 22.7572 9.27656C23.1226 10.0991 22.9767 10.7019 22.6105 11.1222C22.2454 11.543 21.2399 11.5794 20.5633 11.4519C19.8872 11.3236 19.54 10.611 19.3573 9.77055C19.1749 8.92969 19.5033 7.44969 19.5033 7.44969C19.0101 8.19881 19.0101 9.73377 19.3937 10.9765C19.7773 12.2187 20.7828 12.5292 21.5143 12.5292C22.2454 12.5292 23.5612 11.9082 23.3586 10.4286C23.1553 8.94947 22.7387 8.83839 22.538 7.90684ZM27.061 1.45432L27.0585 1.43025L27.0566 1.41791L27.05 1.39703L27.0459 1.38616L27.0372 1.36805L27.0326 1.35933L27.0211 1.34318L27.0147 1.33618L27.0021 1.32298L26.9955 1.31702L26.9809 1.30597L26.9739 1.30106L26.9587 1.29277L26.9518 1.28871L26.9364 1.2819L26.9298 1.27871L26.9153 1.27361L26.909 1.27171L26.8949 1.2679L26.8902 1.26643L26.8773 1.26409L26.8735 1.26323L26.8635 1.26194L26.8611 1.26133L26.8498 1.26004C25.9267 1.27005 25.1688 0.956952 25.1688 0.956952L25.1067 0.934601C23.0547 0.183945 20.9249 -0.0309675 19.0286 0.00347983L19.028 0.00157643C18.1811 0.00943607 17.5629 0.0786375 17.5629 0.0786375C14.8402 0.308716 12.8884 0.961004 12.8884 0.961004C12.8884 0.961004 12.1473 1.16959 11.1608 1.12041C11.1608 1.12041 10.7944 1.11402 10.722 1.34729C10.66 1.49583 10.6515 1.67249 10.7909 2.0592C10.9519 2.5053 11.5957 3.34383 11.6005 3.35003C9.65318 4.1409 4.58187 6.98449 0.0385742 12.7023C0.0385742 12.7023 0.998739 12.4529 2.50877 12.2761C5.50544 6.65316 12.9022 3.05425 12.9022 3.05425C12.4236 3.10576 12.0202 3.1913 12.0202 3.1913C11.3451 2.7067 10.8329 1.76256 10.7471 1.59806L10.7648 1.6319C10.7648 1.6319 10.7266 1.54612 10.732 1.48398L10.7346 1.4674L10.7386 1.45506C10.7775 1.3659 10.8706 1.36037 10.9945 1.37566L11.0177 1.38014C11.3234 1.42546 12.1732 1.64553 13.3774 1.51357C14.6411 1.37419 15.0992 0.985751 15.0854 0.874426C15.0854 0.874426 16.043 0.418751 17.248 0.338313C18.4531 0.258059 20.0588 0.609654 20.6919 1.42245C20.8075 1.57099 20.8733 1.68741 20.9048 1.77853C20.944 1.71492 20.9646 1.63871 20.9559 1.55103C20.9218 1.22516 20.5248 0.881917 20.1699 0.6799C19.8578 0.501769 19.0786 0.215076 19.5235 0.238471C19.9693 0.262725 22.2805 0.5994 23.1544 1.1645C23.6922 1.51228 23.7402 1.86941 23.7402 1.86941C23.7402 1.86941 24.4038 1.59592 25.1434 1.89814C25.8836 2.20037 26.0529 2.59151 26.1998 2.85972C26.1998 2.85972 26.1217 2.07738 25.4534 1.57209C25.4534 1.57209 25.619 1.57105 25.8804 1.54956L25.893 1.54913L25.981 1.54102L26.0046 1.53887L26.0378 1.53525H26.0374C26.2405 1.51523 26.4815 1.48355 26.7423 1.43393C26.9215 1.41987 27.0063 1.42884 27.0491 1.55078L27.0493 1.5525L27.0395 1.58806C27.0353 1.6023 27.0299 1.61679 27.0231 1.63233C27.0231 1.63233 26.747 2.45833 26.2341 2.83055L26.1999 2.85972C26.1999 2.85972 25.4038 2.67969 24.6675 2.80458C23.9317 2.92954 23.7936 3.29495 23.7936 3.29495C23.7936 3.29495 24.6873 3.62272 24.7976 4.31228C24.907 5.0027 24.4838 5.53519 24.2479 5.69226C24.2479 5.69226 25.2521 5.30045 25.2049 4.32825C25.19 4.01263 25.0358 3.79299 24.8343 3.6404C25.5302 3.63635 26.4328 3.68468 26.4328 3.68468C26.4371 3.41542 26.3924 3.19369 26.2898 3.00169C26.8239 2.53815 27.0213 1.83201 27.0494 1.55361L27.0498 1.55318V1.55256C27.0524 1.54317 27.0572 1.51787 27.0581 1.51235L27.0596 1.49638C27.0609 1.48699 27.0613 1.47765 27.0613 1.46869V1.45444L27.061 1.45432ZM21.0543 3.13776C22.5371 3.71347 22.5195 4.60223 22.5195 4.60223C22.7466 3.74835 23.7934 3.29483 23.7934 3.29483C23.7934 3.29483 23.2523 3.03349 22.5024 2.98069C21.7519 2.92874 21.0543 3.13776 21.0543 3.13776ZM25.2838 3.88178C25.4091 3.98052 25.5331 4.11567 25.6181 4.2949C25.9283 4.28913 26.3359 4.28981 26.3359 4.28981C26.3653 4.15871 26.3913 4.02675 26.4092 3.90333L26.4107 3.89271C26.1445 3.8808 25.6825 3.87951 25.2838 3.88184V3.88178ZM21.9019 13.2536C21.8923 13.2568 21.3679 13.4417 20.7188 13.3253C20.7188 13.3253 21.5772 14.1558 22.4492 15.9727L22.4503 15.9752L22.4843 15.9731C22.4 15.145 22.0464 13.7582 21.9647 13.5017L21.9019 13.2536ZM14.6763 8.66204C13.4153 7.3857 13.3768 5.94107 13.3768 5.94107C13.3768 5.94107 12.9442 7.62536 13.9719 8.88573C14.9997 10.147 17.5031 10.2842 17.5031 10.2842C17.5031 10.2842 15.9377 9.9388 14.6763 8.66204H14.6763ZM7.38365 12.1869H7.38469L7.39728 12.1882C7.44432 12.1922 7.59482 12.2063 7.60317 12.2075C7.62362 12.2093 7.88206 12.2363 7.88439 12.2365C8.25122 12.2775 8.62271 12.329 8.99739 12.3929C9.84194 9.30266 12.2182 7.65109 12.2182 7.65109C9.00445 9.20497 7.65297 11.734 7.38365 12.1868V12.1869ZM13.6076 3.48653C13.6076 3.48653 16.1853 2.99321 19.1328 3.68934C19.239 3.59398 19.361 3.49758 19.5025 3.39927C19.5025 3.39927 16.7994 2.64948 13.6076 3.48653ZM13.6216 4.49274C13.6216 4.49274 15.8808 3.93023 18.635 4.30909C18.6872 4.20501 18.7587 4.09522 18.8518 3.98113C17.8574 3.86729 15.8401 3.77789 13.6216 4.49274ZM18.9988 1.65683C18.1055 1.47974 17.2488 1.83729 17.2054 1.85584L17.2046 1.85627L17.204 1.85688H17.2038C18.0268 1.87027 18.2774 1.94352 18.2774 1.94352C18.2774 1.94352 18.4913 1.56067 18.9989 1.65683H18.9988ZM13.6793 5.46728C13.6793 5.46728 15.814 4.8075 18.5058 4.99398C18.4926 4.89776 18.4913 4.7822 18.516 4.65258C17.4368 4.62255 15.6202 4.72092 13.6793 5.46728Z" fill="#0085CA"/>
</g>
<defs>
<clipPath id="clip0_879_4047">
<rect width="29.4638" height="16" fill="white" transform="translate(0.0385742)"/>
</clipPath>
</defs>
</svg>
