<svg width="18" height="16" viewBox="0 0 18 16" fill="none" xmlns="http://www.w3.org/2000/svg">
<g clip-path="url(#clip0_882_26052)">
<path d="M14.2028 12.9555L15.356 13.8203L13.2747 14.4871L12.671 12.1897C12.671 12.1897 13.1125 12.2439 13.4188 12.0185C13.7252 11.7934 14.7975 10.9556 14.7975 10.9556L14.2028 12.9555Z" fill="url(#paint0_linear_882_26052)"/>
<path d="M12.6709 12.1898C12.6709 12.1898 13.1124 12.2438 13.4188 12.0186C13.7251 11.7933 14.7973 10.9556 14.7973 10.9556L14.2026 12.9556L15.356 13.8203L13.2745 14.487L12.6709 12.1898Z" stroke="#79580B" stroke-width="0.061815" stroke-miterlimit="10"/>
<path d="M10.9861 12.2438L10.9772 13.397L12.563 13.4959L13.0585 12.6943C13.0585 12.6943 13.0765 12.5411 12.599 12.415C12.1215 12.2889 10.9861 12.2438 10.9861 12.2438Z" fill="#DBDBDB"/>
<path d="M10.9861 12.2438L10.9772 13.397L12.563 13.4959L13.0585 12.6943C13.0585 12.6943 13.0765 12.5411 12.599 12.415C12.1215 12.2889 10.9861 12.2438 10.9861 12.2438Z" stroke="#875D00" stroke-width="0.061815" stroke-miterlimit="10"/>
<path d="M3.38074 13.1235L2.22754 13.9882L4.30882 14.655L4.91245 12.3577C4.91245 12.3577 4.47097 12.4119 4.16469 12.1865C3.85825 11.9614 2.78604 11.1235 2.78604 11.1235L3.38074 13.1235Z" fill="url(#paint1_linear_882_26052)"/>
<path d="M4.91262 12.3577C4.91262 12.3577 4.47114 12.4118 4.16469 12.1865C3.85842 11.9613 2.78621 11.1236 2.78621 11.1236L3.38091 13.1235L2.22754 13.9883L4.30899 14.6549L4.91262 12.3577Z" stroke="#79580B" stroke-width="0.061815" stroke-miterlimit="10"/>
<path d="M6.59735 12.4118L6.60628 13.5649L5.02052 13.6639L4.52499 12.8623C4.52499 12.8623 4.50698 12.7091 4.98449 12.583C5.462 12.4569 6.59735 12.4118 6.59735 12.4118Z" fill="#DBDBDB"/>
<path d="M6.59735 12.4118L6.60628 13.5649L5.02052 13.6639L4.52499 12.8623C4.52499 12.8623 4.50698 12.7091 4.98449 12.583C5.462 12.4569 6.59735 12.4118 6.59735 12.4118Z" stroke="#875D00" stroke-width="0.061815" stroke-miterlimit="10"/>
<path d="M8.81639 15.9993C8.29204 16.0064 7.93666 15.9565 7.93666 15.9565L7.93455 15.9562L4.14111 15.1674L4.40818 13.6924L4.47357 12.6783L4.577 12.8259L4.75241 13.0763C4.77295 13.0814 5.32483 13.2178 5.9911 13.3702C6.66962 13.5255 7.4465 13.6921 7.82123 13.7362C8.57552 13.8251 9.71755 13.7535 9.71892 13.7534C10.8431 13.6413 11.6379 13.4056 12.165 13.2006C12.4286 13.0981 12.6251 13.0033 12.7635 12.9347C12.8327 12.9004 12.8872 12.8727 12.9299 12.8532C12.9513 12.8435 12.9696 12.8357 12.9871 12.83C13.0045 12.8243 13.0199 12.8182 13.0473 12.8227C13.0843 12.8289 13.1106 12.8558 13.1249 12.8806C13.1391 12.9055 13.1465 12.9317 13.1521 12.96C13.1632 13.0166 13.1655 13.0822 13.1647 13.147C13.1633 13.2666 13.151 13.3652 13.149 13.3821C13.1592 13.4044 13.3042 13.7203 13.4409 14.073C13.5117 14.2556 13.5787 14.4444 13.6207 14.6023C13.6417 14.6812 13.6566 14.7523 13.6621 14.8135C13.6677 14.8746 13.6691 14.9268 13.637 14.9751L13.6288 14.9874L13.6159 14.9948C13.2402 15.2109 12.5775 15.3885 11.8729 15.5396C11.1684 15.6907 10.4245 15.8122 9.90241 15.9021C9.50641 15.9704 9.131 15.9951 8.81639 15.9993Z" fill="#CF9800"/>
<path d="M8.52961 15.8711C8.88201 15.8799 9.3637 15.8665 9.88082 15.7774C10.404 15.6872 11.146 15.566 11.8463 15.4158C12.5351 15.2681 13.1825 15.0893 13.5321 14.8946C13.5335 14.8884 13.5398 14.868 13.5359 14.8249C13.5314 14.7756 13.5181 14.7097 13.4982 14.6348C13.4584 14.4851 13.3926 14.299 13.3228 14.1187C13.183 13.7582 13.0273 13.4202 13.0273 13.4202L13.0197 13.4038L13.0219 13.3859C13.0219 13.3859 13.0365 13.2657 13.038 13.1454C13.0387 13.0853 13.0358 13.0249 13.0278 12.9844C13.0248 12.9692 13.0213 12.9611 13.0182 12.9537C13.0088 12.9571 12.9981 12.9612 12.9824 12.9684C12.9441 12.9859 12.8894 13.0136 12.8197 13.0481C12.6801 13.1173 12.4792 13.2142 12.2107 13.3186C11.6739 13.5274 10.8665 13.7663 9.72991 13.8795L9.72877 13.8796L9.72763 13.8797C9.72763 13.8797 8.58348 13.9535 7.80635 13.8619C7.41531 13.8159 6.64249 13.6492 5.96274 13.4936C5.28298 13.3381 4.69915 13.1939 4.69915 13.1939L4.67606 13.1882L4.57661 13.0462L4.53391 13.7078L4.2876 15.0685L7.95589 15.8313C7.95848 15.8317 8.17926 15.8623 8.52961 15.8711Z" fill="white"/>
<path d="M5.47523 13.892L5.72762 13.9049L5.72895 13.9505L5.56911 14.6432L6.01126 14.6996L6.01241 14.7455L5.96101 14.9678L5.26416 14.807L5.26466 14.7591L5.47523 13.892Z" fill="#A17300"/>
<path d="M6.42514 14.097L7.16562 14.1978L7.16628 14.2434L7.12364 14.4593L6.63521 14.3628L6.60745 14.5036L7.04926 14.5452L7.04975 14.591L7.00992 14.7923L6.56761 14.705L6.53869 14.8511L7.03355 14.9035L7.03373 14.9487L6.99075 15.1659L6.24316 15.0183L6.24383 14.9716L6.42514 14.097Z" fill="#A17300"/>
<path d="M7.25807 14.7124L7.25857 14.7097C7.3151 14.442 7.56964 14.2763 7.8531 14.3361C8.00285 14.3676 8.12004 14.4083 8.19723 14.5007C8.19789 14.5193 8.19789 14.5251 8.19806 14.5473L8.01013 14.6968C7.95608 14.6279 7.89839 14.5828 7.80649 14.5635C7.67393 14.5355 7.54815 14.6241 7.51856 14.7646L7.51807 14.7672C7.4865 14.9168 7.56766 15.045 7.71344 15.0758C7.77641 15.0891 7.82649 15.086 7.86848 15.0688L7.89211 14.9571L7.71228 14.9193L7.71344 14.872L7.75162 14.7329L8.17244 14.7753L8.17293 14.8218L8.08599 15.2339C7.97161 15.2947 7.82467 15.3283 7.65674 15.2927C7.37047 15.2324 7.1994 14.9906 7.25807 14.7124Z" fill="#A17300"/>
<path d="M8.90834 14.9932L8.80371 14.7276L8.6976 14.9932H8.90834ZM8.68024 14.4191H8.93115L9.33048 15.3174L9.33098 15.3648H9.05181L8.98487 15.1958H8.62124L8.55413 15.3648H8.28174L8.28191 15.3174L8.68024 14.4191Z" fill="#A17300"/>
<path d="M9.42937 14.4224L9.4292 14.3759L9.67035 14.392L10.116 14.836L10.0537 14.3435L10.0546 14.2971L10.426 15.1959L10.4269 15.243L10.2019 15.2714L9.73812 14.8107L9.80159 15.2747L9.80258 15.3218L9.54705 15.3541L9.42937 14.4224Z" fill="#A17300"/>
<path d="M11.209 13.9139L11.2097 13.9606L11.0345 14.1318L10.8474 14.1596L10.8489 14.1115L11.209 13.9139ZM10.5794 14.2647L10.5791 14.2181L11.3583 14.3239L11.3591 14.3709L10.8667 14.4443L10.8879 14.5863L11.3634 14.6752L11.364 14.7229L10.9181 14.7892L10.9401 14.9366L11.4707 15.0336L11.4716 15.0812L10.7178 15.1934L10.5794 14.2647Z" fill="#A17300"/>
<path d="M11.6836 14.9151L11.6849 14.867C11.7934 14.9169 12.0011 14.7774 12.1069 14.7521C12.176 14.7356 12.2071 14.7035 12.1977 14.6644L12.197 14.6617C12.1877 14.6226 12.153 14.6102 12.0206 14.61C11.8155 14.612 11.6524 14.593 11.6079 14.4062L11.6073 14.4038C11.5669 14.2341 12.0711 14.0409 12.295 14.0146C12.2987 14.0384 12.2968 14.0366 12.2962 14.0589L12.2122 14.2679C12.1144 14.2278 12.0159 14.2195 11.9349 14.2387C11.8735 14.2534 11.8494 14.2853 11.8575 14.3193L11.8582 14.3218C11.8681 14.3636 11.9038 14.3744 12.0385 14.3727C12.2583 14.3686 12.4049 14.4054 12.4456 14.5763L12.4463 14.5789C12.4907 14.7655 12.3697 14.9116 12.1477 14.9645C11.9859 15.003 11.8211 14.9884 11.6836 14.9151Z" fill="#A17300"/>
<path d="M5.47523 13.8454L5.72895 13.9039L5.56911 14.5966L6.01241 14.6989L5.96101 14.9212L5.26416 14.7604L5.47523 13.8454Z" fill="#CF9800"/>
<path d="M6.42514 14.0505L7.16629 14.1969L7.12364 14.4127L6.63522 14.3162L6.60746 14.457L7.04976 14.5444L7.00993 14.7457L6.56762 14.6584L6.5387 14.8045L7.03373 14.9022L6.99075 15.1193L6.24316 14.9718L6.42514 14.0505Z" fill="#CF9800"/>
<path d="M7.25807 14.6658L7.25857 14.6631C7.31509 14.3954 7.56964 14.2297 7.8531 14.2895C8.01459 14.3236 8.11855 14.3963 8.19805 14.5007L8.01012 14.6503C7.95608 14.5813 7.89839 14.5362 7.80649 14.5169C7.67393 14.489 7.54815 14.5775 7.51856 14.718L7.51807 14.7207C7.4865 14.8702 7.56765 14.9984 7.71344 15.0292C7.77641 15.0426 7.82649 15.0394 7.86847 15.0222L7.89211 14.9105L7.71228 14.8727L7.75162 14.6863L8.17293 14.7752L8.08599 15.1873C7.97161 15.2481 7.82467 15.2817 7.65674 15.2462C7.37047 15.1858 7.1994 14.9441 7.25807 14.6658Z" fill="#CF9800"/>
<path d="M8.90834 14.9466L8.80371 14.681L8.6976 14.9466H8.90834ZM8.68024 14.3725H8.93115L9.33098 15.3183H9.05181L8.98487 15.1492H8.62124L8.55413 15.3183H8.28174L8.68024 14.3725Z" fill="#CF9800"/>
<path d="M9.42969 14.3758L9.67067 14.3454L10.1163 14.7895L10.054 14.297L10.3097 14.2648L10.4272 15.1965L10.2022 15.2249L9.73844 14.7642L9.8029 15.2753L9.54737 15.3075L9.42969 14.3758Z" fill="#CF9800"/>
<path d="M10.9588 13.8768L11.2098 13.9139L11.0346 14.0852L10.8474 14.1131L10.9588 13.8768ZM10.5796 14.218L11.3267 14.1068L11.3592 14.3244L10.8669 14.3978L10.8878 14.5398L11.334 14.4733L11.364 14.6763L10.9181 14.7427L10.9401 14.8899L11.4391 14.8157L11.4718 15.0345L10.7179 15.1469L10.5796 14.218Z" fill="#CF9800"/>
<path d="M11.684 14.8685L11.7848 14.6666C11.8932 14.7166 12.0015 14.7308 12.1073 14.7056C12.1763 14.689 12.2074 14.657 12.198 14.6178L12.1973 14.6152C12.1881 14.576 12.1534 14.5636 12.021 14.5634C11.8159 14.5654 11.6527 14.5463 11.6083 14.3597L11.6076 14.3572C11.5673 14.1875 11.6724 14.0328 11.8917 13.9806C12.0471 13.9436 12.1783 13.9565 12.2965 14.0123L12.2125 14.2214C12.1147 14.1812 12.0162 14.1729 11.9352 14.1921C11.8739 14.2068 11.8497 14.2387 11.8578 14.2728L11.8585 14.2752C11.8684 14.317 11.9041 14.3278 12.0388 14.3261C12.2587 14.322 12.4053 14.3589 12.4459 14.5297L12.4466 14.5324C12.491 14.7189 12.3701 14.865 12.1481 14.9179C11.9863 14.9564 11.8215 14.9419 11.684 14.8685Z" fill="#CF9800"/>
<path d="M16.7652 0.108885H1.04199L8.82086 13.2435L16.7652 0.108885Z" fill="white"/>
<path d="M2.41349 2.23395L1.24276 0.237348H16.6679L15.3733 2.23395H2.41349ZM8.79007 12.933L2.57877 2.48183H15.2081L8.79007 12.933ZM0.757812 4.25474e-05L8.77188 13.4633L17.0605 4.25474e-05H0.757812Z" fill="#CF9800"/>
<path d="M0.758789 5.72582e-05L0.800441 0.0697937H17.0168L17.0608 5.72582e-05H0.758789Z" fill="#E4C444"/>
<path d="M2.41113 2.2314L2.45295 2.30164H15.3283L15.3754 2.2319L2.41113 2.2314Z" fill="#E4C444"/>
<path d="M1.24268 0.237349L1.26896 0.282959H16.6386L16.6679 0.237349H1.24268Z" fill="#A17300"/>
<path d="M2.5752 2.47679L2.60148 2.5224H15.1852L15.2143 2.47679H2.5752Z" fill="#3F3400"/>
<path d="M8.77197 13.4632L8.77462 13.5252L17.0606 0.120236V9.53596e-05L8.77197 13.4632Z" fill="#3F3400"/>
<path d="M8.77453 13.5252L0.758474 0.121723L0.757812 9.53596e-05L8.77288 13.4642" fill="#3F3400"/>
<path d="M2.53223 1.26885V1.26604C2.53223 0.981803 2.74958 0.75904 3.04494 0.75904C3.24411 0.75904 3.37238 0.842658 3.45882 0.96098L3.25535 1.11847C3.19965 1.05022 3.13552 1.00411 3.04213 1.00411C2.90561 1.00411 2.80958 1.12111 2.80958 1.26323V1.26604C2.80958 1.41229 2.90561 1.52648 3.04213 1.52648C3.14395 1.52648 3.20378 1.47922 3.2623 1.40816L3.46576 1.55309C3.3737 1.67984 3.24973 1.77304 3.03519 1.77304C2.75652 1.77304 2.53223 1.56003 2.53223 1.26885Z" fill="#CF9800"/>
<path d="M3.58301 0.778496H3.85325V1.51685H4.32564V1.75366H3.58301V0.778496Z" fill="#CF9800"/>
<path d="M4.40381 1.32598V0.778488H4.67686V1.32036C4.67686 1.46115 4.74793 1.52792 4.85669 1.52792C4.96661 1.52792 5.03768 1.46396 5.03768 1.3273V0.778488H5.3109V1.31904C5.3109 1.63236 5.13107 1.77167 4.85388 1.77167C4.57802 1.77167 4.40381 1.63104 4.40381 1.32598Z" fill="#CF9800"/>
<path d="M5.94077 1.3566H5.73466V1.53623H5.94358C6.02721 1.53623 6.07316 1.50434 6.07316 1.44716V1.44435C6.07316 1.39147 6.03135 1.3566 5.94077 1.3566ZM6.03416 1.07947C6.03416 1.0251 5.99085 0.995849 5.91151 0.995849H5.73466V1.16722H5.90457C5.98672 1.16722 6.03416 1.13929 6.03416 1.08211V1.07947ZM5.47119 0.778538H5.97151C6.09399 0.778538 6.18043 0.809111 6.23762 0.864802C6.27663 0.905289 6.30027 0.956849 6.30027 1.02361V1.02642C6.30027 1.13929 6.23614 1.20622 6.14986 1.24373C6.2682 1.28273 6.34341 1.34966 6.34341 1.48203V1.48484C6.34341 1.65191 6.20688 1.75354 5.97416 1.75354H5.47119V0.778538Z" fill="#CF9800"/>
<path d="M7.12376 1.0167V1.51395H7.23384C7.39681 1.51395 7.50408 1.42488 7.50408 1.26739V1.26458C7.50408 1.10858 7.39681 1.0167 7.23384 1.0167H7.12376ZM6.85352 0.77857H7.23103C7.57797 0.77857 7.77995 0.979023 7.77995 1.26045V1.26326C7.77995 1.54469 7.57516 1.75357 7.22541 1.75357H6.85352V0.77857Z" fill="#CF9800"/>
<path d="M7.9209 0.778496H8.70535V1.00688H8.18833V1.15594H8.65659V1.36911H8.18833V1.52379H8.71229V1.75366H7.9209V0.778496Z" fill="#CF9800"/>
<path d="M9.25139 1.26329C9.3461 1.26329 9.4061 1.21173 9.4061 1.13505V1.13241C9.4061 1.04879 9.3461 1.00566 9.25007 1.00566H9.12181V1.26329L9.25139 1.26329ZM8.85156 0.7786H9.27089C9.51618 0.7786 9.67502 0.905351 9.67502 1.11985V1.12266C9.67502 1.35385 9.498 1.47498 9.25701 1.47498H9.12181V1.7536H8.85156V0.7786Z" fill="#CF9800"/>
<path d="M10.5305 1.26888V1.26607C10.5305 1.12395 10.4302 1.00282 10.2811 1.00282C10.132 1.00282 10.0332 1.12263 10.0332 1.26326V1.26607C10.0332 1.40687 10.1348 1.52932 10.2839 1.52932C10.4315 1.52932 10.5305 1.40951 10.5305 1.26888ZM9.75732 1.26888V1.26607C9.75732 0.98613 9.98294 0.75907 10.2839 0.75907C10.5849 0.75907 10.8077 0.983321 10.8077 1.26326V1.26607C10.8077 1.54601 10.5821 1.77307 10.2811 1.77307C9.98013 1.77307 9.75732 1.54882 9.75732 1.26888Z" fill="#CF9800"/>
<path d="M11.3973 1.2466C11.4879 1.2466 11.5423 1.20198 11.5423 1.13092V1.12828C11.5423 1.05028 11.4851 1.01111 11.3959 1.01111H11.2177V1.2466L11.3973 1.2466ZM10.9473 0.7786H11.4084C11.5575 0.7786 11.6606 0.8176 11.7261 0.883041C11.7833 0.940219 11.8125 1.01392 11.8125 1.1101V1.11291C11.8125 1.26329 11.733 1.36228 11.6119 1.41384L11.8446 1.7536H11.5339L11.3373 1.45829H11.2177V1.7536H10.9473V0.7786Z" fill="#CF9800"/>
<path d="M12.1877 1.01531H11.8965V0.778496H12.7507V1.01531H12.458V1.75366H12.1877V1.01531Z" fill="#CF9800"/>
<path d="M12.876 0.778465H13.1462V1.75363H12.876V0.778465Z" fill="#CF9800"/>
<path d="M13.248 0.778544H13.549L13.7705 1.3956L13.9935 0.778544H14.2889L13.8932 1.76065H13.6423L13.248 0.778544Z" fill="#CF9800"/>
<path d="M15.0623 1.26888V1.26607C15.0623 1.12395 14.9619 1.00282 14.8129 1.00282C14.6638 1.00282 14.5649 1.12263 14.5649 1.26326V1.26607C14.5649 1.40687 14.6666 1.52932 14.8157 1.52932C14.9633 1.52932 15.0623 1.40951 15.0623 1.26888ZM14.2891 1.26888V1.26607C14.2891 0.98613 14.5147 0.75907 14.8157 0.75907C15.1167 0.75907 15.3395 0.983321 15.3395 1.26326V1.26607C15.3395 1.54601 15.1138 1.77307 14.8129 1.77307C14.5119 1.77307 14.2891 1.54882 14.2891 1.26888Z" fill="#CF9800"/>
<path d="M4.68701 4.18375V4.17961C4.68701 3.7526 5.01362 3.41763 5.45741 3.41763C5.75691 3.41763 5.94947 3.54322 6.07922 3.7212L5.7736 3.95768C5.6898 3.85505 5.59361 3.78598 5.45328 3.78598C5.24816 3.78598 5.1037 3.96197 5.1037 4.17532V4.17961C5.1037 4.3994 5.24816 4.57094 5.45328 4.57094C5.60617 4.57094 5.69608 4.49988 5.78402 4.39312L6.0898 4.61076C5.95145 4.8013 5.76517 4.94144 5.44287 4.94144C5.02403 4.94144 4.68701 4.62117 4.68701 4.18375Z" fill="#CF9800"/>
<path d="M12.0213 3.80492V4.5522H12.1868C12.4317 4.5522 12.5929 4.41818 12.5929 4.1817V4.17757C12.5929 3.94308 12.4317 3.80492 12.1868 3.80492H12.0213ZM11.6152 3.44698H12.1825C12.7038 3.44698 13.0074 3.74841 13.0074 4.17129V4.17542C13.0074 4.59831 12.6997 4.91229 12.1742 4.91229H11.6152V3.44698Z" fill="#CF9800"/>
<path d="M8.31445 10.5558H8.67445V11.5393H9.30369V11.8547H8.31445V10.5558Z" fill="#CF9800"/>
<path d="M8.20605 3.29536V3.38988L8.27002 3.3912L8.20605 3.29536Z" fill="#E4C444"/>
<path d="M9.48584 3.29536V3.38988L9.42188 3.3912L9.48584 3.29536Z" fill="#E4C444"/>
<path d="M11.1628 3.50778C11.1628 3.50778 11.0492 3.35111 10.9892 3.3412C10.9292 3.33128 10.8744 3.34616 10.8643 3.38119C10.8544 3.41606 10.7843 3.53108 10.7843 3.53108C10.7843 3.53108 10.7344 3.46117 10.6744 3.46117C10.6145 3.46117 10.5045 3.60098 10.5145 3.82077C10.5245 4.04072 10.5345 4.08567 10.5345 4.08567L10.1898 4.10567C10.1898 4.10567 10.0747 3.86572 10.0398 3.74095C10.0048 3.61602 9.97984 3.53108 9.97984 3.53108C9.97984 3.53108 9.76001 3.82589 9.34514 3.82589C8.93043 3.82589 9.00035 3.57107 9.02547 3.55107C9.05043 3.53108 9.41522 3.41606 9.47009 3.35111C9.52513 3.28617 9.42514 3.15628 9.35026 3.10637C9.27522 3.05647 9.05539 2.87155 9.05539 2.87155H8.95539V2.78165L9.05489 2.74661L9.05539 2.66167L8.94052 2.68167L8.93539 2.59904C8.93539 2.59904 8.90746 2.57921 8.85556 2.57491V2.57409C8.85192 2.57409 8.84878 2.57442 8.84548 2.57442C8.84217 2.57442 8.83903 2.57409 8.83556 2.57409V2.57491C8.78349 2.57921 8.75556 2.59904 8.75556 2.59904L8.7506 2.68167L8.63556 2.66167L8.63639 2.74728L8.73556 2.78165V2.87155H8.63556C8.63556 2.87155 8.41573 3.05647 8.34086 3.10637C8.26582 3.15628 8.16582 3.28617 8.22086 3.35111C8.2759 3.41606 8.64069 3.53108 8.66564 3.55107C8.6906 3.57107 8.76052 3.82589 8.34582 3.82589C7.93111 3.82589 7.71112 3.53108 7.71112 3.53108C7.71112 3.53108 7.68616 3.61602 7.65128 3.74095C7.61624 3.86572 7.50137 4.10567 7.50137 4.10567L7.15642 4.08567C7.15642 4.08567 7.1665 4.04072 7.17642 3.82077C7.1865 3.60098 7.07658 3.46117 7.01658 3.46117C6.95658 3.46117 6.90667 3.53108 6.90667 3.53108C6.90667 3.53108 6.83675 3.41606 6.82667 3.38119C6.81675 3.34616 6.76171 3.33128 6.70171 3.3412C6.64171 3.35111 6.52783 3.50612 6.52783 3.50612L7.45129 5.20477L8.84548 5.08562L10.2397 5.20477L11.1628 3.50778Z" fill="#E4C444"/>
<path d="M10.1899 4.10559V4.19003L10.5347 4.17004V4.08559L10.1899 4.10559Z" fill="#79580B"/>
<path d="M7.15674 4.08562V4.17007L7.50153 4.19006V4.10562L7.15674 4.08562Z" fill="#79580B"/>
<path d="M11.1641 3.50553C11.1641 3.50553 11.0493 3.43563 10.9893 3.42555C10.9293 3.41563 10.8744 3.43051 10.8643 3.46554C10.8544 3.50058 10.7843 3.61543 10.7843 3.61543C10.7843 3.61543 10.7344 3.54552 10.6744 3.54552C10.6144 3.54552 10.5045 3.68533 10.5146 3.90528C10.5245 4.12507 10.5346 4.17002 10.5346 4.17002L10.1898 4.19002C10.1898 4.19002 10.0747 3.95023 10.0399 3.8253C10.0048 3.70037 9.97985 3.61543 9.97985 3.61543C9.97985 3.61543 9.76002 3.91024 9.34515 3.91024C8.93045 3.91024 9.00037 3.65542 9.02532 3.63542C9.05045 3.61543 9.41523 3.50058 9.47011 3.43563C9.52515 3.37069 9.42515 3.24079 9.35011 3.19072C9.27524 3.14082 9.05541 2.9559 9.05541 2.9559H8.95541V2.866L9.04532 2.83609L9.05541 2.74619L8.94037 2.76619L8.93541 2.64125C8.93541 2.64125 8.90747 2.62142 8.85541 2.61713V2.6163C8.85194 2.6163 8.8488 2.61663 8.84549 2.61663C8.84219 2.61663 8.83905 2.6163 8.83557 2.6163V2.61713C8.78351 2.62142 8.75558 2.64125 8.75558 2.64125L8.75062 2.76619L8.63558 2.74619L8.64566 2.83609L8.73558 2.866V2.9559H8.63558C8.63558 2.9559 8.41575 3.14082 8.34071 3.19072C8.26583 3.24079 8.16583 3.37069 8.22087 3.43563C8.27575 3.50058 8.64054 3.61543 8.66566 3.63542C8.69062 3.65542 8.76053 3.91024 8.34583 3.91024C7.93096 3.91024 7.71113 3.61543 7.71113 3.61543C7.71113 3.61543 7.68617 3.70037 7.65113 3.8253C7.61626 3.95023 7.50122 4.19002 7.50122 4.19002L7.15643 4.17002C7.15643 4.17002 7.16651 4.12507 7.17643 3.90528C7.18651 3.68533 7.0766 3.54552 7.0166 3.54552C6.9566 3.54552 6.90668 3.61543 6.90668 3.61543C6.90668 3.61543 6.8366 3.50058 6.82668 3.46554C6.8166 3.43051 6.76173 3.41563 6.70173 3.42555C6.64173 3.43563 6.52686 3.50553 6.52686 3.50553L7.4513 5.28912L8.84549 5.17014L10.2397 5.28912L11.1641 3.50553Z" fill="#CF9800"/>
<path d="M7.45161 5.28912L8.8458 5.17014L10.24 5.28912L10.2692 5.23277C9.84992 4.97068 9.35505 4.81864 8.82498 4.81864C8.30829 4.81864 7.82466 4.96275 7.41211 5.21294L7.45161 5.28912Z" fill="#79580B"/>
<path d="M8.55273 3.3357C8.55273 3.2377 8.67885 3.15822 8.83422 3.15822C8.98975 3.15822 9.1157 3.2377 9.1157 3.3357C9.1157 3.4337 8.98975 3.51318 8.83422 3.51318C8.67885 3.51318 8.55273 3.4337 8.55273 3.3357Z" fill="#79580B"/>
<path d="M8.82481 5.26664C7.52714 5.26664 6.47129 6.32211 6.47129 7.61969C6.47129 8.9171 7.52714 9.97275 8.82481 9.97275C10.1225 9.97275 11.1783 8.9171 11.1783 7.61969C11.1783 6.32211 10.1225 5.26664 8.82481 5.26664ZM8.82481 10.3522C7.31789 10.3522 6.0918 9.12632 6.0918 7.61969C6.0918 6.1129 7.31789 4.88705 8.82481 4.88705C10.3319 4.88705 11.5578 6.1129 11.5578 7.61969C11.5578 9.12632 10.3319 10.3522 8.82481 10.3522Z" fill="#E4C444"/>
<path d="M8.82481 5.39459C7.52714 5.39459 6.47129 6.45007 6.47129 7.74765C6.47129 9.04506 7.52714 10.1007 8.82481 10.1007C10.1225 10.1007 11.1783 9.04506 11.1783 7.74765C11.1783 6.45007 10.1225 5.39459 8.82481 5.39459ZM8.82481 10.4801C7.31789 10.4801 6.0918 9.25428 6.0918 7.74765C6.0918 6.24086 7.31789 5.015 8.82481 5.015C10.3319 5.015 11.5578 6.24086 11.5578 7.74765C11.5578 9.25428 10.3319 10.4801 8.82481 10.4801Z" fill="#79580B"/>
<path d="M8.38216 10.2411L7.30664 9.83644V5.52925L8.38216 5.16007V10.2411Z" fill="#0B1F6F"/>
<path d="M10.3431 9.7593L9.26758 10.2412V5.1601L10.3431 5.52152V9.7593Z" fill="#0B1F6F"/>
<path d="M10.3489 9.76697H10.2358V5.81491H10.3489V9.76697Z" fill="#07174C"/>
<path d="M7.40645 9.76697H7.28662V5.81491H7.40645V9.76697Z" fill="#07174C"/>
<path d="M8.37365 10.1806H8.27051V5.34691H8.37365V10.1806Z" fill="#205F9B"/>
<path d="M9.37181 10.1806H9.27197V5.34592H9.37181V10.1806Z" fill="#205F9B"/>
<path d="M8.82481 5.33136C7.52714 5.33136 6.47129 6.38684 6.47129 7.68442C6.47129 8.98183 7.52714 10.0375 8.82481 10.0375C10.1225 10.0375 11.1783 8.98183 11.1783 7.68442C11.1783 6.38684 10.1225 5.33136 8.82481 5.33136ZM8.82481 10.4169C7.31789 10.4169 6.0918 9.19104 6.0918 7.68442C6.0918 6.17763 7.31789 4.95177 8.82481 4.95177C10.3319 4.95177 11.5578 6.17763 11.5578 7.68442C11.5578 9.19104 10.3319 10.4169 8.82481 10.4169Z" fill="#CF9800"/>
<path d="M6.8125 3.36039V3.44516C6.8125 3.44516 6.82457 3.46714 6.83895 3.49589C6.85333 3.52481 6.90655 3.61554 6.90655 3.61554V3.53109L6.833 3.39526C6.833 3.39526 6.81928 3.36187 6.8125 3.36039Z" fill="#A17300"/>
<path d="M10.8777 3.36039V3.44516C10.8777 3.44516 10.8657 3.46714 10.8513 3.49589C10.8369 3.52481 10.7837 3.61554 10.7837 3.61554V3.53109L10.8572 3.39526C10.8572 3.39526 10.871 3.36187 10.8777 3.36039Z" fill="#A17300"/>
<path d="M8.55273 3.28205C8.55273 3.18405 8.67885 3.10457 8.83422 3.10457C8.98975 3.10457 9.1157 3.18405 9.1157 3.28205C9.1157 3.38005 8.98975 3.45953 8.83422 3.45953C8.67885 3.45953 8.55273 3.38005 8.55273 3.28205Z" fill="#E94F2B"/>
<path d="M7.71138 3.53104V3.61549C7.71138 3.61549 7.62526 3.93393 7.5689 4.05672C7.5132 4.17818 7.50146 4.18991 7.50146 4.18991V4.10563C7.50146 4.10563 7.56741 4.0083 7.71138 3.53104Z" fill="#A17300"/>
<path d="M9.97998 3.53107V3.61552C9.97998 3.61552 10.0661 3.93396 10.1225 4.05675C10.1782 4.17821 10.1899 4.18994 10.1899 4.18994V4.10566C10.1899 4.10566 10.1239 4.00833 9.97998 3.53107Z" fill="#A17300"/>
<path d="M8.55273 3.31101C8.55273 3.21632 8.67885 3.13964 8.83422 3.13964C8.98975 3.13964 9.1157 3.21632 9.1157 3.31101C9.1157 3.4057 8.98975 3.48254 8.83422 3.48254C8.67885 3.48254 8.55273 3.4057 8.55273 3.31101Z" fill="#F50605"/>
<path d="M8.7251 4.30671C8.7251 4.24904 8.77187 4.2021 8.82972 4.2021C8.88741 4.2021 8.93435 4.24904 8.93435 4.30671C8.93435 4.36438 8.88741 4.41132 8.82972 4.41132C8.77187 4.41132 8.7251 4.36438 8.7251 4.30671Z" fill="#79580B"/>
<path d="M8.09844 4.41621L8.43198 4.32102C8.45826 4.31359 8.4857 4.32879 8.49314 4.35507L8.51364 4.42662C8.52107 4.4529 8.50587 4.48033 8.47959 4.48777L8.14604 4.58295C8.11976 4.59039 8.09232 4.57518 8.08488 4.54891L8.06439 4.47735C8.05695 4.45108 8.07216 4.42365 8.09844 4.41621Z" fill="#79580B"/>
<path d="M7.42969 4.78449L7.59712 4.52834L7.91398 4.54355L7.72952 4.79639L7.42969 4.78449Z" fill="#79580B"/>
<path d="M9.5665 4.41511L9.23295 4.31993C9.20667 4.31249 9.17923 4.32769 9.1718 4.35397L9.1513 4.42552C9.14386 4.4518 9.15907 4.47923 9.18535 4.48667L9.5189 4.58185C9.54518 4.58929 9.57262 4.57409 9.58005 4.54781L9.60055 4.47626C9.60799 4.44998 9.59278 4.42255 9.5665 4.41511Z" fill="#79580B"/>
<path d="M8.7251 4.26045C8.7251 4.20277 8.77187 4.15584 8.82972 4.15584C8.88741 4.15584 8.93435 4.20277 8.93435 4.26045C8.93435 4.31812 8.88741 4.36505 8.82972 4.36505C8.77187 4.36505 8.7251 4.31812 8.7251 4.26045Z" fill="#E4C444"/>
<path d="M8.08281 4.3639L8.41636 4.26872C8.44264 4.26128 8.47008 4.27648 8.47751 4.30276L8.49801 4.37431C8.50545 4.40059 8.49024 4.42802 8.46396 4.43546L8.13041 4.53064C8.10413 4.53808 8.0767 4.52288 8.06926 4.4966L8.04876 4.42505C8.04132 4.39877 8.05653 4.37134 8.08281 4.3639Z" fill="#E4C444"/>
<path d="M7.39062 4.73162L7.58698 4.46523L7.90384 4.48044L7.70748 4.74683L7.39062 4.73162Z" fill="#E4C444"/>
<path d="M9.58115 4.36338L9.2476 4.2682C9.22132 4.26076 9.19388 4.27597 9.18644 4.30224L9.16595 4.3738C9.15851 4.40007 9.17372 4.4275 9.2 4.43494L9.53355 4.53013C9.55983 4.53756 9.58726 4.52236 9.5947 4.49608L9.6152 4.42453C9.62264 4.39825 9.60743 4.37082 9.58115 4.36338Z" fill="#E4C444"/>
<path d="M7.39062 4.73162L7.40104 4.75806L7.42534 4.73443L7.42071 4.72385L7.39062 4.73162Z" fill="#E4C444"/>
<path d="M7.90395 4.48037L7.91436 4.50681L7.88477 4.51309L7.87354 4.49987L7.90395 4.48037Z" fill="#E4C444"/>
<path d="M7.43046 4.78448L7.40088 4.75804L7.91409 4.50669V4.54354L7.43046 4.78448Z" fill="#79580B"/>
<path d="M8.7251 4.28498C8.7251 4.22731 8.77187 4.18038 8.82972 4.18038C8.88741 4.18038 8.93435 4.22731 8.93435 4.28498C8.93435 4.34266 8.88741 4.38959 8.82972 4.38959C8.77187 4.38959 8.7251 4.34266 8.7251 4.28498Z" fill="#0B1F6F"/>
<path d="M8.09014 4.38984L8.42368 4.29466C8.44996 4.28722 8.4774 4.30242 8.48484 4.3287L8.50533 4.40025C8.51277 4.42653 8.49757 4.45396 8.47129 4.4614L8.13774 4.55658C8.11146 4.56402 8.08402 4.54882 8.07658 4.52254L8.05609 4.45099C8.04865 4.42471 8.06386 4.39728 8.09014 4.38984Z" fill="#449001"/>
<path d="M7.40088 4.75799L7.59724 4.4916L7.91409 4.5068L7.71773 4.77319L7.40088 4.75799Z" fill="#F50605"/>
<path d="M10.226 4.78449L10.0586 4.52834L9.7417 4.54355L9.92616 4.79639L10.226 4.78449Z" fill="#79580B"/>
<path d="M10.2657 4.73162L10.0693 4.46523L9.75244 4.48044L9.9488 4.74683L10.2657 4.73162Z" fill="#E4C444"/>
<path d="M10.2657 4.73162L10.2553 4.75806L10.231 4.73443L10.2356 4.72385L10.2657 4.73162Z" fill="#E4C444"/>
<path d="M9.75211 4.4804L9.7417 4.50684L9.77129 4.51312L9.78253 4.4999L9.75211 4.4804Z" fill="#E4C444"/>
<path d="M10.2253 4.78448L10.2549 4.75804L9.7417 4.50669V4.54354L10.2253 4.78448Z" fill="#79580B"/>
<path d="M10.2549 4.75799L10.0586 4.4916L9.7417 4.5068L9.93806 4.77319L10.2549 4.75799Z" fill="#F50605"/>
<path d="M9.57382 4.38981L9.24028 4.29463C9.214 4.28719 9.18656 4.30239 9.17912 4.32867L9.15863 4.40022C9.15119 4.4265 9.16639 4.45393 9.19267 4.46137L9.52622 4.55655C9.5525 4.56399 9.57994 4.54879 9.58738 4.52251L9.60787 4.45096C9.61531 4.42468 9.60011 4.39725 9.57382 4.38981Z" fill="#449001"/>
<path d="M9.00333 2.95602H8.95557V2.87158H9.00333V2.95602Z" fill="#A17300"/>
<path d="M8.73563 2.87158H8.68555V2.95602H8.73563V2.87158Z" fill="#A17300"/>
<path d="M9.73242 13.7924L9.86944 13.6804C9.86944 13.6804 6.28108 12.6962 4.61152 10.2796C2.94196 7.86296 3.50261 6.70436 3.50261 6.70436C3.50261 6.70436 3.35319 8.31129 3.90145 9.33289C4.44954 10.3543 4.87201 11.1963 6.60504 12.3225C8.34947 13.4562 9.73242 13.7924 9.73242 13.7924Z" fill="#3F3400"/>
<path d="M9.75879 13.7714L9.89581 13.6593C9.89581 13.6593 6.30744 12.6751 4.63789 10.2585C2.96833 7.84187 3.52898 6.68327 3.52898 6.68327C3.52898 6.68327 3.37956 8.2902 3.92782 9.31181C4.4759 10.3332 4.89838 11.1752 6.6314 12.3014C8.37584 13.4351 9.75879 13.7714 9.75879 13.7714Z" fill="#E4C444"/>
<path d="M9.74696 13.7817L9.88398 13.6696C9.88398 13.6696 6.29562 12.6854 4.62606 10.2689C2.9565 7.85218 3.51732 6.69359 3.51732 6.69359C3.51732 6.69359 3.36774 8.30052 3.91599 9.32212C4.46408 10.3436 4.88655 11.1855 6.61958 12.3117C8.36401 13.4454 9.74696 13.7817 9.74696 13.7817Z" fill="#CF9800"/>
<path d="M3.26511 6.92401C3.26511 6.92401 3.06132 6.25638 3.01917 5.80656C2.97685 5.35674 3.03322 5.13183 3.34941 4.72431C3.66577 4.31663 4.12973 3.9301 4.12973 3.9301C4.12973 3.9301 4.40377 4.77356 4.14378 5.3498C3.88362 5.92604 3.26511 6.92401 3.26511 6.92401Z" fill="#00AA30"/>
<path d="M3.30703 4.7244C2.99067 5.13192 2.93448 5.35683 2.97663 5.80665C3.01877 6.25648 3.22257 6.9241 3.22257 6.9241C3.22257 6.9241 3.84107 5.92613 4.1014 5.34972C4.36139 4.77348 4.12851 3.93118 4.12851 3.93118C4.12851 3.93118 3.62339 4.31672 3.30703 4.7244Z" fill="url(#paint2_linear_882_26052)"/>
<path d="M3.56126 7.94727C3.56126 7.94727 2.63136 7.58966 2.46277 7.15537C2.29417 6.72124 2.26855 5.96008 2.26855 5.96008C2.26855 5.96008 3.19846 6.40445 3.45399 6.9255C3.70936 7.44671 3.56126 7.94727 3.56126 7.94727Z" fill="#00AA30"/>
<path d="M2.42686 7.16571C2.59562 7.59984 3.52552 7.95761 3.52552 7.95761C3.52552 7.95761 3.67361 7.45689 3.41825 6.93584C3.16271 6.41463 2.26868 5.96216 2.26868 5.96216C2.26868 5.96216 2.25827 6.73142 2.42686 7.16571Z" fill="url(#paint3_linear_882_26052)"/>
<path d="M3.85775 8.96387C3.85775 8.96387 3.40305 7.83485 3.07082 7.57441C2.73876 7.3138 2.1001 7.17581 2.1001 7.17581C2.1001 7.17581 2.30439 8.11578 2.63662 8.41721C2.96868 8.71863 3.85775 8.96387 3.85775 8.96387Z" fill="#00AA30"/>
<path d="M2.10107 7.17563C2.10107 7.17563 2.30471 8.15162 2.63677 8.45305C2.96883 8.75447 3.8579 8.99954 3.8579 8.99954C3.8579 8.99954 3.4032 7.87069 3.07097 7.61008C2.73908 7.34964 2.10107 7.17563 2.10107 7.17563Z" fill="url(#paint4_linear_882_26052)"/>
<path d="M4.2819 9.70459C4.2819 9.70459 3.87314 9.06605 3.40307 8.7595C2.93299 8.45295 2.13086 8.44271 2.13086 8.44271C2.13086 8.44271 2.54474 9.36235 3.06588 9.53091C3.58703 9.69947 4.2819 9.70459 4.2819 9.70459Z" fill="#00AA30"/>
<path d="M2.13135 8.44377C2.13135 8.44377 2.54456 9.39811 3.06588 9.56667C3.58686 9.73523 4.28172 9.74036 4.28172 9.74036C4.28172 9.74036 3.87313 9.10181 3.40306 8.79543C2.93299 8.48889 2.13135 8.44377 2.13135 8.44377Z" fill="url(#paint5_linear_882_26052)"/>
<path d="M4.82885 10.5445C4.82885 10.5445 4.21811 10.0116 3.92176 9.87889C3.6254 9.74603 3.40573 9.67959 3.13995 9.68984C2.87434 9.70009 2.4917 9.71562 2.4917 9.71562C2.4917 9.71562 3.09913 10.5072 3.55895 10.6144C4.01878 10.7217 4.82885 10.5445 4.82885 10.5445Z" fill="#0B3D00"/>
<path d="M4.82131 10.5301C4.82131 10.5301 4.23587 9.93953 3.93951 9.80683C3.64315 9.67396 3.42348 9.60753 3.1577 9.61778C2.89209 9.62802 2.50879 9.69941 2.50879 9.69941C2.50879 9.69941 3.11688 10.4351 3.5767 10.5424C4.03653 10.6496 4.82131 10.5301 4.82131 10.5301Z" fill="#00AA30"/>
<path d="M2.99561 10.7821C2.99561 10.7821 3.6784 11.3194 3.99922 11.4722C4.32021 11.6252 5.50283 11.3081 5.50283 11.3081C5.4954 11.2971 4.61872 10.6962 4.15592 10.6291C4.09476 10.6203 4.02931 10.6164 3.96203 10.6164C3.52089 10.6164 2.99561 10.7821 2.99561 10.7821Z" fill="url(#paint6_linear_882_26052)"/>
<path d="M5.93111 11.654C5.93111 11.654 5.31293 12.0764 4.86881 12.1844C4.42485 12.2927 3.38867 11.9407 3.38867 11.9407C3.38867 11.9407 4.08899 11.3638 4.51064 11.3228C4.93228 11.2818 5.93111 11.654 5.93111 11.654Z" fill="#00AA30"/>
<path d="M5.93524 11.654C5.93524 11.654 5.31293 12.1606 4.86898 12.2689C4.42502 12.3771 3.38867 11.9397 3.38867 11.9397C3.38867 11.9397 4.08916 11.4482 4.5108 11.4072C4.93245 11.3661 5.93524 11.654 5.93524 11.654Z" fill="#0B3D00"/>
<path d="M4.52933 11.3587C4.10768 11.3997 3.3877 11.9407 3.3877 11.9407C3.3877 11.9407 4.44371 12.3286 4.8875 12.2205C5.33163 12.1121 5.93591 11.6534 5.93591 11.6534C5.93591 11.6534 5.06122 11.3551 4.60751 11.3551C4.57991 11.3551 4.55379 11.3564 4.52933 11.3587Z" fill="url(#paint7_linear_882_26052)"/>
<path d="M6.96649 12.3006C6.96649 12.3006 6.47328 12.0681 5.75279 11.9693C5.03231 11.8705 4.23877 12.4879 4.23877 12.4879C4.23877 12.4879 4.98057 12.9038 5.75759 12.9455C6.5346 12.9869 7.06996 12.2739 7.06996 12.2739L6.96649 12.3006Z" fill="#00AA30"/>
<path d="M6.99091 12.3463C6.99091 12.3463 6.4977 12.1138 5.77722 12.015C5.05673 11.9161 4.24121 12.4887 4.24121 12.4887C4.24121 12.4887 5.005 12.9495 5.78201 12.9911C6.55902 13.0326 7.09438 12.3195 7.09438 12.3195L6.99091 12.3463Z" fill="#0B3D00"/>
<path d="M4.23926 12.4897C4.23926 12.4897 5.00288 12.9161 5.77973 12.9577C6.55674 12.9992 7.0921 12.2861 7.0921 12.2861L6.9888 12.3129C6.9888 12.3129 6.49542 12.0804 5.7751 11.9815C5.72072 11.9741 5.66601 11.9708 5.61113 11.9708C4.93644 11.9706 4.23926 12.4897 4.23926 12.4897Z" fill="url(#paint8_linear_882_26052)"/>
<path d="M7.51734 12.8126C7.51734 12.8126 7.04627 13.1763 6.70148 13.1652C6.3567 13.1541 5.88778 12.9649 5.82613 12.9299C5.79009 12.9096 5.76514 12.8856 5.76514 12.8856C5.76514 12.8856 6.18199 12.5888 6.56711 12.5924C6.95239 12.5961 7.51734 12.8126 7.51734 12.8126Z" fill="#0B3D00"/>
<path d="M7.49793 12.8035C7.49793 12.8035 7.04307 13.0798 6.69828 13.0687C6.35349 13.0576 5.84441 12.9172 5.78524 12.897C5.76375 12.8896 5.79036 12.8674 5.79036 12.8674C5.79036 12.8674 6.17944 12.546 6.56473 12.5496C6.95001 12.5533 7.49793 12.8035 7.49793 12.8035Z" fill="#00AA30"/>
<path d="M3.72849 8.64056C3.72849 8.64056 4.29129 7.53551 4.29129 6.89597C4.29129 6.25644 3.83428 5.51147 3.83428 5.51147C3.83428 5.51147 3.37048 6.20009 3.22288 6.86077C3.07512 7.5213 3.66519 8.51398 3.72849 8.64056Z" fill="#00AA30"/>
<path d="M3.26489 6.86065C3.11729 7.52134 3.66505 8.51947 3.72835 8.64606C3.72835 8.64606 4.3333 7.53555 4.3333 6.89601C4.3333 6.25648 3.83562 5.513 3.83562 5.513C3.83562 5.513 3.41249 6.20013 3.26489 6.86065Z" fill="url(#paint9_linear_882_26052)"/>
<path d="M4.80828 10.498C4.80828 10.498 4.99456 9.53574 4.9734 8.94545C4.95225 8.35516 4.72746 8.03176 4.56564 7.84915C4.40399 7.66638 4.22069 7.41404 4.22069 7.41404C4.22069 7.41404 3.67293 8.66435 3.91194 9.27579C4.15094 9.88724 4.80828 10.498 4.80828 10.498Z" fill="#00AA30"/>
<path d="M3.95432 9.27567C4.19332 9.88712 4.82703 10.5437 4.82703 10.5437C4.82703 10.5437 5.03678 9.53578 5.01562 8.9455C4.99463 8.35521 4.76968 8.0318 4.60803 7.8492C4.44638 7.66643 4.22142 7.41342 4.22142 7.41342C4.22142 7.41342 3.71515 8.6644 3.95432 9.27567Z" fill="url(#paint10_linear_882_26052)"/>
<path d="M5.44547 11.2205C5.44547 11.2205 5.71273 10.4995 5.67587 10.0039C5.63902 9.50848 5.58629 9.25548 5.40695 8.96034C5.22778 8.66519 5.23307 8.6447 5.23307 8.6447C5.23307 8.6447 4.87457 9.32406 4.83754 9.83536C4.80068 10.3467 5.16613 10.8305 5.44547 11.2205Z" fill="#00AA30"/>
<path d="M4.87984 9.83521C4.84298 10.3467 5.16612 10.8338 5.44562 11.2238C5.44562 11.2238 5.75503 10.4995 5.71817 10.0039C5.68131 9.50851 5.62842 9.2555 5.44925 8.96036C5.27008 8.66521 5.23306 8.64406 5.23306 8.64406C5.23306 8.64406 4.91686 9.32408 4.87984 9.83521Z" fill="url(#paint11_linear_882_26052)"/>
<path d="M6.09626 11.7838C6.09626 11.7838 6.38171 10.9501 6.37609 10.5192C6.37047 10.0883 6.14668 9.74708 6.01792 9.56795C5.88916 9.38898 5.83329 9.32172 5.83329 9.32172C5.83329 9.32172 5.41347 10.0883 5.49743 10.6647C5.5814 11.2411 6.09626 11.7838 6.09626 11.7838Z" fill="#00AA30"/>
<path d="M5.53952 10.7068C5.62349 11.2834 6.13836 11.826 6.13836 11.826C6.13836 11.826 6.42381 10.9922 6.41819 10.5614C6.41273 10.1305 6.18877 9.78912 6.06001 9.61015C5.93125 9.43102 5.83324 9.32344 5.83324 9.32344C5.83324 9.32344 5.45556 10.1305 5.53952 10.7068Z" fill="url(#paint12_linear_882_26052)"/>
<path d="M6.46808 10.2036C6.46808 10.2036 6.24891 10.9828 6.28974 11.3396C6.33056 11.6962 6.97485 12.3033 6.97485 12.3033C6.97485 12.3033 7.19699 11.7268 7.17666 11.3293C7.15617 10.9319 6.86559 10.4941 6.46808 10.2036Z" fill="#00AA30"/>
<path d="M6.31971 11.3298C6.3607 11.6866 6.97226 12.3031 6.97226 12.3031C6.97226 12.3031 7.22696 11.7171 7.20663 11.3195C7.1863 10.9223 6.86532 10.4941 6.46764 10.2037C6.46764 10.2037 6.27905 10.973 6.31971 11.3298Z" fill="url(#paint13_linear_882_26052)"/>
<path d="M7.51615 12.8151C7.51615 12.8151 7.55037 11.9421 7.41583 11.6895C7.28112 11.4372 6.94459 11.1624 6.94459 11.1624C6.94459 11.1624 6.67518 11.8467 6.88278 12.2113C7.09038 12.5758 7.51615 12.8151 7.51615 12.8151Z" fill="#0B3D00"/>
<path d="M7.47189 12.7432C7.47189 12.7432 7.50561 11.8682 7.3709 11.6157C7.2362 11.3633 6.89967 11.0885 6.89967 11.0885C6.89967 11.0885 6.63026 11.7728 6.83786 12.1374C7.04546 12.5019 7.47189 12.7432 7.47189 12.7432Z" fill="#00AA30"/>
<path d="M6.85097 12.1797C7.05873 12.5442 7.51211 12.8039 7.51211 12.8039C7.51211 12.8039 7.51856 11.9103 7.38402 11.658C7.24931 11.4055 6.91278 11.1307 6.91278 11.1307C6.91278 11.1307 6.64353 11.815 6.85097 12.1797Z" fill="url(#paint14_linear_882_26052)"/>
<path d="M6.55786 12.5803C6.17456 12.5803 5.76465 12.885 5.76465 12.885C5.76465 12.885 5.76399 12.885 5.82366 12.9177C5.87837 12.9478 6.35555 13.1306 6.7005 13.1415C7.04545 13.1525 7.51569 12.8098 7.51569 12.8098C7.51569 12.8098 6.95008 12.5839 6.5648 12.5803C6.56249 12.5803 6.56017 12.5803 6.55786 12.5803Z" fill="url(#paint15_linear_882_26052)"/>
<path d="M3.13769 9.63312C2.87191 9.6432 2.50977 9.69955 2.50977 9.69955C2.50977 9.69955 3.0967 10.4505 3.55652 10.5577C4.01652 10.665 4.82609 10.541 4.82609 10.541C4.82609 10.541 4.21569 9.95487 3.91933 9.822C3.6428 9.69806 3.43305 9.63213 3.19041 9.63213C3.17306 9.63213 3.15554 9.63246 3.13769 9.63312Z" fill="url(#paint16_linear_882_26052)"/>
<path d="M7.8628 13.7924L7.72577 13.6804C7.72577 13.6804 11.3141 12.6962 12.9837 10.2796C14.6533 7.86296 14.0926 6.70436 14.0926 6.70436C14.0926 6.70436 14.242 8.31129 13.6938 9.33289C13.1457 10.3543 12.7232 11.1963 10.9902 12.3225C9.24575 13.4562 7.8628 13.7924 7.8628 13.7924Z" fill="#3F3400"/>
<path d="M7.83643 13.7714L7.69941 13.6593C7.69941 13.6593 11.2878 12.6751 12.9573 10.2585C14.6269 7.84187 14.0662 6.68327 14.0662 6.68327C14.0662 6.68327 14.2157 8.2902 13.6674 9.31181C13.1193 10.3332 12.6968 11.1752 10.9638 12.3014C9.21938 13.4351 7.83643 13.7714 7.83643 13.7714Z" fill="#E4C444"/>
<path d="M7.84826 13.7817L7.71123 13.6696C7.71123 13.6696 11.2996 12.6854 12.9692 10.2689C14.6387 7.85218 14.0779 6.69359 14.0779 6.69359C14.0779 6.69359 14.2275 8.30052 13.6792 9.32212C13.1311 10.3436 12.7087 11.1855 10.9756 12.3117C9.23121 13.4454 7.84826 13.7817 7.84826 13.7817Z" fill="#CF9800"/>
<path d="M14.3301 6.92401C14.3301 6.92401 14.5339 6.25638 14.576 5.80656C14.6184 5.35674 14.562 5.13183 14.2458 4.72431C13.9294 4.31663 13.4655 3.9301 13.4655 3.9301C13.4655 3.9301 13.1914 4.77356 13.4514 5.3498C13.7116 5.92604 14.3301 6.92401 14.3301 6.92401Z" fill="#00AA30"/>
<path d="M14.2882 4.7244C14.6045 5.13192 14.6607 5.35683 14.6186 5.80665C14.5764 6.25648 14.3726 6.9241 14.3726 6.9241C14.3726 6.9241 13.7541 5.92613 13.4938 5.34972C13.2338 4.77348 13.4667 3.93118 13.4667 3.93118C13.4667 3.93118 13.9718 4.31672 14.2882 4.7244Z" fill="url(#paint17_linear_882_26052)"/>
<path d="M14.034 7.94727C14.034 7.94727 14.9639 7.58966 15.1324 7.15537C15.301 6.72124 15.3267 5.96008 15.3267 5.96008C15.3267 5.96008 14.3968 6.40445 14.1412 6.9255C13.8859 7.44671 14.034 7.94727 14.034 7.94727Z" fill="#00AA30"/>
<path d="M15.1684 7.16571C14.9996 7.59984 14.0697 7.95761 14.0697 7.95761C14.0697 7.95761 13.9216 7.45689 14.177 6.93584C14.4325 6.41463 15.3265 5.96216 15.3265 5.96216C15.3265 5.96216 15.3369 6.73142 15.1684 7.16571Z" fill="url(#paint18_linear_882_26052)"/>
<path d="M13.7375 8.96387C13.7375 8.96387 14.1922 7.83485 14.5244 7.57441C14.8565 7.3138 15.4951 7.17581 15.4951 7.17581C15.4951 7.17581 15.2908 8.11578 14.9586 8.41721C14.6265 8.71863 13.7375 8.96387 13.7375 8.96387Z" fill="#00AA30"/>
<path d="M15.4941 7.1756C15.4941 7.1756 15.2905 8.15159 14.9584 8.45302C14.6264 8.75444 13.7373 8.99951 13.7373 8.99951C13.7373 8.99951 14.192 7.87066 14.5242 7.61005C14.8561 7.34961 15.4941 7.1756 15.4941 7.1756Z" fill="url(#paint19_linear_882_26052)"/>
<path d="M13.3133 9.70459C13.3133 9.70459 13.7221 9.06605 14.1921 8.7595C14.6622 8.45295 15.4644 8.44271 15.4644 8.44271C15.4644 8.44271 15.0505 9.36235 14.5293 9.53091C14.0082 9.69947 13.3133 9.70459 13.3133 9.70459Z" fill="#00AA30"/>
<path d="M15.4639 8.44377C15.4639 8.44377 15.0507 9.39811 14.5293 9.56667C14.0084 9.73523 13.3135 9.74036 13.3135 9.74036C13.3135 9.74036 13.7221 9.10181 14.1922 8.79543C14.6622 8.48889 15.4639 8.44377 15.4639 8.44377Z" fill="url(#paint20_linear_882_26052)"/>
<path d="M12.7664 10.5445C12.7664 10.5445 13.3771 10.0116 13.6735 9.87889C13.9698 9.74603 14.1895 9.67959 14.4553 9.68984C14.7209 9.70009 15.1035 9.71562 15.1035 9.71562C15.1035 9.71562 14.4961 10.5072 14.0363 10.6144C13.5764 10.7217 12.7664 10.5445 12.7664 10.5445Z" fill="#0B3D00"/>
<path d="M12.7739 10.5301C12.7739 10.5301 13.3593 9.93953 13.6557 9.80683C13.9521 9.67396 14.1717 9.60753 14.4375 9.61778C14.7031 9.62802 15.0864 9.69941 15.0864 9.69941C15.0864 9.69941 14.4783 10.4351 14.0185 10.5424C13.5587 10.6496 12.7739 10.5301 12.7739 10.5301Z" fill="#00AA30"/>
<path d="M14.5996 10.7821C14.5996 10.7821 13.9168 11.3194 13.596 11.4722C13.275 11.6252 12.0924 11.3081 12.0924 11.3081C12.0998 11.2971 12.9765 10.6962 13.4393 10.6291C13.5005 10.6203 13.5659 10.6164 13.6332 10.6164C14.0743 10.6164 14.5996 10.7821 14.5996 10.7821Z" fill="url(#paint21_linear_882_26052)"/>
<path d="M11.6641 11.654C11.6641 11.654 12.2823 12.0764 12.7264 12.1844C13.1704 12.2927 14.2065 11.9407 14.2065 11.9407C14.2065 11.9407 13.5062 11.3638 13.0846 11.3228C12.6629 11.2818 11.6641 11.654 11.6641 11.654Z" fill="#00AA30"/>
<path d="M11.66 11.654C11.66 11.654 12.2823 12.1606 12.7262 12.2689C13.1702 12.3771 14.2065 11.9397 14.2065 11.9397C14.2065 11.9397 13.5061 11.4482 13.0844 11.4072C12.6628 11.3661 11.66 11.654 11.66 11.654Z" fill="#0B3D00"/>
<path d="M13.0659 11.3587C13.4875 11.3997 14.2075 11.9407 14.2075 11.9407C14.2075 11.9407 13.1515 12.3286 12.7077 12.2205C12.2636 12.1121 11.6593 11.6533 11.6593 11.6533C11.6593 11.6533 12.534 11.355 12.9877 11.355C13.0153 11.355 13.0414 11.3564 13.0659 11.3587Z" fill="url(#paint22_linear_882_26052)"/>
<path d="M10.6287 12.3006C10.6287 12.3006 11.1219 12.0681 11.8424 11.9693C12.5629 11.8705 13.3564 12.4879 13.3564 12.4879C13.3564 12.4879 12.6146 12.9038 11.8376 12.9455C11.0606 12.9869 10.5253 12.2739 10.5253 12.2739L10.6287 12.3006Z" fill="#00AA30"/>
<path d="M10.6043 12.3463C10.6043 12.3463 11.0975 12.1138 11.818 12.0149C12.5385 11.9161 13.354 12.4887 13.354 12.4887C13.354 12.4887 12.5902 12.9494 11.8132 12.9911C11.0362 13.0326 10.5008 12.3195 10.5008 12.3195L10.6043 12.3463Z" fill="#0B3D00"/>
<path d="M13.356 12.4897C13.356 12.4897 12.5923 12.9161 11.8155 12.9577C11.0385 12.9992 10.5031 12.2861 10.5031 12.2861L10.6064 12.3129C10.6064 12.3129 11.0998 12.0804 11.8201 11.9815C11.8745 11.9741 11.9292 11.9708 11.9841 11.9708C12.6588 11.9706 13.356 12.4897 13.356 12.4897Z" fill="url(#paint23_linear_882_26052)"/>
<path d="M10.0779 12.8126C10.0779 12.8126 10.5489 13.1763 10.8937 13.1652C11.2385 13.1541 11.7074 12.9649 11.7691 12.9299C11.8051 12.9096 11.8301 12.8856 11.8301 12.8856C11.8301 12.8856 11.4132 12.5888 11.0281 12.5924C10.6428 12.5961 10.0779 12.8126 10.0779 12.8126Z" fill="#0B3D00"/>
<path d="M10.0973 12.8035C10.0973 12.8035 10.5521 13.0798 10.8969 13.0687C11.2417 13.0576 11.7508 12.9172 11.81 12.897C11.8315 12.8896 11.8049 12.8674 11.8049 12.8674C11.8049 12.8674 11.4158 12.546 11.0305 12.5496C10.6452 12.5533 10.0973 12.8035 10.0973 12.8035Z" fill="#00AA30"/>
<path d="M13.8667 8.64056C13.8667 8.64056 13.3039 7.53551 13.3039 6.89597C13.3039 6.25644 13.7609 5.51147 13.7609 5.51147C13.7609 5.51147 14.2247 6.20009 14.3723 6.86077C14.5201 7.5213 13.93 8.51398 13.8667 8.64056Z" fill="#00AA30"/>
<path d="M14.3303 6.86065C14.4779 7.52134 13.9302 8.51947 13.8669 8.64606C13.8669 8.64606 13.2619 7.53555 13.2619 6.89601C13.2619 6.25648 13.7596 5.513 13.7596 5.513C13.7596 5.513 14.1827 6.20013 14.3303 6.86065Z" fill="url(#paint24_linear_882_26052)"/>
<path d="M12.7869 10.498C12.7869 10.498 12.6007 9.53574 12.6218 8.94545C12.643 8.35516 12.8678 8.03176 13.0296 7.84915C13.1912 7.66638 13.3745 7.41404 13.3745 7.41404C13.3745 7.41404 13.9223 8.66435 13.6833 9.27579C13.4443 9.88724 12.7869 10.498 12.7869 10.498Z" fill="#00AA30"/>
<path d="M13.6409 9.27567C13.4019 9.88712 12.7682 10.5437 12.7682 10.5437C12.7682 10.5437 12.5584 9.53578 12.5796 8.9455C12.6006 8.35521 12.8255 8.0318 12.9872 7.8492C13.1488 7.66643 13.3738 7.41342 13.3738 7.41342C13.3738 7.41342 13.8801 8.6644 13.6409 9.27567Z" fill="url(#paint25_linear_882_26052)"/>
<path d="M12.1497 11.2205C12.1497 11.2205 11.8825 10.4995 11.9193 10.0039C11.9562 9.50848 12.0089 9.25548 12.1883 8.96034C12.3674 8.66519 12.3621 8.6447 12.3621 8.6447C12.3621 8.6447 12.7206 9.32406 12.7577 9.83536C12.7945 10.3467 12.4291 10.8305 12.1497 11.2205Z" fill="#00AA30"/>
<path d="M12.7154 9.83521C12.7522 10.3467 12.4291 10.8338 12.1496 11.2238C12.1496 11.2238 11.8402 10.4995 11.877 10.0039C11.9139 9.50851 11.9668 9.2555 12.146 8.96036C12.3251 8.66521 12.3622 8.64406 12.3622 8.64406C12.3622 8.64406 12.6784 9.32408 12.7154 9.83521Z" fill="url(#paint26_linear_882_26052)"/>
<path d="M11.499 11.7838C11.499 11.7838 11.2135 10.9501 11.2191 10.5192C11.2247 10.0883 11.4485 9.74708 11.5773 9.56795C11.7061 9.38898 11.7619 9.32172 11.7619 9.32172C11.7619 9.32172 12.1817 10.0883 12.0978 10.6647C12.0138 11.2411 11.499 11.7838 11.499 11.7838Z" fill="#00AA30"/>
<path d="M12.0557 10.7068C11.9717 11.2834 11.4569 11.826 11.4569 11.826C11.4569 11.826 11.1714 10.9922 11.177 10.5614C11.1825 10.1305 11.4064 9.78912 11.5352 9.61015C11.664 9.43102 11.762 9.32344 11.762 9.32344C11.762 9.32344 12.1397 10.1305 12.0557 10.7068Z" fill="url(#paint27_linear_882_26052)"/>
<path d="M11.1271 10.2036C11.1271 10.2036 11.3463 10.9828 11.3055 11.3396C11.2647 11.6962 10.6204 12.3033 10.6204 12.3033C10.6204 12.3033 10.3982 11.7267 10.4186 11.3293C10.439 10.9319 10.7296 10.4941 11.1271 10.2036Z" fill="#00AA30"/>
<path d="M11.2755 11.3298C11.2345 11.6866 10.623 12.3031 10.623 12.3031C10.623 12.3031 10.3683 11.7171 10.3886 11.3195C10.4089 10.9223 10.7299 10.4941 11.1276 10.2037C11.1276 10.2037 11.3162 10.973 11.2755 11.3298Z" fill="url(#paint28_linear_882_26052)"/>
<path d="M10.0791 12.8151C10.0791 12.8151 10.0448 11.9421 10.1794 11.6895C10.3141 11.4372 10.6506 11.1624 10.6506 11.1624C10.6506 11.1624 10.92 11.8467 10.7124 12.2113C10.5048 12.5758 10.0791 12.8151 10.0791 12.8151Z" fill="#0B3D00"/>
<path d="M10.1233 12.7432C10.1233 12.7432 10.0896 11.8682 10.2243 11.6157C10.359 11.3633 10.6955 11.0885 10.6955 11.0885C10.6955 11.0885 10.965 11.7728 10.7574 12.1374C10.5498 12.5019 10.1233 12.7432 10.1233 12.7432Z" fill="#00AA30"/>
<path d="M10.7442 12.1797C10.5365 12.5442 10.0831 12.8039 10.0831 12.8039C10.0831 12.8039 10.0767 11.9103 10.2112 11.658C10.3459 11.4055 10.6824 11.1307 10.6824 11.1307C10.6824 11.1307 10.9517 11.815 10.7442 12.1797Z" fill="url(#paint29_linear_882_26052)"/>
<path d="M11.0374 12.5803C11.4207 12.5803 11.8306 12.885 11.8306 12.885C11.8306 12.885 11.8312 12.885 11.7716 12.9177C11.7168 12.9478 11.2397 13.1306 10.8947 13.1415C10.5498 13.1525 10.0795 12.8098 10.0795 12.8098C10.0795 12.8098 10.6451 12.5839 11.0304 12.5803C11.0327 12.5803 11.035 12.5803 11.0374 12.5803Z" fill="url(#paint30_linear_882_26052)"/>
<path d="M14.4575 9.63312C14.7233 9.6432 15.0854 9.69955 15.0854 9.69955C15.0854 9.69955 14.4985 10.4505 14.0387 10.5577C13.5787 10.665 12.7691 10.541 12.7691 10.541C12.7691 10.541 13.3795 9.95487 13.6759 9.822C13.9524 9.69806 14.1622 9.63213 14.4048 9.63213C14.4222 9.63213 14.4397 9.63246 14.4575 9.63312Z" fill="url(#paint31_linear_882_26052)"/>
</g>
<defs>
<linearGradient id="paint0_linear_882_26052" x1="14.3768" y1="12.6601" x2="12.8586" y2="13.2506" gradientUnits="userSpaceOnUse">
<stop stop-color="white"/>
<stop offset="1" stop-color="#DADADA"/>
</linearGradient>
<linearGradient id="paint1_linear_882_26052" x1="3.2067" y1="12.8281" x2="4.72494" y2="13.4186" gradientUnits="userSpaceOnUse">
<stop stop-color="white"/>
<stop offset="1" stop-color="#DADADA"/>
</linearGradient>
<linearGradient id="paint2_linear_882_26052" x1="4.90719" y1="3.86548" x2="2.80116" y2="6.37618" gradientUnits="userSpaceOnUse">
<stop stop-color="#3AAA35"/>
<stop offset="1" stop-color="#0F2A00"/>
</linearGradient>
<linearGradient id="paint3_linear_882_26052" x1="2.26844" y1="6.95988" x2="3.56821" y2="6.95988" gradientUnits="userSpaceOnUse">
<stop stop-color="#3AAA35"/>
<stop offset="1" stop-color="#0F2A00"/>
</linearGradient>
<linearGradient id="paint4_linear_882_26052" x1="2.10117" y1="8.08757" x2="3.85792" y2="8.08757" gradientUnits="userSpaceOnUse">
<stop stop-color="#3AAA35"/>
<stop offset="1" stop-color="#0F2A00"/>
</linearGradient>
<linearGradient id="paint5_linear_882_26052" x1="2.13142" y1="9.09202" x2="4.28187" y2="9.09202" gradientUnits="userSpaceOnUse">
<stop stop-color="#3AAA35"/>
<stop offset="1" stop-color="#0F2A00"/>
</linearGradient>
<linearGradient id="paint6_linear_882_26052" x1="2.99557" y1="11.0652" x2="5.50289" y2="11.0652" gradientUnits="userSpaceOnUse">
<stop stop-color="#3AAA35"/>
<stop offset="1" stop-color="#0F2A00"/>
</linearGradient>
<linearGradient id="paint7_linear_882_26052" x1="3.38767" y1="11.7973" x2="5.93604" y2="11.7973" gradientUnits="userSpaceOnUse">
<stop stop-color="#3AAA35"/>
<stop offset="1" stop-color="#0F2A00"/>
</linearGradient>
<linearGradient id="paint8_linear_882_26052" x1="4.24084" y1="12.4276" x2="7.08684" y2="12.4992" gradientUnits="userSpaceOnUse">
<stop stop-color="#3AAA35"/>
<stop offset="1" stop-color="#0F2A00"/>
</linearGradient>
<linearGradient id="paint9_linear_882_26052" x1="4.51124" y1="5.85737" x2="2.98791" y2="8.41106" gradientUnits="userSpaceOnUse">
<stop stop-color="#3AAA35"/>
<stop offset="1" stop-color="#0F2A00"/>
</linearGradient>
<linearGradient id="paint10_linear_882_26052" x1="4.59293" y1="7.71573" x2="4.31798" y2="10.2542" gradientUnits="userSpaceOnUse">
<stop stop-color="#3AAA35"/>
<stop offset="1" stop-color="#0F2A00"/>
</linearGradient>
<linearGradient id="paint11_linear_882_26052" x1="5.53724" y1="8.67446" x2="5.08136" y2="11.2445" gradientUnits="userSpaceOnUse">
<stop stop-color="#3AAA35"/>
<stop offset="1" stop-color="#0F2A00"/>
</linearGradient>
<linearGradient id="paint12_linear_882_26052" x1="5.52736" y1="10.5747" x2="6.41831" y2="10.5747" gradientUnits="userSpaceOnUse">
<stop stop-color="#3AAA35"/>
<stop offset="1" stop-color="#0F2A00"/>
</linearGradient>
<linearGradient id="paint13_linear_882_26052" x1="6.31407" y1="11.2534" x2="7.20789" y2="11.2534" gradientUnits="userSpaceOnUse">
<stop stop-color="#3AAA35"/>
<stop offset="1" stop-color="#0F2A00"/>
</linearGradient>
<linearGradient id="paint14_linear_882_26052" x1="6.77245" y1="11.9673" x2="7.51213" y2="11.9673" gradientUnits="userSpaceOnUse">
<stop stop-color="#3AAA35"/>
<stop offset="1" stop-color="#0F2A00"/>
</linearGradient>
<linearGradient id="paint15_linear_882_26052" x1="5.76466" y1="12.861" x2="7.51559" y2="12.861" gradientUnits="userSpaceOnUse">
<stop stop-color="#3AAA35"/>
<stop offset="1" stop-color="#0F2A00"/>
</linearGradient>
<linearGradient id="paint16_linear_882_26052" x1="2.50977" y1="10.1167" x2="4.8261" y2="10.1167" gradientUnits="userSpaceOnUse">
<stop stop-color="#3AAA35"/>
<stop offset="1" stop-color="#0F2A00"/>
</linearGradient>
<linearGradient id="paint17_linear_882_26052" x1="12.688" y1="3.86548" x2="14.7941" y2="6.37618" gradientUnits="userSpaceOnUse">
<stop stop-color="#3AAA35"/>
<stop offset="1" stop-color="#0F2A00"/>
</linearGradient>
<linearGradient id="paint18_linear_882_26052" x1="15.3268" y1="6.95988" x2="14.027" y2="6.95988" gradientUnits="userSpaceOnUse">
<stop stop-color="#3AAA35"/>
<stop offset="1" stop-color="#0F2A00"/>
</linearGradient>
<linearGradient id="paint19_linear_882_26052" x1="15.494" y1="8.08754" x2="13.7373" y2="8.08754" gradientUnits="userSpaceOnUse">
<stop stop-color="#3AAA35"/>
<stop offset="1" stop-color="#0F2A00"/>
</linearGradient>
<linearGradient id="paint20_linear_882_26052" x1="15.4638" y1="9.09202" x2="13.3133" y2="9.09202" gradientUnits="userSpaceOnUse">
<stop stop-color="#3AAA35"/>
<stop offset="1" stop-color="#0F2A00"/>
</linearGradient>
<linearGradient id="paint21_linear_882_26052" x1="14.5996" y1="11.0652" x2="12.0923" y2="11.0652" gradientUnits="userSpaceOnUse">
<stop stop-color="#3AAA35"/>
<stop offset="1" stop-color="#0F2A00"/>
</linearGradient>
<linearGradient id="paint22_linear_882_26052" x1="14.2075" y1="11.7973" x2="11.6592" y2="11.7973" gradientUnits="userSpaceOnUse">
<stop stop-color="#3AAA35"/>
<stop offset="1" stop-color="#0F2A00"/>
</linearGradient>
<linearGradient id="paint23_linear_882_26052" x1="13.3544" y1="12.4276" x2="10.5084" y2="12.4992" gradientUnits="userSpaceOnUse">
<stop stop-color="#3AAA35"/>
<stop offset="1" stop-color="#0F2A00"/>
</linearGradient>
<linearGradient id="paint24_linear_882_26052" x1="13.084" y1="5.85737" x2="14.6073" y2="8.41106" gradientUnits="userSpaceOnUse">
<stop stop-color="#3AAA35"/>
<stop offset="1" stop-color="#0F2A00"/>
</linearGradient>
<linearGradient id="paint25_linear_882_26052" x1="13.0023" y1="7.71573" x2="13.2772" y2="10.2542" gradientUnits="userSpaceOnUse">
<stop stop-color="#3AAA35"/>
<stop offset="1" stop-color="#0F2A00"/>
</linearGradient>
<linearGradient id="paint26_linear_882_26052" x1="12.058" y1="8.67446" x2="12.5139" y2="11.2445" gradientUnits="userSpaceOnUse">
<stop stop-color="#3AAA35"/>
<stop offset="1" stop-color="#0F2A00"/>
</linearGradient>
<linearGradient id="paint27_linear_882_26052" x1="12.0678" y1="10.5747" x2="11.1769" y2="10.5747" gradientUnits="userSpaceOnUse">
<stop stop-color="#3AAA35"/>
<stop offset="1" stop-color="#0F2A00"/>
</linearGradient>
<linearGradient id="paint28_linear_882_26052" x1="11.2811" y1="11.2534" x2="10.3873" y2="11.2534" gradientUnits="userSpaceOnUse">
<stop stop-color="#3AAA35"/>
<stop offset="1" stop-color="#0F2A00"/>
</linearGradient>
<linearGradient id="paint29_linear_882_26052" x1="10.8228" y1="11.9673" x2="10.0831" y2="11.9673" gradientUnits="userSpaceOnUse">
<stop stop-color="#3AAA35"/>
<stop offset="1" stop-color="#0F2A00"/>
</linearGradient>
<linearGradient id="paint30_linear_882_26052" x1="11.8306" y1="12.861" x2="10.0796" y2="12.861" gradientUnits="userSpaceOnUse">
<stop stop-color="#3AAA35"/>
<stop offset="1" stop-color="#0F2A00"/>
</linearGradient>
<linearGradient id="paint31_linear_882_26052" x1="15.0854" y1="10.1167" x2="12.7691" y2="10.1167" gradientUnits="userSpaceOnUse">
<stop stop-color="#3AAA35"/>
<stop offset="1" stop-color="#0F2A00"/>
</linearGradient>
<clipPath id="clip0_882_26052">
<rect width="16.3028" height="16" fill="white" transform="translate(0.757812)"/>
</clipPath>
</defs>
</svg>
