<svg width="18" height="16" viewBox="0 0 18 16" fill="none" xmlns="http://www.w3.org/2000/svg">
<g clip-path="url(#clip0_876_2788)">
<path d="M16.7714 2.53663C16.3976 3.52021 15.908 4.54833 15.6632 4.97116C15.2493 5.67883 14.4259 6.10166 13.9453 6.26632C13.9453 6.26632 13.7094 6.836 13.4646 7.14758H14.4482V8.48278L15.3918 8.93229L14.4482 9.40406V10.5346L13.5359 11.0953C13.5359 11.0953 12.8104 11.0063 12.4543 10.9663L9.5703 12.6353C9.00061 15.2479 8.85375 16 8.85375 16C8.85375 16 8.71578 15.2835 8.13721 12.6353L5.25287 10.9665C4.90127 11.0066 4.17135 11.0956 4.17135 11.0956L3.25897 10.5348V9.40431L2.31543 8.93699L3.25897 8.48748V7.14335H4.24256C4.00222 6.84515 3.75744 6.25321 3.75744 6.25321C3.47259 6.1553 3.18775 6.02623 2.94295 5.87046C2.55129 5.62567 2.23528 5.30077 2.03058 4.96696C1.66562 4.26822 1.19829 3.23117 0.949051 2.53243C0.779926 2.10961 0.575195 1.46427 0.575195 1.46427C0.575195 1.46427 1.11372 1.71795 1.27393 1.79807C1.02025 1.02362 0.793263 0 0.793263 0C0.793263 0 4.48285 2.43453 7.07286 4.50407L7.11292 4.47292V4.33495C7.11292 4.30379 7.11292 4.25483 7.13072 4.18808C7.16187 4.09906 7.22863 4.00115 7.37551 3.90323C7.18858 3.75637 6.83698 3.52938 6.80582 3.48933C6.56103 3.27125 6.51208 3.02646 6.52988 2.91074L6.56994 2.6348L7.97191 3.67622C8.73743 3.45814 9.27594 3.56051 9.68097 3.67622L11.0829 2.6348L11.123 2.91074C11.1408 3.03981 11.1052 3.27569 10.8471 3.48933C10.8159 3.52048 10.4732 3.75637 10.2774 3.90323C10.4332 4.00115 10.4955 4.09906 10.5222 4.18808C10.54 4.25484 10.54 4.30379 10.54 4.33495V4.47292L10.58 4.50407C13.2371 2.38556 16.8689 0.00443527 16.8689 0.00443527C16.8689 0.00443527 16.6819 0.850093 16.3882 1.8025C16.5351 1.73574 17.0869 1.4687 17.0869 1.4687C16.989 1.98498 16.7709 2.53686 16.7709 2.53686L16.7714 2.53663Z" fill="#A1A1A4"/>
<path d="M4.61214 7.30326H3.43273V8.58061L2.72506 8.92331L3.43273 9.29717V10.4277L4.21605 10.9083C4.50089 10.8683 4.86582 10.8193 5.29758 10.7793L8.31066 12.5151L8.86255 15.0386C8.86255 15.0297 9.42333 12.5151 9.42333 12.5151L12.4364 10.7793C12.8592 10.8282 13.2331 10.8683 13.5179 10.9083L14.2924 10.4277V9.29717L15.0001 8.93221L14.2924 8.58061V7.30325H13.113C13.113 7.30325 13.2999 7.12522 13.5269 6.73356C13.6248 6.56889 13.7138 6.35971 13.8206 6.12383C14.6752 5.87014 15.3027 5.31827 15.5787 4.78863C16.313 3.45343 16.8649 1.80665 16.8649 1.80665C16.8649 1.80665 16.5489 1.96243 16.1661 2.14935C16.4688 1.20581 16.6646 0.400252 16.6646 0.400252C16.6646 0.400252 13.2866 2.63895 10.6473 4.73967L10.4203 4.60169C10.4203 4.58389 10.4292 4.39696 10.4292 4.37471C10.4292 4.37471 10.4604 4.15663 10.0643 4.0231C10.0331 4.0142 10.0153 4.0053 9.99752 4.0053C10.1844 3.85843 10.4871 3.64034 10.6963 3.49347C11.039 3.25759 10.9989 2.99499 10.9989 2.99499L9.74385 3.9296C8.7825 3.6136 7.97695 3.9296 7.97695 3.9296L6.72189 2.99499C6.72189 2.99499 6.68183 3.24868 7.02453 3.49347C7.24261 3.64034 7.54526 3.85842 7.73221 4.0053C7.7144 4.0142 7.68325 4.0231 7.66544 4.0231C7.27378 4.16107 7.30049 4.37471 7.30049 4.37471C7.30049 4.39251 7.30939 4.57944 7.30939 4.60169L7.0824 4.71741C4.442 2.62169 1.06843 0.387482 1.06843 0.387482C1.06843 0.387482 1.25536 1.19304 1.5669 2.13658C1.15299 1.94075 0.868164 1.79388 0.868164 1.79388C0.868164 1.79388 1.41559 3.44509 2.14552 4.77586C2.41256 5.31438 3.04902 5.85738 3.90355 6.11106C3.90355 6.11106 4.05042 6.44486 4.17059 6.68074C4.32637 6.98339 4.61121 7.30383 4.61121 7.30383L4.61214 7.30326Z" fill="#1D0B62"/>
<path d="M16.0013 1.32153C13.5711 2.80802 11.404 4.4771 10.273 5.38947C10.2644 5.42951 10.2422 5.46962 10.233 5.49629C11.4219 4.7219 13.4824 3.37771 15.7968 1.87342C15.7968 1.87342 15.7968 1.92239 16.0013 1.32153ZM1.70557 1.32597C1.9014 1.91346 1.91033 1.87785 1.91033 1.87785C4.22467 3.36884 6.29865 4.72634 7.48724 5.50079C7.46507 5.46962 7.45583 5.42951 7.4472 5.38947C6.32982 4.4771 4.15784 2.80802 1.70557 1.32597ZM8.8907 4.05988C8.69912 4.05877 8.49768 4.08095 8.29686 4.12992C8.50631 4.42363 8.47551 4.83759 8.47551 4.83759C8.39481 4.46373 8.15026 4.29014 8.00364 4.21C7.94574 4.2278 7.87859 4.24567 7.79851 4.27678C7.95436 4.33912 8.14163 4.4949 8.27038 4.78862C8.33259 4.93547 8.36832 5.49635 8.68433 5.63434C8.42191 5.87908 8.09666 5.8123 7.85211 5.59423C8.15457 6.25293 8.66647 6.50673 8.86236 6.58681C9.03608 6.45314 9.12478 6.04823 9.04039 5.63434C9.3564 5.49635 9.39644 4.93547 9.45435 4.78862C9.58371 4.48154 9.77036 4.34355 9.92621 4.27678C9.85968 4.25897 9.78822 4.2278 9.72169 4.21C9.57447 4.28571 9.32991 4.4726 9.24983 4.83759C9.24983 4.83759 9.22273 4.42363 9.42786 4.12992C9.26523 4.08538 9.08289 4.06099 8.8907 4.05988ZM13.3266 6.19072L13.0993 6.25724C12.3342 6.46176 10.8921 6.65765 10.8921 6.65765C11.5864 6.66689 12.187 6.7248 12.5208 6.76484C12.5923 6.67552 12.6767 6.57757 12.7081 6.48886C12.7081 6.48886 12.6767 6.75128 12.6188 6.92069C12.5529 7.13752 12.4599 7.32048 12.4254 7.36113C12.4845 7.3174 13.0192 6.90529 13.3266 6.19072ZM12.4254 7.36113C12.4223 7.3636 12.4143 7.36976 12.4143 7.36976C12.4161 7.37037 12.4204 7.36729 12.4254 7.36113ZM4.38521 6.19503C4.71902 6.96073 5.29764 7.37469 5.29764 7.37469C5.29764 7.37469 5.18189 7.16955 5.09288 6.925C5.03503 6.76052 5.00386 6.49318 5.00386 6.49318C5.03503 6.57326 5.12405 6.68044 5.19082 6.76915C5.52464 6.72911 6.121 6.68044 6.81986 6.66258C6.81986 6.66258 5.36885 6.45745 4.61221 6.26156L4.38521 6.19503ZM5.58242 10.1116C5.4756 10.1209 5.37778 10.1295 5.27984 10.143L7.33176 11.3313C7.22027 11.2112 7.13156 11.0954 7.05579 10.966L5.58242 10.1116ZM12.1386 10.1116L10.6651 10.966C10.5986 11.0954 10.5093 11.2112 10.3891 11.3313L12.4411 10.143C12.3431 10.1295 12.2452 10.1209 12.1386 10.1116ZM8.73392 10.1831C8.31997 10.1917 8.00826 10.241 7.7902 10.2983C7.83886 10.3562 7.89677 10.4055 7.94605 10.4541C8.1906 10.69 8.40867 10.7972 8.40867 11.1219C8.40867 11.2198 8.36001 11.3091 8.29286 11.3757C8.25282 11.4336 8.17274 11.4736 8.10621 11.5137C8.08835 11.5272 8.05693 11.5358 8.03968 11.5445C8.31504 11.7139 8.51093 11.7804 8.59101 11.8118C8.59101 11.8118 8.43577 11.8383 8.24851 11.8204C8.31072 11.9184 8.36863 12.0077 8.42653 12.1143C8.47582 12.0964 8.63105 12.0077 8.84912 12.0077C9.07642 12.0077 9.22303 12.0964 9.25445 12.1143C9.30312 12.0077 9.37457 11.9184 9.43248 11.8204C9.25445 11.8518 9.08998 11.8118 9.08998 11.8118C9.17006 11.7804 9.37457 11.7225 9.6413 11.5445C9.62406 11.5315 9.59264 11.5223 9.57478 11.5137C9.51687 11.4822 9.44603 11.4336 9.38812 11.3757C9.32098 11.3091 9.27232 11.2291 9.27232 11.1219C9.27232 10.8059 9.49038 10.69 9.73494 10.4541C9.78422 10.4055 9.83288 10.3475 9.89079 10.2983C9.6641 10.241 9.36102 10.1917 8.94706 10.1831L8.84049 11.5494H8.83125L8.73392 10.1831ZM7.66576 10.3211C7.46063 10.4011 7.34051 10.4769 7.27398 10.5256C7.42059 10.6636 7.69656 10.8416 8.18629 10.9482C8.1327 10.8015 7.97685 10.6414 7.81237 10.4677L7.66576 10.3211ZM10.051 10.3297L9.90434 10.4763C9.74418 10.6414 9.58833 10.8015 9.53042 10.9574C10.0288 10.8502 10.2961 10.6722 10.4427 10.5342C10.3848 10.4769 10.2555 10.3962 10.051 10.3297ZM7.28261 10.7079C7.42059 10.9753 7.61648 11.2198 7.86104 11.3757C7.87028 11.38 8.14625 11.2913 8.20415 11.1712C7.55427 11.0239 7.28261 10.7079 7.28261 10.7079ZM10.4427 10.7122C10.4427 10.7122 10.1754 11.0375 9.52118 11.1755C9.57909 11.2913 9.8643 11.38 9.8643 11.38C10.1089 11.202 10.314 10.9796 10.4427 10.7122Z" fill="#00788D"/>
<path d="M15.8189 1.86899C13.5045 3.36885 11.4391 4.71748 10.2557 5.49186C10.2064 5.62092 10.1578 5.72773 10.0999 5.83455L14.7729 3.29326L11.1323 5.92356L11.3103 5.89239L13.2329 5.70543C13.2329 5.70543 14.537 5.57638 15.2669 4.6061C15.6094 4.07646 16.1879 2.55442 16.1879 2.55442L15.3292 2.98606C15.6051 2.33629 15.8189 1.86899 15.8189 1.86899ZM1.91064 1.87786C1.91064 1.87786 2.11534 2.33629 2.40018 2.98606L1.55908 2.56329C1.55908 2.56329 2.13764 4.08539 2.47589 4.61503C3.2058 5.58525 4.50977 5.7143 4.50977 5.7143L6.43252 5.90132L6.61048 5.93243L2.96987 3.30213L7.62985 5.84342C7.57195 5.7366 7.52267 5.62985 7.474 5.50079C6.29009 4.72635 4.22498 3.37772 1.91064 1.87786ZM8.14157 5.16692C8.14588 5.16692 7.82987 5.69662 8.41754 5.66545C8.41754 5.66545 8.18161 5.5096 8.14157 5.16692ZM9.59658 5.16692C9.55654 5.5096 9.32061 5.66545 9.32061 5.66545C9.89966 5.69662 9.59658 5.16692 9.59658 5.16692ZM5.69792 7.04082V7.55272L5.7692 7.61925H6.12075V7.4326H5.98283V7.48989H5.84928V7.1788H5.98283V7.21884H6.12075V7.04082H5.69792ZM6.4457 7.04082V7.61925H6.58368V7.4326H6.74816V7.61925H6.88614V7.04082H6.74816V7.30324H6.58368V7.04082H6.4457ZM7.20216 7.04082V7.61062H7.34938V7.42336H7.51817V7.61062H7.65184V7.10735L7.58531 7.04082H7.20216ZM7.65184 7.61062V7.61925L7.65616 7.61062H7.65184ZM8.79146 7.04082V7.61925H9.14751V7.48989H8.93807V7.04082H8.79146ZM9.43211 7.04082V7.55272L9.49864 7.61925H9.8818V7.10735L9.81465 7.04082H9.43211ZM10.1978 7.04082V7.1788H10.3266V7.61925H10.4824V7.1788L10.5982 7.16956V7.04082H10.1978ZM10.8921 7.04082V7.1788H11.0208V7.61925H11.1766V7.1788L11.2838 7.16956V7.04082H10.8921ZM11.6171 7.04082V7.61925H12.0403V7.48989H11.7551V7.40118H12.0403V7.26751H11.7551V7.1788H12.0403V7.04082H11.6171ZM7.98572 7.05375V7.62356H8.13233V7.42336H8.23952L8.32822 7.61925H8.47545L8.38181 7.42336H8.43972V7.1209L8.37257 7.05375H7.98572ZM7.34938 7.16525H7.51817V7.30324H7.34938V7.16525ZM8.13233 7.16956H8.30173V7.28537H8.13233V7.16956ZM9.5701 7.17449H9.73457V7.48989H9.5701V7.17449ZM12.5522 7.61062L12.708 7.78865V8.72314L13.5224 9.07488V9.59541C13.5224 9.59541 13.3351 9.57754 13.0992 9.5375V9.37303L12.708 9.32375V9.85351C13.1393 9.90218 13.5403 9.96008 13.9136 10.0315C13.905 9.7377 13.905 9.30588 13.905 9.09213C14.0343 9.03484 14.1495 8.97693 14.2702 8.91472C13.8785 8.72745 13.4867 8.5716 13.0813 8.41575V7.96668H13.5045V8.13115H13.905V7.61062H12.5522ZM3.78885 7.61925V8.77673C3.78885 8.77673 3.46391 8.93196 3.46391 8.9412L3.78885 9.10999V10.0537C3.9179 10.0359 4.04252 10.0051 4.18051 9.98719V9.0835L4.62995 8.89685V9.90711C4.75906 9.88924 4.88362 9.86707 5.02161 9.85783V7.61925H4.62995V8.42499L4.18051 8.61164V7.61925H3.78885ZM6.7083 7.95313L6.86415 8.13978V9.68904C7.00214 9.6798 7.11795 9.6798 7.25593 9.67118V9.06995H7.25162C7.34957 9.06995 7.43827 9.06133 7.54546 9.06133C7.62554 9.24798 7.69207 9.46173 7.76291 9.649C7.9009 9.649 8.01671 9.63976 8.15469 9.63976C8.07461 9.45311 8.00808 9.23935 7.93662 9.05209H8.09247V8.13115L7.91445 7.95313H6.7083ZM5.17296 7.96175L5.31988 8.13978V9.61327L5.47567 9.79992C5.81835 9.75988 6.19221 9.73339 6.56607 9.71122V8.14902L6.37911 7.96175H5.17296ZM11.3639 7.96175V8.32704H11.7064V9.75126C11.853 9.75988 11.9909 9.76912 12.1382 9.7913V8.32704H12.4807V7.96175H11.3639ZM8.23945 7.96668L8.39469 8.15333V9.65331H8.79571C8.7914 9.63976 8.7914 8.32704 8.7914 8.32704H9.24047V9.64407C9.37846 9.64407 9.51644 9.64407 9.65443 9.65331V8.15333L9.46778 7.96668H8.23945ZM9.81028 7.9753L9.95689 8.16195V9.67549C10.3579 9.68411 10.7626 9.7069 11.1452 9.73339V9.33299H11.1365V9.32806C10.8827 9.31943 10.6246 9.29726 10.3708 9.28802V9.01205C10.6246 9.02129 10.8827 9.02991 11.1365 9.04346V8.65168C10.8827 8.64306 10.6246 8.64306 10.3708 8.63382V8.3406H11.1365V7.9753H9.81028ZM5.71123 8.32704H6.16073V9.34592C6.00494 9.35516 5.86702 9.36379 5.71123 9.37734V8.32704ZM7.25138 8.32704H7.70045V8.67878C7.54521 8.67878 7.40661 8.67878 7.25138 8.68741V8.32704ZM8.85362 12.4081C8.66635 12.4081 8.61768 12.4574 8.55978 12.4974L8.86224 13.7122L9.14745 12.506C9.10741 12.4574 9.04027 12.4081 8.85362 12.4081Z" fill="white"/>
</g>
<defs>
<clipPath id="clip0_876_2788">
<rect width="16.5117" height="16" fill="white" transform="translate(0.575195)"/>
</clipPath>
</defs>
</svg>
