<svg width="17" height="16" viewBox="0 0 17 16" fill="none" xmlns="http://www.w3.org/2000/svg">
<g clip-path="url(#clip0_795_1477)">
<path d="M8.84717 0C4.43604 0 0.847168 3.58887 0.847168 8C0.847168 12.4111 4.43604 16 8.84717 16C13.2583 16 16.8472 12.4111 16.8472 8C16.8472 3.58887 13.2583 0 8.84717 0Z" fill="#141946"/>
<path d="M8.84736 15.4236C12.9473 15.4236 16.2709 12.0999 16.2709 8.00001C16.2709 3.90011 12.9473 0.576477 8.84736 0.576477C4.74746 0.576477 1.42383 3.90011 1.42383 8.00001C1.42383 12.0999 4.74746 15.4236 8.84736 15.4236Z" fill="white"/>
<path d="M12.637 11.5174L13.8892 12.4283C16.1097 9.90353 16.1097 6.09645 13.8892 3.5717L12.637 4.48254C12.5495 4.3884 12.4587 4.29757 12.3646 4.21008L13.2754 2.9579C10.7507 0.73738 6.94359 0.73738 4.41884 2.9579L5.32968 4.21008C5.23553 4.29757 5.14471 4.3884 5.05721 4.48254L3.80504 3.5717C1.58452 6.09645 1.58452 9.90353 3.80504 12.4283L5.05721 11.5174C5.14471 11.6116 5.23553 11.7024 5.32968 11.7899L4.41884 13.0421C6.94359 15.2626 10.7507 15.2626 13.2754 13.0421L12.3646 11.7899C12.4587 11.7024 12.5495 11.6116 12.637 11.5174ZM8.84713 12.7341C6.23681 12.7341 4.11298 10.6103 4.11298 7.99999C4.11298 5.38967 6.23681 3.26584 8.84713 3.26584C11.4574 3.26584 13.5813 5.38967 13.5813 7.99999C13.5813 10.6103 11.4574 12.7341 8.84713 12.7341Z" fill="#7CCDEF"/>
<path d="M9.13602 7.47965L8.84733 6.2829L8.55793 7.47965L7.41846 7.1418L8.2697 7.99977L7.41846 8.85774L8.55793 8.52081L8.84733 9.7171L9.13602 8.52081L10.2764 8.85774L9.42449 7.99977L10.2764 7.1418L9.13602 7.47965Z" fill="#FF0000"/>
<path d="M12.0881 7.13741V5.97775L10.8693 4.75897H6.8248L5.60601 5.97775V7.40523L5.01123 8.00002L5.60601 8.5948V10.0223L6.8248 11.2411H10.8693L12.0881 10.0223V8.86262H10.8582V9.65057L10.4976 10.0111H7.19651L6.83593 9.65057V6.34946L7.19651 5.98888H10.4976L10.8582 6.34946V7.13741H12.0881Z" fill="#FF0000"/>
</g>
<defs>
<clipPath id="clip0_795_1477">
<rect width="16" height="16" fill="white" transform="translate(0.847168)"/>
</clipPath>
</defs>
</svg>
