<svg width="19" height="16" viewBox="0 0 19 16" fill="none" xmlns="http://www.w3.org/2000/svg">
<g clip-path="url(#clip0_876_2715)">
<path d="M18.7041 3.37602C18.6325 2.13817 18.0801 1.02308 17.7527 0.358117L17.7118 0.286506L17.5686 6.10352e-05L17.5993 0.317196C17.63 0.757094 17.7323 2.27116 17.2821 3.14072C16.7195 4.29673 15.0724 4.1842 14.5302 4.15351H14.4995C13.6095 4.09213 10.7144 3.98983 9.82435 3.98983C8.65811 4.00006 7.36911 4.09213 6.32563 4.17397C5.81413 4.21489 5.37423 4.24558 5.07755 4.25581C5.04686 4.25581 5.01617 4.26604 4.96502 4.26604C3.51234 4.39904 2.59162 3.96937 2.23357 2.98728C2.01873 2.3837 2.01873 1.18676 2.01873 0.613876V0.204669L1.9062 0.409273C1.38386 1.33866 1.05991 2.36625 0.954794 3.42717C0.852493 5.2686 1.81413 5.93356 2.54047 6.26093C3.30773 6.61899 4.08523 6.67014 4.34098 6.6906H4.35121C4.40877 6.6991 4.46696 6.70252 4.52512 6.70083C4.61088 6.69785 4.69669 6.70472 4.78088 6.72129C4.63766 6.75198 4.45351 6.78267 4.30006 6.80313C4.12615 6.84405 3.96246 6.86451 3.88062 6.88497C3.70671 6.92589 2.97014 7.08957 2.58139 7.2328C2.25403 7.34533 1.88574 7.51924 1.87551 7.51924L1.81413 7.54993L1.86528 7.61131C1.86528 7.61131 1.98804 7.775 2.1108 7.90799C2.35889 8.13111 2.6508 8.30004 2.96787 8.40397C3.28494 8.5079 3.6202 8.54454 3.95223 8.51157C4.63766 8.42973 5.01617 8.25581 5.15939 8.1842C5.23322 8.44486 5.32203 8.70104 5.42538 8.95146C5.73228 9.71873 6.4484 11.2021 6.71438 11.7136C6.92921 12.133 7.14405 12.5013 7.28727 12.7469L7.33842 12.8389C7.29498 12.9722 7.20864 13.0873 7.0929 13.1663C7.07244 13.1868 7.06221 13.2072 7.04175 13.2175L7.03151 13.2379V13.2686C7.02128 13.4016 6.99059 14.7008 7.86016 15.642L7.87039 15.6522H7.88062C8.32052 15.8261 8.88318 16.0001 9.80389 16.0001C10.7348 16.0001 11.5226 15.775 11.7988 15.642L11.809 15.6318L11.8192 15.6215C12.4228 14.9054 12.7093 13.8108 12.7093 13.4221V13.4016L12.6888 13.3811L12.6479 13.3402C12.5048 13.2136 12.4047 13.0455 12.3614 12.8594C12.4433 12.7366 12.5865 12.4297 12.7093 12.1842C12.7523 12.0748 12.8036 11.9688 12.8627 11.8671C13.1185 11.3556 13.8653 9.7392 14.1722 8.98217C14.3563 8.49112 14.4586 8.25582 14.5098 8.15352C14.6428 8.22513 15.0008 8.38882 15.676 8.46043C16.5456 8.54227 17.3742 7.96938 17.6095 7.64201C17.6504 7.59086 17.7118 7.51925 17.722 7.50902L17.7732 7.44764L17.7016 7.41695C17.6914 7.41695 17.6709 7.40672 17.5277 7.35557L17.0469 7.20212L16.566 7.03843C16.433 6.99751 15.8397 6.86452 15.4203 6.77245L15.0929 6.70084L15.1952 6.68038C16.1977 6.46553 18.8576 6.00517 18.7041 3.37602Z" fill="black"/>
<path d="M1.91631 0.716187C1.88562 1.40161 1.89585 2.14841 2.0493 2.80314C1.91032 2.65552 1.76347 2.5155 1.6094 2.3837C1.46618 2.53716 1.34342 2.70084 1.2002 2.84406C1.34744 2.1072 1.58809 1.39214 1.91631 0.716187Z" fill="#C82344"/>
<path d="M1.91631 0.716187C1.88562 1.40161 1.89585 2.14841 2.0493 2.80314C1.91032 2.65552 1.76347 2.5155 1.6094 2.3837C1.46618 2.53716 1.34342 2.70084 1.2002 2.84406C1.34744 2.1072 1.58809 1.39214 1.91631 0.716187Z" stroke="#C82344" stroke-width="0.0204603"/>
<path d="M18.4381 2.53712L18.479 2.72126L18.121 2.46551C17.9573 2.53712 17.8038 2.63942 17.6504 2.71103C17.7619 2.03855 17.7963 1.35551 17.7527 0.675232C18.0698 1.25835 18.2437 1.89262 18.4381 2.53712Z" fill="#C82344"/>
<path d="M18.4381 2.53712L18.479 2.72126L18.121 2.46551C17.9573 2.53712 17.8038 2.63942 17.6504 2.71103C17.7619 2.03855 17.7963 1.35551 17.7527 0.675232C18.0698 1.25835 18.2437 1.89262 18.4381 2.53712Z" stroke="#C82344" stroke-width="0.0204603"/>
<path d="M9.84471 9.02301C10.213 9.5959 10.8984 9.75958 11.5327 9.5959C11.7661 9.54372 11.9926 9.46476 12.2079 9.36061C11.9877 9.98457 11.8803 10.6427 11.8907 11.3043C11.8926 11.8781 11.9859 12.4479 12.167 12.9923C12.0749 12.9719 11.993 12.9002 11.8907 12.8593C10.6324 12.225 8.86261 12.2455 7.62476 12.9002C7.68614 12.7059 7.74752 12.4808 7.79868 12.2762C7.98282 11.3248 7.84983 10.3325 7.52246 9.46291C8.18742 9.73912 9.15929 9.8005 9.70149 9.18669C9.74404 9.1278 9.79199 9.073 9.84471 9.02301Z" fill="#C82344"/>
<path d="M9.84471 9.02301C10.213 9.5959 10.8984 9.75958 11.5327 9.5959C11.7661 9.54372 11.9926 9.46476 12.2079 9.36061C11.9877 9.98457 11.8803 10.6427 11.8907 11.3043C11.8926 11.8781 11.9859 12.4479 12.167 12.9923C12.0749 12.9719 11.993 12.9002 11.8907 12.8593C10.6324 12.225 8.86261 12.2455 7.62476 12.9002C7.68614 12.7059 7.74752 12.4808 7.79868 12.2762C7.98282 11.3248 7.84983 10.3325 7.52246 9.46291C8.18742 9.73912 9.15929 9.8005 9.70149 9.18669C9.74404 9.1278 9.79199 9.073 9.84471 9.02301Z" stroke="#C82344" stroke-width="0.0204603"/>
<path d="M7.04178 9.49363C7.01108 9.75961 6.91901 10.0665 6.63257 10.1688C6.39727 10.2302 6.19267 10.0972 6.03922 9.93353C5.96797 9.85568 5.91856 9.76039 5.896 9.65731C6.25405 9.8926 6.72464 9.70846 7.03154 9.4834L7.04178 9.49363Z" fill="#C82344"/>
<path d="M7.04178 9.49363C7.01108 9.75961 6.91901 10.0665 6.63257 10.1688C6.39727 10.2302 6.19267 10.0972 6.03922 9.93353C5.96797 9.85568 5.91856 9.76039 5.896 9.65731C6.25405 9.8926 6.72464 9.70846 7.03154 9.4834L7.04178 9.49363Z" stroke="#C82344" stroke-width="0.0204603"/>
<path d="M13.7835 9.52441C13.7017 9.76994 13.4868 10.0155 13.2413 10.0666C13.1493 10.0809 13.0552 10.067 12.9712 10.0268C12.8873 9.98668 12.8174 9.9221 12.7707 9.84155C12.7064 9.75119 12.6675 9.64519 12.6582 9.53464C12.9753 9.7904 13.4766 9.72901 13.7835 9.52441Z" fill="#C82344"/>
<path d="M13.7835 9.52441C13.7017 9.76994 13.4868 10.0155 13.2413 10.0666C13.1493 10.0809 13.0552 10.067 12.9712 10.0268C12.8873 9.98668 12.8174 9.9221 12.7707 9.84155C12.7064 9.75119 12.6675 9.64519 12.6582 9.53464C12.9753 9.7904 13.4766 9.72901 13.7835 9.52441Z" stroke="#C82344" stroke-width="0.0204603"/>
<path d="M13.0879 10.22C13.223 10.2334 13.3595 10.2159 13.4869 10.1688C13.1288 11.0589 12.6991 11.9182 12.2592 12.7775C12.1058 12.3479 12.1467 11.8875 12.1672 11.4067C12.2355 10.8469 12.3588 10.2952 12.5355 9.75964C12.6582 9.96424 12.8526 10.1791 13.0879 10.22Z" fill="#C82344"/>
<path d="M13.0879 10.22C13.223 10.2334 13.3595 10.2159 13.4869 10.1688C13.1288 11.0589 12.6991 11.9182 12.2592 12.7775C12.1058 12.3479 12.1467 11.8875 12.1672 11.4067C12.2355 10.8469 12.3588 10.2952 12.5355 9.75964C12.6582 9.96424 12.8526 10.1791 13.0879 10.22Z" stroke="#C82344" stroke-width="0.0204603"/>
<path d="M7.49201 12.7673V12.7776C6.94981 11.9591 6.5406 11.0896 6.15186 10.22C6.32577 10.3121 6.62244 10.3735 6.80659 10.2507C6.97178 10.1215 7.0903 9.94189 7.14418 9.7392C7.58408 10.619 7.68638 11.7648 7.49201 12.7673Z" fill="#C82344"/>
<path d="M7.49201 12.7673V12.7776C6.94981 11.9591 6.5406 11.0896 6.15186 10.22C6.32577 10.3121 6.62244 10.3735 6.80659 10.2507C6.97178 10.1215 7.0903 9.94189 7.14418 9.7392C7.58408 10.619 7.68638 11.7648 7.49201 12.7673Z" stroke="#C82344" stroke-width="0.0204603"/>
<path d="M12.5354 13.463C12.464 14.2116 12.168 14.9213 11.6863 15.4988C10.5712 15.9387 9.06736 15.9796 7.95227 15.509C7.39985 14.9156 7.19524 14.1484 7.16455 13.33C8.35125 12.4706 10.2029 12.2763 11.5635 12.8901C11.9011 13.0538 12.2387 13.2174 12.5354 13.463Z" fill="#C82344"/>
<path d="M12.5354 13.463C12.464 14.2116 12.168 14.9213 11.6863 15.4988C10.5712 15.9387 9.06736 15.9796 7.95227 15.509C7.39985 14.9156 7.19524 14.1484 7.16455 13.33C8.35125 12.4706 10.2029 12.2763 11.5635 12.8901C11.9011 13.0538 12.2387 13.2174 12.5354 13.463Z" stroke="#C82344" stroke-width="0.0204603"/>
<path d="M17.1285 7.30442C16.1192 6.94478 15.059 6.74794 13.9879 6.7213C13.8958 5.58575 13.7628 4.87987 13.5377 4.23537C13.016 4.20468 10.704 4.11261 9.80371 4.11261C8.91369 4.11261 6.63236 4.25583 6.12085 4.28652C5.82946 5.08819 5.64042 5.92344 5.55819 6.77245C4.42035 6.86031 3.29903 7.09765 2.22316 7.47834C2.07994 7.52949 2.01855 7.58064 2.01855 7.57041C2.21175 7.81593 2.45684 8.0157 2.73628 8.15542C3.01572 8.29513 3.32259 8.37134 3.63492 8.37859C3.94183 8.38882 4.52495 8.32744 4.89323 8.16376C4.99553 8.12284 5.20014 8.03076 5.20014 8.03076C5.24008 8.09944 5.2743 8.1713 5.30244 8.2456C5.40474 8.53204 5.53773 8.95148 5.6298 9.12539C5.7628 9.4016 5.97763 9.60621 6.32546 9.61644C6.43897 9.61008 6.5498 9.57938 6.65041 9.52643C6.75102 9.47347 6.83906 9.3995 6.90858 9.30953C6.00832 9.25838 5.6298 8.77756 5.56842 8.05122C5.35359 8.02053 5.29221 8.00007 5.27175 7.87731C5.25853 7.81294 5.25994 7.74643 5.27588 7.68269C5.29182 7.61894 5.32187 7.55959 5.36382 7.50902C5.46612 7.3658 5.64003 7.23281 6.0697 7.3658C6.31425 7.46092 6.53954 7.59957 6.73466 7.77501C6.91881 7.94892 7.461 8.51158 7.78837 8.69572C8.1362 8.90032 8.80116 9.0947 9.23082 8.66503C9.50419 8.40661 9.68409 8.0648 9.74233 7.69316C9.06433 7.67475 8.38798 7.61668 7.71676 7.51925C7.53262 7.48856 7.61446 7.31465 7.75768 7.35557C7.75768 7.35557 8.93415 7.50902 9.77302 7.51925C9.77302 7.41695 9.77302 7.25327 9.78325 7.05889C9.07615 7.04399 8.3714 6.97214 7.67584 6.84406C7.52239 6.80314 7.55308 6.62923 7.6963 6.67015C8.38683 6.78314 9.08393 6.85148 9.78325 6.87475C9.78325 6.73153 9.79348 6.5167 9.79348 6.32232C9.10105 6.31204 8.41033 6.25049 7.72699 6.13818C7.55308 6.10749 7.594 5.95404 7.72699 5.9745C8.41217 6.06806 9.10211 6.12271 9.79348 6.13818V5.67782C9.79348 5.50391 9.94694 5.49368 9.94694 5.66759V6.12795C10.5984 6.1121 11.2479 6.05056 11.8907 5.94381C12.0953 5.90289 12.0748 6.0768 11.9827 6.08703C11.311 6.21654 10.6305 6.2952 9.94694 6.32232V6.87475C10.571 6.85429 11.3075 6.83383 11.9316 6.69061C12.1669 6.63946 12.1873 6.82359 11.993 6.85429C11.3199 6.96903 10.6397 7.0374 9.95717 7.05889C9.95717 7.21235 9.95717 7.40672 9.9674 7.51925C10.6762 7.49757 11.3832 7.43609 12.085 7.33511C12.2487 7.30442 12.2794 7.47834 12.1055 7.50902C11.9316 7.52948 10.7551 7.68293 9.99809 7.7034C10.0799 7.95915 10.0902 8.32743 10.4584 8.64457C10.8063 8.95148 11.4099 8.92078 11.8293 8.67526C12.1567 8.48089 12.6784 7.91823 12.8625 7.74432C13.016 7.61132 13.3843 7.27373 13.8753 7.28396C14.3561 7.29419 14.3664 7.53971 14.3971 7.61132C14.4175 7.69316 14.438 7.82616 14.3254 7.89777C14.2436 7.94892 14.1618 7.92846 14.0799 7.96938C14.0185 8.36836 13.8958 8.81848 13.5786 9.05378C13.2411 9.30953 12.7193 9.34022 12.7193 9.34022C12.7193 9.34022 12.7909 9.42206 12.8114 9.44252C12.9479 9.53982 13.1154 9.58352 13.282 9.56529C13.4991 9.52833 13.6994 9.42464 13.8549 9.26861C14.0185 9.05378 14.172 8.61388 14.2845 8.32743C14.3254 8.22513 14.4278 8.03076 14.4584 7.94892C14.5607 7.98984 14.6017 8.02053 14.7858 8.09214C15.1617 8.23342 15.5608 8.30282 15.9623 8.29674C16.4636 8.28651 17.0364 7.97961 17.374 7.66247C17.4252 7.61132 17.548 7.4681 17.548 7.4681C17.548 7.4681 17.2206 7.33511 17.1285 7.30442Z" fill="#C82344"/>
<path d="M17.1285 7.30442C16.1192 6.94478 15.059 6.74794 13.9879 6.7213C13.8958 5.58575 13.7628 4.87987 13.5377 4.23537C13.016 4.20468 10.704 4.11261 9.80371 4.11261C8.91369 4.11261 6.63236 4.25583 6.12085 4.28652C5.82946 5.08819 5.64042 5.92344 5.55819 6.77245C4.42035 6.86031 3.29903 7.09765 2.22316 7.47834C2.07994 7.52949 2.01855 7.58064 2.01855 7.57041C2.21175 7.81593 2.45684 8.0157 2.73628 8.15542C3.01572 8.29513 3.32259 8.37134 3.63492 8.37859C3.94183 8.38882 4.52495 8.32744 4.89323 8.16376C4.99553 8.12284 5.20014 8.03076 5.20014 8.03076C5.24008 8.09944 5.2743 8.1713 5.30244 8.2456C5.40474 8.53204 5.53773 8.95148 5.6298 9.12539C5.7628 9.4016 5.97763 9.60621 6.32546 9.61644C6.43897 9.61008 6.5498 9.57938 6.65041 9.52643C6.75102 9.47347 6.83906 9.3995 6.90858 9.30953C6.00832 9.25838 5.6298 8.77756 5.56842 8.05122C5.35359 8.02053 5.29221 8.00007 5.27175 7.87731C5.25853 7.81294 5.25994 7.74643 5.27588 7.68269C5.29182 7.61894 5.32187 7.55959 5.36382 7.50902C5.46612 7.3658 5.64003 7.23281 6.0697 7.3658C6.31425 7.46092 6.53954 7.59957 6.73466 7.77501C6.91881 7.94892 7.461 8.51158 7.78837 8.69572C8.1362 8.90032 8.80116 9.0947 9.23082 8.66503C9.50419 8.40661 9.68409 8.0648 9.74233 7.69316C9.06433 7.67475 8.38798 7.61668 7.71676 7.51925C7.53262 7.48856 7.61446 7.31465 7.75768 7.35557C7.75768 7.35557 8.93415 7.50902 9.77302 7.51925C9.77302 7.41695 9.77302 7.25327 9.78325 7.05889C9.07615 7.04399 8.3714 6.97214 7.67584 6.84406C7.52239 6.80314 7.55308 6.62923 7.6963 6.67015C8.38683 6.78314 9.08393 6.85148 9.78325 6.87475C9.78325 6.73153 9.79348 6.5167 9.79348 6.32232C9.10105 6.31204 8.41033 6.25049 7.72699 6.13818C7.55308 6.10749 7.594 5.95404 7.72699 5.9745C8.41217 6.06806 9.10211 6.12271 9.79348 6.13818V5.67782C9.79348 5.50391 9.94694 5.49368 9.94694 5.66759V6.12795C10.5984 6.1121 11.2479 6.05056 11.8907 5.94381C12.0953 5.90289 12.0748 6.0768 11.9827 6.08703C11.311 6.21654 10.6305 6.2952 9.94694 6.32232V6.87475C10.571 6.85429 11.3075 6.83383 11.9316 6.69061C12.1669 6.63946 12.1873 6.82359 11.993 6.85429C11.3199 6.96903 10.6397 7.0374 9.95717 7.05889C9.95717 7.21235 9.95717 7.40672 9.9674 7.51925C10.6762 7.49757 11.3832 7.43609 12.085 7.33511C12.2487 7.30442 12.2794 7.47834 12.1055 7.50902C11.9316 7.52948 10.7551 7.68293 9.99809 7.7034C10.0799 7.95915 10.0902 8.32743 10.4584 8.64457C10.8063 8.95148 11.4099 8.92078 11.8293 8.67526C12.1567 8.48089 12.6784 7.91823 12.8625 7.74432C13.016 7.61132 13.3843 7.27373 13.8753 7.28396C14.3561 7.29419 14.3664 7.53971 14.3971 7.61132C14.4175 7.69316 14.438 7.82616 14.3254 7.89777C14.2436 7.94892 14.1618 7.92846 14.0799 7.96938C14.0185 8.36836 13.8958 8.81848 13.5786 9.05378C13.2411 9.30953 12.7193 9.34022 12.7193 9.34022C12.7193 9.34022 12.7909 9.42206 12.8114 9.44252C12.9479 9.53982 13.1154 9.58352 13.282 9.56529C13.4991 9.52833 13.6994 9.42464 13.8549 9.26861C14.0185 9.05378 14.172 8.61388 14.2845 8.32743C14.3254 8.22513 14.4278 8.03076 14.4584 7.94892C14.5607 7.98984 14.6017 8.02053 14.7858 8.09214C15.1617 8.23342 15.5608 8.30282 15.9623 8.29674C16.4636 8.28651 17.0364 7.97961 17.374 7.66247C17.4252 7.61132 17.548 7.4681 17.548 7.4681C17.548 7.4681 17.2206 7.33511 17.1285 7.30442Z" stroke="#C82344" stroke-width="0.0204603"/>
<path d="M11.7372 13.5858C11.8293 13.7597 11.7576 13.9541 11.6553 14.1075C11.5644 14.2208 11.4425 14.3052 11.3045 14.3506C11.1665 14.396 11.0183 14.4004 10.8779 14.3633C10.7011 14.307 10.5493 14.1914 10.4482 14.0359C10.4073 14.1791 10.5096 14.2814 10.4993 14.4144C10.495 14.421 10.4894 14.4265 10.4827 14.4307C10.476 14.4348 10.4686 14.4375 10.4608 14.4385C10.453 14.4394 10.4451 14.4387 10.4376 14.4363C10.4301 14.4339 10.4233 14.43 10.4175 14.4246C10.2538 14.2098 10.1924 13.8824 10.3357 13.6472C10.5096 13.3198 10.8472 13.1868 11.2052 13.2175C11.3167 13.2326 11.4229 13.2738 11.5154 13.3378C11.6079 13.4018 11.6839 13.4868 11.7372 13.5858Z" fill="black"/>
<path d="M11.7372 13.5858C11.8293 13.7597 11.7576 13.9541 11.6553 14.1075C11.5644 14.2208 11.4425 14.3052 11.3045 14.3506C11.1665 14.396 11.0183 14.4004 10.8779 14.3633C10.7011 14.307 10.5493 14.1914 10.4482 14.0359C10.4073 14.1791 10.5096 14.2814 10.4993 14.4144C10.495 14.421 10.4894 14.4265 10.4827 14.4307C10.476 14.4348 10.4686 14.4375 10.4608 14.4385C10.453 14.4394 10.4451 14.4387 10.4376 14.4363C10.4301 14.4339 10.4233 14.43 10.4175 14.4246C10.2538 14.2098 10.1924 13.8824 10.3357 13.6472C10.5096 13.3198 10.8472 13.1868 11.2052 13.2175C11.3167 13.2326 11.4229 13.2738 11.5154 13.3378C11.6079 13.4018 11.6839 13.4868 11.7372 13.5858Z" stroke="#C82344" stroke-width="0.0204603"/>
<path d="M9.27192 13.6982C9.41514 13.9335 9.34353 14.2404 9.21054 14.4655C9.19008 14.4962 9.15939 14.5269 9.11847 14.4962C9.05708 14.4246 9.13893 14.3632 9.14916 14.2916C9.16781 14.232 9.17133 14.1687 9.15939 14.1074C9.07286 14.2344 8.95159 14.3338 8.81008 14.3936C8.66857 14.4535 8.51281 14.4713 8.36143 14.445C8.24736 14.4176 8.14145 14.3634 8.0525 14.2869C7.96355 14.2104 7.8941 14.1138 7.84992 14.0051C7.82875 13.935 7.82327 13.8611 7.83387 13.7886C7.84448 13.7161 7.87092 13.6468 7.91131 13.5857C8.12614 13.2993 8.51489 13.2379 8.83202 13.3402C9.01756 13.4016 9.17409 13.529 9.27192 13.6982Z" fill="black"/>
<path d="M9.27192 13.6982C9.41514 13.9335 9.34353 14.2404 9.21054 14.4655C9.19008 14.4962 9.15939 14.5269 9.11847 14.4962C9.05708 14.4246 9.13893 14.3632 9.14916 14.2916C9.16781 14.232 9.17133 14.1687 9.15939 14.1074C9.07286 14.2344 8.95159 14.3338 8.81008 14.3936C8.66857 14.4535 8.51281 14.4713 8.36143 14.445C8.24736 14.4176 8.14145 14.3634 8.0525 14.2869C7.96355 14.2104 7.8941 14.1138 7.84992 14.0051C7.82875 13.935 7.82327 13.8611 7.83387 13.7886C7.84448 13.7161 7.87092 13.6468 7.91131 13.5857C8.12614 13.2993 8.51489 13.2379 8.83202 13.3402C9.01756 13.4016 9.17409 13.529 9.27192 13.6982Z" stroke="#C82344" stroke-width="0.0204603"/>
<path d="M11.7168 15.2429C11.6964 15.294 11.6861 15.294 11.6452 15.3452C11.5327 15.3145 11.4099 15.2736 11.2872 15.2327C10.2641 14.8337 8.96491 14.9462 8.00328 15.3452C7.97175 15.3235 7.94978 15.2906 7.94189 15.2531C9.05698 14.7518 10.5915 14.6905 11.7168 15.2429Z" fill="black"/>
<path d="M11.7168 15.2429C11.6964 15.294 11.6861 15.294 11.6452 15.3452C11.5327 15.3145 11.4099 15.2736 11.2872 15.2327C10.2641 14.8337 8.96491 14.9462 8.00328 15.3452C7.97175 15.3235 7.94978 15.2906 7.94189 15.2531C9.05698 14.7518 10.5915 14.6905 11.7168 15.2429Z" stroke="#C82344" stroke-width="0.0204603"/>
<path d="M11.9009 9.81075C11.7373 10.6189 11.2258 11.5499 10.3664 11.7852C9.69123 11.9591 8.9342 11.8159 8.47384 11.2532C8.15625 10.8473 7.96742 10.3556 7.93164 9.84144C7.96306 9.82492 7.99858 9.81782 8.03394 9.82098C8.10555 10.5882 8.50453 11.4271 9.27179 11.6624C9.61199 11.7705 9.97667 11.7746 10.3192 11.6744C10.6618 11.5742 10.9668 11.3741 11.1951 11.0998C11.4917 10.7063 11.6978 10.2522 11.7986 9.76983C11.8176 9.76884 11.8366 9.77198 11.8543 9.77905C11.872 9.78611 11.8879 9.79693 11.9009 9.81075Z" fill="black"/>
<path d="M11.9009 9.81075C11.7373 10.6189 11.2258 11.5499 10.3664 11.7852C9.69123 11.9591 8.9342 11.8159 8.47384 11.2532C8.15625 10.8473 7.96742 10.3556 7.93164 9.84144C7.96306 9.82492 7.99858 9.81782 8.03394 9.82098C8.10555 10.5882 8.50453 11.4271 9.27179 11.6624C9.61199 11.7705 9.97667 11.7746 10.3192 11.6744C10.6618 11.5742 10.9668 11.3741 11.1951 11.0998C11.4917 10.7063 11.6978 10.2522 11.7986 9.76983C11.8176 9.76884 11.8366 9.77198 11.8543 9.77905C11.872 9.78611 11.8879 9.79693 11.9009 9.81075Z" stroke="#C82344" stroke-width="0.0204603"/>
<path d="M2.22309 3.32491C2.66299 4.17402 3.55301 4.45023 4.4635 4.39908C4.96478 4.39908 5.45583 4.34793 5.9571 4.31724V4.34793C5.70311 5.0604 5.52481 5.79762 5.42514 6.54742C4.11567 6.59857 2.77552 6.48604 1.81389 5.61647C1.14892 4.95151 0.985242 4.0308 1.12846 3.12031C1.28192 2.93617 1.45583 2.78271 1.60928 2.59857C1.82412 2.83386 2.17194 3.01801 2.22309 3.32491Z" fill="white"/>
<path d="M18.5201 2.94638C18.5508 3.07937 18.5508 3.20213 18.5712 3.34536C18.6326 4.34791 18.1927 5.27886 17.3334 5.79037C16.3922 6.36326 15.3078 6.5474 14.1518 6.58832C14.1313 6.48602 14.1211 6.3428 14.1006 6.23026C14.02 5.56598 13.8866 4.90918 13.7017 4.26607C14.9395 4.24561 16.4433 4.57298 17.2618 3.43743C17.3641 3.27375 17.4766 3.14075 17.5687 2.96684C17.7528 2.885 17.9267 2.76224 18.1109 2.67017C18.2643 2.74177 18.3666 2.86454 18.5201 2.94638Z" fill="white"/>
<path d="M13.8243 8.05115C13.8345 8.43989 13.7015 8.83887 13.3537 9.02301C13.1895 9.10704 13.0059 9.14588 12.8217 9.13554C12.8166 9.09821 12.8166 9.06035 12.8217 9.02301C13.0979 9.02301 13.3741 8.92071 13.5276 8.69565C13.6228 8.51609 13.672 8.31575 13.6708 8.11253C13.7163 8.07999 13.7689 8.05893 13.8243 8.05115Z" fill="white"/>
<path d="M6.84741 9.09467C6.79056 9.11078 6.73035 9.11078 6.6735 9.09467C6.54906 9.09485 6.42594 9.06927 6.31187 9.01954C6.1978 8.96982 6.09526 8.89702 6.0107 8.80573C5.92614 8.71444 5.86139 8.60664 5.82052 8.48911C5.77966 8.37158 5.76356 8.24686 5.77324 8.1228C5.8294 8.1023 5.891 8.1023 5.94716 8.1228C5.94716 8.48086 6.09038 8.95144 6.82695 8.95144C6.8781 9.03329 6.82695 9.04352 6.84741 9.09467Z" fill="white"/>
</g>
<defs>
<clipPath id="clip0_876_2715">
<rect width="17.7632" height="16" fill="white" transform="translate(0.947266)"/>
</clipPath>
</defs>
</svg>
