<svg width="111" height="64" viewBox="0 0 111 64" fill="none" xmlns="http://www.w3.org/2000/svg">
<g clip-path="url(#clip0_731_34)">
<path d="M0.0959167 43.4202C0.0959167 31.9999 9.44675 23.1089 21.6335 23.1089C28.685 23.1089 35.1234 26.2513 38.8024 31.0035L33.5137 36.292C32.111 34.496 30.3212 33.0396 28.2776 32.0309C26.2339 31.0225 23.989 30.4879 21.7102 30.4669C14.4287 30.4669 8.60363 35.9089 8.60363 43.4202C8.60363 51.0083 14.4287 56.4501 21.7102 56.4501C24.0707 56.4473 26.3985 55.8993 28.5123 54.8491C30.6261 53.7987 32.469 52.2745 33.897 50.395L39.1089 55.5304C35.5832 60.5124 28.8383 63.8081 21.6335 63.8081C9.44675 63.8081 0.0959167 54.9171 0.0959167 43.4202Z" fill="#255BE3"/>
<path d="M46.0071 24.4886H54.3616V62.4287H46.0071V24.4886Z" fill="#255BE3"/>
<path d="M69.921 52.2345V31.5401H60.8V24.4886H70.3041V16.3639L78.1222 12.5316V24.4886H90.5389V31.5401H78.1222V50.855C78.1222 54.6873 80.2682 56.3736 84.3305 56.3736C86.4442 56.3844 88.5354 55.94 90.4622 55.0704V62.2754C88.0481 63.3345 85.4331 63.8576 82.7976 63.8081C75.3628 63.8081 69.921 59.746 69.921 52.2345Z" fill="#255BE3"/>
<path d="M97.1306 24.4886H105.485V62.4287H97.1306V24.4886Z" fill="#255BE3"/>
<path d="M75.6694 0.34491C82.5308 0.328495 89.2955 1.96351 95.3919 5.1117C101.489 8.26009 106.738 12.8293 110.697 18.4335H100.963C97.7722 14.8872 93.8716 12.0514 89.5142 10.1103C85.1567 8.16911 80.4397 7.16599 75.6694 7.16599C70.8992 7.16599 66.1821 8.16911 61.8247 10.1103C57.4671 12.0514 53.5665 14.8872 50.376 18.4335H40.6419C44.6008 12.8293 49.8503 8.26009 55.9468 5.1117C62.0434 1.96351 68.8079 0.328495 75.6694 0.34491Z" fill="#FF3C28"/>
</g>
<defs>
<clipPath id="clip0_731_34">
<rect width="110.754" height="64" fill="white"/>
</clipPath>
</defs>
</svg>
