<svg width="28" height="16" viewBox="0 0 28 16" fill="none" xmlns="http://www.w3.org/2000/svg">
<g clip-path="url(#clip0_731_34)">
<path d="M0.0239868 10.8551C0.0239868 7.99997 2.3617 5.77722 5.40838 5.77722C7.17125 5.77722 8.78085 6.56284 9.70061 7.75087L8.37843 9.073C8.02777 8.624 7.5803 8.2599 7.0694 8.00774C6.55849 7.75562 5.99726 7.62197 5.42756 7.61673C3.60719 7.61673 2.15092 8.97723 2.15092 10.8551C2.15092 12.7521 3.60719 14.1125 5.42756 14.1125C6.01768 14.1118 6.59963 13.9748 7.12809 13.7123C7.65654 13.4497 8.11726 13.0686 8.47425 12.5987L9.77724 13.8826C8.89581 15.1281 7.20957 15.952 5.40838 15.952C2.3617 15.952 0.0239868 13.7293 0.0239868 10.8551Z" fill="#255BE3"/>
<path d="M11.5018 6.12213H13.5904V15.6072H11.5018V6.12213Z" fill="#255BE3"/>
<path d="M17.4803 13.0586V7.88501H15.2V6.12213H17.576V4.09098L19.5306 3.1329V6.12213H22.6347V7.88501H19.5306V12.7137C19.5306 13.6718 20.0671 14.0934 21.0826 14.0934C21.6111 14.0961 22.1339 13.985 22.6156 13.7676V15.5688C22.012 15.8336 21.3583 15.9644 20.6994 15.952C18.8407 15.952 17.4803 14.9365 17.4803 13.0586Z" fill="#255BE3"/>
<path d="M24.2827 6.12213H26.3713V15.6072H24.2827V6.12213Z" fill="#255BE3"/>
<path d="M18.9173 0.0862122C20.6327 0.0821084 22.3239 0.490861 23.848 1.27791C25.3721 2.06501 26.6845 3.20731 27.6742 4.60835H25.2407C24.443 3.72177 23.4679 3.01285 22.3785 2.52755C21.2891 2.04226 20.1099 1.79148 18.9173 1.79148C17.7248 1.79148 16.5455 2.04226 15.4562 2.52755C14.3668 3.01285 13.3916 3.72177 12.594 4.60835H10.1605C11.1502 3.20731 12.4626 2.06501 13.9867 1.27791C15.5108 0.490861 17.202 0.0821084 18.9173 0.0862122Z" fill="#FF3C28"/>
</g>
<defs>
<clipPath id="clip0_731_34">
<rect width="27.6886" height="16" fill="white"/>
</clipPath>
</defs>
</svg>
