<svg width="41" height="16" viewBox="0 0 41 16" fill="none" xmlns="http://www.w3.org/2000/svg">
<g clip-path="url(#clip0_806_1652)">
<g clip-path="url(#clip1_806_1652)">
<path d="M7.01147 11.1425C6.80636 11.3476 6.47073 11.3476 6.26563 11.1425L5.03499 9.9119V10.7696C5.03499 11.1052 4.81124 11.2917 4.5129 11.2917C4.21457 11.2917 3.97217 11.0493 3.97217 10.7696V9.7068C3.97217 9.4644 4.12134 9.27794 4.3078 9.20336C4.66207 9.07283 4.94176 8.79314 5.07228 8.43887C5.14687 8.25241 5.33333 8.10324 5.57573 8.10324H6.63855C6.93689 8.10324 7.16064 8.34564 7.16064 8.64398C7.16064 8.94231 6.97418 9.16606 6.63855 9.16606H5.78083L7.01147 10.3967C7.21658 10.6018 7.21658 10.9374 7.01147 11.1425Z" fill="#008555"/>
<path d="M7.01147 4.85882C7.21658 5.06392 7.21658 5.39955 7.01147 5.60466L5.78083 6.8353H6.63855C6.97418 6.8353 7.16064 7.05905 7.16064 7.35739C7.16064 7.65572 6.91824 7.89812 6.63855 7.89812H5.57573C5.33333 7.89812 5.14687 7.74895 5.07228 7.56249C4.94176 7.20822 4.66207 6.92853 4.3078 6.79801C4.12134 6.72342 3.97217 6.53696 3.97217 6.29456V5.23174C3.97217 4.93154 4.21457 4.70965 4.51104 4.70965C4.80751 4.70965 5.03313 4.89611 5.03313 5.23174V6.08945L6.26563 4.85882C6.45209 4.65371 6.80636 4.65371 7.01147 4.85882Z" fill="#008555"/>
<path d="M0.709916 4.85884C0.915022 4.65187 1.24879 4.65187 1.45576 4.85884L2.68639 6.08948V5.23176C2.68639 4.89613 2.91015 4.70967 3.20848 4.70967C3.50682 4.70967 3.74922 4.95207 3.74922 5.23176V6.29459C3.74922 6.53698 3.60005 6.72345 3.41359 6.79804C3.05931 6.92856 2.77962 7.20825 2.6491 7.56252C2.57452 7.74898 2.38806 7.89815 2.14566 7.89815H1.08284C0.782635 7.89815 0.560747 7.65575 0.560747 7.35742C0.560747 7.05908 0.747208 6.83533 1.08284 6.83533H1.94055L0.709916 5.60468C0.502945 5.39771 0.502945 5.06208 0.709916 4.85884Z" fill="#008555"/>
<path d="M0.709982 11.1425C0.504876 10.9374 0.504876 10.6018 0.709982 10.3967L1.94062 9.16607H1.0829C0.747273 9.1642 0.560814 8.94045 0.560814 8.64211C0.560814 8.34378 0.803212 8.10138 1.0829 8.10138H2.14572C2.38812 8.10138 2.57458 8.25055 2.64917 8.43701C2.77969 8.79128 3.05938 9.07097 3.41365 9.20149C3.60011 9.27608 3.74928 9.46254 3.74928 9.70494V10.7678C3.74928 11.0661 3.50688 11.2898 3.20855 11.2898C2.91021 11.2898 2.68646 11.1034 2.68646 10.7678V9.91004L1.45582 11.1407C1.26936 11.3458 0.915088 11.3458 0.709982 11.1407" fill="#008555"/>
<path d="M11.6347 11.1425C9.5277 11.1425 8.85645 9.74406 8.85645 8.25238C8.85645 6.35048 9.86333 5.00797 11.8771 5.00797C12.306 5.00797 12.7535 5.0639 13.145 5.17578L13.0145 6.21996C12.6229 6.10808 12.2127 6.0335 11.8025 6.0335C10.6838 6.0335 10.1244 6.87257 10.1244 8.04727C10.1244 9.35249 10.6651 10.0983 11.8771 10.0983C12.25 10.0983 12.7348 9.98646 13.0518 9.85593L13.1823 10.8815C12.7348 11.0306 12.1941 11.1425 11.6347 11.1425Z" fill="#008555"/>
<path d="M14.1723 6.6302H15.3097V11.068H14.1723V6.6302ZM14.7504 6.25728C14.3774 6.25728 14.0791 5.95894 14.0791 5.58602C14.0791 5.2131 14.3774 4.93341 14.7504 4.93341C15.1233 4.93341 15.4403 5.23175 15.4403 5.58602C15.4403 5.95894 15.1233 6.25728 14.7504 6.25728Z" fill="#008555"/>
<path d="M18.1604 11.1612C17.1722 11.1612 16.8739 10.8069 16.8739 9.76272V7.50656H16.1094V6.63019H16.8739V5.26904L18.0113 4.9707V6.62833H19.0927V7.50469H18.0113V9.46252C18.0113 10.0405 18.1418 10.1897 18.5334 10.1897C18.7198 10.1897 18.9249 10.1711 19.0927 10.1151V11.0288C18.813 11.1034 18.4774 11.1593 18.1604 11.1593" fill="#008555"/>
<path d="M20.1573 6.6302H21.2947V11.068H20.1573V6.6302ZM20.7167 6.25728C20.3437 6.25728 20.0454 5.95894 20.0454 5.58602C20.0454 5.2131 20.3437 4.93341 20.7167 4.93341C21.0896 4.93341 21.4066 5.23175 21.4066 5.58602C21.4066 5.95894 21.1082 6.25728 20.7167 6.25728Z" fill="#008555"/>
<path d="M22.3198 11.0679V10.2475L24.1098 7.61843C23.942 7.63707 23.5878 7.63707 23.1589 7.63707H22.3758V6.61154H25.471V7.43197L23.7183 10.0238H25.5083V11.0679H22.3198Z" fill="#008555"/>
<path d="M28.2688 7.37606C27.8027 7.37606 27.4671 7.73034 27.4111 8.25242H29.052C29.052 7.69304 28.7536 7.37606 28.2688 7.37606ZM30.1334 9.03556H27.3925C27.3925 9.85598 27.8027 10.2662 28.6045 10.2662C29.0333 10.2662 29.5181 10.173 29.891 9.9865L30.0029 10.8629C29.5368 11.0493 28.9774 11.1426 28.418 11.1426C27.0009 11.1426 26.2178 10.434 26.2178 8.88639C26.2178 7.52523 26.9636 6.53699 28.2875 6.53699C29.6114 6.53699 30.1521 7.41335 30.1521 8.51347C30.1707 8.66264 30.1521 8.8491 30.1334 9.03556Z" fill="#008555"/>
<path d="M33.8438 11.0679V8.23375C33.8438 7.7676 33.7133 7.48791 33.3031 7.48791C32.725 7.48791 32.2775 8.14052 32.2775 8.92365V11.0679H31.1401V6.63019H32.2216C32.2216 6.8353 32.203 7.18957 32.1657 7.41332C32.4267 6.89123 32.9488 6.51831 33.676 6.51831C34.6829 6.51831 34.9999 7.15228 34.9999 7.93541V11.0493H33.8438V11.0679Z" fill="#008555"/>
<path d="M36.9743 11.1612C36.6573 11.1612 36.3403 11.1239 36.042 11.0866L36.0606 10.1543C36.3403 10.2289 36.6759 10.2848 37.0116 10.2848C37.4404 10.2848 37.7387 10.0983 37.7387 9.81865C37.7387 9.03552 35.9487 9.48302 35.9487 7.97269C35.9487 7.18956 36.5827 6.5556 37.832 6.5556C38.093 6.5556 38.3727 6.59289 38.6524 6.63018L38.6151 7.52519C38.3727 7.45061 38.0744 7.41331 37.7947 7.41331C37.3472 7.41331 37.1421 7.59977 37.1421 7.86082C37.1421 8.58801 38.9694 8.27103 38.9694 9.70677C38.9507 10.5645 38.1863 11.1612 36.9743 11.1612Z" fill="#008555"/>
<path d="M40.3311 6.60972C40.4057 6.64701 40.4616 6.72159 40.4989 6.79618C40.5362 6.87076 40.5549 6.94534 40.5549 7.03857C40.5549 7.1318 40.5362 7.20639 40.4989 7.28097C40.4616 7.35556 40.4057 7.41149 40.3311 7.46743C40.2565 7.50472 40.1819 7.52337 40.0887 7.52337C39.9955 7.52337 39.9209 7.50472 39.8463 7.46743C39.7717 7.43014 39.7158 7.3742 39.6785 7.28097C39.6412 7.20639 39.6226 7.1318 39.6226 7.03857C39.6226 6.94534 39.6412 6.87076 39.6785 6.79618C39.7158 6.72159 39.7717 6.66565 39.8463 6.60972C39.9209 6.57242 39.9955 6.53513 40.0887 6.53513C40.1819 6.53513 40.2565 6.57242 40.3311 6.60972ZM40.2752 7.3742C40.3311 7.33691 40.387 7.29962 40.4057 7.22503C40.443 7.1691 40.4616 7.09451 40.4616 7.01993C40.4616 6.94534 40.443 6.88941 40.4057 6.81482C40.3684 6.75888 40.3311 6.70295 40.2752 6.66565C40.2192 6.62836 40.1446 6.60972 40.0701 6.60972C39.9955 6.60972 39.9395 6.62836 39.8836 6.66565C39.8277 6.70295 39.7717 6.75888 39.7531 6.81482C39.7158 6.87076 39.6971 6.94534 39.6971 7.01993C39.6971 7.09451 39.7158 7.15045 39.7531 7.22503C39.7904 7.28097 39.8277 7.33691 39.8836 7.3742C39.9395 7.41149 40.0141 7.43014 40.0701 7.43014C40.1633 7.43014 40.2192 7.41149 40.2752 7.3742ZM40.2565 7.01993C40.2379 7.03857 40.2006 7.05722 40.1633 7.07587L40.3125 7.29962H40.1819L40.0701 7.09451H40.0328V7.29962H39.9209V6.77753H40.0701C40.2192 6.77753 40.3125 6.83347 40.3125 6.94534C40.2938 6.96399 40.2752 7.00128 40.2565 7.01993ZM40.0141 7.00128H40.0701C40.1446 7.00128 40.1819 6.98264 40.1819 6.9267C40.1819 6.90805 40.1819 6.88941 40.1633 6.87076C40.1446 6.85211 40.126 6.85211 40.0887 6.85211H40.0328V7.00128H40.0141Z" fill="#008555"/>
</g>
</g>
<defs>
<clipPath id="clip0_806_1652">
<rect width="40" height="16" fill="white" transform="translate(0.554688)"/>
</clipPath>
<clipPath id="clip1_806_1652">
<rect width="40" height="6.59276" fill="white" transform="translate(0.554688 4.70361)"/>
</clipPath>
</defs>
</svg>
