<svg width="20" height="16" viewBox="0 0 20 16" fill="none" xmlns="http://www.w3.org/2000/svg">
<g clip-path="url(#clip0_876_2747)">
<path d="M19.3055 3.18573V1.82036L18.9724 1.48283C14.6846 -2.59585 5.50162 2.75891 2.38544 5.33939L0.84587 7.73477L2.75999 7.26005C-0.181966 10.9424 0.869823 13.3617 0.993948 13.6122C1.30317 14.4832 2.01089 15.18 3.15632 15.6373C4.02737 15.9858 5.01383 16.0271 5.86092 15.9879C9.51714 15.8181 13.8397 13.5381 16.6314 11.1057L16.6967 11.0491L17.2607 8.25304L16.1719 8.85624C13.9542 9.834 11.6855 10.6918 9.3756 11.4258C7.39179 12.0443 6.48154 12.1444 5.83261 11.9942L5.74769 11.9768C5.68851 11.9574 5.63632 11.921 5.59761 11.8723C5.5589 11.8235 5.53536 11.7644 5.52992 11.7024C5.49944 10.4611 7.6335 7.78268 8.70924 6.63943C9.71095 5.56368 11.2854 4.38342 12.6181 3.82159C13.5109 3.44704 14.0858 3.29678 14.3602 3.32509C14.261 3.62514 14.1371 3.91648 13.99 4.19614C13.99 4.19614 12.9534 6.24092 12.6094 6.91598C12.603 6.92924 12.601 6.94416 12.6037 6.95861C12.6063 6.97306 12.6135 6.9863 12.6241 6.99645C12.6347 7.00659 12.6483 7.01312 12.6629 7.01509C12.6774 7.01707 12.6922 7.01439 12.7052 7.00744L19.3055 3.18573Z" fill="#B4975A"/>
<path d="M10.8389 2.98538C9.60859 3.63866 8.19968 4.94523 7.75762 5.40906C4.16237 9.23949 1.64287 14.3569 9.51713 11.9049C11.849 11.1645 14.1388 10.298 16.3766 9.30918C5.62138 18.3942 -4.53067 14.5899 5.46023 5.04323C4.54999 5.2501 3.63321 5.44826 2.73386 5.69651C5.93713 3.04853 14.7064 -1.88595 18.6239 1.84213L14.4298 4.40736C16.2264 0.886154 12.9904 1.71365 10.8302 2.98538" fill="#72253D"/>
</g>
<defs>
<clipPath id="clip0_876_2747">
<rect width="18.5951" height="16" fill="white" transform="translate(0.710449)"/>
</clipPath>
</defs>
</svg>
