<svg width="22" height="16" viewBox="0 0 22 16" fill="none" xmlns="http://www.w3.org/2000/svg">
<g clip-path="url(#clip0_879_3842)">
<path d="M21.346 13.9886V13.9799L21.3451 13.9712C21.252 12.7118 20.9705 11.438 20.484 10.0764L20.4787 10.0628L20.4733 10.0491L20.4166 9.91373L20.4232 9.92862C20.2203 9.402 19.7973 9.17476 19.1742 9.25175C19.1742 9.25175 18.8836 9.28361 18.8939 9.2824L18.7793 9.29275C18.299 9.33662 17.6085 9.39831 17.0003 9.34197L16.2444 7.55234C16.4 7.45005 16.5325 7.33085 16.6158 7.17975C16.6832 7.05803 16.725 6.92929 16.7507 6.80262C16.9834 6.77071 17.2028 6.66721 17.3597 6.49748C17.5894 6.24661 17.7199 5.79537 17.3949 5.28036L17.411 5.30727L16.3984 3.48159L15.7994 3.73619C13.3982 -0.134583 8.82989 -0.727412 5.45797 0.727312C2.39945 2.04753 -0.563042 5.53122 1.15293 11.0041C1.33426 11.5808 1.56733 12.1484 1.84305 12.6965C1.82608 12.8671 1.83601 13.036 1.87575 13.2082L1.87741 13.2173L1.88031 13.2264C1.96807 13.5568 2.04797 13.7762 2.25207 14.2316C2.24048 14.5309 2.35142 14.8356 2.56753 15.0679C2.90451 15.4305 3.43938 15.5725 4.03552 15.4574L4.00695 15.4616C4.79519 15.351 5.30687 15.12 5.57515 14.966C6.75542 15.7919 8.29918 16.1616 9.66948 15.9339C10.5624 15.7857 11.284 15.3995 11.7816 14.812C12.1617 14.8376 12.504 14.7971 12.5727 14.7888C12.9938 14.7582 13.3771 14.6692 13.7187 14.5251C14.225 15.1159 14.9097 15.5394 15.7315 15.7567C16.6911 16.0096 17.7786 15.9923 18.8136 15.7149C19.014 15.7335 19.2094 15.6789 19.3518 15.6135C20.4389 15.3651 20.6815 15.2608 20.8426 15.1233C20.8446 15.1221 20.8467 15.12 20.8483 15.1175C21.235 14.8525 21.3617 14.3554 21.346 13.9878V13.9886ZM20.7722 15.1709L20.7635 15.1763C20.7726 15.1709 20.78 15.1635 20.7892 15.1581L20.7717 15.1709H20.7722Z" fill="white"/>
<path d="M10.1654 10.5455C10.326 10.651 10.5061 10.7764 10.5131 11.0112C10.5202 11.2521 10.3111 11.534 10.2428 11.6251C10.155 11.7423 9.87766 12.071 9.51709 11.8421C9.51709 11.8421 8.99461 11.5179 8.62616 11.2977L8.36328 11.6868C8.84891 11.77 10.1691 11.9969 11.2856 12.1881C11.2223 11.7224 11.0699 11.2964 10.9768 10.9255C11.1395 11.2745 11.3055 11.7212 11.4007 12.208C11.4839 12.2225 11.5655 12.2366 11.6454 12.2502C11.6197 12.1236 11.5928 12.0089 11.5713 11.9112C11.5274 11.71 11.3481 11.2803 11.1896 10.7574C10.9565 10.6212 10.7235 10.4432 10.4941 10.1944C10.4908 10.1915 10.1037 9.82306 9.76755 9.48688C9.59615 9.76384 9.48564 9.94312 9.41688 10.0544L10.1658 10.5455H10.1654Z" fill="#FF3C00"/>
<path d="M12.2037 7.08993C12.6342 6.85764 12.9977 6.73183 13.5802 6.64489C13.5773 6.64529 13.7499 6.62126 13.7499 6.62126C13.8658 6.60389 14.0873 6.55836 14.1506 6.44284C14.1862 6.37787 14.197 6.28886 14.1929 6.18536C13.4667 6.33728 12.7087 6.51903 12.0521 6.78564C11.8278 6.86678 11.6493 6.98143 11.4746 7.09406C11.528 7.20705 11.5914 7.34246 11.6634 7.49563C11.8095 7.35609 11.9536 7.25093 12.0712 7.17641C12.0948 7.15697 12.2041 7.08993 12.2041 7.08993H12.2037Z" fill="#FF3C00"/>
<path d="M10.1049 8.93423C10.3455 9.19585 10.6974 9.57879 10.9772 9.85657C10.9168 9.46414 10.9027 9.0609 10.9838 8.68791C11.0356 8.45108 11.1196 8.24449 11.2206 8.0636L10.9809 7.54117C10.9254 7.62477 10.846 7.74609 10.7698 7.86615C10.7698 7.86569 10.4461 8.38197 10.1045 8.93423H10.1049Z" fill="#FF3C00"/>
<path d="M11.0656 6.61671C11.3356 6.39609 11.7168 6.25861 11.7168 6.25861C12.2256 6.04541 13.1314 5.80156 14.0571 5.61613C13.9929 5.43104 13.7864 4.83657 13.7864 4.83657C13.776 4.81092 13.6336 4.51947 13.7458 4.34433C13.7946 4.269 13.8873 4.22634 14.0024 4.2272C14.0028 4.2272 13.997 4.23048 14.322 4.2425L14.3365 4.23669C14.339 4.23548 14.3427 4.23301 14.3427 4.23301L14.6975 4.06282C14.7811 4.03798 14.8822 4.01314 14.8822 4.01314C15.1127 4.00072 15.2386 4.14107 15.3052 4.26113L15.3442 4.26406C15.1931 3.96639 15.1065 3.87158 15.006 3.70351C10.5837 -2.59655 -0.566169 1.29824 1.63334 10.1004C2.12516 11.888 2.69977 12.8365 3.32406 13.7257C3.32406 13.7257 3.33814 14.1567 4.04066 13.9315C4.71177 13.7162 5.18326 13.7307 5.83074 14.2365C6.69184 14.9085 8.01786 15.308 9.20393 15.2206C10.2335 15.1403 11.1604 14.6928 11.5839 13.7331C11.5848 13.7311 11.5852 13.7294 11.586 13.7278C11.598 13.7 11.6079 13.6698 11.6191 13.6409C11.7069 13.3825 11.7313 13.1208 11.7234 12.8741C11.639 12.86 11.5512 12.8451 11.4602 12.8294C11.3956 13.9385 10.2939 15.0033 8.32668 14.8803C7.50365 14.8497 6.62519 14.4493 6.1011 14.1641C5.86058 14.0026 5.18038 13.6222 4.85459 13.5498C5.13858 13.5651 5.8465 13.9364 6.14416 14.107C6.75353 14.4212 7.60387 14.7218 8.32749 14.752C9.6419 14.8753 11.1335 14.2034 11.2991 12.8021C9.98389 12.5794 8.19915 12.2772 7.96651 12.2374C7.91517 12.2734 7.8514 12.2929 7.78022 12.2879C7.64693 12.2792 7.51814 12.1968 7.4664 12.0888C7.42792 12.0077 7.43661 11.922 7.49043 11.8462C7.48962 11.8474 8.11635 10.9127 8.11635 10.9127L8.14326 10.8597C8.11595 10.7185 8.18098 10.5947 8.21117 10.5649C8.26211 10.5136 8.5469 10.0458 8.61314 9.91452C8.62021 9.90003 8.69594 9.78578 8.84376 9.77336C8.90874 9.67027 9.06898 9.41445 9.34261 8.97063C9.32106 8.84643 9.37821 8.72597 9.46641 8.65726C9.49412 8.63576 9.52144 8.62414 9.5492 8.61172C9.88408 8.06981 10.2596 7.47573 10.3643 7.32049C10.4844 7.15575 10.5771 7.04685 10.6847 6.92347C10.7286 6.87338 10.8317 6.79266 10.8569 6.77322C10.9071 6.70905 10.977 6.65897 11.0515 6.63741C11.0524 6.6312 11.0561 6.62459 11.066 6.61631L11.0656 6.61671ZM9.58313 12.5831C9.79921 12.5835 9.97475 12.7595 9.97394 12.9764C9.97309 13.1379 9.87499 13.2757 9.73504 13.3353C9.68829 13.385 9.62327 13.416 9.55082 13.416C9.44985 13.416 9.36452 13.3543 9.32313 13.2674C9.24159 13.1954 9.18944 13.0911 9.18984 12.9735C9.19025 12.7574 9.3666 12.5827 9.58273 12.5831H9.58313ZM6.49812 13.8209C6.44016 13.869 6.36105 13.8859 6.27952 13.878C6.19132 13.9286 6.0601 13.9012 5.96408 13.8002C5.873 13.7042 5.85023 13.5792 5.89532 13.4934C5.87669 13.3547 5.9148 13.2169 6.0129 13.1482C6.16113 13.0435 6.38634 13.1076 6.51549 13.291C6.64463 13.4744 6.63802 13.7038 6.49812 13.8209ZM8.42937 12.7673C7.77194 13.4628 6.46914 13.4578 5.72891 12.5094C6.98163 13.671 8.14993 12.9035 8.42937 12.7673ZM7.2441 11.9493C7.16378 11.9758 7.07811 11.9895 6.98991 11.9886C6.74692 11.987 6.50473 11.8781 6.32505 11.6901C5.97317 11.3213 5.9504 10.7528 6.27411 10.4225C6.41987 10.2743 6.61858 10.1932 6.83259 10.1948C7.07563 10.1965 7.31781 10.3049 7.49744 10.4933C7.67879 10.6833 7.77275 10.9263 7.77689 11.1623L7.2441 11.9489V11.9493Z" fill="#FF3C00"/>
<path d="M9.20407 15.2202C8.018 15.3075 6.69198 14.9085 5.83089 14.2362C5.183 13.7302 4.71186 13.7162 4.0408 13.931C3.33827 14.1562 3.3242 13.7253 3.3242 13.7253C2.69991 12.836 2.12529 11.888 1.63348 10.1C-0.566033 1.29821 10.5839 -2.59656 15.0065 3.70307C15.1071 3.87114 15.1936 3.96595 15.3447 4.26362L15.5016 4.27604C11.3613 -3.10079 -1.37124 0.991456 1.69392 10.7619C1.91002 11.45 2.17704 12.049 2.42957 12.5313C2.4362 12.5036 2.44241 12.48 2.44572 12.4655C2.44572 12.4655 2.47222 12.5417 2.52396 12.6601C2.52479 12.6568 2.52479 12.6522 2.52603 12.6489C2.52603 12.6489 2.79637 13.1643 3.19297 13.7087C3.23478 13.7522 3.27783 13.7949 3.32337 13.8346C3.33041 13.9294 3.35525 13.9927 3.39996 14.0329C3.43557 14.0557 3.4745 14.0738 3.51751 14.0842C3.51837 14.0842 3.51918 14.0846 3.52004 14.085C3.53453 14.0883 3.55149 14.0871 3.56679 14.0892C3.6409 14.0937 3.73198 14.0863 3.84663 14.0685C3.84663 14.0685 3.96093 14.0482 4.10497 14.0271C4.11204 14.025 4.11739 14.0234 4.12446 14.0209C4.78845 13.787 5.25464 13.9584 5.5825 14.1918C5.6247 14.2221 5.66529 14.2527 5.70296 14.2842C7.50132 15.6859 10.4423 15.7969 11.5278 14.1368C11.4793 14.1269 11.4313 14.1161 11.3862 14.102C10.9097 14.8107 10.097 15.1531 9.20448 15.2185L9.20407 15.2202Z" fill="#311D00"/>
<path d="M11.2845 12.1882C11.3233 12.1952 11.361 12.2014 11.3995 12.208C11.3043 11.7212 11.1383 11.2741 10.9756 10.9255C11.0688 11.2965 11.2211 11.7225 11.2845 12.1882Z" fill="#311D00"/>
<path d="M8.32641 14.7524C7.60279 14.7221 6.75245 14.4216 6.14309 14.1073C5.84582 13.9364 5.1375 13.5655 4.85352 13.5501C5.17971 13.6226 5.8595 14.003 6.10002 14.1645C6.62412 14.4497 7.50263 14.8501 8.3256 14.8807C10.2929 15.0032 11.3945 13.9389 11.4591 12.8298C11.4061 12.8211 11.3522 12.8116 11.2976 12.8029C11.132 14.2046 9.64041 14.8762 8.32601 14.7528L8.32641 14.7524Z" fill="#311D00"/>
<path d="M6.83252 10.1956C6.61851 10.194 6.4198 10.2751 6.27405 10.4233C5.95033 10.7537 5.9731 11.3217 6.32499 11.6909C6.50467 11.8789 6.74685 11.9878 6.98984 11.9894C7.07844 11.9898 7.16371 11.9762 7.24404 11.9501L7.77682 11.1635C7.77268 10.9275 7.67872 10.6846 7.49738 10.4945C7.3177 10.3062 7.07597 10.1977 6.83252 10.196V10.1956Z" fill="#311D00"/>
<path d="M5.72852 12.5098C6.46874 13.4583 7.77154 13.4633 8.42897 12.7678C8.14953 12.9039 6.98123 13.6719 5.72852 12.5098Z" fill="#311D00"/>
<path d="M9.32327 13.2674C9.30672 13.2326 9.29551 13.195 9.29551 13.154C9.29551 13.0095 9.41062 12.8928 9.55218 12.8932C9.69379 12.8936 9.80764 13.0107 9.80719 13.1552C9.80719 13.2252 9.77906 13.2881 9.73474 13.3349C9.87428 13.2757 9.97278 13.1374 9.97364 12.976C9.97404 12.7591 9.79891 12.5835 9.58282 12.5827C9.36674 12.5823 9.19035 12.757 9.18994 12.9731C9.18994 13.0907 9.24169 13.195 9.32327 13.267V13.2674ZM9.71863 12.9375C9.66355 12.8762 9.52527 12.8472 9.4454 12.9002C9.40935 12.9221 9.3725 12.8932 9.41849 12.8464C9.5079 12.7686 9.67471 12.7731 9.75089 12.8865C9.78941 12.9441 9.74802 12.9822 9.71863 12.9375ZM9.59237 12.6535C9.84651 12.6522 10.0254 12.9797 9.81218 13.2C9.90407 13.0013 9.82874 12.7487 9.5853 12.7384C9.33155 12.728 9.2479 12.9822 9.29223 13.1146C9.2065 13.0348 9.23588 12.6547 9.59237 12.6535Z" fill="#311D00"/>
<path d="M9.55257 12.8932C9.41101 12.8928 9.2959 13.0091 9.2959 13.154C9.2959 13.195 9.30706 13.2326 9.32362 13.2674C9.36501 13.3544 9.45034 13.4156 9.55131 13.416C9.62376 13.416 9.68878 13.3849 9.73553 13.3353C9.77986 13.2885 9.80798 13.2256 9.80798 13.1556C9.80843 13.0111 9.69459 12.894 9.55297 12.8936L9.55257 12.8932ZM9.54969 13.3701C9.43211 13.3701 9.33649 13.2736 9.33649 13.1544C9.33649 13.0351 9.43211 12.9387 9.54969 12.9387C9.66722 12.9387 9.7633 13.0351 9.7633 13.1544C9.7633 13.2736 9.66768 13.3701 9.54969 13.3701Z" fill="#311D00"/>
<path d="M9.71866 13.1527C9.71866 13.0588 9.64248 12.9818 9.54847 12.9818C9.45452 12.9818 9.37793 13.0584 9.37793 13.1527C9.37793 13.2471 9.45452 13.3229 9.54847 13.3229C9.64248 13.3229 9.71866 13.2467 9.71866 13.1527ZM9.42221 13.1581C9.4272 13.1366 9.4367 13.1478 9.44169 13.1635C9.48804 13.2376 9.61723 13.243 9.65697 13.1858C9.67681 13.1569 9.6764 13.1967 9.6764 13.1967C9.59527 13.3568 9.40979 13.2558 9.42221 13.1577V13.1581Z" fill="#311D00"/>
<path d="M6.01278 13.1482C5.91469 13.2169 5.87657 13.3548 5.8952 13.4935C5.90348 13.4777 5.90928 13.4612 5.92256 13.4487C6.00743 13.3684 6.16348 13.3949 6.27112 13.5088C6.37916 13.6222 6.39779 13.7791 6.31252 13.8598C6.30297 13.8689 6.29015 13.8714 6.2794 13.8781C6.36093 13.8863 6.44004 13.8693 6.498 13.8209C6.6383 13.7037 6.64451 13.4744 6.51537 13.291C6.38623 13.1076 6.16101 13.0434 6.01278 13.1482ZM6.34069 13.5357C6.31459 13.4802 6.23053 13.4094 6.18337 13.3999C6.13617 13.3908 6.15394 13.3138 6.21109 13.3337C6.2641 13.3518 6.34644 13.4214 6.36674 13.4545C6.41889 13.5407 6.363 13.5837 6.34069 13.5357ZM6.40486 13.804C6.66648 13.4641 6.15727 13.0675 5.95649 13.3829C6.12415 12.8687 6.79976 13.5138 6.40486 13.804Z" fill="#311D00"/>
<path d="M6.27103 13.5092C6.16339 13.3954 6.00734 13.3685 5.92247 13.4492C5.9096 13.4616 5.90339 13.4782 5.89511 13.4939C5.85002 13.5796 5.87234 13.7046 5.96387 13.8006C6.0599 13.9012 6.19111 13.929 6.27931 13.8785C6.29006 13.8723 6.30289 13.8694 6.31243 13.8602C6.3973 13.7799 6.37867 13.6226 6.27103 13.5092ZM5.98911 13.77C5.89763 13.6735 5.88188 13.5403 5.95393 13.4715C6.02597 13.4032 6.15845 13.426 6.24993 13.5224C6.34141 13.6189 6.35716 13.7518 6.28512 13.8201C6.21307 13.8884 6.0806 13.866 5.98911 13.7696V13.77Z" fill="#311D00"/>
<path d="M5.98057 13.4996C5.92509 13.5526 5.9317 13.666 6.01162 13.7389C6.08614 13.8072 6.18671 13.8437 6.24674 13.7994C6.3159 13.748 6.26996 13.6139 6.21655 13.5531C6.15071 13.4781 6.04141 13.4408 5.98017 13.5001L5.98057 13.4996ZM6.19625 13.7699C6.07372 13.7816 5.96401 13.6325 6.00915 13.5663C6.00915 13.5663 6.04267 13.5208 6.04888 13.5634C6.05923 13.6363 6.13663 13.7129 6.20948 13.7319C6.2273 13.7364 6.2327 13.7629 6.19625 13.7695V13.7699Z" fill="#311D00"/>
<path d="M5.34087 14.2407C4.99646 14.4456 4.39284 14.6766 3.81038 14.7317C3.17572 14.8339 2.82301 14.3893 2.94555 14.0494C2.94555 14.0494 2.94555 14.0499 2.91036 13.9645C2.876 13.8801 2.44297 12.9954 2.52286 12.6605C2.47153 12.5421 2.44462 12.4659 2.44462 12.4659C2.44131 12.48 2.4351 12.504 2.42848 12.5317C2.40612 12.6278 2.37756 12.7963 2.42558 13.0058C2.50879 13.3183 2.57792 13.5104 2.83004 14.0652C2.72862 14.4406 3.08009 14.9938 3.93206 14.829C4.92482 14.6886 5.37359 14.3504 5.41539 14.3173C5.41746 14.3156 5.42367 14.3111 5.42367 14.3111C5.39636 14.285 5.36819 14.2626 5.34006 14.2403L5.34087 14.2407Z" fill="#311D00"/>
<path d="M3.39889 14.0337C3.35418 13.9936 3.32975 13.9302 3.3223 13.8355C3.27676 13.7957 3.23371 13.7531 3.19189 13.7096C3.20431 13.7266 3.21591 13.7435 3.22833 13.7605C3.25068 13.8934 3.31319 13.9804 3.39847 14.0342L3.39889 14.0337Z" fill="#311D00"/>
<path d="M3.78419 14.0879C3.63101 14.4013 3.0303 14.2328 3.14622 13.8254C3.06011 13.7191 2.85229 13.3825 2.85229 13.3825C2.84276 13.3841 2.86181 13.4822 2.86057 13.476C2.93053 13.6218 3.05266 13.8726 3.05266 13.8726C2.95868 14.4651 3.80984 14.5094 3.86986 14.0742C3.91914 14.0652 3.91788 14.0722 3.94893 14.0569C3.91207 14.2336 3.8272 14.3305 3.72704 14.3814C3.54489 14.4733 3.49147 14.6348 3.76803 14.6158C4.04955 14.5955 4.54673 14.5019 5.12758 14.2208C5.12758 14.2208 5.1768 14.1931 5.22941 14.162C4.98889 14.013 4.73843 13.9753 4.56122 13.979C4.43783 13.982 4.25406 14.0055 4.10336 14.0279C3.95928 14.0494 3.84503 14.0693 3.84503 14.0693C3.73037 14.0867 3.63929 14.0945 3.56518 14.09C3.60077 14.0954 3.63596 14.1016 3.67448 14.0999C3.70139 14.0966 3.76223 14.0925 3.78419 14.0875V14.0879Z" fill="#311D00"/>
<path d="M11.7184 13.9141L11.6542 13.9058C11.8248 13.5535 11.867 13.1888 11.8645 12.8981C11.8186 12.8903 11.7718 12.8824 11.7233 12.8741C11.7312 13.1209 11.7068 13.3821 11.619 13.6408C11.6095 13.6698 11.5971 13.6988 11.5859 13.7278C11.5851 13.7294 11.5847 13.7311 11.5838 13.7332C11.576 13.7531 11.5689 13.7725 11.5602 13.7923C11.5478 13.8209 11.5325 13.8495 11.518 13.8781C11.506 13.9021 11.4948 13.9261 11.4812 13.9501C11.4708 13.9691 11.4576 13.9874 11.4464 14.006C11.4261 14.0387 11.4066 14.0714 11.3843 14.1037C11.3847 14.1037 11.3851 14.1037 11.3855 14.1037C11.4302 14.1178 11.4787 14.1285 11.5271 14.1385C11.9606 14.2279 12.5004 14.1554 12.5004 14.1554C13.0659 14.1186 13.5209 13.9667 13.8761 13.7307C13.8313 13.6607 13.7858 13.592 13.7469 13.5179C13.2936 13.8255 12.6391 13.9894 11.7188 13.9145L11.7184 13.9141Z" fill="#311D00"/>
<path d="M14.5101 12.4523C14.6016 12.4436 14.6902 12.4336 14.78 12.4241C14.8347 12.2225 14.8686 12.0101 14.8823 11.7903L14.8711 11.7882L14.8285 11.7812L14.8247 11.7381C14.7961 11.4574 14.7879 11.2964 14.7999 11.26L14.8156 11.214L14.8632 11.2223L14.8765 11.2248C14.8723 11.1718 14.8657 11.118 14.8591 11.0646C14.7726 11.0737 14.6873 11.0828 14.6028 11.0915C14.6579 11.5514 14.6401 12.0259 14.5093 12.4527L14.5101 12.4523Z" fill="#311D00"/>
<path d="M14.2739 13.1884C14.2954 13.2293 14.3207 13.2654 14.3438 13.3043C14.4039 13.2306 14.4581 13.1532 14.5078 13.072C14.4353 13.0799 14.3637 13.0873 14.2942 13.0944C14.2942 13.0944 14.2598 13.1047 14.2002 13.1167L14.2739 13.1879V13.1884Z" fill="#311D00"/>
<path d="M11.2954 10.1393C11.5923 10.3645 11.9032 10.4896 12.3598 10.5463L11.3558 8.35834C11.1447 8.93625 11.1791 9.54274 11.2954 10.1393Z" fill="#311D00"/>
<path d="M10.9772 9.85699C11.0302 9.9096 11.0816 9.95928 11.1279 10.0027C11.0133 9.40782 11.0087 8.7827 11.2914 8.21801L11.2207 8.06403C11.1196 8.24492 11.0356 8.45151 10.9838 8.68834C10.9027 9.06133 10.9164 9.46456 10.9772 9.85699Z" fill="#311D00"/>
<path d="M11.6448 12.2502C11.719 12.2627 11.7909 12.2755 11.8613 12.2875C12.2331 12.0586 12.5233 11.6417 12.6802 11.2447L12.638 11.1532C12.6326 11.1532 12.6272 11.1524 12.6218 11.152C12.265 11.1321 11.8746 11.0754 11.4759 10.904C11.5769 11.2873 11.6804 11.6591 11.7376 12.006C11.6667 11.7088 11.5041 11.3051 11.3555 10.8498C11.3 10.8224 11.2449 10.7901 11.1895 10.7574C11.3476 11.2803 11.5269 11.71 11.5711 11.9112C11.5927 12.0089 11.6196 12.124 11.6452 12.2502H11.6448Z" fill="#311D00"/>
<path d="M14.4774 5.53619C14.4811 5.53538 14.4852 5.53497 14.489 5.53412C14.4712 5.49272 14.4314 5.3971 14.3813 5.26215L14.4778 5.53619H14.4774Z" fill="#311D00"/>
<path d="M16.084 5.98748L16.055 5.98495C16.1652 6.40808 16.137 6.97898 15.5641 7.10646C15.8538 6.97979 15.6105 6.89285 15.5877 6.8829C14.9721 6.74093 13.9474 6.93011 13.8353 6.85271C14.4914 6.78935 14.5415 6.46311 14.4881 6.1249C14.4542 6.13192 14.4202 6.13858 14.3855 6.1456C14.4471 6.49956 14.301 6.6333 14.1039 6.70696C13.8034 6.80879 13.5869 6.81172 13.5773 6.81045L13.3815 6.80344C13.4664 6.77486 13.6345 6.76784 13.8402 6.72518C14.1553 6.66021 14.3374 6.52107 14.3163 6.16009C14.2749 6.16878 14.2348 6.17625 14.1929 6.18493C14.1971 6.28843 14.1863 6.37784 14.1507 6.44241C14.0874 6.55792 13.8659 6.60346 13.75 6.62088C13.75 6.62088 13.5773 6.64486 13.5802 6.64446C12.9977 6.73139 12.6343 6.85766 12.2037 7.08949C12.2037 7.08949 12.0944 7.15654 12.0709 7.17603C11.9533 7.25054 11.8092 7.35571 11.6631 7.4952C11.6833 7.53867 11.7036 7.58214 11.7252 7.62808C11.8001 7.55396 11.8804 7.48197 11.9706 7.4124C11.9706 7.4124 12.1619 7.24393 12.4033 7.1375C12.0688 7.35111 11.8577 7.56184 11.7492 7.67942C12.0224 8.26274 12.3838 9.03896 12.7395 9.81226C12.7738 9.24182 13.8622 8.8655 14.2745 9.83917C14.3594 10.04 14.4347 10.2648 14.4943 10.5016C14.5808 10.4933 14.6686 10.4846 14.7564 10.4755C14.727 10.3534 14.693 10.2317 14.6541 10.1099C14.5949 9.8624 14.5498 9.52207 14.5469 9.15816C14.5382 9.14741 14.5283 9.13746 14.5196 9.12631C14.498 8.67961 14.5858 8.31282 14.5858 8.31282C14.5978 8.33105 14.6111 8.3472 14.6235 8.36497C14.6893 8.05034 14.7998 7.75313 14.9845 7.52251C14.9915 7.51216 14.9973 7.50514 15.0044 7.49601C14.9973 7.48031 14.9928 7.4691 14.9928 7.4691C15.0727 7.36686 15.1178 7.26377 15.3393 7.22777C15.3484 7.22611 15.3563 7.22404 15.3657 7.22278C15.5206 7.20253 15.4809 7.19879 15.5442 7.20253L15.5529 7.22323C15.5558 7.22278 15.5612 7.22237 15.5628 7.22197C15.853 7.16982 16.0335 7.01164 16.1449 6.81086C16.2165 6.68045 16.2347 6.50537 16.236 6.3588C16.2298 6.34805 16.3448 6.30418 16.373 6.28717C16.2682 6.24163 16.1726 6.15181 16.084 5.98788V5.98748ZM14.3904 9.41403C14.0539 9.04225 14.219 7.55396 14.8135 7.48197C14.3975 7.78459 14.2671 8.84439 14.3904 9.41403Z" fill="#311D00"/>
<path d="M14.9535 6.29257L15.4859 6.28555C15.7583 6.23875 15.88 6.12243 15.9152 5.96966L15.9024 5.96759C15.8382 6.24375 15.5327 6.26606 15.4574 6.27601C15.3505 6.2901 15.074 6.2901 14.8898 6.27601C14.7643 6.26652 14.7056 6.15595 14.6803 6.08558C14.6778 6.08598 14.6753 6.08684 14.6729 6.08684C14.7647 6.30706 14.954 6.29217 14.954 6.29217L14.9535 6.29257Z" fill="#311D00"/>
<path d="M14.2443 4.87345L14.2977 5.02536C14.2708 4.94423 14.2431 4.8581 14.2158 4.76495C14.1707 4.61637 14.1773 4.5046 14.2029 4.42261C14.1267 4.635 14.2443 4.87304 14.2443 4.87304V4.87345Z" fill="#311D00"/>
<path d="M15.3446 4.26402L15.3057 4.26114C15.3537 4.34808 15.3719 4.42466 15.3719 4.42466L15.7917 5.40041H15.8012C15.6634 5.06634 15.3649 4.38407 15.3649 4.38407L15.528 4.39816C15.6248 4.64655 15.7665 5.07089 15.8749 5.40455L15.8911 5.40541C15.841 5.25304 15.5549 4.37458 15.5549 4.37458L15.5384 4.3249L15.5793 4.29052L15.5955 4.2835L15.5011 4.27603L15.3442 4.26361L15.3446 4.26402Z" fill="#311D00"/>
<path d="M14.1927 6.18532C14.2345 6.17664 14.2742 6.16877 14.316 6.16049C14.3397 6.15554 14.3624 6.15099 14.3856 6.1464C14.4199 6.13938 14.4539 6.13236 14.4883 6.1257C14.5495 6.11328 14.612 6.10046 14.6729 6.08804C14.6754 6.08804 14.6779 6.08723 14.6804 6.08683C14.6683 6.05371 14.6634 6.02841 14.6634 6.02841C15.0533 5.97874 15.0745 5.85827 15.0745 5.85827C15.1879 5.62437 14.9329 5.53208 14.9329 5.53208C14.8124 5.48241 14.5003 5.56061 14.5003 5.56061C14.5003 5.56061 14.4957 5.55026 14.4895 5.53537C14.4858 5.53622 14.482 5.53663 14.4779 5.53744C14.4336 5.54531 14.3902 5.55233 14.3459 5.56061C14.3128 5.56682 14.2792 5.57389 14.2461 5.5805C14.2246 5.58464 14.2031 5.58918 14.1815 5.59292C14.1401 5.6008 14.0991 5.60867 14.0577 5.61736C13.132 5.80279 12.2263 6.04664 11.7175 6.25984C11.7175 6.25984 11.3362 6.39732 11.0662 6.61794C11.0563 6.62622 11.0526 6.63283 11.0518 6.63904C11.0799 6.63076 11.1085 6.62662 11.1358 6.62662C11.2074 6.62789 11.2646 6.6602 11.296 6.71689C11.3018 6.72851 11.3685 6.86926 11.4744 7.09488C11.6492 6.98225 11.8276 6.86719 12.0519 6.78646C12.709 6.51985 13.4666 6.3381 14.1927 6.18618V6.18532ZM11.4343 6.9773C11.4343 6.9773 11.349 6.80257 11.3258 6.74668C11.2853 6.64859 11.2596 6.65192 11.2203 6.62955C11.3436 6.54635 11.5254 6.46103 11.7419 6.37041C12.3712 6.10707 13.6748 5.77093 14.8021 5.58918C14.9225 5.57222 15.0223 5.65502 15.0347 5.74155C15.0463 5.81854 15.007 5.90836 14.8596 5.93158L14.7905 5.94521C13.8888 6.1257 12.8659 6.33022 12.0114 6.67716C11.7427 6.77404 11.585 6.8626 11.4343 6.9773Z" fill="#311D00"/>
<path d="M10.7813 7.0965C10.7797 7.05763 10.778 7.01123 10.7826 6.96281C10.7842 6.96074 10.7855 6.95989 10.7822 6.96403C10.7822 6.96403 10.7598 7.01951 10.7813 7.0965Z" fill="#311D00"/>
<path d="M10.3644 7.32091C10.2597 7.47616 9.88419 8.07023 9.54932 8.61215C9.67058 8.55873 9.78897 8.58691 9.86602 8.67672C9.9111 8.72307 9.99763 8.81748 10.1049 8.9342C10.4464 8.38239 10.7701 7.86571 10.7701 7.86611C10.8463 7.74606 10.9258 7.62479 10.9813 7.54113L10.9332 7.43643C10.908 7.47162 10.7689 7.65417 10.6737 7.80321L10.037 8.83984L9.86682 8.65269C9.86682 8.65269 9.77741 8.57656 9.69916 8.58357C10.0436 8.0251 10.3504 7.5428 10.4568 7.38342C10.5548 7.22236 10.7569 6.99053 10.7825 6.96282C10.7879 6.91066 10.8004 6.85644 10.8289 6.80883C10.8364 6.79641 10.8472 6.78561 10.8563 6.77405C10.831 6.79349 10.7283 6.87421 10.684 6.92429C10.5768 7.04768 10.4837 7.15658 10.3636 7.32132L10.3644 7.32091Z" fill="#311D00"/>
<path d="M19.9431 10.1911L19.8868 10.0566C19.7696 9.75148 19.5572 9.69433 19.2228 9.73573L18.9321 9.76759C18.3476 9.81979 17.4078 9.91581 16.6221 9.78334L16.8018 10.2139C17.1218 10.1646 17.3962 10.1183 17.5875 10.0806L17.6413 10.0624C17.66 10.0206 17.6984 9.98538 17.7539 9.96009C17.8612 9.91127 18.0375 9.90051 18.172 9.99073L18.1774 10.0015C18.3393 9.96716 18.5537 9.92535 19.0733 9.85245C19.1296 9.85371 19.176 9.86861 19.2178 9.8885C19.258 9.88229 19.2869 9.87936 19.2869 9.87936C19.3888 9.89678 19.4318 9.9564 19.4451 10.0392C19.4488 10.064 19.4608 10.1422 19.3987 10.194C19.3941 10.2528 19.3734 10.3074 19.3325 10.3464C19.3325 10.3464 19.3233 10.3497 19.3092 10.3542C19.3937 10.5583 19.5175 10.9462 19.5514 11.0882L19.6313 11.4165C19.6794 11.4054 19.7282 11.3941 19.7742 11.3817H19.7754C19.7618 11.3805 19.7518 11.3755 19.7369 11.3759C19.6048 10.7798 19.4177 10.3186 19.4177 10.3186C19.6591 10.1414 19.5717 9.86694 19.4086 9.81726C19.4086 9.81726 19.7063 9.75395 19.8437 10.269C20.3426 11.667 20.7301 13.5825 20.6195 14.2444C20.6195 14.1592 20.487 14.0006 20.2598 13.9538C20.2598 13.9538 20.2647 13.8661 20.2577 13.7593C20.2006 13.1826 19.9928 12.1327 19.9928 12.1327C20.2047 12.064 20.2602 11.7572 20.119 11.556C20.148 11.6036 20.1687 11.6558 20.1782 11.7084C20.2089 11.8752 20.1505 12.083 19.9472 12.1435C19.9422 12.1447 19.917 12.1513 19.8843 12.1596L19.8976 12.2304C19.9836 12.6953 20.1136 13.397 20.1629 13.828C20.1654 13.8711 20.1608 13.9046 20.1546 13.9344C20.3248 13.9687 20.576 14.0557 20.6257 14.2846L20.627 14.2892V14.2937C20.6274 14.3028 20.6614 14.4531 20.5413 14.5649C20.7847 14.3744 20.7735 13.9567 20.7727 13.9356C20.6825 12.711 20.4072 11.4894 19.9431 10.1924V10.1911ZM17.6305 10.0644C17.3755 10.1286 16.8005 10.1919 16.8005 10.1919L16.68 9.91541C17.2969 10.0003 17.744 9.951 17.744 9.951C17.6376 9.96509 17.6305 10.0644 17.6305 10.0644ZM18.1841 9.98619C18.1058 9.92283 18.028 9.92283 18.028 9.92283C18.213 9.93777 18.7868 9.88022 18.7868 9.88022C18.6489 9.91914 18.1841 9.98659 18.1841 9.98659V9.98619Z" fill="#311D00"/>
<path d="M14.6239 8.36496C14.6115 8.34719 14.5987 8.33103 14.5862 8.31281C14.5862 8.31281 14.4985 8.67959 14.52 9.12629C14.5287 9.1375 14.5386 9.14739 14.5473 9.1582C14.9878 9.70133 15.5835 10.1 16.1904 10.3008C16.171 10.2548 16.1519 10.2089 16.132 10.1629C15.2035 9.85783 14.5444 8.98225 14.5444 8.98225C14.549 8.70569 14.5904 8.50698 14.5904 8.50698C15.1902 9.33328 15.8501 9.65331 15.9329 9.69098C15.9131 9.64418 15.8932 9.59743 15.8737 9.55103C15.8224 9.52457 15.7735 9.49559 15.7421 9.46823C15.533 9.33949 15.0325 8.95327 14.6239 8.36455V8.36496Z" fill="#311D00"/>
<path d="M18.4315 10.5065C18.4373 10.5197 18.4422 10.5351 18.448 10.5483C19.0127 10.4456 19.245 10.3757 19.3095 10.3533C19.3236 10.3488 19.3328 10.3455 19.3328 10.3455C19.3737 10.3061 19.3944 10.2515 19.399 10.1931C19.3841 10.2051 19.3696 10.2171 19.3452 10.225C19.2839 10.2585 19.1734 10.283 19.1734 10.283C19.0454 10.314 18.9005 10.3513 18.6998 10.3893C18.5557 10.4163 18.4112 10.4469 18.4232 10.4399C18.3926 10.3732 18.3582 10.2651 18.2692 10.0933C18.5441 10.0425 18.8298 9.9799 19.079 9.91659C19.1241 9.90417 19.1771 9.89423 19.2181 9.88802C19.1763 9.86812 19.1295 9.85323 19.0736 9.85202C18.5545 9.92528 18.34 9.96708 18.1777 10.0011L18.4311 10.5065H18.4315Z" fill="#311D00"/>
<path d="M17.3797 11.5978L17.0369 10.7768C17.0063 10.7818 16.9744 10.7872 16.9434 10.7918C17.0576 11.0807 17.1789 11.3701 17.275 11.5957C17.3085 11.5961 17.3424 11.597 17.3797 11.5978Z" fill="#311D00"/>
<path d="M18.6523 14.0742C18.6494 14.0354 18.6465 13.9931 18.6432 13.9476C17.8728 13.5497 17.3706 12.687 17.3706 12.687C17.4489 12.6729 17.754 12.6158 17.754 12.6158C18.0678 13.0861 18.5265 13.4086 18.5981 13.4574C18.5927 13.4111 18.5873 13.3643 18.5815 13.3171C18.2967 13.1105 18.0516 12.8609 17.8591 12.5818C17.6662 12.6203 17.4605 12.6584 17.2456 12.6957C17.6116 13.3026 18.112 13.7816 18.6528 14.0738L18.6523 14.0742Z" fill="#311D00"/>
<path d="M16.8476 11.5705C16.7189 11.2662 16.5789 10.9292 16.5475 10.8526C16.509 10.8584 16.4705 10.8638 16.4312 10.8696C16.5351 11.1151 16.6319 11.3445 16.7181 11.5477L16.8476 11.5705Z" fill="#311D00"/>
<path d="M15.3667 7.22237C15.3567 7.22363 15.3493 7.2257 15.3402 7.22737C15.1183 7.26337 15.0736 7.36686 14.9937 7.46869C14.9937 7.46869 14.9982 7.4799 15.0053 7.4956C15.0723 7.65378 15.4552 8.55955 15.8746 9.55105C15.8945 9.59744 15.914 9.64419 15.9339 9.691C15.9396 9.69387 15.9425 9.69514 15.9425 9.69514L16.1342 10.1633C16.1342 10.1633 16.1334 10.1633 16.133 10.1633C16.1528 10.2093 16.1719 10.2553 16.1913 10.3012C16.1913 10.3012 16.1913 10.3016 16.1917 10.302C16.4083 10.2722 16.6128 10.2424 16.8024 10.213L16.6227 9.78248L15.5542 7.22237L15.5455 7.20167C15.4822 7.19799 15.5219 7.20167 15.3671 7.22197L15.3667 7.22237ZM16.6964 10.2155C16.5221 10.2465 16.3131 10.2702 16.3131 10.2702L15.0847 7.39256C15.2168 7.24888 15.4313 7.24433 15.4313 7.24433C15.5116 7.40745 16.696 10.2155 16.696 10.2155H16.6964Z" fill="#311D00"/>
<path d="M20.6266 14.2924V14.2878L20.6253 14.2833C20.5757 14.0544 20.3244 13.967 20.1542 13.9331C20.0739 13.9173 20.0098 13.912 19.9961 13.9111C19.7332 13.8697 19.4757 13.7931 19.2306 13.6884C19.2513 13.9028 19.2625 14.1123 19.2662 14.3173C19.3039 14.3272 19.3412 14.3413 19.3788 14.3491C19.3453 14.3553 19.3043 14.3615 19.2654 14.3678C19.2666 14.5031 19.2679 14.6389 19.2608 14.7673C19.2554 14.8637 19.2182 14.9461 19.1553 15.0024C20.2275 14.759 20.4097 14.6704 20.4755 14.6099C20.5011 14.5954 20.5222 14.5797 20.5405 14.5627C20.6605 14.4514 20.6266 14.3007 20.6262 14.2916L20.6266 14.2924ZM19.2571 14.8794C19.2923 14.7234 19.2857 14.475 19.2857 14.475C20.5413 14.2055 19.349 14.0916 19.349 14.0916C19.6256 14.1769 19.6189 14.2763 19.6189 14.2763C19.4981 14.2833 19.2857 14.22 19.2857 14.22C19.2923 14.1417 19.2716 13.8226 19.2716 13.8226C19.5978 13.9645 19.65 13.924 19.9878 13.9997C20.3355 14.078 20.165 14.22 20.165 14.22C19.9878 14.4394 19.335 14.5321 19.335 14.5321C20.4279 14.3901 20.3281 14.0921 20.3281 14.0921C20.7756 14.3835 20.3351 14.5888 20.1087 14.6526C19.9079 14.7089 19.2571 14.8798 19.2571 14.8798V14.8794Z" fill="#311D00"/>
<path d="M17.38 11.5978C17.3423 11.5974 17.3087 11.5965 17.2752 11.5957C17.3808 11.8429 17.4562 12.013 17.4562 12.013C17.392 12.0416 17.0728 12.0838 17.0728 12.0838C17.0438 12.0287 16.9494 11.8097 16.848 11.5705L16.7184 11.5477L14.8778 11.2243L14.8646 11.2219L14.817 11.2136L14.8012 11.2595C14.7892 11.2956 14.7975 11.4566 14.8261 11.7377L14.8298 11.7808L14.8724 11.7878L14.8836 11.7899L16.8836 12.1273C17.2371 12.0673 17.5849 12.0047 17.9281 11.9431L18.1773 11.8983C18.2336 11.878 18.2501 11.8139 18.2249 11.7369C18.2245 11.7352 18.205 11.6764 18.176 11.5887C17.8743 11.6007 17.5977 11.6011 17.3808 11.5978H17.38ZM16.9212 12.0316L14.8857 11.6938C14.9043 11.4951 14.8948 11.325 14.8948 11.325L16.7722 11.6678C16.8078 11.7696 16.9212 12.0316 16.9212 12.0316ZM18.1988 11.7009C18.2551 11.8925 18.1061 11.8826 18.1061 11.8826L17.5601 11.9964L17.4246 11.698C17.8999 11.705 18.1984 11.7009 18.1984 11.7009H18.1988Z" fill="#311D00"/>
<path d="M19.0126 12.3608C19.2589 12.3157 19.7192 12.2006 19.8848 12.1584C19.9175 12.1501 19.9428 12.1435 19.9477 12.1422C20.151 12.0814 20.2094 11.8739 20.1788 11.7071C20.1692 11.6545 20.1485 11.6023 20.1195 11.5547C20.0521 11.4591 19.9399 11.3896 19.7759 11.3805H19.7747C19.7288 11.3933 19.6799 11.404 19.6319 11.4157C19.3723 11.4761 19.0879 11.5179 18.8022 11.5461C18.8809 11.8089 18.9505 12.083 19.013 12.3612L19.0126 12.3608ZM20.0686 11.6798C20.0686 11.6798 20.1539 11.9377 19.9341 12.0296C19.9341 12.0296 19.771 12.1124 19.0188 12.247C19.0188 12.247 18.9575 12.0131 18.9289 11.8925C18.9289 11.8925 19.5652 11.7601 19.8136 11.6674C19.8136 11.6674 19.8086 11.5846 19.6857 11.5871C19.6857 11.5871 19.0403 11.7502 18.8913 11.7642L18.8557 11.6653C18.8557 11.6653 19.4091 11.5589 19.5938 11.5163C19.5938 11.5163 19.9842 11.3817 20.069 11.6793L20.0686 11.6798Z" fill="#311D00"/>
<path d="M19.262 14.7677C19.269 14.6389 19.2678 14.5036 19.2666 14.3682C19.2666 14.3508 19.2674 14.3346 19.267 14.3177C19.2632 14.1128 19.2521 13.9037 19.2314 13.6888C19.1887 13.2517 19.1113 12.8017 19.0124 12.3612C18.9503 12.083 18.8803 11.8093 18.8016 11.546C18.6944 11.1879 18.5748 10.8505 18.4477 10.5483C18.4423 10.5351 18.4369 10.5198 18.4311 10.5065L18.1778 10.0011L18.1724 9.99026C18.0378 9.90004 17.8615 9.91079 17.7543 9.95966C17.6984 9.98491 17.6599 10.0205 17.6417 10.0619L17.5878 10.0801C17.3966 10.1178 17.1221 10.1641 16.8021 10.2134C16.6125 10.2428 16.408 10.2726 16.1915 10.3024C15.7373 10.3654 15.2397 10.4266 14.757 10.4767C14.6688 10.4858 14.5814 10.4945 14.495 10.5028C13.9924 10.55 13.5196 10.5823 13.1503 10.5848C13.1495 10.5848 13.1263 10.5848 13.0928 10.5848C12.9781 10.3331 12.8597 10.0739 12.7397 9.81351C12.384 9.04016 12.0222 8.26393 11.7494 7.68067C11.7415 7.66365 11.7332 7.64548 11.7254 7.62932C11.7038 7.58293 11.6835 7.53991 11.6633 7.49644C11.5917 7.34327 11.5279 7.20786 11.4745 7.09488C11.3681 6.86925 11.3019 6.7285 11.2961 6.71689C11.2642 6.65974 11.2075 6.62748 11.1359 6.62662C11.1081 6.62662 11.08 6.63076 11.0518 6.63904C10.9777 6.66059 10.9073 6.71068 10.8572 6.77484C10.8481 6.78646 10.8374 6.79721 10.8299 6.80963C10.8013 6.85724 10.7885 6.91146 10.7836 6.96361C10.7836 6.96402 10.7844 6.96281 10.7836 6.96361C10.779 7.01208 10.7806 7.05843 10.7823 7.09735C10.7856 7.10851 10.7881 7.11972 10.7939 7.13168L10.8162 7.17974C10.8606 7.27037 10.938 7.43142 10.938 7.43142C10.9396 7.42975 10.938 7.43182 10.9347 7.43682L10.9827 7.54153L11.2224 8.06401L11.2932 8.21799L11.3578 8.35875L12.3617 10.5467C11.9055 10.4904 11.5945 10.3654 11.2973 10.1397C11.2414 10.0975 11.1859 10.0528 11.1301 10.0031C11.0837 9.96007 11.0324 9.90999 10.9794 9.85738C10.6991 9.5792 10.3472 9.19667 10.1071 8.93505C9.99988 8.81827 9.91334 8.72391 9.86821 8.67752C9.79122 8.5877 9.67283 8.55953 9.55151 8.61295C9.52379 8.62537 9.49607 8.63698 9.46871 8.65848C9.38016 8.7272 9.32341 8.84766 9.34497 8.97185C9.35325 8.95862 9.36067 8.94661 9.36935 8.93252C9.36935 8.93252 9.36567 9.0079 9.49315 9.14285C9.62108 9.2782 9.79288 9.4496 9.79288 9.4496C9.7842 9.46369 9.77758 9.47404 9.76931 9.48812C10.1054 9.82386 10.4925 10.1923 10.4959 10.1956C10.7248 10.444 10.9583 10.6224 11.1913 10.7587C11.2468 10.7913 11.3023 10.8236 11.3573 10.8509C11.3975 10.8708 11.4377 10.8874 11.4778 10.9048C11.8765 11.0766 12.2669 11.1329 12.6237 11.1528C12.6291 11.1528 12.6345 11.1536 12.6398 11.154L12.6821 11.2455L13.2666 12.5197C13.2004 12.5127 13.1304 12.504 13.0514 12.4924C13.0514 12.4924 12.5467 12.4059 11.8632 12.2883C11.7928 12.2763 11.7204 12.2635 11.6467 12.2511C11.5668 12.2374 11.4853 12.2233 11.402 12.2088C11.3636 12.2022 11.3259 12.196 11.287 12.189C10.1704 11.9973 8.85025 11.7709 8.36463 11.6876L8.29425 11.7916C8.60474 11.8449 12.8626 12.5756 12.863 12.5761C13.5618 12.68 13.9431 12.6162 13.9514 12.6145C15.4413 12.5078 16.7164 12.2784 17.9488 12.0561L18.2038 12.0101L18.2076 12.0089L18.2113 12.0076C18.304 11.9936 18.3674 12.0876 18.3674 12.0876C18.4034 12.0275 18.3185 11.6798 18.3185 11.6798C18.3156 11.6723 18.0925 10.9652 17.9807 10.6837L17.9823 10.6891C17.9791 10.6783 17.9211 10.5521 17.8139 10.531C17.8139 10.531 17.8288 10.4415 17.8002 10.3848C17.8002 10.3848 17.7862 10.5202 17.6578 10.5483C16.526 10.7756 14.6324 11.0087 13.4774 11.0778C13.4724 11.0782 12.9831 11.0745 12.6117 11.0489C11.9841 11.0137 11.2687 10.8671 10.5761 10.1157C10.5683 10.1087 9.80197 9.37882 9.49355 9.04102C9.41656 8.93212 9.45755 8.81125 9.53828 8.74749C9.59543 8.70276 9.7225 8.66055 9.78667 8.73426C9.92122 8.91475 10.6519 9.6827 11.0274 10.0751C11.4522 10.4063 11.8053 10.5719 12.3977 10.646C12.6995 10.6845 13.135 10.6891 13.1536 10.6887C14.5264 10.6713 16.6779 10.3488 17.5642 10.191C17.6706 10.177 17.7696 10.2747 17.7696 10.2747L17.7402 10.1496L17.7448 10.1141C17.7464 10.102 17.7944 10.0636 17.8346 10.0449C17.9116 10.0106 18.0147 10.0093 18.0999 10.0793C18.6969 11.1793 19.2442 13.2566 19.1502 14.7631C19.1448 14.8451 19.1097 14.9113 19.0467 14.9436C19.0467 14.9436 18.8782 15.0657 18.7433 14.8525C18.7433 14.8525 18.7772 14.9457 18.6282 14.995C17.7096 15.2313 16.7255 15.245 15.8959 15.026C15.1437 14.8273 14.254 14.3918 13.7601 13.298C13.881 13.1349 14.1194 13.1329 14.1194 13.1329C14.8866 14.7743 16.8439 15.0612 18.5379 14.6282C18.5379 14.6282 18.6563 14.605 18.7147 14.6895C18.7644 14.5905 18.7677 14.2639 18.7677 14.2639C18.7656 14.2163 18.7457 13.2244 18.559 12.5516C18.557 12.528 18.5152 12.4088 18.4448 12.3872C18.4448 12.3872 18.4142 12.1915 18.4096 12.2275C18.3897 12.3893 18.1857 12.4009 18.1857 12.4009C17.1411 12.6493 15.5253 12.8555 14.249 12.9842C14.247 12.9846 14.1501 12.9995 13.977 13.0074L13.8396 13.0107C13.597 13.0136 13.212 13.0128 12.8216 12.9296C12.8216 12.9296 8.31909 12.1919 8.31702 12.1911C8.24871 12.1687 8.22842 12.0842 8.22842 12.0842C8.20651 12.0197 8.21726 11.9393 8.23341 11.8776L8.03758 12.1674C8.01895 12.196 7.99411 12.2184 7.9668 12.2374C8.19944 12.2767 9.98412 12.5789 11.2994 12.8021C11.354 12.8112 11.4078 12.8203 11.4608 12.829C11.5519 12.8447 11.6397 12.8592 11.7241 12.8737C11.7725 12.882 11.8193 12.8898 11.8653 12.8977C12.3708 12.983 12.7185 13.0422 12.7185 13.0422C12.8829 13.0815 13.3552 13.1316 13.5423 13.1428C13.5502 13.1436 13.5573 13.1436 13.5651 13.144L13.5912 13.1805C13.6372 13.2968 13.6898 13.409 13.7473 13.517C13.7866 13.5911 13.8321 13.6598 13.8765 13.7298C14.312 14.4125 14.9922 14.9051 15.8665 15.1357C16.7719 15.375 17.7998 15.3514 18.7892 15.0612C18.9076 15.1221 19.0206 15.0848 19.0985 15.0442C19.1204 15.0326 19.1394 15.0181 19.1569 15.0024C19.2202 14.9461 19.257 14.8637 19.2624 14.7673L19.262 14.7677ZM13.2339 11.1966L13.8106 12.4999C13.8106 12.4999 13.6546 12.5351 13.385 12.514C13.3142 12.3591 13.2302 12.1595 12.8601 11.3507C12.9855 11.1519 13.2339 11.1966 13.2339 11.1966ZM13.4298 11.19C13.7597 11.1693 14.1671 11.1345 14.6038 11.0907C14.6883 11.082 14.7735 11.0733 14.8601 11.0637C15.3796 11.0083 15.9269 10.9412 16.4312 10.8692C16.4705 10.8634 16.509 10.858 16.5475 10.8522C16.5429 10.8419 16.5405 10.8348 16.5405 10.8348C16.6071 10.8265 16.9379 10.7777 16.9379 10.7777C16.9396 10.7822 16.9416 10.7868 16.9432 10.7909C16.9743 10.786 17.0062 10.781 17.0368 10.776C17.2868 10.7346 17.515 10.6924 17.7075 10.651C17.7075 10.651 17.7936 10.6361 17.8218 10.6572C17.869 10.6928 17.871 10.7181 17.8714 10.7181V10.7209L17.8731 10.7239C17.9534 10.9255 18.0987 11.3593 18.1744 11.5882C18.2038 11.676 18.2229 11.7348 18.2233 11.7365C18.2486 11.8135 18.232 11.8776 18.1757 11.8979L17.9265 11.9427C17.5833 12.0043 17.2356 12.0669 16.882 12.1269C16.2155 12.2403 15.5225 12.345 14.7798 12.4237C14.6899 12.4332 14.6013 12.4431 14.5099 12.4519C14.3219 12.4696 14.1307 12.4862 13.9356 12.4999C13.9356 12.4999 13.9323 12.5011 13.9303 12.5024C13.8135 12.2212 13.614 11.7481 13.3643 11.1879C13.4028 11.1892 13.4277 11.19 13.4289 11.19H13.4298ZM10.897 7.07872C10.8614 6.99345 10.8899 6.92262 10.9264 6.86138C10.9744 6.78025 11.0692 6.73345 11.1334 6.73425C11.1789 6.73471 11.1922 6.75829 11.1942 6.76162L12.9661 10.5694C12.9661 10.5694 12.7061 10.5827 12.5194 10.5438C11.7825 8.93252 10.8982 7.08079 10.897 7.07872ZM14.5082 13.072C15.3581 12.9809 16.3724 12.8464 17.245 12.6957C17.4599 12.6584 17.6656 12.6203 17.8586 12.5818C18.0329 12.5471 18.1976 12.5119 18.3471 12.4762C18.3856 12.4659 18.4009 12.4767 18.4063 12.4808C18.434 12.4999 18.4448 12.552 18.4456 12.5678V12.574L18.4477 12.5793C18.5048 12.781 18.5483 13.0505 18.581 13.3171C18.5868 13.3643 18.5922 13.4111 18.5976 13.4574C18.6038 13.4615 18.6121 13.4673 18.6121 13.4673C18.6257 13.5949 18.6472 13.9496 18.6472 13.9496C18.646 13.9488 18.6443 13.948 18.6431 13.9476C18.6468 13.9931 18.6497 14.0354 18.6522 14.0742C18.6621 14.2237 18.6671 14.3214 18.6671 14.3239C18.6667 14.4473 18.5976 14.492 18.5872 14.4982C17.0091 14.9254 15.1726 14.7002 14.3439 13.3047C14.3206 13.2658 14.2954 13.2293 14.2739 13.1888L14.2002 13.1175C14.2598 13.1055 14.2942 13.0952 14.2942 13.0952C14.3641 13.0881 14.4357 13.0803 14.5078 13.0728L14.5082 13.072Z" fill="#311D00"/>
<path d="M8.38646 11.1573C8.22667 11.067 8.16291 10.9594 8.14342 10.8605L8.11651 10.9135C8.11651 10.9135 7.48977 11.8483 7.49058 11.847C7.43676 11.9228 7.42808 12.0085 7.46655 12.0896C7.51789 12.1981 7.64709 12.28 7.78037 12.2888C7.85156 12.2933 7.91492 12.2743 7.96667 12.2382C7.99357 12.2192 8.01841 12.1972 8.03745 12.1682L8.23328 11.8785C8.24858 11.8218 8.26888 11.7812 8.27342 11.787C8.27342 11.787 8.2813 11.7882 8.29291 11.7903L8.36329 11.6864L8.62617 11.2973C8.53302 11.2418 8.44936 11.1925 8.38686 11.1569L8.38646 11.1573ZM7.9497 12.0979C7.9083 12.162 7.84247 12.1712 7.79486 12.1678C7.70378 12.1616 7.60937 12.1037 7.57626 12.0333C7.55556 11.9902 7.56055 11.9468 7.5912 11.9042L8.18734 10.9942C8.2246 11.0666 8.52388 11.2459 8.52388 11.2459C8.39847 11.4314 7.95051 12.0975 7.95011 12.0979H7.9497Z" fill="#311D00"/>
<path d="M9.31411 11.4053C9.31411 11.4053 9.32693 11.4421 9.35384 11.4922V11.4914C9.37828 11.5357 9.4176 11.5767 9.46269 11.6036C9.7914 11.799 9.97315 11.5498 9.97482 11.5477C9.97603 11.5456 10.1259 11.3503 9.90692 11.1354C9.90151 11.1304 9.76783 11.0116 9.58608 11.034C9.56704 10.959 9.47183 10.7475 9.1994 10.757H9.19567C8.97711 10.7723 8.92658 10.8907 8.90133 10.9586C8.90133 10.9586 8.84545 11.1081 8.92784 11.2372C8.9291 11.2393 9.03507 11.4484 9.31411 11.4053ZM9.60137 11.0898C9.8477 11.0824 10.0394 11.3279 9.916 11.508L9.87173 11.515C9.65726 11.5428 9.5368 11.4579 9.50081 11.2675C9.53433 11.2434 9.58855 11.1772 9.60137 11.0894V11.0898ZM9.31532 10.8278C9.43704 10.8663 9.52605 10.9735 9.51944 11.0836L9.53352 11.0853C9.52358 11.1648 9.43911 11.2733 9.26771 11.2468C9.25862 11.2124 9.25777 11.1776 9.2557 11.1391C9.28387 11.1491 9.31532 11.1544 9.34884 11.1528C9.34763 11.1375 9.35258 11.1035 9.35258 11.1035C9.31825 11.1006 9.28841 11.0894 9.25529 11.075C9.25822 10.9818 9.27766 10.8977 9.31532 10.8282V10.8278ZM9.03053 10.88C9.08596 10.8344 9.12943 10.8137 9.21182 10.8183C9.17663 10.8725 9.16381 10.9528 9.15886 11.036C9.14185 11.0223 9.12862 11.0207 9.11166 11.0033V11.0625C9.12201 11.0816 9.13897 11.0878 9.16093 11.1027C9.16174 11.1548 9.16381 11.1942 9.17335 11.2293C9.16255 11.2248 9.15594 11.2157 9.14392 11.2103C8.97338 11.1147 9.03007 10.8808 9.03007 10.8808L9.03053 10.88ZM8.96798 10.9557C8.93985 11.3105 9.26357 11.3618 9.44532 11.2952C9.48546 11.5821 9.73471 11.59 9.85557 11.5705C9.70406 11.6661 9.41261 11.6015 9.35879 11.3316C9.12988 11.4016 8.87114 11.2165 8.96798 10.9553V10.9557Z" fill="#311D00"/>
<path d="M8.38614 11.1574C8.44865 11.1925 8.5323 11.2418 8.62545 11.2977C8.9939 11.5179 9.51633 11.842 9.51633 11.842C9.8769 12.071 10.1543 11.7423 10.2421 11.6252C10.3104 11.5341 10.5198 11.2521 10.5124 11.0112C10.5054 10.7765 10.3253 10.651 10.1646 10.5455L9.41571 10.0545C9.40703 10.0686 9.39587 10.0863 9.3884 10.0984L9.28737 10.0453L9.22487 10.1443C9.16404 10.1932 9.03444 10.1431 8.95371 10.0656C8.93548 10.0483 8.84648 9.95679 8.89989 9.89303L8.90282 9.8897L8.90489 9.88642C8.90651 9.88389 8.91317 9.87314 8.92392 9.85451L8.82457 9.80236C8.82911 9.79488 8.83613 9.78413 8.84279 9.77338C8.69497 9.7858 8.61924 9.90005 8.61217 9.91454C8.54634 10.0458 8.26114 10.5136 8.2102 10.5649C8.17996 10.5947 8.11498 10.7189 8.1423 10.8597C8.16178 10.9586 8.2255 11.0663 8.38534 11.1565L8.38614 11.1574ZM9.38385 10.158C9.67157 10.343 10.0504 10.591 10.2135 10.7148C10.507 10.9375 10.3488 11.205 10.3488 11.205C10.3782 11.0439 10.3058 10.8837 10.1179 10.7574C9.95475 10.6482 9.31635 10.223 9.31635 10.223L9.38385 10.158ZM8.75707 9.92736C8.74465 10.1422 9.07503 10.3149 9.23108 10.2722L10.0665 10.8311C10.1915 10.9214 10.3149 11.0754 10.2416 11.2832C10.2313 11.0882 9.98868 10.9346 9.98868 10.9346C9.98868 10.9346 9.09073 10.4064 8.81543 10.2337C8.65811 10.1352 8.67346 9.99819 8.75707 9.92696V9.92736ZM8.33934 10.5939C8.50453 10.3612 8.58526 10.2284 8.62085 10.1663C8.65604 10.2445 8.7662 10.3087 8.7662 10.3087C9.04398 10.4821 9.6281 10.8361 9.79617 10.9288C9.97666 11.0294 10.0135 11.0778 10.0135 11.0778C10.2234 11.2766 10.1837 11.4741 10.081 11.6123C9.9651 11.7684 9.74276 11.8673 9.55692 11.7435L9.30479 11.5891V11.5879L9.21371 11.5332L8.43088 11.053L8.42835 11.0513L8.42628 11.0501C8.42628 11.0501 8.29588 10.9901 8.26321 10.8688C8.24125 10.7885 8.2669 10.6953 8.33934 10.5935V10.5939Z" fill="#311D00"/>
<path d="M8.8252 9.80274L8.92455 9.85489C8.96676 9.78578 9.08888 9.58413 9.38696 9.10103C9.5004 9.25749 9.68215 9.42147 9.68215 9.42147L9.2876 10.0457L9.38862 10.0987C9.39609 10.0867 9.40685 10.0689 9.41593 10.0549C9.48465 9.94349 9.59521 9.76422 9.76661 9.48725C9.77529 9.47362 9.7815 9.46327 9.79019 9.44878C9.79019 9.44878 9.61838 9.27738 9.49045 9.14203C9.36297 9.00748 9.36666 8.9317 9.36666 8.9317C9.35798 8.94579 9.35096 8.95735 9.34228 8.97103C9.06819 9.41526 8.90799 9.67067 8.84342 9.77376C8.83676 9.78451 8.82974 9.79527 8.8252 9.80274Z" fill="#311D00"/>
<path d="M15.5381 4.3249L15.5546 4.37458C15.5546 4.37458 15.8411 5.25263 15.8908 5.40541L15.9152 5.40662C16.1864 5.43232 16.542 5.48447 16.6657 5.52587L16.6554 5.52294C16.7991 5.54364 16.8748 5.69934 16.8637 5.83181C16.8595 5.87776 16.8417 5.92451 16.814 5.96636C16.9444 5.82641 16.8964 5.55732 16.7055 5.50224C16.5353 5.45301 16.436 5.45302 16.3934 5.44595L15.8825 4.29673L16.1802 4.1688L16.9113 5.50971C17.3286 6.17169 16.5548 6.41139 16.2588 6.00649C16.2588 6.00649 16.3118 6.00523 16.3909 6.01604C16.3275 6.00195 16.2406 5.99034 16.1243 5.9912L16.0845 5.98746C16.1731 6.15139 16.2687 6.2412 16.3735 6.28674C16.4662 6.32693 16.5652 6.33481 16.6728 6.32733C16.8898 6.31325 17.0644 6.18532 17.1402 5.98125C17.1431 5.97297 17.2077 5.77592 17.0313 5.48154L16.2265 4.0181L16.1835 4.03551L15.596 4.28391L15.5799 4.29092L15.5389 4.3253L15.5381 4.3249ZM15.7906 4.33192L16.2729 5.43893C16.2017 5.42484 16.017 5.40334 16.017 5.40334L15.6556 4.38861L15.7902 4.33151L15.7906 4.33192Z" fill="#311D00"/>
<path d="M15.902 5.96797L15.9148 5.97004L15.9637 5.97711L16.0552 5.98539L16.0841 5.98786L16.1239 5.9916C16.2402 5.99074 16.3271 6.00235 16.3905 6.01644C16.4344 6.02265 16.4836 6.03173 16.542 6.04955C16.6707 6.06692 16.7573 6.028 16.8136 5.96757C16.8413 5.92576 16.8591 5.87896 16.8632 5.83302C16.8749 5.70054 16.7987 5.54489 16.655 5.5242L16.6654 5.52707C16.5416 5.48527 16.1856 5.43352 15.9148 5.40788L15.8904 5.40661L15.8742 5.40581L15.8006 5.40207H15.791L15.8258 5.48239C15.9148 5.69933 15.9281 5.85538 15.902 5.96883V5.96797ZM16.6434 5.61239L16.6484 5.61401L16.6538 5.61527C16.7275 5.62562 16.7714 5.72165 16.7643 5.80076C16.7606 5.84377 16.7349 5.94106 16.5879 5.94106C16.4907 5.91208 16.1715 5.86493 15.9293 5.8624C15.9293 5.71296 15.8378 5.50062 15.8378 5.50062C16.0349 5.51965 16.5391 5.57761 16.643 5.6128L16.6434 5.61239Z" fill="#311D00"/>
<path d="M14.9162 4.2259C14.9162 4.2259 14.7941 4.25448 14.852 4.46728C14.852 4.46728 14.8624 4.49292 14.8707 4.51529C14.9021 4.57698 14.9386 4.6569 15.0367 4.74384C15.0367 4.74384 15.0317 4.82911 15.0566 4.93261L15.0603 4.94503C15.0843 5.02535 15.1058 5.08785 15.165 5.15576C15.3066 5.31883 15.466 5.22694 15.4217 5.0299C15.3828 4.85643 15.3062 4.79185 15.23 4.71567C15.2441 4.40725 15.0532 4.18577 14.9162 4.22636V4.2259ZM15.2404 5.13253C15.1551 5.04767 15.1116 4.95412 15.1029 4.81917C15.2366 4.84688 15.319 5.01334 15.2404 5.13253ZM15.0624 4.67553C14.9899 4.62954 14.8988 4.45319 14.8964 4.34348C15.0656 4.34555 15.1141 4.59188 15.0624 4.67553Z" fill="#311D00"/>
<path d="M15.3518 4.2715H15.2835C15.2636 4.24333 15.2438 4.21849 15.2231 4.19739C15.216 4.19032 15.2094 4.1829 15.2024 4.17669C15.1953 4.16962 15.1887 4.16386 15.1817 4.15846C15.168 4.14685 15.1539 4.1361 15.1403 4.12782C15.1121 4.10959 15.0827 4.09636 15.0529 4.08728C15.0153 4.07486 14.9763 4.06945 14.9349 4.06905C14.9333 4.06905 14.9159 4.06905 14.8915 4.07359C14.8861 4.07526 14.8807 4.07607 14.8753 4.07647C14.8646 4.079 14.8529 4.08187 14.841 4.08642H14.8401C14.8273 4.09096 14.8132 4.09717 14.7996 4.10464L14.7209 4.14064C14.5189 3.79996 14.2879 3.47538 14.0275 3.17317C13.7671 2.87096 13.4781 2.58905 13.1635 2.33197C11.6711 1.11566 9.58249 0.465296 7.07373 0.832078C7.62267 0.698795 8.18569 0.623015 8.75123 0.606455C10.7922 0.546831 12.8625 1.2701 14.3856 2.92685C14.6054 3.1657 14.8132 3.42197 15.0086 3.69974C15.0356 3.74488 15.0608 3.7838 15.0873 3.82354C15.1088 3.85625 15.1316 3.89018 15.1547 3.92622C15.1891 3.97918 15.2268 4.03881 15.2686 4.1154C15.2938 4.16053 15.3216 4.21188 15.3514 4.2715H15.3518Z" fill="white"/>
<path d="M14.721 4.14064H14.6651V4.16841C14.6047 4.19905 14.5334 4.23505 14.4693 4.26691H13.8309C13.058 2.95831 11.542 1.61906 9.53207 1.10324C8.61842 0.868936 7.60249 0.805576 6.5083 0.991466L7.0738 0.832081C9.58256 0.465299 11.6711 1.11607 13.1635 2.33197C13.4782 2.58905 13.7676 2.87056 14.0276 3.17318C14.2875 3.47579 14.5189 3.79996 14.721 4.14064Z" fill="#311D00"/>
<path d="M14.081 4.83165C14.0474 4.73891 14.0317 4.70412 13.9891 4.55468C13.9311 4.35309 14.0106 4.34936 14.0955 4.34234C14.1501 4.33775 14.23 4.34809 14.2354 4.34936C14.2751 4.27938 14.3232 4.24626 14.3372 4.23758L14.3227 4.24339C13.9974 4.23137 14.0036 4.22804 14.0031 4.22804C13.8881 4.22723 13.7949 4.26944 13.7465 4.34522C13.6343 4.52035 13.7767 4.81176 13.787 4.83746C13.787 4.83746 13.9936 5.43193 14.0578 5.61696C14.0992 5.60828 14.1402 5.6004 14.1816 5.59258L13.8756 4.74678C13.7552 4.46113 13.8897 4.35431 13.8897 4.35431C13.8541 4.46113 13.8835 4.58326 13.9038 4.64783C13.9431 4.77289 14.0768 5.13881 14.1873 5.42077C14.2093 5.47666 14.2283 5.52922 14.2458 5.58016C14.2793 5.57395 14.3124 5.56688 14.3455 5.56027C14.2511 5.27628 14.1216 4.94262 14.0814 4.83206L14.081 4.83165Z" fill="#311D00"/>
<path d="M14.8826 4.01276C14.8826 4.01276 14.7819 4.0376 14.6979 4.06244L14.3431 4.23258C14.3431 4.23258 14.3394 4.23505 14.3369 4.23632C14.3229 4.245 14.2748 4.27812 14.2351 4.34809C14.2231 4.3696 14.2119 4.39403 14.2028 4.42221C14.1771 4.50414 14.1705 4.61592 14.2156 4.76455C14.243 4.8577 14.2707 4.94383 14.2976 5.02496C14.327 5.11316 14.3551 5.19222 14.3808 5.26174C14.4309 5.39629 14.4706 5.49236 14.4885 5.53376C14.4951 5.54865 14.4992 5.559 14.4992 5.559C14.4992 5.559 14.8114 5.48075 14.9318 5.53043C14.9318 5.53043 15.1868 5.62317 15.0734 5.85667C15.0734 5.85667 15.0519 5.97713 14.6623 6.02681C14.6623 6.02681 14.6677 6.05205 14.6793 6.08517C14.7046 6.15555 14.7633 6.26566 14.8888 6.2756C15.0734 6.28969 15.35 6.28969 15.4563 6.2756C15.5317 6.26525 15.8372 6.24334 15.9014 5.96718C15.9279 5.85374 15.9142 5.69769 15.8252 5.48075L15.7905 5.40002L15.3707 4.42428C15.3707 4.42428 15.3524 4.34769 15.3044 4.26075C15.2378 4.14069 15.1119 4.00034 14.8813 4.01276H14.8826ZM14.2918 4.41226L14.4003 4.36011C14.3369 4.57291 14.4409 4.80969 14.4409 4.80969L14.6839 5.48822L14.5563 5.5122C14.5563 5.5122 14.3982 5.0759 14.2984 4.77409C14.2227 4.54474 14.2918 4.41226 14.2918 4.41226ZM14.7642 6.07729C15.4452 6.02019 15.1355 5.37725 14.7811 5.46959C14.6458 5.13633 14.5398 4.80267 14.5398 4.80267C14.5398 4.80267 14.3978 4.44785 14.5042 4.31331L14.6532 4.23505C14.6532 4.23505 14.6483 4.23465 14.6466 4.26242C14.6437 4.3071 14.6503 4.38949 14.7029 4.51202C14.7882 4.71033 15.1396 5.52174 15.1852 5.63973C15.4125 6.2284 14.8259 6.3373 14.7642 6.07729ZM15.2088 6.19281C15.2088 6.19281 15.3227 6.11294 15.3297 6.02019C15.3297 6.02019 15.6133 6.02019 15.7644 6.02307C15.7644 6.02307 15.6816 6.22633 15.2088 6.19281ZM15.2854 4.47395C15.3417 4.60517 15.6178 5.23483 15.6981 5.43854C15.8049 5.70804 15.814 5.8285 15.814 5.8285H15.3421C15.3421 5.77922 15.2779 5.5946 15.2779 5.5946L15.001 4.94837L14.996 4.93429L14.8292 4.53025L14.7861 4.42387C14.7721 4.39196 14.7671 4.36465 14.7671 4.36465C14.7141 4.11707 14.9281 4.09682 15.0154 4.13322C15.1364 4.1829 15.2212 4.32492 15.2854 4.47395Z" fill="#311D00"/>
</g>
<defs>
<clipPath id="clip0_879_3842">
<rect width="20.6993" height="16" fill="white" transform="translate(0.647949)"/>
</clipPath>
</defs>
</svg>
