<svg width="41" height="16" viewBox="0 0 41 16" fill="none" xmlns="http://www.w3.org/2000/svg">
<g clip-path="url(#clip0_776_375)">
<g clip-path="url(#clip1_776_375)">
<path d="M8.96005 6.22191L7.30096 10.0117L6.82748 6.71812C6.76687 6.27115 7.52823 5.99463 7.52823 5.99463C7.45816 5.83933 7.21764 5.84312 7.21764 5.84312H6.70248C6.62105 5.03251 7.35589 4.4435 8.14946 4.62342C8.92975 4.79767 9.21384 5.64615 8.96005 6.22191Z" fill="#6E55DC"/>
<path d="M5.87851 11.239L2.64367 9.08364C1.81981 8.53441 1.00541 9.095 0.833063 9.67266C0.579275 10.5268 1.14935 11.239 2.04329 11.239H5.87851Z" fill="#FCCC12"/>
<path d="M6.3027 5.89616C6.42202 5.05904 5.67202 4.43972 4.86143 4.62343C4.08111 4.79767 3.79702 5.64616 4.05082 6.22192L5.70991 10.0117L6.3027 5.89426V5.89616Z" fill="#EF1541"/>
<path d="M5.57723 10.6348L3.98444 7.00408C3.61132 6.16318 2.62458 6.05901 2.07913 6.55143C1.69466 6.89993 1.39731 7.84688 2.25527 8.42074L5.57723 10.6348Z" fill="#FF7112"/>
<path d="M10.9676 11.2389C11.8634 11.2389 12.4316 10.5268 12.1778 9.67267C12.0054 9.09313 11.191 8.53252 10.3672 9.08365L7.13232 11.2389H10.9676Z" fill="#05AC3F"/>
<path d="M10.7553 8.42074C11.6133 7.84688 11.3159 6.89993 10.9314 6.55143C10.386 6.05901 9.39926 6.16318 9.02615 7.00408L7.43335 10.6348L10.7553 8.42074Z" fill="#069DE0"/>
<path d="M20.2063 4.76138H21.7252L24.8521 8.95079V4.76138H26.2764V11.2387H24.7573L21.6305 7.03979V11.2387H20.2063V4.76138Z" fill="#002F6C"/>
<path d="M33.5244 9.19888C33.5244 10.9602 32.1133 11.2387 31.2308 11.2387H27.4656V4.76138H31.2269C32.3803 4.76138 33.3028 5.41669 33.3028 6.64396C33.3028 7.25192 32.8747 7.58715 32.549 7.75192C33.0831 8.02086 33.5244 8.4167 33.5244 9.19888ZM28.8406 5.9754V7.20079H31.0603C31.4258 7.20079 31.8292 7.04738 31.8292 6.59282C31.8292 6.13828 31.5149 5.9754 31.0092 5.9754H28.8406ZM32.0604 9.19888C32.0604 8.57767 31.5433 8.4167 31.0376 8.4167H28.8406V9.96404H31.0906C31.5017 9.96404 32.0604 9.82199 32.0604 9.20079V9.19888Z" fill="#002F6C"/>
<path d="M40.7024 10.1818C39.9922 10.7917 39.227 11.4091 37.7138 11.4091C35.7024 11.3996 34.1436 9.84091 34.1436 7.98675C34.1531 6.07766 35.7763 4.59091 37.7326 4.59091C39.4297 4.59091 40.3445 5.67993 40.4638 5.79925L39.3936 6.86932C39.1606 6.63258 38.657 6.0947 37.7231 6.0947C36.5849 6.0947 35.6588 6.94698 35.6588 7.99432C35.6588 8.90721 36.4447 9.89393 37.7156 9.89393C38.7288 9.89393 39.102 9.5625 39.7251 9.03978L40.7042 10.1818H40.7024Z" fill="#002F6C"/>
<path d="M19.5546 10.1818C18.8443 10.7917 18.0792 11.4091 16.5659 11.4091C14.5546 11.3996 12.9958 9.84091 12.9958 7.98675C13.0053 6.07766 14.6284 4.59091 16.5849 4.59091C18.2818 4.59091 19.1966 5.67993 19.3159 5.79925L18.2459 6.86932C18.0129 6.63258 17.5091 6.0947 16.5754 6.0947C15.4371 6.0947 14.511 6.94698 14.511 7.99432C14.511 8.90721 15.297 9.89393 16.5678 9.89393C17.5811 9.89393 17.9542 9.5625 18.5773 9.03978L19.5565 10.1818H19.5546Z" fill="#002F6C"/>
</g>
</g>
<defs>
<clipPath id="clip0_776_375">
<rect width="40" height="16" fill="white" transform="translate(0.772461)"/>
</clipPath>
<clipPath id="clip1_776_375">
<rect width="40" height="6.81818" fill="white" transform="translate(0.772461 4.59091)"/>
</clipPath>
</defs>
</svg>
