<svg width="17" height="16" viewBox="0 0 17 16" fill="none" xmlns="http://www.w3.org/2000/svg">
<g clip-path="url(#clip0_750_314)">
<path d="M16.6986 0H0.698608V16H16.6986V0Z" fill="white"/>
<path d="M0.698608 0V16H16.6986V0H0.698608ZM6.44728 9.024V6.172C6.44728 5.09867 7.83461 4.58333 8.56861 5.83067C8.62194 5.92067 9.77794 7.912 9.77794 7.912V6.172C9.77794 5.09867 11.1646 4.58333 11.8986 5.83067C11.9519 5.92067 13.1079 7.912 13.1079 7.912V5.124H13.7999V9.80467C13.8017 9.83631 13.7927 9.86762 13.7744 9.89351C13.7562 9.9194 13.7297 9.93837 13.6993 9.94733C13.6259 9.96733 13.5486 9.922 13.4919 9.826C13.4806 9.80733 12.8919 8.79533 12.3266 7.81733L11.2893 6.03133C11.1439 5.78467 10.9273 5.74133 10.7733 5.78333C10.6845 5.80816 10.6066 5.86178 10.5517 5.93576C10.4968 6.00975 10.468 6.09989 10.4699 6.192V9.80467C10.4716 9.83629 10.4625 9.86754 10.4443 9.89341C10.426 9.91928 10.3996 9.93827 10.3693 9.94733C10.2953 9.96733 10.2179 9.922 10.1619 9.826C10.1519 9.80933 9.60594 8.86867 9.07861 7.95933C8.40661 6.80067 7.96528 6.04067 7.95861 6.02933C7.81328 5.782 7.59594 5.73933 7.44061 5.78133C7.35182 5.80614 7.27378 5.85973 7.21875 5.9337C7.16373 6.00767 7.13483 6.09783 7.13661 6.19V9.72667C7.13361 9.77371 7.11352 9.81804 7.08012 9.85131C7.04673 9.88458 7.00233 9.9045 6.95528 9.90733H5.15994C4.65356 9.90733 4.16791 9.70617 3.80984 9.3481C3.45177 8.99003 3.25061 8.50439 3.25061 7.998C3.25061 7.49161 3.45177 7.00597 3.80984 6.6479C4.16791 6.28983 4.65356 6.08867 5.15994 6.08867H6.09328V6.77933H5.16794C4.84473 6.77933 4.53476 6.90773 4.30621 7.13627C4.07767 7.36482 3.94928 7.67479 3.94928 7.998C3.94928 8.32121 4.07767 8.63118 4.30621 8.85973C4.53476 9.08827 4.84473 9.21667 5.16794 9.21667H6.25661C6.28187 9.21685 6.30691 9.21198 6.33025 9.20233C6.3536 9.19269 6.37478 9.17847 6.39255 9.16052C6.41031 9.14256 6.42431 9.12124 6.43371 9.09779C6.44311 9.07435 6.44772 9.04926 6.44728 9.024ZM14.7653 9.82733C14.7653 10.9007 13.3779 11.416 12.6439 10.1693C12.5913 10.0793 11.4346 8.08733 11.4346 8.08733V9.82733C11.4346 10.9007 10.0479 11.416 9.31394 10.1693C9.26061 10.0793 8.10461 8.08733 8.10461 8.08733V9.728C8.10461 10.4727 7.66261 10.876 6.97128 10.876H5.16128C4.39851 10.876 3.66699 10.573 3.12764 10.0336C2.58828 9.49429 2.28528 8.76276 2.28528 8C2.28528 7.23724 2.58828 6.50572 3.12764 5.96636C3.66699 5.42701 4.39851 5.124 5.16128 5.124H6.09461V5.81467H5.16128C4.87429 5.81467 4.59012 5.87119 4.32498 5.98102C4.05985 6.09084 3.81894 6.25181 3.61601 6.45474C3.41308 6.65766 3.25211 6.89857 3.14229 7.16371C3.03247 7.42885 2.97594 7.71302 2.97594 8C2.97594 8.28698 3.03247 8.57116 3.14229 8.83629C3.25211 9.10143 3.41308 9.34234 3.61601 9.54527C3.81894 9.74819 4.05985 9.90916 4.32498 10.019C4.59012 10.1288 4.87429 10.1853 5.16128 10.1853H6.95528C7.07571 10.183 7.19055 10.1341 7.27579 10.049C7.36103 9.96387 7.41005 9.8491 7.41261 9.72867V6.192C7.4109 6.16044 7.41991 6.12924 7.43819 6.10345C7.45647 6.07767 7.48293 6.05883 7.51328 6.05C7.58661 6.03 7.66394 6.07533 7.72061 6.17133L8.83994 8.1C9.49061 9.222 9.91794 9.95867 9.92328 9.96667C10.0693 10.2133 10.2866 10.2567 10.4419 10.214C10.5307 10.1891 10.6087 10.1354 10.6635 10.0612C10.7183 9.98712 10.7468 9.89683 10.7446 9.80467V6.19267C10.7428 6.1612 10.7516 6.13002 10.7696 6.10415C10.7876 6.07828 10.8138 6.05921 10.8439 6.05C10.9166 6.03 10.9933 6.07533 11.0493 6.17133L12.0866 7.95867L13.2526 9.96867C13.3666 10.162 13.5253 10.2307 13.6633 10.2307C13.6996 10.2307 13.7357 10.2257 13.7706 10.216C13.8605 10.1918 13.9397 10.1381 13.9955 10.0635C14.0512 9.98892 14.0802 9.89776 14.0779 9.80467V5.124H14.7673L14.7653 9.82733Z" fill="#CC0000"/>
</g>
<defs>
<clipPath id="clip0_750_314">
<rect width="16" height="16" fill="white" transform="translate(0.698608)"/>
</clipPath>
</defs>
</svg>
