<svg width="121" height="64" viewBox="0 0 121 64" fill="none" xmlns="http://www.w3.org/2000/svg">
<g clip-path="url(#clip0_755_215)">
<g clip-path="url(#clip1_755_215)">
<mask id="mask0_755_215" style="mask-type:luminance" maskUnits="userSpaceOnUse" x="0" y="21" width="121" height="22">
<path d="M120.562 21.3036H0.804688V42.6964H120.562V21.3036Z" fill="white"/>
</mask>
<g mask="url(#mask0_755_215)">
<path d="M24.975 27.2761C20.6244 27.2761 17.2251 30.5786 17.2251 34.9998C17.2251 39.421 20.5385 42.6953 24.975 42.6953C29.4114 42.6953 32.7824 39.3645 32.7824 34.9716C32.7824 30.6069 29.469 27.2761 24.975 27.2761ZM25.0043 39.5091C22.5268 39.5091 20.7114 37.5849 20.7114 35.0009C20.7114 32.3875 22.4975 30.4645 24.975 30.4645C27.4818 30.4645 29.2961 32.4169 29.2961 35.0009C29.2961 37.5849 27.4818 39.5091 25.0043 39.5091ZM33.7325 30.6362H35.8935V42.4094H39.3504V27.5631H33.7325V30.6362ZM8.52517 30.4634C10.3406 30.4634 11.781 31.5831 12.3278 33.2485H15.9869C15.3238 29.6883 12.3854 27.2761 8.55451 27.2761C4.204 27.2761 0.804688 30.5786 0.804688 35.0009C0.804688 39.4232 4.11812 42.6964 8.55451 42.6964C12.2995 42.6964 15.2955 40.2841 15.9586 36.6946H12.3278C11.8093 38.36 10.3689 39.5091 8.55344 39.5091C6.04662 39.5091 4.28987 37.5849 4.28987 35.0009C4.29097 32.3875 6.01944 30.4634 8.52517 30.4634ZM99.4163 33.5648L96.8812 33.192C95.6715 33.0202 94.8071 32.618 94.8071 31.6701C94.8071 30.6362 95.9313 30.1199 97.4575 30.1199C99.1285 30.1199 100.195 30.8374 100.425 32.0147H103.767C103.392 29.0284 101.087 27.2771 97.5444 27.2771C93.8852 27.2771 91.4655 29.1437 91.4655 31.7853C91.4655 34.3117 93.0503 35.7771 96.2475 36.2358L98.7825 36.6087C100.022 36.7804 100.713 37.2696 100.713 38.1882C100.713 39.3656 99.5035 39.8536 97.8325 39.8536C95.7865 39.8536 94.6343 39.0209 94.4615 37.7578H91.0621C91.3796 40.6581 93.6549 42.6964 97.8031 42.6964C101.578 42.6964 104.083 40.9734 104.083 38.0154C104.083 35.3738 102.269 33.9953 99.4163 33.5648ZM37.622 21.4471C36.3544 21.4471 35.4035 22.3657 35.4035 23.6289C35.4035 24.8921 36.3534 25.8107 37.622 25.8107C38.8895 25.8107 39.8408 24.8921 39.8408 23.6289C39.8408 22.3657 38.8895 21.4471 37.622 21.4471ZM88.3542 32.6463C88.3542 29.4307 86.3954 27.2771 82.2469 27.2771C78.329 27.2771 76.1396 29.2589 75.7071 32.3027H79.1356C79.3084 31.1254 80.2303 30.1492 82.1894 30.1492C83.9473 30.1492 84.8114 30.9243 84.8114 31.8723C84.8114 33.1072 83.2263 33.4224 81.2675 33.6236C78.6172 33.9105 75.333 34.8291 75.333 38.2752C75.333 40.9462 77.3212 42.6681 80.4904 42.6681C82.9676 42.6681 84.5232 41.6343 85.3017 39.9971C85.4171 41.4614 86.5118 42.4094 88.039 42.4094H90.0556V39.3373H88.3552V32.6463H88.3542ZM84.9548 36.3793C84.9548 38.3611 83.2263 39.8254 81.1228 39.8254C79.8262 39.8254 78.7315 39.2797 78.7315 38.1317C78.7315 36.6674 80.489 36.2652 82.1025 36.0934C83.6582 35.9499 84.5222 35.6053 84.9548 34.9444V36.3793ZM66.6038 27.2761C64.6731 27.2761 63.06 28.0805 61.9078 29.4296V21.3036H58.4508V42.4094H61.8499V40.457C63.0021 41.8637 64.645 42.6964 66.6038 42.6964C70.752 42.6964 73.8927 39.4232 73.8927 35.0009C73.8927 30.5786 70.6945 27.2761 66.6038 27.2761ZM66.0854 39.5091C63.6078 39.5091 61.7924 37.5849 61.7924 35.0009C61.7924 32.4169 63.6362 30.4645 66.1134 30.4645C68.6204 30.4645 70.3769 32.3886 70.3769 35.0009C70.3769 37.5849 68.5626 39.5091 66.0854 39.5091ZM50.1822 27.2761C47.9353 27.2761 46.4655 28.1947 45.6015 29.4872V27.5631H42.1726V42.4083H45.6295V34.34C45.6295 32.0712 47.0699 30.4634 49.2018 30.4634C51.19 30.4634 52.4281 31.8701 52.4281 33.9095V42.4094H55.885V33.6518C55.8864 29.9177 53.9567 27.2761 50.1822 27.2761ZM120.562 34.5128C120.562 30.2634 117.451 27.2771 113.273 27.2771C108.837 27.2771 105.581 30.608 105.581 35.0009C105.581 39.6243 109.067 42.6964 113.331 42.6964C116.933 42.6964 119.756 40.5711 120.475 37.5566H116.874C116.355 38.8774 115.088 39.6243 113.388 39.6243C111.169 39.6243 109.498 38.2458 109.124 35.8336H120.561V34.5128H120.562ZM109.326 33.3638C109.874 31.2961 111.43 30.2917 113.216 30.2917C115.175 30.2917 116.673 31.4113 117.019 33.3638H109.326Z" fill="#0052FF"/>
</g>
</g>
</g>
<defs>
<clipPath id="clip0_755_215">
<rect width="120" height="64" fill="white" transform="translate(0.804688)"/>
</clipPath>
<clipPath id="clip1_755_215">
<rect width="120" height="21.3928" fill="white" transform="translate(0.804688 21.3036)"/>
</clipPath>
</defs>
</svg>
