<svg width="41" height="16" viewBox="0 0 41 16" fill="none" xmlns="http://www.w3.org/2000/svg">
<g clip-path="url(#clip0_755_215)">
<g clip-path="url(#clip1_755_215)">
<mask id="mask0_755_215" style="mask-type:luminance" maskUnits="userSpaceOnUse" x="0" y="4" width="41" height="8">
<path d="M40.0274 4.43454H0.108154V11.5655H40.0274V4.43454Z" fill="white"/>
</mask>
<g mask="url(#mask0_755_215)">
<path d="M8.16491 6.42536C6.71474 6.42536 5.58164 7.52622 5.58164 8.99993C5.58164 10.4737 6.6861 11.5651 8.16491 11.5651C9.64371 11.5651 10.7674 10.4548 10.7674 8.99052C10.7674 7.53563 9.66292 6.42536 8.16491 6.42536ZM8.1747 10.503C7.34887 10.503 6.74372 9.86164 6.74372 9.0003C6.74372 8.12918 7.33909 7.48817 8.16491 7.48817C9.00051 7.48817 9.6053 8.13896 9.6053 9.0003C9.6053 9.86164 9.00051 10.503 8.1747 10.503ZM11.0841 7.54541H11.8044V11.4698H12.9567V6.52102H11.0841V7.54541ZM2.68165 7.4878C3.28679 7.4878 3.76692 7.86104 3.94919 8.41617H5.1689C4.94786 7.22944 3.9684 6.42536 2.69143 6.42536C1.24126 6.42536 0.108154 7.52622 0.108154 9.0003C0.108154 10.4744 1.21263 11.5655 2.69143 11.5655C3.93976 11.5655 4.93844 10.7614 5.15947 9.56486H3.94919C3.77634 10.12 3.29621 10.503 2.69107 10.503C1.85546 10.503 1.26988 9.86164 1.26988 9.0003C1.27025 8.12918 1.8464 7.4878 2.68165 7.4878ZM32.9787 8.52161L32.1337 8.39733C31.7304 8.34008 31.4423 8.206 31.4423 7.89003C31.4423 7.54541 31.817 7.37329 32.3258 7.37329C32.8828 7.37329 33.2382 7.61246 33.315 8.00489H34.4289C34.3039 7.00948 33.5357 6.42572 32.3547 6.42572C31.135 6.42572 30.3284 7.0479 30.3284 7.92843C30.3284 8.77056 30.8567 9.25903 31.9224 9.41194L32.7674 9.53623C33.1806 9.59348 33.411 9.75655 33.411 10.0627C33.411 10.4552 33.0078 10.6179 32.4508 10.6179C31.7688 10.6179 31.3847 10.3403 31.3271 9.91925H30.1939C30.2998 10.886 31.0582 11.5655 32.441 11.5655C33.6991 11.5655 34.5343 10.9911 34.5343 10.0051C34.5343 9.12459 33.9295 8.66511 32.9787 8.52161ZM12.3806 4.48237C11.9581 4.48237 11.6411 4.78857 11.6411 5.20963C11.6411 5.6307 11.9577 5.93689 12.3806 5.93689C12.8031 5.93689 13.1202 5.6307 13.1202 5.20963C13.1202 4.78857 12.8031 4.48237 12.3806 4.48237ZM29.2913 8.21542C29.2913 7.14355 28.6384 6.42572 27.2556 6.42572C25.9496 6.42572 25.2198 7.08631 25.0756 8.10091H26.2185C26.2761 7.70848 26.5834 7.38307 27.2364 7.38307C27.8224 7.38307 28.1104 7.64144 28.1104 7.95743C28.1104 8.36907 27.582 8.47415 26.9291 8.54119C26.0456 8.63685 24.9509 8.94304 24.9509 10.0917C24.9509 10.9821 25.6137 11.556 26.67 11.556C27.4958 11.556 28.0143 11.2114 28.2738 10.6657C28.3123 11.1538 28.6772 11.4698 29.1863 11.4698H29.8585V10.4458H29.2917V8.21542H29.2913ZM28.1582 9.45978C28.1582 10.1204 27.582 10.6085 26.8809 10.6085C26.4487 10.6085 26.0838 10.4266 26.0838 10.0439C26.0838 9.5558 26.6696 9.42173 27.2074 9.36448C27.726 9.31665 28.014 9.20177 28.1582 8.98146V9.45978ZM22.0412 6.42536C21.3976 6.42536 20.8599 6.6935 20.4758 7.1432V4.43454H19.3235V11.4698H20.4566V10.819C20.8406 11.2879 21.3883 11.5655 22.0412 11.5655C23.4239 11.5655 24.4708 10.4744 24.4708 9.0003C24.4708 7.52622 23.4048 6.42536 22.0412 6.42536ZM21.8684 10.503C21.0425 10.503 20.4374 9.86164 20.4374 9.0003C20.4374 8.13896 21.052 7.48817 21.8777 7.48817C22.7134 7.48817 23.2989 8.12955 23.2989 9.0003C23.2989 9.86164 22.6941 10.503 21.8684 10.503ZM16.5673 6.42536C15.8183 6.42536 15.3284 6.73155 15.0404 7.16239V6.52102H13.8975V11.4694H15.0498V8.77999C15.0498 8.02373 15.5299 7.4878 16.2405 7.4878C16.9033 7.4878 17.316 7.9567 17.316 8.63649V11.4698H18.4683V8.55061C18.4687 7.30589 17.8255 6.42536 16.5673 6.42536ZM40.0274 8.8376C40.0274 7.42112 38.9903 6.42572 37.5977 6.42572C36.119 6.42572 35.0337 7.536 35.0337 9.0003C35.0337 10.5414 36.1957 11.5655 37.617 11.5655C38.8175 11.5655 39.7585 10.857 39.9984 9.85221H38.7978C38.625 10.2925 38.2025 10.5414 37.6358 10.5414C36.8962 10.5414 36.3392 10.0819 36.2146 9.27787H40.027V8.8376H40.0274ZM36.282 8.45458C36.4647 7.76537 36.9831 7.43055 37.5786 7.43055C38.2315 7.43055 38.7309 7.80378 38.8461 8.45458H36.282Z" fill="#0052FF"/>
</g>
</g>
</g>
<defs>
<clipPath id="clip0_755_215">
<rect width="40" height="16" fill="white" transform="translate(0.108154)"/>
</clipPath>
<clipPath id="clip1_755_215">
<rect width="40" height="7.13092" fill="white" transform="translate(0.108154 4.43454)"/>
</clipPath>
</defs>
</svg>
