<svg width="21" height="16" viewBox="0 0 21 16" fill="none" xmlns="http://www.w3.org/2000/svg">
<g clip-path="url(#clip0_2_7539)">
<path d="M19.6253 8.87549C19.4015 8.87549 19.2197 9.05692 19.2197 9.28089C19.2197 9.50465 19.4015 9.68635 19.6253 9.68635C19.8491 9.68635 20.0305 9.50465 20.0305 9.28092C20.0305 9.05692 19.8491 8.87549 19.6253 8.87549ZM19.6253 9.59935C19.5835 9.59939 19.542 9.59118 19.5034 9.57519C19.4647 9.55921 19.4296 9.53575 19.4 9.50618C19.3705 9.4766 19.347 9.44148 19.331 9.40283C19.315 9.36418 19.3068 9.32275 19.3068 9.28092C19.3068 9.10497 19.4491 8.96268 19.6253 8.96268C19.8012 8.96268 19.9437 9.10497 19.9437 9.28092C19.9437 9.45692 19.8012 9.59935 19.6253 9.59935ZM19.7919 9.18692C19.7918 9.15047 19.7773 9.11553 19.7515 9.08976C19.7257 9.06402 19.6907 9.04957 19.6543 9.04957H19.4589V9.51235H19.5458V9.32441H19.6081L19.6958 9.51235H19.7919L19.7003 9.31638C19.727 9.30687 19.7502 9.28933 19.7666 9.26616C19.783 9.24299 19.7918 9.21531 19.7919 9.18692ZM19.6543 9.23752H19.5458V9.13627H19.6543C19.6822 9.13627 19.705 9.15892 19.705 9.18695C19.705 9.20037 19.6996 9.21324 19.6901 9.22271C19.6806 9.23219 19.6677 9.23752 19.6543 9.23752Z" fill="black"/>
<path d="M18.7012 9.31916C19.3274 8.41203 19.6486 7.50551 19.6486 6.62254C19.6486 4.29343 17.2668 2.72789 13.7211 2.72789C13.7211 2.72789 13.5518 2.73078 13.434 2.73262C13.0754 2.14487 12.4074 1.81749 11.8458 1.69768L10.7717 0L8.49608 3.7187C4.376 5.25251 1.50335 8.11686 1.50335 10.7019C1.50335 11.6684 1.918 12.525 2.69603 13.1945L0.978516 16C0.978516 16 3.99149 15.52 8.54979 15.2559L8.828 14.5199C10.1634 14.3788 11.5534 14.035 12.8766 13.5208C12.8885 13.6099 12.9088 13.7036 12.9551 13.7959L13.2043 14.2934C13.5772 15.0398 14.3167 15.9295 15.7196 15.9295C19.2974 15.9295 20.3649 12.9067 20.3649 12.9067C20.4111 10.5285 18.7012 9.31916 18.7012 9.31916Z" fill="white"/>
<path d="M18.4299 9.35999C19.0752 8.47555 19.4481 7.54296 19.4481 6.62242C19.4481 4.5231 17.3577 2.92796 13.721 2.92796C13.5891 2.92796 13.4568 2.93099 13.3244 2.9351C12.9871 2.2751 12.2269 1.96496 11.7204 1.87447L10.7747 0.378906L8.63156 3.88007C4.80237 5.28774 1.70353 8.04518 1.70353 10.7019C1.70353 11.6584 2.13875 12.5097 2.95515 13.1536L1.37207 15.7401C1.37207 15.7401 4.64315 15.2658 8.40837 15.063L8.68375 14.3343C10.1825 14.1897 11.6852 13.7974 13.0725 13.2293C13.0641 13.2863 13.0383 13.5143 13.1341 13.7061L13.383 14.2042C13.7771 14.9919 14.491 15.7292 15.7193 15.7292C19.1513 15.7292 20.1646 12.8723 20.1646 12.8723C20.1646 11.2766 19.4322 10.1187 18.4299 9.35999Z" fill="#236093"/>
<path d="M19.1148 11.9639C18.8958 12.2974 18.5372 12.6874 18.4318 12.8001L18.4298 13.798L18.3652 13.8045L18.2291 13.8174L17.8849 13.285C15.3885 15.0379 13.5151 13.9598 13.5151 13.9598L14.0777 14.8253C15.0796 16.1098 18.3528 15.6466 19.7484 13.2697L19.5591 13.2624C19.5262 12.7224 19.1148 11.9639 19.1148 11.9639Z" fill="black"/>
<path d="M15.4411 8.25351L12.4047 3.4527C12.3002 3.43027 12.1882 3.4197 12.0699 3.4197L15.1185 8.23981C15.2244 8.24116 15.3321 8.24532 15.4411 8.25351ZM6.19638 8.87529L10.782 1.38356L11.0781 1.85202C11.1989 1.86421 11.3138 1.88013 11.4222 1.8994L10.7784 0.881348L6.15479 8.43521C6.15533 8.52624 6.16214 8.68716 6.19638 8.87529Z" fill="#C2C6C9"/>
<path d="M11.2884 11.8945C9.54671 11.8945 8.38123 12.7665 6.79477 12.7665C4.58628 12.7665 3.90923 11.2081 3.90923 10.1297C3.90923 6.80657 7.82682 4.80322 7.82682 4.80322L7.90393 4.67725C7.89082 4.68303 7.85706 4.69911 7.80677 4.72371C7.15604 5.04462 3.64009 6.92573 3.64009 10.1297C3.64009 10.6426 3.75806 11.1054 3.96542 11.5028C4.01196 11.5916 4.06323 11.6779 4.11901 11.7612L1.89258 15.3979C1.89258 15.3979 4.63955 15.0062 8.22071 14.8075L9.05098 12.6105C9.77734 12.3967 10.4861 12.1823 11.4009 12.1823C13.3382 12.1823 14.5833 13.2196 14.5833 13.2196C14.5833 13.2196 13.8741 11.8945 11.2884 11.8945Z" fill="#C2C6C9"/>
<path d="M12.0697 3.4199C11.2741 3.42219 10.1848 3.92055 9.03205 4.7346L9.55654 3.87973L9.91564 3.58928L10.1892 2.5976L10.6335 2.4609L10.7645 1.82828C10.8691 1.83331 10.9737 1.8413 11.0779 1.85222L10.7818 1.38379L6.19616 8.87552C6.29378 9.41217 6.61618 10.1707 7.65967 10.1707C9.74924 10.1707 12.7703 8.23919 15.0684 8.23919C15.0847 8.23919 15.1015 8.24 15.1182 8.24L12.0697 3.41995V3.4199ZM4.29029 11.9895L2.41016 15.0608C2.41016 15.0608 4.75232 14.7476 8.03351 14.5526L8.73237 12.7025C8.10902 12.8796 7.44986 13.0334 6.6194 13.0334C5.68424 13.0334 4.83932 12.6482 4.29029 11.9895Z" fill="#8A2432"/>
<path d="M16.6504 14.5807L16.8039 14.3272C14.7252 15.0158 13.8662 14.3032 13.8662 14.3032C14.5693 15.0935 16.081 14.7478 16.6504 14.5807Z" fill="#C2C6C9"/>
<path d="M14.1799 14.7257C14.7786 15.4591 16.6008 15.3832 18.0279 14.5294L18.1349 14.2472C17.2404 14.8609 15.2514 15.4294 14.1799 14.7257ZM10.8097 6.78613L9.86737 9.29108C9.86737 9.29108 8.55554 9.78681 7.68994 9.92829C9.4257 10.0597 12.4405 8.09529 14.4107 8.09529C13.5239 7.81816 11.3931 8.65786 11.3931 8.65786L10.8097 6.78613Z" fill="#C2C6C9"/>
<path d="M10.7858 7.60254C10.6071 8.07743 10.4034 8.61949 10.2095 9.13484L11.1435 8.74973C11.0325 8.39424 10.9069 7.99189 10.7858 7.60254Z" fill="#236093"/>
<path d="M7.80695 4.72342C4.8683 5.86602 2.58936 7.91123 2.58936 9.96783C2.58936 10.8563 2.98665 11.5482 3.61568 12.0742L3.96563 11.5025C3.75827 11.1051 3.6403 10.6423 3.6403 10.1294C3.6403 6.92545 7.15625 5.04434 7.80698 4.72342H7.80695ZM18.0386 9.09191C18.3891 8.51331 18.5855 7.91169 18.5855 7.30883C18.5855 5.01575 15.9383 4.03085 13.4887 3.83634C13.4726 4.02629 13.4295 4.23223 13.3529 4.45526L15.7777 8.28877C16.5347 8.39099 17.3332 8.65445 18.0386 9.09191ZM12.4047 3.4528C12.7495 3.52645 13.016 3.7255 13.1754 4.07367C13.3742 3.31526 13.1261 2.20083 11.4221 1.89945C11.3081 1.87937 11.1933 1.86357 11.0781 1.85207C10.9738 1.84115 10.8693 1.83315 10.7646 1.82812L10.6336 2.46075L10.1893 2.59742L9.91579 3.5891L9.55668 3.87958L9.03219 4.73445C10.1849 3.9204 11.2742 3.42202 12.0698 3.41975C12.1882 3.41975 12.3002 3.43034 12.4047 3.4528Z" fill="white"/>
<path d="M15.0707 8.44904C12.5529 8.44904 9.78674 10.4109 7.61512 10.4109C6.97047 10.4109 6.77607 10.1716 6.77607 10.1716L6.68201 10.3177C6.68201 10.3177 4.02004 9.03988 7.65499 5.08398C7.65499 5.08398 4.52515 6.71596 4.27588 10.0178L4.4652 9.85988C4.4652 9.85988 4.36669 12.0819 6.88282 12.0819C8.90647 12.0819 9.62412 11.3307 11.5016 11.3307C15.507 11.3307 16.1488 13.614 16.1488 13.614C16.1488 13.614 13.5239 14.3878 13.3508 12.9383C13.3508 12.9383 12.9504 14.6365 16.3147 13.7818C16.3147 13.7818 16.5272 13.4492 16.5019 13.0156C16.5019 13.0156 16.8123 13.3275 16.8661 13.5657C16.8661 13.5657 17.1209 13.2744 16.7123 12.4896C16.7123 12.4896 17.061 12.8084 17.2881 13.2733L17.4288 13.1549C17.4288 13.1549 17.4394 12.8152 16.7633 11.9033L16.3037 12.1919C16.3037 12.1919 15.233 10.1693 11.2523 10.429C11.2523 10.429 14.5673 9.25307 16.4959 11.6472L16.9113 11.3628C16.9113 11.3628 18.0684 12.4873 18.3657 13.8043L18.4303 13.7978L18.4322 12.7998L18.4347 11.6077L18.77 12.0003C18.77 12.0003 18.9323 11.7052 18.7377 11.0885C18.7377 11.0885 19.5166 11.8496 19.7488 13.2695L19.8088 12.4793C19.8088 11.7984 18.6782 8.44904 15.0707 8.44904ZM17.969 10.7187L17.854 11.5756L17.3167 11.0089L17.0537 11.1463C16.6921 10.6883 15.2986 9.52834 13.667 9.52834C11.3262 9.52834 9.32361 11.2186 7.31885 11.2186C5.13061 11.2186 5.04247 9.91207 5.04247 9.39504C5.04247 8.43526 5.60437 7.38869 5.60437 7.38869C5.41193 7.9759 4.59172 10.8673 7.47104 10.8673C9.73685 10.8673 10.951 9.3029 13.592 9.3029C16.1331 9.3029 17.1589 10.7513 17.1589 10.7513L17.3564 10.6268L17.7315 11.0308L17.7602 10.6128L17.991 10.2089C17.4574 9.15615 16.2647 8.78604 16.2647 8.78604C17.8268 9.07936 18.2947 10.2195 18.2947 10.2195L17.969 10.7187Z" fill="white"/>
<path d="M9.23242 12.8825L9.01025 13.471C10.3293 13.4253 11.6635 13.1561 12.9003 12.7259C11.544 12.0964 9.4472 12.8068 9.23242 12.8825Z" fill="white"/>
<path d="M12.8049 3.22286C12.0866 2.5394 10.3887 3.09751 10.3887 3.09751L10.3433 3.28C12.0526 2.64178 12.8049 3.22286 12.8049 3.22286Z" fill="#236093"/>
<path d="M9.61377 4.14226C11.7391 2.95404 12.609 3.27326 12.9358 3.55945C11.924 2.49769 9.79069 3.87123 9.79069 3.87123L9.6138 4.14232L9.61377 4.14226Z" fill="#C2C6C9"/>
</g>
<defs>
<clipPath id="clip0_2_7539">
<rect width="19.3873" height="16" fill="white" transform="translate(0.978516)"/>
</clipPath>
</defs>
</svg>
