<svg width="19" height="16" viewBox="0 0 19 16" fill="none" xmlns="http://www.w3.org/2000/svg">
<g clip-path="url(#clip0_2_7395)">
<path d="M14.5008 12.0322C14.2769 12.0322 14.0952 12.2137 14.0952 12.4377C14.0952 12.6614 14.2769 12.8431 14.5008 12.8431C14.7246 12.8431 14.906 12.6614 14.906 12.4377C14.906 12.2137 14.7246 12.0322 14.5008 12.0322ZM14.5008 12.7561C14.4378 12.7562 14.3762 12.7376 14.3238 12.7026C14.2714 12.6676 14.2306 12.6178 14.2065 12.5596C14.1905 12.5209 14.1823 12.4795 14.1823 12.4377C14.1823 12.2617 14.3246 12.1195 14.5008 12.1195C14.6767 12.1195 14.8191 12.2617 14.8191 12.4377C14.8191 12.6137 14.6767 12.7561 14.5008 12.7561ZM14.6674 12.3437C14.6674 12.3165 14.6593 12.2899 14.6442 12.2673C14.629 12.2447 14.6075 12.2272 14.5824 12.2168C14.5657 12.2099 14.5478 12.2063 14.5298 12.2064H14.3344V12.6691H14.4213V12.4812H14.4836L14.5713 12.6691H14.6674L14.5758 12.4732C14.6025 12.4637 14.6257 12.4461 14.6421 12.423C14.6585 12.3998 14.6673 12.3721 14.6674 12.3437ZM14.5298 12.3943H14.4213V12.293H14.5298C14.5577 12.293 14.5805 12.3157 14.5805 12.3437C14.5805 12.3571 14.5751 12.37 14.5656 12.3795C14.5561 12.389 14.5432 12.3943 14.5298 12.3943Z" fill="#041E42"/>
<path d="M14.9763 11.5044L18.575 3.2227C18.575 3.2227 15.9706 4.76503 12.9951 5.94381L18.108 2.14246L14.8898 2.69624C14.4293 2.42038 12.8285 1.59073 10.2428 1.59073C10.2428 1.59073 10.0162 1.59608 9.8227 1.60073C9.72778 1.32162 9.2777 0 9.2777 0L8.45259 1.71068C3.74032 2.31662 0.0722656 5.09973 0.0722656 8.10287C0.0722656 9.44492 0.648211 11.21 3.29989 12.1633L1.96224 15.4693L5.50118 12.6785C6.26162 12.7812 7.10372 12.8348 8.01329 12.8348C9.07778 12.8348 10.1246 12.7543 11.1297 12.5998L15.0021 16L13.6808 12.013C13.6808 12.013 14.4598 11.7615 14.9763 11.5044Z" fill="#A2AAAD"/>
<path d="M17.9101 3.97072C17.9101 3.97072 14.8751 5.73796 11.4952 6.90521L11.3764 6.57753L17.1729 2.55718L10.7298 4.20723L14.3354 2.75475C14.3354 2.75475 12.8086 1.90264 10.2426 1.90264C10.0282 1.90264 9.81425 1.90783 9.60095 1.91786L9.22763 0.821289L7.22152 4.98059L4.16098 5.84983L7.00152 4.68448L7.93309 2.78556L8.12828 2.38788L8.2979 2.04237C4.02173 2.6548 0.383789 5.20394 0.383789 8.10307C0.383789 9.72794 1.27746 11.2166 3.72573 11.982L2.46095 14.7381L5.40768 12.3532C6.17076 12.4637 7.03598 12.5235 8.01309 12.5235C9.23736 12.5235 10.3148 12.4193 11.2291 12.2712L14.4967 15.1751L13.2756 11.8117C14.2261 11.5321 14.7353 11.2766 14.7353 11.2766L17.9102 3.97069L17.9101 3.97072Z" fill="#041E42"/>
<path d="M5.61828 7.85915L5.87093 7.30839L4.39139 6.90137C4.39139 6.90137 3.97047 7.65353 5.61828 7.85915Z" fill="#A2AAAD"/>
<path d="M14.6598 3.75229L9.94603 4.89429L9.11576 2.29883L7.80059 5.43796L4.22438 6.33294L6.72776 6.94564L6.24749 7.9055C6.29076 7.90656 6.335 7.90772 6.38 7.90861C6.44016 7.90956 6.50159 7.91037 6.56535 7.91037C6.73816 7.91037 6.91351 7.90483 7.09178 7.89399C7.52822 7.86772 7.98043 7.81026 8.44111 7.72818C8.7913 7.66569 9.14649 7.58891 9.50324 7.50061C9.97419 7.3844 10.4484 7.24745 10.919 7.09691L10.6478 6.37515L14.6598 3.75229ZM12.8038 12.1079C12.6772 12.155 12.5736 12.1985 12.4899 12.2674C12.4109 12.3326 12.3498 12.4205 12.3052 12.5556C12.2882 12.6084 12.2745 12.6622 12.2642 12.7166L13.357 13.5788L12.8038 12.108V12.1079ZM4.32954 12.1692C4.29531 12.1576 4.26013 12.1489 4.2244 12.1432C4.19349 12.1386 4.16232 12.1359 4.13108 12.135L3.53662 13.3227L4.65335 12.4907C4.58249 12.3609 4.50008 12.23 4.32954 12.1692Z" fill="#A2AAAD"/>
<path d="M9.80892 10.4829C8.42554 10.2213 7.59792 9.95367 7.59792 9.95367C7.59792 9.95367 8.23655 9.70629 9.18041 9.27321C10.0229 8.88651 11.1089 8.35197 12.1999 7.71332C13.0774 7.20013 13.9582 6.62005 14.7188 5.99532C14.7188 5.99532 10.2916 8.41075 6.61444 8.41075C4.14433 8.41075 3.00114 7.26508 3.00114 6.49659C3.00114 4.20697 7.03136 3.02221 7.93341 2.78545L8.1286 2.38778C4.25627 3.15002 2.81628 4.67129 2.81628 4.67129C2.81628 4.67129 1.5219 5.45418 1.03182 6.90708C0.908932 7.26965 0.846389 7.64992 0.846681 8.03275C0.846681 9.78337 1.99398 12.0728 7.87636 12.0728C12.0482 12.0728 14.2691 10.9661 14.2691 10.9661C13.5897 10.9461 12.9113 10.9018 12.2352 10.8332C11.3125 10.7399 10.4927 10.6121 9.80895 10.4829H9.80892ZM13.2792 2.72418C13.2792 2.72418 12.0663 2.13378 9.70127 2.21167L9.81019 2.53145C10.0717 2.50127 11.4958 2.36586 13.2792 2.72418Z" fill="#C8102E"/>
<path d="M5.87054 9.70098C7.32794 9.70098 8.54716 9.44052 9.18005 9.2733C10.0226 8.88658 11.1085 8.35204 12.1995 7.71339C11.2828 8.06101 8.38148 9.0952 6.32632 9.0952C3.2087 9.0952 2.23459 7.28928 2.23459 6.27014C2.23459 5.35895 2.81594 4.67139 2.81594 4.67139C2.81594 4.67139 1.7417 5.42179 1.7417 6.67179C1.7417 8.72817 3.7961 9.70098 5.87054 9.70098Z" fill="white"/>
<path d="M7.07006 10.6636C1.27673 10.6636 1.01925 7.57755 1.03184 6.90723C0.917247 7.2465 0.84668 7.62209 0.84668 8.0329C0.84668 8.0329 0.906923 11.4475 7.52568 11.4475C9.68054 11.4475 11.6204 10.9931 12.2352 10.8334C11.3126 10.74 10.4927 10.6123 9.80898 10.483C9.34952 10.5553 8.43546 10.6636 7.07006 10.6636ZM14.3602 8.18812C14.1717 7.79277 13.6222 7.72423 13.1319 8.03377C12.642 8.34458 12.3963 8.91563 12.5844 9.31098C12.7717 9.70666 13.3206 9.77506 13.8112 9.46506C14.302 9.15398 14.5461 8.58328 14.3602 8.18812Z" fill="white"/>
<path d="M9.45594 9.66126L9.45215 9.52245L9.33002 9.67515L9.13894 9.70005L9.25786 9.76421L9.13894 9.91902L9.34223 9.81261L9.48299 9.91334L9.45769 9.74775L9.64675 9.6401L9.45594 9.66126ZM10.9263 8.96464L10.9219 8.82283L10.7951 8.98056L10.5959 9.00578L10.7182 9.07353L10.5955 9.23361L10.8081 9.12297L10.9528 9.2284L10.9286 9.05559L11.1239 8.94353L10.9263 8.96464ZM11.9955 9.07902L11.9914 8.9487L11.8763 9.09194L11.696 9.11534L11.8077 9.17734L11.696 9.32275L11.8873 9.22216L12.02 9.31718L11.9979 9.16124L12.1744 9.05918L11.9955 9.07902ZM10.52 9.88064V9.75172L10.4021 9.89299L10.2216 9.91083L10.3318 9.97537L10.2157 10.1197L10.4102 10.0233L10.5407 10.1216L10.5216 9.96367L10.7012 9.86529L10.52 9.88064ZM11.5784 10.0297L11.5773 9.8994L11.4588 10.0416L11.2778 10.0598L11.3881 10.124L11.274 10.2677L11.4671 10.1703L11.5975 10.2691L11.5787 10.1123L11.7584 10.0128L11.5784 10.0297ZM12.4521 8.04472L12.4465 7.87972L12.3014 8.06248L12.0712 8.09121L12.2129 8.16999L12.0712 8.35383L12.3149 8.22626L12.4835 8.34816L12.4537 8.14875L12.6804 8.01886L12.4521 8.04472ZM13.8942 7.18875L13.7627 7.42853L14.0374 7.24672L14.2841 7.37348L14.1947 7.13678L14.4472 6.95321L14.1637 7.01032L14.1136 6.81186L13.9769 7.04997L13.6931 7.11078L13.8942 7.18875ZM16.1915 6.00526L15.8518 6.0438L15.8229 5.79264L15.6269 6.0708L15.2861 6.11578L15.5107 6.23437L15.3219 6.51713L15.6712 6.32199L15.9403 6.50659L15.8705 6.20432L16.1915 6.00526ZM14.3934 10.1554L14.3922 9.95567L14.2097 10.173L13.9309 10.2023L14.1016 10.3L13.9231 10.5217L14.2208 10.3731L14.4228 10.5235L14.3937 10.282L14.671 10.1303L14.3934 10.1554ZM14.9254 8.84053L14.9207 8.65786L14.7567 8.86075L14.501 8.8944L14.6608 8.98056L14.5005 9.18616L14.773 9.04502L14.9613 9.18007L14.9287 8.9581L15.1793 8.81291L14.9254 8.84053ZM15.3839 7.54734L15.3782 7.34764L15.2007 7.5687L14.9229 7.6044L15.0954 7.69826L14.9229 7.92278L15.218 7.76848L15.4217 7.91583L15.3877 7.6747L15.66 7.51686L15.3839 7.54734ZM12.9159 10.01L12.7795 10.174L12.5709 10.1947L12.6972 10.2687L12.5647 10.4344L12.7885 10.3227L12.9402 10.4358L12.9176 10.2554L13.1241 10.1421L12.9168 10.1596L12.9159 10.01ZM9.11561 2.74072L8.44096 5.80564L9.76372 4.94737L9.11561 2.74072ZM13.893 4.1511L8.44096 5.80564C8.44096 5.80564 10.4442 6.24286 10.5051 6.25132C10.5668 6.26026 13.893 4.1511 13.893 4.1511ZM9.50313 7.5008L8.44099 5.80567V7.72837C8.79118 7.66586 9.14637 7.58907 9.50313 7.5008ZM6.37988 7.90878C6.44004 7.90972 6.50148 7.91053 6.56521 7.91053C6.73805 7.91053 6.9134 7.90499 7.09169 7.89416L8.44099 5.80567L6.85707 6.97159L6.37988 7.90878Z" fill="white"/>
<path d="M7.86862 5.4917L4.92997 6.28513L8.44078 5.8054L7.86862 5.4917ZM12.3049 12.5555L13.0295 13.129L12.4896 12.2673C12.4106 12.3325 12.3495 12.4204 12.3049 12.5555ZM3.77148 13.0327L4.32921 12.1691C4.29498 12.1575 4.25981 12.1487 4.22408 12.1431L3.77148 13.0327V13.0327Z" fill="white"/>
<path d="M13.2056 8.14775C12.8065 8.39935 12.597 8.8707 12.7376 9.19992C12.877 9.52867 13.3142 9.59067 13.7129 9.33856C14.1116 9.08635 14.3199 8.61529 14.1807 8.28748C14.0388 7.95773 13.6039 7.89629 13.2056 8.14775Z" fill="#C8102E"/>
</g>
<defs>
<clipPath id="clip0_2_7395">
<rect width="18.5027" height="16" fill="white" transform="translate(0.0722656)"/>
</clipPath>
</defs>
</svg>
