<svg width="41" height="16" viewBox="0 0 41 16" fill="none" xmlns="http://www.w3.org/2000/svg">
<g clip-path="url(#clip0_806_1255)">
<g clip-path="url(#clip1_806_1255)">
<path d="M8.15039 6.74015C10.1578 5.26173 15.7731 3.38996 22.3514 6.06197L25.1455 5.45161C17.2244 2.50833 10.5104 4.66493 8.15039 6.74015Z" fill="#002F6C"/>
<path d="M8.15039 6.74015C11.0123 4.02745 19.6794 1.45038 29.5807 6.12979L32.4426 5.50587C21.1849 0.541626 11.3785 3.41709 8.15039 6.74015Z" fill="#3E87CB"/>
<path d="M8.15039 6.74014C11.4328 3.21363 21.0357 0.270352 32.3612 4.32584L35.1282 3.72905C22.487 -0.624839 11.799 2.64397 8.15039 6.74014Z" fill="#9ADBE8"/>
<path d="M19.5032 12.5725V12.7759H17.211V12.5725C17.6857 12.5182 17.8756 12.3826 17.8756 11.8807V9.64275C17.8892 8.61192 17.7129 8.35421 17.0618 8.35421C16.6007 8.35421 16.1802 8.59836 15.9632 9.00526V11.8807C15.9496 12.3826 16.1531 12.5318 16.6278 12.5725V12.7759H14.3084V12.5725C14.7967 12.5182 14.9866 12.3826 15.0002 11.8807V9.60206C15.0002 9.03239 14.9595 8.35421 14.2677 8.35421C13.793 8.36778 13.3318 8.59836 13.047 8.97814V11.8807C13.0606 12.3826 13.2505 12.5318 13.7388 12.5725V12.7759H11.4058V12.5589C11.9348 12.5046 12.084 12.3283 12.0704 11.8672V9.22228C12.0704 8.62548 12.0026 8.53054 11.4058 8.53054V8.2864L13.0334 7.70317V8.58479C13.576 7.988 14.1999 7.71673 14.7018 7.71673C15.2307 7.73029 15.6919 8.11007 15.8004 8.62548C16.1937 8.16432 16.8584 7.71673 17.4552 7.71673C18.7572 7.71673 18.8386 8.85606 18.8386 9.81907V11.8807C18.8386 12.3826 19.015 12.5318 19.5032 12.5725ZM23.5859 10.9313C23.2603 11.5009 22.6771 12.0977 21.9582 12.0977C20.7918 12.0977 20.2764 10.7821 20.2492 9.75126H23.5859C23.5587 8.61192 22.8941 7.71673 21.6734 7.71673C20.3306 7.71673 19.4761 8.8425 19.4761 10.4023C19.4761 11.718 20.2899 12.8844 21.5378 12.8709C22.6635 12.8844 23.4773 11.9621 23.8164 10.9855L23.5859 10.9313ZM21.4428 8.15076C22.1074 8.15076 22.4058 8.73399 22.433 9.34435H20.2899C20.3984 8.6933 20.724 8.15076 21.4428 8.15076ZM8.93727 7.71673C8.06921 7.6896 7.26896 8.17789 6.90274 8.96457L6.83493 6.75372H6.57722C6.41446 7.17419 6.22457 7.20132 5.84479 7.07924C5.66847 7.02499 5.45145 6.93005 5.19374 6.86223C4.88178 6.78085 4.56982 6.74016 4.2443 6.74016C2.07414 6.74016 0.555024 8.35421 0.555024 10.5515C0.527897 12.9522 2.14195 14.3222 4.2443 14.3357C5.28869 14.3222 6.27882 13.8339 6.91631 13.0065L6.71286 12.7488C5.96686 13.4948 5.3972 13.7796 4.33924 13.7932C2.60311 13.7932 1.82999 12.1656 1.82999 10.6329C1.82999 8.66617 2.60311 7.14706 4.25786 7.22844C6.07537 7.32339 6.56366 8.66617 6.59078 10.3616C6.59078 11.7044 7.54023 12.8844 8.92371 12.8709C10.4293 12.8844 11.3516 11.5688 11.3516 10.131C11.3516 8.6933 10.3614 7.73029 8.93727 7.71673ZM10.2801 10.7821C10.1987 11.718 9.73752 12.5725 8.93727 12.5046C7.94713 12.4233 7.54023 11.2025 7.67586 9.66987C7.77081 8.72043 8.23197 8.02869 9.00509 8.08294C10.1851 8.19145 10.3614 9.79195 10.2801 10.7821ZM29.0791 11.8807L29.0655 7.60822L27.465 8.25927C27.4108 7.92018 27.0988 7.71673 26.7462 7.71673C26.2307 7.71673 25.7831 8.25927 25.5526 8.62548V7.70317L23.7893 8.29996V8.53054C24.6167 8.2864 24.5896 8.70687 24.5896 9.47998V11.8807C24.5896 12.3283 24.4404 12.5182 23.7893 12.5725V12.7759H26.3528V12.5725C25.8238 12.5318 25.5526 12.4504 25.5526 11.8807V9.26297C25.5526 8.96457 25.8917 8.44916 26.19 8.43559C26.6648 8.40847 26.5427 8.86963 27.0174 8.88319C27.2887 8.89675 27.465 8.65261 27.777 8.63905C28.1296 8.61192 28.1161 9.01883 28.1161 9.31722V11.8943C28.1025 12.3419 27.9533 12.5453 27.2887 12.586V12.803H29.8658V12.5996C29.3639 12.5318 29.0791 12.4504 29.0791 11.8807ZM38.3565 12.8573L35.7523 6.72659H35.4946L33.7585 10.877C33.4601 11.6095 32.9854 12.0435 32.158 12.0435C31.0729 12.0706 30.5168 10.9448 30.5168 9.94114C30.5168 9.04595 30.9644 8.06938 31.8732 8.05582C32.4293 8.05582 32.6734 8.36778 32.6734 8.78825C32.687 9.05952 32.9175 9.27653 33.1888 9.2901C33.4736 9.2901 33.6907 9.07308 33.7042 8.78825C33.65 8.02869 32.687 7.6896 32.0766 7.6896C30.4626 7.6896 29.6487 8.95101 29.6487 10.3752C29.6487 11.7451 30.5032 12.8573 31.6697 12.8437C32.3072 12.8437 32.904 12.5589 33.2838 12.0435C33.121 12.4775 32.9311 12.898 32.7005 13.3049C32.5242 13.6033 32.3072 13.8474 31.9274 13.8746V14.173H34.084V13.9153C33.8263 13.9153 33.3651 13.8746 33.3516 13.4677C33.338 13.0608 33.7856 12.2334 33.9212 11.8129H36.7018L37.0815 12.7217C37.4342 13.549 37.6105 13.861 36.5933 13.9153V14.173H39.3873V13.9153C38.7499 13.9288 38.56 13.2913 38.3565 12.8573ZM34.1518 11.3246L35.3319 8.3949L36.539 11.3246H34.1518Z" fill="#002F6C"/>
<path d="M40.025 13.688V13.3262H40.2084C40.2231 13.3262 40.2391 13.3304 40.2564 13.3389C40.2738 13.3471 40.2885 13.3598 40.3006 13.3771C40.313 13.3941 40.3192 13.4157 40.3192 13.4419C40.3192 13.4683 40.3128 13.4909 40.3001 13.5095C40.2873 13.5278 40.2718 13.5417 40.2535 13.5512C40.2355 13.5607 40.2185 13.5654 40.2025 13.5654H40.0701V13.5066H40.178C40.1888 13.5066 40.2004 13.5012 40.2128 13.4904C40.2255 13.4796 40.2319 13.4634 40.2319 13.4419C40.2319 13.4196 40.2255 13.4046 40.2128 13.3968C40.2004 13.3889 40.1894 13.385 40.1799 13.385H40.1044V13.688H40.025ZM40.2437 13.5174L40.3339 13.688H40.2466L40.1584 13.5174H40.2437ZM40.1623 13.9038C40.108 13.9038 40.0572 13.8936 40.0098 13.8734C39.9624 13.8531 39.9207 13.825 39.8848 13.789C39.8488 13.7531 39.8207 13.7114 39.8004 13.664C39.7802 13.6166 39.77 13.5658 39.77 13.5115C39.77 13.4572 39.7802 13.4064 39.8004 13.359C39.8207 13.3116 39.8488 13.2699 39.8848 13.234C39.9207 13.198 39.9624 13.1699 40.0098 13.1496C40.0572 13.1294 40.108 13.1192 40.1623 13.1192C40.2165 13.1192 40.2674 13.1294 40.3148 13.1496C40.3622 13.1699 40.4039 13.198 40.4398 13.234C40.4758 13.2699 40.5039 13.3116 40.5241 13.359C40.5444 13.4064 40.5545 13.4572 40.5545 13.5115C40.5545 13.5658 40.5444 13.6166 40.5241 13.664C40.5039 13.7114 40.4758 13.7531 40.4398 13.789C40.4039 13.825 40.3622 13.8531 40.3148 13.8734C40.2674 13.8936 40.2165 13.9038 40.1623 13.9038ZM40.1623 13.8096C40.2172 13.8096 40.2672 13.7962 40.3123 13.7694C40.3574 13.7426 40.3934 13.7066 40.4202 13.6615C40.447 13.6164 40.4604 13.5664 40.4604 13.5115C40.4604 13.4566 40.447 13.4066 40.4202 13.3615C40.3934 13.3163 40.3574 13.2804 40.3123 13.2536C40.2672 13.2268 40.2172 13.2134 40.1623 13.2134C40.1074 13.2134 40.0574 13.2268 40.0122 13.2536C39.9671 13.2804 39.9312 13.3163 39.9044 13.3615C39.8776 13.4066 39.8642 13.4566 39.8642 13.5115C39.8642 13.5664 39.8776 13.6164 39.9044 13.6615C39.9312 13.7066 39.9671 13.7426 40.0122 13.7694C40.0574 13.7962 40.1074 13.8096 40.1623 13.8096Z" fill="black"/>
</g>
</g>
<defs>
<clipPath id="clip0_806_1255">
<rect width="40" height="16" fill="white" transform="translate(0.554688)"/>
</clipPath>
<clipPath id="clip1_806_1255">
<rect width="40" height="12.6714" fill="white" transform="translate(0.554688 1.66428)"/>
</clipPath>
</defs>
</svg>
