<svg width="41" height="16" viewBox="0 0 41 16" fill="none" xmlns="http://www.w3.org/2000/svg">
<g clip-path="url(#clip0_829_268)">
<g clip-path="url(#clip1_829_268)">
<path d="M8.45432 8.00869C8.45432 6.84351 9.39491 5.90292 10.5601 5.90292C11.4097 5.90292 12.0893 6.37611 12.4351 7.06191L11.5735 7.4867C11.3915 7.09831 11.0213 6.80712 10.5601 6.80712C9.9289 6.80712 9.41312 7.32911 9.41312 8.00869C9.41312 8.68829 9.9289 9.21649 10.5601 9.21649C11.0213 9.21649 11.3915 8.92528 11.5735 8.53689L12.4351 8.96168C12.0893 9.64748 11.4097 10.1207 10.5601 10.1207C9.39491 10.1207 8.45432 9.18009 8.45432 8.00869ZM12.7693 7.02551H13.6735V7.51689C13.8373 7.20751 14.0921 7.02551 14.4019 7.02551H14.6567V7.9177H14.3592C13.9283 7.9177 13.7281 8.15429 13.7281 8.57329V10.0599H12.7693V7.02551ZM14.9719 8.76107V7.02551H15.9306V8.76107C15.9306 9.09487 16.1432 9.30127 16.4646 9.30127C16.786 9.30127 16.9986 9.09487 16.9986 8.76107V7.02551H17.9574V8.76107C17.9574 9.56806 17.3261 10.1203 16.4646 10.1203C15.603 10.1203 14.9719 9.56806 14.9719 8.76107ZM18.4128 7.02551H19.3533V7.3957C19.566 7.1529 19.8629 6.99531 20.2092 6.99531C20.9495 6.99531 21.4351 7.53551 21.4351 8.31229V10.0599H20.4763V8.31229C20.4763 7.9905 20.2398 7.7477 19.9242 7.7477C19.6085 7.7477 19.372 7.9905 19.372 8.31229V10.0599H18.4132V7.02551H18.4128ZM24.0869 8.82188L24.8698 9.19208C24.6209 9.73806 24.081 10.1207 23.4255 10.1207C22.5396 10.1207 21.8293 9.41668 21.8293 8.54269C21.8293 7.66869 22.5396 6.9647 23.4255 6.9647C24.0869 6.9647 24.6271 7.3531 24.8761 7.89909L24.0873 8.27549C23.9843 7.99629 23.7291 7.8023 23.4259 7.8023C23.0255 7.8023 22.7219 8.12989 22.7219 8.54269C22.7219 8.95549 23.0255 9.28307 23.4259 9.28307C23.7233 9.28307 23.9781 9.09487 24.0873 8.82188H24.0869ZM25.1792 5.96373H26.138V7.38991C26.3507 7.14712 26.6418 6.99531 26.9756 6.99531C27.716 6.99531 28.2017 7.53551 28.2017 8.31229V10.0599H27.2429V8.31229C27.2429 7.9905 27.0062 7.7477 26.6906 7.7477C26.3751 7.7477 26.1384 7.9905 26.1384 8.31229V10.0599H25.1796V5.96373H25.1792ZM29.9429 8.83387L30.5861 7.02551H31.5449L30.319 10.2419C30.0642 10.9095 29.6634 11.1944 28.9837 11.1944H28.547V10.3568H28.9837C29.2448 10.3568 29.3783 10.2476 29.4512 10.0657L28.2434 7.02551H29.2687L29.9425 8.83387H29.9429ZM31.7877 7.02551H32.6919V7.51689C32.8557 7.20751 33.1105 7.02551 33.4203 7.02551H33.6751V7.9177H33.3778C32.9467 7.9177 32.7465 8.15429 32.7465 8.57329V10.0599H31.7877V7.02551ZM33.8087 8.54269C33.8087 7.6749 34.5189 6.9647 35.4169 6.9647C36.3149 6.9647 37.0251 7.6749 37.0251 8.54269C37.0251 9.41047 36.3149 10.1207 35.4169 10.1207C34.5189 10.1207 33.8087 9.41668 33.8087 8.54269ZM34.701 8.54269C34.701 8.96748 35.0165 9.28307 35.4169 9.28307C35.8173 9.28307 36.1328 8.96748 36.1328 8.54269C36.1328 8.11789 35.8173 7.8023 35.4169 7.8023C35.0165 7.8023 34.701 8.11789 34.701 8.54269ZM38.5418 10.0599C37.7469 10.0599 37.4192 9.70787 37.4192 8.95548V5.96373H38.378V8.95548C38.378 9.12548 38.4509 9.22268 38.6209 9.22268H38.7784V10.0603H38.5418V10.0599ZM40.1438 10.0599C39.3489 10.0599 39.0212 9.70787 39.0212 8.95548V5.96373H39.98V8.95548C39.98 9.12548 40.0529 9.22268 40.2229 9.22268H40.3804V10.0603H40.1438V10.0599ZM1.16088 8.38551C1.16254 6.82242 2.43113 5.55631 3.99422 5.55797C5.49071 5.55962 6.71463 6.72233 6.81472 8.19276C6.81845 8.12989 6.82051 8.0666 6.82051 8.00332C6.82216 6.22473 5.38234 4.78159 3.60376 4.77994C1.82516 4.77828 0.382027 6.21853 0.380373 7.9967C0.378718 9.77529 1.81896 11.2184 3.59713 11.2201C3.67076 11.2201 3.74356 11.2176 3.81595 11.2131C2.3331 11.1225 1.15923 9.89069 1.16088 8.38551ZM5.53042 8.42729C4.92281 8.42687 4.43059 7.93342 4.43142 7.32579C4.43183 6.8493 4.73544 6.44395 5.1594 6.29132C4.82395 6.1143 4.44175 6.01378 4.03558 6.01337C2.70081 6.01213 1.61752 7.09293 1.61629 8.4277C1.61504 9.76246 2.69584 10.8457 4.03062 10.847C5.36538 10.8482 6.44866 9.76743 6.44991 8.43225C6.44991 8.28087 6.43625 8.1332 6.40978 7.98925C6.20877 8.25521 5.88986 8.42729 5.53042 8.42687V8.42729Z" fill="#FF640A"/>
</g>
</g>
<defs>
<clipPath id="clip0_829_268">
<rect width="40" height="16" fill="white" transform="translate(0.380371)"/>
</clipPath>
<clipPath id="clip1_829_268">
<rect width="40" height="6.44014" fill="white" transform="translate(0.380371 4.77994)"/>
</clipPath>
</defs>
</svg>
