<svg width="17" height="16" viewBox="0 0 17 16" fill="none" xmlns="http://www.w3.org/2000/svg">
<g clip-path="url(#clip0_876_2964)">
<path d="M0.686588 10.7325C0.558365 10.5417 0.130371 9.81654 0.130371 8.64716C0.133638 8.14041 0.207237 7.63657 0.349061 7.15006C0.350225 7.14643 0.351021 7.1427 0.351435 7.13892L0.420239 6.86906L0.437261 6.88587C0.447577 6.854 0.459026 6.82078 0.470064 6.78705C0.525562 6.62014 0.583535 6.4455 0.596739 6.40424C0.605817 6.36844 0.656571 6.16853 0.696492 6.02927C0.708562 5.98697 0.71867 5.95252 0.729295 5.92271L0.731874 5.903C0.744871 5.79923 0.761272 5.69979 0.780666 5.60385C0.787474 5.55227 0.79645 5.50224 0.803568 5.46005L0.806558 5.44159L0.814192 5.42457C0.818731 5.41301 0.82296 5.40393 0.826054 5.39682C0.949905 4.83136 1.22027 4.3084 1.61004 3.88042L1.61262 3.87774L1.6152 3.87506C1.70451 3.79001 1.80152 3.71341 1.90497 3.64626C1.96583 3.56631 2.1644 3.30894 2.34647 3.105C2.40837 3.0363 2.46778 2.97378 2.52369 2.92313C2.58613 2.78464 2.6663 2.65485 2.76219 2.53702C3.00385 2.23752 3.32352 2.01056 3.68595 1.88115C4.03246 1.64642 4.39674 1.43907 4.77549 1.26098C5.01013 1.02591 5.27012 0.8176 5.55071 0.639877C6.15558 0.237209 6.86269 0.0152491 7.58917 0C7.62084 0 7.65303 0.000618874 7.6849 0.00154728L7.98921 0.0104187L7.61238 0.516812C7.81285 0.501682 8.01545 0.494049 8.22018 0.493911C9.26547 0.492487 10.3011 0.693526 11.27 1.08592L11.2745 1.08778L11.2787 1.08964C11.3364 1.11709 11.3927 1.14756 11.4472 1.18093C11.5079 1.21619 11.5635 1.25969 11.6123 1.31019C11.7351 1.32502 11.855 1.3583 11.9679 1.40891L11.9727 1.41076L11.9766 1.41293C12.9859 1.94074 13.8699 2.67955 14.5684 3.57921L14.5747 3.58705L14.5796 3.59581C14.61 3.65493 14.6307 3.71852 14.6409 3.78418C14.6526 3.7916 14.6689 3.80192 14.6872 3.81409C14.7303 3.8413 14.7704 3.8729 14.807 3.90838L14.8162 3.91787L14.8239 3.9287C15.7017 5.1977 16.1716 6.70415 16.1711 8.24712C16.1722 9.71033 15.7494 11.1425 14.9539 12.3706L14.9509 12.3749L14.9481 12.3787C14.9394 12.3902 14.9296 12.4009 14.9189 12.4106C14.9068 12.4223 14.894 12.4332 14.8805 12.4432C14.8508 12.4657 14.8198 12.4863 14.7876 12.5051C14.7846 12.5198 14.7803 12.5397 14.7746 12.5615C14.7618 12.6203 14.7396 12.6766 14.709 12.7283L14.7068 12.7317L14.7038 12.7361C13.957 13.7527 12.9803 14.5783 11.8536 15.1455C10.7268 15.7127 9.48194 16.0055 8.22049 15.9999C4.72247 15.9999 1.75044 13.7976 0.687001 10.7325" fill="white"/>
<path d="M14.694 4.01886C14.6467 3.97727 14.5954 3.9405 14.5408 3.9091C14.5294 3.90487 14.5192 3.89798 14.5109 3.88901C14.5027 3.88004 14.4968 3.86925 14.4935 3.85752C14.4868 3.79473 14.47 3.73346 14.4436 3.67607C13.7589 2.7947 12.8927 2.07081 11.9037 1.55343C11.7967 1.50529 11.6825 1.47537 11.5657 1.46492C11.5552 1.46523 11.5448 1.46287 11.5356 1.45805C11.5263 1.45323 11.5184 1.44611 11.5126 1.43738C11.426 1.35055 11.3234 1.28114 11.2106 1.23292C10.2606 0.848305 9.24511 0.651261 8.22021 0.652668C7.90323 0.652753 7.58654 0.671595 7.27179 0.709094L7.68008 0.159995C6.04578 0.111202 4.873 1.38755 4.873 1.38755L4.87362 1.38931C4.48333 1.57065 4.10861 1.78376 3.75324 2.0265L3.75417 2.02444C3.51206 2.10436 3.28932 2.23396 3.10021 2.40496C2.9111 2.57595 2.75979 2.78456 2.65597 3.01742C2.44017 3.19794 2.01238 3.76592 2.01238 3.76592C1.90848 3.83023 1.81167 3.90533 1.72354 3.98997C1.52755 4.19391 1.16794 4.6543 0.976486 5.44716C0.971534 5.46026 0.965241 5.47274 0.959464 5.48605C0.95214 5.5302 0.943476 5.58012 0.936565 5.62954C0.917997 5.72372 0.901595 5.8213 0.888598 5.92312L0.896849 5.91198C0.893857 5.93333 0.891484 5.94592 0.891484 5.94592C0.871369 5.95974 0.74882 6.44818 0.74882 6.44818C0.729014 6.51008 0.506403 7.17935 0.506403 7.17935L0.504857 7.17801C0.504667 7.17942 0.504667 7.18084 0.504857 7.18224C-0.0809664 9.22906 0.697139 10.4696 0.829694 10.6606C1.86466 13.6716 4.78233 15.8412 8.22021 15.8412C9.45665 15.8467 10.6769 15.5598 11.7813 15.0039C12.8858 14.448 13.8431 13.6388 14.5752 12.6424C14.6052 12.582 14.6256 12.5174 14.6357 12.4507C14.636 12.4385 14.6391 12.4266 14.6449 12.4158C14.6507 12.4051 14.6589 12.3958 14.6689 12.3888C14.7249 12.3628 14.7761 12.3273 14.82 12.2839C15.5995 11.0817 16.0137 9.6793 16.0125 8.2465C16.0133 6.73578 15.5533 5.26076 14.694 4.01824" fill="black"/>
<path d="M4.94951 2.54807C4.97014 2.52743 4.9884 2.50783 5.00429 2.48989C5.03069 2.46265 5.04091 2.45605 5.044 2.45801C5.04602 2.45636 5.04792 2.45457 5.04967 2.45265C5.05421 2.21575 5.08605 1.98017 5.14458 1.75057C5.85295 0.760268 7.02202 0.498458 7.02202 0.498458C7.16726 0.457195 7.0736 0.520946 7.0736 0.520946C6.33758 1.34547 6.41412 2.02702 6.41412 2.02702L7.11672 4.58983C7.11672 4.58983 6.54729 4.3895 6.10867 3.48906C5.90587 5.28552 7.60021 6.74229 7.60021 6.74229C7.67396 6.80532 7.55781 6.73692 7.55781 6.73692C7.13353 6.52504 6.64509 6.07848 6.5114 5.95294C6.54719 6.09127 7.37192 10.237 7.3743 10.2493C7.37822 10.2686 7.38936 10.3086 7.39802 10.3352L7.68377 9.62529L7.91989 11.7186C6.84583 12.7181 5.70203 12.3223 5.63137 12.2963C5.65881 12.3412 5.68047 12.374 5.68047 12.374C5.68047 12.374 6.60991 14.1983 10.3935 14.0049C10.3935 14.0049 10.4841 14.0043 10.4703 14.0161C10.4719 14.019 10.4669 14.0235 10.4497 14.0293C10.39 14.0486 10.329 14.0632 10.2671 14.0732C5.69884 15.2934 3.33151 11.4006 3.22928 11.2268C3.08043 11.0189 2.95492 10.7953 2.85503 10.56C2.85132 10.5508 2.84595 10.5199 2.8671 10.5439C2.8671 10.5439 3.35193 11.0494 4.72391 11.1743C4.72929 11.1738 4.73463 11.173 4.7399 11.1718C3.67925 9.98954 3.22866 9.13314 3.16161 9.00203C3.16161 9.00203 3.16161 9.00203 3.16037 9.00203C3.15913 9.00203 3.03308 8.81016 2.88185 8.26714C2.88185 8.26714 2.88567 8.23991 2.89867 8.26714C2.95024 8.37504 3.30097 8.89258 3.72835 9.00832H3.72917C3.3671 8.42363 3.14118 7.49863 3.11282 7.36339C3.60683 8.05454 4.48118 8.10457 4.48118 8.10457C4.47991 8.10215 4.47838 8.09987 4.47664 8.09776C4.47783 8.09927 4.4788 8.10093 4.47953 8.10271C3.04071 6.6675 3.35069 5.10489 3.93476 3.97647C4.2081 3.45747 4.54923 2.97713 4.9492 2.54807" fill="white"/>
<path d="M9.25463 12.0489L8.31055 13.0423C8.31136 13.0418 8.31209 13.0411 8.31271 13.0404L9.47786 12.1462L8.87481 10.0661L9.13817 7.56454L8.67799 9.95343L9.25463 12.0489Z" fill="#BBC4CA"/>
<path d="M9.4649 5.92848C9.38237 6.35575 9.24827 6.79314 9.01514 6.98831C9.03247 6.97975 9.0531 6.9685 9.07703 6.95437C9.17118 6.89794 9.25748 6.82933 9.33368 6.75033C9.45951 6.61526 9.55731 6.45659 9.62144 6.2835C9.68557 6.1104 9.71476 5.92632 9.70731 5.74187C9.7033 5.47632 9.65985 5.21283 9.57837 4.96005C9.56101 5.28493 9.52311 5.60839 9.4649 5.92848Z" fill="#BBC4CA"/>
<path d="M9.45463 2.73662C9.78349 2.23961 10.324 2.1967 10.5532 2.19433C10.3759 2.14207 10.1921 2.11543 10.0072 2.11521C9.76248 2.11368 9.51999 2.1623 9.29474 2.25808C9.27917 2.26509 9.26689 2.27108 9.25781 2.27551C9.34195 2.42063 9.40804 2.57548 9.45463 2.73662Z" fill="#BBC4CA"/>
<path d="M9.03895 3.77963C9.04286 3.78017 9.04645 3.78205 9.04912 3.78495C9.05179 3.78785 9.05338 3.79158 9.0536 3.79552C9.05443 3.84153 9.05487 3.88777 9.05494 3.93426C9.05494 5.00409 8.77075 6.17584 8.66202 6.5829C9.00525 5.79942 9.18244 4.95333 9.18244 4.09797C9.18333 3.7821 9.158 3.4667 9.10673 3.15502C9.08692 3.03753 9.06701 2.94737 9.05278 2.88754C8.94879 3.69298 8.64252 4.05836 8.64098 4.06011C8.6393 4.06214 8.63716 4.06373 8.63473 4.06475C8.63231 4.06578 8.62967 4.0662 8.62705 4.06599C8.6243 4.06576 8.62166 4.06484 8.61935 4.06333C8.61705 4.06182 8.61516 4.05975 8.61385 4.05733C8.22911 3.3653 7.68516 2.77479 7.027 2.33462C6.9683 2.29552 6.92167 2.26695 6.89062 2.24838C7.84936 4.33214 8.12994 5.93889 8.20205 6.4687C8.20421 6.40774 8.20555 6.34554 8.20555 6.28302C8.20555 5.33151 7.962 4.18411 7.84007 3.67049C7.79953 3.49915 7.77261 3.39857 7.77261 3.39837C7.77175 3.39501 7.77194 3.39146 7.77315 3.38822C7.77437 3.38497 7.77656 3.38217 7.77942 3.38021C7.78239 3.3784 7.78583 3.37753 7.78931 3.37769C7.79278 3.37786 7.79613 3.37906 7.79891 3.38114C8.22969 3.71619 8.53225 4.66677 8.58579 4.84307C8.69915 4.66209 8.79035 4.46814 8.8574 4.26539C8.95024 4.01782 9.02111 3.7918 9.02142 3.79139C9.02245 3.78806 9.02451 3.78514 9.02731 3.78307C9.03012 3.78099 9.03351 3.77986 9.03699 3.77984H9.03916" fill="#BBC4CA"/>
<path d="M0.973069 8.10052C0.973069 9.09082 1.1439 10.1281 1.99638 11.4507L1.99772 11.4526C2.80234 13.1486 4.28706 14.0616 4.97893 14.4118C5.20917 14.5283 5.35029 14.5824 5.35205 14.5831C6.3067 15.0443 7.35235 15.2864 8.41258 15.2917C9.84854 15.2776 11.2486 14.8413 12.4384 14.0372C12.6434 13.8979 12.7523 13.8054 12.7523 13.8054L12.7626 13.8178L12.7523 13.8053C12.7935 13.7716 12.8237 13.745 12.8461 13.7251C12.8339 13.7317 12.8216 13.7392 12.8095 13.7465C12.7655 13.7726 12.7251 13.7988 12.7249 13.7991C11.2166 14.6843 9.82623 14.9544 8.69224 14.9544C6.91465 14.9544 5.76467 14.2917 5.76364 14.2911C1.99524 12.315 1.94047 8.88967 1.94047 8.8873C1.94035 8.88357 1.94153 8.87991 1.94381 8.87696C1.94608 8.87401 1.94932 8.87193 1.95295 8.8711C1.95653 8.8702 1.96032 8.87053 1.96369 8.87205C1.96706 8.87356 1.96982 8.87617 1.97152 8.87946C2.4578 9.82137 3.04723 10.1428 3.30966 10.2449C3.34772 10.2596 3.37857 10.2696 3.40136 10.2759C2.30543 8.89534 1.99205 7.73319 1.99205 6.85708C1.99205 5.69647 2.54156 5.03957 2.5429 5.03792C2.5452 5.0351 2.54839 5.03314 2.55195 5.03235C2.5555 5.03157 2.55922 5.032 2.5625 5.03359C2.56586 5.03511 2.56861 5.03772 2.57029 5.04099C2.57198 5.04427 2.57251 5.04803 2.57178 5.05164C2.50158 5.4083 2.46514 5.77077 2.46295 6.13427C2.46295 6.89876 2.64255 7.37461 2.73116 7.56401C2.73374 7.56958 2.73642 7.57494 2.739 7.5799C2.70698 7.31247 2.69089 7.04338 2.69082 6.77404C2.68868 5.09714 3.34725 3.4869 4.52391 2.29211C4.28479 2.39238 3.99431 2.64924 3.75767 2.89166C3.49575 3.15986 3.298 3.40837 3.29749 3.40878C3.29539 3.41144 3.29251 3.41338 3.28926 3.41434C3.28601 3.41531 3.28254 3.41523 3.27933 3.41414C3.27619 3.41291 3.27351 3.41072 3.27166 3.40789C3.26981 3.40507 3.26889 3.40174 3.26902 3.39836C3.28973 3.19208 3.35183 2.9921 3.4516 2.81037C3.25322 3.012 3.09347 3.24828 2.98028 3.5075C2.90395 3.66777 2.8379 3.83274 2.78253 4.00141L2.77902 4.00739C2.33834 4.51154 1.99961 5.09637 1.78161 5.72948C1.74561 5.83604 1.73003 5.8967 1.73003 5.8967C1.72339 5.9295 1.71372 5.96162 1.70115 5.99263C1.69764 5.99655 1.69764 6.00398 1.68217 6.00625C1.67835 6.00623 1.67464 6.00503 1.67153 6.00281C1.66843 6.00059 1.66609 5.99747 1.66484 5.99387C1.66339 5.99061 1.66251 5.98712 1.66225 5.98355C1.6613 5.97586 1.66085 5.9681 1.66091 5.96034C1.66091 5.92888 1.66473 5.88545 1.66473 5.88545C1.67629 5.39773 1.87888 4.84946 1.96048 4.64675C1.3859 5.26476 1.24509 6.1026 1.24509 6.77177C1.24556 7.03777 1.26666 7.30334 1.30823 7.56607C1.33917 7.76537 1.37074 7.88472 1.37074 7.88513V7.88926C1.38516 8.31597 1.43732 8.74057 1.5266 9.15808C1.60387 9.54595 1.6799 9.83437 1.6799 9.83386C1.69645 9.87531 1.70845 9.91844 1.71569 9.96249C1.71545 9.96632 1.71473 9.9701 1.71352 9.97373C1.71201 9.97706 1.70959 9.97988 1.70654 9.98189C1.7035 9.9839 1.69995 9.985 1.6963 9.98508C1.69265 9.98477 1.68911 9.98369 1.68591 9.98192C1.68271 9.98014 1.67992 9.9777 1.67773 9.97477C1.67395 9.97028 1.6705 9.96552 1.66741 9.96053C1.66009 9.95022 1.65194 9.93557 1.6441 9.92164C1.62894 9.89482 1.61511 9.8681 1.61511 9.86779C1.21394 9.25309 1.01815 8.23927 0.973276 7.98344C0.973276 8.02202 0.972656 8.06071 0.972656 8.09949" fill="#BBC4CA"/>
<path d="M9.81304 3.26231L9.80489 3.25478L9.8087 3.24447C9.99304 2.7521 10.8587 2.31441 11.0269 2.2323C10.6887 2.0398 10.3063 1.93849 9.91712 1.9383C9.7176 1.93831 9.51896 1.96467 9.32634 2.0167C9.24914 2.03658 9.17363 2.06255 9.10054 2.09438L9.08867 2.09985L9.08094 2.08953C8.92844 1.90632 8.76126 1.73586 8.58104 1.57984C8.43085 1.44718 8.31562 1.35774 8.30562 1.35031C8.28364 1.33598 8.26982 1.32772 8.26807 1.30699C8.26827 1.30206 8.26978 1.29727 8.27244 1.29312C8.27511 1.28897 8.27883 1.2856 8.28323 1.28337C8.29025 1.27972 8.29781 1.27721 8.30562 1.27594C8.32267 1.27319 8.33992 1.27194 8.35719 1.27223C8.37782 1.27223 8.39567 1.27346 8.4 1.27357C11.8525 1.27449 13.688 3.74127 13.6884 3.74199C13.7096 3.76354 13.7224 3.79205 13.7242 3.82224C13.7212 3.89672 13.6369 3.9321 13.5608 3.95635C13.5102 3.97121 13.4584 3.98193 13.4061 3.98843C13.0985 4.03198 12.7883 4.05421 12.4777 4.05496C10.6827 4.05496 9.81469 3.26448 9.81252 3.26262" fill="#0064B1"/>
<path d="M8.63604 13.2354C8.63322 13.2345 8.6307 13.2328 8.62872 13.2306C8.62675 13.2284 8.6254 13.2257 8.62479 13.2228C8.62425 13.2198 8.6245 13.2168 8.62551 13.214C8.62653 13.2112 8.62827 13.2087 8.63057 13.2068L9.78901 12.2748L9.20102 10.0982V10.0921L9.36329 8.63252C9.36346 8.63007 9.36421 8.6277 9.36548 8.6256C9.36676 8.6235 9.36852 8.62173 9.37061 8.62045C9.37258 8.6191 9.37482 8.61821 9.37718 8.61786C9.37954 8.6175 9.38195 8.61768 9.38423 8.61839C9.64769 8.69937 9.77117 9.05773 9.83512 9.39206C9.86974 9.58401 9.89043 9.77821 9.89702 9.97314C10.2046 9.30758 10.305 8.77302 10.305 8.35844C10.305 7.77117 10.1036 7.42477 10.0043 7.28871C9.98778 7.26521 9.96954 7.24297 9.94973 7.22217C9.94675 7.21905 9.94508 7.21489 9.94508 7.21057C9.94508 7.20625 9.94675 7.20209 9.94973 7.19896C9.95281 7.19594 9.95696 7.19424 9.96128 7.19424C9.9656 7.19424 9.96975 7.19594 9.97284 7.19896C11.3525 8.50585 11.6296 10.3349 11.6296 11.5963C11.6332 12.0813 11.5909 12.5655 11.5032 13.0425V13.0444C11.4875 13.0853 11.4624 13.122 11.4299 13.1514C11.3975 13.1807 11.3585 13.2021 11.3162 13.2136C10.8359 13.3217 10.3452 13.377 9.85287 13.3786C9.44284 13.3876 9.03356 13.3393 8.63686 13.2352" fill="#0064B1"/>
<path d="M11.8799 13.0773C11.8678 13.0667 11.8583 13.0533 11.8523 13.0384C11.8463 13.0234 11.8439 13.0072 11.8452 12.9912C11.8455 12.9696 11.8482 12.9481 11.8535 12.9271C11.8535 12.9271 11.8985 12.754 11.9433 12.4564C12.0027 12.0542 12.0326 11.6481 12.0326 11.2415C12.0326 9.92764 11.7174 8.09528 10.2536 6.67007C10.2392 6.66063 10.2259 6.64963 10.2139 6.63727C10.2078 6.63093 10.2041 6.62258 10.2036 6.61375C10.2037 6.60964 10.2048 6.60562 10.207 6.60213C10.2092 6.59864 10.2122 6.59581 10.2159 6.59394C10.2219 6.59103 10.2285 6.58969 10.2351 6.59002C10.2575 6.59128 10.2797 6.5953 10.3012 6.60199C10.5537 6.68745 10.7814 6.83344 10.9645 7.0272C10.9621 7.00811 10.9589 6.98398 10.9551 6.95551C10.9382 6.84904 10.9148 6.74372 10.8849 6.64016C10.7972 6.32127 10.6415 6.02516 10.4285 5.7722C10.4097 5.75272 10.3918 5.7323 10.3751 5.71103C10.3685 5.70331 10.3642 5.69392 10.3626 5.6839C10.3626 5.67904 10.3644 5.67436 10.3677 5.6708C10.3713 5.66737 10.3761 5.66545 10.381 5.66544C10.3916 5.66668 10.4017 5.67078 10.4101 5.6773C10.4211 5.68431 10.4359 5.69473 10.456 5.70979C10.5437 5.75219 14.2204 7.53122 14.3494 11.1239C14.3494 11.1239 14.3512 11.1446 14.3512 11.1771C14.3553 11.2432 14.3458 11.3094 14.3235 11.3717C14.3011 11.434 14.2663 11.4911 14.2211 11.5396C14.1854 11.5839 13.3144 12.6676 12.0323 13.0837C12.0061 13.0931 11.9785 13.0982 11.9507 13.0988C11.9252 13.0999 11.9 13.0923 11.8795 13.0772" fill="#0064B1"/>
<path d="M14.6458 10.5482C14.6344 10.5129 14.6288 10.476 14.6292 10.4389C14.5456 6.98211 10.7558 4.80582 9.80848 4.31717C9.67335 4.24734 9.59702 4.21195 9.59702 4.21195L9.53027 4.18101L9.60341 4.18018H9.61249C9.78113 4.18095 9.94771 4.21732 10.1013 4.28689C10.2549 4.35647 10.3922 4.45769 10.504 4.58393C10.5021 4.49646 10.4901 4.40951 10.4682 4.32481C10.4496 4.25188 10.4317 4.20257 10.4317 4.20257L10.4193 4.16873L10.4527 4.18152C10.8494 4.33265 11.3605 4.38278 11.8619 4.38268C12.3015 4.37952 12.7404 4.34827 13.1759 4.28911C13.5302 4.24228 13.7621 4.19555 13.7626 4.19555H13.7634H13.7643C13.7829 4.1939 13.8005 4.19318 13.8169 4.19318C13.8706 4.18638 13.9251 4.19528 13.9738 4.21881C14.0225 4.24233 14.0634 4.27947 14.0914 4.32574C14.565 4.854 15.1521 6.07867 15.2501 7.54936C15.2621 7.73401 15.2678 7.9133 15.2678 8.08577C15.267 9.37605 14.9583 10.3165 14.7768 10.5395C14.7681 10.5534 14.7566 10.5652 14.743 10.5743C14.7294 10.5834 14.7141 10.5895 14.698 10.5922C14.6857 10.5911 14.6741 10.5863 14.6648 10.5783C14.6554 10.5704 14.6488 10.5597 14.6458 10.5478" fill="#0064B1"/>
<path d="M6.57824 0.858973C6.58088 0.856283 6.58308 0.853182 6.58473 0.849792H6.5837C6.54162 0.861759 5.78662 1.08447 5.56308 2.2359C5.56308 2.2359 5.56132 2.25653 5.57339 2.23755C5.64137 2.12552 5.87708 1.7684 6.09423 1.87434C6.09423 1.87434 6.09557 1.86557 6.09722 1.85072C6.10888 1.75323 6.17974 1.35309 6.57813 0.858458" fill="black"/>
<path d="M5.99932 11.2664C5.83613 10.9386 4.78827 8.64903 4.78827 8.64903C4.46189 8.75322 4.05762 8.48749 4.05762 8.48749V8.48873C4.5734 9.85823 5.78713 11.056 5.98065 11.2731C5.98187 11.2739 5.98293 11.2749 5.98375 11.2761C6.01655 11.3121 6.01655 11.2989 6.01655 11.2989C6.01181 11.2922 6.00706 11.2809 5.99932 11.2664Z" fill="black"/>
<path d="M4.96004 3.81098C4.01378 5.97334 6.14282 6.8644 6.17088 6.87585H6.17181L6.05906 6.37813L5.99469 6.0929C5.94317 6.07613 5.89258 6.05661 5.84315 6.03441C5.82675 6.02739 5.81087 6.01935 5.79488 6.01213C5.77517 6.00253 5.75516 5.99315 5.73659 5.98335C4.80633 5.4882 4.89659 4.30438 4.95395 3.92023C4.95374 3.91755 4.95374 3.91486 4.95395 3.91218C4.95611 3.90104 4.95787 3.8901 4.95962 3.87989C4.9653 3.84379 4.96994 3.81934 4.97303 3.80624C4.97396 3.80036 4.97479 3.79654 4.97479 3.79654V3.79499C4.97736 3.76621 4.96447 3.79912 4.95973 3.81129" fill="black"/>
<path d="M6.36071 9.89804L6.20752 7.18091L7.12117 10.2105C7.12117 10.2105 6.8213 9.4946 6.36081 9.89804" fill="#BBC4CA"/>
<path d="M6.41598 2.08561L6.61848 3.71032C6.61848 3.71032 6.7173 4.15389 6.10889 3.48853C6.5474 4.38898 7.11682 4.58931 7.11682 4.58931L6.4197 2.0462C6.41453 2.05867 6.41324 2.0724 6.41598 2.08561Z" fill="#BBC4CA"/>
<path d="M5.44529 5.04929C5.39426 4.93421 5.3671 4.80998 5.36545 4.68411C5.36703 4.56615 5.39393 4.44991 5.44431 4.34324C5.49469 4.23656 5.56739 4.14195 5.65748 4.0658L5.66615 4.0593C5.65758 3.83998 5.66061 3.62036 5.67523 3.40137C5.44168 3.74529 4.94653 4.56022 5.53916 5.19773C5.52967 5.18442 5.52101 5.17245 5.51306 5.1608C5.48808 5.12514 5.46544 5.08789 5.44529 5.04929Z" fill="#BBC4CA"/>
<path d="M6.06391 5.37999C5.8472 4.97385 5.71227 4.52913 5.66676 4.07104C5.66615 4.06719 5.66588 4.06329 5.66594 4.05939L5.65717 4.06589C5.5671 4.14204 5.49442 4.23663 5.44406 4.34329C5.3937 4.44994 5.36681 4.56616 5.36523 4.6841C5.36689 4.80997 5.39405 4.9342 5.44508 5.04927C5.46523 5.08787 5.48787 5.12512 5.51285 5.16078C5.5209 5.17234 5.52946 5.18441 5.53895 5.19771C5.54844 5.21102 5.56268 5.22495 5.5765 5.2398C5.64674 5.31358 5.73126 5.3723 5.82491 5.41238C5.91857 5.45246 6.0194 5.47306 6.12126 5.47293C6.12126 5.47293 6.09837 5.44044 6.06432 5.38009" fill="black"/>
<path d="M6.89081 10.5404C6.9853 10.5414 7.0572 10.6278 7.1161 10.7475C7.17969 10.8882 7.22777 11.0354 7.25949 11.1866C7.30529 11.3845 7.33459 11.5824 7.35058 11.7032C7.35058 11.7577 7.34965 11.7977 7.3482 11.8209V11.8228C7.36821 11.6918 7.56039 10.422 6.91495 10.2432C6.91495 10.2432 6.46601 10.1284 6.495 11.064C6.49778 11.0427 6.50016 11.024 6.50181 11.0067C6.64922 10.6755 6.77249 10.543 6.89081 10.5404Z" fill="#BBC4CA"/>
<path d="M7.35076 11.703C7.34818 11.6634 7.30548 11.3844 7.25967 11.1864C7.22795 11.0354 7.17987 10.8882 7.11629 10.7475C7.05739 10.6276 6.98549 10.5412 6.89099 10.5404C6.77267 10.543 6.6494 10.6753 6.50199 11.0065C6.4949 11.0248 6.49256 11.0445 6.49518 11.0639L6.71748 11.5537C6.71748 11.5537 6.84519 10.2423 7.34725 11.8188C7.34725 11.8218 7.34725 11.8243 7.34818 11.8253V11.8222V11.8231V11.8209C7.35277 11.7818 7.35356 11.7424 7.35055 11.7031" fill="black"/>
</g>
<defs>
<clipPath id="clip0_876_2964">
<rect width="16.0408" height="16" fill="white" transform="translate(0.130371)"/>
</clipPath>
</defs>
</svg>
