<svg width="17" height="16" viewBox="0 0 17 16" fill="none" xmlns="http://www.w3.org/2000/svg">
<g clip-path="url(#clip0_879_4024)">
<path d="M16.9825 6.11549H10.5628L8.51788 0L6.47274 6.11549H0.0532227L5.31287 9.88101L3.29378 16L8.51788 12.2683L13.7424 15.9928L11.7227 9.88119L16.9825 6.11549Z" fill="#FFFFFE"/>
<path d="M8.51812 0.727783L6.63716 6.34379H0.763672L5.58226 9.7932L3.72908 15.409L8.51911 11.9881L13.3075 15.409L11.4536 9.7932L16.2724 6.34379H10.3989L8.51812 0.727783Z" fill="#002244"/>
<path d="M8.51766 2.27557L7.00515 6.82442H2.24756L6.15072 9.61853L4.64966 14.1672L8.52932 11.3965L12.3854 14.1672L10.8844 9.61871L14.7878 6.82442H10.03L8.51766 2.27557Z" fill="#FFFFFE"/>
<path d="M8.51812 3.6134L7.32931 7.20696H3.57129L6.65448 9.41438L5.46839 13.0079L8.53367 10.819L11.5677 13.0079L10.3814 9.41456L13.4647 7.20696H9.70675L8.51812 3.6134Z" fill="#002244"/>
</g>
<defs>
<clipPath id="clip0_879_4024">
<rect width="16.9293" height="16" fill="white" transform="translate(0.0532227)"/>
</clipPath>
</defs>
</svg>
