<svg width="16" height="16" viewBox="0 0 16 16" fill="none" xmlns="http://www.w3.org/2000/svg">
<g clip-path="url(#clip0_795_1577)">
<path d="M15.1147 3.00517C15.1034 3.48857 14.9367 3.9555 14.6393 4.33672C14.7297 4.66834 14.7751 5.01062 14.7744 5.35435C14.7724 6.41545 14.2758 6.97797 14.1502 7.16893C14.2571 7.87198 14.1234 8.54732 13.8547 9.07562C13.5223 9.72867 13.0697 10.1802 12.3579 10.5394C12.3579 10.5394 11.819 11.8828 11.1155 12.8473C9.60989 14.9114 7.87277 15.9002 7.57034 16C7.24021 15.8953 5.55646 14.9191 4.04454 12.8473C3.34127 11.8828 2.80239 10.54 2.80239 10.54C2.09033 10.1797 1.63793 9.72935 1.30554 9.0763C1.03689 8.54755 0.903355 7.87265 1.00987 7.16961C0.884214 6.97865 0.387669 6.4159 0.385867 5.35503C0.385202 5.0113 0.430645 4.66904 0.520982 4.33739C0.224434 3.95573 0.0584818 3.48882 0.0476315 3.00562C0.0386239 2.65162 0.0719521 2.1258 0.367627 1.55719C0.403547 1.49197 0.443561 1.42909 0.487428 1.36893C0.535113 1.54832 0.603901 1.72143 0.692351 1.88462C0.776573 2.03482 0.868901 2.17016 1.07225 2.35594C1.26744 2.53593 1.49874 2.67227 1.75075 2.75588L1.74849 0.542033C2.7632 0.317969 4.81491 0 7.57372 0C10.3325 0 12.366 0.317969 13.4134 0.541583L13.4109 2.75543C13.6629 2.67176 13.8942 2.53534 14.0894 2.35527C14.292 2.16948 14.3839 2.03437 14.4693 1.88417C14.5578 1.72067 14.6267 1.54727 14.6744 1.36758C14.7185 1.42771 14.7586 1.49067 14.7944 1.55607C15.0901 2.124 15.1237 2.65049 15.1144 3.00449" fill="white"/>
<path d="M5.31439 8.71307L5.45333 9.14094H5.90371L5.53958 9.40508L5.67965 9.83295L5.31574 9.5688L4.95138 9.83362L5.09033 9.40576L4.72642 9.14094H5.1768L5.31439 8.71307ZM7.42082 9.14094H6.97269L7.33682 9.40508L7.19676 9.83295L7.56202 9.56925L7.92547 9.8334L7.78653 9.40553L8.14976 9.14094H7.69938L7.56111 8.71307L7.42082 9.14094ZM9.63714 9.14094H9.18789L9.5518 9.40508L9.41285 9.83295L9.77654 9.5688L10.1409 9.83362L10.0008 9.40576L10.365 9.14094H9.91458L9.77564 8.71307L9.63714 9.14094ZM5.9769 13.0255C5.82422 13.3054 5.63168 13.54 5.54408 13.6668H9.64075C9.55292 13.5405 9.36714 13.3004 9.19892 13.0257C9.07394 12.821 8.96315 12.6204 8.89109 12.3857H6.26447C6.19871 12.6032 6.09377 12.8136 5.97848 13.0257M10.3078 10.7026C10.9257 10.5027 11.6607 10.2511 11.6607 10.2511H3.4917C3.4917 10.2511 4.24699 10.5168 4.86964 10.7051C5.40447 10.8672 6.04964 11.0978 6.24735 11.5401H8.91293C9.12979 11.0978 9.77586 10.874 10.3078 10.7029" fill="#EB0029"/>
<path d="M8.21946 6.07338C8.17294 6.0425 8.12199 6.01888 8.06835 6.00335C7.99742 5.98083 7.90667 5.96439 7.70512 5.97182C7.58127 5.97633 7.41981 5.97182 7.41981 5.97182C7.41981 5.97182 7.5583 6.15986 7.6209 6.2067C7.72089 6.28236 7.88753 6.21435 8.02422 6.1567C8.08952 6.12518 8.21946 6.07338 8.21946 6.07338ZM10.066 7.39232C10.1336 7.30788 10.186 7.15452 10.1881 6.99396C10.1901 6.71923 10.0881 6.3569 9.89532 5.90967C9.77642 5.63336 9.57848 5.19064 9.6073 4.77921C9.62735 4.4957 9.84038 4.23313 10.1532 4.06356C10.6765 3.77982 11.3949 3.61318 11.3949 3.61318C10.2626 3.49946 8.93624 3.41051 7.56663 3.41051C6.29068 3.41347 5.01568 3.48074 3.7465 3.61205C3.7465 3.61205 4.45563 3.77824 4.9882 4.06243C5.30212 4.22975 5.5147 4.49457 5.53451 4.77809C5.56289 5.18951 5.36539 5.63224 5.24649 5.90854C5.05351 6.356 4.95194 6.71923 4.95375 6.99284C4.9551 7.15295 5.00419 7.3063 5.06792 7.39412C5.15236 7.51122 5.28117 7.63012 5.56784 7.63012C6.0493 7.63012 6.23238 7.20046 6.23238 6.94442C6.23238 6.68838 6.09974 6.5697 6.00719 6.48954C5.88698 6.39155 5.7495 6.31693 5.60184 6.26952C5.60184 6.26952 6.15649 6.0914 6.15649 5.76825C6.15649 5.5032 5.99548 5.20055 5.78763 4.98008L5.80136 4.9659C5.85834 4.99787 6.06438 5.07557 6.24138 5.10754C6.49992 5.15126 6.76172 5.17281 7.02392 5.17195C7.45021 5.17195 7.64387 5.1215 7.95959 5.1215C8.28814 5.1215 8.57954 5.27689 8.6507 5.57459C8.7663 5.55977 8.88315 5.5572 8.99929 5.56693C9.39022 5.60679 9.65707 5.88085 9.66405 6.23867C9.67756 6.94352 9.07473 7.17074 8.95921 7.18763C8.97491 7.14173 8.97863 7.09259 8.97002 7.04485C8.95786 6.96063 8.87994 6.84781 8.75158 6.84781C8.56873 6.84781 8.4773 6.99802 8.48338 7.14777C8.49667 7.47542 8.86485 7.61526 9.23439 7.63575C9.29046 7.63868 9.3301 7.64026 9.38279 7.63868C9.72598 7.62967 9.94149 7.54478 10.0658 7.39097M15.1152 3.00562C15.104 3.48894 14.9374 3.9558 14.6403 4.33717C14.7307 4.66864 14.7762 5.01077 14.7754 5.35435C14.7734 6.4159 14.2769 6.97842 14.1512 7.16939C14.2577 7.87243 14.1237 8.54755 13.8555 9.07585C13.5222 9.7289 13.0698 10.1793 12.3578 10.5396C12.3578 10.5396 11.8189 11.8831 11.1154 12.8473C9.61001 14.9112 7.87266 15.8998 7.57046 16C7.24123 15.8953 5.55658 14.9191 4.04465 12.8473C3.34116 11.8833 2.80228 10.5405 2.80228 10.5405C2.09023 10.1802 1.63759 9.7298 1.30544 9.07675C1.03679 8.548 0.902797 7.87288 1.00976 7.16961C0.884106 6.97865 0.387562 6.41612 0.38576 5.35458C0.385111 5.011 0.430554 4.66889 0.520874 4.33739C0.223656 3.95606 0.0570586 3.48919 0.0457228 3.00584C0.03649 2.65184 0.0702685 2.1258 0.365718 1.55742C0.402195 1.49185 0.442811 1.42866 0.487321 1.36826C0.53503 1.54782 0.603736 1.72114 0.692019 1.88462C0.776691 2.03482 0.868568 2.17016 1.07192 2.35594C1.26711 2.53593 1.49841 2.67227 1.75041 2.75588L1.74839 0.542033C2.76355 0.316843 4.81503 0 7.57429 0C10.3335 0 12.3661 0.317969 13.4132 0.541808L13.4108 2.75565C13.6628 2.67205 13.8941 2.53571 14.0893 2.35572C14.2919 2.16993 14.3838 2.0346 14.4692 1.88439C14.5577 1.72099 14.6266 1.54766 14.6743 1.36803C14.7184 1.42816 14.7585 1.49112 14.7943 1.55652C15.09 2.12422 15.1233 2.65094 15.1143 3.00494M14.7076 1.90691C14.6086 2.15822 14.3908 2.3949 14.1742 2.58248C13.9141 2.80767 13.4671 3.0117 13.198 3.05538V0.700117C12.857 0.628957 10.8659 0.208751 7.57879 0.208751C4.29169 0.208751 2.30573 0.629182 1.96389 0.700117V3.05673C1.69367 3.0117 1.24689 2.8079 0.987694 2.58383C0.771061 2.3958 0.553077 2.15913 0.454443 1.90826C0.32068 2.22015 0.269337 2.61829 0.27947 2.95607C0.297936 3.55711 0.499481 3.89805 0.77624 4.30046C0.77624 4.30046 0.576271 4.72832 0.621084 5.56806C0.658691 6.27943 1.07011 6.85795 1.25882 7.12187C1.04377 8.37776 1.62386 9.22988 1.98078 9.6395C2.41698 10.1394 3.0072 10.4033 3.0072 10.4033C3.19501 10.897 3.67872 11.9849 4.3329 12.8325C5.12624 13.86 6.27494 15.065 7.56911 15.7374C8.8635 15.0641 10.0361 13.8593 10.8292 12.8325C11.4838 11.9849 11.9675 10.8958 12.1551 10.4033C12.1551 10.4033 12.7453 10.1403 13.1813 9.6395C13.5382 9.22988 14.1179 8.37843 13.9019 7.12187C14.0908 6.85885 14.502 6.28033 14.5396 5.56918C14.5847 4.72922 14.3847 4.30159 14.3847 4.30159C14.6619 3.89895 14.8628 3.55846 14.8801 2.9572C14.8905 2.61941 14.8389 2.22263 14.7056 1.90894M14.1321 4.56213C14.2793 5.09966 14.2097 5.63449 14.1147 5.95831C13.8206 6.96176 12.9786 7.3331 12.3357 7.69565C12.0283 7.86883 11.7894 8.02105 11.6167 8.17171C11.0168 8.69685 11.1264 9.07247 11.1264 9.07247C11.3428 8.64078 11.9923 8.35839 12.5602 8.0724C13.3349 7.68057 13.5821 7.32454 13.5821 7.32454C13.6947 7.99809 13.4887 8.62456 13.2182 9.06211C12.6368 10.0021 11.6966 10.2374 11.6687 10.2516H3.49429C3.46614 10.2374 2.52597 10.0016 1.94565 9.06211C1.67543 8.62524 1.46825 7.99809 1.58152 7.32454C1.58152 7.32454 1.82923 7.68057 2.60434 8.07195C3.17227 8.35862 3.82171 8.641 4.03812 9.07179C4.03812 9.07179 4.14779 8.69618 3.54811 8.17103C3.37539 8.02038 3.13624 7.86838 2.82908 7.69498C2.18503 7.33242 1.34282 6.96108 1.05007 5.95764C0.955492 5.63426 0.885683 5.09944 1.03273 4.56146C1.03273 4.56146 1.17032 5.02625 2.1749 5.52595C2.90339 5.88895 3.40061 6.23237 3.61927 6.73071C3.61927 6.73071 3.78794 6.11459 3.1216 5.61422C2.93064 5.471 2.77368 5.37417 2.3501 5.14132C2.07018 4.98617 1.43335 4.66594 0.981164 4.00569C0.694721 3.59021 0.50984 3.09344 0.599916 2.56514C0.599916 2.56514 0.691344 2.76421 1.03588 2.97702C1.45271 3.23463 1.90692 3.36524 2.54669 3.53864C3.1511 3.70213 4.18675 3.90525 4.79679 4.24641C5.0731 4.40044 5.2492 4.62046 5.2528 4.86636C5.26271 5.51942 4.67586 6.13891 4.67586 6.98766C4.67586 7.52046 4.95127 7.8713 5.54622 7.8713C5.82636 7.8713 6.04502 7.77132 6.20625 7.62359C6.40622 7.44209 6.51251 7.18988 6.51251 6.97189C6.51251 6.43144 6.12654 6.31186 6.03961 6.26705C6.24724 6.18215 6.39046 6.04591 6.4105 5.83919C6.42672 5.67502 6.39406 5.55905 6.36254 5.49217C6.33037 5.42153 6.29009 5.35488 6.24251 5.29355C6.3841 5.33976 6.53027 5.37049 6.67848 5.3852C7.31847 5.45276 7.54231 5.34985 7.8623 5.34985C8.17014 5.34985 8.45636 5.49915 8.44375 5.80338C8.56156 5.77162 8.68316 5.75609 8.80518 5.75722C9.27177 5.75722 9.44044 6.03825 9.44044 6.29159C9.44044 6.66969 9.1907 6.85164 9.12517 6.87146C9.08711 6.70144 8.88512 6.61362 8.72704 6.61362C8.50185 6.61362 8.22689 6.75976 8.22689 7.12592C8.2276 7.2202 8.24747 7.31336 8.28529 7.39972C8.32311 7.48609 8.37809 7.56386 8.4469 7.62832C8.57593 7.74092 8.83738 7.87783 9.36703 7.87783C10.078 7.87783 10.4885 7.52046 10.4885 6.98743C10.4885 6.13891 9.8969 5.52369 9.91131 4.86636C9.91649 4.61865 10.0865 4.40405 10.3696 4.24619C10.9801 3.90413 12.0135 3.70235 12.6174 3.53842C13.2574 3.36524 13.7112 3.23463 14.1282 2.97679C14.4728 2.76399 14.5642 2.56514 14.5642 2.56514C14.6543 3.09321 14.4692 3.58976 14.1841 4.00501C13.7326 4.66504 13.0962 4.98504 12.8154 5.14065C12.3918 5.37439 12.2353 5.471 12.0443 5.61355C11.3778 6.11347 11.5464 6.72981 11.5464 6.72981C11.7653 6.23169 12.2621 5.88828 12.9908 5.52527C13.9956 5.02512 14.1327 4.56078 14.1327 4.56078M5.53879 9.40575L5.90292 9.14138H5.45254L5.3136 8.71352L5.17466 9.14138H4.72428L5.08841 9.40575L4.94924 9.83361L5.31293 9.56924L5.67706 9.83361L5.53879 9.40575ZM7.78461 9.40575L8.14875 9.14138H7.69837L7.56055 8.71352L7.42048 9.14138H6.9701L7.33423 9.40575L7.19507 9.83361L7.55965 9.56924L7.92356 9.83361L7.78461 9.40575ZM8.18478 7.71682C8.14762 7.68304 7.96927 7.45245 7.96184 7.16263C7.94968 6.67261 8.28701 6.37919 8.72749 6.37919C9.05311 6.37919 9.15084 6.57128 9.15084 6.57128C9.1844 6.5312 9.24092 6.38888 9.22088 6.2666C9.1853 6.05942 9.011 5.97385 8.73447 5.97385C8.44645 5.97385 8.2672 6.05379 8.2672 6.05379L8.23162 6.0673C8.23162 6.0673 8.28431 5.80969 8.0965 5.65948C7.95125 5.54329 7.70084 5.58134 7.48308 5.61827C7.21038 5.66331 6.79152 5.66331 6.57354 5.55477C6.64527 5.67168 6.67726 5.80866 6.66474 5.94525C6.64493 6.10919 6.52332 6.22516 6.45667 6.27268C6.57106 6.35757 6.78792 6.50688 6.78792 6.93721C6.78792 7.28851 6.55327 7.62337 6.45216 7.70466C6.65754 7.66661 6.88408 7.65445 7.0309 7.70782C7.37657 7.83302 7.43624 8.08005 7.48128 8.20008L7.51349 8.18634C7.48308 8.02376 7.4734 7.73371 7.64094 7.64341C7.77358 7.57225 8.02106 7.65242 8.1814 7.73732C8.1814 7.73732 8.1814 7.71367 8.18816 7.7175M10.0041 9.40643L10.368 9.14205H9.91762L9.77867 8.71419L9.63951 9.14205H9.188L9.55191 9.40643L9.41207 9.83429L9.77597 9.56991L10.141 9.83429L10.0041 9.40643ZM4.82584 11.0776C4.41554 10.9494 3.95323 10.7974 3.4506 10.6047C3.6213 11.0384 3.93701 11.6313 4.19058 12.0256C4.47071 12.4611 4.84926 12.9656 5.25438 13.3889C5.45705 13.1793 6.09298 12.4229 6.09298 11.8835C6.09298 11.4683 5.35278 11.2435 4.82629 11.0782M9.07428 11.8804C9.02609 12.4174 9.73859 13.2004 9.91829 13.3804C10.3236 12.9577 10.6975 12.4582 10.9767 12.0227C11.2303 11.6286 11.5455 11.0355 11.7169 10.6017C11.214 10.7952 10.7675 10.9348 10.3414 11.0704C9.81516 11.237 9.11301 11.4552 9.07473 11.881M6.24747 11.5403C6.30331 11.6374 6.32223 11.7655 6.33281 11.9049C6.347 12.0914 6.28777 12.322 6.26525 12.3859H8.89143C8.86891 12.322 8.80991 12.0914 8.82387 11.9049C8.83423 11.7664 8.85584 11.6374 8.91169 11.5403H6.24747ZM7.56888 15.346C8.17982 15.0224 9.14521 14.1203 9.64356 13.6659H5.54352C6.02678 14.2136 7.01334 15.0519 7.57023 15.346M3.60351 1.42681C3.60351 1.36083 3.59743 1.21242 3.55374 1.13541C3.52047 1.07285 3.46684 1.02352 3.40173 0.995567C3.34476 0.973048 3.25986 0.962464 3.09322 0.985883C2.93559 1.00593 2.56042 1.06583 2.56042 1.06583L2.56245 3.29859C2.56245 3.29859 2.78764 3.26954 2.86893 3.2585C2.95451 3.24634 3.21933 3.21347 3.27923 3.20176C3.40331 3.17586 3.45038 3.1306 3.48708 3.09682C3.56185 3.02926 3.60531 2.92612 3.60531 2.79664L3.60351 1.42681ZM3.20222 2.98062C3.17689 2.99963 3.14664 3.01096 3.11507 3.01327L2.93492 3.03579V1.21941L3.1252 1.19396C3.16799 1.1881 3.19276 1.19644 3.20942 1.21513C3.22609 1.23382 3.22946 1.27323 3.22946 1.34011L3.23082 2.88356C3.23082 2.91734 3.22946 2.9527 3.20199 2.97814M12.5924 1.58624C12.5924 1.53332 12.599 1.35159 12.5724 1.27097C12.537 1.17031 12.49 1.13203 12.4224 1.08925C12.3549 1.04646 12.2423 1.02935 12.0806 1.00255C11.9189 0.97575 11.5563 0.933414 11.5563 0.933414V3.18689C11.5563 3.18689 11.7874 3.21662 11.8637 3.22923C11.9401 3.24184 12.2213 3.28012 12.2812 3.28125C12.4057 3.28283 12.4377 3.25648 12.4747 3.23306C12.5494 3.18599 12.5924 3.09547 12.5924 2.96598V1.58624ZM12.2175 2.94549C12.2175 2.98918 12.2098 3.01057 12.195 3.02138C12.1724 3.03849 12.1384 3.03557 12.1015 3.02994L11.929 3.00517V1.20364L12.115 1.22999C12.1706 1.23765 12.1869 1.25251 12.201 1.28268C12.211 1.3052 12.2168 1.33763 12.2168 1.40519L12.2175 2.94549ZM3.8609 3.15875C3.87845 3.15748 3.89555 3.15254 3.91106 3.14424C3.92658 3.13593 3.94018 3.12446 3.95097 3.11055C3.97415 3.08286 3.98559 3.04721 3.98285 3.0112C3.98012 2.97519 3.96343 2.94167 3.93634 2.91779C3.91199 2.89512 3.87965 2.88301 3.8464 2.88411C3.81315 2.8852 3.78169 2.89942 3.75889 2.92365L3.75123 2.93243C3.72782 2.96025 3.71633 2.99617 3.71925 3.03241C3.72043 3.0503 3.72516 3.06778 3.73317 3.08383C3.74117 3.09987 3.75229 3.11416 3.76587 3.12587C3.77854 3.13789 3.79363 3.14708 3.81013 3.15283C3.82663 3.15858 3.84417 3.16075 3.86157 3.1592M5.44151 3.02543C5.45906 3.02424 5.47615 3.01935 5.49168 3.01108C5.5072 3.00281 5.5208 2.99136 5.53159 2.97747C5.55447 2.94959 5.56571 2.91395 5.56294 2.87799C5.56017 2.84202 5.54361 2.80852 5.51672 2.78448C5.50384 2.77214 5.48842 2.76277 5.47154 2.75701C5.45466 2.75126 5.43672 2.74926 5.41899 2.75115C5.40143 2.7524 5.38433 2.75734 5.36881 2.76564C5.35329 2.77395 5.3397 2.78543 5.32891 2.79934C5.30584 2.82705 5.29448 2.86267 5.29725 2.89863C5.30003 2.93458 5.31672 2.96804 5.34378 2.99188C5.35642 3.0039 5.37146 3.01311 5.38792 3.01889C5.40438 3.02468 5.42187 3.02691 5.43926 3.02543M4.67924 0.797624C4.61326 0.802353 4.40451 0.815189 4.27705 0.946025C4.15927 1.06605 4.16648 1.22346 4.16738 1.27886V2.70836C4.16941 2.83695 4.21715 2.94099 4.30362 3.00832C4.34371 3.0403 4.43356 3.11055 4.67541 3.08849C4.88011 3.06957 4.99293 3.00449 5.05553 2.94977C5.09381 2.91528 5.12389 2.87267 5.14356 2.82506C5.16324 2.77744 5.17202 2.72603 5.16925 2.67459V2.14539L4.80084 2.301V2.68112C4.80084 2.79641 4.75963 2.84821 4.67136 2.85924C4.61326 2.86622 4.53467 2.85767 4.53467 2.71332V1.16604C4.53467 1.07821 4.57971 1.02619 4.65604 1.01876C4.73238 1.01133 4.79611 1.04398 4.79611 1.14667V1.59007L5.16362 1.43244V1.21558C5.16362 1.10073 5.15236 1.00998 5.11115 0.9467C5.02896 0.820143 4.83124 0.78659 4.67856 0.797399M6.8244 0.705521L6.44541 0.714979V2.60793C6.44541 2.74102 6.36884 2.76556 6.29273 2.76556C6.19882 2.76714 6.14635 2.72548 6.14635 2.62279V0.725113L5.77299 0.742227V2.60455C5.77299 2.79912 5.85293 2.85699 5.88919 2.89054C5.96057 2.95382 6.12091 2.99683 6.28935 2.99053C6.48684 2.98242 6.59809 2.94076 6.69469 2.86915C6.78477 2.80159 6.82575 2.69688 6.82575 2.5764V0.705521M8.27891 0.70417L7.90487 0.700342V1.52769L7.52992 0.696739L7.18291 0.698315V2.94346H7.55379V1.3919L7.9141 2.10598V2.94211L8.27868 2.94932V0.70417M9.04455 0.726689L8.67389 0.714079V2.9581L9.04455 2.98062V0.726689ZM11.3347 2.90248L10.8785 2.84933V2.03865L11.1224 2.06364L11.2575 1.80558L10.8774 1.76549V1.09037L11.2739 1.13203L11.2755 0.897384C11.2755 0.897384 11.0206 0.871036 10.9073 0.858426C10.8145 0.848742 10.5083 0.818792 10.5083 0.818792V3.0707C10.5083 3.0707 10.7916 3.09907 10.8983 3.11055L11.3365 3.15739L11.3347 2.90248ZM10.3281 0.805956C10.3281 0.805956 9.9514 0.778934 9.79939 0.769701L9.29609 0.739975L9.18485 0.965166L9.58771 0.987685V3.00336C9.58771 3.00336 9.96603 3.02926 9.95793 3.02926V1.00885L10.3302 1.03475L10.3281 0.805956Z" fill="#2E2A25"/>
</g>
<defs>
<clipPath id="clip0_795_1577">
<rect width="15.0712" height="16" fill="white" transform="translate(0.0444336)"/>
</clipPath>
</defs>
</svg>
