<svg width="17" height="16" viewBox="0 0 17 16" fill="none" xmlns="http://www.w3.org/2000/svg">
<g clip-path="url(#clip0_876_2831)">
<path d="M8.1202 3.58642e-05C10.2404 0.00368011 12.2727 0.84783 13.7716 2.34744C15.2705 3.84706 16.1136 5.87978 16.1162 8.00002C16.1162 12.412 12.5282 16 8.1202 16C6.5376 16.001 4.99027 15.5326 3.674 14.6539C2.35774 13.7752 1.33171 12.5258 0.725755 11.0638C0.119801 9.60184 -0.0388407 7.99295 0.269905 6.44076C0.578651 4.88857 1.34091 3.46286 2.46021 2.34403C3.20166 1.59832 4.08372 1.00715 5.05529 0.604792C6.02686 0.202432 7.06862 -0.0031231 8.1202 3.58642e-05Z" fill="#FFC627"/>
<path d="M8.12033 15.364C12.1763 15.364 15.4763 12.064 15.4763 8.00003C15.4763 3.94404 12.1763 0.640049 8.12033 0.640049C4.05634 0.636048 0.756348 3.94004 0.756348 7.99603C0.756348 12.06 4.05634 15.364 8.12033 15.364Z" fill="#922331"/>
<path d="M1.30029 7.99601C1.30029 4.24001 4.36029 1.18402 8.11628 1.18402C9.92346 1.18402 11.6566 1.90192 12.9345 3.17979C14.2124 4.45766 14.9303 6.19082 14.9303 7.998C14.9303 9.80519 14.2124 11.5384 12.9345 12.8162C11.6566 14.0941 9.92346 14.812 8.11628 14.812C4.36029 14.816 1.30029 11.756 1.30029 7.99601Z" fill="#0D2240"/>
<path d="M13.4841 5.14403L13.6361 5.06002L13.1481 4.30003L13.0121 4.40002C12.1801 3.34803 10.7001 2.17603 9.29207 2.00003C10.3521 2.48403 11.5441 3.72003 12.2721 4.67202L11.5081 5.22802L11.6001 5.36802L8.14407 7.61202L4.68808 5.36803L4.78008 5.22803L4.01208 4.67203C4.74408 3.72003 5.93207 2.48403 6.99607 2.00003C5.59207 2.17603 4.11208 3.34803 3.28408 4.39603L3.14008 4.29203L2.65208 5.04803L2.80408 5.13603L2.80008 5.14403C2.19208 6.34003 1.74408 8.18402 2.18008 9.53602C2.16808 8.36802 2.79608 6.76402 3.36008 5.69602L4.18408 6.16002L4.26808 6.02802L7.47607 8.04402L3.24408 10.796L3.23608 10.788L2.66808 10.94L2.67608 10.956C2.64808 11.06 2.70008 11.256 2.82008 11.444C2.94008 11.636 3.09208 11.76 3.20808 11.784L3.21608 11.8L3.59208 11.344L3.58808 11.336L12.0161 6.03602L12.1001 6.16802L12.9281 5.70402C13.4921 6.77202 14.1201 8.38002 14.1121 9.54401C14.5441 8.18802 14.0921 6.34002 13.4841 5.14403Z" fill="#FFC627"/>
<path d="M13.0483 10.788L13.0403 10.796L9.14826 8.26801L8.46826 8.672L12.6963 11.332L12.6923 11.34L13.0683 11.796L13.0802 11.78C13.1922 11.76 13.3442 11.632 13.4682 11.44C13.5842 11.252 13.6402 11.06 13.6122 10.952L13.6202 10.936L13.0483 10.788Z" fill="#FFC627"/>
<path d="M8.8083 2.68005L8.51629 3.06406L8.1123 2.09604V6.56406L9.4723 4.82004L10.8403 5.17602L8.8083 2.68005Z" fill="#FFC627"/>
<path d="M8.80812 3.72799V2.68002L8.51611 3.06404L8.80812 3.72799Z" fill="white"/>
<path d="M8.11203 2.09604L5.64404 5.10804L6.73201 4.82805L8.11203 6.56406V2.09604Z" fill="white"/>
<path d="M6.66419 13.36C7.01106 13.0257 7.46073 12.8185 7.94019 12.772V12.104H6.09619C6.13247 12.5763 6.33351 13.0208 6.66419 13.36Z" fill="#FFC627"/>
<path d="M7.93607 13.98V13.188C7.57826 13.2318 7.24285 13.3856 6.97607 13.628C7.26186 13.8233 7.5918 13.9443 7.93607 13.98Z" fill="#FFC627"/>
<path d="M8.34814 9.88V10.668C8.70549 10.6267 9.04036 10.4726 9.30414 10.228C9.01898 10.0351 8.6906 9.91555 8.34814 9.88Z" fill="white"/>
<path d="M9.62014 10.5C9.27445 10.833 8.82602 11.0389 8.34814 11.084V11.692H10.1881C10.1328 11.2437 9.93352 10.8254 9.62014 10.5Z" fill="white"/>
<path d="M7.93598 10.668V9.88C7.59263 9.91442 7.26366 10.0355 6.97998 10.232C7.24557 10.4732 7.57973 10.6256 7.93598 10.668Z" fill="white"/>
<path d="M8.34814 12.104V12.772C8.82712 12.816 9.27632 13.0236 9.62014 13.36C9.9535 13.0223 10.1562 12.5772 10.1921 12.104L8.34814 12.104Z" fill="#FFC627"/>
<path d="M6.09619 11.692H7.93619V11.084C7.45756 11.0373 7.00835 10.8317 6.66019 10.5C6.34798 10.8257 6.15005 11.244 6.09619 11.692Z" fill="white"/>
<path d="M8.34814 13.98C8.69149 13.9456 9.02046 13.8245 9.30414 13.628C9.03989 13.3841 8.70526 13.2301 8.34814 13.188V13.98Z" fill="#FFC627"/>
</g>
<defs>
<clipPath id="clip0_876_2831">
<rect width="16" height="16" fill="white" transform="translate(0.116211)"/>
</clipPath>
</defs>
</svg>
