<svg width="22" height="16" viewBox="0 0 22 16" fill="none" xmlns="http://www.w3.org/2000/svg">
<g clip-path="url(#clip0_879_4009)">
<path d="M19.3143 5.06991C19.3143 5.06991 19.5769 4.84451 19.8516 4.84946C20.1269 4.85376 20.3169 4.94606 20.4203 5.0562C20.4203 5.0562 20.6392 5.02628 20.8769 5.09151C21.1143 5.15714 21.4497 5.35315 21.5803 5.58135C21.7108 5.80996 21.7259 6.07269 21.5903 6.32126C21.5903 6.32126 21.6353 6.49028 21.5244 6.69996C21.4124 6.91012 21.2299 7.01925 21.2299 7.01925C21.2299 7.01925 21.105 7.32986 20.7792 7.47426C20.4527 7.61888 20.0241 7.45555 20.0241 7.45555C20.0241 7.45555 19.7813 7.50287 19.5983 7.50287C19.4138 7.50252 19.1563 7.42331 19.0773 7.38607C19.0773 7.38607 18.8586 7.70702 18.7977 7.78356C18.7977 7.78356 19.0963 8.04344 19.423 8.14578C19.749 8.24808 20.0054 8.29495 20.1549 8.40181C20.303 8.50971 20.3602 8.61442 20.3602 8.61442C20.3602 8.61442 20.5881 8.57893 20.8068 8.63054C21.0261 8.68197 21.2818 8.85423 21.4499 9.08314C21.6177 9.3117 21.7202 9.60501 21.6502 9.88425C21.5804 10.1644 21.4206 10.2662 21.4206 10.2662C21.4206 10.2662 21.3428 10.5235 21.1841 10.6816C21.0261 10.8411 20.8003 10.8513 20.8003 10.8513C20.8003 10.8513 20.6764 11.0177 20.3549 11.0687C20.0335 11.1201 19.8034 10.9423 19.8034 10.9423C19.8034 10.9423 19.5494 10.9711 19.2037 10.8637C18.8591 10.7569 18.623 10.4033 18.623 10.4033C18.623 10.4033 18.3985 10.2953 17.9834 10.2763C17.5684 10.2574 16.6419 10.0709 16.2294 9.83094C16.2294 9.83094 15.9868 9.94813 15.2516 9.9862C15.2516 9.9862 15.1426 9.65408 14.9295 9.48755C14.9295 9.48755 14.2975 9.83834 14.0978 9.931C13.8972 10.0246 13.5262 10.1861 13.2034 10.2057C13.2034 10.2057 13.1187 10.7329 12.9647 11.0176C12.8112 11.3024 12.5157 11.514 12.2655 11.597C12.2655 11.597 12.6296 11.7263 12.8213 12.0106C13.0118 12.2954 13.0772 12.6075 12.9469 12.8592C12.8161 13.111 12.6689 13.1794 12.6689 13.1794C12.6689 13.1794 12.5941 13.4337 12.2998 13.5657C12.0053 13.6978 11.6351 13.6279 11.6351 13.6279C11.6351 13.6279 11.4301 13.736 11.1494 13.7338C10.8683 13.7313 10.516 13.4921 10.516 13.4921C10.516 13.4921 9.59452 13.5764 9.32027 13.5534C9.04619 13.5313 8.72156 13.4175 8.56682 13.0125C8.56682 13.0125 8.39846 13.1531 8.14725 13.2745C7.89565 13.3957 7.41904 13.6295 7.07662 13.8734L7.08801 14.0555C7.08801 14.0555 7.58854 14.2441 7.62061 14.7568C7.65351 15.2698 7.37344 15.4601 7.29396 15.5144C7.29396 15.5144 7.18746 15.7458 6.95899 15.8621C6.73083 15.9782 6.47857 15.9247 6.47857 15.9247C6.47857 15.9247 5.91578 16.1746 5.48684 15.7641C5.05768 15.3541 5.17912 14.9112 5.18411 14.8034C5.18832 14.6966 5.21955 13.7567 5.21513 13.713C5.21513 13.713 5.00212 13.4282 5.04865 13.1064C5.09526 12.7848 5.34218 12.5839 5.45841 12.4863C5.57534 12.3882 5.71513 12.2256 5.78444 11.9783C5.85419 11.7315 5.85905 11.2271 5.88245 11.0408C5.90606 10.8543 5.91579 10.5418 5.91579 10.5418C5.91579 10.5418 5.07235 10.3091 4.63399 9.81946C4.19584 9.32966 4.0744 8.97524 3.96207 8.49096C3.85101 8.00611 3.77207 7.51614 3.32682 7.24128C3.32682 7.24128 3.03527 7.32478 2.7003 7.18962C2.36493 7.0546 2.15955 6.78412 1.94549 6.51837C1.731 6.25257 0.967561 6.13135 0.696289 6.11755C0.696289 6.11755 1.26941 5.48309 2.04323 5.21269C2.81657 4.94269 3.18462 5.04941 3.44104 5.19416C3.69755 5.33878 3.89899 5.58219 3.99388 5.91287C3.99388 5.91287 4.49822 6.13108 4.84358 6.53712C5.18832 6.94236 5.35134 7.30152 5.46362 7.74435C5.57534 8.18779 5.71597 8.72482 6.60492 8.91995C6.60492 8.91995 7.13165 8.39291 7.33129 8.2617C7.53225 8.13167 7.78337 8.05772 7.85583 8.03643C7.92781 8.01514 8.26651 7.90487 8.26651 7.90487C8.26651 7.90487 8.79867 7.47062 8.88537 7.38392C8.88537 7.38392 9.08378 7.03121 9.20952 6.82609C9.33539 6.62097 9.53231 6.41756 9.53231 6.41756C9.53231 6.41756 9.27396 5.93722 9.28825 5.41155C9.28825 5.41155 9.41543 5.46933 9.52929 5.48585C9.52929 5.48585 9.52149 5.09655 9.77353 4.73744C10.025 4.37776 10.2789 4.15271 10.2789 4.15271C10.2789 4.15271 10.2597 3.67973 10.5462 3.23155C10.5462 3.23155 10.3279 2.8816 10.3092 2.65786C10.3092 2.65786 10.6726 2.62522 10.9475 2.54593C11.2227 2.46672 11.3575 2.41108 11.4975 2.24245C11.6371 2.07483 11.9724 1.66455 12.3966 1.46381C12.8212 1.26347 13.2914 1.19061 13.6292 1.21729C13.6292 1.21729 13.422 1.03947 13.1929 0.965168C13.1929 0.965168 13.5837 0.677291 14.3528 0.595104C14.3528 0.595104 14.3586 0.205237 14.4417 3.05176e-05C14.4417 3.05176e-05 15.463 0.699328 15.9751 0.900153C16.4878 1.10098 16.8602 1.16591 17.126 1.29681C17.3907 1.42666 17.579 1.66736 17.6222 1.81557C17.6222 1.81557 17.9084 1.92562 18.1275 2.0797C18.3462 2.23343 18.4732 2.60459 18.4732 2.60459C18.4732 2.60459 18.8871 2.7698 19.316 3.03068C19.7443 3.29171 20.2704 3.84209 20.2704 3.84209C20.2704 3.84209 19.9389 3.98815 19.6574 4.39528C19.6574 4.39528 19.5279 4.84714 19.3145 5.06974" fill="#B0B7BC"/>
<path d="M18.715 5.25839C18.715 5.25839 18.908 5.25458 19.077 5.30172C19.2468 5.34916 19.3539 5.4048 19.3539 5.4048C19.3539 5.4048 19.4786 5.32559 19.5421 5.27061C19.605 5.21471 19.7944 5.11675 19.9633 5.14413C20.133 5.17173 20.2528 5.29269 20.2841 5.34425C20.2841 5.34425 20.4287 5.35302 20.5626 5.34553C20.6967 5.3372 20.945 5.38447 21.1417 5.54236C21.3397 5.70004 21.52 5.93306 21.2798 6.24411C21.2798 6.24411 21.3313 6.44144 21.2603 6.58321C21.1894 6.72568 21.006 6.80318 21.006 6.80318C21.006 6.80318 20.8931 7.13968 20.6295 7.22621C20.3654 7.31339 20.0341 7.15077 20.0341 7.15077C20.0341 7.15077 19.7234 7.22621 19.4984 7.2107C19.2739 7.19462 19.0283 7.00483 19.0283 7.00483C19.0283 7.00483 18.9743 7.03703 18.9236 7.11151C18.8718 7.18678 18.4851 7.72915 18.395 7.8247C18.395 7.8247 18.7734 8.19253 19.1477 8.34586C19.5222 8.49942 19.7112 8.52391 19.8104 8.55085C19.9083 8.57889 20.1251 8.70099 20.2044 8.938C20.2044 8.938 20.445 8.87807 20.6022 8.89038C20.76 8.90203 20.9136 8.93336 21.1894 9.21725C21.4652 9.50122 21.4024 9.75804 21.359 9.87589C21.3157 9.99347 21.1517 10.0956 21.1517 10.0956C21.1517 10.0956 21.138 10.3334 20.996 10.4597C20.8539 10.5854 20.6616 10.5638 20.6616 10.5638C20.6616 10.5638 20.5862 10.7075 20.3895 10.7674C20.1919 10.8266 19.9793 10.7234 19.8801 10.6448C19.8801 10.6448 19.4745 10.6805 19.2109 10.5501C18.9474 10.4201 18.8233 10.1648 18.8233 10.1648C18.8233 10.1648 18.376 9.98182 17.9107 9.97801C17.4459 9.97424 16.5454 9.72264 16.2504 9.50727C16.2504 9.50727 15.8026 9.71138 15.4418 9.71677C15.4418 9.71677 15.3304 9.37877 14.9401 9.14417C14.9401 9.14417 14.1039 9.60786 13.8044 9.74586C13.5051 9.88386 12.978 9.93389 12.9009 9.94222C12.9009 9.94222 12.9336 10.0688 12.8948 10.2741C12.854 10.479 12.7287 10.8817 12.6224 11.0157C12.5154 11.1497 12.2199 11.315 12.0469 11.3783C11.8736 11.4414 11.657 11.4969 11.4749 11.587C11.2942 11.678 11.0734 11.8625 10.9768 11.9496C10.9768 11.9496 11.2558 12.0203 11.34 12.0166C11.4238 12.0133 11.5739 11.9298 11.6846 11.8871C11.7952 11.8433 12.106 11.7841 12.3544 11.9697C12.6027 12.1549 12.7326 12.3951 12.7241 12.5772C12.7171 12.7583 12.5995 12.8901 12.426 12.9798C12.426 12.9798 12.3742 13.2359 12.1578 13.3145C11.94 13.3931 11.5795 13.3218 11.5795 13.3218C11.5795 13.3218 11.4084 13.4329 11.2034 13.4443C10.9986 13.4564 10.723 13.279 10.6796 13.2554C10.6357 13.2314 10.5928 13.2082 10.5176 13.2082C10.4423 13.2082 9.6314 13.2753 9.37905 13.2753C9.1271 13.2753 8.95374 13.1526 8.8472 12.9557C8.74074 12.7583 8.89 12.4429 8.98524 12.3174C9.07922 12.1904 9.2297 12.0169 9.24854 11.9813C9.26843 11.9458 9.27295 11.8871 9.22151 11.8514C9.17021 11.8159 9.0057 11.7348 9.0057 11.7348C9.0057 11.7348 8.75642 12.2342 8.66206 12.4034C8.56721 12.5729 8.44498 12.7621 8.20889 12.9081C7.97209 13.0542 7.47134 13.2753 7.20795 13.4367C6.94347 13.5981 6.78698 13.7471 6.78698 13.7471C6.78698 13.7471 6.7897 14.2224 6.80403 14.2809C6.80403 14.2809 7.04196 14.3278 7.13711 14.4105C7.23183 14.4937 7.32585 14.6277 7.32186 14.8129C7.31858 14.9982 7.29378 15.2162 7.06303 15.3024C7.06303 15.3024 6.99859 15.5423 6.81769 15.6132C6.63623 15.6843 6.45074 15.6213 6.45074 15.6213C6.45074 15.6213 6.20299 15.747 5.94276 15.6922C5.68284 15.6371 5.46598 15.3693 5.46199 15.0966C5.45822 14.8242 5.50497 13.8389 5.50497 13.7751C5.50497 13.7121 5.50497 13.6453 5.45822 13.5588C5.41069 13.472 5.30002 13.2554 5.32832 13.117C5.35579 12.979 5.49734 12.8171 5.62746 12.7065C5.7574 12.5964 5.9156 12.4863 5.99411 12.265C6.07257 12.0449 6.1396 11.7411 6.14788 11.508C6.15581 11.2758 6.18402 10.5187 6.23506 10.3137C6.23506 10.3137 5.25687 10.0965 4.8157 9.59187C4.37462 9.08695 4.29949 8.68456 4.17345 8.14456C4.04727 7.60407 3.88627 7.1909 3.37251 6.92203C3.37251 6.92203 3.09721 7.05618 2.74331 6.90249C2.38831 6.74859 2.19498 6.34637 2.00629 6.20385C1.81707 6.0623 1.30217 5.98082 1.19922 5.98375C1.19922 5.98375 1.81269 5.55779 2.23476 5.43157C2.65626 5.30553 3.11394 5.26614 3.4012 5.49514C3.6886 5.72295 3.73193 6.11794 3.73193 6.11794C3.73193 6.11794 4.32341 6.3624 4.66644 6.78407C5.00939 7.20632 5.11085 7.60008 5.17814 7.86448C5.24544 8.1287 5.45336 8.65691 5.78689 8.88998C6.12054 9.12323 6.51168 9.22123 6.71553 9.23503C6.71553 9.23503 7.29089 8.63356 7.48808 8.50323C7.68448 8.37316 7.90546 8.32155 7.99947 8.29421C8.09445 8.267 8.42215 8.15827 8.42215 8.15827C8.42215 8.15827 9.00207 7.65861 9.11348 7.57239C9.11348 7.57239 9.44981 6.98928 9.54431 6.85088C9.63937 6.71315 9.89312 6.38882 9.89312 6.38882C9.89312 6.38882 9.66062 6.12329 9.66356 5.77955C9.66356 5.77955 9.80055 5.8068 9.88725 5.7983C9.88725 5.7983 9.77334 5.60523 9.82868 5.33295C9.88397 5.06089 10.1787 4.61902 10.5731 4.27958C10.5731 4.27958 10.5575 3.99219 10.64 3.72078C10.7231 3.44815 10.8911 3.23059 10.8911 3.23059C10.8911 3.23059 10.7113 3.00795 10.6829 2.83336C10.6829 2.83336 11.0226 2.80147 11.2592 2.72309C11.4954 2.64353 11.6847 2.476 11.6847 2.476C11.6847 2.476 12.1373 1.85092 12.6888 1.65369C13.2414 1.45646 13.804 1.5174 13.804 1.5174C13.804 1.5174 14.0831 1.33571 14.1981 1.29572C14.1981 1.29572 13.9791 1.04902 13.7974 0.973098C13.7974 0.973098 14.2229 0.844515 14.6148 0.874613C14.6148 0.874613 14.622 0.601807 14.6665 0.44339C14.6665 0.44339 15.3496 0.936517 15.6612 1.07404C15.9723 1.21204 16.5669 1.40936 16.7685 1.47271C16.9693 1.53562 17.3101 1.66666 17.3821 2.03076C17.3821 2.03076 17.7135 2.1703 17.844 2.24149C17.9742 2.31272 18.1083 2.48231 18.1356 2.55333C18.1625 2.62382 18.19 2.71148 18.2239 2.76612C18.258 2.82127 18.3163 2.86031 18.3717 2.87967C18.427 2.89991 18.9745 3.14428 19.2273 3.33354C19.4788 3.52355 19.8225 3.85037 19.8225 3.85037C19.8225 3.85037 19.4806 4.12322 19.3965 4.24909C19.3965 4.24909 19.2942 4.59225 19.1288 4.83623C18.9627 5.08069 18.7152 5.17611 18.7152 5.17611V5.25839" fill="#FFFFFE"/>
<path d="M17.9817 7.83612C17.9817 7.83612 17.0851 8.7401 16.2758 9.17653C16.2758 9.17653 15.8988 9.35476 15.6059 9.39681C15.6059 9.39681 15.3756 8.95687 14.915 8.82058C14.915 8.82058 13.9395 8.44692 12.5291 8.7408C12.5291 8.7408 13.8709 8.64262 14.5431 9.03047C14.2368 9.20011 13.8181 9.42485 13.5961 9.51159C13.2192 9.65845 12.7279 9.64824 12.5387 9.67961C12.5387 9.67961 12.6332 10.0146 12.6224 10.1193C12.6122 10.2237 12.5076 10.7481 12.33 10.8946C12.1517 11.0408 11.6911 11.1874 11.4505 11.2719C11.2099 11.3551 10.6758 11.6904 10.5082 12.1512C10.5082 12.1512 11.1365 12.2879 11.3038 12.308C11.4714 12.3288 11.6283 12.2348 11.7438 12.1828C11.8587 12.13 12.005 12.0985 12.1623 12.193C12.3191 12.2879 12.3927 12.4237 12.4239 12.5284C12.4554 12.633 12.3407 12.7269 12.1517 12.7589C12.1517 12.7589 12.1728 12.9789 12.0579 13.0309C11.9424 13.0832 11.6599 13.0522 11.5024 12.9992C11.5024 12.9992 11.3986 13.1466 11.1784 13.1466C10.9588 13.1466 10.8118 12.9158 10.5819 12.9054C10.3517 12.895 9.62935 12.9892 9.3675 12.9685C9.10565 12.9473 9.08506 12.7904 9.13737 12.6433C9.1899 12.4972 9.51405 12.1724 9.56649 12.0253C9.61179 11.8977 9.65192 11.6745 9.12917 11.4665C9.15169 11.4387 9.52837 10.9735 10.1202 10.6164C10.6997 10.2675 11.275 9.94155 11.949 9.72688C11.6772 9.75321 11.2607 9.8545 10.717 10.084C9.89993 10.4302 9.42967 10.8771 9.42967 10.8771C9.42967 10.8771 9.49013 10.641 10.1964 10.013L10.1891 10.018C9.22363 10.4581 8.82018 11.4517 8.81295 11.4671C8.6912 11.7153 8.35435 12.392 8.22638 12.5284C8.06976 12.6959 7.63034 12.8531 7.30606 13.0413C6.98094 13.23 6.56229 13.4712 6.50994 13.6279C6.4575 13.7853 6.52133 14.4969 6.5414 14.5395C6.5414 14.5395 6.90813 14.5707 6.98094 14.6649C7.05411 14.759 7.04456 14.9474 7.00153 15C6.96027 15.053 6.80303 15.053 6.80303 15.053C6.80303 15.053 6.8135 15.2615 6.70875 15.3245C6.60422 15.388 6.37404 15.2937 6.37404 15.2937C6.37404 15.2937 6.31096 15.388 6.15433 15.4083C5.99754 15.4296 5.88214 15.3672 5.8088 15.2516C5.73551 15.1362 5.76732 14.9792 5.76732 14.8531C5.76732 14.7276 5.8191 13.8477 5.7982 13.6382C5.77792 13.4293 5.59943 13.2826 5.63089 13.146C5.66235 13.0102 6.04932 12.7896 6.17475 12.5594C6.30079 12.3288 6.41593 12.0252 6.44681 11.4916C6.47827 10.9573 6.47827 10.4646 6.56225 10.1925C6.57298 10.1583 6.58328 10.1259 6.59261 10.0942C6.25251 10.0301 5.52448 9.8297 5.18407 9.53166C4.80086 9.19739 4.62987 8.86281 4.54808 8.43084C4.46659 7.998 4.29192 7.51017 4.11655 7.1989C3.93351 6.87663 3.37445 6.58736 3.37445 6.58736C3.37445 6.58736 3.12495 6.78849 2.79694 6.60628C2.43021 6.4034 2.39245 6.27836 2.26404 6.10873C2.14983 5.95907 1.926 5.91434 1.86523 5.90422C2.63366 5.60448 3.01407 6.0176 3.01407 6.0176C3.01407 6.0176 2.9947 5.80986 2.69881 5.7335C2.60979 5.70979 2.49939 5.68307 2.37808 5.6719C2.43604 5.64964 2.48909 5.63177 2.52817 5.62174C2.65758 5.58936 2.96246 5.55751 3.19461 5.71431C3.41055 5.86028 3.48787 6.30185 3.48787 6.30185C3.59376 6.36703 4.22139 6.67953 4.4255 6.94055C4.62987 7.20192 4.77651 7.46833 4.86601 7.81899C4.95582 8.17 5.07779 8.68402 5.59939 9.11638C5.99986 9.44737 6.59099 9.52483 6.84509 9.54279C6.85538 9.52894 6.86524 9.51532 6.87628 9.50126C7.05402 9.27064 7.5882 8.76831 7.7446 8.69533C7.90161 8.62186 8.53011 8.46396 8.6035 8.39128C8.67705 8.31856 9.2946 7.8253 9.34656 7.75218C9.39918 7.67946 9.68166 7.17616 9.84893 6.92439C10.0162 6.67322 10.4355 6.213 10.4355 6.213C10.4355 6.213 10.08 6.20187 9.98623 6.04477C9.98623 6.04477 10.374 5.87408 10.4087 5.6542C10.4286 5.52426 10.3392 5.43081 10.0763 5.53889C10.0763 5.53889 10.1103 5.29084 10.3302 4.97676C10.5508 4.6626 10.9666 4.31379 11.1364 4.19125C11.3464 4.03962 11.4191 3.84589 11.3666 3.7411C11.3141 3.63582 11.0837 3.6254 10.9264 3.80401C10.9264 3.80401 11.0736 3.36389 11.3455 3.17586C11.3455 3.17586 11.1462 3.13358 11.0736 2.976C11.0736 2.976 11.3769 2.98673 11.5865 2.87112C11.796 2.75651 12.3406 2.4112 12.5493 2.40055C12.5493 2.40055 12.3818 2.31622 12.1204 2.4112C12.1204 2.4112 12.5213 1.92916 13.1357 1.83479C13.7506 1.74047 14.2972 1.90795 14.5484 1.79282C14.5484 1.79282 14.4333 1.64662 14.161 1.64662C14.161 1.64662 14.4964 1.44707 14.7057 1.44707C14.7057 1.44707 14.5279 1.23757 14.2761 1.14316C14.2761 1.14316 14.8204 1.16436 15.0197 1.25869C15.0197 1.25869 14.8829 1.10171 14.9047 0.923187C14.9047 0.923187 15.3234 1.30017 15.9404 1.50998C16.558 1.71944 16.9352 1.79277 17.0398 1.96004C17.1445 2.12775 17.0819 2.22203 17.0819 2.22203C17.0819 2.22203 17.5316 2.4112 17.6888 2.49391C17.8458 2.5782 17.9084 2.76672 17.9292 2.83007C17.9503 2.8921 18.0554 3.07067 18.1386 3.10222C18.2225 3.13358 18.6832 3.33261 18.9338 3.48967C19.1854 3.64691 19.4259 3.86679 19.4259 3.86679C19.4259 3.86679 19.1854 4.00256 19.1337 4.11809C19.0809 4.23304 18.9759 4.78799 18.5258 4.93466C18.5258 4.93466 18.6617 4.70426 18.5584 4.47404C18.5584 4.47404 18.0237 4.44246 17.6465 4.67334C17.6465 4.67334 17.5787 5.12379 17.8194 5.24992C18.0601 5.3753 18.3371 4.99735 18.3691 4.91363C18.3691 4.91363 18.3611 5.12589 18.3691 5.26902L18.4333 5.2794C18.4485 5.43046 18.4213 5.64715 18.4213 5.64715C18.4213 5.64715 18.599 5.51085 18.8927 5.56325C19.1854 5.61525 19.2586 5.70979 19.3533 5.70979C19.4476 5.70979 19.6353 5.58432 19.6977 5.52132C19.7612 5.45863 19.8663 5.41627 19.9601 5.44799C20.0542 5.4794 20.1066 5.62625 20.1066 5.62625C20.1066 5.62625 20.4631 5.65766 20.5779 5.63633C20.6927 5.61521 20.9229 5.74143 20.9858 5.79347C21.0485 5.846 21.1222 5.93003 21.1004 5.99316C21.0801 6.05533 20.933 6.14987 20.933 6.14987C20.933 6.14987 21.0171 6.31749 21.0064 6.42189C20.9961 6.52685 20.7762 6.56843 20.7762 6.56843C20.7762 6.56843 20.7031 6.8514 20.567 6.92426C20.4316 6.99786 20.0435 6.84093 20.0435 6.84093C20.0435 6.84093 19.813 6.92426 19.5519 6.91449C19.2903 6.90397 19.1432 6.70472 19.1432 6.70472C19.1432 6.70472 18.9446 6.67309 18.787 6.80952C18.6311 6.94603 18.3065 7.54286 17.9817 7.83599V7.83612ZM15.7889 6.07465C16.1604 6.47498 15.8937 6.83988 15.8937 6.83988C16.2803 6.75918 17.3745 6.3595 17.9712 5.87746C17.9712 5.87746 17.5396 5.64715 17.228 5.62958C16.9503 5.61376 16.7794 5.91807 16.7603 6.21817C16.5365 6.35516 16.2167 6.41877 16.2167 6.41877L16.2176 6.41304C16.2253 6.36458 16.2644 6.00508 15.8273 5.78072C15.3706 5.54612 14.4805 5.39559 13.5193 5.91592C14.4805 5.55449 15.49 5.75347 15.7889 6.07469V6.07465ZM11.9674 5.95627C12.5882 5.80924 12.9789 5.45552 13.3093 5.29412C13.6882 5.10863 14.1927 4.93834 14.8559 5.03652C14.8559 5.03652 13.9119 4.63986 13.0188 5.11446C12.1258 5.58853 11.6989 5.84333 10.7978 5.87509C10.7978 5.87509 11.3123 6.11114 11.9674 5.95623V5.95627ZM14.2214 4.05233C13.2903 3.88252 12.6723 4.48083 12.6723 4.48083C12.6723 4.48083 13.3731 4.20027 14.1201 4.27874C14.866 4.3572 15.5662 4.92148 15.5662 4.92148C15.5662 4.92148 15.1523 4.22244 14.2214 4.05233ZM17.3699 3.062C17.2777 3.062 16.9473 3.13775 16.9473 3.13775C16.9473 3.13775 17.2688 3.20565 17.3539 3.26497C17.4384 3.32411 17.7084 3.52735 17.7084 3.52735C17.7084 3.52735 17.6414 3.44266 17.6573 3.40039C17.6746 3.35837 17.7927 3.19667 17.7927 3.19667C17.6573 3.1883 17.4631 3.06195 17.3699 3.06195L17.3699 3.062ZM21.1004 9.65845C21.1321 9.79452 20.9858 9.8785 20.8602 9.8785C20.8602 9.8785 20.8918 10.1716 20.7865 10.245C20.682 10.3181 20.4833 10.2131 20.4833 10.2131C20.4833 10.2131 20.4728 10.423 20.3158 10.4751C20.159 10.5274 19.9705 10.339 19.9705 10.339C19.9705 10.339 19.6037 10.4024 19.3533 10.2867C19.102 10.1716 19.0493 9.94142 19.0493 9.94142C19.0493 9.94142 18.6407 9.75312 18.2433 9.71132C17.9025 9.67483 17.1669 9.63759 16.5443 9.34047C16.8023 9.18758 17.1828 8.94864 17.4811 8.70264C17.7678 8.46593 18.0266 8.21245 18.1944 8.03861C18.3826 8.20969 18.6617 8.44171 18.8927 8.54856C19.2796 8.72639 19.5626 8.80016 19.6878 8.82053C19.813 8.84117 19.9079 8.97794 19.9386 9.05097C19.9705 9.12427 20.0963 9.23923 20.2428 9.22919C20.3895 9.21846 20.578 9.13483 20.7451 9.22919C20.9121 9.32339 21.0696 9.52198 21.1004 9.65845Z" fill="#0076B6"/>
</g>
<defs>
<clipPath id="clip0_879_4009">
<rect width="20.989" height="16" fill="white" transform="translate(0.696289)"/>
</clipPath>
</defs>
</svg>
