<svg width="41" height="16" viewBox="0 0 41 16" fill="none" xmlns="http://www.w3.org/2000/svg">
<g clip-path="url(#clip0_781_491)">
<g clip-path="url(#clip1_781_491)">
<path d="M0.236328 10.3694H5.0865L4.80776 10.7596H0.236328V10.3694Z" fill="#D40511"/>
<path d="M40.2361 10.7596H34.2988L34.6055 10.3694H40.264V10.7596H40.2361Z" fill="#D40511"/>
<path d="M0.236328 9.64462H5.64399L5.33737 10.0349H0.236328L0.236328 9.64462Z" fill="#D40511"/>
<path d="M0.236328 8.91986H6.20148L5.89486 9.3101H0.236328L0.236328 8.91986Z" fill="#D40511"/>
<path d="M40.2362 10.0349H34.8564L35.1631 9.64462H40.2641V10.0349H40.2362Z" fill="#D40511"/>
<path d="M35.6929 8.91986H40.2364V9.3101H35.3862L35.6929 8.91986Z" fill="#D40511"/>
<path d="M5.47656 10.7596L8.04102 7.33102H11.2187C11.5811 7.33102 11.5811 7.4704 11.386 7.69339C11.2187 7.91639 10.9121 8.33451 10.7449 8.55751C10.6612 8.69688 10.494 8.892 11.0236 8.892H15.2884C14.9539 9.39374 13.7832 10.7875 11.7205 10.7875C10.048 10.7596 5.47656 10.7596 5.47656 10.7596Z" fill="#D40511"/>
<path d="M20.1669 8.91986L18.7731 10.7875H15.1216L16.5153 8.91986H20.1669Z" fill="#D40511"/>
<path d="M25.4906 8.91986L24.0969 10.7875H20.4175L21.8112 8.91986H25.4906Z" fill="#D40511"/>
<path d="M26.6893 8.91986C26.6893 8.91986 26.4106 9.28223 26.2991 9.44948C25.8252 10.0627 26.2433 10.7875 27.7485 10.7875H33.658L35.0517 8.91986H26.6893Z" fill="#D40511"/>
<path d="M7.28858 5.21257L6.00635 6.91292H12.975C13.3374 6.91292 13.3374 7.05229 13.1422 7.27528C12.975 7.49828 12.6684 7.9164 12.5011 8.1394C12.4175 8.25089 12.2503 8.47389 12.7799 8.47389H15.6231C15.6231 8.47389 16.0969 7.86065 16.4593 7.33103C16.9889 6.63417 16.5151 5.18469 14.6475 5.18469C12.975 5.21257 7.28858 5.21257 7.28858 5.21257Z" fill="#D40511"/>
<path d="M25.7974 8.47388H16.8218L19.2747 5.21255H22.9542L21.5605 7.08015H23.2051L24.5988 5.21255H28.2782L25.7974 8.47388Z" fill="#D40511"/>
<path d="M33.3515 5.21255L30.8985 8.47388H26.9961L29.4491 5.21255H33.3515Z" fill="#D40511"/>
</g>
</g>
<defs>
<clipPath id="clip0_781_491">
<rect width="40" height="16" fill="white" transform="translate(0.236328)"/>
</clipPath>
<clipPath id="clip1_781_491">
<rect width="40" height="5.57491" fill="white" transform="translate(0.236328 5.21255)"/>
</clipPath>
</defs>
</svg>
