<svg width="41" height="16" viewBox="0 0 41 16" fill="none" xmlns="http://www.w3.org/2000/svg">
<g clip-path="url(#clip0_857_289)">
<g clip-path="url(#clip1_857_289)">
<path d="M6.00199 5.19586C7.41205 5.19586 8.55509 6.37248 8.55509 7.82396C8.55509 9.27544 7.41205 10.4521 6.00199 10.4521H2.931L5.89372 5.19586H2.75299L0.662109 10.4518L5.89372 5.19586H6.00199Z" fill="#00303C"/>
<path d="M14.807 7.15657C14.2164 7.15657 13.6537 7.67847 13.6537 8.43538C13.6537 9.19226 14.2164 9.71439 14.807 9.71439C15.3976 9.71439 15.9603 9.18666 15.9603 8.43538C15.9603 7.68408 15.3976 7.15657 14.807 7.15657ZM14.807 9.56521C14.4281 9.56521 14.1664 9.18105 14.1664 8.43538C14.1664 7.68969 14.4283 7.29971 14.807 7.29971C15.1856 7.29971 15.4478 7.68387 15.4478 8.43538C15.4478 9.18688 15.1858 9.56521 14.807 9.56521ZM32.4862 7.15657C31.8957 7.15657 31.333 7.67847 31.333 8.43538C31.333 9.19226 31.8957 9.71439 32.4862 9.71439C33.077 9.71439 33.6397 9.18666 33.6397 8.43538C33.6397 7.68408 33.077 7.15657 32.4862 7.15657ZM32.4862 9.56521C32.1075 9.56521 31.8458 9.18105 31.8458 8.43538C31.8458 7.68969 32.1077 7.29971 32.4862 7.29971C32.865 7.29971 33.1271 7.68387 33.1271 8.43538C33.1271 9.18688 32.8652 9.56521 32.4862 9.56521ZM11.4235 6.18151H10.5322V9.65704H11.3957C12.5211 9.65704 13.3791 8.91157 13.3791 7.86193C13.3791 6.81229 12.5657 6.18151 11.4235 6.18151ZM11.3789 9.50227H11.3232C11.1394 9.50227 11.0447 9.46217 11.0447 9.23279V6.3363H11.3735C12.3096 6.3363 12.8277 6.84678 12.8277 7.89622C12.8277 8.99738 12.2539 9.50205 11.3791 9.50205L11.3789 9.50227ZM31.0689 9.65704H30.5699L30.2596 6.48548L29.1452 9.71439H29.1062L28.0086 6.48548L27.7116 9.65704H27.5177L27.8509 6.18151H28.4264L29.2901 8.78526L30.1871 6.18151H30.6886L31.0687 9.65704H31.0689ZM22.1348 9.4792C22.04 9.4792 21.9508 9.39317 21.9508 9.21533V8.00508C21.9508 7.47173 21.6388 7.15634 21.1597 7.15634C20.714 7.15634 20.3573 7.46592 20.2124 7.89039L20.3239 7.93632C20.4577 7.62091 20.6747 7.43165 20.9366 7.43165C21.3098 7.43165 21.4605 7.71253 21.4605 8.05099V8.25171L20.8865 8.46383C20.4687 8.63024 20.179 8.80789 20.179 9.16359C20.179 9.5193 20.4575 9.71417 20.7639 9.71417C21.0703 9.71417 21.3208 9.51347 21.4659 9.31838C21.5272 9.56499 21.7166 9.71417 21.9506 9.71417C22.1566 9.71417 22.3183 9.58224 22.4185 9.42164L22.3516 9.34705C22.2738 9.43888 22.2235 9.47898 22.1346 9.47898L22.1348 9.4792ZM21.4606 9.22115C21.3378 9.36451 21.1821 9.45634 21.026 9.45634C20.7921 9.45634 20.636 9.29574 20.636 9.04912C20.636 8.78526 20.8032 8.65331 21.015 8.57312L21.4608 8.40109V9.22115H21.4606ZM37.812 9.42768C37.2493 9.42768 36.8704 8.91718 36.8704 8.2463V8.14306H38.4194C38.4194 7.66705 38.135 7.15657 37.4944 7.15657C36.9485 7.15657 36.4079 7.70715 36.4079 8.45845C36.4079 9.20972 36.9429 9.71439 37.5836 9.71439C37.9176 9.71439 38.2465 9.54235 38.4583 9.20391L38.397 9.14074C38.2465 9.33584 38.0569 9.42768 37.812 9.42768ZM37.4888 7.30552C37.8008 7.30552 37.9455 7.59807 37.9623 8.0053H36.887C36.9483 7.55236 37.1824 7.30552 37.4888 7.30552ZM40.6623 7.2139L39.2333 10.8041H39.0481L39.5562 9.52706L38.565 7.2139H39.0868L39.7859 8.94975L40.4769 7.2139H40.6623ZM19.7784 9.65704H19.2878V8.09131C19.2878 7.67266 19.1318 7.44911 18.8141 7.44911C18.5802 7.44911 18.4017 7.63278 18.3127 7.82184C18.3184 7.87919 18.3238 7.93652 18.3238 7.99386V9.65704H17.8336V8.09131C17.8336 7.67266 17.6832 7.44911 17.3601 7.44911C17.1316 7.44911 16.9534 7.61553 16.8698 7.8046V9.65704H16.3795V7.63256C16.3795 7.35145 16.3127 7.3342 16.051 7.3342V7.2139H16.8698V7.68991C16.9758 7.46635 17.2376 7.15657 17.6221 7.15657C18.0066 7.15657 18.2237 7.39176 18.2962 7.71857C18.4022 7.49503 18.675 7.15657 19.0763 7.15657C19.5722 7.15657 19.7784 7.53512 19.7784 7.99386V9.65704ZM23.2009 6.37079C23.2009 6.54282 23.0672 6.67475 22.8945 6.67475C22.733 6.67475 22.5937 6.54282 22.5937 6.37079C22.5937 6.19876 22.733 6.061 22.8945 6.061C23.0672 6.061 23.2009 6.19854 23.2009 6.37079ZM23.1562 9.65704H22.6662V7.63256C22.6662 7.35145 22.5993 7.3342 22.3374 7.3342V7.2139H23.1562V9.65704ZM25.8472 7.99386V9.65704H25.3571V8.09131C25.3571 7.67266 25.1843 7.44911 24.8613 7.44911C24.6327 7.44911 24.4435 7.61553 24.3599 7.8046V8.18531L24.3597 9.65704H23.8698V8.30646V7.63256C23.8698 7.35145 23.803 7.3342 23.5409 7.3342V7.2139H24.3599V7.68991C24.4659 7.46635 24.7443 7.15657 25.1232 7.15657C25.6192 7.15657 25.8474 7.53512 25.8474 7.99386H25.8472ZM36.0368 7.99386V9.65704H35.5468V8.09131C35.5468 7.67266 35.3741 7.44911 35.0509 7.44911C34.8225 7.44911 34.6331 7.61553 34.5495 7.8046V9.65704H34.0594V7.63256C34.0594 7.35145 33.9922 7.3342 33.7305 7.3342V7.2139H34.5493V7.68991C34.6553 7.46635 34.9339 7.15657 35.3126 7.15657C35.8086 7.15657 36.0368 7.53512 36.0368 7.99386Z" fill="#00303C"/>
</g>
</g>
<defs>
<clipPath id="clip0_857_289">
<rect width="40" height="16" fill="white" transform="translate(0.662109)"/>
</clipPath>
<clipPath id="clip1_857_289">
<rect width="40" height="5.60827" fill="white" transform="translate(0.662109 5.19586)"/>
</clipPath>
</defs>
</svg>
