<svg width="17" height="16" viewBox="0 0 17 16" fill="none" xmlns="http://www.w3.org/2000/svg">
<g clip-path="url(#clip0_768_917)">
<path d="M16.6476 4.63069L12.3013 0.284502C12.1179 0.101058 11.874 4.77614e-07 11.6145 4.77614e-07C11.3551 4.77614e-07 11.1112 0.101017 10.9277 0.284502L7.28292 3.92929L1.21638 9.99582C0.837696 10.3746 0.837713 10.9907 1.21638 11.3694L5.56254 15.7156C5.74602 15.899 5.98991 16 6.24936 16C6.50874 16 6.75267 15.899 6.93611 15.7156L12.3738 10.2778L16.6475 6.00418C17.0261 5.62554 17.0261 5.00942 16.6476 4.63069Z" fill="white"/>
<path d="M12.5178 6.19624C12.2717 6.44195 11.9486 6.56458 11.6275 6.56458C11.3059 6.56454 10.9834 6.44195 10.7371 6.19624C10.4917 5.95062 10.368 5.62774 10.368 5.30618C10.368 4.98396 10.4917 4.66096 10.7371 4.41595C10.9834 4.17037 11.3054 4.04658 11.6275 4.04662C11.9486 4.04662 12.2717 4.16933 12.5178 4.416C12.7628 4.66096 12.8869 4.98401 12.8868 5.30618C12.8869 5.62732 12.7629 5.95053 12.5178 6.19624ZM16.34 4.93967L11.9938 0.593519C11.7843 0.383993 11.4446 0.383993 11.235 0.593519L6.53589 5.29268L11.6408 10.3976L16.34 5.69845C16.5496 5.48896 16.5496 5.14923 16.34 4.93967Z" fill="#E21737"/>
<path d="M7.2015 9.82553C7.44717 9.57912 7.7698 9.45649 8.09148 9.45649C8.41357 9.45641 8.73616 9.57912 8.9815 9.82553C9.22833 10.071 9.35128 10.3928 9.35124 10.7157C9.35124 11.0374 9.22829 11.36 8.9815 11.605C8.73616 11.8498 8.41353 11.9733 8.09148 11.9737C7.76955 11.9737 7.44717 11.8499 7.20154 11.605C6.95554 11.3592 6.83258 11.0366 6.83258 10.7157C6.83258 10.3936 6.95558 10.0711 7.2015 9.82553ZM5.2874 11.5549C5.04099 11.7995 4.7184 11.9224 4.39684 11.9224C4.07444 11.9223 3.75215 11.7996 3.50637 11.5549C3.2602 11.3097 3.13818 10.9869 3.13816 10.6652C3.13816 10.3431 3.26081 10.0206 3.5064 9.77399C3.75218 9.52869 4.07444 9.4061 4.39684 9.40594C4.7184 9.4061 5.0415 9.52869 5.28736 9.77415C5.53299 10.0206 5.65541 10.3431 5.65512 10.6648C5.65512 10.9866 5.53299 11.3099 5.2874 11.5549ZM1.52363 10.3032C1.31407 10.5128 1.31407 10.8525 1.52361 11.062L5.86978 15.4082C5.97456 15.513 6.11185 15.5653 6.24921 15.5653C6.3865 15.5653 6.52386 15.513 6.6286 15.4082L11.3255 10.7113L6.22048 5.60632L1.52363 10.3032Z" fill="#006391"/>
<path d="M7.72737 15.4083H7.77382C7.82147 15.4083 7.837 15.3945 7.837 15.3665C7.837 15.3422 7.82507 15.3284 7.78036 15.3284H7.72737V15.4083ZM7.72737 15.5512H7.68808V15.2962H7.78579C7.84652 15.2962 7.87633 15.3189 7.87633 15.3689C7.87633 15.4148 7.84772 15.4345 7.80959 15.4392L7.88225 15.5512H7.8394L7.77146 15.4404H7.72737V15.5512ZM7.77444 15.2385C7.67194 15.2385 7.5927 15.3177 7.5927 15.4232C7.5927 15.531 7.67194 15.6091 7.77444 15.6091C7.87571 15.6091 7.95499 15.531 7.95499 15.4232C7.95499 15.3177 7.87571 15.2385 7.77444 15.2385ZM7.77444 15.2027C7.89479 15.2027 7.99788 15.2962 7.99788 15.4232C7.99788 15.5512 7.89479 15.6449 7.77444 15.6449C7.65289 15.6449 7.5498 15.5512 7.5498 15.4232C7.5498 15.2962 7.65289 15.2027 7.77444 15.2027Z" fill="#006391"/>
</g>
<defs>
<clipPath id="clip0_768_917">
<rect width="15.9991" height="16" fill="white" transform="translate(0.932617)"/>
</clipPath>
</defs>
</svg>
