<svg width="27" height="16" viewBox="0 0 27 16" fill="none" xmlns="http://www.w3.org/2000/svg">
<g clip-path="url(#clip0_5_35)">
<path d="M0.463867 6.21282C0.463867 6.15091 0.501011 6.11377 0.569108 6.11377C0.87245 6.11377 1.17579 6.20044 1.32437 6.26234C1.39246 6.2933 1.42961 6.29949 1.52247 6.26234C1.71438 6.18187 2.04867 6.11377 2.38916 6.11377C4.51255 6.11377 5.44115 7.35809 5.44115 9.45672C5.44115 11.5553 4.39493 13.1897 1.83819 13.1897H1.62152C0.804353 13.1897 0.463867 12.8492 0.463867 12.2116V6.21282ZM1.6339 12.4778C1.6339 12.5582 1.66485 12.5954 1.74533 12.5954C3.39204 12.5954 4.18445 11.3758 4.18445 9.45672C4.18445 7.53762 3.59014 6.76379 2.10439 6.76379C0.618633 6.76379 1.6339 6.8195 1.6339 7.00522V12.4716V12.4778Z" fill="#001E60"/>
<path d="M5.83105 10.5464C5.83105 8.79446 6.82775 7.89062 8.14017 7.89062C9.45258 7.89062 10.4555 8.80065 10.4555 10.5464C10.4555 12.2922 9.45877 13.2022 8.14017 13.2022C6.82156 13.2022 5.83105 12.2922 5.83105 10.5464ZM9.27924 10.5464C9.27924 9.02351 8.7778 8.4354 8.14017 8.4354C7.50253 8.4354 7.00728 9.02351 7.00728 10.5464C7.00728 12.0693 7.50872 12.6512 8.14017 12.6512C8.77161 12.6512 9.27924 12.0631 9.27924 10.5464Z" fill="#001E60"/>
<path d="M10.7031 7.99545C11.7307 7.99545 11.9783 8.57118 11.9783 9.6174V11.196C11.9783 12.1803 12.2198 12.6322 12.7583 12.6322C13.2969 12.6322 13.5384 12.1803 13.5384 11.196V8.35451C13.5384 8.29879 13.5755 8.25545 13.6622 8.25545C14.2441 8.25545 14.6217 8.47832 14.6217 9.04786V11.196C14.6217 12.1803 14.8632 12.6322 15.4141 12.6322C15.9651 12.6322 16.2127 12.1803 16.2127 11.196V8.78166C16.2127 8.21212 16.5965 7.98926 17.1661 7.98926C17.7356 7.98926 17.2899 8.0264 17.2899 8.08831V11.1898C17.2899 12.5084 16.7575 13.1956 15.5627 13.1956C14.3679 13.1956 14.3927 12.9232 14.1574 12.4156C14.1327 12.3599 14.1203 12.3599 14.1017 12.3599C14.0831 12.3599 14.0646 12.3599 14.046 12.4156C13.8108 12.9232 13.365 13.1956 12.6407 13.1956C11.4459 13.1956 10.9135 12.5084 10.9135 11.1898V10.6389C10.9135 9.25834 10.9135 8.70118 10.6535 8.18736C10.6288 8.15021 10.604 8.11926 10.604 8.08212C10.604 8.04497 10.6411 8.00164 10.7154 8.00164L10.7031 7.99545Z" fill="#001E60"/>
<path d="M22.0693 12.9793C22.0693 13.0351 22.0321 13.0784 21.9455 13.0784C21.3759 13.0784 20.9859 12.8555 20.9859 12.255V9.8283C20.9859 9.1659 20.7816 8.67684 20.0449 8.67684C19.3083 8.67684 18.8997 9.31447 18.8997 10.0574V12.2984C18.8997 12.8679 18.4849 13.0908 17.9401 13.0908C17.3953 13.0908 17.8163 13.0536 17.8163 12.9917V8.12587C17.8163 8.04539 17.8535 8.00825 17.9216 8.00825C18.522 8.00825 18.8873 8.26206 18.8873 8.68303C18.8873 9.10399 18.8997 8.73255 18.9182 8.73255C18.9368 8.73255 18.9554 8.70779 19.0111 8.62112C19.3021 8.15682 19.7787 7.89062 20.3916 7.89062C21.4007 7.89062 22.0631 8.47874 22.0631 9.50019V12.9917L22.0693 12.9793Z" fill="#001E60"/>
<path d="M23.8025 15.4182C25.1768 15.4182 25.7587 14.3348 25.7587 12.5333V12.4467C25.7587 12.4033 25.7587 12.391 25.7278 12.391C25.6968 12.391 25.6906 12.4157 25.6411 12.5024C25.3625 12.9543 24.9106 13.1957 24.2668 13.1957C23.1896 13.1957 22.6262 12.6076 22.6262 11.58V8.10704C22.6262 8.03275 22.6634 7.99561 22.7377 7.99561C23.3196 7.99561 23.7034 8.21847 23.7034 8.81896V11.2519C23.7034 11.9081 23.9015 12.4033 24.6196 12.4033C25.3377 12.4033 25.7463 11.8029 25.7463 11.06V8.78801C25.7463 8.21847 26.1301 7.99561 26.7059 7.99561C27.2816 7.99561 26.8297 8.03275 26.8297 8.09466V12.4776C26.8297 14.7125 25.6906 16.0001 23.7839 16.0001C21.8772 16.0001 20.9424 15.0468 20.9424 13.4372C20.9424 11.8276 20.9733 13.3505 21.0229 13.3505C21.1219 13.3505 21.2333 13.4186 21.4872 13.4805C21.71 13.53 21.871 13.5362 21.9391 13.5424C22.0072 13.5424 22.0443 13.5796 22.0443 13.6415C22.0443 14.7125 22.5643 15.4244 23.7963 15.4244L23.8025 15.4182Z" fill="#001E60"/>
<path d="M13.0491 1.31579C7.83658 -0.330923 7.51467 6.55927 13.2844 6.62117C14.2191 6.63355 15.0982 6.44783 15.8844 6.02687C20.8555 3.38965 17.0606 -2.65861 13.0491 1.31579ZM12.5662 1.89152C11.8791 2.75202 11.7181 3.69919 11.7181 4.34301C11.7181 5.48209 12.2629 6.10735 12.8139 6.33021C8.38755 5.62448 9.32853 0.832918 12.5662 1.89152ZM13.7053 6.24973C12.5043 6.30545 12.3681 4.69588 12.3681 4.32444C12.3681 3.55061 12.7458 2.59725 13.1915 2.10819C13.4515 2.20724 14.8258 2.97488 14.8258 4.51016C14.8258 6.04544 14.4296 6.21878 13.7053 6.24973ZM14.7206 6.16925C15.222 5.73591 15.4387 4.90636 15.4387 4.44826C15.4387 2.46725 13.8725 1.69961 13.662 1.59437C16.8006 -1.27809 19.8093 4.09539 14.7206 6.17545V6.16925Z" fill="#001E60"/>
</g>
<defs>
<clipPath id="clip0_5_35">
<rect width="26.5346" height="16" fill="white" transform="translate(0.463867)"/>
</clipPath>
</defs>
</svg>
