<svg width="41" height="16" viewBox="0 0 41 16" fill="none" xmlns="http://www.w3.org/2000/svg">
<g clip-path="url(#clip0_746_64)">
<g clip-path="url(#clip1_746_64)">
<path fill-rule="evenodd" clip-rule="evenodd" d="M39.8911 8.46245C39.9754 8.36409 40.125 8.36859 40.2017 8.4735H40.2012L40.4933 8.87301C40.5488 8.94977 40.5484 9.05569 40.4905 9.13044C39.9832 9.78842 39.0945 10.4218 38.0221 10.483C37.1756 10.5312 36.4775 10.2105 36.0975 9.60419C36.0223 9.48427 35.8564 9.47726 35.772 9.59067C35.3211 10.1959 34.7756 10.6692 34.2072 10.7018C33.1949 10.7595 32.909 10.0805 33.1592 8.58341C33.1844 8.43436 33.0537 8.3084 32.913 8.34552C32.703 8.40122 32.4802 8.42581 32.2541 8.40626C32.16 8.39821 32.0718 8.45544 32.0434 8.54876C31.6688 9.77937 30.7771 10.9241 29.623 10.9904C28.8863 11.0326 27.7857 10.6105 27.8958 8.84687C27.9049 8.70335 27.7762 8.59044 27.6436 8.63057C27.4126 8.70084 27.1638 8.73396 26.9105 8.71238C26.8166 8.70434 26.7288 8.76156 26.7004 8.85493C26.3257 10.0855 25.4341 11.2303 24.28 11.2965C23.5432 11.3387 22.4426 10.9166 22.5527 9.15305C22.5619 9.00946 22.4331 8.89655 22.3006 8.93674C22.0695 9.00701 21.8207 9.04063 21.5674 9.01851C21.4735 9.01051 21.3857 9.06773 21.3573 9.16105C20.9825 10.3917 20.091 11.5364 18.937 11.6027C18.4128 11.6328 17.7039 11.4275 17.3784 10.6717C17.3157 10.5257 17.1277 10.5036 17.0346 10.6306C16.5789 11.2524 16.0238 11.7432 15.4442 11.7763C14.8501 11.8105 14.5251 11.5721 14.3838 11.147C14.3336 10.9969 14.146 10.9613 14.0448 11.0802C13.6392 11.557 13.1773 11.9063 12.71 11.9329C11.9895 11.9746 11.5748 11.4406 11.5406 10.7936C11.5011 10.0388 11.8275 9.15503 12.1921 8.19043C12.2427 8.05643 12.1511 7.91137 12.0127 7.90535C11.8024 7.89636 11.5623 7.87424 11.3366 7.83207C11.2348 7.81253 11.136 7.87577 11.1071 7.97916C10.676 9.51838 10.0158 11.027 9.4588 11.9188C9.39659 12.0187 9.26787 12.0453 9.1743 11.9766L8.74899 11.6634C8.66171 11.5987 8.63807 11.4742 8.69642 11.3804C9.50128 10.091 10.2159 8.07249 10.4623 6.57942C10.4778 6.48407 10.5554 6.41331 10.6485 6.40778L11.2141 6.37516C11.3438 6.36763 11.4461 6.48858 11.4224 6.62157L11.42 6.63563C11.3988 6.75407 11.4779 6.86548 11.5922 6.88106C12.0995 6.95083 12.8575 6.95933 13.3721 6.93927C13.5167 6.93375 13.619 7.08331 13.5664 7.22333C13.1536 8.32143 12.6005 9.84312 12.6323 10.4454C12.6468 10.7174 12.7669 10.8659 12.9781 10.8539C13.3822 10.8308 14.0038 10.0182 14.4749 9.11341C14.4836 9.09731 14.4899 9.07979 14.4937 9.06171C14.6525 8.35318 14.8881 7.56318 15.1261 6.76498L15.1409 6.71542C15.1655 6.63213 15.2373 6.5739 15.3212 6.56889L15.9988 6.53024C16.1386 6.5222 16.2432 6.66274 16.2008 6.80175C16.166 6.91639 16.1312 7.03026 16.0968 7.1431C15.5006 9.09718 14.9999 10.7382 15.6742 10.6998C16.115 10.6747 16.7395 9.92691 17.2767 8.86244C17.2853 8.84486 17.2916 8.82628 17.2955 8.80674C17.3225 8.66769 17.3553 8.52219 17.3953 8.37011C17.7085 7.11908 18.0637 5.8798 18.4193 4.63902C18.5291 4.25609 18.6389 3.873 18.7474 3.48939C18.7716 3.40457 18.8439 3.34485 18.9287 3.33983L19.6242 3.30018C19.7655 3.29215 19.8701 3.43418 19.8257 3.57421C19.5479 4.44546 19.2576 5.37342 18.9818 6.26676C18.9239 6.45497 19.1255 6.61154 19.2847 6.50314C19.559 6.31544 19.8764 6.19096 20.1836 6.1734C20.9663 6.12874 21.499 6.77264 21.5501 7.74276C21.5529 7.79396 21.556 7.84916 21.5573 7.90535C21.5602 8.0128 21.6407 8.0996 21.7436 8.10863C22.112 8.14125 22.4886 8.03184 22.7794 7.77238C22.8093 7.74577 22.8295 7.70963 22.8396 7.67047C23.128 6.55076 23.4463 5.43936 23.7647 4.32658C23.8739 3.9456 23.983 3.56445 24.091 3.18274C24.115 3.09793 24.1874 3.0382 24.2724 3.03318L24.9676 2.99354C25.1089 2.98551 25.2137 3.12753 25.1693 3.26756C24.8914 4.13881 24.6011 5.06677 24.3253 5.96011C24.2674 6.14832 24.4691 6.30489 24.6282 6.19649C24.9027 6.00879 25.22 5.88434 25.527 5.86675C26.3097 5.82211 26.8425 6.46599 26.8937 7.43615C26.8966 7.48729 26.8994 7.54255 26.9009 7.59874C26.9032 7.70613 26.9844 7.79297 27.087 7.80201C27.4554 7.83461 27.832 7.72518 28.1228 7.46571C28.1528 7.43916 28.1729 7.40301 28.1832 7.36386C28.4716 6.24413 28.7897 5.13275 29.1084 4.01999C29.2175 3.63899 29.3265 3.25782 29.4345 2.8761C29.4587 2.79128 29.531 2.73156 29.6158 2.72654L30.3112 2.68689C30.4526 2.67886 30.5571 2.82089 30.5128 2.96092C30.235 3.83216 29.9448 4.76012 29.6689 5.65346C29.611 5.84167 29.8126 5.99826 29.9718 5.88986C30.2461 5.70214 30.5634 5.57769 30.8707 5.56013C31.6533 5.51546 32.1861 6.15935 32.2373 7.12948C32.2402 7.18118 32.243 7.23588 32.2444 7.29207C32.2474 7.39897 32.3274 7.4863 32.4301 7.49535C32.7865 7.52695 33.151 7.42558 33.4375 7.18419C33.4693 7.15758 33.4914 7.11994 33.5021 7.07878C33.8305 5.81306 34.3128 4.15487 34.7777 2.56795C34.8023 2.48414 34.8745 2.42592 34.9585 2.4209L35.6476 2.38125C35.7874 2.37322 35.892 2.51274 35.8501 2.65176C35.2101 4.7767 34.6884 6.63563 34.4006 7.73224C34.0181 9.21977 34.0032 9.64888 34.4381 9.62379C34.8032 9.6027 35.295 9.08478 35.7589 8.30183C35.7773 8.27122 35.7869 8.23611 35.7884 8.20047C35.8491 6.63312 36.8101 5.20731 38.2385 5.1255C39.1952 5.07079 39.7194 5.7935 39.757 6.50464C39.8284 7.86221 38.4865 8.72996 37.1859 8.64964C37.0345 8.64009 36.9244 8.80274 36.9911 8.94425C37.1728 9.33268 37.5552 9.54954 38.2082 9.51187C38.8293 9.47676 39.4808 8.94074 39.8911 8.46245ZM18.3925 8.84337C18.0839 10.0805 18.4586 10.5648 18.9432 10.5372C19.7388 10.4915 20.5086 9.03356 20.4493 7.90836C20.4232 7.41704 20.1358 7.16108 19.8002 7.18019C19.2412 7.21228 18.6394 7.85617 18.3925 8.84337ZM23.736 8.53725C23.4274 9.77434 23.8021 10.2587 24.2868 10.231H24.2863C25.0819 10.1854 25.852 8.72745 25.7928 7.60224C25.7672 7.11091 25.4792 6.85495 25.1436 6.87401C24.5847 6.90615 23.983 7.55005 23.736 8.53725ZM29.0796 8.23108C28.771 9.46821 29.1457 9.95253 29.6303 9.92493H29.6299C30.4249 9.87926 31.1956 8.42131 31.1364 7.29611C31.1107 6.80476 30.8229 6.54881 30.4872 6.56788C29.9284 6.59999 29.3265 7.24392 29.0796 8.23108ZM38.741 6.61405C38.7362 6.28984 38.537 6.05496 38.2139 6.07354H38.2135C37.5789 6.11016 37.0821 6.79723 36.924 7.63083C36.8989 7.76335 36.9958 7.8868 37.1255 7.88377C37.9453 7.86323 38.7671 7.32219 38.741 6.61405ZM8.98253 7.21592C8.8996 4.70401 7.2663 3.04633 4.85275 3.13265C3.81647 3.17983 2.63066 3.57279 1.73855 4.27542C1.65464 4.34167 1.63294 4.46311 1.68984 4.55546L2.06839 5.17176C2.13301 5.27715 2.27044 5.29873 2.36448 5.22045C3.04346 4.65633 3.9703 4.28647 4.86192 4.24731C6.51596 4.17856 7.73116 5.23752 7.80207 7.28316C7.8908 9.66507 6.2898 12.3897 3.71711 12.5373C3.62742 12.5423 3.53388 12.5443 3.44031 12.5443C3.30915 12.5443 3.21224 12.4163 3.24502 12.2838C3.74123 10.2808 4.32039 8.13282 4.91112 6.13386C4.95211 5.99483 4.84794 5.85632 4.70858 5.86435L3.9563 5.90752C3.87191 5.91253 3.79957 5.97125 3.77498 6.05556C3.2074 8.01988 2.63934 10.1504 2.12818 12.1493C2.09877 12.2647 1.98159 12.331 1.87261 12.2938C1.60594 12.203 1.36241 12.0996 1.15505 11.9787C1.05571 11.9205 0.929855 11.9616 0.878739 12.068L0.555647 12.7435C0.507906 12.8434 0.543109 12.9659 0.637143 13.0195C1.36964 13.4351 2.48167 13.6725 3.59946 13.6088C7.2779 13.3979 9.07996 10.0003 8.98253 7.21691V7.21592ZM16.2115 4.12965C15.764 4.15524 15.3671 4.65812 15.3951 5.18811C15.4134 5.5374 15.6376 5.77077 15.9858 5.75121C16.4333 5.72561 16.8412 5.19613 16.8147 4.69174C16.7964 4.34245 16.5345 4.11108 16.2115 4.12965Z" fill="#0D0C22"/>
</g>
</g>
<defs>
<clipPath id="clip0_746_64">
<rect width="40" height="16" fill="white" transform="translate(0.534424)"/>
</clipPath>
<clipPath id="clip1_746_64">
<rect width="40" height="11.2381" fill="white" transform="translate(0.534424 2.38092)"/>
</clipPath>
</defs>
</svg>
