<svg width="121" height="64" viewBox="0 0 121 64" fill="none" xmlns="http://www.w3.org/2000/svg">
<g clip-path="url(#clip0_746_64)">
<g clip-path="url(#clip1_746_64)">
<path fill-rule="evenodd" clip-rule="evenodd" d="M118.58 33.3874C118.833 33.0923 119.281 33.1058 119.512 33.4206H119.51L120.387 34.6191C120.553 34.8494 120.552 35.1671 120.378 35.3914C118.856 37.3653 116.19 39.2653 112.973 39.4491C110.433 39.5935 108.339 38.6315 107.199 36.8126C106.973 36.4529 106.476 36.4318 106.223 36.7721C104.87 38.5878 103.233 40.0077 101.528 40.1054C98.4911 40.2786 97.6333 38.2416 98.3842 33.7503C98.4596 33.3031 98.0676 32.9253 97.6453 33.0366C97.0156 33.2037 96.3471 33.2775 95.6688 33.2189C95.3865 33.1947 95.1219 33.3664 95.0368 33.6463C93.9128 37.3382 91.2379 40.7725 87.7756 40.9713C85.5653 41.0977 82.2636 39.8314 82.5939 34.5407C82.6213 34.1101 82.235 33.7714 81.8373 33.8918C81.1442 34.1026 80.3979 34.2019 79.6379 34.1372C79.3562 34.1131 79.0928 34.2847 79.0076 34.5649C77.8836 38.2566 75.2087 41.691 71.7465 41.8896C69.5362 42.0161 66.2344 40.7499 66.5647 35.4592C66.5922 35.0285 66.2059 34.6897 65.8082 34.8103C65.115 35.0211 64.3687 35.1219 63.6087 35.0556C63.327 35.0316 63.0636 35.2033 62.9784 35.4832C61.8539 39.1751 59.1796 42.6094 55.7174 42.8081C54.1449 42.8985 52.0183 42.2826 51.0417 40.0151C50.8536 39.5771 50.2895 39.5107 50.0102 39.8917C48.6432 41.7572 46.978 43.2297 45.2391 43.3291C43.4567 43.4314 42.4818 42.7163 42.0579 41.4409C41.9074 40.9908 41.3446 40.8838 41.0409 41.2407C39.8242 42.6711 38.4383 43.719 37.0365 43.7988C34.8751 43.9238 33.6309 42.3217 33.5283 40.381C33.4096 38.1166 34.3891 35.4651 35.4827 32.5714C35.6346 32.1694 35.3597 31.7342 34.9446 31.7161C34.3138 31.6891 33.5934 31.6228 32.9163 31.4963C32.611 31.4376 32.3146 31.6274 32.2277 31.9375C30.9344 36.5552 28.9539 41.0812 27.2829 43.7566C27.0963 44.0562 26.7101 44.1361 26.4294 43.9297L25.1535 42.9904C24.8916 42.796 24.8207 42.4227 24.9957 42.1412C27.4103 38.2731 29.5543 32.2175 30.2935 27.7383C30.3398 27.4523 30.5727 27.24 30.8519 27.2234L32.5488 27.1255C32.938 27.103 33.2447 27.4658 33.1738 27.8648L33.1666 27.907C33.1029 28.2623 33.3402 28.5965 33.6831 28.6432C35.2049 28.8526 37.4791 28.878 39.0227 28.8179C39.4567 28.8013 39.7634 29.25 39.6057 29.67C38.3674 32.9643 36.7081 37.5294 36.8035 39.3361C36.8469 40.1521 37.2072 40.5978 37.8407 40.5617C39.0531 40.4925 40.9179 38.0548 42.3313 35.3403C42.3573 35.292 42.3761 35.2394 42.3877 35.1852C42.8639 33.0596 43.5707 30.6896 44.2848 28.295L44.3291 28.1463C44.4029 27.8964 44.6185 27.7218 44.8702 27.7067L46.9028 27.5908C47.3224 27.5667 47.6362 27.9883 47.509 28.4053C47.4044 28.7492 47.3001 29.0908 47.1969 29.4294C45.4083 35.2916 43.9063 40.2148 45.9292 40.0995C47.2514 40.0241 49.1249 37.7808 50.7365 34.5874C50.7625 34.5346 50.7813 34.4789 50.7929 34.4203C50.874 34.0031 50.9722 33.5666 51.0924 33.1104C52.0321 29.3573 53.0976 25.6395 54.1644 21.9171C54.4937 20.7683 54.8231 19.6191 55.1488 18.4682C55.2212 18.2138 55.4381 18.0346 55.6927 18.0195L57.779 17.9006C58.203 17.8765 58.5167 18.3026 58.3836 18.7227C57.5503 21.3364 56.6794 24.1203 55.852 26.8003C55.6783 27.365 56.283 27.8347 56.7605 27.5095C57.5836 26.9464 58.5356 26.573 59.4573 26.5203C61.8053 26.3863 63.4036 28.318 63.5567 31.2283C63.5653 31.3819 63.5744 31.5475 63.5784 31.7161C63.587 32.0385 63.8287 32.2988 64.1373 32.3259C65.2424 32.4238 66.3722 32.0956 67.2447 31.3172C67.3344 31.2374 67.395 31.129 67.4253 31.0115C68.2904 27.6523 69.2453 24.3182 70.2007 20.9798C70.5282 19.8369 70.8556 18.6934 71.1796 17.5483C71.2516 17.2938 71.4687 17.1147 71.7236 17.0996L73.8093 16.9807C74.2333 16.9566 74.5476 17.3827 74.4145 17.8027C73.5807 20.4165 72.7099 23.2004 71.8825 25.8804C71.7087 26.445 72.3139 26.9147 72.791 26.5895C73.6145 26.0264 74.5665 25.6531 75.4876 25.6003C77.8356 25.4664 79.4339 27.398 79.5876 30.3085C79.5962 30.4619 79.6047 30.6277 79.6093 30.7963C79.6162 31.1184 79.8596 31.379 80.1676 31.4061C81.2728 31.5039 82.4025 31.1756 83.275 30.3972C83.3648 30.3175 83.4253 30.2091 83.4562 30.0916C84.3213 26.7324 85.2756 23.3983 86.2316 20.06C86.559 18.917 86.8859 17.7735 87.2099 16.6284C87.2825 16.3739 87.4996 16.1947 87.7539 16.1797L89.8402 16.0607C90.2642 16.0366 90.5779 16.4627 90.4448 16.8828C89.6116 19.4966 88.7408 22.2804 87.9133 24.9604C87.7396 25.5251 88.3442 25.9948 88.8219 25.6696C89.6448 25.1065 90.5968 24.7331 91.5185 24.6804C93.8665 24.5464 95.4648 26.4781 95.6185 29.3885C95.6271 29.5436 95.6356 29.7077 95.6396 29.8763C95.6488 30.197 95.8888 30.459 96.1968 30.4861C97.2659 30.5809 98.3596 30.2768 99.2191 29.5526C99.3145 29.4728 99.3808 29.3599 99.4128 29.2364C100.398 25.4392 101.845 20.4647 103.24 15.7039C103.313 15.4525 103.53 15.2778 103.782 15.2628L105.849 15.1438C106.269 15.1197 106.583 15.5383 106.457 15.9553C104.537 22.3301 102.972 27.907 102.108 31.1968C100.961 35.6594 100.916 36.9467 102.221 36.8714C103.316 36.8082 104.792 35.2544 106.183 32.9055C106.239 32.8137 106.267 32.7084 106.272 32.6015C106.454 27.8994 109.337 23.622 113.622 23.3765C116.492 23.2124 118.065 25.3806 118.177 27.514C118.392 31.5867 114.366 34.1899 110.464 33.949C110.01 33.9203 109.68 34.4083 109.88 34.8328C110.425 35.9981 111.572 36.6487 113.531 36.5357C115.395 36.4303 117.349 34.8223 118.58 33.3874ZM54.084 34.5302C53.1581 38.2416 54.2823 39.6944 55.7361 39.6116C58.123 39.4746 60.4321 35.1007 60.2544 31.7251C60.1761 30.2512 59.3139 29.4833 58.307 29.5406C56.6302 29.6369 54.8248 31.5686 54.084 34.5302ZM70.1144 33.6118C69.1887 37.3231 70.3127 38.7761 71.767 38.6932H71.7653C74.1522 38.5562 76.4625 34.1824 76.2847 30.8068C76.2082 29.3328 75.3442 28.5649 74.3373 28.6221C72.6607 28.7185 70.8556 30.6502 70.1144 33.6118ZM86.1453 32.6933C85.2196 36.4047 86.3436 37.8577 87.7973 37.7749H87.7962C90.1813 37.6378 92.4933 33.264 92.3156 29.8884C92.2385 28.4143 91.3751 27.6465 90.3682 27.7037C88.6916 27.8 86.8859 29.7318 86.1453 32.6933ZM115.129 27.8422C115.115 26.8696 114.517 26.165 113.548 26.2207H113.547C111.643 26.3306 110.153 28.3918 109.679 30.8926C109.603 31.2901 109.894 31.6604 110.283 31.6514C112.743 31.5898 115.208 29.9666 115.129 27.8422ZM25.8541 29.6478C25.6053 22.1121 20.7054 17.139 13.4648 17.398C10.3559 17.5395 6.79846 18.7184 4.12214 20.8263C3.87042 21.0251 3.80531 21.3894 3.97602 21.6664L5.11166 23.5154C5.30551 23.8315 5.71781 23.8963 5.99992 23.6614C8.03686 21.9691 10.8174 20.8595 13.4922 20.742C18.4544 20.5357 22.1 23.7126 22.3127 29.8495C22.5789 36.9953 17.7759 45.1692 10.0578 45.6118C9.78875 45.6269 9.50812 45.633 9.22744 45.633C8.83395 45.633 8.54321 45.249 8.64155 44.8515C10.1302 38.8425 11.8677 32.3985 13.6398 26.4016C13.7628 25.9846 13.4503 25.569 13.0322 25.5931L10.7754 25.7226C10.5222 25.7376 10.3052 25.9138 10.2314 26.1667C8.52869 32.0597 6.82452 38.4511 5.29105 44.448C5.2028 44.7943 4.85126 44.9931 4.52431 44.8816C3.7243 44.6092 2.99373 44.299 2.37165 43.9361C2.07364 43.7614 1.69606 43.885 1.54271 44.2041L0.573434 46.2307C0.430214 46.5304 0.535821 46.8977 0.817923 47.0587C3.01542 48.3054 6.35149 49.0175 9.70487 48.8264C20.7402 48.1939 26.1464 38.0009 25.8541 29.6508V29.6478ZM47.5409 20.389C46.1984 20.4658 45.0077 21.9744 45.0917 23.5644C45.1466 24.6123 45.8194 25.3124 46.8638 25.2537C48.2064 25.1769 49.4302 23.5884 49.3506 22.0753C49.2958 21.0274 48.5101 20.3333 47.5409 20.389Z" fill="#0D0C22"/>
</g>
</g>
<defs>
<clipPath id="clip0_746_64">
<rect width="120" height="64" fill="white" transform="translate(0.509766)"/>
</clipPath>
<clipPath id="clip1_746_64">
<rect width="120" height="33.7144" fill="white" transform="translate(0.509766 15.1428)"/>
</clipPath>
</defs>
</svg>
