<svg width="40" height="16" viewBox="0 0 40 16" fill="none" xmlns="http://www.w3.org/2000/svg">
<g clip-path="url(#clip0_813_263)">
<path d="M2.88986 9.74145H2.06244V6.26012H2.88986C3.94184 6.26012 4.67767 6.97641 4.67767 7.99992C4.67767 9.02346 3.94184 9.73975 2.88986 9.73975M2.81039 4.28903H1.19189C0.500938 4.28903 0 4.78958 0 5.47998V10.5182C0 11.2086 0.500938 11.7091 1.19189 11.7091H2.81039C5.12506 11.7091 6.74186 10.1833 6.74186 7.99821C6.74186 5.81308 5.12506 4.28732 2.81039 4.28732" fill="#EF6A00"/>
<path d="M13.6857 5.18318C13.6857 4.57217 13.2522 4.13031 12.6545 4.13031C12.0569 4.13031 11.6233 4.57391 11.6233 5.18318V8.64207C11.6233 9.31004 11.1206 9.83303 10.4763 9.83303C9.83204 9.83303 9.3311 9.31004 9.3311 8.64207V5.18318C9.3311 4.57217 8.89752 4.13031 8.29986 4.13031C7.70219 4.13031 7.26862 4.57391 7.26862 5.18318V8.73354C7.26862 10.5804 8.58834 11.8714 10.4781 11.8714C12.3678 11.8714 13.6875 10.5821 13.6875 8.73354V5.18318H13.6857Z" fill="#EF6A00"/>
<path d="M27.3335 9.95041L25.5803 7.96895L27.216 6.05481C27.4544 5.77867 27.5805 5.49731 27.5805 5.24017C27.5805 4.61708 27.1021 4.1286 26.4923 4.1286C26.1814 4.1286 25.8946 4.29776 25.6131 4.64815L23.7648 7.11975V5.18317C23.7648 4.5532 23.3502 4.13034 22.7336 4.13034C22.1169 4.13034 21.7023 4.5532 21.7023 5.18317V10.8169C21.7023 11.4468 22.1169 11.8697 22.7336 11.8697C23.3502 11.8697 23.7648 11.4468 23.7648 10.8169V8.86303L25.7478 11.383C26.0345 11.7282 26.2798 11.8697 26.5942 11.8697C27.2057 11.8697 27.6496 11.402 27.6496 10.7582C27.6496 10.4682 27.5356 10.173 27.3353 9.94867" fill="#EF6A00"/>
<path d="M30.2388 5.18318C30.2388 4.55317 29.8242 4.13031 29.2075 4.13031C28.5908 4.13031 28.1763 4.55317 28.1763 5.18318V10.8168C28.1763 11.4468 28.5908 11.8697 29.2075 11.8697C29.8242 11.8697 30.2388 11.4468 30.2388 10.8168V5.18318Z" fill="#EF6A00"/>
<path d="M39.9929 5.24369C40.0606 4.67408 39.6338 4.31162 39.2001 4.26155C38.8391 4.21841 38.5609 4.32713 38.3744 4.58435C38.2348 4.77595 38.1481 5.06591 38.0947 5.52161C38.0394 5.99283 38.0448 6.30871 38.1121 6.51757C38.2054 6.79545 38.4193 6.96805 38.7165 7.0026C39.2763 7.06818 39.5441 6.61596 39.8652 5.7011C39.9325 5.51298 39.9828 5.33346 39.9929 5.24369Z" fill="#C63663"/>
<path d="M16.4859 7.93959V10.8168C16.4859 11.4468 16.0714 11.8697 15.4547 11.8697C14.838 11.8697 14.4235 11.4468 14.4235 10.8168V5.18318C14.4235 4.55317 14.838 4.13031 15.4547 4.13031C15.7518 4.13031 16.023 4.23903 16.1819 4.4013C16.3408 4.56354 18.9284 8.06043 18.9284 8.06043V5.18318C18.9284 4.55317 19.343 4.13031 19.9597 4.13031C20.5763 4.13031 20.9909 4.55317 20.9909 5.18318V10.8168C20.9909 11.4468 20.5763 11.8697 19.9597 11.8697C19.6625 11.8697 19.3931 11.7627 19.2324 11.5987C19.0718 11.4347 16.4859 7.93959 16.4859 7.93959Z" fill="#EF6A00"/>
<path d="M33.0182 7.93959V10.8168C33.0182 11.4468 32.6037 11.8697 31.987 11.8697C31.3703 11.8697 30.9557 11.4468 30.9557 10.8168V5.18318C30.9557 4.55317 31.3703 4.13031 31.987 4.13031C32.2841 4.13031 32.5553 4.23903 32.7142 4.4013C32.8731 4.56354 35.4606 8.06043 35.4606 8.06043V5.18318C35.4606 4.55317 35.8754 4.13031 36.4921 4.13031C37.1085 4.13031 37.5232 4.55317 37.5232 5.18318V10.8168C37.5232 11.4468 37.1085 11.8697 36.4921 11.8697C36.1949 11.8697 35.9237 11.7627 35.7647 11.5987C35.6041 11.4347 33.0182 7.93959 33.0182 7.93959Z" fill="#EF6A00"/>
</g>
<defs>
<clipPath id="clip0_813_263">
<rect width="40" height="7.7428" fill="white" transform="translate(0 4.1286)"/>
</clipPath>
</defs>
</svg>
