<svg width="17" height="16" viewBox="0 0 17 16" fill="none" xmlns="http://www.w3.org/2000/svg">
<g clip-path="url(#clip0_2_7568)">
<path d="M14.0758 13.9512C13.8688 13.9512 13.7007 14.119 13.7007 14.3262C13.7007 14.5331 13.8688 14.7012 14.0758 14.7012C14.2829 14.7012 14.4507 14.5331 14.4507 14.3262C14.4507 14.119 14.2829 13.9512 14.0758 13.9512ZM14.0758 14.6208C14.0371 14.6208 13.9988 14.6132 13.963 14.5984C13.9273 14.5836 13.8948 14.5619 13.8675 14.5346C13.8401 14.5072 13.8184 14.4747 13.8036 14.439C13.7888 14.4032 13.7812 14.3649 13.7813 14.3262C13.7813 14.1634 13.9129 14.0318 14.0758 14.0318C14.2386 14.0318 14.3703 14.1634 14.3703 14.3262C14.3703 14.489 14.2386 14.6208 14.0758 14.6208ZM14.2299 14.2393C14.2299 14.2056 14.2164 14.1732 14.1926 14.1494C14.1687 14.1256 14.1364 14.1122 14.1027 14.1122H13.922V14.5403H14.0023V14.3664H14.0599L14.1411 14.5403H14.2299L14.1452 14.359C14.1699 14.3502 14.1913 14.334 14.2065 14.3125C14.2216 14.2911 14.2298 14.2655 14.2299 14.2393ZM14.1027 14.2861H14.0023V14.1924H14.1026C14.1151 14.1924 14.127 14.1974 14.1358 14.2061C14.1446 14.2149 14.1496 14.2269 14.1496 14.2393C14.1495 14.2517 14.1446 14.2636 14.1358 14.2724C14.127 14.2811 14.1151 14.2861 14.1027 14.2861Z" fill="#00205B"/>
<path d="M8.20166 16C12.62 16 16.2017 12.4184 16.2017 8C16.2017 3.58208 12.62 0 8.20166 0C3.78334 0 0.20166 3.58205 0.20166 8C0.20166 12.4184 3.78336 16 8.20166 16Z" fill="white"/>
<path d="M8.64683 0.383789C9.56025 1.81521 9.97193 2.34286 9.97193 3.14416C9.97193 4.10609 9.16355 4.88596 8.20153 4.88596C7.23928 4.88596 6.4311 4.10609 6.4311 3.14416C6.4311 2.34286 6.84275 1.81521 7.75613 0.383789C3.74968 0.614289 0.571777 3.93584 0.571777 8.00009C0.571777 12.2141 3.98768 15.6303 8.20153 15.6303C12.4154 15.6303 15.8313 12.2141 15.8313 8.00009C15.8313 3.93584 12.6534 0.614289 8.64683 0.383789ZM8.20153 14.9354C4.37128 14.9354 1.26645 11.8301 1.26645 8.00009C1.26645 4.78696 3.45208 2.08431 6.41763 1.29694C6.26008 1.49294 5.73643 2.21429 5.73643 3.14414C5.73643 4.48764 6.84225 5.58064 8.20153 5.58064C9.5609 5.58064 10.6666 4.48764 10.6666 3.14414C10.6666 2.21429 10.1427 1.49296 9.9854 1.29694C12.9511 2.08434 15.1367 4.78696 15.1367 8.00009C15.1367 11.8301 12.0316 14.9354 8.20153 14.9354Z" fill="#00205B"/>
<path d="M9.64537 8.83165H9.14757V9.62637C9.14757 9.78565 9.01842 9.91497 8.85902 9.91497C8.70007 9.91497 8.57072 9.78565 8.57072 9.62637V8.6135H9.14757V7.86287H8.57072V7.27825C8.57072 7.11897 8.70007 6.98982 8.85902 6.98982C9.01842 6.98982 9.14757 7.11897 9.14757 7.27825V7.6424H9.64537V5.95947H7.54182V6.98982C7.74537 6.98982 7.91052 7.15457 7.91052 7.35857V9.70392C7.91053 9.73164 7.90508 9.75909 7.89447 9.7847C7.88387 9.81032 7.86833 9.83359 7.84873 9.85319C7.82913 9.87279 7.80586 9.88834 7.78025 9.89894C7.75464 9.90955 7.72719 9.915 7.69947 9.915V14.165C7.69947 14.4686 7.54072 14.607 7.46484 14.6561C7.70934 14.6861 7.95544 14.7011 8.20177 14.7009C8.50657 14.7009 8.80594 14.6779 9.09804 14.6342C9.09804 14.6342 9.64534 14.5256 9.64534 14.043V8.83165H9.64537Z" fill="#00205B"/>
<path d="M7.54193 8.83167H7.04426V9.70467C7.04426 9.82082 6.95013 9.915 6.83403 9.915C6.71793 9.915 6.62368 9.82082 6.62368 9.7047V7.20102C6.62365 7.17329 6.6291 7.14582 6.6397 7.12019C6.6503 7.09456 6.66584 7.07127 6.68545 7.05165C6.70506 7.03203 6.72835 7.01648 6.75397 7.00587C6.7796 6.99526 6.80707 6.98981 6.8348 6.98982V5.95947H5.7525V6.98982C5.86893 6.98982 5.9634 7.08425 5.9634 7.20102V9.70392C5.9634 9.8204 5.8689 9.915 5.7525 9.915V13.6168C5.7525 13.926 5.58328 14.0274 5.50293 14.0582C5.98038 14.3015 6.49793 14.4822 7.04343 14.589C7.04343 14.589 7.54193 14.665 7.54193 14.165V8.83167Z" fill="#00205B"/>
<path d="M5.5945 13.6169V9.91507C5.47797 9.91507 5.3835 9.82047 5.3835 9.70392V7.20107C5.38349 7.14509 5.4057 7.0914 5.44525 7.05177C5.46484 7.03216 5.48811 7.0166 5.51372 7.00599C5.53933 6.99537 5.56678 6.98992 5.5945 6.98992V5.95947H4.51225V6.98992C4.62865 6.98992 4.7232 7.0843 4.7232 7.20107V9.7039C4.7232 9.82045 4.62865 9.91505 4.51225 9.91505V12.4367C4.51225 12.9632 4.24207 13.0465 4.10107 13.0539C4.43779 13.382 4.81347 13.6675 5.21972 13.9041C5.21972 13.9041 5.59452 14.0459 5.59452 13.6169M13.9482 7.64245V6.50867C13.9482 6.20672 13.7013 5.9596 13.3993 5.9596H12.7514C12.4495 5.9596 12.2024 6.20672 12.2024 6.50867V8.02297C12.2024 8.10365 12.2514 8.21365 12.3117 8.26702L13.1789 9.04267C13.239 9.09655 13.2882 9.20667 13.2882 9.28692V9.6212C13.2882 9.78355 13.1564 9.91505 12.9941 9.91505C12.8317 9.91505 12.7002 9.78355 12.7002 9.6212V8.83182H12.2024V13.1487C13.2788 12.1496 13.9482 10.7515 13.9482 9.20325V8.98017C13.9482 8.89967 13.8993 8.79007 13.8394 8.73622L12.9719 7.96065C12.9116 7.90657 12.8625 7.797 12.8625 7.7163V7.2024C12.8625 7.08522 12.958 6.98995 13.0755 6.98995C13.1929 6.98995 13.2882 7.0852 13.2882 7.2024V7.64247H13.9482V7.64245Z" fill="#00205B"/>
<path d="M4.35451 12.4367V6.50872C4.35451 6.20657 4.10759 5.95947 3.80561 5.95947H3.00374C2.70174 5.95947 2.45459 6.20657 2.45459 6.50872V9.2032C2.45459 10.5529 2.96329 11.7885 3.80662 12.7448C3.97152 12.9598 4.35451 13.0213 4.35451 12.4367ZM3.69441 9.62532C3.69441 9.7852 3.56471 9.91492 3.40476 9.91492C3.24461 9.91492 3.11499 9.7852 3.11499 9.62532V7.27957C3.11499 7.11925 3.24461 6.98992 3.40474 6.98992C3.44279 6.9899 3.48047 6.99737 3.51563 7.01192C3.55078 7.02647 3.58273 7.0478 3.60964 7.0747C3.63654 7.10161 3.65787 7.13355 3.67242 7.16871C3.68696 7.20387 3.69444 7.24155 3.69441 7.2796V9.62532ZM11.8339 9.70387V8.476C11.8339 8.2657 11.598 8.16937 11.598 8.16937C11.598 8.16937 11.8339 8.073 11.8339 7.86295V6.50865C11.8339 6.20662 11.5867 5.95957 11.2849 5.95957H9.80267L9.80247 6.9899C9.84424 6.98985 9.88509 7.00222 9.91983 7.02542C9.95456 7.04862 9.98163 7.08162 9.99759 7.12022C10.0082 7.14585 10.0136 7.17331 10.0136 7.20105V9.70387C10.0137 9.74565 10.0013 9.78649 9.9781 9.82123C9.9549 9.85597 9.9219 9.88303 9.88329 9.89897C9.85766 9.90957 9.8302 9.91502 9.80247 9.91502V14.043C9.80247 14.257 9.71631 14.4185 9.59997 14.5362C9.98907 14.4429 10.3625 14.3136 10.7161 14.1489C10.7161 14.1489 10.97 14.0256 10.97 13.5636V9.91502C10.8063 9.91502 10.674 9.78232 10.674 9.61897V8.7029C10.674 8.57735 10.7753 8.476 10.9006 8.476C10.9455 8.47594 10.9894 8.48921 11.0267 8.51413C11.0641 8.53906 11.0932 8.57451 11.1103 8.616C11.1217 8.64355 11.1276 8.67308 11.1275 8.7029V13.6112C11.1275 13.75 11.1085 13.8663 11.0791 13.9641C11.3713 13.8015 11.6489 13.614 11.9088 13.4037C11.9088 13.4037 12.045 13.2908 12.045 12.7542V9.91502C12.0173 9.91503 11.9899 9.90958 11.9642 9.89896C11.9386 9.88835 11.9153 9.87279 11.8957 9.85317C11.8562 9.81356 11.8339 9.75987 11.8339 9.70387ZM11.1735 7.61295C11.1735 7.75095 11.0618 7.86295 10.9237 7.86295C10.7857 7.86295 10.674 7.75095 10.674 7.61295V7.2397C10.674 7.20689 10.6804 7.1744 10.6929 7.14408C10.7055 7.11377 10.7239 7.08622 10.7471 7.06302C10.7703 7.03982 10.7978 7.02142 10.8281 7.00887C10.8584 6.99633 10.8909 6.98988 10.9237 6.9899C10.9566 6.98986 10.989 6.99631 11.0194 7.00885C11.0497 7.0214 11.0772 7.03981 11.1004 7.06302C11.1236 7.08622 11.142 7.11376 11.1546 7.14407C11.1671 7.17438 11.1736 7.20687 11.1735 7.23967V7.61295Z" fill="#00205B"/>
<path d="M9.4916 3.1692C9.4916 2.26555 8.70772 1.78285 8.20165 0.520996C7.69552 1.78285 6.91162 2.2655 6.91162 3.16917C6.91162 3.78675 7.42167 4.38815 8.20162 4.38815C8.98185 4.38815 9.4916 3.78677 9.4916 3.1692Z" fill="#D14520"/>
</g>
<defs>
<clipPath id="clip0_2_7568">
<rect width="16" height="16" fill="white" transform="translate(0.20166)"/>
</clipPath>
</defs>
</svg>
