<svg width="41" height="16" viewBox="0 0 41 16" fill="none" xmlns="http://www.w3.org/2000/svg">
<g clip-path="url(#clip0_806_1307)">
<g clip-path="url(#clip1_806_1307)">
<path d="M15.1479 6.48297H17.6645V7.1359H15.8772V7.81272H17.45V8.4657H15.8772V9.16628H17.6883V9.81926H15.1479V6.48297Z" fill="#004185"/>
<path d="M18.228 6.48297H19.0192L19.8962 7.89375L20.7732 6.48297H21.5643V9.81927H20.8351V7.64111L19.8962 9.06623H19.8771L18.9477 7.65545V9.81927H18.228V6.48297Z" fill="#004185"/>
<path d="M22.2324 6.48297H23.5955C24.3915 6.48297 24.8729 6.95481 24.8729 7.63637V7.64591C24.8729 8.41804 24.2723 8.81839 23.524 8.81839H22.9664V9.81927H22.2324L22.2324 6.48297ZM23.5479 8.16541C23.62 8.17454 23.6933 8.16835 23.7628 8.14723C23.8324 8.12612 23.8967 8.09055 23.9516 8.04287C24.0065 7.99518 24.0507 7.93645 24.0813 7.87051C24.112 7.80456 24.1283 7.7329 24.1294 7.6602V7.65066C24.1294 7.32179 23.9006 7.14545 23.5336 7.14545H22.9664V8.16541H23.5479Z" fill="#004185"/>
<path d="M25.1226 8.16066V8.15112C25.1352 7.69006 25.3268 7.25204 25.657 6.92994C25.9871 6.60784 26.4297 6.427 26.8909 6.42576C27.3522 6.42452 27.7957 6.60298 28.1276 6.92329C28.4595 7.24361 28.6535 7.68059 28.6686 8.14157V8.15112C28.656 8.61218 28.4643 9.0502 28.1342 9.37229C27.804 9.69439 27.3614 9.87524 26.9002 9.87648C26.439 9.87772 25.9954 9.69926 25.6635 9.37894C25.3317 9.05862 25.1376 8.62164 25.1226 8.16066ZM27.9012 8.16066V8.15112C27.9059 8.01536 27.8833 7.88005 27.8346 7.75322C27.786 7.62639 27.7123 7.51063 27.6181 7.41282C27.5238 7.315 27.4109 7.23713 27.2859 7.18383C27.161 7.13053 27.0266 7.10289 26.8908 7.10254C26.7559 7.10201 26.6224 7.12881 26.4982 7.18133C26.374 7.23384 26.2618 7.31099 26.1682 7.4081C26.0747 7.50521 26.0018 7.62027 25.9539 7.74634C25.9061 7.87241 25.8843 8.00686 25.8899 8.14158V8.15112C25.8852 8.28688 25.9079 8.42218 25.9565 8.54901C26.0051 8.67583 26.0788 8.79159 26.173 8.8894C26.2673 8.98721 26.3802 9.06508 26.5052 9.11838C26.6301 9.17167 26.7645 9.19932 26.9003 9.19966C27.0351 9.2002 27.1687 9.17341 27.2929 9.12089C27.4171 9.06838 27.5293 8.99124 27.6229 8.89413C27.7164 8.79703 27.7893 8.68197 27.8372 8.5559C27.885 8.42984 27.9068 8.29538 27.9012 8.16066Z" fill="#004185"/>
<path d="M28.7129 6.48298H29.4993L30.1904 8.71829L30.9387 6.48297H31.5678L32.3161 8.71829L33.0072 6.48298H33.7745L32.6354 9.81928H31.9968L31.2437 7.66974L30.4907 9.81928H29.852L28.7129 6.48298Z" fill="#004185"/>
<path d="M34.1113 6.48297H36.6279V7.1359H34.8406V7.81272H36.4134V8.4657H34.8406V9.16628H36.6517V9.81926H34.1113V6.48297Z" fill="#004185"/>
<path d="M37.1914 6.48296H38.7166C38.893 6.47189 39.0699 6.49611 39.2368 6.55421C39.4038 6.6123 39.5575 6.70311 39.6889 6.82131C39.7851 6.92288 39.8599 7.04269 39.9091 7.17367C39.9582 7.30464 39.9806 7.44413 39.9749 7.5839V7.59344C39.9856 7.82037 39.9214 8.04453 39.7922 8.23141C39.6631 8.41829 39.476 8.55753 39.26 8.62769L40.075 9.81925H39.2171L38.5021 8.75163H37.9254V9.81925H37.1914L37.1914 6.48296ZM38.6689 8.10345C39.0264 8.10345 39.2313 7.91277 39.2313 7.63161V7.62207C39.2313 7.30749 39.0121 7.14543 38.6546 7.14543H37.9254V8.10345H38.6689Z" fill="#004185"/>
<path d="M14.0578 6.49115C10.6686 7.29017 10.6956 5.6095 7.82406 5.96332L6.35352 6.6464C9.376 6.10971 9.43983 8.16548 13.5242 7.00939C13.7103 6.95672 13.8868 6.906 14.0578 6.86242L14.0578 6.49115Z" fill="#DB1830"/>
<path d="M14.0576 7.2861C13.4563 7.36084 12.8616 7.48177 12.2788 7.64781C7.97945 8.85609 8.09514 6.85652 4.92079 7.31588L3.45264 7.99896C6.55917 7.57925 6.68683 9.52261 10.9086 8.36195C12.2849 7.98356 13.26 7.87854 14.0576 7.92689V7.2861Z" fill="#DB1830"/>
<path d="M14.0577 8.77235C13.0085 8.53616 11.7925 8.39592 9.58913 9.00038C5.22671 10.1972 5.29613 8.23774 2.02257 8.66846L0.554688 9.35153C3.72665 8.94442 3.88623 10.8637 8.18932 9.71452C11.3806 8.86228 12.4817 9.48271 14.0577 9.81033L14.0577 8.77235Z" fill="#DB1830"/>
<path d="M40.2675 7.05727C40.2107 7.05726 40.1552 7.0404 40.108 7.00885C40.0608 6.97729 40.024 6.93244 40.0023 6.87997C39.9806 6.8275 39.9749 6.76978 39.986 6.71408C39.9971 6.65839 40.0244 6.60723 40.0646 6.56708C40.1047 6.52692 40.1559 6.49958 40.2116 6.48849C40.2673 6.47741 40.325 6.48309 40.3775 6.50481C40.4299 6.52654 40.4748 6.56333 40.5063 6.61054C40.5379 6.65774 40.5548 6.71325 40.5548 6.77004C40.5547 6.84619 40.5244 6.91919 40.4705 6.97304C40.4167 7.02688 40.3437 7.05718 40.2675 7.05727ZM40.2675 6.52735C40.2195 6.52737 40.1726 6.54162 40.1327 6.56831C40.0928 6.595 40.0617 6.63293 40.0433 6.6773C40.0249 6.72167 40.0201 6.77048 40.0295 6.81757C40.0389 6.86466 40.0621 6.90791 40.096 6.94185C40.13 6.97579 40.1732 6.9989 40.2203 7.00825C40.2674 7.0176 40.3163 7.01277 40.3606 6.99438C40.405 6.97599 40.4429 6.94486 40.4695 6.90493C40.4962 6.86499 40.5104 6.81805 40.5104 6.77004C40.5103 6.70566 40.4847 6.64395 40.4392 6.59845C40.3936 6.55295 40.3319 6.52738 40.2675 6.52735Z" fill="#004185"/>
<path d="M40.165 6.62344H40.2945C40.3252 6.62175 40.3553 6.63223 40.3784 6.65262C40.3863 6.66094 40.3925 6.67075 40.3967 6.68149C40.4008 6.69222 40.4028 6.70367 40.4025 6.71517V6.71603C40.4031 6.73645 40.3965 6.75644 40.3839 6.77252C40.3713 6.78861 40.3535 6.79977 40.3336 6.80408L40.412 6.91398H40.3514L40.28 6.81281H40.2162V6.91398H40.165L40.165 6.62344ZM40.2908 6.76758C40.3274 6.76758 40.3506 6.74836 40.3506 6.71901V6.71814C40.3506 6.68703 40.3281 6.66991 40.2904 6.66991H40.2161V6.76758H40.2908Z" fill="#004185"/>
</g>
</g>
<defs>
<clipPath id="clip0_806_1307">
<rect width="40" height="16" fill="white" transform="translate(0.554688)"/>
</clipPath>
<clipPath id="clip1_806_1307">
<rect width="40" height="4.1727" fill="white" transform="translate(0.554688 5.91367)"/>
</clipPath>
</defs>
</svg>
