<svg width="14" height="16" viewBox="0 0 14 16" fill="none" xmlns="http://www.w3.org/2000/svg">
<g clip-path="url(#clip0_757_329)">
<path fill-rule="evenodd" clip-rule="evenodd" d="M12.6455 0H1.36054C0.444922 0 0.108154 0.337306 0.108154 1.25239V12.2947L0.121603 12.5836C0.142046 12.7837 0.146888 12.9774 0.332487 13.1969C0.400026 13.2534 0.469463 13.3076 0.54068 13.3593L0.827417 13.4928L6.38408 15.8206C6.67297 15.9524 6.79294 16.0045 7.00275 15.9997H7.00436C7.21417 16.004 7.33414 15.9524 7.62302 15.8206L13.1797 13.4928L13.4664 13.3593L13.6746 13.1969C13.8602 12.9763 13.8645 12.7826 13.8855 12.5836C13.8949 12.4876 13.8994 12.3912 13.899 12.2947V1.25293C13.899 0.337306 13.5611 0.000537993 12.6466 0.000537993H12.6455V0Z" fill="#292929"/>
<path d="M11.8887 11.1005L11.8858 11.1263L11.8832 11.1539L11.8784 11.1797L11.8707 11.2051L11.8657 11.2278L11.8581 11.2536L11.8478 11.2764L11.8375 11.2965L11.8277 11.3197L11.8152 11.3398L11.8021 11.3604L11.787 11.3805L11.7743 11.4006L11.7592 11.4186L11.7413 11.4365L11.7264 11.4518L11.7058 11.4697L11.6883 11.4851L11.6678 11.5004L11.6476 11.5126L11.6275 11.5279L11.6045 11.541L11.5818 11.5515L11.5588 11.5638L11.5335 11.5743L11.5083 11.5844L11.4827 11.5922L11.4576 11.5997L11.4344 11.6075L11.4092 11.6124L11.3865 11.6172L11.3635 11.6224L11.3386 11.6277L11.313 11.6303L11.2902 11.6329L11.2646 11.6351L11.2368 11.6377L11.2117 11.6404H11.1052L11.0796 11.6377H11.0518L11.0266 11.6351L11.0013 11.6329L10.973 11.6303L10.9479 11.6246L10.9223 11.6224L10.8971 11.6172L10.8718 11.6124L10.8466 11.6075L10.821 11.6019L10.7957 11.5944L10.7727 11.5896L10.7475 11.5817L10.7222 11.5743L10.6992 11.5638L10.6743 11.5564L10.6513 11.5485L10.6257 11.5384L10.6029 11.5279L10.58 11.5183L10.5572 11.5056L10.5345 11.4956L10.5115 11.4824L10.4914 11.4697L10.4684 11.4575L10.4483 11.4444L10.4282 11.4317L10.4076 11.4164L10.3875 11.4006L10.3674 11.3857L10.347 11.3704L10.3293 11.3551L10.309 11.3372L10.3243 11.3171L10.3418 11.2991L10.3571 11.279L10.3748 11.2584L10.3901 11.2405L10.4054 11.2204L10.4229 11.1998L10.438 11.1823L10.456 11.1618L10.4713 11.1438L10.4892 11.1237L10.5039 11.1031L10.5196 11.0856L10.5371 11.0646L10.5522 11.0445L10.5701 11.0266L10.5854 11.006L10.6056 11.0213L10.6285 11.0371L10.6487 11.0524L10.6714 11.0677L10.6915 11.0799L10.7145 11.0953L10.7346 11.1084L10.7578 11.118L10.7782 11.1311L10.8009 11.1416L10.8239 11.1513L10.8466 11.1618L10.8689 11.1692L10.8923 11.1797L10.9175 11.1871L10.9429 11.1946L10.9654 11.2024L10.9908 11.2073L11.0164 11.2125L11.0415 11.2178L11.0697 11.2204L11.0949 11.2252H11.1203L11.148 11.2278H11.2036L11.2318 11.2252L11.2574 11.2204L11.2797 11.2156L11.3027 11.2099L11.3232 11.2024L11.3407 11.1919L11.3613 11.1766L11.3762 11.1591L11.3865 11.1386L11.3941 11.1158L11.3967 11.0904V11.0856L11.3941 11.0546L11.3838 11.0292L11.3712 11.0117L11.3537 10.9964L11.3331 10.9806L11.313 10.9706L11.2902 10.9605L11.2646 10.95L11.2342 10.9378L11.2167 10.9321L11.1964 10.9273L11.1736 10.9198L11.1509 10.9146L11.1253 10.9071L11.0997 10.9019L11.0719 10.894L11.0468 10.8892L11.0185 10.8818L10.9936 10.8761L10.968 10.8686L10.9429 10.8638L10.9175 10.856L10.8945 10.8485L10.8689 10.8437L10.8466 10.8354L10.8239 10.828L10.8009 10.8201L10.7727 10.8105L10.7475 10.8L10.7222 10.7899L10.697 10.7794L10.6743 10.7672L10.6487 10.754L10.6285 10.7413L10.6056 10.7287L10.5854 10.7138L10.5649 10.7007L10.5474 10.6853L10.5115 10.6495L10.4962 10.632L10.4815 10.614L10.4684 10.5961L10.456 10.576L10.4435 10.5528L10.4332 10.5353L10.4255 10.5147L10.4179 10.492L10.4102 10.4719L10.4054 10.446L10.4 10.4233L10.3978 10.3979L10.3951 10.3721L10.3923 10.3446V10.2859L10.3951 10.2601L10.3978 10.2374L10.4 10.212L10.4054 10.1892L10.4102 10.1661L10.4179 10.1429L10.4229 10.1201L10.4332 10.0974L10.4435 10.0742L10.4533 10.0514L10.4658 10.0287L10.4789 10.0055L10.494 9.98539L10.5093 9.96482L10.5268 9.94426L10.5448 9.92633L10.5623 9.9062L10.5828 9.88827L10.6003 9.87558L10.6209 9.86027L10.641 9.84496L10.6611 9.83227L10.6841 9.81958L10.7068 9.80952L10.7296 9.79683L10.7526 9.78633L10.7782 9.7789L10.8031 9.76884L10.8261 9.7614L10.8466 9.75571L10.8689 9.7509L10.8923 9.74565L10.9175 9.74084L10.9402 9.73559L10.9908 9.73034L11.0164 9.72815L11.0415 9.72552H11.1509L11.1787 9.72815L11.2064 9.73034H11.2318L11.2596 9.73296L11.2852 9.73777L11.313 9.74084L11.3386 9.74565L11.3613 9.7509L11.3865 9.75571L11.4121 9.7614L11.4344 9.76621L11.46 9.77365L11.4827 9.78152L11.5057 9.78633L11.531 9.79683L11.554 9.80427L11.5763 9.81433L11.5993 9.82483L11.6247 9.83489L11.6476 9.84758L11.6678 9.85808L11.6905 9.87033L11.7135 9.88302L11.7336 9.89614L11.7563 9.91145L11.7771 9.9237L11.7973 9.93945L11.8375 9.97007L11.8228 9.9902L11.8097 10.0108L11.7946 10.0309L11.7793 10.0514L11.7644 10.0742L11.7515 10.0943L11.7362 10.1153L11.7211 10.1354L11.7084 10.156L11.6934 10.1761L11.678 10.1967L11.6651 10.2168L11.6503 10.2396L11.6349 10.2601L11.6199 10.2802L11.6067 10.3012L11.5921 10.3214L11.5715 10.3061L11.5485 10.2934L11.5284 10.2802L11.5083 10.2654L11.4853 10.2553L11.4648 10.2422L11.4425 10.2321L11.4219 10.2221L11.3989 10.212L11.3788 10.2015L11.3561 10.1941L11.3357 10.1836L11.3079 10.1761L11.2826 10.1683L11.2574 10.1608L11.2318 10.156L11.2064 10.1503L11.1813 10.1455L11.1557 10.1429L11.1301 10.1407L11.1074 10.1381H11.0518L11.024 10.1429L10.9984 10.1481L10.9757 10.1534L10.9555 10.1634L10.9376 10.1739L10.9146 10.1941L10.8996 10.2168L10.8897 10.2396L10.8869 10.2654V10.2706L10.8897 10.3039L10.9022 10.3314L10.9125 10.3467L10.93 10.3647L10.9527 10.3774L10.973 10.39L10.9984 10.4005L11.0266 10.4102L11.0568 10.4207L11.0774 10.4255L11.0975 10.4334L11.1203 10.4386L11.1432 10.446L11.1682 10.4513L11.1964 10.4587L11.2242 10.4662L11.2519 10.474L11.2797 10.4793L11.3053 10.4872L11.3331 10.4946L11.3587 10.4994L11.3838 10.5073L11.4092 10.5147L11.4322 10.5226L11.4576 10.5305L11.4805 10.5379L11.5028 10.5458L11.531 10.5554L11.5562 10.5681L11.5818 10.5782L11.6067 10.5913L11.6301 10.604L11.6524 10.6167L11.6732 10.6293L11.6934 10.6447L11.7135 10.6573L11.7336 10.6753L11.7542 10.6932L11.7717 10.7138L11.7896 10.7313L11.8049 10.7518L11.82 10.7746L11.8327 10.7947L11.8452 10.8179L11.8554 10.838L11.8631 10.8612L11.8707 10.884L11.8756 10.9071L11.881 10.9321L11.8858 10.9579L11.8887 10.9833L11.8913 11.0117V11.0725L11.8887 11.1005Z" fill="white"/>
<path d="M8.65726 11.6097V9.75571H10.123V10.1761H9.14154V10.4793H10.0241V10.8739H9.14154V11.1898H10.1357V11.6097H8.65726Z" fill="white"/>
<path d="M7.79371 11.6097V10.5134L7.78124 10.534L7.76593 10.5567L7.75346 10.5773L7.73815 10.5974L7.72568 10.6206L7.70993 10.6412L7.69746 10.6613L7.68478 10.6845L7.66968 10.7046L7.657 10.7252L7.6419 10.7453L7.62878 10.7689L7.61369 10.789L7.601 10.8096L7.58853 10.8323L7.57322 10.8529L7.56075 10.873L7.54544 10.8958L7.53297 10.9168L7.51722 10.9369L7.50475 10.9601L7.49229 10.9802L7.47697 11.0008L7.46451 11.0235L7.44919 11.0441L7.43629 11.0642L7.42098 11.0852L7.40851 11.1079L7.39582 11.1285L7.38073 11.1486L7.36804 11.1718L7.35295 11.1919L7.33983 11.2121L7.32473 11.2357L7.31205 11.2558H7.3022L7.28667 11.2326L7.27399 11.2121L7.25889 11.1893L7.24621 11.1692L7.23111 11.1464L7.21799 11.1259L7.20333 11.1031L7.19021 11.0821L7.17512 11.0594L7.16243 11.0393L7.14734 11.0161L7.13465 10.9959L7.11956 10.9728L7.10643 10.9522L7.09178 10.929L7.07865 10.9089L7.06356 10.8861L7.04825 10.8656L7.03578 10.8428L7.02047 10.8218L7.008 10.7991L6.99269 10.779L6.97978 10.7558L6.96491 10.7357L6.952 10.7129L6.93669 10.6923L6.92422 10.6692L6.90891 10.6486L6.89644 10.6258L6.88113 10.6053L6.86823 10.5825L6.85335 10.5624L6.84045 10.5388L6.82514 10.5187V11.6097H6.34348V9.75571H6.8632L6.87588 9.77627L6.88879 9.79945L6.9041 9.81958L6.91657 9.84233L6.92904 9.86289L6.94216 9.88564L6.95463 9.90576L6.96994 9.92895L6.98241 9.94951L6.99531 9.96963L7.008 9.99238L7.02047 10.0125L7.03578 10.0357L7.04825 10.0558L7.06115 10.079L7.07384 10.0991L7.08893 10.1197L7.10162 10.1424L7.11409 10.1626L7.12699 10.1853L7.13968 10.2059L7.15477 10.2291L7.16746 10.2492L7.18037 10.2719L7.19305 10.2921L7.20552 10.3126L7.22061 10.3354L7.23374 10.3564L7.24621 10.3791L7.25889 10.3992L7.27136 10.422L7.28667 10.4425L7.29958 10.4649L7.31205 10.4854L7.32473 10.4649L7.33764 10.4425L7.35295 10.422L7.36542 10.3992L7.37789 10.3791L7.39057 10.3564L7.40567 10.3354L7.41879 10.3126L7.43126 10.2921L7.44373 10.2719L7.45904 10.2492L7.47151 10.2291L7.48463 10.2059L7.4971 10.1853L7.51241 10.1626L7.52488 10.1424L7.53778 10.1197L7.55047 10.0991L7.56294 10.079L7.57825 10.0558L7.59116 10.0357L7.60384 10.0125L7.61631 9.99238L7.6314 9.96963L7.64409 9.94951L7.657 9.92895L7.66968 9.90576L7.68478 9.88564L7.69746 9.86289L7.70993 9.84233L7.72284 9.81958L7.73815 9.79945L7.75062 9.77627L7.76374 9.75571H8.28324V11.6097H7.79371Z" fill="white"/>
<path d="M6.12713 11.5865L6.11685 11.5638L6.10701 11.541L6.09935 11.5157L6.08907 11.4925L6.07923 11.4697L6.05867 11.4242L6.04882 11.4006L6.03854 11.3757L6.02826 11.3529L6.02104 11.3297L6.01076 11.3066L6.00048 11.2838L5.99064 11.2611L5.98036 11.2357L5.96986 11.2125L5.96002 11.1897L5.94973 11.1666L5.9423 11.1438L5.93224 11.1206L5.92195 11.0953L5.91167 11.0725L5.90183 11.0498L5.89155 11.0266L5.88127 11.0038L5.87143 10.9806L5.86377 10.9557L5.85349 10.9321L5.84365 10.9093L5.82309 10.8638L5.8128 10.8406L5.80274 10.8153L5.79268 10.7925L5.78502 10.7698L5.77518 10.7461L5.76468 10.7234L5.7544 10.7007L5.74412 10.6753L5.73428 10.6521L5.724 10.6293L5.71415 10.6066L5.7065 10.5838L5.69622 10.5602L5.68594 10.5379L5.67609 10.5125L5.66581 10.4898L5.65553 10.4662L5.64569 10.4434L5.63541 10.4207L5.62775 10.3979L5.61747 10.3721L5.60763 10.3494L5.59713 10.3266L5.5875 10.3039L5.57701 10.2802L5.56672 10.2575L5.55688 10.2321L5.54923 10.2094L5.53894 10.1862L5.52866 10.1634L5.51882 10.1407L5.50854 10.1179L5.4987 10.0921L5.48842 10.0694L5.47814 10.0462L5.47048 10.0234L5.46064 10.0003L5.45036 9.9775L5.44051 9.95213L5.43023 9.92938L5.41995 9.9062L5.40945 9.88301L5.39961 9.86026L5.39195 9.83751L5.38189 9.8117L5.37183 9.78895L5.35127 9.74345H4.88229L4.87245 9.7662L4.85189 9.8117L4.84423 9.83751L4.83439 9.86026L4.82411 9.88301L4.81383 9.9062L4.80399 9.92938L4.79349 9.95213L4.78321 9.9775L4.77336 10.0003L4.76593 10.0234L4.75543 10.0462L4.74515 10.0694L4.7353 10.0921L4.72502 10.1179L4.71518 10.1407L4.7049 10.1634L4.69505 10.1862L4.68696 10.2094L4.67712 10.2321L4.66684 10.2575L4.65699 10.2802L4.64671 10.3039L4.63643 10.3266L4.62637 10.3494L4.61609 10.3721L4.60865 10.3979L4.59837 10.4207L4.58831 10.4434L4.57803 10.4662L4.56819 10.4898L4.55791 10.5125L4.54763 10.5379L4.53778 10.5602L4.53013 10.5838L4.50956 10.6293L4.49972 10.6521L4.48944 10.6753L4.47916 10.7007L4.46932 10.7234L4.45882 10.7461L4.45138 10.7698L4.4411 10.7925L4.43126 10.8153L4.42076 10.8406L4.41048 10.8638L4.40063 10.8866L4.39035 10.9093L4.38051 10.9321L4.37242 10.9557L4.36257 10.9806L4.35229 11.0038L4.34245 11.0266L4.33217 11.0498L4.32189 11.0725L4.31204 11.0953L4.30176 11.1206L4.29411 11.1438L4.28427 11.1666L4.27398 11.1897L4.2637 11.2125L4.25386 11.2357L4.24358 11.2611L4.23352 11.2838L4.22324 11.3066L4.21558 11.3297L4.2053 11.3529L4.19546 11.3757L4.18518 11.4006L4.1749 11.4242L4.16505 11.447L4.14449 11.4925L4.13684 11.5157L4.12699 11.541L4.10643 11.5865L4.09659 11.6097H4.60865L4.61893 11.5865L4.62637 11.5638L4.63643 11.541L4.64671 11.5157L4.65437 11.4925L4.66465 11.4697L4.67449 11.447L4.68193 11.4242L4.69243 11.4006L4.70271 11.3779L4.70993 11.3551L4.71999 11.3297L4.73049 11.3066L4.73793 11.2838L4.74799 11.2611H5.47551L5.48579 11.2838L5.49323 11.3066L5.50351 11.3297L5.51357 11.3551L5.52145 11.3779L5.53151 11.4006L5.54179 11.4242L5.54923 11.447L5.55907 11.4697L5.56957 11.4925L5.57701 11.5157L5.5875 11.541L5.59713 11.5638L5.60478 11.5865L5.61507 11.6097H6.13741L6.12713 11.5865ZM4.89761 10.8686L4.90789 10.8459L4.91554 10.8231L4.92582 10.7973L4.93567 10.7746L4.9431 10.7514L4.9536 10.7282L4.96345 10.7028L4.97373 10.6801L4.98116 10.6569L4.99166 10.6337L5.00151 10.611L5.00916 10.5856L5.01944 10.5628L5.02972 10.5392L5.03716 10.5165L5.04722 10.4937L5.0575 10.4679L5.06778 10.4452L5.07478 10.422L5.08528 10.3992L5.09556 10.3734L5.10322 10.3507L5.11306 10.3275L5.12334 10.3507L5.13078 10.3734L5.14084 10.3992L5.15112 10.422L5.15878 10.4452L5.16906 10.4679L5.1789 10.4937L5.18634 10.5165L5.19684 10.5392L5.20712 10.5628L5.21478 10.5856L5.22462 10.611L5.23206 10.6337L5.24234 10.6569L5.25284 10.6801L5.26027 10.7028L5.27033 10.7282L5.28062 10.7514L5.28805 10.7746L5.29833 10.7973L5.3084 10.8231L5.31583 10.8459L5.32633 10.8686H4.89761Z" fill="white"/>
<path d="M3.89096 11.3731L3.87084 11.3884L3.8529 11.4006L3.83256 11.4164L3.812 11.4291L3.79187 11.4444L3.77175 11.4575L3.75163 11.4697L3.72822 11.4824L3.70591 11.4956L3.68294 11.5078L3.66019 11.5183L3.63745 11.5305L3.61185 11.541L3.58932 11.5515L3.56395 11.5612L3.54098 11.5717L3.51823 11.5791L3.49527 11.5865L3.47252 11.5944L3.44693 11.6019L3.42461 11.6097L3.39902 11.615L3.37627 11.6198L3.35068 11.6246L3.32553 11.6303L3.29993 11.6329L3.27215 11.6351L3.24678 11.6377L3.219 11.6404L3.19341 11.6425L3.16563 11.6456H3.0567L3.03132 11.6425L3.00354 11.6404L2.97795 11.6377L2.9528 11.6351L2.9272 11.6329L2.90183 11.6277L2.87668 11.6224L2.85393 11.6172L2.82833 11.6124L2.80537 11.6045L2.78043 11.5997L2.75746 11.5922L2.73472 11.5817L2.71175 11.5743L2.68681 11.5638L2.66341 11.5537L2.6411 11.5437L2.61813 11.5336L2.59538 11.5205L2.57482 11.5078L2.55229 11.4956L2.53173 11.4824L2.5116 11.4697L2.49104 11.4544L2.47092 11.4396L2.45057 11.4242L2.43264 11.4089L2.41536 11.3932L2.39742 11.3757L2.37992 11.3604L2.34405 11.3245L2.32874 11.3066L2.31365 11.2864L2.29833 11.2685L2.28587 11.2479L2.27055 11.2278L2.25809 11.2073L2.2454 11.1871L2.23249 11.1644L2.22003 11.1438L2.19968 11.0979L2.1894 11.0751L2.17956 11.0524L2.17147 11.0318L2.16162 11.0086L2.15637 10.9859L2.14915 10.9631L2.14369 10.9378L2.13625 10.9146L2.13122 10.8892L2.12859 10.8665L2.12356 10.8407L2.12094 10.8179L2.11831 10.7925L2.11612 10.7672L2.11328 10.7413V10.6573L2.11612 10.6293V10.604L2.11831 10.5782L2.12094 10.5506L2.12641 10.5252L2.12859 10.4994L2.13384 10.4767L2.1415 10.4513L2.14653 10.4255L2.15419 10.4027L2.16162 10.3774L2.16928 10.3542L2.17956 10.3288L2.1894 10.3061L2.19968 10.2833L2.20974 10.2601L2.22003 10.2374L2.23249 10.2146L2.2454 10.1941L2.25809 10.1739L2.27055 10.1534L2.28346 10.1333L2.29833 10.1123L2.31365 10.0921L2.32874 10.0716L2.34405 10.0536L2.36199 10.0361L2.3773 10.0182L2.39458 10.0003L2.41251 9.98232L2.43045 9.96745L2.45057 9.94951L2.46851 9.9342L2.48864 9.91889L2.50898 9.9062L2.5291 9.89133L2.54966 9.8782L2.56979 9.86552L2.59275 9.85283L2.6155 9.84014L2.63825 9.82702L2.66122 9.8174L2.68397 9.8069L2.70912 9.79421L2.72968 9.78633L2.75484 9.7789L2.77759 9.76884L2.80056 9.76359L2.8233 9.75571L2.8489 9.7509L2.87165 9.74346L2.8968 9.73777L2.92239 9.73559L2.94755 9.73034L2.97292 9.72815L2.99808 9.72552L3.04926 9.72028H3.15797L3.18619 9.7229L3.21397 9.72552H3.23912L3.26472 9.72815L3.2925 9.73296L3.31525 9.73559L3.34084 9.74084L3.36577 9.74565L3.38874 9.7509L3.41149 9.75571L3.43446 9.7614L3.45721 9.76884L3.48017 9.77365L3.5003 9.78152L3.52305 9.78896L3.54601 9.79946L3.56876 9.80952L3.59173 9.81958L3.61448 9.83227L3.63745 9.84233L3.65757 9.85546L3.68032 9.8677L3.70044 9.88083L3.72341 9.89352L3.74397 9.90883L3.7641 9.92151L3.80434 9.95214L3.82512 9.97007L3.84525 9.98539L3.82994 10.0055L3.812 10.0234L3.79691 10.044L3.77941 10.0641L3.7641 10.0847L3.74878 10.1022L3.73107 10.1228L3.71575 10.1429L3.70044 10.1608L3.68294 10.1814L3.66785 10.2015L3.64991 10.2221L3.6346 10.2396L3.61951 10.2601L3.60201 10.2802L3.5867 10.3012L3.56876 10.3192L3.55367 10.3393L3.53333 10.324L3.5132 10.3061L3.49264 10.2934L3.47252 10.2781L3.45239 10.2654L3.43161 10.2527L3.41149 10.2396L3.38874 10.2273L3.34849 10.2063L3.32771 10.1989L3.30496 10.1914L3.28265 10.1836L3.25925 10.1788L3.23409 10.1739L3.20872 10.1683L3.18357 10.1661L3.15579 10.1634L3.12757 10.1608H3.0742L3.04926 10.1634L3.02629 10.1661L3.0007 10.1713L2.97795 10.1761L2.95498 10.1836L2.93224 10.1914L2.90992 10.2015L2.88696 10.212L2.8664 10.2242L2.84627 10.2374L2.82615 10.2501L2.80821 10.2654L2.79027 10.2802L2.77278 10.2956L2.75746 10.3135L2.73953 10.3314L2.72443 10.352L2.71175 10.3695L2.69928 10.39L2.68681 10.4132L2.67369 10.4334L2.66341 10.4565L2.65575 10.4793L2.64591 10.502L2.63825 10.5279L2.63344 10.5528L2.62797 10.576L2.62316 10.604L2.62053 10.6293L2.61813 10.6552V10.7138L2.62053 10.7387L2.62316 10.7619L2.62535 10.7873L2.63081 10.8105L2.63563 10.8332L2.6411 10.856L2.64875 10.8791L2.65575 10.8997L2.66603 10.9246L2.67653 10.9478L2.689 10.9706L2.70147 10.9911L2.71459 11.0117L2.72968 11.0318L2.745 11.0498L2.76249 11.0677L2.77759 11.0856L2.79552 11.1005L2.81565 11.1158L2.83599 11.1311L2.85611 11.1438L2.87668 11.1565L2.89942 11.1666L2.92239 11.1766L2.94514 11.1871L2.9703 11.1946L2.99589 11.2024L3.02148 11.2073L3.04642 11.2125L3.07201 11.2156L3.09979 11.2178H3.15797L3.18619 11.2156L3.21397 11.2125L3.23912 11.2099L3.26472 11.2051L3.29009 11.1998L3.31525 11.1919L3.33799 11.1871L3.36096 11.1766L3.38109 11.1666L3.40405 11.1565L3.42177 11.1464L3.44211 11.1338V10.9019H3.07201V10.5305H3.90846V11.3577L3.89096 11.3731Z" fill="white"/>
<path d="M3.07553 5.56162H4.17425V4.71161H3.07553V2.97614H4.21822V2.12613H2.1424V8.26085H4.23528V7.41083H3.07553V5.56162Z" fill="white"/>
<path d="M10.9466 5.74581V7.13042C10.9466 7.37584 10.8333 7.48958 10.5975 7.48958H10.4234C10.179 7.48958 10.0657 7.37584 10.0657 7.13042V3.25657C10.0657 3.01115 10.179 2.89741 10.4234 2.89741H10.58C10.8158 2.89741 10.9291 3.01115 10.9291 3.25657V4.45744H11.8447V3.20364C11.8447 2.44199 11.4783 2.07364 10.7197 2.07364H10.2661C9.50771 2.07364 9.13214 2.45031 9.13214 3.21282V7.17417C9.13214 7.93669 9.50771 8.31335 10.2661 8.31335H10.7283C11.4873 8.31335 11.8622 7.93669 11.8622 7.17417V5.74581H10.9466Z" fill="white"/>
<path d="M8.63888 2.12613H7.70575V8.26085H8.63888V2.12613Z" fill="white"/>
<path d="M6.35179 4.8516C6.35179 5.09703 6.23848 5.21077 6.0029 5.21077H5.61946V2.9499H6.0029C6.23848 2.9499 6.35179 3.06364 6.35179 3.30906V4.8516ZM6.15121 2.12613H4.68588V8.26085H5.61946V6.03454H6.15121C6.91001 6.03454 7.28492 5.65787 7.28492 4.89535V3.26532C7.28492 2.5028 6.91001 2.12613 6.15121 2.12613Z" fill="white"/>
<path d="M4.34375 13.8076H9.68598L6.95898 14.7071L4.34375 13.8076Z" fill="white"/>
</g>
<defs>
<clipPath id="clip0_757_329">
<rect width="13.7908" height="16" fill="white" transform="translate(0.108154)"/>
</clipPath>
</defs>
</svg>
