<svg width="56" height="64" viewBox="0 0 56 64" fill="none" xmlns="http://www.w3.org/2000/svg">
<g clip-path="url(#clip0_757_329)">
<path fill-rule="evenodd" clip-rule="evenodd" d="M50.954 0H5.81424C2.15176 0 0.804688 1.34922 0.804688 5.00955V49.1789L0.858484 50.3344C0.940255 51.1349 0.959622 51.9096 1.70202 52.7875C1.97217 53.0135 2.24992 53.2303 2.53479 53.4374L3.68174 53.9711L25.9084 63.2822C27.064 63.8094 27.5438 64.0181 28.3831 63.9988H28.3895C29.2287 64.016 29.7086 63.8094 30.8642 63.2822L53.0908 53.9711L54.2378 53.4374L55.0706 52.7875C55.813 51.9053 55.8302 51.1306 55.9141 50.3344C55.9516 49.9504 55.9696 49.5647 55.9679 49.1789V5.01171C55.9679 1.34922 54.6165 0.00215197 50.9583 0.00215197H50.954V0Z" fill="#292929"/>
<path d="M47.9268 44.402L47.9154 44.5053L47.9049 44.6155L47.8857 44.7188L47.8551 44.8203L47.8349 44.9113L47.8043 45.0145L47.7632 45.1055L47.7221 45.186L47.6827 45.2787L47.6328 45.3592L47.5803 45.4415L47.52 45.522L47.4692 45.6025L47.4088 45.6742L47.3371 45.746L47.2776 45.8072L47.1953 45.879L47.1254 45.9402L47.0431 46.0015L46.9626 46.0505L46.8821 46.1117L46.7902 46.1642L46.6992 46.2062L46.6074 46.2552L46.5059 46.2972L46.4053 46.3374L46.3029 46.3689L46.2023 46.3987L46.1095 46.4302L46.0089 46.4494L45.9179 46.4687L45.826 46.4897L45.7263 46.5107L45.6239 46.5212L45.5329 46.5317L45.4306 46.5404L45.3195 46.5509L45.2188 46.5614H44.7927L44.6904 46.5509H44.5792L44.4786 46.5404L44.3771 46.5317L44.2643 46.5212L44.1636 46.4984L44.0613 46.4897L43.9607 46.4687L43.8592 46.4494L43.7585 46.4302L43.6562 46.4074L43.5547 46.3777L43.4628 46.3584L43.3622 46.3269L43.2607 46.2972L43.1688 46.2552L43.0691 46.2254L42.9772 46.1939L42.8748 46.1537L42.7838 46.1117L42.692 46.0732L42.601 46.0225L42.51 45.9822L42.4181 45.9297L42.3376 45.879L42.2458 45.83L42.1653 45.7775L42.0848 45.7267L42.0025 45.6655L41.922 45.6025L41.8415 45.543L41.7602 45.4817L41.6893 45.4205L41.6079 45.3487L41.6692 45.2682L41.7392 45.1965L41.8004 45.116L41.8713 45.0338L41.9325 44.962L41.9938 44.8815L42.0638 44.7993L42.1241 44.7293L42.1959 44.647L42.2571 44.5753L42.3289 44.4948L42.3875 44.4125L42.4505 44.3425L42.5205 44.2586L42.5809 44.1781L42.6526 44.1063L42.7138 44.0241L42.7943 44.0853L42.8862 44.1483L42.9667 44.2096L43.0577 44.2708L43.1382 44.3198L43.2301 44.381L43.3106 44.4335L43.4033 44.472L43.4847 44.5245L43.5757 44.5665L43.6675 44.605L43.7585 44.647L43.8478 44.6768L43.9414 44.7188L44.042 44.7485L44.1435 44.7783L44.2336 44.8098L44.3351 44.829L44.4375 44.85L44.5381 44.871L44.651 44.8815L44.7516 44.9008H44.8531L44.9642 44.9113H45.1865L45.2993 44.9008L45.4017 44.8815L45.4909 44.8623L45.5828 44.8395L45.6651 44.8098L45.7351 44.7678L45.8173 44.7065L45.8768 44.6365L45.9179 44.5543L45.9485 44.4633L45.959 44.3618V44.3425L45.9485 44.2183L45.9074 44.1168L45.8567 44.0468L45.7867 43.9856L45.7044 43.9226L45.6239 43.8823L45.5329 43.8421L45.4306 43.8001L45.309 43.7511L45.239 43.7283L45.1576 43.7091L45.0666 43.6793L44.9756 43.6583L44.8732 43.6286L44.7709 43.6076L44.6597 43.5761L44.5591 43.5568L44.4463 43.5271L44.3465 43.5043L44.2441 43.4746L44.1435 43.4553L44.042 43.4239L43.9502 43.3941L43.8478 43.3749L43.7585 43.3416L43.6675 43.3119L43.5757 43.2804L43.4628 43.2419L43.3622 43.1999L43.2607 43.1596L43.1601 43.1176L43.0691 43.0686L42.9667 43.0161L42.8862 42.9654L42.7943 42.9146L42.7138 42.8551L42.6316 42.8026L42.5616 42.7414L42.4181 42.5979L42.3569 42.5279L42.2982 42.4562L42.2458 42.3844L42.1959 42.3039L42.146 42.2112L42.1049 42.1412L42.0743 42.0589L42.0436 41.9679L42.013 41.8874L41.9938 41.7842L41.9719 41.6932L41.9631 41.5917L41.9526 41.4885L41.9413 41.3782V41.1437L41.9526 41.0405L41.9631 40.9495L41.9719 40.848L41.9938 40.757L42.013 40.6643L42.0436 40.5715L42.0638 40.4805L42.1049 40.3895L42.146 40.2968L42.1854 40.2058L42.2352 40.1148L42.2878 40.022L42.3481 39.9415L42.4094 39.8593L42.4794 39.7771L42.5511 39.7053L42.6211 39.6248L42.7034 39.5531L42.7733 39.5023L42.8556 39.4411L42.9361 39.3798L43.0166 39.3291L43.1085 39.2783L43.1994 39.2381L43.2904 39.1873L43.3823 39.1453L43.4847 39.1156L43.5844 39.0753L43.6763 39.0456L43.7585 39.0228L43.8478 39.0036L43.9414 38.9826L44.042 38.9634L44.133 38.9424L44.3351 38.9214L44.4375 38.9126L44.5381 38.9021H44.9756L45.0867 38.9126L45.1978 38.9214H45.2993L45.4104 38.9319L45.5128 38.9511L45.6239 38.9634L45.7263 38.9826L45.8173 39.0036L45.9179 39.0228L46.0203 39.0456L46.1095 39.0648L46.2119 39.0946L46.3029 39.1261L46.3948 39.1453L46.4963 39.1873L46.5881 39.2171L46.6774 39.2573L46.7692 39.2993L46.8707 39.3396L46.9626 39.3903L47.0431 39.4323L47.1341 39.4813L47.226 39.5321L47.3065 39.5846L47.3975 39.6458L47.4806 39.6948L47.5611 39.7578L47.7221 39.8803L47.6634 39.9608L47.611 40.043L47.5506 40.1235L47.4893 40.2058L47.4298 40.2968L47.3782 40.3773L47.317 40.4613L47.2566 40.5418L47.2058 40.624L47.1455 40.7045L47.0842 40.7867L47.0326 40.8672L46.9731 40.9582L46.9119 41.0405L46.8515 41.121L46.799 41.205L46.7404 41.2855L46.6581 41.2242L46.5663 41.1735L46.4858 41.121L46.4053 41.0615L46.3134 41.0212L46.2312 40.9687L46.1419 40.9285L46.0597 40.8882L45.9678 40.848L45.8873 40.806L45.7963 40.7762L45.7149 40.7342L45.6038 40.7045L45.5023 40.673L45.4017 40.6433L45.2993 40.624L45.1978 40.6013L45.0972 40.582L44.9948 40.5715L44.8925 40.5628L44.8015 40.5523H44.5792L44.4681 40.5715L44.3658 40.5925L44.2748 40.6135L44.1943 40.6538L44.1225 40.6958L44.0307 40.7762L43.9703 40.8672L43.9309 40.9582L43.9195 41.0615V41.0825L43.9309 41.2155L43.9808 41.3257L44.0219 41.387L44.0919 41.4587L44.1829 41.5095L44.2643 41.5602L44.3658 41.6022L44.4786 41.6407L44.5994 41.6827L44.6816 41.7019L44.7621 41.7334L44.8531 41.7544L44.945 41.7842L45.0447 41.8052L45.1576 41.8349L45.2687 41.8647L45.3798 41.8962L45.4909 41.9172L45.5933 41.9487L45.7044 41.9784L45.8068 41.9977L45.9074 42.0292L46.0089 42.0589L46.1008 42.0904L46.2023 42.1219L46.2941 42.1517L46.3834 42.1832L46.4963 42.2217L46.5969 42.2724L46.6992 42.3127L46.799 42.3652L46.8926 42.4159L46.9819 42.4667L47.065 42.5174L47.1455 42.5786L47.226 42.6294L47.3065 42.7011L47.3887 42.7729L47.4587 42.8551L47.5305 42.9251L47.5917 43.0074L47.6521 43.0984L47.7028 43.1789L47.7527 43.2716L47.7938 43.3521L47.8244 43.4448L47.8551 43.5358L47.8743 43.6286L47.8962 43.7283L47.9154 43.8316L47.9268 43.9331L47.9373 44.0468V44.2901L47.9268 44.402Z" fill="white"/>
<path d="M35.0011 46.4389V39.0228H40.8641V40.7045H36.9382V41.9172H40.4687V43.4956H36.9382V44.759H40.9149V46.4389H35.0011Z" fill="white"/>
<path d="M31.5469 46.4389V42.0537L31.497 42.1359L31.4358 42.2269L31.3859 42.3091L31.3247 42.3896L31.2748 42.4824L31.2118 42.5646L31.1619 42.6451L31.1112 42.7379L31.0508 42.8184L31.0001 42.9006L30.9397 42.9811L30.8872 43.0756L30.8268 43.1561L30.7761 43.2383L30.7262 43.3293L30.6649 43.4116L30.6151 43.4921L30.5538 43.5831L30.504 43.6671L30.441 43.7476L30.3911 43.8403L30.3412 43.9208L30.28 44.003L30.2301 44.094L30.1688 44.1763L30.1172 44.2568L30.056 44.3408L30.0061 44.4318L29.9554 44.514L29.895 44.5945L29.8442 44.6873L29.7839 44.7678L29.7314 44.8482L29.671 44.9427L29.6203 45.0232H29.5809L29.5188 44.9305L29.468 44.8482L29.4076 44.7573L29.3569 44.6768L29.2965 44.5858L29.244 44.5035L29.1854 44.4125L29.1329 44.3285L29.0725 44.2375L29.0218 44.157L28.9614 44.0643L28.9107 43.9838L28.8503 43.8911L28.7978 43.8088L28.7392 43.7161L28.6867 43.6356L28.6263 43.5446L28.5651 43.4623L28.5152 43.3713L28.4539 43.2873L28.4041 43.1963L28.3428 43.1158L28.2912 43.0231L28.2317 42.9426L28.1801 42.8516L28.1188 42.7694L28.069 42.6766L28.0077 42.5944L27.9578 42.5034L27.8966 42.4211L27.845 42.3301L27.7855 42.2496L27.7339 42.1552L27.6726 42.0747V46.4389H25.746V39.0228H27.8249L27.8756 39.1051L27.9272 39.1978L27.9885 39.2783L28.0383 39.3693L28.0882 39.4516L28.1407 39.5425L28.1906 39.623L28.2518 39.7158L28.3017 39.798L28.3533 39.8785L28.4041 39.9695L28.4539 40.05L28.5152 40.1428L28.5651 40.2233L28.6167 40.316L28.6674 40.3965L28.7278 40.4787L28.7786 40.5697L28.8284 40.6502L28.88 40.7412L28.9308 40.8235L28.9912 40.9162L29.0419 40.9967L29.0935 41.0877L29.1443 41.1682L29.1942 41.2505L29.2545 41.3414L29.307 41.4254L29.3569 41.5164L29.4076 41.5969L29.4575 41.6879L29.5188 41.7702L29.5704 41.8594L29.6203 41.9417L29.671 41.8594L29.7226 41.7702L29.7839 41.6879L29.8337 41.5969L29.8836 41.5164L29.9344 41.4254L29.9947 41.3414L30.0472 41.2505L30.0971 41.1682L30.147 41.0877L30.2082 40.9967L30.2581 40.9162L30.3106 40.8235L30.3605 40.7412L30.4217 40.6502L30.4716 40.5697L30.5232 40.4787L30.574 40.3965L30.6238 40.316L30.6851 40.2233L30.7367 40.1428L30.7874 40.05L30.8373 39.9695L30.8977 39.8785L30.9484 39.798L31.0001 39.7158L31.0508 39.623L31.1112 39.5425L31.1619 39.4516L31.2118 39.3693L31.2634 39.2783L31.3247 39.1978L31.3745 39.1051L31.427 39.0228H33.505V46.4389H31.5469Z" fill="white"/>
<path d="M24.8806 46.3462L24.8395 46.2552L24.8001 46.1642L24.7695 46.0627L24.7284 45.9699L24.689 45.8789L24.6067 45.6969L24.5674 45.6024L24.5262 45.5027L24.4851 45.4117L24.4562 45.319L24.4151 45.2262L24.374 45.1352L24.3346 45.0442L24.2935 44.9427L24.2515 44.85L24.2121 44.759L24.171 44.6662L24.1413 44.5753L24.101 44.4825L24.0599 44.381L24.0188 44.29L23.9794 44.199L23.9383 44.1063L23.8971 44.0153L23.8578 43.9225L23.8272 43.8228L23.786 43.7283L23.7467 43.6373L23.6644 43.4553L23.6233 43.3626L23.583 43.2611L23.5428 43.1701L23.5122 43.0791L23.4728 42.9846L23.4308 42.8936L23.3897 42.8026L23.3486 42.7011L23.3092 42.6084L23.2681 42.5174L23.2287 42.4264L23.1981 42.3354L23.1569 42.2409L23.1158 42.1516L23.0764 42.0501L23.0353 41.9592L22.9942 41.8647L22.9548 41.7737L22.9137 41.6827L22.8831 41.5917L22.842 41.4884L22.8026 41.3974L22.7606 41.3064L22.7221 41.2154L22.6801 41.1209L22.639 41.03L22.5996 40.9285L22.569 40.8375L22.5278 40.7447L22.4867 40.6537L22.4474 40.5627L22.4062 40.4717L22.3669 40.3685L22.3257 40.2775L22.2846 40.1847L22.254 40.0938L22.2146 40.001L22.1735 39.91L22.1341 39.8085L22.093 39.7175L22.0519 39.6248L22.0099 39.532L21.9705 39.441L21.9399 39.35L21.8996 39.2468L21.8594 39.1558L21.7771 38.9738H19.9012L19.8619 39.0648L19.7796 39.2468L19.749 39.35L19.7096 39.441L19.6685 39.532L19.6274 39.6248L19.588 39.7175L19.546 39.8085L19.5049 39.91L19.4655 40.001L19.4358 40.0938L19.3938 40.1847L19.3527 40.2775L19.3133 40.3685L19.2722 40.4717L19.2328 40.5627L19.1917 40.6537L19.1523 40.7447L19.1199 40.8375L19.0805 40.9285L19.0394 41.03L19 41.1209L18.9589 41.2154L18.9178 41.3064L18.8776 41.3974L18.8364 41.4884L18.8067 41.5917L18.7656 41.6827L18.7253 41.7737L18.6842 41.8647L18.6448 41.9592L18.6037 42.0501L18.5626 42.1516L18.5232 42.2409L18.4926 42.3354L18.4103 42.5174L18.371 42.6084L18.3298 42.7011L18.2887 42.8026L18.2493 42.8936L18.2073 42.9846L18.1776 43.0791L18.1365 43.1701L18.0971 43.2611L18.0551 43.3626L18.014 43.4553L17.9746 43.5463L17.9335 43.6373L17.8941 43.7283L17.8617 43.8228L17.8224 43.9225L17.7812 44.0153L17.7419 44.1063L17.7007 44.199L17.6596 44.29L17.6202 44.381L17.5791 44.4825L17.5485 44.5753L17.5091 44.6662L17.468 44.759L17.4269 44.85L17.3875 44.9427L17.3464 45.0442L17.3061 45.1352L17.265 45.2262L17.2344 45.319L17.1933 45.4117L17.1539 45.5027L17.1128 45.6024L17.0717 45.6969L17.0323 45.7879L16.95 45.9699L16.9194 46.0627L16.88 46.1642L16.7978 46.3462L16.7584 46.4389H18.8067L18.8478 46.3462L18.8776 46.2552L18.9178 46.1642L18.9589 46.0627L18.9895 45.9699L19.0307 45.8789L19.07 45.7879L19.0998 45.6969L19.1418 45.6024L19.1829 45.5115L19.2118 45.4205L19.252 45.319L19.294 45.2262L19.3238 45.1352L19.364 45.0442H22.2741L22.3152 45.1352L22.345 45.2262L22.3861 45.319L22.4264 45.4205L22.4579 45.5115L22.4981 45.6024L22.5392 45.6969L22.569 45.7879L22.6083 45.8789L22.6503 45.9699L22.6801 46.0627L22.7221 46.1642L22.7606 46.2552L22.7912 46.3462L22.8323 46.4389H24.9217L24.8806 46.3462ZM19.9625 43.4746L20.0036 43.3836L20.0342 43.2926L20.0754 43.1893L20.1147 43.0983L20.1445 43.0056L20.1865 42.9128L20.2259 42.8114L20.267 42.7204L20.2967 42.6276L20.3387 42.5349L20.3781 42.4439L20.4087 42.3424L20.4498 42.2514L20.491 42.1569L20.5207 42.0659L20.561 41.9749L20.6021 41.8717L20.6432 41.7807L20.6712 41.6879L20.7132 41.5969L20.7543 41.4937L20.7849 41.4027L20.8243 41.3099L20.8654 41.4027L20.8952 41.4937L20.9354 41.5969L20.9766 41.6879L21.0072 41.7807L21.0483 41.8717L21.0877 41.9749L21.1174 42.0659L21.1594 42.1569L21.2005 42.2514L21.2312 42.3424L21.2705 42.4439L21.3003 42.5349L21.3414 42.6276L21.3834 42.7204L21.4132 42.8114L21.4534 42.9128L21.4945 43.0056L21.5243 43.0983L21.5654 43.1893L21.6057 43.2926L21.6354 43.3836L21.6774 43.4746H19.9625Z" fill="white"/>
<path d="M15.9359 45.4922L15.8554 45.5535L15.7837 45.6025L15.7023 45.6655L15.6201 45.7162L15.5396 45.7775L15.4591 45.83L15.3786 45.879L15.285 45.9297L15.1957 45.9822L15.1038 46.0312L15.0128 46.0732L14.9219 46.1222L14.8195 46.1642L14.7294 46.2062L14.6279 46.2447L14.536 46.2867L14.445 46.3164L14.3531 46.3462L14.2621 46.3777L14.1598 46.4074L14.0705 46.4389L13.9682 46.4599L13.8772 46.4792L13.7748 46.4984L13.6742 46.5212L13.5718 46.5317L13.4607 46.5404L13.3592 46.5509L13.2481 46.5614L13.1457 46.5702L13.0346 46.5824H12.5989L12.4974 46.5702L12.3862 46.5614L12.2839 46.5509L12.1833 46.5404L12.0809 46.5317L11.9794 46.5107L11.8788 46.4897L11.7878 46.4687L11.6854 46.4494L11.5935 46.4179L11.4938 46.3987L11.4019 46.3689L11.3109 46.3269L11.2191 46.2972L11.1193 46.2552L11.0257 46.2149L10.9365 46.1747L10.8446 46.1344L10.7536 46.082L10.6713 46.0312L10.5812 45.9822L10.499 45.9297L10.4185 45.879L10.3362 45.8177L10.2557 45.7582L10.1744 45.697L10.1026 45.6357L10.0335 45.5727L9.96176 45.5027L9.89176 45.4415L9.74827 45.298L9.68702 45.2262L9.62665 45.1458L9.5654 45.074L9.51553 44.9918L9.45429 44.9113L9.40441 44.829L9.35367 44.7485L9.30204 44.6575L9.25217 44.5753L9.1708 44.3915L9.12968 44.3005L9.09031 44.2096L9.05793 44.1273L9.01856 44.0346L8.99756 43.9436L8.96869 43.8526L8.94681 43.7511L8.91707 43.6583L8.89694 43.5568L8.88644 43.4658L8.86632 43.3626L8.85582 43.2716L8.84532 43.1701L8.83657 43.0686L8.8252 42.9654V42.6294L8.83657 42.5174V42.4159L8.84532 42.3127L8.85582 42.2024L8.87769 42.1009L8.88644 41.9977L8.90744 41.9067L8.93806 41.8052L8.95819 41.7019L8.98881 41.611L9.01856 41.5095L9.04918 41.4167L9.09031 41.3152L9.12968 41.2242L9.1708 41.1332L9.21105 41.0405L9.25217 40.9495L9.30204 40.8585L9.35367 40.7762L9.40441 40.6958L9.45429 40.6135L9.50591 40.533L9.5654 40.449L9.62665 40.3685L9.68702 40.2863L9.74827 40.2145L9.82001 40.1445L9.88126 40.0728L9.95038 40.001L10.0221 39.9293L10.0939 39.8698L10.1744 39.7981L10.2461 39.7368L10.3266 39.6756L10.408 39.6248L10.4885 39.5653L10.5707 39.5128L10.6512 39.4621L10.7431 39.4113L10.8341 39.3606L10.9251 39.3081L11.0169 39.2696L11.1079 39.2276L11.2086 39.1768L11.2908 39.1453L11.3914 39.1156L11.4824 39.0753L11.5743 39.0543L11.6653 39.0228L11.7677 39.0036L11.8587 38.9738L11.9593 38.9511L12.0616 38.9424L12.1623 38.9214L12.2638 38.9126L12.3644 38.9021L12.5691 38.8811H13.004L13.1168 38.8916L13.2279 38.9021H13.3286L13.4309 38.9126L13.5421 38.9319L13.6331 38.9424L13.7354 38.9634L13.8352 38.9826L13.927 39.0036L14.018 39.0228L14.1099 39.0456L14.2009 39.0753L14.2928 39.0946L14.3733 39.1261L14.4643 39.1558L14.5561 39.1978L14.6471 39.2381L14.739 39.2783L14.83 39.3291L14.9219 39.3693L15.0023 39.4218L15.0933 39.4708L15.1738 39.5233L15.2657 39.5741L15.348 39.6353L15.4285 39.6861L15.5894 39.8086L15.6726 39.8803L15.7531 39.9415L15.6918 40.022L15.6201 40.0938L15.5597 40.176L15.4897 40.2565L15.4285 40.3388L15.3672 40.4088L15.2963 40.491L15.2351 40.5715L15.1738 40.6433L15.1038 40.7255L15.0435 40.806L14.9717 40.8882L14.9105 40.9582L14.8501 41.0405L14.7801 41.121L14.7189 41.205L14.6471 41.2767L14.5867 41.3572L14.5054 41.296L14.4249 41.2242L14.3426 41.1735L14.2621 41.1122L14.1816 41.0615L14.0985 41.0107L14.018 40.9582L13.927 40.9092L13.766 40.8252L13.6829 40.7955L13.5919 40.7657L13.5027 40.7342L13.4091 40.715L13.3084 40.6958L13.207 40.673L13.1063 40.6643L12.9952 40.6538L12.8823 40.6433H12.6689L12.5691 40.6538L12.4772 40.6643L12.3749 40.6853L12.2839 40.7045L12.192 40.7342L12.101 40.7657L12.0118 40.806L11.9199 40.848L11.8377 40.897L11.7572 40.9495L11.6767 41.0002L11.6049 41.0615L11.5332 41.121L11.4632 41.1822L11.4019 41.254L11.3302 41.3257L11.2698 41.408L11.2191 41.478L11.1692 41.5602L11.1193 41.6529L11.0668 41.7334L11.0257 41.8262L10.9951 41.9172L10.9557 42.0082L10.9251 42.1114L10.9058 42.2112L10.884 42.3039L10.8647 42.4159L10.8542 42.5174L10.8446 42.6206V42.8551L10.8542 42.9549L10.8647 43.0476L10.8735 43.1491L10.8953 43.2419L10.9146 43.3329L10.9365 43.4239L10.9671 43.5166L10.9951 43.5988L11.0362 43.6986L11.0782 43.7913L11.1281 43.8823L11.1779 43.9646L11.2304 44.0468L11.2908 44.1273L11.3521 44.1991L11.422 44.2708L11.4824 44.3425L11.5542 44.402L11.6347 44.4633L11.716 44.5245L11.7965 44.5753L11.8788 44.626L11.9698 44.6663L12.0616 44.7065L12.1526 44.7485L12.2533 44.7783L12.3556 44.8098L12.458 44.829L12.5577 44.85L12.6601 44.8623L12.7712 44.871H13.004L13.1168 44.8623L13.2279 44.85L13.3286 44.8395L13.4309 44.8203L13.5324 44.7993L13.6331 44.7678L13.724 44.7485L13.8159 44.7065L13.8964 44.6663L13.9883 44.626L14.0592 44.5858L14.1405 44.535V43.6076H12.6601V42.1219H16.0059V45.431L15.9359 45.4922Z" fill="white"/>
<path d="M12.6742 22.2465H17.0691V18.8464H12.6742V11.9046H17.2449V8.50452H8.94165V33.0434H17.3132V29.6433H12.6742V22.2465Z" fill="white"/>
<path d="M44.1584 22.9832V28.5217C44.1584 29.5034 43.7051 29.9583 42.7619 29.9583H42.0655C41.0882 29.9583 40.6349 29.5034 40.6349 28.5217V13.0263C40.6349 12.0446 41.0882 11.5896 42.0655 11.5896H42.6919C43.6351 11.5896 44.0884 12.0446 44.0884 13.0263V17.8298H47.7509V12.8146C47.7509 9.76797 46.2854 8.29456 43.251 8.29456H41.4364C38.4029 8.29456 36.9006 9.80122 36.9006 12.8513V28.6967C36.9006 31.7467 38.4029 33.2534 41.4364 33.2534H43.2852C46.3212 33.2534 47.8209 31.7467 47.8209 28.6967V22.9832H44.1584Z" fill="white"/>
<path d="M34.9276 8.50452H31.1951V33.0434H34.9276V8.50452Z" fill="white"/>
<path d="M25.7792 19.4064C25.7792 20.3881 25.326 20.8431 24.3837 20.8431H22.8499V11.7996H24.3837C25.326 11.7996 25.7792 12.2546 25.7792 13.2363V19.4064ZM24.9769 8.50452H19.1156V33.0434H22.8499V24.1381H24.9769C28.0121 24.1381 29.5118 22.6315 29.5118 19.5814V13.0613C29.5118 10.0112 28.0121 8.50452 24.9769 8.50452Z" fill="white"/>
<path d="M17.7471 55.2304H39.116L28.208 58.8282L17.7471 55.2304Z" fill="white"/>
</g>
<defs>
<clipPath id="clip0_757_329">
<rect width="55.1633" height="64" fill="white" transform="translate(0.804688)"/>
</clipPath>
</defs>
</svg>
