<svg width="41" height="16" viewBox="0 0 41 16" fill="none" xmlns="http://www.w3.org/2000/svg">
<g clip-path="url(#clip0_806_1695)">
<g clip-path="url(#clip1_806_1695)">
<path d="M1.77259 8.89917C1.45601 8.89917 1.16562 8.72064 1.02399 8.4362L0.563399 7.51502C0.536025 7.45908 0.57649 7.39362 0.638378 7.39362H2.99726C3.31385 7.39362 3.60423 7.57334 3.74587 7.8566L4.20646 8.77895C4.23382 8.83489 4.19337 8.90035 4.13149 8.90035H1.77259V8.89917ZM5.25616 9.4014H1.25488L1.77617 10.4452C1.91779 10.7284 2.207 10.9081 2.52477 10.9081H6.52488L6.00359 9.86437C5.86195 9.58111 5.57275 9.4026 5.25498 9.4026M6.00359 6.43079L6.52488 5.38702H2.52477C2.20819 5.38702 1.91779 5.56674 1.77617 5.84999L1.25488 6.89376H5.25498C5.57157 6.89376 5.86195 6.71523 6.00359 6.43079Z" fill="#1751E8"/>
<path fill-rule="evenodd" clip-rule="evenodd" d="M39.1037 8.61947V8.66708L40.5545 10.9081H39.8131L38.5981 8.95866H37.8564V10.9081H37.2341V4.99069H37.8564V8.39097H38.5742L39.7346 6.80567H40.4522L39.1037 8.61947ZM11.5089 8.38264H9.34762V10.3321H11.9433V10.9069H8.7085V5.38464H11.8564V5.96901H9.34762V7.8066H11.5089V8.38264ZM14.0892 10.3238H14.1368L15.3674 6.80567H16.0541L14.5307 10.9069H13.7107L12.1802 6.80567H12.8502L14.0892 10.3238ZM18.3012 6.70213C17.2122 6.70213 16.3136 7.56142 16.3136 8.87177C16.3136 10.1821 17.0944 11.0093 18.3405 11.0093C19.2878 11.0093 19.9662 10.4654 20.1947 9.70012L19.5877 9.55851C19.4532 10.1262 18.9248 10.4582 18.3488 10.4582C17.4966 10.4582 16.9599 9.9453 16.9527 9.03007H20.2506V8.80157C20.2506 7.57095 19.5401 6.70332 18.3024 6.70332L18.3012 6.70213ZM16.9682 8.52426C17.0158 7.75066 17.6311 7.26269 18.3012 7.26269C18.9712 7.26269 19.5711 7.67328 19.6103 8.52426H16.9682ZM21.6752 7.4912H21.7229V7.49001C21.8407 7.14249 22.2429 6.70094 22.8428 6.70094H23.1118V7.32458H22.7404C21.9918 7.32458 21.6836 7.93274 21.6836 8.71348V10.9069H21.0599V6.80448H21.6752V7.4912ZM26.6345 8.0363V7.9887C27.0762 7.75184 27.3368 7.34125 27.3368 6.79735C27.3368 5.99281 26.7133 5.38464 25.6646 5.38464H23.8818V10.9069H25.8228C26.7536 10.9069 27.5272 10.3309 27.5272 9.33713C27.5272 8.55639 27.006 8.16126 26.6357 8.0351L26.6345 8.0363ZM24.5209 5.95353H25.6646C26.2563 5.95353 26.6822 6.30106 26.6822 6.84496C26.6822 7.38885 26.2645 7.77565 25.6407 7.77565H24.5209V5.95353ZM25.7122 10.3476H24.5209V8.31241H25.6407C26.2798 8.31241 26.8643 8.59687 26.8643 9.32286C26.8643 10.0488 26.3669 10.3488 25.7122 10.3488V10.3476ZM31.3738 7.4674H31.4212V6.80568H32.0521V10.9069H31.4212V10.2595H31.3974C31.2951 10.4261 30.9166 11.0093 30.0251 11.0093C28.8493 11.0093 28.0211 10.125 28.0211 8.86345C28.0211 7.60187 28.8101 6.70213 29.9777 6.70213C30.8285 6.70213 31.2559 7.25436 31.3738 7.4674ZM28.6602 8.87177C28.6602 9.82629 29.2672 10.4499 30.0562 10.4499C30.9166 10.4499 31.4451 9.73225 31.4451 8.87177C31.4451 7.8542 30.8536 7.26983 30.049 7.26983C29.2446 7.26983 28.6602 7.91729 28.6602 8.87177ZM34.8573 6.70213C34.2182 6.70213 33.7767 7.03418 33.6029 7.40432H33.5552V6.80448H32.9317V10.9069H33.5552V8.46117C33.5552 7.78279 34.0599 7.2853 34.7075 7.2853C35.2834 7.2853 35.7643 7.71139 35.7643 8.36596V10.9057H36.3878V8.3255C36.3878 7.4186 35.8119 6.69975 34.8573 6.69975V6.70213Z" fill="#231F20"/>
</g>
</g>
<defs>
<clipPath id="clip0_806_1695">
<rect width="40" height="16" fill="white" transform="translate(0.554688)"/>
</clipPath>
<clipPath id="clip1_806_1695">
<rect width="40" height="6.01861" fill="white" transform="translate(0.554688 4.99069)"/>
</clipPath>
</defs>
</svg>
