<svg width="17" height="16" viewBox="0 0 17 16" fill="none" xmlns="http://www.w3.org/2000/svg">
<g clip-path="url(#clip0_813_478)">
<path d="M16.0742 8C16.0742 3.58176 12.4925 0 8.07422 0C3.65598 0 0.0742188 3.58176 0.0742188 8C0.0742188 11.7517 2.65726 14.8998 6.14174 15.7645V10.4448H4.49214V8H6.14174V6.94656C6.14174 4.22368 7.37406 2.9616 10.0473 2.9616C10.5542 2.9616 11.4288 3.06112 11.7865 3.16032V5.37632C11.5977 5.35648 11.2697 5.34656 10.8624 5.34656C9.5507 5.34656 9.04382 5.84352 9.04382 7.13536V8H11.6569L11.208 10.4448H9.04382V15.9414C13.0051 15.463 16.0745 12.0902 16.0745 8H16.0742Z" fill="#0866FF"/>
<path d="M11.2077 10.4448L11.6566 8.00001H9.0435V7.13537C9.0435 5.84353 9.55038 5.34657 10.8621 5.34657C11.2694 5.34657 11.5974 5.35649 11.7862 5.37633V3.16033C11.4285 3.06081 10.5539 2.96161 10.047 2.96161C7.37374 2.96161 6.14142 4.22369 6.14142 6.94657V8.00001H4.49182V10.4448H6.14142V15.7645C6.7603 15.9181 7.40766 16 8.0739 16C8.4019 16 8.72542 15.9798 9.04318 15.9414V10.4448H11.2073H11.2077Z" fill="white"/>
</g>
<defs>
<clipPath id="clip0_813_478">
<rect width="16.0003" height="16" fill="white" transform="translate(0.0742188)"/>
</clipPath>
</defs>
</svg>
