<svg width="41" height="16" viewBox="0 0 41 16" fill="none" xmlns="http://www.w3.org/2000/svg">
<g clip-path="url(#clip0_857_273)">
<g clip-path="url(#clip1_857_273)">
<path d="M19.2529 7.08489C20.0456 7.08489 20.7189 7.48663 21.1206 8.0405L22.2228 6.93827C21.5604 6.1455 20.5341 5.57007 19.2529 5.57007C17.1028 5.57007 15.4575 7.26409 15.4575 9.36538C15.4575 11.4667 17.1028 13.1607 19.2529 13.1607C20.5343 13.1607 21.5604 12.5851 22.2228 11.7925L21.1206 10.6903C20.7189 11.2441 20.0456 11.6459 19.2529 11.6459C18.0149 11.6459 17.1028 10.6577 17.1028 9.36538C17.1028 8.07309 18.0149 7.08489 19.2529 7.08489Z" fill="#007099"/>
<path d="M2.36701 4.27228H5.78767L7.45998 2.59998H0.662109V13.0411H2.36701V8.56713H4.53885L6.18406 6.92193H2.36701V4.27228Z" fill="#007099"/>
<path d="M26.681 5.56992C24.5472 5.56992 22.9727 7.21515 22.9727 9.36525C22.9727 11.5426 24.645 13.1606 26.7354 13.1606C28.0875 13.1606 29.1949 12.5687 29.841 11.7598L28.7444 10.6684C28.359 11.2276 27.6041 11.6566 26.7354 11.6566C25.7037 11.6566 24.7102 10.9508 24.5906 9.70194H30.27C30.2754 9.60966 30.2754 9.52271 30.2754 9.43043C30.2754 7.11199 28.8039 5.56992 26.681 5.56992ZM24.6503 8.52366C24.9001 7.37797 25.8395 6.94915 26.6049 6.94915C27.5769 6.94915 28.4131 7.48127 28.5598 8.52366H24.6503Z" fill="#007099"/>
<path d="M12.4823 6.31922C11.9393 5.83592 11.2008 5.56992 10.4082 5.56992C8.24724 5.56992 6.73242 7.27484 6.73242 9.36525C6.73242 11.4557 8.24724 13.1606 10.4082 13.1606C11.201 13.1606 11.9394 12.9054 12.4823 12.4221V13.041H14.1002V5.68394H12.4823V6.31922ZM12.4823 10.6846C12.1023 11.2602 11.4397 11.6565 10.5711 11.6565C9.26255 11.6565 8.38299 10.6465 8.38299 9.36525C8.38299 8.08397 9.26255 7.06853 10.5711 7.06853C11.4397 7.06853 12.1023 7.47027 12.4823 8.05671V10.6846Z" fill="#007099"/>
<path d="M34.2715 10.5109V7.12825H35.4667L36.9108 5.68397H34.2715V3.69135H32.6536V5.68397H31.8572L30.4131 7.12825H32.6536V10.8639C32.6536 12.2593 33.4951 13.0411 34.8905 13.0411H35.3141L36.78 11.5697H35.2705C34.5377 11.5697 34.2715 11.2004 34.2715 10.5109Z" fill="#007099"/>
<path d="M39.1526 10.392L37.6377 11.8959L39.1526 13.4L40.6621 11.8959L39.1526 10.392Z" fill="#FF9100"/>
</g>
</g>
<defs>
<clipPath id="clip0_857_273">
<rect width="40" height="16" fill="white" transform="translate(0.662109)"/>
</clipPath>
<clipPath id="clip1_857_273">
<rect width="40" height="10.8001" fill="white" transform="translate(0.662109 2.59998)"/>
</clipPath>
</defs>
</svg>
