<svg width="17" height="16" viewBox="0 0 17 16" fill="none" xmlns="http://www.w3.org/2000/svg">
<g clip-path="url(#clip0_795_2193)">
<path d="M11.0479 0.13323C10.3113 0.644637 9.60103 0.882857 8.81296 0.882857C8.02481 0.882857 7.31458 0.644637 6.57788 0.13323L6.38596 0L6.19119 0.12899C5.35854 0.68034 4.68201 0.781203 3.64973 0.781203C3.29383 0.781203 2.91116 0.714037 2.54316 0.586941L2.29801 0.502305L2.14887 0.714432C2.06954 0.827252 2.0106 0.898913 1.95364 0.9682C1.88345 1.05354 1.81713 1.13419 1.73925 1.25937L1.61453 1.45985L1.7565 1.64851C2.38737 2.4869 2.62545 3.34943 2.62545 4.16136C2.62545 5.67543 1.7976 7.01335 1.14558 7.68991L0.910645 7.9337L1.15028 8.17285C1.27881 8.30113 1.50776 8.53867 1.69711 8.73768L1.6895 8.84202L1.68783 8.86102C1.68006 9.00571 1.67614 9.15058 1.67607 9.29548C1.67607 10.8331 2.13055 12.1115 3.02997 13.1002C4.07127 14.2451 5.69949 14.9285 7.62382 15.0349C8.10167 15.4701 8.58729 15.8313 8.60903 15.8474L8.81474 16L9.0202 15.8469C9.04177 15.8308 9.52477 15.4698 10.0021 15.0348C11.9263 14.9284 13.5545 14.245 14.5958 13.1002C15.4952 12.1114 15.9497 10.833 15.9497 9.29554C15.9497 9.15292 15.9458 9.00807 15.938 8.86096L15.9377 8.85754L15.936 8.83869C15.936 8.83869 15.9292 8.74532 15.9287 8.73765C16.104 8.5534 16.3404 8.30766 16.4755 8.17276L16.715 7.93361L16.4802 7.68985C15.8282 7.01324 15.0004 5.6752 15.0004 4.16114C15.0004 3.34926 15.2384 2.48676 15.8692 1.64846L16.0111 1.45988L15.8865 1.25942C15.8086 1.13414 15.7423 1.05349 15.6721 0.968086C15.6152 0.898828 15.5562 0.827196 15.477 0.714404L15.3279 0.502192L15.0827 0.586856C14.7147 0.713952 14.332 0.781118 13.9761 0.781118C12.9438 0.781118 12.2672 0.680256 11.4346 0.128905L11.2398 0L11.0479 0.13323Z" fill="black"/>
<path d="M8.81418 15.5707C8.81418 15.5707 8.26412 15.1627 7.76719 14.6985C4.5163 14.5637 1.82626 12.7407 2.0318 8.8793C2.04396 8.77742 2.03364 8.78429 2.05128 8.61047C1.86488 8.41324 1.55644 8.09146 1.39355 7.92891C2.55963 6.71888 3.92032 3.95107 2.03166 1.44127C2.15585 1.24161 2.24574 1.1754 2.43056 0.912506C2.80806 1.04285 3.22782 1.12565 3.64959 1.12565C4.73264 1.12565 5.47212 1.01817 6.38127 0.416138C7.10002 0.915078 7.87947 1.22728 8.81288 1.22728C9.74622 1.22728 10.5256 0.915078 11.2443 0.416138C12.1534 1.01815 12.8929 1.12565 13.9761 1.12565C14.3977 1.12565 14.8176 1.04288 15.1951 0.912506C15.3799 1.17538 15.4698 1.24161 15.5939 1.44127C13.7053 3.95107 15.0661 6.71888 16.232 7.92891C16.0692 8.09146 15.7607 8.41324 15.5743 8.61047C15.5919 8.78426 15.5817 8.77742 15.5938 8.8793C15.7993 12.7407 13.1092 14.5637 9.85847 14.6985C9.36151 15.1627 8.81418 15.5707 8.81418 15.5707Z" fill="#E2B900"/>
<path d="M2.6483 8.64902H2.60242L2.58286 8.81515L2.56875 8.92209C2.49288 10.4095 2.86374 11.6112 3.67078 12.4963C4.59646 13.5118 6.09617 14.0903 8.00777 14.1695C8.00964 14.1695 8.03989 14.1697 8.03989 14.1697C8.61346 14.1728 9.15517 14.1758 9.61606 14.1695C11.5291 14.0903 13.0288 13.5118 13.9545 12.4964C14.7615 11.6112 15.1324 10.4096 15.0567 8.92483C15.0565 8.92215 15.0423 8.8147 15.0423 8.8147L15.0229 8.651L14.9769 8.64905H2.6483V8.64902Z" fill="black"/>
<path d="M2.6946 8.75223L2.6853 8.83107C2.6853 8.83107 2.67224 8.93015 2.6721 8.93015C2.66582 9.05197 2.66265 9.17393 2.6626 9.29592C2.6626 10.5843 3.02684 11.6362 3.74755 12.4268C3.91979 12.6157 4.11266 12.7891 4.32482 12.9468V8.75223H2.6946ZM14.9542 8.93278L14.9408 8.83056L14.9315 8.75223H13.3013V12.9468C13.5135 12.7892 13.7064 12.6158 13.8786 12.4268C14.5994 11.6361 14.9637 10.5839 14.9637 9.29725C14.9636 9.17784 14.9605 9.05631 14.9542 8.93278Z" fill="#004B95"/>
<path d="M6.11999 8.75223H4.32471V12.9468C4.82147 13.316 5.42475 13.5979 6.11999 13.7879V8.75223ZM11.5059 8.75223V13.7878C12.2013 13.5978 12.8045 13.3159 13.3011 12.9468V8.75223H11.5059Z" fill="#A4234B"/>
<path d="M7.09222 11.3358C7.09222 10.7144 7.42169 10.17 7.91546 9.86748V8.75223H6.12012V13.7879C6.66437 13.9365 7.26505 14.0286 7.91546 14.0615V12.8042C7.42172 12.5017 7.09222 11.9573 7.09222 11.3358ZM9.71074 8.75223V9.86745C10.2045 10.1699 10.534 10.7144 10.534 11.3358C10.534 11.9572 10.2045 12.5017 9.71074 12.8042V14.0614C10.3612 14.0284 10.9619 13.9364 11.506 13.7877V8.75223H9.71074Z" fill="#004B95"/>
<path d="M9.71032 9.86748V8.75223H7.91504V9.86745C8.17635 9.70728 8.48366 9.6149 8.81262 9.6149C9.14161 9.61493 9.44898 9.70734 9.71032 9.86748ZM7.91504 12.8042V14.0615C7.94673 14.0632 7.97828 14.0649 8.01022 14.0662L8.04047 14.0664C8.61353 14.0695 9.15479 14.0724 9.61325 14.0663C9.64578 14.0649 9.67795 14.0631 9.71032 14.0615V12.8042C9.44895 12.9643 9.14159 13.0567 8.81262 13.0567C8.48369 13.0567 8.17635 12.9643 7.91504 12.8042Z" fill="#A4234B"/>
<path d="M7.93443 11.6481C7.62305 11.3645 7.62209 10.7882 7.70574 10.4054C7.72897 10.2988 7.75823 10.1945 7.78842 10.0752C7.42234 10.373 7.18848 10.8271 7.18848 11.3358C7.18819 11.5445 7.22825 11.7513 7.30644 11.9447C7.33412 11.9484 7.36225 11.9503 7.3908 11.9503C7.63131 11.9503 7.82769 11.8392 7.93443 11.6481ZM9.60652 11.7724C9.55323 12.0446 9.26212 12.2485 8.9878 12.4121C8.70515 12.5808 8.24926 12.6679 7.90622 12.6838C8.1651 12.8582 8.47699 12.96 8.81259 12.96C9.42515 12.96 9.95849 12.6209 10.235 12.1203C10.1866 11.7196 9.80567 11.6725 9.60652 11.7724Z" fill="#E2B900"/>
<path d="M7.78074 12.5897C8.11957 12.5923 8.64031 12.5071 8.9388 12.3291C9.32461 12.0989 9.62434 11.8532 9.48192 11.5127C9.40995 11.3406 9.17068 11.1415 8.86049 11.3612C8.84068 11.6154 8.52689 11.8396 8.30159 11.8107C8.18744 11.796 8.09178 11.76 8.01209 11.7079C7.88548 11.9242 7.65879 12.047 7.39134 12.047C7.37817 12.047 7.36503 12.0466 7.35205 12.0459C7.45429 12.2558 7.6005 12.4413 7.78074 12.5897ZM8.8089 10.3237C9.07754 10.2123 9.44989 10.357 9.7336 10.5154C10.0014 10.6651 10.2811 10.9444 10.4344 11.2376C10.3839 10.3908 9.68478 9.71891 8.82711 9.71167C8.57082 9.87998 8.60582 10.1973 8.8089 10.3237Z" fill="#E2B900"/>
<path d="M8.76305 11.36C8.43047 11.1174 8.4509 10.7357 8.594 10.509C8.62911 10.4533 8.66999 10.4096 8.71538 10.3761C8.52203 10.2218 8.48333 9.92232 8.67064 9.71771C8.39845 9.7412 8.13666 9.83336 7.90979 9.98556C7.83886 10.2906 7.74857 10.5691 7.75309 10.8877C7.75917 11.3171 7.9369 11.6666 8.31343 11.7149C8.48915 11.7374 8.74269 11.5504 8.76305 11.36Z" fill="#E2B900"/>
<path d="M10.4302 11.4852C10.3375 11.1492 10.0043 10.7777 9.68611 10.5999C9.29377 10.3807 8.86456 10.2616 8.67584 10.5607C8.55471 10.7526 8.53786 11.0697 8.81266 11.2763C9.1862 11.0183 9.48458 11.2692 9.57074 11.4755C9.59842 11.5416 9.61244 11.6044 9.6149 11.6642C9.83536 11.5866 10.1937 11.6366 10.304 11.9807C10.3721 11.8233 10.4147 11.656 10.4302 11.4852Z" fill="#E2B900"/>
<path d="M7.33224 6.77655H6.19692V8.37288H6.54284V7.71427H7.01391V7.37723H6.54284V7.11583H7.34889V6.77661L7.33224 6.77655ZM7.99248 7.57468C7.99248 8.0745 8.2672 8.39741 8.69236 8.39741C8.96953 8.39741 9.16916 8.27552 9.28566 8.03524L9.29233 8.02144L9.00139 7.84889L8.99288 7.86314C8.90988 8.00208 8.8309 8.05372 8.70132 8.05372C8.48961 8.05372 8.34734 7.86119 8.34734 7.57468C8.34734 7.27922 8.48215 7.09567 8.69911 7.09567C8.82513 7.09567 8.91373 7.14825 8.97004 7.25646L8.97739 7.27057L9.29761 7.12281L9.29021 7.10755C9.17773 6.87495 8.97487 6.75201 8.70352 6.75201C8.28486 6.75198 7.99248 7.0903 7.99248 7.57468ZM11.2218 7.50831C11.3185 7.43976 11.3752 7.33217 11.3752 7.20626C11.3752 6.9372 11.1837 6.77655 10.8628 6.77655H10.1294V8.37288H10.8561C11.2147 8.37288 11.4287 8.17799 11.4287 7.8516C11.4287 7.69873 11.3524 7.57627 11.2218 7.50831ZM10.4686 7.09796H10.8494C11.0048 7.09796 11.0247 7.16897 11.0247 7.23085C11.0247 7.31883 10.9725 7.3616 10.8651 7.3616H10.4687L10.4686 7.09796ZM10.8673 8.04259H10.4686V7.67179H10.8673C11.0083 7.67179 11.0739 7.73036 11.0739 7.85607C11.0739 7.97808 11.0025 8.04259 10.8673 8.04259ZM11.2265 1.06974C10.4531 1.53759 9.66355 1.76532 8.81272 1.76594C7.96198 1.76535 7.17249 1.53759 6.39907 1.06974L6.37323 1.05411L6.34697 1.06898C5.46592 1.56687 4.69074 1.66426 3.64949 1.66426C3.39926 1.66426 3.14111 1.63913 2.88211 1.58954L2.77051 1.56817L2.82784 1.66629C3.89758 3.49691 3.51782 5.26675 3.0109 6.42916L2.97938 6.50144H14.6463L14.6147 6.42916C14.1078 5.26675 13.728 3.49691 14.7977 1.66629L14.8551 1.56817L14.7435 1.58954C14.4845 1.63913 14.2263 1.66426 13.9761 1.66426C12.9349 1.66426 12.1597 1.56687 11.2787 1.06898L11.2524 1.05411L11.2265 1.06974Z" fill="black"/>
<path d="M5.2347 1.62022C4.74605 1.73615 4.2397 1.76753 3.64974 1.76753C3.42661 1.76753 3.19716 1.74443 2.9668 1.70596C3.24013 2.1947 3.41403 2.67832 3.51269 3.14707H5.23473L5.2347 1.62022ZM8.76144 3.14707V1.86831C8.14363 1.86127 7.55733 1.73587 6.98591 1.48843V3.14707H8.76144ZM3.56154 4.89831C3.48021 5.45884 3.31792 5.96694 3.13565 6.39815H5.23473V4.89831H3.56154ZM6.98591 6.39815H8.76144V4.89831H6.98591V6.39815Z" fill="white"/>
<path d="M6.98592 3.14705V1.48842C6.77944 1.39903 6.57483 1.29413 6.37153 1.17252C5.98272 1.38928 5.61407 1.5302 5.23473 1.62018V3.14702H3.5127C3.58195 3.47609 3.61684 3.81146 3.61681 4.14773C3.61681 4.40642 3.59657 4.65713 3.56157 4.89826H5.23473V6.39811H6.98595V4.89826H8.76147V3.14702L6.98592 3.14705Z" fill="#DB2F36"/>
<path d="M11.2541 1.17252L11.2516 1.17396V6.39811H11.8672V1.45905C11.6656 1.38258 11.4628 1.28881 11.2541 1.17252ZM10.0204 1.70685V6.39814H10.636V1.49C10.4361 1.57658 10.2304 1.64904 10.0204 1.70685ZM8.86426 1.86829V6.39814H9.40475V1.8303C9.22548 1.85346 9.04501 1.86614 8.86426 1.86829ZM12.483 1.64022V6.39814H13.0985V1.73274C12.8868 1.7131 12.683 1.68322 12.483 1.64022ZM14.0089 4.14776C14.0089 3.38349 14.1856 2.55216 14.6589 1.70594C14.4286 1.74439 14.1991 1.76751 13.976 1.76751C13.8867 1.76751 13.7999 1.76647 13.7142 1.76483V6.39814H14.4901C14.2294 5.78137 14.0089 5.00777 14.0089 4.14776Z" fill="#FFDF00"/>
<path d="M13.0986 1.73277V6.39816H13.7142V1.76485C13.4997 1.76078 13.2955 1.75103 13.0986 1.73277ZM9.40479 1.83032V6.39816H10.0204V1.70687C9.81833 1.76236 9.61262 1.80362 9.40479 1.83032ZM10.636 1.49002V6.39816H11.2516V1.17398C11.0479 1.29571 10.8429 1.40067 10.636 1.49002ZM11.8673 1.45907V6.39816H12.4829V1.64024C12.2734 1.59549 12.0676 1.53492 11.8673 1.45907Z" fill="#DB2F36"/>
</g>
<defs>
<clipPath id="clip0_795_2193">
<rect width="15.8044" height="16" fill="white" transform="translate(0.910645)"/>
</clipPath>
</defs>
</svg>
