<svg width="17" height="16" viewBox="0 0 17 16" fill="none" xmlns="http://www.w3.org/2000/svg">
<g clip-path="url(#clip0_795_2677)">
<path d="M8.50342 0C4.08521 0 0.503418 3.58179 0.503418 8C0.503418 12.4182 4.08521 16 8.50342 16C12.9216 16 16.5034 12.4182 16.5034 8C16.5034 3.58179 12.9216 0 8.50342 0Z" fill="#0066B2"/>
<path d="M8.50332 0.399994C4.30608 0.399994 0.90332 3.80275 0.90332 7.99999C0.90332 12.1972 4.30608 15.6 8.50332 15.6C12.7006 15.6 16.1033 12.1972 16.1033 7.99999C16.1033 3.80275 12.7006 0.399994 8.50332 0.399994Z" fill="white"/>
<path d="M8.50318 0.76001C4.50456 0.76001 1.26318 4.00139 1.26318 8.00001C1.26318 11.9986 4.50456 15.24 8.50318 15.24C12.5018 15.24 15.7432 11.9986 15.7432 8.00001C15.7432 4.00139 12.5018 0.76001 8.50318 0.76001ZM8.50318 12.52C6.00682 12.52 3.98318 10.4965 3.98318 8.00001C3.98318 5.50349 6.00682 3.48001 8.50318 3.48001C10.9995 3.48001 13.0232 5.50365 13.0232 8.00001C13.0232 10.4964 10.9997 12.52 8.50318 12.52Z" fill="#DC052D"/>
<path d="M4.52924 9.22981C4.71186 9.82263 5.0253 10.3669 5.4464 10.8223V8.94605L4.38648 7.39761C4.29611 8.0113 4.34471 8.63742 4.52871 9.22978M6.66863 10.7157V8.56757L5.4553 6.79513V5.16901C5.23164 5.41058 5.0374 5.67781 4.87663 5.96509L5.44675 6.79797V8.94605L6.66007 10.7185V11.7277C6.95525 11.8739 7.26669 11.9845 7.58791 12.0573L6.66863 10.7157ZM7.89138 8.18909L9.10471 9.96172V12.1098L7.89138 10.3372V8.18909L6.67806 6.41665V4.26856L7.89138 6.0412V8.18909ZM9.11414 7.81077L7.90082 6.03814V3.89022L9.11414 5.66266V7.81077L10.3275 9.58319V11.7313L9.11414 9.95883V7.81077ZM7.27343 4.02594C6.67453 4.21037 6.12526 4.52826 5.66703 4.95571L6.66915 6.41954V8.56763L7.88247 10.3403V12.1143C9.13762 12.3025 10.4101 11.9087 11.3396 11.0444L10.3375 9.58043V7.43234L9.12413 5.6599V3.88567C8.50457 3.79196 7.8718 3.83993 7.27343 4.02594ZM11.5612 9.20194V7.05385L10.3479 5.28141V4.27217C10.0526 4.12608 9.74109 4.01544 9.41985 3.94257L10.3383 5.28445V7.43236L11.5516 9.205V10.831C11.7752 10.5894 11.9693 10.3222 12.1301 10.0349L11.5612 9.20194ZM12.4781 6.7701C12.2955 6.17736 11.9821 5.63314 11.5612 5.17758V7.05385L12.6209 8.60229C12.7114 7.98864 12.6627 7.36249 12.4787 6.77013" fill="#0066B2"/>
<path d="M3.66336 9.49545L3.86888 9.93297L3.53483 10.5644C3.48452 10.6585 3.44097 10.7353 3.44097 10.7353L3.44541 10.7436C3.44541 10.7436 3.5343 10.749 3.63972 10.758L4.35084 10.8222L4.60577 11.2327L3.06817 12.1312L2.82266 11.7369L3.46622 11.3612C3.61626 11.2743 3.72951 11.213 3.72951 11.213L3.72506 11.2046C3.72506 11.2046 3.6472 11.1989 3.48506 11.1751L2.82995 11.0775L2.8255 11.0693L3.1007 10.467C3.16915 10.3178 3.20737 10.2496 3.20737 10.2496L3.20293 10.2414C3.20293 10.2414 3.08968 10.3027 2.93519 10.3813L2.26871 10.7161L2.07227 10.2951L3.66336 9.49545Z" fill="white"/>
<path d="M4.8411 11.4367L5.19666 11.751L4.48555 12.5979C4.36875 12.7385 4.37461 12.8864 4.55132 13.0255C4.72803 13.1645 4.87309 13.1357 4.98244 12.9899L5.63896 12.0994L6.02812 12.37L5.35416 13.2827C5.04536 13.7014 4.6452 13.6189 4.29905 13.3464C3.95292 13.0738 3.7778 12.7043 4.1122 12.3059L4.8411 11.4367ZM5.55026 12.013L5.11275 12.3186L5.10528 12.3129L5.29995 11.8152L5.55026 12.013Z" fill="white"/>
<path d="M6.30104 12.5247L6.76328 12.6936L7.02479 13.5871C7.0815 13.7803 7.10443 13.8826 7.10443 13.8826L7.11794 13.8867C7.11794 13.8867 7.14817 13.7539 7.19243 13.591L7.3823 12.8799L7.83438 12.9866L7.37447 14.7073L6.89447 14.5923L6.59775 13.6587C6.53997 13.4774 6.51579 13.3624 6.51579 13.3624L6.50228 13.3583C6.50228 13.3583 6.46264 13.498 6.41215 13.6493L6.16948 14.3736L5.7334 14.2136L6.30104 12.5247Z" fill="white"/>
<path d="M9.76639 14.0657C9.77617 14.4877 9.51163 14.778 9.00675 14.8123C8.53458 14.8442 8.09262 14.6299 8.06719 13.9412C8.04088 13.2431 8.42719 12.9812 8.88071 12.9513C9.37155 12.9181 9.65546 13.1924 9.70418 13.5649L9.22738 13.5972C9.18347 13.4358 9.09725 13.3407 8.88694 13.3549C8.69138 13.3682 8.55254 13.549 8.56694 13.9073C8.58276 14.2818 8.73814 14.4264 8.95806 14.4114C9.17797 14.3965 9.2745 14.2916 9.28534 14.0978L9.76639 14.0657Z" fill="white"/>
<path d="M9.87207 12.8356L10.3146 12.6648L10.5656 13.2654L11.1165 13.0138L10.8274 12.4301L11.2464 12.2083L12.0359 13.805L11.6177 14.0268L11.3052 13.3915L10.7275 13.6549L11.0017 14.3073L10.5595 14.4781L9.87317 12.8367L9.87207 12.8356Z" fill="white"/>
<path d="M11.5273 11.9989L12.3792 11.1823L12.6534 11.4516L12.1196 11.9644L12.3238 12.1906L12.8413 11.6941L13.1094 11.9564L12.5748 12.4687L12.7963 12.7175L13.3985 12.1404L13.6727 12.4088L12.7188 13.3236L11.5273 11.9989Z" fill="white"/>
<path d="M12.5923 10.9294L12.8371 10.5017L13.7615 10.395C13.9615 10.3717 14.0662 10.3664 14.0662 10.3664L14.0726 10.3537C14.0726 10.3537 13.9468 10.3015 13.7937 10.2305L13.1256 9.92318L13.3075 9.49545L14.9253 10.2398L14.7308 10.6926L13.7597 10.8288C13.5713 10.8551 13.454 10.8594 13.454 10.8594L13.4478 10.872C13.4478 10.872 13.5788 10.9347 13.7192 11.0099L14.3921 11.3719L14.1599 11.7744L12.5923 10.9294Z" fill="white"/>
<path d="M2.40691 5.03339L2.76423 5.17463L2.47979 5.9658L2.81331 6.07614L3.07996 5.33573L3.4284 5.47421L3.1692 6.19228L3.79226 6.39504L3.65819 6.84966L1.95215 6.29325L2.40691 5.03339Z" fill="white"/>
<path d="M4.58842 3.85764C4.89633 4.13676 4.94949 4.51916 4.64175 4.90868C4.36087 5.26512 3.92638 5.43615 3.36531 5.01979C2.81223 4.60947 2.88531 4.12431 3.17864 3.75275C3.4894 3.35932 3.88567 3.32608 4.1932 3.54529L3.89704 3.92021C3.75233 3.83879 3.61668 3.84804 3.48176 4.01906C3.34682 4.19008 3.37651 4.40162 3.67642 4.62653C3.96335 4.84129 4.18754 4.83346 4.31251 4.67542C4.44602 4.50635 4.41917 4.3693 4.28922 4.23614L4.58842 3.85764Z" fill="white"/>
<path d="M5.75947 1.84161C6.07415 1.69619 6.3817 1.66384 6.51804 1.9865C6.62932 2.24979 6.55875 2.36498 6.42097 2.48038L6.42595 2.49104C6.57279 2.45673 6.76959 2.46384 6.89475 2.75771C7.0455 3.11115 6.81439 3.31523 6.4999 3.46063L5.8343 3.76891L5.03662 2.17567L5.75947 1.84161ZM6.02614 2.48713C6.14951 2.43006 6.18489 2.37246 6.13511 2.25353C6.08729 2.13886 6.00569 2.13015 5.88623 2.18509L5.62045 2.30793L5.77067 2.60501L6.02614 2.48713ZM6.32694 3.13781C6.46294 3.07487 6.50027 3.02154 6.44267 2.88554C6.38934 2.75825 6.29476 2.75523 6.15823 2.81816L5.92854 2.92483L6.0905 3.24731L6.32694 3.13781Z" fill="white"/>
<path d="M8.99976 3.01185L8.49416 3.01078L8.34909 2.69167L7.73753 2.745L7.64864 3.08403L7.15088 3.1715L7.64475 1.30858L8.19587 1.26111L8.99976 3.01185ZM8.21148 2.34837L8.05895 2.0017C8.00651 1.88401 7.96704 1.7793 7.96704 1.7793H7.95762C7.95762 1.7793 7.93646 1.88934 7.90428 2.01432L7.81468 2.38232L8.21148 2.34837Z" fill="white"/>
<path d="M9.44942 2.4889L9.03662 1.22473L9.56995 1.32624L9.73155 1.86241C9.76195 1.96481 9.78879 2.07379 9.78879 2.07379L9.79786 2.07574C9.79786 2.07574 9.86737 1.98685 9.93759 1.90721L10.3072 1.48624L10.8354 1.61531L9.93472 2.59451L9.79694 3.18543L9.32991 3.08392L9.44942 2.4889Z" fill="white"/>
<path d="M11.1903 1.76889L12.3114 2.38437L12.1158 2.71557L11.4239 2.33565L11.2854 2.60712L11.9241 2.9578L11.7334 3.28056L11.1155 2.94125L10.9641 3.23725L11.6374 3.60718L11.4418 3.93821L10.3828 3.35642L11.1903 1.76889Z" fill="white"/>
<path d="M12.9312 2.86676L13.4751 3.44899C13.7533 3.74676 13.8198 4.03407 13.4884 4.32455C13.2767 4.50962 13.1225 4.56064 12.936 4.48811L12.6516 5.20599L12.3158 4.79531L12.5758 4.20863L12.4208 4.04277L12.0023 4.45948L11.6587 4.13292L12.9312 2.86676ZM12.6866 3.77824L12.8706 3.97504C12.9728 4.08455 13.0589 4.08757 13.1728 3.98695C13.2868 3.88632 13.2838 3.79352 13.1814 3.68471L12.9879 3.4776L12.6866 3.77824Z" fill="white"/>
<path d="M13.3805 6.84607L13.218 6.38099L13.7437 5.61263C13.856 5.44943 13.9215 5.36375 13.9215 5.36375L13.9161 5.35077C13.9161 5.35077 13.7944 5.41139 13.6402 5.48037L12.97 5.78384L12.7666 5.36624L14.3894 4.6322L14.6038 5.07576L14.0704 5.89816C13.968 6.05478 13.8927 6.14918 13.8927 6.14918L13.898 6.16216C13.898 6.16216 14.0313 6.10438 14.1803 6.04767L14.8944 5.77674L15.0457 6.21602L13.3805 6.84607Z" fill="white"/>
</g>
<defs>
<clipPath id="clip0_795_2677">
<rect width="16" height="16" fill="white" transform="translate(0.503418)"/>
</clipPath>
</defs>
</svg>
