<svg width="17" height="16" viewBox="0 0 17 16" fill="none" xmlns="http://www.w3.org/2000/svg">
<g clip-path="url(#clip0_795_1483)">
<path fill-rule="evenodd" clip-rule="evenodd" d="M14.6136 1.13306C15.061 2.40154 16.0364 5.83984 15.984 8.89102C14.3166 11.659 11.4672 14.0958 8.57174 15.6495C5.67667 14.0958 2.82705 11.659 1.15975 8.89102C1.10733 5.83984 2.08203 2.40154 2.5299 1.13306C6.36951 0.0463445 10.8052 0.0463445 14.6136 1.13306Z" fill="white"/>
<path fill-rule="evenodd" clip-rule="evenodd" d="M14.6137 1.13306C15.0611 2.40153 16.0365 5.83984 15.9841 8.89101C14.3168 11.659 11.4674 14.0958 8.57186 15.6495C5.6768 14.0958 2.82717 11.659 1.15987 8.89101C1.10746 5.83984 2.08215 2.40153 2.53002 1.13306C6.36963 0.0463389 10.8054 0.0463389 14.6137 1.13306ZM2.29225 0.877292C6.44679 -0.292431 10.5129 -0.292431 14.8512 0.877292C15.3531 2.23349 16.3647 5.86841 16.2929 8.97807C14.5158 12.0598 11.0996 14.6985 8.57186 16C6.04414 14.698 2.6272 12.0594 0.850794 8.97762C0.779036 5.86796 1.7904 2.23327 2.29225 0.877292Z" fill="#041E42"/>
<path d="M5.4087 7.652L5.10705 6.76189L4.74219 6.97086V8.95354L5.10323 8.74682V7.7719L5.39318 8.5808L5.76479 8.36801V6.3851L5.4087 6.58913V7.652Z" fill="#041E42"/>
<path d="M13.688 1.84681V3.82949L14.0895 3.59959V1.61691L13.688 1.84681Z" fill="#041E42"/>
<path d="M6.65261 5.82768C6.36018 5.99549 6.16268 6.31784 6.16358 6.51467V7.62365C6.16358 7.8261 6.35771 8.02383 6.66251 7.87784C7.14997 7.64435 7.1394 7.39511 7.1385 7.19828V6.92204L6.73899 7.15081V7.42997L6.56331 7.53052V6.30569L6.73899 6.20514V6.5934L7.1385 6.36643V5.9595C7.1376 5.76267 6.94167 5.66212 6.65261 5.82768Z" fill="#041E42"/>
<path d="M3.04812 7.89225C2.75569 8.06029 2.55819 8.38241 2.55909 8.57924V9.68845C2.55909 9.8909 2.75321 10.0884 3.05802 9.94241C3.5457 9.70937 3.53513 9.45968 3.5331 9.26285V8.98662L3.1345 9.21449V9.49387L2.95904 9.59442V8.37026L3.1345 8.26971V8.65819L3.5331 8.431V8.02429C3.5331 7.82747 3.33718 7.72669 3.04812 7.89225Z" fill="#041E42"/>
<path d="M7.5127 7.36766L7.91422 7.13777V5.15509L7.5127 5.38499V7.36766Z" fill="#041E42"/>
<path d="M3.90869 9.43111L4.31022 9.20122V7.21854L3.90869 7.44843V9.43111Z" fill="#041E42"/>
<path d="M12.354 2.99045L12.6291 2.83299V4.43663L13.0306 4.20673V2.60287L13.3058 2.4454V2.06592L12.354 2.61096V2.99045Z" fill="#041E42"/>
<path d="M9.0132 5.5888L8.71132 4.69868L8.34668 4.90766V6.88966L8.70749 6.68294V5.70892L8.99768 6.51693L9.36906 6.30413V4.3219L9.0132 4.52593V5.5888Z" fill="#041E42"/>
<path d="M10.46 4.75874L10.1581 3.86885L9.79346 4.0776V6.05961L10.1545 5.8531V4.87886L10.4445 5.68687L10.8161 5.47407V3.49207L10.46 3.69587V4.75874Z" fill="#041E42"/>
<path d="M11.4469 3.13487L11.188 5.26039L11.5812 5.03544L11.6089 4.68273L11.8383 4.54641L11.8788 4.86516L12.265 4.64404L11.9605 2.83636L11.4469 3.13487ZM11.6156 4.32281L11.7234 3.55259L11.7974 4.21056L11.6156 4.32281Z" fill="#041E42"/>
<path fill-rule="evenodd" clip-rule="evenodd" d="M12.7628 1.37419L1.85938 7.61894C2.01481 5.33528 2.62824 2.96254 3.04664 1.6817C6.4006 0.795856 9.8407 0.826674 12.7628 1.37419ZM4.35583 2.63389V3.07614H4.62419V3.43605H4.35583V4.31065L3.90864 4.56821V2.28973H4.7884V2.63479L4.35583 2.63389ZM6.10277 3.40749V3.90237C6.10277 4.09942 5.89132 4.3084 5.56807 4.3084C5.2401 4.3084 5.01897 4.09942 5.01897 3.90237V2.65909C5.01897 2.46226 5.2401 2.25418 5.56807 2.25418C5.89132 2.25418 6.10277 2.46316 6.10277 2.65909V2.81948L5.66052 3.07344V2.57608L5.47112 2.68473V3.98785L5.66052 3.87942V3.66168L6.10277 3.40749Z" fill="#003087"/>
<path fill-rule="evenodd" clip-rule="evenodd" d="M3.30176 10.6611L14.7504 4.10416C15.0653 5.51345 15.3265 7.15961 15.3209 8.70049C13.6291 11.4223 11.021 13.4763 8.57248 14.8906C6.14396 13.4763 4.64491 12.1838 3.30176 10.6611ZM11.2559 8.92206C11.3667 8.89194 11.47 8.83891 11.5591 8.7664C11.5591 8.7664 11.5748 8.97222 11.4718 9.14881C11.4118 9.06271 11.3389 8.98625 11.2559 8.92206ZM8.98166 9.10202L9.32965 8.90294C9.32965 8.90294 9.15599 8.86088 9.03565 8.73873L9.9667 8.20448L9.8585 8.05512H11.293L11.3816 8.20561C11.3816 8.20561 11.6194 8.26139 11.755 8.39546L11.5348 8.42965L11.6437 8.55225C11.5613 8.6546 11.3465 8.78889 11.1416 8.83051C11.0437 8.76431 10.9404 8.70652 10.8327 8.65775L11.1769 8.46047C11.1769 8.46047 10.9776 8.3372 10.5129 8.20696C10.6388 8.28602 10.7585 8.37469 10.8708 8.47217L10.5714 8.64358C10.5714 8.64358 11.0977 8.88495 11.3863 9.40345L11.0377 9.4111C11.0377 9.4111 10.6341 10.1579 9.99324 10.5808V10.1575C9.99324 10.1575 9.57394 10.1125 9.3355 9.92915L9.56922 9.78968C9.56922 9.78968 9.30266 9.74807 9.06241 9.49725L9.36857 9.32359C9.36857 9.32359 9.18389 9.29997 8.98166 9.10202ZM10.9612 8.15724C11.0026 8.20632 11.0546 8.24529 11.1134 8.27118C11.1721 8.29707 11.236 8.30919 11.3002 8.30661L11.2059 8.16692L10.9612 8.15724ZM7.41513 11.7625L7.44955 12.067C7.24372 12.2031 6.7061 12.5104 6.2769 12.3003C5.95478 12.1428 5.88414 11.6889 6.12551 11.3038C6.40602 10.8571 6.85771 10.8478 7.10695 11.0114C7.10695 11.0114 7.05994 11.3076 6.74816 11.4975L6.81452 11.2323C6.66268 11.1556 6.46586 11.2248 6.35338 11.4093C6.20222 11.6567 6.24563 11.9426 6.45011 12.0459C6.78865 12.2173 7.41513 11.7625 7.41513 11.7625ZM12.8298 10.5145C12.8298 10.5145 13.0469 10.5145 13.0631 10.7039C12.954 10.6533 12.8732 10.6877 12.8732 10.6877C12.6964 10.75 12.5076 10.7709 12.3214 10.7489L11.8607 11.2415C11.8676 11.3166 11.8788 11.3913 11.8945 11.4651C11.5751 11.3537 11.2921 11.1805 11.111 11.0548L11.2745 11.3472C11.2745 11.3472 11.1492 11.6675 10.4758 12.0974L10.4488 11.8079C10.4488 11.8079 9.7755 11.3857 9.36699 11.4691C8.98098 12.173 8.2967 12.0848 8.2967 12.0848L8.10729 12.7612C8.10729 12.7612 8.74569 12.8478 8.61927 13.3605L8.44426 13.2561C8.44426 13.2561 8.46068 13.3911 8.34393 13.4552L8.20177 13.2588C8.25598 13.4212 7.99144 13.4876 7.99144 13.4876C7.99144 13.4876 7.97817 13.311 7.92396 13.2401L7.71881 12.9866L7.52603 11.3882L7.76875 11.4903C8.34911 11.0078 8.57428 10.3957 8.57428 10.3957C8.57428 10.3957 9.40028 10.8148 9.98874 10.7491C10.1125 10.7315 10.7585 10.2801 11.1337 9.55686L11.4293 9.55034C11.4293 9.55034 11.6599 9.89923 11.724 10.3059L11.5128 10.2663C11.5649 10.3781 11.6051 10.495 11.6327 10.6152L12.1793 10.2981C12.5054 10.1066 12.972 10.07 13.0406 10.2639C13.0406 10.2639 12.8881 10.2519 12.8512 10.3215C12.8512 10.3215 13.0588 10.3064 13.0791 10.4789C13.0793 10.4794 12.9034 10.4292 12.8298 10.5145ZM9.86952 13.0804L9.73725 12.9832C9.76357 13.0863 9.67944 13.152 9.67944 13.152C9.64456 13.096 9.60106 13.0459 9.55055 13.0035C9.55437 13.1022 9.40996 13.1834 9.40996 13.1834C9.39634 13.1216 9.366 13.0646 9.32223 13.0188L9.1398 12.8447L8.63727 12.1721C9.18456 12.1404 9.47339 11.603 9.47339 11.603C10.1867 12.2812 9.30086 12.4353 9.30086 12.4353L9.35552 12.6766C9.35552 12.6766 9.95545 12.6314 9.86952 13.0804ZM11.5991 9.50242C11.6965 9.63379 11.818 9.9323 11.8864 10.2553L12.1487 9.84592L12.2355 10.0445C12.4074 9.72962 12.5698 9.43854 12.6555 9.28535C12.6916 9.30345 12.731 9.31379 12.7713 9.31572V9.42819C12.759 9.45659 12.7527 9.48722 12.7527 9.51817C12.7789 9.55804 12.8146 9.59074 12.8566 9.61332C12.8986 9.59074 12.9343 9.55804 12.9605 9.51817C12.9603 9.48719 12.9538 9.45659 12.9414 9.42819V9.31572C12.9747 9.31032 13.0111 9.2993 13.0512 9.2885C13.1043 9.15646 13.0809 8.96143 13.0809 8.96143C13.1147 8.92175 13.1405 8.87592 13.1569 8.82646C13.1119 8.77787 13.0363 8.74615 12.9409 8.73153V8.71961L13.1859 8.57047V8.40693L13.0314 8.50096L13.0302 6.47419L12.8546 6.28681L12.6789 6.46362L12.6802 8.50186L12.5113 8.39884V8.57047L12.7608 8.70904V8.72276C12.6708 8.72276 12.5952 8.73873 12.5455 8.77652C12.5516 8.83117 12.5702 8.88368 12.5999 8.92994L11.5991 9.50242ZM8.18715 9.92555L7.46732 10.3318C7.62703 10.4429 8.11966 10.3667 8.478 10.1721C8.478 10.1721 9.25722 10.5959 9.83983 10.5995L9.83803 10.2778C8.76256 10.0223 8.44786 9.26556 8.24248 8.73108L6.09402 9.95929C6.3716 10.1842 7.19491 9.77371 7.8486 9.41807C7.86322 9.44709 7.87987 9.47925 7.89877 9.51322L6.76144 10.1656C7.04464 10.3847 7.61916 10.0711 8.11561 9.84299C8.13721 9.87044 8.1624 9.89833 8.18715 9.92555ZM11.2089 7.63672C11.1757 7.58624 11.1305 7.54486 11.0773 7.51637C11.0241 7.54502 10.979 7.58646 10.9459 7.63694C10.9474 7.6835 10.9554 7.72961 10.9697 7.77393H10.8192C10.8394 7.7075 10.8505 7.63864 10.8523 7.56923C10.7982 7.48691 10.7244 7.41947 10.6375 7.37308C10.5508 7.41971 10.4771 7.4873 10.4231 7.56968C10.4248 7.63913 10.4361 7.70801 10.4566 7.77438H10.3064C10.3208 7.73009 10.3288 7.68396 10.3302 7.63739C10.297 7.58698 10.2517 7.54568 10.1984 7.51727C10.1452 7.54585 10.1 7.5873 10.067 7.63784C10.0686 7.68441 10.0767 7.73053 10.0911 7.77483V7.94287L11.1852 7.94152V7.77483C11.1996 7.73015 11.2076 7.68365 11.2089 7.63672Z" fill="#FE5000"/>
</g>
<defs>
<clipPath id="clip0_795_1483">
<rect width="15.4494" height="16" fill="white" transform="translate(0.847168)"/>
</clipPath>
</defs>
</svg>
