<svg width="17" height="16" viewBox="0 0 17 16" fill="none" xmlns="http://www.w3.org/2000/svg">
<g clip-path="url(#clip0_795_2430)">
<path d="M0.96875 8C0.96875 3.58179 4.55027 0 8.96875 0C13.3872 0 16.9687 3.58179 16.9687 8C16.9687 12.4185 13.387 16 8.96875 16C4.55054 16 0.96875 12.4185 0.96875 8Z" fill="#604734"/>
<path d="M1.32861 7.99999C1.32861 3.7804 4.74903 0.359985 8.96861 0.359985C13.1882 0.359985 16.6086 3.7804 16.6086 7.99999C16.6086 12.2196 13.1882 15.64 8.96861 15.64C4.74903 15.64 1.32861 12.2196 1.32861 7.99999Z" fill="white"/>
<path d="M4.24854 8C4.24854 5.39319 6.36172 3.28 8.96854 3.28C11.5754 3.28 13.6885 5.39319 13.6885 8C13.6885 10.6068 11.5753 12.72 8.96854 12.72C6.36172 12.72 4.24854 10.6068 4.24854 8Z" fill="#EC1C24"/>
<path d="M4.03437 10.6154H3.69211L3.51887 10.3178L3.34775 10.6135H3.00977L3.18086 10.907L3.00977 11.2025H3.35197L3.52309 11.496L3.69633 11.2025H4.03217L3.86113 10.9112L4.03437 10.6154Z" fill="#604734"/>
<path d="M14.9542 10.6154H14.6119L14.4387 10.3178L14.2676 10.6135H13.9297L14.1007 10.907L13.9297 11.2025H14.2718L14.4431 11.496L14.6163 11.2025H14.952L14.781 10.9112L14.9542 10.6154Z" fill="#604734"/>
<path d="M11.4913 4.93987H11.149L10.976 4.64221L10.8047 4.93766H10.4668L10.6378 5.23118L10.4668 5.5269H10.8091L10.9802 5.82042L11.1534 5.5269H11.4891L11.3181 5.23559L11.4913 4.93987Z" fill="white"/>
<path d="M9.08373 5.15448C9.45347 5.17798 9.72122 5.45654 9.74966 5.82041H8.21289C8.2399 5.45632 8.50886 5.17787 8.87882 5.15448V4.43732L8.4178 4.43828V4.23181L8.87882 4.23241V3.61771H9.08373V4.23241L9.54475 4.23239V4.43826L9.08373 4.4373L9.08373 5.15448Z" fill="white"/>
<path d="M6.11279 6.02512H7.85459V6.3327H6.11279V6.02512Z" fill="white"/>
<path d="M8.11035 6.02512H9.85214V6.3327H8.11035V6.02512Z" fill="white"/>
<path d="M10.1084 6.02512H11.8502V6.3327H10.1084V6.02512Z" fill="white"/>
<path d="M6.11279 7.97186H11.8502V8.27917H6.11279V7.97186Z" fill="white"/>
<path d="M6.11279 9.66235H7.64962V9.96966H6.11279V9.66235Z" fill="white"/>
<path d="M10.3135 9.66235H11.8503V9.96966H10.3135V9.66235Z" fill="white"/>
<path d="M6.32122 6.57406C6.4707 6.5292 6.71267 6.4545 6.89234 6.55912C6.98251 6.61159 6.92621 6.69943 6.89639 6.78047C6.79741 6.85503 6.71833 6.88095 6.59441 6.87941C6.4826 6.87804 6.41325 6.85594 6.32122 6.79242C6.29108 6.71276 6.2229 6.60355 6.32122 6.57406Z" fill="white"/>
<path d="M7.13159 6.82069C7.13159 6.82069 7.06934 6.64789 7.13186 6.57553C7.20039 6.49621 7.30393 6.55932 7.40015 6.55932C7.46907 6.55932 7.50786 6.56793 7.57679 6.56076C7.57679 6.56076 7.62788 6.73333 7.57664 6.82089C7.489 6.97072 7.13159 6.82069 7.13159 6.82069Z" fill="white"/>
<path d="M6.41147 7.00275C6.34937 7.06612 6.32642 7.08333 6.32214 7.19843C6.31789 7.31304 6.3511 7.38072 6.4344 7.38072C6.46025 7.38072 6.47496 7.37974 6.5008 7.37686C6.5008 7.29787 6.50505 7.23489 6.50505 7.1559C6.50505 7.08266 6.48183 7.02286 6.41147 7.00275Z" fill="white"/>
<path d="M8.32922 7.01132C8.312 7.08601 8.31712 7.13377 8.31712 7.20988C8.31712 7.28027 8.31865 7.37153 8.38892 7.37504C8.51191 7.38117 8.50339 7.18832 8.50339 7.09642C8.50341 7.01741 8.40821 7.01706 8.32922 7.01132Z" fill="white"/>
<path d="M8.24805 6.63284C8.24805 6.68165 8.31423 6.74708 8.35014 6.77723C8.41765 6.83611 8.47356 6.82829 8.56261 6.82829C8.61286 6.82829 8.66974 6.81979 8.71999 6.81979C8.82483 6.81979 8.89015 6.74194 8.89015 6.6371C8.89015 6.54519 8.75479 6.51227 8.66287 6.51227H8.44172C8.36129 6.51227 8.24805 6.51375 8.24805 6.63284Z" fill="white"/>
<path d="M9.07295 6.81131C9.10598 6.84434 9.14042 6.83259 9.18781 6.83259H9.34095C9.42712 6.83259 9.47642 6.84249 9.54246 6.78793C9.59848 6.74198 9.57066 6.69337 9.57066 6.62013C9.57066 6.54545 9.42239 6.51725 9.31425 6.51425C9.22351 6.51172 9.14783 6.50738 9.09025 6.57757C9.03227 6.64824 9.07295 6.81131 9.07295 6.81131Z" fill="white"/>
<path d="M6.65283 7.10042C6.65283 7.15642 6.63477 7.22378 6.63477 7.27978C6.63477 7.34729 6.78726 7.36688 6.85333 7.37692C6.9639 7.39272 7.03965 7.38654 7.15167 7.38654C7.24358 7.38654 7.32975 7.32047 7.32975 7.22858C7.32975 7.16108 7.34555 7.10652 7.30102 7.05625C7.24358 6.99018 7.17466 6.99162 7.08561 6.98156C6.93052 6.96433 6.70166 6.95249 6.65283 7.10042Z" fill="white"/>
<path d="M8.65363 7.10041C8.63489 7.17467 8.64094 7.2307 8.68326 7.29453C8.74723 7.39097 8.81912 7.38117 8.96704 7.38117C9.11926 7.38117 9.33264 7.30887 9.31137 7.10917C9.30467 7.04628 9.17625 7.02574 9.09868 7.00708C9.09868 7.00708 8.69699 6.92845 8.65363 7.10041Z" fill="white"/>
<path d="M9.43318 7.20826C9.43318 7.29011 9.40892 7.38951 9.51102 7.38951C9.60872 7.38951 9.61624 7.34366 9.61624 7.26467C9.61624 7.19717 9.69119 7.00808 9.58636 6.9956C9.5369 6.98972 9.50199 7.00524 9.46677 7.04045C9.41957 7.08764 9.43318 7.14078 9.43318 7.20826Z" fill="white"/>
<path d="M10.2524 6.68497C10.2524 6.84007 10.3816 6.90321 10.6242 6.88757C10.759 6.87886 10.909 6.89539 10.886 6.63726C10.8834 6.60863 10.9082 6.58218 10.8858 6.56542C10.7172 6.43951 10.6964 6.56401 10.5744 6.56401C10.4494 6.56403 10.2524 6.56005 10.2524 6.68497Z" fill="white"/>
<path d="M11.1279 6.63725V6.74639C11.1279 6.8383 11.1808 6.95017 11.2727 6.95017C11.3129 6.95017 11.3685 6.94233 11.4087 6.94233C11.5423 6.94233 11.6318 6.82244 11.6318 6.68889C11.6318 6.61851 11.5372 6.56831 11.4697 6.55252L11.2609 6.57538L11.1509 6.58125C11.1308 6.58841 11.1279 6.61428 11.1279 6.63725Z" fill="white"/>
<path d="M10.4011 7.0011C10.3071 7.0872 10.3032 7.10705 10.3032 7.232C10.3032 7.25064 10.3111 7.35328 10.3111 7.37194C10.3312 7.37194 10.3731 7.37978 10.3933 7.37978C10.4722 7.37978 10.4989 7.27184 10.4989 7.19287C10.4989 7.111 10.4715 7.04275 10.4011 7.0011Z" fill="white"/>
<path d="M10.6243 7.19006C10.6293 7.21836 10.6603 7.27493 10.7025 7.3129C10.7822 7.38453 10.8725 7.36803 10.9716 7.36803C11.0707 7.36803 11.219 7.3201 11.2285 7.17511C11.2362 7.05781 11.0046 7.0011 10.9012 7.0011C10.7891 7.0011 10.5992 7.04601 10.6243 7.19006Z" fill="white"/>
<path d="M11.1167 7.61711C11.1167 7.74636 11.2603 7.80668 11.3896 7.80668C11.4513 7.80668 11.4757 7.76358 11.5274 7.73199C11.5748 7.70326 11.6251 7.67887 11.6251 7.62286C11.6251 7.53094 11.5303 7.47925 11.4384 7.47925C11.302 7.47925 11.1167 7.48069 11.1167 7.61711Z" fill="white"/>
<path d="M10.7953 7.80635C10.8784 7.75195 10.962 7.625 10.8815 7.56672C10.8306 7.52983 10.7534 7.5711 10.7204 7.5711C10.6629 7.5711 10.6267 7.54011 10.5645 7.53682C10.4676 7.53168 10.3719 7.50459 10.3209 7.58713C10.3029 7.61632 10.2954 7.6527 10.2954 7.67134C10.2954 7.74603 10.2928 7.77965 10.3329 7.82793C10.4023 7.91143 10.5021 7.8296 10.6112 7.8296C10.6787 7.8296 10.7347 7.84598 10.7953 7.80635Z" fill="white"/>
<path d="M9.51395 7.80662C9.44789 7.81668 9.40727 7.81913 9.34122 7.81913C9.24069 7.81913 9.17532 7.79785 9.09463 7.74916C9.07324 7.73405 9.07324 7.71046 9.07324 7.67024C9.07324 7.55965 9.27745 7.5256 9.38803 7.5256C9.49286 7.5256 9.5714 7.55817 9.5714 7.66301C9.57139 7.72043 9.54842 7.76066 9.51395 7.80662Z" fill="white"/>
<path d="M8.66071 7.55118C8.59753 7.55118 8.55214 7.55395 8.48896 7.55395C8.40279 7.55395 8.25684 7.55434 8.25684 7.64053C8.25684 7.75255 8.36153 7.75962 8.47355 7.75962H8.69474C8.79958 7.75962 8.88617 7.7411 8.88617 7.63626C8.88617 7.59031 8.825 7.55969 8.77906 7.55969C8.72878 7.55969 8.71097 7.55118 8.66071 7.55118Z" fill="white"/>
<path d="M7.38523 7.81932H7.14299C7.14587 7.78487 7.07178 7.76581 7.07178 7.73134C7.07178 7.69257 7.10219 7.66151 7.13469 7.6267C7.25124 7.5019 7.41444 7.63742 7.57243 7.63742C7.57243 7.65895 7.57668 7.70419 7.57668 7.72576C7.57668 7.75879 7.53165 7.77801 7.50436 7.79383C7.4469 7.82969 7.45416 7.81932 7.38523 7.81932Z" fill="white"/>
<path d="M6.78707 7.80661C6.59464 7.80661 6.57252 7.82496 6.38152 7.81061C6.38152 7.80057 6.32675 7.71623 6.32621 7.68725C6.32417 7.57383 6.39567 7.56816 6.50913 7.56816C6.65274 7.56816 6.88325 7.49263 6.88325 7.63623C6.88325 7.70084 6.85169 7.80661 6.78707 7.80661Z" fill="white"/>
<path d="M6.31378 8.61406C6.32722 8.74837 6.51493 8.6979 6.64994 8.6979C6.75908 8.6979 6.82658 8.72807 6.92997 8.69218C7.00608 8.66633 7.02188 8.58876 7.02188 8.50834C7.02188 8.46812 6.95781 8.44821 6.9176 8.44389C6.80558 8.43241 6.77728 8.45618 6.67963 8.4016C6.55897 8.33412 6.29676 8.44389 6.31378 8.61406Z" fill="white"/>
<path d="M7.25769 8.44415C7.17101 8.50905 7.26304 8.6909 7.38512 8.6909C7.4397 8.6909 7.57272 8.68776 7.62728 8.68776C7.66749 8.68776 7.69371 8.6909 7.73392 8.6909H7.93362C8.03559 8.6909 8.15006 8.64244 8.1378 8.50799C8.13063 8.42932 8.0107 8.43497 7.93172 8.43497C7.79241 8.43497 7.71157 8.44843 7.57227 8.44843H7.4319C7.35867 8.44843 7.31209 8.40342 7.25769 8.44415Z" fill="white"/>
<path d="M6.31173 8.88884C6.23369 8.93741 6.32153 9.03979 6.31749 9.12443C6.31324 9.21377 6.38352 9.201 6.43236 9.201C6.5056 9.201 6.57273 9.1679 6.57273 9.09465C6.57273 8.97547 6.52178 8.86945 6.40258 8.86945C6.37673 8.86945 6.34247 8.86969 6.31173 8.88884Z" fill="white"/>
<path d="M7.57227 9.02343C7.57227 9.0895 7.63259 9.13833 7.69863 9.13833C7.80635 9.13833 7.86555 9.01794 7.88256 8.89906C7.82081 8.84162 7.72931 8.89056 7.64459 8.89056C7.58139 8.89056 7.57227 8.96025 7.57227 9.02343Z" fill="white"/>
<path d="M7.13428 9.40939C7.13428 9.47975 7.19152 9.50723 7.26189 9.50723C7.35954 9.50723 7.47207 9.53724 7.5482 9.47836C7.5999 9.43815 7.5999 9.38215 7.5999 9.31609C7.5999 9.29024 7.59771 9.28602 7.56794 9.26478C7.55215 9.26478 7.48164 9.252 7.46584 9.252C7.29496 9.25198 7.13428 9.23849 7.13428 9.40939Z" fill="white"/>
<path d="M7.04141 8.83171C6.97781 8.83719 6.94622 8.88279 6.8859 8.88279C6.80691 8.88279 6.68333 8.8566 6.69182 8.99273C6.70068 9.13463 6.78926 9.20092 7.01488 9.20092C7.20632 9.20092 7.35839 9.12835 7.35839 8.9747C7.35839 8.84546 7.1765 8.82011 7.04141 8.83171Z" fill="white"/>
<path d="M9.75906 8.44634C9.91842 8.29047 10.362 8.44627 10.7483 8.44627C10.823 8.44627 10.9142 8.52243 10.9142 8.59711C10.9142 8.68615 10.7652 8.69496 10.6762 8.69496H9.97455C9.83954 8.69496 9.73208 8.65667 9.76459 8.47358C9.76635 8.46366 9.75133 8.45391 9.75906 8.44634Z" fill="white"/>
<path d="M11.1281 8.44773V8.59852C11.1281 8.65166 11.0973 8.70343 11.2287 8.69473C11.3046 8.68972 11.3528 8.69066 11.4289 8.69066H11.5437C11.6227 8.69066 11.6365 8.57843 11.6365 8.49943C11.6365 8.46208 11.592 8.45489 11.5561 8.44773C11.4872 8.43337 11.447 8.42474 11.3751 8.42474C11.2789 8.42474 11.2244 8.44773 11.1281 8.44773Z" fill="white"/>
<path d="M10.1265 8.95174C10.1538 9.08817 10.2505 9.1967 10.387 9.1967C10.4975 9.1967 10.5372 9.06231 10.5717 8.95748C10.5717 8.95748 10.4474 8.86418 10.3551 8.86157C10.2593 8.85887 10.1265 8.95174 10.1265 8.95174Z" fill="white"/>
<path d="M10.7528 8.88635C10.7091 8.91949 10.6934 8.95631 10.6934 9.01377C10.6934 9.06834 10.6985 9.13625 10.744 9.19275C10.8346 9.3052 10.9663 9.19242 11.1143 9.19242C11.2191 9.19242 11.2674 9.09883 11.2545 8.94598C11.2474 8.86154 11.131 8.87704 11.0463 8.87704H10.9214C10.9214 8.87704 10.8053 8.84655 10.7528 8.88635Z" fill="white"/>
<path d="M11.4458 8.96718V9.10308C11.4458 9.16484 11.5312 9.1901 11.5929 9.1901C11.613 9.1901 11.626 9.18722 11.6461 9.18436C11.6461 9.18436 11.7261 9.05682 11.6952 8.98153C11.6717 8.92427 11.603 8.87701 11.5757 8.87701C11.524 8.87701 11.4788 8.92983 11.4458 8.96718Z" fill="white"/>
<path d="M11.6245 9.32001C11.5311 9.32001 11.4565 9.32321 11.3632 9.32321C11.2497 9.32321 11.0889 9.30742 11.0889 9.42086C11.0889 9.47254 11.1392 9.50966 11.1823 9.53695C11.2283 9.56568 11.2241 9.56673 11.2801 9.56673C11.3448 9.56673 11.428 9.57407 11.4884 9.55396C11.5314 9.53962 11.5943 9.53171 11.6245 9.49868C11.6604 9.4599 11.6331 9.37315 11.6245 9.32001Z" fill="white"/>
<path d="M11.1311 10.1321C11.0679 10.1884 11.1292 10.2889 11.1737 10.3449C11.2196 10.4024 11.2874 10.3641 11.3621 10.3641C11.4051 10.3641 11.4409 10.3735 11.484 10.3747C11.6371 10.379 11.6191 10.2377 11.6249 10.1286C11.6249 10.1286 11.2582 10.019 11.1311 10.1321Z" fill="white"/>
<path d="M10.5724 10.3765C10.4906 10.3739 10.4412 10.3698 10.3953 10.3023C10.3709 10.2664 10.3369 10.2042 10.3369 10.1597V10.1152C10.3498 10.1137 10.357 10.1094 10.3699 10.1094C10.4762 10.1094 10.5176 10.0968 10.6239 10.0968C10.6986 10.0968 10.7591 10.1266 10.8338 10.1266C10.8697 10.1266 10.9313 10.1856 10.931 10.2215C10.9297 10.4004 10.7736 10.3831 10.5724 10.3765Z" fill="white"/>
<path d="M10.3997 10.5065C10.3581 10.5783 10.3146 10.6359 10.3146 10.7192C10.3146 10.7824 10.2946 10.8376 10.472 10.8168C10.5234 10.8108 10.5869 10.8423 10.5899 10.737C10.5929 10.6322 10.5152 10.4943 10.3997 10.5065Z" fill="white"/>
<path d="M10.6978 10.6681C10.6978 10.7543 10.719 10.8295 10.8634 10.821C10.9236 10.8175 11.0591 10.821 11.0591 10.821C11.0591 10.821 11.1642 10.826 11.2202 10.7987C11.2719 10.7729 11.3186 10.744 11.3186 10.6852C11.3186 10.6263 11.2599 10.6073 11.2293 10.5575C11.1952 10.5023 11.0378 10.4914 10.933 10.4914C10.8224 10.4914 10.6978 10.5575 10.6978 10.6681Z" fill="white"/>
<path d="M11.4756 10.5106C11.4756 10.5106 11.3798 10.6519 11.4226 10.7279C11.4509 10.7781 11.5208 10.8101 11.5452 10.8101C11.6012 10.8101 11.6586 10.7813 11.6616 10.7254C11.6713 10.5404 11.5869 10.4885 11.4756 10.5106Z" fill="white"/>
<path d="M10.3369 11.0695V11.1054C10.3369 11.1586 10.3297 11.1959 10.3541 11.2418C10.4087 11.3467 10.5351 11.3108 10.6543 11.3108C10.7548 11.3108 10.9027 11.3424 10.9027 11.2418C10.9027 11.1672 10.9142 11.114 10.874 11.0523C10.8281 10.9819 10.7344 11.0165 10.6505 11.008C10.4552 10.9882 10.4463 11.0208 10.3369 11.0695Z" fill="white"/>
<path d="M11.1314 11.0124C11.1142 11.0929 11.0708 11.1257 11.0708 11.2075C11.0708 11.2937 11.1484 11.3355 11.2675 11.3109C11.3449 11.295 11.4097 11.3382 11.47 11.2879C11.5562 11.2147 11.5634 11.1429 11.5821 11.0294C11.5476 11.0165 11.5045 10.995 11.4672 10.995C11.4298 10.995 11.4083 11.0065 11.371 11.0065C11.279 11.0065 11.2293 10.9997 11.1314 11.0124Z" fill="white"/>
<path d="M10.8813 11.4585C10.7741 11.5015 10.6978 11.5314 10.6978 11.6333C10.6978 11.7152 10.7965 11.7055 10.8784 11.7055C11.0077 11.7055 11.1612 11.6376 11.1357 11.4972C11.128 11.4548 11.0737 11.4355 11.0306 11.4355C10.966 11.4355 10.9459 11.4484 10.8813 11.4585Z" fill="white"/>
<path d="M10.3199 11.6077C10.3199 11.7126 10.3146 11.8331 10.452 11.8432C10.5379 11.8495 10.5741 11.7364 10.5741 11.6502C10.5741 11.6057 10.5554 11.5775 10.5554 11.533C10.5195 11.4828 10.4706 11.4138 10.4175 11.4469C10.3557 11.4842 10.3199 11.5345 10.3199 11.6077Z" fill="white"/>
<path d="M6.90024 11.4419C6.81263 11.4419 6.69629 11.4521 6.69629 11.5398C6.69629 11.669 6.83218 11.7099 7.03113 11.694C7.10128 11.6884 7.19801 11.7312 7.20059 11.6308C7.20379 11.5073 7.02374 11.4419 6.90024 11.4419Z" fill="white"/>
<path d="M7.38073 10.9357C7.33334 10.9673 7.21152 10.9938 7.15552 10.9995C7.09376 11.0067 7.07471 11.0612 7.07471 11.1229C7.07471 11.1775 7.07896 11.2342 7.07896 11.2888C7.12205 11.3319 7.17727 11.3108 7.23759 11.3108C7.29791 11.3108 7.34596 11.3268 7.40628 11.3268C7.47664 11.3268 7.53318 11.2874 7.54923 11.2189C7.58066 11.0846 7.53387 11.0038 7.38073 10.9357Z" fill="white"/>
<path d="M6.50633 11.3109C6.44457 11.3109 6.37707 11.3324 6.35266 11.2764C6.32107 11.2017 6.32969 11.1501 6.32969 11.0682C6.32969 11.0438 6.33255 11.0308 6.33543 11.0064H6.81367C6.87543 11.0064 6.93573 11.0481 6.93573 11.1098C6.93573 11.219 6.86512 11.3185 6.75596 11.3185C6.66549 11.3185 6.59682 11.3109 6.50633 11.3109Z" fill="white"/>
<path d="M6.87043 10.5106C6.79575 10.5106 6.75134 10.5976 6.75134 10.6723C6.75134 10.7254 6.71578 10.7816 6.75989 10.8168C6.95187 10.9699 7.50805 10.8323 7.50805 10.8323C7.5339 10.7791 7.55291 10.7118 7.55291 10.6529C7.55291 10.5222 7.39246 10.5149 7.26176 10.5149C7.22731 10.5149 6.95084 10.5106 6.87043 10.5106Z" fill="white"/>
<path d="M6.3048 10.821C6.3048 10.7477 6.24951 10.686 6.24951 10.6128C6.24951 10.5524 6.32982 10.5179 6.38955 10.5095C6.5643 10.4851 6.62137 10.7407 6.5174 10.8208C6.4517 10.8713 6.3048 10.821 6.3048 10.821Z" fill="white"/>
<path d="M6.56034 10.3832C6.39851 10.3801 6.31787 10.3124 6.31787 10.1875C6.31787 10.1157 6.36893 10.0644 6.4756 10.075C6.59135 10.0865 6.65798 10.0692 6.7743 10.0692C6.85617 10.0692 6.88488 10.1683 6.88488 10.2502C6.88488 10.3751 6.78556 10.3874 6.56034 10.3832Z" fill="white"/>
<path d="M7.42442 10.0695C7.37847 10.0695 7.35258 10.0711 7.30666 10.0695C7.15578 10.0642 7.07921 10.0728 7.07921 10.1575C7.07921 10.2064 7.07497 10.2596 7.11854 10.3022C7.21477 10.3022 7.24225 10.3787 7.33849 10.3787C7.42465 10.3787 7.53417 10.3277 7.52353 10.1988C7.51833 10.1358 7.48762 10.0695 7.42442 10.0695Z" fill="white"/>
<path d="M7.44032 11.4334C7.368 11.4461 7.3792 11.5576 7.37689 11.6308C7.37227 11.7779 7.36983 11.8247 7.44882 11.8247C7.47897 11.8247 7.55387 11.8061 7.55301 11.7355C7.5522 11.6682 7.58603 11.6386 7.58603 11.5711C7.58605 11.5165 7.52541 11.4462 7.44032 11.4334Z" fill="white"/>
<path d="M11.5616 7.32109H11.4364C11.3799 7.32109 11.3673 7.24358 11.3673 7.1871C11.3673 7.13965 11.3484 7.11003 11.3673 7.06731C11.41 6.97062 11.6384 7.06737 11.6384 7.06737V7.18258C11.6384 7.23002 11.5864 7.28267 11.5616 7.32109Z" fill="white"/>
<path d="M7.49574 4.93987H7.1534L6.98016 4.64221L6.80912 4.93766H6.47119L6.64223 5.23118L6.47119 5.5269H6.81326L6.98457 5.82042L7.15781 5.5269H7.49354L7.3225 5.23559L7.49574 4.93987Z" fill="white"/>
<mask id="mask0_795_2430" style="mask-type:luminance" maskUnits="userSpaceOnUse" x="8" y="8" width="2" height="5">
<path d="M9.71972 12.0488C9.50167 12.2468 9.26013 12.2397 8.97894 12.24C8.63767 12.2393 8.47387 12.2353 8.24316 12.0488L8.24338 9.65085C8.24338 9.25127 8.56561 8.94153 8.98134 8.94153C9.39706 8.94153 9.71932 9.25127 9.71932 9.65085L9.71973 12.0488H9.71972Z" fill="white"/>
</mask>
<g mask="url(#mask0_795_2430)">
<path d="M9.59255 12.6447L9.59237 9.63477C9.59237 9.31833 9.37556 9.06183 9.08098 9.06183C9.08009 9.06183 9.08091 11.9829 9.08091 12.6447L9.59255 12.6447Z" fill="white"/>
</g>
<mask id="mask1_795_2430" style="mask-type:luminance" maskUnits="userSpaceOnUse" x="8" y="8" width="2" height="5">
<path d="M9.71972 12.0488C9.50167 12.2468 9.26013 12.2397 8.97894 12.24C8.63767 12.2393 8.47387 12.2353 8.24316 12.0488L8.24338 9.65085C8.24338 9.25127 8.56561 8.94153 8.98134 8.94153C9.39706 8.94153 9.71932 9.25127 9.71932 9.65085L9.71973 12.0488H9.71972Z" fill="white"/>
</mask>
<g mask="url(#mask1_795_2430)">
<path d="M8.37258 12.6447L8.37256 9.63477C8.37256 9.31833 8.59411 9.06183 8.88409 9.06183C8.88498 9.06183 8.88436 11.9829 8.88436 12.6447L8.37258 12.6447Z" fill="white"/>
</g>
<mask id="mask2_795_2430" style="mask-type:luminance" maskUnits="userSpaceOnUse" x="7" y="8" width="4" height="5">
<path d="M10.0474 11.9291C9.74932 12.1403 9.41136 12.0585 9.00524 12.059C8.59122 12.0577 8.21511 12.1421 7.91553 11.9291V9.61098C7.91553 9.03382 8.38096 8.58646 8.98146 8.58646C9.58195 8.58646 10.0474 9.03382 10.0474 9.61098V11.9291Z" fill="white"/>
</mask>
<g mask="url(#mask2_795_2430)">
<path fill-rule="evenodd" clip-rule="evenodd" d="M9.79727 12.6447C9.50817 12.6458 8.50141 12.6458 8.16591 12.6447L8.16603 9.6273C8.16603 9.18579 8.52212 8.84352 8.98145 8.84352C9.44082 8.84352 9.79687 9.18576 9.79687 9.6273L9.79727 12.6447ZM10.0474 12.0185C9.74932 12.2297 9.38758 12.3869 8.98146 12.3873C8.56744 12.386 8.21511 12.2315 7.91553 12.0185V9.61089C7.91553 9.03373 8.38096 8.58636 8.98146 8.58636C9.58195 8.58636 10.0474 9.03373 10.0474 9.61089V12.0185Z" fill="white"/>
</g>
<path d="M7.42824 7.24523C7.42824 7.26676 7.45795 7.32303 7.45795 7.34458C7.45795 7.35893 7.50635 7.34607 7.52072 7.34607C7.55949 7.34607 7.58966 7.3116 7.58966 7.27283C7.58966 7.1881 7.66101 7.1151 7.61617 6.99553C7.59316 6.93422 7.50341 6.96056 7.44824 6.99589C7.41544 7.08778 7.42824 7.16339 7.42824 7.24523Z" fill="white"/>
<path d="M6.25391 9.47752C6.25816 9.54132 6.43246 9.53112 6.51575 9.53684C6.65649 9.54833 6.63615 9.50729 6.77688 9.50729C6.81279 9.50729 6.94687 9.51432 6.94687 9.47841C6.94687 9.37643 6.87898 9.32436 6.71308 9.32011C6.38519 9.31172 6.31772 9.35416 6.25391 9.47752Z" fill="white"/>
<path d="M10.9431 9.40358C10.8844 9.29446 10.7837 9.31741 10.6746 9.31741C10.6171 9.31741 10.5507 9.32426 10.4933 9.32426C10.4373 9.32426 10.3784 9.35332 10.3784 9.40934C10.3784 9.4553 10.4162 9.4757 10.455 9.49867C10.511 9.53311 10.9269 9.51567 10.9431 9.40358Z" fill="white"/>
<path fill-rule="evenodd" clip-rule="evenodd" d="M9.74405 2.76799L9.79751 2.15701C10.278 2.21151 10.6175 2.09167 10.6599 1.60683C10.7028 1.11706 10.3426 0.94098 9.85825 0.898607L9.35213 0.85434L9.18896 2.71942L9.74405 2.76799ZM10.1001 1.55036C10.088 1.68888 9.98602 1.75724 9.83428 1.73647L9.87196 1.30607L9.91299 1.30718C10.049 1.31907 10.1105 1.43162 10.1001 1.55036Z" fill="#604734"/>
<path fill-rule="evenodd" clip-rule="evenodd" d="M12.0216 3.63145L12.4658 1.76121L11.8572 1.45779L10.5796 2.91253L11.0928 3.16842L11.2418 2.97363L11.5767 3.14056L11.5059 3.37435L12.0216 3.63145ZM11.4851 2.65101L11.7474 2.2963C11.819 2.2016 11.8844 2.10105 11.9511 2.00395L11.956 2.00636C11.9161 2.11689 11.8727 2.22841 11.8353 2.34013L11.6952 2.75574L11.4851 2.65101Z" fill="#604734"/>
<path d="M3.79295 6.96718L3.08639 6.84276L3.15563 6.44994L2.72035 6.37325L2.6511 6.7658L2.38457 6.7189L2.45855 6.29932L2.02327 6.22263L1.85254 7.1909L3.69632 7.51587L3.79295 6.96718Z" fill="#604734"/>
<path d="M2.77212 4.44856C2.70244 4.5142 2.64796 4.59376 2.60332 4.68136C2.48057 4.92229 2.31896 5.55113 3.06674 5.93218C3.63753 6.22302 4.09458 6.02062 4.30167 5.61419C4.35747 5.5047 4.38344 5.4045 4.39447 5.28443L3.94255 5.01737C3.96801 5.13149 3.97187 5.22237 3.91482 5.33431C3.78833 5.58254 3.50831 5.51953 3.31363 5.42033C3.13 5.32677 2.9034 5.13159 3.03485 4.87363C3.08693 4.77143 3.15209 4.73105 3.24999 4.69203L2.77212 4.44856Z" fill="#604734"/>
<path d="M13.9921 6.36164L14.396 6.18205L14.226 5.80026L15.5323 5.21874L15.3058 4.7095L13.5957 5.47116L13.9921 6.36164Z" fill="#604734"/>
<path d="M14.2933 3.22841L13.431 4.03255C13.3965 4.06472 13.3511 4.11073 13.3018 4.13429C13.2562 4.15816 13.203 4.15928 13.149 4.10138C13.0968 4.04547 13.1017 3.99242 13.1286 3.9449C13.1537 3.89907 13.2028 3.85704 13.2391 3.82319L14.0996 3.02077L13.7197 2.61337L12.8248 3.44799C12.6596 3.60206 12.3646 3.95177 12.8041 4.42306C13.2435 4.89434 13.613 4.62448 13.7782 4.47042L14.6732 3.63582L14.2933 3.22841Z" fill="#604734"/>
<path d="M7.80266 2.89407C7.96534 2.83806 8.05921 2.67441 8.0083 2.52649C7.95413 2.36919 7.77507 2.30217 7.60719 2.35998C7.45482 2.41246 7.36515 2.57989 7.41446 2.7231C7.4662 2.87335 7.63736 2.95098 7.80266 2.89407Z" fill="#604734"/>
<path d="M7.05008 3.0833L6.45201 1.80059L6.74139 1.6655L6.54856 1.25143L5.47656 1.75127L5.66967 2.16537L5.94691 2.03607L6.54498 3.31888L7.05008 3.0833Z" fill="#604734"/>
<path d="M5.19609 4.20497C5.32845 4.15873 5.45689 4.0866 5.56569 3.99532C5.86282 3.746 5.88911 3.36092 5.66564 3.0946C5.57467 2.98619 5.48361 2.93291 5.37913 2.91039C5.27675 2.8861 5.16091 2.89252 5.02305 2.91097C4.98566 2.91318 4.93832 2.92048 4.89615 2.91696C4.85398 2.91346 4.81281 2.90263 4.78726 2.8722C4.74099 2.81704 4.77452 2.73378 4.82474 2.69165C4.92307 2.60912 5.01745 2.57101 5.14582 2.55389L4.83961 2.19943C4.71294 2.23118 4.5781 2.2957 4.47558 2.38172C4.1115 2.68721 4.24971 3.08989 4.39018 3.25726C4.47796 3.36188 4.57846 3.41366 4.68665 3.43635C4.7985 3.45918 4.91802 3.45288 5.0512 3.44163C5.09276 3.43592 5.13225 3.43196 5.16862 3.4371C5.20711 3.44046 5.24041 3.45464 5.26914 3.4889C5.32179 3.55166 5.28199 3.64017 5.22339 3.68934C5.11459 3.78063 5.03459 3.80586 4.88058 3.81439L5.19609 4.20497Z" fill="#604734"/>
<path d="M14.2133 7.5167L16.0673 7.25601L15.9898 6.70428L14.1357 6.9647L14.2133 7.5167Z" fill="#604734"/>
<path fill-rule="evenodd" clip-rule="evenodd" d="M10.867 12.941C10.3253 13.1275 10.3583 13.701 10.4932 14.0926C10.628 14.4842 10.9551 14.9565 11.4967 14.77C12.0384 14.5835 12.0054 14.01 11.8706 13.6184C11.7357 13.2268 11.4087 12.7545 10.867 12.941ZM11.0075 13.349C11.1674 13.2939 11.2835 13.5976 11.3521 13.7969C11.4207 13.9962 11.5162 14.3069 11.3562 14.362C11.1963 14.4171 11.0802 14.1134 11.0116 13.9141C10.943 13.7148 10.8475 13.4041 11.0075 13.349Z" fill="#604734"/>
<path d="M6.43443 14.7443L7.16877 13.0223L6.55663 12.7614L6.28353 13.1145L6.48684 13.2011L5.92188 14.5258L6.43443 14.7443Z" fill="#604734"/>
<path d="M10.0087 15.1184L9.82137 13.256L9.1593 13.3225L9.09033 13.7636L9.31019 13.7415L9.45447 15.1741L10.0087 15.1184Z" fill="#604734"/>
<path fill-rule="evenodd" clip-rule="evenodd" d="M8.07134 13.5956C8.25001 13.6335 8.23155 13.7879 8.21308 13.8748C8.19556 13.9572 8.14215 14.0902 7.97723 14.0551C7.8123 14.0201 7.80636 13.8791 7.82342 13.799C7.84141 13.7143 7.89268 13.5576 8.07134 13.5956ZM7.35145 15.0013L7.89435 15.1057L8.17178 14.8303C8.36967 14.6085 8.64737 14.2869 8.70825 14.0004C8.78619 13.6338 8.61734 13.2858 8.19002 13.195C7.75471 13.1025 7.42513 13.3267 7.34306 13.7127C7.28836 13.9701 7.39064 14.3293 7.71644 14.3986C7.79122 14.4145 7.84876 14.4064 7.91422 14.3873L7.35145 15.0013Z" fill="#604734"/>
</g>
<defs>
<clipPath id="clip0_795_2430">
<rect width="16" height="16" fill="white" transform="translate(0.96875)"/>
</clipPath>
</defs>
</svg>
