<svg width="44" height="64" viewBox="0 0 44 64" fill="none" xmlns="http://www.w3.org/2000/svg">
<g clip-path="url(#clip0_746_50)">
<path d="M22.1763 32C22.1763 29.171 23.3001 26.4579 25.3005 24.4575C27.3009 22.4572 30.014 21.3333 32.8429 21.3333C35.6719 21.3333 38.385 22.4572 40.3854 24.4575C42.3858 26.4579 43.5096 29.171 43.5096 32C43.5096 34.829 42.3858 37.5421 40.3854 39.5425C38.385 41.5429 35.6719 42.6667 32.8429 42.6667C30.014 42.6667 27.3009 41.5429 25.3005 39.5425C23.3001 37.5421 22.1763 34.829 22.1763 32Z" fill="#1ABCFE"/>
<path d="M0.843018 53.3333C0.843018 50.5043 1.96682 47.7912 3.96721 45.7909C5.9676 43.7905 8.68071 42.6667 11.5097 42.6667H22.1764V53.3333C22.1764 56.1623 21.0525 58.8754 19.0522 60.8758C17.0518 62.8762 14.3387 64 11.5097 64C8.68071 64 5.9676 62.8762 3.96721 60.8758C1.96682 58.8754 0.843018 56.1623 0.843018 53.3333Z" fill="#0ACF83"/>
<path d="M22.1763 0V21.3333H32.8429C35.6719 21.3333 38.385 20.2095 40.3854 18.2091C42.3858 16.2087 43.5096 13.4956 43.5096 10.6667C43.5096 7.83769 42.3858 5.12458 40.3854 3.12419C38.385 1.12381 35.6719 0 32.8429 0L22.1763 0Z" fill="#FF7262"/>
<path d="M0.843018 10.6667C0.843018 13.4956 1.96682 16.2087 3.96721 18.2091C5.9676 20.2095 8.68071 21.3333 11.5097 21.3333H22.1764V0H11.5097C8.68071 0 5.9676 1.12381 3.96721 3.12419C1.96682 5.12458 0.843018 7.83769 0.843018 10.6667Z" fill="#F24E1E"/>
<path d="M0.843018 32C0.843018 34.829 1.96682 37.5421 3.96721 39.5425C5.9676 41.5429 8.68071 42.6667 11.5097 42.6667H22.1764V21.3333H11.5097C8.68071 21.3333 5.9676 22.4572 3.96721 24.4575C1.96682 26.4579 0.843018 29.171 0.843018 32Z" fill="#A259FF"/>
</g>
<defs>
<clipPath id="clip0_746_50">
<rect width="42.6667" height="64" fill="white" transform="translate(0.843018)"/>
</clipPath>
</defs>
</svg>
