<svg width="12" height="16" viewBox="0 0 12 16" fill="none" xmlns="http://www.w3.org/2000/svg">
<g clip-path="url(#clip0_746_50)">
<path d="M6.20117 8.00001C6.20117 7.29277 6.48212 6.61449 6.98222 6.11439C7.48232 5.6143 8.16059 5.33334 8.86784 5.33334C9.57508 5.33334 10.2534 5.6143 10.7535 6.11439C11.2536 6.61449 11.5345 7.29277 11.5345 8.00001C11.5345 8.70725 11.2536 9.38553 10.7535 9.88563C10.2534 10.3857 9.57508 10.6667 8.86784 10.6667C8.16059 10.6667 7.48232 10.3857 6.98222 9.88563C6.48212 9.38553 6.20117 8.70725 6.20117 8.00001Z" fill="#1ABCFE"/>
<path d="M0.867798 13.3333C0.867798 12.6261 1.14875 11.9478 1.64885 11.4477C2.14894 10.9476 2.82722 10.6667 3.53446 10.6667H6.20113V13.3333C6.20113 14.0406 5.92018 14.7188 5.42008 15.2189C4.91999 15.719 4.24171 16 3.53446 16C2.82722 16 2.14894 15.719 1.64885 15.2189C1.14875 14.7188 0.867798 14.0406 0.867798 13.3333Z" fill="#0ACF83"/>
<path d="M6.20117 0V5.33333H8.86784C9.57508 5.33333 10.2534 5.05238 10.7535 4.55228C11.2536 4.05219 11.5345 3.37391 11.5345 2.66667C11.5345 1.95942 11.2536 1.28115 10.7535 0.781049C10.2534 0.280952 9.57508 0 8.86784 0L6.20117 0Z" fill="#FF7262"/>
<path d="M0.867798 2.66667C0.867798 3.37391 1.14875 4.05219 1.64885 4.55228C2.14894 5.05238 2.82722 5.33333 3.53446 5.33333H6.20113V0H3.53446C2.82722 0 2.14894 0.280952 1.64885 0.781049C1.14875 1.28115 0.867798 1.95942 0.867798 2.66667Z" fill="#F24E1E"/>
<path d="M0.867798 8.00001C0.867798 8.70725 1.14875 9.38553 1.64885 9.88563C2.14894 10.3857 2.82722 10.6667 3.53446 10.6667H6.20113V5.33334H3.53446C2.82722 5.33334 2.14894 5.6143 1.64885 6.11439C1.14875 6.61449 0.867798 7.29277 0.867798 8.00001Z" fill="#A259FF"/>
</g>
<defs>
<clipPath id="clip0_746_50">
<rect width="10.6667" height="16" fill="white" transform="translate(0.867798)"/>
</clipPath>
</defs>
</svg>
