<svg width="63" height="64" viewBox="0 0 63 64" fill="none" xmlns="http://www.w3.org/2000/svg">
<g clip-path="url(#clip0_746_197)">
<path d="M59.9469 21.4704C58.5991 18.2274 55.8652 14.726 53.7243 13.6191C55.2513 16.5765 56.311 19.7525 56.8656 23.0342L56.8712 23.0862C53.3642 14.3426 47.4169 10.8172 42.5597 3.14042C42.3089 2.74907 42.0652 2.3531 41.829 1.95274C41.7072 1.74361 41.5933 1.53004 41.4873 1.31247C41.2858 0.922354 41.1306 0.510065 41.0247 0.0839662C41.0248 0.0643038 41.0177 0.0452773 41.0047 0.0305161C40.9918 0.0157549 40.9738 0.00629225 40.9543 0.00393322C40.9351 -0.00131107 40.915 -0.00131107 40.8958 0.00393322C40.8918 0.00393322 40.8854 0.0111362 40.8806 0.0127368C40.8758 0.0143375 40.8654 0.0215405 40.8582 0.0247418L40.8702 0.00393322C33.079 4.56581 30.4355 13.0109 30.1922 17.235C27.0808 17.4489 24.106 18.5955 21.6559 20.5252C21.4003 20.3087 21.1331 20.1061 20.8556 19.9185C20.1488 17.4447 20.1187 14.8265 20.7684 12.337C17.9071 13.7231 15.3647 15.688 13.3021 18.1074H13.2877C12.0584 16.5491 12.1448 11.411 12.2152 10.3378C11.8516 10.4839 11.5044 10.6683 11.1796 10.8876C10.0944 11.6621 9.07988 12.5312 8.14795 13.4847C7.086 14.5614 6.11608 15.7251 5.24836 16.9637V16.9685V16.9629C3.25413 19.7901 1.83967 22.9844 1.08665 26.3612L1.04503 26.5661C0.930617 27.2096 0.828956 27.8553 0.740102 28.5029C0.740102 28.5261 0.735301 28.5477 0.7329 28.5709C0.461378 29.9822 0.293129 31.4113 0.229492 32.8471V33.0071C0.236293 40.7738 3.15632 48.2553 8.41247 53.9731C13.6686 59.6909 20.8785 63.229 28.6171 63.888C36.3557 64.5471 44.06 62.2793 50.2074 57.5327C56.3548 52.7861 60.4979 45.9061 61.8181 38.2525C61.8701 37.8523 61.9125 37.4562 61.9589 37.052C62.5978 31.7716 61.9061 26.4153 59.9469 21.4704ZM24.1962 45.7508C24.341 45.8204 24.4771 45.8956 24.6259 45.9621L24.6475 45.9757C24.4971 45.9036 24.3466 45.8287 24.1962 45.7508ZM56.8736 23.0934V23.0638L56.8792 23.0966L56.8736 23.0934Z" fill="url(#paint0_linear_746_197)"/>
<path d="M59.9469 21.4704C58.5991 18.2274 55.8652 14.726 53.7243 13.6191C55.2513 16.5765 56.311 19.7525 56.8656 23.0342V23.0638L56.8712 23.0966C59.262 29.9382 58.9162 37.4391 55.906 44.0317C52.3509 51.6596 43.7458 59.478 30.2763 59.0979C15.7223 58.6857 2.90499 47.8861 0.508807 33.741C0.0726277 31.5105 0.508807 30.3796 0.728098 28.5669C0.428956 29.975 0.262029 31.4079 0.229492 32.8471V33.0071C0.236293 40.7738 3.15632 48.2553 8.41247 53.9731C13.6686 59.6909 20.8785 63.229 28.6171 63.888C36.3557 64.5471 44.06 62.2793 50.2074 57.5327C56.3548 52.7861 60.4979 45.9061 61.8181 38.2525C61.8701 37.8523 61.9125 37.4562 61.9589 37.052C62.5978 31.7716 61.9061 26.4153 59.9469 21.4704Z" fill="url(#paint1_radial_746_197)"/>
<path d="M59.9469 21.4704C58.5991 18.2274 55.8652 14.726 53.7243 13.6191C55.2513 16.5765 56.311 19.7525 56.8656 23.0342V23.0638L56.8712 23.0966C59.262 29.9382 58.9162 37.4391 55.906 44.0317C52.3509 51.6596 43.7458 59.478 30.2763 59.0979C15.7223 58.6857 2.90499 47.8861 0.508807 33.741C0.0726277 31.5105 0.508807 30.3796 0.728098 28.5669C0.428956 29.975 0.262029 31.4079 0.229492 32.8471V33.0071C0.236293 40.7738 3.15632 48.2553 8.41247 53.9731C13.6686 59.6909 20.8785 63.229 28.6171 63.888C36.3557 64.5471 44.06 62.2793 50.2074 57.5327C56.3548 52.7861 60.4979 45.9061 61.8181 38.2525C61.8701 37.8523 61.9125 37.4562 61.9589 37.052C62.5978 31.7716 61.9061 26.4153 59.9469 21.4704Z" fill="url(#paint2_radial_746_197)"/>
<path d="M44.8736 25.1167C44.9409 25.1639 45.0033 25.2111 45.0665 25.2583C44.2874 23.8767 43.3174 22.6118 42.1853 21.5008C32.5446 11.8584 39.6587 0.59378 40.8584 0.021544L40.8704 0.00393677C33.0792 4.56581 30.4357 13.0109 30.1924 17.235C30.5541 17.2102 30.9127 17.1798 31.2824 17.1798C34.0469 17.1849 36.7608 17.9219 39.148 19.316C41.5353 20.7101 43.5108 22.7115 44.8736 25.1167Z" fill="url(#paint3_radial_746_197)"/>
<path d="M31.3024 27.0423C31.2512 27.8138 28.5252 30.4749 27.572 30.4749C18.7516 30.4749 17.3198 35.8107 17.3198 35.8107C17.7104 40.3037 20.8413 44.0045 24.626 45.9621C24.7989 46.0517 24.9742 46.1325 25.1494 46.2118C25.453 46.3462 25.7566 46.4705 26.0602 46.5847C27.3591 47.0444 28.7196 47.3069 30.0963 47.3634C45.5563 48.0885 48.5511 28.8758 37.3945 23.3007C40.0264 22.9583 42.6917 23.6054 44.8736 25.1167C43.5107 22.7115 41.5352 20.7101 39.1479 19.316C36.7607 17.9219 34.0469 17.1849 31.2824 17.1798C30.9142 17.1798 30.5541 17.2102 30.1923 17.235C27.0809 17.4489 24.1061 18.5955 21.656 20.5252C22.129 20.9254 22.6628 21.46 23.7873 22.5684C25.8922 24.6421 31.2904 26.7902 31.3024 27.0423Z" fill="url(#paint4_radial_746_197)"/>
<path d="M31.3024 27.0423C31.2512 27.8138 28.5252 30.4749 27.572 30.4749C18.7516 30.4749 17.3198 35.8107 17.3198 35.8107C17.7104 40.3037 20.8413 44.0045 24.626 45.9621C24.7989 46.0517 24.9742 46.1325 25.1494 46.2118C25.453 46.3462 25.7566 46.4705 26.0602 46.5847C27.3591 47.0444 28.7196 47.3069 30.0963 47.3634C45.5563 48.0885 48.5511 28.8758 37.3945 23.3007C40.0264 22.9583 42.6917 23.6054 44.8736 25.1167C43.5107 22.7115 41.5352 20.7101 39.1479 19.316C36.7607 17.9219 34.0469 17.1849 31.2824 17.1798C30.9142 17.1798 30.5541 17.2102 30.1923 17.235C27.0809 17.4489 24.1061 18.5955 21.656 20.5252C22.129 20.9254 22.6628 21.46 23.7873 22.5684C25.8922 24.6421 31.2904 26.7902 31.3024 27.0423Z" fill="url(#paint5_radial_746_197)"/>
<path d="M20.2096 19.4936C20.4609 19.6536 20.6682 19.7929 20.8499 19.9185C20.1431 17.4447 20.113 14.8265 20.7627 12.337C17.9014 13.7231 15.3591 15.688 13.2964 18.1074C13.4476 18.1034 17.9471 18.0225 20.2096 19.4936Z" fill="url(#paint6_radial_746_197)"/>
<path d="M0.512781 33.741C2.90657 47.8861 15.7262 58.6857 30.2802 59.0979C43.7498 59.4788 52.3549 51.6596 55.91 44.0317C58.9202 37.4391 59.266 29.9382 56.8752 23.0966V23.067C56.8752 23.0438 56.8704 23.0302 56.8752 23.0374L56.8808 23.0894C57.9812 30.274 54.3269 37.2345 48.6142 41.9412L48.5966 41.9812C37.4656 51.0466 26.8132 47.4507 24.6571 45.9829C24.5067 45.9108 24.3562 45.8359 24.2057 45.758C17.7159 42.6559 15.0348 36.7431 15.6094 31.6722C14.0688 31.6949 12.5548 31.2704 11.2506 30.45C9.94643 29.6297 8.90816 28.4488 8.26157 27.0503C9.96516 26.0066 11.9076 25.4166 13.9039 25.3364C15.9002 25.2563 17.8837 25.6887 19.6655 26.5925C23.3389 28.2601 27.5189 28.4244 31.3119 27.0503C31.2999 26.7982 25.9016 24.6493 23.7968 22.5764C22.6723 21.468 22.1385 20.9342 21.6655 20.5332C21.4099 20.3167 21.1427 20.1142 20.8652 19.9265C20.6811 19.8009 20.4738 19.6648 20.2249 19.5016C17.9624 18.0306 13.4629 18.1114 13.3141 18.1154H13.2996C12.0703 16.5572 12.1568 11.419 12.2272 10.3458C11.8635 10.492 11.5164 10.6763 11.1916 10.8956C10.1064 11.6701 9.09186 12.5392 8.15993 13.4927C7.09417 14.5664 6.12023 15.7274 5.24833 16.9637V16.9685V16.9629C3.2541 19.7901 1.83965 22.9844 1.08662 26.3612C1.07141 26.4244 -0.0306431 31.2424 0.512781 33.741Z" fill="url(#paint7_radial_746_197)"/>
<path d="M42.187 21.5008C43.3194 22.613 44.2893 23.8793 45.0682 25.2623C45.2386 25.3912 45.3979 25.5192 45.5332 25.6433C52.5657 32.126 48.8809 41.2897 48.6064 41.942C54.3192 37.2353 57.9703 30.2748 56.873 23.0902C53.3644 14.3426 47.4171 10.8172 42.5599 3.14042C42.3091 2.74907 42.0655 2.3531 41.8292 1.95274C41.7075 1.74361 41.5935 1.53004 41.4875 1.31247C41.286 0.922354 41.1308 0.510065 41.0249 0.0839662C41.025 0.0643038 41.0179 0.0452773 41.005 0.0305161C40.992 0.0157549 40.974 0.00629225 40.9545 0.00393322C40.9354 -0.00131107 40.9152 -0.00131107 40.8961 0.00393322C40.8921 0.00393322 40.8856 0.0111362 40.8808 0.0127368C40.876 0.0143375 40.8656 0.0215405 40.8584 0.0247418C39.6587 0.593776 32.5446 11.8584 42.187 21.5008Z" fill="url(#paint8_radial_746_197)"/>
<path d="M45.528 25.6393C45.379 25.5052 45.2238 25.378 45.063 25.2583C44.9998 25.2111 44.9373 25.1639 44.8701 25.1167C42.6883 23.6054 40.0229 22.9583 37.391 23.3007C48.5476 28.879 45.5544 48.0885 30.0928 47.3634C28.7161 47.3069 27.3557 47.0444 26.0567 46.5847C25.7532 46.4711 25.4496 46.3467 25.146 46.2118C24.9707 46.1317 24.7954 46.0517 24.6226 45.9621L24.6442 45.9757C26.8003 47.4475 37.4494 51.0433 48.5836 41.974L48.6012 41.934C48.879 41.2857 52.5637 32.1196 45.528 25.6393Z" fill="url(#paint9_radial_746_197)"/>
<path d="M17.3197 35.8107C17.3197 35.8107 18.7515 30.4749 27.5719 30.4749C28.5251 30.4749 31.2534 27.8138 31.3022 27.0423C27.5093 28.4164 23.3292 28.2521 19.6558 26.5845C17.8741 25.6807 15.8906 25.2483 13.8943 25.3284C11.898 25.4086 9.95555 25.9986 8.25195 27.0423C8.89854 28.4408 9.93681 29.6217 11.241 30.4421C12.5451 31.2624 14.0592 31.6869 15.5998 31.6642C15.0251 36.7359 17.7062 42.6487 24.1961 45.75C24.341 45.8196 24.477 45.8948 24.6259 45.9613C20.8379 44.0045 17.7102 40.3037 17.3197 35.8107Z" fill="url(#paint10_radial_746_197)"/>
<path d="M59.9469 21.4704C58.5991 18.2274 55.8652 14.726 53.7243 13.6191C55.2513 16.5765 56.311 19.7525 56.8656 23.0342L56.8712 23.0862C53.3642 14.3426 47.4169 10.8172 42.5597 3.14042C42.3089 2.74907 42.0652 2.3531 41.829 1.95274C41.7072 1.74361 41.5933 1.53004 41.4873 1.31247C41.2858 0.922354 41.1306 0.510065 41.0247 0.0839662C41.0248 0.0643038 41.0177 0.0452773 41.0047 0.0305161C40.9918 0.0157549 40.9738 0.00629225 40.9543 0.00393322C40.9351 -0.00131107 40.915 -0.00131107 40.8958 0.00393322C40.8918 0.00393322 40.8854 0.0111362 40.8806 0.0127368C40.8758 0.0143375 40.8654 0.0215405 40.8582 0.0247418L40.8702 0.00393322C33.079 4.56581 30.4355 13.0109 30.1922 17.235C30.554 17.2102 30.9125 17.1798 31.2823 17.1798C34.0468 17.1849 36.7606 17.9219 39.1479 19.316C41.5351 20.7101 43.5106 22.7115 44.8735 25.1167C42.6916 23.6054 40.0263 22.9583 37.3944 23.3007C48.551 28.879 45.5578 48.0885 30.0962 47.3634C28.7195 47.3069 27.359 47.0444 26.0601 46.5847C25.7565 46.4711 25.4529 46.3467 25.1494 46.2118C24.9741 46.1317 24.7988 46.0517 24.6259 45.9621L24.6475 45.9757C24.4971 45.9036 24.3466 45.8287 24.1962 45.7508C24.341 45.8204 24.4771 45.8956 24.6259 45.9621C20.838 44.0045 17.7103 40.3037 17.3197 35.8107C17.3197 35.8107 18.7515 30.4749 27.572 30.4749C28.5251 30.4749 31.2535 27.8138 31.3023 27.0423C31.2903 26.7902 25.8921 24.6413 23.7872 22.5684C22.6627 21.46 22.1289 20.9261 21.6559 20.5252C21.4003 20.3087 21.1331 20.1061 20.8556 19.9185C20.1488 17.4447 20.1187 14.8265 20.7684 12.337C17.9071 13.7231 15.3647 15.688 13.3021 18.1074H13.2877C12.0584 16.5491 12.1448 11.411 12.2152 10.3378C11.8516 10.4839 11.5044 10.6683 11.1796 10.8876C10.0944 11.6621 9.07988 12.5312 8.14795 13.4847C7.086 14.5614 6.11608 15.7251 5.24836 16.9637V16.9685V16.9629C3.25413 19.7901 1.83967 22.9844 1.08665 26.3612L1.04503 26.5661C0.986604 26.839 0.724896 28.2252 0.687281 28.5229C0.687281 28.4997 0.687281 28.5453 0.687281 28.5229C0.44791 29.9538 0.295037 31.3978 0.229492 32.8471V33.0071C0.236293 40.7738 3.15632 48.2553 8.41247 53.9731C13.6686 59.6909 20.8785 63.229 28.6171 63.888C36.3557 64.5471 44.06 62.2793 50.2074 57.5327C56.3548 52.7861 60.4979 45.9061 61.8181 38.2525C61.8701 37.8523 61.9125 37.4562 61.9589 37.052C62.5978 31.7716 61.9061 26.4153 59.9469 21.4704Z" fill="url(#paint11_linear_746_197)"/>
</g>
<defs>
<linearGradient id="paint0_linear_746_197" x1="55.8412" y1="9.91521" x2="4.34879" y2="59.5957" gradientUnits="userSpaceOnUse">
<stop offset="0.048" stop-color="#FFF44F"/>
<stop offset="0.111" stop-color="#FFE847"/>
<stop offset="0.225" stop-color="#FFC830"/>
<stop offset="0.368" stop-color="#FF980E"/>
<stop offset="0.401" stop-color="#FF8B16"/>
<stop offset="0.462" stop-color="#FF672A"/>
<stop offset="0.534" stop-color="#FF3647"/>
<stop offset="0.705" stop-color="#E31587"/>
</linearGradient>
<radialGradient id="paint1_radial_746_197" cx="0" cy="0" r="1" gradientUnits="userSpaceOnUse" gradientTransform="translate(53.4618 7.10286) scale(64.6642 64.6642)">
<stop offset="0.129" stop-color="#FFBD4F"/>
<stop offset="0.186" stop-color="#FFAC31"/>
<stop offset="0.247" stop-color="#FF9D17"/>
<stop offset="0.283" stop-color="#FF980E"/>
<stop offset="0.403" stop-color="#FF563B"/>
<stop offset="0.467" stop-color="#FF3750"/>
<stop offset="0.71" stop-color="#F5156C"/>
<stop offset="0.782" stop-color="#EB0878"/>
<stop offset="0.86" stop-color="#E50080"/>
</radialGradient>
<radialGradient id="paint2_radial_746_197" cx="0" cy="0" r="1" gradientUnits="userSpaceOnUse" gradientTransform="translate(29.8329 33.5393) scale(64.6642 64.6642)">
<stop offset="0.3" stop-color="#960E18"/>
<stop offset="0.351" stop-color="#B11927" stop-opacity="0.74"/>
<stop offset="0.435" stop-color="#DB293D" stop-opacity="0.343"/>
<stop offset="0.497" stop-color="#F5334B" stop-opacity="0.094"/>
<stop offset="0.53" stop-color="#FF3750" stop-opacity="0"/>
</radialGradient>
<radialGradient id="paint3_radial_746_197" cx="0" cy="0" r="1" gradientUnits="userSpaceOnUse" gradientTransform="translate(37.629 -7.57198) scale(46.8465 46.8465)">
<stop offset="0.132" stop-color="#FFF44F"/>
<stop offset="0.252" stop-color="#FFDC3E"/>
<stop offset="0.506" stop-color="#FF9D12"/>
<stop offset="0.526" stop-color="#FF980E"/>
</radialGradient>
<radialGradient id="paint4_radial_746_197" cx="0" cy="0" r="1" gradientUnits="userSpaceOnUse" gradientTransform="translate(22.6804 50.4303) scale(30.7895 30.7895)">
<stop offset="0.353" stop-color="#3A8EE6"/>
<stop offset="0.472" stop-color="#5C79F0"/>
<stop offset="0.669" stop-color="#9059FF"/>
<stop offset="1" stop-color="#C139E6"/>
</radialGradient>
<radialGradient id="paint5_radial_746_197" cx="0" cy="0" r="1" gradientUnits="userSpaceOnUse" gradientTransform="translate(33.3666 28.2398) rotate(-13.5916) scale(16.3244 19.1118)">
<stop offset="0.206" stop-color="#9059FF" stop-opacity="0"/>
<stop offset="0.278" stop-color="#8C4FF3" stop-opacity="0.064"/>
<stop offset="0.747" stop-color="#7716A8" stop-opacity="0.45"/>
<stop offset="0.975" stop-color="#6E008B" stop-opacity="0.6"/>
</radialGradient>
<radialGradient id="paint6_radial_746_197" cx="0" cy="0" r="1" gradientUnits="userSpaceOnUse" gradientTransform="translate(29.0165 4.45696) scale(22.1499 22.1499)">
<stop stop-color="#FFE226"/>
<stop offset="0.121" stop-color="#FFDB27"/>
<stop offset="0.295" stop-color="#FFC82A"/>
<stop offset="0.502" stop-color="#FFA930"/>
<stop offset="0.732" stop-color="#FF7E37"/>
<stop offset="0.792" stop-color="#FF7139"/>
</radialGradient>
<radialGradient id="paint7_radial_746_197" cx="0" cy="0" r="1" gradientUnits="userSpaceOnUse" gradientTransform="translate(46.4269 -9.59202) scale(94.5037 94.5037)">
<stop offset="0.113" stop-color="#FFF44F"/>
<stop offset="0.456" stop-color="#FF980E"/>
<stop offset="0.622" stop-color="#FF5634"/>
<stop offset="0.716" stop-color="#FF3647"/>
<stop offset="0.904" stop-color="#E31587"/>
</radialGradient>
<radialGradient id="paint8_radial_746_197" cx="0" cy="0" r="1" gradientUnits="userSpaceOnUse" gradientTransform="translate(38.4619 -4.33741) rotate(83.976) scale(69.264 45.4574)">
<stop stop-color="#FFF44F"/>
<stop offset="0.06" stop-color="#FFE847"/>
<stop offset="0.168" stop-color="#FFC830"/>
<stop offset="0.304" stop-color="#FF980E"/>
<stop offset="0.356" stop-color="#FF8B16"/>
<stop offset="0.455" stop-color="#FF672A"/>
<stop offset="0.57" stop-color="#FF3647"/>
<stop offset="0.737" stop-color="#E31587"/>
</radialGradient>
<radialGradient id="paint9_radial_746_197" cx="0" cy="0" r="1" gradientUnits="userSpaceOnUse" gradientTransform="translate(28.4946 12.6611) scale(59.0003 59.0003)">
<stop offset="0.137" stop-color="#FFF44F"/>
<stop offset="0.48" stop-color="#FF980E"/>
<stop offset="0.592" stop-color="#FF5634"/>
<stop offset="0.655" stop-color="#FF3647"/>
<stop offset="0.904" stop-color="#E31587"/>
</radialGradient>
<radialGradient id="paint10_radial_746_197" cx="0" cy="0" r="1" gradientUnits="userSpaceOnUse" gradientTransform="translate(44.0691 16.1146) scale(64.5754 64.5754)">
<stop offset="0.094" stop-color="#FFF44F"/>
<stop offset="0.231" stop-color="#FFE141"/>
<stop offset="0.509" stop-color="#FFAF1E"/>
<stop offset="0.626" stop-color="#FF980E"/>
</radialGradient>
<linearGradient id="paint11_linear_746_197" x1="55.2225" y1="9.64951" x2="11.4077" y2="53.4635" gradientUnits="userSpaceOnUse">
<stop offset="0.167" stop-color="#FFF44F" stop-opacity="0.8"/>
<stop offset="0.266" stop-color="#FFF44F" stop-opacity="0.634"/>
<stop offset="0.489" stop-color="#FFF44F" stop-opacity="0.217"/>
<stop offset="0.6" stop-color="#FFF44F" stop-opacity="0"/>
</linearGradient>
<clipPath id="clip0_746_197">
<rect width="61.9604" height="64" fill="white" transform="translate(0.229492)"/>
</clipPath>
</defs>
</svg>
