<svg width="16" height="16" viewBox="0 0 16 16" fill="none" xmlns="http://www.w3.org/2000/svg">
<g clip-path="url(#clip0_746_197)">
<path d="M15.1438 5.36759C14.8069 4.55686 14.1234 3.6815 13.5882 3.40478C13.9699 4.14411 14.2349 4.93812 14.3735 5.75855L14.3749 5.77156C13.4981 3.58566 12.0113 2.7043 10.797 0.785106C10.7343 0.687267 10.6734 0.588276 10.6144 0.488184C10.5839 0.435902 10.5554 0.38251 10.5289 0.328118C10.4786 0.230589 10.4398 0.127516 10.4133 0.0209915C10.4133 0.016076 10.4115 0.0113193 10.4083 0.00762902C10.405 0.00393873 10.4006 0.00157306 10.3957 0.000983305C10.3909 -0.000327768 10.3858 -0.000327768 10.3811 0.000983305C10.3801 0.000983305 10.3785 0.00278405 10.3773 0.00318421C10.3761 0.00358438 10.3735 0.00538512 10.3717 0.00618545L10.3747 0.000983305C8.42686 1.14145 7.76599 3.25272 7.70516 4.30876C6.9273 4.36223 6.18361 4.64887 5.57108 5.1313C5.50718 5.07716 5.44039 5.02654 5.371 4.97963C5.19431 4.36117 5.18678 3.70662 5.34919 3.08425C4.63388 3.43078 3.99829 3.92201 3.48262 4.52685H3.47902C3.1717 4.13729 3.1933 2.85276 3.21091 2.58445C3.11999 2.62099 3.03321 2.66706 2.952 2.7219C2.6807 2.91554 2.42707 3.13281 2.19409 3.37117C1.9286 3.64035 1.68612 3.93128 1.46919 4.24093V4.24213V4.24073C0.970637 4.94753 0.617023 5.74609 0.428766 6.5903L0.418362 6.64152C0.389759 6.8024 0.364343 6.96383 0.34213 7.12572C0.34213 7.13152 0.34093 7.13692 0.340329 7.14272C0.272449 7.49554 0.230387 7.85283 0.214478 8.21176V8.25178C0.216178 10.1934 0.946184 12.0638 2.26022 13.4933C3.57426 14.9227 5.37672 15.8072 7.31138 15.972C9.24603 16.1368 11.1721 15.5698 12.709 14.3832C14.2458 13.1965 15.2816 11.4765 15.6116 9.56312C15.6246 9.46308 15.6352 9.36404 15.6468 9.263C15.8066 7.9429 15.6336 6.60382 15.1438 5.36759ZM6.20615 11.4377C6.24236 11.4551 6.27637 11.4739 6.31359 11.4905L6.31899 11.4939C6.28138 11.4759 6.24376 11.4572 6.20615 11.4377ZM14.3755 5.77336V5.76596L14.3769 5.77416L14.3755 5.77336Z" fill="url(#paint0_linear_746_197)"/>
<path d="M15.1438 5.36759C14.8069 4.55686 14.1234 3.6815 13.5882 3.40479C13.9699 4.14411 14.2349 4.93812 14.3735 5.75855V5.76596L14.3749 5.77416C14.9726 7.48456 14.8862 9.35977 14.1336 11.0079C13.2448 12.9149 11.0936 14.8695 7.72617 14.7745C4.08767 14.6714 0.883353 11.9715 0.284306 8.43526C0.175261 7.87763 0.284306 7.59491 0.339129 7.14172C0.264344 7.49374 0.222612 7.85198 0.214478 8.21176V8.25178C0.216178 10.1934 0.946184 12.0638 2.26022 13.4933C3.57426 14.9227 5.37672 15.8072 7.31138 15.972C9.24603 16.1368 11.1721 15.5698 12.709 14.3832C14.2458 13.1965 15.2816 11.4765 15.6116 9.56312C15.6246 9.46308 15.6352 9.36404 15.6468 9.263C15.8066 7.9429 15.6336 6.60382 15.1438 5.36759Z" fill="url(#paint1_radial_746_197)"/>
<path d="M15.1438 5.36759C14.8069 4.55686 14.1234 3.6815 13.5882 3.40479C13.9699 4.14411 14.2349 4.93812 14.3735 5.75855V5.76596L14.3749 5.77416C14.9726 7.48456 14.8862 9.35977 14.1336 11.0079C13.2448 12.9149 11.0936 14.8695 7.72617 14.7745C4.08767 14.6714 0.883353 11.9715 0.284306 8.43526C0.175261 7.87763 0.284306 7.59491 0.339129 7.14172C0.264344 7.49374 0.222612 7.85198 0.214478 8.21176V8.25178C0.216178 10.1934 0.946184 12.0638 2.26022 13.4933C3.57426 14.9227 5.37672 15.8072 7.31138 15.972C9.24603 16.1368 11.1721 15.5698 12.709 14.3832C14.2458 13.1965 15.2816 11.4765 15.6116 9.56312C15.6246 9.46308 15.6352 9.36404 15.6468 9.263C15.8066 7.9429 15.6336 6.60382 15.1438 5.36759Z" fill="url(#paint2_radial_746_197)"/>
<path d="M11.3755 6.27916C11.3923 6.29097 11.4079 6.30277 11.4237 6.31458C11.2289 5.96917 10.9865 5.65294 10.7034 5.37519C8.29324 2.9646 10.0718 0.148437 10.3717 0.00537838L10.3747 0.000976562C8.4269 1.14145 7.76603 3.25272 7.7052 4.30875C7.79564 4.30255 7.88527 4.29494 7.97771 4.29494C8.66883 4.29621 9.34729 4.48047 9.94411 4.82899C10.5409 5.17751 11.0348 5.67786 11.3755 6.27916Z" fill="url(#paint3_radial_746_197)"/>
<path d="M7.9827 6.76057C7.96989 6.95345 7.28841 7.61872 7.05012 7.61872C4.84501 7.61872 4.48706 8.95267 4.48706 8.95267C4.5847 10.0759 5.36742 11.0011 6.31361 11.4905C6.35683 11.5129 6.40065 11.5331 6.44447 11.5529C6.52036 11.5866 6.59626 11.6176 6.67216 11.6462C6.99689 11.7611 7.337 11.8267 7.68118 11.8409C11.5462 12.0221 12.2949 7.21896 9.50573 5.82518C10.1637 5.73957 10.83 5.90136 11.3755 6.27917C11.0348 5.67787 10.5409 5.17752 9.94409 4.829C9.34728 4.48048 8.66882 4.29622 7.9777 4.29495C7.88566 4.29495 7.79562 4.30256 7.70519 4.30876C6.92733 4.36223 6.18363 4.64887 5.57111 5.1313C5.68936 5.23134 5.82281 5.36499 6.10393 5.64211C6.63014 6.16052 7.9797 6.69754 7.9827 6.76057Z" fill="url(#paint4_radial_746_197)"/>
<path d="M7.9827 6.76057C7.96989 6.95345 7.28841 7.61872 7.05012 7.61872C4.84501 7.61872 4.48706 8.95267 4.48706 8.95267C4.5847 10.0759 5.36742 11.0011 6.31361 11.4905C6.35683 11.5129 6.40065 11.5331 6.44447 11.5529C6.52036 11.5866 6.59626 11.6176 6.67216 11.6462C6.99689 11.7611 7.337 11.8267 7.68118 11.8409C11.5462 12.0221 12.2949 7.21896 9.50573 5.82518C10.1637 5.73957 10.83 5.90136 11.3755 6.27917C11.0348 5.67787 10.5409 5.17752 9.94409 4.829C9.34728 4.48048 8.66882 4.29622 7.9777 4.29495C7.88566 4.29495 7.79562 4.30256 7.70519 4.30876C6.92733 4.36223 6.18363 4.64887 5.57111 5.1313C5.68936 5.23134 5.82281 5.36499 6.10393 5.64211C6.63014 6.16052 7.9797 6.69754 7.9827 6.76057Z" fill="url(#paint5_radial_746_197)"/>
<path d="M5.20951 4.8734C5.27234 4.91341 5.32416 4.94823 5.36958 4.97964C5.19288 4.36117 5.18535 3.70663 5.34777 3.08426C4.63246 3.43079 3.99687 3.92201 3.4812 4.52685C3.51902 4.52585 4.64388 4.50564 5.20951 4.8734Z" fill="url(#paint6_radial_746_197)"/>
<path d="M0.2853 8.43526C0.883746 11.9715 4.08867 14.6714 7.72716 14.7745C11.0946 14.8697 13.2458 12.9149 14.1346 11.0079C14.8871 9.35978 14.9736 7.48457 14.3759 5.77417V5.76677C14.3759 5.76096 14.3747 5.75756 14.3759 5.75936L14.3773 5.77237C14.6524 7.56851 13.7388 9.30862 12.3107 10.4853L12.3062 10.4953C9.5235 12.7616 6.86041 11.8627 6.32139 11.4957C6.28377 11.4777 6.24615 11.459 6.20854 11.4395C4.58607 10.664 3.91579 9.18577 4.05945 7.91805C3.67432 7.92374 3.2958 7.81761 2.96975 7.61252C2.64371 7.40743 2.38414 7.1122 2.2225 6.76258C2.6484 6.50166 3.13402 6.35415 3.63308 6.33412C4.13215 6.31408 4.62803 6.42219 5.07347 6.64813C5.99182 7.06503 7.03683 7.10611 7.98507 6.76258C7.98207 6.69955 6.63251 6.16233 6.1063 5.64412C5.82518 5.367 5.69173 5.23355 5.57348 5.13331C5.50957 5.07917 5.44278 5.02855 5.37339 4.98164C5.32738 4.95023 5.27555 4.91622 5.21333 4.8754C4.6477 4.50765 3.52283 4.52786 3.48562 4.52886H3.48202C3.17469 4.1393 3.1963 2.85477 3.21391 2.58646C3.12299 2.623 3.0362 2.66907 2.955 2.72391C2.6837 2.91754 2.43007 3.13482 2.19709 3.37318C1.93065 3.6416 1.68716 3.93187 1.46919 4.24094V4.24214V4.24074C0.97063 4.94754 0.617016 5.7461 0.428759 6.59031C0.424957 6.60611 0.149444 7.81061 0.2853 8.43526Z" fill="url(#paint7_radial_746_197)"/>
<path d="M10.7039 5.3752C10.987 5.65325 11.2294 5.96983 11.4241 6.31558C11.4668 6.3478 11.5066 6.37981 11.5404 6.41082C13.2985 8.03149 12.3773 10.3224 12.3087 10.4855C13.7369 9.30882 14.6497 7.5687 14.3754 5.77256C13.4982 3.58566 12.0114 2.7043 10.7971 0.785106C10.7344 0.687267 10.6735 0.588276 10.6144 0.488184C10.584 0.435902 10.5555 0.38251 10.529 0.328118C10.4786 0.230589 10.4398 0.127516 10.4133 0.0209915C10.4134 0.016076 10.4116 0.0113193 10.4083 0.00762902C10.4051 0.00393873 10.4006 0.00157306 10.3957 0.000983305C10.3909 -0.000327768 10.3859 -0.000327768 10.3811 0.000983305C10.3801 0.000983305 10.3785 0.00278405 10.3773 0.00318421C10.3761 0.00358438 10.3735 0.00538512 10.3717 0.00618545C10.0718 0.148444 8.29326 2.9646 10.7039 5.3752Z" fill="url(#paint8_radial_746_197)"/>
<path d="M11.5391 6.40982C11.5018 6.37629 11.4631 6.34451 11.4228 6.31458C11.407 6.30278 11.3914 6.29097 11.3746 6.27917C10.8292 5.90135 10.1628 5.73957 9.50486 5.82518C12.294 7.21976 11.5457 12.0221 7.68031 11.8409C7.33613 11.8267 6.99602 11.7611 6.67129 11.6462C6.59539 11.6178 6.5195 11.5867 6.4436 11.5529C6.39978 11.5329 6.35596 11.5129 6.31274 11.4905L6.31815 11.4939C6.85717 11.8619 9.51946 12.7608 12.303 10.4935L12.3074 10.4835C12.3768 10.3214 13.298 8.02989 11.5391 6.40982Z" fill="url(#paint9_radial_746_197)"/>
<path d="M4.48703 8.95269C4.48703 8.95269 4.84497 7.61874 7.05008 7.61874C7.28838 7.61874 7.97046 6.95346 7.98267 6.76058C7.03443 7.10412 5.98942 7.06304 5.07107 6.64614C4.62562 6.4202 4.12974 6.31209 3.63068 6.33213C3.13161 6.35216 2.64599 6.49967 2.22009 6.76058C2.38174 7.1102 2.64131 7.40544 2.96735 7.61053C3.29339 7.81561 3.67191 7.92174 4.05705 7.91606C3.91339 9.18398 4.58367 10.6622 6.20613 11.4375C6.24235 11.4549 6.27636 11.4737 6.31358 11.4903C5.36659 11.0011 4.58467 10.076 4.48703 8.95269Z" fill="url(#paint10_radial_746_197)"/>
<path d="M15.1438 5.36759C14.8069 4.55686 14.1234 3.6815 13.5882 3.40478C13.9699 4.14411 14.2349 4.93812 14.3735 5.75855L14.3749 5.77156C13.4981 3.58566 12.0113 2.7043 10.797 0.785106C10.7343 0.687267 10.6734 0.588276 10.6144 0.488184C10.5839 0.435902 10.5554 0.38251 10.5289 0.328118C10.4786 0.230589 10.4398 0.127516 10.4133 0.0209915C10.4133 0.016076 10.4115 0.0113193 10.4083 0.00762902C10.405 0.00393873 10.4006 0.00157306 10.3957 0.000983305C10.3909 -0.000327768 10.3858 -0.000327768 10.3811 0.000983305C10.3801 0.000983305 10.3785 0.00278405 10.3773 0.00318421C10.3761 0.00358438 10.3735 0.00538512 10.3717 0.00618545L10.3747 0.000983305C8.42686 1.14145 7.76599 3.25272 7.70516 4.30876C7.7956 4.30255 7.88524 4.29495 7.97767 4.29495C8.6688 4.29622 9.34726 4.48048 9.94407 4.829C10.5409 5.17752 11.0348 5.67787 11.3755 6.27917C10.83 5.90135 10.1637 5.73957 9.5057 5.82518C12.2949 7.21976 11.5465 12.0221 7.68115 11.8409C7.33698 11.8267 6.99686 11.7611 6.67214 11.6462C6.59624 11.6178 6.52034 11.5867 6.44444 11.5529C6.40063 11.5329 6.35681 11.5129 6.31359 11.4905L6.31899 11.4939C6.28138 11.4759 6.24376 11.4572 6.20615 11.4377C6.24236 11.4551 6.27637 11.4739 6.31359 11.4905C5.3666 11.0011 4.58468 10.0759 4.48704 8.95267C4.48704 8.95267 4.84498 7.61872 7.05009 7.61872C7.28839 7.61872 7.97047 6.95345 7.98268 6.76057C7.97968 6.69754 6.63012 6.16032 6.1039 5.64211C5.82279 5.36499 5.68933 5.23154 5.57108 5.1313C5.50718 5.07716 5.44039 5.02654 5.371 4.97963C5.19431 4.36117 5.18678 3.70662 5.34919 3.08425C4.63388 3.43078 3.99829 3.92201 3.48262 4.52685H3.47902C3.1717 4.13729 3.1933 2.85276 3.21091 2.58445C3.11999 2.62099 3.03321 2.66706 2.952 2.7219C2.6807 2.91554 2.42707 3.13281 2.19409 3.37117C1.9286 3.64035 1.68612 3.93128 1.46919 4.24093V4.24213V4.24073C0.970637 4.94753 0.617023 5.74609 0.428766 6.5903L0.418362 6.64152C0.403755 6.70975 0.338329 7.05629 0.328925 7.13072C0.328925 7.13632 0.328925 7.12492 0.328925 7.13072C0.269082 7.48844 0.230864 7.84944 0.214478 8.21176V8.25178C0.216178 10.1934 0.946184 12.0638 2.26022 13.4933C3.57426 14.9227 5.37672 15.8072 7.31138 15.972C9.24603 16.1368 11.1721 15.5698 12.709 14.3832C14.2458 13.1965 15.2816 11.4765 15.6116 9.56312C15.6246 9.46308 15.6352 9.36404 15.6468 9.263C15.8066 7.9429 15.6336 6.60382 15.1438 5.36759Z" fill="url(#paint11_linear_746_197)"/>
</g>
<defs>
<linearGradient id="paint0_linear_746_197" x1="14.1174" y1="2.4788" x2="1.2443" y2="14.8989" gradientUnits="userSpaceOnUse">
<stop offset="0.048" stop-color="#FFF44F"/>
<stop offset="0.111" stop-color="#FFE847"/>
<stop offset="0.225" stop-color="#FFC830"/>
<stop offset="0.368" stop-color="#FF980E"/>
<stop offset="0.401" stop-color="#FF8B16"/>
<stop offset="0.462" stop-color="#FF672A"/>
<stop offset="0.534" stop-color="#FF3647"/>
<stop offset="0.705" stop-color="#E31587"/>
</linearGradient>
<radialGradient id="paint1_radial_746_197" cx="0" cy="0" r="1" gradientUnits="userSpaceOnUse" gradientTransform="translate(13.5226 1.77571) scale(16.1661)">
<stop offset="0.129" stop-color="#FFBD4F"/>
<stop offset="0.186" stop-color="#FFAC31"/>
<stop offset="0.247" stop-color="#FF9D17"/>
<stop offset="0.283" stop-color="#FF980E"/>
<stop offset="0.403" stop-color="#FF563B"/>
<stop offset="0.467" stop-color="#FF3750"/>
<stop offset="0.71" stop-color="#F5156C"/>
<stop offset="0.782" stop-color="#EB0878"/>
<stop offset="0.86" stop-color="#E50080"/>
</radialGradient>
<radialGradient id="paint2_radial_746_197" cx="0" cy="0" r="1" gradientUnits="userSpaceOnUse" gradientTransform="translate(7.61532 8.38484) scale(16.1661)">
<stop offset="0.3" stop-color="#960E18"/>
<stop offset="0.351" stop-color="#B11927" stop-opacity="0.74"/>
<stop offset="0.435" stop-color="#DB293D" stop-opacity="0.343"/>
<stop offset="0.497" stop-color="#F5334B" stop-opacity="0.094"/>
<stop offset="0.53" stop-color="#FF3750" stop-opacity="0"/>
</radialGradient>
<radialGradient id="paint3_radial_746_197" cx="0" cy="0" r="1" gradientUnits="userSpaceOnUse" gradientTransform="translate(9.56437 -1.893) scale(11.7116 11.7116)">
<stop offset="0.132" stop-color="#FFF44F"/>
<stop offset="0.252" stop-color="#FFDC3E"/>
<stop offset="0.506" stop-color="#FF9D12"/>
<stop offset="0.526" stop-color="#FF980E"/>
</radialGradient>
<radialGradient id="paint4_radial_746_197" cx="0" cy="0" r="1" gradientUnits="userSpaceOnUse" gradientTransform="translate(5.82721 12.6076) scale(7.69737 7.69737)">
<stop offset="0.353" stop-color="#3A8EE6"/>
<stop offset="0.472" stop-color="#5C79F0"/>
<stop offset="0.669" stop-color="#9059FF"/>
<stop offset="1" stop-color="#C139E6"/>
</radialGradient>
<radialGradient id="paint5_radial_746_197" cx="0" cy="0" r="1" gradientUnits="userSpaceOnUse" gradientTransform="translate(8.49875 7.05996) rotate(-13.5916) scale(4.0811 4.77795)">
<stop offset="0.206" stop-color="#9059FF" stop-opacity="0"/>
<stop offset="0.278" stop-color="#8C4FF3" stop-opacity="0.064"/>
<stop offset="0.747" stop-color="#7716A8" stop-opacity="0.45"/>
<stop offset="0.975" stop-color="#6E008B" stop-opacity="0.6"/>
</radialGradient>
<radialGradient id="paint6_radial_746_197" cx="0" cy="0" r="1" gradientUnits="userSpaceOnUse" gradientTransform="translate(7.41122 1.11425) scale(5.53748)">
<stop stop-color="#FFE226"/>
<stop offset="0.121" stop-color="#FFDB27"/>
<stop offset="0.295" stop-color="#FFC82A"/>
<stop offset="0.502" stop-color="#FFA930"/>
<stop offset="0.732" stop-color="#FF7E37"/>
<stop offset="0.792" stop-color="#FF7139"/>
</radialGradient>
<radialGradient id="paint7_radial_746_197" cx="0" cy="0" r="1" gradientUnits="userSpaceOnUse" gradientTransform="translate(11.7638 -2.398) scale(23.6259 23.6259)">
<stop offset="0.113" stop-color="#FFF44F"/>
<stop offset="0.456" stop-color="#FF980E"/>
<stop offset="0.622" stop-color="#FF5634"/>
<stop offset="0.716" stop-color="#FF3647"/>
<stop offset="0.904" stop-color="#E31587"/>
</radialGradient>
<radialGradient id="paint8_radial_746_197" cx="0" cy="0" r="1" gradientUnits="userSpaceOnUse" gradientTransform="translate(9.77259 -1.08435) rotate(83.976) scale(17.316 11.3643)">
<stop stop-color="#FFF44F"/>
<stop offset="0.06" stop-color="#FFE847"/>
<stop offset="0.168" stop-color="#FFC830"/>
<stop offset="0.304" stop-color="#FF980E"/>
<stop offset="0.356" stop-color="#FF8B16"/>
<stop offset="0.455" stop-color="#FF672A"/>
<stop offset="0.57" stop-color="#FF3647"/>
<stop offset="0.737" stop-color="#E31587"/>
</radialGradient>
<radialGradient id="paint9_radial_746_197" cx="0" cy="0" r="1" gradientUnits="userSpaceOnUse" gradientTransform="translate(7.28074 3.16529) scale(14.7501 14.7501)">
<stop offset="0.137" stop-color="#FFF44F"/>
<stop offset="0.48" stop-color="#FF980E"/>
<stop offset="0.592" stop-color="#FF5634"/>
<stop offset="0.655" stop-color="#FF3647"/>
<stop offset="0.904" stop-color="#E31587"/>
</radialGradient>
<radialGradient id="paint10_radial_746_197" cx="0" cy="0" r="1" gradientUnits="userSpaceOnUse" gradientTransform="translate(11.1744 4.02866) scale(16.1438)">
<stop offset="0.094" stop-color="#FFF44F"/>
<stop offset="0.231" stop-color="#FFE141"/>
<stop offset="0.509" stop-color="#FFAF1E"/>
<stop offset="0.626" stop-color="#FF980E"/>
</radialGradient>
<linearGradient id="paint11_linear_746_197" x1="13.9627" y1="2.41238" x2="3.00903" y2="13.3659" gradientUnits="userSpaceOnUse">
<stop offset="0.167" stop-color="#FFF44F" stop-opacity="0.8"/>
<stop offset="0.266" stop-color="#FFF44F" stop-opacity="0.634"/>
<stop offset="0.489" stop-color="#FFF44F" stop-opacity="0.217"/>
<stop offset="0.6" stop-color="#FFF44F" stop-opacity="0"/>
</linearGradient>
<clipPath id="clip0_746_197">
<rect width="15.4901" height="16" fill="white" transform="translate(0.214478)"/>
</clipPath>
</defs>
</svg>
