<svg width="41" height="16" viewBox="0 0 41 16" fill="none" xmlns="http://www.w3.org/2000/svg">
<g clip-path="url(#clip0_824_211)">
<g clip-path="url(#clip1_824_211)">
<path d="M37.5089 7.82023H36.1156C35.2167 7.82023 34.7224 8.49438 34.7224 9.66292V13.8427H32.0257V7.82023H30.9021C30.0033 7.82023 29.5089 8.49438 29.5089 9.66292V13.8427H26.8122V5.57304H29.5089V6.83146C29.9583 5.8427 30.5426 5.57304 31.4415 5.57304H34.7224V6.83146C35.1718 5.8427 35.7561 5.57304 36.6549 5.57304H37.5538L37.5089 7.82023ZM26.183 10.3371H20.61C20.7448 11.2809 21.3291 11.7753 22.2729 11.7753C22.992 11.7753 23.4864 11.4607 23.6662 10.9663L26.0482 11.6405C25.4639 13.0787 24.0257 13.9326 22.2729 13.9326C19.3516 13.9326 18.0033 11.6405 18.0033 9.66292C18.0033 7.73034 19.1718 5.4382 22.0931 5.4382C25.1943 5.4382 26.228 7.77528 26.228 9.52809C26.228 9.93259 26.228 10.1573 26.183 10.3371ZM23.6212 8.76405C23.5763 8.04495 23.037 7.41573 22.1381 7.41573C21.2842 7.41573 20.7898 7.77528 20.61 8.76405H23.6212ZM13.3291 13.8427H15.6662L18.6325 5.61798H15.9358L14.4976 10.427L13.0594 5.57304H10.3628L13.3291 13.8427ZM2.36281 13.8427H5.01449V7.82023H7.57629V13.8427H10.228V5.57304H5.01449V5.07865C5.01449 4.53933 5.41899 4.17978 6.00326 4.17978H7.57629V1.93259H5.59876C3.66618 1.93259 2.36281 3.14607 2.36281 4.89888V5.57304H0.834717V7.82023H2.36281V13.8427Z" fill="#404145"/>
<path d="M39.1717 14.0674C40.0706 14.0674 40.8346 13.3034 40.8346 12.4045C40.8346 11.5056 40.0706 10.7416 39.1717 10.7416C38.2728 10.7416 37.5088 11.5056 37.5088 12.4045C37.5088 13.3034 38.2728 14.0674 39.1717 14.0674Z" fill="#1DBF73"/>
</g>
</g>
<defs>
<clipPath id="clip0_824_211">
<rect width="40" height="16" fill="white" transform="translate(0.834717)"/>
</clipPath>
<clipPath id="clip1_824_211">
<rect width="40" height="12.1348" fill="white" transform="translate(0.834717 1.93259)"/>
</clipPath>
</defs>
</svg>
