<svg width="15" height="16" viewBox="0 0 15 16" fill="none" xmlns="http://www.w3.org/2000/svg">
<g clip-path="url(#clip0_2_7438)">
<path d="M9.54599 15.55V15.8538H9.47003V15.55H9.38209V15.4746H9.6339V15.55H9.54599ZM9.95761 15.8538V15.6299L9.89364 15.7694H9.82654L9.76257 15.6299V15.8538H9.68664V15.4745H9.76257L9.86009 15.677L9.95761 15.4745H10.0335V15.8537L9.95761 15.8538ZM0.414062 1.62664V4.65909C0.414062 5.4861 0.532258 7.66567 1.62659 10.0369C2.9614 12.929 4.92508 14.6323 7.5588 16C10.1709 14.6433 12.1477 12.9475 13.491 10.0369C14.5854 7.66567 14.7036 5.4861 14.7036 4.65909V1.62659C12.4946 0.476611 9.96883 0 7.5588 0C5.17113 0 2.63738 0.468955 0.414062 1.62664Z" fill="#041E42"/>
<path d="M0.801758 1.86189V4.65908C0.801758 5.46045 0.916409 7.57292 1.97858 9.87436C3.21967 12.5635 5.10194 14.2871 7.55875 15.5631C10.0254 14.282 11.9021 12.5542 13.1389 9.87436C14.201 7.57292 14.3157 5.46045 14.3157 4.65908V1.86189C12.3593 0.843369 9.79879 0.387695 7.55875 0.387695C5.31092 0.387695 2.75431 0.845219 0.801784 1.86189H0.801758Z" fill="#B9975B"/>
<path d="M10.4709 7.53104C10.79 7.35152 11.2189 6.95257 11.2189 6.95257C11.4483 6.27443 11.6464 5.36524 11.6464 5.36524C11.6464 5.27548 11.538 5.12959 11.538 5.12959C11.4295 5.07354 11.179 5.03613 11.179 5.03613C10.8087 5.09596 10.3263 5.45872 9.9422 5.76C10.1417 5.76 10.4908 5.69555 10.4908 5.69555C10.421 5.87506 10.1716 6.34384 10.1716 6.34384C10.3312 6.35378 10.6404 6.28398 10.6404 6.28398C10.5207 6.65298 10.2914 7.10218 10.2914 7.10218L10.4709 7.53104ZM7.80304 6.26903C7.75303 6.24783 7.70278 6.22721 7.6523 6.20717C7.56092 6.17084 7.46905 6.13577 7.3767 6.10198C7.3767 6.10198 7.34631 6.10218 7.28643 6.10899C7.27146 6.11071 7.2546 6.11284 7.23593 6.11546C7.19102 6.12188 7.14627 6.12951 7.10175 6.13833C6.86747 6.18436 6.48514 6.28861 5.9609 6.52467H5.96087L5.91586 6.43213L5.85583 6.3088L5.25488 7.13586H5.25493C5.45909 7.17404 5.67048 7.18647 5.86474 7.18554C6.29206 7.18346 6.63619 7.1167 6.63619 7.1167C6.85984 6.92819 7.05803 6.72373 7.19369 6.57517C7.23202 6.53322 7.26982 6.49079 7.30709 6.44791C7.34701 6.402 7.37211 6.37181 7.37914 6.36375C7.51882 6.32385 7.62856 6.30392 7.80304 6.26906V6.26903ZM8.72089 6.81485C8.38184 6.54558 8.16212 6.47252 8.16212 6.47252C8.16212 6.47252 8.18244 6.85801 8.15254 6.98019C7.823 7.43239 7.42998 7.85634 7.42998 7.85634L8.6087 7.31599C8.67696 7.06445 8.72089 6.81485 8.72089 6.81485Z" fill="#041E42"/>
<path d="M7.55896 3.87354C3.90735 3.87354 1.48394 5.05647 1.28906 5.15465C1.40472 7.43354 2.34866 11.5494 6.24106 14.2374C6.76193 13.9586 7.10912 13.4895 7.31551 13.1241C7.72589 13.6202 7.76833 14.3126 7.76835 14.313C7.73843 14.6521 7.55896 15.0291 7.55896 15.0291H7.55899C7.89798 14.8532 8.22868 14.6617 8.55002 14.4554C9.07031 14.1208 9.54111 13.7612 9.96696 13.3836L9.96698 13.3837C9.97921 13.3728 9.99139 13.3619 10.0036 13.351C11.3763 11.9308 11.4156 9.80238 11.4156 9.80238C11.1164 8.56073 10.5908 8.12971 10.5908 8.12971C10.6955 8.69775 10.7603 9.3211 10.7603 9.3211C10.4262 10.0591 9.82783 10.5528 9.82783 10.5528C9.28928 10.6126 8.86233 10.5589 8.11495 10.3059C7.46666 10.0865 6.9855 9.74494 6.9855 9.74494C6.9855 9.74494 6.73868 9.72997 6.45443 9.7599C6.21388 9.7852 5.92336 9.84965 5.92336 9.84965C6.24499 9.28118 6.43576 8.70363 6.47049 8.44094C6.25156 8.2093 6.01481 7.98891 5.77277 7.81474C5.24013 7.83955 4.81636 7.87038 4.81636 7.87038L4.99588 7.14238C4.99588 7.14238 4.87337 7.24439 4.73647 7.38131C4.5895 7.52828 4.4274 7.71085 4.4274 7.71085C4.10822 7.84045 3.65943 7.91028 3.65943 7.91028C3.43007 7.85047 3.21064 7.70086 3.21064 7.70086C3.74921 6.90303 4.62685 6.58384 4.62685 6.58384C4.46725 6.39441 4.47724 6.2448 4.47724 6.2448C4.70099 6.09688 4.9054 5.97506 5.08605 5.87541C5.04181 5.99235 5.0357 6.07486 5.0357 6.07486C5.0357 6.07486 5.34281 5.82722 5.5298 5.71501C5.66571 5.63393 5.80358 5.55619 5.94329 5.48186C6.07875 5.0454 6.31098 4.69148 6.37084 4.6412C6.37084 4.6412 6.4932 4.62163 6.55665 4.62918C6.56854 4.77196 6.73159 4.99952 6.79789 5.08676C6.45916 5.1974 6.16579 5.41784 6.16579 5.41784C6.16579 5.41784 6.91005 5.21929 7.56885 5.19722C8.46142 5.16729 9.0115 5.36859 9.0115 5.36859C8.87741 5.56216 8.69586 5.76611 8.69586 5.76611C10.1723 5.2656 10.3265 4.88307 11.1268 4.71105C11.4185 4.7584 11.6828 4.85314 11.6828 4.85314C11.8723 5.05259 11.9172 5.25705 11.9172 5.25705C11.8075 6.10975 11.4634 7.0676 11.4634 7.0676C11.1941 7.39667 10.7304 7.69587 10.7304 7.69587C11.1941 7.63607 11.8823 7.42619 11.8823 7.42619C12.3101 7.73842 12.8718 8.41705 13.1049 8.70921C13.5901 7.36348 13.7809 6.10078 13.8289 5.15465C13.6341 5.05647 11.2107 3.87354 7.55899 3.87354H7.55896Z" fill="#041E42"/>
<path d="M3.46013 9.60558C3.46013 9.60558 3.65447 9.29818 3.80239 9.1571L3.59469 8.57292C3.51672 8.49999 3.44803 8.4276 3.38532 8.34604C3.33246 8.27711 3.28286 8.20575 3.23669 8.13218L3.03125 8.66808C3.03125 8.66808 3.22076 9.19663 3.46013 9.60558ZM3.73937 9.91431C3.73937 9.91431 3.85906 10.3282 4.21809 10.6125C4.21809 10.6125 4.75664 10.3881 5.53453 10.3136C5.53453 10.3136 4.5372 9.90475 3.88899 9.44597C3.88899 9.44597 3.74936 9.62513 3.73937 9.91431ZM6.63657 7.11684C6.63657 7.11684 6.29241 7.18363 5.86507 7.18568C5.67081 7.18658 5.45941 7.17418 5.25526 7.136L5.69408 7.34126C6.01083 7.35621 6.38225 7.35125 6.7637 7.26149C6.94574 7.09194 7.22996 6.78278 7.37957 6.5235C7.37957 6.5235 7.38453 6.45367 7.3795 6.36389C7.37243 6.37198 7.34734 6.40214 7.30741 6.44805C7.27013 6.49093 7.23232 6.53336 7.194 6.57531C7.05836 6.7239 6.86019 6.92833 6.63654 7.11684H6.63657ZM5.37495 9.72524C5.37495 9.72524 5.41078 9.66882 5.45926 9.57485C5.26916 9.39852 5.0608 9.26897 5.0608 9.26897C5.29056 9.26258 5.48708 9.29646 5.57661 9.31521C5.59099 9.27848 5.60502 9.23989 5.61861 9.19992C5.39234 9.0194 5.11896 8.89129 5.11896 8.89129C5.3696 8.85456 5.61501 8.87285 5.7013 8.8814C5.70747 8.84615 5.71235 8.81045 5.71638 8.77448C5.44631 8.58978 5.05332 8.48111 5.05332 8.48111C5.23014 8.42365 5.39337 8.39762 5.49774 8.38588L5.30009 8.15406C5.30009 8.15406 5.07821 8.1441 4.83884 8.1628C4.53021 8.18353 4.24717 8.22391 4.24717 8.22391C4.20013 8.25926 4.12856 8.31614 4.0759 8.35729C3.98003 8.44314 3.94553 8.49044 3.88395 8.56799L3.89358 9.13783C4.07705 9.22337 4.79671 9.55261 5.37495 9.72524ZM8.42669 11.3604C8.42669 11.3604 8.53142 11.6073 8.59873 11.9588C8.6564 12.2601 8.62866 12.445 8.62866 12.445C7.67122 11.348 6.28252 10.6727 6.28252 10.6727C6.28252 10.6727 8.2073 12.2584 7.76848 14.3128C7.73856 14.6519 7.55909 15.0289 7.55909 15.0289C7.89809 14.853 8.22881 14.6616 8.55015 14.4552C9.07043 14.1206 9.54124 13.7611 9.96709 13.3835C9.42723 12.1734 8.42669 11.3604 8.42669 11.3604ZM5.9612 6.52478C6.48546 6.28872 6.86782 6.1845 7.10208 6.13847C7.14659 6.12965 7.19133 6.12203 7.23625 6.1156C7.25306 6.11321 7.26991 6.11108 7.28676 6.10916C7.34669 6.1023 7.37696 6.10212 7.37696 6.10212H7.37706C6.68109 5.97932 5.85613 6.30891 5.85613 6.30891L5.91619 6.4323L5.9612 6.52478Z" fill="white"/>
<path d="M6.22749 6.86283C6.12519 6.90444 5.98678 6.84993 5.93823 6.79758C5.90083 6.86113 5.85844 6.93265 5.85844 6.93265C5.85844 6.93265 6.1477 7.06729 6.48677 6.90272C6.69547 6.80143 6.7461 6.6185 6.7461 6.6185C6.61843 6.62831 6.4934 6.64434 6.38103 6.66577C6.36773 6.71596 6.32847 6.82165 6.22746 6.8628L6.22749 6.86283ZM1.2759 4.64513C3.15704 3.78917 5.48815 3.39929 7.55896 3.39929C9.62287 3.39929 11.9571 3.78796 13.842 4.64549V2.14918C13.842 2.14918 11.3687 0.861328 7.55893 0.861328C3.7492 0.861328 1.27588 2.14918 1.27588 2.14918L1.2759 4.64513Z" fill="#C8102E"/>
<path d="M4.65291 2.88411C4.47396 2.91748 4.29559 2.9539 4.11788 2.99336V1.69205C4.00863 1.71635 3.89953 1.74186 3.79063 1.76843V3.39866C4.07628 3.32881 4.36382 3.26691 4.65291 3.21303V2.88411ZM7.57081 2.2939C7.59715 2.2939 7.6234 2.29397 7.64973 2.29415C7.73805 2.51156 7.82632 2.72971 7.91464 2.94853C8.03283 2.95123 8.15098 2.95521 8.26915 2.96045C8.18093 2.73966 8.09259 2.5195 8.00434 2.30014C8.04082 2.30117 8.07733 2.3023 8.11383 2.30361C8.16549 2.2117 8.21726 2.11986 8.26912 2.02807V1.61159C8.21758 1.51572 8.1659 1.41992 8.11409 1.32418C7.82181 1.31394 7.5293 1.31179 7.23691 1.31771C7.23691 1.86111 7.23691 2.40449 7.23685 2.94784C7.34817 2.94558 7.45948 2.9445 7.57081 2.9446V2.2939ZM7.57081 1.64329C7.69232 1.64342 7.81388 1.64491 7.93542 1.64776V1.96952C7.81391 1.96664 7.69236 1.96514 7.57081 1.96502V1.64329ZM2.50538 3.12052C2.62953 3.07878 2.7542 3.03859 2.87936 2.99996V2.67101C2.75421 2.70966 2.62954 2.74985 2.50538 2.79157V2.46984C2.67908 2.41147 2.85378 2.3561 3.02938 2.30374V1.97486C2.74559 2.05942 2.46422 2.15191 2.1856 2.2522C2.1856 2.79561 2.1856 3.33901 2.18555 3.88241C2.29175 3.84414 2.39836 3.80703 2.50538 3.7711V3.12052ZM12.2614 3.00705C12.3789 3.04353 12.4959 3.08135 12.6125 3.12052V3.7711C12.7194 3.80707 12.8261 3.84416 12.9323 3.88241V2.53386C12.883 2.42235 12.8334 2.31091 12.7838 2.19954C12.5538 2.11934 12.3221 2.04444 12.0887 1.97492C12.0386 2.05378 11.9884 2.1329 11.9382 2.21228V3.56107C12.0462 3.5921 12.154 3.62426 12.2614 3.65755V3.00705ZM12.2614 2.35645C12.3789 2.3929 12.4959 2.43074 12.6125 2.46997V2.79165C12.4958 2.75245 12.3788 2.71458 12.2614 2.67821V2.35645ZM6.30046 2.99457C6.35201 2.89679 6.40369 2.79907 6.45549 2.70143V1.63451C6.40391 1.54444 6.35222 1.45443 6.30043 1.36446C6.06029 1.38353 5.82064 1.40814 5.58163 1.43819C5.53007 1.53864 5.47864 1.63913 5.42734 1.73971V2.80704C5.47872 2.89387 5.53015 2.98095 5.58163 3.0683C5.82064 3.03827 6.0603 3.01368 6.30043 2.99457H6.30046ZM5.75927 1.74585C5.88021 1.73205 6.00126 1.71964 6.12243 1.7086V2.68078C6.00123 2.69177 5.88019 2.70415 5.75927 2.718V1.74585ZM9.38223 1.41952C9.27151 1.4067 9.16066 1.39506 9.04971 1.38455V3.01479C9.16066 3.02527 9.27149 3.03688 9.38223 3.04967V1.41952ZM11.1754 3.08068V2.01376C11.1248 1.90819 11.074 1.80269 11.023 1.69727C10.7364 1.63315 10.4481 1.57698 10.1585 1.52882V3.15901C10.4481 3.20712 10.7364 3.26327 11.023 3.3274C11.0739 3.24494 11.1247 3.16268 11.1754 3.08068ZM10.8476 2.9602C10.7282 2.93486 10.6084 2.91093 10.4884 2.88842V1.91622C10.6083 1.93877 10.7281 1.96271 10.8476 1.98802V2.9602Z" fill="white"/>
</g>
<defs>
<clipPath id="clip0_2_7438">
<rect width="14.2895" height="16" fill="white" transform="translate(0.414062)"/>
</clipPath>
</defs>
</svg>
