<svg width="41" height="16" viewBox="0 0 41 16" fill="none" xmlns="http://www.w3.org/2000/svg">
<g clip-path="url(#clip0_778_813)">
<g clip-path="url(#clip1_778_813)">
<path d="M3.23554 4.68151C2.10667 4.99636 1.21586 5.88717 0.908679 7.01605C0.26361 9.35058 1.99915 11.4547 4.22618 11.4547C4.42585 11.4547 4.61783 11.4394 4.80982 11.4087V6.14059H4.01116C3.74238 6.85478 3.05891 6.8471 3.05891 6.8471V7.57664H3.67326V10.3643C2.33705 10.0494 1.41552 8.61336 1.96844 7.10052C2.19114 6.47849 2.68262 5.987 3.30465 5.75662C5.02484 5.11155 6.64519 6.37098 6.64519 8.00669C6.64519 9.01269 6.03084 9.88046 5.15539 10.2414V11.3395C6.61448 10.9249 7.68191 9.58864 7.68191 7.99901C7.68191 5.77198 5.57008 4.03644 3.23554 4.68151Z" fill="#026FAA"/>
<path d="M13.2725 6.96997C12.8578 6.96997 12.5045 7.15427 12.2665 7.44609V7.03908H11.5292H11.2835H10.3696V6.95461C10.3696 6.38633 10.4388 6.30186 11.0531 6.30186V5.37265H10.9763C9.76297 5.37265 9.379 5.7643 9.379 6.94693V7.03908H8.76465V7.93757H9.379V10.6791H10.3773V7.93757H11.2912V10.6791H12.2895V8.69015C12.2895 8.08348 12.6043 7.8147 12.9806 7.8147C13.426 7.8147 13.6487 8.09884 13.6487 8.58264V10.6714H14.6624V8.45977C14.6471 7.52288 14.1326 6.96997 13.2725 6.96997Z" fill="#026FAA"/>
<path d="M17.0969 6.96997C16.6131 6.96997 16.2368 7.16195 16.0064 7.44609V5.37265H15.0081V10.6791H16.0064V10.2875C16.2368 10.5716 16.6284 10.7559 17.1122 10.7559C17.8802 10.7559 18.8554 10.1492 18.8554 8.86678C18.8478 7.56896 17.9109 6.96997 17.0969 6.96997ZM16.9049 9.83438C16.3059 9.83438 15.8835 9.28147 15.991 8.66711C16.0678 8.20635 16.4902 7.86078 16.9509 7.88381C17.4808 7.90685 17.8725 8.31386 17.8725 8.8591C17.8802 9.41202 17.4578 9.83438 16.9049 9.83438Z" fill="#026FAA"/>
<path d="M20.9826 6.96998C19.8691 6.93158 18.9706 7.84543 19.032 8.95894C19.0858 9.91887 19.8768 10.7098 20.8367 10.7406C21.9502 10.779 22.8487 9.86511 22.7873 8.7516C22.7412 7.79167 21.9425 7.00838 20.9826 6.96998ZM20.9135 9.80368C20.3759 9.80368 19.9689 9.33523 20.0073 8.78232C20.0457 8.31387 20.4297 7.92222 20.9058 7.91454C21.4203 7.90687 21.835 8.33691 21.835 8.85911C21.8273 9.37363 21.4203 9.80368 20.9135 9.80368Z" fill="#026FAA"/>
<path d="M27.1108 7.63039C26.7959 7.20035 26.243 6.96997 25.7822 6.96997C24.6994 6.96997 23.9238 7.82238 23.9238 8.8591C23.9238 9.89582 24.7148 10.7482 25.7822 10.7482C26.2507 10.7482 26.8036 10.5179 27.1185 10.0801V10.6791H27.656V5.37265H27.1108V7.63039ZM25.8053 10.2414C25.0604 10.2414 24.4844 9.62704 24.4844 8.8591C24.4844 8.09884 25.0681 7.47681 25.8053 7.47681C26.5809 7.47681 27.1645 8.09884 27.1645 8.8591C27.1645 9.61936 26.5809 10.2414 25.8053 10.2414Z" fill="#026FAA"/>
<path d="M28.8002 7.03909H28.2319V10.6715H28.8002V7.03909Z" fill="#026FAA"/>
<path d="M28.5162 5.40338C28.2705 5.40338 28.0708 5.59537 28.0708 5.84879C28.0708 6.10221 28.2551 6.30187 28.5162 6.30187C28.7773 6.30187 28.9693 6.10221 28.9693 5.84879C28.9693 5.58769 28.7773 5.40338 28.5162 5.40338Z" fill="#026FAA"/>
<path d="M31.3576 7.03909H31.0197C30.4975 7.03909 30.1135 7.23876 29.8908 7.60737V7.03909H29.3379V10.6715H29.9062V8.79C29.9062 7.94526 30.221 7.56129 31.0043 7.56129H31.3576V7.03909Z" fill="#026FAA"/>
<path d="M32.7475 6.97764C31.9488 7.05444 31.2116 7.80702 31.1195 8.598C30.9736 9.80366 31.7568 10.7406 33.0163 10.7406C33.8303 10.7406 34.3986 10.3643 34.7288 9.72687L34.245 9.48881C34.0223 9.93421 33.6076 10.2337 33.0163 10.2337C32.2867 10.2337 31.7261 9.74991 31.6493 9.02804H34.844V8.78998C34.844 7.60735 33.8994 6.86245 32.7475 6.97764ZM31.6724 8.5212C31.8183 7.91453 32.3251 7.46912 32.9779 7.46912C33.6844 7.46912 34.1605 7.86845 34.2603 8.5212H31.6724Z" fill="#026FAA"/>
<path d="M37.0325 10.2414C36.1187 10.2414 35.489 9.40435 35.7193 8.47514C35.8652 7.88383 36.4258 7.46914 37.0402 7.4845C37.5854 7.49986 37.9848 7.784 38.1998 8.27548L38.7066 8.06046C38.4378 7.42307 37.8004 6.97766 37.0095 6.97766C35.942 6.97766 35.105 7.77632 35.105 8.86679C35.105 9.91119 35.9036 10.7559 37.0172 10.7559C37.8849 10.7559 38.4532 10.2875 38.745 9.61938L38.2305 9.40435C38.0308 9.8728 37.6392 10.2414 37.0325 10.2414Z" fill="#026FAA"/>
<path d="M40.7726 7.5536V7.04676H39.9125V6.20203H39.3442V7.04676H38.7222V7.5536H39.3442V9.28915C39.3442 10.3719 39.6283 10.6791 40.6881 10.6791H40.7649V10.1492C40.043 10.1492 39.9048 10.0264 39.9048 9.28147V7.5536H40.7726Z" fill="#026FAA"/>
</g>
</g>
<defs>
<clipPath id="clip0_778_813">
<rect width="40" height="16" fill="white" transform="translate(0.772461)"/>
</clipPath>
<clipPath id="clip1_778_813">
<rect width="40" height="6.90945" fill="white" transform="translate(0.772461 4.54529)"/>
</clipPath>
</defs>
</svg>
