<svg width="41" height="16" viewBox="0 0 41 16" fill="none" xmlns="http://www.w3.org/2000/svg">
<g clip-path="url(#clip0_806_998)">
<g clip-path="url(#clip1_806_998)">
<path d="M7.04256 1.72305C3.58006 1.72305 0.765625 4.53749 0.765625 7.99999C0.765625 11.4625 3.58006 14.2769 7.04256 14.2769C7.39437 14.2769 7.74617 14.2399 8.09798 14.1843V4.63007H6.65372C6.17231 5.92619 4.93173 5.90768 4.93173 5.90768V7.22232H6.0427V12.2772C4.09851 11.8328 2.63574 10.0738 2.63574 7.99999C2.63574 5.57439 4.59844 3.61169 7.02405 3.61169C9.44965 3.61169 11.4123 5.57439 11.4123 7.99999C11.4123 9.83308 10.3014 11.3884 8.709 12.055V14.0362C11.3753 13.3141 13.3195 10.8885 13.3195 7.99999C13.3195 4.53749 10.5051 1.72305 7.04256 1.72305Z" fill="#006341"/>
<path d="M23.4663 6.12987C22.7071 6.12987 22.0591 6.46315 21.6517 7.00012V6.25948H20.3185H19.8742H18.2077V6.11135C18.2077 5.07445 18.3373 4.92632 19.4483 4.92632V3.24136H19.3002C17.0968 3.24136 16.3931 3.94497 16.3931 6.11135V6.27799H15.2637V7.90741H16.3931V12.8882H18.2077V7.88889H19.8742V12.8697H21.6887V9.25908C21.6887 8.14811 22.2627 7.6667 22.9478 7.6667C23.744 7.6667 24.1699 8.18515 24.1699 9.07392V12.8697H26.003V8.83321C25.9659 7.12973 25.0216 6.12987 23.4663 6.12987Z" fill="#006341"/>
<path d="M30.4096 6.12986C29.5208 6.12986 28.8542 6.48166 28.4283 6.9816V3.22284H26.6138V12.8512H28.4283V12.1476C28.8542 12.666 29.5578 12.9993 30.4281 12.9993C31.8353 12.9993 33.5943 11.8883 33.5943 9.57384C33.6128 7.2223 31.9094 6.12986 30.4096 6.12986ZM30.0763 11.3329C28.9838 11.3329 28.2247 10.333 28.4098 9.20352C28.558 8.3703 29.3171 7.74075 30.1503 7.77778C31.1132 7.81482 31.8353 8.55546 31.8353 9.53681C31.8353 10.5552 31.0761 11.3329 30.0763 11.3329Z" fill="#006341"/>
<path d="M37.4828 6.12988C35.4646 6.05582 33.8352 7.72226 33.9463 9.74051C34.0389 11.481 35.4831 12.9067 37.2236 12.9808C39.2419 13.0549 40.8713 11.3884 40.7602 9.37019C40.6676 7.62968 39.2234 6.20394 37.4828 6.12988ZM37.3347 11.2773C36.3534 11.2773 35.6127 10.4256 35.6868 9.42573C35.7423 8.574 36.4459 7.85187 37.3162 7.85187C38.242 7.83336 39.0012 8.62954 39.0012 9.57386C39.0012 10.4997 38.2605 11.2773 37.3347 11.2773Z" fill="#006341"/>
</g>
</g>
<defs>
<clipPath id="clip0_806_998">
<rect width="40" height="16" fill="white" transform="translate(0.765625)"/>
</clipPath>
<clipPath id="clip1_806_998">
<rect width="40" height="12.5539" fill="white" transform="translate(0.765625 1.72305)"/>
</clipPath>
</defs>
</svg>
