<svg width="41" height="16" viewBox="0 0 41 16" fill="none" xmlns="http://www.w3.org/2000/svg">
<g clip-path="url(#clip0_746_84)">
<g clip-path="url(#clip1_746_84)">
<path d="M23.2098 6.25341C23.2098 5.08228 23.23 3.99192 23.2906 2.98233L20.2013 3.56789V3.85058L20.5041 3.89096C20.7262 3.91115 20.8676 3.99192 20.9484 4.11307C21.0291 4.25442 21.0897 4.45633 21.1301 4.75921C21.1705 5.34477 21.2108 6.67743 21.1907 8.77738C21.1907 10.8571 21.1705 12.1696 21.1301 12.6744C22.2406 12.9167 23.1089 13.0177 23.755 13.0177C24.9665 13.0177 25.9155 12.6744 26.6021 11.9677C27.2886 11.2812 27.652 10.312 27.652 9.12064C27.652 8.17163 27.3895 7.38415 26.8646 6.7582C26.3396 6.13225 25.6732 5.82938 24.8858 5.82938C24.3608 5.82938 23.8156 5.97072 23.2098 6.25341ZM23.2704 12.4725C23.23 11.8263 23.1896 9.88793 23.1896 6.71782C23.3714 6.65724 23.6137 6.61686 23.9166 6.61686C24.4012 6.61686 24.7848 6.85916 25.0675 7.36396C25.3502 7.86875 25.4915 8.47451 25.4915 9.24179C25.4915 10.1908 25.33 10.9581 25.0069 11.6042C24.6838 12.2302 24.28 12.5533 23.7752 12.5533C23.6137 12.5129 23.4521 12.4927 23.2704 12.4725ZM8.61115 3.18425H0.534424V3.58808L0.958452 3.62847C1.28152 3.68904 1.50363 3.8102 1.64497 3.99192C1.78632 4.19384 1.86708 4.51691 1.88728 4.96113C2.04881 7.14185 2.04881 9.18122 1.88728 11.0591C1.84689 11.5033 1.76612 11.8263 1.64497 12.0283C1.50363 12.2302 1.28152 12.3513 0.958452 12.3917L0.534424 12.4523V12.8561H5.74391V12.4523L5.19873 12.4119C4.87567 12.3715 4.65356 12.2302 4.51221 12.0485C4.37087 11.8465 4.2901 11.5235 4.26991 11.0793C4.20934 10.2716 4.16895 9.34275 4.16895 8.31297L5.25931 8.33316C5.84487 8.35335 6.24871 8.79758 6.45063 9.68602H6.85446V6.39475H6.45063C6.24871 7.263 5.86506 7.70722 5.25931 7.72741L4.16895 7.7476C4.16895 5.93034 4.20934 4.63806 4.26991 3.85058H5.86506C6.99581 3.85058 7.7631 4.57748 8.20732 6.0313L8.69192 5.88995L8.61115 3.18425ZM7.66214 9.40333C7.66214 10.4533 7.96501 11.3216 8.55058 12.0081C9.13614 12.6946 10.0044 13.0177 11.0947 13.0177C12.1851 13.0177 13.0735 12.6744 13.7197 11.9677C14.3658 11.2812 14.6687 10.4129 14.6687 9.36295C14.6687 8.31297 14.3658 7.44472 13.7803 6.7582C13.1947 6.07168 12.3264 5.74861 11.2361 5.74861C10.1457 5.74861 9.25729 6.09187 8.61115 6.79858C7.96501 7.48511 7.66214 8.35335 7.66214 9.40333ZM12.1649 7.10146C12.4072 7.68702 12.5082 8.45431 12.5082 9.38314C12.5082 11.5235 12.064 12.5734 11.1957 12.5734C10.7515 12.5734 10.4082 12.2706 10.1659 11.6648C9.92362 11.0591 9.82266 10.2918 9.82266 9.38314C9.82266 7.263 10.2669 6.21302 11.1351 6.21302C11.5794 6.19283 11.9226 6.49571 12.1649 7.10146ZM29.227 12.0081C29.8933 12.6744 30.7414 13.0177 31.751 13.0177C32.3769 13.0177 32.9221 12.8965 33.4067 12.634C33.8913 12.3917 34.275 12.0888 34.5374 11.7254L34.3355 11.4831C33.8913 11.8263 33.3865 11.9879 32.801 11.9879C31.9933 11.9879 31.3673 11.7254 30.9433 11.1802C30.4991 10.635 30.2972 9.94851 30.3376 9.06007H34.6586C34.6586 8.09086 34.4163 7.30338 33.9115 6.67743C33.4067 6.07168 32.7 5.7688 31.7914 5.7688C30.6606 5.7688 29.7924 6.13225 29.1664 6.83897C28.5405 7.54568 28.2376 8.41393 28.2376 9.44371C28.2376 10.4937 28.5607 11.3417 29.227 12.0081ZM30.7212 6.93993C30.9433 6.45532 31.226 6.21302 31.6096 6.21302C32.2154 6.21302 32.5183 6.98031 32.5183 8.53508L30.3779 8.57547C30.3981 7.96971 30.4991 7.42453 30.7212 6.93993ZM40.0902 6.13225C39.545 5.88995 38.8585 5.74861 38.0306 5.74861C37.1826 5.74861 36.5162 5.97072 36.0115 6.39475C35.5067 6.81878 35.2442 7.34376 35.2442 7.96971C35.2442 8.51489 35.4057 8.93892 35.7086 9.24179C36.0115 9.54467 36.4961 9.80717 37.122 10.0293C37.6874 10.2312 38.0912 10.4331 38.2931 10.6148C38.495 10.8168 38.6162 11.0389 38.6162 11.3417C38.6162 11.6244 38.5152 11.8869 38.2931 12.0888C38.0912 12.311 37.8085 12.4119 37.4451 12.4119C36.5566 12.4119 35.8903 11.7658 35.4259 10.4735L35.0826 10.5745L35.1634 12.5936C35.8903 12.8763 36.698 13.0177 37.5864 13.0177C38.5152 13.0177 39.222 12.8157 39.7469 12.3917C40.2719 11.9879 40.5344 11.4023 40.5344 10.6754C40.5344 10.1908 40.4133 9.78697 40.1508 9.4841C39.8883 9.18122 39.4643 8.91873 38.8585 8.67642C38.1922 8.43412 37.7278 8.21201 37.4855 8.01009C37.2432 7.80818 37.122 7.56587 37.122 7.263C37.122 6.96012 37.2028 6.71782 37.3845 6.5159C37.5662 6.31398 37.7883 6.23321 38.071 6.23321C38.8787 6.23321 39.4643 6.81878 39.8277 7.96971L40.171 7.86875L40.0902 6.13225ZM20.6657 5.95053C20.383 5.80919 20.0801 5.74861 19.7368 5.74861C19.3936 5.74861 19.0503 5.88995 18.6667 6.17264C18.283 6.45532 18.0003 6.83897 17.7782 7.36396L17.7984 5.74861L14.7293 6.35436V6.63705L15.0322 6.65724C15.4158 6.69763 15.6379 7.0005 15.6783 7.54568C15.7994 8.79757 15.7994 10.1302 15.6783 11.5437C15.6379 12.0888 15.4158 12.3715 15.0322 12.4321L14.7293 12.4725V12.8561H19.0099V12.4725L18.4648 12.4321C18.0811 12.3917 17.859 12.0888 17.8186 11.5437C17.6975 10.3725 17.6773 9.12064 17.7782 7.82837C17.8994 7.62645 18.1619 7.5053 18.5657 7.46491C18.9696 7.42453 19.434 7.54568 19.9186 7.82837L20.6657 5.95053Z" fill="#171717"/>
</g>
</g>
<defs>
<clipPath id="clip0_746_84">
<rect width="40" height="16" fill="white" transform="translate(0.534424)"/>
</clipPath>
<clipPath id="clip1_746_84">
<rect width="40" height="10.0353" fill="white" transform="translate(0.534424 2.98233)"/>
</clipPath>
</defs>
</svg>
