<svg width="41" height="16" viewBox="0 0 41 16" fill="none" xmlns="http://www.w3.org/2000/svg">
<g clip-path="url(#clip0_835_495)">
<g clip-path="url(#clip1_835_495)">
<path d="M40.5359 4.86429C40.5811 4.7867 40.5337 4.72852 40.4346 4.72852C39.9195 4.72852 39.2449 4.73067 38.7105 4.73067C38.5833 4.73067 38.5165 4.74576 38.4562 4.86429C38.2579 5.24359 35.8463 8.85774 35.398 9.55816C35.3226 9.66592 35.2299 9.65083 35.2192 9.52799C35.1739 9.11205 34.814 8.63145 34.2472 8.40301C33.8162 8.22844 33.3916 8.19612 32.9541 8.25431C32.161 8.35991 31.4541 8.78016 30.8335 9.24998C29.8981 9.96117 29.09 10.8836 28.0469 11.5667C27.4779 11.9374 26.6978 12.2607 26.1762 11.7779C25.7043 11.3405 25.7581 10.3685 26.4801 9.61635C26.5555 9.53661 26.6482 9.60342 26.6331 9.67454C26.5642 10.015 26.6482 10.3534 26.9068 10.5905C27.2215 10.8728 27.6719 10.9051 28.0577 10.7155C28.5124 10.4892 28.7796 10.0538 28.8594 9.56032C28.9801 8.79309 28.3896 8.11638 27.6503 8.0625C27.0491 8.0194 26.4736 8.22844 25.9133 8.6918C25.6331 8.92455 25.4715 9.09696 25.2301 9.44394C25.1719 9.52799 25.0793 9.53661 25.0836 9.41161C25.1116 8.42887 24.7064 7.87716 23.894 7.85776C23.2647 7.84268 22.5901 8.18534 22.0664 8.60344C21.491 9.06463 20.9888 9.67885 20.4501 10.2543C20.3833 10.3254 20.3251 10.3211 20.3057 10.1831C20.2884 9.5323 20.1268 8.903 19.8251 8.45473C19.7195 8.29956 19.4953 8.22198 19.3057 8.32758C19.2195 8.37499 18.9156 8.51508 18.6958 8.6918C18.5859 8.78231 18.5449 8.91162 18.5923 9.07972C18.8833 10.0517 18.8186 11.1573 18.4242 12.0904C18.0622 12.946 17.3575 13.7176 16.5299 13.9783C15.9846 14.1507 15.4178 14.0667 15.0666 13.5839C14.586 12.918 14.7799 11.7564 15.4976 10.7952C16.1312 9.94824 17.0471 9.40945 17.9609 9.06248C18.0686 9.02153 18.0902 8.95257 18.06 8.8599C18.0105 8.70904 17.9307 8.5043 17.8984 8.41163C17.8143 8.18965 17.5794 8.15302 17.2928 8.18319C16.629 8.26077 16.0299 8.48706 15.4372 8.80386C13.8877 9.63359 13.1118 11.2392 12.7713 12.0991C12.6075 12.5128 12.4675 12.7693 12.2864 12.9977C12.0429 13.3038 11.7347 13.5839 11.1744 14.0775C11.1227 14.1227 11.086 14.2175 11.1291 14.3038C11.1873 14.4223 11.4783 14.8339 11.5602 14.8706C11.6507 14.9158 11.7584 14.8533 11.7994 14.8231C12.1916 14.5581 12.6614 14.1357 12.892 13.849C12.9718 13.752 13.0558 13.793 13.0989 13.9417C13.3144 14.7068 13.8748 15.3317 14.6506 15.5925C16.0708 16.071 17.5449 15.377 18.657 14.1701C19.3639 13.4029 19.6182 12.9094 19.8897 12.5732C20.3488 12.0042 21.2539 10.7305 22.3336 9.91376C22.7302 9.61204 23.1979 9.38359 23.4328 9.53445C23.6224 9.6573 23.6828 9.94177 23.3789 10.4935C22.2798 12.5021 20.6613 14.8619 20.3639 15.4352C20.31 15.5343 20.3574 15.6119 20.4608 15.6119C21.0363 15.6098 21.6074 15.6098 22.1289 15.6098C22.2151 15.6055 22.2539 15.5667 22.2992 15.5042C23.144 14.1831 23.9371 12.9245 24.7883 11.6249C24.8358 11.5473 24.8789 11.6077 24.881 11.6422C24.8982 11.9439 24.9737 12.3577 25.1526 12.6271C25.4737 13.1271 25.9306 13.3426 26.437 13.3469C26.84 13.3512 27.0426 13.2908 27.4779 13.1292C27.8314 12.9977 28.1159 12.8253 28.3314 12.6702C28.4585 12.5818 28.4801 12.7305 28.4779 12.7521C28.2818 13.8016 28.5232 15.043 29.5663 15.5602C30.8141 16.1744 32.1847 15.3102 32.9735 14.53C33.0511 14.4546 33.133 14.4632 33.1416 14.6249C33.1589 14.9223 33.2925 15.2757 33.5403 15.5236C34.2019 16.1873 35.5338 15.9244 36.8721 14.8878C37.732 14.224 38.6307 13.2865 39.4432 12.2952C39.4734 12.2564 39.4949 12.196 39.4368 12.1335C39.3139 12.0042 39.135 11.8555 39.0122 11.7413C38.9562 11.6939 38.8743 11.7068 38.8268 11.7435C37.995 12.5344 37.245 13.4374 36.1609 14.1852C35.7967 14.4395 35.2127 14.6464 34.9519 14.293C34.8506 14.155 34.8614 13.9654 34.9627 13.7154C35.2752 12.9266 40.2772 5.31471 40.5359 4.86429ZM33.9261 11.2478C33.9369 11.306 34.0123 11.362 34.0877 11.39C34.1136 11.3986 34.1287 11.418 34.0985 11.4805C33.8851 11.9353 33.6912 12.1982 33.4239 12.5947C33.1783 12.9611 32.9024 13.2456 32.5683 13.5193C32.0641 13.9374 31.3636 14.39 30.7839 14.0861C30.5274 13.9525 30.4154 13.5926 30.4197 13.3016C30.4326 12.4827 30.7968 11.64 31.4692 10.8146C32.2903 9.80384 33.1976 9.28015 33.7925 9.56678C34.4088 9.85988 34.2127 10.5732 33.9369 11.1336C33.9175 11.1767 33.9153 11.2133 33.9261 11.2478Z" fill="#00095B"/>
<path d="M4.26709 15.5817C2.4029 15.5947 0.760692 14.4438 0.573196 12.4482C0.467595 11.3426 0.780089 10.3577 1.40723 9.54738C1.9611 8.82541 2.90074 8.22413 3.69598 8.07758C3.95459 8.03017 4.30157 8.06034 4.44596 8.23059C4.67225 8.49352 4.60544 8.78015 4.38131 8.89653C3.77572 9.20687 3.04513 9.73703 2.68522 10.459C2.39213 11.0495 2.33394 11.7628 2.78005 12.4396C3.52788 13.571 5.6162 13.6012 7.55581 11.7973C8.03641 11.3555 8.46528 10.9331 8.90277 10.431C9.75836 9.45471 10.0407 9.09695 11.1786 7.52156C11.1915 7.50431 11.1958 7.47845 11.1894 7.46768C11.1807 7.44828 11.1635 7.44182 11.1312 7.43966C10.3726 7.46121 9.71094 7.6875 9.06871 8.16809C8.88337 8.30387 8.61829 8.28447 8.49976 8.1056C8.37045 7.90517 8.46312 7.64224 8.67648 7.49569C9.71094 6.77588 10.8402 6.64657 11.9932 6.45261C11.9932 6.45261 12.073 6.45692 12.1398 6.36856C12.6139 5.76082 12.9717 5.21341 13.476 4.5992C13.9846 3.97637 14.6419 3.4031 15.144 2.97423C15.8444 2.3708 16.2927 2.16821 16.7496 1.92037C16.8703 1.85788 16.7345 1.78245 16.6979 1.78245C14.1484 1.30401 11.4997 0.683331 8.96742 1.62081C7.2153 2.27597 6.44592 3.66603 6.8166 4.59489C7.07953 5.25436 7.94589 5.35996 8.75838 4.96342C9.43293 4.63368 10.0558 4.10137 10.4976 3.41603C10.7454 3.03673 11.2669 3.31043 10.9846 3.9699C10.2433 5.71125 8.82734 7.09268 7.10324 7.15087C5.63559 7.19829 4.68949 6.11857 4.69165 4.7867C4.69811 2.15959 7.62262 0.431181 10.6937 0.17041C14.394 -0.135618 17.8983 0.849276 21.5728 1.29539C24.3874 1.6359 27.0877 1.64452 29.9153 0.99367C30.2493 0.920395 30.4842 1.13375 30.4627 1.47211C30.4347 1.96132 30.0575 2.43114 29.1243 2.93975C28.064 3.52164 26.9563 3.6962 25.7968 3.70698C22.9973 3.73068 20.3875 2.63803 17.6892 2.05184C17.6935 2.17037 17.7237 2.31045 17.6246 2.38588C16.1311 3.48931 14.7798 4.60998 13.8747 6.18322C13.8445 6.21986 13.8617 6.25434 13.9134 6.25003C14.7001 6.20908 15.4069 6.18753 16.1397 6.12934C16.2668 6.11857 16.2733 6.08624 16.2604 5.99357C16.1957 5.45048 16.3531 4.83411 16.8315 4.40739C17.3185 3.9699 17.9306 3.92033 18.3358 4.23498C18.797 4.59489 18.756 5.23927 18.5039 5.72418C18.2474 6.21555 17.825 6.47847 17.4177 6.60563C17.4177 6.60563 17.3336 6.62502 17.3444 6.70261C17.3617 6.8276 17.9155 7.13363 17.9629 7.21553C18.0082 7.29311 17.9845 7.4138 17.9004 7.50647C17.8422 7.57328 17.7496 7.63578 17.6332 7.63362C17.5384 7.63147 17.4802 7.59914 17.3595 7.53233C17.1117 7.39656 16.8013 7.17673 16.5923 6.91596C16.5211 6.8276 16.4867 6.82545 16.3099 6.83622C15.5169 6.88148 14.2777 7.00217 13.4393 7.10562C13.2367 7.13148 13.2066 7.16811 13.1635 7.23923C11.8251 9.44393 10.3984 11.8232 8.83165 13.4137C7.15065 15.1205 5.75197 15.571 4.26709 15.5817ZM17.0125 5.78237C17.0341 5.89659 17.0772 5.91814 17.1289 5.90736C17.3832 5.85564 17.6634 5.64659 17.8272 5.40522C17.978 5.1854 18.0491 4.86644 17.8983 4.73928C17.7647 4.62506 17.5491 4.65739 17.3875 4.79963C17.0686 5.08195 16.9694 5.48496 17.0125 5.78237Z" fill="#00095B"/>
</g>
</g>
<defs>
<clipPath id="clip0_835_495">
<rect width="40" height="16" fill="white" transform="translate(0.552979)"/>
</clipPath>
<clipPath id="clip1_835_495">
<rect width="40" height="15.775" fill="white" transform="translate(0.552979 0.112488)"/>
</clipPath>
</defs>
</svg>
