<svg width="41" height="16" viewBox="0 0 41 16" fill="none" xmlns="http://www.w3.org/2000/svg">
<g clip-path="url(#clip0_45_510)">
<g clip-path="url(#clip1_45_510)">
<path d="M36.8745 3.07275V12.9268H40.9453V11.2583H38.5441V8.702H40.0921V7.03345H38.5441V4.7413H40.9453V3.07275H36.8745Z" fill="black"/>
<path d="M33.5709 3.07275V8.44626L31.8825 3.07275H30.2129V12.9268H31.8825V8.09935L33.3917 12.9268H35.2405V3.07275H33.5709Z" fill="black"/>
<path d="M26.964 3.07275V10.7489C26.964 11.1063 26.6737 11.3966 26.3163 11.3966C25.9589 11.3966 25.6686 11.1063 25.6686 10.7489V3.07275H23.999V10.7489C23.999 12.0286 25.0366 13.0662 26.3163 13.0662C27.596 13.0662 28.6336 12.0286 28.6336 10.7489V3.07275H26.964Z" fill="black"/>
<path d="M22.6227 3.07275H17.9976V4.7413H19.4754V12.9268H21.1449V4.7413H22.6227V3.07275Z" fill="black"/>
<path d="M17.2326 12.9268H15.5074L14.2738 8.24713C14.2738 8.24713 15.3355 8.05638 15.3355 6.92655V5.38692C15.3355 5.02952 15.0463 4.74025 14.6899 4.74025H14.0485V12.9268H12.3789V3.07275H14.6889C15.934 3.07275 16.9464 4.05585 16.9999 5.2863H17.0051V6.8972H16.9999C16.9999 7.86982 16.6813 8.57098 16.0996 9.01747L17.2336 12.9268H17.2326Z" fill="black"/>
<path d="M6.09448 5.25041V10.7497C6.09448 12.0294 7.13208 13.067 8.41179 13.067C9.69149 13.067 10.7291 12.0294 10.7291 10.7497V5.24936C10.7291 3.96966 9.69254 2.93311 8.41284 2.93311C7.13313 2.93311 6.09553 3.97071 6.09553 5.25041M7.76512 10.7497V5.25041C7.76512 4.89302 8.05544 4.6027 8.41284 4.6027H8.41493C8.77128 4.6027 9.06055 4.89197 9.06055 5.24832V10.7486C9.06055 11.106 8.77023 11.3964 8.41284 11.3964C8.05544 11.3964 7.76512 11.106 7.76512 10.7486" fill="black"/>
<path d="M0.945312 3.07275V12.9268H2.61491V8.702H4.16187V7.03345H2.61491V4.7413H5.01501V3.07275H0.945312Z" fill="black"/>
</g>
</g>
<defs>
<clipPath id="clip0_45_510">
<rect width="40" height="16" fill="white" transform="translate(0.945312)"/>
</clipPath>
<clipPath id="clip1_45_510">
<rect width="40" height="10.1339" fill="white" transform="translate(0.945312 2.93311)"/>
</clipPath>
</defs>
</svg>
