<svg width="12" height="16" viewBox="0 0 12 16" fill="none" xmlns="http://www.w3.org/2000/svg">
<g clip-path="url(#clip0_2_7228)">
<path d="M11.3456 0C11.4766 0 11.5827 0.106074 11.5827 0.237037V5.0963C11.5827 5.22726 11.4766 5.33333 11.3456 5.33333H6.3477C6.28489 5.33333 6.22444 5.30844 6.18 5.264L1.21941 0.303407C1.10741 0.191407 1.18681 0 1.34504 0H11.3456Z" fill="black"/>
<path d="M0.916016 5.62979C0.916016 5.46624 1.04876 5.3335 1.21231 5.3335H6.12668C6.2055 5.3335 6.28076 5.3649 6.33587 5.42001L11.2793 10.3634C11.3913 10.4754 11.3119 10.6668 11.1536 10.6668H6.42713C6.32876 10.6668 6.24935 10.7462 6.24935 10.8446V15.5711C6.24935 15.7293 6.05794 15.8088 5.94594 15.6968L1.08965 10.8405C0.978238 10.7291 0.916016 10.5785 0.916016 10.4215V5.62979Z" fill="black"/>
</g>
<defs>
<clipPath id="clip0_2_7228">
<rect width="10.6667" height="16" fill="white" transform="translate(0.916016)"/>
</clipPath>
</defs>
</svg>
