<svg width="41" height="16" viewBox="0 0 41 16" fill="none" xmlns="http://www.w3.org/2000/svg">
<g clip-path="url(#clip0_857_281)">
<g clip-path="url(#clip1_857_281)">
<path d="M13.976 11.7844H15.1271V7.62155H16.0456V6.62065H15.1271V6.31818C15.1271 5.37897 15.4293 5.07452 16.2384 5.07452H16.5824V4.04376H16.1887C14.8249 4.04376 13.978 4.8616 13.978 6.45947V6.62065H13.2305V7.62155H13.978V11.7844H13.976Z" fill="#027A48"/>
<path d="M16.5112 11.7844H17.6623V8.87319C17.6623 8.0454 17.9645 7.6912 18.7637 7.6912H19.046V6.62064H18.6325C17.2786 6.62064 16.5112 7.47033 16.5112 8.73191V11.7844Z" fill="#027A48"/>
<path d="M21.8114 11.8958C23.205 11.8958 23.9426 11.1675 23.9426 9.74275V6.62064H22.7915V9.80445C22.7915 10.5526 22.4893 10.9068 21.8114 10.9068C21.1335 10.9068 20.8313 10.5526 20.8313 9.80445V6.62064H19.6802V9.74275C19.6802 11.1675 20.4178 11.8958 21.8114 11.8958Z" fill="#027A48"/>
<path d="M25.9918 6.62064H24.8408V11.7844H25.9918V6.62064Z" fill="#027A48"/>
<path d="M25.4176 5.87246C25.7911 5.87246 26.0935 5.56956 26.0935 5.1959C26.0935 4.82225 25.7911 4.51935 25.4176 4.51935C25.0443 4.51935 24.7417 4.82225 24.7417 5.1959C24.7417 5.56956 25.0443 5.87246 25.4176 5.87246Z" fill="#027A48"/>
<path d="M29.354 11.7843H29.6163V10.7536H29.5567C28.7694 10.7536 28.4972 10.4093 28.4972 9.56166V7.62153H29.2844V6.62061H28.4972V5.02475H27.346V6.62061H26.5986V7.62153H27.346V9.67309C27.346 11.068 28.1134 11.7843 29.356 11.7843H29.354Z" fill="#027A48"/>
<path d="M30.6062 11.7844H31.7575V7.62155H32.6758V6.62065H31.7575V6.31818C31.7575 5.37897 32.0596 5.07452 32.8686 5.07452H33.2126V4.04376H32.8191C31.4553 4.04376 30.6082 4.8616 30.6082 6.45947V6.62065H29.8608V7.62155H30.6082V11.7844H30.6062Z" fill="#027A48"/>
<path d="M35.4139 11.8958C36.8074 11.8958 37.5452 11.1675 37.5452 9.74275V6.62064H36.3939V9.80445C36.3939 10.5526 36.0918 10.9068 35.4139 10.9068C34.7359 10.9068 34.4337 10.5526 34.4337 9.80445V6.62064H33.2827V9.74275C33.2827 11.1675 34.0202 11.8958 35.4139 11.8958Z" fill="#027A48"/>
<path d="M40.3996 11.7843H40.6619V10.7536H40.6023C39.825 10.7536 39.5426 10.4511 39.5426 9.64126V4.55713H38.3916V9.64126C38.3916 11.066 39.159 11.7843 40.4016 11.7843H40.3996Z" fill="#027A48"/>
<path d="M4.96375 11.9562C2.54958 11.6344 0.683723 9.57727 0.662109 7.07907C3.07708 7.40083 4.94294 9.4588 4.96375 11.9562Z" fill="#027A48"/>
<path d="M5.62646 11.9562C8.04064 11.6344 9.90729 9.57727 9.9281 7.07907C7.51313 7.40083 5.64728 9.4588 5.62646 11.9562Z" fill="#027A48"/>
<path d="M5.29588 7.40645C4.38496 7.40645 3.64453 6.66525 3.64453 5.75512C3.64453 4.84501 4.38496 4.10379 5.29588 4.10379C6.2068 4.10379 6.9472 4.84501 6.9472 5.75512C6.9472 6.66525 6.20598 7.40645 5.29588 7.40645ZM5.29588 4.75856C4.74677 4.75856 4.29931 5.20521 4.29931 5.75512C4.29931 6.30504 4.74598 6.75169 5.29588 6.75169C5.84579 6.75169 6.29245 6.30504 6.29245 5.75512C6.29245 5.20521 5.84579 4.75856 5.29588 4.75856Z" fill="#027A48"/>
</g>
</g>
<defs>
<clipPath id="clip0_857_281">
<rect width="40" height="16" fill="white" transform="translate(0.662109)"/>
</clipPath>
<clipPath id="clip1_857_281">
<rect width="40" height="7.91246" fill="white" transform="translate(0.662109 4.04376)"/>
</clipPath>
</defs>
</svg>
