<svg width="17" height="16" viewBox="0 0 17 16" fill="none" xmlns="http://www.w3.org/2000/svg">
<g clip-path="url(#clip0_747_297)">
<path fill-rule="evenodd" clip-rule="evenodd" d="M8.50757 0C4.00507 0 0.365234 3.66667 0.365234 8.20283C0.365234 11.8288 2.6974 14.8982 5.93273 15.9845C6.33723 16.0662 6.4854 15.808 6.4854 15.5908C6.4854 15.4007 6.47207 14.7488 6.47207 14.0697C4.20707 14.5587 3.7354 13.0918 3.7354 13.0918C3.3714 12.1412 2.83207 11.8968 2.83207 11.8968C2.09073 11.3943 2.88607 11.3943 2.88607 11.3943C3.7084 11.4487 4.1399 12.2363 4.1399 12.2363C4.86773 13.4857 6.04057 13.1327 6.5124 12.9153C6.57973 12.3857 6.79557 12.019 7.02473 11.8153C5.21823 11.6252 3.31757 10.919 3.31757 7.76817C3.31757 6.87183 3.6409 6.1385 4.15323 5.56817C4.0724 5.3645 3.78923 4.52233 4.23423 3.39517C4.23423 3.39517 4.92173 3.17783 6.4719 4.23717C7.13558 4.05761 7.82003 3.96627 8.50757 3.9655C9.19507 3.9655 9.8959 4.06067 10.5431 4.23717C12.0934 3.17783 12.7809 3.39517 12.7809 3.39517C13.2259 4.52233 12.9426 5.3645 12.8617 5.56817C13.3876 6.1385 13.6976 6.87183 13.6976 7.76817C13.6976 10.919 11.7969 11.6115 9.9769 11.8153C10.2736 12.0733 10.5296 12.5622 10.5296 13.3363C10.5296 14.4363 10.5162 15.3192 10.5162 15.5907C10.5162 15.808 10.6646 16.0662 11.0689 15.9847C14.3042 14.898 16.6364 11.8288 16.6364 8.20283C16.6497 3.66667 12.9966 0 8.50757 0Z" fill="#24292F"/>
</g>
<defs>
<clipPath id="clip0_747_297">
<rect width="16.3333" height="16" fill="white" transform="translate(0.365234)"/>
</clipPath>
</defs>
</svg>
