<svg width="41" height="16" viewBox="0 0 41 16" fill="none" xmlns="http://www.w3.org/2000/svg">
<g clip-path="url(#clip0_779_83)">
<g clip-path="url(#clip1_779_83)">
<path d="M10.555 8.60559C10.555 8.91554 10.3352 9.09597 9.9751 9.09597H9.25486V8.09206H9.95639C10.3118 8.09206 10.555 8.28637 10.555 8.60559ZM10.4708 7.20381C10.4708 7.4999 10.2604 7.66181 9.9143 7.66181H9.25486V6.74119H9.9143C10.2604 6.74119 10.4708 6.91234 10.4708 7.20381ZM11.0882 8.6611C11.0882 8.27712 10.8076 7.93477 10.4615 7.87463C10.7748 7.76359 11.0134 7.52765 11.0134 7.13903C11.0134 6.68568 10.6486 6.31094 9.96106 6.31094H8.72168V9.52621H10.0219C10.686 9.52621 11.0882 9.15148 11.0882 8.6611Z" fill="#20964F"/>
<path d="M11.4434 8.24011C11.4434 9.02657 11.9812 9.56786 12.65 9.56786C13.0803 9.56786 13.389 9.36431 13.5526 9.14686V9.52622H14.0905V6.97713H13.5526V7.34724C13.3936 7.13904 13.0943 6.93549 12.6594 6.93549C11.9812 6.93549 11.4434 7.45364 11.4434 8.24011ZM13.5526 8.24935C13.5526 8.79989 13.1738 9.10986 12.7716 9.10986C12.3741 9.10986 11.9906 8.79064 11.9906 8.24011C11.9906 7.68957 12.3741 7.39351 12.7716 7.39351C13.1738 7.39351 13.5526 7.70346 13.5526 8.24935Z" fill="#20964F"/>
<path d="M16.5723 9.52622H17.1008V8.02266C17.1008 7.31022 16.6471 6.93549 16.0438 6.93549C15.7351 6.93549 15.4499 7.0604 15.2768 7.2686V6.97713H14.7437V9.52622H15.2768V8.10133C15.2768 7.63406 15.5341 7.39351 15.9269 7.39351C16.3151 7.39351 16.5723 7.63406 16.5723 8.10133V9.52622Z" fill="#20964F"/>
<path d="M17.7344 9.52621H18.2675V8.42979L19.2216 9.52621H19.9419L18.7539 8.25399L19.9419 6.97712H19.2029L18.2675 8.09206V6.10275H17.7344V9.52621Z" fill="#20964F"/>
<path d="M20.2772 9.52624H20.8103V6.97715H20.2772V9.52624ZM20.5485 6.63944C20.7355 6.63944 20.8852 6.49139 20.8852 6.3017C20.8852 6.11203 20.7355 5.96399 20.5485 5.96399C20.3567 5.96399 20.207 6.11203 20.207 6.3017C20.207 6.49139 20.3567 6.63944 20.5485 6.63944Z" fill="#20964F"/>
<path d="M23.2921 9.52622H23.8206V8.02266C23.8206 7.31022 23.3668 6.93549 22.7635 6.93549C22.4548 6.93549 22.1696 7.0604 21.9965 7.2686V6.97713H21.4634V9.52622H21.9965V8.10133C21.9965 7.63406 22.2538 7.39351 22.6466 7.39351C23.0348 7.39351 23.2921 7.63406 23.2921 8.10133V9.52622Z" fill="#20964F"/>
<path d="M24.2764 8.24011C24.2764 9.02657 24.8141 9.56786 25.4924 9.56786C25.9133 9.56786 26.2219 9.35966 26.3857 9.14224V9.56786C26.3857 10.0768 26.077 10.3266 25.6655 10.3266C25.2959 10.3266 25.0106 10.1462 24.931 9.88244H24.4026C24.4681 10.4469 24.9779 10.7846 25.6655 10.7846C26.4697 10.7846 26.9235 10.2618 26.9235 9.56786V6.97713H26.3857V7.34724C26.2266 7.1298 25.9133 6.93549 25.4924 6.93549C24.8141 6.93549 24.2764 7.45364 24.2764 8.24011ZM26.3857 8.24935C26.3857 8.79989 26.0068 9.10986 25.6046 9.10986C25.207 9.10986 24.8235 8.79064 24.8235 8.24011C24.8235 7.68957 25.207 7.39351 25.6046 7.39351C26.0068 7.39351 26.3857 7.70346 26.3857 8.24935Z" fill="#20964F"/>
<path d="M29.3029 7.27321C29.3029 7.59241 29.1158 7.8191 28.6996 7.8191H28.1103V6.74119H28.6996C29.1158 6.74119 29.3029 6.94937 29.3029 7.27321ZM27.5771 6.31094V9.52621H28.1103V8.2401H28.5171L29.2654 9.52621H29.9016L29.0971 8.19383C29.6443 8.05968 29.85 7.65257 29.85 7.27321C29.85 6.75043 29.4711 6.31094 28.6996 6.31094H27.5771Z" fill="#20964F"/>
<path d="M30.3076 8.24011C30.3076 9.02657 30.8454 9.56786 31.5143 9.56786C31.9445 9.56786 32.2532 9.36431 32.4169 9.14686V9.52622H32.9547V6.97713H32.4169V7.34724C32.2578 7.13904 31.9585 6.93549 31.5236 6.93549C30.8454 6.93549 30.3076 7.45364 30.3076 8.24011ZM32.4169 8.24935C32.4169 8.79989 32.0381 9.10986 31.6358 9.10986C31.2383 9.10986 30.8549 8.79064 30.8549 8.24011C30.8549 7.68957 31.2383 7.39351 31.6358 7.39351C32.0381 7.39351 32.4169 7.70346 32.4169 8.24935Z" fill="#20964F"/>
<path d="M33.6922 8.81839C33.6922 9.33655 33.9775 9.52621 34.4357 9.52621H34.8566V9.08672H34.5293C34.3048 9.08672 34.23 9.00808 34.23 8.81839V7.40737H34.8566V6.97712H34.23V6.34332H33.6922V6.97712H33.3882V7.40737H33.6922V8.81839Z" fill="#20964F"/>
<path d="M36.3864 7.37962C36.784 7.37962 37.0973 7.62944 37.1066 8.02266H35.6802C35.7362 7.6202 36.0262 7.37962 36.3864 7.37962ZM37.5931 8.76751H37.0178C36.9195 8.96644 36.7371 9.12373 36.4098 9.12373C36.0169 9.12373 35.7129 8.86929 35.6755 8.44829H37.6444C37.6584 8.3604 37.6631 8.27713 37.6631 8.18922C37.6631 7.43975 37.144 6.93549 36.4098 6.93549C35.6475 6.93549 35.1235 7.44902 35.1235 8.24935C35.1235 9.04971 35.6709 9.56786 36.4098 9.56786C37.0411 9.56786 37.448 9.21164 37.5931 8.76751Z" fill="#20964F"/>
<path d="M40.0634 8.81377C40.0354 7.89313 38.5808 8.17997 38.5808 7.66644C38.5808 7.49529 38.7305 7.37962 39.0159 7.37962C39.3056 7.37962 39.4788 7.53229 39.4974 7.75435H40.0308C40.0025 7.24546 39.6192 6.93549 39.0345 6.93549C38.4265 6.93549 38.043 7.26395 38.043 7.67109C38.043 8.6056 39.5396 8.31875 39.5396 8.8184C39.5396 8.9942 39.3759 9.12373 39.0672 9.12373C38.7725 9.12373 38.5714 8.95255 38.5528 8.74438H38.001C38.0243 9.207 38.4592 9.56786 39.0765 9.56786C39.6845 9.56786 40.0634 9.24402 40.0634 8.81377Z" fill="#20964F"/>
<path fill-rule="evenodd" clip-rule="evenodd" d="M8.0201 4H0.0634766V6.8556C0.153219 6.71773 0.262157 6.58689 0.390565 6.46291C0.819039 6.04938 1.33215 5.84 1.93518 5.84C2.28431 5.84 2.61228 5.91852 2.91908 6.07032C3.2259 6.22736 3.47981 6.43151 3.68081 6.69324L2.81857 7.26904C2.59112 6.9916 2.2949 6.85027 1.93518 6.85027C1.61779 6.85027 1.35331 6.9602 1.13643 7.17482C0.919543 7.39467 0.813748 7.6564 0.813748 7.96C0.813748 8.26884 0.919543 8.53058 1.13643 8.74518C1.35331 8.96504 1.61779 9.06973 1.93518 9.06973C2.30548 9.06973 2.6017 8.91793 2.81857 8.60384V8.48869H1.81881V7.61976H3.80777V10.0015H2.97728V9.61936C2.87677 9.76593 2.73394 9.88109 2.5435 9.9596C2.35308 10.0434 2.15206 10.08 1.93518 10.08C1.33215 10.08 0.819039 9.87584 0.390565 9.45709C0.262157 9.33467 0.153219 9.20491 0.0634766 9.06767V12H8.0201V9.17796C7.94748 9.27493 7.86494 9.36796 7.77259 9.45709C7.34412 9.87584 6.83101 10.08 6.22797 10.08C5.63023 10.08 5.11712 9.87584 4.68334 9.45709C4.24959 9.04356 4.03799 8.54627 4.03799 7.96C4.03799 7.37896 4.24959 6.88169 4.68334 6.46291C5.11712 6.04938 5.63023 5.84 6.22797 5.84C6.83101 5.84 7.34412 6.04938 7.77259 6.46291C7.86494 6.55318 7.94748 6.64709 8.0201 6.74471V4ZM5.4345 7.17482C5.21232 7.39467 5.10654 7.6564 5.10654 7.96C5.10654 8.26884 5.21232 8.53058 5.4345 8.74518C5.65139 8.96504 5.91588 9.06973 6.22797 9.06973C6.54537 9.06973 6.80985 8.96504 7.02672 8.75042C7.23832 8.5358 7.34941 8.27407 7.34941 7.96C7.34941 7.65116 7.23832 7.38942 7.02672 7.17482C6.80985 6.9602 6.54537 6.85027 6.22797 6.85027C5.91588 6.85027 5.65139 6.9602 5.4345 7.17482Z" fill="#20964F"/>
</g>
</g>
<defs>
<clipPath id="clip0_779_83">
<rect width="40" height="16" fill="white" transform="translate(0.0634766)"/>
</clipPath>
<clipPath id="clip1_779_83">
<rect width="40" height="8" fill="white" transform="translate(0.0634766 4)"/>
</clipPath>
</defs>
</svg>
