<svg width="41" height="16" viewBox="0 0 41 16" fill="none" xmlns="http://www.w3.org/2000/svg">
<g clip-path="url(#clip0_806_1512)">
<g clip-path="url(#clip1_806_1512)">
<path d="M17.5787 12.8608C17.4907 12.6048 17.3147 12.4209 17.0297 12.4209C16.6444 12.4209 16.4095 12.7816 16.4095 13.4898C16.4095 14.1979 16.611 14.5586 17.0464 14.5586C17.3103 14.5586 17.4661 14.4662 17.6376 14.1108L18.1742 14.2525C17.9983 14.7803 17.5998 15.0442 17.0464 15.0442C16.2758 15.0442 15.8316 14.4777 15.8316 13.4889C15.8316 12.5001 16.2758 11.9336 17.0464 11.9336C17.6253 11.9336 17.9604 12.1975 18.1021 12.7306L17.5787 12.8608ZM18.6968 15.0064V12.8273H19.1744V13.2003H19.1824C19.3082 12.9364 19.4841 12.7939 19.7981 12.7851V13.3341C19.7674 13.3315 19.7365 13.3315 19.7058 13.3341C19.4419 13.3341 19.2193 13.6323 19.2193 13.6859V15.0099L18.6968 15.0064ZM20.6699 14C20.6787 14.453 20.8793 14.629 21.123 14.629C21.3667 14.629 21.4793 14.5208 21.6086 14.3695L21.986 14.6043C21.7845 14.914 21.4916 15.0486 21.072 15.0486C20.5063 15.0486 20.15 14.6087 20.15 13.9164C20.15 13.2241 20.5063 12.7851 21.0975 12.7851C21.6675 12.7807 21.986 13.2628 21.986 13.7871V14H20.6699ZM21.5083 13.6481C21.5004 13.3464 21.3403 13.1704 21.0887 13.1704C20.8371 13.1704 20.6787 13.3464 20.6699 13.6481H21.5083ZM24.377 15.0064H23.9371L23.9125 14.7715C23.7278 14.9518 23.5562 15.0486 23.3213 15.0486C22.7425 15.0486 22.4496 14.5375 22.4496 13.8584C22.4496 13.3217 22.7601 12.7851 23.3213 12.7851C23.421 12.7887 23.519 12.812 23.6096 12.8536C23.7002 12.8953 23.7816 12.9546 23.8492 13.0279H23.858V11.9802H24.3779L24.377 15.0064ZM23.8571 13.3886C23.7517 13.2773 23.6073 13.2111 23.4542 13.2039C23.1445 13.2039 22.9686 13.4555 22.9686 13.9164C22.9686 14.3774 23.1445 14.629 23.4542 14.629C23.6767 14.629 23.748 14.5208 23.8571 14.4363V13.3886ZM25.0737 12.4244V11.938H25.5936V12.4244H25.0737ZM25.5936 15.0064H25.0737V12.8273H25.5936V15.0064ZM26.4434 12.8273V12.106H26.9624V12.8273H27.39V13.2461H26.9624V14.4777C26.9624 14.5947 27.0214 14.6281 27.1516 14.6281C27.2323 14.6228 27.3122 14.6089 27.39 14.5867V15.0143C27.2538 15.0337 27.1166 15.0449 26.9791 15.0477C26.5938 15.0477 26.4434 14.8551 26.4434 14.5445V13.2461H26.1408V12.8273H26.4434ZM30.9202 11.9802H31.4982V13.8751C31.4982 14.7592 30.9536 15.0486 30.3378 15.0486C29.722 15.0486 29.1766 14.7592 29.1766 13.8751V11.9802H29.7546V13.9006C29.7546 14.3906 29.9481 14.5621 30.3378 14.5621C30.7275 14.5621 30.9202 14.3906 30.9202 13.9006V11.9802ZM32.1958 15.0064V12.8273H32.6734V13.0613C32.8661 12.9276 33.0878 12.7851 33.3438 12.7851C33.7836 12.7851 33.9895 13.0701 33.9895 13.5144V15.0099H33.4696V13.5936C33.4696 13.2997 33.3772 13.2074 33.2013 13.2074C33.1086 13.2098 33.0174 13.2315 32.9337 13.2712C32.8499 13.3109 32.7753 13.3677 32.7148 13.4379V15.0099L32.1958 15.0064ZM34.6871 12.4244V11.938H35.2061V12.4244H34.6871ZM35.2061 15.0064H34.6871V12.8273H35.2061V15.0064ZM36.7227 12.7851C37.3139 12.7851 37.6701 13.225 37.6701 13.9164C37.6701 14.6079 37.3139 15.0486 36.7227 15.0486C36.1316 15.0486 35.7753 14.6087 35.7753 13.9164C35.7753 13.2241 36.1316 12.7851 36.7227 12.7851ZM36.7227 13.2039C36.4333 13.2039 36.2952 13.4308 36.2952 13.9164C36.2952 14.402 36.4333 14.629 36.7227 14.629C37.0121 14.629 37.1502 14.4029 37.1502 13.9164C37.1502 13.4299 37.0121 13.2039 36.7227 13.2039ZM38.1865 15.0064V12.8273H38.6642V13.0613C38.8569 12.9276 39.0794 12.7851 39.3354 12.7851C39.7753 12.7851 39.9802 13.0701 39.9802 13.5144V15.0099H39.4603V13.5936C39.4603 13.2997 39.3724 13.2074 39.1964 13.2074C39.1037 13.2097 39.0125 13.2314 38.9288 13.271C38.845 13.3107 38.7704 13.3676 38.71 13.4379V15.0099L38.1865 15.0064ZM39.5817 8.87397C39.5158 8.84846 39.4999 8.83878 39.4999 8.55552V2.19968C39.4999 1.01121 38.7108 0.951385 38.5578 0.951385C38.3116 0.963819 38.0725 1.03826 37.8628 1.16779L35.3381 2.51725C35.1155 2.64305 34.6537 2.9052 34.6537 3.47701C34.6537 4.04881 35.1313 4.4825 35.7911 4.4869C35.8861 4.4869 36.1738 4.4913 36.2116 4.54496C36.2494 4.59863 36.2292 7.60192 36.2292 7.60192C36.2292 7.81393 36.2292 8.00571 36.2186 8.1922C36.2156 8.32157 36.1656 8.44543 36.0781 8.54073C35.9905 8.63604 35.8714 8.69631 35.7427 8.71035C35.7427 8.71035 34.8261 8.88629 34.6985 8.88629C34.5606 8.88453 34.4287 8.82956 34.3303 8.73284C34.232 8.63612 34.1748 8.50515 34.1707 8.36726C34.1707 8.36726 34.1663 7.35473 34.1549 6.98261C34.1394 6.40402 33.895 5.8552 33.4752 5.4567C33.0554 5.0582 32.4946 4.8426 31.916 4.85726C31.5697 4.85956 31.229 4.94526 30.9228 5.10709C30.8445 5.01601 30.747 4.94326 30.6374 4.89401C30.5278 4.84476 30.4087 4.8202 30.2886 4.82207C30.1126 4.82207 30.0176 4.85814 29.8171 4.96458C29.6165 5.07102 28.3779 5.7396 28.3779 5.7396C28.2947 5.78166 28.2175 5.83461 28.1483 5.89706C27.8155 5.47949 27.382 5.15345 26.8885 4.94963C26.516 4.79641 26.1169 4.71837 25.7141 4.72002C25.2096 4.71983 24.712 4.83828 24.2617 5.06582C23.8114 5.29336 23.4208 5.62361 23.1217 6.0299V3.32658C23.1217 2.76621 22.7443 2.35891 22.242 2.35891C22.099 2.36969 21.9597 2.40982 21.8329 2.47679L20.494 3.10137C20.084 3.29315 19.8782 3.58169 19.8782 3.95908C19.87 4.13966 19.9281 4.31701 20.0415 4.45778C20.1549 4.59856 20.3158 4.69306 20.494 4.72354V4.88365C20.259 4.82445 20.0176 4.79489 19.7753 4.79568C19.6668 4.79591 19.5584 4.80237 19.4507 4.81503C19.0142 4.87207 18.596 5.02541 18.2261 5.26398C17.8562 5.50254 17.544 5.82035 17.3121 6.1944C17.3068 5.30854 17.3121 3.71453 17.3121 3.56234C17.3121 3.41015 17.3218 2.73718 16.8195 2.5067C16.6955 2.45193 16.5603 2.42728 16.425 2.43477C16.2897 2.44227 16.1581 2.48168 16.0409 2.5498C15.8896 2.63337 15.1243 3.07059 14.6994 3.31074C14.2745 3.5509 14.0502 3.81833 14.0502 4.20804C14.0502 4.48163 14.1654 4.83439 14.6897 4.99185V6.05365C14.3853 5.62222 13.9806 5.27119 13.5104 5.03076C13.0403 4.79033 12.5188 4.6677 11.9908 4.6734C11.278 4.67065 10.5832 4.89701 10.0088 5.3191C9.90804 5.38403 9.79092 5.4191 9.67103 5.42027C9.55189 5.41955 9.43542 5.38492 9.33524 5.32042C9.23507 5.25592 9.15534 5.16423 9.10538 5.05607L8.22568 2.9052C8.05942 2.41257 7.69786 2.11875 7.26417 2.11875C7.13723 2.12266 7.01242 2.15237 6.89733 2.20606C6.78224 2.25975 6.67928 2.3363 6.59471 2.43104C6.59471 2.43104 5.65959 2.32548 5.2954 2.32548C4.13413 2.33387 3.00977 2.73439 2.10472 3.46205C1.10538 4.27314 0.554688 5.38772 0.554688 6.59907C0.554688 8.02858 1.25845 9.30854 2.43461 10.0237C3.6354 10.7574 5.09394 10.8498 6.22964 10.8498H39.2879C40.2222 10.8498 40.5547 10.3096 40.5547 9.80733C40.5547 9.11677 39.9204 8.94523 39.5817 8.87397Z" fill="#231F20"/>
<path d="M8.34723 6.47853H6.6758C6.39078 6.47853 6.08376 6.46094 6.08376 6.82074C6.08376 7.34856 6.6758 6.89111 6.6758 7.70044C6.6758 7.89661 6.68724 8.19307 6.68724 8.35669C6.68724 8.86956 6.59135 9.2188 5.84096 9.2188C4.29445 9.22056 3.25816 8.04968 3.25816 6.4671C3.25816 5.093 4.02966 3.8711 5.45741 3.8711C6.79192 3.8711 7.78686 5.17394 8.12555 5.17394C8.15937 5.17434 8.1929 5.16761 8.22395 5.1542C8.255 5.1408 8.28288 5.121 8.30578 5.09611C8.32868 5.07122 8.34609 5.04179 8.35687 5.00973C8.36765 4.97767 8.37156 4.9437 8.36834 4.91003C8.35585 4.80846 8.33164 4.70869 8.29621 4.61269L7.68042 3.10664C7.61796 2.91047 7.4904 2.70374 7.26872 2.70374C7.04703 2.70374 6.95115 3.02043 6.74969 3.02043C6.27378 3.02043 5.77587 2.91047 5.29995 2.91047C3.31094 2.91047 1.1416 4.36197 1.1416 6.59817C1.1416 7.79808 1.73364 8.91178 2.73914 9.5223C3.77631 10.1548 5.04571 10.2648 6.23067 10.2648H8.07277C8.14238 10.2647 8.20984 10.2406 8.26371 10.1965C8.31758 10.1524 8.35454 10.0911 8.36834 10.0228C8.37275 9.97691 8.37275 9.93067 8.36834 9.88473V7.68548C8.36834 7.41277 8.36834 7.17262 8.65425 7.10752C8.8557 7.05298 8.96126 6.98348 8.96126 6.77587C8.94015 6.42839 8.62258 6.47853 8.34723 6.47853ZM16.7844 9.38242C16.7193 8.96808 16.7193 3.41014 16.7193 3.41014L16.6877 3.20165C16.6578 3.11368 16.5997 3.02043 16.4924 3.02043C16.4229 3.03718 16.3547 3.05894 16.2883 3.08553L15.0039 3.81656C14.8421 3.89221 14.6371 4.00129 14.6371 4.2089C14.6371 4.54671 15.1552 4.34878 15.23 4.66459C15.2704 4.81029 15.2888 4.96122 15.2846 5.11236V8.67427C15.2846 10.1143 14.6151 9.48535 14.6151 10.0202C14.6371 10.2938 14.9063 10.2648 15.1332 10.2648H16.8592C17.0756 10.2648 17.3782 10.2824 17.3782 10.0009C17.3782 9.6824 16.8707 9.72111 16.7844 9.38242Z" fill="#FFCE34"/>
<path d="M14.6599 7.73476C14.6568 7.63847 14.6483 7.54243 14.6344 7.4471C14.4892 6.4504 13.7406 5.64547 12.758 5.36485C12.4838 5.28703 12.1993 5.25143 11.9143 5.25928C10.4364 5.29887 9.26908 6.47151 9.30603 7.87815C9.31775 8.30796 9.44277 8.72705 9.66847 9.09302C9.89846 9.45995 10.2138 9.76582 10.5875 9.98455C10.9613 10.2033 11.3824 10.3284 11.8149 10.3492C11.8923 10.3492 11.9698 10.3554 12.0489 10.3492C13.5295 10.314 14.6977 9.1414 14.6599 7.73476ZM12.8284 9.06663C12.6014 9.52583 12.1554 9.81701 11.6627 9.57334C10.6379 9.06487 10.7417 7.25444 11.2159 6.34307C11.4226 5.94633 11.8932 5.65691 12.319 5.86804C13.2277 6.31756 13.2225 8.2749 12.8284 9.06663ZM22.8666 9.71409C22.5209 9.53815 22.5534 8.79128 22.5429 8.46403C22.5323 8.13678 22.5332 4.59951 22.5332 4.59951C22.5332 4.13063 22.5209 3.79458 22.5209 3.32482C22.5209 3.14008 22.4461 2.94303 22.2412 2.94303C22.1673 2.96726 22.0953 2.99666 22.0256 3.031L20.7413 3.63096C20.6014 3.69605 20.4606 3.78314 20.4606 3.95732C20.4606 4.37254 21.0219 3.86935 21.0764 4.69715V5.74136C20.6784 5.51377 20.2302 5.38835 19.7718 5.37628C19.686 5.37634 19.6002 5.38133 19.515 5.39124C18.2552 5.53991 17.3571 6.76885 17.3571 8.01714C17.3571 9.35869 18.1013 10.351 19.4683 10.351C20.1492 10.351 20.6234 10.0457 21.0879 9.59885V9.90498C21.0879 10.1117 21.109 10.3184 21.3034 10.3299H22.8569C23.061 10.3299 23.1807 10.2278 23.1807 10.0317C23.1578 9.84516 23.0074 9.78007 22.8666 9.71409ZM21.0755 7.99603C21.0755 8.55288 20.7826 9.20386 20.2231 9.28303C19.6636 9.36221 19.3892 9.18803 19.156 8.8986C18.8385 8.50538 18.7786 7.89311 18.8042 7.40311C18.8288 6.75741 19.1877 6.05365 19.8994 6.05365C20.8671 6.05365 21.0755 7.06883 21.0755 7.8544V7.99603ZM28.0938 7.03364C27.9857 6.68671 27.8015 6.3683 27.5547 6.10166C27.3078 5.83501 27.0045 5.62686 26.6669 5.4924C25.4415 4.9813 23.8748 5.54518 23.3496 6.80404C22.7698 8.19396 23.3953 9.55398 24.7395 10.1144C25.4767 10.4257 26.2951 10.4893 27.0716 10.2956C27.3047 10.2155 27.7076 10.088 27.8167 9.82669C27.8402 9.7619 27.8375 9.69046 27.8091 9.62766C27.7806 9.56486 27.7287 9.51568 27.6645 9.49064C27.4806 9.42643 26.6529 9.95513 25.8365 9.61468C25.2207 9.35693 24.8882 8.80536 24.8838 8.14206L27.4279 8.12447C27.6223 8.13502 28.1026 8.12007 28.1492 8.01011C28.2328 7.80778 28.1211 7.16295 28.0938 7.03364ZM26.6608 7.28523C26.6564 7.29491 26.63 7.33098 26.6256 7.34153C26.5429 7.4295 26.3731 7.41279 26.2737 7.41983L25.1864 7.41191C25.1272 7.41748 25.0675 7.41181 25.0104 7.3952C24.7624 7.29139 25.0175 6.51549 25.0843 6.35011C25.248 5.95776 25.6817 5.67714 26.0995 5.85132C26.5174 6.0255 26.8367 6.85858 26.6608 7.28523ZM36.3058 10.2648C35.9856 10.2648 35.602 10.2709 35.602 9.87419C35.602 9.26456 36.5908 9.48361 36.7245 8.91356C36.831 8.49042 36.831 8.02682 36.831 7.60369V4.82207C36.831 3.97404 36.6445 3.92741 35.8158 3.90102C35.5519 3.90102 35.2546 3.78226 35.2546 3.47701C35.2546 3.2131 35.5185 3.09962 35.7226 2.98086L38.1497 1.68418C38.274 1.60221 38.4166 1.55206 38.5649 1.53815C38.871 1.53815 38.9247 1.92258 38.9247 2.20056V8.5564C38.9247 8.96722 38.9783 9.2716 39.4059 9.42994C39.6592 9.51 39.9539 9.50296 39.9803 9.80822C39.9803 10.1918 39.6469 10.2648 39.2986 10.2648H36.3058ZM31.917 5.44226C33.0228 5.44226 33.5497 6.29645 33.5717 7.00021C33.5937 7.70397 33.5805 8.83263 33.5981 9.17747C33.6157 9.52231 33.7652 9.5707 34.0582 9.74752C34.107 9.77204 34.148 9.80977 34.1764 9.85643C34.2049 9.90308 34.2197 9.95678 34.2192 10.0114C34.2192 10.2621 33.9931 10.2674 33.7881 10.2674H31.8668C31.6953 10.2674 31.4798 10.2516 31.4798 10.0334C31.4798 9.67362 32.0507 9.74576 32.0507 9.31998C32.0507 9.22145 32.0507 7.79282 32.0577 7.43038C32.0674 6.95007 31.7666 6.40465 31.281 6.40465C30.7206 6.40465 30.5508 7.09258 30.5508 7.51747V8.34879C30.5451 8.70183 30.5669 9.05477 30.6159 9.40443C30.6907 9.71057 31.1657 9.70353 31.1657 10.0308C31.1657 10.2824 30.8745 10.2648 30.6801 10.2648H28.9691C28.7861 10.2648 28.4949 10.2824 28.4949 10.0308C28.4949 9.62788 29.1204 9.97888 29.1204 8.70155C29.1204 8.36375 29.1099 7.75939 29.1099 7.42159C29.1099 6.52605 28.4615 6.87529 28.4615 6.4935C28.4615 6.38354 28.5706 6.30349 28.6568 6.26038L30.1954 5.44226C30.2261 5.4234 30.2607 5.41195 30.2966 5.40883C30.4998 5.40883 30.5552 5.58477 30.5552 5.76071V6.1601C30.8666 5.77127 31.3566 5.44226 31.917 5.44226Z" fill="#FFCE34"/>
</g>
</g>
<defs>
<clipPath id="clip0_806_1512">
<rect width="40" height="16" fill="white" transform="translate(0.554688)"/>
</clipPath>
<clipPath id="clip1_806_1512">
<rect width="40" height="14.0972" fill="white" transform="translate(0.554688 0.951385)"/>
</clipPath>
</defs>
</svg>
