<svg width="39" height="16" viewBox="0 0 39 16" fill="none" xmlns="http://www.w3.org/2000/svg">
<g clip-path="url(#clip0_778_2162)">
<path d="M3.82423 3.74932H6.07937V7.44315C5.32634 7.59574 4.74967 7.67303 4.11752 7.67303C1.6444 7.67303 0.772461 6.25613 0.772461 3.92371C0.772461 1.41689 1.98128 0 4.39099 0C4.69617 0 5.27283 0.0217984 5.99218 0.13079V2.49492H5.46902L5.17375 1.59128C4.89037 0.731236 4.55349 0.305177 4.01844 0.305177C3.093 0.305177 2.60154 1.55759 2.60154 3.90191C2.60154 6.25613 2.79773 7.36785 4.00655 7.36785C4.17102 7.36785 4.36523 7.34605 4.5515 7.29254V4.54397L3.82225 4.04261V3.74932H3.82423ZM6.03577 13.6656C6.03577 15.1479 5.02314 15.998 3.23568 15.998C2.7462 15.998 2.02686 15.9227 1.35111 15.8117V12.9145H1.87427L2.09225 13.6002C2.58173 15.1796 2.9305 15.7028 3.55274 15.7028C4.20669 15.7028 4.67437 15.1261 4.67437 14.3631C4.67437 13.7429 4.38108 13.3069 3.74893 12.968L2.65901 12.3795C1.81878 11.9336 1.36102 11.2361 1.36102 10.3859C1.36102 9.09983 2.41725 8.32698 4.15121 8.32698C4.54358 8.32698 5.00134 8.36066 5.7306 8.45777V10.8219H5.20744L4.91415 9.91826C4.61888 8.95913 4.3038 8.61035 3.72713 8.61035C3.08309 8.61035 2.70261 9.02452 2.70261 9.62299C2.70261 10.1561 2.99788 10.5385 3.57454 10.8655L4.67437 11.4858C5.59981 12.0089 6.03577 12.7065 6.03577 13.6656ZM10.8532 15.3778L11.0712 15.7047V15.8692H9.40461L9.32733 15.2371C9.15294 15.7166 8.69517 16 8.10662 16C7.23468 16 6.68973 15.455 6.68973 14.5613C6.68973 13.6894 7.1792 13.1127 8.68328 12.5242L9.32535 12.2745V11.458C9.32535 10.7387 9.19456 10.4454 8.79228 10.4454C8.4653 10.4454 8.28101 10.6198 7.96394 11.4144L7.60526 12.3042H7.11578V10.5266C7.75784 10.3304 8.40189 10.1997 8.95676 10.1997C10.1874 10.1997 10.8532 10.7882 10.8532 11.8563V15.3778ZM11.4834 4.77384C11.4834 6.6267 10.4925 7.67303 9.21635 7.67303C7.94214 7.67303 6.95131 6.6267 6.95131 4.77384C6.95131 2.92098 7.94214 1.87466 9.21834 1.87466C10.4925 1.87466 11.4834 2.92098 11.4834 4.77384ZM9.32733 14.4622V12.5777L9.12123 12.6649C8.47719 12.9264 8.23741 13.515 8.23741 14.375C8.23741 15.0191 8.39 15.3877 8.74868 15.3877C9.10736 15.3877 9.32733 15.0389 9.32733 14.4622ZM9.8822 4.77384C9.8822 2.6812 9.70781 2.12633 9.21834 2.12633C8.72886 2.12633 8.55448 2.6812 8.55448 4.77384C8.55448 6.86649 8.72886 7.42135 9.21834 7.42135C9.70781 7.42135 9.8822 6.86649 9.8822 4.77384ZM15.3536 14.5157L15.5498 14.6148C15.201 15.6175 14.7551 15.998 13.8931 15.998C12.4881 15.998 11.7033 14.9418 11.7033 13.0988C11.7033 11.2579 12.6189 10.1997 14.1111 10.1997C14.5134 10.1997 15.0484 10.265 15.5062 10.4493V12.3022H14.9949L14.7888 11.6047C14.5153 10.6792 14.3647 10.4394 14.0913 10.4394C13.6553 10.4394 13.3065 11.0062 13.3065 13.1642C13.3065 14.8962 13.5681 15.5284 14.232 15.5284C14.6778 15.5303 15.0583 15.247 15.3536 14.5157ZM14.1428 7.54223H12.1809V7.37974L12.3989 7.05276V0.971018L12.1809 0.644043V0.479564L13.9248 0.348774V7.05078L14.1428 7.37776V7.54223ZM16.824 7.67303C15.6251 7.67303 14.9057 6.58311 14.9057 4.72034C14.9057 2.86748 15.6568 1.87664 16.8121 1.87664C17.4007 1.87664 17.7276 2.10453 17.8683 2.5623V0.971018L17.6503 0.644043V0.479564L19.3942 0.348774V7.05078L19.6122 7.37776V7.54025H18.0645L17.9456 6.71192C17.7732 7.42135 17.4462 7.67303 16.824 7.67303ZM20.6486 15.3778L20.8666 15.7047V15.8692H18.9047V15.7047L19.1227 15.3778V11.4541C19.1227 10.9864 18.982 10.703 18.6432 10.703C18.2389 10.703 17.9456 11.0419 17.9456 11.7057V15.3778L18.1636 15.7047V15.8692H16.2017V15.7047L16.4197 15.3778V9.29601L16.2017 8.96904V8.80654L17.9456 8.67575V10.9309C18.1418 10.4632 18.5877 10.2016 19.2198 10.2016C20.1136 10.2016 20.6466 10.7684 20.6466 11.8682V15.3778H20.6486ZM16.5089 4.74015C16.5089 6.70201 16.6833 7.30047 17.1628 7.30047C17.7613 7.30047 17.8703 6.44043 17.8703 4.71836C17.8703 3.05177 17.7514 2.22343 17.1728 2.22343C16.6833 2.22343 16.5089 2.81199 16.5089 4.74015ZM27.4497 7.05078L27.6677 7.37776V7.54025H25.7058V7.37776L25.9238 7.05078V3.00817C25.9238 2.6158 25.793 2.37602 25.4878 2.37602C25.1074 2.37602 24.8022 2.71489 24.8022 3.36686V7.05078L25.0202 7.37776V7.54025H23.0583V7.37776L23.2763 7.05078V3.00817C23.2763 2.6158 23.1455 2.37602 22.8403 2.37602C22.4599 2.37602 22.1547 2.71489 22.1547 3.36686V7.05078L22.3727 7.37776V7.54025H20.4108V7.37776L20.6288 7.05078V2.6158L20.4108 2.35422V2.19173L21.9803 2.00545H22.1111L22.1547 2.6158C22.339 2.13624 22.7967 1.87466 23.419 1.87466C24.0828 1.87466 24.5188 2.20164 24.715 2.79019C24.8775 2.22343 25.3907 1.87466 26.0447 1.87466C26.9047 1.87466 27.4497 2.44142 27.4497 3.54124V7.05078ZM25.4125 14.266C25.4125 15.2133 24.8022 15.998 23.3318 15.998C22.9513 15.998 22.4381 15.9544 21.6434 15.8117V13.7865H22.0893L22.23 14.2224C22.5788 15.3342 22.9156 15.7483 23.4507 15.7483C23.952 15.7483 24.279 15.3877 24.279 14.8328C24.279 14.375 24.0492 14.0599 23.5062 13.7647L22.5688 13.2633C21.9704 12.9363 21.6434 12.4251 21.6434 11.7929C21.6434 10.8021 22.4182 10.2016 23.7024 10.2016C24.0729 10.2016 24.5525 10.2551 25.0757 10.3641V11.9554H24.6298L24.3999 11.3768C24.1383 10.6792 23.8886 10.4513 23.4745 10.4513C23.0286 10.4513 22.767 10.7129 22.767 11.1489C22.767 11.5194 22.985 11.7691 23.5181 12.0743L24.4435 12.5975C25.0737 12.9581 25.4125 13.4694 25.4125 14.266ZM32.4633 7.05078L32.6813 7.37776V7.54025H31.0147L30.9394 6.9081C30.765 7.38766 30.3073 7.67104 29.7187 7.67104C28.8468 7.67104 28.3018 7.12608 28.3018 6.23235C28.3018 5.36042 28.7913 4.78375 30.2954 4.19519L30.9374 3.9455V3.12906C30.9374 2.40971 30.8066 2.11642 30.4044 2.11642C30.0774 2.11642 29.8931 2.29081 29.576 3.08546L29.2173 3.97919H28.7259V2.20362C29.3699 2.00743 30.012 1.87664 30.5669 1.87664C31.7975 1.87664 32.4633 2.4652 32.4633 3.53332V7.05078ZM30.9374 6.13525V4.25068L30.7313 4.33787C30.0893 4.59946 29.8495 5.18801 29.8495 6.04806C29.8495 6.6921 30.0021 7.06267 30.3608 7.06267C30.7194 7.06267 30.9374 6.7139 30.9374 6.13525ZM38.0635 7.37776V7.54025H36.1017V7.37776L36.3196 7.05078V3.12707C36.3196 2.65742 36.1789 2.37602 35.8401 2.37602C35.4358 2.37602 35.1425 2.71489 35.1425 3.37875V7.05078L35.3605 7.37776V7.54025H33.3987V7.37776L33.6166 7.05078V2.6158L33.3987 2.35422V2.19173L34.9681 2.00545H35.0989L35.1425 2.6158C35.3268 2.13624 35.7747 1.87466 36.4167 1.87466C37.3105 1.87466 37.8435 2.44142 37.8435 3.54124V7.05078L38.0635 7.37776Z" fill="black"/>
</g>
<defs>
<clipPath id="clip0_778_2162">
<rect width="37.2911" height="16" fill="white" transform="translate(0.772461)"/>
</clipPath>
</defs>
</svg>
