<svg width="65" height="64" viewBox="0 0 65 64" fill="none" xmlns="http://www.w3.org/2000/svg">
<g clip-path="url(#clip0_746_171)">
<path d="M32.2285 47.9966C41.0651 47.9966 48.2285 40.8331 48.2285 31.9966C48.2285 23.16 41.0651 15.9966 32.2285 15.9966C23.3919 15.9966 16.2285 23.16 16.2285 31.9966C16.2285 40.8331 23.3919 47.9966 32.2285 47.9966Z" fill="white"/>
<path d="M18.3721 40.0001L4.51788 16.004C1.70872 20.868 0.229686 26.3859 0.229492 32.0028C0.229298 37.6198 1.70795 43.1378 4.51677 48.002C7.3256 52.8662 11.3656 56.9052 16.2305 59.7129C21.0954 62.5205 26.6137 63.9978 32.2307 63.9962L46.0849 40.0001V39.9959C44.6817 42.4294 42.6624 44.4503 40.2302 45.8556C37.798 47.2609 35.0387 48.0009 32.2297 48.0013C29.4207 48.0017 26.6611 47.2626 24.2285 45.8579C21.796 44.4534 19.776 42.433 18.3721 40.0001Z" fill="url(#paint0_linear_746_171)"/>
<path d="M46.084 39.9991L32.2299 63.9952C37.8469 63.996 43.365 62.518 48.2295 59.7096C53.094 56.9013 57.1334 52.8618 59.9416 47.9972C62.7497 43.1325 64.2276 37.6142 64.2267 31.9973C64.2256 26.3803 62.7458 20.8627 59.9359 15.999H32.2276L32.2241 16.0011C35.0331 15.9997 37.7929 16.738 40.226 18.1417C42.6592 19.5454 44.6797 21.565 46.0846 23.9975C47.4894 26.4299 48.229 29.1894 48.229 31.9983C48.2289 34.8073 47.4889 37.5667 46.084 39.9991Z" fill="url(#paint1_linear_746_171)"/>
<path d="M32.2286 44.6667C39.2242 44.6667 44.8953 38.9956 44.8953 32C44.8953 25.0044 39.2242 19.3333 32.2286 19.3333C25.233 19.3333 19.562 25.0044 19.562 32C19.562 38.9956 25.233 44.6667 32.2286 44.6667Z" fill="#1A73E8"/>
<path d="M32.2287 16H59.937C57.1292 11.1352 53.0901 7.09534 48.2258 4.28669C43.3615 1.47805 37.8433 -0.000398578 32.2264 8.06013e-08C26.6094 0.00039874 21.0916 1.47963 16.2277 4.28897C11.3637 7.09829 7.32518 11.1387 4.51807 16.0039L18.3722 40L18.3758 40.0019C16.9701 37.5699 16.2295 34.8108 16.2286 32.0018C16.2277 29.1928 16.9665 26.4331 18.3707 24.0003C19.7747 21.5675 21.7948 19.5472 24.2274 18.1429C26.6601 16.7384 29.4197 15.9994 32.2287 16Z" fill="url(#paint2_linear_746_171)"/>
</g>
<defs>
<linearGradient id="paint0_linear_746_171" x1="35.6923" y1="61.9977" x2="7.98288" y2="14.0035" gradientUnits="userSpaceOnUse">
<stop stop-color="#1E8E3E"/>
<stop offset="1" stop-color="#34A853"/>
</linearGradient>
<linearGradient id="paint1_linear_746_171" x1="27.561" y1="64.0801" x2="55.2704" y2="16.0858" gradientUnits="userSpaceOnUse">
<stop stop-color="#FCC934"/>
<stop offset="1" stop-color="#FBBC04"/>
</linearGradient>
<linearGradient id="paint2_linear_746_171" x1="4.51808" y1="20.0009" x2="59.937" y2="20.0009" gradientUnits="userSpaceOnUse">
<stop stop-color="#D93025"/>
<stop offset="1" stop-color="#EA4335"/>
</linearGradient>
<clipPath id="clip0_746_171">
<rect width="64" height="64" fill="white" transform="translate(0.229492)"/>
</clipPath>
</defs>
</svg>
