<svg width="41" height="16" viewBox="0 0 41 16" fill="none" xmlns="http://www.w3.org/2000/svg">
<g clip-path="url(#clip0_2_7289)">
<g clip-path="url(#clip1_2_7289)">
<path d="M5.6589 11.6026C2.86706 11.6026 0.521484 9.32774 0.521484 6.53591C0.521484 3.74407 2.86706 1.46924 5.6589 1.46924C7.20312 1.46924 8.30108 2.07468 9.12829 2.86516L8.15278 3.84067C7.55958 3.2842 6.75686 2.85155 5.6589 2.85155C3.62216 2.85155 2.02897 4.49509 2.02897 6.53454C2.02897 8.574 3.62216 10.2162 5.6589 10.2162C6.97999 10.2162 7.73373 9.68556 8.21536 9.20257C8.60992 8.80665 8.86978 8.23931 8.9691 7.45971H5.62352V6.07604H10.3147C10.3637 6.32366 10.3882 6.62026 10.3882 6.94135C10.3882 7.97944 10.1038 9.26516 9.19087 10.1794C8.30244 11.106 7.16638 11.5999 5.6589 11.5999V11.6026Z" fill="#4285F4"/>
<path d="M17.414 8.34022C17.414 10.2191 15.946 11.6028 14.146 11.6028C12.346 11.6028 10.8779 10.2191 10.8779 8.34022C10.8779 6.46131 12.346 5.07764 14.146 5.07764C15.946 5.07764 17.414 6.44907 17.414 8.34022ZM15.9827 8.34022C15.9827 7.16607 15.131 6.36335 14.1446 6.36335C13.1582 6.36335 12.3065 7.16607 12.3065 8.34022C12.3065 9.51437 13.1582 10.3171 14.1446 10.3171C15.131 10.3171 15.9827 9.50213 15.9827 8.34022Z" fill="#EA4335"/>
<path d="M24.5282 8.34022C24.5282 10.2191 23.0602 11.6028 21.2602 11.6028C19.4602 11.6028 17.9922 10.2191 17.9922 8.34022C17.9922 6.46131 19.4602 5.07764 21.2602 5.07764C23.0602 5.07764 24.5282 6.44907 24.5282 8.34022ZM23.0969 8.34022C23.0969 7.16607 22.2452 6.36335 21.2589 6.36335C20.2725 6.36335 19.4208 7.16607 19.4208 8.34022C19.4208 9.51437 20.2725 10.3171 21.2589 10.3171C22.2452 10.3171 23.0969 9.50213 23.0969 8.34022Z" fill="#FBBC04"/>
<path d="M31.3336 5.27492V11.1321C31.3336 13.5416 29.9131 14.5307 28.2342 14.5307C26.6533 14.5307 25.7023 13.4681 25.3444 12.6028L26.5921 12.0844C26.8138 12.6164 27.358 13.2463 28.2342 13.2463C29.3091 13.2463 29.9757 12.5797 29.9757 11.3307V10.8613H29.9268C29.6057 11.2572 28.988 11.6028 28.2097 11.6028C26.5798 11.6028 25.0859 10.1824 25.0859 8.35247C25.0859 6.52253 26.5798 5.07764 28.2097 5.07764C28.988 5.07764 29.6057 5.42321 29.9268 5.80689H29.9757V5.27492H31.3336ZM30.0737 8.35247C30.0737 7.20281 29.3077 6.36335 28.3322 6.36335C27.3567 6.36335 26.5172 7.20417 26.5172 8.35247C26.5172 9.50077 27.3444 10.3171 28.3322 10.3171C29.32 10.3171 30.0737 9.48852 30.0737 8.35247Z" fill="#4285F4"/>
<path d="M33.7964 1.81494V11.4041H32.3638V1.81494H33.7964Z" fill="#34A853"/>
<path d="M39.3486 9.41505L40.4602 10.1565C40.1024 10.6885 39.2371 11.6028 37.7432 11.6028C35.8915 11.6028 34.5078 10.1688 34.5078 8.34022C34.5078 6.40009 35.9037 5.07764 37.5826 5.07764C39.2616 5.07764 40.101 6.42458 40.3731 7.15383L40.5214 7.5239L36.1622 9.32798C36.4956 9.9824 37.0139 10.3171 37.7432 10.3171C38.4724 10.3171 38.9786 9.95927 39.3486 9.41505ZM35.9282 8.2409L38.8425 7.03002C38.682 6.62185 38.2003 6.3375 37.633 6.3375C36.9051 6.3375 35.8915 6.97968 35.9296 8.2409H35.9282Z" fill="#EA4335"/>
</g>
</g>
<defs>
<clipPath id="clip0_2_7289">
<rect width="40" height="16" fill="white" transform="translate(0.521484)"/>
</clipPath>
<clipPath id="clip1_2_7289">
<rect width="40" height="13.0612" fill="white" transform="translate(0.521484 1.46924)"/>
</clipPath>
</defs>
</svg>
