<svg width="41" height="16" viewBox="0 0 41 16" fill="none" xmlns="http://www.w3.org/2000/svg">
<g clip-path="url(#clip0_776_145)">
<g clip-path="url(#clip1_776_145)">
<path d="M13.342 6.18595C13.2327 6.27337 13.036 6.29523 12.0525 6.47008C12.0525 6.47008 12.0088 6.47008 11.8558 6.5575C11.6154 6.5575 11.2438 6.73235 11.1345 6.79792C11.0908 6.81977 11.0252 6.95091 11.0034 7.19133C11.069 7.27875 11.1127 7.2569 11.1782 7.2569C11.6591 7.2569 12.3366 7.01648 12.424 7.03834C12.73 7.1039 12.883 7.58474 12.883 7.82516C12.883 7.84701 12.8612 8 12.8393 8.02186C12.7956 8.13114 12.6207 8.21856 12.3803 8.24042C11.3094 8.32784 10.8067 8.41527 10.6974 8.50269C10.6755 8.52455 10.6318 8.63383 10.6318 8.6994C10.6318 8.96167 11.1564 9.00538 11.2657 9.00538C11.5935 9.00538 11.7683 8.83053 11.8776 8.83053C12.0306 8.83053 12.3148 9.18023 12.3148 9.57364C12.3148 9.83592 12.1618 10.2512 11.5061 10.2512C11.3312 10.2512 10.61 10.12 10.0854 9.74849C10.0854 9.74849 10.1073 9.63921 9.88873 9.48622C9.82316 9.35508 9.67017 8.91796 9.67017 8.56826C9.67017 7.8033 10.0417 7.30061 10.1073 7.01648C10.1073 7.01648 9.93244 6.75421 9.86687 6.66678C9.82316 6.62307 9.77945 6.57936 9.77945 6.38265C9.77945 5.79254 10.1729 5.68326 10.1947 5.68326H10.3258C10.3258 5.68326 10.61 5.55212 10.6537 5.48655L10.8723 5.4647C11.0034 5.44284 12.424 5.07129 12.7082 5.07129C12.9267 5.07129 13.0141 5.115 13.1234 5.24614C13.189 5.33356 13.4294 5.77068 13.4294 5.94553C13.3857 6.03296 13.3638 6.14224 13.342 6.18595Z" fill="#66CC00"/>
<path d="M14.0414 8.48082C14.0195 8.50267 13.9758 8.63381 13.9758 8.69938C13.9758 8.7868 14.3036 8.93979 14.5878 8.93979C15.462 8.9835 15.3527 8.56824 15.615 8.69938C15.7899 8.7868 15.9429 9.20207 15.9429 9.46434C15.9429 10.0326 15.3965 10.1856 14.8938 10.1856C14.2162 10.1856 13.6261 9.8796 13.6261 9.8796C13.6261 9.8796 13.1016 9.22392 13.1016 8.76494C13.1016 7.694 13.6698 6.53562 13.6917 6.47005C13.6917 6.47005 13.7354 6.16407 13.7572 5.96737C13.7791 5.74881 13.9321 5.70509 14.0632 5.5521C14.3474 5.53024 14.8719 5.28983 16.4674 5.11498C16.6641 5.09312 16.9264 5.37725 17.0575 5.79252C17.0794 5.85809 17.0357 6.16407 16.9482 6.20778C16.8827 6.22964 16.7297 6.2515 15.4183 6.38263C15.1997 6.40449 14.9593 6.4482 14.8719 6.51377C14.7626 6.57934 14.5659 6.92903 14.5441 7.03831C14.5222 7.14759 14.5659 7.21316 14.7189 7.19131C15.3965 7.12574 15.8554 6.81975 15.921 6.81975C16.1614 6.81975 16.4018 7.1476 16.4674 7.49729C16.5111 7.71585 16.4455 7.86885 16.38 7.91256C16.1833 8.04369 15.8554 8.13112 15.5276 8.19669C15.3746 8.21854 15.2653 8.21854 15.2216 8.21854C15.1997 8.21854 15.1123 8.26226 15.0905 8.26226C14.5659 8.34968 14.1288 8.39339 14.0414 8.48082Z" fill="#66CC00"/>
<path d="M28.7941 5.70511C28.7941 5.96739 28.7067 6.14224 28.6193 6.18595C28.204 6.33894 26.8052 6.53565 26.1495 6.75421C26.0402 6.79792 25.8217 7.14762 25.8217 7.27875C25.8217 7.34432 25.9091 7.36618 26.0184 7.36618C26.9582 7.23504 27.1112 7.16947 27.5046 6.99463C27.5702 6.99463 27.6576 7.01648 27.7232 7.06019C27.8324 7.19133 27.9417 7.40989 27.9417 7.75959C27.9417 7.97815 27.8543 8.19671 27.4827 8.24042C27.0019 8.30599 25.8872 8.48084 25.5594 8.52455C25.3846 8.54641 25.2971 8.59012 25.2753 8.61197C25.1223 8.83053 25.1878 9.26766 26.1932 9.0491C26.6085 8.96167 26.6959 8.80868 26.9363 8.80868C26.9582 8.80868 26.98 8.80868 27.0019 8.80868C27.1986 8.98353 27.2423 9.18023 27.2423 9.46436C27.2423 9.7922 27.0893 10.0326 26.8052 10.1638C26.7833 10.1856 26.6741 10.2075 26.6522 10.2075C26.6303 10.2075 26.4992 10.2949 26.4336 10.2949C26.2588 10.3386 26.1277 10.3605 26.0621 10.3605C25.3846 10.3605 24.2917 10.0545 24.2917 8.78682C24.2917 7.62845 25.0786 6.84163 25.2753 6.07667C25.2753 6.07667 25.319 6.03296 25.3846 5.94553C25.4064 5.8144 25.5157 5.50841 25.6687 5.48655C26.0402 5.44284 27.1549 5.20243 28.1603 4.87459C28.2477 4.85273 28.3133 4.85273 28.3788 4.89644C28.5755 5.02758 28.7941 5.35542 28.7941 5.70511Z" fill="#66CC00"/>
<path d="M9.53884 9.02724C9.34213 8.80868 8.68645 8.43713 8.44603 8.19671C8.53346 8.08743 9.07986 7.34432 9.07986 6.75421C9.07986 5.92368 8.48975 4.94016 7.68107 4.94016C7.68107 4.94016 7.44065 4.94016 7.15653 4.96201C7.11281 5.04944 6.93796 5.02758 6.93796 5.02758C6.65384 5.15872 6.39156 5.37728 6.39156 6.05482C6.39156 6.18595 6.56641 6.29523 6.67569 6.40451C6.65384 6.62308 6.58827 6.99463 6.47899 7.2569C6.43527 7.34432 6.173 7.38804 6.173 7.38804L6.04187 7.56288C5.95444 8.08743 6.04187 8.153 6.21671 8.39342C6.23857 8.67754 6.12929 9.15838 6.12929 9.44251C6.12929 9.63921 6.19486 9.61736 6.173 9.83592C6.173 9.83592 6.19486 9.87963 6.21671 9.92334C6.28228 10.1419 6.5227 10.3168 6.76312 10.3168C7.00353 10.3168 7.09096 10.1419 7.09096 10.0545C7.09096 9.81406 7.02539 9.09281 7.02539 9.02724C7.04724 8.80868 7.13467 8.67755 7.13467 8.67755C7.28766 8.67755 7.98706 9.31137 8.57717 9.90149C8.66459 9.98891 8.83944 10.0763 8.99244 10.0763C9.34213 10.0763 9.49513 9.66107 9.60441 9.57365C9.64812 9.50808 9.66997 9.15838 9.53884 9.02724ZM7.46251 7.40989C7.4188 7.43175 7.33137 7.38804 7.30952 7.38804C7.30952 7.38804 7.48437 6.31709 7.50622 6.09853C7.7685 6.03296 8.09634 6.1641 8.09634 6.5138C8.11819 6.79792 7.98706 7.14762 7.46251 7.40989Z" fill="#66CC00"/>
<path d="M24.3355 5.22427L24.0732 5.1587L23.9421 5.09314C23.5924 5.02757 22.7619 5.00571 22.4777 5.04942C22.434 5.04942 22.2373 5.00571 22.1717 4.98386C21.9532 5.11499 21.7783 5.1587 21.7783 5.1587C21.7346 5.1587 21.6035 5.11499 21.6035 5.11499C21.4068 5.13685 20.8822 5.24613 20.6418 5.39912C20.5325 5.46469 20.467 5.57397 20.4233 5.66139C20.4233 5.68325 20.3796 5.7051 20.3796 5.66139C20.3796 5.61768 20.3577 5.55211 20.3577 5.53026C20.2921 5.28984 19.9861 5.09314 19.8113 5.09314C19.7457 5.09314 19.5709 5.18056 19.5709 5.26798C19.549 5.37726 19.549 5.87995 19.4835 6.36079C19.4835 6.4045 19.4835 7.32245 19.396 7.62844C19.3742 7.62844 19.3086 7.6503 19.2867 7.62844C19.0463 7.27874 18.4562 6.68863 18.3906 6.27336C18.3469 5.90181 18.4125 5.33355 18.2158 5.18056C18.1502 5.11499 17.8005 5.02757 17.6913 5.02757C17.5383 5.02757 17.429 5.09314 17.3634 5.18056L17.3416 5.28984L17.2323 5.44283C17.2104 5.55211 17.1886 5.72696 17.1667 6.09851L17.2541 6.55749C17.2541 6.55749 17.2541 6.66677 17.1667 6.7542L17.1886 7.10389C17.1886 7.4973 16.8389 8.85238 16.8389 9.24579C16.8389 10.1637 17.6475 10.0763 17.6913 10.0545C17.7568 10.0108 17.8661 9.81405 17.8661 9.74848C17.9098 9.20208 17.9754 8.28412 18.1284 8.02185C18.1502 7.95628 18.2377 7.93443 18.2814 7.97814C18.4125 8.10927 18.5436 8.37155 18.5655 8.3934C18.7185 8.59011 19.1119 9.0928 19.1993 9.55177C19.1993 9.59549 19.1993 9.68291 19.2212 9.74848C19.243 9.90147 19.3086 10.0763 19.5272 10.2512C19.5927 10.2949 19.8113 10.3167 19.9643 10.2949C20.1173 10.273 20.4014 10.2293 20.4014 9.52992C20.4014 9.07094 20.3358 8.87424 20.3358 8.78681C20.3358 8.69939 20.4451 7.847 20.4451 6.66677C20.4451 6.66677 20.4014 6.55749 20.3796 6.49192C20.4014 6.38264 20.4233 6.31707 20.4233 6.25151C20.4233 6.22965 20.4451 6.2078 20.4451 6.22965C20.4451 6.25151 20.467 6.27336 20.467 6.27336C20.5325 6.36079 20.6637 6.44821 20.8167 6.44821C21.0789 6.44821 21.4068 6.14223 21.6253 6.20779C21.6472 6.20779 21.6909 6.16408 21.8658 6.14223C21.8658 6.25151 21.8658 6.49192 21.8439 6.81977C21.8221 6.97276 21.7565 7.01647 21.4724 7.01647C21.3631 7.01647 21.2975 7.1039 21.2757 7.16946C21.2319 7.25689 21.1664 7.6503 21.1664 7.75958C21.1664 7.97814 21.4068 8.26227 21.7128 8.34969C21.7346 8.43711 21.6472 9.15836 21.6472 9.52992C21.6472 9.90147 21.7346 10.0545 21.7565 10.0763C21.7783 10.0982 22.0406 10.2949 22.2373 10.2949C22.3903 10.2949 22.5433 10.2075 22.587 10.1419C22.6089 10.0982 22.6526 10.0108 22.6526 9.8359C22.6744 9.00537 22.7619 8.13113 22.8711 8.10927C23.3738 7.95628 23.8547 7.78143 24.3355 7.40988C24.5978 7.23503 24.9038 6.84162 24.9038 6.44821C24.9038 5.94552 24.5759 5.37726 24.3355 5.22427ZM22.8711 6.88533C22.8056 6.88533 22.7619 6.86348 22.7619 6.81977C22.6963 6.64492 22.6744 6.25151 22.6744 6.03295C22.893 5.98923 23.8547 6.0548 23.8547 6.29522C23.8328 6.51378 23.199 6.88533 22.8711 6.88533Z" fill="#66CC00"/>
<path d="M5.86713 8.17484C5.86713 8.02185 5.71414 7.54102 5.62672 7.40988C5.49558 7.25689 5.34259 7.23503 5.14588 7.23503C5.01475 7.23503 2.89471 7.56287 2.61058 7.73772C2.47944 7.82515 2.43573 8 2.43573 8.26227C2.43573 8.63382 2.67615 8.78682 2.74172 8.78682C2.89471 8.78682 3.98751 8.56825 4.35907 8.50269C4.44649 8.48083 4.46835 8.52454 4.46835 8.5464C4.46835 8.63382 4.44649 8.7431 4.40278 8.80867C4.24978 8.98352 4.03122 9.07095 3.83452 9.13651C3.52853 9.07095 3.26626 9.33322 2.96028 9.18023C2.82914 9.18023 2.63244 9.26765 2.54501 9.13651C2.23903 9.07095 1.91119 9.04909 1.64891 8.83053C1.56149 8.7431 1.53963 8.63382 1.53963 8.50269C1.53963 8.17484 2.04232 7.3006 2.89471 6.51379C3.06956 6.33894 3.70338 5.87996 3.98751 5.87996C4.18422 5.87996 4.24979 6.29522 4.38092 6.44822C4.42463 6.49193 4.57763 6.49193 4.64319 6.44822C4.79619 6.38265 4.92732 6.29522 4.92732 6.09852C4.92732 5.6614 4.75247 5.3117 4.62134 5.13685C4.53391 5.02757 4.11865 4.85272 3.9438 4.85272C3.5941 4.85272 3.41925 5.07128 3.28812 5.07128C2.76357 5.39912 2.5013 5.70511 2.39202 5.79253C2.34831 5.83625 2.30459 5.83625 2.30459 5.83625C2.30459 5.83625 2.28274 5.94552 2.21717 6.03295C2.19531 6.05481 2.02047 6.16409 2.02047 6.16409C1.78005 6.4045 0.730957 7.71587 0.730957 8.21856C0.730957 8.67753 1.03694 9.33322 1.14622 9.42064C1.53963 9.77034 2.23903 10.0326 3.0477 10.0326C3.61596 10.0326 4.1405 9.81405 4.2935 9.72663C4.33721 9.70477 4.35907 9.70477 4.35907 9.74848C4.35907 9.79219 4.33721 9.85776 4.33721 9.92333C4.33721 9.9889 4.31535 10.2512 4.31535 10.4479C4.31535 10.7757 4.40278 10.9506 4.4902 11.038C4.53391 11.0817 4.81804 11.1473 4.99289 11.1473C5.08032 11.1473 5.36444 11.0161 5.36444 10.7102C5.36444 10.5353 5.34259 10.3167 5.34259 10.2512C5.43001 8.83053 5.86713 8.43712 5.86713 8.17484Z" fill="#66CC00"/>
<path d="M40.7057 5.72697C40.6183 5.37727 40.356 5.04943 40.1156 5.00571C39.897 5.04943 38.1923 5.37727 37.0776 5.53026C36.9246 5.55212 36.7279 5.55212 36.7279 5.55212L36.5968 5.61769C36.5968 5.61769 36.3782 5.63954 36.2689 5.70511C36.1159 5.81439 35.9192 6.0111 35.8755 6.33894L35.8974 6.62307C35.5477 7.32246 35.3073 7.86886 35.3073 8.61197C35.3073 8.63382 35.3073 8.63382 35.3073 8.65568C35.3073 8.72125 35.3073 8.7431 35.2854 8.72125C35.2635 8.69939 35.2417 8.65568 35.2198 8.63382C35.0887 8.48083 35.045 8.45898 34.9794 8.45898C34.8046 8.45898 34.6516 8.80867 34.0396 8.80867C33.4714 8.80867 32.4441 8.21856 32.4441 7.91257C32.4441 7.23504 33.3402 6.40451 33.9959 6.40451C34.1052 6.40451 34.1489 6.44822 34.1489 6.51379C34.1489 6.64492 34.0396 6.86348 34.0396 6.99462C34.0396 7.32246 34.5204 7.54102 34.7827 7.54102C34.8483 7.54102 35.3728 7.34432 35.3728 6.60121C35.3728 6.16409 35.045 5.42098 34.5204 5.42098C33.8429 5.42098 32.8594 5.77068 32.1818 6.25151C32.1818 6.25151 32.1381 6.33894 32.0944 6.38265C32.0507 6.42636 31.8759 6.5575 31.8759 6.5575C31.7229 6.7542 31.5917 7.03833 31.548 7.12575C31.5262 7.14761 31.5262 7.19132 31.5043 7.23503C31.4824 7.32246 31.4387 7.34432 31.4169 7.3006C31.4169 7.25689 31.4169 7.21318 31.395 7.14761C31.3732 6.86348 31.3513 6.68863 31.3076 6.47007C31.3076 6.47007 31.242 6.27337 31.2202 6.18594C31.2202 6.16409 31.2202 6.05481 31.2202 6.05481C31.0672 5.46469 30.6956 5.07128 30.6519 5.04943C30.4115 4.962 30.3459 4.94015 30.2367 5.00571C29.8214 5.26799 29.3406 6.07666 28.5974 7.45359C28.5974 7.45359 28.4663 7.58473 28.3133 7.69401C28.3352 7.91257 28.3133 8.02185 28.2915 8.08742C28.1385 8.56826 27.7013 9.15837 27.7232 9.28951L27.7451 9.4425L27.7232 9.61735C27.7232 9.72663 28.0729 10.12 28.357 10.12C28.3789 10.12 28.4007 10.12 28.4226 10.12C28.7067 9.85777 28.7942 9.37693 29.0564 8.96167C29.0783 8.91795 29.1001 8.91795 29.1657 8.87424C29.3406 8.80867 29.6684 8.76496 29.7995 8.74311C29.9307 8.72125 30.0837 8.76496 30.0837 8.76496L30.2148 8.72125C30.3241 8.72125 30.3896 8.74311 30.3896 8.85239C30.3896 9.31136 30.3896 9.70477 30.4334 9.83591C30.4771 10.0545 30.6956 10.2075 31.1109 10.2512C31.1546 10.2512 31.3295 10.1419 31.3732 9.9889C31.4606 9.74848 31.395 9.4425 31.395 9.18023C31.395 8.78682 31.4169 8.56825 31.4169 8.43712C31.4169 8.39341 31.4606 8.37155 31.4606 8.41526C31.5043 8.52454 31.5699 8.67754 31.6573 8.78682C32.1818 9.39879 33.0342 10.12 34.2582 10.1856C34.739 10.2075 35.1106 9.96704 35.2854 9.48621C35.3291 9.37693 35.351 9.28951 35.3728 9.2458C35.3728 9.22394 35.3947 9.24579 35.4165 9.26765C35.4384 9.31136 35.4821 9.37693 35.5477 9.46436C35.9629 9.9889 36.5531 10.1637 37.318 10.0326C38.1486 9.90148 38.2578 9.81405 38.3453 9.72663C38.4545 9.57364 38.4982 9.35507 38.5201 9.15837C38.542 9.02723 38.542 8.87424 38.4327 8.74311C38.3015 8.61197 37.9081 8.7431 37.3836 8.83053C36.6842 8.93981 36.4001 8.65568 36.4001 8.56826C36.4001 8.52454 36.4219 8.39341 36.5093 8.39341C36.5749 8.37155 36.7279 8.39341 36.7935 8.41526C36.8153 8.41526 37.2087 8.3497 37.4929 8.3497C37.6021 8.3497 37.7333 8.37155 37.777 8.37155C37.777 8.37155 38.236 8.32784 38.5201 8.28413C38.695 8.24041 38.8479 8.10928 38.8479 8.02185C38.8917 7.75958 38.8479 7.58473 38.8042 7.49731C38.6075 7.1039 38.389 7.06019 38.3234 7.06019C38.083 7.1039 37.6021 7.25689 36.9465 7.21318C36.859 7.21318 36.8153 7.12576 36.8153 7.06019C36.8372 6.88534 37.0339 6.62306 37.2525 6.57935C37.777 6.47007 39.3288 6.31708 39.897 6.29523C40.2467 6.27337 40.6401 6.38265 40.7057 6.27337C40.7494 6.12038 40.7276 5.81439 40.7057 5.72697ZM30.4115 7.34431C30.3678 7.43174 30.1274 7.49731 29.6902 7.49731C29.6684 7.49731 29.6465 7.4536 29.6684 7.43174C29.8432 7.01648 30.1711 6.29523 30.2148 6.29523C30.2585 6.29523 30.3241 6.31708 30.3678 6.36079C30.4771 6.47007 30.4771 7.23503 30.4115 7.34431Z" fill="#66CC00"/>
</g>
</g>
<defs>
<clipPath id="clip0_776_145">
<rect width="40" height="16" fill="white" transform="translate(0.730957)"/>
</clipPath>
<clipPath id="clip1_776_145">
<rect width="40" height="6.29455" fill="white" transform="translate(0.730957 4.85272)"/>
</clipPath>
</defs>
</svg>
