<svg width="26" height="16" viewBox="0 0 26 16" fill="none" xmlns="http://www.w3.org/2000/svg">
<g clip-path="url(#clip0_879_4013)">
<path d="M12.8108 0C6.2384 0.000596265 0.685547 3.68285 0.685547 8.04149C0.685547 12.5787 5.89858 16 12.8108 16C16.845 16 20.6698 14.5826 23.0425 12.2087C24.3485 10.9023 25.0667 9.42185 25.0653 8.04149C25.0636 5.89239 23.799 3.87398 21.5045 2.3573C19.204 0.836939 16.1169 0 12.8108 0Z" fill="#FFB612"/>
<path d="M4.33138 13.3708C2.22267 11.9649 1.06104 10.0716 1.06104 8.04149C1.06104 3.9581 6.55171 0.375908 12.8108 0.375366C19.3575 0.375095 24.6861 3.81408 24.6901 8.04149C24.6913 9.32226 24.0119 10.7077 22.7769 11.9434C20.4733 14.2483 16.7478 15.6246 12.8109 15.6246C9.52165 15.6246 6.51008 14.8239 4.33149 13.3708" fill="#203731"/>
<path d="M18.0709 5.93543C17.1269 4.52998 15.0601 3.55531 12.6264 3.55531C9.28614 3.55531 6.57764 5.39202 6.57764 7.6575C6.57764 9.92265 8.48948 11.9117 12.6264 11.9095C15.1107 11.9083 17.1081 10.8358 18.0411 9.42694L10.9848 9.43919L10.9631 7.60676L23.212 7.60248C23.2285 7.74938 23.2456 7.89259 23.2456 8.04149C23.2456 11.5686 18.5736 14.4277 12.8108 14.4277C7.0482 14.4277 2.37646 11.5686 2.37646 8.04149C2.37646 4.51437 7.32551 1.5472 12.8108 1.52578C17.3763 1.50838 21.2573 3.39415 22.6727 5.93261L18.0709 5.93543Z" fill="#FFFFFE"/>
</g>
<defs>
<clipPath id="clip0_879_4013">
<rect width="24.3798" height="16" fill="white" transform="translate(0.685547)"/>
</clipPath>
</defs>
</svg>
