<svg width="40" height="16" viewBox="0 0 40 16" fill="none" xmlns="http://www.w3.org/2000/svg">
<g clip-path="url(#clip0_843_2466)">
<path fill-rule="evenodd" clip-rule="evenodd" d="M11.7443 15.9227H7.47569V9.83472H4.70478V15.9227H0.304688V0.231873H4.70478V6.06872H7.47569V0.231873H11.7443V15.9227Z" fill="black"/>
<path fill-rule="evenodd" clip-rule="evenodd" d="M31.3003 11.1017C33.0324 11.1017 34.4367 9.69881 34.4367 7.96777C34.4367 6.23719 33.0324 4.83406 31.3003 4.83406C29.568 4.83406 28.1639 6.23719 28.1639 7.96777C28.1639 9.69881 29.568 11.1017 31.3003 11.1017ZM27.3107 7.96777C27.3107 5.76629 29.0968 3.98142 31.3003 3.98142C33.5038 3.98142 35.2902 5.76629 35.2902 7.96777C35.2902 10.1696 33.5038 11.9544 31.3003 11.9544C29.0968 11.9544 27.3107 10.1696 27.3107 7.96777ZM21.7552 7.96777C22.2489 7.9053 23.0718 7.34132 23.3617 6.98132C23.2598 7.42769 23.252 8.71961 23.3711 9.16598C23.0403 8.65699 22.2568 8.03047 21.7552 7.96777ZM18.8869 3.74743C19.5139 3.74743 20.0077 4.36586 20.0077 5.07066C20.0077 5.77547 19.5139 6.39428 18.8869 6.39428H16.7319V3.74743H18.8869ZM18.8791 9.62786C19.506 9.62786 19.9998 10.2466 19.9998 10.9512C19.9998 11.656 19.506 12.2745 18.8791 12.2745H16.7241V9.62786H18.8791ZM31.2977 16C35.6888 15.9983 39.2622 12.3528 39.2612 7.96468C39.2604 3.48399 35.6888 0.00332082 31.2977 2.31931e-06C26.9117 -0.00315729 24.6706 3.22279 24.1169 4.52488C24.1221 2.57019 22.1939 0.262985 19.9385 0.260517H12.6719V15.922L19.4468 15.9233C22.1783 15.9233 24.122 13.5584 24.1253 11.5306C24.7488 12.8068 26.9117 16.0015 31.2977 16Z" fill="black"/>
<path fill-rule="evenodd" clip-rule="evenodd" d="M38.0958 1.12905V0.78401H38.3227C38.4387 0.78401 38.5624 0.809503 38.5624 0.947518C38.5624 1.11888 38.4362 1.12905 38.295 1.12905H38.0958ZM38.0958 1.27215H38.2874L38.5775 1.7552H38.7642L38.4514 1.26452C38.6128 1.24404 38.7364 1.15724 38.7364 0.957762C38.7364 0.738031 38.6078 0.640912 38.3479 0.640912H37.9292V1.7552H38.0958V1.27215ZM38.2977 2.16424C38.8172 2.16424 39.2612 1.7552 39.2612 1.19551C39.2612 0.640912 38.8172 0.231873 38.2977 0.231873C37.7728 0.231873 37.3289 0.640912 37.3289 1.19551C37.3289 1.7552 37.7728 2.16424 38.2977 2.16424ZM37.5206 1.19551C37.5206 0.738031 37.861 0.392916 38.2977 0.392916C38.729 0.392916 39.0695 0.738031 39.0695 1.19551C39.0695 1.6607 38.729 2.0032 38.2977 2.0032C37.861 2.0032 37.5206 1.6607 37.5206 1.19551Z" fill="black"/>
</g>
<defs>
<clipPath id="clip0_843_2466">
<rect width="38.9565" height="16" fill="white" transform="translate(0.304688)"/>
</clipPath>
</defs>
</svg>
