<svg width="17" height="16" viewBox="0 0 17 16" fill="none" xmlns="http://www.w3.org/2000/svg">
<g clip-path="url(#clip0_795_2607)">
<path d="M8.74072 16C13.1592 16 16.7407 12.4188 16.7407 8C16.7407 3.58124 13.1589 0 8.74072 0C4.32252 0 0.740723 3.58179 0.740723 8C0.740723 12.4182 4.32252 16 8.74072 16Z" fill="#005397"/>
<path d="M1.24609 7.99999C1.24609 12.1327 4.6083 15.4946 8.74071 15.4946C12.8731 15.4946 16.2359 12.133 16.2359 7.99999C16.2359 3.86703 12.8737 0.505371 8.74099 0.505371C4.6083 0.505371 1.24609 3.86758 1.24609 7.99999ZM1.46618 7.99999C1.46618 3.98868 4.72963 0.725233 8.74094 0.725233C12.7523 0.725233 16.016 3.98868 16.016 7.99999C16.016 12.0113 12.7523 15.2747 8.74094 15.2747C4.72963 15.2747 1.46618 12.0113 1.46618 7.99999Z" fill="white"/>
<path d="M3.79058 9.65739L3.78837 9.65683L3.52934 9.5898L4.2932 9.0549L4.1823 8.59283L3.06109 9.42346L3.05737 9.42263L2.00244 9.18042L2.10857 9.62097L3.07836 9.81021L3.08156 9.8287L2.20937 10.0384L2.30716 10.4491L4.50148 9.92083L4.40354 9.51035L3.79058 9.65739Z" fill="white"/>
<path d="M4.16637 8.49131L4.12913 8.07117L1.88135 8.27117L1.91884 8.69186L4.16637 8.49131Z" fill="white"/>
<path d="M4.12148 7.9724L4.22217 6.92772L3.8081 6.88661L3.74934 7.51116L3.21582 7.4582L3.27535 6.86096L2.8615 6.81985L2.8023 7.41682L2.33295 7.37075L2.39607 6.73323L1.98559 6.67337L1.87695 7.74923L4.12148 7.9724Z" fill="white"/>
<path d="M4.02643 6.28028L2.32767 5.59256L2.16943 5.98373L4.26146 6.83035L4.64298 5.89187L4.25677 5.73546L4.03415 6.28359L4.02643 6.28028Z" fill="white"/>
<path d="M4.94664 4.68772L4.58498 5.20689L4.14277 4.90454L4.48181 4.4091L4.13864 4.17434L3.79932 4.66951L3.40964 4.40275L3.77146 3.87503L3.44004 3.62427L2.82812 4.51558L4.68953 5.79034L5.29008 4.92275L4.94664 4.68772Z" fill="white"/>
<path d="M5.98799 4.30095L6.34087 4.00923L6.33109 3.99749C6.26123 4.01172 6.21661 3.97794 5.92933 3.64194C5.72329 3.40087 5.58125 3.26398 5.34817 3.39767L5.3423 3.40105L5.32915 3.38647L5.33288 3.38096C5.45466 3.19945 5.41981 3.00336 5.22284 2.76388C5.13395 2.65561 4.98977 2.52317 4.81216 2.50628C4.69589 2.49561 4.58105 2.53597 4.47153 2.62699L3.91064 3.09899L5.37856 4.83552L5.6856 4.56743L5.07368 3.83855L5.20915 3.7269C5.32595 3.63073 5.41963 3.68281 5.66531 3.97988C5.82656 4.17472 5.9142 4.26308 5.98799 4.30095ZM4.95687 3.46879L4.84558 3.56087L4.46407 3.09864L4.57304 3.00833C4.69749 2.90646 4.81482 2.93135 4.943 3.08637C5.12185 3.30415 4.99865 3.4341 4.95651 3.46877L4.95687 3.46879Z" fill="white"/>
<path d="M7.18471 3.72691C7.57174 3.55518 7.66471 3.25847 7.47094 2.82023C7.28997 2.41011 7.01174 2.40299 6.76623 2.39676C6.58009 2.39196 6.40427 2.38751 6.31894 2.19409C6.28019 2.10716 6.27148 2.03409 6.29299 1.97898C6.30978 1.93762 6.34282 1.90497 6.38436 1.88867C6.44659 1.86093 6.49814 1.86733 6.54668 1.90875C6.58881 1.94289 6.6297 2.00635 6.67556 2.10787L7.0466 1.9436L7.02882 1.90182C6.95344 1.73151 6.85371 1.61506 6.73246 1.55586C6.5954 1.48884 6.43114 1.49666 6.24463 1.57915C5.76463 1.79053 5.86046 2.20139 5.96019 2.42627C6.1529 2.86219 6.43235 2.8677 6.67875 2.87215C6.86222 2.87552 7.03572 2.87855 7.12319 3.07712C7.15182 3.14183 7.17937 3.23552 7.14862 3.31481C7.12997 3.36106 7.09304 3.39754 7.04657 3.41561C6.97955 3.44548 6.91822 3.43908 6.86435 3.39677C6.8199 3.36121 6.77902 3.3013 6.7399 3.21223L6.7111 3.14752L6.33919 3.31072L6.39448 3.4373C6.5543 3.79586 6.81243 3.89063 7.18471 3.72691Z" fill="white"/>
<path d="M8.40822 1.09084L8.3776 2.88L8.35857 2.88331L8.35663 2.87586L7.94505 1.14151L7.49512 1.20996L8.14753 3.40827L8.68905 3.34814L8.85319 1.07751L8.40822 1.09084Z" fill="white"/>
<path d="M9.77268 3.48662L10.0154 2.56676L10.3696 2.66276L10.1076 3.58152L10.5103 3.7098L11.1244 1.53084L10.7167 1.40693L10.4825 2.24213L10.1277 2.14704L10.1296 2.13884L10.3432 1.312L9.93186 1.216L9.36523 3.39476L9.77268 3.48662Z" fill="white"/>
<path d="M12.1995 2.02153C11.9661 1.88624 11.7684 1.88749 11.5773 2.02526C11.3862 2.16304 11.2104 2.43771 11.0516 2.71219C10.6619 3.38543 10.5505 3.77726 11.0233 4.05139C11.5414 4.35075 11.8377 3.93494 12.1713 3.36055C12.3202 3.10366 12.4685 2.83343 12.5026 2.60055C12.5403 2.34668 12.4438 2.16305 12.1995 2.02153ZM11.7926 3.14153C11.5275 3.59913 11.4015 3.78153 11.2755 3.78153C11.2459 3.78069 11.2171 3.77197 11.1921 3.75629C11.0376 3.66651 11.1121 3.48126 11.4303 2.93212C11.7485 2.38296 11.8724 2.22564 12.0267 2.31524C12.0633 2.33377 12.0905 2.36669 12.1018 2.40608C12.1334 2.52324 12.0319 2.72752 11.7926 3.14101L11.7926 3.14153Z" fill="white"/>
<path d="M13.4256 2.98675L13.1194 2.69724L11.5693 4.33627L12.3208 5.03806L12.6071 4.73572L12.1613 4.32386L12.1674 4.31779L13.4256 2.98675Z" fill="white"/>
<path d="M14.683 4.80635C14.7296 4.66093 14.6982 4.49968 14.5897 4.32635C14.4914 4.16991 14.3703 4.07427 14.2299 4.04191C14.0757 4.00636 13.896 4.05009 13.711 4.16636C13.3058 4.42058 13.3412 4.69792 13.3723 4.94252C13.3965 5.13239 13.4173 5.29629 13.2336 5.41149C13.1495 5.46482 13.0674 5.48615 13.0025 5.4714C12.9539 5.45963 12.9123 5.42838 12.8875 5.385C12.7929 5.23371 12.9317 5.12207 13.0444 5.05112L13.1051 5.01308L12.8887 4.6698L12.7721 4.74304C12.4404 4.95157 12.384 5.22072 12.5998 5.5658C12.8247 5.92332 13.1315 5.97308 13.5383 5.71815C13.9179 5.47975 13.8848 5.20348 13.8556 4.95976C13.8334 4.77487 13.8124 4.60011 13.992 4.48775C14.0722 4.43673 14.1426 4.41771 14.2007 4.43051C14.2441 4.44106 14.2812 4.46895 14.3035 4.50767C14.3399 4.56651 14.3408 4.61842 14.3067 4.67158C14.2786 4.71869 14.2219 4.76882 14.1289 4.8282L14.3442 5.17328L14.3827 5.14892C14.5408 5.05025 14.642 4.93488 14.683 4.80635Z" fill="white"/>
<path d="M14.8807 6.04966L15.0089 6.41987L15.4026 6.28442L15.0089 5.14539L14.6158 5.28056L14.743 5.65104L14.7353 5.6538L13.0034 6.25187L13.1411 6.65049L14.8807 6.04966Z" fill="white"/>
<path d="M15.1113 7.13518L15.1122 7.14345L15.1696 7.77214L15.585 7.75421L15.4879 6.67725L13.2407 6.88083L13.3378 7.9429L13.753 7.90538L13.6931 7.26318L13.7017 7.26263L14.2261 7.21463L14.2269 7.2229L14.2815 7.81325L14.6951 7.77545L14.6415 7.17766L15.1113 7.13518Z" fill="white"/>
<path d="M15.5644 8.67337L15.6011 8.25406L13.3534 8.0571L13.3164 8.47806L15.5644 8.67337Z" fill="white"/>
<path d="M3.9762 10.7763C3.93025 10.6977 3.85466 10.6409 3.76642 10.6186C3.73798 10.6112 3.70871 10.6074 3.67931 10.6074C3.5225 10.608 3.38566 10.7139 3.3458 10.8655C3.31022 11.001 3.36014 11.1445 3.4721 11.2286C3.58406 11.3128 3.7358 11.3208 3.85602 11.249C4.01963 11.1516 4.07343 10.9399 3.9762 10.7763Z" fill="white"/>
<path d="M13.9934 10.6648C13.9401 10.6326 13.879 10.6156 13.8167 10.6156C13.7878 10.6156 13.7591 10.6192 13.7312 10.6262C13.5961 10.6603 13.4948 10.7724 13.4744 10.9102C13.454 11.048 13.5186 11.1845 13.638 11.2563C13.8017 11.3539 14.0136 11.3011 14.1123 11.1381C14.1593 11.0596 14.1732 10.9656 14.1509 10.8769C14.1285 10.7882 14.0719 10.7118 13.9934 10.6648Z" fill="white"/>
<path d="M9.05231 3.0367C9.02977 3.02185 9.00339 3.01388 8.9764 3.01377C8.96439 3.0137 8.95243 3.01525 8.94084 3.01839C8.89804 3.03064 8.86256 3.06068 8.84342 3.10088C8.80146 3.18568 8.82706 3.29377 8.90049 3.34177C8.93295 3.3636 8.97324 3.3704 9.01106 3.36043C9.05408 3.34818 9.08984 3.31818 9.10938 3.27795C9.15222 3.19261 9.12645 3.08435 9.05231 3.0367Z" fill="white"/>
<path d="M7.89784 3.16221C7.87561 3.14724 7.84944 3.13919 7.82264 3.1391C7.81112 3.13909 7.79964 3.14058 7.78851 3.14354C7.74543 3.15603 7.70957 3.18602 7.68966 3.22621C7.64771 3.31083 7.67313 3.41892 7.74637 3.46746C7.77923 3.48935 7.81999 3.49584 7.85802 3.48523C7.90051 3.47282 7.93569 3.44288 7.95473 3.40292C7.9974 3.31848 7.97197 3.21039 7.89784 3.16221Z" fill="white"/>
<path d="M4.19056 12.4607L4.17622 12.448L4.18091 12.4417L5.24932 11.0378L4.92656 10.7211L3.63525 12.6163L4.02394 12.9978L5.9045 11.6817L5.58201 11.3644L4.19056 12.4607Z" fill="white"/>
<path d="M6.41658 11.9495C5.9483 11.6674 5.65853 11.9541 5.25674 12.6206C5.09283 12.8923 4.93674 13.1762 4.9083 13.4126C4.87968 13.6462 4.9739 13.8197 5.20502 13.9591C5.44733 14.1049 5.65514 14.1004 5.85925 13.9456C6.04663 13.8034 6.20538 13.5534 6.36502 13.2878C6.70778 12.7186 6.9293 12.2583 6.41658 11.9495ZM6.29462 12.4889C6.25178 12.6174 6.14635 12.8035 5.99026 13.0622C5.83417 13.3209 5.71844 13.5015 5.62546 13.6C5.56573 13.6625 5.51364 13.6928 5.46208 13.6928C5.43258 13.692 5.40385 13.6832 5.37906 13.6672C5.34402 13.6487 5.31825 13.6165 5.30795 13.5783C5.27862 13.4606 5.38386 13.2583 5.63079 12.8471C5.95879 12.3029 6.08519 12.148 6.23843 12.24C6.32003 12.288 6.33676 12.3627 6.29462 12.4889Z" fill="white"/>
<path d="M7.80037 12.5443L7.42713 13.9636L7.40754 13.9597L7.40782 13.9528L7.43237 12.4427L6.97334 12.3098L6.35596 14.4888L6.75182 14.5928L7.14768 13.0778L7.16699 13.0816L7.14244 14.6946L7.60754 14.8163L8.17775 12.6331L7.80037 12.5443Z" fill="white"/>
<path d="M15.359 9.69739L15.4826 9.23284L13.3019 8.65381L13.2112 9.03064L14.6288 9.40967L14.6247 9.42926H14.6178L13.1085 9.39836L12.9736 9.85684L15.1499 10.4828L15.2556 10.0875L13.7422 9.68553L13.7458 9.66622L15.359 9.69739Z" fill="white"/>
<path d="M8.66488 12.9956L8.61865 12.9982L8.6343 13.3182L8.98878 13.3005L9.06469 14.8622L9.48621 14.8416L9.37776 12.6069L9.08444 12.6217C9.06062 12.8542 8.91519 12.9835 8.66488 12.9956Z" fill="white"/>
<path d="M10.5578 14.68C11.1341 14.544 11.0733 14.0962 10.9025 13.3749C10.7974 12.9246 10.6915 12.6203 10.4883 12.4942C10.3772 12.4254 10.2394 12.4115 10.0669 12.4523C9.8481 12.5035 9.71351 12.6151 9.65558 12.7932C9.60812 12.9397 9.61327 13.131 9.67176 13.3799C9.72776 13.6195 9.80438 13.7815 9.90554 13.8748C9.99905 13.9611 10.1128 13.9868 10.2536 13.9539C10.4085 13.9184 10.4991 13.8295 10.523 13.6935L10.524 13.6882L10.5418 13.683L10.5438 13.6917C10.6309 14.0628 10.644 14.2228 10.5941 14.3029C10.573 14.3351 10.5395 14.3571 10.5016 14.3637C10.4535 14.3766 10.4024 14.3582 10.3736 14.3175C10.3471 14.2842 10.3267 14.2348 10.311 14.1669L9.91496 14.2595C10.0074 14.6169 10.2236 14.7588 10.5578 14.68ZM10.4652 13.4699C10.4485 13.5007 10.4199 13.5232 10.3861 13.5323C10.3696 13.5374 10.3525 13.5401 10.3352 13.5403C10.2906 13.5403 10.2536 13.5191 10.2211 13.4754C10.1827 13.424 10.1487 13.3419 10.1041 13.1924C10.0252 12.9237 10.0401 12.7945 10.1539 12.7604C10.2975 12.7181 10.3768 12.914 10.4417 13.1317C10.4933 13.301 10.5007 13.4054 10.4652 13.4699Z" fill="white"/>
<path d="M11.151 13.2624C11.3572 13.6513 11.5483 13.9793 11.8002 14.0563C11.9233 14.094 12.0591 14.0716 12.2155 13.988C12.7019 13.7296 12.5 13.2512 12.2095 12.6988C11.9567 12.2241 11.7496 11.889 11.4365 11.889C11.3476 11.889 11.2518 11.9157 11.1434 11.9733C10.6577 12.2313 10.8594 12.7102 11.151 13.2624ZM11.2461 12.318C11.2567 12.2863 11.2801 12.2605 11.3106 12.2469C11.3837 12.2094 11.445 12.2343 11.5222 12.3329C11.6015 12.4344 11.7 12.6174 11.8447 12.899C11.9869 13.1779 12.0758 13.3635 12.1113 13.4867C12.1458 13.6069 12.1302 13.6709 12.058 13.708C12.0391 13.7184 12.0179 13.7241 11.9963 13.7246C11.884 13.7246 11.7753 13.5468 11.5277 13.0613C11.3008 12.6209 11.2129 12.4202 11.2461 12.318Z" fill="white"/>
<path d="M12.6349 11.1048C12.5735 11.0775 12.5073 11.0629 12.4402 11.062C12.3124 11.062 12.1902 11.121 12.0659 11.2412C11.669 11.6236 11.9948 12.0279 12.4275 12.4785C12.7328 12.7949 13.0069 13.0575 13.2707 13.0621H13.278C13.4041 13.0621 13.5269 13.0033 13.6514 12.8822C14.0464 12.5002 13.7214 12.0958 13.2898 11.6447C13.0259 11.3713 12.8242 11.1857 12.6349 11.1048ZM13.4221 12.6577C13.3996 12.681 13.3689 12.6945 13.3365 12.6956C13.2309 12.6956 13.0765 12.5484 12.7337 12.1818C12.3959 11.8199 12.2551 11.6513 12.2589 11.5443C12.2605 11.511 12.276 11.48 12.3015 11.4586C12.3618 11.4024 12.4277 11.4095 12.5289 11.483C12.6331 11.5589 12.7778 11.7075 12.994 11.9388C13.434 12.4088 13.536 12.5511 13.4221 12.6577Z" fill="white"/>
<path d="M8.74085 3.90759C6.48433 3.90759 4.64844 5.74351 4.64844 8.00028C4.64844 10.257 6.48416 12.0921 8.74085 12.0921C10.9975 12.0921 12.8333 10.2566 12.8333 8.00001C12.8333 5.74343 10.9975 3.90759 8.74085 3.90759ZM8.74085 4.13461C9.8667 4.13422 10.9365 4.62568 11.6697 5.48005L11.5031 5.46689C11.4891 5.46583 10.0946 5.35596 8.7409 5.35596C7.38721 5.35596 5.99262 5.46583 5.97869 5.46689L5.81211 5.48005C6.54527 4.62573 7.61495 4.13428 8.74085 4.13461ZM4.8752 7.99999C4.87438 7.09147 5.19506 6.21194 5.78044 5.51715L5.78204 5.7344C5.78933 6.82364 5.79519 7.68408 6.20408 8.8646C6.46186 9.6086 6.80355 10.1624 7.42292 10.8379C7.90292 11.3627 8.3054 11.6301 8.63484 11.8223L8.70701 11.8642C6.5911 11.8466 4.8752 10.1203 4.8752 7.99999ZM8.77451 11.8648L8.84739 11.8223C9.15211 11.6446 9.56508 11.372 10.0586 10.8387C10.6666 10.1809 11.02 9.60953 11.2783 8.86429C11.6872 7.68401 11.6927 6.82377 11.7002 5.73546L11.7016 5.51769C12.2867 6.2125 12.6071 7.09187 12.6061 8.00017C12.6061 10.1202 10.8907 11.8463 8.77451 11.8648Z" fill="white"/>
<path d="M8.74072 5.57407C7.37964 5.57407 5.99512 5.68429 5.99512 5.68429C6.00258 6.78865 6.00241 7.62901 6.40524 8.79188C6.66995 9.55632 7.02372 10.0832 7.57857 10.6895C8.04273 11.1962 8.43368 11.4539 8.74052 11.6333C9.0472 11.4545 9.43581 11.1938 9.90248 10.6895C10.4477 10.1002 10.8113 9.5556 11.0758 8.79188C11.4785 7.62903 11.4785 6.78868 11.4863 5.68429C11.4863 5.68429 10.1018 5.57407 8.74072 5.57407Z" fill="#E20031"/>
<path d="M8.74259 11.3319L8.06232 10.8149L8.54121 9.94732L7.32466 10.267L7.9688 9.39642L6.85983 9.54208L7.64411 8.72221L6.47887 8.6869L7.35032 8.00828L6.22314 7.80883L7.25542 7.22263L6.24052 6.78428L6.2317 5.90814L7.06701 5.85518L7.4899 6.99918L7.91694 5.81573L8.32549 6.94483L8.74425 5.7818L9.16273 6.94483L9.57101 5.81573L9.99804 6.99918L10.4209 5.85518L11.2565 5.90814L11.2427 6.78428L10.2325 7.22263L11.2648 7.80883L10.1379 8.00828L11.0091 8.6869L9.84411 8.72221L10.6281 9.54208L9.51914 9.39642L10.1633 10.267L8.94673 9.94732L9.4259 10.8149L8.74259 11.3319Z" fill="white"/>
<path d="M10.081 7.29819L9.90326 7.29908C9.90326 7.37215 9.8766 7.43401 9.84335 7.49464C9.75766 7.60895 9.63286 7.70317 9.51963 7.74246V7.53571H9.3774L9.37883 7.81446C9.30505 7.83757 9.2318 7.86318 9.15554 7.88238V8.04878C9.46715 7.97476 9.75212 7.81581 9.97882 7.58958C9.89935 8.28806 9.39785 8.81465 8.74238 8.81821C8.08726 8.81465 7.5925 8.27973 7.50646 7.59013C7.73182 7.81491 8.01477 7.97324 8.32423 8.04773V7.88239L8.09312 7.81235C8.09312 7.81235 8.08885 7.54106 8.09205 7.53572H7.95089V7.74656C7.77792 7.66887 7.57597 7.50354 7.56513 7.29288H7.38735C7.35055 7.93288 7.64477 8.57039 8.23767 8.83848C8.5943 9.01145 9.0983 8.95652 9.4215 8.74212C9.91254 8.40524 10.1194 7.88095 10.081 7.29819Z" fill="#58585A"/>
<path d="M8.74173 8.40498C9.09249 8.40511 9.43555 8.30211 9.72821 8.10881C9.77543 8.01981 9.81298 7.926 9.84021 7.82898C9.19089 8.31684 8.29762 8.31808 7.64697 7.832C7.67546 7.92996 7.71432 8.0246 7.76288 8.11432C8.05403 8.3042 8.39415 8.40517 8.74173 8.40498Z" fill="#58585A"/>
<path d="M8.74176 8.5131C8.44041 8.51314 8.14394 8.43701 7.87988 8.29177C8.09037 8.56146 8.39544 8.72485 8.74176 8.7268C9.09552 8.72485 9.40452 8.55898 9.61448 8.28537C9.34784 8.43467 9.04736 8.51308 8.74176 8.5131Z" fill="#58585A"/>
<path d="M8.74203 8.09765C8.83952 8.09715 8.93679 8.08864 9.03288 8.07223V7.89676C8.83715 7.92147 8.63908 7.92147 8.44336 7.89676V8.07205C8.54202 8.08896 8.64193 8.09752 8.74203 8.09765Z" fill="#58585A"/>
</g>
<defs>
<clipPath id="clip0_795_2607">
<rect width="16" height="16" fill="white" transform="translate(0.740723)"/>
</clipPath>
</defs>
</svg>
