<svg width="120" height="64" viewBox="0 0 120 64" fill="none" xmlns="http://www.w3.org/2000/svg">
<g clip-path="url(#clip0_769_1250)">
<path fill-rule="evenodd" clip-rule="evenodd" d="M108.217 17.1494C103.372 15.2577 97.9562 14.5344 92.7727 14.6047C87.8546 14.6707 82.9477 15.374 78.1077 16.1972C72.6053 17.1334 67.144 18.2951 61.6925 19.4874C52.2035 21.5626 42.654 23.953 32.9453 24.758C29.9583 25.0057 26.9301 25.112 23.9996 24.372C21.1165 23.6444 18.5428 22.104 16.2808 20.211C16.2954 20.9504 16.4118 21.6976 16.5985 22.4122C16.9641 23.8104 17.7814 24.9827 18.6599 26.1123C16.6986 26.2649 14.7244 26.3721 12.7602 26.2141C10.924 26.0666 9.1012 25.6524 7.36206 25.052C5.77711 24.5055 4.15049 23.8558 2.81313 22.8424C1.88727 22.1406 0.84129 21.1669 0 20.3879C0 22.2332 0.964777 24.1928 1.9983 25.7293C3.42021 27.9247 5.22172 29.9466 7.2267 31.6518C9.10942 33.2532 11.2078 34.4818 13.5933 35.2182C16.1531 36.0083 18.8637 36.2409 21.5307 36.0629C22.9758 35.9662 24.4129 35.7522 25.8258 35.4355C26.9837 35.176 28.1106 34.8275 29.2661 34.5498C29.6915 34.4479 30.1232 34.328 30.5511 34.4797C31.0675 34.6631 31.1119 35.1851 31.0508 35.6589C30.902 36.8158 30.2123 37.9964 29.2772 38.7011C28.4029 39.3602 27.3599 39.4248 26.4288 38.8344C25.601 38.3091 24.8496 37.7726 23.8618 37.5812C22.6191 37.3406 21.2449 37.4774 19.9962 37.6021C18.5808 37.7436 17.1705 37.9801 15.7442 37.9801C13.7961 37.9801 12.0074 37.5122 10.2013 36.8346C8.91628 36.3532 7.5336 35.7198 6.28535 35.1506C7.95728 38.913 11.688 41.5792 15.1521 43.5964C19.6867 46.2371 24.7344 47.9214 29.9062 48.7834C35.1024 49.6495 40.3695 49.5284 45.5845 48.8824C50.9604 48.2166 56.2554 47.0098 61.4164 45.3763C65.9835 43.9307 70.4336 42.1555 74.8351 40.2744C79.539 38.2645 84.1874 36.135 89.0069 34.4044C92.827 33.0327 96.7645 31.8108 100.8 31.2682C104.765 30.7347 109.523 30.6796 112.74 33.4279C114.214 34.6855 115.067 36.471 115.154 38.4024C115.245 39.4862 115.252 40.621 115.116 41.7023C115.028 42.3967 114.963 43.1376 114.735 43.8031C119.659 39.4464 121.512 32.0736 118.64 26.0318C117.191 22.9829 113.95 19.3336 108.217 17.1494Z" fill="white"/>
<path fill-rule="evenodd" clip-rule="evenodd" d="M96.6914 15.8727C86.5451 14.9071 69.1074 19.0296 54.7165 22.1778C43.1815 24.7014 33.8029 26.2901 27.5066 26.0512C23.9754 25.8132 20.5029 24.8062 17.7219 22.5433C18.1605 23.6311 20.2997 26.6961 21.2125 27.0343C17.5312 27.3355 13.7457 27.7591 10.0977 26.9683C7.18453 26.3494 3.96506 25.2912 1.66351 23.1621C3.43948 26.4545 6.15466 29.4976 9.14845 31.7399C14.5016 35.7501 21.9454 35.622 28.0641 33.6567C28.177 33.6207 29.4204 33.261 30.0706 33.261C31.6438 33.3167 32.7892 34.4101 31.8886 36.9545C31.1357 38.8683 29.5977 40.3628 27.8229 40.3903C25.467 40.3903 25.306 38.5287 22.6127 38.6158C17.8987 38.4916 14.8729 40.5626 8.54683 37.0448C9.83006 38.3112 17.2587 46.4164 33.1699 48.0858C37.2247 48.5084 41.7748 48.1601 43.8941 47.9388C57.6905 46.4956 68.4496 41.8234 77.9427 37.7008C85.9958 34.0903 95.6578 30.3311 102.888 29.9324C108.957 29.4455 113.669 31.3966 115.494 35.1527C116.311 36.8322 116.501 38.7512 116.091 40.7416C122.148 32.1335 119.476 17.5979 96.6914 15.8727Z" fill="#E8262B"/>
<path fill-rule="evenodd" clip-rule="evenodd" d="M9.59027 32.0705C9.60365 32.0808 9.60457 32.0816 9.59027 32.0705V32.0705Z" fill="#E8262B"/>
<path fill-rule="evenodd" clip-rule="evenodd" d="M52.9536 25.4453C56.1033 24.5894 58.7514 26.2604 59.7782 28.6181C59.9094 28.9096 60.0514 28.9729 60.1962 28.9741C60.4833 28.9772 62.376 28.642 63.0132 27.8627C63.0132 27.8627 63.654 30.2055 60.8817 31.6067C60.8817 31.6067 60.4911 31.7965 60.4886 32.21C60.4862 32.604 60.2795 34.6107 60.1718 35.1642C60.1239 35.4113 59.9197 35.9406 60.4072 35.9608C60.8111 35.9771 62.0118 35.6834 62.7628 33.6264C62.7867 33.4982 62.7689 33.6349 62.7689 33.6349C62.213 38.1713 59.3891 41.5484 56.5587 42.4583C54.5805 43.0941 54.8444 41.7995 55.1863 41.004C56.3638 37.9486 56.3896 36.4422 56.5639 34.5011C56.7457 32.4778 56.2589 26.4935 52.9536 25.4453ZM50.6813 29.4925C49.8193 29.6784 49.3196 31.9525 49.2201 35.1769C49.1212 38.4053 49.3584 41.2707 50.5268 41.0289C51.6926 40.7764 51.7878 37.778 51.8671 34.5521C51.9562 31.3279 51.5007 29.3096 50.6813 29.4925ZM55.3355 33.736C55.2013 38.5428 53.9153 43.135 50.3874 43.9053C47.1004 44.4471 45.3515 39.2638 45.7865 35.7422C45.9993 30.8716 47.8086 27.4209 50.6396 26.6455C53.3259 25.9186 55.4559 28.9602 55.3355 33.736Z" fill="#F7EB1E"/>
<path fill-rule="evenodd" clip-rule="evenodd" d="M49.6613 24.9313C46.9114 26.6743 44.857 31.0781 44.6098 35.6923C44.5598 36.63 44.1431 43.3224 49.1026 45.5459C45.8574 46.0528 42.3234 46.4836 40.5876 46.5414C40.5876 46.5414 41.0918 44.9065 41.1975 42.1409C41.2846 39.858 40.9316 37.956 40.096 38.0784C39.4775 38.1699 38.7592 40.3329 38.7086 42.2345C38.6412 44.7457 39.1905 46.6023 39.1905 46.6023C37.2473 46.6529 33.7243 46.7103 29.2659 45.8421C29.8643 45.7476 34.8865 42.9248 35.5261 37.0439C36.2388 30.4941 30.4474 28.7843 27.8094 27.6886C31.5868 27.8061 34.2241 27.5844 39.7183 26.7742C39.7183 26.7742 39.0453 27.8315 39.0352 30.7893C39.0247 33.4936 39.6066 34.9265 40.1435 34.9187C40.7776 34.9096 41.3735 33.5063 41.4793 30.6339C41.5884 27.6859 41.083 26.5611 41.083 26.5611C43.6209 26.1097 45.3411 25.8789 49.6613 24.9313Z" fill="#F7EB1E"/>
<path fill-rule="evenodd" clip-rule="evenodd" d="M59.5576 22.8053C60.6459 23.0732 65.4558 24.6319 65.7551 31.288C66.0281 37.3836 63.5086 41.0465 62.7498 42.0042C62.7498 42.0042 64.4019 41.455 66.1163 40.7983C67.9785 40.0844 69.8216 39.3498 69.8216 39.3498C69.8216 39.3498 69.3024 37.9994 69.9387 35.6316C70.6288 33.0677 71.6158 32.3334 71.6158 32.3334C71.6158 32.3334 71.3788 33.3743 72.131 35.3253C72.8734 37.2526 73.73 37.7526 73.73 37.7526L76.5674 36.4844C76.5674 36.4844 75.6847 34.5577 77.0164 31.6586C78.1411 29.2088 79.5265 26.2308 78.3866 22.6439C77.7999 20.7958 77.0388 19.7331 76.6574 19.2814C76.2165 19.3558 72.6331 20.0355 71.8341 20.1939C72.7086 20.5512 74.5861 21.6714 74.9301 24.776C75.1671 26.9121 74.0704 28.7341 74.0704 28.7341C74.0704 28.7341 74.1791 27.7759 73.4045 26.6832C72.666 25.6416 71.9519 25.393 71.9519 25.393C71.9519 25.393 71.8809 26.8463 71.0224 28.4453C70.3602 29.6766 69.4989 30.3439 69.4989 30.3439C69.4989 30.3439 70.1926 27.6826 69.5029 24.9816C68.8653 22.485 67.5231 21.5137 66.951 21.203C65.7535 21.4552 60.6595 22.5634 59.5576 22.8053ZM84.7026 18.0194C84.9869 20.5203 84.5932 23.9488 83.6 24.1814C82.7862 24.3724 82.3275 20.559 82.9106 18.2604C81.8706 18.4118 78.8975 18.8853 77.5937 19.1091C82.1283 24.2465 79.9956 31.172 77.4242 36.1217C78.9453 35.4381 81.616 34.298 83.0949 33.6946C82.3898 31.1563 82.8612 27.6596 83.7568 27.3704C84.5379 27.1173 85.2732 31.251 84.5399 33.1161C85.8957 32.5335 87.7762 31.8802 89.7544 31.1987C87.2355 30.0851 85.0706 22.4359 89.9176 17.5159C88.781 17.5892 85.7553 17.8916 84.7026 18.0194Z" fill="#F7EB1E"/>
<path fill-rule="evenodd" clip-rule="evenodd" d="M111.874 29.2847C111.508 29.3456 111.076 29.3041 110.625 29.1643C109.915 28.9444 109.417 28.7389 108.81 28.5136L108.854 26.0948C109.148 26.7097 110.064 27.443 110.571 27.3746C110.707 27.3567 110.822 27.2541 110.848 27.1263C110.888 26.9247 110.776 26.6637 110.531 26.3942C110.286 26.1238 109.843 25.6782 109.466 25.2625C107.792 23.4147 108.497 22.1545 108.886 21.8212C109.441 21.3437 110.121 21.4524 110.401 21.5105C111.429 21.7228 112.235 22.5781 112.614 23.4243C112.834 23.9194 112.982 24.4604 112.893 25.0408C112.666 24.4525 111.192 22.8127 110.666 23.4655C110.313 23.9036 111.15 24.5352 112.016 25.2991C113.186 26.3297 113.33 27.0945 113.042 28.1869C112.881 28.8039 112.477 29.1836 111.874 29.2847Z" fill="#F7EB1E"/>
<path fill-rule="evenodd" clip-rule="evenodd" d="M91.1787 23.9546C91.1787 23.9546 91.1371 22.5228 91.7057 21.1561C92.2752 19.7897 93.1183 19.0419 93.6794 19.536C94.2166 20.0119 93.7911 20.9445 93.3313 21.5128C92.8719 22.0808 92.5857 22.3529 91.9935 22.8801C91.4023 23.4084 91.1787 23.9546 91.1787 23.9546ZM92.1903 25.0337C93.524 23.7887 95.0518 22.7002 95.6181 21.1077C96.1845 19.5136 96.1751 18.4263 95.0492 17.7257C93.9909 17.0681 92.0508 17.1087 90.2 19.2598C88.1767 21.6118 87.7932 25.6831 88.3731 27.6602C88.8716 29.359 89.8478 30.925 91.7171 30.5586C94.9959 29.9161 94.8809 25.2035 94.8809 25.2035C94.8809 25.2035 93.6573 27.3671 92.5483 27.4377C91.3835 27.5115 91.1051 26.047 92.1903 25.0337Z" fill="#F7EB1E"/>
<path fill-rule="evenodd" clip-rule="evenodd" d="M98.8041 21.0979C99.2586 19.9828 99.9398 19.37 100.399 19.7697C100.839 20.1545 100.499 20.9159 100.128 21.3801C99.7576 21.8445 99.5271 22.0677 99.0489 22.5C98.5708 22.933 98.3929 23.3787 98.3929 23.3787C98.3929 23.3787 98.35 22.213 98.8041 21.0979ZM99.5718 26.1499C98.4711 26.2377 98.3461 25.0827 99.2217 24.2519C100.299 23.2324 101.534 22.3393 101.984 21.0392C102.435 19.7385 102.42 18.8544 101.501 18.2888C100.637 17.7584 99.0416 17.8368 97.551 19.5971C95.9199 21.5212 95.5735 24.8798 96.0346 26.4942C96.4995 28.1222 97.3615 29.1746 99 28.7434C101.494 28.0861 102.151 24.3648 102.151 24.3648C102.151 24.3648 100.742 26.0567 99.5718 26.1499Z" fill="#F7EB1E"/>
<path fill-rule="evenodd" clip-rule="evenodd" d="M103.154 18.4993C103.948 21.2905 103.394 26.2508 101.625 28.3717C103.807 28.1592 105.837 28.1226 107.754 28.4268L107.864 24.5226C107.138 26.2956 103.124 28.5519 106.33 19.4182C105.543 19.1551 104.63 18.8302 103.154 18.4993Z" fill="#F7EB1E"/>
<path fill-rule="evenodd" clip-rule="evenodd" d="M114.17 30.0216C114.285 30.0216 114.328 30.0152 114.363 29.9894C114.397 29.964 114.418 29.921 114.418 29.8759C114.418 29.8136 114.385 29.7666 114.326 29.7469C114.294 29.7363 114.246 29.7321 114.147 29.7321H114.048V30.0216H114.17ZM114.177 29.6398C114.274 29.6398 114.319 29.6443 114.374 29.6613C114.468 29.6912 114.533 29.7772 114.533 29.8735C114.533 29.9743 114.464 30.0582 114.353 30.0903L114.539 30.4978H114.411L114.239 30.1118L114.23 30.1096H114.149H114.062L114.048 30.1118V30.4978H113.931V29.6398H114.177ZM113.548 30.0667C113.548 30.4336 113.844 30.7315 114.214 30.7315C114.581 30.7315 114.879 30.4336 114.879 30.0645C114.879 29.6934 114.59 29.4039 114.22 29.4039C113.833 29.4039 113.548 29.6849 113.548 30.0667ZM114.98 30.0688C114.98 30.4957 114.647 30.8239 114.214 30.8239C113.778 30.8239 113.447 30.4978 113.447 30.0688C113.447 29.6313 113.773 29.3119 114.218 29.3119C114.647 29.3119 114.98 29.6422 114.98 30.0688Z" fill="#F7EB1E"/>
</g>
<defs>
<clipPath id="clip0_769_1250">
<rect width="120" height="34.7999" fill="white" transform="translate(0 14.6)"/>
</clipPath>
</defs>
</svg>
