<svg width="41" height="16" viewBox="0 0 41 16" fill="none" xmlns="http://www.w3.org/2000/svg">
<g clip-path="url(#clip0_769_1250)">
<g clip-path="url(#clip1_769_1250)">
<path fill-rule="evenodd" clip-rule="evenodd" d="M36.8042 3.04982C35.1891 2.41925 33.3838 2.17814 31.6559 2.20156C30.0166 2.22356 28.3809 2.458 26.7676 2.73241C24.9335 3.04447 23.113 3.43171 21.2959 3.82914C18.1328 4.52087 14.9497 5.31766 11.7135 5.58602C10.7178 5.66857 9.7084 5.70399 8.73157 5.45734C7.77051 5.21482 6.91263 4.70132 6.15863 4.07035C6.1635 4.3168 6.2023 4.56588 6.26454 4.80406C6.3864 5.27012 6.65882 5.6609 6.95166 6.03744C6.29789 6.08831 5.63983 6.12404 4.98508 6.07135C4.37303 6.0222 3.76542 5.88414 3.18571 5.68401C2.65739 5.50185 2.11519 5.28526 1.6694 4.94747C1.36078 4.71353 1.01212 4.38897 0.731689 4.12929C0.731689 4.74441 1.05328 5.39759 1.39779 5.90978C1.87176 6.64157 2.47226 7.31553 3.14059 7.88393C3.76816 8.41773 4.46762 8.82726 5.26277 9.07272C6.11606 9.3361 7.01958 9.41364 7.90861 9.35431C8.3903 9.32206 8.86932 9.25072 9.34028 9.14516C9.72627 9.05868 10.1019 8.94251 10.4871 8.84994C10.6289 8.81595 10.7728 8.77599 10.9154 8.82657C11.0875 8.8877 11.1023 9.0617 11.082 9.21963C11.0324 9.60528 10.8025 9.9988 10.4908 10.2337C10.1993 10.4534 9.85166 10.4749 9.5413 10.2781C9.26534 10.103 9.0149 9.92422 8.68563 9.86042C8.2714 9.7802 7.81331 9.82579 7.3971 9.86738C6.92527 9.91453 6.45518 9.99335 5.97977 9.99335C5.3304 9.99335 4.73416 9.83739 4.13213 9.61154C3.70378 9.45105 3.24289 9.23993 2.8268 9.05022C3.38411 10.3043 4.6277 11.1931 5.78237 11.8655C7.29392 12.7457 8.9765 13.3071 10.7004 13.5945C12.4325 13.8832 14.1882 13.8428 15.9265 13.6275C17.7185 13.4055 19.4835 13.0033 21.2038 12.4588C22.7262 11.9769 24.2096 11.3852 25.6767 10.7581C27.2447 10.0882 28.7942 9.37832 30.4006 8.80145C31.674 8.34424 32.9865 7.93692 34.3318 7.75606C35.6534 7.57823 37.2392 7.55987 38.3118 8.47596C38.8031 8.89518 39.0874 9.49032 39.1165 10.1341C39.1468 10.4954 39.1492 10.8737 39.1038 11.2341C39.0745 11.4656 39.0527 11.7125 38.9766 11.9344C40.6182 10.4821 41.2357 8.02454 40.2784 6.0106C39.7954 4.9943 38.7152 3.77787 36.8042 3.04982Z" fill="white"/>
<path fill-rule="evenodd" clip-rule="evenodd" d="M32.9626 2.62424C29.5805 2.30239 23.7679 3.67656 18.971 4.72596C15.126 5.56716 11.9998 6.0967 9.90098 6.01707C8.72393 5.93775 7.56642 5.60207 6.63941 4.84778C6.78563 5.21039 7.49868 6.23204 7.80295 6.34477C6.57584 6.44519 5.31403 6.58638 4.09802 6.32277C3.12696 6.11648 2.0538 5.76375 1.28662 5.05406C1.87861 6.1515 2.78367 7.16588 3.7816 7.91331C5.56597 9.25003 8.04724 9.20734 10.0868 8.55223C10.1245 8.54023 10.5389 8.42034 10.7557 8.42034C11.28 8.4389 11.6619 8.80337 11.3616 9.65151C11.1107 10.2894 10.598 10.7876 10.0064 10.7968C9.2211 10.7968 9.16745 10.1762 8.26967 10.2053C6.69834 10.1639 5.68976 10.8542 3.58106 9.68161C4.0088 10.1037 6.48501 12.8055 11.7888 13.3619C13.1403 13.5028 14.657 13.3867 15.3635 13.3129C19.9623 12.8319 23.5487 11.2745 26.713 9.90027C29.3974 8.69677 32.6181 7.44372 35.0282 7.3108C37.0512 7.14852 38.6218 7.79887 39.2302 9.05092C39.5023 9.61073 39.5659 10.2504 39.4291 10.9139C41.448 8.0445 40.5574 3.1993 32.9626 2.62424Z" fill="#E8262B"/>
<path fill-rule="evenodd" clip-rule="evenodd" d="M3.92847 8.0235C3.93323 8.02721 3.93293 8.02692 3.92847 8.0235Z" fill="#E8262B"/>
<path fill-rule="evenodd" clip-rule="evenodd" d="M18.3831 5.81509C19.433 5.52979 20.3157 6.08678 20.6579 6.87267C20.7017 6.96986 20.749 6.99095 20.7973 6.99136C20.893 6.99237 21.5239 6.88064 21.7363 6.62086C21.7363 6.62086 21.9499 7.40181 21.0258 7.86888C21.0258 7.86888 20.8956 7.93216 20.8948 8.06999C20.8939 8.20131 20.825 8.87022 20.7891 9.05472C20.7732 9.13708 20.7051 9.31351 20.8676 9.32024C21.0022 9.32569 21.4025 9.22779 21.6528 8.54211C21.6608 8.49937 21.6548 8.54496 21.6548 8.54496C21.4695 10.0571 20.5283 11.1828 19.5848 11.4861C18.9254 11.698 19.0134 11.2665 19.1273 11.0013C19.5198 9.98283 19.5284 9.48073 19.5865 8.83368C19.6471 8.15926 19.4848 6.16449 18.3831 5.81509ZM17.6256 7.16414C17.3383 7.22611 17.1717 7.98414 17.1386 9.05895C17.1056 10.1351 17.1847 11.0902 17.5741 11.0096C17.9627 10.9254 17.9945 9.92599 18.0209 8.85067C18.0506 7.77593 17.8988 7.10318 17.6256 7.16414ZM19.177 8.57865C19.1323 10.1809 18.7036 11.7116 17.5277 11.9684C16.432 12.149 15.849 10.4213 15.994 9.24739C16.065 7.62384 16.6681 6.47362 17.6117 6.21515C18.5072 5.97284 19.2172 6.98671 19.177 8.57865Z" fill="#F7EB1E"/>
<path fill-rule="evenodd" clip-rule="evenodd" d="M17.2854 5.64374C16.3688 6.22475 15.684 7.69268 15.6016 9.23075C15.5849 9.54331 15.446 11.7741 17.0992 12.5153C16.0175 12.6842 14.8395 12.8278 14.2609 12.8471C14.2609 12.8471 14.429 12.3021 14.4642 11.3803C14.4932 10.6193 14.3755 9.98533 14.097 10.0261C13.8908 10.0566 13.6514 10.7776 13.6345 11.4115C13.6121 12.2485 13.7952 12.8674 13.7952 12.8674C13.1474 12.8843 11.9731 12.9034 10.487 12.614C10.6864 12.5825 12.3605 11.6416 12.5737 9.68129C12.8113 7.498 10.8808 6.92808 10.0015 6.56285C11.2606 6.602 12.1397 6.52813 13.9711 6.25806C13.9711 6.25806 13.7468 6.61048 13.7434 7.5964C13.7399 8.49786 13.9339 8.97549 14.1128 8.97288C14.3242 8.96986 14.5229 8.50209 14.5581 7.54462C14.5945 6.56194 14.426 6.18701 14.426 6.18701C15.272 6.03653 15.8454 5.95963 17.2854 5.64374Z" fill="#F7EB1E"/>
<path fill-rule="evenodd" clip-rule="evenodd" d="M20.5842 4.9351C20.947 5.02441 22.5503 5.54396 22.6501 7.76266C22.7411 9.79453 21.9012 11.0155 21.6483 11.3347C21.6483 11.3347 22.199 11.1517 22.7705 10.9328C23.3912 10.6948 24.0056 10.4499 24.0056 10.4499C24.0056 10.4499 23.8325 9.99979 24.0446 9.21053C24.2746 8.3559 24.6036 8.11114 24.6036 8.11114C24.6036 8.11114 24.5246 8.4581 24.7754 9.10845C25.0229 9.75086 25.3084 9.91755 25.3084 9.91755L26.2542 9.49479C26.2542 9.49479 25.96 8.85255 26.4038 7.88619C26.7787 7.06962 27.2405 6.07694 26.8606 4.8813C26.665 4.26527 26.4113 3.91103 26.2842 3.76045C26.1372 3.78528 24.9428 4.01185 24.6764 4.06463C24.9679 4.18372 25.5937 4.55714 25.7084 5.592C25.7874 6.30402 25.4218 6.91137 25.4218 6.91137C25.4218 6.91137 25.4581 6.59195 25.1999 6.22772C24.9537 5.88054 24.7157 5.79768 24.7157 5.79768C24.7157 5.79768 24.692 6.28212 24.4058 6.81509C24.1851 7.22554 23.898 7.44798 23.898 7.44798C23.898 7.44798 24.1292 6.56086 23.8993 5.66053C23.6868 4.82832 23.2394 4.50456 23.0487 4.40101C22.6495 4.48508 20.9515 4.85446 20.5842 4.9351ZM28.9659 3.3398C29.0607 4.17343 28.9294 5.31628 28.5984 5.39379C28.3271 5.45747 28.1742 4.18635 28.3686 3.42014C28.0219 3.4706 27.0309 3.62844 26.5963 3.70303C28.1078 5.41549 27.3969 7.72401 26.5398 9.37391C27.0468 9.14603 27.9371 8.76602 28.43 8.56487C28.195 7.71876 28.3521 6.5532 28.6506 6.45681C28.911 6.37244 29.1561 7.75034 28.9117 8.37202C29.3636 8.17784 29.9904 7.96006 30.6498 7.73289C29.8102 7.36169 29.0886 4.81197 30.7042 3.17197C30.3254 3.19639 29.3168 3.29721 28.9659 3.3398Z" fill="#F7EB1E"/>
<path fill-rule="evenodd" clip-rule="evenodd" d="M38.0233 7.09489C37.901 7.11518 37.7571 7.10136 37.6069 7.05473C37.3703 6.98146 37.2041 6.91293 37.0017 6.83785L37.0165 6.03157C37.1146 6.23654 37.42 6.48098 37.5889 6.45817C37.6342 6.45221 37.6725 6.418 37.6812 6.37541C37.6946 6.3082 37.6572 6.2212 37.5756 6.13138C37.4937 6.04126 37.3461 5.8927 37.2205 5.75413C36.6625 5.1382 36.8975 4.71815 37.027 4.60704C37.2121 4.44788 37.439 4.48411 37.5322 4.50349C37.8749 4.57424 38.1434 4.85934 38.2698 5.14143C38.3433 5.30644 38.3925 5.48679 38.3628 5.68025C38.2872 5.48416 37.7959 4.93756 37.6204 5.15515C37.5028 5.30119 37.7819 5.51172 38.0707 5.76634C38.4604 6.10989 38.5084 6.36481 38.4127 6.72895C38.3587 6.93463 38.224 7.06119 38.0233 7.09489Z" fill="#F7EB1E"/>
<path fill-rule="evenodd" clip-rule="evenodd" d="M31.125 5.31818C31.125 5.31818 31.1112 4.84091 31.3007 4.38535C31.4906 3.92988 31.7716 3.6806 31.9586 3.8453C32.1377 4.00396 31.9958 4.3148 31.8426 4.50423C31.6894 4.69356 31.594 4.78429 31.3967 4.96C31.1996 5.13611 31.125 5.31818 31.125 5.31818ZM31.4623 5.67787C31.9068 5.26287 32.4161 4.90005 32.6048 4.3692C32.7936 3.83784 32.7905 3.47542 32.4152 3.24189C32.0624 3.02268 31.4157 3.0362 30.7988 3.75326C30.1244 4.53724 29.9965 5.89435 30.1898 6.55337C30.356 7.11966 30.6814 7.64163 31.3045 7.51951C32.3974 7.30535 32.3591 5.73448 32.3591 5.73448C32.3591 5.73448 31.9512 6.45568 31.5816 6.4792C31.1933 6.50382 31.1005 6.01566 31.4623 5.67787Z" fill="#F7EB1E"/>
<path fill-rule="evenodd" clip-rule="evenodd" d="M33.6664 4.36597C33.8179 3.99427 34.0449 3.79 34.1979 3.92322C34.3446 4.05149 34.2312 4.30531 34.1077 4.46003C33.9842 4.61485 33.9074 4.68923 33.748 4.83334C33.5886 4.97766 33.5293 5.12622 33.5293 5.12622C33.5293 5.12622 33.515 4.73767 33.6664 4.36597ZM33.9223 6.04997C33.5554 6.07924 33.5137 5.69422 33.8056 5.41729C34.1646 5.07748 34.5763 4.77975 34.7263 4.34639C34.8767 3.91283 34.8717 3.61813 34.5653 3.42961C34.2773 3.25279 33.7455 3.27893 33.2487 3.8657C32.705 4.50706 32.5895 5.6266 32.7432 6.16472C32.8982 6.70739 33.1855 7.05819 33.7317 6.91448C34.5629 6.69538 34.7819 5.45493 34.7819 5.45493C34.7819 5.45493 34.3122 6.01889 33.9223 6.04997Z" fill="#F7EB1E"/>
<path fill-rule="evenodd" clip-rule="evenodd" d="M35.1165 3.49976C35.3811 4.43016 35.1964 6.08359 34.6069 6.79055C35.3343 6.71971 36.0108 6.7075 36.6499 6.80892L36.6865 5.50752C36.4444 6.09853 35.1064 6.85061 36.1753 3.80605C35.9127 3.71835 35.6084 3.61006 35.1165 3.49976Z" fill="#F7EB1E"/>
<path fill-rule="evenodd" clip-rule="evenodd" d="M38.7887 7.34051C38.8269 7.34051 38.8414 7.33838 38.8529 7.32981C38.8644 7.32133 38.8713 7.307 38.8713 7.29196C38.8713 7.27117 38.8605 7.25553 38.8407 7.24897C38.83 7.24543 38.814 7.24402 38.7811 7.24402H38.7481V7.34051H38.7887ZM38.791 7.21324C38.8232 7.21324 38.8384 7.21476 38.8568 7.22041C38.8881 7.2304 38.9096 7.25906 38.9096 7.29115C38.9096 7.32476 38.8866 7.35272 38.8499 7.36342L38.9118 7.49926H38.8691L38.8116 7.37058L38.8086 7.36987H38.7819H38.7528L38.7481 7.37058V7.49926H38.7091V7.21324H38.791ZM38.5814 7.35554C38.5814 7.47786 38.6801 7.57717 38.8033 7.57717C38.9256 7.57717 39.0251 7.47786 39.0251 7.35484C39.0251 7.23111 38.9287 7.13463 38.8055 7.13463C38.6763 7.13463 38.5814 7.22828 38.5814 7.35554ZM39.0587 7.35625C39.0587 7.49855 38.9478 7.60795 38.8033 7.60795C38.6579 7.60795 38.5479 7.49926 38.5479 7.35625C38.5479 7.21041 38.6564 7.10394 38.8048 7.10394C38.9478 7.10394 39.0587 7.21405 39.0587 7.35625Z" fill="#F7EB1E"/>
</g>
</g>
<defs>
<clipPath id="clip0_769_1250">
<rect width="40" height="16" fill="white" transform="translate(0.731689)"/>
</clipPath>
<clipPath id="clip1_769_1250">
<rect width="40" height="11.6" fill="white" transform="translate(0.731689 2.20001)"/>
</clipPath>
</defs>
</svg>
