<svg width="13" height="16" viewBox="0 0 13 16" fill="none" xmlns="http://www.w3.org/2000/svg">
<g clip-path="url(#clip0_876_2986)">
<path d="M8.27426 7.43256L8.29145 6.00107C8.29145 5.33047 7.59075 5.2187 7.0749 5.223C7.4188 5.10693 7.83579 4.91349 8.1367 4.58678C8.45481 4.29447 8.67834 3.88178 8.63965 3.30575C8.57517 2.33423 7.35862 1.85277 5.3468 2.04621C5.31241 2.05051 5.28232 2.05481 5.24793 2.05481C5.15336 1.33692 5.0072 0.640516 4.78366 0L4.68479 0.0988715C4.41827 0.928533 4.25921 1.59054 4.16464 2.20527C2.96529 2.41161 2.12273 2.68673 2.12273 2.68673L2.02386 2.7856C2.02386 2.7856 2.99538 2.69962 4.10016 2.71252C3.97549 3.97206 4.10446 5.16711 4.10016 7.42397C2.31187 7.37238 0.742824 7.669 0.360234 8.15046C0.23557 8.25363 0.16679 8.36969 0.171089 8.49006C0.192582 9.036 1.81752 9.53896 4.10016 9.7324L4.19903 12.8361L4.2979 12.7372L4.45696 10.6308C4.45696 10.5965 4.46126 10.5664 4.46985 10.5406C4.51714 10.5492 4.56443 10.6093 4.56443 10.7168L4.63321 13.4895L4.73208 13.3906L4.90403 11.1338C4.90403 11.0822 4.90833 11.0435 4.91692 11.0091C4.96421 11.0177 5.0115 11.0865 5.0072 11.2155L5.08458 14.1042L5.18345 14.0054L5.32101 9.80118C5.58323 9.80978 5.84976 9.81408 6.12488 9.81408C6.41289 9.81408 6.69661 9.80978 6.97603 9.80118L7.11359 14.1859L7.21246 14.0871L7.32853 11.7915C7.32853 11.7442 7.33283 11.7055 7.34143 11.6754C7.38442 11.684 7.4274 11.7528 7.4274 11.8732L7.54777 15.093L7.64664 14.9941L7.767 12.2128C7.767 12.1741 7.7756 12.1397 7.7842 12.1139C7.84008 12.1139 7.90027 12.1827 7.90027 12.316L7.99914 16L8.09801 15.9011L8.24417 9.7281C10.1958 9.55615 11.6789 9.16497 12.0486 8.7093C12.1689 8.60613 12.2377 8.49866 12.2377 8.39119C12.2119 7.79796 10.4021 7.33369 8.27426 7.43256ZM4.08296 9.08759C2.51821 8.93713 1.46072 8.61902 1.46072 8.21924C1.46072 8.18915 1.46932 8.16335 1.48651 8.13326C1.85191 7.87534 2.97818 7.71198 4.10446 7.54433C4.10446 7.9871 4.09586 8.46856 4.08296 8.99731V9.08759ZM7.27265 3.69694C7.33283 4.13971 7.20387 4.47501 6.97603 4.72864C6.56765 5.09833 5.92713 5.26599 5.40698 5.34336C5.41558 4.5094 5.40268 3.64105 5.32961 2.7899C6.33552 2.89737 7.19957 3.15099 7.27265 3.69694ZM6.97603 9.17356C6.731 9.18216 6.48167 9.18646 6.22375 9.18646C5.92284 9.18646 5.62622 9.18216 5.3425 9.16926L5.3554 8.81247C5.32961 7.90973 5.38549 6.77485 5.40268 5.5626C6.13777 5.64858 7.01902 5.85492 7.00612 6.37077L6.97603 9.17356ZM10.8707 8.47716C10.5053 8.76518 9.5381 8.98872 8.25706 9.10048L8.27426 7.56153C9.74014 7.75067 10.9309 7.96561 10.9309 8.31811C10.9309 8.36969 10.9094 8.42558 10.8707 8.47716Z" fill="#061922"/>
<path d="M12.2375 8.39979C12.2117 7.79797 10.4019 7.3337 8.27402 7.43687L8.29121 6.00538C8.28691 5.11984 7.07466 5.20581 6.66628 5.2617C7.14344 5.17572 8.73828 4.77594 8.63941 3.31436C8.57493 2.34283 7.35838 1.86137 5.34656 2.05482C5.31217 2.05912 5.28208 2.06342 5.24769 2.06342C5.15311 1.34552 5.00696 0.649122 4.78342 0.00860596C4.504 0.876956 4.34065 1.56046 4.25037 2.19668C3.00373 2.40302 2.12249 2.69533 2.12249 2.69533C2.12249 2.69533 3.09401 2.60936 4.19879 2.62225C4.07412 3.89899 4.20309 5.11124 4.19879 7.43687C2.0838 7.36379 0.248224 7.77217 0.269718 8.39979C0.286913 8.94574 1.91614 9.44869 4.19879 9.64214L4.29766 12.7458L4.45671 10.6395C4.46101 10.3772 4.65876 10.403 4.65876 10.6266L4.73183 13.3993L4.90379 11.1424C4.89949 10.8372 5.11443 10.8544 5.10583 11.1252L5.18321 14.014L5.32077 9.70662C5.61308 9.71522 5.91399 9.72381 6.21921 9.72381C6.50722 9.72381 6.79094 9.71951 7.07036 9.71092L7.20792 14.0957L7.32399 11.8001C7.32399 11.5078 7.52173 11.5207 7.52173 11.7829L7.6421 15.0027L7.76246 12.2214C7.77106 11.9463 7.9903 11.9592 7.9946 12.2214L8.09347 15.9054L8.23963 9.64643V9.64214C10.561 9.44869 12.2375 8.94574 12.2375 8.39979ZM7.37128 3.59807C7.53463 4.81033 6.29659 5.21011 5.40674 5.34337C5.41534 4.47072 5.40244 3.56368 5.32077 2.67814C6.36966 2.78131 7.2939 3.03064 7.37128 3.59807ZM1.46048 8.21924C1.46048 7.84955 2.83178 7.65181 4.20309 7.44547C4.20309 7.88824 4.19449 8.3697 4.18159 8.89845L4.18589 9.10049C2.56096 8.95004 1.46048 8.62763 1.46048 8.21924ZM5.34226 9.16927L5.35516 8.81248C5.32936 7.87964 5.38955 6.70608 5.40244 5.45514C6.15043 5.53252 7.11765 5.73456 7.10045 6.2762L7.07466 9.17357C6.79954 9.18217 6.51582 9.18647 6.22351 9.18647C5.92259 9.18217 5.63028 9.17787 5.34226 9.16927ZM8.25682 9.10049L8.27831 7.44977C9.78718 7.64321 11.0295 7.86245 11.0295 8.21924C11.0295 8.62763 9.89465 8.95433 8.25682 9.10049Z" fill="#CE1141"/>
</g>
<defs>
<clipPath id="clip0_876_2986">
<rect width="12.0668" height="16" fill="white" transform="translate(0.170898)"/>
</clipPath>
</defs>
</svg>
