<svg width="14" height="16" viewBox="0 0 14 16" fill="none" xmlns="http://www.w3.org/2000/svg">
<g clip-path="url(#clip0_795_1581)">
<mask id="mask0_795_1581" style="mask-type:luminance" maskUnits="userSpaceOnUse" x="0" y="0" width="14" height="16">
<path d="M13.1815 0H0.115723V16H13.1815V0Z" fill="white"/>
</mask>
<g mask="url(#mask0_795_1581)">
<path d="M13.1527 3.97865L6.68056 0.00927729C6.671 0.00335254 6.65997 0.000213623 6.64872 0.000213623C6.63747 0.000213623 6.62645 0.00335254 6.61688 0.00927729L0.144942 3.97905C0.13608 3.9844 0.128739 3.99193 0.123623 4.00093C0.118507 4.00993 0.115787 4.02009 0.115723 4.03044V11.97C0.115718 11.9804 0.118405 11.9906 0.123525 11.9997C0.128644 12.0088 0.136022 12.0164 0.144942 12.0218L6.61688 15.9915C6.62645 15.9975 6.63747 16.0006 6.64872 16.0006C6.65997 16.0006 6.671 15.9975 6.68056 15.9915L13.1527 12.0218C13.1616 12.0164 13.1689 12.0088 13.174 11.9997C13.1791 11.9906 13.1817 11.9804 13.1817 11.97V4.03044C13.1818 4.02 13.1791 4.00973 13.1741 4.00062C13.169 3.99151 13.1616 3.98387 13.1527 3.97845" fill="#101820"/>
</g>
<path d="M6.6485 15.5843L0.46875 11.794V4.20594L6.6485 0.41571L12.8282 4.20594V11.794L6.6485 15.5843ZM0.703914 11.6532L6.6485 15.2993L12.5931 11.6532V4.34679L6.6485 0.700647L0.703914 4.34679V11.6532Z" fill="#FF6B00"/>
<path d="M8.89721 3.47244L9.18557 3.18408L9.02094 3.01904L8.66406 3.37592V3.91275H8.89721V3.47244Z" fill="#FF6B00"/>
<path d="M8.23095 3.91276H8.4641V3.37593L8.10722 3.01926L7.94238 3.18409L8.23095 3.47246V3.91276Z" fill="#FF6B00"/>
<path d="M4.74441 4.34579V4.11264H3.46623L3.01786 3.65823L2.85303 3.82307L3.37575 4.34579H4.74441Z" fill="#FF6B00"/>
<path d="M9.66687 4.11264H5.81055V4.34579H9.57035L10.3536 5.12886V6.92675L9.5641 7.71607H9.09518V7.94921H9.66062L10.5868 7.02347V5.03234L9.66687 4.11264Z" fill="#FF6B00"/>
<path d="M8.03126 7.71606H3.37575L2.85303 8.23254L3.01786 8.40362L3.47227 7.94901H8.03126V7.71606Z" fill="#FF6B00"/>
<path d="M3.60913 4.54568H3.37598V7.51616H3.60913V4.54568Z" fill="#FF6B00"/>
<path d="M4.74421 4.77883V4.54568H3.80859V7.51616H8.03106V7.28301H4.04154V4.77883H4.74421Z" fill="#FF6B00"/>
<path d="M9.38375 7.28301H9.09538V7.51616H9.48027L10.1537 6.84271V5.21027L9.48853 4.54568H5.81055V4.77883H9.39201L9.92017 5.30699V6.74599L9.38375 7.28301Z" fill="#FF6B00"/>
<path d="M4.94433 8.58921L4.65576 8.87757L4.8206 9.04261L5.17747 8.68573V8.14911H4.94433V8.58921Z" fill="#FF6B00"/>
<path d="M5.61059 8.14911H5.37744V8.68573L5.73412 9.04241L5.89895 8.87777L5.61059 8.58921V8.14911Z" fill="#FF6B00"/>
<path d="M8.23124 5.69775H5.61059V3.50268V3.47246L5.89895 3.18409L5.73432 3.01926L5.37744 3.37593V3.91276V5.93089H8.46439V4.97875H8.23124V5.69775Z" fill="#FF6B00"/>
<path d="M5.37744 7.08312H5.61059V6.36393H8.23124V8.58922L7.94268 8.87778L8.10752 9.04242L8.46419 8.68574V6.13098H5.37744V7.08312Z" fill="#FF6B00"/>
<path d="M8.89652 6.46145L9.32715 6.03082L8.89753 5.6012V4.97873H8.66438V5.69772L8.99748 6.03082L8.66357 6.36493V8.68291L9.02025 9.03959L9.18509 8.87495L8.89652 8.58639V6.46145Z" fill="#FF6B00"/>
<path d="M4.94477 5.60727L4.521 6.03105L4.94437 6.45422V7.08314H5.17752V6.35769L4.85067 6.03105L5.17792 5.70379V3.91256V3.37593L4.82105 3.01926L4.65621 3.18409L4.94477 3.47246V5.60727Z" fill="#FF6B00"/>
<path d="M7.38046 13.5915H6.80474L7.20414 12.7821L6.24414 13.8305H6.81986L6.42046 14.64L7.38046 13.5915Z" fill="#FF6B00"/>
<path d="M2.54369 10.2327H1.96999V9.60242H1.68848V11.1885H1.96999V10.4963H2.54369V11.1885H2.8252V9.60242H2.54369V10.2327Z" fill="white"/>
<path d="M3.46886 9.60242L3.20166 9.86962V10.9219L3.46886 11.1889H4.10967L4.37647 10.9219V9.86962L4.10967 9.60242H3.46886ZM3.60347 10.9247L3.48257 10.8038V9.9863L3.60347 9.86539H3.97466L4.09556 9.9863V10.8046L3.97466 10.9255L3.60347 10.9247Z" fill="white"/>
<path d="M5.6308 10.8046L5.5105 10.9247H5.15503L5.03473 10.8046V9.60242H4.75342V10.9213L5.02042 11.1885H5.63181L5.89901 10.9213V9.60242H5.6308V10.8046Z" fill="white"/>
<path d="M6.64591 10.2595L6.52561 10.1392V9.9863L6.64591 9.86599H6.98163L7.16199 10.0417L7.35987 9.84383L7.11584 9.60242H6.5111L6.2441 9.86962V10.2561L6.5111 10.5231H6.9903L7.1104 10.6434V10.8046L6.9903 10.9247H6.59614L6.39544 10.7315L6.19775 10.9292L6.46214 11.1885H7.12491L7.39191 10.9213V10.5265L7.12491 10.2595H6.64591Z" fill="white"/>
<path d="M7.54932 9.86599H7.99466V11.1885H8.27617V9.86599H8.72171V9.60242H7.54932V9.86599Z" fill="white"/>
<path d="M9.18448 9.60242L8.91748 9.86962V10.9219L9.18448 11.1889H9.82509L10.0921 10.9219V9.86962L9.82509 9.60242H9.18448ZM9.31909 10.9247L9.19819 10.8038V9.9863L9.31909 9.86539H9.69048L9.81138 9.9863V10.8046L9.69048 10.9255L9.31909 10.9247Z" fill="white"/>
<path d="M11.3421 9.60242V10.6817L10.7997 9.60242H10.4736V11.1885H10.7416V10.1096L10.7505 10.1322L11.2932 11.1885H11.6102V9.60242H11.3421Z" fill="white"/>
<path d="M3.7345 11.5798L3.85984 11.7052V12.2493L3.7345 12.3746H3.20654V11.5798H3.7345ZM3.64322 11.7793L3.60896 11.7451H3.42317V12.2102H3.60896L3.64322 12.1761V11.7793Z" fill="white"/>
<path d="M4.35229 11.8716L4.37063 11.9605H4.37627L4.39682 11.8716L4.51531 11.5798H4.71481L4.47319 12.1144V12.3756H4.2338V12.1144L3.99219 11.5798H4.23843L4.35229 11.8716Z" fill="white"/>
<path d="M5.20525 12.3756L5.06279 11.9698L5.04324 11.8738H5.03296V12.3756H4.84717V11.5798H5.13211L5.27478 11.9857L5.29412 12.0814H5.3044V11.5798H5.49019V12.3756H5.20525Z" fill="white"/>
<path d="M6.0974 12.2251H5.90295L5.86647 12.3756H5.66113L5.87997 11.5798H6.1365L6.37368 12.3756H6.13388L6.0974 12.2251ZM5.93196 12.0639H6.07302L6.02627 11.8769L6.01035 11.7787H5.99907L5.98073 11.8769L5.93196 12.0639Z" fill="white"/>
<path d="M6.84082 11.5798L6.95366 11.9972L6.97523 12.0973H6.98329L7.00384 11.9972L7.11769 11.5798H7.40727V12.3756H7.19064V11.8956H7.18157L7.16223 11.9994L7.04938 12.3756H6.88172L6.76324 11.9994L6.74369 11.8956H6.73462V12.3756H6.54883V11.5798H6.84082Z" fill="white"/>
<path d="M7.63184 11.6996L7.75718 11.5742H8.16181L8.28735 11.6996V12.2559L8.16181 12.3813H7.75718L7.63184 12.2559V11.6996ZM8.03647 11.7399H7.88272L7.84846 11.7741V12.1822L7.88272 12.2164H8.03647L8.07073 12.1822V11.7737L8.03647 11.7399Z" fill="white"/>
<path d="M8.76221 11.5798H9.29923V11.7531H8.97883V11.9355H9.26054V12.0985H8.97883V12.3756H8.76221V11.5798Z" fill="white"/>
<path d="M9.46826 12.2559V11.6996L9.5936 11.5742H9.99159L10.1067 11.6927L9.95048 11.8249L9.86605 11.7395H9.71914L9.68489 11.7735V12.1818L9.71914 12.216H9.8729L9.97204 12.1213L10.1181 12.2616L9.99844 12.3813H9.5936L9.46826 12.2559Z" fill="white"/>
</g>
<defs>
<clipPath id="clip0_795_1581">
<rect width="13.0658" height="16" fill="white" transform="translate(0.115723)"/>
</clipPath>
</defs>
</svg>
