<svg width="17" height="16" viewBox="0 0 17 16" fill="none" xmlns="http://www.w3.org/2000/svg">
<g clip-path="url(#clip0_768_944)">
<path d="M8.9314 16C8.85177 16 8.77251 15.9985 8.69362 15.9963L10.3284 11.503H12.5784C12.9732 11.503 13.407 11.1993 13.5418 10.8285L15.3155 5.9563C15.6055 5.15852 15.1488 4.50593 14.2999 4.50593H11.1784L8.55954 11.703H8.55843L7.07362 15.7826C3.5514 14.9452 0.931396 11.7789 0.931396 8C0.931396 4.22111 3.40251 1.23778 6.7714 0.295185L5.23917 4.50593H5.2388L2.69177 11.5026H4.38732L6.55325 5.55704H7.82732L5.6614 11.5026H7.35621L9.37473 5.95593C9.6651 5.15815 9.20806 4.50556 8.36029 4.50556H6.9351L8.57177 0.00851852C8.69103 0.00333333 8.81066 0 8.9314 0C13.3495 0 16.9314 3.58185 16.9314 8C16.9314 12.4181 13.3495 16 8.9314 16ZM13.7718 5.55333H12.4981L10.714 10.4481H11.9881L13.7721 5.55333H13.7718Z" fill="#0096D6"/>
</g>
<defs>
<clipPath id="clip0_768_944">
<rect width="16" height="16" fill="white" transform="translate(0.931641)"/>
</clipPath>
</defs>
</svg>
