<svg width="41" height="16" viewBox="0 0 41 16" fill="none" xmlns="http://www.w3.org/2000/svg">
<g clip-path="url(#clip0_806_1529)">
<g clip-path="url(#clip1_806_1529)">
<path d="M16.7116 2.61221H5.94873V13.3751H16.7116V2.61221Z" fill="white"/>
<path d="M22.0934 8.00633L16.7119 2.61221V13.3878L22.0934 8.00633Z" fill="#DB0011"/>
<path d="M11.3302 8.00633L16.7116 2.61221H5.94873L11.3302 8.00633Z" fill="#DB0011"/>
<path d="M0.554688 8.00633L5.9488 13.3878V2.61221L0.554688 8.00633Z" fill="#DB0011"/>
<path d="M11.3302 8.00632L5.94873 13.3878H16.7116L11.3302 8.00632Z" fill="#DB0011"/>
<path d="M26.8161 8.32287H24.8661V10.2475H23.8911V5.73978H24.8661V7.58846H26.8161V5.73978H27.7911V10.2475H26.8161V8.32287Z" fill="black"/>
<path d="M30.1462 10.3362C29.1712 10.3362 28.3735 9.94365 28.3608 8.86736H29.3358C29.3485 9.34853 29.6271 9.63976 30.1589 9.63976C30.5514 9.63976 31.0072 9.43716 31.0072 8.99399C31.0072 8.63944 30.7034 8.53815 30.1969 8.3862L29.8676 8.29756C29.1586 8.09497 28.4495 7.8164 28.4495 7.00602C28.4495 6.0057 29.3865 5.66382 30.2348 5.66382C31.1085 5.66382 31.8683 5.96771 31.8809 6.96803H30.9059C30.868 6.56284 30.6274 6.32225 30.1715 6.32225C29.8043 6.32225 29.4498 6.51219 29.4498 6.91738C29.4498 7.2466 29.7537 7.3479 30.3868 7.55049L30.7667 7.66445C31.5391 7.90503 32.0329 8.17094 32.0329 8.93068C32.0202 9.94365 31.0326 10.3362 30.1462 10.3362Z" fill="black"/>
<path d="M32.5776 5.75246H34.1478C34.439 5.7398 34.7429 5.75246 35.0341 5.80311C35.5786 5.92973 35.9964 6.28428 35.9964 6.89206C35.9964 7.47453 35.6292 7.76576 35.0974 7.90504C35.7052 8.019 36.1611 8.32289 36.1611 8.99399C36.1611 10.0196 35.1481 10.2476 34.363 10.2476H32.5903L32.5776 5.75246ZM34.1478 7.62647C34.5783 7.62647 35.0215 7.53784 35.0215 7.01868C35.0215 6.55018 34.6163 6.42356 34.2111 6.42356H33.5273V7.62647H34.1478ZM34.2364 9.57646C34.6922 9.57646 35.1354 9.47516 35.1354 8.91802C35.1354 8.36088 34.7555 8.25958 34.287 8.25958H33.5146V9.57646H34.2364Z" fill="black"/>
<path d="M38.6932 10.3362C37.2371 10.3362 36.5913 9.41184 36.5913 8.03165C36.5913 6.65147 37.3131 5.65115 38.7439 5.65115C39.6429 5.65115 40.5166 6.05635 40.5419 7.06932H39.5289C39.4783 6.61348 39.1744 6.38556 38.7439 6.38556C37.8575 6.38556 37.5916 7.33523 37.5916 8.05698C37.5916 8.77873 37.8575 9.61443 38.7059 9.61443C39.1491 9.61443 39.4783 9.37385 39.5416 8.91801H40.5546C40.4533 9.95631 39.6302 10.3362 38.6932 10.3362Z" fill="black"/>
</g>
</g>
<defs>
<clipPath id="clip0_806_1529">
<rect width="40" height="16" fill="white" transform="translate(0.554688)"/>
</clipPath>
<clipPath id="clip1_806_1529">
<rect width="40" height="10.7756" fill="white" transform="translate(0.554688 2.61221)"/>
</clipPath>
</defs>
</svg>
