<svg width="41" height="16" viewBox="0 0 41 16" fill="none" xmlns="http://www.w3.org/2000/svg">
<g clip-path="url(#clip0_757_335)">
<g clip-path="url(#clip1_757_335)">
<path d="M22.7319 6.37554H23.6225V8.853C23.6225 10.1105 22.9295 10.8318 21.7221 10.8318C20.5273 10.8318 19.8405 10.1231 19.8405 8.8875V6.37868H20.7311V8.85927C20.7311 9.5931 21.0918 9.98511 21.7346 9.98511C22.3775 9.98511 22.7319 9.60251 22.7319 8.89063V6.37554ZM17.7143 8.14426H15.7009V6.37554H14.8103V10.766H15.7009V8.98158H17.7111V10.766H18.6018V6.37554H17.7111V8.14426H17.7143ZM40.0177 6.37554V10.7597H40.8958V6.37554H40.0177ZM36.521 8.87495H38.1423V8.07527H36.521V7.17523H38.873V6.37868H35.6429V10.7628H38.9577V9.96316H36.521V8.87495ZM33.0275 9.3924L32.0302 6.37241H31.3027L30.3054 9.3924L29.3364 6.37554H28.3893L29.9197 10.7628H30.6566L31.6539 7.88083L32.6511 10.7628H33.3944L34.9216 6.37554H33.9965L33.0275 9.3924ZM26.8056 6.40063L28.7217 10.7628H27.7872L27.392 9.85026H25.3818L25.3536 9.91298L24.9836 10.7628H24.0741L26.009 6.37554H26.7868L26.8056 6.40063ZM27.0188 8.95335L26.3854 7.48256L25.755 8.95335L25.7111 9.05371H27.0596L27.0188 8.95335Z" fill="#24272A"/>
<path d="M6.04199 10.2987C6.05453 10.2893 6.05767 10.2705 6.05139 10.2548C5.18666 8.39619 4.10788 6.64489 2.83697 5.03647C2.83697 5.03647 1.82717 5.99609 1.8993 6.95885C1.91619 7.18082 1.97668 7.39727 2.07731 7.59583C2.17794 7.7944 2.31672 7.97117 2.48573 8.11605C3.36696 8.97532 5.49945 10.0604 5.99495 10.3081C6.01063 10.3144 6.02944 10.3113 6.04199 10.2987ZM5.7127 11.0325C5.70643 11.0137 5.68761 11.0012 5.66566 11.0012L2.11568 11.1235C2.50141 11.8103 3.15057 12.3434 3.82482 12.1803C4.29208 12.0643 5.34579 11.3273 5.69389 11.0765C5.72211 11.0545 5.7127 11.0357 5.7127 11.0325ZM5.76602 10.7158C5.78483 10.6876 5.75347 10.6625 5.75347 10.6625C4.19487 9.60879 1.17174 7.99061 1.17174 7.99061C1.07154 8.29773 1.0435 8.62383 1.08982 8.94356C1.13614 9.26328 1.25556 9.56802 1.43881 9.83408C1.62205 10.1001 1.86418 10.3204 2.14637 10.4777C2.42857 10.6349 2.74323 10.725 3.0659 10.7409C3.11921 10.7503 5.17644 10.7409 5.72838 10.7378C5.74406 10.7346 5.75661 10.7284 5.76602 10.7158ZM6.00122 3.50295C5.84755 3.5155 5.43046 3.61271 5.43046 3.61271C4.48965 3.85419 4.267 4.71032 4.267 4.71032C4.09451 5.24658 4.27013 5.83929 4.27013 5.83929C4.58373 7.23169 6.12666 9.52412 6.45908 10.0039C6.48103 10.029 6.49985 10.0196 6.49985 10.0196C6.51866 10.0133 6.53434 9.99766 6.53434 9.97571C7.04865 4.85772 6.00122 3.50295 6.00122 3.50295ZM7.17723 10.0133C7.19604 10.0196 7.218 10.0133 7.2274 9.99453C7.56923 9.50217 9.10275 7.22228 9.41635 5.83616C9.41635 5.83616 9.58569 5.16505 9.42262 4.70719C9.42262 4.70719 9.19055 3.83851 8.24975 3.60958C8.24975 3.60958 7.98005 3.54059 7.69154 3.49982C7.69154 3.49982 6.63783 4.85458 7.15214 9.97257C7.149 9.99139 7.16155 10.0071 7.17723 10.0133ZM8.01768 11.0043C8.00932 11.006 8.0014 11.0094 7.99439 11.0142C7.98738 11.0191 7.98143 11.0253 7.97691 11.0325C7.97378 11.0514 7.97691 11.067 7.98946 11.0796C8.32815 11.3242 9.3599 12.0455 9.85539 12.1835C9.85539 12.1835 10.7742 12.4971 11.5708 11.1266L8.01768 11.0043ZM12.5179 7.98433C12.5179 7.98433 9.50102 9.60566 7.93928 10.6594C7.9236 10.6719 7.91419 10.6907 7.92046 10.7095C7.92046 10.7095 7.93615 10.7378 7.9581 10.7378C8.51631 10.7378 10.63 10.7409 10.6864 10.7315C10.8966 10.7158 11.1035 10.6688 11.298 10.5904C11.298 10.5904 12.0506 10.352 12.4395 9.4959C12.4395 9.4959 12.7876 8.7997 12.5179 7.98433ZM7.6539 10.2987C7.66645 10.3081 7.68526 10.3113 7.70094 10.3019C8.20898 10.0478 10.3258 8.97218 11.2007 8.11605C11.2007 8.11605 11.7558 7.67073 11.784 6.95258C11.8468 5.95846 10.8464 5.03647 10.8464 5.03647C10.8464 5.03647 8.99612 7.27873 7.63822 10.2423C7.63604 10.2522 7.63633 10.2626 7.63907 10.2724C7.6418 10.2823 7.64689 10.2913 7.6539 10.2987Z" fill="#CE0E2D"/>
</g>
</g>
<defs>
<clipPath id="clip0_757_335">
<rect width="40" height="16" fill="white" transform="translate(0.898926)"/>
</clipPath>
<clipPath id="clip1_757_335">
<rect width="40" height="9.00039" fill="white" transform="translate(0.898926 3.49982)"/>
</clipPath>
</defs>
</svg>
