<svg width="41" height="16" viewBox="0 0 41 16" fill="none" xmlns="http://www.w3.org/2000/svg">
<g clip-path="url(#clip0_806_1620)">
<g clip-path="url(#clip1_806_1620)">
<path d="M27.67 6.90378V10.0329C27.6702 10.0448 27.6681 10.0568 27.6636 10.0679C27.6591 10.079 27.6524 10.0891 27.6439 10.0976C27.6354 10.106 27.6253 10.1127 27.6142 10.1171C27.603 10.1216 27.5911 10.1237 27.5791 10.1234H26.4496C26.4376 10.1237 26.4257 10.1216 26.4146 10.1171C26.4034 10.1127 26.3933 10.106 26.3848 10.0976C26.3763 10.0891 26.3696 10.079 26.3651 10.0679C26.3607 10.0568 26.3585 10.0448 26.3588 10.0329V7.16882C26.3582 7.0968 26.3292 7.02791 26.2782 6.97709C26.2272 6.92626 26.1582 6.8976 26.0861 6.89732H25.7876V10.0329C25.7878 10.0449 25.7857 10.0568 25.7812 10.068C25.7767 10.0791 25.77 10.0892 25.7615 10.0976C25.753 10.1061 25.7429 10.1128 25.7318 10.1172C25.7206 10.1216 25.7087 10.1237 25.6967 10.1234H24.5737C24.5617 10.1237 24.5498 10.1216 24.5387 10.1172C24.5275 10.1128 24.5174 10.1061 24.5089 10.0976C24.5004 10.0892 24.4937 10.0791 24.4892 10.068C24.4847 10.0568 24.4826 10.0449 24.4828 10.0329H24.4959V6.10859C24.4963 6.0709 24.5115 6.03487 24.5382 6.00827C24.5649 5.98167 24.601 5.96662 24.6387 5.96636H26.7288C26.9779 5.96606 27.2169 6.06461 27.3933 6.24037C27.5698 6.41613 27.6693 6.65473 27.67 6.90378ZM36.9717 6.96196V9.12771C36.9717 9.77417 36.6342 9.99399 36.0499 10.1233C35.8293 10.1639 35.6057 10.1855 35.3814 10.1879C35.1569 10.1888 34.9329 10.1672 34.7127 10.1233C34.1287 9.99399 33.7911 9.77414 33.7911 9.12771V6.9555C33.7911 6.30903 34.1285 6.08921 34.7127 5.9599C34.9334 5.91934 35.1571 5.89771 35.3814 5.89527C35.6058 5.89437 35.8298 5.91603 36.0499 5.9599C36.6275 6.09567 36.9651 6.30903 36.9717 6.96196ZM35.7059 7.16885C35.7054 7.09683 35.6764 7.02793 35.6254 6.9771C35.5743 6.92628 35.5053 6.89761 35.4333 6.89732H35.3229C35.2509 6.89761 35.1819 6.92627 35.1309 6.9771C35.0798 7.02793 35.0509 7.09682 35.0503 7.16885V8.91448C35.0509 8.9865 35.0798 9.05539 35.1309 9.10621C35.1819 9.15703 35.2509 9.18569 35.3229 9.18598H35.4333C35.5053 9.1857 35.5743 9.15704 35.6254 9.10622C35.6764 9.05539 35.7054 8.9865 35.7059 8.91448V7.16885ZM33.3821 5.9599H32.8888V5.19715C32.889 5.18515 32.8869 5.17323 32.8824 5.1621C32.8779 5.15097 32.8712 5.14087 32.8627 5.13241C32.8542 5.12394 32.8441 5.11729 32.8329 5.11286C32.8218 5.10843 32.8099 5.10632 32.7979 5.10664H31.7269C31.7149 5.10632 31.7029 5.10844 31.6918 5.11287C31.6807 5.11731 31.6705 5.12396 31.6621 5.13242C31.6536 5.14089 31.6469 5.15099 31.6424 5.16212C31.6379 5.17324 31.6358 5.18516 31.6361 5.19715V9.17942C31.6367 9.42848 31.7362 9.66709 31.9127 9.84285C32.0892 10.0186 32.3282 10.1171 32.5772 10.1168H33.3821C33.3941 10.1171 33.406 10.115 33.4171 10.1106C33.4283 10.1061 33.4384 10.0995 33.4469 10.091C33.4554 10.0826 33.4621 10.0725 33.4666 10.0613C33.471 10.0502 33.4732 10.0383 33.4729 10.0263V9.28285C33.4732 9.27086 33.471 9.25894 33.4666 9.24781C33.4621 9.23668 33.4554 9.22658 33.4469 9.21811C33.4384 9.20965 33.4283 9.203 33.4171 9.19857C33.406 9.19414 33.3941 9.19202 33.3821 9.19234H33.1614C33.0894 9.19205 33.0204 9.16339 32.9693 9.11256C32.9183 9.06173 32.8894 8.99284 32.8888 8.92081V7.0848H33.3821C33.3941 7.08513 33.406 7.08301 33.4171 7.07857C33.4283 7.07414 33.4384 7.06749 33.4469 7.05902C33.4554 7.05055 33.4621 7.04044 33.4666 7.02931C33.4711 7.01818 33.4732 7.00625 33.4729 6.99426V6.05042C33.4732 6.03842 33.471 6.0265 33.4666 6.01537C33.4621 6.00424 33.4554 5.99414 33.4469 5.98568C33.4384 5.97721 33.4283 5.97056 33.4171 5.96613C33.406 5.9617 33.3941 5.95958 33.3821 5.9599ZM31.2271 6.05042V10.8215C31.2271 11.468 30.8895 11.6878 30.3053 11.8171C30.0847 11.8577 29.8611 11.8793 29.6368 11.8818C29.4123 11.8826 29.1883 11.861 28.9682 11.8171C28.3841 11.6878 28.0465 11.468 28.0465 10.8215V10.4919C28.0462 10.4799 28.0484 10.468 28.0528 10.4569C28.0573 10.4458 28.064 10.4356 28.0725 10.4272C28.081 10.4187 28.0911 10.412 28.1022 10.4076C28.1134 10.4032 28.1253 10.401 28.1373 10.4014H29.2602C29.2722 10.401 29.2842 10.4032 29.2953 10.4076C29.3065 10.412 29.3166 10.4187 29.3251 10.4272C29.3336 10.4356 29.3403 10.4457 29.3448 10.4569C29.3493 10.468 29.3514 10.4799 29.3511 10.4919V10.6664C29.351 10.6954 29.3566 10.7241 29.3676 10.7509C29.3787 10.7777 29.395 10.8021 29.4155 10.8225C29.436 10.843 29.4604 10.8591 29.4873 10.8701C29.5141 10.881 29.5429 10.8865 29.5719 10.8862H29.7017C29.7307 10.8865 29.7595 10.881 29.7863 10.8701C29.8131 10.8592 29.8376 10.843 29.8581 10.8225C29.8786 10.8021 29.8949 10.7777 29.9059 10.7509C29.9169 10.7241 29.9225 10.6954 29.9223 10.6664V10.1168H28.9941C28.7451 10.1171 28.5061 10.0186 28.3296 9.84285C28.1531 9.66709 28.0536 9.42848 28.0529 9.17942V6.89732C28.0536 6.64826 28.1531 6.40964 28.3296 6.23388C28.506 6.05812 28.7451 5.95958 28.9941 5.9599H31.1361C31.16 5.96034 31.1829 5.96999 31.1998 5.98686C31.2168 6.00373 31.2266 6.0265 31.2271 6.05042ZM29.9223 6.89732H29.6238C29.5517 6.89761 29.4827 6.92627 29.4317 6.97709C29.3807 7.02792 29.3517 7.0968 29.3511 7.16882V8.92081C29.3517 8.99283 29.3807 9.06172 29.4317 9.11255C29.4827 9.16337 29.5517 9.19204 29.6238 9.19234H29.9223V6.89732ZM39.6135 5.96636H37.5234C37.4857 5.96662 37.4496 5.98167 37.4229 6.00827C37.3962 6.03487 37.381 6.0709 37.3806 6.10859V10.0327H37.3675C37.3673 10.0447 37.3694 10.0566 37.3739 10.0677C37.3784 10.0789 37.3851 10.089 37.3936 10.0974C37.4021 10.1059 37.4122 10.1125 37.4234 10.117C37.4345 10.1214 37.4464 10.1235 37.4584 10.1232H38.5814C38.5934 10.1235 38.6053 10.1214 38.6164 10.117C38.6276 10.1125 38.6377 10.1059 38.6462 10.0974C38.6547 10.089 38.6614 10.0789 38.6659 10.0677C38.6704 10.0566 38.6725 10.0447 38.6723 10.0327V6.89732H38.9708C39.0429 6.8976 39.1119 6.92626 39.1629 6.97709C39.2139 7.02791 39.2429 7.0968 39.2435 7.16882V10.0327C39.2432 10.0447 39.2454 10.0566 39.2498 10.0677C39.2543 10.0789 39.261 10.089 39.2695 10.0974C39.278 10.1059 39.2881 10.1125 39.2993 10.117C39.3104 10.1214 39.3224 10.1235 39.3344 10.1232H40.4638C40.4758 10.1235 40.4877 10.1214 40.4989 10.117C40.51 10.1125 40.5201 10.1059 40.5286 10.0974C40.5371 10.089 40.5438 10.0789 40.5483 10.0677C40.5528 10.0566 40.5549 10.0447 40.5547 10.0327V6.90362C40.5539 6.65459 40.4544 6.41603 40.278 6.24031C40.1015 6.06459 39.8625 5.96606 39.6135 5.96636ZM23.9505 5.95984H22.7951C22.7831 5.95953 22.7712 5.96165 22.7601 5.96609C22.7489 5.97052 22.7388 5.97717 22.7303 5.98563C22.7218 5.99409 22.7151 6.00419 22.7107 6.01532C22.7062 6.02644 22.704 6.03836 22.7043 6.05035V10.0327C22.704 10.0447 22.7062 10.0566 22.7107 10.0677C22.7151 10.0788 22.7218 10.0889 22.7303 10.0974C22.7388 10.1059 22.7489 10.1125 22.7601 10.117C22.7712 10.1214 22.7831 10.1235 22.7951 10.1232H23.9441C23.9561 10.1235 23.968 10.1214 23.9792 10.117C23.9903 10.1125 24.0004 10.1059 24.0089 10.0974C24.0174 10.0889 24.0241 10.0788 24.0286 10.0677C24.033 10.0566 24.0352 10.0447 24.0349 10.0327H24.0414V6.05042C24.0417 6.03842 24.0395 6.02651 24.0351 6.01538C24.0306 6.00426 24.0239 5.99416 24.0154 5.98569C24.0069 5.97723 23.9967 5.97058 23.9856 5.96615C23.9745 5.96172 23.9625 5.95953 23.9505 5.95984ZM22.2045 5.95984H21.7111V5.19715C21.7114 5.18516 21.7092 5.17325 21.7048 5.16212C21.7003 5.151 21.6936 5.1409 21.6851 5.13243C21.6766 5.12397 21.6665 5.11732 21.6554 5.11288C21.6442 5.10845 21.6323 5.10632 21.6203 5.10664H20.5493C20.5373 5.10632 20.5253 5.10844 20.5142 5.11287C20.503 5.11731 20.4929 5.12395 20.4844 5.13242C20.4759 5.14088 20.4692 5.15098 20.4648 5.16211C20.4603 5.17324 20.4581 5.18516 20.4584 5.19715V9.17942C20.4591 9.42852 20.5586 9.66716 20.7351 9.84292C20.9116 10.0187 21.1507 10.1172 21.3998 10.1168H22.2047C22.2166 10.1171 22.2286 10.115 22.2397 10.1106C22.2509 10.1061 22.261 10.0995 22.2695 10.091C22.278 10.0826 22.2846 10.0725 22.2891 10.0613C22.2936 10.0502 22.2957 10.0383 22.2955 10.0263V9.28285C22.2949 9.25897 22.2852 9.23622 22.2683 9.21935C22.2513 9.20248 22.2285 9.19281 22.2047 9.19234H21.9838C21.9118 9.19205 21.8428 9.16339 21.7917 9.11256C21.7407 9.06173 21.7117 8.99284 21.7112 8.92081V7.0848H22.2045C22.2165 7.08512 22.2284 7.083 22.2396 7.07856C22.2507 7.07413 22.2609 7.06748 22.2694 7.05901C22.2778 7.05054 22.2845 7.04043 22.289 7.0293C22.2935 7.01817 22.2956 7.00625 22.2953 6.99426V6.05042C22.2956 6.03843 22.2934 6.0265 22.289 6.01538C22.2845 6.00425 22.2778 5.99414 22.2693 5.98568C22.2608 5.97721 22.2507 5.97056 22.2396 5.96613C22.2284 5.9617 22.2165 5.95952 22.2045 5.95984ZM19.1276 5.96636H17.0376C16.9999 5.96661 16.9638 5.98166 16.9371 6.00826C16.9104 6.03486 16.8952 6.07089 16.8948 6.10859V10.0327H16.8817C16.8814 10.0447 16.8836 10.0566 16.8881 10.0677C16.8926 10.0789 16.8993 10.089 16.9078 10.0974C16.9163 10.1059 16.9264 10.1125 16.9375 10.117C16.9487 10.1214 16.9606 10.1235 16.9726 10.1232H18.0956C18.1075 10.1235 18.1195 10.1214 18.1306 10.117C18.1418 10.1125 18.1519 10.1059 18.1604 10.0974C18.1689 10.089 18.1756 10.0789 18.1801 10.0677C18.1845 10.0566 18.1867 10.0447 18.1864 10.0327V6.89732H18.485C18.557 6.8976 18.6261 6.92626 18.6771 6.97708C18.7281 7.02791 18.7571 7.0968 18.7577 7.16882V10.0327C18.7574 10.0447 18.7596 10.0566 18.764 10.0677C18.7685 10.0789 18.7752 10.089 18.7837 10.0974C18.7922 10.1059 18.8023 10.1125 18.8135 10.117C18.8246 10.1214 18.8365 10.1235 18.8485 10.1232H19.978C19.9899 10.1235 20.0019 10.1214 20.013 10.117C20.0242 10.1125 20.0343 10.1059 20.0428 10.0974C20.0513 10.089 20.058 10.0789 20.0625 10.0677C20.0669 10.0566 20.0691 10.0447 20.0688 10.0327V6.90362C20.0681 6.65459 19.9686 6.41603 19.7921 6.24031C19.6157 6.06459 19.3767 5.96606 19.1276 5.96636ZM16.33 5.95984H15.2071C15.1951 5.95952 15.1832 5.96164 15.172 5.96606C15.1609 5.97049 15.1508 5.97714 15.1423 5.9856C15.1338 5.99406 15.1271 6.00416 15.1226 6.01528C15.1181 6.02641 15.1159 6.03833 15.1162 6.05032V9.18591H14.8176C14.7456 9.18563 14.6766 9.15697 14.6255 9.10615C14.5745 9.05533 14.5456 8.98643 14.545 8.91441V6.05042C14.5453 6.03843 14.5431 6.02651 14.5386 6.01539C14.5341 6.00427 14.5274 5.99417 14.5189 5.98571C14.5104 5.97725 14.5003 5.9706 14.4892 5.96617C14.478 5.96174 14.4661 5.95962 14.4541 5.95994H13.3247C13.3127 5.95962 13.3008 5.96173 13.2896 5.96616C13.2785 5.97059 13.2684 5.97724 13.2599 5.9857C13.2514 5.99416 13.2447 6.00426 13.2402 6.01538C13.2357 6.02651 13.2335 6.03843 13.2338 6.05042V9.17949C13.2345 9.42854 13.334 9.66714 13.5105 9.84289C13.6869 10.0186 13.9259 10.1172 14.175 10.1168H16.2651C16.3028 10.1166 16.3389 10.1016 16.3656 10.075C16.3923 10.0484 16.4075 10.0124 16.4079 9.97468V6.05042H16.421C16.4213 6.03842 16.4191 6.02649 16.4146 6.01536C16.4101 6.00423 16.4034 5.99412 16.3949 5.98566C16.3864 5.9772 16.3763 5.97055 16.3651 5.96613C16.354 5.96171 16.342 5.9595 16.33 5.95984ZM12.7015 4.3631H11.4617C11.4497 4.36278 11.4377 4.3649 11.4266 4.36934C11.4155 4.37377 11.4053 4.38042 11.3968 4.38888C11.3883 4.39734 11.3816 4.40745 11.3772 4.41857C11.3727 4.4297 11.3705 4.44162 11.3708 4.45361V6.52226H10.3714V4.45361C10.3716 4.44162 10.3695 4.4297 10.365 4.41857C10.3605 4.40745 10.3538 4.39734 10.3453 4.38888C10.3368 4.38042 10.3267 4.37377 10.3155 4.36934C10.3044 4.3649 10.2925 4.36278 10.2805 4.3631H9.0406C9.02861 4.36278 9.01668 4.3649 9.00554 4.36934C8.99439 4.37377 8.98426 4.38042 8.97577 4.38888C8.96727 4.39734 8.96058 4.40745 8.9561 4.41857C8.95163 4.4297 8.94946 4.44162 8.94973 4.45361V10.0392C8.94946 10.0512 8.95163 10.0631 8.9561 10.0743C8.96058 10.0854 8.96727 10.0955 8.97577 10.1039C8.98426 10.1124 8.99439 10.1191 9.00554 10.1235C9.01668 10.1279 9.02861 10.13 9.0406 10.1297H10.2805C10.2925 10.13 10.3044 10.1279 10.3155 10.1235C10.3267 10.1191 10.3368 10.1124 10.3453 10.1039C10.3538 10.0955 10.3605 10.0854 10.365 10.0743C10.3695 10.0631 10.3716 10.0512 10.3714 10.0392V7.77656H11.371V10.0392C11.3707 10.0512 11.3729 10.0631 11.3773 10.0743C11.3818 10.0854 11.3885 10.0955 11.397 10.1039C11.4055 10.1124 11.4156 10.1191 11.4268 10.1235C11.4379 10.1279 11.4498 10.13 11.4618 10.1297H12.7017C12.7137 10.13 12.7256 10.1279 12.7367 10.1234C12.7478 10.119 12.7579 10.1123 12.7664 10.1039C12.7749 10.0954 12.7816 10.0853 12.786 10.0742C12.7905 10.0631 12.7927 10.0512 12.7924 10.0392V4.45361C12.7927 4.44162 12.7905 4.42971 12.786 4.41858C12.7815 4.40746 12.7749 4.39736 12.7664 4.38889C12.7579 4.38043 12.7477 4.37378 12.7366 4.36935C12.7255 4.36491 12.7135 4.36279 12.7015 4.3631Z" fill="#766D65"/>
<path d="M7.54792 6.11963V9.88029C7.54285 9.92401 7.52793 9.96601 7.50429 10.0031C7.48065 10.0403 7.4489 10.0716 7.41143 10.0947L6.65752 10.5298V5.47012L7.41143 5.90519C7.44927 5.92788 7.48131 5.95907 7.505 5.99629C7.52869 6.03351 7.54338 6.07574 7.54792 6.11963ZM4.21378 11.9392L5.10418 11.4261V8.98395L4.21378 9.49707V11.9392ZM5.43565 7.37967L2.9983 8.78922V11.4263L3.88221 11.9394V9.32172L5.43555 8.42538V11.2314L6.32592 10.7248V5.27523L5.43565 4.76861V7.37967ZM3.8823 4.06064L2.99843 4.57375V7.01593L3.8823 6.50282V4.06064ZM5.10421 4.57395L4.21378 4.0608V6.67836L2.66046 7.57453V4.76848L1.77656 5.28176V10.7247L2.66046 11.2313V8.62024L5.10434 7.21069L5.10421 4.57395ZM0.554688 6.11959V9.88029C0.559221 9.92416 0.573917 9.96638 0.597608 10.0036C0.6213 10.0408 0.653335 10.072 0.691173 10.0946L1.44509 10.5298V5.47009L0.691173 5.90519C0.653692 5.92828 0.621937 5.95957 0.598296 5.99671C0.574656 6.03385 0.559745 6.07586 0.554688 6.11959Z" fill="#5BA63C"/>
</g>
</g>
<defs>
<clipPath id="clip0_806_1620">
<rect width="40" height="16" fill="white" transform="translate(0.554688)"/>
</clipPath>
<clipPath id="clip1_806_1620">
<rect width="40" height="7.87874" fill="white" transform="translate(0.554688 4.06064)"/>
</clipPath>
</defs>
</svg>
