<svg width="41" height="16" viewBox="0 0 41 16" fill="none" xmlns="http://www.w3.org/2000/svg">
<g clip-path="url(#clip0_875_713)">
<g clip-path="url(#clip1_875_713)">
<path fill-rule="evenodd" clip-rule="evenodd" d="M40.8647 14.8736V15.931H35.6016V14.8736H40.8647ZM28.2332 14.8736V15.931H22.97V14.8736H28.2332ZM32.3396 14.8736L31.9162 15.931L31.4983 14.8736H32.3396ZM20.549 14.8736C19.7938 15.5303 18.7978 15.931 17.6858 15.931H9.2858V14.8736H20.549ZM8.23317 14.8736V15.931H0.864746V14.8736H8.23317ZM28.2332 12.7586V13.8161H22.97V12.7586H28.2332ZM33.1626 12.7586L32.7528 13.8161H31.0863L30.6735 12.7586H33.1626ZM21.6016 12.7586C21.5066 13.1346 21.3548 13.4896 21.1595 13.8161H9.2858V12.7586H21.6016ZM8.23317 12.7586V13.8161H0.864746V12.7586H8.23317ZM40.8647 12.7586V13.8161H35.6016V12.7586H40.8647ZM38.7595 10.6437V11.7012H35.6016V10.6437H38.7595ZM28.2332 10.6437V11.7012H25.0753V10.6437H28.2332ZM33.9884 10.6437L33.5748 11.7012H30.2602L29.8434 10.6437H33.9884ZM21.4542 10.6437C21.5488 10.9808 21.6016 11.335 21.6016 11.7012H17.7069V10.6437H21.4542ZM14.549 10.6437V11.7012H11.3911V10.6437H14.549ZM6.1279 10.6437V11.7012H2.97001V10.6437H6.1279ZM38.7595 8.52874V9.58621H35.6016V8.52874H38.7595ZM28.2332 8.52874V9.58621H25.0753V8.52874H28.2332ZM34.8132 8.52874L34.4016 9.58621H29.4226L29.0143 8.52874H34.8132ZM20.1595 8.52874C20.5225 8.82724 20.8351 9.18495 21.0753 9.58621H11.3911V8.52874H20.1595ZM6.1279 8.52874V9.58621H2.97001V8.52874H6.1279ZM31.6225 6.4138L31.9174 7.26852L32.212 6.4138H38.7595V7.47127H35.6016V6.49955L35.2437 7.47127H28.5805L28.2332 6.49945V7.47127H25.0753V6.4138H31.6225ZM6.1279 6.4138V7.47127H2.97001V6.4138H6.1279ZM21.0753 6.4138C20.8351 6.81506 20.5225 7.17268 20.1595 7.47127H11.3911V6.4138H21.0753ZM38.7595 4.29885V5.35633H32.5772L32.9498 4.29885H38.7595ZM30.8884 4.29885L31.261 5.35633H25.0753V4.29885H30.8884ZM21.6016 4.29885C21.6016 4.66493 21.5488 5.01909 21.4542 5.35633H17.7069V4.29885H21.6016ZM14.549 4.29885V5.35633H11.3911V4.29885H14.549ZM6.1279 4.29885V5.35633H2.97001V4.29885H6.1279ZM30.1595 2.18391L30.5254 3.24138H22.9701L22.97 2.18391H30.1595ZM40.8647 2.18391V3.24138H33.3055L33.6857 2.18391H40.8647ZM21.1595 2.18391C21.3548 2.51038 21.5066 2.8654 21.6016 3.24138H9.2858V2.18391H21.1595ZM8.23317 2.18391V3.24138H0.864746V2.18391H8.23317ZM29.4204 0.0689697L29.7932 1.12644H22.9701L22.97 0.0689697H29.4204ZM40.8647 0.0689697V1.12644H34.0502L34.4142 0.0689697H40.8647ZM17.6858 0.0689697C18.7897 0.0689697 19.7939 0.469751 20.549 1.12644H9.2858V0.0689697H17.6858ZM8.23317 0.0689697V1.12644H0.864746V0.0689697H8.23317Z" fill="#161616"/>
</g>
</g>
<defs>
<clipPath id="clip0_875_713">
<rect width="40" height="16" fill="white" transform="translate(0.864746)"/>
</clipPath>
<clipPath id="clip1_875_713">
<rect width="40" height="15.8621" fill="white" transform="translate(0.864746 0.0689697)"/>
</clipPath>
</defs>
</svg>
