<svg width="16" height="16" viewBox="0 0 16 16" fill="none" xmlns="http://www.w3.org/2000/svg">
<g clip-path="url(#clip0_879_3933)">
<path d="M7.72996 15.9999C6.18914 16.0068 5.00761 15.5668 4.44211 15.2684C3.33417 14.6868 2.4213 13.9168 1.63535 12.8482C0.505834 11.3162 0.287197 10.0826 0.197205 9.41085C0.1443 9.06108 0.0814153 8.2204 0.199446 7.46621C0.332996 6.37801 0.580307 5.83598 0.757204 5.30554C0.894772 4.92845 1.33852 4.02087 1.60186 3.60465C1.82561 3.27843 2.23426 2.67732 2.40092 2.46512C2.44646 2.39847 2.38734 2.43001 2.36227 2.43069C2.30116 2.44558 2.26961 2.44934 2.2225 2.44558C2.18719 2.44558 2.11652 2.43378 2.07719 2.42202C1.8572 2.37512 1.54278 2.13137 1.58211 1.7069C1.57432 1.61268 1.67633 0.803597 1.75499 0.552016C1.8572 0.198686 2.0692 0.0335869 2.44651 0.00203883C2.63495 0.00203883 3.42847 -0.0137352 3.78891 0.0424678C4.51066 0.114233 5.03907 0.324244 5.35329 0.960703C5.60483 1.51846 5.5186 2.39069 5.17284 3.05848C5.05485 3.28625 4.81929 3.71071 4.61487 3.9856C4.42642 4.26048 4.34776 4.40228 4.18267 4.7085C4.01778 5.03049 3.4678 6.2327 3.27936 7.01827C2.9207 8.4845 3.12204 9.32826 3.81335 10.4756C4.32421 11.2376 4.9213 11.7878 5.38483 12.0391C6.14702 12.5182 7.18785 12.652 7.73009 12.652C8.27229 12.652 9.31312 12.5183 10.0756 12.0391C10.5389 11.7878 11.136 11.2376 11.6466 10.4756C12.3381 9.32826 12.5395 8.4845 12.181 7.01827C11.9926 6.23274 11.4424 5.03049 11.2775 4.7085C11.1126 4.40228 11.034 4.26048 10.8453 3.9856C10.6413 3.71071 10.4053 3.28625 10.2873 3.05848C9.9418 2.39073 9.85557 1.5185 10.1069 0.960703C10.4209 0.324244 10.9498 0.114276 11.6713 0.0424678C12.0315 -0.0137352 12.8252 0.00203883 13.0137 0.00203883C13.391 0.0335869 13.6032 0.198686 13.7052 0.552016C13.7836 0.803555 13.8861 1.61268 13.8781 1.7069C13.9174 2.13137 13.6032 2.37512 13.383 2.42202C13.3441 2.43382 13.273 2.44558 13.2377 2.44558C13.1906 2.44934 13.1592 2.44558 13.0979 2.43069C13.0728 2.43001 13.0137 2.39847 13.0593 2.46512C13.2259 2.67732 13.6344 3.27843 13.8586 3.60465C14.1217 4.02087 14.5657 4.9284 14.703 5.30554C14.8799 5.83598 15.1272 6.37797 15.2607 7.46621C15.3787 8.22044 15.3158 9.06108 15.2632 9.41085C15.173 10.0826 14.9548 11.3162 13.8248 12.8482C13.0388 13.9168 12.126 14.6868 11.0182 15.2684C10.4527 15.5668 9.27121 15.9928 7.73013 15.9999" fill="#FFFFFE"/>
<path d="M7.72147 14.4855C7.82347 14.4855 7.90636 14.4028 7.90636 14.3008C7.90636 14.1986 7.82347 14.1157 7.72147 14.1157C7.61926 14.1157 7.53658 14.1986 7.53658 14.3008C7.53658 14.4028 7.61926 14.4855 7.72147 14.4855ZM2.79989 12.1442C2.9021 12.1442 2.98478 12.0615 2.98478 11.9593C2.98478 11.857 2.9021 11.7742 2.79989 11.7742C2.69788 11.7742 2.615 11.857 2.615 11.9593C2.615 12.0615 2.69788 12.1442 2.79989 12.1442ZM1.70014 7.87019C1.80215 7.87019 1.88503 7.7873 1.88503 7.6853C1.88503 7.58288 1.80215 7.5002 1.70014 7.5002C1.59793 7.5002 1.51525 7.58288 1.51525 7.6853C1.51525 7.7873 1.59793 7.87019 1.70014 7.87019ZM3.8685 2.84157C3.97072 2.84157 4.05339 2.75889 4.05339 2.65668C4.05339 2.55447 3.97072 2.47179 3.8685 2.47179C3.76629 2.47179 3.6834 2.55447 3.6834 2.65668C3.6834 2.75889 3.76629 2.84157 3.8685 2.84157ZM12.8464 11.9593C12.8464 11.8571 12.7635 11.7742 12.6615 11.7742C12.5595 11.7742 12.4764 11.8571 12.4764 11.9593C12.4764 12.0615 12.5595 12.1442 12.6615 12.1442C12.7635 12.1442 12.8464 12.0615 12.8464 11.9593ZM13.9463 7.68534C13.9463 7.58292 13.8635 7.50024 13.7612 7.50024C13.6592 7.50024 13.5763 7.58292 13.5763 7.68534C13.5763 7.78735 13.6592 7.87023 13.7612 7.87023C13.8635 7.87023 13.9463 7.78735 13.9463 7.68534ZM11.778 2.65672C11.778 2.55451 11.6951 2.47183 11.5929 2.47183C11.4907 2.47183 11.408 2.55451 11.408 2.65672C11.408 2.75894 11.4907 2.84161 11.5929 2.84161C11.6951 2.84161 11.778 2.75894 11.778 2.65672ZM4.28472 14.7495C3.2792 14.1527 2.36769 13.3984 1.48772 11.9467C1.09485 11.2298 0.183552 9.70556 0.63288 7.05003C1.15131 4.62205 2.19506 3.39628 2.79215 2.55561C3.07481 2.14717 2.78415 1.91141 2.55617 1.99785C2.36528 2.07029 2.23418 2.07494 2.23418 2.07494C1.89641 2.02919 1.94352 1.80941 2.00641 1.23562L2.08506 0.764303C2.15552 0.347877 2.34417 0.355658 2.83905 0.365215C3.62479 0.380778 3.76612 0.387206 4.19054 0.465653C4.75629 0.591423 5.49471 1.15722 4.9134 2.71276C4.55186 3.54565 4.17477 3.82832 3.76612 4.69276C3.32614 5.65142 2.25773 7.80409 2.98059 9.64272C3.97055 12.1098 5.88758 12.9898 7.71039 13.0214C9.5332 12.9976 11.6387 11.9212 12.4809 9.64272C13.2037 7.80405 12.1353 5.65142 11.6951 4.69276C11.2867 3.82832 10.9096 3.54565 10.5481 2.71276C9.96676 1.15722 10.7054 0.591423 11.2709 0.465653C11.6951 0.387206 11.8367 0.380778 12.6224 0.365215C13.1173 0.355658 13.3062 0.347877 13.3768 0.764303L13.4553 1.23562C13.5179 1.80941 13.5653 2.02919 13.2275 2.07494C13.2275 2.07494 13.0964 2.07029 12.9053 1.99785C12.6773 1.91141 12.3864 2.14717 12.6693 2.55561C13.2666 3.39628 14.3099 4.62205 14.8286 7.05003C15.2779 9.70556 14.3666 11.2298 13.9737 11.9467C13.094 13.3984 12.1825 14.1527 11.1767 14.7495C9.80014 15.7084 7.22334 15.6531 7.71822 15.622C8.23686 15.6613 5.82474 15.724 4.2848 14.7495H4.28472Z" fill="#002C5F"/>
</g>
<defs>
<clipPath id="clip0_879_3933">
<rect width="15.1955" height="16" fill="white" transform="translate(0.132324)"/>
</clipPath>
</defs>
</svg>
