<svg width="17" height="16" viewBox="0 0 17 16" fill="none" xmlns="http://www.w3.org/2000/svg">
<g clip-path="url(#clip0_2_7195)">
<g opacity="0.783251">
<g filter="url(#filter0_f_2_7195)">
<path d="M7.68598 1.49374L2.56718 6.73678C0.629 8.67496 3.82203 8.51345 4.97749 9.24648C5.51173 9.59436 3.26294 10.0416 3.72264 10.5013C4.16991 10.961 6.4187 11.3835 6.86598 11.8307C7.31325 12.2904 5.95901 12.775 6.40628 13.2347C6.84113 13.6944 7.88477 13.2595 8.07113 14.3032C8.2078 15.0735 9.98446 14.6883 10.7796 14.0298C11.2766 13.6074 9.92234 13.6074 10.3696 13.1477C11.4878 12.0171 12.4817 12.6383 12.8917 11.5947C13.1154 11.0356 11.202 10.638 11.7114 10.2777C12.929 9.42042 17.4017 8.98557 15.3393 6.92314L10.0342 1.49374C9.37568 0.872529 8.29477 0.872529 7.68598 1.49374ZM13.5627 11.5947C13.5627 11.8556 15.5878 12.0047 15.476 11.5325C15.3145 10.7374 13.7863 10.7995 13.5627 11.5947ZM4.92779 12.9738C5.38749 13.3713 6.08325 12.8868 6.30689 12.3277C5.85961 11.7438 4.20719 12.365 4.92779 12.9738ZM13.3142 12.1413C12.7426 12.6631 13.4136 13.2098 13.9727 12.8495C14.1217 12.7501 13.9602 12.2656 13.3142 12.1413Z" fill="black"/>
</g>
<g opacity="0.576355" filter="url(#filter1_f_2_7195)">
<path d="M7.68598 1.61532L2.56718 6.85836C0.629 8.79654 3.82203 8.63503 4.97749 9.36806C5.51173 9.71594 3.26294 10.1632 3.72264 10.6229C4.16991 11.0826 6.4187 11.505 6.86598 11.9523C7.31325 12.412 5.95901 12.8965 6.40628 13.3562C6.84113 13.8159 7.88477 13.3811 8.07113 14.4247C8.2078 15.195 9.98446 14.8099 10.7796 14.1514C11.2766 13.729 9.92234 13.729 10.3696 13.2693C11.4878 12.1387 12.4817 12.7599 12.8917 11.7162C13.1154 11.1572 11.202 10.7596 11.7114 10.3993C12.929 9.542 17.4017 9.10715 15.3393 7.04472L10.0342 1.61532C9.37568 0.994111 8.29477 0.994111 7.68598 1.61532ZM13.5627 11.7162C13.5627 11.9772 15.5878 12.1262 15.476 11.6541C15.3145 10.859 13.7863 10.9211 13.5627 11.7162ZM4.92779 13.0953C5.38749 13.4929 6.08325 13.0084 6.30689 12.4493C5.85961 11.8653 4.20719 12.4865 4.92779 13.0953ZM13.3142 12.2629C12.7426 12.7847 13.4136 13.3314 13.9727 12.9711C14.1217 12.8717 13.9602 12.3872 13.3142 12.2629Z" fill="black"/>
</g>
</g>
<path d="M7.68598 1.37216L2.56718 6.6152C0.629 8.55338 3.82203 8.39186 4.97749 9.1249C5.51173 9.47278 3.26294 9.92005 3.72264 10.3797C4.16991 10.8394 6.4187 11.2619 6.86598 11.7091C7.31325 12.1688 5.95901 12.6534 6.40628 13.1131C6.84113 13.5728 7.88477 13.1379 8.07113 14.1816C8.2078 14.9519 9.98446 14.5667 10.7796 13.9082C11.2766 13.4858 9.92234 13.4858 10.3696 13.0261C11.4878 11.8955 12.4817 12.5167 12.8917 11.4731C13.1154 10.914 11.202 10.5164 11.7114 10.1561C12.929 9.29883 17.4017 8.86399 15.3393 6.80156L10.0342 1.37216C9.37568 0.750947 8.29477 0.750947 7.68598 1.37216ZM13.5627 11.4731C13.5627 11.734 15.5878 11.8831 15.476 11.411C15.3145 10.6158 13.7863 10.6779 13.5627 11.4731ZM4.92779 12.8522C5.38749 13.2497 6.08325 12.7652 6.30689 12.2061C5.85961 11.6222 4.20719 12.2434 4.92779 12.8522ZM13.3142 12.0197C12.7426 12.5416 13.4136 13.0882 13.9727 12.7279C14.1217 12.6285 13.9602 12.144 13.3142 12.0197Z" fill="black"/>
<path d="M7.69772 1.4327L2.62733 6.62615C0.707471 8.54601 3.87031 8.38602 5.01484 9.11212C5.54403 9.45671 3.31651 9.89976 3.77186 10.3551C4.2149 10.8105 6.44243 11.2289 6.88547 11.6719C7.32852 12.1273 5.98708 12.6072 6.43012 13.0626C6.86086 13.5179 7.89463 13.0872 8.07923 14.121C8.2146 14.884 9.97447 14.5025 10.7621 13.8502C11.2544 13.4318 9.91294 13.4318 10.356 12.9765C11.4636 11.8565 12.4481 12.4719 12.8543 11.4381C13.0758 10.8843 11.1805 10.4905 11.6851 10.1336C12.8912 9.28442 17.3216 8.85368 15.2787 6.81076L10.0237 1.4327C9.37144 0.817357 8.30075 0.817357 7.69772 1.4327ZM6.47935 9.39518C6.59011 9.39518 10.2698 9.88745 8.85456 10.269C8.31306 10.4166 5.82709 9.39518 6.47935 9.39518ZM13.5188 11.4381C13.5188 11.6965 15.5248 11.8442 15.4141 11.3766C15.2541 10.5889 13.7403 10.6505 13.5188 11.4381ZM4.96561 12.8042C5.42097 13.198 6.11015 12.718 6.33167 12.1642C5.88862 11.5858 4.25182 12.2011 4.96561 12.8042ZM13.2727 11.9796C12.7066 12.4965 13.3711 13.038 13.9249 12.6811C14.0726 12.5826 13.9126 12.1027 13.2727 11.9796Z" fill="url(#paint0_linear_2_7195)"/>
<path opacity="0.505263" d="M3.02293 6.90601C1.63117 8.28523 4.07615 7.89654 5.9569 8.6363L9.84379 1.80289C9.25449 1.20105 8.50219 1.25121 7.96304 1.80289L3.02293 6.90601Z" fill="url(#paint1_linear_2_7195)"/>
<path d="M9.72375 1.74492L11.7489 3.80734C11.9353 3.99371 11.9353 4.37886 11.8235 4.49068L10.8171 3.67067L10.6183 4.87583L9.78587 4.42855L8.43163 5.28583L7.98436 3.48431L7.26375 5.04977L5.46223 5.03734C5.11435 5.03734 5.16405 4.67704 5.52435 4.31674C6.23254 3.53401 7.61163 2.20461 8.04648 1.74492C8.49375 1.28522 9.27648 1.29764 9.72375 1.74492Z" fill="url(#paint2_linear_2_7195)"/>
<path opacity="0.216749" fill-rule="evenodd" clip-rule="evenodd" d="M6.94402 11.4883C6.94402 11.4883 7.16384 11.8239 7.14144 11.9818C7.09747 12.2917 6.43012 12.4463 6.57798 12.7221C6.72406 12.9946 7.2506 12.8402 7.69255 13.1252C8.13262 13.409 8.0143 13.9873 8.33415 14.1328C8.95793 14.4166 10.5962 13.6434 10.5139 13.6598C10.4317 13.6763 8.8971 13.9951 8.55162 13.7155C8.15772 13.3966 8.04478 13.1739 7.75424 12.9853C7.48198 12.8087 7.09951 12.7366 7.01049 12.5919C6.92147 12.4473 7.18877 12.2606 7.20724 11.9818C7.21834 11.8144 6.94402 11.4883 6.94402 11.4883Z" fill="url(#paint3_radial_2_7195)"/>
<g opacity="0.275862" filter="url(#filter2_f_2_7195)">
<path fill-rule="evenodd" clip-rule="evenodd" d="M6.94402 11.4883C6.94402 11.4883 7.16384 11.8239 7.14144 11.9818C7.09747 12.2917 6.43012 12.4463 6.57798 12.7221C6.72406 12.9946 7.2506 12.8402 7.69255 13.1252C8.13262 13.409 8.0143 13.9873 8.33415 14.1328C8.95793 14.4166 10.5962 13.6434 10.5139 13.6598C7.79359 13.6702 8.30126 12.9692 7.25248 12.5083C7.10093 12.4416 7.18877 12.2606 7.20724 11.9818C7.21834 11.8144 6.94402 11.4883 6.94402 11.4883Z" fill="url(#paint4_radial_2_7195)"/>
</g>
<path opacity="0.453202" fill-rule="evenodd" clip-rule="evenodd" d="M11.5669 10.057C14.0085 9.1585 14.7929 9.03505 15.5975 8.23096C14.6656 9.01757 12.6956 9.43952 11.0898 10.1393L11.5669 10.057Z" fill="url(#paint5_radial_2_7195)"/>
<g opacity="0.512315" filter="url(#filter3_f_2_7195)">
<path fill-rule="evenodd" clip-rule="evenodd" d="M11.5669 9.94181C15.5879 8.51683 14.9081 8.52499 15.5975 8.11572C14.319 8.60509 11.9299 8.65728 11.0898 10.0241L11.5669 9.94181Z" fill="url(#paint6_radial_2_7195)"/>
</g>
<path opacity="0.285714" d="M15.0793 11.0808C15.0793 11.1234 15.0243 11.1641 14.9263 11.1942C14.8284 11.2243 14.6955 11.2412 14.557 11.2412C14.4185 11.2412 14.2856 11.2243 14.1877 11.1942C14.0897 11.1641 14.0347 11.1234 14.0347 11.0808C14.0347 11.0383 14.0897 10.9975 14.1877 10.9674C14.2856 10.9373 14.4185 10.9204 14.557 10.9204C14.6955 10.9204 14.8284 10.9373 14.9263 10.9674C15.0243 10.9975 15.0793 11.0383 15.0793 11.0808Z" fill="url(#paint7_linear_2_7195)"/>
<g opacity="0.620689" filter="url(#filter4_f_2_7195)">
<path d="M15.2606 11.2659C15.2606 11.3575 15.1865 11.4454 15.0546 11.5102C14.9227 11.575 14.7438 11.6114 14.5573 11.6114C14.3708 11.6114 14.1919 11.575 14.06 11.5102C13.9281 11.4454 13.854 11.3575 13.854 11.2659C13.854 11.1743 13.9281 11.0864 14.06 11.0216C14.1919 10.9568 14.3708 10.9204 14.5573 10.9204C14.7438 10.9204 14.9227 10.9568 15.0546 11.0216C15.1865 11.0864 15.2606 11.1743 15.2606 11.2659Z" fill="url(#paint8_linear_2_7195)"/>
</g>
<g filter="url(#filter5_f_2_7195)">
<path fill-rule="evenodd" clip-rule="evenodd" d="M13.5986 11.4579C13.8467 11.6872 15.2277 11.8048 15.4535 11.3921C15.0102 11.7069 14.0244 11.5963 13.5986 11.4579Z" fill="url(#paint9_radial_2_7195)"/>
</g>
<path opacity="0.285714" d="M13.6038 12.2236C13.6159 12.2473 13.6235 12.273 13.6264 12.2992C13.6292 12.3254 13.6272 12.3515 13.6204 12.3761C13.6136 12.4007 13.6021 12.4233 13.5867 12.4425C13.5712 12.4618 13.5521 12.4774 13.5304 12.4884C13.5087 12.4994 13.4849 12.5056 13.4602 12.5067C13.4355 12.5077 13.4105 12.5036 13.3867 12.4946C13.3628 12.4855 13.3405 12.4717 13.3211 12.454C13.3017 12.4362 13.2855 12.4148 13.2735 12.391C13.2614 12.3673 13.2537 12.3416 13.2508 12.3154C13.248 12.2892 13.25 12.2631 13.2569 12.2385C13.2637 12.2139 13.2751 12.1913 13.2906 12.1721C13.306 12.1528 13.3251 12.1372 13.3468 12.1262C13.3685 12.1152 13.3924 12.109 13.417 12.1079C13.4417 12.1069 13.4667 12.111 13.4905 12.12C13.5144 12.1291 13.5367 12.1429 13.5561 12.1606C13.5756 12.1784 13.5917 12.1998 13.6038 12.2236Z" fill="url(#paint10_linear_2_7195)"/>
<g opacity="0.620689" filter="url(#filter6_f_2_7195)">
<path d="M13.7014 12.2675C13.7195 12.303 13.7311 12.3413 13.7357 12.3803C13.7402 12.4193 13.7376 12.4581 13.7279 12.4946C13.7183 12.5311 13.7018 12.5645 13.6795 12.593C13.6571 12.6214 13.6293 12.6443 13.5976 12.6604C13.5659 12.6765 13.531 12.6853 13.4949 12.6866C13.4587 12.6878 13.422 12.6813 13.3869 12.6676C13.3518 12.6538 13.3189 12.6329 13.2901 12.6062C13.2614 12.5795 13.2373 12.5475 13.2193 12.5119C13.2012 12.4764 13.1896 12.438 13.1851 12.3991C13.1805 12.3601 13.1832 12.3212 13.1928 12.2847C13.2024 12.2482 13.2189 12.2148 13.2413 12.1864C13.2636 12.1579 13.2914 12.135 13.3231 12.119C13.3548 12.1029 13.3897 12.094 13.4259 12.0928C13.462 12.0916 13.4987 12.098 13.5338 12.1118C13.569 12.1256 13.6019 12.1464 13.6306 12.1732C13.6594 12.1999 13.6834 12.2319 13.7014 12.2675Z" fill="url(#paint11_linear_2_7195)"/>
</g>
<g filter="url(#filter7_f_2_7195)">
<path fill-rule="evenodd" clip-rule="evenodd" d="M13.2603 12.687C13.4596 12.843 14.2099 12.863 13.9252 12.4096C13.9995 12.7647 13.487 12.7272 13.2603 12.687Z" fill="url(#paint12_radial_2_7195)"/>
</g>
<path fill-rule="evenodd" clip-rule="evenodd" d="M3.99951 10.3364C3.99951 10.2956 6.55578 11.1155 6.99363 11.5538C6.6336 11.2025 4.81156 10.3946 4.53418 10.3858C4.25679 10.377 4.03241 10.3529 3.99951 10.3364Z" fill="url(#paint13_radial_2_7195)"/>
<path opacity="0.285714" d="M5.92013 12.0926C5.93007 12.1222 5.89124 12.1612 5.81217 12.2011C5.7331 12.2409 5.62027 12.2783 5.4985 12.3051C5.37673 12.3318 5.256 12.3457 5.16286 12.3437C5.06972 12.3416 5.01181 12.3238 5.00186 12.2942C4.99191 12.2646 5.03075 12.2256 5.10982 12.1858C5.18889 12.1459 5.30172 12.1085 5.42349 12.0818C5.54526 12.0551 5.66599 12.0412 5.75913 12.0432C5.85227 12.0453 5.91018 12.063 5.92013 12.0926Z" fill="url(#paint14_linear_2_7195)"/>
<g opacity="0.620689" filter="url(#filter8_f_2_7195)">
<path d="M6.12236 12.1867C6.14379 12.2505 6.0992 12.326 5.99842 12.3965C5.89763 12.467 5.7489 12.5269 5.58495 12.5629C5.42099 12.5989 5.25524 12.6081 5.12415 12.5885C4.99306 12.5688 4.90738 12.522 4.88596 12.4582C4.86453 12.3944 4.90912 12.319 5.0099 12.2484C5.11069 12.1779 5.25942 12.118 5.42338 12.082C5.58733 12.046 5.75309 12.0368 5.88417 12.0565C6.01526 12.0761 6.10094 12.123 6.12236 12.1867Z" fill="url(#paint15_linear_2_7195)"/>
</g>
<g opacity="0.615764" filter="url(#filter9_f_2_7195)">
<path fill-rule="evenodd" clip-rule="evenodd" d="M4.81787 12.5083C4.81787 12.5083 4.95628 12.8801 5.33608 12.899C5.72031 12.9181 6.15886 12.4379 6.19566 12.2656C6.12986 12.4137 5.76198 12.8601 5.28673 12.8538C5.01694 12.8502 4.81787 12.5083 4.81787 12.5083Z" fill="url(#paint16_radial_2_7195)"/>
</g>
<g filter="url(#filter10_f_2_7195)">
<path d="M8.84231 1.08887C8.45738 1.08887 8.08013 1.22827 7.81342 1.50042L2.69618 6.7419C2.22833 7.20975 2.11594 7.51602 2.14486 7.68925C2.15931 7.77587 2.20183 7.85114 2.29239 7.92997C2.38296 8.0088 2.51994 8.08607 2.68454 8.15516C3.01372 8.29335 3.45707 8.40465 3.89202 8.52401C4.32696 8.64336 4.753 8.76934 5.0762 8.97439C5.12548 9.00648 5.17176 9.04601 5.20433 9.10251C5.2369 9.15902 5.24834 9.23372 5.23539 9.29664C5.20949 9.42248 5.13202 9.48884 5.05291 9.54901C4.89469 9.66934 4.67729 9.76932 4.45887 9.87515C4.24046 9.98097 4.02093 10.0892 3.91143 10.178C3.85668 10.2224 3.83687 10.2622 3.83766 10.2595C3.83846 10.2568 3.82314 10.2256 3.84931 10.2518C3.91786 10.3222 4.13185 10.4429 4.40452 10.5507C4.67719 10.6586 5.0109 10.7676 5.34799 10.8769C5.68507 10.9861 6.02604 11.0943 6.31475 11.2069C6.60346 11.3195 6.83877 11.4242 6.9942 11.5796C7.07156 11.6591 7.12622 11.758 7.13786 11.8591C7.14949 11.9603 7.1221 12.0552 7.0835 12.1348C7.0063 12.294 6.88219 12.4165 6.76901 12.5347C6.65583 12.6529 6.5533 12.7658 6.51664 12.8414C6.49831 12.8792 6.49548 12.9039 6.49723 12.9191C6.49898 12.9343 6.5016 12.9497 6.53606 12.9851C6.53737 12.9864 6.53866 12.9877 6.53994 12.989C6.68823 13.1457 7.01044 13.1678 7.37469 13.253C7.55682 13.2956 7.74728 13.3601 7.91049 13.5015C8.07369 13.6429 8.19618 13.8581 8.24827 14.1499C8.2702 14.2734 8.33558 14.3336 8.49288 14.3828C8.65017 14.432 8.88975 14.4407 9.15291 14.4022C9.67924 14.3254 10.3034 14.0674 10.6632 13.7694C10.6856 13.7504 10.6794 13.7554 10.6865 13.7461C10.6623 13.7288 10.6056 13.6918 10.5118 13.6451C10.4011 13.5899 10.2702 13.5383 10.1701 13.4122C10.1201 13.3491 10.0857 13.2495 10.1003 13.152C10.1148 13.0546 10.1682 12.9735 10.24 12.8997C10.8297 12.3035 11.4106 12.1612 11.8474 12.0455C12.0658 11.9877 12.2486 11.9348 12.3871 11.8475C12.5256 11.7602 12.6337 11.6408 12.7249 11.4088C12.7349 11.3836 12.7346 11.3764 12.721 11.3466C12.7074 11.3169 12.6708 11.2694 12.6123 11.2185C12.4954 11.1168 12.3004 11.0074 12.1076 10.9001C11.9147 10.7929 11.7273 10.6929 11.5912 10.5662C11.5231 10.5029 11.4518 10.4232 11.4436 10.3022C11.4355 10.1813 11.5148 10.0722 11.6067 10.0072C11.9478 9.76697 12.4635 9.58412 13.0238 9.38982C13.5842 9.19553 14.1869 8.99447 14.6778 8.76473C15.1688 8.53499 15.5298 8.27041 15.6446 8.00374C15.702 7.87041 15.7125 7.73555 15.6524 7.56113C15.5922 7.38671 15.4549 7.17339 15.2097 6.92827L9.91002 1.5043C9.90869 1.50305 9.90747 1.50167 9.90613 1.50042C9.61321 1.22613 9.22549 1.08887 8.84231 1.08887ZM14.5497 11.0283C14.2223 11.0401 13.9211 11.19 13.7926 11.4243C13.8291 11.438 13.862 11.4535 13.9207 11.467C14.0916 11.5063 14.3302 11.5317 14.5652 11.5369C14.8003 11.5421 15.0354 11.5223 15.1787 11.4825C15.2414 11.4651 15.2746 11.4475 15.2913 11.4359C15.2595 11.3004 15.1838 11.2046 15.0544 11.1331C14.9204 11.0591 14.7368 11.0215 14.5497 11.0283ZM5.7906 12.1542C5.53095 12.1362 5.2046 12.2395 5.04514 12.3678C4.96541 12.4319 4.93168 12.4913 4.92867 12.5308C4.92566 12.5704 4.93827 12.623 5.04514 12.7133C5.04516 12.7146 5.04516 12.7159 5.04514 12.7172C5.21322 12.8626 5.40324 12.8474 5.61977 12.7288C5.80128 12.6294 5.96233 12.443 6.07015 12.2474C5.99746 12.2005 5.91055 12.1626 5.7906 12.1542ZM13.3694 12.2319C13.3138 12.3025 13.2836 12.3683 13.2801 12.4144C13.2753 12.4779 13.2933 12.5271 13.3422 12.5735C13.4338 12.6606 13.6328 12.6981 13.8353 12.5891C13.8313 12.5656 13.8237 12.5299 13.7926 12.4842C13.7305 12.393 13.5853 12.2948 13.3694 12.2319Z" stroke="url(#paint17_radial_2_7195)" stroke-width="0.0606685"/>
</g>
<g opacity="0.325123" filter="url(#filter11_f_2_7195)">
<path fill-rule="evenodd" clip-rule="evenodd" d="M6.03657 9.29736C5.72773 9.38848 4.72662 9.76676 4.8687 10.0557C5.00482 10.3325 7.33253 10.4441 7.68979 11.2691C7.84558 11.6289 7.3323 11.9002 7.46228 12.2701C7.56237 12.5549 8.33663 13.2706 8.82647 13.6089C9.21068 13.8743 9.71532 13.3952 9.50984 12.9981C9.18248 12.3655 10.6287 11.5907 11.2844 11.2388C11.6669 11.0334 10.4957 10.0254 10.4957 10.0254L6.03657 9.29736Z" fill="url(#paint18_linear_2_7195)"/>
</g>
<path fill-rule="evenodd" clip-rule="evenodd" d="M6.15091 9.57627C6.42821 9.77994 6.97547 9.6571 7.30414 9.8051C8.09302 10.1603 9.06279 10.5562 8.88433 9.85536L8.68358 10.0221L8.67966 9.70434L8.21351 9.81819C8.21351 9.81819 7.85244 9.52836 7.6869 9.43279C7.65233 9.41282 7.47473 9.59341 7.47473 9.59341L7.44281 9.4016C7.21204 9.37705 6.98359 9.36622 6.78244 9.36783C6.30026 9.3717 5.97498 9.44707 6.15091 9.57627Z" fill="url(#paint19_linear_2_7195)"/>
<g opacity="0.477832" filter="url(#filter12_f_2_7195)">
<path fill-rule="evenodd" clip-rule="evenodd" d="M11.3299 10.2222C11.2231 10.6152 12.642 11.1492 12.5357 11.4204C12.3016 12.0174 11.0204 11.6107 10.0407 12.8612C9.90035 13.0404 10.2379 13.6803 10.1924 13.6044C10.1469 13.5286 9.80014 13 9.88902 12.7399C10.1677 11.9242 12.8625 11.6201 12.3688 11.2308C12.0849 11.0069 11.0641 10.3883 11.3299 10.2222Z" fill="url(#paint20_radial_2_7195)"/>
</g>
<path opacity="0.586207" d="M14.5228 11.0298C14.5228 11.0469 14.5065 11.0633 14.4773 11.0754C14.4482 11.0875 14.4086 11.0943 14.3674 11.0943C14.3261 11.0943 14.2866 11.0875 14.2574 11.0754C14.2283 11.0633 14.2119 11.0469 14.2119 11.0298C14.2119 11.0127 14.2283 10.9963 14.2574 10.9842C14.2866 10.9721 14.3261 10.9653 14.3674 10.9653C14.4086 10.9653 14.4482 10.9721 14.4773 10.9842C14.5065 10.9963 14.5228 11.0127 14.5228 11.0298Z" fill="white"/>
<path opacity="0.586207" d="M13.4838 12.2207C13.4838 12.2378 13.4734 12.2542 13.4549 12.2663C13.4364 12.2784 13.4114 12.2852 13.3852 12.2852C13.3591 12.2852 13.334 12.2784 13.3155 12.2663C13.297 12.2542 13.2866 12.2378 13.2866 12.2207C13.2866 12.2036 13.297 12.1872 13.3155 12.1751C13.334 12.163 13.3591 12.1562 13.3852 12.1562C13.4114 12.1562 13.4364 12.163 13.4549 12.1751C13.4734 12.1872 13.4838 12.2036 13.4838 12.2207Z" fill="white"/>
<path opacity="0.586207" d="M5.61935 12.1636C5.61935 12.1807 5.60098 12.1971 5.56826 12.2092C5.53555 12.2213 5.49119 12.228 5.44493 12.228C5.39867 12.228 5.3543 12.2213 5.32159 12.2092C5.28888 12.1971 5.27051 12.1807 5.27051 12.1636C5.27051 12.1465 5.28888 12.1301 5.32159 12.118C5.3543 12.1059 5.39867 12.0991 5.44493 12.0991C5.49119 12.0991 5.53555 12.1059 5.56826 12.118C5.60098 12.1301 5.61935 12.1465 5.61935 12.1636Z" fill="white"/>
<path opacity="0.251232" d="M5.52083 9.32764C4.63212 9.8773 3.25042 10.0773 4.76247 10.4424C4.58236 10.0414 5.15242 10.0856 5.52083 9.32764Z" fill="url(#paint21_linear_2_7195)"/>
<g opacity="0.363158" filter="url(#filter13_f_2_7195)">
<path d="M8.67565 14.3326C8.67565 14.3326 10.0463 14.2035 10.3633 13.808C10.5488 13.5766 9.62612 13.3066 9.82531 13.08C10.5746 12.2273 11.2043 12.2629 12.0731 11.9058C12.9418 11.5487 12.6213 11.3738 12.3403 11.217C11.859 10.9485 10.7879 10.6624 11.1422 10.0251C11.4988 9.38384 14.6212 8.49322 14.6212 8.49322C15.5674 8.16996 15.4486 7.58535 14.9852 7.09785L12.1944 4.32227C12.1944 4.32227 12.3329 6.95459 11.7697 8.08371C11.0738 9.47903 7.36861 11.0359 8.91833 11.2081C9.46435 11.2688 9.72647 11.4551 9.94969 11.8755C10.4093 12.7412 8.67565 14.3326 8.67565 14.3326Z" fill="url(#paint22_linear_2_7195)"/>
</g>
</g>
<defs>
<filter id="filter0_f_2_7195" x="1.7564" y="0.827686" width="14.3187" height="14.102" filterUnits="userSpaceOnUse" color-interpolation-filters="sRGB">
<feFlood flood-opacity="0" result="BackgroundImageFix"/>
<feBlend mode="normal" in="SourceGraphic" in2="BackgroundImageFix" result="shape"/>
<feGaussianBlur stdDeviation="0.100073" result="effect1_foregroundBlur_2_7195"/>
</filter>
<filter id="filter1_f_2_7195" x="1.08924" y="0.282115" width="15.6531" height="15.4363" filterUnits="userSpaceOnUse" color-interpolation-filters="sRGB">
<feFlood flood-opacity="0" result="BackgroundImageFix"/>
<feBlend mode="normal" in="SourceGraphic" in2="BackgroundImageFix" result="shape"/>
<feGaussianBlur stdDeviation="0.43365" result="effect1_foregroundBlur_2_7195"/>
</filter>
<filter id="filter2_f_2_7195" x="6.29896" y="11.2306" width="4.47581" height="3.22239" filterUnits="userSpaceOnUse" color-interpolation-filters="sRGB">
<feFlood flood-opacity="0" result="BackgroundImageFix"/>
<feBlend mode="normal" in="SourceGraphic" in2="BackgroundImageFix" result="shape"/>
<feGaussianBlur stdDeviation="0.12884" result="effect1_foregroundBlur_2_7195"/>
</filter>
<filter id="filter3_f_2_7195" x="10.8109" y="7.83677" width="5.06572" height="2.46611" filterUnits="userSpaceOnUse" color-interpolation-filters="sRGB">
<feFlood flood-opacity="0" result="BackgroundImageFix"/>
<feBlend mode="normal" in="SourceGraphic" in2="BackgroundImageFix" result="shape"/>
<feGaussianBlur stdDeviation="0.139478" result="effect1_foregroundBlur_2_7195"/>
</filter>
<filter id="filter4_f_2_7195" x="13.7273" y="10.7937" width="1.66007" height="0.944251" filterUnits="userSpaceOnUse" color-interpolation-filters="sRGB">
<feFlood flood-opacity="0" result="BackgroundImageFix"/>
<feBlend mode="normal" in="SourceGraphic" in2="BackgroundImageFix" result="shape"/>
<feGaussianBlur stdDeviation="0.0633333" result="effect1_foregroundBlur_2_7195"/>
</filter>
<filter id="filter5_f_2_7195" x="13.4906" y="11.2841" width="2.07096" height="0.489904" filterUnits="userSpaceOnUse" color-interpolation-filters="sRGB">
<feFlood flood-opacity="0" result="BackgroundImageFix"/>
<feBlend mode="normal" in="SourceGraphic" in2="BackgroundImageFix" result="shape"/>
<feGaussianBlur stdDeviation="0.0539945" result="effect1_foregroundBlur_2_7195"/>
</filter>
<filter id="filter6_f_2_7195" x="13.0998" y="12.0095" width="0.721267" height="0.760329" filterUnits="userSpaceOnUse" color-interpolation-filters="sRGB">
<feFlood flood-opacity="0" result="BackgroundImageFix"/>
<feBlend mode="normal" in="SourceGraphic" in2="BackgroundImageFix" result="shape"/>
<feGaussianBlur stdDeviation="0.0416448" result="effect1_foregroundBlur_2_7195"/>
</filter>
<filter id="filter7_f_2_7195" x="13.1892" y="12.3387" width="0.870532" height="0.519946" filterUnits="userSpaceOnUse" color-interpolation-filters="sRGB">
<feFlood flood-opacity="0" result="BackgroundImageFix"/>
<feBlend mode="normal" in="SourceGraphic" in2="BackgroundImageFix" result="shape"/>
<feGaussianBlur stdDeviation="0.0355041" result="effect1_foregroundBlur_2_7195"/>
</filter>
<filter id="filter8_f_2_7195" x="4.7779" y="11.9434" width="1.4525" height="0.758166" filterUnits="userSpaceOnUse" color-interpolation-filters="sRGB">
<feFlood flood-opacity="0" result="BackgroundImageFix"/>
<feBlend mode="normal" in="SourceGraphic" in2="BackgroundImageFix" result="shape"/>
<feGaussianBlur stdDeviation="0.05148" result="effect1_foregroundBlur_2_7195"/>
</filter>
<filter id="filter9_f_2_7195" x="4.73041" y="12.1782" width="1.55286" height="0.808721" filterUnits="userSpaceOnUse" color-interpolation-filters="sRGB">
<feFlood flood-opacity="0" result="BackgroundImageFix"/>
<feBlend mode="normal" in="SourceGraphic" in2="BackgroundImageFix" result="shape"/>
<feGaussianBlur stdDeviation="0.0437329" result="effect1_foregroundBlur_2_7195"/>
</filter>
<filter id="filter10_f_2_7195" x="2.02932" y="0.977561" width="13.7749" height="13.56" filterUnits="userSpaceOnUse" color-interpolation-filters="sRGB">
<feFlood flood-opacity="0" result="BackgroundImageFix"/>
<feBlend mode="normal" in="SourceGraphic" in2="BackgroundImageFix" result="shape"/>
<feGaussianBlur stdDeviation="0.0405163" result="effect1_foregroundBlur_2_7195"/>
</filter>
<filter id="filter11_f_2_7195" x="4.40763" y="8.85001" width="7.40105" height="5.28288" filterUnits="userSpaceOnUse" color-interpolation-filters="sRGB">
<feFlood flood-opacity="0" result="BackgroundImageFix"/>
<feBlend mode="normal" in="SourceGraphic" in2="BackgroundImageFix" result="shape"/>
<feGaussianBlur stdDeviation="0.223675" result="effect1_foregroundBlur_2_7195"/>
</filter>
<filter id="filter12_f_2_7195" x="9.72394" y="10.0716" width="2.96813" height="3.68981" filterUnits="userSpaceOnUse" color-interpolation-filters="sRGB">
<feFlood flood-opacity="0" result="BackgroundImageFix"/>
<feBlend mode="normal" in="SourceGraphic" in2="BackgroundImageFix" result="shape"/>
<feGaussianBlur stdDeviation="0.0752857" result="effect1_foregroundBlur_2_7195"/>
</filter>
<filter id="filter13_f_2_7195" x="8.20691" y="3.9862" width="7.4651" height="10.6824" filterUnits="userSpaceOnUse" color-interpolation-filters="sRGB">
<feFlood flood-opacity="0" result="BackgroundImageFix"/>
<feBlend mode="normal" in="SourceGraphic" in2="BackgroundImageFix" result="shape"/>
<feGaussianBlur stdDeviation="0.168032" result="effect1_foregroundBlur_2_7195"/>
</filter>
<linearGradient id="paint0_linear_2_7195" x1="11.1459" y1="2.3557" x2="8.42382" y2="4.81706" gradientUnits="userSpaceOnUse">
<stop stop-color="#C0CDF9"/>
<stop offset="1" stop-color="#07092D" stop-opacity="0.288043"/>
</linearGradient>
<linearGradient id="paint1_linear_2_7195" x1="5.05414" y1="4.16011" x2="8.18873" y2="7.2947" gradientUnits="userSpaceOnUse">
<stop stop-color="white"/>
<stop offset="1" stop-color="white" stop-opacity="0"/>
</linearGradient>
<linearGradient id="paint2_linear_2_7195" x1="8.4192" y1="2.30401" x2="12.1465" y2="6.03128" gradientUnits="userSpaceOnUse">
<stop stop-color="white"/>
<stop offset="1" stop-color="white" stop-opacity="0"/>
</linearGradient>
<radialGradient id="paint3_radial_2_7195" cx="0" cy="0" r="1" gradientUnits="userSpaceOnUse" gradientTransform="translate(6.55664 13.9941) scale(3.16146 2.11615)">
<stop stop-color="white"/>
<stop offset="1" stop-color="white" stop-opacity="0"/>
</radialGradient>
<radialGradient id="paint4_radial_2_7195" cx="0" cy="0" r="1" gradientUnits="userSpaceOnUse" gradientTransform="translate(8.22355 14.0699) scale(4.03375 2.70003)">
<stop stop-color="white"/>
<stop offset="1" stop-color="white" stop-opacity="0"/>
</radialGradient>
<radialGradient id="paint5_radial_2_7195" cx="0" cy="0" r="1" gradientUnits="userSpaceOnUse" gradientTransform="translate(13.3437 9.18513) scale(2.25382 0.954171)">
<stop stop-color="white"/>
<stop offset="1" stop-color="white" stop-opacity="0"/>
</radialGradient>
<radialGradient id="paint6_radial_2_7195" cx="0" cy="0" r="1" gradientUnits="userSpaceOnUse" gradientTransform="translate(13.8207 9.44827) scale(2.25382 0.954171)">
<stop stop-color="white"/>
<stop offset="1" stop-color="white" stop-opacity="0"/>
</radialGradient>
<linearGradient id="paint7_linear_2_7195" x1="14.668" y1="10.8258" x2="14.6763" y2="11.2412" gradientUnits="userSpaceOnUse">
<stop stop-color="white"/>
<stop offset="1" stop-color="white" stop-opacity="0"/>
</linearGradient>
<linearGradient id="paint8_linear_2_7195" x1="14.6848" y1="10.7782" x2="14.6848" y2="11.4089" gradientUnits="userSpaceOnUse">
<stop stop-color="white"/>
<stop offset="1" stop-color="white" stop-opacity="0"/>
</linearGradient>
<radialGradient id="paint9_radial_2_7195" cx="0" cy="0" r="1" gradientUnits="userSpaceOnUse" gradientTransform="translate(14.5261 11.5291) scale(0.927437 0.137025)">
<stop stop-color="white"/>
<stop offset="1" stop-color="white" stop-opacity="0"/>
</radialGradient>
<linearGradient id="paint10_linear_2_7195" x1="13.3661" y1="12.0582" x2="13.5706" y2="12.4194" gradientUnits="userSpaceOnUse">
<stop stop-color="white"/>
<stop offset="1" stop-color="white" stop-opacity="0"/>
</linearGradient>
<linearGradient id="paint11_linear_2_7195" x1="13.289" y1="11.9297" x2="13.5742" y2="12.4923" gradientUnits="userSpaceOnUse">
<stop stop-color="white"/>
<stop offset="1" stop-color="white" stop-opacity="0"/>
</linearGradient>
<radialGradient id="paint12_radial_2_7195" cx="0" cy="0" r="1" gradientUnits="userSpaceOnUse" gradientTransform="translate(13.6296 12.7131) rotate(-26.8861) scale(0.400998 0.137025)">
<stop stop-color="white"/>
<stop offset="1" stop-color="white" stop-opacity="0"/>
</radialGradient>
<radialGradient id="paint13_radial_2_7195" cx="0" cy="0" r="1" gradientUnits="userSpaceOnUse" gradientTransform="translate(5.42254 10.747) scale(1.49706 0.60943)">
<stop stop-color="white" stop-opacity="0.330049"/>
<stop offset="1" stop-color="white" stop-opacity="0"/>
</radialGradient>
<linearGradient id="paint14_linear_2_7195" x1="5.49898" y1="11.9945" x2="5.56889" y2="12.2902" gradientUnits="userSpaceOnUse">
<stop stop-color="white"/>
<stop offset="1" stop-color="white" stop-opacity="0"/>
</linearGradient>
<linearGradient id="paint15_linear_2_7195" x1="5.50219" y1="11.9584" x2="5.60091" y2="12.4081" gradientUnits="userSpaceOnUse">
<stop stop-color="white"/>
<stop offset="1" stop-color="white" stop-opacity="0"/>
</linearGradient>
<radialGradient id="paint16_radial_2_7195" cx="0" cy="0" r="1" gradientUnits="userSpaceOnUse" gradientTransform="translate(5.46153 12.8746) rotate(-15.4869) scale(0.84715 0.316962)">
<stop stop-color="white"/>
<stop offset="1" stop-color="white" stop-opacity="0"/>
</radialGradient>
<radialGradient id="paint17_radial_2_7195" cx="0" cy="0" r="1" gradientUnits="userSpaceOnUse" gradientTransform="translate(9.46274 2.54006) scale(11.7217 11.5367)">
<stop stop-color="white"/>
<stop offset="1" stop-color="white" stop-opacity="0"/>
</radialGradient>
<linearGradient id="paint18_linear_2_7195" x1="6.03657" y1="11.4914" x2="9.55534" y2="12.4218" gradientUnits="userSpaceOnUse">
<stop stop-color="white"/>
<stop offset="1" stop-color="white" stop-opacity="0"/>
</linearGradient>
<linearGradient id="paint19_linear_2_7195" x1="7.90199" y1="9.35188" x2="7.50674" y2="10.2575" gradientUnits="userSpaceOnUse">
<stop stop-color="#EEEEEC"/>
<stop offset="1" stop-color="#EEEEEC" stop-opacity="0"/>
</linearGradient>
<radialGradient id="paint20_radial_2_7195" cx="0" cy="0" r="1" gradientUnits="userSpaceOnUse" gradientTransform="translate(11.2375 11.8785) scale(1.84213 2.34105)">
<stop stop-color="white"/>
<stop offset="1" stop-color="white" stop-opacity="0"/>
</radialGradient>
<linearGradient id="paint21_linear_2_7195" x1="4.73214" y1="9.66131" x2="5.28574" y2="10.1012" gradientUnits="userSpaceOnUse">
<stop stop-color="white"/>
<stop offset="1" stop-color="white" stop-opacity="0"/>
</linearGradient>
<linearGradient id="paint22_linear_2_7195" x1="11.2124" y1="12.0575" x2="9.56751" y2="7.6287" gradientUnits="userSpaceOnUse">
<stop stop-color="#729FCF"/>
<stop offset="1" stop-color="#729FCF" stop-opacity="0"/>
</linearGradient>
<clipPath id="clip0_2_7195">
<rect width="16" height="16" fill="white" transform="translate(0.916016)"/>
</clipPath>
</defs>
</svg>
