<svg width="41" height="16" viewBox="0 0 41 16" fill="none" xmlns="http://www.w3.org/2000/svg">
<g clip-path="url(#clip0_829_287)">
<g clip-path="url(#clip1_829_287)">
<path d="M4.23886 10.0969C3.99154 9.60032 5.61349 6.65952 6.11738 6.65952C6.62207 6.65983 8.24051 9.60573 7.9959 10.0969C7.75128 10.5879 4.48603 10.5933 4.2387 10.0969H4.23886Z" fill="url(#paint0_linear_829_287)"/>
<path fill-rule="evenodd" clip-rule="evenodd" d="M0.457107 12.6208C-0.287894 11.1244 4.59995 2.26331 6.11752 2.26331C7.63668 2.26331 12.5162 11.1416 11.779 12.6208C11.0419 14.1 1.20274 14.1173 0.457425 12.6208M2.41036 11.3224C2.8988 12.3027 9.34532 12.2919 9.82818 11.3224C10.311 10.3525 7.11382 4.53576 6.11911 4.53576C5.12439 4.53576 1.92161 10.3418 2.40988 11.3224H2.41036Z" fill="url(#paint1_linear_829_287)"/>
<path d="M23.1275 4.53465C23.0829 4.53465 23.0609 4.53465 23.0438 4.54341C23.0287 4.55096 23.0163 4.56313 23.0086 4.57815C23 4.5952 23.0001 4.61767 23.0001 4.66229V11.0597C23.0001 11.1044 23.0001 11.1267 23.0086 11.1437C23.0162 11.1587 23.0288 11.1708 23.0437 11.1786C23.0609 11.1872 23.0829 11.1874 23.1275 11.1874H24.0239C24.0685 11.1874 24.0908 11.1872 24.1078 11.1786C24.1229 11.171 24.1352 11.1588 24.1429 11.1437C24.1514 11.1267 24.1515 11.1044 24.1515 11.0597V4.66229C24.1515 4.61767 24.1515 4.59536 24.1427 4.57815C24.1351 4.56318 24.1229 4.55101 24.1078 4.54341C24.0908 4.53465 24.0685 4.53465 24.0239 4.53465H23.1275ZM24.9794 4.53465C24.9348 4.53465 24.9124 4.53465 24.8954 4.54341C24.8803 4.55099 24.8681 4.56315 24.8603 4.57815C24.8519 4.5952 24.8517 4.61767 24.8517 4.66229V11.0597C24.8517 11.1044 24.8517 11.1267 24.8605 11.1437C24.8681 11.1587 24.8803 11.1708 24.8954 11.1786C24.9124 11.1872 24.9348 11.1874 24.9794 11.1874H25.8754C25.9201 11.1874 25.9424 11.1872 25.9594 11.1786C25.9745 11.171 25.9868 11.1588 25.9945 11.1437C26.0031 11.1267 26.0031 11.1044 26.0031 11.0597V4.66229C26.0031 4.61767 26.0031 4.59536 25.9943 4.57815C25.9867 4.56318 25.9744 4.55101 25.9594 4.54341C25.9424 4.53465 25.9201 4.53465 25.8754 4.53465H24.9794ZM33.5358 4.53465C32.9851 4.53465 32.5456 4.68407 32.2174 4.98292C31.8894 5.28166 31.7253 5.70343 31.7253 6.24823V6.40647H30.1053C30.0575 6.40647 30.0334 6.40647 30.0129 6.41428C29.9948 6.42129 29.9786 6.43261 29.9659 6.44726C29.9514 6.46384 29.9431 6.48615 29.9263 6.53093L28.7423 9.70184L27.5497 6.53029C27.5329 6.48567 27.5246 6.46336 27.5101 6.44695C27.4972 6.43241 27.481 6.42121 27.4628 6.41428C27.4421 6.40631 27.4182 6.40647 27.3707 6.40647H26.4515C26.3887 6.40647 26.3575 6.40663 26.3373 6.41985C26.3199 6.43135 26.3077 6.4492 26.3033 6.46957C26.2985 6.49316 26.3097 6.52232 26.333 6.58081L28.1535 11.1872L28.048 11.4422C27.954 11.6413 27.8455 11.8024 27.7227 11.9255C27.6056 12.0486 27.4152 12.1101 27.1516 12.1101C27.0577 12.1101 26.9581 12.1012 26.8528 12.0836C26.8139 12.0793 26.7752 12.0739 26.7366 12.0674C26.6746 12.057 26.6436 12.0519 26.6236 12.0594C26.606 12.0654 26.5912 12.0778 26.5822 12.0941C26.5717 12.1126 26.5717 12.1419 26.5717 12.1999V12.8896C26.5717 12.9284 26.5717 12.9478 26.5789 12.9661C26.5856 12.9825 26.596 12.9971 26.6091 13.0088C26.6241 13.0218 26.6397 13.0272 26.6713 13.0382C26.7474 13.0642 26.8259 13.0829 26.9055 13.0941C27.0287 13.1175 27.1547 13.1292 27.2835 13.1293C27.7345 13.1293 28.1094 13.0005 28.4083 12.7427C28.7129 12.4909 28.956 12.1335 29.1377 11.6706L30.8138 7.43481H31.7253V11.0596C31.7253 11.1042 31.7253 11.1265 31.7341 11.1436C31.7417 11.1586 31.754 11.1708 31.769 11.1785C31.7861 11.1871 31.808 11.1872 31.8527 11.1872H32.7491C32.7937 11.1872 32.8161 11.1871 32.833 11.1785C32.8481 11.1708 32.8604 11.1586 32.8681 11.1436C32.8767 11.1265 32.8767 11.1042 32.8767 11.0596V7.43481H33.8126C33.8572 7.43481 33.8792 7.43481 33.8963 7.42604C33.9114 7.41842 33.9236 7.4062 33.9313 7.39114C33.9398 7.37425 33.9399 7.35178 33.9399 7.30716V6.53396C33.9399 6.48933 33.9399 6.46703 33.9312 6.44997C33.9235 6.43494 33.9113 6.42272 33.8963 6.41507C33.8792 6.40647 33.8572 6.40647 33.8126 6.40647H32.8767V6.24839C32.8767 6.00818 32.9469 5.83235 33.0874 5.72091C33.234 5.60383 33.4332 5.54524 33.685 5.54514C33.7333 5.54514 33.7832 5.54753 33.8348 5.55231C33.8897 5.55741 33.9173 5.5598 33.9358 5.55167C33.9522 5.5448 33.9658 5.5324 33.974 5.51661C33.9839 5.49876 33.9838 5.47279 33.9838 5.421V4.71536C33.9838 4.66691 33.9838 4.64285 33.9742 4.62181C33.9655 4.60328 33.9518 4.58751 33.9347 4.57624C33.9152 4.56381 33.8931 4.56094 33.8491 4.55488C33.7453 4.5408 33.6405 4.53403 33.5358 4.53465ZM16.1514 4.64014C16.1068 4.64014 16.0845 4.64014 16.0674 4.6489C16.0523 4.65652 16.04 4.66875 16.0324 4.6838C16.0239 4.70086 16.0238 4.72285 16.0238 4.76747V9.20114C16.0239 9.47056 15.9389 9.68729 15.7688 9.85132C15.6049 10.0095 15.3823 10.0887 15.1011 10.0888H14.8507C14.8061 10.0888 14.7838 10.0888 14.7667 10.0972C14.7516 10.1049 14.7393 10.1172 14.7317 10.1323C14.7232 10.1495 14.7234 10.1715 14.7234 10.2161V11.0596C14.7234 11.1042 14.7234 11.1265 14.7318 11.1436C14.7395 11.1586 14.7517 11.1709 14.7667 11.1786C14.7838 11.1871 14.8061 11.1872 14.8507 11.1872H15.1009C15.5347 11.1872 15.9097 11.1022 16.226 10.9322C16.5483 10.7624 16.7944 10.5251 16.9641 10.2204C17.14 9.91581 17.2279 9.56145 17.228 9.15731V4.76747C17.228 4.72285 17.2277 4.7007 17.2189 4.68365C17.2114 4.66868 17.1994 4.65647 17.1845 4.64875C17.1675 4.64014 17.145 4.64014 17.1004 4.64014H16.1514ZM34.4027 4.64014C34.3767 4.64062 34.361 4.64237 34.3482 4.6489C34.3333 4.65661 34.3212 4.66882 34.3136 4.6838C34.3049 4.70086 34.305 4.72285 34.305 4.76747V5.7429C34.305 5.78752 34.305 5.80983 34.3136 5.82688C34.3212 5.84193 34.3333 5.8542 34.3482 5.86194C34.3653 5.87055 34.3877 5.87055 34.4324 5.87055H35.3287C35.3734 5.87055 35.3954 5.87055 35.4124 5.86178C35.4275 5.85416 35.4398 5.84194 35.4475 5.82688C35.4562 5.80983 35.4559 5.78752 35.4559 5.7429V4.76747C35.4559 4.72285 35.4561 4.70086 35.4476 4.6838C35.4399 4.66866 35.4276 4.65638 35.4124 4.64875C35.3954 4.64014 35.3734 4.64014 35.3287 4.64014H34.4027ZM20.1503 6.30097C19.7051 6.30097 19.3008 6.40939 18.9375 6.62622C18.5802 6.84295 18.2961 7.13883 18.0852 7.51385C17.8802 7.88303 17.7777 8.30783 17.7777 8.78824C17.7777 9.25091 17.8802 9.67268 18.0852 10.0535C18.3928 10.625 18.5773 10.7362 18.9464 10.9587C19.3155 11.1815 19.746 11.2928 20.2381 11.2927C20.7243 11.2927 21.149 11.1844 21.5124 10.9676C21.8411 10.7693 22.0816 10.5246 22.2338 10.2336C22.252 10.1986 22.2612 10.181 22.2612 10.1617C22.2609 10.1446 22.2553 10.1279 22.2453 10.1139C22.2338 10.0985 22.215 10.0891 22.1767 10.0704L21.4964 9.7369C21.4467 9.71236 21.4219 9.69993 21.3997 9.69881C21.3801 9.6974 21.3605 9.70207 21.3436 9.7122C21.3242 9.72304 21.3049 9.74805 21.2665 9.79841C21.1695 9.92449 21.0503 10.0318 20.9148 10.1151C20.7331 10.2264 20.5105 10.2821 20.2469 10.2821C19.9011 10.2822 19.6111 10.1768 19.3768 9.9659C19.1426 9.75491 19.0079 9.47364 18.9728 9.1221H22.3284C22.3603 9.1221 22.3759 9.1221 22.3911 9.11572C22.4041 9.10968 22.4154 9.10054 22.4241 9.08911C22.4336 9.07588 22.4365 9.06249 22.4424 9.0362C22.452 8.99455 22.4584 8.94993 22.4617 8.90234C22.4734 8.81448 22.4792 8.72662 22.4792 8.63876C22.4792 8.21115 22.3884 7.82157 22.2067 7.47003C22.025 7.11848 21.7615 6.83721 21.416 6.62622C21.0702 6.4095 20.6483 6.30108 20.1503 6.30097ZM38.5785 6.30097C38.2797 6.30097 38.0102 6.35962 37.77 6.4769C37.5398 6.59022 37.3498 6.77115 37.2253 6.99546V6.53396C37.2253 6.48933 37.2253 6.46703 37.2165 6.44997C37.2089 6.43488 37.1967 6.4226 37.1816 6.41491C37.1646 6.40631 37.1422 6.40631 37.0976 6.40631H36.2718C36.2272 6.40631 36.2049 6.40631 36.1879 6.41507C36.1728 6.42272 36.1606 6.43494 36.153 6.44997C36.1443 6.46703 36.1443 6.48933 36.1443 6.53396V11.0594C36.1443 11.104 36.1443 11.1263 36.153 11.1434C36.1606 11.1585 36.1729 11.1708 36.188 11.1785C36.2049 11.1869 36.2272 11.1871 36.2718 11.1871H37.1679C37.2125 11.1871 37.2348 11.1871 37.252 11.1783C37.2671 11.1707 37.2793 11.1584 37.2869 11.1434C37.2956 11.1263 37.2956 11.104 37.2956 11.0594V8.38379C37.2957 8.07336 37.3836 7.82439 37.5593 7.63687C37.741 7.44926 37.9753 7.35545 38.2624 7.35545C38.5494 7.35555 38.7808 7.44936 38.9564 7.63687C39.1381 7.81854 39.2289 8.06751 39.2289 8.38379V11.0596C39.2289 11.1042 39.2287 11.1265 39.2375 11.1436C39.2451 11.1586 39.2573 11.1709 39.2724 11.1786C39.2894 11.1871 39.3118 11.1872 39.3564 11.1872H40.2528C40.2974 11.1872 40.3197 11.1872 40.3367 11.1785C40.3517 11.1708 40.3638 11.1585 40.3713 11.1436C40.3801 11.1265 40.3804 11.1042 40.3804 11.0596V8.11144C40.3803 7.75395 40.304 7.44055 40.1516 7.17123C40.0038 6.90017 39.7811 6.67735 39.5102 6.52933C39.2406 6.37699 38.9301 6.30087 38.5785 6.30097ZM34.4327 6.40647C34.3881 6.40647 34.3657 6.40647 34.3487 6.41523C34.3338 6.42293 34.3217 6.43515 34.3141 6.45013C34.3053 6.46718 34.3053 6.48949 34.3053 6.53411V11.0596C34.3053 11.1042 34.3053 11.1265 34.3141 11.1436C34.3216 11.1586 34.3338 11.1709 34.3487 11.1786C34.3657 11.1871 34.3881 11.1872 34.4327 11.1872H35.3291C35.3737 11.1872 35.3957 11.1872 35.4127 11.1785C35.4279 11.1709 35.4402 11.1586 35.4479 11.1436C35.4566 11.1265 35.4564 11.1042 35.4564 11.0596V6.53411C35.4564 6.48949 35.4564 6.46718 35.4479 6.45013C35.4403 6.43502 35.428 6.42273 35.4129 6.41507C35.3957 6.40647 35.3737 6.40647 35.3291 6.40647H34.4327ZM20.1508 7.25027C20.4555 7.25027 20.7074 7.34397 20.9065 7.53138C21.1115 7.71305 21.2257 7.95033 21.2491 8.24323H18.9996C19.0641 7.92685 19.1989 7.68373 19.4039 7.51385C19.6148 7.33813 19.8638 7.25027 20.1508 7.25027Z" fill="black"/>
</g>
</g>
<defs>
<linearGradient id="paint0_linear_829_287" x1="2.29278" y1="7.04389" x2="11.8543" y2="12.3027" gradientUnits="userSpaceOnUse">
<stop stop-color="#AA5CC3"/>
<stop offset="1" stop-color="#00A4DC"/>
</linearGradient>
<linearGradient id="paint1_linear_829_287" x1="2.29276" y1="7.0439" x2="11.8543" y2="12.3027" gradientUnits="userSpaceOnUse">
<stop stop-color="#AA5CC3"/>
<stop offset="1" stop-color="#00A4DC"/>
</linearGradient>
<clipPath id="clip0_829_287">
<rect width="40" height="16" fill="white" transform="translate(0.380371)"/>
</clipPath>
<clipPath id="clip1_829_287">
<rect width="40" height="11.4734" fill="white" transform="translate(0.380371 2.26331)"/>
</clipPath>
</defs>
</svg>
