<svg width="40" height="16" viewBox="0 0 40 16" fill="none" xmlns="http://www.w3.org/2000/svg">
<g clip-path="url(#clip0_807_3042)">
<path d="M22.0196 7.65451C22.0059 7.61498 21.9926 7.58176 21.9775 7.54957C21.8976 7.38289 21.786 7.23329 21.649 7.1091C21.5142 6.99315 21.3601 6.90185 21.1936 6.83938C21.0308 6.78169 20.8595 6.7519 20.6867 6.75122H19.9007C19.8399 6.75004 19.7798 6.73818 19.7231 6.71623C19.6637 6.69305 19.6087 6.65978 19.5606 6.61792C19.5074 6.57545 19.4651 6.521 19.4371 6.45903C19.409 6.39705 19.3961 6.32933 19.3994 6.26143C19.3958 6.19308 19.4086 6.12484 19.4366 6.06237C19.4646 5.9999 19.5071 5.94498 19.5606 5.90213C19.608 5.86084 19.6621 5.82795 19.7206 5.80489C19.7781 5.78277 19.8391 5.77091 19.9007 5.7699H21.822V4.85049H19.9007C19.7269 4.85096 19.5545 4.88076 19.3907 4.93866C19.2242 5.00143 19.07 5.09297 18.9353 5.20909C18.7981 5.33388 18.6866 5.48421 18.6071 5.65164C18.5934 5.68138 18.5805 5.71428 18.5675 5.751C18.5097 5.91197 18.4815 6.08204 18.4841 6.25303V6.26983C18.4814 6.4398 18.5093 6.60891 18.5665 6.76905C18.5805 6.80929 18.5934 6.84148 18.6088 6.87402C18.6886 7.04079 18.8002 7.19039 18.9374 7.31446C19.0721 7.43053 19.2262 7.52185 19.3928 7.5842C19.5553 7.64148 19.7263 7.67091 19.8986 7.67131H20.6867C20.7476 7.67253 20.8079 7.68437 20.8647 7.7063C20.9241 7.72943 20.979 7.76256 21.0272 7.80425C21.0752 7.84618 21.1152 7.89644 21.1453 7.95258C21.1742 8.01877 21.1887 8.0903 21.188 8.16249C21.1888 8.23228 21.1756 8.3015 21.1491 8.36611C21.1185 8.42508 21.0771 8.47788 21.0272 8.52178C20.9796 8.56303 20.9254 8.5959 20.8668 8.61905C20.8093 8.64117 20.7483 8.653 20.6867 8.65404H18.7658V9.57517H20.6867C20.8602 9.57475 21.0323 9.54493 21.1957 9.48703C21.3623 9.42456 21.5165 9.33312 21.6511 9.21693C21.7884 9.09202 21.9 8.94157 21.9797 8.77404C21.9933 8.7443 22.0066 8.71035 22.0189 8.67503C22.0767 8.51392 22.1049 8.34376 22.1022 8.17265V8.1562C22.1053 7.98536 22.0773 7.81538 22.0196 7.65451Z" fill="#521B74"/>
<path d="M10.7502 5.42598C10.5914 5.25056 10.3997 5.10793 10.1859 5.00617C10.1442 4.98728 10.1004 4.97118 10.0563 4.95509C9.84947 4.88147 9.63098 4.84591 9.41143 4.85013H9.38761C9.16794 4.84588 8.94933 4.88144 8.74239 4.95509C8.69825 4.97048 8.65481 4.98728 8.61277 5.00617C8.399 5.10793 8.20728 5.25056 8.04846 5.42598C7.89924 5.59855 7.78171 5.79611 7.70133 6.00952C7.62712 6.21935 7.589 6.44018 7.58853 6.66269V9.58987H8.50874V6.66269C8.50987 6.55258 8.53039 6.44352 8.56933 6.34048C8.61067 6.23535 8.66992 6.13818 8.74448 6.05326C8.82248 5.96378 8.91674 5.88982 9.02225 5.83531C9.14192 5.78406 9.27074 5.75764 9.40093 5.75764C9.5311 5.75764 9.65992 5.78406 9.77959 5.83531C9.88505 5.88989 9.97928 5.96382 10.0574 6.05326C10.1312 6.13839 10.1898 6.23554 10.2307 6.34048C10.27 6.44345 10.2906 6.55253 10.2917 6.66269V9.58987H11.2102V6.66269C11.2099 6.44015 11.1717 6.21931 11.0974 6.00952C11.0171 5.79604 10.8996 5.59847 10.7502 5.42598Z" fill="#521B74"/>
<path d="M16.6667 7.78886C16.6662 7.89928 16.646 8.00874 16.6071 8.11211C16.5665 8.21731 16.5078 8.31463 16.4337 8.39968C16.3556 8.489 16.2614 8.56281 16.156 8.61728C16.0364 8.66874 15.9075 8.69528 15.7773 8.69528C15.6471 8.69528 15.5182 8.66874 15.3986 8.61728C15.2932 8.56281 15.1989 8.489 15.1208 8.39968C15.0463 8.31465 14.987 8.21735 14.9457 8.11211C14.9067 8.0091 14.8862 7.90004 14.8851 7.7899V4.86203H13.9663V7.78886C13.9667 8.0114 14.0049 8.23227 14.0795 8.44201C14.1596 8.65564 14.2772 8.85333 14.4266 9.02592C14.5856 9.20058 14.7771 9.3426 14.9905 9.44399C15.0326 9.46286 15.076 9.47895 15.1201 9.49505C15.3272 9.56853 15.5457 9.60408 15.7654 9.60001H15.7909C16.0105 9.60406 16.2289 9.56851 16.4358 9.49505C16.4803 9.47931 16.5237 9.46286 16.5654 9.44399C16.779 9.3427 16.9707 9.20067 17.1297 9.02592C17.279 8.85326 17.3966 8.65557 17.4769 8.44201C17.5513 8.23225 17.5894 8.01138 17.5897 7.78886V4.86203H16.6667V7.78886Z" fill="#521B74"/>
<path d="M13.0946 4.86203H12.1061V9.6007H13.0946V4.86203Z" fill="#521B74"/>
<path d="M1.24142 8.72967C1.24142 9.05338 1.13878 9.30202 0.933515 9.47552C0.733852 9.64905 0.42268 9.74235 0 9.75541V10.7259C0.250426 10.7246 0.49944 10.6883 0.739805 10.6181C0.993501 10.5485 1.23217 10.4327 1.44388 10.2767C1.66251 10.1126 1.84028 9.90032 1.96336 9.6564C2.10347 9.40498 2.17353 9.09654 2.17353 8.73105V4.85056H1.24142V8.72967Z" fill="#521B74"/>
<path d="M6.24107 5.42598C6.08225 5.25056 5.89053 5.10793 5.67676 5.00617C5.63472 4.98728 5.59128 4.97118 5.54714 4.95509C5.3402 4.88144 5.12159 4.84588 4.90192 4.85013H4.87846C4.65879 4.84588 4.44018 4.88144 4.23321 4.95509C4.18909 4.97048 4.14566 4.98728 4.10361 5.00617C3.88985 5.10793 3.69813 5.25056 3.53931 5.42598C3.38994 5.59847 3.27241 5.79604 3.19218 6.00952C3.11796 6.21935 3.07985 6.44018 3.07938 6.66269V7.78886C3.0798 8.01138 3.11794 8.2322 3.19218 8.44201C3.27248 8.65556 3.39001 8.85326 3.53931 9.02592C3.64721 9.14526 3.77123 9.24898 3.9078 9.33413C3.97107 9.3742 4.03643 9.41088 4.10361 9.44399C4.12848 9.45516 4.15441 9.46533 4.18032 9.47547L4.23321 9.49505C4.35935 9.54159 4.49079 9.57227 4.62448 9.58636C4.70879 9.59606 4.79359 9.60086 4.87846 9.60072H4.90192C5.02978 9.60081 5.15735 9.58912 5.28302 9.56573C5.37302 9.54952 5.4614 9.5254 5.54714 9.49366L5.55905 9.48912C5.59933 9.47476 5.63858 9.45973 5.67676 9.44258C5.8362 9.36568 5.98415 9.267 6.11636 9.1494C6.16001 9.10989 6.20163 9.06822 6.24107 9.02451C6.27363 8.98639 6.30378 8.94719 6.33319 8.90731C6.40545 8.81039 6.46832 8.70684 6.52095 8.59806C6.54429 8.54698 6.56672 8.49448 6.5882 8.44062C6.59872 8.41053 6.60818 8.38043 6.61728 8.35001H5.58498C5.57307 8.36575 5.56081 8.38185 5.54749 8.39723C5.46949 8.48651 5.3754 8.56032 5.27008 8.61484C5.15556 8.66474 5.03211 8.69093 4.90716 8.6918H4.8914C4.761 8.69248 4.63192 8.66589 4.51241 8.6138C4.45559 8.58396 4.40175 8.54884 4.35161 8.50884C4.32455 8.48707 4.29881 8.46371 4.27455 8.43886C4.26124 8.42524 4.24723 8.41159 4.23498 8.39723C4.16041 8.3122 4.10116 8.21491 4.05982 8.10966C4.02065 8.00669 4.00013 7.89759 3.99923 7.78745V7.70034H6.70065V6.66128C6.70018 6.43879 6.66206 6.21794 6.58785 6.00813C6.50756 5.79516 6.39015 5.59807 6.24107 5.42598ZM5.78079 6.81768H3.99959V6.66305C4.00055 6.55291 4.02107 6.44382 4.06018 6.34084C4.10152 6.23571 4.16076 6.13853 4.23533 6.05361C4.31328 5.96422 4.4074 5.89027 4.51274 5.83566C4.63246 5.78441 4.76135 5.75799 4.89159 5.75799C5.02182 5.75799 5.15072 5.78441 5.27041 5.83566C5.37578 5.89027 5.46989 5.96422 5.54785 6.05361C5.62241 6.13853 5.68166 6.23571 5.723 6.34084C5.76211 6.44382 5.78262 6.55291 5.78359 6.66305L5.78079 6.81768Z" fill="#521B74"/>
<path d="M28.9772 9.58147C29.1878 9.58524 29.3974 9.55135 29.5962 9.48142L29.6012 9.47933C29.648 9.46288 29.6861 9.44818 29.7202 9.43279C29.7541 9.4174 29.7819 9.40131 29.8191 9.38067L30.1588 9.19034V9.56258H30.7045L30.7014 6.5791C30.7009 6.3639 30.6642 6.1503 30.5927 5.94726C30.5148 5.74267 30.4016 5.55323 30.2586 5.38751C30.1066 5.22138 29.9238 5.08619 29.7202 4.98938C29.6852 4.97399 29.6485 4.9593 29.6012 4.9425H29.5962C29.3972 4.87234 29.1871 4.83846 28.9762 4.84245H28.9492C28.7386 4.8385 28.5289 4.8724 28.3304 4.9425H28.3254C28.2781 4.95895 28.2402 4.97399 28.2059 4.98938C28.0024 5.08612 27.8195 5.22118 27.6671 5.38716C27.5238 5.55279 27.4108 5.74225 27.3329 5.94691C27.2614 6.14994 27.2247 6.36352 27.224 6.57874V7.84274C27.2247 8.05794 27.2616 8.27152 27.3329 8.47455C27.4108 8.67924 27.5238 8.8687 27.6671 9.03432C27.8193 9.20034 28.0019 9.33552 28.2052 9.43244C28.2402 9.44782 28.2776 9.46253 28.3247 9.47898L28.3296 9.48107C28.5285 9.55126 28.7386 9.58514 28.9496 9.58112L28.9772 9.58147ZM28.4452 8.94197C28.3054 8.86928 28.1807 8.77117 28.0774 8.65262C27.98 8.54046 27.9028 8.41241 27.8489 8.27411V8.27025C27.7972 8.13324 27.7701 7.98813 27.7692 7.84168V6.58013C27.7699 6.43425 27.7965 6.28964 27.8475 6.15298V6.14912C27.9016 6.0099 27.9795 5.88102 28.0774 5.76815C28.1807 5.64964 28.3054 5.55161 28.4452 5.47917L28.4576 5.47287C28.6162 5.40329 28.7875 5.36754 28.9607 5.36792H28.9656C29.1388 5.36758 29.3101 5.40333 29.4687 5.47287L29.4809 5.47917C29.6207 5.55161 29.7456 5.64964 29.8492 5.76815C29.9464 5.88044 30.0235 6.0086 30.0774 6.14702V6.15088C30.1289 6.28794 30.156 6.433 30.1574 6.57945V7.84274C30.156 7.98917 30.1289 8.1342 30.0774 8.27131V8.27514C30.0235 8.41354 29.9464 8.54161 29.8487 8.65368C29.7454 8.77227 29.6207 8.87041 29.4809 8.943L29.4682 8.94895C29.3099 9.01872 29.1386 9.05448 28.9654 9.05392H28.9607C28.7875 9.05441 28.6162 9.01865 28.4576 8.94895L28.4452 8.94197Z" fill="#63EA7A"/>
<path d="M32.6682 5.49979L32.6807 5.49349C32.8393 5.42388 33.0106 5.38813 33.1838 5.38854H33.1882C33.3614 5.38821 33.5327 5.42395 33.6913 5.49349L33.704 5.49979C33.8435 5.57235 33.9682 5.67037 34.0718 5.78877C34.1689 5.90113 34.2461 6.02927 34.3002 6.16764V6.1715C34.3518 6.30851 34.3788 6.45362 34.38 6.60007V9.55068H34.9231V6.60007C34.9224 6.38484 34.8854 6.17127 34.8141 5.96823C34.7362 5.76357 34.6231 5.57411 34.4798 5.40848C34.328 5.24233 34.1452 5.10713 33.9419 5.01036C33.9068 4.99496 33.8696 4.97992 33.8223 4.96348H33.8174C33.6183 4.89329 33.4085 4.8594 33.1974 4.86342H33.1703C32.9598 4.85948 32.7501 4.89337 32.5515 4.96348H32.5466C32.4998 4.97992 32.4614 4.99496 32.4275 5.01036C32.224 5.10716 32.0412 5.24235 31.8892 5.40848C31.7459 5.57413 31.6329 5.7636 31.5553 5.96823C31.4835 6.17122 31.4468 6.38482 31.4464 6.60007V9.55068H31.9889V6.60007C31.9901 6.45364 32.0172 6.30856 32.0687 6.1715V6.16764C32.1226 6.02915 32.2 5.90096 32.2976 5.78877C32.4016 5.67 32.5275 5.57196 32.6682 5.49979Z" fill="#63EA7A"/>
<path d="M23.4448 9.05669C23.5967 9.22274 23.7795 9.35792 23.9828 9.45481C24.0179 9.47022 24.0553 9.4849 24.1023 9.5017L24.107 9.50344C24.3061 9.57363 24.5162 9.60754 24.7273 9.60352H24.7541C24.9647 9.60744 25.1743 9.57356 25.3732 9.50344L25.3781 9.5017C25.4249 9.4849 25.463 9.47022 25.4972 9.45481C25.7004 9.35799 25.883 9.22279 26.035 9.05669C26.1783 8.89097 26.2915 8.70154 26.3694 8.49695C26.4407 8.29389 26.4774 8.08032 26.4779 7.86512V6.60008C26.4774 6.38488 26.4407 6.1713 26.3694 5.96824C26.2915 5.76363 26.1783 5.57421 26.035 5.40849C25.883 5.24236 25.7002 5.10717 25.4967 5.01036C25.4616 4.99497 25.4266 4.98028 25.3776 4.96348H25.3727C25.1736 4.89332 24.9637 4.85943 24.7527 4.86343H24.7261C24.5162 4.85866 24.307 4.89148 24.1084 4.96034L24.1037 4.96244C24.0567 4.97888 24.0186 4.99357 23.9842 5.00896C23.955 5.02331 23.9235 5.03975 23.8887 5.05934L23.548 5.24861V3.63931H23.0016V7.86267C23.0023 8.07789 23.0391 8.29147 23.1106 8.49448C23.1881 8.70001 23.3012 8.89032 23.4448 9.05669ZM23.5447 7.00448H23.548V6.5182C23.5576 6.40008 23.5833 6.2838 23.6242 6.17255L23.6259 6.16872C23.6797 6.03032 23.7569 5.90217 23.8543 5.78982C23.9579 5.67152 24.0826 5.57352 24.2221 5.50085L24.2346 5.49455C24.3932 5.42497 24.5644 5.38922 24.7376 5.3896H24.7426C24.9155 5.38922 25.0868 5.42497 25.2452 5.49455L25.2579 5.50085C25.3976 5.57341 25.5226 5.67156 25.6261 5.79017C25.723 5.90243 25.8004 6.03046 25.8543 6.16872V6.17255C25.9059 6.30963 25.9329 6.45469 25.9343 6.60112V7.86373C25.9329 8.01015 25.9059 8.15521 25.8543 8.29227V8.29613C25.8004 8.4346 25.723 8.56276 25.6256 8.67502C25.5223 8.79349 25.3974 8.89152 25.2579 8.96399L25.2452 8.97029C25.0868 9.03989 24.9153 9.07563 24.7423 9.07523H24.739C24.5659 9.07556 24.3946 9.03982 24.236 8.97029L24.2235 8.96399C24.084 8.8913 23.9593 8.7933 23.8557 8.67502C23.7583 8.56264 23.6812 8.4345 23.6273 8.29613V8.29227C23.5755 8.15526 23.5484 8.01015 23.5473 7.86373L23.5447 7.00448Z" fill="#63EA7A"/>
<path d="M38.9642 4.85993H38.1922L36.2148 6.83517V3.64072H35.6687V9.56328H36.2148V7.60623L38.1743 9.56328H38.9461L36.6005 7.2207L38.9642 4.85993Z" fill="#63EA7A"/>
<path d="M39.5167 4.41304H39.4033V4.73183H39.3334V4.41304H39.2198V4.35553H39.5167V4.41304Z" fill="#63EA7A"/>
<path d="M40 4.35553V4.73183H39.9383V4.48877C39.9383 4.47905 39.9388 4.46856 39.94 4.45728L39.8263 4.67093C39.8209 4.68117 39.8127 4.68628 39.8014 4.68628H39.7915C39.7804 4.68628 39.7722 4.68117 39.7668 4.67093L39.652 4.4565C39.6524 4.46222 39.6529 4.46786 39.6532 4.47341C39.6536 4.47897 39.6536 4.48409 39.6536 4.48877V4.73183H39.592V4.35553H39.6449C39.648 4.35553 39.6506 4.35561 39.6529 4.35579C39.6553 4.35596 39.6572 4.3564 39.6588 4.35709C39.6607 4.35778 39.6623 4.35891 39.6637 4.36047C39.6654 4.36204 39.6668 4.36412 39.6682 4.36672L39.7809 4.57569C39.784 4.58124 39.7866 4.58696 39.7889 4.59286C39.7915 4.59876 39.7941 4.60483 39.7964 4.61108C39.799 4.60466 39.8014 4.5985 39.8042 4.5926C39.8068 4.58653 39.8094 4.58072 39.8124 4.57516L39.9235 4.36672C39.9249 4.36412 39.9263 4.36204 39.928 4.36047C39.9296 4.35891 39.9313 4.35778 39.9329 4.35709C39.9348 4.3564 39.9369 4.35596 39.9393 4.35579C39.9414 4.35561 39.9442 4.35553 39.9473 4.35553H40Z" fill="#63EA7A"/>
<path d="M35.9506 11.7079H36.0087C36.0287 11.7079 36.045 11.7056 36.0572 11.7008C36.0692 11.6955 36.0805 11.6868 36.0904 11.6746L36.4692 11.2457C36.4798 11.232 36.4911 11.2224 36.5026 11.2171C36.5144 11.2118 36.5285 11.2092 36.5454 11.2092H36.6758L36.2421 11.6992C36.2315 11.7119 36.2212 11.7225 36.2111 11.731C36.2017 11.7389 36.1913 11.7455 36.1802 11.7508C36.1946 11.7556 36.2075 11.7627 36.2191 11.7723C36.2308 11.7812 36.2421 11.7932 36.2532 11.808L36.7059 12.3472H36.5725C36.5624 12.3472 36.5537 12.3467 36.5464 12.3456C36.5393 12.344 36.5334 12.3419 36.528 12.3393C36.5228 12.3361 36.5179 12.3327 36.5137 12.329C36.5101 12.3247 36.5064 12.32 36.5026 12.3147L36.1104 11.8628C36.0998 11.8496 36.0882 11.8403 36.0762 11.835C36.064 11.8292 36.0454 11.8263 36.0205 11.8263H35.9506V12.3472H35.7974V11.2092H35.9506V11.7079Z" fill="#521B74"/>
<path d="M35.1094 11.2092V12.3472H35.0323C35.0203 12.3472 35.0099 12.3451 35.0014 12.3409C34.9934 12.3366 34.9854 12.3295 34.9774 12.3194L34.3191 11.4617C34.3203 11.475 34.321 11.488 34.3217 11.5007C34.3221 11.5134 34.3224 11.5253 34.3224 11.5364V12.3472H34.1873V11.2092H34.2668C34.2737 11.2092 34.2795 11.2097 34.2843 11.2108C34.289 11.2113 34.2932 11.2126 34.297 11.2148C34.3007 11.2164 34.3043 11.219 34.308 11.2227C34.3118 11.2259 34.3158 11.2301 34.32 11.2354L34.9784 12.0923C34.9772 12.0785 34.9763 12.0653 34.9751 12.0526C34.9746 12.0394 34.9744 12.0269 34.9744 12.0153V11.2092H35.1094Z" fill="#521B74"/>
<path d="M33.3198 11.9247L33.1412 11.4617C33.1358 11.448 33.1304 11.4321 33.1245 11.4141C33.1186 11.3956 33.1129 11.376 33.1078 11.3553C33.0967 11.3982 33.0852 11.434 33.0737 11.4625L32.8948 11.9247H33.3198ZM33.6407 12.3472H33.5214C33.5078 12.3472 33.4967 12.3438 33.4882 12.3369C33.4798 12.33 33.4734 12.3213 33.4692 12.3107L33.3626 12.0359H32.852L32.7457 12.3107C32.7424 12.3202 32.7362 12.3287 32.7273 12.3361C32.7184 12.3435 32.7073 12.3472 32.6939 12.3472H32.5748L33.0299 11.2092H33.1857L33.6407 12.3472Z" fill="#521B74"/>
<path d="M31.7064 12.2249C31.7504 12.2249 31.7882 12.2199 31.82 12.2098C31.8518 12.1998 31.8777 12.1857 31.8979 12.1677C31.9186 12.1492 31.9337 12.1275 31.9431 12.1026C31.9527 12.0772 31.9574 12.0494 31.9574 12.0192C31.9574 11.9605 31.9365 11.9141 31.8946 11.8803C31.853 11.8459 31.7901 11.8286 31.7064 11.8286H31.4602V12.2249H31.7064ZM31.4602 11.3307V11.7191H31.6635C31.7071 11.7191 31.7445 11.7143 31.7762 11.7048C31.8087 11.6952 31.8351 11.682 31.8558 11.665C31.877 11.6481 31.8925 11.6277 31.9026 11.6039C31.9127 11.5795 31.9177 11.5531 31.9177 11.5245C31.9177 11.4572 31.8977 11.4083 31.8574 11.3776C31.8172 11.3463 31.7546 11.3307 31.6699 11.3307H31.4602ZM31.6699 11.2092C31.7398 11.2092 31.8 11.2161 31.8501 11.2298C31.901 11.2436 31.9426 11.2632 31.9748 11.2886C32.0078 11.314 32.0318 11.3453 32.0471 11.3823C32.0626 11.4188 32.0701 11.4601 32.0701 11.5062C32.0701 11.5343 32.0657 11.5613 32.0567 11.5872C32.0482 11.6126 32.0353 11.6364 32.0177 11.6587C32.0002 11.6809 31.9781 11.701 31.9511 11.7191C31.9245 11.7365 31.8934 11.7508 31.8574 11.7619C31.941 11.7778 32.0038 11.8077 32.0457 11.8517C32.088 11.8951 32.1092 11.9523 32.1092 12.0232C32.1092 12.0714 32.1 12.1153 32.0821 12.155C32.0647 12.1948 32.0386 12.2289 32.0042 12.2575C31.9704 12.2861 31.9285 12.3083 31.8788 12.3242C31.829 12.3396 31.7725 12.3472 31.709 12.3472H31.3071V11.2092H31.6699Z" fill="#521B74"/>
<path d="M30.1812 12.2249C30.2282 12.2249 30.2704 12.217 30.3073 12.2011C30.3445 12.1852 30.3755 12.163 30.4009 12.1344C30.4271 12.1058 30.4466 12.0716 30.4598 12.032C30.4737 11.9922 30.4805 11.9486 30.4805 11.9009V11.2092H30.6337V11.9009C30.6337 11.9666 30.6231 12.0275 30.6019 12.0836C30.5814 12.1397 30.5513 12.1884 30.5122 12.2297C30.4737 12.2705 30.4261 12.3025 30.3701 12.3258C30.3139 12.3491 30.2511 12.3607 30.1812 12.3607C30.1113 12.3607 30.0482 12.3491 29.992 12.3258C29.936 12.3025 29.8882 12.2705 29.8492 12.2297C29.8099 12.1884 29.7798 12.1397 29.7586 12.0836C29.7379 12.0275 29.7275 11.9666 29.7275 11.9009V11.2092H29.881V11.9001C29.881 11.9478 29.8875 11.9914 29.9007 12.0312C29.9146 12.0709 29.9341 12.105 29.9595 12.1336C29.9854 12.1622 30.0169 12.1847 30.0539 12.2011C30.0915 12.217 30.1339 12.2249 30.1812 12.2249Z" fill="#521B74"/>
<path d="M29.0539 11.2092V12.3472H28.977C28.9647 12.3472 28.9544 12.3451 28.9459 12.3409C28.9379 12.3366 28.9301 12.3295 28.9221 12.3194L28.2638 11.4617C28.2647 11.475 28.2657 11.488 28.2661 11.5007C28.2666 11.5134 28.2668 11.5253 28.2668 11.5364V12.3472H28.132V11.2092H28.2113C28.2181 11.2092 28.224 11.2097 28.2287 11.2108C28.2337 11.2113 28.2379 11.2126 28.2414 11.2148C28.2452 11.2164 28.249 11.219 28.2527 11.2227C28.2563 11.2259 28.2603 11.2301 28.2645 11.2354L28.9228 12.0923C28.9219 12.0785 28.9207 12.0653 28.9198 12.0526C28.9191 12.0394 28.9188 12.0269 28.9188 12.0153V11.2092H29.0539Z" fill="#521B74"/>
<path d="M27.2642 11.9247L27.0856 11.4617C27.0802 11.448 27.0746 11.4321 27.0689 11.4141C27.0631 11.3956 27.0574 11.376 27.0522 11.3553C27.0412 11.3982 27.0296 11.434 27.0181 11.4625L26.8393 11.9247H27.2642ZM27.5852 12.3472H27.4659C27.4522 12.3472 27.4412 12.3438 27.4327 12.3369C27.4242 12.33 27.4179 12.3213 27.4134 12.3107L27.3071 12.0359H26.7965L26.6901 12.3107C26.6868 12.3202 26.6807 12.3287 26.6718 12.3361C26.6628 12.3435 26.6518 12.3472 26.6383 12.3472H26.5193L26.9743 11.2092H27.1301L27.5852 12.3472Z" fill="#521B74"/>
<path d="M25.9718 11.2092V12.3472H25.8367V11.511C25.8367 11.4999 25.837 11.488 25.8377 11.4752C25.8386 11.4625 25.8398 11.4496 25.8407 11.4363L25.4501 12.1479C25.4379 12.1717 25.4193 12.1836 25.3944 12.1836H25.3723C25.3473 12.1836 25.3287 12.1717 25.3167 12.1479L24.9179 11.4332C24.9212 11.4612 24.9226 11.4872 24.9226 11.511V12.3472H24.7878V11.2092H24.9012C24.9151 11.2092 24.9257 11.2105 24.933 11.2132C24.9405 11.2158 24.9475 11.2232 24.9544 11.2354L25.3475 11.9359C25.3539 11.9486 25.36 11.9618 25.3659 11.9756C25.3723 11.9893 25.3781 12.0034 25.3833 12.0176C25.3887 12.0034 25.3941 11.9893 25.4 11.9756C25.4059 11.9613 25.4123 11.9478 25.4191 11.9351L25.805 11.2354C25.8113 11.2232 25.8184 11.2158 25.8257 11.2132C25.8337 11.2105 25.8445 11.2092 25.8581 11.2092H25.9718Z" fill="#521B74"/>
<path d="M23.3252 12.1121C23.3336 12.1121 23.341 12.1156 23.3474 12.1224L23.4085 12.1884C23.362 12.2424 23.3053 12.2845 23.2386 12.3146C23.1724 12.3448 23.0922 12.3599 22.998 12.3599C22.9164 12.3599 22.8423 12.3459 22.7756 12.3178C22.7089 12.2892 22.652 12.2495 22.6049 12.1987C22.5577 12.1473 22.5212 12.0859 22.4953 12.0144C22.4693 11.943 22.4564 11.8644 22.4564 11.7786C22.4564 11.6928 22.4698 11.6142 22.4969 11.5427C22.5239 11.4712 22.5617 11.4098 22.6104 11.3585C22.6597 11.3071 22.7184 11.2674 22.7867 11.2393C22.855 11.2108 22.9305 11.1965 23.0131 11.1965C23.0941 11.1965 23.1655 11.2094 23.2275 11.2354C23.2894 11.2613 23.344 11.2965 23.3911 11.341L23.3403 11.4117C23.3371 11.417 23.3328 11.4215 23.3275 11.4252C23.3228 11.4284 23.3162 11.43 23.3077 11.43C23.2982 11.43 23.2865 11.4249 23.2728 11.4148C23.259 11.4043 23.241 11.3926 23.2187 11.3799C23.1965 11.3672 23.1687 11.3558 23.1353 11.3458C23.102 11.3352 23.061 11.3299 23.0123 11.3299C22.9535 11.3299 22.8997 11.3402 22.851 11.3608C22.8023 11.381 22.7602 11.4104 22.7248 11.449C22.6898 11.4876 22.6626 11.5348 22.643 11.5904C22.6234 11.646 22.6136 11.7087 22.6136 11.7786C22.6136 11.8495 22.6237 11.9128 22.6438 11.9684C22.6644 12.024 22.6922 12.0711 22.7272 12.1097C22.7626 12.1479 22.8042 12.177 22.8518 12.1971C22.9 12.2172 22.9519 12.2273 23.0075 12.2273C23.0414 12.2273 23.0718 12.2254 23.0988 12.2217C23.1264 12.2175 23.1515 12.2111 23.1743 12.2027C23.1976 12.1942 23.219 12.1836 23.2386 12.1709C23.2587 12.1577 23.2786 12.142 23.2982 12.124C23.3072 12.1161 23.3162 12.1121 23.3252 12.1121Z" fill="#521B74"/>
<path d="M21.5018 12.2249C21.5457 12.2249 21.5836 12.2199 21.6153 12.2098C21.6471 12.1998 21.673 12.1857 21.6932 12.1677C21.7138 12.1492 21.7289 12.1275 21.7384 12.1026C21.7479 12.0772 21.7527 12.0494 21.7527 12.0192C21.7527 11.9605 21.7318 11.9141 21.69 11.8803C21.6482 11.8459 21.5854 11.8286 21.5018 11.8286H21.2556V12.2249H21.5018ZM21.2556 11.3307V11.7191H21.4589C21.5023 11.7191 21.5399 11.7143 21.5717 11.7048C21.6039 11.6952 21.6304 11.682 21.6511 11.665C21.6722 11.6481 21.6879 11.6277 21.6979 11.6039C21.708 11.5795 21.713 11.5531 21.713 11.5245C21.713 11.4572 21.6929 11.4083 21.6526 11.3776C21.6124 11.3463 21.5499 11.3307 21.4652 11.3307H21.2556ZM21.4652 11.2092C21.5351 11.2092 21.5952 11.2161 21.6455 11.2298C21.6963 11.2436 21.7379 11.2632 21.7702 11.2886C21.803 11.314 21.8271 11.3453 21.8425 11.3823C21.8578 11.4188 21.8655 11.4601 21.8655 11.5062C21.8655 11.5343 21.861 11.5613 21.852 11.5872C21.8435 11.6126 21.8306 11.6364 21.8131 11.6587C21.7956 11.6809 21.7734 11.701 21.7464 11.7191C21.7199 11.7365 21.6886 11.7508 21.6526 11.7619C21.7363 11.7778 21.799 11.8077 21.8409 11.8517C21.8832 11.8951 21.9044 11.9523 21.9044 12.0232C21.9044 12.0714 21.8954 12.1153 21.8774 12.155C21.8599 12.1948 21.834 12.2289 21.7996 12.2575C21.7657 12.2861 21.7239 12.3083 21.6741 12.3242C21.6243 12.3396 21.5677 12.3472 21.5042 12.3472H21.1023V11.2092H21.4652Z" fill="#521B74"/>
<path d="M20.4142 11.2092V12.3472H20.2792V11.511C20.2792 11.4999 20.2795 11.488 20.28 11.4752C20.281 11.4625 20.2821 11.4496 20.2832 11.4363L19.8924 12.1479C19.8803 12.1717 19.8617 12.1836 19.8369 12.1836H19.8146C19.7897 12.1836 19.7712 12.1717 19.759 12.1479L19.3604 11.4332C19.3635 11.4612 19.3651 11.4872 19.3651 11.511V12.3472H19.2301V11.2092H19.3437C19.3574 11.2092 19.368 11.2105 19.3754 11.2132C19.3829 11.2158 19.39 11.2232 19.3969 11.2354L19.79 11.9359C19.7963 11.9486 19.8024 11.9618 19.8083 11.9756C19.8146 11.9893 19.8204 12.0034 19.8257 12.0176C19.831 12.0034 19.8366 11.9893 19.8424 11.9756C19.8482 11.9613 19.8546 11.9478 19.8615 11.9351L20.2474 11.2354C20.2538 11.2232 20.2607 11.2158 20.2681 11.2132C20.276 11.2105 20.2869 11.2092 20.3006 11.2092H20.4142Z" fill="#521B74"/>
<path d="M18.5527 11.3871C18.548 11.395 18.5427 11.4011 18.5368 11.4053C18.5315 11.409 18.5249 11.4109 18.517 11.4109C18.508 11.4109 18.4974 11.4064 18.4852 11.3974C18.4731 11.3884 18.4577 11.3786 18.4392 11.368C18.4212 11.3569 18.3992 11.3468 18.3732 11.3378C18.3478 11.3288 18.3169 11.3243 18.2803 11.3243C18.2459 11.3243 18.2155 11.3291 18.189 11.3386C18.163 11.3476 18.1411 11.3601 18.1231 11.376C18.1056 11.3918 18.0924 11.4106 18.0834 11.4323C18.0744 11.4535 18.0699 11.4765 18.0699 11.5014C18.0699 11.5332 18.0775 11.5597 18.0929 11.5808C18.1088 11.6015 18.1295 11.6192 18.1549 11.634C18.1808 11.6489 18.2099 11.6618 18.2422 11.673C18.275 11.6836 18.3084 11.6947 18.3423 11.7063C18.3767 11.718 18.41 11.7312 18.4423 11.746C18.4752 11.7603 18.5043 11.7786 18.5297 11.8008C18.5556 11.8231 18.5763 11.8503 18.5916 11.8826C18.6075 11.9149 18.6155 11.9546 18.6155 12.0017C18.6155 12.0515 18.607 12.0984 18.5901 12.1423C18.5731 12.1857 18.5482 12.2236 18.5154 12.2559C18.4831 12.2882 18.4431 12.3136 18.3955 12.3321C18.3484 12.3506 18.2946 12.3599 18.2343 12.3599C18.1602 12.3599 18.0929 12.3467 18.0326 12.3202C17.9722 12.2932 17.9206 12.2569 17.8777 12.2114L17.9222 12.1383C17.9264 12.1325 17.9314 12.1277 17.9373 12.124C17.9436 12.1198 17.9505 12.1177 17.9579 12.1177C17.9648 12.1177 17.9725 12.1206 17.9809 12.1264C17.9899 12.1317 18 12.1386 18.0111 12.1471C18.0222 12.1556 18.0349 12.1648 18.0492 12.1749C18.0635 12.1849 18.0797 12.1942 18.0977 12.2027C18.1162 12.2111 18.1371 12.2183 18.1604 12.2241C18.1837 12.2294 18.2099 12.232 18.239 12.232C18.2756 12.232 18.3081 12.227 18.3367 12.217C18.3653 12.2069 18.3894 12.1929 18.409 12.1749C18.4291 12.1563 18.4445 12.1344 18.455 12.109C18.4656 12.0836 18.4709 12.0552 18.4709 12.024C18.4709 11.9896 18.463 11.9615 18.4471 11.9398C18.4318 11.9176 18.4114 11.899 18.3859 11.8842C18.3605 11.8694 18.3314 11.8569 18.2986 11.8469C18.2658 11.8363 18.2324 11.8257 18.1985 11.8151C18.1647 11.804 18.1313 11.7913 18.0985 11.777C18.0656 11.7627 18.0365 11.7442 18.0111 11.7214C17.9857 11.6986 17.965 11.6703 17.9492 11.6364C17.9338 11.602 17.9261 11.5596 17.9261 11.5094C17.9261 11.4691 17.9338 11.4302 17.9492 11.3926C17.965 11.355 17.9878 11.3217 18.0175 11.2926C18.0476 11.2634 18.0844 11.2401 18.1279 11.2227C18.1718 11.2052 18.2221 11.1965 18.2787 11.1965C18.3423 11.1965 18.4 11.2065 18.4519 11.2266C18.5043 11.2468 18.5503 11.2759 18.5901 11.314L18.5527 11.3871Z" fill="#521B74"/>
<path d="M16.0633 11.3347V11.7325H16.531V11.858H16.0633V12.3472H15.9092V11.2092H16.6104V11.3347H16.0633Z" fill="#521B74"/>
<path d="M15.2917 11.7786C15.2917 11.8638 15.2782 11.9422 15.2512 12.0136C15.2242 12.0846 15.1861 12.1457 15.1369 12.1971C15.0876 12.2485 15.0283 12.2884 14.9589 12.317C14.8901 12.3451 14.8139 12.3591 14.7302 12.3591C14.6466 12.3591 14.5704 12.3451 14.5015 12.317C14.4327 12.2884 14.3736 12.2485 14.3244 12.1971C14.2752 12.1457 14.2371 12.0846 14.21 12.0136C14.1831 11.9422 14.1696 11.8638 14.1696 11.7786C14.1696 11.6933 14.1831 11.6152 14.21 11.5443C14.2371 11.4728 14.2752 11.4114 14.3244 11.3601C14.3736 11.3082 14.4327 11.2679 14.5015 11.2393C14.5704 11.2108 14.6466 11.1965 14.7302 11.1965C14.8139 11.1965 14.8901 11.2108 14.9589 11.2393C15.0283 11.2679 15.0876 11.3082 15.1369 11.3601C15.1861 11.4114 15.2242 11.4728 15.2512 11.5443C15.2782 11.6152 15.2917 11.6933 15.2917 11.7786ZM15.1337 11.7786C15.1337 11.7087 15.1241 11.646 15.1051 11.5904C15.086 11.5348 15.059 11.4879 15.0241 11.4498C14.9891 11.4112 14.9468 11.3815 14.897 11.3608C14.8473 11.3402 14.7916 11.3299 14.7302 11.3299C14.6693 11.3299 14.614 11.3402 14.5643 11.3608C14.5145 11.3815 14.4719 11.4112 14.4364 11.4498C14.4015 11.4879 14.3745 11.5348 14.3554 11.5904C14.3363 11.646 14.3268 11.7087 14.3268 11.7786C14.3268 11.8485 14.3363 11.9112 14.3554 11.9668C14.3745 12.0219 14.4015 12.0687 14.4364 12.1074C14.4719 12.1455 14.5145 12.1749 14.5643 12.1955C14.614 12.2156 14.6693 12.2257 14.7302 12.2257C14.7916 12.2257 14.8473 12.2156 14.897 12.1955C14.9468 12.1749 14.9891 12.1455 15.0241 12.1074C15.059 12.0687 15.086 12.0219 15.1051 11.9668C15.1241 11.9112 15.1337 11.8485 15.1337 11.7786Z" fill="#521B74"/>
<path d="M12.7487 11.2092V12.3472H12.6716C12.6595 12.3472 12.6492 12.3451 12.6407 12.3409C12.6327 12.3366 12.6248 12.3295 12.6168 12.3194L11.9585 11.4617C11.9596 11.475 11.9604 11.488 11.9609 11.5007C11.9614 11.5134 11.9617 11.5253 11.9617 11.5364V12.3472H11.8267V11.2092H11.9061C11.913 11.2092 11.9188 11.2097 11.9236 11.2108C11.9283 11.2113 11.9326 11.2126 11.9363 11.2148C11.94 11.2164 11.9437 11.219 11.9474 11.2227C11.9511 11.2259 11.9551 11.2301 11.9593 11.2354L12.6176 12.0923C12.6166 12.0785 12.6155 12.0653 12.6145 12.0526C12.614 12.0394 12.6137 12.0269 12.6137 12.0153V11.2092H12.7487Z" fill="#521B74"/>
<path d="M11.2092 11.7786C11.2092 11.8638 11.1957 11.9422 11.1687 12.0136C11.1417 12.0846 11.1036 12.1457 11.0543 12.1971C11.0051 12.2485 10.9458 12.2884 10.8764 12.317C10.8076 12.3451 10.7314 12.3591 10.6477 12.3591C10.564 12.3591 10.4878 12.3451 10.419 12.317C10.3502 12.2884 10.2911 12.2485 10.2419 12.1971C10.1927 12.1457 10.1545 12.0846 10.1275 12.0136C10.1005 11.9422 10.087 11.8638 10.087 11.7786C10.087 11.6933 10.1005 11.6152 10.1275 11.5443C10.1545 11.4728 10.1927 11.4114 10.2419 11.3601C10.2911 11.3082 10.3502 11.2679 10.419 11.2393C10.4878 11.2108 10.564 11.1965 10.6477 11.1965C10.7314 11.1965 10.8076 11.2108 10.8764 11.2393C10.9458 11.2679 11.0051 11.3082 11.0543 11.3601C11.1036 11.4114 11.1417 11.4728 11.1687 11.5443C11.1957 11.6152 11.2092 11.6933 11.2092 11.7786ZM11.0512 11.7786C11.0512 11.7087 11.0416 11.646 11.0226 11.5904C11.0035 11.5348 10.9765 11.4879 10.9416 11.4498C10.9066 11.4112 10.8643 11.3815 10.8145 11.3608C10.7647 11.3402 10.7091 11.3299 10.6477 11.3299C10.5868 11.3299 10.5315 11.3402 10.4817 11.3608C10.432 11.3815 10.3893 11.4112 10.3539 11.4498C10.3189 11.4879 10.2919 11.5348 10.2729 11.5904C10.2538 11.646 10.2443 11.7087 10.2443 11.7786C10.2443 11.8485 10.2538 11.9112 10.2729 11.9668C10.2919 12.0219 10.3189 12.0687 10.3539 12.1074C10.3893 12.1455 10.432 12.1749 10.4817 12.1955C10.5315 12.2156 10.5868 12.2257 10.6477 12.2257C10.7091 12.2257 10.7647 12.2156 10.8145 12.1955C10.8643 12.1749 10.9066 12.1455 10.9416 12.1074C10.9765 12.0687 11.0035 12.0219 11.0226 11.9668C11.0416 11.9112 11.0512 11.8485 11.0512 11.7786Z" fill="#521B74"/>
<path d="M9.46956 12.3472H9.31549V11.2092H9.46956V12.3472Z" fill="#521B74"/>
<path d="M8.63811 11.3871C8.63336 11.395 8.62806 11.4011 8.62223 11.4053C8.61693 11.409 8.61032 11.4109 8.60237 11.4109C8.59338 11.4109 8.58279 11.4064 8.5706 11.3974C8.55844 11.3884 8.54307 11.3786 8.52456 11.368C8.50656 11.3569 8.48458 11.3468 8.45863 11.3378C8.43322 11.3288 8.40225 11.3243 8.36571 11.3243C8.33131 11.3243 8.30086 11.3291 8.27439 11.3386C8.24844 11.3476 8.22649 11.3601 8.20849 11.376C8.191 11.3918 8.17776 11.4106 8.16877 11.4323C8.15976 11.4535 8.15526 11.4765 8.15526 11.5014C8.15526 11.5332 8.16293 11.5597 8.1783 11.5808C8.19418 11.6015 8.21484 11.6192 8.24025 11.634C8.26618 11.6489 8.29531 11.6618 8.32759 11.673C8.36042 11.6836 8.39378 11.6947 8.42766 11.7063C8.46209 11.718 8.49543 11.7312 8.52773 11.746C8.56056 11.7603 8.58966 11.7786 8.6151 11.8008C8.64103 11.8231 8.66169 11.8503 8.67703 11.8826C8.69291 11.9149 8.70086 11.9546 8.70086 12.0017C8.70086 12.0515 8.69239 12.0984 8.67545 12.1423C8.65851 12.1857 8.63361 12.2236 8.60079 12.2559C8.56849 12.2882 8.52853 12.3136 8.48086 12.3321C8.43376 12.3506 8.38002 12.3599 8.31966 12.3599C8.24554 12.3599 8.1783 12.3467 8.11795 12.3202C8.05759 12.2932 8.00597 12.2569 7.96307 12.2114L8.00755 12.1383C8.01178 12.1325 8.01682 12.1277 8.02265 12.124C8.029 12.1198 8.03587 12.1177 8.04329 12.1177C8.05018 12.1177 8.05785 12.1206 8.06632 12.1264C8.07531 12.1317 8.08538 12.1386 8.09649 12.1471C8.10762 12.1556 8.12032 12.1648 8.13463 12.1749C8.14891 12.1849 8.16505 12.1942 8.18305 12.2027C8.20159 12.2111 8.22251 12.2183 8.2458 12.2241C8.2691 12.2294 8.29531 12.232 8.32442 12.232C8.36096 12.232 8.39352 12.227 8.42211 12.217C8.4507 12.2069 8.47479 12.1929 8.49437 12.1749C8.51449 12.1563 8.52985 12.1344 8.54044 12.109C8.55103 12.0836 8.55632 12.0552 8.55632 12.024C8.55632 11.9896 8.54837 11.9615 8.53249 11.9398C8.51714 11.9176 8.49674 11.899 8.47133 11.8842C8.44592 11.8694 8.41682 11.8569 8.38399 11.8469C8.35117 11.8363 8.3178 11.8257 8.28392 11.8151C8.25004 11.804 8.21667 11.7913 8.18385 11.777C8.15103 11.7627 8.12192 11.7442 8.09649 11.7214C8.07107 11.6986 8.05044 11.6703 8.03456 11.6364C8.01919 11.602 8.01152 11.5596 8.01152 11.5094C8.01152 11.4691 8.01919 11.4302 8.03456 11.3926C8.05044 11.355 8.07319 11.3217 8.10286 11.2926C8.13303 11.2634 8.16983 11.2401 8.21324 11.2227C8.25719 11.2052 8.30747 11.1965 8.36413 11.1965C8.42766 11.1965 8.48538 11.2065 8.53726 11.2266C8.58966 11.2468 8.63573 11.2759 8.67545 11.314L8.63811 11.3871Z" fill="#521B74"/>
<path d="M7.36782 12.3472H7.21375V11.2092H7.36782V12.3472Z" fill="#521B74"/>
<path d="M6.66699 11.2092L6.2032 12.3472H6.06502L5.60123 11.2092H5.72431C5.73807 11.2092 5.7492 11.2126 5.75767 11.2195C5.76614 11.2264 5.7725 11.2351 5.77673 11.2457L6.09758 12.0486C6.10445 12.0666 6.11109 12.0862 6.11744 12.1074C6.12431 12.1286 6.1304 12.1508 6.1357 12.1741C6.14099 12.1508 6.14654 12.1286 6.15238 12.1074C6.15819 12.0862 6.16454 12.0666 6.17144 12.0486L6.49149 11.2457C6.49466 11.2367 6.50073 11.2285 6.50974 11.2211C6.51927 11.2132 6.53066 11.2092 6.54389 11.2092H6.66699Z" fill="#521B74"/>
<path d="M5.05361 12.3472H4.89954V11.2092H5.05361V12.3472Z" fill="#521B74"/>
<path d="M4.28048 11.7786C4.28048 11.8639 4.26698 11.9414 4.23999 12.0113C4.21298 12.0812 4.17486 12.141 4.12561 12.1908C4.07639 12.2405 4.01709 12.2792 3.94773 12.3067C3.8789 12.3337 3.80265 12.3472 3.719 12.3472H3.29413V11.2092H3.719C3.80265 11.2092 3.8789 11.223 3.94773 11.2505C4.01709 11.2775 4.07639 11.3161 4.12561 11.3664C4.17486 11.4162 4.21298 11.476 4.23999 11.5459C4.26698 11.6158 4.28048 11.6934 4.28048 11.7786ZM4.12243 11.7786C4.12243 11.7087 4.1129 11.6463 4.09385 11.5912C4.07479 11.5361 4.0478 11.4895 4.01286 11.4514C3.97789 11.4133 3.93554 11.3842 3.88578 11.364C3.83601 11.3439 3.78041 11.3339 3.719 11.3339H3.4482V12.2225H3.719C3.78041 12.2225 3.83601 12.2125 3.88578 12.1924C3.93554 12.1723 3.97789 12.1434 4.01286 12.1058C4.0478 12.0677 4.07479 12.0211 4.09385 11.966C4.1129 11.911 4.12243 11.8485 4.12243 11.7786Z" fill="#521B74"/>
</g>
<defs>
<clipPath id="clip0_807_3042">
<rect width="40" height="8.7214" fill="white" transform="translate(0 3.63931)"/>
</clipPath>
</defs>
</svg>
