<svg width="18" height="16" viewBox="0 0 18 16" fill="none" xmlns="http://www.w3.org/2000/svg">
<g clip-path="url(#clip0_742_97)">
<path fill-rule="evenodd" clip-rule="evenodd" d="M10.2358 1.02503C10.2244 0.988006 10.2244 0.988006 10.2244 0.956678C10.2139 0.713878 10.3001 0.476816 10.4643 0.29757C10.6284 0.118324 10.8569 0.0115535 11.0997 0.000713268C11.3423 -0.00883342 11.5787 0.0777657 11.7578 0.241676C11.9368 0.405586 12.0439 0.63355 12.0557 0.875986C12.0668 1.11813 11.9813 1.35479 11.8181 1.53401C11.6549 1.71323 11.4273 1.82039 11.1852 1.83195C11.1595 1.83575 11.1263 1.83195 11.0893 1.83195C11.0741 1.83575 11.0513 1.83575 11.0361 1.85284C10.9829 1.93258 11.169 1.92214 11.0314 2.27054C11.0314 2.27054 11.0314 2.30661 11.02 2.34363C11.0086 2.47654 10.944 2.87715 10.9288 3.09644C10.9564 3.13442 10.9668 3.14391 10.9564 3.21986C10.9355 3.39003 10.907 3.55919 10.8709 3.72679C10.833 3.8597 10.7798 3.89197 10.7314 3.91856C10.6621 4.20145 10.6412 4.43593 10.4646 4.77769C10.4437 5.0397 10.4219 5.10995 10.364 5.23716C10.3479 5.61689 10.3735 5.67385 10.0972 6.28236C10.0213 6.56716 10.0811 6.76367 10.1447 7.06175C10.2093 7.36648 10.4067 7.49939 10.4276 7.81456C10.4751 8.54649 10.4437 9.05343 10.2729 9.62492L10.401 9.95528C10.5719 10.035 10.9877 10.2648 10.7428 10.5961C11.0684 10.7764 11.5639 10.9701 11.9579 11.3375C12.125 11.477 12.2902 11.6365 12.4449 11.8121C12.7449 11.8663 12.7069 11.8881 12.9253 12.0314C13.566 12.4472 14.5856 13.2694 15.178 13.8408C15.2843 13.9044 15.3175 13.9472 15.402 13.9956C15.4115 14.0174 15.4182 14.0279 15.4115 14.0336C15.3868 14.1019 15.3868 14.1019 15.3546 14.1665C15.3916 14.2044 15.4447 14.2358 15.4818 14.268C15.5197 14.2728 15.5197 14.2623 15.5729 14.2519C15.6479 14.3212 15.7438 14.3801 15.7761 14.3801C15.8767 14.3592 15.8558 14.3753 15.9517 14.2851C15.9792 14.2519 16.0314 14.2851 16.0314 14.2851C16.0694 14.2472 16.1387 14.1722 16.2346 14.118C16.3096 14.0753 16.4529 14.0753 16.4529 14.0753C16.5023 14.081 16.4909 14.1237 16.4805 14.1446C16.4263 14.1665 16.3096 14.1987 16.246 14.2472C16.1017 14.3801 15.984 14.5823 15.984 14.5823C16.2678 14.5509 16.4434 14.625 16.6665 14.6041C16.7956 14.5994 16.8915 14.6098 17.0244 14.5187C17.0244 14.5187 17.1573 14.4275 17.276 14.3858C17.388 14.3383 17.4943 14.3696 17.5893 14.4446C17.6548 14.5244 17.7022 14.5244 17.5893 14.6307C17.5475 14.6734 17.4943 14.7218 17.4184 14.7921C17.2921 14.9088 17.1212 15.0683 16.9437 15.2022C16.7872 15.3181 16.6197 15.4183 16.4434 15.5012C16.1226 15.7195 16.1966 15.6664 15.9469 15.8752C15.9185 15.8961 15.8292 15.9493 15.7922 15.9759C15.6906 16.0347 15.664 15.9816 15.6052 15.8638C15.6052 15.8638 15.5786 15.8211 15.5292 15.7309C15.4818 15.6294 15.4438 15.5126 15.4609 15.5126C15.402 15.506 15.1467 15.186 15.1467 15.1234C15.0869 15.111 14.8581 14.8766 14.8524 14.8291L14.6492 14.6582C14.409 14.7 14.3549 14.5509 13.7369 14.081C13.661 14.0753 13.5499 14.0336 13.3952 13.9158C13.1123 13.6757 12.4392 13.1421 12.3281 13.0776C12.2047 13.014 12.0614 12.9504 11.9645 12.8744C11.8259 12.8536 11.7576 12.827 11.6816 12.8108C11.6057 12.7899 11.5487 12.7567 11.3722 12.7358C11.0845 12.6931 10.7855 12.565 10.5073 12.4159C10.3744 12.3466 10.2567 12.3143 10.1447 12.2555C9.88838 12.1378 9.66434 12.0314 9.49346 11.9897C9.30442 11.9442 9.12284 11.872 8.95425 11.7751C8.89634 11.7428 8.86407 11.7182 8.82704 11.7058C8.7416 11.6849 8.6818 11.7115 8.64477 11.7267C8.42643 11.8292 8.22897 11.9194 8.04101 12.021C7.87013 12.1064 7.71064 12.1976 7.53976 12.2925C7.37383 12.3791 7.20473 12.4596 7.03283 12.5336C7.03283 12.5336 6.52589 12.7738 6.24299 12.864C5.99617 13.051 5.49588 13.3823 5.1921 13.5428C5.0421 13.6121 4.74877 13.782 4.61491 13.82C4.53897 13.8779 4.26271 14.0649 4.04912 14.2196C3.87824 14.3373 3.75483 14.4389 3.75483 14.4389C3.6542 14.5187 3.65895 14.5623 3.48902 14.4816C3.44626 14.5098 3.40507 14.5402 3.36561 14.5728C3.2327 14.663 3.22701 14.6421 3.17384 14.6364C3.07796 14.7123 3.06657 14.6743 2.98683 14.7598C2.92892 14.8395 2.98683 14.8177 2.87481 14.8604C2.84823 14.8661 2.83683 14.8984 2.8207 14.9136C2.73146 14.9829 2.72576 15.1917 2.51217 15.2022C2.38401 15.2876 2.41059 15.3949 2.32515 15.3835C2.32515 15.4803 2.15427 15.6018 2.122 15.6018C1.8448 15.693 1.8334 15.4898 1.50874 15.6351C1.46602 15.6502 1.40146 15.7034 1.32172 15.7148C1.17742 15.7357 1.00655 15.7091 0.900223 15.618C0.780665 15.5064 0.676581 15.3793 0.590745 15.2401C0.542329 15.1167 0.574606 15.0427 0.745484 14.925C0.814784 14.8822 0.825226 14.85 0.942942 14.8452C0.999901 14.8224 0.985662 14.8547 1.08534 14.8224C1.1461 14.8073 1.1461 14.8177 1.26856 14.8177C1.29514 14.8016 1.33216 14.7968 1.38627 14.775C1.48121 14.7427 1.57234 14.7161 1.57234 14.7161C1.57234 14.7161 1.59892 14.6943 1.69006 14.7066C1.7641 14.6734 1.85049 14.6307 1.89321 14.6145C1.88182 14.4968 1.89796 14.4968 1.95017 14.4494C2.02612 14.3905 2.03561 14.4019 2.09067 14.4399C2.11155 14.4332 2.12769 14.4275 2.1163 14.4066C2.10681 14.3373 2.05839 14.3051 2.07358 14.1722C2.0527 14.118 2.01567 14.0497 2.02612 14.007C2.03561 13.9643 2.0527 13.9415 2.07928 13.932C2.10681 13.9206 2.122 13.9377 2.13339 13.9529C2.15997 13.9851 2.18086 14.081 2.18086 14.081C2.18655 14.193 2.21883 14.3278 2.32515 14.2519C2.38876 14.193 2.40489 14.0222 2.52831 14.0592L2.61944 14.1399C2.69918 14.0706 2.69918 14.0706 2.75235 14.0383C2.75235 14.0383 2.6764 13.969 2.74095 13.9101C2.78367 13.8731 2.84348 13.8465 2.93841 13.744C3.20042 13.4668 3.33903 13.3453 3.61623 13.1203C4.10854 12.7477 4.65169 12.4475 5.22912 12.2289C5.36772 12.0637 5.49493 11.9574 5.78447 11.9403C6.14237 11.365 6.81448 10.8619 6.96922 10.7821C7.09643 10.5638 7.14959 10.5847 7.31573 10.5477C7.44388 10.4461 7.48186 10.4461 7.53407 10.3445C7.59388 10.1262 7.42774 9.52809 7.89766 9.51195C8.00398 9.37335 7.97171 9.40562 8.08372 9.27652C8.02789 9.12324 7.99029 8.96392 7.97171 8.80186C7.96696 8.78667 7.78564 8.65281 7.84829 8.48668C7.74878 8.35967 7.66347 8.22215 7.59388 8.07658C7.57346 8.07599 7.55327 8.07214 7.53407 8.06518C7.51318 8.06044 7.48186 8.06044 7.44863 8.06044C7.37458 8.2465 7.29389 8.2579 7.16099 8.30062C6.91416 8.78667 6.82872 8.99457 6.168 9.38474C5.90219 9.66763 5.80536 9.9923 5.80536 9.98661C5.76507 10.0835 5.76102 10.1917 5.79397 10.2913C5.75125 10.3929 5.76833 10.4091 5.76833 10.4091C5.77783 10.4518 5.8215 10.5097 5.86896 10.5154C5.94396 10.5372 6.0294 10.5372 6.01895 10.6274C6.00851 10.7347 5.86422 10.7128 5.79397 10.6967C5.5329 10.6492 5.61834 10.4784 5.44746 10.5315C5.31361 10.6122 5.2614 10.8619 5.05255 10.8258C5.02597 10.804 5.03641 10.7556 5.05824 10.7128C5.08482 10.6559 5.13799 10.6008 5.11141 10.5799C4.9728 10.6179 4.70035 10.6967 4.70035 10.6967C4.57219 10.7347 4.43359 10.6597 4.5608 10.579C4.62061 10.5581 4.70605 10.5315 4.81237 10.467C4.81237 10.467 4.87123 10.3986 4.75826 10.4299C4.63037 10.4683 4.49649 10.4828 4.36334 10.4727C4.36334 10.4727 4.11937 10.4356 4.08614 10.4195C4.05956 10.3986 4.02823 10.3179 4.10228 10.3246C4.2822 10.3218 4.46134 10.3002 4.63675 10.26C4.72693 10.2268 4.90255 10.1271 4.99939 10.0834C4.99939 10.0834 5.10666 9.93439 5.17026 9.90307C5.27184 9.79484 5.35063 9.73219 5.43607 9.61922C5.52151 9.44834 5.61834 9.18253 5.91073 8.75914C6.05893 8.53813 6.22909 8.33266 6.41862 8.14588C6.41862 8.14588 6.47748 7.82501 6.74423 7.60192C6.80404 7.46901 6.89328 7.30763 6.99011 7.16333C7.02673 7.11218 7.06033 7.05892 7.09074 7.00384C7.17618 6.88043 7.26731 6.64595 7.58248 6.61462C7.58248 6.61462 7.72203 6.51779 7.7695 6.44849C7.84924 6.37919 7.83975 6.27192 7.9024 6.20262C7.80178 6.10199 7.5559 5.90928 7.53976 5.65866C7.52939 5.53727 7.54663 5.41511 7.5902 5.30134C7.63377 5.18756 7.70253 5.08513 7.79133 5.00173C7.9774 4.8261 8.16916 4.74067 8.4046 4.7568C8.69793 4.80902 8.75205 4.90585 8.83654 5.00173C8.92197 5.09761 8.95995 5.0397 8.99127 5.14033C9.23715 5.20963 9.22671 5.18305 9.21626 5.36437C9.25898 5.41848 9.31689 5.4669 9.3112 5.56752C9.39189 5.40139 9.41372 5.37007 9.63776 5.18875C9.69662 5.0397 9.73269 4.88971 9.78016 4.73497C9.82952 4.59637 9.88838 4.45207 9.92635 4.34575C9.88838 4.03627 9.98331 3.98786 10.1124 3.7154C10.0915 3.67838 10.0972 3.66793 10.1067 3.60908C10.1608 3.42681 10.2358 3.19802 10.2833 3.04328C10.2833 3.04328 10.2994 2.98348 10.364 2.98348C10.421 2.79171 10.513 2.43382 10.5339 2.35408C10.5928 2.15662 10.5614 2.08162 10.5244 1.96486C10.513 1.92688 10.5187 1.87942 10.4959 1.83575C10.4305 1.70854 10.3703 1.57869 10.3156 1.44653C10.289 1.37723 10.2396 1.11047 10.2396 1.11047C10.2358 1.05161 10.2358 1.02503 10.2358 1.02503Z" fill="#111111"/>
</g>
<defs>
<clipPath id="clip0_742_97">
<rect width="17.087" height="16" fill="white" transform="translate(0.570312)"/>
</clipPath>
</defs>
</svg>
