<svg width="69" height="64" viewBox="0 0 69 64" fill="none" xmlns="http://www.w3.org/2000/svg">
<g clip-path="url(#clip0_742_97)">
<path fill-rule="evenodd" clip-rule="evenodd" d="M39.3149 4.10012C39.2693 3.95202 39.2693 3.95202 39.2693 3.82671C39.2271 2.85551 39.5721 1.90727 40.2286 1.19028C40.8851 0.473297 41.7993 0.0462141 42.7704 0.00285307C43.7406 -0.0353337 44.6866 0.311063 45.4027 0.966703C46.1187 1.62234 46.547 2.5342 46.5943 3.50394C46.6386 4.47253 46.2969 5.41914 45.6441 6.13604C44.9913 6.85294 44.0807 7.28155 43.1122 7.3278C43.0097 7.34299 42.8768 7.3278 42.7287 7.3278C42.6679 7.34299 42.5768 7.34299 42.516 7.41134C42.3034 7.73032 43.0476 7.68854 42.497 9.08215C42.497 9.08215 42.497 9.22644 42.4515 9.37454C42.4059 9.90616 42.1477 11.5086 42.0869 12.3858C42.197 12.5377 42.2388 12.5756 42.197 12.8794C42.1137 13.5601 41.9997 14.2367 41.8553 14.9072C41.7034 15.4388 41.4908 15.5679 41.2971 15.6742C41.0199 16.8058 40.9364 17.7437 40.2301 19.1108C40.1465 20.1588 40.0592 20.4398 39.8275 20.9486C39.763 22.4676 39.8655 22.6954 38.7605 25.1294C38.4567 26.2686 38.696 27.0547 38.9504 28.247C39.2086 29.4659 39.9984 29.9976 40.082 31.2583C40.2718 34.186 40.1465 36.2137 39.463 38.4997L39.9756 39.8211C40.6591 40.1401 42.3224 41.059 41.3427 42.3843C42.6451 43.1058 44.6273 43.8804 46.2032 45.35C46.8715 45.9082 47.5322 46.5461 48.1512 47.2486C49.3511 47.465 49.1992 47.5524 50.0726 48.1258C52.6358 49.789 56.714 53.0774 59.0835 55.3634C59.5088 55.6178 59.6417 55.7887 59.9797 55.9823C60.0177 56.0697 60.0443 56.1114 60.0177 56.1342C59.9189 56.4076 59.9189 56.4076 59.7898 56.6658C59.9379 56.8177 60.1506 56.943 60.2987 57.0722C60.4506 57.0911 60.4506 57.0494 60.6632 57.0076C60.9632 57.2848 61.3467 57.5202 61.4758 57.5202C61.8783 57.4367 61.7948 57.5012 62.1783 57.1405C62.2884 57.0076 62.4973 57.1405 62.4973 57.1405C62.6492 56.9886 62.9264 56.6886 63.3099 56.4722C63.6099 56.3013 64.1833 56.3013 64.1833 56.3013C64.3808 56.3241 64.3352 56.495 64.2934 56.5785C64.077 56.6658 63.6099 56.7949 63.3555 56.9886C62.7783 57.5202 62.3074 58.3291 62.3074 58.3291C63.4428 58.2037 64.1453 58.4999 65.0377 58.4164C65.5541 58.3974 65.9376 58.4392 66.4693 58.0746C66.4693 58.0746 67.0009 57.7101 67.4755 57.543C67.9236 57.3531 68.3489 57.4785 68.7286 57.7784C68.9906 58.0974 69.1805 58.0974 68.7286 58.5227C68.5616 58.6936 68.3489 58.8873 68.0451 59.1683C67.5401 59.6353 66.8566 60.2733 66.1465 60.8087C65.5205 61.2724 64.8502 61.6731 64.1453 62.0048C62.8618 62.8782 63.158 62.6655 62.1593 63.5009C62.0454 63.5845 61.6885 63.7971 61.5404 63.9035C61.1341 64.1389 61.0277 63.9262 60.7923 63.4554C60.7923 63.4554 60.686 63.2845 60.4885 62.9238C60.2987 62.5175 60.1468 62.0504 60.2151 62.0504C59.9797 62.0238 58.9582 60.7441 58.9582 60.4935C58.719 60.4441 57.8039 59.5062 57.7811 59.3163L56.9685 58.6328C56.0077 58.7999 55.7913 58.2037 53.3193 56.3241C53.0155 56.3013 52.5712 56.1342 51.9523 55.6634C50.8207 54.7027 48.1284 52.5686 47.6841 52.3104C47.1905 52.056 46.6171 51.8015 46.2298 51.4977C45.6754 51.4142 45.4019 51.3079 45.0982 51.2433C44.7944 51.1598 44.5665 51.0269 43.8603 50.9433C42.7097 50.7725 41.5135 50.2598 40.4009 49.6637C39.8693 49.3865 39.3985 49.2574 38.9504 49.0219C37.9251 48.5511 37.0289 48.1258 36.3454 47.9587C35.5893 47.7769 34.8629 47.4879 34.1886 47.1005C33.957 46.9714 33.8278 46.8727 33.6798 46.8233C33.338 46.7398 33.0988 46.8461 32.9507 46.9068C32.0773 47.3169 31.2875 47.6777 30.5356 48.084C29.8521 48.4257 29.2142 48.7903 28.5306 49.17C27.8669 49.5165 27.1905 49.8382 26.5029 50.1345C26.5029 50.1345 24.4751 51.0952 23.3436 51.456C22.3563 52.204 20.3551 53.5293 19.14 54.171C18.54 54.4482 17.3666 55.1279 16.8312 55.2798C16.5274 55.5115 15.4224 56.2595 14.568 56.8785C13.8845 57.3494 13.3909 57.7557 13.3909 57.7557C12.9884 58.0746 13.0074 58.2493 12.3277 57.9265C12.1566 58.039 11.9918 58.1607 11.834 58.2911C11.3024 58.6518 11.2796 58.5683 11.067 58.5455C10.6834 58.8493 10.6379 58.6974 10.3189 59.0391C10.0873 59.3581 10.3189 59.2708 9.87081 59.4417C9.76449 59.4644 9.71892 59.5935 9.65437 59.6543C9.29742 59.9315 9.27464 60.7669 8.42025 60.8087C7.90762 61.1504 8.01394 61.5795 7.67219 61.534C7.67219 61.9213 6.98868 62.4073 6.85957 62.4073C5.75077 62.7719 5.7052 61.9593 4.40653 62.5402C4.23565 62.601 3.97744 62.8136 3.65847 62.8592C3.08128 62.9428 2.39777 62.8364 1.97247 62.4719C1.49424 62.0256 1.0779 61.5173 0.734561 60.9606C0.5409 60.4669 0.670007 60.1707 1.35352 59.6999C1.63072 59.529 1.67249 59.3999 2.14335 59.3809C2.37119 59.2898 2.31423 59.4189 2.71294 59.2898C2.95597 59.229 2.95597 59.2708 3.44582 59.2708C3.55214 59.2062 3.70023 59.1872 3.91668 59.0999C4.29641 58.9708 4.66095 58.8645 4.66095 58.8645C4.66095 58.8645 4.76727 58.7771 5.13181 58.8265C5.428 58.6936 5.77355 58.5227 5.94443 58.4582C5.89886 57.9873 5.96341 57.9873 6.17226 57.7974C6.47605 57.562 6.51402 57.6076 6.73426 57.7595C6.8178 57.7329 6.88236 57.7101 6.83679 57.6266C6.79882 57.3494 6.60515 57.2202 6.66591 56.6886C6.58237 56.4722 6.43428 56.1988 6.47605 56.0279C6.51402 55.857 6.58237 55.7659 6.68869 55.7279C6.79882 55.6824 6.85957 55.7507 6.90514 55.8115C7.01146 55.9406 7.095 56.3241 7.095 56.3241C7.11779 56.7722 7.24689 57.3114 7.67219 57.0076C7.92661 56.7722 7.99116 56.0887 8.48481 56.2367L8.84934 56.5595C9.16832 56.2823 9.16832 56.2823 9.38096 56.1532C9.38096 56.1532 9.07718 55.876 9.3354 55.6406C9.50627 55.4925 9.7455 55.3862 10.1252 54.9761C11.1733 53.8673 11.7277 53.3812 12.8365 52.4812C14.8057 50.9908 16.9783 49.79 19.2881 48.9156C19.8425 48.2549 20.3513 47.8296 21.5095 47.7612C22.941 45.4601 25.6295 43.4475 26.2485 43.1285C26.7573 42.2552 26.97 42.3387 27.6345 42.1906C28.1471 41.7843 28.299 41.7843 28.5079 41.378C28.7471 40.5046 28.0826 38.1123 29.9622 38.0478C30.3875 37.4934 30.2584 37.6225 30.7065 37.1061C30.4832 36.493 30.3328 35.8557 30.2584 35.2074C30.2394 35.1467 29.5141 34.6113 29.7648 33.9467C29.3667 33.4387 29.0255 32.8886 28.7471 32.3063C28.6654 32.304 28.5847 32.2886 28.5079 32.2607C28.4243 32.2417 28.299 32.2417 28.1661 32.2417C27.8699 32.986 27.5471 33.0316 27.0155 33.2025C26.0282 35.1467 25.6865 35.9783 23.0436 37.539C21.9803 38.6705 21.593 39.9692 21.593 39.9464C21.4318 40.3341 21.4157 40.7668 21.5474 41.1654C21.3766 41.5717 21.4449 41.6362 21.4449 41.6362C21.4829 41.8071 21.6576 42.0387 21.8474 42.0615C22.1474 42.1488 22.4892 42.1488 22.4474 42.5096C22.4056 42.9387 21.8284 42.8513 21.5474 42.7868C20.5032 42.5969 20.8449 41.9134 20.1614 42.1261C19.626 42.4488 19.4172 43.4475 18.5818 43.3032C18.4754 43.2159 18.5172 43.0222 18.6046 42.8513C18.7109 42.6235 18.9235 42.4033 18.8172 42.3197C18.2628 42.4716 17.173 42.7868 17.173 42.7868C16.6603 42.9387 16.1059 42.6387 16.6148 42.3159C16.854 42.2324 17.1958 42.1261 17.6211 41.8678C17.6211 41.8678 17.8565 41.5944 17.4046 41.7198C16.893 41.8733 16.3575 41.9313 15.8249 41.8906C15.8249 41.8906 14.849 41.7425 14.7161 41.678C14.6098 41.5944 14.4845 41.2717 14.7807 41.2983C15.5004 41.2872 16.2169 41.2006 16.9186 41.04C17.2793 40.9071 17.9818 40.5084 18.3691 40.3337C18.3691 40.3337 18.7982 39.7376 19.0526 39.6123C19.4589 39.1794 19.7741 38.9288 20.1159 38.4769C20.4576 37.7934 20.845 36.7301 22.0145 35.0365C22.6073 34.1525 23.288 33.3307 24.0461 32.5835C24.0461 32.5835 24.2815 31.3 25.3485 30.4077C25.5877 29.876 25.9447 29.2305 26.332 28.6533C26.4785 28.4487 26.6129 28.2357 26.7345 28.0154C27.0763 27.5217 27.4408 26.5838 28.7015 26.4585C28.7015 26.4585 29.2597 26.0712 29.4496 25.794C29.7686 25.5168 29.7306 25.0877 29.9812 24.8105C29.5787 24.408 28.5952 23.6371 28.5306 22.6346C28.4891 22.1491 28.5581 21.6604 28.7324 21.2053C28.9066 20.7503 29.1817 20.3405 29.5369 20.0069C30.2812 19.3044 31.0482 18.9627 31.99 19.0272C33.1633 19.2361 33.3798 19.6234 33.7177 20.0069C34.0595 20.3904 34.2114 20.1588 34.3367 20.5613C35.3202 20.8385 35.2784 20.7322 35.2366 21.4575C35.4075 21.6739 35.6391 21.8676 35.6164 22.2701C35.9391 21.6056 36.0265 21.4803 36.9226 20.755C37.1581 20.1588 37.3024 19.5588 37.4922 18.9399C37.6897 18.3855 37.9251 17.8083 38.077 17.383C37.9251 16.1451 38.3048 15.9514 38.8213 14.8616C38.7377 14.7135 38.7605 14.6717 38.7985 14.4363C39.0149 13.7072 39.3149 12.7921 39.5048 12.1731C39.5048 12.1731 39.5693 11.9339 39.8275 11.9339C40.0554 11.1669 40.4237 9.73528 40.5073 9.41631C40.7427 8.62647 40.6174 8.32649 40.4693 7.85942C40.4237 7.70753 40.4465 7.51767 40.3554 7.34299C40.0936 6.83417 39.8529 6.31476 39.6339 5.78611C39.5276 5.50891 39.3301 4.44187 39.3301 4.44187C39.3149 4.20644 39.3149 4.10012 39.3149 4.10012Z" fill="#111111"/>
</g>
<defs>
<clipPath id="clip0_742_97">
<rect width="68.3481" height="64" fill="white" transform="translate(0.652832)"/>
</clipPath>
</defs>
</svg>
