<svg width="41" height="16" viewBox="0 0 41 16" fill="none" xmlns="http://www.w3.org/2000/svg">
<g clip-path="url(#clip0_806_1566)">
<g clip-path="url(#clip1_806_1566)">
<path d="M4.58947 3.94193H2.23875V4.14193H2.98657V8.02888C2.98657 9.1883 2.66193 9.52743 1.9344 9.52743C1.80602 9.54124 1.67742 9.50351 1.57686 9.42252C1.4763 9.34153 1.41203 9.22392 1.39817 9.09555C1.39383 9.06381 1.39383 9.03163 1.39817 8.9999C1.39817 8.57671 1.37498 8.31584 0.986572 8.31584C0.598166 8.31584 0.554688 8.71004 0.554688 8.82888C0.554688 9.36511 0.792369 9.77381 1.86193 9.77381C3.1373 9.77381 3.82715 9.34482 3.82715 7.92453V4.13903H4.61266L4.58947 3.94193Z" fill="#503629"/>
<path d="M4.90237 8.86945C4.84172 8.86729 4.78128 8.87777 4.72489 8.90023C4.6685 8.92268 4.6174 8.95662 4.57484 8.99988C4.53147 9.04252 4.49728 9.09356 4.47435 9.14988C4.45142 9.20621 4.44024 9.26662 4.4415 9.32742C4.44058 9.38688 4.45194 9.44589 4.47489 9.50076C4.49783 9.55562 4.53186 9.60516 4.57484 9.64626C4.66212 9.73222 4.77987 9.78015 4.90237 9.77959C5.02664 9.78043 5.14629 9.73257 5.2357 9.64626C5.27868 9.60516 5.31271 9.55562 5.33565 9.50076C5.3586 9.44589 5.36996 9.38688 5.36904 9.32742C5.3698 9.26804 5.35887 9.20909 5.33685 9.15393C5.31483 9.09878 5.28216 9.0485 5.24071 9.00597C5.19926 8.96345 5.14984 8.9295 5.09527 8.90608C5.04069 8.88265 4.98204 8.8702 4.92266 8.86945H4.90237Z" fill="#503629"/>
<path d="M10.12 8.86948C10.0608 8.86794 10.0018 8.87813 9.94656 8.89948C9.89127 8.92082 9.84076 8.95289 9.79792 8.99385C9.75508 9.0348 9.72077 9.08382 9.69696 9.13809C9.67315 9.19236 9.66031 9.2508 9.65918 9.31006V9.32745C9.65918 9.38786 9.67211 9.44757 9.69711 9.50256C9.72211 9.55756 9.75859 9.60657 9.80411 9.64629C9.89174 9.73172 10.0093 9.77956 10.1316 9.77962C10.1929 9.78093 10.2537 9.76979 10.3105 9.74687C10.3674 9.72395 10.4189 9.68973 10.4621 9.64629C10.5065 9.60603 10.5419 9.55679 10.5659 9.50182C10.5899 9.44686 10.6019 9.38742 10.6012 9.32745C10.6028 9.26634 10.5915 9.20559 10.568 9.14915C10.5445 9.09272 10.5094 9.04186 10.465 8.99991C10.4228 8.95778 10.3726 8.92453 10.3173 8.90213C10.262 8.87973 10.2029 8.86863 10.1432 8.86948" fill="#503629"/>
<path d="M8.4939 3.94193H6.17506V4.14193H6.85042V8.57961C6.86808 8.76064 6.84734 8.94337 6.78955 9.11584C6.76307 9.17776 6.72343 9.23317 6.67337 9.27822C6.62332 9.32327 6.56405 9.35688 6.49969 9.37671C6.35863 9.42417 6.21085 9.44863 6.06201 9.44917V9.63468H8.52578V9.44917C8.36588 9.45022 8.20669 9.42776 8.05332 9.3825C7.98922 9.36216 7.9302 9.32836 7.88022 9.28337C7.83023 9.23838 7.79043 9.18324 7.76346 9.12164C7.71574 9.0071 7.69492 8.88315 7.70259 8.75932V7.24048H8.31708C10.0968 7.24048 10.5982 6.53903 10.5982 5.5854C10.5982 4.63178 10.2968 3.94193 8.4939 3.94193ZM8.17506 7.01439H7.70839V4.16801H8.13158C9.50549 4.16221 9.83013 4.72164 9.83013 5.63758C9.83013 6.55352 9.291 7.03468 8.19824 7.03468" fill="#503629"/>
<path d="M17.9459 9.10135C17.908 8.97552 17.8914 8.84425 17.8966 8.71294V4.14193H18.5082V3.95642H17.0387L15.2879 8.28975C15.2852 8.29695 15.2805 8.30323 15.2743 8.30785C15.2682 8.31247 15.2608 8.31524 15.2532 8.31584C15.2442 8.31618 15.2353 8.3139 15.2275 8.30927C15.2198 8.30463 15.2136 8.29785 15.2097 8.28975C15.2097 8.28975 13.3691 4.00859 13.3488 3.95642H11.7285V4.13613H12.4387V8.94193C12.4322 9.04515 12.3992 9.14497 12.343 9.23178C12.2767 9.31847 12.1858 9.38313 12.0821 9.41729C11.971 9.443 11.857 9.45372 11.743 9.44918V9.63468H13.3488V9.44918C13.2505 9.45039 13.1526 9.4357 13.059 9.4057C12.9444 9.37962 12.8421 9.31519 12.7691 9.22309C12.7121 9.13644 12.6782 9.03667 12.6705 8.93323L12.6532 8.53323V4.73903H12.7488C12.7488 4.73903 14.8445 9.57671 14.8445 9.63178H15.0474L17.0242 4.77961H17.0763V8.68975C17.0789 8.82475 17.0623 8.95942 17.0271 9.08975C17.0054 9.1478 16.9725 9.20099 16.9302 9.24626C16.8879 9.29153 16.8371 9.32798 16.7807 9.35352C16.6494 9.3998 16.5112 9.42332 16.372 9.42309V9.6086H18.6184V9.42309C18.4759 9.42277 18.3346 9.39725 18.201 9.34773C18.1407 9.32072 18.0871 9.28074 18.044 9.23064C18.0009 9.18053 17.9694 9.12154 17.9517 9.05787" fill="#503629"/>
<path d="M20.975 5.46365C19.775 5.46365 19.0098 6.25496 19.0098 7.63757C19.0098 9.66655 20.5953 9.79699 20.9344 9.79699C21.6127 9.79699 22.8996 9.3767 22.8996 7.59989C22.8996 6.20278 22.0764 5.46365 20.9663 5.46365M20.9663 9.54481C20.0619 9.54481 19.9228 9.09844 19.9228 7.65786C19.9228 6.54191 19.9924 5.70423 20.9663 5.70423C22.0127 5.70423 22.0185 6.5738 22.0185 7.5796C22.0185 9.02887 21.7692 9.53322 20.9663 9.53322" fill="#503629"/>
<path d="M26.0443 5.52454C25.3255 5.52454 25.1052 5.94772 24.9023 6.37671H24.8472C24.8472 6.37671 24.7429 5.75352 24.7052 5.56801H23.3052V5.77961H24.0588V8.5999C24.0691 8.79751 24.0375 8.99508 23.966 9.17961C23.8907 9.32164 23.7168 9.3912 23.4327 9.3912H23.3081V9.64048H25.6269V9.3912H25.5168C25.2095 9.3912 25.0791 9.32454 24.9979 9.1912C24.916 9.00554 24.883 8.80194 24.9023 8.5999V7.13033C24.9023 6.64048 25.2733 6.07816 25.7197 6.07816C26.166 6.07816 26.1747 6.7941 26.7052 6.50714C26.995 6.35062 26.9429 5.53033 26.0501 5.53033" fill="#503629"/>
<path d="M35.3139 9.21438C35.0646 9.21438 34.9835 9.07525 34.969 8.84627V6.62308C34.9839 6.47081 34.9658 6.31711 34.9157 6.17251C34.8657 6.02792 34.785 5.89586 34.6791 5.7854C34.4617 5.57091 34.0501 5.45786 33.4501 5.45786C33.0017 5.42469 32.5543 5.53427 32.1719 5.77091C32.0592 5.839 31.966 5.93513 31.9015 6.04993C31.837 6.16474 31.8033 6.29429 31.8038 6.42598C31.7964 6.47888 31.8018 6.53276 31.8195 6.58316C31.8371 6.63357 31.8665 6.67905 31.9052 6.71583C31.9762 6.77631 32.0671 6.80833 32.1603 6.80569C32.3922 6.80569 32.5197 6.68685 32.5719 6.3854C32.5781 6.21015 32.6423 6.04192 32.7545 5.90714C32.8297 5.83905 32.9183 5.7874 33.0147 5.75546C33.111 5.72352 33.2129 5.712 33.3139 5.72163C33.4277 5.70855 33.5429 5.72306 33.6498 5.76393C33.7568 5.80479 33.8524 5.87082 33.9284 5.95641C34.0446 6.13205 34.1015 6.34029 34.0907 6.55062V7.23178C33.3458 7.29844 31.5864 7.43757 31.6646 8.7738C31.6917 9.04382 31.82 9.29356 32.0239 9.47268C32.2278 9.6518 32.4919 9.74697 32.7632 9.73902C33.0252 9.7311 33.2824 9.66695 33.5175 9.55093C33.7525 9.43491 33.9599 9.26972 34.1255 9.06656C34.1613 9.24778 34.2608 9.41021 34.4059 9.5245C34.551 9.63879 34.7322 9.6974 34.9168 9.68975C35.4588 9.68975 35.7864 9.42308 35.8212 8.76511H35.6791C35.6443 9.05496 35.4675 9.20569 35.3197 9.20569M34.0994 8.7767C34.1023 8.78099 34.1038 8.78604 34.1038 8.7912C34.1038 8.79635 34.1023 8.8014 34.0994 8.80569V8.82308C33.8589 9.09215 33.5297 9.26597 33.1719 9.31293C33.0881 9.31604 33.0046 9.3026 32.926 9.27338C32.8475 9.24417 32.7754 9.19976 32.7141 9.14269C32.6527 9.08562 32.6032 9.017 32.5683 8.94078C32.5335 8.86455 32.514 8.7822 32.511 8.69844C32.5081 8.66662 32.5081 8.63461 32.511 8.60279C32.511 7.84627 33.5545 7.46656 34.1226 7.46656L34.0994 8.7767Z" fill="#503629"/>
<path d="M40.0852 9.18541C39.9785 9.00207 39.9281 8.79139 39.9402 8.57961V6.73903C39.9521 6.50325 39.9053 6.2682 39.804 6.05497C39.7097 5.8824 39.5679 5.74054 39.3953 5.64628C39.2042 5.55305 38.9934 5.50731 38.7808 5.51295C38.5085 5.50617 38.2398 5.57626 38.0055 5.71519C37.7712 5.85413 37.5808 6.05627 37.4562 6.29845H37.3663L37.2214 5.56222H35.9663V5.77382H36.6011V8.57961C36.6059 8.73939 36.5903 8.89914 36.5547 9.05497C36.5399 9.11477 36.5104 9.16994 36.4689 9.21548C36.4274 9.26102 36.3752 9.29552 36.317 9.31584C36.2047 9.35665 36.0858 9.37631 35.9663 9.37382V9.63179H37.9779V9.37092C37.9009 9.37499 37.8239 9.36174 37.7527 9.33215C37.6815 9.30255 37.6178 9.25736 37.5663 9.1999C37.4753 9.021 37.4361 8.82019 37.4533 8.62019V7.55063C37.4145 7.15748 37.4671 6.76069 37.6069 6.39121C37.6884 6.24991 37.8066 6.13329 37.9489 6.05369C38.0913 5.97409 38.2525 5.93447 38.4156 5.93903C38.5273 5.92769 38.6399 5.94904 38.7398 6.00049C38.8396 6.05195 38.9223 6.1313 38.9779 6.22889C39.0766 6.53585 39.1226 6.85729 39.1141 7.17961V8.50715C39.1291 8.67106 39.1291 8.83599 39.1141 8.9999C39.1083 9.05839 39.0894 9.11483 39.0588 9.16501C39.0282 9.21519 38.9867 9.25783 38.9373 9.28976C38.839 9.34486 38.7283 9.37381 38.6156 9.37382V9.63469H40.5547V9.37671C40.3112 9.35932 40.1518 9.30135 40.0794 9.18831" fill="#503629"/>
<path d="M30.9896 5.29843C30.9248 5.32533 30.8683 5.36907 30.826 5.42513C30.7837 5.48118 30.7571 5.54752 30.749 5.61727C30.7172 5.78249 30.6534 5.88104 30.5693 5.90713C30.4733 5.9323 30.3718 5.92621 30.2795 5.88974C29.9129 5.57878 29.4405 5.421 28.9606 5.44916C28.5599 5.41792 28.1631 5.54682 27.8572 5.80761C27.5513 6.0684 27.3613 6.43981 27.3288 6.84046C27.3288 6.90133 27.3288 6.9622 27.3288 7.02307C27.3288 7.89264 27.6621 8.29554 28.3896 8.44916C28.436 8.44916 28.436 8.50713 28.3896 8.51293C27.778 8.62597 27.2302 8.80278 27.2302 9.39698C27.2296 9.53565 27.2723 9.67104 27.3524 9.7843C27.4324 9.89756 27.5457 9.98305 27.6766 10.0289C28.0643 10.1622 28.4725 10.226 28.8824 10.2173C29.2056 10.2142 29.5288 10.2287 29.8505 10.2608C30.0386 10.2777 30.2197 10.3404 30.378 10.4434C30.4466 10.4998 30.5006 10.572 30.5354 10.6537C30.5702 10.7354 30.5848 10.8244 30.578 10.9129C30.5751 11.0521 30.5323 11.1875 30.4548 11.3031C30.3772 11.4188 30.2681 11.5097 30.1403 11.5651C29.7983 11.7329 29.4195 11.8117 29.0389 11.7941C28.6872 11.8196 28.3356 11.742 28.0273 11.5709C27.9366 11.5078 27.8676 11.4183 27.8298 11.3145C27.7919 11.2108 27.787 11.0978 27.8157 10.9912C27.8435 10.9081 27.8375 10.8175 27.799 10.7389C27.7605 10.6602 27.6925 10.5999 27.6099 10.5709H27.5664C27.4997 10.5624 27.4318 10.5725 27.3705 10.6001C27.3091 10.6278 27.2565 10.6718 27.2186 10.7274C27.1518 10.8402 27.1204 10.9705 27.1288 11.1013C27.1361 11.2891 27.2065 11.469 27.3284 11.612C27.4504 11.755 27.6169 11.8528 27.8012 11.8897C28.1637 12.0053 28.5426 12.0611 28.923 12.055C29.3617 12.0754 29.7992 11.9941 30.2012 11.8173C30.4398 11.7171 30.6437 11.5492 30.788 11.3344C30.9322 11.1196 31.0104 10.8673 31.0128 10.6086C31.0241 10.3587 30.9573 10.1115 30.8215 9.90133C30.4157 9.34481 29.8418 9.42017 28.549 9.3564C27.9288 9.3564 27.807 9.24626 27.807 9.06655C27.807 8.77669 28.036 8.67525 28.9288 8.53901C29.8215 8.40278 30.6418 8.07814 30.6418 7.00278C30.6445 6.73982 30.5891 6.47952 30.4795 6.24046C30.6464 6.28679 30.8227 6.28679 30.9896 6.24046C31.0667 6.2197 31.1387 6.18324 31.201 6.13337C31.2634 6.08349 31.3148 6.02127 31.3519 5.95061C31.3914 5.89665 31.4182 5.83447 31.4302 5.76872C31.4423 5.70297 31.4393 5.63534 31.4215 5.5709C31.3461 5.33032 31.2012 5.24336 30.9809 5.31003M28.9809 8.27525C28.4534 8.27525 28.1375 8.08394 28.1375 7.01148C28.1375 6.25496 28.4012 5.69264 28.9809 5.69264C29.6418 5.69264 29.8215 6.20568 29.8215 6.99409C29.8215 8.11293 29.465 8.27525 28.9809 8.27525Z" fill="#503629"/>
</g>
</g>
<defs>
<clipPath id="clip0_806_1566">
<rect width="40" height="16" fill="white" transform="translate(0.554688)"/>
</clipPath>
<clipPath id="clip1_806_1566">
<rect width="40" height="8.11613" fill="white" transform="translate(0.554688 3.94193)"/>
</clipPath>
</defs>
</svg>
