<svg width="26" height="16" viewBox="0 0 26 16" fill="none" xmlns="http://www.w3.org/2000/svg">
<g clip-path="url(#clip0_879_3961)">
<path d="M1.48743 12.9451C1.33836 12.8772 1.14247 12.8268 0.969422 12.5547C0.775019 12.2478 0.843635 12.0237 0.906033 11.5997C0.972118 11.1503 0.96469 10.9684 0.838463 10.4686C0.734961 10.0581 0.676525 9.91711 0.612366 9.44098C0.572748 9.14726 0.54375 8.90014 0.541054 8.73407C0.537092 8.48718 0.555911 8.25597 0.582873 7.91239C0.59773 7.72151 0.644281 7.45062 0.808915 6.95463C0.863169 6.79203 1.00976 6.40757 1.09939 6.22489C1.24972 5.92 1.41089 5.76906 1.33583 5.2312C1.30711 5.02447 1.22837 4.91343 1.19596 4.63605C1.15931 4.32153 1.18033 4.17379 1.23926 3.97922C1.2982 3.78564 1.36852 3.6647 1.48864 3.51597C1.55846 3.42969 1.69041 3.26214 1.99398 3.20838C1.99398 3.20838 2.19328 3.15137 2.35649 3.19622C2.76653 3.23193 2.70611 3.59427 3.31821 3.21454C3.61138 3.05068 4.11431 2.91983 4.62164 3.27578C4.83832 3.40316 5.01952 3.83594 4.78655 3.12237C4.6776 2.6983 4.56689 2.48684 4.41859 1.81933C4.24505 1.18803 4.38563 0.543803 4.89995 0.195331C5.27115 -0.130856 6.02433 0.014409 6.89796 0.178218C7.66456 0.322218 7.84581 0.080549 8.36778 0.102889C8.66123 0.115545 8.91027 0.116535 9.15199 0.173266C9.48528 0.251841 9.67319 0.349235 9.85741 0.449655C10.3804 0.734958 10.3502 0.453122 11.0806 0.549305C11.3144 0.580064 11.4062 0.545563 11.6429 0.614014C11.9168 0.692809 12.0864 0.783325 12.3283 0.924354C13.0055 1.31894 13.0063 1.40769 14.1344 1.35839C14.3431 1.3492 14.7153 1.51031 14.9166 1.64193C15.1404 1.78841 15.6844 2.10497 16.1651 2.13567C16.7772 2.17485 17.3016 2.09677 18.0563 2.63364C18.6075 3.12419 19.2924 3.10113 19.904 3.43326C20.1006 3.53985 20.5703 3.89927 20.8011 4.27008C20.8503 4.34965 21.0516 4.48027 21.5543 4.56353C22.0062 4.63814 22.4799 5.17502 22.7322 5.54979C23.057 5.84946 22.8666 5.64598 23.3118 5.95653C23.527 6.10675 23.635 6.18186 23.8454 6.33923C24.1194 6.5442 23.9447 6.39475 24.272 6.65326C24.332 6.70036 24.4117 6.79033 24.6303 6.98715C24.9143 7.20576 25.0386 7.40033 25.1342 7.59094C25.2954 7.91167 25.1664 8.13772 25.0176 8.40371C24.9076 8.59926 24.7316 8.91406 24.451 9.17906C24.1395 9.47328 24.1643 9.4817 23.88 9.652C23.234 10.0379 22.7514 9.90731 22.4781 10.3681C22.0742 11.0487 21.7494 11.2686 21.4445 11.4114C20.8302 11.6994 20.4179 11.6892 20.0282 11.9953C19.7105 12.2447 19.2084 12.5657 18.8689 12.7172C18.2155 13.0084 18.135 12.8371 17.6878 13.1165C17.536 13.2114 17.6323 13.1566 17.2505 13.4714C17.0306 13.6526 16.68 13.8063 16.5057 13.8306C16.2776 13.8625 16.0258 13.8876 15.8131 13.9446C15.2765 14.0884 15.2181 14.277 14.6268 14.3905C13.9367 14.5231 13.6514 14.4574 12.9928 14.7717C12.8209 14.8538 12.6332 14.9358 12.3817 15.0724C12.1747 15.1852 11.5383 15.3391 11.0468 15.3636C10.8326 15.3745 10.6316 15.2333 10.1133 15.4804C9.44423 15.7994 9.43482 15.7669 8.90443 15.8745C8.71157 15.9137 8.49467 15.8921 8.29283 15.8913C7.90728 15.8903 7.50565 15.7569 7.09362 15.7696C6.6712 15.783 6.76925 15.7569 6.41764 15.7969L6.16855 15.8376L5.80131 15.9194L5.66788 15.9548C5.33113 16.0287 5.12985 15.9984 4.93269 15.9598C4.60166 15.8941 4.2347 15.6963 4.10149 15.5148C3.8826 15.2534 3.85261 15.0017 3.87814 14.6587C4.00167 14.0609 4.25501 13.2097 4.37259 12.9061C4.37259 12.9061 4.56672 12.4646 4.09703 12.712C3.62112 12.8875 3.24921 12.5804 2.96049 12.6787C2.67574 12.822 2.49966 12.9529 2.1436 13.0049C1.77388 13.0587 1.48715 12.9452 1.48715 12.9452" fill="#FFFFFE"/>
<path d="M6.78958 15.2835C7.21646 15.2354 7.31847 15.2646 7.70106 15.3147C8.05663 15.3613 8.39685 15.43 8.74923 15.3898C8.9258 15.3697 9.10012 15.336 9.27295 15.2808C9.76697 15.1226 9.99625 14.908 10.5915 14.8269C11.0845 14.76 11.0848 14.8423 11.5169 14.8217C11.9698 14.8001 12.2216 14.607 12.4122 14.5034C12.6435 14.3775 12.7039 14.3674 12.8587 14.2845C13.4183 13.9849 14.0755 14.0221 14.7042 13.8684C15.1462 13.7603 15.3192 13.5519 15.813 13.4195C16.0091 13.3669 16.2243 13.3707 16.4343 13.3412C16.595 13.3189 16.879 13.1758 17.0379 13.0291C17.3106 12.7766 17.2804 12.7664 17.4923 12.6469C17.8457 12.4469 18.2458 12.4531 18.6011 12.288C18.9317 12.1346 19.2717 12.004 19.5334 11.7398C19.9147 11.3543 20.5167 11.2465 21.0117 11.0668C21.3031 10.9605 21.6859 10.7731 22.0071 10.2174C22.3223 9.67308 22.6011 9.595 23.1614 9.42618C23.5341 9.31365 23.6951 9.23409 23.982 8.96315C24.2405 8.71922 24.3334 8.56235 24.4495 8.39155C24.5825 8.1955 24.8437 7.87349 24.5662 7.62715C24.4443 7.5188 24.321 7.3178 24.0593 7.1163C23.8582 6.9351 23.692 6.83396 23.6368 6.79033C23.3353 6.5524 23.5893 6.74026 23.2996 6.55686C23.0951 6.4275 23.0373 6.32339 22.8267 6.20437C22.4493 5.9912 22.4099 5.92826 22.1083 5.56564C21.8466 5.08252 21.436 5.01539 21.0245 4.92339C20.6268 4.83464 20.3448 4.51715 20.2777 4.40781C20.0662 4.0655 19.7245 3.8957 19.5433 3.79731C18.9802 3.4917 18.331 3.54051 17.8236 3.08892C17.059 2.54533 16.8576 2.64597 16.0539 2.62121C15.6107 2.60784 15.029 2.32424 14.8396 2.1666C14.6803 2.03399 14.4966 1.94672 14.3325 1.89615C13.7659 1.72139 13.3779 2.02155 12.5858 1.63566C12.3543 1.52264 12.1453 1.36769 11.9178 1.23662C11.7761 1.15508 11.6682 1.11568 11.4463 1.06781C11.0271 0.977071 10.6621 1.03507 10.1543 1.07821C9.91608 1.09879 9.77467 0.972119 9.55578 0.853871C9.35472 0.745032 9.14001 0.664971 8.87408 0.615669C8.5299 0.55173 8.13917 0.59685 7.73903 0.677131C6.94689 0.836263 6.2199 0.434967 5.45605 0.506334C5.32652 0.518495 5.07 0.681093 4.9841 0.86328C4.86872 1.10743 4.86872 1.24845 4.88577 1.4899C4.90905 1.81757 4.94768 1.84091 5.01184 2.05407C5.1505 2.51683 5.22082 2.76868 5.33153 3.08072C5.46007 3.44334 5.45583 3.8848 5.1505 4.02561C5.00342 4.09351 4.75878 4.09527 4.62061 3.98968C4.40568 3.82581 4.28804 3.5951 4.04566 3.5475C3.72228 3.48356 3.33424 3.81569 2.99056 3.90615C2.64588 3.99711 2.60203 3.80947 2.36261 3.69843C2.20337 3.62459 2.05035 3.73216 1.96099 3.78174C1.79976 3.8717 1.76092 4.05736 1.72328 4.25517C1.69329 4.41353 1.68042 4.56105 1.71954 4.73356C1.77627 4.98442 1.85969 5.13485 1.86612 5.30961C1.88148 5.74882 1.81115 6.07104 1.6299 6.30281C1.51474 6.45028 1.36397 6.85729 1.31643 7.00773C1.15746 7.51088 1.1765 7.42317 1.09974 7.89066C1.06034 8.12908 1.06678 8.39678 1.04576 8.62012C1.0418 8.66128 1.07228 9.16888 1.09677 9.32037C1.15746 9.69564 1.22778 9.93731 1.30674 10.2536C1.42042 10.7107 1.46918 10.9947 1.45779 11.3482C1.4464 11.7101 1.21832 12.0504 1.43501 12.306C1.56971 12.4646 1.9206 12.6079 2.20607 12.4819C2.49528 12.3538 2.70624 12.2028 2.93355 12.1716C3.35229 12.1138 3.62141 12.2933 3.80316 12.272C3.96339 12.2531 4.24518 12.092 4.3779 12.0809C4.48365 12.0719 4.71294 12.0618 4.79339 12.122C4.92093 12.2177 4.99968 12.3235 4.97838 12.6542C4.97789 12.6591 4.90085 13.0064 4.90014 13.0093C4.76813 13.4441 4.62578 13.8476 4.55766 14.1463C4.48657 14.4579 4.14487 15.1326 4.83823 15.409C5.13019 15.5252 5.43894 15.5027 5.82153 15.4042C6.01543 15.3542 6.09588 15.346 6.27691 15.3158C6.27691 15.3021 6.54857 15.3071 6.54857 15.2937L6.78974 15.2835" fill="black"/>
<path d="M19.914 4.81624C20.1017 4.93895 20.3174 5.25545 20.4987 5.5172C20.7198 5.7187 20.7398 5.83547 21.2883 5.93336C21.1823 5.91426 21.7818 6.12126 21.8722 6.17178C22.1079 6.30263 22.1681 6.38318 22.377 6.62166C22.5932 6.86828 22.6791 6.9342 23.1152 7.22594C23.2846 7.33946 23.3148 7.38012 23.6374 7.60963C23.7703 7.70433 23.9387 7.85752 23.9986 7.98341C24.1511 8.30316 23.9382 8.41695 23.6067 8.59265C23.0617 8.88191 22.6106 8.79938 22.1197 9.30104C21.7102 9.71917 21.2627 10.2293 20.9599 10.321C20.8279 10.3612 20.4784 10.4708 20.2396 10.6192C20.0031 10.7665 19.9363 10.7617 19.7243 10.9508C19.4725 11.1754 19.3319 11.3365 18.8688 11.4966C18.5833 11.595 18.2463 11.6409 17.9472 11.7306C17.7258 11.7973 17.5488 11.8895 17.352 12.0013C17.0514 12.1718 16.6896 12.5709 16.1924 12.6633C15.2079 12.8467 15.4693 12.8267 14.7674 13.1447C14.5931 13.2238 14.2333 13.3098 13.9807 13.3098C13.5585 13.3098 13.2292 13.3796 12.8575 13.5775C12.5869 13.7217 12.3113 13.9867 11.7802 14.0573C11.124 14.1446 11.0876 14.0623 10.273 14.2365C10.0258 14.2898 9.71386 14.47 9.47813 14.5553C9.21346 14.6512 8.58992 14.6631 8.14945 14.6227C7.7191 14.5833 7.40315 14.5825 6.78142 14.6953C6.30007 14.7826 6.04057 14.7925 5.57308 14.7806C5.46787 14.7777 5.38863 14.7038 5.32051 14.5927C5.2393 14.4609 5.22967 14.3451 5.24744 14.1996C5.28486 13.894 5.27842 13.8791 5.35045 13.5961C5.37251 13.51 5.48047 12.9491 5.49951 12.8633C5.62012 12.3237 5.65727 11.7797 5.23258 11.5341C5.09986 11.4575 4.77005 11.4082 4.53135 11.4505C3.81228 11.5782 3.96305 11.6991 3.50354 11.5365C3.42629 11.5092 3.23089 11.4738 3.11727 11.4785C2.88726 11.4877 2.55943 11.6491 2.26945 11.6947C2.06591 11.7269 2.01264 11.4998 2.01809 11.3375C2.02651 11.0859 2.05276 10.8443 2.04159 10.5629C2.01187 9.82652 1.88339 9.78685 1.79475 9.34291C1.7143 8.94013 1.73752 8.2565 1.71826 8.27587C1.73829 7.71198 1.99361 7.10445 2.13898 6.89453C2.29101 6.67443 2.3237 6.58468 2.43931 6.3155C2.56163 6.03069 2.54528 5.77912 2.48316 5.45937C2.48168 5.45167 2.40761 5.21523 2.43441 5.21523C2.41311 5.06451 2.44949 4.89944 2.49758 4.79709C2.57533 4.63125 2.63575 4.55097 2.75955 4.49743C2.83609 4.46397 2.91703 4.42381 2.99852 4.41814C3.26567 4.39932 3.3197 4.57083 3.81911 4.36113C4.07761 4.25229 4.33464 4.39805 4.46169 4.44466C4.80807 4.57083 4.74793 4.57083 4.96858 4.57799C5.17827 4.5847 5.38011 4.53165 5.57473 4.41341C5.68665 4.34501 5.77133 4.30759 5.83769 4.21091C5.89464 4.12761 5.97014 3.89788 5.99044 3.77914C6.0152 3.63464 6.05559 3.54391 6.0152 3.2016C5.90455 2.77873 5.86443 2.68799 5.78866 2.4203C5.72726 2.20218 5.65297 1.99347 5.62177 1.79318C5.62128 1.78944 5.61286 1.55025 5.61286 1.55025C5.5859 1.35023 5.72181 1.20673 5.89464 1.20524C6.51367 1.20029 7.09429 1.37675 7.74854 1.37257C8.28833 1.36911 8.51784 1.25856 9.15321 1.49005C9.37457 1.57061 9.50531 1.7518 9.85175 1.84947C10.5107 2.03534 11.0341 1.59069 11.5977 1.85618C12.0662 2.07705 11.9676 1.94367 12.4081 2.22474C12.6134 2.35586 12.9954 2.57745 13.5434 2.65801C13.9227 2.71402 14.5244 2.55737 15.1444 3.00725C15.4931 3.26031 15.8117 3.36271 16.2577 3.40882C16.7828 3.46313 16.8338 3.38901 17.2478 3.68917C17.5524 3.91026 17.4685 3.86096 17.7758 4.08997C17.9149 4.19358 18.0241 4.29917 18.2254 4.38964C18.3406 4.44141 18.7821 4.50315 18.7685 4.50244C19.1609 4.52252 19.2713 4.49028 19.5831 4.60132C19.5764 4.59411 19.9855 4.86279 19.9141 4.81624" fill="#FFFFFE"/>
<path d="M6.35338 8.54992V9.38376H9.48544L9.79721 9.09153V8.0909H9.33468L9.33638 7.83707L11.0625 6.84635L11.2073 6.9953C10.8211 7.26724 10.5215 7.52101 10.2899 7.92379C9.95117 8.48868 9.82737 9.27267 10.0284 9.89704C10.1594 10.3199 10.3201 10.5717 10.6019 10.8657C10.8733 11.1455 11.1045 11.3067 11.5473 11.5181C11.9093 11.6993 12.7643 11.959 13.4281 12.0294C14.0716 12.0797 14.8764 12.0698 15.4095 11.9991C15.9927 11.9389 16.5964 11.7275 16.9586 11.5783C17.25 11.4375 17.5719 11.3066 17.8193 11.1132C18.443 10.6644 19.1007 9.98744 19.1108 9.14171H17.948C17.5818 10.4405 14.0615 11.0347 12.6536 10.0298C11.6275 9.22227 11.9192 8.50738 12.3517 8.17525L12.4827 8.31628L12.2633 8.54777L12.2794 9.3836H15.2445L15.6266 9.02121V8.11478H15.3993L14.3735 7.0073C16.3447 6.58471 17.3205 7.45025 17.8958 8.39662H18.6681L19.0583 8.01414V5.81926L18.2358 5.81728L17.743 6.12316C15.9927 5.34808 14.6954 5.43684 13.3375 5.88771L13.1161 5.66238L14.3696 4.91306L15.1258 4.90909L15.4959 4.55661L15.4979 3.80953H12.4724L12.1507 4.136V4.64514L9.31454 6.26843V5.01793L9.77284 4.55468V3.80167H6.79974L6.39366 4.2768V4.87267H6.88046V8.09074H6.7314C6.7314 8.09074 6.33324 8.54183 6.35327 8.54981" fill="black"/>
<path d="M6.88037 3.98693H9.59568V4.47423L9.13314 4.47847V6.58856L12.8344 4.47423H12.5086V3.98693L15.3088 3.98297V4.47027L14.6851 4.47847L12.7894 5.59784L15.3408 8.35662L15.4295 8.3586V8.92051H12.6133V8.35265L13.0056 8.35662L11.2574 6.49216L9.15322 7.70028V8.35662H9.59573V8.91655H6.88043V8.35662H7.34296V4.47429H6.88043V3.98699L6.88037 3.98693ZM18.8975 9.32324C18.7887 9.89703 18.5272 10.1286 18.2034 10.5011C17.7708 10.9039 17.6825 10.9544 17.2499 11.1857C16.5058 11.5582 15.7313 11.7191 14.8461 11.7397C13.6088 11.79 12.5129 11.528 11.8389 11.2462C11.4264 11.0953 10.8128 10.7126 10.4307 10.0581C10.119 9.42388 10.2718 8.74916 10.3825 8.41703C10.5214 8.01425 10.7425 7.60129 11.3883 7.1606L12.2009 8.03852C11.7886 8.39667 11.4868 9.0513 12.1326 9.79639C12.9051 10.7628 14.6652 11.0347 16.4958 10.4909C17.4412 10.2094 17.8534 9.81648 18.1533 9.32324H18.8976H18.8975ZM13.4782 6.04101C14.0311 5.86972 15.5904 5.33609 17.7829 6.30276L18.2457 6.00062H18.8932L18.8853 7.94987L18.1652 7.95807C17.4308 6.85257 15.7614 6.46371 14.2025 6.83645L13.4782 6.04106V6.04101Z" fill="#E31837"/>
</g>
<defs>
<clipPath id="clip0_879_3961">
<rect width="24.6682" height="16" fill="white" transform="translate(0.540527)"/>
</clipPath>
</defs>
</svg>
