<svg width="17" height="16" viewBox="0 0 17 16" fill="none" xmlns="http://www.w3.org/2000/svg">
<g clip-path="url(#clip0_781_616)">
<path d="M15.4063 0.27829H1.06597C0.750687 0.27829 0.496425 0.553694 0.516766 0.869899L1.65585 15.2521C1.67619 15.5377 1.92029 15.7621 2.20507 15.7621H14.2672C14.552 15.7621 14.7859 15.5377 14.8164 15.2521L15.9555 0.869899C15.9759 0.543495 15.7216 0.27829 15.4063 0.27829Z" fill="white"/>
<path d="M4.37121 0.380188H0.516602L1.22853 11.2434H4.37121V0.380188Z" fill="#DD0E20"/>
<path d="M15.8742 0.390393L12.0908 0.288391V11.2434H15.1318L15.8742 0.390393Z" fill="#DD0E20"/>
<path d="M10.8089 4.85813C10.7479 5.20493 10.6666 5.37834 10.6259 5.59254C10.575 5.81695 10.4835 6.14335 10.392 6.14335C10.3004 6.17394 10.2598 6.06175 10.1987 6.14335C10.158 6.19435 10.1377 6.25556 10.1072 6.29635C10.0868 6.32696 10.0665 6.37795 10.0665 6.41876C10.0665 6.47996 10.0665 6.68395 10.0055 6.94916C9.92412 7.34697 9.77156 7.64277 9.60884 7.82638C9.30373 8.17319 9.01895 8.23438 8.98843 8.25479C8.94776 8.27519 8.87656 8.26499 8.85623 8.25479C8.83588 8.24458 8.81554 8.21399 8.77485 8.18339C8.73418 8.14258 8.72401 8.20379 8.72401 8.21399C8.72401 8.22418 8.74435 8.3976 8.70367 8.46898C8.61213 8.6322 8.5206 8.6424 8.47991 8.8464C8.45957 8.9178 8.47991 9.0198 8.39855 8.9688C8.20532 8.8566 7.92054 8.5506 7.85951 8.24458C7.83918 8.15278 7.85951 8.05079 7.91037 7.87739C7.94088 7.77538 7.96121 7.66318 7.96121 7.60198C7.96121 7.48977 7.92054 7.38777 7.96121 7.37757C8.04259 7.35716 8.08326 7.57137 8.12395 7.55097C8.19515 7.51018 8.14429 7.28576 8.14429 7.28576C8.14429 7.28576 8.11378 7.22457 8.0019 7.19396C7.93071 7.17357 7.91037 7.12256 7.98157 7.09197C8.03241 7.06136 8.09343 7.03076 8.1748 7.04096C8.66298 7.11236 8.80537 7.01037 8.99861 6.95936C9.03929 6.94916 9.05963 6.94916 9.09015 6.95936C9.12065 6.96956 9.20201 7.02057 9.22236 7.06136C9.2427 7.10217 9.22236 7.26537 9.2427 7.38777C9.27321 7.51018 9.35457 7.39797 9.37492 7.34697C9.39526 7.29597 9.41559 7.18377 9.42576 7.15317C9.42576 7.12256 9.45628 7.00017 9.49696 6.95936C9.5885 6.88796 9.61901 6.78596 9.62918 6.74516C9.63934 6.70436 9.66986 6.59216 9.65968 6.41876C9.65968 6.24535 9.62918 6.22495 9.57832 6.19435C9.53765 6.15355 9.48679 6.16375 9.38509 6.07195C9.29354 5.99035 9.21218 5.84754 9.15117 5.75575C9.07998 5.66395 8.9681 5.57213 8.84604 5.54154C8.71384 5.51094 8.77485 5.63334 8.77485 5.66395C8.78503 5.68434 8.80537 5.79654 8.76468 5.82715C8.72401 5.85774 8.45957 6.03115 8.23582 5.98015C7.96121 5.90875 7.86968 5.75574 7.85951 5.60274C7.85951 5.50073 7.91037 5.39874 7.9714 5.27633C8.01207 5.20493 8.02224 5.09273 8.03241 4.98052C8.04259 4.88873 8.0731 4.75612 8.08326 4.71533C8.09343 4.68472 8.13412 4.64393 8.20532 4.65412C8.27651 4.65412 8.32735 4.69492 8.33753 4.75612C8.38838 4.98052 8.45957 5.03153 8.49009 5.05193C8.5206 5.07234 8.57145 5.03153 8.58162 5.02133C8.60196 5.01113 8.65281 4.96013 8.63248 4.92953C8.61213 4.88873 8.59179 4.85813 8.59179 4.83772C8.58162 4.79693 8.63248 4.79693 8.64265 4.80713C8.72401 4.87853 8.80537 4.87853 8.95793 4.90912C9.22236 4.94993 9.25287 4.85813 9.43593 4.88873C9.45628 4.88873 9.50713 4.90912 9.51731 4.93973C9.52748 4.96013 9.54781 5.01113 9.56815 5.02133C9.58849 5.03153 9.63934 5.03153 9.66986 5.04173C9.71054 5.05193 9.77156 5.04173 9.76139 5.11313C9.73087 5.29674 9.51731 5.35793 9.41559 5.36814C9.37492 5.37834 9.35457 5.37834 9.3444 5.38854C9.32406 5.40893 9.32406 5.47014 9.3444 5.50073C9.36474 5.53134 9.44611 5.53134 9.55798 5.51095C9.66986 5.49053 9.78173 5.42933 9.87326 5.29674C9.96481 5.15394 10.0157 4.82752 10.0258 4.76632C10.036 4.70513 10.0563 4.60312 10.097 4.58272C10.1275 4.56233 10.2801 4.51132 10.3004 4.52152C10.3309 4.52152 10.3411 4.54192 10.3614 4.59292C10.3716 4.65412 10.3513 5.01113 10.3513 5.06212C10.3513 5.12333 10.3818 5.12333 10.392 5.11313C10.4225 5.09273 10.5242 5.03153 10.5445 4.96013C10.5649 4.90912 10.514 4.82752 10.5343 4.75612C10.575 4.64393 10.6055 4.60312 10.6259 4.61332C10.8089 4.60312 10.8395 4.66432 10.8089 4.85813ZM8.69349 6.77577C8.64265 6.79616 8.47991 6.83696 8.39855 6.83696C8.31718 6.83696 8.0731 6.85737 8.03241 6.85737C7.98157 6.85737 7.91037 6.82676 7.85951 6.77577C7.84935 6.76555 7.83918 6.72476 7.87985 6.72476C7.96121 6.72476 8.1036 6.67376 8.60196 6.72476C8.65281 6.72476 8.68332 6.73496 8.69349 6.73496C8.71384 6.73496 8.75451 6.75536 8.69349 6.77577ZM7.48321 6.57176C7.23912 6.57176 7.13741 6.47996 7.11707 6.44935C7.09674 6.41876 7.12724 6.39836 7.15776 6.39836C7.21877 6.37795 7.31032 6.32696 7.35099 6.29635C7.39168 6.26576 7.50355 6.19435 7.56457 6.15355C7.59509 6.13315 7.74765 6.07195 7.83918 6.13315C7.9714 6.22495 8.1036 6.28615 8.32735 6.27595C8.47991 6.26576 8.46974 6.14335 8.59179 6.11275C8.70367 6.08215 8.72401 6.05155 8.75451 6.03115C8.7952 6.02094 8.83588 6.01074 8.87656 6.05155C8.93759 6.11275 8.95793 6.15355 9.02912 6.23515C9.12065 6.34736 9.23253 6.39836 9.26304 6.39836C9.29354 6.40856 9.32406 6.42896 9.32406 6.43915C9.32406 6.44935 9.31389 6.47996 9.21218 6.51056C8.88673 6.60235 8.54093 6.54115 8.35787 6.46975C8.26634 6.42896 8.1748 6.41876 8.0731 6.46975C7.98157 6.53095 7.70696 6.57176 7.48321 6.57176ZM7.37133 7.90798C7.18827 7.91818 6.71026 7.62237 6.49668 6.79616C6.44582 6.58196 6.57804 6.40856 6.6594 6.37795C6.71026 6.35755 6.7306 6.35755 6.75093 6.34736C6.77127 6.34736 6.85263 6.34736 6.85263 6.43915C6.85263 6.52075 6.91366 7.15317 7.07638 7.38777C7.11707 7.44898 7.15776 7.44898 7.1781 7.39797C7.19843 7.34697 7.22895 7.28576 7.22895 7.26537C7.23912 7.24497 7.30015 7.15317 7.31032 7.22457C7.35099 7.37757 7.44252 7.68358 7.47304 7.76518C7.54423 7.90798 7.44252 7.90798 7.37133 7.90798ZM6.40513 5.44974C6.39497 5.39874 6.41532 5.30694 6.54752 5.39874C6.56787 5.40893 6.62888 5.43954 6.70008 5.45994C6.74077 5.47014 6.77127 5.44974 6.78144 5.42933C6.79162 5.39874 6.8323 5.33753 6.77127 5.30694C6.71025 5.27633 6.56787 5.25593 6.4865 5.05193C6.47633 5.01113 6.49668 4.97033 6.51702 4.96013C6.53735 4.94993 6.56787 4.94993 6.59838 4.98052C6.62888 5.00093 6.67974 5.06212 6.7306 5.06212C6.78144 5.06212 6.78144 5.04173 6.79162 5.03153C6.8323 4.99072 6.94418 4.81732 7.1781 4.84793C7.2798 4.85813 7.36116 4.87853 7.40185 4.88873C7.42218 4.88873 7.49338 4.88873 7.5544 4.87853C7.6256 4.86833 7.7273 4.84793 7.67645 4.89892C7.63577 4.94993 7.59508 4.97033 7.63577 5.02133C7.63577 5.02133 7.63577 5.03153 7.64593 5.03153C7.67645 5.08253 7.67645 5.14374 7.64593 5.18453V5.19473C7.59508 5.26613 7.48321 5.33753 7.26963 5.35793C7.16793 5.36814 7.15776 5.35793 7.15776 5.41913C7.15776 5.43954 7.15776 5.44974 7.15776 5.47014C7.16793 5.50073 7.1781 5.51095 7.24929 5.51095C7.30013 5.51095 7.39168 5.50073 7.39168 5.50073C7.41202 5.49053 7.44252 5.51095 7.42218 5.53134L7.41202 5.55174C7.36116 5.61294 7.35099 5.67414 7.34082 5.71494C7.34082 5.74555 7.32048 5.77614 7.28997 5.78634C7.25946 5.80675 7.12724 5.82715 7.02554 5.91895C6.92383 6.00055 6.71025 6.07195 6.61872 5.96995C6.51702 5.85774 6.44582 5.62314 6.40513 5.44974ZM6.34412 4.40932C6.3136 4.40932 6.29327 4.39911 6.26275 4.38891C6.22207 4.37872 6.20174 4.38891 6.19155 4.36852C6.18138 4.34812 6.18138 4.32772 6.20174 4.31751C6.22207 4.30731 6.24241 4.31751 6.26275 4.30731C6.30344 4.29712 6.35429 4.24611 6.39497 4.30731C6.40513 4.34812 6.3848 4.40932 6.34412 4.40932ZM5.98815 5.72514C5.89661 5.66395 5.89661 5.58233 5.87627 5.50073C5.82542 5.32733 5.77457 5.12333 5.72372 4.94993C5.69321 4.84793 5.69321 4.60312 5.82543 4.60312C5.89661 4.60312 5.94747 4.62353 5.97799 4.69492C6.02883 4.84793 5.9373 4.81732 5.95764 5.00093C5.97799 5.12333 5.99832 5.24573 6.039 5.45994C6.05935 5.56194 6.08985 5.79654 5.99832 5.73535M5.71355 3.3179C5.7644 3.1751 5.85594 3.06289 5.92713 2.97109C5.98815 2.88949 5.95764 2.78749 5.92713 2.70589C5.90679 2.62429 5.85594 2.53248 5.84577 2.51209C5.8356 2.49169 5.8356 2.48149 5.84577 2.47128C5.84577 2.47128 5.85594 2.47128 5.85594 2.46108L5.9678 2.45088C6.29327 2.41009 6.57804 2.29788 6.66957 2.24688C6.71025 2.22648 6.7611 2.20608 6.80179 2.18569C6.85263 2.16528 6.91366 2.14488 6.96452 2.14488C7.0052 2.13468 7.05605 2.13468 7.09674 2.12448C7.15776 2.11428 7.25946 2.16528 7.23912 2.17547C7.18827 2.20608 6.93401 2.26729 6.71026 2.53248C6.57804 2.69568 6.54752 2.79769 6.49668 2.86909C6.44582 2.9405 6.41532 2.96089 6.34412 3.0221C6.3136 3.05269 6.24241 3.1037 6.2119 3.19549C6.18138 3.28729 6.05935 3.60351 6.039 4.11352C6.039 4.17471 6.02883 4.23591 5.9678 4.25632C5.91696 4.27672 5.88644 4.30731 5.87627 4.27672C5.84577 4.16451 5.77457 3.91971 5.75424 3.76671C5.74405 3.7157 5.73389 3.67491 5.72372 3.6239C5.70338 3.4913 5.68304 3.3791 5.71355 3.3179ZM6.70008 4.55213C6.63907 4.59292 6.58821 4.63373 6.53735 4.66432C6.4865 4.69492 6.40513 4.66432 6.42549 4.59292C6.43565 4.55213 6.4865 4.46031 6.57804 4.45012C6.58821 4.45012 6.62888 4.43992 6.66957 4.43992C6.71025 4.43992 6.7611 4.42972 6.78144 4.42972C6.84247 4.42972 6.85263 4.48073 6.81196 4.50112C6.78144 4.50112 6.74077 4.53172 6.70008 4.55213ZM6.78144 4.66432C6.80179 4.65412 6.80179 4.65412 6.85263 4.62353C6.89332 4.60312 6.93401 4.57252 6.97468 4.55213C7.05605 4.50112 7.19843 4.45012 7.26963 4.45012C7.32048 4.45012 7.39168 4.47051 7.44252 4.52152C7.48321 4.57252 7.50355 4.62353 7.44252 4.61332C7.38151 4.60312 7.32048 4.58272 7.2086 4.61332C7.08657 4.64393 7.00519 4.68472 6.94418 4.71533C6.88315 4.74592 6.82213 4.74592 6.80179 4.74592C6.78144 4.73572 6.72043 4.70513 6.78144 4.66432ZM7.69679 5.76594C7.70696 5.79654 7.71713 5.83735 7.70696 5.85774C7.70696 5.87814 7.6256 5.90875 7.5544 5.80674C7.49338 5.70474 7.5239 5.58233 7.5544 5.54154C7.61543 5.47014 7.70696 5.52114 7.69679 5.55174C7.66627 5.64354 7.68662 5.73535 7.69679 5.76594ZM9.68003 4.79693C9.65968 4.80713 9.56815 4.77653 9.53764 4.76632C9.48679 4.73572 9.44611 4.71533 9.38509 4.65412C9.3444 4.61332 9.25287 4.59292 9.18168 4.60312C9.12065 4.60312 9.05963 4.62353 9.01895 4.63373C8.97826 4.64393 8.96809 4.60312 8.98843 4.58272C8.99861 4.56233 9.06979 4.51132 9.20201 4.47051C9.22236 4.46032 9.26304 4.47051 9.28338 4.47051C9.3444 4.48073 9.41559 4.51132 9.45628 4.56233C9.50713 4.61332 9.60884 4.69492 9.65968 4.73572C9.68003 4.75612 9.74106 4.76632 9.68003 4.79693ZM9.61901 4.56233C9.61901 4.56233 9.53765 4.50112 9.50713 4.46032C9.49696 4.43992 9.49696 4.41952 9.53764 4.41952C9.66986 4.41952 9.78173 4.41952 9.84276 4.46032C9.88343 4.49092 9.88344 4.57252 9.86309 4.61332C9.84276 4.66432 9.7919 4.65412 9.76139 4.64393C9.74106 4.64393 9.61901 4.56233 9.61901 4.56233ZM10.2699 4.37872C10.2496 4.39911 10.2292 4.38891 10.1886 4.39911C10.158 4.40932 10.1377 4.41952 10.1072 4.41952C10.0665 4.41952 10.036 4.35832 10.0665 4.32772C10.1072 4.27672 10.158 4.31751 10.1987 4.32772C10.2191 4.32772 10.2394 4.32772 10.2598 4.32772C10.2801 4.33792 10.2801 4.34812 10.2699 4.37872ZM6.55769 1.87967C6.57804 1.84907 6.62888 1.80828 6.66957 1.76747C6.72043 1.72667 6.96452 1.54307 7.19843 1.48187C7.23912 1.47167 7.24929 1.46147 7.2798 1.45127C7.31032 1.44107 7.34082 1.36967 7.26963 1.35946C7.19843 1.34926 7.16793 1.34926 7.12724 1.35946C7.08657 1.35946 7.06622 1.33906 7.09674 1.30847C7.12724 1.27786 7.1781 1.24726 7.26963 1.20646C7.47304 1.12486 7.82901 1.08406 8.0019 1.06365C8.22565 1.04326 8.24599 1.04326 8.38838 1.05346C8.5206 1.06365 8.62229 1.08406 8.67315 1.09426C8.92742 1.13506 9.21218 1.25746 9.47662 1.40027C9.60884 1.48187 9.74106 1.57366 9.86309 1.66548C10.2292 1.95107 10.6564 2.50189 10.5954 3.66471C10.5852 3.7973 10.575 3.8789 10.5649 3.90951C10.5547 3.94011 10.514 4.00131 10.4835 3.91971C10.4021 3.67491 10.3106 3.2363 10.0868 2.88949C10.0563 2.83849 10.0055 2.8487 10.0156 2.89969C10.0156 2.9201 10.0258 3.1445 10.0258 3.1853C9.98514 3.4709 10.0767 3.35869 10.2089 3.66471C10.2496 3.75651 10.3004 3.9503 10.3106 4.06251C10.3106 4.09311 10.3208 4.12372 10.3208 4.16451C10.3208 4.20532 10.3004 4.20532 10.3004 4.20532C10.2089 4.20532 10.0563 4.16451 9.97498 4.16451C9.88343 4.16451 9.23253 4.15431 8.98843 4.17471C8.74434 4.19512 8.61213 4.27672 8.46974 4.39911C8.4494 4.41952 8.4189 4.43992 8.39855 4.43992C8.38838 4.43992 8.37821 4.45012 8.36804 4.43992C8.35787 4.43992 8.33753 4.42972 8.30701 4.42972C8.24599 4.41952 8.1748 4.40932 8.11377 4.42972C8.05276 4.45012 8.03241 4.46032 7.96121 4.42972C7.86968 4.37872 7.73746 4.16451 7.24929 4.16451C6.97468 4.16451 6.61872 4.15431 6.41532 4.16451C6.34412 4.16451 6.3136 4.17471 6.29327 4.17471C6.29327 4.16451 6.29327 4.15431 6.29327 4.15431C6.29327 3.76671 6.53735 3.85851 6.56787 3.75651C6.63907 3.51171 6.6594 2.90989 7.08657 2.54268C7.28996 2.36928 7.40185 2.35908 7.59508 2.35908C7.79849 2.35908 8.0019 2.41009 8.1036 2.46108C8.18496 2.50189 8.22565 2.53248 8.25616 2.50189C8.28668 2.48149 8.37821 2.39988 8.40871 2.36928C8.4494 2.33869 8.42906 2.29788 8.39855 2.26729C8.36804 2.23668 8.06293 1.84907 7.58491 1.77767C7.47304 1.75728 7.40185 1.74708 7.30013 1.74708C7.24929 1.74708 7.19843 1.74708 7.07638 1.75728C6.89332 1.77767 6.6594 1.87967 6.50685 1.94087C6.51702 1.94087 6.54752 1.88988 6.55769 1.87967ZM6.40513 7.26537C6.40513 7.45917 6.52719 7.98958 7.18827 8.48939C7.46287 8.6934 7.59508 8.7852 7.6256 8.81579C7.64593 8.82599 7.5239 8.82599 7.49338 8.82599C7.44252 8.82599 7.25946 8.81579 7.12724 8.83619C6.99502 8.8566 7.01537 8.8872 7.0052 8.97899C6.99502 9.0504 7.0052 9.1728 7.0052 9.2646C7.0052 9.36661 6.99502 9.43801 7.03571 9.47881C7.07638 9.52981 7.1069 9.52981 7.2798 9.51961C7.44252 9.50942 7.91037 9.50941 7.96121 9.4992C8.03241 9.489 8.02224 9.50941 7.98157 9.60121C7.91037 9.75421 7.67645 10.4478 7.32048 11.1108C7.26963 11.2026 7.41202 11.1618 7.53407 11.2128C7.74765 11.3148 7.74765 11.3454 7.79849 11.2332C7.85951 11.1108 8.1748 10.3764 8.22565 10.1418C8.23582 10.1112 8.24599 10.0908 8.24599 10.1316C8.24599 10.1622 8.25616 11.1006 8.22565 11.3964C8.22565 11.4168 8.22565 11.427 8.23582 11.4372C8.25616 11.4576 8.27651 11.4576 8.29685 11.4678C8.40873 11.427 8.53076 11.4066 8.64265 11.427C8.65281 11.427 8.66298 11.427 8.67315 11.4168C8.68332 11.4168 8.68332 11.4066 8.68332 11.3964C8.69349 11.376 8.69349 11.3658 8.70367 11.3454C8.71384 11.325 8.71384 11.2944 8.71384 11.274C8.71384 11.2638 8.71384 11.2434 8.71384 11.2332C8.71384 11.2128 8.71384 11.1924 8.71384 11.172C8.71384 11.1516 8.71384 11.121 8.71384 11.1006C8.71384 11.07 8.71384 11.0496 8.71384 11.019C8.71384 10.9884 8.71384 10.9578 8.71384 10.9272C8.71384 10.8966 8.71384 10.9068 8.71384 10.8762C8.71384 10.8456 8.71384 10.8048 8.71384 10.7742C8.71384 10.7334 8.71384 10.7028 8.70367 10.662C8.70367 10.6212 8.70367 10.5804 8.69349 10.5498C8.69349 10.509 8.68332 10.4682 8.68332 10.4274C8.68332 10.3866 8.67315 10.3458 8.67315 10.305C8.67315 10.2642 8.66298 10.2234 8.66298 10.1826C8.66298 10.1418 8.65281 10.101 8.64265 10.0602C8.63248 10.0194 8.63248 9.97862 8.62229 9.93781C8.61213 9.89702 8.61213 9.88682 8.60196 9.84601C8.59179 9.80522 8.58162 9.77461 8.58162 9.73382C8.57145 9.70321 8.56128 9.66242 8.5511 9.63181C8.54093 9.60121 8.53076 9.58082 8.5206 9.55021C8.5206 9.55021 8.51043 9.50941 8.51043 9.4992C8.51043 9.489 8.53076 9.4992 8.5511 9.489H8.56128C8.68332 9.46861 8.88673 9.47881 8.93759 9.489C8.98843 9.489 9.22236 9.50942 9.28338 9.51961C9.3444 9.52981 9.42576 9.54001 9.42576 9.3462C9.42576 9.29521 9.42576 9.2646 9.42576 9.21361C9.42576 9.2034 9.42576 9.2034 9.42576 9.1932C9.42576 9.183 9.42576 9.1728 9.42576 9.15241C9.42576 9.14221 9.42576 9.14221 9.42576 9.132C9.42576 9.1218 9.42576 9.1218 9.42576 9.1116C9.42576 9.1014 9.42576 9.1014 9.42576 9.0912C9.42576 9.081 9.42576 9.07081 9.42576 9.06059V9.0504C9.42576 9.0402 9.42576 9.0402 9.42576 9.03V9.0198C9.42576 9.0096 9.42576 9.0096 9.42576 9.0096C9.42576 8.9994 9.42576 8.9994 9.42576 8.98921C9.42576 8.9382 9.42576 8.8464 9.32406 8.82599C9.22236 8.7954 9.02912 8.7954 8.8664 8.8056C8.84604 8.8056 8.83588 8.8056 8.84604 8.7954C8.88673 8.7648 9.12065 8.6322 9.40543 8.38738C9.71054 8.11199 9.85293 7.96918 9.94446 7.76518C9.94446 7.76518 10.2801 7.11236 10.2598 6.56156C10.2598 6.44935 10.2699 6.45955 10.3411 6.45955C10.3614 6.45955 10.4428 6.45955 10.4835 6.42896C10.6259 6.39835 10.7479 5.90875 10.7479 5.90875C10.7479 5.90875 10.9615 5.17433 11.0124 4.86833C11.0632 4.60312 11.0429 4.43992 10.8801 4.36852L10.8496 4.34812C10.8395 4.33792 10.8293 4.32772 10.8395 4.31751C10.8395 4.30731 10.8496 4.29711 10.8496 4.28692C10.931 4.01151 11.0734 3.6545 11.0429 3.5117C11.0327 3.4709 11.0022 3.4607 10.992 3.45051C10.9717 3.44031 10.9106 3.36891 10.8903 3.3179C10.8903 3.3077 10.8903 3.3077 10.8903 3.2975C10.8496 2.7773 10.6564 2.11428 10.1072 1.54307C10.1072 1.54307 10.0665 1.51246 10.0462 1.49206C9.99531 1.45127 9.93429 1.40027 9.87326 1.33906C9.73088 1.22687 9.60884 1.14527 9.36474 1.02286C9.3444 1.01266 9.16134 0.931063 8.8969 0.859661C8.87656 0.849463 8.84604 0.849463 8.82571 0.839251C8.78503 0.829053 8.72401 0.818854 8.65281 0.808656C8.49009 0.778061 8.30701 0.767849 8.11377 0.778061C8.09343 0.778061 8.06293 0.778061 8.05276 0.778061C8.04259 0.778061 8.03241 0.778061 8.02224 0.778061C8.01207 0.778061 7.99173 0.778061 7.98157 0.778061C7.94088 0.778061 7.89002 0.788259 7.82901 0.798458C7.73746 0.808656 7.64593 0.829053 7.58491 0.839251C7.51371 0.859661 7.43235 0.869859 7.31032 0.910652C7.25946 0.920865 7.21877 0.941261 7.16793 0.951459C7.15776 0.951459 7.13741 0.961658 7.12724 0.961658C7.07638 0.982054 7.02554 0.992253 6.97468 1.01266C6.93401 1.02286 6.78144 1.09426 6.75093 1.10446C6.7306 1.11466 6.71025 1.12486 6.68991 1.13506C6.57804 1.16566 6.55769 1.23707 6.54752 1.26766C6.54752 1.28806 6.53735 1.30847 6.52719 1.32886C6.36446 1.66548 5.99832 1.69607 5.84577 1.70627C5.80508 1.70627 5.77457 1.71647 5.78474 1.74708C5.81525 1.84907 5.98815 2.02247 6.10002 2.06328C6.10002 2.08368 6.00849 2.09387 5.98815 2.10407C5.94747 2.11428 5.7644 2.10407 5.75424 2.10407C5.55082 2.12448 5.4898 2.25709 5.46946 2.32849C5.45929 2.34889 5.46946 2.36928 5.47963 2.38968C5.5203 2.46108 5.57116 2.51209 5.60167 2.60388C5.61185 2.62429 5.62202 2.65489 5.62202 2.68548C5.62202 2.72629 5.65252 2.76708 5.62202 2.83849C5.55082 2.97109 5.37792 3.0119 5.35758 3.1445C5.31691 3.3281 5.3881 3.4607 5.45929 3.76671C5.51014 3.98091 5.56099 4.20532 5.60167 4.29712C5.60167 4.30731 5.60167 4.30731 5.5915 4.30731C5.58133 4.30731 5.55082 4.31751 5.54066 4.31751C5.43894 4.35832 5.40844 4.43992 5.39827 4.59292C5.37792 4.92953 5.62202 5.45994 5.70338 5.90875C5.73389 6.06175 5.79491 6.30655 5.91696 6.39836C5.94747 6.41876 5.99832 6.43915 6.039 6.43915C6.13054 6.45955 6.17122 6.39836 6.17122 6.49016C6.17122 6.51056 6.18139 6.56156 6.18139 6.59216C6.23224 6.94916 6.40513 7.26537 6.40513 7.26537Z" fill="#2A2422"/>
<path d="M12.8634 12.1205C12.6702 12.0695 12.4159 12.0185 12.1006 12.0185C10.4632 12.0185 10.0462 12.9467 9.97502 13.5792C9.90383 14.2829 10.392 14.9868 11.5921 14.9868C12.1006 14.9868 12.4261 14.895 12.5481 14.8644C12.5787 14.8542 12.599 14.8337 12.6092 14.8031L12.6804 14.4461C12.6905 14.3952 12.6397 14.3441 12.5888 14.3646C12.4566 14.4054 12.2227 14.4666 11.9277 14.4666C11.348 14.4666 10.9412 14.1197 10.9921 13.5281C11.0429 12.9467 11.4294 12.5081 11.9684 12.5081C12.2939 12.5081 12.4363 12.6815 12.4261 12.9059C12.4261 12.9059 12.4261 12.9059 12.4261 12.9161C12.4261 12.9569 12.4566 12.9875 12.4973 12.9875H12.7109C12.7414 12.9875 12.7719 12.9671 12.7821 12.9263L12.9346 12.2327C12.9346 12.1817 12.9041 12.1307 12.8634 12.1205Z" fill="#2A2422"/>
<path d="M6.08003 12.1208L6.03936 12.3044C6.02919 12.3452 6.04953 12.386 6.09021 12.3962C6.16141 12.4268 6.17158 12.488 6.11055 12.539L5.10367 13.3754L5.27658 12.5798C5.30708 12.4574 5.39861 12.4064 5.45964 12.386H5.46981C5.50033 12.3758 5.52066 12.3554 5.52066 12.3248L5.56134 12.1412C5.57152 12.1004 5.541 12.0596 5.49016 12.0596H4.1985C4.15781 12.0596 4.12731 12.0902 4.11714 12.1208L4.07645 12.3146C4.06628 12.3554 4.08663 12.3962 4.12731 12.4064C4.13748 12.4064 4.13748 12.4064 4.13748 12.4064C4.21884 12.437 4.31038 12.5084 4.2697 12.7022L3.96458 14.12C3.88322 14.5076 3.751 14.5892 3.62895 14.5995C3.59845 14.5995 3.56794 14.6301 3.55776 14.6607L3.51709 14.8442C3.50692 14.8953 3.53742 14.936 3.58828 14.936H4.95111C4.98163 14.936 5.01214 14.9156 5.02231 14.885L5.07316 14.6708C5.08333 14.6402 5.063 14.5995 5.03248 14.5892H5.02231C4.95111 14.5586 4.85958 14.4975 4.87992 14.3852L5.04265 13.661C5.58169 14.6607 5.76475 14.9462 6.41566 14.9462H7.00555C7.03607 14.9462 7.06658 14.9259 7.07674 14.8953L7.11743 14.7116C7.1276 14.6607 7.09708 14.6198 7.04624 14.6198C6.90385 14.6198 6.82249 14.579 6.6801 14.3954L5.92748 13.3652L6.91402 12.5492C7.04624 12.4472 7.20896 12.4166 7.30049 12.4064C7.30049 12.4064 7.30049 12.4064 7.31066 12.4064C7.34118 12.4064 7.37169 12.386 7.37169 12.3452L7.41238 12.1616C7.42254 12.1208 7.39202 12.0698 7.34118 12.0698H6.15123C6.12072 12.0596 6.08003 12.0902 6.08003 12.1208Z" fill="#2A2422"/>
<path d="M9.71061 12.9164H9.94453C9.97503 12.9164 10.0056 12.896 10.0157 12.8552L10.1683 12.1514C10.1784 12.1106 10.1479 12.0596 10.0971 12.0596H7.68668C7.646 12.0596 7.61548 12.0902 7.60531 12.1208L7.56464 12.3146C7.55447 12.3554 7.57481 12.386 7.61548 12.4064H7.62567C7.70703 12.437 7.8189 12.5186 7.76805 12.7022L7.29003 14.8545C7.27987 14.8953 7.31037 14.9462 7.36123 14.9462H8.44947C8.47998 14.9462 8.5105 14.9259 8.52066 14.885L8.57151 14.6708C8.58168 14.6402 8.56134 14.6096 8.53083 14.5892H8.52066C8.44947 14.5586 8.34776 14.477 8.37828 14.324C8.37828 14.3037 8.47998 13.8344 8.47998 13.8344H9.4055C9.436 13.8344 9.46651 13.8141 9.47669 13.7732L9.56822 13.3754C9.57839 13.3346 9.54788 13.2836 9.49703 13.2836H8.60203L8.76475 12.5186H9.38514C9.58856 12.5186 9.64958 12.6206 9.63941 12.8042C9.63941 12.8042 9.63941 12.8042 9.63941 12.8144C9.63941 12.8756 9.66992 12.9164 9.71061 12.9164Z" fill="#2A2422"/>
<path d="M15.4063 0.27829H1.06597C0.750687 0.27829 0.496425 0.553694 0.516766 0.869899L1.65585 15.2521C1.67619 15.5377 1.92029 15.7621 2.20507 15.7621H14.2672C14.552 15.7621 14.7859 15.5377 14.8164 15.2521L15.9555 0.869899C15.9759 0.543495 15.7216 0.27829 15.4063 0.27829Z" stroke="white" stroke-width="0.558269"/>
</g>
<defs>
<clipPath id="clip0_781_616">
<rect width="16" height="16" fill="white" transform="translate(0.236328)"/>
</clipPath>
</defs>
</svg>
