<svg width="41" height="16" viewBox="0 0 41 16" fill="none" xmlns="http://www.w3.org/2000/svg">
<g clip-path="url(#clip0_781_588)">
<g clip-path="url(#clip1_781_588)">
<path d="M39.9741 2.16239C39.1316 1.93049 38.0621 1.71753 36.7252 1.71753C29.7471 1.71753 27.977 5.65976 27.6907 8.33365C27.3689 11.3364 29.4465 14.2848 34.5696 14.2825C36.7252 14.2825 38.1331 13.9062 38.6348 13.7477C38.7602 13.7075 38.8549 13.6034 38.8785 13.4732L39.1672 11.9564C39.2098 11.7293 38.9944 11.5376 38.7744 11.6062C38.2183 11.7813 37.2245 12.025 35.9679 12.025C33.5189 12.025 31.7512 10.5556 31.976 8.02602C32.1937 5.57694 33.8454 3.70993 36.1194 3.70993C37.4871 3.70993 38.0905 4.42456 38.0456 5.38052C38.0456 5.38052 38.0456 5.39708 38.0456 5.43495C38.036 5.61006 38.1758 5.75677 38.3507 5.75677H39.2783C39.4227 5.75677 39.5457 5.65739 39.5765 5.51777L40.2272 2.58359C40.2699 2.39665 40.1586 2.21208 39.9741 2.16002V2.16239ZM11.1031 2.16949L10.9327 2.9338C10.8949 3.10417 10.9943 3.27691 11.1623 3.3266C11.4581 3.44018 11.5219 3.72413 11.2664 3.9371L6.98108 7.49835L7.71699 4.14296C7.84239 3.62711 8.25176 3.41652 8.50968 3.33133L8.55228 3.31713C8.66586 3.28164 8.75105 3.18935 8.77707 3.07341L8.95217 2.27834C8.99477 2.08904 8.85043 1.91156 8.6564 1.91156H3.13113C2.97496 1.91156 2.84009 2.02041 2.80695 2.17185L2.62712 2.97639C2.59163 3.13966 2.68391 3.3053 2.84245 3.35973C2.87321 3.37156 2.8945 3.37629 2.89687 3.37866C3.24472 3.51354 3.64461 3.82114 3.47661 4.62332L2.15859 10.655C1.81312 12.3019 1.25468 12.6379 0.722262 12.6994H0.705699C0.563721 12.716 0.445408 12.8225 0.414646 12.9621L0.244274 13.7359C0.199315 13.9346 0.350757 14.1239 0.556624 14.1239H6.36583C6.50781 14.1239 6.63085 14.0246 6.66163 13.8873L6.86275 12.9834C6.89589 12.8367 6.81544 12.6876 6.67582 12.6308C6.66399 12.6261 6.65216 12.6213 6.63795 12.6166C6.34454 12.4983 5.94227 12.2427 6.04402 11.7647L6.7184 8.68149C9.03026 12.91 9.79695 14.1263 12.5726 14.1263H15.0785C15.2204 14.1263 15.3435 14.0269 15.3743 13.8897L15.5494 13.1064C15.5943 12.9053 15.4453 12.7136 15.2394 12.7089C14.6123 12.6994 14.3047 12.5551 13.68 11.7505L10.4619 7.39424L14.6454 3.91344C15.2063 3.4733 15.8925 3.35026 16.2711 3.30057L16.3089 3.29584C16.4415 3.28164 16.5503 3.18699 16.5811 3.05684L16.7514 2.28307C16.794 2.0914 16.6473 1.9092 16.4509 1.9092H11.4178C11.2617 1.9092 11.1292 2.01805 11.0937 2.16949H11.1031ZM26.581 5.52014H27.5583C27.7003 5.52014 27.8257 5.42076 27.8563 5.28114L28.5213 2.2807C28.5639 2.08904 28.4195 1.9092 28.2231 1.9092H17.9323C17.776 1.9092 17.6412 2.01805 17.6056 2.16949L17.4281 2.97402C17.3927 3.1302 17.4802 3.28874 17.6317 3.34316C17.6436 3.3479 17.6553 3.35026 17.6673 3.35499C18.0056 3.48513 18.4764 3.81168 18.273 4.61859L16.2569 13.7524C16.2143 13.9417 16.3586 14.1216 16.5527 14.1216H21.1811C21.323 14.1216 21.4461 14.0222 21.4769 13.8826L21.678 12.9716C21.7088 12.8367 21.6379 12.6994 21.5124 12.645C21.4981 12.6379 21.4816 12.6308 21.4675 12.6237C21.1741 12.4817 20.7363 12.1481 20.883 11.5092C20.8995 11.424 21.3349 9.44106 21.3349 9.44106H25.27C25.4121 9.44106 25.5373 9.34168 25.5681 9.20206L25.9373 7.53384C25.9799 7.34217 25.8355 7.16234 25.6391 7.16234H21.8389L22.5488 3.92764H25.2038C26.0628 3.92527 26.323 4.37249 26.2733 5.1368C26.2733 5.1368 26.2733 5.14626 26.2685 5.17703C26.2496 5.35923 26.3916 5.51777 26.5739 5.51777L26.581 5.52014Z" fill="#E31F2E"/>
</g>
</g>
<defs>
<clipPath id="clip0_781_588">
<rect width="40" height="16" fill="white" transform="translate(0.236328)"/>
</clipPath>
<clipPath id="clip1_781_588">
<rect width="40" height="12.5649" fill="white" transform="translate(0.236328 1.71753)"/>
</clipPath>
</defs>
</svg>
