<svg width="27" height="16" viewBox="0 0 27 16" fill="none" xmlns="http://www.w3.org/2000/svg">
<g clip-path="url(#clip0_876_2918)">
<path d="M6.34278 3.59832C6.34278 3.59832 8.54362 0 13.0499 0C17.5562 0 19.6524 3.4937 19.6524 3.4937H25.7655L25.5226 4.9958C25.5226 4.9958 25.347 5.58991 25.0667 5.66091H25.4852C25.4852 5.66091 25.6235 6.18403 24.7865 8H26.5688C26.5688 8 26.6398 11.1798 22.7949 12.6819C22.7949 12.6819 20.8033 13.3097 19.7907 12.2261C19.7907 12.2261 17.7655 16 13.0462 16C8.33063 16 6.19705 12.1214 6.19705 12.1214H0.719238L1.5936 10.5483H0.995745L1.69448 9.25549H2.88271L3.09196 8.766H2.53521L3.89906 6.25128H4.66879L4.98267 5.48155H4.31756L5.33017 3.59458H6.34278V3.59832Z" fill="white"/>
<path d="M13.1171 15.1593C16.9733 15.1593 20.1008 11.9869 20.1008 8.071C20.1008 4.15508 16.9733 0.982727 13.1171 0.982727C9.26098 0.982727 6.13721 4.15508 6.13721 8.071C6.13721 11.9869 9.26098 15.1593 13.1171 15.1593Z" fill="#FCB724"/>
<path d="M11.0137 9.82367C10.9203 9.81993 10.8605 9.75641 10.838 9.69289C10.8082 9.60321 10.8119 9.44627 10.8455 9.37528L12.4597 6.50933C12.4859 6.45702 12.5531 6.34492 12.6316 6.34492C12.7736 6.34492 12.8371 6.15809 12.5942 6.15809H11.3014C11.0585 6.15809 11.0585 6.34118 11.2902 6.34118C11.3836 6.34118 11.421 6.4346 11.3948 6.49065L11.0361 7.13707C10.9912 7.20807 10.8941 7.21554 10.7895 7.21554H10.4831C10.4607 7.21554 10.4457 7.23422 10.4457 7.25291C10.4457 7.27533 10.4644 7.29027 10.4831 7.29027H10.7895C10.8717 7.29027 10.9389 7.31643 10.8904 7.40984L9.69839 9.58079C9.61245 9.70036 9.44057 9.72652 9.45178 9.49859L9.87401 6.31876C9.88896 6.21788 9.8628 6.15062 9.75818 6.15062H9.11923C9.04449 6.15062 8.99592 6.18798 8.95855 6.23656L8.73062 6.52427C8.70073 6.55417 8.63721 6.55417 8.56621 6.55417H8.02815C8.00573 6.55417 7.99078 6.57285 7.99078 6.59153C7.99078 6.61395 8.00946 6.6289 8.02815 6.6289H8.46533C8.54379 6.6289 8.63347 6.64758 8.59984 6.68495L7.98331 7.45842C7.96462 7.48084 7.90484 7.48457 7.86747 7.48457H7.69559C7.67317 7.48457 7.65823 7.50326 7.65823 7.52194C7.65823 7.54436 7.67691 7.5593 7.69559 7.5593H7.84132C7.88616 7.5593 7.88616 7.58172 7.86747 7.60041L7.28831 8.3253C7.25841 8.3552 7.20236 8.35893 7.14258 8.35893H6.63067C6.60825 8.35893 6.5933 8.37761 6.5933 8.3963C6.5933 8.41872 6.61199 8.43366 6.63067 8.43366H7.06785C7.13511 8.43366 7.18742 8.44487 7.15005 8.48971L6.32801 9.521C6.17481 9.71904 5.43123 9.81619 5.2855 9.81619L8.06551 4.61489C8.09167 4.5551 8.19629 4.46542 8.30092 4.46542H8.89129C9.1678 4.46542 9.16033 4.27859 8.92119 4.27859H5.95435C5.71147 4.27859 5.704 4.46542 5.98051 4.46542H6.52978C6.68672 4.46542 6.73529 4.55884 6.69419 4.63731L6.61572 4.7793C6.58957 4.82413 6.5522 4.84282 6.40274 4.84282H5.43123C5.40881 4.84282 5.39386 4.8615 5.39386 4.88018C5.39386 4.9026 5.41255 4.91755 5.43123 4.91755H6.399C6.45131 4.91755 6.52978 4.93249 6.48121 5.02591L6.34669 5.28C6.32427 5.31736 6.26448 5.33604 6.19723 5.33604H5.75631C5.73389 5.33604 5.71895 5.35473 5.71895 5.37341C5.71895 5.39583 5.73763 5.41078 5.75631 5.41078H6.19349C6.25701 5.41078 6.25701 5.45188 6.21965 5.51166L5.90577 6.09083C5.87962 6.13941 5.82731 6.14688 5.73015 6.14688H5.55454C5.53212 6.14688 5.51717 6.16556 5.51717 6.18425C5.51717 6.20667 5.53585 6.22161 5.55454 6.22161H5.72642C5.79368 6.22161 5.80862 6.25898 5.77873 6.3225L5.52091 6.80078C5.48354 6.86804 5.42749 6.8942 5.25561 6.8942H4.2841C4.26168 6.8942 4.24674 6.91288 4.24674 6.93156C4.24674 6.95024 4.26542 6.96893 4.2841 6.96893H5.25187C5.36023 6.96893 5.40134 7.0175 5.36023 7.09597L4.85953 8.03759C4.82964 8.07869 4.74744 8.08616 4.60918 8.08616H3.63767C3.61525 8.08616 3.60031 8.10484 3.60031 8.12353C3.60031 8.14595 3.61899 8.16089 3.63767 8.16089H4.60545C4.72128 8.16089 4.79228 8.16463 4.75865 8.22815L4.47093 8.76995C4.41862 8.85216 4.26916 8.85216 4.20937 8.85216H3.90297C3.88055 8.85216 3.86561 8.87084 3.86561 8.88952C3.86561 8.91194 3.88429 8.92689 3.90297 8.92689H4.20937C4.31773 8.92689 4.37378 8.94557 4.34762 9.00536L3.96276 9.73025C3.9366 9.8274 3.78714 9.83114 3.6713 9.83114H2.1692C2.14678 9.83114 2.13184 9.84982 2.13184 9.86851C2.13184 9.89093 2.15052 9.90587 2.1692 9.90587H3.66757C3.76845 9.90587 3.89176 9.91708 3.84692 9.99929L3.60031 10.4626C3.57789 10.5 3.49195 10.5037 3.37238 10.5037H3.06598C3.04356 10.5037 3.02861 10.5224 3.02861 10.5411C3.02861 10.5635 3.0473 10.5785 3.06598 10.5785H3.37238C3.44711 10.5785 3.53679 10.5859 3.50689 10.642L3.3537 10.9372C3.30512 11.0119 3.25281 11.0754 3.13697 11.0754H2.37845C2.10194 11.0754 2.10942 11.2622 2.35229 11.2622L6.77266 11.266C6.90344 11.266 6.90718 11.2473 6.96696 11.1539L7.62086 10.0105H10.9726C11.2154 10.0142 11.1557 9.83114 11.0137 9.82367ZM8.38312 9.48364C8.34949 9.6742 8.15893 9.79751 7.92352 9.86103L7.67691 9.92455L7.87868 9.56211C7.931 9.46122 7.81516 9.40517 7.68812 9.5509C6.83244 10.5486 6.55967 11.0268 5.24066 11.0268H4.88569C4.77733 11.0268 4.6615 10.9857 4.73249 10.8811L5.19956 10.0105H6.97443C7.21731 10.0105 7.15379 9.8274 7.0118 9.82367C6.91838 9.81993 6.81376 9.76762 6.74277 9.65179C6.72408 9.61816 6.67924 9.49485 6.7465 9.3977L7.42656 8.49345H8.555L8.38312 9.48364ZM8.63721 8.34399H7.53492L8.92866 6.50559L8.63721 8.34399Z" fill="#552C81"/>
<path d="M16.2972 8.79593C15.6433 9.58808 15.2772 9.85712 14.6121 9.85712C14.3879 9.85712 14.2683 9.80854 14.3318 9.69644L15.1165 8.11587H15.4154C15.7517 8.11587 15.7031 8.39612 15.6135 8.78098C15.5985 8.8333 15.6359 8.83703 15.677 8.79219L16.4243 7.48066C16.4617 7.39845 16.3682 7.37977 16.3197 7.44329C15.946 7.95147 15.5537 7.9141 15.3855 7.9141H15.251L16.0917 6.31111H16.4318C16.8577 6.33727 17.0558 6.69971 16.9325 7.57034H17.1081L17.7246 6.35221C17.7732 6.25133 17.6686 6.15417 17.5527 6.15417H13.364C13.1212 6.15417 13.1099 6.341 13.3416 6.341C13.5284 6.341 13.521 6.61004 13.3528 6.74082L11.5742 8.15324L11.9329 9.81975C11.9591 9.9468 12.0413 10.0066 12.1795 10.0066H15.6433C15.7853 10.0066 15.8451 9.9468 15.89 9.88701L16.5177 8.8034C16.6074 8.65394 16.4093 8.66515 16.2972 8.79593ZM13.8872 8.03741L13.5808 8.03367C13.5583 8.03367 13.5434 8.05235 13.5434 8.07104C13.5434 8.08972 13.5621 8.1084 13.5808 8.1084L13.8909 8.10467C13.9955 8.10467 14.0927 8.11961 14.0665 8.16445L13.2669 9.69271C13.166 9.8758 12.9568 9.82722 12.9231 9.6815L12.527 7.63386L13.9208 6.55399C14.059 6.43442 14.3243 6.24012 14.4626 6.24385H14.7653C14.9521 6.24385 15.0156 6.32979 14.9708 6.44189L14.9185 6.54651C14.8848 6.6063 14.7727 6.61004 14.683 6.61004H14.5074C14.485 6.61004 14.4701 6.62872 14.4701 6.6474C14.4701 6.66982 14.4887 6.68477 14.5074 6.68477H14.6793C14.754 6.68477 14.8475 6.68477 14.8138 6.74082L14.1674 7.97388C14.1338 8.0262 13.9993 8.03741 13.8872 8.03741Z" fill="#552C81"/>
<path d="M25.4031 8.91206C25.3844 8.82239 25.3508 8.87843 25.291 8.99053C25.2723 9.02416 25.2163 9.0279 25.1565 9.0279H24.9809C24.9585 9.0279 24.9435 9.04658 24.9435 9.06526C24.9435 9.08768 24.9622 9.10263 24.9809 9.10263H25.1565C25.2238 9.10263 25.2238 9.14747 25.1939 9.21473C25.0706 9.47629 24.9473 9.64817 24.7791 9.85742C24.753 9.89105 24.6857 9.9172 24.6334 9.9172H24.454C24.4316 9.9172 24.4167 9.93589 24.4167 9.95457C24.4167 9.97699 24.4353 9.99193 24.454 9.99193H24.6296C24.7156 9.99193 24.6296 10.0442 24.6147 10.0667C24.3046 10.4777 24.0916 10.6645 23.8636 10.8476C23.8375 10.87 23.7104 10.8626 23.6208 10.8626H23.4452C23.4227 10.8626 23.4078 10.8812 23.4078 10.8999C23.4078 10.9223 23.4265 10.9373 23.4452 10.9373H23.617C23.7478 10.9373 23.6507 11.012 23.632 11.0307C23.15 11.4305 22.4325 11.5613 22.1037 11.5202C21.0388 11.3857 20.8183 10.5786 20.7399 10.2535C20.7249 10.1862 20.6726 10.048 20.6539 9.96204C20.6203 9.79389 21.1023 9.74532 21.2331 9.835C21.4349 9.96951 21.9057 10.1078 22.2756 10.1078C22.6156 10.1078 23.3181 9.86115 23.5199 9.27451C23.7254 8.67292 23.206 8.00781 22.9743 7.77615C22.6792 7.48096 22.4026 7.01389 22.5222 6.67386C22.6119 6.41603 22.7576 6.29646 23.0752 6.29646C23.4825 6.29646 23.7814 6.55802 23.7814 6.93168C23.7814 6.96531 23.759 7.00268 23.7329 7.00268H23.5871C23.5647 7.00268 23.5498 7.02136 23.5498 7.04004C23.5498 7.06246 23.5685 7.07741 23.5871 7.07741H23.7217C23.759 7.07741 23.7852 7.1073 23.774 7.15214C23.7478 7.27545 23.7403 7.36512 23.7104 7.48843C23.6955 7.55942 23.8001 7.61174 23.8375 7.55942L24.4802 6.41603C24.525 6.33009 24.4241 6.30767 24.3457 6.33383C24.17 6.39361 23.8861 6.43845 23.7852 6.36372C23.546 6.19184 23.3256 6.07974 22.993 6.07974C22.4251 6.07974 22.0253 6.22173 21.7674 6.6888C21.7487 6.72617 21.6927 6.72617 21.6441 6.72617H21.5358C21.5133 6.72617 21.4984 6.74485 21.4984 6.76354C21.4984 6.78596 21.5171 6.8009 21.5358 6.8009H21.6292C21.6703 6.8009 21.6964 6.81211 21.6778 6.85695C21.6591 6.89805 21.6441 6.94289 21.6292 6.99147C21.5657 7.19324 21.5843 7.48096 21.6852 7.73131C21.6927 7.74625 21.6703 7.75746 21.6329 7.75746H21.4573C21.4349 7.75746 21.4199 7.77615 21.4199 7.79483C21.4199 7.81351 21.4386 7.8322 21.4573 7.8322H21.6329C21.7114 7.8322 21.7301 7.83967 21.7637 7.88824C21.8534 8.01529 21.9468 8.1087 22.0626 8.25443C22.1 8.29927 21.9431 8.31421 21.8608 8.31421H21.1696C21.1472 8.31421 21.1322 8.3329 21.1322 8.35158C21.1322 8.374 21.1509 8.38894 21.1696 8.38894H21.8683C21.9804 8.38894 22.1747 8.38894 22.1934 8.41136C22.3615 8.60567 22.5671 8.90833 22.6007 9.16241C22.6119 9.23341 22.582 9.26704 22.4923 9.26704H22.3989C22.3765 9.26704 22.3615 9.28572 22.3615 9.3044C22.3615 9.32682 22.3802 9.34177 22.3989 9.34177H22.4811C22.5521 9.34177 22.5895 9.35298 22.5745 9.40529C22.4849 9.69674 22.3466 9.90599 21.7936 9.90226C21.2144 9.89852 21.0948 9.33056 21.2667 8.73645C21.3004 8.61687 21.2667 8.5683 21.2107 8.66171L20.8071 9.29693C20.7959 9.31188 20.7586 9.34924 20.695 9.34924H20.639C20.6166 9.34924 20.6016 9.36793 20.6016 9.38661C20.6016 9.40903 20.6203 9.42397 20.6427 9.42397C20.695 9.42397 20.7137 9.45013 20.695 9.48002L20.5456 9.71169C20.3027 9.15494 19.8917 8.46741 19.675 8.21706L19.6787 8.20585C20.2168 8.17222 21.0126 7.66779 21.1397 7.2194C21.3639 6.43845 20.6054 6.147 20.1906 6.147H18.3709C18.128 6.147 18.1131 6.33009 18.3447 6.33009C18.4718 6.33009 18.5801 6.43845 18.5241 6.55055L18.1205 7.27545C18.0869 7.33523 17.9636 7.33149 17.7992 7.33149H17.6236C17.6012 7.33149 17.5862 7.35018 17.5862 7.36886C17.5862 7.39128 17.6049 7.40623 17.6236 7.40623H17.7955C17.9113 7.40623 18.0383 7.4137 17.9972 7.4959L17.5189 8.35531C17.4965 8.39642 17.433 8.40015 17.2723 8.40015H17.0967C17.0743 8.40015 17.0594 8.41884 17.0594 8.43752C17.0594 8.45994 17.078 8.47488 17.0967 8.47488H17.2686C17.3956 8.47488 17.4442 8.49357 17.4069 8.55709L16.7716 9.70795C16.6969 9.79016 16.6035 9.8051 16.4503 9.8051C16.2186 9.8051 16.2224 9.9882 16.4615 9.9882H18.0197C18.2625 9.9882 18.199 9.80137 18.057 9.80137C17.9748 9.80137 17.8851 9.64817 17.9412 9.55475L18.7371 8.04892H18.8193C19.1743 8.04892 19.2602 8.62808 19.3237 9.2633C19.3275 9.30814 19.2415 9.31188 19.0659 9.31188H18.625C18.6026 9.31188 18.5876 9.33056 18.5876 9.34924C18.5876 9.37166 18.6063 9.38661 18.625 9.38661H19.0622C19.178 9.38661 19.3387 9.38661 19.3461 9.42397C19.376 9.70048 19.3984 9.94709 19.4508 10.1713C19.4657 10.2423 19.3424 10.2311 19.2116 10.2311H18.6474C18.625 10.2311 18.61 10.2498 18.61 10.2684C18.61 10.2909 18.6287 10.3058 18.6474 10.3058H19.2116C19.3872 10.3058 19.4806 10.3058 19.4881 10.3432C19.731 11.2325 20.7698 11.9312 21.7824 11.8938C22.6493 11.8602 23.3816 11.3894 23.759 11.0867C24.256 10.6869 24.9921 9.84994 25.2873 9.23715C25.3321 9.15494 25.4218 9.01295 25.4031 8.91206ZM19.5703 7.72757C19.447 7.82846 19.2565 7.94055 19.2191 7.90693C19.1668 7.85461 19.0061 7.74625 18.9202 7.70515L19.6413 6.38614C19.6712 6.3413 19.7048 6.31515 19.7833 6.31515C20.0636 6.31515 20.157 6.62154 20.0262 6.99894C19.9365 7.26424 19.787 7.55195 19.5703 7.72757Z" fill="#552C81"/>
<path d="M10.7966 4.98833C10.6509 5.17889 10.4566 5.22373 10.2399 5.22373H10.1801L10.565 4.46521C10.5837 4.43158 10.6248 4.40169 10.6733 4.40169C10.7219 4.40169 10.7144 4.30453 10.6509 4.30453H10.0456C9.99328 4.30453 9.9746 4.40169 10.0232 4.40169C10.0755 4.40169 10.083 4.45773 10.0605 4.50631L9.71677 5.18263C9.69435 5.22 9.65699 5.22747 9.61215 5.23868C9.56357 5.25362 9.52621 5.34704 9.58599 5.34704H10.55C10.6248 5.34704 10.6434 5.32088 10.6621 5.29099L10.8564 4.99206C10.8826 4.9547 10.8265 4.95096 10.7966 4.98833Z" fill="#552583"/>
<path d="M13.7038 4.33442C13.6739 4.34936 13.6067 4.36057 13.5768 4.33442C13.4983 4.2709 13.3489 4.22232 13.2704 4.22232C13.0425 4.22232 12.878 4.26716 12.7809 4.48014C12.695 4.66324 12.7846 4.81644 12.9827 4.90985C13.0686 4.95095 13.1844 5.00326 13.1396 5.10789C13.106 5.18262 13.02 5.19383 12.9378 5.19009C12.8295 5.19009 12.6688 5.10789 12.6426 4.95469C12.6352 4.90611 12.5754 4.91732 12.5604 4.94348L12.4222 5.21625C12.3998 5.25361 12.4558 5.29472 12.4782 5.26856C12.5231 5.21999 12.624 5.20878 12.6763 5.23867C12.7435 5.28351 12.9192 5.36571 13.0238 5.36198C13.2554 5.36198 13.4049 5.30219 13.5319 5.10415C13.6478 4.9248 13.5768 4.74544 13.3675 4.64455C13.2554 4.59224 13.162 4.49883 13.2106 4.39794C13.2442 4.33068 13.3414 4.34563 13.39 4.3531C13.4834 4.36805 13.6029 4.45772 13.6179 4.53619C13.6254 4.56982 13.6665 4.5773 13.6851 4.5474L13.7561 4.37926C13.7748 4.34936 13.7225 4.32321 13.7038 4.33442Z" fill="#552583"/>
<path d="M20.3958 4.60718L20.478 4.45398C20.5154 4.38673 20.4556 4.30826 20.3585 4.30826H19.2338C19.1516 4.30826 19.1777 4.3942 19.2113 4.3942C19.2823 4.3942 19.3048 4.48388 19.2599 4.55487L18.9199 5.17888C18.8713 5.23866 18.8377 5.26482 18.763 5.26482C18.7032 5.26482 18.6845 5.35076 18.7667 5.35076H19.9063C19.9512 5.35076 19.9736 5.33582 19.9885 5.30966L20.1455 5.10415C20.1828 5.05557 20.1006 5.05557 20.0782 5.07799C19.8802 5.27603 19.6709 5.26856 19.5177 5.26856H19.387L19.5439 4.92106H19.5775C19.6784 4.92106 19.7942 4.92106 19.8241 4.99579C19.8316 5.01447 19.8802 5.02942 19.9026 4.99579L20.0371 4.73049C20.0595 4.68939 19.9998 4.68192 19.9811 4.71181C19.9288 4.80522 19.6971 4.77907 19.6373 4.77907H19.6037L19.798 4.3942H20.0147C20.1492 4.3942 20.2651 4.49135 20.3024 4.59224C20.3099 4.61839 20.3809 4.63708 20.3958 4.60718Z" fill="#552583"/>
<path d="M17.5148 4.30454H17.115C17.0328 4.30454 17.0589 4.39048 17.0926 4.39048C17.1785 4.39048 17.257 4.49137 17.2084 4.58478L17.044 4.88744L16.6778 4.35311C16.6516 4.31948 16.5956 4.30454 16.547 4.30454H16.1509C16.0687 4.30454 16.0874 4.38674 16.1211 4.38674C16.2033 4.38674 16.1846 4.45026 16.1622 4.4951L15.8483 5.10043C15.8296 5.149 15.7437 5.15648 15.7175 5.09295L15.4746 4.3008C15.4634 4.27091 15.3214 4.27091 15.2878 4.3008L14.6787 4.8015H14.3649C14.3013 4.8015 14.2789 4.82766 14.2789 4.86129C14.2789 4.89492 14.3013 4.92481 14.3686 4.92481H14.533L14.3686 5.05932C14.2752 5.12658 14.1818 5.22 14.122 5.22H14.0846C14.0248 5.22 13.9912 5.23121 13.9912 5.27605C13.9912 5.32462 14.0174 5.33957 14.0734 5.33957H14.5666C14.6601 5.33957 14.6414 5.22 14.5965 5.22C14.5442 5.22 14.462 5.15648 14.5405 5.06306L14.6899 4.92107H14.9851C15.1608 4.92107 15.2841 5.12285 15.1794 5.18637L15.0972 5.23121C15.0599 5.24989 15.0412 5.33957 15.0972 5.33957H16.0575C16.1285 5.33957 16.1136 5.24615 16.08 5.24615C15.9828 5.24615 16.0276 5.10416 16.0463 5.0668L16.3004 4.58852L16.6554 5.27605C16.6778 5.31715 16.7002 5.33957 16.7413 5.33957H16.8758C16.9207 5.33957 16.9319 5.31341 16.9543 5.27978L17.3579 4.55115C17.4214 4.42037 17.4737 4.38301 17.5559 4.38301C17.5708 4.39048 17.597 4.30454 17.5148 4.30454ZM14.8282 4.80524L15.2019 4.49884V4.80524H14.8282Z" fill="#552583"/>
<path d="M11.8243 4.25967C11.488 4.25967 11.1368 4.42782 11.0695 4.77906C11.0098 5.08919 11.2227 5.4068 11.6001 5.4068C11.9588 5.4068 12.2914 5.1714 12.3587 4.83137C12.4222 4.49134 12.1681 4.25967 11.8243 4.25967ZM11.9215 4.90984C11.8131 5.12282 11.6338 5.24987 11.5217 5.19382C11.4058 5.13777 11.4021 4.91731 11.5105 4.70433C11.6188 4.49134 11.7982 4.3643 11.9103 4.42035C12.0224 4.4764 12.0261 4.69685 11.9215 4.90984Z" fill="#552583"/>
<path d="M18.6586 4.77908H18.2252C18.143 4.77908 18.1691 4.86502 18.2027 4.86502C18.2364 4.86502 18.27 4.8837 18.27 4.93601C18.27 5.11163 18.1953 5.17889 18.0458 5.17889C17.8814 5.17889 17.8216 4.97712 17.9337 4.73424C18.0047 4.5773 18.1915 4.43158 18.4157 4.43158C18.554 4.43158 18.6661 4.46147 18.6848 4.58851C18.6885 4.6184 18.7371 4.6184 18.752 4.58851L18.8566 4.40542C18.8679 4.38674 18.8492 4.36058 18.8193 4.36058C18.7931 4.36058 18.7333 4.39421 18.696 4.36432C18.61 4.3008 18.4195 4.23727 18.2775 4.23727C18.0458 4.23727 17.7207 4.28959 17.5003 4.67072C17.3022 5.01448 17.5899 5.38066 17.859 5.38066C18.0084 5.38066 18.1803 5.2723 18.2812 5.22747L18.3933 5.3022C18.4083 5.32088 18.4456 5.34704 18.4792 5.34704H18.5204C18.5577 5.34704 18.5727 5.29472 18.5876 5.26109L18.7595 4.85007C18.7632 4.80897 18.752 4.77908 18.6586 4.77908Z" fill="#552583"/>
<path d="M24.6032 4.33442C24.5734 4.34936 24.5061 4.36057 24.4762 4.33442C24.3977 4.2709 24.2483 4.22232 24.1698 4.22232C23.9419 4.22232 23.7775 4.26716 23.6803 4.48014C23.5944 4.66324 23.684 4.81644 23.8821 4.90985C23.968 4.95095 24.0839 5.00326 24.039 5.10789C24.0054 5.18262 23.9157 5.19383 23.8372 5.19009C23.7289 5.19009 23.5682 5.10789 23.5421 4.95469C23.5346 4.90611 23.4748 4.91732 23.4599 4.94348L23.3216 5.21625C23.2992 5.25361 23.3552 5.29472 23.3776 5.26856C23.4225 5.21999 23.5234 5.20878 23.5757 5.23867C23.6429 5.28351 23.8186 5.36571 23.9232 5.36198C24.1549 5.36198 24.3043 5.30219 24.4314 5.10415C24.5472 4.9248 24.4762 4.74544 24.267 4.64455C24.1549 4.59224 24.0614 4.49883 24.11 4.39794C24.1436 4.33068 24.2408 4.34563 24.2894 4.3531C24.3828 4.36805 24.5024 4.45772 24.5173 4.53619C24.5248 4.56982 24.5659 4.5773 24.5846 4.5474L24.6556 4.37926C24.6742 4.34936 24.6219 4.32321 24.6032 4.33442Z" fill="#552583"/>
<path d="M21.5842 4.98833C21.4385 5.17889 21.2442 5.22373 21.0275 5.22373H20.9677L21.3526 4.46521C21.3713 4.43158 21.4124 4.40169 21.4609 4.40169C21.5095 4.40169 21.502 4.30453 21.4385 4.30453H20.8332C20.7809 4.30453 20.7622 4.40169 20.8108 4.40169C20.8631 4.40169 20.8706 4.45773 20.8481 4.50631L20.5044 5.18263C20.482 5.22 20.4446 5.22747 20.3997 5.23868C20.3512 5.25362 20.3138 5.34704 20.3736 5.34704H21.3376C21.4124 5.34704 21.431 5.32088 21.4497 5.29099L21.644 4.99206C21.6702 4.9547 21.6141 4.95096 21.5842 4.98833Z" fill="#552583"/>
<path d="M23.0412 4.3942C23.1757 4.3942 23.2916 4.49135 23.3289 4.59224C23.3364 4.61839 23.4111 4.63708 23.4261 4.60718L23.5083 4.45398C23.5457 4.38673 23.4859 4.30826 23.3887 4.30826H22.2603C22.1781 4.30826 22.2042 4.3942 22.2379 4.3942C22.3089 4.3942 22.3313 4.48388 22.2864 4.55487L21.9464 5.17888C21.8941 5.23866 21.8642 5.26482 21.7895 5.26482C21.7334 5.26482 21.711 5.35076 21.7932 5.35076H22.9329C22.9777 5.35076 23.0001 5.33582 23.0151 5.30966L23.172 5.10415C23.2094 5.05557 23.1272 5.05557 23.1047 5.07799C22.9067 5.27603 22.6975 5.26856 22.5443 5.26856H22.4135L22.5704 4.92106H22.604C22.7049 4.92106 22.8208 4.92106 22.8507 4.99579C22.8581 5.01447 22.9067 5.02942 22.9291 4.99579L23.0636 4.73049C23.0861 4.68939 23.0263 4.68565 23.0076 4.71181C22.9553 4.80522 22.7236 4.77907 22.6638 4.77907H22.6302L22.8245 4.3942H23.0412Z" fill="#552583"/>
<path d="M18.6027 3.48247C18.5167 3.38159 18.3972 3.17234 17.5378 2.42129C16.2748 1.319 14.6008 0.818298 13.0277 0.818298C11.8694 0.818298 10.853 1.07986 9.73207 1.69639C8.30096 2.48481 7.70684 3.38906 7.56112 3.57589C7.45276 3.7104 7.43781 3.78887 7.5088 3.82998C7.55738 3.85987 7.65453 3.75524 7.74421 3.63567C8.17018 3.07145 8.73066 2.5147 9.31731 2.18962C9.5004 2.21578 9.75822 2.46986 9.85537 2.60812C9.47798 2.81363 8.85397 3.28817 8.61483 3.47126C8.40932 3.6282 8.33832 3.71788 8.39437 3.7814C8.43921 3.83371 8.59615 3.72909 8.72693 3.62073C8.95486 3.4339 9.62744 2.95935 9.96 2.78C10.1879 3.04529 10.1132 3.53479 10.0347 3.64315C9.99363 3.6992 9.98615 3.76272 10.0347 3.78887C10.0833 3.81503 10.1319 3.74777 10.1991 3.65436C10.3523 3.43016 10.2926 2.8921 10.158 2.69779C10.5653 2.44744 11.1482 2.27556 11.4995 2.19709C11.5294 2.25314 11.9591 3.50489 12.0375 3.73282C12.0824 3.85613 12.1272 4.00559 12.2169 3.97944C12.2767 3.96076 12.2356 3.82624 12.187 3.68799C12.1235 3.51984 11.8021 2.46986 11.7012 2.15599C11.8171 2.09247 12.5195 1.95048 12.6952 1.95795C12.6092 2.41381 12.9306 2.60438 13.2968 2.84352C13.4911 2.97056 14.7279 3.68051 14.9857 3.84118C15.1314 3.93086 15.2472 3.99065 15.2771 3.94581C15.3145 3.89723 15.2136 3.79261 15.0791 3.71414C14.9707 3.65062 13.8199 2.98551 13.3416 2.67911C12.9978 2.46239 12.8147 2.23072 12.8969 1.92432C13.009 1.89069 13.3565 1.88696 13.7153 1.89069C16.1664 1.90938 18.1319 3.31433 18.3486 3.54226C18.4607 3.65809 18.6139 3.75524 18.6737 3.70667C18.7223 3.6693 18.655 3.54226 18.6027 3.48247ZM10.0609 2.5147C9.99363 2.4026 9.68349 2.11862 9.51534 2.06258C9.90768 1.77112 10.8194 1.35263 11.1669 1.28163C11.2267 1.38252 11.3874 1.80475 11.4397 1.98411C11.1333 2.05137 10.3187 2.34282 10.0609 2.5147ZM12.7363 1.72629C12.4149 1.74497 11.8358 1.87201 11.6302 1.9318C11.5779 1.79354 11.4322 1.3601 11.3836 1.22185C11.974 1.0537 12.6541 0.997654 13.1809 1.04249C13.0389 1.15459 12.7923 1.59924 12.7363 1.72629ZM14.328 1.7076C13.7975 1.67024 13.364 1.65529 12.9829 1.69266C13.0912 1.41615 13.3117 1.15833 13.4836 1.04249C13.846 1.05744 14.2197 1.10975 14.5149 1.16954C15.464 1.35636 16.9362 1.93553 17.5714 2.78747C16.7269 2.21951 15.3182 1.77486 14.328 1.7076Z" fill="black"/>
<path d="M19.133 11.8711C19.2226 11.703 19.2974 11.6095 19.2189 11.5647C19.1479 11.5236 19.0806 11.6805 18.991 11.83C18.7032 12.327 18.3931 12.738 17.6869 13.3807C16.906 14.0944 16.0054 14.5091 15.6916 14.6137C15.4263 13.8664 14.4099 10.6754 14.3838 10.5857C14.3427 10.4512 14.309 10.4101 14.2642 10.4251C14.2119 10.4437 14.2455 10.5185 14.2717 10.638C14.2978 10.7576 15.5085 14.5315 15.5458 14.6623C15.3067 14.7819 14.3315 15.0547 13.6514 15.0771C13.0461 15.0958 12.3324 15.0771 11.9737 14.9949C11.5515 14.6548 10.5949 13.3022 10.2287 12.5811C9.799 11.7329 9.51502 10.9519 9.44403 10.6194C9.4104 10.4624 9.36556 10.3466 9.28335 10.3615C9.19741 10.3765 9.24599 10.5035 9.2983 10.6717C9.42908 11.1088 9.63833 11.7291 10.083 12.6109C10.5575 13.5451 11.402 14.6399 11.6486 14.9388C10.8751 14.7782 9.93725 14.4157 9.04795 13.7506C8.27822 13.1789 7.62058 12.4503 7.28802 11.9159C7.23198 11.8263 7.16472 11.6955 7.08251 11.7515C7.04515 11.7777 7.08999 11.8786 7.14977 11.9832C7.63179 12.8501 8.80881 14.0757 10.3146 14.7483C12.0708 15.5329 13.984 15.4918 15.6953 14.8267C17.1899 14.2476 18.4903 13.0556 19.133 11.8711Z" fill="black"/>
</g>
<defs>
<clipPath id="clip0_876_2918">
<rect width="25.8497" height="16" fill="white" transform="translate(0.719238)"/>
</clipPath>
</defs>
</svg>
