<svg width="41" height="16" viewBox="0 0 41 16" fill="none" xmlns="http://www.w3.org/2000/svg">
<g clip-path="url(#clip0_838_2088)">
<g clip-path="url(#clip1_838_2088)">
<path d="M7.71524 11.8184C7.70964 11.786 7.69525 11.7564 7.67285 11.7328C7.63405 11.6912 7.57725 11.6736 7.51685 11.6844L3.53449 12.4C3.83569 11.4272 4.64688 8.80844 4.90128 8.01125C5.02808 7.61285 5.23127 7.33286 5.52167 7.15526C5.66327 7.06846 5.81327 7.01246 5.96846 6.97086L5.57407 8.46524C5.55967 8.51964 5.57127 8.57484 5.60487 8.61284C5.63807 8.65044 5.68967 8.66724 5.74287 8.65844C5.74487 8.69284 5.75727 8.72484 5.77927 8.74964C5.81287 8.78764 5.86527 8.80484 5.91927 8.79524L6.72766 8.65004C6.80046 8.63684 6.86245 8.57884 6.88165 8.50564L7.53645 5.74687C7.55085 5.69047 7.53845 5.63328 7.50325 5.59328C7.47005 5.55568 7.41965 5.53768 7.36645 5.54408C7.36285 5.51128 7.35005 5.48048 7.32885 5.45648C7.29325 5.41648 7.23805 5.39848 7.18165 5.40848L6.22846 5.57968C5.81727 5.65367 5.33407 5.76527 4.86688 6.03367C4.26568 6.37927 3.83889 6.90366 3.59889 7.59285C3.1177 8.97244 2.45571 10.9216 2.10371 11.9608C2.01651 12.218 1.84331 12.434 1.58932 12.6024C1.33252 12.7724 1.07852 12.838 0.981322 12.8584C0.904523 12.8744 0.840924 12.9376 0.822924 13.0152C0.806124 13.0868 0.778924 13.2396 0.750125 13.402C0.719725 13.5724 0.685325 13.7652 0.664526 13.856C0.651726 13.9108 0.664526 13.9656 0.699325 14.0032C0.732525 14.0396 0.782924 14.056 0.834924 14.0484C0.837724 14.0832 0.850924 14.1152 0.873723 14.14C0.908123 14.1776 0.961322 14.1944 1.01532 14.1844L7.52605 13.0148C7.61965 12.998 7.69924 12.92 7.71924 12.8248L7.88804 12.0312C7.90084 11.97 7.88604 11.9112 7.84724 11.8696C7.81364 11.8336 7.76644 11.8156 7.71524 11.8188V11.8184ZM18.4915 3.6249C18.4579 3.5897 18.4119 3.5713 18.3619 3.5713C18.3543 3.5397 18.3395 3.5113 18.3171 3.4881C18.2751 3.4445 18.2143 3.4261 18.1503 3.4377L15.96 3.8313C14.512 4.09129 13.5848 4.85768 13.2048 6.10847C13.0324 6.67606 12.8008 7.43525 12.5164 8.36644L11.1552 8.61084C11.0616 8.62764 10.9828 8.70564 10.9636 8.80084L10.7964 9.62243C10.7852 9.67683 10.7988 9.72883 10.8336 9.76523C10.8672 9.80083 10.916 9.81603 10.9676 9.80843C10.9704 9.84403 10.984 9.87683 11.0076 9.90203C11.0424 9.93843 11.0928 9.95403 11.146 9.94443L12.0852 9.77563C12.0212 9.98403 11.982 10.1132 11.9776 10.1272C11.7916 10.6976 11.5236 10.9648 11.0528 11.0492L10.6364 11.124C10.5524 11.1392 10.4824 11.2092 10.4656 11.2944L10.3036 12.1152C10.292 12.1732 10.3068 12.2292 10.3444 12.268C10.378 12.3032 10.4252 12.32 10.476 12.3152C10.4808 12.3492 10.4952 12.38 10.5188 12.4044C10.556 12.4436 10.6104 12.46 10.6676 12.4496L11.1148 12.3692C11.7804 12.2496 12.2568 12.0236 12.6144 11.6576C12.928 11.3364 13.1564 10.9012 13.3544 10.2464L13.5524 9.59843C14.1108 9.61163 14.5744 9.75123 14.966 10.0232C14.972 10.0276 14.9784 10.032 14.9844 10.0364C15.3128 10.3208 15.5784 10.7104 15.7916 11.22C15.8184 11.284 15.8828 11.3252 15.9531 11.3272C15.9576 11.3372 15.9615 11.3468 15.966 11.3568C15.9975 11.4324 16.0819 11.4764 16.1667 11.4612L16.9427 11.322C17.0371 11.3052 17.1155 11.2264 17.1339 11.1304L18.5379 3.7953C18.5503 3.7301 18.5335 3.6677 18.4915 3.6241V3.6249ZM16.1683 9.31403C16.0559 9.19883 15.934 9.09324 15.8024 8.99844C15.6056 8.83124 15.3844 8.69004 15.1396 8.57644C14.7816 8.41004 14.3856 8.30684 13.9592 8.26804C14.1632 7.60045 14.3712 6.92166 14.4964 6.51167C14.8468 5.36648 15.888 5.17608 16.3371 5.09528L17.0047 4.97528L16.1679 9.31403H16.1683ZM9.59242 11.48C9.58922 11.4444 9.57522 11.4116 9.55122 11.3864C9.51602 11.35 9.46522 11.3344 9.41162 11.344L8.55563 11.4976C8.44884 11.5168 8.35964 11.6064 8.33884 11.7152L8.18724 12.51C8.17684 12.5644 8.19084 12.6168 8.22604 12.6532C8.25964 12.688 8.30804 12.7036 8.35924 12.6964C8.36244 12.732 8.37644 12.7648 8.40044 12.79C8.43564 12.8264 8.48644 12.842 8.54004 12.8324L9.41483 12.6752C9.51082 12.658 9.59082 12.578 9.60922 12.4804L9.76442 11.6664C9.77482 11.612 9.76082 11.5596 9.72562 11.5232C9.69202 11.4884 9.64362 11.4728 9.59242 11.48ZM40.2041 6.33767C40.1701 6.29287 40.1185 6.26807 40.0617 6.26767C40.0557 6.24327 40.0449 6.22087 40.0301 6.20087C39.9885 6.14607 39.9205 6.12127 39.8485 6.13447L39.3285 6.22767C39.4645 6.06367 39.5825 5.89527 39.6805 5.72407C39.8617 5.40888 39.9733 5.08408 40.0037 4.78568C40.0429 4.39809 39.9473 4.06329 39.7337 3.8433C39.6885 3.7965 39.6357 3.7573 39.5769 3.7253C39.5713 3.7189 39.5653 3.7129 39.5593 3.7065C39.3993 3.5417 39.1521 3.4669 38.8437 3.4901C38.2977 3.5309 37.6177 3.8777 37.1905 4.33289C36.8921 4.65089 36.6721 5.01368 36.5377 5.41088C36.4197 5.75887 36.3749 6.11527 36.4081 6.44127C36.4189 6.54646 36.4413 6.64646 36.4753 6.74046L35.8561 6.85166L36.2349 4.88088C36.2697 4.70049 36.2341 4.54409 36.1345 4.44049C36.0965 4.40089 36.0497 4.37049 35.9977 4.34969C35.9865 4.33329 35.9741 4.31809 35.9605 4.30369C35.8649 4.20409 35.7157 4.16129 35.5609 4.18929L34.5365 4.37329C34.4905 4.23769 34.4073 4.12009 34.2941 4.03409C34.2669 4.01329 34.2385 3.99489 34.2089 3.97849C34.1817 3.94929 34.1521 3.92209 34.1197 3.89729C33.9637 3.7781 33.7637 3.7285 33.5574 3.7569C33.3262 3.7889 33.1114 3.91129 32.9534 4.10129C32.795 4.29129 32.7142 4.52369 32.7258 4.75488C32.7394 5.02368 32.8798 5.24848 33.0946 5.36728C33.1274 5.40288 33.1642 5.43488 33.2038 5.46288C33.1122 5.93607 32.8618 7.23406 32.8426 7.33326C32.8306 7.39526 32.8082 7.39926 32.8006 7.40086L31.8978 7.56325C31.9794 7.13966 32.321 5.36008 32.4014 4.94008C32.4138 4.87528 32.393 4.81408 32.3458 4.77689C32.313 4.75089 32.2718 4.73969 32.229 4.74409C32.2238 4.70249 32.2038 4.66569 32.1714 4.64009C32.1242 4.60249 32.0594 4.59609 31.9982 4.62209L31.173 4.97408C31.1082 5.00168 31.0598 5.06128 31.0466 5.13008L30.8922 5.93367L30.2326 6.05207C30.1318 5.85127 29.9862 5.68687 29.803 5.56888C29.7422 5.51128 29.6754 5.45968 29.603 5.41568C29.3282 5.24848 28.991 5.19448 28.6274 5.25968C28.1394 5.34728 27.6686 5.62248 27.3018 6.03407C26.9294 6.45207 26.6922 6.98366 26.6338 7.53045C26.573 8.10045 26.725 8.60324 27.051 8.91044C27.1034 8.96004 27.1602 9.00364 27.2202 9.04204C27.2218 9.04364 27.2238 9.04564 27.2254 9.04724C27.5122 9.31723 27.9166 9.42163 28.3646 9.34123C28.843 9.25523 29.3034 8.99124 29.6614 8.59764C30.0042 8.22085 30.2382 7.75125 30.3418 7.23486L30.6522 7.17926L30.5118 7.91005C30.4522 8.22085 30.5418 8.39204 30.6274 8.48124C30.6674 8.52284 30.7154 8.55564 30.7686 8.57924C30.7794 8.59364 30.7906 8.60644 30.8018 8.61804C30.9138 8.73484 31.0858 8.78244 31.2738 8.74844L33.2702 8.38964C33.5014 8.34804 33.6805 8.24565 33.8025 8.08565C33.9097 7.94485 33.9489 7.78925 33.9693 7.68445C33.9901 7.57565 34.1337 6.83126 34.3965 5.47168L34.8177 5.39608L34.5045 7.02446C34.4501 7.30846 34.5073 7.55565 34.6657 7.72045C34.7117 7.76805 34.7641 7.80645 34.8201 7.83485C34.8265 7.84245 34.8333 7.85005 34.8401 7.85725C34.9685 7.99085 35.1473 8.05205 35.3181 8.02165L39.8353 7.21006C39.9145 7.19566 39.9857 7.13646 40.0169 7.05846L40.2249 6.53846C40.2533 6.46767 40.2457 6.39247 40.2041 6.33767ZM28.2614 8.13525C28.189 8.14805 28.123 8.14445 28.0642 8.12365C27.9642 7.98245 27.9242 7.75845 27.957 7.50445C28.0074 7.11646 28.2046 6.77046 28.457 6.58886C28.4758 6.85406 28.6082 7.06566 28.8142 7.17686C28.8666 7.23486 28.929 7.28326 28.9998 7.31966C28.8682 7.75365 28.5814 8.07805 28.2614 8.13525ZM38.6677 4.88088C38.6437 5.00448 38.5689 5.25968 38.3385 5.57768C38.1621 5.82087 37.9373 6.04247 37.6681 6.23847C37.6453 5.95527 37.7561 5.55208 38.0113 5.23008C38.2217 4.96488 38.5017 4.80088 38.6821 4.76249C38.6809 4.79488 38.6769 4.83368 38.6677 4.88088ZM19.0399 9.78323C19.0351 9.74883 19.0207 9.71723 18.9971 9.69283C18.9603 9.65443 18.9067 9.63803 18.8499 9.64843L17.9907 9.80283C17.8923 9.82043 17.8103 9.90283 17.7911 10.0028L17.6391 10.8008C17.6283 10.8584 17.6431 10.9132 17.6799 10.9516C17.7135 10.9864 17.7607 11.0028 17.8115 10.998C17.8163 11.0324 17.8307 11.064 17.8543 11.0884C17.8911 11.1268 17.9447 11.1432 18.0015 11.1328L18.8607 10.9784C18.9591 10.9608 19.0411 10.8784 19.0603 10.7784L19.2123 9.98042C19.2231 9.92283 19.2083 9.86803 19.1715 9.82963C19.1379 9.79483 19.0907 9.77843 19.0399 9.78323ZM27.4998 1.99652C27.4662 1.96172 27.4186 1.94532 27.3678 1.95092C27.3634 1.91612 27.349 1.88452 27.3254 1.85972C27.289 1.82172 27.2358 1.80572 27.1798 1.81572L26.3938 1.95692C26.311 1.97172 26.2422 2.04092 26.2258 2.12492L25.3894 6.47567L23.4239 2.78491C23.3935 2.72811 23.3371 2.69411 23.2723 2.69091L23.2495 2.64811C23.2123 2.57811 23.1343 2.54251 23.0515 2.55731L22.2747 2.69691C22.1787 2.71411 22.0983 2.79451 22.0795 2.89251L20.6611 10.2708C20.6507 10.3248 20.6647 10.3768 20.6995 10.4132C20.7331 10.4484 20.7815 10.4636 20.8327 10.456C20.8355 10.492 20.8495 10.5248 20.8739 10.55C20.9087 10.5864 20.9595 10.6016 21.0127 10.592L21.8163 10.4476C21.8951 10.4336 21.9607 10.3676 21.9763 10.2876L22.8139 5.93007L24.7799 9.62083C24.8102 9.67763 24.8666 9.71163 24.9314 9.71443L24.9542 9.75763C24.9914 9.82763 25.069 9.86323 25.1518 9.84843L25.9294 9.70883C26.0254 9.69163 26.1054 9.61123 26.1242 9.51363L27.5406 2.14612C27.5514 2.08932 27.537 2.03492 27.5002 1.99692L27.4998 1.99652ZM31.3354 4.16649C31.4986 4.34289 31.7486 4.43129 32.0222 4.38209C32.4846 4.29889 32.8418 3.8537 32.8186 3.3897C32.805 3.1153 32.661 2.89491 32.4502 2.77771C32.287 2.60131 32.037 2.51291 31.7634 2.56211C31.301 2.64531 30.9438 3.0905 30.967 3.5545C30.9806 3.8289 31.1246 4.04929 31.3354 4.16649Z" fill="#C6213D"/>
<path d="M31.8413 4.1173C32.2341 4.0469 32.5361 3.67011 32.5165 3.27611C32.4969 2.88212 32.1625 2.61972 31.7701 2.69052C31.3773 2.76092 31.0753 3.13771 31.0949 3.53171C31.1145 3.92571 31.4489 4.1881 31.8413 4.1173ZM27.1866 1.94373L26.4006 2.08493C26.3766 2.08933 26.3566 2.10933 26.3518 2.13373L25.4158 7.00207L23.1354 2.72092C23.121 2.69372 23.0906 2.67972 23.0582 2.68532L22.2814 2.82492C22.2438 2.83172 22.2127 2.86292 22.205 2.90132L20.7867 10.2796C20.7811 10.3088 20.8035 10.332 20.8319 10.3268L21.6355 10.1824C21.6555 10.1788 21.6723 10.162 21.6763 10.1416L22.6134 5.26649L24.8938 9.54804C24.9082 9.57524 24.9386 9.58924 24.9706 9.58324L25.7482 9.44364C25.7854 9.43684 25.8166 9.40564 25.8242 9.36764L27.2406 1.99973C27.2474 1.96493 27.2206 1.93733 27.1866 1.94333V1.94373ZM39.8544 6.26248L38.6017 6.48768C39.7852 5.43129 39.9292 4.2849 39.4625 3.80411C39.0261 3.35451 37.8805 3.77371 37.2769 4.4165C36.6733 5.05929 36.4757 5.83528 36.5349 6.41208C36.5517 6.57608 36.5989 6.71687 36.6657 6.83567C36.1357 6.93087 35.7353 7.00287 35.6845 7.01207C35.5185 7.04207 35.5113 6.94047 35.5353 6.81527C35.5593 6.69047 35.8329 5.26729 35.9353 4.7353C35.9969 4.4141 35.7801 4.2793 35.5673 4.3177C35.4257 4.3433 34.7265 4.4689 34.2757 4.5497C34.2777 4.5101 34.2765 4.4697 34.2717 4.4297C34.2305 4.0725 33.9201 3.83611 33.5589 3.88611C33.1517 3.94251 32.8337 4.3281 32.8537 4.7321C32.8693 5.04169 33.0789 5.27009 33.3589 5.31929C33.2609 5.82568 32.9877 7.24047 32.9681 7.34287C32.9441 7.46766 32.8709 7.51806 32.8069 7.52926C32.7429 7.54046 31.9001 7.69206 31.7085 7.72646C31.5213 7.76006 31.5589 7.61966 31.5809 7.50486C31.6005 7.40247 32.0121 5.26089 32.1013 4.7945C32.1089 4.7541 32.0725 4.7249 32.0341 4.7413L31.2089 5.09329C31.1901 5.10129 31.1757 5.11889 31.1717 5.13889L30.9977 6.04368L30.0322 6.21728C29.8606 5.61329 29.3238 5.26369 28.6338 5.38769C27.7026 5.55489 26.8766 6.44488 26.761 7.52806C26.6526 8.54645 27.253 9.24364 28.1842 9.07645C29.1002 8.91205 29.8818 8.07806 30.061 6.98807L30.8434 6.84767L30.6374 7.91926C30.5474 8.38685 30.8334 8.53045 31.0929 8.48405C31.3525 8.43765 32.6469 8.20486 33.0893 8.12526C33.5321 8.04566 33.6305 7.74086 33.6693 7.53926C33.7005 7.37607 34.0025 5.81288 34.1161 5.22529L34.9257 5.07969C34.9677 5.07209 35.0005 5.10609 34.9921 5.14889C34.9313 5.46489 34.7157 6.58687 34.6297 7.03407C34.5293 7.55686 34.8777 7.80366 35.1373 7.75726L39.6544 6.94567C39.6852 6.94007 39.7128 6.91727 39.7248 6.88687L39.9328 6.36688C39.9564 6.30808 39.914 6.25248 39.8544 6.26328V6.26248ZM28.2678 8.26366C27.839 8.34085 27.5818 7.93766 27.6558 7.36727C27.7346 6.76047 28.1326 6.27528 28.5614 6.19808C28.5878 6.19328 28.6138 6.19048 28.639 6.18928C28.6114 6.26768 28.593 6.34848 28.5858 6.43008C28.5502 6.83767 28.8038 7.12567 29.1722 7.13247C29.0622 7.73766 28.6874 8.18846 28.2674 8.26366H28.2678ZM37.5105 6.49168C37.2485 6.24168 37.3437 5.52089 37.7413 5.01969C38.0541 4.6257 38.5549 4.3833 38.7477 4.5309C38.9405 4.6781 38.7281 5.72729 37.5101 6.49168H37.5105ZM3.15767 12.5968C3.14247 12.5996 3.13127 12.5864 3.13607 12.5712C3.24847 12.2076 4.30765 8.78405 4.60605 7.84886C4.91725 6.87247 5.61244 6.72527 6.14483 6.62927C6.16683 6.62527 6.18323 6.64407 6.17763 6.66607L5.69804 8.48365C5.69084 8.51165 5.71164 8.53525 5.73924 8.53045L6.54763 8.38525C6.56523 8.38205 6.58003 8.36805 6.58483 8.35045L7.23922 5.59369C7.24842 5.55969 7.22282 5.53089 7.18882 5.53689L6.23563 5.70809C5.55404 5.83048 4.24525 6.11408 3.71926 7.62246C3.19327 9.13085 2.45648 11.304 2.22448 11.9892C2.00088 12.6496 1.32569 12.9164 0.991692 12.986C0.970493 12.9904 0.952493 13.008 0.947693 13.0296C0.914493 13.1736 0.830894 13.6916 0.789295 13.8704C0.782495 13.9004 0.805294 13.9252 0.834894 13.92L7.34562 12.7504C7.38202 12.744 7.41282 12.7136 7.42042 12.6768L7.58922 11.8832C7.59842 11.8404 7.56562 11.806 7.52362 11.8136L5.02725 12.262L3.15767 12.598V12.5968ZM18.1567 3.56571L15.9663 3.95931C15.0043 4.1321 13.7883 4.6121 13.3264 6.13168C13.1156 6.82447 12.8448 7.71286 12.6108 8.47845L11.1616 8.73885C11.126 8.74525 11.096 8.77485 11.0884 8.81125L10.9212 9.63284C10.9152 9.66124 10.9372 9.68444 10.9652 9.67924L12.318 9.43604C12.1856 9.86964 12.0988 10.152 12.0988 10.152C11.892 10.786 11.57 11.0852 11.0592 11.1768L10.6428 11.2516C10.6172 11.256 10.596 11.2776 10.5908 11.3036L10.4288 12.1244C10.4216 12.1616 10.45 12.1912 10.4864 12.1848L10.9336 12.1044C12.2364 11.8704 12.7132 11.2268 13.058 10.086C13.058 10.086 13.152 9.77804 13.2888 9.33084C14.5355 9.32604 15.3899 9.91524 15.9095 11.1572C15.9207 11.1844 15.9547 11.2024 15.9855 11.1968L16.7615 11.0576C16.7971 11.0512 16.8267 11.0212 16.8339 10.9852L18.2379 3.65011C18.2479 3.59811 18.2079 3.55651 18.1567 3.56571ZM17.1919 4.6669L16.2247 9.68284C15.6339 8.78165 14.6315 8.38765 13.5799 8.38125C13.8091 7.63166 14.0583 6.81767 14.2007 6.35168C14.5803 5.11089 15.7135 4.91049 16.1647 4.8297L17.1735 4.6485C17.1851 4.6465 17.1939 4.6557 17.1919 4.6677V4.6669ZM8.35921 12.5676L9.234 12.4104C9.2712 12.4036 9.302 12.3724 9.3092 12.3348L9.46439 11.5208C9.46999 11.4908 9.4472 11.4668 9.4176 11.472L8.5616 11.6256C8.51361 11.6344 8.47321 11.6748 8.46361 11.7236L8.31201 12.5184C8.30641 12.5484 8.32921 12.5724 8.35881 12.5672L8.35921 12.5676ZM17.8211 10.8676L18.6803 10.7132C18.7199 10.706 18.7531 10.6728 18.7607 10.6328L18.9127 9.83484C18.9195 9.79884 18.8919 9.77004 18.8567 9.77644L17.9975 9.93084C17.9579 9.93804 17.9247 9.97124 17.9171 10.0112L17.7651 10.8092C17.7583 10.8452 17.7859 10.874 17.8211 10.8676Z" fill="#DFA232"/>
<path d="M40.4749 6.84006C40.5273 6.84006 40.5533 6.86206 40.5533 6.90606C40.5533 6.94246 40.5329 6.96366 40.4925 6.96886L40.5585 7.07085H40.5201L40.4573 6.97166H40.4193V7.07085H40.3833V6.84046H40.4745L40.4749 6.84006ZM40.4605 6.94246C40.4825 6.94246 40.4973 6.93966 40.5053 6.93366C40.5133 6.92806 40.5173 6.91806 40.5173 6.90446C40.5173 6.88086 40.5013 6.86926 40.4689 6.86926H40.4193V6.94246H40.4605Z" fill="#C6213D"/>
<path d="M40.4604 7.15407C40.3504 7.15407 40.2612 7.06487 40.2612 6.95487C40.2612 6.84488 40.3504 6.75568 40.4604 6.75568C40.5704 6.75568 40.6596 6.84488 40.6596 6.95487C40.6596 7.06487 40.5704 7.15407 40.4604 7.15407ZM40.4604 6.78728C40.3676 6.78728 40.2924 6.86248 40.2924 6.95527C40.2924 7.04807 40.3676 7.12327 40.4604 7.12327C40.5532 7.12327 40.6284 7.04807 40.6284 6.95527C40.6284 6.86248 40.5532 6.78728 40.4604 6.78728Z" fill="#C6213D"/>
</g>
</g>
<defs>
<clipPath id="clip0_838_2088">
<rect width="40" height="16" fill="white" transform="translate(0.659668)"/>
</clipPath>
<clipPath id="clip1_838_2088">
<rect width="40" height="12.3744" fill="white" transform="translate(0.659668 1.81281)"/>
</clipPath>
</defs>
</svg>
