<svg width="41" height="16" viewBox="0 0 41 16" fill="none" xmlns="http://www.w3.org/2000/svg">
<g clip-path="url(#clip0_795_2134)">
<g clip-path="url(#clip1_795_2134)">
<path d="M0.524414 10.6277V3.33092H2.52519V10.8007H6.05965V12.6685H1.68467L0.897844 11.6949C0.630895 11.348 0.524414 11.028 0.524414 10.6277ZM7.14057 11.1476L9.30152 3.33152H11.5958C12.0229 3.33152 12.289 3.53195 12.4095 3.95848L14.3968 11.1476C14.4899 11.4676 14.5033 11.6809 14.5033 12.0943V12.6679H12.7295L12.0223 9.82688L9.15447 11.2938L8.80789 12.6679H7.03409V12.0943C7.03409 11.6809 7.04722 11.4676 7.14057 11.1476ZM11.929 9.46717L10.8752 5.19897H10.6616L9.60784 9.46717H11.929ZM15.41 10.6277V3.33092H17.4108V10.8007H20.9459V12.6685H16.5712L15.7838 11.6949C15.5171 11.3483 15.4109 11.0283 15.4109 10.6277H15.41ZM22.079 3.33212H24.0798V12.6688H22.079V3.33212ZM25.4402 9.70429V6.2957C25.4402 4.30834 26.5208 3.22772 28.5081 3.22772H29.3838C31.3446 3.22772 32.4515 4.22841 32.4515 6.0022H30.451V5.62877C30.451 5.28219 30.264 5.09517 29.9171 5.09517H27.9745C27.6279 5.09517 27.4409 5.28219 27.4409 5.62907V10.3715C27.4409 10.7184 27.6279 10.9054 27.9745 10.9054H29.9174C30.264 10.9054 30.451 10.7184 30.451 10.3715V9.19813H29.0638V7.33039H31.2913L32.0784 8.30393C32.345 8.63709 32.4515 8.94401 32.4515 9.37113V9.70429C32.4515 11.6916 31.3712 12.7723 29.3838 12.7723H28.5078C26.5205 12.7723 25.4399 11.6916 25.4399 9.70429H25.4402ZM33.1617 11.1476L35.3226 3.33152H37.6169C38.044 3.33152 38.3101 3.53195 38.4306 3.95848L40.4179 11.1476C40.5113 11.4676 40.5244 11.6809 40.5244 12.0943V12.6679H38.7506L38.0434 9.82688L35.1759 11.2938L34.829 12.6679H33.0552V12.0943C33.0552 11.6809 33.0686 11.4676 33.1617 11.1476ZM37.9504 9.46717L36.8963 5.19897H36.6827L35.629 9.46717H37.9504Z" fill="#FF4B44"/>
</g>
</g>
<defs>
<clipPath id="clip0_795_2134">
<rect width="40" height="16" fill="white" transform="translate(0.524414)"/>
</clipPath>
<clipPath id="clip1_795_2134">
<rect width="40" height="9.54455" fill="white" transform="translate(0.524414 3.22772)"/>
</clipPath>
</defs>
</svg>
