<svg width="16" height="16" viewBox="0 0 16 16" fill="none" xmlns="http://www.w3.org/2000/svg">
<g clip-path="url(#clip0_731_28)">
<path d="M0.108704 0.107025V15.8933H15.8951L15.895 0.107025H0.108704Z" fill="white"/>
<path fill-rule="evenodd" clip-rule="evenodd" d="M0.108704 15.8933V0.107025H15.8949L15.895 15.8933H0.108704ZM14.5239 8.18285C14.6621 7.77343 14.8187 7.16063 14.8444 6.6688C14.8641 6.29778 14.8141 5.77814 14.4642 5.40889C14.185 5.11387 13.7584 4.96498 13.1963 4.96498C12.4861 4.96498 11.9139 5.21565 11.4953 5.71138L11.3848 5.84169L11.3114 5.68756C11.2515 5.56196 11.2086 5.51049 11.1434 5.43689C10.8572 5.11316 10.3774 4.94907 9.71724 4.94916C9.11244 4.94916 8.56613 5.1304 8.17875 5.45956L8.0807 5.54285L8.01315 5.43289C7.83021 5.13556 7.37421 4.94311 6.85181 4.94311C6.10017 4.94329 5.34177 5.04534 4.88426 5.78285L4.69466 6.0872L4.67981 5.72871C4.66826 5.45138 4.64293 5.33618 4.51395 5.19965C4.37208 5.04916 4.13333 4.976 3.78417 4.97627C3.27146 4.97627 2.88613 5.19983 2.60586 5.66018C2.17448 6.34925 1.13181 8.61574 1.15484 9.69298C1.16995 10.3921 1.63644 10.82 2.4031 10.8377C3.03493 10.853 3.53715 10.6908 3.85617 10.3689L3.93759 10.2866L4.01581 10.3712C4.30257 10.6825 4.73848 10.854 5.24346 10.854C5.88648 10.854 6.43635 10.6542 6.75217 10.3055L6.83839 10.2105L6.91946 10.3101C7.2151 10.6733 7.67199 10.8637 8.24061 10.8614C8.98221 10.8581 9.67484 10.5173 10.1407 9.92703L10.2628 9.77227L10.331 9.95743C10.6181 10.7381 11.3963 10.8545 11.8351 10.8548C13.3253 10.8548 13.9689 9.83227 14.5239 8.18285Z" fill="#FFED00"/>
<path fill-rule="evenodd" clip-rule="evenodd" d="M0.108704 15.8933V0.107025H15.8949L15.895 15.8933H0.108704ZM14.6227 9.33849C14.8291 8.91325 15.2172 7.84898 15.289 7.27431L15.2898 7.268C15.3772 6.56649 15.46 5.90267 14.9867 5.24303C14.6501 4.77423 14.0767 4.45965 13.2043 4.45956C12.5448 4.45956 11.9558 4.63823 11.4849 5.02987C11.0816 4.63076 10.5032 4.4496 9.7247 4.44978C9.11555 4.44978 8.60426 4.58907 8.15901 4.85636C7.83581 4.59956 7.45644 4.43911 6.85199 4.43911C6.30408 4.43903 5.53484 4.46756 4.95448 4.96027C4.82035 4.68658 4.54764 4.47165 3.79537 4.47165C3.10239 4.47165 2.53706 4.79947 2.1663 5.40809C1.67128 6.19876 0.620526 8.48205 0.64737 9.72934C0.66737 10.6683 1.37146 11.3151 2.39137 11.3394C3.00426 11.3537 3.52621 11.2225 3.92453 10.9581C4.2847 11.2177 4.74497 11.3579 5.25644 11.3579C5.86853 11.358 6.4207 11.1972 6.83013 10.9087C7.20106 11.2028 7.68773 11.3617 8.2383 11.3617C8.95261 11.362 9.61635 11.1153 10.1525 10.646C10.5182 11.1124 11.1447 11.3548 11.9055 11.3548C13.3298 11.3549 14.0696 10.4789 14.6227 9.33849Z" fill="#E3000B"/>
<path fill-rule="evenodd" clip-rule="evenodd" d="M0 16V0H16L15.9997 15.9997L0 16ZM15.7796 15.7796L15.7797 0.220267H0.220089L0.220444 15.7796L15.7796 15.7796Z" fill="black"/>
<path fill-rule="evenodd" clip-rule="evenodd" d="M14.8991 4.82674C14.899 4.7764 14.9089 4.72653 14.9281 4.68C14.9473 4.63346 14.9755 4.59118 15.0111 4.55557C15.0467 4.51995 15.0889 4.49171 15.1354 4.47245C15.1819 4.4532 15.2318 4.44331 15.2821 4.44336C15.3325 4.44327 15.3824 4.45312 15.429 4.47235C15.4756 4.49158 15.5179 4.51981 15.5535 4.55543C15.5891 4.59105 15.6174 4.63334 15.6366 4.6799C15.6559 4.72646 15.6658 4.77636 15.6657 4.82674C15.6658 4.87712 15.6559 4.92703 15.6367 4.97359C15.6174 5.02015 15.5892 5.06245 15.5535 5.09807C15.5179 5.13368 15.4756 5.16191 15.429 5.18112C15.3824 5.20033 15.3325 5.21016 15.2821 5.21003C15.2318 5.21011 15.1819 5.20025 15.1354 5.18101C15.0889 5.16178 15.0466 5.13354 15.011 5.09793C14.9754 5.06232 14.9472 5.02003 14.928 4.97349C14.9088 4.92695 14.899 4.87708 14.8991 4.82674ZM15.2823 4.51945C15.4528 4.51954 15.5914 4.65678 15.5909 4.82727C15.5914 4.99776 15.4523 5.13545 15.2823 5.13545C15.2419 5.13539 15.2019 5.12737 15.1646 5.11185C15.1273 5.09632 15.0935 5.0736 15.065 5.04498C15.0365 5.01636 15.0139 4.9824 14.9985 4.94504C14.9831 4.90769 14.9753 4.86767 14.9754 4.82727C14.9752 4.78687 14.983 4.74684 14.9984 4.70947C15.0137 4.6721 15.0363 4.63814 15.0648 4.60953C15.0934 4.58092 15.1273 4.55824 15.1646 4.54278C15.2019 4.52732 15.2419 4.51939 15.2823 4.51945ZM15.4316 4.947L15.4773 5.027L15.3781 5.02763L15.3463 4.96274C15.3322 4.93433 15.3139 4.90815 15.2922 4.88505C15.2765 4.86878 15.2622 4.86469 15.2269 4.86469L15.2124 4.86478L15.2122 5.02745H15.1303V4.63038H15.3281C15.4133 4.63038 15.4533 4.67794 15.4533 4.74087C15.4535 4.80087 15.413 4.84398 15.346 4.85198L15.3461 4.8542C15.3802 4.86603 15.3915 4.87714 15.4316 4.947ZM15.2121 4.69207V4.80114H15.295C15.3505 4.80114 15.3688 4.77412 15.368 4.74603C15.368 4.711 15.3402 4.6918 15.2861 4.6918L15.2121 4.69207ZM11.4103 5.63998C11.7968 5.1822 12.3687 4.85429 13.1957 4.85429C14.6273 4.85429 15.0018 5.79029 14.9549 6.67474C14.927 7.20629 14.7565 7.83954 14.629 8.21829C14.0628 9.90105 13.3828 10.9651 11.8352 10.965C11.129 10.9651 10.4827 10.6896 10.228 9.99536C9.76285 10.584 9.05192 10.9682 8.24134 10.9722C7.62179 10.9752 7.14001 10.7562 6.83379 10.3802C6.47023 10.7814 5.85503 10.9651 5.24356 10.9653C4.69423 10.965 4.23556 10.7736 3.9345 10.4466C3.59903 10.785 3.07192 10.9645 2.40054 10.9488C1.54054 10.9282 1.0601 10.4122 1.04427 9.69589C1.02063 8.58709 2.07663 6.29803 2.51192 5.603C2.81236 5.10994 3.2297 4.86789 3.78392 4.86763C4.08819 4.86789 4.40063 4.92078 4.59379 5.1254C4.75263 5.2934 4.77814 5.44274 4.78988 5.7254C5.27699 4.94052 6.09796 4.83385 6.85121 4.83403C7.42756 4.83403 7.90596 5.04976 8.10667 5.37589C8.49299 5.04754 9.04934 4.83918 9.71672 4.83918C10.3998 4.83927 10.9087 5.00594 11.2255 5.36434C11.2954 5.443 11.3451 5.50309 11.4103 5.63998ZM3.87468 9.50354C3.9001 9.23545 3.6993 8.94594 2.89814 9.08496C2.9777 8.90674 3.09601 8.66247 3.23032 8.38514C3.66072 7.49643 4.25547 6.26834 4.26667 5.78789C4.27272 5.551 4.17725 5.35349 3.79308 5.35367C3.38721 5.35349 3.13263 5.52327 2.9241 5.86585C2.47183 6.58807 1.51139 8.76674 1.53156 9.70843C1.54294 10.2467 1.96027 10.4592 2.42401 10.47C3.06312 10.4849 3.7993 10.3054 3.87476 9.50345L3.87468 9.50354ZM5.50579 8.34532C5.45245 8.48878 5.35219 8.78923 5.27121 9.10718C5.53414 9.04158 5.73103 8.99616 6.06854 9.00398C6.45334 9.0134 6.69956 9.17269 6.69939 9.49109C6.69939 10.2621 5.84667 10.4886 5.25583 10.4888C4.60641 10.4888 4.03592 10.1194 4.03592 9.40932C4.03592 8.57678 4.48712 7.31438 4.91059 6.47394C5.43041 5.4414 5.96187 5.30425 6.87681 5.30425C7.27912 5.30425 7.74223 5.47598 7.74223 5.85572C7.74223 6.38212 7.29707 6.58283 6.85485 6.60825C6.66579 6.61909 6.37539 6.62949 6.2017 6.61705C6.2017 6.61705 6.05405 6.84149 5.89805 7.2406C6.71654 7.1254 7.06392 7.31127 6.92579 7.7846C6.73876 8.42452 6.18427 8.46674 5.5057 8.34523L5.50579 8.34532ZM9.05814 6.64629C9.16614 6.49492 9.31059 6.35474 9.53219 6.35474C9.80374 6.35474 9.77743 6.49838 9.71299 6.68194C9.52996 7.2046 10.0827 7.21838 10.2176 7.20772C10.7001 7.17012 10.966 6.85838 11.0314 6.32736C11.121 5.60434 10.5118 5.32674 9.73965 5.32674C8.45254 5.32674 7.9473 6.11394 7.46534 7.23927C7.23894 7.76789 6.95379 8.67127 6.95388 9.24656C6.95379 10.0546 7.44543 10.4927 8.23779 10.4927C9.39485 10.4927 10.2125 9.57003 10.4461 8.42043C10.518 8.06665 10.6066 7.40274 9.70792 7.43972C9.25174 7.45856 8.97654 7.55918 8.83147 8.02532C8.68214 8.50549 9.22374 8.51856 9.22374 8.51856C9.11476 9.015 8.79574 9.31598 8.51147 9.31625C8.33405 9.31625 8.17263 9.23927 8.22668 8.8638C8.30694 8.31483 8.82107 6.97954 9.05814 6.64629ZM14.393 7.30469C14.2565 7.98203 13.9507 8.7838 13.6184 9.38123C13.0762 10.3558 12.4185 10.4923 11.8435 10.485C11.2688 10.4782 10.6209 10.2663 10.616 9.37936C10.6125 8.74292 10.8869 7.84407 11.1201 7.25554C11.5268 6.18798 11.9415 5.31732 13.2543 5.33287C14.7848 5.35074 14.5118 6.71207 14.393 7.30469ZM12.4732 9.04132C12.686 8.68087 13.285 7.04594 13.3013 6.63714C13.3061 6.51803 13.2865 6.37936 13.0945 6.37714C12.9629 6.37527 12.8484 6.40078 12.7454 6.5598C12.5141 6.86043 11.8371 8.70958 11.8485 9.07847C11.8527 9.21109 11.9268 9.32692 12.0896 9.32692C12.2772 9.32709 12.3811 9.19803 12.4732 9.04132Z" fill="black"/>
</g>
<defs>
<clipPath id="clip0_731_28">
<rect width="16" height="16" fill="white"/>
</clipPath>
</defs>
</svg>
