<svg width="64" height="64" viewBox="0 0 64 64" fill="none" xmlns="http://www.w3.org/2000/svg">
<g clip-path="url(#clip0_731_28)">
<path d="M0.434845 0.428101V63.5733H63.5804L63.5801 0.428101H0.434845Z" fill="white"/>
<path fill-rule="evenodd" clip-rule="evenodd" d="M0.434845 63.5733V0.428101H63.5797L63.5801 63.5733H0.434845ZM58.0956 32.7314C58.6485 31.0937 59.2747 28.6425 59.3778 26.6752C59.4564 25.1911 59.2565 23.1125 57.8567 21.6356C56.7399 20.4555 55.0336 19.8599 52.7851 19.8599C49.9445 19.8599 47.6558 20.8626 45.9812 22.8455L45.5392 23.3668L45.2455 22.7502C45.0059 22.2478 44.8345 22.042 44.5735 21.7476C43.429 20.4526 41.5097 19.7963 38.869 19.7966C36.4498 19.7966 34.2645 20.5216 32.715 21.8382L32.3228 22.1714L32.0526 21.7316C31.3209 20.5422 29.4969 19.7725 27.4073 19.7725C24.4007 19.7732 21.3671 20.1813 19.5371 23.1314L18.7787 24.3488L18.7193 22.9149C18.6731 21.8055 18.5717 21.3447 18.0558 20.7986C17.4884 20.1966 16.5333 19.904 15.1367 19.9051C13.0859 19.9051 11.5445 20.7993 10.4235 22.6407C8.69796 25.397 4.52729 34.4629 4.61938 38.7719C4.67982 41.5684 6.54578 43.28 9.61244 43.3508C12.1397 43.4119 14.1486 42.7634 15.4247 41.4756L15.7504 41.1463L16.0633 41.4848C17.2103 42.73 18.954 43.4162 20.9739 43.4162C23.546 43.4162 25.7454 42.6169 27.0087 41.2221L27.3536 40.842L27.6779 41.2405C28.8604 42.6933 30.688 43.4549 32.9625 43.4457C35.9289 43.4325 38.6994 42.0693 40.5628 39.7081L41.0514 39.0891L41.3241 39.8297C42.4725 42.9525 45.5851 43.418 47.3404 43.419C53.3013 43.419 55.8755 39.3291 58.0956 32.7314Z" fill="#FFED00"/>
<path fill-rule="evenodd" clip-rule="evenodd" d="M0.434845 63.5733V0.428101H63.5797L63.5801 63.5733H0.434845ZM58.491 37.354C59.3163 35.653 60.869 31.3959 61.1559 29.0973L61.1591 29.072C61.509 26.266 61.84 23.6107 59.9467 20.9721C58.6005 19.0969 56.3068 17.8386 52.8171 17.8382C50.1792 17.8382 47.8233 18.5529 45.9396 20.1195C44.3264 18.523 42.0128 17.7984 38.8988 17.7991C36.4622 17.7991 34.4171 18.3563 32.6361 19.4254C31.3433 18.3982 29.8258 17.7565 27.408 17.7565C25.2164 17.7561 22.1394 17.8702 19.818 19.8411C19.2814 18.7463 18.1906 17.8866 15.1815 17.8866C12.4096 17.8866 10.1483 19.1979 8.66524 21.6324C6.68516 24.795 2.48213 33.9282 2.58951 38.9173C2.66951 42.6731 5.48587 45.2605 9.56551 45.3575C12.0171 45.4148 14.1049 44.89 15.6981 43.8325C17.1388 44.8708 18.9799 45.4315 21.0258 45.4315C23.4741 45.4318 25.6828 44.789 27.3205 43.6349C28.8043 44.811 30.7509 45.4468 32.9532 45.4468C35.8105 45.4478 38.4654 44.4612 40.6101 42.5842C42.0729 44.4494 44.5788 45.419 47.622 45.4194C53.3191 45.4197 56.2784 41.9157 58.491 37.354Z" fill="#E3000B"/>
<path fill-rule="evenodd" clip-rule="evenodd" d="M0 64V0H64L63.9989 63.9989L0 64ZM63.1182 63.1186L63.1189 0.881067H0.880356L0.881778 63.1182L63.1182 63.1186Z" fill="black"/>
<path fill-rule="evenodd" clip-rule="evenodd" d="M59.5964 19.307C59.5961 19.1056 59.6354 18.9062 59.7123 18.72C59.7891 18.5339 59.9019 18.3648 60.0443 18.2223C60.1866 18.0799 60.3556 17.9669 60.5417 17.8899C60.7277 17.8129 60.9272 17.7733 61.1285 17.7735C61.3301 17.7731 61.5297 17.8125 61.7159 17.8895C61.9022 17.9664 62.0714 18.0793 62.214 18.2218C62.3565 18.3642 62.4695 18.5334 62.5465 18.7197C62.6235 18.9059 62.663 19.1055 62.6628 19.307C62.6631 19.5085 62.6237 19.7082 62.5467 19.8944C62.4697 20.0807 62.3567 20.2499 62.2142 20.3923C62.0716 20.5348 61.9023 20.6477 61.716 20.7245C61.5297 20.8014 61.3301 20.8407 61.1285 20.8402C60.9272 20.8405 60.7277 20.8011 60.5416 20.7241C60.3555 20.6472 60.1864 20.5342 60.0441 20.3918C59.9017 20.2493 59.7889 20.0802 59.7121 19.894C59.6353 19.7079 59.596 19.5084 59.5964 19.307ZM61.1292 18.0779C61.8112 18.0782 62.3655 18.6272 62.3637 19.3091C62.3655 19.9911 61.8091 20.5419 61.1292 20.5419C60.9677 20.5416 60.8077 20.5095 60.6585 20.4474C60.5094 20.3854 60.3739 20.2945 60.2599 20.18C60.1458 20.0655 60.0555 19.9297 59.994 19.7802C59.9325 19.6308 59.9011 19.4707 59.9015 19.3091C59.9008 19.1476 59.9321 18.9874 59.9935 18.8379C60.0549 18.6885 60.1452 18.5526 60.2593 18.4382C60.3734 18.3238 60.509 18.233 60.6583 18.1712C60.8076 18.1093 60.9677 18.0776 61.1292 18.0779ZM61.7262 19.7881L61.9093 20.1081L61.5122 20.1106L61.3852 19.851C61.3287 19.7374 61.2557 19.6327 61.1687 19.5403C61.1061 19.4752 61.0489 19.4588 60.9077 19.4588L60.8494 19.4592L60.8487 20.1099H60.5212V18.5216H61.3124C61.6533 18.5216 61.8133 18.7118 61.8133 18.9635C61.8141 19.2035 61.6519 19.376 61.3838 19.408L61.3845 19.4169C61.5207 19.4642 61.5659 19.5086 61.7262 19.7881ZM60.8484 18.7683V19.2046H61.1801C61.402 19.2046 61.4752 19.0965 61.472 18.9842C61.472 18.8441 61.3607 18.7673 61.1445 18.7673L60.8484 18.7683ZM45.6412 22.56C47.1872 20.7289 49.4748 19.4172 52.7829 19.4172C58.5092 19.4172 60.0071 23.1612 59.8194 26.699C59.7081 28.8252 59.0258 31.3582 58.5159 32.8732C56.251 39.6043 53.531 43.8606 47.3408 43.8599C44.5159 43.8606 41.9307 42.7584 40.912 39.9815C39.0514 42.336 36.2076 43.8727 32.9653 43.8887C30.4871 43.9008 28.56 43.0251 27.3351 41.5207C25.8809 43.1257 23.4201 43.8606 20.9742 43.8613C18.7769 43.8599 16.9422 43.0944 15.738 41.7867C14.3961 43.1399 12.2876 43.8581 9.60214 43.7952C6.16214 43.7127 4.24036 41.6487 4.17707 38.7836C4.08249 34.3484 8.30649 25.1922 10.0476 22.4121C11.2494 20.4398 12.9188 19.4716 15.1356 19.4706C16.3527 19.4716 17.6025 19.6832 18.3751 20.5017C19.0105 21.1737 19.1125 21.771 19.1595 22.9017C21.1079 19.7621 24.3918 19.3355 27.4048 19.3362C29.7102 19.3362 31.6238 20.1991 32.4267 21.5036C33.9719 20.1902 36.1973 19.3568 38.8668 19.3568C41.5993 19.3571 43.6348 20.0238 44.902 21.4574C45.1815 21.7721 45.3803 22.0124 45.6412 22.56ZM15.4987 38.0142C15.6004 36.9419 14.7972 35.7838 11.5925 36.3399C11.9108 35.627 12.384 34.6499 12.9212 33.5406C14.6428 29.9858 17.0219 25.0734 17.0667 23.1516C17.0908 22.2041 16.709 21.414 15.1723 21.4147C13.5488 21.414 12.5305 22.0931 11.6964 23.4635C9.88729 26.3523 6.04551 35.067 6.12622 38.8338C6.17174 40.987 7.84107 41.8368 9.696 41.8802C12.2524 41.9395 15.1972 41.2217 15.499 38.0139L15.4987 38.0142ZM22.0231 33.3813C21.8098 33.9552 21.4087 35.157 21.0848 36.4288C22.1365 36.1664 22.9241 35.9847 24.2741 36.016C25.8133 36.0537 26.7982 36.6908 26.7975 37.9644C26.7975 41.0485 23.3867 41.9545 21.0233 41.9552C18.4256 41.9552 16.1436 40.4779 16.1436 37.6373C16.1436 34.3072 17.9484 29.2576 19.6423 25.8958C21.7216 21.7657 23.8475 21.2171 27.5072 21.2171C29.1164 21.2171 30.9689 21.904 30.9689 23.4229C30.9689 25.5285 29.1883 26.3314 27.4194 26.4331C26.6631 26.4764 25.5015 26.518 24.8068 26.4683C24.8068 26.4683 24.2162 27.366 23.5922 28.9625C26.8661 28.5017 28.2556 29.2451 27.7031 31.1385C26.955 33.6981 24.7371 33.867 22.0228 33.381L22.0231 33.3813ZM36.2325 26.5852C36.6645 25.9797 37.2423 25.419 38.1287 25.419C39.2149 25.419 39.1097 25.9936 38.8519 26.7278C38.1198 28.8185 40.3307 28.8736 40.8704 28.8309C42.8004 28.6805 43.8638 27.4336 44.1255 25.3095C44.4839 22.4174 42.0473 21.307 38.9586 21.307C33.8101 21.307 31.7892 24.4558 29.8613 28.9571C28.9557 31.0716 27.8151 34.6851 27.8155 36.9863C27.8151 40.2183 29.7817 41.9708 32.9511 41.9708C37.5794 41.9708 40.8498 38.2802 41.7842 33.6818C42.0718 32.2667 42.4263 29.611 38.8316 29.7589C37.0069 29.8343 35.9061 30.2368 35.3259 32.1013C34.7285 34.022 36.8949 34.0743 36.8949 34.0743C36.459 36.0601 35.1829 37.264 34.0459 37.2651C33.3362 37.2651 32.6905 36.9571 32.9067 35.4553C33.2277 33.2594 35.2843 27.9182 36.2325 26.5852ZM57.5719 29.2188C57.0258 31.9282 55.8027 35.1353 54.4736 37.525C52.3047 41.4233 49.674 41.9694 47.3739 41.9403C45.0752 41.9129 42.4836 41.0652 42.464 37.5175C42.4501 34.9717 43.5477 31.3763 44.4804 29.0222C46.107 24.752 47.766 21.2693 53.0172 21.3315C59.1392 21.403 58.0473 26.8483 57.5719 29.2188ZM49.8926 36.1653C50.7438 34.7235 53.1399 28.1838 53.2053 26.5486C53.2245 26.0722 53.146 25.5175 52.378 25.5086C51.8514 25.5011 51.3934 25.6032 50.9817 26.2393C50.0565 27.4418 47.3483 34.8384 47.3941 36.3139C47.4108 36.8444 47.707 37.3077 48.3584 37.3077C49.1086 37.3084 49.5243 36.7922 49.8926 36.1653Z" fill="black"/>
</g>
<defs>
<clipPath id="clip0_731_28">
<rect width="64" height="64" fill="white"/>
</clipPath>
</defs>
</svg>
