<svg width="121" height="64" viewBox="0 0 121 64" fill="none" xmlns="http://www.w3.org/2000/svg">
<g clip-path="url(#clip0_743_339)">
<g clip-path="url(#clip1_743_339)">
<path fill-rule="evenodd" clip-rule="evenodd" d="M93.0661 17H118.632C119.856 17 120.805 17.9671 120.805 19.1586V44.84C120.805 46.0329 119.499 47 118.275 47H92.709C91.4861 47 90.8047 46.0329 90.8047 44.84V19.1586C90.8047 17.9671 91.8433 17 93.0661 17ZM106.272 28.4286H102.233V42.7143H106.519V35.8529C106.519 33.4586 107.546 32 109.7 32C111.475 32 112.233 33.6671 112.233 35.5671V42.7143H116.519V34.7857C116.519 30.5414 115.315 28.25 110.999 28.25C108.75 28.25 106.932 29.3771 106.316 30.4871H106.272V28.4286ZM97.2333 26.1071C98.7133 26.1071 99.9118 24.9086 99.9118 23.4286C99.9118 21.9486 98.7133 20.75 97.2333 20.75C95.7533 20.75 94.5547 21.9486 94.5547 23.4286C94.5547 24.9086 95.7533 26.1071 97.2333 26.1071ZM99.3761 28.4286V42.7143H95.0904V28.4286H99.3761Z" fill="#0A66C2"/>
<path d="M86.5189 42.7143H82.5189V41.0128H82.476C81.586 42.0443 80.0403 42.8928 77.4203 42.8928C73.8489 42.8928 70.7732 40.2057 70.7732 35.5871C70.7732 31.1871 73.8046 28.25 77.5546 28.25C79.876 28.25 81.3175 29.0757 82.1903 30.13H82.2332V21.2857H86.5189V42.7143ZM78.6318 31.4643C76.1818 31.4643 74.8046 33.2114 74.8046 35.5343C74.8046 37.8586 76.1818 39.6786 78.6318 39.6786C81.0846 39.6786 82.5189 37.9057 82.5189 35.5343C82.5189 33.0971 81.0846 31.4643 78.6318 31.4643Z" fill="#0A66C2"/>
<path d="M68.892 40.4127C67.8806 41.7227 65.7977 42.8927 62.4349 42.8927C57.9477 42.8927 55.0906 39.9227 55.0906 35.2541C55.0906 31.107 57.6791 28.2498 62.5606 28.2498C66.7763 28.2498 69.3763 31.0184 69.3763 35.8884C69.3763 36.3756 69.2977 36.857 69.2977 36.857H59.1349L59.1591 37.2984C59.4406 38.5298 60.3706 40.0356 62.5049 40.0356C64.3677 40.0356 65.6449 39.0341 66.222 38.2498L68.892 40.4127ZM65.252 34.1427C65.2806 32.6356 64.1749 31.107 62.432 31.107C60.3577 31.107 59.2506 32.727 59.1349 34.1427H65.252Z" fill="#0A66C2"/>
<path d="M55.0904 28.4286H50.0904L45.0904 34.1428V21.2857H40.8047V42.7143H45.0904V35.5714L50.3747 42.7143H55.4347L49.3761 34.9043L55.0904 28.4286Z" fill="#0A66C2"/>
<path d="M23.6619 28.4286H27.7004V30.4871H27.7447C28.3604 29.3771 30.179 28.25 32.4276 28.25C36.7433 28.25 37.9476 30.9886 37.9476 34.7857V42.7143H33.6619V35.5671C33.6619 33.4643 32.9033 32 31.129 32C28.9747 32 27.9476 33.7057 27.9476 35.8529V42.7143H23.6619V28.4286Z" fill="#0A66C2"/>
<path d="M16.5189 42.7143H20.8046V28.4286H16.5189V42.7143ZM18.6632 26C20.0832 26 21.2332 24.8486 21.2332 23.4286C21.2332 22.0086 20.0832 20.8571 18.6632 20.8571C17.2446 20.8571 16.0903 22.0086 16.0903 23.4286C16.0903 24.8486 17.2446 26 18.6632 26Z" fill="#0A66C2"/>
<path d="M5.0904 21.2857H0.804688V42.7143H13.6618V38.4286H5.0904V21.2857Z" fill="#0A66C2"/>
</g>
</g>
<defs>
<clipPath id="clip0_743_339">
<rect width="120" height="64" fill="white" transform="translate(0.804688)"/>
</clipPath>
<clipPath id="clip1_743_339">
<rect width="120" height="30" fill="white" transform="translate(0.804688 17)"/>
</clipPath>
</defs>
</svg>
