<svg width="12" height="16" viewBox="0 0 12 16" fill="none" xmlns="http://www.w3.org/2000/svg">
<g clip-path="url(#clip0_795_1668)">
<path d="M8.45332 13.8458C8.3422 13.8657 8.2351 13.882 8.13012 13.8983C7.36182 14.0219 6.56833 14.1487 5.86817 14.779C5.16823 14.1491 4.37517 14.0217 3.60665 13.8991C3.50273 13.8828 3.395 13.8659 3.28388 13.8464C0.932187 13.4466 0.934515 12.7526 0.933034 11.3182L0.934304 0.909046H10.801L10.8042 11.3193C10.7965 12.7519 10.8042 13.4466 8.45332 13.8458ZM0.483692 0.455259L0.482422 11.3237C0.482422 12.1036 0.484115 12.7185 0.865516 13.2402C1.24692 13.762 1.94855 14.079 3.20853 14.2924C3.32226 14.3123 3.4314 14.3303 3.53596 14.3463C4.27188 14.4642 4.96695 14.5756 5.56784 15.1176L5.86817 15.3881L6.1683 15.1176C6.7694 14.5751 7.46447 14.4642 8.20018 14.3463L8.23616 14.3408C8.33162 14.3258 8.42834 14.3104 8.5274 14.293C9.78378 14.0797 10.4822 13.767 10.8645 13.2462C11.2467 12.7253 11.2501 12.1168 11.2541 11.3438L11.2508 0.455048L0.483692 0.455259Z" fill="#C39F6C"/>
<path d="M2.92887 2.86665H2.61308V2.28757H2.41455V3.03492H2.92887V2.86665Z" fill="#C39F6C"/>
<path d="M3.35173 2.45243C3.4764 2.45243 3.5473 2.54365 3.5473 2.66112C3.5473 2.77859 3.4764 2.87087 3.35173 2.87087C3.22707 2.87087 3.15659 2.77859 3.15659 2.66112C3.15659 2.54365 3.22749 2.45243 3.35173 2.45243ZM3.35173 3.04506C3.56572 3.04506 3.75028 2.88717 3.75028 2.66154C3.75028 2.43592 3.56572 2.2793 3.35173 2.2793C3.13775 2.2793 2.95361 2.43634 2.95361 2.66154C2.95361 2.88674 3.13796 3.04506 3.35173 3.04506Z" fill="#C39F6C"/>
<path d="M4.0628 2.87976C3.98894 2.87976 3.94449 2.84356 3.90809 2.79848L3.76416 2.90748C3.81009 2.96886 3.90406 3.0459 4.07191 3.0459C4.26832 3.0459 4.35319 2.946 4.35319 2.8097C4.35319 2.70387 4.30324 2.63276 4.15487 2.58323L4.05688 2.55021C4.02047 2.53793 4.00396 2.52375 4.00396 2.49518C4.00396 2.46661 4.0283 2.44375 4.07635 2.44375C4.09943 2.443 4.12239 2.44744 4.14352 2.45674C4.16466 2.46605 4.18344 2.47998 4.19847 2.49751L4.31213 2.3775C4.26832 2.32607 4.19636 2.27887 4.06534 2.27887C3.93433 2.27887 3.81242 2.35485 3.81242 2.50174C3.81242 2.62471 3.88882 2.69075 3.99677 2.72715L4.08376 2.75657C4.13307 2.77351 4.15678 2.78874 4.15678 2.82007C4.15678 2.8624 4.12207 2.87997 4.06302 2.87997" fill="#C39F6C"/>
<path d="M4.89705 2.64802L4.97304 2.82136H4.82276L4.89705 2.64802ZM4.75905 2.97122H5.03907L5.06722 3.03471H5.27253L4.91271 2.27487C4.90954 2.26747 4.90298 2.26747 4.8998 2.27487L4.53809 3.03471H4.7326L4.75905 2.97122Z" fill="#C39F6C"/>
<path d="M5.52848 2.66217L5.99412 3.04802C6.00597 3.05797 6.00893 3.05458 6.00893 3.0459V2.28733H5.82246V2.66217L5.35682 2.27548C5.34497 2.26553 5.3418 2.27104 5.3418 2.27781V3.03468H5.52848V2.66217Z" fill="#C39F6C"/>
<path d="M6.50094 3.04464C6.66603 3.04464 6.75492 2.9985 6.82413 2.94115V2.62917H6.5003V2.78304H6.64846V2.84654C6.60332 2.86856 6.55346 2.87917 6.50327 2.87744C6.37204 2.87744 6.30495 2.77923 6.30495 2.66176C6.30495 2.54429 6.37141 2.45286 6.49289 2.45286C6.52449 2.45212 6.5558 2.459 6.58417 2.47293C6.61254 2.48685 6.63713 2.50741 6.65587 2.53286L6.79598 2.41286C6.73122 2.32819 6.62899 2.27994 6.49797 2.27994C6.28399 2.27994 6.10303 2.43677 6.10303 2.66219C6.10303 2.8876 6.28399 3.0457 6.50284 3.0457" fill="#C39F6C"/>
<path d="M7.45882 2.86665H7.12229V2.78855H7.39067V2.62939H7.12229V2.45583H7.4438V2.28757H6.92334V3.03492H7.45882V2.86665Z" fill="#C39F6C"/>
<path d="M8.0695 2.86665H7.75413V2.28757H7.55518V3.03492H8.0695V2.86665Z" fill="#C39F6C"/>
<path d="M8.69704 2.86665H8.35988V2.78855H8.62847V2.62939H8.35988V2.45583H8.6818V2.28757H8.16113V3.03492H8.69704V2.86665Z" fill="#C39F6C"/>
<path d="M9.12341 2.58301L9.02499 2.54999C8.98944 2.53772 8.9725 2.52333 8.9725 2.49496C8.9725 2.4666 8.99684 2.44332 9.04489 2.44332C9.068 2.44257 9.09099 2.44701 9.11216 2.45631C9.13333 2.46562 9.15215 2.47955 9.16722 2.49708L9.28046 2.37707C9.23686 2.32543 9.16511 2.27844 9.03409 2.27844C8.90308 2.27844 8.78011 2.35443 8.78011 2.50153C8.78011 2.62429 8.85694 2.69032 8.96488 2.72673L9.05209 2.75593C9.10098 2.77329 9.12553 2.78811 9.12553 2.81943C9.12553 2.86176 9.09039 2.87933 9.03134 2.87933C9.00087 2.87951 8.97081 2.87219 8.94383 2.85801C8.91685 2.84384 8.89377 2.82325 8.87662 2.79805L8.73291 2.90684C8.7782 2.96822 8.87281 3.04527 9.04066 3.04527C9.23686 3.04527 9.32173 2.94536 9.32173 2.80885C9.32173 2.70302 9.27157 2.6319 9.12341 2.58238" fill="#C39F6C"/>
<path d="M2.41504 12.2789H2.57865V12.0829H2.80088V11.9449H2.57865V11.8021H2.83073V11.6632H2.41504V12.2789Z" fill="#C39F6C"/>
<path d="M3.2016 12.1439C3.09958 12.1439 3.04159 12.0683 3.04159 11.971C3.04159 11.8736 3.10022 11.7989 3.2016 11.7989C3.30298 11.7989 3.36161 11.8747 3.36161 11.971C3.36161 12.0673 3.30319 12.1439 3.2016 12.1439ZM3.2016 11.6571C3.02529 11.6571 2.87354 11.7864 2.87354 11.9716C2.87354 12.1568 3.02529 12.2874 3.2016 12.2874C3.37791 12.2874 3.52945 12.157 3.52945 11.9716C3.52945 11.7862 3.3777 11.6571 3.20181 11.6571" fill="#C39F6C"/>
<path d="M3.90354 12.1439C3.80088 12.1439 3.74353 12.0683 3.74353 11.971C3.74353 11.8736 3.80194 11.7989 3.90354 11.7989C4.00513 11.7989 4.06503 11.8747 4.06503 11.971C4.06503 12.0673 4.00598 12.1439 3.90354 12.1439ZM3.90354 11.6571C3.72723 11.6571 3.57568 11.7864 3.57568 11.9716C3.57568 12.1568 3.72723 12.2874 3.90354 12.2874C4.07984 12.2874 4.23139 12.1568 4.23139 11.9716C4.23139 11.7864 4.07984 11.6571 3.90354 11.6571Z" fill="#C39F6C"/>
<path d="M4.24365 11.8021H4.40557V12.2789H4.56875V11.8021H4.73088V11.6632H4.24365V11.8021Z" fill="#C39F6C"/>
<path d="M5.06149 12.1489H4.96265V12.0103H5.0617C5.1252 12.0103 5.14467 12.0361 5.14467 12.0785C5.14467 12.1208 5.12477 12.1487 5.0617 12.1487M4.96265 11.7938H5.04413C5.05583 11.7922 5.06768 11.7953 5.07707 11.8025C5.08647 11.8096 5.09267 11.8202 5.0943 11.8319C5.09483 11.8356 5.09483 11.8394 5.0943 11.8431C5.0943 11.8723 5.078 11.8903 5.04159 11.8903H4.96159L4.96265 11.7938ZM5.18509 11.9328C5.2251 11.9138 5.25515 11.8823 5.25515 11.8128C5.25515 11.7187 5.17515 11.6621 5.05514 11.6621H4.80518V12.2791H5.06424C5.21578 12.2791 5.3068 12.2122 5.3068 12.0943C5.30856 12.0573 5.29716 12.0208 5.27461 11.9914C5.25207 11.9619 5.21983 11.9414 5.18361 11.9335" fill="#C39F6C"/>
<path d="M5.54581 12.103L5.60698 11.9602L5.67047 12.103H5.54581ZM5.6093 11.6526L5.31299 12.2791H5.473L5.49565 12.2266H5.72529L5.749 12.2791H5.91832L5.622 11.6528C5.61925 11.6463 5.61396 11.6463 5.611 11.6528" fill="#C39F6C"/>
<path d="M6.12852 11.6632H5.96533V12.2789H6.38843V12.1403H6.12852V11.6632Z" fill="#C39F6C"/>
<path d="M6.60383 11.6632H6.44043V12.2789H6.86353V12.1403H6.60383V11.6632Z" fill="#C39F6C"/>
<path d="M7.4409 12.1439C7.34735 12.1439 7.29063 12.0683 7.29063 11.9709C7.29063 11.8736 7.34566 11.7989 7.43561 11.7989C7.46321 11.7972 7.49072 11.8032 7.51514 11.8162C7.53956 11.8291 7.55993 11.8485 7.57404 11.8723L7.69743 11.7877C7.64621 11.7117 7.56515 11.6556 7.43329 11.6556C7.39271 11.6556 7.35252 11.6635 7.31501 11.679C7.27751 11.6945 7.24343 11.7173 7.21472 11.7459C7.186 11.7746 7.16322 11.8087 7.14766 11.8461C7.13211 11.8836 7.12409 11.9238 7.12406 11.9644V11.9703C7.12344 12.0115 7.13096 12.0524 7.14618 12.0906C7.1614 12.1289 7.18403 12.1638 7.21275 12.1933C7.24148 12.2227 7.27575 12.2463 7.3136 12.2625C7.35144 12.2787 7.39211 12.2873 7.43329 12.2878H7.44217C7.5662 12.2878 7.65065 12.2431 7.71119 12.1396L7.5842 12.0588C7.5715 12.0857 7.55097 12.1082 7.5253 12.1233C7.49962 12.1384 7.46999 12.1454 7.44027 12.1434" fill="#C39F6C"/>
<path d="M7.91953 11.6632H7.75635V12.2789H8.17923V12.1403H7.91953V11.6632Z" fill="#C39F6C"/>
<path d="M8.57773 12.0391C8.57773 12.109 8.54535 12.1494 8.47656 12.1494C8.40778 12.1494 8.37497 12.1094 8.37497 12.0391V11.6632H8.21094V12.0408C8.21094 12.2061 8.32311 12.2874 8.47635 12.2874C8.62959 12.2874 8.74134 12.2061 8.74134 12.0408V11.6632H8.57773V12.0391Z" fill="#C39F6C"/>
<path d="M9.07531 12.1489H8.97668V12.0103H9.07531C9.13711 12.0103 9.15806 12.0361 9.15806 12.0785C9.15806 12.1208 9.13796 12.1487 9.07531 12.1487M8.97668 11.7938H9.05668C9.06838 11.7922 9.08022 11.7953 9.08962 11.8025C9.09902 11.8096 9.10521 11.8202 9.10684 11.8319C9.10737 11.8356 9.10737 11.8394 9.10684 11.8431C9.10684 11.8723 9.09076 11.8903 9.05478 11.8903H8.97477L8.97668 11.7938ZM9.19849 11.9328C9.23849 11.9138 9.26855 11.8823 9.26855 11.8128C9.26855 11.7187 9.18854 11.6621 9.06853 11.6621H8.81836V12.2791H9.07848C9.23024 12.2791 9.32146 12.2122 9.32146 12.0943C9.32318 12.0573 9.31177 12.0209 9.28923 11.9914C9.26669 11.962 9.23448 11.9415 9.19828 11.9335" fill="#C39F6C"/>
<path d="M5.45264 9.66434H3.49166V4.64813L2.41455 3.79495V10.7476H5.73625C5.60459 10.3973 5.50955 10.0342 5.45264 9.66434Z" fill="#C39F6C"/>
<path d="M5.73625 8.36795C5.70175 9.157 5.82091 10.04 6.11257 10.7478H7.1846C7.1846 10.7478 6.72976 9.75619 6.77547 8.91106C6.7105 8.87719 6.03151 8.52161 5.7354 8.36816" fill="#C39F6C"/>
<path d="M6.40863 5.71571L7.17058 6.56825C7.41526 6.07848 7.77422 5.67719 8.24579 5.39378V8.19206L4.30225 3.79431V4.83142C5.21871 5.6556 6.7422 7.14205 7.67623 7.98506V8.04179L4.60978 5.3197V5.97964C5.54296 6.6908 6.72971 7.65171 7.67601 8.37239V8.42784L4.91753 6.34855V6.96849C5.83335 7.52302 6.79299 8.1709 7.67601 8.70236V8.76014L5.22633 7.28618V7.78611C6.29307 8.32794 7.19471 8.82448 8.246 9.35658V10.748H9.32163V3.79473C8.03054 3.88236 6.92993 4.77977 6.40863 5.71571Z" fill="#C39F6C"/>
<path d="M11.0992 13.4221C10.6658 14.0092 9.91099 14.3563 8.5763 14.5819C8.48254 14.5982 8.38962 14.613 8.2984 14.6278L8.24697 14.6359C7.5248 14.751 6.90085 14.8505 6.36324 15.3358L5.8684 15.7831L5.37334 15.3369C4.83531 14.8514 4.21199 14.7519 3.48961 14.6367C3.38506 14.6204 3.27457 14.6029 3.15922 14.5828C1.81945 14.355 1.06385 14.0056 0.631013 13.4151C0.192889 12.8152 0.190984 12.124 0.190984 11.3243L0.192042 0.160011H11.5431L11.5462 11.3461C11.542 12.1401 11.5378 12.826 11.0992 13.4204M11.7026 0H0.0322433L0.0307617 11.3235C0.0307617 12.1517 0.0326667 12.8673 0.502116 13.5097C0.960982 14.137 1.7477 14.5045 3.13213 14.7407C3.24812 14.7606 3.35945 14.7783 3.46464 14.7951C4.16162 14.9064 4.76335 15.0023 5.26645 15.4558L5.8684 16L6.47055 15.4575C6.97302 15.0042 7.57518 14.9072 8.27236 14.7976L8.32337 14.7898C8.41594 14.7757 8.50928 14.7603 8.60339 14.7436C9.98316 14.5095 10.7673 14.1438 11.2279 13.52C11.6974 12.8821 11.7016 12.1718 11.7062 11.3457L11.7026 0Z" fill="#C39F6C"/>
<path d="M10.8649 13.2462C10.4815 13.7668 9.78287 14.079 8.5284 14.293C8.4285 14.3106 8.33262 14.3258 8.23759 14.3408L8.20118 14.3463C7.46484 14.4642 6.76934 14.5751 6.1693 15.1176L5.86854 15.3883L5.56842 15.1176C4.9669 14.5756 4.27203 14.4642 3.53654 14.3463C3.43198 14.3303 3.32284 14.3123 3.20911 14.2924C1.94934 14.079 1.2494 13.7645 0.866095 13.2402C0.482789 12.716 0.485117 12.103 0.483001 11.3237L0.484271 0.455261H11.2511L11.2545 11.3436C11.2503 12.1166 11.2469 12.7274 10.8649 13.2459M0.191976 0.160004L0.190918 11.3224C0.190918 12.1223 0.192611 12.8133 0.630735 13.4132C1.06399 14.0045 1.81875 14.3537 3.15937 14.5819C3.27472 14.6018 3.3852 14.6194 3.48997 14.6357C4.21235 14.7508 4.83567 14.8505 5.37369 15.3356L5.86854 15.7828L6.3636 15.3367C6.90142 14.8513 7.52537 14.7519 8.24732 14.6365L8.29854 14.6287C8.38998 14.6141 8.48268 14.5991 8.57666 14.5825C9.91177 14.3561 10.6661 14.009 11.0996 13.4227C11.5379 12.8271 11.5421 12.1413 11.5466 11.3474L11.543 0.160004H0.191976Z" fill="#010101"/>
<path d="M3.90317 11.7993C3.80052 11.7993 3.74316 11.8748 3.74316 11.9714C3.74316 12.0679 3.80158 12.1443 3.90317 12.1443C4.00477 12.1443 4.06467 12.0687 4.06467 11.9714C4.06467 11.874 4.00562 11.7993 3.90317 11.7993Z" fill="#010101"/>
<path d="M3.20151 11.7993C3.0995 11.7993 3.0415 11.8748 3.0415 11.9714C3.0415 12.0679 3.10013 12.1443 3.20151 12.1443C3.3029 12.1443 3.36152 12.0687 3.36152 11.9714C3.36152 11.874 3.30311 11.7993 3.20151 11.7993Z" fill="#010101"/>
<path d="M5.5459 12.103H5.67014L5.60728 11.9601L5.5459 12.103Z" fill="#010101"/>
<path d="M5.09405 11.8433C5.09536 11.8316 5.09195 11.8198 5.08457 11.8105C5.07719 11.8013 5.06644 11.7953 5.05468 11.794C5.05109 11.7937 5.04748 11.7937 5.04389 11.794H4.9624V11.8903H5.04283C5.07902 11.8903 5.09553 11.8725 5.09553 11.8433" fill="#010101"/>
<path d="M9.10841 11.8433C9.10908 11.8375 9.10861 11.8316 9.10701 11.826C9.1054 11.8204 9.10271 11.8151 9.09907 11.8105C9.09543 11.806 9.09092 11.8021 9.08581 11.7993C9.08069 11.7965 9.07506 11.7947 9.06925 11.794C9.06552 11.7936 9.06176 11.7936 9.05803 11.794H8.97803V11.8903H9.05719C9.09338 11.8903 9.10904 11.8725 9.10904 11.8433" fill="#010101"/>
<path d="M4.89704 2.64801L4.82275 2.82157H4.97303L4.89704 2.64801Z" fill="#010101"/>
<path d="M5.06124 12.0105H4.9624V12.1492H5.06146C5.12495 12.1492 5.14442 12.1214 5.14442 12.0789C5.14442 12.0363 5.12453 12.0107 5.06146 12.0107" fill="#010101"/>
<path d="M9.07519 12.0105H8.97656V12.1492H9.07519C9.13869 12.1492 9.15795 12.1214 9.15795 12.0789C9.15795 12.0363 9.13784 12.0107 9.07519 12.0107" fill="#010101"/>
<path d="M9.04054 3.04677C8.87333 3.04677 8.77809 2.96972 8.73279 2.90813L8.87672 2.79934C8.91249 2.84442 8.95672 2.88062 9.03165 2.88062C9.09155 2.88062 9.12562 2.86284 9.12562 2.82072C9.12562 2.78897 9.10107 2.77416 9.05218 2.75722L8.96498 2.72801C8.85724 2.69161 8.7802 2.62557 8.7802 2.50281C8.7802 2.35466 8.90169 2.27973 9.03419 2.27973C9.16668 2.27973 9.23674 2.32693 9.28034 2.37836L9.16689 2.49647C9.15182 2.47893 9.133 2.465 9.11183 2.4557C9.09066 2.44639 9.06767 2.44195 9.04456 2.44271C8.9963 2.44271 8.97217 2.46387 8.97217 2.49435C8.97217 2.52483 8.9891 2.53668 9.02466 2.54938L9.12308 2.5824C9.27124 2.63192 9.32161 2.7024 9.32161 2.80887C9.32161 2.94602 9.23695 3.04528 9.04032 3.04528M9.32161 10.747H8.2462V9.35618C7.19512 8.82408 6.29263 8.32775 5.22632 7.7857V7.28578L7.67621 8.75952V8.70344C6.79319 8.17176 5.83355 7.52346 4.91772 6.96957V6.34963L7.67621 8.42934V8.3741C6.73054 7.65194 5.54316 6.69145 4.60998 5.97966V5.31972L7.67621 8.04181V7.98529C6.74176 7.14122 5.2187 5.65498 4.30223 4.83165V3.79454L8.2462 8.19208V5.39359C7.77463 5.67699 7.41546 6.07829 7.17078 6.56827L6.40883 5.71573C6.92971 4.77979 8.03052 3.88238 9.3214 3.79475L9.32161 10.747ZM9.07863 12.2791H8.81851V11.6632H9.06805C9.18933 11.6632 9.26806 11.7195 9.26806 11.8137C9.26806 11.8825 9.23716 11.9136 9.19801 11.9337C9.23421 11.9417 9.26642 11.9622 9.28896 11.9917C9.31149 12.0211 9.32291 12.0575 9.32119 12.0946C9.32119 12.2125 9.22997 12.2795 9.07821 12.2795M8.73956 12.0414C8.73956 12.2067 8.62718 12.2882 8.47457 12.2882C8.32197 12.2882 8.20916 12.2069 8.20916 12.0414V11.6632H8.37298V12.0391C8.37298 12.109 8.40494 12.1494 8.47457 12.1494C8.54421 12.1494 8.57574 12.1094 8.57574 12.0391V11.6632H8.73935L8.73956 12.0414ZM8.17953 12.2795H7.75622V11.6632H7.9194V12.1403H8.17953V12.2795ZM7.44191 12.288C7.35901 12.2891 7.27904 12.2574 7.21953 12.1996C7.16002 12.1419 7.12582 12.063 7.12443 11.9801V11.9718C7.12296 11.8899 7.15408 11.8107 7.21096 11.7517C7.26784 11.6928 7.34581 11.6588 7.42773 11.6573H7.43366C7.56573 11.6573 7.64658 11.7129 7.6978 11.7889L7.57441 11.8736C7.56036 11.8497 7.54001 11.8302 7.51559 11.8172C7.49116 11.8042 7.46362 11.7981 7.43599 11.7997C7.34603 11.7997 7.291 11.8757 7.291 11.972C7.291 12.0683 7.34794 12.1447 7.44128 12.1447C7.47103 12.1469 7.50073 12.14 7.52644 12.1248C7.55215 12.1097 7.57265 12.0871 7.5852 12.0601L7.71114 12.1413C7.65103 12.2438 7.56615 12.2895 7.44212 12.2895M6.86304 12.2791H6.43973V11.6632H6.60313V12.1403H6.86304V12.2791ZM6.38787 12.2791H5.96457V11.6632H6.12754V12.1403H6.38745L6.38787 12.2791ZM5.74677 12.2791L5.72307 12.2266H5.49385L5.4712 12.2791H5.31119L5.60751 11.6526C5.61026 11.6461 5.61555 11.6461 5.6183 11.6526L5.91462 12.2791H5.74677ZM5.06482 12.2791H4.80534V11.6632H5.05445C5.17594 11.6632 5.25447 11.7195 5.25447 11.8137C5.25447 11.8825 5.22356 11.9136 5.18441 11.9337C5.22063 11.9417 5.25286 11.9622 5.27541 11.9916C5.29795 12.0211 5.30935 12.0575 5.30759 12.0946C5.30759 12.2125 5.21658 12.2795 5.06504 12.2795M4.73062 11.8027H4.56849V12.2791H4.4051V11.8021H4.24318V11.6632H4.72999L4.73062 11.8027ZM3.90305 12.2876C3.72675 12.2876 3.5752 12.1572 3.5752 11.9718C3.5752 11.7864 3.72675 11.6573 3.90305 11.6573C4.07936 11.6573 4.23091 11.7866 4.23091 11.9718C4.23091 12.157 4.07936 12.2876 3.90305 12.2876ZM3.20036 12.2876C3.02405 12.2876 2.8723 12.1572 2.8723 11.9718C2.8723 11.7864 3.02405 11.6573 3.20036 11.6573C3.37667 11.6573 3.52843 11.7855 3.52843 11.971C3.52843 12.1564 3.37667 12.2867 3.20079 12.2867M2.83081 11.8018H2.57852V11.9449H2.80076V12.0827H2.57852V12.2791H2.41491V11.6632H2.8306L2.83081 11.8018ZM7.18454 10.7476H6.1123C5.82043 10.039 5.70148 9.1568 5.73577 8.36775C6.03208 8.5212 6.70938 8.87572 6.77562 8.91043C6.73012 9.75536 7.18496 10.7474 7.18496 10.7474M2.41449 3.79433L3.4916 4.64751V9.66371H5.4513C5.50842 10.0336 5.60346 10.3966 5.73492 10.747H2.41449V3.79433ZM2.41449 2.28735H2.61302V2.86728H2.9286V3.03513H2.41449V2.28735ZM3.35148 2.27867C3.56547 2.27867 3.75003 2.43572 3.75003 2.66113C3.75003 2.88654 3.56547 3.04444 3.35148 3.04444C3.1375 3.04444 2.95336 2.88654 2.95336 2.66113C2.95336 2.43572 3.13771 2.27867 3.35148 2.27867ZM4.0836 2.75638L3.99661 2.72717C3.88845 2.69076 3.81225 2.62473 3.81225 2.50176C3.81225 2.35487 3.93226 2.27888 4.06518 2.27888C4.1981 2.27888 4.26816 2.32608 4.31197 2.37752L4.19831 2.49752C4.18328 2.47999 4.1645 2.46606 4.14336 2.45676C4.12222 2.44745 4.09927 2.44301 4.07619 2.44376C4.02814 2.44376 4.0038 2.46493 4.0038 2.49541C4.0038 2.52589 4.02031 2.53774 4.05672 2.55044L4.15471 2.58346C4.30287 2.63298 4.35303 2.70346 4.35303 2.80993C4.35303 2.94708 4.26837 3.04634 4.07174 3.04634C3.90475 3.04634 3.80993 2.9693 3.764 2.90771L3.90792 2.79892C3.94433 2.844 3.98793 2.88019 4.06264 2.88019C4.12275 2.88019 4.1564 2.86242 4.1564 2.8203C4.1564 2.78855 4.13249 2.77352 4.08338 2.7568M4.8991 2.27465C4.90227 2.26724 4.90862 2.26724 4.91201 2.27465L5.27182 3.0347H5.06673L5.03858 2.97121H4.75877L4.73189 3.0347H4.53738L4.8991 2.27465ZM5.34103 2.27825C5.34103 2.27169 5.34421 2.26619 5.35606 2.27613L5.8217 2.66283V2.28735H6.00817V3.04677C6.00817 3.05544 6.00542 3.05862 5.99335 3.04888L5.52771 2.66304V3.03555H5.34103V2.27825ZM6.49645 2.27825C6.62747 2.27825 6.72927 2.32778 6.79446 2.41117L6.65456 2.53118C6.63581 2.50574 6.61121 2.48519 6.58285 2.47126C6.55448 2.45734 6.52318 2.45045 6.49159 2.45117C6.36988 2.45117 6.30364 2.54239 6.30364 2.66007C6.30364 2.77775 6.37073 2.87554 6.50196 2.87554C6.55183 2.87745 6.60142 2.86729 6.64652 2.84591V2.78241H6.50026V2.62769H6.82431V2.93967C6.75573 2.99682 6.6662 3.04296 6.5009 3.04296C6.28289 3.04296 6.10087 2.88527 6.10087 2.65965C6.10087 2.43403 6.28099 2.27719 6.49582 2.27719M6.9223 2.28587H7.44234V2.45519H7.12231V2.62896H7.39048V2.78897H7.12231V2.86686H7.45906V3.03491H6.92336L6.9223 2.28587ZM7.5543 2.28587H7.75199V2.8658H8.06947V3.03386H7.55515L7.5543 2.28587ZM8.15984 2.28587H8.67988V2.45519H8.35774V2.62896H8.62823V2.78897H8.35943V2.86686H8.69681V3.03491H8.1609L8.15984 2.28587ZM0.933122 0.905884L0.931641 11.315C0.933122 12.7492 0.93164 13.4439 3.28248 13.8432C3.39424 13.8634 3.5026 13.8799 3.60526 13.896C4.37483 14.0219 5.16832 14.1499 5.86826 14.779C6.56842 14.1487 7.36233 14.0217 8.13064 13.8991C8.23646 13.8826 8.34229 13.8659 8.45404 13.8464C10.8055 13.4466 10.7973 12.7524 10.8049 11.3199L10.8017 0.909059L0.933122 0.905884Z" fill="#010101"/>
<path d="M3.3514 2.87108C3.47606 2.87108 3.54696 2.7788 3.54696 2.66133C3.54696 2.54386 3.47606 2.45264 3.3514 2.45264C3.22673 2.45264 3.15625 2.54386 3.15625 2.66133C3.15625 2.7788 3.22715 2.87108 3.3514 2.87108Z" fill="#010101"/>
</g>
<defs>
<clipPath id="clip0_795_1668">
<rect width="11.6755" height="16" fill="white" transform="translate(0.0307617)"/>
</clipPath>
</defs>
</svg>
