<svg width="23" height="16" viewBox="0 0 23 16" fill="none" xmlns="http://www.w3.org/2000/svg">
<g clip-path="url(#clip0_879_4071)">
<path d="M20.1801 2.71762C17.1286 -0.334897 12.3746 -0.878768 8.71254 1.40569C7.70295 2.07545 6.82859 2.92945 6.13523 3.92299C6.1328 3.92592 6.13027 3.92875 6.12779 3.93168H4.2155L0.609375 12.0908H5.28779C5.96436 13.352 6.98948 14.3919 8.24085 15.0864C10.6279 16.4 13.5448 16.2903 15.8264 14.8009C16.0904 14.6281 16.2104 14.303 16.1221 14C16.0338 13.6971 15.7579 13.4874 15.4423 13.4835C15.371 13.4836 15.3 13.4941 15.2317 13.5148C14.7654 13.6548 14.281 13.7257 13.7942 13.7253C12.3932 13.7286 11.0574 13.134 10.1222 12.0908H14.491L15.2414 11.0454L18.1535 11.0457C18.1535 11.0457 18.0649 11.271 18.0162 11.3813L17.7035 12.0911H22.4697L22.5712 11.7182C23.4466 8.50628 22.5342 5.07156 20.1801 2.71762ZM22.0831 11.5853H18.4789C18.6283 11.2466 18.7517 10.8971 18.848 10.5397H14.9778L14.2315 11.5853H10.7622L15.9491 4.31904L15.9485 4.31879C15.2649 4.03945 14.5328 3.89776 13.7943 3.90185C13.7 3.90185 13.6064 3.90425 13.5134 3.90904C10.6995 4.0508 8.45548 6.30985 8.45548 9.06625C8.45546 9.24532 8.46498 9.42427 8.48402 9.60232H11.5481L10.6357 10.8861C10.3478 11.2733 9.96611 11.5849 9.38432 11.5849H9.13455C10.0493 13.1624 11.7954 14.2306 13.7945 14.2306C14.3308 14.2311 14.8643 14.153 15.3779 13.9987C15.3988 13.9922 15.4205 13.9889 15.4424 13.9887C15.5343 13.9925 15.6133 14.0552 15.6378 14.1439C15.6622 14.2326 15.6266 14.3269 15.5497 14.3773C13.8917 15.4598 11.8471 15.7738 9.94066 15.2389C8.0342 14.704 6.45142 13.3722 5.59846 11.5853H1.38579L4.54489 4.43767H6.37021C7.63495 2.79437 9.57486 1.81098 11.6479 1.76228C11.6976 1.76123 11.7478 1.76069 11.7973 1.76069C14.7188 1.76069 17.1691 3.50878 18.1612 6.08033L16.365 8.59689H19.0999C19.0888 6.15693 17.8661 3.88193 15.8374 2.52626C13.8087 1.17059 11.239 0.911407 8.98043 1.83465C12.0429 -0.0742648 15.962 0.0872265 18.857 2.24162C21.752 4.39602 23.0322 8.10363 22.0831 11.5853ZM11.9171 9.09658H8.96177C8.96177 9.08665 8.96102 9.07648 8.96102 9.06635C8.96102 6.58692 10.9717 4.5434 13.5391 4.41409C13.6245 4.40972 13.7104 4.40754 13.7941 4.40754C14.2484 4.40705 14.7008 4.46567 15.1399 4.58191L11.9171 9.09658ZM18.3252 6.72863C18.4539 7.17299 18.5368 7.62933 18.5728 8.09055H17.3534L18.3252 6.72863Z" fill="#003594"/>
<path d="M8.98047 1.83464C11.75 0.702496 14.9295 1.3643 17.0172 3.50748C19.105 5.65066 19.6833 8.84638 18.479 11.5853H22.0832C23.0331 8.10345 21.7532 4.39515 18.8579 2.24051C15.9625 0.0858626 12.0428 -0.0751992 8.98047 1.83464Z" fill="url(#paint0_linear_879_4071)"/>
<path d="M18.1606 6.08132L17.4669 7.05349C16.8017 6.36966 15.888 5.98432 14.9341 5.98532C14.8745 5.98532 14.8154 5.98681 14.7568 5.98979L15.9493 4.31903C16.8386 4.68485 17.6056 5.29606 18.1606 6.08132ZM18.8482 10.5397C19.0159 9.91619 19.1006 9.27328 19.1002 8.62761C19.1002 8.61725 19.1002 8.60687 19.1002 8.59648H18.3502C18.523 9.23388 18.5144 9.90688 18.3253 10.5396L18.8482 10.5397Z" fill="#D7D2CB"/>
<path d="M15.5496 14.3778C13.4248 15.7646 10.7084 15.8668 8.48531 14.6436C7.93667 13.9521 7.53166 13.158 7.29404 12.3078C8.06176 12.2721 9.17356 12.3385 9.99539 12.6917C11.011 13.683 12.3753 14.2357 13.7945 14.231C14.3308 14.2315 14.8643 14.1534 15.3779 13.9991C15.3989 13.9927 15.4206 13.9893 15.4425 13.9892C15.5344 13.993 15.6133 14.0557 15.6377 14.1444C15.6622 14.2331 15.6266 14.3274 15.5496 14.3778ZM8.48392 9.60276C8.46484 9.42471 8.45529 9.24577 8.45533 9.06669C8.45533 6.31004 10.6996 4.051 13.5135 3.90948C10.2512 4.04221 7.57949 6.47374 7.12354 9.60306L8.48392 9.60276Z" fill="#FFD100"/>
<path d="M9.13439 11.5853H7.13623C7.17505 11.829 7.22766 12.0702 7.29383 12.308C8.06155 12.2722 9.17335 12.3386 9.99518 12.6918C9.65975 12.3634 9.37021 11.9912 9.13439 11.5853Z" fill="#FFA300"/>
<path d="M5.59863 11.5853C5.84778 12.1061 6.16156 12.5934 6.53254 13.0358C6.72631 12.7374 6.98696 12.4881 7.29381 12.308C7.22765 12.0702 7.17503 11.829 7.13622 11.5853H5.59863Z" fill="#FF8200"/>
<path d="M15.9487 4.31878C15.265 4.03944 14.533 3.89775 13.7945 3.90184C13.7002 3.90184 13.6066 3.90424 13.5136 3.90904C10.2513 4.04177 7.57961 6.4733 7.12365 9.60261H5.26611L7.55415 4.43766H6.37037C7.63511 2.79436 9.57502 1.81098 11.6481 1.76227C11.6977 1.76123 11.7479 1.76068 11.7975 1.76068C14.7189 1.76068 17.1693 3.50877 18.1614 6.08033L18.1606 6.08147C17.6055 5.29596 16.8383 4.68461 15.9487 4.31878ZM7.2938 12.3078C6.98695 12.488 6.72631 12.7372 6.53253 13.0357C7.07876 13.6874 7.74077 14.2325 8.48517 14.6436C7.93656 13.952 7.53155 13.1579 7.2939 12.3078H7.2938Z" fill="url(#paint1_linear_879_4071)"/>
<path d="M18.4734 9.5247C18.4734 9.86844 18.4235 10.2104 18.3251 10.5397H14.9778L14.2315 11.5853H10.7622L14.7566 5.98971C14.8153 5.98683 14.8744 5.98534 14.9338 5.98524C15.8878 5.98424 16.8015 6.36958 17.4666 7.05341L16.3649 8.59671H18.3498C18.4319 8.89921 18.4734 9.21127 18.4734 9.5247ZM4.54484 4.43768L1.38574 11.5853H9.38393C9.96572 11.5853 10.3476 11.2738 10.6353 10.8864L11.5477 9.60268H5.26591L7.55394 4.43768H4.54484Z" fill="white"/>
</g>
<defs>
<linearGradient id="paint0_linear_879_4071" x1="679.561" y1="0.494902" x2="679.561" y2="1108.44" gradientUnits="userSpaceOnUse">
<stop offset="0.217" stop-color="#FFD100"/>
<stop offset="0.296" stop-color="#FFD724"/>
<stop offset="0.474" stop-color="#FFE87F"/>
<stop offset="0.707" stop-color="white"/>
</linearGradient>
<linearGradient id="paint1_linear_879_4071" x1="5.26611" y1="645.905" x2="1294.8" y2="645.905" gradientUnits="userSpaceOnUse">
<stop stop-color="#FFA300"/>
<stop offset="0.134" stop-color="#FFA800"/>
<stop offset="0.289" stop-color="#FFB600"/>
<stop offset="0.453" stop-color="#FFCD00"/>
<stop offset="0.478" stop-color="#FFD100"/>
</linearGradient>
<clipPath id="clip0_879_4071">
<rect width="22.2886" height="16" fill="white" transform="translate(0.609375)"/>
</clipPath>
</defs>
</svg>
