<svg width="37" height="16" viewBox="0 0 37 16" fill="none" xmlns="http://www.w3.org/2000/svg">
<g clip-path="url(#clip0_879_3989)">
<path fill-rule="evenodd" clip-rule="evenodd" d="M36.4827 16C34.4708 13.2904 30.9592 9.98062 26.7757 8.1225L27.6301 10.0911C24.0727 8.29952 20.1183 7.01337 15.6357 7.03374L16.591 8.06809C8.31064 8.39241 3.45283 12.4985 0.271973 16C0.34638 11.2588 3.74348 6.97725 8.21897 4.36336L7.29779 3.50829C10.6286 1.20297 15.3001 0.556124 19.243 1.01153L18.6823 0C31.7438 0.9706 37.2761 10.7184 36.4827 16Z" fill="white"/>
<path fill-rule="evenodd" clip-rule="evenodd" d="M15.5747 7.66767L14.5712 6.58107C18.3743 6.45461 22.2191 7.02724 26.6917 9.12942L25.8677 7.23084C29.2349 8.53538 32.9657 10.9705 36.094 14.7475C35.8185 9.02842 30.0427 1.61764 19.5375 0.557922L20.1216 1.6117C15.8757 0.890352 11.1049 1.64103 8.06881 3.57695L9.01828 4.45815C4.4482 6.90907 1.44615 10.8078 0.801758 14.7475C4.57373 10.8078 9.47765 8.08667 15.5747 7.66767Z" fill="#0080C6"/>
<path fill-rule="evenodd" clip-rule="evenodd" d="M34.4544 11.6772C32.6743 6.88558 27.3201 2.7544 21.3097 1.76541L22.0157 3.02355C18.3957 1.90376 13.1351 1.97157 9.67705 3.77593L10.669 4.69664C7.49951 6.05484 4.15523 8.96353 2.83154 11.6362C5.00238 9.67799 9.72542 7.41143 13.6 6.92981L12.6372 5.88735C16.361 5.14921 21.324 5.87981 24.8621 7.31647L24.1758 5.73486C26.7817 6.26901 31.6244 8.59733 34.4544 11.6772Z" fill="#FFC20E"/>
</g>
<defs>
<clipPath id="clip0_879_3989">
<rect width="36.2851" height="16" fill="white" transform="translate(0.271973)"/>
</clipPath>
</defs>
</svg>
