<svg width="41" height="16" viewBox="0 0 41 16" fill="none" xmlns="http://www.w3.org/2000/svg">
<g clip-path="url(#clip0_806_981)">
<g clip-path="url(#clip1_806_981)">
<path fill-rule="evenodd" clip-rule="evenodd" d="M1.57924 4.94351H0.765625V4.61142C0.815438 4.61142 0.865251 4.59482 0.915065 4.59482H2.85778C2.99061 4.59482 3.04043 4.66124 3.09024 4.77747C3.6714 6.28847 4.26915 7.79947 4.86691 9.31047C4.88352 9.36028 4.91673 9.41009 4.96654 9.52632C5.61411 7.84928 6.24508 6.23865 6.89265 4.61142H9.06783V4.94351H8.27081C8.27081 5.04314 8.25421 5.10955 8.25421 5.17597V11.22C8.25421 11.4192 8.32063 11.4856 8.50328 11.469C8.6526 11.4607 8.80227 11.4607 8.95159 11.469V11.7679H6.17866V11.4524H6.72661C6.82623 11.4524 6.87604 11.4192 6.87604 11.303V5.92317C6.87604 5.90657 6.85944 5.90657 6.84284 5.84015L6.72661 6.07261C6.04582 7.84928 5.36504 9.62595 4.70087 11.4026C4.65105 11.5189 4.61785 11.6185 4.46841 11.6019C4.31897 11.5853 4.26915 11.5189 4.21934 11.386C3.53856 9.60935 2.84118 7.81607 2.14379 6.0394C2.12719 5.97298 2.07737 5.92317 2.06077 5.85675C2.04416 5.85675 2.02756 5.87336 2.01096 5.87336C2.01096 5.93977 1.99435 6.00619 1.99435 6.08921V11.1868C1.99435 11.386 2.04416 11.469 2.24342 11.4524C2.44267 11.4358 2.65853 11.4524 2.89099 11.4524V11.7513H0.931669V11.4524C1.08099 11.4441 1.23066 11.4441 1.37999 11.4524C1.56264 11.469 1.59585 11.4026 1.59585 11.22V4.94351H1.57924Z" fill="#007856"/>
<path fill-rule="evenodd" clip-rule="evenodd" d="M22.6837 6.13902V7.48398C22.6837 7.60021 22.7003 7.68323 22.8497 7.68323C23.6135 7.66663 24.3773 7.66663 25.1411 7.63342C25.4874 7.62455 25.8184 7.48862 26.071 7.25152C26.3035 7.01188 26.4569 6.70661 26.5103 6.37699C26.5638 6.04737 26.5147 5.70928 26.3698 5.40843C26.071 4.81067 25.523 4.61142 24.9253 4.59481C24.2445 4.56161 23.5471 4.59481 22.8663 4.57821C22.7335 4.57821 22.6837 4.62802 22.6837 4.76086V6.13902ZM22.6837 9.64255V11.0871C22.6837 11.2034 22.7003 11.2864 22.8497 11.2864C23.6467 11.2698 24.4603 11.2864 25.2574 11.2366C25.7555 11.2034 26.2204 11.0207 26.5027 10.589C26.6726 10.3365 26.7715 10.043 26.789 9.73922C26.8066 9.43541 26.7421 9.13247 26.6023 8.86215C26.3366 8.28099 25.8053 8.06513 25.2075 8.03193C24.4271 7.98211 23.6467 7.99872 22.8663 7.98211C22.7169 7.98211 22.6671 8.03193 22.6671 8.18136C22.6837 8.6795 22.6837 9.16102 22.6837 9.64255ZM22.252 4.24612C22.3184 4.24612 22.3848 4.22952 22.4512 4.22952C23.2482 4.22952 24.0618 4.21291 24.8588 4.22952C25.3761 4.21942 25.8828 4.37666 26.3034 4.67784C26.8514 5.09295 27.0174 5.6741 26.951 6.32167C26.9325 6.63146 26.8212 6.92852 26.6317 7.17429C26.4422 7.42005 26.1832 7.60316 25.8883 7.69984C25.8053 7.73305 25.7389 7.76625 25.5894 7.81607C25.7057 7.84928 25.7721 7.88249 25.8385 7.89909C26.6521 8.11495 27.1503 8.6961 27.2001 9.4433C27.2665 10.5558 26.7351 11.1868 25.9879 11.4358C25.6497 11.5461 25.2975 11.6076 24.9419 11.6185C24.1116 11.6351 23.2648 11.6185 22.418 11.6185C22.3682 11.6185 22.3184 11.6019 22.252 11.6019V4.24612Z" fill="#007856"/>
<path fill-rule="evenodd" clip-rule="evenodd" d="M31.0021 9.41009V9.09461C31.0187 8.92857 30.9523 8.87875 30.7863 8.87875C30.3878 8.91196 29.9727 8.89536 29.5742 8.96177C29.1703 9.02939 28.775 9.14074 28.3952 9.29386C28.1984 9.37739 28.0348 9.52362 27.9297 9.7098C27.8246 9.89598 27.7839 10.1117 27.8141 10.3233C27.8169 10.5405 27.8871 10.7514 28.015 10.9269C28.1429 11.1024 28.3222 11.2338 28.5281 11.303C28.8612 11.4242 29.2209 11.4526 29.5689 11.3854C29.9169 11.3181 30.2401 11.1577 30.504 10.9211C30.9025 10.506 31.0187 9.95804 31.0021 9.41009ZM28.0134 7.79947C27.894 7.77076 27.7774 7.73188 27.6647 7.68324C27.7332 7.45614 27.8484 7.24582 28.0027 7.06571C28.1571 6.8856 28.3474 6.73965 28.5613 6.63716C28.842 6.49437 29.1495 6.41175 29.464 6.39459C29.7785 6.37744 30.0932 6.42612 30.3878 6.53753C31.0021 6.75339 31.2844 7.26813 31.3342 7.88249C31.384 8.56327 31.3674 9.26065 31.384 9.95804V11.6185H30.9855V10.7218C30.9689 10.7218 30.9357 10.7052 30.9191 10.7052C30.8693 10.7717 30.8361 10.8381 30.7863 10.9045C30.1885 11.8675 28.7605 11.9506 27.9967 11.4524C27.2329 10.9543 27.0835 9.59274 28.113 9.0614C28.6465 8.80135 29.2299 8.65975 29.8232 8.64629L30.8029 8.59648C30.9523 8.59648 31.0021 8.54666 30.9855 8.39722C30.9799 8.16349 30.9577 7.93044 30.9191 7.69984C30.7863 7.06887 30.3712 6.73678 29.7402 6.70358C28.9266 6.67037 28.3454 7.00246 28.0134 7.79947Z" fill="#007856"/>
<path fill-rule="evenodd" clip-rule="evenodd" d="M38.3748 8.84554C38.3264 8.88554 38.2819 8.93001 38.2419 8.97838C37.9265 9.32707 37.5944 9.65916 37.2789 10.0078C37.222 10.0793 37.1874 10.1659 37.1793 10.2569C37.1627 10.7052 37.1793 11.1369 37.1793 11.6019H36.7974V4.26273H37.1793V9.50972C37.1959 9.52632 37.2125 9.52632 37.2291 9.54293C37.2955 9.47651 37.3785 9.41009 37.4449 9.34367C38.2585 8.43043 39.0722 7.51719 39.919 6.63716C40.0186 6.53753 40.2345 6.55413 40.4171 6.52092C40.4337 6.53753 40.4337 6.57074 40.4503 6.58734C40.2179 6.85301 39.9854 7.10208 39.7529 7.36775C39.4375 7.71644 39.122 8.06513 38.7899 8.39722C38.7647 8.41399 38.7434 8.43612 38.7277 8.46204C38.712 8.48796 38.7023 8.51702 38.6991 8.54715C38.6959 8.57729 38.6994 8.60775 38.7094 8.63636C38.7193 8.66498 38.7355 8.69105 38.7567 8.71271C39.3046 9.49311 39.836 10.2735 40.3673 11.0539C40.5001 11.2366 40.6164 11.4192 40.7658 11.6351C40.5001 11.6683 40.3175 11.6683 40.1515 11.4192C39.6035 10.589 39.0224 9.77539 38.4578 8.96177C38.4342 8.92031 38.4063 8.88136 38.3748 8.84554Z" fill="#007856"/>
<path fill-rule="evenodd" clip-rule="evenodd" d="M32.5297 6.58735V7.78286C32.6528 7.55757 32.7915 7.34118 32.9448 7.13529C33.4761 6.4047 34.5554 6.22205 35.2528 6.73679C35.4337 6.87062 35.5795 7.04623 35.6778 7.24862C35.7761 7.45101 35.824 7.67419 35.8174 7.89909C35.8506 9.07801 35.834 10.2735 35.834 11.4524C35.834 11.469 35.8174 11.4856 35.8174 11.5189H35.4687V8.281C35.4682 8.03957 35.4347 7.79934 35.369 7.56701C35.1532 6.88623 34.6717 6.76999 34.1901 6.7866C33.1441 6.81981 32.5795 7.78286 32.5463 8.72931C32.5131 9.57614 32.5297 10.423 32.5297 11.2698V11.5189H32.1478V6.58735H32.5297ZM12.5048 11.137C12.0066 11.1868 11.5085 11.22 11.0602 10.8879C10.8758 10.7709 10.7241 10.609 10.6195 10.4173C10.515 10.2256 10.4609 10.0104 10.4624 9.792C10.448 9.54004 10.4761 9.28744 10.5455 9.0448C10.6246 8.85974 10.7371 8.69086 10.8775 8.54667C10.944 8.46364 11.0104 8.46364 11.0934 8.54667C11.8406 9.27726 12.6044 9.99125 13.3516 10.7218C13.3682 10.7384 13.3848 10.7717 13.418 10.8049C13.151 10.9994 12.8344 11.1145 12.5048 11.137ZM12.0233 5.2756C12.4716 5.2756 12.7871 5.62429 12.8037 6.10582V6.23865C12.8089 6.49771 12.7476 6.75377 12.6254 6.9823C12.5033 7.21083 12.3246 7.40416 12.1063 7.54376C12.0866 7.56422 12.0627 7.58019 12.0362 7.59057C12.0098 7.60096 11.9814 7.60552 11.953 7.60394C11.9247 7.60237 11.897 7.59469 11.8718 7.58144C11.8467 7.56819 11.8247 7.54967 11.8074 7.52716C11.4255 7.11205 11.193 6.66373 11.2262 6.09918C11.2594 5.60104 11.5749 5.26896 12.0233 5.26896V5.2756ZM14.7298 4.59482V6.45451H15.0951C15.2777 5.05974 16.1079 4.79407 17.0378 4.96011V11.2366C17.0046 11.2864 16.9548 11.3528 16.9215 11.3528C16.7001 11.3639 16.478 11.3583 16.2574 11.3362C15.5268 11.2034 15.1283 10.6388 14.6135 10.1905C14.928 9.78202 15.1388 9.30345 15.2279 8.79573C15.2483 8.66211 15.3108 8.53849 15.4064 8.44291C15.502 8.34733 15.6256 8.28478 15.7592 8.26439C15.9917 8.23118 16.0249 8.13156 15.9585 7.9323H13.8497V8.20794C14.2648 8.22454 14.6135 8.37398 14.6966 8.8223C14.7796 9.27062 14.5803 9.5861 14.3147 9.91819L12.2889 7.99872C12.3748 7.96644 12.4581 7.92758 12.538 7.88249C12.7658 7.78518 12.9876 7.67429 13.2022 7.5504C13.6837 7.25152 13.9826 6.85302 13.9162 6.27186C13.8497 5.69071 13.4844 5.2922 12.9033 5.10955C12.4948 4.98534 12.0642 4.95134 11.6413 5.00993C10.8942 5.09295 10.2632 5.57448 10.0971 6.23865C10.013 6.54449 10.0085 6.86677 10.0841 7.17483C10.1597 7.4829 10.3128 7.76651 10.5289 7.99872C10.5781 8.04989 10.6226 8.10547 10.6617 8.16476C10.3367 8.32809 10.0208 8.50879 9.71524 8.70607C8.802 9.33704 8.88502 10.7318 9.73184 11.2964C10.313 11.6783 10.9606 11.7779 11.6247 11.7779C12.3325 11.774 13.0242 11.5665 13.6173 11.1801C13.6492 11.166 13.6842 11.1602 13.719 11.1631C13.7538 11.166 13.7873 11.1775 13.8165 11.1967C13.9892 11.3595 14.1929 11.486 14.4153 11.5687C14.6378 11.6514 14.8746 11.6887 15.1117 11.6783H19.0801C19.1525 11.681 19.2249 11.6754 19.296 11.6617C19.3458 11.3628 19.3458 11.3628 19.0801 11.3628C18.9807 11.3545 18.8807 11.3545 18.7812 11.3628C18.582 11.3794 18.5156 11.313 18.5156 11.1137C18.5322 9.2042 18.5156 7.3113 18.5156 5.40179C18.5156 4.93687 18.5156 4.93687 18.9971 4.93687C19.2958 4.9187 19.5915 5.00479 19.8338 5.18043C20.0761 5.35608 20.2498 5.61039 20.3255 5.89992C20.3919 6.09918 20.4251 6.29843 20.4749 6.48108H20.8236V4.59482H14.7298Z" fill="#007856"/>
</g>
</g>
<defs>
<clipPath id="clip0_806_981">
<rect width="40" height="16" fill="white" transform="translate(0.765625)"/>
</clipPath>
<clipPath id="clip1_806_981">
<rect width="40" height="7.55574" fill="white" transform="translate(0.765625 4.22214)"/>
</clipPath>
</defs>
</svg>
