<svg width="41" height="16" viewBox="0 0 41 16" fill="none" xmlns="http://www.w3.org/2000/svg">
<g clip-path="url(#clip0_2_7370)">
<g clip-path="url(#clip1_2_7370)">
<path fill-rule="evenodd" clip-rule="evenodd" d="M36.9227 2.22607C37.0425 2.25449 37.1608 2.289 37.2817 2.31017C38.2517 2.48009 39.1135 2.88055 39.8474 3.55359C39.904 3.60579 39.9547 3.66436 40.0191 3.73193C39.545 4.28143 39.0291 4.77585 38.5478 5.32477C38.5101 5.28737 38.4811 5.26098 38.455 5.23256C37.9475 4.67783 37.3223 4.34987 36.5864 4.25215C36.3294 4.21793 36.0664 4.22083 35.8115 4.28984C35.4293 4.39366 35.135 4.60708 35.0213 5.01131C34.9143 5.39263 35.055 5.77685 35.3693 6.01463C35.6544 6.23008 35.9762 6.36898 36.308 6.48816C36.9024 6.70246 37.5036 6.89819 38.0893 7.13423C38.6864 7.37491 39.244 7.69041 39.6816 8.18917C40.0846 8.6482 40.345 9.17074 40.4306 9.78607C40.553 10.6641 40.332 11.4549 39.8648 12.1842C39.5786 12.6313 39.1822 12.9605 38.7238 13.2104C38.1476 13.5248 37.5317 13.7045 36.8778 13.7411C36.5837 13.7579 36.2885 13.7814 35.9948 13.7724C35.146 13.7463 34.3242 13.581 33.5564 13.1991C32.9822 12.9135 32.484 12.5209 32.0659 12.0262C32.0531 12.0108 32.0456 11.9905 32.0302 11.9624C32.5203 11.4407 33.0104 10.9199 33.5167 10.3814C33.5805 10.451 33.6367 10.5104 33.6906 10.5719C34.0125 10.9402 34.3892 11.2316 34.8326 11.4326C35.1359 11.5697 35.4505 11.6492 35.7814 11.6924C36.1021 11.7344 36.4118 11.7049 36.7192 11.6327C37.0213 11.5616 37.2846 11.407 37.4615 11.1411C37.8069 10.6221 37.6572 10.0537 37.1831 9.71358C36.9511 9.54713 36.6847 9.41983 36.419 9.31283C35.9899 9.13943 35.5477 8.99879 35.1115 8.84191C34.6679 8.68242 34.2317 8.50466 33.8304 8.25064C33.122 7.80205 32.6142 7.19513 32.4298 6.35042C32.2634 5.58894 32.3776 4.86168 32.7378 4.17356C33.1817 3.32509 33.8635 2.76427 34.7493 2.45255C35.0077 2.36149 35.2725 2.29393 35.5456 2.26348C35.5694 2.26087 35.5914 2.23912 35.6144 2.22607H36.9227ZM15.077 10.326C15.1344 10.3362 15.1611 10.3449 15.1872 10.3449C15.8535 10.342 16.5196 10.3388 17.1857 10.3347C17.1915 10.3347 17.1982 10.3278 17.2028 10.3225C17.2069 10.3176 17.2083 10.3106 17.2191 10.2854L16.1777 7.68316H16.1363L15.077 10.326ZM16.4921 2.22607C16.6063 2.31336 16.6823 2.42761 16.7386 2.561C17.0654 3.34162 17.3939 4.12137 17.7248 4.90025C18.0249 5.60721 18.3294 6.31244 18.6304 7.01882C18.9754 7.83018 19.3176 8.64298 19.6636 9.45405C19.9202 10.056 20.1806 10.6566 20.4395 11.2574C20.7489 11.976 21.0589 12.6943 21.368 13.4128C21.3875 13.4578 21.4011 13.5047 21.4217 13.5636H18.5382C18.423 13.2803 18.305 12.9912 18.1884 12.7018C18.1513 12.6096 18.1148 12.5168 18.0829 12.4228C18.0487 12.3219 17.9898 12.2758 17.8785 12.2816C17.7033 12.2903 17.527 12.2842 17.3513 12.2842H14.5458C14.5037 12.2842 14.4614 12.2871 14.4193 12.2834C14.3309 12.2761 14.281 12.3086 14.2465 12.3994C14.1276 12.7117 13.9991 13.0202 13.8736 13.3302C13.8417 13.4085 13.8075 13.4856 13.773 13.5668H11.3488C11.3606 13.5103 11.3632 13.4624 11.3812 13.4209C11.8469 12.3358 12.3158 11.2522 12.7809 10.1668C13.3522 8.83321 13.9214 7.49844 14.4904 6.16368C14.836 5.35261 15.1796 4.54096 15.5236 3.72903C15.6845 3.34916 15.8454 2.96929 16.0029 2.58826C16.0638 2.44037 16.1432 2.31075 16.2813 2.22607H16.4924H16.4921ZM0.463867 2.35888C0.666561 2.3902 0.81068 2.48357 0.93769 2.6129C1.46893 3.15516 2.00133 3.69655 2.53344 4.23794C3.44339 5.16413 4.35362 6.09031 5.26386 7.01592C5.30272 7.05565 5.34506 7.0919 5.39377 7.13771C5.44626 7.08929 5.49382 7.04927 5.53731 7.00519C6.9698 5.54834 8.40287 4.09121 9.83391 2.63262C9.96614 2.49807 10.1105 2.39368 10.295 2.36352C10.3057 2.3728 10.3115 2.37686 10.3164 2.38208C10.3211 2.38672 10.328 2.39223 10.3286 2.39803C10.3321 2.42616 10.3356 2.45458 10.3356 2.48299L10.3359 13.5378C10.1836 13.5828 8.44811 13.5981 8.06244 13.5587V8.23035C7.87308 8.37389 7.74694 8.53163 7.60485 8.67111C7.4529 8.81987 7.30559 8.97385 7.15626 9.12551L6.72361 9.56627L6.29096 10.0062C6.14134 10.1578 5.99026 10.3075 5.84208 10.4606C5.69941 10.6082 5.56022 10.7592 5.4045 10.9242L2.76977 8.24658C2.75092 8.25934 2.74512 8.26166 2.74164 8.26601C2.73729 8.27123 2.73323 8.27819 2.73236 8.28486C2.73033 8.29878 2.72946 8.31328 2.72946 8.32749C2.72801 10.0598 2.72685 11.7921 2.72511 13.5242C2.72511 13.5308 2.72047 13.5369 2.71786 13.5433C2.57229 13.5816 0.781392 13.5935 0.463867 13.5569V2.35888ZM25.036 4.39192C25.0015 4.67377 25.0099 7.21456 25.0464 7.38854C25.5104 7.37752 25.9804 7.42421 26.4447 7.3349C26.8217 7.2624 27.1406 7.08262 27.3567 6.74334C27.4892 6.53485 27.548 6.30664 27.5753 6.06103C27.6136 5.71595 27.5585 5.39176 27.3903 5.09453C27.1369 4.6471 26.7213 4.46035 26.2388 4.41801C25.9042 4.38902 25.5666 4.39018 25.2305 4.38003C25.1691 4.378 25.1076 4.38757 25.036 4.39192ZM22.4181 13.5497V2.41775C22.4679 2.4134 22.5213 2.40441 22.5746 2.40441C23.756 2.40354 24.938 2.39571 26.119 2.40731C26.7074 2.41282 27.2958 2.45168 27.8662 2.61899C28.5731 2.82662 29.1734 3.20388 29.6263 3.80123C29.9824 4.27128 30.1631 4.80832 30.2141 5.39988C30.2535 5.85456 30.2083 6.29504 30.0784 6.72855C29.8821 7.38216 29.4892 7.88846 28.9469 8.28196C28.8854 8.32633 28.8237 8.37012 28.7483 8.42376C28.8547 8.50814 28.9426 8.57832 29.0307 8.64762C29.3697 8.9144 29.6173 9.25745 29.8345 9.62833C30.1161 10.1091 30.3037 10.6305 30.4832 11.1556C30.7242 11.8614 30.9646 12.5675 31.2041 13.2736C31.2354 13.3658 31.2609 13.4601 31.2948 13.5723H28.6073C28.5653 13.5723 28.523 13.5712 28.4806 13.5723C28.4145 13.5746 28.3771 13.5445 28.3617 13.4781C28.2771 13.1185 28.197 12.7578 28.1042 12.4002C27.916 11.6779 27.7302 10.9532 27.3813 10.2883C27.1598 9.86582 26.8382 9.56279 26.3629 9.46478C26.2194 9.43491 26.0724 9.41258 25.9262 9.40765C25.6594 9.39895 25.3918 9.40475 25.1247 9.40678C25.098 9.40678 25.0714 9.41983 25.0551 9.42418C25.0415 9.4381 25.036 9.44245 25.0322 9.44825C25.0284 9.45405 25.0258 9.46101 25.0235 9.46768C25.0212 9.47435 25.0189 9.48102 25.0183 9.48798C25.0171 9.50248 25.0163 9.51669 25.0163 9.53089C25.0151 10.8622 25.0139 12.1935 25.0122 13.5248C25.0122 13.5311 25.007 13.5375 25.0044 13.5436C24.8507 13.5804 22.6451 13.5865 22.4178 13.5494" fill="#0000A0"/>
</g>
</g>
<defs>
<clipPath id="clip0_2_7370">
<rect width="40" height="16" fill="white" transform="translate(0.463867)"/>
</clipPath>
<clipPath id="clip1_2_7370">
<rect width="40" height="11.5483" fill="white" transform="translate(0.463867 2.22607)"/>
</clipPath>
</defs>
</svg>
