<svg width="104" height="64" viewBox="0 0 104 64" fill="none" xmlns="http://www.w3.org/2000/svg">
<g clip-path="url(#clip0_743_428)">
<path fill-rule="evenodd" clip-rule="evenodd" d="M38.5061 57.158H66.381V6.84174H38.5061V57.158Z" fill="#FF5F00"/>
<path fill-rule="evenodd" clip-rule="evenodd" d="M40.276 31.9999C40.276 21.7919 45.0342 12.7004 52.4436 6.84175C47.0244 2.55643 40.1875 0 32.756 0C15.1629 0 0.901611 14.3271 0.901611 31.9999C0.901611 49.6727 15.1629 63.9997 32.756 63.9997C40.1875 63.9997 47.0244 61.4433 52.4436 57.158C45.0342 51.2985 40.276 42.2078 40.276 31.9999Z" fill="#EB001B"/>
<path fill-rule="evenodd" clip-rule="evenodd" d="M102.991 51.8288V50.5871H102.668L102.297 51.4413L101.926 50.5871H101.603V51.8288H101.83V50.892L102.179 51.7H102.415L102.764 50.8902V51.8288H102.991ZM100.946 51.8288V50.7986H101.36V50.5889H100.307V50.7986H100.72V51.8288H100.946ZM103.986 31.9996C103.986 49.6724 89.7236 63.9995 72.1315 63.9995C64.7 63.9995 57.8622 61.443 52.4438 57.1577C59.8533 51.2991 64.6115 42.2076 64.6115 31.9996C64.6115 21.7925 59.8533 12.701 52.4438 6.84147C57.8622 2.55616 64.7 -0.000274658 72.1315 -0.000274658C89.7236 -0.000274658 103.986 14.3268 103.986 31.9996Z" fill="#F79E1B"/>
</g>
<defs>
<clipPath id="clip0_743_428">
<rect width="103.084" height="64" fill="white" transform="translate(0.901611)"/>
</clipPath>
</defs>
</svg>
