<svg width="27" height="16" viewBox="0 0 27 16" fill="none" xmlns="http://www.w3.org/2000/svg">
<g clip-path="url(#clip0_743_428)">
<path fill-rule="evenodd" clip-rule="evenodd" d="M9.78369 14.2895H16.7524V1.71045H9.78369V14.2895Z" fill="#FF5F00"/>
<path fill-rule="evenodd" clip-rule="evenodd" d="M10.2262 7.99997C10.2262 5.44798 11.4157 3.1751 13.2681 1.71044C11.9133 0.639108 10.204 0 8.34616 0C3.9479 0 0.382568 3.58176 0.382568 7.99997C0.382568 12.4182 3.9479 15.9999 8.34616 15.9999C10.204 15.9999 11.9133 15.3608 13.2681 14.2895C11.4157 12.8246 10.2262 10.552 10.2262 7.99997Z" fill="#EB001B"/>
<path fill-rule="evenodd" clip-rule="evenodd" d="M25.9049 12.9572V12.6468H25.8242L25.7315 12.8603L25.6385 12.6468H25.5578V12.9572H25.6146V12.723L25.7018 12.925H25.7609L25.848 12.7226V12.9572H25.9049ZM25.3936 12.9572V12.6997H25.4972V12.6472H25.2339V12.6997H25.3372V12.9572H25.3936ZM26.1536 7.99991C26.1536 12.4181 22.588 15.9999 18.19 15.9999C16.3321 15.9999 14.6227 15.3608 13.2681 14.2894C15.1204 12.8248 16.31 10.5519 16.31 7.99991C16.31 5.44814 15.1204 3.17526 13.2681 1.71038C14.6227 0.639047 16.3321 -6.10352e-05 18.19 -6.10352e-05C22.588 -6.10352e-05 26.1536 3.5817 26.1536 7.99991Z" fill="#F79E1B"/>
</g>
<defs>
<clipPath id="clip0_743_428">
<rect width="25.7711" height="16" fill="white" transform="translate(0.382568)"/>
</clipPath>
</defs>
</svg>
