<svg width="29" height="16" viewBox="0 0 29 16" fill="none" xmlns="http://www.w3.org/2000/svg">
<g clip-path="url(#clip0_830_302)">
<path d="M16.2714 7.99987C16.2714 12.4181 12.714 16 8.32574 16C3.93743 16 0.380371 12.4192 0.380371 7.99987C0.380371 3.58053 3.9377 0 8.32574 0C12.7138 0 16.2714 3.58161 16.2714 7.99987ZM24.9878 7.99987C24.9878 12.1591 23.209 15.5305 21.015 15.5305C18.821 15.5305 17.0422 12.158 17.0422 7.99987C17.0422 3.8417 18.821 0.469184 21.015 0.469184C23.209 0.469184 24.9878 3.8417 24.9878 7.99987ZM28.553 7.99987C28.553 11.7264 27.9273 14.747 27.1557 14.747C26.3841 14.747 25.7584 11.7253 25.7584 7.99987C25.7584 4.27446 26.384 1.25269 27.1559 1.25269C27.9278 1.25269 28.553 4.27365 28.553 7.99987Z" fill="black"/>
</g>
<defs>
<clipPath id="clip0_830_302">
<rect width="28.1726" height="16" fill="white" transform="translate(0.380371)"/>
</clipPath>
</defs>
</svg>
