<svg width="40" height="16" viewBox="0 0 40 16" fill="none" xmlns="http://www.w3.org/2000/svg">
<g clip-path="url(#clip0_807_3095)">
<path d="M9.64543 4.08511L9.65758 4.08241V3.98923H7.20318L4.92433 9.38385L2.64549 3.9889H0.00101283V4.08275L0.0128291 4.08545C0.460833 4.18741 0.688043 4.33933 0.688043 4.88693V11.2991C0.688043 11.847 0.459821 11.999 0.0118162 12.1006L0 12.1029V12.1971H1.79438V12.1033L1.78256 12.1006C1.33456 11.9986 1.10735 11.847 1.10735 11.2991V5.25864L4.0344 12.1971H4.2005L7.21331 5.06519V11.4571C7.17482 11.8899 6.9493 12.0233 6.54383 12.1154L6.53168 12.1185V12.2113H9.65758V12.1188L9.64543 12.1161C9.23929 12.0236 9.0087 11.8899 8.97021 11.4578L8.96819 4.88659H8.97021C8.97021 4.33899 9.19776 4.18707 9.64543 4.08511ZM11.0735 8.33288C11.1241 7.18097 11.535 6.34944 12.2247 6.33493C12.4371 6.3383 12.6154 6.40886 12.7541 6.54424C13.0485 6.83188 13.1869 7.4335 13.1657 8.33288H11.0735ZM11.0424 8.65766H14.7055V8.64213C14.6954 7.76098 14.4421 7.07564 13.9533 6.60535C13.5313 6.19887 12.9057 5.97504 12.2491 5.97504H12.2345C11.8936 5.97504 11.4756 6.05809 11.1778 6.209C10.832 6.3719 10.5289 6.613 10.2923 6.91325C9.89222 7.41257 9.64982 8.08711 9.59074 8.84571C9.58394 8.93054 9.57944 9.01553 9.57723 9.1006C9.57566 9.16632 9.57554 9.23238 9.57689 9.29878C9.61639 11.0162 10.5377 12.3889 12.1738 12.3889C13.6099 12.3889 14.4459 11.3315 14.6545 9.91221L14.5492 9.87507C14.1829 10.6377 13.5249 11.0999 12.7761 11.0435C11.7538 10.9666 10.9709 9.92268 11.0418 8.658M18.8479 10.9851C18.7277 11.2721 18.4769 11.4304 18.141 11.4304C17.805 11.4304 17.4978 11.1978 17.2794 10.7758C17.0451 10.3227 16.9215 9.68196 16.9215 8.92336C16.9215 7.34403 17.4094 6.32244 18.1639 6.32244C18.4803 6.32244 18.7291 6.48044 18.8479 6.75592V10.9851ZM21.278 12.111C20.83 12.0044 20.6028 11.8453 20.6028 11.2697V3.61111L17.881 4.41867V4.51759L17.8979 4.51624C18.273 4.48585 18.5279 4.53785 18.6757 4.67559C18.7915 4.78362 18.8479 4.94871 18.8479 5.18132V6.23128C18.5795 6.05876 18.2605 5.97436 17.8729 5.97436C17.0876 5.97436 16.3695 6.30758 15.852 6.91257C15.3122 7.54288 15.0269 8.40479 15.0269 9.40411C15.0269 11.189 15.8993 12.3886 17.1977 12.3886C17.9573 12.3886 18.5684 11.9692 18.8479 11.2623V12.2113H21.2898V12.1134L21.278 12.111ZM23.6122 4.65263C23.6122 4.09558 23.1949 3.67492 22.6416 3.67492C22.0906 3.67492 21.6598 4.10436 21.6598 4.65263C21.6598 5.20091 22.0913 5.63034 22.6416 5.63034C23.1953 5.63034 23.6122 5.21002 23.6122 4.65263ZM24.2547 12.111C23.8067 12.0044 23.5795 11.8453 23.5795 11.2697H23.5775V5.99293L21.1352 6.6992V6.79508L21.1497 6.79644C21.6784 6.8437 21.8229 7.02702 21.8229 7.64889V12.2116H24.2672V12.1137L24.2547 12.111ZM30.5126 12.111C30.0646 12.0044 29.8374 11.8453 29.8374 11.2697V5.99293L27.5116 6.67591V6.77213L27.5251 6.77348C27.9572 6.81939 28.0821 7.01318 28.0821 7.63775V10.9733C27.9383 11.2603 27.6679 11.4311 27.3408 11.4426C26.8097 11.4426 26.5173 11.0813 26.5173 10.4257V5.99293L24.0751 6.6992V6.79508L24.0899 6.79644C24.6183 6.8437 24.7631 7.02702 24.7631 7.64889V10.472C24.7617 10.669 24.7787 10.8658 24.8138 11.0597L24.8577 11.2522C25.0649 11.999 25.6068 12.3889 26.4555 12.3889C27.1743 12.3889 27.8046 11.9406 28.0821 11.2393V12.2133H30.5241V12.1151L30.5126 12.111ZM40 12.2116V12.1134L39.9882 12.1104C39.502 11.9976 39.3126 11.7849 39.3126 11.3514V7.76199C39.3126 6.64282 38.6887 5.97436 37.6432 5.97436C36.8812 5.97436 36.2387 6.41798 35.9913 7.10872C35.7948 6.37679 35.2293 5.97436 34.393 5.97436C33.6587 5.97436 33.0831 6.36464 32.836 7.02432V5.99327L30.3941 6.67051V6.76706L30.4086 6.76841C30.9309 6.815 31.0818 7.00373 31.0818 7.60973V12.2116H33.3606V12.1137L33.3481 12.1104C32.9606 12.0189 32.8353 11.8514 32.8353 11.4216V7.30791C32.9379 7.06652 33.1449 6.78057 33.5534 6.78057C34.0612 6.78057 34.3184 7.13505 34.3184 7.83255V12.212H36.5976V12.1141L36.5858 12.1107C36.1979 12.0192 36.0726 11.8518 36.0726 11.422V7.76165C36.0738 7.62481 36.063 7.48813 36.0405 7.35315C36.1493 7.09083 36.368 6.78057 36.7934 6.78057C37.3079 6.78057 37.5581 7.12493 37.5581 7.83255V12.212L40 12.2116Z" fill="black"/>
</g>
<defs>
<clipPath id="clip0_807_3095">
<rect width="40" height="8.77778" fill="white" transform="translate(0 3.61111)"/>
</clipPath>
</defs>
</svg>
