<svg width="18" height="16" viewBox="0 0 18 16" fill="none" xmlns="http://www.w3.org/2000/svg">
<g clip-path="url(#clip0_876_2989)">
<path d="M15.9862 3.6723C16.181 3.31935 16.2852 2.92363 16.2895 2.52053C16.2807 2.10971 16.1723 1.70717 15.9737 1.34742C15.7751 0.987677 15.4922 0.681465 15.1493 0.45504C14.2202 -0.17459 12.8304 -0.262892 11.8437 0.915745C10.7935 0.781001 9.72635 0.914401 8.74165 1.30351C7.75704 0.914047 6.68974 0.780635 5.63956 0.915745C4.65288 -0.262892 3.25925 -0.17459 2.334 0.455041C1.99051 0.680859 1.70718 0.986937 1.50851 1.34681C1.30984 1.70669 1.20181 2.10954 1.19376 2.52053C1.19995 2.92337 1.30404 3.31866 1.49705 3.6723C0.752247 4.74344 0.237793 6.01805 0.237793 7.31187C0.237793 8.87059 0.905816 9.67682 1.15536 10.0224L1.355 9.82271C2.06142 11.6195 3.26693 12.5869 4.72583 13.4661C4.72583 13.4661 4.75654 13.2895 4.78726 13.1283C6.35749 14.4874 7.10614 14.1533 8.7378 16C10.3656 14.161 11.1335 14.4758 12.6884 13.1283C12.7191 13.2857 12.7498 13.4661 12.7498 13.4661C13.3986 13.0745 15.2299 12.0917 16.1206 9.82271L16.3202 10.0224C16.4738 9.81119 17.2378 8.95889 17.2378 7.31187C17.2455 6.01805 16.731 4.74728 15.9862 3.6723Z" fill="#707271"/>
<path d="M15.5372 3.69533C17.0345 1.39564 13.6368 -0.996182 11.9936 1.31886C10.8938 1.13891 9.76544 1.27746 8.74182 1.71814C7.71819 1.27746 6.58983 1.13891 5.49 1.31886C3.84298 -0.996182 0.449117 1.39564 1.94641 3.69533C0.2418 6.03725 0.410726 8.34845 1.2016 9.43495L1.52794 9.10862C1.52794 9.10862 1.99248 11.3661 4.44957 12.8518L4.53788 12.3643C6.05052 13.9806 7.43264 13.9422 8.73797 15.4203C10.0433 13.946 11.4254 13.9806 12.9381 12.3643L13.0264 12.8518C15.4835 11.3699 15.948 9.10862 15.948 9.10862L16.2743 9.43495C17.0767 8.34461 17.2457 6.04109 15.5372 3.69533Z" fill="#12173F"/>
<path d="M8.75703 12.2913C8.75703 12.2913 7.57839 12.3105 7.40179 12.418C7.40179 12.418 7.19831 12.7674 8.75703 12.7635C10.239 12.7559 10.0201 12.4871 10.0316 12.4449C9.61568 12.3363 9.18689 12.2846 8.75703 12.2913Z" fill="#5D76A9"/>
<path d="M7.73589 10.9207C7.73589 10.9207 7.92017 10.3871 8.11597 10.556C8.38855 10.7902 8.74176 11.2662 8.74176 11.3162V11.9496L8.31177 11.9727C7.96036 12.0188 7.61174 12.0841 7.2675 12.1685C6.16948 9.45029 6.77992 7.39632 7.0717 6.65919C5.9852 6.89338 5.80859 5.58805 5.80859 5.58805C5.97251 5.58098 6.13503 5.62094 6.27697 5.70322C6.59774 5.86847 6.90125 6.06524 7.18303 6.29062C7.26365 6.35205 7.33659 6.41348 7.4057 6.47107C8.14666 7.09302 8.74558 6.96632 8.74558 6.96632V9.6269C8.74176 9.63074 6.58412 9.46181 7.73589 10.9207Z" fill="#5D76A9"/>
<path d="M9.75922 10.9207C11.1337 9.52709 8.89156 9.60771 8.74951 9.63075C8.97986 9.64227 10.7152 9.65379 9.75922 10.9207Z" fill="#5D76A9"/>
<path d="M10.6689 6.70529C11.9051 10.0339 10.3387 12.1762 10.3272 12.1877C11.2985 9.63845 10.6766 7.52304 10.2504 6.736C10.0908 6.74962 9.93046 6.75219 9.77051 6.74368C9.96068 6.62573 10.1416 6.49354 10.3118 6.34824C10.3272 6.33289 10.3425 6.32137 10.3617 6.30217C10.6332 6.0525 10.9464 5.85239 11.287 5.71094C11.4389 5.652 11.5975 5.61203 11.7592 5.59192C11.7592 5.59192 11.644 6.68994 10.6689 6.70529Z" fill="#5D76A9"/>
<path d="M12.627 2.39769C12.627 2.39769 13.13 1.13843 14.6772 1.44173C14.6772 1.44173 13.2567 0.508802 12.27 2.19422C12.27 2.19422 10.8533 1.53003 8.74174 2.44376C8.74174 2.44376 6.75687 1.74503 5.24806 2.14047C5.24806 2.14047 4.36888 0.612461 3.12882 1.24209C1.88875 1.87172 2.53758 3.32294 2.75258 3.70302C2.75258 3.70302 0.698598 5.79539 1.47028 8.37918L1.88491 7.86472C1.88491 7.86472 2.47615 10.6827 3.99648 11.5696L4.08862 10.8785C4.08862 10.8785 5.67806 12.7943 7.54391 13.6082C7.72052 13.6927 8.71103 14.1841 8.74175 14.4259V13.0861C8.74175 13.0861 7.44793 13.1936 7.1024 12.5946C6.86821 12.1877 5.3786 9.53095 6.11573 6.74752C6.11573 6.74752 5.3978 6.64002 5.26342 5.43067C4.88685 5.26549 4.47577 5.19434 4.06559 5.22335C4.06559 5.22335 5.2519 4.85095 6.36528 5.28094C7.47865 5.71093 7.77811 6.80895 8.53059 6.32521L8.73791 3.23464L8.96442 6.32521C9.71691 6.80895 10.0164 5.71477 11.1297 5.28094C12.2431 4.85095 13.4333 5.22335 13.4333 5.22335C13.0543 4.98424 12.6335 4.81882 12.1932 4.73577C11.5559 4.60908 10.6191 5.01604 10.6191 5.01604C10.6191 5.01604 10.7497 4.1407 11.1758 3.67231C11.5444 3.26919 12.3736 3.18089 12.627 2.39769ZM3.02132 3.46115C2.97525 3.03884 3.5089 2.62421 3.5089 2.62421C3.29007 2.39769 2.90615 2.59349 2.90615 2.59349C3.25168 1.91395 4.03104 2.24797 4.03104 2.24797C3.73542 1.88708 3.11346 1.91012 3.11346 1.91012C3.88515 1.14228 4.81807 2.31323 4.81807 2.31323C3.9888 2.50135 3.02132 3.46115 3.02132 3.46115Z" fill="#5D76A9"/>
<path d="M7.18267 6.29449C7.06366 6.2561 6.86786 6.37895 6.75652 6.59395C6.38795 6.48645 6.26126 6.08717 6.27662 5.70709C6.59738 5.87234 6.9009 6.06911 7.18267 6.29449Z" fill="#FFBB22"/>
<path d="M10.8072 6.59392C10.692 6.36741 10.4808 6.24456 10.3618 6.30214C10.6333 6.05248 10.9464 5.85236 11.2871 5.71091C11.3024 6.09099 11.1757 6.49027 10.8072 6.59392Z" fill="#FFBB22"/>
</g>
<defs>
<clipPath id="clip0_876_2989">
<rect width="17.0001" height="16" fill="white" transform="translate(0.237793)"/>
</clipPath>
</defs>
</svg>
