<svg width="21" height="16" viewBox="0 0 21 16" fill="none" xmlns="http://www.w3.org/2000/svg">
<g clip-path="url(#clip0_879_3910)">
<path fill-rule="evenodd" clip-rule="evenodd" d="M18.9815 7.68857C18.3356 7.77621 17.2068 8.24369 17.4212 8.49471C17.6356 8.74541 18.261 9.09018 18.3498 9.13367C18.0518 9.13367 17.0721 9.23495 16.9627 9.51268C16.8531 9.79037 18.3803 10.7213 18.9395 10.9401C18.2439 10.7442 16.5849 10.4175 16.4746 10.6412C16.3644 10.8649 16.6511 11.5564 16.9131 11.7622C16.7213 11.7047 15.7193 11.4198 15.5585 11.7903C15.3818 12.198 16.3612 13.6936 16.4723 13.9731C16.0208 13.525 14.784 12.5207 14.6088 12.6356C14.4335 12.7506 14.4767 13.3103 14.5223 13.595C14.3526 13.3881 14.0609 13.0564 13.809 13.1556C13.5571 13.2549 13.5882 14.216 13.5719 14.6254C13.3642 14.1437 13.0249 13.1739 12.7109 13.2093C12.397 13.2447 12.0447 13.9046 11.9777 14.1568C11.9298 13.9043 11.7243 13.3492 11.4136 13.3492C11.1028 13.3492 10.3802 14.8184 10.1617 15.2958C10.1608 14.9263 10.2493 13.124 10.0534 13.0346C9.85758 12.9452 9.19656 13.3562 9.05462 13.543C9.10717 13.3062 9.15189 12.5059 8.9757 12.4093C8.79929 12.3123 8.29668 12.2819 7.38786 13.1223C7.5387 12.7998 7.78716 12.449 7.84751 12.1089C8.22383 12.0895 8.59642 12.0468 8.97222 11.9734C9.79226 12.5668 10.8004 12.9171 11.89 12.9171C14.6421 12.9171 16.873 10.6862 16.873 7.93409C16.873 7.71846 16.8591 7.50604 16.8327 7.29798C17.0173 7.12417 17.1943 6.95586 17.3591 6.79885C17.3214 6.88913 17.3005 6.99793 17.304 7.132C17.3147 7.55217 18.4032 7.64187 18.9815 7.68857ZM6.58824 9.47954C6.43128 9.3945 5.70121 9.36088 5.70121 9.36088C5.70121 9.36088 6.52327 8.80836 6.50413 8.40879C6.48494 8.00949 5.17391 7.8049 4.65563 7.68998C5.11295 7.59363 6.59405 7.25907 6.65765 6.96105C6.72147 6.66333 6.19475 6.45175 5.9734 6.34788C6.22146 6.35109 6.85031 6.45642 6.93503 6.14941C7.03196 5.79743 5.48351 4.88073 5.13064 4.75361C5.2096 4.77219 6.68433 5.11634 7.22351 4.9997C7.62484 4.91264 7.15705 4.37262 7.07984 4.30875C7.19824 4.3665 7.87436 4.50581 8.06789 4.18485C8.26147 3.86389 7.60476 2.58566 7.23711 2.04388C7.56357 2.36946 9.05453 3.43008 9.2768 3.24958C9.49939 3.06912 9.32931 2.48614 9.21008 2.29375C9.45035 2.51862 9.68685 2.81924 9.99214 2.81286C10.145 2.80969 10.3374 2.30418 10.3691 1.16173C10.5759 1.80188 11.0698 2.67184 11.4326 2.61902C11.7956 2.56651 11.9195 2.02764 11.9697 1.7981C12.0115 2.04445 12.2021 2.67765 12.4442 2.70084C12.7413 2.74728 13.3098 1.42494 13.5167 0.827432C13.5481 1.12255 13.3316 2.63817 13.6519 2.76414C13.972 2.89033 14.5013 2.25224 14.8016 1.89471C14.6194 2.24062 14.2633 3.07722 14.4755 3.27744C14.6876 3.47766 15.4209 3.26789 15.7067 3.03223C15.6266 3.2075 15.6095 3.34769 15.6313 3.47942C15.3054 3.54325 14.9691 3.637 14.6217 3.7664C13.8371 3.25134 12.8986 2.95129 11.8899 2.95129C9.13811 2.95129 6.90717 5.18223 6.90717 7.93404C6.90717 8.59651 7.03658 9.22852 7.27135 9.80657C6.98785 10.0167 6.71624 10.1833 6.43793 10.3118C6.64137 10.0695 6.81809 9.60375 6.58824 9.47954ZM20.5538 3.91693C20.5505 3.84132 20.536 3.79638 20.536 3.79638L20.5358 3.79598C20.4438 3.47458 20.1157 3.27608 19.6687 3.27608C19.6212 3.27608 19.5729 3.2785 19.5251 3.28329C19.1827 3.31727 18.5737 3.52348 18.393 3.58669C17.8254 3.44324 17.2933 3.37339 16.7682 3.37339C16.4967 3.37339 16.2268 3.39263 15.9575 3.43022L15.9579 3.43004L15.8468 3.44505C15.8468 3.44505 15.8036 3.30446 15.9166 2.9762C15.9752 2.806 16.0556 2.64943 16.0556 2.64943C16.0556 2.64943 14.8196 3.29192 14.6652 3.08681C14.5108 2.88175 15.2021 1.25142 15.2021 1.25142C15.2021 1.25142 14.0105 2.57536 13.7764 2.51664C13.6846 2.49362 13.6759 2.01412 13.6713 1.49809C13.6651 0.799311 13.6895 0 13.6895 0C13.6895 0 12.7083 2.43935 12.4689 2.42668C12.2613 2.41567 11.9593 1.11358 11.9593 1.11358C11.9593 1.11358 11.7698 2.23561 11.4292 2.37285C11.0887 2.51008 10.2127 0.411711 10.2127 0.411711C10.2127 0.411711 10.1722 2.51198 9.92858 2.55912C9.68491 2.60621 8.90924 1.82129 8.90924 1.82129C8.90924 1.82129 9.27289 2.86744 9.14973 3.00521C9.07623 3.08747 8.33013 2.62615 7.55388 2.06941C7.10546 1.7477 6.7305 1.47815 6.7305 1.47815C6.7305 1.47815 7.16801 2.2048 7.51586 2.96432C7.7553 3.48722 7.90059 3.98903 7.83796 4.0867C7.68434 4.32627 6.53225 3.98485 6.53225 3.98485C6.53225 3.98485 7.18711 4.61571 7.14485 4.77817C7.12439 4.85705 6.47314 4.80009 5.81133 4.70964C5.10934 4.61365 4.39498 4.48125 4.39498 4.48125C4.39498 4.48125 6.73292 5.84052 6.65954 6.0852C6.60149 6.27873 5.14644 6.12019 5.14644 6.12019C5.14644 6.12019 6.41152 6.69819 6.40637 6.88917C6.40127 7.0802 3.93014 7.70543 3.93014 7.70543C3.93014 7.70543 6.16816 8.17362 6.21099 8.42318C6.25377 8.67279 5.32831 9.47364 5.32831 9.47364C5.32831 9.47364 6.40575 9.571 6.45923 9.71211C6.51275 9.85314 6.19739 10.4105 5.9237 10.4988C5.58549 10.608 5.27752 10.6775 4.90251 10.6775C4.84855 10.6775 4.79582 10.676 4.74428 10.6731C4.76281 10.6491 4.78116 10.6244 4.7971 10.6008C4.88935 10.4657 4.95806 10.3214 4.99547 10.1837L4.99587 10.1822L4.99622 10.1808C5.01541 10.1052 5.02531 10.0298 5.02567 9.95688V9.95371L5.02558 9.95059C5.02298 9.86766 4.99604 9.79702 4.94714 9.74891C4.8555 9.66902 4.77003 9.67853 4.70876 9.70578L4.49617 9.81C4.48037 9.81696 4.4625 9.82369 4.44088 9.83021C4.40017 9.8424 4.31439 9.85697 4.13661 9.85697C3.96803 9.85697 3.76739 9.84442 3.57338 9.83228C3.57338 9.83228 3.45423 9.82563 3.43122 9.82563C3.19976 9.82563 3.04527 9.89931 2.95218 9.96674L2.90155 9.94007C2.4282 9.68865 1.87728 9.58694 1.53324 9.52347C1.50651 9.51849 1.48098 9.514 1.45692 9.50925C1.07696 9.43473 0.868985 9.20924 0.852065 9.19093C0.819881 9.15612 0.777953 9.111 0.723251 9.07944C0.723251 9.07944 0.624358 9.01773 0.477815 9.06285C0.382201 9.09648 0.341805 9.17104 0.341805 9.17104C0.259858 9.30718 0.338063 9.507 0.441164 9.73245C0.558459 9.98857 0.926147 10.6282 1.80622 11.0365C2.09434 11.1703 2.47341 11.2655 2.93283 11.3195C3.27867 11.3601 3.57068 11.3653 3.68704 11.3655C3.79908 11.42 4.14392 11.5794 4.65665 11.7397C5.21955 11.9156 6.09919 12.1247 7.10704 12.1295C7.10704 12.1295 7.46467 12.134 7.65776 12.1217C7.67721 12.2022 7.53751 12.4901 7.36964 12.8275C7.17073 13.2273 6.91549 13.7003 6.91549 13.7003C6.91549 13.7003 7.37659 13.2928 7.80635 12.9907C8.23889 12.6866 8.7234 12.4423 8.83793 12.5831C9.0544 12.8491 8.82345 13.947 8.82345 13.947C8.82345 13.947 9.69728 13.1737 9.89988 13.2785C9.99266 13.3264 10.002 13.9042 10.0023 14.5128C10.0028 15.234 9.98417 16 9.98417 16C9.98417 16 11.1878 13.5645 11.4382 13.6341C11.6886 13.7037 11.9627 14.8141 11.9627 14.8141C11.9627 14.8141 12.42 13.4613 12.6994 13.4941C12.8111 13.4804 13.0511 13.9192 13.2644 14.3677C13.4982 14.8593 13.6985 15.3398 13.6985 15.3398C13.6985 15.3398 13.7034 14.8375 13.7384 14.3242C13.7701 13.8604 13.829 13.4077 13.9309 13.3826C14.1457 13.3297 14.7686 14.1646 14.7686 14.1646C14.7686 14.1646 14.5483 13.001 14.7209 12.9024C14.8935 12.8038 16.9667 14.5962 16.9667 14.5962C16.9667 14.5962 15.6062 12.0753 15.7716 11.8828C15.9371 11.6903 17.3903 12.083 17.3903 12.083C17.3903 12.083 17.1737 11.8273 16.9885 11.5384C16.7948 11.2364 16.6335 10.8989 16.7093 10.8177C16.7781 10.744 17.5358 10.8208 18.3185 10.9726C19.221 11.1476 19.8081 11.2724 19.8081 11.2724C19.8081 11.2724 19.2765 10.9848 18.4926 10.5131C17.8139 10.1048 17.2168 9.64508 17.2423 9.57056C17.2972 9.40982 18.9182 9.25564 18.9182 9.25564C18.9182 9.25564 18.6461 9.0956 18.3538 8.91685C18.0365 8.72279 17.6976 8.48119 17.6976 8.39272C17.6976 8.31543 18.1041 8.12379 18.6402 7.95891C19.2829 7.76128 19.8774 7.6288 19.8774 7.6288C19.8774 7.6288 17.6675 7.45138 17.5295 7.13632C17.4353 6.92113 17.6084 6.64053 17.7352 6.45924C17.8622 6.27803 18.0437 6.11354 18.0437 6.11354C18.6475 5.55605 19.416 5.04275 19.6614 4.89182C19.6788 4.88112 19.6954 4.8706 19.7123 4.86004C19.7123 4.86004 20.2791 4.44155 20.3374 4.39265C20.3882 4.35004 20.5178 4.21403 20.547 4.04097C20.547 4.04097 20.5572 3.99321 20.5538 3.91693Z" fill="white"/>
<path fill-rule="evenodd" clip-rule="evenodd" d="M14.6218 3.7664C14.9692 3.63699 15.3055 3.54324 15.6314 3.47942C15.6096 3.34768 15.6267 3.2075 15.7068 3.03223C15.421 3.26788 14.6877 3.47766 14.4756 3.27744C14.2635 3.07721 14.6196 2.24062 14.8017 1.89471L14.7879 1.91126C14.4853 2.27152 13.9672 2.88843 13.652 2.76409C13.4209 2.67324 13.4692 1.85901 13.5023 1.30165C13.5151 1.08649 13.5256 0.909621 13.5168 0.827423C13.3099 1.42489 12.7414 2.74728 12.4443 2.70084C12.2023 2.67764 12.0117 2.04444 11.9699 1.79809C11.9197 2.02763 11.7957 2.56651 11.4327 2.61902C11.07 2.67183 10.5761 1.80188 10.3692 1.16172C10.3376 2.30418 10.1452 2.80969 9.99226 2.81286C9.74032 2.81814 9.53526 2.61431 9.33627 2.41655C9.2941 2.37464 9.25224 2.33305 9.21021 2.2937C9.32944 2.48613 9.49952 3.06911 9.27693 3.24957C9.05466 3.43008 7.5637 2.36945 7.23724 2.04387C7.60489 2.58565 8.2616 3.86389 8.06802 4.18485C7.87449 4.5058 7.19837 4.3665 7.07997 4.30875C7.15717 4.37261 7.62497 4.91263 7.22364 4.9997C6.68445 5.11633 5.20973 4.77218 5.13081 4.75361C5.48368 4.88072 7.03208 5.79738 6.93516 6.14941C6.86483 6.40421 6.41966 6.37499 6.1285 6.35584C6.06886 6.35192 6.01569 6.3484 5.97352 6.34787C5.99175 6.35646 6.01208 6.36574 6.03396 6.37573C6.27767 6.48722 6.71636 6.68784 6.65778 6.96104C6.59418 7.25907 5.11308 7.59363 4.65576 7.68998C4.72575 7.70551 4.81021 7.72263 4.90396 7.74169C5.50459 7.8637 6.48766 8.0634 6.50426 8.40874C6.5234 8.80835 5.70134 9.36087 5.70134 9.36087C5.70134 9.36087 6.43141 9.3945 6.58837 9.47954C6.81821 9.60375 6.6415 10.0695 6.43806 10.3118C6.71636 10.1832 6.98798 10.0166 7.27148 9.80657C7.03671 9.22852 6.9073 8.59651 6.9073 7.93404C6.9073 5.18223 9.13824 2.95128 11.8901 2.95128C12.8987 2.95128 13.8372 3.25133 14.6218 3.7664ZM16.9131 11.7621C16.651 11.5563 16.3643 10.8649 16.4746 10.6411C16.5849 10.4174 18.2438 10.7441 18.9394 10.94C18.3802 10.7212 16.853 9.79028 16.9627 9.51259C17.0721 9.2349 18.0517 9.13362 18.3498 9.13362C18.261 9.09009 17.6356 8.74532 17.4212 8.49461C17.2068 8.2436 18.3356 7.77611 18.9815 7.68848C18.4032 7.64178 17.3147 7.55212 17.3039 7.13191C17.3005 6.99784 17.3214 6.88904 17.3591 6.79881C17.1943 6.95576 17.0173 7.12408 16.8327 7.29789C16.8591 7.50595 16.873 7.71837 16.873 7.93399C16.873 10.6861 14.6421 12.917 11.89 12.917C10.8003 12.917 9.79226 12.5668 8.97222 11.9733C8.59642 12.0467 8.22383 12.0894 7.84746 12.1089C7.80587 12.3434 7.67479 12.583 7.54798 12.8149C7.4909 12.9193 7.43464 13.0221 7.38781 13.1222C8.29663 12.2818 8.79924 12.3123 8.9757 12.4092C9.15184 12.5058 9.10717 13.3061 9.05461 13.5429C9.19652 13.3561 9.85753 12.9452 10.0534 13.0345C10.2134 13.1076 10.1836 14.3238 10.1679 14.9681C10.1644 15.1124 10.1615 15.228 10.1617 15.2957C10.3802 14.8183 11.1027 13.3491 11.4135 13.3491C11.7243 13.3491 11.9298 13.9042 11.9776 14.1567C12.0447 13.9045 12.3969 13.2447 12.7109 13.2092C12.9776 13.1792 13.2625 13.8742 13.4696 14.3795C13.5063 14.4691 13.5406 14.5527 13.5719 14.6253C13.5745 14.5596 13.5759 14.4797 13.5775 14.3914C13.5855 13.9296 13.5975 13.2389 13.809 13.1555C14.0609 13.0563 14.3525 13.388 14.5222 13.5949C14.4767 13.3102 14.4335 12.7505 14.6088 12.6355C14.784 12.5206 16.0208 13.5249 16.4723 13.973C16.4442 13.9025 16.361 13.7547 16.2549 13.5664C15.9406 13.0083 15.4263 12.0951 15.5585 11.7902C15.7193 11.4197 16.7213 11.7046 16.9131 11.7621Z" fill="#FC4C02"/>
<path fill-rule="evenodd" clip-rule="evenodd" d="M18.401 3.76847C18.401 3.76847 19.1624 3.49426 19.5423 3.45654C19.9169 3.41908 20.3008 3.54646 20.3751 3.86685H20.3748C20.1975 3.58885 18.5135 4.14801 18.0347 4.34071C17.9047 4.39322 17.1036 4.75449 16.2852 5.22171L16.2849 5.22202C16.2848 5.22193 16.2848 5.22189 16.2848 5.22189C16.2847 5.22185 16.2846 5.22189 16.2846 5.22193C16.2845 5.22198 16.2845 5.22202 16.2844 5.22202C16.2829 5.22259 16.2791 5.22431 16.2736 5.22721C15.7893 5.3961 14.8433 5.91614 14.4835 6.25272C14.049 6.65876 13.7864 7.12399 13.472 7.68105C13.1714 8.21363 12.8234 8.83019 12.2325 9.55908C11.6945 10.2227 11.2296 10.6882 10.8629 10.9941C10.6287 11.1917 10.4227 11.3309 10.2712 11.4113C10.2654 11.3927 10.2639 11.3783 10.2639 11.3783C10.2631 11.373 10.2628 11.3672 10.2628 11.3608C10.2628 11.2515 10.3769 11.0168 10.484 10.7966L10.4841 10.7965C10.5069 10.7496 10.5294 10.7034 10.5504 10.6592C10.6313 10.4888 10.687 10.3498 10.687 10.3495C10.873 9.88787 10.9719 9.44679 10.9995 9.31506C11.0416 9.14846 11.1495 8.67781 11.1495 8.67781C11.1495 8.67781 9.20588 10.4238 7.19114 11.0085C6.50486 11.2076 5.7655 11.3695 5.2147 11.3812C5.2147 11.3812 4.74259 11.3608 4.71125 11.351C4.23277 11.2712 3.66311 11.0503 3.16196 10.5153C3.09783 10.4645 3.0337 10.4113 2.96957 10.3557C2.97313 10.3593 2.9836 10.3735 3.00002 10.3958C3.07477 10.4975 3.27289 10.7668 3.50438 10.9702C3.49997 10.9706 3.4954 10.9709 3.49065 10.9713C3.48807 10.9716 3.48544 10.9717 3.48274 10.972C3.38966 10.9797 3.22561 10.9932 2.78211 10.9302C1.10282 10.6914 0.574101 9.37685 0.560465 9.21928C0.537859 9.22566 0.518097 9.23262 0.503906 9.24569C0.518097 9.23235 0.537859 9.22535 0.560465 9.21897C0.624111 9.20097 0.672818 9.25366 0.724113 9.30916C0.743911 9.3306 0.764101 9.35243 0.785677 9.37074L0.791843 9.37602C0.873368 9.44552 1.07088 9.61392 1.42466 9.68038C1.44888 9.68491 1.47451 9.68967 1.50138 9.69464C1.87723 9.76401 2.49843 9.87867 2.9745 10.1841L2.97482 10.1836C3.01122 10.2054 3.05233 10.2318 3.09828 10.2614C3.58313 10.5728 4.60645 11.2301 6.30873 10.5637C7.16764 10.2277 7.93517 9.55503 9.0756 8.42679C9.26103 8.24369 9.44471 8.0513 9.6319 7.85279C9.60519 7.71903 9.53208 7.47704 9.37103 7.3769C9.1212 7.22078 8.74249 7.21471 8.49262 7.23298C8.43826 7.23703 8.38954 7.24178 8.34561 7.24609H8.34557C8.18742 7.26159 8.09222 7.27092 8.02545 7.21731C7.9883 7.18768 7.98627 7.13922 8.00656 7.08412C8.16387 6.89261 8.44126 6.64885 9.15571 6.55479C9.55479 6.50233 9.83446 6.51311 10.0791 6.52253C10.3877 6.53441 10.6405 6.54414 11.0071 6.42191C11.1371 6.29044 11.2888 6.15351 11.4072 6.04668C11.6809 5.79888 11.9742 5.55196 12.2934 5.30935C12.613 5.06674 12.9583 4.82879 13.3361 4.59868C15.3604 3.36684 17.0104 3.40746 18.401 3.76847ZM4.76517 9.8626H4.76486C4.73304 9.86679 4.70897 9.88342 4.67767 9.90503C4.63762 9.93263 4.58577 9.96846 4.49065 9.99694C4.30557 10.0525 3.92339 10.0286 3.56204 10.006C3.53813 10.0046 3.51432 10.0031 3.49066 10.0016C3.21296 9.98448 3.06644 10.0889 3.00693 10.147L3.01812 10.1534L3.02623 10.158C3.21894 10.2678 3.75644 10.5741 4.21785 10.6629C4.24368 10.6679 4.3061 10.6783 4.36468 10.6841C4.42304 10.6899 4.49237 10.687 4.5072 10.6862C4.50835 10.685 4.59831 10.5834 4.65289 10.5031C4.74281 10.3713 4.79854 10.2436 4.82723 10.138C4.8429 10.0762 4.85109 10.0156 4.85135 9.95605C4.84796 9.84905 4.78199 9.85987 4.76667 9.86238C4.7661 9.86247 4.76561 9.86256 4.76517 9.8626ZM15.9292 7.8546C15.7862 8.29567 15.5664 8.89868 15.2975 9.40881C14.9776 10.015 14.5563 10.4337 14.3343 10.5945C14.2975 10.5722 14.2835 10.5252 14.2824 10.4767C14.2819 10.4532 14.2956 10.4032 14.3173 10.3239C14.3753 10.1115 14.4907 9.68949 14.545 9.00634C14.7847 8.82614 15.0001 8.65461 15.1904 8.49647C15.4324 8.2951 15.6817 8.07718 15.9292 7.8546Z" fill="#008E97"/>
<path fill-rule="evenodd" clip-rule="evenodd" d="M20.2758 4.202C20.2758 4.202 20.2758 4.2017 20.2761 4.2017C20.2918 4.173 20.3341 4.09434 20.3257 4.04153C20.3069 3.92022 20.0463 3.9542 19.4018 4.17212C19.4006 4.1726 19.3994 4.173 19.3981 4.17339C19.3971 4.17375 19.3961 4.17405 19.3951 4.17445C19.3402 4.19302 19.2831 4.21274 19.2228 4.23391C17.969 4.67433 16.7425 5.73566 15.3689 6.92437C14.6679 7.53094 13.9287 8.17065 13.128 8.77788L13.1457 8.75033C13.4007 8.36648 13.5952 8.01995 13.7733 7.70247C14.0866 7.14414 14.3494 6.67582 14.8021 6.25275C15.1686 5.90305 15.7304 5.5383 16.2846 5.22201C16.2832 5.22258 16.2794 5.22429 16.2739 5.2272C15.7896 5.39608 14.8436 5.91612 14.4837 6.25275C14.0493 6.65874 13.7867 7.12398 13.4723 7.68103C13.1717 8.21366 12.8237 8.83017 12.2328 9.55906C11.6948 10.2227 11.2299 10.6882 10.8631 10.994C10.6289 11.1917 10.423 11.3309 10.2715 11.4113L10.2717 11.4121C10.2744 11.4201 10.2936 11.4786 10.3451 11.4914C10.4331 11.5135 10.7619 11.348 11.1815 10.9937H11.1817L11.1866 10.9914C11.2537 10.9595 12.0067 10.6015 12.3747 10.4006C12.828 10.1534 13.5752 9.68763 13.7383 9.5794C13.7383 9.57909 13.7386 9.57909 13.7386 9.57909C14.0299 9.38525 14.5453 9.00716 14.5453 9.00628C14.785 8.82608 15.0003 8.65455 15.1906 8.49641C15.4326 8.29504 15.6819 8.07712 15.9294 7.85454C15.7864 8.29561 15.5667 8.89862 15.2977 9.40875C14.9779 10.015 14.5566 10.4337 14.3346 10.5945C14.4006 10.6365 14.4968 10.5815 14.5196 10.5685L14.5217 10.5673C14.5225 10.5669 14.523 10.5666 14.5235 10.5663C14.7063 10.4662 15.2217 10.0286 15.567 9.32838C16.0383 8.37246 16.2476 7.62786 16.2687 7.55273L16.2688 7.55242C16.2697 7.54916 16.2702 7.54723 16.2704 7.54665C16.2914 7.52724 16.7431 7.10105 17.1689 6.69928L17.1713 6.69708L17.172 6.69642C17.553 6.33699 17.9123 5.99795 17.9227 5.98835C18.5176 5.43847 19.2924 4.91439 19.5704 4.74348C19.8609 4.56473 20.0373 4.42952 20.1409 4.33867C20.2448 4.24787 20.2758 4.202 20.2758 4.202ZM17.1183 4.09487C17.2788 4.09478 17.655 4.08325 17.8078 4.04632C17.8819 4.02845 17.9352 4.00829 17.9716 3.99452C18.0104 3.97986 18.0298 3.97251 18.0343 3.98303C18.043 4.00341 17.959 4.05116 17.6959 4.159C17.5035 4.23783 17.3265 4.28598 17.0413 4.35694C16.9096 4.39659 16.7237 4.45637 16.7237 4.45637C16.7234 4.45597 16.7231 4.45553 16.7229 4.45513L16.7222 4.45417C16.7219 4.45368 16.7216 4.4532 16.7212 4.45271V4.45267C16.7177 4.44787 16.7149 4.44303 16.7126 4.43819C16.7125 4.43792 16.7123 4.43762 16.7122 4.43735L16.7119 4.43691L16.7118 4.43656C16.6952 4.40016 16.7099 4.36305 16.7271 4.33665C16.2083 4.29848 15.9544 4.5914 15.9544 4.5914C15.9356 4.60562 15.9132 4.63243 15.8893 4.66601C15.9645 4.55091 16.1327 4.33229 16.3825 4.22322C16.6915 4.08827 16.9048 4.0917 17.061 4.09421C17.081 4.09456 17.1001 4.09487 17.1183 4.09487ZM10.9998 9.315C11.0418 9.14845 11.1498 8.67779 11.1498 8.67779C11.1498 8.67779 9.20612 10.4238 7.19138 11.0085C6.50514 11.2076 5.76569 11.3695 5.21493 11.3811L5.22034 11.3812L5.22664 11.3814C5.38866 11.3856 6.63463 11.4179 7.9987 10.9061C9.14749 10.4865 10.2772 9.80136 10.9998 9.315ZM4.85167 9.95603C4.85141 10.0155 4.84322 10.0761 4.82755 10.138C4.79886 10.2436 4.74313 10.3713 4.65321 10.503C4.59863 10.5834 4.50871 10.685 4.50752 10.6862C4.49269 10.687 4.42337 10.6899 4.365 10.6841C4.30642 10.6783 4.244 10.6678 4.21817 10.6629V10.6626C4.21465 10.6578 4.25003 10.6282 4.30497 10.5822C4.49713 10.4214 4.92822 10.0607 4.76549 9.86259L4.76695 9.86237C4.78226 9.85986 4.84829 9.84903 4.85167 9.95603ZM9.15598 6.55469C9.55489 6.50227 9.83452 6.51301 10.0791 6.52243C10.3878 6.53431 10.6407 6.54404 11.0074 6.42172C11.1356 6.29205 11.2851 6.1571 11.4027 6.05085L11.4073 6.04671C11.2214 6.10644 11.0777 6.14196 10.9423 6.16595C10.7843 6.19716 10.6485 6.20812 10.4675 6.22277C10.2959 6.23668 10.0836 6.25385 9.7732 6.29465C8.77054 6.42656 8.30165 6.74079 8.17018 6.86222C8.13052 6.89889 8.10015 6.93062 8.05847 6.98868C8.02977 7.02855 8.00961 7.07583 8.00649 7.08441C8.16393 6.89272 8.44118 6.64871 9.15598 6.55469ZM10.4843 10.7966C10.5071 10.7497 10.5296 10.7034 10.5506 10.6592C10.6315 10.4888 10.6873 10.3498 10.6873 10.3495C10.0289 10.6989 8.97636 11.1466 8.02427 11.3698C6.14937 11.8095 4.9486 11.4282 4.74287 11.3608L4.71589 11.3521L4.71386 11.3515H4.7136C4.71312 11.3514 4.71272 11.3513 4.71241 11.3512C4.7121 11.3512 4.71179 11.3511 4.71153 11.351C4.23304 11.2712 3.66338 11.0503 3.16223 10.5152C3.0981 10.4644 3.03397 10.4113 2.96984 10.3556C2.9734 10.3593 2.98387 10.3735 3.00029 10.3958C3.07505 10.4975 3.27316 10.7668 3.50465 10.9702C3.49784 10.9708 3.49067 10.9713 3.48301 10.9719C3.38993 10.9796 3.22589 10.9932 2.78238 10.9302C1.10309 10.6913 0.574374 9.37684 0.560738 9.21927C0.543907 9.22389 0.528528 9.22913 0.51605 9.23665C0.51605 9.23696 0.515759 9.23696 0.515759 9.23696C0.511697 9.23956 0.507634 9.24246 0.504179 9.24568C0.462655 9.2834 0.469068 9.37451 0.599652 9.66003C0.775183 10.0434 1.17854 10.5532 1.87962 10.8785C2.52063 11.1763 3.49682 11.1914 3.69414 11.1914C3.706 11.1914 3.7151 11.1912 3.72113 11.1911C3.72412 11.1911 3.72636 11.191 3.7278 11.191C3.72809 11.191 3.72809 11.1914 3.72809 11.1914C3.72809 11.1914 5.38214 12.0471 7.48421 11.9476C7.48434 11.9476 7.48509 11.9476 7.4865 11.9476C7.54644 11.9482 8.77068 11.9617 10.2642 11.3782C10.2634 11.373 10.263 11.3672 10.263 11.3608C10.263 11.2515 10.3772 11.0168 10.4843 10.7966Z" fill="#005778"/>
<path fill-rule="evenodd" clip-rule="evenodd" d="M15.8891 4.66607C15.9129 4.63253 15.9354 4.60568 15.9541 4.59151C15.9541 4.59151 16.2081 4.29859 16.7269 4.3367C16.7096 4.36311 16.695 4.40022 16.7115 4.43666C16.7117 4.43688 16.7118 4.43715 16.7119 4.43741C16.7121 4.43767 16.7122 4.43798 16.7124 4.43825C16.7147 4.44313 16.7175 4.44797 16.721 4.45277C16.3986 4.56254 15.8535 4.77879 15.6805 5.03504C15.6805 5.03504 15.7956 4.79785 15.8891 4.66607ZM10.687 10.3496C10.873 9.88791 10.972 9.44684 10.9996 9.31506C10.277 9.80142 9.14736 10.4866 7.99852 10.9062C6.63445 11.4179 5.38852 11.3857 5.22646 11.3815C5.22158 11.3813 5.21766 11.3812 5.21475 11.3812C5.21475 11.3812 4.7592 11.3614 4.71338 11.3516L4.74265 11.3609C4.94837 11.4282 6.14915 11.8095 8.02405 11.3698C8.97614 11.1467 10.0287 10.699 10.687 10.3496Z" fill="white"/>
</g>
<defs>
<clipPath id="clip0_879_3910">
<rect width="20.2469" height="16" fill="white" transform="translate(0.307617)"/>
</clipPath>
</defs>
</svg>
