<svg width="121" height="64" viewBox="0 0 121 64" fill="none" xmlns="http://www.w3.org/2000/svg">
<g clip-path="url(#clip0_755_246)">
<g clip-path="url(#clip1_755_246)">
<path d="M12.9753 32.6398H0.804688V44.7962H12.9611V32.6398H12.9753Z" fill="#00A4EF"/>
<path d="M26.3971 32.6398H14.2549V44.7962H26.4113V32.6398H26.3971Z" fill="#FFB900"/>
<path d="M26.3971 19.2038H14.2549V31.3602H26.4113V19.2038H26.3971Z" fill="#7FBA00"/>
<path d="M12.9753 19.2038H0.804688V31.3602H12.9611V19.2038H12.9753Z" fill="#F25022"/>
<path d="M50.7097 24.3223V39.6777H48.0509V27.6209H48.0225L43.2594 39.6777H41.468L36.5912 27.6209H36.5627V39.6777H34.103V24.3223H37.9419L42.3495 35.6967H42.4206L47.0841 24.3223H50.7097ZM52.9277 25.4882C52.9277 25.0616 53.0699 24.7062 53.3827 24.4218C53.7097 24.1375 54.0651 23.9953 54.4917 23.9953C54.9466 23.9953 55.3447 24.1375 55.6291 24.4218C55.9135 24.7062 56.0841 25.0616 56.0841 25.4882C56.0841 25.9147 55.9419 26.2702 55.6291 26.5545C55.3021 26.8389 54.9466 26.9811 54.4917 26.9811C54.0225 26.9811 53.667 26.8389 53.3827 26.5545C53.0983 26.2417 52.9277 25.8863 52.9277 25.4882ZM55.7997 28.6588V39.6777H53.212V28.6588H55.7997ZM63.6623 37.7867C64.0462 37.7867 64.4727 37.7299 64.9419 37.5024C65.3969 37.3318 65.8234 37.0758 66.2215 36.7915V39.2085C65.795 39.4645 65.3258 39.6351 64.7997 39.7488C64.2594 39.8626 63.6907 39.9337 63.0509 39.9337C62.3249 39.97 61.5992 39.8543 60.9205 39.5939C60.2418 39.3335 59.625 38.9342 59.1096 38.4215C58.5943 37.9088 58.1917 37.2941 57.9278 36.6167C57.6639 35.9394 57.5444 35.2144 57.577 34.4882C57.577 32.7109 58.1172 31.2465 59.1409 30.109C60.1789 28.9716 61.6291 28.4029 63.5485 28.4029C64.4583 28.4214 65.3542 28.6297 66.1789 29.0142V31.5024C65.4756 30.9257 64.5999 30.6004 63.6907 30.5782C62.667 30.5782 61.8424 30.891 61.2026 31.5735C60.5627 32.2417 60.2784 33.1375 60.2784 34.2749C60.2784 35.3839 60.6054 36.2654 61.2026 36.8768C61.8139 37.4739 62.6244 37.7867 63.6623 37.7867ZM73.5722 28.4739C73.9098 28.4625 74.2467 28.5106 74.5675 28.6161V31.2465C74.4253 31.1469 74.2547 31.0332 73.9703 30.9621C73.686 30.891 73.4016 30.8199 73.0035 30.8199C72.3637 30.8199 71.8376 31.1043 71.4111 31.6446C70.9845 32.1706 70.7286 32.9953 70.7286 34.1327V39.6777H68.1409V28.6588H70.7286V30.3934H70.7713C71.013 29.7962 71.3684 29.327 71.8376 28.9716C72.3544 28.6389 72.9577 28.4658 73.5722 28.4739ZM74.7097 34.346C74.7097 32.5261 75.2499 31.0758 76.2452 30.0095C76.8059 29.4606 77.4747 29.0343 78.209 28.7577C78.9433 28.4811 79.7271 28.3603 80.5106 28.4029C82.2168 28.4029 83.5675 28.9005 84.5201 29.9384C85.4869 30.9621 85.9845 32.3555 85.9845 34.0901C85.9845 35.8673 85.4443 37.2891 84.449 38.3555C83.9006 38.901 83.2441 39.3258 82.5218 39.6025C81.7994 39.8792 81.0272 40.0017 80.2547 39.9621C78.5485 39.9621 77.1978 39.4645 76.2026 38.4692C75.6939 37.9145 75.3001 37.2645 75.0438 36.5569C74.7876 35.8492 74.674 35.0978 74.7097 34.346ZM77.4111 34.2322C77.4111 35.3697 77.667 36.2654 78.1931 36.8768C78.4774 37.1846 78.8261 37.4258 79.2145 37.5831C79.6028 37.7404 80.0212 37.8099 80.4395 37.7867C81.3637 37.7867 82.103 37.5024 82.6007 36.8768C83.0983 36.2654 83.3542 35.3839 83.3542 34.1754C83.3542 32.9953 83.0983 32.0995 82.6007 31.4739C82.3391 31.1667 82.0113 30.9227 81.6419 30.7601C81.2726 30.5976 80.8712 30.5208 80.468 30.5356C79.5153 30.5356 78.8045 30.8626 78.2642 31.5024C77.667 32.1706 77.4111 33.0664 77.4111 34.2322ZM89.8518 31.5735C89.8518 31.9289 89.9656 32.2417 90.2073 32.455C90.4632 32.6683 90.9608 32.9242 91.7713 33.237C92.8092 33.6635 93.5485 34.1327 93.9466 34.6303C94.3732 35.1706 94.5864 35.7678 94.5864 36.5213C94.5864 37.545 94.1883 38.3697 93.3779 39.0095C92.5959 39.6493 91.4869 39.9194 90.1362 39.9194C89.1273 39.8984 88.1304 39.6962 87.1931 39.3223V36.763C87.6481 37.0758 88.1883 37.3744 88.7144 37.545C89.2547 37.7299 89.7523 37.8294 90.2073 37.8294C90.776 37.8294 91.2452 37.7583 91.4869 37.5877C91.7713 37.4029 91.9135 37.1611 91.9135 36.763C91.9135 36.4076 91.7713 36.1232 91.4869 35.8389C91.2025 35.5972 90.6338 35.2986 89.8518 34.9858C89.076 34.7125 88.3816 34.2479 87.8329 33.6351C87.4348 33.1375 87.2215 32.4976 87.2215 31.7157C87.2215 30.7204 87.6196 29.8957 88.4016 29.2559C89.2773 28.5898 90.3593 28.2526 91.4585 28.3033C91.8424 28.3033 92.2689 28.3318 92.7381 28.4455C93.1931 28.545 93.6196 28.6588 93.9466 28.7583V31.2891C93.5912 31.0758 93.1931 30.8626 92.7381 30.6777C92.3065 30.5152 91.8486 30.4332 91.3874 30.436C90.8898 30.436 90.4916 30.5356 90.2499 30.7204C90.1265 30.8259 90.0272 30.9567 89.9585 31.1038C89.8898 31.251 89.8535 31.4111 89.8518 31.5735ZM95.6812 34.346C95.6812 32.5261 96.2215 31.0758 97.2168 30.0095C97.7775 29.4606 98.4463 29.0343 99.1806 28.7577C99.9149 28.4811 100.699 28.3603 101.482 28.4029C103.188 28.4029 104.539 28.9005 105.492 29.9384C106.458 30.9621 106.956 32.3555 106.956 34.0901C106.956 35.8673 106.416 37.2891 105.421 38.3555C104.872 38.901 104.216 39.3258 103.493 39.6025C102.771 39.8792 101.999 40.0017 101.226 39.9621C99.5201 39.9621 98.1694 39.4645 97.1741 38.4692C96.1614 37.3399 95.6262 35.8618 95.6812 34.346ZM98.3827 34.2322C98.3827 35.3697 98.6386 36.2654 99.1646 36.8768C99.4489 37.1846 99.7977 37.4258 100.186 37.5831C100.574 37.7404 100.993 37.8099 101.411 37.7867C102.335 37.7867 103.075 37.5024 103.572 36.8768C104.07 36.2654 104.326 35.3839 104.326 34.1754C104.326 32.9953 104.07 32.0995 103.572 31.4739C103.311 31.1667 102.983 30.9227 102.613 30.7601C102.244 30.5976 101.843 30.5208 101.44 30.5356C100.487 30.5356 99.776 30.8626 99.2357 31.5024C98.667 32.1706 98.3827 33.0664 98.3827 34.2322ZM115.586 30.7915H111.719V39.6777H109.089V30.7915H107.24V28.6588H109.089V27.1232C109.089 25.9858 109.473 25.0332 110.226 24.2796C110.966 23.5403 111.932 23.1848 113.098 23.1848L113.951 23.2133C114.207 23.2133 114.421 23.2844 114.591 23.3555V25.6019C114.443 25.5318 114.291 25.4701 114.136 25.4171C113.892 25.3434 113.638 25.3098 113.383 25.3175C112.857 25.3175 112.43 25.4882 112.146 25.8152C111.861 26.128 111.719 26.6683 111.719 27.3081V28.6161H115.586V26.128L118.188 25.346V28.6161H120.804V30.7488H118.174V35.91C118.174 36.5782 118.316 37.0474 118.53 37.3318C118.771 37.6161 119.169 37.7583 119.695 37.7583C119.838 37.7583 120.022 37.7157 120.236 37.6446C120.449 37.5877 120.62 37.5024 120.762 37.4029V39.5356C120.131 39.7599 119.469 39.8799 118.8 39.891C117.705 39.891 116.895 39.6066 116.354 39.0379C115.828 38.4692 115.544 37.5877 115.544 36.4076L115.572 30.7915H115.586Z" fill="#737373"/>
</g>
</g>
<defs>
<clipPath id="clip0_755_246">
<rect width="120" height="64" fill="white" transform="translate(0.804688)"/>
</clipPath>
<clipPath id="clip1_755_246">
<rect width="120" height="25.5924" fill="white" transform="translate(0.804688 19.2038)"/>
</clipPath>
</defs>
</svg>
