<svg width="15" height="16" viewBox="0 0 15 16" fill="none" xmlns="http://www.w3.org/2000/svg">
<g clip-path="url(#clip0_743_390)">
<path d="M6.20781 0.372345L6.1261 0.421769C5.99613 0.50039 5.87368 0.588296 5.75943 0.684347L5.99511 0.518569H7.99545L8.3591 3.27215L6.54084 5.0904L4.72258 6.35424V7.81157C4.72258 8.82943 5.25457 9.77329 6.12533 10.3004L8.03948 11.459L3.99528 13.8181H3.21528L1.7615 12.9381C0.890736 12.4111 0.358765 11.4672 0.358765 10.4494V5.54882C0.358765 4.53063 0.891074 3.58652 1.76228 3.05955L6.1261 0.41998C6.15315 0.403623 6.18039 0.387746 6.20781 0.372345Z" fill="url(#paint0_radial_743_390)"/>
<path d="M6.20781 0.372345L6.1261 0.421769C5.99613 0.50039 5.87368 0.588296 5.75943 0.684347L5.99511 0.518569H7.99545L8.3591 3.27215L6.54084 5.0904L4.72258 6.35424V7.81157C4.72258 8.82943 5.25457 9.77329 6.12533 10.3004L8.03948 11.459L3.99528 13.8181H3.21528L1.7615 12.9381C0.890736 12.4111 0.358765 11.4672 0.358765 10.4494V5.54882C0.358765 4.53063 0.891074 3.58652 1.76228 3.05955L6.1261 0.41998C6.15315 0.403623 6.18039 0.387746 6.20781 0.372345Z" fill="url(#paint1_linear_743_390)"/>
<path d="M10.541 6.18137V7.81063C10.541 8.82849 10.009 9.77235 9.13828 10.2994L4.77446 12.9408C3.88177 13.4812 2.77107 13.5007 1.86267 12.9994L6.12532 15.5796C7.0514 16.1401 8.21217 16.1401 9.13828 15.5796L13.5021 12.9381C14.3729 12.411 14.9048 11.4672 14.9048 10.4493V9.2724L14.5412 8.72693L10.541 6.18137Z" fill="url(#paint2_radial_743_390)"/>
<path d="M10.541 6.18137V7.81063C10.541 8.82849 10.009 9.77235 9.13828 10.2994L4.77446 12.9408C3.88177 13.4812 2.77107 13.5007 1.86267 12.9994L6.12532 15.5796C7.0514 16.1401 8.21217 16.1401 9.13828 15.5796L13.5021 12.9381C14.3729 12.411 14.9048 11.4672 14.9048 10.4493V9.2724L14.5412 8.72693L10.541 6.18137Z" fill="url(#paint3_linear_743_390)"/>
<path d="M13.5013 3.05953L9.13744 0.419955C8.24043 -0.122639 7.1234 -0.139447 6.21274 0.369527L6.12605 0.421965C5.25485 0.94894 4.72253 1.89303 4.72253 2.91123V6.36006L6.12605 5.51108C7.05176 4.95117 8.21173 4.95117 9.13744 5.51108L13.5013 8.15065C14.3452 8.66118 14.8712 9.56311 14.9032 10.5446C14.9043 10.5129 14.9048 10.4812 14.9048 10.4493V5.54879C14.9048 4.53061 14.3725 3.58649 13.5013 3.05953Z" fill="url(#paint4_radial_743_390)"/>
<path d="M13.5013 3.05953L9.13744 0.419955C8.24043 -0.122639 7.1234 -0.139447 6.21274 0.369527L6.12605 0.421965C5.25485 0.94894 4.72253 1.89303 4.72253 2.91123V6.36006L6.12605 5.51108C7.05176 4.95117 8.21173 4.95117 9.13744 5.51108L13.5013 8.15065C14.3452 8.66118 14.8712 9.56311 14.9032 10.5446C14.9043 10.5129 14.9048 10.4812 14.9048 10.4493V5.54879C14.9048 4.53061 14.3725 3.58649 13.5013 3.05953Z" fill="url(#paint5_linear_743_390)"/>
</g>
<defs>
<radialGradient id="paint0_radial_743_390" cx="0" cy="0" r="1" gradientUnits="userSpaceOnUse" gradientTransform="translate(5.23846 3.14061) rotate(110.528) scale(12.1335 21.1633)">
<stop offset="0.06441" stop-color="#AE7FE2"/>
<stop offset="1" stop-color="#0078D4"/>
</radialGradient>
<linearGradient id="paint1_linear_743_390" x1="5.27239" y1="13.0429" x2="3.54119" y2="10.0487" gradientUnits="userSpaceOnUse">
<stop stop-color="#114A8B"/>
<stop offset="1" stop-color="#0078D4" stop-opacity="0"/>
</linearGradient>
<radialGradient id="paint2_radial_743_390" cx="0" cy="0" r="1" gradientUnits="userSpaceOnUse" gradientTransform="translate(2.69703 12.4911) rotate(-8.36717) scale(11.2915 7.45878)">
<stop offset="0.133928" stop-color="#D59DFF"/>
<stop offset="1" stop-color="#5E438F"/>
</radialGradient>
<linearGradient id="paint3_linear_743_390" x1="13.5799" y1="8.5003" x2="11.7248" y2="11.1603" gradientUnits="userSpaceOnUse">
<stop stop-color="#493474"/>
<stop offset="1" stop-color="#8C66BA" stop-opacity="0"/>
</linearGradient>
<radialGradient id="paint4_radial_743_390" cx="0" cy="0" r="1" gradientUnits="userSpaceOnUse" gradientTransform="translate(13.8339 8.9102) rotate(-165.772) scale(9.06321 15.2571)">
<stop offset="0.0584996" stop-color="#50E6FF"/>
<stop offset="1" stop-color="#436DCD"/>
</radialGradient>
<linearGradient id="paint5_linear_743_390" x1="5.07739" y1="0.383506" x2="7.80877" y2="0.383506" gradientUnits="userSpaceOnUse">
<stop stop-color="#2D3F80"/>
<stop offset="1" stop-color="#436DCD" stop-opacity="0"/>
</linearGradient>
<clipPath id="clip0_743_390">
<rect width="14.5461" height="16" fill="white" transform="translate(0.358398)"/>
</clipPath>
</defs>
</svg>
