<svg width="11" height="16" viewBox="0 0 11 16" fill="none" xmlns="http://www.w3.org/2000/svg">
<g clip-path="url(#clip0_795_1755)">
<path d="M7.47845 1.4L7.29265 2.2916C7.23785 2.5516 7.16945 2.8752 7.09265 3.2344L7.04805 3.2544C7.13365 2.2944 7.13125 1.529 6.96105 1.1626C6.81165 0.847608 6.59235 0.570853 6.31985 0.3534C5.92925 0.0384 5.67725 0 5.67725 0L5.68205 3.891L1.30365 5.9278C0.707055 6.2078 0.706055 6.91 0.706055 6.91V13.6086L5.82205 16L10.9379 13.6086V1.4458L8.35065 2.6492C8.25477 2.40679 8.13029 2.1767 7.97985 1.9638C7.91985 1.8754 7.85865 1.794 7.79985 1.7192C7.69505 1.586 7.47845 1.3992 7.47845 1.3992" fill="#C4C7C9"/>
<path d="M2.80015 2.99539L3.03535 3.67559L3.27075 2.99539L3.97695 3.13199L3.50575 2.58819L3.97695 2.04439L3.27075 2.18099L3.03535 1.50079L2.80015 2.18099L2.09375 2.04439L2.56515 2.58819L2.09375 3.13199L2.80015 2.99539Z" fill="#C4C7C9"/>
<path d="M1.30365 9.18379C0.707055 9.46379 0.706055 10.1656 0.706055 10.1656V13.4186C0.706055 13.4186 0.706055 12.716 1.30365 12.4368L10.9381 7.95419V4.70139L1.30365 9.18379Z" fill="#8AC8EC"/>
<path d="M9.88978 9.56C10.1874 9.2066 10.2498 8.8762 10.2498 8.8762C10.2498 8.8762 7.70458 9.7042 6.86698 9.98C7.07678 9.8876 7.22878 9.8352 7.32058 9.7958C7.66198 9.6492 9.87698 8.9042 10.125 8.44C10.3668 7.987 10.3582 7.6134 10.3582 7.6134C10.3582 7.6134 7.87558 9.0494 6.98438 9.5676C7.19278 9.4176 7.34678 9.3248 7.43798 9.2604C7.77498 9.0222 10.0104 7.7004 10.1722 7.1384C10.3304 6.5902 10.235 6.1862 10.235 6.1862C10.235 6.1862 7.87498 8.3142 7.02338 9.0862C7.19978 8.8936 7.33498 8.7662 7.41478 8.681C7.72598 8.3438 9.84998 6.3912 9.89658 5.7424C9.94118 5.11 9.74458 4.693 9.74458 4.693C9.74458 4.693 7.61338 7.631 6.89338 8.6284C7.04478 8.3716 7.16498 8.1988 7.23338 8.0848C7.49338 7.6468 9.35118 5.0342 9.25158 4.3186C9.15458 3.6208 8.84418 3.2132 8.84418 3.2132C8.84418 3.2132 7.22898 6.8478 6.66538 8.123C6.77418 7.7952 6.86898 7.5716 6.91778 7.428C7.09938 6.892 8.51478 3.6236 8.24118 2.868C8.12478 2.5468 8.00118 2.3442 7.84738 2.1136C7.76218 1.98331 7.6651 1.86119 7.55738 1.7488C7.48198 2.1038 6.92198 4.7522 6.55458 6.4932L6.33978 7.7214C6.26238 8.1652 6.33518 8.4614 6.36998 8.5676L6.39738 8.6458C6.80598 9.8564 6.49098 10.4428 6.33538 10.64L6.32918 10.6478C6.26756 10.7277 6.19118 10.795 6.10418 10.846C6.01379 10.894 5.91312 10.9194 5.81078 10.92C5.75105 10.92 5.69166 10.911 5.63458 10.8934C5.09618 10.7156 5.29198 10.1094 5.29338 10.1036C5.24878 10.356 5.31338 10.5202 5.37438 10.6136C5.41887 10.6819 5.47966 10.7381 5.55126 10.7771C5.62287 10.8161 5.70304 10.8367 5.78458 10.837C6.05818 10.837 6.20838 10.6512 6.25758 10.5898L6.26378 10.5824C6.41198 10.3948 6.71218 9.8286 6.29558 8.631C6.28418 8.5974 6.16158 8.211 6.23678 7.778L6.52518 6.1164C6.73358 4.7924 7.16658 2.0364 6.82378 1.2994C6.66538 0.9594 6.43978 0.7194 6.22658 0.5456C6.102 0.442237 5.96541 0.354269 5.81978 0.2836L5.82838 6.8486C5.82838 7.1994 5.84038 7.4886 5.85698 7.7254C5.85698 7.7254 5.86938 7.8918 5.88778 8.0654C5.90618 8.239 5.98778 8.594 6.03378 8.7554L6.09058 8.9446C6.30378 9.6916 6.20498 10.1646 6.03318 10.3814C5.99198 10.4322 5.92338 10.5226 5.78818 10.5226C5.63658 10.5226 5.47478 10.3426 5.66818 9.8902C5.86158 9.4378 5.95918 8.961 5.54818 8.5524C5.50911 8.5113 5.46677 8.47344 5.42158 8.4392C5.22035 8.28415 5.00677 8.14582 4.78298 8.0256C4.68898 7.9744 4.17658 8.0796 4.17658 8.0796L2.94898 7.5302L2.94678 7.5526C2.94678 7.5526 4.70858 8.82 5.02898 9.089C5.32398 9.3358 5.16898 9.7264 4.88538 9.949C4.56158 10.2036 3.60338 10.742 3.60338 10.742V10.8C3.60338 11.44 3.69798 11.7044 4.13398 12.24C4.97398 13.2708 5.35398 13.686 5.35398 14.76C5.40178 14.793 5.57118 14.8666 5.57118 14.8666V13.0482C5.57118 12.2232 5.78598 11.6694 6.78658 11.6694L6.08658 11.0142C6.18818 11.0898 6.25298 11.1488 6.29838 11.1828C6.47438 11.314 7.50738 12.2266 7.81838 12.2162C8.12158 12.206 8.30878 12.0916 8.30878 12.0916C8.30878 12.0916 6.69398 11.16 6.24358 10.9024C6.39298 10.9686 6.49158 11.0238 6.55418 11.0524C6.77578 11.1544 8.11098 11.9076 8.44698 11.8244C8.77358 11.743 8.95198 11.575 8.95198 11.575C8.95198 11.575 6.95978 10.9294 6.42198 10.7572C6.60618 10.7958 6.73038 10.8342 6.80698 10.8512C7.07138 10.9112 8.69698 11.421 9.04218 11.253C9.37898 11.0894 9.53418 10.8654 9.53418 10.8654C9.53418 10.8654 7.26178 10.6328 6.59018 10.5654C6.75258 10.5676 6.91018 10.5774 6.98418 10.578C7.28418 10.5824 9.16978 10.7608 9.50598 10.498C9.83418 10.2422 9.95098 9.9634 9.95098 9.9634C9.95098 9.9634 7.48638 10.2234 6.73378 10.306C6.93518 10.2638 7.07898 10.246 7.16718 10.2286C7.49518 10.1632 9.58458 9.922 9.88958 9.5592" fill="black"/>
<path d="M4.93839 8.5012C4.93839 8.5012 4.83539 8.5286 4.75719 8.4812C4.67899 8.4338 4.65479 8.3302 4.65479 8.3302C4.65479 8.3302 4.75779 8.3028 4.83599 8.3502C4.91419 8.3976 4.93839 8.5008 4.93839 8.5008" fill="#D14F53"/>
<path d="M9.51968 12.884C9.51968 12.884 9.57668 12.8594 9.57668 12.775V12.652L8.95068 12.945V14.0014L9.14108 13.9118V13.5256L9.35968 13.4226C9.37639 13.4107 9.38975 13.3947 9.3985 13.3761C9.40726 13.3576 9.41111 13.3371 9.40968 13.3166V13.2084L9.14188 13.3348V13.0622L9.51968 12.884Z" fill="black"/>
<path d="M10.1598 12.5774C10.1836 12.5664 10.2028 12.5746 10.2028 12.5974V12.68C10.2027 12.6857 10.2037 12.6913 10.2059 12.6966C10.208 12.7019 10.2111 12.7067 10.2151 12.7108C10.2191 12.7149 10.2238 12.7181 10.229 12.7203C10.2343 12.7226 10.2399 12.7238 10.2456 12.7238H10.247C10.2522 12.7234 10.2572 12.7221 10.262 12.72L10.3858 12.6618V12.528C10.3848 12.4848 10.3668 12.4436 10.3356 12.4137C10.3044 12.3837 10.2626 12.3673 10.2194 12.368C10.1989 12.3681 10.1786 12.3719 10.1594 12.3792L9.80558 12.5438C9.76801 12.5627 9.73641 12.5916 9.71427 12.6273C9.69213 12.663 9.68033 12.7042 9.68018 12.7462V13.4276C9.68012 13.4467 9.68383 13.4656 9.69109 13.4833C9.69835 13.5009 9.70902 13.517 9.72248 13.5305C9.73595 13.5441 9.75194 13.5548 9.76956 13.5622C9.78719 13.5695 9.80608 13.5734 9.82518 13.5734H9.82838C9.8497 13.5732 9.87073 13.5684 9.88998 13.5592L10.2602 13.3856C10.2976 13.3668 10.329 13.338 10.351 13.3023C10.373 13.2667 10.3847 13.2257 10.3848 13.1838V12.9906L10.242 13.0568C10.2298 13.0635 10.2196 13.0734 10.2126 13.0854C10.2055 13.0974 10.2019 13.1111 10.202 13.125V13.1744C10.2009 13.1875 10.1964 13.2001 10.1889 13.2109C10.1813 13.2217 10.1711 13.2303 10.1592 13.2358L9.91318 13.3544C9.88918 13.3658 9.87038 13.3572 9.87038 13.3344V12.7626C9.87153 12.7495 9.87609 12.737 9.8836 12.7262C9.8911 12.7154 9.9013 12.7068 9.91318 12.7012L10.1598 12.5774Z" fill="black"/>
<path d="M7.70008 14.2444L7.33888 13.6986L7.14648 13.7882V14.8456C7.14648 14.8456 7.22648 14.8074 7.28248 14.7812C7.29348 14.775 7.33728 14.7458 7.33728 14.6718V14.0388L7.70748 14.5828L7.89268 14.4962V13.44L7.76008 13.502C7.74688 13.5104 7.70188 13.5294 7.70188 13.6096L7.70008 14.2444Z" fill="black"/>
<path d="M6.80005 14.916V14.3858L6.61425 14.9L6.45225 14.9758L6.23565 14.6236V15.186C6.23743 15.2091 6.23237 15.2323 6.2211 15.2525C6.20982 15.2728 6.19283 15.2893 6.17225 15.3L6.05225 15.3568V14.3L6.22505 14.22L6.50505 14.7146L6.77045 13.9648L6.98485 13.8648V14.92L6.88225 14.968C6.86747 14.9739 6.85096 14.9737 6.83633 14.9675C6.8217 14.9612 6.81016 14.9494 6.80425 14.9346C6.80195 14.9286 6.80054 14.9224 6.80005 14.916Z" fill="black"/>
<path d="M8.05371 13.3644V14.1946C8.05371 14.2324 8.06874 14.2687 8.09548 14.2954C8.12222 14.3222 8.15849 14.3372 8.19631 14.3372H8.19811C8.21885 14.3368 8.23929 14.3321 8.25811 14.3234L8.65591 14.1384C8.69531 14.1206 8.72876 14.0919 8.75227 14.0557C8.77579 14.0194 8.78837 13.9772 8.78851 13.934V13.02L8.65571 13.0822C8.60551 13.1056 8.59751 13.1608 8.59751 13.1932V13.926C8.59637 13.939 8.59181 13.9515 8.5843 13.9622C8.57678 13.9729 8.56658 13.9815 8.55471 13.987L8.28571 14.1124C8.26191 14.1234 8.24291 14.1148 8.24291 14.0912V13.3712C8.24291 13.3553 8.23659 13.34 8.22534 13.3288C8.21409 13.3175 8.19882 13.3112 8.18291 13.3112C8.17466 13.3112 8.1665 13.3129 8.15891 13.3162L8.05371 13.3644Z" fill="black"/>
</g>
<defs>
<clipPath id="clip0_795_1755">
<rect width="10.232" height="16" fill="white" transform="translate(0.706055)"/>
</clipPath>
</defs>
</svg>
