<svg width="17" height="16" viewBox="0 0 17 16" fill="none" xmlns="http://www.w3.org/2000/svg">
<g clip-path="url(#clip0_876_2848)">
<path d="M15.7534 5.61604L15.6734 5.37603C15.1282 3.80592 14.1075 2.44457 12.7532 1.48114C11.3988 0.517705 9.77805 1.83761e-05 8.11598 0C7.22276 0.000429108 6.33589 0.150044 5.49196 0.442669C1.3266 1.89335 -0.886746 6.45871 0.558596 10.6241C1.25455 12.6284 2.7182 14.2742 4.62758 15.1994C6.53695 16.1245 8.73565 16.2533 10.74 15.5574C14.8254 14.1388 17.0334 9.71739 15.7534 5.61604Z" fill="#A0A1A2"/>
<path d="M8.11605 15.7228C6.51262 15.721 4.94944 15.2206 3.64313 14.2908C2.33682 13.361 1.35206 12.0479 0.825334 10.5334C-0.572008 6.51738 1.56667 2.10669 5.58803 0.714681C6.54542 0.382082 7.55899 0.241458 8.57077 0.300851C9.58255 0.360244 10.5727 0.618489 11.4846 1.06082C12.3965 1.50315 13.2123 2.12089 13.8853 2.87872C14.5583 3.63654 15.0753 4.5196 15.4068 5.47738L15.4441 5.58404C16.7668 9.5734 14.6334 13.9201 10.6494 15.3014C9.83363 15.5793 8.97784 15.7217 8.11605 15.7228Z" fill="#0D2240"/>
<path d="M8.91585 4.53869L8.77185 4.52803C8.33976 4.50638 7.91267 4.42563 7.50251 4.28802C7.40263 4.39852 7.31335 4.51816 7.23584 4.64536C7.37451 4.78936 7.63584 5.06136 7.76918 5.2107C7.99318 5.34403 8.22251 5.49337 8.44651 5.65337C8.80385 5.25336 9.12385 4.9227 9.43319 4.59736L8.95852 4.54403L8.91585 4.53869Z" fill="#276092"/>
<path d="M5.56675 5.86671C4.96941 6.70405 4.54808 7.79739 4.51074 9.10407C5.14541 8.4054 5.66808 7.75472 6.02542 7.41339C6.23895 7.20585 6.4837 7.03309 6.75076 6.90139C6.51075 6.35205 6.20142 5.90938 5.77475 5.69604C5.70099 5.74732 5.63144 5.80439 5.56675 5.86671Z" fill="#276092"/>
<path d="M7.2572 3.82937C7.6092 3.68537 7.9932 3.53603 8.36654 3.4187C8.75778 3.27695 9.16128 3.17161 9.57188 3.10403L9.54521 3.09336C9.31765 3.02835 9.08603 2.97846 8.85188 2.94403C8.23248 2.85179 7.60135 2.8753 6.99053 3.01336C6.93147 3.18411 6.9296 3.36945 6.9852 3.54136C7.04313 3.66372 7.13836 3.76455 7.2572 3.82937Z" fill="#276092"/>
<path d="M6.52128 5.26938C6.38261 5.33338 6.22795 5.41338 6.07861 5.49871C6.49462 5.77071 6.80395 6.23472 7.03862 6.77339C7.21901 6.70873 7.40745 6.66925 7.59862 6.65605C7.82262 6.37339 8.02529 6.12272 8.21729 5.89872C7.99329 5.74405 7.76929 5.59471 7.54529 5.46671C7.32129 5.33871 6.72395 5.29071 6.52128 5.26938Z" fill="#276092"/>
<path d="M7.78516 4.03736C8.11362 4.13133 8.45189 4.18681 8.79316 4.2027L8.94783 4.21336H8.98516C9.14516 4.22936 9.3745 4.2507 9.63583 4.2987C9.83317 4.05336 10.0678 3.90403 10.2332 3.87203C10.3126 3.89928 10.3853 3.94342 10.446 4.00143C10.5068 4.05943 10.5543 4.12992 10.5852 4.20803C10.8277 4.31213 11.0233 4.50203 11.1345 4.74137C11.7425 5.0027 12.3452 5.39204 12.8145 5.97338C12.3222 4.81846 11.4171 3.88857 10.2758 3.36536C10.2598 3.36536 9.18783 3.33869 7.85449 3.98403C7.82957 3.99508 7.80625 4.00943 7.78516 4.0267" fill="#276092"/>
<path d="M13.2147 7.57871C13.0867 6.97071 12.6547 5.85604 11.2787 5.1467C11.4333 5.84004 11.2573 6.63471 11.2573 6.63471C11.2573 6.63471 11.636 6.85338 11.732 7.26938C11.7692 7.28935 11.8005 7.31879 11.8227 7.35471C11.9293 7.48271 12.0627 7.78138 11.8493 8.36805C11.8493 8.36805 11.7213 8.09605 11.4493 8.38939L11.38 8.49072C11.8973 9.20006 12.292 9.94673 12.4947 10.6721C12.73 10.2848 12.9146 9.86899 13.044 9.43472C13.2056 8.83018 13.2633 8.20258 13.2147 7.57871Z" fill="#276092"/>
<path d="M4.16922 9.46139C4.1498 8.74427 4.24892 8.02887 4.46256 7.34404C4.62427 6.83383 4.85389 6.34769 5.14523 5.8987C5.18256 5.8187 5.2519 5.70137 5.32656 5.5627C4.33989 5.45603 3.44922 6.5067 3.10255 6.98137C2.88108 8.05172 3.01206 9.165 3.47588 10.1547C3.72122 9.93073 3.95055 9.69606 4.16922 9.46139Z" fill="#276092"/>
<path d="M10.6546 10.7307C10.644 11.2214 10.884 11.5947 11.0653 12.1814C11.5128 11.8655 11.9071 11.4802 12.2333 11.0401C12.084 10.3094 11.7 9.53607 11.172 8.7894C10.836 9.32807 10.6706 9.83474 10.6546 10.7307Z" fill="#276092"/>
<path d="M6.31309 4.23469C6.47842 4.16002 6.68109 4.06935 6.90509 3.97868C6.80604 3.89246 6.73076 3.78229 6.68642 3.65868C6.6218 3.48311 6.60523 3.29346 6.63842 3.10934C5.90769 3.33261 5.23555 3.71512 4.67041 4.22935H4.75041C5.23041 4.19735 5.91842 4.21868 6.31309 4.23469Z" fill="#276092"/>
<path d="M5.4973 5.26402L5.69997 4.91202C5.42797 4.73068 5.2573 4.60268 4.78796 4.56535C4.63144 4.55993 4.47474 4.56349 4.31863 4.57602C3.88475 5.05517 3.54625 5.6127 3.32129 6.21869C3.84929 5.66402 4.6333 5.08802 5.4973 5.26402Z" fill="#276092"/>
<path d="M7.11842 4.16534L6.76642 4.67735C6.9448 4.80357 7.1077 4.95036 7.25175 5.11468C6.86775 5.03468 6.44641 4.96535 6.44641 4.96535L5.77441 5.32802L6.08908 4.80535C5.94577 4.68319 5.7943 4.57093 5.63574 4.46935C5.90241 4.48001 6.40908 4.51735 6.40908 4.51735L7.11842 4.16534Z" fill="#77BC1F"/>
<path d="M7.40134 7.23206C7.34363 7.39184 7.30775 7.55868 7.29467 7.72806C7.29467 7.72806 6.71333 7.81339 6.43066 8.00539C6.436 8.00006 7.01733 7.41872 7.40134 7.23206Z" fill="#77BC1F"/>
<path d="M11.3269 7.20005C11.3752 7.18546 11.4259 7.18003 11.4762 7.18405C11.4611 7.14185 11.4395 7.10227 11.4122 7.06671C11.3773 7.02332 11.3359 6.98555 11.2896 6.95471C11.324 7.03158 11.3369 7.1164 11.3269 7.20005Z" fill="white"/>
<path d="M10.804 7.47204L11.0066 7.34404L10.9533 7.23204C10.906 7.16261 10.8441 7.10436 10.772 7.06137C10.8122 7.19433 10.8231 7.33445 10.804 7.47204Z" fill="white"/>
<path d="M4.55317 11.4027C4.05717 11.6054 2.88916 11.3281 2.88916 11.3281C4.07317 11.2587 5.23051 10.4161 5.23051 10.4161H5.22518C5.00614 10.7458 4.72544 11.0302 4.3985 11.2534C4.44704 11.3046 4.4987 11.3526 4.55317 11.3974" fill="#A0A1A2"/>
<path d="M10.4575 4.34137C10.4575 4.34137 10.1642 4.11204 9.83887 4.46404C10.1909 3.8187 10.3935 4.19204 10.4575 4.34137Z" fill="#77BC1F"/>
<path d="M11.6092 7.46139L11.5719 7.43472C11.3906 7.33339 11.0546 7.62139 10.8412 7.74406C10.6279 7.86672 10.3079 8.11739 10.1586 7.77072C10.0092 7.42406 10.3559 6.87472 10.4839 6.53338C10.7506 5.77071 10.7612 5.32804 10.7079 5.08804C10.9586 5.37071 11.0386 5.90938 11.0386 5.90938C11.0386 5.90938 11.1346 4.89604 10.6386 4.6347C10.6448 4.72194 10.6412 4.8096 10.6279 4.89604C10.3986 4.93337 9.88656 4.88004 9.72122 4.78937C9.09722 5.46138 8.41455 6.39472 7.90254 7.24805C7.67854 7.70139 7.45987 8.23473 7.40654 8.66673C7.358 8.51804 7.32756 8.36404 7.31587 8.20806C7.0332 8.32006 6.06786 8.7894 5.85986 10.2454C5.85986 10.2454 6.4732 9.61607 7.15054 9.3654C7.15054 9.3654 6.72387 10.4907 7.54521 12.4801C7.54521 12.4801 7.87588 11.2587 8.56921 10.9494C8.99055 13.0348 10.2226 13.0721 10.5799 14.4908C10.5799 14.4908 10.9586 13.7548 10.5052 12.5014C10.6174 12.5397 10.717 12.608 10.7932 12.6988C10.7932 12.6988 10.7719 12.3308 10.4306 11.5467C10.2066 11.1254 10.1372 10.5547 10.1372 10.5547C9.93989 10.7361 9.88122 11.3494 9.88122 11.3494C9.26789 9.69074 11.0066 8.04273 11.3212 7.80272C11.4759 7.68539 11.5719 7.68539 11.6306 7.70672C11.6839 7.59472 11.6839 7.51472 11.6092 7.46139Z" fill="#A0A1A2"/>
<path d="M12.7028 4.52269C12.1659 3.81176 11.4711 3.23543 10.6732 2.83926C9.87534 2.44309 8.99624 2.23793 8.1054 2.24001C5.24672 2.24001 2.7987 4.37869 2.40403 7.21604C2.23958 8.37794 2.43697 9.5623 2.96937 10.6081L3.1667 10.4374C2.68101 9.45128 2.50264 8.34204 2.6547 7.25337C3.02804 4.53869 5.37472 2.49601 8.1054 2.49601C8.36049 2.49785 8.61521 2.51566 8.86807 2.54934C9.97676 2.70082 11.0129 3.18663 11.8385 3.94201C12.6641 4.69739 13.2398 5.68645 13.4889 6.77736C13.738 7.86826 13.6487 9.00919 13.2329 10.048C12.817 11.0869 12.0945 11.9743 11.1614 12.5921C11.1812 12.68 11.1955 12.769 11.2041 12.8587C11.9071 12.4099 12.5046 11.8143 12.9557 11.1128C13.4068 10.4113 13.7008 9.62053 13.8174 8.79471C13.9265 8.04428 13.8841 7.2796 13.6926 6.54585C13.5012 5.8121 13.1646 5.12416 12.7028 4.52269Z" fill="#A0A1A2"/>
<path d="M4.4735 1.84534C4.37435 1.84534 4.27742 1.87474 4.19498 1.92983C4.11253 1.98491 4.04828 2.06321 4.01033 2.15482C3.97239 2.24643 3.96246 2.34723 3.9818 2.44448C4.00115 2.54173 4.04889 2.63106 4.11901 2.70117C4.18912 2.77129 4.27845 2.81903 4.3757 2.83838C4.47295 2.85772 4.57375 2.84779 4.66536 2.80985C4.75697 2.7719 4.83526 2.70765 4.89035 2.6252C4.94544 2.54276 4.97484 2.44583 4.97484 2.34667C4.97484 2.21371 4.92202 2.08619 4.828 1.99217C4.73398 1.89816 4.60647 1.84534 4.4735 1.84534ZM4.4735 2.62401C4.41971 2.62401 4.36712 2.60806 4.32239 2.57817C4.27766 2.54828 4.24279 2.5058 4.22221 2.4561C4.20162 2.4064 4.19623 2.35171 4.20673 2.29894C4.21722 2.24618 4.24313 2.19771 4.28117 2.15967C4.31921 2.12163 4.36768 2.09573 4.42044 2.08523C4.4732 2.07474 4.52789 2.08012 4.5776 2.10071C4.6273 2.1213 4.66978 2.15616 4.69967 2.20089C4.72955 2.24562 4.74551 2.29821 4.74551 2.35201C4.74551 2.42415 4.71685 2.49333 4.66584 2.54434C4.61483 2.59535 4.54564 2.62401 4.4735 2.62401Z" fill="white"/>
<path d="M3.34778 3.0987L3.23044 3.1627C3.18778 3.18936 3.16111 3.18936 3.13444 3.16803C3.10778 3.1467 3.10778 3.10403 3.15044 3.06136C3.18938 3.01901 3.24253 2.99244 3.29978 2.9867H3.32111L3.30511 2.7627H3.28378C3.22394 2.76644 3.16553 2.7826 3.11227 2.81014C3.05902 2.83769 3.01208 2.87602 2.97444 2.9227C2.91829 2.9815 2.88113 3.05583 2.86777 3.13603C2.86297 3.17926 2.86927 3.22301 2.88607 3.26313C2.90286 3.30326 2.92961 3.33844 2.96378 3.36537C3.07044 3.4667 3.19844 3.47203 3.34778 3.3867L3.45445 3.32803C3.50778 3.29603 3.54511 3.28537 3.57178 3.31203C3.59845 3.3387 3.59845 3.3867 3.54511 3.44537C3.52034 3.47267 3.48974 3.49404 3.45558 3.50789C3.42141 3.52174 3.38457 3.52771 3.34778 3.52537H3.32644L3.29978 3.7707H3.32111C3.40111 3.77603 3.56111 3.7547 3.71578 3.58937H3.72111C3.78933 3.52005 3.83249 3.42997 3.84378 3.33337C3.84503 3.28948 3.83604 3.24591 3.81753 3.2061C3.79901 3.1663 3.77148 3.13135 3.73711 3.10403C3.63578 3.01336 3.51311 3.01336 3.34778 3.10403" fill="white"/>
<path d="M1.87021 8.04966L0.88916 8.07364L0.894503 8.29224L1.87555 8.26827L1.87021 8.04966Z" fill="white"/>
<path d="M2.76136 4.7787L3.13469 4.21869L2.94802 4.10136L2.70269 4.46936L2.56402 4.37869L2.78269 4.05869L2.59602 3.94136L2.38269 4.26136L2.24935 4.17069L2.49469 3.79736L2.31869 3.68002L1.95068 4.22936L2.76136 4.7787Z" fill="white"/>
<path d="M5.97173 2.13334L5.68906 1.424L5.93973 1.32267L5.85439 1.12534L5.15039 1.41334L5.23039 1.61067L5.48106 1.504L5.76906 2.21868L5.97173 2.13334Z" fill="white"/>
<path d="M1.95059 5.33869L1.25725 5.65336L1.24658 5.68536L2.16392 6.0587L2.24392 5.86136L1.76925 5.66403L2.46259 5.34936L2.47859 5.31203L1.56125 4.93869L1.47592 5.14136L1.95059 5.33869Z" fill="white"/>
<path d="M1.50254 6.80538L0.899865 7.26405L0.894531 7.30672L1.87054 7.45605L1.90787 7.24272L1.39587 7.16272L1.99854 6.69338L2.00387 6.66138L1.02787 6.50671L0.995865 6.72538L1.50254 6.80538Z" fill="white"/>
<path d="M10.0555 1.0512L9.78076 1.99329L9.99068 2.05451L10.2655 1.11243L10.0555 1.0512Z" fill="white"/>
<path d="M15.1879 9.4934L15.2413 9.28006L14.2866 9.05606L14.1426 9.69073L14.3559 9.73873L14.4572 9.32273L15.1879 9.4934Z" fill="white"/>
<path d="M14.8466 7.53604C14.7474 7.53604 14.6505 7.56544 14.568 7.62053C14.4856 7.67562 14.4213 7.75392 14.3834 7.84552C14.3454 7.93713 14.3355 8.03793 14.3548 8.13518C14.3742 8.23243 14.4219 8.32176 14.4921 8.39188C14.5622 8.46199 14.6515 8.50974 14.7487 8.52908C14.846 8.54843 14.9468 8.5385 15.0384 8.50055C15.13 8.46261 15.2083 8.39835 15.2634 8.31591C15.3185 8.23346 15.3479 8.13653 15.3479 8.03738C15.3479 7.90441 15.2951 7.7769 15.201 7.68288C15.107 7.58886 14.9795 7.53604 14.8466 7.53604ZM14.8466 8.31471C14.7928 8.31471 14.7402 8.29876 14.6954 8.26887C14.6507 8.23898 14.6158 8.1965 14.5953 8.1468C14.5747 8.0971 14.5693 8.04241 14.5798 7.98965C14.5903 7.93688 14.6162 7.88842 14.6542 7.85038C14.6923 7.81234 14.7407 7.78643 14.7935 7.77594C14.8463 7.76544 14.9009 7.77083 14.9506 7.79141C15.0003 7.812 15.0428 7.84686 15.0727 7.8916C15.1026 7.93633 15.1186 7.98891 15.1186 8.04271C15.1186 8.11485 15.0899 8.18404 15.0389 8.23505C14.9879 8.28606 14.9187 8.31471 14.8466 8.31471Z" fill="white"/>
<path d="M12.8628 3.95737L13.2788 4.48004L13.4495 4.34137L13.1721 3.98937L13.3001 3.89337L13.5401 4.19737L13.7108 4.05337L13.4708 3.76003L13.5988 3.6587L13.8708 4.00537L14.0415 3.87204L13.6308 3.34937L12.8628 3.95737Z" fill="white"/>
<path d="M13.54 11.1094L13.188 11.6694L13.3693 11.7814L13.6093 11.4134L13.748 11.4934L13.54 11.8241L13.7267 11.9361L13.9347 11.6161L14.068 11.7014L13.828 12.0747L14.0147 12.1921L14.372 11.6321L13.54 11.1094Z" fill="white"/>
<path d="M9.08123 1.84534L9.18256 1.088L9.44923 1.12534L9.48123 0.912003L8.72389 0.810669L8.69189 1.024L8.9639 1.056L8.86256 1.81334L9.08123 1.84534Z" fill="white"/>
<path d="M14.3775 10.5334L14.9055 10.5067L14.9962 10.2827L13.9135 10.3254L13.9028 10.3574L14.6548 11.1414L14.7455 10.9174L14.3775 10.5334Z" fill="white"/>
<path d="M11.2522 2.06934L11.0815 1.41333V1.408L11.0495 1.392L10.5908 2.26667L10.7882 2.37334L10.9962 1.96267L11.0975 2.34134L11.1188 2.352L11.4868 2.224L11.2735 2.62401L11.4655 2.72534L11.9242 1.85067L11.9028 1.83467L11.2522 2.06934Z" fill="white"/>
<path d="M1.54017 9.44538L1.14017 9.99472L1.13483 10.0001L1.14017 10.0321L2.11084 9.82405L2.06284 9.61072L1.61484 9.70672L1.83884 9.39205L1.83351 9.36538L1.50284 9.16805L1.95084 9.07738L1.90817 8.86404L0.9375 9.06671L0.948167 9.09338L1.54017 9.44538Z" fill="white"/>
<path d="M14.7455 6.71471L15.1562 6.37337L15.1455 6.33604L14.6175 6.21337L15.0388 5.93604L14.9855 5.71204L14.1108 6.29337L14.1215 6.32004L14.7082 6.45871L14.2442 6.84804L14.2548 6.88538L15.3002 7.00271L15.2468 6.77338L14.7455 6.71471Z" fill="white"/>
<path d="M14.1161 5.27469C14.1606 5.31834 14.2184 5.34576 14.2803 5.35253C14.3422 5.35931 14.4046 5.34504 14.4575 5.31202C14.6388 5.22135 14.6975 5.04002 14.5961 4.83735L14.4308 4.50668L13.5508 4.93869L13.6521 5.13602L14.0575 4.93869L13.7801 5.40269L13.8921 5.63736C13.9028 5.63736 14.1001 5.29602 14.1161 5.27469ZM14.1588 5.05069L14.1001 4.92802L14.3455 4.81069L14.4041 4.93335C14.4468 5.02402 14.4308 5.08802 14.3508 5.12535C14.2708 5.16269 14.2015 5.14135 14.1588 5.05069Z" fill="white"/>
<path d="M12.7719 3.10936C12.8296 3.09505 12.8805 3.06111 12.9159 3.01336C12.9448 2.98012 12.966 2.94088 12.978 2.89846C12.99 2.85604 12.9925 2.8115 12.9852 2.76802C12.97 2.69494 12.9305 2.62915 12.8732 2.58136L12.7505 2.47469L12.5852 2.33069L12.4412 2.49602L12.3399 2.60802L12.3292 2.61869L12.1959 2.77336L12.1852 2.78402L12.0732 2.90669L11.9292 3.07203L12.0945 3.21603L12.2385 3.33869C12.2969 3.39214 12.3727 3.42248 12.4519 3.42403C12.4974 3.42571 12.5426 3.41698 12.5842 3.39849C12.6258 3.38 12.6626 3.35225 12.6919 3.31736C12.7203 3.29121 12.7424 3.25882 12.7563 3.22274C12.7701 3.18666 12.7755 3.14785 12.7719 3.10936ZM12.6065 2.64536L12.7292 2.75202C12.7772 2.79469 12.7879 2.83736 12.7559 2.88003C12.7467 2.8886 12.7358 2.89516 12.7239 2.8993C12.712 2.90343 12.6994 2.90505 12.6869 2.90405C12.6743 2.90304 12.6621 2.89944 12.651 2.89347C12.64 2.8875 12.6303 2.87929 12.6225 2.86936L12.5105 2.76802L12.6065 2.64536ZM12.3932 3.17869L12.2492 3.05603L12.3612 2.92269L12.4945 3.04003C12.5479 3.08803 12.5639 3.14669 12.5319 3.18403C12.5226 3.19305 12.5115 3.20009 12.4994 3.20472C12.4873 3.20936 12.4744 3.21149 12.4614 3.21099C12.4484 3.21049 12.4357 3.20738 12.424 3.20182C12.4123 3.19627 12.4018 3.1884 12.3932 3.17869Z" fill="white"/>
<path d="M12.6226 12.3041C12.6664 12.2631 12.7147 12.2273 12.7666 12.1974C12.8571 12.1638 12.9527 12.1457 13.0493 12.1441V12.3681C12.9875 12.3684 12.9261 12.3792 12.868 12.4001C12.8387 12.4125 12.8123 12.4307 12.7903 12.4536C12.7683 12.4765 12.7512 12.5037 12.74 12.5334C12.7357 12.5466 12.7354 12.5607 12.7392 12.574C12.743 12.5873 12.7507 12.5992 12.7613 12.6081C12.7684 12.6162 12.7781 12.6217 12.7888 12.6236C12.7994 12.6256 12.8104 12.6238 12.82 12.6187L12.9106 12.5814C12.9884 12.5372 13.0732 12.5065 13.1613 12.4907C13.201 12.4852 13.2415 12.489 13.2795 12.502C13.3175 12.515 13.3519 12.5367 13.38 12.5654C13.4101 12.5942 13.4338 12.629 13.4494 12.6676C13.4651 12.7063 13.4723 12.7478 13.4706 12.7894C13.4653 12.8587 13.4333 12.9814 13.2733 13.0827C13.1964 13.1225 13.1135 13.1495 13.028 13.1627L12.996 12.9441L13.1506 12.9014C13.2626 12.8481 13.268 12.7201 13.1773 12.7201C13.1157 12.735 13.0565 12.7584 13.0013 12.7894C12.9633 12.8096 12.9241 12.8274 12.884 12.8427C12.8361 12.8605 12.7842 12.8644 12.7342 12.854C12.6842 12.8436 12.6382 12.8194 12.6013 12.7841C12.5619 12.7475 12.5336 12.7007 12.5194 12.6488C12.5053 12.597 12.5059 12.5422 12.5213 12.4907C12.5311 12.4182 12.5671 12.3518 12.6226 12.3041Z" fill="white"/>
<path d="M6.91582 1.39733L7.21449 1.83467L7.44915 1.792L6.84648 0.895996L6.81448 0.906663L6.54248 1.952L6.78248 1.90934L6.91582 1.39733Z" fill="white"/>
</g>
<defs>
<clipPath id="clip0_876_2848">
<rect width="16.0001" height="16" fill="white" transform="translate(0.116211)"/>
</clipPath>
</defs>
</svg>
