<svg width="14" height="16" viewBox="0 0 14 16" fill="none" xmlns="http://www.w3.org/2000/svg">
<g clip-path="url(#clip0_879_4017)">
<path d="M6.63976 11.0397C6.5447 11.4129 6.56087 11.5188 6.56737 11.625C6.30761 11.4438 5.63654 11.1027 5.6053 10.2389C5.59077 9.83917 5.6229 9.48066 5.69773 9.22487C5.68542 9.23981 5.671 9.25683 5.65688 9.27352C4.79719 10.308 3.81633 10.2382 2.91886 10.3305C2.78596 10.3441 2.28734 10.4448 2.15601 10.4733C2.47579 10.1313 3.02914 9.62864 3.39034 9.38201C4.08862 8.90541 5.30227 8.40829 5.30227 8.40829C4.75344 8.71033 4.30968 9.20006 4.30968 9.20006C4.65116 8.96892 5.84362 8.28028 5.84362 8.28028C5.52538 8.58334 4.61855 9.38242 4.08076 9.73809C4.76506 9.41551 5.34397 8.99725 5.65596 8.70226C6.04622 8.3336 6.63228 7.9779 6.8974 7.841C7.02739 7.96908 7.2155 8.08639 7.38375 8.15565C6.93367 8.47252 6.63344 8.65307 6.50515 9.08148C6.50515 9.08148 6.83447 8.65888 7.30913 8.40005C7.39831 8.35141 7.49494 8.29142 7.59411 8.22326C7.70082 8.24845 7.93241 8.26968 8.04579 8.26968L8.07386 8.25785C8.0555 8.27183 8.00993 8.29791 7.99096 8.31166C7.084 8.97695 6.25402 9.15169 6.17728 10.505C6.17728 10.505 6.29196 9.62313 6.98969 9.17603C7.38498 8.92284 8.09382 8.58604 8.56861 8.10181C8.93235 7.93544 9.16117 7.65087 9.27957 7.25518L9.28224 7.24287C9.39973 7.23128 9.51667 7.21624 9.63948 7.20537C9.6254 7.34832 9.59426 7.54241 9.52466 7.74101C9.43958 8.00661 9.2966 8.30229 9.04447 8.61045C8.59083 9.16458 8.04323 9.5117 7.47313 10.2535C6.90304 10.9955 6.78179 11.7516 6.78179 11.7516C6.65474 10.8288 7.09463 10.242 7.09463 10.242C7.0277 10.295 6.74433 10.6285 6.63973 11.0397L6.63976 11.0397ZM4.63667 10.264C5.08009 10.153 5.48071 9.67369 5.48071 9.67369C5.43381 9.83572 5.46878 10.3306 5.46878 10.3306C5.46878 10.3306 5.29571 10.3989 5.08473 10.3989C4.87376 10.3989 4.61924 10.2658 4.61924 10.2658L4.63667 10.2641V10.264ZM7.52013 12.4686C7.42015 12.7369 7.3511 12.9856 7.32536 13.0824C7.02794 12.9041 6.5715 12.6662 6.40418 12.4055C6.17974 12.0557 6.18199 11.5976 6.18199 11.5976C6.29309 11.6958 6.57803 11.8552 6.83898 11.9999C7.05201 12.1181 7.39971 12.3772 7.5201 12.4686H7.52013ZM6.96323 11.8932C6.97294 11.7175 7.03614 11.3867 7.2167 10.976C7.41923 10.5157 7.93593 9.95088 7.93593 9.95088C8.1079 10.1291 8.33334 10.493 8.24361 10.9675C8.15388 11.4416 7.92732 11.6038 7.69648 12.0589C7.65676 12.1374 7.61923 12.2207 7.58433 12.3046C7.44028 12.1904 7.1792 12.0275 6.9632 11.8932H6.96323ZM5.96555 6.54114L5.97703 6.54408L5.96066 6.54681C5.72651 6.58814 5.48347 6.64523 5.27783 6.69858C5.28699 6.61702 5.29797 6.53516 5.31106 6.4549C5.31516 6.43261 5.31971 6.41012 5.32459 6.38756C5.41453 6.40947 5.50593 6.43042 5.59744 6.45168C5.67996 6.47083 5.76268 6.49014 5.84424 6.51065L5.96555 6.54114ZM10.5601 7.12583C10.6804 7.04584 11.101 7.07784 11.2411 7.09384C11.3815 7.10987 11.8502 7.18192 12.0826 7.1299C12.3147 7.07787 12.419 7.02981 12.419 7.02981C12.419 7.02981 12.3629 7.45422 11.9142 7.48628C11.4655 7.51835 11.4055 7.41016 11.069 7.36613C11.069 7.36613 11.1691 7.30601 11.3495 7.27011C11.3495 7.27011 11.0368 7.22602 10.8005 7.28604C10.5643 7.34617 10.4681 7.44626 10.4681 7.44626C10.4681 7.44626 10.4401 7.20585 10.5602 7.12583H10.5601ZM6.10512 4.5216C6.10512 4.5216 6.14125 4.47549 6.14767 4.46565C6.34067 4.1739 6.55051 3.88424 6.65528 3.74341C6.72819 3.64516 6.78381 3.54757 6.82664 3.45699C6.9472 3.20165 6.96419 3.00195 6.96419 3.00195C8.07796 3.05306 9.41231 3.54169 10.4919 4.56416C10.9696 5.01653 11.2856 5.55074 11.4899 6.00611C11.2909 5.97378 10.8775 5.925 10.4114 5.92192C9.88871 5.91833 9.26197 5.98916 9.14288 6.00324L9.14281 6.0027C9.14093 5.98417 9.13844 5.96592 9.1357 5.94773L9.13338 5.9318C9.13116 5.91748 9.12839 5.90329 9.12565 5.88914L9.12644 5.88897C9.05947 5.3774 8.6809 4.88835 8.20043 4.68527C8.02781 4.60491 7.66435 4.48417 7.28503 4.45006C7.09326 4.42815 6.88725 4.4303 6.63727 4.45676C6.53011 4.46807 6.42595 4.48151 6.32375 4.49453C6.2495 4.50407 6.17676 4.5133 6.10508 4.5216H6.10512ZM7.5162 14.0151C7.5162 14.0151 7.26329 13.8838 7.08656 13.6288C6.94802 13.4289 6.93568 13.1833 6.93684 13.0862C7.11507 13.1889 7.31931 13.2904 7.43864 13.3644C7.56977 13.4457 7.67618 13.5261 7.75521 13.5933C7.62948 13.8162 7.5162 14.0151 7.5162 14.0151ZM6.78658 7.68765C5.94736 7.91644 4.15952 8.67324 3.11422 9.40508C2.66311 9.721 2.17082 10.2198 1.87093 10.5276C1.57727 10.6183 1.20636 10.7738 1.03418 10.8491C1.43603 10.4073 2.25015 9.61589 2.91387 9.16991C4.91769 7.8236 6.57431 7.60603 6.69781 7.58111L6.73438 7.61279C6.75096 7.63847 6.76863 7.66321 6.78661 7.68769L6.78658 7.68765ZM11.6511 9.85452C11.1342 10.195 10.8059 11.0067 10.8059 11.0067C10.9386 10.1059 11.5176 9.4767 11.5176 9.4767C11.085 9.72903 10.7699 10.2117 10.6026 11.2873C10.4115 12.5175 10.0588 12.9896 10.0588 12.9896L10.0956 12.8649C10.2437 12.2002 10.2197 11.8877 10.3399 11.0866C10.4601 10.2857 10.8126 9.79699 10.8126 9.79699C10.3719 10.1054 10.1348 10.7649 10.0515 11.7234C9.95964 12.7805 9.70648 13.1547 9.70648 13.1547C9.86057 12.6265 9.79515 12.0399 9.81901 11.6474C9.84311 11.2548 9.86047 10.721 10.0806 10.2164C10.301 9.71177 10.8126 9.2244 11.3495 8.98013C11.8861 8.73576 12.3145 8.85608 12.3145 8.85608C12.5974 9.12134 12.6148 9.40064 12.6148 9.40064C12.6148 9.40064 12.1679 9.5142 11.6511 9.85445V9.85452ZM7.13972 14.2623C7.08667 14.0837 7.16652 14.0158 7.21181 13.9571C7.21181 13.9571 7.33039 14.0616 7.45303 14.124C7.45303 14.124 7.38593 14.306 7.33411 14.4703C7.25375 14.4283 7.17226 14.3718 7.13975 14.2623L7.13972 14.2623ZM7.0693 15.2953C7.0693 15.2953 7.11032 15.3696 7.15438 15.4293C7.20897 15.5032 7.19732 15.5733 7.15811 15.6176C7.11887 15.6622 7.0559 15.6685 7.01071 15.6153C6.96539 15.5621 6.99789 15.3837 7.0693 15.2953ZM8.13115 11.7406C8.16782 11.8098 8.26627 11.9844 8.29413 12.2036C8.33481 12.5229 8.20939 12.8736 8.04586 13.1705C8.00136 13.2512 7.88972 13.354 7.83277 13.4552C7.78881 13.4063 7.71135 13.333 7.58064 13.2415C7.55346 13.2227 7.52119 13.2019 7.48564 13.1798C7.6045 12.7044 7.88322 12.0978 7.99613 11.9452C8.03185 11.897 8.09279 11.8021 8.13115 11.7406ZM7.25631 15.0179C7.35124 15.082 7.4517 15.2255 7.45891 15.2952C7.46985 15.4005 7.30598 15.4835 7.30598 15.4835C7.30598 15.4835 7.32885 15.368 7.20938 15.2797C7.03488 15.1504 6.97356 15.0998 7.10013 14.8821C7.10013 14.8821 7.16136 14.9537 7.25635 15.0179H7.25631ZM7.68195 13.977C7.82689 13.7161 8.03366 13.4376 8.03366 13.4376C8.03366 13.4376 8.16027 13.8307 8.05447 14.159C7.94878 14.4874 7.68848 14.7773 7.68848 14.7773C7.68848 14.7773 7.56696 14.6069 7.47197 14.5428C7.4636 14.5371 7.45433 14.5315 7.44473 14.526C7.49016 14.3982 7.58091 14.159 7.68199 13.977L7.68195 13.977ZM7.34375 14.6206C7.47371 14.6827 7.56649 14.7693 7.61482 14.8713C7.66305 14.9733 7.61988 15.067 7.53265 15.1283C7.53265 15.1283 7.48633 15.0036 7.36351 14.9412C7.24076 14.8788 7.12512 14.8252 7.09644 14.7009C7.06787 14.5768 7.14556 14.472 7.14556 14.472C7.14556 14.472 7.21393 14.5586 7.34375 14.6207V14.6206Z" fill="#FFC62F"/>
<path d="M6.72859 6.55729C6.33823 6.43929 5.77719 6.33381 5.27885 6.19229C4.27272 5.91049 3.58182 5.30396 3.22554 4.38947C2.99115 3.78827 2.98595 3.24337 2.98859 3.11238C2.98879 3.09361 2.9877 3.05847 2.9878 3.04641C2.9933 2.62497 3.04994 2.23468 3.09773 1.95394L3.10334 1.91972L3.10412 1.97974C3.10258 2.27149 3.12265 2.52827 3.12969 2.60809L3.13024 2.61595C3.13133 2.6276 3.13933 2.55603 3.14466 2.52013C3.16418 2.3901 3.1865 2.26124 3.19939 2.13032C3.21238 2.00001 3.24184 1.84435 3.24745 1.71356C3.24974 1.66332 3.25193 1.61276 3.25049 1.56244C3.26499 1.57106 3.27086 1.61987 3.27384 1.63371C3.28543 1.68806 3.31024 2.11562 3.31763 2.26199C3.32063 2.32044 3.32169 2.37893 3.32241 2.43734C3.32275 2.46654 3.32364 2.49522 3.32829 2.5241C3.32928 2.53176 3.33178 2.54006 3.33356 2.5483C3.33496 2.55507 3.35653 2.3578 3.37263 2.25385C3.38623 2.16641 3.40807 2.07771 3.40742 1.98853C3.40742 1.98077 3.40503 1.9711 3.40636 1.96344C3.40865 1.95028 3.42766 2.00709 3.43737 2.11145C3.44403 2.22938 3.44909 2.35172 3.46273 2.46701L3.47323 2.55821C3.56856 3.39541 4.07029 4.15819 4.7483 4.49981C5.29546 4.80657 5.80615 4.74111 6.34688 4.67182C6.44775 4.65883 6.55064 4.64564 6.65633 4.63449C6.89305 4.60947 7.08666 4.60732 7.26728 4.62779C7.66567 4.66375 8.03402 4.79942 8.15517 4.86228C8.55944 5.04386 8.87645 5.45552 8.94259 5.88841L8.94287 5.9C8.96003 5.97865 8.96888 6.06014 8.96888 6.14396L8.96878 6.147C8.96604 6.13107 8.96461 6.11555 8.96105 6.09925C8.95907 6.2395 8.9306 6.37322 8.8812 6.49631C8.9215 6.37161 8.9348 6.22562 8.89812 6.05536C8.896 6.21485 8.85915 6.36532 8.79595 6.5015C8.83379 6.37947 8.84928 6.24855 8.8369 6.11364C8.81215 5.84048 8.67942 5.60295 8.48448 5.43699C8.64063 5.60391 8.7162 5.86858 8.7388 6.1161C8.79103 6.69611 8.32714 7.07628 7.82954 7.16208L7.81915 7.16465C7.86188 7.17223 8.02773 7.19503 8.19307 7.14239C8.26643 7.13723 8.36388 7.12076 8.46274 7.07293C8.49935 7.05523 8.5456 7.02877 8.59523 6.99411C8.3887 7.18495 8.11326 7.30243 7.80989 7.30243C7.40927 7.30243 7.05692 7.09881 6.84922 6.7896C7.1381 6.82576 7.42113 6.88319 7.42113 6.88319C7.16063 6.68233 6.7289 6.55586 6.7289 6.55586L6.72846 6.55726L6.72859 6.55729ZM6.55269 3.55022C6.41712 3.75853 6.21692 4.04177 6.06057 4.26204C5.87191 4.12035 5.55699 3.83954 5.41206 3.45653C5.18809 2.86445 5.2634 2.29966 5.22439 1.98361C5.21308 1.89275 5.19876 1.78162 5.18088 1.66335C5.23038 1.82671 5.29546 2.06058 5.31282 2.21037C5.31282 2.21037 5.29833 1.78494 5.23957 1.52084C5.23957 1.52084 5.38618 1.93168 5.41564 2.16631C5.41564 2.16631 5.43486 1.93903 5.41335 1.69623C5.44115 1.78942 5.46579 1.88745 5.48422 1.99068C5.59968 2.6316 5.7895 3.07898 6.55266 3.55019L6.55269 3.55022Z" fill="#FFFFFE"/>
<path d="M11.2117 7.7594C11.252 7.80757 11.3239 7.91155 11.3279 7.94768C11.3284 7.95216 11.328 7.96193 11.3271 7.9752V7.97526L11.3263 7.98477L11.3261 7.98631C11.321 8.04168 11.2944 8.29938 11.235 8.37123C11.2263 8.38556 11.2164 8.39937 11.2039 8.41184C11.1357 8.47563 11.0164 8.53627 10.7912 8.69248C10.5428 8.86483 10.3465 9.21718 10.3465 9.21718C10.3465 9.21718 10.4171 8.88425 10.5706 8.69395C10.7609 8.45826 11.0088 8.30249 11.1618 8.2211L11.2306 7.91401C11.1779 7.87884 11.1116 7.84284 11.0476 7.83136C10.9145 7.80794 10.6904 7.81098 10.5532 7.76624L10.5549 7.76347C10.7191 7.74344 10.8153 7.69541 11.0596 7.65525C11.3039 7.61525 11.4922 7.68738 11.4922 7.68738C11.3279 7.69541 11.2117 7.7594 11.2117 7.7594ZM12.0063 7.62715C12.0063 7.62715 12.1084 7.86051 12.1036 8.03071C12.0988 8.20083 12.1521 8.3175 12.2153 8.36611C12.2786 8.41465 12.3418 8.42442 12.3807 8.45375C12.4198 8.48281 12.4198 8.57035 12.4003 8.64319C12.3807 8.71607 12.3273 8.72584 12.269 8.71125C12.2146 8.69778 11.9301 8.65922 11.6212 8.71597C11.6048 8.65881 11.5765 8.52813 11.6381 8.46339C11.7182 8.37958 11.8744 8.38744 11.9344 8.39947C11.9344 8.39947 11.8065 8.33938 11.6942 8.33938C11.582 8.33938 11.4898 8.41553 11.4578 8.49959C11.434 8.56211 11.4545 8.69074 11.4665 8.75292C11.1308 8.85177 10.6499 9.11399 10.2554 9.62047C9.82744 10.1697 9.73057 10.8553 9.73057 10.8553C9.73057 10.8553 9.27916 10.9442 9.04552 10.5973C8.73217 10.132 8.84996 9.58642 8.84996 9.58642C8.84996 9.58642 8.66442 9.67396 8.51757 9.63568C8.46609 9.62224 8.42955 9.58837 8.40364 9.54824C8.64791 9.33118 8.9078 9.12732 9.1656 8.83232C9.29912 8.86199 9.41913 8.89416 9.48459 8.91419C9.62891 8.95818 9.77925 9.08018 9.81924 9.21226C9.85937 9.34451 9.87923 9.79305 9.87923 9.79305C9.96034 9.48107 9.97333 9.32366 9.98123 9.23533C9.98943 9.14731 9.98017 8.92461 9.8111 8.77042C9.71987 8.68722 9.46149 8.60993 9.35904 8.55312C9.75019 8.01457 9.85766 7.18937 9.85766 7.18937L9.85732 7.16593C9.89718 7.16158 9.92322 7.15745 9.92428 7.15335C9.99641 7.14918 10.2524 7.11797 10.3235 7.11667C10.3235 7.11667 10.2164 7.43252 10.3089 7.66591C10.3089 7.66591 10.5472 7.50553 10.8877 7.52983C11.228 7.55424 11.7728 7.71944 12.0063 7.62712L12.0063 7.62715ZM8.77985 10.6318C8.94167 10.8693 9.15866 11.0712 9.50719 11.0712C9.55764 11.0712 9.61749 11.0703 9.68265 11.0686C9.654 11.2492 9.63992 11.4438 9.63295 11.585C9.5573 11.6102 9.49006 11.6345 9.43657 11.657C9.09802 11.7983 8.46797 12.1322 8.46797 12.1322L8.44651 12.1451C8.39462 11.786 8.27747 11.491 8.27747 11.491C8.27747 11.491 8.50352 10.9032 8.41895 10.5418C8.30783 10.0671 8.12598 9.81469 8.12598 9.81469C8.14594 9.79343 8.16594 9.77343 8.186 9.75306C8.30519 9.91526 8.50701 9.91991 8.50701 9.91991C8.50701 9.91991 8.61831 10.3947 8.77985 10.6318ZM12.2383 11.0636C12.4101 11.0687 12.5681 11.056 12.5681 11.056C12.5176 11.0964 12.3812 11.0914 12.3054 11.1015C12.2297 11.1116 11.7601 11.1268 11.1892 11.2127C11.0858 11.2281 10.973 11.2483 10.8561 11.2713C10.8924 11.1732 10.9261 11.103 10.968 11.0372L10.9731 11.0372C11.3923 11.0372 12.0665 11.0587 12.2383 11.0636ZM12.4394 10.3697C12.5595 10.4178 12.6276 10.4617 12.6717 10.7101C12.7158 10.9584 12.5755 10.9504 12.5075 10.9465C12.4394 10.9425 12.2414 10.9412 11.9369 10.9051C11.6325 10.8692 11.0886 10.855 11.0886 10.855C11.3486 10.1358 12.2551 9.7451 12.2551 9.7451C12.2712 9.95323 12.1149 10.3338 12.1149 10.3338C12.1149 10.3338 12.3192 10.3217 12.4394 10.3698V10.3697Z" fill="#E9BF9B"/>
<path d="M11.5803 6.18477C11.4367 6.15804 10.9792 6.08896 10.4113 6.08513C9.89525 6.08164 9.27289 6.14614 9.15014 6.15978L9.15004 6.16194C9.14932 6.92947 8.48851 7.47731 7.87308 7.48644C6.94366 7.50032 6.6015 6.75141 6.59442 6.70721C6.52817 6.6879 6.45742 6.66862 6.38406 6.64897C6.26059 6.66404 6.12858 6.68298 5.99004 6.70742C5.73395 6.75251 5.46941 6.81564 5.25409 6.87167C5.24384 6.98532 5.22739 7.16817 5.22675 7.18375C5.19612 7.83001 5.23683 7.78492 5.23683 7.78492C5.42429 7.71163 6.11566 7.53436 6.11566 7.53436C6.31812 7.48726 6.55856 7.43667 6.84006 7.38471C7.03797 7.78352 7.44898 8.0577 7.92443 8.0577C8.51811 8.0577 9.01146 7.63035 9.11476 7.06685C10.4123 6.92602 11.0256 6.92202 11.8269 7.02856C11.7429 6.58211 11.5803 6.1847 11.5803 6.1847" fill="#4F2683"/>
<path d="M11.4919 7.68743C11.4919 7.68743 11.3038 7.61531 11.0597 7.65527C10.8149 7.69519 10.719 7.74346 10.5547 7.76346L10.553 7.76622C10.6901 7.81114 10.9143 7.80782 11.0474 7.83114C11.1117 7.84279 11.1779 7.87886 11.2306 7.91379L11.1618 8.22112C11.0086 8.30268 10.7606 8.45804 10.5707 8.6938C10.5563 8.71151 10.5424 8.73096 10.5297 8.75143C10.5236 8.75974 10.5181 8.76863 10.5131 8.77806C10.5058 8.78972 10.4992 8.80137 10.4931 8.81299C10.4854 8.82687 10.4781 8.8413 10.4709 8.85627C10.4637 8.87069 10.457 8.88512 10.451 8.89954C10.4238 8.96049 10.4021 9.02157 10.3861 9.07323L10.3805 9.09093C10.3683 9.13137 10.3595 9.1647 10.3539 9.18746L10.3517 9.19628L10.35 9.20298L10.3478 9.21351L10.3472 9.21635C10.3505 9.21074 10.3678 9.17967 10.3966 9.13475L10.4176 9.10259C10.4731 9.01939 10.5575 8.90399 10.658 8.80527C10.6719 8.79139 10.6862 8.77755 10.7007 8.76476C10.7301 8.73865 10.76 8.71428 10.7911 8.69264C11.0164 8.53622 11.1357 8.47575 11.2039 8.412C11.2162 8.39918 11.2262 8.3853 11.2351 8.37146C11.2945 8.2993 11.3211 8.04139 11.3261 7.9865V7.98482L11.3272 7.97539C11.3277 7.96595 11.3277 7.95819 11.3277 7.9532V7.94766C11.3238 7.9116 11.2517 7.80731 11.2118 7.75963C11.2118 7.75963 11.3277 7.6953 11.492 7.6875L11.4919 7.68743ZM11.4919 7.68743C11.4919 7.68743 11.3038 7.61531 11.0597 7.65527C10.8149 7.69519 10.719 7.74346 10.5547 7.76346L10.553 7.76622C10.6901 7.81114 10.9143 7.80782 11.0474 7.83114C11.1117 7.84279 11.1779 7.87886 11.2306 7.91379L11.1618 8.22112C11.0086 8.30268 10.7606 8.45804 10.5707 8.6938C10.5563 8.71151 10.5424 8.73096 10.5297 8.75143C10.5236 8.75974 10.5181 8.76863 10.5131 8.77806C10.5058 8.78972 10.4992 8.80137 10.4931 8.81299C10.4854 8.82687 10.4781 8.8413 10.4709 8.85627C10.4637 8.87069 10.457 8.88512 10.451 8.89954C10.4238 8.96049 10.4021 9.02157 10.3861 9.07323L10.3805 9.09093C10.3683 9.13137 10.3595 9.1647 10.3539 9.18746L10.3517 9.19628L10.35 9.20298L10.3478 9.21351L10.3472 9.21635C10.3505 9.21074 10.3678 9.17967 10.3966 9.13475L10.4176 9.10259C10.4731 9.01939 10.5575 8.90399 10.658 8.80527C10.6719 8.79139 10.6862 8.77755 10.7007 8.76476C10.7301 8.73865 10.76 8.71428 10.7911 8.69264C11.0164 8.53622 11.1357 8.47575 11.2039 8.412C11.2162 8.39918 11.2262 8.3853 11.2351 8.37146C11.2945 8.2993 11.3211 8.04139 11.3261 7.9865V7.98482L11.3272 7.97539C11.3277 7.96595 11.3277 7.95819 11.3277 7.9532V7.94766C11.3238 7.9116 11.2517 7.80731 11.2118 7.75963C11.2118 7.75963 11.3277 7.6953 11.492 7.6875L11.4919 7.68743ZM11.4919 7.68743C11.4919 7.68743 11.3038 7.61531 11.0597 7.65527C10.8149 7.69519 10.719 7.74346 10.5547 7.76346L10.553 7.76622C10.6901 7.81114 10.9143 7.80782 11.0474 7.83114C11.1117 7.84279 11.1779 7.87886 11.2306 7.91379L11.1618 8.22112C11.0086 8.30268 10.7606 8.45804 10.5707 8.6938C10.5563 8.71151 10.5424 8.73096 10.5297 8.75143C10.5236 8.75974 10.5181 8.76863 10.5131 8.77806C10.5058 8.78972 10.4992 8.80137 10.4931 8.81299C10.4854 8.82687 10.4781 8.8413 10.4709 8.85627C10.4637 8.87069 10.457 8.88512 10.451 8.89954C10.4238 8.96049 10.4021 9.02157 10.3861 9.07323L10.3805 9.09093C10.3683 9.13137 10.3595 9.1647 10.3539 9.18746L10.3517 9.19628L10.35 9.20298L10.3478 9.21351L10.3472 9.21635C10.3505 9.21074 10.3678 9.17967 10.3966 9.13475L10.4176 9.10259C10.4731 9.01939 10.5575 8.90399 10.658 8.80527C10.6719 8.79139 10.6862 8.77755 10.7007 8.76476C10.7301 8.73865 10.76 8.71428 10.7911 8.69264C11.0164 8.53622 11.1357 8.47575 11.2039 8.412C11.2162 8.39918 11.2262 8.3853 11.2351 8.37146C11.2945 8.2993 11.3211 8.04139 11.3261 7.9865V7.98482L11.3272 7.97539C11.3277 7.96595 11.3277 7.95819 11.3277 7.9532V7.94766C11.3238 7.9116 11.2517 7.80731 11.2118 7.75963C11.2118 7.75963 11.3277 7.6953 11.492 7.6875L11.4919 7.68743ZM11.4919 7.68743C11.4919 7.68743 11.3038 7.61531 11.0597 7.65527C10.8149 7.69519 10.719 7.74346 10.5547 7.76346L10.553 7.76622C10.6901 7.81114 10.9143 7.80782 11.0474 7.83114C11.1117 7.84279 11.1779 7.87886 11.2306 7.91379L11.1618 8.22112C11.0086 8.30268 10.7606 8.45804 10.5707 8.6938C10.5563 8.71151 10.5424 8.73096 10.5297 8.75143C10.5236 8.75974 10.5181 8.76863 10.5131 8.77806C10.5058 8.78972 10.4992 8.80137 10.4931 8.81299C10.4854 8.82687 10.4781 8.8413 10.4709 8.85627C10.4637 8.87069 10.457 8.88512 10.451 8.89954C10.4238 8.96049 10.4021 9.02157 10.3861 9.07323L10.3805 9.09093C10.3683 9.13137 10.3595 9.1647 10.3539 9.18746L10.3517 9.19628L10.35 9.20298L10.3478 9.21351L10.3472 9.21635C10.3505 9.21074 10.3678 9.17967 10.3966 9.13475L10.4176 9.10259C10.4731 9.01939 10.5575 8.90399 10.658 8.80527C10.6719 8.79139 10.6862 8.77755 10.7007 8.76476C10.7301 8.73865 10.76 8.71428 10.7911 8.69264C11.0164 8.53622 11.1357 8.47575 11.2039 8.412C11.2162 8.39918 11.2262 8.3853 11.2351 8.37146C11.2945 8.2993 11.3211 8.04139 11.3261 7.9865V7.98482L11.3272 7.97539C11.3277 7.96595 11.3277 7.95819 11.3277 7.9532V7.94766C11.3238 7.9116 11.2517 7.80731 11.2118 7.75963C11.2118 7.75963 11.3277 7.6953 11.492 7.6875L11.4919 7.68743ZM11.0597 7.65527C10.8149 7.69519 10.719 7.74346 10.5547 7.76346L10.553 7.76622C10.6901 7.81114 10.9143 7.80782 11.0474 7.83114C11.1117 7.84279 11.1779 7.87886 11.2306 7.91379L11.1618 8.22112C11.0086 8.30268 10.7606 8.45804 10.5707 8.6938C10.5563 8.71151 10.5424 8.73096 10.5297 8.75143C10.5236 8.75974 10.5181 8.76863 10.5131 8.77806C10.5058 8.78972 10.4992 8.80137 10.4931 8.81299C10.4854 8.82687 10.4781 8.8413 10.4709 8.85627C10.4637 8.87069 10.457 8.88512 10.451 8.89954C10.4238 8.96049 10.4021 9.02157 10.3861 9.07323L10.3805 9.09093C10.3683 9.13137 10.3595 9.1647 10.3539 9.18746L10.3517 9.19628L10.35 9.20298L10.3478 9.21351L10.3472 9.21635C10.3505 9.21074 10.3678 9.17967 10.3966 9.13475L10.4176 9.10259C10.4731 9.01939 10.5575 8.90399 10.658 8.80527C10.6719 8.79139 10.6862 8.77755 10.7007 8.76476C10.7301 8.73865 10.76 8.71428 10.7911 8.69264C11.0164 8.53622 11.1357 8.47575 11.2039 8.412C11.2162 8.39918 11.2262 8.3853 11.2351 8.37146C11.2945 8.2993 11.3211 8.04139 11.3261 7.9865V7.98482L11.3272 7.97539C11.3277 7.96595 11.3277 7.95819 11.3277 7.9532V7.94766C11.3238 7.9116 11.2517 7.80731 11.2118 7.75963C11.2118 7.75963 11.3277 7.6953 11.492 7.6875C11.492 7.6875 11.3039 7.61538 11.0597 7.65534L11.0597 7.65527ZM12.5073 10.9465C12.4391 10.9426 12.2416 10.9415 11.9369 10.9049C11.6323 10.8693 11.0884 10.8549 11.0884 10.8549C11.3482 10.1361 12.2549 9.74491 12.2549 9.74491C12.271 9.95295 12.115 10.3334 12.115 10.3334C12.115 10.3334 12.3192 10.3218 12.4391 10.3695C12.5595 10.4178 12.6278 10.4616 12.6717 10.7101C12.7155 10.9586 12.5756 10.9503 12.5073 10.9464V10.9465ZM12.3054 11.1012C12.2293 11.1118 11.7599 11.1268 11.1889 11.2127C11.0857 11.2283 10.973 11.2483 10.856 11.271C10.8921 11.1734 10.9259 11.1029 10.968 11.0375L10.973 11.0369C11.392 11.0369 12.0662 11.0585 12.2382 11.0634C12.4097 11.0684 12.5677 11.0557 12.5677 11.0557C12.5173 11.0961 12.3814 11.0912 12.3053 11.1012L12.3054 11.1012ZM10.6029 11.2871C10.4115 12.5175 10.0592 12.9895 10.0592 12.9895L10.0958 12.8647C10.244 12.2001 10.2201 11.8878 10.3399 11.0867C10.4604 10.2858 10.8128 9.797 10.8128 9.797C10.3721 10.1055 10.1346 10.7651 10.0514 11.7236C9.96263 12.7471 9.72236 13.131 9.70743 13.1537C9.86053 12.6261 9.79504 12.0398 9.81944 11.6477C9.8433 11.255 9.8605 10.7213 10.0808 10.2165C10.3011 9.71165 10.8128 9.22462 11.3498 8.97998C11.8864 8.73591 12.3148 8.85627 12.3148 8.85627C12.5972 9.12142 12.615 9.40045 12.615 9.40045C12.615 9.40045 12.1683 9.51418 11.6511 9.85477C11.1344 10.1948 10.8059 11.0069 10.8059 11.0069C10.9386 10.106 11.5179 9.47644 11.5179 9.47644C11.0851 9.72884 10.77 10.2115 10.6029 11.2871H10.6029ZM9.63301 11.585C9.55699 11.6099 9.48985 11.6343 9.43656 11.6571C9.09809 11.7985 8.46773 12.1325 8.46773 12.1325L8.44609 12.1452C8.39448 11.7858 8.2774 11.4912 8.2774 11.4912C8.2774 11.4912 8.50318 10.9032 8.41888 10.542C8.30789 10.0672 8.12597 9.81481 8.12597 9.81481C8.1459 9.79318 8.16583 9.77321 8.18586 9.75325C8.30516 9.91524 8.5066 9.92023 8.5066 9.92023C8.5066 9.92023 8.61813 10.3945 8.77961 10.6319C8.94164 10.8693 9.15859 11.0713 9.50702 11.0713C9.5575 11.0713 9.61749 11.0702 9.68237 11.0685C9.65414 11.2494 9.63968 11.4435 9.63301 11.585ZM8.04599 13.1704C8.00165 13.2513 7.88957 13.354 7.83289 13.4549C7.7891 13.4061 7.71144 13.3329 7.58104 13.2414C7.55386 13.2225 7.52111 13.202 7.4856 13.1798C7.6049 12.7044 7.88345 12.0981 7.99608 11.945C8.03211 11.8967 8.09319 11.8019 8.13148 11.7409C8.16809 11.8097 8.26633 11.9844 8.29405 12.2035C8.3351 12.523 8.20972 12.8736 8.04595 13.1704H8.04599ZM8.05436 14.1589C7.94887 14.4873 7.68868 14.7775 7.68868 14.7775C7.68868 14.7775 7.56716 14.6071 7.4722 14.5428C7.46393 14.5373 7.45449 14.5317 7.44506 14.5261C7.49001 14.398 7.581 14.1589 7.68205 13.977C7.82681 13.7163 8.03378 13.4378 8.03378 13.4378C8.03378 13.4378 8.16029 13.8305 8.05433 14.1589L8.05436 14.1589ZM7.5327 15.128C7.5327 15.128 7.48669 15.0038 7.36353 14.9411C7.24085 14.879 7.12542 14.8251 7.09664 14.7009C7.06779 14.5766 7.14548 14.4718 7.14548 14.4718C7.14548 14.4718 7.21429 14.5589 7.34412 14.6205C7.47401 14.6826 7.56668 14.7691 7.61491 14.8712C7.66318 14.9733 7.6199 15.067 7.53274 15.128L7.5327 15.128ZM7.30638 15.4836C7.30638 15.4836 7.32908 15.3682 7.20927 15.28C7.03504 15.1501 6.97344 15.0997 7.1005 14.8822C7.1005 14.8822 7.16155 14.9538 7.25641 15.0177C7.3513 15.082 7.45172 15.2257 7.45894 15.295C7.47005 15.4004 7.30635 15.4836 7.30635 15.4836H7.30638ZM7.15817 15.6178C7.11882 15.6622 7.05606 15.6688 7.01063 15.6156C6.96568 15.5623 6.99792 15.3837 7.06946 15.2955C7.06946 15.2955 7.11051 15.3698 7.15437 15.4293C7.2093 15.503 7.19761 15.5734 7.15817 15.6178ZM7.45285 14.1239C7.45285 14.1239 7.38633 14.3059 7.3341 14.4701C7.25364 14.4285 7.17262 14.3719 7.13988 14.2625C7.08662 14.084 7.16651 14.0157 7.212 13.9569C7.212 13.9569 7.33021 14.0618 7.45282 14.1239H7.45285ZM6.9368 13.086C7.11492 13.1886 7.31961 13.2901 7.43897 13.3645C7.56993 13.4455 7.67647 13.5259 7.75526 13.593C7.62982 13.8161 7.51612 14.0152 7.51612 14.0152C7.51612 14.0152 7.26365 13.8837 7.08666 13.6286C6.94794 13.4289 6.93567 13.1831 6.93683 13.086L6.9368 13.086ZM6.4041 12.4054C6.17993 12.0559 6.18215 11.5977 6.18215 11.5977C6.29314 11.6958 6.57833 11.8551 6.83907 11.9999C7.0522 12.118 7.39956 12.3771 7.51999 12.4686C7.42011 12.737 7.3513 12.9856 7.32521 13.0821C7.02831 12.9041 6.57166 12.6661 6.4041 12.4054ZM8.24356 10.9675C8.15421 11.4418 7.92734 11.6038 7.69644 12.0587C7.65699 12.1374 7.61932 12.2206 7.58435 12.3045C7.44065 12.1901 7.17929 12.0276 6.96339 11.8933C6.97283 11.7175 7.03613 11.3869 7.21703 10.9758C7.41956 10.516 7.93616 9.95072 7.93616 9.95072C8.10816 10.1288 8.33346 10.4932 8.24356 10.9676V10.9675ZM5.60563 10.2386C5.59066 9.83922 5.62283 9.48085 5.69775 9.22458C5.68555 9.23962 5.67112 9.25675 5.65725 9.2734C4.79718 10.308 3.81669 10.2381 2.91889 10.3307C2.78626 10.3441 2.28743 10.445 2.15593 10.4733C2.47609 10.131 3.02933 9.62842 3.39057 9.38213C4.06697 8.92067 5.22668 8.43911 5.29884 8.40971C4.75172 8.71263 4.31005 9.20018 4.31005 9.20018C4.64076 8.97611 5.77049 8.32316 5.84043 8.28272C5.5197 8.58831 4.6169 9.38323 4.08089 9.73828C4.76505 9.41543 5.34437 8.9971 5.65622 8.70204C6.04631 8.33369 6.63227 7.97812 6.89749 7.84112C7.02735 7.96927 7.216 8.08631 7.38411 8.15563C6.9341 8.47237 6.63391 8.65322 6.50518 9.08146C6.50518 9.08146 6.83476 8.65876 7.30922 8.39969C7.3985 8.35143 7.4951 8.29157 7.59447 8.22328C7.70095 8.2482 7.93291 8.26987 8.04602 8.26987L8.07378 8.2576C8.05552 8.27147 8.01003 8.29759 7.99116 8.31147C7.08563 8.97608 6.25657 9.15079 6.17778 10.4993C6.18943 10.4233 6.32483 9.60175 6.99012 9.17574C7.3852 8.92279 8.09384 8.58602 8.56877 8.10179C8.93224 7.93536 9.1614 7.65079 9.2796 7.2553L9.28237 7.24309C9.39999 7.23144 9.5171 7.21647 9.63971 7.20536C9.62583 7.34848 9.59421 7.54264 9.52486 7.74066C9.43995 8.00636 9.29679 8.30203 9.04483 8.61053C8.59099 9.16466 8.04332 9.51134 7.47346 10.2536C6.90303 10.9952 6.78209 11.7514 6.78209 11.7514C6.65828 10.8538 7.07117 10.2741 7.09394 10.2431C7.02513 10.298 6.74381 10.6309 6.63999 11.0396C6.54517 11.413 6.5612 11.5189 6.56736 11.6249C6.30767 11.4435 5.63681 11.1029 5.60573 10.2386L5.60563 10.2386ZM5.46914 10.3307C5.46914 10.3307 5.29601 10.3989 5.08517 10.3989C4.87375 10.3989 4.6196 10.2659 4.6196 10.2659L4.6368 10.2641C5.08014 10.1531 5.4808 9.67395 5.4808 9.67395C5.43417 9.83594 5.46914 10.3307 5.46914 10.3307ZM1.87126 10.5276C1.57774 10.618 1.20652 10.774 1.03451 10.8488C1.43626 10.4072 2.25028 9.61563 2.9139 9.16965C4.91761 7.82334 6.5745 7.60587 6.69824 7.58092L6.73437 7.61254C6.75092 7.63862 6.76872 7.66303 6.78646 7.68743C5.94749 7.91652 4.15964 8.67319 3.11424 9.40486C2.66313 9.72105 2.17094 10.2197 1.8713 10.5276L1.87126 10.5276ZM3.2252 4.38958C2.99105 3.78824 2.98606 3.24351 2.98824 3.11259C2.98879 3.09372 2.9877 3.05824 2.9877 3.04658C2.99323 2.62497 3.04984 2.23447 3.09756 1.95377C3.09978 1.94266 3.10146 1.93103 3.1031 1.91992L3.10419 1.97985C3.10252 2.27163 3.12251 2.52848 3.12973 2.60836L3.13027 2.61612C3.13137 2.62778 3.13916 2.5562 3.1447 2.52014C3.16411 2.39034 3.1863 2.26107 3.19908 2.13015C3.21241 1.99978 3.24181 1.84445 3.24735 1.71353C3.24957 1.66304 3.25179 1.61256 3.25012 1.56265C3.26509 1.57096 3.27066 1.6198 3.27398 1.63365C3.28508 1.688 3.31004 2.11569 3.31725 2.26216C3.32057 2.32041 3.32169 2.37865 3.32224 2.43745C3.32279 2.4663 3.32333 2.49515 3.32836 2.524C3.32891 2.53176 3.33168 2.5401 3.33335 2.5484C3.33557 2.5484 3.35612 2.35592 3.37218 2.25385C3.38606 2.16621 3.4077 2.07744 3.40715 1.9887C3.40715 1.98094 3.40493 1.97096 3.40606 1.96375C3.40828 1.95045 3.42769 2.00702 3.43713 2.11131C3.44379 2.22948 3.44878 2.35151 3.46266 2.46688L3.47319 2.55842C3.56863 3.39551 4.07026 4.15826 4.74833 4.49995C5.29546 4.8067 5.80594 4.74124 6.34695 4.67192C6.44737 4.65917 6.55061 4.64584 6.65602 4.63477C6.89298 4.60981 7.08662 4.60759 7.26697 4.62755C7.66536 4.66362 8.03382 4.79953 8.15479 4.86222C8.55924 5.04362 8.87614 5.45576 8.94266 5.88844V5.9001C8.95992 5.97886 8.96881 6.06042 8.96881 6.14416V6.14693C8.96597 6.13083 8.96437 6.11586 8.96098 6.09921C8.95883 6.23957 8.93056 6.37325 8.88113 6.49641C8.92109 6.37161 8.93439 6.22572 8.89778 6.05539C8.89611 6.21516 8.85895 6.36549 8.79568 6.5014C8.83345 6.37937 8.84893 6.24845 8.8367 6.11364C8.81178 5.84072 8.67911 5.60329 8.48441 5.43686C8.64032 5.60384 8.7163 5.86845 8.73856 6.11641C8.79072 6.69611 8.32683 7.07608 7.82965 7.16205L7.81905 7.16482C7.86185 7.17203 8.02773 7.19534 8.19311 7.14263C8.26636 7.1371 8.36402 7.121 8.46277 7.07273C8.49938 7.05554 8.54539 7.02891 8.5954 6.99397C8.38897 7.18481 8.11319 7.3024 7.80961 7.3024C7.40903 7.3024 7.05668 7.09881 6.84916 6.78984C7.13824 6.8259 7.4212 6.88302 7.4212 6.88302C7.16045 6.68219 6.72876 6.55572 6.72876 6.55572V6.55739C6.33813 6.43923 5.77712 6.33384 5.27885 6.19239C4.27282 5.91059 3.58199 5.30375 3.2252 4.38958ZM5.41202 3.45653C5.18785 2.86463 5.26333 2.29993 5.22446 1.98374C5.21281 1.89278 5.19838 1.78183 5.18064 1.66311C5.23058 1.82674 5.29549 2.06086 5.31269 2.21061C5.31269 2.21061 5.29826 1.78624 5.23998 1.52221C5.24829 1.54662 5.38703 1.93883 5.41534 2.16624C5.41534 2.16624 5.43475 1.93879 5.41312 1.69641C5.44087 1.78959 5.46583 1.88779 5.48415 1.99096C5.59955 2.63167 5.78933 3.07933 6.55286 3.55029C6.41692 3.75833 6.21661 4.04177 6.06067 4.26201C5.87202 4.12056 5.55682 3.83985 5.41202 3.45653ZM6.82697 3.45708C6.9474 3.2019 6.96459 3.00166 6.96459 3.00166C8.07819 3.05325 9.41274 3.54141 10.4919 4.56432C10.9698 5.01641 11.286 5.55062 11.4902 6.00607C11.291 5.9739 10.8777 5.92509 10.4116 5.92174C9.88883 5.91842 9.26237 5.98887 9.14307 6.0033V6.00275C9.14085 5.98443 9.1387 5.96614 9.13586 5.94782L9.13364 5.93172C9.13142 5.91729 9.12865 5.90342 9.12588 5.88899H9.12643C9.05984 5.37752 8.68089 4.88826 8.20087 4.68522C8.02831 4.60479 7.66485 4.48385 7.28529 4.45001C7.09325 4.42783 6.88744 4.43005 6.63774 4.45668C6.5301 4.46778 6.42632 4.48163 6.32422 4.49441C6.24987 4.50385 6.17716 4.51328 6.10504 4.52159C6.10504 4.52159 6.14165 4.47554 6.14777 4.46556C6.34086 4.17378 6.55061 3.88422 6.65555 3.74332C6.72812 3.64515 6.78421 3.54749 6.82694 3.45708H6.82697ZM5.27827 6.69833C5.28715 6.61677 5.29823 6.53524 5.31101 6.45481C5.31546 6.43263 5.3199 6.4099 5.32489 6.38768C5.41479 6.40932 5.50633 6.43041 5.59791 6.45146C5.68001 6.47088 5.7627 6.49029 5.84426 6.5108C5.88531 6.52078 5.92582 6.53077 5.96578 6.54133L5.97743 6.5441L5.96079 6.54687C5.72664 6.58792 5.4836 6.64504 5.27827 6.69829V6.69833ZM11.827 7.02839C11.0258 6.92188 10.4126 6.92578 9.11477 7.06668C9.01157 7.63028 8.51825 8.05797 7.92454 8.05797C7.44896 8.05797 7.03839 7.78338 6.8403 7.38454C6.55898 7.43667 6.31817 7.48716 6.11563 7.53433C6.11563 7.53433 5.42426 7.71184 5.23725 7.78506C5.23725 7.78506 5.19619 7.82997 5.22672 7.18372C5.22781 7.1682 5.24391 6.98512 5.25447 6.87198C5.46976 6.81595 5.73447 6.75271 5.99025 6.70722C6.12897 6.68281 6.26105 6.66394 6.38421 6.64897C6.45746 6.66839 6.52849 6.6878 6.5945 6.70722C6.60171 6.75159 6.94408 7.50049 7.8735 7.48661C8.48886 7.47718 9.14974 6.92968 9.15029 6.16194V6.15972C9.27297 6.14642 9.89543 6.08151 10.4116 6.08537C10.9798 6.08926 11.437 6.15804 11.5807 6.18467C11.5807 6.18467 11.7433 6.58242 11.827 7.02839ZM12.0828 7.12992C12.3148 7.07779 12.4191 7.03007 12.4191 7.03007C12.4191 7.03007 12.3631 7.45445 11.9142 7.48606C11.4658 7.51823 11.4059 7.41008 11.0691 7.36625C11.0691 7.36625 11.1695 7.30579 11.3499 7.27027C11.3499 7.27027 11.0369 7.2259 10.8005 7.28579C10.5647 7.34626 10.4681 7.4461 10.4681 7.4461C10.4681 7.4461 10.4404 7.2059 10.5602 7.12602C10.6807 7.04559 11.1013 7.07775 11.241 7.09385C11.3815 7.10995 11.8504 7.18204 12.0828 7.12992ZM12.2155 8.36589C12.2787 8.4146 12.342 8.42465 12.3808 8.45353C12.4196 8.48286 12.4196 8.57054 12.4002 8.64324C12.3808 8.71585 12.327 8.72583 12.2687 8.7114C12.2143 8.69753 11.9302 8.65928 11.6212 8.71585C11.6045 8.65869 11.5762 8.52836 11.6378 8.46344C11.7177 8.38024 11.8715 8.38746 11.9325 8.39911C11.918 8.39245 11.7993 8.33919 11.6938 8.33919C11.5818 8.33919 11.4897 8.41576 11.4575 8.49957C11.4336 8.5622 11.4542 8.69089 11.4664 8.75304C11.1306 8.85179 10.6496 9.11417 10.255 9.62062C9.8272 10.1698 9.73071 10.8554 9.73071 10.8554C9.73071 10.8554 9.27898 10.9442 9.04538 10.5975C8.73193 10.1321 8.84999 9.58627 8.84999 9.58627C8.84999 9.58627 8.66418 9.67391 8.5176 9.6356C8.46605 9.6223 8.42938 9.58846 8.4034 9.54795C8.64804 9.33106 8.90773 9.12747 9.16577 8.83241C9.29888 8.86174 9.41876 8.89394 9.48428 8.91445C9.62857 8.95827 9.77894 9.08027 9.81944 9.21235C9.8594 9.34436 9.87936 9.79314 9.87936 9.79314C9.96031 9.48082 9.97313 9.32385 9.98092 9.23508C9.98923 9.14743 9.97983 8.92443 9.81114 8.77023C9.71953 8.68703 9.46155 8.60992 9.35883 8.55328C9.75009 8.0147 9.85773 7.18926 9.85773 7.18926C9.85718 7.1815 9.85718 7.17374 9.85718 7.16595C9.89717 7.1615 9.92315 7.15764 9.92431 7.15319C9.99644 7.1493 10.2523 7.11768 10.3233 7.11659C10.3233 7.11659 10.2163 7.43223 10.3089 7.66576C10.3089 7.66576 10.5469 7.50545 10.8876 7.52985C11.2278 7.55426 11.7726 7.71956 12.0063 7.62693C12.0063 7.62693 12.1084 7.86047 12.1034 8.03076C12.0989 8.20051 12.1522 8.31748 12.2155 8.36589ZM12.813 10.5548C12.7909 10.4189 12.6544 10.2974 12.5861 10.2824C12.5178 10.2674 12.3436 10.222 12.3436 10.222C12.4723 9.85867 12.4723 9.63119 12.4723 9.63119C12.5861 9.57065 12.813 9.47979 12.813 9.47979C12.7376 9.07811 12.4646 8.76746 12.4646 8.76746C12.4873 8.68426 12.5405 8.54059 12.5405 8.48734C12.5405 8.43408 12.4418 8.34367 12.3358 8.27544C12.2298 8.20721 12.2148 8.08627 12.2148 7.94206C12.2148 7.79839 12.1544 7.61644 12.1316 7.60868C12.1088 7.60146 12.4018 7.50883 12.4929 7.25089C12.5838 6.99349 12.5861 6.78437 12.5861 6.78437C12.4651 6.96078 11.9912 7.03345 11.9912 7.03345C11.9535 6.63184 11.6311 5.33653 10.3282 4.16274C9.02535 2.98895 6.80523 2.77647 6.80523 2.77647C6.80855 2.84193 6.80024 2.91959 6.78083 3.00501C6.7625 3.11539 6.73034 3.24576 6.67428 3.35118C6.67096 3.3573 6.66652 3.36506 6.66208 3.37227C6.35577 3.20642 6.03394 2.98341 5.88634 2.7227C5.60057 2.21789 5.63609 1.78354 5.48459 1.42742C5.23656 0.844407 4.87864 0.527672 4.77213 0.435003C4.71108 0.381747 4.69057 0.364006 4.65891 0.389507C4.62784 0.41446 4.64838 0.450522 4.67388 0.48826C4.69774 0.523775 4.92082 0.953688 5.00405 1.53725C5.08729 2.12027 4.97688 3.04056 5.24986 3.63134C5.41964 3.99911 5.70042 4.29034 5.88853 4.45787C5.89519 4.46341 5.90186 4.46953 5.90794 4.47507L5.96899 4.53553C5.57945 4.57214 5.21711 4.55827 4.83201 4.34192C4.21276 4.03018 3.73776 3.30514 3.65067 2.53794L3.64014 2.44586C3.61573 2.2356 3.62571 2.02538 3.61628 1.81457C3.60797 1.62319 3.58688 1.43238 3.55359 1.24376C3.53916 1.16056 3.52197 1.07845 3.50197 0.996348L3.50143 0.99358C3.49312 0.943639 3.47866 0.894279 3.46424 0.845467C3.4548 0.813301 3.44427 0.781135 3.43371 0.748389C3.4093 0.676845 3.37765 0.608035 3.33714 0.542576C3.2883 0.463819 3.23449 0.387251 3.1718 0.319022C3.13461 0.278516 3.09469 0.240266 3.04974 0.208647C3.04974 0.208647 3.00814 0.182566 2.97984 0.197538C2.97984 0.197538 2.94264 0.223619 2.98206 0.304597C2.98206 0.304597 2.99204 0.320697 3.00369 0.348419C3.01036 0.363938 3.01757 0.383354 3.02424 0.405572C3.03036 0.425535 3.03535 0.447172 3.03921 0.470485C3.07028 0.636919 3.09247 0.995255 2.96097 1.67925L2.95987 1.68147C2.94822 1.78077 2.93547 1.88007 2.91827 1.97879C2.86389 2.29887 2.81118 2.6622 2.80229 3.03944C2.80229 3.05608 2.80451 3.1049 2.80397 3.11488C2.80007 3.45048 2.86443 5.65053 5.14003 6.34338C5.1295 6.39052 5.11949 6.43601 5.11228 6.47983C4.95856 7.45004 5.01516 7.85889 5.01516 7.85889L5.01626 7.86887C4.55069 8.04416 4.02411 8.28047 3.46923 8.59778C2.8483 8.93783 2.17467 9.40045 1.51546 10.0317C1.39172 10.151 1.27574 10.268 1.16587 10.3845C1.13925 10.4123 1.11262 10.4406 1.08595 10.4689L1.08096 10.4744C0.733054 10.8488 0.470602 11.1939 0.280273 11.4746C1.30848 10.7324 2.91489 10.5099 3.40595 10.481C3.92088 10.4511 4.44247 10.363 4.44247 10.363C4.44247 10.363 4.64613 10.4716 4.88917 10.5249C5.16495 10.5859 5.45349 10.4983 5.45349 10.4983C5.55726 11.0319 5.93235 11.3747 6.03055 11.4518C6.00502 11.6122 6.0311 12.1413 6.21145 12.4354C6.40567 12.7521 6.72637 12.9657 6.72637 12.9657C6.72637 12.9657 6.70419 13.2525 6.77963 13.4577C6.8551 13.663 7.03043 13.8499 7.03043 13.8499C7.03043 13.8499 6.95051 13.9842 6.93998 14.1528C6.92945 14.3214 7.03043 14.4151 7.03043 14.4151C7.03043 14.4151 6.93888 14.5328 6.92333 14.6243C6.90829 14.7164 6.96493 14.8545 6.96493 14.8545C6.96493 14.8545 6.90945 14.9555 6.89335 15.0331C6.87671 15.1114 6.92333 15.2074 6.92333 15.2074C6.88614 15.28 6.7758 15.6212 6.9383 15.7582C7.10033 15.8952 7.30231 15.6394 7.30231 15.6394C7.36446 15.6211 7.4815 15.544 7.53698 15.4575C7.60527 15.3515 7.60527 15.2528 7.60527 15.2528C7.60527 15.2528 7.6924 15.1962 7.76781 15.052C7.83006 14.9349 7.82113 14.8578 7.82113 14.8578C7.82113 14.8578 8.17349 14.4878 8.24674 14.0257C8.3094 13.6319 8.21673 13.2685 8.21673 13.2685C8.21673 13.2685 8.48147 12.8658 8.46927 12.4054C8.64962 12.2794 9.08462 11.9971 9.62621 11.7864C9.64176 12.0969 9.69057 12.366 9.59346 12.8653C9.47194 13.4866 8.91873 13.9409 8.91873 13.9409C9.69164 13.8577 10.2072 13.1759 10.4114 12.6833C10.5784 12.2817 10.7304 11.7136 10.8009 11.4562C11.555 11.3098 12.2436 11.271 12.4722 11.2366C12.7752 11.1911 12.8512 11.1234 12.8584 11.0097C12.8662 10.896 12.8357 10.6913 12.8129 10.5548H12.813ZM11.4919 7.68743C11.4919 7.68743 11.3038 7.61531 11.0596 7.65527C10.8149 7.69519 10.7189 7.74346 10.5547 7.76346L10.553 7.76622C10.6901 7.81114 10.9143 7.80782 11.0474 7.83114C11.1117 7.84279 11.1779 7.87886 11.2305 7.91379L11.1617 8.22112C11.0086 8.30268 10.7605 8.45804 10.5707 8.6938C10.5563 8.71151 10.5424 8.73096 10.5297 8.75143C10.5236 8.75974 10.518 8.76863 10.513 8.77806C10.5058 8.78972 10.4992 8.80137 10.4931 8.81299C10.4853 8.82687 10.478 8.8413 10.4709 8.85627C10.4637 8.87069 10.457 8.88512 10.4509 8.89954C10.4238 8.96049 10.4021 9.02157 10.386 9.07323L10.3805 9.09093C10.3683 9.13137 10.3595 9.1647 10.3539 9.18746L10.3516 9.19628L10.35 9.20298L10.3477 9.21351L10.3472 9.21635C10.3505 9.21074 10.3677 9.17967 10.3966 9.13475L10.4176 9.10259C10.4731 9.01939 10.5575 8.90399 10.6579 8.80527C10.6718 8.79139 10.6862 8.77755 10.7007 8.76476C10.7301 8.73865 10.76 8.71428 10.7911 8.69264C11.0164 8.53622 11.1357 8.47575 11.2039 8.412C11.2162 8.39918 11.2262 8.3853 11.2351 8.37146C11.2945 8.2993 11.321 8.04139 11.3261 7.9865V7.98482L11.3272 7.97539C11.3277 7.96595 11.3277 7.95819 11.3277 7.9532V7.94766C11.3238 7.9116 11.2517 7.80731 11.2117 7.75963C11.2117 7.75963 11.3277 7.6953 11.492 7.6875L11.4919 7.68743ZM11.4919 7.68743C11.4919 7.68743 11.3038 7.61531 11.0596 7.65527C10.8149 7.69519 10.7189 7.74346 10.5547 7.76346L10.553 7.76622C10.6901 7.81114 10.9143 7.80782 11.0474 7.83114C11.1117 7.84279 11.1779 7.87886 11.2305 7.91379L11.1617 8.22112C11.0086 8.30268 10.7605 8.45804 10.5707 8.6938C10.5563 8.71151 10.5424 8.73096 10.5297 8.75143C10.5236 8.75974 10.518 8.76863 10.513 8.77806C10.5058 8.78972 10.4992 8.80137 10.4931 8.81299C10.4853 8.82687 10.478 8.8413 10.4709 8.85627C10.4637 8.87069 10.457 8.88512 10.4509 8.89954C10.4238 8.96049 10.4021 9.02157 10.386 9.07323L10.3805 9.09093C10.3683 9.13137 10.3595 9.1647 10.3539 9.18746L10.3516 9.19628L10.35 9.20298L10.3477 9.21351L10.3472 9.21635C10.3505 9.21074 10.3677 9.17967 10.3966 9.13475L10.4176 9.10259C10.4731 9.01939 10.5575 8.90399 10.6579 8.80527C10.6718 8.79139 10.6862 8.77755 10.7007 8.76476C10.7301 8.73865 10.76 8.71428 10.7911 8.69264C11.0164 8.53622 11.1357 8.47575 11.2039 8.412C11.2162 8.39918 11.2262 8.3853 11.2351 8.37146C11.2945 8.2993 11.321 8.04139 11.3261 7.9865V7.98482L11.3272 7.97539C11.3277 7.96595 11.3277 7.95819 11.3277 7.9532V7.94766C11.3238 7.9116 11.2517 7.80731 11.2117 7.75963C11.2117 7.75963 11.3277 7.6953 11.492 7.6875L11.4919 7.68743ZM11.4919 7.68743C11.4919 7.68743 11.3038 7.61531 11.0596 7.65527C10.8149 7.69519 10.7189 7.74346 10.5547 7.76346L10.553 7.76622C10.6901 7.81114 10.9143 7.80782 11.0474 7.83114C11.1117 7.84279 11.1779 7.87886 11.2305 7.91379L11.1617 8.22112C11.0086 8.30268 10.7605 8.45804 10.5707 8.6938C10.5563 8.71151 10.5424 8.73096 10.5297 8.75143C10.5236 8.75974 10.518 8.76863 10.513 8.77806C10.5058 8.78972 10.4992 8.80137 10.4931 8.81299C10.4853 8.82687 10.478 8.8413 10.4709 8.85627C10.4637 8.87069 10.457 8.88512 10.4509 8.89954C10.4238 8.96049 10.4021 9.02157 10.386 9.07323L10.3805 9.09093C10.3683 9.13137 10.3595 9.1647 10.3539 9.18746L10.3516 9.19628L10.35 9.20298L10.3477 9.21351L10.3472 9.21635C10.3505 9.21074 10.3677 9.17967 10.3966 9.13475L10.4176 9.10259C10.4731 9.01939 10.5575 8.90399 10.6579 8.80527C10.6718 8.79139 10.6862 8.77755 10.7007 8.76476C10.7301 8.73865 10.76 8.71428 10.7911 8.69264C11.0164 8.53622 11.1357 8.47575 11.2039 8.412C11.2162 8.39918 11.2262 8.3853 11.2351 8.37146C11.2945 8.2993 11.321 8.04139 11.3261 7.9865V7.98482L11.3272 7.97539C11.3277 7.96595 11.3277 7.95819 11.3277 7.9532V7.94766C11.3238 7.9116 11.2517 7.80731 11.2117 7.75963C11.2117 7.75963 11.3277 7.6953 11.492 7.6875L11.4919 7.68743ZM11.4919 7.68743C11.4919 7.68743 11.3038 7.61531 11.0596 7.65527C10.8149 7.69519 10.7189 7.74346 10.5547 7.76346L10.553 7.76622C10.6901 7.81114 10.9143 7.80782 11.0474 7.83114C11.1117 7.84279 11.1779 7.87886 11.2305 7.91379L11.1617 8.22112C11.0086 8.30268 10.7605 8.45804 10.5707 8.6938C10.5563 8.71151 10.5424 8.73096 10.5297 8.75143C10.5236 8.75974 10.518 8.76863 10.513 8.77806C10.5058 8.78972 10.4992 8.80137 10.4931 8.81299C10.4853 8.82687 10.478 8.8413 10.4709 8.85627C10.4637 8.87069 10.457 8.88512 10.4509 8.89954C10.4238 8.96049 10.4021 9.02157 10.386 9.07323L10.3805 9.09093C10.3683 9.13137 10.3595 9.1647 10.3539 9.18746L10.3516 9.19628L10.35 9.20298L10.3477 9.21351L10.3472 9.21635C10.3505 9.21074 10.3677 9.17967 10.3966 9.13475L10.4176 9.10259C10.4731 9.01939 10.5575 8.90399 10.6579 8.80527C10.6718 8.79139 10.6862 8.77755 10.7007 8.76476C10.7301 8.73865 10.76 8.71428 10.7911 8.69264C11.0164 8.53622 11.1357 8.47575 11.2039 8.412C11.2162 8.39918 11.2262 8.3853 11.2351 8.37146C11.2945 8.2993 11.321 8.04139 11.3261 7.9865V7.98482L11.3272 7.97539C11.3277 7.96595 11.3277 7.95819 11.3277 7.9532V7.94766C11.3238 7.9116 11.2517 7.80731 11.2117 7.75963C11.2117 7.75963 11.3277 7.6953 11.492 7.6875L11.4919 7.68743ZM11.4919 7.68743C11.4919 7.68743 11.3038 7.61531 11.0596 7.65527C10.8149 7.69519 10.7189 7.74346 10.5547 7.76346L10.553 7.76622C10.6901 7.81114 10.9143 7.80782 11.0474 7.83114C11.1117 7.84279 11.1779 7.87886 11.2305 7.91379L11.1617 8.22112C11.0086 8.30268 10.7605 8.45804 10.5707 8.6938C10.5563 8.71151 10.5424 8.73096 10.5297 8.75143C10.5236 8.75974 10.518 8.76863 10.513 8.77806C10.5058 8.78972 10.4992 8.80137 10.4931 8.81299C10.4853 8.82687 10.478 8.8413 10.4709 8.85627C10.4637 8.87069 10.457 8.88512 10.4509 8.89954C10.4238 8.96049 10.4021 9.02157 10.386 9.07323L10.3805 9.09093C10.3683 9.13137 10.3595 9.1647 10.3539 9.18746L10.3516 9.19628L10.35 9.20298L10.3477 9.21351L10.3472 9.21635C10.3505 9.21074 10.3677 9.17967 10.3966 9.13475L10.4176 9.10259C10.4731 9.01939 10.5575 8.90399 10.6579 8.80527C10.6718 8.79139 10.6862 8.77755 10.7007 8.76476C10.7301 8.73865 10.76 8.71428 10.7911 8.69264C11.0164 8.53622 11.1357 8.47575 11.2039 8.412C11.2162 8.39918 11.2262 8.3853 11.2351 8.37146C11.2945 8.2993 11.321 8.04139 11.3261 7.9865V7.98482L11.3272 7.97539C11.3277 7.96595 11.3277 7.95819 11.3277 7.9532V7.94766C11.3238 7.9116 11.2517 7.80731 11.2117 7.75963C11.2117 7.75963 11.3277 7.6953 11.492 7.6875L11.4919 7.68743ZM11.4919 7.68743C11.4919 7.68743 11.3038 7.61531 11.0596 7.65527C10.8149 7.69519 10.7189 7.74346 10.5547 7.76346L10.553 7.76622C10.6901 7.81114 10.9143 7.80782 11.0474 7.83114C11.1117 7.84279 11.1779 7.87886 11.2305 7.91379L11.1617 8.22112C11.0086 8.30268 10.7605 8.45804 10.5707 8.6938C10.5563 8.71151 10.5424 8.73096 10.5297 8.75143C10.5236 8.75974 10.518 8.76863 10.513 8.77806C10.5058 8.78972 10.4992 8.80137 10.4931 8.81299C10.4853 8.82687 10.478 8.8413 10.4709 8.85627C10.4637 8.87069 10.457 8.88512 10.4509 8.89954C10.4238 8.96049 10.4021 9.02157 10.386 9.07323L10.3805 9.09093C10.3683 9.13137 10.3595 9.1647 10.3539 9.18746L10.3516 9.19628L10.35 9.20298L10.3477 9.21351L10.3472 9.21635C10.3505 9.21074 10.3677 9.17967 10.3966 9.13475L10.4176 9.10259C10.4731 9.01939 10.5575 8.90399 10.6579 8.80527C10.6718 8.79139 10.6862 8.77755 10.7007 8.76476C10.7301 8.73865 10.76 8.71428 10.7911 8.69264C11.0164 8.53622 11.1357 8.47575 11.2039 8.412C11.2162 8.39918 11.2262 8.3853 11.2351 8.37146C11.2945 8.2993 11.321 8.04139 11.3261 7.9865V7.98482L11.3272 7.97539C11.3277 7.96595 11.3277 7.95819 11.3277 7.9532V7.94766C11.3238 7.9116 11.2517 7.80731 11.2117 7.75963C11.2117 7.75963 11.3277 7.6953 11.492 7.6875L11.4919 7.68743Z" fill="black"/>
<path d="M12.8585 11.0097C12.8513 11.1234 12.7753 11.1911 12.4723 11.2366C12.2437 11.271 11.555 11.3098 10.801 11.4562C10.7305 11.7136 10.5785 12.2817 10.4114 12.6833C10.2072 13.1759 9.6917 13.8577 8.9188 13.9409C8.9188 13.9409 9.47201 13.4865 9.59353 12.8653C9.69064 12.366 9.6418 12.097 9.62628 11.7864C9.08472 11.9971 8.64968 12.2794 8.46934 12.4054C8.48154 12.8658 8.21679 13.2685 8.21679 13.2685C8.21679 13.2685 8.30946 13.6319 8.24681 14.0257C8.17355 14.4878 7.8212 14.8578 7.8212 14.8578C7.8212 14.8578 7.83012 14.9349 7.76788 15.052C7.69247 15.1962 7.60534 15.2528 7.60534 15.2528C7.60534 15.2528 7.60534 15.3516 7.53704 15.4575C7.48156 15.544 7.36452 15.6211 7.30238 15.6394C7.30238 15.6394 7.1004 15.8952 6.93837 15.7582C6.77583 15.6212 6.88621 15.28 6.9234 15.2074C6.9234 15.2074 6.87677 15.1114 6.89342 15.0331C6.90952 14.9555 6.965 14.8545 6.965 14.8545C6.965 14.8545 6.90836 14.7164 6.9234 14.6243C6.93895 14.5328 7.03049 14.4151 7.03049 14.4151C7.03049 14.4151 6.92952 14.3214 6.94004 14.1528C6.95057 13.9842 7.03049 13.8499 7.03049 13.8499C7.03049 13.8499 6.85514 13.663 6.7797 13.4577C6.70422 13.2525 6.72644 12.9657 6.72644 12.9657C6.72644 12.9657 6.4057 12.7521 6.21151 12.4354C6.03117 12.1414 6.00509 11.6122 6.03062 11.4518C5.93241 11.3747 5.5573 11.0319 5.45355 10.4983C5.45355 10.4983 5.16502 10.5859 4.88923 10.5249C4.64619 10.4716 4.44254 10.363 4.44254 10.363C4.44254 10.363 3.92095 10.4511 3.40602 10.481C2.91495 10.5099 1.30855 10.7324 0.28034 11.4746C0.470668 11.1939 0.733121 10.8488 1.08103 10.4744L1.08602 10.4689C1.11265 10.4406 1.13928 10.4123 1.16594 10.3845C1.2758 10.268 1.39178 10.151 1.51552 10.0317C2.17473 9.40046 2.84837 8.93783 3.46929 8.59778C4.02418 8.28047 4.55076 8.04416 5.01632 7.86888L5.01523 7.8589C5.01523 7.8589 4.95862 7.45007 5.11234 6.47984C5.11955 6.43602 5.12954 6.39052 5.1401 6.34338C2.8645 5.65054 2.80014 3.45048 2.80403 3.11488C2.80458 3.1049 2.80236 3.05609 2.80236 3.03944C2.81125 2.66223 2.86395 2.29887 2.91834 1.97879C2.93553 1.88004 2.94832 1.78074 2.95994 1.68147L2.96103 1.67925C3.09253 0.995257 3.07035 0.636922 3.03928 0.470488C3.03538 0.447175 3.03039 0.425572 3.0243 0.405575C3.01764 0.383391 3.01043 0.363975 3.00376 0.348422C2.99211 0.3207 2.98212 0.3046 2.98212 0.3046C2.94271 0.223622 2.9799 0.197541 2.9799 0.197541C3.00821 0.182569 3.04981 0.20865 3.04981 0.20865C3.09476 0.240269 3.13471 0.278553 3.17187 0.319025C3.23456 0.387253 3.2884 0.463822 3.33721 0.542579C3.37772 0.608038 3.40934 0.676813 3.43378 0.748391C3.44431 0.781104 3.45487 0.813304 3.4643 0.84547C3.47873 0.894282 3.49315 0.943642 3.50149 0.993582L3.50204 0.996351C3.522 1.07846 3.53923 1.16056 3.55365 1.24376C3.58695 1.43238 3.60804 1.62319 3.61635 1.81458C3.62578 2.02538 3.6158 2.2356 3.6402 2.44586L3.65073 2.53795C3.73786 3.30514 4.21283 4.03015 4.83208 4.34193C5.21718 4.55827 5.57951 4.57215 5.96906 4.53554L5.90801 4.47507C5.90189 4.46953 5.89526 4.46341 5.88859 4.45787C5.70049 4.29035 5.41971 3.99911 5.24993 3.63134C4.97691 3.04057 5.08735 2.12027 5.00412 1.53725C4.92089 0.953691 4.69781 0.523778 4.67395 0.488263C4.64842 0.450525 4.62791 0.414497 4.65898 0.389509C4.6906 0.363975 4.71114 0.38175 4.77219 0.435006C4.87874 0.527641 5.23663 0.84441 5.48466 1.42743C5.63615 1.78357 5.60064 2.2179 5.8864 2.7227C6.034 2.98341 6.35583 3.20642 6.66214 3.37227C6.66658 3.36506 6.67103 3.3573 6.67434 3.35118C6.7304 3.2458 6.76257 3.11543 6.78089 3.00502C6.80031 2.91959 6.80865 2.84193 6.8053 2.77647C6.8053 2.77647 9.02542 2.98892 10.3283 4.16274C11.6312 5.33654 11.9536 6.63181 11.9913 7.03346C11.9913 7.03346 12.4652 6.96078 12.5861 6.78437C12.5861 6.78437 12.5839 6.9935 12.4929 7.25089C12.4019 7.50883 12.1089 7.60147 12.1317 7.60868C12.1544 7.61644 12.2149 7.79839 12.2149 7.94206C12.2149 8.08628 12.2299 8.20721 12.3359 8.27544C12.4419 8.34367 12.5406 8.43408 12.5406 8.48734C12.5406 8.5406 12.4874 8.68427 12.4646 8.76747C12.4646 8.76747 12.7376 9.07812 12.813 9.47979C12.813 9.47979 12.5861 9.57065 12.4724 9.63119C12.4724 9.63119 12.4724 9.85867 12.3437 10.222C12.3437 10.222 12.5179 10.2675 12.5862 10.2824C12.6544 10.2974 12.7909 10.4189 12.8131 10.5548C12.8359 10.6913 12.8664 10.8959 12.8586 11.0097H12.8585ZM13.0039 10.5282C12.9689 10.3168 12.7775 10.1321 12.6282 10.0988C12.6177 10.0966 12.6038 10.0938 12.5888 10.09C12.6277 9.95014 12.6465 9.83857 12.6559 9.76043C12.742 9.72105 12.8425 9.68 12.8857 9.66274L13.0328 9.60343L13.0034 9.44811C12.9428 9.12747 12.7748 8.86232 12.6787 8.7314C12.7132 8.62212 12.7337 8.55112 12.7337 8.49072C12.7337 8.36753 12.635 8.2416 12.4407 8.11677C12.4252 8.10686 12.4074 8.07848 12.4074 7.9448C12.4074 7.94257 12.4052 7.81719 12.3725 7.68962C12.4779 7.61808 12.6099 7.50046 12.6749 7.31741C12.7398 7.13323 12.7642 6.97015 12.7736 6.87529C12.7786 6.82371 12.7713 6.70001 12.7713 6.70001L12.7514 6.46148C12.7514 6.46148 12.6316 6.55688 12.565 6.60792C12.5472 6.62122 12.5339 6.63123 12.5266 6.63564C12.5172 6.64285 12.5067 6.64952 12.4967 6.6556C12.4478 6.685 12.3935 6.70831 12.3702 6.72052C12.318 6.74882 12.2387 6.77876 12.1515 6.80317C12.0262 6.15469 11.5667 5.02028 10.4559 4.01955C9.11969 2.81578 6.91284 2.59281 6.81969 2.58338L6.61271 2.56396C6.61271 2.56396 6.60827 2.87406 6.58879 2.96225L6.58663 2.97224C6.57942 3.01496 6.57108 3.05544 6.56106 3.09317C6.30975 2.93617 6.1344 2.77698 6.04952 2.62665C5.89249 2.34929 5.84145 2.09467 5.79261 1.84893C5.75822 1.67474 5.72493 1.50943 5.65721 1.34966C5.47854 0.930276 5.22162 0.572488 4.89368 0.286791C4.8343 0.235757 4.77383 0.1825 4.68062 0.1825C4.64343 0.1825 4.58795 0.191935 4.53192 0.23685C4.49196 0.269563 4.37212 0.390501 4.50584 0.588554C4.50806 0.59187 4.72615 0.990745 4.80771 1.56211C4.83488 1.75014 4.84045 1.98204 4.84654 2.22723C4.85874 2.72369 4.87317 3.28565 5.06961 3.71167C5.15616 3.89861 5.2677 4.06669 5.38423 4.21258C5.39589 4.22701 5.44029 4.2736 5.44805 4.28303C5.46801 4.30634 5.48855 4.32962 5.50852 4.35181C5.29378 4.33348 5.10954 4.27691 4.92646 4.1743L4.9187 4.16985C4.35493 3.88583 3.92211 3.22125 3.84222 2.51566L3.8317 2.42357C3.81672 2.29877 3.8156 2.1723 3.81395 2.03861C3.81341 1.96262 3.81228 1.88441 3.80896 1.80562C3.80008 1.60815 3.77844 1.40787 3.74347 1.2104C3.72905 1.1272 3.71127 1.04342 3.69185 0.961314L3.69018 0.955195C3.67965 0.894727 3.663 0.837608 3.64913 0.791564C3.63914 0.756629 3.62804 0.722208 3.61638 0.68782C3.58753 0.60127 3.54925 0.518617 3.50153 0.441535C3.43825 0.338919 3.37833 0.258488 3.31342 0.188038C3.26239 0.13256 3.21245 0.0876439 3.16138 0.0515814L3.15362 0.0465908C3.13198 0.0321657 3.07315 0 2.9999 0C2.96107 0 2.92388 0.00888742 2.89004 0.0266281L2.8684 0.0399251C2.78349 0.099847 2.73245 0.231313 2.80902 0.38886L2.81624 0.402157C2.81791 0.404926 2.82177 0.412685 2.82676 0.423794C2.83121 0.434323 2.83565 0.447107 2.8401 0.460951C2.84399 0.473154 2.84676 0.487032 2.85008 0.505867C2.87561 0.64287 2.89947 0.96962 2.77518 1.62531L2.76852 1.65915C2.75464 1.77564 2.74244 1.86383 2.72856 1.94594C2.6753 2.25991 2.61924 2.63434 2.60981 3.03486C2.60981 3.04706 2.61035 3.0726 2.6109 3.09365L2.61145 3.11252C2.60868 3.37767 2.64919 5.6759 4.91812 6.47303L4.91979 6.47358L4.91258 6.47635C4.80938 7.13703 4.80217 7.54421 4.8088 7.74278C4.31661 7.93581 3.83221 8.1677 3.36999 8.43231C2.64642 8.82838 1.97501 9.32153 1.37408 9.89733C1.25256 10.0143 1.13603 10.1315 1.01841 10.2557C0.990652 10.2846 0.963477 10.3134 0.939618 10.3395L0.931858 10.3478C0.634436 10.6679 0.365865 11.0018 0.133389 11.3402C0.126177 11.3507 0.105086 11.3846 0.09678 11.4045C0.0701519 11.4655 0.0418487 11.5826 0.0973269 11.6442C0.130621 11.6814 0.19608 11.713 0.319821 11.6603C0.325939 11.6586 0.349799 11.6492 0.358652 11.6442C0.382511 11.6309 0.418027 11.6087 0.429683 11.5998C1.18101 11.0251 2.90668 10.7078 3.41053 10.6784C3.83279 10.6534 4.25173 10.5918 4.40712 10.5674C4.49145 10.6074 4.65628 10.6768 4.84216 10.7178C4.92095 10.735 5.00586 10.7439 5.09518 10.7439C5.17288 10.7439 5.24555 10.7373 5.30769 10.7283C5.43643 11.1349 5.69279 11.414 5.82597 11.5388C5.81766 11.784 5.85926 12.2439 6.04293 12.5423C6.19275 12.787 6.40693 12.9739 6.52623 13.0671C6.52623 13.1842 6.53621 13.3723 6.59504 13.5314C6.6472 13.674 6.73543 13.8032 6.80089 13.888C6.77535 13.9563 6.74985 14.0468 6.74374 14.1483C6.73652 14.2625 6.76315 14.3546 6.79644 14.4234C6.76759 14.4755 6.74039 14.5382 6.72986 14.6009C6.71543 14.6869 6.73317 14.7806 6.75317 14.8494C6.73321 14.8933 6.71212 14.9493 6.70039 15.0026C6.68491 15.0791 6.69766 15.1557 6.71372 15.2128C6.65442 15.3853 6.58944 15.7287 6.80978 15.9146C6.87636 15.9706 6.95632 16 7.04061 16C7.20985 16 7.3474 15.8796 7.41351 15.8097C7.51171 15.7637 7.6293 15.6738 7.69599 15.5706C7.74644 15.4924 7.77085 15.417 7.78305 15.3599C7.82746 15.3155 7.88399 15.2478 7.93503 15.1507C7.97837 15.0687 7.99779 14.9981 8.00609 14.9449C8.10208 14.8301 8.31462 14.5483 8.40668 14.1971L8.42838 14.1C8.43061 14.0884 8.43283 14.0762 8.43443 14.0634C8.48492 13.7449 8.44394 13.4477 8.41786 13.309C8.49275 13.1747 8.6398 12.8691 8.65758 12.5146C8.82015 12.4064 9.10369 12.2317 9.44996 12.0747C9.46329 12.2866 9.46722 12.5046 9.40279 12.8352C9.32345 13.2391 9.0288 13.573 8.88065 13.7195C8.82911 13.77 8.70198 13.9142 8.70198 13.9142C8.70198 13.9142 8.6532 13.9552 8.66264 14.039C8.66315 14.044 8.66708 14.0584 8.67091 14.0689C8.67258 14.0728 8.68144 14.0856 8.68533 14.0889C8.75582 14.1571 8.94946 14.1322 8.94946 14.1322C9.78345 14.0428 10.3483 13.3422 10.5886 12.7637C10.7384 12.4031 10.8738 11.9222 10.9542 11.6287C11.4376 11.5411 11.8848 11.4972 12.1883 11.4673C12.3237 11.454 12.4308 11.4434 12.5013 11.4323C12.6861 11.4052 13.0301 11.3536 13.0517 11.0274C13.0589 10.9236 13.0434 10.7651 13.004 10.5281L13.0039 10.5282Z" fill="#FFFFFE"/>
</g>
<defs>
<clipPath id="clip0_879_4017">
<rect width="12.988" height="16" fill="white" transform="translate(0.0654297)"/>
</clipPath>
</defs>
</svg>
