<svg width="121" height="64" viewBox="0 0 121 64" fill="none" xmlns="http://www.w3.org/2000/svg">
<g clip-path="url(#clip0_760_406)">
<g clip-path="url(#clip1_760_406)">
<path d="M91.8418 32.4315V42.1258H95.813V33.0259C95.813 28.973 101.33 28.9664 101.33 28.9664V25.0223C101.33 25.0223 99.7874 25.091 98.5686 25.3652C95.1128 26.1425 91.8418 27.8473 91.8418 32.4315Z" fill="#1C1C1E"/>
<path d="M61.9055 24.8263C63.4525 24.8263 65.3855 25.7015 66.4378 27.241C67.5275 25.841 69.3194 24.896 71.5336 24.8601C74.3462 24.8241 77.824 26.5747 77.824 31.8251V42.1137H73.8518V31.8251C73.8518 30.0747 72.586 28.8162 70.6912 28.8162C68.7964 28.8162 67.5296 30.0747 67.5296 31.8251V42.1137H63.5585V31.8251C63.5585 30.0747 62.2938 28.8162 60.397 28.8162C58.5 28.8162 57.1993 30.0747 57.1993 31.8251V42.1137H53.0225V25.3478H57.1993V27.0319C58.3249 25.6678 59.9747 24.8263 61.9077 24.8263H61.9055Z" fill="#1C1C1E"/>
<path d="M86.956 25.5612V42.1259H82.917V25.5612H86.956Z" fill="#1C1C1E"/>
<path d="M84.9363 22.9257C86.1815 22.9257 87.1911 21.9212 87.1911 20.682C87.1911 19.4429 86.1815 18.4384 84.9363 18.4384C83.6911 18.4384 82.6816 19.4429 82.6816 20.682C82.6816 21.9212 83.6911 22.9257 84.9363 22.9257Z" fill="#1C1C1E"/>
<path d="M112.114 24.7904C107.224 24.7904 103.261 28.7345 103.261 33.6007C103.261 38.4668 107.224 42.411 112.114 42.411C117.004 42.411 120.968 38.4668 120.968 33.6007C120.968 28.7345 117.004 24.7904 112.114 24.7904ZM112.114 38.4494C109.347 38.4494 107.102 36.2167 107.102 33.4614C107.102 30.706 109.346 28.4733 112.114 28.4733C114.883 28.4733 117.127 30.706 117.127 33.4614C117.127 36.2167 114.883 38.4494 112.114 38.4494Z" fill="#1C1C1E"/>
<path d="M0.967773 21.0411C0.967773 14.9886 5.87424 10.0822 11.9267 10.0822H33.8445C39.8969 10.0822 44.8034 14.9886 44.8034 21.0411V42.9589C44.8034 49.0114 39.8969 53.9178 33.8445 53.9178H11.9267C5.87424 53.9178 0.967773 49.0114 0.967773 42.9589V21.0411Z" fill="#FFDD33"/>
<path fill-rule="evenodd" clip-rule="evenodd" d="M30.1108 18.4384H26.1315L29.4475 24.2647L22.1522 18.4384H18.173L21.8207 25.5596L14.1936 18.4384H10.2144L14.1936 27.5029L10.2144 45.6301H14.1936L21.8207 26.2079L18.173 45.6301H22.1522L29.4475 24.913L26.1315 45.6301H30.1108L37.4061 22.9698L30.1108 18.4384Z" fill="#1C1C1E"/>
</g>
</g>
<defs>
<clipPath id="clip0_760_406">
<rect width="120" height="64" fill="white" transform="translate(0.967773)"/>
</clipPath>
<clipPath id="clip1_760_406">
<rect width="120" height="44.0367" fill="white" transform="translate(0.967773 9.98166)"/>
</clipPath>
</defs>
</svg>
