<svg width="30" height="16" viewBox="0 0 30 16" fill="none" xmlns="http://www.w3.org/2000/svg">
<g clip-path="url(#clip0_795_1386)">
<path d="M27.0336 2.65046e-05H3.30593C2.67691 -0.00194283 2.07244 0.243997 1.62347 0.684565C1.40157 0.906813 1.22617 1.17104 1.10749 1.46181C0.988817 1.75258 0.92925 2.06409 0.932269 2.37813V12.9663C0.928853 13.2792 0.988046 13.5896 1.10637 13.8793C1.22469 14.169 1.39975 14.4321 1.62125 14.6531C1.84245 14.8743 2.10513 15.0496 2.39423 15.1689C2.68333 15.2883 2.99315 15.3494 3.30593 15.3488H27.0336C27.6634 15.3459 28.2663 15.0935 28.7104 14.6469C29.1544 14.2004 29.4034 13.596 29.4028 12.9663V2.37591C29.4052 2.06381 29.3456 1.75434 29.2274 1.46546C29.1093 1.17658 28.935 0.914021 28.7146 0.693017C28.4942 0.472012 28.2321 0.296956 27.9436 0.177998C27.655 0.0590396 27.3457 -0.00145322 27.0336 2.65046e-05Z" fill="white"/>
<path d="M28.5692 2.37591C28.5715 2.17326 28.5335 1.97217 28.4572 1.7844C28.381 1.59663 28.268 1.42595 28.125 1.28233C27.982 1.13872 27.8118 1.02505 27.6244 0.947983C27.437 0.870913 27.236 0.831985 27.0334 0.833476H20.4014L24.2063 7.19213L24.5575 7.23658L24.7797 7.52773V7.79888L25.0198 7.84777L25.242 8.15004V8.41229L25.491 8.45674L25.7421 8.73012V9.33464C26.0411 9.60459 26.3781 9.82923 26.7422 10.0014C27.0778 10.1303 27.1156 10.6682 27.3179 10.9549C27.5712 11.3727 27.918 11.5394 27.8446 11.7728C27.6757 12.3973 27.0356 13.4508 26.44 13.4997H24.0841V14.5087H27.0356C27.2387 14.5078 27.4397 14.4668 27.6269 14.3881C27.8142 14.3094 27.984 14.1944 28.1267 14.0499C28.2694 13.9053 28.3821 13.734 28.4584 13.5457C28.5348 13.3575 28.5731 13.156 28.5714 12.9529V2.37591" fill="#BF0D3E"/>
<path d="M12.3448 13.5152H11.2046C11.2046 10.6659 12.167 9.09015 13.3204 8.77677C13.4782 8.74788 13.4027 7.97 13.2027 7.73219H12.5359C12.4292 7.73219 12.4914 7.53216 12.4914 7.53216L13.0315 6.37867L12.9582 6.06307H10.9623L12.6026 4.91624C12.6781 1.89139 15.7808 1.6558 17.6499 2.91597C18.7612 3.65163 18.8456 5.1096 18.7612 6.11641C18.7479 6.18086 18.4723 6.13863 18.4723 6.13863C18.4723 6.13863 18.2833 7.2499 18.7768 7.2499H20.957C21.8461 7.21434 22.704 7.81664 22.704 7.81664L22.9129 7.05432L18.1367 0.833462H3.30574C2.89547 0.831065 2.50086 0.990825 2.20781 1.27797C2.06493 1.42258 1.95208 1.59405 1.87579 1.78249C1.7995 1.97093 1.76127 2.17261 1.7633 2.3759V12.9662C1.76075 13.1689 1.79876 13.3701 1.87509 13.5579C1.95143 13.7457 2.06456 13.9163 2.20781 14.0597C2.49905 14.3509 2.89388 14.5148 3.30574 14.5153H12.9337C12.6981 14.1108 12.4292 13.6508 12.347 13.5152" fill="#041E42"/>
<path d="M3.90143 11.2683C3.90143 11.0595 3.96345 10.8555 4.07961 10.6821C4.19576 10.5086 4.36082 10.3736 4.55384 10.2941C4.74685 10.2147 4.95913 10.1943 5.16372 10.2357C5.36831 10.2771 5.556 10.3783 5.70298 10.5265C5.84995 10.6748 5.94957 10.8633 5.98921 11.0682C6.02885 11.2732 6.00672 11.4853 5.92562 11.6776C5.84452 11.8699 5.70811 12.0338 5.5337 12.1485C5.35929 12.2632 5.15474 12.3235 4.94601 12.3217C4.808 12.322 4.6713 12.2949 4.54385 12.242C4.4164 12.189 4.30073 12.1113 4.20355 12.0133C4.10638 11.9153 4.02963 11.799 3.97777 11.6711C3.9259 11.5432 3.89995 11.4063 3.90143 11.2683ZM29.1982 15.4866C29.1982 15.3666 29.1271 15.351 29.0249 15.351H28.8026V15.7955H28.896V15.62H28.9715L29.0738 15.7955H29.1782L29.0715 15.62C29.0883 15.6204 29.105 15.6173 29.1204 15.6106C29.1358 15.604 29.1496 15.5941 29.1608 15.5817C29.172 15.5692 29.1804 15.5544 29.1853 15.5384C29.1902 15.5224 29.1916 15.5055 29.1893 15.4888M29.0182 15.54H28.8937V15.431H28.996C29.0404 15.431 29.096 15.431 29.096 15.4799C29.096 15.5288 29.0693 15.54 29.0182 15.54Z" fill="white"/>
<path d="M28.9873 15.1465C28.903 15.1465 28.8205 15.1715 28.7504 15.2183C28.6803 15.2651 28.6256 15.3316 28.5932 15.4095C28.5609 15.4873 28.5523 15.573 28.5686 15.6557C28.5849 15.7384 28.6253 15.8145 28.6847 15.8742C28.7442 15.934 28.82 15.9748 28.9027 15.9915C28.9853 16.0082 29.071 16.0001 29.149 15.9681C29.227 15.9362 29.2938 15.8818 29.341 15.812C29.3882 15.7421 29.4136 15.6598 29.414 15.5755C29.4149 15.5191 29.4045 15.4631 29.3834 15.4108C29.3623 15.3585 29.3309 15.311 29.2911 15.271C29.2514 15.231 29.204 15.1994 29.1518 15.178C29.0996 15.1566 29.0437 15.1459 28.9873 15.1465ZM28.9873 15.9089C28.8988 15.9089 28.8141 15.8737 28.7515 15.8112C28.689 15.7487 28.6539 15.6639 28.6539 15.5755C28.6539 15.4871 28.689 15.4023 28.7515 15.3398C28.8141 15.2772 28.8988 15.2421 28.9873 15.2421C29.0757 15.2421 29.1605 15.2772 29.223 15.3398C29.2855 15.4023 29.3206 15.4871 29.3206 15.5755C29.3206 15.6639 29.2855 15.7487 29.223 15.8112C29.1605 15.8737 29.0757 15.9089 28.9873 15.9089Z" fill="white"/>
</g>
<defs>
<clipPath id="clip0_795_1386">
<rect width="28.4819" height="16" fill="white" transform="translate(0.932129)"/>
</clipPath>
</defs>
</svg>
