<svg width="40" height="16" viewBox="0 0 40 16" fill="none" xmlns="http://www.w3.org/2000/svg">
<g clip-path="url(#clip0_811_175)">
<path d="M30.6689 7.92628C30.8898 7.77243 31.0337 7.5275 31.0337 7.22535C31.0337 6.70659 30.616 6.30844 30.0929 6.30844H28.7483V9.66962H30.1981C30.7407 9.66962 31.1728 9.25671 31.1728 8.71887C31.1728 8.35333 30.9711 8.07026 30.6689 7.92628ZM29.1944 6.72567H30.0923C30.371 6.72567 30.5919 6.95582 30.5919 7.2395C30.5919 7.5275 30.371 7.75335 30.0923 7.75335H29.1944V6.72567ZM30.1981 9.25178H29.1944V8.16194H30.1981C30.4961 8.16194 30.731 8.40196 30.731 8.70472C30.731 9.0118 30.4961 9.25178 30.1981 9.25178Z" fill="#1C7FF2"/>
<path d="M9.86054 8.0868L8.78978 6.31021H8.28516V9.67141H8.73193V7.04989L9.8316 8.87449H9.88945L10.9891 7.04497V9.67141H11.431V6.31021H10.9264L9.86054 8.0868Z" fill="#222021"/>
<path d="M13.3381 6.67825C12.4851 6.67825 11.8174 7.35455 11.8174 8.20315C11.8174 9.04744 12.4851 9.72806 13.3381 9.72806C14.191 9.72806 14.863 9.04744 14.863 8.20315C14.863 7.35455 14.1903 6.67825 13.3381 6.67825ZM13.3381 9.34591C12.695 9.34591 12.2039 8.84622 12.2039 8.20315C12.2039 7.5564 12.6956 7.05609 13.3381 7.05609C13.9811 7.05609 14.4722 7.55578 14.4722 8.20315C14.4722 8.84561 13.9805 9.34591 13.3381 9.34591Z" fill="#222021"/>
<path d="M17.362 7.64444C17.362 7.14044 16.9503 6.73306 16.4463 6.73306H15.2697V9.67394H15.6605V8.54779H16.1411C16.2789 8.54965 16.3995 8.62472 16.4641 8.73672V8.73611L17.0131 9.67333H17.4457L16.7527 8.49734C17.106 8.37119 17.362 8.03088 17.362 7.64444ZM15.6611 7.09798H16.4469C16.7368 7.09798 16.9718 7.34167 16.9718 7.64382C16.9718 7.9466 16.7368 8.19398 16.4469 8.19398H15.6611V7.09798Z" fill="#222021"/>
<path d="M19.6013 8.92554L18.0894 6.73233H17.7737V9.67322H18.1644V7.47632L19.6771 9.67322H19.9921V6.73233H19.6013V8.92554Z" fill="#222021"/>
<path d="M20.9497 6.73233H20.5589V9.67322H20.9497V6.73233Z" fill="#222021"/>
<path d="M23.3447 8.92554L21.8321 6.73233H21.517V9.67322H21.9078V7.47632L23.4204 9.67322H23.7349V6.73233H23.3447V8.92554Z" fill="#222021"/>
<path d="M25.6677 8.5687H26.7471C26.6714 9.00994 26.3101 9.34592 25.7009 9.34592C24.9994 9.34592 24.533 8.84191 24.533 8.20316C24.533 7.56071 25.0037 7.0561 25.6843 7.0561C26.1003 7.0561 26.4572 7.27025 26.6252 7.58532L26.9612 7.38779C26.7175 6.96749 26.2388 6.67764 25.688 6.67764C24.7932 6.67764 24.1465 7.35825 24.1465 8.20256C24.1465 9.04252 24.7896 9.72746 25.6966 9.72746C26.5828 9.72746 27.1372 9.13916 27.1372 8.39145V8.21485H25.6671V8.5687H25.6677Z" fill="#222021"/>
<path d="M33.6442 7.64444C33.6442 7.14044 33.2325 6.73306 32.7286 6.73306H31.5526V9.67394H31.9432V8.54779H32.424C32.5619 8.54965 32.6823 8.62472 32.7472 8.73672L33.2958 9.67333H33.7285L33.0356 8.49734C33.3883 8.37119 33.6442 8.03088 33.6442 7.64444ZM31.9426 7.09798H32.7286C33.0183 7.09798 33.2535 7.34167 33.2535 7.64382C33.2535 7.9466 33.0183 8.19398 32.7286 8.19398H31.9426V7.09798Z" fill="#1C7FF2"/>
<path d="M34.4465 8.37108H35.6859V8.00555H34.4465V7.10217H35.7906V6.73233H34.0558V9.67322H35.8115V9.30336H34.4465V8.37108Z" fill="#1C7FF2"/>
<path d="M39.5889 6.73233L38.9161 9.15259L38.2023 6.73233H37.8073L37.0929 9.15259L36.4207 6.73233H36.009L36.8534 9.67322H37.3071L38.0048 7.32494L38.7019 9.67322H39.1556L40 6.73233H39.5889Z" fill="#1C7FF2"/>
<g clip-path="url(#clip1_811_175)">
<path d="M4.15654 4.68927C2.78012 4.68927 1.66414 5.06126 1.66414 5.5139V6.29507C1.5711 6.27639 1.47823 6.264 1.37891 6.264C0.616419 6.264 0.002658 6.87776 0.002658 7.64042C0.002658 7.64042 -0.139959 9.23382 1.66414 9.66167V10.4861C1.66414 10.945 2.78012 11.3108 4.15654 11.3108C5.53296 11.3108 6.64893 10.9388 6.64893 10.4861V5.5139C6.64893 5.06126 5.53296 4.68927 4.15654 4.68927ZM1.66414 8.89901C0.746642 8.60138 0.727966 7.87607 0.74036 7.70867V7.68999V7.64653C0.74036 7.29321 1.02559 7.00798 1.37891 7.00798C1.41609 7.00798 1.45956 7.01426 1.49674 7.02037L1.66414 7.06384V8.89901Z" fill="#1C7FF2"/>
<path d="M4.15653 4.68927C4.11307 4.68927 4.06977 4.68927 4.02631 4.68927C4.0078 4.68927 3.98912 4.68927 3.97673 4.68927C3.95194 4.68927 3.92715 4.68927 3.90237 4.68927C3.88369 4.68927 3.8713 4.68927 3.85279 4.68927C3.828 4.68927 3.80321 4.68927 3.77826 4.68927C3.75975 4.68927 3.74107 4.68927 3.72257 4.69555C3.70389 4.69555 3.6791 4.69555 3.6606 4.70166C3.64192 4.70166 3.62324 4.70166 3.60474 4.70795C3.58606 4.70795 3.56127 4.70795 3.54277 4.71406C3.52409 4.71406 3.4993 4.72034 3.4808 4.72034C3.46212 4.72034 3.44345 4.72034 3.42494 4.72645C3.40015 4.72645 3.37536 4.73273 3.35058 4.73273C3.33818 4.73273 3.31951 4.73273 3.30711 4.73885C3.28232 4.73885 3.25753 4.74513 3.23903 4.75124C3.22646 4.75124 3.21407 4.75752 3.19556 4.75752C3.17078 4.75752 3.14599 4.76363 3.1212 4.76992C3.10881 4.76992 3.09641 4.77603 3.08402 4.77603C3.05906 4.78231 3.02816 4.78231 3.00337 4.78842C2.99098 4.78842 2.9847 4.78842 2.97858 4.7947C2.9538 4.80082 2.92901 4.8071 2.89794 4.8071C2.89166 4.8071 2.87926 4.8071 2.87315 4.81321C2.84208 4.81949 2.81729 4.8256 2.78639 4.83189C2.78011 4.83189 2.774 4.83189 2.774 4.83189C2.74293 4.838 2.71186 4.84428 2.68724 4.85039C2.68096 4.85039 2.68096 4.85039 2.67467 4.85039C2.64989 4.85667 2.61899 4.86279 2.5942 4.86907C2.58792 4.86907 2.58792 4.86907 2.5818 4.86907C2.55073 4.87518 2.52595 4.88774 2.49488 4.89386C2.49488 4.89386 2.49488 4.89386 2.48876 4.89386C2.46397 4.90014 2.4329 4.91253 2.40812 4.91865C2.40812 4.91865 2.40812 4.91865 2.402 4.91865C2.37722 4.93104 2.34615 4.93732 2.32136 4.94972C1.9183 5.09233 1.67041 5.29064 1.67041 5.50151C1.67041 5.50151 1.67041 5.50151 1.67041 5.50762V6.28878C1.57737 6.27028 1.48433 6.25788 1.38518 6.25788C0.622522 6.25788 0.00876108 6.87164 0.00876108 7.6343C0.00876108 7.6343 -0.133856 9.22754 1.67041 9.65539V10.48C1.67041 10.7218 1.99283 10.945 2.50116 11.0938V7.37386C2.50116 6.7601 3.02188 6.27639 3.63581 6.31985C3.80933 6.33225 3.98284 6.33836 4.16892 6.33836C5.54534 6.33836 6.66132 5.96637 6.66132 5.5139C6.66132 5.06126 5.53295 4.68927 4.15653 4.68927ZM1.66413 8.89901C0.746633 8.60138 0.727957 7.87607 0.734239 7.70867V7.68999V7.64653C0.734239 7.29321 1.0193 7.00798 1.37279 7.00798C1.40997 7.00798 1.45343 7.01426 1.49062 7.02037L1.65802 7.06384L1.66413 8.89901Z" fill="#006AD3"/>
<path d="M4.15656 4.9621C4.79511 4.9621 5.39036 5.04257 5.83061 5.19147C6.27696 5.3402 6.36983 5.4891 6.36983 5.51389C6.36983 5.53868 6.27696 5.6874 5.83061 5.8363C5.39036 5.98503 4.789 6.06568 4.15656 6.06568C3.52412 6.06568 2.92276 5.98503 2.48251 5.8363C2.03616 5.6874 1.94312 5.53868 1.94312 5.51389C1.94312 5.4891 2.03616 5.3402 2.48251 5.19147C2.92276 5.04257 3.51801 4.9621 4.15656 4.9621Z" fill="white"/>
<path d="M6.02887 6.72275L5.21052 7.00798C5.19813 7.01426 5.19813 7.02666 5.20424 7.03277L5.42122 7.18778L4.28046 8.76268C4.27435 8.76879 4.26807 8.76879 4.26195 8.76879L3.38775 8.13635L2.99708 7.8574C2.99097 7.85129 2.97857 7.85129 2.97857 7.86368L2.69945 8.24807L1.66412 9.66778V10.4552C1.66412 10.4366 2.9599 8.65724 3.07773 8.49595C3.08401 8.48984 3.09012 8.48984 3.0964 8.48984L4.36111 9.40734C4.36739 9.41362 4.37978 9.41362 4.37978 9.40123L5.79322 7.45451L6.01037 7.60935C6.02276 7.61563 6.03515 7.60935 6.03515 7.59696L6.04755 6.73514C6.04755 6.72903 6.03515 6.71664 6.02887 6.72275Z" fill="white"/>
<path d="M4.15653 5.43954C3.51798 5.43954 2.92273 5.52002 2.48248 5.66892C2.40201 5.69371 2.32764 5.72461 2.2655 5.7494C2.32764 5.77418 2.39573 5.80525 2.48248 5.83004C2.92901 5.97894 3.5241 6.05942 4.15653 6.05942C4.78897 6.05942 5.39034 5.97894 5.83058 5.83004C5.91106 5.80525 5.98542 5.77418 6.04756 5.7494C5.98542 5.72461 5.91734 5.69371 5.83058 5.66892C5.39034 5.52002 4.79508 5.43954 4.15653 5.43954Z" fill="#231F20"/>
<path d="M2.49487 8.52701V9.29578L1.66412 10.4552V9.66777L2.49487 8.52701Z" fill="#BDE1FF"/>
</g>
</g>
<defs>
<clipPath id="clip0_811_175">
<rect width="40" height="6.62149" fill="white" transform="translate(0 4.68927)"/>
</clipPath>
<clipPath id="clip1_811_175">
<rect width="6.66133" height="6.62149" fill="white" transform="translate(0 4.68927)"/>
</clipPath>
</defs>
</svg>
