<svg width="79" height="64" viewBox="0 0 79 64" fill="none" xmlns="http://www.w3.org/2000/svg">
<g clip-path="url(#clip0_751_435)">
<path d="M36.52 64C54.1931 64 68.52 49.6731 68.52 32C68.52 14.3269 54.1931 0 36.52 0C18.8469 0 4.52002 14.3269 4.52002 32C4.52002 49.6731 18.8469 64 36.52 64Z" fill="#0B3D91"/>
<path d="M34.6307 6.50521C34.8288 6.50521 34.9895 6.34459 34.9895 6.14646C34.9895 5.94833 34.8288 5.78772 34.6307 5.78772C34.4326 5.78772 34.272 5.94833 34.272 6.14646C34.272 6.34459 34.4326 6.50521 34.6307 6.50521Z" fill="white"/>
<path d="M38.3138 6.98354C38.512 6.98354 38.6726 6.82293 38.6726 6.6248C38.6726 6.42667 38.512 6.26605 38.3138 6.26605C38.1157 6.26605 37.9551 6.42667 37.9551 6.6248C37.9551 6.82293 38.1157 6.98354 38.3138 6.98354Z" fill="white"/>
<path d="M43.1449 13.4888C43.343 13.4888 43.5036 13.3282 43.5036 13.13C43.5036 12.9319 43.343 12.7713 43.1449 12.7713C42.9467 12.7713 42.7861 12.9319 42.7861 13.13C42.7861 13.3282 42.9467 13.4888 43.1449 13.4888Z" fill="white"/>
<path d="M16.6459 46.9716C16.844 46.9716 17.0046 46.811 17.0046 46.6128C17.0046 46.4147 16.844 46.2541 16.6459 46.2541C16.4477 46.2541 16.2871 46.4147 16.2871 46.6128C16.2871 46.811 16.4477 46.9716 16.6459 46.9716Z" fill="white"/>
<path d="M17.5785 49.8415C17.7766 49.8415 17.9372 49.6809 17.9372 49.4828C17.9372 49.2847 17.7766 49.1241 17.5785 49.1241C17.3803 49.1241 17.2197 49.2847 17.2197 49.4828C17.2197 49.6809 17.3803 49.8415 17.5785 49.8415Z" fill="white"/>
<path d="M13.13 47.312C13.2784 47.312 13.3986 47.1917 13.3986 47.0433C13.3986 46.895 13.2784 46.7747 13.13 46.7747C12.9816 46.7747 12.8613 46.895 12.8613 47.0433C12.8613 47.1917 12.9816 47.312 13.13 47.312Z" fill="white"/>
<path d="M27.7187 52.9507C27.8675 52.9507 27.9881 52.83 27.9881 52.6812C27.9881 52.5324 27.8675 52.4117 27.7187 52.4117C27.5699 52.4117 27.4492 52.5324 27.4492 52.6812C27.4492 52.83 27.5699 52.9507 27.7187 52.9507Z" fill="white"/>
<path d="M50.6002 48.1969C50.7486 48.1969 50.8689 48.0766 50.8689 47.9282C50.8689 47.7799 50.7486 47.6596 50.6002 47.6596C50.4518 47.6596 50.3315 47.7799 50.3315 47.9282C50.3315 48.0766 50.4518 48.1969 50.6002 48.1969Z" fill="white"/>
<path d="M57.2499 40.975C57.3987 40.975 57.5194 40.8543 57.5194 40.7055C57.5194 40.5567 57.3987 40.4361 57.2499 40.4361C57.1011 40.4361 56.9805 40.5567 56.9805 40.7055C56.9805 40.8543 57.1011 40.975 57.2499 40.975Z" fill="white"/>
<path d="M24.6578 15.4969C24.8062 15.4969 24.9265 15.3767 24.9265 15.2283C24.9265 15.0799 24.8062 14.9596 24.6578 14.9596C24.5094 14.9596 24.3892 15.0799 24.3892 15.2283C24.3892 15.3767 24.5094 15.4969 24.6578 15.4969Z" fill="white"/>
<path d="M31.9762 10.1222C32.1246 10.1222 32.2448 10.0019 32.2448 9.8535C32.2448 9.70512 32.1246 9.58484 31.9762 9.58484C31.8278 9.58484 31.7075 9.70512 31.7075 9.8535C31.7075 10.0019 31.8278 10.1222 31.9762 10.1222Z" fill="white"/>
<path d="M31.1813 9.596C31.3296 9.596 31.4499 9.47572 31.4499 9.32734C31.4499 9.17897 31.3296 9.05869 31.1813 9.05869C31.0329 9.05869 30.9126 9.17897 30.9126 9.32734C30.9126 9.47572 31.0329 9.596 31.1813 9.596Z" fill="white"/>
<path d="M30.4635 9.06985C30.6119 9.06985 30.7321 8.94957 30.7321 8.80119C30.7321 8.65281 30.6119 8.53253 30.4635 8.53253C30.3151 8.53253 30.1948 8.65281 30.1948 8.80119C30.1948 8.94957 30.3151 9.06985 30.4635 9.06985Z" fill="white"/>
<path d="M25.8058 16.8849C25.9541 16.8849 26.0744 16.7646 26.0744 16.6162C26.0744 16.4678 25.9541 16.3476 25.8058 16.3476C25.6574 16.3476 25.5371 16.4678 25.5371 16.6162C25.5371 16.7646 25.6574 16.8849 25.8058 16.8849Z" fill="white"/>
<path d="M36.5856 2.89944C36.7339 2.89944 36.8542 2.77916 36.8542 2.63078C36.8542 2.4824 36.7339 2.36212 36.5856 2.36212C36.4372 2.36212 36.3169 2.4824 36.3169 2.63078C36.3169 2.77916 36.4372 2.89944 36.5856 2.89944Z" fill="white"/>
<path d="M38.3561 10.6483C38.5044 10.6483 38.6247 10.528 38.6247 10.3797C38.6247 10.2313 38.5044 10.111 38.3561 10.111C38.2077 10.111 38.0874 10.2313 38.0874 10.3797C38.0874 10.528 38.2077 10.6483 38.3561 10.6483Z" fill="white"/>
<path d="M35.5636 9.13522C35.712 9.13522 35.8322 9.01494 35.8322 8.86656C35.8322 8.71818 35.712 8.5979 35.5636 8.5979C35.4152 8.5979 35.2949 8.71818 35.2949 8.86656C35.2949 9.01494 35.4152 9.13522 35.5636 9.13522Z" fill="white"/>
<path d="M30.7804 11.1928C30.9288 11.1928 31.049 11.0725 31.049 10.9241C31.049 10.7758 30.9288 10.6555 30.7804 10.6555C30.632 10.6555 30.5117 10.7758 30.5117 10.9241C30.5117 11.0725 30.632 11.1928 30.7804 11.1928Z" fill="white"/>
<path d="M51.8741 55.2945C52.0225 55.2945 52.1428 55.1742 52.1428 55.0258C52.1428 54.8774 52.0225 54.7571 51.8741 54.7571C51.7258 54.7571 51.6055 54.8774 51.6055 55.0258C51.6055 55.1742 51.7258 55.2945 51.8741 55.2945Z" fill="white"/>
<path d="M16.1913 48.7C16.3401 48.7 16.4608 48.5793 16.4608 48.4305C16.4608 48.2817 16.3401 48.161 16.1913 48.161C16.0425 48.161 15.9219 48.2817 15.9219 48.4305C15.9219 48.5793 16.0425 48.7 16.1913 48.7Z" fill="white"/>
<path d="M34.894 52.1678C35.0428 52.1678 35.1634 52.0472 35.1634 51.8984C35.1634 51.7495 35.0428 51.6289 34.894 51.6289C34.7451 51.6289 34.6245 51.7495 34.6245 51.8984C34.6245 52.0472 34.7451 52.1678 34.894 52.1678Z" fill="white"/>
<path d="M21.7572 48.4847C21.9061 48.4847 22.0267 48.364 22.0267 48.2152C22.0267 48.0664 21.9061 47.9458 21.7572 47.9458C21.6084 47.9458 21.4878 48.0664 21.4878 48.2152C21.4878 48.364 21.6084 48.4847 21.7572 48.4847Z" fill="white"/>
<path d="M24.0834 52.2818C24.2322 52.2818 24.3529 52.1612 24.3529 52.0123C24.3529 51.8635 24.2322 51.7429 24.0834 51.7429C23.9346 51.7429 23.814 51.8635 23.814 52.0123C23.814 52.1612 23.9346 52.2818 24.0834 52.2818Z" fill="white"/>
<path d="M41.2076 49.8894C41.356 49.8894 41.4763 49.7691 41.4763 49.6207C41.4763 49.4723 41.356 49.3521 41.2076 49.3521C41.0592 49.3521 40.939 49.4723 40.939 49.6207C40.939 49.7691 41.0592 49.8894 41.2076 49.8894Z" fill="white"/>
<path d="M50.6481 44.5616C50.7964 44.5616 50.9167 44.4413 50.9167 44.293C50.9167 44.1446 50.7964 44.0243 50.6481 44.0243C50.4997 44.0243 50.3794 44.1446 50.3794 44.293C50.3794 44.4413 50.4997 44.5616 50.6481 44.5616Z" fill="white"/>
<path d="M57.8058 47.8318C57.9541 47.8318 58.0744 47.7115 58.0744 47.5631C58.0744 47.4148 57.9541 47.2945 57.8058 47.2945C57.6574 47.2945 57.5371 47.4148 57.5371 47.5631C57.5371 47.7115 57.6574 47.8318 57.8058 47.8318Z" fill="white"/>
<path d="M60.2452 49.3927C60.3936 49.3927 60.5139 49.2724 60.5139 49.1241C60.5139 48.9757 60.3936 48.8554 60.2452 48.8554C60.0968 48.8554 59.9766 48.9757 59.9766 49.1241C59.9766 49.2724 60.0968 49.3927 60.2452 49.3927Z" fill="white"/>
<path d="M60.6461 45.1356C60.7945 45.1356 60.9148 45.0153 60.9148 44.867C60.9148 44.7186 60.7945 44.5983 60.6461 44.5983C60.4977 44.5983 60.3774 44.7186 60.3774 44.867C60.3774 45.0153 60.4977 45.1356 60.6461 45.1356Z" fill="white"/>
<path d="M25.0577 39.1087C25.2061 39.1087 25.3264 38.9884 25.3264 38.84C25.3264 38.6917 25.2061 38.5714 25.0577 38.5714C24.9093 38.5714 24.7891 38.6917 24.7891 38.84C24.7891 38.9884 24.9093 39.1087 25.0577 39.1087Z" fill="white"/>
<path d="M25.16 45.3692C25.3581 45.3692 25.5188 45.2086 25.5188 45.0104C25.5188 44.8123 25.3581 44.6517 25.16 44.6517C24.9619 44.6517 24.8013 44.8123 24.8013 45.0104C24.8013 45.2086 24.9619 45.3692 25.16 45.3692Z" fill="white"/>
<path d="M27.3124 49.9133C27.5105 49.9133 27.6711 49.7527 27.6711 49.5545C27.6711 49.3564 27.5105 49.1958 27.3124 49.1958C27.1142 49.1958 26.9536 49.3564 26.9536 49.5545C26.9536 49.7527 27.1142 49.9133 27.3124 49.9133Z" fill="white"/>
<path d="M53.0941 45.1779C53.2922 45.1779 53.4528 45.0173 53.4528 44.8191C53.4528 44.621 53.2922 44.4604 53.0941 44.4604C52.896 44.4604 52.7354 44.621 52.7354 44.8191C52.7354 45.0173 52.896 45.1779 53.0941 45.1779Z" fill="white"/>
<path d="M62.3734 44.6517C62.5715 44.6517 62.7321 44.4911 62.7321 44.293C62.7321 44.0948 62.5715 43.9342 62.3734 43.9342C62.1753 43.9342 62.0146 44.0948 62.0146 44.293C62.0146 44.4911 62.1753 44.6517 62.3734 44.6517Z" fill="white"/>
<path d="M57.7816 42.6906C57.9797 42.6906 58.1403 42.53 58.1403 42.3318C58.1403 42.1337 57.9797 41.9731 57.7816 41.9731C57.5835 41.9731 57.4229 42.1337 57.4229 42.3318C57.4229 42.53 57.5835 42.6906 57.7816 42.6906Z" fill="white"/>
<path d="M53.0941 42.8819C53.2922 42.8819 53.4528 42.7213 53.4528 42.5232C53.4528 42.325 53.2922 42.1644 53.0941 42.1644C52.896 42.1644 52.7354 42.325 52.7354 42.5232C52.7354 42.7213 52.896 42.8819 53.0941 42.8819Z" fill="white"/>
<path d="M43.4248 5.92165L44.3168 5.83635L43.4264 5.78613C43.3985 5.61393 43.2605 5.4792 43.0868 5.45688L43.0015 4.56879L42.9504 5.46405C42.7894 5.49993 42.6658 5.63466 42.6459 5.80207L41.7339 5.88498L42.6523 5.93441C42.6858 6.08827 42.8101 6.20865 42.9664 6.23735L43.0493 7.15254L43.0979 6.23894C43.2629 6.21104 43.3937 6.08428 43.4248 5.92165Z" fill="white"/>
<path d="M28.3686 15.8533L29.2607 15.768L28.3702 15.7178C28.3431 15.5456 28.2044 15.4108 28.0306 15.3885L27.9453 14.5004L27.8951 15.3957C27.7332 15.4316 27.6097 15.5663 27.5897 15.7337L26.6777 15.8166L27.5961 15.866C27.6296 16.0199 27.754 16.1403 27.9102 16.169L27.9931 17.0842L28.0426 16.1706C28.2076 16.1435 28.3383 16.0159 28.3686 15.8533Z" fill="white"/>
<path d="M61.7199 42.1118L62.6119 42.0265L61.7215 41.9763C61.6944 41.8041 61.5556 41.6694 61.3819 41.647L61.2965 40.7589L61.2463 41.6542C61.0853 41.6901 60.9617 41.8248 60.9418 41.9922L60.0298 42.0751L60.9482 42.1246C60.9817 42.2784 61.106 42.3988 61.2623 42.4275L61.3452 43.3427L61.3946 42.4291C61.558 42.402 61.6888 42.2752 61.7199 42.1118Z" fill="white"/>
<path d="M25.3549 55.8414L26.247 55.7561L25.3565 55.7058C25.3286 55.5336 25.1907 55.3989 25.0169 55.3766L24.9316 54.4893L24.8814 55.3838C24.7196 55.4196 24.596 55.5544 24.5761 55.7218L23.6641 55.8047L24.5824 55.8541C24.6159 56.008 24.7403 56.1292 24.8965 56.1571L24.9795 57.0722L25.0289 56.1586C25.1931 56.1315 25.3246 56.004 25.3549 55.8414Z" fill="white"/>
<path d="M58.8859 49.1448L59.778 49.0595L58.8875 49.0093C58.8604 48.8371 58.7217 48.7023 58.5479 48.68L58.4626 47.7919L58.4123 48.6864C58.2513 48.7223 58.1277 48.857 58.1078 49.0244L57.1958 49.1073L58.1142 49.1568C58.1477 49.3106 58.272 49.431 58.4283 49.4597L58.5112 50.3749L58.5606 49.4613C58.7241 49.435 58.8556 49.3074 58.8859 49.1448Z" fill="white"/>
<path d="M44.1087 24.3348C40.3881 25.781 36.7592 27.0716 33.6971 28.0299C27.4749 29.9783 10.4505 35.2526 0.166504 41.9013L1.02749 42.2362C7.29356 38.6966 11.3665 37.5845 15.2816 36.3528C19.5387 35.0135 33.3009 31.7927 39.5327 30.0389C41.6382 29.4465 44.1039 28.6709 46.7156 27.727C46.1081 26.8795 45.4672 26.0297 44.7927 25.1815C44.5671 24.8953 44.3383 24.6131 44.1087 24.3348ZM48.6544 30.6001C47.7536 31.2084 46.9986 31.6939 46.47 32C43.4088 33.7698 28.4842 43.9581 25.0889 46.3019C21.6936 48.6457 12.2697 57.5426 9.49545 60.1256L9.39979 61.1771C18.3445 53.1412 21.1507 51.1593 24.7062 48.4544C29.1068 45.1061 38.2102 38.9118 41.3041 36.9268C44.2618 35.0294 46.9292 33.2843 49.3233 31.6875C49.2842 31.6221 49.2451 31.5567 49.2061 31.4906C49.0259 31.1948 48.8417 30.8983 48.6544 30.6001ZM62.6367 15.8326C58.2791 18.3868 51.4111 21.4697 44.7481 24.0853C44.9075 24.2806 45.0662 24.4775 45.224 24.676C45.9686 25.6136 46.6709 26.5574 47.3318 27.5021C52.5695 25.5729 58.3166 22.9836 62.8766 19.8497C60.7042 21.9081 53.5222 27.2757 49.1431 30.2677C49.3687 30.6352 49.5871 31.0027 49.7984 31.3686C56.4328 26.9289 60.8972 23.6612 63.4984 21.476C67.0859 18.4626 75.2653 11.7182 78.3744 2.67783C72.9207 9.61435 66.4728 13.5837 62.6367 15.8326Z" fill="#FC3D21"/>
<path d="M32.4024 39.9235C31.6969 39.0354 30.7211 37.8459 29.9885 36.9236C29.0087 35.6903 28.1023 34.4443 27.2716 33.1998C27.0005 33.2676 26.7303 33.3353 26.46 33.4031C27.4629 34.968 28.5766 36.5305 29.79 38.058C30.6765 39.1741 31.4824 40.0726 31.8954 40.6314C31.9791 40.7446 32.1449 40.9949 32.3689 41.3282C32.6272 41.1528 32.8879 40.9758 33.151 40.7972C32.8967 40.5206 32.6456 40.2296 32.4024 39.9235ZM37.5524 44.5983C36.9728 44.0498 35.5673 43.1338 34.1045 41.7594C33.7816 41.9811 33.4555 42.2059 33.1287 42.4323C34.0734 43.7636 35.3601 45.3987 36.3677 45.8754C37.8856 46.5945 38.2946 45.3015 37.5524 44.5983ZM45.2239 24.676C36.8596 14.1481 26.6418 8.36433 22.2364 11.8649C18.8148 14.5834 20.2195 22.5284 24.9358 30.8743C25.1797 30.7906 25.4213 30.7085 25.6604 30.6272C20.9003 22.4957 19.5976 14.9389 22.8247 12.3743C26.8802 9.15197 36.6723 14.958 44.7943 25.1807C46.4756 27.2965 47.9536 29.4202 49.2052 31.4906C53.998 39.4228 55.4689 46.5961 52.1573 49.5243C51.144 50.4203 48.0477 50.7719 43.9915 48.9463C43.9349 49.0173 44.0257 49.2094 44.0967 49.2564C47.598 50.6643 50.9519 51.2008 52.6452 49.8559C56.7141 46.6224 53.5883 35.204 45.2239 24.676Z" fill="white"/>
<path d="M9.35107 25.9253H14.7083L19.2046 33.5546C19.2046 33.5546 19.2046 28.0299 19.2046 27.5994C19.2046 26.9297 18.3556 26.0568 18.0566 25.9253C18.4153 25.9253 21.5484 25.9253 21.7636 25.9253C21.5364 25.9851 20.807 26.87 20.807 27.5994C20.807 27.9581 20.807 35.9701 20.807 36.3528C20.807 36.8909 21.5843 37.6323 21.955 37.9193H16.789L12.221 30.2541C12.221 30.2541 12.221 35.9701 12.221 36.281C12.221 36.8789 12.807 37.4529 13.4168 37.9432H9.47066C10.0327 37.704 10.5708 36.9507 10.6186 36.3528C10.6665 35.7549 10.6186 28.0419 10.6186 27.707C10.6186 26.9776 9.91311 26.3797 9.35107 25.9253Z" fill="white"/>
<path d="M58.3559 37.9193H65.4829C65.0883 37.8236 64.6459 37.3572 64.4067 36.7354C64.1675 36.1136 60.3887 25.9253 60.3887 25.9253H57.679C56.9105 26.4785 56.087 27.0621 55.2077 27.6767C55.2053 27.6991 55.2029 27.7214 55.1989 27.7429C55.0809 28.4604 52.9604 36.1407 52.8312 36.5202C52.6518 37.0463 51.7311 37.6323 51.3604 37.9432H55.1989C54.8163 37.5127 54.5053 37.0942 54.5771 36.6158C54.6488 36.1375 54.8641 35.1809 54.8641 35.1809H58.8342C59.0136 35.6592 59.1475 36.0889 59.2169 36.4963C59.3006 36.9865 58.7983 37.5366 58.3559 37.9193ZM55.2228 33.6502L56.5621 29.2735L58.3319 33.6502H55.2228ZM54.6193 26.3621C54.8163 26.217 55.014 26.0712 55.2109 25.9253H54.1705C54.2742 26.0209 54.4456 26.1716 54.6193 26.3621Z" fill="white"/>
<path d="M27.3603 36.6158C27.432 36.1375 27.6473 35.1809 27.6473 35.1809H31.6174C31.7968 35.6592 31.9307 36.0889 32.0001 36.4963C32.0838 36.9865 31.5815 37.5366 31.1391 37.9193H37.4139C37.5447 37.8316 37.6746 37.7439 37.8045 37.657C37.5614 37.4418 37.3374 37.1189 37.1899 36.7354C36.9507 36.1136 33.172 25.9253 33.172 25.9253H26.9537C27.2527 26.2003 28.1137 26.9417 27.9821 27.7429C27.8649 28.4604 25.7436 36.1407 25.6144 36.5202C25.435 37.0463 24.5143 37.6323 24.1436 37.9432H27.9821C27.5995 37.5127 27.2885 37.0942 27.3603 36.6158ZM29.3453 29.2735L31.1152 33.6502H28.006L29.3453 29.2735Z" fill="white"/>
<path d="M49.0353 31.8788C47.865 32.6585 46.6302 33.4724 45.3291 34.3223C45.9127 34.6053 46.3775 34.9608 46.4221 35.42C46.505 36.2826 44.7719 36.6996 43.2054 36.5202C42.8921 36.4843 42.5843 36.4022 42.291 36.2922C41.9657 36.5018 41.6372 36.7131 41.304 36.9268C40.9652 37.1444 40.5538 37.4123 40.0843 37.7216V38.9596C40.3952 38.3498 41.0752 37.8037 41.603 37.7758C41.8302 37.7638 42.6194 38.4933 45.872 38.3139C47.4505 38.227 50.4998 36.5441 50.452 34.6069C50.4233 33.4621 49.8254 32.5692 49.0353 31.8788ZM40.0835 34.87V36.1311C40.3713 35.939 40.6551 35.7501 40.9333 35.5659C40.4956 35.2614 40.1855 34.9768 40.0835 34.87ZM47.9232 31.0872C47.6203 30.9078 47.3134 30.7508 47.0192 30.6121C45.4886 29.8946 43.8862 29.763 43.5513 28.7944C43.3154 28.1112 43.9818 27.479 45.6081 27.5029C47.2345 27.5269 48.7412 28.4955 49.1478 28.8423V25.757C49.0282 25.8766 48.5036 26.4785 48.0237 26.3789C47.1029 26.1875 45.5364 25.938 43.7427 25.9484C41.6859 25.9603 39.9161 27.55 39.8563 29.5597C39.7726 32.3699 42.0207 33.1352 43.2883 33.5777C43.419 33.6231 43.5681 33.6717 43.7299 33.7236C44.9457 32.9327 45.9071 32.3237 46.4699 31.9992C46.8478 31.7816 47.3429 31.4691 47.9232 31.0872Z" fill="white"/>
</g>
<defs>
<clipPath id="clip0_751_435">
<rect width="78.2079" height="64" fill="white" transform="translate(0.166504)"/>
</clipPath>
</defs>
</svg>
