<svg width="21" height="16" viewBox="0 0 21 16" fill="none" xmlns="http://www.w3.org/2000/svg">
<g clip-path="url(#clip0_751_435)">
<path d="M9.78711 16C14.2054 16 17.7871 12.4183 17.7871 8C17.7871 3.58172 14.2054 0 9.78711 0C5.36883 0 1.78711 3.58172 1.78711 8C1.78711 12.4183 5.36883 16 9.78711 16Z" fill="#0B3D91"/>
<path d="M9.31478 1.62627C9.36432 1.62627 9.40447 1.58612 9.40447 1.53659C9.40447 1.48705 9.36432 1.4469 9.31478 1.4469C9.26525 1.4469 9.2251 1.48705 9.2251 1.53659C9.2251 1.58612 9.26525 1.62627 9.31478 1.62627Z" fill="white"/>
<path d="M10.2357 1.74587C10.2852 1.74587 10.3254 1.70572 10.3254 1.65618C10.3254 1.60665 10.2852 1.5665 10.2357 1.5665C10.1862 1.5665 10.146 1.60665 10.146 1.65618C10.146 1.70572 10.1862 1.74587 10.2357 1.74587Z" fill="white"/>
<path d="M11.443 3.37218C11.4925 3.37218 11.5326 3.33203 11.5326 3.2825C11.5326 3.23296 11.4925 3.19281 11.443 3.19281C11.3934 3.19281 11.3533 3.23296 11.3533 3.2825C11.3533 3.33203 11.3934 3.37218 11.443 3.37218Z" fill="white"/>
<path d="M4.81869 11.7429C4.86822 11.7429 4.90838 11.7027 4.90838 11.6532C4.90838 11.6037 4.86822 11.5635 4.81869 11.5635C4.76916 11.5635 4.729 11.6037 4.729 11.6532C4.729 11.7027 4.76916 11.7429 4.81869 11.7429Z" fill="white"/>
<path d="M5.05136 12.4604C5.10089 12.4604 5.14104 12.4202 5.14104 12.3707C5.14104 12.3212 5.10089 12.281 5.05136 12.281C5.00182 12.281 4.96167 12.3212 4.96167 12.3707C4.96167 12.4202 5.00182 12.4604 5.05136 12.4604Z" fill="white"/>
<path d="M3.93972 11.828C3.97682 11.828 4.00689 11.7979 4.00689 11.7608C4.00689 11.7237 3.97682 11.6937 3.93972 11.6937C3.90263 11.6937 3.87256 11.7237 3.87256 11.7608C3.87256 11.7979 3.90263 11.828 3.93972 11.828Z" fill="white"/>
<path d="M7.58689 13.2376C7.6241 13.2376 7.65426 13.2075 7.65426 13.1703C7.65426 13.1331 7.6241 13.1029 7.58689 13.1029C7.54969 13.1029 7.51953 13.1331 7.51953 13.1703C7.51953 13.2075 7.54969 13.2376 7.58689 13.2376Z" fill="white"/>
<path d="M13.3072 12.0492C13.3442 12.0492 13.3743 12.0191 13.3743 11.9821C13.3743 11.945 13.3442 11.9149 13.3072 11.9149C13.2701 11.9149 13.24 11.945 13.24 11.9821C13.24 12.0191 13.2701 12.0492 13.3072 12.0492Z" fill="white"/>
<path d="M14.9697 10.2437C15.0069 10.2437 15.0371 10.2136 15.0371 10.1764C15.0371 10.1392 15.0069 10.109 14.9697 10.109C14.9325 10.109 14.9023 10.1392 14.9023 10.1764C14.9023 10.2136 14.9325 10.2437 14.9697 10.2437Z" fill="white"/>
<path d="M6.82156 3.87423C6.85865 3.87423 6.88872 3.84416 6.88872 3.80706C6.88872 3.76997 6.85865 3.7399 6.82156 3.7399C6.78446 3.7399 6.75439 3.76997 6.75439 3.80706C6.75439 3.84416 6.78446 3.87423 6.82156 3.87423Z" fill="white"/>
<path d="M8.65115 2.53051C8.68824 2.53051 8.71831 2.50044 8.71831 2.46334C8.71831 2.42625 8.68824 2.39618 8.65115 2.39618C8.61405 2.39618 8.58398 2.42625 8.58398 2.46334C8.58398 2.50044 8.61405 2.53051 8.65115 2.53051Z" fill="white"/>
<path d="M8.45242 2.39898C8.48951 2.39898 8.51958 2.36891 8.51958 2.33181C8.51958 2.29472 8.48951 2.26465 8.45242 2.26465C8.41533 2.26465 8.38525 2.29472 8.38525 2.33181C8.38525 2.36891 8.41533 2.39898 8.45242 2.39898Z" fill="white"/>
<path d="M8.27298 2.26745C8.31007 2.26745 8.34014 2.23738 8.34014 2.20028C8.34014 2.16319 8.31007 2.13312 8.27298 2.13312C8.23588 2.13312 8.20581 2.16319 8.20581 2.20028C8.20581 2.23738 8.23588 2.26745 8.27298 2.26745Z" fill="white"/>
<path d="M7.10867 4.22121C7.14576 4.22121 7.17583 4.19114 7.17583 4.15405C7.17583 4.11695 7.14576 4.08688 7.10867 4.08688C7.07158 4.08688 7.0415 4.11695 7.0415 4.15405C7.0415 4.19114 7.07158 4.22121 7.10867 4.22121Z" fill="white"/>
<path d="M9.80349 0.724845C9.84059 0.724845 9.87066 0.694774 9.87066 0.65768C9.87066 0.620586 9.84059 0.590515 9.80349 0.590515C9.7664 0.590515 9.73633 0.620586 9.73633 0.65768C9.73633 0.694774 9.7664 0.724845 9.80349 0.724845Z" fill="white"/>
<path d="M10.2461 2.66207C10.2832 2.66207 10.3133 2.632 10.3133 2.59491C10.3133 2.55781 10.2832 2.52774 10.2461 2.52774C10.209 2.52774 10.179 2.55781 10.179 2.59491C10.179 2.632 10.209 2.66207 10.2461 2.66207Z" fill="white"/>
<path d="M9.54812 2.2838C9.58522 2.2838 9.61529 2.25373 9.61529 2.21664C9.61529 2.17955 9.58522 2.14948 9.54812 2.14948C9.51103 2.14948 9.48096 2.17955 9.48096 2.21664C9.48096 2.25373 9.51103 2.2838 9.54812 2.2838Z" fill="white"/>
<path d="M8.35232 2.79818C8.38941 2.79818 8.41949 2.76811 8.41949 2.73101C8.41949 2.69392 8.38941 2.66385 8.35232 2.66385C8.31523 2.66385 8.28516 2.69392 8.28516 2.73101C8.28516 2.76811 8.31523 2.79818 8.35232 2.79818Z" fill="white"/>
<path d="M13.6258 13.8236C13.6629 13.8236 13.6929 13.7935 13.6929 13.7564C13.6929 13.7193 13.6629 13.6893 13.6258 13.6893C13.5887 13.6893 13.5586 13.7193 13.5586 13.7564C13.5586 13.7935 13.5887 13.8236 13.6258 13.8236Z" fill="white"/>
<path d="M4.70506 12.175C4.74226 12.175 4.77242 12.1448 4.77242 12.1076C4.77242 12.0704 4.74226 12.0403 4.70506 12.0403C4.66786 12.0403 4.6377 12.0704 4.6377 12.1076C4.6377 12.1448 4.66786 12.175 4.70506 12.175Z" fill="white"/>
<path d="M9.3806 13.042C9.4178 13.042 9.44796 13.0118 9.44796 12.9746C9.44796 12.9374 9.4178 12.9072 9.3806 12.9072C9.34339 12.9072 9.31323 12.9374 9.31323 12.9746C9.31323 13.0118 9.34339 13.042 9.3806 13.042Z" fill="white"/>
<path d="M6.09642 12.1211C6.13362 12.1211 6.16378 12.091 6.16378 12.0538C6.16378 12.0166 6.13362 11.9864 6.09642 11.9864C6.05921 11.9864 6.02905 12.0166 6.02905 12.0538C6.02905 12.091 6.05921 12.1211 6.09642 12.1211Z" fill="white"/>
<path d="M6.67796 13.0704C6.71516 13.0704 6.74532 13.0403 6.74532 13.0031C6.74532 12.9659 6.71516 12.9357 6.67796 12.9357C6.64076 12.9357 6.6106 12.9659 6.6106 13.0031C6.6106 13.0403 6.64076 13.0704 6.67796 13.0704Z" fill="white"/>
<path d="M10.959 12.4723C10.9961 12.4723 11.0262 12.4423 11.0262 12.4052C11.0262 12.3681 10.9961 12.338 10.959 12.338C10.9219 12.338 10.8918 12.3681 10.8918 12.4052C10.8918 12.4423 10.9219 12.4723 10.959 12.4723Z" fill="white"/>
<path d="M13.3191 11.1404C13.3562 11.1404 13.3863 11.1103 13.3863 11.0732C13.3863 11.0361 13.3562 11.006 13.3191 11.006C13.282 11.006 13.252 11.0361 13.252 11.0732C13.252 11.1103 13.282 11.1404 13.3191 11.1404Z" fill="white"/>
<path d="M15.1087 11.9579C15.1458 11.9579 15.1758 11.9279 15.1758 11.8908C15.1758 11.8537 15.1458 11.8236 15.1087 11.8236C15.0716 11.8236 15.0415 11.8537 15.0415 11.8908C15.0415 11.9279 15.0716 11.9579 15.1087 11.9579Z" fill="white"/>
<path d="M15.7185 12.3482C15.7556 12.3482 15.7857 12.3181 15.7857 12.281C15.7857 12.2439 15.7556 12.2138 15.7185 12.2138C15.6814 12.2138 15.6514 12.2439 15.6514 12.281C15.6514 12.3181 15.6814 12.3482 15.7185 12.3482Z" fill="white"/>
<path d="M15.8186 11.2839C15.8557 11.2839 15.8858 11.2538 15.8858 11.2167C15.8858 11.1796 15.8557 11.1496 15.8186 11.1496C15.7815 11.1496 15.7515 11.1796 15.7515 11.2167C15.7515 11.2538 15.7815 11.2839 15.8186 11.2839Z" fill="white"/>
<path d="M6.92166 9.77715C6.95875 9.77715 6.98882 9.74708 6.98882 9.70999C6.98882 9.67289 6.95875 9.64282 6.92166 9.64282C6.88456 9.64282 6.85449 9.67289 6.85449 9.70999C6.85449 9.74708 6.88456 9.77715 6.92166 9.77715Z" fill="white"/>
<path d="M6.94711 11.3423C6.99664 11.3423 7.03679 11.3021 7.03679 11.2526C7.03679 11.2031 6.99664 11.1629 6.94711 11.1629C6.89758 11.1629 6.85742 11.2031 6.85742 11.2526C6.85742 11.3021 6.89758 11.3423 6.94711 11.3423Z" fill="white"/>
<path d="M7.48519 12.4783C7.53473 12.4783 7.57488 12.4382 7.57488 12.3886C7.57488 12.3391 7.53473 12.299 7.48519 12.299C7.43566 12.299 7.39551 12.3391 7.39551 12.3886C7.39551 12.4382 7.43566 12.4783 7.48519 12.4783Z" fill="white"/>
<path d="M13.9303 11.2945C13.9798 11.2945 14.0199 11.2543 14.0199 11.2048C14.0199 11.1552 13.9798 11.1151 13.9303 11.1151C13.8807 11.1151 13.8406 11.1552 13.8406 11.2048C13.8406 11.2543 13.8807 11.2945 13.9303 11.2945Z" fill="white"/>
<path d="M16.2501 11.1629C16.2996 11.1629 16.3398 11.1228 16.3398 11.0732C16.3398 11.0237 16.2996 10.9836 16.2501 10.9836C16.2006 10.9836 16.1604 11.0237 16.1604 11.0732C16.1604 11.1228 16.2006 11.1629 16.2501 11.1629Z" fill="white"/>
<path d="M15.1021 10.6726C15.1517 10.6726 15.1918 10.6325 15.1918 10.5829C15.1918 10.5334 15.1517 10.4933 15.1021 10.4933C15.0526 10.4933 15.0125 10.5334 15.0125 10.5829C15.0125 10.6325 15.0526 10.6726 15.1021 10.6726Z" fill="white"/>
<path d="M13.9303 10.7204C13.9798 10.7204 14.0199 10.6803 14.0199 10.6308C14.0199 10.5812 13.9798 10.5411 13.9303 10.5411C13.8807 10.5411 13.8406 10.5812 13.8406 10.6308C13.8406 10.6803 13.8807 10.7204 13.9303 10.7204Z" fill="white"/>
<path d="M11.5133 1.4804L11.7363 1.45907L11.5137 1.44652C11.5067 1.40347 11.4722 1.36978 11.4288 1.3642L11.4075 1.14218L11.3947 1.366C11.3545 1.37497 11.3236 1.40865 11.3186 1.4505L11.0906 1.47123L11.3202 1.48359C11.3285 1.52205 11.3596 1.55215 11.3987 1.55932L11.4194 1.78812L11.4316 1.55972C11.4728 1.55274 11.5055 1.52106 11.5133 1.4804Z" fill="white"/>
<path d="M7.74938 3.96331L7.9724 3.94198L7.74978 3.92943C7.743 3.88638 7.70832 3.8527 7.66488 3.84711L7.64355 3.62509L7.631 3.84891C7.59054 3.85788 7.55964 3.89156 7.55466 3.93341L7.32666 3.95414L7.55626 3.9665C7.56463 4.00496 7.59572 4.03506 7.63478 4.04223L7.65551 4.27103L7.66787 4.04263C7.70912 4.03585 7.74181 4.00397 7.74938 3.96331Z" fill="white"/>
<path d="M16.0871 10.5279L16.3101 10.5066L16.0875 10.4941C16.0807 10.451 16.046 10.4173 16.0026 10.4118L15.9812 10.1897L15.9687 10.4135C15.9284 10.4225 15.8975 10.4562 15.8926 10.498L15.6646 10.5188L15.8941 10.5311C15.9025 10.5696 15.9336 10.5997 15.9727 10.6069L15.9934 10.8357L16.0058 10.6073C16.0466 10.6005 16.0793 10.5688 16.0871 10.5279Z" fill="white"/>
<path d="M6.99596 13.9603L7.21898 13.939L6.99636 13.9265C6.98939 13.8834 6.95491 13.8497 6.91146 13.8441L6.89013 13.6223L6.87758 13.8459C6.83712 13.8549 6.80623 13.8886 6.80124 13.9304L6.57324 13.9512L6.80284 13.9635C6.81121 14.002 6.8423 14.0323 6.88136 14.0393L6.90209 14.2681L6.91445 14.0397C6.9555 14.0329 6.98839 14.001 6.99596 13.9603Z" fill="white"/>
<path d="M15.3786 12.2862L15.6016 12.2649L15.379 12.2523C15.3722 12.2093 15.3375 12.1756 15.2941 12.17L15.2727 11.948L15.2602 12.1716C15.2199 12.1806 15.189 12.2142 15.1841 12.2561L14.9561 12.2768L15.1857 12.2892C15.194 12.3276 15.2251 12.3577 15.2642 12.3649L15.2849 12.5937L15.2973 12.3653C15.3381 12.3587 15.371 12.3268 15.3786 12.2862Z" fill="white"/>
<path d="M11.6843 6.08368C10.7541 6.44522 9.84691 6.76789 9.08139 7.00745C7.52584 7.49455 3.26973 8.81313 0.69873 10.4753L0.913977 10.559C2.48049 9.67412 3.49873 9.39609 4.47751 9.08817C5.54178 8.75334 8.98234 7.94816 10.5403 7.50969C11.0666 7.36161 11.6831 7.16769 12.336 6.93172C12.1841 6.71986 12.0239 6.5074 11.8553 6.29534C11.7989 6.22379 11.7417 6.15324 11.6843 6.08368ZM12.8207 7.65C12.5955 7.80207 12.4068 7.92344 12.2746 7.99998C11.5093 8.44243 7.77815 10.9895 6.92932 11.5755C6.08049 12.1614 3.72454 14.3856 3.03097 15.0314L3.00705 15.2942C5.24323 13.2853 5.94477 12.7898 6.83366 12.1136C7.93381 11.2765 10.2096 9.72793 10.9831 9.23167C11.7225 8.75733 12.3894 8.32105 12.9879 7.92185C12.9782 7.90551 12.9684 7.88916 12.9586 7.87262C12.9136 7.79868 12.8675 7.72454 12.8207 7.65ZM16.3163 3.95812C15.2269 4.59669 13.5099 5.36739 11.8441 6.0213C11.884 6.07013 11.9236 6.11936 11.9631 6.16899C12.1493 6.40337 12.3248 6.63934 12.4901 6.87551C13.7995 6.3932 15.2363 5.74587 16.3763 4.96241C15.8332 5.47701 14.0376 6.81891 12.9429 7.56689C12.9993 7.65877 13.0539 7.75065 13.1067 7.84213C14.7653 6.73221 15.8814 5.91527 16.5317 5.36899C17.4286 4.61562 19.4734 2.92952 20.2507 0.669434C18.8873 2.40356 17.2753 3.39589 16.3163 3.95812Z" fill="#FC3D21"/>
<path d="M8.75771 9.98085C8.58133 9.75882 8.33738 9.46146 8.15422 9.23087C7.90928 8.92255 7.68267 8.61104 7.475 8.29993C7.40724 8.31687 7.33967 8.33381 7.27211 8.35075C7.52283 8.74198 7.80126 9.13261 8.1046 9.51448C8.32622 9.7935 8.52772 10.0181 8.63095 10.1578C8.65188 10.1861 8.69334 10.2487 8.74934 10.332C8.81391 10.2882 8.87909 10.2439 8.94486 10.1993C8.88128 10.1301 8.8185 10.0574 8.75771 9.98085ZM10.0452 11.1496C9.90031 11.0124 9.54894 10.7834 9.18322 10.4398C9.1025 10.4952 9.02099 10.5514 8.93927 10.6081C9.17545 10.9409 9.49712 11.3497 9.74904 11.4688C10.1285 11.6486 10.2308 11.3253 10.0452 11.1496ZM11.9631 6.16899C9.87201 3.537 7.31755 2.09106 6.21621 2.9662C5.3608 3.64582 5.71197 5.63207 6.89104 7.71856C6.95203 7.69764 7.01242 7.67711 7.07221 7.65678C5.88217 5.62389 5.55651 3.73471 6.36329 3.09355C7.37714 2.28797 9.82517 3.73949 11.8557 6.29514C12.276 6.82409 12.6455 7.35504 12.9584 7.87262C14.1566 9.85568 14.5243 11.649 13.6964 12.381C13.4431 12.6051 12.669 12.693 11.655 12.2366C11.6408 12.2543 11.6635 12.3023 11.6813 12.3141C12.5566 12.666 13.3951 12.8002 13.8184 12.464C14.8356 11.6556 14.0542 8.80097 11.9631 6.16899Z" fill="white"/>
<path d="M2.99487 6.48129H4.33419L5.45825 8.38862C5.45825 8.38862 5.45825 7.00745 5.45825 6.89983C5.45825 6.73241 5.24599 6.51418 5.17126 6.48129C5.26094 6.48129 6.0442 6.48129 6.09801 6.48129C6.04121 6.49624 5.85885 6.71747 5.85885 6.89983C5.85885 6.98951 5.85885 8.9925 5.85885 9.08817C5.85885 9.2227 6.05317 9.40805 6.14584 9.4798H4.85436L3.71236 7.56351C3.71236 7.56351 3.71236 8.9925 3.71236 9.07023C3.71236 9.21971 3.85885 9.36321 4.01132 9.48578H3.02477C3.16528 9.42599 3.29981 9.23765 3.31176 9.08817C3.32372 8.93869 3.31176 7.01044 3.31176 6.92673C3.31176 6.74437 3.13538 6.5949 2.99487 6.48129Z" fill="white"/>
<path d="M15.2457 9.4798H17.0275C16.9288 9.45588 16.8182 9.33929 16.7584 9.18383C16.6986 9.02838 15.7539 6.48129 15.7539 6.48129H15.0765C14.8844 6.61961 14.6785 6.7655 14.4587 6.91916C14.4581 6.92474 14.4575 6.93032 14.4565 6.9357C14.427 7.11507 13.8968 9.03515 13.8645 9.13002C13.8197 9.26156 13.5895 9.40805 13.4968 9.48578H14.4565C14.3608 9.37815 14.2831 9.27352 14.301 9.15394C14.3189 9.03436 14.3728 8.79519 14.3728 8.79519H15.3653C15.4101 8.91478 15.4436 9.0222 15.461 9.12404C15.4819 9.24661 15.3563 9.38413 15.2457 9.4798ZM14.4624 8.41253L14.7973 7.31836L15.2397 8.41253H14.4624ZM14.3116 6.59051C14.3608 6.55424 14.4102 6.51777 14.4595 6.48129H14.1994C14.2253 6.50521 14.2681 6.54288 14.3116 6.59051Z" fill="white"/>
<path d="M7.49681 9.15394C7.51475 9.03436 7.56856 8.79519 7.56856 8.79519H8.56109C8.60593 8.91478 8.63941 9.0222 8.65675 9.12404C8.67768 9.24661 8.55212 9.38413 8.44151 9.4798H10.0102C10.0429 9.45787 10.0754 9.43595 10.1079 9.41423C10.0471 9.36042 9.99108 9.2797 9.95421 9.18383C9.89442 9.02838 8.94973 6.48129 8.94973 6.48129H7.39517C7.46991 6.55005 7.68515 6.7354 7.65227 6.9357C7.62297 7.11507 7.09263 9.03515 7.06034 9.13002C7.0155 9.26156 6.7853 9.40805 6.69263 9.48578H7.65227C7.5566 9.37815 7.47888 9.27352 7.49681 9.15394ZM7.99308 7.31836L8.43553 8.41253H7.65825L7.99308 7.31836Z" fill="white"/>
<path d="M12.9159 7.96968C12.6234 8.1646 12.3146 8.36809 11.9894 8.58054C12.1353 8.6513 12.2515 8.74019 12.2626 8.85498C12.2834 9.07063 11.8501 9.17486 11.4584 9.13002C11.3801 9.12105 11.3032 9.10053 11.2298 9.07302C11.1485 9.12544 11.0664 9.17825 10.9831 9.23167C10.8984 9.28608 10.7956 9.35304 10.6782 9.43037V9.73989C10.7559 9.58742 10.9259 9.4509 11.0578 9.44392C11.1146 9.44093 11.312 9.6233 12.1251 9.57845C12.5197 9.55673 13.2821 9.136 13.2701 8.6517C13.2629 8.3655 13.1135 8.14228 12.9159 7.96968ZM10.678 8.71747V9.03276C10.7499 8.98473 10.8209 8.9375 10.8904 8.89146C10.781 8.81532 10.7035 8.74417 10.678 8.71747ZM12.6379 7.77178C12.5622 7.72693 12.4854 7.68767 12.4119 7.65299C12.0292 7.47362 11.6286 7.44073 11.5449 7.19858C11.4859 7.02778 11.6526 6.86973 12.0591 6.87571C12.4657 6.88169 12.8424 7.12384 12.944 7.21054V6.43924C12.9141 6.46913 12.783 6.61961 12.663 6.5947C12.4328 6.54686 12.0412 6.48448 11.5928 6.48707C11.0786 6.49006 10.6361 6.88747 10.6212 7.38991C10.6002 8.09245 11.1623 8.28378 11.4792 8.3944C11.5119 8.40576 11.5491 8.41791 11.5896 8.43087C11.8935 8.23316 12.1339 8.08089 12.2746 7.99978C12.3691 7.94537 12.4928 7.86724 12.6379 7.77178Z" fill="white"/>
</g>
<defs>
<clipPath id="clip0_751_435">
<rect width="19.552" height="16" fill="white" transform="translate(0.69873)"/>
</clipPath>
</defs>
</svg>
