<svg width="41" height="16" viewBox="0 0 41 16" fill="none" xmlns="http://www.w3.org/2000/svg">
<g clip-path="url(#clip0_806_1133)">
<g clip-path="url(#clip1_806_1133)">
<path d="M16.5486 7.64728C16.9986 7.64728 17.2456 7.70939 17.4972 7.93039C17.7349 8.13857 17.7768 8.52976 17.7768 8.74691V10.3175H17.0738V10.0535C16.8899 10.2469 16.6636 10.3694 16.3115 10.3787C15.7574 10.3947 15.3211 10.0642 15.3211 9.57044C15.3211 8.8105 16.1492 8.64356 16.9602 8.64356H17.0514C17.0514 8.43351 16.956 8.2392 16.5279 8.2392C16.2373 8.2392 15.9907 8.33002 15.8151 8.48857L15.3896 8.07305C15.6825 7.79142 16.094 7.64728 16.5486 7.64728ZM38.0154 7.64738C38.98 7.64738 39.3675 8.37955 39.3675 9.05977V9.25655H37.4131C37.426 9.52289 37.7338 9.75198 38.0964 9.7653C38.4352 9.77862 38.6207 9.64774 38.7954 9.46246L39.2772 9.80718C38.9847 10.1689 38.6228 10.379 38.11 10.379C37.2977 10.379 36.6341 9.88512 36.6341 9.0135C36.6341 8.31625 37.078 7.64738 38.0154 7.64738ZM36.1962 6.5327V10.3174H35.4737V10.0275C35.3049 10.2179 35.0287 10.379 34.6455 10.379C34.2771 10.379 33.9574 10.2577 33.7213 10.0268C33.4681 9.77936 33.328 9.4189 33.328 9.01379C33.328 8.22164 33.8708 7.64753 34.6204 7.64753C34.9481 7.64753 35.22 7.74604 35.4287 7.93863V6.5327H36.1962ZM23.1707 7.64703C24.0079 7.64703 24.6137 8.22119 24.6137 9.0131C24.6137 9.80481 24.0079 10.379 23.1707 10.379C22.3338 10.379 21.7276 9.80481 21.7276 9.0131C21.7276 8.22119 22.3338 7.64703 23.1707 7.64703ZM19.326 6.88704V7.70939H20.0318V8.32948H19.326V9.40035C19.326 9.61218 19.3866 9.73812 19.622 9.73812C19.7964 9.73812 19.936 9.71691 20.0318 9.68553V10.2722C19.8725 10.3394 19.6672 10.3788 19.4637 10.3788C19.1427 10.3788 18.9259 10.3139 18.7836 10.1753C18.6327 10.0275 18.5684 9.80728 18.5684 9.43666V8.32948H18.046V7.70939H18.5684V6.88704H19.326ZM26.5821 7.64807C26.8793 7.6458 27.0797 7.72271 27.2408 7.88658C27.4561 8.10591 27.4983 8.37062 27.4983 8.6891V10.3177H26.7319V8.99885C26.7319 8.76023 26.7096 8.58294 26.6272 8.48171C26.5614 8.39967 26.4687 8.32622 26.2953 8.33584C26.1518 8.34442 26.039 8.39834 25.9611 8.48368C25.8719 8.57993 25.8205 8.71623 25.8205 8.90028V10.3177H25.0534V7.71008H25.7884V7.99314C25.9495 7.78925 26.2887 7.6498 26.5821 7.64807ZM32.8879 7.70968V10.3175H32.1208V7.70968H32.8879ZM21.2858 7.70968V10.3175H20.5192V7.70968H21.2858ZM12.3883 6.5327L14.0296 9.10229V6.5327H14.8633V10.3174H13.8836L12.1968 7.66139V10.3174H11.3623V6.5327H12.3883ZM28.5515 7.70939L28.9818 9.32556L29.3972 7.70939H30.1921L30.6221 9.32946L31.0521 7.70939H31.8561L31.0049 10.3174H30.3003L29.7858 8.6779L29.3285 10.3174H28.5673L27.7134 7.70939H28.5515ZM17.0514 9.18418H16.9833C16.8648 9.18418 16.5785 9.19794 16.3623 9.2562C16.2132 9.29621 16.0887 9.39177 16.0887 9.52496C16.0887 9.71306 16.2813 9.79569 16.4547 9.79569C16.8283 9.79569 17.0514 9.56418 17.0514 9.26405V9.18418ZM34.7723 8.30797C34.3279 8.30797 34.0956 8.66271 34.0956 9.01379C34.0956 9.3632 34.3279 9.71858 34.7723 9.71858C35.218 9.71858 35.4503 9.3632 35.4503 9.01379C35.4503 8.66271 35.218 8.30797 34.7723 8.30797ZM23.1707 8.30826C22.7256 8.30826 22.4941 8.6629 22.4941 9.0131C22.4941 9.36345 22.7256 9.71779 23.1707 9.71779C23.6146 9.71779 23.8474 9.36345 23.8474 9.0131C23.8474 8.6629 23.6146 8.30826 23.1707 8.30826ZM37.9894 8.23619C37.6682 8.2432 37.4488 8.45561 37.4147 8.72082H38.5614C38.5279 8.43682 38.3683 8.22854 37.9894 8.23619ZM39.9445 6.5289C40.2809 6.5289 40.5549 6.79691 40.5549 7.12566C40.5549 7.45464 40.2809 7.72251 39.9445 7.72251C39.6082 7.72251 39.3343 7.45464 39.3343 7.12566C39.3343 6.79691 39.6082 6.5289 39.9445 6.5289ZM39.9445 6.63476C39.6673 6.63476 39.4426 6.85458 39.4426 7.12566C39.4426 7.39683 39.6673 7.61684 39.9445 7.61684C40.2217 7.61684 40.4468 7.39683 40.4468 7.12566C40.4468 6.85458 40.2217 6.63476 39.9445 6.63476ZM39.9791 6.78078C40.1464 6.78078 40.2249 6.85458 40.2249 6.9861C40.2249 7.10494 40.153 7.16265 40.0578 7.1737L40.2398 7.46273H40.1056L39.9314 7.18347H39.8378V7.46273H39.71V6.78078H39.9791ZM20.9022 6.55445C21.1504 6.55445 21.3562 6.74201 21.3562 6.97372C21.3562 7.20542 21.1504 7.39303 20.9022 7.39303C20.654 7.39303 20.4485 7.20542 20.4485 6.97372C20.4485 6.74201 20.654 6.55445 20.9022 6.55445ZM32.5034 6.55445C32.7517 6.55445 32.9574 6.74201 32.9574 6.97372C32.9574 7.20542 32.7517 7.39303 32.5034 7.39303C32.2563 7.39303 32.0497 7.20542 32.0497 6.97372C32.0497 6.74201 32.2563 6.55445 32.5034 6.55445ZM40.0972 6.98131C40.0972 6.88971 40.0103 6.88492 39.9314 6.88655H39.8378V7.07761L39.9427 7.07757C40.0183 7.07695 40.0972 7.06846 40.0972 6.98131Z" fill="black"/>
<path d="M6.24404 11.0277C6.02787 11.2753 5.74755 11.6275 5.80826 11.8843V11.8846C5.8534 12.0974 6.15705 12.2282 6.15705 12.2282L6.81011 12.578L6.3863 12.9434L6.89486 13.1017C6.89486 13.1017 6.42875 13.5739 6.37514 13.6212C6.24201 13.6434 6.10091 13.6566 5.94936 13.6566C4.87033 13.6566 3.37007 13.0275 2.99891 13.0229C2.55137 13.0175 1.98921 13.2725 1.98921 13.2725L2.28272 12.9585C2.28272 12.9585 1.89853 13.0354 1.5261 13.0041L2.05119 12.6517C1.5899 12.6369 1.18593 12.5012 0.995533 12.3682C0.995533 12.3682 1.84486 12.3018 2.99648 12.3139C3.46258 12.3188 4.25268 12.3649 4.25268 12.3649C3.86209 12.2009 3.49697 11.985 3.3403 11.6054L4.085 11.7163C3.77237 11.5271 3.31844 11.0536 3.23481 10.6871L4.06517 10.9747C3.91778 10.8167 3.40421 10.3416 3.3119 9.79094L3.96906 10.1994C3.79687 10.0281 3.33 9.11794 3.40943 8.85181L4.02196 9.25874C3.7287 8.90052 3.38554 7.95112 3.61915 7.58147C3.80534 8.29686 4.21996 8.55733 4.21996 8.55733C3.94771 8.16784 3.36069 6.78791 3.92128 6.18029C4.06862 7.55647 4.66066 8.02107 4.66066 8.02107C4.17061 7.2494 3.61225 4.88049 4.65371 4.40135C4.44977 5.92344 4.94199 6.75078 4.94199 6.75078C4.63134 5.3485 4.64153 3.36161 5.69623 3.18002C5.17834 4.678 5.54625 5.8332 5.54625 5.8332C5.47073 2.32938 6.61327 2.3884 6.61327 2.3884C6.61327 2.3884 6.42541 3.38341 6.42541 5.15653V10.2772C6.42541 10.6309 6.39477 10.8416 6.24404 11.0277ZM6.92224 12.2672C7.38186 12.3022 7.70843 12.3325 8.03638 12.3732C8.16033 12.3886 8.20963 12.5303 8.22601 12.5966C8.06894 12.5581 7.82072 12.5479 7.82072 12.5479L7.80708 12.6949C7.80708 12.6949 8.01944 12.635 8.25193 12.6323C8.25193 12.6323 8.72874 12.6303 8.70612 12.9484C8.57592 12.8595 8.3097 12.8949 8.23448 12.9071C7.99509 12.9461 7.76722 13.0556 7.50348 13.1933C7.26211 13.3193 7.00187 13.4548 6.69609 13.5464C6.82989 13.4178 7.17995 13.0363 7.17995 13.0363L6.71359 12.8758L7.0954 12.5466L6.50864 12.2328C6.65506 12.2452 6.79362 12.2576 6.92224 12.2672ZM6.97205 11.7501H9.09416V4.83003H7.15205V9.14159L6.58847 8.59641V5.15929C6.57842 3.13948 6.82233 2.18176 6.82233 2.18176C6.16497 2.18176 5.82383 2.79714 5.74781 2.97898C5.37868 3.01927 5.07609 3.22937 4.87352 3.63776C4.7589 3.86891 4.70174 4.09289 4.6813 4.20243C3.90338 4.37981 3.83602 5.74866 3.8871 5.99459L2.67888 4.83003H0.562346V11.7501H2.50431V7.56794C2.50431 7.56794 3.44326 8.44689 3.44326 8.44669C3.52867 8.69888 3.61159 8.7998 3.61159 8.7998L3.24292 8.48738C3.17633 9.16644 3.36956 9.51469 3.54901 9.7719L3.10086 9.39649C3.06601 10.0705 3.39548 10.4841 3.59729 10.6618L3.00475 10.3745C2.96417 10.7779 3.37377 11.3688 3.61159 11.4829L3.11171 11.4093C3.2204 11.9656 3.61159 12.1655 3.61159 12.1655C3.61159 12.1655 2.75775 12.1479 2.36488 12.1479C1.27205 12.1479 0.554688 12.25 0.554688 12.25C0.554688 12.25 1.03834 12.7251 1.65624 12.747L1.1059 13.0822C1.50556 13.2112 1.88539 13.1664 1.88539 13.1664L1.56754 13.542C1.56754 13.542 2.56796 13.162 2.99029 13.1908C3.3265 13.2138 4.89563 13.8182 5.94936 13.8182C6.65623 13.8182 7.16843 13.5511 7.57996 13.3362C7.83097 13.2051 8.04764 13.0991 8.26111 13.0668C8.64302 13.0088 8.81491 13.1462 8.81491 13.1462C8.85391 12.9874 8.97198 12.5867 8.35281 12.4887C8.32831 12.3797 8.2211 12.2373 8.06088 12.2133C7.72821 12.1635 6.32803 12.0568 6.287 12.0545C6.16694 12.0473 5.76302 11.9702 6.13454 11.4446C6.16253 11.405 6.35039 11.1713 6.35039 11.1713L6.97205 11.7501Z" fill="#1C57A5"/>
<path d="M5.80834 11.8843V11.8846C5.85348 12.0974 6.15713 12.2282 6.15713 12.2282L6.81018 12.578L6.38638 12.9434L6.89493 13.1017C6.89493 13.1017 6.42883 13.5739 6.37522 13.6212C6.24208 13.6434 6.10098 13.6566 5.94944 13.6566C4.8704 13.6566 3.37014 13.0275 2.99899 13.0229C2.55145 13.0175 1.98928 13.2725 1.98928 13.2725L2.28279 12.9585C2.28279 12.9585 1.8986 13.0354 1.52617 13.0041L2.05126 12.6517C1.58998 12.6369 1.186 12.5012 0.995605 12.3682C0.995605 12.3682 1.84494 12.3018 2.99655 12.3139C3.46266 12.3188 4.25275 12.3649 4.25275 12.3649C3.86217 12.2009 3.49704 11.985 3.34037 11.6054L4.08507 11.7163C3.77244 11.5271 3.31851 11.0536 3.23488 10.6871L4.06524 10.9747C3.91785 10.8167 3.40428 10.3416 3.31197 9.79094L3.96913 10.1994C3.79694 10.0281 3.33008 9.11794 3.4095 8.85182L4.02203 9.25874C3.72878 8.90052 3.38561 7.95112 3.61922 7.58147C3.80541 8.29687 4.22004 8.55733 4.22004 8.55733C3.94778 8.16784 3.36076 6.78791 3.92135 6.1803C4.06869 7.55647 4.66073 8.02107 4.66073 8.02107C4.17069 7.24941 3.61233 4.88049 4.65378 4.40136C4.44984 5.92344 4.94206 6.75078 4.94206 6.75078C4.63141 5.3485 4.64161 3.36161 5.6963 3.18002C5.17841 4.678 5.54632 5.8332 5.54632 5.8332C5.4708 2.32938 6.61334 2.3884 6.61334 2.3884C6.61334 2.3884 6.42548 3.38341 6.42548 5.15654V10.2772C6.42548 10.6309 6.39485 10.8416 6.24411 11.0277C6.02795 11.2753 5.74763 11.6275 5.80834 11.8843Z" fill="#FFFFFE"/>
<path d="M6.9224 12.2672C7.38201 12.3022 7.70859 12.3325 8.03653 12.3732C8.16049 12.3886 8.20979 12.5303 8.22617 12.5967C8.06909 12.5581 7.82088 12.5479 7.82088 12.5479L7.80723 12.6949C7.80723 12.6949 8.01959 12.635 8.25209 12.6323C8.25209 12.6323 8.72889 12.6303 8.70627 12.9484C8.57608 12.8595 8.30985 12.8949 8.23464 12.9071C7.99525 12.9461 7.76737 13.0556 7.50363 13.1933C7.26226 13.3193 7.00203 13.4548 6.69625 13.5464C6.83004 13.4178 7.1801 13.0363 7.1801 13.0363L6.71374 12.8758L7.09555 12.5466L6.50879 12.2328C6.65521 12.2452 6.79378 12.2576 6.9224 12.2672Z" fill="#FFFFFE"/>
</g>
</g>
<defs>
<clipPath id="clip0_806_1133">
<rect width="40" height="16" fill="white" transform="translate(0.554688)"/>
</clipPath>
<clipPath id="clip1_806_1133">
<rect width="40" height="11.6365" fill="white" transform="translate(0.554688 2.18176)"/>
</clipPath>
</defs>
</svg>
