<svg width="41" height="16" viewBox="0 0 41 16" fill="none" xmlns="http://www.w3.org/2000/svg">
<g clip-path="url(#clip0_740_2)">
<g clip-path="url(#clip1_740_2)">
<path d="M38.2307 7.74078L40.3701 13.4054C39.7395 13.3152 39.1092 13.2024 38.4671 13.1011L37.262 9.97069L36.0234 12.8424C35.4154 12.741 34.8182 12.7069 34.2103 12.6282L36.3838 7.67322L34.4129 2.5946H36.2375L37.341 5.43216L38.5235 2.5946H40.3701L38.2307 7.74078ZM32.9717 2.5946H31.3163V12.4144C31.8567 12.4482 32.4198 12.4705 32.9717 12.538V2.5946ZM29.8859 12.3016C28.3771 12.2003 26.8679 12.1104 25.3254 12.0763V2.5946H27.0142V10.4773C27.9829 10.5 28.9513 10.5787 29.8859 10.6236V12.3016ZM23.5234 6.43464V8.1238H21.2151V11.9638H19.5483V2.5946H24.278V4.28376H21.2151V6.43464H23.5234ZM16.7104 4.28376V12.054C16.1473 12.054 15.5731 12.054 15.0212 12.0763V4.28376H13.2756V2.5946H18.4671V4.28376H16.7104ZM11.4514 8.21365C10.7083 8.21365 9.82978 8.21365 9.19917 8.24776V10.759C10.1902 10.6911 11.1812 10.6124 12.1833 10.5787V12.2003L7.51002 12.5722V2.5946H12.1833V4.28376H9.19917V6.55826C9.85241 6.55826 10.8546 6.52449 11.4514 6.52449V8.21365ZM2.0933 7.26791V13.1686C1.48532 13.2365 0.94456 13.3152 0.370361 13.4054V2.5946H1.98082L4.17662 8.73211V2.5946H5.86578V12.7069C5.26895 12.8086 4.66098 12.8424 4.01889 12.9322L2.0933 7.26791Z" fill="#E50914"/>
</g>
</g>
<defs>
<clipPath id="clip0_740_2">
<rect width="40" height="16" fill="white" transform="translate(0.370361)"/>
</clipPath>
<clipPath id="clip1_740_2">
<rect width="40" height="10.8108" fill="white" transform="translate(0.370361 2.5946)"/>
</clipPath>
</defs>
</svg>
