<svg width="121" height="64" viewBox="0 0 121 64" fill="none" xmlns="http://www.w3.org/2000/svg">
<g clip-path="url(#clip0_740_2)">
<g clip-path="url(#clip1_740_2)">
<path d="M114.434 31.2223L120.852 48.2162C118.96 47.9457 117.069 47.6072 115.143 47.3032L111.528 37.9121L107.812 46.5271C105.988 46.2231 104.196 46.1207 102.372 45.8846L108.893 31.0196L102.98 15.7838H108.454L111.765 24.2964L115.312 15.7838H120.852L114.434 31.2223ZM98.6567 15.7838H93.6906V45.2432C95.3118 45.3445 97.001 45.4114 98.6567 45.6141V15.7838ZM89.3993 44.9048C84.8729 44.6008 80.3455 44.3313 75.7178 44.2289V15.7838H80.7843V39.432C83.6904 39.4999 86.5955 39.736 89.3993 39.8707V44.9048ZM70.3119 27.3039V32.3714H63.3871V43.8915H58.3865V15.7838H72.5756V20.8513H63.3871V27.3039H70.3119ZM49.8728 20.8513V44.162C48.1836 44.162 46.461 44.162 44.8053 44.2289V20.8513H39.5686V15.7838H55.1429V20.8513H49.8728ZM34.0958 32.6409C31.8666 32.6409 29.231 32.6409 27.3392 32.7432V40.2771C30.3122 40.0734 33.2852 39.8373 36.2916 39.736V44.6008L22.2717 45.7164V15.7838H36.2916V20.8513H27.3392V27.6748C29.2989 27.6748 32.3054 27.5734 34.0958 27.5734V32.6409ZM6.02158 29.8037V47.5059C4.19766 47.7096 2.57538 47.9457 0.852783 48.2162V15.7838H5.68416L12.2716 34.1963V15.7838H17.339V46.1207C15.5486 46.4257 13.7246 46.5271 11.7984 46.7966L6.02158 29.8037Z" fill="#E50914"/>
</g>
</g>
<defs>
<clipPath id="clip0_740_2">
<rect width="120" height="64" fill="white" transform="translate(0.852783)"/>
</clipPath>
<clipPath id="clip1_740_2">
<rect width="120" height="32.4324" fill="white" transform="translate(0.852783 15.7838)"/>
</clipPath>
</defs>
</svg>
