<svg width="34" height="16" viewBox="0 0 34 16" fill="none" xmlns="http://www.w3.org/2000/svg">
<g clip-path="url(#clip0_879_3916)">
<path d="M33.3507 1.94C29.1704 2.92573 28.9878 0.508466 22.7008 0.0652284C14.2383 -0.53147 7.12702 3.14971 1.44405 3.6214C0.209425 3.72392 0.369549 4.74984 1.25679 4.92398C3.39871 5.42309 5.60893 5.35965 7.63189 5.08882C7.56394 5.25158 7.49571 5.50235 7.7217 5.69454C8.52288 6.37453 11.7437 6.43277 13.1576 6.35149C13.6377 6.32414 14.6626 6.22746 14.6626 6.22746C14.3703 6.25515 13.9136 7.14447 14.8793 7.3949C20.8473 9.06318 23.6551 11.7572 26.8785 16C28.1884 15.8329 29.4218 14.2592 28.8959 13.0579L29.1573 12.4132L30.1221 11.9671L29.8456 9.81535L31.3164 9.1237C31.3164 9.1237 33.6071 2.97695 33.7412 2.52934C33.8754 2.08173 33.5978 1.8817 33.3507 1.93993" fill="#FFFFFE"/>
<path d="M16.791 2.78595C12.6532 3.02999 7.68864 5.36486 1.36719 4.32409C6.96999 3.56901 11.2413 1.71867 16.4512 0.981903L16.791 2.78595H16.791ZM17.237 5.20002C14.9483 5.46939 12.2931 6.10829 8.4624 5.38756C11.7643 5.29788 14.2355 4.19451 16.9558 3.6523L17.237 5.20009V5.20002Z" fill="#C60C30"/>
<path d="M17.4814 5.17439C19.1587 4.99441 20.638 5.05146 22.2506 6.03317C18.8874 5.66885 17.2407 6.60682 15.1445 6.81532C22.5501 8.75562 25.2613 12.9018 27.0977 15.1994C28.3813 14.6549 28.4507 13.5413 28.1237 13.1438L28.4542 12.4365L28.4694 11.9822L29.3542 11.5689L29.0743 9.36772L30.7312 8.6901L32.9265 2.69007C29.2069 3.46064 28.0018 1.05906 22.7099 0.731456C20.5542 0.597777 18.613 0.696821 16.7904 0.935584L17.0876 2.77225C18.3056 2.73033 19.4521 2.88497 20.54 3.37915C19.3439 3.30517 18.2677 3.40421 17.2177 3.59869L17.4814 5.17439Z" fill="#002244"/>
<path d="M23.1943 10.2374C25.196 11.6369 26.2241 13.1875 27.2674 14.5449C27.7979 14.3247 27.9645 13.71 27.7898 13.4927L27.2846 12.8719L27.8592 12.9057L28.1228 12.4482L27.4086 12.406L26.6039 12.551L27.4199 11.993L28.0412 12.0294L28.0643 11.6762L27.4296 11.3727L27.6477 11.1345L28.8217 11.2076L28.4842 8.59725C28.0202 8.54076 27.63 8.78361 27.4614 9.45368L25.3804 9.33138C25.6732 8.6686 26.1294 8.37043 26.995 8.48051C26.5094 7.80142 24.1429 7.73854 23.8087 8.80402L25.6458 10.3073L25.8835 11.6812L25.1287 10.5874C24.4501 10.0006 23.7372 9.58944 23.1945 10.2374" fill="#B0B7BC"/>
<path d="M29.352 3.50549L29.4998 4.81654L30.978 5.37041L29.5914 5.71724L29.7282 7.48485L28.5292 5.99126L26.7363 6.41292L27.8441 5.12464L26.9306 3.91611L28.4609 4.44055L29.352 3.50549Z" fill="#FFFFFE"/>
</g>
<defs>
<clipPath id="clip0_879_3916">
<rect width="33.2215" height="16" fill="white" transform="translate(0.554688)"/>
</clipPath>
</defs>
</svg>
