<svg width="18" height="16" viewBox="0 0 18 16" fill="none" xmlns="http://www.w3.org/2000/svg">
<g clip-path="url(#clip0_2_7430)">
<path d="M15.3625 14.0693C15.1554 14.0693 14.9873 14.2372 14.9873 14.4443C14.9873 14.6513 15.1554 14.8194 15.3625 14.8194C15.5695 14.8194 15.7373 14.6513 15.7373 14.4444C15.7373 14.2372 15.5695 14.0693 15.3625 14.0693ZM15.3625 14.7389C15.3042 14.739 15.2472 14.7218 15.1987 14.6894C15.1502 14.657 15.1125 14.611 15.0902 14.5571C15.0754 14.5214 15.0678 14.4831 15.0679 14.4444C15.0679 14.2816 15.1995 14.15 15.3625 14.15C15.5252 14.15 15.657 14.2816 15.657 14.4444C15.657 14.6072 15.5252 14.7389 15.3625 14.7389ZM15.5165 14.3574C15.5165 14.3237 15.5031 14.2914 15.4792 14.2676C15.4554 14.2437 15.423 14.2304 15.3893 14.2304H15.2086V14.6584H15.2889V14.4846H15.3466L15.4277 14.6584H15.5165L15.4318 14.4772C15.4566 14.4684 15.478 14.4522 15.4932 14.4307C15.5083 14.4093 15.5165 14.3837 15.5165 14.3574ZM15.3893 14.4042H15.2889V14.3106H15.3893C15.4151 14.3106 15.4362 14.3315 15.4362 14.3574C15.4362 14.3699 15.4312 14.3817 15.4224 14.3905C15.4136 14.3993 15.4017 14.4042 15.3893 14.4042Z" fill="#00468B"/>
<path d="M9.12158 0C4.54158 0 0.829102 3.58177 0.829102 8.00017C0.829102 12.4184 4.5416 16 9.1216 16C13.7014 16 17.414 12.4184 17.414 8.00017C17.414 3.58175 13.7014 0 9.12155 0H9.12158Z" fill="#00468B"/>
<path d="M9.12117 0.589355C4.86722 0.589355 1.41895 3.90726 1.41895 8.00011C1.41895 12.0927 4.86722 15.4106 9.1212 15.4106C13.3748 15.4106 16.8233 12.0927 16.8233 8.00011C16.8233 3.90726 13.3748 0.589355 9.12117 0.589355Z" fill="#F26924"/>
<path d="M3.49753 9.76097V9.27722L3.01953 8.85742V9.79117C3.16536 9.75222 3.34501 9.802 3.49753 9.76097Z" fill="#00468B"/>
<path d="M16.3342 7.56021C15.6559 7.79813 14.8113 8.07566 14.1568 8.30051C13.9364 8.26463 13.7856 8.38806 13.6292 8.49156C13.396 8.59233 13.1021 8.55191 12.872 8.64981C12.6575 8.82711 12.3399 8.90201 12.0766 8.78966C12.0058 8.70906 11.9127 8.61141 11.8014 8.63698C11.6264 8.65433 11.5898 8.97153 11.3732 8.80621C11.2396 8.87663 11.1227 8.97451 10.9749 9.01016L10.7525 9.06521L10.6688 9.24361L10.5925 9.40571L10.5414 9.51458L10.4653 9.67671L10.4142 9.78573L10.3377 9.94786L10.2865 10.0568L10.2105 10.219L9.59793 11.5232C9.57899 11.5635 9.5512 11.599 9.51663 11.6271C9.48207 11.6552 9.44161 11.6751 9.39828 11.6854L8.4108 11.9207C8.41543 11.9254 8.42048 11.9297 8.42345 11.9356L9.07685 13.2924V12.0537C9.07682 12.0449 9.07864 12.0363 9.0822 12.0283C9.08576 12.0204 9.09098 12.0133 9.0975 12.0075C9.10402 12.0017 9.1117 11.9973 9.12003 11.9947C9.12835 11.9921 9.13714 11.9913 9.1458 11.9923L9.50038 12.0342C9.5154 12.0359 9.52927 12.043 9.53932 12.0543C9.54938 12.0656 9.55491 12.0802 9.55485 12.0953V14.3357C9.55485 14.3682 9.52948 14.3953 9.49673 14.3972L9.10143 14.4207C9.08949 14.4214 9.0776 14.4186 9.06721 14.4127C9.05683 14.4067 9.04841 14.3979 9.04298 14.3872L8.26985 12.8798V14.3157C8.26987 14.3246 8.26797 14.3333 8.26431 14.3413C8.26064 14.3494 8.25528 14.3565 8.2486 14.3623C8.242 14.3681 8.23423 14.3724 8.22582 14.3749C8.21741 14.3774 8.20856 14.3782 8.19985 14.377L7.84528 14.3284C7.83047 14.3264 7.81689 14.319 7.80709 14.3077C7.79728 14.2964 7.7919 14.282 7.79195 14.267V12.0681L7.37795 12.1668L7.70595 14.2448C7.70726 14.2531 7.70641 14.2616 7.70349 14.2695C7.70057 14.2773 7.69568 14.2843 7.68928 14.2898C7.68287 14.2953 7.67513 14.2991 7.66681 14.3008C7.65849 14.3024 7.64988 14.3019 7.64183 14.2993L7.24443 14.1699C7.23576 14.1671 7.22804 14.162 7.22214 14.155C7.21624 14.1481 7.21239 14.1396 7.21103 14.1306L7.13605 13.6598L6.61605 13.4903L6.51803 13.8781C6.51632 13.8846 6.51332 13.8907 6.5092 13.8961C6.50508 13.9014 6.49993 13.9059 6.49405 13.9092C6.48812 13.9124 6.4816 13.9143 6.47488 13.915C6.46817 13.9156 6.46139 13.9149 6.45495 13.9129L6.07475 13.7895C6.06282 13.7856 6.05281 13.7773 6.04675 13.7664C6.0407 13.7554 6.03906 13.7425 6.04218 13.7304L6.38213 12.4042L6.05278 12.4828C6.03024 12.4881 6.00662 12.4862 5.98519 12.4775C5.96375 12.4687 5.94556 12.4536 5.93313 12.434C5.92488 12.421 5.91942 12.4064 5.9171 12.3912L5.71473 11.0632C5.71253 11.0487 5.71324 11.0338 5.71682 11.0195C5.72039 11.0053 5.72676 10.9919 5.73555 10.9801C5.74436 10.9683 5.75543 10.9584 5.7681 10.9509C5.78077 10.9434 5.7948 10.9385 5.80938 10.9365L9.12895 10.4795C9.17699 10.4729 9.22268 10.4547 9.26199 10.4263C9.3013 10.3979 9.33303 10.3603 9.35438 10.3168L9.56478 9.88966L9.64395 9.72896L9.69705 9.62106L9.77605 9.46026L9.8293 9.35256L9.90825 9.19183L9.9295 9.14883C9.77508 9.13908 9.5484 9.25573 9.433 9.28163C9.25765 9.33478 8.9923 9.24508 8.92838 9.47638C8.8258 9.55243 8.65658 9.57426 8.53595 9.51573C8.3931 9.29651 8.1437 9.47921 7.97853 9.48201C7.71555 9.52201 7.50658 9.30271 7.26128 9.42796C6.9441 9.61908 6.56548 9.26163 6.29853 9.56336C6.1284 9.57626 5.96878 9.49566 5.7859 9.50838C5.5179 9.50756 5.28658 9.59188 5.03685 9.63661C4.7547 9.82228 4.3669 9.73266 4.04185 9.70868C3.87825 9.77473 3.6757 9.75638 3.49823 9.76093V11.5437C3.49823 11.649 3.44383 11.6785 3.359 11.5563L3.02023 11.0696V9.79111C2.90953 9.73366 2.81645 9.87526 2.71395 9.91911C2.61143 9.96768 2.5214 9.88346 2.47808 9.79936C2.47808 9.75441 2.44675 9.71416 2.40195 9.69141C2.3488 9.68298 2.2562 9.71348 2.17528 9.74473C2.14136 9.62026 2.11117 9.49479 2.08475 9.36851C2.15288 9.32568 2.23603 9.26801 2.21213 9.19118C2.16693 9.09793 2.04365 9.10686 2.012 8.99451C2.0254 8.88291 2.05813 8.73651 2.1909 8.71006C2.28935 8.61688 2.2767 8.42938 2.24628 8.30051C2.15733 8.18436 2.03703 8.08996 2.08575 7.92561C2.08575 7.88148 2.0407 7.82756 2.08615 7.78723C2.1937 7.74341 2.30043 7.84493 2.3764 7.91718C2.44765 7.93181 2.4661 7.85031 2.4961 7.81021C2.5229 7.75341 2.47843 7.68578 2.42088 7.67206C2.37193 7.68488 2.32638 7.64933 2.3244 7.60461C2.34235 7.52946 2.36733 7.45803 2.4532 7.43706C2.5458 7.40488 2.63608 7.44058 2.71113 7.49011C2.79983 7.57056 2.79058 7.69968 2.88028 7.76706C2.9956 7.66026 2.90778 7.44151 3.04213 7.33933C3.23375 7.25501 3.42 7.11241 3.65255 7.14878C3.7153 7.26973 3.67323 7.49303 3.87363 7.50203C3.9285 7.45348 3.93288 7.32808 4.03558 7.37761C4.1255 7.41423 4.11973 7.56963 4.2266 7.54766C4.33458 7.34736 4.12973 7.18183 4.156 6.99071C4.29975 6.89656 4.49033 6.97773 4.59243 7.08941C4.63815 7.18276 4.45875 7.23583 4.58275 7.31278C4.76158 7.24583 4.84175 7.45153 4.9994 7.41141C5.10083 7.22483 5.3189 7.20258 5.50128 7.25221C5.76945 7.24863 5.92495 7.65033 6.2052 7.49111C6.35805 7.38843 6.65493 7.53121 6.70138 7.28683C6.68313 7.18011 6.75908 7.08116 6.84978 7.05206C7.00048 7.00608 7.14233 7.31881 7.26815 7.08313C7.50278 7.17738 7.77938 7.17351 8.03748 7.21483C8.43453 7.42523 8.95673 7.39563 9.40488 7.40951C9.7945 7.61651 10.3484 7.32138 10.7943 7.39226L11.0029 6.96831L9.25568 3.20506V6.70403C9.25565 6.73348 9.24395 6.76171 9.22313 6.78254C9.20232 6.80337 9.1741 6.81509 9.14465 6.81513H7.44565C7.42648 6.81514 7.40762 6.81017 7.39093 6.80073C7.37424 6.79128 7.36028 6.77768 7.3504 6.76123L6.23495 4.90086V6.70403C6.23493 6.73348 6.22324 6.76171 6.20243 6.78254C6.18162 6.80336 6.1534 6.81509 6.12395 6.81513H4.60938C4.59478 6.81516 4.58033 6.8123 4.56685 6.80671C4.55336 6.80113 4.54111 6.79294 4.5308 6.78261C4.50998 6.76176 4.49827 6.7335 4.49825 6.70403V2.66943C2.9068 3.94178 1.89355 5.85721 1.89355 8.00033C1.89355 11.8308 5.1295 14.936 9.1219 14.936C13.114 14.936 16.3501 11.8308 16.3501 8.00033C16.3501 7.85233 16.3438 7.70583 16.3342 7.56018V7.56021ZM4.89748 11.2815C4.89748 11.365 4.84538 11.4342 4.7389 11.3383L4.48735 11.1121C4.4341 11.0638 4.41955 11.0212 4.41955 10.9651V10.8684C4.41955 10.8107 4.39658 10.7622 4.36203 10.7297L4.22803 10.6093C4.14568 10.535 4.12725 10.6379 4.12725 10.6379V10.7089C4.12725 10.7892 4.1743 10.8517 4.1743 10.8517L4.7003 11.536C4.8068 11.6749 4.89748 11.8805 4.89748 12.0841V12.4946C4.89748 12.8521 4.74743 13.0028 4.57383 12.848L3.85908 12.2042C3.71318 12.0727 3.64933 11.8771 3.64933 11.78V11.4075C3.64933 11.2859 3.67315 11.2481 3.72043 11.2935L4.0326 11.5788C4.08013 11.6173 4.12725 11.6961 4.12725 11.7408V11.8231C4.12725 11.8892 4.12238 11.9657 4.17065 12.0028L4.30573 12.1182C4.35548 12.163 4.41958 12.1696 4.41958 12.0969V12.0065C4.41958 11.9509 4.40633 11.9053 4.37105 11.8597L3.7463 11.0438C3.69075 10.9712 3.64935 10.8986 3.64935 10.7754V10.1332C3.64935 9.97876 3.8355 9.76771 4.1027 10.0084L4.7929 10.6296C4.83605 10.6686 4.89748 10.7537 4.89748 10.8956V11.2815ZM5.98935 13.6538C5.98934 13.6647 5.98644 13.6754 5.98096 13.6848C5.97548 13.6942 5.9676 13.702 5.95814 13.7074C5.94867 13.7128 5.93794 13.7156 5.92705 13.7155C5.91615 13.7154 5.90548 13.7124 5.8961 13.7069L5.1329 13.2543C5.12369 13.2488 5.11607 13.241 5.11078 13.2316C5.10549 13.2223 5.10271 13.2117 5.10273 13.201V10.9686C5.10273 10.9463 5.11455 10.9261 5.13383 10.9151C5.14328 10.9096 5.15402 10.9068 5.16493 10.9069C5.17585 10.9069 5.18654 10.9099 5.1959 10.9156L5.5503 11.1257C5.55954 11.1311 5.56719 11.1389 5.5725 11.1482C5.5778 11.1575 5.58058 11.168 5.58055 11.1787V13.066L5.95918 13.2902C5.96839 13.2957 5.97601 13.3036 5.9813 13.3129C5.98659 13.3223 5.98936 13.3328 5.98935 13.3436V13.6538ZM11.3446 13.753C11.3446 13.8143 11.3446 14.102 10.8666 14.1872L9.898 14.3603C9.88911 14.3618 9.87999 14.3614 9.87127 14.359C9.86255 14.3567 9.85445 14.3525 9.8475 14.3467C9.84062 14.3409 9.83508 14.3337 9.83126 14.3256C9.82743 14.3174 9.82542 14.3085 9.82535 14.2995V12.0706C9.82535 12.0409 9.84618 12.0157 9.8751 12.0099L10.8666 11.8124C11.3446 11.7174 11.3446 12.0037 11.3446 12.0037V13.753ZM10.5344 10.5173V9.95373C10.5344 9.76416 10.9893 9.61041 11.5505 9.61041C12.1116 9.61041 12.5666 9.76416 12.5666 9.95371V10.5173C12.5666 10.7069 12.1116 10.8604 11.5505 10.8604C10.9893 10.8604 10.5344 10.7069 10.5344 10.5173ZM12.5966 11.5163C12.5966 11.535 12.5859 11.5523 12.5689 11.5606L12.1095 11.7854C12.1012 11.7894 12.0942 11.7957 12.0893 11.8036C12.0845 11.8114 12.082 11.8205 12.082 11.8297V12.2837C12.082 12.2963 12.0869 12.3084 12.0956 12.3176C12.1043 12.3267 12.1161 12.3322 12.1287 12.3329C12.1371 12.3333 12.1454 12.3316 12.1529 12.3279L12.5254 12.1457C12.5329 12.142 12.5412 12.1402 12.5496 12.1406C12.5579 12.141 12.566 12.1436 12.5732 12.148C12.5878 12.1572 12.5967 12.1729 12.5967 12.1901V12.5089C12.5967 12.5185 12.5939 12.5278 12.5887 12.5358C12.5835 12.5438 12.5761 12.5501 12.5674 12.5539L12.1111 12.7595C12.1024 12.7634 12.095 12.7697 12.0898 12.7777C12.0847 12.7857 12.082 12.795 12.082 12.8045V13.2293C12.082 13.2458 12.0905 13.2615 12.1045 13.2706C12.1186 13.2799 12.1361 13.2811 12.1516 13.2741L12.527 13.1051C12.5345 13.1017 12.5428 13.1003 12.551 13.101C12.5592 13.1017 12.5671 13.1044 12.574 13.109C12.5881 13.118 12.5966 13.1335 12.5966 13.1504V13.4674C12.5966 13.4869 12.5851 13.5045 12.5674 13.5124L11.6737 13.9147C11.6662 13.9181 11.658 13.9196 11.6497 13.919C11.6415 13.9184 11.6335 13.9157 11.6266 13.9112C11.6126 13.9022 11.6041 13.8865 11.6041 13.8696V11.6246C11.6041 11.6059 11.6146 11.5888 11.6317 11.5804L12.5254 11.1429C12.5368 11.1374 12.5498 11.1364 12.5619 11.1402C12.574 11.144 12.5842 11.1523 12.5904 11.1634C12.5944 11.1707 12.5966 11.1789 12.5966 11.1873V11.5163ZM14.0552 12.4892L13.7774 12.6777C13.7557 12.6923 13.7264 12.6877 13.7105 12.6667L13.2945 12.1226L13.2162 12.177V13.0328C13.2162 13.0491 13.2079 13.0645 13.1944 13.0737L12.8152 13.331C12.8077 13.3361 12.7991 13.3391 12.7901 13.3396C12.7811 13.3401 12.7721 13.3381 12.7642 13.3339C12.7563 13.3296 12.7497 13.3233 12.7451 13.3157C12.7405 13.308 12.7381 13.2992 12.738 13.2902V11.0705C12.738 11.0541 12.7459 11.039 12.7594 11.0297L13.5046 10.5155C13.7323 10.3585 13.9317 10.3876 13.9317 10.6993V11.2877C13.9317 11.6675 13.6521 11.876 13.6521 11.876L14.0664 12.4184C14.0705 12.4237 14.0735 12.4298 14.0752 12.4363C14.0768 12.4428 14.0771 12.4496 14.0761 12.4562C14.075 12.4629 14.0726 12.4692 14.069 12.4749C14.0654 12.4805 14.0607 12.4854 14.0552 12.4892V12.4892ZM15.0795 9.68101C15.0795 9.73266 15.0743 9.80838 15.0269 9.85708L14.7484 10.1451C14.7164 10.1783 14.6964 10.157 14.6964 10.1213V9.94636C14.6964 9.86006 14.6628 9.85988 14.6158 9.90768L14.5713 9.95356C14.5062 10.0209 14.5062 10.1177 14.5062 10.1542V10.2759C14.5062 10.3519 14.5277 10.407 14.6073 10.421L14.8294 10.4597C14.9345 10.478 15.0795 10.548 15.0795 10.7181C15.0795 10.8603 15.0795 11.1075 14.8926 11.3545L14.4375 11.9555C14.2488 12.2039 14.0637 12.1341 14.0637 11.7759V11.5763C14.0637 11.5128 14.0801 11.4742 14.1163 11.4412L14.4198 11.1288C14.4718 11.0763 14.5062 11.0762 14.5062 11.1586V11.2573C14.5062 11.3731 14.5965 11.2806 14.6356 11.2418C14.6748 11.2027 14.6964 11.1797 14.6964 11.0866V11.0288C14.6964 10.9677 14.6489 10.9441 14.5639 10.9251L14.3008 10.866C14.0958 10.823 14.0637 10.6811 14.0637 10.5227V10.2968C14.0637 10.127 14.0915 9.97983 14.2149 9.84106L14.6964 9.30991C14.8721 9.11556 15.0795 9.08671 15.0795 9.38916V9.68101Z" fill="#00468B"/>
<path d="M7.05971 13.182L6.91859 12.2936L6.72134 13.0718L7.05971 13.182ZM13.3925 11.0708L13.237 11.1781C13.2304 11.1827 13.225 11.1888 13.2213 11.1959C13.2176 11.2029 13.2157 11.2108 13.2158 11.2188V11.6133C13.2158 11.6315 13.2258 11.6485 13.2419 11.657C13.2582 11.6655 13.2779 11.6642 13.2929 11.654L13.4002 11.5797C13.4576 11.5402 13.5042 11.4464 13.5042 11.366V11.136C13.5042 11.0698 13.4547 11.0278 13.3925 11.0708ZM10.6584 12.3084L10.3031 12.3791V13.8785L10.6803 13.8111C10.8662 13.7777 10.8662 13.5675 10.8662 13.5675V12.4603C10.8662 12.4603 10.8662 12.2669 10.6584 12.3084V12.3084ZM7.58814 1.66811C7.58813 1.6535 7.59101 1.63904 7.5966 1.62554C7.60219 1.61204 7.61038 1.59977 7.62071 1.58944C7.63105 1.57911 7.64331 1.57092 7.65681 1.56533C7.67031 1.55974 7.68478 1.55686 7.69939 1.55686H10.367C10.3882 1.55687 10.4089 1.56293 10.4268 1.57436C10.4446 1.58578 10.4588 1.60207 10.4677 1.62131L12.0047 4.93229L13.2852 2.33211C12.108 1.53419 10.6723 1.06396 9.12154 1.06396C8.16401 1.06396 7.25054 1.24436 6.41406 1.56884L7.58814 3.83652V1.66811ZM12.6629 6.53117C12.9689 6.43802 13.2501 6.27324 13.5058 6.04284C13.734 5.96779 13.9997 5.92389 14.2451 5.95959L14.268 5.99159C14.2508 6.08494 14.1337 6.15634 14.0531 6.20489C13.8798 6.20834 13.6699 6.17819 13.5356 6.31086C13.3482 6.50646 13.112 6.63914 12.9368 6.83037C12.9505 6.89244 13.0214 6.94194 12.9813 7.01221C12.8476 7.10661 12.6337 7.03529 12.5626 7.22617C12.5034 7.59224 12.0449 7.30866 11.8654 7.54541C11.7779 7.66034 11.518 7.79989 11.3217 7.85191L11.1336 8.25209C11.3522 8.32946 11.6541 8.44569 11.8547 8.41429C12.323 8.26432 12.5034 7.55172 13.0508 7.59397C13.3589 7.64802 13.6306 7.55471 13.8451 7.34994C14.0549 7.27031 14.0712 7.60852 14.2644 7.57297C14.2812 7.44939 14.292 7.29687 14.4337 7.24452C14.5009 7.21814 14.6087 7.22717 14.6174 7.31594C14.4694 7.52534 14.7905 7.59314 14.745 7.78981C14.7709 7.87396 14.8687 7.87397 14.9365 7.85289C15.0485 7.63894 15.2804 7.62052 15.493 7.60852C15.6597 7.36439 16.0545 7.59224 16.146 7.24914L16.3001 7.19714C16.0823 5.38556 15.1384 3.78689 13.7532 2.67601L11.7093 7.02676C12.0199 6.92014 12.454 6.79614 12.6629 6.53117Z" fill="#00468B"/>
<path d="M9.35417 10.3168C9.33281 10.3603 9.30108 10.3979 9.26177 10.4263C9.22246 10.4546 9.17678 10.4729 9.12875 10.4795L5.80917 10.9365C5.79459 10.9385 5.78055 10.9433 5.76788 10.9508C5.7552 10.9583 5.74414 10.9682 5.73533 10.98C5.72653 10.9918 5.72015 11.0052 5.71658 11.0195C5.71301 11.0338 5.71231 11.0487 5.71452 11.0632L5.9169 12.3912C5.91919 12.4064 5.92464 12.421 5.93289 12.434C5.94115 12.447 5.95203 12.4582 5.96485 12.4667C5.97758 12.4753 5.99194 12.4811 6.00704 12.4839C6.02213 12.4867 6.03763 12.4863 6.05257 12.4828L6.38192 12.4042L6.57817 11.6379C6.57975 11.6317 6.58254 11.6258 6.58639 11.6206C6.59023 11.6154 6.59506 11.6111 6.6006 11.6078C6.60614 11.6045 6.61227 11.6023 6.61865 11.6014C6.62502 11.6004 6.63152 11.6008 6.63777 11.6024L7.28307 11.7602C7.2925 11.7624 7.30104 11.7674 7.30761 11.7746C7.31418 11.7817 7.31847 11.7906 7.31995 11.8002L7.37775 12.1668L7.79175 12.0681V11.9018C7.79169 11.893 7.7935 11.8844 7.79706 11.8764C7.80062 11.8685 7.80585 11.8613 7.8124 11.8556C7.81892 11.8497 7.82662 11.8454 7.83496 11.8428C7.8433 11.8402 7.8521 11.8394 7.86077 11.8405L8.3749 11.9014C8.38927 11.9027 8.40092 11.9107 8.4106 11.9207L9.3981 11.6854C9.44142 11.6751 9.48187 11.6551 9.51643 11.627C9.55099 11.599 9.57877 11.5635 9.59772 11.5232L10.2103 10.219L9.56455 9.88963L9.35417 10.3168ZM9.64377 9.7289L10.2863 10.0568L10.3375 9.94783L9.69685 9.62103L9.64377 9.7289ZM10.5923 9.40568L9.9613 9.08368L9.9293 9.14883L9.90805 9.19183L10.5412 9.51455L10.5923 9.40568ZM9.77587 9.46025L10.414 9.7857L10.4651 9.67668L9.8291 9.35253L9.77587 9.46025ZM12.0048 4.93258L10.4679 1.62163C10.459 1.60239 10.4448 1.5861 10.4269 1.57467C10.4091 1.56325 10.3883 1.55716 10.3671 1.55713H7.69957C7.68496 1.55713 7.67049 1.56 7.65699 1.56559C7.64349 1.57118 7.63122 1.57937 7.62089 1.5897C7.61056 1.60004 7.60236 1.6123 7.59677 1.6258C7.59118 1.6393 7.5883 1.65377 7.5883 1.66838V3.8368L6.41422 1.56915C5.71452 1.8407 5.06905 2.21298 4.49805 2.66945V6.70403C4.49802 6.71862 4.50089 6.73308 4.50647 6.74656C4.51205 6.76005 4.52024 6.7723 4.53057 6.7826C4.55143 6.80343 4.5797 6.81513 4.60917 6.81513H6.12375C6.185 6.81513 6.23475 6.76538 6.23475 6.70403V4.90085L7.3502 6.76123C7.36005 6.77769 7.37401 6.79131 7.3907 6.80076C7.4074 6.8102 7.42626 6.81516 7.44545 6.81513H9.14445C9.20562 6.81513 9.25545 6.76538 9.25545 6.70403V3.20505L11.0027 6.9683L10.7941 7.3922L10.0403 8.92298L10.6686 9.24358L10.7523 9.06518L11.1338 8.25238L11.3218 7.85218L11.7095 7.02705L13.7534 2.6763C13.6025 2.55535 13.4462 2.44135 13.2854 2.3324L12.0048 4.93258ZM11.5502 10.2969C12.1114 10.2969 12.5664 10.1432 12.5664 9.95365C12.5664 9.76408 12.1114 9.6104 11.5502 9.6104C10.989 9.6104 10.5341 9.76408 10.5341 9.95365C10.5341 10.1432 10.989 10.2969 11.5502 10.2969Z" fill="white"/>
</g>
<defs>
<clipPath id="clip0_2_7430">
<rect width="16.5849" height="16" fill="white" transform="translate(0.829102)"/>
</clipPath>
</defs>
</svg>
