<svg width="20" height="16" viewBox="0 0 20 16" fill="none" xmlns="http://www.w3.org/2000/svg">
<g clip-path="url(#clip0_795_1845)">
<path d="M12.7539 11.5129L13.2808 12.2119L13.4917 12.0536L12.9643 11.3546L12.7539 11.5129Z" fill="white"/>
<path d="M11.3883 2.80617H11.1546V2.37241H11.2217C11.3067 2.37241 11.3883 2.33864 11.4484 2.27852C11.5085 2.21841 11.5423 2.13687 11.5423 2.05185C11.5423 1.96684 11.5085 1.8853 11.4484 1.82518C11.3883 1.76507 11.3067 1.73129 11.2217 1.73129H10.8896V3.56876H11.3883C11.4893 3.56876 11.5862 3.52863 11.6576 3.45719C11.7291 3.38575 11.7692 3.28887 11.7692 3.18784C11.7692 3.08682 11.7291 2.98993 11.6576 2.91849C11.5862 2.84706 11.4893 2.80693 11.3883 2.80693" fill="white"/>
<path d="M9.232 3.13598C9.232 2.85799 9.03366 2.6326 8.78898 2.6326C8.5443 2.6326 8.3457 2.85799 8.3457 3.13598C8.3457 3.41397 8.54405 3.63936 8.78898 3.63936C9.03391 3.63936 9.232 3.41397 9.232 3.13598Z" fill="white"/>
<path d="M6.86994 2.6326C6.69313 2.6326 6.54086 2.74905 6.46924 2.9191H7.27064C7.19927 2.74905 7.047 2.6326 6.86994 2.6326Z" fill="white"/>
<path d="M11.668 12.0969L12.4223 13.9645L12.6662 13.865L11.9119 11.9983L11.668 12.0969Z" fill="white"/>
<path d="M8.06394 7.89807C8.15986 7.89807 8.3001 8.0879 8.31688 8.21788C8.32565 8.28575 8.30762 8.3431 8.36046 8.3431C8.39702 8.3431 8.42457 8.23917 8.42457 8.14651C8.42457 8.05384 8.36597 7.93714 8.27231 7.83246C8.17864 7.72777 8.17038 7.62384 8.06269 7.62384C7.99958 7.62384 7.99958 7.72677 7.90967 7.87202C7.88212 7.91685 7.85282 7.98522 7.87862 8.04733C7.90091 8.06236 7.98054 7.89707 8.06394 7.89707" fill="white"/>
<path d="M7.86818 9.15403C8.03046 9.15403 8.07053 9.12748 8.07053 8.9915C8.07053 8.92388 8.04173 8.92188 8.01193 8.92188C7.89873 8.92188 7.79004 9.08491 7.79004 9.12573C7.79004 9.13725 7.80381 9.15403 7.86818 9.15403Z" fill="white"/>
<path d="M6.76951 6.98897C6.86668 6.66515 6.71942 6.35236 6.60497 6.35236C6.59649 6.3523 6.58809 6.354 6.58029 6.35734C6.5725 6.36069 6.56548 6.3656 6.55967 6.37179C6.55386 6.37797 6.54939 6.38529 6.54655 6.39328C6.5437 6.40127 6.54253 6.40976 6.54312 6.41822C6.54312 6.52391 6.66959 6.51614 6.74347 6.99248L6.76951 6.98897Z" fill="white"/>
<path d="M19.8207 9.89457C19.8141 9.60656 19.6554 9.4578 19.5234 9.48234C19.5246 9.44197 19.5147 9.40203 19.4947 9.36691C19.4748 9.3318 19.4455 9.30285 19.4102 9.28325L19.2787 9.18858C19.2346 9.15051 19.1853 9.10844 19.0926 9.10844C18.9344 9.10844 18.86 9.3123 18.86 9.3123C18.7348 9.2284 18.7162 9.17255 18.6611 9.00701C18.5687 8.75106 18.4207 8.74631 18.2775 8.7418C18.1845 8.73679 18.1547 8.72978 17.9561 8.60932C17.9561 8.60932 18.1192 8.29401 18.0941 7.93739C18.1978 7.96625 18.3048 7.98132 18.4124 7.98222C18.9834 7.98222 19.3245 7.5437 19.3245 7.11996C19.3245 6.64187 19.005 6.43426 18.6509 6.14851C18.9864 6.1713 19.4202 5.92161 19.4202 5.47082C19.4202 5.2552 19.2562 5.08365 19.2562 5.08365C19.0713 5.24443 18.9018 5.33959 18.6579 5.4007C18.4766 5.43251 17.9947 5.51565 17.9947 5.97195C17.9947 6.50814 18.7851 6.65965 18.7851 7.11645C18.7845 7.16011 18.7752 7.20321 18.7577 7.24324C18.7403 7.28326 18.7151 7.31941 18.6835 7.34958C18.6519 7.37975 18.6147 7.40332 18.5739 7.41894C18.5331 7.43455 18.4896 7.44189 18.446 7.44052C17.9531 7.44052 17.6669 6.91861 17.0801 6.7418V0H2.92033V6.7418C2.33406 6.91861 2.0473 7.44052 1.55444 7.44052C1.5108 7.44189 1.46732 7.43455 1.42655 7.41894C1.38578 7.40332 1.34852 7.37975 1.31695 7.34958C1.28539 7.31941 1.26015 7.28326 1.2427 7.24324C1.22526 7.20321 1.21596 7.16011 1.21535 7.11645C1.21535 6.65965 2.00523 6.50814 2.00523 5.97195C2.00523 5.51565 1.52389 5.43251 1.34232 5.4007C1.11929 5.34789 0.913547 5.23872 0.744775 5.08365C0.744775 5.08365 0.580738 5.2552 0.580738 5.47082C0.580738 5.92161 1.0145 6.17205 1.34958 6.14851C0.995964 6.43426 0.675403 6.64187 0.675403 7.11996C0.675403 7.5437 1.0165 7.98222 1.588 7.98222C1.69561 7.98132 1.80263 7.96625 1.90631 7.93739C1.88126 8.29401 2.04405 8.60932 2.04405 8.60932C1.8452 8.72978 1.8159 8.73679 1.72299 8.7418C1.57974 8.74631 1.43173 8.75106 1.33931 9.00701C1.28447 9.17255 1.26418 9.2284 1.14047 9.3123C1.14047 9.3123 1.06534 9.10844 0.90806 9.10844C0.815148 9.10844 0.765311 9.15051 0.721734 9.18858L0.589753 9.28325C0.554545 9.30294 0.525418 9.33192 0.505546 9.36703C0.485674 9.40213 0.475819 9.44202 0.477056 9.48234C0.345326 9.4573 0.186297 9.60756 0.179285 9.89457C0.179285 9.89457 0.10791 9.97395 0.10791 10.0626C0.10791 10.1936 0.261429 10.2457 0.568717 10.2933L0.580237 10.2532L0.932603 10.308C1.25016 10.308 1.28547 10.0576 1.39917 9.9444L1.5855 9.98147C2.07135 9.89782 2.06008 9.63085 2.30576 9.63085C2.42071 9.63085 2.6461 9.6837 2.76481 9.6837C2.81709 9.68339 2.86909 9.67589 2.91933 9.66141V11.3186C2.91933 13.1247 6.15975 16 9.99922 16C13.8387 16 17.0801 13.1255 17.0801 11.3193V9.66216C17.1304 9.67666 17.1825 9.68416 17.2349 9.68445C17.3538 9.68445 17.5792 9.63161 17.6932 9.63161C17.9394 9.63161 17.9281 9.89782 18.4142 9.98222L18.6013 9.94515C18.7145 10.0586 18.7503 10.3088 19.0678 10.3088L19.4202 10.2522L19.4312 10.2923C19.739 10.2447 19.8925 10.1921 19.8925 10.0616C19.8925 9.97295 19.8207 9.89356 19.8207 9.89356M0.475804 10.1422C0.475804 10.1422 0.239641 10.0989 0.239641 10.0626C0.239641 10.011 0.303753 9.98222 0.310515 9.90558C0.323788 9.75532 0.308762 9.68795 0.446002 9.60882C0.485321 9.60882 0.589252 9.71024 0.589252 9.73228C0.589252 9.78237 0.534156 9.90909 0.475804 10.1422ZM3.05206 0.131731H16.9489V6.70949C16.8791 6.69553 16.8084 6.68715 16.7373 6.68445V0.343351H3.26343V6.68545C3.19251 6.68824 3.12192 6.69662 3.05231 6.71049L3.05206 0.131731ZM10.5815 9.4876C10.5314 9.55021 10.5281 9.74681 10.7568 9.74681C11.1725 9.74681 11.3063 9.5715 11.5064 9.41297C11.6566 9.5417 11.7863 9.60631 11.9031 9.60631L12.1207 9.58903C12.3604 9.58903 12.5497 9.74681 12.7986 9.74681C12.8076 9.74681 12.8151 9.7448 12.8237 9.7443C12.4814 10.1622 12.0506 10.4989 11.5623 10.7301C11.0741 10.9613 10.5407 11.0812 10.0005 11.0812C9.46028 11.0812 8.92682 10.9613 8.43861 10.7301C7.95039 10.4989 7.51958 10.1622 7.17728 9.7443C7.1858 9.7443 7.19331 9.74681 7.20232 9.74681C7.45126 9.74681 7.64034 9.58903 7.88026 9.58903L8.09789 9.60631C8.2151 9.60631 8.34332 9.5417 8.49459 9.41297C8.69494 9.5705 8.82842 9.74681 9.24415 9.74681C9.47255 9.74681 9.46954 9.55021 9.41945 9.4876C9.6143 9.52241 9.75429 9.37916 9.6431 9.19484C9.29599 9.09291 9.29899 8.77461 8.99571 8.51139C8.68066 7.75632 8.79686 7.26797 8.54743 6.93539C8.0766 6.30929 7.98194 6.18157 7.69594 5.94365C7.3308 5.63386 7.25016 5.55472 6.98044 5.38192C7.39195 4.77613 7.9759 4.30788 8.65662 4.03782C8.22687 3.97195 7.89779 3.59379 7.89779 3.13624C7.89779 2.63211 8.29649 2.22339 8.7891 2.22339C9.02451 2.22339 9.16476 2.32908 9.23238 2.4002V1.15853H9.71372V3.53769C9.28308 3.60236 8.88725 3.81159 8.59125 4.13099C8.29526 4.45039 8.11671 4.86098 8.08494 5.29529C8.05317 5.72959 8.17007 6.16179 8.41644 6.52087C8.66281 6.87994 9.02398 7.14454 9.44063 7.27119C9.85727 7.39783 10.3046 7.37899 10.7091 7.21777C11.1136 7.05654 11.4513 6.76251 11.6666 6.384C11.8819 6.00548 11.9621 5.56498 11.8939 5.13489C11.8257 4.70479 11.6133 4.31067 11.2915 4.01728C11.9946 4.2838 12.5985 4.76035 13.0213 5.38217C12.7513 5.55497 12.6706 5.63411 12.3053 5.9439C12.0188 6.18182 11.9241 6.30929 11.4538 6.93564C11.2033 7.26822 11.3208 7.75657 11.0055 8.51165C10.7035 8.7741 10.705 9.09316 10.3583 9.19509C10.2482 9.37941 10.3876 9.52266 10.5825 9.48785M3.36361 9.44177C3.57648 9.31655 3.71948 8.9449 3.71948 8.84072L3.76205 8.85124V11.3191C3.76205 12.5833 6.64936 15.1578 9.99947 15.1578C13.3496 15.1578 16.2354 12.5833 16.2354 11.3191V8.85149L16.2782 8.84097C16.2782 8.9449 16.4212 9.3168 16.6336 9.44202V11.3203C16.6336 12.9166 13.5327 15.5572 9.99697 15.5572C6.46128 15.5572 3.36361 12.9156 3.36361 11.3193V9.44177ZM8.28221 12.6915L8.49108 12.7636C8.43724 13.0503 8.41019 13.3376 8.31577 13.7498L8.93536 11.9952L9.1888 12.0804L8.28096 14.4548L8.04881 14.3752L8.27069 13.0741L7.63834 14.2342L7.40593 14.1545L8.15199 11.7253L8.40443 11.8119L7.81239 13.5755C7.99271 13.1938 8.14848 12.9494 8.28221 12.6915ZM7.74327 11.7799L7.31177 11.4768L6.81089 12.1936L7.13395 12.4205L6.98369 12.6359L6.65962 12.4105L6.15875 13.1277L6.58975 13.43L6.43949 13.6451L6.00824 13.3431C5.97987 13.3233 5.95569 13.2982 5.93708 13.269C5.91847 13.2399 5.9058 13.2074 5.89979 13.1733C5.89379 13.1393 5.89457 13.1044 5.90209 13.0706C5.90961 13.0369 5.92373 13.005 5.94362 12.9767L7.09514 11.3253C7.11498 11.297 7.14021 11.2729 7.16938 11.2544C7.19855 11.2358 7.23108 11.2232 7.26513 11.2172C7.29917 11.2112 7.33406 11.212 7.36781 11.2195C7.40155 11.227 7.43348 11.2411 7.46178 11.261L7.89379 11.5632L7.74327 11.7799ZM4.729 12.1731L4.55369 11.9782L6.44124 10.2772L6.60778 10.4623L5.60453 11.7779L6.79461 10.6694L6.96992 10.865L5.08211 12.5645L4.91507 12.3794L5.91808 11.0644L4.729 12.1731ZM6.85772 8.94616C6.80763 8.87879 6.75028 8.76384 6.69469 8.63787C6.76656 8.63787 6.86123 8.61282 6.98069 8.56599C7.03056 8.56663 7.08041 8.56311 7.1297 8.55547C7.11741 8.58818 7.1072 8.62164 7.09914 8.65565C7.01875 8.74505 6.90255 8.82519 6.85772 8.94591M5.37137 9.12672C5.46378 9.12672 5.61354 9.10744 5.63633 9.10744C5.65912 9.10744 5.71021 9.11295 5.72198 9.20761C5.73375 9.30228 5.79411 9.35437 5.79411 9.39319C5.79411 9.43201 5.67941 9.50589 5.55294 9.50589C5.45101 9.50589 5.43974 9.27273 5.33681 9.21638C5.26168 9.17405 5.27921 9.12772 5.37137 9.12772M10.6964 12.0874L10.9579 12.0553L11.0831 13.0794C11.1174 13.3619 10.8675 13.4823 10.8675 13.4823L11.0055 14.6093L10.7445 14.6416L10.606 13.5147C10.606 13.5147 10.3331 13.4545 10.2992 13.1763L10.174 12.1518L10.4347 12.1205L10.5742 13.2537L10.8357 13.2214L10.6964 12.0874ZM14.2702 10.8815L13.7818 10.4723C13.7264 10.4216 13.6835 10.3587 13.6566 10.2885L13.8304 10.0809C13.8442 10.1412 13.874 10.1966 13.9168 10.2412C13.9168 10.2412 14.0596 10.3614 14.3446 10.5993C14.705 10.9021 14.4633 11.2359 14.4633 11.2359C14.7425 10.9033 15.0621 11.2016 15.0621 11.2016L15.5429 11.6046C15.6078 11.6627 15.6882 11.7007 15.7743 11.7137L15.6005 11.9209C15.5003 11.9209 15.4087 11.8352 15.4087 11.8352C15.4087 11.8352 14.9737 11.4703 14.8299 11.3504C14.6619 11.2091 14.4943 11.411 14.4943 11.411L15.3944 12.166L15.2276 12.3664L13.281 10.7355L13.4495 10.5352L14.288 11.2379C14.4633 11.0278 14.2712 10.8825 14.2712 10.8825M13.6594 11.8392C13.7325 11.9356 13.7175 12.005 13.6882 12.0716C13.7538 12.0526 13.8289 12.0639 13.9236 12.1891L14.4327 12.8653C14.4756 12.9224 14.5301 12.9482 14.597 12.9775L14.3814 13.1405C14.3202 13.1142 14.2658 13.0742 14.2226 13.0235L13.6509 12.265L13.44 12.4237L14.1244 13.3326L13.9146 13.4906L12.3854 11.4621L12.8051 11.1438C12.8328 11.123 12.8642 11.1078 12.8977 11.0992C12.9312 11.0905 12.966 11.0886 13.0002 11.0934C13.0345 11.0983 13.0674 11.1098 13.0972 11.1274C13.127 11.1449 13.153 11.1682 13.1738 11.1958L13.6594 11.8392ZM12.87 13.6652C12.9093 13.7623 12.9084 13.871 12.8676 13.9675C12.8267 14.064 12.7492 14.1402 12.6521 14.1796C12.555 14.2189 12.4463 14.218 12.3498 14.1772C12.2533 14.1363 12.177 14.0588 12.1377 13.9617L11.466 12.2988C11.4267 12.2017 11.4276 12.0929 11.4684 11.9964C11.5093 11.9 11.5868 11.8237 11.6839 11.7844C11.781 11.7451 11.8898 11.7459 11.9862 11.7868C12.0827 11.8276 12.159 11.9051 12.1983 12.0023L12.87 13.6652ZM14.6283 9.12697C14.7212 9.12697 14.7393 9.1733 14.6626 9.21563C14.5602 9.27198 14.5492 9.50513 14.4468 9.50513C14.3215 9.50513 14.2061 9.43 14.2061 9.39244C14.2061 9.35487 14.2659 9.30078 14.278 9.20686C14.29 9.11295 14.3408 9.10669 14.3636 9.10669C14.3864 9.10669 14.5357 9.12597 14.6283 9.12597M12.9003 8.6549C12.8923 8.62085 12.882 8.58739 12.8695 8.55472C12.9192 8.56238 12.9695 8.5659 13.0198 8.56524C13.139 8.61332 13.2341 8.63611 13.3055 8.63712C13.2499 8.76233 13.1936 8.87804 13.1425 8.9454C13.0976 8.82469 12.9814 8.74505 12.901 8.65515M6.86974 3.64062C7.03203 3.64062 7.17403 3.54045 7.25141 3.39319L7.61705 3.63461C7.53754 3.76109 7.42732 3.86539 7.29666 3.93781C7.166 4.01024 7.01913 4.04843 6.86974 4.04884C6.37713 4.04884 5.97793 3.64012 5.97793 3.13599C5.97793 2.63186 6.37588 2.22314 6.86974 2.22314C7.36361 2.22314 7.7613 2.63186 7.7613 3.13599C7.7613 3.16103 7.76005 3.18858 7.7578 3.21387H6.43047C6.46403 3.4548 6.64735 3.63962 6.86874 3.63962M5.40368 2.8843L6.12244 4.0025H5.48206L4.91056 3.1147V2.47683H5.07761C5.17487 2.47431 5.2673 2.43391 5.3352 2.36423C5.40309 2.29454 5.44109 2.2011 5.44109 2.10381C5.44109 2.00651 5.40309 1.91307 5.3352 1.84339C5.2673 1.77371 5.17487 1.7333 5.07761 1.73078H4.74102V4.002H4.19005V1.29727H5.20157C5.63709 1.29727 5.9897 1.6584 5.9897 2.10368C5.99109 2.28023 5.9343 2.45232 5.82811 2.59337C5.72191 2.73442 5.57223 2.83657 5.40217 2.88405M12.3085 3.18733C12.3085 3.63812 11.9519 4.00225 11.5126 4.00225H11.2745C11.0108 3.76595 10.6866 3.60769 10.3381 3.5452V1.29752H11.3476C11.7543 1.29752 12.0844 1.63536 12.0844 2.05134C12.0864 2.14095 12.0695 2.22999 12.0347 2.3126C11.9999 2.39521 11.9481 2.46953 11.8825 2.53068C12.0117 2.58423 12.1218 2.67564 12.1981 2.79289C12.2744 2.91013 12.3134 3.04773 12.31 3.18758M11.4943 4.47533C11.6337 4.69339 11.7237 4.93931 11.7579 5.19583C11.7922 5.45235 11.7699 5.71326 11.6926 5.96025C11.6153 6.20724 11.4849 6.43432 11.3105 6.62555C11.1362 6.81679 10.922 6.96755 10.6832 7.06725C10.4444 7.16695 10.1866 7.21318 9.92806 7.2027C9.66948 7.19221 9.41632 7.12526 9.18636 7.00654C8.95639 6.88783 8.75519 6.72023 8.59688 6.5155C8.43857 6.31077 8.32698 6.07387 8.26994 5.82144L8.54768 6.10894L8.89629 6.67092C9.12603 6.76527 9.37195 6.81392 9.62031 6.81417L9.84996 6.49211L10.6165 6.47158L10.6351 6.52417C10.9407 6.33368 11.1865 6.0611 11.3446 5.73754C11.2395 5.78135 11.1313 5.8171 11.0208 5.84448C11.0208 5.84448 10.8104 5.48861 10.6551 5.16379C10.7546 4.96012 10.8689 4.764 10.997 4.57701C10.997 4.57701 11.3563 4.74606 11.5254 4.88405C11.5315 4.90479 11.5359 4.92597 11.5387 4.94741C11.5387 4.93113 11.5409 4.9151 11.5409 4.89882C11.541 4.75671 11.5254 4.61501 11.4943 4.47633M9.44074 4.56273C9.67165 4.82569 9.89153 5.17806 9.89153 5.17806C9.78509 5.38492 9.47806 5.87503 9.47806 5.87503C9.06358 5.77486 8.78009 5.67468 8.78009 5.67468C8.75338 5.40831 8.75112 5.14006 8.77332 4.87328C8.95314 4.77936 9.44024 4.56173 9.44024 4.56173M9.44024 3.74856C9.83776 3.61668 10.269 3.62901 10.6584 3.78337L10.5597 4.0303C10.3004 4.00329 10.0392 3.99986 9.77933 4.02003L9.44024 3.74856ZM8.51738 4.65389L8.28722 4.97696C8.37399 4.64977 8.55267 4.35428 8.80212 4.12547L8.51738 4.65389ZM13.2507 3.58978C13.3416 3.58859 13.4284 3.55139 13.492 3.48632C13.5555 3.42125 13.5907 3.33363 13.5898 3.24267V2.31605H14.0706V3.21012C14.0706 3.67393 13.7037 4.04984 13.2507 4.04984C12.7976 4.04984 12.4295 3.67343 12.4295 3.20962V2.31555H12.9108V3.24217C12.9095 3.33318 12.9444 3.42097 13.0078 3.48628C13.0712 3.55159 13.1579 3.58908 13.2489 3.59053M14.3904 1.15928H14.8722V4.0025H14.3904V1.15928ZM15.327 1.15928H15.8089V4.0025H15.327V1.15928ZM3.76281 0.842725V6.43251C3.59827 6.57576 3.46854 6.6579 3.36436 6.67769V0.444778H16.6368V6.67769C16.5332 6.6584 16.4034 6.57576 16.2386 6.43251V0.842725H3.76281ZM0.657372 9.39719C0.829423 9.29702 0.828421 9.23917 0.909313 9.23917C0.962656 9.23917 1.00698 9.33559 1.00698 9.33559C0.928346 9.46757 0.849708 9.60706 0.744524 9.60706C0.676655 9.60706 0.610289 9.56374 0.610289 9.52191C0.610289 9.48009 0.59927 9.43075 0.657372 9.39669M2.76706 9.55247C2.62907 9.55297 2.48707 9.50088 2.30676 9.50088C2.04004 9.50088 2.03403 9.64338 1.8735 9.73103C1.71297 9.81868 1.66063 9.84924 1.5855 9.84924C1.52614 9.84924 1.45777 9.81317 1.39842 9.81317C1.20708 9.81317 1.22637 10.1763 0.931602 10.1763C0.808636 10.1763 0.733755 10.1362 0.631076 10.1297C0.646603 9.89156 0.761053 9.75207 0.761053 9.75207C0.943122 9.74681 1.04755 9.52116 1.04755 9.52116C1.40869 9.32081 1.38915 9.25419 1.46228 9.05159C1.54017 8.83496 1.62456 8.8878 1.84796 8.86677C2.07761 8.76309 2.21435 8.68595 2.17352 8.58002C2.1327 8.47408 2.03804 8.2885 2.03804 8.04833C2.03804 7.84523 2.03954 7.78713 1.98795 7.78713C1.93035 7.78713 1.79086 7.85124 1.58725 7.85124C1.08462 7.85124 0.806382 7.47558 0.806382 7.12071C0.806382 6.49462 1.51963 6.32832 1.51963 6.10794C1.51963 6.03281 1.42797 6.01528 1.32128 6.01528C0.932353 6.01528 0.711216 5.73979 0.711216 5.47157C0.71358 5.40287 0.734243 5.33604 0.771071 5.27799C0.771071 5.27799 1.00849 5.47834 1.31953 5.53143C1.63057 5.58452 1.87325 5.6837 1.87325 5.9727C1.87325 6.4305 1.08287 6.57726 1.08287 7.11721C1.08331 7.17825 1.09593 7.23859 1.11999 7.2947C1.14405 7.3508 1.17906 7.40154 1.22298 7.44395C1.2669 7.48635 1.31884 7.51956 1.37575 7.54163C1.43267 7.56371 1.49342 7.5742 1.55444 7.5725C2.21685 7.5725 2.447 6.83446 3.33431 6.81392C3.79411 6.76058 3.93736 6.25169 4.44024 6.26021C4.50886 6.26321 4.60678 6.30228 4.76256 6.15126C4.91833 6.00025 4.95013 5.89106 5.43623 5.75983C5.95639 5.61883 6.03103 5.34285 6.49208 5.34285C6.85271 5.34285 7.3333 5.81417 7.61154 6.04558C7.88978 6.27698 7.99095 6.39619 8.43974 7.01277C8.64159 7.29627 8.57147 7.87102 8.88377 8.58653C9.19231 8.84623 9.1605 9.13749 9.54492 9.29727C9.57423 9.36038 9.48081 9.35863 9.43974 9.35863C9.00949 9.35863 8.96716 8.84498 8.68116 8.715C8.61054 8.68294 8.61755 8.71175 8.64886 8.76208C8.96241 9.16429 8.74527 9.26672 9.2439 9.5149C9.38715 9.58628 9.28772 9.61508 9.2439 9.61508C8.73275 9.61508 8.62907 9.2567 8.46754 9.26446C8.36736 9.35712 8.22186 9.47483 8.09739 9.47483C8.06008 9.47483 7.93911 9.45805 7.87976 9.45805C7.59251 9.45805 7.444 9.61608 7.20182 9.61608C7.02451 9.61608 7.02802 9.47658 7.02802 9.47658C7.01582 9.43018 7.00745 9.38286 7.00298 9.33509C7.00298 9.2304 7.12118 9.144 7.12118 9.1117C7.12118 9.00776 6.96892 9.16178 6.96892 9.05284C6.96892 8.95267 7.06058 8.88129 7.21535 8.72727C7.24039 8.61379 7.29188 8.50781 7.36561 8.41798C7.36561 8.3401 7.18354 8.44628 6.96215 8.43426C6.65887 8.56724 6.54643 8.49286 6.60152 8.41147C6.66513 8.3168 6.74703 8.17355 6.74703 7.89256C6.74703 7.73904 6.68542 7.7408 6.6719 7.82119C6.56045 8.29552 6.48382 8.40821 6.22562 8.44328C6.14172 8.45455 6.03553 8.4886 6.1034 8.61032L6.41445 9.17305C6.448 9.23416 6.31026 9.5447 6.35685 9.5447C6.40343 9.5447 6.63433 9.29176 6.54868 9.1162L6.28447 8.59028C6.34983 8.51515 6.46579 8.56524 6.53841 8.59629C6.58449 8.72151 6.65887 8.89256 6.71773 8.9732C6.77658 9.05384 6.79561 9.09442 6.79561 9.19509C6.79561 9.29577 6.69669 9.43601 6.6183 9.56349C6.53992 9.69096 6.44024 9.69797 6.2459 9.69622C5.94262 9.84222 5.54793 9.99023 5.42421 9.99023C5.10966 9.99023 5.1302 9.61883 4.96366 9.61883C4.92634 9.61883 4.83093 9.63211 4.80713 9.60506C4.80713 9.60506 4.60052 9.27298 4.60052 9.23641C4.60052 9.16128 4.72324 9.13398 4.97618 9.13398C5.22311 9.13398 5.29924 9.63962 5.51487 9.63962C5.73751 9.63962 5.9872 9.50438 5.9872 9.36714C5.9872 9.08239 5.65637 8.95292 5.44675 8.78688C5.21259 8.6013 5.28021 8.40396 5.19857 8.40396C5.09088 8.40396 5.18605 8.62559 5.18605 8.67794C5.18605 8.73028 5.13195 8.75758 5.03328 8.75758C4.64059 8.75758 4.56872 8.67493 4.32128 8.67493C4.10541 8.67493 4.018 8.73353 3.85622 8.73353C3.40318 8.73353 3.57923 8.13449 3.57923 7.98798C3.57923 7.96819 3.55419 7.94666 3.52289 7.94666C3.47029 7.94666 3.44625 8.19259 3.38865 8.55397C3.34633 8.74155 3.11617 9.1698 2.44375 9.18858C1.90906 9.20336 1.64235 9.37741 1.49584 9.62484C1.4748 9.65289 1.50761 9.72051 1.5597 9.65715C1.70721 9.51014 1.9584 9.29151 2.46128 9.30654C3.00122 9.32181 3.28772 9.13599 3.49909 8.75006C3.53816 8.75006 3.56872 8.79264 3.59376 8.81868C3.59376 8.93213 3.52314 8.97821 3.48307 9.07588C3.45176 9.15101 3.37212 9.3133 3.29123 9.33609C3.10065 9.38818 2.9887 9.55347 2.76531 9.55347M16.9484 11.3198C16.9484 13.0641 13.6992 15.87 9.99972 15.87C6.30025 15.87 3.05156 13.0651 3.05156 11.3198V9.60831C3.12669 9.56749 3.19356 9.51941 3.26268 9.4866V11.3193C3.26268 12.9539 6.41119 15.6579 9.99947 15.6579C13.5877 15.6579 16.7363 12.9532 16.7363 11.3193V9.4866C16.8059 9.51966 16.8712 9.56749 16.9479 9.60831L16.9484 11.3198ZM19.0678 10.1771C18.7736 10.1771 18.7924 9.81392 18.601 9.81392C18.5417 9.81392 18.4733 9.84999 18.4142 9.84999C18.3411 9.84999 18.2877 9.81818 18.1269 9.73078C17.9662 9.64338 17.9599 9.50088 17.6932 9.50088C17.5146 9.50088 17.3709 9.55397 17.2349 9.55397C17.0117 9.55397 16.8998 9.38868 16.709 9.33659C16.6281 9.3138 16.5484 9.15151 16.5174 9.07638C16.4771 8.97871 16.4069 8.93263 16.4069 8.81918C16.432 8.79414 16.462 8.75056 16.5011 8.75056C16.7115 9.13649 16.9992 9.32231 17.5392 9.30704C18.04 9.29276 18.2922 9.5114 18.4392 9.65765C18.4913 9.72101 18.5244 9.65339 18.5031 9.62534C18.3553 9.37791 18.0899 9.20386 17.5557 9.18908C16.8823 9.1703 16.6526 8.74205 16.6103 8.55447C16.5532 8.19309 16.5286 7.94716 16.4761 7.94716C16.444 7.94716 16.4195 7.96869 16.4195 7.98848C16.4195 8.13499 16.5948 8.73403 16.1427 8.73403C15.9814 8.73403 15.8935 8.67543 15.6782 8.67543C15.4297 8.67543 15.3581 8.75808 14.9652 8.75808C14.8675 8.75808 14.8129 8.73128 14.8129 8.67844C14.8129 8.62559 14.9081 8.40446 14.8004 8.40446C14.7187 8.40446 14.7858 8.6018 14.5517 8.78738C14.3426 8.95342 14.0115 9.08289 14.0115 9.36764C14.0115 9.50488 14.2619 9.64012 14.4841 9.64012C14.6997 9.64012 14.7763 9.13449 15.0228 9.13449C15.2772 9.13449 15.3984 9.16253 15.3984 9.23691C15.3984 9.27348 15.1923 9.60556 15.1923 9.60556C15.1673 9.63261 15.0721 9.61933 15.0353 9.61933C14.8687 9.61933 14.8893 9.99073 14.5747 9.99073C14.4513 9.99073 14.0568 9.84272 13.7535 9.69672C13.5589 9.69847 13.4583 9.69121 13.3806 9.56399C13.303 9.43676 13.2058 9.29602 13.2058 9.19534C13.2058 9.09467 13.2244 9.05384 13.2832 8.97345C13.3421 8.89306 13.417 8.72302 13.463 8.59654C13.5354 8.56549 13.6516 8.5144 13.717 8.59053L13.4528 9.11645C13.3671 9.29176 13.5955 9.54495 13.6451 9.54495C13.6947 9.54495 13.5529 9.23441 13.5865 9.1733L13.898 8.61057C13.9657 8.48886 13.8597 8.4548 13.7758 8.44353C13.5176 8.40846 13.441 8.29577 13.3298 7.82144C13.3163 7.74105 13.2547 7.73929 13.2547 7.89281C13.2547 8.1738 13.3361 8.31705 13.4002 8.41172C13.4553 8.49311 13.3428 8.56749 13.0395 8.43451C12.8177 8.44653 12.6361 8.34035 12.6361 8.41823C12.71 8.50792 12.7615 8.61395 12.7863 8.72752C12.9411 8.88129 13.0328 8.95292 13.0328 9.05309C13.0328 9.16103 12.8805 9.00801 12.8805 9.11195C12.8805 9.14425 12.9987 9.23065 12.9987 9.33534C12.9942 9.38311 12.9859 9.43043 12.9737 9.47683C12.9737 9.47683 12.9772 9.61633 12.7999 9.61633C12.5582 9.61633 12.4092 9.4583 12.1219 9.4583C12.0621 9.4583 11.9416 9.47508 11.9043 9.47508C11.7791 9.47508 11.6331 9.35738 11.5342 9.26471C11.3734 9.25795 11.2692 9.61533 10.7578 9.61533C10.714 9.61533 10.615 9.58552 10.7578 9.51515C11.2564 9.26697 11.0393 9.16454 11.3528 8.76233C11.3839 8.71225 11.3917 8.6832 11.321 8.71525C11.0345 8.84523 10.992 9.35888 10.562 9.35888C10.5204 9.35888 10.4277 9.36063 10.4568 9.29752C10.8409 9.13749 10.8089 8.84673 11.1179 8.58678C11.4307 7.87127 11.3606 7.29652 11.5615 7.01302C12.0107 6.39694 12.1124 6.27724 12.3902 6.04583C12.6679 5.81443 13.149 5.3431 13.5101 5.3431C13.9707 5.3431 14.0453 5.61858 14.5657 5.76008C15.0516 5.89131 15.0829 6.0005 15.2386 6.15152C15.3944 6.30253 15.4928 6.26346 15.5615 6.26046C16.0643 6.25194 16.2076 6.76133 16.6674 6.81417C17.5547 6.83471 17.7843 7.57275 18.4473 7.57275C18.5081 7.57412 18.5687 7.56334 18.6253 7.54104C18.682 7.51875 18.7336 7.48539 18.7773 7.4429C18.8209 7.40042 18.8556 7.34968 18.8794 7.29362C18.9032 7.23757 18.9156 7.17734 18.9158 7.11645C18.9158 6.57651 18.1264 6.42975 18.1264 5.97195C18.1264 5.68294 18.3691 5.58402 18.6802 5.53068C18.9912 5.47734 19.2286 5.27724 19.2286 5.27724C19.2652 5.33538 19.2857 5.40218 19.288 5.47082C19.288 5.73929 19.0668 6.01453 18.6774 6.01453C18.5707 6.01453 18.4796 6.0313 18.4796 6.10719C18.4796 6.32757 19.1926 6.49386 19.1926 7.11996C19.1926 7.47408 18.9151 7.85049 18.4119 7.85049C18.2081 7.85049 18.0686 7.78638 18.0112 7.78638C17.9612 7.78638 17.9612 7.84448 17.9612 8.04758C17.9612 8.2885 17.866 8.47483 17.8252 8.58002C17.7843 8.6852 17.9211 8.76309 18.1507 8.86677C18.3741 8.8878 18.458 8.83496 18.5364 9.05159C18.6095 9.25419 18.5905 9.32056 18.9511 9.52116C18.9511 9.52116 19.0561 9.74656 19.2376 9.75207C19.2376 9.75207 19.3521 9.89156 19.3679 10.1297C19.2642 10.1362 19.1898 10.1763 19.0673 10.1763M19.3917 9.52191C19.3917 9.56374 19.3248 9.60706 19.2577 9.60706C19.1527 9.60706 19.0736 9.46757 18.995 9.33559C18.995 9.33559 19.0393 9.23917 19.0929 9.23917C19.1735 9.23917 19.1725 9.29702 19.3446 9.39719C19.4027 9.43075 19.3917 9.47884 19.3917 9.52241M19.5249 10.1427C19.466 9.90959 19.4109 9.78362 19.4109 9.73278C19.4109 9.71074 19.5154 9.60932 19.5542 9.60932C19.6919 9.68845 19.6772 9.75682 19.6902 9.90609C19.6969 9.98272 19.7616 10.0115 19.7616 10.0631C19.7616 10.0994 19.5249 10.1427 19.5249 10.1427Z" fill="white"/>
<path d="M11.9883 8.92188C11.959 8.92188 11.9297 8.92388 11.9297 8.9915C11.9297 9.12748 11.9703 9.15378 12.132 9.15378C12.1967 9.15378 12.2107 9.13725 12.2107 9.12573C12.2107 9.08491 12.1015 8.92188 11.9883 8.92188Z" fill="white"/>
<path d="M13.3959 6.35212C13.2822 6.35212 13.1352 6.66567 13.2313 6.98898L13.2564 6.99224C13.3315 6.51641 13.4567 6.52367 13.4567 6.41798C13.4573 6.40947 13.4561 6.40093 13.4532 6.3929C13.4502 6.38488 13.4457 6.37754 13.4398 6.37135C13.4339 6.36517 13.4269 6.36026 13.419 6.35695C13.4111 6.35364 13.4026 6.352 13.3941 6.35212" fill="white"/>
<path d="M12.1216 8.04657C12.1479 7.98422 12.1186 7.91585 12.0911 7.87127C12.0012 7.72526 12.0017 7.62283 11.9376 7.62283C11.8304 7.62283 11.8214 7.72701 11.7279 7.8312C11.6345 7.93538 11.5757 8.05359 11.5757 8.14525C11.5757 8.23691 11.6032 8.34184 11.6398 8.34184C11.6926 8.34184 11.6751 8.28474 11.6834 8.21662C11.7004 8.08715 11.8411 7.89706 11.9363 7.89706C12.0202 7.89706 12.0993 8.06135 12.1216 8.04733" fill="white"/>
<path d="M11.4941 4.47532C11.5252 4.61383 11.5408 4.75535 11.5407 4.89731C11.5407 4.91409 11.539 4.93011 11.539 4.94739C11.5545 5.04256 11.5745 5.25593 11.5457 5.64411C11.4807 5.67918 11.4138 5.7107 11.3454 5.73853C11.1873 6.06203 10.9414 6.3346 10.6359 6.52515L10.7659 6.89029C10.4759 7.06234 10.1253 7.15225 10.1253 7.15225C9.75961 7.07261 9.54924 6.91358 9.54924 6.91358L9.62037 6.81341C9.37193 6.81392 9.12583 6.7655 8.8961 6.67091L8.93467 6.73377L8.86279 6.79187C9.18793 7.06312 9.59936 7.20911 10.0227 7.20347C10.4461 7.19783 10.8535 7.04093 11.1713 6.76113C11.4891 6.48132 11.6963 6.09707 11.7556 5.6778C11.8148 5.25854 11.722 4.83193 11.4941 4.47507" fill="#C1C5C7"/>
<path d="M13.0194 8.56574C12.9691 8.56649 12.9189 8.56322 12.8691 8.55597C12.8822 8.58847 12.8926 8.62197 12.9002 8.65614C12.9806 8.74555 13.0968 8.82594 13.1416 8.9464C13.1917 8.87928 13.2491 8.76408 13.3047 8.63786C13.2333 8.63786 13.1381 8.61432 13.0189 8.56599" fill="#FFC72C"/>
<path d="M6.69436 8.63762C6.74971 8.76284 6.80656 8.87904 6.8574 8.94616C6.90197 8.8257 7.01818 8.74581 7.09857 8.6559C7.10666 8.62185 7.11703 8.58838 7.12962 8.55573C7.07991 8.56326 7.02963 8.56653 6.97936 8.56549C6.86015 8.61383 6.76498 8.63662 6.69336 8.63737" fill="#FFC72C"/>
<path d="M12.1205 9.58902L11.9028 9.60605C11.7861 9.60605 11.6574 9.54169 11.5061 9.41296C11.3058 9.57049 11.1723 9.74679 10.7566 9.74679C10.5282 9.74679 10.5312 9.5502 10.5813 9.48734C10.3864 9.52215 10.2469 9.3789 10.3571 9.19483C10.7042 9.0929 10.7022 8.77334 11.0043 8.51113C11.3201 7.75606 11.2029 7.26796 11.4528 6.93537C11.9236 6.30928 12.0183 6.18206 12.3043 5.94364C12.6692 5.63385 12.7503 5.55471 13.0203 5.38166C12.5979 4.75982 11.9943 4.28309 11.2915 4.01627C11.5762 4.27572 11.7761 4.61491 11.8652 4.98962C11.9543 5.36433 11.9285 5.75719 11.7911 6.11701C11.6537 6.47683 11.4111 6.78692 11.0949 7.00687C10.7787 7.22683 10.4036 7.34645 10.0185 7.35014C9.63333 7.35384 9.25601 7.24144 8.93567 7.02759C8.61533 6.81375 8.36683 6.50837 8.22256 6.15125C8.07828 5.79414 8.04492 5.40184 8.12681 5.02549C8.20871 4.64914 8.40207 4.30618 8.6817 4.04131C8.67293 4.04131 8.66492 4.03881 8.65665 4.03755C7.97596 4.30755 7.39202 4.77571 6.98047 5.38141C7.24994 5.55446 7.33108 5.6336 7.69597 5.94339C7.98297 6.18181 8.07714 6.30853 8.54746 6.93512C8.7979 7.26771 8.68119 7.75581 8.99625 8.51088C9.29827 8.77309 9.29677 9.09265 9.64313 9.19458C9.75432 9.37865 9.61433 9.5219 9.41949 9.48709C9.46957 9.54995 9.47283 9.74654 9.24418 9.74654C8.82895 9.74654 8.69472 9.57124 8.49487 9.41271C8.34461 9.54144 8.21563 9.6058 8.09842 9.6058L7.88079 9.58877C7.64112 9.58877 7.45154 9.74654 7.20286 9.74654C7.19445 9.74607 7.18609 9.74507 7.17781 9.74354C7.52009 10.1615 7.95089 10.4982 8.43911 10.7294C8.92733 10.9606 9.4608 11.0806 10.001 11.0806C10.5412 11.0806 11.0747 10.9606 11.5629 10.7294C12.0511 10.4982 12.4819 10.1615 12.8242 9.74354C12.8159 9.74509 12.8076 9.7461 12.7992 9.74654C12.5502 9.74654 12.3609 9.58877 12.1212 9.58877" fill="#FFC72C"/>
<path d="M4.74086 1.73127H5.07669C5.17553 1.73127 5.27031 1.77053 5.3402 1.84042C5.41008 1.9103 5.44934 2.00509 5.44934 2.10392C5.44934 2.20275 5.41008 2.29754 5.3402 2.36743C5.27031 2.43731 5.17553 2.47657 5.07669 2.47657H4.91015V3.11469L5.48165 4.0035H6.12177L5.40326 2.88429C5.57334 2.83682 5.72306 2.73468 5.82929 2.59363C5.93553 2.45259 5.99237 2.28049 5.99104 2.10392C5.99104 1.65864 5.63818 1.29776 5.20291 1.29776H4.19189V4.00249H4.74086V1.73127Z" fill="#B91F31"/>
<path d="M11.5139 4.00249C11.9537 4.00249 12.3103 3.63811 12.3103 3.18757C12.3135 3.04768 12.2744 2.91009 12.1981 2.79282C12.1217 2.67555 12.0118 2.58409 11.8825 2.53042C11.9479 2.46924 11.9995 2.39492 12.0341 2.31234C12.0686 2.22976 12.0852 2.14081 12.0829 2.05133C12.0829 1.63485 11.7533 1.29776 11.3464 1.29776H10.3398V3.54569C10.6881 3.60804 11.0121 3.76622 11.2755 4.00249H11.5139ZM10.8891 1.73127H11.2214C11.3064 1.73127 11.3879 1.76504 11.4481 1.82516C11.5082 1.88528 11.5419 1.96681 11.5419 2.05183C11.5419 2.13685 11.5082 2.21838 11.4481 2.2785C11.3879 2.33862 11.3064 2.37239 11.2214 2.37239H11.1543V2.80615H11.3879C11.489 2.80615 11.586 2.84631 11.6575 2.91779C11.7289 2.98927 11.7691 3.08622 11.7691 3.18732C11.7691 3.28841 11.7289 3.38536 11.6575 3.45684C11.586 3.52833 11.489 3.56848 11.3879 3.56848H10.8891V1.73127Z" fill="#B91F31"/>
<path d="M15.8085 1.15903H15.3267V4.0025H15.8085V1.15903Z" fill="#B91F31"/>
<path d="M14.8725 1.15903H14.3906V4.0025H14.8725V1.15903Z" fill="#B91F31"/>
<path d="M13.2491 4.04934C13.7022 4.04934 14.0691 3.67368 14.0691 3.20962V2.31555H13.5882V3.24217C13.5882 3.33211 13.5525 3.41836 13.4889 3.48195C13.4253 3.54554 13.3391 3.58127 13.2491 3.58127C13.1592 3.58127 13.0729 3.54554 13.0093 3.48195C12.9458 3.41836 12.91 3.33211 12.91 3.24217V2.31555H12.4297V3.20962C12.4297 3.67318 12.7971 4.04934 13.2501 4.04934" fill="#B91F31"/>
<path d="M6.86981 4.04883C7.01932 4.0483 7.16626 4.00991 7.29693 3.93726C7.42761 3.86461 7.53776 3.76006 7.61712 3.63336L7.25148 3.39143C7.17284 3.54044 7.03135 3.64062 6.86981 3.64062C6.64843 3.64062 6.4651 3.45605 6.43155 3.21487H7.75887C7.76112 3.18983 7.76238 3.16278 7.76238 3.13649C7.76238 2.6321 7.36343 2.22339 6.87081 2.22339C6.3782 2.22339 5.979 2.6321 5.979 3.13649C5.979 3.64087 6.3757 4.04883 6.86981 4.04883ZM6.86981 2.6326C7.04637 2.6326 7.19864 2.74906 7.27051 2.91911H6.46911C6.54049 2.74906 6.69275 2.6326 6.86981 2.6326Z" fill="#B91F31"/>
<path d="M9.23182 2.39971C9.1642 2.32884 9.02396 2.2224 8.78855 2.2224C8.29719 2.2224 7.89648 2.63162 7.89648 3.136C7.89648 3.59405 8.22556 3.97171 8.65531 4.03758C8.66383 4.03883 8.67209 4.04058 8.68036 4.04208C8.96429 3.77163 9.32482 3.59548 9.71266 3.5377V1.15854H9.23182V2.39971ZM8.78855 3.63913C8.54412 3.63913 8.34577 3.41374 8.34577 3.136C8.34577 2.85826 8.54412 2.63262 8.78855 2.63262C9.03297 2.63262 9.23182 2.85801 9.23182 3.136C9.23182 3.41399 9.03347 3.63913 8.78855 3.63913Z" fill="#B91F31"/>
<path d="M5.55328 9.50487C5.67975 9.50487 5.7947 9.42974 5.7947 9.39193C5.7947 9.35411 5.7346 9.30052 5.72233 9.20735C5.71006 9.11419 5.65922 9.10718 5.63643 9.10718C5.61364 9.10718 5.46438 9.12646 5.37171 9.12646C5.27905 9.12646 5.26077 9.17304 5.3374 9.21512C5.43983 9.27147 5.45135 9.50462 5.55328 9.50462" fill="#B91F31"/>
<path d="M0.743503 9.60708C0.848437 9.60708 0.927575 9.46758 1.00596 9.3356C1.00596 9.3356 0.961635 9.23969 0.908291 9.23969C0.8274 9.23969 0.828652 9.29678 0.656601 9.39721C0.597998 9.43077 0.609268 9.47885 0.609268 9.52243C0.609268 9.56601 0.675885 9.60808 0.743503 9.60808" fill="#B91F31"/>
<path d="M0.446358 9.60883C0.309117 9.68821 0.324144 9.75633 0.310871 9.9061C0.303858 9.98248 0.239746 10.0115 0.239746 10.0631C0.239746 10.0992 0.475659 10.1423 0.475659 10.1423C0.534512 9.9091 0.589608 9.78288 0.589608 9.73229C0.589608 9.71075 0.485426 9.60883 0.446358 9.60883Z" fill="#B91F31"/>
<path d="M8.88401 8.58554C8.57097 7.87003 8.64159 7.29528 8.44049 7.01178C7.99145 6.39595 7.88952 6.27599 7.61154 6.04459C7.33355 5.81318 6.85271 5.34186 6.49208 5.34186C6.03077 5.34186 5.95639 5.61734 5.43623 5.75884C4.95013 5.89057 4.91883 5.99976 4.76305 6.15027C4.60728 6.30079 4.50861 6.26272 4.44074 6.25921C3.93736 6.25095 3.79461 6.76009 3.33405 6.81293C2.4475 6.83347 2.21735 7.57176 1.55594 7.57176C1.4949 7.5735 1.43413 7.56302 1.37719 7.54094C1.32026 7.51886 1.26831 7.48562 1.2244 7.44318C1.1805 7.40074 1.14551 7.34996 1.12151 7.29381C1.0975 7.23766 1.08496 7.17728 1.08462 7.11621C1.08462 6.57677 1.8745 6.43001 1.8745 5.97171C1.8745 5.68271 1.63132 5.58428 1.32078 5.53044C1.01024 5.47659 0.772069 5.2775 0.772069 5.2775C0.735506 5.33564 0.715025 5.40244 0.712715 5.47109C0.712715 5.73905 0.933601 6.01479 1.32278 6.01479C1.42997 6.01479 1.52088 6.03157 1.52088 6.10695C1.52088 6.32708 0.807381 6.49362 0.807381 7.11922C0.807381 7.47384 1.08537 7.85075 1.58825 7.85075C1.79235 7.85075 1.9321 7.78664 1.98895 7.78664C2.04054 7.78664 2.03904 7.84449 2.03904 8.04734C2.03904 8.28852 2.1342 8.47484 2.17502 8.58078C2.21585 8.68671 2.07861 8.7631 1.84945 8.86678C1.62581 8.88781 1.54142 8.83497 1.46353 9.05135C1.3904 9.25396 1.40968 9.32032 1.0488 9.52067C1.0488 9.52067 0.94437 9.74607 0.762302 9.75183C0.683585 9.86251 0.638457 9.99355 0.632324 10.1292C0.734002 10.137 0.809134 10.1771 0.9326 10.1771C1.22737 10.1771 1.20808 9.81343 1.39942 9.81343C1.45877 9.81343 1.52714 9.85 1.58649 9.85C1.65937 9.85 1.71171 9.81819 1.8735 9.73079C2.03528 9.64339 2.04054 9.50089 2.30726 9.50089C2.48582 9.50089 2.62932 9.55423 2.76581 9.55423C2.9887 9.55423 3.10014 9.38919 3.29173 9.3371C3.37262 9.31431 3.45226 9.15203 3.48356 9.07589C3.52363 8.97897 3.59426 8.93264 3.59426 8.81894C3.56921 8.7939 3.53866 8.75057 3.49959 8.75057C3.28847 9.13625 3.00072 9.32107 2.46203 9.3058C1.96115 9.29202 1.70921 9.5104 1.56045 9.65766C1.50886 9.72052 1.4753 9.6534 1.49684 9.62485C1.64435 9.37742 1.90981 9.20362 2.44475 9.18909C3.11717 9.17006 3.34783 8.74206 3.3894 8.55398C3.44675 8.1926 3.47129 7.94692 3.52363 7.94692C3.55594 7.94692 3.58048 7.96846 3.58048 7.98824C3.58048 8.135 3.40518 8.73354 3.85597 8.73354C4.01775 8.73354 4.1049 8.67494 4.32103 8.67494C4.56846 8.67494 4.64009 8.75809 5.03353 8.75809C5.13145 8.75809 5.18579 8.73079 5.18579 8.67795C5.18579 8.62511 5.09063 8.40472 5.19831 8.40472C5.27996 8.40472 5.21334 8.60181 5.4465 8.78689C5.65586 8.95318 5.98669 9.08291 5.98669 9.36765C5.98669 9.50439 5.73626 9.63988 5.51487 9.63988C5.29924 9.63988 5.22261 9.1345 4.97567 9.1345C4.72198 9.1345 4.60002 9.16204 4.60002 9.23642C4.60002 9.27349 4.80663 9.60557 4.80663 9.60557C4.83017 9.63262 4.92609 9.61985 4.96315 9.61985C5.12969 9.61985 5.10916 9.99049 5.42346 9.99049C5.54692 9.99049 5.94187 9.84223 6.2449 9.69623C6.43974 9.69798 6.53991 9.69122 6.6178 9.56375C6.69568 9.43627 6.79461 9.29628 6.79461 9.1951C6.79461 9.09393 6.77658 9.0536 6.71722 8.97346C6.65787 8.89332 6.58349 8.72303 6.53741 8.59656C6.46503 8.56575 6.34883 8.51416 6.28346 8.59029L6.54768 9.11621C6.63333 9.29152 6.40493 9.54471 6.35584 9.54471C6.30675 9.54471 6.44775 9.23367 6.41394 9.17306L6.1024 8.61033C6.03478 8.48837 6.14071 8.45456 6.22461 8.44279C6.48256 8.40747 6.5592 8.29528 6.67064 7.8207C6.68366 7.74081 6.74577 7.73905 6.74577 7.89207C6.74577 8.17306 6.66463 8.31631 6.60052 8.41098C6.54542 8.49287 6.65762 8.56725 6.9609 8.43427C7.18304 8.44579 7.36511 8.33961 7.36511 8.41799C7.29117 8.5077 7.23966 8.61372 7.21484 8.72728C7.06032 8.8808 6.96866 8.95268 6.96866 9.05285C6.96866 9.16079 7.12068 9.00802 7.12068 9.11171C7.12068 9.14401 7.00222 9.23092 7.00222 9.3356C7.00677 9.38336 7.01514 9.43068 7.02727 9.4771C7.02727 9.4771 7.02426 9.61609 7.20257 9.61609C7.44399 9.61609 7.59275 9.45856 7.88026 9.45856C7.93961 9.45856 8.06057 9.47534 8.09839 9.47534C8.22361 9.47534 8.36886 9.35714 8.46804 9.26497C8.62932 9.25846 8.733 9.61559 9.24439 9.61559C9.28822 9.61559 9.38765 9.58604 9.24439 9.51541C8.74602 9.26723 8.9629 9.1648 8.64935 8.76235C8.6183 8.71226 8.61054 8.68321 8.68166 8.71501C8.96766 8.84549 9.01023 9.35864 9.43999 9.35864C9.48181 9.35864 9.57472 9.36039 9.54542 9.29753C9.16075 9.1375 9.19306 8.84674 8.88452 8.58654M6.76956 6.98924L6.74327 6.99225C6.66939 6.51641 6.54292 6.52368 6.54292 6.41799C6.54237 6.4095 6.54357 6.40098 6.54647 6.39297C6.54936 6.38496 6.55387 6.37764 6.55973 6.37145C6.56558 6.36527 6.57265 6.36036 6.58048 6.35704C6.58832 6.35371 6.59676 6.35204 6.60528 6.35213C6.71898 6.35213 6.86648 6.66568 6.76956 6.98924ZM7.86849 9.15428C7.80387 9.15428 7.7906 9.1375 7.7906 9.12548C7.7906 9.08491 7.89929 8.92187 8.01224 8.92187C8.04229 8.92187 8.07059 8.92413 8.07059 8.9915C8.07059 9.12723 8.03027 9.15428 7.86849 9.15428ZM8.3611 8.34286C8.30801 8.34286 8.32629 8.28526 8.31727 8.21764C8.30024 8.08766 8.16 7.89808 8.06458 7.89808C7.98068 7.89808 7.90154 8.06237 7.87926 8.04835C7.85296 7.98649 7.88251 7.91787 7.90981 7.87304C7.99972 7.72703 7.99972 7.6246 8.06333 7.6246C8.17052 7.6246 8.17953 7.72879 8.2732 7.83347C8.36686 7.93815 8.42471 8.05536 8.42471 8.14752C8.42471 8.23968 8.39766 8.34411 8.3611 8.34411" fill="#B91F31"/>
<path d="M14.3636 9.10745C14.3408 9.10745 14.2884 9.11346 14.2779 9.20763C14.2674 9.30179 14.2061 9.35438 14.2061 9.3927C14.2061 9.43102 14.3205 9.50565 14.4467 9.50565C14.5489 9.50565 14.5602 9.27249 14.6626 9.21614C14.7392 9.17407 14.7212 9.12749 14.6285 9.12749C14.5359 9.12749 14.3864 9.1082 14.3636 9.1082" fill="#B91F31"/>
<path d="M19.3442 9.39694C19.1722 9.29676 19.1732 9.23941 19.0925 9.23941C19.039 9.23941 18.9946 9.33533 18.9946 9.33533C19.0733 9.46756 19.1524 9.6068 19.2573 9.6068C19.3245 9.6068 19.3913 9.56398 19.3913 9.52115C19.3913 9.47833 19.4023 9.43049 19.3442 9.39593" fill="#B91F31"/>
<path d="M19.6901 9.90585C19.6771 9.75558 19.6921 9.68796 19.5544 9.60883C19.5153 9.60883 19.4111 9.711 19.4111 9.73229C19.4111 9.78238 19.4657 9.9091 19.5251 10.1425C19.5251 10.1425 19.7615 10.0989 19.7615 10.0629C19.7615 10.0113 19.6969 9.98273 19.6901 9.90585Z" fill="#B91F31"/>
<path d="M18.9518 9.52092C18.5911 9.32057 18.6102 9.25421 18.537 9.0516C18.4592 8.83472 18.3753 8.88756 18.1516 8.86653C17.9222 8.76285 17.785 8.68671 17.826 8.58053C17.8671 8.47434 17.9625 8.28877 17.9625 8.04734C17.9625 7.84424 17.9608 7.78664 18.0126 7.78664C18.0705 7.78664 18.2097 7.85075 18.4133 7.85075C18.9162 7.85075 19.1942 7.47384 19.1942 7.11947C19.1942 6.49337 18.4812 6.32733 18.4812 6.1067C18.4812 6.03157 18.5724 6.01504 18.679 6.01504C19.068 6.01504 19.2896 5.73956 19.2896 5.47109C19.2872 5.40238 19.2666 5.33555 19.2298 5.2775C19.2298 5.2775 18.9918 5.47785 18.6813 5.53044C18.3708 5.58303 18.1276 5.68296 18.1276 5.97196C18.1276 6.42976 18.917 6.57652 18.917 7.11647C18.9167 7.17754 18.9043 7.23795 18.8803 7.29414C18.8564 7.35033 18.8215 7.40116 18.7776 7.44365C18.7337 7.48614 18.6818 7.51943 18.6249 7.54156C18.568 7.56369 18.5072 7.57422 18.4461 7.57251C17.7832 7.57251 17.5531 6.83422 16.6663 6.81343C16.206 6.76009 16.0627 6.2512 15.5603 6.25997C15.4915 6.26322 15.3933 6.30254 15.2375 6.15103C15.0817 5.99951 15.0499 5.89082 14.5643 5.75959C14.0437 5.61884 13.9693 5.34261 13.5085 5.34261C13.1476 5.34261 12.667 5.81419 12.3885 6.04509C12.11 6.27599 12.0096 6.3957 11.5603 7.01228C11.36 7.29578 11.4291 7.87053 11.1163 8.58604C10.808 8.84649 10.8408 9.137 10.4551 9.29678C10.4263 9.36014 10.5193 9.35839 10.5606 9.35839C10.9908 9.35839 11.0329 8.84524 11.3194 8.71476C11.39 8.68296 11.3828 8.71101 11.3512 8.76159C11.0382 9.1638 11.2553 9.26623 10.7567 9.51466C10.6134 9.58604 10.7123 9.61609 10.7567 9.61609C11.2673 9.61609 11.3715 9.25821 11.533 9.26422C11.6332 9.35663 11.7785 9.47509 11.9034 9.47509C11.9402 9.47509 12.0612 9.45781 12.1206 9.45781C12.4081 9.45781 12.5568 9.61559 12.799 9.61559C12.9763 9.61559 12.9726 9.47634 12.9726 9.47634C12.9847 9.42986 12.9931 9.38245 12.9976 9.3346C12.9976 9.23016 12.8791 9.14376 12.8791 9.11146C12.8791 9.00777 13.0319 9.16154 13.0319 9.0526C13.0319 8.95243 12.9402 8.8813 12.785 8.72703C12.7601 8.61356 12.7086 8.50762 12.6347 8.41799C12.6347 8.33986 12.8163 8.44604 13.0379 8.43452C13.3412 8.567 13.4534 8.49237 13.3983 8.41123C13.3347 8.31656 13.253 8.17331 13.253 7.89232C13.253 7.7388 13.3144 7.74056 13.3282 7.82095C13.4399 8.29503 13.5165 8.40772 13.7742 8.44304C13.8581 8.45431 13.9645 8.48862 13.8964 8.61033L13.5854 9.17256C13.5518 9.23367 13.6901 9.54471 13.6435 9.54471C13.5969 9.54471 13.3655 9.29177 13.4511 9.11621L13.7154 8.59029C13.65 8.51516 13.5343 8.56525 13.4619 8.59681C13.4156 8.72202 13.3409 8.89282 13.2821 8.97246C13.2232 9.0521 13.2057 9.09493 13.2057 9.19535C13.2057 9.29578 13.3046 9.43652 13.383 9.564C13.4614 9.69147 13.5616 9.69823 13.7559 9.69648C14.0592 9.84223 14.4539 9.99074 14.5774 9.99074C14.8922 9.99074 14.8711 9.61935 15.0382 9.61935C15.075 9.61935 15.1707 9.63287 15.1947 9.60532C15.1947 9.60532 15.4008 9.27349 15.4008 9.23642C15.4008 9.16129 15.2786 9.1345 15.0251 9.1345C14.7785 9.1345 14.7021 9.63963 14.487 9.63963C14.2636 9.63963 14.0141 9.50464 14.0141 9.3679C14.0141 9.08241 14.345 8.95343 14.5543 8.78689C14.7885 8.60156 14.7209 8.40447 14.8028 8.40447C14.9107 8.40447 14.815 8.62561 14.815 8.6782C14.815 8.73079 14.8699 8.75809 14.9678 8.75809C15.361 8.75809 15.4326 8.67519 15.6803 8.67519C15.8959 8.67519 15.9836 8.73354 16.1449 8.73354C16.5979 8.73354 16.4221 8.13475 16.4221 7.98799C16.4221 7.96871 16.4471 7.94717 16.4784 7.94717C16.5308 7.94717 16.5553 8.19285 16.6129 8.55423C16.6552 8.74181 16.8849 9.17031 17.5578 9.18884C18.0923 9.20387 18.3592 9.37767 18.5052 9.6251C18.5268 9.6534 18.4937 9.72052 18.4416 9.65741C18.2944 9.51065 18.0432 9.29202 17.5415 9.3068C17.0016 9.32233 16.7151 9.137 16.5032 8.75057C16.4642 8.75057 16.4336 8.79365 16.4091 8.81894C16.4091 8.93239 16.4792 8.97847 16.5198 9.07589C16.5506 9.15103 16.6302 9.31406 16.7111 9.3366C16.9017 9.38844 17.0136 9.55373 17.237 9.55373C17.3733 9.55373 17.517 9.50089 17.6956 9.50089C17.9623 9.50089 17.9683 9.64339 18.1288 9.73104C18.2894 9.81869 18.3432 9.85075 18.4163 9.85075C18.4752 9.85075 18.5436 9.81394 18.6029 9.81394C18.7945 9.81394 18.7755 10.1771 19.0697 10.1771C19.1927 10.1771 19.2676 10.138 19.3703 10.1302C19.3542 9.89232 19.2398 9.75308 19.2398 9.75308C19.0582 9.74782 18.9533 9.52192 18.9533 9.52192M11.6835 8.21739C11.6748 8.28526 11.6926 8.34261 11.6395 8.34261C11.6029 8.34261 11.5759 8.23818 11.5759 8.14602C11.5759 8.05386 11.6345 7.93615 11.7276 7.83172C11.8208 7.72728 11.8306 7.62335 11.9377 7.62335C12.0014 7.62335 12.0009 7.72578 12.0913 7.87154C12.1188 7.91586 12.1476 7.98473 12.1213 8.04684C12.0995 8.06187 12.0199 7.89783 11.9365 7.89783C11.8408 7.89783 11.7003 8.08766 11.6835 8.21764M12.1321 9.15428C11.9703 9.15428 11.93 9.12748 11.93 8.9915C11.93 8.92413 11.9588 8.92187 11.9886 8.92187C12.1013 8.92187 12.2105 9.08491 12.2105 9.12573C12.2105 9.1375 12.1967 9.15428 12.1321 9.15428ZM13.2573 6.99275L13.2323 6.98924C13.1358 6.66568 13.2823 6.35263 13.397 6.35263C13.4055 6.35251 13.414 6.35415 13.4218 6.35744C13.4297 6.36074 13.4367 6.36562 13.4426 6.37179C13.4484 6.37795 13.453 6.38526 13.4559 6.39326C13.4588 6.40125 13.46 6.40976 13.4594 6.41824C13.4594 6.52418 13.3324 6.51692 13.2591 6.99275" fill="#B91F31"/>
<path d="M3.05225 6.70923C3.12189 6.6956 3.19246 6.68723 3.26337 6.68419V0.34309H16.7372V6.68519C16.8082 6.68828 16.8788 6.69665 16.9486 6.71023V0.13147H3.05225V6.70923Z" fill="#182852"/>
<path d="M16.737 11.3196C16.737 12.9539 13.588 15.6579 10.0002 15.6579C6.4124 15.6579 3.26339 12.9532 3.26339 11.3196V9.48636C3.19402 9.51892 3.1279 9.56775 3.05127 9.60807V11.3196C3.05127 13.0636 6.30046 15.8693 10.0004 15.8693C13.7004 15.8693 16.9486 13.0644 16.9486 11.3196V9.60807C16.8735 9.56775 16.8066 9.51942 16.7375 9.48636L16.737 11.3196Z" fill="#182852"/>
<path d="M16.637 6.67769V0.445038H3.36377V6.67769C3.46795 6.65841 3.59793 6.57577 3.76272 6.43252V0.842483H16.2375V6.43252C16.4023 6.57577 16.5323 6.65791 16.636 6.67769" fill="#182852"/>
<path d="M3.36475 11.3195C3.36475 12.9156 6.46592 15.5565 10.0014 15.5565C13.5368 15.5565 16.6367 12.9156 16.6367 11.3195V9.44126C16.4241 9.31604 16.2813 8.94389 16.2813 8.84021C16.2668 8.84422 16.2525 8.84747 16.2383 8.85148V11.3193C16.2383 12.5833 13.351 15.1578 10.0024 15.1578C6.65375 15.1578 3.76269 12.5835 3.76269 11.3195V8.85173C3.74892 8.84772 3.73389 8.84447 3.71987 8.84046C3.71987 8.94464 3.57737 9.31629 3.36475 9.44151V11.3195Z" fill="#182852"/>
<path d="M5.0814 12.5645L6.9697 10.865L6.79339 10.6692L5.60406 11.7784L6.60757 10.4628L6.44103 10.2782L4.55322 11.978L4.72903 12.173L5.91836 11.0641L4.91461 12.3794L5.0814 12.5645Z" fill="#182852"/>
<path d="M7.74282 11.7799L7.89308 11.5642L7.46107 11.2617C7.404 11.2218 7.33348 11.2061 7.26489 11.2181C7.1963 11.23 7.13521 11.2685 7.09493 11.3253L5.94016 12.9752C5.92018 13.0035 5.906 13.0355 5.89843 13.0693C5.89086 13.1031 5.89006 13.1381 5.89607 13.1722C5.90207 13.2064 5.91477 13.239 5.93343 13.2681C5.95208 13.2973 5.97633 13.3226 6.00477 13.3424L6.43578 13.6429L6.58604 13.4278L6.15504 13.1252L6.65591 12.408L6.97973 12.6349L7.12999 12.4192L6.80668 12.1926L7.30755 11.4758L7.74282 11.7799Z" fill="#182852"/>
<path d="M8.28104 14.456L9.18838 12.0804L8.93569 11.9942L8.31711 13.7488C8.41002 13.3366 8.43707 13.0488 8.49041 12.7626L8.2823 12.6905C8.14806 12.9494 7.99279 13.1928 7.81247 13.575L8.40451 11.8109L8.15182 11.7248L7.40576 14.154L7.63817 14.2332L8.27053 13.0746L8.04864 14.3752L8.28104 14.456Z" fill="#182852"/>
<path d="M11.0834 13.0791L10.9582 12.0551L10.697 12.0869L10.836 13.2206L10.5745 13.2529L10.435 12.1197L10.1743 12.151L10.2995 13.1755C10.3333 13.4538 10.6061 13.5141 10.6061 13.5141L10.7448 14.6411L11.0058 14.6098L10.8678 13.4828C10.8678 13.4828 11.1182 13.3629 11.0834 13.0801" fill="#182852"/>
<path d="M12.1364 13.9607C12.1757 14.0578 12.252 14.1354 12.3484 14.1764C12.4449 14.2173 12.5537 14.2182 12.6509 14.1789C12.7481 14.1396 12.8257 14.0634 12.8666 13.9669C12.9075 13.8704 12.9085 13.7616 12.8692 13.6644L12.1972 12.0015C12.1573 11.9053 12.0811 11.8288 11.985 11.7885C11.889 11.7483 11.781 11.7476 11.6844 11.7867C11.5879 11.8257 11.5107 11.9013 11.4696 11.9969C11.4285 12.0926 11.4268 12.2006 11.465 12.2975L12.1364 13.9607ZM11.911 11.998L12.6651 13.8653L12.4211 13.9654L11.6681 12.0967L11.911 11.998Z" fill="#182852"/>
<path d="M14.2217 13.0226C14.2648 13.0733 14.3192 13.1133 14.3805 13.1393L14.5959 12.976C14.5288 12.9469 14.4742 12.9209 14.4316 12.8643L13.9222 12.1881C13.8275 12.0629 13.7527 12.0521 13.6868 12.0711C13.7166 12.0045 13.7316 11.9346 13.6585 11.8387L13.1744 11.1964C13.1537 11.1685 13.1277 11.145 13.0979 11.1273C13.068 11.1095 13.035 11.0979 13.0006 11.093C12.9663 11.0881 12.9313 11.0901 12.8977 11.0989C12.8641 11.1077 12.8326 11.123 12.805 11.144L12.3848 11.4613L13.9124 13.4899L14.1223 13.3316L13.4371 12.4218L13.6475 12.2635L14.2217 13.0226ZM13.2808 12.2119L12.7549 11.5129L12.9658 11.3546L13.4917 12.0536L13.2808 12.2119Z" fill="#182852"/>
<path d="M14.8297 11.3506C14.9735 11.4706 15.4085 11.8355 15.4085 11.8355C15.4085 11.8355 15.5004 11.9211 15.6003 11.9211L15.7741 11.7145C15.6881 11.7011 15.6078 11.6632 15.5427 11.6053L15.0604 11.2014C15.0604 11.2014 14.7406 10.9031 14.4618 11.2357C14.4618 11.2357 14.7033 10.9018 14.3426 10.5996L13.9151 10.2414C13.8722 10.1969 13.8424 10.1415 13.8287 10.0811L13.6564 10.2885C13.6832 10.3587 13.7261 10.4215 13.7817 10.4721L14.2708 10.8813C14.2708 10.8813 14.4636 11.0266 14.2875 11.2367L13.4491 10.5354L13.2803 10.7358L15.2277 12.3674L15.395 12.167L14.4941 11.4117C14.4941 11.4117 14.6614 11.2099 14.8297 11.3506Z" fill="#182852"/>
<path d="M10.7654 6.88955L10.6355 6.52391L10.6169 6.47131L9.85034 6.4921L9.61994 6.81466L9.54932 6.91359C9.54932 6.91359 9.75993 7.07237 10.1253 7.152C10.1253 7.152 10.4744 7.0621 10.7644 6.88955" fill="#182852"/>
<path d="M11.5463 5.64414C11.5746 5.25571 11.5548 5.04309 11.5391 4.94717C11.5361 4.92591 11.5316 4.90489 11.5255 4.88431C11.3565 4.74632 10.9974 4.57727 10.9974 4.57727C10.8691 4.76419 10.7547 4.96031 10.6553 5.16405C10.8105 5.48962 11.0209 5.84474 11.0209 5.84474C11.1316 5.81771 11.24 5.78229 11.3452 5.7388C11.4138 5.71124 11.4807 5.67963 11.5456 5.64414" fill="#182852"/>
<path d="M9.89161 5.17706C9.89161 5.17706 9.67047 4.8247 9.43957 4.56174C9.43957 4.56174 8.95247 4.77937 8.77265 4.87328C8.75068 5.13966 8.75311 5.4075 8.77992 5.67343C8.77992 5.67343 9.06291 5.77361 9.47764 5.87378C9.47764 5.87378 9.78492 5.38368 9.89161 5.17681" fill="#182852"/>
<path d="M8.28564 4.97695L8.5158 4.65389L8.80055 4.12521C8.55091 4.35388 8.3722 4.64942 8.28564 4.9767" fill="#182852"/>
<path d="M10.5587 4.0303L10.6569 3.78312C10.2674 3.62899 9.83608 3.61676 9.43848 3.74856L9.77782 4.02004C10.0379 4.00015 10.2992 4.00359 10.5587 4.0303Z" fill="#182852"/>
<path d="M8.86282 6.79214L8.9347 6.73404L8.89588 6.67093L8.54877 6.10819L8.26953 5.82144C8.35518 6.20144 8.5637 6.54261 8.86282 6.79214Z" fill="#182852"/>
</g>
<defs>
<clipPath id="clip0_795_1845">
<rect width="19.7846" height="16" fill="white" transform="translate(0.10791)"/>
</clipPath>
</defs>
</svg>
