<svg width="18" height="16" viewBox="0 0 18 16" fill="none" xmlns="http://www.w3.org/2000/svg">
<g clip-path="url(#clip0_2_7446)">
<path d="M15.7713 14.5613C15.5475 14.5613 15.3657 14.7428 15.3657 14.9668C15.3657 15.1905 15.5475 15.3722 15.7713 15.3722C15.9951 15.3722 16.1766 15.1905 16.1766 14.9668C16.1766 14.7428 15.9951 14.5613 15.7713 14.5613ZM15.7713 15.2852C15.7295 15.2853 15.6881 15.2771 15.6494 15.2611C15.6107 15.2451 15.5756 15.2216 15.546 15.192C15.5165 15.1625 15.493 15.1273 15.477 15.0887C15.461 15.05 15.4528 15.0086 15.4529 14.9668C15.4529 14.7908 15.5951 14.6486 15.7713 14.6486C15.9473 14.6486 16.0897 14.7908 16.0897 14.9668C16.0897 15.1428 15.9473 15.2852 15.7713 15.2852ZM15.9379 14.8728C15.9379 14.8548 15.9343 14.8369 15.9274 14.8202C15.9205 14.8035 15.9103 14.7884 15.8976 14.7756C15.8717 14.7499 15.8368 14.7354 15.8003 14.7355H15.605V15.1982H15.6918V15.0103H15.7541L15.8419 15.1982H15.9379L15.8463 15.0023C15.873 14.9928 15.8962 14.9752 15.9126 14.952C15.929 14.9289 15.9378 14.9012 15.9379 14.8728ZM15.8003 14.9234H15.6918V14.8221H15.8003C15.8282 14.8221 15.851 14.8448 15.851 14.8728C15.851 14.8862 15.8457 14.8991 15.8361 14.9086C15.8266 14.9181 15.8137 14.9234 15.8003 14.9234ZM16.0932 2.22344L17.3456 0H13.1563L12.5557 0.584055L11.955 0H6.09389L5.49321 0.584055L4.89262 0H0.703125L1.95594 2.22344V13.023C1.95594 13.2403 1.95594 14.9361 4.00516 14.9361H7.2467C8.41043 14.9361 8.97762 16 8.97762 16H9.07114C9.07114 16 9.63849 14.9361 10.8022 14.9361H14.0437C16.0929 14.9361 16.0932 13.2403 16.0932 13.023V2.22344Z" fill="#154B94"/>
<path d="M7.91113 5.37061L15.1512 10.6141V5.37061H7.91113Z" fill="#C32032"/>
<path d="M2.89746 4.6324H15.1517V4.92789H2.89746V4.6324ZM2.89746 13.023C2.89746 13.8842 3.48935 13.9948 4.00522 13.9948H7.24676C7.98444 13.9948 8.58136 14.3819 9.02436 14.7375C9.46747 14.3819 10.0644 13.9948 10.8023 13.9948H11.9763L2.89746 7.41957V13.023ZM2.89746 6.81081L12.8168 13.9948H13.2386L2.89746 6.50519V6.81081ZM6.64912 5.37075L15.1517 11.5289V11.2234L7.07106 5.37075H6.64912ZM10.1555 11.2072L10.8728 11.7267L11.0817 11.4385L10.6577 11.1314L10.9958 10.6644L11.4198 10.9716L11.6285 10.683L11.2047 10.3762L11.543 9.90941L11.9667 10.2163L12.1756 9.92779L11.4581 9.40827L10.1555 11.2072ZM6.56422 5.86367L5.90071 5.38343L4.59792 7.18213L4.89128 7.39494L5.47457 6.58935L5.63844 6.708L5.36303 7.73654L5.65671 7.94903L5.93522 6.90805C6.11906 6.98386 6.33741 6.92705 6.45933 6.75919L6.66263 6.47827C6.80498 6.28159 6.76101 6.00643 6.56425 5.86367H6.56422ZM6.32925 6.32078L6.20536 6.49146C6.19366 6.50764 6.17889 6.52136 6.16189 6.53182C6.14489 6.54229 6.12599 6.5493 6.10628 6.55246C6.08656 6.55562 6.06642 6.55487 6.047 6.55024C6.02758 6.54562 6.00926 6.53722 5.99309 6.52551L5.68355 6.30102L5.98552 5.88427L6.29525 6.10854C6.32788 6.13219 6.34979 6.16783 6.35616 6.20763C6.36253 6.24742 6.35286 6.28812 6.32925 6.32078ZM12.3679 12.8094L12.6464 11.7684C12.8301 11.8444 13.0485 11.7878 13.1704 11.6196L13.3739 11.3388C13.5163 11.1422 13.4723 10.8669 13.2757 10.7243L12.6119 10.2438L11.3088 12.0425L11.6026 12.2554L12.1859 11.45L12.3494 11.5685L12.0744 12.597L12.3679 12.8094ZM12.6966 10.7448L13.0064 10.9691C13.039 10.9927 13.0609 11.0284 13.0673 11.0682C13.0737 11.108 13.0641 11.1487 13.0405 11.1814L12.9167 11.352C12.8676 11.42 12.7726 11.4351 12.7045 11.386L12.3946 11.1615L12.6966 10.7448ZM8.63385 7.36284L7.3309 9.1617L7.62458 9.37435L8.40674 8.29435L8.09617 9.71584L8.38969 9.92843L9.69247 8.12943L9.39904 7.917L8.6169 8.9967L8.92739 7.57516L8.63385 7.36284ZM5.85444 8.0923L6.14806 8.30503L6.5186 8.00724L7.00685 8.36095L6.83971 8.80578L7.13322 9.01843L7.94328 6.86284L7.65001 6.6501L5.85447 8.09227L5.85444 8.0923ZM7.11749 8.06662L6.76347 7.8104L7.40855 7.2923L7.11749 8.06662ZM10.6985 8.85797L10.4526 8.67987C10.2555 8.53738 9.98063 8.58124 9.83804 8.77787L9.05136 9.86435C8.90877 10.061 8.95271 10.3361 9.14974 10.4787L9.39558 10.6568C9.45601 10.7005 9.52655 10.7281 9.60058 10.7372L9.59542 10.8015L9.75174 10.9151L10.4484 9.95314L9.8769 9.539L9.69923 9.78452L9.97726 9.98581L9.75617 10.2908C9.73858 10.3152 9.71416 10.3338 9.686 10.3442C9.65784 10.3547 9.62721 10.3566 9.59798 10.3497C9.57858 10.345 9.56027 10.3366 9.54412 10.3249L9.41863 10.2339C9.3508 10.1848 9.33539 10.0896 9.38471 10.0219L10.0915 9.04576C10.1032 9.02958 10.118 9.01588 10.135 9.00542C10.152 8.99496 10.1709 8.98796 10.1906 8.98481C10.2103 8.98166 10.2305 8.98242 10.2499 8.98706C10.2693 8.9917 10.2876 9.00012 10.3038 9.01184L10.4292 9.10257C10.4618 9.1262 10.4837 9.16181 10.4902 9.20158C10.4966 9.24135 10.487 9.28204 10.4634 9.31473L10.2909 9.55284L10.5844 9.76552L10.7966 9.47233C10.9391 9.27562 10.8953 9.00065 10.6985 8.85797ZM14.3692 11.5165C14.1006 11.3218 13.7251 11.3818 13.5307 11.6505C13.178 12.1375 13.8587 12.7288 13.6735 12.9846C13.5867 13.1044 13.4192 13.1314 13.2992 13.0443C13.1794 12.9579 13.1526 12.7903 13.2394 12.6703L13.3241 12.5533L13.0307 12.3407L12.9495 12.4525C12.7455 12.7345 12.8085 13.1288 13.0905 13.3328C13.3724 13.5368 13.7665 13.474 13.9706 13.1919C14.32 12.7097 13.6394 12.1179 13.8279 11.8578C13.8462 11.8325 13.8693 11.8111 13.896 11.7947C13.9226 11.7783 13.9522 11.7674 13.9831 11.7625C14.014 11.7575 14.0455 11.7588 14.0759 11.766C14.1063 11.7733 14.135 11.7865 14.1603 11.8048C14.2669 11.8818 14.2907 12.0306 14.2136 12.1374L14.1431 12.2344L14.4366 12.447L14.503 12.3549C14.6977 12.0864 14.6379 11.7108 14.3692 11.5165ZM5.68255 3.90691H5.15909V3.33034H5.68255V2.97434H5.15909V2.39796H5.68255V2.04153H4.79668V4.26291H5.68255V3.90691ZM12.2829 3.26853H12.4849L12.8654 4.26291H13.2279L12.8426 3.25634C13.0362 3.20991 13.1797 3.03626 13.1797 2.82848V2.48177C13.1797 2.2388 12.9829 2.04156 12.74 2.04156H11.9204V4.26291H12.2828L12.2829 3.26853ZM12.2829 2.39796H12.6653C12.7494 2.39796 12.8175 2.46588 12.8175 2.54969V2.76045C12.8175 2.80082 12.8015 2.83954 12.7729 2.86809C12.7444 2.89664 12.7057 2.91269 12.6653 2.91269H12.2829V2.39796ZM3.3753 2.92932L3.95773 4.26291H4.3203V2.04156H3.95771V3.3754L3.3753 2.04156H3.01308V4.26291H3.37533L3.3753 2.92932ZM10.8649 4.26291H11.1682C11.4115 4.26291 11.6085 4.06575 11.6085 3.82286V2.48177C11.6085 2.2388 11.4114 2.0415 11.1682 2.0415H10.8649C10.6217 2.0415 10.4246 2.23883 10.4246 2.48177V3.82286C10.4246 4.06575 10.6218 4.26291 10.8649 4.26291ZM10.7871 2.54967C10.7871 2.46588 10.8551 2.39796 10.939 2.39796H11.094C11.124 2.3979 11.1534 2.40677 11.1784 2.42344C11.2034 2.44011 11.2229 2.46383 11.2344 2.49159C11.242 2.50999 11.246 2.52975 11.246 2.54969V3.75502C11.246 3.77497 11.242 3.79473 11.2344 3.81316C11.2268 3.8316 11.2156 3.84834 11.2014 3.86245C11.1873 3.87655 11.1706 3.88774 11.1521 3.89537C11.1337 3.903 11.1139 3.90692 11.094 3.90691H10.939C10.8988 3.90688 10.8601 3.89087 10.8317 3.86239C10.8032 3.83391 10.7872 3.7953 10.7871 3.75502V2.54967ZM13.9892 3.34329L14.1516 3.08237L14.6737 4.26291H15.0361L14.3639 2.74226L14.801 2.04153H14.4385L13.9892 2.76215V2.04156H13.6267V4.26291H13.9892V3.34329ZM9.38552 4.26291H9.74804V3.34329L10.2264 2.04153H9.86398L9.56658 2.85037L9.26928 2.04153H8.90685L9.38555 3.34329L9.38552 4.26291ZM6.82249 4.26291L7.01244 3.09859L7.20239 4.26291H7.63593L7.99852 2.04156H7.63593L7.41941 3.37037L7.20239 2.04153H6.82249L6.60563 3.37037L6.38911 2.04153H6.02652L6.38911 4.26291H6.82249Z" fill="white"/>
<path d="M13.1985 0.104492L12.5554 0.730034L11.9123 0.104492H6.13603L5.49295 0.730034L4.84987 0.104492H0.881836L2.06032 2.19593V13.0231C2.06032 13.567 2.24968 14.8317 4.00489 14.8317H7.24641C8.28733 14.8317 8.86547 15.6317 9.02404 15.8848C9.18293 15.6317 9.76107 14.8317 10.802 14.8317H14.0434C15.7987 14.8317 15.9883 13.567 15.9883 13.0231V2.19593L17.1666 0.104492H13.1985ZM15.5105 2.07087V13.0231C15.5105 13.6302 15.256 14.3538 14.0434 14.3538H10.802C9.97818 14.3538 9.39163 14.8168 9.02404 15.185C8.65701 14.8168 8.07014 14.3538 7.24641 14.3538H4.00492C2.79251 14.3538 2.53789 13.6302 2.53789 13.0231V2.0709L1.69916 0.58225H4.65592L5.49295 1.3962L6.33011 0.582277H11.7183L12.5554 1.3962L13.3924 0.582277H16.3492L15.5105 2.0709L15.5105 2.07087Z" fill="white"/>
</g>
<defs>
<clipPath id="clip0_2_7446">
<rect width="16.6425" height="16" fill="white" transform="translate(0.703125)"/>
</clipPath>
</defs>
</svg>
