<svg width="12" height="16" viewBox="0 0 12 16" fill="none" xmlns="http://www.w3.org/2000/svg">
<g clip-path="url(#clip0_795_1375)">
<path d="M11.4879 1.81703C10.9857 2.17546 10.0311 2.66831 8.79804 2.36465C6.66506 1.83696 6.05352 0 6.05352 0C6.05352 0 5.44198 1.84194 3.309 2.36465C2.07596 2.66831 1.12135 2.18044 0.619176 1.81703H0.236328V11.7386C0.236328 11.9875 0.296006 12.4854 0.703701 12.9782C1.20587 13.5905 2.05609 13.9838 3.23442 14.1531C4.17411 14.2875 4.86524 14.5862 5.35248 15.0541C5.71045 15.4026 6.05352 16 6.05352 16C6.05352 16 6.40655 15.3877 6.75456 15.0541C7.2418 14.5812 7.9379 14.2875 8.87261 14.1531C10.051 13.9838 10.9012 13.5856 11.4033 12.9782C11.811 12.4854 11.8707 11.9875 11.8707 11.7386V1.81703H11.4879Z" fill="white"/>
<path d="M11.5228 2.20531C11.5228 2.20531 10.3544 3.11635 8.71365 2.70314C6.79944 2.22521 6.05365 0.78653 6.05365 0.78653C6.05365 0.78653 5.30786 2.22525 3.39365 2.70314C1.75289 3.11635 0.584473 2.20531 0.584473 2.20531V11.7386C0.584473 12.0622 0.718723 13.4362 3.28425 13.8096C4.29854 13.9539 5.05428 14.2825 5.5962 14.8052C5.79009 14.9944 5.93927 15.1836 6.05362 15.3578C6.16796 15.1836 6.31714 14.9894 6.51104 14.8052C7.05298 14.2825 7.80873 13.9539 8.82299 13.8096C11.3885 13.4362 11.5228 12.0622 11.5228 11.7386V2.20531H11.5228Z" fill="#013369"/>
<path d="M6.05356 14.3921C6.05356 14.3921 6.79935 13.476 8.72849 13.1774C10.941 12.8339 10.8764 11.7934 10.8764 11.7436V6.74545H1.22578V11.7386C1.22578 11.7934 1.16116 12.8339 3.37366 13.1724C5.30777 13.4711 6.05356 14.3921 6.05356 14.3921Z" fill="white"/>
<path d="M3.80623 10.3945V8.0199L3.5079 7.85065V7.23337H4.8603V7.85065L4.5769 8.0199V12.8637L3.85098 12.6447L2.80189 9.54822V11.5893L3.13501 11.8432V12.4704L1.6832 12.1021V11.5644L2.01632 11.435V8.01493L1.67822 7.85065V7.23337H2.77704L3.80623 10.3945ZM6.29718 12.5651L6.58555 12.9135V13.5308L5.14369 12.9932V12.4705L5.46189 12.341V8.02491L5.14369 7.86561V7.24332H7.64459V8.49783H7.0927L6.92365 7.98507H6.28723V9.43374H6.76455L6.95347 9.15993H7.33632V10.4394H6.95347L6.77447 10.1805H6.28723V12.5651H6.29718ZM7.88821 12.7841V12.1668L8.24618 11.8731V8.01994L7.94288 7.86064V7.23834H9.38474V7.86064L9.10135 8.01994V11.6341L9.72284 11.4649L9.84216 10.519H10.4289V12.1021L7.88818 12.7841L7.88821 12.7841Z" fill="#D50A0A"/>
<path d="M1.47951 5.71997L1.04199 5.39139H1.57399L1.74801 4.88361L1.92203 5.39139H2.45403L2.01651 5.71997L2.17561 6.23273L1.74303 5.92906L1.31046 6.23273L1.47951 5.71997ZM3.37384 5.71997L2.93633 5.39139H3.46832L3.64235 4.88361L3.81637 5.39139H4.34836L3.91085 5.71997L4.06994 6.23273L3.63737 5.92906L3.2048 6.23273L3.37384 5.71997ZM1.47951 4.01245L1.04199 3.68387H1.57399L1.74801 3.17609L1.92203 3.68387H2.45403L2.01651 4.01245L2.17561 4.52521L1.74303 4.22154L1.31046 4.52521L1.47951 4.01245ZM3.37384 4.01245L2.93633 3.68387H3.46832L3.64235 3.17609L3.81637 3.68387H4.34836L3.91085 4.01245L4.06994 4.52521L3.63737 4.22154L3.2048 4.52521L3.37384 4.01245ZM10.787 6.23774L10.3545 5.93407L9.9219 6.23774L10.081 5.72498L9.64348 5.3964H10.1804L10.3545 4.88862L10.5285 5.3964H11.0605L10.623 5.72498L10.787 6.23774ZM8.89769 6.23774L8.46511 5.93407L8.03254 6.23774L8.19164 5.72498L7.75412 5.3964H8.28611L8.46014 4.88862L8.63416 5.3964H9.16616L8.72864 5.72498L8.89769 6.23774ZM10.787 4.52521L10.3545 4.22154L9.9219 4.52521L10.081 4.01245L9.64348 3.68387H10.1804L10.3545 3.17609L10.5285 3.68387H11.0605L10.623 4.01245L10.787 4.52521ZM8.89769 4.52521L8.46511 4.22154L8.03254 4.52521L8.19164 4.01245L7.75412 3.68387H8.28611L8.46014 3.17609L8.63416 3.68387H9.16616L8.72864 4.01245L8.89769 4.52521ZM7.25693 2.63845C7.30168 2.63348 7.32652 2.68824 7.3514 2.72308C7.54032 3.201 7.59005 3.78346 7.44588 4.341C7.2271 5.19229 6.51113 5.97384 4.9748 6.17298C4.94 6.17796 4.90023 6.16801 4.89525 6.1481C4.96485 5.82453 5.13887 5.20721 5.51177 4.55506C5.58137 4.59988 5.651 4.64466 5.71562 4.69446C5.74046 4.65462 5.77032 4.60983 5.81507 4.53516C5.62615 4.38581 5.40737 4.28128 5.16375 4.23647C5.16375 4.23647 5.119 4.33104 5.0842 4.40074C5.0842 4.40074 5.17868 4.42065 5.29303 4.46049C4.95991 5.16741 4.84556 5.82453 4.8157 6.12322C4.72123 5.97388 4.64665 5.62539 4.62181 5.43624C4.37819 3.64406 5.66592 2.59864 7.06801 2.57874C7.16248 2.57376 7.19728 2.59367 7.19728 2.59367C7.19728 2.59367 6.88901 2.70818 6.53104 2.98196C6.53104 2.98196 6.44651 2.94713 6.35701 2.92221C6.30231 2.95705 6.24267 2.99689 6.18796 3.03673C6.35701 3.07657 6.57081 3.16119 6.77466 3.33044C6.81941 3.2906 6.86416 3.24582 6.91389 3.201C6.86416 3.16116 6.78461 3.10643 6.71501 3.06658C7.03321 2.75794 7.25696 2.63845 7.25696 2.63845H7.25693ZM5.93439 4.33104C5.96919 4.28125 6.00896 4.22151 6.04874 4.1618C5.88964 4.02738 5.66091 3.89794 5.38249 3.8432C5.34272 3.90295 5.27312 4.01743 5.27312 4.01743C5.50185 4.06224 5.73552 4.16677 5.93439 4.33104ZM6.18796 3.97758C6.22774 3.92282 6.26751 3.87306 6.31226 3.81829C6.09349 3.63909 5.84489 3.53452 5.651 3.49969C5.60625 3.54949 5.56149 3.60422 5.52172 3.65401C5.77529 3.70381 6.00399 3.82326 6.18796 3.97758ZM6.47136 3.63905C6.51113 3.58926 6.55588 3.54448 6.61059 3.49468C6.47634 3.38515 6.28244 3.25574 5.99407 3.18604C5.94434 3.22588 5.8847 3.27067 5.83 3.32543C6.05872 3.37523 6.27743 3.47976 6.47136 3.63905Z" fill="white"/>
</g>
<defs>
<clipPath id="clip0_795_1375">
<rect width="11.6344" height="16" fill="white" transform="translate(0.236328)"/>
</clipPath>
</defs>
</svg>
