<svg width="15" height="16" viewBox="0 0 15 16" fill="none" xmlns="http://www.w3.org/2000/svg">
<g clip-path="url(#clip0_795_1392)">
<path d="M13.3953 5.80375C13.3953 5.09588 13.5655 4.46905 13.7901 3.95978L14.2355 2.94815L13.1873 2.63892C12.7313 2.50413 12.3989 2.15936 12.2 1.61448L11.7373 0.349304L10.7075 1.20222C10.3685 1.48274 9.98093 1.66613 9.56987 1.66613C9.01848 1.66613 8.47276 1.3912 8.13179 1.05375L7.46826 0.397618L6.8052 1.05375C6.46392 1.3912 5.91831 1.66613 5.36679 1.66613C4.95534 1.66613 4.56799 1.48274 4.22932 1.20222L3.1991 0.349304L2.73722 1.61448C2.53757 2.15936 2.20563 2.50413 1.74903 2.63892L0.701048 2.94815L1.14688 3.95978C1.37097 4.46905 1.54138 5.09585 1.54138 5.80375C1.54138 7.53111 0.693848 7.87453 0.693848 9.68815C0.693848 12.1164 2.50157 13.8604 4.50325 14.3751C5.49257 14.6254 5.95334 14.65 6.69095 14.8564C6.78666 14.9571 7.46826 15.6933 7.46826 15.6933C7.46826 15.6933 8.14974 14.9571 8.24576 14.8564C8.98321 14.65 9.44425 14.6254 10.4339 14.3751C12.4348 13.8604 14.2429 12.1164 14.2429 9.68815C14.2428 7.87453 13.3953 7.53111 13.3953 5.80375ZM10.3149 13.9075C9.25513 14.1752 8.5238 14.2434 7.9854 14.4376C7.91637 14.5024 7.4682 14.9881 7.4682 14.9881C7.4682 14.9881 7.02034 14.5024 6.95123 14.4376C6.41282 14.2434 5.68127 14.1752 4.62186 13.9075C2.39152 13.3432 1.16998 11.4711 1.16998 9.68815C1.16998 8.06918 2.01598 7.56905 2.01598 5.79969C2.01598 4.42118 1.35804 3.25688 1.35804 3.25688C1.35804 3.25688 2.97537 3.11592 3.41373 1.14966C3.41373 1.14966 4.38385 2.14852 5.36679 2.14852C6.63449 2.14852 7.46823 1.07152 7.46823 1.07152C7.46823 1.07152 8.30228 2.14852 9.56987 2.14852C10.5528 2.14852 11.5228 1.14966 11.5228 1.14966C11.9613 3.11592 13.579 3.25688 13.579 3.25688C13.579 3.25688 12.9209 4.42118 12.9209 5.79969C12.9209 7.56905 13.7667 8.06918 13.7667 9.68815C13.7666 11.4711 12.5448 13.3432 10.3149 13.9075Z" fill="#D0D3D4"/>
<path d="M12.4448 5.7997C12.4448 4.53789 12.9219 3.56551 12.9219 3.56551C12.9219 3.56551 11.8213 3.34346 11.3085 1.95041C11.3085 1.95041 10.578 2.63181 9.56992 2.63181C8.30708 2.63181 7.46828 1.74512 7.46828 1.74512C7.46828 1.74512 6.62976 2.63181 5.36684 2.63181C4.35875 2.63181 3.62822 1.95041 3.62822 1.95041C3.11562 3.34343 2.01484 3.56551 2.01484 3.56551C2.01484 3.56551 2.49184 4.53789 2.49184 5.7997C2.49184 7.67216 1.64551 8.21374 1.64551 9.68815C1.64551 11.749 3.25169 13.061 4.74053 13.4394C5.92003 13.7388 6.69095 13.7725 7.20876 14.0225C7.20876 14.0225 7.39701 14.1947 7.46826 14.274C7.53989 14.1947 7.72817 14.0225 7.72817 14.0225C8.24556 13.7725 9.0169 13.7388 10.1961 13.4394C11.6852 13.061 13.2912 11.749 13.2912 9.68815C13.2912 8.21374 12.4448 7.67219 12.4448 5.7997ZM3.0323 5.7997C3.0323 4.99934 2.85867 4.30832 2.70959 3.86104C3.05699 3.67026 3.49329 3.3332 3.84108 2.75279C4.21489 2.96167 4.74423 3.17247 5.36687 3.17247C6.31011 3.17247 7.04691 2.76072 7.46831 2.45126C7.88969 2.76072 8.6268 3.17247 9.56995 3.17247C9.72034 3.17247 9.86529 3.15987 10.0042 3.13816L2.28341 8.93673C2.50588 8.06393 3.0323 7.34133 3.0323 5.7997ZM4.08412 12.6145C3.09602 12.1071 2.23125 11.1319 2.18811 9.79348L11.2508 2.98772C11.567 3.42655 11.9296 3.69784 12.2273 3.86101C12.0781 4.3083 11.9046 4.99932 11.9046 5.79967C11.9046 6.13264 11.9288 6.42648 11.9695 6.69295L4.08412 12.6145ZM10.063 12.9153C9.12895 13.153 7.98629 13.275 7.64133 13.4721C7.56349 13.5289 7.46828 13.6302 7.46828 13.6302C7.46828 13.6302 7.3731 13.529 7.29543 13.4721C6.95028 13.275 5.80759 13.153 4.87361 12.9153C4.83819 12.9064 4.80328 12.8967 4.76794 12.8867L12.1179 7.36691C12.3681 8.24298 12.7507 8.81658 12.7507 9.68818C12.7507 11.437 11.3575 12.5863 10.063 12.9153Z" fill="#D0D3D4"/>
<path d="M5.55353 9.7992L4.707 8.50255L3.7666 9.20892C3.7666 9.20892 4.09604 9.21787 4.09604 9.56313V12.0044L4.75966 11.5064V9.7799L5.51564 10.9383L6.21725 10.4118V7.36853L5.55353 7.86666V9.7992Z" fill="#D0D3D4"/>
<path d="M8.24351 6.9715L7.4953 7.53312V6.40833L6.48438 7.16737C6.48438 7.16737 6.81379 7.17671 6.81379 7.52217V9.96359L7.49528 9.45168V8.33853L8.24348 7.77711V8.88984L8.89238 8.4025V5.35904L8.24348 5.8468L8.24351 6.9715Z" fill="#D0D3D4"/>
<path d="M10.1401 6.68875V4.42249L9.12939 5.18133C9.12939 5.18133 9.45895 5.19037 9.45895 5.53552V7.97725L11.3403 6.56399C11.2998 6.07684 11.3403 5.78771 11.3403 5.78771L10.1401 6.68875Z" fill="#D0D3D4"/>
<path d="M11.5228 1.14968C11.5228 1.14968 10.5527 2.14854 9.56981 2.14854C8.30221 2.14854 7.46817 1.07153 7.46817 1.07153C7.46817 1.07153 6.63443 2.14854 5.36672 2.14854C4.38379 2.14854 3.41367 1.14968 3.41367 1.14968C2.97534 3.11593 1.35798 3.2569 1.35798 3.2569C1.35798 3.2569 2.01592 4.4212 2.01592 5.79971C2.01592 7.56907 1.16992 8.0692 1.16992 9.68816C1.16992 11.4711 2.39145 13.3432 4.6218 13.9075C5.68124 14.1752 6.41276 14.2434 6.95117 14.4377C7.02027 14.5024 7.46814 14.9881 7.46814 14.9881C7.46814 14.9881 7.91631 14.5024 7.98533 14.4377C8.52374 14.2434 9.25507 14.1752 10.3148 13.9075C12.5447 13.3432 13.7666 11.4711 13.7666 9.68816C13.7666 8.0692 12.9207 7.56907 12.9207 5.79971C12.9207 4.4212 13.5789 3.2569 13.5789 3.2569C13.5789 3.2569 11.9612 3.11593 11.5228 1.14968ZM12.4447 5.79971C12.4447 7.67217 13.2911 8.21375 13.2911 9.68816C13.2911 11.749 11.6851 13.061 10.196 13.4394C9.01684 13.7388 8.2455 13.7725 7.72811 14.0225C7.72811 14.0225 7.53983 14.1947 7.4682 14.274C7.39695 14.1947 7.20869 14.0225 7.20869 14.0225C6.69089 13.7725 5.91997 13.7388 4.74047 13.4394C3.25163 13.061 1.64545 11.749 1.64545 9.68816C1.64545 8.21375 2.49178 7.67217 2.49178 5.79971C2.49178 4.5379 2.01478 3.56552 2.01478 3.56552C2.01478 3.56552 3.11553 3.34347 3.62816 1.95042C3.62816 1.95042 4.35869 2.63182 5.36678 2.63182C6.62973 2.63182 7.46822 1.74512 7.46822 1.74512C7.46822 1.74512 8.30702 2.63182 9.56986 2.63182C10.578 2.63182 11.3085 1.95042 11.3085 1.95042C11.8212 3.34344 12.9219 3.56552 12.9219 3.56552C12.9219 3.56552 12.4447 4.5379 12.4447 5.79971Z" fill="black"/>
<path d="M12.3957 1.54283L11.8319 0L10.574 1.04109C10.2408 1.31724 9.90257 1.45749 9.56968 1.45749C9.12415 1.45749 8.61741 1.2408 8.27832 0.905488L7.46804 0.103828L6.65785 0.905488C6.3189 1.24082 5.81216 1.45749 5.3666 1.45749C5.03352 1.45749 4.69565 1.31724 4.36237 1.04109L3.10431 0L2.54053 1.54283C2.36534 2.02227 2.07915 2.324 1.69005 2.43889L0.414062 2.8149L0.955304 4.04416C1.20538 4.61147 1.33223 5.20317 1.33223 5.80376C1.33223 7.46493 0.484672 7.84308 0.484672 9.68816C0.484672 12.3464 2.54055 14.0861 4.45035 14.5775C5.41575 14.8128 5.7073 14.8282 6.5789 15.0429C6.65004 15.1193 7.46804 16 7.46804 16C7.46804 16 8.28605 15.1193 8.35696 15.0429C9.22868 14.8282 9.52034 14.8128 10.4855 14.5775C12.3954 14.0861 14.4515 12.3464 14.4515 9.68816C14.4515 7.84308 13.6038 7.46493 13.6038 5.80376C13.6038 5.20317 13.7304 4.61147 13.9806 4.04416L14.5221 2.8149L13.2464 2.43889C12.8567 2.324 12.571 2.02227 12.3957 1.54283ZM13.7899 3.95979C13.5653 4.46906 13.3952 5.09587 13.3952 5.80376C13.3952 7.53112 14.2427 7.87454 14.2427 9.68816C14.2427 12.1164 12.4346 13.8604 10.4337 14.3751C9.44406 14.6254 8.98302 14.65 8.24557 14.8564C8.14956 14.9571 7.46807 15.6933 7.46807 15.6933C7.46807 15.6933 6.78648 14.9571 6.69076 14.8564C5.95315 14.65 5.49239 14.6254 4.50306 14.3751C2.50141 13.8604 0.693662 12.1164 0.693662 9.68816C0.693662 7.87454 1.54119 7.53112 1.54119 5.80376C1.54119 5.0959 1.37078 4.46906 1.1467 3.95979L0.700862 2.94817L1.74885 2.63893C2.20544 2.50414 2.53741 2.15938 2.73704 1.61449L3.19891 0.349319L4.22913 1.20224C4.5678 1.48276 4.95518 1.66614 5.3666 1.66614C5.9181 1.66614 6.4637 1.39121 6.80502 1.05377L7.46807 0.397633L8.1316 1.05377C8.47261 1.39121 9.0183 1.66614 9.56968 1.66614C9.98072 1.66614 10.3683 1.48276 10.7073 1.20224L11.7371 0.349319L12.1998 1.61449C12.3987 2.15938 12.7311 2.50414 13.1872 2.63893L14.2353 2.94817L13.7899 3.95979Z" fill="black"/>
<path d="M11.2507 2.98776L2.18799 9.79353C2.2311 11.132 3.09589 12.1071 4.084 12.6145L11.9694 6.69305C11.9287 6.42655 11.9044 6.13274 11.9044 5.79977C11.9044 4.99942 12.078 4.3084 12.2272 3.86112C11.9295 3.69788 11.5669 3.42659 11.2507 2.98776ZM6.2173 10.4118L5.51569 10.9383L4.7597 9.77994V11.5065L4.09609 12.0044V9.56313C4.09609 9.21787 3.76665 9.20892 3.76665 9.20892L4.70705 8.50256L5.55358 9.7992V7.86663L6.2173 7.36851V10.4118ZM8.89246 8.40254L8.24355 8.88988V7.77715L7.49535 8.33857V9.45172L6.81386 9.96363V7.52221C6.81386 7.17675 6.48445 7.16741 6.48445 7.16741L7.49538 6.40837V7.53316L8.24358 6.97154V5.84683L8.89248 5.35908L8.89246 8.40254ZM11.3405 6.56404L9.45919 7.9773V5.53557C9.45919 5.19042 9.12964 5.18139 9.12964 5.18139L10.1404 4.42254V6.6888L11.3405 5.78779C11.3405 5.78779 11.3 6.0769 11.3405 6.56404Z" fill="black"/>
<path d="M9.56972 3.17247C8.62659 3.17247 7.88946 2.76072 7.46808 2.45126C7.04668 2.76072 6.30988 3.17247 5.36664 3.17247C4.744 3.17247 4.21466 2.96168 3.84085 2.75279C3.49306 3.33321 3.05676 3.67027 2.70936 3.86105C2.85844 4.30833 3.03207 4.99935 3.03207 5.7997C3.03207 7.34134 2.50565 8.06391 2.2832 8.93673L10.004 3.13814C9.86505 3.15988 9.72011 3.17247 9.56972 3.17247Z" fill="black"/>
<path d="M4.76758 12.8867C4.80288 12.8966 4.8378 12.9064 4.87324 12.9153C5.80722 13.153 6.94992 13.275 7.29507 13.4721C7.37271 13.5289 7.46792 13.6302 7.46792 13.6302C7.46792 13.6302 7.5631 13.529 7.64097 13.4721C7.98592 13.275 9.12859 13.153 10.0626 12.9153C11.3571 12.5863 12.7503 11.4371 12.7503 9.68819C12.7503 8.81659 12.3677 8.24299 12.1175 7.36691L4.76758 12.8867Z" fill="black"/>
<path d="M13.6594 14.4466C13.6594 14.1454 13.4152 13.9014 13.1138 13.9014C12.8126 13.9014 12.5688 14.1454 12.5688 14.4466C12.5688 14.748 12.8126 14.9918 13.1138 14.9918C13.4152 14.9918 13.6594 14.748 13.6594 14.4466ZM12.6855 14.4466C12.6855 14.2101 12.8773 14.0183 13.1138 14.0183C13.3506 14.0183 13.5424 14.2101 13.5424 14.4466C13.5424 14.6835 13.3506 14.8749 13.1138 14.8749C12.8773 14.8749 12.6855 14.6835 12.6855 14.4466Z" fill="white"/>
<path d="M13.3378 14.7582L13.2147 14.4943C13.2868 14.4689 13.3378 14.4007 13.3378 14.3204C13.3378 14.2179 13.2552 14.1355 13.1528 14.1355H12.8896V14.7582H13.007V14.5049H13.0905L13.2089 14.7582L13.3378 14.7582ZM13.1528 14.3882H13.0069V14.2522H13.1528C13.1904 14.2522 13.221 14.2824 13.221 14.3204C13.221 14.3577 13.1904 14.3882 13.1528 14.3882Z" fill="white"/>
</g>
<defs>
<clipPath id="clip0_795_1392">
<rect width="14.1081" height="16" fill="white" transform="translate(0.414062)"/>
</clipPath>
</defs>
</svg>
