<svg width="41" height="16" viewBox="0 0 41 16" fill="none" xmlns="http://www.w3.org/2000/svg">
<g clip-path="url(#clip0_844_2522)">
<g clip-path="url(#clip1_844_2522)">
<path d="M18.9751 5.06964C18.5592 5.06964 18.2227 5.40541 18.2227 5.81911L18.2247 10.7565H19.73L19.728 5.8181C19.728 5.4044 19.3905 5.06964 18.9751 5.06964Z" fill="#FF6700"/>
<path fill-rule="evenodd" clip-rule="evenodd" d="M28.0508 8.95531L28.0539 8.95731L28.0518 5.8181C28.0518 5.4044 27.7141 5.06964 27.2984 5.06964C26.883 5.06964 26.546 5.40541 26.5465 5.81911V7.04321C26.3931 7.00524 26.2326 6.98476 26.0678 6.98476C25.5227 6.98476 25.022 7.20658 24.6653 7.56232C24.3077 7.91658 24.0842 8.41471 24.0847 8.95731C24.0847 9.49941 24.3077 9.99756 24.6653 10.3518C24.8934 10.5801 25.3836 10.9299 26.0673 10.9299C26.7513 10.9299 27.2409 10.5801 27.4696 10.3518C27.8273 9.99706 28.0508 9.49891 28.0508 8.95681V8.95531ZM26.0678 9.84367C25.804 9.84367 25.5901 9.44594 25.5901 8.95531C25.5901 8.46468 25.804 8.06696 26.0678 8.06696C26.3313 8.06696 26.5455 8.46468 26.5455 8.95531C26.5455 9.44594 26.3313 9.84367 26.0678 9.84367Z" fill="#FF6700"/>
<path fill-rule="evenodd" clip-rule="evenodd" d="M28.8227 7.55883C29.1789 7.20309 29.6797 6.98126 30.2245 6.98126L30.2255 6.98174C30.7766 6.98126 31.2498 7.1981 31.6214 7.57131C32.2604 8.21336 32.1002 9.16167 32.1002 9.16167H29.7635C29.7845 9.31605 29.8273 9.45195 29.8875 9.56488C29.9764 9.72774 30.0911 9.82468 30.225 9.82468C30.5455 9.82468 30.7313 9.35853 30.7313 9.35853H32.0728C32.0728 9.35853 32.0533 9.86364 31.6389 10.3368C31.3101 10.6651 30.8227 10.9264 30.2341 10.9264C29.6614 10.9264 29.1703 10.6946 28.8227 10.3488C28.465 9.99405 28.2417 9.49643 28.2417 8.95382C28.2417 8.41121 28.465 7.91309 28.8227 7.55883ZM29.7883 8.60157L30.6599 8.59908C30.6425 8.51514 30.6058 8.38822 30.5652 8.31529C30.4708 8.1459 30.3602 8.05048 30.2245 8.04997C30.0906 8.05048 29.9544 8.16688 29.887 8.30979C29.8518 8.38511 29.8154 8.48635 29.7883 8.60157Z" fill="#FF6700"/>
<path d="M38.4564 6.98276C37.9116 6.98276 37.4106 7.20458 37.0542 7.56033C36.6964 7.91506 36.4729 8.41271 36.4734 8.95532V10.757H37.9787V8.9858C37.9787 8.76995 38.0311 8.58559 38.119 8.44268C38.2078 8.3018 38.3223 8.21835 38.4564 8.21785C38.5906 8.21835 38.7055 8.3018 38.7939 8.44268C38.8815 8.58559 38.9336 8.76995 38.9341 8.9858V10.757H40.4395V8.95532C40.4395 8.41271 40.2164 7.91506 39.8587 7.56033C39.5022 7.20458 39.002 6.98225 38.4564 6.98276Z" fill="#FF6700"/>
<path fill-rule="evenodd" clip-rule="evenodd" d="M34.3046 6.98276C33.2096 6.98276 32.3218 7.86612 32.3218 8.95531C32.3218 10.0445 33.2096 10.9279 34.3046 10.9279C35.3998 10.9279 36.2876 10.0445 36.2876 8.95531C36.2876 7.86612 35.3998 6.98276 34.3046 6.98276ZM34.3046 9.84367C34.041 9.84367 33.8271 9.44597 33.8271 8.95531C33.8271 8.46468 34.041 8.06696 34.3046 8.06696C34.5684 8.06696 34.7823 8.46468 34.7823 8.95531C34.7823 9.44597 34.5684 9.84367 34.3046 9.84367Z" fill="#FF6700"/>
<path fill-rule="evenodd" clip-rule="evenodd" d="M19.938 8.95531C19.938 7.86612 20.826 6.98276 21.921 6.98276C23.0159 6.98276 23.904 7.86612 23.904 8.95531C23.904 10.0445 23.0159 10.9279 21.921 10.9279C20.826 10.9279 19.938 10.0445 19.938 8.95531ZM21.4433 8.95531C21.4433 9.44597 21.6573 9.84367 21.921 9.84367C22.1847 9.84367 22.3986 9.44597 22.3986 8.95531C22.3986 8.46468 22.1847 8.06696 21.921 8.06696C21.6573 8.06696 21.4433 8.46468 21.4433 8.95531Z" fill="#FF6700"/>
<path fill-rule="evenodd" clip-rule="evenodd" d="M14.7318 7.55883C15.0879 7.20309 15.5887 6.98126 16.1336 6.98126L16.1346 6.98174C16.6856 6.98126 17.1588 7.1981 17.5305 7.57131C18.1689 8.21336 18.0091 9.16167 18.0091 9.16167H15.6725C15.6936 9.31605 15.7363 9.45195 15.7966 9.56488C15.8855 9.72774 16 9.82468 16.1341 9.82468C16.4546 9.82468 16.6404 9.35853 16.6404 9.35853H17.982C17.982 9.35853 17.9624 9.86364 17.5481 10.3368C17.2191 10.6651 16.7318 10.9264 16.1432 10.9264C15.5706 10.9264 15.0793 10.6946 14.7318 10.3488C14.3742 9.99405 14.1506 9.49643 14.1506 8.95382C14.1506 8.41121 14.3742 7.91309 14.7318 7.55883ZM15.6973 8.60157L16.5691 8.59908C16.5515 8.51514 16.5149 8.38822 16.4742 8.31529C16.3797 8.1459 16.2692 8.05048 16.1336 8.04997C15.9995 8.05048 15.8634 8.16688 15.7961 8.30979C15.761 8.38511 15.7244 8.48635 15.6973 8.60157Z" fill="#FF6700"/>
<path d="M14.3692 10.4952C14.3692 10.4452 14.3541 10.3987 14.3295 10.3588L13.5053 9.11867L14.0759 8.08793C14.2868 7.73168 14.1678 7.27302 13.8097 7.06267C13.4515 6.85282 12.9899 6.97125 12.779 7.32748L12.0974 8.53961V7.73168C12.0974 7.31849 11.7604 6.98274 11.3445 6.98274C10.9286 6.98274 10.5916 7.31799 10.5916 7.73168V10.7575H12.0969V9.57285L12.891 10.757H14.106C14.2506 10.757 14.3682 10.6396 14.3682 10.4957L14.3692 10.4952Z" fill="#FF6700"/>
<path d="M8.38437 9.84464C8.5185 9.84416 8.63301 9.74773 8.72192 9.58484V9.58434C8.7867 9.46244 8.83192 9.31305 8.85101 9.14267H10.3578C10.2935 9.82016 9.92086 10.2469 9.6687 10.4592C9.32364 10.752 8.8721 10.9304 8.38389 10.9304C7.73442 10.9304 7.25627 10.6256 6.98151 10.3523C6.62389 9.99753 6.40088 9.4994 6.40088 8.9573C6.40037 8.41469 6.62389 7.91705 6.98151 7.56231C7.33815 7.20656 7.83891 6.98474 8.38389 6.98474C8.92936 6.98424 9.42964 7.20656 9.78625 7.56231C10.1027 7.87608 10.3136 8.30178 10.3578 8.77143H8.85101C8.83192 8.60105 8.7867 8.45216 8.72192 8.32976C8.63301 8.16687 8.5185 8.07094 8.38437 8.06993C8.25027 8.07094 8.13577 8.16687 8.04685 8.32976C7.95946 8.49512 7.90721 8.70798 7.90721 8.9573C7.90721 9.20712 7.95946 9.41996 8.04685 9.58484C8.13577 9.74773 8.25027 9.84464 8.38437 9.84464Z" fill="#FF6700"/>
<path d="M6.0254 6.49762C6.1771 6.34721 6.27052 6.13886 6.27052 5.90904C6.27052 5.67921 6.1771 5.47086 6.0254 5.32045C5.87422 5.16957 5.66477 5.07663 5.43371 5.07663C5.20267 5.07663 4.99373 5.16957 4.84204 5.32045C4.69034 5.47086 4.59692 5.67921 4.59692 5.90904C4.59692 6.13886 4.69034 6.34721 4.84204 6.49762L5.02687 6.68147C5.33528 6.98825 5.35738 7.06969 5.06404 7.36147L4.89629 7.52886C4.75816 7.66574 4.67328 7.85511 4.67328 8.06397V10.7565H6.19467V8.06397C6.19467 7.85511 6.10928 7.66574 5.97216 7.52886L5.80391 7.36147C5.51057 7.06969 5.53216 6.98825 5.84057 6.68147L6.0254 6.49762Z" fill="#FF6700"/>
<path d="M1.02009 7.56033C1.37671 7.20458 1.87748 6.98276 2.42245 6.98276C2.96793 6.98225 3.46819 7.20458 3.82482 7.56033C4.18244 7.91506 4.40545 8.41271 4.40545 8.95532V10.757H2.90012V8.9858C2.89962 8.76995 2.84738 8.58559 2.75998 8.44268C2.67158 8.3018 2.55656 8.21835 2.42245 8.21785C2.28834 8.21835 2.17382 8.3018 2.08492 8.44268C1.99702 8.58559 1.94478 8.76995 1.94478 8.9858V10.757H0.439453V8.95532C0.439453 8.41271 0.662465 7.91506 1.02009 7.56033Z" fill="#FF6700"/>
</g>
</g>
<defs>
<clipPath id="clip0_844_2522">
<rect width="40" height="16" fill="white" transform="translate(0.439453)"/>
</clipPath>
<clipPath id="clip1_844_2522">
<rect width="40" height="5.86073" fill="white" transform="translate(0.439453 5.06964)"/>
</clipPath>
</defs>
</svg>
