<svg width="41" height="16" viewBox="0 0 41 16" fill="none" xmlns="http://www.w3.org/2000/svg">
<g clip-path="url(#clip0_741_41)">
<g clip-path="url(#clip1_741_41)">
<path d="M7.77036 8.88953L5.77036 5.65737H4.33284V10.3052H5.77036V7.07304L7.77036 10.3052H9.19552V5.65778H7.75799L7.77036 8.88953ZM19.1328 7.22355V6.76005H18.3827V6.13324H16.9827V6.76005H16.2203V7.22355H16.9831V10.3052H18.3827V7.22355H19.1328ZM9.99552 10.2928H11.3827V7.21077H9.99552V10.2928ZM9.99552 6.60953H11.3955V5.65737H9.9951L9.99552 6.60953ZM34.3955 6.99799C33.2706 6.99799 32.358 7.77448 32.358 8.72665C32.358 9.67881 33.2706 10.4557 34.3951 10.4557C35.5205 10.4557 36.433 9.67881 36.433 8.72665C36.433 7.77448 35.5205 6.99799 34.3955 6.99799ZM34.958 9.37819C34.958 9.86685 34.6702 10.0669 34.3955 10.0669C34.1205 10.0669 33.8203 9.86685 33.8203 9.37819V8.0751C33.8203 7.58685 34.1077 7.38644 34.3955 7.38644C34.6702 7.38644 34.958 7.58685 34.958 8.0751V9.37819ZM30.5332 7.36129C30.3077 7.23592 30.0702 7.11056 29.7456 7.08541C28.7452 6.99799 27.9704 7.88747 27.9704 8.7019C27.9704 9.77902 28.7951 10.1675 28.9205 10.2302C29.3955 10.4429 29.9955 10.4557 30.5205 10.1172V10.2928H31.8953V5.65778H30.5205C30.5328 5.65778 30.5328 6.64747 30.5328 7.36087L30.5332 7.36129ZM30.5456 8.73943V9.29036C30.5456 9.76665 30.2203 9.89159 29.9955 9.89159C29.7704 9.89159 29.4454 9.76665 29.4454 9.29036V8.18809C29.4454 7.7118 29.7704 7.58685 29.9955 7.58685C30.2079 7.58685 30.5452 7.7118 30.5452 8.18809L30.5456 8.73943ZM14.645 7.07304C14.1823 7.08541 13.8075 7.28582 13.5324 7.53654V7.21077H12.1448V10.2928H13.5324V8.26314C13.5324 8.00005 13.8198 7.69943 14.1951 7.69943C14.57 7.69943 14.8326 8.00046 14.8326 8.26314V10.2928H16.2198V8.61407C16.2198 7.39881 15.1704 7.04788 14.645 7.07304ZM25.9576 7.07304C25.5422 7.08465 25.1458 7.24978 24.845 7.53654V7.21077H23.4574V10.2928H24.845V8.26314C24.845 8.00005 25.1324 7.69943 25.5073 7.69943C25.8825 7.69943 26.1448 8.00046 26.1448 8.26314V10.2928H27.5324V8.61407C27.5324 7.39881 26.4829 7.04788 25.9576 7.07304ZM23.045 8.76417C23.045 7.81201 22.1201 7.01036 20.9951 7.01036C19.8574 7.01036 18.9448 7.78726 18.9448 8.73943C18.9448 9.69118 19.8574 10.4681 20.9951 10.4681C21.9324 10.4681 22.7324 9.92953 22.97 9.20293H21.5827V9.39056C21.5827 9.95427 21.2075 10.0796 21.0079 10.0796C20.7955 10.0796 20.4203 9.95427 20.4203 9.39098V8.7518L23.045 8.76417ZM20.5201 7.67427C20.571 7.59054 20.6425 7.52126 20.7279 7.47304C20.8132 7.42481 20.9095 7.39926 21.0075 7.39881C21.1951 7.39881 21.3827 7.48665 21.4949 7.67427C21.5823 7.82479 21.5823 8.01242 21.5823 8.27551H20.4198C20.4198 8.01283 20.4322 7.83716 20.5201 7.67427ZM36.9823 6.23386C36.9823 6.08335 36.8702 6.0083 36.645 6.0083H36.3324V6.79757H36.5201V6.4718H36.6198L36.7699 6.79757H36.9823L36.8075 6.44665C36.9201 6.40912 36.9823 6.33407 36.9823 6.23386ZM36.6198 6.34644H36.5201V6.12087H36.6075C36.7201 6.12087 36.7823 6.1584 36.7823 6.23386C36.7823 6.32129 36.7328 6.34644 36.6198 6.34644ZM36.6322 5.69489C36.2446 5.69489 35.9201 6.02067 35.9201 6.40912C35.9201 6.79757 36.245 7.12335 36.6326 7.12335C37.0203 7.12335 37.3448 6.79757 37.3448 6.40912C37.345 6.21999 37.2701 6.0385 37.1366 5.90457C37.003 5.77064 36.8214 5.69522 36.6322 5.69489ZM36.6322 6.98562C36.4801 6.98358 36.3348 6.92213 36.2274 6.81441C36.12 6.70669 36.059 6.56124 36.0574 6.40912C36.0574 6.09572 36.3201 5.83263 36.6326 5.83263C36.9448 5.83263 37.2075 6.09572 37.2075 6.40912C37.2075 6.72252 36.9448 6.9852 36.6326 6.9852L36.6322 6.98562ZM35.0706 3.05159H5.58273C2.45778 3.03922 0.370361 5.29407 0.370361 7.98768C0.370361 10.6805 2.45778 12.911 5.5951 12.911H35.0829C38.2203 12.911 40.3077 10.6809 40.3077 7.98726C40.2953 5.29489 38.1955 3.05159 35.0706 3.05159ZM35.0582 11.7085H5.59552C3.10768 11.7209 1.59552 10.0421 1.59552 7.98768C1.59552 5.93283 3.12046 4.27922 5.59552 4.26685H35.0578C37.5328 4.26685 39.0578 5.93283 39.0578 7.98768C39.0578 10.0421 37.5456 11.7085 35.0582 11.7085Z" fill="#E60012"/>
</g>
</g>
<defs>
<clipPath id="clip0_741_41">
<rect width="40" height="16" fill="white" transform="translate(0.370361)"/>
</clipPath>
<clipPath id="clip1_741_41">
<rect width="40" height="9.89691" fill="white" transform="translate(0.370361 3.05154)"/>
</clipPath>
</defs>
</svg>
