<svg width="121" height="64" viewBox="0 0 121 64" fill="none" xmlns="http://www.w3.org/2000/svg">
<g clip-path="url(#clip0_741_41)">
<g clip-path="url(#clip1_741_41)">
<path d="M23.0528 34.6686L17.0528 24.9721H12.7402V38.9156H17.0528V29.2191L23.0528 38.9156H27.3282V24.9733H23.0157L23.0528 34.6686ZM57.1402 29.6707V28.2801H54.8899V26.3997H50.6899V28.2801H48.4025V29.6707H50.6911V38.9156H54.8899V29.6707H57.1402ZM29.7282 38.8785H33.8899V29.6323H29.7282V38.8785ZM29.7282 27.8286H33.9282V24.9721H29.727L29.7282 27.8286ZM102.928 28.994C99.5534 28.994 96.8157 31.3234 96.8157 34.1799C96.8157 37.0364 99.5534 39.3672 102.927 39.3672C106.303 39.3672 109.041 37.0364 109.041 34.1799C109.041 31.3234 106.303 28.994 102.928 28.994ZM104.616 36.1346C104.616 37.6006 103.752 38.2006 102.928 38.2006C102.103 38.2006 101.202 37.6006 101.202 36.1346V32.2253C101.202 30.7606 102.065 30.1593 102.928 30.1593C103.752 30.1593 104.616 30.7606 104.616 32.2253V36.1346ZM91.3414 30.0839C90.6647 29.7078 89.9522 29.3317 88.9786 29.2562C85.9773 28.994 83.6528 31.6624 83.6528 34.1057C83.6528 37.3371 86.127 38.5024 86.5031 38.6905C87.9282 39.3288 89.7282 39.3672 91.3031 38.3515V38.8785H95.4276V24.9733H91.3031C91.3402 24.9733 91.3402 27.9424 91.3402 30.0826L91.3414 30.0839ZM91.3786 34.2183V35.8711C91.3786 37.2999 90.4025 37.6748 89.7282 37.6748C89.0528 37.6748 88.0779 37.2999 88.0779 35.8711V32.5643C88.0779 31.1354 89.0528 30.7606 89.7282 30.7606C90.3654 30.7606 91.3773 31.1354 91.3773 32.5643L91.3786 34.2183ZM43.6767 29.2191C42.2887 29.2562 41.1641 29.8575 40.339 30.6096V29.6323H36.1761V38.8785H40.339V32.7894C40.339 32.0001 41.2012 31.0983 42.327 31.0983C43.4515 31.0983 44.2396 32.0014 44.2396 32.7894V38.8785H48.4012V33.8422C48.4012 30.1964 45.2528 29.1437 43.6767 29.2191ZM77.6144 29.2191C76.3682 29.254 75.1791 29.7493 74.2767 30.6096V29.6323H70.1138V38.8785H74.2767V32.7894C74.2767 32.0001 75.139 31.0983 76.2635 31.0983C77.3893 31.0983 78.1761 32.0014 78.1761 32.7894V38.8785H82.339V33.8422C82.339 30.1964 79.1905 29.1437 77.6144 29.2191ZM68.8767 34.2925C68.8767 31.436 66.1019 29.0311 62.727 29.0311C59.3138 29.0311 56.5761 31.3618 56.5761 34.2183C56.5761 37.0735 59.3138 39.4043 62.727 39.4043C65.539 39.4043 67.939 37.7886 68.6515 35.6088H64.4899V36.1717C64.4899 37.8628 63.3641 38.2389 62.7654 38.2389C62.1282 38.2389 61.0025 37.8628 61.0025 36.1729V34.2554L68.8767 34.2925ZM61.3019 31.0228C61.4547 30.7716 61.6693 30.5638 61.9253 30.4191C62.1813 30.2744 62.4701 30.1978 62.7641 30.1964C63.327 30.1964 63.8899 30.4599 64.2264 31.0228C64.4887 31.4744 64.4887 32.0373 64.4887 32.8265H61.0012C61.0012 32.0385 61.0383 31.5115 61.3019 31.0228ZM110.689 26.7016C110.689 26.25 110.352 26.0249 109.677 26.0249H108.739V28.3927H109.302V27.4154H109.601L110.052 28.3927H110.689L110.164 27.3399C110.502 27.2274 110.689 27.0022 110.689 26.7016ZM109.601 27.0393H109.302V26.3626H109.564C109.902 26.3626 110.089 26.4752 110.089 26.7016C110.089 26.9639 109.94 27.0393 109.601 27.0393ZM109.638 25.0847C108.475 25.0847 107.502 26.062 107.502 27.2274C107.502 28.3927 108.477 29.37 109.64 29.37C110.802 29.37 111.776 28.3927 111.776 27.2274C111.777 26.66 111.552 26.1155 111.151 25.7137C110.751 25.3119 110.206 25.0857 109.638 25.0847ZM109.638 28.9568C109.182 28.9507 108.746 28.7664 108.424 28.4432C108.102 28.1201 107.919 27.6837 107.914 27.2274C107.914 26.2872 108.702 25.4979 109.64 25.4979C110.576 25.4979 111.364 26.2872 111.364 27.2274C111.364 28.1676 110.576 28.9556 109.64 28.9556L109.638 28.9568ZM104.953 17.1548H16.4899C7.11505 17.1177 0.852783 23.8822 0.852783 31.963C0.852783 40.0414 7.11505 46.7329 16.527 46.7329H104.991C114.402 46.7329 120.665 40.0426 120.665 31.9618C120.628 23.8847 114.328 17.1548 104.953 17.1548ZM104.916 43.1255H16.5282C9.06474 43.1626 4.52825 38.1263 4.52825 31.963C4.52825 25.7985 9.10309 20.8377 16.5282 20.8006H104.915C112.34 20.8006 116.915 25.7985 116.915 31.963C116.915 38.1263 112.379 43.1255 104.916 43.1255Z" fill="#E60012"/>
</g>
</g>
<defs>
<clipPath id="clip0_741_41">
<rect width="120" height="64" fill="white" transform="translate(0.852783)"/>
</clipPath>
<clipPath id="clip1_741_41">
<rect width="120" height="29.6907" fill="white" transform="translate(0.852783 17.1546)"/>
</clipPath>
</defs>
</svg>
