<svg width="29" height="16" viewBox="0 0 29 16" fill="none" xmlns="http://www.w3.org/2000/svg">
<g clip-path="url(#clip0_807_2948)">
<path d="M5.23495 1.52623C6.152 0.562785 7.36845 0 8.79755 0C11.5816 0 13.4274 2.03271 13.7806 5.07785C13.8951 6.06675 13.8941 7.46095 13.8929 9.0758C13.8928 9.2414 13.8926 9.40935 13.8926 9.5794V15.6289H10.064V11.1545C10.064 11.1545 10.0563 7.32505 10.0329 6.60935C9.9301 3.49225 8.08475 1.53361 5.23455 1.5315C4.37463 2.44003 3.91387 3.55086 3.84592 5.24935C3.83658 5.48625 3.83893 6.32595 3.84202 7.43265C3.84363 8.00605 3.84543 8.65115 3.84592 9.3212C3.84875 12.2377 3.84592 15.6295 3.84592 15.6295H0.0173343V8.7435C0.0173343 8.50755 0.0130343 8.2696 0.0087176 8.0307C3.37772e-05 7.55015 -0.0087176 7.0659 0.0173343 6.5864C0.060591 5.78705 0.198871 5.00125 0.57187 4.27126C1.42566 2.5989 3.17508 1.52213 5.0401 1.52213C5.10525 1.52213 5.17045 1.5235 5.23495 1.52623Z" fill="#820AD1"/>
<path d="M28.9827 9.41361C29.0087 8.93411 29 8.44981 28.9913 7.96931C28.987 7.73041 28.9827 7.49246 28.9827 7.25651V0.370445H25.1541C25.1541 0.370445 25.1513 3.76235 25.1541 6.67876C25.1546 7.34881 25.1564 7.99386 25.158 8.56726C25.1611 9.67401 25.1634 10.5137 25.1541 10.7506C25.0862 12.4492 24.6254 13.56 23.7655 14.4685C20.9153 14.4664 19.07 12.5077 18.9672 9.39066C18.9438 8.67496 18.9339 6.89891 18.9339 4.84192V0.367523L15.1082 0.371098V6.42061C15.1082 6.59066 15.108 6.75856 15.1079 6.92421C15.1067 8.53906 15.1057 9.93321 15.2202 10.9222C15.5726 13.9673 17.4185 16 20.2025 16C21.6317 16 22.8481 15.4372 23.7652 14.4738C23.8296 14.4765 23.8948 14.4779 23.9599 14.4779C25.8249 14.4779 27.5744 13.4011 28.4282 11.7288C28.8012 10.9987 28.9394 10.213 28.9827 9.41361Z" fill="#820AD1"/>
</g>
<defs>
<clipPath id="clip0_807_2948">
<rect width="29" height="16" fill="white"/>
</clipPath>
</defs>
</svg>
