<svg width="28" height="16" viewBox="0 0 28 16" fill="none" xmlns="http://www.w3.org/2000/svg">
<g clip-path="url(#clip0_876_2890)">
<path d="M22.6432 3.404L22.6062 3.53059C22.5861 3.59852 22.5676 3.66644 22.5475 3.73282C22.5274 3.79921 22.5012 3.8872 22.4796 3.9613C22.458 4.0354 22.4348 4.10333 22.4132 4.17434L22.3762 4.29167C24.0712 3.98291 25.7405 3.71224 27.3841 3.47965C25.8068 3.35942 24.2236 3.33416 22.6432 3.404ZM6.6421 7.16307L6.57418 7.02876C4.47175 7.9074 2.44647 8.96031 0.519531 10.1765C2.43277 9.48386 4.40879 8.82159 6.44759 8.18967C6.56492 7.94885 6.6807 7.70648 6.79957 7.46565L6.68224 7.24335C6.66835 7.2171 6.656 7.18931 6.6421 7.16307ZM13.6415 8.70684C13.5443 8.50615 13.4872 8.42741 13.3914 8.22672L13.2371 8.64817L12.5547 9.19158L12.2877 9.31508L12.3 9.41388C12.8311 9.41035 13.3604 9.35137 13.8793 9.23789C13.8793 9.0372 13.8793 8.82571 13.8669 8.60958L13.6415 8.70684ZM15.2393 7.91643L15.1066 8.05537L14.256 8.42896C14.2652 8.67287 14.2714 8.90753 14.2714 9.13292C14.787 9.00324 15.2409 8.86739 15.6453 8.72536C15.6795 8.41678 15.7394 8.11159 15.8244 7.813C15.6968 7.85935 15.5657 7.89548 15.4323 7.92106C15.3681 7.92823 15.3032 7.92667 15.2393 7.91643ZM12.5949 4.22065L13.0148 3.77759L13.3451 3.70349C13.2463 3.0582 13.146 2.46848 13.0611 2.00535C11.6215 2.21432 10.2133 2.60008 8.86821 3.15391L8.91144 3.24499C9.15061 3.72931 9.42781 4.1939 9.74044 4.63438C9.85983 4.59425 9.98024 4.55719 10.1017 4.52323C10.5134 4.41414 10.9214 4.30762 11.3259 4.20367C11.7026 4.10487 12.3 3.90881 12.5949 4.22065ZM15.6299 9.1607C15.2239 9.2981 14.7731 9.42777 14.2668 9.55436C14.2668 9.72572 14.2668 10.7153 13.9873 11.2787C14.774 11.0566 15.5173 10.7027 16.1857 10.2321C15.8306 10.0607 15.6453 9.61611 15.6299 9.15298V9.1607ZM15.1467 3.32064L14.9923 3.71584L14.9769 3.75598L15.44 3.26198C15.914 3.16935 16.3863 3.0829 16.8603 2.99799L16.7816 3.23573C17.0136 3.04938 17.2923 2.9303 17.5874 2.89147H17.6275C17.7007 2.59203 17.7554 2.28836 17.7912 1.98219L17.5503 1.92971C16.9084 1.86068 16.2632 1.82667 15.6176 1.82782C14.8952 1.82744 14.1735 1.87023 13.4563 1.95595C13.5412 2.41908 13.6384 2.98719 13.7357 3.61858C14.205 3.51515 14.6712 3.41635 15.1467 3.32064ZM11.1561 9.8554C11.3228 10.0612 11.4942 10.2671 11.6701 10.4729C11.833 10.2929 11.9218 10.058 11.9187 9.81526C11.7304 9.81526 11.5266 9.79982 11.3135 9.7813L11.1561 9.8554ZM8.50852 3.31292C8.32172 3.3932 8.13647 3.4781 7.95276 3.56455C8.11949 4.15273 8.31555 4.72701 8.5363 5.2874H8.54557L8.61658 5.2241L8.63356 5.21175C8.69531 5.16389 8.75861 5.12067 8.82344 5.07744H8.83579L8.92225 5.02341L8.93614 5.01415C9.00252 4.97401 9.07045 4.93696 9.13837 4.90145H9.15227L9.24026 4.85669L9.25879 4.84742L9.36067 4.79957C9.05613 4.36873 8.78616 3.91448 8.55329 3.44105L8.50852 3.31292ZM11.9357 10.7554C12.0237 10.8527 12.1132 10.9468 12.2043 11.0426L12.2336 11.0734C12.3772 11.2278 12.5238 11.3698 12.6721 11.5149C12.9005 11.4933 13.1352 11.4625 13.3482 11.4223C13.4026 11.3739 13.4542 11.3223 13.5026 11.2679C13.5068 11.2597 13.5125 11.2523 13.5196 11.2463C13.745 11.0163 13.8561 10.4297 13.8839 9.63464C13.3694 9.74289 12.8457 9.80131 12.3201 9.80908C12.3252 9.98556 12.2929 10.1611 12.2254 10.3242C12.1578 10.4874 12.0564 10.6343 11.928 10.7554H11.9357ZM18.2188 2.08408C18.1986 2.32725 18.1641 2.56902 18.1154 2.80811C18.4102 2.7618 18.7051 2.71857 18.9999 2.67534L18.6341 4.1342L18.0459 4.75171L18.5461 4.59733C18.3886 5.2241 18.2342 5.84161 18.0644 6.45911L17.4253 7.13065C17.1567 7.2418 16.7121 7.45484 16.2845 7.63392C16.1828 7.94068 16.1033 8.25436 16.0467 8.57253C17.5102 7.98435 18.2605 7.23563 19.074 5.94813C19.3542 4.7407 19.3239 3.48197 18.9861 2.2894C18.7318 2.21839 18.4761 2.14995 18.2188 2.08408ZM16.0066 9.01713C15.9973 9.92024 16.5593 9.88164 16.6503 9.86775C17.5089 9.15336 18.1918 8.25123 18.6464 7.231C17.9656 8.03067 17.1937 8.56944 16.0066 9.01713Z" fill="#EF3B24"/>
<path d="M14.4104 13.0093C13.8692 12.6097 13.3536 12.1766 12.8666 11.7126L12.6597 11.515C12.5054 11.3698 12.3649 11.2232 12.2213 11.0734L12.192 11.0426C12.1009 10.9468 12.0114 10.8527 11.9234 10.7554C11.8354 10.6582 11.7505 10.5625 11.6702 10.4729C11.4942 10.2671 11.3228 10.0612 11.1561 9.85541L11.0511 9.90481L10.588 10.1225C11.6099 11.3092 12.7847 12.3552 14.0816 13.2332C14.1912 13.1622 14.2992 13.0896 14.4073 13.017L14.4104 13.0093ZM14.1124 1.56384C11.6256 1.62992 9.18059 2.2196 6.93701 3.2944C7.19128 4.19231 7.51331 5.06962 7.90032 5.9188L8.16431 5.64247C8.19055 5.61159 8.21834 5.58381 8.24612 5.55448C8.25202 5.55014 8.25722 5.54493 8.26156 5.53904L8.33412 5.46803L8.34801 5.45567C8.40513 5.4001 8.4638 5.34915 8.524 5.3013C8.30324 4.74091 8.10719 4.16663 7.94046 3.57846C8.12417 3.49201 8.30942 3.4071 8.49621 3.32682L8.86363 3.17245C10.2087 2.61862 11.617 2.23285 13.0565 2.02388C13.1893 2.00382 13.3205 1.98683 13.4532 1.96985C14.1705 1.88413 14.8922 1.84134 15.6145 1.84172C16.2602 1.84108 16.9054 1.87561 17.5473 1.94515C16.4178 1.70475 15.2672 1.57702 14.1124 1.56384Z" fill="#FDBB30"/>
<path d="M9.83282 5.82463C9.25854 7.04009 8.70535 8.26378 8.17327 9.49571C8.54069 9.32744 8.90656 9.16226 9.27397 8.99862C9.76695 7.83256 10.2764 6.67422 10.8023 5.5236C10.4766 5.6224 10.1539 5.72429 9.83282 5.82463ZM13.9531 0.228485C10.6001 0.228485 8.00346 1.05749 5.04406 2.58118L5.2432 3.3824C5.56539 4.69133 6.03459 5.95961 6.64185 7.16308C6.65575 7.18932 6.6681 7.21711 6.68199 7.24336C6.72059 7.31746 6.75918 7.39773 6.79932 7.46566C6.68045 7.70648 6.56467 7.94886 6.44734 8.18968C6.02023 9.08095 5.60547 9.97788 5.20306 10.8805C5.00392 11.3343 4.57167 12.1309 5.22622 12.415C5.82675 12.5693 6.40411 12.168 6.92436 11.904L7.20378 11.7635L7.56811 11.5782L7.63295 11.5458C7.85988 11.4316 8.08527 11.3189 8.31221 11.2077C8.46658 11.1321 8.76144 10.987 9.13658 10.8079C9.21531 10.8974 9.29096 10.9854 9.37895 11.0734L9.41137 11.1089C9.48856 11.1923 9.56575 11.2741 9.64448 11.3559L9.65837 11.3683C10.9374 12.6704 12.3813 13.7998 13.9531 14.7275C17.4652 12.6218 19.8071 10.1456 21.3632 6.87903C21.3894 6.82654 21.4141 6.77251 21.4388 6.72465C21.4836 6.62739 21.5268 6.53014 21.5716 6.43133L21.5855 6.40046C21.6117 6.33871 21.6395 6.27696 21.6658 6.21366C21.675 6.19514 21.6828 6.17507 21.6905 6.155C21.9591 5.52669 22.1999 4.8675 22.4176 4.17898C22.4392 4.10797 22.4608 4.03695 22.484 3.96594C22.5071 3.89493 22.5287 3.81156 22.5519 3.73746C22.5751 3.66336 22.5905 3.60316 22.6106 3.53523C22.698 3.22648 22.7824 2.91001 22.8637 2.58581C19.9028 1.05594 17.3077 0.228485 13.9531 0.228485ZM8.85407 10.3185C8.39094 10.5501 7.92781 10.7817 7.46468 11.0179C7.04015 11.234 6.43808 11.6354 5.95642 11.5134C5.51954 11.3251 5.92863 10.5872 6.06294 10.2954C6.57753 9.14373 7.11064 8.00289 7.66228 6.87285C7.84051 6.4845 8.06887 6.1212 8.34154 5.79222C8.83863 5.24264 9.45923 4.94469 10.1555 4.75481C10.562 4.64571 10.968 4.53919 11.3735 4.43525C11.673 4.36115 12.36 4.1126 12.4912 4.51861C12.5576 4.82736 12.3522 5.17162 12.2349 5.44487C11.92 6.18485 11.6112 6.92688 11.3087 7.67098C11.176 8.02081 11.0175 8.36033 10.8347 8.68678C10.3608 9.45248 9.64448 9.92951 8.85407 10.3185ZM12.7768 4.93851C12.9095 4.61895 13.0469 4.29785 13.1828 3.9891C13.7077 3.87023 14.2356 3.75445 14.7636 3.64638C14.5259 4.26389 14.2907 4.88139 14.0581 5.4989C14.5552 4.82273 15.059 4.15377 15.5694 3.49201C15.8782 3.43025 16.1921 3.37108 16.5111 3.31447C16.4309 3.56302 16.3568 3.81002 16.2672 4.05857L15.9415 4.13421C15.5556 4.69717 15.1732 5.26631 14.7945 5.84162C15.0075 6.31504 15.2185 6.78949 15.4274 7.26497C15.0847 7.41934 14.7435 7.56446 14.4008 7.71729C14.1795 7.26445 13.9567 6.81316 13.7324 6.36341C13.4864 7.02311 13.244 7.68436 13.0053 8.34715C12.4773 8.59106 11.9488 8.83652 11.4198 9.08352C11.5742 8.67288 11.7409 8.26378 11.9045 7.84851C12.2998 6.84198 12.7037 5.8375 13.1164 4.83508L12.7768 4.93851ZM17.4621 3.80385C17.2563 4.52427 17.0458 5.24469 16.8307 5.96512C16.9974 5.90337 17.1626 5.84162 17.3309 5.78141C17.3865 5.58072 17.442 5.37849 17.4992 5.1778C17.74 5.09855 17.9798 5.02239 18.2185 4.94932C18.1043 5.39598 17.989 5.84213 17.8727 6.28776C17.4148 6.4761 16.9583 6.66702 16.5034 6.8605C16.3628 6.92912 16.2146 6.98094 16.0619 7.01488C15.6127 7.05193 15.7532 6.54094 15.8458 6.26152L16.5266 4.13112C16.5908 3.89207 16.708 3.67049 16.8693 3.48274C17.0731 3.28646 17.3355 3.16229 17.6165 3.12922C17.9731 3.07056 18.3312 3.01498 18.6879 2.96249C18.606 3.28668 18.5335 3.61242 18.4424 3.93661L17.7956 4.09099C17.8311 3.96594 17.865 3.83935 17.9005 3.71276L17.4621 3.80385ZM15.8319 7.81764C15.7469 8.11623 15.687 8.42142 15.6528 8.73C15.2483 8.87203 14.7945 9.00788 14.2789 9.13756C14.2789 8.91216 14.2789 8.67443 14.2634 8.4336L15.114 8.06001L15.2468 7.92107C15.3108 7.92977 15.3757 7.92977 15.4398 7.92107C15.5705 7.8951 15.699 7.85897 15.8242 7.813L15.8319 7.81764ZM13.879 9.2379C13.3604 9.35397 12.8311 9.41554 12.2998 9.42161L12.2874 9.32281L12.5545 9.19931L13.2384 8.64973L13.3927 8.22828C13.4915 8.42897 13.5471 8.5077 13.6428 8.70839L13.8682 8.60959C13.8744 8.818 13.879 9.02949 13.879 9.2379ZM13.9531 14.0714C12.3637 13.1089 10.9192 11.9254 9.663 10.5563L10.5893 10.1148L11.0524 9.89709L11.3148 9.77359C11.5279 9.79211 11.7316 9.80292 11.92 9.80755C11.9246 10.0531 11.8352 10.2912 11.6699 10.4729C11.7548 10.5702 11.8413 10.6674 11.9277 10.7631C12.0562 10.642 12.1575 10.4951 12.2251 10.332C12.2927 10.1689 12.325 9.99329 12.3198 9.81681C12.8417 9.81038 13.3617 9.75403 13.8729 9.64854C13.8451 10.4436 13.7339 11.0379 13.5085 11.2602C13.5015 11.2662 13.4957 11.2736 13.4915 11.2818C13.4431 11.3362 13.3916 11.3878 13.3372 11.4362C13.5564 11.3961 13.771 11.3451 13.984 11.2818C14.2588 10.7076 14.2619 9.71801 14.2665 9.54665C14.7729 9.42006 15.2236 9.29039 15.6297 9.15299C15.6451 9.61612 15.8303 10.0607 16.1854 10.2244C16.3398 10.1117 16.4942 9.99126 16.6485 9.86776C16.5575 9.88165 15.9955 9.92024 16.0048 9.01714C17.1919 8.56945 17.9638 8.03068 18.6446 7.22483C18.8262 6.81548 18.9694 6.39014 19.0723 5.95431C18.2587 7.23718 17.5084 7.98591 16.0449 8.57871C16.1015 8.26054 16.181 7.94686 16.2827 7.6401C16.7103 7.46103 17.1549 7.24799 17.4235 7.13684L18.0642 6.45912C18.234 5.84162 18.3884 5.22411 18.5427 4.59734L18.0426 4.75172L18.6307 4.13421L19.0059 2.67535C18.711 2.71858 18.4162 2.7618 18.1213 2.80812C18.17 2.56902 18.2045 2.32726 18.2247 2.08409C18.1306 2.05939 18.0348 2.03778 17.9407 2.01462L17.8836 2.00227L17.7971 1.9822C17.761 2.28629 17.7064 2.58789 17.6335 2.88531H17.5933C17.2983 2.92413 17.0195 3.04321 16.7875 3.22957L16.8662 2.99183C16.3923 3.07673 15.9199 3.16318 15.4459 3.25581L14.9828 3.74981L14.9983 3.70968L15.1526 3.31447C14.6895 3.41019 14.2264 3.50899 13.7509 3.61087C13.6536 2.97948 13.5564 2.40983 13.4715 1.94824C13.3387 1.96522 13.2075 1.9822 13.0747 2.00227C13.1596 2.4654 13.26 3.05203 13.3588 3.70041L13.0284 3.77451L12.5946 4.22066C12.2998 3.91191 11.7023 4.10488 11.3256 4.20059C10.914 4.30351 10.5059 4.41003 10.1014 4.52015C9.97999 4.55412 9.85958 4.59117 9.74019 4.6313C9.42756 4.19082 9.15036 3.72623 8.91119 3.24192L8.86796 3.15083L8.50055 3.30521L8.55304 3.41327C8.78591 3.8867 9.05588 4.34096 9.36042 4.77179L9.25854 4.81964L9.24001 4.82891L9.15202 4.87368H9.13812C9.0702 4.90918 9.00227 4.94623 8.93589 4.98637L8.922 4.99563L8.83554 5.04966L8.81702 5.06973C8.75218 5.11296 8.68889 5.15618 8.62714 5.20404L8.61633 5.22411L8.5376 5.2874L8.5237 5.29821C8.4635 5.34761 8.40483 5.39856 8.34771 5.45259L8.33382 5.46494L8.26126 5.53286C8.25693 5.53876 8.25172 5.54396 8.24583 5.5483C8.21804 5.57763 8.19025 5.60542 8.16401 5.63629L7.90002 5.91263L7.52489 6.30475C7.38049 6.47269 7.25036 6.65239 7.13586 6.84198C6.77011 6.10579 6.45496 5.34552 6.19262 4.56647C6.00942 4.02409 5.84579 3.46216 5.7017 2.88067C8.4388 1.51907 10.8625 0.793503 13.9531 0.795047C17.0437 0.796591 19.469 1.51907 22.1999 2.88067C20.8584 7.92416 18.4131 11.3127 13.9531 14.0637V14.0714Z" fill="#002D62"/>
<path d="M27.3656 4.66217C25.6375 4.80348 23.9204 5.05615 22.2249 5.41862C22.3407 5.10986 22.4487 4.80111 22.5521 4.49236C24.1988 4.19492 25.8203 3.933 27.4165 3.70658C27.7454 3.67262 27.7454 3.27741 27.4011 3.25426C25.9188 3.14165 24.4314 3.11176 22.9458 3.16472C23.0076 2.93161 23.0678 2.70159 23.1249 2.46231C20.0482 0.875315 17.4469 0 13.9534 0C10.4598 0 7.85705 0.875315 4.78032 2.46076L5.02269 3.43797C5.3151 4.63529 5.72892 5.79966 6.25771 6.91298C4.22243 7.77673 2.26056 8.80413 0.391398 9.98507C-0.114957 10.2846 0.152114 10.5779 0.592087 10.3926C2.34169 9.75454 4.14789 9.14475 6.0107 8.56326C5.6649 9.30118 5.3263 10.0406 4.99491 10.7817C4.73864 11.3621 4.29249 12.2529 5.14928 12.6265C5.23266 12.6487 5.31794 12.6632 5.404 12.6697C4.12926 13.5499 2.90756 14.5046 1.74528 15.5287C1.29141 15.9301 1.63104 16.137 2.00772 15.8992C4.49473 14.5284 7.11913 13.1884 9.87166 11.9055C11.1067 13.0908 12.4767 14.1271 13.9534 14.993C17.2956 12.9862 19.8027 10.6242 21.5178 7.09051C23.5268 6.37009 25.5064 5.70936 27.4567 5.10832C27.8056 5.03267 27.7948 4.62358 27.3656 4.66217ZM21.3449 6.90835L21.3588 6.87902C19.8073 10.1456 17.4654 12.6218 13.9487 14.7275C12.3785 13.7994 10.9362 12.6701 9.65862 11.3683C9.74353 11.4578 9.82998 11.5443 9.91797 11.6323C7.11913 12.9429 4.43606 14.303 1.89966 15.7063C3.55707 14.2493 5.33114 12.9306 7.20403 11.7635L6.92461 11.904C6.40436 12.168 5.827 12.5709 5.22647 12.415C4.57191 12.1309 5.00417 11.3343 5.20331 10.8805C5.60469 9.97787 6.01945 9.08094 6.44759 8.18967C4.41188 8.8185 2.43586 9.48078 0.51953 10.1765C2.44647 8.96031 4.47174 7.9074 6.57418 7.02876L6.6421 7.16307C6.03484 5.95961 5.56564 4.69132 5.24345 3.38239L5.04431 2.58118C8.0037 1.05748 10.6019 0.228477 13.9534 0.228477C17.3049 0.228477 19.903 1.05594 22.8655 2.58118C22.7811 2.90228 22.6947 3.21721 22.6062 3.52596L22.6432 3.39937C24.2236 3.32953 25.8068 3.35479 27.3841 3.47502C25.7426 3.71481 24.0733 3.98909 22.3762 4.29784L22.4132 4.18052C22.1955 4.86904 21.9501 5.52822 21.6861 6.15654C21.7448 6.01914 21.8034 5.87866 21.8605 5.73818C23.6801 5.32996 25.5257 5.04832 27.3841 4.89528C25.4009 5.49735 23.3878 6.16837 21.3449 6.90835ZM8.52395 5.29203L8.53785 5.28122H8.52858L8.52395 5.29203ZM13.9534 0.795039C10.8658 0.795039 8.43905 1.51752 5.70349 2.88067C5.84655 3.46318 6.00967 4.02511 6.19287 4.56646C6.45465 5.346 6.76928 6.10678 7.13456 6.84351C7.24949 6.65333 7.38013 6.47311 7.52514 6.30474L7.90027 5.90953C7.51326 5.06035 7.19124 4.18303 6.93696 3.28513C9.18124 2.21353 11.6262 1.62702 14.1124 1.56383C15.2677 1.57173 16.4193 1.69429 17.5503 1.92971L17.7912 1.98219L17.8776 2.00226L17.9347 2.01461C18.0289 2.03777 18.1246 2.05938 18.2188 2.08408C18.4751 2.14892 18.7324 2.21942 18.9907 2.29558C19.3774 3.6483 19.3625 5.08427 18.9478 6.42868C18.5331 7.77309 17.7365 8.96794 16.655 9.86775C16.5006 9.99125 16.3462 10.1117 16.1918 10.2244C15.5235 10.695 14.7802 11.0489 13.9935 11.271C13.7805 11.3312 13.5659 11.3822 13.3467 11.4254C13.1275 11.4686 12.899 11.4964 12.6705 11.518L12.8712 11.7079L13.3266 11.6338C15.2578 11.307 16.981 10.229 18.1196 8.63534C19.2583 7.04168 19.7196 5.06205 19.4029 3.12921C19.3936 3.07672 19.3828 3.02269 19.3735 2.97484V2.95168V2.92544V2.90073V2.87449V2.84825V2.822V2.79421V2.76643V2.74173V2.72011L19.3658 2.68924V2.66145V2.63984V2.61977V2.59816C19.3442 2.51479 19.3257 2.44378 19.3056 2.37277L19.6144 2.47002C19.8305 2.54104 20.0327 2.61359 20.2319 2.68924C20.7382 2.87758 21.1875 3.07055 21.5595 3.24808C20.4515 7.12153 18.0512 10.4991 14.7577 12.8194L14.4891 13.0078C14.381 13.0803 14.2729 13.1529 14.1633 13.2239C12.8393 12.3519 11.6384 11.3062 10.5926 10.1147L9.66634 10.5563C10.9231 11.9226 12.3676 13.1036 13.9565 14.0637C18.4133 11.3127 20.8586 7.92415 22.2002 2.88067C19.4692 1.51907 17.0424 0.795039 13.9534 0.795039ZM11.1561 9.8554L11.3104 9.7813L11.048 9.9048L11.1561 9.8554ZM13.183 3.98909C13.0472 4.30711 12.9098 4.62512 12.777 4.94468L13.1167 4.85051C12.705 5.85087 12.301 6.85535 11.9048 7.86394C11.7412 8.27458 11.5806 8.68368 11.4201 9.09895C11.9491 8.84166 12.4775 8.59105 13.0055 8.34714C13.2453 7.68435 13.4877 7.0231 13.7326 6.3634C13.958 6.81418 14.1808 7.26547 14.4011 7.71728C14.7438 7.56291 15.085 7.40853 15.4277 7.26496C15.2218 6.79154 15.0109 6.31709 14.7947 5.84161C15.1745 5.2663 15.5568 4.69305 15.9417 4.12185L16.2675 4.04621C16.3493 3.79766 16.4311 3.55066 16.5114 3.30211C16.1965 3.35975 15.8826 3.41893 15.5697 3.47965C15.0551 4.1445 14.5513 4.81346 14.0583 5.48654C14.2909 4.86904 14.5261 4.25153 14.7639 3.63402C14.2359 3.74826 13.7079 3.86404 13.183 3.98909ZM18.4396 3.94278C18.5229 3.61859 18.6032 3.29285 18.685 2.96866C18.3284 3.02115 17.9703 3.07672 17.6136 3.13539C17.3314 3.16663 17.0672 3.28975 16.8618 3.48582C16.7005 3.67357 16.5834 3.89515 16.5191 4.1342L15.8383 6.2646C15.7503 6.54402 15.6052 7.05501 16.0544 7.01796C16.2072 6.98402 16.3554 6.9322 16.496 6.86358C16.9509 6.67112 17.4073 6.48021 17.8653 6.29084C17.9816 5.84418 18.0968 5.39803 18.2111 4.9524C17.9723 5.0265 17.7325 5.10266 17.4917 5.18088C17.4346 5.38157 17.379 5.5838 17.3234 5.78449C17.1551 5.8447 16.99 5.90645 16.8232 5.9682C17.0291 5.24777 17.2395 4.52735 17.4546 3.80693L17.8977 3.71276C17.8622 3.83934 17.8282 3.96593 17.7927 4.09098L18.4396 3.94278ZM10.835 8.68831C11.0178 8.36187 11.1762 8.02234 11.3089 7.67251C11.6115 6.92842 11.9202 6.18638 12.2352 5.4464C12.3525 5.16853 12.5578 4.81809 12.4914 4.52014C12.3602 4.11413 11.6732 4.36577 11.3737 4.43678C10.9682 4.5397 10.5622 4.64622 10.1557 4.75634C9.45947 4.94622 8.83888 5.24417 8.34179 5.79375C8.06912 6.12273 7.84076 6.48604 7.66253 6.87439C7.10678 8.00648 6.57366 9.14732 6.06319 10.2969C5.92888 10.5964 5.51979 11.3266 5.95667 11.5149C6.43833 11.64 7.03731 11.2355 7.46493 11.0194C7.92806 10.7832 8.39119 10.5563 8.85432 10.3201C9.64473 9.9295 10.361 9.45247 10.835 8.68831ZM8.17352 9.4957C8.7056 8.26377 9.25879 7.04008 9.83307 5.82463C10.1542 5.72428 10.4768 5.62239 10.8025 5.51587C10.2746 6.67267 9.7672 7.83358 9.2804 8.99861C8.90681 9.16225 8.54093 9.32743 8.17352 9.4957Z" fill="white"/>
<path d="M21.8603 5.73201C21.8032 5.87249 21.7445 6.01297 21.6859 6.15037C21.6781 6.17043 21.6704 6.1905 21.6612 6.20903C21.6349 6.27232 21.6071 6.33407 21.5809 6.39582L21.567 6.4267C21.5222 6.5255 21.479 6.62276 21.4342 6.72002C21.4095 6.7725 21.3848 6.82654 21.3586 6.87439L21.3447 6.90372C23.3876 6.16889 25.4007 5.49735 27.3839 4.88911C25.5254 5.04215 23.6798 5.32379 21.8603 5.73201ZM9.64448 11.3559C9.56575 11.2741 9.49011 11.1923 9.41138 11.1089L9.37896 11.0734C9.29714 10.9854 9.21532 10.8974 9.13659 10.8079C8.76145 10.987 8.46505 11.1321 8.31221 11.2077C8.08528 11.3189 7.85989 11.4316 7.63296 11.5458L7.56812 11.5782L7.20379 11.7635C5.3309 12.9306 3.55683 14.2493 1.89941 15.7063C4.43582 14.303 7.11888 12.9429 9.91773 11.6323C9.82974 11.5443 9.74329 11.4578 9.65838 11.3683L9.64448 11.3559ZM20.1544 2.68924C19.9522 2.6136 19.75 2.53487 19.5369 2.47003L19.2282 2.37277C19.2482 2.44224 19.2668 2.5148 19.2884 2.59816V2.61978V2.63984V2.66146V2.68924L19.2961 2.72012V2.74173V2.76643V2.79422V2.82201V2.84825V2.8745V2.90074V2.92544V2.95168V2.97484C19.3054 3.02733 19.3162 3.08136 19.3254 3.12922C19.6452 5.05145 19.1949 7.02228 18.0721 8.61492C16.9493 10.2076 15.2443 11.2938 13.3264 11.6385L12.871 11.7126C13.358 12.1766 13.8735 12.6097 14.4147 13.0093L14.6833 12.821C17.9737 10.4988 20.3706 7.12076 21.4759 3.24809C21.11 3.07055 20.6608 2.87758 20.1544 2.68924Z" fill="#007DC3"/>
</g>
<defs>
<clipPath id="clip0_876_2890">
<rect width="27.588" height="16" fill="white" transform="translate(0.116211)"/>
</clipPath>
</defs>
</svg>
