<svg width="121" height="64" viewBox="0 0 121 64" fill="none" xmlns="http://www.w3.org/2000/svg">
<g clip-path="url(#clip0_765_676)">
<g clip-path="url(#clip1_765_676)">
<path d="M51.8372 34.348H59.754L55.5722 27.5948L47.8839 39.7922H44.3878L53.7385 25.1584C53.9423 24.8664 54.2131 24.6275 54.5283 24.4617C54.8435 24.2959 55.1938 24.2081 55.5499 24.2055C55.906 24.203 56.2576 24.2858 56.5751 24.4471C56.8926 24.6084 57.1668 24.8434 57.3748 25.1325L66.7514 39.7922H63.2553L61.6086 37.0649H53.5982L51.8527 34.348M88.18 37.0649V24.3532H85.2086V38.3169C85.208 38.5109 85.2469 38.7031 85.3228 38.8816C85.3987 39.0602 85.5101 39.2216 85.6501 39.3558C85.7908 39.4997 85.9589 39.6139 86.1445 39.6915C86.3301 39.7692 86.5295 39.8087 86.7307 39.8078H100.237L101.998 37.0805H88.1644M39.0527 34.7948C40.4374 34.7948 41.7653 34.2448 42.7444 33.2657C43.7235 32.2866 44.2735 30.9587 44.2735 29.574C44.2735 28.1894 43.7235 26.8615 42.7444 25.8824C41.7653 24.9033 40.4374 24.3532 39.0527 24.3532H26.0657V39.7922H29.032V27.0857H38.8709C39.5336 27.0857 40.1692 27.349 40.6378 27.8176C41.1064 28.2862 41.3696 28.9217 41.3696 29.5844C41.3696 30.2471 41.1064 30.8827 40.6378 31.3513C40.1692 31.8199 39.5336 32.0831 38.8709 32.0831H30.5021L39.3644 39.7922H43.6709L37.7177 34.7948H39.0527ZM7.82157 39.7922H16.793C18.805 39.74 20.717 38.9041 22.1216 37.4626C23.5262 36.021 24.3122 34.088 24.3122 32.0753C24.3122 30.0627 23.5262 28.1296 22.1216 26.6881C20.717 25.2466 18.805 24.4106 16.793 24.3584H7.82157C6.79133 24.3317 5.76616 24.5115 4.80653 24.8873C3.8469 25.2631 2.97223 25.8273 2.2341 26.5465C1.49597 27.2657 0.909331 28.1254 0.508775 29.075C0.108218 30.0246 -0.0981445 31.0447 -0.0981445 32.0753C-0.0981445 33.1059 0.108218 34.1261 0.508775 35.0756C0.909331 36.0252 1.49597 36.8849 2.2341 37.6042C2.97223 38.3234 3.8469 38.8875 4.80653 39.2633C5.76616 39.6391 6.79133 39.8189 7.82157 39.7922ZM16.5904 37.0753H8.01898C6.72215 37.0335 5.49243 36.4889 4.58987 35.5568C3.68731 34.6246 3.18267 33.378 3.18267 32.0805C3.18267 30.783 3.68731 29.5364 4.58987 28.6042C5.49243 27.6721 6.72215 27.1275 8.01898 27.0857H16.5904C17.2599 27.0641 17.9269 27.1773 18.5517 27.4186C19.1766 27.6599 19.7466 28.0244 20.2278 28.4903C20.709 28.9563 21.0916 29.5142 21.3529 30.1309C21.6143 30.7477 21.7489 31.4107 21.7489 32.0805C21.7489 32.7503 21.6143 33.4133 21.3529 34.0301C21.0916 34.6468 20.709 35.2048 20.2278 35.6707C19.7466 36.1367 19.1766 36.5011 18.5517 36.7424C17.9269 36.9837 17.2599 37.0969 16.5904 37.0753ZM72.9488 39.7922H82.1073L83.8423 37.0753H73.1514C72.482 37.0969 71.815 36.9837 71.1901 36.7424C70.5653 36.5011 69.9953 36.1367 69.5141 35.6707C69.0329 35.2048 68.6502 34.6468 68.3889 34.0301C68.1276 33.4133 67.9929 32.7503 67.9929 32.0805C67.9929 31.4107 68.1276 30.7477 68.3889 30.1309C68.6502 29.5142 69.0329 28.9563 69.5141 28.4903C69.9953 28.0244 70.5653 27.6599 71.1901 27.4186C71.815 27.1773 72.482 27.0641 73.1514 27.0857H81.8527L83.6086 24.3584H72.9488C71.9186 24.3317 70.8934 24.5115 69.9338 24.8873C68.9742 25.2631 68.0995 25.8273 67.3614 26.5465C66.6232 27.2657 66.0366 28.1254 65.636 29.075C65.2355 30.0246 65.0291 31.0447 65.0291 32.0753C65.0291 33.1059 65.2355 34.1261 65.636 35.0756C66.0366 36.0252 66.6232 36.8849 67.3614 37.6042C68.0995 38.3234 68.9742 38.8875 69.9338 39.2633C70.8934 39.6391 71.9186 39.8189 72.9488 39.7922ZM109.245 37.0753C108.157 37.0757 107.098 36.7208 106.229 36.0644C105.361 35.4081 104.731 34.4862 104.435 33.439H117.12L118.866 30.7169H104.435C104.73 29.6692 105.36 28.7468 106.229 28.0903C107.097 27.4339 108.156 27.0792 109.245 27.0805H117.951L119.692 24.3532H109.042C107.03 24.4054 105.118 25.2414 103.714 26.6829C102.309 28.1244 101.523 30.0575 101.523 32.0701C101.523 34.0828 102.309 36.0159 103.714 37.4574C105.118 38.8989 107.03 39.7348 109.042 39.787H118.201L119.941 37.0701H109.24" fill="#C74634"/>
</g>
</g>
<defs>
<clipPath id="clip0_765_676">
<rect width="120" height="64" fill="white" transform="translate(0.102051)"/>
</clipPath>
<clipPath id="clip1_765_676">
<rect width="120" height="15.5844" fill="white" transform="translate(0.102051 24.2078)"/>
</clipPath>
</defs>
</svg>
