<svg width="23" height="16" viewBox="0 0 23 16" fill="none" xmlns="http://www.w3.org/2000/svg">
<g clip-path="url(#clip0_876_2808)">
<path d="M22.1177 7.03324V4.00387C22.0959 4.00387 20.3929 3.39987 19.3997 3.1757C18.229 2.91417 17.8928 3.81395 17.843 3.97274V2.827C17.843 2.827 14.6455 2.21054 12.3447 2.24479C12.0625 2.23277 11.786 2.32623 11.569 2.50696C11.352 2.68769 11.2101 2.94274 11.1709 3.2224V2.21677C11.1709 2.21677 8.96971 2.28215 8.154 2.35687C7.83991 2.36708 7.53759 2.47877 7.29231 2.67522C7.04703 2.87167 6.87199 3.1423 6.79343 3.44657V2.47829C4.93193 2.71884 3.0938 3.11459 1.29823 3.6614C1.0314 3.74535 0.795892 3.90743 0.622163 4.12668C0.448434 4.34592 0.344476 4.61224 0.32373 4.8912L0.32373 11.5539L2.50313 10.8565V9.69833L4.49261 9.2282V10.3739L5.47022 10.184C4.46724 11.0305 3.67162 12.0955 3.14449 13.2974C4.46459 12.1642 5.77845 11.0651 7.72746 10.539L7.28535 11.5664C8.84206 10.7164 10.9218 10.6884 12.5782 11.2208L12.4536 11.4979C11.3819 11.0858 10.2171 10.978 9.08802 11.1865C10.2338 11.5788 11.1989 11.884 12.161 12.516C12.0956 14.3062 13.562 16.0155 15.455 15.9999C18.4968 15.975 19.8978 12.4101 18.1979 10.2089C18.4123 10.3553 18.6519 10.4608 18.9047 10.5203C19.9788 10.8316 22.1177 11.4543 22.1177 11.4543V8.62731L20.4832 8.1385L20.3057 8.93865C20.1998 8.90129 20.0442 8.89506 20.0411 8.81723V5.60417L20.1718 6.44791L22.1177 7.03324ZM13.4375 4.1502H13.5091L13.6648 4.8445L15.5515 5.01262V5.32397L13.4375 5.1465V4.1502Z" fill="#BBC4CA"/>
<path d="M20.1594 5.11847L20.34 6.28289L21.8967 6.76547V4.14085C21.8967 4.14085 20.34 3.58978 19.3219 3.3625C18.9763 3.26598 17.9582 3.20683 17.9364 4.48956V8.93864C17.918 9.2846 18.0264 9.62539 18.2414 9.89709C18.4563 10.1688 18.763 10.3527 19.1039 10.4144C20.2652 10.7257 21.906 11.2177 21.906 11.2177V8.77363L20.6233 8.38757L20.4458 9.18149C20.3026 9.1379 20.1874 9.10677 20.0411 9.06941C19.8947 9.03204 19.848 8.94176 19.8418 8.85769V5.03129L20.1594 5.11847ZM15.7414 2.71179V9.76681L16.0964 9.79795C16.2022 9.79795 17.0522 9.95362 17.1549 9.9723L17.6375 10.0968V2.98889C17.6375 2.98889 16.4544 2.7834 15.7414 2.71179ZM13.6648 3.95716L13.8205 4.65457L15.3772 4.79467V2.64641C15.3772 2.64641 13.1044 2.43158 12.4661 2.43158C12.3159 2.41827 12.1647 2.43757 12.0226 2.48816C11.8806 2.53876 11.7512 2.61945 11.6433 2.72472C11.5354 2.82998 11.4515 2.95733 11.3973 3.09805C11.3432 3.23876 11.3201 3.3895 11.3297 3.53996V8.15717C11.3147 8.32961 11.337 8.50325 11.3949 8.66634C11.4529 8.82943 11.5452 8.97816 11.6657 9.10246C11.7862 9.22675 11.9319 9.32371 12.0931 9.38676C12.2543 9.44982 12.4272 9.4775 12.6 9.46793C12.6 9.46793 14.2719 9.54887 14.9164 9.64539L15.3834 9.73257V5.51387L13.2445 5.34264V3.95716H13.6648ZM13.4749 6.75924V8.07622C13.4375 8.07622 13.2632 8.07622 13.2445 7.97037V6.73745L13.4749 6.75924ZM8.16647 2.54989C7.99161 2.55606 7.81982 2.5976 7.66146 2.67199C7.50309 2.74638 7.36144 2.85209 7.24506 2.98273C7.12867 3.11337 7.03996 3.26624 6.98429 3.43211C6.92861 3.59798 6.90711 3.77342 6.9211 3.94782V9.74502L7.37878 9.65784C7.48463 9.64228 8.34394 9.56133 8.44979 9.56133H8.82652V6.94916L9.0538 6.9336V9.53642L9.48656 9.48661C9.57685 9.48661 10.4206 9.44613 10.5607 9.44613L10.9686 9.46793V2.41602C10.9686 2.41602 9.01332 2.47206 8.16647 2.54989ZM8.82652 5.37377V4.02877C8.82652 3.94471 9.02578 3.95405 9.0538 3.95093V5.36132L8.82652 5.37377ZM6.59108 2.71179C6.59108 2.71179 4.81643 2.97955 4.29026 3.09786C4.16895 3.12472 4.05242 3.16986 3.94467 3.23173V3.16946C3.94467 3.16946 2.4689 3.48081 1.35741 3.85442C1.13097 3.92608 0.93043 4.06242 0.780511 4.24664C0.630591 4.43086 0.537835 4.65491 0.513672 4.89119V11.255L2.30389 10.6884V5.39556C2.30389 5.29905 2.38795 5.22121 2.55608 5.1714H2.58721V9.49906L4.48018 9.05073V4.89119C4.48272 4.83681 4.50444 4.78509 4.54149 4.74519C4.57853 4.7053 4.62851 4.67981 4.68255 4.67325V10.1186C4.68255 10.1186 6.1552 9.82286 6.23926 9.80729L6.59419 9.77615L6.59108 2.71179Z" fill="#130C0E"/>
<path d="M20.7943 8.67713L20.6168 9.46794C20.3304 9.38388 20.1903 9.34341 19.9941 9.29048C19.9041 9.2768 19.8205 9.23567 19.7548 9.1727C19.689 9.10973 19.6443 9.02799 19.6268 8.93866V4.89121C19.6921 4.66393 19.991 4.85696 20.3615 4.93168L20.5421 6.0961L21.6847 6.44792V4.30277C21.6847 4.30277 20.265 3.82019 19.2874 3.58357C19.1815 3.55866 18.2039 3.32827 18.1821 4.48957V8.93866C18.1672 9.23216 18.2603 9.52095 18.4439 9.75043C18.6275 9.9799 18.8888 10.1342 19.1784 10.184C20.1343 10.4331 21.6879 10.9001 21.6879 10.9001V8.93866L20.7943 8.67713ZM17.4069 3.18194L15.9685 2.95777V9.56135C15.9685 9.56135 17.1329 9.73881 17.2139 9.75438L17.4193 9.80731L17.4069 3.18194ZM13.3034 3.71744L13.8514 3.75481L14.0226 4.45533L15.1715 4.55496V2.85503C15.1715 2.85503 12.7772 2.64643 12.4659 2.65888C12.3462 2.64729 12.2254 2.66192 12.1119 2.70174C11.9984 2.74157 11.8949 2.80564 11.8087 2.88949C11.7225 2.97334 11.6556 3.07497 11.6126 3.18731C11.5696 3.29964 11.5516 3.41999 11.5599 3.53998V8.15719C11.5423 8.30115 11.557 8.44721 11.6029 8.58479C11.6487 8.72237 11.7247 8.84803 11.8251 8.95264C11.9255 9.05725 12.048 9.13821 12.1836 9.18964C12.3192 9.24107 12.4645 9.26169 12.6091 9.25C12.6091 9.25 14.1907 9.32784 14.885 9.41813L15.1559 9.46794V5.73183L13.4155 5.59173V6.52575L13.705 6.54755V8.31597C13.4871 8.31597 13.0325 8.35334 13.0138 7.9735V3.88557C13.0294 3.81085 13.0886 3.71744 13.3034 3.71744ZM8.18492 2.75851C8.03749 2.76268 7.89245 2.79682 7.75864 2.85885C7.62483 2.92088 7.50505 3.0095 7.40659 3.11932C7.30814 3.22913 7.23307 3.35784 7.18596 3.49761C7.13885 3.63737 7.12069 3.78526 7.13259 3.93227V9.48974H7.15438L7.38166 9.44926C7.57158 9.42747 8.3655 9.34963 8.43711 9.34652H8.61146V6.75926L9.26217 6.71567V9.29982L9.45831 9.28114C9.52681 9.28114 10.3923 9.24066 10.5542 9.24066H10.7504V2.63397C10.7504 2.63397 9.04112 2.67445 8.18492 2.75851ZM9.26528 5.56059L8.61458 5.59484V4.01945C8.63326 3.85444 8.74534 3.76103 8.95083 3.74547L9.26217 3.72678L9.26528 5.56059ZM6.36357 2.96711C6.36357 2.96711 4.63562 3.23175 4.33984 3.30959C4.09508 3.36534 3.87593 3.50121 3.71716 3.69565V3.44346C3.71716 3.44346 2.51538 3.7081 1.41322 4.06615C1.2342 4.12536 1.0758 4.23446 0.956666 4.38062C0.837532 4.52678 0.762613 4.70392 0.740723 4.89121V10.9313L2.07638 10.4954V5.38001C2.07638 4.94725 2.69907 4.89432 2.81426 4.87253V9.18773L4.25267 8.84837V4.87253C4.30248 4.4024 4.82554 4.43353 4.9096 4.40551V9.82599L5.61635 9.70456L6.36357 9.57691V9.56135V2.96711Z" fill="white"/>
<path d="M21.5229 9.0663L20.9002 8.88261L20.7227 9.67342C20.3273 9.55511 20.1748 9.51152 19.9319 9.44925C19.7975 9.42054 19.6764 9.34818 19.5874 9.24343C19.4984 9.13868 19.4466 9.00743 19.44 8.87015V4.94412C19.4867 4.63278 19.6859 4.58608 19.9288 4.65146C19.9288 4.65146 20.1903 4.72307 20.4954 4.81647L20.676 5.98089L21.5104 6.23619V4.41795C21.0621 4.26851 20.1561 3.95717 19.2501 3.74234C18.671 3.60224 18.3441 3.89801 18.3441 4.48956V8.93865C18.327 9.198 18.4076 9.45434 18.5701 9.65719C18.7326 9.86003 18.9652 9.99467 19.222 10.0346C20.4051 10.3459 21.526 10.6884 21.526 10.6884L21.5229 9.0663ZM16.1335 9.40877C16.202 9.40877 17.1765 9.5769 17.245 9.59247V3.33448C16.9119 3.27221 16.6223 3.2224 16.1335 3.16013V9.40877ZM13.5774 6.37007L13.8701 6.39186V8.4872L13.3532 8.44984C13.2862 8.44985 13.2199 8.4365 13.158 8.41057C13.0962 8.38464 13.0402 8.34665 12.9932 8.29882C12.9463 8.251 12.9093 8.19429 12.8845 8.13201C12.8598 8.06973 12.8476 8.00314 12.8489 7.93612V3.88867C12.8593 3.83315 12.8806 3.78026 12.9118 3.73314C12.9429 3.68601 12.9832 3.64559 13.0302 3.61425C13.0772 3.58292 13.13 3.56131 13.1855 3.55069C13.2409 3.54007 13.298 3.54066 13.3532 3.55242C13.3532 3.55242 13.649 3.5711 13.9759 3.59912L14.1285 4.29653L14.9847 4.37436V3.00134C13.428 2.8519 12.5655 2.82699 12.5655 2.82699C12.4521 2.81062 12.3366 2.81734 12.2258 2.84677C12.1151 2.8762 12.0114 2.92772 11.9211 2.99823C11.8532 3.07065 11.8003 3.15583 11.7656 3.24882C11.7309 3.34181 11.7149 3.44077 11.7187 3.53997V8.15718C11.7011 8.28042 11.7118 8.40603 11.7499 8.52455C11.7879 8.64307 11.8524 8.75139 11.9385 8.84134C12.0245 8.93129 12.1299 9.00052 12.2466 9.0438C12.3633 9.08709 12.4883 9.1033 12.6122 9.09121C12.6122 9.06941 14.692 9.21574 14.9909 9.27178V5.87192C14.4928 5.82211 14.2063 5.79409 13.5743 5.75673L13.5774 6.37007ZM7.31319 3.95717V9.28112C7.38169 9.28112 8.36553 9.17215 8.43402 9.16904V6.58801C8.77027 6.55999 9.10652 6.5382 9.43966 6.51952V9.09743C9.51127 9.09743 10.5045 9.05073 10.5761 9.05696V2.83011C9.90668 2.83011 8.98821 2.87369 8.20052 2.94842C8.0738 2.94973 7.94878 2.97769 7.83359 3.0305C7.7184 3.08331 7.61561 3.15978 7.53191 3.25493C7.44822 3.35007 7.38549 3.46178 7.34781 3.58276C7.31012 3.70375 7.29833 3.83132 7.31319 3.95717ZM8.43714 4.01943C8.44593 3.89413 8.50387 3.77737 8.59833 3.69457C8.69279 3.61177 8.81613 3.56963 8.94151 3.57733L9.44277 3.54619V5.74427C9.10964 5.75984 8.77339 5.77541 8.43714 5.80031V4.01943ZM4.371 3.46836C4.15902 3.53398 3.97021 3.65882 3.82679 3.82816C3.68338 3.99749 3.59134 4.20429 3.56151 4.42418V3.64582C3.56151 3.64582 2.58078 3.86065 1.47241 4.21869C1.32434 4.26627 1.19266 4.35459 1.09245 4.47352C0.992236 4.59245 0.927538 4.7372 0.905762 4.89119V10.6853C0.971144 10.6604 1.83979 10.3739 1.9114 10.3739V5.39246C1.9203 5.24756 1.97762 5.10986 2.07417 5.00145C2.17072 4.89305 2.30089 4.82023 2.44379 4.79468C2.57767 4.7542 2.9793 4.69193 2.9793 4.69193V8.97912L4.0908 8.71759V4.84761C4.10279 4.7143 4.15742 4.5884 4.24659 4.48857C4.33575 4.38875 4.45471 4.32032 4.58583 4.29342L5.07464 4.21558V9.61426C5.14313 9.59869 6.13009 9.43057 6.19859 9.42434V3.15702C6.19859 3.15702 4.89406 3.35316 4.371 3.46836Z" fill="#0077C0"/>
<path d="M16.1493 8.97911C20.4832 10.6915 18.6929 15.7352 15.5048 15.7882C15.0815 15.7791 14.6643 15.6853 14.2778 15.5123C13.8913 15.3393 13.5435 15.0907 13.2547 14.781C12.9659 14.4713 12.7421 14.107 12.5965 13.7094C12.4509 13.3118 12.3865 12.8891 12.4069 12.4661C11.6255 11.8435 10.6416 11.5321 9.68891 11.2675C10.6657 11.1949 11.6458 11.3571 12.547 11.7407L12.8397 11.118C11.3857 10.5825 9.07868 10.4953 7.66207 11.1741L8.05125 10.2681C6.39883 10.6839 4.87882 11.5119 3.6333 12.6747C4.50195 11.0122 6.46963 9.3247 8.26608 8.76428L8.1322 9.15657C9.28713 8.7424 10.4966 8.50008 11.722 8.43737C12.8126 8.35362 13.9095 8.42067 14.9817 8.63663C14.8198 8.42492 14.5583 8.05131 14.5583 8.05131L15.3927 8.26302L15.6075 7.92054L15.8255 7.56561L15.95 8.42492L16.747 8.68645L16.1493 8.97911Z" fill="#130C0E"/>
<path fill-rule="evenodd" clip-rule="evenodd" d="M16.5134 11.2893C16.7881 11.0861 17.0181 10.8286 17.189 10.5327C16.7033 10.0595 15.7817 9.47415 13.4311 9.31537C14.2962 9.47273 15.1267 9.78154 15.8845 10.2276C15.6589 10.1367 15.4255 10.0668 15.1871 10.019C15.0594 10.0346 14.8757 10.0533 14.7481 10.0813C15.4292 10.3282 16.0366 10.7438 16.5134 11.2893ZM16.3453 11.4076C14.7885 9.70143 11.6969 9.36518 9.55176 9.94739C11.04 9.90692 13.9915 9.98787 15.047 11.2395C14.7045 11.0527 14.0164 10.7351 13.6086 10.7569C13.4639 10.9188 13.3346 11.0939 13.2225 11.2799C14.2561 11.6598 15.3178 12.0458 16.3359 11.4076M16.9306 12.2918C16.7905 12.0434 16.6301 11.807 16.4511 11.5851C15.3365 12.298 14.2188 11.8964 13.0886 11.4699C12.8065 12.0504 12.737 12.7115 12.8925 13.3379C14.3112 13.3707 15.7116 13.012 16.9399 12.3011M17.2232 13.0141C17.1703 12.8429 17.108 12.6748 17.0395 12.5097C15.809 13.2178 14.4117 13.5843 12.9921 13.5714C13.1783 14.0954 13.5209 14.5496 13.9736 14.8726C14.4263 15.1955 14.9672 15.3717 15.5233 15.3772C15.8907 14.4681 16.3017 13.4718 17.2388 13.0141M17.3073 13.2414C16.448 13.643 16.0993 14.5459 15.7506 15.371C16.3089 15.3204 16.8393 15.1035 17.2731 14.7483C17.3934 14.2562 17.4019 13.7434 17.298 13.2476M17.4817 13.148C17.5753 13.5729 17.6088 14.0089 17.5813 14.4432C17.9136 14.028 18.1286 13.5313 18.204 13.0048C17.9572 13.0227 17.7136 13.0708 17.4785 13.148M17.2201 12.4039C17.2981 12.5772 17.3657 12.755 17.4225 12.9363C17.6839 12.8525 17.9548 12.8022 18.2289 12.7868C18.2374 12.4219 18.1772 12.0585 18.0514 11.7158C17.7998 11.9743 17.5211 12.205 17.2201 12.4039ZM16.6473 11.4699C16.8207 11.696 16.9778 11.9343 17.1174 12.1828C17.4248 11.9818 17.7034 11.7398 17.9456 11.4636C17.782 11.1672 17.5718 10.8991 17.3229 10.6697C17.1481 10.9771 16.9168 11.2485 16.641 11.4699" fill="#BBC4CA"/>
<path d="M15.0503 9.21262L15.5329 9.04449L15.8972 9.45858L15.8567 8.91684L16.3237 8.71136L15.8131 8.54634L15.7353 8.00461L15.4644 8.4436L14.9507 8.31284L15.29 8.75183L15.0503 9.21262Z" fill="#BBC4CA"/>
<path fill-rule="evenodd" clip-rule="evenodd" d="M16.0496 15.1281C16.3682 15.0248 16.6663 14.8668 16.9307 14.6611C17.0256 14.3423 17.0625 14.0091 17.0397 13.6773L16.7283 14.2221L16.8311 13.6928C16.468 14.1059 16.2048 14.597 16.062 15.1281M13.3814 13.8828C14.3665 13.8481 15.3309 13.5905 16.2021 13.1293C15.6915 13.6461 15.1498 13.9263 14.3341 14.356C15.2401 14.2034 15.6853 13.8485 16.28 13.422C15.8836 13.9304 15.5335 14.4732 15.2339 15.0441C15.2339 15.0441 14.1784 15.1779 13.3658 13.9077M13.2226 11.8964C13.8788 12.1781 14.5886 12.313 15.3024 12.2918L14.0881 12.653C14.7334 12.676 15.3791 12.6237 16.0122 12.4973C15.102 12.9056 14.1143 13.1127 13.1167 13.1044C13.0044 12.7022 13.042 12.2729 13.2226 11.8964Z" fill="#0077C0"/>
<path d="M12.4785 9.60181L12.8148 9.43679L13.095 9.68587L13.0389 9.31537L13.3627 9.12857L12.9922 9.0663L12.9144 8.70203L12.74 9.03205L12.3695 8.99469L12.6311 9.26244L12.4785 9.60181ZM8.71126 10.3428L8.93231 10.2338L9.116 10.3988L9.07864 10.156L9.29035 10.0315L9.05062 9.99099L8.99769 9.75125L8.8825 9.96608L8.63965 9.94428L8.81089 10.1186L8.71126 10.3428Z" fill="white"/>
<path fill-rule="evenodd" clip-rule="evenodd" d="M17.7589 11.3889C17.6841 11.4698 17.6125 11.5415 17.5378 11.61C17.4512 11.4384 17.3512 11.274 17.2389 11.118C17.295 11.0464 17.351 10.9748 17.4039 10.897C17.5435 11.0445 17.6629 11.2099 17.7589 11.3889ZM18.0702 12.5035C17.9799 12.5035 17.899 12.5284 17.818 12.5471C17.7999 12.4159 17.7739 12.286 17.7402 12.1579C17.8274 12.0832 17.9114 12.0085 17.9986 11.9275C18.0465 12.1158 18.0706 12.3093 18.0702 12.5035ZM17.7589 13.6991V13.6524C17.7951 13.4718 17.816 13.2885 17.8211 13.1044L17.9675 13.0733C17.92 13.2872 17.8511 13.4958 17.762 13.6959M15.676 9.89134L15.5483 9.82907C16.0491 9.96405 16.5209 10.1899 16.94 10.4953C16.902 10.5547 16.8593 10.6109 16.8124 10.6635C16.4921 10.3298 16.1048 10.0678 15.676 9.89445" fill="white"/>
<path d="M15.7664 0.392292C15.6481 0.370498 15.2185 0.298889 15.1936 0.298889C15.1597 0.29716 15.1259 0.302452 15.0941 0.314431C15.0624 0.326411 15.0335 0.344819 15.0092 0.368501C14.985 0.392183 14.9659 0.420627 14.9531 0.452046C14.9404 0.483465 14.9343 0.517181 14.9352 0.551076V1.77777C14.93 1.85987 14.9576 1.94066 15.0119 2.0025C15.0661 2.06434 15.1426 2.10219 15.2247 2.10779L15.8256 2.18251C15.8593 2.18663 15.8936 2.18333 15.9259 2.17285C15.9582 2.16237 15.9879 2.14496 16.0128 2.12184C16.0377 2.09871 16.0572 2.07043 16.0701 2.03896C16.0829 2.0075 16.0887 1.97361 16.0871 1.93966V0.719201C16.0871 0.66316 16.0684 0.44522 15.7664 0.392292ZM15.6544 1.79333C15.6544 1.84003 15.6295 1.86494 15.5952 1.85872L15.4302 1.84003C15.3928 1.84003 15.371 1.84003 15.371 1.75597V0.728542C15.371 0.6725 15.3991 0.656933 15.4364 0.660046L15.5796 0.684954C15.617 0.684954 15.6544 0.684954 15.6544 0.747222V1.79333ZM12.9426 0.0560418C12.706 0.0342478 12.1362 0.0155672 12.1362 0.0155672V1.88362H12.5814V0.358044H12.7589C12.8492 0.358044 12.8772 0.401632 12.8772 0.44522V1.9023L13.3162 1.93032V0.373611C13.3162 0.264641 13.2446 0.0809492 12.9426 0.0560418ZM11.0558 0.0031135C10.8379 0.0031135 10.7102 0.102743 10.7102 0.333136V1.86494H11.1524V1.13329H11.4637V1.86806H11.912V0H11.4388L11.0558 0.0031135ZM11.4512 0.843738H11.1399V0.407859C11.1399 0.370498 11.1679 0.323796 11.2644 0.323796H11.4357L11.4512 0.843738ZM10.4954 1.28273H10.1405L10.0533 1.59407H9.935V0.0373611L9.4929 0.0622685V1.90853L9.99416 1.88985H10.4954V1.28273ZM9.26873 1.17376C9.2712 1.13733 9.26195 1.10106 9.24235 1.07026C9.22275 1.03945 9.19381 1.01572 9.15976 1.00252C9.19061 0.98546 9.21656 0.960745 9.23509 0.930755C9.25363 0.900766 9.26414 0.866511 9.26562 0.831285V0.358044C9.26531 0.319511 9.2566 0.281509 9.24009 0.246694C9.22357 0.211879 9.19965 0.18109 9.17 0.156479C9.14035 0.131869 9.10568 0.114031 9.06842 0.104212C9.03116 0.0943921 8.9922 0.0928283 8.95427 0.0996295C8.72077 0.0996295 8.08251 0.183692 8.08251 0.183692V2.00816L8.52462 1.9708V1.22358L8.73322 1.20178C8.7986 1.20178 8.81417 1.23603 8.81417 1.2516V1.949L9.25628 1.91787L9.26873 1.17376ZM8.73011 0.921574L8.53396 0.940255V0.457674L8.72077 0.438993C8.81106 0.438993 8.8204 0.491921 8.8204 0.516829V0.828171C8.81901 0.851966 8.80913 0.874475 8.79257 0.891612C8.776 0.90875 8.75384 0.91938 8.73011 0.921574ZM7.59993 0.252188C7.547 0.252188 7.14537 0.302002 7.02706 0.323796C6.94304 0.333491 6.86532 0.373131 6.80815 0.435455C6.75097 0.497779 6.71816 0.578616 6.71572 0.66316V1.90853C6.71277 1.94064 6.7173 1.973 6.72896 2.00307C6.74062 2.03313 6.7591 2.06008 6.78293 2.08181C6.80676 2.10353 6.83531 2.11943 6.86632 2.12826C6.89734 2.13709 6.92998 2.13861 6.96168 2.1327C7.01772 2.1327 7.42247 2.07043 7.58437 2.05797C7.66694 2.05797 7.74613 2.02517 7.80452 1.96678C7.86291 1.9084 7.89571 1.8292 7.89571 1.74663V0.501261C7.89824 0.463689 7.89188 0.426048 7.87716 0.39139C7.86243 0.356731 7.83974 0.32603 7.81094 0.301773C7.78213 0.277516 7.74802 0.260386 7.71136 0.251771C7.6747 0.243157 7.63653 0.243299 7.59993 0.252188ZM7.37888 1.77777L7.21387 1.79645C7.17028 1.79645 7.1516 1.75286 7.1516 1.73106V0.691181C7.15041 0.676523 7.15445 0.661916 7.16299 0.649949C7.17154 0.637982 7.18405 0.629427 7.1983 0.625799L7.36643 0.597778C7.37445 0.59692 7.38256 0.597711 7.39026 0.600102C7.39796 0.602494 7.40509 0.606435 7.41122 0.611683C7.41734 0.616932 7.42232 0.623378 7.42587 0.630624C7.42941 0.63787 7.43143 0.645763 7.43181 0.65382V1.69993C7.4346 1.71721 7.43067 1.7349 7.42083 1.74938C7.41099 1.76385 7.39598 1.77401 7.37888 1.77777ZM14.3934 0.174352C14.2876 0.174352 13.5528 0.0902893 13.5528 0.0902893V1.95834L14.3903 2.02684C14.5491 2.04241 14.7297 1.98637 14.7297 1.76843V0.532396C14.7297 0.264641 14.5366 0.202373 14.3934 0.174352ZM14.2876 1.65012C14.2876 1.68748 14.2502 1.69993 14.2004 1.6937L13.9918 1.67502V0.473241L14.1786 0.491921C14.2502 0.491921 14.2782 0.526169 14.2876 0.560417V1.65012Z" fill="#130C0E"/>
</g>
<defs>
<clipPath id="clip0_876_2808">
<rect width="21.794" height="16" fill="white" transform="translate(0.32373)"/>
</clipPath>
</defs>
</svg>
