<svg width="15" height="16" viewBox="0 0 15 16" fill="none" xmlns="http://www.w3.org/2000/svg">
<g clip-path="url(#clip0_2_7303)">
<path d="M14.9107 4.55654C14.9107 4.68133 14.9191 4.80732 14.9091 4.93132C14.8971 5.07571 14.8763 5.2201 14.8495 5.36329C14.8123 5.56634 14.7681 5.76804 14.7171 5.96806C14.6789 6.11561 14.6309 6.26045 14.5735 6.40163C14.4483 6.70841 14.3095 7.0088 14.1267 7.28558C14.0139 7.45637 13.8987 7.62516 13.7811 7.79195C13.7358 7.85275 13.6864 7.91035 13.6331 7.96434C13.5431 8.05954 13.4563 8.15753 13.3587 8.24232C13.2156 8.3709 13.0656 8.49173 12.9096 8.6043C12.7672 8.7043 12.6072 8.77669 12.4616 8.87389C12.3 8.98108 12.1152 9.02748 11.9432 9.10868C11.7896 9.18067 11.6252 9.20467 11.4689 9.26067C11.2697 9.33266 11.0605 9.34946 10.8565 9.39306C10.6389 9.43986 10.4177 9.47425 10.1993 9.51905C10.0197 9.55505 9.84175 9.59825 9.66336 9.63824C9.56176 9.66064 9.45937 9.67744 9.36097 9.70744C9.23938 9.74464 9.12099 9.79304 9.00259 9.83703C8.9222 9.86583 8.8378 9.88743 8.76101 9.92463C8.64902 9.98062 8.54342 10.0506 8.43183 10.1102C8.24904 10.207 8.09665 10.3442 7.95826 10.4942C7.84146 10.6222 7.73987 10.7666 7.63827 10.9086C7.47108 11.1434 7.35589 11.4061 7.2527 11.6749C7.1511 11.9377 7.05791 12.2037 6.96271 12.4693C6.87432 12.7193 6.79072 12.9701 6.70073 13.2192C6.62125 13.4357 6.53884 13.651 6.45354 13.8652C6.33185 14.1737 6.18189 14.4703 6.00557 14.7512C5.87318 14.9635 5.73158 15.1707 5.54879 15.3423C5.4024 15.4795 5.26081 15.6239 5.08082 15.7199C4.90243 15.8159 4.71844 15.8991 4.52085 15.9427C4.28343 15.9928 4.04024 16.0102 3.7981 15.9943C3.7065 15.9895 3.61611 15.9643 3.52451 15.9475C3.46971 15.9371 3.41412 15.9287 3.36092 15.9119C3.31612 15.8979 3.27493 15.8731 3.23213 15.8515C3.11133 15.7927 2.98254 15.7459 2.87215 15.6723C2.73705 15.5779 2.60874 15.4742 2.48817 15.3619C2.26658 15.1651 2.10019 14.9207 1.9514 14.666C1.85066 14.4954 1.75972 14.3193 1.67902 14.1384C1.60222 13.964 1.54463 13.7812 1.48223 13.6004C1.43373 13.4597 1.38839 13.318 1.34624 13.1752C1.30944 13.0484 1.28024 12.9189 1.24904 12.7901C1.21984 12.6709 1.18905 12.5525 1.16425 12.4321C1.11945 12.2177 1.07825 12.0029 1.03625 11.7885C1.01765 11.698 0.999913 11.6074 0.983058 11.5165C0.959059 11.3805 0.93746 11.2442 0.914662 11.1078C0.897063 11.0062 0.877864 10.9054 0.862665 10.8038C0.845066 10.6918 0.830667 10.5798 0.813068 10.4682C0.798668 10.3714 0.781869 10.275 0.76827 10.1782C0.755471 10.0878 0.744272 9.99742 0.732672 9.90703C0.719628 9.80977 0.707095 9.71244 0.695074 9.61505C0.683075 9.52065 0.673076 9.42666 0.662276 9.33226L0.623878 9.00508C0.619479 8.96588 0.614679 8.92789 0.611879 8.88869C0.59828 8.7283 0.584681 8.56711 0.571881 8.40552C0.563397 8.30565 0.55673 8.20564 0.551883 8.10553C0.543483 7.94954 0.535084 7.79475 0.531884 7.63916C0.525818 7.38335 0.522351 7.12748 0.521484 6.8716C0.521484 6.72041 0.522284 6.56962 0.532284 6.41963C0.542683 6.26284 0.564282 6.10605 0.581081 5.94926C0.59468 5.82446 0.606679 5.70047 0.623078 5.57568C0.632278 5.50568 0.648677 5.43649 0.663076 5.36769C0.699874 5.1949 0.733472 5.02251 0.77547 4.85092C0.805868 4.72693 0.847866 4.60694 0.881864 4.48454C0.94466 4.25616 1.03905 4.04057 1.13145 3.82338C1.17345 3.72339 1.22544 3.62739 1.27824 3.5334C1.35264 3.4018 1.42463 3.26941 1.50863 3.14542C1.61222 2.99423 1.72181 2.84784 1.83781 2.70624C1.94763 2.57179 2.06418 2.44297 2.18699 2.32027C2.28298 2.22427 2.39178 2.14108 2.49497 2.05428C2.59656 1.96949 2.69536 1.88109 2.80295 1.8047C2.96774 1.6863 3.13693 1.57431 3.30812 1.46512C3.40772 1.40192 3.51371 1.34752 3.61771 1.29153C3.7797 1.20393 3.94169 1.11554 4.10568 1.03234C4.20967 0.980344 4.31647 0.934747 4.42326 0.89075C4.69644 0.779956 4.96883 0.667962 5.24521 0.564368C5.4292 0.496372 5.61799 0.443175 5.80478 0.383579C5.90077 0.352781 5.99477 0.319183 6.09156 0.291984C6.17156 0.269585 6.25235 0.257586 6.33315 0.238787C6.42114 0.218788 6.50674 0.19119 6.59553 0.174791C6.71513 0.151192 6.83672 0.134793 6.95831 0.115994C7.09431 0.0951954 7.2299 0.0739967 7.36629 0.0551978C7.42189 0.0475982 7.47948 0.0471982 7.53628 0.0431985C7.72427 0.0327991 7.91386 0.0215997 8.10185 0.0124002C8.17704 0.00840048 8.25464 -0.0079986 8.32783 0.00480067C8.50502 0.0367988 8.68341 0.0116003 8.8606 0.0247995C9.03179 0.0367988 9.20178 0.0551978 9.37177 0.0755966C9.49417 0.0907957 9.61496 0.116794 9.73735 0.135593C9.84455 0.151592 9.95134 0.161592 10.0581 0.178391C10.1441 0.19239 10.2301 0.210789 10.3161 0.229588C10.5001 0.270785 10.6837 0.307983 10.8657 0.35638C11.0273 0.400378 11.1845 0.466374 11.3473 0.504372C11.5348 0.549569 11.7068 0.637164 11.8876 0.695961C12.0724 0.755557 12.2316 0.865551 12.4076 0.939147C12.6136 1.02594 12.7916 1.15753 12.9748 1.28233C13.1136 1.37752 13.2487 1.47912 13.3747 1.59031C13.5615 1.7543 13.7427 1.92469 13.9171 2.10228C14.0203 2.20627 14.1083 2.32787 14.2023 2.44226C14.3543 2.62785 14.4655 2.83944 14.5735 3.05142C14.6595 3.22101 14.7307 3.401 14.7883 3.58299C14.8363 3.73219 14.8507 3.89258 14.8863 4.04537C14.9255 4.21336 14.9247 4.38295 14.9155 4.55334L14.9107 4.55654Z" fill="black"/>
</g>
<defs>
<clipPath id="clip0_2_7303">
<rect width="14.3992" height="16" fill="white" transform="translate(0.521484)"/>
</clipPath>
</defs>
</svg>
