<svg width="53" height="64" viewBox="0 0 53 64" fill="none" xmlns="http://www.w3.org/2000/svg">
<g clip-path="url(#clip0_743_414)">
<path d="M45.1602 14.6701C45.3147 6.63477 38.6842 0.46637 29.5674 0.46637H10.7127C10.2732 0.466511 9.84821 0.623516 9.51416 0.909129C9.18011 1.19474 8.95896 1.59021 8.89052 2.02435L1.33453 49.2345C1.30073 49.4484 1.31369 49.6671 1.37252 49.8756C1.43135 50.084 1.53465 50.2772 1.67531 50.4419C1.81597 50.6066 1.99065 50.7388 2.18731 50.8295C2.38398 50.9202 2.59797 50.9672 2.81454 50.9672H13.9861L12.239 61.9005C12.2051 62.1146 12.2181 62.3334 12.277 62.5419C12.336 62.7505 12.4394 62.9437 12.5802 63.1084C12.721 63.2731 12.8959 63.4053 13.0927 63.4959C13.2896 63.5865 13.5037 63.6334 13.7204 63.6332H22.82C23.2603 63.6332 23.6516 63.4744 23.9852 63.1899C24.3187 62.9041 24.3736 62.5099 24.4415 62.0752L27.1127 46.3583C27.1806 45.9251 27.4015 45.362 27.7365 45.0761C28.07 44.7902 28.3617 44.6342 28.8006 44.6328H34.3713C43.299 44.6328 50.8752 38.2882 52.2599 29.4616C53.2389 23.195 50.5517 17.4959 45.1602 14.6701Z" fill="#001C64"/>
<path d="M16.4034 33.5565L13.621 51.2012L11.8738 62.2673C11.84 62.4814 11.853 62.7002 11.9119 62.9087C11.9708 63.1172 12.0743 63.3105 12.2151 63.4752C12.3559 63.6399 12.5308 63.7721 12.7276 63.8627C12.9244 63.9533 13.1386 64.0002 13.3553 64H22.9862C23.4254 63.9995 23.8501 63.8424 24.1839 63.5568C24.5176 63.2712 24.7386 62.8759 24.807 62.442L27.3454 46.3568C27.4138 45.9231 27.6348 45.528 27.9686 45.2426C28.3023 44.9573 28.727 44.8004 29.1661 44.8003H34.8364C43.7641 44.8003 51.3389 38.2882 52.7236 29.4616C53.7054 23.1965 50.5519 17.4973 45.1604 14.6702C45.1459 15.3373 45.0882 16.0029 44.9856 16.6628C43.6009 25.488 36.0247 32.0015 27.097 32.0015H18.2242C17.7852 32.0015 17.3608 32.1582 17.027 32.4432C16.6933 32.7283 16.4721 33.123 16.4034 33.5565Z" fill="#0070E0"/>
<path d="M13.6194 51.2012H2.41464C2.19799 51.2013 1.98388 51.1545 1.7871 51.0639C1.59031 50.9733 1.41553 50.841 1.27482 50.6763C1.13411 50.5116 1.03082 50.3183 0.972089 50.1097C0.913356 49.9012 0.900575 49.6824 0.934629 49.4685L8.48918 1.55654C8.55765 1.12253 8.77885 0.727238 9.11293 0.441864C9.44702 0.15649 9.87202 -0.000206496 10.3114 2.04235e-07H29.5689C38.6843 2.04235e-07 45.3147 6.63478 45.1602 14.6702C42.8919 13.4804 40.2264 12.8003 37.3054 12.8003H21.2505C20.8114 12.8007 20.3869 12.9577 20.0532 13.243C19.7195 13.5283 19.4984 13.9232 19.4297 14.3568L16.4047 33.5565L13.6194 51.2012Z" fill="#003087"/>
</g>
<defs>
<clipPath id="clip0_743_414">
<rect width="51.9856" height="64" fill="white" transform="translate(0.916016)"/>
</clipPath>
</defs>
</svg>
