<svg width="14" height="16" viewBox="0 0 14 16" fill="none" xmlns="http://www.w3.org/2000/svg">
<g clip-path="url(#clip0_876_2690)">
<path d="M-0.00195312 5.78852V9.58492C2.12488 9.89686 4.6629 9.69126 6.45653 7.06817C6.53097 6.95828 6.57705 7.03627 6.52742 7.13197C6.02762 8.15285 4.84014 9.09575 3.81571 9.9004C2.83028 10.6696 0.189462 13.4416 0.224909 15.8768C0.228454 16.0647 0.231998 16.0115 0.3986 15.891C1.19971 15.2955 2.77002 15.2777 3.73418 15.7386C3.86888 15.8024 3.87952 15.7811 3.86179 15.6074C3.67747 13.7181 4.10283 11.655 4.91103 10.4569C5.46755 9.62746 6.97051 7.48999 7.22928 5.81334C7.25764 5.63964 7.16547 5.668 6.94925 5.89487C5.24778 7.69204 2.17451 7.64596 0.189462 5.74244C0.0653965 5.62901 0.00868104 5.68218 -0.00195312 5.78852Z" fill="#DB0032"/>
<path d="M3.68431 0L3.5567 0.386375H3.14551L3.47871 0.627416L3.35819 1.01025L3.68431 0.776294L4.00333 1.01025L3.88281 0.63096L4.21601 0.386375H3.80483L3.68431 0Z" fill="#003DA6"/>
<path d="M6.10557 1.41434L6.22963 1.79717H6.64082L6.30761 2.04175L6.43168 2.42104L6.10557 2.18709L5.783 2.42104L5.90706 2.04175L5.57031 1.79717H5.9815L6.10557 1.41434Z" fill="#003DA6"/>
<path d="M5.06699 0.322571L5.19106 0.708945H5.60224L5.26904 0.953531L5.38956 1.33636L5.06699 1.09886L4.74442 1.33636L4.86494 0.949986L4.53174 0.708945H4.94293L5.06699 0.322571Z" fill="#003DA6"/>
<path d="M6.50254 2.74716L6.6266 3.13354H7.03779L6.70459 3.37458L6.82511 3.75741L6.50254 3.51991L6.17997 3.75741L6.30403 3.37458L5.96729 3.13354H6.37493L6.50254 2.74716Z" fill="#003DA6"/>
<path d="M6.32871 4.15796L6.45278 4.54433H6.86396L6.53076 4.78892L6.65128 5.1682L6.32871 4.93425L6.00614 5.1682L6.12666 4.78537L5.79346 4.54433H6.20464L6.32871 4.15796Z" fill="#003DA6"/>
<path d="M5.54893 5.28519L5.66945 5.67156H6.08418L5.75097 5.9126L5.87149 6.29543L5.55247 6.05794L5.22636 6.29543L5.35042 5.9126L5.01367 5.67156H5.42486L5.54893 5.28519Z" fill="#003DA6"/>
<path d="M4.32627 5.9126L4.45033 6.29897H4.85798L4.52477 6.54356L4.64884 6.92639L4.32627 6.69244L4.0037 6.92639L4.12422 6.54356L3.79102 6.29897H4.2022L4.32627 5.9126Z" fill="#003DA6"/>
<path d="M1.21738 1.28674L1.08977 1.67312H0.682129L1.01179 1.9177L0.891268 2.29699L1.21384 2.06304L1.53995 2.29699L1.41589 1.9177L1.75263 1.67312H1.3379L1.21738 1.28674Z" fill="#003DA6"/>
<path d="M2.23105 0.322571L2.10699 0.708945H1.6958L2.029 0.953531L1.90494 1.33636L2.23105 1.09886L2.55362 1.33636L2.4331 0.949986L2.76631 0.708945H2.35512L2.23105 0.322571Z" fill="#003DA6"/>
<path d="M0.742646 2.57346L0.622125 2.95983H0.210938L0.544141 3.20087L0.423621 3.5837L0.742646 3.34975L1.06522 3.5837L0.944695 3.20087L1.28144 2.95983H0.870256L0.742646 2.57346Z" fill="#003DA6"/>
<path d="M0.870214 3.98425L0.746149 4.37063H0.334961L0.668165 4.61521L0.547644 4.9945L0.870214 4.76055L1.19278 4.9945L1.06872 4.61521L1.40192 4.37063H0.990734L0.870214 3.98425Z" fill="#003DA6"/>
<path d="M1.64645 5.13629L1.52593 5.52267H1.11475L1.44795 5.76371L1.32388 6.14654L1.64645 5.90904L1.97257 6.14654L1.8485 5.76371L2.18525 5.52267H1.77406L1.64645 5.13629Z" fill="#003DA6"/>
<path d="M2.87266 5.86652L2.74859 6.25289H2.3374L2.67061 6.49748L2.55009 6.87676L2.86911 6.64281L3.19877 6.87676L3.07116 6.49393L3.40791 6.25289H2.99672L2.87266 5.86652Z" fill="#003DA6"/>
<path d="M9.57935 14.9835C8.81724 14.9835 8.84914 14.0087 8.84914 12.8851C8.84914 11.7614 8.95548 10.7866 9.57935 10.7866C10.3415 10.7866 10.384 11.7578 10.384 12.8851C10.384 14.0087 10.2245 14.9835 9.57935 14.9835ZM10.5222 9.46795C9.84166 9.46795 9.14335 9.74089 8.77824 10.3116H8.76407L8.83142 9.32616C8.87041 8.65975 9.02283 6.84486 9.948 6.84486C10.3911 6.84486 10.2918 7.43328 10.3415 7.70268C10.4655 8.3301 10.7385 9.04967 11.5963 9.04967C12.1812 9.04967 12.7944 8.6633 12.7944 7.86928C12.7944 6.64635 11.7735 5.84525 10.5293 5.84525C7.34263 5.84525 6.06299 8.27692 6.06299 11.2226C6.06299 13.7783 7.05551 15.9867 9.79204 15.9867C11.5679 15.9867 13.0106 14.7212 13.0106 12.5979C13.0177 10.7972 12.0677 9.46795 10.5222 9.46795Z" fill="#003DA6"/>
</g>
<defs>
<clipPath id="clip0_876_2690">
<rect width="13.0127" height="16" fill="white" transform="translate(-0.00195312)"/>
</clipPath>
</defs>
</svg>
