<svg width="24" height="16" viewBox="0 0 24 16" fill="none" xmlns="http://www.w3.org/2000/svg">
<g clip-path="url(#clip0_879_4032)">
<path fill-rule="evenodd" clip-rule="evenodd" d="M14.1317 1.1834L12.9989 2.37072C14.8545 1.59969 18.901 0.275957 18.901 0.275957L17.6045 1.54422C21.1433 0.496448 23.8325 0 23.8325 0C23.8325 0 23.0533 1.81351 21.8891 3.62958C22.1143 3.60527 23.5842 3.43397 23.5842 3.43397C23.5842 3.43397 22.2605 5.62673 20.7319 7.20721L21.5874 7.42006C21.5874 7.42006 20.2545 9.34098 18.4953 10.9089C15.9654 13.1634 14.6636 12.8171 14.6636 12.8171C12.7856 14.1773 11.2804 13.488 11.2804 13.488C11.2804 13.488 11.9307 11.8467 11.2589 11.6725C10.6532 11.5151 9.73188 11.9886 9.61683 12.1785C9.49728 12.5927 8.99377 13.6444 8.47361 14.281C7.47621 15.5012 6.37022 16 6.37022 16C6.37022 16 5.49904 15.2566 5.49336 13.9911C5.49336 13.9911 4.89499 14.6249 3.92091 14.8321C3.23906 14.9771 2.30849 14.8593 1.35518 14.0634C0.715072 13.5291 0.592773 11.7336 0.592773 11.7336C0.592773 11.7336 1.19427 10.5845 2.35435 9.57754C2.0976 9.35724 1.94022 9.08011 1.89083 8.90901C4.97437 7.56313 4.97653 6.27841 7.42799 4.71655C9.8432 3.17781 11.361 2.47028 14.1317 1.1834Z" fill="white"/>
<path fill-rule="evenodd" clip-rule="evenodd" d="M12.6297 2.27332L11.6609 3.28876C13.5742 2.44188 17.6146 1.0664 17.6146 1.0664L16.4419 2.21355C20.5846 0.930974 23.2121 0.49646 23.2121 0.49646C23.2121 0.49646 22.3534 2.41013 21.2108 4.03568C21.7641 3.98257 22.9181 3.84851 22.9181 3.84851C22.9181 3.84851 21.7641 5.78197 20.0586 7.41968C20.2481 7.44751 21.0221 7.6241 21.0221 7.6241C21.0221 7.6241 19.9935 9.15029 18.2059 10.7157C15.9239 12.7136 14.9116 12.4771 14.9116 12.4771C14.9116 12.4771 14.9336 12.3991 14.9314 12.2777C14.9299 12.2107 14.9155 12.1499 14.915 12.145C13.1583 13.7982 11.6948 13.2404 11.6948 13.2404C11.6948 13.2404 12.3445 11.6674 11.3479 11.3499C10.5759 11.1041 9.39328 11.736 9.29901 12.0745C9.1965 12.4426 8.70613 13.4641 8.21988 14.0626C7.37633 15.1012 6.44262 15.5751 6.44262 15.5751C6.44262 15.5751 5.59378 14.9221 5.88816 13.0107C5.95245 12.5943 5.86993 12.4316 5.82446 12.3616C5.68511 12.1484 4.59912 12.381 4.33414 12.9868C4.14716 13.4147 5.2263 13.7763 5.2263 13.7763C5.2263 13.7763 4.72828 14.3257 3.85788 14.5036C3.31047 14.6155 2.46281 14.5799 1.57281 13.8092C1.04618 13.3533 0.937012 11.8107 0.937012 11.8107C0.937012 11.8107 1.58751 10.6191 2.8546 9.5899C2.60451 9.42625 2.4146 9.14892 2.36658 9.03995C4.91976 7.94023 5.26981 6.38523 8.15206 4.64757C9.49539 3.83773 10.9103 3.04083 12.6297 2.27332Z" fill="#004C54"/>
<path fill-rule="evenodd" clip-rule="evenodd" d="M22.2806 1.17694C22.2806 1.17694 21.74 2.76604 20.5917 4.37925C21.2853 4.33045 22.033 4.28969 22.033 4.28969C22.033 4.28969 21.2291 5.90682 19.4138 7.6388C19.5161 7.65996 19.9355 7.73581 20.1692 7.83263C19.2921 9.25514 16.6707 12.0484 15.2057 12.1633C15.1892 11.9183 15.0941 11.7094 14.9793 11.5653C14.4295 12.5701 12.7509 13.1869 12.0539 13.0256C12.9002 9.92543 9.30983 11.1067 9.03446 11.9577C8.31968 14.1675 6.50518 15.2072 6.50518 15.2072C6.50518 15.2072 5.92524 14.5465 6.17396 13.0586C6.35741 11.9616 5.6634 11.9957 5.6634 11.9957C5.38666 11.983 4.33653 12.1096 4.00531 12.8424C3.73817 13.4325 4.67325 13.8468 4.67325 13.8468C4.67325 13.8468 3.32306 14.9248 1.761 13.5887C1.37784 13.261 1.23535 11.8773 1.23535 11.8773C1.98659 10.632 2.97674 9.83998 3.38695 9.5456C2.95204 9.37881 2.81661 9.15303 2.81661 9.15303C4.91392 8.1913 5.7365 6.59279 7.52199 5.40488C9.48955 4.09585 10.9958 3.453 10.9958 3.453L10.4274 4.16837C10.4274 4.16837 10.9032 3.96493 11.1108 3.86321C12.9845 2.94361 16.1592 1.94151 16.1592 1.94151L15.1692 2.90049C15.1692 2.90049 16.8104 2.33839 18.8784 1.89662C19.9796 1.66124 22.2806 1.17694 22.2806 1.17694ZM7.20821 8.41238C7.17567 8.45295 7.13922 8.4992 7.09943 8.5482C7.21703 8.54957 7.3209 8.59563 7.3748 8.68559C7.47025 8.84473 7.37539 9.0764 7.16274 9.2034C6.95008 9.33021 6.70039 9.30414 6.60475 9.1448C6.59005 9.1205 6.58123 9.09404 6.57535 9.06679C6.53497 9.09541 6.49323 9.12187 6.45011 9.14597C6.45913 9.17694 6.47186 9.20732 6.48872 9.23554C6.62395 9.46035 6.9687 9.50248 7.25916 9.32903C7.54962 9.15597 7.67545 8.83337 7.54041 8.60817C7.47201 8.4945 7.34971 8.42825 7.20821 8.41238Z" fill="black"/>
<path fill-rule="evenodd" clip-rule="evenodd" d="M14.941 2.68979C14.941 2.68979 14.4632 3.03179 14.133 3.25091C13.6849 3.54823 13.2882 3.83556 13.2882 3.83556C13.2882 3.83556 13.3057 3.82772 13.338 3.814C17.0995 2.63511 20.2066 3.00377 20.2066 3.00377C18.1731 3.19976 16.5288 3.58626 15.6562 3.9849C15.6562 3.9849 16.861 3.77794 17.4734 3.77794C18.0726 3.77794 18.5626 3.83615 18.5626 3.83615C14.7299 4.43412 12.6685 5.54186 12.166 5.84016C11.9569 5.92914 11.8473 5.98461 11.8473 5.98461C11.8473 5.98461 12.4723 5.78881 13.2645 5.59243C14.6586 5.3786 16.6987 5.49365 18.667 6.0779C18.667 6.0779 17.3023 6.00558 16.7059 6.01891C14.925 6.0585 13.0895 6.77465 13.0895 6.77465C14.2488 6.48243 15.5196 6.69763 15.5196 6.69763C15.0255 6.72605 13.8106 7.05061 13.2008 7.30168C12.3224 7.66348 11.4345 8.17874 10.7876 8.65461C10.5259 8.80983 10.386 8.91214 10.386 8.91214L10.3867 8.91176C10.4039 8.9026 10.7329 8.72804 11.2768 8.5182C12.2293 8.19775 13.8425 7.9118 15.6345 8.51369C12.8727 7.96354 10.6909 9.25709 10.6909 9.25709C12.2726 8.74026 13.2757 9.22749 13.2757 9.22749C11.3585 8.99446 9.92893 10.0034 9.43679 10.6328C9.71412 10.0728 10.1234 9.71179 10.1234 9.71179C10.0248 9.76039 9.92736 9.81625 9.83093 9.87799C9.43601 10.1053 7.81868 10.9267 6.41421 10.0542C6.32699 10.0001 6.25369 9.94953 6.19019 9.9021C6.65724 10.1467 7.42788 10.1675 7.74774 9.85271C6.62784 10.1416 6.42891 9.63026 6.40499 9.31216C6.33267 9.32588 6.21645 9.31706 6.12963 9.29687C6.12963 9.29687 6.31288 9.21907 6.40382 9.17203C6.4195 9.16399 6.43459 9.15478 6.45007 9.14596C6.45909 9.17693 6.47183 9.20731 6.48868 9.23553C6.62392 9.46033 6.96867 9.50247 7.25913 9.32902C7.54959 9.15596 7.67541 8.83335 7.54038 8.60816C7.47197 8.49448 7.34968 8.42824 7.20817 8.41236C7.30891 8.29536 7.50275 8.03665 7.80203 7.82145C7.58173 8.08564 7.51137 8.26439 7.50294 8.28693C7.63798 8.30809 7.75636 8.36591 7.81339 8.47312C7.9257 8.68322 7.84926 8.84825 7.80849 8.93272C7.8083 8.93253 7.8081 8.93252 7.8079 8.93252C7.73304 9.09089 7.59388 9.24709 7.40651 9.36527C7.1529 9.5254 6.87498 9.57557 6.67056 9.51795C6.67056 9.51795 6.70721 9.58479 6.7666 9.62418C6.86538 9.69023 7.15721 9.78646 7.57918 9.59576C7.73558 9.52501 7.85298 9.44465 7.94255 9.36312C8.25986 9.12499 8.29436 8.82042 8.40764 8.55308C8.67478 7.92179 9.22649 7.37517 9.86935 7.14821C9.25824 7.22269 8.51093 7.77362 8.53268 7.52765C8.54287 7.4132 8.87057 6.3225 10.8779 5.48797C10.9146 5.47464 10.9508 5.46131 10.9885 5.44818C10.9885 5.44818 10.0138 5.59909 8.54503 6.47479C7.96744 6.81934 7.44846 7.2956 7.18583 7.6574C7.19739 7.41966 7.32576 7.18918 7.40377 7.00749C6.85715 7.35949 6.99336 7.84947 6.58158 8.32711C6.40127 8.51937 6.21135 8.70341 6.00987 8.83433C4.84588 9.59243 3.69678 9.12068 3.69678 9.12068C5.25668 8.27752 5.21003 8.0876 6.23781 6.99769C7.39005 5.77627 8.09797 5.14714 10.0371 4.19618C9.91031 4.35964 9.38623 4.81944 9.27314 4.95016C9.27314 4.95016 9.66218 4.74202 10.3989 4.39237C13.0119 3.15174 14.941 2.68979 14.941 2.68979ZM6.80874 8.8704C6.80325 8.96036 6.82383 9.07462 6.93456 9.15831C6.93456 9.15831 6.80835 9.16869 6.72622 9.10813C6.67958 9.07364 6.65959 9.03287 6.65136 9.00935C6.70663 8.96545 6.75896 8.91861 6.80874 8.8704Z" fill="white"/>
<path fill-rule="evenodd" clip-rule="evenodd" d="M5.40123 9.69159C5.40123 9.69159 6.82198 11.4865 9.08588 10.5943C8.98181 10.7782 8.93594 10.9812 8.86813 11.2207C8.34522 13.653 6.58326 14.7068 6.58326 14.7068C6.26242 13.9785 6.44195 13.2747 6.49663 13.0111C6.62089 12.4106 6.33258 11.9635 6.33258 11.9635C7.49168 12.0186 6.35532 13.4625 6.78591 14.0912C7.56478 13.6377 8.03458 12.0423 8.1506 11.4726C8.15864 11.4512 8.04065 11.3673 7.9452 11.3322C6.82609 10.9724 4.94966 11.2805 4.27134 11.6909C2.14678 12.9766 4.13434 13.8586 4.13434 13.8586C4.13434 13.8586 2.82609 14.2958 2.07721 13.113C1.89356 12.7994 1.84731 12.2275 1.80713 11.7807C2.586 10.4622 3.81036 9.93815 4.15041 9.70375C4.44538 9.78371 4.97985 9.82056 5.40123 9.69159ZM9.88552 10.8846C9.88552 10.8846 10.8688 9.92541 13.0535 10.3113C13.8914 10.4593 14.3547 10.9015 14.3547 10.9015C13.9812 11.5512 13.2425 11.8689 13.2425 11.8689C13.2425 11.8689 13.2895 10.835 11.6485 10.5712C10.5724 10.3982 9.92515 10.8557 9.88728 10.8833L9.88552 10.8846ZM11.2771 8.51819C12.7111 7.96432 15.6389 7.16389 18.2918 8.49369C18.134 8.83217 17.7348 9.33508 17.0978 9.96206C16.4912 10.5589 16.0883 10.7307 15.9832 10.7878C15.9666 10.7968 15.9577 10.8011 15.9577 10.8011C15.7412 9.98166 13.9388 9.20161 11.3453 9.84506C10.2743 10.1106 9.7967 10.441 9.36085 10.8468L9.33185 10.874C9.3636 10.7901 9.39927 10.7098 9.4371 10.6327C9.92923 10.0034 11.3588 8.99445 13.276 9.22748C13.276 9.22748 12.2729 8.74025 10.6912 9.25708C10.6912 9.25708 12.873 7.96353 15.6348 8.51368C13.8428 7.91179 12.2296 8.19774 11.2771 8.51819ZM4.86696 10.0544C4.58492 10.2006 4.37404 10.3143 4.37404 10.3143C4.20744 10.564 4.55807 10.5142 4.72035 10.466C4.85186 10.4268 5.44415 10.2547 5.44415 10.2547C5.1143 10.2231 4.98827 10.1537 4.86696 10.0544ZM10.8782 5.48796C8.87087 6.32249 8.54318 7.41319 8.53298 7.52765C8.51123 7.77362 9.25855 7.22268 9.86965 7.14821C9.2268 7.37516 8.67508 7.92179 8.40794 8.55308C8.29466 8.82041 8.26016 9.12498 7.94285 9.36311C8.21034 9.11989 8.22041 8.86868 8.22076 8.8453L8.22077 8.84354C8.22077 8.84354 8.07319 8.93252 7.94716 8.94624C7.90561 8.95074 7.85622 8.94369 7.80879 8.93271C7.87288 8.80728 7.87171 8.7181 7.87288 8.6936C8.0679 8.2487 8.55474 7.83653 8.55474 7.83653C8.55474 7.83653 8.1947 8.05075 8.1408 7.84339C7.99773 7.29128 8.96495 6.20078 10.8045 5.51442C10.8085 5.51285 10.8576 5.49521 10.8782 5.48796ZM14.7669 5.28177C17.0641 4.9284 20.2368 5.26904 20.2368 5.26904C20.2368 5.26904 20.09 5.73569 19.4003 6.49202C18.75 7.20563 18.5058 7.39359 18.5058 7.39359C14.7685 6.59727 11.8235 8.04056 10.7879 8.6546C11.4348 8.17873 12.3227 7.66347 13.2011 7.30167C13.8109 7.0506 15.0258 6.72604 15.5199 6.69762C15.5199 6.69762 14.2491 6.48242 13.0898 6.77465C13.0898 6.77465 14.9253 6.05849 16.7062 6.0189C17.3026 6.00557 18.6673 6.07789 18.6673 6.07789C16.699 5.49364 14.6589 5.37859 13.2648 5.59242C13.7383 5.47541 14.2714 5.35782 14.7669 5.28177ZM20.6563 2.28702C20.6563 2.28702 20.2662 3.49825 19.273 4.45782C18.5762 4.52721 16.846 4.60051 15.3568 4.89547C13.7781 5.20828 12.6755 5.62437 12.1663 5.84016C12.6688 5.54186 14.7302 4.43411 18.5629 3.83614C18.5629 3.83614 18.0729 3.77793 17.4737 3.77793C16.8613 3.77793 15.6565 3.9849 15.6565 3.9849C16.5291 3.58625 18.1734 3.19975 20.2069 3.00376C20.2069 3.00376 17.0998 2.6351 13.3383 3.81399C13.6015 3.70247 14.9211 3.16996 16.963 2.79091C18.9264 2.42656 20.6563 2.28702 20.6563 2.28702Z" fill="#A5ACAF"/>
</g>
<defs>
<clipPath id="clip0_879_4032">
<rect width="23.2397" height="16" fill="white" transform="translate(0.592773)"/>
</clipPath>
</defs>
</svg>
