<svg width="18" height="16" viewBox="0 0 18 16" fill="none" xmlns="http://www.w3.org/2000/svg">
<g clip-path="url(#clip0_2_7491)">
<path d="M10.2321 14.0835C10.025 14.0835 9.85693 14.2513 9.85693 14.4585C9.85693 14.6655 10.025 14.8335 10.2321 14.8335C10.4391 14.8335 10.6069 14.6655 10.6069 14.4585C10.6069 14.2513 10.4391 14.0835 10.2321 14.0835ZM10.2321 14.7531C10.1738 14.7531 10.1168 14.7359 10.0684 14.7035C10.0199 14.6711 9.98213 14.6251 9.95983 14.5713C9.94506 14.5355 9.93746 14.4972 9.93748 14.4585C9.93748 14.2958 10.0691 14.1641 10.2321 14.1641C10.3948 14.1641 10.5266 14.2958 10.5266 14.4585C10.5266 14.6213 10.3948 14.7531 10.2321 14.7531ZM10.3861 14.3716C10.3861 14.3549 10.3828 14.3383 10.3764 14.3229C10.37 14.3075 10.3607 14.2935 10.3488 14.2817C10.325 14.2579 10.2926 14.2445 10.2589 14.2445H10.0782V14.6726H10.1585V14.4987H10.2162L10.2973 14.6726H10.3862L10.3014 14.4913C10.3262 14.4825 10.3476 14.4663 10.3627 14.4449C10.3779 14.4234 10.3861 14.3978 10.3861 14.3716ZM10.2589 14.4184H10.1585V14.3247H10.2589C10.2713 14.3247 10.2832 14.3297 10.2921 14.3384C10.3009 14.3472 10.3058 14.3592 10.3058 14.3716C10.3058 14.384 10.3008 14.3959 10.292 14.4047C10.2832 14.4135 10.2713 14.4184 10.2589 14.4184Z" fill="black"/>
<path d="M16.3068 2.38065H15.2224C15.1784 2.25475 15.1046 2.1314 14.9959 2.0229C14.6813 1.70783 14.2586 1.65663 14.0124 1.90263C13.9604 1.9548 13.9216 2.01695 13.8957 2.08592C13.8232 2.03288 13.7324 1.98488 13.6241 1.94197C13.4718 1.6223 13.2568 1.17035 12.7736 1.17035C12.601 1.17035 12.4464 1.22392 12.3249 1.28425C11.9686 1.00207 11.1961 0.4739 10.4076 0.4739C9.54418 0.4739 8.34616 1.26675 7.99486 1.26675C7.73893 1.26675 7.16478 0 6.27341 0C5.79458 0 5.30946 0.324525 4.73141 0.6732C4.17998 1.00348 4.03256 1.40292 3.87303 1.8241C3.81866 1.96142 3.57821 2.21265 3.41128 2.38065H0.644531L5.35588 10.5735H2.13038L1.10313 12.4234H5.83588C5.99813 12.4234 6.17836 12.3678 6.33893 12.2834L8.47591 16L10.5554 12.3834H12.2872V11.3691H12.171C12.1698 11.0168 11.9031 10.6327 11.7694 10.4631L11.7438 10.3166L12.1412 9.62505L14.4571 8.771C14.8331 8.63235 15.0077 8.29545 15.089 8.03218C15.089 8.03218 15.3445 8.02962 15.5775 7.76205C15.7408 7.80412 15.9485 7.84755 16.1095 7.84755C16.4599 7.84755 16.8279 7.64727 16.923 7.27435C16.923 7.27435 17.2939 7.0464 17.4586 6.3456L14.5757 5.3912L16.3068 2.38065Z" fill="white"/>
<path d="M14.0608 5.9292L14.4227 6.04895L14.4204 6.28237C14.2276 6.27505 14.0734 6.23835 14.0734 6.80197C14.0734 7.22247 14.1536 7.35872 14.1536 7.4773C14.1536 7.67847 14.1364 7.72622 13.5041 7.72622C13.5041 7.72622 13.4053 7.60632 13.0584 7.472C13.0584 7.472 13.0518 7.4399 13.0377 7.381L15.7163 2.7228H14.9048C14.9648 2.6075 14.9056 2.4158 14.7544 2.26455C14.5832 2.09355 14.3593 2.0397 14.2545 2.14447C14.2068 2.19205 14.1923 2.2644 14.2063 2.3453L13.8727 2.69505C13.8817 2.64222 13.9006 2.36465 13.3766 2.21505C13.2188 1.9027 13.0871 1.51222 12.7738 1.51222C12.5178 1.51222 12.2956 1.70692 12.2956 1.70692C12.2956 1.70692 11.3385 0.815747 10.4079 0.815747C9.60005 0.815747 8.4856 1.60887 7.99508 1.60887C7.47168 1.60887 7.00918 0.341797 6.27363 0.341797C5.87828 0.341797 5.41145 0.659772 4.90903 0.965722C4.40683 1.27072 4.31318 1.6446 4.19073 1.95117C4.10963 2.15437 3.85273 2.42675 3.55263 2.7228H1.23633L5.94108 10.905C5.90533 10.9115 5.87058 10.9159 5.83875 10.9159H2.33188L1.68438 12.0813H5.8361C6.01268 12.0813 6.2547 11.9752 6.3739 11.8448L6.44015 11.7731L8.47613 15.3139L10.3576 12.0414H11.9457V11.7112H11.5641L11.4964 11.4989H11.5546L11.8295 11.3718C11.8295 11.0545 11.448 10.6091 11.448 10.6091L11.3858 10.2538L11.9069 9.3473L14.3392 8.4502C14.7704 8.2913 14.8185 7.66275 14.8185 7.66275C14.8185 7.66275 15.214 7.84852 15.4324 7.366C15.4324 7.366 15.871 7.50615 16.1097 7.50615C16.3168 7.50615 16.6064 7.39427 16.6064 7.0831C16.6064 7.0831 16.9258 6.89175 17.0302 6.56437L14.1645 5.6152L14.0608 5.9292ZM14.299 2.47485C14.3989 2.47485 14.4563 2.5135 14.4563 2.56947C14.4563 2.62517 14.2543 2.89055 13.9981 2.89055C13.9441 2.89055 13.9316 2.86102 13.9316 2.8443C13.9316 2.76267 14.1986 2.47485 14.299 2.47485ZM14.0831 3.02515C14.3194 3.31022 14.3278 3.62315 14.3278 3.62315L14.0147 3.0736C14.0147 3.0176 14.0831 3.02515 14.0831 3.02515ZM13.9376 3.2126C13.9376 3.2126 14.2828 3.59452 14.2828 3.80992C14.2828 3.92792 14.1885 3.8805 14.1885 3.8805L13.8541 3.37955L13.9376 3.2126ZM13.9934 4.13817C13.8294 4.13817 13.6732 3.69312 13.6732 3.69312C13.6732 3.69312 13.6897 3.60312 13.7774 3.60312C14.0574 3.84202 13.9934 4.13817 13.9934 4.13817ZM13.4358 3.90162C13.714 3.90162 13.8235 4.40832 13.7989 4.5003C13.529 4.5003 13.4358 3.90162 13.4358 3.90162ZM13.5336 4.81332C13.1405 4.81332 12.9415 4.103 12.9415 4.103C12.9415 4.103 12.9494 4.00457 13.2276 4.0264C13.2276 4.0264 13.6225 4.4276 13.5336 4.81332ZM13.7948 3.03132C13.7948 3.38832 13.3818 3.82682 13.1771 3.82682C13.0693 3.82682 13.0531 3.7414 13.0531 3.7414C13.0531 3.7414 13.3083 3.19865 13.6866 2.95502C13.6866 2.95502 13.7948 2.95785 13.7948 3.03132ZM13.4294 2.48147C13.6006 2.38367 13.8535 2.69997 13.612 2.82237C13.2553 2.99692 12.8717 3.7346 12.8717 3.7346C12.6997 3.7636 12.6357 3.6582 12.6357 3.6582C12.6357 3.6582 12.7117 2.94645 13.4294 2.48147ZM9.08458 8.65935C8.95178 8.81065 8.57905 8.5511 8.72053 8.403L12.6156 4.30922C12.7599 4.16517 12.9511 4.34352 12.8144 4.49652L9.0846 8.65932L9.08458 8.65935ZM9.34933 9.1367L9.3152 9.24827L9.18293 9.2276L9.20405 9.03172C9.28143 9.0105 9.31363 9.11547 9.34933 9.1367ZM8.9484 8.94605C9.0824 8.94605 9.07698 9.13872 9.07698 9.45777C9.07698 9.67062 8.99563 9.75602 8.93973 9.75602C8.83938 9.75602 8.8445 9.6021 8.81373 9.54735C8.81373 9.54735 8.85513 9.49315 8.85513 9.38465C8.85513 9.2757 8.80048 8.94605 8.9484 8.94605ZM7.1284 8.56615C7.04093 8.65315 6.8838 8.6422 6.8838 8.6422C6.8838 8.6422 6.45615 8.26595 6.7171 7.9042C6.9936 8.0736 7.12838 8.56615 7.12838 8.56615H7.1284ZM6.92515 7.7795C6.92515 7.6176 7.26953 7.50395 7.26953 7.8077C7.26953 8.1921 7.34353 8.1859 7.34353 8.2387C7.34353 8.31015 7.20443 8.2592 7.20443 8.2592C7.20443 8.14177 6.92518 7.94105 6.92518 7.7795H6.92515ZM7.64615 8.51965C7.81335 8.51965 7.75515 8.73257 7.75515 8.73257C7.45523 8.66105 7.0099 9.08725 7.0099 9.08725C7.0099 9.08725 6.97973 9.02067 6.97973 8.94595C6.97973 8.8011 7.30623 8.51965 7.64613 8.51965H7.64615ZM7.40685 7.7514C7.40685 7.53127 7.6159 7.4256 7.6159 8.037C7.54293 8.10967 7.40685 7.99667 7.40685 7.75137V7.7514ZM7.26023 9.10857C7.53833 10.0031 7.79133 10.4843 7.79133 10.4843L7.69248 10.536C7.69248 10.536 7.1871 10.1787 7.11423 9.3383L7.26023 9.10857ZM7.4629 8.99732C7.95165 8.7277 8.14505 9.54735 8.14505 9.54735C8.14505 10.3285 8.06865 10.4591 8.06865 10.4591C7.95455 10.4295 7.68415 9.9015 7.4629 8.99732ZM7.97083 8.32165C7.9162 8.35242 7.7976 8.35835 7.7976 8.18035C7.7976 8.00817 7.7411 7.75915 7.8181 7.59115C8.08738 7.7184 7.9029 8.18645 7.97083 8.32165ZM7.94148 8.70455C7.94148 8.64592 8.01498 8.5514 8.15415 8.5514C8.2936 8.5514 8.42298 8.57535 8.42298 8.7234C8.42298 8.9043 8.2042 9.02535 8.1659 9.02535C8.09853 9.02535 7.94148 8.85822 7.94148 8.70455ZM8.08943 7.6817C8.08943 7.6817 8.30173 7.65942 8.30173 7.92152C8.30173 8.02452 8.3019 8.19705 8.31225 8.2732C8.2645 8.34712 8.12443 8.28717 8.12443 8.28717C8.12443 8.28717 8.0543 7.89852 8.08943 7.6817ZM8.34003 9.3383C8.34003 9.3383 8.62555 9.05127 8.62555 9.74172C8.62555 10.3251 8.23275 10.619 8.23275 10.3891C8.23275 10.2477 8.38018 10.2638 8.34 9.3383H8.34003ZM8.47903 7.8835C8.47903 7.8835 8.61575 7.82052 8.61575 8.10517C8.61575 8.3922 8.5855 8.37517 8.54218 8.3993C8.54218 8.3993 8.42543 8.222 8.47903 7.8835ZM8.6153 9.15852C8.5733 9.15852 8.50043 9.1136 8.50043 9.05542C8.50043 8.87697 8.54843 8.77342 8.6351 8.77342C8.68773 8.77342 8.70965 8.83117 8.70965 8.89262C8.70965 9.09195 8.64448 9.15852 8.6153 9.15852ZM12.5443 3.94252C12.5443 3.94252 12.6817 3.88247 12.7589 4.12697C12.6363 4.12052 12.5618 4.17455 12.5618 4.17455C12.5618 4.17455 12.4893 4.0244 12.5443 3.94252ZM12.9289 1.67665L13.0804 2.00125C12.9198 2.00125 12.8082 1.75877 12.8082 1.71165C12.8082 1.6503 12.9145 1.64542 12.9289 1.67665ZM12.5932 1.6954L13.0735 2.34912C13.0735 2.34912 13.036 2.42702 12.9697 2.35612L12.4468 1.79937C12.4468 1.79937 12.4717 1.6954 12.5932 1.6954ZM12.3495 1.93792L12.9211 2.59267C12.952 2.62362 12.8475 2.70647 12.7884 2.64855L12.1408 2.01515C12.1408 2.01515 12.2736 1.851 12.3495 1.93792ZM12.0087 2.15945C12.1049 2.15945 12.7201 2.63467 12.7201 2.775C12.7201 2.79125 12.6752 2.85467 12.6491 2.8362L11.8693 2.27917C11.8693 2.27917 11.9127 2.15945 12.0087 2.15945ZM11.7397 2.46655C12.0407 2.603 12.3081 2.77305 12.5791 2.95292C12.6241 2.98325 12.5533 3.12412 12.5095 3.10095L11.6894 2.65587C11.6894 2.65587 11.6643 2.56667 11.7397 2.46655ZM11.6465 2.8362C11.8138 2.88395 12.3618 3.18655 12.4328 3.2335C12.4938 3.2731 12.4068 3.36375 12.3776 3.35137L11.6044 2.9897C11.6044 2.9897 11.5529 2.9317 11.6465 2.8362ZM11.4993 3.1494C11.8064 3.23597 12.196 3.4421 12.196 3.4421C11.6482 3.46952 11.4789 3.21262 11.4789 3.21262L11.4993 3.1494ZM8.0361 3.0708C9.20133 3.0708 10.4938 4.1789 11.3798 5.4076L8.95788 7.95247C7.60538 7.23805 6.2946 6.10387 6.2946 4.64597C6.2946 3.83622 6.9961 3.0708 8.0361 3.0708ZM4.88 1.32572C5.0742 1.23305 5.21065 1.4183 5.21065 1.4183C5.1841 1.48995 4.97205 1.64055 4.97205 1.79077C4.97205 1.87167 5.3722 1.8785 5.3722 2.18772C5.3722 2.32285 5.3032 2.39075 5.3032 2.39075L5.14485 2.40392C5.14485 2.40392 5.21303 2.33697 5.21303 2.21C5.21303 2.10087 5.1031 2.0068 5.02653 2.0068C4.7991 2.0068 4.85253 2.33585 4.69465 2.2053C4.74153 1.94915 4.85083 1.74877 4.88 1.32572ZM4.11423 2.42727C4.53798 2.85137 4.72923 3.31757 4.72923 3.31757C4.64373 3.52952 3.71205 3.95327 3.71205 3.95327L4.26313 2.93635L2.88508 4.12335C2.88508 4.12335 2.9063 3.57207 3.07573 3.38125C3.2455 3.1912 4.11423 2.42727 4.11423 2.42727ZM2.49598 11.9366H1.93058L2.41703 11.0608H2.98288L2.49598 11.9366ZM6.2671 11.7467C6.17468 11.8478 5.97343 11.9366 5.8361 11.9366H5.42085L5.8171 11.0608H5.83875C6.05265 11.0608 6.33783 10.9419 6.48878 10.7898L7.1581 10.1148L7.4202 10.489L6.2671 11.7467ZM10.6696 11.4989H11.1074L11.0466 11.7112H10.5477L10.6696 11.4989V11.4989ZM9.30485 11.2982C9.26895 11.2525 9.3076 11.1626 9.38975 11.0979C9.47315 11.0325 9.57015 11.0175 9.6055 11.0638C9.64185 11.1095 9.60375 11.1997 9.5208 11.2648C9.4375 11.3296 9.34075 11.3444 9.30485 11.2982ZM11.4829 11.8231H11.8344V11.9302H9.04928C9.09288 11.6959 9.22693 11.5334 9.25753 11.4989H9.35418L9.53775 11.8231H9.8407L9.94365 11.4989H10.1135L10.2322 11.8231H11.1309L11.2231 11.4989H11.3795L11.4829 11.8231ZM11.5968 8.81107C11.2015 8.81107 10.4483 8.62457 9.63133 8.27377L11.7291 5.93195C12.18 6.66952 12.4611 7.40027 12.4611 7.9183C12.4611 8.71017 11.9626 8.81105 11.5968 8.81105V8.81107ZM14.7963 6.38487L14.9142 6.21162L15.6141 6.44312L15.6204 6.65812L14.7963 6.38487ZM16.1356 7.32062C16.033 7.3452 15.9388 7.3193 15.9255 7.262C15.9112 7.20567 15.9837 7.1389 16.0861 7.11415C16.1878 7.08955 16.2827 7.11645 16.296 7.17305C16.31 7.22997 16.2381 7.29605 16.1356 7.32062ZM16.0121 6.78792L16.1361 6.6163L16.2855 6.6659L16.3306 6.89342L16.0121 6.78792ZM14.2354 5.75625L16.8815 6.6321C16.7885 6.81177 16.6293 6.93265 16.571 6.97307L16.452 6.93382L16.3824 6.58007L16.094 6.48467L15.901 6.75092L15.7332 6.69532L15.7229 6.36202L14.8691 6.07932L14.686 6.34857L14.5316 6.29732L14.535 5.96852L14.2016 5.85817L14.2353 5.75622L14.2354 5.75625Z" fill="black"/>
<path d="M6.93244 9.27318C6.78214 8.91108 6.84854 8.82855 6.84854 8.82855C6.84854 8.82855 6.36571 8.43188 6.50896 7.93835C6.50896 7.93835 5.26621 6.1376 5.26621 5.06993C5.26621 4.51725 5.53441 4.57103 5.53441 4.11923C5.53441 3.74828 5.28061 3.47105 5.09881 3.47105C4.89039 3.47105 4.23981 3.90063 3.28701 4.46215L3.64761 3.6357L2.77861 4.52628C2.77861 4.52628 2.60886 3.65693 3.07646 3.18978C3.15224 3.11335 3.22996 3.03793 3.30716 2.96243H1.64941L6.17339 10.8294C6.25581 10.7901 6.33194 10.7417 6.38509 10.6878L7.09826 9.96875C6.98419 9.7016 6.93246 9.42483 6.93246 9.27318H6.93244ZM12.3796 3.76295L12.295 3.5722C11.8567 3.64605 11.4644 3.42383 11.3523 3.366C11.2399 3.30898 11.3625 3.0634 11.3625 3.0634C11.3625 3.0634 11.3321 3.01043 11.2632 2.9624H10.8047C10.7184 3.0399 10.6983 3.15945 10.7688 3.23223C11.2553 3.73715 11.6459 4.27903 11.9571 4.80138L12.4657 4.26673L12.3796 3.76298V3.76295ZM14.2388 3.03528C14.505 3.3499 14.3952 3.67203 14.3952 3.67203C14.3952 3.9154 14.2665 3.91133 14.2665 3.91133C14.2665 4.47738 13.9694 4.37798 13.9694 4.37798C13.9694 5.12298 13.1488 4.82098 13.1488 4.82098C13.0149 4.80365 12.9034 4.76653 12.8127 4.72248L12.2571 5.34248C12.6172 6.0437 12.8332 6.66685 12.9483 7.05523L15.301 2.9624H14.3043L14.2388 3.03528ZM10.4296 8.97658C10.4296 8.92655 9.68361 8.72845 9.39094 8.61633C9.12336 8.72148 9.47094 8.77515 9.47094 9.12268C9.47094 9.32863 9.37069 9.5702 9.37069 9.5702L9.22169 9.61245C9.22169 9.61245 8.92519 10.1594 8.73469 10.0789C8.46279 10.5571 8.35154 10.6677 7.91956 10.6677C7.78081 10.6677 7.65871 10.6273 7.55136 10.5597L6.60899 11.5875L8.47554 14.8336L10.0809 12.0416H8.92679C8.92679 11.7443 9.11584 11.4991 9.11584 11.4991C9.11584 11.0259 9.40729 10.9251 9.62439 10.9057C10.0857 10.8652 10.2738 10.9052 10.2738 10.6798C10.2738 10.5206 10.2599 10.3328 10.2599 10.3328H10.4296C10.4296 9.71293 10.2563 9.56243 10.2563 9.24605C10.2563 9.12488 10.4296 9.07255 10.4296 8.97658ZM10.2945 11.6699L10.3926 11.4991H10.2314L10.2945 11.6699Z" fill="#FFB81C"/>
<path d="M9.60257 11.7112H9.75935L9.827 11.4988H9.48242L9.60257 11.7112ZM11.1692 10.1493L11.5311 9.52002L11.1275 9.71809L11.1692 10.1493Z" fill="#FFB81C"/>
</g>
<defs>
<clipPath id="clip0_2_7491">
<rect width="16.814" height="16" fill="white" transform="translate(0.644531)"/>
</clipPath>
</defs>
</svg>
