<svg width="17" height="16" viewBox="0 0 17 16" fill="none" xmlns="http://www.w3.org/2000/svg">
<g clip-path="url(#clip0_879_3898)">
<path d="M0.347168 7.99992C0.347168 12.4113 3.93594 16 8.34725 16C12.7584 16 16.3473 12.4112 16.3473 7.99992C16.3473 3.58878 12.7584 0 8.34725 0C3.9359 0 0.347168 3.58878 0.347168 7.99992Z" fill="black"/>
<path d="M8.34709 15.8245C12.6682 15.8245 16.1715 12.3212 16.1715 7.99991C16.1715 3.67875 12.6682 0.175446 8.34709 0.175446C4.02572 0.175446 0.522461 3.67875 0.522461 7.99991C0.522461 12.3213 4.02576 15.8245 8.34709 15.8245Z" fill="#A5ACAF"/>
<path d="M8.34718 14.5464C11.952 14.5464 14.8744 11.624 14.8744 8.01918C14.8744 4.41439 11.952 1.49182 8.34718 1.49182C4.74222 1.49182 1.81982 4.41443 1.81982 8.01918C1.81982 11.624 4.74222 14.5464 8.34718 14.5464Z" fill="#FFFFFE"/>
<path d="M8.38103 8.02799C8.45643 5.35447 10.9819 4.72678 11.6164 4.78435C10.0522 4.69943 8.50861 4.03844 8.38929 1.56503C8.2009 3.86518 7.27793 4.51912 5.15088 4.79211C6.67022 4.86911 8.20806 5.47033 8.38099 8.02799" fill="#FFB612"/>
<path d="M11.6257 11.3371C11.7011 8.66355 14.1821 8.00383 14.8167 8.0614C13.2474 8.00345 11.7358 7.25754 11.6167 4.7843C11.4283 7.08462 10.5084 7.75496 8.38135 8.02794C9.90069 8.10494 11.4526 8.77941 11.6257 11.3371" fill="#C60C30"/>
<path d="M8.42054 14.5192C8.49577 11.8453 10.991 11.2795 11.6257 11.3371C10.0615 11.252 8.50062 10.5016 8.3813 8.02798C8.19291 10.3283 7.29729 11.0193 5.17041 11.2921C6.68954 11.3695 8.2474 11.9617 8.4205 14.5192" fill="#00539B"/>
<path d="M6.56269 7.45645L6.81751 7.45375L6.8186 7.57665C6.85691 7.50917 6.87997 7.46884 6.96671 7.44941H7.03005V7.74759C6.81068 7.73213 6.82526 7.80896 6.8224 7.86796V8.43534H6.56273V7.4564L6.56269 7.45645ZM7.71076 7.77566L7.4833 7.77457C7.4833 7.75101 7.48384 7.73031 7.4795 7.71232C7.47322 7.68711 7.43955 7.66317 7.40537 7.66284C7.36508 7.66284 7.33393 7.67578 7.32044 7.71485C7.30426 7.76201 7.3118 7.83147 7.43453 7.84533L7.49699 7.8608C7.56662 7.88419 7.63393 7.90362 7.68632 8.00351C7.69512 8.02062 7.69656 8.02618 7.71059 8.07511C7.74026 8.1766 7.72066 8.25398 7.68754 8.31446C7.66739 8.35063 7.61791 8.39564 7.60025 8.4066C7.50399 8.46598 7.37405 8.47226 7.256 8.43648C7.19805 8.41886 7.13491 8.37457 7.1036 8.31375C7.07119 8.25095 7.07047 8.19949 7.06634 8.11452L7.28626 8.11309C7.28175 8.14748 7.30299 8.18722 7.33701 8.20021C7.3714 8.21369 7.45721 8.21424 7.47234 8.17572C7.48296 8.14853 7.48979 8.13378 7.46623 8.09834C7.42324 8.03339 7.33127 8.02277 7.25048 8.00241C7.10596 7.96587 7.07089 7.82586 7.07717 7.71969C7.08025 7.6695 7.08923 7.61155 7.12092 7.57248C7.18768 7.48987 7.21685 7.494 7.2568 7.47478C7.38977 7.41017 7.55516 7.45607 7.64333 7.5455C7.69281 7.59536 7.70895 7.68711 7.71076 7.77566ZM3.49269 7.46218H3.31239L3.21432 7.46289C3.21196 7.4199 3.20551 7.3641 3.17706 7.33801C3.13495 7.2997 3.03958 7.3209 3.01437 7.37418C2.96869 7.46989 3.02714 7.55987 3.17436 7.60687L3.21486 7.62701C3.35395 7.69487 3.39247 7.72816 3.44448 7.80158C3.46012 7.82371 3.49071 7.88149 3.50315 7.952C3.52961 8.1028 3.49164 8.19637 3.45763 8.27898C3.45763 8.27898 3.44469 8.31805 3.40887 8.3513C3.26274 8.48769 3.06031 8.49363 2.91023 8.4224C2.84111 8.38927 2.78788 8.35724 2.7499 8.27198C2.71248 8.18832 2.70401 8.11237 2.7148 7.98892L2.99499 7.98732C2.98976 8.02656 3.00127 8.12569 3.02757 8.15325C3.05365 8.18061 3.15982 8.20724 3.20066 8.13488C3.21508 8.10951 3.21866 7.99921 3.17402 7.95672C3.08998 7.87593 3.01745 7.86784 2.91849 7.80592C2.77722 7.71775 2.70219 7.55958 2.71117 7.40949C2.71547 7.33839 2.73494 7.28891 2.76946 7.22666C2.80402 7.16513 2.85295 7.10899 2.92367 7.07801C3.1119 6.9954 3.34189 7.04257 3.44321 7.22144C3.46985 7.26822 3.49649 7.33801 3.49269 7.46218ZM3.63574 7.45712V7.3668L3.8981 7.22283L3.8992 7.46037L3.99908 7.45822L4.00018 7.68981L3.89924 7.68821V8.07368C3.89924 8.12641 3.88972 8.14748 3.9955 8.14584L3.99533 8.43918C3.87045 8.4361 3.63401 8.47858 3.63292 8.20273L3.63094 7.68319L3.53303 7.68644L3.53193 7.46041L3.63578 7.45716L3.63574 7.45712ZM5.4896 7.06427L5.75394 7.06499V8.44377H5.4896V7.06427ZM6.04833 8.1584C6.04871 8.24623 6.24052 8.26423 6.2452 8.15355V8.12565L6.46116 8.12455L6.46154 8.23991C6.46369 8.31657 6.43187 8.3999 6.30227 8.44453C6.16478 8.48735 6.07893 8.46164 5.99852 8.44453C5.8929 8.40584 5.8416 8.3218 5.83676 8.20341V7.7258C5.83191 7.6362 5.88173 7.5581 5.9683 7.50121C6.11585 7.43676 6.19648 7.45404 6.30732 7.4924C6.41294 7.54997 6.46065 7.62124 6.46171 7.72075V8.02378H6.04745L6.04833 8.1584ZM6.05769 7.8192L6.25312 7.81992C6.29342 7.6488 6.02494 7.62663 6.05769 7.8192ZM4.99652 8.1584C4.99707 8.24623 5.18888 8.26423 5.19377 8.15355V8.12565L5.40952 8.12455L5.41007 8.23991C5.41188 8.31657 5.38018 8.3999 5.25063 8.44453C5.11314 8.48735 5.02729 8.46164 4.94688 8.44453C4.84126 8.40584 4.78996 8.3218 4.78512 8.20341V7.7258C4.78027 7.6362 4.8303 7.5581 4.91666 7.50121C5.06421 7.43676 5.14501 7.45404 5.25552 7.4924C5.36135 7.54997 5.40884 7.62124 5.41011 7.72075V8.02378H4.99695L4.99657 8.1584H4.99652ZM5.00605 7.8192L5.20148 7.81992C5.24178 7.6488 4.9733 7.62663 5.00605 7.8192ZM4.28029 8.1584C4.28083 8.24623 4.47264 8.26423 4.47753 8.15355V8.12565L4.69328 8.12455L4.69383 8.23991C4.69581 8.31657 4.66395 8.3999 4.53439 8.44453C4.39691 8.48735 4.31089 8.46164 4.23064 8.44453C4.12502 8.40584 4.07373 8.3218 4.06888 8.20341V7.7258C4.06403 7.6362 4.11406 7.5581 4.20042 7.50121C4.34781 7.43676 4.42877 7.45404 4.53928 7.4924C4.64511 7.54997 4.69261 7.62124 4.69387 7.72075V8.02378H4.28071L4.28033 8.1584H4.28029ZM4.28981 7.8192L4.48525 7.81992C4.52554 7.6488 4.25706 7.62663 4.28981 7.8192Z" fill="black"/>
</g>
<defs>
<clipPath id="clip0_879_3898">
<rect width="16.0002" height="16" fill="white" transform="translate(0.347168)"/>
</clipPath>
</defs>
</svg>
