<svg width="121" height="64" viewBox="0 0 121 64" fill="none" xmlns="http://www.w3.org/2000/svg">
<g clip-path="url(#clip0_736_207)">
<path d="M21.2107 46.6581C18.1139 48.7226 19.1462 52.6452 25.7526 54.5032C32.5655 56.7742 39.9978 57.3935 47.2236 56.1548C47.6365 56.1548 48.0494 55.9484 48.2559 55.9484V48.929L41.2365 51.2C38.5526 52.0258 35.8688 52.2323 33.1849 51.6129C31.1204 50.9935 31.5333 49.7548 34.0107 48.7226L48.2559 43.7677V36.129L28.4365 42.9419C25.9591 43.7677 23.4817 45.0064 21.2107 46.6581ZM69.1075 15.6903V35.7161C77.572 39.8452 84.1784 35.7161 84.1784 24.9806C84.1784 14.0387 80.2559 9.08387 68.901 5.16129C62.9139 3.09677 56.7204 1.23871 50.5268 0V59.6645L64.9784 64V13.8323C64.9784 11.5613 64.9784 9.90968 66.6301 10.529C68.901 11.1484 69.1075 13.4194 69.1075 15.6903ZM95.9462 41.9097C89.9591 39.8452 83.5591 39.0194 77.3655 39.6387C74.0623 39.8452 70.9655 40.671 68.0752 41.7032L67.4559 41.9097V49.9613L80.8752 45.0064C83.5591 44.1806 86.243 43.9742 88.9268 44.5935C90.9913 45.2129 90.5784 46.4516 88.101 47.4839L67.4559 55.1226V62.9677L95.9462 52.4387C98.0107 51.6129 99.8688 50.5806 101.52 48.929C102.966 46.8645 102.346 43.9742 95.9462 41.9097Z" fill="#0070D1"/>
</g>
<defs>
<clipPath id="clip0_736_207">
<rect width="82.6288" height="64" fill="white" transform="translate(19.5383)"/>
</clipPath>
</defs>
</svg>
