<svg width="41" height="16" viewBox="0 0 41 16" fill="none" xmlns="http://www.w3.org/2000/svg">
<g clip-path="url(#clip0_4_33)">
<g clip-path="url(#clip1_4_33)">
<path d="M28.5106 8.23241C28.5106 8.23241 28.8628 8.23907 28.9608 8.21242C29.1748 8.15437 29.2814 7.98975 29.2814 7.80038C29.2814 7.6643 29.2453 7.53775 29.0483 7.45496C28.9569 7.41594 28.8371 7.41879 28.7314 7.41594C28.6153 7.41309 28.5078 7.41309 28.5078 7.41309L28.5106 8.23241ZM28.5068 10.2041C28.5068 10.2041 28.7723 10.2222 28.9569 10.1736C29.2291 10.1032 29.3071 9.92052 29.3099 9.69404C29.3128 9.50277 29.2377 9.3372 29.0302 9.27058C28.8551 9.21444 28.5078 9.23347 28.5078 9.23347L28.5059 10.2041H28.5068ZM26.6274 6.32637C26.6274 6.32637 27.7808 6.31971 28.6981 6.32447C29.1263 6.33398 29.4061 6.35207 29.6859 6.41297C30.2854 6.54333 30.7468 6.97536 30.7383 7.52442C30.7288 8.14486 30.3205 8.67013 29.6117 8.71676C30.3948 8.73579 30.8811 9.33053 30.8668 9.96905C30.8506 10.6609 30.2987 11.1976 29.5755 11.2232C28.8675 11.248 26.6331 11.2347 26.6331 11.2347L26.6303 10.2012H27.0462V7.42736H26.6265L26.6274 6.32447V6.32637Z" fill="black"/>
<path d="M33.5305 10.2601C34.0016 10.2629 34.1377 9.66723 34.1377 8.77178C34.1377 7.87634 34.0083 7.20166 33.4963 7.20166C33.0414 7.20166 32.8549 7.87729 32.8549 8.77178C32.8549 9.66627 33.0567 10.2572 33.5305 10.2601ZM31.1431 8.74418C31.1431 7.33774 32.0699 6.19393 33.4944 6.19678C34.9856 6.19964 35.8468 7.33679 35.8468 8.74418C35.8468 10.1516 34.9199 11.283 33.4944 11.2916C32.108 11.2992 31.1431 10.1516 31.1431 8.74418Z" fill="black"/>
<path d="M8.50248 7.43305L8.49966 10.2174L8.06574 10.2145V11.2384H10.6093V10.2222H10.0992L10.0945 9.51798C10.0945 9.51798 10.7996 9.53701 11.008 9.50942C11.9967 9.38 12.324 8.60921 12.3298 7.92026C12.3364 7.16375 11.9682 6.55568 10.9861 6.38154C10.7016 6.33111 10.2924 6.3235 9.8204 6.32159C8.98018 6.31969 8.05811 6.32731 8.05811 6.32731V7.4321H8.50248V7.43305ZM10.1002 7.43019C10.1002 7.43019 10.4342 7.40451 10.5884 7.45399C10.7587 7.50918 10.8034 7.66809 10.8034 7.96784C10.8034 8.26759 10.6207 8.44268 10.4866 8.46362C10.3257 8.48836 10.1002 8.47219 10.1002 8.47219V7.42925V7.43019Z" fill="black"/>
<path d="M12.7275 7.42421L12.7266 6.32227H15.2426V7.42611H14.7363L14.7344 10.2019H15.4719V9.35878L16.6405 9.35784L16.6386 11.2382H12.7266V10.2019L13.17 10.2038L13.1691 7.4223L12.7275 7.42421Z" fill="black"/>
<path d="M18.8749 8.74118L19.5496 8.73927L19.2879 7.32427L18.8749 8.74118ZM18.6618 6.32224H20.2338L21.351 10.1952H21.6869V11.2381L19.4307 11.2324V10.1895L19.8627 10.1952L19.7875 9.76128H18.6465L18.4924 10.1952H18.9901V11.2324H17.1411V10.1933L17.4942 10.1962L18.6608 6.32129L18.6618 6.32224Z" fill="black"/>
<path d="M21.5698 7.42611V6.32227H24.0164L24.0135 7.42611H23.6386L24.1639 8.29967L24.6558 7.42897H24.3257V6.32227H26.0946V7.42611H25.792L24.6416 9.32167V10.2009H25.2306V11.2391H22.5957V10.199L23.0343 10.2L23.0353 9.25411L21.8496 7.42611H21.5698Z" fill="black"/>
<path d="M36.0034 7.42268V6.31885H38.4538V7.42268L38.1055 7.41793L38.5927 8.25247L39.0818 7.41983L38.7621 7.42364V6.31885H40.5282V7.42268L40.199 7.41793L39.1018 9.21263V10.1994H39.6071V11.2395H37.035V10.1985H37.4736L37.4717 9.27352L36.2899 7.42268H36.0034Z" fill="black"/>
<path d="M5.92288 3.83594V4.09096C5.92288 4.25368 5.91145 4.3812 5.91145 4.46208C5.91145 5.21574 5.86482 5.81905 5.76111 6.26058C5.62217 6.91052 5.33193 7.43199 4.91419 7.84974C4.87898 7.88494 4.87898 7.9192 4.92561 7.96583C5.26247 8.38357 5.44803 8.80132 5.44803 9.21907C5.44803 9.75291 5.37856 10.1821 5.26247 10.4952C5.22726 10.5646 5.18159 10.6341 5.11116 10.6807C4.86756 10.8434 4.42698 11.029 3.82367 11.2488C3.77704 11.2602 3.7542 11.2374 3.7542 11.2022C3.7542 11.1908 3.76562 11.0861 3.78941 10.9005C3.78941 10.8539 3.77799 10.8311 3.76657 10.8196C3.74373 10.8082 3.69711 10.8196 3.63906 10.8548C3.11664 11.1337 2.85019 11.2726 2.85019 11.2726C2.76931 11.1565 2.7341 11.029 2.7341 10.9015C2.7341 10.7388 2.78073 10.6112 2.86162 10.5189C2.44387 10.4257 2.10796 10.2753 1.85198 10.0898C1.57316 9.869 1.43423 9.61398 1.43423 9.33612C1.43423 8.91837 1.67308 8.50633 2.16505 8.11809C2.50287 7.85164 3.05859 7.68226 3.67332 7.63087C3.34882 7.53761 2.9425 7.37584 2.45528 7.14366C2.107 6.98094 1.75968 6.69166 1.41139 6.27391C1.02886 5.83332 0.785249 5.41557 0.680574 4.99783C0.609205 4.75232 0.563529 4.46208 0.52832 4.12617C0.968905 4.36978 1.30576 4.55534 1.53796 4.69427C1.81677 4.85699 2.11842 5.1006 2.44291 5.39083C2.79119 5.70391 3.04622 5.98272 3.2432 6.23775C3.6952 6.85247 4.04348 7.30543 4.28709 7.6185V6.87626C4.28709 5.66965 4.83235 4.66001 5.92288 3.83689V3.83594ZM3.53343 12.0843C3.53629 12.1766 3.51059 12.189 3.46397 12.1195C3.41734 12.0615 3.32504 11.9682 3.17373 11.853C3.02339 11.737 2.91871 11.6789 2.87208 11.6789C2.83688 11.6789 2.73315 11.7256 2.58185 11.8179C2.41913 11.8988 2.33824 11.9568 2.3154 11.9568C2.30399 11.9339 2.28019 11.8065 2.25736 11.5971C2.22215 11.3763 2.19931 11.2374 2.19931 11.1908C2.19931 11.1327 2.22215 11.1327 2.26877 11.1556C2.29162 11.1784 2.39629 11.2364 2.58185 11.3183C2.76741 11.3991 2.87208 11.4458 2.90633 11.4458C2.91776 11.4458 3.02243 11.3991 3.19657 11.2945C3.37071 11.2022 3.47539 11.1441 3.48681 11.1441C3.48681 11.1556 3.51155 11.5905 3.50203 11.4448C3.50203 11.4353 3.50965 11.539 3.52106 11.7588C3.53058 11.9444 3.52963 11.9853 3.53248 12.0833L3.53343 12.0843ZM5.14542 11.1679C5.14542 11.2612 5.12259 11.3192 5.08738 11.3535C4.83235 11.4344 4.60016 11.4924 4.39176 11.5619C4.00923 11.6665 3.8113 11.736 3.77704 11.736C3.7542 11.736 3.74183 11.7132 3.74183 11.6779C3.74183 11.5971 3.75325 11.539 3.78846 11.5039C4.00923 11.423 4.21762 11.3649 4.40319 11.3068C4.76288 11.1793 4.99508 11.1099 5.09879 11.1099C5.13401 11.1099 5.14542 11.1327 5.14542 11.1679ZM2.63894 8.31411C2.46575 8.31411 2.32587 8.45495 2.32587 8.62718C2.32587 8.79942 2.46671 8.94026 2.63894 8.94026C2.81118 8.94026 2.95202 8.79942 2.95202 8.62718C2.95202 8.45495 2.81118 8.31411 2.63894 8.31411Z" fill="black"/>
</g>
</g>
<defs>
<clipPath id="clip0_4_33">
<rect width="40" height="16" fill="white" transform="translate(0.52832)"/>
</clipPath>
<clipPath id="clip1_4_33">
<rect width="40" height="8.32794" fill="white" transform="translate(0.52832 3.83594)"/>
</clipPath>
</defs>
</svg>
