<svg width="41" height="16" viewBox="0 0 41 16" fill="none" xmlns="http://www.w3.org/2000/svg">
<g clip-path="url(#clip0_861_237)">
<g clip-path="url(#clip1_861_237)">
<path d="M3.67432 4.37496V10.7161L5.11012 11.171V5.85403C5.11012 5.60348 5.22183 5.43713 5.401 5.49434C5.63526 5.55932 5.68078 5.79011 5.68078 6.03787V8.16139C6.5745 8.59397 7.27812 8.16117 7.27812 7.01985C7.27812 5.85358 6.8656 5.33402 5.65177 4.9163C5.17299 4.75688 4.28568 4.48787 3.67432 4.37496Z" fill="black"/>
<path d="M5.3833 10.244L7.68931 9.42324C7.95018 9.32653 7.99005 9.19515 7.77893 9.12611C7.56449 9.05579 7.18174 9.07591 6.91808 9.17058L5.3833 9.712V8.84813L5.47119 8.81911C5.47119 8.81911 5.91544 8.66173 6.5403 8.59397C7.16395 8.5256 7.92877 8.60286 8.52988 8.82944C9.20705 9.04455 9.28295 9.35834 9.11162 9.5767C8.93781 9.7928 8.51639 9.94912 8.51639 9.94912L5.3833 11.0746" fill="black"/>
<path d="M1.04352 10.1566C0.349245 9.96324 0.233469 9.55456 0.550193 9.31848C0.842344 9.10291 1.33989 8.94063 1.33989 8.94063L3.39663 8.20731V9.04194L1.91794 9.57197C1.65601 9.66566 1.61674 9.79749 1.82771 9.86646C2.04246 9.93821 2.42355 9.91892 2.68563 9.82221L3.39663 9.56586V10.3109C3.35081 10.3186 3.29985 10.3264 3.25335 10.3343C2.54445 10.452 1.7892 10.4037 1.04352 10.1566Z" fill="black"/>
<path d="M8.74498 10.7386C8.74498 10.7597 8.73993 10.7735 8.72915 10.7804C8.71672 10.7889 8.70044 10.7931 8.67993 10.7931H8.57682V10.6879H8.68596C8.70142 10.6879 8.71295 10.6905 8.72222 10.6941C8.73729 10.7015 8.74498 10.7164 8.74498 10.7386ZM8.81953 10.9799C8.81433 10.9784 8.81071 10.9732 8.80769 10.9646C8.80634 10.9579 8.80536 10.9484 8.80506 10.9362L8.8034 10.8884C8.80264 10.8664 8.79842 10.8492 8.78915 10.8389C8.78455 10.8309 8.77634 10.8257 8.7685 10.8202C8.77875 10.8108 8.78817 10.8012 8.79616 10.7908C8.80536 10.7759 8.81071 10.7558 8.81071 10.7343C8.81071 10.6905 8.79187 10.6594 8.75516 10.6421C8.73684 10.6344 8.71295 10.6293 8.68453 10.6293H8.51042V11.0038H8.57682V10.8514H8.67805C8.69689 10.8514 8.70956 10.8538 8.71883 10.8569C8.73134 10.8649 8.73812 10.8769 8.73895 10.8976L8.74219 10.9561C8.74317 10.971 8.74415 10.9799 8.74498 10.9867L8.74996 10.9995L8.75131 11.0038H8.8242V10.9825M8.37399 10.8251C8.37399 10.7486 8.40263 10.6784 8.45494 10.6264C8.50853 10.5732 8.58006 10.5446 8.65438 10.5446C8.72878 10.5446 8.7985 10.5732 8.85081 10.6264C8.90357 10.6784 8.93206 10.7486 8.93206 10.8251C8.93206 10.9784 8.80739 11.1028 8.65438 11.1028C8.58006 11.1028 8.50853 11.0745 8.45494 11.022C8.40263 10.9691 8.37399 10.8997 8.37399 10.8251ZM8.65438 11.1602C8.74415 11.1602 8.82752 11.1248 8.89106 11.0621C8.95384 10.9983 8.98927 10.9149 8.98927 10.8251C8.98927 10.7344 8.95384 10.6496 8.89106 10.5869C8.82752 10.5229 8.74415 10.4886 8.65438 10.4886C8.46806 10.4886 8.31738 10.639 8.31738 10.8251C8.31738 10.9149 8.35213 10.9983 8.41492 11.0621C8.47853 11.1248 8.56461 11.1602 8.65438 11.1602Z" fill="black"/>
<path d="M13.8655 6.0391L12.1315 6.03834C12.1244 6.03834 12.1187 6.044 12.1187 6.05055V10.1059C12.1187 10.1123 12.1244 10.1184 12.1315 10.1184H12.8343L12.8466 10.1059L12.8474 6.49074L12.8516 6.48471L13.6562 6.4832C13.9492 6.4832 14.1101 6.77844 14.1101 7.31345C14.1101 7.84876 13.9492 8.14468 13.6562 8.14468L13.1719 8.14415C13.1647 8.14415 13.1598 8.14966 13.1598 8.15659V8.57733C13.1598 8.58555 13.1647 8.59052 13.1719 8.59052H13.8655C14.1101 8.59052 14.3497 8.47716 14.5226 8.28232C14.7275 8.05107 14.8354 7.71723 14.8354 7.31715C14.8354 6.54184 14.4567 6.0391 13.8655 6.0391Z" fill="black"/>
<path d="M15.9845 6.03834H15.2813C15.2733 6.03834 15.2676 6.044 15.2676 6.05055V10.1059C15.2676 10.1124 15.2733 10.1184 15.2813 10.1184H15.9845L15.9974 10.1059V6.05055L15.9845 6.03834Z" fill="black"/>
<path d="M19.0514 7.02543C19.0514 7.01827 19.045 7.01284 19.0381 7.01284H17.7859C16.663 7.01284 16.5195 7.83706 16.5195 8.56141L16.5204 9.18785C16.5204 9.72693 16.8556 10.1183 17.3165 10.1183H17.9997L18.0121 10.1058V9.68555C18.0121 9.67869 18.0063 9.67258 17.9997 9.67258L17.5118 9.67341C17.3993 9.67108 17.248 9.62351 17.248 9.23699V8.56066C17.2474 8.1112 17.2893 7.82387 17.3826 7.66039C17.4836 7.47994 17.6428 7.45574 17.7859 7.45574H18.3196L18.3241 7.46208L18.3235 10.1058C18.3235 10.1122 18.3289 10.1183 18.3364 10.1183H19.0382C19.0452 10.1183 19.0514 10.1122 19.0514 10.1058" fill="black"/>
<path d="M24.1093 7.73538L23.7631 7.709C23.5034 7.68662 23.3103 7.5428 23.3103 7.11731C23.3103 6.62052 23.5331 6.48462 23.8305 6.48462H24.7889L24.8016 6.47226V6.05054L24.7889 6.0384H24.7688L23.7306 6.03863C23.0765 6.03863 22.6113 6.42281 22.6113 7.18847V7.22178C22.6113 7.82591 22.9831 8.26195 23.5371 8.30431L23.8817 8.32986C24.1446 8.34976 24.3083 8.58485 24.3083 8.9416V9.04192C24.3083 9.26496 24.2525 9.67303 23.7742 9.67303H22.7784C22.7717 9.67303 22.7659 9.67884 22.7659 9.686V10.1058L22.7784 10.1183H24.0147C24.3957 10.1183 25.0336 9.96421 25.0336 8.92735C25.0336 8.55169 24.9482 8.25562 24.7753 8.04163C24.6278 7.85787 24.4094 7.75845 24.1093 7.73538Z" fill="black"/>
<path d="M29.868 7.02543C29.868 7.01827 29.862 7.01284 29.8554 7.01284H28.6004C27.48 7.01284 27.335 7.83706 27.335 8.56141L27.3359 9.18785C27.3359 9.72693 27.6708 10.1183 28.1342 10.1183H28.8155L28.8281 10.1058V9.68555C28.8281 9.67869 28.8222 9.67258 28.8155 9.67258L28.3272 9.67341C28.2152 9.67108 28.0652 9.62351 28.0647 9.23699V8.56066C28.0647 8.1112 28.107 7.82387 28.1981 7.66039C28.2993 7.47994 28.4595 7.45574 28.6002 7.45574H29.1363L29.1416 7.46208L29.1403 10.1058C29.1403 10.1122 29.1461 10.1183 29.1531 10.1183H29.856C29.8629 10.1183 29.868 10.1122 29.868 10.1058" fill="black"/>
<path d="M27.0433 7.01293H26.2805L26.2765 7.00826V6.49722C26.2765 6.49044 26.2713 6.48471 26.2642 6.48471H25.5618C25.5546 6.48471 25.5483 6.49044 25.5483 6.49722V9.18824C25.5483 9.72725 25.8844 10.1184 26.347 10.1184H26.8501C26.8574 10.1184 26.8629 10.1123 26.8629 10.1059V9.68602C26.8629 9.67916 26.8574 9.67267 26.8501 9.67267H26.5412C26.4621 9.67147 26.2765 9.66747 26.2758 9.27032V7.4587L26.2801 7.45463C26.5137 7.45584 27.0433 7.45463 27.0433 7.45463L27.0557 7.4431V7.02552C27.0557 7.01844 27.0499 7.01293 27.0433 7.01293Z" fill="black"/>
<path d="M31.9491 7.01293H31.1907L31.1855 7.00826V6.49722L31.1739 6.48471H30.47C30.4631 6.48471 30.457 6.49044 30.457 6.49722V9.18824C30.457 9.72725 30.7924 10.1184 31.2548 10.1184H31.7578C31.7653 10.1184 31.7702 10.1123 31.7702 10.1059V9.68602C31.7702 9.67916 31.7653 9.67267 31.7578 9.67267H31.449C31.3696 9.67147 31.1855 9.66747 31.1855 9.27032V7.4587L31.1897 7.45463C31.4216 7.45584 31.9491 7.45463 31.9491 7.45463L31.9617 7.4431V7.02552C31.9617 7.01844 31.9553 7.01293 31.9491 7.01293Z" fill="black"/>
<path d="M33.1107 7.01293H32.4083C32.4018 7.01293 32.3955 7.01844 32.3955 7.02552V10.1059L32.4083 10.1184H33.1107C33.1184 10.1184 33.1237 10.1123 33.1237 10.1059V7.02552C33.1237 7.01844 33.1184 7.01293 33.1107 7.01293Z" fill="black"/>
<path d="M33.1107 6.03834H32.4083L32.3955 6.05055V6.63945C32.3955 6.64661 32.4018 6.65189 32.4083 6.65189H33.1107C33.1184 6.65189 33.1237 6.64661 33.1237 6.63945V6.05055C33.1237 6.04399 33.1184 6.03834 33.1107 6.03834Z" fill="black"/>
<path d="M37.971 7.01293H36.7173C36.7108 7.01293 36.705 7.01844 36.705 7.02552L36.7046 10.1059L36.7163 10.1184H37.42L37.432 10.1059L37.431 7.46134L37.4359 7.45621L37.9704 7.45584C38.115 7.45584 38.2736 7.47913 38.375 7.64631C38.4678 7.79736 38.5099 8.0629 38.5099 8.47965C38.5105 8.49766 38.5094 10.1059 38.5094 10.1059C38.5094 10.1123 38.5149 10.1184 38.5219 10.1184H39.2225C39.2302 10.1184 39.2357 10.1123 39.2357 10.1059V8.56105C39.2357 7.83708 39.0911 7.01293 37.971 7.01293Z" fill="black"/>
<path d="M35.3606 9.46871C35.25 9.65081 35.0745 9.67516 34.9152 9.67516C34.7575 9.67516 34.5815 9.65081 34.4697 9.46871C34.3689 9.30484 34.3223 9.01774 34.3223 8.56504V8.56143C34.3223 8.02717 34.388 7.72364 34.535 7.57907C34.623 7.49133 34.737 7.45576 34.9152 7.45576C35.096 7.45576 35.2089 7.49133 35.2968 7.57907C35.4425 7.72364 35.5084 8.02845 35.5084 8.56504C35.5084 9.01835 35.4616 9.30567 35.3606 9.46871ZM34.9152 7.01293C33.7418 7.01293 33.5918 7.841 33.5918 8.56504C33.5918 9.28992 33.7418 10.1207 34.9152 10.1207C36.0887 10.1207 36.2383 9.28992 36.2383 8.56504C36.2383 7.841 36.0887 7.01293 34.9152 7.01293Z" fill="black"/>
<path d="M19.4476 7.01291L19.4395 7.02512L20.4817 10.0773C20.4835 10.0841 20.4835 10.0947 20.4813 10.1014L19.8944 11.6126C19.8919 11.6197 19.8952 11.625 19.9021 11.625H20.5132C20.5208 11.625 20.5287 11.6197 20.5312 11.6126L22.3608 7.02512C22.3634 7.01781 22.3601 7.01291 22.353 7.01291H21.6862C21.679 7.01291 21.6714 7.01841 21.6691 7.02512L20.8945 9.03076H20.8858L20.2019 7.02512C20.2004 7.01781 20.1925 7.01291 20.1855 7.01291" fill="black"/>
<path d="M40.1393 9.69755C40.1393 9.7179 40.1336 9.73117 40.1229 9.73908C40.1109 9.74767 40.0944 9.75129 40.0743 9.75129H39.9713V9.64644H40.0801C40.0956 9.64644 40.1074 9.64886 40.1161 9.65293C40.131 9.66024 40.1393 9.67486 40.1393 9.69755ZM40.2133 9.93867C40.2085 9.93679 40.2046 9.93166 40.2015 9.92314C40.2006 9.91681 40.1996 9.90641 40.1994 9.89473L40.1977 9.84762C40.1967 9.82455 40.1927 9.80729 40.1829 9.79787C40.1783 9.78958 40.1703 9.78393 40.1628 9.77812C40.1725 9.76908 40.1823 9.75981 40.1902 9.7491C40.1996 9.73426 40.2046 9.71496 40.2046 9.69348C40.2046 9.64886 40.1859 9.61795 40.1494 9.60084C40.1304 9.59315 40.1074 9.58803 40.0786 9.58803H39.9049V9.96241H39.9713V9.80971H40.0722C40.0908 9.80971 40.1042 9.81234 40.1126 9.81536C40.1251 9.82335 40.132 9.83563 40.1331 9.85614L40.1364 9.91485C40.1373 9.92932 40.1381 9.93867 40.1393 9.94455L40.1437 9.95789L40.1452 9.96241H40.2181V9.94071M39.7681 9.78363C39.7681 9.70689 39.7967 9.63725 39.8495 9.58449C39.903 9.53195 39.9743 9.50316 40.0481 9.50316C40.1227 9.50316 40.1923 9.53195 40.2447 9.58449C40.2976 9.63725 40.3264 9.70689 40.3264 9.78363C40.3264 9.93694 40.2013 10.0615 40.0481 10.0615C39.9743 10.0615 39.903 10.033 39.8495 9.98058C39.7967 9.92804 39.7681 9.8581 39.7681 9.78363ZM40.0481 10.1184C40.1382 10.1184 40.2219 10.083 40.2856 10.0208C40.3478 9.95721 40.383 9.87309 40.383 9.78363C40.383 9.69295 40.3478 9.608 40.2856 9.54537C40.2219 9.48168 40.1382 9.44715 40.0481 9.44715C39.8627 9.44715 39.7119 9.5973 39.7119 9.78363C39.7119 9.87309 39.7464 9.95721 39.8094 10.0208C39.8729 10.083 39.9587 10.1184 40.0481 10.1184Z" fill="black"/>
</g>
</g>
<defs>
<clipPath id="clip0_861_237">
<rect width="40" height="16" fill="white" transform="translate(0.382812)"/>
</clipPath>
<clipPath id="clip1_861_237">
<rect width="40" height="7.25004" fill="white" transform="translate(0.382812 4.37497)"/>
</clipPath>
</defs>
</svg>
