<svg width="41" height="16" viewBox="0 0 41 16" fill="none" xmlns="http://www.w3.org/2000/svg">
<g clip-path="url(#clip0_778_2084)">
<g clip-path="url(#clip1_778_2084)">
<path d="M6.62515 2.37894C3.55146 2.37894 1.02515 4.90525 1.02515 7.97894C1.02515 11.0526 3.50936 13.5789 6.62515 13.5789C9.69883 13.5789 12.2251 11.0947 12.2251 7.97894C12.2251 4.90525 9.69883 2.37894 6.62515 2.37894Z" fill="white"/>
<path d="M11.5515 12.7789H11.6357C11.7199 12.7789 11.762 12.8211 11.762 12.9053C11.762 12.9474 11.7199 13.0316 11.6357 13.0316H11.5515V12.7789ZM11.5515 13.1579H11.5936C11.762 13.1579 11.7199 13.2421 11.7199 13.3684C11.7199 13.4105 11.7199 13.4947 11.762 13.5368H11.9725C11.9725 13.4947 11.9304 13.3263 11.9304 13.2842C11.9304 13.1158 11.8041 13.1158 11.762 13.1158C11.8883 13.1158 11.9304 12.9895 11.9304 12.9053C11.9304 12.7368 11.8462 12.6526 11.6778 12.6526H11.2989V13.5789H11.5094V13.1579H11.5515ZM11.6357 12.2737C11.2146 12.2737 10.8357 12.6105 10.8357 13.0737C10.8357 13.4947 11.1725 13.8737 11.6357 13.8737C12.0567 13.8737 12.4357 13.5368 12.4357 13.0737C12.4357 12.6105 12.0567 12.2737 11.6357 12.2737ZM11.6357 13.7053C11.2989 13.7053 11.0041 13.4105 11.0041 13.0737C11.0041 12.7368 11.2989 12.4421 11.6357 12.4421C11.9725 12.4421 12.2673 12.7368 12.2673 13.0737C12.2673 13.4105 11.9725 13.7053 11.6357 13.7053Z" fill="#F58025"/>
<path d="M9.53036 8.82105H8.3093C8.35141 8.65263 8.35141 8.48421 8.22509 8.27368L6.24615 4.82105C5.95141 4.31579 5.65667 3.93684 5.40404 3.6421C6.20404 4.06315 7.76193 4.94736 10.7935 6.71579L10.9619 6.8C11.5093 7.13684 11.8461 7.6421 11.7619 7.97894C11.6356 8.52631 10.8356 8.82105 9.53036 8.82105ZM5.57246 12.1895L5.40404 12.3158C4.85667 12.6526 4.22509 12.6526 3.97246 12.4C3.63562 12.0632 3.80404 11.221 4.43562 10.0842L5.02509 9.03157C5.15141 9.15789 5.31983 9.2421 5.53036 9.2421H9.48825C10.0777 9.2421 10.5409 9.2 10.9619 9.07368C10.204 9.57894 8.64615 10.4632 5.57246 12.1895ZM3.4672 4.94736V4.73684C3.4672 4.10526 3.71983 3.55789 4.09878 3.47368C4.56193 3.34736 5.23562 3.93684 5.8672 5.03158L6.45667 6.08421C6.28825 6.12631 6.11983 6.25263 6.03562 6.42105L4.05667 9.83157C3.76193 10.3368 3.55141 10.7579 3.4672 11.1789C3.4672 10.2947 3.4672 8.48421 3.4672 4.94736ZM6.62509 2.12631C3.38299 2.12631 0.772461 4.73684 0.772461 7.97894C0.772461 11.221 3.38299 13.8316 6.62509 13.8316C9.8672 13.8316 12.4777 11.221 12.4777 7.97894C12.4777 4.73684 9.8672 2.12631 6.62509 2.12631Z" fill="#F58025"/>
<path d="M18.5408 3.72632H14.7092H14.625V4.10527H14.7092C16.0566 4.27369 16.225 4.44211 16.225 5.1579V12.4H17.7829V8.61053H18.4145C19.8882 8.61053 22.9618 8.61053 22.9618 6.16842C22.9618 3.72632 20.0987 3.72632 18.5408 3.72632ZM18.3724 7.97895H17.7829V5.1579C17.7829 4.48421 17.7829 4.4 19.0461 4.4C20.4776 4.4 21.2355 5.03158 21.2355 6.21053C21.2355 7.76842 19.7618 7.97895 18.3724 7.97895Z" fill="#006AAA"/>
<path d="M31.7199 3.72632H30.7936V10.5053C30.583 10.1684 25.9514 3.72632 25.9514 3.72632H22.6672V4.10527H22.7514C24.0988 4.27369 24.2672 4.3579 24.2672 5.28421V12.4H25.2778V5.11579C25.5304 5.45263 30.5409 12.4 30.5409 12.4H31.8883V3.72632H31.7199Z" fill="#006AAA"/>
<path d="M33.0251 7.76842C33.0251 10.1263 34.4567 12.5263 37.6988 12.5263C39.2146 12.5263 39.9725 12.3579 40.6883 12.1895H40.7725V11.4737L40.6462 11.5158C39.8883 11.7263 39.1725 11.8105 38.583 11.8105C36.0146 11.8105 34.7515 10.3789 34.7515 7.47368C34.7515 5.53684 35.6778 4.35789 37.2357 4.35789C38.2883 4.35789 38.8778 4.77894 39.0462 5.57894V5.66315H40.7725V5.49473C40.7304 5.03158 40.3094 3.55789 37.3199 3.55789C34.4567 3.55789 33.0251 4.98947 33.0251 7.76842Z" fill="#006AAA"/>
</g>
</g>
<defs>
<clipPath id="clip0_778_2084">
<rect width="40" height="16" fill="white" transform="translate(0.772461)"/>
</clipPath>
<clipPath id="clip1_778_2084">
<rect width="40" height="11.7474" fill="white" transform="translate(0.772461 2.12631)"/>
</clipPath>
</defs>
</svg>
