<svg width="17" height="16" viewBox="0 0 17 16" fill="none" xmlns="http://www.w3.org/2000/svg">
<g clip-path="url(#clip0_795_1953)">
<path d="M16.209 7.67127C16.21 6.61987 15.9943 5.57955 15.5754 4.61523C15.1564 3.65091 14.5432 2.78329 13.774 2.06651C13.6396 1.54232 13.4716 1.21526 13.4537 1.18166L13.2655 0.827725L12.8847 0.955411C12.7481 1.00021 12.6114 1.04278 12.4725 1.08534C11.2814 0.373911 9.91972 -0.00118063 8.53235 2.79166e-06C7.14499 0.00118622 5.78391 0.3786 4.59405 1.09206C4.3454 1.01813 4.20651 0.964372 4.19979 0.962132L3.78761 0.805324L3.59944 1.20406C3.46737 1.48643 3.36163 1.78039 3.28358 2.08219C2.51896 2.79837 1.90966 3.66403 1.49348 4.62547C1.07731 5.58691 0.863139 6.62362 0.864262 7.67127C0.864262 11.3921 3.51431 14.4946 7.02905 15.1936C7.01113 15.3683 6.99993 15.4893 6.99769 15.5475C7.09056 15.6196 7.18865 15.6848 7.29114 15.7424C7.53979 15.8701 7.93405 16 8.52096 16H8.56129C9.49541 15.9978 9.95015 15.6662 10.0846 15.5475C10.0823 15.4915 10.0689 15.3705 10.0465 15.1936C13.5612 14.4924 16.209 11.3921 16.209 7.67127Z" fill="#004712"/>
<path d="M14.2288 3.26047C14.1123 2.27482 13.6463 1.47062 13.4402 1.15477L13.4537 1.18165C13.4783 1.22869 13.8233 1.89401 13.9152 2.88861C13.9219 2.9603 13.9264 3.03422 13.9308 3.11039V3.12383C13.9353 3.20223 13.9376 3.28287 13.9376 3.36576V3.37024C14.0204 3.47552 14.1011 3.58081 14.1772 3.69057C14.7494 4.50156 15.1404 5.42618 15.3236 6.40166C15.5069 7.37713 15.478 8.38061 15.2391 9.34394L10.835 5.01C10.6782 4.9764 10.5124 4.94504 10.3377 4.91592L15.1539 9.65599C15.019 10.1069 14.8381 10.5428 14.6141 10.9568L9.76199 6.10093C9.74855 6.30479 9.73734 6.5288 9.73286 6.76849L14.3565 11.3921C14.1209 11.7596 13.8508 12.1039 13.55 12.4203L9.73958 8.60986C9.74182 8.73979 9.74406 8.87419 9.7463 9.01308L13.3529 12.6219C12.526 13.4278 11.5101 14.0132 10.3982 14.3244C10.3332 14.3423 10.2705 14.358 10.2055 14.3759L10.1585 14.3871C10.0913 14.4028 10.0263 14.4185 9.95912 14.4319V14.4453C9.96584 14.535 9.9748 14.6223 9.98152 14.7074C9.98152 14.7142 9.98376 14.7209 9.98376 14.7276C10.0241 15.0054 10.0532 15.2249 10.0689 15.3728C10.1651 15.1371 10.2481 14.8963 10.3175 14.6514C13.4335 13.8584 15.7386 11.0359 15.7386 7.67349C15.7413 6.07531 15.2099 4.52204 14.2288 3.26047ZM7.35163 6.1099L2.47266 10.9777C2.24209 10.5537 2.05592 10.107 1.91711 9.64479L6.67287 4.92712C6.4959 4.95624 6.33013 4.98984 6.17557 5.02568L1.83199 9.33342C1.59514 8.37235 1.56737 7.37164 1.75055 6.39892C1.93373 5.4262 2.3236 4.50414 2.8938 3.69505C2.96997 3.58753 3.05061 3.48 3.13126 3.37696V3.37024C3.12902 3.21791 3.13574 3.05886 3.14918 2.89758C3.19526 2.31721 3.34471 1.74975 3.59048 1.22197C3.36871 1.57591 2.94981 2.34203 2.84228 3.26719C1.86383 4.52649 1.33401 6.07651 1.33693 7.67125C1.33693 11.0314 3.63976 13.854 6.75352 14.6492C6.82356 14.903 6.90961 15.1522 7.01113 15.3952C7.02905 15.2003 7.06713 14.8643 7.11865 14.4319C7.05145 14.4185 6.98425 14.4028 6.91704 14.3871L6.87 14.3759C6.80504 14.3602 6.74007 14.3423 6.67735 14.3244C5.58697 14.0199 4.58885 13.4505 3.77193 12.6667L7.37179 9.03772C7.37403 8.89883 7.37627 8.76219 7.37851 8.63226L3.56808 12.4673C3.25649 12.1439 2.97669 11.7914 2.73252 11.4145L7.38075 6.77745C7.37403 6.53776 7.36507 6.31375 7.35163 6.1099ZM11.3569 1.3631C11.4757 1.33846 11.5944 1.31158 11.7109 1.2847L11.749 1.27573L11.8184 1.26005H11.8162C12.1634 1.17493 12.5061 1.0786 12.8444 0.966599L11.4914 1.10325C10.5615 0.685524 9.55357 0.469738 8.53416 0.470124C7.51476 0.47051 6.50703 0.68706 5.57746 1.10549L4.21099 0.966599C4.55029 1.08467 4.89578 1.18413 5.24592 1.26453H5.24816L5.26832 1.26901L5.38033 1.29366L5.41617 1.30038C5.45201 1.30934 5.48785 1.31606 5.52593 1.32502L5.5573 1.33174C5.60434 1.3407 5.65362 1.3519 5.7029 1.36086L5.71634 1.3631C6.6037 0.966777 7.56457 0.761751 8.53641 0.761365C9.50825 0.760979 10.4693 0.965242 11.3569 1.36086V1.3631Z" fill="#CB9700"/>
<path d="M13.0305 1.39447C8.1919 3.00959 4.00961 1.39447 4.00961 1.39447C3.06205 3.39937 4.00737 5.32587 4.00737 5.32587C4.00737 5.32587 5.51273 4.29317 8.53464 4.29317C11.5565 4.29317 13.0305 5.32363 13.0305 5.32363C13.9938 3.20224 13.0305 1.39447 13.0305 1.39447ZM9.54717 15.2316C9.2918 13.1125 9.24251 8.43738 9.24251 7.11571C9.24392 6.33575 9.30383 5.557 9.42172 4.786C9.14395 4.7636 8.84825 4.75016 8.53912 4.75016C8.23446 4.75016 7.94549 4.76136 7.66996 4.78376C7.78683 5.55563 7.84672 6.33505 7.84916 7.11571C7.84916 8.43738 7.79988 13.1125 7.54451 15.2316C7.54451 15.2316 7.78868 15.4848 8.54584 15.4848H8.55032C9.30524 15.4848 9.54941 15.2316 9.54717 15.2316Z" fill="white"/>
</g>
<defs>
<clipPath id="clip0_795_1953">
<rect width="15.3448" height="16" fill="white" transform="translate(0.864258)"/>
</clipPath>
</defs>
</svg>
