<svg width="16" height="16" viewBox="0 0 16 16" fill="none" xmlns="http://www.w3.org/2000/svg">
<g clip-path="url(#clip0_876_2896)">
<path d="M12.6094 12.6743C12.9062 12.3765 13.1763 12.0492 13.4111 11.7011C13.6501 11.3471 13.8554 10.969 14.0212 10.5765C14.3661 9.76043 14.5415 8.89358 14.5415 8C14.5415 7.10642 14.3667 6.23957 14.0212 5.42353C13.8554 5.03155 13.6501 4.65294 13.4111 4.29893C13.1742 3.94866 12.9025 3.61872 12.6025 3.31925C12.4726 3.1893 12.3367 3.06471 12.1966 2.94545L15.1426 0H6.56079L3.24849 3.3123C3.24635 3.31444 3.24421 3.31711 3.24153 3.31925C2.94207 3.61872 2.66988 3.94866 2.43298 4.29893C2.19394 4.65294 1.98859 5.03102 1.82282 5.42353C1.4779 6.23957 1.3025 7.10642 1.3025 8C1.3025 8.89358 1.47736 9.76043 1.82282 10.5765C1.98859 10.9684 2.19394 11.3471 2.43298 11.7011C2.66988 12.0513 2.94153 12.3813 3.24153 12.6807C3.37202 12.8112 3.50784 12.9364 3.64902 13.0556L0.704102 16H9.28378L12.6094 12.6743Z" fill="black"/>
<path d="M12.2159 12.3128C14.5939 9.93477 14.5934 6.07808 12.2148 3.70001C12.0848 3.57006 11.9506 3.4476 11.8126 3.33209L8.21051 6.93423C8.38805 6.98396 8.55543 7.07862 8.695 7.21765C8.69554 7.21819 8.69554 7.21819 8.69607 7.21872C9.13083 7.65348 9.13083 8.35883 8.69607 8.79412L2.02441 15.4658H2.80623L9.08698 9.18503C9.73564 8.53637 9.73778 7.48557 9.09286 6.83423L9.48377 6.44332C10.3447 7.31017 10.3426 8.71124 9.47789 9.57594L3.58805 15.4658H4.36987L9.86933 9.96632C10.9501 8.88557 10.9517 7.1353 9.87522 6.05188L10.2661 5.66097C11.5586 6.9599 11.5565 9.06044 10.2602 10.3567L5.15169 15.4652H5.9335L10.6506 10.7481C12.1629 9.23584 12.1651 6.78503 10.6565 5.2706L11.0474 4.87969C12.7715 6.61017 12.7699 9.41124 11.0415 11.139L6.71479 15.4658H7.49661L11.4324 11.53C13.3763 9.5861 13.3784 6.4353 11.4383 4.48878L11.8319 4.09519C13.9891 6.25883 13.9875 9.76204 11.826 11.923L8.28377 15.4652H9.06559L12.2159 12.3128Z" fill="white"/>
<path d="M3.63185 3.6925C1.25378 6.07058 1.25431 9.92726 3.63292 12.3053C3.76287 12.4353 3.8971 12.5577 4.03506 12.6733L7.6372 9.07111C7.45966 9.02138 7.29228 8.92673 7.15271 8.78769C7.15217 8.78716 7.15218 8.78716 7.15164 8.78662C6.71688 8.35186 6.71688 7.64651 7.15164 7.21122L13.8324 0.531006H13.0506L6.76073 6.82085C6.11207 7.46951 6.10993 8.52031 6.75485 9.17165L6.36394 9.56256C5.50298 8.69571 5.50512 7.29464 6.36982 6.42994L12.2693 0.531006H11.4875L5.97891 6.03903C4.89816 7.11978 4.89656 8.87004 5.97303 9.95347L5.58212 10.3444C4.28961 9.04544 4.29175 6.94491 5.588 5.64865L10.7057 0.531006H9.92383L5.1971 5.25774C3.6848 6.77004 3.68266 9.22085 5.19121 10.7353L4.8003 11.1262C3.07624 9.39571 3.07784 6.59464 4.80619 4.86683L9.14201 0.531006H8.3602L4.41528 4.47593C2.47143 6.41978 2.46929 9.57058 4.40939 11.5171L4.01581 11.9107C1.85859 9.74705 1.8602 6.24384 4.02169 4.08288L7.57303 0.531541H6.79121L3.63185 3.6925Z" fill="#C8102E"/>
</g>
<defs>
<clipPath id="clip0_876_2896">
<rect width="14.4385" height="16" fill="white" transform="translate(0.704102)"/>
</clipPath>
</defs>
</svg>
