<svg width="17" height="16" viewBox="0 0 17 16" fill="none" xmlns="http://www.w3.org/2000/svg">
<g clip-path="url(#clip0_2_7359)">
<path d="M8.46387 16C12.8821 16 16.4639 12.4183 16.4639 8C16.4639 3.58172 12.8821 0 8.46387 0C4.04559 0 0.463867 3.58172 0.463867 8C0.463867 12.4183 4.04559 16 8.46387 16Z" fill="url(#paint0_radial_2_7359)"/>
<path d="M2.58831 7.99795C2.58831 4.3335 4.90164 1.20906 8.14831 0.00683594C3.8772 0.173503 0.463867 3.68684 0.463867 8.00017C0.463867 12.3179 3.88387 15.8357 8.16164 15.9935C4.91053 14.7935 2.58831 11.6668 2.58831 7.99795Z" fill="url(#paint1_radial_2_7359)"/>
<mask id="mask0_2_7359" style="mask-type:luminance" maskUnits="userSpaceOnUse" x="0" y="0" width="9" height="16">
<path d="M2.58831 7.99795C2.58831 4.3335 4.90164 1.20906 8.14831 0.00683594C3.8772 0.173503 0.463867 3.68684 0.463867 8.00017C0.463867 12.3179 3.88387 15.8357 8.16164 15.9935C4.91053 14.7935 2.58831 11.6668 2.58831 7.99795Z" fill="url(#paint2_radial_2_7359)"/>
</mask>
<g mask="url(#mask0_2_7359)">
<path d="M2.58831 7.99795C2.58831 4.3335 4.90164 1.20906 8.14831 0.00683594C3.8772 0.173503 0.463867 3.68684 0.463867 8.00017C0.463867 12.3179 3.88387 15.8357 8.16164 15.9935C4.91053 14.7935 2.58831 11.6668 2.58831 7.99795Z" fill="url(#paint3_radial_2_7359)"/>
</g>
<path d="M8.32818 7.23769C8.85929 5.9288 7.86596 5.57324 7.21929 5.57324H5.07707C5.25485 5.69546 5.22596 5.85769 5.1904 5.95769L3.94151 9.94658C3.89262 10.1044 3.70596 10.271 3.60596 10.2955H5.33929C5.24373 10.2777 5.10818 10.1421 5.15707 9.95769L5.6104 8.51546C5.61262 8.51546 7.69707 8.79769 8.32818 7.23769ZM6.64373 5.93991C6.8704 5.93991 7.49929 5.97102 7.09262 7.15991C6.66818 8.4088 5.72596 8.15102 5.72596 8.15102L6.41929 5.93991H6.64373Z" fill="white"/>
<path d="M9.71511 10.2977H10.8818C10.5084 10.1777 9.95734 9.82439 9.73734 9.57328C9.91511 9.37995 10.1351 9.1355 10.1751 8.63995H9.57067C9.57067 8.63995 9.68623 8.70661 9.68623 8.84883C9.68623 8.97995 9.63289 9.16217 9.53067 9.28883C9.35289 9.02661 9.164 8.72661 9.09734 8.28661C9.33512 8.16883 9.66845 8.03995 9.93289 7.80883C10.184 7.58883 10.2418 7.37995 10.2462 7.24439V7.22661C10.2462 7.08439 10.1907 6.95106 10.0884 6.85106C9.91289 6.67772 9.63734 6.60661 9.34623 6.65995C9.11289 6.70439 8.91511 6.82883 8.81511 6.91995C8.464 7.25106 8.41956 7.7955 8.41956 8.04217C8.41956 8.10217 8.42178 8.14661 8.424 8.17328C8.404 8.18217 8.36845 8.1955 8.36845 8.1955C8.11067 8.29106 7.424 8.47328 7.17956 9.03772C7.14845 9.10883 7.104 9.26439 7.104 9.44439C7.104 9.59995 7.13734 9.77328 7.23734 9.93106C7.41067 10.2022 7.704 10.3733 8.17512 10.3644C8.68623 10.3555 9.19067 10.0066 9.27956 9.94217C9.36623 10.0244 9.59511 10.2399 9.71511 10.2977ZM9.71511 7.14217C9.65511 7.52217 9.16178 7.90661 9.04178 7.95772C9.01956 7.74439 9.03067 7.40661 9.20845 7.13106C9.32623 6.94883 9.484 6.86883 9.61067 6.91328C9.71289 6.94883 9.724 7.04217 9.71511 7.14217ZM9.03067 9.68439C8.96178 9.72661 8.69067 9.86439 8.43734 9.88883C8.20178 9.91106 7.81067 9.81995 7.81289 9.34883C7.81289 8.94661 8.25067 8.65106 8.48845 8.54883C8.584 8.93772 8.79956 9.37772 9.03067 9.68439Z" fill="white"/>
<path d="M13.2592 5.94442C13.9526 5.77775 14.5237 6.31998 14.5748 6.35775L14.7726 5.72887C14.4992 5.64664 12.5104 4.97331 11.1037 6.57775C10.2392 7.56442 10.0281 9.58664 11.1237 10.1289C12.297 10.7089 13.5926 10.04 13.6881 9.99331L14.2237 8.28664C14.2815 8.07998 14.4126 7.94664 14.6437 7.85998H12.7815C13.0526 7.97331 13.0326 8.17775 13.0126 8.2622L12.477 9.96887C12.4059 9.9822 10.9081 10.3555 11.7459 7.73553C11.9304 7.17331 12.4348 6.1422 13.2592 5.94442Z" fill="white"/>
</g>
<defs>
<radialGradient id="paint0_radial_2_7359" cx="0" cy="0" r="1" gradientUnits="userSpaceOnUse" gradientTransform="translate(3.85713 3.11355) scale(14.9403)">
<stop stop-color="#00A1DF"/>
<stop offset="0.13" stop-color="#0092D7"/>
<stop offset="0.37" stop-color="#006CC1"/>
<stop offset="0.62" stop-color="#003DA6"/>
<stop offset="0.73" stop-color="#043799"/>
<stop offset="0.93" stop-color="#102777"/>
<stop offset="1" stop-color="#152169"/>
</radialGradient>
<radialGradient id="paint1_radial_2_7359" cx="0" cy="0" r="1" gradientUnits="userSpaceOnUse" gradientTransform="translate(2.76948 1.23373) scale(24.772 24.772)">
<stop offset="0.02" stop-color="white"/>
<stop offset="0.03" stop-color="#FBFEFF"/>
<stop offset="0.09" stop-color="#BAE7F9"/>
<stop offset="0.14" stop-color="#87D5F4"/>
<stop offset="0.19" stop-color="#63C9F1"/>
<stop offset="0.23" stop-color="#4CC1EF"/>
<stop offset="0.26" stop-color="#44BEEE"/>
<stop offset="0.28" stop-color="#37B8EB"/>
<stop offset="0.35" stop-color="#19ACE5"/>
<stop offset="0.41" stop-color="#07A4E0"/>
<stop offset="0.45" stop-color="#00A1DF"/>
<stop offset="0.79" stop-color="#0045AB"/>
<stop offset="0.82" stop-color="#003DA6"/>
<stop offset="0.96" stop-color="#0059B6"/>
</radialGradient>
<radialGradient id="paint2_radial_2_7359" cx="0" cy="0" r="1" gradientUnits="userSpaceOnUse" gradientTransform="translate(7.17472 7.75637) rotate(-88.2324) scale(8.61628 8.76806)">
<stop offset="0.1" stop-color="white"/>
<stop offset="0.35" stop-color="#FDFDFD"/>
<stop offset="0.45" stop-color="#F6F6F6"/>
<stop offset="0.51" stop-color="#EAEAEA"/>
<stop offset="0.57" stop-color="#D9D9D9"/>
<stop offset="0.62" stop-color="#C3C3C3"/>
<stop offset="0.66" stop-color="#A7A7A7"/>
<stop offset="0.7" stop-color="#868686"/>
<stop offset="0.73" stop-color="#606060"/>
<stop offset="0.77" stop-color="#353535"/>
<stop offset="0.8"/>
</radialGradient>
<radialGradient id="paint3_radial_2_7359" cx="0" cy="0" r="1" gradientUnits="userSpaceOnUse" gradientTransform="translate(6.68739 6.43924) scale(10.0651 10.0651)">
<stop offset="0.32" stop-color="#44BEEE" stop-opacity="0"/>
<stop offset="0.48" stop-color="#2B99D9" stop-opacity="0.27"/>
<stop offset="0.67" stop-color="#1476C6" stop-opacity="0.58"/>
<stop offset="0.82" stop-color="#0561BA" stop-opacity="0.84"/>
<stop offset="0.92" stop-color="#0059B6"/>
</radialGradient>
<clipPath id="clip0_2_7359">
<rect width="16" height="16" fill="white" transform="translate(0.463867)"/>
</clipPath>
</defs>
</svg>
