<svg width="41" height="16" viewBox="0 0 41 16" fill="none" xmlns="http://www.w3.org/2000/svg">
<g clip-path="url(#clip0_846_2881)">
<g clip-path="url(#clip1_846_2881)">
<path fill-rule="evenodd" clip-rule="evenodd" d="M5.57385 6.9381L5.57433 6.93848L3.17162 9.60555L0.0839844 6.20694V4.74093C0.0839844 4.57259 0.280194 4.48048 0.409703 4.58804L3.8353 7.43286C4.16657 7.70795 4.64682 7.70795 4.97808 7.43286L5.57385 6.9381Z" fill="url(#paint0_linear_846_2881)"/>
<path d="M6.87681 5.85605L5.57385 6.93811L5.57433 6.93849L3.84916 8.46239C3.55526 8.72199 3.116 8.72855 2.81452 8.47781L0.0839844 6.20695V10.5638C0.0839844 11.0577 0.484399 11.4581 0.978338 11.4581H6.87681L7.49433 8.65711L6.87681 5.85605Z" fill="url(#paint1_radial_846_2881)"/>
<path fill-rule="evenodd" clip-rule="evenodd" d="M6.87695 5.85715V11.4581H7.83518C8.32912 11.4581 8.72955 11.0577 8.72955 10.5638V4.74094C8.72955 4.57259 8.53332 4.48047 8.40383 4.58805L6.87695 5.85715Z" fill="url(#paint2_linear_846_2881)"/>
<path d="M11.6201 9.33663V10.41H12.372V9.38351C12.372 9.28388 12.4113 9.18759 12.4823 9.11726C12.5525 9.04693 12.6485 9.00675 12.7479 9.00675H13.519C13.8783 9.00675 14.2233 8.86358 14.4773 8.60821C14.7312 8.35368 14.8741 8.0079 14.8741 7.64787C14.8741 7.28785 14.7312 6.94206 14.4773 6.6867C14.2233 6.43217 13.8783 6.289 13.5182 6.289H11.6201V7.63029H12.372V6.99816H13.4681C13.6385 6.99816 13.8014 7.06598 13.9217 7.18654C14.042 7.30711 14.1097 7.47037 14.1097 7.64117C14.1097 7.81197 14.042 7.97524 13.9217 8.09581C13.8014 8.21637 13.6385 8.28419 13.4681 8.28419H12.6719C12.5341 8.28419 12.3971 8.31098 12.2701 8.36457C12.1423 8.41732 12.027 8.49518 11.9292 8.59314C11.8315 8.6911 11.7546 8.80748 11.7012 8.93474C11.6477 9.06117 11.6201 9.19848 11.6201 9.33663Z" fill="#1B1340"/>
<path d="M14.9902 10.41V8.77483C14.9902 8.10754 15.3787 7.57671 16.1565 7.57671C16.281 7.57503 16.4054 7.58843 16.5274 7.61773V8.29006C16.4389 8.2842 16.3628 8.2842 16.3269 8.2842C15.9151 8.2842 15.7379 8.47342 15.7379 8.85688V10.41H14.9902Z" fill="#1B1340"/>
<path d="M16.7515 9.02349C16.7515 8.20297 17.3697 7.57755 18.2302 7.57755C19.0907 7.57755 19.7089 8.20297 19.7089 9.02349C19.7089 9.844 19.0907 10.4753 18.2302 10.4753C17.3697 10.4753 16.7515 9.84316 16.7515 9.02349ZM18.972 9.02349C18.972 8.55713 18.6596 8.22641 18.2302 8.22641C17.7999 8.22641 17.4883 8.5563 17.4883 9.02349C17.4883 9.4957 17.8008 9.82056 18.2302 9.82056C18.6604 9.82056 18.972 9.49486 18.972 9.02349Z" fill="#1B1340"/>
<path d="M22.0996 9.02349C22.0996 8.20297 22.7178 7.57755 23.5783 7.57755C24.438 7.57755 25.0562 8.20297 25.0562 9.02349C25.0562 9.844 24.438 10.4753 23.5783 10.4753C22.7178 10.4753 22.0996 9.84316 22.0996 9.02349ZM24.3193 9.02349C24.3193 8.55713 24.0069 8.22641 23.5775 8.22641C23.1481 8.22641 22.8356 8.5563 22.8356 9.02349C22.8356 9.4957 23.1481 9.82056 23.5775 9.82056C24.0069 9.82056 24.3193 9.49486 24.3193 9.02349Z" fill="#1B1340"/>
<path d="M25.4448 10.41V8.83428C25.4448 8.10251 25.9102 7.57672 26.7406 7.57672C27.5651 7.57672 28.0305 8.10168 28.0305 8.83428V10.41H27.2886V8.89289C27.2886 8.48598 27.1056 8.23145 26.7406 8.23145C26.3755 8.23145 26.1925 8.48514 26.1925 8.89289V10.41H25.4448Z" fill="#1B1340"/>
<path d="M21.8757 8.23227H21.0687V9.26544C21.0687 9.62547 21.1981 9.79041 21.5691 9.79041C21.6042 9.79041 21.6927 9.79041 21.8047 9.78455V10.3924C21.6518 10.4334 21.5164 10.4577 21.3686 10.4577C20.7445 10.4577 20.3201 10.0801 20.3201 9.36592V8.23227H19.8188V7.63614H19.9442C19.9934 7.63614 20.0427 7.62609 20.0879 7.60767C20.1338 7.58841 20.1748 7.56078 20.2098 7.52562C20.2449 7.49045 20.2725 7.44943 20.2917 7.40338C20.3109 7.35733 20.3201 7.30877 20.3201 7.25937V6.69757H21.0678V7.63614H21.8748V8.23227H21.8757Z" fill="#1B1340"/>
<path d="M29.7021 6.39536H30.7643L31.7599 8.80362C31.8487 9.00544 31.9246 9.21144 31.9886 9.42161H31.9988C32.0628 9.21144 32.1388 9.0046 32.2275 8.80362L33.2231 6.39536H34.2853V10.4114H33.5157V7.72091C33.5149 7.63215 33.5191 7.54339 33.5285 7.45547H33.5157C33.4919 7.55009 33.4603 7.64304 33.4202 7.73264L32.3171 10.3645H31.6789L30.5724 7.73264C30.5323 7.6422 30.4981 7.55009 30.4708 7.45547H30.4589C30.4674 7.54339 30.4717 7.63215 30.4708 7.72091V10.4122H29.7021V6.39536Z" fill="#6D4AFF"/>
<path d="M36.9172 7.76195C37.1398 7.87667 37.3241 8.05251 37.4478 8.26772C37.5801 8.50135 37.6466 8.76596 37.6415 9.03308V10.4114H36.9675L36.9197 9.99772C36.8319 10.1476 36.703 10.2699 36.5478 10.3519C36.3814 10.4365 36.1954 10.4792 36.0077 10.475C35.768 10.4775 35.5325 10.4147 35.3269 10.2933C35.1187 10.1694 34.9498 9.99186 34.8372 9.78085C34.7143 9.54806 34.6529 9.28931 34.658 9.02722C34.6546 8.76931 34.722 8.51558 34.8525 8.29116C34.9805 8.07344 35.1656 7.89425 35.39 7.77283C35.6221 7.64639 35.8831 7.58107 36.1485 7.58442C36.4155 7.5794 36.68 7.64053 36.9172 7.76195ZM36.6706 9.61588C36.8174 9.47855 36.8899 9.28513 36.8899 9.02722C36.8993 8.81619 36.8233 8.61019 36.68 8.45361C36.6117 8.38328 36.5298 8.328 36.4385 8.28949C36.3473 8.25098 36.25 8.2317 36.151 8.2317C36.0521 8.2317 35.954 8.25098 35.8635 8.28949C35.7722 8.328 35.6903 8.38328 35.6221 8.45361C35.4856 8.6144 35.4105 8.81703 35.4105 9.02638C35.4105 9.23571 35.4856 9.43836 35.6221 9.59913C35.6895 9.67115 35.7714 9.72725 35.8635 9.76578C35.9548 9.80346 36.0538 9.82271 36.1527 9.8202C36.2483 9.82188 36.3438 9.80429 36.4334 9.76913C36.5213 9.73478 36.6023 9.68204 36.6706 9.61588Z" fill="#6D4AFF"/>
<path d="M38.0572 7.07027C38.012 7.02924 37.9762 6.97983 37.9514 6.92457C37.9267 6.8693 37.9147 6.80985 37.9156 6.74955C37.9147 6.68927 37.9275 6.62897 37.9514 6.57287C37.9762 6.51677 38.012 6.46652 38.0572 6.42549C38.1468 6.33841 38.2679 6.289 38.3942 6.289C38.5205 6.289 38.6416 6.33841 38.7312 6.42549C38.7764 6.46736 38.8122 6.5176 38.8361 6.57287C38.86 6.62897 38.8728 6.68843 38.872 6.74955C38.8728 6.80985 38.8609 6.8693 38.8361 6.92457C38.8122 6.97983 38.7764 7.02924 38.7312 7.07027C38.6408 7.15568 38.5196 7.20341 38.3942 7.20341C38.2679 7.20341 38.1476 7.15568 38.0572 7.07027ZM38.7738 10.4114H38.0162V7.64387H38.7738V10.4114Z" fill="#6D4AFF"/>
<path d="M40.0841 10.4114H39.3257V6.39536H40.0841V10.4114Z" fill="#6D4AFF"/>
</g>
</g>
<defs>
<linearGradient id="paint0_linear_846_2881" x1="3.32818" y1="9.65257" x2="0.428656" y2="-0.419893" gradientUnits="userSpaceOnUse">
<stop stop-color="#E3D9FF"/>
<stop offset="1" stop-color="#7341FF"/>
</linearGradient>
<radialGradient id="paint1_radial_846_2881" cx="0" cy="0" r="1" gradientUnits="userSpaceOnUse" gradientTransform="translate(7.46205 6.54179) scale(8.64176 8.14554)">
<stop offset="0.5561" stop-color="#6D4AFF"/>
<stop offset="0.9944" stop-color="#AA8EFF"/>
</radialGradient>
<linearGradient id="paint2_linear_846_2881" x1="11.5254" y1="15.9421" x2="4.85597" y2="1.55459" gradientUnits="userSpaceOnUse">
<stop offset="0.271" stop-color="#E3D9FF"/>
<stop offset="1" stop-color="#7341FF"/>
</linearGradient>
<clipPath id="clip0_846_2881">
<rect width="40" height="16" fill="white" transform="translate(0.0839844)"/>
</clipPath>
<clipPath id="clip1_846_2881">
<rect width="40" height="6.91635" fill="white" transform="translate(0.0839844 4.54181)"/>
</clipPath>
</defs>
</svg>
