<svg width="41" height="16" viewBox="0 0 41 16" fill="none" xmlns="http://www.w3.org/2000/svg">
<g clip-path="url(#clip0_846_2908)">
<g clip-path="url(#clip1_846_2908)">
<path fill-rule="evenodd" clip-rule="evenodd" d="M3.44206 11.338C3.75977 11.9092 4.57571 11.9401 4.93643 11.3947L8.29998 6.30854C8.65668 5.76916 8.3154 5.04602 7.66949 4.97253L1.05832 4.2203C0.353468 4.1401 -0.14839 4.88332 0.194443 5.49964L0.221329 5.54772L3.17126 7.56908L3.13543 10.7847L3.44206 11.338Z" fill="url(#paint0_linear_846_2908)"/>
<path d="M3.63164 10.8052L3.93015 10.36L6.1976 6.93485C6.39585 6.6354 6.20663 6.23367 5.84793 6.1925L0.220703 5.54645L3.13577 10.787C3.24216 10.9746 3.51117 10.9849 3.63164 10.8052Z" fill="url(#paint1_radial_846_2908)"/>
<path d="M11.2881 9.22522V10.2632H12.0152V9.27056C12.0152 9.17422 12.0531 9.08111 12.1218 9.0131C12.1897 8.94509 12.2826 8.90623 12.3787 8.90623H13.1243C13.4717 8.90623 13.8054 8.76778 14.0509 8.52084C14.2965 8.27472 14.4347 7.94034 14.4347 7.59219C14.4347 7.24405 14.2965 6.90968 14.0509 6.66274C13.8054 6.41661 13.4717 6.27817 13.1235 6.27817H11.2881V7.57519H12.0152V6.96392H13.0751C13.2399 6.96392 13.3974 7.0295 13.5137 7.14609C13.6301 7.26267 13.6955 7.42055 13.6955 7.58572C13.6955 7.75088 13.6301 7.90876 13.5137 8.02535C13.3974 8.14194 13.2399 8.20752 13.0751 8.20752H12.3052C12.1719 8.20752 12.0394 8.23343 11.9166 8.28524C11.793 8.33625 11.6815 8.41154 11.587 8.50627C11.4925 8.601 11.4182 8.71354 11.3664 8.8366C11.3147 8.95885 11.2881 9.09163 11.2881 9.22522Z" fill="#1B1340"/>
<path d="M14.5469 10.2632V8.68197C14.5469 8.0367 14.9225 7.52339 15.6746 7.52339C15.795 7.52177 15.9154 7.53472 16.0333 7.56306V8.2132C15.9477 8.20753 15.8742 8.20753 15.8394 8.20753C15.4412 8.20753 15.2699 8.39051 15.2699 8.76132V10.2632H14.5469Z" fill="#1B1340"/>
<path d="M16.25 8.92243C16.25 8.12899 16.8478 7.5242 17.6799 7.5242C18.512 7.5242 19.1098 8.12899 19.1098 8.92243C19.1098 9.71586 18.512 10.3263 17.6799 10.3263C16.8478 10.3263 16.25 9.71505 16.25 8.92243ZM18.3973 8.92243C18.3973 8.47146 18.0951 8.15166 17.6799 8.15166C17.2639 8.15166 16.9625 8.47065 16.9625 8.92243C16.9625 9.37906 17.2647 9.69319 17.6799 9.69319C18.096 9.69319 18.3973 9.37825 18.3973 8.92243Z" fill="#1B1340"/>
<path d="M21.4219 8.92243C21.4219 8.12899 22.0197 7.5242 22.8518 7.5242C23.6831 7.5242 24.2809 8.12899 24.2809 8.92243C24.2809 9.71586 23.6831 10.3263 22.8518 10.3263C22.0197 10.3263 21.4219 9.71505 21.4219 8.92243ZM23.5684 8.92243C23.5684 8.47146 23.2662 8.15166 22.851 8.15166C22.4357 8.15166 22.1336 8.47065 22.1336 8.92243C22.1336 9.37906 22.4357 9.69319 22.851 9.69319C23.2662 9.69319 23.5684 9.37825 23.5684 8.92243Z" fill="#1B1340"/>
<path d="M24.6567 10.2632V8.73947C24.6567 8.03185 25.1067 7.52341 25.9097 7.52341C26.7071 7.52341 27.1571 8.03104 27.1571 8.73947V10.2632H26.4397V8.79614C26.4397 8.40266 26.2628 8.15653 25.9097 8.15653C25.5567 8.15653 25.3798 8.40185 25.3798 8.79614V10.2632H24.6567Z" fill="#1B1340"/>
<path d="M21.2053 8.1573H20.4249V9.15638C20.4249 9.50452 20.5501 9.66402 20.9088 9.66402C20.9427 9.66402 21.0283 9.66402 21.1366 9.65835V10.2461C20.9888 10.2858 20.8579 10.3093 20.7149 10.3093C20.1114 10.3093 19.701 9.94415 19.701 9.25354V8.1573H19.2163V7.58084H19.3375C19.3851 7.58084 19.4328 7.57113 19.4764 7.55331C19.5209 7.53469 19.5605 7.50798 19.5944 7.47397C19.6283 7.43997 19.655 7.40029 19.6736 7.35576C19.6921 7.31124 19.701 7.26428 19.701 7.21651V6.67325H20.4241V7.58084H21.2045V8.1573H21.2053Z" fill="#1B1340"/>
<path d="M34.8659 6.25873H32.9556V10.3443H33.7123V9.32727C33.7123 9.22848 33.7518 9.13299 33.8233 9.06326C33.8939 8.99352 33.9906 8.95366 34.0907 8.95366H34.8659C35.2275 8.95366 35.5739 8.8117 35.8287 8.56014C36.0843 8.30775 36.2272 7.96569 36.2272 7.60952C36.228 7.43268 36.1936 7.25667 36.1255 7.09311C36.0574 6.92956 35.9573 6.78011 35.8303 6.65475C35.7034 6.52938 35.5537 6.42976 35.3881 6.36168C35.2233 6.2936 35.0459 6.25873 34.8659 6.25873ZM35.4621 7.59873C35.4621 7.68258 35.4452 7.7656 35.4125 7.84281C35.3797 7.92002 35.3326 7.99059 35.272 8.04954C35.2123 8.10848 35.1409 8.15581 35.0627 8.18736C34.9845 8.21974 34.9004 8.23551 34.8155 8.23551H33.7089V6.96277H34.8155C34.9004 6.96277 34.9845 6.97937 35.0635 7.01175C35.1417 7.04413 35.2132 7.09145 35.2729 7.1504C35.3326 7.21017 35.3805 7.28075 35.4125 7.35796C35.4444 7.436 35.4612 7.51902 35.4604 7.60288L35.4621 7.59873Z" fill="#6D4AFF"/>
<path d="M30.2978 10.3294L28.7734 6.24713H29.6344L30.6375 9.16873C30.6771 9.27333 30.7056 9.38127 30.7225 9.49169H30.7309C30.7435 9.38043 30.7721 9.27167 30.8158 9.16873L31.8223 6.24713H32.6892L31.1572 10.3294H30.2978Z" fill="#6D4AFF"/>
<path d="M36.5107 10.3293V6.24622H37.1741L39.1265 8.77843C39.1972 8.8656 39.2577 8.95942 39.309 9.05905H39.3208C39.3073 8.93617 39.3014 8.81246 39.3023 8.68876V6.24622H40.0842V10.3285H39.4208L37.4625 7.79626C37.3936 7.70826 37.3331 7.61444 37.2809 7.51564H37.2742C37.2851 7.63852 37.2893 7.76222 37.2868 7.88593V10.3285H36.5107V10.3293Z" fill="#6D4AFF"/>
</g>
</g>
<defs>
<linearGradient id="paint0_linear_846_2908" x1="7.64395" y1="11.3376" x2="2.26462" y2="2.06088" gradientUnits="userSpaceOnUse">
<stop offset="0.0660125" stop-color="#8EFFEE"/>
<stop offset="0.4499" stop-color="#C9C7FF"/>
<stop offset="1" stop-color="#7341FF"/>
</linearGradient>
<radialGradient id="paint1_radial_846_2908" cx="0" cy="0" r="1" gradientUnits="userSpaceOnUse" gradientTransform="translate(3.63938 3.14736) rotate(93.7553) scale(8.53557 11.0075)">
<stop offset="0.403126" stop-color="#6D4AFF"/>
<stop offset="0.9944" stop-color="#00F0C3"/>
</radialGradient>
<clipPath id="clip0_846_2908">
<rect width="40" height="16" fill="white" transform="translate(0.0839844)"/>
</clipPath>
<clipPath id="clip1_846_2908">
<rect width="40" height="7.57138" fill="white" transform="translate(0.0839844 4.21432)"/>
</clipPath>
</defs>
</svg>
