<svg width="41" height="16" viewBox="0 0 41 16" fill="none" xmlns="http://www.w3.org/2000/svg">
<g clip-path="url(#clip0_846_2926)">
<g clip-path="url(#clip1_846_2926)">
<path d="M0.862251 11.1809C0.432965 11.1809 0.0849611 10.8329 0.0849611 10.4036L0.0849609 5.58442C0.0849609 5.15513 0.432965 4.80713 0.862251 4.80713H4.34138C6.05853 4.80713 7.45054 6.19915 7.45054 7.91628V10.4036C7.45054 10.8329 7.10255 11.1809 6.67326 11.1809H0.862251Z" fill="url(#paint0_linear_846_2926)"/>
<path d="M0.861275 11.1969C0.431989 11.1969 0.0839846 10.8489 0.0839846 10.4196L0.0839844 5.85953H3.56415C4.85201 5.85953 5.89602 6.90354 5.89602 8.19141V11.1969H0.861275Z" fill="#6D4AFF"/>
<path d="M0.861275 11.1969C0.431989 11.1969 0.0839846 10.8489 0.0839846 10.4196L0.0839844 5.85953H3.56415C4.85201 5.85953 5.89602 6.90354 5.89602 8.19141V11.1969H0.861275Z" fill="url(#paint1_linear_846_2926)" fill-opacity="0.9"/>
<path d="M1.18635 11.1809L2.37231 9.83362L0.0839844 10.1186V10.4036C0.0839844 10.8329 0.431989 11.1809 0.861275 11.1809H1.18635Z" fill="#FFBB93"/>
<path fill-rule="evenodd" clip-rule="evenodd" d="M1.62047 10.176C2.17415 10.176 2.62314 9.69627 2.62314 9.10467C2.62314 8.5131 2.17417 8.03342 1.62047 8.03342H0.0839844V10.176H1.62047ZM2.11324 9.10813C2.11324 8.79333 1.85803 8.53812 1.54322 8.53812C1.22842 8.53812 0.973213 8.79333 0.973213 9.10813C0.973213 9.42295 1.22842 9.67815 1.54322 9.67815C1.85804 9.67815 2.11324 9.42295 2.11324 9.10813Z" fill="white"/>
<path d="M9.99512 8.96975V9.89002H10.6398V9.00995C10.6398 8.92453 10.6734 8.84198 10.7343 8.78168C10.7945 8.72138 10.8769 8.68692 10.9621 8.68692H11.6232C11.9312 8.68692 12.227 8.56417 12.4448 8.34522C12.6625 8.127 12.785 7.83053 12.785 7.52185C12.785 7.21317 12.6625 6.9167 12.4448 6.69776C12.227 6.47953 11.9312 6.35678 11.6225 6.35678H9.99512V7.50677H10.6398V6.9648H11.5795C11.7256 6.9648 11.8653 7.02294 11.9685 7.12631C12.0716 7.22968 12.1296 7.36966 12.1296 7.5161C12.1296 7.66255 12.0716 7.80253 11.9685 7.9059C11.8653 8.00927 11.7256 8.06742 11.5795 8.06742H10.8969C10.7787 8.06742 10.6613 8.09039 10.5524 8.13633C10.4428 8.18155 10.3439 8.24831 10.2601 8.3323C10.1763 8.41629 10.1104 8.51607 10.0646 8.62518C10.0188 8.73358 9.99512 8.85131 9.99512 8.96975Z" fill="#1B1340"/>
<path d="M12.8848 9.89004V8.48809C12.8848 7.91596 13.2178 7.46084 13.8847 7.46084C13.9914 7.45941 14.0981 7.47089 14.2027 7.49602V8.07246C14.1268 8.06743 14.0616 8.06743 14.0308 8.06743C13.6777 8.06743 13.5258 8.22966 13.5258 8.55844V9.89004H12.8848Z" fill="#1B1340"/>
<path d="M14.3945 8.70127C14.3945 7.99778 14.9246 7.46155 15.6623 7.46155C16.4001 7.46155 16.9302 7.99778 16.9302 8.70127C16.9302 9.40476 16.4001 9.94602 15.6623 9.94602C14.9246 9.94602 14.3945 9.40404 14.3945 8.70127ZM16.2984 8.70127C16.2984 8.30143 16.0305 8.01788 15.6623 8.01788C15.2935 8.01788 15.0263 8.30071 15.0263 8.70127C15.0263 9.10614 15.2942 9.38466 15.6623 9.38466C16.0312 9.38466 16.2984 9.10542 16.2984 8.70127Z" fill="#1B1340"/>
<path d="M18.98 8.70127C18.98 7.99778 19.51 7.46155 20.2478 7.46155C20.9848 7.46155 21.5149 7.99778 21.5149 8.70127C21.5149 9.40476 20.9848 9.94602 20.2478 9.94602C19.51 9.94602 18.98 9.40404 18.98 8.70127ZM20.8831 8.70127C20.8831 8.30143 20.6152 8.01788 20.2471 8.01788C19.8789 8.01788 19.611 8.30071 19.611 8.70127C19.611 9.10614 19.8789 9.38466 20.2471 9.38466C20.6152 9.38466 20.8831 9.10542 20.8831 8.70127Z" fill="#1B1340"/>
<path d="M21.8481 9.89004V8.53905C21.8481 7.91165 22.2471 7.46085 22.9591 7.46085C23.6661 7.46085 24.065 7.91093 24.065 8.53905V9.89004H23.429V8.5893C23.429 8.24042 23.2721 8.0222 22.9591 8.0222C22.6461 8.0222 22.4892 8.23971 22.4892 8.5893V9.89004H21.8481Z" fill="#1B1340"/>
<path d="M18.7879 8.02288H18.096V8.9087C18.096 9.21738 18.207 9.3588 18.525 9.3588C18.5551 9.3588 18.631 9.3588 18.727 9.35377V9.87493C18.5959 9.9101 18.4799 9.93092 18.3531 9.93092C17.8181 9.93092 17.4542 9.60717 17.4542 8.99485V8.02288H17.0244V7.51177H17.1319C17.1741 7.51177 17.2164 7.50316 17.2551 7.48736C17.2945 7.47085 17.3296 7.44716 17.3596 7.41701C17.3897 7.38686 17.4134 7.35169 17.4298 7.31221C17.4463 7.27273 17.4542 7.23109 17.4542 7.18874V6.70706H18.0953V7.51177H18.7872V8.02288H18.7879Z" fill="#1B1340"/>
<path d="M36.9627 9.96198C36.5782 9.96198 36.2671 9.84139 36.0294 9.60019C35.7917 9.35551 35.6729 9.04617 35.6729 8.67214C35.6729 8.30163 35.7917 7.99403 36.0294 7.74935C36.2671 7.50467 36.5712 7.38232 36.9417 7.38232C37.3122 7.38232 37.6146 7.50467 37.8488 7.74935C38.083 7.99403 38.2001 8.30163 38.2001 8.67214C38.2001 8.76303 38.1983 8.84168 38.1948 8.90809H36.344C36.4209 9.22268 36.6219 9.37999 36.9469 9.37999C37.1986 9.37999 37.3734 9.30657 37.4713 9.15976H38.1267C38.0533 9.42892 37.9082 9.6299 37.6915 9.76273C37.4747 9.89555 37.2318 9.96198 36.9627 9.96198ZM36.3387 8.42572H37.5394C37.515 8.29289 37.4468 8.18454 37.3349 8.10065C37.2231 8.01325 37.092 7.96957 36.9417 7.96957C36.7879 7.96957 36.6568 8.01151 36.5485 8.0954C36.4436 8.17579 36.3737 8.2859 36.3387 8.42572Z" fill="#6D4AFF"/>
<path d="M34.6699 9.90432V6.32846H35.3935V9.90432H34.6699Z" fill="#6D4AFF"/>
<path d="M33.4263 9.90432V6.32846H34.1498V9.90432H33.4263Z" fill="#6D4AFF"/>
<path d="M26.5414 9.90432L25.498 6.32846H26.2531L26.7984 8.40476C26.8578 8.63896 26.8997 8.83645 26.9242 8.99724H26.9347C26.9627 8.82247 27.0063 8.62148 27.0658 8.39428L27.6373 6.32846H28.5915L29.163 8.39428C29.2294 8.62847 29.2749 8.82946 29.2994 8.99724H29.3099C29.3413 8.78401 29.3815 8.58653 29.4304 8.40476L29.9757 6.32846H30.7308L29.6874 9.90432H28.8747L28.2035 7.40332C28.1581 7.22854 28.1301 7.07824 28.1196 6.9524H28.1092C28.0987 7.07824 28.0707 7.22854 28.0253 7.40332L27.3541 9.90432H26.5414Z" fill="#6D4AFF"/>
<path d="M40.0837 7.96642H39.3681V8.88559C39.3681 9.20588 39.4829 9.35261 39.8118 9.35261C39.8429 9.35261 39.9215 9.35261 40.0207 9.3474V9.88817C39.8852 9.92466 39.7652 9.94626 39.634 9.94626C39.0806 9.94626 38.7043 9.61033 38.7043 8.97496V7.96642H38.2598V7.43609H38.3709C38.4146 7.43609 38.4583 7.42715 38.4983 7.41076C38.5391 7.39363 38.5754 7.36905 38.6065 7.33777C38.6376 7.30648 38.662 7.26999 38.6791 7.22902C38.6961 7.18805 38.7043 7.14485 38.7043 7.1009V6.6011H39.3673V7.43609H40.083V7.96642H40.0837Z" fill="#6D4AFF"/>
<path d="M32.4158 7.54945C32.6103 7.65141 32.7712 7.8077 32.8793 7.99896C32.9948 8.2066 33.0529 8.44177 33.0484 8.67918V9.90418H32.4597L32.418 9.53652C32.3413 9.66974 32.2288 9.7784 32.0931 9.85133C31.9478 9.9265 31.7854 9.96445 31.6215 9.96073C31.4121 9.96297 31.2064 9.90715 31.0268 9.79924C30.845 9.68908 30.6975 9.53132 30.5991 9.34377C30.4918 9.13688 30.4382 8.90692 30.4426 8.67396C30.4397 8.44475 30.4985 8.21925 30.6125 8.0198C30.7243 7.8263 30.886 7.66704 31.082 7.55912C31.2846 7.44675 31.5127 7.3887 31.7444 7.39167C31.9776 7.38721 32.2086 7.44154 32.4158 7.54945ZM32.2004 9.19716C32.3286 9.07511 32.3919 8.9032 32.3919 8.67396C32.4001 8.48643 32.3338 8.30334 32.2086 8.16418C32.149 8.10167 32.0775 8.05254 31.9978 8.01831C31.918 7.98407 31.8331 7.96695 31.7466 7.96695C31.6602 7.96695 31.5745 7.98407 31.4955 8.01831C31.4158 8.05254 31.3443 8.10167 31.2847 8.16418C31.1654 8.30706 31.0999 8.48717 31.0999 8.67322C31.0999 8.85929 31.1654 9.03938 31.2847 9.18228C31.3435 9.24627 31.415 9.29614 31.4955 9.33038C31.5753 9.36387 31.6617 9.38098 31.7481 9.37875C31.8316 9.38023 31.915 9.36461 31.9933 9.33335C32.07 9.30284 32.1408 9.25595 32.2004 9.19716Z" fill="#6D4AFF"/>
</g>
</g>
<defs>
<linearGradient id="paint0_linear_846_2926" x1="-0.840545" y1="5.5489" x2="8.27235" y2="9.09875" gradientUnits="userSpaceOnUse">
<stop stop-color="#957AFD"/>
<stop offset="1" stop-color="#FFC6C6"/>
</linearGradient>
<linearGradient id="paint1_linear_846_2926" x1="5.56755" y1="6.67895" x2="2.74098" y2="12.4305" gradientUnits="userSpaceOnUse">
<stop offset="0.149916" stop-color="#FA528E" stop-opacity="0"/>
<stop offset="0.720842" stop-color="#FF8065"/>
<stop offset="1" stop-color="#FFA51F"/>
</linearGradient>
<clipPath id="clip0_846_2926">
<rect width="40" height="16" fill="white" transform="translate(0.0839844)"/>
</clipPath>
<clipPath id="clip1_846_2926">
<rect width="40" height="6.38577" fill="white" transform="translate(0.0839844 4.80713)"/>
</clipPath>
</defs>
</svg>
