<svg width="83" height="64" viewBox="0 0 83 64" fill="none" xmlns="http://www.w3.org/2000/svg">
<g clip-path="url(#clip0_765_670)">
<path fill-rule="evenodd" clip-rule="evenodd" d="M81.4972 1.74174C80.7147 0.479625 79.0236 0.857951 76.979 1.84304C74.3297 2.97802 69.5603 8.27767 68.3995 11.2309C67.3648 15.47 64.9419 19.3824 61.0046 23.5967C57.0425 26.827 50.0022 25.54 45.9388 22.9652C45.6866 22.9652 29.0051 9.96876 29.0051 9.96876C23.0243 5.25004 18.8596 3.20543 13.838 2.59969C13.5858 2.44878 13.3584 2.19656 13.2829 2.0198C12.5004 0.278059 12.3495 0.430009 11.7934 0C11.138 0.505467 10.6584 0.782492 10.002 0.984058C9.69917 0.984058 9.64852 0.984058 9.47176 0.883792C9.06863 0.707034 8.63965 0.353517 8.21068 0.328709C7.70521 0.430009 7.30208 1.43888 6.62089 2.44878C6.62089 2.44878 5.45903 3.45764 4.39951 4.3404C3.99535 4.69392 3.9447 5.25004 3.66767 5.57771C3.11259 6.18345 2.45621 7.1675 2.35491 7.1675C2.10269 7.8735 2.00242 8.50508 2.45621 8.83276C2.45621 9.61525 2.86037 9.81681 3.01129 9.99357C3.1374 10.2458 3.16324 10.3471 3.34 10.5238C3.64286 10.65 3.89508 10.7006 4.19795 10.7761C5.81255 12.2656 6.46893 12.2397 8.33678 11.9875C11.566 12.2149 11.289 13.3003 11.2135 14.9407C11.0119 15.193 10.9613 15.1671 10.7339 15.2932C9.295 15.2932 7.78067 14.9655 6.34283 14.9655C3.18805 15.2436 0.462245 15.7987 0.714462 19.6088C0.917062 21.0983 3.61702 23.1678 5.03109 20.3665C5.23266 19.0785 6.31698 19.6595 7.25143 19.9623C12.9036 22.4101 17.4218 23.6722 20.4246 21.1232C21.3332 19.9882 21.8883 20.7955 22.8217 21.4767C27.3647 26.8776 33.8758 30.3849 43.8942 30.511C47.2257 31.3441 49.7748 32.7324 51.0369 36.0122C54.14 43.9622 58.0772 50.372 63.8565 53.7284C63.3769 58.751 63.5795 62.9146 68.6517 64C69.9893 62.9146 68.1215 61.2742 69.6606 57.5902C69.5345 55.9497 68.1215 54.6122 67.6418 51.4822C61.7364 46.6374 64.2348 44.6434 63.3521 41.4132C63.2756 36.6944 62.2419 33.0859 60.248 29.5021C60.0205 28.9212 60.3989 28.4922 60.9291 28.1894C64.2607 25.691 66.0779 23.2432 66.8852 20.8709C68.1215 16.6566 70.2157 13.3509 73.1937 10.9787C75.7179 8.95886 78.115 8.32832 80.8408 6.53593C82.5309 3.76051 82.2787 3.00386 81.4972 1.74174Z" fill="black"/>
</g>
<defs>
<clipPath id="clip0_765_670">
<rect width="81.4039" height="64" fill="white" transform="translate(0.698242)"/>
</clipPath>
</defs>
</svg>
