<svg width="19" height="16" viewBox="0 0 19 16" fill="none" xmlns="http://www.w3.org/2000/svg">
<g clip-path="url(#clip0_882_26324)">
<path d="M9.20996 1.58124L9.10535 1.50054V1.4736L9.08446 1.48554L9.06954 1.47659V1.49747L8.96492 1.57818C8.5644 1.9249 5.76373 2.25668 5.38712 2.25668C4.23936 2.25668 3.17827 2.0325 2.31147 1.64991C1.5971 2.77676 1.18164 4.12777 1.18164 5.58041C1.18164 8.94301 3.47418 11.8124 6.48706 12.5686C6.48706 12.5686 8.52256 13.4504 9.06954 14.3022H9.10841C9.6524 13.4534 11.6879 12.5716 11.6879 12.5716C14.6978 11.8154 16.9933 8.94899 16.9933 5.58639C16.9933 4.13076 16.5779 2.77975 15.8605 1.65291C14.9967 2.03549 13.9356 2.25967 12.7848 2.25967C12.4082 2.25967 9.61055 1.92789 9.21003 1.58117" fill="white"/>
<path d="M9.05722 14.3232L9.0511 14.3143C8.51907 13.4863 6.54933 12.6195 6.48059 12.5897C5.73633 12.4013 5.02794 12.0845 4.37336 11.6481C3.73372 11.2207 3.16582 10.6857 2.68459 10.067C2.20336 9.43927 1.82376 8.73986 1.56373 7.99261C1.29471 7.21847 1.15723 6.40547 1.15723 5.58051C1.15723 4.16971 1.54878 2.80674 2.29303 1.63805L2.30198 1.62015L2.32287 1.6291C3.21658 2.02364 4.27766 2.23287 5.38657 2.23287C5.77216 2.23287 8.55488 1.90408 8.94943 1.56036L9.04807 1.48866V1.43189L9.08396 1.45874L9.12581 1.42584V1.49157L9.22444 1.56633C9.61899 1.90707 12.4017 2.23884 12.7873 2.23884C13.8962 2.23884 14.9573 2.02962 15.851 1.63209L15.8689 1.62314L15.8808 1.64104C16.6221 2.80973 17.0137 4.17569 17.0137 5.58648C17.0137 6.40845 16.8792 7.22145 16.6102 7.9956C16.3501 8.74583 15.9705 9.44227 15.4863 10.0699C15.0081 10.6917 14.4402 11.2237 13.7975 11.6511C13.1459 12.0905 12.4375 12.4043 11.6933 12.5926C11.6245 12.6226 9.65183 13.4923 9.12875 14.3143L9.1198 14.3232H9.05722ZM2.32008 1.6769C1.59077 2.83661 1.2022 4.18464 1.2022 5.58049C1.2022 6.40246 1.3397 7.20649 1.60571 7.97765C1.86576 8.7219 2.24236 9.41535 2.7206 10.04C3.68604 11.2864 5.0251 12.1772 6.49268 12.5448L6.49574 12.5479C6.50186 12.5479 7.01284 12.772 7.58373 13.0948C8.34592 13.5253 8.85105 13.9258 9.0812 14.2785H9.09612C9.32627 13.9258 9.82842 13.5282 10.5906 13.0978C11.1615 12.775 11.6726 12.5538 11.6756 12.5509H11.6817C13.1493 12.1802 14.4884 11.2895 15.4508 10.0431C15.932 9.41841 16.3087 8.72497 16.5657 7.98071C16.8347 7.20956 16.9692 6.40552 16.9692 5.58654C16.9692 4.1907 16.5836 2.83967 15.8513 1.68294C14.9547 2.0745 13.8966 2.28373 12.7876 2.28373C12.5993 2.28373 11.8103 2.20303 11.0032 2.0745C10.3008 1.96391 9.41608 1.79055 9.1949 1.59925L9.08431 1.51556L8.97969 1.59626C8.75851 1.78456 7.87377 1.95793 7.17136 2.07151C6.36434 2.19705 5.57525 2.28074 5.38695 2.28074C4.27804 2.28074 3.21994 2.07151 2.32026 1.67697" fill="white"/>
<path d="M11.7236 1.99072L12.8505 2.04153L11.359 4.68677L12.7399 4.27429L9.0515 10.7335L8.65097 9.42729L7.38963 11.6511L7.82303 11.935L7.08476 12.1861L7.06984 12.213L7.05492 12.1951L6.22995 12.4761L6.15527 10.8322L6.54981 11.0952L8.82741 7.10791L9.22793 8.42604L10.7314 5.7539L9.35347 6.18132" fill="#E3361D"/>
<path d="M12.3034 10.8201L12.0822 11.403C12.0433 11.5016 12.0135 11.5704 11.9895 11.6033L11.9118 11.6541L11.8401 11.6122C11.8252 11.5943 11.7953 11.5315 11.7445 11.4209C11.6966 11.3103 11.6578 11.2117 11.6249 11.128L11.3798 10.4824C11.3469 10.3927 11.3111 10.3479 11.2752 10.3479C11.2363 10.3479 11.2154 10.3867 11.2095 10.4615C11.2005 10.6348 11.1975 10.7902 11.1975 10.9367C11.1975 11.0862 11.2036 11.1878 11.2154 11.2416L11.2483 11.3133C11.2633 11.3282 11.3021 11.3522 11.3649 11.391C11.4068 11.4149 11.4276 11.4598 11.4276 11.5195C11.4276 11.6809 11.2513 11.7616 10.8956 11.7616C10.5967 11.7616 10.4473 11.6839 10.4473 11.5255C10.4473 11.4866 10.4562 11.4568 10.4711 11.4388C10.4861 11.4209 10.5249 11.391 10.5907 11.3551C10.6326 11.3342 10.6594 11.3043 10.6714 11.2684C10.6863 11.2296 10.6983 11.1549 10.7103 11.0473C10.7192 10.9307 10.7312 10.7424 10.7402 10.4764C10.7491 10.2133 10.7551 9.98617 10.7551 9.79787C10.7551 9.55875 10.7402 9.40034 10.7103 9.31664L10.6714 9.25091C10.6565 9.23599 10.6295 9.21801 10.5907 9.19414C10.504 9.14631 10.4592 9.08055 10.4592 9.00284C10.4592 8.95203 10.4741 8.9072 10.507 8.86236C10.5399 8.8205 10.5847 8.79066 10.6385 8.77568C10.6923 8.75479 10.7641 8.73979 10.8567 8.72785C10.9464 8.71293 11.0241 8.70696 11.0869 8.70398C11.2453 8.70398 11.3559 8.7189 11.4216 8.7518L11.4964 8.80858C11.5143 8.83551 11.5412 8.88334 11.5771 8.96102L11.9627 9.79494C12.0045 9.8876 12.0314 9.9414 12.0494 9.96232L12.1151 9.99224L12.1808 9.95934C12.1987 9.93837 12.2227 9.89659 12.2465 9.83678L12.5096 9.23899L12.5723 9.08954C12.6321 8.94607 12.6919 8.84743 12.7517 8.8026C12.7995 8.76075 12.8712 8.73389 12.9699 8.71891C13.0266 8.78464 13.0894 8.84445 13.1492 8.93113C13.3136 9.16427 13.3106 9.51696 13.4451 9.69631C13.4361 9.82782 13.4332 9.97129 13.4332 10.1327C13.4332 10.5003 13.4481 10.8261 13.478 11.1041C13.4841 11.1729 13.4959 11.2177 13.5109 11.2416C13.5258 11.2685 13.5677 11.3043 13.6305 11.3552C13.6753 11.3881 13.6962 11.4359 13.6962 11.4927C13.6962 11.5943 13.6394 11.666 13.5258 11.7079C13.4661 11.7318 13.4033 11.7468 13.3375 11.7527C13.2718 11.7617 13.1731 11.7647 13.0356 11.7647C12.8264 11.7647 12.674 11.7468 12.5694 11.7138C12.4558 11.675 12.399 11.6062 12.399 11.5136C12.399 11.4777 12.4079 11.4508 12.4229 11.4269C12.4378 11.4059 12.4737 11.3642 12.5364 11.3044C12.5693 11.2744 12.5902 11.2147 12.6022 11.128C12.6141 11.0413 12.6201 10.8919 12.6201 10.6856C12.6201 10.5691 12.6139 10.4914 12.6051 10.4555C12.5962 10.4196 12.5783 10.4017 12.5484 10.4017C12.5125 10.4017 12.4797 10.4286 12.4497 10.4854C12.4168 10.5422 12.369 10.6528 12.3033 10.8202" fill="black"/>
<path d="M13.0358 11.8603C12.8146 11.8603 12.6532 11.8394 12.5396 11.8005C12.3363 11.7318 12.3065 11.5913 12.3065 11.5136C12.3065 11.4598 12.3184 11.412 12.3423 11.3761C12.3573 11.3552 12.3842 11.3193 12.4709 11.2356C12.4739 11.2326 12.4978 11.2118 12.5097 11.1161C12.5187 11.0324 12.5276 10.8859 12.5276 10.6827C12.5276 10.6199 12.5246 10.5781 12.5215 10.5452C12.5006 10.587 12.4588 10.6737 12.393 10.853L12.1688 11.4389C12.127 11.5465 12.0941 11.6152 12.0672 11.6571C12.0134 11.7318 11.9536 11.7467 11.9118 11.7467C11.8729 11.7467 11.8131 11.7348 11.7653 11.669C11.7504 11.6511 11.7264 11.6122 11.6577 11.4598C11.6099 11.3462 11.568 11.2476 11.5352 11.1609L11.302 10.5392C11.2959 10.6797 11.2931 10.8142 11.2931 10.9367C11.2931 11.1101 11.2992 11.1878 11.308 11.2207L11.3169 11.2475C11.3259 11.2537 11.3469 11.2685 11.4156 11.3103C11.4634 11.3402 11.5202 11.4 11.5202 11.5195C11.5202 11.6032 11.4873 11.7168 11.3319 11.7885C11.2303 11.8334 11.0868 11.8573 10.8955 11.8573C10.4471 11.8573 10.3545 11.678 10.3545 11.5255C10.3545 11.4598 10.3694 11.412 10.3993 11.3791C10.4143 11.3581 10.4472 11.3283 10.5428 11.2745H10.5459L10.5847 11.2356V11.2325C10.5909 11.2206 10.6026 11.1728 10.6147 11.0382C10.6266 10.9247 10.6355 10.7364 10.6476 10.4733C10.6565 10.2103 10.6595 9.98314 10.6595 9.79782C10.6595 9.51985 10.6386 9.40029 10.6206 9.34947L10.6027 9.31657C10.5997 9.31351 10.5908 9.30463 10.543 9.27471C10.3965 9.19102 10.3666 9.08043 10.3666 9.00272C10.3666 8.93102 10.3876 8.86522 10.4323 8.80545C10.4772 8.74867 10.537 8.70681 10.6087 8.68589C10.6684 8.66492 10.7462 8.64702 10.8418 8.63508C10.9375 8.61718 11.0182 8.61121 11.0869 8.61121C11.2603 8.61121 11.3828 8.62911 11.4605 8.665C11.5084 8.68596 11.5442 8.71581 11.5711 8.75168C11.5861 8.77264 11.613 8.81144 11.6638 8.92205L12.0464 9.75597C12.0852 9.83668 12.1032 9.87553 12.1151 9.89048C12.1212 9.88152 12.139 9.85459 12.1629 9.80081L12.4229 9.20302L12.4857 9.05356C12.5514 8.89217 12.6202 8.78755 12.6919 8.72777C12.7547 8.67696 12.8384 8.64408 12.955 8.62614L13.0058 8.61719L13.0417 8.65905L13.0895 8.71284C13.1343 8.76066 13.1791 8.81148 13.227 8.87724C13.3196 9.01174 13.3645 9.17613 13.4033 9.32259C13.4362 9.44813 13.4661 9.56769 13.5199 9.63643L13.5408 9.66635L13.5377 9.69925C13.5316 9.83077 13.5258 9.97424 13.5258 10.1327C13.5258 10.4973 13.5407 10.8201 13.5706 11.0951C13.5796 11.1639 13.5885 11.1878 13.5916 11.1937C13.5947 11.1999 13.6155 11.2237 13.6872 11.2804C13.7559 11.3312 13.7918 11.406 13.7918 11.4926C13.7918 11.5733 13.7619 11.7228 13.5587 11.7975C13.493 11.8214 13.4212 11.8394 13.3495 11.8483C13.2778 11.8544 13.1761 11.8603 13.0356 11.8603M12.6949 11.1399C12.68 11.2505 12.6501 11.3252 12.6022 11.3731C12.5245 11.4478 12.5066 11.4717 12.5006 11.4777V11.4807L12.4945 11.5136C12.4945 11.5375 12.4945 11.5853 12.6021 11.6242C12.6918 11.6541 12.8382 11.672 13.0355 11.672C13.167 11.672 13.2656 11.6659 13.3284 11.6601C13.3852 11.654 13.439 11.6392 13.4898 11.6212L13.4929 11.6182C13.5885 11.5853 13.6035 11.5345 13.6035 11.4926L13.5706 11.4269C13.4959 11.3701 13.454 11.3283 13.4301 11.2954V11.2923C13.4062 11.2535 13.3912 11.1997 13.3823 11.113C13.3523 10.832 13.3374 10.5032 13.3374 10.1326C13.3374 9.98315 13.3405 9.84566 13.3494 9.72311C13.2866 9.62448 13.2537 9.50193 13.2208 9.3734C13.1849 9.23591 13.1461 9.09244 13.0714 8.98484C13.0325 8.92806 12.9937 8.8862 12.9518 8.84136L12.9339 8.82346C12.8682 8.8354 12.8293 8.85636 12.8114 8.87427C12.7785 8.9012 12.7277 8.96394 12.6589 9.12534L12.5962 9.27777L12.3362 9.87557C12.3033 9.94436 12.2764 9.99214 12.2495 10.022C12.2046 10.0758 12.1508 10.0878 12.115 10.0878C12.0582 10.0878 12.0074 10.0639 11.9745 10.019C11.9596 10.0011 11.9356 9.9622 11.8759 9.83366L11.4903 8.99973C11.4484 8.90409 11.4275 8.8742 11.4216 8.86523L11.3827 8.83531C11.3438 8.82039 11.2661 8.79942 11.0868 8.79942C11.03 8.79942 10.9553 8.80555 10.8716 8.82039H10.8685C10.7848 8.83233 10.7191 8.84725 10.6683 8.86225V8.86531C10.6324 8.87426 10.6025 8.89523 10.5816 8.92208L10.5547 9.00279C10.5547 9.03271 10.5637 9.0715 10.6354 9.11338H10.6385C10.6863 9.14031 10.7162 9.16419 10.7371 9.18508C10.761 9.20895 10.782 9.24185 10.7969 9.28072V9.28378C10.8328 9.37943 10.8507 9.54681 10.8507 9.79789C10.8507 9.98619 10.8445 10.2163 10.8328 10.4824C10.8238 10.7484 10.8149 10.9367 10.8028 11.0562C10.7909 11.1758 10.779 11.2535 10.761 11.2984C10.7371 11.3581 10.6953 11.406 10.6354 11.4388C10.5757 11.4717 10.5518 11.4896 10.5458 11.4986L10.5427 11.5254C10.5427 11.5703 10.5606 11.5971 10.6025 11.6211C10.6473 11.6421 10.731 11.6689 10.8954 11.6689C11.275 11.6689 11.3318 11.5733 11.3318 11.5195C11.3318 11.4806 11.3198 11.4746 11.3169 11.4716C11.2242 11.4179 11.1973 11.3939 11.1824 11.379L11.1793 11.3759C11.1554 11.3521 11.1374 11.3162 11.1255 11.2683V11.2622C11.1106 11.2024 11.1016 11.0978 11.1016 10.9364C11.1016 10.79 11.1078 10.6286 11.1166 10.4582C11.1255 10.2729 11.2301 10.2519 11.275 10.2519C11.3945 10.2519 11.4483 10.3954 11.4693 10.4492L11.7114 11.0948C11.7443 11.1785 11.7831 11.2742 11.8309 11.3818C11.8817 11.4983 11.9026 11.5372 11.9116 11.5492C11.9236 11.5342 11.9475 11.4864 11.9953 11.3698L12.2165 10.784C12.2822 10.6106 12.3301 10.497 12.3659 10.4373C12.4168 10.3506 12.4765 10.3057 12.5483 10.3057C12.635 10.3057 12.6798 10.3715 12.6977 10.4313C12.7038 10.4612 12.7126 10.518 12.7126 10.6824C12.7126 10.8976 12.7065 11.047 12.6947 11.1397" fill="white"/>
<path fill-rule="evenodd" clip-rule="evenodd" d="M14.4136 5.171C14.3508 5.171 14.309 5.19487 14.2911 5.23673C14.2731 5.28156 14.2672 5.38319 14.2672 5.54459C14.2672 5.7867 14.2791 5.97799 14.306 6.11249C14.315 6.15136 14.3269 6.18128 14.3419 6.20217C14.3598 6.22313 14.3898 6.24999 14.4376 6.27988C14.4973 6.31875 14.5392 6.36357 14.5631 6.41737L14.4914 6.40245V6.73422C14.4615 6.7581 14.4226 6.78205 14.3778 6.79697C14.2702 6.83882 14.0999 6.8627 13.8697 6.87165L13.8728 6.83278C13.8728 6.38742 13.2959 6.33362 12.8506 6.33362H12.8147C12.8356 6.30975 12.8685 6.27983 12.9133 6.24694C12.985 6.19315 13.0329 6.12738 13.0598 6.05266C13.0836 5.97495 13.1016 5.84642 13.1136 5.65811C13.1225 5.52361 13.1255 5.0364 13.1255 4.19949C13.1255 3.93348 13.1136 3.75413 13.0896 3.65849C13.0686 3.56284 13.0179 3.49111 12.9431 3.44927C12.8684 3.40741 12.8206 3.37155 12.7967 3.33867C12.7698 3.30576 12.7578 3.26095 12.7578 3.20715C12.7578 3.13546 12.7817 3.07564 12.8266 3.02483C12.8744 2.97104 12.9432 2.93216 13.0269 2.90527C13.0986 2.8843 13.1942 2.87535 13.3198 2.87535C13.3736 2.87535 13.5111 2.8843 13.7293 2.90221C13.7681 2.90833 13.8339 2.90833 13.9236 2.90833C14.073 2.90833 14.2703 2.89938 14.5184 2.87543C14.6768 2.86349 14.7874 2.85446 14.8501 2.85446C15.2028 2.85446 15.4958 2.9531 15.7259 3.15037C15.9351 3.32672 16.0397 3.57481 16.0397 3.89164C16.0397 4.06499 16.0039 4.2264 15.9321 4.37286C15.8574 4.51633 15.7588 4.62393 15.6303 4.69567C15.5765 4.72559 15.5525 4.7614 15.5525 4.80626C15.5525 4.86005 15.5914 4.9049 15.6721 4.94076C15.8455 5.01246 15.974 5.1231 16.0547 5.26955C16.1354 5.41601 16.1922 5.64317 16.2281 5.94506C16.243 6.07358 16.2639 6.15429 16.2938 6.19314C16.3206 6.22903 16.3864 6.26484 16.4881 6.29776C16.521 6.3097 16.5478 6.33663 16.5688 6.37252C16.5897 6.41139 16.6017 6.45023 16.6017 6.49805C16.6017 6.55483 16.5808 6.61761 16.5419 6.67739C16.5 6.73715 16.4492 6.78499 16.3865 6.81787C16.2819 6.87465 16.1444 6.91053 15.98 6.92249C16.0009 6.86571 16.0129 6.80591 16.0129 6.73717C16.0129 6.45023 15.6393 6.39344 15.3523 6.39344C15.2208 6.39344 15.1102 6.40836 15.0056 6.41731C14.9907 6.38142 14.9757 6.34263 14.9637 6.30373C14.9189 6.16922 14.8681 5.96 14.8113 5.67604C14.7724 5.49372 14.7216 5.36818 14.6619 5.29346C14.6051 5.21877 14.5214 5.17689 14.4138 5.17091M14.2703 3.7093L14.2404 4.37883V4.4027C14.2404 4.47142 14.2493 4.51927 14.2673 4.5402C14.2852 4.56407 14.3211 4.57609 14.3719 4.57609C14.5184 4.57609 14.623 4.53125 14.6918 4.44756C14.7575 4.3579 14.7904 4.2204 14.7904 4.02911C14.7904 3.65847 14.6768 3.47316 14.4496 3.47316C14.3839 3.47316 14.3391 3.49107 14.3121 3.52695C14.2883 3.55986 14.2733 3.62262 14.2703 3.7093Z" fill="black"/>
<path d="M15.8368 7.03012L15.8906 6.88964C15.9116 6.84181 15.9205 6.791 15.9205 6.7372C15.9205 6.68341 15.9026 6.6027 15.7561 6.5459C15.6605 6.51002 15.52 6.48913 15.3526 6.48913C15.2331 6.48913 15.1344 6.49808 15.0388 6.51009L14.9461 6.51621L14.9192 6.45347C14.9043 6.4146 14.8893 6.37575 14.8744 6.33092C14.8295 6.19343 14.7787 5.98121 14.7189 5.69726C14.6741 5.48803 14.6233 5.39537 14.5904 5.35054C14.5485 5.29973 14.4918 5.26983 14.4111 5.26685L14.3782 5.27297C14.3751 5.28789 14.3603 5.34765 14.3603 5.54497C14.3603 5.78109 14.3722 5.96641 14.3991 6.09494L14.417 6.14276C14.4201 6.14888 14.4379 6.16663 14.4887 6.19954C14.5635 6.24736 14.6202 6.30714 14.6501 6.37887L14.7218 6.53729L14.5873 6.5164V6.77943L14.5514 6.80629C14.5156 6.83919 14.4678 6.86604 14.411 6.88699C14.2914 6.93183 14.1151 6.95868 13.8729 6.96769L13.7713 6.97075L13.7774 6.83027C13.7774 6.65691 13.6788 6.42676 12.8509 6.42676L12.5908 6.43288L12.7463 6.26849C12.7701 6.24155 12.806 6.21171 12.8538 6.17284C12.9136 6.128 12.9495 6.08019 12.9704 6.02339C12.9853 5.97557 13.0063 5.87394 13.0182 5.65575C13.0272 5.52124 13.0302 5.03404 13.0302 4.20011C13.0302 3.8803 13.0153 3.73981 13.0003 3.68004C12.9824 3.61125 12.9495 3.56346 12.8957 3.53058C12.809 3.48276 12.7552 3.44092 12.7223 3.39907L12.7192 3.39601C12.6833 3.3452 12.6654 3.28243 12.6654 3.20771C12.6654 3.11505 12.6954 3.03136 12.7581 2.96262C12.8179 2.89689 12.8986 2.84604 13.0002 2.81615C13.0809 2.79228 13.1855 2.78026 13.32 2.78026C13.3768 2.78026 13.5143 2.78922 13.7355 2.81018C13.7744 2.81325 13.8371 2.8163 13.9238 2.8163C14.0703 2.8163 14.2675 2.80437 14.5096 2.78042C14.671 2.76848 14.7846 2.76251 14.8504 2.76251C15.224 2.76251 15.5408 2.86713 15.7889 3.07934C16.0191 3.27661 16.1356 3.54861 16.1356 3.89234C16.1356 4.08064 16.0938 4.257 16.0161 4.41541C15.9354 4.57383 15.8188 4.69638 15.6783 4.78007L15.6454 4.80693C15.6454 4.81588 15.6663 4.83386 15.7112 4.85475C15.9024 4.93545 16.0459 5.05801 16.1386 5.22539C16.2252 5.3838 16.285 5.61694 16.3209 5.93677C16.3388 6.08621 16.3628 6.12806 16.3687 6.13702C16.3748 6.14314 16.4016 6.17291 16.5182 6.21178H16.5212C16.575 6.22968 16.6169 6.26855 16.6498 6.32834C16.6797 6.37915 16.6946 6.43595 16.6946 6.49872C16.6946 6.57643 16.6707 6.65415 16.6199 6.72887V6.73193C16.5721 6.80363 16.5093 6.86046 16.4316 6.9023C16.315 6.96504 16.1656 7.00393 15.9862 7.01887L15.8368 7.03012ZM15.3526 6.30081C15.5439 6.30081 15.7053 6.32468 15.8249 6.36952C15.9534 6.42033 16.1088 6.52495 16.1088 6.73717L16.1027 6.81193C16.1983 6.79701 16.279 6.77007 16.3418 6.73421C16.3926 6.70735 16.4315 6.67146 16.4614 6.62661C16.4913 6.58177 16.5062 6.53694 16.5062 6.49808L16.4883 6.42037H16.4852L16.4583 6.38747C16.3328 6.34561 16.258 6.30377 16.2192 6.24997H16.2161C16.1773 6.19618 16.1534 6.1065 16.1354 5.95706C16.1025 5.66712 16.0458 5.45192 15.971 5.31443C15.9023 5.1859 15.7917 5.09324 15.6363 5.02749C15.4868 4.96474 15.4569 4.87206 15.4569 4.8063C15.4569 4.7525 15.4778 4.67479 15.5825 4.615C15.6961 4.54927 15.7827 4.45659 15.8455 4.32806C15.9112 4.19953 15.9441 4.05009 15.9441 3.89167C15.9441 3.60174 15.8545 3.38355 15.6662 3.22214C15.4539 3.03982 15.179 2.95015 14.8502 2.95015C14.7874 2.95015 14.6798 2.95627 14.5274 2.96805C14.2793 2.99192 14.076 3.00394 13.9236 3.00394C13.8309 3.00394 13.7652 3.00088 13.7203 2.99782C13.5051 2.97693 13.3706 2.9679 13.3198 2.9679C13.2032 2.9679 13.1136 2.97685 13.0538 2.99782C12.9851 3.01572 12.9342 3.04862 12.8984 3.08749C12.8685 3.12039 12.8535 3.15918 12.8535 3.20705L12.8714 3.28476C12.8804 3.29371 12.9073 3.32065 12.988 3.36546V3.36852C13.0896 3.4253 13.1524 3.51498 13.1823 3.63454C13.2062 3.73915 13.2212 3.92447 13.2212 4.19945C13.2212 5.04832 13.215 5.52656 13.2062 5.66405C13.1973 5.86132 13.1763 5.99882 13.1465 6.08251C13.1286 6.14227 13.0987 6.1931 13.0568 6.24391C13.2182 6.25003 13.4006 6.27383 13.559 6.32462C13.7323 6.38736 13.9356 6.51292 13.9625 6.77296C14.1329 6.76103 14.2614 6.74006 14.3451 6.71022L14.3989 6.68336V6.36653L14.3869 6.35758C14.3301 6.32169 14.2913 6.28879 14.2703 6.25894C14.2434 6.22604 14.2255 6.18418 14.2136 6.13341V6.13034C14.1866 5.98687 14.1717 5.79558 14.1717 5.54451C14.1717 5.31734 14.1896 5.24262 14.2046 5.20376V5.2007C14.2225 5.15586 14.2763 5.07815 14.4138 5.07815H14.4169C14.5544 5.08427 14.662 5.13791 14.7367 5.23358C14.8054 5.32026 14.8593 5.46074 14.9011 5.65801C14.9609 5.93599 15.0117 6.14223 15.0536 6.27374L15.0685 6.31559C15.1552 6.30664 15.2448 6.30067 15.3524 6.30067" fill="white"/>
<path d="M14.3717 4.66886C14.291 4.66886 14.2282 4.64499 14.1924 4.60007L14.1893 4.59701C14.1594 4.55516 14.1475 4.49538 14.1475 4.40272V4.37281L14.1744 3.70626C14.1775 3.59567 14.1983 3.52095 14.2401 3.46714C14.282 3.41037 14.3537 3.38046 14.4494 3.38046C14.6466 3.38046 14.8828 3.49105 14.8828 4.02907C14.8828 4.24129 14.8439 4.39672 14.7662 4.50432C14.6795 4.61491 14.548 4.66872 14.3716 4.66872M14.3417 4.47742L14.3716 4.48048C14.4882 4.48048 14.5689 4.45056 14.6167 4.38783C14.6675 4.31904 14.6944 4.19653 14.6944 4.02915C14.6944 3.56885 14.5151 3.56885 14.4494 3.56885C14.4135 3.56885 14.3926 3.5778 14.3866 3.58377C14.3835 3.58683 14.3657 3.61667 14.3627 3.7123L14.3358 4.37884V4.40271C14.3358 4.44457 14.3389 4.46844 14.3419 4.47747" fill="white"/>
<path d="M15.3999 7.16165L14.2282 9.37051C14.1565 9.50799 14.0877 9.60065 14.022 9.65445C13.9592 9.70526 13.8785 9.72921 13.7798 9.72921C13.6961 9.72921 13.6244 9.71429 13.5587 9.68139C13.5079 9.65446 13.469 9.62461 13.4421 9.59172C13.4152 9.55882 13.3793 9.49607 13.3375 9.4064L12.2943 7.2663C12.2346 7.14375 12.1837 7.06304 12.1359 7.0212C12.0881 6.97636 12.0223 6.94652 11.9356 6.93153C11.834 6.91363 11.7832 6.85678 11.7832 6.75518C11.7832 6.63263 11.8729 6.53998 12.0522 6.47422C12.2286 6.40849 12.4856 6.37558 12.8204 6.37558C13.1671 6.37558 13.4212 6.39945 13.5856 6.45034C13.747 6.49816 13.8277 6.57587 13.8277 6.6775C13.8277 6.74323 13.7858 6.80602 13.6961 6.86281C13.6274 6.90765 13.5945 6.94651 13.5945 6.98536C13.5945 7.01827 13.6094 7.06905 13.6394 7.13481L13.9592 7.80434C14.004 7.90298 14.0578 7.9508 14.1146 7.9508C14.1714 7.9508 14.2222 7.92693 14.267 7.87309C14.3089 7.82229 14.3687 7.71766 14.4434 7.56522C14.5779 7.29024 14.6556 7.12584 14.6795 7.07802C14.7004 7.02721 14.7124 6.98836 14.7124 6.96145C14.7124 6.90766 14.6736 6.85983 14.5929 6.82396C14.5032 6.77912 14.4584 6.72533 14.4584 6.65957C14.4584 6.47126 14.7304 6.37561 15.2743 6.37561C15.5434 6.37561 15.7347 6.39658 15.8452 6.43835C15.9558 6.47722 16.0126 6.54595 16.0126 6.64459C16.0126 6.76116 15.9409 6.8299 15.7944 6.84784C15.6898 6.85679 15.6241 6.87477 15.5912 6.89268C15.5374 6.93155 15.4746 7.02117 15.3999 7.16165Z" fill="black"/>
<path d="M13.7799 9.82484C13.6813 9.82484 13.5946 9.80387 13.5169 9.76508C13.4542 9.73217 13.4063 9.69636 13.3704 9.65449L13.3674 9.65142C13.3345 9.60957 13.2986 9.54382 13.2508 9.44818L12.2077 7.30509C12.1419 7.17058 12.0971 7.11379 12.0732 7.08988L12.0701 7.08682C12.0372 7.0569 11.9864 7.03601 11.9206 7.02407C11.7742 7.0002 11.6875 6.90152 11.6875 6.75507C11.6875 6.64148 11.7473 6.48606 12.0193 6.38742C12.2076 6.31572 12.4706 6.28281 12.8203 6.28281C13.179 6.28281 13.439 6.30668 13.6124 6.36052C13.7529 6.40237 13.9233 6.49204 13.9233 6.67735C13.9233 6.77898 13.8635 6.86566 13.7469 6.94337C13.708 6.96724 13.6931 6.98522 13.6901 6.99119C13.6901 7.00313 13.6963 7.03305 13.726 7.09281L14.0458 7.76234C14.0817 7.84006 14.1086 7.85799 14.1146 7.85799C14.1325 7.85799 14.1594 7.85187 14.1953 7.81315C14.2191 7.78025 14.27 7.70555 14.3596 7.52322C14.4912 7.25123 14.5719 7.08683 14.5928 7.03901C14.6168 6.98231 14.6168 6.9614 14.6168 6.9614C14.6168 6.95244 14.5989 6.93148 14.5511 6.9076C14.3987 6.83285 14.3658 6.73125 14.3658 6.65952C14.3658 6.56387 14.4106 6.43534 14.6318 6.35763C14.7783 6.30682 14.9905 6.28288 15.2744 6.28288C15.5584 6.28288 15.7557 6.30376 15.8782 6.3486C15.9649 6.37852 16.1084 6.45919 16.1084 6.64451C16.1084 6.7282 16.0785 6.79993 16.0217 6.85075C15.9709 6.89857 15.8991 6.92846 15.8065 6.94042C15.678 6.95534 15.6481 6.97034 15.6451 6.97332C15.6272 6.98526 15.5734 7.03309 15.4807 7.20647L14.312 9.41532C14.2343 9.56477 14.1596 9.6664 14.0818 9.72617V9.72923C14.0011 9.79198 13.8965 9.82484 13.7799 9.82484ZM13.5139 9.53196C13.5349 9.55583 13.5647 9.57679 13.6006 9.59768C13.6544 9.62156 13.7112 9.63656 13.78 9.63656C13.8547 9.63656 13.9175 9.61865 13.9653 9.57978C14.0012 9.54986 14.0639 9.48115 14.1446 9.32871L15.3163 7.11986C15.4 6.95845 15.4717 6.8628 15.5405 6.81498C15.5853 6.78506 15.66 6.76716 15.7856 6.75224C15.9201 6.73731 15.9201 6.67755 15.9201 6.64464C15.9201 6.60576 15.9051 6.55796 15.8125 6.52508C15.7438 6.5012 15.5943 6.4683 15.2744 6.4683C14.8231 6.47136 14.5541 6.54 14.5541 6.6596C14.5541 6.68645 14.581 6.71339 14.6318 6.73731C14.7753 6.80602 14.8052 6.89572 14.8052 6.96148C14.8052 7.00334 14.7932 7.05115 14.7663 7.11392V7.11698C14.7424 7.1648 14.6647 7.32621 14.5302 7.60718C14.4495 7.76858 14.3867 7.87618 14.3389 7.93297C14.2612 8.02563 14.1745 8.04656 14.1147 8.04656C14.0191 8.04656 13.9384 7.97777 13.8756 7.84629L13.5558 7.17377C13.5169 7.09606 13.502 7.03329 13.502 6.98547C13.502 6.87488 13.6096 6.80613 13.6455 6.78222C13.6873 6.75834 13.7351 6.71649 13.7351 6.67761C13.7351 6.62083 13.6754 6.57598 13.5588 6.54011C13.4033 6.49229 13.1553 6.46842 12.8205 6.46842C12.4977 6.46842 12.2526 6.50132 12.0852 6.56406C11.879 6.63875 11.879 6.72845 11.879 6.75536C11.879 6.80318 11.8879 6.83004 11.9507 6.83904C12.0583 6.85695 12.139 6.89582 12.1987 6.95263C12.2555 7.00344 12.3153 7.09311 12.3781 7.22463L13.4212 9.36473C13.4691 9.46636 13.4989 9.51119 13.5139 9.53211" fill="white"/>
<path d="M9.20994 1.58124L9.10532 1.50053V1.4736L9.08443 1.48554L9.06951 1.47659V1.49747L8.9649 1.57818C8.56437 1.9249 5.76371 2.25668 5.3871 2.25668C4.23933 2.25668 3.17825 2.0325 2.31145 1.64991C1.59708 2.77676 1.18162 4.12777 1.18162 5.58041C1.18162 8.94301 3.47416 11.8124 6.48704 12.5686C6.48704 12.5686 8.52253 13.4504 9.06951 14.3022H9.10838C9.65238 13.4534 11.6879 12.5716 11.6879 12.5716C14.6978 11.8154 16.9933 8.94899 16.9933 5.58639C16.9933 4.13076 16.5778 2.77975 15.8605 1.6529C14.9967 2.03549 13.9356 2.25967 12.7848 2.25967C12.4082 2.25967 9.61053 1.92789 9.21001 1.58117M9.10539 0.00299145C9.84666 0.648609 11.1469 1.08201 12.6264 1.08201C14.0163 1.08201 15.2477 0.699426 16.001 0.113583C17.3191 1.57519 18.1142 3.46123 18.1142 5.52064C18.1142 9.5707 15.1132 12.5387 11.0303 14.0751C10.2173 14.38 9.2937 15.731 9.12034 15.9671V16L9.10542 15.9851L9.09349 16V15.9671C8.92013 15.731 7.99654 14.38 7.18354 14.0751C3.1006 12.5387 0.0966797 9.5707 0.0966797 5.52064C0.0966797 3.46123 0.891745 1.57519 2.21287 0.113583C2.96609 0.699426 4.19755 1.08201 5.58742 1.08201C7.06696 1.08201 8.36716 0.64861 9.10245 0L9.10539 0.00299145Z" fill="#C0AE33"/>
<path d="M3.46484 4.01129V7.91489L3.65016 8.11814L4.09851 8.1779L4.60962 8.10322L4.84575 8.1899L5.09384 8.35131L5.35687 8.16599L5.85303 8.14211L6.1878 8.20188L6.58832 8.07933L6.69891 7.61902V4.01134" fill="#E3361D"/>
<path d="M5.076 4.14875H3.58151V6.49808L3.58457 7.87002C3.61747 7.96268 3.63538 8.01649 3.71907 8.05534C4.11063 8.23767 4.60082 7.83415 4.98341 8.148C5.02825 8.18388 5.05212 8.20776 5.09101 8.24664C5.12988 8.20777 5.15376 8.18389 5.19862 8.148C5.58121 7.83415 6.07139 8.23767 6.46295 8.05534C6.54664 8.01647 6.56457 7.96268 6.59745 7.87002L6.60051 6.49808V4.14875M5.09407 2.54367V2.54979C5.13294 2.57971 5.15682 2.59762 5.20167 2.62455C5.27643 2.67237 5.36308 2.64544 5.4109 2.7202C5.45276 2.78593 5.47365 2.8547 5.42881 2.91448C5.40493 2.94738 5.38098 2.97126 5.33913 2.97126C5.28833 2.97126 5.2943 2.89056 5.24349 2.87561C5.14187 2.84868 5.15382 3.04598 5.19566 3.14163C5.24349 3.24624 5.43179 3.38971 5.46169 3.27613C5.47362 3.2283 5.43177 3.20145 5.44072 3.15059C5.45564 3.06989 5.50645 2.99816 5.59017 3.00115C5.62904 3.00421 5.65291 3.01607 5.67984 3.04002L5.72169 3.09083L5.73661 3.16854C5.73661 3.22233 5.72169 3.25821 5.68282 3.29407C5.75758 3.32697 5.8233 3.32399 5.89504 3.28512C5.95778 3.25222 5.99368 3.21641 6.01161 3.14763L6.02056 3.0819L6.00564 3.04004L5.96976 2.9952L5.93387 2.98908C5.88008 2.98296 5.83524 3.019 5.79638 2.98013C5.7605 2.94126 5.7605 2.8815 5.79638 2.83965C5.85614 2.77094 5.94881 2.79779 6.04446 2.76194C6.1072 2.735 6.14011 2.72008 6.19989 2.68718C6.23876 2.74992 6.23578 2.80376 6.30451 2.84261C6.37926 2.88447 6.45993 2.92929 6.4689 3.02494C6.47196 3.06082 6.47502 3.08768 6.45398 3.11759C6.4301 3.15348 6.3972 3.17735 6.35534 3.16542L6.30453 3.11461L6.28662 3.08767L6.24775 3.05179L6.20291 3.08767L6.17299 3.14445L6.15807 3.21913C6.15807 3.26099 6.16703 3.28792 6.19098 3.32375C6.24178 3.40445 6.31651 3.44032 6.40618 3.42836C6.38529 3.38054 6.38529 3.34168 6.40618 3.29386C6.42409 3.25797 6.44207 3.23708 6.47788 3.22216L6.55858 3.21604L6.60939 3.23693L6.64229 3.28475C6.66318 3.32661 6.6602 3.35645 6.65125 3.40133C6.63931 3.45512 6.62439 3.48801 6.58552 3.52387C6.6602 3.57766 6.74094 3.58363 6.82463 3.53879C6.91131 3.49097 7.03087 3.35049 6.9412 3.31164L6.90233 3.30268C6.85749 3.29373 6.81863 3.33857 6.78277 3.30574C6.7439 3.27284 6.77083 3.22205 6.78889 3.17423C6.83672 3.03972 7.00709 3.13834 7.14159 3.09352L7.22528 3.0636L6.81878 3.9304V7.90574C6.79192 7.97453 6.77096 8.01334 6.7321 8.07611C6.4063 8.60217 5.59928 7.9446 5.17485 8.39892C5.13896 8.43481 5.12106 8.4557 5.09116 8.49457C5.06124 8.4557 5.04035 8.43481 5.00747 8.39892C4.58303 7.9446 3.77601 8.60217 3.45021 8.07611C3.41134 8.01337 3.39045 7.97449 3.36353 7.90574V3.9304L2.95703 3.0636L3.04072 3.09352C3.17522 3.13836 3.3456 3.03973 3.39342 3.17422C3.41132 3.22205 3.43826 3.27286 3.39954 3.30574C3.36365 3.33865 3.32486 3.29381 3.27998 3.30268L3.24409 3.31163C3.15143 3.3505 3.27103 3.49097 3.35768 3.53879C3.44136 3.58363 3.52207 3.57766 3.59679 3.52387C3.55792 3.48798 3.543 3.45516 3.53107 3.40133C3.52211 3.35649 3.51913 3.32657 3.54002 3.28475L3.57292 3.23693L3.62373 3.21604L3.70443 3.22216C3.74032 3.23708 3.75822 3.25805 3.77613 3.29386C3.79702 3.34168 3.79702 3.38054 3.77613 3.42836C3.8658 3.4403 3.94351 3.40449 3.99133 3.32375C4.01521 3.28786 4.02424 3.261 4.02424 3.21913L4.00932 3.14445L3.9794 3.08767L3.93456 3.05179L3.89569 3.08767L3.88077 3.11461L3.82697 3.16542C3.78512 3.17735 3.75222 3.15348 3.72834 3.11759C3.70745 3.08767 3.71043 3.06082 3.71341 3.02494C3.72237 2.92929 3.80309 2.88445 3.87781 2.84261C3.94659 2.80374 3.94353 2.74995 3.98242 2.68718C4.04218 2.72008 4.07508 2.735 4.13785 2.76194C4.2335 2.79783 4.32615 2.77089 4.38594 2.83965C4.42182 2.8815 4.42481 2.94127 4.38594 2.98013C4.34707 3.019 4.30224 2.98319 4.24844 2.98908L4.21255 2.9952L4.17667 3.04004L4.16473 3.0819L4.17085 3.14763C4.18876 3.21641 4.22464 3.25224 4.28742 3.28512C4.36218 3.32399 4.42491 3.32697 4.49963 3.29407C4.46076 3.25818 4.44584 3.22238 4.44584 3.16854L4.46076 3.09083L4.50262 3.04002C4.53254 3.01614 4.55343 3.00413 4.59229 3.00115C4.67598 2.99809 4.72679 3.06986 4.74173 3.15059C4.75069 3.2014 4.70883 3.2283 4.72085 3.27613C4.75076 3.38971 4.93904 3.24621 4.98686 3.14163C5.0317 3.04598 5.04065 2.84871 4.93904 2.87561C4.88823 2.89053 4.8942 2.97126 4.84339 2.97126C4.80153 2.97126 4.77766 2.94738 4.75372 2.91448C4.70888 2.85472 4.72984 2.78596 4.77162 2.7202C4.81945 2.64544 4.90613 2.67237 4.98085 2.62455C5.02569 2.59762 5.04957 2.57971 5.08845 2.54979V2.54367H5.09407Z" fill="#C0AE33"/>
<path d="M3.65918 3.96345C3.86243 3.7602 4.42734 3.61374 5.0909 3.61374C5.75445 3.61374 6.31936 3.7602 6.52261 3.96345H3.65918Z" fill="black"/>
<path d="M6.54396 3.97242H3.63867L3.65359 3.9575C3.86282 3.74528 4.4397 3.6048 5.09129 3.6048C5.74289 3.6048 6.31976 3.74528 6.52899 3.9575L6.54396 3.97242ZM3.68351 3.95451H6.49912C6.28093 3.75425 5.72199 3.62274 5.09131 3.62274C4.46064 3.62274 3.9017 3.75425 3.68351 3.95451Z" fill="black"/>
<path d="M5.97556 4.52838L5.93669 4.5941C5.88588 4.69872 5.85599 4.76448 5.86193 4.87805L5.86499 4.92886C5.89491 5.03048 6.03835 4.87507 6.11009 4.80333C6.15493 4.7555 6.1878 4.73454 6.22666 4.68377C6.19973 4.7495 6.17884 4.80333 6.15787 4.85713C6.11304 4.97071 6.11304 4.95875 6.08618 5.04244C6.06529 5.11116 6.13997 5.11116 6.2685 5.04856C6.30439 5.03364 6.42692 4.95591 6.45083 4.85727C6.49269 5.07248 6.38212 5.26975 6.17585 5.34746C6.13996 5.35939 6.11609 5.36536 6.07721 5.36842C6.00551 5.38036 5.96363 5.37454 5.8919 5.36842C5.84109 5.36536 5.81418 5.3623 5.76337 5.35649L5.20144 6.16351L6.40002 7.75365L6.32833 7.81938L5.12078 6.26511L4.0298 7.85226L3.94611 7.79548L5.05502 6.19638L4.37354 5.19508C4.29878 5.25484 4.25398 5.28474 4.17327 5.33257C4.05969 5.40136 3.99394 5.4342 3.87438 5.48501C3.80268 5.42226 3.76677 5.37142 3.73689 5.28475C3.72196 5.23692 3.716 5.20703 3.716 5.15622C3.71293 5.12033 3.716 5.09646 3.72495 5.06057L3.77576 5.09347C3.82358 5.11735 3.85347 5.13533 3.90728 5.12936L3.92816 5.12324L3.9401 5.04254C3.94316 4.98576 3.9401 4.95586 3.93398 4.90205C3.96987 4.91697 3.98777 4.92898 4.02365 4.94689L4.06849 4.97681L4.13422 4.99471L4.16712 4.94689L4.17324 4.89608C4.17324 4.84229 4.16712 4.81239 4.14638 4.76158C4.21808 4.81239 4.31974 4.90505 4.35561 4.82731L4.36456 4.77948C4.37068 4.71674 4.36762 4.68084 4.34964 4.62107C4.39746 4.65397 4.43034 4.66889 4.48713 4.67486C4.52302 4.68098 4.54988 4.69277 4.58278 4.67792C4.65149 4.64502 4.63657 4.53147 4.57666 4.48065C4.64836 4.49557 4.68725 4.51355 4.75002 4.55235C4.83072 4.60017 4.87256 4.63903 4.92338 4.71973C4.88451 4.77651 4.85765 4.80641 4.80979 4.86022C4.77092 4.90207 4.74705 4.92296 4.70518 4.96184C4.62149 5.03652 4.57068 5.07841 4.48101 5.14417L5.13261 6.0827L5.67958 5.29063C5.66765 5.23982 5.6587 5.20993 5.64668 5.15911C5.63474 5.09935 5.62281 5.06646 5.61982 5.00667C5.61676 4.94691 5.61982 4.91102 5.63773 4.85125C5.69152 4.67788 5.79914 4.57328 5.97549 4.52844" fill="black"/>
<path d="M4.03307 7.86406L3.93443 7.79527L5.04334 6.19617L4.37082 5.20981C4.3021 5.26361 4.25724 5.2935 4.17654 5.34133C4.06595 5.41012 4.00019 5.44295 3.87764 5.49376H3.87152L3.86845 5.4907C3.7937 5.42796 3.76085 5.37713 3.72797 5.28746C3.71305 5.23963 3.70709 5.20974 3.7041 5.15594C3.7041 5.11707 3.70716 5.09618 3.71604 5.05731L3.7191 5.04239L3.73104 5.05134L3.77886 5.08424L3.79378 5.09036C3.83265 5.11125 3.85951 5.12625 3.90437 5.12028L3.92228 5.11722L3.9284 5.03951C3.93146 4.98571 3.93146 4.95582 3.92534 4.90201L3.92227 4.88411L3.9372 4.89306C3.97308 4.90798 3.99397 4.91999 4.02687 4.9379L4.04775 4.95282L4.07469 4.96774L4.09259 4.97669L4.13147 4.98564L4.1584 4.94677V4.94371L4.16452 4.90783V4.89589C4.16452 4.84508 4.1584 4.8122 4.13766 4.76736L4.12274 4.73446L4.1496 4.75542L4.17952 4.77631C4.22734 4.8122 4.28712 4.85403 4.32299 4.84503L4.34388 4.82115L4.35283 4.79123L4.35589 4.7793C4.36201 4.71655 4.35895 4.68066 4.34097 4.62387L4.33202 4.59701L4.35589 4.61193C4.40073 4.64483 4.43361 4.65677 4.49039 4.66572L4.51128 4.67184L4.58 4.66878L4.61887 4.60902C4.62499 4.56418 4.60395 4.51637 4.57104 4.48946L4.58 4.47156C4.65169 4.48648 4.69358 4.50446 4.75635 4.54325C4.83705 4.59406 4.8789 4.63592 4.9297 4.71363L4.93583 4.71975L4.9297 4.72281C4.89083 4.78257 4.86696 4.81248 4.81911 4.86628C4.78323 4.90217 4.75935 4.92306 4.72646 4.95296L4.71154 4.96788C4.62784 5.04264 4.58002 5.08146 4.49334 5.14722L5.13298 6.06783L5.67099 5.28771C5.65906 5.23988 5.6501 5.21295 5.63809 5.16217L5.62914 5.11733C5.62019 5.08144 5.61123 5.0516 5.61123 5.00674C5.60817 4.94101 5.6143 4.90512 5.62914 4.84832C5.68293 4.67197 5.79353 4.56438 5.97286 4.51954L5.99674 4.51342L5.9848 4.53431L5.94593 4.60003C5.89214 4.70764 5.86523 4.77041 5.87117 4.87801V4.89293L5.87423 4.92583L5.89512 4.95277C5.93996 4.96172 6.03859 4.86011 6.09239 4.8063L6.10135 4.79437L6.14917 4.74953L6.22087 4.67783L6.23579 4.68678C6.20885 4.74953 6.18796 4.80037 6.16707 4.86015C6.14917 4.89902 6.14014 4.92289 6.13119 4.94084C6.11925 4.97673 6.11328 4.99165 6.0953 5.04546L6.09836 5.07836C6.10448 5.08448 6.13723 5.09933 6.26575 5.03949C6.29566 5.02755 6.41519 4.95281 6.4421 4.85417H6.46C6.50186 5.07237 6.3883 5.27861 6.17904 5.35334C6.14017 5.36826 6.1163 5.37423 6.07741 5.38019C6.01765 5.38915 5.97878 5.38631 5.92199 5.38019H5.88909C5.84126 5.37713 5.81433 5.37407 5.76953 5.36527L5.21358 6.16333L6.41215 7.75347L6.32847 7.83118L5.12092 6.2799L4.03307 7.86406ZM3.95831 7.79236L4.0271 7.8372L5.12106 6.25006L6.33159 7.80432L6.38538 7.75053L5.18979 6.16339L5.19285 6.15727L5.76076 5.34427L5.76688 5.34733C5.8147 5.35345 5.84164 5.35628 5.89242 5.35926L5.92533 5.36233C5.97912 5.36845 6.01799 5.36845 6.07776 5.35926C6.11365 5.35314 6.13752 5.35031 6.17341 5.33837C6.36172 5.26668 6.46932 5.09029 6.4484 4.89301C6.40655 4.9797 6.30194 5.04247 6.27504 5.05741C6.20625 5.09031 6.11961 5.12015 6.08673 5.0933L6.07778 5.0395C6.09568 4.98571 6.10165 4.97079 6.11665 4.93489C6.12277 4.91699 6.13456 4.89303 6.14955 4.8512C6.16746 4.80935 6.18246 4.7705 6.19738 4.73164L6.16447 4.76455L6.11665 4.80938L6.10471 4.81834C6.02401 4.90203 5.94331 4.98273 5.8925 4.97078L5.85661 4.9319L5.85355 4.89303V4.87811C5.84743 4.76154 5.87742 4.6928 5.92831 4.59117L5.95524 4.54335C5.79384 4.59117 5.69819 4.68981 5.64737 4.8542C5.63245 4.90799 5.62947 4.94387 5.62947 5.00664C5.63253 5.04849 5.63842 5.07834 5.64737 5.11425L5.65931 5.15909C5.66826 5.20989 5.67722 5.2368 5.68923 5.28761L5.69229 5.29068L5.13335 6.10068L4.46681 5.14122L4.47576 5.1351C4.56543 5.06937 4.61625 5.03049 4.69695 4.95577L4.71485 4.93786C4.74776 4.90794 4.77163 4.89004 4.80452 4.85118C4.84936 4.80336 4.87622 4.77346 4.91213 4.71966C4.86431 4.64498 4.82246 4.60608 4.74475 4.55826C4.69394 4.52834 4.65806 4.51043 4.60725 4.49551C4.62814 4.52841 4.64314 4.57323 4.63717 4.61209C4.63105 4.64499 4.61628 4.67185 4.58637 4.68378L4.50865 4.6899L4.48776 4.68378C4.43696 4.67766 4.40407 4.66588 4.36521 4.64193C4.37715 4.68975 4.38014 4.72861 4.37417 4.77942L4.3711 4.79136L4.36215 4.83023L4.32627 4.86313C4.28441 4.87507 4.22165 4.83023 4.16785 4.79144L4.16479 4.78837C4.17673 4.82426 4.18269 4.8541 4.18269 4.89597V4.90791L4.17657 4.94977V4.95281L4.1377 5.00361L4.08391 4.99168L4.03609 4.9678L4.01818 4.95587L3.94648 4.91699C3.94955 4.96183 3.95261 4.99175 3.94955 5.03955L3.94059 5.12623L3.93753 5.13234H3.93141L3.90754 5.13847C3.85673 5.14459 3.82384 5.12951 3.78499 5.10556L3.77007 5.09944L3.7312 5.07557L3.72508 5.15627C3.72508 5.20409 3.7312 5.23102 3.74895 5.28181C3.77588 5.36849 3.80871 5.41332 3.87449 5.4731C3.99106 5.42528 4.0598 5.3924 4.16741 5.32664C4.24811 5.27583 4.29294 5.24594 4.36767 5.18616L4.37379 5.18004L4.37991 5.18899L5.06439 6.19628L5.06132 6.2024L3.95831 7.79236Z" fill="black"/>
<path d="M2.30517 2.94721C2.35001 2.94415 2.37985 2.95027 2.42473 2.95915C2.58015 3.001 2.65189 3.09963 2.72662 3.2431C2.77146 3.32978 2.78041 3.38657 2.79235 3.4852C2.80727 3.62568 2.78929 3.71237 2.75049 3.84986C2.72057 3.94551 2.69073 3.99632 2.65185 4.08898C2.61298 4.17865 2.58314 4.22647 2.54724 4.31614C2.52933 4.36397 2.51433 4.39082 2.50538 4.43869C2.49643 4.47756 2.49344 4.50143 2.49344 4.5433L2.55917 4.5104C2.63988 4.46854 2.67873 4.4297 2.7415 4.36394C2.80126 4.3012 2.83416 4.26232 2.876 4.1846C2.90592 4.12484 2.91786 4.09194 2.93576 4.02619C2.95665 3.9515 2.96568 3.90663 2.96867 3.82592L3.01947 3.84689C3.0852 3.88576 3.10316 3.93655 3.1211 4.01128C3.14803 4.11889 3.15101 4.18763 3.1211 4.29523C3.10618 4.35499 3.08819 4.38789 3.05537 4.44468C3.01948 4.50743 2.99262 4.54331 2.94478 4.60011C2.90889 4.64494 2.88502 4.6718 2.84315 4.71369C2.78638 4.77345 2.7505 4.80037 2.69669 4.85716C2.65185 4.90498 2.62499 4.92886 2.58312 4.97672C2.54723 5.01857 2.52932 5.04245 2.49942 5.08731L2.50554 5.32643C2.5474 5.30852 2.57425 5.29651 2.61315 5.26965C2.72374 5.20392 2.77156 5.14412 2.84927 5.04249C2.94492 4.91994 2.95389 4.8243 3.02862 4.68979L3.07644 4.6061C3.10636 4.639 3.12128 4.66287 3.14217 4.70474C3.15709 4.73764 3.16007 4.75853 3.16604 4.79441C3.18992 4.905 3.18096 4.97673 3.14217 5.08135C3.10031 5.18895 3.0495 5.23677 2.97179 5.31747C2.92397 5.3653 2.89109 5.38626 2.84327 5.43106C2.76256 5.50877 2.72072 5.55361 2.643 5.6343C2.61615 5.66721 2.59518 5.68213 2.57131 5.71501C2.53244 5.76283 2.51453 5.79273 2.4906 5.84354L2.48754 6.13645C2.53238 6.10355 2.55924 6.08564 2.60112 6.04679L2.68481 5.97203C2.73264 5.92122 2.75353 5.88535 2.79241 5.82557C2.81629 5.78371 2.8283 5.75984 2.84621 5.71797C2.89105 5.61635 2.90597 5.55358 2.90895 5.44298C2.97169 5.46685 3.0046 5.49379 3.03748 5.54759L3.07336 5.63129C3.0853 5.66419 3.08829 5.68508 3.09433 5.71797C3.10328 5.77474 3.10328 5.80764 3.09127 5.86443C3.07635 5.94513 3.0524 5.98997 3.00459 6.05871C2.97169 6.10653 2.94483 6.1275 2.90595 6.17528C2.85514 6.23504 2.82525 6.26794 2.77444 6.32473C2.73557 6.36957 2.71468 6.39344 2.6758 6.43532C2.63991 6.47121 2.61903 6.48912 2.58613 6.52499C2.54428 6.57282 2.51145 6.59669 2.49347 6.6565C2.47259 6.71328 2.47259 6.75215 2.48735 6.80894C2.52324 6.77306 2.54413 6.75515 2.583 6.72226C2.6159 6.68936 2.63679 6.67146 2.67267 6.64156C2.70855 6.61164 2.72646 6.59672 2.76234 6.5668C2.82508 6.51301 2.86098 6.49212 2.92075 6.43529C2.95067 6.40239 2.97156 6.38448 2.99847 6.3516C3.02533 6.31869 3.04033 6.2978 3.06121 6.26193C3.09412 6.20814 3.10307 6.17226 3.13291 6.11248L3.15977 6.05869C3.19864 6.11845 3.21655 6.15732 3.22856 6.22906C3.24348 6.29777 3.24348 6.33666 3.23162 6.40541C3.22856 6.46517 3.2167 6.49807 3.19275 6.55187C3.16589 6.60566 3.13896 6.63257 3.10009 6.67741C3.0164 6.76707 2.94466 6.79099 2.84603 6.85974C2.78926 6.89861 2.75038 6.91353 2.69658 6.95837C2.66069 6.99127 2.6398 7.01216 2.60691 7.05401L2.55312 7.12877C2.52925 7.16764 2.51425 7.19152 2.49635 7.23339C2.47844 7.28121 2.46941 7.3111 2.46344 7.36191C2.46038 7.41571 2.4665 7.4456 2.47538 7.4994C2.48433 7.53827 2.4903 7.55916 2.5053 7.59505L2.5382 7.64884C2.55014 7.604 2.55917 7.58005 2.58304 7.53825C2.61893 7.47849 2.65175 7.45455 2.69661 7.40075C2.78031 7.30211 2.82514 7.24532 2.92079 7.15566L3.00448 7.07496C3.12105 6.9554 3.17485 6.8717 3.22866 6.71329C3.26753 6.77305 3.28245 6.81193 3.30035 6.88067C3.33027 7.00023 3.33027 7.08093 3.2914 7.1975C3.25253 7.31407 3.20472 7.37385 3.11206 7.45455L3.04036 7.50536C2.9507 7.56811 2.88792 7.58307 2.80125 7.64883C2.75939 7.68173 2.73552 7.69964 2.69962 7.73551L2.63389 7.80721V7.85503C2.66381 7.97757 2.72356 8.02241 2.80726 8.1061C2.86702 8.16586 2.91187 8.19278 2.98062 8.2436C3.03143 8.27948 3.06431 8.30037 3.11811 8.33327C3.17489 8.36915 3.21077 8.38706 3.27054 8.41696C3.36918 8.46478 3.42298 8.49171 3.5276 8.52456C3.59333 8.54247 3.62922 8.55142 3.69498 8.56343C3.98491 8.62021 4.1523 8.59634 4.44821 8.59335C4.70227 8.59335 4.84275 8.60827 5.09382 8.62029C5.34191 8.60835 5.48538 8.59335 5.73645 8.59335C6.03236 8.59641 6.19974 8.62029 6.48967 8.56343C6.5554 8.5515 6.59428 8.54254 6.65706 8.52456C6.76166 8.49166 6.81547 8.4648 6.9141 8.41696C6.97386 8.38704 7.00975 8.36913 7.06654 8.33327C7.12332 8.30036 7.15322 8.27948 7.20703 8.2436C7.27574 8.19279 7.31762 8.16884 7.37739 8.1061C7.46109 8.02241 7.52087 7.97757 7.55075 7.85503L7.55381 7.80721L7.4851 7.73551C7.44921 7.69963 7.42534 7.68172 7.38646 7.64883C7.29679 7.5831 7.23402 7.56813 7.14435 7.50536L7.07564 7.45455C6.98299 7.37385 6.93516 7.31407 6.89631 7.1975C6.85744 7.08093 6.85743 7.00023 6.88735 6.88067C6.90227 6.81196 6.92026 6.77307 6.95607 6.71329C7.00986 6.8717 7.06367 6.9554 7.18024 7.07496L7.26692 7.15566C7.35958 7.24532 7.4074 7.30211 7.49109 7.40075C7.53593 7.45455 7.5688 7.47847 7.60168 7.53825C7.62556 7.5801 7.63459 7.60398 7.64951 7.64884L7.67943 7.59505C7.69733 7.55916 7.70039 7.53827 7.70934 7.4994C7.72128 7.44561 7.72427 7.41571 7.72128 7.36191C7.71822 7.31111 7.70636 7.28121 7.68838 7.23339C7.67047 7.19153 7.65548 7.16766 7.6316 7.12877L7.57781 7.05401C7.54789 7.01216 7.527 6.99127 7.48814 6.95837C7.43435 6.91353 7.39848 6.89861 7.34168 6.85974C7.24005 6.79095 7.16832 6.76707 7.08762 6.67741C7.04577 6.63257 7.01883 6.60571 6.99496 6.55187C6.9681 6.49807 6.95907 6.46519 6.9531 6.40541C6.94117 6.33662 6.94415 6.2978 6.95617 6.22906C6.97109 6.15736 6.98609 6.11847 7.02488 6.05869L7.0548 6.11248C7.08166 6.17224 7.09069 6.20813 7.12351 6.26193C7.14738 6.29782 7.1594 6.31871 7.18626 6.3516C7.21617 6.3845 7.23408 6.4024 7.26696 6.43529C7.32374 6.49207 7.36261 6.513 7.42239 6.5668C7.45828 6.59672 7.47916 6.61164 7.51205 6.64156C7.54794 6.67446 7.56883 6.68938 7.60472 6.72226C7.6406 6.75517 7.66448 6.77606 7.70036 6.80894C7.7123 6.75217 7.7123 6.7133 7.69424 6.6565C7.67335 6.59674 7.64045 6.57282 7.59859 6.52499C7.56868 6.48911 7.5448 6.4712 7.51192 6.43532C7.47305 6.39347 7.45216 6.36959 7.41328 6.32473C7.35949 6.26795 7.33258 6.23506 7.27878 6.17528C7.23991 6.12746 7.21305 6.10649 7.18014 6.05871C7.13232 5.99 7.10845 5.94513 7.09346 5.86443C7.08451 5.80765 7.08451 5.77476 7.0904 5.71797C7.09652 5.68507 7.09935 5.66418 7.11137 5.63129L7.14725 5.54759C7.18314 5.4938 7.21597 5.46689 7.27578 5.44298C7.2819 5.55358 7.29369 5.61635 7.33852 5.71797C7.35643 5.75982 7.37143 5.7837 7.3953 5.82557C7.43119 5.88533 7.45208 5.92121 7.5029 5.97203L7.5836 6.04679C7.62844 6.08566 7.65239 6.10356 7.70018 6.13645L7.69406 5.84354C7.67018 5.79273 7.6522 5.76283 7.61635 5.71501C7.58949 5.68211 7.57151 5.66718 7.54167 5.6343C7.46691 5.55361 7.42211 5.50877 7.34439 5.43106C7.29358 5.38622 7.2607 5.36533 7.21586 5.31747C7.13517 5.23677 7.08435 5.18895 7.04549 5.08135C7.00364 4.97673 6.99767 4.905 7.01856 4.79441C7.02468 4.75852 7.0305 4.73763 7.04549 4.70474C7.0634 4.66288 7.0784 4.64199 7.11122 4.6061L7.15606 4.68979C7.23082 4.8243 7.24274 4.91994 7.3354 5.04249C7.41312 5.14412 7.46392 5.20389 7.57153 5.27264C7.61339 5.29652 7.63726 5.30853 7.68212 5.32644L7.68518 5.08732C7.65527 5.04248 7.63736 5.0186 7.60149 4.97673C7.55963 4.9289 7.53576 4.90503 7.4909 4.85717C7.43412 4.80039 7.39824 4.77347 7.34444 4.7137C7.30258 4.67184 7.27871 4.64797 7.23982 4.60011C7.192 4.54334 7.16506 4.50746 7.12923 4.44469C7.09633 4.38792 7.08141 4.35502 7.0635 4.29524C7.03358 4.18764 7.03657 4.11889 7.0635 4.01129C7.08141 3.93653 7.09939 3.88575 7.16512 3.8469L7.21593 3.82593C7.22205 3.90663 7.22787 3.95147 7.24883 4.02619C7.26674 4.09192 7.27875 4.12782 7.31158 4.18461C7.35045 4.26233 7.38328 4.30118 7.4431 4.36395C7.50584 4.42968 7.54472 4.46857 7.62542 4.5104L7.69414 4.54331C7.69107 4.50145 7.69107 4.47758 7.6822 4.43869C7.67026 4.39087 7.65833 4.36401 7.64034 4.31615C7.60446 4.22648 7.57462 4.17865 7.53573 4.08898C7.49387 3.99633 7.46403 3.94551 7.4371 3.84986C7.39823 3.71238 7.37734 3.62569 7.39524 3.48521C7.40419 3.38657 7.41613 3.32979 7.46097 3.2431C7.53267 3.09963 7.60444 3.001 7.75987 2.95915C7.8047 2.9502 7.83462 2.94423 7.88242 2.94722C7.8763 2.98609 7.87048 3.00698 7.86153 3.04585C7.85541 3.08173 7.84959 3.10262 7.84362 3.14149C7.8287 3.21625 7.82572 3.25807 7.81975 3.33279C7.8108 3.42246 7.80184 3.47626 7.81363 3.56892C7.82258 3.61675 7.82855 3.64062 7.84355 3.68848C7.85548 3.73929 7.8704 3.76918 7.8854 3.81999C7.89734 3.88572 7.90331 3.92162 7.90629 3.98737C7.91241 4.0531 7.90935 4.089 7.90017 4.15476C7.89405 4.21452 7.88823 4.24741 7.8763 4.3072L7.86138 4.36994C7.85242 4.41776 7.85242 4.44164 7.85831 4.4895L7.90315 4.45361L7.95098 4.41176L8.01372 4.34603C8.06751 4.27732 8.1004 4.23544 8.13029 4.15174C8.14522 4.11586 8.1482 4.09497 8.15715 4.0561C8.17812 3.96344 8.16909 3.90665 8.18707 3.811L8.19319 3.77511C8.23505 3.79004 8.25892 3.80197 8.28884 3.83189C8.37253 3.91259 8.39046 3.98134 8.40541 4.09193C8.41153 4.13378 8.41436 4.15467 8.41153 4.19953C8.40541 4.28322 8.38765 4.33404 8.34281 4.40876C8.31894 4.45061 8.30394 4.4715 8.27112 4.5074L8.17248 4.61799L8.07683 4.71961L7.96326 4.85711L7.89156 4.97069L7.85866 5.02448L7.85559 5.23072L7.91535 5.19782C8.00502 5.14402 8.04986 5.10217 8.11262 5.02147C8.13956 4.98558 8.15149 4.96469 8.17238 4.92582C8.22021 4.83316 8.24408 4.76143 8.25309 4.67475L8.26502 4.60902C8.30986 4.62394 8.33672 4.63894 8.37262 4.66878C8.4892 4.77339 8.47425 4.92583 8.41448 5.07229C8.39359 5.12907 8.36964 5.15598 8.33377 5.20679C8.29192 5.26655 8.26506 5.29646 8.21422 5.35026L8.13651 5.42797C8.1036 5.45789 8.08271 5.4758 8.04683 5.50569L7.99006 5.5565C7.93925 5.60432 7.91235 5.63126 7.86751 5.68503L7.86139 6.08854C7.91519 6.05563 7.94509 6.03176 7.98992 5.98691L8.04968 5.92417C8.10944 5.85247 8.13636 5.80461 8.16924 5.71793C8.18714 5.67011 8.19013 5.64022 8.20214 5.5894C8.22005 5.52069 8.22602 5.4818 8.23504 5.41305L8.30674 5.45789C8.36949 5.5356 8.37844 5.57147 8.40239 5.65217C8.41134 5.68806 8.41731 5.70895 8.42029 5.74483C8.42641 5.80161 8.42925 5.8345 8.42029 5.8883C8.40239 5.99291 8.36949 6.05569 8.29476 6.12742L8.19314 6.22905L8.0945 6.32469L7.95103 6.48311L7.87635 6.57576L7.87022 6.75511L7.90313 6.73414C7.93901 6.71027 7.96289 6.69825 7.99877 6.67139C8.13926 6.57575 8.22594 6.52195 8.3186 6.37848C8.37239 6.2918 8.37239 6.22604 8.42321 6.13637L8.46208 6.06765C8.50095 6.11846 8.52184 6.15135 8.53979 6.21113C8.58463 6.33368 8.5906 6.42633 8.53367 6.53992C8.50077 6.60863 8.46794 6.64751 8.40216 6.69235L8.18097 6.85375C8.11226 6.89561 8.07636 6.92254 8.01359 6.9763L7.93289 7.04502C7.90595 7.07792 7.89402 7.10179 7.8791 7.14066L7.86119 7.4306L7.90901 7.40971L7.96579 7.37084C8.02257 7.33196 8.05247 7.31406 8.10628 7.27519C8.15112 7.24229 8.17499 7.22737 8.21687 7.19449C8.29757 7.1257 8.35436 7.08987 8.40517 7.0002C8.42904 6.95536 8.43807 6.92544 8.45299 6.87765L8.50082 6.94935C8.52469 6.9912 8.53372 7.01814 8.53969 7.06293C8.56065 7.16157 8.54581 7.22434 8.5038 7.31699C8.47687 7.37675 8.45299 7.40367 8.41114 7.45448C8.33044 7.54714 8.26767 7.58899 8.15708 7.64279C8.10627 7.66972 8.07339 7.67569 8.01959 7.69658C7.97773 7.7115 7.95386 7.72045 7.91497 7.73545L7.85223 7.76835L7.78053 7.83408C7.73271 7.91479 7.70281 7.95962 7.64304 8.03434C7.57731 8.12102 7.53543 8.16586 7.45772 8.24357C7.3023 8.38704 7.20067 8.45579 7.01236 8.55443C6.91672 8.60523 6.85992 8.63214 6.76129 8.66801C6.67461 8.69793 6.62678 8.70986 6.5401 8.72777C6.45043 8.74874 6.39663 8.75769 6.30398 8.76067C5.99312 8.77858 5.82873 8.79357 5.52983 8.76067L5.59258 8.81148C5.63443 8.84737 5.66129 8.86527 5.70616 8.90115C5.78387 8.95196 5.82572 8.98484 5.90044 9.04761C5.93334 9.07752 5.95423 9.08946 5.98413 9.12237C6.01107 9.15825 6.03196 9.17914 6.04389 9.221C6.05882 9.26882 6.05882 9.3017 6.04696 9.34654C6.02308 9.43322 5.9722 9.49598 5.88555 9.50495C5.81684 9.51689 5.76301 9.496 5.72116 9.44221C5.66438 9.37648 5.65245 9.3346 5.60459 9.27183C5.5508 9.19708 5.51791 9.15527 5.45514 9.08951C5.42224 9.05362 5.40433 9.03273 5.36846 8.99984C5.3087 8.94903 5.2758 8.92212 5.21004 8.88327L5.1473 8.85335L5.09947 8.84723H5.08455L5.03673 8.85335L4.97697 8.88327C4.90826 8.92214 4.87535 8.949 4.81856 8.99984C4.78267 9.03274 4.76178 9.05363 4.72889 9.08951C4.66614 9.15524 4.63324 9.19711 4.57944 9.27183C4.53161 9.33458 4.51968 9.37645 4.46586 9.44221C4.42102 9.496 4.36722 9.51689 4.29847 9.50495C4.21179 9.496 4.16099 9.43326 4.13707 9.34654C4.12514 9.3017 4.12812 9.26882 4.14014 9.221C4.15506 9.17914 4.17304 9.15825 4.20288 9.12237C4.22981 9.08946 4.25369 9.07752 4.28658 9.04761C4.35827 8.98486 4.40016 8.95196 4.47787 8.90115C4.52271 8.86526 4.54957 8.84736 4.59444 8.81148L4.65718 8.76067C4.3553 8.79357 4.19091 8.77858 3.88304 8.76067C3.7874 8.75761 3.73658 8.74874 3.64393 8.72777C3.55724 8.70986 3.50942 8.69785 3.42573 8.66801C3.3241 8.63212 3.26731 8.60526 3.17465 8.55443C2.98635 8.45579 2.88173 8.38704 2.72929 8.24058C2.64859 8.1659 2.60675 8.12102 2.54099 8.03434C2.48422 7.95966 2.45132 7.91479 2.4035 7.83408L2.3318 7.76835L2.27204 7.73545C2.23019 7.72053 2.20631 7.71158 2.16443 7.69658C2.11363 7.67561 2.08075 7.66965 2.02993 7.64279C1.91934 7.589 1.85657 7.54714 1.77288 7.45448C1.73102 7.40368 1.70715 7.37677 1.68022 7.31699C1.64135 7.22434 1.62643 7.16157 1.64433 7.06293C1.65329 7.01809 1.66224 6.99123 1.68321 6.94935L1.73103 6.87765C1.74595 6.92547 1.75789 6.95537 1.78184 7.0002C1.83265 7.08987 1.88645 7.12573 1.96716 7.19449C2.00901 7.22739 2.03288 7.24231 2.07775 7.27519C2.13154 7.31406 2.16144 7.33196 2.21823 7.37084L2.275 7.40971L2.32282 7.4306L2.30492 7.14066C2.29 7.10179 2.27799 7.07792 2.25113 7.04502L2.17342 6.9763C2.11067 6.92251 2.07179 6.8956 2.00304 6.85375L1.78186 6.69235C1.71613 6.64751 1.68323 6.60866 1.65035 6.53992C1.59357 6.42633 1.60253 6.33368 1.64423 6.21113C1.66512 6.15137 1.6831 6.11847 1.72195 6.06765L1.7638 6.13637C1.81163 6.22604 1.81163 6.2918 1.86842 6.37848C1.95809 6.52195 2.04776 6.57575 2.18824 6.67139C2.22413 6.69833 2.24502 6.71027 2.28389 6.73414L2.3138 6.75511L2.30768 6.57576L2.233 6.48311L2.08953 6.32469L1.99089 6.22905L1.89225 6.12742C1.81454 6.05573 1.78166 5.99291 1.76373 5.8883C1.75477 5.83451 1.75761 5.80162 1.76373 5.74483C1.76985 5.70895 1.77268 5.68806 1.78163 5.65217C1.80551 5.57147 1.81752 5.5356 1.87728 5.45789L1.95204 5.41305C1.95816 5.48184 1.96696 5.52066 1.98196 5.5894C1.99389 5.64021 1.99688 5.67011 2.01784 5.71793C2.05074 5.80461 2.0776 5.85243 2.1374 5.92417L2.19418 5.98691C2.23902 6.03175 2.26893 6.0557 2.3227 6.08854L2.31658 5.68503C2.27174 5.63124 2.24489 5.60432 2.19703 5.5565L2.13726 5.50569C2.10436 5.47578 2.08347 5.45787 2.05058 5.42797L1.96988 5.35026C1.91907 5.29647 1.89216 5.26657 1.85032 5.20679C1.81742 5.15598 1.79056 5.12908 1.76962 5.07229C1.71284 4.92583 1.69486 4.77339 1.81446 4.66878C1.85035 4.63886 1.87422 4.62394 1.92207 4.60902L1.93102 4.67475C1.93997 4.76143 1.96392 4.83316 2.01172 4.92283C2.03269 4.96469 2.04463 4.98558 2.07148 5.02147C2.13423 5.10217 2.18207 5.14402 2.26875 5.19782L2.32851 5.23072L2.32545 5.02448L2.29553 4.97069L2.22078 4.85711L2.11019 4.71961L2.01155 4.61799L1.91292 4.5074C1.883 4.47151 1.86509 4.45062 1.84122 4.40876C1.79936 4.33408 1.77847 4.28322 1.77243 4.19953C1.76937 4.15469 1.77243 4.1338 1.77855 4.09193C1.79347 3.98134 1.81444 3.91259 1.89512 3.83189C1.92802 3.80197 1.95189 3.79004 1.99076 3.77511L1.99688 3.811C2.01479 3.90665 2.00882 3.96344 2.0268 4.0561C2.03575 4.09497 2.04172 4.11586 2.05374 4.15174C2.08365 4.23544 2.11648 4.27729 2.1733 4.34603L2.23306 4.41176L2.28088 4.45361L2.32572 4.48652C2.33184 4.44168 2.33184 4.4178 2.32572 4.36995L2.30781 4.3072C2.29588 4.24744 2.28991 4.21455 2.28394 4.15477C2.27499 4.08904 2.27499 4.05314 2.27782 3.98738C2.28088 3.92165 2.28677 3.88576 2.30169 3.82C2.31363 3.76919 2.32863 3.7393 2.34355 3.68849C2.35549 3.64067 2.36444 3.61679 2.37041 3.56893C2.38533 3.47627 2.37347 3.42247 2.36735 3.3328C2.36123 3.25812 2.35541 3.21623 2.34347 3.1415C2.33735 3.10263 2.33154 3.08174 2.32251 3.04586C2.31355 3.00698 2.31057 2.9861 2.3046 2.94722" fill="#008F42"/>
</g>
<defs>
<clipPath id="clip0_882_26324">
<rect width="18.0175" height="16" fill="white" transform="translate(0.0966797)"/>
</clipPath>
</defs>
</svg>
