<svg width="13" height="16" viewBox="0 0 13 16" fill="none" xmlns="http://www.w3.org/2000/svg">
<g clip-path="url(#clip0_795_1957)">
<path d="M7.46553 11.1312C7.46201 10.866 7.37834 10.608 7.22553 10.3912L6.69213 10.3976L6.53333 9.8878C6.2799 9.81047 6.00916 9.81047 5.75573 9.8878L5.59733 10.398L5.06373 10.3916C4.911 10.6085 4.82734 10.8664 4.82373 11.1316L5.25853 11.44L5.08753 11.9452C5.247 12.1571 5.4664 12.3162 5.71733 12.402L6.14533 12.0832L6.57333 12.402C6.824 12.3159 7.04311 12.1567 7.20233 11.9448L7.03033 11.44L7.46553 11.1312ZM7.16773 10.4632C7.2966 10.654 7.36923 10.8771 7.37733 11.1072L7.06033 11.3316L7.20993 10.8056L6.77993 10.468L7.16773 10.4632ZM5.80613 9.9656C6.02731 9.90293 6.26155 9.90293 6.48273 9.9656L6.59833 10.3366L6.14433 10.032L5.69033 10.3366L5.80613 9.9656ZM5.22913 11.3316L4.91213 11.1072C4.92006 10.8772 4.99248 10.654 5.12113 10.4632L5.50973 10.468L5.07973 10.8056L5.22913 11.3316ZM5.72093 12.31C5.50497 12.2308 5.31539 12.0929 5.17353 11.9118L5.29813 11.5438L5.48633 12.0572L6.03273 12.0772L5.72093 12.31ZM6.14433 12L6.07533 11.6732L5.66913 11.378L5.33733 11.4136L5.62653 11.2472L5.78173 10.77L5.64573 10.4652L5.89333 10.6888H6.39533L6.64313 10.4652L6.50713 10.77L6.66213 11.2472L6.95133 11.4136L6.61953 11.3784L6.21333 11.6736L6.14433 12ZM7.11513 11.9114C6.97331 12.0925 6.78372 12.2304 6.56773 12.3096L6.25613 12.0772L6.80233 12.0572L6.99073 11.5438L7.11513 11.9114Z" fill="white"/>
<path d="M5.7583 11.3434L6.0349 10.9742L6.4391 10.8242H5.9201L5.7583 11.3434Z" fill="white"/>
<path d="M0.208984 0V6.1046C0.208984 12.9562 6.14418 16 6.14418 16C6.14418 16 12.0794 12.9562 12.0794 6.1046V0H0.208984ZM11.8552 6.1046C11.8552 12.2422 6.92178 15.2916 6.14418 15.7352C5.36658 15.2916 0.433584 12.2422 0.433584 6.1046V0.2246H11.8552V6.1046Z" fill="#DAA900"/>
<path d="M6.14441 15.2052C7.32441 14.4928 11.4064 11.648 11.4064 6.1052V0.673401H0.882812V6.1046C0.882812 11.648 4.96461 14.4928 6.14441 15.2052ZM1.10701 0.897801H11.182V6.1046C11.182 11.3622 7.42201 14.1404 6.14441 14.9402C4.86701 14.1402 1.10701 11.3622 1.10701 6.1046V0.897801Z" fill="#DAA900"/>
<path d="M8.58838 4.02261C9.21353 4.60892 9.62585 5.38656 9.76038 6.23301C9.65189 5.35934 9.25616 4.54648 8.63538 3.92221L8.58838 4.02261Z" fill="#DAA900"/>
<path d="M4.65727 10.4818C4.00873 10.2454 3.4352 9.83985 2.9961 9.30723C2.55699 8.7746 2.26828 8.13426 2.15988 7.45253C2.05148 6.7708 2.12732 6.07249 2.37956 5.42993C2.6318 4.78737 3.05126 4.22395 3.59447 3.79801L3.47227 3.53561C2.8859 3.97315 2.4314 4.56377 2.15865 5.24265C1.8859 5.92154 1.80545 6.66244 1.92612 7.38404C2.0468 8.10564 2.36393 8.78005 2.84272 9.33325C3.32151 9.88646 3.94345 10.2971 4.64027 10.52C4.64567 10.5066 4.65147 10.4946 4.65727 10.4818Z" fill="#DAA900"/>
<path d="M7.31443 6.81441C7.0507 6.57721 6.75963 6.43834 6.44123 6.39781C6.44123 6.39781 7.86603 6.28861 7.86603 5.46101C7.86603 5.06301 7.36823 4.52481 5.81703 4.52481H3.99463C3.99463 4.52481 4.23703 4.66001 4.23703 4.77541V6.54001C4.46263 6.65041 4.77063 6.75241 5.07703 6.87661V6.53501H5.57703C5.84243 6.53501 5.99423 6.59501 6.13263 6.71081L7.58603 8.06401C7.78943 8.23821 8.19303 8.45021 8.54423 8.45021C8.99543 8.45021 9.17563 8.29961 9.17563 8.29961C9.17563 8.29961 8.88463 8.28141 8.66343 8.09201L7.31443 6.81441ZM5.68243 6.31441H5.07703V4.75361H5.68283C6.44483 4.75361 6.95363 5.01481 6.95363 5.53361C6.95323 5.95601 6.42503 6.31481 5.68243 6.31481V6.31441Z" fill="#DAA900"/>
<path d="M4.23702 7.47479V8.06179C4.23702 8.19679 4.02002 8.31139 4.02002 8.31139H5.30622C5.30622 8.31139 5.07702 8.19679 5.07702 8.06179V7.86299C4.87842 7.72179 4.56242 7.60639 4.23702 7.47479Z" fill="#DAA900"/>
<path d="M3.345 2.64C3.441 2.8672 3.4818 2.9468 3.4818 2.9468L3.4044 3.2304L3.7044 3.3624L3.8906 3.7638C3.8906 3.7638 4.7676 3.3686 6.1432 3.3686C7.5188 3.3686 8.397 3.7628 8.397 3.7628L8.5832 3.3614L8.8832 3.2294L8.8058 2.9458C8.8058 2.9458 8.8458 2.8658 8.9424 2.639C9.039 2.4122 9.5044 2.167 9.5044 2.167C9.111 1.7624 8.7844 2.5716 8.3694 2.1784C8.2262 2.3924 8.5266 2.6504 8.5266 2.6504C8.49438 2.7205 8.44556 2.78169 8.38437 2.82867C8.32317 2.87564 8.25145 2.90699 8.1754 2.92C7.8596 2.9732 7.5298 2.9534 7.4662 2.3718C7.4662 2.3718 7.252 2.9598 6.7572 2.8318C6.4348 2.7482 6.306 2.4918 6.2606 2.3612C6.5806 2.3224 6.8256 2.1266 6.8256 1.8912H6.3588C6.3408 1.6512 6.144 1.453 6.144 1.453C6.144 1.453 5.9472 1.6508 5.9292 1.8912H5.4624C5.4624 2.1266 5.7066 2.3224 6.0274 2.3612C5.9818 2.4912 5.853 2.7482 5.5308 2.8318C5.036 2.9606 4.822 2.3718 4.822 2.3718C4.7582 2.9534 4.4284 2.9732 4.1128 2.92C4.03677 2.9072 3.96501 2.87605 3.90374 2.82924C3.84247 2.78244 3.79354 2.72139 3.7612 2.6514C3.7612 2.6514 4.0612 2.3934 3.9182 2.1794C3.5028 2.5726 3.1768 1.7634 2.7832 2.168C2.7832 2.167 3.2494 2.412 3.345 2.64Z" fill="#DAA900"/>
<path d="M8.37742 4.27519C8.38802 4.25393 8.39362 4.23054 8.39382 4.20679C8.39382 3.89119 7.38642 3.63559 6.14442 3.63559C4.90242 3.63559 3.89502 3.89119 3.89502 4.20679C3.89524 4.23051 3.90078 4.25389 3.91122 4.27519C4.39002 4.02179 5.21122 3.85519 6.14442 3.85519C7.07762 3.85519 7.89902 4.02179 8.37742 4.27519Z" fill="#DAA900"/>
<path d="M5.07971 10.8056L5.50971 10.468L5.12111 10.4632C4.99246 10.654 4.92004 10.8772 4.91211 11.1072L5.22911 11.3316L5.07971 10.8056Z" fill="#DAA900"/>
<path d="M6.48234 9.96561C6.26116 9.90294 6.02692 9.90294 5.80574 9.96561L5.68994 10.3366L6.14394 10.032L6.59794 10.3366L6.48234 9.96561Z" fill="#DAA900"/>
<path d="M6.77881 10.468L7.20881 10.8056L7.05921 11.3316L7.37701 11.1072C7.36915 10.8772 7.2968 10.654 7.16821 10.4632L6.77881 10.468Z" fill="#DAA900"/>
<path d="M5.29696 11.5438L5.17236 11.9118C5.31423 12.0929 5.5038 12.2308 5.71976 12.31L6.03156 12.0776L5.48516 12.0576L5.29696 11.5438Z" fill="#DAA900"/>
<path d="M6.80206 12.0572L6.25586 12.0772L6.56746 12.3096C6.78345 12.2304 6.97304 12.0925 7.11486 11.9114L6.99046 11.5434L6.80206 12.0572Z" fill="#DAA900"/>
<path d="M0.433594 0.224213V6.10421C0.433594 12.2418 5.36659 15.2912 6.14419 15.7348C6.92179 15.2916 11.8552 12.2422 11.8552 6.10461V0.224613L0.433594 0.224213ZM11.4062 6.10421C11.4062 11.6476 7.32399 14.4924 6.14419 15.2042C4.96419 14.4918 0.882594 11.647 0.882594 6.10421V0.673413H11.4062V6.10421Z" fill="#A32035"/>
<path d="M10.2015 6.8114C10.2022 7.63117 9.96851 8.43404 9.52802 9.1254C9.08753 9.81677 8.4586 10.3678 7.71533 10.7136C7.73833 10.796 7.75472 10.88 7.76433 10.965C8.45438 10.6692 9.05673 10.2009 9.51351 9.60503C9.97028 9.0092 10.2661 8.30588 10.3726 7.5627C10.479 6.81951 10.3925 6.06143 10.1214 5.36132C9.85025 4.66122 9.40359 4.04263 8.82433 3.565L8.75913 3.5932C9.21364 3.99698 9.57724 4.49264 9.82589 5.04742C10.0745 5.6022 10.2026 6.20345 10.2015 6.8114Z" fill="#A32035"/>
<path d="M4.51854 11.0242C4.52214 10.975 4.52814 10.9266 4.53614 10.8786C3.52917 10.5308 2.68717 9.82147 2.17334 8.88821C2.65996 9.86881 3.49687 10.6311 4.51854 11.0242Z" fill="#A32035"/>
<path d="M6.27875 5.69299V6.08139C6.61875 5.96019 6.81475 5.74139 6.81475 5.53419C6.81461 5.50742 6.81261 5.48069 6.80875 5.45419H6.07715C6.07715 5.45419 6.27875 5.50539 6.27875 5.69299Z" fill="#A32035"/>
<path d="M6.27884 7.03601V8.82561C6.27884 9.01321 6.07764 9.06561 6.07764 9.06561H8.45504C9.40804 9.06561 9.08064 8.50561 9.08064 8.50561C9.08064 8.50561 8.89444 8.83121 8.33004 8.83121H6.98704V7.69521L6.27884 7.03601Z" fill="#A32035"/>
<path d="M5.56133 6.19479C5.56133 6.19479 5.80653 6.07299 5.80653 5.85039C5.80653 5.63419 5.53653 5.51699 5.21533 5.45819V5.72919C5.43853 5.83119 5.54713 5.99719 5.56133 6.19479Z" fill="#A32035"/>
<path d="M3.09961 8.50419C3.09961 8.82419 3.70721 9.11139 4.56241 9.11139C5.63661 9.11139 6.08361 8.55479 6.08361 8.02879C6.08361 6.90159 3.74841 6.92459 3.74841 6.18299C3.74841 5.98939 3.89521 5.83139 4.09861 5.73239V5.46619C3.61861 5.57839 3.15861 5.85679 3.15861 6.34759C3.15861 7.39219 5.42181 7.35759 5.42181 8.17999C5.42181 8.60299 5.12621 8.89139 4.56181 8.89139C3.92181 8.89139 3.38001 8.55839 3.51421 8.06059C3.51481 8.05999 3.09961 8.15699 3.09961 8.50419Z" fill="#A32035"/>
<path d="M4.83458 11.2758C4.81736 11.4638 4.87387 11.6512 4.99218 11.7984L5.04158 11.6462C5.04158 11.6462 4.86278 11.4844 4.83458 11.2758Z" fill="#A32035"/>
<path d="M5.85742 12.4358C6.03095 12.51 6.22649 12.5142 6.40302 12.4474L6.27382 12.3534C6.27382 12.3534 6.06482 12.4734 5.85742 12.4358Z" fill="#A32035"/>
<path d="M7.32754 11.4C7.32754 11.4 7.37734 11.6358 7.27734 11.821C7.40185 11.679 7.46639 11.4942 7.45734 11.3056L7.32754 11.4Z" fill="#A32035"/>
<path d="M6.69727 9.9512L6.74667 10.1028C6.74667 10.1028 6.98667 10.129 7.13207 10.2812C7.03542 10.119 6.87951 10.0006 6.69727 9.9512Z" fill="#A32035"/>
<path d="M5.62154 9.94421C5.43745 9.98605 5.27677 10.0977 5.17334 10.2556H5.33334C5.33334 10.2556 5.43194 10.0354 5.62154 9.94421Z" fill="#A32035"/>
<path d="M6.5072 10.77L6.6432 10.4652L6.3954 10.6888H5.8934L5.6458 10.4652L5.7818 10.77L5.6266 11.2472L5.3374 11.4136L5.6692 11.3784L6.0754 11.6736L6.1444 12L6.2134 11.6732L6.6196 11.378L6.9514 11.4132L6.6622 11.2468L6.5072 10.77ZM6.0352 10.9742L5.7586 11.3434L5.9204 10.8234H6.4404L6.0352 10.9742Z" fill="#A32035"/>
<path d="M1.10693 0.897797V6.1046C1.10693 11.3622 4.86693 14.1404 6.14433 14.9402C7.42173 14.1402 11.1819 11.3622 11.1819 6.1046V0.897797H1.10693ZM4.99213 11.7978C4.87383 11.6506 4.81732 11.4632 4.83453 11.2752C4.86273 11.4838 5.04153 11.6456 5.04153 11.6456L4.99213 11.7978ZM5.85733 12.4358C6.06433 12.4734 6.27373 12.3534 6.27373 12.3534L6.40293 12.4474C6.2264 12.5142 6.03087 12.51 5.85733 12.4358ZM7.32753 11.4L7.45673 11.3062C7.46578 11.4948 7.40124 11.6796 7.27673 11.8216C7.37733 11.6358 7.32753 11.4 7.32753 11.4ZM7.03033 11.44L7.20133 11.9452C7.04211 12.1571 6.82301 12.3163 6.57233 12.4024L6.14433 12.0836L5.71733 12.402C5.46672 12.3159 5.24768 12.1567 5.08853 11.9448L5.25853 11.44L4.82313 11.1316C4.82674 10.8664 4.9104 10.6084 5.06313 10.3916L5.59673 10.398L5.75533 9.8882C6.00877 9.81087 6.2795 9.81087 6.53293 9.8882L6.69173 10.398L7.22513 10.3916C7.37795 10.6084 7.46161 10.8664 7.46513 11.1316L7.03033 11.44ZM4.56253 8.8914C5.12713 8.8914 5.42253 8.603 5.42253 8.18C5.42253 7.3576 3.15933 7.3922 3.15933 6.3476C3.15933 5.8568 3.61833 5.5784 4.09933 5.4662V5.7324C3.89593 5.8314 3.74913 5.9894 3.74913 6.183C3.74913 6.9246 6.08433 6.9016 6.08433 8.0288C6.08433 8.5548 5.63733 9.1114 4.56313 9.1114C3.70793 9.1114 3.10033 8.8232 3.10033 8.5042C3.10033 8.157 3.51553 8.0606 3.51553 8.0606C3.38073 8.5584 3.92293 8.8914 4.56253 8.8914ZM5.30673 8.3114H4.02053C4.02053 8.3114 4.23733 8.1968 4.23733 8.0618V7.4748C4.56253 7.6064 4.87853 7.7218 5.07733 7.863V8.0618C5.07733 8.1968 5.30673 8.3114 5.30673 8.3114ZM8.37733 4.2752C7.89893 4.0218 7.07733 3.8552 6.14433 3.8552C5.21133 3.8552 4.38993 4.0224 3.91113 4.2752C3.90069 4.25389 3.89516 4.23052 3.89493 4.2068C3.89493 3.8912 4.90233 3.6356 6.14433 3.6356C7.38633 3.6356 8.39373 3.8912 8.39373 4.2068C8.39354 4.23055 8.38793 4.25394 8.37733 4.2752ZM7.13113 10.2812C6.98593 10.129 6.74573 10.1028 6.74573 10.1028L6.69733 9.9512C6.87921 10.0009 7.03472 10.1192 7.13113 10.2812ZM5.62153 9.9442C5.43193 10.0354 5.33293 10.2556 5.33293 10.2556H5.17293C5.27646 10.0976 5.43729 9.98593 5.62153 9.9442ZM6.07773 9.0642C6.07773 9.0642 6.27893 9.0126 6.27893 8.8242V7.036L6.98713 7.696V8.8316H8.33013C8.89453 8.8316 9.08073 8.506 9.08073 8.506C9.08073 8.506 9.40813 9.066 8.45513 9.066L6.07773 9.0642ZM8.54433 8.4496C8.19313 8.4496 7.78953 8.2376 7.58613 8.0634L6.13273 6.7102C5.99433 6.594 5.84253 6.5336 5.57713 6.5344H5.07733V6.8768C4.77153 6.7526 4.46353 6.6506 4.23733 6.5402V4.7754C4.23733 4.6602 3.99473 4.5248 3.99473 4.5248H5.81733C7.36853 4.5248 7.86633 5.063 7.86633 5.461C7.86633 6.2886 6.44153 6.3978 6.44153 6.3978C6.75993 6.4386 7.051 6.57746 7.31473 6.8144L8.66353 8.092C8.88473 8.2814 9.17573 8.2996 9.17573 8.2996C9.17573 8.2996 8.99553 8.4502 8.54433 8.4502V8.4496ZM8.58833 4.022L8.63533 3.922C9.25611 4.54627 9.65184 5.35912 9.76033 6.2328C9.62576 5.38642 9.21344 4.60886 8.58833 4.0226V4.022ZM8.58313 3.3608L8.39733 3.7628C8.39733 3.7628 7.52033 3.3676 6.14473 3.3676C4.76913 3.3676 3.89213 3.7628 3.89213 3.7628L3.70593 3.3614L3.40593 3.2294L3.48333 2.9458C3.48333 2.9458 3.44333 2.8658 3.34653 2.639C3.24973 2.4122 2.78473 2.167 2.78473 2.167C3.17833 1.7624 3.50473 2.5716 3.91973 2.1784C4.06313 2.3924 3.76273 2.6504 3.76273 2.6504C3.79483 2.72043 3.84352 2.78158 3.90458 2.82855C3.96563 2.87553 4.03722 2.90692 4.11313 2.92C4.42873 2.9732 4.75853 2.9534 4.82233 2.3718C4.82233 2.3718 5.03633 2.9598 5.53113 2.8318C5.85333 2.7482 5.98213 2.4918 6.02773 2.3612C5.70773 2.3224 5.46273 2.1266 5.46273 1.8912H5.92953C5.94753 1.6512 6.14433 1.453 6.14433 1.453C6.14433 1.453 6.34113 1.6508 6.35913 1.8912H6.82593C6.82593 2.1266 6.58173 2.3224 6.26093 2.3612C6.30633 2.4912 6.43513 2.7482 6.75753 2.8318C7.25233 2.9606 7.46653 2.3718 7.46653 2.3718C7.53013 2.9534 7.85993 2.9732 8.17573 2.92C8.25175 2.90715 8.32349 2.87598 8.38475 2.82918C8.44601 2.78238 8.49495 2.72136 8.52733 2.6514C8.52733 2.6514 8.22733 2.3934 8.37013 2.1794C8.78553 2.5726 9.11173 1.7634 9.50513 2.168C9.50513 2.168 9.03893 2.413 8.94313 2.64C8.84733 2.867 8.80653 2.9468 8.80653 2.9468L8.88393 3.2304L8.58313 3.3608ZM3.47233 3.535L3.59453 3.7974C3.05116 4.2233 2.63157 4.78676 2.37923 5.42939C2.12689 6.07202 2.051 6.77044 2.15941 7.45227C2.26782 8.1341 2.55659 8.77454 2.99579 9.30721C3.435 9.83989 4.00866 10.2454 4.65733 10.4818C4.65193 10.4946 4.64613 10.5066 4.64073 10.519C3.94414 10.2959 3.32244 9.88532 2.84383 9.3322C2.36522 8.77908 2.0482 8.10483 1.92754 7.38341C1.80688 6.66199 1.88724 5.92128 2.15981 5.24252C2.43239 4.56377 2.88664 3.9732 3.47273 3.5356L3.47233 3.535ZM2.17353 8.8882C2.68761 9.82165 3.52999 10.531 4.53733 10.8786C4.52933 10.9266 4.52333 10.975 4.51973 11.0242C3.49769 10.6313 2.66039 9.86898 2.17353 8.8882ZM7.76453 10.965C7.75492 10.88 7.73853 10.796 7.71553 10.7136C8.36209 10.412 8.9236 9.95449 9.34963 9.3822C9.77565 8.80992 10.0528 8.14077 10.1563 7.43487C10.2598 6.72896 10.1863 6.00841 9.9424 5.33794C9.69854 4.66747 9.29194 4.06807 8.75913 3.5936L8.82433 3.5654C9.40359 4.04302 9.85025 4.66161 10.1214 5.36172C10.3925 6.06182 10.479 6.8199 10.3726 7.56309C10.2661 8.30628 9.97028 9.00959 9.51351 9.60543C9.05674 10.2013 8.45438 10.6696 7.76433 10.9654L7.76453 10.965Z" fill="#001E61"/>
<path d="M6.95335 5.53421C6.95335 5.01421 6.44455 4.75421 5.68255 4.75421H5.07715V6.31541H5.68295C6.42515 6.31481 6.95335 5.95601 6.95335 5.53421ZM5.56135 6.19421C5.54715 5.99661 5.43855 5.83061 5.21535 5.72861V5.45821C5.53655 5.51701 5.80655 5.63421 5.80655 5.85041C5.80655 6.07301 5.56135 6.19481 5.56135 6.19481V6.19421ZM6.27875 6.08081V5.69301C6.27875 5.50541 6.07755 5.45401 6.07755 5.45401H6.80875C6.81261 5.48051 6.81461 5.50724 6.81475 5.53401C6.81475 5.74181 6.61895 5.96001 6.27875 6.08141V6.08081Z" fill="#001E61"/>
</g>
<defs>
<clipPath id="clip0_795_1957">
<rect width="11.8704" height="16" fill="white" transform="translate(0.208984)"/>
</clipPath>
</defs>
</svg>
