<svg width="15" height="16" viewBox="0 0 15 16" fill="none" xmlns="http://www.w3.org/2000/svg">
<g clip-path="url(#clip0_882_26501)">
<path d="M6.68478 0.409462H6.995V0H7.27416V0.409462H7.58435V0.688625H7.27416V0.891621C7.37349 0.926321 7.45593 0.996965 7.50587 1.088C7.56578 1.03693 7.64346 1.00605 7.72833 1.00605C7.91785 1.00605 8.07154 1.15974 8.07154 1.34926C8.07154 1.35712 8.07125 1.3649 8.07073 1.37262C8.12353 1.33948 8.18593 1.32034 8.25285 1.32034C8.36155 1.32034 8.45845 1.37089 8.52134 1.44977C8.54583 1.28425 8.68851 1.15722 8.86082 1.15722C9.05035 1.15722 9.20404 1.31092 9.20404 1.50044C9.20404 1.54017 9.1973 1.57828 9.18487 1.61376C9.24756 1.54586 9.33729 1.50336 9.43699 1.50336C9.61749 1.50336 9.76552 1.64276 9.77916 1.81976C9.80672 1.81262 9.83561 1.80886 9.86539 1.80886C10.0549 1.80886 10.2086 1.96256 10.2086 2.15208C10.2086 2.18701 10.2033 2.22067 10.1937 2.25242C10.3339 2.29559 10.4359 2.42618 10.4359 2.58054C10.4359 2.63464 10.4233 2.68582 10.401 2.73134C10.4896 2.79339 10.5476 2.89631 10.5476 3.01267C10.5476 3.09213 10.5206 3.16529 10.4752 3.22347C10.5448 3.28628 10.5886 3.37722 10.5886 3.47835C10.5886 3.61131 10.513 3.7266 10.4024 3.78359C10.4187 3.82275 10.4231 3.8719 10.4152 3.92771C10.4002 4.03419 10.3326 4.13088 10.1999 4.16298C10.0521 4.1989 9.89975 4.21922 9.7475 4.21717C9.7639 4.4202 9.6085 4.64115 9.40709 4.64528L9.59175 4.95961L9.26881 5.03251C9.37907 5.12383 9.40021 5.30147 9.35206 5.43104C9.32838 5.49477 9.2879 5.547 9.23836 5.58997C10.6479 6.34288 11.6075 7.82839 11.6075 9.53775C11.6075 9.81648 11.5819 10.0892 11.5331 10.3538C11.5654 10.374 11.5974 10.3943 11.6287 10.4149C11.9941 10.6547 12.3221 10.9466 12.6156 11.2698V11.27C12.7326 11.3996 12.8533 11.5313 12.9802 11.6665C13.104 11.7984 13.2296 11.9292 13.3578 12.0582C13.5813 12.2831 13.8074 12.5034 14.0436 12.7152C13.2864 12.9125 12.6238 13.2369 11.9828 13.6232L13.7275 15.3927L13.0781 15.8196L11.3264 14.0408C11.2085 14.1191 11.0905 14.1986 10.9718 14.2792C10.545 14.569 10.1155 14.8606 9.65899 15.1237C8.92895 15.5446 8.21314 15.8353 7.5454 15.9483C6.95902 16.0475 6.36131 16.0141 5.81661 15.7582C5.30706 15.2065 4.78954 14.6843 4.1414 14.2925C3.62084 14.1938 3.17141 13.6654 2.91651 13.2458L2.91414 13.2414C2.82831 13.07 2.71377 12.8933 2.57124 12.7119C2.23407 12.2827 1.8317 11.8866 1.37174 11.5902C1.07211 11.3971 0.915669 11.2494 0.794767 10.9072C0.70686 10.6584 0.591974 10.4202 0.50132 10.1719C0.434956 9.99015 0.376746 9.81171 0.335077 9.65562C0.195148 9.13141 0.259749 8.59619 0.370529 8.07121C0.414627 7.86231 0.459535 7.64951 0.483189 7.42092C0.50771 7.18392 0.490881 6.94304 0.41908 6.71512C0.0459087 5.50617 0.343145 4.13479 0.641046 2.91933C0.198387 3.00353 -0.0263255 2.43228 0.273484 2.11159L0.501696 1.86748C0.922406 1.41759 1.54649 1.93835 1.24188 2.411L4.50731 5.91791C4.67352 5.79707 4.8483 5.68727 5.03068 5.58988C4.98114 5.54694 4.94066 5.49469 4.91698 5.43098C4.8688 5.30141 4.88997 5.12377 5.00023 5.03245L4.67728 4.95955L4.86195 4.64523C4.66051 4.64109 4.50514 4.42014 4.52154 4.21711C4.36929 4.2192 4.2169 4.19884 4.06911 4.16292C3.93641 4.13085 3.8688 4.03413 3.85379 3.92766C3.84593 3.87185 3.85026 3.82269 3.8666 3.78353C3.75602 3.72654 3.68038 3.61125 3.68038 3.47829C3.68038 3.37717 3.72416 3.28622 3.79379 3.22342C3.74842 3.16524 3.72135 3.09208 3.72135 3.01261C3.72135 2.89622 3.77936 2.79334 3.86799 2.73128C3.84566 2.68574 3.83311 2.63458 3.83311 2.58048C3.83311 2.42612 3.93508 2.29553 4.07529 2.25236C4.06561 2.22061 4.06034 2.18695 4.06034 2.15202C4.06034 1.9625 4.21404 1.8088 4.40356 1.8088C4.43334 1.8088 4.46223 1.81259 4.48979 1.81971C4.50346 1.64271 4.65146 1.5033 4.83196 1.5033C4.93164 1.5033 5.02139 1.54584 5.08409 1.6137C5.07165 1.57822 5.06491 1.54011 5.06491 1.50038C5.06491 1.31086 5.21861 1.15716 5.40813 1.15716C5.58041 1.15716 5.72312 1.2842 5.74761 1.44972C5.8105 1.37083 5.90741 1.32028 6.0161 1.32028C6.08302 1.32028 6.14542 1.33943 6.19819 1.37257C6.19767 1.36484 6.19741 1.35707 6.19741 1.3492C6.19741 1.15968 6.3511 1.00599 6.54063 1.00599C6.62555 1.00599 6.70325 1.03687 6.76317 1.08797C6.81311 0.996965 6.89552 0.926292 6.99479 0.891592V0.688567H6.68457V0.409462H6.68478ZM3.2402 7.33646C3.43146 6.999 3.6654 6.68889 3.93453 6.41335L0.797254 3.04925C0.95462 3.66018 1.17419 4.22368 1.47405 4.79551C1.95378 5.71035 2.57396 6.54897 3.2402 7.33646Z" fill="#000001"/>
<path d="M1.73633 10.8564C1.20186 10.2532 1.35353 9.28546 1.47686 8.49907C1.49505 8.38305 1.51263 8.27103 1.52735 8.1641C1.5569 7.81004 1.56129 7.43421 1.52816 7.06746C1.49892 6.74417 1.44051 6.42782 1.34448 6.13954L1.34401 6.13769C1.31741 5.94927 1.30729 5.74815 1.31001 5.54643C1.31302 5.32464 1.33155 5.10224 1.36076 4.89519L1.36371 4.87446L1.355 4.85795C1.1025 4.37646 0.836929 3.84126 0.698677 3.31177C0.45809 4.39123 0.228924 5.59137 0.548628 6.67503C0.62601 6.9207 0.64443 7.17928 0.618 7.43473C0.593565 7.67069 0.547963 7.8867 0.5032 8.09877C0.419977 8.49311 0.362375 8.82892 0.418502 9.16867C0.495681 9.63596 0.794363 10.0568 1.12974 10.3782C1.31857 10.5629 1.52125 10.7234 1.73633 10.8564Z" fill="#0069B7"/>
<path d="M9.28387 4.62079C9.28094 4.61958 9.27808 4.6183 9.27516 4.61697C8.95037 4.46993 8.60672 4.35909 8.24971 4.28495C7.52593 4.13467 6.74326 4.13467 6.01947 4.28495C5.66247 4.35907 5.31885 4.46993 4.99403 4.61697C4.99111 4.61828 4.98824 4.61958 4.98535 4.62079L5.3266 4.66298L5.35242 4.66619L5.33608 4.68637L5.1007 4.97745C5.40878 4.83978 5.73268 4.73244 6.0686 4.65937C6.76813 4.50712 7.50123 4.50761 8.20073 4.65983C8.53206 4.73195 8.85665 4.83813 9.1686 4.97748L8.93319 4.68637L8.91685 4.66619L8.94268 4.66298L9.28387 4.62079Z" fill="#F9BB13"/>
<path d="M2.51896 11.2002C2.41252 11.0231 2.32675 10.8245 2.25637 10.6204C2.18147 10.4031 2.12387 10.1791 2.07731 9.9681C1.9759 9.52446 2.01456 9.07726 2.05346 8.62711C2.07662 8.35926 2.09984 8.09033 2.09368 7.82143C2.0818 7.70698 2.06708 7.59126 2.05218 7.47455C1.99079 6.99219 1.92723 6.49239 2.05594 6.03351C1.81165 5.6684 1.58457 5.29231 1.37972 4.9061C1.35361 5.10215 1.33331 5.34014 1.33051 5.54666C1.32779 5.74694 1.33785 5.94667 1.36425 6.13393C1.46063 6.42357 1.51925 6.74113 1.5486 7.06555C1.58188 7.43386 1.57752 7.81091 1.5479 8.16583L1.54782 8.16638C1.53319 8.27271 1.51549 8.38554 1.49718 8.50231C1.37079 9.30828 1.21446 10.3059 1.80283 10.8968C1.98345 11.0024 2.17251 11.0889 2.36911 11.1544C2.41862 11.171 2.46856 11.1863 2.51896 11.2002Z" fill="white"/>
<path d="M3.01854 11.29C2.78906 10.7519 2.66203 10.1596 2.66203 9.53771C2.66203 8.79868 2.84151 8.10152 3.15905 7.4873C2.77347 7.03247 2.40684 6.55482 2.07212 6.05664C1.95102 6.5067 2.01351 6.99771 2.07386 7.47183C2.08881 7.58923 2.10361 7.70562 2.11544 7.81947L2.11547 7.82034C2.12175 8.0912 2.09847 8.36059 2.07528 8.62888C2.03653 9.07744 1.99801 9.52304 2.09864 9.9633V9.96339C2.14499 10.1734 2.20237 10.3965 2.27714 10.6134C2.34967 10.8238 2.43844 11.028 2.54925 11.2082C2.7017 11.2486 2.85823 11.2761 3.01854 11.29Z" fill="#0069B7"/>
<path d="M6.43658 15.1931C6.39335 15.3885 6.33063 15.5832 6.24902 15.7756C6.642 15.8837 7.07046 15.8916 7.52295 15.8151C8.17454 15.7048 8.87531 15.4198 9.5916 15.0069C10.0437 14.7462 10.4712 14.456 10.896 14.1677C11.7924 13.5591 12.6706 12.9607 13.7622 12.6509C13.6364 12.5346 13.5152 12.4111 13.3945 12.2881C11.9955 12.3169 10.8896 13.0945 9.79064 13.8672C9.67862 13.946 9.56665 14.0247 9.45315 14.1035L9.45263 14.1039C8.9908 14.3821 8.51813 14.6543 8.01948 14.857C7.5224 15.059 6.9997 15.192 6.43658 15.1931Z" fill="#0069B7"/>
<path d="M6.50789 14.5389C6.50893 14.7495 6.48649 14.961 6.44141 15.1718C6.99973 15.17 7.51833 15.0379 8.01168 14.8373C8.50893 14.6352 8.98074 14.3635 9.44179 14.0857C9.55329 14.0083 9.66592 13.9291 9.77861 13.8499C10.875 13.0789 11.9783 12.3033 13.3744 12.2674C13.337 12.2292 13.2995 12.1911 13.262 12.1533C13.142 12.0325 13.0252 11.9113 12.9108 11.7899C12.5141 11.8194 12.1469 11.9083 11.7951 12.0355C11.4369 12.1649 11.0946 12.334 10.7534 12.5199C10.0861 12.9424 9.4083 13.3663 8.70282 13.7255C8.00413 14.0812 7.27809 14.3737 6.50789 14.5389Z" fill="white"/>
<path d="M6.33301 13.5792C6.4295 13.8392 6.48551 14.1056 6.50255 14.3747C6.50555 14.4221 6.50732 14.4697 6.5079 14.5172C7.27437 14.3523 7.99737 14.0609 8.6934 13.7065C9.39845 13.3476 10.0757 12.924 10.7424 12.5019L10.743 12.5016C11.0853 12.315 11.4286 12.1455 11.788 12.0155C12.1365 11.8896 12.5001 11.8009 12.8923 11.77L12.882 11.759C12.7615 11.6306 12.6392 11.497 12.5159 11.3606L12.5158 11.3607C12.4538 11.2924 12.3902 11.2256 12.325 11.1604C10.7802 11.2173 9.48514 12.0091 8.22414 12.7801L8.19551 12.7976L8.19485 12.798L8.17154 12.81C7.57721 13.1156 6.98734 13.4189 6.33301 13.5792Z" fill="#0069B7"/>
<path d="M6.11328 13.1158C6.19783 13.2609 6.26848 13.409 6.32553 13.5592C6.97836 13.3997 7.56788 13.0966 8.16186 12.7911L8.18485 12.7793L8.21313 12.762C9.4711 11.9929 10.763 11.2031 12.3046 11.1401C12.1871 11.0238 12.0644 10.9128 11.9364 10.8084C11.5316 10.7378 11.1268 10.7511 10.7375 10.8225C10.2877 10.9051 9.85844 11.0654 9.4733 11.2639L9.47275 11.2642C8.98203 11.4826 8.52295 11.7858 8.06334 12.0893C7.44149 12.5 6.81856 12.9113 6.11328 13.1158Z" fill="white"/>
<path d="M5.38672 12.2734C5.63642 12.4701 5.86003 12.7145 6.0468 13.0075C6.06571 13.0372 6.08402 13.067 6.10172 13.0969C6.80607 12.8938 7.42914 12.4824 8.0512 12.0716C8.51133 11.7677 8.97093 11.4642 9.46312 11.2451L9.46318 11.245C9.84997 11.0456 10.2812 10.8846 10.7332 10.8016C11.113 10.7319 11.5074 10.7173 11.9023 10.7812C11.7904 10.6915 11.6744 10.6068 11.5544 10.528C11.4523 10.461 11.3506 10.4004 11.2501 10.3406C11.1413 10.2758 11.034 10.2119 10.9324 10.144C10.8749 10.1056 10.8187 10.0667 10.7636 10.0271C9.22427 9.88617 8.00589 10.7014 6.82186 11.4938C6.65787 11.6035 6.49452 11.7128 6.33114 11.8191L6.33056 11.8195C6.02659 11.9902 5.71724 12.1591 5.38672 12.2734Z" fill="#0069B7"/>
<path d="M4.81641 11.9245C4.85932 11.9442 4.90183 11.9649 4.94384 11.9868C5.09132 12.0636 5.23307 12.1539 5.36745 12.2578C5.70169 12.1439 6.014 11.9734 6.32086 11.801C6.48404 11.6948 6.6471 11.5857 6.8108 11.4762C7.98884 10.6878 9.20077 9.8768 10.7308 10.0029C10.6493 9.9436 10.57 9.88259 10.4916 9.81917C10.4162 9.75819 10.3411 9.69445 10.2653 9.62725C9.93969 9.61924 9.60321 9.64321 9.27402 9.69237C8.91302 9.7463 8.56084 9.83059 8.2414 9.9362L8.24074 9.93637C7.6371 10.0943 7.11636 10.4604 6.59494 10.827C6.3117 11.0261 6.02822 11.2254 5.73096 11.3918C5.43604 11.586 5.10907 11.7268 4.81641 11.9245Z" fill="white"/>
<path d="M1.03581 10.4755C0.842331 10.2901 0.668107 10.0748 0.532227 9.8457C0.561201 9.9365 0.593675 10.0309 0.628375 10.1259C0.719174 10.3746 0.834292 10.6131 0.922343 10.8622C1.03298 11.1754 1.16999 11.2994 1.44487 11.4765C1.6889 11.6338 1.90748 11.8142 2.11759 12.015C2.33155 11.9086 2.54883 11.8275 2.77209 11.7659C2.99895 11.7033 3.22846 11.6662 3.45676 11.6584C3.91867 11.6427 4.37591 11.727 4.79352 11.9142C5.089 11.7123 5.42099 11.5706 5.71973 11.3737L5.72034 11.3732C6.01679 11.2073 6.29977 11.0084 6.58246 10.8096C7.10522 10.4421 7.62734 10.0751 8.23448 9.91602C8.55499 9.81007 8.90839 9.72552 9.27066 9.67139C9.59241 9.62333 9.92131 9.59927 10.2406 9.60551C10.1819 9.55303 10.1227 9.49841 10.0627 9.44147C9.9598 9.34379 9.85992 9.24295 9.76389 9.1383C9.67413 9.04048 9.58773 8.9395 9.50532 8.83488C8.82028 8.82788 8.15001 9.00968 7.53695 9.30857C7.04906 9.54641 6.59227 9.84367 6.16895 10.1829C5.72086 10.5418 5.30208 10.8643 4.76785 11.0974C4.45369 11.2345 4.12112 11.3368 3.76579 11.3944C3.25492 11.4773 2.77342 11.4329 2.32663 11.2823C1.84311 11.1291 1.40745 10.8536 1.03581 10.4755Z" fill="#0069B7"/>
<path d="M5.89805 15.6475C5.97026 15.6809 6.04397 15.7103 6.11907 15.7358C6.31023 15.2899 6.39577 14.8324 6.36732 14.3832C6.33892 13.9347 6.19697 13.4938 5.93313 13.08C5.6551 12.6439 5.29126 12.3205 4.88079 12.1069C4.44446 11.8797 3.95542 11.7764 3.46057 11.7933C3.24352 11.8007 3.02462 11.8362 2.80763 11.8961C2.60859 11.951 2.4141 12.0217 2.2207 12.115C2.39675 12.288 2.547 12.4625 2.6773 12.6284C2.82373 12.8148 2.9425 12.9982 3.0328 13.1779C3.27414 13.5602 3.70211 14.0565 4.18898 14.1631C4.84794 14.5551 5.39597 15.0828 5.89805 15.6475Z" fill="white"/>
<path d="M11.8048 13.7252L13.4105 15.3593L13.1062 15.5593L11.501 13.9293L11.8048 13.7252Z" fill="#F9BB13"/>
<path d="M0.972138 2.41848L4.34546 6.04127C4.25376 6.11452 4.16507 6.19138 4.07945 6.27151L0.721516 2.67087C0.622939 2.73677 0.504177 2.7508 0.411296 2.65792C0.292911 2.53953 0.30763 2.37199 0.421967 2.24967L0.650178 2.00555C0.764515 1.88323 0.936917 1.85062 1.05533 1.969C1.17372 2.08739 1.13384 2.2455 1.01947 2.36782L0.972138 2.41848Z" fill="#F9BB13"/>
<path d="M9.0331 5.48677C9.0881 5.45771 9.1418 5.41734 9.16299 5.36038C9.17947 5.31599 9.18503 5.20709 9.13046 5.18205C8.81929 5.03925 8.49305 4.9309 8.15833 4.85806C7.48576 4.71168 6.7845 4.71122 6.11186 4.8576C5.77232 4.93151 5.44683 5.04105 5.13959 5.18205C5.08506 5.20709 5.09061 5.31599 5.10709 5.36038C5.12826 5.41734 5.18196 5.45768 5.23696 5.48677C5.81321 5.21622 6.45641 5.06476 7.13503 5.06476C7.81365 5.06476 8.45687 5.2162 9.0331 5.48677Z" fill="#F9BB13"/>
<path d="M6.45924 4.35252C6.48839 4.40588 6.4606 4.46553 6.41621 4.49913C6.38721 4.52111 6.35274 4.53169 6.31654 4.5397L5.88472 4.63513C5.84048 4.6449 5.79392 4.64909 5.74864 4.62842C5.67516 4.59482 5.65741 4.51637 5.70995 4.4548C5.74132 4.41802 5.78447 4.40053 5.83004 4.39179L6.26709 4.29507C6.33357 4.28041 6.42214 4.28451 6.45924 4.35252Z" fill="#000001"/>
<path d="M6.2678 4.3097L5.83182 4.40573C5.79056 4.41481 5.75025 4.42869 5.72017 4.46394C5.67379 4.5183 5.68917 4.58597 5.75403 4.61564C5.79481 4.63429 5.83997 4.6316 5.88112 4.62249L6.31366 4.52672C6.34556 4.52001 6.37716 4.50971 6.40362 4.49071C6.44364 4.462 6.47241 4.40992 6.44755 4.36134C6.41415 4.29622 6.3287 4.29628 6.2678 4.3097Z" fill="#FF011A"/>
<path d="M4.06419 12.0451C4.06789 12.0415 4.07142 12.0382 4.07512 12.0348C4.17205 12.1272 4.2708 12.2203 4.37091 12.3155C4.47321 12.4123 4.57723 12.5111 4.68321 12.6114C4.67818 12.6174 4.67323 12.6235 4.66817 12.6295C4.50204 12.4879 4.35243 12.3898 4.23474 12.3373C4.11705 12.2853 4.02891 12.2771 3.98738 12.3181C3.9227 12.381 3.99886 12.5367 4.12523 12.6653C4.16774 12.7087 4.20495 12.7403 4.24535 12.7694C4.29786 12.804 4.35552 12.8314 4.41943 12.8529C4.46873 12.872 4.55453 12.8855 4.68266 12.9054C4.77464 12.9196 4.85917 12.9389 4.93519 12.962C5.0113 12.9855 5.08041 13.0143 5.14157 13.0479C5.26264 13.1198 5.3974 13.2207 5.54319 13.3607C5.72803 13.5376 5.88505 13.7352 5.98739 13.9157C6.09383 14.103 6.1425 14.2723 6.10059 14.3774C6.07341 14.4458 6.02851 14.4779 5.89884 14.4746C5.86275 14.4812 5.8428 14.4897 5.83618 14.5049C5.82282 14.5353 5.85411 14.6197 5.95185 14.751C5.94745 14.762 5.94311 14.7727 5.93881 14.7837C5.77534 14.6139 5.61525 14.4469 5.45988 14.2852C5.30836 14.1272 5.16025 13.9726 5.01584 13.8229C5.02096 13.8138 5.02631 13.8055 5.03174 13.7962C5.29104 14.0296 5.5106 14.1841 5.67407 14.261C5.83797 14.3381 5.94152 14.3347 5.97385 14.2585C6.02102 14.1467 5.87822 13.905 5.69882 13.7298C5.5853 13.619 5.48097 13.5531 5.36588 13.5078C5.30226 13.4817 5.22913 13.4715 5.12647 13.4572C4.97848 13.4366 4.86544 13.4107 4.76559 13.3732C4.66571 13.3353 4.58012 13.2871 4.48608 13.2236C4.40005 13.1616 4.29989 13.0773 4.20972 12.9833C4.05577 12.8232 3.941 12.6568 3.88178 12.5185C3.82447 12.3842 3.81836 12.2753 3.87787 12.2197C3.89823 12.2005 3.92654 12.1895 3.95954 12.1889C4.01428 12.1827 4.14084 12.2145 4.15712 12.1983C4.17338 12.1826 4.1656 12.159 4.06419 12.0451Z" fill="#0069B7"/>
<path d="M7.13487 1.49051C7.24464 1.49051 7.33419 1.40098 7.33419 1.29118C7.33419 1.18138 7.24467 1.09186 7.13487 1.09186C7.02507 1.09186 6.93555 1.18138 6.93555 1.29118C6.93555 1.40098 7.0251 1.49051 7.13487 1.49051Z" fill="#F9BB13"/>
<path d="M4.33012 3.63205C4.36358 3.61161 4.40305 3.60021 4.44168 3.59935C4.49246 3.59819 4.54434 3.61473 4.58444 3.65183C4.59242 3.65923 4.59908 3.66617 4.60419 3.67256C4.60674 3.67574 4.60908 3.67907 4.61125 3.68242C4.61969 3.69399 4.62632 3.70498 4.63149 3.71545C4.71816 3.70258 4.79964 3.67525 4.875 3.63558C4.95362 3.59417 5.02557 3.53955 5.08956 3.47399C5.04419 3.43672 5.00972 3.38539 4.99365 3.32441C4.9767 3.25998 4.98289 3.19477 5.00712 3.13772C5.03063 3.08231 5.07152 3.03457 5.12499 3.00262C5.12984 2.929 5.1607 2.86781 5.20613 2.82235C5.24354 2.7849 5.29042 2.75873 5.34021 2.74564C5.3425 2.74503 5.34475 2.74448 5.34704 2.74393C5.3174 2.69671 5.30022 2.64081 5.30022 2.58095C5.30022 2.44675 5.38639 2.33267 5.50646 2.29101C5.48058 2.24277 5.46592 2.1876 5.46592 2.12904C5.46592 1.97691 5.56493 1.84791 5.70202 1.80292C5.68964 1.7751 5.68088 1.74532 5.67626 1.71417C5.61336 1.79306 5.51649 1.84366 5.40779 1.84366C5.30809 1.84366 5.21833 1.8011 5.15561 1.7332C5.16801 1.76871 5.17481 1.80685 5.17481 1.84655C5.17481 2.03607 5.02112 2.18977 4.8316 2.18977C4.80181 2.18977 4.77289 2.18595 4.74534 2.17884C4.73432 2.32137 4.6362 2.43946 4.50417 2.48009C4.51386 2.51184 4.51912 2.54556 4.51912 2.58049C4.51912 2.69688 4.46111 2.79974 4.37245 2.86179C4.39475 2.90734 4.40736 2.95852 4.40736 3.01265C4.40736 3.11378 4.36355 3.20469 4.29395 3.2675C4.33929 3.32568 4.36638 3.39887 4.36638 3.47833C4.36644 3.53362 4.35334 3.58581 4.33012 3.63205Z" fill="#FF011A"/>
<path d="M6.73404 2.79111C6.64816 2.74375 6.58995 2.65234 6.58995 2.54734C6.58995 2.43474 6.65689 2.33778 6.75313 2.29403C6.65689 2.25025 6.58995 2.15327 6.58995 2.04069C6.58995 1.89015 6.70961 1.76752 6.85899 1.76269C6.86446 1.71957 6.87978 1.67955 6.90263 1.64491C6.86793 1.62206 6.83676 1.59422 6.81018 1.56241C6.74729 1.64164 6.65013 1.69248 6.54114 1.69248C6.47425 1.69248 6.41179 1.67328 6.35902 1.64017C6.35954 1.64789 6.35983 1.65569 6.35983 1.66356C6.35983 1.81569 6.26079 1.94472 6.1237 1.98971C6.14264 2.03231 6.15319 2.07944 6.15319 2.12903C6.15319 2.29059 6.04149 2.4261 5.89112 2.46259C5.90636 2.499 5.9148 2.53899 5.9148 2.58095C5.9148 2.71425 5.82973 2.82772 5.71094 2.87008C5.7522 2.87925 5.79078 2.8973 5.82386 2.92268C5.8731 2.96045 5.91064 3.01418 5.92761 3.0786C5.946 3.1485 5.93715 3.2192 5.9076 3.27937C6.07324 3.34276 6.254 3.36699 6.42625 3.34484C6.5545 3.32833 6.67794 3.28565 6.78632 3.21362C6.71319 3.16099 6.66551 3.07513 6.66551 2.97815C6.66551 2.9069 6.69133 2.8416 6.73404 2.79111Z" fill="#FF011A"/>
<path d="M7.41085 1.76269C7.56021 1.76752 7.67981 1.89015 7.67981 2.04067C7.67981 2.15327 7.61286 2.25025 7.51663 2.29401C7.61286 2.33779 7.67981 2.43474 7.67981 2.54735C7.67981 2.65231 7.62163 2.74375 7.53574 2.79111C7.57845 2.8416 7.60422 2.90687 7.60422 2.97815C7.60422 3.07514 7.55656 3.16102 7.4834 3.21362C7.59178 3.28565 7.71523 3.32833 7.84345 3.34484C8.01573 3.36702 8.19646 3.34276 8.3621 3.27938C8.33255 3.2192 8.32367 3.14847 8.34209 3.07861C8.35903 3.01418 8.3966 2.96045 8.44584 2.92269C8.47892 2.8973 8.5175 2.87925 8.55876 2.87009C8.43997 2.82775 8.3549 2.71425 8.3549 2.58095C8.3549 2.53899 8.36334 2.499 8.37858 2.46259C8.22821 2.4261 8.11651 2.29059 8.11651 2.12904C8.11651 2.07944 8.12706 2.03231 8.146 1.98971C8.00891 1.94472 7.90984 1.81566 7.90984 1.66356C7.90984 1.6557 7.91016 1.64789 7.91068 1.64017C7.85788 1.67328 7.79545 1.69248 7.72856 1.69248C7.61957 1.69248 7.5225 1.64167 7.45961 1.56244C7.43303 1.59422 7.40189 1.62207 7.36719 1.64491C7.39006 1.67955 7.40542 1.71957 7.41085 1.76269Z" fill="#FF011A"/>
<path d="M9.93831 3.63205C9.90485 3.61161 9.86538 3.60021 9.82675 3.59935C9.77597 3.59819 9.72409 3.61473 9.68398 3.65183C9.676 3.65923 9.66935 3.66617 9.66423 3.67256C9.66169 3.67574 9.65935 3.67907 9.65718 3.68242C9.64873 3.69399 9.64211 3.70498 9.63694 3.71545C9.55027 3.70258 9.46878 3.67525 9.39343 3.63558C9.31477 3.59417 9.24286 3.53955 9.17886 3.47399C9.22423 3.43672 9.2587 3.38539 9.27478 3.32441C9.2917 3.25998 9.28554 3.19477 9.26131 3.13772C9.2378 3.08231 9.19691 3.03457 9.14344 3.00262C9.13858 2.929 9.10773 2.86781 9.0623 2.82235C9.02491 2.7849 8.97801 2.75873 8.92821 2.74564C8.92593 2.74503 8.92367 2.74448 8.92139 2.74393C8.95106 2.69671 8.96821 2.64081 8.96821 2.58095C8.96821 2.44675 8.88203 2.33267 8.76197 2.29101C8.78785 2.24277 8.80251 2.1876 8.80251 2.12904C8.80251 1.97691 8.7035 1.84791 8.56641 1.80292C8.57878 1.7751 8.58754 1.74532 8.59217 1.71417C8.65506 1.79306 8.75194 1.84366 8.86063 1.84366C8.96031 1.84366 9.0501 1.8011 9.11282 1.7332C9.10041 1.76871 9.09362 1.80685 9.09362 1.84655C9.09362 2.03607 9.24731 2.18977 9.43683 2.18977C9.46662 2.18977 9.49553 2.18595 9.52309 2.17884C9.53411 2.32137 9.63222 2.43946 9.76423 2.48009C9.75454 2.51184 9.74928 2.54556 9.74928 2.58049C9.74928 2.69688 9.80728 2.79974 9.89594 2.86179C9.87365 2.90734 9.86104 2.95852 9.86104 3.01265C9.86104 3.11378 9.90485 3.20469 9.97445 3.2675C9.92908 3.32568 9.90202 3.39887 9.90202 3.47833C9.90199 3.53362 9.91509 3.58581 9.93831 3.63205Z" fill="#FF011A"/>
<path d="M7.13431 1.89212C7.18624 1.89212 7.22861 1.84975 7.22861 1.79782C7.22861 1.74588 7.18627 1.70352 7.13431 1.70352C7.08237 1.70352 7.04004 1.74588 7.04004 1.79782C7.04004 1.84975 7.08237 1.89212 7.13431 1.89212Z" fill="#F9BB13"/>
<path d="M7.13431 2.32983C7.18624 2.32983 7.22861 2.28747 7.22861 2.23553C7.22861 2.1836 7.18627 2.14124 7.13431 2.14124C7.08237 2.14124 7.04004 2.1836 7.04004 2.23553C7.04004 2.28747 7.08237 2.32983 7.13431 2.32983Z" fill="#F9BB13"/>
<path d="M6.86786 2.41675C6.93995 2.41675 6.99842 2.47522 6.99842 2.54731C6.99842 2.54867 6.99839 2.55 6.99834 2.55136C6.94536 2.57964 6.90222 2.62388 6.87532 2.67764C6.87284 2.67778 6.87038 2.67787 6.86786 2.67787C6.79575 2.67787 6.7373 2.6194 6.7373 2.54731C6.7373 2.47522 6.79577 2.41675 6.86786 2.41675Z" fill="#F9BB13"/>
<path d="M6.86786 1.9101C6.87209 1.9101 6.87625 1.9103 6.88039 1.9107C6.89895 1.95246 6.92752 1.98884 6.96303 2.01671C6.91436 2.05494 6.87877 2.10901 6.86402 2.17119C6.79369 2.16913 6.7373 2.1115 6.7373 2.04068C6.7373 1.96856 6.79577 1.9101 6.86786 1.9101Z" fill="#F9BB13"/>
<path d="M6.54112 1.54855C6.65089 1.54855 6.74044 1.45902 6.74044 1.34923C6.74044 1.23943 6.65092 1.1499 6.54112 1.1499C6.43132 1.1499 6.3418 1.23943 6.3418 1.34923C6.3418 1.45902 6.43132 1.54855 6.54112 1.54855Z" fill="#F9BB13"/>
<path d="M4.02354 3.67764C4.13331 3.67764 4.22287 3.58811 4.22287 3.47832C4.22287 3.36855 4.13334 3.27899 4.02354 3.27899C3.91375 3.27899 3.82422 3.36855 3.82422 3.47832C3.82422 3.58811 3.91375 3.67764 4.02354 3.67764Z" fill="#F9BB13"/>
<path d="M4.06456 3.21194C4.17433 3.21194 4.26385 3.12242 4.26385 3.01265C4.26385 2.90288 4.17433 2.81332 4.06456 2.81332C3.95479 2.81332 3.86523 2.90288 3.86523 3.01265C3.86523 3.12242 3.95476 3.21194 4.06456 3.21194Z" fill="#F9BB13"/>
<path d="M4.17686 2.77981C4.28663 2.77981 4.37619 2.69029 4.37619 2.58049C4.37619 2.47069 4.28666 2.38116 4.17686 2.38116C4.06707 2.38116 3.97754 2.47069 3.97754 2.58049C3.97757 2.69029 4.06709 2.77981 4.17686 2.77981Z" fill="#F9BB13"/>
<path d="M4.40342 2.35138C4.51319 2.35138 4.60275 2.26185 4.60275 2.15205C4.60275 2.04225 4.51322 1.95273 4.40342 1.95273C4.29363 1.95273 4.2041 2.04225 4.2041 2.15205C4.2041 2.26185 4.29363 2.35138 4.40342 2.35138Z" fill="#F9BB13"/>
<path d="M4.83214 2.04586C4.9419 2.04586 5.03146 1.95634 5.03146 1.84654C5.03146 1.73674 4.94193 1.64722 4.83214 1.64722C4.72234 1.64722 4.63281 1.73674 4.63281 1.84654C4.63281 1.95634 4.72234 2.04586 4.83214 2.04586Z" fill="#F9BB13"/>
<path d="M5.40831 1.69973C5.51808 1.69973 5.60763 1.61021 5.60763 1.50041C5.60763 1.39061 5.51811 1.30109 5.40831 1.30109C5.29851 1.30109 5.20898 1.39061 5.20898 1.50041C5.20898 1.61021 5.29851 1.69973 5.40831 1.69973Z" fill="#F9BB13"/>
<path d="M6.01671 1.86288C6.1265 1.86288 6.21603 1.77335 6.21603 1.66356C6.21603 1.55376 6.1265 1.46423 6.01671 1.46423C5.90694 1.46423 5.81738 1.55379 5.81738 1.66356C5.81738 1.77333 5.90694 1.86288 6.01671 1.86288Z" fill="#F9BB13"/>
<path d="M5.80968 2.32834C5.91944 2.32834 6.009 2.23881 6.009 2.12904C6.009 2.01924 5.91947 1.92972 5.80968 1.92972C5.69988 1.92972 5.61035 2.01924 5.61035 2.12904C5.61038 2.23884 5.69991 2.32834 5.80968 2.32834Z" fill="#F9BB13"/>
<path d="M5.60731 2.74392C5.69707 2.74392 5.77029 2.67073 5.77029 2.58094C5.77029 2.49119 5.69707 2.41797 5.60731 2.41797C5.51755 2.41797 5.44434 2.49119 5.44434 2.58094C5.44434 2.67073 5.51755 2.74392 5.60731 2.74392Z" fill="#F9BB13"/>
<path d="M10.2452 3.67764C10.355 3.67764 10.4445 3.58811 10.4445 3.47832C10.4445 3.36855 10.355 3.27899 10.2452 3.27899C10.1355 3.27899 10.0459 3.36855 10.0459 3.47832C10.0459 3.58811 10.1355 3.67764 10.2452 3.67764Z" fill="#F9BB13"/>
<path d="M10.2042 3.21194C10.314 3.21194 10.4035 3.12242 10.4035 3.01265C10.4035 2.90288 10.314 2.81332 10.2042 2.81332C10.0944 2.81332 10.0049 2.90288 10.0049 3.01265C10.0049 3.12242 10.0944 3.21194 10.2042 3.21194Z" fill="#F9BB13"/>
<path d="M10.0929 2.77981C10.2026 2.77981 10.2922 2.69029 10.2922 2.58049C10.2922 2.47069 10.2027 2.38116 10.0929 2.38116C9.98308 2.38116 9.89355 2.47069 9.89355 2.58049C9.89358 2.69029 9.98311 2.77981 10.0929 2.77981Z" fill="#F9BB13"/>
<path d="M9.86531 2.35138C9.97511 2.35138 10.0646 2.26185 10.0646 2.15205C10.0646 2.04225 9.97511 1.95273 9.86531 1.95273C9.75554 1.95273 9.66602 2.04225 9.66602 2.15205C9.66602 2.26185 9.75554 2.35138 9.86531 2.35138Z" fill="#F9BB13"/>
<path d="M9.43663 2.04586C9.5464 2.04586 9.63595 1.95634 9.63595 1.84654C9.63595 1.73674 9.54643 1.64722 9.43663 1.64722C9.32683 1.64722 9.2373 1.73674 9.2373 1.84654C9.2373 1.95634 9.32686 2.04586 9.43663 2.04586Z" fill="#F9BB13"/>
<path d="M8.86046 1.69973C8.97022 1.69973 9.05978 1.61021 9.05978 1.50041C9.05978 1.39061 8.97022 1.30109 8.86046 1.30109C8.75069 1.30109 8.66113 1.39061 8.66113 1.50041C8.66113 1.61021 8.75066 1.69973 8.86046 1.69973Z" fill="#F9BB13"/>
<path d="M7.72862 1.54855C7.83839 1.54855 7.92794 1.45902 7.92794 1.34923C7.92794 1.23943 7.83842 1.1499 7.72862 1.1499C7.61882 1.1499 7.5293 1.23943 7.5293 1.34923C7.5293 1.45902 7.61885 1.54855 7.72862 1.54855Z" fill="#F9BB13"/>
<path d="M8.25303 1.86288C8.3628 1.86288 8.45236 1.77335 8.45236 1.66356C8.45236 1.55376 8.36283 1.46423 8.25303 1.46423C8.14324 1.46423 8.05371 1.55379 8.05371 1.66356C8.05371 1.77333 8.14324 1.86288 8.25303 1.86288Z" fill="#F9BB13"/>
<path d="M8.45909 2.32831C8.56886 2.32831 8.65841 2.23878 8.65841 2.12901C8.65841 2.01921 8.56889 1.92969 8.45909 1.92969C8.34929 1.92969 8.25977 2.01921 8.25977 2.12901C8.25977 2.23881 8.34929 2.32831 8.45909 2.32831Z" fill="#F9BB13"/>
<path d="M8.662 2.74392C8.75176 2.74392 8.82497 2.67073 8.82497 2.58094C8.82497 2.49119 8.75176 2.41797 8.662 2.41797C8.57224 2.41797 8.49902 2.49119 8.49902 2.58094C8.49902 2.67073 8.57224 2.74392 8.662 2.74392Z" fill="#F9BB13"/>
<path d="M7.40107 2.41675C7.32898 2.41675 7.27051 2.47522 7.27051 2.54731C7.27051 2.54867 7.27054 2.55 7.27057 2.55136C7.32354 2.57964 7.36669 2.62388 7.39361 2.67764C7.39606 2.67778 7.39855 2.67787 7.40104 2.67787C7.47313 2.67787 7.5316 2.6194 7.5316 2.54731C7.5316 2.47522 7.47319 2.41675 7.40107 2.41675Z" fill="#F9BB13"/>
<path d="M7.40181 1.9101C7.39758 1.9101 7.39342 1.9103 7.38928 1.9107C7.37072 1.95246 7.34215 1.98884 7.30664 2.01671C7.35528 2.05494 7.3909 2.10901 7.40565 2.17119C7.47598 2.16913 7.53237 2.1115 7.53237 2.04068C7.53239 1.96856 7.47392 1.9101 7.40181 1.9101Z" fill="#F9BB13"/>
<path d="M5.92662 3.7658C5.54758 3.8437 5.18164 3.95925 4.83383 4.11115C4.62988 4.20016 4.75165 4.50396 4.91026 4.43216C5.24803 4.27924 5.60573 4.16392 5.97775 4.08666C6.72857 3.93074 7.53969 3.93074 8.29049 4.08666C8.6625 4.16389 9.0202 4.27924 9.35798 4.43216C9.51659 4.50396 9.63839 4.20016 9.43441 4.11115C9.08662 3.95925 8.72068 3.8437 8.34164 3.7658C7.55612 3.60435 6.71218 3.60435 5.92662 3.7658Z" fill="#F9BB13"/>
<path d="M7.13467 4.21262L7.50571 4.3609L7.13467 4.50919L6.76367 4.3609L7.13467 4.21262Z" fill="#000001"/>
<path d="M7.46806 4.36088L7.13491 4.22772L6.80176 4.36088L7.13491 4.49402L7.46806 4.36088Z" fill="#0069B7"/>
<path d="M7.80981 4.35252C7.7807 4.40588 7.80848 4.46553 7.85287 4.49913C7.88188 4.52111 7.91634 4.53169 7.95255 4.5397L8.38436 4.63513C8.42861 4.6449 8.47516 4.64909 8.52045 4.62842C8.59392 4.59482 8.61168 4.51637 8.55914 4.4548C8.52776 4.41802 8.48462 4.40053 8.43902 4.39179L8.00197 4.29507C7.93552 4.28041 7.84694 4.28451 7.80981 4.35252Z" fill="#000001"/>
<path d="M8.00054 4.3097L8.43648 4.40573C8.47778 4.41481 8.51806 4.42869 8.54816 4.46394C8.59454 4.5183 8.57916 4.58597 8.5143 4.61564C8.47356 4.63429 8.42836 4.6316 8.38721 4.62249L7.95467 4.52672C7.92281 4.52001 7.89117 4.50971 7.86471 4.49071C7.82469 4.462 7.79592 4.40992 7.82079 4.36134C7.85416 4.29622 7.93964 4.29628 8.00054 4.3097Z" fill="#FF011A"/>
<path d="M4.98121 14.6033C4.88945 14.5184 4.79434 14.4294 4.69606 14.338C4.59447 14.2435 4.48904 14.1456 4.38017 14.044C4.39015 14.0414 4.4003 14.039 4.41027 14.0362C4.6246 14.2154 4.78949 14.334 4.91574 14.4063C5.04069 14.4781 5.13313 14.507 5.19571 14.5007C5.32323 14.4881 5.24099 14.3442 5.11393 14.214C5.03603 14.1346 4.95906 14.0717 4.88011 14.0294C4.82604 14.0013 4.73877 13.9607 4.63623 13.9249C4.57617 13.9022 4.51689 13.8799 4.45775 13.8575C4.37181 13.8239 4.29351 13.7902 4.22124 13.755C4.14907 13.72 4.08178 13.6827 4.01706 13.6415C3.89581 13.5668 3.75924 13.4567 3.60971 13.3171C3.438 13.1569 3.26942 12.9726 3.15384 12.8054C3.02955 12.6257 2.96475 12.4644 3.02678 12.3813C3.05893 12.3378 3.13371 12.3276 3.20164 12.3263C3.27138 12.3247 3.33413 12.3338 3.33899 12.3279C3.36218 12.3005 3.31334 12.2341 3.22035 12.1209C3.23113 12.1061 3.24221 12.0917 3.25314 12.0767C3.42415 12.258 3.58791 12.4315 3.74414 12.5964C3.89289 12.7542 4.03623 12.9056 4.17286 13.0501C4.16037 13.0581 4.14811 13.0659 4.13553 13.0737C3.92947 12.8889 3.71511 12.7238 3.53768 12.6169C3.35802 12.5083 3.22335 12.464 3.1772 12.5184C3.11697 12.5895 3.25129 12.7967 3.44853 12.9865C3.57087 13.1038 3.66616 13.1804 3.73819 13.2191C3.80999 13.2576 3.93994 13.3109 4.11367 13.3735C4.18949 13.4005 4.26644 13.4279 4.34388 13.4559C4.43792 13.4853 4.5347 13.5298 4.62778 13.5886C4.80782 13.6949 4.97025 13.8292 5.1231 13.9923C5.25661 14.1349 5.36077 14.2832 5.39385 14.3951C5.42482 14.4991 5.39443 14.5712 5.26893 14.5811C5.21592 14.5851 5.14059 14.5703 5.05332 14.5431C5.04106 14.5395 5.02903 14.5359 5.01709 14.5323C4.99893 14.5271 4.98115 14.5218 4.97392 14.5227C4.94839 14.5251 4.96802 14.551 5.01356 14.6007C5.00284 14.6016 4.9919 14.6025 4.98121 14.6033Z" fill="#0069B7"/>
<path d="M5.68205 10.392C5.8162 10.2916 5.94896 10.1863 6.08466 10.0776C6.51549 9.73238 6.98146 9.42898 7.47808 9.18692C7.50708 9.17278 7.5362 9.15893 7.56541 9.14534C7.04065 8.64644 6.53611 8.07461 6.28323 7.39101C6.20996 7.19296 6.17734 7.02571 6.20314 6.8302C5.7431 6.91091 5.12087 7.06206 4.70747 7.3778C4.24278 7.73272 4.24845 8.25522 4.44369 8.78411C4.69304 9.45949 5.16418 9.93156 5.68205 10.392Z" fill="#F57A0D"/>
<path d="M2.96252 8.62457C2.89838 8.91883 2.86426 9.22428 2.86426 9.53773C2.86426 10.1663 3.0002 10.7631 3.2442 11.3006C3.40723 11.3016 3.57391 11.2888 3.74408 11.2612C4.08729 11.2055 4.40902 11.1064 4.71337 10.9737C5.00827 10.845 5.26664 10.6885 5.51451 10.5134C4.99398 10.0437 4.56324 9.58166 4.28754 8.89514C4.13417 8.51318 4.05476 8.10612 4.16858 7.76672C3.69874 7.97221 3.30871 8.26143 2.96252 8.62457Z" fill="#F57A0D"/>
<path d="M7.32895 5.27242C7.26456 5.26953 7.19984 5.26782 7.13475 5.26782C5.22875 5.26782 3.61424 6.51743 3.06543 8.2418C3.44187 7.89972 3.87331 7.62185 4.35772 7.45052C4.80203 6.9258 5.59319 6.72934 6.24784 6.62081C6.29633 6.47406 6.38473 6.29622 6.49869 6.13562C6.64253 5.93291 6.79931 5.74275 6.97886 5.56844C7.08686 5.46365 7.20288 5.36475 7.32895 5.27242Z" fill="#F57A0D"/>
<path d="M9.2714 5.84052C9.10382 5.74344 8.92894 5.65753 8.74792 5.58362C8.48376 5.68231 8.25477 5.82956 8.04879 6.00696C7.86011 6.16944 7.6895 6.35836 7.52832 6.55904C7.81168 6.73575 8.08613 6.92623 8.35375 7.12714L8.49631 6.92724C8.39533 6.83554 8.29864 6.76848 8.19659 6.70322C8.15073 6.66699 8.13693 6.58547 8.17317 6.53961C8.20937 6.49375 8.29091 6.48293 8.33675 6.51916C8.42812 6.61988 8.52445 6.68839 8.62236 6.7505L8.81153 6.48524C8.74283 6.4262 8.66816 6.37765 8.59072 6.33436C8.54602 6.3035 8.5348 6.2422 8.56565 6.19749C8.59654 6.15279 8.65781 6.14154 8.70252 6.17242C8.76813 6.23537 8.83935 6.29072 8.91604 6.33872L9.06354 6.13188C9.02199 6.09634 8.9776 6.06916 8.9296 6.05187C8.88469 6.02145 8.87295 5.96035 8.90337 5.91544C8.93379 5.87053 8.9949 5.85879 9.0398 5.88921C9.07696 5.93097 9.11906 5.96373 9.16302 5.99239L9.2714 5.84052Z" fill="#F57A0D"/>
<path d="M9.92871 6.30935C9.77632 6.17737 9.61447 6.05603 9.44435 5.94641L9.3203 6.12035C9.36339 6.16083 9.41168 6.19434 9.46141 6.22647C9.50077 6.26392 9.50236 6.32623 9.46488 6.36559C9.42744 6.40497 9.36515 6.40654 9.32576 6.36906C9.29563 6.32511 9.26076 6.28858 9.22204 6.25813L9.07647 6.46223C9.13442 6.51347 9.19469 6.56263 9.26105 6.60647C9.30194 6.64247 9.3059 6.70478 9.26993 6.74567C9.23395 6.78656 9.17161 6.79052 9.13072 6.75455C9.08107 6.69215 9.02778 6.64617 8.97333 6.60684L8.77935 6.87878C8.86668 6.96099 8.96008 7.03357 9.06265 7.10843C9.10643 7.14718 9.10753 7.24108 9.06878 7.28486C9.03003 7.32866 8.94814 7.31776 8.90433 7.27901C8.82663 7.19018 8.74801 7.11777 8.65637 7.05118L8.51465 7.24989C8.75972 7.43942 9.00094 7.63845 9.23956 7.84396C9.41948 7.64681 9.56948 7.4463 9.68393 7.21658C9.81032 6.96298 9.8943 6.67237 9.92871 6.30935Z" fill="#F57A0D"/>
<path d="M10.6326 7.08952C10.4786 6.86987 10.3044 6.66543 10.1127 6.4788C10.0684 6.80099 9.98433 7.06876 9.8656 7.30698C9.71072 7.61777 9.4911 7.87473 9.25386 8.12428C8.93479 7.84708 8.61104 7.57608 8.2739 7.32094C7.93714 7.0661 7.58898 6.83179 7.22824 6.61254C7.4387 6.34208 7.65528 6.07842 7.91608 5.85385C8.08478 5.70857 8.26815 5.58177 8.47198 5.48195C8.20901 5.3952 7.93476 5.33337 7.65202 5.29919C7.45136 5.42261 7.27636 5.56161 7.11974 5.71366C6.94968 5.87875 6.80056 6.05971 6.66338 6.25304C6.52082 6.45393 6.43994 6.63397 6.4118 6.80712C6.38419 6.97709 6.40749 7.14403 6.47302 7.32123C6.72454 8.00112 7.24267 8.56627 7.76615 9.05676C8.29544 8.83714 8.85334 8.70996 9.42895 8.70094C9.66596 8.50052 9.89061 8.27572 10.0941 8.0122C10.2978 7.74848 10.4802 7.44578 10.6326 7.08952Z" fill="#F57A0D"/>
<path d="M11.4042 9.53771C11.4042 8.71298 11.17 7.94289 10.7649 7.29004C10.6167 7.61142 10.4443 7.8898 10.2542 8.13589C10.0648 8.38127 9.85771 8.59445 9.63965 8.78611C10.1066 9.36384 10.682 9.84501 11.3195 10.2247L11.3466 10.2409C11.3845 10.0121 11.4042 9.7772 11.4042 9.53771Z" fill="#F57A0D"/>
<path d="M9.2262 5.02599L8.94427 4.67731L9.37605 4.62393L9.56971 4.94985L9.2262 5.02599ZM5.04272 5.02599L5.32466 4.67731L4.89287 4.62393L4.69922 4.94985L5.04272 5.02599Z" fill="#0069B7"/>
<path d="M6.97164 2.75866C6.95883 2.80854 6.94792 2.80929 6.89923 2.82181C6.82668 2.84049 6.77307 2.90639 6.77307 2.98473C6.77307 3.10176 6.92673 3.18848 7.03442 3.15465C6.69956 3.52654 6.11966 3.53733 5.69635 3.31325C5.78266 3.28729 5.83347 3.19727 5.81034 3.10942C5.79039 3.03363 5.72174 2.98357 5.64684 2.98401C5.59653 2.98433 5.5858 2.98638 5.5607 2.94141C5.47722 2.79194 5.24464 2.85322 5.24562 3.02446C5.24597 3.0759 5.23562 3.0794 5.19169 3.10395C5.12625 3.14048 5.09123 3.21786 5.11116 3.29365C5.13264 3.37514 5.21028 3.42687 5.29157 3.41811C5.26485 3.45732 5.23585 3.49384 5.20537 3.52761C5.05494 3.71433 4.85559 3.83416 4.61217 3.83986C4.49008 3.85261 4.56061 3.81132 4.50995 3.74793C4.47808 3.70808 4.40923 3.7134 4.37595 3.74938C4.31577 3.81444 4.26693 3.82919 4.15647 3.80235C4.04951 3.77647 4.00983 3.9404 4.1168 3.96628C4.56463 4.0751 5.02802 4.03143 5.33032 3.64062C5.39599 3.56792 5.45573 3.48444 5.50376 3.39095C5.983 3.689 6.70115 3.70583 7.13458 3.29614C7.56802 3.7058 8.2862 3.68897 8.7654 3.39095C8.81344 3.48444 8.87321 3.56795 8.93885 3.64062C9.24114 4.03146 9.70454 4.0751 10.1524 3.96628C10.2594 3.9404 10.2197 3.77647 10.1127 3.80235C10.0022 3.82919 9.95339 3.81444 9.89325 3.74938C9.85994 3.71338 9.79108 3.70806 9.75922 3.74793C9.70856 3.81129 9.77908 3.85261 9.657 3.83986C9.41358 3.83413 9.21419 3.7143 9.0638 3.52761C9.03329 3.49384 9.00429 3.45732 8.9776 3.41811C9.05888 3.42687 9.13652 3.37514 9.15801 3.29365C9.17793 3.21786 9.14291 3.1405 9.07748 3.10395C9.03355 3.07943 9.02323 3.0759 9.02357 3.02446C9.02453 2.85324 8.79195 2.79194 8.7085 2.94141C8.6834 2.98638 8.6727 2.98433 8.62235 2.98401C8.54749 2.98357 8.47881 3.03363 8.45886 3.10942C8.43572 3.19727 8.48656 3.28726 8.57285 3.31325C8.14951 3.53736 7.56961 3.52654 7.23478 3.15465C7.34247 3.18848 7.49613 3.10176 7.49613 2.98473C7.49613 2.90639 7.44252 2.84046 7.36997 2.82181C7.32124 2.80929 7.31034 2.80854 7.29756 2.75866C7.25499 2.59343 7.01412 2.59343 6.97164 2.75866Z" fill="#F9BB13"/>
<path d="M7.12943 3.04734C7.17916 3.04734 7.21976 3.00674 7.21976 2.95697C7.21976 2.90724 7.17916 2.86664 7.12943 2.86664C7.07966 2.86664 7.03906 2.90724 7.03906 2.95697C7.03909 3.00677 7.07969 3.04734 7.12943 3.04734Z" fill="#000001"/>
<path d="M5.45362 3.26505C5.50351 3.26505 5.54395 3.22461 5.54395 3.17472C5.54395 3.12483 5.50351 3.08438 5.45362 3.08438C5.40373 3.08438 5.36328 3.12483 5.36328 3.17472C5.36328 3.22461 5.40373 3.26505 5.45362 3.26505Z" fill="#000001"/>
<path d="M8.81495 3.26505C8.86484 3.26505 8.90528 3.22461 8.90528 3.17472C8.90528 3.12483 8.86484 3.08438 8.81495 3.08438C8.76505 3.08438 8.72461 3.12483 8.72461 3.17472C8.72461 3.22461 8.76505 3.26505 8.81495 3.26505Z" fill="#000001"/>
</g>
<defs>
<clipPath id="clip0_882_26501">
<rect width="13.9069" height="16" fill="white" transform="translate(0.136719)"/>
</clipPath>
</defs>
</svg>
