<svg width="13" height="16" viewBox="0 0 13 16" fill="none" xmlns="http://www.w3.org/2000/svg">
<g clip-path="url(#clip0_882_26496)">
<path d="M8.53575 4.63887C8.46619 4.63887 8.41189 4.58456 8.41189 4.51872C8.41189 4.45288 8.46619 4.39857 8.53575 4.39857C8.60531 4.39857 8.65962 4.45288 8.65962 4.51872C8.66334 4.58456 8.60531 4.63887 8.53575 4.63887ZM1.14355 10.2538C1.14355 7.57038 3.41258 5.39025 6.18526 5.39025C8.95794 5.39025 11.227 7.5741 11.227 10.2538C11.227 12.9294 8.95794 15.121 6.18526 15.121C3.41296 15.1173 1.14355 12.9294 1.14355 10.2538ZM8.16378 2.82662C8.28393 2.85749 8.35721 2.97392 8.32633 3.08998C8.29546 3.20603 8.17159 3.27596 8.05144 3.24472C7.9313 3.21347 7.85802 3.09742 7.88889 2.98136C7.91977 2.86531 8.04363 2.79537 8.16378 2.82662ZM8.36911 2.40071C8.43867 2.40071 8.49297 2.45502 8.49297 2.52086C8.49297 2.5867 8.43867 2.64101 8.36911 2.64101C8.29955 2.64101 8.24524 2.5867 8.24524 2.52086C8.24152 2.4513 8.29955 2.40071 8.36911 2.40071ZM8.26458 1.96699C8.33414 1.96699 8.38845 2.0213 8.38845 2.08714C8.38845 2.15298 8.33414 2.20729 8.26458 2.20729C8.19503 2.20729 8.14072 2.15298 8.14072 2.08714C8.137 2.0213 8.19503 1.96699 8.26458 1.96699ZM9.81347 3.1056C9.88303 3.1056 9.93734 3.15991 9.93734 3.22575C9.93734 3.29159 9.88303 3.34589 9.81347 3.34589C9.74392 3.34589 9.68961 3.29159 9.68961 3.22575C9.68961 3.15991 9.74392 3.1056 9.81347 3.1056ZM9.70895 2.67597C9.77851 2.67597 9.83282 2.73028 9.83282 2.79612C9.83282 2.86196 9.77851 2.91627 9.70895 2.91627C9.63939 2.91627 9.58508 2.86196 9.58508 2.79612C9.58508 2.73028 9.63939 2.67597 9.70895 2.67597ZM9.52297 2.29656C9.59252 2.29656 9.64683 2.35087 9.64683 2.41671C9.64683 2.48255 9.5888 2.53685 9.52297 2.53685C9.45341 2.53685 9.3991 2.48255 9.3991 2.41671C9.39538 2.35087 9.45341 2.29656 9.52297 2.29656ZM9.22464 1.95955C9.2942 1.95955 9.34851 2.01386 9.34851 2.0797C9.34851 2.14554 9.2942 2.19985 9.22464 2.19985C9.15508 2.19985 9.10078 2.14554 9.10078 2.0797C9.10078 2.01386 9.15508 1.95955 9.22464 1.95955ZM8.86048 1.70401C8.93004 1.70401 8.98435 1.75832 8.98435 1.82416C8.98435 1.88999 8.93004 1.9443 8.86048 1.9443C8.79092 1.9443 8.73662 1.88999 8.73662 1.82416C8.73662 1.75832 8.79092 1.70401 8.86048 1.70401ZM8.46545 1.55299C8.53501 1.55299 8.58932 1.6073 8.58932 1.67314C8.58932 1.73897 8.53501 1.79328 8.46545 1.79328C8.39589 1.79328 8.34158 1.73897 8.34158 1.67314C8.34158 1.6073 8.39961 1.55299 8.46545 1.55299ZM8.0667 1.58795C8.13625 1.58795 8.19056 1.64226 8.19056 1.7081C8.19056 1.77394 8.13625 1.82825 8.0667 1.82825C7.99714 1.82825 7.94283 1.77394 7.94283 1.7081C7.94283 1.64226 7.99714 1.58795 8.0667 1.58795ZM7.77247 1.25876C7.84202 1.25876 7.89633 1.31307 7.89633 1.37891C7.89633 1.44474 7.8383 1.49905 7.77247 1.49905C7.70291 1.49905 7.6486 1.44474 7.6486 1.37891C7.6486 1.31307 7.70291 1.25876 7.77247 1.25876ZM7.38896 1.01475C7.45852 1.01475 7.51283 1.06905 7.51283 1.13489C7.51283 1.20073 7.45852 1.25504 7.38896 1.25504C7.3194 1.25504 7.2651 1.20073 7.2651 1.13489C7.2651 1.06905 7.3194 1.01475 7.38896 1.01475ZM6.99021 0.871536C7.05977 0.871536 7.11407 0.925844 7.11407 0.991683C7.11407 1.05752 7.05977 1.11183 6.99021 1.11183C6.92065 1.11183 6.86634 1.05752 6.86634 0.991683C6.86634 0.925844 6.92065 0.871536 6.99021 0.871536ZM6.58364 0.801977C6.6532 0.801977 6.70751 0.856285 6.70751 0.922124C6.70751 0.987963 6.6532 1.04227 6.58364 1.04227C6.51408 1.04227 6.45978 0.987963 6.45978 0.922124C6.45606 0.856285 6.51408 0.801977 6.58364 0.801977ZM2.71588 3.98085C2.6637 4.0085 2.6029 4.01507 2.54601 3.99923C2.48913 3.98338 2.44049 3.94631 2.41012 3.89567C2.39579 3.87071 2.38671 3.84308 2.38344 3.81449C2.38018 3.78589 2.38278 3.75693 2.39111 3.72938C2.39943 3.70183 2.4133 3.67627 2.43185 3.65427C2.45041 3.63227 2.47327 3.61429 2.49902 3.60144C2.5512 3.57379 2.612 3.56721 2.66889 3.58306C2.72577 3.59891 2.77441 3.63597 2.80478 3.68662C2.86281 3.79114 2.82412 3.92282 2.71588 3.98085ZM4.31908 3.24509C4.19893 3.27596 4.07507 3.2064 4.04419 3.09035C4.01332 2.97429 4.08697 2.85415 4.20674 2.82699C4.32689 2.79612 4.45076 2.86568 4.48163 2.98173C4.5125 3.09779 4.43885 3.21793 4.31908 3.24509ZM6.18526 3.0167C6.15626 3.01724 6.12744 3.01206 6.10045 3.00145C6.07345 2.99084 6.04882 2.97501 6.02795 2.95486C6.00708 2.93472 5.99039 2.91066 5.97883 2.88406C5.96727 2.85746 5.96107 2.82884 5.96059 2.79984C5.96059 2.67969 6.06139 2.58298 6.18526 2.58298C6.30913 2.58298 6.40993 2.67969 6.40993 2.79984C6.40993 2.91998 6.30913 3.0167 6.18526 3.0167ZM4.00513 2.64101C3.93558 2.64101 3.88127 2.5867 3.88127 2.52086C3.88127 2.45502 3.93558 2.40071 4.00513 2.40071C4.07469 2.40071 4.129 2.45502 4.129 2.52086C4.129 2.5867 4.07097 2.64101 4.00513 2.64101ZM4.10966 2.20729C4.0401 2.20729 3.98579 2.15298 3.98579 2.08714C3.98579 2.0213 4.0401 1.96699 4.10966 1.96699C4.17922 1.96699 4.23353 2.0213 4.23353 2.08714C4.23353 2.15298 4.1755 2.20729 4.10966 2.20729ZM2.55705 3.34961C2.48749 3.34961 2.43318 3.2953 2.43318 3.22947C2.43318 3.16363 2.48749 3.10932 2.55705 3.10932C2.62661 3.10932 2.68091 3.16363 2.68091 3.22947C2.68463 3.2953 2.62661 3.34961 2.55705 3.34961ZM2.66157 2.91589C2.59201 2.91589 2.53771 2.86159 2.53771 2.79575C2.53771 2.72991 2.59573 2.6756 2.66157 2.6756C2.73113 2.6756 2.78544 2.72991 2.78544 2.79575C2.78916 2.86159 2.73113 2.91589 2.66157 2.91589ZM2.84756 2.53648C2.778 2.53648 2.72369 2.48217 2.72369 2.41633C2.72369 2.3505 2.778 2.29619 2.84756 2.29619C2.91712 2.29619 2.97142 2.3505 2.97142 2.41633C2.97514 2.48217 2.91712 2.53648 2.84756 2.53648ZM3.14588 2.19948C3.07632 2.19948 3.02201 2.14517 3.02201 2.07933C3.02201 2.01349 3.07632 1.95918 3.14588 1.95918C3.21544 1.95918 3.26975 2.01349 3.26975 2.07933C3.26975 2.14517 3.21544 2.19948 3.14588 2.19948ZM3.51004 1.94393C3.44048 1.94393 3.38617 1.88962 3.38617 1.82378C3.38617 1.75794 3.44048 1.70364 3.51004 1.70364C3.5796 1.70364 3.63391 1.75794 3.63391 1.82378C3.63763 1.88962 3.5796 1.94393 3.51004 1.94393ZM3.90507 1.79663C3.83552 1.79663 3.78121 1.74232 3.78121 1.67648C3.78121 1.61064 3.83552 1.55634 3.90507 1.55634C3.97463 1.55634 4.02894 1.61064 4.02894 1.67648C4.02894 1.74232 3.97463 1.79663 3.90507 1.79663ZM4.30383 1.8275C4.23427 1.8275 4.17996 1.7732 4.17996 1.70736C4.17996 1.64152 4.23427 1.58721 4.30383 1.58721C4.37339 1.58721 4.42769 1.64152 4.42769 1.70736C4.43141 1.7732 4.37339 1.8275 4.30383 1.8275ZM4.59806 1.5024C4.5285 1.5024 4.47419 1.44809 4.47419 1.38225C4.47419 1.31641 4.53222 1.26211 4.59806 1.26211C4.66762 1.26211 4.72192 1.31641 4.72192 1.38225C4.72192 1.44809 4.66762 1.5024 4.59806 1.5024ZM4.98156 1.25467C4.912 1.25467 4.85769 1.20036 4.85769 1.13452C4.85769 1.06868 4.912 1.01437 4.98156 1.01437C5.05112 1.01437 5.10543 1.06868 5.10543 1.13452C5.10543 1.20036 5.05112 1.25467 4.98156 1.25467ZM5.38031 1.11146C5.31076 1.11146 5.25645 1.05715 5.25645 0.991311C5.25645 0.925472 5.31448 0.871164 5.38031 0.871164C5.44987 0.871164 5.50418 0.925472 5.50418 0.991311C5.50418 1.05715 5.44987 1.11146 5.38031 1.11146ZM6.18526 2.29619C6.1157 2.29619 6.06139 2.24188 6.06139 2.17604C6.06139 2.1102 6.11942 2.05589 6.18526 2.05589C6.25482 2.05589 6.30913 2.1102 6.30913 2.17604C6.30913 2.24188 6.25482 2.29619 6.18526 2.29619ZM6.18526 1.85875C6.1157 1.85875 6.06139 1.80444 6.06139 1.7386C6.06139 1.67276 6.11942 1.61846 6.18526 1.61846C6.25482 1.61846 6.30913 1.67276 6.30913 1.7386C6.30913 1.80444 6.25482 1.85875 6.18526 1.85875ZM6.18526 1.42131C6.1157 1.42131 6.06139 1.367 6.06139 1.30116C6.06139 1.23532 6.11942 1.18102 6.18526 1.18102C6.25482 1.18102 6.30913 1.23532 6.30913 1.30116C6.30913 1.367 6.25482 1.42131 6.18526 1.42131ZM5.79023 1.0419C5.72067 1.0419 5.66227 0.987591 5.66227 0.921752C5.66227 0.855913 5.7203 0.801605 5.79023 0.801605C5.86016 0.801605 5.91409 0.855913 5.91409 0.921752C5.91409 0.991311 5.85607 1.0419 5.79023 1.0419ZM9.8715 3.60107C9.97975 3.65909 10.0188 3.79077 9.9604 3.8953C9.902 3.99982 9.76289 4.0385 9.65464 3.98048C9.62926 3.96723 9.60678 3.94905 9.58852 3.927C9.57026 3.90494 9.55659 3.87947 9.54831 3.85206C9.54003 3.82465 9.5373 3.79587 9.5403 3.7674C9.54329 3.73892 9.55194 3.71133 9.56574 3.68625C9.59611 3.6356 9.64475 3.59854 9.70164 3.58269C9.75852 3.56684 9.81932 3.57342 9.8715 3.60107ZM6.98686 4.23602C6.9173 4.23602 6.86299 4.18171 6.86299 4.11587C6.86299 4.05004 6.9173 3.99573 6.98686 3.99573C7.05642 3.99573 7.11073 4.05004 7.11073 4.11587C7.11445 4.18171 7.05642 4.23602 6.98686 4.23602ZM3.83477 4.63887C3.76521 4.63887 3.7109 4.58456 3.7109 4.51872C3.7109 4.45288 3.76893 4.39857 3.83477 4.39857C3.90433 4.39857 3.95864 4.45288 3.95864 4.51872C3.95864 4.58456 3.90433 4.63887 3.83477 4.63887ZM5.38366 4.23602C5.3141 4.23602 5.2598 4.18171 5.2598 4.11587C5.2598 4.05004 5.31782 3.99573 5.38366 3.99573C5.45322 3.99573 5.50753 4.05004 5.50753 4.11587C5.50753 4.18171 5.45322 4.23602 5.38366 4.23602Z" fill="white"/>
<path d="M7.11432 3.36486C7.14929 3.43851 7.18797 3.49282 7.23819 3.53894L6.89374 3.49617C6.95836 3.46172 7.01511 3.41422 7.06039 3.35668C7.07813 3.36137 7.09635 3.36399 7.1147 3.36449L7.11432 3.36486ZM5.25558 3.36486C5.27514 3.36427 5.29459 3.36165 5.31361 3.35705C5.35638 3.41508 5.41441 3.46157 5.47616 3.49654L5.13171 3.53932C5.18602 3.4891 5.22843 3.43107 5.25558 3.36523V3.36486ZM4.58566 3.63975L4.28362 3.7134C4.33792 3.64756 4.37252 3.5661 4.38033 3.48092C4.43415 3.55046 4.50482 3.60513 4.58566 3.63975ZM3.43552 4.00391C3.46445 3.95691 3.48661 3.90607 3.50136 3.85289L3.51698 3.84917C3.54594 3.84226 3.57349 3.83043 3.59844 3.8142C3.64618 3.84514 3.69836 3.8686 3.75318 3.88376L3.43552 4.00391ZM6.18514 3.26034C6.21601 3.3418 6.27404 3.41136 6.34397 3.46567C6.28966 3.46567 6.23944 3.46195 6.18514 3.46195L6.02631 3.46567C6.09996 3.41136 6.15426 3.3418 6.18514 3.26034ZM8.77183 3.81011C8.79489 3.82573 8.82614 3.83727 8.85329 3.84508L8.86891 3.8488C8.88045 3.9031 8.90388 3.95332 8.93475 3.99982L8.61337 3.87595C8.67008 3.8645 8.72365 3.84214 8.77183 3.81011ZM8.08629 3.7134L7.78424 3.63975C7.86449 3.60603 7.93405 3.55113 7.98548 3.48092C7.99691 3.56625 8.03181 3.64673 8.08629 3.7134ZM8.47723 2.76859C8.56241 2.73362 8.62453 2.66035 8.64387 2.57107C8.77927 2.60195 8.93029 2.63691 9.05416 2.68713C9.15403 2.72432 9.24695 2.77801 9.32904 2.84596C9.39488 3.0126 9.43357 3.20603 9.457 3.44223C9.37554 3.4772 9.3216 3.55829 9.29036 3.63975C9.24014 3.76361 9.24014 3.89157 9.37926 3.98829C9.3483 3.99068 9.31718 3.98648 9.28796 3.97596C9.25874 3.96544 9.23208 3.94884 9.20976 3.92725C9.18743 3.90566 9.16994 3.87958 9.15844 3.85073C9.14695 3.82188 9.1417 3.79092 9.14306 3.75989C9.16973 3.72966 9.18952 3.694 9.20109 3.65537C9.23977 3.50807 9.15087 3.36114 8.99985 3.32618C8.84883 3.28749 8.69781 3.37639 8.65912 3.5196C8.6554 3.53522 8.65131 3.55047 8.65131 3.5661C8.52335 3.71712 8.26781 3.63975 8.25628 3.44223C8.49248 3.48873 8.59328 3.37267 8.63197 3.21756C8.66693 3.0896 8.65131 2.9583 8.50029 2.88055C8.49248 2.83778 8.48876 2.79946 8.47723 2.76859ZM4.48523 2.23444C4.93457 1.99452 5.51894 1.95174 5.972 2.01758V2.04845C5.93913 2.09772 5.92643 2.15773 5.93654 2.21608C5.94664 2.27444 5.97878 2.32668 6.02631 2.36202C5.94112 2.38918 5.87528 2.45093 5.85222 2.55954C5.68186 2.59823 5.63536 2.72209 5.63536 2.85377C5.63536 3.0126 5.7012 3.148 5.94112 3.15953C5.91397 3.24843 5.82879 3.31055 5.72798 3.31055C5.68212 3.31093 5.63728 3.29692 5.59979 3.2705C5.56229 3.24408 5.53402 3.20657 5.51894 3.16325C5.52675 3.14019 5.52675 3.11676 5.52675 3.09369C5.52675 2.94267 5.39879 2.82253 5.24405 2.82253C5.08931 2.82253 4.96135 2.94267 4.96135 3.09369C4.96044 3.13882 4.97258 3.18326 4.99632 3.22165C4.99284 3.26792 4.97487 3.31191 4.94495 3.34737C4.91503 3.38283 4.87469 3.40795 4.82967 3.41917C4.784 3.43089 4.73578 3.42785 4.69194 3.41048C4.64811 3.3931 4.6109 3.36229 4.58566 3.32246C4.81405 3.2529 4.84492 3.1056 4.80252 2.95086C4.76755 2.8229 4.69018 2.71465 4.5161 2.71837C4.49067 2.6638 4.44681 2.61994 4.39223 2.59451C4.4153 2.47064 4.44245 2.34677 4.48523 2.23444ZM6.39419 2.01386C6.84725 1.94802 7.43571 1.9908 7.88096 2.23072C7.92463 2.34824 7.95447 2.47045 7.96986 2.59488C7.91532 2.62036 7.87148 2.66421 7.84599 2.71875C7.67191 2.71503 7.59417 2.82327 7.56329 2.95123C7.52052 3.10597 7.55176 3.25327 7.78015 3.32283C7.72994 3.4002 7.63285 3.44297 7.53614 3.41954C7.49093 3.40869 7.45037 3.38368 7.42039 3.34814C7.39041 3.3126 7.37258 3.26841 7.3695 3.22202C7.39267 3.18339 7.40477 3.13912 7.40446 3.09407C7.40446 2.94304 7.28059 2.8229 7.12176 2.8229C6.96702 2.8229 6.83906 2.94304 6.83906 3.09407C6.83964 3.11743 6.84225 3.14071 6.84687 3.16362C6.83132 3.20664 6.80293 3.24384 6.76554 3.27018C6.72815 3.29653 6.68357 3.31075 6.63783 3.31092C6.59094 3.31133 6.54511 3.29696 6.50685 3.26985C6.4686 3.24275 6.43985 3.20428 6.42469 3.1599C6.66461 3.14837 6.73045 3.0126 6.73045 2.85414C6.73045 2.71875 6.68395 2.5986 6.51359 2.55991C6.50404 2.51479 6.48299 2.47289 6.45249 2.43829C6.42199 2.40368 6.38308 2.37754 6.33951 2.3624C6.39381 2.31962 6.4325 2.25006 6.4325 2.17641C6.4325 2.12991 6.41688 2.08342 6.39381 2.04845L6.39419 2.01386ZM3.31984 2.6875C3.4437 2.641 3.59472 2.60232 3.73012 2.57144C3.74947 2.66035 3.81158 2.734 3.89677 2.76896C3.88349 2.80341 3.87815 2.84041 3.88114 2.87721C3.7264 2.95458 3.7145 3.08625 3.74947 3.21421C3.79224 3.36895 3.88895 3.48538 4.12516 3.43888C4.11735 3.6364 3.85808 3.71377 3.73012 3.56275C3.73012 3.54713 3.7264 3.53188 3.72231 3.51625C3.68363 3.36895 3.52889 3.28377 3.37787 3.32283C3.22684 3.36188 3.13794 3.50881 3.17663 3.65202C3.18816 3.69071 3.2075 3.72939 3.23466 3.75655C3.23838 3.83801 3.19597 3.91538 3.1186 3.95778C3.08116 3.97592 3.04005 3.98521 2.99845 3.98494C3.13794 3.89195 3.13794 3.76436 3.08736 3.6364C3.05239 3.55903 3.00217 3.47757 2.91699 3.44297C2.93633 3.20677 2.97502 3.01335 3.04086 2.8467C3.11042 2.7924 3.19969 2.73028 3.31984 2.6875ZM6.58798 4.07384L6.18514 4.21705L5.78638 4.07384L6.18514 3.93026L6.58798 4.07384ZM3.57129 4.60018L3.53633 4.73558L3.52479 4.78579L3.49764 4.77017L3.36224 4.69652L3.39721 4.56856L3.40502 4.54141L3.45152 4.55703L3.57129 4.60018ZM8.79861 4.60018L8.96526 4.53806L8.97307 4.56521L9.00803 4.69689L8.87635 4.76645L8.8492 4.78207L8.83767 4.73186L8.79861 4.60018Z" fill="#F14158"/>
<path d="M8.08565 3.71341C8.03135 3.64757 7.99675 3.5661 7.98894 3.48092C7.93873 3.55048 7.86508 3.60479 7.78771 3.63976L8.08565 3.71341ZM8.7712 3.81012C8.7247 3.84099 8.67039 3.86443 8.61646 3.87968L8.93784 4.00354C8.90722 3.95745 8.88493 3.90633 8.872 3.85252L8.85638 3.8488C8.82551 3.84099 8.79835 3.82574 8.7712 3.81012ZM6.18451 3.26034C6.15363 3.34181 6.09933 3.41136 6.02567 3.46567L6.18451 3.46195L6.34334 3.46567C6.27268 3.41297 6.21776 3.34197 6.18451 3.26034ZM3.43526 4.00392L3.75665 3.88005C3.70234 3.86443 3.6484 3.84136 3.60191 3.81049C3.57884 3.82611 3.5476 3.83764 3.52044 3.84546L3.50482 3.84918C3.48548 3.90348 3.46614 3.95742 3.43526 4.00392ZM4.5854 3.63976C4.50516 3.60604 4.4356 3.55114 4.38416 3.48092C4.37263 3.5661 4.34139 3.64757 4.28745 3.71341L4.5854 3.63976ZM5.25532 3.36487C5.22817 3.43071 5.18576 3.48873 5.13145 3.53895L5.4759 3.49617C5.41175 3.46274 5.35614 3.41501 5.31335 3.35668C5.29401 3.3604 5.27466 3.36487 5.25532 3.36487ZM7.11406 3.36487C7.09571 3.36446 7.07748 3.36183 7.05976 3.35706C7.01698 3.41508 6.95895 3.46158 6.89311 3.49655L7.23756 3.53932C7.18788 3.49296 7.14716 3.43786 7.11741 3.37677L7.11406 3.36487ZM9.87112 3.60107C9.81896 3.57333 9.75813 3.5667 9.70122 3.58256C9.6443 3.59841 9.59566 3.63554 9.56536 3.68625C9.50733 3.79078 9.54602 3.92245 9.65426 3.98048C9.70644 4.00813 9.76724 4.01471 9.82413 3.99886C9.88101 3.98301 9.92965 3.94594 9.96002 3.8953C9.97479 3.87045 9.98423 3.84279 9.98774 3.81409C9.99124 3.7854 9.98873 3.75628 9.98037 3.72861C9.97201 3.70093 9.95797 3.6753 9.93917 3.65334C9.92036 3.63138 9.89718 3.61358 9.87112 3.60107ZM8.1634 2.82662C8.04325 2.79575 7.91938 2.86531 7.88851 2.98136C7.85764 3.09742 7.93129 3.21757 8.05106 3.24472C8.17121 3.27559 8.29507 3.20604 8.32595 3.08998C8.35682 2.97393 8.28317 2.85378 8.1634 2.82662ZM8.36873 2.40072C8.29917 2.40072 8.24486 2.45502 8.24486 2.52086C8.24486 2.5867 8.30289 2.64101 8.36873 2.64101C8.43828 2.64101 8.49259 2.5867 8.49259 2.52086C8.49276 2.50472 8.48964 2.48872 8.48342 2.47382C8.47721 2.45892 8.46803 2.44545 8.45644 2.43421C8.44486 2.42297 8.43111 2.41421 8.41603 2.40845C8.40095 2.40269 8.38485 2.40006 8.36873 2.40072ZM8.2642 1.967C8.19464 1.967 8.14033 2.02131 8.14033 2.08714C8.14033 2.15298 8.19836 2.20729 8.2642 2.20729C8.33376 2.20729 8.38807 2.15298 8.38807 2.08714C8.38807 2.02131 8.33376 1.967 8.2642 1.967ZM9.81309 3.1056C9.74353 3.1056 9.68923 3.15991 9.68923 3.22575C9.68923 3.29159 9.74353 3.3459 9.81309 3.3459C9.88265 3.3459 9.93696 3.29159 9.93696 3.22575C9.93696 3.15991 9.88265 3.1056 9.81309 3.1056ZM9.70857 2.67598C9.63901 2.67598 9.5847 2.73028 9.5847 2.79612C9.5847 2.86196 9.63901 2.91627 9.70857 2.91627C9.77813 2.91627 9.83243 2.86196 9.83243 2.79612C9.83243 2.73028 9.77813 2.67598 9.70857 2.67598ZM9.52258 2.29656C9.45302 2.29656 9.39872 2.35087 9.39872 2.41671C9.39872 2.48255 9.45674 2.53686 9.52258 2.53686C9.59214 2.53686 9.64645 2.48255 9.64645 2.41671C9.64645 2.35087 9.59214 2.29656 9.52258 2.29656ZM9.22426 1.95956C9.1547 1.95956 9.10039 2.01387 9.10039 2.0797C9.10039 2.14554 9.1547 2.19985 9.22426 2.19985C9.29382 2.19985 9.34813 2.14554 9.34813 2.0797C9.34813 2.01387 9.29382 1.95956 9.22426 1.95956ZM8.8601 1.70401C8.79054 1.70401 8.73623 1.75832 8.73623 1.82416C8.73623 1.89 8.79054 1.94431 8.8601 1.94431C8.92966 1.94431 8.98397 1.89 8.98397 1.82416C8.98397 1.75832 8.92966 1.70401 8.8601 1.70401ZM8.46507 1.55299C8.39551 1.55299 8.3412 1.6073 8.3412 1.67314C8.3412 1.73898 8.39551 1.79329 8.46507 1.79329C8.53462 1.79329 8.58893 1.73898 8.58893 1.67314C8.59265 1.6073 8.53462 1.55299 8.46507 1.55299ZM8.06631 1.58796C7.99675 1.58796 7.94245 1.64227 7.94245 1.7081C7.94245 1.77394 7.99675 1.82825 8.06631 1.82825C8.13587 1.82825 8.19018 1.77394 8.19018 1.7081C8.19018 1.64227 8.13587 1.58796 8.06631 1.58796ZM7.77208 1.25876C7.70252 1.25876 7.64822 1.31307 7.64822 1.37891C7.64822 1.44475 7.70252 1.49906 7.77208 1.49906C7.84164 1.49906 7.89595 1.44475 7.89595 1.37891C7.89967 1.31307 7.84164 1.25876 7.77208 1.25876ZM7.38858 1.01475C7.31902 1.01475 7.26471 1.06906 7.26471 1.1349C7.26471 1.20074 7.31902 1.25504 7.38858 1.25504C7.45814 1.25504 7.51245 1.20074 7.51245 1.1349C7.51245 1.06906 7.45814 1.01475 7.38858 1.01475ZM6.98983 0.87154C6.92027 0.87154 6.86596 0.925848 6.86596 0.991687C6.86596 1.05753 6.92027 1.11183 6.98983 1.11183C7.05938 1.11183 7.11369 1.05753 7.11369 0.991687C7.11741 0.925848 7.05938 0.87154 6.98983 0.87154ZM6.58326 0.801981C6.5137 0.801981 6.45939 0.856289 6.45939 0.922128C6.45939 0.987967 6.5137 1.04228 6.58326 1.04228C6.65282 1.04228 6.70713 0.987967 6.70713 0.922128C6.70713 0.856289 6.65282 0.801981 6.58326 0.801981ZM2.71513 3.98085C2.82337 3.92283 2.86243 3.79115 2.80403 3.68662C2.77392 3.6357 2.72527 3.59839 2.66828 3.58252C2.61129 3.56664 2.55037 3.57342 2.49827 3.60144C2.39002 3.65947 2.35096 3.79115 2.40936 3.89567C2.46776 4.0002 2.60688 4.03888 2.71513 3.98085ZM4.31832 3.24509C4.43847 3.21422 4.51175 3.09779 4.48088 2.98174C4.45 2.86568 4.32614 2.79575 4.20599 2.827C4.08584 2.85824 4.01256 2.9743 4.04344 3.09035C4.06024 3.14676 4.0983 3.19443 4.14959 3.2233C4.20088 3.25218 4.26138 3.25999 4.31832 3.24509ZM6.18451 3.0167C6.30837 3.0167 6.40918 2.91999 6.40918 2.79984C6.40869 2.77084 6.4025 2.74222 6.39094 2.71562C6.37938 2.68902 6.36269 2.66496 6.34182 2.64482C6.32095 2.62467 6.29631 2.60884 6.26932 2.59823C6.24233 2.58762 6.21351 2.58244 6.18451 2.58298C6.15551 2.58244 6.12669 2.58762 6.09969 2.59823C6.0727 2.60884 6.04806 2.62467 6.02719 2.64482C6.00633 2.66496 5.98964 2.68902 5.97808 2.71562C5.96652 2.74222 5.96032 2.77084 5.95984 2.79984C5.95984 2.91999 6.06064 3.0167 6.18451 3.0167ZM4.00438 2.64101C4.07394 2.64101 4.12825 2.5867 4.12825 2.52086C4.12825 2.45502 4.07394 2.40072 4.00438 2.40072C3.93482 2.40072 3.88051 2.45502 3.88051 2.52086C3.87679 2.5867 3.93482 2.64101 4.00438 2.64101ZM4.1089 2.20729C4.17846 2.20729 4.23277 2.15298 4.23277 2.08714C4.23277 2.02131 4.17846 1.967 4.1089 1.967C4.03935 1.967 3.98504 2.02131 3.98504 2.08714C3.98132 2.15298 4.03935 2.20729 4.1089 2.20729ZM2.55629 3.34962C2.62585 3.34962 2.68016 3.29531 2.68016 3.22947C2.68016 3.16363 2.62585 3.10932 2.55629 3.10932C2.48673 3.10932 2.43243 3.16363 2.43243 3.22947C2.43243 3.29531 2.48673 3.34962 2.55629 3.34962ZM2.66082 2.9159C2.73038 2.9159 2.78468 2.86159 2.78468 2.79575C2.78372 2.76355 2.77024 2.73299 2.74711 2.71056C2.72399 2.68813 2.69303 2.67559 2.66082 2.6756C2.59126 2.6756 2.53695 2.72991 2.53695 2.79575C2.53695 2.86159 2.59126 2.9159 2.66082 2.9159ZM2.8468 2.53649C2.91636 2.53649 2.97067 2.48218 2.97067 2.41634C2.97067 2.3505 2.91636 2.29619 2.8468 2.29619C2.77724 2.29619 2.72294 2.3505 2.72294 2.41634C2.72294 2.48218 2.78096 2.53649 2.8468 2.53649ZM3.14512 2.19948C3.21468 2.19948 3.26899 2.14517 3.26899 2.07933C3.26899 2.01349 3.21468 1.95919 3.14512 1.95919C3.07557 1.95919 3.02126 2.01349 3.02126 2.07933C3.02126 2.14517 3.07557 2.19948 3.14512 2.19948ZM3.50929 1.94394C3.57884 1.94394 3.63315 1.88963 3.63315 1.82379C3.63315 1.75795 3.57884 1.70364 3.50929 1.70364C3.43973 1.70364 3.38542 1.75795 3.38542 1.82379C3.38542 1.88963 3.44345 1.94394 3.50929 1.94394ZM3.90432 1.79663C3.97388 1.79663 4.02819 1.74233 4.02819 1.67649C4.02819 1.61065 3.97388 1.55634 3.90432 1.55634C3.83476 1.55634 3.78045 1.61065 3.78045 1.67649C3.78045 1.74233 3.83476 1.79663 3.90432 1.79663ZM4.30307 1.82751C4.37263 1.82751 4.42694 1.7732 4.42694 1.70736C4.42694 1.64152 4.37263 1.58721 4.30307 1.58721C4.23351 1.58721 4.17921 1.64152 4.17921 1.70736C4.17921 1.7732 4.23351 1.82751 4.30307 1.82751ZM4.5973 1.5024C4.66686 1.5024 4.72117 1.4481 4.72117 1.38226C4.72117 1.31642 4.66686 1.26211 4.5973 1.26211C4.52774 1.26211 4.47344 1.31642 4.47344 1.38226C4.47344 1.4481 4.52774 1.5024 4.5973 1.5024ZM4.98081 1.25467C5.05036 1.25467 5.10467 1.20036 5.10467 1.13452C5.10467 1.06869 5.05036 1.01438 4.98081 1.01438C4.91125 1.01438 4.85694 1.06869 4.85694 1.13452C4.85694 1.20036 4.91125 1.25467 4.98081 1.25467ZM5.37956 1.11146C5.44912 1.11146 5.50343 1.05715 5.50343 0.991315C5.50343 0.925476 5.44912 0.871168 5.37956 0.871168C5.31 0.871168 5.25569 0.925476 5.25569 0.991315C5.25569 1.05715 5.31 1.11146 5.37956 1.11146ZM6.18451 2.29619C6.25407 2.29619 6.30837 2.24188 6.30837 2.17605C6.30837 2.11021 6.25407 2.0559 6.18451 2.0559C6.11495 2.0559 6.06064 2.11021 6.06064 2.17605C6.06064 2.24188 6.11495 2.29619 6.18451 2.29619ZM6.18451 1.85875C6.25407 1.85875 6.30837 1.80445 6.30837 1.73861C6.30837 1.67277 6.25407 1.61846 6.18451 1.61846C6.11495 1.61846 6.06064 1.67277 6.06064 1.73861C6.06064 1.80445 6.11495 1.85875 6.18451 1.85875ZM6.18451 1.42131C6.25407 1.42131 6.30837 1.36701 6.30837 1.30117C6.30837 1.23533 6.25407 1.18102 6.18451 1.18102C6.11495 1.18102 6.06064 1.23533 6.06064 1.30117C6.06064 1.36701 6.11495 1.42131 6.18451 1.42131ZM5.78947 1.0419C5.85903 1.0419 5.91334 0.987595 5.91334 0.921756C5.91237 0.889554 5.8989 0.858995 5.87577 0.836564C5.85264 0.814133 5.82169 0.801595 5.78947 0.801609C5.71991 0.801609 5.66151 0.855917 5.66151 0.921756C5.66151 0.991315 5.71954 1.0419 5.78947 1.0419ZM9.22798 4.00429C9.3325 4.0586 9.41397 4.03516 9.5144 4.00057C9.34776 3.91911 9.25885 3.84583 9.33622 3.65612C9.37119 3.57094 9.41359 3.5051 9.50659 3.47795C9.44856 2.73847 9.23542 2.38584 8.53872 2.0492L8.4885 2.06483C8.4885 2.07264 8.49222 2.08045 8.49222 2.09198C8.49222 2.19278 8.43419 2.243 8.35682 2.29731C8.48069 2.32037 8.59302 2.37877 8.59302 2.52198C8.59302 2.64213 8.50784 2.70797 8.3996 2.73884C8.43456 2.80468 8.44238 2.83183 8.43456 2.9092C8.57777 2.97504 8.60865 3.06022 8.56996 3.20343C8.51565 3.40467 8.39179 3.42401 8.19427 3.3738C8.18364 3.43529 8.19424 3.49857 8.22434 3.55323C8.25444 3.6079 8.30225 3.65069 8.3599 3.67458C8.41755 3.69847 8.48161 3.70204 8.54156 3.68469C8.6015 3.66734 8.65376 3.63011 8.68974 3.57912C8.68974 3.55978 8.69346 3.54416 8.69755 3.52482C8.72842 3.40876 8.85229 3.33511 8.97653 3.36598C9.10077 3.39686 9.17404 3.517 9.13908 3.63306C9.12755 3.67174 9.10821 3.70262 9.08105 3.72977C9.07733 3.84583 9.12755 3.95035 9.22835 4.00466L9.22798 4.00429ZM5.99071 1.29745C5.99071 1.28183 5.99443 1.26657 5.99443 1.24723C5.08459 1.18139 4.42992 1.78176 4.34101 2.62576C4.42248 2.65663 4.45335 2.6916 4.48831 2.76897C4.64715 2.76116 4.71671 2.82328 4.75539 2.96239C4.8097 3.15991 4.70889 3.23728 4.51138 3.2875C4.5694 3.41546 4.68955 3.50436 4.84429 3.46567C4.90292 3.45229 4.95523 3.4193 4.99256 3.37216C5.0299 3.32502 5.05003 3.26654 5.04962 3.20641C5.02655 3.17212 5.01437 3.13167 5.01466 3.09035C5.01466 2.97021 5.11546 2.86977 5.24305 2.86977C5.36691 2.86977 5.47144 2.96649 5.47144 3.09035C5.47137 3.11401 5.46747 3.1375 5.45991 3.15991C5.47628 3.21775 5.51138 3.26853 5.55972 3.30427C5.60805 3.34002 5.66688 3.35871 5.72698 3.35743C5.88581 3.35743 5.97881 3.24509 6.00187 3.1056C5.80063 3.1056 5.6842 3.05539 5.6842 2.85006C5.6842 2.70276 5.73851 2.62948 5.89325 2.59823C5.92822 2.41634 6.02493 2.40481 6.17967 2.38137C6.3385 2.40853 6.4315 2.41634 6.46609 2.59823C6.62083 2.62911 6.67514 2.70276 6.67514 2.85006C6.67514 3.05539 6.55908 3.1056 6.35747 3.1056C6.38054 3.24509 6.47353 3.35743 6.63236 3.35743C6.69217 3.35748 6.75041 3.33832 6.7985 3.30275C6.84659 3.26719 6.88197 3.21711 6.89944 3.15991C6.89186 3.1375 6.88797 3.11401 6.88791 3.09035C6.88791 2.97021 6.98871 2.86977 7.1163 2.86977C7.24388 2.86977 7.34469 2.96649 7.34469 3.09035C7.34502 3.13168 7.33283 3.17214 7.30972 3.20641C7.31344 3.33027 7.39118 3.4348 7.51505 3.46567C7.66979 3.50436 7.78994 3.41546 7.84796 3.2875C7.65045 3.23728 7.55374 3.15954 7.60395 2.96239C7.64264 2.8229 7.7122 2.76116 7.87103 2.76897C7.90971 2.6916 7.93687 2.65663 8.01833 2.62576C7.92943 1.78176 7.27885 1.18139 6.36491 1.24723C6.36822 1.26375 6.36947 1.28062 6.36863 1.29745C6.36863 1.34022 6.35301 1.37482 6.32995 1.40978V1.62292C6.35301 1.65789 6.36863 1.69248 6.36863 1.73526C6.36863 1.77804 6.35301 1.81263 6.32995 1.84759L6.33367 2.06817C6.35301 2.09905 6.36863 2.13401 6.36863 2.1727C6.36863 2.30066 6.27192 2.33525 6.17521 2.37803C6.07849 2.33525 5.98178 2.29656 5.98178 2.1727C5.98178 2.12992 5.9974 2.09533 6.02047 2.06036V1.85131C5.99631 1.81875 5.98279 1.77952 5.98178 1.73898C5.98178 1.6962 5.9974 1.66161 6.02047 1.62664V1.40978C6.00038 1.37575 5.98972 1.33697 5.98959 1.29745H5.99071ZM3.03242 3.65538C3.10607 3.84508 3.02089 3.91873 2.85424 3.99982C2.95505 4.03479 3.03614 4.05785 3.14066 4.00354C3.18873 3.97898 3.22797 3.94008 3.25296 3.89223C3.27795 3.84438 3.28745 3.78995 3.28015 3.73647C3.25289 3.7097 3.23291 3.67641 3.22212 3.63976C3.20916 3.58176 3.21932 3.52099 3.25043 3.47036C3.28155 3.41973 3.33117 3.38322 3.38877 3.36859C3.42193 3.35985 3.45664 3.3587 3.49031 3.36522C3.52399 3.37173 3.55576 3.38575 3.58327 3.40622C3.61079 3.4267 3.63334 3.45311 3.64925 3.48349C3.66516 3.51387 3.67402 3.54745 3.67518 3.58173C3.84927 3.80231 4.2019 3.68625 4.17065 3.3764C3.97313 3.4229 3.84927 3.40355 3.79496 3.20604C3.75627 3.06655 3.78715 2.97765 3.93036 2.91181C3.92183 2.85268 3.9342 2.79243 3.96532 2.74144C3.85708 2.71057 3.7719 2.64473 3.7719 2.52458C3.7719 2.37728 3.88423 2.32335 4.0081 2.29991C3.93445 2.24188 3.87642 2.19539 3.87642 2.09458C3.87642 2.08677 3.87642 2.07524 3.82621 2.05962C3.1176 2.39662 2.92008 2.73735 2.85833 3.48464C2.95505 3.50771 2.99782 3.5702 3.03242 3.65538ZM9.05762 4.35617C8.18646 3.96114 7.2104 3.73647 6.18451 3.73647C5.15861 3.73647 4.18665 3.95705 3.31512 4.35208C3.25709 4.37924 3.19125 4.35208 3.1641 4.29777C3.13694 4.23975 3.1641 4.19697 3.19125 4.15047C3.01307 4.20478 2.8814 4.20478 2.72666 4.08835C2.44024 4.27434 2.11104 3.89084 2.3279 3.71675C2.2271 3.58879 2.2271 3.44968 2.3744 3.35668C2.34652 3.31845 2.33154 3.27233 2.33162 3.22501C2.33162 3.0818 2.44396 3.02377 2.56782 3.00034C2.49417 2.94603 2.43615 2.89581 2.43615 2.79501C2.43615 2.64771 2.55629 2.58596 2.68388 2.57443C2.64891 2.52012 2.62176 2.48143 2.62176 2.4156C2.62176 2.29545 2.72256 2.19874 2.85015 2.19874C2.88884 2.19874 2.92752 2.21027 2.96249 2.2218C2.93942 2.17158 2.91971 2.1329 2.91971 2.07859C2.91971 1.95844 3.02051 1.86173 3.1481 1.86173C3.21022 1.86173 3.24481 1.88479 3.29912 1.90823C3.29019 1.88064 3.28493 1.852 3.2835 1.82304C3.2835 1.7029 3.3843 1.60246 3.51189 1.60246C3.58145 1.60246 3.62013 1.62962 3.67444 1.66458C3.70159 1.54853 3.76743 1.45554 3.90283 1.45554C4.00364 1.45554 4.06166 1.50984 4.11188 1.58349C4.16619 1.52547 4.2164 1.48678 4.30159 1.48678C4.33655 1.48678 4.36742 1.49459 4.40239 1.5024C4.38141 1.46433 4.36945 1.42196 4.36742 1.37854C4.36742 1.25839 4.46823 1.16168 4.5921 1.16168C4.66575 1.16168 4.70443 1.19255 4.76246 1.22752C4.75874 1.20036 4.74684 1.1654 4.74684 1.13452C4.74684 1.01438 4.84764 0.917665 4.97523 0.917665C5.04888 0.917665 5.08756 0.944819 5.14187 0.983504C5.16902 0.867448 5.23486 0.774456 5.37435 0.774456C5.45953 0.774456 5.50603 0.809421 5.56034 0.863357C5.60311 0.770364 5.66486 0.704525 5.78092 0.704525C5.8115 0.705377 5.84165 0.711937 5.86982 0.723867C5.92925 0.653118 6.01144 0.605249 6.1023 0.58847V0.356359H5.9126V0.21687H6.1023V0.0505981H6.25332V0.217242H6.44303V0.352639H6.25332V0.585122C6.34386 0.602759 6.42579 0.650472 6.4858 0.72052C6.51397 0.708589 6.54412 0.702029 6.57471 0.701177C6.69076 0.701177 6.75288 0.770736 6.79528 0.860009C6.84959 0.805701 6.89981 0.771108 6.98127 0.771108C7.12076 0.771108 7.1866 0.86782 7.20966 0.980156C7.26397 0.941471 7.30637 0.914317 7.38002 0.914317C7.50389 0.914317 7.60841 1.01103 7.60841 1.13118C7.60841 1.16205 7.6006 1.19702 7.59688 1.22417C7.65491 1.1892 7.6936 1.16205 7.76725 1.16205C7.89111 1.16205 7.99564 1.25876 7.99564 1.37891C7.99564 1.42541 7.98001 1.46037 7.96067 1.50278C7.99351 1.4935 8.02737 1.48825 8.06148 1.48715C8.14666 1.48715 8.19687 1.52584 8.25118 1.58387C8.3014 1.5065 8.35943 1.45591 8.46023 1.45591C8.59972 1.45591 8.66556 1.55262 8.69271 1.66496C8.74702 1.62999 8.78571 1.60284 8.85526 1.60284C8.97913 1.60284 9.08366 1.69955 9.08366 1.82342C9.08366 1.85057 9.07584 1.88144 9.07212 1.9086C9.12234 1.88144 9.16103 1.8621 9.21943 1.8621C9.34329 1.8621 9.44782 1.95881 9.44782 2.07896C9.44782 2.13327 9.42847 2.17195 9.40504 2.21845C9.44372 2.20692 9.47869 2.19539 9.52109 2.19539C9.64496 2.19539 9.74948 2.2921 9.74948 2.41225C9.74948 2.47809 9.72233 2.51677 9.68737 2.57108C9.81904 2.58261 9.93919 2.64473 9.93919 2.79166C9.93919 2.89246 9.88116 2.94268 9.80751 2.99699C9.93138 3.02414 10.0437 3.07845 10.0437 3.22166C10.0437 3.27597 10.0281 3.31056 10.0009 3.35334C10.152 3.44633 10.1482 3.58173 10.0474 3.70969C10.1791 3.81421 10.1096 3.97676 10.0009 4.06194C9.8886 4.14712 9.77255 4.16275 9.64868 4.08129C9.49394 4.19734 9.36226 4.19734 9.18409 4.14341L9.21124 4.19771C9.24621 4.29443 9.15693 4.39114 9.0565 4.35654L9.05762 4.35617ZM3.61344 4.57675L3.42745 4.51091L3.41183 4.48376C3.39621 4.49157 3.38467 4.49157 3.37314 4.49529C3.32293 4.49901 3.32665 4.44507 3.35008 4.43317C4.20971 4.04223 5.16605 3.82537 6.18079 3.82537C7.19553 3.82537 8.15187 4.04223 9.01149 4.43317C9.03456 4.4447 9.03865 4.49901 8.98843 4.49529C8.9769 4.49529 8.96537 4.49157 8.94975 4.48376L8.93412 4.51091L8.74814 4.57675L8.80244 4.78208L8.78682 4.81705C8.88353 4.85982 8.8177 4.92938 8.77529 4.91004C7.98522 4.54997 7.10625 4.35245 6.17707 4.35245C5.24788 4.35245 4.36891 4.54997 3.57884 4.91004C3.5595 4.91785 3.53607 4.91004 3.52454 4.88698C3.513 4.86391 3.52454 4.84829 3.54016 4.83267C3.54797 4.82486 3.5595 4.82114 3.57103 4.81705L3.55541 4.78208L3.61344 4.57675ZM4.63971 4.42573L5.03474 4.15866L4.55453 4.10844L4.15949 4.37552L4.63971 4.42573ZM8.535 4.67347C8.6239 4.67347 8.69755 4.60391 8.69755 4.51872C8.69755 4.43354 8.6239 4.36398 8.535 4.36398C8.4461 4.36398 8.37245 4.43354 8.37245 4.51872C8.37616 4.60391 8.4461 4.67347 8.535 4.67347ZM5.38291 4.27062C5.47181 4.27062 5.54546 4.20106 5.54546 4.11588C5.54546 4.0307 5.47181 3.96114 5.38291 3.96114C5.29401 3.96114 5.22036 4.0307 5.22036 4.11588C5.22036 4.20106 5.29401 4.27062 5.38291 4.27062ZM3.83402 4.67347C3.92292 4.67347 3.99657 4.60391 3.99657 4.51872C3.99657 4.43354 3.92701 4.36398 3.83402 4.36398C3.74512 4.36398 3.67147 4.43354 3.67147 4.51872C3.67147 4.60391 3.74512 4.67347 3.83402 4.67347ZM6.98611 4.27062C7.07501 4.27062 7.14866 4.20106 7.14866 4.11588C7.14866 4.0307 7.07501 3.96114 6.98611 3.96114C6.9655 3.96079 6.94502 3.96453 6.92586 3.97214C6.9067 3.97974 6.88924 3.99106 6.87448 4.00544C6.85971 4.01983 6.84794 4.03699 6.83984 4.05594C6.83174 4.0749 6.82747 4.09527 6.82727 4.11588C6.82727 4.20106 6.90092 4.27062 6.98611 4.27062ZM7.72968 4.42536L8.20989 4.37514L7.81486 4.10807L7.33464 4.15828L7.72968 4.42536ZM6.68816 4.0731L6.18451 3.89158L5.68123 4.07347L6.18451 4.25537L6.68816 4.0731ZM0.972437 10.2538C0.972437 13.0224 3.31884 15.2877 6.18451 15.2877C9.0539 15.2877 11.4003 13.0224 11.4003 10.2538C11.4003 7.47739 9.0539 5.21989 6.18451 5.21989C3.31512 5.21989 0.972437 7.47739 0.972437 10.2538ZM11.9657 10.2538C11.9657 13.3244 9.37119 15.8337 6.18451 15.8337C2.99782 15.8337 0.40332 13.3244 0.40332 10.2538C0.40332 7.17944 2.99782 4.67012 6.18451 4.67012C9.37119 4.6664 11.9657 7.17535 11.9657 10.2538ZM5.42568 7.87986L6.18079 8.62343L6.88567 7.9033C6.63794 7.84118 6.40174 7.79505 6.1421 7.78724C5.90218 7.77571 5.65817 7.82965 5.42568 7.87986ZM7.41201 7.36096L8.51937 6.25732C9.95221 7.05111 10.9164 8.53788 10.9164 10.2378C10.9164 11.3452 10.5098 12.3599 9.82425 13.1537L9.30907 12.6541C9.88972 11.9686 10.2695 11.2871 10.2695 10.1954C10.2695 9.03 9.63827 7.72884 8.63171 7.0552L7.96588 7.71359C8.30661 7.96132 8.57777 8.20906 8.80616 8.5576L8.29879 8.97978C8.09756 8.63906 7.83792 8.39914 7.50501 8.17818L6.18079 9.52584L4.80598 8.15884C4.09365 8.63906 3.67518 9.32423 3.65584 10.1764C3.63278 11.3109 4.3916 12.0969 5.45656 12.4417V10.1649H7.08282V10.6336H6.08779V11.2414H7.07129V11.7759H6.08779V12.5425C6.81574 12.5775 7.59391 12.1709 8.06631 11.6673L8.55434 12.1434C7.93091 12.8405 7.0326 13.1927 6.09151 13.2005V13.9013H5.46028V13.1269C4.02372 12.7825 2.9822 11.5665 3.00154 10.1143C3.01307 9.11927 3.56285 8.30205 4.36073 7.7214L3.68709 7.04776C2.64147 7.87242 2.08017 8.87935 2.03367 10.1879C1.99871 11.3459 2.61841 12.2751 3.00936 12.666L2.55629 13.1113C1.8555 12.3212 1.44112 11.3455 1.44112 10.2341C1.44112 8.54569 2.40527 7.05892 3.82621 6.26513L4.94919 7.39593C5.34794 7.24863 5.76232 7.17126 6.18823 7.17126C6.59446 7.17732 6.99662 7.25332 7.37705 7.39593L7.41201 7.36096Z" fill="#FCBF00"/>
<path d="M12.1365 10.2538C12.1365 13.4174 9.46462 16 6.18495 16C2.90118 16 0.233398 13.4174 0.233398 10.2538C0.233398 7.08606 2.90527 4.49974 6.18495 4.49974C9.46872 4.49974 12.1365 7.08644 12.1365 10.2538ZM11.9661 10.2538C11.9661 7.17943 9.37163 4.67011 6.18495 4.67011C2.99827 4.67011 0.403762 7.17906 0.403762 10.2538C0.403762 13.3244 2.99827 15.8337 6.18495 15.8337C9.37163 15.8337 11.9661 13.3244 11.9661 10.2538ZM1.14324 10.2538C1.14324 12.9294 3.41227 15.121 6.18495 15.121C8.95763 15.121 11.2267 12.9331 11.2267 10.2538C11.2267 7.57037 8.95763 5.39024 6.18495 5.39024C3.41264 5.38653 1.14324 7.57037 1.14324 10.2538ZM0.972879 10.2538C0.972879 7.47738 3.31928 5.21988 6.18495 5.21988C9.05434 5.21988 11.4007 7.47738 11.4007 10.2538C11.4007 13.0224 9.05434 15.2877 6.18495 15.2877C3.31556 15.284 0.972879 13.0224 0.972879 10.2538ZM6.79647 9.14233L9.61527 11.9496C9.93666 11.4385 10.0992 10.9159 10.0992 10.1917C10.0992 8.92919 9.36345 7.77942 8.65484 7.26833L8.22893 7.69052C8.55015 7.93698 8.82209 8.24173 9.03053 8.58883L8.24828 9.24313C8.06229 8.88678 7.86477 8.63533 7.52814 8.39913L6.79647 9.14233ZM10.3704 12.701C9.86301 13.5335 9.08856 14.1918 8.17091 14.5869L7.7145 14.1375L6.86268 13.2973C6.66534 13.3402 6.46424 13.3635 6.26232 13.3668V14.0717H5.28664V13.2586C3.82293 12.8751 2.81228 11.5508 2.8279 10.1143C2.83162 9.87437 2.86659 9.64188 2.92462 9.41721L2.4444 8.94481C2.30119 9.33203 2.21973 9.75013 2.20448 10.1954C2.17732 11.0859 2.58017 12.05 3.25009 12.6656L2.5452 13.3586C1.71645 12.4603 1.26339 11.4497 1.26339 10.2337C1.26339 8.46013 2.27032 6.91124 3.8538 6.05942L4.98831 7.20547C5.36401 7.07379 5.78991 7.00795 6.18086 7.00795C6.60304 7.01167 6.98618 7.08532 7.33099 7.20547L8.48485 6.04752C10.0802 6.90343 11.0868 8.45232 11.0868 10.237C11.0905 11.1432 10.8391 11.9641 10.3704 12.6999V12.701ZM5.28217 11.7446L3.82665 10.3118C3.86161 11.1134 4.36861 11.8722 5.28254 12.2092L5.28217 11.7446ZM7.41246 7.36095L7.37377 7.39964C6.99435 7.25349 6.59154 7.17749 6.18495 7.17534C5.75904 7.17534 5.34466 7.25271 4.94591 7.40001L3.82293 6.26921C2.40199 7.05928 1.43784 8.54605 1.43784 10.2344C1.43784 11.3496 1.85222 12.3216 2.55302 13.1116L3.00608 12.6664C2.61513 12.2754 1.99543 11.3459 2.03039 10.1883C2.07689 8.87934 2.6382 7.87279 3.68381 7.04812L4.35745 7.72177C3.55994 8.30241 3.0098 9.11964 2.99827 10.1147C2.97892 11.5668 4.01672 12.7824 5.457 13.1273V13.9017H6.08824V13.2002C7.03304 13.1924 7.93136 12.8401 8.55106 12.143L8.06303 11.6669C7.59063 12.1702 6.81618 12.5808 6.08452 12.5421V11.7755H7.06801V11.241H6.08452V10.6332H7.07954V10.1645H5.45328V12.4413C4.38832 12.0969 3.62578 11.3105 3.65256 10.176C3.67191 9.32422 4.09 8.63868 4.8027 8.15846L6.17751 9.52546L7.50173 8.1778C7.83874 8.39838 8.09428 8.63868 8.29552 8.9794L8.80289 8.55721C8.5745 8.20868 8.30333 7.96094 7.9626 7.71321L8.62843 7.05482C9.63536 7.72846 10.2662 9.02962 10.2662 10.195C10.2662 11.283 9.88681 11.9686 9.30579 12.6537L9.82097 13.1533C10.5258 12.3455 10.9139 11.3095 10.9131 10.2374C10.9131 8.5375 9.94893 7.05073 8.5161 6.25694L7.41246 7.36095ZM5.42613 7.87985C5.65861 7.82964 5.90225 7.77533 6.14254 7.78314C6.40181 7.79095 6.63801 7.83745 6.88612 7.8992L6.18123 8.61933L5.42613 7.87985ZM5.77057 7.98066L6.17714 8.3835L6.55655 7.99628C6.42115 7.96913 6.28166 7.95759 6.13436 7.9535C6.04546 7.94978 5.91006 7.96131 5.77057 7.98066ZM8.79879 4.60018L8.83376 4.73557L8.84938 4.78207L8.87654 4.76645L9.00822 4.69689L8.97325 4.56521L8.96544 4.53806L8.79879 4.60018ZM9.05806 4.35616C9.15886 4.39113 9.24776 4.29032 9.20127 4.20514L9.17411 4.15083C9.35229 4.20514 9.48397 4.20514 9.63871 4.08872C9.76257 4.17018 9.87491 4.15455 9.99096 4.06937C10.1033 3.98419 10.1691 3.82164 10.0375 3.71712C10.1383 3.58916 10.142 3.45004 9.99096 3.36077C10.0181 3.31799 10.0337 3.2834 10.0337 3.22909C10.0337 3.08588 9.92141 3.02785 9.79754 3.00442C9.87119 2.94639 9.92922 2.89989 9.92922 2.79909C9.92922 2.65179 9.80907 2.59004 9.67739 2.57851C9.71236 2.5242 9.73951 2.48961 9.73951 2.41968C9.73951 2.29953 9.63871 2.20282 9.51112 2.20282C9.47244 2.20282 9.43375 2.21435 9.39507 2.22588C9.41813 2.17566 9.43784 2.1407 9.43784 2.08639C9.43784 1.96624 9.33704 1.86953 9.20945 1.86953C9.14733 1.86953 9.11274 1.88887 9.06215 1.91603C9.06587 1.88887 9.07368 1.858 9.07368 1.83085C9.07261 1.77132 9.04795 1.71466 9.00513 1.6733C8.9623 1.63194 8.90482 1.60927 8.84529 1.61027C8.77573 1.61027 8.73705 1.63742 8.68274 1.67239C8.65559 1.55633 8.58975 1.46334 8.45026 1.46334C8.34945 1.46334 8.29143 1.51765 8.24121 1.5913C8.1869 1.53327 8.13668 1.49458 8.0515 1.49458C8.01654 1.49458 7.98194 1.50239 7.9507 1.51021C7.97004 1.46743 7.98566 1.43284 7.98566 1.38634C7.98566 1.26619 7.88486 1.16948 7.75727 1.16948C7.68362 1.16948 7.64494 1.19663 7.58691 1.2316C7.59063 1.20444 7.59844 1.16948 7.59844 1.13861C7.59844 1.01846 7.49764 0.921746 7.37005 0.921746C7.2964 0.921746 7.25772 0.9489 7.19969 0.987585C7.17253 0.87153 7.10669 0.778537 6.9713 0.778537C6.88612 0.778537 6.83962 0.813503 6.78531 0.867438C6.73881 0.774446 6.68079 0.708606 6.56473 0.708606C6.52977 0.708606 6.5067 0.716418 6.47583 0.727949C6.4164 0.657199 6.33421 0.60933 6.24335 0.592551V0.360069H6.43305V0.21686H6.24335V0.0505882H6.09233V0.217232H5.90262V0.352629H6.09233V0.585112C5.99561 0.608174 5.9335 0.643139 5.85985 0.72051C5.83167 0.708588 5.80152 0.702028 5.77094 0.701167C5.65489 0.701167 5.59277 0.770726 5.55036 0.859999C5.49606 0.805691 5.44584 0.771098 5.36438 0.771098C5.22489 0.771098 5.15905 0.86781 5.1319 0.980146C5.07759 0.941461 5.03518 0.914307 4.96525 0.914307C4.84139 0.914307 4.73686 1.01102 4.73686 1.13117C4.73686 1.16204 4.74467 1.19701 4.75248 1.22416C4.69446 1.18919 4.65168 1.15832 4.58212 1.15832C4.55312 1.15778 4.5243 1.16296 4.49731 1.17357C4.47031 1.18418 4.44568 1.20001 4.42481 1.22015C4.40394 1.2403 4.38725 1.26436 4.37569 1.29096C4.36413 1.31756 4.35793 1.34618 4.35745 1.37518C4.35745 1.42168 4.37307 1.45664 4.39242 1.49905C4.35745 1.49124 4.32658 1.48342 4.29161 1.48342C4.20643 1.48342 4.15621 1.52211 4.10191 1.58014C4.05169 1.50277 3.99366 1.45218 3.89286 1.45218C3.75337 1.45218 3.68753 1.54889 3.66447 1.66123C3.62169 1.63035 3.57929 1.6032 3.50973 1.6032C3.4502 1.6022 3.39271 1.62487 3.34989 1.66623C3.30707 1.70759 3.28241 1.76425 3.28134 1.82378C3.28134 1.85093 3.28915 1.88181 3.29287 1.90896C3.24935 1.87914 3.19794 1.86295 3.14519 1.86246C3.02133 1.86246 2.9168 1.95918 2.9168 2.07932C2.9168 2.13363 2.93615 2.17232 2.95958 2.21881C2.92461 2.211 2.89002 2.19947 2.84724 2.19947C2.72338 2.19947 2.61885 2.29618 2.61885 2.41633C2.61885 2.48217 2.64601 2.52085 2.68097 2.57516C2.55302 2.58669 2.43696 2.64881 2.43696 2.79574C2.43696 2.89655 2.49499 2.94676 2.56864 3.00107C2.44477 3.02822 2.33244 3.08253 2.33244 3.22574C2.33244 3.28005 2.34806 3.31464 2.37521 3.35742C2.22791 3.45041 2.22791 3.5899 2.32872 3.71749C2.11186 3.89157 2.44105 4.27879 2.72747 4.08909C2.88221 4.20514 3.01389 4.20514 3.19206 4.15121C3.169 4.20142 3.13775 4.2442 3.16491 4.29851C3.17106 4.31216 3.17989 4.32444 3.19089 4.33461C3.20188 4.34478 3.21481 4.35263 3.2289 4.3577C3.24299 4.36276 3.25796 4.36494 3.27291 4.36411C3.28786 4.36327 3.30249 4.35943 3.31593 4.35282C4.18709 3.95778 5.15905 3.7372 6.18532 3.7372C7.21531 3.74092 8.18727 3.96187 9.05843 4.35691L9.05806 4.35616ZM3.5711 4.60018L3.45096 4.5574L3.40446 4.54178L3.39665 4.56893L3.36168 4.69689L3.49336 4.76645L3.52051 4.78207L3.53205 4.73185L3.5711 4.60018ZM3.49373 4.80922L3.31965 4.71623L3.36243 4.54959C3.29659 4.54178 3.26571 4.46813 3.29659 4.41791C3.26088 4.42313 3.22444 4.41695 3.19245 4.40025C3.16046 4.38356 3.13455 4.35719 3.11841 4.32492C3.10279 4.29404 3.09907 4.2628 3.10279 4.23192C3.03818 4.2449 2.97162 4.24474 2.90708 4.23144C2.84253 4.21815 2.78132 4.192 2.7271 4.15455C2.42134 4.33273 2.06127 3.90682 2.25841 3.7093C2.16951 3.58135 2.19257 3.42661 2.30491 3.34142C2.28599 3.30573 2.27664 3.26575 2.27776 3.22537C2.27776 3.11303 2.35141 3.01632 2.45184 2.97354C2.40705 2.92503 2.38221 2.8614 2.38228 2.79537C2.38228 2.66741 2.47527 2.56289 2.59542 2.53201C2.5765 2.49632 2.56715 2.45634 2.56827 2.41596C2.56827 2.26494 2.69213 2.14479 2.84724 2.14479H2.8744C2.86475 2.10418 2.86452 2.0619 2.87371 2.02119C2.88291 1.98048 2.90129 1.94241 2.92746 1.90989C2.95363 1.87737 2.98688 1.85126 3.02468 1.83357C3.06249 1.81587 3.10383 1.80705 3.14557 1.80778C3.17437 1.80754 3.20305 1.81142 3.23075 1.81931C3.23075 1.67201 3.35871 1.55224 3.50973 1.55224C3.55421 1.55232 3.59806 1.5629 3.63769 1.58311C3.67637 1.47859 3.78089 1.40494 3.90104 1.40494C3.94236 1.40487 3.98319 1.41386 4.02066 1.43128C4.05812 1.4487 4.09132 1.47411 4.1179 1.50574C4.16981 1.46187 4.23594 1.43846 4.30389 1.4399H4.32323C4.31951 1.42056 4.31542 1.40122 4.31542 1.38188C4.31542 1.23086 4.43928 1.11071 4.5944 1.11071C4.63308 1.11071 4.66805 1.11852 4.69892 1.13005C4.70264 0.98275 4.82688 0.862975 4.9779 0.862975C5.02812 0.862975 5.07461 0.874506 5.1133 0.89794C5.15198 0.793416 5.25651 0.719766 5.37665 0.719766C5.44249 0.719766 5.50052 0.739108 5.54702 0.777793C5.59723 0.704143 5.68241 0.653927 5.78322 0.653927C5.81037 0.653927 5.83344 0.657646 5.85687 0.665458C5.90337 0.618961 5.95767 0.583996 6.02351 0.557214L6.05067 0.545683V0.406193H5.86096V0.166643H6.05067V0H6.30993V0.166643H6.49964V0.406565H6.30993V0.546055L6.33709 0.557586C6.40036 0.580086 6.45745 0.617168 6.50373 0.66583C6.52679 0.658018 6.55022 0.654299 6.57738 0.654299C6.67818 0.654299 6.76336 0.704515 6.81358 0.778165C6.86008 0.7432 6.92182 0.720138 6.98394 0.720138C7.10409 0.720138 7.20862 0.793788 7.2473 0.898312C7.28599 0.87525 7.33248 0.863347 7.3827 0.863347C7.53744 0.863347 7.66168 0.983494 7.66168 1.13042C7.69255 1.11889 7.72752 1.11108 7.7662 1.11108C7.92094 1.11108 8.04518 1.23123 8.04518 1.38225C8.04518 1.40159 8.04518 1.42093 8.03737 1.44028H8.05671C8.12422 1.44137 8.18953 1.46449 8.2427 1.50611C8.29291 1.44399 8.37066 1.40531 8.45956 1.40531C8.5797 1.40531 8.68423 1.47896 8.72291 1.58348C8.76254 1.56327 8.80638 1.55269 8.85087 1.55261C9.00561 1.55261 9.12985 1.67276 9.12985 1.81969C9.15755 1.8118 9.18623 1.80792 9.21503 1.80816C9.36977 1.80816 9.49401 1.9283 9.49401 2.07932C9.49401 2.10239 9.49029 2.12582 9.4862 2.14888H9.51335C9.66809 2.14888 9.79233 2.26903 9.79233 2.42005C9.79233 2.46283 9.7808 2.50151 9.76518 2.5361C9.88904 2.56326 9.97832 2.6715 9.97832 2.79946C9.97804 2.8673 9.95167 2.93243 9.90467 2.98135C9.9567 2.99984 10.0018 3.03396 10.0337 3.07904C10.0655 3.12412 10.0827 3.17796 10.0828 3.23318C10.0828 3.27596 10.0713 3.31464 10.0557 3.34923C10.168 3.43442 10.1911 3.58916 10.1022 3.71712C10.2261 3.84098 10.1178 4.0385 10.0133 4.11996C9.91248 4.19733 9.76927 4.24383 9.62978 4.16274C9.52154 4.23639 9.38577 4.26726 9.25409 4.24011C9.26971 4.34835 9.16891 4.44134 9.06066 4.42609C9.09154 4.47631 9.06066 4.54996 8.99482 4.55777L9.0376 4.72442L8.86352 4.81741C8.88658 4.84456 8.89067 4.88325 8.87505 4.91821C8.85199 4.96471 8.79768 4.99186 8.74709 4.96843C7.96483 4.61208 7.09368 4.41456 6.16821 4.41456C5.28004 4.4124 4.40179 4.60129 3.59305 4.96843C3.54283 4.99149 3.48852 4.96471 3.46509 4.91821C3.46881 4.87544 3.4729 4.83675 3.49596 4.80997L3.49373 4.80922ZM3.61388 4.57674L3.55957 4.78207L3.57519 4.81704C3.56738 4.82076 3.55585 4.82485 3.54432 4.83266C3.5287 4.84419 3.51717 4.85981 3.5287 4.88697C3.54023 4.91003 3.56366 4.91784 3.58301 4.91003C4.37307 4.54996 5.25204 4.35244 6.18123 4.35244C7.11451 4.35244 7.98938 4.54996 8.77945 4.91003C8.81814 4.92937 8.8877 4.85981 8.79098 4.81704L8.80661 4.78207L8.7523 4.57674L8.93828 4.5109L8.95391 4.48375C8.96953 4.49156 8.98106 4.49156 8.99259 4.49528C9.04281 4.499 9.03909 4.44506 9.01565 4.43316C8.12653 4.03013 7.16115 3.82297 6.18495 3.82573C5.17058 3.82573 4.21387 4.04259 3.35424 4.43353C3.33118 4.44506 3.32709 4.49937 3.3773 4.49565C3.38884 4.49565 3.40037 4.49193 3.41599 4.48412L3.42752 4.51128L3.61388 4.57674ZM7.86552 2.18385C7.64494 1.6456 7.12604 1.2621 6.43677 1.29707C6.43677 1.34356 6.42115 1.38597 6.39809 1.42502V1.60692C6.42115 1.6456 6.43677 1.68838 6.43677 1.73488C6.43677 1.78137 6.42115 1.82787 6.39809 1.86284V1.97889C6.87049 1.91677 7.42808 1.9629 7.86552 2.18385ZM6.394 2.04845C6.42687 2.09771 6.43956 2.15772 6.42946 2.21608C6.41935 2.27444 6.38721 2.32668 6.33969 2.36202C6.42487 2.38918 6.49071 2.45092 6.51377 2.55954C6.68413 2.59822 6.73063 2.72209 6.73063 2.85377C6.73063 3.0126 6.66479 3.148 6.42487 3.15953C6.45202 3.24843 6.53721 3.31055 6.63801 3.31055C6.68388 3.31092 6.72871 3.29692 6.76621 3.27049C6.8037 3.24407 6.83198 3.20657 6.84706 3.16325C6.83925 3.14019 6.83925 3.11675 6.83925 3.09369C6.83925 2.94267 6.9672 2.82252 7.12195 2.82252C7.27669 2.82252 7.40464 2.94267 7.40464 3.09369C7.40464 3.14019 7.39311 3.18259 7.36968 3.22165C7.3734 3.31464 7.43924 3.39201 7.53632 3.41917C7.63303 3.44223 7.72975 3.40354 7.78034 3.32245C7.55194 3.25289 7.52107 3.10559 7.56348 2.95085C7.59844 2.82289 7.67581 2.71465 7.84617 2.71837C7.87705 2.65625 7.91983 2.61757 7.97004 2.5945C7.95442 2.46655 7.92726 2.34677 7.88114 2.23034C7.4318 1.99042 6.84743 1.94764 6.39437 2.01348L6.394 2.04845ZM5.99115 1.29707C5.99115 1.33984 6.00677 1.37444 6.02984 1.4094V1.62254C6.00677 1.65751 5.99115 1.6921 5.99115 1.73488C5.99115 1.77765 6.00677 1.81225 6.02984 1.84721V2.06407C6.00677 2.09904 5.99115 2.13363 5.99115 2.17641C5.99115 2.30437 6.08786 2.33896 6.18458 2.38174C6.28129 2.33896 6.378 2.30027 6.378 2.17641C6.378 2.13772 6.36647 2.09904 6.34304 2.07188L6.33932 1.8513C6.36238 1.81634 6.378 1.78175 6.378 1.73897C6.378 1.69619 6.36238 1.6616 6.33932 1.62663V1.40977C6.36238 1.37481 6.378 1.34021 6.378 1.29744C6.378 1.28182 6.37428 1.26656 6.37428 1.24722C7.28413 1.18138 7.9388 1.78175 8.0277 2.62575C7.94624 2.65662 7.91536 2.69159 7.8804 2.76896C7.72156 2.76115 7.65201 2.82327 7.61332 2.96238C7.55901 3.1599 7.65982 3.23727 7.85733 3.28749C7.79931 3.41545 7.67916 3.50435 7.52442 3.46566C7.46582 3.45222 7.41356 3.41921 7.37623 3.37208C7.33891 3.32495 7.31875 3.26652 7.31909 3.2064C7.34216 3.17211 7.35434 3.13166 7.35406 3.09034C7.35298 3.03082 7.32832 2.97415 7.2855 2.9328C7.24268 2.89144 7.18519 2.86877 7.12567 2.86976C7.06614 2.86877 7.00865 2.89144 6.96583 2.9328C6.92301 2.97415 6.89835 3.03082 6.89727 3.09034C6.89734 3.114 6.90124 3.13749 6.90881 3.1599C6.89187 3.21742 6.85663 3.26784 6.80842 3.30349C6.76021 3.33914 6.70168 3.35808 6.64173 3.35742C6.4829 3.35742 6.38991 3.24508 6.36684 3.10559C6.56808 3.10559 6.68451 3.05538 6.68451 2.85005C6.68451 2.70275 6.6302 2.62947 6.47546 2.59822C6.44049 2.41633 6.34378 2.4048 6.18904 2.38136C6.03021 2.40852 5.93722 2.41633 5.90262 2.59822C5.74788 2.6291 5.69357 2.70275 5.69357 2.85005C5.69357 3.05538 5.80963 3.10559 6.01124 3.10559C5.98818 3.24508 5.89518 3.35742 5.73635 3.35742C5.67654 3.35747 5.6183 3.33831 5.57021 3.30274C5.52212 3.26718 5.48674 3.2171 5.46927 3.1599C5.47684 3.13749 5.48074 3.114 5.48081 3.09034C5.47973 3.03082 5.45507 2.97415 5.41225 2.9328C5.36943 2.89144 5.31194 2.86877 5.25241 2.86976C5.12446 2.86976 5.02402 2.96648 5.02402 3.09034C5.02369 3.13167 5.03588 3.17213 5.05899 3.2064C5.05527 3.33026 4.97753 3.43479 4.85366 3.46566C4.69892 3.50435 4.57877 3.41545 4.52075 3.28749C4.71826 3.23727 4.81498 3.15953 4.76476 2.96238C4.72607 2.82289 4.65652 2.76115 4.49768 2.76896C4.459 2.69159 4.43184 2.65662 4.35038 2.62575C4.43928 1.78175 5.08986 1.18138 6.0038 1.24722C5.99674 1.26306 5.99282 1.28011 5.99227 1.29744L5.99115 1.29707ZM4.48504 2.23444C4.44226 2.35049 4.41139 2.47064 4.39986 2.5986C4.45007 2.62166 4.49285 2.66071 4.52372 2.72246C4.69781 2.71874 4.77555 2.82699 4.81014 2.95494C4.85292 3.10969 4.82167 3.25699 4.59328 3.32654C4.6435 3.40391 4.74058 3.44669 4.83729 3.42326C4.93401 3.39982 4.99985 3.31873 5.00394 3.22574C4.98069 3.18713 4.96859 3.14285 4.96897 3.09778C4.96897 2.94676 5.09693 2.82661 5.25167 2.82661C5.40641 2.82661 5.53437 2.94676 5.53437 3.09778C5.53437 3.12084 5.53065 3.14428 5.52656 3.16734C5.54211 3.21036 5.5705 3.24755 5.60789 3.2739C5.64528 3.30025 5.68987 3.31447 5.73561 3.31464C5.83641 3.31464 5.9175 3.25252 5.94875 3.16362C5.70882 3.15209 5.64299 3.01632 5.64299 2.85786C5.64299 2.72246 5.68948 2.60232 5.85985 2.56363C5.8694 2.5185 5.89044 2.47661 5.92094 2.442C5.95144 2.4074 5.99036 2.38126 6.03393 2.36611C6.00561 2.34395 5.98257 2.31576 5.96649 2.28359C5.9504 2.25143 5.94168 2.21608 5.94093 2.18013C5.94093 2.13363 5.95656 2.08713 5.97962 2.05217V2.01348C5.51875 1.95136 4.93401 1.99451 4.48504 2.23444ZM5.93722 1.29744C5.24423 1.25875 4.72905 1.64598 4.50438 2.18422C4.9381 1.96736 5.4994 1.91305 5.97181 1.97889V1.86246C5.94875 1.82378 5.93312 1.781 5.93312 1.73451C5.93312 1.68801 5.94875 1.64151 5.97181 1.60655V1.42465C5.94981 1.38552 5.9378 1.34157 5.93684 1.29669L5.93722 1.29744ZM8.75602 3.76026L8.77164 3.74873C8.80251 3.7718 8.82967 3.78742 8.86835 3.79895C8.88398 3.80267 8.90332 3.80267 8.91857 3.80676C8.93791 3.90347 8.97288 3.98084 9.04244 4.05077L9.01156 4.09355C8.84493 4.02274 8.67568 3.95822 8.50419 3.90013L8.512 3.84991C8.59719 3.8421 8.68609 3.81122 8.75602 3.76101V3.76026ZM8.77164 3.81048C8.72514 3.84135 8.67084 3.86479 8.6169 3.88004C8.72492 3.91899 8.83207 3.96029 8.93828 4.00391C8.90766 3.95781 8.88538 3.90669 8.87245 3.85288L8.85682 3.84917C8.82595 3.84135 8.79879 3.8261 8.77164 3.81048ZM6.15779 3.15618H6.2121C6.23144 3.29567 6.32444 3.41545 6.45202 3.47385L6.44049 3.52406C6.35531 3.52034 6.27013 3.52034 6.18495 3.52034C6.09977 3.52034 6.01459 3.52034 5.9294 3.52406L5.91787 3.47385C6.04583 3.41173 6.13845 3.29567 6.15779 3.15618ZM6.18495 3.26071C6.15407 3.34217 6.09977 3.41173 6.02612 3.46603C6.08042 3.46603 6.13064 3.46231 6.18495 3.46231C6.23792 3.46162 6.2909 3.46286 6.34378 3.46603C6.27307 3.41323 6.21815 3.34247 6.18495 3.26071ZM3.36205 4.08946L3.33118 4.04668C3.40074 3.97303 3.4357 3.89938 3.45505 3.80267C3.50741 3.80056 3.55767 3.7815 3.59826 3.74836C3.67972 3.80639 3.76081 3.84135 3.86161 3.84507L3.86942 3.89529C3.69793 3.95338 3.52869 4.0179 3.36205 4.08872V4.08946ZM3.4357 4.00428C3.54192 3.96066 3.64907 3.91936 3.75709 3.88041C3.70278 3.86479 3.64884 3.84173 3.60235 3.81085C3.57929 3.82647 3.54804 3.83801 3.52089 3.84582L3.50526 3.84954C3.48592 3.90385 3.46658 3.95778 3.4357 4.00428ZM4.69409 3.62077V3.67099C4.53 3.7051 4.36722 3.74517 4.20606 3.79114L4.183 3.74464C4.28752 3.65574 4.34964 3.51997 4.3303 3.38048L4.38051 3.36895C4.43482 3.50063 4.5546 3.59362 4.69409 3.62077ZM4.58584 3.64012C4.5056 3.6064 4.43604 3.5515 4.3846 3.48129C4.37307 3.56647 4.34183 3.64793 4.28789 3.71377C4.3846 3.68661 4.48504 3.66355 4.58584 3.64012ZM5.0389 3.60515L5.01956 3.55866C5.11627 3.49654 5.17839 3.41545 5.21708 3.31092H5.24795C5.27882 3.31092 5.30226 3.30311 5.33313 3.2953C5.39897 3.38829 5.47634 3.45413 5.58868 3.485L5.58496 3.53522C5.40242 3.55411 5.22035 3.5773 5.0389 3.60478V3.60515ZM5.25576 3.36523C5.22861 3.43107 5.1862 3.4891 5.1319 3.53931L5.47634 3.49654C5.41219 3.4631 5.35658 3.41538 5.31379 3.35705C5.29445 3.36077 5.27511 3.36486 5.25576 3.36486V3.36523ZM6.78531 3.53931L6.78159 3.4891C6.8856 3.45625 6.97559 3.38945 7.03714 3.29939C7.06801 3.3072 7.09144 3.31501 7.12232 3.31501H7.15319C7.19188 3.41954 7.254 3.501 7.35071 3.56275L7.33137 3.60924C7.15319 3.57837 6.9713 3.55456 6.78531 3.53931ZM7.11451 3.36523C7.09616 3.36482 7.07792 3.3622 7.0602 3.35742C7.01742 3.41545 6.95939 3.46194 6.89356 3.49691C7.00961 3.50844 7.12604 3.51997 7.238 3.53968C7.18833 3.49332 7.1476 3.43822 7.11785 3.37713L7.11451 3.36523ZM8.19099 3.74464L8.16793 3.79114C8.0091 3.74464 7.84655 3.70596 7.6799 3.67099V3.62077C7.8153 3.59362 7.93545 3.50063 7.98976 3.37304L8.03997 3.38457C8.03245 3.45248 8.04237 3.52118 8.06879 3.58419C8.09522 3.64719 8.13728 3.70242 8.19099 3.74464ZM8.08647 3.71377C8.03216 3.64793 7.99757 3.56647 7.98976 3.48129C7.93954 3.55084 7.86589 3.60515 7.78852 3.64012L8.08684 3.71377H8.08647ZM8.16384 2.82699C8.04369 2.79611 7.91983 2.86567 7.88895 2.98173C7.85808 3.09778 7.93173 3.21793 8.0515 3.24508C8.17165 3.27596 8.29552 3.2064 8.32639 3.09034C8.35726 2.97429 8.28361 2.85414 8.16384 2.82699ZM8.17165 2.79202C8.31114 2.82699 8.39632 2.96238 8.36136 3.09778C8.32639 3.23318 8.18318 3.31464 8.04369 3.27968C8.01103 3.27228 7.98017 3.25847 7.9529 3.23904C7.92563 3.21961 7.9025 3.19495 7.88485 3.1665C7.86719 3.13805 7.85538 3.10637 7.85008 3.07331C7.84478 3.04024 7.84611 3.00646 7.85399 2.97392C7.88895 2.83852 8.03216 2.75706 8.17165 2.79202ZM8.36917 2.40108C8.29961 2.40108 8.2453 2.45539 8.2453 2.52123C8.2453 2.58706 8.30333 2.64137 8.36917 2.64137C8.43873 2.64137 8.49303 2.58706 8.49303 2.52123C8.4932 2.50509 8.49008 2.48908 8.48386 2.47418C8.47765 2.45929 8.46847 2.44581 8.45688 2.43457C8.4453 2.42333 8.43155 2.41457 8.41647 2.40881C8.40139 2.40305 8.3853 2.40042 8.36917 2.40108ZM8.36917 2.36611C8.45807 2.36611 8.53172 2.43567 8.53172 2.52085C8.53172 2.60604 8.45807 2.67559 8.36917 2.67559C8.28027 2.67559 8.20662 2.60604 8.20662 2.52085C8.20662 2.43567 8.28027 2.36611 8.36917 2.36611ZM8.26464 1.96736C8.19508 1.96736 8.14078 2.02167 8.14078 2.08751C8.14078 2.15335 8.1988 2.20765 8.26464 2.20765C8.3342 2.20765 8.38851 2.15335 8.38851 2.08751C8.38851 2.02167 8.3342 1.96736 8.26464 1.96736ZM8.26464 1.93239C8.35354 1.93239 8.42719 2.00195 8.42719 2.08713C8.42719 2.17232 8.35354 2.24187 8.26464 2.24187C8.17574 2.24187 8.10209 2.17232 8.10209 2.08713C8.10209 2.00195 8.17574 1.93239 8.26464 1.93239ZM9.81353 3.10559C9.74398 3.10559 9.68967 3.1599 9.68967 3.22574C9.68967 3.29158 9.74398 3.34589 9.81353 3.34589C9.88309 3.34589 9.9374 3.29158 9.9374 3.22574C9.9374 3.1599 9.88309 3.10559 9.81353 3.10559ZM9.81353 3.07063C9.90244 3.07063 9.97609 3.14019 9.97609 3.22537C9.97609 3.31055 9.90244 3.38011 9.81353 3.38011C9.72463 3.38011 9.65098 3.31055 9.65098 3.22537C9.65098 3.14019 9.72463 3.07063 9.81353 3.07063ZM9.70901 2.67559C9.63945 2.67559 9.58514 2.7299 9.58514 2.79574C9.58514 2.86158 9.63945 2.91589 9.70901 2.91589C9.77857 2.91589 9.83288 2.86158 9.83288 2.79574C9.83288 2.7299 9.77857 2.67559 9.70901 2.67559ZM9.70901 2.64063C9.79791 2.64063 9.87156 2.71019 9.87156 2.79537C9.87156 2.88055 9.79791 2.95011 9.70901 2.95011C9.62011 2.95011 9.54646 2.88055 9.54646 2.79537C9.55018 2.71019 9.62011 2.64063 9.70901 2.64063ZM9.52302 2.29618C9.45347 2.29618 9.39916 2.35049 9.39916 2.41633C9.39916 2.48217 9.45719 2.53648 9.52302 2.53648C9.59258 2.53648 9.64689 2.48217 9.64689 2.41633C9.64689 2.35049 9.59258 2.29618 9.52302 2.29618ZM9.52302 2.26122C9.61193 2.26122 9.68558 2.33078 9.68558 2.41596C9.68558 2.50114 9.61193 2.5707 9.52302 2.5707C9.43412 2.5707 9.36047 2.50114 9.36047 2.41596C9.36047 2.33078 9.43412 2.26122 9.52302 2.26122ZM9.2247 1.95918C9.15514 1.95918 9.10084 2.01348 9.10084 2.07932C9.10084 2.14516 9.15514 2.19947 9.2247 2.19947C9.29426 2.19947 9.34857 2.14516 9.34857 2.07932C9.34857 2.01348 9.29426 1.95918 9.2247 1.95918ZM9.2247 1.92421C9.3136 1.92421 9.38725 1.99377 9.38725 2.07895C9.38725 2.16413 9.3177 2.23444 9.2247 2.23444C9.1358 2.23444 9.06215 2.16488 9.06215 2.07969C9.06587 1.99451 9.1358 1.92495 9.2247 1.92495V1.92421ZM8.86054 1.70363C8.79098 1.70363 8.73668 1.75794 8.73668 1.82378C8.73668 1.88962 8.79098 1.94393 8.86054 1.94393C8.9301 1.94393 8.98441 1.88962 8.98441 1.82378C8.98441 1.75794 8.9301 1.70363 8.86054 1.70363ZM8.86054 1.66867C8.94944 1.66867 9.02309 1.73822 9.02309 1.82341C9.02309 1.90859 8.94944 1.97815 8.86054 1.97815C8.77164 1.97815 8.69799 1.90859 8.69799 1.82341C8.69799 1.73822 8.77164 1.66867 8.86054 1.66867ZM8.46551 1.55261C8.39595 1.55261 8.34164 1.60692 8.34164 1.67276C8.34164 1.7386 8.39595 1.7929 8.46551 1.7929C8.53507 1.7929 8.58937 1.7386 8.58937 1.67276C8.59309 1.60692 8.53507 1.55261 8.46551 1.55261ZM8.46551 1.51765C8.55441 1.51765 8.62806 1.5872 8.62806 1.67239C8.62806 1.75757 8.55441 1.82713 8.46551 1.82713C8.37661 1.82713 8.30296 1.75757 8.30296 1.67239C8.30668 1.5872 8.37661 1.51765 8.46551 1.51765ZM8.06675 1.5872C7.9972 1.5872 7.94289 1.64151 7.94289 1.70735C7.94289 1.77319 7.9972 1.8275 8.06675 1.8275C8.13631 1.8275 8.19062 1.77319 8.19062 1.70735C8.19062 1.64151 8.13631 1.5872 8.06675 1.5872ZM8.06675 1.55224C8.15566 1.55224 8.22931 1.6218 8.22931 1.70698C8.22931 1.79216 8.15603 1.86246 8.06675 1.86246C7.97748 1.86246 7.9042 1.7929 7.9042 1.70772C7.9042 1.62254 7.97785 1.55298 8.06675 1.55298V1.55224ZM7.77252 1.25801C7.70297 1.25801 7.64866 1.31232 7.64866 1.37816C7.64866 1.44399 7.70297 1.4983 7.77252 1.4983C7.84208 1.4983 7.89639 1.44399 7.89639 1.37816C7.90011 1.31232 7.84208 1.25801 7.77252 1.25801ZM7.77252 1.22714C7.86143 1.22714 7.93508 1.29669 7.93508 1.38188C7.93508 1.46706 7.86143 1.53662 7.77252 1.53662C7.68362 1.53662 7.60997 1.46706 7.60997 1.38188C7.61369 1.29669 7.68362 1.22714 7.77252 1.22714ZM7.38902 1.014C7.31946 1.014 7.26515 1.0683 7.26515 1.13414C7.26515 1.19998 7.31946 1.25429 7.38902 1.25429C7.45858 1.25429 7.51289 1.19998 7.51289 1.13414C7.51289 1.0683 7.45858 1.014 7.38902 1.014ZM7.38902 0.97903C7.47792 0.97903 7.55157 1.04859 7.55157 1.13377C7.55157 1.21895 7.47792 1.28851 7.38902 1.28851C7.30012 1.28851 7.22647 1.21895 7.22647 1.13377C7.23019 1.04859 7.30012 0.97903 7.38902 0.97903ZM6.99027 0.870786C6.92071 0.870786 6.8664 0.925094 6.8664 0.990933C6.8664 1.05677 6.92071 1.11108 6.99027 1.11108C7.05983 1.11108 7.11413 1.05677 7.11413 0.990933C7.11785 0.925094 7.05983 0.870786 6.99027 0.870786ZM6.99027 0.835821C7.07917 0.835821 7.15282 0.90538 7.15282 0.990561C7.15282 1.07574 7.07917 1.1453 6.99027 1.1453C6.90137 1.1453 6.82772 1.07574 6.82772 0.990561C6.83144 0.90538 6.90137 0.835821 6.99027 0.835821ZM6.5837 0.800855C6.51414 0.800855 6.45984 0.855163 6.45984 0.921002C6.45984 0.986841 6.51414 1.04115 6.5837 1.04115C6.65326 1.04115 6.70757 0.986841 6.70757 0.921002C6.70757 0.855163 6.65326 0.800855 6.5837 0.800855ZM6.5837 0.76589C6.6726 0.76589 6.74625 0.835449 6.74625 0.92063C6.74625 1.00581 6.6726 1.07537 6.5837 1.07537C6.56309 1.07572 6.54262 1.07198 6.52346 1.06437C6.5043 1.05677 6.48684 1.04545 6.47207 1.03107C6.45731 1.01668 6.44554 0.999519 6.43744 0.980565C6.42933 0.961612 6.42506 0.941242 6.42487 0.92063C6.42115 0.835449 6.49443 0.76589 6.5837 0.76589ZM2.71557 3.97973C2.82381 3.9217 2.86287 3.79002 2.80447 3.6855C2.77436 3.63457 2.72572 3.59727 2.66873 3.58139C2.61173 3.56551 2.55081 3.5723 2.49871 3.60032C2.39046 3.65834 2.35141 3.79002 2.40981 3.89455C2.46821 3.99907 2.60732 4.03776 2.71557 3.97973ZM2.73119 4.0106C2.60323 4.07644 2.44849 4.03366 2.37893 3.9098C2.36246 3.88078 2.35209 3.8487 2.34845 3.81554C2.34481 3.78237 2.34798 3.74881 2.35777 3.71691C2.36755 3.68501 2.38375 3.65544 2.40536 3.63002C2.42697 3.6046 2.45355 3.58386 2.48346 3.56907C2.61141 3.50323 2.76987 3.54601 2.83571 3.66987C2.85213 3.69891 2.86246 3.73098 2.86607 3.76413C2.86968 3.79729 2.8665 3.83083 2.85672 3.86271C2.84694 3.8946 2.83076 3.92415 2.80918 3.94958C2.7876 3.97501 2.76106 3.99577 2.73119 4.0106ZM4.31877 3.24397C4.43891 3.21309 4.51219 3.09667 4.48132 2.98061C4.45044 2.86456 4.32658 2.79462 4.20643 2.82587C4.08628 2.85712 4.013 2.97317 4.04388 3.08923C4.06068 3.14563 4.09874 3.19331 4.15003 3.22218C4.20132 3.25105 4.26182 3.25886 4.31877 3.24397ZM4.3303 3.27893C4.26407 3.29631 4.19367 3.28699 4.13426 3.25297C4.07484 3.21895 4.03116 3.16295 4.01263 3.09704C4.00428 3.06448 4.00259 3.03056 4.00768 2.99733C4.01277 2.96411 4.02453 2.93225 4.04226 2.90369C4.05998 2.87512 4.0833 2.85044 4.11081 2.83112C4.13832 2.8118 4.16945 2.79825 4.20234 2.79128C4.34183 2.75631 4.48504 2.83777 4.52 2.97317C4.55497 3.10857 4.46979 3.24434 4.3303 3.27893ZM6.18495 3.01669C6.30882 3.01669 6.40962 2.91998 6.40962 2.79983C6.40914 2.77083 6.40294 2.74221 6.39138 2.71561C6.37982 2.68901 6.36313 2.66495 6.34226 2.64481C6.32139 2.62466 6.29676 2.60883 6.26976 2.59822C6.24277 2.58761 6.21395 2.58243 6.18495 2.58297C6.15595 2.58243 6.12713 2.58761 6.10013 2.59822C6.07314 2.60883 6.0485 2.62466 6.02764 2.64481C6.00677 2.66495 5.99008 2.68901 5.97852 2.71561C5.96696 2.74221 5.96076 2.77083 5.96028 2.79983C5.96028 2.91998 6.06108 3.01669 6.18495 3.01669ZM6.18495 3.05166C6.15139 3.05215 6.11806 3.04603 6.08687 3.03364C6.05568 3.02125 6.02723 3.00283 6.00315 2.97945C5.97908 2.95606 5.95984 2.92817 5.94655 2.89735C5.93326 2.86653 5.92617 2.83339 5.92568 2.79983C5.92568 2.66034 6.04174 2.54801 6.18495 2.54801C6.32816 2.54801 6.44421 2.66034 6.44421 2.79983C6.44793 2.93932 6.32816 3.05166 6.18495 3.05166ZM4.00482 2.64137C4.07438 2.64137 4.12869 2.58706 4.12869 2.52123C4.12869 2.45539 4.07438 2.40108 4.00482 2.40108C3.93526 2.40108 3.88095 2.45539 3.88095 2.52123C3.87723 2.58706 3.93526 2.64137 4.00482 2.64137ZM4.00482 2.67634C3.98421 2.67668 3.96374 2.67294 3.94458 2.66534C3.92542 2.65774 3.90796 2.64642 3.89319 2.63203C3.87843 2.61765 3.86666 2.60049 3.85855 2.58153C3.85045 2.56258 3.84618 2.54221 3.84599 2.5216C3.84599 2.43642 3.91964 2.36686 4.00482 2.36686C4.09372 2.36686 4.16737 2.43642 4.16737 2.5216C4.16365 2.60678 4.09372 2.67634 4.00482 2.67634ZM4.10935 2.20765C4.1789 2.20765 4.23321 2.15335 4.23321 2.08751C4.23321 2.02167 4.1789 1.96736 4.10935 1.96736C4.03979 1.96736 3.98548 2.02167 3.98548 2.08751C3.98176 2.15335 4.03979 2.20765 4.10935 2.20765ZM4.10935 2.24262C4.02044 2.24262 3.94679 2.17306 3.94679 2.08788C3.94679 2.0027 4.02044 1.93314 4.10935 1.93314C4.19825 1.93314 4.2719 2.0027 4.2719 2.08788C4.26818 2.17306 4.19453 2.24262 4.10935 2.24262ZM2.55673 3.34961C2.62629 3.34961 2.6806 3.2953 2.6806 3.22946C2.6806 3.16362 2.62629 3.10931 2.55673 3.10931C2.48718 3.10931 2.43287 3.16362 2.43287 3.22946C2.43287 3.2953 2.48718 3.34961 2.55673 3.34961ZM2.55673 3.38457C2.46783 3.38457 2.39418 3.31501 2.39418 3.22983C2.39418 3.14465 2.46783 3.07509 2.55673 3.07509C2.57734 3.07475 2.59782 3.07848 2.61698 3.08609C2.63614 3.09369 2.6536 3.10501 2.66836 3.1194C2.68313 3.13378 2.6949 3.15094 2.703 3.1699C2.7111 3.18885 2.71537 3.20922 2.71557 3.22983C2.71929 3.31501 2.64601 3.38457 2.55673 3.38457ZM2.66126 2.91589C2.73082 2.91589 2.78513 2.86158 2.78513 2.79574C2.78416 2.76354 2.77068 2.73298 2.74756 2.71055C2.72443 2.68812 2.69348 2.67558 2.66126 2.67559C2.5917 2.67559 2.53739 2.7299 2.53739 2.79574C2.53739 2.86158 2.5917 2.91589 2.66126 2.91589ZM2.66126 2.95085C2.57236 2.95085 2.49871 2.88129 2.49871 2.79611C2.49871 2.71093 2.57236 2.64137 2.66126 2.64137C2.75016 2.64137 2.82381 2.71093 2.82381 2.79611C2.82381 2.88129 2.75016 2.95085 2.66126 2.95085ZM2.84724 2.53648C2.9168 2.53648 2.97111 2.48217 2.97111 2.41633C2.97111 2.35049 2.9168 2.29618 2.84724 2.29618C2.77769 2.29618 2.72338 2.35049 2.72338 2.41633C2.72338 2.48217 2.78141 2.53648 2.84724 2.53648ZM2.84724 2.57144C2.75834 2.57144 2.68469 2.50188 2.68469 2.4167C2.68469 2.33152 2.75834 2.26196 2.84724 2.26196C2.93615 2.26196 3.0098 2.33152 3.0098 2.4167C3.0098 2.50188 2.93615 2.57144 2.84724 2.57144ZM3.14557 2.19984C3.21512 2.19984 3.26943 2.14553 3.26943 2.07969C3.26943 2.01386 3.21512 1.95955 3.14557 1.95955C3.07601 1.95955 3.0217 2.01386 3.0217 2.07969C3.0217 2.14553 3.07601 2.19984 3.14557 2.19984ZM3.14557 2.23481C3.05666 2.23481 2.98301 2.16525 2.98301 2.08007C2.98301 1.99489 3.05666 1.92533 3.14557 1.92533C3.23447 1.92533 3.30812 1.99489 3.30812 2.08007C3.30812 2.16525 3.23447 2.23444 3.14519 2.23444L3.14557 2.23481ZM3.50973 1.9443C3.57929 1.9443 3.63359 1.88999 3.63359 1.82415C3.63359 1.75831 3.57929 1.704 3.50973 1.704C3.44017 1.704 3.38586 1.75831 3.38586 1.82415C3.38586 1.88999 3.44389 1.9443 3.50973 1.9443ZM3.50973 1.97926C3.42083 1.97926 3.34718 1.9097 3.34718 1.82452C3.34718 1.73934 3.42083 1.66978 3.50973 1.66978C3.59863 1.66978 3.67228 1.73934 3.67228 1.82452C3.67228 1.9097 3.59863 1.97926 3.50973 1.97926ZM3.90476 1.79737C3.97432 1.79737 4.02863 1.74306 4.02863 1.67722C4.02863 1.61138 3.97432 1.55707 3.90476 1.55707C3.8352 1.55707 3.78089 1.61138 3.78089 1.67722C3.78089 1.74306 3.8352 1.79737 3.90476 1.79737ZM3.90476 1.83233C3.81586 1.83233 3.74221 1.76277 3.74221 1.67759C3.74221 1.59241 3.81586 1.52285 3.90476 1.52285C3.99366 1.52285 4.06731 1.59241 4.06731 1.67759C4.06359 1.76277 3.99366 1.83233 3.90476 1.83233ZM4.30351 1.82861C4.37307 1.82861 4.42738 1.77431 4.42738 1.70847C4.42738 1.64263 4.37307 1.58832 4.30351 1.58832C4.23396 1.58832 4.17965 1.64263 4.17965 1.70847C4.17965 1.77431 4.23396 1.82861 4.30351 1.82861ZM4.30351 1.86358C4.21461 1.86358 4.14096 1.79402 4.14096 1.70884C4.14096 1.62366 4.21461 1.5541 4.30351 1.5541C4.39242 1.5541 4.46607 1.62366 4.46607 1.70884C4.46607 1.79402 4.39204 1.86246 4.30314 1.86246L4.30351 1.86358ZM4.59774 1.50351C4.6673 1.50351 4.72161 1.4492 4.72161 1.38336C4.72161 1.31752 4.6673 1.26322 4.59774 1.26322C4.52819 1.26322 4.47388 1.31752 4.47388 1.38336C4.47388 1.4492 4.52819 1.50351 4.59774 1.50351ZM4.59774 1.53848C4.50884 1.53848 4.43519 1.46892 4.43519 1.38374C4.43519 1.29855 4.50884 1.229 4.59774 1.229C4.68665 1.229 4.7603 1.29855 4.7603 1.38374C4.7603 1.46892 4.68665 1.53848 4.59774 1.53848ZM4.98125 1.25578C5.05081 1.25578 5.10511 1.20147 5.10511 1.13563C5.10511 1.06979 5.05081 1.01548 4.98125 1.01548C4.91169 1.01548 4.85738 1.06979 4.85738 1.13563C4.85738 1.20147 4.91169 1.25578 4.98125 1.25578ZM4.98125 1.29074C4.89235 1.29074 4.8187 1.22118 4.8187 1.136C4.8187 1.05082 4.89235 0.981262 4.98125 0.981262C5.07015 0.981262 5.1438 1.05082 5.1438 1.136C5.1438 1.22118 5.07015 1.29074 4.98125 1.29074ZM5.38 1.11257C5.44956 1.11257 5.50387 1.05826 5.50387 0.992421C5.50387 0.926582 5.44956 0.872274 5.38 0.872274C5.31044 0.872274 5.25613 0.926582 5.25613 0.992421C5.25613 1.05826 5.31044 1.11257 5.38 1.11257ZM5.38 1.14753C5.2911 1.14753 5.21745 1.07797 5.21745 0.992793C5.21745 0.907611 5.2911 0.838053 5.38 0.838053C5.4689 0.838053 5.54255 0.907611 5.54255 0.992793C5.54255 1.07797 5.4689 1.14753 5.38 1.14753ZM6.18495 2.29618C6.25451 2.29618 6.30882 2.24187 6.30882 2.17604C6.30882 2.1102 6.25451 2.05589 6.18495 2.05589C6.11539 2.05589 6.06108 2.1102 6.06108 2.17604C6.06108 2.24187 6.11539 2.29618 6.18495 2.29618ZM6.18495 2.33115C6.09605 2.33115 6.0224 2.26159 6.0224 2.17641C6.0224 2.09123 6.09605 2.02167 6.18495 2.02167C6.27385 2.02167 6.3475 2.09123 6.3475 2.17641C6.3475 2.26159 6.27385 2.33115 6.18495 2.33115ZM6.18495 1.85874C6.25451 1.85874 6.30882 1.80444 6.30882 1.7386C6.30882 1.67276 6.25451 1.61845 6.18495 1.61845C6.11539 1.61845 6.06108 1.67276 6.06108 1.7386C6.06108 1.80444 6.11539 1.85874 6.18495 1.85874ZM6.18495 1.89371C6.09605 1.89371 6.0224 1.82415 6.0224 1.73897C6.0224 1.65379 6.09605 1.58423 6.18495 1.58423C6.27385 1.58423 6.3475 1.65379 6.3475 1.73897C6.3475 1.82415 6.27385 1.89371 6.18495 1.89371ZM6.18495 1.4213C6.25451 1.4213 6.30882 1.367 6.30882 1.30116C6.30882 1.23532 6.25451 1.18101 6.18495 1.18101C6.11539 1.18101 6.06108 1.23532 6.06108 1.30116C6.06108 1.367 6.11539 1.4213 6.18495 1.4213ZM6.18495 1.45218C6.09605 1.45218 6.0224 1.38262 6.0224 1.29744C6.0224 1.21226 6.09605 1.1427 6.18495 1.1427C6.27385 1.1427 6.3475 1.21226 6.3475 1.29744C6.3475 1.38634 6.27385 1.45218 6.18495 1.45218ZM5.78991 1.04189C5.85947 1.04189 5.91378 0.987585 5.91378 0.921746C5.91281 0.889544 5.89934 0.858985 5.87621 0.836554C5.85309 0.814123 5.82213 0.801585 5.78991 0.801599C5.72036 0.801599 5.66196 0.855907 5.66196 0.921746C5.66196 0.991305 5.71998 1.04189 5.78991 1.04189ZM5.78991 1.08058C5.70101 1.08058 5.62736 1.01102 5.62736 0.925838C5.62736 0.840657 5.70101 0.771098 5.78991 0.771098C5.87882 0.771098 5.95247 0.840657 5.95247 0.925838C5.94875 1.01102 5.87882 1.08058 5.78991 1.08058ZM9.87119 3.60106C9.81903 3.57332 9.7582 3.56669 9.70129 3.58255C9.64437 3.5984 9.59573 3.63553 9.56543 3.68624C9.5074 3.79077 9.54609 3.92244 9.65433 3.98047C9.70651 4.00812 9.76731 4.0147 9.8242 3.99885C9.88108 3.983 9.92972 3.94593 9.96009 3.89529C9.97487 3.87044 9.9843 3.84278 9.98781 3.81408C9.99131 3.78539 9.9888 3.75627 9.98044 3.7286C9.97208 3.70092 9.95804 3.67529 9.93924 3.65333C9.92043 3.63137 9.89725 3.61357 9.87119 3.60106ZM9.89053 3.57019C10.0185 3.63603 10.0609 3.79077 9.99134 3.91091C9.95649 3.97052 9.89991 4.01431 9.83347 4.03311C9.76703 4.0519 9.6959 4.04424 9.63499 4.01172C9.60528 3.99671 9.57895 3.97579 9.55763 3.95024C9.53631 3.92469 9.52043 3.89504 9.51099 3.86313C9.50155 3.83121 9.49874 3.7977 9.50273 3.76466C9.50671 3.73162 9.51742 3.69974 9.53418 3.67099C9.56903 3.61138 9.62561 3.56759 9.69205 3.5488C9.75849 3.53 9.82962 3.53767 9.89053 3.57019ZM3.03286 3.65537C2.99789 3.57019 2.95549 3.50435 2.8625 3.47719C2.92461 2.7299 3.12176 2.38918 3.82293 2.04845C3.88505 2.07151 3.88095 2.07932 3.88095 2.08713C3.88095 2.18794 3.93898 2.23815 4.01263 2.29246C3.88877 2.31962 3.77643 2.37392 3.77643 2.52085C3.77643 2.641 3.86161 2.70684 3.96986 2.73771C3.93489 2.80355 3.92708 2.83071 3.93489 2.90808C3.79168 2.97392 3.76081 3.06282 3.7954 3.20231C3.84971 3.39982 3.97358 3.42289 4.17109 3.37267C4.18173 3.43416 4.17112 3.49744 4.14102 3.55211C4.11092 3.60677 4.06311 3.64957 4.00546 3.67346C3.94781 3.69735 3.88375 3.70091 3.82381 3.68356C3.76386 3.66621 3.71161 3.62899 3.67563 3.578C3.67563 3.55866 3.67191 3.54303 3.66781 3.52369C3.63694 3.41135 3.51307 3.3418 3.38884 3.36895C3.26869 3.39982 3.19132 3.51997 3.22219 3.63603C3.23372 3.67471 3.25307 3.70558 3.28022 3.73274C3.29175 3.84507 3.24153 3.94588 3.14073 3.99981C3.03621 4.05412 2.95474 4.03069 2.85431 3.99609C3.02096 3.91872 3.10651 3.84507 3.03286 3.65537ZM3.04439 2.84596C2.97483 3.0126 2.93987 3.20603 2.91643 3.44223C2.99789 3.47719 3.05183 3.55828 3.08307 3.63975C3.13329 3.76361 3.13329 3.89157 2.99417 3.98828C3.03613 3.99285 3.07841 3.98329 3.11432 3.96113C3.19169 3.91835 3.23447 3.84098 3.23038 3.75989C3.20363 3.72829 3.18386 3.69141 3.17235 3.65165C3.13366 3.50435 3.22666 3.35742 3.37359 3.32245C3.44485 3.30431 3.52037 3.31427 3.58449 3.35028C3.64861 3.38629 3.69643 3.44558 3.71803 3.51588C3.72175 3.5315 3.72584 3.54675 3.72584 3.56237C3.8538 3.7134 4.10935 3.63603 4.12088 3.43851C3.88467 3.485 3.78387 3.36895 3.74518 3.21384C3.71022 3.08588 3.72584 2.95457 3.87686 2.87683C3.87551 2.8401 3.8808 2.80343 3.89249 2.76859C3.85127 2.75152 3.81488 2.72458 3.78653 2.69014C3.75818 2.65569 3.73875 2.6148 3.72993 2.57107C3.59454 2.59822 3.44352 2.63691 3.31965 2.68713C3.1995 2.7299 3.11023 2.79165 3.04439 2.84596ZM3.82665 2.10276C3.4357 2.30027 3.20694 2.50151 3.07154 2.78049C3.14293 2.72863 3.22117 2.68694 3.30403 2.65662C3.43198 2.60641 3.58672 2.56772 3.72212 2.54057V2.52085C3.72212 2.40852 3.79577 2.30771 3.89621 2.26903C3.85469 2.22304 3.83014 2.16461 3.82665 2.10276ZM9.22842 4.00391C9.18092 3.97868 9.14218 3.93966 9.11728 3.89199C9.09238 3.84432 9.0825 3.79023 9.08893 3.73683C9.11609 3.70968 9.13543 3.6788 9.14696 3.64012C9.15389 3.61191 9.15518 3.5826 9.15076 3.55389C9.14633 3.52518 9.13628 3.49762 9.12118 3.47281C9.10607 3.44799 9.08621 3.4264 9.06274 3.40928C9.03927 3.39216 9.01265 3.37984 8.98441 3.37304C8.95124 3.36431 8.91653 3.36316 8.88286 3.36967C8.84919 3.37619 8.81742 3.3902 8.7899 3.41068C8.76239 3.43115 8.73984 3.45756 8.72393 3.48794C8.70801 3.51833 8.69915 3.5519 8.69799 3.58618C8.52391 3.80676 8.17128 3.69071 8.20252 3.38085C8.40004 3.42735 8.52391 3.40801 8.57822 3.21049C8.6169 3.071 8.58194 2.9821 8.44282 2.91626C8.45134 2.85713 8.43898 2.79688 8.40785 2.7459C8.5161 2.71502 8.60128 2.64918 8.60128 2.52904C8.60128 2.38174 8.48894 2.3278 8.36508 2.30437C8.43873 2.24634 8.50047 2.19984 8.50047 2.09904C8.50047 2.09123 8.50047 2.07969 8.49675 2.07188L8.54697 2.05626C9.24405 2.39327 9.45681 2.74552 9.51893 3.485C9.42222 3.51216 9.37944 3.578 9.34857 3.66318C9.27492 3.85288 9.3601 3.92654 9.52674 4.00763C9.41441 4.03478 9.33332 4.05784 9.22842 4.00391ZM8.64368 2.57107C8.62434 2.65997 8.56222 2.73362 8.47704 2.76859C8.49032 2.80303 8.49566 2.84003 8.49266 2.87683C8.6474 2.9542 8.65931 3.08588 8.62434 3.21384C8.58156 3.36858 8.48485 3.485 8.24865 3.43851C8.26018 3.63603 8.51572 3.7134 8.64368 3.56237C8.64368 3.54675 8.6474 3.5315 8.65149 3.51588C8.69018 3.37267 8.84492 3.2834 8.99222 3.32245C9.14324 3.36114 9.23214 3.50844 9.19346 3.65165C9.18193 3.69033 9.16258 3.72902 9.13543 3.75617C9.13407 3.7872 9.13932 3.81816 9.15082 3.84701C9.16231 3.87586 9.1798 3.90194 9.20213 3.92353C9.22446 3.94511 9.25111 3.96172 9.28033 3.97224C9.30955 3.98276 9.34067 3.98696 9.37163 3.98456C9.23214 3.89157 9.23214 3.76398 9.28273 3.63603C9.3136 3.55456 9.36419 3.47347 9.44937 3.43851C9.43003 3.20231 9.39135 3.00888 9.32142 2.84224C9.23932 2.77428 9.1464 2.72059 9.04653 2.68341C8.93047 2.64063 8.77536 2.60194 8.64368 2.57107ZM8.54288 2.09495C8.53916 2.16078 8.512 2.2229 8.46923 2.26531C8.52127 2.28379 8.56632 2.31791 8.59821 2.36299C8.63011 2.40807 8.64729 2.46191 8.6474 2.51713V2.53648C8.78689 2.56735 8.93382 2.60232 9.0655 2.65253C9.15849 2.6875 9.23586 2.7299 9.29798 2.7764C9.16258 2.50151 8.93382 2.30027 8.54288 2.09495ZM7.72975 4.42609L7.33471 4.15902L7.81493 4.1088L8.20996 4.37588L7.72975 4.42609ZM6.98618 4.27135C6.96557 4.2717 6.94509 4.26796 6.92593 4.26036C6.90677 4.25275 6.88931 4.24143 6.87455 4.22705C6.85978 4.21267 6.84801 4.1955 6.83991 4.17655C6.83181 4.15759 6.82754 4.13722 6.82734 4.11661C6.82734 4.03143 6.90099 3.96187 6.98618 3.96187C7.07508 3.96187 7.14873 4.03143 7.14873 4.11661C7.14873 4.20179 7.07508 4.27135 6.98618 4.27135ZM6.98618 4.23639C7.05573 4.23639 7.11004 4.18208 7.11004 4.11624C7.11004 4.0504 7.05573 3.99609 6.98618 3.99609C6.91662 3.99609 6.86231 4.0504 6.86231 4.11624C6.86231 4.18208 6.92034 4.23639 6.98618 4.23639ZM3.83409 4.63923C3.90365 4.63923 3.95795 4.58493 3.95795 4.51909C3.95795 4.45325 3.90365 4.39894 3.83409 4.39894C3.76453 4.39894 3.71022 4.45325 3.71022 4.51909C3.71022 4.58493 3.76453 4.63923 3.83409 4.63923ZM3.83409 4.6742C3.74519 4.6742 3.67153 4.60464 3.67153 4.51946C3.67153 4.43428 3.74519 4.36472 3.83409 4.36472C3.92299 4.36472 3.99664 4.43428 3.99664 4.51946C3.99292 4.60464 3.92299 4.6742 3.83409 4.6742ZM5.38298 4.23676C5.45254 4.23676 5.50684 4.18245 5.50684 4.11661C5.50588 4.08441 5.4924 4.05385 5.46927 4.03142C5.44615 4.00899 5.41519 3.99645 5.38298 3.99647C5.31342 3.99647 5.25911 4.05077 5.25911 4.11661C5.25539 4.18245 5.31342 4.23676 5.38298 4.23676ZM5.38298 4.27173C5.29408 4.27173 5.22043 4.20217 5.22043 4.11698C5.22043 4.0318 5.29408 3.96224 5.38298 3.96224C5.47188 3.96224 5.54553 4.0318 5.54553 4.11698C5.54181 4.20217 5.47188 4.27173 5.38298 4.27173ZM8.53507 4.63961C8.60463 4.63961 8.65893 4.5853 8.65893 4.51946C8.65893 4.45362 8.60463 4.39931 8.53507 4.39931C8.46551 4.39931 8.4112 4.45362 8.4112 4.51946C8.4112 4.5853 8.46551 4.63961 8.53507 4.63961ZM8.53507 4.67457C8.44617 4.67457 8.37252 4.60501 8.37252 4.51983C8.37252 4.43465 8.44617 4.36509 8.53507 4.36509C8.62397 4.36509 8.69762 4.43465 8.69762 4.51983C8.69762 4.60501 8.62397 4.67457 8.53507 4.67457ZM4.63978 4.42684L4.15956 4.37662L4.5546 4.10955L5.03481 4.15976L4.63978 4.42684ZM6.58742 4.07458L6.18495 3.93026L5.78619 4.07346L6.18495 4.21705L6.58742 4.07458ZM6.68823 4.07458L6.18495 4.25573L5.68167 4.07384L6.18495 3.89157L6.68823 4.07458Z" fill="#1D5CA3"/>
</g>
<defs>
<clipPath id="clip0_882_26496">
<rect width="11.9031" height="16" fill="white" transform="translate(0.233398)"/>
</clipPath>
</defs>
</svg>
