<svg width="41" height="16" viewBox="0 0 41 16" fill="none" xmlns="http://www.w3.org/2000/svg">
<g clip-path="url(#clip0_807_2953)">
<g clip-path="url(#clip1_807_2953)">
<path fill-rule="evenodd" clip-rule="evenodd" d="M27.8371 3.58197H29.4074V12.3438H27.8371V3.58197ZM40.5547 7.27337V5.9137H38.9308V4.14098H37.3605V10.6038C37.3605 11.1977 37.5098 11.6502 37.8045 11.9489C38.0988 12.2479 38.5577 12.3995 39.1683 12.3995H40.5547V11.0399H39.5402C39.3196 11.0399 39.1614 10.9913 39.0697 10.8955C38.9855 10.8079 38.9308 10.5864 38.9308 10.3314V7.27337H40.5547ZM17.1697 10.6384L18.7934 5.91352H20.4433L18.0993 12.3439H16.2402L13.8961 5.91352H15.546L17.1697 10.6384ZM34.8008 9.13485C34.8008 9.54195 34.7389 9.89611 34.6174 10.1875C34.4967 10.4773 34.3239 10.6994 34.1035 10.8476C33.8832 10.9958 33.6123 11.071 33.2984 11.071C32.8494 11.071 32.5106 10.9234 32.2916 10.6326C32.0701 10.3386 31.9578 9.89307 31.9578 9.30843V5.91369H30.3874V9.482C30.3874 10.0376 30.4567 10.5089 30.594 10.8825C30.7312 11.2573 30.9198 11.5622 31.1542 11.7885C31.3887 12.0146 31.6623 12.1779 31.9677 12.274C32.2714 12.3696 32.5984 12.418 32.9391 12.418C33.4301 12.418 33.8365 12.329 34.1466 12.1533C34.4294 11.9927 34.6666 11.8048 34.8521 11.5941L34.9927 12.3438H36.3711V5.91369H34.8008V9.13485ZM25.4365 6.25279C24.9416 5.9784 24.3539 5.83939 23.69 5.83939C23.0342 5.83939 22.4487 5.9784 21.9497 6.2527C21.4502 6.52772 21.0576 6.91609 20.783 7.40702C20.5088 7.8975 20.3697 8.47886 20.3697 9.13485C20.3697 9.78281 20.5088 10.3601 20.783 10.8506C21.0575 11.3414 21.4501 11.7296 21.9497 12.0046C22.4487 12.2789 23.0343 12.4179 23.69 12.4179C24.3539 12.4179 24.9415 12.2789 25.4365 12.0045C25.9319 11.7297 26.3223 11.3414 26.5969 10.8506C26.8712 10.3598 27.0103 9.78254 27.0103 9.13485C27.0103 8.47911 26.8712 7.89775 26.5969 7.40699C26.3222 6.91601 25.9318 6.52761 25.4365 6.25279ZM24.6068 10.8473C24.3538 11.012 24.0454 11.0956 23.6901 11.0956C23.3429 11.0956 23.0365 11.012 22.7792 10.8472C22.5216 10.6822 22.3195 10.4493 22.1785 10.1549C22.0369 9.86024 21.965 9.51709 21.965 9.13485C21.965 8.74474 22.0368 8.39961 22.1785 8.10893C22.3194 7.8185 22.5216 7.58553 22.7796 7.41638C23.0367 7.24739 23.3431 7.16173 23.6901 7.16173C24.0452 7.16173 24.3534 7.24739 24.6065 7.41618C24.8603 7.58545 25.0606 7.8185 25.2018 8.10901C25.3433 8.40038 25.4151 8.74554 25.4151 9.13488C25.4151 9.51624 25.3433 9.85949 25.2018 10.1549C25.0606 10.4494 24.8604 10.6823 24.6068 10.8473ZM2.18675 5.74436H0.554688V12.3439H2.18675V5.74436ZM7.30483 6.12175C7.30483 4.72137 6.16448 3.58207 4.76272 3.58207H0.554688V4.99144H4.56264C5.19701 4.99144 5.72248 5.48981 5.73411 6.10234C5.73991 6.40904 5.62479 6.6985 5.40999 6.91739C5.19511 7.13633 4.90799 7.257 4.60155 7.257H3.04023C2.9848 7.257 2.93969 7.30203 2.93969 7.35748V8.61007C2.93969 8.63139 2.94627 8.65174 2.95864 8.66889L5.60764 12.3439H7.54674L4.89159 8.65884C6.22873 8.59171 7.30483 7.46823 7.30483 6.12175ZM12.3233 6.21537C11.8532 5.96584 11.2949 5.83939 10.6641 5.83939C10.0325 5.83939 9.46781 5.97849 8.98564 6.25297C8.50267 6.52772 8.12271 6.91617 7.85636 7.40735C7.59029 7.89742 7.45543 8.48283 7.45543 9.14742C7.45543 9.79513 7.59236 10.3722 7.8626 10.8628C8.13343 11.3545 8.52407 11.7408 9.02347 12.0109C9.52193 12.2811 10.1199 12.418 10.8005 12.418C11.3404 12.418 11.8253 12.3169 12.2416 12.1172C12.658 11.9171 12.998 11.6445 13.2521 11.307C13.4935 10.9863 13.6564 10.6236 13.736 10.229L13.7446 10.1869H12.1829L12.1755 10.2122C12.0895 10.5065 11.9227 10.739 11.6795 10.9035C11.4184 11.0804 11.0978 11.1701 10.7263 11.1701C10.4115 11.1701 10.1271 11.1026 9.88123 10.9696C9.63652 10.8373 9.4452 10.6482 9.31268 10.4072C9.17965 10.1654 9.10393 9.87446 9.08775 9.54421V9.49257H13.8052L13.8104 9.46375C13.8269 9.37323 13.8375 9.27996 13.842 9.18616C13.8459 9.09476 13.8482 9.00347 13.8482 8.91133C13.8398 8.2883 13.7005 7.7403 13.4344 7.28237C13.1672 6.82392 12.7933 6.4649 12.3233 6.21537ZM11.751 7.42632C12.0194 7.65213 12.1863 7.97302 12.2475 8.38072H9.14198C9.17746 8.11619 9.2653 7.88709 9.40328 7.69916C9.54803 7.50203 9.73344 7.34715 9.95448 7.2388C10.1758 7.13012 10.4187 7.07495 10.6765 7.07495C11.1123 7.07492 11.4738 7.19316 11.751 7.42632Z" fill="#191C1F"/>
</g>
</g>
<defs>
<clipPath id="clip0_807_2953">
<rect width="40" height="16" fill="white" transform="translate(0.554688)"/>
</clipPath>
<clipPath id="clip1_807_2953">
<rect width="40" height="8.83606" fill="white" transform="translate(0.554688 3.58197)"/>
</clipPath>
</defs>
</svg>
