<svg width="41" height="16" viewBox="0 0 41 16" fill="none" xmlns="http://www.w3.org/2000/svg">
<g clip-path="url(#clip0_756_282)">
<g clip-path="url(#clip1_756_282)">
<path d="M6.82797 2.4101L0.108154 5.52202L1.7825 11.8942L3.05679 11.7377L2.70641 7.73112L3.12483 7.54471L3.84736 11.6404L6.02516 11.373L5.63804 6.95076L6.05237 6.76639L6.84702 11.2723L9.05 11.0016L8.62614 6.15407L9.04523 5.96765L9.91404 10.8954L12.0918 10.6281V3.72862L6.82797 2.4101ZM6.98581 12.0745L7.09671 12.7018L12.0918 13.5345V11.4472L6.98854 12.0745H6.98581ZM16.8162 10.7668V11.6261H17.8755C17.8756 11.8004 17.8306 11.9717 17.7449 12.1235C17.6552 12.2746 17.5226 12.3957 17.3639 12.4711C17.1741 12.5578 16.9669 12.5997 16.7584 12.5936C16.5175 12.6003 16.2804 12.5338 16.078 12.4031C15.8804 12.2659 15.7279 12.0732 15.6399 11.8493C15.5301 11.5693 15.4776 11.2702 15.4854 10.9696C15.4774 10.6713 15.5311 10.3746 15.6433 10.0981C15.7349 9.87769 15.8886 9.68863 16.0855 9.55378C16.2841 9.42487 16.5169 9.35894 16.7536 9.36464C16.8768 9.36356 16.9996 9.37982 17.1183 9.41295C17.2239 9.44319 17.3235 9.49128 17.4129 9.55514C17.4977 9.61629 17.571 9.69209 17.6292 9.77898C17.6901 9.87193 17.736 9.97386 17.7653 10.0811H18.9402C18.9095 9.83449 18.8294 9.59663 18.7048 9.38165C18.5809 9.16955 18.4182 8.98261 18.2252 8.83057C18.023 8.67249 17.7948 8.55071 17.551 8.47066C17.2861 8.38445 17.009 8.34172 16.7305 8.34412C16.4046 8.3414 16.0812 8.40146 15.778 8.52101C15.4867 8.63701 15.2232 8.81348 15.0051 9.03876C14.7769 9.27682 14.6005 9.55969 14.4874 9.86946C14.3581 10.2279 14.2951 10.6069 14.3016 10.988C14.3016 11.5295 14.4046 11.9965 14.6105 12.3888C14.8052 12.7667 15.105 13.0802 15.4739 13.2916C15.8476 13.491 16.2628 13.6 16.6863 13.61C17.1097 13.6199 17.5296 13.5304 17.9122 13.3488C18.2433 13.1808 18.519 12.921 18.7062 12.6004C18.899 12.2743 18.9951 11.8842 18.9947 11.4302V10.7662L16.8162 10.7668ZM31.4458 13.5434V8.41079H34.9611V9.36056H32.6058V10.5008H34.5101V11.4506H32.6058V12.5936H34.9666V13.5434H31.4458ZM38.3738 9.91709C38.3686 9.82887 38.3444 9.74281 38.3028 9.66483C38.2613 9.58685 38.2033 9.51879 38.1329 9.46533C37.9907 9.35716 37.7928 9.30341 37.5417 9.30341C37.3967 9.29857 37.2521 9.32167 37.1158 9.37145C37.013 9.40895 36.9227 9.47446 36.8552 9.56058C36.7967 9.63929 36.765 9.73467 36.7647 9.83272C36.7616 9.91088 36.7802 9.98837 36.8185 10.0566C36.8588 10.1243 36.9148 10.1815 36.9818 10.2232C37.0603 10.2741 37.1449 10.3151 37.2335 10.345C37.3369 10.381 37.4423 10.4108 37.5492 10.4342L38.0003 10.5389C38.2213 10.5859 38.4369 10.6562 38.6432 10.7485C38.8222 10.8283 38.9875 10.9357 39.133 11.0669C39.2663 11.1883 39.3725 11.3364 39.4446 11.5016C39.5202 11.6799 39.5575 11.872 39.5542 12.0656C39.5618 12.3587 39.4776 12.6468 39.3133 12.8895C39.1397 13.1307 38.8998 13.3162 38.6228 13.4236C38.2774 13.557 37.9091 13.6208 37.539 13.6114C37.1634 13.6194 36.7897 13.5545 36.4389 13.4202C36.1434 13.3054 35.8892 13.1044 35.7095 12.8433C35.5358 12.5866 35.4451 12.2663 35.4374 11.8826H36.5552C36.5566 12.0308 36.6034 12.175 36.6891 12.2959C36.7748 12.4168 36.8955 12.5085 37.0348 12.5589C37.1921 12.6186 37.3593 12.6477 37.5274 12.6446C37.6817 12.648 37.8353 12.6228 37.9805 12.5705C38.0952 12.53 38.1969 12.4595 38.2751 12.3663C38.3441 12.2797 38.3817 12.1723 38.3819 12.0616C38.383 11.9623 38.3488 11.8658 38.2853 11.7894C38.2076 11.7046 38.1112 11.6392 38.0037 11.5982C37.8519 11.5364 37.695 11.4877 37.5349 11.4526L36.9859 11.32C36.5482 11.2156 36.2028 11.051 35.9497 10.826C35.6966 10.6011 35.571 10.2963 35.5728 9.91164C35.5648 9.61651 35.6537 9.32689 35.8259 9.08706C36.0061 8.84318 36.249 8.65254 36.5287 8.5353C36.8512 8.39851 37.1989 8.33106 37.5492 8.33731C37.8979 8.3295 38.2441 8.39703 38.5643 8.5353C38.8361 8.6536 39.0696 8.84539 39.2385 9.0891C39.4008 9.33327 39.4861 9.62051 39.4834 9.91369L38.3738 9.91709ZM30.6185 13.5434H29.4707V9.64155L29.353 9.64018L28.1937 13.5434H27.0466L25.9186 9.64018L25.7723 9.64155V13.5434H24.6246V8.41079H26.5751L27.5603 11.8506H27.6793L28.6645 8.41079H30.6185V13.5434ZM22.8176 13.5434H24.0606L22.3372 8.41147H20.7622L19.0362 13.5434H20.2812L20.6166 12.4181H22.4822L22.8176 13.5434ZM20.8833 11.5227L21.4426 9.64155H21.6535L22.2155 11.5227H20.8833ZM39.8365 8.95371C39.7832 8.95353 39.7311 8.93771 39.6868 8.9082C39.6424 8.87869 39.6076 8.83679 39.5868 8.78771C39.5728 8.75432 39.5656 8.71847 39.5656 8.68225C39.5656 8.64604 39.5728 8.61018 39.5868 8.5768C39.6004 8.54455 39.62 8.51521 39.6447 8.49039C39.6697 8.46581 39.699 8.44598 39.7311 8.43188C39.7987 8.40464 39.8743 8.40464 39.942 8.43188C39.9742 8.44582 40.0035 8.46567 40.0284 8.49039C40.0532 8.51524 40.073 8.54456 40.0869 8.5768C40.1009 8.61018 40.1082 8.64604 40.1082 8.68225C40.1082 8.71847 40.1009 8.75432 40.0869 8.78771C40.073 8.81995 40.0532 8.84927 40.0284 8.87411C40.0036 8.899 39.9743 8.91887 39.942 8.93262C39.9086 8.94659 39.8727 8.95377 39.8365 8.95371ZM39.8365 8.87955C39.8717 8.87996 39.9062 8.87079 39.9365 8.85302C39.9657 8.83666 39.9902 8.81327 40.008 8.78498C40.0253 8.75476 40.0345 8.72051 40.0345 8.68565C40.0345 8.65079 40.0253 8.61654 40.008 8.58632C39.9899 8.55806 39.9651 8.53469 39.9359 8.51829C39.9056 8.50092 39.8714 8.49178 39.8365 8.49178C39.8017 8.49178 39.7674 8.50092 39.7372 8.51829C39.7094 8.53522 39.6861 8.55855 39.6692 8.58632C39.6513 8.61638 39.6419 8.65069 39.6419 8.68565C39.6419 8.72061 39.6513 8.75492 39.6692 8.78498C39.6861 8.81276 39.7094 8.83609 39.7372 8.85302C39.7673 8.8707 39.8016 8.87988 39.8365 8.87955ZM39.7372 8.80131V8.55162H39.8583C39.8745 8.55129 39.8906 8.55479 39.9052 8.56183C39.9184 8.56813 39.9295 8.57804 39.9372 8.5904C39.9452 8.604 39.9492 8.61955 39.9488 8.63531C39.9493 8.65117 39.945 8.66681 39.9365 8.68021C39.9289 8.69279 39.9175 8.70258 39.9039 8.7081C39.889 8.71492 39.8727 8.71818 39.8563 8.71763H39.7746V8.66864H39.8426C39.8516 8.66911 39.8603 8.66619 39.8671 8.66048C39.8704 8.65715 39.8729 8.6532 39.8745 8.64888C39.8761 8.64455 39.8769 8.63993 39.8767 8.63531C39.877 8.63067 39.8763 8.62602 39.8747 8.62167C39.873 8.61732 39.8705 8.61339 39.8671 8.61013C39.8603 8.60442 39.8516 8.60151 39.8426 8.60197H39.8052V8.80131H39.7372ZM39.8998 8.68701L39.9556 8.80131H39.8801L39.829 8.68701H39.8998ZM19.3219 2.45773H20.4819V7.59029H19.3219V2.45773ZM25.9907 5.02401C25.9907 5.58734 25.8839 6.06358 25.6703 6.45274C25.4718 6.82845 25.1698 7.1394 24.8001 7.34876C24.42 7.55156 23.9958 7.65764 23.5649 7.65764C23.1341 7.65764 22.7099 7.55156 22.3298 7.34876C21.9599 7.13861 21.658 6.82698 21.4596 6.4507C21.246 6.05791 21.1391 5.58167 21.1391 5.02197C21.1391 4.46227 21.246 3.98489 21.4596 3.58983C21.6576 3.21525 21.9586 2.90507 22.327 2.69585C22.7073 2.49351 23.1315 2.3877 23.5622 2.3877C23.993 2.3877 24.4171 2.49351 24.7974 2.69585C25.1671 2.90521 25.4691 3.21617 25.6676 3.59187C25.8812 3.98375 25.988 4.46113 25.988 5.02401M24.8076 5.02401C24.8164 4.72203 24.7648 4.42133 24.6559 4.13955C24.5697 3.91932 24.4197 3.72981 24.2252 3.59527C24.0262 3.47294 23.7972 3.40817 23.5636 3.40817C23.33 3.40817 23.1009 3.47294 22.9019 3.59527C22.7072 3.72992 22.5568 3.91935 22.4699 4.13955C22.2653 4.71144 22.2653 5.33658 22.4699 5.90846C22.5565 6.12883 22.707 6.31834 22.9019 6.45274C23.1009 6.57508 23.33 6.63985 23.5636 6.63985C23.7972 6.63985 24.0262 6.57508 24.2252 6.45274C24.4199 6.31845 24.57 6.12886 24.6559 5.90846C24.7647 5.62666 24.8163 5.32598 24.8076 5.02401ZM16.8842 5.80097L17.4802 7.59029H18.7532L18.0905 5.66286H17.1904L17.1366 5.49685C17.3081 5.46351 17.6013 5.41181 17.8612 5.23492C18.0433 5.11108 18.1925 4.94492 18.2962 4.75069C18.3999 4.55647 18.4549 4.33999 18.4565 4.11982C18.4643 3.81572 18.3875 3.51542 18.2347 3.25238C18.0854 2.99767 17.8637 2.79307 17.5979 2.66455C17.2862 2.52022 16.9452 2.45034 16.6019 2.46045H14.5316V7.59029H15.6923V5.80097H16.8842ZM16.8625 4.73894C16.7045 4.79704 16.5368 4.82429 16.3685 4.81922H15.6923V3.40001H16.3665C16.5349 3.39517 16.7025 3.42384 16.8597 3.48438C16.9841 3.53382 17.0891 3.62212 17.1591 3.73611C17.2305 3.85102 17.266 3.98462 17.2611 4.11982C17.2667 4.25299 17.2316 4.38469 17.1605 4.49742C17.0901 4.60823 16.9854 4.69303 16.8625 4.73894ZM26.1003 2.45773V3.41022H28.0937L28.1481 3.5769C27.9794 3.60956 27.6943 3.65991 27.4385 3.82863V7.59165H28.5863V3.4075H29.9211V2.45501L26.1003 2.45773Z" fill="#EB0029"/>
</g>
</g>
<defs>
<clipPath id="clip0_756_282">
<rect width="40" height="16" fill="white" transform="translate(0.108154)"/>
</clipPath>
<clipPath id="clip1_756_282">
<rect width="40" height="11.2246" fill="white" transform="translate(0.108154 2.3877)"/>
</clipPath>
</defs>
</svg>
