<svg width="18" height="16" viewBox="0 0 18 16" fill="none" xmlns="http://www.w3.org/2000/svg">
<g clip-path="url(#clip0_838_1042)">
<path d="M17.8073 15.8874C17.7268 15.9677 17.6383 16.008 17.5257 16.008C17.4131 16.008 17.3247 15.9677 17.2442 15.8874C17.1638 15.8069 17.1316 15.7182 17.1316 15.6056C17.1316 15.493 17.1718 15.4044 17.2442 15.324C17.3247 15.2435 17.4131 15.2112 17.5257 15.2112C17.6383 15.2112 17.7268 15.2515 17.8073 15.324C17.8877 15.4044 17.928 15.493 17.928 15.6056C17.928 15.7102 17.8877 15.8069 17.8073 15.8874ZM17.2845 15.3641C17.2201 15.4286 17.188 15.509 17.188 15.6056C17.188 15.7022 17.2201 15.7827 17.2845 15.8471C17.3488 15.9115 17.4292 15.9517 17.5257 15.9517C17.6223 15.9517 17.7027 15.9195 17.7671 15.8471C17.8315 15.7827 17.8636 15.7022 17.8636 15.6056C17.8636 15.509 17.8315 15.4286 17.7671 15.3641C17.7027 15.2997 17.6223 15.2676 17.5257 15.2676C17.4373 15.2595 17.3568 15.2917 17.2845 15.3641ZM17.5257 15.3802C17.5821 15.3802 17.6223 15.3884 17.6465 15.3964C17.6947 15.4125 17.7107 15.4527 17.7107 15.509C17.7107 15.5492 17.6947 15.5735 17.6706 15.5976C17.6545 15.6056 17.6303 15.6136 17.6062 15.6217C17.6383 15.6297 17.6625 15.6379 17.6786 15.662C17.6947 15.6861 17.7027 15.7102 17.7027 15.7264V15.823H17.6303V15.7666C17.6303 15.7182 17.6142 15.6861 17.5901 15.67C17.5741 15.662 17.5418 15.6539 17.5016 15.6539H17.4453V15.823H17.3648V15.3884H17.5257V15.3802ZM17.6062 15.4527C17.5901 15.4446 17.558 15.4366 17.5097 15.4366H17.4453V15.5895H17.5177C17.5498 15.5895 17.5741 15.5895 17.5901 15.5815C17.6223 15.5735 17.6383 15.5492 17.6383 15.5171C17.6383 15.4849 17.6223 15.4689 17.6062 15.4527Z" fill="black"/>
<path d="M14.9035 0H3.63383C1.93654 0 0.552979 1.34406 0.552979 2.98591V13.006C0.552979 14.672 1.88828 15.9839 3.60165 15.9839H14.8794C16.5927 15.9839 17.928 14.672 17.928 13.006V2.98591C17.928 1.31188 16.6007 0 14.9035 0ZM17.5821 13.006C17.5821 14.4869 16.3916 15.6379 14.8712 15.6379H3.60165C2.08134 15.6459 0.89887 14.4869 0.89887 13.006V2.98591C0.89887 1.50503 2.09743 0.338029 3.63383 0.338029H14.9115C16.4157 0.338029 17.5901 1.49699 17.5901 2.98591V13.006H17.5821Z" fill="#040301"/>
<path d="M17.5822 13.006C17.5822 14.4869 16.3917 15.6379 14.8713 15.6379H3.6017C2.08139 15.6459 0.898926 14.4869 0.898926 13.006V2.9859C0.898926 1.50501 2.09747 0.338013 3.63389 0.338013H14.9115C16.4158 0.338013 17.5902 1.49697 17.5902 2.9859V13.006H17.5822Z" fill="#FFAB00"/>
<path d="M14.4692 9.82695H13.0293L12.7799 8.25754L11.8549 9.81085H10.3989L11.2838 10.7445L10.5598 12.3139L12.1525 11.3642L13.3993 12.33L13.1661 10.7445" fill="white"/>
<path d="M15.4746 9.51307H13.2946L12.9488 7.34004L11.6778 9.49697H11.4365C11.2917 9.24749 11.2354 8.88531 11.2354 8.65996C11.2354 8.28974 11.2596 7.92756 11.2596 7.45271C11.2596 6.82495 11.0745 6.49497 10.5839 6.37425V6.35815C11.6215 6.21327 12.0961 5.52112 12.0961 4.55534C12.0961 3.17907 11.1791 2.88129 9.98056 2.88129H6.75493L5.38745 9.35211H7.10081L7.59954 6.99396H8.74179C9.35313 6.99396 9.60249 7.29175 9.60249 7.86317C9.60249 8.29779 9.55423 8.64386 9.55423 8.97384C9.55423 9.09456 9.57836 9.3843 9.66685 9.49697L10.9056 10.8088L9.83578 13.1026L12.1203 11.7424L13.8256 13.0544L13.5119 10.8893L15.4746 9.51307ZM9.2566 5.78672H7.88913L8.21893 4.22535H9.48988C9.94034 4.22535 10.4149 4.34607 10.4149 4.89336C10.4149 5.59356 9.87599 5.78672 9.2566 5.78672ZM12.1524 11.3642L10.5597 12.3139L11.2917 10.7525L10.4069 9.81891H11.8629L12.7799 8.26559L13.0292 9.83501H14.4771L13.174 10.7445L13.4073 12.338L12.1524 11.3642Z" fill="#040301"/>
</g>
<defs>
<clipPath id="clip0_838_1042">
<rect width="17.375" height="16" fill="white" transform="translate(0.552979)"/>
</clipPath>
</defs>
</svg>
