<svg width="30" height="16" viewBox="0 0 30 16" fill="none" xmlns="http://www.w3.org/2000/svg">
<g clip-path="url(#clip0_813_348)">
<path d="M11.2019 2.83688C11.2586 2.83688 11.287 2.83688 11.3154 2.80851L12.7905 7.74468C12.9608 8.28369 13.7551 8.70922 14.7196 8.70922C15.6842 8.70922 16.4785 8.28369 16.6487 7.74468L18.0955 2.80851C18.1239 2.80851 18.1806 2.80851 18.209 2.80851C18.4927 2.80851 18.7196 2.58156 18.7196 2.29787C18.7196 2.01418 18.4927 1.78723 18.209 1.78723C17.9253 1.78723 17.6983 2.01418 17.6983 2.29787C17.6983 2.49645 17.8118 2.66667 17.982 2.75177L16.3083 6.35461L16.592 1.50355C16.8757 1.50355 17.1026 1.2766 17.1026 0.992908C17.1026 0.70922 16.8757 0.48227 16.592 0.48227C16.3083 0.48227 16.0813 0.70922 16.0813 0.992908C16.0813 1.21986 16.2515 1.41844 16.4501 1.47518L15.3437 6.21277L14.7764 1.02128C15.0317 0.992908 15.2019 0.765957 15.2019 0.510638C15.2019 0.22695 14.9749 0 14.6913 0C14.4076 0 14.1806 0.22695 14.1806 0.510638C14.1806 0.765957 14.3792 0.992908 14.6061 1.02128L14.0671 6.24113L12.9891 1.50355C13.2161 1.44681 13.3579 1.24823 13.3579 1.02128C13.3579 0.737589 13.131 0.510638 12.8473 0.510638C12.5636 0.510638 12.3366 0.737589 12.3366 1.02128C12.3366 1.30496 12.5636 1.53191 12.8473 1.53191L13.131 6.38298L11.4572 2.78014C11.6274 2.69504 11.7409 2.52482 11.7409 2.32624C11.7409 2.04255 11.5139 1.8156 11.2303 1.8156C10.9466 1.8156 10.7196 2.04255 10.7196 2.32624C10.6913 2.60993 10.9182 2.83688 11.2019 2.83688ZM14.7196 7.31915C15.5991 7.31915 16.3083 7.5461 16.3083 7.82979C16.3083 8.11347 15.5991 8.34043 14.7196 8.34043C13.8402 8.34043 13.131 8.11347 13.131 7.82979C13.1026 7.5461 13.8402 7.31915 14.7196 7.31915Z" fill="#A37E2C"/>
<path d="M5.58487 15.461L5.27282 14.5248C5.13097 14.0993 5.0175 13.9291 4.79055 13.7021C4.6487 13.5603 4.42175 13.5035 4.25154 13.4468C4.84728 13.3617 5.30118 12.8227 5.30118 12.1986C5.30118 11.5177 4.73381 10.9503 4.05296 10.9503H4.02459H2.12388H0.989127H0.308276V11.3191H0.989127V15.461H0.279907V15.8298H2.09551H2.80473V15.461H2.12388V13.4752H2.66289C2.69125 13.4752 2.69125 13.4752 2.71962 13.4752H2.8331C3.00331 13.4752 3.14516 13.5035 3.287 13.5319C3.40047 13.5603 3.54232 13.617 3.62743 13.6738C3.7409 13.7589 3.88274 13.8723 3.99622 14.0425C4.02459 14.0993 4.05296 14.156 4.08133 14.1844C4.27991 14.5816 4.42175 15.1206 4.5636 15.8014H5.41466H6.18062V15.4326L5.58487 15.461ZM3.31537 13.1064H2.12388V11.3191H3.31537C3.82601 11.3475 4.22317 11.6879 4.22317 12.1986C4.22317 12.7092 3.82601 13.078 3.31537 13.1064Z" fill="#006039"/>
<path d="M9.07421 10.7802C7.59903 10.7802 6.43591 11.9716 6.43591 13.3901C6.43591 14.8085 7.6274 16 9.07421 16C10.5494 16 11.7125 14.8085 11.7125 13.3901C11.7125 11.9716 10.5494 10.7802 9.07421 10.7802ZM10.1806 14.8936C10.0955 15.0071 9.98201 15.1206 9.86854 15.2057C9.66996 15.3475 9.44301 15.461 9.21606 15.461C9.15932 15.461 9.13095 15.461 9.07421 15.461C9.01747 15.461 8.9891 15.461 8.93237 15.461C8.70542 15.461 8.47847 15.3475 8.27988 15.2057C8.16641 15.1206 8.05293 15.0071 7.96783 14.8936C7.68414 14.5248 7.51393 13.9858 7.51393 13.3901C7.51393 12.8227 7.65577 12.3404 7.91109 11.9433C8.05293 11.688 8.25152 11.4894 8.5352 11.3759C8.5352 11.3759 8.56357 11.3759 8.56357 11.3475C8.59194 11.3192 8.62031 11.3192 8.67705 11.3192C8.79052 11.2908 8.93237 11.2624 9.04584 11.2624C9.18769 11.2624 9.30116 11.2908 9.41464 11.3192C9.443 11.3192 9.49974 11.3475 9.52811 11.3475C9.52811 11.3475 9.55648 11.3475 9.55648 11.3759C9.8118 11.4894 10.0387 11.688 10.1806 11.9433C10.4359 12.3121 10.5778 12.8227 10.5778 13.3901C10.6345 13.9858 10.4643 14.5248 10.1806 14.8936Z" fill="#006039"/>
<path d="M16.9607 13.9291H16.5919V14.6667C16.5919 15.1206 16.2231 15.461 15.7692 15.461H14.6345H14.209V11.3191H14.9182V10.9503H14.209H14.1239H12.365V11.3191H13.0742V15.461H12.365V15.8298H16.5919H16.904H16.9324H16.9607V14.6383V13.9291Z" fill="#006039"/>
<path d="M22.5778 10.9787H22.5494H21.4146H17.7551V11.3475H18.4643V15.4894H17.7551V15.8582H21.4146H22.2373H22.5494H22.5778H22.6061V14.6667V14.1277H22.2373V14.695C22.2373 15.1489 21.8685 15.4894 21.4146 15.4894H20.1097H19.599H19.5707V13.5036V13.4184H19.9395H20.1664C20.5068 13.4184 20.7622 13.7021 20.7622 14.0142V14.2128V14.2979H21.1026V14.2695V13.4184V13.1064V12.2837V12.2553H20.7622V12.4823C20.7622 12.8227 20.5068 13.0497 20.1664 13.0497H19.9395H19.7125H19.5707V11.2908H19.599H20.6487C20.6487 11.2908 20.6487 11.2908 20.6771 11.2908H21.4146C21.8685 11.2908 22.209 11.6596 22.2373 12.0851V12.5957H22.6061V12.1135L22.5778 10.9787Z" fill="#006039"/>
<path d="M28.904 15.4894C28.5636 15.4894 28.4785 15.3759 28.1948 15.0638L26.5778 13.0496L27.6558 11.773C27.9395 11.4326 28.0246 11.3191 28.3934 11.3191H28.6204H28.6771V10.9503H28.6204H27.5423H27.4856H26.7196H26.6913V11.3191H26.748H27.1452C27.2303 11.3191 27.3154 11.4042 27.3154 11.4894C27.3154 11.5177 27.3154 11.5461 27.287 11.5745L26.3509 12.7092L25.5565 11.8014L25.4147 11.6028C25.3863 11.5745 25.3863 11.5461 25.3863 11.4894C25.3863 11.4042 25.4714 11.3191 25.5565 11.3191H25.9821V10.9503H25.2161H24.1097H23.514V11.3191H23.6274C23.9395 11.3475 24.0246 11.4326 24.2799 11.7163L25.6984 13.5035L24.4218 15.0355C24.1381 15.3759 24.053 15.4894 23.6842 15.4894H23.4572H23.3721V15.8581H23.4572H24.6771H24.7622H25.4147H25.4998V15.4894H25.4147H24.9608C24.8757 15.4894 24.7906 15.4042 24.7906 15.3191C24.7906 15.2908 24.8189 15.234 24.8189 15.2057L25.9537 13.844L26.8899 15.0355L27.0317 15.2057C27.0601 15.234 27.0601 15.2624 27.0601 15.3191C27.0601 15.4042 26.975 15.4894 26.8899 15.4894H26.436V15.8581H29.0743V15.4894H28.904Z" fill="#006039"/>
</g>
<defs>
<clipPath id="clip0_813_348">
<rect width="28.7943" height="16" fill="white" transform="translate(0.279907)"/>
</clipPath>
</defs>
</svg>
