<svg width="15" height="16" viewBox="0 0 15 16" fill="none" xmlns="http://www.w3.org/2000/svg">
<g clip-path="url(#clip0_876_2942)">
<path d="M14.1304 0L12.1228 2.01439L10.4456 0.338668L8.76045 2.01439L7.08608 0.340022L5.41171 2.01575L3.73598 0.340022L2.06297 2.01575L0.105469 0.0406401V8.9625C0.105469 12.8422 3.2185 16 7.09689 16C10.9754 16 14.1304 12.8422 14.1304 8.9625V0Z" fill="white"/>
<path d="M0.731445 10.1844C0.896716 11.0243 1.22454 11.814 1.70817 12.5334C1.99942 12.0213 2.58328 11.386 3.72933 11.1164C3.64128 10.8224 3.56271 10.5095 3.49633 10.1844H0.731445Z" fill="#5B6670"/>
<path d="M2.16455 13.1376C3.40271 14.5885 5.18682 15.4257 7.06574 15.4378C6.88827 15.3471 6.71489 15.2482 6.54824 15.1398C5.75171 14.625 4.65578 13.6226 3.94865 11.764C2.83511 12.0065 2.36369 12.6378 2.16455 13.1376Z" fill="#5B6670"/>
<path d="M4.63525 11.6678C5.13784 12.9304 5.89646 13.9003 6.89214 14.5505C7.5505 14.9813 8.1818 15.1777 8.59767 15.2671C9.63806 15.0247 10.6107 14.5221 11.4154 13.8136C10.78 13.7445 10.1298 13.3788 9.44164 12.9927C8.36875 12.3898 7.03166 11.6407 5.2286 11.6407C5.03353 11.6407 4.8344 11.6502 4.63525 11.6678Z" fill="#5B6670"/>
<path d="M7.34742 6.90067H5.02686V9.66284H5.99002V7.44665H6.71343V9.66284H7.6319V7.28812C7.6319 7.07814 7.50319 6.90067 7.34607 6.90067H7.34742Z" fill="#592C82"/>
<path d="M8.04102 6.90067V9.26995C8.04102 9.48127 8.16838 9.66284 8.3255 9.66284H10.6433V7.98572H9.71814V9.11551H8.99474V7.43302H10.6433V6.89932H8.04102V6.90067Z" fill="#592C82"/>
<path d="M2.4627 6.90067L1.93844 8.01695H1.63635V6.90067H0.677246V9.66284H1.63635V8.55206H1.93844L2.4627 9.66284H3.4218L2.74582 8.28383L3.4218 6.90067H2.4627Z" fill="#592C82"/>
<path d="M4.66924 6.90067H3.67627V9.66284H4.66924V6.90067Z" fill="#592C82"/>
<path d="M13.5615 7.64844V6.90201H11.0146V8.16319C11.0146 8.37318 11.142 8.54521 11.2991 8.54521H12.5969V9.14668H11.0146V9.66418H13.5628V8.39622C13.5628 8.1998 13.4545 8.01554 13.3082 8.01554H11.9697V7.43711H12.6389V7.64844H13.5601H13.5615Z" fill="#592C82"/>
<path d="M10.8522 4.09921H10.0394L11.7164 2.42213L10.4458 1.1528L8.76058 2.82853L7.08621 1.1528L4.14114 4.09921H3.32833L5.00271 2.41942L3.73609 1.1528L2.06307 2.82853L0.677246 1.45218V4.20216V6.39402H13.5615V4.26719V1.38851L10.8522 4.09921Z" fill="#592C82"/>
<path d="M3.49072 5.86298C3.49072 5.93478 3.54898 5.99303 3.62077 5.99303H4.34416V5.79796H3.75353V5.16668H4.34416V4.97296H3.49072V5.86298Z" fill="white"/>
<path d="M2.31104 4.97437V5.99443H2.57384V5.72756H2.90032V5.99443H3.16448V5.10441C3.16448 5.02855 3.10352 4.97437 3.01953 4.97437H2.31104ZM2.90167 5.53385H2.5752V5.16944H2.90167V5.53385Z" fill="white"/>
<path d="M12.9532 4.97437H12.3558C12.2854 4.97437 12.2271 5.03262 12.2271 5.10306V5.86303C12.2271 5.93483 12.2854 5.99308 12.3558 5.99308H12.9532C13.025 5.99308 13.0819 5.93347 13.0819 5.86303V5.10306C13.0819 5.03126 13.0236 4.97437 12.9532 4.97437ZM12.8177 5.79801H12.4926V5.16808H12.8177V5.79801Z" fill="white"/>
<path d="M1.12939 5.4512C1.12939 5.52299 1.18765 5.58124 1.25944 5.58124H1.72003V5.79934H1.12939V5.99442H1.98283V5.51757C1.98283 5.4512 1.93272 5.39565 1.86634 5.38888H1.3922V5.16942H1.98283V4.97571H1.12939V5.45255V5.4512Z" fill="white"/>
<path d="M6.55491 4.97437H5.83154V5.99443H6.0957V5.72756H6.42218V5.99443H6.68637V5.10441C6.68637 5.03262 6.62806 4.97437 6.55632 4.97437H6.55491ZM6.42354 5.53385H6.09706V5.16944H6.42354V5.53385Z" fill="white"/>
<path d="M11.0781 5.16808H11.3735V5.99308H11.6363V5.16808H11.9316V4.97437H11.0781V5.16808Z" fill="white"/>
<path d="M8.34596 4.97437H7.03467V5.99443H7.2988V5.16944H7.62257V5.99443H7.88945V5.16944H8.21188V5.99443H8.47601V5.10441C8.47601 5.03262 8.41777 4.97437 8.34596 4.97437Z" fill="white"/>
<path d="M10.6814 4.97437H9.95801V5.99443H10.2209V5.16944H10.5473V5.99443H10.8114V5.10441C10.8114 5.03262 10.7532 4.97437 10.6814 4.97437Z" fill="white"/>
<path d="M8.8335 5.86303C8.8335 5.93483 8.89174 5.99308 8.96354 5.99308H9.68694V5.79801H9.09762V5.5799H9.68694V5.38619H9.09762V5.16808H9.68694V4.97437H8.8335V5.86438V5.86303Z" fill="white"/>
<path d="M5.36148 5.62185H5.50237V5.10301C5.50237 5.02715 5.44005 4.97296 5.35741 4.97296H4.64893V5.99303H4.91173V5.62185H5.10274L5.25988 5.99303H5.51727L5.36148 5.62185ZM5.23821 5.42814H4.91173V5.16803H5.23821V5.42814Z" fill="white"/>
<path d="M5.08791 10.966C6.46019 10.9376 7.8176 11.2817 9.5502 12.2692C10.8303 12.9994 11.3926 13.2202 11.7773 13.1254C12.1308 13.0387 12.4587 12.83 13.0385 11.6054C13.2593 11.1381 13.4178 10.5853 13.495 10.1844H4.18164C4.24666 10.4662 4.31033 10.7466 4.39568 11.0053C4.62055 10.9796 4.85356 10.966 5.08791 10.966Z" fill="#5B6670"/>
</g>
<defs>
<clipPath id="clip0_876_2942">
<rect width="14.0249" height="16" fill="white" transform="translate(0.105469)"/>
</clipPath>
</defs>
</svg>
