<svg width="40" height="16" viewBox="0 0 40 16" fill="none" xmlns="http://www.w3.org/2000/svg">
<g clip-path="url(#clip0_807_3009)">
<g clip-path="url(#clip1_807_3009)">
<path d="M38.8571 10.3677C38.8571 10.0497 39.1141 9.79187 39.4311 9.79187C39.746 9.79324 40.0005 10.0501 40 10.3661C39.9995 10.6821 39.7443 10.9382 39.4294 10.9387C39.1145 10.9391 38.8585 10.6838 38.8571 10.3677ZM39.9011 10.3677C39.8956 10.1086 39.6828 9.90248 39.4246 9.9061C39.1663 9.90972 38.9594 10.1218 38.9612 10.3809C38.9629 10.6401 39.1728 10.8492 39.4311 10.8493C39.5592 10.8537 39.6833 10.8037 39.7727 10.7116C39.8622 10.6194 39.9088 10.4937 39.9011 10.3653V10.3677ZM39.2356 10.0773H39.4335C39.5646 10.0773 39.6512 10.1319 39.6512 10.2486C39.6533 10.321 39.605 10.385 39.5349 10.4025L39.6834 10.6507H39.5547L39.4187 10.4298H39.3593V10.6507H39.2356V10.0773ZM39.4311 10.3256C39.4954 10.3256 39.53 10.2982 39.53 10.2436C39.53 10.1841 39.4929 10.1642 39.4311 10.1642H39.3593V10.328L39.4311 10.3256Z" fill="#5078A1"/>
<path d="M23.2857 1.62097H22.5714V8.35836H23.2857V1.62097Z" fill="#5078A1"/>
<path d="M25.7143 1.62097H25V8.35836H25.7143V1.62097Z" fill="#5078A1"/>
<path d="M28.2857 3.77121H27.5714V8.21502H28.2857V3.77121Z" fill="#5078A1"/>
<path d="M29.4329 6.25432V6.18557C29.4329 4.84702 30.3069 3.91455 31.5437 3.91455C32.5881 3.91455 33.5714 4.53333 33.5714 6.11896V6.34671H30.1737C30.2086 7.35653 30.7003 7.91515 31.6224 7.91515C32.3194 7.91515 32.7258 7.66162 32.8198 7.14382H33.5365C33.3813 8.03547 32.6297 8.50171 31.6136 8.50171C30.3375 8.50171 29.4286 7.61865 29.4286 6.25432H29.4329ZM32.8329 5.77949C32.7651 4.86421 32.2822 4.49036 31.5393 4.49036C30.7964 4.49036 30.3157 4.98238 30.1955 5.77949H32.8329Z" fill="#5078A1"/>
<path d="M17.4286 7.18721C17.4286 6.16276 18.5493 5.81771 19.7463 5.81771H20.4188V5.49623C20.4188 4.79326 20.1364 4.4975 19.428 4.4975C18.7914 4.4975 18.4373 4.75254 18.3655 5.29263H17.6236C17.72 4.28747 18.5606 3.91455 19.4549 3.91455C20.3493 3.91455 21.1428 4.26175 21.1428 5.49623V8.41312H20.4099V7.85589C20.0739 8.28924 19.5317 8.53108 18.9685 8.49885C18.11 8.49885 17.4286 8.10021 17.4286 7.19578M20.4099 6.87645V6.31493H19.7732C18.843 6.31493 18.1616 6.52925 18.1616 7.18721C18.1616 7.64371 18.3857 7.9309 19.038 7.9309C19.8158 7.9309 20.4099 7.55155 20.4099 6.8593" fill="#5078A1"/>
<path d="M29.2857 13.066C29.2857 12.0411 30.4157 11.6959 31.5993 11.6959H32.2706V11.3742C32.2706 10.671 31.9886 10.3751 31.2816 10.3751C30.6461 10.3751 30.2926 10.6281 30.221 11.1705H29.4871C29.5833 10.1628 30.4224 9.79187 31.3151 9.79187C32.2079 9.79187 33 10.1371 33 11.3742V14.2924H32.2683V13.7328C31.9335 14.167 31.3919 14.4091 30.8296 14.376C29.9726 14.376 29.2924 13.9794 29.2924 13.0745M32.2683 12.7529V12.1933H31.6329C30.7043 12.1933 30.0263 12.4077 30.0263 13.066C30.0263 13.5227 30.2501 13.81 30.899 13.81C31.6754 13.81 32.2683 13.4283 32.2683 12.7379" fill="#5078A1"/>
<path d="M34.2857 12.1327V12.064C34.2857 10.7248 35.1305 9.79187 36.3279 9.79187C37.3353 9.79187 38.2857 10.4109 38.2857 11.9973V12.2252H35.0122C35.046 13.2355 35.5212 13.7943 36.4124 13.7943C37.0882 13.7943 37.4684 13.5407 37.5719 13.0227H38.2625C38.1125 13.9126 37.3881 14.379 36.404 14.379C35.1706 14.379 34.292 13.4977 34.292 12.1327H34.2857ZM37.5824 11.6577C37.517 10.742 37.0502 10.368 36.3343 10.368C35.6183 10.368 35.1495 10.8602 35.0333 11.6577H37.5824Z" fill="#5078A1"/>
<path d="M12.7231 7.05279H13.4215C13.474 7.57655 13.7586 7.91141 14.4855 7.91141C15.1686 7.91141 15.4707 7.68387 15.4707 7.20949C15.4707 6.7351 15.116 6.59129 14.4154 6.46464C13.2397 6.24999 12.8435 5.93015 12.8435 5.15954C12.8435 4.33742 13.6645 3.91455 14.376 3.91455C15.1883 3.91455 15.8889 4.23653 16.0093 5.20247H15.3153C15.2102 4.70662 14.9343 4.49412 14.3563 4.49412C13.8374 4.49412 13.5003 4.74741 13.5003 5.13808C13.5003 5.52875 13.7192 5.69618 14.5534 5.84C15.4882 6.00957 16.1429 6.2135 16.1429 7.15368C16.1429 7.95863 15.5824 8.50171 14.4855 8.50171C13.3886 8.50171 12.7559 7.96722 12.7143 7.06138" fill="#5078A1"/>
<path d="M27.3714 2.05103C27.3714 1.73435 27.6273 1.47763 27.9429 1.47763C28.2585 1.47763 28.5143 1.73435 28.5143 2.05103C28.5143 2.3677 28.2585 2.62442 27.9429 2.62442C27.6284 2.62172 27.3741 2.36658 27.3714 2.05103Z" fill="#F26D6B"/>
<path d="M9.85715 2.05103C9.85715 1.81889 9.99664 1.60966 10.2105 1.52106C10.4243 1.43245 10.6703 1.48197 10.8335 1.64647C10.9967 1.81097 11.045 2.058 10.9558 2.27218C10.8666 2.48636 10.6574 2.62542 10.4261 2.62442C10.112 2.6217 9.85849 2.36617 9.85715 2.05103Z" fill="#F26D6B"/>
<path d="M26.8407 9.79237C26.3228 9.78256 25.8413 10.0469 25.5877 10.4804C25.3978 10.0531 24.9553 9.78033 24.4714 9.79237C23.9363 9.77878 23.4352 10.0435 23.161 10.4846V9.83682H22.4286V14.2357H23.1941V11.6954C23.1941 10.9228 23.7368 10.4253 24.1934 10.4253C24.7516 10.4253 24.9766 10.7132 24.9766 11.4837V14.2357H25.7399V11.6954C25.7399 10.9101 26.1282 10.4253 26.6797 10.4253C27.2312 10.4253 27.5224 10.7132 27.5224 11.4837V14.2357H28.2857V11.4986C28.2857 10.2284 27.6084 9.79237 26.8407 9.79237Z" fill="#5078A1"/>
<path d="M5.88428 11.5014H5.14285C5.14285 7.42557 6.07071 5.18511 8.53928 3.19781L8.99785 3.74844C6.70071 5.60072 5.88428 7.63021 5.88428 11.5014Z" fill="#A7BAD0"/>
<path d="M5.88428 11.5014H5.14285V14.3199H5.88428V11.5014Z" fill="#A7BAD0"/>
<path d="M3.28573 0.1875H2.57144V15.8125H3.28573V0.1875Z" fill="#A7BAD0"/>
<path d="M0.714286 6.63818H0V14.0923H0.714286V6.63818Z" fill="#A7BAD0"/>
</g>
</g>
<defs>
<clipPath id="clip0_807_3009">
<rect width="40" height="16" fill="white"/>
</clipPath>
<clipPath id="clip1_807_3009">
<rect width="40" height="15.625" fill="white" transform="translate(0 0.1875)"/>
</clipPath>
</defs>
</svg>
