<svg width="13" height="16" viewBox="0 0 13 16" fill="none" xmlns="http://www.w3.org/2000/svg">
<g clip-path="url(#clip0_795_1988)">
<path d="M12.5016 0.847842C12.4733 0.839172 11.802 0.630256 10.7233 0.422373C10.0923 0.299955 9.44859 0.202929 8.81007 0.132946C8.0304 0.0459653 7.24655 0.00158392 6.46204 0H6.44924C5.66494 0.001631 4.88131 0.0460123 4.10183 0.132946C3.46373 0.202929 2.82006 0.300368 2.18856 0.42196C1.10951 0.630256 0.437554 0.839172 0.409891 0.847636L0.0795898 0.950855C0.0795898 1.52228 0.0795898 8.13119 0.0795898 8.1987C0.0961575 8.55248 0.13338 8.90498 0.191066 9.25442C0.245474 9.58131 0.319233 9.90468 0.411955 10.2228C0.582983 10.808 0.821291 11.3715 1.1221 11.9018C1.62912 12.7967 2.31552 13.5993 3.16233 14.2878C3.50515 14.5659 3.86649 14.8203 4.24386 15.0494C4.55578 15.239 4.8779 15.4112 5.20876 15.5654C5.73476 15.8097 6.19698 15.9645 6.38174 15.9907L6.45606 16L6.52934 15.9907C6.7139 15.9645 7.17673 15.8097 7.70253 15.5654C8.0333 15.4114 8.35529 15.2391 8.66701 15.0494C9.04459 14.8204 9.40608 14.566 9.74895 14.2878C10.5953 13.5993 11.2818 12.7967 11.789 11.9018C12.0891 11.3713 12.327 10.8079 12.4979 10.2228C12.5904 9.90465 12.664 9.58128 12.7184 9.25442C12.7761 8.90465 12.8134 8.55179 12.8298 8.19766V0.950235L12.5016 0.847842Z" fill="black"/>
<path d="M1.84874 11.4001C2.29279 12.1883 2.89517 12.8974 3.63897 13.5081C4.97587 14.6063 6.27994 15.0004 6.43022 15.0213L6.45458 15.0256L6.47853 15.0213C6.62923 15.0006 7.9333 14.6067 9.2704 13.5081C10.0136 12.8974 10.6166 12.1883 11.0606 11.4001C11.6091 10.427 11.9155 9.33225 11.9721 8.14626C11.9756 8.0674 11.9721 1.63623 11.9721 1.63623L11.8864 1.6094C11.862 1.60196 9.42275 0.850941 6.46036 0.848877H6.4486C3.48662 0.850941 1.04673 1.60196 1.02257 1.6094L0.937107 1.63623C0.937107 1.63623 0.933597 8.0674 0.937107 8.14647C0.993464 9.33225 1.30003 10.427 1.84874 11.4001ZM1.05911 1.72562C1.05911 1.72562 3.47114 0.972534 6.4486 0.970676H6.46036C9.43803 0.972534 11.8503 1.72562 11.8503 1.72562C11.8503 1.86187 11.8562 8.00919 11.8503 8.14069C11.6795 11.7521 9.21631 13.6152 7.67339 14.4117L6.36416 12.0391C6.31544 12.0374 6.26755 12.0347 6.21966 12.0304C5.78876 11.9922 5.37386 11.8487 5.0114 11.6126C4.64894 11.3764 4.35002 11.0549 4.1409 10.6762C3.93178 10.2975 3.81887 9.8733 3.81209 9.44076C3.80531 9.00823 3.90487 8.58065 4.10201 8.1956C4.11151 8.17682 4.12142 8.15844 4.13133 8.13986C4.13401 8.13512 4.16023 8.08764 4.17261 8.06864L2.48911 5.02079H2.35018L4.03286 8.06864C3.80786 8.47598 3.69002 8.93379 3.69037 9.39914C3.69037 10.8682 4.8423 12.0717 6.28985 12.1572L7.56501 14.4672C6.98513 14.7562 6.55491 14.8879 6.4616 14.9007H6.45458H6.44736C6.10735 14.8522 1.30003 13.2372 1.05932 8.14048C1.05251 8.00919 1.05911 1.86187 1.05911 1.72562Z" fill="#003DA6"/>
<path d="M10.2198 5.02078H8.92188L9.54553 6.24971L10.2198 5.02078Z" fill="#003DA6"/>
<path d="M3.48584 5.02079L5.1648 8.06328C5.45007 7.78793 5.81611 7.61131 6.20917 7.55936L4.83842 5.02017L3.48584 5.02079Z" fill="#003DA6"/>
<path d="M8.18453 8.72222L8.1868 8.72594L8.86619 7.48772L7.58256 5.02078H6.21924L7.98697 8.35022L8.18453 8.72222Z" fill="#003DA6"/>
<path d="M9.54539 6.24991L8.86621 7.48854H11.2035C11.2035 7.20634 11.2035 6.80729 11.2035 6.24991H9.54539Z" fill="#003DA6"/>
<path d="M8.18652 8.72678C8.34054 9.12304 8.35467 9.56002 8.22657 9.96541H10.8663C10.9999 9.56253 11.0944 9.14774 11.1485 8.72678H8.18652Z" fill="#003DA6"/>
<path d="M7.57095 12.4414H9.30503C9.67977 12.0695 10.0081 11.6536 10.2829 11.2028H6.88867L7.57095 12.4414Z" fill="#003DA6"/>
<path d="M3.47314 13.8815C4.87692 15.0217 6.29639 15.4228 6.44936 15.4447H6.45534H6.46051C6.61967 15.4207 8.03769 15.0192 9.43673 13.8819C10.6824 12.869 12.1968 11.0537 12.3341 8.15597C12.337 8.09837 12.3341 1.30366 12.3341 1.30366C12.1276 1.24173 9.55894 0.485341 6.46154 0.483276H6.44894C3.35237 0.485341 0.783452 1.24111 0.576601 1.30366C0.576601 1.30366 0.574537 8.11427 0.576601 8.15597C0.712644 11.0531 2.22687 12.8685 3.47314 13.8815ZM0.937042 1.63623L1.02251 1.6094C1.04687 1.60197 3.48656 0.850943 6.44853 0.848879H6.4603C9.42269 0.850943 11.862 1.60197 11.8863 1.6094L11.972 1.63623C11.972 1.63623 11.9755 8.06741 11.972 8.14627C11.9154 9.33225 11.6091 10.427 11.0606 11.4001C10.6165 12.1883 10.0137 12.8974 9.27034 13.5081C8.98968 13.7384 8.69493 13.9511 8.38781 14.1447L6.77326 11.2226C6.75262 11.2263 6.73197 11.229 6.71133 11.2325C6.62588 11.2443 6.53974 11.2504 6.45349 11.2507C6.09976 11.2508 5.75341 11.1495 5.45546 10.9589C5.15751 10.7682 4.92043 10.4962 4.77231 10.1749C4.62419 9.85372 4.57123 9.49678 4.61969 9.14638C4.66816 8.79599 4.81603 8.46683 5.04578 8.19787C5.05693 8.18487 5.06808 8.17124 5.07985 8.15803L3.34742 5.02079H2.94754L4.66098 8.12376C4.42601 8.45278 4.28631 8.84021 4.25723 9.24346C4.22815 9.64672 4.31082 10.0502 4.49614 10.4095C4.68147 10.7688 4.96228 11.0701 5.30771 11.2802C5.65314 11.4903 6.0498 11.6011 6.45411 11.6004C6.49663 11.6004 6.53861 11.5992 6.58003 11.5969L8.08703 14.3258C7.24415 14.812 6.5821 15.007 6.47681 15.0213L6.45287 15.0256L6.42851 15.0213C6.27822 15.0006 4.97415 14.6063 3.63725 13.5081C2.89408 12.8974 2.29107 12.1883 1.84702 11.4001C1.29831 10.427 0.991748 9.33225 0.935391 8.14647C0.933533 8.06741 0.937042 1.63623 0.937042 1.63623Z" fill="white"/>
<path d="M5.54212 4.3255H5.68663V4.6013C5.68811 4.61791 5.68622 4.63464 5.68107 4.65049C5.67593 4.66635 5.66764 4.681 5.6567 4.69358C5.62552 4.72496 5.5832 4.72682 5.54254 4.72764H5.45996V4.63289H5.49237C5.52313 4.63144 5.54109 4.63041 5.54254 4.5916L5.54212 4.3255Z" fill="white"/>
<path d="M6.14249 4.33478C6.18026 4.35009 6.21247 4.37655 6.23482 4.41062C6.25717 4.4447 6.2686 4.48479 6.26759 4.52553C6.26793 4.56401 6.25772 4.60185 6.23807 4.63494C6.22592 4.65589 6.20979 4.67427 6.19059 4.68903C6.13588 4.73259 6.07106 4.7425 5.99819 4.7425C5.85781 4.7425 5.80042 4.69316 5.7711 4.65249C5.74487 4.61788 5.73125 4.57534 5.7325 4.53193C5.73172 4.48708 5.74484 4.44309 5.77007 4.406C5.82643 4.32611 5.9218 4.3131 5.99323 4.31187C6.04417 4.31006 6.09498 4.31804 6.1429 4.3354M5.88093 4.52759C5.88093 4.58953 5.91458 4.65393 6.0017 4.65393C6.02175 4.65486 6.04173 4.65089 6.05991 4.64237C6.1043 4.62029 6.11978 4.56785 6.11978 4.52759C6.11978 4.48342 6.10017 4.40229 6.0017 4.40167C5.91107 4.40022 5.88093 4.47206 5.88093 4.52759Z" fill="white"/>
<path d="M6.45264 4.42995C6.4526 4.43506 6.45419 4.44006 6.45718 4.4442C6.46688 4.45658 6.50735 4.46484 6.52944 4.47041C6.55689 4.4762 6.58497 4.48177 6.61201 4.48817C6.62982 4.49112 6.64725 4.49597 6.66403 4.50262C6.68468 4.50864 6.70277 4.52127 6.71552 4.53858C6.72828 4.55589 6.735 4.57691 6.73464 4.59841C6.73458 4.62291 6.72741 4.64686 6.71399 4.66736C6.68034 4.71814 6.61263 4.74044 6.50446 4.74044C6.46317 4.74044 6.38348 4.73693 6.33621 4.69502C6.31204 4.67251 6.29728 4.64168 6.29492 4.60873L6.43695 4.60481C6.4417 4.63102 6.46874 4.65105 6.52593 4.65105C6.54307 4.65182 6.56014 4.64842 6.57568 4.64114C6.58151 4.63827 6.58648 4.63391 6.59011 4.62852C6.59373 4.62312 6.59587 4.61686 6.59632 4.61038C6.59593 4.60306 6.59312 4.59607 6.58834 4.5905C6.58356 4.58494 6.57708 4.58111 6.5699 4.57962C6.55214 4.57405 6.46172 4.55774 6.4417 4.5534C6.42601 4.5501 6.4105 4.54596 6.39525 4.54102C6.3728 4.53488 6.35294 4.52166 6.33862 4.50332C6.3243 4.48498 6.31628 4.46251 6.31577 4.43924C6.31574 4.40981 6.32731 4.38155 6.34798 4.36059C6.39319 4.31352 6.47411 4.30919 6.51849 4.30919C6.55977 4.30842 6.60093 4.31363 6.64071 4.32467C6.6642 4.3305 6.68534 4.34341 6.70125 4.36165C6.71717 4.37989 6.72709 4.40258 6.72968 4.42665L6.58868 4.43449C6.58517 4.42108 6.57836 4.39754 6.51808 4.39754C6.49888 4.39754 6.4547 4.40002 6.4547 4.42995" fill="white"/>
<path d="M7.20067 4.32611V4.41674H6.92095V4.48218H7.17962V4.57342H6.92054V4.63721H7.20645V4.72825H6.77686V4.32611H7.20067Z" fill="white"/>
<path d="M3.95195 4.42994C3.95187 4.43509 3.95354 4.44012 3.95669 4.44419C3.96619 4.45658 4.00686 4.46483 4.02895 4.47041C4.0564 4.47619 4.08407 4.48176 4.11152 4.48816C4.12934 4.49107 4.14678 4.49591 4.16355 4.50261C4.18419 4.50863 4.20228 4.52126 4.21504 4.53857C4.22779 4.55588 4.23451 4.5769 4.23415 4.5984C4.23424 4.62292 4.22706 4.64692 4.2135 4.66735C4.18006 4.71813 4.11194 4.74043 4.00356 4.74043C3.96351 4.74043 3.883 4.73692 3.83572 4.69501C3.81161 4.67245 3.79688 4.64165 3.79443 4.60872L3.93626 4.6048C3.94162 4.63102 3.96825 4.65104 4.02503 4.65104C4.04224 4.65184 4.05938 4.64844 4.07498 4.64113C4.08085 4.63831 4.08586 4.63397 4.08949 4.62856C4.09312 4.62315 4.09524 4.61687 4.09563 4.61037C4.09514 4.60301 4.09225 4.59602 4.08741 4.59046C4.08256 4.5849 4.07602 4.58109 4.06879 4.57961C4.05104 4.57404 3.96041 4.55773 3.94059 4.55339C3.92504 4.55009 3.90967 4.54596 3.89456 4.54101C3.87949 4.53564 3.81466 4.51252 3.81466 4.43923C3.81468 4.42461 3.81758 4.41013 3.82322 4.39663C3.82885 4.38313 3.8371 4.37088 3.84749 4.36058C3.89208 4.31351 3.973 4.30918 4.0178 4.30918C4.05907 4.30846 4.10023 4.31367 4.14001 4.32466C4.16347 4.33057 4.18456 4.3435 4.20046 4.36173C4.21636 4.37995 4.22631 4.4026 4.22899 4.42664L4.08778 4.43449C4.08427 4.42107 4.07725 4.39753 4.01697 4.39753C3.99798 4.39753 3.9536 4.40001 3.9536 4.42994" fill="white"/>
<path d="M5.06375 4.32611L5.06685 4.54597L4.87197 4.32611H4.75244V4.65992L4.78237 4.72825H4.89509L4.89282 4.50654L5.08605 4.72825H5.20557V4.32611H5.06375Z" fill="white"/>
<path d="M4.56709 4.32611H4.40318L4.22998 4.72825H4.38749L4.48555 4.43759L4.53324 4.57404H4.47605L4.44633 4.66302H4.56338L4.58485 4.72825H4.74174L4.56709 4.32611Z" fill="white"/>
<path d="M3.51162 4.46567H1.70508V4.58685H3.51162V4.46567Z" fill="white"/>
<path d="M7.03955 2.35587H7.47307V4.01728H7.1341L7.03955 3.72827V2.35587ZM8.46852 2.35587H7.96233L7.47906 3.15458L8.00114 4.01728H8.50733L7.98504 3.15458L8.46852 2.35587Z" fill="white"/>
<path d="M6.56391 4.01708L6.49434 3.80507H6.00859L6.12255 3.45866H6.38039L6.18861 2.86928L5.8131 4.01708H5.37256L5.919 2.3569H6.46069L7.00714 4.01708H6.56391Z" fill="white"/>
<path d="M4.67077 3.68842C4.58035 3.68842 4.50272 3.65973 4.45297 3.60771C4.37184 3.52864 4.37184 3.42728 4.37184 3.35296V2.35669H3.93213V3.30507C3.93708 3.49086 3.94204 3.68409 4.1107 3.84821C4.26119 3.99271 4.43233 4.05671 4.6654 4.05671C4.93026 4.05671 5.07497 3.97413 5.20833 3.84759C5.41291 3.65292 5.41291 3.38682 5.41291 3.17708V2.35669H4.97423V3.35296C4.97423 3.42728 4.97423 3.52926 4.89021 3.6106C4.82945 3.66321 4.7511 3.691 4.67077 3.68842Z" fill="white"/>
<path d="M3.55626 3.66305C3.63497 3.56229 3.69515 3.44836 3.73401 3.32655C3.76977 3.21428 3.78801 3.09716 3.78809 2.97932C3.78939 2.83594 3.76128 2.6938 3.70552 2.5617C3.65242 2.43413 3.57533 2.31794 3.47844 2.21942C3.37998 2.12195 3.26427 2.04362 3.1372 1.98842C3.00527 1.93075 2.86272 1.90142 2.71874 1.90234C2.57458 1.9014 2.43178 1.93022 2.29926 1.98697C2.17153 2.04161 2.05536 2.12008 1.95699 2.21819C1.86 2.3171 1.78291 2.43371 1.72991 2.5617C1.62063 2.82968 1.62063 3.12979 1.72991 3.39777C1.78286 3.52487 1.85998 3.64048 1.95699 3.73819C2.05566 3.83557 2.17177 3.91352 2.29926 3.96796C2.43172 4.02491 2.57457 4.05373 2.71874 4.0526C2.79963 4.05273 2.88029 4.04394 2.95925 4.02638C3.04226 4.0072 3.12291 3.97895 3.19975 3.94215L3.20346 3.93926L3.20594 3.9436L3.25156 4.01585H3.77984L3.55998 3.66965L3.55626 3.66305ZM2.08642 2.97747C2.0858 2.89403 2.10169 2.81129 2.13319 2.73403C2.16468 2.65676 2.21116 2.5865 2.26994 2.52728C2.32872 2.46805 2.39864 2.42105 2.47566 2.38898C2.55269 2.35691 2.63531 2.34039 2.71874 2.3404C2.84515 2.33998 2.96869 2.37799 3.07299 2.4494C3.07697 2.45179 3.08077 2.45448 3.08435 2.45745L3.09756 2.46694C3.21879 2.55989 3.30306 2.6929 3.33531 2.84222C3.36756 2.99154 3.34571 3.14747 3.27365 3.28217H2.78068L2.95801 3.55673L2.96234 3.56375L2.95842 3.56726L2.94067 3.57428L2.93427 3.57655L2.91527 3.58316L2.90413 3.58687C2.89897 3.58852 2.89339 3.58976 2.88782 3.59141L2.87419 3.59513L2.8583 3.59884L2.84385 3.60215C2.83786 3.60339 2.83187 3.60463 2.82568 3.60545C2.81949 3.60628 2.81763 3.60669 2.81329 3.60731C2.80539 3.60886 2.79739 3.60989 2.78935 3.61041H2.78253C2.76189 3.61247 2.73939 3.61371 2.71792 3.61371C2.70677 3.61371 2.69604 3.61371 2.6851 3.61371C2.52254 3.60525 2.36953 3.53436 2.25799 3.41581C2.14644 3.29727 2.08498 3.14023 2.08642 2.97747Z" fill="white"/>
<path d="M10.5731 2.96693C10.4391 2.94092 10.3512 2.91387 10.3512 2.82242C10.3512 2.74562 10.4193 2.70124 10.5386 2.70124C10.5799 2.70124 10.7205 2.70578 10.8297 2.76317C10.8751 2.78821 10.9139 2.82357 10.9431 2.86639L11.2253 2.60855C11.1666 2.53722 11.0945 2.47815 11.013 2.43473C10.8714 2.36364 10.7146 2.32821 10.5562 2.33151C10.2465 2.33151 10.0207 2.45248 9.93358 2.66284C9.9064 2.72828 9.89237 2.79843 9.89229 2.86928C9.89229 3.18761 10.1243 3.29269 10.2992 3.34161C10.3211 3.34698 10.3704 3.35751 10.4274 3.36948C10.5327 3.39157 10.6637 3.41903 10.6999 3.43306C10.7825 3.46197 10.7938 3.51832 10.7938 3.5495C10.7938 3.67707 10.608 3.68719 10.5496 3.68719C10.4747 3.68704 10.4003 3.67413 10.3297 3.649C10.2745 3.63129 10.2239 3.60137 10.1817 3.56147C10.162 3.5417 10.1438 3.52059 10.127 3.4983C10.1256 3.49644 10.1225 3.49149 10.1175 3.48426C10.1126 3.47704 10.1064 3.46548 10.1064 3.46548L9.79671 3.67006H9.03433V3.32737H9.6264V2.98158H9.03433V2.70372H9.74469V2.3567H8.60205V4.01728H9.81322V3.7708C9.90862 3.88655 10.0363 3.97128 10.1801 4.01419C10.2944 4.04838 10.4133 4.06482 10.5327 4.06291C10.7899 4.06291 10.9841 3.99251 11.1097 3.85399C11.1984 3.75443 11.246 3.62484 11.2428 3.49149C11.242 3.09038 10.902 3.02762 10.5731 2.96693Z" fill="white"/>
<path d="M11.2045 4.46567H9.36719V4.58685H11.2045V4.46567Z" fill="#CE0E2D"/>
<path d="M7.47803 4.38517C7.52484 4.3816 7.5693 4.36324 7.60499 4.33273H7.70552V4.72104H7.57175V4.46733H7.47803V4.38517Z" fill="#CE0E2D"/>
<path d="M7.96993 4.59017C7.87517 4.59017 7.79611 4.5526 7.79611 4.46507C7.79633 4.44047 7.80387 4.4165 7.81777 4.3962C7.83166 4.37591 7.85129 4.36021 7.87414 4.35111C7.92139 4.33408 7.97131 4.32562 8.02154 4.32613C8.15613 4.32613 8.24325 4.38166 8.24325 4.51709C8.24325 4.56023 8.23541 4.6362 8.16873 4.68678C8.11835 4.72435 8.05622 4.72972 7.99945 4.72972C7.96192 4.73052 7.9245 4.72537 7.88859 4.71444C7.82666 4.69524 7.80601 4.66139 7.7959 4.6232L7.94557 4.61969C7.95222 4.6285 7.96104 4.63545 7.97116 4.63987C7.98129 4.64428 7.99238 4.646 8.00337 4.64487C8.02699 4.64589 8.05023 4.63859 8.06902 4.62423C8.08021 4.61425 8.08909 4.60195 8.09504 4.58819C8.10099 4.57443 8.10388 4.55953 8.10349 4.54454C8.08285 4.56168 8.0525 4.58955 7.96993 4.58955M7.93359 4.45805C7.93359 4.50511 7.99656 4.50573 8.01287 4.50573C8.06964 4.50573 8.09895 4.49025 8.09895 4.45887C8.09895 4.42109 8.06695 4.4085 8.00915 4.41036C7.9788 4.41139 7.93359 4.41697 7.93359 4.45805Z" fill="#CE0E2D"/>
<path d="M8.9039 4.34283H9.05811V4.56785H9.1254V4.65827H9.05645V4.72825H8.92825V4.65827H8.67578V4.57322L8.9039 4.34283ZM8.92929 4.44482L8.80749 4.56868H8.92929V4.44482Z" fill="#CE0E2D"/>
<path d="M8.71299 4.41675C8.46857 4.57901 8.47662 4.72826 8.47662 4.72826H8.32386C8.32386 4.72826 8.33397 4.52595 8.58046 4.41675H8.28711V4.3255H8.71299V4.41675Z" fill="#CE0E2D"/>
<path d="M5.04645 9.68815C4.90917 9.4235 4.8621 9.13758 4.85013 9.04922C4.81289 9.05689 4.77502 9.0611 4.737 9.06182C4.71536 9.17399 4.7045 9.28799 4.70459 9.40223C4.70415 9.74468 4.80468 10.0797 4.9936 10.3653L5.05781 10.3364C4.97358 10.0154 5.01652 9.78807 5.04645 9.68815Z" fill="#A6A8AB"/>
<path d="M5.08246 10.3933L5.02197 10.4068C5.20109 10.6626 5.44554 10.8658 5.72985 10.9951C5.71746 10.9745 5.68691 10.9148 5.64335 10.7825C5.54426 10.7389 5.23068 10.5901 5.08246 10.3933Z" fill="#333333"/>
<path d="M6.43275 7.65204L6.36917 7.9458C6.19761 8.02894 6.04045 8.13899 5.90365 8.27177C5.69187 8.27844 5.48067 8.29754 5.27113 8.32895C5.25268 8.26864 5.24213 8.20618 5.23975 8.14315C5.55978 7.83261 5.98684 7.65681 6.43275 7.65204ZM6.47569 7.65204L6.53948 7.9458C6.71104 8.02884 6.86814 8.1389 7.00479 8.27177C7.21671 8.27845 7.42805 8.29754 7.63773 8.32895C7.65608 8.26861 7.66662 8.20617 7.66911 8.14315C7.34906 7.83263 6.92201 7.65683 6.47611 7.65204H6.47569Z" fill="white"/>
<path d="M7.21388 9.64791C7.1313 9.88903 6.91908 10.2577 6.86954 10.3426C6.72672 10.3704 6.58152 10.3842 6.43602 10.3839C6.30216 10.3849 6.1686 10.371 6.0378 10.3426C5.98867 10.2579 5.77542 9.88841 5.69367 9.64791C5.77191 9.53024 5.96905 9.24886 6.18458 9.04345H6.72338C6.93849 9.24886 7.13626 9.53024 7.21388 9.64791ZM5.83177 8.426C5.64477 8.39229 5.4553 8.37413 5.26531 8.3717C5.06052 8.62748 4.91952 8.9392 4.88525 9.01889C4.9317 9.31306 5.07105 9.5773 5.09789 9.62561C5.19326 9.63428 5.29214 9.63841 5.39227 9.63841C5.5281 9.63841 5.62699 9.63077 5.66353 9.62747C5.76077 9.37886 5.87542 9.13742 6.00663 8.90493L5.83177 8.426ZM7.6441 8.3717C7.45349 8.37398 7.26341 8.392 7.07577 8.42558L6.90112 8.9039C7.03244 9.13668 7.14709 9.37848 7.24422 9.62747C7.28076 9.63077 7.37965 9.63841 7.51548 9.63841C7.61602 9.63841 7.7149 9.63428 7.81028 9.62561C7.83815 9.57689 7.97729 9.31244 8.02332 9.01744C7.98864 8.93652 7.84991 8.62748 7.6441 8.3717Z" fill="#C8C8C8"/>
<path d="M5.05732 10.3364L4.99312 10.3653C4.80419 10.0797 4.70366 9.74468 4.7041 9.40223C4.70401 9.28799 4.71487 9.17399 4.73651 9.06182C4.77453 9.0611 4.8124 9.05689 4.84964 9.04922C4.86162 9.13758 4.90868 9.4235 5.04596 9.68815C5.01644 9.78807 4.9735 10.0154 5.05732 10.3364ZM7.85167 10.3364L7.91566 10.3653C8.16824 9.98101 8.26 9.513 8.17123 9.06182C8.13329 9.06107 8.09549 9.05686 8.05831 9.04922C8.04654 9.13758 7.99927 9.4235 7.86261 9.68815C7.89234 9.78807 7.93507 10.0154 7.85167 10.3364Z" fill="#98989A"/>
<path d="M5.64335 10.7825C5.68691 10.9148 5.71746 10.9743 5.72985 10.9951C5.44554 10.8658 5.20109 10.6626 5.02197 10.4068L5.08246 10.3933C5.23068 10.5901 5.54426 10.7389 5.64335 10.7825ZM7.26575 10.7825C7.22219 10.9148 7.19164 10.9743 7.17905 10.9951C7.46348 10.8658 7.70806 10.6626 7.88734 10.4068L7.82664 10.3933C7.67863 10.5901 7.36484 10.7389 7.26575 10.7825Z" fill="#54565A"/>
<path d="M7.17767 10.7497C7.15269 10.7251 7.11429 10.6863 7.07321 10.6425C7.00317 10.5687 6.9395 10.4891 6.88287 10.4045C6.60163 10.4725 6.30819 10.472 6.02718 10.403C5.94461 10.5298 5.77946 10.7034 5.71484 10.7672C5.72496 10.8486 5.74414 10.9287 5.77203 11.0058C5.77347 11.0096 5.77512 11.0127 5.77678 11.016C5.98996 11.1051 6.21862 11.1513 6.44968 11.152C6.68075 11.1527 6.90968 11.1078 7.12337 11.0199C7.16363 10.9309 7.18324 10.7928 7.18737 10.7594L7.17767 10.7497Z" fill="#76777A"/>
</g>
<defs>
<clipPath id="clip0_795_1988">
<rect width="12.7502" height="16" fill="white" transform="translate(0.0795898)"/>
</clipPath>
</defs>
</svg>
