<svg width="28" height="16" viewBox="0 0 28 16" fill="none" xmlns="http://www.w3.org/2000/svg">
<g clip-path="url(#clip0_879_4080)">
<path d="M14.4074 16C18.9888 16 23.5027 14.4468 25.907 12.0423C27.1281 10.8214 27.7735 9.41145 27.7735 7.96407C27.7735 6.52735 27.1365 5.13137 25.9321 3.9268C23.5463 1.54137 19.0225 0 14.4074 0C11.1756 0 7.87773 0.760597 5.3593 2.08685C2.48226 3.60171 0.897949 5.68906 0.897949 7.96402C0.897949 9.39065 1.53709 10.7837 2.74659 11.9928C3.95536 13.2012 5.71162 14.2181 7.82605 14.9331C9.88958 15.6312 12.1656 15.9999 14.4073 15.9999" fill="#FFFFFE"/>
<path d="M5.55883 2.46575C2.82943 3.90298 1.32617 5.85576 1.32617 7.96408C1.32617 9.27469 1.92215 10.5629 3.04965 11.6905C4.2119 12.8524 5.911 13.8336 7.96321 14.5276C9.9833 15.2107 12.2118 15.572 14.4075 15.572C18.8809 15.572 23.2761 14.0675 25.6045 11.7394C26.7433 10.601 27.3453 9.29543 27.3453 7.96408C27.3453 6.64332 26.752 5.35198 25.6293 4.22947C23.32 1.92027 18.915 0.428284 14.4075 0.428284C11.2433 0.428284 8.01802 1.17078 5.55895 2.4657" fill="black"/>
<path d="M14.3995 14.8131C18.3485 14.8131 22.0909 13.5244 24.1655 11.4503C25.212 10.4038 25.765 9.20934 25.765 7.9957C25.765 6.78227 25.212 5.58785 24.1655 4.54151C22.0907 2.46716 18.3485 1.17874 14.3995 1.17874C11.4998 1.17874 8.61312 1.89444 6.47992 3.14262C4.25771 4.44286 3.03369 6.16634 3.03369 7.99564C3.03369 9.20934 3.58696 10.4037 4.63369 11.4503C6.70804 13.5243 10.4502 14.813 14.3995 14.813" fill="#B3995D"/>
<path d="M14.4199 14.571C20.2084 14.571 24.9012 11.5724 24.9012 7.9593C24.9012 4.34621 20.2084 1.41727 14.4199 1.41727C8.63108 1.41727 3.93848 4.34621 3.93848 7.9593C3.93848 11.5724 8.63108 14.571 14.4199 14.571Z" fill="#AA0000"/>
<path d="M22.6182 7.13745H22.5893V6.89874H18.4307C18.3414 6.43117 18.0725 5.99712 17.6883 5.6583C17.3099 5.22352 16.7605 4.89652 16.1347 4.77232L15.8757 4.71879C15.2754 4.59268 14.8012 4.49285 12.894 4.50272C12.894 4.50249 12.5272 4.49016 12.171 4.44291C12.0808 4.41999 12.0019 4.39275 11.9341 4.36332C11.9604 4.20464 12.2505 3.98594 12.5783 3.94373C12.6121 3.93745 14.6763 3.55766 16.8009 4.93363L16.853 4.96715H18.2494V2.83058H18.0106V2.59186H16.0944L15.7715 2.83854C15.2197 2.70038 12.5177 2.10905 10.1841 3.13056C9.20345 3.53569 8.59497 4.30038 8.63841 5.07706C8.66038 5.46868 8.84776 5.81014 9.17189 6.07492C9.41016 6.37249 9.78497 6.60448 10.2731 6.74527C10.9639 6.94419 11.5489 7.02619 12.1162 7.05876V8.03274H12.3547V8.27145H13.0836C13.3853 8.27145 13.463 8.4386 13.4815 8.50081C12.5515 8.44005 11.1375 8.1755 10.0965 7.21239L10.0575 7.17019H10.05C9.99263 7.1152 9.93619 7.05831 9.88098 6.99896L9.81854 6.93169H8.77086V9.97279H9.00963V10.2111H9.86439C9.98955 10.22 10.3866 10.1759 10.6607 9.37502C11.1052 9.53006 12.2007 9.85974 13.5496 9.8964V11.7884C13.5028 12.4239 12.103 12.6226 11.6156 12.6418L11.4139 12.6498V13.5905H11.6525V13.8287H17.798V12.9288L17.6414 12.8873C17.6132 12.8801 17.5862 12.8726 17.5592 12.8651V12.6592L17.3675 12.6428C17.0218 12.6122 16.7561 12.5524 16.5501 12.4788C16.1634 12.2623 16.0974 12.0867 16.089 12.0582V11.0495H17.8901C18.0803 11.0782 18.2434 11.1617 18.3816 11.2699C18.6408 11.5892 18.7592 11.9543 18.761 11.9603L18.807 12.1081L18.9616 12.1086H18.9667C18.9881 12.1629 18.9992 12.1971 19 12.199L19.0458 12.3471L19.2006 12.3473H20.0136V8.68796H19.7748V8.44925H18.8111L18.7767 8.61639C18.5244 9.8325 17.1178 9.81462 15.8673 9.63235C16.1126 9.56582 16.3588 9.48477 16.6044 9.38735C17.2739 9.1214 17.7763 8.75965 18.0895 8.33574H20.7891C20.9772 8.3418 21.1371 8.38905 21.2717 8.47705C21.5545 8.89182 21.5264 9.50338 21.5258 9.51033L21.514 9.73172H21.7651L21.7648 9.74859L21.7528 9.96999L21.9744 9.9705H22.8284V7.13751H22.6184" fill="black"/>
<path d="M18.3128 7.88671C18.5093 7.64895 18.5185 7.10879 18.5185 7.10879H22.3792V9.52169H21.7355C21.7355 9.52169 21.8274 7.92774 20.5499 7.88671H18.3128ZM13.7595 9.94727C14.6283 9.96582 15.3651 9.78159 15.3651 9.78159C15.5863 9.73266 18.5774 10.6104 18.982 8.6593H19.5645V11.8986H18.9616C18.9616 11.8986 18.6039 10.7334 17.6742 10.6005H15.6401V11.8374C15.6401 11.8374 15.6478 12.7045 17.3491 12.8519V13.3805H11.6238V12.8519C11.6238 12.8519 13.6936 12.7713 13.7597 11.8003V9.94733L13.7595 9.94727ZM15.5457 6.76005C15.2688 6.67586 14.8682 6.65782 14.4073 6.64022C12.7582 6.57727 11.7203 6.77378 10.0924 6.30453C8.24469 5.77206 8.57633 4.02235 10.2684 3.32302C12.7858 2.22096 15.8177 3.06765 15.8177 3.06765L16.1655 2.80192H17.8007V4.51862H16.6763C14.4486 3.07561 12.3124 3.49666 12.3124 3.49666C11.6174 3.58662 10.9428 4.35299 12.1282 4.64932C12.5066 4.70044 12.8949 4.71277 12.8949 4.71277C15.046 4.70145 15.3441 4.82975 16.0939 4.97828C18.0427 5.36458 19.1207 7.82859 16.2881 8.95356C13.3638 10.1147 10.2888 8.86338 10.2888 8.86338C10.0333 9.82408 9.63495 9.76287 9.63495 9.76287H8.98084V7.14186H9.72659C11.4747 9.0317 14.4689 8.70834 14.4689 8.70834C14.4689 8.70834 15.3581 8.6857 15.9405 8.13613C16.3953 7.58101 16.3233 6.98778 15.5457 6.76016V6.76005ZM13.1028 7.82304H12.3262V7.12707C12.9282 7.12707 14.1563 7.13239 15.0253 7.12707C15.8993 7.12707 16.0163 7.63252 15.6478 7.97443C15.3005 8.2966 14.5731 8.5259 13.7118 8.36919C13.7118 8.36919 13.6407 7.82304 13.1028 7.82304Z" fill="#FFFFFE"/>
</g>
<defs>
<clipPath id="clip0_879_4080">
<rect width="26.8755" height="16" fill="white" transform="translate(0.897949)"/>
</clipPath>
</defs>
</svg>
