<svg width="20" height="16" viewBox="0 0 20 16" fill="none" xmlns="http://www.w3.org/2000/svg">
<g clip-path="url(#clip0_2_7608)">
<path d="M10.8043 14.5879C10.5973 14.5879 10.4292 14.7557 10.4292 14.9629C10.4292 15.1699 10.5973 15.3379 10.8043 15.3379C11.0114 15.3379 11.1792 15.1699 11.1792 14.9629C11.1792 14.7557 11.0114 14.5879 10.8043 14.5879ZM10.8043 15.2575C10.7656 15.2575 10.7273 15.2499 10.6916 15.2351C10.6558 15.2203 10.6233 15.1987 10.596 15.1713C10.5686 15.1439 10.5469 15.1115 10.5321 15.0757C10.5173 15.0399 10.5097 15.0016 10.5098 14.9629C10.5098 14.8002 10.6414 14.6686 10.8043 14.6686C10.9671 14.6686 11.0988 14.8002 11.0988 14.9629C11.0988 15.1257 10.9671 15.2575 10.8043 15.2575ZM10.9584 14.876C10.9584 14.8593 10.9551 14.8428 10.9487 14.8273C10.9423 14.8119 10.9329 14.7979 10.9211 14.7861C10.9093 14.7743 10.8953 14.765 10.8798 14.7586C10.8644 14.7522 10.8479 14.7489 10.8312 14.7489H10.6505V15.177H10.7308V15.0032H10.7884L10.8696 15.177H10.9584L10.8737 14.9957C10.8984 14.987 10.9199 14.9707 10.935 14.9493C10.9502 14.9279 10.9584 14.9023 10.9584 14.876ZM10.8312 14.9228H10.7308V14.8291H10.8312C10.857 14.8291 10.8781 14.8501 10.8781 14.876C10.8781 14.8884 10.8731 14.9003 10.8643 14.9091C10.8555 14.9179 10.8436 14.9228 10.8312 14.9228Z" fill="#010101"/>
<path d="M18.0151 6.24005L17.7552 6.70275L17.7981 6.97158C17.1103 8.31853 16.3603 9.5686 16.0916 10.0085C15.9875 9.77238 15.8502 9.63285 15.5845 9.49075C15.5845 9.49075 16.8049 7.27638 17.1349 5.5202C16.2118 5.97738 15.2449 6.42955 15.2449 6.42955L16.8988 3.75395C16.8988 3.75395 13.7185 4.44965 11.2025 4.70062C8.49029 0.7048 6.02421 0 6.02421 0C6.02421 0 7.73229 2.7969 8.04986 4.7525C4.59094 4.4278 1.77016 3.75395 1.77016 3.75395L4.78179 8.62538C3.01954 8.72998 0.0546875 8.82588 0.0546875 8.82588C0.810438 9.58152 3.24141 10.5395 6.45644 11.3338L7.03009 12.2622C5.13926 13.6875 3.99949 15.6498 3.99949 15.6498L4.19051 16C4.19051 16 5.12894 15.9439 6.28001 15.9029C6.28001 15.9029 6.59331 14.8914 7.88146 13.6395L9.33471 15.9904L11.1572 13.0426L11.3556 13.0195L11.4657 13.0857C11.4356 13.1158 11.4153 13.1739 11.372 13.243C11.5232 13.3458 11.5276 13.363 11.5348 13.546C11.5348 13.546 11.7361 13.6169 11.9848 13.5353L12.0541 13.4103L12.1388 13.4487C12.1494 13.5372 12.174 13.6337 12.174 13.6337C12.4058 13.7427 12.6021 13.5978 12.6021 13.5978C13.221 13.7251 13.6396 13.6525 13.7784 13.6189C14.3908 13.7874 14.7872 13.6734 14.9515 13.6021C15.233 13.7185 15.5247 13.794 16.333 13.794C16.7056 13.794 17.1027 13.771 17.1027 13.493C17.1027 13.1028 16.7296 11.67 16.3512 10.8772C16.3512 10.8772 16.629 11.0727 16.8783 11.1226L17.2244 10.8722C17.0672 10.6874 17.097 10.6334 17.1181 10.4903C16.9947 10.3857 16.8219 10.3614 16.8219 10.3614C17.1602 9.97305 17.867 9.06705 18.7118 7.4455C18.8895 7.4186 19.1171 7.31425 19.1444 7.03447C19.1745 6.72985 19.1925 6.5985 19.1925 6.30902C18.6577 6.06407 18.0151 6.24003 18.0151 6.24003V6.24005Z" fill="white"/>
<path d="M15.922 4.4408L14.3954 6.8794C14.5623 6.8019 14.7383 6.7216 14.9138 6.6416L16.5429 4.00635C16.5429 4.00635 13.7716 4.6117 11.249 4.86747C11.3091 4.96102 11.3678 5.05522 11.426 5.15072C13.1581 4.9679 14.9653 4.63235 15.922 4.4408Z" fill="#010101"/>
<path d="M16.1661 10.8853C15.9553 10.0086 15.9209 9.84852 15.4553 9.61302L15.3782 9.5142C16.2364 7.97737 16.8577 6.14342 16.8577 5.92395C16.8577 5.87075 16.8331 5.85497 16.8011 5.87157C15.4357 6.5638 13.9362 7.18135 13.6046 7.41302L13.5157 7.5359C12.7815 6.8817 12.1516 6.42167 11.9079 6.25025C10.3815 3.25527 8.03984 1.15007 6.53127 0.395996C6.53127 0.708746 8.02445 3.0074 8.25324 4.93895C5.55222 4.75485 2.12627 4.0065 2.12627 4.0065L5.07607 8.77837C2.65357 8.92682 0.52832 8.97697 0.52832 8.97697C0.52832 9.1454 3.23352 10.439 7.2275 11.3422C8.10087 11.5402 8.75149 11.5088 9.17687 11.5088C9.09845 11.4227 9.01911 11.3374 8.93887 11.2529C9.51787 11.606 10.0459 11.9579 10.5213 12.2742C10.402 12.2758 10.272 12.2764 10.1287 12.2764C9.1684 12.2764 8.44242 12.2263 7.98282 12.1917C7.86894 12.183 7.77084 12.1757 7.69047 12.17C7.64967 12.1675 7.61377 12.1655 7.58187 12.1637L7.13002 11.442C6.94782 11.4018 6.77362 11.3593 6.65342 11.3299L7.25717 12.3061C6.69324 12.7117 5.24517 13.941 4.19627 15.6544L4.28797 15.8235C4.28797 15.8235 5.3014 15.7606 6.1581 15.7364C6.1581 15.7364 6.54232 14.6404 7.91627 13.3723L9.33477 15.666L11.0555 12.8824C11.1669 12.8705 11.2793 12.8573 11.3947 12.8434C11.5138 12.9181 11.6288 12.9881 11.7383 13.0512C11.6795 13.0863 11.63 13.1314 11.592 13.1989C11.592 13.1989 11.691 13.2668 11.6975 13.4005C11.6975 13.4005 11.7825 13.4142 11.8714 13.3891C11.8714 13.3891 11.932 13.2971 11.9845 13.1861C12.0973 13.2437 12.2034 13.2937 12.3028 13.3335C12.3019 13.4295 12.3181 13.5006 12.3181 13.5006C12.3181 13.5006 12.4279 13.5341 12.5599 13.4165C13.3226 13.5903 13.7783 13.4429 13.7783 13.4429C14.5524 13.6721 14.946 13.4158 14.946 13.4158C15.2492 13.5477 15.5027 13.6238 16.333 13.6238C16.7836 13.6238 16.9324 13.569 16.9324 13.4931C16.9324 13.131 16.549 11.648 16.1661 10.8853V10.8853ZM9.33474 14.3348L8.52394 13.0496C8.83854 13.0439 9.43775 13.0252 10.1992 12.9639L9.33474 14.3348Z" fill="#010101"/>
<path d="M16.3896 10.6157L16.4171 10.7168C16.4171 10.7168 16.6655 10.8863 16.845 10.9364L16.9883 10.833C16.9883 10.833 16.9058 10.7275 16.9317 10.5729C16.7453 10.452 16.3896 10.6157 16.3896 10.6157ZM18.1274 6.38823L17.9332 6.73448L17.9755 6.99938C17.1038 8.71396 16.1333 10.2658 16.1333 10.2658L16.2532 10.5568L16.3951 10.4584L16.492 10.4669C16.492 10.4669 17.4212 9.57823 18.605 7.28371C18.605 7.28371 18.9475 7.29521 18.9756 7.01746C19.0033 6.73661 19.0226 6.54141 19.0226 6.42896C18.5962 6.27398 18.1274 6.38821 18.1274 6.38821V6.38823Z" fill="#010101"/>
<path d="M8.25518 13.0733C8.23203 13.0925 8.21098 13.1121 8.18828 13.1317L9.33491 14.9631L10.6085 12.9282C10.5718 12.932 10.5346 12.9352 10.4982 12.9382L9.33491 14.7981L8.25518 13.0733ZM15.7345 4.57064L14.2454 6.94974C14.2948 6.92657 14.3446 6.90369 14.3957 6.87954L15.9223 4.44092C14.9657 4.63249 13.1584 4.96804 11.4263 5.15087C11.4436 5.17937 11.4606 5.20817 11.4779 5.23677C13.1084 5.06104 14.7931 4.75482 15.7345 4.57064ZM7.69066 12.17L7.25128 11.4686C7.21111 11.4598 7.17046 11.4513 7.13021 11.442L7.58203 12.1637C7.61393 12.1655 7.64983 12.1675 7.69066 12.17ZM11.7562 13.3327C11.8737 13.1741 11.9534 13.0729 11.9723 13.0093C11.8686 13.0544 11.7358 13.0792 11.6634 13.1893C11.6634 13.1893 11.7163 13.2408 11.7562 13.3327ZM12.3603 13.4416C12.3603 13.4416 12.4387 13.4315 12.5073 13.3627C12.5073 13.3627 12.4345 13.2501 12.391 13.1453C12.3393 13.277 12.3603 13.4416 12.3603 13.4416H12.3603ZM11.998 10.6649C12.0607 11.1642 12.1806 11.3759 12.1806 11.3759C12.1806 11.3759 12.3688 11.5233 12.7272 11.6699C12.3653 11.0004 11.998 10.6649 11.998 10.6649ZM8.07788 12.8929L8.22206 12.8122C8.22206 12.8122 8.81413 12.9077 12.3622 12.5417C12.2777 12.4802 12.2358 12.4923 12.2358 12.3512C12.2358 12.3061 12.2435 12.2986 12.1661 12.2986C12.089 12.2986 12.0558 12.2781 11.9645 12.2781C11.8507 12.2781 11.681 12.3922 9.94248 12.3922C8.55921 12.3922 7.58996 12.276 7.52598 12.276C7.46281 12.276 7.33823 12.3945 6.96776 12.6925C6.96776 12.6925 7.69626 12.683 8.07788 12.893V12.8929ZM6.26938 15.1155C5.73628 15.0136 4.63536 15.1976 4.63536 15.1976L4.34033 15.623L6.06356 15.5421L6.26938 15.1155ZM18.1239 6.93824C17.5478 7.97289 16.921 9.34434 16.2354 10.1927L16.433 10.0688L16.4763 10.026L16.4406 10.1423L16.5243 10.1025L16.3983 10.3245L16.5157 10.2304C16.5157 10.2304 17.1022 9.57087 18.5853 6.89184C18.2554 6.84184 18.1239 6.93824 18.1239 6.93824ZM18.1845 6.53632L18.0643 6.72644C18.0643 6.72644 18.3547 6.67104 18.7411 6.70337L18.881 6.50629C18.4554 6.42599 18.1845 6.53629 18.1845 6.53629V6.53632Z" fill="#E57200"/>
<path d="M16.3548 10.2123C16.3548 10.2123 16.3 10.2568 16.2148 10.2805L16.2872 10.4337L16.3318 10.3992L16.314 10.3441L16.3885 10.2021L16.3548 10.2123ZM16.8692 10.61C16.7487 10.5472 16.5139 10.6401 16.5139 10.6401C16.5139 10.6401 16.7521 10.6959 16.8868 10.7572C16.8868 10.7572 16.8629 10.7023 16.8692 10.61Z" fill="#E57200"/>
<path d="M7.69062 12.1701C7.77097 12.1758 7.86907 12.1831 7.98294 12.1919L7.56577 11.5306C7.46864 11.5138 7.36119 11.4919 7.25124 11.4687L7.69062 12.1701ZM8.52404 13.0498C8.36644 13.0522 8.27984 13.0521 8.27984 13.0521C8.27109 13.0592 8.26352 13.0665 8.25514 13.0735L9.33489 14.7983L10.4982 12.9384C10.3959 12.948 10.2966 12.9569 10.1993 12.964L9.33487 14.335L8.52404 13.0498ZM15.3093 4.86173L13.8824 7.1248C13.9897 7.07115 14.1129 7.01218 14.2454 6.9499L15.7344 4.5708C14.7931 4.75498 13.1083 5.0612 11.4779 5.23693C11.5171 5.30141 11.5557 5.36631 11.5936 5.4316C12.9334 5.28398 14.3059 5.0506 15.3093 4.86173H15.3093ZM8.28357 5.41085C8.28357 5.30535 8.27877 5.1987 8.26924 5.09035C7.34114 5.18855 6.78799 5.40773 6.57549 5.50725C6.90117 5.41648 7.47899 5.38865 8.28357 5.41085ZM15.3364 9.68975C15.3364 9.68975 14.2075 8.1052 12.0366 6.50653C12.2211 6.88805 12.3928 7.28215 12.5472 7.68918C12.5692 7.74638 12.5659 7.79628 12.5171 7.79628C12.0417 7.79628 10.363 6.87303 8.71402 7.03845C9.57047 7.854 10.4219 8.99845 9.59632 8.58118C9.59632 8.58118 10.4584 9.11318 11.4708 10.1801C12.2251 10.1801 12.375 10.3074 12.4194 10.4128C12.5053 10.6164 12.6303 10.9781 13.1241 11.5605C13.3508 11.5605 13.3922 11.5457 13.4752 11.342C13.4752 11.342 13.537 11.602 13.4235 11.7927C14.4527 12.6059 16.4511 13.4251 16.7567 13.4251C16.8796 13.4251 16.6264 12.3067 16.0476 10.9618C15.8585 10.1099 15.7542 9.8711 15.3364 9.68975ZM5.95554 8.72125C5.95554 8.72125 6.24992 8.89445 6.73329 9.25925C6.61462 9.05385 6.30152 8.8303 5.95874 8.62225L5.20654 8.6774L5.26204 8.7672C5.49184 8.75253 5.72304 8.73693 5.95554 8.72123V8.72125ZM10.3855 10.0387C10.2663 10.6823 10.391 11.199 10.391 11.199C10.3706 10.9838 10.5402 10.2624 10.5402 10.2624L10.3855 10.0387V10.0387ZM10.0075 9.67125C9.88892 10.4098 10.056 10.999 10.056 10.999C10.0203 10.7276 10.1619 9.9284 10.1619 9.9284L10.0075 9.67125ZM9.63354 9.3371C9.51122 10.1265 9.70189 10.7568 9.70189 10.7568C9.66642 10.3977 9.78824 9.56093 9.78824 9.56093L9.63354 9.3371ZM8.78272 8.03453C8.78272 8.03453 7.33117 6.83335 5.52917 6.53085C5.46404 6.53085 5.33377 6.80475 5.33377 6.80475C5.33377 6.80475 5.52454 6.6327 5.58254 6.6327C7.12569 6.92975 8.78272 8.03453 8.78272 8.03453Z" fill="#00617F"/>
<path d="M12.9204 13.174C13.1306 13.0495 13.2846 12.931 13.2846 12.931C12.5914 12.9612 12.3302 12.8768 12.3302 12.8768C12.4542 12.7529 12.6092 12.6462 12.7073 12.5482C12.6326 12.5599 12.5559 12.5681 12.4809 12.5745C12.48 12.6082 12.4431 12.6465 12.3373 12.7107C12.1336 12.7435 11.9294 12.7736 11.7248 12.801C11.7818 12.8616 11.8425 12.9206 11.91 12.9766C11.9569 12.9612 12.007 12.9461 12.0605 12.9279C12.0605 12.9703 12.0492 13.0193 12.0329 13.0684C12.1209 13.1279 12.2147 13.1781 12.3131 13.2182C12.3239 13.1503 12.3443 13.0794 12.3855 13.0152C12.4206 13.025 12.4397 13.1277 12.4594 13.1558C12.5108 13.2311 12.5783 13.2433 12.5909 13.3053C12.8815 13.3722 13.2502 13.3907 13.7365 13.3296L13.8714 13.2202C13.16 13.233 12.9204 13.174 12.9204 13.174L12.9204 13.174ZM11.7682 12.1314C11.4573 12.2306 11.3238 12.1611 11.3238 12.1611C11.3847 12.1004 11.4241 11.9811 11.4241 11.9811C11.149 12.0579 11.0636 11.9815 11.0636 11.9815C11.1073 11.9551 11.1514 11.8496 11.1514 11.8496C10.7942 11.8496 10.5991 11.9084 10.5991 11.9084C10.8957 11.9457 11.0901 12.0759 11.2552 12.2443C11.4878 12.2278 11.6302 12.2069 11.7299 12.1907L11.7682 12.1314Z" fill="white"/>
<path d="M11.1662 11.9511C11.1662 11.9511 11.3169 11.9601 11.4914 11.8979C11.4914 11.8979 11.5007 12.0148 11.4216 12.1198C11.4216 12.1198 11.5693 12.1187 11.8728 12.0485C11.8728 12.0485 11.8466 12.1091 11.8099 12.1768C11.8648 12.1677 11.9062 12.1619 11.9497 12.1619C12.0473 12.1619 12.059 12.1824 12.1446 12.1824C12.3061 12.1824 12.3259 12.2159 12.3498 12.4039C12.3825 12.4518 12.4204 12.4842 12.4462 12.5122C12.5657 12.5029 12.7034 12.4899 12.8418 12.4703C12.8418 12.4703 12.6878 12.6842 12.4553 12.8417C12.4553 12.8417 13.1004 12.9025 13.4345 12.8606C13.4345 12.8606 13.2903 13.0367 13.0918 13.1379C13.0918 13.1379 13.5377 13.1664 14.0166 13.1582C14.0166 13.1582 13.9226 13.2621 13.829 13.3376C13.829 13.3376 14.4208 13.4711 14.8417 13.371C13.3215 12.7663 12.4848 11.8511 11.2124 11.8511C11.1935 11.9047 11.1662 11.9511 11.1662 11.9511ZM5.03287 14.6877L4.69092 15.1256C4.69092 15.1256 5.69634 14.9687 6.29929 15.0603L6.46669 14.7732C6.13794 14.6029 5.03289 14.6877 5.03289 14.6877H5.03287Z" fill="white"/>
<path d="M5.18942 14.4919L5.0835 14.6246C5.0835 14.6246 6.12142 14.5457 6.5001 14.7207L6.74637 14.35C6.41082 14.2957 5.18942 14.4919 5.18942 14.4919ZM5.36912 14.272L5.24832 14.4186C5.24832 14.4186 6.49147 14.2249 6.7855 14.2964L6.80732 14.2664C6.49957 14.165 5.36915 14.2719 5.36915 14.2719L5.36912 14.272ZM5.78792 13.7908L5.42537 14.2041C5.42537 14.2041 6.43312 14.0994 6.8468 14.2156L7.2648 13.7327C6.8403 13.6629 5.78792 13.7908 5.78792 13.7908ZM6.32857 13.2471L5.85092 13.7211C5.85092 13.7211 6.73212 13.6017 7.31332 13.678L7.5418 13.4257C7.32412 13.24 6.32857 13.2471 6.32857 13.2471Z" fill="white"/>
<path d="M6.41909 13.1645L6.39407 13.1871C6.39407 13.1871 7.25361 13.1739 7.58346 13.3799L7.63301 13.3277C7.36634 13.1762 6.41909 13.1645 6.41909 13.1645ZM6.89409 12.7539L6.48369 13.1064C6.48369 13.1064 7.44119 13.1239 7.67621 13.2819L8.02907 12.9339C7.71891 12.7578 6.89409 12.7539 6.89409 12.7539ZM6.34521 15.0991L6.35821 15.1859L6.49537 14.9451L6.48201 14.8619L6.34521 15.0991ZM6.52789 14.7856L6.54196 14.8688L6.77274 14.5317L6.75766 14.4365L6.52789 14.7856ZM6.80551 14.3688L6.82177 14.4682L6.84394 14.4397L6.82486 14.3422L6.80551 14.3688ZM6.87226 14.2795L6.89176 14.3807L7.28427 13.939L7.26779 13.8185L6.87226 14.2795ZM7.31866 13.7613L7.33587 13.8827L7.57311 13.6291L7.54311 13.5131L7.31866 13.7613ZM7.59034 13.4617L7.62064 13.5792L7.66679 13.5311L7.65039 13.3965L7.59034 13.4617ZM7.70199 13.342L7.71891 13.4781L8.03066 13.1723L8.02684 13.0139L7.70199 13.342Z" fill="white"/>
</g>
<defs>
<clipPath id="clip0_2_7608">
<rect width="19.1379" height="16" fill="white" transform="translate(0.0546875)"/>
</clipPath>
</defs>
</svg>
