<svg width="15" height="16" viewBox="0 0 15 16" fill="none" xmlns="http://www.w3.org/2000/svg">
<path d="M7.5708 4.77611H9.16261C9.7896 4.77611 10.3909 4.52704 10.8343 4.08369C11.2776 3.64034 11.5267 3.03903 11.5267 2.41204V0H9.93487" fill="#CEC4A5"/>
<path d="M4.33904 0H2.74689C2.11989 0 1.51858 0.249071 1.07523 0.692421C0.631884 1.13577 0.382813 1.73708 0.382812 2.36407L0.382813 4.77611H1.97496" fill="#41201F"/>
<path d="M5.979 4.77611H7.57116C8.19815 4.77611 8.79946 4.52704 9.24281 4.08369C9.68616 3.64034 9.93523 3.03903 9.93523 2.41204V0H8.34308" fill="#EE2937"/>
<path d="M5.93132 0H4.33917C3.71218 0 3.11087 0.249071 2.66752 0.692421C2.22417 1.13577 1.9751 1.73708 1.9751 2.36407V4.77611H3.56691" fill="#802729"/>
<path d="M3.56689 2.36407V4.77611H5.97893C6.60593 4.77611 7.20724 4.52704 7.65059 4.08369C8.09394 3.64034 8.34301 3.03903 8.34301 2.41204V2.48298e-08H5.93131C5.62083 -4.49728e-05 5.31338 0.0610704 5.02651 0.179856C4.73965 0.298642 4.479 0.472771 4.25944 0.6923C4.03988 0.911829 3.86571 1.17246 3.74688 1.4593C3.62805 1.74615 3.56689 2.05359 3.56689 2.36407Z" fill="#B22029"/>
<path d="M1.3787 8.35162C1.12972 8.35162 0.974118 8.20379 0.966337 7.97816H0.382812C0.398373 8.50723 0.841852 8.9118 1.36313 8.89624H1.37091C1.90776 8.89624 2.33568 8.46832 2.34346 7.93148C2.34346 7.49578 2.10227 7.21569 1.55764 7.02896C1.14529 6.88892 1.05192 6.81111 1.05192 6.61661C1.05192 6.60105 1.05192 6.58548 1.05192 6.56992C1.06748 6.41432 1.20753 6.29761 1.36313 6.31317H1.3787C1.54986 6.31317 1.68991 6.44544 1.68991 6.61661H2.26565C2.25787 6.14201 1.86108 5.76077 1.3787 5.76855C0.904095 5.76077 0.507298 6.14201 0.491737 6.61661C0.491737 6.84224 0.585101 7.06008 0.748488 7.22347C0.872973 7.34796 0.942996 7.37908 1.3787 7.54247C1.67435 7.65139 1.78327 7.76031 1.78327 7.98594C1.78327 8.21157 1.62767 8.35162 1.3787 8.35162Z" fill="#232221"/>
<path d="M3.97713 11.2537C3.96935 11.915 4.5062 12.4596 5.17531 12.4674C5.83663 12.4752 6.38126 11.9384 6.38904 11.2692C6.38904 11.2615 6.38904 11.2615 6.38904 11.2537C6.39682 10.5924 5.85997 10.0555 5.20643 10.0555C5.19865 10.0555 5.19865 10.0555 5.19087 10.0555C4.52176 10.0555 3.97713 10.5924 3.97713 11.2537ZM4.52176 11.2615C4.52176 10.8958 4.82519 10.6001 5.19087 10.6079C5.55654 10.6157 5.85219 10.9113 5.84441 11.277C5.85219 11.6427 5.56432 11.9384 5.20643 11.9461C5.19865 11.9461 5.19865 11.9461 5.19087 11.9461C4.82519 11.9461 4.52954 11.6583 4.52176 11.2926C4.52176 11.277 4.52176 11.2692 4.52176 11.2615Z" fill="#232221"/>
<path d="M1.93888 14.467C1.79883 14.358 1.73659 14.3347 1.3787 14.2258C0.927436 14.1013 0.78739 13.969 0.78739 13.6889V13.6811C0.78739 13.3933 1.0208 13.1676 1.30867 13.1676C1.61211 13.1676 1.82995 13.3777 1.8533 13.6967H2.17229C2.17229 13.6889 2.17229 13.6811 2.17229 13.6734C2.15673 13.2221 1.78327 12.872 1.33201 12.8798C0.849632 12.8798 0.483957 13.2221 0.483957 13.6811C0.476176 13.8834 0.55398 14.0779 0.701806 14.218C0.826291 14.3425 0.958557 14.4047 1.26977 14.4825C1.74437 14.5992 1.94666 14.7937 1.94666 15.1127C1.93888 15.4473 1.66657 15.7118 1.33201 15.7118C0.989678 15.7118 0.756268 15.4862 0.717367 15.1049H0.382812C0.406153 15.6418 0.779609 15.9997 1.31645 15.9997C1.81439 16.0075 2.22675 15.6184 2.23453 15.1205C2.23453 14.8715 2.12561 14.6303 1.93888 14.467Z" fill="#232221"/>
<path d="M5.40132 14.9494C5.40132 15.4162 5.12901 15.7196 4.71665 15.7196C4.28873 15.7196 4.03198 15.4317 4.03198 14.9494V13.7201H3.73633V14.9494C3.73633 15.2606 3.79079 15.4784 3.92306 15.6496C4.102 15.8752 4.3821 16.0075 4.67775 15.9997C5.02786 15.9997 5.27683 15.8674 5.41688 15.6029V15.9452H5.70475V13.7123H5.40132V14.9494Z" fill="#232221"/>
<path d="M7.95303 14.0702C7.74296 13.8056 7.42397 13.6578 7.08941 13.6656C6.44365 13.6656 5.92236 14.1869 5.92236 14.8249C5.92236 15.4706 6.44365 15.9919 7.08941 15.9997C7.47065 15.9997 7.71962 15.8752 7.98415 15.5406V15.9452H8.26424V12.9342H7.96081V14.0702H7.95303ZM7.08163 15.7118C6.59925 15.704 6.21024 15.3072 6.21802 14.8171C6.21802 14.3425 6.59925 13.9535 7.07385 13.9457C7.56401 13.9379 7.96081 14.3347 7.96859 14.8171C7.96081 15.315 7.57179 15.704 7.08163 15.7118Z" fill="#232221"/>
<path d="M8.55225 12.9342H8.8479V13.44H8.55225V12.9342Z" fill="#232221"/>
<path d="M8.55225 13.72H8.8479V15.953H8.55225V13.72Z" fill="#232221"/>
<path d="M10.2403 13.6656C9.59452 13.6656 9.07324 14.1869 9.07324 14.8326C9.07324 15.4784 9.59452 15.9997 10.2403 15.9997C10.8861 15.9997 11.4073 15.4784 11.4073 14.8326C11.4073 14.1869 10.8861 13.6656 10.2403 13.6656ZM11.1039 14.8171C11.1117 15.3228 10.7305 15.7118 10.2481 15.7118C9.77347 15.7118 9.38446 15.3228 9.38446 14.8482C9.36111 14.3736 9.73457 13.969 10.2092 13.9535C10.6838 13.9301 11.0883 14.3036 11.1039 14.7782V14.8171Z" fill="#232221"/>
<path d="M3.08259 10.5768L3.30044 12.3896H3.86062L3.40158 9.3786H2.81028L2.11783 11.4559L1.43316 9.3786H0.841852L0.382812 12.3974H0.942996L1.16085 10.5768C1.18419 10.4289 1.19197 10.2811 1.19975 10.1255L1.93888 12.3974H2.30455L3.04369 10.1333C3.05147 10.2811 3.06703 10.4367 3.08259 10.5768Z" fill="#232221"/>
<path d="M11.1897 11.9383C10.8318 11.9539 10.5283 11.666 10.5128 11.3081C10.5128 11.2926 10.5128 11.277 10.5128 11.2614C10.5128 10.8724 10.7851 10.5846 11.1585 10.5846C11.3375 10.5768 11.5164 10.6624 11.6254 10.8024L12.0144 10.4134C11.7888 10.18 11.4853 10.0555 11.1663 10.0633C10.505 10.0788 9.97594 10.6312 9.99928 11.3003C10.0148 11.9383 10.5361 12.4596 11.1741 12.4674C11.4931 12.4752 11.8043 12.3429 12.0222 12.1173L11.6331 11.7283C11.5164 11.8605 11.3531 11.9383 11.1897 11.9383Z" fill="#232221"/>
<path d="M9.10449 10.1333H9.64912V12.3896H9.10449V10.1333Z" fill="#232221"/>
<path d="M3.65035 8.91181C3.86819 8.91181 4.08604 8.84179 4.25721 8.70952C4.30389 8.6784 4.35058 8.64728 4.39726 8.61616V8.84957H4.94188V6.59327L4.44394 6.58549H4.39726V6.8189C4.21053 6.6244 3.95378 6.51547 3.68147 6.50769C3.04348 6.50769 2.55332 7.02119 2.55332 7.69808C2.54554 8.39831 3.01236 8.91181 3.65035 8.91181ZM3.75927 7.03675C4.11717 7.02897 4.41282 7.31684 4.4206 7.67474V7.71364C4.4206 8.11044 4.14051 8.39831 3.75927 8.39831C3.38581 8.39831 3.08238 8.09488 3.08238 7.72142C3.08238 7.34019 3.38581 7.03675 3.75927 7.03675Z" fill="#232221"/>
<path d="M10.0536 8.91181C10.2714 8.91181 10.4893 8.84179 10.6604 8.70952C10.7071 8.6784 10.7538 8.64728 10.8005 8.60838V8.84179H11.3451V6.58549H10.8472H10.8005V6.8189C10.6138 6.6244 10.357 6.51547 10.0847 6.50769C9.4467 6.50769 8.95654 7.02119 8.95654 7.69808C8.95654 8.39831 9.42336 8.91181 10.0536 8.91181ZM10.1703 7.03675C10.5282 7.02897 10.8238 7.31684 10.8316 7.67474V7.71364C10.8316 8.11044 10.5515 8.39831 10.1703 8.39831C9.79682 8.39831 9.49339 8.09488 9.49339 7.72142C9.49339 7.34019 9.79682 7.03675 10.1703 7.03675Z" fill="#232221"/>
<path d="M14.0063 10.1333H13.9597V10.3667C13.7729 10.1722 13.5162 10.0633 13.2439 10.0555C12.6059 10.0555 12.1157 10.569 12.1157 11.2459C12.1157 11.9461 12.5825 12.4596 13.2127 12.4596C13.4306 12.4596 13.6484 12.3896 13.8196 12.2573C13.8663 12.2262 13.913 12.1951 13.9519 12.1562V12.3896H14.4965V10.1333H14.0063ZM13.9986 11.2615C13.9986 11.6505 13.7185 11.9461 13.3372 11.9461C12.9638 11.9461 12.6603 11.6427 12.6603 11.2692C12.6603 10.8958 12.9638 10.5924 13.3372 10.5924C13.6951 10.5846 13.9908 10.8647 13.9986 11.2226V11.2615Z" fill="#232221"/>
<path d="M5.89134 7.7681C5.89134 7.47245 5.91468 7.34797 5.9847 7.23904C6.07028 7.11456 6.21033 7.03675 6.36594 7.03675C6.67715 7.03675 6.82498 7.26238 6.82498 7.7292V8.84179H7.3696V7.62028C7.3696 7.23126 7.31514 7.02119 7.17509 6.84224C7.00392 6.63218 6.74717 6.50769 6.47486 6.50769C6.25701 6.50769 6.05472 6.58549 5.89912 6.7411V6.58549H5.35449V8.84179H5.89912V7.7681H5.89134Z" fill="#232221"/>
<path d="M8.70016 12.3974V11.1759C8.69238 10.7869 8.63792 10.5846 8.49788 10.3978C8.32671 10.1878 8.06996 10.0633 7.79765 10.0633C7.5798 10.0633 7.37751 10.1411 7.2219 10.2967V10.1411H6.68506V12.3974H7.22968V11.3159C7.22968 11.0203 7.25302 10.8958 7.32305 10.7869C7.40863 10.6624 7.54868 10.5846 7.6965 10.5846C8.00772 10.5846 8.15554 10.8102 8.15554 11.277V12.3896H8.70016V12.3974Z" fill="#232221"/>
<path d="M8.67674 8.84177V8.34383C8.40443 8.35939 8.27216 8.25046 8.27216 7.95481V7.06785H8.70786V6.58547H8.27216V5.83078H7.72754V7.95481C7.72754 8.53834 8.05431 8.91179 8.67674 8.84177Z" fill="#232221"/>
<path d="M2.77905 12.942H2.4834V15.066C2.4834 15.6496 2.81017 16.023 3.4326 15.953V15.6807C3.16029 15.6963 2.77905 15.6262 2.77905 15.066V13.9846H3.45594V13.7123H2.77127V12.942H2.77905Z" fill="#232221"/>
<path d="M10.9717 13.4477V13.1754H11.0495V13.1443H10.855V13.1754H10.9406V13.4477H10.9717Z" fill="#232221"/>
<path d="M11.3455 13.4477H11.3766L11.3377 13.1443H11.3066L11.221 13.3699V13.3855L11.2132 13.3699L11.1276 13.1443H11.0965L11.0576 13.4477H11.0887L11.1121 13.2143C11.1121 13.2065 11.1121 13.1987 11.1121 13.1987C11.1121 13.2065 11.1121 13.2143 11.1199 13.2143L11.2054 13.4477H11.221L11.3066 13.2143L11.3144 13.1987V13.2143L11.3455 13.4477Z" fill="#232221"/>
<path d="M9.64912 9.63538V9.36307H9.3768C9.22898 9.36307 9.11227 9.47977 9.10449 9.63538V9.90769H9.3768C9.52463 9.89991 9.64912 9.78321 9.64912 9.63538Z" fill="#232221"/>
</svg>
