<svg width="23" height="16" viewBox="0 0 23 16" fill="none" xmlns="http://www.w3.org/2000/svg">
<g clip-path="url(#clip0_780_184)">
<path d="M19.2165 9.18765C18.4702 9.19182 17.8239 9.3711 17.2819 9.63794C17.0817 9.24185 16.8816 8.89579 16.8483 8.63729C16.8107 8.33709 16.7649 8.15364 16.8107 7.79507C16.8566 7.4365 17.0651 6.92784 17.0651 6.88614C17.0609 6.84862 17.0192 6.66517 16.5898 6.661C16.1603 6.65683 15.7892 6.74438 15.7475 6.85696C15.7058 6.96953 15.6225 7.22803 15.5683 7.49488C15.4932 7.8868 14.7094 9.27521 14.2632 10.0049C14.1173 9.72133 13.9922 9.47117 13.9672 9.27104C13.9297 8.97084 13.8838 8.78739 13.9297 8.42882C13.9756 8.07025 14.184 7.56159 14.184 7.51989C14.1799 7.48237 14.1382 7.29891 13.7087 7.29474C13.2793 7.29058 12.9082 7.37813 12.8665 7.49071C12.8248 7.60328 12.7789 7.87012 12.6872 8.12862C12.5997 8.38713 11.5573 10.7053 11.2863 11.3099C11.1487 11.6184 11.0278 11.8644 10.9402 12.0312C10.8527 12.198 10.9361 12.0437 10.9277 12.0604C10.8527 12.2021 10.811 12.2813 10.811 12.2813V12.2855C10.7526 12.3897 10.6901 12.4898 10.6609 12.4898C10.64 12.4898 10.5983 12.2105 10.6692 11.8269C10.8235 11.0222 11.1987 9.76719 11.1946 9.72133C11.1946 9.70048 11.2654 9.47951 10.9527 9.36693C10.6484 9.25436 10.54 9.44198 10.515 9.44198C10.4899 9.44198 10.4691 9.50869 10.4691 9.50869C10.4691 9.50869 10.8068 8.09527 9.82283 8.09527C9.20576 8.09527 8.35521 8.76654 7.9341 9.37944C7.66726 9.52537 7.10022 9.83391 6.49983 10.1633C6.27051 10.2884 6.03286 10.4218 5.80771 10.5427L5.76185 10.4927C4.5694 9.221 2.36379 8.32042 2.45552 6.61096C2.48887 5.98972 2.70568 4.35115 6.69162 2.36652C9.95626 0.740459 12.5705 1.18658 13.0249 2.1789C13.6712 3.59649 11.6282 6.23155 8.2343 6.61096C6.94178 6.75689 6.26217 6.25657 6.09123 6.06894C5.91194 5.87298 5.88693 5.86464 5.82022 5.90217C5.71181 5.96054 5.77852 6.13565 5.82022 6.23989C5.92028 6.50256 6.33722 6.96953 7.04602 7.20302C7.66726 7.40732 9.18492 7.51989 11.0195 6.8111C13.075 6.01474 14.6802 3.80496 14.209 1.95792C13.7296 0.0775255 10.6109 -0.539545 7.66309 0.506973C5.90777 1.13238 4.00653 2.10802 2.63897 3.38802C1.01291 4.90568 0.754404 6.23155 0.862809 6.78191C1.24222 8.74569 3.94816 10.0257 5.0322 10.9722C4.978 11.0013 4.92797 11.0305 4.8821 11.0555C4.34008 11.3224 2.27623 12.4023 1.75923 13.5447C1.17551 14.8372 1.85095 15.767 2.30125 15.892C3.69383 16.2798 5.11976 15.5835 5.8911 14.4369C6.65827 13.2903 6.56654 11.8019 6.21214 11.1222L6.19963 11.0972L6.62491 10.8471C6.90009 10.6845 7.1711 10.5344 7.40876 10.4051C7.27534 10.7678 7.17944 11.1973 7.12941 11.8227C7.07104 12.5565 7.37123 13.5071 7.76732 13.8824C7.94244 14.045 8.15091 14.0492 8.28016 14.0492C8.73879 14.0492 8.94726 13.6697 9.17658 13.2153C9.4601 12.6608 9.71026 12.0187 9.71026 12.0187C9.71026 12.0187 9.39756 13.7573 10.2523 13.7573C10.565 13.7573 10.8777 13.3529 11.0195 13.1444V13.1486C11.0195 13.1486 11.0278 13.1361 11.0445 13.1069C11.0778 13.0568 11.0945 13.0277 11.0945 13.0277V13.0193C11.2196 12.8025 11.4989 12.3064 11.9159 11.485C12.4537 10.426 12.9707 9.10009 12.9707 9.10009C12.9707 9.10009 13.0208 9.42531 13.175 9.95899C13.2668 10.2759 13.4669 10.6219 13.6212 10.9596C13.4961 11.1348 13.421 11.2348 13.421 11.2348L13.4252 11.239C13.3251 11.3724 13.2126 11.5142 13.0958 11.6559C12.6705 12.1646 12.1619 12.7441 12.0952 12.9109C12.0159 13.1069 12.0326 13.2528 12.1869 13.3696C12.2995 13.4529 12.4996 13.4696 12.7122 13.4529C13.0958 13.4279 13.3626 13.332 13.4961 13.2737C13.7045 13.1986 13.9422 13.086 14.1715 12.9193C14.5885 12.6107 14.8428 12.1729 14.8178 11.5892C14.8053 11.2682 14.701 10.9513 14.5718 10.6511C14.6093 10.5969 14.6468 10.5427 14.6843 10.4843C15.3431 9.5212 15.8518 8.46217 15.8518 8.46217C15.8518 8.46217 15.9018 8.78739 16.0561 9.32107C16.1353 9.59208 16.2937 9.88811 16.4355 10.18C15.8184 10.6845 15.4307 11.2682 15.2972 11.6518C15.0513 12.3606 15.243 12.6816 15.6058 12.7567C15.7684 12.79 16.0019 12.715 16.177 12.6399C16.3938 12.569 16.6565 12.4481 16.8983 12.2688C17.3152 11.9603 17.7155 11.5308 17.6946 10.9513C17.6821 10.6845 17.6113 10.4218 17.5154 10.1716C18.0407 9.95482 18.7203 9.82974 19.5834 9.93397C21.4388 10.1508 21.8057 11.3099 21.7348 11.7935C21.6639 12.2772 21.2762 12.544 21.1469 12.6274C21.0177 12.7066 20.976 12.7358 20.9885 12.7942C21.0051 12.8817 21.0635 12.8776 21.1761 12.8609C21.3304 12.8359 22.1517 12.4648 22.1851 11.5725C22.2351 10.426 21.1469 9.17514 19.2165 9.18765ZM4.90712 14.0116C4.29422 14.6829 3.43116 14.9372 3.06425 14.7204C2.66816 14.4911 2.82242 13.503 3.57708 12.79C4.03572 12.3564 4.63194 11.9561 5.02386 11.7101C5.11142 11.6559 5.24484 11.5767 5.40328 11.4808C5.42829 11.4641 5.44497 11.4558 5.44497 11.4558C5.47416 11.4391 5.50751 11.4183 5.54087 11.3974C5.82022 12.4148 5.55338 13.307 4.90712 14.0116ZM9.38922 10.9638C9.17658 11.485 8.72628 12.8234 8.45527 12.7483C8.22179 12.6858 8.08003 11.6726 8.40941 10.672C8.57619 10.1675 8.93058 9.56706 9.13905 9.33358C9.47677 8.95833 9.84368 8.83325 9.93541 8.98752C10.0438 9.18765 9.52264 10.6386 9.38922 10.9638ZM13.0875 12.7316C12.9957 12.7775 12.9124 12.8109 12.8748 12.7858C12.8456 12.7692 12.9124 12.7066 12.9124 12.7066C12.9124 12.7066 13.3752 12.2105 13.5586 11.9811C13.6628 11.8477 13.7879 11.6935 13.9213 11.5183V11.5684C13.9213 12.1688 13.346 12.569 13.0875 12.7316ZM15.9393 12.0812C15.8726 12.0312 15.881 11.8769 16.1061 11.3933C16.1937 11.2015 16.3938 10.8804 16.7399 10.5761C16.7816 10.7011 16.8066 10.8221 16.8024 10.9346C16.7982 11.6851 16.2645 11.9645 15.9393 12.0812Z" fill="#CF649A"/>
</g>
<defs>
<clipPath id="clip0_780_184">
<rect width="21.3454" height="16" fill="white" transform="translate(0.841309)"/>
</clipPath>
</defs>
</svg>
