<svg width="12" height="16" viewBox="0 0 12 16" fill="none" xmlns="http://www.w3.org/2000/svg">
<g clip-path="url(#clip0_795_2541)">
<path d="M1.16895 8C1.16895 3.69407 3.54889 0.203308 6.48481 0.203308C9.42081 0.203308 11.8007 3.69407 11.8007 8C11.8007 12.3059 9.42072 15.7967 6.48481 15.7967C3.54881 15.7967 1.16895 12.3059 1.16895 8Z" fill="white"/>
<path d="M6.48489 16C3.44323 16 0.96875 12.4113 0.96875 8C0.96875 3.58869 3.44329 0 6.48489 0C9.52654 0 12.001 3.58869 12.001 8C12.001 12.4113 9.52649 16 6.48489 16ZM6.48489 0.406621C3.6642 0.406621 1.36958 3.81297 1.36958 8C1.36958 12.187 3.66406 15.5934 6.48489 15.5934C9.30585 15.5934 11.6002 12.187 11.6002 8C11.6002 3.81297 9.30572 0.406621 6.48489 0.406621Z" fill="black"/>
<path d="M1.64062 7.98702C1.64062 3.94067 3.81373 0.660675 6.49442 0.660675C9.17511 0.660675 11.3482 3.94067 11.3482 7.98702C11.3482 12.0334 9.1753 15.3131 6.49442 15.3131C3.81354 15.3131 1.64062 12.0331 1.64062 7.98702Z" fill="black"/>
<path d="M6.49442 0.660797C3.81461 0.660797 1.64062 3.9408 1.64062 7.98714C1.64062 10.6634 2.59152 13.004 4.01111 14.2823L8.75318 1.50135C8.0785 0.96499 7.31009 0.660797 6.49442 0.660797Z" fill="white"/>
<path d="M6.49433 15.3776C3.78318 15.3776 1.57764 12.0618 1.57764 7.98702C1.57764 3.91227 3.78332 0.59668 6.49433 0.59668C9.20533 0.59668 11.4113 3.91199 11.4113 7.98702C11.4113 12.0621 9.20544 15.3776 6.49433 15.3776ZM6.49433 0.725507C3.8527 0.724796 1.70426 3.98206 1.70426 7.98675C1.70426 11.9914 3.85336 15.2485 6.49488 15.2485C9.1364 15.2485 11.2849 11.9909 11.2849 7.98675C11.2849 3.98261 9.13604 0.72468 6.49433 0.72468V0.725507Z" fill="black"/>
<path d="M6.85161 3.0742C7.04288 3.32682 7.12976 3.67436 7.0688 3.983C7.02624 4.20682 6.90171 4.39596 6.90836 4.64076C6.87928 4.84094 6.94444 5.0308 6.86492 5.21053C6.84828 5.23613 6.80905 5.27666 6.77735 5.24111C6.72988 5.21053 6.69223 5.12839 6.62707 5.12573C6.52355 5.20893 6.49553 5.338 6.46663 5.46493C6.40901 5.68111 6.50254 5.90156 6.4901 6.11949C6.48432 6.16536 6.47837 6.21105 6.45332 6.24838C6.44205 6.2608 6.42617 6.26786 6.40953 6.26786C6.3929 6.26786 6.37702 6.2608 6.36575 6.24838C6.29568 6.17976 6.29306 6.06954 6.20198 6.02118C6.15434 6.02972 6.11598 6.08056 6.10179 6.12625C6.04925 6.17052 6.04067 6.44713 6.03821 6.61461C6.03068 6.7979 6.09426 6.98101 6.06168 7.15737C6.02403 7.19043 5.97814 7.13959 5.9347 7.1371C5.9072 7.11932 5.87778 7.12679 5.85115 7.1403C5.68914 7.40074 5.65148 7.71274 5.56723 8.00518C5.49461 8.40259 5.45146 8.80496 5.43815 9.20891C5.41485 9.24446 5.36809 9.27077 5.32465 9.24962C5.14827 9.1266 5.11324 8.90705 5.09695 8.71025C5.08101 8.39825 5.1262 8.07861 5.11026 7.78777C5.10186 7.72857 5.10851 7.63257 5.0402 7.61479C5.03863 7.62333 5.02689 7.63257 5.02024 7.62511C4.91515 7.70475 4.87731 7.83453 4.81636 7.94723C4.56905 8.54419 4.34345 9.15131 4.12803 9.76163C4.11051 9.81247 4.10298 9.88287 4.04045 9.89745C3.93274 9.87114 3.92941 9.74634 3.91697 9.65319C3.82572 8.99434 4.09055 8.37123 4.25433 7.77426C4.24347 7.72502 4.26606 7.68093 4.22087 7.65213L4.14083 7.65888C3.6504 8.09728 3.26701 8.62385 2.85101 9.12413C2.82246 9.1419 2.79321 9.12075 2.77079 9.10368C2.71824 9.04181 2.74241 8.94777 2.75082 8.87257C2.93193 8.24181 3.34632 7.68465 3.76318 7.17674C3.81835 7.08429 3.93833 6.99611 3.86669 6.88518C3.81415 6.84873 3.74216 6.85371 3.68629 6.8674C3.36157 6.99647 3.05294 7.16676 2.73768 7.32447C2.70773 7.32945 2.70265 7.2939 2.69092 7.27701C2.70598 7.07932 2.85136 6.93265 2.96485 6.78848C3.32408 6.44697 3.76425 6.25265 4.17776 6.00857C4.61564 5.80163 5.04405 5.57692 5.45426 5.30633C5.51521 5.23433 5.57529 5.13353 5.53115 5.02829C5.43587 4.89442 5.2495 4.94687 5.10677 4.9266C4.7442 4.93087 4.3298 4.93851 4.03413 4.71629C3.98888 4.6741 3.96755 4.61164 3.97738 4.55007L3.99735 4.53656C4.4051 4.56962 4.83685 4.5314 5.22709 4.53318C5.33638 4.50864 5.4723 4.54918 5.56794 4.45851C5.57618 4.38135 5.49526 4.3746 5.45427 4.333C5.17104 4.2194 4.85877 4.17709 4.54876 4.12624C4.54122 4.11433 4.53212 4.09478 4.54543 4.08215C4.61391 4.00322 4.72829 4.03718 4.81936 4.01424C5.01203 4.00322 5.19208 4.08215 5.37407 4.06509C5.40512 4.04903 5.42984 4.02269 5.44413 3.99042C5.44455 3.94561 5.43421 3.90137 5.414 3.86153C5.21013 3.70313 4.94531 3.68091 4.69588 3.64464C4.49778 3.64713 4.28479 3.6946 4.06429 3.68197C3.91734 3.67593 3.7753 3.66153 3.63657 3.69549C3.53463 3.72766 3.50205 3.83771 3.49294 3.93282C3.48366 3.9778 3.55547 4.02171 3.49627 4.05495C3.37507 4.06597 3.25229 4.0354 3.1654 3.94988C3.08939 3.76411 3.0978 3.55132 3.13195 3.34952C3.1845 3.19432 3.37261 3.23752 3.4728 3.13246C3.53884 2.96961 3.74341 3.09175 3.82696 2.94935C3.90542 2.87041 3.97408 2.77548 4.08093 2.7289C4.60217 2.7593 5.12098 2.75432 5.63135 2.66775C6.08832 2.56855 6.58366 2.66188 6.85094 3.07486L6.85161 3.0742Z" fill="black"/>
<path d="M5.76551 3.18925C5.79388 3.23263 5.8107 3.30463 5.78898 3.35548C5.73468 3.47992 5.58686 3.46659 5.47828 3.48437C5.41557 3.45468 5.32274 3.44543 5.29104 3.36561C5.26599 3.32668 5.28106 3.27068 5.29104 3.22997C5.3336 3.14268 5.43396 3.0977 5.52171 3.09094C5.60929 3.09948 5.71875 3.09432 5.76551 3.18925Z" fill="white"/>
<path d="M3.8144 3.26401C3.80267 3.29957 3.75257 3.28357 3.72683 3.27752C3.70669 3.2505 3.63663 3.23432 3.67673 3.19272C3.69514 3.17754 3.7169 3.16711 3.74014 3.16232C3.7778 3.18863 3.80775 3.21388 3.8137 3.26401L3.8144 3.26401Z" fill="white"/>
<path d="M5.60528 3.21325C5.64539 3.25733 5.69478 3.2776 5.70214 3.3352C5.62875 3.34889 5.54783 3.40631 5.48162 3.34551C5.44992 3.31156 5.39737 3.27174 5.41156 3.22338C5.41314 3.20383 5.43153 3.19707 5.44834 3.19618C5.50147 3.19408 5.5546 3.20007 5.60598 3.21396L5.60528 3.21325Z" fill="#1D1D1B"/>
<path d="M3.6374 3.40964C3.7034 3.45141 3.78179 3.46822 3.85879 3.45711C3.89715 3.45889 3.91799 3.39524 3.95898 3.42333L4.01923 3.49782C3.82656 3.53516 3.57399 3.48182 3.43774 3.66067C3.4169 3.71827 3.35664 3.77249 3.36085 3.83702C3.34333 3.83453 3.32407 3.84805 3.31741 3.82351C3.2999 3.69711 3.26732 3.56396 3.29744 3.43008C3.35174 3.3435 3.4486 3.33497 3.53127 3.30457C3.56805 3.3275 3.58977 3.38937 3.63829 3.40963L3.6374 3.40964Z" fill="white"/>
<path fill-rule="evenodd" clip-rule="evenodd" d="M6.65798 3.95255C6.66376 4.14153 6.67042 4.38579 6.51086 4.50527V4.4978H6.51436C6.47495 4.43167 6.50105 4.35149 6.5042 4.26047C6.50262 4.13603 6.48091 4.02563 6.48423 3.90775C6.53678 3.86704 6.65133 3.8754 6.65798 3.95184L6.65798 3.95255Z" fill="white"/>
<path d="M6.2703 4.70207C6.30113 4.7851 6.3006 4.97638 6.3006 4.97638C6.30481 5.07221 6.28116 5.19292 6.23054 5.25479C6.1829 5.06919 6.18045 4.86651 6.10356 4.68163C6.09515 4.6402 6.14104 4.63505 6.1603 4.61727C6.18413 4.60972 6.20947 4.60855 6.23387 4.61389C6.26732 4.63416 6.24806 4.67754 6.27065 4.70278L6.2703 4.70207Z" fill="white"/>
<path d="M5.86601 5.28883C5.90209 5.34483 5.9112 5.39994 5.93292 5.46181C5.94465 5.60847 5.96129 5.76793 5.89281 5.89593C5.86443 5.87904 5.86689 5.82891 5.84937 5.801C5.80926 5.64669 5.77248 5.47372 5.7124 5.3194C5.75082 5.27498 5.81391 5.26243 5.86601 5.28883Z" fill="white"/>
<path d="M4.87732 6.15117C4.36361 6.34104 3.83972 6.55205 3.35352 6.79205C3.8336 6.31097 4.71793 5.98281 4.84036 5.95773C4.88625 6.01196 4.89064 6.08823 4.87732 6.15117Z" fill="white"/>
<path d="M5.6007 6.50512C5.52871 6.74938 5.38614 7.76735 5.34603 8.34084C5.27037 7.64092 5.23096 7.19668 5.40506 6.46564C5.47302 6.44893 5.5739 6.47863 5.6007 6.50512Z" fill="white"/>
<path d="M4.773 6.57077C4.37471 7.00029 3.72807 7.8033 3.21924 8.40545C3.51085 7.69629 4.26418 6.71389 4.61027 6.47852C4.68944 6.45932 4.74831 6.51282 4.773 6.57077Z" fill="white"/>
<path d="M5.08965 6.72939C4.73042 7.55251 4.467 8.14592 4.1582 9.09383C4.26242 8.06539 4.57856 7.20103 4.91591 6.65171C4.98177 6.62611 5.04867 6.6837 5.08965 6.72939Z" fill="white"/>
<path d="M10.0312 9.58676C9.59166 8.75162 8.63721 8.34138 7.74043 8.60218C6.84366 8.86296 6.24802 9.72392 6.31083 10.6686C6.37365 11.6134 7.07784 12.3853 8.00101 12.5214C8.92419 12.6575 9.81566 12.1209 10.1407 11.2334H10.4714C10.1366 12.307 9.09365 12.9844 7.99293 12.843C6.89221 12.7017 6.04827 11.7821 5.98739 10.6577C5.92651 9.53324 6.66609 8.52533 7.74493 8.26243C8.82377 7.99954 9.93356 8.55683 10.3823 9.58676H10.032H10.0312Z" fill="white"/>
<path d="M7.93653 9.6687H9.38853V9.94622H8.20748V10.7462H9.35402V11.039H8.20748V12.3051C8.13952 12.3051 7.9959 12.3064 7.93652 12.3064L7.93653 9.6687Z" fill="white"/>
<path d="M9.04575 9.38427C8.91159 9.09147 8.57039 8.88043 8.25513 8.88043C7.80586 8.88043 7.41019 9.20043 7.41019 9.67687C7.41019 10.2079 7.89309 10.3917 8.31554 10.548C8.62415 10.6568 8.9193 10.7791 8.9193 11.1674C8.92057 11.3558 8.84726 11.5369 8.71581 11.6701C8.58437 11.8032 8.40577 11.8772 8.22009 11.8755C7.81093 11.8755 7.56293 11.6099 7.44941 11.2355L7.1543 11.3307C7.28163 11.8413 7.70428 12.1613 8.22061 12.1613C8.77725 12.1613 9.22003 11.7597 9.22003 11.181C9.22003 10.0433 7.71093 10.4116 7.71093 9.65607C7.71093 9.38389 7.97926 9.16595 8.24075 9.16595C8.48211 9.16595 8.68335 9.30212 8.78373 9.5199L9.04523 9.3839L9.04575 9.38427Z" fill="white"/>
</g>
<defs>
<clipPath id="clip0_795_2541">
<rect width="11.0323" height="16" fill="white" transform="translate(0.96875)"/>
</clipPath>
</defs>
</svg>
