<svg width="37" height="16" viewBox="0 0 37 16" fill="none" xmlns="http://www.w3.org/2000/svg">
<g clip-path="url(#clip0_879_4087)">
<path d="M31.0971 13.1202C29.448 12.7907 27.2833 12.7033 26.3689 12.7033L4.6102 12.7081C3.25645 12.7081 1.85657 12.7081 1.13819 11.602C0.409421 10.4798 0.805392 9.37583 2.03439 7.16675C2.12612 7.00257 5.85268 0 5.85268 0C5.85268 0 6.23343 0.472482 6.61726 0.773474C6.99627 1.07032 7.38569 1.22862 8.42397 1.22862C10.2681 1.22862 22.165 1.20261 22.2863 1.20186C24.7012 1.20186 27.1404 1.45182 28.721 3.18428C29.5415 3.27179 32.1902 3.62171 34.3731 4.66496C35.6505 5.27464 36.4931 6.18598 36.8117 7.29897C36.9079 7.63539 36.9558 7.98914 36.9558 8.35579C36.9558 9.41224 36.5601 10.5822 35.7841 11.7981C34.1448 14.3679 32.6331 15.266 32.5654 15.3143C31.6338 15.9695 30.7316 16 30.7316 16C30.7316 16 31.5441 15.0765 31.8182 14.153C32.0927 13.2296 31.0971 13.1202 31.0971 13.1202Z" fill="#FFFFFE"/>
<path d="M34.1039 5.22814C36.5915 6.41726 37.0278 8.68914 35.2582 11.4631C33.6711 13.9492 32.0687 15.004 32.0687 15.004C32.0687 15.004 33.6127 12.9862 31.219 12.5074C29.4161 12.1477 27.1071 12.0791 26.3689 12.0791C25.5196 12.0791 17.9305 12.0964 16.9836 12.0964C16.0367 12.0964 15.7751 11.9673 15.5674 11.6815C15.36 11.3968 15.3239 11.0073 15.7123 10.4237C16.102 9.84041 16.6939 8.92666 16.6939 8.92666L14.1355 6.86931C16.2823 4.7283 17.997 4.0103 19.4938 4.0103C21.0115 4.0103 21.6805 4.2332 24.1788 5.28098C26.6774 6.32944 27.5031 5.21465 27.5031 5.21465C26.4541 5.66044 25.5172 5.28098 23.7542 4.50118C21.992 3.72039 20.9436 3.36415 19.3603 3.36415C17.776 3.36415 16.4379 3.80957 14.7615 5.04203C13.183 6.20228 13.0636 6.44078 10.6837 6.44078H3.12207L6.03407 0.991486C6.03407 0.991486 6.25185 1.85248 8.424 1.85248C10.2901 1.85248 22.2863 1.82609 22.2863 1.82609C24.6682 1.82609 27.0248 2.07846 28.4195 3.78213C28.4195 3.78213 31.6157 4.03902 34.1039 5.22814ZM29.7079 5.67499C28.5762 5.40423 29.5436 4.7494 29.5436 4.7494C27.9151 5.07821 27.3092 6.4058 27.1693 6.77727C27.1432 6.82763 27.1165 6.87934 27.089 6.93384C26.1879 8.74545 25.3764 8.64858 23.8379 8.64858H21.2031C19.0689 8.64858 18.075 9.70571 17.052 11.5062H18.2574C19.3589 9.86687 20.1905 9.42492 22.3692 9.30198C27.3481 9.30477 31.3172 10.7323 33.4146 11.8235C36.3979 6.81685 31.9706 5.98812 29.7078 5.67499H29.7079ZM20.4411 11.4867C20.9979 10.6455 22.13 10.3598 23.9554 10.4649C28.4601 10.7257 31.0502 11.6023 33.0625 12.3515C30.5813 10.9 26.1592 9.85353 23.0856 9.86325C21.5836 9.86778 20.2719 10.1303 19.5015 11.4866H20.4411V11.4867ZM25.2758 6.52C24.6887 7.33863 23.9155 7.61814 21.7225 7.46851C19.1707 7.29529 19.8294 6.22074 20.1264 5.69203L20.1177 5.69097C20.1989 5.54134 20.3379 5.28724 20.479 5.03132C18.524 4.91087 17.0959 6.41485 17.0959 6.41485C18.5535 7.85566 19.5254 8.00635 20.8441 8.00635H23.309C25.6011 8.00635 26.1547 6.9756 26.3649 6.51729C25.9692 6.56659 25.6132 6.56244 25.2759 6.52008L25.2758 6.52Z" fill="#002244"/>
<path d="M24.1633 6.27628C24.1167 6.25751 24.0685 6.23776 24.0202 6.21794C23.7954 6.4547 23.4078 6.59182 23.0323 6.54358C22.5379 6.48041 22.2531 6.12137 22.3934 5.74267C22.4135 5.68711 22.4431 5.63502 22.4781 5.58505C22.2249 5.48577 21.9703 5.39026 21.7222 5.3038C21.2144 6.12484 20.9166 6.66893 22.6789 6.81751C23.7766 6.9109 24.0743 6.72306 24.3049 6.32935C24.2576 6.31133 24.2118 6.29565 24.1632 6.2762" fill="#69BE28"/>
<path d="M15.313 9.39567C14.4039 10.9725 14.0434 11.3347 14.6819 12.0832H4.61048C3.12512 12.0832 2.15943 12.0273 1.66267 11.2618C1.17949 10.5185 1.27884 9.80951 2.5808 7.46994H11.1439C12.6182 7.46994 12.9971 7.55399 13.7971 8.17437C14.5971 8.7955 15.3131 9.39575 15.3131 9.39575" fill="#A5ACAF"/>
</g>
<defs>
<clipPath id="clip0_879_4087">
<rect width="36.1824" height="16" fill="white" transform="translate(0.773438)"/>
</clipPath>
</defs>
</svg>
