<svg width="13" height="16" viewBox="0 0 13 16" fill="none" xmlns="http://www.w3.org/2000/svg">
<g clip-path="url(#clip0_2_7627)">
<path d="M0.210449 13.0286C3.328 13.3012 5.30537 14.1803 6.2676 16C9.56267 15.466 12.6104 13.3527 12.6104 10.6286C12.6104 6.9993 8.2134 6.4288 8.09615 5.37143C9.9457 6.04175 11.9817 5.33617 12.9533 3.02857C10.08 2.81635 7.97687 1.76807 7.06762 0C3.5435 0.627425 0.724724 2.90792 0.724724 5.37143C0.724724 8.96968 5.34947 9.9223 5.8676 10.6857C3.3435 9.72862 1.16655 10.8194 0.210449 13.0286Z" fill="#001425"/>
<path d="M5.67923 5.1855C5.28474 4.7847 5.12041 4.47087 5.12041 4.05662C5.12041 3.58292 5.34891 3.35115 5.34891 3.08542C5.34891 2.8574 5.20566 2.67852 4.93116 2.62405C5.09408 2.4487 5.31484 2.34277 5.52031 2.34277C6.69641 2.34277 7.04369 4.94195 9.49751 4.84862C10.3721 4.76477 11.1984 4.33947 11.7178 3.59412C9.57494 3.31595 7.61869 2.40527 6.66289 0.857422C5.67126 1.03792 1.51321 2.47277 1.61839 5.47182C1.72801 8.5993 6.35281 9.46837 7.64651 10.8114C8.66656 11.8704 7.94816 12.9375 7.29059 13.3255C6.27481 10.6838 2.93679 10.4958 1.60791 12.4028C3.75079 12.681 5.70704 13.5916 6.66286 15.1395C9.02666 14.6435 10.167 12.5708 9.73291 11.0757C9.01463 8.60152 4.35066 8.16627 3.11356 5.84875C2.45246 4.54482 2.99606 3.15252 4.20469 2.34242C3.73041 2.95385 3.50339 3.6586 3.51361 4.31812C3.62078 4.43507 3.66661 4.70907 3.66754 4.71462C3.68314 4.81037 3.71126 5.01237 3.66124 5.13615C3.71404 5.27482 3.78183 5.40722 3.86281 5.53415C4.02463 5.57465 4.20651 5.78565 4.21031 5.78997C4.38831 5.99462 4.41604 6.12372 4.42051 6.17285C4.53046 6.2709 4.64848 6.36572 4.77326 6.45792C4.87736 6.4455 5.03581 6.49602 5.19744 6.59875C5.38326 6.72042 5.47586 6.84075 5.50209 6.9312C5.63345 7.00752 5.76606 7.08168 5.89986 7.15365C6.00384 7.12535 6.17471 7.15835 6.34668 7.24622C6.51881 7.3343 6.64581 7.45535 6.68294 7.55687C6.81921 7.62487 6.95649 7.69275 7.09404 7.76085C7.19796 7.73077 7.37054 7.7606 7.54399 7.84892C7.71366 7.93535 7.83771 8.05442 7.87731 8.15502C8.01706 8.22725 8.15595 8.30113 8.29396 8.37662C8.42163 8.35065 8.62521 8.42832 8.73603 8.49415C8.89973 8.59207 9.01233 8.719 9.04541 8.82185C9.18408 8.9119 9.31826 9.00445 9.44661 9.10012C9.55511 9.09507 9.71469 9.15717 9.86368 9.28407C10.0243 9.4239 10.1068 9.57772 10.1104 9.6848C10.2217 9.80362 10.3236 9.9273 10.4147 10.0564C10.5461 10.0893 10.6788 10.2414 10.7525 10.394C10.8548 10.6167 10.8413 10.7736 10.8113 10.8546C10.9888 11.4082 11.0366 12.1052 10.7513 12.907C10.7484 12.9154 10.7446 12.9252 10.7405 12.9356C11.3374 12.2858 11.741 11.4857 11.7074 10.5251C11.5977 7.39765 6.97294 6.52855 5.67921 5.1855H5.67923Z" fill="#96D8D8"/>
<path d="M7.45404 5.51358C6.92554 4.90568 6.58799 3.82828 6.00529 3.40723C5.74399 4.33495 6.28836 5.34988 7.45404 5.51358Z" fill="#C8102E"/>
<path d="M7.03556 14.2342C6.84499 14.7928 6.66289 15.1395 6.66289 15.1395C5.70706 13.5916 3.75081 12.681 1.60791 12.4028C3.82206 11.2927 6.11443 12.4606 7.03556 14.2342ZM11.7178 3.59415C9.50366 4.7042 7.21131 3.53632 6.29018 1.76275C6.48076 1.20412 6.66289 0.857422 6.66289 0.857422C5.72651 1.02792 1.51234 2.44757 1.61839 5.47182C1.72801 8.5993 6.35281 9.46837 7.64651 10.8114C8.66656 11.8704 7.94816 12.9375 7.29059 13.3255C7.21556 13.6657 7.12466 13.973 7.03556 14.2342C7.51731 14.1502 8.97773 13.3771 8.98733 11.8894C9.00058 9.83887 6.35034 9.29557 4.34156 8.0512C2.68809 7.02692 2.36713 6.0105 2.28331 5.3672C2.08616 3.8538 3.15413 2.4717 4.70666 1.8197C4.48396 2.00957 4.31124 2.1947 4.20466 2.34242C3.73041 2.95385 3.50339 3.6586 3.51361 4.31812C3.62078 4.43507 3.66661 4.7091 3.66754 4.71462C3.68314 4.81037 3.71126 5.01237 3.66124 5.13615C3.71404 5.27482 3.78183 5.40722 3.86281 5.53415C4.02463 5.57465 4.20651 5.78565 4.21031 5.78997C4.38831 5.99462 4.41604 6.12375 4.42051 6.17285C4.53046 6.2709 4.64848 6.36572 4.77326 6.45792C4.87736 6.4455 5.03581 6.49602 5.19744 6.59875C5.38326 6.7204 5.47586 6.84075 5.50209 6.9312C5.63345 7.00752 5.76606 7.08168 5.89986 7.15365C6.00384 7.12535 6.17471 7.15835 6.34668 7.24622C6.51881 7.3343 6.64581 7.45535 6.68294 7.55687C6.81921 7.62487 6.95649 7.69272 7.09404 7.76085C7.19796 7.73077 7.37054 7.76062 7.54399 7.84892C7.71366 7.93535 7.83771 8.05442 7.87731 8.15505C8.01781 8.2278 8.15696 8.30155 8.29396 8.37662C8.42163 8.35065 8.62521 8.42832 8.73603 8.49415C8.89973 8.59207 9.01233 8.719 9.04541 8.82185C9.18408 8.9119 9.31826 9.00445 9.44661 9.10012C9.55511 9.09507 9.71469 9.15717 9.86368 9.28407C10.0243 9.4239 10.1068 9.57772 10.1104 9.68482C10.2217 9.80362 10.3236 9.92727 10.4147 10.0564C10.5461 10.0893 10.6788 10.2414 10.7525 10.394C10.8548 10.6167 10.8413 10.7736 10.8113 10.8546C10.9888 11.4082 11.0366 12.1052 10.7513 12.907C11.5143 11.6141 11.4408 10.3305 10.5879 9.24525C8.80576 6.97762 4.32161 6.7067 4.33839 4.10755C4.34239 3.48922 4.60039 2.99735 4.93119 2.62407C5.09409 2.44872 5.31484 2.34277 5.52031 2.34277C6.69641 2.34277 7.04369 4.94197 9.49751 4.84865C10.3721 4.7648 11.1984 4.3395 11.7178 3.59415Z" fill="#639FB6"/>
<path d="M10.1969 15.3121V14.9746H10.0708V14.9038H10.4023V14.9746H10.2797V15.3121H10.1969ZM10.4517 15.3121V14.9038H10.5808L10.6551 15.185L10.7298 14.9038H10.859V15.3121H10.7802V14.9866L10.6919 15.3121H10.6172L10.5294 14.9866V15.3121H10.4517Z" fill="#001425"/>
</g>
<defs>
<clipPath id="clip0_2_7627">
<rect width="12.7428" height="16" fill="white" transform="translate(0.210449)"/>
</clipPath>
</defs>
</svg>
