<svg width="41" height="16" viewBox="0 0 41 16" fill="none" xmlns="http://www.w3.org/2000/svg">
<g clip-path="url(#clip0_839_2341)">
<g clip-path="url(#clip1_839_2341)">
<path d="M32.7201 1.48334C31.3021 1.48334 30.0998 2.33462 29.6152 3.50385L28.3742 7.21667L28.3688 1.67052H22.397C21.3175 1.67052 20.346 2.09359 19.6334 2.79103L19.636 1.67308H13.5196C12.3811 1.67308 11.3457 2.16052 10.6198 2.92718V1.66821L4.84828 1.67565C2.3611 1.67308 0.320072 3.6218 0.317508 6.20129C0.317508 7.39872 0.838021 8.47795 1.60469 9.28077H0.304688V14.5372H6.11494C7.74571 14.5372 9.36366 13.5469 9.92264 12.3649L9.94059 12.3164C10.5893 13.6318 11.9457 14.5395 13.5124 14.5395H19.6201L19.6226 13.401C20.3406 14.1036 21.3226 14.5344 22.407 14.5344L39.5788 14.5369L35.8275 3.48077C35.3224 2.30898 34.1406 1.48334 32.7201 1.48334Z" fill="white"/>
<path d="M32.7381 2.38846C31.6227 2.38846 30.6868 3.08077 30.4073 4.02436L27.4714 12.6682V6.3782L23.1227 6.38077V7.82948H26.0229V12.1756H22.3947C21.4947 12.1756 20.7665 11.4244 20.7716 10.5346V5.6423C20.7665 4.75 21.4973 4.01923 22.3973 4.01923L27.4714 4.02436V2.57051H22.3816C20.6816 2.57051 19.3022 3.95 19.3201 5.65V10.5423C19.3022 12.2423 20.6922 13.6218 22.3919 13.6218L27.1468 13.6244L27.1457 13.6269H28.6716L31.8204 4.32179C31.884 4.12996 32.0064 3.96304 32.1702 3.84474C32.3341 3.72645 32.5311 3.66279 32.7332 3.66282C33.1588 3.66282 33.505 3.92179 33.6332 4.30384L36.297 12.1756H32.0816V13.6269H38.3047L35.0696 4.02436C34.7875 3.08077 33.8516 2.38846 32.7388 2.38846H32.7381ZM4.8278 2.57051C2.82524 2.57051 1.2019 4.19359 1.2019 6.19641C1.2019 8.19923 2.82498 9.8241 4.83011 9.8241H6.09421C6.14113 9.8241 6.18614 9.84274 6.21932 9.87592C6.25249 9.9091 6.27113 9.9541 6.27113 10.001C6.27113 10.0479 6.25249 10.0929 6.21932 10.1261C6.18614 10.1593 6.14113 10.1779 6.09421 10.1779L1.2019 10.1831V11.6318H6.09934C6.99934 11.6318 7.73037 10.9013 7.73037 10.0013C7.73037 9.10128 6.99934 8.37051 6.09934 8.37051H4.82754C3.62755 8.37051 2.65319 7.39615 2.65319 6.19615C2.65319 4.99615 3.62755 4.02179 4.82754 4.02179H9.71729L9.71447 2.57051H4.8278ZM13.5073 2.57051C11.8073 2.57051 10.4301 3.95 10.4404 5.64743V10.5423C10.4404 12.2423 11.8199 13.6218 13.5199 13.6218L18.7152 13.6244L18.7122 12.1756L13.4842 12.1782C12.6355 12.1782 11.8919 11.4064 11.8919 10.7936L11.8893 5.64974C11.8893 4.74974 12.6199 4.01897 13.5199 4.01897L18.7122 4.02154V2.57051H13.5073ZM32.7329 4.21153C32.5432 4.21153 32.3816 4.3423 32.3355 4.51923L29.2611 13.6269H30.9737L32.075 10.3667L32.0788 11.6503H35.5481L33.1301 4.51923C33.084 4.3423 32.9252 4.21153 32.7329 4.21153ZM4.8278 4.56282C4.39535 4.56309 3.98069 4.73498 3.67488 5.04074C3.36907 5.34651 3.19712 5.76114 3.19678 6.19359C3.19678 7.09359 3.9278 7.82436 4.8278 7.82436H6.09934C7.29934 7.82436 8.2737 8.79871 8.2737 9.99871C8.2737 11.1987 7.29934 12.1731 6.09934 12.1731L1.2019 12.1754V13.6323L6.09934 13.6297C8.1019 13.6297 9.72754 12.0067 9.72754 10.0015C9.72754 7.99897 8.10447 6.37333 6.09934 6.37333L4.8278 6.37846C4.72524 6.37846 4.64319 6.29641 4.64319 6.19384C4.64319 6.09128 4.72524 6.00923 4.8278 6.00923L9.71472 6.01436L9.7178 4.56564L4.82806 4.56307L4.8278 4.56282ZM13.5196 4.56538C13.3771 4.56525 13.2361 4.59321 13.1044 4.64768C12.9728 4.70214 12.8532 4.78204 12.7525 4.88279C12.6518 4.98354 12.572 5.10316 12.5176 5.23481C12.4632 5.36646 12.4353 5.50755 12.4355 5.65H12.4329V7.82692H17.6378V6.37564H13.866C13.866 6.37564 13.8711 6.0141 14.2327 6.0141H18.715V4.56538H13.5196ZM22.3968 4.56538C21.7993 4.56538 21.3122 5.05 21.3122 5.65V10.5449H21.3147C21.3147 11.1423 21.7993 11.6295 22.3993 11.6295L25.4837 11.6346V8.37051H23.1247V9.81923H24.0324V10.1833L23.1247 10.1808C22.9247 10.1808 22.7632 10.0192 22.7632 9.81923L22.7606 6.37564C22.7606 6.37564 22.7481 6.01153 23.1199 6.0141H27.4737V4.56538H22.3968ZM12.4352 8.37051V10.5528C12.4352 11.1503 12.9224 11.632 13.5224 11.632H18.7116L18.7147 10.1808H14.2327C14.2327 10.1808 13.8711 10.1808 13.866 9.81923H17.6404V8.37051H12.4352ZM32.7352 8.41154L33.2763 10.0244H32.1904L32.7352 8.41154Z" fill="#00337E"/>
<path d="M38.3356 1.46027C37.251 1.46027 36.3689 2.34232 36.3689 3.42694C36.3689 3.95258 36.574 4.44745 36.9458 4.81924C37.3176 5.19104 37.8099 5.39617 38.3356 5.39617C38.8612 5.39617 39.3561 5.19104 39.7279 4.81924C40.0997 4.44745 40.3048 3.95258 40.3048 3.42694C40.3048 2.9013 40.0997 2.40642 39.7279 2.03463C39.545 1.85204 39.3278 1.70733 39.0889 1.60877C38.85 1.51021 38.594 1.45975 38.3356 1.46027ZM38.3356 1.73463C38.7868 1.73463 39.2125 1.91155 39.533 2.2295C39.6906 2.38644 39.8155 2.57309 39.9004 2.77863C39.9854 2.98418 40.0287 3.20453 40.0279 3.42694C40.0275 3.76155 39.9279 4.08854 39.7419 4.36665C39.5558 4.64476 39.2916 4.86154 38.9824 4.98963C38.6733 5.11773 38.3332 5.15139 38.005 5.08639C37.6767 5.02138 37.3751 4.86062 37.1381 4.62437C36.9806 4.46737 36.8558 4.28071 36.7708 4.07518C36.6859 3.86965 36.6425 3.64933 36.6433 3.42694C36.6433 2.97565 36.8202 2.55001 37.1381 2.2295C37.2951 2.07191 37.4817 1.94703 37.6873 1.86208C37.8928 1.77714 38.1132 1.73382 38.3356 1.73463ZM37.5458 2.33719V4.52181H37.8304V3.59104H38.3945L38.9868 4.51924H39.333L38.7202 3.57309C38.8253 3.55514 39.2356 3.48335 39.2356 2.97309C39.2356 2.77309 39.1689 2.59104 39.0074 2.47053C38.8381 2.33976 38.6586 2.33976 38.3561 2.33719H37.5458ZM37.8304 2.58078H38.3917C38.5584 2.58078 38.6994 2.57822 38.8148 2.67309C38.9404 2.77565 38.9456 2.92181 38.9456 2.97822C38.9456 3.13719 38.874 3.28335 38.674 3.33206C38.5868 3.35258 38.4997 3.35258 38.4074 3.35258H37.8304V2.58078Z" fill="white"/>
</g>
</g>
<defs>
<clipPath id="clip0_839_2341">
<rect width="40" height="16" fill="white" transform="translate(0.304688)"/>
</clipPath>
<clipPath id="clip1_839_2341">
<rect width="40" height="13.0795" fill="white" transform="translate(0.304688 1.46027)"/>
</clipPath>
</defs>
</svg>
