<svg width="70" height="64" viewBox="0 0 70 64" fill="none" xmlns="http://www.w3.org/2000/svg">
<g clip-path="url(#clip0_741_68)">
<path d="M31.6646 59.3035H15.7857L14.3743 47.5707L4.67049 40.6017C4.22941 38.5727 4.05298 36.4555 4.05298 34.3383C4.05298 17.048 18.0793 3.10986 35.2814 3.10986C52.5718 3.10986 66.5099 17.1362 66.5099 34.3383C66.5099 36.4555 66.3335 38.5727 65.8924 40.6017L56.2769 47.5707L54.7772 59.3035H38.8983L38.0161 60.0092C37.2222 60.6267 36.2518 60.8913 35.2814 60.8913C34.3111 60.8913 33.3407 60.5385 32.5467 60.0092L31.6646 59.3035Z" stroke="white" stroke-width="6.17512" stroke-miterlimit="40"/>
<path d="M31.6646 59.3035H15.7857L14.3743 47.5707L4.67049 40.6017C4.22941 38.5727 4.05298 36.4555 4.05298 34.3383C4.05298 17.048 18.0793 3.10986 35.2814 3.10986C52.5718 3.10986 66.5099 17.1362 66.5099 34.3383C66.5099 36.4555 66.3335 38.5727 65.8924 40.6017L56.2769 47.5707L54.7772 59.3035H38.8983L38.0161 60.0092C37.2222 60.6267 36.2518 60.8913 35.2814 60.8913C34.3111 60.8913 33.3407 60.5385 32.5467 60.0092L31.6646 59.3035Z" fill="#FBCE07"/>
<path fill-rule="evenodd" clip-rule="evenodd" d="M31.6646 59.3035H15.7857L14.3743 47.5707L4.67049 40.6017C4.22941 38.5727 4.05298 36.4555 4.05298 34.3383C4.05298 17.048 18.0793 3.10986 35.2814 3.10986C52.4836 3.10986 66.5099 17.1362 66.5099 34.3383C66.5099 36.4555 66.3335 38.5727 65.8924 40.6017L56.2769 47.5707L54.7772 59.3035H38.8983L38.0161 60.0092C37.2222 60.6267 36.2518 60.8913 35.2814 60.8913C34.3111 60.8913 33.3407 60.5385 32.5467 60.0092L31.6646 59.3035ZM32.1939 53.8341H20.6376L19.4908 44.4832L9.96345 37.6023C9.6988 36.5437 9.52237 35.3969 9.52237 34.2501C9.52237 32.3976 9.87523 30.545 10.6692 28.8689L27.5184 45.8946L11.1985 25.6932C11.816 23.0467 13.2274 20.7531 15.2564 18.9005L29.9003 44.2185L16.9325 16.6069C18.6086 14.4015 20.9905 12.7254 23.6369 11.9315L32.635 43.3364L26.107 10.6082C28.1359 9.46141 30.3413 8.93212 32.635 8.93212C33.076 8.93212 33.6053 8.93212 34.0464 9.02033L35.3697 42.9835L36.6929 9.02033C37.134 8.93212 37.6633 8.93212 38.1044 8.93212C40.398 8.93212 42.6034 9.54963 44.6323 10.6082L38.1044 43.3364L47.1024 11.8432C49.7489 12.6372 52.1307 14.3133 53.8068 16.5187L40.7508 44.2185L55.3947 18.9005C57.4237 20.6648 58.8351 23.0467 59.4526 25.6932L43.1327 45.8946L59.9819 28.8689C60.7759 30.545 61.1287 32.3976 61.1287 34.2501C61.1287 35.3969 60.9523 36.4555 60.6876 37.6023L51.1603 44.4832L50.0135 53.8341H38.5454L36.7811 55.0691C36.34 55.422 35.8107 55.5102 35.2814 55.5102C34.7521 55.5102 34.2229 55.3337 33.7818 55.0691L32.1939 53.8341Z" fill="#DD1D21"/>
</g>
<defs>
<clipPath id="clip0_741_68">
<rect width="68.8" height="64" fill="white" transform="translate(0.852783)"/>
</clipPath>
</defs>
</svg>
