<svg width="41" height="16" viewBox="0 0 41 16" fill="none" xmlns="http://www.w3.org/2000/svg">
<g clip-path="url(#clip0_765_697)">
<g clip-path="url(#clip1_765_697)">
<path d="M9.52462 4.44023C9.51662 4.38423 9.46862 4.35223 9.42862 4.35223C9.38862 4.35223 8.59662 4.33623 8.59662 4.33623C8.59662 4.33623 7.93262 3.69623 7.86862 3.62423C7.80462 3.56023 7.67662 3.57623 7.62862 3.59223C7.62862 3.59223 7.50062 3.63223 7.29262 3.69623C7.26062 3.58423 7.20462 3.44823 7.13262 3.30423C6.90062 2.85623 6.54862 2.61623 6.13262 2.61623C6.10062 2.61623 6.07662 2.61623 6.04462 2.62423C6.02862 2.60823 6.02062 2.59223 6.00462 2.58423C5.82062 2.39223 5.58862 2.29623 5.30862 2.30423C4.77262 2.32023 4.23662 2.71223 3.79662 3.40023C3.49262 3.88823 3.26062 4.49623 3.18862 4.96823C2.57262 5.16023 2.14062 5.29623 2.12462 5.29623C1.81262 5.39223 1.80462 5.40023 1.76462 5.69623C1.74862 5.92023 0.932617 12.2322 0.932617 12.2322L7.78062 13.4162L10.7486 12.6802C10.7406 12.6802 9.53262 4.49623 9.52462 4.44023ZM6.94862 3.80823C6.78862 3.85623 6.61262 3.91223 6.42062 3.97623C6.42062 3.70423 6.38062 3.32023 6.26062 3.00023C6.66862 3.06423 6.86862 3.52823 6.94862 3.80823ZM6.06062 4.08023C5.70062 4.19223 5.30862 4.31223 4.91662 4.43223C5.02862 4.00823 5.23662 3.59223 5.49262 3.31223C5.58862 3.20823 5.72462 3.09623 5.87662 3.03223C6.03662 3.34423 6.06862 3.78423 6.06062 4.08023ZM5.32462 2.66423C5.45262 2.66423 5.55662 2.68823 5.64462 2.75223C5.50062 2.82423 5.35662 2.93623 5.22862 3.08023C4.88462 3.44823 4.62062 4.01623 4.51662 4.56823C4.18862 4.67223 3.86862 4.76823 3.58062 4.85623C3.77262 3.98423 4.50062 2.68823 5.32462 2.66423Z" fill="#95BF47"/>
<path d="M9.42852 4.35223C9.38852 4.35223 8.59652 4.33623 8.59652 4.33623C8.59652 4.33623 7.93252 3.69623 7.86852 3.62423C7.84452 3.60023 7.81252 3.58423 7.78052 3.58423V13.4162L10.7485 12.6802C10.7485 12.6802 9.54052 4.49623 9.53252 4.44023C9.51652 4.38423 9.46852 4.35223 9.42852 4.35223Z" fill="#5E8E3E"/>
<path d="M6.13259 5.88024L5.78859 7.16824C5.78859 7.16824 5.40459 6.99224 4.94859 7.02424C4.27659 7.06424 4.27659 7.48824 4.27659 7.59224C4.31659 8.16824 5.82859 8.29624 5.91659 9.64824C5.98059 10.7122 5.35659 11.4402 4.44459 11.4962C3.35659 11.5522 2.75659 10.9122 2.75659 10.9122L2.98859 9.92824C2.98859 9.92824 3.59659 10.3842 4.07659 10.3522C4.38859 10.3362 4.50859 10.0722 4.49259 9.89624C4.44459 9.14424 3.21259 9.19224 3.13259 7.95224C3.06859 6.91224 3.74859 5.86424 5.25259 5.76824C5.83659 5.72824 6.13259 5.88024 6.13259 5.88024Z" fill="white"/>
<path d="M14.7646 8.62421C14.4206 8.44021 14.2446 8.28021 14.2446 8.06421C14.2446 7.79221 14.4926 7.61621 14.8766 7.61621C15.3246 7.61621 15.7246 7.80021 15.7246 7.80021L16.0366 6.84021C16.0366 6.84021 15.7486 6.61621 14.9006 6.61621C13.7166 6.61621 12.8926 7.29621 12.8926 8.24821C12.8926 8.79221 13.2766 9.20021 13.7886 9.49621C14.2046 9.72821 14.3486 9.89621 14.3486 10.1442C14.3486 10.4002 14.1406 10.6082 13.7566 10.6082C13.1886 10.6082 12.6446 10.3122 12.6446 10.3122L12.3086 11.2722C12.3086 11.2722 12.8046 11.6082 13.6446 11.6082C14.8606 11.6082 15.7406 11.0082 15.7406 9.92821C15.7326 9.34421 15.2926 8.92821 14.7646 8.62421Z" fill="black"/>
<path d="M19.6127 6.60022C19.0127 6.60022 18.5407 6.88822 18.1807 7.32022L18.1647 7.31222L18.6847 4.59222H17.3327L16.0127 11.5202H17.3647L17.8127 9.15222C17.9887 8.25622 18.4527 7.70422 18.8847 7.70422C19.1887 7.70422 19.3087 7.91222 19.3087 8.20822C19.3087 8.39222 19.2927 8.62422 19.2527 8.80822L18.7407 11.5202H20.0927L20.6207 8.72022C20.6767 8.42422 20.7167 8.07222 20.7167 7.83222C20.7247 7.06422 20.3247 6.60022 19.6127 6.60022Z" fill="black"/>
<path d="M23.7887 6.60022C22.1567 6.60022 21.0767 8.07222 21.0767 9.71222C21.0767 10.7602 21.7247 11.6082 22.9407 11.6082C24.5407 11.6082 25.6207 10.1762 25.6207 8.49622C25.6287 7.52822 25.0607 6.60022 23.7887 6.60022ZM23.1247 10.5762C22.6607 10.5762 22.4687 10.1842 22.4687 9.68822C22.4687 8.91222 22.8687 7.64822 23.6047 7.64822C24.0847 7.64822 24.2447 8.06422 24.2447 8.46422C24.2447 9.29622 23.8367 10.5762 23.1247 10.5762Z" fill="black"/>
<path d="M29.0926 6.60022C28.1806 6.60022 27.6606 7.40822 27.6606 7.40822H27.6446L27.7246 6.68022H26.5246C26.4686 7.16822 26.3566 7.92022 26.2526 8.48022L25.3086 13.4402H26.6606L27.0366 11.4322H27.0686C27.0686 11.4322 27.3486 11.6082 27.8606 11.6082C29.4526 11.6082 30.4926 9.97622 30.4926 8.32822C30.4926 7.41622 30.0846 6.60022 29.0926 6.60022ZM27.7966 10.5922C27.4446 10.5922 27.2366 10.3922 27.2366 10.3922L27.4606 9.12822C27.6206 8.28022 28.0606 7.72022 28.5326 7.72022C28.9486 7.72022 29.0766 8.10422 29.0766 8.46422C29.0766 9.34422 28.5566 10.5922 27.7966 10.5922Z" fill="black"/>
<path d="M32.4286 4.65622C31.9966 4.65622 31.6526 5.00022 31.6526 5.44022C31.6526 5.84022 31.9086 6.12022 32.2926 6.12022H32.3086C32.7326 6.12022 33.0926 5.83222 33.1006 5.33622C33.1006 4.94422 32.8366 4.65622 32.4286 4.65622Z" fill="black"/>
<path d="M30.5327 11.5122H31.8847L32.8047 6.71222H31.4447L30.5327 11.5122Z" fill="black"/>
<path d="M36.2527 6.70422H35.3087L35.3567 6.48022C35.4367 6.01622 35.7087 5.60822 36.1647 5.60822C36.4047 5.60822 36.5967 5.68022 36.5967 5.68022L36.8607 4.61622C36.8607 4.61622 36.6287 4.49622 36.1247 4.49622C35.6447 4.49622 35.1647 4.63222 34.7967 4.94422C34.3327 5.33622 34.1167 5.90422 34.0127 6.48022L33.9727 6.70422H33.3407L33.1407 7.72822H33.7727L33.0527 11.5202H34.4047L35.1247 7.72822H36.0607L36.2527 6.70422Z" fill="black"/>
<path d="M39.5166 6.71222C39.5166 6.71222 38.6686 8.84822 38.2926 10.0162H38.2766C38.2526 9.64022 37.9406 6.71222 37.9406 6.71222H36.5166L37.3326 11.1202C37.3486 11.2162 37.3406 11.2802 37.3006 11.3442C37.1406 11.6482 36.8766 11.9442 36.5646 12.1602C36.3086 12.3442 36.0206 12.4642 35.7966 12.5442L36.1726 13.6962C36.4446 13.6402 37.0206 13.4082 37.5006 12.9602C38.1166 12.3842 38.6926 11.4882 39.2766 10.2722L40.9326 6.71222H39.5166Z" fill="black"/>
</g>
</g>
<defs>
<clipPath id="clip0_765_697">
<rect width="40" height="16" fill="white" transform="translate(0.932617)"/>
</clipPath>
<clipPath id="clip1_765_697">
<rect width="40" height="11.3925" fill="white" transform="translate(0.932617 2.30377)"/>
</clipPath>
</defs>
</svg>
