<svg width="17" height="16" viewBox="0 0 17 16" fill="none" xmlns="http://www.w3.org/2000/svg">
<g clip-path="url(#clip0_832_255)">
<path d="M8.55295 0C8.968 0 9.37566 0.031607 9.77367 0.0925452L9.65923 0.83387C9.29854 0.778644 8.92909 0.75 8.55295 0.75C8.17683 0.75 7.8074 0.778641 7.44672 0.833862L7.33228 0.0925375C7.73027 0.0316043 8.13792 0 8.55295 0Z" fill="#3A76F0"/>
<path d="M10.4514 0.226624L10.2734 0.955378C11.0044 1.13327 11.6919 1.42198 12.3173 1.80268L12.7068 1.16158C12.0167 0.741493 11.258 0.422927 10.4514 0.226624Z" fill="#3A76F0"/>
<path d="M13.2808 1.5459L12.8376 2.15097C13.4353 2.58958 13.9633 3.11761 14.4019 3.71534L15.007 3.2721C14.523 2.61253 13.9404 2.02988 13.2808 1.5459Z" fill="#3A76F0"/>
<path d="M15.3913 3.84619L14.7502 4.23561C15.1309 4.86102 15.4196 5.5486 15.5975 6.27956L16.3263 6.10158C16.13 5.29501 15.8114 4.5363 15.3913 3.84619Z" fill="#3A76F0"/>
<path d="M16.4604 6.77933L15.719 6.89377C15.7743 7.25444 15.8029 7.62387 15.8029 7.99999C15.8029 8.37613 15.7743 8.74558 15.719 9.10627L16.4604 9.22071C16.5213 8.8227 16.5529 8.41504 16.5529 7.99999C16.5529 7.58496 16.5213 7.17732 16.4604 6.77933Z" fill="#3A76F0"/>
<path d="M14.7502 11.7645C15.1309 11.139 15.4196 10.4515 15.5975 9.72049L16.3263 9.89847C16.13 10.7051 15.8114 11.4638 15.3913 12.1539L14.7502 11.7645Z" fill="#3A76F0"/>
<path d="M14.402 12.2847L15.0071 12.7279C14.5231 13.3875 13.9405 13.9701 13.2809 14.4541L12.8376 13.849C13.4354 13.4104 13.9634 12.8824 14.402 12.2847Z" fill="#3A76F0"/>
<path d="M12.3174 14.1973L12.7068 14.8384C12.0167 15.2585 11.258 15.5771 10.4514 15.7734L10.2734 15.0446C11.0044 14.8667 11.692 14.578 12.3174 14.1973Z" fill="#3A76F0"/>
<path d="M9.65923 15.1661L9.77368 15.9075C9.37569 15.9684 8.96804 16 8.55301 16C8.13796 16 7.73029 15.9684 7.33228 15.9075L7.44669 15.1662C7.80723 15.2214 8.17667 15.25 8.55301 15.25C8.92913 15.25 9.29856 15.2214 9.65923 15.1661Z" fill="#3A76F0"/>
<path d="M6.83255 15.0448L6.65461 15.7734C6.04872 15.6259 5.46984 15.4095 4.92676 15.1328L4.16749 15.31L3.99707 14.5796L5.02311 14.3402L5.26719 14.4645C5.75906 14.7151 6.28342 14.9112 6.83255 15.0448Z" fill="#3A76F0"/>
<path d="M3.36392 14.7273L3.53434 15.4577L2.23289 15.7613C1.36681 15.9634 0.58952 15.1861 0.791605 14.3201L1.09528 13.0186L1.82566 13.189L1.52199 14.4905C1.4462 14.8153 1.73769 15.1067 2.06247 15.031L3.36392 14.7273Z" fill="#3A76F0"/>
<path d="M1.97335 12.556L1.24296 12.3856L1.42013 11.6263C1.14346 11.0832 0.927003 10.5043 0.779541 9.89843L1.50813 9.72049C1.64173 10.2696 1.83784 10.794 2.08841 11.2859L2.21276 11.53L1.97335 12.556Z" fill="#3A76F0"/>
<path d="M1.38674 9.10623L0.645515 9.22065C0.584582 8.82266 0.552979 8.41502 0.552979 7.99999C0.552979 7.58494 0.584585 7.17728 0.645523 6.77927L1.38685 6.89371C1.33162 7.25441 1.30298 7.62385 1.30298 7.99999C1.30298 8.3763 1.33159 8.74571 1.38674 9.10623Z" fill="#3A76F0"/>
<path d="M1.5083 6.2795L0.779541 6.10152C0.975843 5.29495 1.29441 4.53624 1.7145 3.84613L2.3556 4.23555C1.9749 4.86096 1.68619 5.54854 1.5083 6.2795Z" fill="#3A76F0"/>
<path d="M2.70395 3.7153L2.09888 3.27206C2.58286 2.61249 3.16551 2.02985 3.82508 1.54587L4.26832 2.15094C3.67059 2.58955 3.14256 3.11757 2.70395 3.7153Z" fill="#3A76F0"/>
<path d="M4.7886 1.80265L4.39917 1.16154C5.08928 0.741455 5.84799 0.422892 6.65457 0.226593L6.83255 0.955348C6.10159 1.13325 5.41401 1.42194 4.7886 1.80265Z" fill="#3A76F0"/>
<path d="M15.053 8C15.053 11.5899 12.1429 14.5 8.55298 14.5C7.41432 14.5 6.34405 14.2072 5.41333 13.6928C5.32372 13.6433 5.21916 13.627 5.11944 13.6502L2.2281 14.3249L2.90275 11.4335C2.92601 11.3338 2.90967 11.2292 2.86015 11.1396C2.34576 10.2089 2.05298 9.13865 2.05298 8C2.05298 4.41015 4.96313 1.5 8.55298 1.5C12.1429 1.5 15.053 4.41015 15.053 8Z" fill="#3A76F0"/>
</g>
<defs>
<clipPath id="clip0_832_255">
<rect width="16" height="16" fill="white" transform="translate(0.552979)"/>
</clipPath>
</defs>
</svg>
