<svg width="41" height="16" viewBox="0 0 41 16" fill="none" xmlns="http://www.w3.org/2000/svg">
<g clip-path="url(#clip0_832_298)">
<g clip-path="url(#clip1_832_298)">
<path d="M40.5529 4.48669V11.4854H39.1016V4.48669H40.5529Z" fill="black"/>
<path d="M35.2487 11.584C34.9168 11.584 34.6177 11.5261 34.3516 11.4103C34.0885 11.2913 33.8818 11.1159 33.7315 10.8842C33.5812 10.6525 33.5061 10.3644 33.5061 10.0199C33.5061 9.72556 33.5593 9.4813 33.6658 9.28715C33.7722 9.08988 33.9179 8.93018 34.1026 8.80805C34.2874 8.68592 34.4971 8.59354 34.7321 8.53092C34.9669 8.46829 35.2158 8.42445 35.4788 8.3994C35.7826 8.37122 36.0269 8.34304 36.2116 8.31485C36.3964 8.28667 36.531 8.2444 36.6156 8.18803C36.7033 8.12854 36.7471 8.04399 36.7471 7.93439V7.9109C36.7471 7.69484 36.6782 7.52731 36.5404 7.40831C36.4057 7.28932 36.2147 7.22982 35.9673 7.22982C35.7075 7.22982 35.4992 7.28775 35.3426 7.40361C35.1892 7.51634 35.0874 7.66039 35.0373 7.83575L33.6893 7.72772C33.7582 7.40831 33.8928 7.13275 34.0933 6.90102C34.2937 6.66616 34.552 6.48611 34.8683 6.36086C35.1877 6.23247 35.5571 6.16827 35.9768 6.16827C36.268 6.16827 36.5467 6.20272 36.8128 6.27161C37.0791 6.3405 37.3154 6.44697 37.5221 6.59101C37.7319 6.73193 37.8979 6.91511 38.02 7.14057C38.1422 7.36604 38.2032 7.63377 38.2032 7.94378V11.4854H36.8176V10.7526H36.7799C36.6954 10.9186 36.5827 11.0642 36.4418 11.1895C36.3008 11.3116 36.1318 11.4087 35.9345 11.4807C35.7372 11.5496 35.5086 11.584 35.2487 11.584ZM35.6668 10.5789C35.8797 10.5789 36.0676 10.5366 36.2304 10.4521C36.3964 10.3644 36.5247 10.2485 36.6156 10.1044C36.7095 9.95727 36.7565 9.7929 36.7565 9.61124V9.0523C36.7127 9.08048 36.65 9.1071 36.5686 9.13215C36.4903 9.1572 36.4026 9.17912 36.3056 9.19791C36.2085 9.2167 36.1114 9.23392 36.0143 9.24958C35.9173 9.26211 35.8296 9.27463 35.7513 9.28715C35.5791 9.3122 35.4288 9.35291 35.3004 9.40929C35.172 9.46248 35.0718 9.53609 34.9997 9.63006C34.9309 9.72089 34.8964 9.83514 34.8964 9.97295C34.8964 10.1702 34.9684 10.3205 35.1125 10.4238C35.2565 10.5272 35.4413 10.5789 35.6668 10.5789Z" fill="black"/>
<path d="M29.4655 8.45107V11.4854H28.0142V6.23403H29.4421V7.16876H29.4938C29.6128 6.85875 29.8022 6.6145 30.0621 6.43601C30.322 6.25751 30.6477 6.16827 31.0391 6.16827C31.4023 6.16827 31.7186 6.24812 31.9879 6.40783C32.2603 6.56753 32.4717 6.79455 32.6221 7.08891C32.7724 7.38326 32.8475 7.73554 32.8475 8.14575V11.4854H31.3961V8.4041C31.3961 8.08469 31.3131 7.83418 31.1471 7.65256C30.9811 7.4678 30.7526 7.37543 30.4613 7.37543C30.2672 7.37543 30.095 7.41927 29.9447 7.50695C29.7944 7.59149 29.6769 7.71362 29.5924 7.87332C29.5079 8.03302 29.4655 8.22561 29.4655 8.45107Z" fill="black"/>
<path d="M24.5466 13.5615C23.8389 13.5615 23.2846 13.4206 22.8838 13.1388C22.483 12.8601 22.2387 12.5125 22.151 12.096L23.4945 11.9175C23.5352 12.024 23.5993 12.1227 23.687 12.2134C23.7747 12.3043 23.8921 12.3763 24.0393 12.4295C24.1864 12.4859 24.3665 12.5141 24.5795 12.5141C24.8957 12.5141 25.1572 12.4373 25.3639 12.2839C25.5706 12.1336 25.6739 11.8784 25.6739 11.5183V10.5554H25.6128C25.5502 10.6994 25.4547 10.8372 25.3263 10.9687C25.1979 11.1003 25.0335 11.2067 24.8331 11.2881C24.6327 11.3696 24.3931 11.4103 24.1144 11.4103C23.7199 11.4103 23.3613 11.3194 23.0388 11.1378C22.7194 10.953 22.4626 10.6712 22.2685 10.2924C22.0774 9.91342 21.9819 9.43432 21.9819 8.85502C21.9819 8.25692 22.079 7.75903 22.2732 7.36134C22.4704 6.96365 22.7304 6.66616 23.0529 6.46889C23.3755 6.26848 23.7293 6.16827 24.1144 6.16827C24.4088 6.16827 24.6546 6.21837 24.8519 6.31858C25.0523 6.41565 25.2151 6.53777 25.3404 6.68496C25.4657 6.83213 25.5596 6.97774 25.6222 7.12179H25.6786V6.23403H27.1112V11.5418C27.1112 11.9865 27.0016 12.3591 26.7824 12.6597C26.5632 12.9603 26.261 13.1858 25.8759 13.3361C25.4907 13.4864 25.0476 13.5615 24.5466 13.5615ZM24.5748 10.3158C24.9255 10.3158 25.1964 10.1858 25.3874 9.92597C25.5815 9.66603 25.6786 9.30595 25.6786 8.84563C25.6786 8.53875 25.6348 8.27258 25.5471 8.04712C25.4625 7.81852 25.3389 7.6416 25.176 7.51634C25.0132 7.38795 24.8128 7.32376 24.5748 7.32376C24.3368 7.32376 24.1348 7.38952 23.9688 7.52104C23.806 7.64943 23.6823 7.82791 23.5978 8.05651C23.5132 8.2851 23.471 8.54814 23.471 8.84563C23.471 9.14624 23.5132 9.40769 23.5978 9.63006C23.6823 9.84922 23.806 10.0183 23.9688 10.1373C24.1348 10.2563 24.3368 10.3158 24.5748 10.3158Z" fill="black"/>
<path d="M19.8389 11.4854V6.23401H21.2903V11.4854H19.8389ZM20.5622 5.56233C20.3462 5.56233 20.1614 5.49031 20.0079 5.34626C19.8545 5.20222 19.7778 5.02842 19.7778 4.82488C19.7778 4.62133 19.8545 4.44911 20.0079 4.3082C20.1614 4.16415 20.3462 4.09213 20.5622 4.09213C20.7814 4.09213 20.9677 4.16415 21.1212 4.3082C21.2746 4.44911 21.3513 4.62133 21.3513 4.82488C21.3513 5.02842 21.2746 5.20222 21.1212 5.34626C20.9677 5.49031 20.7814 5.56233 20.5622 5.56233Z" fill="black"/>
<path d="M16.423 11.584C15.8594 11.584 15.3677 11.4979 14.9481 11.3257C14.5316 11.1535 14.206 10.8967 13.9711 10.5554C13.7394 10.2141 13.6173 9.79129 13.6047 9.28715H15.0327C15.0515 9.51887 15.1204 9.71461 15.2394 9.87431C15.3584 10.0309 15.5181 10.1483 15.7185 10.2265C15.9189 10.3048 16.149 10.344 16.4089 10.344C16.6595 10.344 16.8771 10.308 17.0618 10.236C17.2497 10.1639 17.3938 10.0637 17.4939 9.93538C17.5973 9.80384 17.649 9.65194 17.649 9.47977C17.649 9.32316 17.602 9.19164 17.508 9.08518C17.4173 8.9787 17.2826 8.8879 17.1041 8.81274C16.9288 8.73759 16.7143 8.67026 16.4606 8.61077L15.695 8.42288C15.1062 8.28197 14.6413 8.05807 14.2999 7.7512C13.9586 7.44119 13.7879 7.02784 13.7879 6.51116C13.7879 6.08841 13.9023 5.71891 14.1308 5.40264C14.3625 5.08323 14.6773 4.83585 15.0749 4.6605C15.4758 4.482 15.9314 4.39276 16.4418 4.39276C16.9617 4.39276 17.4141 4.482 17.7993 4.6605C18.1876 4.83898 18.4897 5.08636 18.7058 5.40264C18.9251 5.71891 19.0378 6.08372 19.044 6.49707H17.6208C17.5957 6.22463 17.4783 6.0117 17.2685 5.85826C17.0618 5.70482 16.7816 5.6281 16.4277 5.6281C16.1897 5.6281 15.9862 5.66255 15.8171 5.73144C15.6512 5.79719 15.5243 5.88957 15.4367 6.00856C15.349 6.12756 15.3051 6.26378 15.3051 6.41721C15.3051 6.58005 15.3552 6.71783 15.4554 6.83056C15.5557 6.94016 15.6887 7.03097 15.8547 7.10299C16.0238 7.17188 16.2085 7.22982 16.4089 7.27679L17.0337 7.43179C17.3374 7.50068 17.6177 7.59306 17.8744 7.70892C18.1312 7.82165 18.3535 7.961 18.5415 8.12696C18.7324 8.29293 18.8796 8.48864 18.983 8.7141C19.0863 8.93643 19.1379 9.19321 19.1379 9.48444C19.1379 9.91342 19.03 10.2861 18.8139 10.6023C18.6009 10.9155 18.2925 11.1582 17.8886 11.3304C17.4846 11.4995 16.9961 11.584 16.423 11.584Z" fill="black"/>
<path d="M6.12971 2.42337C6.41903 2.42337 6.70321 2.4454 6.98065 2.48788L6.90088 3.00464C6.64945 2.96615 6.39191 2.94618 6.12971 2.94618C5.86753 2.94618 5.61 2.96614 5.35858 3.00464L5.27881 2.48788C5.55624 2.4454 5.8404 2.42337 6.12971 2.42337Z" fill="#3A76F0"/>
<path d="M7.45292 2.58133L7.32886 3.08933C7.83842 3.21334 8.31766 3.41459 8.75361 3.67997L9.02512 3.23307C8.54407 2.94023 8.01519 2.71817 7.45292 2.58133Z" fill="#3A76F0"/>
<path d="M9.4254 3.50098L9.11646 3.92276C9.5331 4.2285 9.90116 4.59658 10.2069 5.01325L10.6287 4.70427C10.2913 4.2445 9.88519 3.83835 9.4254 3.50098Z" fill="#3A76F0"/>
<path d="M10.8966 5.10446L10.4497 5.37592C10.7151 5.81188 10.9163 6.29118 11.0403 6.80071L11.5484 6.67665C11.4115 6.1144 11.1894 5.58552 10.8966 5.10446Z" fill="#3A76F0"/>
<path d="M11.6418 7.14911L11.125 7.22888C11.1635 7.4803 11.1835 7.73782 11.1835 8.00001C11.1835 8.2622 11.1635 8.51974 11.125 8.77117L11.6418 8.85094C11.6843 8.5735 11.7063 8.28933 11.7063 8.00001C11.7063 7.7107 11.6843 7.42654 11.6418 7.14911Z" fill="#3A76F0"/>
<path d="M10.4497 10.6242C10.7151 10.1881 10.9163 9.70891 11.0403 9.19934L11.5484 9.32341C11.4115 9.88568 11.1894 10.4146 10.8966 10.8956L10.4497 10.6242Z" fill="#3A76F0"/>
<path d="M10.2067 10.9868L10.6285 11.2957C10.2911 11.7555 9.88502 12.1616 9.42523 12.499L9.11621 12.0772C9.53292 11.7715 9.90098 11.4034 10.2067 10.9868Z" fill="#3A76F0"/>
<path d="M8.75365 12.32L9.0251 12.7669C8.54404 13.0597 8.01517 13.2818 7.45292 13.4187L7.32886 12.9106C7.83839 12.7866 8.3177 12.5854 8.75365 12.32Z" fill="#3A76F0"/>
<path d="M6.90063 12.9953L6.98041 13.5121C6.70298 13.5546 6.41882 13.5766 6.12951 13.5766C5.84019 13.5766 5.55601 13.5546 5.27856 13.5121L5.35832 12.9954C5.60965 13.0339 5.86717 13.0538 6.12951 13.0538C6.3917 13.0538 6.64922 13.0339 6.90063 12.9953Z" fill="#3A76F0"/>
<path d="M4.93017 12.9108L4.80613 13.4187C4.38378 13.3159 3.98025 13.165 3.60168 12.9721L3.07241 13.0956L2.95361 12.5865L3.66884 12.4196L3.83899 12.5063C4.18186 12.681 4.54738 12.8176 4.93017 12.9108Z" fill="#3A76F0"/>
<path d="M2.51242 12.6895L2.63122 13.1986L1.724 13.4102C1.12028 13.5511 0.578443 13.0093 0.719313 12.4056L0.930997 11.4984L1.44013 11.6171L1.22845 12.5244C1.17562 12.7508 1.37881 12.9539 1.60521 12.9012L2.51242 12.6895Z" fill="#3A76F0"/>
<path d="M1.54311 11.1759L1.03398 11.0571L1.15748 10.5278C0.964619 10.1492 0.81373 9.74569 0.710938 9.32335L1.21882 9.19931C1.31195 9.58208 1.44865 9.94763 1.62332 10.2905L1.71 10.4607L1.54311 11.1759Z" fill="#3A76F0"/>
<path d="M1.13417 8.77115L0.617484 8.85091C0.575009 8.57348 0.552979 8.28933 0.552979 8.00002C0.552979 7.71069 0.575011 7.42652 0.617489 7.14908L1.13425 7.22885C1.09575 7.48029 1.07579 7.73782 1.07579 8.00002C1.07579 8.26233 1.09573 8.51984 1.13417 8.77115Z" fill="#3A76F0"/>
<path d="M1.21894 6.80068L0.710938 6.67662C0.847776 6.11437 1.06984 5.58549 1.36268 5.10443L1.80958 5.37589C1.5442 5.81185 1.34295 6.29115 1.21894 6.80068Z" fill="#3A76F0"/>
<path d="M2.0524 5.01324L1.63062 4.70427C1.96799 4.24449 2.37414 3.83835 2.83391 3.50098L3.14289 3.92276C2.72622 4.2285 2.35814 4.59658 2.0524 5.01324Z" fill="#3A76F0"/>
<path d="M3.50559 3.67996L3.23413 3.23306C3.71519 2.94023 4.24407 2.71817 4.80632 2.58133L4.93039 3.08933C4.42085 3.21334 3.94155 3.41458 3.50559 3.67996Z" fill="#3A76F0"/>
<path d="M10.6607 8.00001C10.6607 10.5025 8.63209 12.531 6.12965 12.531C5.33591 12.531 4.58985 12.3269 3.94106 11.9683C3.8786 11.9338 3.80571 11.9225 3.7362 11.9386L1.72071 12.409L2.19099 10.3934C2.2072 10.3239 2.19581 10.251 2.16129 10.1886C1.80272 9.53979 1.59863 8.79374 1.59863 8.00001C1.59863 5.4976 3.62724 3.46899 6.12965 3.46899C8.63209 3.46899 10.6607 5.4976 10.6607 8.00001Z" fill="#3A76F0"/>
</g>
</g>
<defs>
<clipPath id="clip0_832_298">
<rect width="40" height="16" fill="white" transform="translate(0.552979)"/>
</clipPath>
<clipPath id="clip1_832_298">
<rect width="40" height="11.1533" fill="white" transform="translate(0.552979 2.42337)"/>
</clipPath>
</defs>
</svg>
