<svg width="40" height="16" viewBox="0 0 40 16" fill="none" xmlns="http://www.w3.org/2000/svg">
<g clip-path="url(#clip0_9_1880)">
<g clip-path="url(#clip1_9_1880)">
<path d="M12.0768 6.42582C11.5715 6.42582 11.3187 6.59249 11.3186 6.92582C11.3164 6.99414 11.3327 7.06179 11.3658 7.12163C11.3988 7.18147 11.4474 7.23128 11.5064 7.26582C11.6316 7.34462 11.9249 7.45795 12.3864 7.60582C12.8479 7.75369 13.1713 7.92242 13.3568 8.11202C13.5424 8.29975 13.6351 8.58842 13.635 8.97802C13.635 9.47429 13.4843 9.84975 13.183 10.1044C12.8817 10.3591 12.4875 10.4866 12.0004 10.487C11.6388 10.487 11.196 10.4314 10.672 10.32L10.4216 10.2714L10.519 9.52722C11.1402 9.61095 11.6155 9.65275 11.9448 9.65262C12.4364 9.65262 12.6822 9.44855 12.6822 9.04042C12.6822 8.89242 12.6254 8.77602 12.5116 8.69262C12.3978 8.60922 12.1716 8.51882 11.8336 8.42142C11.2955 8.26849 10.9165 8.08655 10.6968 7.87562C10.4771 7.66469 10.3669 7.37135 10.3662 6.99562C10.3662 6.52282 10.5099 6.17049 10.7974 5.93862C11.0849 5.70675 11.479 5.59082 11.9798 5.59082C12.323 5.59082 12.7589 5.63749 13.2876 5.73082L13.5368 5.77862L13.4606 6.53742C12.807 6.46329 12.3457 6.42609 12.0768 6.42582Z" fill="#555555"/>
<path d="M15.2554 10.4038H14.3232V5.53564H15.2554V8.30344L15.61 8.24084L16.2986 6.92644H17.342L16.4378 8.57484L17.3908 10.4038H16.3404L15.6378 9.04764L15.2554 9.10984V10.4038Z" fill="#555555"/>
<path d="M18.7787 9.52424C18.8877 9.6193 19.0441 9.6669 19.2479 9.66704C19.6794 9.66704 20.0643 9.6531 20.4027 9.62524L20.5977 9.60524L20.6113 10.2936C20.078 10.4235 19.5957 10.4884 19.1645 10.4884C18.6405 10.4884 18.2605 10.3493 18.0245 10.071C17.7885 9.79277 17.6703 9.34077 17.6699 8.71504C17.6699 7.46784 18.1823 6.84424 19.2071 6.84424C20.2179 6.84424 20.7233 7.3681 20.7233 8.41584L20.6541 9.06264H18.6081C18.6128 9.27517 18.6697 9.42904 18.7787 9.52424ZM19.8045 8.35224C19.8045 8.07397 19.7605 7.88064 19.6723 7.77224C19.5842 7.66384 19.4301 7.60944 19.2099 7.60904C18.9894 7.60904 18.8341 7.66577 18.7439 7.77924C18.6538 7.8927 18.6062 8.0839 18.6011 8.35284L19.8045 8.35224Z" fill="#555555"/>
<path d="M23.3167 7.71996H22.4611V9.14576C22.4611 9.28476 22.4647 9.38356 22.4713 9.44156C22.478 9.49889 22.5052 9.55186 22.5479 9.59076C22.5919 9.63263 22.6602 9.65349 22.7529 9.65336L23.2815 9.63956L23.3233 10.3834C23.0125 10.4532 22.7765 10.4878 22.6137 10.4878C22.1965 10.4878 21.9113 10.3938 21.7583 10.2058C21.6052 10.0178 21.5287 9.67109 21.5287 9.16576V7.71876H21.1187V6.92656H21.5287V5.95996H22.4607V6.92656H23.3167V7.71996Z" fill="#555555"/>
<path d="M25.2229 6.84326C25.4643 6.84326 25.7728 6.88033 26.1483 6.95446L26.3357 6.99626L26.3079 7.73346C25.9417 7.69639 25.6705 7.67786 25.4941 7.67786C25.1741 7.67786 24.962 7.74626 24.8579 7.88306C24.7537 8.01986 24.7015 8.27833 24.7013 8.65846C24.7013 9.03873 24.7535 9.29959 24.8579 9.44106C24.9623 9.58253 25.1767 9.65326 25.5011 9.65326L26.3079 9.59766L26.3357 10.3415C25.8397 10.4391 25.4618 10.4877 25.2021 10.4875C24.6873 10.4875 24.3174 10.3427 24.0925 10.0531C23.8675 9.76346 23.755 9.2986 23.7549 8.65846C23.7549 8.01846 23.8708 7.556 24.1027 7.27106C24.3345 6.98613 24.7079 6.84353 25.2229 6.84326Z" fill="#555555"/>
<path d="M27.9566 10.4038H27.0244V5.53564H27.9566V7.09344C28.2766 6.92651 28.5641 6.84304 28.819 6.84304C29.2829 6.84304 29.6029 6.97984 29.779 7.25344C29.9551 7.52704 30.0431 7.94918 30.043 8.51984V10.4038H29.111V8.53984C29.111 8.24771 29.0763 8.03098 29.007 7.88964C28.9377 7.74831 28.7985 7.67758 28.5896 7.67744C28.4055 7.67794 28.2226 7.70605 28.0468 7.76084L27.9566 7.78864V10.4038Z" fill="#555555"/>
<path d="M31.9702 7.72004V10.404H31.0382V7.72004H30.6626V6.92664H31.0382V6.77404C31.0382 6.27324 31.1123 5.92784 31.2606 5.73784C31.4089 5.54784 31.6733 5.45277 32.054 5.45264C32.2211 5.45264 32.4367 5.47584 32.7008 5.52224L32.8466 5.54224L32.8326 6.30024C32.6286 6.29104 32.4571 6.28644 32.318 6.28644C32.1789 6.28644 32.0862 6.3235 32.0398 6.39764C31.993 6.47184 31.9702 6.59944 31.9702 6.78024V6.92624H32.8118V7.72004H31.9702Z" fill="#555555"/>
<path d="M36.0181 8.01186V9.45846C36.0273 9.57006 36.0459 9.64746 36.0737 9.69166C36.1015 9.73586 36.1595 9.76706 36.2477 9.78526L36.2197 10.4877C35.9833 10.4877 35.7943 10.4715 35.6527 10.4393C35.4994 10.4012 35.3544 10.3351 35.2251 10.2443C34.9075 10.4028 34.5577 10.486 34.2027 10.4877C33.4835 10.4877 33.1241 10.1077 33.1245 9.34766C33.1245 8.97713 33.2241 8.71406 33.4233 8.55846C33.6225 8.40286 33.9286 8.31126 34.3415 8.28366L35.0857 8.22806V8.01186C35.0857 7.86806 35.0529 7.76986 34.9883 7.71606C34.9237 7.66226 34.8187 7.63606 34.6753 7.63606L33.3677 7.69166L33.3399 7.04486C33.8359 6.91046 34.3076 6.84326 34.7551 6.84326C35.2026 6.84326 35.5248 6.936 35.7219 7.12146C35.9198 7.30733 36.0185 7.60413 36.0181 8.01186ZM34.4531 8.92986C34.1934 8.95306 34.0635 9.09213 34.0635 9.34706C34.0635 9.60199 34.1768 9.72953 34.4035 9.72966C34.5987 9.72698 34.7927 9.69895 34.9807 9.64626L35.0851 9.61846V8.87426L34.4531 8.92986Z" fill="#555555"/>
<path d="M38.5914 6.84304C39.0783 6.84304 39.4343 6.97638 39.6592 7.24304C39.8841 7.50971 39.9967 7.98618 39.9968 8.67244C39.9968 9.35831 39.8669 9.83231 39.6072 10.0944C39.3475 10.3566 38.9 10.4876 38.2648 10.4876C38.0648 10.4876 37.7007 10.4644 37.1724 10.418L36.9082 10.3902V5.53564H37.8402V7.03084C38.137 6.90564 38.3874 6.84304 38.5914 6.84304ZM38.2648 9.65304C38.5756 9.65304 38.7843 9.57764 38.8908 9.42684C38.9973 9.27604 39.0507 9.00591 39.0508 8.61644C39.0508 7.99058 38.856 7.67771 38.4664 7.67784C38.2879 7.67693 38.11 7.70035 37.9378 7.74744L37.8404 7.76844V9.62524C38.0536 9.64378 38.1951 9.65304 38.2648 9.65304Z" fill="#555555"/>
<path d="M4.13695 4.14551C2.00255 4.14551 0.272949 5.87571 0.272949 8.00931C0.272949 10.1429 2.00275 11.8731 4.13695 11.8731C6.27115 11.8731 8.00135 10.1431 8.00135 8.00931C8.00135 5.87551 6.27155 4.14551 4.13695 4.14551Z" fill="white"/>
<path d="M4.13707 3.86035C1.85067 3.86035 -0.00292969 5.71395 -0.00292969 8.00035C-0.00292969 10.2868 1.85067 12.1404 4.13707 12.1404C6.42347 12.1404 8.27707 10.2868 8.27707 8.00035C8.27707 5.71395 6.42447 3.86035 4.13707 3.86035ZM3.77707 10.464L1.99267 9.43375V7.35515L3.77707 8.32035V10.464ZM4.09507 7.83015L1.98307 6.71015L4.09507 5.49015L6.20727 6.71015L4.09507 7.83015ZM6.20907 9.43755L4.43087 10.4644V8.32755L6.20907 7.36755V9.43755Z" fill="#1CAAD9"/>
</g>
</g>
<defs>
<clipPath id="clip0_9_1880">
<rect width="40" height="16" fill="white" transform="translate(-0.00292969)"/>
</clipPath>
<clipPath id="clip1_9_1880">
<rect width="40" height="8.28" fill="white" transform="translate(-0.00292969 3.85986)"/>
</clipPath>
</defs>
</svg>
