<svg width="41" height="16" viewBox="0 0 41 16" fill="none" xmlns="http://www.w3.org/2000/svg">
<g clip-path="url(#clip0_781_638)">
<g clip-path="url(#clip1_781_638)">
<path d="M10.1841 9.24574L10.8771 8.88174C11.1853 9.49064 11.6609 9.78392 12.3041 9.78392C12.9338 9.78392 13.3604 9.58071 13.3604 9.11249C13.3604 8.66438 13.0388 8.45446 12.185 8.20286C11.1845 7.90883 10.3799 7.63639 10.3799 6.64934C10.3799 5.76799 11.1004 5.18738 12.15 5.18738C13.1713 5.18738 13.7735 5.69132 14.0884 6.29948L13.4519 6.74015C13.1437 6.22207 12.7031 5.98461 12.1433 5.98461C11.5694 5.98461 11.2404 6.19452 11.2404 6.57267C11.2404 7.05577 11.6111 7.21656 12.4574 7.46816C13.437 7.75474 14.2209 8.07706 14.2209 9.04922C14.2209 9.89558 13.5003 10.5603 12.2691 10.5603C11.2411 10.5611 10.5131 10.0296 10.1841 9.24574Z" fill="#363545"/>
<path d="M14.5859 10.4628V5.28564H15.4464V8.3711L16.8526 6.74761H17.7972L16.5868 8.10536L17.9022 10.4636H16.9992L16.0405 8.74254L15.4457 9.39313V10.4636H14.5859V10.4628Z" fill="#363545"/>
<path d="M17.8535 8.6093C17.8535 7.19572 18.854 6.67838 19.6237 6.67838C20.4566 6.67838 21.2538 7.17488 21.2538 8.68671V8.88993H18.714C18.749 9.56136 19.1621 9.85539 19.7078 9.85539C20.1909 9.85539 20.4708 9.6946 20.7506 9.42142L21.2055 9.86953C20.8206 10.2961 20.31 10.541 19.6452 10.541C18.714 10.5402 17.8535 9.973 17.8535 8.6093ZM20.4633 8.24529C20.4142 7.67882 20.1343 7.37735 19.617 7.37735C19.1971 7.37735 18.8123 7.61555 18.7282 8.24529H20.4633Z" fill="#363545"/>
<path d="M22.1844 9.49064V7.43318H21.5405V6.7476H22.1844V5.45312H23.0449V6.7476H24.0037V7.43318H23.0449V9.27328C23.0449 9.67227 23.164 9.83306 23.5905 9.83306C23.7163 9.83306 23.8771 9.81221 23.9612 9.78393V10.4628C23.8704 10.4836 23.5481 10.5119 23.3315 10.5119C22.3876 10.5119 22.1844 10.1621 22.1844 9.49064Z" fill="#363545"/>
<path d="M24.3394 8.6093C24.3394 7.18902 25.2981 6.67838 26.1236 6.67838C27.0474 6.67838 27.439 7.18902 27.663 7.76294L26.935 8.02198C26.7884 7.60215 26.5219 7.39894 26.1095 7.39894C25.6197 7.39894 25.2066 7.72051 25.2066 8.6093C25.2066 9.39983 25.5281 9.8338 26.0953 9.8338C26.4869 9.8338 26.7601 9.7147 26.9633 9.18991L27.6772 9.44896C27.4114 10.0437 26.9707 10.5402 26.0752 10.5402C25.214 10.5402 24.3394 9.9663 24.3394 8.6093Z" fill="#363545"/>
<path d="M28.1943 10.4628V5.28564H29.0623V7.25155C29.3005 6.99995 29.7479 6.67763 30.4193 6.67763C31.0699 6.67763 31.4897 7.06248 31.4897 7.79718V10.4628H30.6225V8.0138C30.6225 7.60141 30.4476 7.41234 30.0694 7.41234C29.6913 7.41234 29.3764 7.60811 29.0615 7.89544V10.4636H28.1943V10.4628Z" fill="#363545"/>
<path d="M32.1479 8.57357V5.28564H33.0226V8.4969C33.0226 9.28743 33.3658 9.75639 34.163 9.75639C34.9535 9.75639 35.2967 9.30157 35.2967 8.5036V5.28564H36.1572V8.56687C36.1572 9.74225 35.4924 10.5469 34.1563 10.5469C32.7286 10.5469 32.1479 9.74969 32.1479 8.57357Z" fill="#363545"/>
<path d="M36.7236 11.8622V6.74758H37.5841V7.23739C37.829 6.94336 38.2139 6.67761 38.767 6.67761C39.6133 6.67761 40.2364 7.31406 40.2364 8.60183C40.2364 9.88961 39.5999 10.5186 38.6479 10.5186C38.2489 10.5186 37.8573 10.3578 37.5841 10.0497V11.8615H36.7236V11.8622ZM39.3759 8.60928C39.3759 7.82545 39.0401 7.41306 38.4871 7.41306C38.1305 7.41306 37.7874 7.63712 37.5841 7.88202V9.37227C37.8149 9.673 38.1506 9.83378 38.4588 9.83378C39.1101 9.83304 39.3759 9.4348 39.3759 8.60928Z" fill="#363545"/>
<path d="M7.68079 5.71439L5.04494 4.19511C5.04494 4.19511 4.62734 3.95096 3.96112 3.95096C3.26736 3.95096 2.86539 4.20256 2.86539 4.20256L0.423828 5.59976L4.13828 7.73464V12.0491L6.58283 10.6534C6.58283 10.6534 7.01978 10.4122 7.35177 9.839C7.64431 9.33431 7.68079 8.846 7.68079 8.846V5.71439ZM3.7058 6.41709C3.7058 6.41709 4.25069 6.3166 4.71146 6.58234C5.17223 6.84808 5.44393 7.0044 5.44393 7.0044C5.44393 7.0044 5.44467 7.37436 5.44467 7.92744C5.44467 8.37034 5.0695 8.82962 5.0695 8.82962L5.07025 7.20464L3.7058 6.41709ZM5.86599 9.98118L5.07025 10.4375V10.0095L5.68957 9.65514C6.27912 9.2301 6.37663 8.60333 6.37663 8.38597L6.3744 6.46101L4.6854 5.48885C4.6854 5.48885 4.42859 5.32062 3.96708 5.32062C3.50556 5.32062 3.25396 5.47619 3.25396 5.47619L2.66069 5.81712L2.28627 5.6005L3.10583 5.13229C3.10583 5.13229 3.42666 4.95438 3.9641 4.95438C4.45762 4.95438 4.84172 5.14718 4.84172 5.14718L6.74882 6.24886L6.74659 8.3495C6.75999 8.67256 6.60963 9.4616 5.86599 9.98118Z" fill="#005F9E"/>
<path d="M0.236328 6.99695L2.84017 8.49092L2.83794 8.93606L1.35662 8.08672L0.424656 8.61672L2.83645 10.0065L2.83794 10.4352L0.254193 8.94871C0.260893 9.1229 0.418701 9.6596 0.720919 10.075C1.0276 10.4955 1.37746 10.6742 1.37746 10.6742L3.76543 12.0491V7.94901L0.238561 5.92355L0.236328 6.99695Z" fill="#005F9E"/>
</g>
</g>
<defs>
<clipPath id="clip0_781_638">
<rect width="40" height="16" fill="white" transform="translate(0.236328)"/>
</clipPath>
<clipPath id="clip1_781_638">
<rect width="40" height="8.09811" fill="white" transform="translate(0.236328 3.95096)"/>
</clipPath>
</defs>
</svg>
