<svg width="17" height="16" viewBox="0 0 17 16" fill="none" xmlns="http://www.w3.org/2000/svg">
<g clip-path="url(#clip0_813_490)">
<path d="M15.1671 11.8453C12.6515 10.6275 12.2505 8.74731 12.2327 8.60785C12.2111 8.43892 12.1866 8.3061 12.373 8.13427C12.5527 7.96825 13.35 7.47475 13.5712 7.32035C13.9369 7.06467 14.098 6.80941 13.9792 6.49563C13.8962 6.27855 13.6941 6.19679 13.4812 6.19679C13.414 6.19699 13.3471 6.20451 13.2815 6.2192C12.8798 6.30636 12.4896 6.50767 12.2638 6.56204C12.2367 6.56903 12.2088 6.5728 12.1808 6.57324C12.0604 6.57324 12.0148 6.5197 12.0264 6.37485C12.0546 5.93572 12.1144 5.07863 12.0451 4.27798C11.95 3.17642 11.5947 2.63063 11.1735 2.14792C10.9697 1.91382 10.0233 0.908142 8.1971 0.908142C6.37085 0.908142 5.42577 1.91382 5.22322 2.14501C4.80069 2.62772 4.44582 3.17352 4.3516 4.27508C4.28229 5.07572 4.34455 5.9324 4.37028 6.37194C4.37858 6.50974 4.33625 6.57034 4.21588 6.57034C4.18787 6.56986 4.16001 6.5661 4.13287 6.55913C3.90749 6.50476 3.51734 6.30346 3.11557 6.2163C3.05003 6.2016 2.98309 6.19409 2.91592 6.19388C2.70217 6.19388 2.50087 6.27689 2.41786 6.49272C2.29915 6.80651 2.45936 7.06177 2.82627 7.31744C3.0475 7.47184 3.84482 7.96493 4.02454 8.13137C4.21048 8.3032 4.18641 8.43602 4.16483 8.60495C4.14698 8.74648 3.74562 10.6267 1.23038 11.8424C1.08304 11.9138 0.832342 12.0649 1.27438 12.3089C1.96835 12.6924 2.43031 12.6513 2.78933 12.8825C3.09398 13.0788 2.91385 13.5022 3.13549 13.6549C3.40777 13.843 4.21256 13.6417 5.25227 13.9849C6.12389 14.2721 6.6535 15.0836 8.19917 15.0836C9.74484 15.0836 10.2898 14.2684 11.1461 13.9849C12.1837 13.6417 12.9902 13.843 13.2629 13.6549C13.4841 13.5022 13.3044 13.0788 13.609 12.8825C13.968 12.6513 14.4296 12.6924 15.124 12.3089C15.5652 12.0678 15.3145 11.9167 15.1671 11.8453Z" fill="white"/>
<path d="M16.2616 11.7021C16.1487 11.395 15.9337 11.2306 15.6889 11.0945C15.6428 11.0675 15.6005 11.0459 15.5643 11.0293C15.4913 10.9915 15.4166 10.955 15.3423 10.9164C14.579 10.5117 13.983 10.0012 13.5696 9.39604C13.4522 9.22568 13.3504 9.04509 13.2654 8.85647C13.2301 8.75561 13.2317 8.69833 13.2571 8.64604C13.2822 8.60574 13.3154 8.57111 13.3546 8.54435C13.4857 8.4576 13.6211 8.36961 13.7128 8.31025C13.8763 8.20442 14.0058 8.12057 14.0892 8.06122C14.4026 7.84207 14.6218 7.60922 14.7587 7.34898C14.8543 7.16919 14.91 6.97092 14.9221 6.76766C14.9342 6.5644 14.9024 6.36092 14.8289 6.17105C14.6213 5.62484 14.1054 5.28574 13.4804 5.28574C13.3485 5.28561 13.217 5.29953 13.0881 5.32725C13.0537 5.33472 13.0192 5.3426 12.9856 5.35132C12.9914 4.97777 12.9831 4.58347 12.9499 4.19539C12.832 2.8311 12.3543 2.11596 11.8562 1.54567C11.5373 1.1883 11.1616 0.885962 10.7443 0.650808C9.98848 0.21915 9.13139 0 8.1971 0C7.26281 0 6.40987 0.21915 5.65322 0.650808C5.23489 0.886033 4.85845 1.18898 4.53921 1.54733C4.04114 2.11762 3.56341 2.834 3.44554 4.19705C3.41233 4.58513 3.40403 4.9815 3.40943 5.35298C3.37581 5.34426 3.34177 5.33638 3.30732 5.32891C3.17843 5.30119 3.04694 5.28728 2.9151 5.2874C2.28961 5.2874 1.77286 5.6265 1.56616 6.17272C1.49228 6.36266 1.46016 6.56629 1.47197 6.76976C1.48379 6.97323 1.53927 7.17177 1.63465 7.35189C1.77203 7.61213 1.99118 7.84498 2.30455 8.06413C2.38756 8.12223 2.51747 8.20608 2.681 8.31316C2.76941 8.37044 2.89849 8.45428 3.02509 8.53812C3.06938 8.56676 3.10702 8.60454 3.13549 8.64894C3.16206 8.70331 3.16289 8.76184 3.12346 8.86975C3.03959 9.05441 2.93944 9.23123 2.8242 9.39812C2.41993 9.98957 1.84135 10.491 1.10255 10.8923C0.711148 11.0998 0.304393 11.2385 0.13256 11.7054C0.00306262 12.0578 0.087734 12.4587 0.416874 12.7966C0.537671 12.9227 0.677777 13.0288 0.83193 13.1108C1.15268 13.2871 1.49375 13.4235 1.84757 13.5171C1.92059 13.536 1.98991 13.567 2.05261 13.6089C2.17256 13.7139 2.15554 13.872 2.31534 14.1036C2.39556 14.2233 2.49748 14.3269 2.61584 14.4091C2.95121 14.6407 3.32808 14.6552 3.72736 14.6706C4.08805 14.6843 4.49688 14.7 4.96381 14.854C5.15723 14.9179 5.35812 15.0416 5.59096 15.1861C6.15004 15.5297 6.91541 16 8.19627 16C9.47713 16 10.2479 15.5273 10.8111 15.1823C11.0423 15.0404 11.242 14.9179 11.43 14.8557C11.8969 14.7013 12.3057 14.6859 12.6664 14.6722C13.0657 14.6569 13.4426 14.6424 13.7779 14.4107C13.9181 14.313 14.0349 14.1854 14.12 14.0372C14.2349 13.8417 14.232 13.7052 14.3399 13.6097C14.3988 13.5698 14.4639 13.5401 14.5325 13.5217C14.8912 13.4278 15.2369 13.2901 15.5619 13.1116C15.7256 13.0238 15.8731 12.9083 15.9977 12.7704L16.0018 12.7655C16.3106 12.4351 16.3882 12.0458 16.2616 11.7021ZM15.1231 12.3139C14.4288 12.6974 13.9672 12.6563 13.6082 12.8875C13.3031 13.0838 13.4837 13.5072 13.262 13.6599C12.9898 13.8479 12.185 13.6466 11.1452 13.9899C10.2877 14.2734 9.74069 15.0885 8.19835 15.0885C6.656 15.0885 6.12182 14.275 5.2502 13.9878C4.21256 13.6446 3.40611 13.8459 3.13342 13.6578C2.91219 13.5051 3.09191 13.0817 2.78726 12.8854C2.42782 12.6542 1.96628 12.6953 1.2723 12.3139C0.83027 12.0698 1.08096 11.9188 1.22831 11.8474C3.74355 10.6296 4.14491 8.74938 4.16276 8.60993C4.18434 8.441 4.20841 8.30818 4.02247 8.13635C3.84275 7.97032 3.04542 7.47682 2.8242 7.32242C2.45812 7.06675 2.29708 6.81149 2.41578 6.4977C2.4988 6.28063 2.70134 6.19886 2.91385 6.19886C2.98101 6.19907 3.04796 6.20658 3.11349 6.22128C3.51527 6.30844 3.90542 6.50974 4.1308 6.56411C4.15793 6.57108 4.18579 6.57484 4.21381 6.57532C4.33417 6.57532 4.37651 6.51472 4.36821 6.37692C4.34247 5.93738 4.28022 5.0807 4.34953 4.28006C4.44458 3.1785 4.79945 2.6327 5.22115 2.14999C5.4237 1.91797 6.37542 0.912294 8.19544 0.912294C10.0155 0.912294 10.9697 1.91382 11.1722 2.14501C11.5943 2.62772 11.9496 3.17352 12.0438 4.27508C12.1132 5.07572 12.0534 5.93281 12.0252 6.37194C12.0156 6.5168 12.0592 6.57034 12.1796 6.57034C12.2076 6.56989 12.2354 6.56613 12.2626 6.55913C12.4884 6.50476 12.8785 6.30346 13.2803 6.2163C13.3458 6.2016 13.4128 6.19409 13.4799 6.19388C13.6937 6.19388 13.895 6.27689 13.978 6.49272C14.0967 6.80651 13.9365 7.06177 13.57 7.31744C13.3488 7.47184 12.5515 7.96493 12.3717 8.13137C12.1854 8.3032 12.2099 8.43602 12.2314 8.60494C12.2493 8.74648 12.6502 10.6267 15.1659 11.8424C15.3145 11.9167 15.5652 12.0678 15.1231 12.3139Z" fill="black"/>
</g>
<defs>
<clipPath id="clip0_813_490">
<rect width="16.2451" height="16" fill="white" transform="translate(0.074646)"/>
</clipPath>
</defs>
</svg>
