<svg width="121" height="64" viewBox="0 0 121 64" fill="none" xmlns="http://www.w3.org/2000/svg">
<g clip-path="url(#clip0_736_180)">
<g clip-path="url(#clip1_736_180)">
<path d="M43.5056 42.5564C39.1544 42.5564 35.1224 41.2604 32.4344 38.8436C31.4732 37.9799 30.7073 36.9211 30.1879 35.7379C29.6685 34.5546 29.4075 33.2741 29.4224 31.982C29.4194 30.6952 29.6859 29.422 30.2046 28.2444C30.7234 27.0667 31.4829 26.0108 32.4344 25.1444C34.9304 22.8764 39.3464 21.4364 43.5056 21.4364C48.1064 21.4364 51.7904 22.5956 54.6056 25.1492C55.5533 26.0153 56.3078 27.0714 56.8198 28.2488C57.3317 29.4261 57.5897 30.6982 57.5768 31.982C57.5704 33.2671 57.3038 34.5375 56.7932 35.7168C56.2825 36.896 55.5384 37.9597 54.6056 38.8436C51.9824 41.2748 47.864 42.5564 43.5056 42.5564V39.7772C45.812 39.7772 47.9528 38.9804 49.448 37.4924C50.9432 36.0044 51.6224 34.1996 51.6224 31.9724C51.6224 29.846 50.876 27.8588 49.448 26.4524C47.972 25.0004 45.7808 24.182 43.5056 24.182C41.2304 24.182 39.0296 24.9932 37.5536 26.4524C36.1304 27.8612 35.3936 29.8556 35.3936 31.9724C35.3723 32.9894 35.5521 34.0006 35.9228 34.9479C36.2935 35.8953 36.8477 36.76 37.5536 37.4924C39.0296 38.9636 41.216 39.7772 43.5056 39.7772V42.5564ZM11.7344 21.4364C9.40881 21.4364 6.76641 21.8732 4.53441 22.8764C2.45121 23.8076 0.754409 25.3028 0.754409 27.782C0.75128 29.0803 1.24504 30.3306 2.13441 31.2764C2.73681 31.8332 3.70881 32.7788 6.24801 33.3356C7.38321 33.5756 9.80961 33.962 12.2264 34.2164C14.6432 34.4708 16.9856 34.6964 17.9456 34.9532C18.7088 35.1476 19.9928 35.4116 19.9928 36.8516C19.9928 38.2916 18.6416 38.7236 18.4064 38.8172C18.1712 38.9108 16.5488 39.6548 13.6352 39.6548C11.7048 39.6012 9.79187 39.2723 7.95441 38.678C6.86721 38.2892 5.72721 37.778 4.66401 36.4796C4.23494 35.8682 3.9969 35.1432 3.98001 34.3964H1.34001V41.7884H4.27281V40.7876C4.27235 40.7134 4.29168 40.6404 4.32882 40.5761C4.36596 40.5118 4.41956 40.4586 4.4841 40.4219C4.54865 40.3852 4.6218 40.3664 4.69603 40.3674C4.77026 40.3684 4.84288 40.3892 4.90641 40.4276C6.28814 41.0288 7.72539 41.4935 9.19761 41.8148C10.7384 42.1364 11.7344 42.3692 13.6496 42.3692C15.6706 42.4076 17.6847 42.1232 19.616 41.5268C20.8985 41.1753 22.1018 40.5814 23.1608 39.7772C23.7565 39.3197 24.2379 38.7302 24.5673 38.0552C24.8967 37.3801 25.0651 36.6379 25.0592 35.8868C25.0692 34.4599 24.5185 33.0861 23.5256 32.0612C22.9735 31.5254 22.3339 31.0879 21.6344 30.7676C20.8824 30.4279 20.1018 30.1556 19.3016 29.954C17.78 29.582 14.3624 29.1164 12.728 28.9532C11.0144 28.7756 8.04081 28.5284 6.85281 28.1612C6.49281 28.0484 5.75841 27.7004 5.75841 26.8484C5.75841 26.2412 6.09441 25.7276 6.75681 25.3124C7.81041 24.6524 9.93681 24.242 12.1544 24.242C14.3009 24.2161 16.4298 24.6319 18.4088 25.4636C18.9405 25.6952 19.4405 25.9936 19.8968 26.3516C20.6406 26.9869 21.1557 27.8485 21.3632 28.8044H23.732V22.37H21.092V23.1164C21.092 23.3564 20.852 23.6732 20.372 23.4116C19.1816 22.7924 15.836 21.4532 11.7344 21.4364ZM69.692 22.6172L82.5944 34.2596L82.4624 26.4212C82.448 25.3916 82.2608 24.962 81.1472 24.962H78.7232V22.6172H89.7632V24.962H87.3944C86.2616 24.962 86.1944 25.3268 86.1752 26.4212L86.3744 41.3996H82.5944L67.7312 28.1372V37.5476C67.7432 38.5724 67.7912 39.0548 68.8448 39.0548H71.4848V41.3996H60.6632V39.0548H63.1976C64.1432 39.0548 64.1048 38.1524 64.1048 37.4948V26.51C64.1048 25.79 64.004 24.9644 62.5208 24.9644H60.4664V22.6172H69.692ZM102.358 39.05C102.577 39.05 102.795 39.0364 103.011 39.0092C103.124 38.9754 103.227 38.9176 103.315 38.8397C103.403 38.7618 103.473 38.6656 103.52 38.558C103.553 38.3912 103.57 38.2216 103.57 38.0516V34.3436C103.57 34.2188 103.57 34.2164 103.412 34.0196C103.254 33.8228 96.6536 26.3396 96.3536 26.0036C95.9792 25.5956 95.3216 24.9644 94.3208 24.9644H92.0288V22.6172H104.965V24.9596H103.405C103.045 24.9596 102.805 25.3028 103.112 25.6796C103.112 25.6796 107.466 30.8876 107.506 30.9428C107.547 30.998 107.583 31.01 107.638 30.9596C107.694 30.9092 112.1 25.7276 112.134 25.6796C112.186 25.6112 112.217 25.5294 112.224 25.4437C112.231 25.3581 112.213 25.2722 112.173 25.1964C112.132 25.1206 112.071 25.0579 111.996 25.016C111.921 24.974 111.835 24.9544 111.75 24.9596H110.149V22.6172H120.754V24.9644H118.386C117.526 24.9644 117.186 25.1228 116.53 25.8524L109.39 33.998C109.32 34.0988 109.29 34.2217 109.304 34.3436V38.0492C109.305 38.2193 109.323 38.3889 109.357 38.5556C109.403 38.6633 109.472 38.7596 109.56 38.8376C109.647 38.9156 109.751 38.9733 109.863 39.0068C110.078 39.0352 110.295 39.0488 110.511 39.0476H112.933V41.3948H100.064V39.0476L102.358 39.05Z" fill="black"/>
</g>
</g>
<defs>
<clipPath id="clip0_736_180">
<rect width="120" height="64" fill="white" transform="translate(0.754395)"/>
</clipPath>
<clipPath id="clip1_736_180">
<rect width="120" height="21.1272" fill="white" transform="translate(0.754395 21.4364)"/>
</clipPath>
</defs>
</svg>
