<svg width="41" height="16" viewBox="0 0 41 16" fill="none" xmlns="http://www.w3.org/2000/svg">
<g clip-path="url(#clip0_736_180)">
<g clip-path="url(#clip1_736_180)">
<path d="M14.939 11.5188C13.4886 11.5188 12.1446 11.0868 11.2486 10.2812C10.9282 9.9933 10.6729 9.64036 10.4998 9.24594C10.3266 8.85152 10.2396 8.42471 10.2446 7.99399C10.2436 7.56505 10.3324 7.14065 10.5053 6.74811C10.6783 6.35557 10.9314 6.00358 11.2486 5.71479C12.0806 4.95879 13.5526 4.47879 14.939 4.47879C16.4726 4.47879 17.7006 4.86519 18.639 5.71639C18.9549 6.00508 19.2064 6.35714 19.3771 6.74959C19.5477 7.14204 19.6337 7.56606 19.6294 7.99399C19.6273 8.42234 19.5384 8.84583 19.3682 9.23891C19.198 9.632 18.9499 9.98655 18.639 10.2812C17.7646 11.0916 16.3918 11.5188 14.939 11.5188V10.5924C15.7078 10.5924 16.4214 10.3268 16.9198 9.83079C17.4182 9.33479 17.6446 8.73319 17.6446 7.99079C17.6446 7.28199 17.3958 6.61959 16.9198 6.15079C16.4278 5.66679 15.6974 5.39399 14.939 5.39399C14.1806 5.39399 13.447 5.66439 12.955 6.15079C12.4806 6.62039 12.235 7.28519 12.235 7.99079C12.2279 8.3298 12.2878 8.66687 12.4114 8.98264C12.535 9.29841 12.7197 9.58665 12.955 9.83079C13.447 10.3212 14.1758 10.5924 14.939 10.5924V11.5188ZM4.3486 4.47879C3.5734 4.47879 2.6926 4.62439 1.9486 4.95879C1.2542 5.26919 0.688604 5.76759 0.688604 6.59399C0.68756 7.02675 0.852146 7.44351 1.1486 7.75879C1.3494 7.94439 1.6734 8.25959 2.5198 8.44519C2.8982 8.52519 3.707 8.65399 4.5126 8.73879C5.3182 8.82359 6.099 8.89879 6.419 8.98439C6.6734 9.04919 7.1014 9.13719 7.1014 9.61719C7.1014 10.0972 6.651 10.2412 6.5726 10.2724C6.4942 10.3036 5.9534 10.5516 4.9822 10.5516C4.33872 10.5337 3.70109 10.4241 3.0886 10.226C2.7262 10.0964 2.3462 9.92599 1.9918 9.49319C1.84878 9.28938 1.76943 9.04772 1.7638 8.79879H0.883804V11.2628H1.8614V10.9292C1.86125 10.9044 1.86769 10.8801 1.88007 10.8587C1.89245 10.8373 1.91032 10.8195 1.93183 10.8073C1.95335 10.7951 1.97773 10.7888 2.00248 10.7891C2.02722 10.7895 2.05143 10.7964 2.0726 10.8092C2.53318 11.0096 3.01226 11.1645 3.503 11.2716C4.0166 11.3788 4.3486 11.4564 4.987 11.4564C5.66065 11.4692 6.33203 11.3744 6.9758 11.1756C7.40329 11.0584 7.80439 10.8604 8.1574 10.5924C8.35596 10.4399 8.51645 10.2434 8.62624 10.0184C8.73604 9.79336 8.79217 9.54595 8.7902 9.29559C8.79354 8.81995 8.60997 8.36202 8.279 8.02039C8.09497 7.84179 7.88177 7.69595 7.6486 7.58919C7.39795 7.47594 7.13772 7.38518 6.871 7.31799C6.3638 7.19399 5.2246 7.03879 4.6798 6.98439C4.1086 6.92519 3.1174 6.84279 2.7214 6.72039C2.6014 6.68279 2.3566 6.56679 2.3566 6.28279C2.3566 6.08039 2.4686 5.90919 2.6894 5.77079C3.0406 5.55079 3.7494 5.41399 4.4886 5.41399C5.2041 5.40535 5.91374 5.54396 6.5734 5.82119C6.75063 5.8984 6.91731 5.99787 7.0694 6.11719C7.31734 6.32895 7.48904 6.61615 7.5582 6.93479H8.3478V4.78999H7.4678V5.03879C7.4678 5.11879 7.3878 5.22439 7.2278 5.13719C6.831 4.93079 5.7158 4.48439 4.3486 4.47879ZM23.6678 4.87239L27.9686 8.75319L27.9246 6.14039C27.9198 5.79719 27.8574 5.65399 27.4862 5.65399H26.6782V4.87239H30.3582V5.65399H29.5686C29.191 5.65399 29.1686 5.77559 29.1622 6.14039L29.2286 11.1332H27.9686L23.0142 6.71239V9.84919C23.0182 10.1908 23.0342 10.3516 23.3854 10.3516H24.2654V11.1332H20.6582V10.3516H21.503C21.8182 10.3516 21.8054 10.0508 21.8054 9.83159V6.16999C21.8054 5.92999 21.7718 5.65479 21.2774 5.65479H20.5926V4.87239H23.6678ZM34.5566 10.35C34.6293 10.35 34.702 10.3455 34.7742 10.3364C34.8117 10.3251 34.8463 10.3059 34.8756 10.2799C34.9049 10.2539 34.9281 10.2219 34.9438 10.186C34.9549 10.1304 34.9605 10.0739 34.9606 10.0172V8.78119C34.9606 8.73959 34.9606 8.73879 34.9078 8.67319C34.855 8.60759 32.655 6.11319 32.555 6.00119C32.4302 5.86519 32.211 5.65479 31.8774 5.65479H31.1134V4.87239H35.4254V5.65319H34.9054C34.7854 5.65319 34.7054 5.76759 34.8078 5.89319C34.8078 5.89319 36.259 7.62919 36.2726 7.64759C36.2862 7.66599 36.2982 7.66999 36.3166 7.65319C36.335 7.63639 37.8038 5.90919 37.815 5.89319C37.8324 5.87041 37.8428 5.84311 37.8451 5.81456C37.8474 5.78601 37.8415 5.75739 37.828 5.73212C37.8145 5.70684 37.7941 5.68597 37.7691 5.67198C37.7441 5.65799 37.7156 5.65147 37.687 5.65319H37.1534V4.87239H40.6886V5.65479H39.899C39.6126 5.65479 39.499 5.70759 39.2806 5.95079L36.9006 8.66599C36.8773 8.6996 36.8671 8.74056 36.8718 8.78119V10.0164C36.8722 10.0731 36.8781 10.1296 36.8894 10.1852C36.9048 10.2211 36.9279 10.2532 36.9571 10.2792C36.9862 10.3052 37.0208 10.3244 37.0582 10.3356C37.1298 10.345 37.202 10.3496 37.2742 10.3492H38.0814V11.1316H33.7918V10.3492L34.5566 10.35Z" fill="black"/>
</g>
</g>
<defs>
<clipPath id="clip0_736_180">
<rect width="40" height="16" fill="white" transform="translate(0.688599)"/>
</clipPath>
<clipPath id="clip1_736_180">
<rect width="40" height="7.0424" fill="white" transform="translate(0.688599 4.47879)"/>
</clipPath>
</defs>
</svg>
