<svg width="41" height="16" viewBox="0 0 41 16" fill="none" xmlns="http://www.w3.org/2000/svg">
<g clip-path="url(#clip0_861_269)">
<g clip-path="url(#clip1_861_269)">
<path d="M7.57169 0.811127L0.382812 8L7.57169 15.1889L14.7606 8L7.57169 0.811127Z" fill="url(#paint0_linear_861_269)"/>
<path d="M7.96673 2.57477L5.05664 5.4859L7.96673 8.39598V2.57477Z" fill="url(#paint1_linear_861_269)"/>
<path d="M7.17139 13.4263L10.0825 10.5162L7.17139 7.60611V13.4263Z" fill="url(#paint2_linear_861_269)"/>
<path d="M19.0653 3.57148C18.978 3.5403 18.8897 3.5164 18.7992 3.50081C18.7088 3.48522 18.6205 3.4769 18.5332 3.4769C18.4781 3.4769 18.423 3.4821 18.369 3.49353C18.3139 3.50497 18.2661 3.52159 18.2266 3.5455C18.186 3.5694 18.1538 3.60162 18.1289 3.64319C18.1039 3.68477 18.0915 3.73362 18.0915 3.78974C18.0915 3.83651 18.0998 3.87808 18.1174 3.91446C18.1351 3.94979 18.1621 3.98409 18.2016 4.01735C18.2401 4.04957 18.291 4.08179 18.3523 4.11297C18.4136 4.14415 18.4895 4.1774 18.5789 4.21378C18.6839 4.25431 18.7795 4.29693 18.8657 4.34266C18.952 4.38839 19.0248 4.44035 19.085 4.49751C19.1453 4.55468 19.1911 4.62015 19.2222 4.69394C19.2534 4.76774 19.269 4.854 19.269 4.95273C19.269 5.06914 19.2451 5.17099 19.1983 5.25829C19.1516 5.3456 19.0871 5.41731 19.004 5.47343C18.9219 5.52956 18.8283 5.57113 18.7244 5.59815C18.6205 5.62517 18.5134 5.63868 18.4033 5.63868C18.2931 5.63868 18.1736 5.62829 18.0426 5.60646C17.9117 5.58568 17.788 5.55138 17.6685 5.50357L17.7506 5.17723C17.8628 5.22607 17.9751 5.26245 18.0883 5.28428C18.2016 5.3061 18.3045 5.31753 18.396 5.31753C18.5425 5.31753 18.6579 5.28947 18.7421 5.23231C18.8263 5.17515 18.8689 5.09096 18.8689 4.97872C18.8689 4.92779 18.8574 4.88102 18.8346 4.83945C18.8117 4.79788 18.7774 4.76046 18.7338 4.72512C18.6891 4.69083 18.6329 4.65653 18.5654 4.62431C18.4978 4.59209 18.4209 4.55883 18.3336 4.52558C18.2307 4.48504 18.1403 4.44243 18.0603 4.3967C17.9813 4.35097 17.9148 4.30004 17.8597 4.24392C17.8046 4.1878 17.762 4.12544 17.7329 4.0558C17.7028 3.98617 17.6882 3.90926 17.6882 3.82404C17.6882 3.71179 17.7121 3.61305 17.7599 3.52887C17.8077 3.44365 17.8711 3.37401 17.9501 3.31893C18.0291 3.26384 18.1174 3.22331 18.2141 3.19837C18.3118 3.17238 18.4126 3.15991 18.5176 3.15991C18.6319 3.15991 18.7421 3.16823 18.8491 3.18382C18.9551 3.19941 19.0528 3.22331 19.1422 3.25449L19.0632 3.57356L19.0653 3.57148ZM21.357 4.70746C21.357 4.85296 21.3362 4.98287 21.2957 5.0972C21.2541 5.21152 21.1959 5.30922 21.119 5.38925C21.0421 5.47031 20.9496 5.53163 20.8415 5.57425C20.7324 5.61686 20.6108 5.63764 20.4757 5.63764C20.3405 5.63764 20.2189 5.61686 20.1098 5.57425C20.0007 5.53163 19.9082 5.47031 19.8323 5.38925C19.7554 5.30818 19.6972 5.21152 19.6556 5.0972C19.6141 4.98287 19.5943 4.85296 19.5943 4.70746C19.5943 4.56195 19.6151 4.43515 19.6556 4.31979C19.6972 4.20443 19.7554 4.10777 19.8323 4.02878C19.9092 3.95083 20.0017 3.88951 20.1098 3.8469C20.2189 3.80429 20.3405 3.7835 20.4757 3.7835C20.6108 3.7835 20.7324 3.80429 20.8415 3.84586C20.9506 3.88743 21.0431 3.94771 21.119 4.02774C21.1959 4.10777 21.2541 4.20443 21.2957 4.31979C21.3372 4.43515 21.357 4.56507 21.357 4.70746ZM20.9662 4.70746C20.9662 4.616 20.9569 4.53077 20.9371 4.45386C20.9174 4.37695 20.8883 4.31044 20.8477 4.25431C20.8072 4.19819 20.7573 4.15454 20.6949 4.12336C20.6336 4.09218 20.5598 4.07659 20.4757 4.07659C20.3915 4.07659 20.3177 4.09218 20.2564 4.12336C20.195 4.15454 20.1441 4.19923 20.1036 4.25639C20.063 4.31355 20.0339 4.38007 20.0142 4.45594C19.9944 4.53181 19.9851 4.616 19.9851 4.70746C19.9851 4.89765 20.0256 5.05147 20.1067 5.16787C20.1878 5.28428 20.3104 5.34352 20.4757 5.3456C20.643 5.34352 20.7667 5.28428 20.8467 5.16891C20.9267 5.05355 20.9662 4.89973 20.9662 4.70642V4.70746ZM22.1053 3.82404V4.07243H22.1126C22.1625 3.98097 22.2383 3.90926 22.3391 3.85937C22.44 3.80845 22.5512 3.7835 22.6717 3.7835C22.8734 3.7835 23.0334 3.8417 23.1519 3.95811C23.2704 4.07451 23.3307 4.23145 23.3307 4.42892V5.59815H22.9399V4.57338C22.9399 4.49751 22.9347 4.42788 22.9232 4.36552C22.9118 4.30316 22.891 4.25016 22.8619 4.20754C22.8318 4.16493 22.7933 4.13271 22.7455 4.10985C22.6977 4.08802 22.6354 4.07659 22.5605 4.07659C22.5054 4.07659 22.4514 4.08698 22.3994 4.10673C22.3464 4.12648 22.2997 4.1587 22.2591 4.20027C22.2175 4.24288 22.1843 4.29796 22.1583 4.36656C22.1323 4.43515 22.1188 4.5183 22.1188 4.61703V5.59815H21.728V3.82404H22.1084H22.1053ZM24.4801 5.13046H24.4874L24.9707 3.82404H25.3823L24.398 6.25292H23.9865L24.2785 5.56073L23.5687 3.82404H23.9937L24.4812 5.13046H24.4801ZM17.7994 6.73724H18.2006V9.13599H17.7994V6.73724ZM19.0923 7.36187V7.61027H19.0996C19.1495 7.51881 19.2254 7.4471 19.3262 7.39721C19.427 7.34628 19.5382 7.32134 19.6587 7.32134C19.8604 7.32134 20.0204 7.37954 20.1389 7.49594C20.2574 7.61235 20.3177 7.76928 20.3177 7.96675V9.13599H19.9269V8.11122C19.9269 8.03535 19.9217 7.96571 19.9103 7.90336C19.8988 7.841 19.878 7.78799 19.8489 7.74538C19.8188 7.70277 19.7803 7.67055 19.7325 7.64768C19.6847 7.62482 19.6224 7.61443 19.5475 7.61443C19.4925 7.61443 19.4384 7.62482 19.3864 7.64457C19.3334 7.66431 19.2867 7.69653 19.2461 7.7381C19.2046 7.78072 19.1713 7.8358 19.1453 7.9044C19.1193 7.97299 19.1058 8.05614 19.1058 8.15487V9.13599H18.715V7.36187H19.0954H19.0923ZM20.6128 7.36187H20.9153V6.90145H21.3061V7.36187H21.7041V7.65392H21.3061V8.58099C21.3061 8.64127 21.3081 8.69012 21.3133 8.72753C21.3175 8.76391 21.3279 8.79301 21.3445 8.81276C21.3601 8.83251 21.3819 8.84602 21.41 8.85329C21.437 8.85953 21.4755 8.86369 21.5233 8.86369C21.5576 8.86369 21.5888 8.86265 21.6179 8.86057C21.6459 8.85849 21.674 8.85537 21.702 8.85017V9.13599C21.6636 9.14014 21.6179 9.14534 21.5649 9.1495C21.5119 9.15366 21.4599 9.15573 21.4069 9.15573C21.3019 9.15573 21.2167 9.1443 21.1533 9.12248C21.0889 9.09961 21.04 9.06739 21.0036 9.02374C20.9683 8.98009 20.9444 8.92708 20.933 8.86576C20.9215 8.80444 20.9153 8.73273 20.9153 8.6527V7.65496H20.6128V7.36291V7.36187ZM22.3246 8.35962C22.3381 8.52799 22.4015 8.65686 22.5138 8.74728C22.626 8.8377 22.7694 8.88343 22.9461 8.88343C23.022 8.88343 23.0999 8.8772 23.181 8.86472C23.2621 8.85225 23.3369 8.83355 23.4055 8.80964L23.4575 9.09545C23.2995 9.1495 23.1176 9.17548 22.9118 9.17548C22.7559 9.17548 22.6177 9.15262 22.4971 9.10689C22.3755 9.06116 22.2747 8.99672 22.1916 8.91565C22.1095 8.83355 22.0471 8.73689 22.0045 8.6236C21.9619 8.51032 21.9411 8.38664 21.9411 8.25257C21.9411 8.11849 21.9608 7.99378 22.0014 7.87945C22.0419 7.76513 22.0991 7.66639 22.1749 7.58429C22.2508 7.50218 22.3412 7.4367 22.4483 7.39097C22.5543 7.34524 22.6738 7.32238 22.8068 7.32238C22.9399 7.32238 23.0511 7.34316 23.1477 7.38474C23.2454 7.42631 23.3265 7.48451 23.393 7.55934C23.4595 7.63417 23.5094 7.72667 23.5427 7.83476C23.5759 7.94389 23.5926 8.06341 23.5926 8.1954V8.35962H22.3267H22.3246ZM22.8048 7.59676C22.6676 7.59676 22.5574 7.64145 22.4732 7.72979C22.3901 7.81813 22.3402 7.93454 22.3236 8.07796H23.2257V8.07173C23.2278 7.9283 23.1903 7.81398 23.1145 7.72771C23.0376 7.64145 22.9347 7.59884 22.8037 7.59884L22.8048 7.59676ZM24.925 7.6269C24.8855 7.61754 24.8366 7.61339 24.7774 7.61339C24.7244 7.61131 24.6703 7.62066 24.6132 7.64145C24.556 7.66327 24.5082 7.69549 24.4687 7.74018C24.4303 7.78487 24.3991 7.84515 24.3762 7.92206C24.3533 7.99793 24.3419 8.08628 24.3419 8.18709V9.13495H23.9511V7.36083H24.3315V7.59572H24.3388C24.4209 7.41176 24.5789 7.3203 24.8127 7.3203C24.8314 7.3203 24.8512 7.3203 24.874 7.32238C24.8969 7.32342 24.9198 7.3255 24.9426 7.32757L24.926 7.6269H24.925ZM26.1773 7.97923C26.1773 7.86074 26.143 7.77032 26.0745 7.70692C26.0059 7.64457 25.8998 7.61339 25.7554 7.61339C25.6909 7.61339 25.6172 7.6217 25.534 7.63833C25.4509 7.65496 25.3698 7.67886 25.2918 7.71004L25.2129 7.42423C25.2742 7.39929 25.3615 7.37642 25.4737 7.35356C25.586 7.33069 25.6889 7.3203 25.7824 7.3203C26.0412 7.3203 26.2366 7.37538 26.3686 7.48659C26.5006 7.5978 26.5681 7.76201 26.5681 7.97923V8.73169C26.5681 8.79405 26.5702 8.86265 26.5754 8.93644C26.5796 9.01023 26.5879 9.07675 26.5993 9.13495H26.2522C26.2428 9.10377 26.2355 9.06531 26.2283 9.02062C26.221 8.97593 26.2158 8.93332 26.2116 8.89279H26.2044C26.1586 8.97593 26.089 9.04349 25.9955 9.09649C25.9019 9.1495 25.7886 9.17548 25.6556 9.17548C25.5777 9.17548 25.5018 9.16613 25.427 9.14742C25.3521 9.12871 25.2856 9.09753 25.2264 9.05388C25.1671 9.01023 25.1193 8.95307 25.0819 8.88447C25.0455 8.81484 25.0268 8.73065 25.0268 8.63296C25.0268 8.50512 25.058 8.40119 25.1193 8.32012C25.1806 8.23906 25.2648 8.17774 25.3719 8.13408C25.4789 8.09043 25.6005 8.06029 25.7377 8.0447C25.8749 8.02911 26.0214 8.0208 26.1773 8.0208V7.98027V7.97923ZM26.1015 8.27439C26.01 8.27439 25.9217 8.27855 25.8375 8.2879C25.7523 8.29726 25.6785 8.31389 25.614 8.33987C25.5496 8.36585 25.4987 8.40015 25.4613 8.4438C25.4238 8.48745 25.4051 8.54461 25.4051 8.61321C25.4051 8.69843 25.4301 8.76599 25.481 8.81692C25.5309 8.8668 25.6068 8.89279 25.7076 8.89279C25.7876 8.89279 25.8583 8.87928 25.9186 8.85225C25.9788 8.82523 26.0287 8.78989 26.0661 8.7452C26.1036 8.70051 26.1316 8.64959 26.1503 8.59242C26.169 8.53526 26.1773 8.47498 26.1773 8.41262V8.27439H26.1015ZM28.2051 7.67678C28.1552 7.65392 28.1011 7.63833 28.044 7.62794C27.9868 7.61754 27.9328 7.61235 27.8829 7.61235C27.7893 7.61235 27.7062 7.62898 27.6345 7.66223C27.5628 7.69549 27.5025 7.74122 27.4547 7.79839C27.4069 7.85555 27.3694 7.9231 27.3445 8.00209C27.3196 8.08004 27.3071 8.16319 27.3071 8.25049C27.3071 8.33779 27.3196 8.4199 27.3445 8.49577C27.3694 8.57164 27.4058 8.63919 27.4547 8.69739C27.5025 8.7556 27.5648 8.80133 27.6397 8.83355C27.7155 8.86576 27.7987 8.88239 27.8901 8.88239C27.9473 8.88239 28.0024 8.87824 28.0544 8.86888C28.1074 8.85953 28.1604 8.8429 28.2154 8.81899L28.2809 9.10792C28.2123 9.13287 28.1437 9.1495 28.0751 9.15989C28.0065 9.17028 27.9369 9.17444 27.8662 9.17444C27.7103 9.17444 27.5731 9.15054 27.4526 9.10377C27.3331 9.057 27.2333 8.99152 27.1543 8.90838C27.0753 8.82523 27.0161 8.72857 26.9755 8.61633C26.935 8.50408 26.9153 8.38248 26.9153 8.25049C26.9153 8.11849 26.9371 7.98858 26.9807 7.87633C27.0244 7.76305 27.0867 7.66535 27.1678 7.58429C27.2489 7.50218 27.3476 7.43774 27.464 7.39097C27.5804 7.3442 27.7135 7.3203 27.8621 7.3203C28.0242 7.3203 28.1645 7.34109 28.2809 7.3837L28.2051 7.67575V7.67678ZM28.4826 7.36083H28.785V6.90041H29.1758V7.36083H29.5738V7.65288H29.1758V8.57995C29.1758 8.64023 29.1779 8.68908 29.1831 8.7265C29.1872 8.76287 29.1976 8.79197 29.2142 8.81172C29.2298 8.83147 29.2516 8.84498 29.2797 8.85225C29.3067 8.85849 29.3452 8.86265 29.393 8.86265C29.4273 8.86265 29.4585 8.86161 29.4876 8.85953C29.5156 8.85745 29.5437 8.85433 29.5718 8.84913V9.13495C29.5333 9.1391 29.4876 9.1443 29.4346 9.14846C29.3816 9.15262 29.3296 9.15469 29.2766 9.15469C29.1716 9.15469 29.0864 9.14326 29.023 9.12144C28.9586 9.09857 28.9097 9.06635 28.8733 9.0227C28.838 8.97905 28.8141 8.92604 28.8027 8.86472C28.7912 8.8034 28.785 8.73169 28.785 8.65166V7.65392H28.4826V7.36187V7.36083ZM30.3315 6.68216V7.03864H29.9303V6.68216H30.3315ZM30.3242 7.36083V9.13495H29.9334V7.36083H30.3242ZM31.5111 8.79509H31.5184L31.9986 7.36083H32.4132L31.7335 9.13495H31.2773L30.6048 7.36083H31.0299L31.5101 8.79509H31.5111ZM32.9038 8.35858C32.9173 8.52695 32.9807 8.65582 33.093 8.74624C33.2052 8.83666 33.3486 8.88239 33.5253 8.88239C33.6012 8.88239 33.6791 8.87616 33.7602 8.86369C33.8413 8.85121 33.9161 8.83251 33.9847 8.8086L34.0356 9.09441C33.8776 9.14846 33.6958 9.17444 33.49 9.17444C33.3341 9.17444 33.1959 9.15158 33.0753 9.10585C32.9537 9.06012 32.8529 8.99568 32.7697 8.91461C32.6876 8.83251 32.6253 8.73585 32.5827 8.62256C32.54 8.50928 32.5193 8.3856 32.5193 8.25153C32.5193 8.11746 32.539 7.99274 32.5795 7.87841C32.6201 7.76409 32.6772 7.66535 32.7531 7.58325C32.829 7.5001 32.9194 7.43566 33.0264 7.38993C33.1325 7.3442 33.252 7.32134 33.385 7.32134C33.518 7.32134 33.6293 7.34212 33.7259 7.3837C33.8236 7.42527 33.9047 7.48347 33.9712 7.5583C34.0377 7.63313 34.0876 7.72563 34.1208 7.83372C34.1541 7.94285 34.1707 8.06237 34.1707 8.19437V8.35858H32.9048H32.9038ZM33.384 7.59572C33.2468 7.59572 33.1366 7.64041 33.0524 7.72875C32.9693 7.81709 32.9194 7.9335 32.9028 8.07692H33.8049V8.07069C33.807 7.92726 33.7696 7.81294 33.6937 7.72667C33.6168 7.64041 33.5139 7.5978 33.3829 7.5978L33.384 7.59572ZM17.7973 10.274H19.2077V10.5931H18.1985V11.2822H19.1287V11.6044H18.1985V12.3537H19.2378V12.6728H17.7963V10.274H17.7973ZM20.0412 10.8987V11.1471H20.0485C20.0984 11.0556 20.1742 10.9839 20.2751 10.934C20.3759 10.8831 20.4871 10.8581 20.6076 10.8581C20.8093 10.8581 20.9693 10.9163 21.0878 11.0327C21.2063 11.1491 21.2666 11.3061 21.2666 11.5036V12.6728H20.8758V11.648C20.8758 11.5721 20.8706 11.5025 20.8592 11.4402C20.8477 11.3778 20.8269 11.3248 20.7978 11.2822C20.7677 11.2396 20.7292 11.2073 20.6814 11.1845C20.6336 11.1627 20.5713 11.1512 20.4964 11.1512C20.4414 11.1512 20.3873 11.1616 20.3353 11.1814C20.2823 11.2011 20.2356 11.2333 20.195 11.2749C20.1535 11.3175 20.1202 11.3726 20.0942 11.4412C20.0682 11.5098 20.0547 11.5929 20.0547 11.6917V12.6728H19.6639V10.8987H20.0443H20.0412ZM21.5617 10.8987H21.8642V10.4383H22.255V10.8987H22.653V11.1907H22.255V12.1178C22.255 12.1781 22.257 12.2269 22.2622 12.2643C22.2664 12.3007 22.2768 12.3298 22.2934 12.3496C22.309 12.3693 22.3308 12.3828 22.3589 12.3901C22.3859 12.3963 22.4244 12.4005 22.4722 12.4005C22.5065 12.4005 22.5377 12.3994 22.5668 12.3974C22.5948 12.3953 22.6229 12.3922 22.6509 12.387V12.6728C22.6125 12.6769 22.5668 12.6821 22.5138 12.6863C22.4607 12.6905 22.4088 12.6925 22.3558 12.6925C22.2508 12.6925 22.1656 12.6811 22.1022 12.6593C22.0377 12.6364 21.9889 12.6042 21.9525 12.5605C21.9172 12.5169 21.8933 12.4639 21.8818 12.4026C21.8704 12.3412 21.8642 12.2695 21.8642 12.1895V11.1918H21.5617V10.8997V10.8987ZM23.2735 11.8964C23.287 12.0648 23.3504 12.1937 23.4627 12.2841C23.5749 12.3745 23.7183 12.4202 23.895 12.4202C23.9709 12.4202 24.0488 12.414 24.1299 12.4015C24.211 12.389 24.2858 12.3703 24.3544 12.3464L24.4063 12.6322C24.2484 12.6863 24.0665 12.7123 23.8607 12.7123C23.7048 12.7123 23.5666 12.6894 23.446 12.6437C23.3244 12.598 23.2236 12.5335 23.1405 12.4524C23.0584 12.3703 22.996 12.2737 22.9534 12.1604C22.9108 12.0471 22.89 11.9234 22.89 11.7894C22.89 11.6553 22.9097 11.5306 22.9503 11.4162C22.9908 11.3019 23.048 11.2032 23.1238 11.1211C23.1997 11.039 23.2901 10.9735 23.3972 10.9278C23.5032 10.882 23.6227 10.8592 23.7557 10.8592C23.8888 10.8592 24 10.88 24.0966 10.9215C24.1943 10.9631 24.2754 11.0213 24.3419 11.0961C24.4084 11.171 24.4583 11.2635 24.4916 11.3716C24.5248 11.4807 24.5415 11.6002 24.5415 11.7322V11.8964H23.2756H23.2735ZM23.7537 11.1336C23.6165 11.1336 23.5063 11.1782 23.4221 11.2666C23.339 11.3549 23.2891 11.4713 23.2725 11.6148H24.1746V11.6085C24.1767 11.4651 24.1392 11.3508 24.0634 11.2645C23.9865 11.1782 23.8836 11.1356 23.7526 11.1356L23.7537 11.1336ZM25.8739 11.1637C25.8344 11.1543 25.7855 11.1502 25.7263 11.1502C25.6733 11.1481 25.6192 11.1575 25.5621 11.1782C25.5049 11.2001 25.4571 11.2323 25.4176 11.277C25.3792 11.3217 25.348 11.382 25.3251 11.4589C25.3022 11.5347 25.2908 11.6231 25.2908 11.7239V12.6717H24.9V10.8976H25.2804V11.1325H25.2877C25.3698 10.9486 25.5278 10.8571 25.7616 10.8571C25.7803 10.8571 25.8001 10.8571 25.8229 10.8592C25.8458 10.8602 25.8687 10.8623 25.8915 10.8644L25.8749 11.1637H25.8739ZM26.0422 10.8987H26.3447V10.4383H26.7355V10.8987H27.1335V11.1907H26.7355V12.1178C26.7355 12.1781 26.7375 12.2269 26.7427 12.2643C26.7469 12.3007 26.7573 12.3298 26.7739 12.3496C26.7895 12.3693 26.8113 12.3828 26.8394 12.3901C26.8664 12.3963 26.9049 12.4005 26.9527 12.4005C26.987 12.4005 27.0182 12.3994 27.0473 12.3974C27.0753 12.3953 27.1034 12.3922 27.1314 12.387V12.6728C27.093 12.6769 27.0473 12.6821 26.9942 12.6863C26.9412 12.6905 26.8893 12.6925 26.8363 12.6925C26.7313 12.6925 26.6461 12.6811 26.5827 12.6593C26.5182 12.6364 26.4694 12.6042 26.433 12.5605C26.3977 12.5169 26.3738 12.4639 26.3623 12.4026C26.3509 12.3412 26.3447 12.2695 26.3447 12.1895V11.1918H26.0422V10.8997V10.8987ZM28.5158 11.5171C28.5158 11.3986 28.4815 11.3082 28.4129 11.2448C28.3443 11.1824 28.2383 11.1512 28.0938 11.1512C28.0294 11.1512 27.9556 11.1595 27.8725 11.1762C27.7893 11.1928 27.7083 11.2167 27.6303 11.2479L27.5513 10.9621C27.6126 10.9371 27.6999 10.9143 27.8122 10.8914C27.9244 10.8685 28.0273 10.8581 28.1209 10.8581C28.3797 10.8581 28.5751 10.9132 28.707 11.0244C28.8401 11.1356 28.9066 11.2998 28.9066 11.5171V12.2695C28.9066 12.3319 28.9087 12.4005 28.9139 12.4743C28.918 12.5481 28.9263 12.6146 28.9378 12.6728H28.5906C28.5813 12.6416 28.574 12.6031 28.5667 12.5585C28.5595 12.5138 28.5543 12.4712 28.5501 12.4306H28.5428C28.4971 12.5138 28.4275 12.5813 28.3339 12.6343C28.2404 12.6873 28.1271 12.7133 27.9941 12.7133C27.9161 12.7133 27.8403 12.704 27.7654 12.6853C27.6906 12.6665 27.6241 12.6354 27.5648 12.5917C27.5056 12.5481 27.4578 12.4909 27.4204 12.4223C27.384 12.3527 27.3653 12.2685 27.3653 12.1708C27.3653 12.043 27.3965 11.939 27.4578 11.858C27.5191 11.7769 27.6033 11.7156 27.7103 11.6719C27.8174 11.6283 27.939 11.5981 28.0762 11.5825C28.2134 11.5669 28.3599 11.5586 28.5158 11.5586V11.5181V11.5171ZM28.4399 11.8122C28.3485 11.8122 28.2601 11.8164 28.176 11.8257C28.0907 11.8351 28.0169 11.8517 27.9525 11.8777C27.8881 11.9037 27.8371 11.938 27.7997 11.9816C27.7623 12.0253 27.7436 12.0825 27.7436 12.151C27.7436 12.2363 27.7685 12.3038 27.8195 12.3548C27.8694 12.4046 27.9452 12.4306 28.046 12.4306C28.1261 12.4306 28.1967 12.4171 28.257 12.3901C28.3173 12.3631 28.3672 12.3277 28.4046 12.283C28.442 12.2383 28.4701 12.1874 28.4888 12.1303C28.5075 12.0731 28.5158 12.0128 28.5158 11.9505V11.8122H28.4399ZM29.7879 10.22V10.5765H29.3868V10.22H29.7879ZM29.7807 10.8987V12.6728H29.3899V10.8987H29.7807ZM30.6859 10.8987V11.1471H30.6932C30.7431 11.0556 30.8189 10.9839 30.9198 10.934C31.0206 10.8831 31.1318 10.8581 31.2523 10.8581C31.454 10.8581 31.614 10.9163 31.7325 11.0327C31.851 11.1491 31.9113 11.3061 31.9113 11.5036V12.6728H31.5205V11.648C31.5205 11.5721 31.5153 11.5025 31.5038 11.4402C31.4924 11.3778 31.4716 11.3248 31.4425 11.2822C31.4124 11.2396 31.3739 11.2073 31.3261 11.1845C31.2783 11.1627 31.216 11.1512 31.1411 11.1512C31.086 11.1512 31.032 11.1616 30.98 11.1814C30.927 11.2011 30.8803 11.2333 30.8397 11.2749C30.7982 11.3175 30.7649 11.3726 30.7389 11.4412C30.7129 11.5098 30.6994 11.5929 30.6994 11.6917V12.6728H30.3086V10.8987H30.689H30.6859ZM32.7313 10.8987V11.1543H32.7386C32.7843 11.0598 32.856 10.987 32.9547 10.9361C33.0535 10.8841 33.1584 10.8592 33.2707 10.8592C33.5378 10.8592 33.7166 10.9558 33.8059 11.1481H33.8163C33.8808 11.0452 33.9618 10.9704 34.0616 10.9247C34.1614 10.8789 34.2684 10.8571 34.3828 10.8592C34.4929 10.8592 34.5885 10.8748 34.6706 10.9059C34.7528 10.9371 34.8213 10.9818 34.8744 11.039C34.9274 11.0961 34.9679 11.1637 34.9949 11.2427C35.0209 11.3206 35.0344 11.4079 35.0344 11.5046V12.6738H34.6436V11.6491C34.6436 11.5597 34.6395 11.488 34.6301 11.4339C34.6208 11.3799 34.6031 11.331 34.5771 11.2863C34.5511 11.2416 34.5148 11.2084 34.4669 11.1855C34.4202 11.1637 34.3609 11.1523 34.2903 11.1523C34.2424 11.1523 34.1946 11.1606 34.1458 11.1772C34.098 11.1938 34.0554 11.2198 34.019 11.2541C33.9826 11.2884 33.9525 11.3352 33.9296 11.3913C33.9067 11.4485 33.8953 11.515 33.8953 11.5909V12.6728H33.5045V11.6283C33.5045 11.5545 33.5004 11.488 33.491 11.4287C33.4817 11.3695 33.465 11.3186 33.4401 11.278C33.4152 11.2364 33.3788 11.2053 33.332 11.1834C33.2852 11.1627 33.226 11.1512 33.1553 11.1512C33.1023 11.1512 33.0514 11.1616 33.0005 11.1814C32.9506 11.2011 32.9069 11.2312 32.8695 11.2707C32.8331 11.3102 32.803 11.3622 32.7791 11.4287C32.7552 11.4952 32.7427 11.5763 32.7427 11.6719V12.6728H32.3519V10.8987H32.7323H32.7313ZM35.764 11.8964C35.7775 12.0648 35.8409 12.1937 35.9532 12.2841C36.0654 12.3745 36.2088 12.4202 36.3855 12.4202C36.4614 12.4202 36.5393 12.414 36.6204 12.4015C36.7015 12.389 36.7763 12.3703 36.8449 12.3464L36.8958 12.6322C36.7379 12.6863 36.556 12.7123 36.3502 12.7123C36.1943 12.7123 36.0561 12.6894 35.9355 12.6437C35.8139 12.598 35.7131 12.5335 35.6299 12.4524C35.5478 12.3703 35.4855 12.2737 35.4429 12.1604C35.4002 12.0471 35.3795 11.9234 35.3795 11.7894C35.3795 11.6553 35.3992 11.5306 35.4397 11.4162C35.4803 11.3019 35.5374 11.2032 35.6133 11.1211C35.6892 11.039 35.7796 10.9735 35.8866 10.9278C35.9927 10.882 36.1122 10.8592 36.2452 10.8592C36.3782 10.8592 36.4895 10.88 36.5861 10.9215C36.6838 10.9631 36.7649 11.0213 36.8314 11.0961C36.8979 11.171 36.9478 11.2635 36.9811 11.3716C37.0143 11.4807 37.0309 11.6002 37.0309 11.7322V11.8964H35.765H35.764ZM36.2442 11.1336C36.107 11.1336 35.9968 11.1782 35.9126 11.2666C35.8295 11.3549 35.7796 11.4713 35.763 11.6148H36.6651V11.6085C36.6672 11.4651 36.6298 11.3508 36.5539 11.2645C36.477 11.1782 36.3741 11.1356 36.2431 11.1356L36.2442 11.1336ZM37.7709 10.8987V11.1471H37.7782C37.8281 11.0556 37.904 10.9839 38.0048 10.934C38.1056 10.8831 38.2168 10.8581 38.3374 10.8581C38.539 10.8581 38.699 10.9163 38.8175 11.0327C38.936 11.1491 38.9963 11.3061 38.9963 11.5036V12.6728H38.6055V11.648C38.6055 11.5721 38.6003 11.5025 38.5889 11.4402C38.5774 11.3778 38.5567 11.3248 38.5276 11.2822C38.4974 11.2396 38.459 11.2073 38.4111 11.1845C38.3633 11.1627 38.301 11.1512 38.2262 11.1512C38.1711 11.1512 38.117 11.1616 38.0651 11.1814C38.0121 11.2011 37.9653 11.2333 37.9247 11.2749C37.8832 11.3175 37.8499 11.3726 37.8239 11.4412C37.798 11.5098 37.7844 11.5929 37.7844 11.6917V12.6728H37.3937V10.8987H37.774H37.7709ZM39.2915 10.8987H39.5939V10.4383H39.9847V10.8987H40.3827V11.1907H39.9847V12.1178C39.9847 12.1781 39.9868 12.2269 39.9919 12.2643C39.9961 12.3007 40.0065 12.3298 40.0231 12.3496C40.0387 12.3693 40.0605 12.3828 40.0886 12.3901C40.1156 12.3963 40.1541 12.4005 40.2019 12.4005C40.2362 12.4005 40.2674 12.3994 40.2965 12.3974C40.3245 12.3953 40.3526 12.3922 40.3807 12.387V12.6728C40.3422 12.6769 40.2965 12.6821 40.2435 12.6863C40.1905 12.6905 40.1385 12.6925 40.0855 12.6925C39.9805 12.6925 39.8953 12.6811 39.8319 12.6593C39.7675 12.6364 39.7186 12.6042 39.6822 12.5605C39.6469 12.5169 39.623 12.4639 39.6116 12.4026C39.6001 12.3412 39.5939 12.2695 39.5939 12.1895V11.1918H39.2915V10.8997V10.8987Z" fill="#002F67"/>
</g>
</g>
<defs>
<linearGradient id="paint0_linear_861_269" x1="0.382919" y1="8.00114" x2="14.7608" y2="8.00114" gradientUnits="userSpaceOnUse">
<stop stop-color="#EF4123"/>
<stop offset="0.02" stop-color="#EF4123"/>
<stop offset="0.08" stop-color="#EF4920"/>
<stop offset="0.17" stop-color="#F2621B"/>
<stop offset="0.29" stop-color="#F68A12"/>
<stop offset="0.43" stop-color="#FCC006"/>
<stop offset="0.5" stop-color="#FFDD00"/>
<stop offset="0.57" stop-color="#FCC006"/>
<stop offset="0.71" stop-color="#F68A12"/>
<stop offset="0.83" stop-color="#F2621B"/>
<stop offset="0.92" stop-color="#EF4920"/>
<stop offset="0.98" stop-color="#EF4123"/>
<stop offset="1" stop-color="#EF4123"/>
</linearGradient>
<linearGradient id="paint1_linear_861_269" x1="8.95616" y1="5.4859" x2="5.11796" y2="5.4859" gradientUnits="userSpaceOnUse">
<stop offset="0.2" stop-color="#FFDA00"/>
<stop offset="0.29" stop-color="#FDC703"/>
<stop offset="0.48" stop-color="#F8970C"/>
<stop offset="0.75" stop-color="#F14A1B"/>
<stop offset="0.9" stop-color="#ED1C24"/>
</linearGradient>
<linearGradient id="paint2_linear_861_269" x1="6.18092" y1="10.5162" x2="10.0202" y2="10.5162" gradientUnits="userSpaceOnUse">
<stop offset="0.2" stop-color="#FFDA00"/>
<stop offset="0.29" stop-color="#FDC703"/>
<stop offset="0.48" stop-color="#F8970C"/>
<stop offset="0.75" stop-color="#F14A1B"/>
<stop offset="0.9" stop-color="#ED1C24"/>
</linearGradient>
<clipPath id="clip0_861_269">
<rect width="40" height="16" fill="white" transform="translate(0.382812)"/>
</clipPath>
<clipPath id="clip1_861_269">
<rect width="40" height="14.3777" fill="white" transform="translate(0.382812 0.811127)"/>
</clipPath>
</defs>
</svg>
