<svg width="41" height="16" viewBox="0 0 41 16" fill="none" xmlns="http://www.w3.org/2000/svg">
<g clip-path="url(#clip0_806_1709)">
<g clip-path="url(#clip1_806_1709)">
<path fill-rule="evenodd" clip-rule="evenodd" d="M4.66599 6.9962C5.04606 6.70838 5.46295 6.39165 5.88044 6.06444C6.1449 5.85738 6.251 5.53194 5.85391 5.26866C5.52729 5.05151 4.06758 3.99048 3.54063 3.65277C3.22588 3.45086 2.4214 3.82281 2.65677 4.63284C2.81711 5.18334 3.59071 6.06107 4.66599 6.9962Z" fill="#FFBF3F"/>
<path fill-rule="evenodd" clip-rule="evenodd" d="M2.04321 9.00363C1.66274 9.29126 1.24625 9.60818 0.828565 9.9348C0.563506 10.1427 0.458393 10.4681 0.854893 10.7314C1.18231 10.9481 2.64162 12.0094 3.16857 12.3475C3.48332 12.5488 4.2882 12.1768 4.05204 11.3666C3.89189 10.8165 3.11809 9.93876 2.04321 9.00363Z" fill="#FFBF3F"/>
<path fill-rule="evenodd" clip-rule="evenodd" d="M5.24634 8.61487L2.88059 6.16262C2.19469 5.43594 1.96071 4.92739 1.99218 4.53406C2.0096 4.3171 1.87024 4.43013 1.07447 4.99014C-0.026945 5.76553 0.875327 6.76935 1.46127 7.37806L3.82681 9.82991C4.51331 10.5568 4.7469 11.0643 4.71562 11.4581C4.6982 11.6752 4.83736 11.5626 5.63353 11.0022C6.73495 10.2266 5.83188 9.22318 5.24634 8.61487Z" fill="#FFBF3F"/>
<path fill-rule="evenodd" clip-rule="evenodd" d="M11.6201 6.90296L11.3683 6.98927C11.0435 6.45875 10.3809 5.7766 9.71146 5.7766C9.25419 5.7766 8.88323 6.02167 8.88323 6.49874C8.88323 7.04212 9.45333 7.18801 9.87715 7.32064L10.2683 7.44654C11.0833 7.7116 11.8785 8.0891 11.8785 9.07015C11.8785 9.97777 11.1231 10.6075 10.2548 10.6075C9.96979 10.6075 9.69167 10.5479 9.41988 10.4616C9.29398 10.422 9.2146 10.3887 9.08197 10.3887C8.96914 10.3887 8.90975 10.402 8.49207 10.6007L8.06152 9.07015L8.31985 8.98384C8.71081 9.61334 9.35376 10.3491 10.1555 10.3491C10.6325 10.3491 11.1231 10.011 11.1231 9.5007C11.1231 8.95732 10.5928 8.79163 10.1689 8.6594C9.28745 8.37435 8.18069 8.04277 8.18069 6.91642C8.18069 6.07472 8.84997 5.51808 9.66514 5.51808C9.93693 5.51808 10.1422 5.5644 10.394 5.65071C10.487 5.68376 10.573 5.71682 10.6725 5.71682C10.8382 5.71682 11.0633 5.58419 11.1827 5.47156L11.6201 6.90296ZM13.0717 8.91773C13.0717 9.40806 13.1776 10.3093 13.8338 10.3093C14.4766 10.3093 14.5694 9.38807 14.5694 8.91773C14.5694 8.43393 14.5162 7.47306 13.8469 7.47306C13.1844 7.47306 13.0717 8.4272 13.0717 8.91753M12.1176 8.93733C12.1176 7.79098 13.0915 7.21454 13.9067 7.21454C14.9935 7.21454 15.5236 8.06277 15.5236 8.79836C15.5236 9.81228 14.841 10.5677 13.8139 10.5677C12.8928 10.5677 12.1176 9.8784 12.1176 8.93733ZM18.0287 10.0308C17.6775 10.3159 17.2931 10.5677 16.8225 10.5677C16.1865 10.5677 15.9147 10.1369 15.9147 9.58681V8.39414C15.9147 8.04277 15.8286 7.80424 15.4442 7.75792V7.55244L16.8691 7.14822V9.57355C16.8691 9.83208 17.0545 10.0043 17.3329 10.0043C17.5914 10.0043 17.8432 9.81228 18.0287 9.65313V8.39414C18.0287 8.04277 17.9426 7.80424 17.5581 7.75792V7.55244L18.983 7.14822V9.65986C18.983 10.011 19.0691 10.2498 19.4601 10.2828V10.4883H18.0289V10.031L18.0287 10.0308ZM19.2417 7.57897V7.26739C20.09 7.18801 20.2224 6.71075 20.4211 6.10778H20.6729V7.26739H21.5942V7.57897H20.6599V9.61334C20.6599 9.8588 20.746 10.0904 21.0841 10.0904C21.2628 10.0904 21.4551 9.9647 21.5942 9.85187L21.7466 9.99776C21.4948 10.3224 21.0441 10.5677 20.6401 10.5677C19.9308 10.5677 19.7057 10.0243 19.7057 9.64659V7.57897H19.2417ZM23.145 7.72466C23.5027 7.44634 23.8075 7.21454 24.2848 7.21454C24.7884 7.21454 25.2191 7.61856 25.2191 8.12908V9.85187C25.2259 10.243 25.4444 10.2828 25.6431 10.2828V10.4881H23.8275V10.2828C24.0661 10.2828 24.245 10.2563 24.265 9.73943V8.22845C24.265 8.13561 24.1787 7.77771 23.781 7.77771C23.5557 7.77771 23.3437 7.93014 23.145 8.02971V9.85187C23.1515 10.243 23.3702 10.2828 23.569 10.2828V10.4881H21.7534V10.2828C21.9919 10.2828 22.1708 10.2563 22.1908 9.73943V6.764C22.1841 6.41263 22.1045 6.17409 21.7203 6.12758V5.9223L23.145 5.51808V7.72466ZM29.3478 6.90296L29.096 6.98927C28.7714 6.45875 28.1087 5.7766 27.4392 5.7766C26.9821 5.7766 26.6111 6.02167 26.6111 6.49874C26.6111 7.04212 27.181 7.18801 27.6051 7.32064L27.9962 7.44654C28.8112 7.7116 29.6064 8.0891 29.6064 9.07015C29.6064 9.97777 28.851 10.6075 27.9828 10.6075C27.6977 10.6075 27.4196 10.5479 27.1478 10.4616C27.0219 10.422 26.9425 10.3887 26.8099 10.3887C26.6971 10.3887 26.6377 10.402 26.22 10.6007L25.7894 9.07015L26.0478 8.98384C26.4387 9.61334 27.0817 10.3491 27.8834 10.3491C28.3605 10.3491 28.851 10.011 28.851 9.5007C28.851 8.95732 28.3209 8.79163 27.8968 8.6594C27.0154 8.37435 25.9086 8.04277 25.9086 6.91642C25.9086 6.07472 26.5779 5.51808 27.3931 5.51808C27.6646 5.51808 27.8701 5.5644 28.1219 5.65071C28.2148 5.68376 28.3009 5.71682 28.4004 5.71682C28.5659 5.71682 28.7912 5.58419 28.9106 5.47156L29.3478 6.90296ZM29.5405 7.57897V7.26739C30.3887 7.18801 30.5211 6.71075 30.7201 6.10778H30.9719V7.26739H31.8929V7.57897H30.9586V9.61334C30.9586 9.8588 31.0447 10.0904 31.3828 10.0904C31.5616 10.0904 31.7538 9.9647 31.8929 9.85187L32.0454 9.99776C31.7936 10.3224 31.3428 10.5677 30.9388 10.5677C30.2295 10.5677 30.0045 10.0243 30.0045 9.64659V7.57897H29.5405Z" fill="#002D72"/>
<path fill-rule="evenodd" clip-rule="evenodd" d="M33.9943 8.73206C33.464 8.79164 32.8943 9.01038 32.8943 9.64007C32.8943 9.93819 33.0467 10.17 33.3581 10.17C33.6034 10.17 33.8419 9.98451 33.9943 9.80556V8.73206ZM34.9485 9.71945C34.9552 9.88513 34.9419 10.0906 35.1739 10.0906C35.2268 10.0906 35.2864 10.0708 35.3396 10.051L35.386 10.17C35.2268 10.3953 34.9287 10.5677 34.6504 10.5677C34.372 10.5677 34.1335 10.4153 33.9943 10.17C33.6562 10.4352 33.3118 10.5677 32.8743 10.5677C32.3309 10.5677 31.9004 10.3159 31.9004 9.73271C31.9004 8.8049 33.292 8.55311 33.9943 8.44047V8.26152C33.9943 7.94341 34.0209 7.43309 33.5569 7.43309C33.2322 7.43309 33.1526 7.67835 33.06 7.93015C32.9804 8.15542 32.828 8.40068 32.5695 8.40068C32.3575 8.40068 32.152 8.24173 32.152 8.01626C32.152 7.69161 32.5429 7.21455 33.6697 7.21455C33.9613 7.21455 34.4051 7.2674 34.6436 7.45961C34.9419 7.70488 34.9485 8.00319 34.9485 8.30804V9.71945ZM35.28 7.57898V7.2674C36.1283 7.18802 36.2609 6.71075 36.4599 6.10779H36.7116V7.2674H37.6327V7.57898H36.6984V9.61334C36.6984 9.85881 36.7845 10.0904 37.1224 10.0904C37.3014 10.0904 37.4936 9.96471 37.6327 9.85188L37.7851 9.99777C37.5332 10.3224 37.0826 10.5677 36.6786 10.5677C35.9693 10.5677 35.7441 10.0243 35.7441 9.6466V7.57898H35.2802H35.28Z" fill="#002D72"/>
<path fill-rule="evenodd" clip-rule="evenodd" d="M39.6802 8.5931C39.6802 7.94342 39.5541 7.49941 39.0305 7.49941C38.4608 7.49941 38.2884 8.16216 38.2817 8.5929H39.68L39.6802 8.5931ZM38.2952 8.87796C38.2952 9.49419 38.7259 10.17 39.4215 10.17C39.7994 10.17 40.144 9.95146 40.3958 9.6864L40.5548 9.82556C40.1438 10.3094 39.7 10.5677 39.0503 10.5677C38.136 10.5677 37.3408 9.95146 37.3408 8.98406C37.3408 8.55311 37.4932 8.12237 37.7716 7.78446C38.0829 7.40677 38.507 7.21436 38.9975 7.21436C39.9188 7.21436 40.5483 7.94342 40.5283 8.87796H38.2952Z" fill="#002D72"/>
</g>
</g>
<defs>
<clipPath id="clip0_806_1709">
<rect width="40" height="16" fill="white" transform="translate(0.554688)"/>
</clipPath>
<clipPath id="clip1_806_1709">
<rect width="40" height="8.80253" fill="white" transform="translate(0.554688 3.59872)"/>
</clipPath>
</defs>
</svg>
