<svg width="15" height="16" viewBox="0 0 15 16" fill="none" xmlns="http://www.w3.org/2000/svg">
<g clip-path="url(#clip0_795_1618)">
<path d="M13.5427 1.66346C13.5415 1.66126 13.5397 1.65945 13.5375 1.65825C11.6441 0.568105 9.49694 -0.00384415 7.31219 1.94451e-05H7.30786C5.04927 1.94451e-05 2.92181 0.585202 1.09409 1.6407C1.09042 1.64388 1.08728 1.64761 1.08477 1.65175C0.334431 3.49508 -0.287163 6.52827 0.667119 9.20473C1.5048 11.5567 2.9101 13.1111 4.49118 14.27C6.07226 15.4289 7.24847 15.9768 7.26104 15.9822C7.27681 15.9898 7.29329 15.9957 7.31024 16C7.32696 15.9957 7.34322 15.9897 7.35879 15.9822C7.3718 15.9759 8.54758 15.428 10.1284 14.27C11.7093 13.112 13.1161 11.5567 13.9538 9.20473C14.9092 6.52524 14.2939 3.50635 13.5427 1.66346Z" fill="#888B8D"/>
<path d="M7.17309 15.5958C7.07859 15.5544 4.84103 14.5555 2.97711 12.5114C1.23587 10.6011 -0.472649 7.39889 1.27423 2.9877L1.31216 2.89255L1.39885 2.83577C1.4979 2.76945 3.88328 1.21286 7.30551 1.21286C10.7277 1.21286 13.1123 2.76945 13.2124 2.83577L13.2974 2.89255L13.3353 2.9877C15.0819 7.39889 13.3741 10.6016 11.633 12.5114C9.76913 14.5563 7.53157 15.5544 7.43729 15.5958L7.30551 15.6539L7.17309 15.5958Z" fill="white"/>
<path d="M13.0341 3.1197C13.0308 3.11266 13.0258 3.10654 13.0196 3.10193C12.8484 2.9914 10.5391 1.54144 7.30431 1.54144C4.05893 1.54144 1.74507 3.0018 1.58707 3.10388C1.58176 3.10796 1.57758 3.11333 1.57494 3.11949C-1.67608 11.3478 7.30431 15.2971 7.30431 15.2971C7.30431 15.2971 16.2836 11.3476 13.0341 3.1197Z" fill="#0A2240"/>
<path d="M10.0048 6.78921C9.97728 6.7981 9.99614 6.82671 10.0104 6.84383C10.0354 6.87287 10.1838 7.05709 10.2092 7.08094C10.2309 7.10261 10.2335 7.11886 10.2742 7.1141C10.3144 7.10187 10.3552 7.09168 10.3964 7.08354C10.4604 7.07225 10.5249 7.06501 10.5898 7.06186L10.6251 7.06078C10.7466 7.05643 10.8682 7.06552 10.9877 7.08787C11.4251 7.16091 11.4645 7.52437 11.4665 7.53846V7.54973C11.4699 7.63274 11.4758 7.8057 11.2931 7.94679C11.2894 7.94963 11.2866 7.95354 11.2852 7.958C11.2837 7.96245 11.2837 7.96724 11.2851 7.97171C11.2861 7.97624 11.2886 7.98031 11.2922 7.98332C11.2957 7.98632 11.3001 7.98811 11.3048 7.9884C11.3768 7.99578 11.4491 7.9994 11.5215 7.99924H11.582C11.7543 7.9949 11.8854 7.95589 11.9721 7.8796C12.0588 7.80331 12.1041 7.69061 12.1006 7.54648C12.1006 7.54106 12.0991 7.0209 11.3488 6.78184C11.1201 6.7088 10.8776 6.69341 10.714 6.69341C10.6423 6.69289 10.5707 6.69614 10.4994 6.70317C10.4057 6.70956 10.3125 6.72216 10.2205 6.74088C10.1405 6.75518 10.0807 6.76927 10.0048 6.78921Z" fill="white"/>
<path d="M12.155 10.2238C12.1511 10.2206 12.1464 10.2187 12.1414 10.2185C12.1364 10.2183 12.1315 10.2197 12.1274 10.2225C11.891 10.3827 11.6094 10.4637 11.29 10.4637C11.0944 10.4628 10.9 10.4341 10.7126 10.3783C10.6728 10.3673 10.6336 10.3542 10.5951 10.3391C10.5384 10.318 10.483 10.2937 10.4291 10.2663C10.3257 10.2141 10.2274 10.1524 10.1354 10.0821C10.0994 10.0543 10.065 10.0259 10.0327 9.99753C9.79408 9.78602 9.60614 9.52349 9.48284 9.22943C9.37599 8.96219 9.30945 8.73462 9.31357 8.42123C9.31518 8.3021 9.32972 8.1835 9.35692 8.06751C9.35692 8.06751 9.35692 8.06751 9.35692 8.06643C9.35908 8.05841 9.3632 8.02807 9.3632 8.02807C9.36472 8.02103 9.36431 8.01371 9.36202 8.00689C9.35973 8.00006 9.35565 7.99398 9.3502 7.98927C9.32766 7.96261 8.98088 7.54085 8.95921 7.51896C8.94057 7.50097 8.928 7.46781 8.90242 7.47431C8.83222 7.56971 8.77194 7.67204 8.72253 7.77969C8.7156 7.79551 8.7078 7.81198 8.70086 7.82802C8.69674 7.83691 8.69306 7.84471 8.68981 7.85295C8.68952 7.85431 8.68952 7.85571 8.68981 7.85707C8.58946 8.10176 8.54199 8.38113 8.55023 8.68781C8.55023 8.69626 8.58491 9.55475 9.21409 10.1417C9.3807 10.2975 9.56754 10.4302 9.76958 10.5361C9.80837 10.5561 9.84544 10.5738 9.88358 10.5914C10.0398 10.6626 10.2032 10.7168 10.371 10.7529C10.4211 10.7635 10.4668 10.7719 10.5076 10.7778C10.6115 10.7939 10.7165 10.8022 10.8216 10.8025C10.8679 10.803 10.9142 10.8009 10.9603 10.7962C11.7364 10.768 12.08 10.4401 12.1617 10.2509C12.1635 10.2462 12.1639 10.2411 12.1626 10.2363C12.1614 10.2314 12.1588 10.2271 12.155 10.2238Z" fill="white"/>
<path d="M9.14038 7.18412L9.6406 7.80377C9.64153 7.80569 9.64286 7.80739 9.6445 7.80875L9.65036 7.81612C9.67333 7.84473 9.69674 7.87291 9.71928 7.9013L9.7299 7.91777C10.1113 8.46676 10.304 8.98432 10.304 9.45658C10.304 9.49625 10.3025 9.53613 10.3006 9.57535L10.2977 9.60635C10.2956 9.63496 10.2923 9.66291 10.2889 9.69131V9.69759C10.2871 9.71016 10.2856 9.7223 10.2834 9.7353C10.2808 9.75373 10.2778 9.77193 10.2748 9.78992C10.2602 9.86195 10.2417 9.93314 10.2195 10.0032C10.2134 10.0216 10.236 10.0327 10.2535 10.0439C10.4023 10.1349 10.5604 10.2097 10.7251 10.267C10.7438 10.2732 10.7503 10.2732 10.7564 10.2609C10.8009 10.1557 10.8377 10.0474 10.8667 9.93687C10.8667 9.93383 10.868 9.93102 10.8686 9.92755C10.9324 9.69508 10.9649 9.45513 10.9651 9.21406C10.9655 8.80727 10.8759 8.40543 10.7026 8.03741C10.5973 7.81878 10.4717 7.61046 10.3277 7.41516C10.3038 7.38114 10.2789 7.34776 10.254 7.31373C10.2472 7.30485 10.2403 7.29618 10.2323 7.28686L10.2132 7.26172C10.1874 7.22834 10.161 7.19431 10.1337 7.16093C10.12 7.14273 10.1059 7.12496 10.0903 7.10653C10.0704 7.08356 10.0511 7.06015 10.0316 7.03653L9.98955 6.98711C9.96505 6.95785 9.94035 6.92881 9.91586 6.8989L9.81031 6.77385C9.66054 6.59526 9.51056 6.41602 9.3634 6.23721C8.9451 5.70621 8.72598 5.30829 8.7132 5.05471C8.70474 4.9082 8.75459 4.79463 8.86491 4.70793C8.98368 4.6143 9.10332 4.57616 9.27671 4.57616C9.38507 4.57616 9.50558 4.63598 9.58664 4.72787C9.66379 4.8241 9.70107 4.91145 9.70107 4.99446V5.00638C9.70107 5.08939 9.70281 5.26299 9.51685 5.39932C9.51304 5.40189 9.51015 5.40561 9.50859 5.40993C9.50703 5.41426 9.50689 5.41896 9.50818 5.42337C9.50938 5.42789 9.5119 5.43195 9.51541 5.43504C9.51892 5.43812 9.52327 5.4401 9.5279 5.44071C9.6197 5.4523 9.71214 5.45802 9.80467 5.45783C10.1514 5.45783 10.3311 5.30959 10.3355 5.01721C10.3387 4.8746 10.2897 4.66524 10.0366 4.47841C9.84282 4.33537 9.59292 4.24347 9.36795 4.2322C9.03682 4.21415 8.70872 4.30355 8.43253 4.48708C8.16551 4.66047 8.02441 4.92402 8.02441 5.24565C8.02441 5.59654 8.22489 6.03261 8.61913 6.54237C8.79454 6.7555 8.96829 6.96941 9.14038 7.18412Z" fill="white"/>
<path d="M9.80005 10.915C9.76277 10.8979 9.75302 10.8987 9.73048 10.9302C9.69277 10.98 9.65267 11.0312 9.61128 11.0819C9.21184 11.5522 8.69882 11.9534 8.08547 12.2739C8.08106 12.2764 8.0776 12.2803 8.0756 12.285C8.07361 12.2896 8.07319 12.2948 8.07442 12.2997C8.07565 12.3046 8.07846 12.309 8.08241 12.3122C8.08636 12.3153 8.09124 12.3171 8.0963 12.3173H8.09999C8.78942 12.2069 9.39064 11.92 9.89108 11.4627C9.89382 11.4604 9.89643 11.4579 9.89888 11.4553L9.90582 11.4486C9.97409 11.3851 10.0359 11.3248 10.0913 11.2644C10.1476 11.2059 10.2003 11.1441 10.2491 11.0793C10.2569 11.07 10.2491 11.06 10.2398 11.0576C10.0877 11.0292 9.93989 10.9812 9.80005 10.915Z" fill="white"/>
<path d="M2.98243 2.91099C2.68073 3.0445 2.38923 3.18429 2.0988 3.34814C2.04307 3.38011 2.00097 3.43138 1.98046 3.49227C1.95641 3.57506 1.92628 3.67324 1.90222 3.75604C1.88965 3.79938 1.89615 3.81672 1.94232 3.8022C2.17581 3.73371 2.41755 3.67483 2.66751 3.62556C2.65646 3.67021 2.63999 3.74151 2.62937 3.78594C2.4252 3.88044 2.21866 3.99228 2.01991 4.09956C2.034 4.04711 2.04809 4.00116 2.06326 3.94785C1.97656 3.99401 1.88987 4.04776 1.80491 4.09631C1.78172 4.17628 1.76156 4.24997 1.73989 4.32973C1.72363 4.38478 1.75181 4.39757 1.81228 4.36354C2.11896 4.19015 2.43886 4.0198 2.75789 3.87892C2.82096 3.8514 2.86951 3.79938 2.88165 3.74628C2.90115 3.65959 2.92196 3.56184 2.94146 3.47515C2.95122 3.43419 2.93908 3.41533 2.89313 3.42335C2.64237 3.4667 2.39876 3.52045 2.16447 3.58352C2.17422 3.5445 2.19677 3.47515 2.20782 3.43592C2.39291 3.33405 2.58277 3.24086 2.78563 3.1481C2.77458 3.19253 2.76396 3.23652 2.75356 3.28139C2.84025 3.24129 2.92694 3.20271 3.01364 3.16522C3.03033 3.095 3.04593 3.02477 3.06175 2.95433C3.0702 2.90232 3.04116 2.88541 2.98243 2.91099Z" fill="white"/>
<path d="M4.4355 2.39687C4.09149 2.49224 3.75295 2.60634 3.4214 2.73866C3.35486 3.04924 3.28464 3.37824 3.21875 3.68882C3.30891 3.65241 3.39972 3.61687 3.49075 3.58306C3.5406 3.33208 3.59478 3.05943 3.6442 2.80888C3.84295 2.73454 4.04256 2.66974 4.24499 2.60862C4.22938 2.70398 4.21096 2.81799 4.19536 2.91378C4.00463 2.97129 3.81535 3.03407 3.62751 3.10212C3.68906 3.13182 3.75127 3.16216 3.8152 3.19272C3.98859 3.13333 4.16306 3.07886 4.33862 3.0293C4.40212 3.01088 4.44698 2.9671 4.45392 2.91443C4.47559 2.76489 4.49987 2.60407 4.52132 2.45409C4.52913 2.40294 4.49705 2.37953 4.4355 2.39687Z" fill="white"/>
<path d="M5.99948 2.09693C5.64215 2.13924 5.28724 2.20001 4.93618 2.27899C4.87333 2.29329 4.83085 2.33642 4.82413 2.38887C4.79032 2.63486 4.75564 2.89039 4.7227 3.13183C4.71511 3.18255 4.75022 3.20596 4.81611 3.19079C5.18218 3.10749 5.55227 3.04296 5.92492 2.99746C5.98994 2.98944 6.03329 2.9526 6.03914 2.9021C6.05757 2.6626 6.07642 2.41466 6.09571 2.17062C6.0994 2.11817 6.06212 2.08913 5.99948 2.09693ZM5.75609 2.86373C5.50749 2.89863 5.2615 2.94046 5.01594 2.99247C5.03913 2.8063 5.06514 2.59282 5.08833 2.40426C5.31655 2.35636 5.56753 2.31388 5.81027 2.28007C5.79272 2.46884 5.77321 2.67908 5.75609 2.86373Z" fill="white"/>
<path d="M7.55145 2.60733C7.61647 2.60906 7.65786 2.57915 7.65635 2.52952C7.65353 2.39319 7.65093 2.2495 7.64789 2.11166C7.64789 2.05986 7.60455 2.02496 7.54278 2.02388C7.1821 2.01507 6.82121 2.02585 6.46171 2.05617C6.45022 2.3544 6.44003 2.65479 6.42725 2.94673C6.52153 2.93936 6.61646 2.9333 6.71095 2.92831C6.71702 2.6912 6.72331 2.43827 6.72959 2.19705C6.94307 2.18491 7.15764 2.18123 7.37308 2.18253C7.37308 2.26922 7.37438 2.36068 7.37503 2.44673C7.16956 2.44521 6.96323 2.44803 6.75885 2.45821C6.80718 2.49116 7.27208 2.79762 7.4576 2.91877C7.5742 2.92094 7.69102 2.92463 7.80784 2.93069V2.92246C7.63879 2.81301 7.49618 2.70572 7.33363 2.60429C7.41621 2.60364 7.46865 2.60538 7.55145 2.60733Z" fill="white"/>
<path d="M7.88459 2.19858C8.04823 2.20703 8.21251 2.22025 8.37636 2.23738C8.39392 2.48077 8.41169 2.74085 8.42903 2.97796C8.52222 2.98771 8.61607 2.99963 8.70948 3.01133C8.68976 2.77293 8.6696 2.51284 8.64923 2.26945C8.81286 2.29113 8.97715 2.31692 9.1397 2.34661C9.13406 2.28787 9.1306 2.24193 9.12409 2.18254C8.71136 2.10783 8.29434 2.05918 7.87549 2.0369C7.87896 2.09541 7.88134 2.14049 7.88459 2.19858Z" fill="white"/>
<path d="M9.46797 3.12577C9.5629 3.14506 9.65783 3.16479 9.75254 3.18603C9.71461 2.88628 9.6756 2.57484 9.63659 2.27574C9.54729 2.2558 9.45749 2.23702 9.36719 2.21939C9.40078 2.51697 9.43459 2.82755 9.46797 3.12577Z" fill="white"/>
<path d="M11.0461 3.28158C10.7793 2.99983 10.5112 2.69965 10.2483 2.43003C10.159 2.40533 10.066 2.38019 9.97607 2.35699C10.024 2.66389 10.0717 2.97967 10.1174 3.27638C10.2121 3.29914 10.3055 3.32558 10.3991 3.35094C10.3658 3.14786 10.33 2.92245 10.2953 2.71439C10.561 2.98617 10.8372 3.29394 11.107 3.57764C11.1954 3.60864 11.2769 3.64071 11.3712 3.67734C11.312 3.38171 11.2457 3.05119 11.1852 2.74538C11.0985 2.71179 11.0118 2.67928 10.9252 2.64764C10.9633 2.85245 11.0082 3.08045 11.0461 3.28158Z" fill="white"/>
<path d="M12.8634 4.30696C12.8225 4.15524 12.7702 3.95845 12.7466 3.87067C12.5125 3.73933 12.4263 3.69165 12.1525 3.55424L12.296 3.75623C12.4193 3.82017 12.4419 3.83187 12.5414 3.88628C12.5641 3.96083 12.5893 4.05554 12.6064 4.11385C12.3795 3.98576 12.2189 3.90882 11.99 3.79893C11.9297 3.56442 11.8805 3.35788 11.8326 3.16087C12.0667 3.26923 12.2189 3.34531 12.4289 3.45692C12.4399 3.50396 12.4555 3.56182 12.4555 3.56182L12.6998 3.69967C12.6998 3.69967 12.6651 3.57548 12.6447 3.50461C12.6371 3.47477 12.6232 3.44688 12.6041 3.42276C12.5849 3.39863 12.5609 3.37882 12.5336 3.3646C12.2265 3.19858 12.011 3.08826 11.6313 2.91856C11.5726 2.89211 11.5396 2.91444 11.5526 2.96862C11.6118 3.22328 11.6738 3.50851 11.7332 3.76209C11.7455 3.81584 11.7925 3.85832 11.855 3.88562C12.182 4.03062 12.4506 4.16543 12.7728 4.34532C12.8489 4.38693 12.8858 4.38715 12.8634 4.30696Z" fill="white"/>
<path d="M1.98811 2.07351C1.91811 2.03797 1.84984 2.00394 1.78287 1.97078C1.75881 2.05075 1.73432 2.13268 1.70939 2.21721C1.66106 2.24321 1.61251 2.26922 1.56396 2.2961C1.63115 2.08825 1.69401 1.89341 1.75252 1.71092C1.79587 1.68924 1.83705 1.66887 1.87888 1.64893C1.85894 1.71655 1.81689 1.85613 1.81689 1.85613L2.12032 1.53103C2.12032 1.53103 2.23476 1.48291 2.28439 1.46124C2.28439 1.46124 2.30606 1.45235 2.30606 1.45365C2.19986 1.56917 2.02973 1.75058 1.91269 1.88127C1.9957 1.92201 2.05313 1.95171 2.14113 1.99635C2.14127 1.9978 2.14127 1.99925 2.14113 2.00069C2.08218 2.02886 2.04793 2.04404 1.98811 2.07351Z" fill="white"/>
<path d="M3.10364 1.59887C3.09583 1.57372 3.08803 1.54858 3.08045 1.52366C2.97858 1.56137 2.8752 1.60125 2.77247 1.6433C2.74928 1.68058 2.72652 1.71807 2.70311 1.75557L2.56592 1.81343C2.56597 1.81293 2.56597 1.81242 2.56592 1.81192C2.70145 1.59793 2.83257 1.39001 2.95929 1.18815C3.00264 1.17125 3.0475 1.15434 3.09128 1.13831C3.13203 1.27543 3.17538 1.41428 3.22132 1.55487C3.22144 1.55529 3.22144 1.55574 3.22132 1.55617L3.10364 1.59887ZM3.00134 1.26748C2.94824 1.35417 2.89449 1.44368 2.83965 1.53298C2.91248 1.50437 2.98465 1.47619 3.05639 1.4491C3.03797 1.38842 3.01911 1.32773 3.00134 1.26748Z" fill="white"/>
<path d="M4.26398 1.24084L3.98895 0.997012C3.96728 1.10863 3.94669 1.22046 3.92545 1.3336L3.7915 1.37391C3.82445 1.20789 3.85703 1.04426 3.88925 0.883009C3.9326 0.870656 3.97334 0.858518 4.01539 0.847248L4.28804 1.08045C4.30538 0.973677 4.32258 0.867982 4.33963 0.763372C4.38189 0.752535 4.4235 0.742999 4.46576 0.733246C4.44164 0.889728 4.41743 1.04809 4.39316 1.20833C4.35003 1.21895 4.30755 1.22978 4.26398 1.24084Z" fill="white"/>
<path d="M5.58242 0.982271C5.42767 1.0038 5.27234 1.02851 5.11644 1.05639C5.08566 1.06225 5.0681 1.04924 5.07114 1.02215C5.07591 0.984221 5.08024 0.945642 5.08479 0.907497C5.12814 0.899261 5.17149 0.891459 5.21483 0.884307C5.21202 0.909665 5.20942 0.935239 5.20638 0.960597C5.30738 0.943692 5.40773 0.92722 5.50808 0.912916C5.50981 0.891242 5.51263 0.869569 5.51414 0.847895C5.38555 0.830123 5.25717 0.81459 5.12901 0.801297C5.10365 0.799563 5.09801 0.788727 5.1004 0.767487C5.10517 0.727824 5.1095 0.688162 5.11449 0.6485C5.11643 0.635011 5.12281 0.622554 5.13262 0.613096C5.14244 0.603638 5.15512 0.597716 5.16867 0.596267C5.32111 0.569825 5.47282 0.546562 5.62381 0.526478C5.65329 0.52301 5.66976 0.536448 5.66716 0.562456C5.66434 0.5967 5.66152 0.631161 5.65849 0.665622C5.61514 0.671474 5.5718 0.676892 5.52845 0.683177C5.5304 0.661504 5.53235 0.63983 5.53495 0.618157C5.43612 0.631811 5.33686 0.646983 5.23802 0.663454C5.23586 0.68231 5.23412 0.701166 5.23196 0.719805C5.3594 0.73411 5.48727 0.750365 5.61579 0.769654C5.63963 0.772688 5.647 0.784609 5.64483 0.804548C5.64158 0.847895 5.63768 0.889725 5.63422 0.932422C5.63262 0.945416 5.6266 0.957464 5.61716 0.966542C5.60773 0.97562 5.59546 0.981174 5.58242 0.982271Z" fill="white"/>
<path d="M6.83247 0.869768C6.8186 0.84376 6.80451 0.817969 6.79021 0.791961C6.68531 0.796729 6.58106 0.802798 6.47659 0.810817C6.45969 0.838559 6.44322 0.866301 6.42609 0.894259L6.28955 0.905746C6.3878 0.747964 6.48396 0.591698 6.57802 0.43695C6.62354 0.433699 6.66905 0.430881 6.71522 0.428497C6.79873 0.572987 6.88427 0.718343 6.97183 0.864567V0.865867C6.92567 0.864784 6.87863 0.866951 6.83247 0.869768ZM6.64283 0.522994C6.60382 0.590759 6.56451 0.658597 6.52492 0.726507C6.59905 0.721522 6.67339 0.716971 6.74729 0.713503C6.71218 0.650217 6.67685 0.586713 6.64283 0.522994Z" fill="white"/>
<path d="M8.19647 0.892953C8.03912 0.881466 7.88091 0.873014 7.72248 0.868462C7.69127 0.868462 7.67024 0.850257 7.66959 0.825116C7.66959 0.787621 7.66786 0.750342 7.66677 0.712847C7.71164 0.712847 7.7565 0.715881 7.80072 0.717399C7.80072 0.742323 7.80245 0.767247 7.8031 0.792172C7.90569 0.796507 8.00784 0.801853 8.10956 0.80821C8.10826 0.786537 8.1074 0.764863 8.10631 0.74319C7.96955 0.698109 7.83388 0.655413 7.6982 0.6151C7.67176 0.607731 7.66396 0.595811 7.66309 0.575654C7.66309 0.536209 7.66136 0.498063 7.66071 0.459051C7.65941 0.43326 7.67891 0.417655 7.70904 0.418522C7.86379 0.424301 8.01788 0.433115 8.17133 0.444964C8.18398 0.444185 8.19643 0.448406 8.206 0.456716C8.21556 0.465026 8.22148 0.476761 8.22248 0.489394C8.22508 0.523205 8.22725 0.557232 8.2292 0.590609L8.09916 0.581073C8.09808 0.559399 8.09743 0.537726 8.09591 0.517569C7.99578 0.510417 7.89586 0.504999 7.79551 0.500664C7.79551 0.519087 7.79551 0.537292 7.7966 0.555715C7.93213 0.59675 8.06759 0.640097 8.20298 0.685755C8.21282 0.687554 8.22173 0.692703 8.22821 0.700327C8.23469 0.707951 8.23833 0.717582 8.23852 0.727585C8.24134 0.769632 8.24372 0.811678 8.24676 0.853725C8.24611 0.880166 8.22768 0.895121 8.19647 0.892953Z" fill="white"/>
<path d="M10.0054 1.16431C9.84005 1.12595 9.67534 1.09214 9.51018 1.06201C9.497 1.06034 9.48473 1.05439 9.47525 1.04507C9.46578 1.03575 9.45962 1.02358 9.45773 1.01043C9.44365 0.885588 9.42891 0.760966 9.41439 0.635043C9.41157 0.608168 9.42718 0.594297 9.45622 0.599499C9.61805 0.626952 9.78089 0.658668 9.94474 0.694645C9.95848 0.6972 9.97111 0.703911 9.98091 0.713872C9.99072 0.723834 9.99723 0.736565 9.99957 0.750346C10.0046 0.793693 10.0106 0.83704 10.0163 0.880387C9.97291 0.870417 9.92957 0.860736 9.88622 0.851344C9.88232 0.823169 9.87863 0.79456 9.87517 0.766385C9.76506 0.742977 9.65547 0.721304 9.54638 0.701364C9.55787 0.798678 9.56914 0.896425 9.58084 0.991572C9.69166 1.01151 9.80234 1.03391 9.91288 1.05876C9.90963 1.02928 9.90551 0.999157 9.90161 0.969465L10.0316 0.998941C10.0373 1.04359 10.0433 1.08802 10.0496 1.13223C10.054 1.15932 10.036 1.17146 10.0054 1.16431Z" fill="white"/>
<path d="M10.6932 1.33793C10.6618 1.17537 10.631 1.01412 10.5996 0.855042C10.643 0.867179 10.6841 0.879749 10.7266 0.89232C10.7593 1.0527 10.7916 1.2146 10.8254 1.37824C10.7817 1.36458 10.7366 1.35071 10.6932 1.33793Z" fill="white"/>
<path d="M11.6388 1.27291C11.6723 1.41032 11.7066 1.55076 11.7415 1.69424C11.6969 1.67495 11.6529 1.65566 11.6091 1.63746C11.5768 1.49788 11.5441 1.36069 11.5144 1.22566C11.4422 1.19944 11.3716 1.17473 11.3018 1.15132C11.2951 1.1212 11.2888 1.09085 11.2827 1.06094C11.4604 1.11874 11.6489 1.18585 11.848 1.26229C11.8568 1.2961 11.8664 1.32991 11.8755 1.3635C11.7946 1.33251 11.716 1.30195 11.6388 1.27291Z" fill="white"/>
<path d="M12.7739 1.97056C12.7925 2.03211 12.8172 2.12812 12.8363 2.18989C12.791 2.16518 12.747 2.14091 12.7026 2.1175C12.685 2.05725 12.6687 1.98746 12.6514 1.92634C12.5331 1.77203 12.4102 1.59886 12.3003 1.4556C12.3003 1.45429 12.3003 1.45278 12.3003 1.45148C12.3426 1.4699 12.4394 1.51303 12.4826 1.53254C12.5647 1.6422 12.6453 1.76054 12.6993 1.82729C12.7502 1.77224 12.8131 1.6901 12.8131 1.6901C12.8131 1.6901 12.8889 1.72998 12.9379 1.75512C12.9386 1.75667 12.9391 1.75826 12.9394 1.75989C12.8835 1.83098 12.8287 1.9012 12.7739 1.97056Z" fill="white"/>
<path d="M7.30483 8.72965V7.60025C5.21637 7.69778 3.31258 8.37703 1.81689 9.44986C1.95009 9.7648 2.10417 10.0705 2.27811 10.3649C3.66152 9.43556 5.39886 8.83932 7.30483 8.72965Z" fill="#A6BBD6"/>
<path d="M1.23486 6.60347C2.38984 5.82691 3.73273 5.26188 5.19308 4.97254C4.87882 4.59976 4.58146 4.25732 4.2971 3.93872C3.29117 4.20825 2.32812 4.61784 1.43621 5.15547C1.30877 5.68473 1.24115 6.14248 1.23486 6.60347Z" fill="#A6BBD6"/>
<path d="M5.79926 5.70294C4.11567 5.96866 2.57794 6.60716 1.29834 7.51961C1.33562 7.78186 1.38959 8.05776 1.46046 8.35989C1.48213 8.45438 1.50706 8.54845 1.53371 8.64164C2.95397 7.62603 4.72253 6.95372 6.6675 6.77773C6.36436 6.39758 6.07495 6.03931 5.79926 5.70294Z" fill="#A6BBD6"/>
<path d="M7.30503 13.7312C6.82676 13.7894 6.35338 13.8824 5.88867 14.0095C6.34315 14.3116 6.81621 14.5848 7.30503 14.8275V13.7312Z" fill="#A6BBD6"/>
<path d="M7.30484 10.7247V9.6369C5.59112 9.76044 4.0237 10.2836 2.75342 11.089C2.94761 11.3562 3.15958 11.6183 3.38932 11.8753C4.5107 11.2546 5.84947 10.8452 7.30484 10.7247Z" fill="#A6BBD6"/>
<path d="M7.30495 12.7265V11.6796C6.11811 11.7962 5.01537 12.1072 4.05957 12.5682C4.33786 12.8322 4.62026 13.0739 4.89725 13.2932C5.67247 13.0028 6.48156 12.8123 7.30495 12.7265Z" fill="#A6BBD6"/>
</g>
<defs>
<clipPath id="clip0_795_1618">
<rect width="14.2603" height="16" fill="white" transform="translate(0.181641)"/>
</clipPath>
</defs>
</svg>
