<svg width="41" height="16" viewBox="0 0 41 16" fill="none" xmlns="http://www.w3.org/2000/svg">
<g clip-path="url(#clip0_759_386)">
<g clip-path="url(#clip1_759_386)">
<path d="M6.58645 2.53363C3.56741 2.41372 1.02298 4.76394 0.903073 7.78297C0.783169 10.8025 3.13338 13.3469 6.15288 13.4663C9.17191 13.5863 11.7163 11.236 11.8362 8.217C11.9562 5.19796 9.60548 2.65308 6.58645 2.53363ZM8.89609 10.5481C8.85317 10.6233 8.78216 10.6784 8.69865 10.7013C8.61514 10.7242 8.52595 10.713 8.45066 10.6703C7.72738 10.2587 6.93244 9.98841 6.1082 9.87378C5.28436 9.75679 4.4458 9.79748 3.63716 9.99368C3.55464 10.0097 3.46912 9.9933 3.39837 9.94791C3.32761 9.90251 3.27707 9.8316 3.25723 9.74991C3.2374 9.66822 3.2498 9.58203 3.29185 9.50924C3.33391 9.43645 3.40239 9.38267 3.48307 9.35905C4.37209 9.14295 5.28619 9.09873 6.19938 9.22684C7.11257 9.35541 7.97879 9.64992 8.7739 10.1022C8.8112 10.1234 8.84395 10.1518 8.87028 10.1857C8.89661 10.2197 8.916 10.2584 8.92735 10.2998C8.93869 10.3412 8.94177 10.3845 8.93641 10.4271C8.93104 10.4696 8.91734 10.5108 8.89609 10.5481ZM9.61506 9.11195C9.58858 9.16103 9.55269 9.20441 9.50943 9.2396C9.46616 9.27479 9.41639 9.3011 9.36294 9.31703C9.30949 9.33295 9.25343 9.33818 9.19797 9.3324C9.1425 9.32663 9.08872 9.30996 9.0397 9.28337C8.19271 8.82546 7.27061 8.52283 6.317 8.38979C5.36365 8.25483 4.39384 8.29158 3.45343 8.4983C3.39894 8.51038 3.34261 8.51158 3.28765 8.50184C3.2327 8.4921 3.1802 8.4716 3.13319 8.44153C3.08617 8.41146 3.04555 8.3724 3.01367 8.32659C2.98178 8.28078 2.95925 8.22913 2.94737 8.1746C2.93529 8.12011 2.93409 8.06377 2.94383 8.00882C2.95357 7.95386 2.97406 7.90137 3.00414 7.85436C3.03421 7.80734 3.07327 7.76672 3.11908 7.73484C3.16488 7.70295 3.21654 7.68042 3.27107 7.66854C4.3101 7.43972 5.38176 7.39926 6.43508 7.54909C7.48892 7.69543 8.50793 8.02975 9.44363 8.53614C9.6497 8.64783 9.7263 8.90542 9.61506 9.11195ZM10.412 7.49301C10.348 7.61593 10.2378 7.7084 10.1056 7.75012C9.97345 7.79183 9.83013 7.77938 9.70715 7.7155C8.72085 7.20272 7.65416 6.86227 6.55316 6.70885C5.45249 6.55274 4.33322 6.58589 3.24371 6.80687C3.10869 6.83254 2.96899 6.80397 2.85488 6.72735C2.74077 6.65074 2.66145 6.53224 2.63411 6.39755C2.60676 6.26285 2.63359 6.12281 2.70878 6.00775C2.78398 5.8927 2.90147 5.81192 3.03582 5.7829C4.24161 5.53815 5.48035 5.50114 6.6986 5.67348C7.91721 5.84357 9.09782 6.22056 10.1895 6.78818C10.4453 6.9213 10.5451 7.23679 10.412 7.49301ZM16.6178 7.4766L16.2385 7.36399C15.4771 7.13832 15.2629 7.05352 15.2629 6.74715C15.2629 6.45673 15.5857 6.14215 16.295 6.14215C16.9967 6.14215 17.5894 6.485 17.8953 6.7394C17.9482 6.78316 18.0047 6.7631 18.0047 6.69472V5.6908C18.0047 5.64658 17.9924 5.62242 17.96 5.59825C17.5816 5.31559 16.9242 5.11043 16.2627 5.11043C14.9164 5.11043 14.1099 5.87636 14.1099 6.74715C14.1099 7.73054 14.7349 8.07384 15.763 8.3638L16.2066 8.48872C16.9766 8.70665 17.1175 8.89995 17.1175 9.19812C17.1175 9.69825 16.7386 9.85144 16.1738 9.85144C15.4644 9.85144 14.5977 9.4361 14.1906 8.92822C14.1541 8.88354 14.1099 8.90406 14.1099 8.95649V10.0612C14.1099 10.1054 14.1144 10.1254 14.1463 10.1615C14.4851 10.5326 15.2952 10.859 16.239 10.859C17.3997 10.859 18.2705 10.182 18.2705 9.13383C18.2705 8.31912 17.7909 7.82765 16.6178 7.4766ZM21.2257 6.6742C20.4598 6.6742 20.0162 7.14196 19.7581 7.60973V6.80368C19.7581 6.76721 19.7381 6.74715 19.7016 6.74715H18.6895C18.6535 6.74715 18.6334 6.76721 18.6334 6.80368V11.9755C18.6334 12.012 18.6535 12.0321 18.6899 12.0321H19.7021C19.7381 12.0321 19.7581 12.012 19.7581 11.9755V9.90751C20.0162 10.3748 20.4516 10.8348 21.2339 10.8348C22.2661 10.8348 23.0074 9.94353 23.0074 8.74631C23.0074 7.54909 22.2579 6.6742 21.2257 6.6742ZM20.9275 9.85919C20.3873 9.85919 19.9195 9.32714 19.734 8.73856C19.9195 8.11761 20.3467 7.6421 20.9275 7.6421C21.4797 7.6421 21.8626 8.06153 21.8626 8.74677C21.8626 9.432 21.4797 9.85919 20.9275 9.85919ZM39.4525 6.74715H38.4204C38.3839 6.74715 38.3679 6.7549 38.352 6.79137L37.3116 9.29112L36.2675 6.79137C36.2516 6.7549 36.2356 6.74715 36.1992 6.74715H34.5301V6.48089C34.5301 6.0455 34.8241 5.84399 35.203 5.84399C35.4291 5.84399 35.6749 5.9607 35.8481 6.06556C35.8887 6.08972 35.9165 6.06191 35.9005 6.02544L35.5376 5.15876C35.5267 5.1324 35.5066 5.11087 35.4811 5.09812C35.3038 5.00557 35.0138 4.92487 34.7316 4.92487C33.8768 4.92487 33.3848 5.57774 33.3848 6.40841V6.74715H32.6996C32.6631 6.74715 32.6431 6.76721 32.6431 6.80368V7.60973C32.6431 7.6462 32.6631 7.66626 32.6996 7.66626H33.3848V10.7063C33.3848 10.7427 33.4049 10.7623 33.4414 10.7623H34.4735C34.51 10.7623 34.5301 10.7423 34.5301 10.7063V7.66626H35.4127L36.6947 10.4519L36.0054 11.9678C35.9853 12.0124 36.0095 12.0325 36.0496 12.0325H37.1502C37.1867 12.0325 37.2031 12.0243 37.2186 11.9883L39.4968 6.81143C39.5127 6.77496 39.4927 6.74715 39.4525 6.74715ZM25.5236 6.65049C24.2174 6.65049 23.3183 7.57371 23.3183 8.75497C23.3183 9.92803 24.2169 10.8595 25.5236 10.8595C26.8257 10.8595 27.7329 9.92803 27.7329 8.75497C27.7329 7.57371 26.8257 6.65049 25.5236 6.65049ZM25.5272 9.8715C24.9026 9.8715 24.459 9.39598 24.459 8.75452C24.459 8.11396 24.9026 7.63799 25.5272 7.63799C26.1482 7.63799 26.5918 8.11351 26.5918 8.75497C26.5918 9.39598 26.1482 9.87195 25.5272 9.87195M40.8189 6.98422C40.7668 6.89367 40.6905 6.81934 40.5987 6.76949C40.5018 6.7168 40.393 6.69009 40.2827 6.69198C40.166 6.69198 40.0607 6.71782 39.9668 6.76949C39.8748 6.81927 39.7984 6.8936 39.7461 6.98422C39.6933 7.07601 39.6668 7.1795 39.6668 7.29469C39.6668 7.40867 39.6933 7.51156 39.7461 7.60335C39.7993 7.69453 39.8729 7.7661 39.9668 7.81808C40.0607 7.87005 40.166 7.89589 40.2827 7.89558C40.3995 7.89528 40.5048 7.86944 40.5987 7.81808C40.6926 7.76671 40.766 7.69513 40.8189 7.60335C40.8718 7.51156 40.8984 7.40882 40.8987 7.29515C40.8987 7.17965 40.8721 7.07601 40.8189 6.98422ZM40.7227 7.55274C40.6808 7.62775 40.6185 7.68939 40.5431 7.73054C40.4633 7.77402 40.3736 7.79601 40.2827 7.79437C40.1912 7.7962 40.1007 7.7742 40.0201 7.73054C39.9452 7.68918 39.8834 7.62757 39.8419 7.55274C39.7986 7.47371 39.7766 7.38479 39.7781 7.29469C39.7781 7.19865 39.7993 7.11324 39.8419 7.03847C39.8844 6.9637 39.9439 6.90474 40.0201 6.86158C40.0964 6.81842 40.184 6.79714 40.2827 6.79775C40.38 6.79775 40.4666 6.81903 40.5426 6.86158C40.6195 6.90444 40.6795 6.9637 40.7227 7.03938C40.7659 7.11507 40.7874 7.20093 40.7874 7.29697C40.7874 7.3918 40.7659 7.47691 40.7227 7.55228M31.6797 4.91712C31.2922 4.91712 31.0105 5.19067 31.0105 5.55357C31.0105 5.91648 31.2927 6.19048 31.6797 6.19048C32.0745 6.19048 32.3568 5.91693 32.3568 5.55357C32.3568 5.19067 32.0745 4.91712 31.6797 4.91712ZM40.492 7.28284C40.5113 7.26955 40.527 7.25168 40.5376 7.23083C40.5483 7.20998 40.5536 7.1868 40.5531 7.16339C40.5531 7.11233 40.533 7.07191 40.4929 7.04212C40.4528 7.01203 40.3949 6.99698 40.3192 6.99698H40.0511V7.5573H40.1806V7.33436H40.2508L40.4213 7.5573H40.5809L40.394 7.32114C40.4292 7.31619 40.4628 7.30308 40.492 7.28284ZM40.2987 7.23315H40.1802V7.09637H40.3033C40.3397 7.09637 40.3677 7.10184 40.3872 7.11279C40.3968 7.1177 40.4047 7.12534 40.41 7.13475C40.4152 7.14416 40.4176 7.15492 40.4168 7.16567C40.4171 7.17615 40.4144 7.18648 40.4089 7.19546C40.4035 7.20443 40.3956 7.21165 40.3862 7.21628C40.3589 7.22906 40.3288 7.23485 40.2987 7.23315ZM32.1995 6.74715H31.1677C31.1313 6.74715 31.1112 6.76721 31.1112 6.80368V10.7063C31.1112 10.7427 31.1313 10.7623 31.1677 10.7623H32.1995C32.2359 10.7623 32.256 10.7423 32.256 10.7063V6.80368C32.256 6.76721 32.2359 6.74715 32.1995 6.74715ZM30.6799 9.75843C30.5329 9.83882 30.3674 9.87923 30.1998 9.8756C29.8693 9.8756 29.6596 9.68184 29.6596 9.25465V7.66626H30.6676C30.7041 7.66626 30.7241 7.6462 30.7241 7.60973V6.80368C30.7241 6.76721 30.7041 6.74715 30.6676 6.74715H29.66V5.69491C29.66 5.65068 29.6313 5.62652 29.5917 5.65843L27.789 7.07768C27.7648 7.09774 27.7571 7.1178 27.7571 7.15063V7.60973C27.7571 7.6462 27.7771 7.66626 27.8132 7.66626H28.5148V9.42379C28.5148 10.3753 29.0633 10.8189 29.8451 10.8189C30.1839 10.8189 30.5108 10.7304 30.7041 10.6174C30.7323 10.6014 30.736 10.5855 30.736 10.5567V9.7908C30.736 9.75068 30.7159 9.73792 30.6799 9.75843Z" fill="#1ED760"/>
</g>
</g>
<defs>
<clipPath id="clip0_759_386">
<rect width="40" height="16" fill="white" transform="translate(0.898926)"/>
</clipPath>
<clipPath id="clip1_759_386">
<rect width="40" height="10.9415" fill="white" transform="translate(0.898926 2.52924)"/>
</clipPath>
</defs>
</svg>
