<svg width="17" height="16" viewBox="0 0 17 16" fill="none" xmlns="http://www.w3.org/2000/svg">
<g clip-path="url(#clip0_781_306)">
<path d="M8.32578 15.9699C12.7358 15.9699 16.3107 12.3949 16.3107 7.98496C16.3107 3.57499 12.7358 0 8.32578 0C3.91581 0 0.34082 3.57499 0.34082 7.98496C0.34082 12.3949 3.91581 15.9699 8.32578 15.9699Z" fill="white"/>
<path d="M9.12871 3.4522C9.05871 3.43969 8.72124 3.383 8.32574 3.383C7.93025 3.383 7.59277 3.43943 7.52277 3.4522C7.48259 3.45939 7.46715 3.42 7.49776 3.39711C7.52543 3.37662 8.32547 2.76767 8.32547 2.76767L9.15293 3.39711C9.18407 3.42 9.1689 3.45939 9.12871 3.4522ZM7.74634 7.40609C7.74634 7.40609 7.70402 7.42126 7.69284 7.45852C7.86051 7.58734 7.97602 7.88037 8.32574 7.88037C8.67546 7.88037 8.79097 7.58734 8.95837 7.45852C8.94746 7.421 8.90514 7.40609 8.90514 7.40609C8.90514 7.40609 8.6861 7.45772 8.32574 7.45772C7.96538 7.45772 7.74634 7.40609 7.74634 7.40609ZM8.32574 6.91292C8.2286 6.91292 8.20731 6.87619 8.14103 6.87646C8.07796 6.87672 7.95553 6.92703 7.92891 6.97307C7.93078 6.99649 7.93929 7.01752 7.95633 7.03615C8.09792 7.05744 8.16179 7.13622 8.32601 7.13622C8.49022 7.13622 8.55383 7.05744 8.69569 7.03615C8.71219 7.01752 8.72124 6.99676 8.7231 6.97307C8.69675 6.92703 8.57406 6.87699 8.51071 6.87646C8.44418 6.87593 8.42262 6.91292 8.32574 6.91292ZM16.2985 8.42278C16.2883 8.6136 16.2713 8.80283 16.2479 8.98994C15.3441 9.13951 15.021 8.33415 14.095 8.3746C14.1504 8.57102 14.1954 8.77116 14.23 8.97556C14.9935 8.97503 15.3012 9.68884 16.1507 9.58371C16.106 9.80195 16.0523 10.0173 15.9903 10.2294C15.3185 10.2954 15.0819 9.62789 14.3045 9.64626C14.3109 9.75697 14.3143 9.86876 14.3143 9.9816L14.3111 10.1682L15.8207 10.7441C15.7417 10.9589 15.6533 11.1689 15.557 11.3746C15.1032 11.3496 14.9467 10.7675 14.2563 10.8138C14.2355 10.9632 14.2092 11.1106 14.1778 11.2562C14.7774 11.2141 14.9065 11.7661 15.3361 11.8108C15.2267 12.0104 15.1088 12.2047 14.9834 12.394C14.729 12.2577 14.5084 11.8465 14.0258 11.8212C14.0753 11.6684 14.1187 11.5135 14.1554 11.356C13.7275 11.356 13.238 11.1891 12.8276 10.8154C12.9607 10.058 11.7851 9.28669 11.7851 8.73204C11.7851 8.12948 12.0899 7.796 12.0899 6.98372C12.0899 6.38089 11.7971 5.72697 11.3556 5.2801C11.2701 5.19334 11.1826 5.12308 11.082 5.06C11.4876 5.56195 11.799 6.15706 11.799 6.84638C11.799 7.61129 11.4431 8.01504 11.4431 8.72113C11.4431 9.42695 12.4758 10.0378 12.4758 10.7657C12.4758 11.052 12.3842 11.3318 12.0824 11.8811C12.546 12.3442 13.1499 12.5968 13.5396 12.5968C13.666 12.5968 13.7339 12.5582 13.7791 12.4589C13.818 12.3732 13.855 12.2864 13.8898 12.1989C14.3095 12.2151 14.5017 12.5965 14.734 12.7487C14.6066 12.9199 14.4727 13.0852 14.3324 13.2451C14.1767 13.0726 13.9675 12.7825 13.6612 12.7019C13.6064 12.8084 13.5484 12.9135 13.4874 13.0165C13.7512 13.0883 13.9316 13.3545 14.0713 13.5296C13.9207 13.6856 13.7639 13.8352 13.6008 13.9789C13.4989 13.8202 13.3402 13.619 13.1624 13.5105C13.0967 13.5993 13.0283 13.6861 12.9578 13.7705C13.1089 13.8729 13.2423 14.0574 13.3293 14.2078C13.1409 14.3589 12.9461 14.5024 12.7443 14.6365C12.6448 13.8256 11.5379 13.2699 11.8362 12.329C11.7383 12.4948 11.6214 12.7022 11.6214 12.9518C11.6214 13.6329 12.347 14.1734 12.4047 14.8502C12.2543 14.9402 12.1005 15.0248 11.9438 15.1049C11.9177 14.3611 11.1496 13.5469 11.1496 12.9364C11.1496 12.2548 12.0422 11.5702 12.0422 10.7657C12.0422 9.96058 11.0122 9.40326 11.0122 8.69638C11.0122 7.99002 11.4503 7.58361 11.4503 6.67818C11.4503 6.01494 11.1352 5.34371 10.6484 4.91495C10.5622 4.83883 10.4773 4.77842 10.3753 4.72545C10.8344 5.27611 11.1006 5.77567 11.1006 6.53366C11.1006 7.38507 10.5986 7.85774 10.5986 8.69132C10.5986 9.52516 11.6095 9.98879 11.6095 10.7659C11.6095 11.5431 10.6686 12.1981 10.6686 12.9965C10.6686 13.7228 11.498 14.4478 11.5102 15.3096C11.329 15.3887 11.1442 15.4608 10.9563 15.5263C11.0617 14.6557 10.1284 13.7577 10.1284 13.0474C10.1284 12.2707 11.1043 11.6032 11.1043 10.7659C11.1043 9.92811 10.1121 9.53873 10.1121 8.67881C10.1121 7.81942 10.7208 7.34355 10.7208 6.39393C10.7208 5.65378 10.3554 4.98814 9.82149 4.57561L9.78769 4.55006C9.73739 4.5128 9.69587 4.55778 9.73153 4.60196C10.1095 5.07384 10.3115 5.55104 10.3115 6.25766C10.3115 7.12637 9.6123 7.83219 9.6123 8.67375C9.6123 9.66702 10.5513 9.951 10.5513 10.7659C10.5513 11.5806 9.54443 12.2324 9.54443 13.0974C9.54443 13.8996 10.4972 14.7898 10.3338 15.7158C10.1427 15.7653 9.94898 15.8084 9.75229 15.8435C9.93114 14.6906 8.99643 13.8626 8.99643 13.1083C8.99643 12.2918 10.0392 11.5639 10.0392 10.7659C10.0392 10.0133 9.29079 9.76735 9.19232 8.99739C9.17874 8.89226 9.09437 8.81428 8.97807 8.83371C8.8261 8.86139 8.63128 8.96146 8.32521 8.96146C8.01914 8.96146 7.82432 8.86112 7.67208 8.83371C7.55604 8.81454 7.47167 8.89253 7.4581 8.99739C7.35989 9.76735 6.61095 10.013 6.61095 10.7659C6.61095 11.5639 7.65398 12.2915 7.65398 13.1083C7.65398 13.8626 6.71927 14.6906 6.89786 15.8435C6.70144 15.8081 6.50742 15.765 6.31633 15.7158C6.15291 14.7898 7.10599 13.8996 7.10599 13.0974C7.10599 12.2324 6.09888 11.5806 6.09888 10.7659C6.09888 9.951 7.03812 9.66702 7.03812 8.67375C7.03812 7.83219 6.33868 7.12664 6.33868 6.25766C6.33868 5.55131 6.54069 5.07411 6.91888 4.60196C6.95428 4.55778 6.91303 4.5128 6.86246 4.55006L6.82893 4.57561C6.29557 4.98708 5.93041 5.65271 5.93041 6.39287C5.93041 7.34248 6.53909 7.81835 6.53909 8.67774C6.53909 9.5374 5.54689 9.92678 5.54689 10.7649C5.54689 11.6022 6.52286 12.2697 6.52286 13.0463C6.52286 13.7569 5.58948 14.6546 5.69514 15.5252C5.50697 15.4597 5.32226 15.3873 5.14102 15.3085C5.15353 14.4468 5.98231 13.7215 5.98231 12.9955C5.98231 12.197 5.04201 11.542 5.04201 10.7649C5.04201 9.98772 6.05231 9.52409 6.05231 8.69025C6.05231 7.85668 5.55062 7.384 5.55062 6.53259C5.55062 5.77461 5.8165 5.27505 6.27561 4.72439C6.1734 4.77735 6.08877 4.83777 6.0028 4.91388C5.51602 5.34265 5.20117 6.01387 5.20117 6.67711C5.20117 7.58255 5.63925 7.98895 5.63925 8.69531C5.63925 9.4022 4.60925 9.95951 4.60925 10.7646C4.60925 11.5692 5.50191 12.254 5.50191 12.9353C5.50191 13.5461 4.73328 14.3603 4.70746 15.1039C4.5507 15.0238 4.39687 14.9391 4.2465 14.8492C4.30452 14.1724 5.02977 13.6318 5.02977 12.9507C5.02977 12.7011 4.9132 12.4938 4.81499 12.328C5.11334 13.2688 4.00643 13.8245 3.90689 14.6355C3.70515 14.5013 3.51007 14.3579 3.3219 14.2067C3.40866 14.0566 3.542 13.8719 3.69344 13.7694C3.62265 13.6853 3.55451 13.5983 3.48877 13.5094C3.31072 13.618 3.15183 13.8192 3.05016 13.9778C2.88755 13.8344 2.73052 13.6845 2.57988 13.5286C2.71961 13.3534 2.90005 13.0873 3.16381 13.0154C3.10286 12.9124 3.04484 12.8076 2.99001 12.7008C2.68368 12.7815 2.47422 13.0716 2.31879 13.244C2.17853 13.0838 2.04439 12.9185 1.91717 12.7477C2.14952 12.5954 2.34168 12.2138 2.76113 12.1978C2.79626 12.2851 2.83325 12.3719 2.87211 12.4578C2.91735 12.5571 2.98549 12.5957 3.11164 12.5957C3.50128 12.5957 4.10491 12.3431 4.5688 11.88C4.26699 11.3307 4.17543 11.051 4.17543 10.7646C4.17543 10.037 5.20809 9.42615 5.20809 8.72006C5.20809 8.01397 4.85225 7.61023 4.85225 6.84532C4.85225 6.156 5.16364 5.56089 5.56925 5.05894C5.46865 5.12201 5.38108 5.19228 5.29565 5.27904C4.85411 5.72617 4.56135 6.37983 4.56135 6.98265C4.56135 7.79493 4.86635 8.12842 4.86635 8.73097C4.86635 9.28563 3.69051 10.0569 3.82359 10.8144C3.41319 11.188 2.92374 11.3549 2.49551 11.3549C2.53277 11.5125 2.57615 11.6674 2.62512 11.8202C2.14286 11.8457 1.92223 12.2569 1.66752 12.3929C1.5419 12.2037 1.42427 12.0094 1.31488 11.8098C1.74418 11.7651 1.87352 11.2131 2.47342 11.2551C2.44201 11.1095 2.4154 10.9618 2.39464 10.8128C1.70425 10.7665 1.54776 11.3488 1.09398 11.3736C0.997631 11.1678 0.90927 10.9578 0.830224 10.7431L2.34008 10.1671L2.33689 9.98054C2.33689 9.86769 2.34035 9.75591 2.34647 9.64519C1.56905 9.62709 1.33244 10.2943 0.660688 10.2283C0.598942 10.0162 0.544914 9.80115 0.500467 9.58265C1.34948 9.68777 1.65741 8.97397 2.42125 8.9745C2.45585 8.7701 2.50083 8.56996 2.55593 8.37354C1.63 8.33335 1.30689 9.13871 0.403323 8.98887C0.379636 8.80177 0.362869 8.61254 0.352755 8.42171C1.40324 8.53908 1.79714 7.67543 2.75367 7.78109C2.8439 7.55247 2.94876 7.3313 3.06693 7.11839C1.86767 6.9076 1.46046 7.91044 0.344238 7.75634C0.464803 3.45247 3.99206 0 8.32574 0C12.6594 0 16.1867 3.45247 16.3072 7.75741C15.1908 7.91151 14.7835 6.90893 13.5846 7.11945C13.7025 7.33237 13.8073 7.55354 13.8978 7.78216C14.8538 7.67623 15.2477 8.54015 16.2985 8.42278ZM4.8935 5.07384C4.30558 4.83351 3.5939 4.88887 2.98602 5.27931C2.8918 4.71374 2.58494 4.21125 2.14792 3.90811C2.08751 3.86633 2.02469 3.90598 2.03028 3.97598C2.12264 5.17098 1.424 6.20869 0.564875 7.12078C1.45035 7.38693 2.20408 6.24675 3.35251 6.64464C3.7645 6.03117 4.28775 5.49808 4.8935 5.07384ZM8.32574 4.35098C7.58452 4.35098 6.9636 4.77016 6.80098 5.31178C6.78847 5.35329 6.80551 5.38018 6.85341 5.35862C6.98675 5.29873 7.13846 5.26999 7.3032 5.26999C7.60555 5.26999 7.87196 5.38097 8.02952 5.5742C8.09925 5.80415 8.1051 6.1371 8.02632 6.32713C7.90177 6.29918 7.85705 6.20284 7.73543 6.20284C7.6138 6.20284 7.51958 6.28827 7.31331 6.28827C7.10732 6.28827 7.0831 6.19086 6.94763 6.19086C6.78821 6.19086 6.75893 6.35507 6.75893 6.54031C6.75893 7.36617 7.51798 8.50262 8.32547 8.50262C9.1327 8.50262 9.89175 7.36617 9.89175 6.54031C9.89175 6.35507 9.85369 6.19645 9.68709 6.17489C9.60405 6.23478 9.52766 6.28827 9.33763 6.28827C9.13137 6.28827 9.07441 6.20284 8.95305 6.20284C8.8064 6.20284 8.82104 6.5121 8.64698 6.5294C8.53094 6.25048 8.52535 5.89278 8.6217 5.5742C8.77952 5.38097 9.04567 5.26999 9.34801 5.26999C9.51276 5.26999 9.66553 5.299 9.79754 5.35862C9.84571 5.38018 9.86248 5.35303 9.84997 5.31178C9.68762 4.77016 9.06696 4.35098 8.32574 4.35098ZM9.50584 5.53587C9.32805 5.53587 9.11966 5.59043 8.98871 5.73628C8.97514 5.77594 8.97514 5.83502 8.9943 5.87441C9.31661 5.76396 9.60085 5.7597 9.73819 5.91327C9.81138 5.84673 9.8348 5.78685 9.8348 5.71738C9.8348 5.61013 9.72568 5.53587 9.50584 5.53587ZM6.9133 5.91327C7.06873 5.75757 7.39635 5.76423 7.73676 5.88985C7.75166 5.72058 7.44852 5.53561 7.14564 5.53561C6.92554 5.53561 6.81668 5.60986 6.81668 5.71738C6.81668 5.78685 6.8401 5.847 6.9133 5.91327ZM12.0217 3.11765C11.4365 3.15944 10.9281 3.36038 10.5169 3.69519C10.6915 3.20016 10.9132 2.76714 11.1943 2.34742C10.4491 2.42647 9.82602 2.699 9.37143 3.16476L9.01559 2.23191L9.80552 1.53434L8.74785 1.45955L8.32574 0.475872L7.90336 1.45955L6.84569 1.53434L7.63562 2.23191L7.28005 3.16476C6.8252 2.699 6.20215 2.42647 5.45747 2.34742C5.73799 2.7674 5.95969 3.20043 6.13428 3.69519C5.72335 3.36011 5.21501 3.15917 4.62975 3.11765C4.9808 3.56904 5.29192 4.05024 5.52241 4.56763C5.54849 4.62591 5.60438 4.64508 5.6648 4.615C6.46643 4.21658 7.36974 3.99248 8.32547 3.99248C9.28121 3.99248 10.1843 4.21684 10.9864 4.615C11.0468 4.64508 11.1027 4.62591 11.1285 4.56763C11.3593 4.05024 11.6704 3.56904 12.0217 3.11765ZM13.2995 6.64518C14.4474 6.24728 15.2014 7.38719 16.0869 7.12131C15.2277 6.20923 14.5294 5.17152 14.6217 3.97651C14.6273 3.90652 14.5642 3.86659 14.5041 3.90864C14.0668 4.21179 13.7599 4.71427 13.666 5.27984C13.0578 4.8894 12.3464 4.83377 11.7585 5.07437C12.3635 5.49808 12.887 6.03117 13.2995 6.64518Z" fill="#006241"/>
<path d="M14.3396 14.9075H13.9335V16H13.7879V14.9075H13.3828V14.7717H14.3396V14.9075ZM14.5102 14.7717H14.7261L15.1439 15.7347H15.1468L15.5658 14.7717H15.7781V16H15.6315V14.9703H15.6283L15.1884 16H15.0997L14.6582 14.9703H14.6553V16H14.5102V14.7717Z" fill="#006241"/>
</g>
<defs>
<clipPath id="clip0_781_306">
<rect width="15.9699" height="16" fill="white" transform="translate(0.34082)"/>
</clipPath>
</defs>
</svg>
