<svg width="17" height="16" viewBox="0 0 17 16" fill="none" xmlns="http://www.w3.org/2000/svg">
<g clip-path="url(#clip0_865_432)">
<path d="M8.46851 0C4.26601 0 0.823244 3.2404 0.496094 7.35845L4.78396 9.13128C5.14728 8.8828 5.58619 8.73722 6.05838 8.73722C6.1007 8.73722 6.14283 8.73867 6.18461 8.74102L8.09145 5.97715C8.09145 5.96394 8.09127 5.9511 8.09127 5.93808C8.09127 4.27448 9.44454 2.92103 11.1083 2.92103C12.7719 2.92103 14.1252 4.27448 14.1252 5.93808C14.1252 7.60169 12.7719 8.95532 11.1083 8.95532C11.0854 8.95532 11.0626 8.95478 11.0398 8.95423L8.32022 10.8947C8.32167 10.93 8.32293 10.966 8.32293 11.0018C8.32293 12.2507 7.30712 13.2663 6.05838 13.2663C4.96227 13.2663 4.04574 12.484 3.83813 11.4479L0.771703 10.1802C1.72115 13.5381 4.8062 16 8.46851 16C12.8869 16 16.4686 12.4182 16.4686 8.00027C16.4686 3.58166 12.8868 0 8.46851 0Z" fill="#231F20"/>
<path d="M5.50957 12.1387L4.52686 11.7327C4.70101 12.0953 5.0023 12.399 5.40233 12.5657C6.26714 12.926 7.26414 12.5156 7.62457 11.6501C7.79909 11.2316 7.80017 10.7696 7.6271 10.35C7.45439 9.93025 7.12851 9.60292 6.70949 9.42822C6.29372 9.25515 5.8483 9.26148 5.45695 9.40923L6.47204 9.82897C7.10988 10.0948 7.41153 10.8272 7.14569 11.4651C6.88039 12.1031 6.14742 12.4048 5.50957 12.1387Z" fill="#231F20"/>
<path d="M13.1182 5.93808C13.1182 4.82968 12.2165 3.9278 11.1079 3.9278C9.99954 3.9278 9.09766 4.82968 9.09766 5.93808C9.09766 7.04667 9.99954 7.94819 11.1079 7.94819C12.2165 7.948 13.1182 7.04649 13.1182 5.93808ZM9.60113 5.93464C9.60113 5.10058 10.2773 4.42458 11.1114 4.42458C11.9454 4.42458 12.6216 5.10058 12.6216 5.93464C12.6216 6.76871 11.9454 7.44471 11.1114 7.44471C10.2773 7.44471 9.60113 6.76853 9.60113 5.93464Z" fill="#231F20"/>
</g>
<defs>
<clipPath id="clip0_865_432">
<rect width="15.9725" height="16" fill="white" transform="translate(0.496094)"/>
</clipPath>
</defs>
</svg>
