<svg width="39" height="16" viewBox="0 0 39 16" fill="none" xmlns="http://www.w3.org/2000/svg">
<g clip-path="url(#clip0_852_262)">
<path fill-rule="evenodd" clip-rule="evenodd" d="M38.6236 9.22779H33.4152C33.5379 10.475 34.4491 10.8756 35.483 10.8756C36.5428 10.8756 37.3958 10.6365 38.1001 10.2617V12.4071C37.2063 12.9214 36.1835 13.1681 35.1534 13.1179C32.5622 13.1179 30.7399 11.5024 30.7399 8.28433C30.7399 5.57674 32.2843 3.42488 34.811 3.42488C37.3441 3.42488 38.6623 5.54443 38.6623 8.27141C38.6623 8.52989 38.6365 9.08562 38.6236 9.22779ZM34.798 5.59612C34.1324 5.59612 33.3958 6.06785 33.3958 7.26333H36.1421C36.1421 6.06785 35.4507 5.59612 34.798 5.59612ZM26.546 13.1179C25.6155 13.1179 25.0468 12.7302 24.672 12.4459L24.6591 15.4378L21.9967 16V3.59935H24.4265L24.4782 4.25848C25.0417 3.72393 25.7887 3.42562 26.5654 3.42488C28.4394 3.42488 30.1971 5.10501 30.1971 8.20679C30.1971 11.5864 28.4523 13.1179 26.546 13.1179ZM25.9321 5.78352C25.3182 5.78352 24.937 6.00323 24.6591 6.30695L24.672 10.2617C24.9305 10.546 25.3053 10.7658 25.9321 10.7658C26.9144 10.7658 27.5735 9.69952 27.5735 8.26494C27.5735 6.87561 26.9014 5.78352 25.9321 5.78352ZM18.3328 3.59935H21.0016V12.9305H18.3328V3.59935ZM18.3328 0.562197L21.0016 0V2.17124L18.3328 2.7399V0.568659V0.562197ZM15.5412 6.6042V12.9305H12.8788V3.59935H15.2698L15.3473 4.38772C15.9935 3.24394 17.3312 3.47658 17.6866 3.59935V6.04847C17.3505 5.93861 16.2068 5.7706 15.5412 6.6042ZM10.0161 9.65428C10.0161 11.2246 11.6963 10.7399 12.0323 10.5977V12.769C11.6769 12.9628 11.0371 13.1179 10.1648 13.1179C9.80117 13.1285 9.43922 13.0651 9.10093 12.9314C8.76264 12.7977 8.45509 12.5966 8.19698 12.3403C7.93886 12.084 7.73559 11.7779 7.59952 11.4405C7.46345 11.1032 7.39743 10.7417 7.40547 10.378L7.41193 1.86753L10.0097 1.31179V3.59935H12.0387V5.88045H10.0161V9.66074V9.65428ZM6.84327 10.1066C6.84327 12.0258 5.35054 13.1179 3.14053 13.1179C2.14881 13.1172 1.16783 12.9126 0.258459 12.517V9.97738C1.15022 10.462 2.26169 10.8239 3.14053 10.8239C3.73503 10.8239 4.12922 10.6688 4.12922 10.1777C4.12922 8.89822 0.0839844 9.37641 0.0839844 6.42973C0.0839844 4.54927 1.55733 3.42488 3.71565 3.42488C4.59448 3.42488 5.47332 3.55412 6.35862 3.90953V6.4168C5.5405 5.98623 4.63348 5.75173 3.70919 5.73183C3.15345 5.73183 2.77865 5.89338 2.77865 6.31341C2.77865 7.50889 6.84327 6.94023 6.84327 10.1131V10.1066Z" fill="#635BFF"/>
</g>
<defs>
<clipPath id="clip0_852_262">
<rect width="38.5784" height="16" fill="white" transform="translate(0.0839844)"/>
</clipPath>
</defs>
</svg>
