<svg width="11" height="16" viewBox="0 0 11 16" fill="none" xmlns="http://www.w3.org/2000/svg">
<g clip-path="url(#clip0_795_2426)">
<path d="M5.63558 -1.77883e-07L0.302246 8L5.63558 16L10.9689 8L5.63558 -1.77883e-07Z" fill="#28844A"/>
<path d="M2.75195 6.90157C2.75195 6.52082 2.79688 6.01204 3.03698 5.53602C3.20047 5.2116 3.5097 4.88811 3.98882 4.91323C4.16296 4.9223 4.69258 5.04548 4.69656 5.63471C4.69786 5.90964 4.53222 6.41265 3.78938 6.41265C3.78938 6.41265 3.69714 7.14811 3.69714 7.53144C3.69714 7.87229 3.70406 9.40244 4.26877 10.6056L5.61938 7.60651L6.90621 10.613C6.90621 10.613 7.45021 9.27545 7.45021 8.12605C7.45021 6.99332 7.13462 6.22946 6.87058 5.82502C6.49332 5.24644 6.00783 5.04548 5.78344 5.06114C5.78344 5.06114 5.54017 5.29898 5.16849 5.27279C4.71597 5.24079 4.43892 4.92047 4.43307 4.50182C4.42749 4.15398 4.66253 3.766 5.01905 3.53807C5.35432 3.32367 5.95067 3.34406 6.33432 3.46342C6.95249 3.6557 7.48212 4.32879 7.75594 4.81821C8.0149 5.28081 8.28609 6.20801 8.28797 7.41855C8.29009 8.42564 7.92346 9.95753 7.45709 11.1228C7.00084 12.2623 6.73204 12.7285 6.73204 12.7285L5.61938 10.4819L4.51814 12.7305C4.51814 12.7305 3.46184 10.4999 3.18187 9.47997C2.90164 8.45983 2.75195 7.26363 2.75195 6.90157Z" fill="white"/>
<path d="M0.985234 8.00001L5.63542 14.9752L10.2856 8.00001L5.63542 1.02477L0.985234 8.00001ZM5.63542 15.5406L0.608398 8.00001L5.63542 0.459477L10.6625 8.00001L5.63542 15.5406Z" fill="white"/>
</g>
<defs>
<clipPath id="clip0_795_2426">
<rect width="10.6667" height="16" fill="white" transform="translate(0.302246)"/>
</clipPath>
</defs>
</svg>
