<svg width="121" height="64" viewBox="0 0 121 64" fill="none" xmlns="http://www.w3.org/2000/svg">
<g clip-path="url(#clip0_736_2027)">
<g clip-path="url(#clip1_736_2027)">
<path fill-rule="evenodd" clip-rule="evenodd" d="M56.0976 30.964V37.8524H54.5197V30.9431C54.5197 28.8464 53.6685 27.8708 51.8402 27.8708C49.6638 27.8708 48.5256 29.4874 48.5256 31.0832V37.8524H46.9477V26.5247H48.5256V27.7597C49.3 26.9719 50.4725 26.366 51.9393 26.366C54.6203 26.366 56.0983 27.9983 56.0983 30.9632L56.0976 30.964ZM74.7713 26.3652C73.303 26.3652 72.1306 26.9719 71.3569 27.759V21.5428H69.7798V37.8524H71.3569V31.0832C71.3569 29.4867 72.4951 27.8708 74.6722 27.8708C76.5005 27.8708 77.3517 28.8472 77.3517 30.9431V37.8524H78.9289V30.9632C78.9289 27.9983 77.4523 26.3652 74.7713 26.3652ZM98.2064 32.0999V32.2594C98.2064 35.5389 95.8817 38.0134 92.7989 38.0134C89.778 38.0134 87.4116 35.4942 87.4116 32.2787V32.1192C87.4116 28.8502 89.7453 26.3853 92.8392 26.3853C95.9487 26.3853 98.2064 28.7891 98.2064 32.0999ZM96.6076 32.2586V32.0991C96.6076 29.6097 95.0573 27.8708 92.8377 27.8708C90.6181 27.8708 89.0066 29.6574 89.0066 32.1192V32.2787C89.0066 34.7294 90.6106 36.5071 92.8183 36.5071C95.0499 36.5071 96.6076 34.76 96.6076 32.2586ZM104.969 26.3652C103.503 26.3652 102.33 26.9719 101.554 27.759V26.5247H99.9773V37.8524H101.554V31.0832C101.554 29.4874 102.694 27.8708 104.87 27.8708C106.698 27.8708 107.551 28.8472 107.551 30.9438V37.8524H109.128V30.9632C109.128 27.999 107.651 26.3652 104.969 26.3652ZM63.0583 36.5071C60.8506 36.5071 59.2481 34.7287 59.2481 32.2787V32.1192C59.2481 29.6574 60.8588 27.8708 63.0777 27.8708C64.6176 27.8708 65.8339 28.7078 66.4362 30.0509H68.1289C67.4036 27.8425 65.4993 26.3853 63.0777 26.3853C59.9845 26.3853 57.6501 28.8502 57.6501 32.1192V32.2787C57.6501 35.4942 60.0166 38.0134 63.0374 38.0134C65.6551 38.0134 67.7241 36.2298 68.2906 33.686H66.6605C66.1835 35.3995 64.8344 36.5071 63.0583 36.5071ZM86.2243 26.3652C84.7574 26.3652 83.585 26.9719 82.8099 27.7597V26.5247H81.2327V37.8539H82.8099V31.0832C82.8099 29.4874 83.9487 27.8708 86.1251 27.8708C86.4987 27.8651 86.8707 27.9187 87.2275 28.0296V26.4532C86.8964 26.3938 86.5606 26.3644 86.2243 26.3652ZM30.7656 31.2942C28.2546 30.8775 27.8171 30.4266 27.8171 29.5098C27.8171 28.5297 28.8344 27.8715 30.2983 27.8715C31.83 27.8715 32.6886 28.432 32.9353 29.635L32.9487 29.6991H34.5959L34.5594 29.48C34.227 27.484 32.7214 26.3861 30.3184 26.3861C27.9333 26.3861 26.2019 27.6994 26.2019 29.5098C26.2019 31.8807 28.1994 32.4129 30.422 32.7863C32.5187 33.1501 33.1626 33.4445 33.1626 34.6914C33.1626 35.8363 32.1341 36.5473 30.5316 36.5473C28.3462 36.5473 27.6732 35.3905 27.5018 34.3739H25.8218C26.0253 36.6315 27.8297 38.0335 30.5323 38.0335C33.0583 38.0335 34.8218 36.6412 34.8218 34.6504C34.8218 32.1923 32.9048 31.6601 30.7671 31.2942H30.7656ZM118.635 26.5255L115.215 35.8325L111.223 26.5255H109.585L114.347 37.7965L112.86 42.2238H114.513L120.244 26.5255H118.635ZM43.9947 26.5255L40.5751 35.8325L36.583 26.5255H34.9455L39.7067 37.7965L38.2198 42.2238H39.873L45.6039 26.5255H43.9947Z" fill="#3B3D49"/>
<path fill-rule="evenodd" clip-rule="evenodd" d="M13.1413 44.6842H8.22424V19.0817H13.139L13.1413 44.6842ZM0.992188 44.6842H5.90921V31.883H0.992188V44.6842ZM15.469 31.883H20.3837V19.0817H15.469V31.883Z" fill="#FBC600"/>
</g>
</g>
<defs>
<clipPath id="clip0_736_2027">
<rect width="120" height="64" fill="white" transform="translate(0.852783)"/>
</clipPath>
<clipPath id="clip1_736_2027">
<rect width="120" height="26.087" fill="white" transform="translate(0.852783 18.9565)"/>
</clipPath>
</defs>
</svg>
