<svg width="41" height="16" viewBox="0 0 41 16" fill="none" xmlns="http://www.w3.org/2000/svg">
<g clip-path="url(#clip0_768_880)">
<g clip-path="url(#clip1_768_880)">
<path d="M16.5784 5.00729L14.6505 11.9451H14.2004L12.1801 5.07655V10.6753C12.1859 11.2179 12.4572 11.4949 12.9998 11.4949H13.2076V11.9451H10.6333V11.4949H10.7718C11.3144 11.4949 11.5915 11.2179 11.5915 10.6753V5.26125C11.5858 4.71872 11.3144 4.44165 10.7718 4.44165H10.6333V3.99069H13.196L14.7198 9.54404L16.261 3.99069H18.8121V4.45321H18.6736C18.131 4.46472 17.8598 4.73028 17.854 5.2728V10.6753C17.8598 11.2179 18.131 11.4949 18.6736 11.4949H18.8121V11.9451H15.6664V11.4949H15.7588C16.3014 11.4949 16.5784 11.2179 16.5784 10.6753V5.00729Z" fill="#E20074"/>
<path d="M20.2986 9.19199C20.2986 10.8081 20.668 11.6277 21.4414 11.6277C22.2148 11.6277 22.5958 10.8081 22.5958 9.19199C22.5958 7.5758 22.2148 6.75621 21.4414 6.75621C20.668 6.75621 20.2986 7.5758 20.2986 9.19199ZM23.9349 9.19199C23.9349 10.7619 23.0691 12.1125 21.4414 12.1125C19.8137 12.1125 18.9595 10.7619 18.9595 9.19199C18.9595 7.62199 19.8137 6.27137 21.4414 6.27137C23.0691 6.27137 23.9349 7.62199 23.9349 9.19199Z" fill="#E20074"/>
<path d="M25.9541 9.16889C25.9541 9.91923 26.1042 11.5354 27.1432 11.5354C28.1244 11.5354 28.2398 9.93079 28.2398 9.16889C28.2398 8.40697 28.159 6.80241 27.1778 6.80241C26.1388 6.80241 25.9541 8.41854 25.9541 9.16889ZM24.8691 5.01887C24.8633 4.60329 24.7074 4.44166 24.2918 4.44166H24.136V3.9907H26.0523V6.86589C26.3697 6.46186 26.7969 6.25983 27.3452 6.25983C28.8112 6.25983 29.5732 7.50656 29.5732 9.16889C29.5732 10.8312 28.8112 12.0664 27.3452 12.0664C26.704 12.0763 26.0898 11.8091 25.6597 11.3334L25.2615 11.9451H24.7363C24.8232 11.5411 24.8677 11.1291 24.8691 10.7158V5.01887Z" fill="#E20074"/>
<path d="M32.0442 10.9178C32.0499 11.3334 32.2058 11.4949 32.6213 11.4949H32.8002V11.9451H30.1047V11.4949H30.2837C30.6993 11.4949 30.8609 11.3334 30.8609 10.9178V7.46615C30.8551 7.05057 30.6993 6.88894 30.2837 6.88894H30.1625V6.43874H32.0442V10.9178Z" fill="#E20074"/>
<path d="M32.1015 4.62636C32.1133 5.02255 31.8016 5.35328 31.4055 5.36501C31.3931 5.36541 31.3808 5.36545 31.3684 5.36519C30.9603 5.36825 30.6271 5.03994 30.624 4.63191C30.621 4.22385 30.9493 3.89055 31.3572 3.88748C31.3629 3.88743 31.3685 3.88748 31.3742 3.88757C31.7756 3.88726 32.1012 4.21247 32.1016 4.61386C32.1016 4.61804 32.1016 4.62223 32.1015 4.62636Z" fill="#E20074"/>
<path d="M35.2121 10.9178C35.2179 11.3334 35.3738 11.4949 35.7893 11.4949H35.9683V11.9451H33.2959V11.4949H33.4517C33.8673 11.4949 34.0289 11.3334 34.0289 10.9178V5.01885C34.0232 4.60328 33.8673 4.44165 33.4517 4.44165H33.3421V3.99069H35.2121V10.9178Z" fill="#E20074"/>
<path d="M39.6452 8.7071C39.6222 7.37955 39.2989 6.75621 38.6986 6.75621C38.0984 6.75621 37.7463 7.43152 37.7059 8.7071H39.6452ZM37.6943 9.21505C37.7347 10.1328 37.7752 11.5585 38.9641 11.5585C39.7434 11.5585 40.1359 10.9178 40.4129 10.2886L40.8863 10.5368C40.436 11.4488 39.8819 12.1125 38.7794 12.1125C37.0941 12.1125 36.4072 10.6696 36.4072 9.19199C36.4072 7.77206 37.0998 6.27137 38.6755 6.27137C40.3725 6.27137 40.8977 7.89906 40.9325 9.21505H37.6943Z" fill="#E20074"/>
<path d="M6.02349 9.24061H7.61438V7.64973H6.02349V9.24061ZM0.932617 3.99069V6.69518H1.40989V6.61565C1.40989 5.34291 2.12578 4.54749 3.47805 4.54749H3.55757V10.2747C3.55757 11.0701 3.23943 11.3883 2.44397 11.3883H2.20535V11.9451H6.34168V11.3883H6.10302C5.3076 11.3883 4.98942 11.0701 4.98942 10.2747V4.54749H5.06894C6.4212 4.54749 7.1371 5.34291 7.1371 6.61565V6.69518H7.61438V3.99069H0.932617ZM2.52349 9.24061H0.932617V7.64973H2.52349V9.24061Z" fill="#E20074"/>
</g>
</g>
<defs>
<clipPath id="clip0_768_880">
<rect width="40" height="16" fill="white" transform="translate(0.932617)"/>
</clipPath>
<clipPath id="clip1_768_880">
<rect width="40" height="8.2251" fill="white" transform="translate(0.932617 3.88745)"/>
</clipPath>
</defs>
</svg>
