<svg width="18" height="16" viewBox="0 0 18 16" fill="none" xmlns="http://www.w3.org/2000/svg">
<g clip-path="url(#clip0_2_7497)">
<path d="M14.713 12.7109C14.506 12.7109 14.3379 12.8788 14.3379 13.0859C14.3379 13.2929 14.506 13.461 14.713 13.461C14.9201 13.461 15.0879 13.2929 15.0879 13.086C15.0879 12.8788 14.9201 12.7109 14.713 12.7109ZM14.713 13.3805C14.6743 13.3805 14.636 13.3729 14.6003 13.3582C14.5645 13.3434 14.532 13.3217 14.5047 13.2943C14.4773 13.267 14.4556 13.2345 14.4408 13.1987C14.426 13.163 14.4184 13.1247 14.4185 13.086C14.4185 12.9232 14.5501 12.7916 14.713 12.7916C14.8758 12.7916 15.0075 12.9232 15.0075 13.086C15.0075 13.2488 14.8758 13.3805 14.713 13.3805ZM14.8671 12.999C14.8671 12.9823 14.8638 12.9658 14.8574 12.9503C14.851 12.9349 14.8417 12.9209 14.8298 12.9091C14.818 12.8973 14.804 12.8879 14.7885 12.8816C14.7731 12.8752 14.7566 12.8719 14.7399 12.872H14.5592V13.3H14.6395V13.1262H14.6971L14.7783 13.3H14.8671L14.7824 13.1188C14.8071 13.11 14.8286 13.0938 14.8437 13.0723C14.8589 13.0509 14.8671 13.0253 14.8671 12.999H14.8671ZM14.7399 13.0458H14.6395V12.9521H14.7399C14.7657 12.9521 14.7868 12.9731 14.7868 12.999C14.7868 13.0115 14.7818 13.0234 14.773 13.0321C14.7642 13.0409 14.7523 13.0458 14.7399 13.0458Z" fill="#00205B"/>
<path d="M17.6082 7.23608C17.6082 5.49688 16.527 3.78248 14.6081 2.729L13.8729 3.31243C15.1842 4.1376 15.956 5.3707 15.956 6.77005C15.956 10.0363 11.9198 12.9947 7.42813 12.9947C6.96708 12.9947 6.51495 12.961 6.07823 12.8961L4.5625 14.0178C5.51958 14.3416 6.58763 14.5135 7.70378 14.5135C13.0359 14.5135 17.6082 10.9136 17.6082 7.23608Z" fill="#00205B"/>
<path d="M10.8262 8.4504L8.08296 8.98675L14.1677 3.9869L11.335 4.36668L16.8409 0L10.4312 1.68648C10.3467 1.6847 10.262 1.6834 10.1762 1.6834C4.92338 1.6834 0.458984 5.25333 0.458984 9.01975C0.458984 10.8677 1.45433 12.3377 2.99711 13.2902L0.628459 16L10.8262 8.4504ZM1.19123 8.46278C1.19123 5.08537 5.41748 2.23832 9.71918 2.23832C9.74888 2.23832 9.77821 2.23888 9.80793 2.2392L5.64906 6.89183L8.04051 6.51358L3.32876 11.0704L5.23971 10.7252L3.90491 12.252C2.28308 11.484 1.19123 10.1595 1.19123 8.46278Z" fill="#00205B"/>
</g>
<defs>
<clipPath id="clip0_2_7497">
<rect width="17.1491" height="16" fill="white" transform="translate(0.458984)"/>
</clipPath>
</defs>
</svg>
