<svg width="19" height="16" viewBox="0 0 19 16" fill="none" xmlns="http://www.w3.org/2000/svg">
<g clip-path="url(#clip0_879_4056)">
<path fill-rule="evenodd" clip-rule="evenodd" d="M14.4801 11.716C14.0719 12.3334 13.6838 12.9026 13.3679 13.3593C13.7334 13.6615 13.7116 14.0423 13.7116 14.1145C13.7045 14.5194 13.489 14.8215 13.2916 14.9982C13.046 15.2075 12.7105 15.309 12.3564 15.3115C12.346 15.3115 12.0927 15.3038 12.0056 15.2838C11.9682 15.3386 11.896 15.4052 11.7786 15.453C11.7657 15.4901 11.7479 15.5271 11.7245 15.5623C11.6279 15.7075 11.4675 15.7882 11.3042 15.7882C11.3042 15.7882 11.1386 15.7834 11.0241 15.7045C10.8775 15.6078 10.7967 15.4471 10.7967 15.2834V15.279C10.7971 15.2008 10.816 15.1215 10.8538 15.0497C10.8367 15.0093 10.7771 14.7682 10.7771 14.7682L10.933 14.6308C10.9456 14.6234 10.9841 14.5652 11.0275 14.4167C11.0734 14.2719 11.1282 14.0567 11.243 13.806C11.3893 13.4875 11.5923 13.1578 11.7404 12.9297C11.726 12.8567 11.6493 12.823 11.5942 12.8097C11.5323 12.793 11.456 12.7571 11.3953 12.6863C11.3316 12.6123 11.2827 12.5078 11.3101 12.373C11.3371 12.24 11.4204 12.1441 11.5179 12.0993V12.0989C11.6282 12.0415 11.7645 12.0689 11.7645 12.0689C12.0893 12.0989 12.3293 12.4004 12.3293 12.4004C12.6527 11.9493 13.4049 10.8304 13.4208 10.806C12.4349 10.9945 11.4164 11.02 10.5704 10.8797C9.03229 10.6245 7.84895 9.8056 7.0845 9.43226C6.32005 9.0593 4.86375 8.67707 3.36152 9.0593C1.85967 9.44152 0.86781 10.8252 0.86781 10.8252C1.31633 7.66522 3.27375 7.13262 3.46152 7.07929C3.74671 6.81225 4.12079 5.99743 3.23486 5.4478C2.93226 5.26002 2.67819 5.02224 2.67819 5.02224C2.86374 5.0441 3.29893 4.98669 3.54041 4.89113C3.83042 4.77669 4.09708 4.73854 4.09708 4.73854C3.86819 4.52039 3.51856 4.41113 3.51856 4.41113C3.86782 4.38928 4.41375 4.26928 4.7519 4.11631C5.09005 3.96372 5.27561 3.69076 5.22079 3.57076C5.16635 3.45038 4.86079 3.51631 4.86079 3.51631C4.97005 3.35261 5.2319 3.28705 5.2319 3.28705C4.47894 3.24335 3.93042 3.65335 3.93042 3.65335C4.01412 3.47372 4.28931 3.15075 4.28931 3.15075C4.18486 3.1852 3.8956 3.27557 3.87745 3.28112C5.05635 2.37075 6.37228 1.57038 8.21599 1.55852C10.0593 1.5463 11.8553 2.3726 13.0519 2.75557C14.2493 3.13853 14.8846 3.33187 16.1775 3.14075C16.7964 3.0489 17.3383 2.7952 17.7353 2.55742C17.7353 2.55742 18.0131 1.85112 18.0342 0.83704C18.0342 0.83704 18.3671 1.43408 18.3686 2.36371C18.372 5.5541 16.826 7.88411 16.3319 8.7323C15.8597 9.56671 15.239 10.566 14.4801 11.716ZM17.8797 0C17.8797 0 17.9216 0.76704 17.7768 1.46927C17.6368 2.14779 17.5597 2.40631 17.5597 2.40631C17.2634 2.58001 16.7838 2.79372 16.0827 2.91038C14.7742 3.12853 13.5868 2.77705 12.2905 2.26816C10.9938 1.75927 9.25896 1.21112 7.64932 1.39593C6.08857 1.57519 4.9719 2.20742 4.3782 2.61964C3.78449 3.03149 3.67523 3.14038 3.16634 3.28594C3.16634 3.28594 3.56634 3.44335 3.77227 3.44335C3.77227 3.44335 3.67523 3.84372 3.71153 3.97668C3.71153 3.97668 4.55968 3.5889 4.65671 3.77076C4.75375 3.95261 4.35375 4.07409 4.07523 4.14631C3.79671 4.21928 3.0693 4.20668 3.0693 4.20668C3.0693 4.20668 3.41041 4.47076 3.53078 4.65409C3.53078 4.65409 2.88782 4.93409 2.17263 4.83706C2.17263 4.83706 2.14893 5.10187 2.73671 5.53558C2.61152 5.58039 2.453 5.65299 2.35485 5.7578C2.35485 5.7578 2.97078 5.63076 3.35782 6.06188C3.45967 6.18965 3.49301 6.3041 3.48152 6.44854C3.46041 6.7104 3.36004 6.8104 3.11337 6.97336C2.97226 7.03077 2.82226 7.10262 2.67745 7.19114C1.99633 7.60966 1.49818 8.2467 1.14855 8.97448C0.99707 9.28967 0.875958 9.65596 0.790402 9.98819C0.704846 10.3223 0.673365 10.6189 0.653365 10.8041C0.633365 10.9889 0.605957 11.5715 0.605957 11.5715C0.605957 11.5715 0.911514 11.1434 1.05485 10.9382C1.19744 10.7337 2.10115 9.59745 3.41745 9.26819C3.83856 9.16115 4.25782 9.11633 4.65857 9.11633C5.6219 9.11559 6.48228 9.37708 6.99154 9.62634C7.7308 9.98411 8.94525 10.8286 10.5375 11.0926C10.9123 11.1545 11.3164 11.1852 11.7353 11.1852C12.1371 11.1852 12.553 11.156 12.9686 11.0993C12.7338 11.4497 12.5086 11.7771 12.2945 12.0804C12.0775 11.8738 11.783 11.8523 11.783 11.8523C11.426 11.8186 11.2471 12.036 11.2471 12.036C11.1749 12.1141 11.1208 12.2156 11.0997 12.3352C11.0745 12.446 11.1045 12.5749 11.1253 12.6404C11.1934 12.8567 11.3782 12.9552 11.4501 12.9867C10.9282 13.6819 10.7767 14.4823 10.7767 14.4827L10.5386 14.6927L10.6245 15.0408C10.4919 15.4678 10.7001 15.7882 10.9701 15.9208C11.2441 16.0556 11.5001 15.9775 11.5001 15.9775C11.6612 15.9323 11.8071 15.8308 11.9064 15.6819C11.9216 15.6593 11.9349 15.6364 11.9467 15.6134C12.0023 15.5834 12.0501 15.5497 12.0908 15.5134C12.166 15.5219 12.3586 15.5278 12.3586 15.5278C12.7534 15.5245 13.1393 15.4127 13.4338 15.1627C13.6656 14.9552 13.9208 14.6015 13.9297 14.1182C13.9297 14.0275 13.9464 13.6615 13.6442 13.3426C15.5512 10.5426 16.7894 8.74004 17.5797 6.90595C19.6738 2.04445 17.8875 0.0174075 17.8797 0Z" fill="#B1BABF"/>
<path fill-rule="evenodd" clip-rule="evenodd" d="M11.5936 14.2278C11.5933 14.2286 11.5929 14.2297 11.5925 14.2304C11.5922 14.2308 11.5922 14.2312 11.5922 14.2315C11.5925 14.2308 11.5929 14.2301 11.5933 14.2293C11.5933 14.2286 11.5936 14.2282 11.5936 14.2278ZM15.4026 9.84485C14.5633 10.236 12.6267 10.8845 10.6981 10.5245C10.027 10.3993 9.14364 10.1897 7.97548 9.48152C7.20918 9.01744 6.38177 8.57373 4.45288 8.58225C2.85509 8.59003 1.82879 9.31411 1.50212 9.58337C2.36916 6.75447 4.93214 7.16817 4.93214 7.16817C4.46436 6.94373 3.90287 7.02965 3.90287 7.02965C4.70584 5.76632 3.41213 5.17483 3.41213 5.17483C3.52102 5.17483 4.01213 5.03298 4.26288 4.94557C4.51399 4.85853 4.97473 4.79816 4.97473 4.79816C4.81399 4.65038 4.31732 4.53113 4.31732 4.53113C4.78658 4.53113 5.2114 4.30372 5.50695 3.99594C5.60992 3.8889 5.89177 3.35297 5.57214 3.14519C5.27806 2.95408 4.69473 3.1663 4.69436 3.16668C4.6951 3.16593 6.44066 1.28519 10.0429 2.08889C11.7518 2.47038 13.6781 3.47112 15.4566 3.48186C16.0544 3.48557 17.3733 3.29149 18.1603 2.49927C18.1189 4.00446 17.8385 6.11261 15.4026 9.84485ZM13.1351 13.1567C13.1329 13.1549 13.1296 13.1526 13.1277 13.1512C13.0822 13.1097 13.0233 13.0597 12.9581 13.0052C13.0644 12.8538 14.2822 11.043 14.6392 10.4815C14.7641 10.4374 14.8855 10.3893 15.0055 10.3389C14.7641 10.7208 13.4466 12.706 13.1351 13.1567ZM13.0714 14.7419C12.9062 14.886 12.6255 14.9778 12.3322 14.9723C12.0707 14.9671 11.887 14.9249 11.7207 14.8345C11.7199 14.8364 11.7196 14.8378 11.7192 14.8401C11.7062 14.8512 11.6799 14.9115 11.4878 14.9401C11.3588 14.9612 11.2841 14.9352 11.2762 14.9326C11.5029 15.1619 11.7081 15.0175 11.7081 15.0175C11.7178 15.0575 11.7318 15.086 11.7318 15.086C11.7318 15.086 11.6637 15.186 11.4562 15.1515C11.4311 15.1475 11.4096 15.1404 11.3885 15.1327C11.3925 15.1349 11.3962 15.1364 11.4003 15.1389C11.4799 15.1912 11.5014 15.2982 11.4492 15.3775C11.3962 15.4571 11.2896 15.4786 11.21 15.4264C11.1307 15.3738 11.1088 15.2667 11.1614 15.1875C11.2044 15.1223 11.2829 15.0967 11.3536 15.1178C11.1981 15.043 11.1581 14.8867 11.1581 14.8867C11.357 14.7104 11.3507 14.3912 11.5536 13.9475C11.5629 13.9271 11.5733 13.9063 11.5833 13.8856C11.5833 13.8863 11.5829 13.8871 11.5825 13.8878C11.5385 13.9982 11.4962 14.1878 11.5136 14.326C11.5173 14.356 11.5233 14.3834 11.5303 14.4101V14.4104C11.5333 14.4226 11.6014 14.6986 11.7877 14.6538C11.7859 14.6578 11.7588 14.7186 11.7585 14.7193C11.8399 14.7701 12.0266 14.8586 12.3444 14.8626C12.7907 14.8686 13.0348 14.5749 13.1018 14.3564C13.1544 14.1863 13.0729 13.9975 12.9048 13.8319C12.954 13.7749 12.984 13.6953 12.9511 13.5856C12.9662 13.6363 12.8711 13.7267 12.7707 13.7178C12.7614 13.7171 12.7525 13.7156 12.7433 13.713C12.5918 13.6708 12.4192 13.4863 12.2729 13.3771C12.1274 13.2678 12.0848 13.0986 12.0877 12.9786C12.0899 12.8586 12.0492 12.7163 11.9348 12.6086C11.8203 12.5008 11.7178 12.4904 11.6851 12.4819C11.6522 12.473 11.6429 12.4526 11.6462 12.4308C11.6529 12.3949 11.6992 12.4015 11.6992 12.4015C11.977 12.4571 12.1799 12.7323 12.2248 12.813C12.2662 12.8871 12.7048 13.2297 12.8744 13.3797C12.9537 13.4375 13.297 13.7008 13.3585 13.9708C13.4314 14.293 13.2363 14.5982 13.0714 14.7419ZM12.5766 14.0093C12.6311 14.0364 12.7092 14.0893 12.7459 14.166C12.7555 14.1863 12.7599 14.206 12.7599 14.2278C12.7655 14.3175 12.6607 14.4486 12.5677 14.483C12.5003 14.5108 12.4111 14.5245 12.3248 14.5241C12.2974 14.5241 12.2703 14.523 12.244 14.5204C12.2685 14.4793 12.2981 14.4293 12.3311 14.3756C12.4051 14.2545 12.497 14.1134 12.5766 14.0093ZM11.8033 13.4763C11.8766 13.3519 11.9536 13.2297 12.0318 13.1082C12.0355 13.1027 12.0392 13.0971 12.0429 13.0915C12.0396 13.1171 12.0307 13.256 12.0774 13.3938C12.1044 13.4597 12.1474 13.5263 12.2151 13.5886C12.2759 13.6445 12.3266 13.6893 12.3688 13.7245C12.1637 13.9897 11.8729 14.4856 11.8729 14.4856C11.7485 14.493 11.6862 14.4519 11.6159 14.3019C11.6059 14.2804 11.5981 14.2567 11.5922 14.2319V14.2315C11.5551 14.0771 11.5888 13.8782 11.5896 13.8726C11.5948 13.8623 11.7329 13.5956 11.8033 13.4763ZM13.8533 10.713C14.0237 10.6715 14.1922 10.6263 14.3577 10.5745C14.3625 10.573 14.3674 10.5715 14.3722 10.5697C14.2029 10.8263 12.8703 12.733 12.7785 12.8567C12.7711 12.8508 12.5422 12.6549 12.5341 12.6478C12.8737 12.176 13.834 10.7423 13.8533 10.713ZM18.0341 0.837036C18.0129 1.85111 17.7352 2.55741 17.7352 2.55741C17.3382 2.79519 16.7963 3.0489 16.1774 3.14075C14.8844 3.33186 14.2492 3.13853 13.0518 2.75556C11.8551 2.3726 10.0592 1.5463 8.21585 1.55852C6.37214 1.57037 5.05621 2.37075 3.87732 3.28112C3.89547 3.27556 4.18473 3.18519 4.28917 3.15075C4.28917 3.15075 4.01399 3.47371 3.93028 3.65334C3.93028 3.65334 4.4788 3.24334 5.23177 3.28705C5.23177 3.28705 4.96992 3.3526 4.86066 3.51631C4.86066 3.51631 5.16621 3.45038 5.22066 3.57075C5.27547 3.69075 5.08992 3.96372 4.75177 4.11631C4.41362 4.26927 3.86769 4.38927 3.51843 4.41112C3.51843 4.41112 3.86806 4.52038 4.09695 4.73853C4.09695 4.73853 3.83028 4.77668 3.54028 4.89113C3.2988 4.98668 2.86361 5.04409 2.67805 5.02224C2.67805 5.02224 2.93213 5.26002 3.23472 5.4478C4.12065 5.99743 3.74658 6.81225 3.46139 7.07928C3.27361 7.13262 1.3162 7.66521 0.867676 10.8252C0.867676 10.8252 1.85953 9.44152 3.36139 9.05929C4.86362 8.67707 6.31992 9.05929 7.08437 9.43226C7.84882 9.80559 9.03215 10.6245 10.5703 10.8797C11.4162 11.02 12.4348 10.9945 13.4207 10.806C13.4048 10.8304 12.6525 11.9493 12.3292 12.4004C12.3292 12.4004 12.0892 12.0989 11.7644 12.0689C11.7644 12.0689 11.6281 12.0415 11.5177 12.0989V12.0993C11.4203 12.1441 11.337 12.24 11.3099 12.373C11.2826 12.5078 11.3314 12.6123 11.3952 12.6863C11.4559 12.7571 11.5322 12.793 11.594 12.8097C11.6492 12.823 11.7259 12.8567 11.7403 12.9297C11.5922 13.1578 11.3892 13.4875 11.2429 13.806C11.1281 14.0567 11.0733 14.2719 11.0273 14.4167C10.984 14.5652 10.9455 14.6234 10.9329 14.6308L10.777 14.7682C10.777 14.7682 10.8366 15.0093 10.8536 15.0497C10.8159 15.1215 10.797 15.2008 10.7966 15.2789V15.2834C10.7966 15.4471 10.8773 15.6078 11.024 15.7045C11.1385 15.7834 11.304 15.7882 11.304 15.7882C11.4674 15.7882 11.6277 15.7075 11.7244 15.5623C11.7477 15.5271 11.7655 15.4901 11.7785 15.453C11.8959 15.4052 11.9681 15.3386 12.0055 15.2838C12.0925 15.3038 12.3459 15.3115 12.3562 15.3115C12.7103 15.3089 13.0459 15.2075 13.2914 14.9982C13.4888 14.8215 13.7044 14.5194 13.7114 14.1145C13.7114 14.0423 13.7333 13.6615 13.3677 13.3593C13.6837 12.9026 14.0718 12.3334 14.48 11.716C15.2388 10.566 15.8596 9.5667 16.3318 8.73229C16.8259 7.8841 18.3718 5.55409 18.3685 2.36371C18.367 1.43408 18.0341 0.837036 18.0341 0.837036ZM11.5925 14.2304C11.5922 14.2308 11.5922 14.2312 11.5922 14.2315C11.5925 14.2308 11.5929 14.2301 11.5933 14.2293C11.5933 14.2286 11.5936 14.2282 11.5936 14.2278C11.5933 14.2286 11.5929 14.2297 11.5925 14.2304Z" fill="black"/>
<path fill-rule="evenodd" clip-rule="evenodd" d="M14.1348 7.79301C13.2725 8.40301 11.9225 8.58931 11.9225 8.58931C11.9073 8.64783 11.818 8.70931 11.818 8.70931C11.818 8.70931 11.9562 8.76042 12.2954 9.01561C12.6343 9.27079 12.5425 9.2582 12.6506 9.33116C12.7588 9.40376 12.8203 9.38339 12.8203 9.38339C12.8529 9.44894 12.857 9.54635 12.857 9.54635C12.9021 9.58894 13.1232 9.80005 12.9177 10.0186C12.7117 10.2371 12.474 10.0341 12.474 10.0341C12.3899 10.0519 12.308 10.0241 12.308 10.0241C12.308 10.0241 11.868 10.3012 11.431 9.99931C11.0754 9.75413 11.0969 9.46339 11.1177 9.36301C10.9977 9.4319 10.8688 9.48561 10.7366 9.52709C10.3799 9.63894 9.9247 9.68524 9.47247 9.53487C9.17544 9.43487 8.92951 9.26153 8.73543 9.06931C8.54099 8.87672 8.39728 8.66412 8.30358 8.47264C8.28951 8.44338 8.27617 8.41449 8.26432 8.38634C8.23321 8.46042 8.08432 8.74157 7.62321 8.72153C7.09246 8.69857 6.90839 8.21227 6.90839 8.21227C6.90839 8.21227 6.82654 8.18486 6.77024 8.12042C6.77024 8.12042 6.45839 8.13894 6.4258 7.84042C6.39357 7.5419 6.69765 7.50708 6.7595 7.50041C6.7595 7.50041 6.82098 7.42486 6.88654 7.39227C6.88654 7.39227 6.92357 7.44597 7.05357 7.45301C7.18358 7.46004 7.10283 7.41449 7.52728 7.4156C7.95173 7.41634 8.09247 7.4593 8.09247 7.4593C8.09247 7.4593 8.05839 7.35634 8.08173 7.30041C8.08173 7.30041 7.11765 6.33745 6.79802 5.33078C6.47839 4.32411 6.57617 3.95077 6.96432 2.88928C6.96432 2.88928 7.25209 4.69781 8.13543 5.83411C8.63951 6.48263 9.20655 6.98819 9.60099 7.30301C9.60988 7.30301 9.61914 7.30338 9.62803 7.30338C9.54396 7.20967 9.47988 7.09967 9.44803 6.97375C9.36914 6.66263 9.23988 6.37337 9.18062 6.143C9.12136 5.91226 9.25321 5.45115 9.25321 5.45115C9.07618 5.16744 9.16247 4.7004 9.16247 4.7004C9.16247 4.7004 9.2584 4.65485 9.33136 4.56633C9.40396 4.47744 9.37877 4.21522 9.43803 3.82929C9.49729 3.44336 9.7484 3.0441 10.3047 2.81706C10.858 2.59113 11.6891 2.88743 11.6966 2.89002C11.704 2.89225 12.5458 3.15706 12.851 3.67114C13.1577 4.18781 13.1169 4.65818 12.9314 5.00152C12.7459 5.34522 12.5673 5.53892 12.5721 5.65374C12.5766 5.76818 12.6258 5.86226 12.6258 5.86226C12.6258 5.86226 12.4132 6.28708 12.1003 6.40708C12.1003 6.40708 11.9273 6.85412 11.7406 7.00226C11.5547 7.15041 11.2769 7.30301 11.0262 7.50375C10.9273 7.58301 10.8136 7.6319 10.6925 7.65671C10.7006 7.66264 10.7084 7.66856 10.7166 7.67449C11.2206 7.66116 11.9747 7.60005 12.764 7.38782C14.154 7.01375 15.4743 5.74485 15.4743 5.74485C15.144 6.8256 14.9966 7.18264 14.1348 7.79301ZM15.4569 3.48188C13.6784 3.47114 11.7521 2.47039 10.0432 2.08891C6.44098 1.2852 4.69542 3.16595 4.69468 3.16669C4.69505 3.16632 5.27838 2.9541 5.57246 3.14521C5.89209 3.35299 5.61024 3.88892 5.50727 3.99596C5.21172 4.30373 4.7869 4.53114 4.31764 4.53114C4.31764 4.53114 4.81431 4.6504 4.97505 4.79818C4.97505 4.79818 4.51431 4.85855 4.26319 4.94559C4.01245 5.033 3.52134 5.17485 3.41245 5.17485C3.41245 5.17485 4.70616 5.76633 3.90319 7.02967C3.90319 7.02967 4.46468 6.94375 4.93246 7.16819C4.93246 7.16819 2.36948 6.75449 1.50244 9.58339C1.82911 9.31413 2.85541 8.59005 4.45319 8.58227C6.38209 8.57375 7.2095 9.01746 7.9758 9.48153C9.14395 10.1897 10.0273 10.3993 10.6984 10.5245C12.627 10.8845 14.5636 10.236 15.4029 9.84487C17.8388 6.11263 18.1192 4.00447 18.1607 2.49928C17.3736 3.29151 16.0547 3.48558 15.4569 3.48188Z" fill="#A71930"/>
<path fill-rule="evenodd" clip-rule="evenodd" d="M11.5835 13.8856C11.5835 13.8863 11.5832 13.8871 11.5828 13.8878C11.5387 13.9982 11.4965 14.1878 11.5139 14.326C11.5176 14.356 11.5235 14.3834 11.5306 14.41V14.4104C11.4265 14.8886 11.225 14.8964 11.1717 14.8893C11.1631 14.8882 11.1583 14.8867 11.1583 14.8867C11.3572 14.7104 11.3509 14.3912 11.5539 13.9474C11.5631 13.9271 11.5735 13.9063 11.5835 13.8856ZM12.0432 13.0915C12.0401 13.1171 12.0309 13.2559 12.0776 13.3937C12.0773 13.394 11.8205 13.7297 11.5924 14.2319C11.5961 14.2224 11.5941 14.227 11.5927 14.2306C11.5926 14.2309 11.5925 14.2312 11.5924 14.2315C11.5554 14.0771 11.5891 13.8782 11.5898 13.8726C11.595 13.8623 11.7331 13.5956 11.8035 13.4763C11.8769 13.3518 11.9539 13.2296 12.0321 13.1081C12.0358 13.1026 12.0395 13.097 12.0432 13.0915ZM14.3724 10.5698C14.2032 10.8265 12.8705 12.7329 12.7787 12.8566C12.7713 12.8507 12.5424 12.6548 12.5343 12.6477C12.8739 12.1759 13.8343 10.7424 13.8535 10.7132C14.0239 10.6717 14.1925 10.6265 14.358 10.5746C14.3629 10.5732 14.3677 10.5717 14.3724 10.5698ZM12.1656 9.18146C12.1656 9.18146 12.2402 9.24127 12.2464 9.24598C12.2748 9.26746 12.3356 9.32372 12.3636 9.35124C12.3867 9.37401 12.4098 9.39679 12.4326 9.41983C12.4494 9.43683 12.5188 9.50231 12.5423 9.51983C12.5601 9.53309 12.5782 9.54479 12.5969 9.55398C12.6141 9.56239 12.6318 9.56902 12.6507 9.57357L12.6489 9.57483C12.6103 9.60379 12.5649 9.62279 12.516 9.62279C12.4993 9.62279 12.4811 9.62031 12.4648 9.61639C12.442 9.61083 12.4202 9.60253 12.3994 9.59179C12.3862 9.58494 12.3733 9.57761 12.361 9.56931C12.3534 9.56424 12.3457 9.55872 12.3379 9.55283C12.3377 9.55261 12.3374 9.55202 12.3373 9.55187C12.3395 9.54183 12.3412 9.53113 12.3419 9.51913C12.3445 9.47565 12.3355 9.42572 12.3193 9.38546C12.2921 9.31427 12.1683 9.18372 12.1656 9.18146ZM11.7176 8.9029C11.7237 8.90638 11.7296 8.90942 11.736 8.91301C11.7661 8.92998 11.7964 8.94675 11.8263 8.96398C11.8894 9.00038 11.9517 9.03816 12.013 9.07753C12.0568 9.10564 12.1002 9.1345 12.1424 9.16483C12.1478 9.16883 12.1532 9.17279 12.1585 9.17675C12.1998 9.22272 12.242 9.28179 12.2615 9.33664C12.2845 9.39987 12.2861 9.45831 12.2778 9.50113C12.1436 9.37194 11.8613 9.16446 11.7818 9.12331C11.7896 9.02842 11.7504 8.9505 11.7176 8.9029ZM9.46291 7.79605C9.50576 7.80156 9.54761 7.80786 9.58858 7.81475C9.56528 7.84667 9.54302 7.87956 9.52187 7.91331C9.56728 7.92156 9.61328 7.93097 9.6598 7.94145C9.67876 7.90675 9.6985 7.87271 9.71887 7.83956C9.75795 7.84797 9.79643 7.85701 9.83424 7.86667C9.81687 7.90101 9.79987 7.93616 9.78324 7.97186C9.82654 7.98342 9.87009 7.99601 9.91391 8.00968C9.92769 7.97297 9.94154 7.93675 9.95535 7.90119C9.9921 7.9126 10.0285 7.92479 10.0647 7.93782C10.0542 7.97453 10.0435 8.01171 10.0323 8.04931C10.0755 8.06468 10.1178 8.08082 10.1594 8.09753C10.1676 8.05919 10.1752 8.02112 10.182 7.98345C10.2182 7.99849 10.2542 8.01442 10.2905 8.03142C10.2868 8.06979 10.282 8.10845 10.2763 8.14719C10.3197 8.16657 10.3619 8.18653 10.4031 8.20697C10.4064 8.16797 10.4085 8.12897 10.4091 8.09016C10.4461 8.10934 10.4832 8.12964 10.5207 8.15105C10.5225 8.1902 10.5226 8.22931 10.5209 8.26831C10.5436 8.28068 10.5658 8.29312 10.5877 8.30568C10.5879 8.31179 10.5879 8.3179 10.5881 8.32405C10.5889 8.35845 10.5884 8.39309 10.5869 8.4279C10.5864 8.4379 10.5859 8.44797 10.5854 8.45801C10.5591 8.44471 10.5326 8.43146 10.5056 8.41834C10.4957 8.47868 10.4809 8.53823 10.4608 8.59664C10.421 8.57349 10.3802 8.55127 10.3392 8.52994C10.3573 8.47397 10.3714 8.41734 10.3822 8.36034C10.3383 8.34042 10.2935 8.32086 10.2477 8.30175C10.2357 8.35586 10.2212 8.40994 10.2042 8.46379C10.1622 8.44438 10.1198 8.42575 10.0771 8.40827C10.0938 8.3559 10.1089 8.30357 10.1227 8.25149C10.0779 8.23423 10.0324 8.21745 9.9861 8.20123C9.97032 8.25179 9.95398 8.30286 9.93706 8.35423C9.89354 8.3386 9.84998 8.3239 9.80591 8.31023C9.82335 8.25905 9.84109 8.20849 9.85902 8.15868C9.81235 8.14382 9.76591 8.12986 9.71972 8.11671C9.69932 8.16645 9.6798 8.21716 9.66158 8.2689C9.61709 8.25701 9.57195 8.24627 9.52683 8.23634C9.54561 8.18349 9.56665 8.13197 9.58946 8.08171C9.54135 8.06953 9.49365 8.05819 9.44654 8.04779C9.42098 8.09942 9.39835 8.15275 9.37917 8.20786C9.33361 8.19997 9.28768 8.19331 9.2418 8.1876C9.26076 8.12957 9.28476 8.07375 9.3128 8.02019C9.28317 8.01453 9.2538 8.00919 9.2248 8.00416C9.23109 7.99464 9.2375 7.98519 9.24398 7.97582C9.26402 7.94682 9.28483 7.91871 9.3065 7.89156C9.30902 7.88838 9.31146 7.88512 9.31406 7.88201C9.3392 7.88497 9.36465 7.88831 9.39035 7.89197C9.41309 7.85901 9.43732 7.82701 9.46291 7.79605ZM15.0469 6.39452C15.04 6.41067 14.7654 7.04141 13.6233 7.5369C13.5725 7.55893 13.5207 7.58086 13.4664 7.60227C13.2342 7.6896 12.7453 7.85482 12.0987 7.97156C11.8374 8.01875 11.5729 8.05094 11.3084 8.07316C11.2872 8.0749 11.1338 8.08616 11.1338 8.08616C11.0857 8.02449 11.033 7.96371 10.9752 7.90401C11.3258 7.88853 11.6857 7.85375 12.039 7.79027C13.4965 7.52834 14.3916 6.91878 14.8208 6.57986C14.86 6.54882 14.8946 6.52071 14.9262 6.49471C14.9998 6.43504 15.0456 6.39726 15.0469 6.39452ZM7.49686 7.62771C7.50986 7.62764 7.53579 7.62816 7.53383 7.62838C7.4659 7.63212 7.35842 7.65704 7.28997 7.69816C7.2896 7.6983 7.28923 7.69867 7.28882 7.69893C7.24968 7.72175 7.2079 7.76008 7.1866 7.80034C7.1852 7.80297 7.17742 7.81764 7.17531 7.82001C6.95249 7.82001 6.91264 7.6513 6.91182 7.64827C6.93023 7.65612 6.94893 7.66153 6.96819 7.66516L6.98352 7.66763C6.99899 7.66971 7.01486 7.67062 7.03119 7.67067C7.09964 7.6713 7.17068 7.65838 7.24468 7.64808C7.3282 7.63642 7.41249 7.62812 7.49686 7.62771ZM7.54401 7.62827C7.5732 7.62886 7.60234 7.62975 7.63149 7.63119C7.67749 7.63342 7.72346 7.63671 7.76935 7.64082C7.86172 7.64908 7.96924 7.66134 8.06087 7.67586C8.00587 7.69412 7.93005 7.73012 7.87898 7.8109C7.87827 7.8116 7.87753 7.81234 7.87698 7.81301C7.78842 7.79771 7.43812 7.79312 7.25323 7.81497C7.27245 7.77593 7.30894 7.73027 7.36534 7.69364C7.41397 7.66171 7.48346 7.63997 7.54401 7.62827ZM6.91827 3.66662C6.99801 4.00218 7.23494 5.25152 8.47524 6.59511C8.72061 6.86093 8.98898 7.10745 9.26135 7.33271C9.17913 7.34604 9.09968 7.36319 9.02402 7.38386C8.83342 7.21587 8.3926 6.78156 8.36958 6.75896L8.36864 6.75804C7.99964 6.38656 7.72416 6.02963 7.5169 5.69778C7.47371 5.62711 7.44016 5.56889 7.41338 5.52533L7.37234 5.45155C6.80027 4.40374 6.91827 3.66662 6.91827 3.66662ZM9.40498 5.94196C9.46298 5.89341 9.59358 5.91604 9.59358 5.91604C9.59358 5.91604 9.65217 5.97763 9.66598 6.0237C9.67943 6.07008 9.66554 6.32274 9.76535 6.4966V6.49248C9.76535 6.49248 9.77028 6.47411 9.79147 6.44256C9.81284 6.41097 9.85435 6.36622 9.87924 6.38389C9.90413 6.40152 9.9008 6.45119 9.90021 6.50441C9.8998 6.5576 9.88184 6.61445 9.86839 6.63056C9.86839 6.63056 9.88909 6.67297 9.94543 6.69982C9.94543 6.69982 9.94306 6.67956 9.94717 6.65067C9.95606 6.59967 9.98169 6.5576 9.9981 6.51123C10.0031 6.495 10.0189 6.4783 10.0426 6.49097C10.043 6.49097 10.0896 6.51526 10.1309 6.53589C10.1357 6.53937 10.1644 6.56126 10.1491 6.60245C10.1484 6.60397 10.1482 6.60482 10.1478 6.60597C10.1472 6.60786 10.1463 6.60945 10.1457 6.61134C10.1302 6.65019 10.1171 6.68571 10.0973 6.72671C10.0973 6.72671 10.0871 6.76456 10.0694 6.76615C10.0694 6.76615 10.1041 6.78893 10.1197 6.79552C10.1436 6.80563 10.1733 6.81845 10.188 6.82208C10.188 6.82208 10.1721 6.79756 10.1761 6.76252C10.1857 6.7126 10.2004 6.64389 10.213 6.58637C10.2174 6.57285 10.2295 6.55 10.2573 6.55874C10.2885 6.57163 10.3204 6.58386 10.3522 6.59549C10.3789 6.60671 10.3787 6.63311 10.3777 6.642C10.3631 6.70552 10.3467 6.78163 10.3293 6.84241C10.3254 6.85167 10.3198 6.86467 10.3152 6.86945C10.3152 6.86945 10.3438 6.88956 10.3631 6.89463C10.3821 6.89963 10.4185 6.907 10.4185 6.907C10.4185 6.907 10.4115 6.88241 10.4203 6.85623C10.4205 6.85571 10.4205 6.85526 10.4205 6.85463C10.4347 6.81404 10.4489 6.7733 10.4633 6.73234C10.4668 6.72186 10.4769 6.69871 10.4827 6.68367C10.4858 6.67608 10.4982 6.65278 10.5265 6.65878C10.5639 6.67 10.6014 6.68034 10.6392 6.68974C10.6671 6.698 10.6511 6.74082 10.6511 6.74082C10.6511 6.74082 10.6106 6.8403 10.5844 6.90437C10.5841 6.90426 10.5753 6.92682 10.5608 6.93867C10.5608 6.93867 10.5868 6.95019 10.6064 6.95408C10.6475 6.96219 10.6719 6.96141 10.6822 6.96212C10.6822 6.96212 10.6695 6.93145 10.6844 6.89478C10.6853 6.89326 10.6857 6.89138 10.6863 6.88971C10.6988 6.86071 10.7119 6.83171 10.7239 6.8026C10.7274 6.79437 10.7305 6.78612 10.7338 6.77778C10.738 6.76519 10.758 6.7446 10.7908 6.75045C10.792 6.75052 10.7927 6.75037 10.7937 6.75052C10.8199 6.75545 10.8461 6.75986 10.8724 6.76389C10.8727 6.76419 10.9196 6.77382 10.9025 6.81782C10.8787 6.87052 10.8536 6.92341 10.8254 6.9766C10.8547 6.97889 10.8842 6.98056 10.9138 6.98138C10.9138 6.98138 10.9101 6.97875 10.9223 6.94586C10.9344 6.913 10.97 6.84297 10.9736 6.83256C10.9771 6.8223 10.9907 6.78163 11.0078 6.7796C11.025 6.77778 11.0921 6.83149 11.0746 6.93508C11.2589 6.85637 11.3996 6.647 11.4383 6.61848C11.4721 6.59352 11.5398 6.58 11.5568 6.57689C11.5852 6.59326 11.6678 6.64504 11.6818 6.70604C11.6818 6.70604 11.543 6.83378 11.3721 6.90908C11.201 6.98441 10.9421 7.1476 10.8401 7.2156C10.8015 7.2413 10.749 7.26349 10.6826 7.27571C10.6412 7.20186 10.4972 7.11071 10.3126 7.04871C10.1197 6.98389 9.94254 6.97138 9.87028 7.01152C9.81761 6.95756 9.78547 6.90367 9.76898 6.85615C9.72884 6.74045 9.62054 6.454 9.52969 6.29085C9.43869 6.12759 9.40498 5.94196 9.40498 5.94196ZM9.96395 3.81781C9.96765 3.62558 10.171 2.83447 11.2254 3.0141C11.4199 3.05447 11.5758 3.10151 11.6165 3.11447C11.6206 3.11595 11.6243 3.11706 11.6284 3.11854C11.6484 3.12484 11.6758 3.13373 11.7088 3.14595C11.7184 3.14966 11.7284 3.15336 11.7388 3.15743C11.7525 3.16262 11.7669 3.16817 11.7821 3.17447C11.8021 3.18262 11.8232 3.19151 11.8454 3.20114C11.8673 3.21114 11.8903 3.22151 11.914 3.23299C11.9654 3.2578 12.0203 3.28706 12.0754 3.3204C12.081 3.32336 12.0865 3.32669 12.0917 3.33003C12.0936 3.33077 12.0951 3.33188 12.0965 3.33299C12.5258 3.5941 12.6436 3.91299 12.6436 4.1767C12.6436 4.40855 12.5525 4.59818 12.5025 4.66818C12.4321 4.76596 12.3688 4.833 12.3362 4.88226C12.2973 4.81263 12.2673 4.73855 12.2558 4.66448L12.2558 4.66474L12.2559 4.6656C12.2573 4.68747 12.2824 5.02383 12.4536 5.19658L12.4625 5.20522C12.4625 5.20522 12.3628 5.42781 12.3421 5.563C12.3217 5.69856 12.3743 5.84115 12.3743 5.84115C12.3743 5.84115 12.361 5.86263 12.3417 5.89226C12.2366 6.01633 12.0525 6.12374 11.9536 6.10559C11.8414 6.08485 11.571 5.993 11.4143 6.02522C11.2858 6.05189 11.2084 6.12448 11.1658 6.19782C11.1658 6.19782 11.1662 6.19745 11.1665 6.19745C11.1551 6.21115 11.1443 6.22634 11.1369 6.24411C11.1369 6.24411 11.1036 6.30226 11.0943 6.38004C11.0714 6.37004 11.0517 6.36226 11.0517 6.36226C11.0521 6.36634 11.0521 6.37189 11.051 6.37782C11.0495 6.3893 11.0443 6.40782 11.0436 6.41041C11.0432 6.41448 11.0428 6.41745 11.0421 6.41856C11.0395 6.42893 11.0365 6.4393 11.034 6.44967C11.0236 6.48745 11.0144 6.51819 11.0025 6.55523C11.0021 6.5556 11.0014 6.55671 11.001 6.55782C10.9891 6.593 10.9536 6.58152 10.9536 6.58152C10.9532 6.58152 10.9495 6.58004 10.9495 6.58004C10.9236 6.56708 10.8951 6.55337 10.8654 6.5393C10.8654 6.5393 10.8321 6.52189 10.8373 6.48745C10.8369 6.48671 10.8373 6.48597 10.8377 6.48485C10.838 6.48337 10.8377 6.48226 10.8384 6.48115C10.8395 6.47819 10.8402 6.47448 10.8414 6.47189C10.8506 6.43856 10.8702 6.36708 10.8728 6.35041C10.8762 6.33078 10.8891 6.29485 10.8973 6.28078C10.8917 6.27522 10.8777 6.26004 10.8654 6.25411C10.8551 6.24893 10.844 6.24671 10.8288 6.24782C10.8232 6.25263 10.814 6.26708 10.8136 6.27485C10.8132 6.2793 10.8014 6.31634 10.7884 6.35708C10.7751 6.39819 10.7599 6.44337 10.7532 6.46374C10.7458 6.48597 10.7299 6.49078 10.7169 6.49078C10.7089 6.49078 10.7021 6.48891 10.6992 6.48797L10.6977 6.48745C10.6718 6.47708 10.6365 6.46448 10.6088 6.45411C10.6069 6.45374 10.6054 6.45263 10.6036 6.45226C10.5702 6.43967 10.5725 6.41115 10.5747 6.39967C10.5891 6.35671 10.6077 6.30226 10.6217 6.25967C10.6247 6.24967 10.6284 6.23967 10.6314 6.2293C10.6314 6.22893 10.6317 6.22856 10.6321 6.22782C10.6332 6.22337 10.6458 6.19152 10.6651 6.18189C10.6525 6.17226 10.6273 6.16226 10.6084 6.15559C10.5858 6.14819 10.5454 6.14115 10.5432 6.14078C10.5499 6.15522 10.5514 6.18041 10.548 6.193C10.5432 6.20967 10.4988 6.36485 10.4969 6.37078C10.4947 6.37671 10.4869 6.39522 10.4747 6.39967C10.4628 6.40411 10.4295 6.39337 10.4295 6.39337C10.4273 6.393 10.4258 6.39263 10.4239 6.39226C10.3958 6.38374 10.3558 6.37745 10.3292 6.37004C10.3292 6.37004 10.2854 6.35745 10.2991 6.31745C10.2991 6.31745 10.3277 6.213 10.3417 6.16337C10.3417 6.16226 10.3421 6.16041 10.3425 6.15893C10.3436 6.15522 10.3499 6.13448 10.3521 6.103C10.3543 6.07152 10.3332 6.06411 10.3177 6.06411C10.3029 6.06411 10.2865 6.09078 10.2829 6.10633C10.2788 6.123 10.2695 6.15078 10.2695 6.15078L10.2684 6.15337C10.2673 6.15596 10.2662 6.15856 10.2654 6.16078C10.2502 6.20115 10.2384 6.23448 10.2247 6.27485C10.2118 6.30899 10.1763 6.30635 10.169 6.30542L10.1677 6.30522C10.1358 6.29856 10.1051 6.29226 10.0765 6.28708C10.0762 6.28708 10.0725 6.28597 10.0725 6.28559C10.0725 6.28559 10.0369 6.27337 10.0488 6.23819C10.0488 6.23708 10.0488 6.23596 10.0495 6.23485C10.0621 6.19819 10.0728 6.16856 10.0877 6.13189C10.0917 6.12226 10.1065 6.08708 10.1151 6.07337C10.1239 6.05967 10.1358 6.05226 10.1358 6.05226C10.1362 6.04411 10.1239 6.02893 10.1017 6.02115C10.0992 6.02041 10.0962 6.01967 10.0928 6.01893C10.1058 5.9867 10.1221 5.94226 10.1299 5.90485C10.1543 5.81411 10.1514 5.68633 10.0462 5.56596C9.94061 5.44559 9.66913 5.35596 9.56765 5.30485C9.4658 5.25374 9.37432 5.00818 9.38654 4.83855C9.38654 4.83855 9.51432 4.75633 9.5795 4.63596C9.64543 4.51596 9.6995 4.27855 9.6995 4.27855C9.9458 4.25077 10.1762 3.98855 10.1903 3.97225C10.1291 4.03114 10.0491 4.07522 9.96617 4.10929C9.97061 4.05299 9.96135 3.95818 9.96395 3.81781Z" fill="white"/>
<path fill-rule="evenodd" clip-rule="evenodd" d="M11.6462 12.4307C11.6529 12.3948 11.6992 12.4014 11.6992 12.4014C11.977 12.457 12.18 12.7322 12.2247 12.8129C12.2663 12.887 12.7048 13.2296 12.8744 13.3796C12.9537 13.4374 13.297 13.7008 13.3585 13.9708C13.4315 14.293 13.2363 14.5982 13.0715 14.7419C12.9063 14.886 12.6255 14.9778 12.3322 14.9723C12.0707 14.9671 11.887 14.9249 11.7207 14.8345C11.7199 14.8364 11.7195 14.8378 11.7192 14.8401C11.7062 14.8511 11.6799 14.9115 11.4877 14.9401C11.3588 14.9612 11.284 14.9352 11.2762 14.9327C11.5029 15.162 11.708 15.0175 11.708 15.0175C11.7177 15.0575 11.7317 15.086 11.7317 15.086C11.7317 15.086 11.6636 15.186 11.4562 15.1516C11.431 15.1475 11.4095 15.1405 11.3885 15.1327C11.3925 15.1349 11.3962 15.1364 11.4003 15.139C11.4799 15.1912 11.5014 15.2982 11.4492 15.3775C11.3962 15.4571 11.2896 15.4786 11.2099 15.4264C11.1306 15.3738 11.1088 15.2668 11.1614 15.1875C11.2043 15.1223 11.2828 15.0967 11.3536 15.1179C11.198 15.0431 11.158 14.8867 11.158 14.8867C11.158 14.8867 11.1629 14.8882 11.1714 14.8893C11.2247 14.8964 11.4262 14.8886 11.5303 14.4104C11.5333 14.4227 11.6014 14.6985 11.7877 14.6537C11.7859 14.6578 11.7588 14.7185 11.7585 14.7193C11.8399 14.7701 12.0266 14.8586 12.3444 14.8627C12.7907 14.8686 13.0348 14.5749 13.1019 14.3564C13.1545 14.1863 13.073 13.9974 12.9048 13.8319C12.954 13.7748 12.9841 13.6952 12.9511 13.5855C12.9663 13.6363 12.8711 13.7267 12.7707 13.7178C12.7614 13.717 12.7526 13.7155 12.7433 13.713C12.5918 13.6707 12.4192 13.4863 12.2729 13.377C12.1274 13.2678 12.0848 13.0985 12.0877 12.9785C12.0899 12.8585 12.0492 12.7162 11.9347 12.6085C11.8203 12.5007 11.7177 12.4903 11.6851 12.4818C11.6521 12.4729 11.6429 12.4525 11.6462 12.4307ZM12.5765 14.0093C12.631 14.0363 12.7091 14.0893 12.7458 14.1659C12.7554 14.1863 12.7599 14.2059 12.7599 14.2278C12.7655 14.3174 12.6606 14.4485 12.5676 14.483C12.5002 14.5108 12.4109 14.5245 12.3246 14.5241C12.2972 14.5241 12.2703 14.523 12.2439 14.5204C12.2684 14.4793 12.298 14.4293 12.3309 14.3756C12.405 14.2545 12.4969 14.1134 12.5765 14.0093ZM12.0773 13.3937C12.1044 13.4596 12.1473 13.5263 12.2151 13.5885C12.2759 13.6444 12.3266 13.6892 12.3689 13.7245C12.1637 13.9896 11.8729 14.4856 11.8729 14.4856C11.7485 14.493 11.6862 14.4519 11.6159 14.3019C11.6058 14.2804 11.5981 14.2567 11.5922 14.2319C11.8202 13.7297 12.077 13.394 12.0773 13.3937ZM15.0056 10.3391C14.7641 10.7209 13.4466 12.7059 13.135 13.1566C13.1329 13.1548 13.1295 13.1526 13.1277 13.1511C13.0821 13.1096 13.0232 13.0596 12.958 13.0052C13.0643 12.8536 14.2822 11.0428 14.6392 10.4817C14.7641 10.4376 14.8856 10.3894 15.0056 10.3391ZM11.7051 8.46044C11.7051 8.46044 11.7267 8.44444 11.7396 8.46077C11.7472 8.47085 11.7481 8.48392 11.7338 8.49711C11.7197 8.5104 11.6706 8.54318 11.6416 8.62855C11.6124 8.71448 11.6305 8.79752 11.664 8.85774C11.6952 8.91363 11.7085 8.981 11.6977 9.04429C11.6941 9.06678 11.6872 9.0893 11.6776 9.10993C11.6538 9.16081 11.6351 9.214 11.6136 9.26589C11.59 9.32244 11.5638 9.37511 11.5301 9.40715C11.4927 9.44267 11.4323 9.4317 11.3953 9.40182C11.3938 9.40056 11.3919 9.39978 11.3905 9.39848C11.4061 9.46533 11.448 9.49208 11.4914 9.5017C11.471 9.63508 11.5184 9.73215 11.679 9.81093C11.8433 9.89141 12.1283 9.89115 12.3411 9.688C12.3198 9.66404 12.2943 9.64648 12.2695 9.62659C12.2691 9.6263 12.2687 9.62593 12.2684 9.62582C12.2849 9.62104 12.3063 9.61196 12.3199 9.59504C12.3275 9.58559 12.3328 9.57004 12.3367 9.55215L12.3376 9.55282C12.3454 9.5587 12.3531 9.56422 12.3607 9.5693C12.373 9.57759 12.3859 9.58493 12.3991 9.59178C12.4199 9.60252 12.4418 9.61082 12.4645 9.61637C12.4808 9.6203 12.499 9.62278 12.5157 9.62278C12.5646 9.62278 12.61 9.60378 12.6486 9.57482C12.6491 9.57448 12.6496 9.57426 12.65 9.57393C12.6504 9.57408 12.6536 9.59759 12.6539 9.60278C12.6555 9.63319 12.6521 9.68156 12.6236 9.72874C12.653 9.7063 12.6941 9.70152 12.7289 9.72056C12.7763 9.74611 12.7939 9.80541 12.7682 9.8526C12.7426 9.89989 12.6834 9.91759 12.636 9.89185C12.5903 9.86704 12.5734 9.81134 12.5953 9.76504C12.5878 9.77285 12.5805 9.78082 12.571 9.78826C12.5149 9.8313 12.4711 9.83797 12.4439 9.8363C12.4245 9.83508 12.4133 9.82971 12.4133 9.82971C12.4133 9.82971 12.4144 9.81741 12.4089 9.79697C12.4082 9.79419 12.4077 9.79174 12.4067 9.78863C12.4134 9.78922 12.4258 9.78941 12.4412 9.78726C12.4886 9.78052 12.5662 9.75045 12.6034 9.62833C12.6034 9.62833 12.5943 9.64019 12.5786 9.65552C12.5445 9.68922 12.4742 9.73967 12.3774 9.73248C12.3309 9.7723 12.0434 10.0008 11.6989 9.87889C11.3227 9.74567 11.3199 9.51345 11.3293 9.43759C11.3354 9.38804 11.3619 9.30645 11.3632 9.30248C11.3938 9.20737 11.549 8.86396 11.5497 8.81078C11.5506 8.75759 11.5791 8.56344 11.7051 8.46044ZM11.7816 9.1233C11.861 9.16444 12.1433 9.37193 12.2776 9.50111C12.2733 9.52263 12.2674 9.5413 12.2589 9.55222C12.2456 9.56893 12.2262 9.57811 12.2096 9.58371C12.0915 9.50285 11.9121 9.39682 11.7229 9.31167C11.7346 9.28244 11.748 9.24615 11.764 9.20122C11.7741 9.17233 11.7816 9.1233 11.7816 9.1233ZM8.30936 7.30977C8.32962 7.30444 8.33736 7.33036 8.33736 7.33036C8.37555 7.48844 8.28121 7.66048 8.24995 7.70344C8.21855 7.74625 8.13495 8.11385 8.10195 8.20833C8.10195 8.20833 8.06303 8.30525 8.04755 8.33651C8.0134 8.40481 7.86684 8.58614 7.48647 8.46529C7.13806 8.35474 7.04488 7.99944 7.03184 7.93999C6.91306 7.86355 6.91639 7.71992 6.91639 7.71992C6.85795 7.87903 6.95402 7.95188 6.97658 7.96648C6.97399 7.96477 6.95402 7.98562 6.95169 7.98837C6.95132 7.98877 6.94688 7.99514 6.9465 7.99507C6.9465 7.99507 6.91236 7.98862 6.88095 7.94425C6.86787 7.92574 6.85513 7.90136 6.8458 7.86707C6.84239 7.8547 6.84021 7.84273 6.83895 7.83125C6.8388 7.83259 6.83876 7.83385 6.83858 7.83514C6.83047 7.88892 6.78013 7.92581 6.72643 7.91777C6.67276 7.90966 6.63558 7.85929 6.64369 7.80551C6.65176 7.75166 6.70213 7.7147 6.7558 7.72296C6.79817 7.72929 6.83017 7.76196 6.83784 7.80196C6.84084 7.70503 6.91154 7.64825 6.91154 7.64825C6.91236 7.65129 6.95221 7.81999 7.17502 7.81999C7.16728 7.8367 7.16221 7.85229 7.16251 7.8644C7.16325 7.88614 7.17465 7.90618 7.18525 7.91999L7.1743 7.91999C7.14968 7.92003 7.08964 7.92058 7.08958 7.92574C7.13673 8.21629 7.36399 8.38837 7.54347 8.42318C7.7188 8.45726 7.81517 8.40855 7.87921 8.29037C7.9198 8.30888 7.96969 8.31214 8.02255 8.26837C7.94518 8.27166 7.91162 8.22477 7.90577 8.19088C7.8904 8.10188 7.94584 7.96707 7.9674 7.8647C7.98925 7.76229 8.06703 7.69959 8.13018 7.67192C8.19355 7.64422 8.25777 7.58877 8.28644 7.50277C8.31499 7.41714 8.2954 7.36133 8.29221 7.34218C8.28888 7.32299 8.29725 7.31314 8.30936 7.30977ZM15.0466 6.39451C15.0468 6.39443 15.0399 6.41469 15.0399 6.41469C14.9548 6.65999 14.7972 6.88818 14.6248 7.07981C14.4994 7.21914 14.3627 7.34603 14.2169 7.46373C13.9932 7.64422 13.7389 7.79059 13.4795 7.91303C13.2219 8.03466 12.9518 8.13125 12.6775 8.20737C12.2483 8.32637 11.7942 8.38877 11.3454 8.41396C11.3112 8.34748 11.2704 8.27955 11.2242 8.21103C12.6665 8.10777 13.6158 7.54266 13.6158 7.54266L13.623 7.53688C14.7651 7.0414 15.0397 6.41065 15.0466 6.39451ZM7.25295 7.81496C7.43784 7.79311 7.78814 7.7977 7.87669 7.81299C7.87725 7.81233 7.87799 7.81159 7.87869 7.81092C7.86495 7.8327 7.85258 7.85688 7.84347 7.88566C7.82888 7.93088 7.81788 7.96807 7.8094 7.9984C7.59628 7.93992 7.25728 7.92185 7.25728 7.92185C7.24758 7.90759 7.23762 7.8884 7.23702 7.86711C7.23673 7.85318 7.24332 7.8347 7.25295 7.81496ZM6.91799 3.66661C6.91799 3.66661 6.79999 4.40372 7.37206 5.45154L7.37033 5.44838L7.3688 5.44565C7.3688 5.44565 7.77653 6.45418 8.84587 7.40005L8.87848 7.4287C8.80033 7.45592 8.72685 7.48555 8.65959 7.51762C8.64885 7.52273 8.54099 7.41533 8.52777 7.40358C8.41999 7.30818 8.31496 7.20973 8.21318 7.10795C7.97606 6.8708 7.7574 6.61466 7.56573 6.3394C7.41006 6.11595 7.27028 5.88062 7.15725 5.63273C7.04676 5.39054 6.95669 5.13958 6.90036 4.87909C6.84732 4.63391 6.8238 4.38176 6.83706 4.13109C6.84487 3.98294 6.86291 3.8289 6.91084 3.68775L6.91799 3.66661ZM9.49222 5.48435C9.49222 5.48435 9.59278 5.53313 9.62411 5.55143C9.62411 5.55143 9.62389 5.5525 9.62359 5.55469C9.61981 5.58284 9.59329 5.78343 9.59192 5.87995C9.59178 5.89476 9.59203 5.90713 9.59329 5.91602C9.59329 5.91602 9.4627 5.89339 9.4047 5.94195C9.4047 5.94195 9.4384 6.12758 9.5294 6.29084C9.62026 6.45399 9.72855 6.74043 9.7687 6.85614C9.78518 6.90366 9.81733 6.95755 9.87 7.01151C9.94226 6.97136 10.1194 6.98388 10.3123 7.04869C10.4969 7.11069 10.6409 7.20184 10.6823 7.2757C10.7487 7.26347 10.8012 7.24129 10.8398 7.21558C10.9418 7.14758 11.2007 6.9844 11.3718 6.90906C11.5427 6.83377 11.6816 6.70603 11.6816 6.70603C11.6675 6.64503 11.5849 6.59325 11.5565 6.57688C11.559 6.57643 11.5605 6.57625 11.5605 6.57625C11.6079 6.52821 11.7383 6.29828 11.7544 6.2698C11.7555 6.26784 11.756 6.26684 11.756 6.26684C11.7922 6.27125 11.9015 6.2928 11.9015 6.2928C11.9015 6.2928 11.7876 6.55758 11.7202 6.67158C11.653 6.78514 11.5982 6.8238 11.5327 6.8701C11.4672 6.91625 11.1782 7.10721 11.1017 7.16114C11.0254 7.2151 10.8225 7.39718 10.6453 7.42862C10.5574 7.44418 10.4811 7.44607 10.4088 7.43796C10.3364 7.42981 10.2679 7.4117 10.1955 7.38747C10.1951 7.3874 10.1946 7.38718 10.1942 7.38696C10.1936 7.38681 10.1931 7.38673 10.1928 7.38662C10.0481 7.33792 9.93074 7.27895 9.80922 7.14803C9.70207 7.03262 9.64892 6.81325 9.61829 6.70051C9.61389 6.6844 9.61 6.67043 9.60637 6.65929C9.57803 6.57025 9.46285 6.24362 9.4384 6.16728C9.41381 6.09084 9.39355 6.02706 9.40859 5.8958C9.42263 5.7725 9.48385 5.5188 9.49152 5.48754C9.49192 5.48543 9.49222 5.48435 9.49222 5.48435ZM11.1368 6.24425C11.1368 6.24425 11.2023 6.19795 11.3197 6.20354C11.3197 6.20354 11.319 6.20425 11.319 6.20462L11.3197 6.20425C11.3164 6.21314 11.2898 6.2861 11.2827 6.35017C11.2786 6.3898 11.2594 6.48984 11.2594 6.49058C11.2249 6.61058 11.1094 6.67684 11.099 6.67021C11.0867 6.66243 11.0709 6.63317 11.1227 6.46721C11.1227 6.4591 11.1494 6.44947 11.1553 6.44984C11.166 6.44799 11.1767 6.44651 11.1875 6.44466C11.1875 6.44466 11.1845 6.43836 11.1734 6.42243C11.1686 6.41462 11.156 6.4098 11.1483 6.40536C11.1393 6.40054 11.0942 6.38054 11.0942 6.38017C11.1027 6.30891 11.1314 6.25408 11.1361 6.24544L11.1368 6.24425ZM9.38629 4.83861C9.37407 5.00824 9.46555 5.25384 9.5674 5.30495C9.66889 5.35602 9.94037 5.44565 10.046 5.56606C10.1512 5.68643 10.1541 5.81424 10.1297 5.90499C10.1219 5.94236 10.1056 5.98684 10.0927 6.01906C10.0856 6.01721 10.0782 6.0161 10.0708 6.01536C10.0493 6.01276 10.0152 6.01051 10.0081 6.03721C10.0078 6.03828 10.0074 6.03906 10.0074 6.03906C10.0108 6.05051 10.0134 6.06462 10.0119 6.07239C10.01 6.08091 10.0071 6.08869 10.0056 6.09243C9.94744 6.25577 9.9167 6.2698 9.90226 6.26869C9.89004 6.26799 9.83781 6.14502 9.88263 6.02865C9.88296 6.02795 9.88333 6.02721 9.88333 6.02647C9.9063 5.97458 9.92815 5.9368 9.94855 5.90273C9.98448 5.84347 10.0074 5.76313 10.0074 5.76313L10.0081 5.76462V5.76347C10.0382 5.78387 10.0637 5.80869 10.0874 5.83569C10.0881 5.83647 10.0885 5.83684 10.0885 5.83721C10.0993 5.85499 10.1159 5.86865 10.1256 5.88758C10.1282 5.8931 10.13 5.89832 10.13 5.90236C10.1381 5.87125 10.1371 5.8335 10.1252 5.80313C10.1245 5.80202 10.1245 5.80087 10.1241 5.7998C10.0801 5.67939 9.96596 5.60865 9.86 5.54865C9.78926 5.50865 9.71555 5.4738 9.64111 5.44124C9.42296 5.34532 9.41963 5.28161 9.39037 5.18087C9.38703 5.16824 9.38407 5.15343 9.38185 5.13713C9.37777 5.10495 9.37666 5.06639 9.37666 5.02824C9.37666 4.93306 9.38629 4.83861 9.38629 4.83861ZM12.3413 5.89239C12.3406 5.89387 12.3397 5.89499 12.3387 5.89643C12.295 5.97425 12.2361 6.05758 12.1642 6.11165C12.0805 6.17462 12.0394 6.22314 11.8072 6.16828C11.7161 6.14647 11.6238 6.12684 11.5309 6.11536C11.412 6.10017 11.2546 6.0961 11.1679 6.19606C11.1675 6.19684 11.1671 6.19684 11.1664 6.19758C11.1656 6.19758 11.1653 6.19832 11.1649 6.19869C11.2079 6.12499 11.2853 6.05202 11.4142 6.02536C11.5709 5.9931 11.8412 6.08495 11.9535 6.10573C12.0524 6.12388 12.2361 6.01643 12.3413 5.89239ZM10.9073 5.29343C10.991 5.32695 11.0375 5.41102 11.0123 5.48643C10.9964 5.53458 11.0001 5.5731 11.0037 5.62421L11.0042 5.62569V5.62647C11.006 5.66754 11.0153 5.68939 11.0252 5.71754C11.0353 5.74387 11.0475 5.78573 11.032 5.82865L11.0123 5.88717C10.986 5.9661 10.8912 6.00499 10.8009 5.97499C10.8009 5.97458 10.8615 5.95906 10.8812 5.90091C10.8816 5.90017 10.8819 5.89939 10.8819 5.89869C10.9193 5.8931 10.952 5.87091 10.9637 5.83536L10.9845 5.77425C11.0053 5.71165 10.959 5.68347 10.9564 5.58236C10.9527 5.53013 10.949 5.47935 10.9693 5.41902C10.9857 5.3701 10.9583 5.31591 10.9073 5.29343ZM10.6856 5.37643C10.7112 5.30161 10.799 5.26198 10.8872 5.2868C10.8327 5.27306 10.7775 5.30013 10.7612 5.34902C10.7408 5.40976 10.7064 5.44754 10.6723 5.4868C10.609 5.56606 10.5549 5.5605 10.5341 5.62313L10.5134 5.68421C10.5015 5.71943 10.5141 5.75647 10.5401 5.7835C10.5397 5.78425 10.5393 5.78532 10.5393 5.7861C10.5197 5.84462 10.5589 5.89347 10.5589 5.89347C10.469 5.86313 10.4171 5.77499 10.4433 5.69643L10.463 5.63791C10.4767 5.59417 10.5111 5.56791 10.5356 5.5531C10.5608 5.5368 10.5812 5.52495 10.6075 5.49347L10.6086 5.49195C10.6431 5.45347 10.6697 5.42458 10.6856 5.37643ZM12.2702 5.18902L12.2735 5.18935C12.2735 5.18935 12.2272 5.50198 12.1509 5.62458C12.0746 5.74758 12.0017 5.86091 11.812 5.85054C11.812 5.85054 11.922 5.81869 11.8868 5.73236C11.8842 5.7261 11.8824 5.7198 11.8809 5.71313C11.9316 5.68461 11.9772 5.66313 12.0187 5.6198C12.0739 5.56236 12.1175 5.49158 12.149 5.41902C12.1627 5.38676 12.1743 5.35384 12.1835 5.32013C12.1835 5.32013 12.208 5.20787 12.2553 5.19124C12.2606 5.1905 12.2653 5.18972 12.2702 5.18902ZM10.7838 4.88343C10.8242 4.9712 11.1423 5.07787 11.2294 5.03306C11.229 5.03491 11.2209 5.14935 11.2212 5.2175C11.2216 5.28606 11.2449 5.55087 11.3609 5.62017C11.3613 5.62017 11.3323 5.65458 11.3693 5.76239C11.3604 5.75943 11.2153 5.70573 11.1631 5.58828C11.109 5.4675 11.1616 5.14306 10.9675 5.07528C10.7719 5.01198 10.6182 5.30272 10.5019 5.36643C10.386 5.4301 10.2319 5.38084 10.2319 5.38084C10.3213 5.32128 10.3248 5.27821 10.3249 5.27291L10.3249 5.27235C10.4589 5.28717 10.6368 5.09009 10.6786 5.03528C10.7201 4.98087 10.7838 4.88343 10.7838 4.88343ZM9.85667 4.3782L9.85892 4.37968L9.85967 4.38005C9.86296 4.38339 9.8667 4.38709 9.87004 4.39079C9.89781 4.43265 9.84967 4.53676 9.84967 4.53676C9.83744 4.56713 9.82778 4.59824 9.81963 4.62972C9.79185 4.7375 9.78148 4.8712 9.82592 4.97861C9.82778 4.98232 9.85596 5.0312 9.85448 5.03269C9.85189 5.03491 9.84926 5.03713 9.8463 5.03898C9.84333 5.0412 9.84041 5.04309 9.83744 5.04491C9.76037 5.09009 9.82078 5.17676 9.82559 5.18343C9.66852 5.07787 9.67815 4.94343 9.69185 4.79935C9.70518 4.65561 9.85667 4.3782 9.85667 4.3782ZM11.9137 3.23298L11.9566 3.25112C13.0607 3.78224 12.8174 4.62113 12.754 4.7815C12.6966 4.92557 12.5826 5.0678 12.5326 5.14891C12.474 5.08483 12.3952 4.98928 12.3359 4.88224C12.3685 4.83298 12.4318 4.76594 12.5022 4.66817C12.5522 4.59817 12.6433 4.40854 12.6433 4.17668C12.6433 3.91298 12.5255 3.59409 12.0963 3.33298C12.0948 3.33186 12.0933 3.33075 12.0915 3.33001C12.0863 3.32668 12.0807 3.32335 12.0752 3.32038C12.02 3.28705 11.9652 3.25779 11.9137 3.23298ZM10.2011 4.18376C10.3856 4.13783 10.6853 4.41709 10.8615 4.56417C11.0116 4.69676 11.0772 4.70935 11.0905 4.71306C11.1042 4.71824 11.1638 4.74783 11.3627 4.73228C11.5924 4.72157 11.9998 4.67935 12.1194 4.8275C12.1194 4.83157 11.8298 4.79898 11.6345 4.83046C11.4404 4.87157 11.1649 4.89791 11.0427 4.85528C10.9197 4.81561 10.7156 4.62824 10.586 4.47861C10.4501 4.33672 10.2011 4.18857 10.2011 4.18376ZM10.8281 2.97186C10.9166 2.97186 11.0114 2.97816 11.1133 2.9926C11.15 2.9989 11.1855 3.00594 11.22 3.01297L11.2252 3.01409C10.1707 2.83445 9.96737 3.62557 9.96367 3.81779C9.96107 3.95816 9.97033 4.05298 9.96589 4.10927C9.81255 4.17335 9.64848 4.19668 9.64848 4.19668C9.65737 4.10779 9.657 3.9115 9.69515 3.75668C9.73107 3.61112 9.97404 2.97557 10.8281 2.97186Z" fill="#B1BABF"/>
<path fill-rule="evenodd" clip-rule="evenodd" d="M10.3046 2.81706C10.858 2.59113 11.6891 2.88743 11.6965 2.89002C11.7039 2.89224 12.5457 3.15706 12.8509 3.67113C13.1576 4.1878 13.1169 4.65818 12.9313 5.00151C12.7458 5.34522 12.5672 5.53892 12.572 5.65374C12.5765 5.76818 12.6257 5.86225 12.6257 5.86225C12.6257 5.86225 12.4132 6.28707 12.1002 6.40707C12.1002 6.40707 11.9272 6.85411 11.7406 7.00226C11.5546 7.15041 11.2769 7.303 11.0261 7.50374C10.9272 7.583 10.8135 7.63189 10.6924 7.65671C10.7006 7.66263 10.7083 7.66856 10.7165 7.67448C11.2206 7.66115 11.9746 7.60004 12.7639 7.38782C14.1539 7.01374 15.4743 5.74485 15.4743 5.74485C15.1439 6.82559 14.9965 7.18263 14.1347 7.793C13.2724 8.40301 11.9224 8.5893 11.9224 8.5893C11.9072 8.64782 11.818 8.7093 11.818 8.7093C11.818 8.7093 11.9561 8.76041 12.2954 9.0156C12.6343 9.27079 12.5424 9.25819 12.6506 9.33116C12.7522 9.39935 12.8126 9.38551 12.8195 9.38358L12.8202 9.38338C12.8528 9.44894 12.8569 9.54634 12.8569 9.54634C12.902 9.58894 13.1232 9.80005 12.9176 10.0186C12.7117 10.2371 12.4739 10.0341 12.4739 10.0341C12.3898 10.0519 12.308 10.0241 12.308 10.0241C12.308 10.0241 11.868 10.3012 11.431 9.99931C11.0754 9.75412 11.0969 9.46338 11.1176 9.36301C10.9976 9.4319 10.8687 9.4856 10.7365 9.52708C10.3798 9.63894 9.92463 9.68523 9.4724 9.53486C9.17536 9.43486 8.92944 9.26153 8.73536 9.0693C8.54092 8.87671 8.39721 8.66412 8.30351 8.47264C8.28943 8.44338 8.2761 8.41449 8.26425 8.38634C8.23314 8.46041 8.08425 8.74156 7.62314 8.72153C7.09239 8.69856 6.90832 8.21226 6.90832 8.21226C6.90832 8.21226 6.82647 8.18486 6.77017 8.12041C6.77017 8.12041 6.45832 8.13893 6.42572 7.84041C6.3935 7.54189 6.69758 7.50708 6.75943 7.50041C6.75943 7.50041 6.82091 7.42485 6.88647 7.39226C6.88647 7.39226 6.9235 7.44596 7.0535 7.453C7.1835 7.46004 7.10276 7.41448 7.52721 7.41559C7.95165 7.41634 8.0924 7.4593 8.0924 7.4593C8.0924 7.4593 8.05832 7.35633 8.08166 7.30041C8.08166 7.30041 7.11758 6.33744 6.79795 5.33077C6.47832 4.3241 6.57609 3.95077 6.96424 2.88928C6.96424 2.88928 7.25202 4.69781 8.13536 5.83411C8.63944 6.48263 9.20648 6.98819 9.60092 7.303C9.60981 7.303 9.61907 7.30337 9.62796 7.30337C9.54388 7.20967 9.47981 7.09967 9.44796 6.97374C9.36907 6.66263 9.23981 6.37337 9.18055 6.143C9.12129 5.91226 9.25314 5.45114 9.25314 5.45114C9.0761 5.16744 9.1624 4.7004 9.1624 4.7004C9.1624 4.7004 9.25833 4.65484 9.33129 4.56632C9.40388 4.47743 9.3787 4.21521 9.43796 3.82928C9.49722 3.44336 9.74833 3.04409 10.3046 2.81706ZM11.7398 8.46078C11.7269 8.44449 11.7054 8.46041 11.7054 8.46041C11.5794 8.56338 11.5509 8.75745 11.5498 8.81079C11.5491 8.86412 11.3939 9.20745 11.3635 9.30264C11.362 9.30638 11.3357 9.3882 11.3294 9.43745C11.3202 9.51338 11.3232 9.7456 11.6991 9.87894C12.0436 10.0008 12.3313 9.77227 12.3776 9.73264C12.4743 9.73968 12.5446 9.68931 12.5787 9.6556C12.5928 9.6419 12.6013 9.63116 12.6032 9.62857C12.5665 9.75042 12.4887 9.78042 12.4413 9.78709C12.4261 9.78931 12.4135 9.78931 12.4069 9.78857C12.408 9.7919 12.4083 9.79412 12.4091 9.79712C12.4146 9.81746 12.4135 9.82968 12.4135 9.82968C12.4135 9.82968 12.4246 9.83523 12.4439 9.83635C12.4713 9.83783 12.515 9.83116 12.5713 9.7882C12.5806 9.78079 12.588 9.77301 12.5954 9.76523C12.5735 9.81153 12.5906 9.86709 12.6362 9.8919C12.6835 9.91749 12.7428 9.90005 12.7683 9.85268C12.7943 9.8056 12.7765 9.74597 12.7291 9.72042C12.6943 9.70153 12.6532 9.70634 12.6239 9.72857C12.6524 9.68153 12.6557 9.63301 12.6539 9.60268C12.6539 9.59746 12.6506 9.57412 12.6502 9.57412C12.6506 9.57375 12.6506 9.57375 12.6506 9.57375C12.6317 9.56894 12.6139 9.56227 12.5969 9.55412C12.578 9.54486 12.5602 9.53301 12.5424 9.51968C12.5187 9.50227 12.4495 9.43671 12.4325 9.41968C12.4098 9.39671 12.3865 9.37412 12.3635 9.35116C12.3357 9.32375 12.2746 9.26745 12.2465 9.24597C12.2409 9.24156 12.1783 9.1919 12.1676 9.18338C12.1835 9.19968 12.2939 9.31857 12.3191 9.3856C12.3354 9.4256 12.3446 9.4756 12.342 9.51894C12.3413 9.53116 12.3395 9.5419 12.3372 9.5519C12.3372 9.5519 12.3376 9.55264 12.338 9.55264C12.3376 9.55264 12.3372 9.55227 12.3369 9.55227C12.3332 9.57005 12.3276 9.5856 12.3202 9.59523C12.3065 9.61194 12.285 9.6212 12.2687 9.62597C12.2691 9.62597 12.2695 9.62634 12.2698 9.62671C12.2946 9.64634 12.3202 9.66412 12.3413 9.6882C12.1283 9.89116 11.8435 9.89153 11.6791 9.81079C11.5187 9.73231 11.4713 9.63523 11.4917 9.50153C11.4483 9.49227 11.4065 9.46523 11.3906 9.39857C11.392 9.39968 11.3939 9.40042 11.3954 9.4019C11.4324 9.4319 11.4928 9.44264 11.5302 9.40708C11.5639 9.37523 11.5902 9.32264 11.6139 9.26597C11.6354 9.21412 11.6539 9.16079 11.678 9.11005C11.6876 9.0893 11.6943 9.06671 11.698 9.04449C11.7087 8.98116 11.6954 8.91375 11.6643 8.85782C11.6306 8.79745 11.6128 8.71449 11.6417 8.62856C11.6709 8.54301 11.7198 8.51041 11.7339 8.49708C11.7483 8.48412 11.7476 8.47078 11.7398 8.46078ZM11.7176 8.90301C11.7502 8.95042 11.7894 9.0286 11.7817 9.12338C11.7817 9.12338 11.7743 9.17227 11.7643 9.20116C11.7483 9.24597 11.7346 9.28227 11.7232 9.31153C11.9124 9.39671 12.0917 9.50301 12.2098 9.58375C12.2265 9.5782 12.2458 9.56894 12.2591 9.55227C12.2676 9.54116 12.2736 9.52264 12.2776 9.50116C12.2861 9.4582 12.2843 9.39968 12.2613 9.33671C12.242 9.2819 12.1998 9.22264 12.1583 9.17675C12.1532 9.17264 12.1476 9.16893 12.1424 9.16486C12.1002 9.13449 12.0569 9.1056 12.0128 9.07745C11.9517 9.03819 11.8894 9.00042 11.8261 8.96412C11.7961 8.94671 11.7661 8.93004 11.7357 8.91301C11.7294 8.9093 11.7235 8.90634 11.7176 8.90301ZM10.1231 7.58967C9.38907 7.34337 8.59277 7.70745 8.41795 7.92856C8.41055 7.93745 8.40388 7.94671 8.39832 7.95671C8.39758 7.95782 8.39721 7.96004 8.3961 7.96078C8.3961 7.96078 8.39166 7.96745 8.38684 7.98115C8.31721 8.1893 8.73907 9.07375 9.53537 9.34116C10.3324 9.60857 11.1939 9.18116 11.2717 8.9493C11.2772 8.93264 11.2783 8.91893 11.2783 8.91893C11.2861 8.86412 11.2739 8.78597 11.2435 8.69449C11.125 8.34264 10.7309 7.79374 10.1231 7.58967ZM10.588 8.32404C10.8677 8.48801 11.0759 8.66453 11.182 8.79093C11.0265 8.67623 10.8243 8.54886 10.5868 8.4279C10.5884 8.39308 10.5888 8.35845 10.588 8.32404ZM8.30943 7.30967C8.29758 7.313 8.28906 7.323 8.2924 7.34226C8.29573 7.36115 8.31536 7.41708 8.28647 7.50263C8.25795 7.58893 8.19388 7.64411 8.13054 7.67189C8.06721 7.69967 7.98943 7.76226 7.96758 7.86486C7.9461 7.96708 7.89054 8.10189 7.9061 8.19078C7.91165 8.22486 7.94536 8.27152 8.02277 8.26856C7.9698 8.31226 7.92017 8.30893 7.87943 8.29041C7.81536 8.40856 7.71906 8.45708 7.54351 8.42301C7.36425 8.38856 7.13684 8.21634 7.0898 7.9256C7.0898 7.92066 7.14999 7.92009 7.17455 7.92004H7.18536C7.17499 7.90634 7.1635 7.88597 7.16276 7.86448C7.16239 7.85226 7.16758 7.83671 7.17536 7.82004C7.17721 7.81745 7.18499 7.803 7.18647 7.80041C7.20795 7.76004 7.24943 7.72189 7.28869 7.69893C7.28906 7.69856 7.28943 7.69819 7.2898 7.69819C7.35832 7.65708 7.46573 7.63226 7.53388 7.62856C7.53573 7.62819 7.5098 7.62745 7.49684 7.62782C7.41239 7.62819 7.32832 7.63634 7.24462 7.64819C7.17054 7.65856 7.09943 7.67115 7.03128 7.67078C7.00943 7.67041 6.98832 7.66893 6.96795 7.66523C6.94906 7.66152 6.93017 7.65597 6.91165 7.64819C6.91165 7.64819 6.84091 7.70485 6.83795 7.80189C6.83054 7.76189 6.79832 7.7293 6.7561 7.723C6.70239 7.71486 6.65202 7.75152 6.64387 7.8056C6.63572 7.8593 6.67313 7.90967 6.72684 7.91782C6.78017 7.92597 6.83054 7.88893 6.83869 7.83523C6.83906 7.83374 6.83906 7.83263 6.83906 7.83115C6.84054 7.84263 6.84276 7.85486 6.8461 7.86708C6.85535 7.90152 6.86795 7.9256 6.88128 7.94412C6.91239 7.98856 6.94684 7.99523 6.94684 7.99523C6.94721 7.99523 6.95165 7.98893 6.95202 7.98819C6.95424 7.9856 6.97276 7.96634 6.97647 7.96634C6.9535 7.95115 6.85869 7.87819 6.91647 7.72004C6.91647 7.72004 6.91313 7.86374 7.03202 7.94004C7.04498 7.9993 7.13832 8.35486 7.48684 8.46523C7.86721 8.58634 8.01351 8.40486 8.04795 8.33634C8.06314 8.30523 8.10203 8.20819 8.10203 8.20819C8.13499 8.11375 8.21869 7.74634 8.25017 7.70337C8.28129 7.66041 8.37573 7.48856 8.33758 7.33041C8.33758 7.33041 8.32981 7.30448 8.30943 7.30967ZM15.0469 6.39448C15.0454 6.39744 14.9998 6.43522 14.9261 6.49485C14.8946 6.52078 14.8598 6.54892 14.8206 6.58004C14.3917 6.91893 13.4965 7.52819 12.0391 7.79041C11.6857 7.85374 11.3257 7.88856 10.975 7.90412C11.0328 7.96375 11.0857 8.02449 11.1339 8.08634C11.1339 8.08634 11.2872 8.07489 11.3083 8.073C11.5728 8.05078 11.8372 8.01893 12.0987 7.97152C12.7454 7.85486 13.2343 7.68967 13.4661 7.60226C13.5206 7.58078 13.5724 7.55893 13.6232 7.53671L13.6162 7.54263C13.6162 7.54263 12.6665 8.10782 11.2246 8.21115C11.2706 8.27967 11.3113 8.34745 11.3457 8.41412C11.7943 8.38893 12.2483 8.32634 12.6776 8.20745C12.952 8.13115 13.222 8.03486 13.4798 7.913C13.7391 7.79078 13.9935 7.64411 14.2172 7.46374C14.3628 7.34596 14.4995 7.2193 14.625 7.07967C14.7976 6.88818 14.955 6.66004 15.0402 6.41485L15.0465 6.39559L15.0469 6.39448ZM7.54388 7.62819C7.48351 7.64004 7.41388 7.66152 7.36536 7.69374C7.30869 7.73041 7.27239 7.77597 7.25313 7.81486C7.2435 7.83486 7.23684 7.85337 7.23721 7.86708C7.23795 7.88856 7.24795 7.90745 7.25758 7.92189C7.25758 7.92189 7.59647 7.94004 7.8098 7.99856C7.81795 7.96819 7.82906 7.93078 7.84351 7.8856C7.85277 7.85671 7.86536 7.83263 7.87906 7.81078C7.93017 7.73004 8.00573 7.69411 8.06092 7.67597C7.96906 7.66115 7.86165 7.64893 7.76943 7.64078C7.72351 7.63671 7.67758 7.63337 7.63128 7.63115C7.60239 7.62967 7.57314 7.62893 7.54388 7.62819ZM8.52936 7.90582C8.69384 7.8693 8.9751 7.85211 9.30644 7.89156C9.28477 7.91871 9.26396 7.94682 9.24392 7.97582C8.97347 7.92756 8.72788 7.90756 8.52936 7.90582ZM6.91832 3.66669L6.91091 3.6878C6.86313 3.82891 6.84498 3.98299 6.83721 4.13114C6.82387 4.38188 6.84758 4.6341 6.90054 4.87892C6.95684 5.13966 7.04684 5.3904 7.15758 5.63262C7.27054 5.88077 7.41017 6.11596 7.5661 6.33929C7.75758 6.61448 7.97647 6.87078 8.21351 7.10782C8.31499 7.20967 8.42018 7.30819 8.52795 7.40374C8.54129 7.41522 8.64907 7.52263 8.65981 7.51782C8.72721 7.48559 8.80055 7.45596 8.8787 7.42856C7.80203 6.48966 7.38239 5.47781 7.36943 5.44633L7.37239 5.45151C7.38573 5.47596 7.39906 5.5004 7.4135 5.52522C7.44017 5.56892 7.47351 5.62707 7.51684 5.69781C7.72425 6.02966 7.99943 6.3867 8.36869 6.75818C8.36981 6.7593 8.82833 7.21152 9.02388 7.38374C9.09981 7.363 9.17907 7.34596 9.26129 7.33263C8.98907 7.10745 8.72055 6.86078 8.47499 6.59522C7.23499 5.25151 6.99795 4.00225 6.91832 3.66669ZM9.4924 5.48448C9.4924 5.48448 9.49203 5.48559 9.49166 5.48744C9.48388 5.51892 9.42277 5.77262 9.4087 5.89596C9.40685 5.91226 9.40574 5.92744 9.40499 5.94188C9.39907 6.043 9.41685 6.1004 9.4387 6.16744C9.46314 6.24374 9.57833 6.57041 9.60648 6.6593C9.61018 6.67041 9.61425 6.68448 9.6187 6.70041C9.64907 6.81337 9.7024 7.03263 9.80944 7.14819C9.93096 7.27893 10.0483 7.33782 10.1931 7.38671C10.1931 7.38671 10.1939 7.38671 10.1943 7.38708C10.195 7.38708 10.1954 7.38745 10.1957 7.38745C10.268 7.41189 10.3365 7.42967 10.4091 7.43782C10.4813 7.44597 10.5576 7.44411 10.6454 7.42856C10.8228 7.39708 11.0257 7.21522 11.102 7.16115C11.1783 7.10707 11.4676 6.91633 11.5328 6.87004C11.5983 6.82374 11.6532 6.78522 11.7206 6.67152C11.788 6.55744 11.9017 6.29263 11.9017 6.29263C11.9017 6.29263 11.7924 6.27115 11.7561 6.2667C11.7561 6.2667 11.7557 6.26781 11.7546 6.26966C11.7383 6.29818 11.608 6.52818 11.5606 6.57633C11.5606 6.57633 11.5591 6.57633 11.5569 6.57707C11.5398 6.58004 11.472 6.59337 11.4383 6.61855C11.3994 6.64707 11.2587 6.85633 11.0746 6.93522C11.092 6.83152 11.025 6.77781 11.0076 6.77967C10.9906 6.78152 10.9773 6.82226 10.9735 6.83263C10.9698 6.843 10.9343 6.913 10.9224 6.94596C10.9102 6.97893 10.9139 6.98152 10.9139 6.98152C10.8843 6.98041 10.8546 6.97893 10.8254 6.9767C10.8535 6.92337 10.8787 6.87041 10.9024 6.81781C10.9178 6.77794 10.8811 6.76626 10.874 6.76439L10.8728 6.76411L10.8724 6.76374C10.8461 6.75967 10.8199 6.75559 10.7936 6.75041H10.7909C10.758 6.74448 10.738 6.76522 10.7339 6.77781C10.7306 6.78596 10.7273 6.79448 10.7239 6.80263C10.7117 6.83152 10.6987 6.86078 10.6861 6.88967C10.6857 6.89152 10.6854 6.89337 10.6843 6.89485C10.6694 6.93152 10.682 6.96226 10.682 6.96226C10.672 6.96152 10.6476 6.96226 10.6061 6.95411C10.5869 6.95004 10.5609 6.93856 10.5609 6.93856C10.5754 6.9267 10.5843 6.90411 10.5843 6.90411C10.6106 6.84004 10.6509 6.74078 10.6509 6.74078C10.6509 6.74078 10.6669 6.69781 10.6391 6.68967C10.6013 6.68041 10.5639 6.67004 10.5265 6.65892C10.498 6.65263 10.4857 6.67596 10.4828 6.68374C10.4769 6.69855 10.4669 6.72189 10.4631 6.73226C10.4487 6.77337 10.4346 6.81411 10.4206 6.85448C10.4206 6.85522 10.4206 6.85559 10.4202 6.85633C10.4113 6.88226 10.4183 6.90707 10.4183 6.90707C10.4183 6.90707 10.382 6.89967 10.3631 6.89448C10.3439 6.88967 10.315 6.8693 10.315 6.8693C10.3199 6.86485 10.3254 6.85152 10.3294 6.84226C10.3465 6.78152 10.3631 6.70559 10.3776 6.64189C10.3787 6.633 10.3791 6.6067 10.352 6.59559C10.3202 6.58374 10.2883 6.57152 10.2572 6.55855C10.2294 6.55004 10.2172 6.573 10.2128 6.58633C10.2002 6.64374 10.1857 6.71263 10.1761 6.76263C10.172 6.79744 10.188 6.82189 10.188 6.82189C10.1732 6.81855 10.1435 6.80559 10.1198 6.79559C10.1039 6.78893 10.0694 6.76596 10.0694 6.76596C10.0872 6.76448 10.0972 6.7267 10.0972 6.7267C10.1168 6.68559 10.1302 6.65004 10.1457 6.61115C10.1461 6.60929 10.1472 6.60781 10.1476 6.60596C10.148 6.60485 10.1483 6.60411 10.1491 6.60226C10.1643 6.56115 10.1357 6.53929 10.1309 6.53596C10.0894 6.51522 10.0428 6.49078 10.0424 6.49078C10.0187 6.47818 10.0031 6.49485 9.99796 6.51115C9.98166 6.55744 9.95611 6.59966 9.94722 6.65078C9.94314 6.67967 9.94537 6.69967 9.94537 6.69967C9.88907 6.673 9.86833 6.63041 9.86833 6.63041C9.88166 6.61448 9.89981 6.55744 9.90018 6.50448C9.90055 6.45115 9.90389 6.40152 9.87907 6.38374C9.85426 6.36633 9.81277 6.41078 9.79129 6.44263C9.77018 6.47411 9.76537 6.49263 9.76537 6.49263V6.4967C9.66537 6.32263 9.67944 6.07003 9.66574 6.02374C9.65203 5.97744 9.59351 5.91596 9.59351 5.91596C9.5924 5.90707 9.59203 5.89485 9.59203 5.88003C9.59351 5.78337 9.62018 5.58299 9.62388 5.55485C9.62425 5.55262 9.62425 5.55151 9.62425 5.55151C9.59314 5.53299 9.4924 5.48448 9.4924 5.48448ZM10.8283 2.97187C9.97426 2.97558 9.73129 3.61113 9.69537 3.75669C9.65722 3.91151 9.65759 4.1078 9.6487 4.19669C9.6487 4.19669 9.81277 4.17336 9.96611 4.10928C10.0491 4.07521 10.1291 4.03114 10.1902 3.97225C10.1761 3.98854 9.94574 4.25077 9.69944 4.27854C9.69944 4.27854 9.64537 4.51595 9.57944 4.63595C9.51425 4.75632 9.38648 4.83855 9.38648 4.83855C9.38648 4.83855 9.37685 4.93299 9.37685 5.02818C9.37685 5.06633 9.37796 5.10484 9.38203 5.13707C9.38425 5.15336 9.38722 5.16818 9.39055 5.18077C9.41981 5.28151 9.42314 5.34522 9.64129 5.44114C9.71574 5.47373 9.78944 5.50855 9.86018 5.54855C9.96611 5.60855 10.0802 5.67929 10.1243 5.79966C10.1246 5.80077 10.1246 5.80188 10.1254 5.803C10.1372 5.83337 10.1383 5.87114 10.1302 5.90225C10.1302 5.89818 10.1283 5.893 10.1257 5.88744C10.1161 5.86855 10.0994 5.85485 10.0887 5.83707C10.0887 5.8367 10.0884 5.83633 10.0876 5.83559C10.0639 5.80855 10.0383 5.78374 10.0083 5.76337V5.76448L10.0076 5.76299C10.0076 5.76299 9.98463 5.84337 9.9487 5.90263C9.92833 5.9367 9.90648 5.97448 9.88351 6.02633C9.88351 6.02707 9.88314 6.02781 9.88277 6.02855C9.83796 6.14485 9.89018 6.26781 9.9024 6.26855C9.91685 6.26966 9.94759 6.25559 10.0057 6.09226C10.0072 6.08855 10.0102 6.08077 10.012 6.07226C10.0135 6.06448 10.0109 6.0504 10.0076 6.03892C10.0076 6.03892 10.008 6.03818 10.0083 6.03707C10.0154 6.0104 10.0494 6.01263 10.0709 6.01522C10.0783 6.01596 10.0857 6.01707 10.0928 6.01892C10.0961 6.01966 10.0991 6.0204 10.1017 6.02114C10.1239 6.02892 10.1361 6.04411 10.1357 6.05226C10.1357 6.05226 10.1239 6.05966 10.115 6.07337C10.1065 6.08707 10.0917 6.12226 10.0876 6.13189C10.0728 6.16855 10.0621 6.19818 10.0494 6.23485C10.0487 6.23596 10.0487 6.23707 10.0487 6.23818C10.0382 6.26923 10.0647 6.2824 10.0711 6.28506L10.0724 6.28559C10.0724 6.28596 10.0761 6.28707 10.0765 6.28707C10.105 6.29226 10.1357 6.29855 10.1676 6.30522C10.1676 6.30522 10.2102 6.313 10.2246 6.27485C10.2383 6.23448 10.2502 6.20114 10.2654 6.16077C10.2661 6.15855 10.2672 6.15596 10.2683 6.15374V6.15337L10.2694 6.15077C10.2694 6.15077 10.2787 6.123 10.2828 6.10633C10.2865 6.09077 10.3028 6.06411 10.3176 6.06411C10.3331 6.06411 10.3543 6.07151 10.352 6.103C10.3498 6.13448 10.3435 6.15522 10.3424 6.15892C10.342 6.1604 10.3417 6.16226 10.3417 6.16337C10.3276 6.213 10.2991 6.31744 10.2991 6.31744C10.2854 6.35744 10.3291 6.37003 10.3291 6.37003C10.3557 6.37744 10.3957 6.38374 10.4239 6.39226C10.4257 6.39263 10.4272 6.393 10.4294 6.39337C10.4294 6.39337 10.4628 6.40411 10.4746 6.39966C10.4869 6.39522 10.4946 6.3767 10.4969 6.37077C10.4987 6.36485 10.5431 6.20966 10.548 6.193C10.5513 6.1804 10.5498 6.15522 10.5431 6.14077C10.5454 6.14114 10.5857 6.14818 10.6084 6.15559C10.6272 6.16226 10.6524 6.17226 10.665 6.18189C10.6457 6.19152 10.6331 6.22337 10.632 6.22781C10.6317 6.22855 10.6313 6.22892 10.6313 6.22929C10.6283 6.23966 10.6246 6.24966 10.6217 6.25966C10.6076 6.30226 10.5891 6.3567 10.5746 6.39966C10.5724 6.41115 10.5702 6.43966 10.6035 6.45226L10.6087 6.45411C10.6365 6.46448 10.6717 6.47707 10.6976 6.48744C10.6976 6.48744 10.7061 6.49078 10.7169 6.49078C10.7298 6.49078 10.7458 6.48596 10.7531 6.46374C10.7598 6.44337 10.775 6.39818 10.7883 6.35707C10.8013 6.31633 10.8131 6.27929 10.8135 6.27485C10.8139 6.26707 10.8231 6.25263 10.8287 6.24781C10.8439 6.2467 10.855 6.24892 10.8654 6.25411C10.8776 6.26003 10.8917 6.27522 10.8972 6.28078C10.8891 6.29485 10.8761 6.33078 10.8728 6.3504C10.8702 6.36707 10.8506 6.43855 10.8413 6.47189C10.8402 6.47448 10.8394 6.47818 10.8384 6.48115C10.8376 6.48226 10.838 6.48337 10.8376 6.48485C10.8372 6.48596 10.8369 6.4867 10.8372 6.48744C10.832 6.52189 10.8654 6.53929 10.8654 6.53929C10.895 6.55337 10.9235 6.56707 10.9495 6.58004C10.9495 6.58004 10.9531 6.58152 10.9535 6.58152C10.9535 6.58152 10.9891 6.593 11.0009 6.55781C11.0013 6.5567 11.002 6.55559 11.0024 6.55522C11.0143 6.51818 11.0236 6.48744 11.0339 6.44966C11.0365 6.43929 11.0394 6.42892 11.0421 6.41855C11.0428 6.41744 11.0431 6.41448 11.0436 6.41041C11.0443 6.40781 11.0494 6.38929 11.0509 6.37781C11.052 6.37189 11.052 6.36633 11.0517 6.36226C11.0517 6.36226 11.0713 6.37003 11.0943 6.38003C11.0943 6.38041 11.1394 6.40041 11.1483 6.40522C11.1561 6.40966 11.1687 6.41448 11.1735 6.42263C11.1846 6.43818 11.1876 6.44448 11.1876 6.44448L11.1554 6.44966C11.1494 6.44929 11.1228 6.45892 11.1228 6.46707C11.0709 6.633 11.0869 6.66226 11.0991 6.67004C11.1094 6.6767 11.225 6.61078 11.2594 6.49078C11.2594 6.48966 11.2787 6.38966 11.2828 6.35003C11.2898 6.28596 11.3165 6.213 11.3199 6.20411L11.3191 6.20448C11.3191 6.20411 11.3199 6.20337 11.3199 6.20337C11.2024 6.19781 11.1369 6.24411 11.1369 6.24411C11.1443 6.22633 11.155 6.21115 11.1665 6.19744C11.1672 6.1967 11.1676 6.1967 11.168 6.19596C11.2546 6.09596 11.412 6.10003 11.5309 6.11522C11.6239 6.1267 11.7161 6.14633 11.8072 6.16818C12.0398 6.223 12.0806 6.17448 12.1643 6.11152C12.2365 6.05744 12.2954 5.97411 12.3391 5.89633C12.3399 5.89485 12.3409 5.89374 12.3417 5.89225C12.3609 5.86262 12.3743 5.84114 12.3743 5.84114C12.3743 5.84114 12.3217 5.69855 12.342 5.56299C12.3628 5.42781 12.4624 5.20521 12.4624 5.20521C12.2772 5.02966 12.2557 4.66447 12.2557 4.66447C12.2672 4.73855 12.2972 4.81262 12.3361 4.88225C12.3954 4.98929 12.4743 5.08484 12.5328 5.14892C12.5828 5.06781 12.6969 4.92558 12.7543 4.78151C12.8176 4.62114 13.0609 3.78225 11.9569 3.25113L11.9139 3.23298C11.8902 3.2215 11.8672 3.21113 11.8454 3.20113C11.8232 3.19113 11.802 3.18224 11.782 3.17447C11.7669 3.16817 11.7524 3.16261 11.7387 3.15743C11.728 3.15335 11.718 3.14965 11.7087 3.14595C11.6757 3.13372 11.6483 3.12484 11.6283 3.11854C11.6243 3.11706 11.6206 3.11595 11.6165 3.11447C11.5757 3.1015 11.4198 3.05447 11.2254 3.01409L11.2202 3.01298C11.1857 3.00595 11.1502 2.99891 11.1135 2.99261C11.0117 2.97817 10.9169 2.97187 10.8283 2.97187ZM10.7614 5.34903C10.7777 5.30014 10.8329 5.27307 10.8874 5.28681C10.8907 5.28755 10.894 5.28825 10.897 5.2894C10.9006 5.29059 10.904 5.29203 10.9075 5.29344C10.9586 5.31592 10.9859 5.3701 10.9696 5.41903C10.9492 5.47936 10.9529 5.53014 10.9566 5.58236C10.9592 5.68348 11.0055 5.71166 10.9847 5.77425L10.964 5.83537C10.9522 5.87092 10.9196 5.89311 10.8821 5.8987C10.8647 5.90092 10.8462 5.90092 10.8277 5.895C10.7703 5.87574 10.7381 5.81718 10.7559 5.76499C10.7588 5.75611 10.7536 5.74648 10.7443 5.74311C10.7351 5.74018 10.7255 5.74496 10.7225 5.75351C10.7051 5.80611 10.644 5.83314 10.5862 5.81388C10.5677 5.80759 10.5529 5.79648 10.5403 5.78351C10.5143 5.75648 10.5017 5.71944 10.5136 5.68422L10.5344 5.62314C10.5551 5.56051 10.6092 5.56607 10.6725 5.48681C10.7066 5.44755 10.741 5.40977 10.7614 5.34903ZM11.2296 5.03307C11.2296 5.03307 11.231 5.03492 11.2318 5.03603C11.2374 5.04418 11.2633 5.08014 11.3029 5.11825C11.31 5.12529 11.3173 5.13196 11.3252 5.13866C11.3255 5.13899 11.3262 5.13936 11.3266 5.1401C11.3555 5.16418 11.3896 5.1864 11.4289 5.1994C11.5484 5.23977 11.7229 5.21121 11.91 5.17714C11.9263 5.17459 11.9422 5.17236 11.9582 5.17047C12.1259 5.15125 12.2734 5.18829 12.2734 5.18829L12.2737 5.18936L12.2704 5.18903C12.2656 5.18973 12.2608 5.19051 12.2556 5.19125C12.2082 5.20788 12.1837 5.32014 12.1837 5.32014C12.1745 5.35385 12.163 5.38677 12.1492 5.41903C12.1177 5.49159 12.0741 5.56236 12.0189 5.61981C11.9774 5.66314 11.9319 5.68462 11.8811 5.71314C11.8807 5.71277 11.8807 5.71277 11.8807 5.71277C11.88 5.71277 11.8514 5.72166 11.8363 5.72348C11.7214 5.73759 11.48 5.70055 11.3641 5.62125C11.3629 5.62088 11.3622 5.62051 11.3615 5.62018C11.2451 5.55088 11.2218 5.28607 11.2214 5.21751C11.2211 5.14936 11.2292 5.03492 11.2296 5.03307ZM9.85803 4.37821C9.86652 4.38154 10.001 4.44043 10.1195 4.5534C10.1314 4.56455 10.1428 4.57603 10.154 4.58784C10.2828 4.72788 10.4047 4.85603 10.5244 4.89603C10.5633 4.90899 10.6043 4.91195 10.6418 4.91014C10.6421 4.91014 10.6429 4.91014 10.6437 4.90973C10.654 4.90936 10.664 4.90862 10.6736 4.90751C10.7351 4.89973 10.784 4.88344 10.784 4.88344C10.784 4.88344 10.7203 4.98088 10.6788 5.03529C10.637 5.0901 10.4591 5.28718 10.3251 5.27236C10.324 5.27236 10.3229 5.27162 10.3217 5.27162C10.1813 5.26459 9.96618 5.14862 9.88318 5.06825C9.87211 5.05714 9.85507 5.03307 9.8547 5.03307C9.85211 5.03529 9.84948 5.03714 9.84652 5.03899C9.84948 5.03714 9.85211 5.03492 9.8547 5.0327C9.85618 5.03121 9.828 4.98233 9.82614 4.97862C9.7817 4.87121 9.79207 4.73751 9.81985 4.62973C9.828 4.59825 9.83766 4.56714 9.84989 4.53677C9.84989 4.53677 9.89803 4.43266 9.87026 4.3908C9.86692 4.3871 9.86318 4.3834 9.85989 4.38006L9.85914 4.37969C9.85914 4.37936 9.85874 4.37899 9.85803 4.37821Z" fill="#0A0B09"/>
<path fill-rule="evenodd" clip-rule="evenodd" d="M11.19 8.99622C10.8949 9.18218 10.2364 9.35422 9.60229 9.14151C8.97988 8.93251 8.56633 8.40047 8.43388 8.07655C8.41836 8.04292 8.41433 7.95214 8.50525 7.91006C8.50525 7.91006 8.44781 7.91825 8.39607 7.96069C8.39607 7.96069 8.39151 7.9674 8.38684 7.98129C8.31718 8.1891 8.73896 9.07374 9.53533 9.34107C10.3321 9.60852 11.1939 9.18111 11.2717 8.94944C11.277 8.93259 11.2781 8.91903 11.2781 8.91903C11.26 8.86233 11.2254 8.82699 11.2254 8.82699C11.2697 8.91059 11.2243 8.97188 11.19 8.99622Z" fill="#C2242B"/>
<path fill-rule="evenodd" clip-rule="evenodd" d="M10.5866 8.42789C10.5862 8.43789 10.5856 8.44797 10.5851 8.45801C10.5589 8.44471 10.5323 8.43145 10.5053 8.41834C10.4954 8.47867 10.4807 8.53823 10.4606 8.59664C10.4207 8.57349 10.38 8.55127 10.339 8.52993C10.357 8.47397 10.3712 8.41734 10.3819 8.36034C10.338 8.34041 10.2932 8.32086 10.2474 8.30175C10.2354 8.35586 10.2209 8.40993 10.204 8.46378C10.162 8.44438 10.1195 8.42575 10.0769 8.40826C10.0935 8.35589 10.1086 8.30356 10.1224 8.25149C10.0776 8.23423 10.0321 8.21745 9.98582 8.20123C9.97004 8.25178 9.95371 8.30286 9.93678 8.35423C9.89326 8.3386 9.84971 8.32389 9.80563 8.31023C9.82308 8.25904 9.84082 8.20849 9.85874 8.15867C9.81208 8.14382 9.76563 8.12986 9.71945 8.11671C9.69904 8.16645 9.67952 8.21715 9.6613 8.26889C9.61682 8.257 9.57167 8.24626 9.52656 8.23634C9.54533 8.18349 9.56637 8.13197 9.58919 8.08171C9.54108 8.06952 9.49337 8.05819 9.44626 8.04778C9.4207 8.09941 9.39807 8.15275 9.37889 8.20786C9.33333 8.19997 9.28741 8.1933 9.24152 8.1876C9.26048 8.12956 9.28448 8.07374 9.31252 8.02019C9.28289 8.01452 9.25352 8.00919 9.22452 8.00415C9.23081 7.99463 9.23722 7.98519 9.2437 7.97582C8.97326 7.92756 8.72766 7.90756 8.52915 7.90582C8.69363 7.8693 8.97489 7.85211 9.30622 7.89156C9.30874 7.88837 9.31119 7.88511 9.31378 7.882C9.33893 7.88497 9.36437 7.8883 9.39007 7.89197C9.41282 7.859 9.43704 7.827 9.46263 7.79604C9.50548 7.80156 9.54733 7.80785 9.5883 7.81474C9.565 7.84667 9.54274 7.87956 9.52159 7.9133C9.567 7.92156 9.613 7.93097 9.65952 7.94145C9.67848 7.90674 9.69822 7.87271 9.71859 7.83956C9.75767 7.84797 9.79615 7.857 9.83397 7.86667C9.8166 7.901 9.79959 7.93615 9.78297 7.97186C9.82626 7.98341 9.86982 7.996 9.91363 8.00967C9.92741 7.97297 9.94126 7.93674 9.95508 7.90119C9.99182 7.9126 10.0283 7.92478 10.0644 7.93782C10.054 7.97452 10.0432 8.01171 10.032 8.0493C10.0752 8.06467 10.1175 8.08082 10.1591 8.09752C10.1673 8.05919 10.1749 8.02112 10.1817 7.98345C10.2179 7.99849 10.2539 8.01441 10.2902 8.03141C10.2865 8.06978 10.2817 8.10845 10.276 8.14719C10.3194 8.16656 10.3617 8.18652 10.4029 8.20697C10.4062 8.16797 10.4082 8.12897 10.4089 8.09015C10.4458 8.10934 10.4829 8.12963 10.5204 8.15104C10.5222 8.19019 10.5223 8.2293 10.5207 8.2683C10.5433 8.28067 10.5655 8.29312 10.5874 8.30567C10.5876 8.31178 10.5877 8.31789 10.5878 8.32404C10.8675 8.48801 11.0757 8.66453 11.1818 8.79093C11.0263 8.67623 10.8241 8.54886 10.5866 8.42789ZM10.123 7.58971C9.38904 7.34348 8.59266 7.7073 8.41759 7.92841C8.41048 7.93741 8.40377 7.94686 8.39814 7.95682C8.39755 7.95786 8.39685 7.95993 8.396 7.96071C8.44774 7.91826 8.50518 7.91008 8.50518 7.91008C8.41426 7.95215 8.41829 8.04293 8.43381 8.07656C8.56626 8.40049 8.97981 8.93253 9.60222 9.14153C10.2364 9.35423 10.8949 9.18219 11.1899 8.99623C11.2242 8.9719 11.2697 8.9106 11.2254 8.82701C11.2254 8.82701 11.26 8.86234 11.278 8.91904C11.2857 8.86397 11.2737 8.78597 11.2431 8.69467C11.1249 8.34278 10.7307 7.79363 10.123 7.58971Z" fill="#DC4405"/>
</g>
<defs>
<clipPath id="clip0_879_4056">
<rect width="17.9912" height="16" fill="white" transform="translate(0.605957)"/>
</clipPath>
</defs>
</svg>
