<svg width="65" height="64" viewBox="0 0 65 64" fill="none" xmlns="http://www.w3.org/2000/svg">
<g clip-path="url(#clip0_750_352)">
<path d="M32.1665 42.6743C33.5682 42.6743 34.9563 42.3982 36.2513 41.8618C37.5464 41.3253 38.7231 40.5391 39.7143 39.5479C40.7055 38.5567 41.4918 37.3799 42.0282 36.0849C42.5647 34.7898 42.8408 33.4018 42.8408 32C42.8408 30.5982 42.5647 29.2102 42.0282 27.9151C41.4918 26.6201 40.7055 25.4433 39.7143 24.4521C38.7231 23.4609 37.5464 22.6747 36.2513 22.1382C34.9563 21.6018 33.5682 21.3257 32.1665 21.3257C29.3355 21.3257 26.6204 22.4503 24.6186 24.4521C22.6168 26.454 21.4922 29.169 21.4922 32C21.4922 34.831 22.6168 37.546 24.6186 39.5479C26.6204 41.5497 29.3355 42.6743 32.1665 42.6743Z" fill="#CC0000"/>
<path fill-rule="evenodd" clip-rule="evenodd" d="M64.1665 32C64.1665 40.4869 60.7951 48.6263 54.7939 54.6274C48.7928 60.6286 40.6534 64 32.1665 64C23.6796 64 15.5403 60.6286 9.53909 54.6274C3.53792 48.6263 0.166504 40.4869 0.166504 32C0.166504 23.5131 3.53792 15.3737 9.53909 9.37258C15.5403 3.37142 23.6796 0 32.1665 0C40.6534 0 48.7928 3.37142 54.7939 9.37258C60.7951 15.3737 64.1665 23.5131 64.1665 32ZM53.4922 32C53.4922 37.6559 51.2454 43.0802 47.2461 47.0796C43.2467 51.0789 37.8224 53.3257 32.1665 53.3257C26.5106 53.3257 21.0863 51.0789 17.0869 47.0796C13.0876 43.0802 10.8408 37.6559 10.8408 32C10.8408 26.3441 13.0876 20.9198 17.0869 16.9204C21.0863 12.9211 26.5106 10.6743 32.1665 10.6743C37.8224 10.6743 43.2467 12.9211 47.2461 16.9204C51.2454 20.9198 53.4922 26.3441 53.4922 32Z" fill="#CC0000"/>
</g>
<defs>
<clipPath id="clip0_750_352">
<rect width="64" height="64" fill="white" transform="translate(0.166504)"/>
</clipPath>
</defs>
</svg>
