<svg width="41" height="16" viewBox="0 0 41 16" fill="none" xmlns="http://www.w3.org/2000/svg">
<g clip-path="url(#clip0_30_2309)">
<g clip-path="url(#clip1_30_2309)">
<path fill-rule="evenodd" clip-rule="evenodd" d="M16.9682 7.22649L17.1215 6.85977C17.1415 6.79977 17.2082 6.73975 17.2615 6.73975H21.3421C21.4287 6.73975 21.4754 6.82642 21.4487 6.88645L21.282 7.28649C21.242 7.37983 21.182 7.43985 21.0687 7.45318H20.2486C20.2019 7.45318 20.1019 7.53986 20.0819 7.59985L18.8351 10.6136C18.8151 10.6802 18.7017 10.7936 18.6217 10.7936H16.9815C16.9015 10.7936 16.8148 10.7069 16.8482 10.6202L18.1617 7.53319C18.175 7.50651 18.1016 7.45318 18.0883 7.45318H17.1349C17.0215 7.45318 16.9148 7.34648 16.9682 7.22649Z" fill="#002D62"/>
<path fill-rule="evenodd" clip-rule="evenodd" d="M22.4956 9.36673L22.0489 10.0335H22.509L22.4156 10.5802C22.3956 10.7269 22.4023 10.7869 22.5356 10.7869H23.7091C23.8224 10.7869 23.9625 10.6936 23.9825 10.5802L24.6092 6.88645C24.6225 6.78642 24.5625 6.73975 24.4825 6.73975H22.2156C22.1422 6.73975 22.0489 6.78642 22.0155 6.84644L19.4752 10.5869C19.4352 10.6536 19.4953 10.7869 19.6152 10.7869H21.0221C21.2288 10.7869 21.3021 10.7603 21.4421 10.5869L22.769 8.53997L22.6423 9.36673H22.4956Z" fill="#002D62"/>
<path fill-rule="evenodd" clip-rule="evenodd" d="M26.8297 9.66015L27.1431 8.92673H27.2231C27.2964 8.92673 27.3831 8.85338 27.4098 8.78002L27.8898 7.64656C27.9165 7.5932 27.8698 7.50652 27.8165 7.50652H27.5164L26.1362 10.7869H24.4894C24.376 10.7869 24.236 10.6936 24.276 10.5736L25.8295 6.89312C25.8962 6.73309 26.0029 6.73979 26.0763 6.73979H29.3633C29.6834 6.73979 29.9301 7.05315 29.7901 7.40652L29.1033 9.0134C29.03 9.21341 28.7766 9.40012 28.5299 9.40012C28.7032 9.54013 28.7699 10.0069 28.6833 10.2136L28.5365 10.5803C28.4965 10.6803 28.3432 10.7869 28.2365 10.7869H26.8897C26.783 10.7869 26.6763 10.6403 26.723 10.5336L26.9697 9.96019C27.0364 9.80016 26.9164 9.66681 26.8764 9.66681L26.8297 9.66015Z" fill="#002D62"/>
<path fill-rule="evenodd" clip-rule="evenodd" d="M36.8243 8.4933L36.7841 6.88645C36.7841 6.8131 36.6708 6.73975 36.6109 6.73975H35.244C35.1439 6.73975 35.0573 6.73975 34.9907 6.87976L33.4438 10.5402C33.3704 10.7069 33.4905 10.7936 33.6105 10.7936H35.0306C35.1706 10.7936 35.3241 10.6936 35.384 10.5536L35.9907 9.1067L36.1108 10.5869C36.1175 10.8136 36.3708 10.7069 36.4642 10.5869L37.6444 9.02672L37.0377 10.5536C36.9643 10.7536 37.171 10.7936 37.2843 10.7936H38.5846C38.7043 10.7936 38.8379 10.6869 38.8845 10.5669L40.2779 6.95311C40.3113 6.84644 40.238 6.73975 40.1514 6.73975H38.3045C38.1977 6.73975 38.0912 6.79977 38.0242 6.88645L36.8243 8.4933Z" fill="#002D62"/>
<path fill-rule="evenodd" clip-rule="evenodd" d="M34.3569 7.32681L33.1036 10.3139C32.9967 10.5672 32.6501 10.7873 32.3701 10.7873H29.6564C29.3697 10.7873 29.0897 10.2739 29.203 9.98714L30.4832 6.94676C30.5566 6.79342 30.7699 6.7334 30.9499 6.7334H34.0302C34.2571 6.74009 34.4371 7.14679 34.3569 7.32681ZM32.1901 7.52685H32.3501C32.4035 7.52685 32.4634 7.66019 32.4367 7.71353L31.55 9.82715C31.5101 9.91382 31.4032 9.99381 31.2967 9.99381H31.1567C31.0965 9.99381 31.0166 9.86715 31.0434 9.80713L31.9301 7.71353C31.97 7.62019 32.0768 7.52685 32.1901 7.52685Z" fill="#002D62"/>
<path d="M16.895 12.2272L16.8149 12.2405V11.2671H16.9683C17.0616 11.2671 17.135 11.2937 17.1883 11.3471C17.2417 11.4004 17.275 11.4671 17.275 11.5538C17.275 11.6271 17.255 11.6871 17.215 11.7405C17.175 11.7872 17.115 11.8205 17.0483 11.8338L17.3417 12.2005L17.2683 12.2539L16.895 11.7671H16.9616C17.035 11.7671 17.0883 11.7471 17.1216 11.7138C17.1616 11.6805 17.1816 11.6271 17.1816 11.5671C17.1816 11.5004 17.1616 11.4538 17.1216 11.4204C17.0816 11.3804 17.035 11.3671 16.9616 11.3671H16.895V12.2272Z" fill="#002D62"/>
<path d="M17.8617 11.4539C17.9483 11.3739 18.0417 11.3339 18.1617 11.3339C18.2817 11.3339 18.3751 11.3739 18.455 11.4539C18.5351 11.534 18.5751 11.634 18.5751 11.754C18.5751 11.874 18.5351 11.9673 18.455 12.054C18.3751 12.134 18.2817 12.174 18.1617 12.174C18.0483 12.174 17.9483 12.134 17.8683 12.054C17.7883 11.974 17.7483 11.874 17.7483 11.754C17.7483 11.634 17.7883 11.534 17.8617 11.4539ZM17.7016 11.9473C17.7283 12.014 17.7683 12.0673 17.815 12.114C17.8617 12.1607 17.915 12.194 17.975 12.214C18.035 12.2407 18.095 12.2474 18.1617 12.2474C18.2284 12.2474 18.295 12.234 18.3484 12.214C18.4084 12.194 18.4617 12.1607 18.5017 12.114C18.5484 12.0673 18.5884 12.014 18.6151 11.9473C18.6417 11.8807 18.6551 11.8206 18.6551 11.7473C18.6551 11.674 18.6417 11.6073 18.6151 11.5473C18.5884 11.4806 18.5484 11.4273 18.5017 11.3873C18.4551 11.3406 18.4017 11.3072 18.3484 11.2873C18.2884 11.2606 18.2284 11.2539 18.1617 11.2539C18.095 11.2539 18.0283 11.2672 17.975 11.2873C17.915 11.3072 17.8617 11.3406 17.815 11.3873C17.7683 11.4339 17.7283 11.4873 17.7016 11.5539C17.6749 11.6206 17.6616 11.6806 17.6616 11.754C17.6616 11.8206 17.6749 11.8873 17.7016 11.9473Z" fill="#002D62"/>
<path d="M19.0818 12.2542L18.9951 12.2342L19.1951 11.2407L19.5218 12.0408L19.8486 11.2407L20.0419 12.2342L19.9619 12.2542L19.8152 11.5207L19.5218 12.2542L19.2218 11.5207L19.0818 12.2542Z" fill="#002D62"/>
<path d="M20.969 11.7671H20.6223L20.7957 11.4204L20.969 11.7671ZM20.5823 11.8471H21.009L21.209 12.2406L21.289 12.2139L20.8023 11.2471L20.3022 12.2205L20.3823 12.2472L20.5823 11.8471Z" fill="#002D62"/>
<path d="M21.7089 12.2274L21.6289 12.2474V11.2539L22.2757 12.0273V11.2739L22.3557 11.2539V12.2474L21.7089 11.4739V12.2274Z" fill="#002D62"/>
<path d="M22.9021 12.2275L22.8154 12.2409V11.2741L22.9021 11.2607V12.2275Z" fill="#002D62"/>
<path d="M23.9158 11.7671H23.5691L23.7424 11.4204L23.9158 11.7671ZM23.529 11.8471H23.9558L24.1558 12.2406L24.2358 12.2139L23.7491 11.2471L23.249 12.2205L23.329 12.2472L23.529 11.8471Z" fill="#002D62"/>
<path d="M24.6557 12.2274L24.5757 12.2474V11.2539L25.2158 12.0273V11.2739L25.3024 11.2539V12.2474L24.6557 11.4739V12.2274Z" fill="#002D62"/>
<path d="M26.976 11.7671H26.6293L26.8026 11.4204L26.976 11.7671ZM26.5893 11.8471H27.016L27.216 12.2406L27.3027 12.2139L26.816 11.2471L26.3159 12.2205L26.3959 12.2472L26.5893 11.8471Z" fill="#002D62"/>
<path d="M27.7229 12.2275L27.6362 12.2409V11.2741L27.7229 11.2607V12.2275Z" fill="#002D62"/>
<path d="M28.2698 12.2272L28.1831 12.2405V11.2671H28.3431C28.4365 11.2671 28.5098 11.2937 28.5632 11.3471C28.6165 11.4004 28.6498 11.4671 28.6498 11.5538C28.6498 11.6271 28.6298 11.6871 28.5898 11.7405C28.5498 11.7872 28.4898 11.8205 28.4231 11.8338L28.7165 12.2005L28.6365 12.2539L28.2698 11.7671H28.3365C28.4031 11.7671 28.4632 11.7471 28.5032 11.7138C28.5432 11.6805 28.5632 11.6271 28.5632 11.5671C28.5632 11.5004 28.5432 11.4538 28.5032 11.4204C28.4632 11.3804 28.4098 11.3671 28.3365 11.3671H28.2698V12.2272Z" fill="#002D62"/>
<path d="M30.0034 12.2274L29.9168 12.2407V11.3539H29.6567L29.6767 11.2739H30.2501V11.3539H30.0034V12.2274Z" fill="#002D62"/>
<path d="M30.7234 12.2272L30.6367 12.2405V11.2671H30.7967C30.8901 11.2671 30.9634 11.2937 31.0235 11.3471C31.0769 11.4004 31.1033 11.4671 31.1033 11.5538C31.1033 11.6271 31.0834 11.6871 31.0367 11.7405C30.9968 11.7872 30.9435 11.8205 30.8701 11.8338L31.1635 12.2005L31.0901 12.2539L30.7167 11.7671H30.7834C30.8568 11.7671 30.9034 11.7471 30.9435 11.7138C30.9835 11.6805 31.0035 11.6271 31.0035 11.5671C31.0035 11.5004 30.9835 11.4538 30.9435 11.4204C30.9034 11.3804 30.8501 11.3671 30.7834 11.3671H30.7167V12.2272" fill="#002D62"/>
<path d="M32.1031 11.7671H31.7632L31.9364 11.4204L32.1031 11.7671ZM31.7165 11.8471H32.1433L32.3432 12.2406L32.4298 12.2139L31.9364 11.2471L31.4365 12.2205L31.5164 12.2472L31.7165 11.8471Z" fill="#002D62"/>
<path d="M32.843 12.2274L32.7632 12.2474V11.2539L33.4098 12.0273V11.2739L33.4899 11.2539V12.2474L32.843 11.4739V12.2274Z" fill="#002D62"/>
<path d="M33.9102 12.0808L33.9835 12.0275C34.0103 12.0742 34.0434 12.1075 34.0836 12.1342C34.1235 12.1609 34.1635 12.1675 34.2169 12.1675C34.2768 12.1675 34.3302 12.1475 34.3701 12.1142C34.4103 12.0808 34.4303 12.0342 34.4303 11.9808C34.4303 11.8875 34.3501 11.8208 34.1969 11.7741C34.1834 11.7741 34.1702 11.7675 34.1635 11.7675C34.0836 11.7475 34.0302 11.7141 33.9903 11.6741C33.9501 11.6341 33.9301 11.5808 33.9301 11.5141C33.9301 11.4408 33.9568 11.3808 34.017 11.3341C34.0701 11.2807 34.1368 11.2607 34.2169 11.2607C34.2703 11.2607 34.317 11.2674 34.3569 11.2874C34.4036 11.3007 34.437 11.3341 34.4837 11.3741L34.4235 11.4408C34.3836 11.4008 34.3501 11.3808 34.317 11.3674C34.2835 11.3541 34.2504 11.3474 34.2101 11.3474C34.157 11.3474 34.1103 11.3674 34.0769 11.4008C34.037 11.4341 34.017 11.4741 34.017 11.5274C34.017 11.5608 34.0235 11.5875 34.037 11.6074C34.0502 11.6341 34.0701 11.6541 34.1036 11.6674C34.1303 11.6808 34.1702 11.6941 34.2236 11.7141C34.2568 11.7208 34.2835 11.7275 34.297 11.7341C34.3701 11.7608 34.4235 11.7875 34.457 11.8341C34.4902 11.8808 34.5101 11.9275 34.5101 11.9875C34.5101 12.0675 34.4769 12.1342 34.4235 12.1875C34.3637 12.2409 34.2903 12.2675 34.2037 12.2675C34.1435 12.2675 34.0836 12.2475 34.037 12.2209C33.9835 12.1808 33.9436 12.1342 33.9102 12.0808Z" fill="#002D62"/>
<path d="M35.2773 11.4206C35.324 11.4673 35.3439 11.5206 35.3439 11.594C35.3439 11.6673 35.324 11.7273 35.2773 11.7673C35.2306 11.8073 35.1708 11.834 35.0906 11.834H35.0172V11.3539H35.0906C35.164 11.3539 35.2306 11.374 35.2773 11.4206ZM35.0172 11.914H35.0906C35.1907 11.914 35.2773 11.8874 35.3372 11.8273C35.3974 11.7673 35.4305 11.6873 35.4305 11.594C35.4305 11.5006 35.3974 11.4206 35.3372 11.3606C35.2773 11.3006 35.1907 11.2739 35.0906 11.2739H34.9307V12.2474L35.0172 12.2341V11.914Z" fill="#002D62"/>
<path d="M36.0038 11.4539C36.084 11.3739 36.1838 11.3339 36.2974 11.3339C36.4107 11.3339 36.5105 11.3739 36.5906 11.4539C36.6707 11.534 36.7106 11.634 36.7106 11.754C36.7106 11.874 36.6707 11.9673 36.5906 12.054C36.5105 12.134 36.4107 12.174 36.2974 12.174C36.1773 12.174 36.084 12.134 36.0038 12.054C35.9237 11.974 35.8838 11.874 35.8838 11.754C35.8838 11.634 35.9237 11.534 36.0038 11.4539ZM35.8371 11.9473C35.8638 12.014 35.9037 12.0673 35.9504 12.114C35.9971 12.1607 36.0505 12.194 36.1039 12.214C36.1638 12.2407 36.224 12.2474 36.2906 12.2474C36.3572 12.2474 36.4171 12.234 36.4773 12.214C36.5372 12.194 36.5906 12.1607 36.6305 12.114C36.6839 12.0673 36.7174 12.014 36.7438 11.9473C36.7773 11.8807 36.7905 11.8206 36.7905 11.7473C36.7905 11.674 36.7773 11.6073 36.7438 11.5473C36.7174 11.4806 36.6772 11.4273 36.6305 11.3873C36.5838 11.3406 36.5307 11.3072 36.4705 11.2873C36.4107 11.2606 36.3505 11.2539 36.2839 11.2539C36.2172 11.2539 36.1506 11.2672 36.0972 11.2873C36.0373 11.3072 35.9839 11.3406 35.944 11.3873C35.8905 11.4339 35.8506 11.4873 35.8304 11.5539C35.804 11.6206 35.7837 11.6806 35.7837 11.754C35.7972 11.8206 35.8104 11.8873 35.8371 11.9473Z" fill="#002D62"/>
<path d="M37.2973 12.2272L37.2104 12.2405V11.2671H37.3704C37.4641 11.2671 37.5371 11.2937 37.5906 11.3471C37.644 11.4004 37.6707 11.4671 37.6707 11.5538C37.6707 11.6271 37.6507 11.6871 37.6105 11.7405C37.5706 11.7872 37.5107 11.8205 37.4438 11.8338L37.7441 12.2005L37.6639 12.2539L37.2973 11.7671H37.364C37.4374 11.7671 37.484 11.7471 37.5239 11.7138C37.5638 11.6805 37.5838 11.6271 37.5838 11.5671C37.5838 11.5004 37.5638 11.4538 37.5239 11.4204C37.4905 11.3804 37.4374 11.3671 37.364 11.3671H37.2973V12.2272Z" fill="#002D62"/>
<path d="M38.3645 12.2274L38.2776 12.2407V11.3539H38.0176L38.0378 11.2739H38.6111V11.3539H38.3645V12.2274Z" fill="#002D62"/>
<path d="M7.89141 9.79578C7.94631 9.80398 8.00572 9.81285 8.07357 9.82062L10.9606 6.96695C10.4939 6.5869 9.89382 6.35352 9.2604 6.35352C7.76687 6.35352 6.56006 7.56699 6.56006 9.04719C6.56006 9.46059 6.64674 9.8473 6.80676 10.194C6.99344 9.98731 7.29348 9.79394 7.5135 9.77395C7.65063 9.75977 7.75757 9.77576 7.89141 9.79578Z" fill="#002D62"/>
<path d="M11.5607 10.4536L9.07373 10.0002L11.054 7.05322C11.6007 7.55327 11.9474 8.2667 11.9474 9.05345C11.9474 9.57352 11.8141 10.0402 11.5607 10.4536Z" fill="#002D62"/>
<path d="M10.4476 11.4406L9.19411 10.4138L11.5011 10.5471C11.0144 11.2805 10.1876 11.7539 9.26746 11.7539C8.21398 11.7539 7.30054 11.1539 6.84717 10.2804C7.08052 10.2404 7.28722 10.2071 7.5139 10.2137C7.70727 10.2204 7.91394 10.2338 8.1273 10.2938L10.4476 11.4406Z" fill="#002D62"/>
<path fill-rule="evenodd" clip-rule="evenodd" d="M11.5809 1.89271L11.6609 1.86604L11.7409 1.85938H15.6147C15.6147 1.85938 15.6947 1.86604 15.7014 1.86604L15.7681 1.89938L15.8281 1.93938C15.8281 1.93938 15.8747 1.98606 15.8747 1.99273L15.8948 2.0594L15.9014 2.13274L15.8948 2.20609L15.8681 2.29276L11.0541 13.7942L10.9942 13.8742L10.9275 13.9476L10.8475 14.0076L10.7608 14.0609L10.6741 14.1076L10.5874 14.1276L10.4874 14.1342H0.61284L0.519495 14.1276L0.446153 14.0942L0.379478 14.0409L0.326138 13.9809L0.2928 13.9142L0.286133 13.8409L0.312803 13.7675L0.359475 13.6942L11.1408 2.27943L11.2808 2.13274L11.4275 1.99939L11.5009 1.93938L11.5809 1.89271ZM12.1676 9.05362C12.1676 7.45343 10.8674 6.13992 9.26059 6.13992C7.64704 6.13992 6.33356 7.44677 6.32687 9.05362C6.32687 10.6672 7.64704 11.9806 9.26059 11.9806C10.8674 11.9806 12.1676 10.6672 12.1676 9.05362Z" fill="#002D62"/>
<path d="M16.8018 1.88621C16.8018 1.87288 16.8084 1.86621 16.8084 1.86621L17.5419 1.88621C17.5419 1.88621 12.3812 14.1344 12.3679 14.1411H11.6611C11.6678 14.1344 16.8151 1.88621 16.8151 1.88621H16.8018Z" fill="#002D62"/>
</g>
</g>
<defs>
<clipPath id="clip0_30_2309">
<rect width="40" height="16" fill="white" transform="translate(0.286133)"/>
</clipPath>
<clipPath id="clip1_30_2309">
<rect width="40" height="12.2815" fill="white" transform="translate(0.286133 1.85938)"/>
</clipPath>
</defs>
</svg>
