<svg width="17" height="16" viewBox="0 0 17 16" fill="none" xmlns="http://www.w3.org/2000/svg">
<g clip-path="url(#clip0_832_402)">
<path d="M8.55298 0C6.43173 0 4.39548 0.843375 2.89673 2.34313C1.39673 3.84288 0.552979 5.87913 0.552979 8C0.552979 10.1209 1.39673 12.1571 2.89673 13.6569C4.39548 15.1566 6.43173 16 8.55298 16C10.6742 16 12.7105 15.1566 14.2092 13.6569C15.7092 12.1571 16.553 10.1209 16.553 8C16.553 5.87913 15.7092 3.84288 14.2092 2.34313C12.7105 0.843375 10.6742 0 8.55298 0Z" fill="url(#paint0_linear_832_402)"/>
<path d="M4.17432 7.91547C6.50682 6.89947 8.0618 6.2296 8.8393 5.90597C11.0618 4.98185 11.523 4.82135 11.8243 4.81597C11.8905 4.81485 12.038 4.83122 12.1343 4.9091C12.2143 4.97472 12.2368 5.06347 12.2481 5.12572C12.2581 5.18797 12.2718 5.32985 12.2606 5.4406C12.1406 6.7056 11.6193 9.77535 11.3543 11.1922C11.2431 11.7917 11.0218 11.9927 10.808 12.0124C10.343 12.0551 9.99053 11.7054 9.54053 11.4105C8.83678 10.9488 8.43931 10.6616 7.75556 10.2112C6.96556 9.69072 7.47804 9.4046 7.92804 8.9371C8.04554 8.81472 10.093 6.95285 10.1318 6.78397C10.1368 6.76285 10.1418 6.6841 10.0943 6.6426C10.0481 6.60097 9.97926 6.61522 9.92926 6.62647C9.85801 6.64247 8.73426 7.38597 6.55426 8.85685C6.23551 9.0761 5.94677 9.18297 5.68677 9.17735C5.40177 9.17122 4.85181 9.01585 4.44306 8.8831C3.94306 8.72022 3.54429 8.6341 3.57929 8.35747C3.59679 8.21347 3.79557 8.0661 4.17432 7.91547Z" fill="white"/>
</g>
<defs>
<linearGradient id="paint0_linear_832_402" x1="8.55298" y1="0" x2="8.55298" y2="16" gradientUnits="userSpaceOnUse">
<stop stop-color="#2AABEE"/>
<stop offset="1" stop-color="#229ED9"/>
</linearGradient>
<clipPath id="clip0_832_402">
<rect width="16" height="16" fill="white" transform="translate(0.552979)"/>
</clipPath>
</defs>
</svg>
