<svg width="24" height="16" viewBox="0 0 24 16" fill="none" xmlns="http://www.w3.org/2000/svg">
<g clip-path="url(#clip0_879_3945)">
<path d="M7.94475 9.33414C7.96686 9.5993 8.06108 10.1269 8.36599 10.7157C8.74278 11.4427 9.5321 12.4122 11.1601 12.9612C11.4185 13.367 11.7225 13.7463 12.0667 14.0895C13.3042 15.3241 14.9482 16.0028 16.6956 16C18.4433 15.9975 20.0852 15.3142 21.3191 14.0758C22.5529 12.8378 23.2315 11.1929 23.2287 9.44436C23.226 7.69537 22.5431 6.05256 21.3058 4.81796C20.3253 3.83962 19.0953 3.21023 17.7422 2.99188C15.9103 1.33213 13.7717 1.92685 13.68 1.95352C13.6492 1.96218 13.6034 1.97544 13.5464 1.99275C12.8881 2.21182 12.5479 1.96081 12.3273 1.78785C12.0831 1.59616 11.8164 1.40151 11.5592 1.25682C10.6854 0.765017 9.44357 0.747472 8.39764 1.16942C7.70865 1.40424 7.36127 1.1005 7.1558 0.958539C5.79127 0.0165223 4.11355 -0.20828 2.33367 0.183795C1.13514 0.448064 0.655762 0.692012 0.655762 0.692012C0.655762 0.692012 1.47684 0.811116 2.33461 1.16989C3.03889 1.46426 3.5988 1.84218 4.02277 2.52087C4.02277 2.52087 4.28962 2.91294 4.11628 3.02861C3.9222 3.15802 3.72011 2.84125 3.72011 2.84125C3.71348 3.06921 3.71348 3.29608 3.72853 3.46834C3.82708 5.27871 4.19606 6.36608 5.06869 7.19699C5.46576 7.5749 6.1356 7.94252 7.17062 8.34941C7.64271 8.53837 7.89818 8.78049 7.9447 9.3341" fill="#FFFFFE"/>
<path d="M21.0107 5.1137C20.0615 4.16665 18.8566 3.5692 17.5525 3.38575C15.8522 1.75794 13.7961 2.3545 13.7961 2.3545C14.2318 2.41932 14.5211 2.67921 14.4096 2.96724C14.3355 3.15756 14.0191 3.16758 13.8745 3.16899C13.4152 3.17402 13.0186 2.89216 12.702 2.63476C12.3729 2.36687 11.8358 1.89149 11.3546 1.62087C10.4587 1.11674 9.03622 1.17954 8.00671 1.8372C8.62228 1.87897 9.36306 2.05627 9.80481 2.42233C10.0513 2.62681 10.3658 3.0378 10.1086 3.22972C9.88256 3.39859 9.32721 3.31143 9.04488 3.14777C8.59603 2.88783 8.19167 2.49374 7.94947 2.20802C6.31992 0.287198 4.01135 0.179947 2.10742 0.650532C3.35703 1.0015 4.19086 1.71372 4.70585 2.94151C5.22107 4.16924 5.6211 4.69185 6.46974 5.02456C7.00115 5.23267 7.14485 5.27124 7.10332 5.507C7.04221 5.85204 6.41273 5.68636 5.93264 5.49877C5.34766 5.27035 4.577 4.63936 4.11809 3.45588C4.20158 4.98712 4.49351 6.07294 5.35608 6.89448C5.72261 7.24319 6.39561 7.60398 7.44887 8.00951C8.12121 8.26851 8.65356 8.4253 9.15439 8.8742C9.73848 9.3977 9.48964 9.74344 9.10217 9.67792C8.66381 9.60397 8.3509 9.15601 8.3509 9.15601C8.3509 9.15601 8.35161 11.6508 11.4335 12.611C11.6901 13.0369 12.0002 13.4339 12.3613 13.7938C13.5199 14.9499 15.0589 15.585 16.6949 15.5825C18.3311 15.58 19.8683 14.9405 21.0237 13.781C22.1789 12.6218 22.8141 11.0818 22.8113 9.44469C22.809 7.80776 22.1695 6.26966 21.0106 5.1138" fill="#002244"/>
<path d="M20.6851 5.42405C19.7657 4.50438 18.5857 3.94052 17.3121 3.80104C16.2163 2.70817 15.1229 2.75954 15.1229 2.75954C15.6027 3.06055 15.3553 3.73053 14.2879 3.87819C13.2308 4.02425 11.8881 3.66571 11.2343 2.90353C10.5604 2.11806 10.0515 2.08221 10.0515 2.08221C10.6361 2.44757 10.6776 2.88617 11.0324 3.55437C11.3873 4.2228 12.1178 4.46261 12.7541 4.50438C13.4245 4.54841 13.4409 4.85196 12.9003 5.17282C12.3108 5.52241 11.7889 5.19201 11.4097 4.81818C10.8107 4.22713 10.2143 4.11395 9.3901 4.12444C8.56587 4.13493 7.47634 4.24336 6.55652 3.89898C5.63671 3.55437 5.03027 2.34329 5.03027 2.34329C5.48505 3.9512 6.49565 4.71343 7.43367 4.89759C8.67279 5.14064 9.52943 5.43567 10.0535 5.86039C10.5653 6.27571 10.8379 6.68994 11.0301 7.26157C11.1786 7.70223 11.2051 8.28736 11.0586 8.3225C10.8878 8.36314 10.8527 8.12761 10.6513 7.71686C10.429 7.26321 10.1635 6.90717 9.62798 6.6215C8.90225 6.23422 8.19205 6.25661 7.46792 6.26663C6.89432 6.27463 6.55793 6.20891 6.55793 6.20891C6.55793 6.20891 6.58188 6.28648 7.51651 6.49647C8.55787 6.73016 9.56527 7.31754 10.2358 8.74952C10.8062 9.96748 10.5086 10.8246 9.24479 10.4366C9.24479 10.4366 9.83505 11.7495 11.7629 12.2171C12.0118 12.6548 12.321 13.0617 12.6864 13.4275C13.7547 14.4962 15.1749 15.0847 16.6856 15.0847C18.1964 15.0847 19.6163 14.4961 20.6851 13.4275C21.7531 12.3584 22.3413 10.9373 22.3413 9.42544C22.3413 7.91405 21.7532 6.49294 20.6851 5.42405Z" fill="#4B92DB"/>
<path d="M16.6857 4.04321C18.1225 4.04321 19.4734 4.60298 20.4894 5.61965C21.5057 6.63632 22.0652 7.98796 22.0652 9.42545C22.0652 12.3935 19.6519 14.8083 16.6857 14.8083C15.2488 14.8083 13.8979 14.2483 12.8817 13.2317C11.8656 12.215 11.3062 10.8634 11.3062 9.42545C11.3062 7.98796 11.8656 6.63632 12.8817 5.61965C13.8979 4.60298 15.2488 4.04321 16.6857 4.04321Z" fill="#FFFFFE"/>
<path d="M16.6925 14.3439C13.9782 14.348 11.7741 12.1493 11.77 9.43315C11.7662 6.71685 13.9639 4.51168 16.6783 4.50782C19.3929 4.50373 21.5969 6.70269 21.6008 9.41881C21.6049 12.1351 19.4074 14.3403 16.6925 14.3439Z" fill="#002244"/>
<path d="M15.4838 8.43065H14.0271L13.547 9.2871L12.9014 7.45557H20.4562L19.8117 9.2871L19.3355 8.43065H17.9034L16.6906 13.7399L15.4838 8.43065Z" fill="#FFFFFE"/>
<path d="M20.4562 7.45557H12.9014L13.0238 7.80267H16.6262L15.4838 8.43065L16.6906 13.7392V7.80267H20.3342L20.4562 7.45557Z" fill="#A5ACAF"/>
<path d="M12.9771 3.20751C11.8817 3.17622 11.4351 2.74153 10.7546 2.19474C9.92191 1.52541 8.99824 1.71188 8.99824 1.71188C9.55133 1.39511 10.639 1.38213 11.4224 2.06947C12.1224 2.68358 12.4659 3.01676 12.9772 3.20755L12.9771 3.20751ZM3.62598 0.793099C4.84731 0.567168 5.87132 0.949177 6.64564 2.32231C7.40331 3.66577 8.78792 3.70156 8.78792 3.70156C7.73673 3.99961 6.30013 3.72894 5.54703 2.37683C4.65116 0.768216 3.62598 0.793099 3.62598 0.793099ZM9.42903 8.5815C8.82715 7.74876 7.88203 7.55049 6.59385 7.20498C4.74942 6.71022 4.73508 5.10071 4.73508 5.10071C4.73508 5.10071 5.01129 6.21687 7.1547 6.65321C9.28396 7.08682 9.42903 8.58155 9.42903 8.58155V8.5815ZM17.4243 6.98249L16.686 6.45216L15.9557 6.99392L16.2319 6.1274L15.4914 5.60022L16.4002 5.58926L16.6728 4.72736L16.9583 5.58926H17.8674L17.1346 6.1203L17.4243 6.98249ZM14.1811 10.0308L14.091 10.9361L14.9251 11.2978L14.037 11.4916L13.951 12.3971L13.4919 11.612L12.6049 11.8099L13.2093 11.1305L12.7472 10.3473L13.5794 10.7127L14.1811 10.0308L14.1811 10.0308ZM18.4408 11.3175L19.2694 10.9428L19.1656 10.0391L19.7775 10.7116L20.6038 10.3337L20.1541 11.1237L20.7687 11.7935L19.8788 11.6096L19.432 12.4017L19.3321 11.4978L18.4408 11.3175Z" fill="#C60C30"/>
</g>
<defs>
<clipPath id="clip0_879_3945">
<rect width="22.5729" height="16" fill="white" transform="translate(0.655762)"/>
</clipPath>
</defs>
</svg>
