<svg width="41" height="16" viewBox="0 0 41 16" fill="none" xmlns="http://www.w3.org/2000/svg">
<g clip-path="url(#clip0_740_19)">
<g clip-path="url(#clip1_740_19)">
<path d="M0.370361 5.96491C0.420743 6.16232 0.523352 6.34251 0.667413 6.48657C0.811474 6.63063 0.99167 6.73324 1.18907 6.78363H2.47562L2.5341 6.79532V10.0234H3.32943V6.80702L3.4113 6.77193H4.69785C4.8947 6.72042 5.0743 6.61743 5.21818 6.47355C5.36206 6.32967 5.46505 6.15007 5.51656 5.95322H0.370361V5.96491ZM28.2768 5.96491H27.4815V10.0351H31.1306C31.3035 9.96972 31.4578 9.8631 31.5801 9.72449C31.7024 9.58587 31.789 9.41947 31.8323 9.23977H28.2885V5.95322L28.2768 5.96491ZM22.1598 6.76023C22.5809 6.64328 22.9318 6.31579 23.0253 5.95322L18.5692 5.96491V8.37427H22.2066V9.21637H19.3528C19.1349 9.27306 18.9316 9.37535 18.7561 9.51648C18.5807 9.65762 18.4373 9.83438 18.3353 10.0351H23.0019V7.57895H19.3528V6.76023H22.1598ZM35.7505 10.0351H36.5341V8.39766H39.4113V10.0351H40.1949V7.57895H35.7505V10.0351ZM10.347 6.77193H13.3879C13.588 6.72459 13.7713 6.62321 13.9177 6.47883C14.0642 6.33446 14.1681 6.15264 14.2183 5.95322H9.52826C9.57748 6.15118 9.6797 6.332 9.82394 6.47624C9.96819 6.62049 10.149 6.72271 10.347 6.77193ZM10.347 8.38597H13.3879C13.588 8.33863 13.7713 8.23724 13.9177 8.09287C14.0642 7.94849 14.1681 7.76668 14.2183 7.56725H9.52826C9.57748 7.76522 9.6797 7.94603 9.82394 8.09028C9.96819 8.23452 10.149 8.33674 10.347 8.38597ZM10.347 10.0351H13.3879C13.588 9.98775 13.7713 9.88636 13.9177 9.74199C14.0642 9.59762 14.1681 9.4158 14.2183 9.21637H9.52826C9.57748 9.41434 9.6797 9.59516 9.82394 9.7394C9.96819 9.88364 10.149 9.98587 10.347 10.0351ZM36.4522 6.77193H39.4932C39.6911 6.72271 39.8719 6.62049 40.0162 6.47624C40.1604 6.332 40.2627 6.15118 40.3119 5.95322L35.6335 5.95322C35.6827 6.15118 35.785 6.332 35.9292 6.47624C36.0735 6.62049 36.2543 6.72271 36.4522 6.77193Z" fill="#171A20"/>
</g>
</g>
<defs>
<clipPath id="clip0_740_19">
<rect width="40" height="16" fill="white" transform="translate(0.370361)"/>
</clipPath>
<clipPath id="clip1_740_19">
<rect width="40" height="4.09357" fill="white" transform="translate(0.370361 5.95322)"/>
</clipPath>
</defs>
</svg>
