<svg width="121" height="64" viewBox="0 0 121 64" fill="none" xmlns="http://www.w3.org/2000/svg">
<g clip-path="url(#clip0_740_19)">
<g clip-path="url(#clip1_740_19)">
<path d="M0.852783 25.8947C1.00393 26.487 1.31176 27.0275 1.74394 27.4597C2.17612 27.8919 2.71671 28.1997 3.30892 28.3509H7.16857L7.34401 28.386V38.0702H9.72998V28.4211L9.97559 28.3158H13.8352C14.4258 28.1613 14.9646 27.8523 15.3962 27.4206C15.8279 26.989 16.1368 26.4502 16.2914 25.8596H0.852783V25.8947ZM84.5721 25.8947H82.1861V38.1053H93.1335C93.6522 37.9092 94.1152 37.5893 94.4821 37.1735C94.849 36.7576 95.1088 36.2584 95.2387 35.7193H84.6072V25.8596L84.5721 25.8947ZM66.2212 28.2807C67.4844 27.9298 68.537 26.9474 68.8177 25.8596L55.4493 25.8947V33.1228H66.3616V35.6491H57.8002C57.1465 35.8192 56.5364 36.126 56.0101 36.5494C55.4839 36.9729 55.0535 37.5031 54.7475 38.1053H68.7475V30.7368H57.8002V28.2807H66.2212ZM106.993 38.1053H109.344V33.193H117.976V38.1053H120.326V30.7368H106.993V38.1053ZM30.7826 28.3158H39.9054C40.5058 28.1738 41.0556 27.8696 41.4949 27.4365C41.9342 27.0034 42.2461 26.4579 42.3966 25.8596H28.3265C28.4741 26.4535 28.7808 26.996 29.2135 27.4287C29.6463 27.8615 30.1887 28.1681 30.7826 28.3158ZM30.7826 33.1579H39.9054C40.5058 33.0159 41.0556 32.7117 41.4949 32.2786C41.9342 31.8455 42.2461 31.3 42.3966 30.7018H28.3265C28.4741 31.2957 28.7808 31.8381 29.2135 32.2708C29.6463 32.7036 30.1887 33.0102 30.7826 33.1579ZM30.7826 38.1053H39.9054C40.5058 37.9633 41.0556 37.6591 41.4949 37.226C41.9342 36.7928 42.2461 36.2474 42.3966 35.6491H28.3265C28.4741 36.243 28.7808 36.7855 29.2135 37.2182C29.6463 37.6509 30.1887 37.9576 30.7826 38.1053ZM109.098 28.3158H118.221C118.815 28.1681 119.358 27.8615 119.79 27.4287C120.223 26.996 120.53 26.4535 120.677 25.8596L106.642 25.8596C106.79 26.4535 107.097 26.996 107.529 27.4287C107.962 27.8615 108.505 28.1681 109.098 28.3158Z" fill="#171A20"/>
</g>
</g>
<defs>
<clipPath id="clip0_740_19">
<rect width="120" height="64" fill="white" transform="translate(0.852783)"/>
</clipPath>
<clipPath id="clip1_740_19">
<rect width="120" height="12.2807" fill="white" transform="translate(0.852783 25.8596)"/>
</clipPath>
</defs>
</svg>
