<svg width="41" height="16" viewBox="0 0 41 16" fill="none" xmlns="http://www.w3.org/2000/svg">
<g clip-path="url(#clip0_751_376)">
<g clip-path="url(#clip1_751_376)">
<path d="M3.86631 5.84129C3.86631 5.40216 3.44892 5.26955 3.09892 5.28477V5.3239C3.30762 5.33912 3.46849 5.4239 3.46849 5.5652C3.46849 5.66303 3.39892 5.78477 3.19023 5.78477C3.02501 5.78477 2.7511 5.68694 2.49457 5.60216C2.21197 5.50433 1.9424 5.41303 1.71849 5.41303C1.27936 5.41303 0.946748 5.73912 0.946748 6.14346C0.946748 6.46955 1.19892 6.58259 1.3011 6.6239L1.30762 6.60868C1.2424 6.5652 1.2011 6.51738 1.2011 6.37825C1.2011 6.26086 1.28588 6.10433 1.51197 6.10433C1.71631 6.10433 1.9837 6.19564 2.33805 6.29564C2.6424 6.38042 2.97066 6.46086 3.15327 6.48477V7.19781L2.80979 7.48042L3.15327 7.77607V8.75216C2.97718 8.85216 2.77283 8.88477 2.59675 8.88477C2.27066 8.88477 1.97066 8.79346 1.72283 8.51955L2.64892 8.06955V6.52825L1.51849 7.03259C1.63588 6.73259 1.85544 6.50868 2.09675 6.36303L2.09023 6.34564C1.41849 6.52825 0.807617 7.14346 0.807617 7.90433C0.807617 8.8152 1.53588 9.49129 2.37718 9.49129C3.28805 9.49129 3.82283 8.77825 3.81414 8.0239H3.79675C3.66414 8.31303 3.4424 8.58694 3.1924 8.73042V7.77825L3.5511 7.48912L3.1924 7.19999V6.48694C3.52501 6.48694 3.86849 6.26738 3.86849 5.84346M1.95979 8.35433L1.69675 8.48694C1.53588 8.27825 1.42936 7.98259 1.42936 7.60216C1.42936 7.44564 1.44675 7.23259 1.49892 7.08259L1.96414 6.8739L1.95762 8.35216L1.95979 8.35433ZM6.1924 7.10216L6.01631 7.24129L5.47936 6.76303L4.85762 7.24346V5.38694L4.01197 5.97172C4.10979 6.00433 4.22718 6.05651 4.22718 6.28259V8.84999L3.93805 9.06955L3.96414 9.09564L4.10979 8.99564L4.61414 9.45651L5.29023 9.00651L5.26849 8.9739L5.09675 9.08694L4.86197 8.85216V7.30433L5.02283 7.18694L5.3924 7.50868V8.85433C5.3924 9.70651 5.20327 9.88259 4.82066 10.0217V10.0435C5.45762 10.0696 6.03153 9.85433 6.03153 8.76303V7.29564L6.22283 7.13912L6.19675 7.10651L6.1924 7.10216ZM7.32718 9.44999L8.30762 8.66303L8.28153 8.62607L7.76849 9.03259L7.17936 8.56738V8.27825L8.19675 7.56086L7.6837 6.76303L6.55327 7.38477V8.86303L6.3337 9.03477L6.35979 9.06738L6.56849 8.90216L7.32936 9.45433H7.32718V9.44999ZM7.17718 8.21738V7.09781L7.67066 7.86955L7.17718 8.21738ZM12.362 5.63259C12.362 5.56303 12.3446 5.50433 12.3185 5.4239H12.3033C12.2337 5.61303 12.1576 5.71303 11.9381 5.71303C11.7467 5.71303 11.5946 5.59564 11.5141 5.50868C11.5141 5.5152 10.8707 6.25216 10.8707 6.25216L10.9033 6.27825L11.0859 6.06955C11.225 6.17607 11.3489 6.29999 11.6576 6.30433V8.18259L10.3402 5.89999C10.2381 5.72825 10.062 5.47172 9.76197 5.47172C9.40762 5.47172 9.14023 5.77607 9.1837 6.29129H9.20544C9.23153 6.16303 9.30762 6.00216 9.46197 6.00216C9.58588 6.00216 9.68588 6.11955 9.74457 6.22607V6.96086C9.33805 6.96086 9.10762 7.14999 9.10762 7.46955C9.10762 7.60216 9.20544 7.89129 9.48153 7.94129V7.92607C9.44457 7.88912 9.40762 7.85651 9.40762 7.78042C9.40762 7.65651 9.49892 7.58912 9.66414 7.58912C9.69023 7.58912 9.72936 7.59564 9.74457 7.59999V8.55216C9.26631 8.55868 8.89892 8.81955 8.89892 9.27173C8.89892 9.7239 9.26849 9.89781 9.65327 9.87607V9.86086C9.41197 9.83477 9.28805 9.71086 9.28805 9.53477C9.28805 9.34346 9.42718 9.23912 9.60327 9.23912C9.77936 9.23912 9.91414 9.35216 10.0272 9.48042L10.6707 8.75651L10.6446 8.73042L10.4794 8.91955C10.2315 8.69999 10.0728 8.59781 9.78805 8.55433V6.29781L11.6054 9.4652H11.7033V6.30868C12.0511 6.28694 12.362 6.02607 12.362 5.63259ZM12.9728 9.44564L13.9533 8.65868L13.9272 8.62172L13.4141 9.02825L12.825 8.56303V8.2739L13.8424 7.55651L13.3294 6.75868L12.1989 7.38042V8.85868L11.9794 9.03042L12.0054 9.06303L12.2141 8.89781L12.975 9.44999L12.9728 9.44564ZM12.8228 8.21303V7.09346L13.3163 7.8652L12.8228 8.21303ZM17.4359 7.01303L17.2859 7.12607L16.8576 6.76086L16.3598 7.21086L16.5641 7.40216V9.08042L16.0554 8.73259V7.37172L16.2315 7.24781L15.7076 6.76086L15.2207 7.21086L15.425 7.40216V9.0239L15.3924 9.04564L14.9141 8.69781V7.3652C14.9141 7.05433 14.7576 6.96303 14.5598 6.84129C14.3946 6.73912 14.3076 6.64346 14.3076 6.48694C14.3076 6.3152 14.4576 6.24564 14.5054 6.21955C14.3337 6.21303 13.8576 6.38477 13.8467 6.81955C13.8402 7.04346 13.9489 7.14129 14.062 7.24781C14.175 7.35433 14.2815 7.45651 14.2815 7.64564V8.95216L14.0511 9.13477L14.0772 9.16086L14.2967 8.98912L14.8685 9.45433L15.4141 9.0739L16.0141 9.45433L17.1924 8.75868V7.24781L17.4554 7.04346L17.4337 7.01086L17.4359 7.01303ZM21.3815 5.74346L21.1576 5.94781L20.6533 5.50868L19.9728 6.05433V5.54129H19.9315V9.22173C19.8576 9.21086 19.7011 9.16738 19.5294 9.14129V6.06086C19.5294 5.83694 19.3685 5.5239 18.9663 5.5239C18.5641 5.5239 18.312 5.86303 18.312 6.15651H18.3294C18.3511 6.0239 18.4424 5.90433 18.575 5.90433C18.7076 5.90433 18.8315 5.98912 18.8315 6.29129V7.16955C18.4511 7.18477 18.2207 7.42173 18.2207 7.67825C18.2207 7.8239 18.312 8.09564 18.6011 8.10651V8.08477C18.5033 8.04346 18.4837 7.99346 18.4837 7.93912C18.4837 7.81086 18.6076 7.76738 18.7794 7.76738H18.8207V9.18259C18.4946 9.29564 18.3424 9.5152 18.3424 9.78694C18.3424 10.1609 18.6424 10.45 19.0815 10.45C19.3924 10.45 19.612 10.3956 19.8967 10.3326C20.1272 10.2848 20.3772 10.2304 20.512 10.2304C20.6837 10.2304 20.7598 10.3065 20.7598 10.4282C20.7598 10.5848 20.7011 10.663 20.6098 10.6913V10.713C20.9794 10.6435 21.1946 10.4304 21.1946 10.0978C21.1946 9.7652 20.8685 9.54564 20.5033 9.54564C20.3141 9.54564 19.9728 9.60433 19.6946 9.66955C19.3837 9.73912 19.1163 9.77173 19.0185 9.77173C18.862 9.77173 18.6707 9.70216 18.6707 9.49346C18.6707 9.30433 18.8272 9.15433 19.212 9.15433C19.4207 9.15433 19.625 9.18694 19.8815 9.24564C20.1554 9.30433 20.3424 9.38477 20.5772 9.38477C20.9033 9.38477 21.1663 9.26738 21.1663 8.78912V5.99781L21.4076 5.77825L21.3815 5.74564V5.74346ZM20.4598 7.21738C20.4011 7.28259 20.3315 7.33477 20.2185 7.33477C20.0946 7.33477 20.0294 7.26955 19.9707 7.21738V6.11086L20.1315 5.98259L20.4576 6.26086V7.21955L20.4598 7.21738ZM20.4598 7.74129C20.4054 7.68694 20.3359 7.63912 20.2185 7.63912C20.1011 7.63912 20.0207 7.69781 19.9707 7.74129V7.26955C20.0185 7.31086 20.0989 7.37607 20.2185 7.37607C20.3381 7.37607 20.4076 7.32172 20.4598 7.26955V7.74129ZM20.4598 8.84999C20.4598 9.03259 20.3685 9.23694 20.1337 9.23694C20.0967 9.23694 20.0098 9.23042 19.9728 9.22607V7.79564C20.0272 7.74781 20.0967 7.68259 20.2207 7.68259C20.3337 7.68259 20.3967 7.73694 20.462 7.79564V8.85216L20.4598 8.84999ZM22.3685 9.44564L23.462 8.7652V7.27607L22.7554 6.75651L21.662 7.38259V8.85651L21.4467 9.02825L21.4685 9.06086L21.6446 8.9152L22.3685 9.44564ZM22.2881 8.6739V7.08694L22.8337 7.49346V9.08042L22.2881 8.6739ZM25.5511 6.79346C25.4663 6.85216 25.3902 6.88477 25.3098 6.88477C25.225 6.88477 25.1185 6.83042 25.062 6.76086C25.062 6.76738 24.6554 7.19999 24.6554 7.19999L24.2489 6.76086L23.5859 7.22172L23.6076 7.25868L23.7837 7.14129L24.025 7.40433V8.84564L23.7359 9.0652L23.762 9.09129L23.9076 8.99129L24.4489 9.45216L25.1337 8.99781L25.112 8.9652L24.9359 9.07173L24.6576 8.81955V7.23694C24.7707 7.36086 24.8989 7.46738 25.0533 7.46738C25.3315 7.46738 25.5185 7.13477 25.5511 6.79129M28.1337 8.9239L27.9294 9.05216L26.7989 7.3652L26.8576 7.28477C26.9815 7.35868 27.0924 7.46086 27.3294 7.46086C27.5663 7.46086 27.8663 7.21303 27.8924 6.75868C27.8337 6.83912 27.7163 6.93477 27.5228 6.93477C27.3837 6.93477 27.2446 6.84346 27.1598 6.75868L26.3881 7.89346L27.412 9.45216L28.1554 8.95868L28.1337 8.92173V8.9239ZM26.762 8.9652L26.5902 9.07825L26.3554 8.84346V5.38694L25.5098 5.97172C25.6076 6.00433 25.725 6.05651 25.725 6.28259V8.84999L25.4359 9.06955L25.462 9.09564L25.6076 8.99564L26.112 9.45651L26.7881 9.00651L26.7663 8.9739L26.762 8.9652ZM31.7381 5.83694C31.7381 5.39781 31.3207 5.2652 30.9707 5.28042V5.3239C31.1794 5.33912 31.3402 5.4239 31.3402 5.5652C31.3402 5.66303 31.2707 5.78477 31.062 5.78477C30.8967 5.78477 30.6228 5.68694 30.3663 5.60216C30.0837 5.50433 29.8141 5.41303 29.5902 5.41303C29.1511 5.41303 28.8185 5.73912 28.8185 6.14129C28.8185 6.46738 29.0707 6.58042 29.1728 6.62172L29.1794 6.60651C29.1141 6.56303 29.0728 6.5152 29.0728 6.37607C29.0728 6.25868 29.1576 6.10216 29.3837 6.10216C29.5881 6.10216 29.8554 6.19346 30.2098 6.29346C30.5141 6.37825 30.8424 6.45868 31.025 6.48259V7.19564L30.6815 7.47825L31.025 7.7739V8.74999C30.8489 8.84999 30.6446 8.88259 30.4685 8.88259C30.1424 8.88259 29.8402 8.79129 29.5946 8.51738L30.5207 8.06738V6.52825L29.3902 7.03259C29.5076 6.73259 29.7272 6.50868 29.9685 6.36303L29.962 6.34564C29.2924 6.52825 28.6815 7.14346 28.6815 7.90433C28.6815 8.8152 29.4098 9.49129 30.2511 9.49129C31.162 9.49129 31.6967 8.77825 31.6881 8.0239H31.6728C31.5402 8.31303 31.3185 8.58694 31.0685 8.73042V7.77825L31.4272 7.48912L31.0685 7.19999V6.48694C31.4011 6.48694 31.7446 6.26738 31.7446 5.84346M29.8359 8.35651L29.5728 8.48912C29.412 8.28042 29.3054 7.98477 29.3054 7.60433C29.3054 7.44781 29.3207 7.23477 29.375 7.08477L29.8402 6.87607L29.8337 8.35433L29.8359 8.35651ZM32.4294 5.68042L31.9576 6.07607L32.3598 6.53042L32.8315 6.13477L32.4294 5.68042ZM33.1467 8.9739L32.975 9.08694L32.7402 8.85216V7.29346L32.9381 7.13694L32.912 7.10433L32.7467 7.23259L32.3554 6.76738L31.712 7.21738L31.7337 7.25433L31.8946 7.14781L32.1098 7.4152V8.85216L31.8207 9.07173L31.8467 9.09781L31.9924 8.99781L32.4967 9.45868L33.1728 9.00868L33.1511 8.97607L33.1467 8.9739ZM36.762 8.95216L36.6011 9.05868L36.3489 8.81738V7.28912L36.5533 7.13259L36.5272 7.09999L36.3446 7.23912L35.8076 6.76086L35.2033 7.23259L34.6728 6.76086L34.0772 7.22607L33.675 6.76086L33.0315 7.21086L33.0533 7.24781L33.2141 7.14129L33.4446 7.40433V8.84129L33.2685 9.01738L33.7815 9.45216L34.2794 9.00216L34.075 8.81086V7.28042L34.2076 7.18259L34.5772 7.50433V8.84346L34.4054 9.01955L34.925 9.45433L35.412 9.00433L35.2076 8.81303V7.28259L35.3359 7.18042L35.7098 7.50651V8.8239L35.5598 8.98042L36.0837 9.45868L36.775 8.98694L36.7533 8.95433H36.7576L36.762 8.95216ZM38.6315 8.62607L38.1185 9.03259L37.5294 8.56738V8.27825L38.5468 7.56086L38.0337 6.76303L36.9033 7.38477V8.89129L37.6794 9.45433L38.6598 8.66738L38.6337 8.63042L38.6315 8.62607ZM37.5272 8.21738V7.09781L38.0207 7.86955L37.5272 8.21738ZM40.5967 8.00651L40.162 7.6739C40.4511 7.42172 40.5533 7.10216 40.5533 6.87172C40.5533 6.83912 40.5467 6.78042 40.5424 6.72607H40.525C40.4837 6.84346 40.3685 6.94564 40.1924 6.94564C40.0163 6.94564 39.9185 6.84781 39.812 6.73042L38.8163 7.28259V8.09129L39.1967 8.39129C38.8163 8.72825 38.7424 8.93694 38.7424 9.13042C38.7424 9.3239 38.8554 9.49346 39.0489 9.56955L39.0641 9.54346C39.0163 9.50216 38.9728 9.4739 38.9728 9.37173C38.9728 9.29781 39.0489 9.18042 39.2207 9.18042C39.4402 9.18042 39.575 9.33042 39.6446 9.41086C39.6446 9.40433 40.5967 8.82607 40.5967 8.82607V8.00651ZM40.3728 7.34346C40.2228 7.61086 39.8924 7.8739 39.6967 8.0239L39.4554 7.81955V7.03259C39.5533 7.24781 39.7511 7.42825 40.0076 7.42825C40.1576 7.42825 40.2554 7.40216 40.3707 7.34346M39.9576 9.11086C39.8446 8.85868 39.6033 8.67607 39.3359 8.67607C39.2707 8.67607 39.0728 8.66955 38.9011 8.77607C39.0033 8.60433 39.3076 8.29564 39.6946 8.06303L39.9576 8.28259V9.10868V9.11086Z" fill="black"/>
</g>
</g>
<defs>
<clipPath id="clip0_751_376">
<rect width="40" height="16" fill="white" transform="translate(0.69873)"/>
</clipPath>
<clipPath id="clip1_751_376">
<rect width="40" height="5.43478" fill="white" transform="translate(0.69873 5.28259)"/>
</clipPath>
</defs>
</svg>
