<svg width="41" height="16" viewBox="0 0 41 16" fill="none" xmlns="http://www.w3.org/2000/svg">
<g clip-path="url(#clip0_779_2)">
<g clip-path="url(#clip1_779_2)">
<path d="M1.07671 9.42939H0.0634766V8.67886H2.89951V9.42939H1.90234V12.4157H1.07671V9.42939Z" fill="#030404"/>
<path d="M3.1084 8.67886H3.90718V10.0406C4.01441 9.81004 4.3039 9.65455 4.66313 9.65455C5.30649 9.65455 5.66565 10.0781 5.66565 10.7751V12.4157H4.86687V10.8716C4.86687 10.5606 4.70603 10.3623 4.40577 10.3623C4.11628 10.3623 3.90718 10.5821 3.90718 10.8984V12.4157H3.1084V8.67886Z" fill="#030404"/>
<path d="M7.93337 10.759C7.93337 10.5178 7.68679 10.314 7.3704 10.314C7.03807 10.314 6.75923 10.5124 6.74317 10.759H7.93337ZM5.93896 11.0592C5.93896 10.2015 6.5502 9.6492 7.3704 9.6492C8.19609 9.6492 8.73758 10.2604 8.73758 11.0164C8.73758 11.0164 8.73758 11.1557 8.72151 11.2791H6.73781C6.75388 11.6007 7.0273 11.8044 7.45092 11.8044C7.96557 11.8044 8.25499 11.649 8.41054 11.5417V12.2387C8.15854 12.3996 7.87976 12.4854 7.40795 12.4854C6.53413 12.4854 5.93896 11.9331 5.93896 11.0861V11.0592Z" fill="#030404"/>
<path d="M10.2974 8.54486L12.2703 10.6947L14.2432 8.54486V12.4157H13.4498V10.5178L12.2703 11.842L11.0908 10.5178V12.4157H10.2974V8.54486Z" fill="#030404"/>
<path d="M16.007 11.7723C16.3983 11.7723 16.7093 11.4614 16.7093 11.0646C16.7093 10.6732 16.3983 10.357 16.007 10.357C15.6103 10.357 15.3046 10.6732 15.3046 11.0646C15.3046 11.4614 15.6103 11.7723 16.007 11.7723ZM16.007 9.63321C16.838 9.63321 17.5082 10.2658 17.5082 11.0646C17.5082 11.8634 16.838 12.4961 16.007 12.4961C15.1706 12.4961 14.5059 11.8634 14.5059 11.0646C14.5059 10.2658 15.1706 9.63321 16.007 9.63321Z" fill="#030404"/>
<path d="M17.9472 10.4373H17.5879V9.71358H17.9472V8.67886H18.7245V9.71358H19.3197V10.4373H18.7245V12.4157H17.9472V10.4373Z" fill="#030404"/>
<path d="M20.3384 8.67886H19.5396V12.4157H20.3384V8.67886Z" fill="#030404"/>
<path d="M22.5954 10.759C22.5954 10.5178 22.3488 10.314 22.0324 10.314C21.7001 10.314 21.4213 10.5124 21.4052 10.759H22.5954ZM20.6011 11.0592C20.6011 10.2015 21.2122 9.6492 22.0324 9.6492C22.8581 9.6492 23.3996 10.2604 23.3996 11.0164C23.3996 11.0164 23.3996 11.1557 23.3836 11.2791H21.3999C21.4159 11.6007 21.6893 11.8044 22.113 11.8044C22.6276 11.8044 22.9171 11.649 23.0726 11.5417V12.2387C22.8206 12.3996 22.5418 12.4854 22.07 12.4854C21.1962 12.4854 20.6011 11.9331 20.6011 11.0861V11.0592Z" fill="#030404"/>
<path d="M23.2866 9.71359H24.1175L24.8359 11.515L25.5651 9.71359H26.3961L24.8038 13.4557H23.9835L24.4178 12.4639L23.2866 9.71359Z" fill="#030404"/>
<path d="M27.7363 8.67886H30.1971V9.42939H28.5619V10.1961H30.0523V10.9306H28.5619V12.4157H27.7363V8.67886Z" fill="#030404"/>
<path d="M31.8214 11.7723C32.2128 11.7723 32.5238 11.4614 32.5238 11.0646C32.5238 10.6732 32.2128 10.357 31.8214 10.357C31.4247 10.357 31.1192 10.6732 31.1192 11.0646C31.1192 11.4614 31.4247 11.7723 31.8214 11.7723ZM31.8214 9.63321C32.6525 9.63321 33.3227 10.2658 33.3227 11.0646C33.3227 11.8634 32.6525 12.4961 31.8214 12.4961C30.9851 12.4961 30.3203 11.8634 30.3203 11.0646C30.3203 10.2658 30.9851 9.63321 31.8214 9.63321Z" fill="#030404"/>
<path d="M34.9841 11.7723C35.3754 11.7723 35.6864 11.4614 35.6864 11.0646C35.6864 10.6732 35.3754 10.357 34.9841 10.357C34.5874 10.357 34.2818 10.6732 34.2818 11.0646C34.2818 11.4614 34.5874 11.7723 34.9841 11.7723ZM34.9841 9.63321C35.8151 9.63321 36.4853 10.2658 36.4853 11.0646C36.4853 11.8634 35.8151 12.4961 34.9841 12.4961C34.1477 12.4961 33.4829 11.8634 33.4829 11.0646C33.4829 10.2658 34.1477 9.63321 34.9841 9.63321Z" fill="#030404"/>
<path d="M37.5733 8.67886H36.7744V12.4157H37.5733V8.67886Z" fill="#030404"/>
<path d="M40.0634 7.73104C40.0634 8.02903 39.8219 8.27057 39.5239 8.27057C39.2259 8.27057 38.9844 8.02903 38.9844 7.73104C38.9844 7.43304 39.2259 7.19144 39.5239 7.19144C39.8219 7.19144 40.0634 7.43304 40.0634 7.73104Z" fill="#FDB525"/>
<path d="M36.2938 2.54431C37.8587 2.54431 39.1724 4.30278 39.5437 6.68011C39.5506 6.7244 39.5203 6.76629 39.476 6.77373C39.4383 6.78003 39.4016 6.75892 39.3871 6.72345C39.0159 5.81436 38.3787 5.21421 37.6546 5.21421C36.6166 5.21421 35.7052 6.48386 35.603 8.22942C35.4683 8.51897 34.3933 8.7408 33.4028 8.7786V4.60531C34.0178 3.34921 35.2353 2.54431 36.2938 2.54431Z" fill="#9B268F"/>
<path d="M26.7422 7.73104C26.7422 8.02903 26.9837 8.27057 27.2818 8.27057C27.5797 8.27057 27.8213 8.02903 27.8213 7.73104C27.8213 7.43304 27.5797 7.19144 27.2818 7.19144C26.9837 7.19144 26.7422 7.43304 26.7422 7.73104Z" fill="#FDB525"/>
<path d="M30.5117 2.54431C28.9468 2.54431 27.633 4.30278 27.2617 6.68011C27.2548 6.7244 27.2851 6.76629 27.3294 6.77373C27.3672 6.78003 27.4039 6.75892 27.4184 6.72345C27.7897 5.81436 28.4268 5.21421 29.1509 5.21421C30.1888 5.21421 31.1002 6.48386 31.2025 8.22942C31.3372 8.51897 32.4122 8.7408 33.4027 8.7786V4.60531C32.7876 3.34921 31.5702 2.54431 30.5117 2.54431Z" fill="#E91E77"/>
<path d="M38.3085 12.2255C38.3331 12.2255 38.3511 12.2042 38.3511 12.178C38.3511 12.1533 38.3331 12.1337 38.3085 12.1337H38.2594V12.2255H38.3085ZM38.2037 12.0813H38.3102C38.3675 12.0813 38.4068 12.1206 38.4068 12.1746C38.4068 12.2123 38.3888 12.2435 38.3577 12.2615L38.4297 12.3811H38.3642L38.2987 12.2713H38.2594V12.3811H38.2037V12.0813ZM38.5133 12.2369C38.5133 12.1091 38.4216 12.0223 38.3003 12.0223C38.1791 12.0223 38.089 12.1091 38.089 12.2369C38.089 12.3614 38.1791 12.4483 38.3003 12.4483C38.4216 12.4483 38.5133 12.3614 38.5133 12.2369ZM38.0366 12.2369C38.0366 12.0846 38.1546 11.9764 38.3003 11.9764C38.4478 11.9764 38.5674 12.0846 38.5674 12.2369C38.5674 12.3893 38.4478 12.4973 38.3003 12.4973C38.1546 12.4973 38.0366 12.3893 38.0366 12.2369Z" fill="#030404"/>
</g>
</g>
<defs>
<clipPath id="clip0_779_2">
<rect width="40" height="16" fill="white" transform="translate(0.0634766)"/>
</clipPath>
<clipPath id="clip1_779_2">
<rect width="40" height="10.9114" fill="white" transform="translate(0.0634766 2.54431)"/>
</clipPath>
</defs>
</svg>
