<svg width="17" height="16" viewBox="0 0 17 16" fill="none" xmlns="http://www.w3.org/2000/svg">
<g clip-path="url(#clip0_2_7672)">
<path fill-rule="evenodd" clip-rule="evenodd" d="M0.528809 0.000488281H16.5273V15.9981H0.528809V0.000488281Z" fill="white"/>
<path fill-rule="evenodd" clip-rule="evenodd" d="M0.529074 0.000670592C3.87565 0.000670592 7.2205 0.000670592 10.567 0.000670592C11.375 0.000670592 12.1832 -0.00102589 12.9895 0.00229639C12.7661 0.22906 12.5375 0.454197 12.3125 0.681032C12.4015 0.775045 12.4956 0.862415 12.5846 0.954803C12.7896 0.81371 13.0214 0.701177 13.2734 0.682657C13.5002 0.65912 13.7288 0.71793 13.937 0.808693C14.016 0.842268 14.0899 0.89599 14.1789 0.904402C14.2663 0.899382 14.3318 0.822123 14.3621 0.744793C14.3872 0.69114 14.3637 0.62724 14.3218 0.588573C14.1269 0.392065 13.9303 0.198877 13.7371 0.00229639C14.6678 -0.00272238 15.5985 0.00229639 16.5276 0.000670592C16.5276 0.907795 16.5292 1.81662 16.5276 2.72545C16.3361 2.53735 16.1495 2.34578 15.9597 2.15768C15.9093 2.10552 15.8271 2.07865 15.7581 2.1106C15.7128 2.13245 15.6691 2.16772 15.6489 2.21642C15.6237 2.3139 15.6674 2.40961 15.706 2.49691C15.8237 2.74557 15.8758 3.02615 15.8405 3.29997C15.8169 3.48645 15.7497 3.66952 15.6489 3.82915C15.6221 3.86775 15.5969 3.90803 15.5733 3.94845C15.6708 4.03237 15.7531 4.13318 15.8522 4.21553C16.074 3.98705 16.3024 3.76363 16.5276 3.53678C16.5276 5.05373 16.5292 6.57072 16.5276 8.08768C16.4838 8.1028 16.4351 8.13305 16.3898 8.11115C16.3293 8.07255 16.2839 8.01542 16.2335 7.96672C15.6892 7.42575 15.1499 6.87978 14.604 6.34058C14.3872 6.5573 14.174 6.77565 13.9538 6.98735C14.0698 7.11835 14.1991 7.23428 14.3201 7.36023C14.7569 7.79708 15.1936 8.23385 15.6322 8.67055C15.6691 8.70923 15.7128 8.74288 15.7329 8.79327C15.7396 8.8487 15.701 8.8957 15.6859 8.9461C15.664 9.0049 15.7111 9.07545 15.7733 9.07708C15.8287 9.08725 15.8758 9.05022 15.911 9.01332C16.116 8.80662 16.3226 8.6017 16.5276 8.39672C16.5276 10.9301 16.5276 13.465 16.5276 15.9983C13.9942 15.9983 11.459 15.9983 8.92392 15.9983C9.11882 15.8035 9.31372 15.6102 9.5086 15.4153C8.84505 14.7535 8.1831 14.0916 7.52115 13.4281C7.30447 13.6364 7.09615 13.8531 6.88112 14.0631C6.83572 14.1101 6.78532 14.1554 6.76355 14.2193C6.75345 14.2814 6.81057 14.3402 6.871 14.3436C6.9248 14.3369 6.97012 14.3015 7.0239 14.2898C7.07092 14.2865 7.10795 14.3235 7.14147 14.3537C7.53465 14.7501 7.92945 15.1433 8.32427 15.5381C8.4233 15.6421 8.5309 15.7362 8.6232 15.8438C8.66527 15.8908 8.63672 15.9512 8.61317 15.9983C7.09615 15.9983 5.58077 15.9983 4.06552 15.9983C4.42327 15.6405 4.78117 15.2827 5.13895 14.9249C5.2061 14.861 5.27502 14.7872 5.28507 14.6897C5.3002 14.5772 5.18602 14.4646 5.07342 14.4881C4.97932 14.5065 4.90212 14.5805 4.80465 14.5805C4.74252 14.5754 4.69542 14.5301 4.65345 14.4898C3.7983 13.6364 2.94492 12.7813 2.09148 11.9279C2.03436 11.8708 1.96551 11.8154 1.94529 11.733C1.94197 11.6356 2.01082 11.5566 2.03606 11.4676C2.06794 11.3551 1.96211 11.2324 1.84781 11.2409C1.76892 11.2459 1.69837 11.2912 1.64464 11.3467C1.275 11.7213 0.898715 12.0909 0.529074 12.4655C0.527378 8.31105 0.529074 4.15508 0.529074 0.000670592Z" fill="#F96302"/>
<path fill-rule="evenodd" clip-rule="evenodd" d="M12.0689 0.922936C12.084 0.906181 12.1109 0.890983 12.126 0.916218C13.2969 2.08538 14.4679 3.25632 15.6372 4.42717C15.2273 4.83707 14.8157 5.24862 14.4058 5.66022C14.352 5.71062 14.2864 5.75262 14.2126 5.75764C14.1101 5.76612 14.0076 5.67367 14.016 5.56947C14.0194 5.46704 14.1067 5.38809 14.1084 5.28389C14.1118 5.21837 14.0614 5.16974 14.0194 5.12427C13.1508 4.25752 12.2839 3.38907 11.4154 2.52047C11.3666 2.47345 11.3129 2.41464 11.239 2.41973C11.1298 2.42136 11.0475 2.52214 10.9366 2.51042C10.8727 2.51204 10.8206 2.46165 10.7888 2.40962C10.7451 2.31893 10.7854 2.20972 10.851 2.14257C11.2575 1.73598 11.664 1.32946 12.0689 0.922936Z" fill="white"/>
<path fill-rule="evenodd" clip-rule="evenodd" d="M13.7556 1.26368C13.7892 1.20155 13.853 1.14444 13.9286 1.15447C14.0125 1.16126 14.073 1.23004 14.1284 1.28553C14.4644 1.6232 14.8003 1.95917 15.1362 2.29515C15.2001 2.35735 15.2756 2.41779 15.2907 2.51018C15.2991 2.60588 15.2118 2.69155 15.1194 2.70168C15.0422 2.70338 14.9716 2.66138 14.9045 2.6244C14.7617 2.54043 14.6005 2.47321 14.4308 2.48162C14.3434 2.47992 14.2595 2.5152 14.1805 2.55048C14.0882 2.45137 13.9824 2.36237 13.895 2.25987C13.9219 2.18431 13.9571 2.11207 13.9622 2.03134C13.974 1.84834 13.9001 1.6736 13.8077 1.5207C13.7607 1.44514 13.7237 1.35098 13.7556 1.26368Z" fill="white"/>
<path fill-rule="evenodd" clip-rule="evenodd" d="M6.35156 2.15437C6.53304 1.96288 6.72449 1.78313 6.90584 1.59326C7.07884 1.76121 7.24676 1.93093 7.41644 2.10058C7.47186 2.15437 7.42146 2.24506 7.35934 2.26691C7.30726 2.27362 7.26189 2.23835 7.21489 2.22153C7.03354 2.13253 6.80846 2.12249 6.62711 2.2199C6.58004 2.24005 6.54139 2.28034 6.49099 2.28875C6.44059 2.24846 6.39861 2.19806 6.35156 2.15437Z" fill="white"/>
<path fill-rule="evenodd" clip-rule="evenodd" d="M6.23756 2.26172C6.48448 2.5003 6.72306 2.74727 6.96666 2.98747C7.34803 3.36712 7.72763 3.75017 8.11071 4.12982C7.89228 4.35157 7.67221 4.57 7.45216 4.78835C7.40678 4.83867 7.31608 4.8606 7.27238 4.7984C7.21866 4.74127 7.27741 4.67072 7.29423 4.61192C7.31438 4.56822 7.27918 4.52965 7.25056 4.49945C6.81043 4.06092 6.37186 3.62245 5.93346 3.18235C5.89316 3.14537 5.85951 3.10007 5.81081 3.07482C5.74363 3.0597 5.69153 3.12022 5.62601 3.1236C5.57561 3.11852 5.52861 3.0682 5.53531 3.01602C5.53863 2.97572 5.56218 2.94045 5.59073 2.9119C5.80578 2.69517 6.02421 2.48184 6.23756 2.26172Z" fill="white"/>
<path fill-rule="evenodd" clip-rule="evenodd" d="M7.11455 2.53029C7.09277 2.47487 7.13137 2.40772 7.19017 2.39931C7.23385 2.39259 7.26912 2.4261 7.29937 2.45472C7.4807 2.63612 7.66205 2.81927 7.84517 2.99902C7.87705 3.03429 7.92242 3.06617 7.9258 3.11827C7.93252 3.17037 7.88212 3.22077 7.82842 3.21567C7.75782 3.21567 7.7041 3.16024 7.6403 3.13672C7.54622 3.09309 7.43202 3.08972 7.33965 3.14012C7.29095 3.09139 7.2422 3.04099 7.1918 2.99562C7.2137 2.92169 7.23385 2.84279 7.21532 2.76547C7.2019 2.67817 7.1414 2.61094 7.11455 2.53029Z" fill="white"/>
<path fill-rule="evenodd" clip-rule="evenodd" d="M10.3314 2.66181C10.3768 2.61644 10.4338 2.58286 10.4977 2.57446C10.6102 2.55771 10.7278 2.66684 10.706 2.78106C10.6909 2.88186 10.6069 2.96246 10.6136 3.06841C10.6304 3.14221 10.6909 3.19261 10.7395 3.24479C11.5981 4.10151 12.4565 4.95654 13.3116 5.81496C13.3587 5.85701 13.4057 5.91244 13.4729 5.91244C13.5737 5.91244 13.651 5.83686 13.7468 5.81996C13.8576 5.80159 13.9668 5.91074 13.9533 6.02164C13.9467 6.09721 13.9013 6.16274 13.8493 6.21476C13.4174 6.64481 12.9874 7.07826 12.5556 7.50834C12.5002 7.56374 12.4297 7.61414 12.3474 7.61414C12.2566 7.61916 12.1693 7.54199 12.1575 7.45291C12.1457 7.33529 12.2549 7.24791 12.2515 7.13029C12.2465 7.07489 12.2079 7.02956 12.1709 6.98921C11.4166 6.23666 10.664 5.48236 9.90971 4.72976C10.533 5.88719 11.1613 7.04136 11.7846 8.19879C11.7946 8.21556 11.803 8.23406 11.8114 8.25421C11.7661 8.29614 11.7224 8.34151 11.6787 8.38689C10.4305 7.77214 9.18391 7.15044 7.93736 6.53399C7.74083 6.43659 7.54596 6.32234 7.32418 6.29549C7.25026 6.28531 7.19986 6.34589 7.14613 6.38449C7.09063 6.42816 7.01668 6.45501 6.94791 6.43319C6.86556 6.39629 6.80843 6.29881 6.83366 6.20974C6.85043 6.14931 6.89241 6.09891 6.93611 6.05514C7.33931 5.65371 7.74083 5.25059 8.14406 4.85071C8.77228 5.15814 9.40228 5.45884 10.0323 5.76631C10.0525 5.78139 10.0743 5.79651 10.0928 5.81666C10.1029 5.80484 10.1113 5.79311 10.1213 5.78139L10.0978 5.78471C9.76691 5.15474 9.41918 4.53319 9.08813 3.90324C9.50478 3.48999 9.91641 3.07506 10.3314 2.66181Z" fill="white"/>
<path fill-rule="evenodd" clip-rule="evenodd" d="M8.12571 2.94533C8.15596 2.88991 8.24161 2.88321 8.28191 2.93021C8.45151 3.10156 8.62458 3.27291 8.79583 3.44431C8.60438 3.63743 8.41286 3.82898 8.21816 4.02048C8.17448 3.97008 8.11561 3.92978 8.08203 3.87098C8.13746 3.77691 8.19623 3.68111 8.21136 3.57028C8.23993 3.41738 8.21476 3.25616 8.14926 3.11506C8.13073 3.06126 8.09046 2.99913 8.12571 2.94533Z" fill="white"/>
<path fill-rule="evenodd" clip-rule="evenodd" d="M5.3052 3.1977C5.33877 3.16243 5.37575 3.12548 5.42445 3.11373C5.47322 3.1037 5.53367 3.13387 5.54037 3.1876C5.5522 3.24642 5.5085 3.29518 5.49677 3.35223C5.48997 3.3976 5.52695 3.42958 5.55382 3.45983C6.00242 3.90825 6.44925 4.35683 6.89785 4.80365C6.9281 4.83228 6.96 4.86755 7.00367 4.87758C7.0574 4.87258 7.10272 4.8373 7.15487 4.82555C7.21872 4.81877 7.27747 4.8877 7.25732 4.94813C7.24897 4.9935 7.2137 5.02715 7.18345 5.05903C6.965 5.27745 6.74657 5.4958 6.52822 5.71255C6.48962 5.7512 6.43922 5.7915 6.38202 5.77807C6.35015 5.76458 6.32327 5.7394 6.31147 5.70753C6.29472 5.63357 6.37367 5.57307 6.35517 5.49912C6.3384 5.47065 6.31487 5.44872 6.29302 5.42528C6.0881 5.22198 5.8848 5.01535 5.67815 4.81213C5.60592 4.886 5.53367 4.95825 5.45972 5.03048C5.40932 4.98178 5.35892 4.933 5.31192 4.88098C5.38577 4.80873 5.4581 4.73487 5.53205 4.66255C5.3505 4.48457 5.17075 4.30305 4.99105 4.12328C4.95237 4.08638 4.9188 4.0461 4.87342 4.01922C4.79115 3.9923 4.71217 4.10823 4.63322 4.0444C4.5693 3.99908 4.58952 3.90825 4.64162 3.86125C4.86167 3.6378 5.08507 3.41945 5.3052 3.1977Z" fill="white"/>
<path fill-rule="evenodd" clip-rule="evenodd" d="M4.4455 4.0694C4.49597 4.03737 4.57152 4.0576 4.595 4.1147C4.61855 4.18355 4.5564 4.24237 4.5547 4.3096C4.553 4.34487 4.58157 4.37002 4.6034 4.39357C5.06877 4.85897 5.5325 5.32422 5.99785 5.78787C6.08177 5.87855 6.18935 5.72235 6.28005 5.78957C6.33887 5.83665 6.31872 5.92895 6.26832 5.97265C6.04987 6.19277 5.82982 6.40942 5.61307 6.62947C5.5778 6.66312 5.54252 6.7034 5.49382 6.71852C5.44002 6.73365 5.3745 6.70002 5.36785 6.64297C5.35775 6.57582 5.41825 6.52365 5.41487 6.45812C5.40637 6.42957 5.388 6.4061 5.36785 6.38425C4.92767 5.94585 4.48747 5.5057 4.04897 5.06552C4.00707 5.02692 3.9718 4.97815 3.9163 4.958C3.85585 4.95467 3.80545 5.00007 3.74665 5.0067C3.69625 5.0084 3.65255 4.96302 3.65085 4.9144C3.64585 4.86222 3.6828 4.8203 3.71807 4.78502C3.93645 4.56662 4.1548 4.3482 4.37162 4.12985C4.3951 4.108 4.41692 4.08615 4.4455 4.0694Z" fill="white"/>
<path fill-rule="evenodd" clip-rule="evenodd" d="M3.23069 5.27052C3.33147 5.17304 3.42887 5.07224 3.52964 4.97314C3.70604 5.14457 3.87899 5.32254 4.05539 5.49559C4.08562 5.52917 4.12252 5.55942 4.13927 5.60312C4.15949 5.68547 4.06549 5.77614 3.98314 5.73917C3.90082 5.70222 3.83537 5.63669 3.75637 5.59299C3.62372 5.51072 3.46914 5.45862 3.31134 5.47714C3.26597 5.43014 3.21557 5.38639 3.17529 5.33604C3.18864 5.30912 3.21057 5.29067 3.23069 5.27052Z" fill="white"/>
<path fill-rule="evenodd" clip-rule="evenodd" d="M2.49816 6.00304C2.68633 5.81826 2.87112 5.63179 3.05759 5.44531C3.41042 5.79981 3.76487 6.15424 4.11929 6.50704C4.31419 6.70016 4.50407 6.89681 4.70059 7.08661C4.75609 7.14874 4.82994 7.09671 4.89047 7.07479C4.95089 7.04794 5.02152 7.10174 5.01982 7.16549C5.01982 7.20916 4.99459 7.24614 4.96609 7.27646C4.73764 7.50324 4.51249 7.72999 4.28572 7.95684C4.25377 7.98871 4.21339 8.02059 4.16639 8.01726C4.11429 8.02236 4.06389 7.97196 4.06889 7.92149C4.07229 7.86776 4.11429 7.82409 4.11429 7.77029C4.11767 7.72491 4.07902 7.69634 4.05214 7.66609C3.51624 7.13361 2.98535 6.59611 2.44775 6.06519C2.46458 6.04334 2.4797 6.02319 2.49816 6.00304Z" fill="white"/>
<path fill-rule="evenodd" clip-rule="evenodd" d="M15.1061 5.83838C15.3143 6.0433 15.521 6.2499 15.7259 6.45823C15.7914 6.52043 15.7444 6.6447 15.657 6.6582C15.5764 6.66993 15.5143 6.6061 15.4522 6.5641C15.2859 6.4498 15.0893 6.34238 14.8811 6.37765C14.8256 6.32725 14.7719 6.27515 14.7266 6.2164C14.8559 6.09208 14.9802 5.96433 15.1061 5.83838Z" fill="white"/>
<path fill-rule="evenodd" clip-rule="evenodd" d="M2.32626 6.1792C2.38845 6.20272 2.42704 6.27327 2.47743 6.31695C2.45058 6.51185 2.54287 6.69492 2.65206 6.84782C2.68401 6.8966 2.7226 6.9419 2.74274 6.99732C2.76465 7.07125 2.69242 7.14852 2.61849 7.1401C2.57651 7.1401 2.54796 7.10482 2.52111 7.07967C2.33799 6.89482 2.15333 6.71345 1.97021 6.52867C2.09113 6.41437 2.20372 6.2918 2.32626 6.1792Z" fill="white"/>
<path fill-rule="evenodd" clip-rule="evenodd" d="M6.06414 7.1268C6.39844 7.01922 6.76129 7.0075 7.10569 7.07805C7.69039 7.20237 8.20776 7.54507 8.62109 7.97002C9.02594 8.37995 9.34849 8.89405 9.45771 9.46682C9.51816 9.78097 9.50471 10.1102 9.41409 10.4176C9.32504 10.7217 9.16364 11.0023 8.96041 11.2442C8.87304 11.1518 8.77731 11.0661 8.69326 10.972C8.69326 10.9266 8.72184 10.888 8.73031 10.8444C8.77561 10.6966 8.73031 10.5302 8.61769 10.4226C7.78786 9.59117 6.95456 8.7596 6.12459 7.92805C6.04901 7.85077 5.95331 7.78865 5.84409 7.78025C5.75501 7.7685 5.66764 7.80037 5.58366 7.83057C5.55001 7.8491 5.52824 7.80717 5.50639 7.79027C5.43916 7.7181 5.36524 7.65257 5.29806 7.57865C5.29806 7.57362 5.29639 7.56352 5.29639 7.5585C5.51984 7.367 5.78194 7.2175 6.06414 7.1268Z" fill="white"/>
<path fill-rule="evenodd" clip-rule="evenodd" d="M8.32959 7.03418C8.40684 7.05935 8.47739 7.09803 8.54964 7.13498C8.82019 7.26605 9.08886 7.4021 9.36111 7.5348C9.38456 7.5466 9.40641 7.56505 9.42664 7.5835C9.65504 7.81535 9.88526 8.0438 10.1154 8.27398C10.2397 8.40673 10.3959 8.50915 10.5656 8.57298C10.6849 8.61835 10.8193 8.61835 10.9386 8.5763C10.9991 8.55615 11.0646 8.53268 11.1284 8.55283C11.1923 8.57805 11.2393 8.6419 11.2443 8.71075C11.2393 8.80313 11.1805 8.88038 11.1183 8.94423C10.9134 9.15253 10.705 9.35923 10.4967 9.56415C10.4413 9.61455 10.3775 9.66658 10.3002 9.67498C10.1893 9.69173 10.0801 9.57425 10.1137 9.46668C10.1456 9.35745 10.1893 9.24663 10.1709 9.13238C10.1439 8.94083 10.0347 8.77118 9.91377 8.62508C9.45852 8.16816 9.00157 7.71285 8.54464 7.25423C8.47402 7.1803 8.39674 7.11315 8.32959 7.03418Z" fill="white"/>
<path fill-rule="evenodd" clip-rule="evenodd" d="M13.4532 7.49142C13.5793 7.36544 13.7069 7.23942 13.8329 7.11182C13.8884 7.15714 13.9371 7.21092 13.9892 7.26132C13.9673 7.42927 14.0245 7.59554 14.1118 7.73669C14.1571 7.81734 14.2226 7.88619 14.263 7.97017C14.2849 8.01054 14.2697 8.05584 14.2546 8.09614C14.4663 8.23899 14.6527 8.42039 14.8006 8.62699C14.9703 8.86727 15.0895 9.15284 15.0828 9.45184C15.0845 9.73579 14.9619 10.0079 14.7821 10.2229C14.7334 10.1725 14.6763 10.1272 14.6342 10.0701C14.6427 10.0079 14.6729 9.94742 14.6577 9.88529C14.641 9.80464 14.5788 9.74752 14.5234 9.69204C14.0799 9.25024 13.638 8.80852 13.1962 8.36667C13.1525 8.32297 13.1004 8.28269 13.0382 8.27767C12.9795 8.27087 12.9207 8.28769 12.8669 8.30614C12.8148 8.25752 12.7628 8.20534 12.7124 8.15494C12.9358 7.96347 13.2264 7.84082 13.5238 7.85594C13.638 7.85262 13.749 7.87949 13.8598 7.90464C13.7254 7.76524 13.5825 7.63419 13.4532 7.49142Z" fill="white"/>
<path fill-rule="evenodd" clip-rule="evenodd" d="M4.6617 8.4771C4.75407 8.2201 4.9002 7.98493 5.07325 7.7749C5.15892 7.86235 5.2497 7.94625 5.33367 8.03533C5.35042 8.0891 5.30682 8.1395 5.2984 8.19323C5.25472 8.33773 5.31182 8.49563 5.41772 8.59975C6.23412 9.41788 7.0523 10.2343 7.87047 11.0524C7.94945 11.1381 8.04515 11.2187 8.1661 11.2372C8.27362 11.2541 8.37952 11.2171 8.47862 11.1801C8.56932 11.2708 8.6601 11.3599 8.75077 11.4506C8.5525 11.6236 8.32232 11.7597 8.0771 11.8555C7.70747 11.9982 7.2942 12.0217 6.90612 11.9361C6.31642 11.8067 5.79732 11.4523 5.38237 11.0205C4.99937 10.6191 4.69017 10.1268 4.58102 9.57743C4.50717 9.21295 4.5307 8.8266 4.6617 8.4771Z" fill="white"/>
<path fill-rule="evenodd" clip-rule="evenodd" d="M12.2975 8.96294C12.3177 8.70761 12.4303 8.46404 12.5983 8.27246C12.647 8.32286 12.6991 8.37326 12.7495 8.42366C12.731 8.48419 12.7024 8.54801 12.7193 8.61176C12.7293 8.66896 12.7679 8.71434 12.8083 8.75461C13.2518 9.19641 13.6919 9.63991 14.1355 10.0817C14.1875 10.1321 14.2379 10.1926 14.3119 10.2128C14.3791 10.2313 14.4479 10.2077 14.5134 10.1875C14.5639 10.238 14.616 10.2884 14.6647 10.3421C14.453 10.5168 14.1892 10.6395 13.9103 10.6395C13.6399 10.6512 13.3744 10.5554 13.1493 10.4144C12.9863 10.3102 12.8368 10.1842 12.7126 10.038C12.7713 10.2346 12.7579 10.4547 12.6655 10.6395C12.5748 10.8209 12.4337 10.9688 12.2942 11.1115C12.2438 11.0611 12.1917 11.009 12.1396 10.9586C12.1834 10.888 12.2119 10.804 12.185 10.7218C12.1531 10.6377 12.0842 10.5773 12.0237 10.5135C11.8994 10.3874 11.7734 10.2615 11.6474 10.1355C11.5735 10.0666 11.4945 9.98761 11.3887 9.98091C11.3265 9.97426 11.2711 10.0061 11.219 10.0364C11.167 9.98599 11.1166 9.93389 11.0645 9.88356C11.266 9.68026 11.4962 9.47026 11.7919 9.43329C12.0338 9.39294 12.2774 9.49711 12.4487 9.66344C12.3412 9.44841 12.2741 9.20646 12.2975 8.96294Z" fill="white"/>
<path fill-rule="evenodd" clip-rule="evenodd" d="M3.44112 9.54898C3.49152 9.50028 3.55705 9.4633 3.6276 9.45828C3.74352 9.4515 3.84942 9.57246 3.8174 9.68506C3.79222 9.77073 3.7301 9.84628 3.7267 9.93875C3.73342 10.0193 3.80065 10.0765 3.85445 10.1302C4.71622 10.992 5.57972 11.8555 6.44157 12.7172C6.48195 12.7559 6.52725 12.7945 6.58437 12.7995C6.68177 12.7995 6.75742 12.7274 6.84982 12.7055C6.96065 12.6837 7.07157 12.7845 7.06655 12.8953C7.06315 12.9709 7.02117 13.0398 6.96907 13.0935C6.53567 13.527 6.1005 13.9621 5.6671 14.3955C5.60997 14.4509 5.53942 14.4996 5.45715 14.4996C5.35632 14.503 5.26225 14.4073 5.27057 14.3047C5.28077 14.204 5.36467 14.1233 5.36645 14.0192C5.36305 13.957 5.31427 13.9099 5.27567 13.8663C4.88927 13.4783 4.5012 13.0935 4.1165 12.7072C4.10137 12.6955 4.08122 12.6618 4.05937 12.6853C3.925 12.8146 3.79562 12.9508 3.66117 13.0801C3.57047 12.9894 3.47977 12.8987 3.38902 12.8063C3.51837 12.6702 3.65277 12.5375 3.78885 12.4065C3.78885 12.3997 3.7906 12.3847 3.7906 12.3779C3.426 12.0201 3.06815 11.6572 2.7053 11.2961C2.64988 11.244 2.59771 11.1785 2.52051 11.16C2.41469 11.1532 2.33234 11.2356 2.23323 11.2541C2.10556 11.2759 1.98963 11.1315 2.03331 11.0121C2.05516 10.9282 2.12231 10.8676 2.18113 10.8106C2.6011 10.389 3.02277 9.97063 3.44112 9.54898Z" fill="white"/>
<path fill-rule="evenodd" clip-rule="evenodd" d="M10.9429 10.0029C11.1445 10.191 11.3344 10.3926 11.5326 10.5858C11.9089 10.9638 12.2869 11.3417 12.6649 11.7197C12.6918 11.7416 12.7169 11.7718 12.7522 11.7785C12.8245 11.7853 12.8816 11.7147 12.9539 11.7281C12.9976 11.7432 13.0378 11.7853 13.0328 11.8339C13.0328 11.8995 12.9774 11.9448 12.937 11.9885C12.7002 12.2221 12.4666 12.4589 12.2298 12.6924C12.1777 12.7495 12.0802 12.721 12.0483 12.6571C12.0013 12.5782 12.129 12.4941 12.0618 12.422C11.5746 11.9365 11.0874 11.4493 10.6019 10.9621C10.5666 10.9302 10.5364 10.8899 10.4943 10.868C10.4221 10.8478 10.365 10.9084 10.2978 10.9168C10.2457 10.9117 10.1953 10.8664 10.1986 10.8126C10.1936 10.7538 10.2373 10.7085 10.2742 10.6699C10.4977 10.448 10.7212 10.2247 10.9429 10.0029Z" fill="white"/>
<path fill-rule="evenodd" clip-rule="evenodd" d="M9.44434 11.4998C9.64411 11.3032 9.83896 11.1 10.0422 10.9067C10.2219 11.0882 10.4034 11.2679 10.5831 11.4493C10.6435 11.5081 10.5797 11.5972 10.5176 11.6241C10.4739 11.6291 10.4335 11.6022 10.3949 11.5855C10.2405 11.5098 10.0624 11.4729 9.89274 11.5166C9.78526 11.5384 9.69119 11.5988 9.59711 11.6542C9.54674 11.6022 9.49641 11.5502 9.44434 11.4998Z" fill="white"/>
<path fill-rule="evenodd" clip-rule="evenodd" d="M8.6282 12.3175C8.86012 12.0824 9.09532 11.8522 9.32712 11.6187C9.7034 11.99 10.0747 12.3679 10.4527 12.7392C10.7417 13.0265 11.0273 13.3171 11.3179 13.6027C11.0928 13.8345 10.861 14.0596 10.6358 14.2897C10.6039 14.325 10.5585 14.3452 10.5165 14.3636C10.4746 14.3486 10.4225 14.3335 10.409 14.2865C10.3839 14.2074 10.4661 14.1453 10.4561 14.068C10.4225 14.0025 10.3636 13.9554 10.3132 13.9034C9.90502 13.4951 9.49685 13.087 9.08855 12.6787C9.01637 12.6115 8.95585 12.5309 8.87017 12.4805C8.7845 12.4637 8.70722 12.5729 8.62495 12.5141C8.5544 12.4687 8.57455 12.3679 8.6282 12.3175Z" fill="white"/>
<path fill-rule="evenodd" clip-rule="evenodd" d="M10.2577 11.9012C10.2309 11.8323 10.2947 11.7516 10.3669 11.7634C10.4005 11.7718 10.4257 11.7936 10.4492 11.8171C10.6255 11.9953 10.8036 12.1699 10.9783 12.348C11.0354 12.4068 11.1093 12.4572 11.1328 12.5412C11.111 12.5782 11.0874 12.6286 11.0371 12.6336C10.9547 12.642 10.8943 12.5765 10.8204 12.5495C10.7196 12.4991 10.597 12.4991 10.4963 12.5513C10.4426 12.4975 10.3905 12.4437 10.3367 12.3917C10.3736 12.3127 10.3905 12.222 10.3635 12.138C10.3434 12.0523 10.2863 11.9818 10.2577 11.9012Z" fill="white"/>
<path fill-rule="evenodd" clip-rule="evenodd" d="M11.3381 12.3397C11.3734 12.286 11.459 12.2776 11.501 12.328C11.6824 12.5111 11.8672 12.6925 12.0469 12.8773C11.8403 13.0789 11.6421 13.2905 11.4305 13.4871C11.3818 13.435 11.3297 13.3846 11.2793 13.3325C11.459 13.1108 11.4842 12.7899 11.3633 12.5346C11.3414 12.4741 11.2944 12.4002 11.3381 12.3397Z" fill="white"/>
<path fill-rule="evenodd" clip-rule="evenodd" d="M0.529074 13.0082C0.59623 12.9813 0.660135 12.9393 0.734077 12.941C0.823075 12.9578 0.878568 13.0367 0.940635 13.0955C1.78574 13.9372 2.62738 14.7804 3.47072 15.622C3.51772 15.6742 3.57825 15.7262 3.58665 15.8002C3.58327 15.8723 3.5446 15.9362 3.51447 16.0001C2.51816 15.9984 1.52369 15.9984 0.529074 15.9984C0.529074 15.0022 0.527378 14.0043 0.529074 13.0082Z" fill="#F96302"/>
<path fill-rule="evenodd" clip-rule="evenodd" d="M8.34943 12.9626C8.64846 12.9375 8.94586 13.0449 9.19276 13.2079C9.38596 13.3373 9.56573 13.4868 9.70343 13.6733C9.86816 13.8933 9.96888 14.1621 9.97066 14.4393C9.97561 14.7551 9.85133 15.0743 9.62623 15.2976C9.57408 15.2472 9.52368 15.1969 9.47333 15.1448C9.50353 15.0878 9.53881 15.0273 9.52876 14.96C9.51201 14.8592 9.44308 14.7769 9.37416 14.708C8.99626 14.3301 8.61821 13.9521 8.24021 13.5741C8.16296 13.4985 8.07558 13.4162 7.96133 13.4078C7.89921 13.4011 7.84371 13.433 7.79168 13.4632C7.74291 13.4095 7.67576 13.3692 7.64551 13.302C7.83028 13.1121 8.08228 12.9794 8.34943 12.9626Z" fill="white"/>
<path fill-rule="evenodd" clip-rule="evenodd" d="M15.1392 15.0491C15.1392 14.7477 15.3836 14.5254 15.6725 14.5254C15.9587 14.5254 16.2031 14.7477 16.2031 15.0491C16.2031 15.3533 15.9587 15.5757 15.6725 15.5757C15.3836 15.5757 15.1392 15.3533 15.1392 15.0491ZM15.6721 15.4881C15.9095 15.4881 16.097 15.3019 16.097 15.0491C16.097 14.8004 15.9095 14.6129 15.6721 14.6129C15.4317 14.6129 15.2442 14.8004 15.2442 15.0491C15.2442 15.3019 15.4317 15.4881 15.6721 15.4881ZM15.5609 15.3534H15.4693V14.7478H15.6998C15.8429 14.7478 15.9137 14.8005 15.9137 14.92C15.9137 15.0284 15.8457 15.0756 15.7568 15.0867L15.9291 15.3534H15.8262L15.6665 15.0908H15.5609V15.3534ZM15.6708 15.0131C15.7485 15.0131 15.818 15.0076 15.818 14.9145C15.818 14.8395 15.75 14.8256 15.6861 14.8256H15.561V15.0131H15.6708Z" fill="white"/>
</g>
<defs>
<clipPath id="clip0_2_7672">
<rect width="16" height="16" fill="white" transform="translate(0.52832)"/>
</clipPath>
</defs>
</svg>
