<svg width="32" height="16" viewBox="0 0 32 16" fill="none" xmlns="http://www.w3.org/2000/svg">
<g clip-path="url(#clip0_4_76)">
<path d="M6.90479 13.5513C6.90479 12.5019 7.48778 11.9448 8.27806 11.9448C9.00357 11.9448 9.34041 12.3464 9.48292 12.9165L8.97766 13.059C8.86106 12.6444 8.67968 12.4371 8.26511 12.4371C7.73393 12.4371 7.43596 12.8388 7.43596 13.5513C7.43596 14.2898 7.74689 14.7043 8.27806 14.7043C8.67968 14.7043 8.91288 14.4971 9.02948 14.0307L9.53474 14.1473C9.37928 14.7691 9.00357 15.1837 8.27806 15.1837C7.47483 15.1707 6.90479 14.6266 6.90479 13.5513Z" fill="black"/>
<path d="M9.81982 14.0049C9.81982 13.1757 10.364 12.8389 10.9081 12.8389C11.4522 12.8389 11.9963 13.1757 11.9963 14.0049C11.9963 14.8211 11.4522 15.1709 10.9081 15.1709C10.364 15.1579 9.81982 14.8211 9.81982 14.0049ZM11.4781 14.0049C11.4781 13.5903 11.2967 13.2794 10.9081 13.2794C10.5324 13.2794 10.338 13.5514 10.338 14.0049C10.338 14.4324 10.5065 14.7304 10.9081 14.7304C11.2838 14.7304 11.4781 14.4583 11.4781 14.0049Z" fill="black"/>
<path d="M12.3589 15.1188V12.8904H12.8771V13.2014C13.0455 13.007 13.3046 12.8516 13.6415 12.8516C14.0172 12.8516 14.1597 12.9941 14.2504 13.2143C14.4318 13.02 14.6909 12.8516 15.0277 12.8516C15.4812 12.8516 15.6755 13.1236 15.6755 13.5252V15.1188H15.1573V13.6418C15.1573 13.3957 15.0795 13.2791 14.8463 13.2791C14.639 13.2791 14.4706 13.3957 14.2763 13.5641V15.1188H13.7581V13.6418C13.7581 13.3957 13.6803 13.2791 13.4471 13.2791C13.2399 13.2791 13.0714 13.3957 12.8771 13.5641V15.1188H12.3589Z" fill="black"/>
<path d="M16.168 15.9609V12.8904H16.6862V13.1884C16.8287 13.007 17.0619 12.8516 17.3987 12.8516C17.904 12.8516 18.2797 13.2402 18.2797 14.0046C18.2797 14.7819 17.891 15.1576 17.321 15.1576C17.0749 15.1576 16.8417 15.0669 16.6862 14.8726V15.9609H16.168ZM17.7615 14.0046C17.7615 13.5382 17.5542 13.2791 17.2303 13.2791C17.0101 13.2791 16.8157 13.4086 16.6862 13.5641V14.458C16.8287 14.6394 17.023 14.7301 17.2174 14.7301C17.5931 14.7431 17.7615 14.4969 17.7615 14.0046Z" fill="black"/>
<path d="M18.5 14.5749C18.5 14.0955 18.9146 13.7717 19.951 13.6551V13.5903C19.951 13.37 19.8344 13.2664 19.5883 13.2664C19.2773 13.2664 19.0182 13.4219 18.8368 13.5644L18.5907 13.2405C18.8368 13.0202 19.1996 12.8389 19.666 12.8389C20.2619 12.8389 20.4692 13.1239 20.4692 13.6421V14.5619C20.4692 14.834 20.4822 14.9895 20.534 15.1061H20.0158C19.9899 15.0154 19.964 14.9506 19.964 14.8211C19.7308 15.0543 19.4717 15.1449 19.1348 15.1449C18.7721 15.1449 18.5 14.9506 18.5 14.5749ZM19.964 14.4972V14.0049C19.3421 14.0826 19.0182 14.2381 19.0182 14.4842C19.0182 14.6656 19.1348 14.7563 19.3291 14.7563C19.5883 14.7563 19.7955 14.6526 19.964 14.4972Z" fill="black"/>
<path d="M20.9355 15.1188V12.8904H21.4538V13.2532C21.6222 13.0589 21.8813 12.8516 22.257 12.8516C22.6586 12.8516 22.9177 13.0588 22.9177 13.4993V15.1188H22.3995V13.6418C22.3995 13.3957 22.2959 13.2661 22.0627 13.2661C21.8295 13.2661 21.6481 13.3827 21.4538 13.5512V15.1058H20.9355V15.1188Z" fill="black"/>
<path d="M23.0342 15.9219L23.1508 15.5074C23.2156 15.5203 23.3451 15.5592 23.5265 15.5592C23.7079 15.5592 23.8115 15.4815 23.8763 15.313L23.9411 15.1446L23.086 12.9033H23.6301L24.2002 14.5357H24.2131L24.7832 12.9033H25.3014L24.3556 15.3778C24.2131 15.7665 24.0188 15.9997 23.5783 15.9997C23.3062 15.9867 23.1508 15.9479 23.0342 15.9219Z" fill="black"/>
<path d="M13.4216 3.10931V0.492308H12.4629V0H14.9115V0.492308H13.9528V3.12227H13.4216V3.10931Z" fill="black"/>
<path d="M15.2222 3.10931V0H15.7404V1.17895C15.8829 1.02348 16.155 0.82915 16.5566 0.82915C16.9452 0.82915 17.2044 1.06235 17.2044 1.50283V3.10931H16.6861V1.64534C16.6861 1.39919 16.5825 1.28259 16.3493 1.28259C16.1161 1.28259 15.9347 1.39919 15.7404 1.56761V3.10931H15.2222Z" fill="black"/>
<path d="M17.5542 1.99509C17.5542 1.14003 18.1502 0.829102 18.6165 0.829102C19.1218 0.829102 19.6012 1.12708 19.6012 2.03396V2.16351H18.0724C18.0983 2.56513 18.3445 2.74651 18.6684 2.74651C18.9534 2.74651 19.1218 2.65582 19.2902 2.4874L19.5623 2.75947C19.3291 3.01858 19.0182 3.16109 18.6295 3.16109C18.0724 3.16109 17.5542 2.82424 17.5542 1.99509ZM19.1218 1.78781C19.0959 1.45096 18.9275 1.26959 18.6165 1.26959C18.3704 1.26959 18.1372 1.4121 18.0854 1.78781H19.1218Z" fill="black"/>
<path d="M19.6919 6.54249C19.6919 6.54249 19.7697 6.42589 19.8344 6.3352C19.951 6.17973 20.1583 5.95949 20.3267 5.81698C20.3786 5.77811 20.4304 5.72629 20.4304 5.72629C20.4304 5.72629 20.3397 5.73925 20.2879 5.7522C20.1713 5.77811 19.9899 5.89471 19.8992 5.97245C19.7567 6.102 19.5883 6.29633 19.666 6.49067C19.679 6.50362 19.6919 6.54249 19.6919 6.54249ZM20.5081 6.76273C20.7413 6.74977 20.9616 6.685 21.1559 6.5684C21.3502 6.4518 21.6482 6.24451 21.6223 5.9854C21.6093 5.90767 21.5575 5.84289 21.4927 5.81698C21.4021 5.77811 21.3632 5.79107 21.2466 5.81698C21.1689 5.84289 21.13 5.85585 21.0523 5.89471C20.8191 6.02427 20.4952 6.30929 20.3267 6.52953C20.2879 6.58135 20.249 6.64613 20.2101 6.685C20.1842 6.71091 20.1713 6.73682 20.1713 6.73682C20.1842 6.76273 20.4174 6.76273 20.5081 6.76273ZM19.9122 7.19026C19.8863 7.21617 19.8603 7.28095 19.8344 7.31982C19.8215 7.34573 19.7956 7.37164 19.7826 7.38459C19.7178 7.42346 19.666 7.43642 19.6142 7.38459C19.5365 7.30686 19.4846 7.20322 19.4846 7.08662C19.4846 7.0348 19.4846 6.98297 19.4846 6.94411C19.4717 6.87933 19.4069 6.8016 19.368 6.73682C19.3292 6.65909 19.2903 6.52953 19.2903 6.43884C19.2774 6.16678 19.4199 5.92063 19.6012 5.72629C19.7826 5.53196 20.0288 5.36354 20.2879 5.2599C20.534 5.15625 20.8968 5.07852 21.1689 5.18216C21.2595 5.20807 21.3761 5.28581 21.4409 5.36354C21.4539 5.3765 21.4668 5.40241 21.4798 5.40241C21.4927 5.41536 21.5187 5.41536 21.5446 5.41536C21.6352 5.42832 21.7518 5.49309 21.8037 5.54492C21.9073 5.6356 21.9591 5.71334 21.985 5.84289C22.0369 6.08905 21.8944 6.36111 21.7389 6.52953C21.4668 6.81455 21.1818 7.00888 20.832 7.15139C20.6765 7.21617 20.4304 7.26799 20.262 7.25504C20.2101 7.25504 20.1454 7.24208 20.0935 7.22913C20.0676 7.22913 19.964 7.20322 19.951 7.19026C19.9381 7.20322 19.9251 7.19026 19.9122 7.19026ZM11.4523 7.91577C11.5948 7.90281 11.6855 7.90281 11.8021 7.85099C11.8668 7.82508 11.9446 7.7603 11.9057 7.68257C11.8798 7.63075 11.8021 7.61779 11.7632 7.63075C11.6077 7.6437 11.4911 7.7603 11.4523 7.91577C11.4393 7.91577 11.4393 7.91577 11.4523 7.91577ZM12.1 7.54006C12.1907 7.6437 12.2296 7.77326 12.2296 7.91577C12.2425 8.05828 12.1907 8.18783 12.113 8.29148C11.9834 8.47285 11.7632 8.56354 11.53 8.5765C11.5041 8.5765 11.3227 8.58945 11.2709 8.56354C11.2579 8.56354 11.2579 8.56354 11.2579 8.56354C11.2579 8.56354 11.2191 8.69309 11.2191 8.73196C11.1931 8.88743 11.1802 8.99107 11.1543 9.12063C11.1413 9.21131 11.1284 9.31496 11.1154 9.4186C11.0636 10.0146 11.0765 10.3125 11.1284 10.9085C11.1284 10.9473 11.1284 10.9862 11.1284 11.0121C11.1154 11.0769 11.0765 11.1287 10.9988 11.1546C10.7915 11.2065 10.5972 10.9992 10.4935 10.8437C10.2604 10.455 10.3381 9.67771 10.4029 9.28905C10.4288 9.13358 10.5065 8.77083 10.5583 8.64127C10.5842 8.5765 10.6231 8.43398 10.6231 8.43398C10.6231 8.43398 10.5065 8.38216 10.4158 8.3433C10.3769 8.33034 10.2474 8.26556 10.1956 8.2267C10.079 8.16192 10.0142 8.09714 9.93646 8.01941C9.91055 7.9935 9.83282 7.8769 9.81986 7.85099C9.75509 7.70848 9.75509 7.59188 9.80691 7.43641C9.81986 7.39755 9.8976 7.24208 9.94942 7.24208C10.0272 7.25504 10.0012 7.37164 10.0272 7.43641C10.0401 7.46233 10.0531 7.48824 10.066 7.51415C10.1697 7.63075 10.5065 7.77326 10.649 7.81212C10.6749 7.81212 10.8822 7.88986 10.9211 7.86395C10.934 7.86395 10.9729 7.78621 10.9988 7.74735C11.0118 7.72143 11.0247 7.70848 11.0506 7.68257C11.1802 7.54006 11.3875 7.39755 11.5818 7.35868C11.6725 7.34573 11.8409 7.35868 11.9186 7.39755C11.9575 7.42346 12.0093 7.44937 12.1 7.54006ZM10.0272 9.23723C10.0272 9.23723 10.0401 9.23722 10.0531 9.25018C10.1567 9.28905 10.1567 9.47042 10.1308 9.56111C10.066 9.78135 9.85873 10.0146 9.69031 10.1312C9.58667 10.1959 9.37938 10.2996 9.23687 10.3255C9.00367 10.3643 8.80934 10.3125 8.67978 10.1182C8.56318 9.94977 8.52432 9.74249 8.51136 9.54816C8.48545 8.99107 8.66683 8.16192 8.88707 7.69552C8.91298 7.63075 9.05549 7.34573 9.198 7.2939C9.32756 7.24208 9.39233 7.39755 9.40529 7.5271C9.41825 7.68257 9.37938 7.8769 9.34051 8.03237C9.27573 8.31739 9.17209 8.75787 9.15914 8.88743C9.13322 9.01698 9.0814 9.302 9.09436 9.45747C9.10731 9.5352 9.12027 9.57407 9.17209 9.57407C9.198 9.57407 9.57371 9.39269 9.781 9.31496C9.84578 9.26313 9.93646 9.23723 10.0272 9.23723ZM7.22877 8.97812C7.22877 8.97812 7.26764 8.97812 7.31946 8.97812C7.46197 8.97812 7.69517 8.9522 7.69517 8.9522C7.69517 8.9522 7.66926 8.74492 7.64335 8.61536C7.63039 8.52467 7.61743 8.47285 7.59152 8.40807C7.57857 8.38216 7.56561 8.29148 7.5397 8.25261C7.5397 8.23965 7.52675 8.23965 7.52675 8.23965C7.52675 8.23965 7.41015 8.4599 7.34537 8.61536C7.29355 8.73196 7.26764 8.82265 7.22877 8.90038C7.21582 8.91334 7.21582 8.93925 7.21582 8.96516C7.22877 8.96516 7.22877 8.97812 7.22877 8.97812ZM6.47735 9.00403C6.47735 9.00403 6.54213 8.84856 6.59395 8.73196C6.64578 8.61536 6.9308 8.04532 7.04739 7.88986C7.17695 7.70848 7.4231 7.38459 7.4231 7.37164C7.4231 7.33277 7.43606 7.26799 7.47493 7.21617C7.50084 7.17731 7.56561 7.15139 7.63039 7.15139C7.69517 7.15139 7.7729 7.20322 7.81177 7.25504C7.87654 7.37164 7.98019 7.68257 8.0061 7.7603C8.1227 8.17488 8.26521 8.96516 8.30407 9.36678C8.31703 9.47042 8.3559 10.0275 8.3559 10.1441C8.3559 10.2348 8.3559 10.3773 8.30407 10.4421C8.29112 10.468 8.25225 10.4939 8.21339 10.4939C8.16156 10.4939 8.07088 10.4291 8.03201 10.3903C7.91541 10.2866 7.83768 10.17 7.82472 10.0405C7.79881 9.92386 7.7729 9.59998 7.7729 9.59998L7.28059 9.61293H7.00853C7.00853 9.61293 6.98262 9.67771 6.95671 9.72953C6.90488 9.84613 6.86602 9.96273 6.85306 10.0275C6.8142 10.1571 6.74942 10.4162 6.73646 10.455C6.6976 10.5328 6.67169 10.5846 6.59395 10.5975C6.50326 10.6105 6.43849 10.6105 6.37371 10.5846C6.25711 10.5198 6.19233 10.3773 6.17938 10.2218C6.14051 9.97569 6.24416 9.7684 6.3478 9.47042C6.38667 9.34087 6.33484 9.302 6.2312 9.14654C6.21825 9.12062 6.20529 9.10767 6.20529 9.08176C6.20529 9.0688 6.21824 9.01698 6.24416 9.00403C6.25711 9.00403 6.25711 9.00403 6.27007 8.99107L6.47735 9.00403ZM3.66602 7.38459C3.66602 7.38459 3.65306 7.22913 3.64011 7.13844C3.62715 7.06071 3.6142 7.00888 3.57533 6.94411C3.53646 6.87933 3.51055 6.84046 3.44577 6.82751C3.36804 6.81455 3.32918 6.86637 3.27735 6.94411C3.21258 7.04775 3.1478 7.22913 3.10893 7.34573C3.05711 7.51415 3.0312 7.61779 3.00529 7.81212C2.95347 8.12305 2.9146 8.65423 2.96642 9.01698C2.97938 9.08176 2.99233 9.17245 2.99233 9.17245C2.99233 9.17245 3.07007 9.08176 3.12189 9.02994C3.1478 9.00403 3.25144 8.8356 3.2644 8.82265C3.29031 8.78378 3.34213 8.70605 3.34213 8.68014C3.35509 8.66718 3.43282 8.48581 3.44577 8.44694C3.47169 8.36921 3.51055 8.25261 3.54942 8.14896C3.6142 7.92872 3.6142 7.85099 3.65306 7.60484C3.66602 7.59188 3.66602 7.38459 3.66602 7.38459ZM3.12189 9.71658C3.12189 9.71658 3.1478 9.7684 3.17371 9.80726C3.30326 10.0275 3.51055 10.1571 3.76966 10.17C4.02877 10.183 4.36561 10.0275 4.54699 9.89795C5.09112 9.52224 5.37614 8.83561 5.5316 8.18783C5.71298 7.42346 5.72594 6.62022 5.50569 5.88176C5.37614 5.45423 5.12999 4.9101 4.83201 4.59917C4.74132 4.50848 4.59881 4.37892 4.55994 4.31415C4.52108 4.26233 4.50812 4.2105 4.5729 4.17164C4.63768 4.13277 4.78019 4.2105 4.85792 4.26233C5.22067 4.48257 5.45387 4.68986 5.66116 5.00079C5.71298 5.07852 5.93322 5.42832 5.97209 5.50605C6.21825 5.95949 6.33484 6.34816 6.39962 6.85342C6.47735 7.48824 6.42553 8.21374 6.20529 8.84856C6.1146 9.13358 5.95914 9.4186 5.80367 9.66475C5.7648 9.71658 5.54456 10.0275 5.51865 10.0534C5.44092 10.1312 5.24658 10.2996 5.1559 10.3773C4.70246 10.7401 4.2231 10.9733 3.69193 10.9085C3.39395 10.8696 3.16075 10.7789 2.92756 10.5846C2.83687 10.5069 2.6814 10.3514 2.62958 10.2477C2.59071 10.183 2.53889 10.0923 2.53889 10.0923C2.52594 10.0923 2.50003 10.1052 2.47411 10.1312C2.4482 10.1441 2.34456 10.1959 2.29274 10.2218C1.92999 10.3514 1.51541 10.3255 1.19152 10.1052C0.94537 9.94978 0.738082 9.6518 0.647394 9.37973C0.51784 8.97811 0.504884 8.56354 0.556706 8.13601C0.647394 7.4105 0.906503 6.72386 1.29517 6.11496C1.54132 5.72629 1.85225 5.35058 2.24092 5.07852C2.27978 5.05261 2.51298 4.9101 2.5648 4.89714C2.65549 4.85828 2.75914 4.81941 2.82391 4.88419C2.86278 4.92305 2.86278 4.94897 2.83687 5.00079C2.798 5.07852 2.69436 5.18216 2.64254 5.23398C2.59071 5.28581 2.31865 5.6356 2.25387 5.71334C2.18909 5.80403 1.90407 6.2186 1.86521 6.29633C1.50245 6.9182 1.21743 7.90281 1.24335 8.66718C1.24335 8.82265 1.26926 9.05585 1.30812 9.19836C1.35994 9.39269 1.47654 9.66475 1.65792 9.79431C1.8393 9.92386 2.02067 9.92386 2.24092 9.83318C2.30569 9.80726 2.38343 9.7684 2.38343 9.7684C2.38343 9.7684 2.31865 9.59998 2.27978 9.47042C2.16318 9.12062 2.11136 8.56354 2.16318 8.17488C2.20205 7.86395 2.26683 7.61779 2.40934 7.37164C2.52594 7.1773 2.6814 6.97002 2.86278 6.81455C3.04416 6.65909 3.34213 6.51658 3.60124 6.51658C3.82148 6.51658 4.04173 6.60727 4.15833 6.8016C4.35266 7.13844 4.36561 7.68257 4.31379 8.03237C4.23606 8.56354 3.95104 9.0688 3.54942 9.40564C3.40691 9.50929 3.12189 9.71658 3.12189 9.71658ZM20.2361 7.73439C20.249 7.73439 20.262 7.74735 20.2749 7.74735C20.4045 7.79917 20.4563 7.91577 20.4822 8.03237C20.5599 8.33034 20.5859 8.97812 20.5988 9.22427C20.6118 9.4186 20.6118 9.59998 20.6247 9.79431C20.6377 9.94977 20.6377 10.17 20.6118 10.3125C20.5988 10.3643 20.5599 10.4291 20.5081 10.468C20.4433 10.5069 20.3138 10.5069 20.2361 10.4939C20.0547 10.455 19.9899 10.3384 19.964 10.1571C19.8992 9.72953 19.9381 8.88743 19.964 8.52467C19.9769 8.40808 20.0158 8.03237 20.0806 7.8769C20.1065 7.83803 20.1583 7.72143 20.2361 7.73439ZM14.6263 8.38216C14.6263 8.38216 14.3543 8.39512 14.1729 8.42103C13.9397 8.44694 13.4992 8.52467 13.2401 8.61536C13.1624 8.64127 13.0069 8.70605 12.994 8.78378C12.981 8.86152 13.0328 8.92629 13.0846 8.99107C13.1235 9.02994 13.3049 9.21131 13.3567 9.25018C13.5769 9.43156 14.0174 9.71658 14.3413 9.84613C14.4579 9.89795 14.6393 9.96273 14.6393 9.96273C14.6393 9.96273 14.6263 9.43156 14.6263 8.91334C14.6134 8.65423 14.6263 8.38216 14.6263 8.38216ZM19.5624 8.58945C19.5753 8.73196 19.5365 9.00403 19.5365 9.02994C19.5235 9.10767 19.4587 9.302 19.4587 9.31496C19.4069 9.43156 19.3551 9.52224 19.3033 9.61293C19.2126 9.7684 19.0053 10.0275 18.8757 10.1312C18.4093 10.5328 17.6968 10.766 17.0749 10.8307C16.6604 10.8826 16.181 10.8696 15.7276 10.7919C15.5721 10.766 15.3518 10.7141 15.3518 10.7141C15.3518 10.7141 15.3518 10.8048 15.3389 10.8696C15.3389 10.8955 15.313 10.9733 15.3 10.9992C15.2741 11.0639 15.2093 11.1028 15.1446 11.1158C15.0539 11.1287 14.9502 11.1417 14.8725 11.1028C14.73 11.038 14.6782 10.9085 14.6523 10.766C14.6263 10.6494 14.6134 10.4291 14.6134 10.4291C14.6134 10.4291 14.5097 10.3773 14.4191 10.3384C14.147 10.2089 13.8879 10.0405 13.6676 9.87204C13.6029 9.82022 13.3438 9.59998 13.279 9.54816C13.1106 9.39269 12.968 9.23722 12.8514 9.02994C12.7608 8.87447 12.7348 8.73196 12.7996 8.56354C12.8903 8.33034 13.2272 8.16192 13.4474 8.05828C13.6158 7.98054 14.134 7.81212 14.3413 7.78621C14.445 7.77326 14.6004 7.74735 14.6134 7.73439C14.6134 7.73439 14.6263 7.73439 14.6263 7.72144C14.6263 7.70848 14.6393 7.48824 14.6393 7.39755C14.6393 7.31982 14.7041 6.77569 14.717 6.65909C14.73 6.59431 14.7689 6.36111 14.8207 6.29633C14.8466 6.25747 14.9114 6.25747 14.9502 6.28338C15.1964 6.43884 15.2741 6.97002 15.2871 7.24208C15.3 7.4105 15.3 7.65666 15.3 7.65666C15.3 7.65666 15.585 7.6437 15.7535 7.65666C15.9219 7.65666 16.1033 7.68257 16.2846 7.72144C16.5049 7.7603 16.9454 7.85099 17.1915 7.98054C17.3988 8.08419 17.5931 8.26556 17.6579 8.44694C17.7097 8.61536 17.7097 8.73196 17.6191 8.88743C17.5154 9.05585 17.334 9.1854 17.1397 9.19836C17.0879 9.19836 16.8676 9.17245 16.8029 9.12063C16.7769 9.09471 16.7769 9.0688 16.8029 9.04289C16.8158 9.02994 16.9065 8.97811 16.9713 8.9522C16.9972 8.93925 17.0231 8.91334 17.049 8.90038C17.1008 8.86152 17.1397 8.80969 17.1397 8.75787C17.1267 8.68014 17.062 8.64127 16.9842 8.61536C16.6474 8.48581 15.9608 8.36921 15.6239 8.3433C15.4944 8.33034 15.313 8.33034 15.313 8.33034L15.3518 10.1571C15.3518 10.1571 15.5073 10.183 15.6239 10.2089C15.6887 10.2218 15.9867 10.2477 16.0644 10.2477C16.6604 10.2607 17.3081 10.2089 17.8523 9.94978C18.0855 9.83318 18.3057 9.70362 18.4741 9.50929C18.6944 9.26313 18.811 8.91334 18.7721 8.56354C18.7332 8.17488 18.4612 7.70848 18.2409 7.42346C17.6579 6.685 16.6733 6.06314 15.7923 5.71334C14.8984 5.35058 14.0174 5.13034 13.0717 5.10443C12.8255 5.09147 12.2944 5.10443 12.0223 5.18216C11.9834 5.19512 11.9446 5.20807 11.9057 5.20807C11.8798 5.20807 11.828 5.23399 11.815 5.24694C11.8021 5.24694 11.8021 5.2599 11.8021 5.2599C11.8021 5.2599 11.815 5.27285 11.828 5.27285C11.8539 5.28581 11.9705 5.29876 12.0352 5.29876C12.0871 5.31172 12.1518 5.33763 12.1648 5.3765C12.1907 5.41536 12.1907 5.44127 12.1648 5.48014C12.1 5.55787 11.8798 5.54492 11.7761 5.53196C11.6725 5.51901 11.5429 5.48014 11.517 5.38945C11.4911 5.28581 11.5429 5.18216 11.5948 5.07852C11.7114 4.88419 11.8668 4.78054 12.1 4.71577C12.4239 4.62508 12.8514 4.5603 13.1624 4.54735C13.862 4.52143 14.5357 4.63803 15.2223 4.84532C15.611 4.96192 16.1292 5.15625 16.5049 5.33763C16.7769 5.46718 17.2045 5.70038 17.4377 5.8688C17.5154 5.92062 17.9559 6.24451 18.0207 6.29633C18.1632 6.41293 18.3446 6.58135 18.4871 6.71091C18.7462 6.97002 19.0701 7.37164 19.2255 7.68257C19.2644 7.7603 19.2903 7.83803 19.3421 7.91577C19.3551 7.94168 19.4328 8.12305 19.4458 8.17488C19.4587 8.2267 19.4717 8.30443 19.4717 8.30443C19.5365 8.38216 19.5624 8.53763 19.5624 8.58945ZM22.6069 8.73196C22.6199 8.73196 22.6199 8.73196 22.6328 8.73196C22.8531 8.75787 23.0604 8.79674 23.2288 8.87447C23.3842 8.93925 23.462 9.02994 23.5527 9.17245C23.6693 9.40565 23.6822 9.71658 23.5786 9.96273C23.5008 10.1441 23.3195 10.2866 23.151 10.3773C22.9826 10.455 22.8142 10.4939 22.6199 10.5198C22.283 10.5587 21.9073 10.4939 21.6093 10.3384C21.428 10.2478 21.2077 10.0923 21.0911 9.89795C21.0134 9.75544 21.0134 9.56111 21.117 9.43156C21.2725 9.21131 21.6223 9.17245 21.8684 9.17245C22.0628 9.1854 22.4126 9.23723 22.6069 9.302C22.6587 9.31496 22.8531 9.39269 22.879 9.43156C22.9049 9.45747 22.9178 9.48338 22.9049 9.52224C22.866 9.6518 22.5421 9.71658 22.4514 9.72953C22.2053 9.7684 22.0757 9.67771 21.8037 9.56111C21.7389 9.5352 21.6482 9.50929 21.5705 9.49633C21.4409 9.48338 21.2984 9.52224 21.2725 9.6518C21.2595 9.71658 21.3373 9.79431 21.4021 9.82022C21.5446 9.885 21.6741 9.91091 21.8166 9.91091C22.2442 9.92386 22.7365 9.84613 23.0863 9.59998C23.1381 9.56111 23.1769 9.50929 23.1769 9.45747C23.1769 9.44451 23.164 9.37974 23.1381 9.36678C23.1381 9.36678 23.1381 9.36678 23.1251 9.36678C23.1122 9.36678 23.0992 9.34087 23.0863 9.32791C23.0603 9.302 22.9567 9.25018 22.9437 9.25018C22.7106 9.14654 22.2701 9.10767 22.0369 9.08176C21.8037 9.05585 21.428 9.02994 21.3373 9.01698C21.2466 9.00403 21.1429 8.99107 21.0652 8.9522C20.9875 8.91334 20.9097 8.83561 20.8838 8.74492C20.845 8.5765 20.8968 8.38216 20.9875 8.25261C21.2207 7.91577 21.7778 7.78621 22.1923 7.73439C22.594 7.68257 23.2417 7.68257 23.6304 7.88986C23.6952 7.91577 23.7211 7.95463 23.7081 8.01941C23.6822 8.13601 23.5915 8.21374 23.4749 8.25261C23.3583 8.29148 23.1122 8.30443 23.0085 8.30443C22.5292 8.33034 21.9591 8.31739 21.5057 8.43398C21.4668 8.44694 21.415 8.4599 21.3891 8.48581C21.3243 8.56354 21.5186 8.58945 21.5575 8.58945C21.5705 8.58945 21.5705 8.58945 21.5834 8.58945L22.6069 8.73196ZM24.0838 10.4939C23.8895 10.4291 23.8506 10.1182 23.8377 9.96273C23.8118 9.45747 23.9413 8.74492 24.1097 8.26556C24.1616 8.12305 24.2263 7.90281 24.3818 7.91577C24.4855 7.92872 24.5632 8.00645 24.615 8.08419C24.7705 8.29147 24.9648 8.5765 25.0944 8.78378C25.2369 9.00403 25.3794 9.23723 25.5219 9.43156C25.5348 9.45747 25.5608 9.48338 25.5737 9.49633C25.5996 9.52225 25.6255 9.52225 25.6255 9.49633C25.6255 9.48338 25.6255 9.23722 25.6126 9.1854C25.5996 9.10767 25.5996 9.04289 25.5867 8.96516C25.5608 8.75787 25.496 8.47285 25.4442 8.27852C25.3923 8.05828 25.3146 7.83803 25.2628 7.61779C25.2498 7.55301 25.2369 7.47528 25.2369 7.4105C25.2369 7.31982 25.3016 7.26799 25.3923 7.2939C25.5867 7.35868 25.8458 7.78621 25.9235 7.92872C25.9494 7.98054 26.0531 8.2267 26.079 8.30443C26.1567 8.55058 26.2085 8.77083 26.2344 9.04289C26.2603 9.302 26.2344 9.67771 26.1308 9.92386C26.0919 10.0146 26.0142 10.1441 25.9365 10.2089C25.8328 10.3125 25.6126 10.3903 25.4701 10.2996C25.3146 10.2089 25.0425 9.75544 25.0037 9.67771C24.8482 9.40565 24.5891 8.88743 24.5502 8.83561C24.5373 8.82265 24.5243 8.80969 24.5114 8.80969C24.4984 8.80969 24.4855 8.8356 24.4855 8.86152C24.4595 9.01698 24.4466 9.71658 24.4466 9.74249C24.4466 9.85909 24.4336 10.1571 24.4077 10.2996C24.3818 10.3903 24.3689 10.468 24.2782 10.5069C24.2004 10.5328 24.1616 10.5198 24.0838 10.4939ZM26.7138 10.455C26.6879 10.4421 26.662 10.4032 26.6361 10.3773C26.6361 10.3773 26.5583 10.2737 26.5454 10.2348C26.5324 10.2089 26.5195 10.183 26.5195 10.17C26.4547 10.0016 26.4547 9.84613 26.4935 9.67771C26.5324 9.50929 26.5583 9.50929 26.6361 9.28905C26.6361 9.27609 26.649 9.26313 26.649 9.25018C26.649 9.22427 26.5972 9.01698 26.5972 8.9522C26.5972 8.84856 26.6749 8.78378 26.8045 8.77083C26.8174 8.77083 26.8304 8.77083 26.8304 8.77083C26.8822 8.75787 26.9211 8.65423 26.947 8.5765C26.9859 8.4599 27.0506 8.29148 27.0506 8.29148C27.0506 8.29148 26.8822 8.25261 26.7915 8.2267C26.6879 8.18783 26.6231 8.13601 26.5713 8.04532C26.5195 7.94168 26.5583 7.8769 26.662 7.85099C26.7008 7.83803 27.0247 7.77326 27.1284 7.7603C27.2579 7.74735 27.3745 7.72144 27.4911 7.70848C27.5948 7.69552 28.0741 7.6437 28.2296 7.6437C28.4628 7.65666 28.6182 7.74735 28.7478 7.94168C28.8255 8.04532 28.8644 8.17488 28.7608 8.23965C28.5923 8.3433 28.0482 8.35625 27.9446 8.35625C27.7891 8.35625 27.5689 8.35625 27.5689 8.35625L27.4523 8.73196C27.4523 8.73196 27.8409 8.73196 28.0612 8.73196C28.113 8.73196 28.1648 8.73196 28.2037 8.74492C28.3203 8.77083 28.3591 8.86152 28.3591 8.97812C28.3591 9.12063 28.3332 9.19836 28.2166 9.21131C28.1518 9.22427 27.4782 9.22427 27.3875 9.23723C27.3357 9.25018 27.2709 9.25018 27.2709 9.25018C27.2709 9.25018 27.2191 9.37973 27.1802 9.50929C27.1413 9.63884 27.1025 9.78135 27.1025 9.78135C27.1025 9.78135 27.1413 9.78135 27.1672 9.78135C27.2191 9.78135 27.2579 9.78135 27.2968 9.7684C27.5041 9.72953 27.815 9.69067 28.0612 9.6518C28.1907 9.62589 28.2684 9.62589 28.3332 9.71658C28.398 9.79431 28.4239 9.85909 28.4369 9.96273C28.4369 10.0534 28.3721 10.1182 28.2814 10.183C28.0223 10.3903 27.5559 10.6105 27.2191 10.6494C27.0636 10.6623 27.0247 10.6494 26.8822 10.6105C26.8563 10.5975 26.7656 10.5587 26.7656 10.5587C26.7915 10.5069 26.7397 10.468 26.7138 10.455ZM30.9891 8.5765C30.8207 8.71901 30.5875 9.01698 30.4838 9.17245C30.3413 9.37974 30.2118 9.61293 30.0822 9.79431C30.0563 9.83318 29.9656 9.97569 29.9786 9.98864C29.9786 10.0016 30.0693 10.0016 30.1599 9.97569C30.3413 9.94978 30.5875 9.82022 30.73 9.70362C30.9373 9.5352 31.0798 9.31496 31.1446 9.05585C31.1705 8.93925 31.1834 8.69309 31.1057 8.5765C31.0668 8.56354 31.015 8.55058 30.9891 8.5765ZM29.6029 10.7141C29.6029 10.7141 29.551 10.8826 29.5122 10.9992C29.4474 11.2194 29.2919 11.8024 29.2531 11.9967C29.2012 12.2688 29.0458 12.9814 29.0458 12.9943C29.0328 13.0202 29.0328 13.0202 29.0069 13.0332C28.9421 13.072 28.9162 13.0591 28.8385 13.0202C28.7348 12.9684 28.6571 12.9166 28.5794 12.8129C28.4369 12.6186 28.4628 12.2558 28.5016 12.0486C28.6053 11.2971 28.7089 10.9733 28.994 10.2348C28.994 10.2218 28.994 10.2218 28.994 10.2089C28.9033 10.0146 28.8514 9.79431 28.8514 9.61293C28.8514 9.02994 29.1883 8.4599 29.564 7.9935C29.5899 7.95463 29.7713 7.73439 29.862 7.74735C29.9397 7.74735 29.9656 7.85099 29.9527 7.92872C29.9138 8.20079 29.7195 8.47285 29.5899 8.69309C29.4474 8.9522 29.4085 9.05585 29.3438 9.28905C29.3308 9.32791 29.3049 9.49633 29.3049 9.52224C29.3049 9.58702 29.3178 9.66475 29.3178 9.66475C29.3178 9.66475 29.551 9.32791 29.7065 9.13358C29.7972 9.01698 29.849 8.9522 29.9267 8.86152C30.0045 8.78378 30.2765 8.48581 30.3543 8.42103C30.5227 8.26556 30.6004 8.20079 30.7818 8.09714C30.9243 8.01941 31.0539 8.00646 31.1964 8.09714C31.4166 8.23965 31.5203 8.55058 31.5462 8.79674C31.5721 9.09471 31.5203 9.43156 31.3778 9.69067C31.2223 10.0016 31.002 10.2218 30.717 10.4032C30.4191 10.5975 30.0693 10.7401 29.7324 10.7271C29.6547 10.7141 29.6029 10.7141 29.6029 10.7141Z" fill="black"/>
</g>
<defs>
<clipPath id="clip0_4_76">
<rect width="31.0243" height="16" fill="white" transform="translate(0.52832)"/>
</clipPath>
</defs>
</svg>
