<svg width="41" height="16" viewBox="0 0 41 16" fill="none" xmlns="http://www.w3.org/2000/svg">
<g clip-path="url(#clip0_795_1333)">
<g clip-path="url(#clip1_795_1333)">
<path fill-rule="evenodd" clip-rule="evenodd" d="M23.5767 6.16458L23.5754 6.16395C23.7254 6.00017 23.8916 5.82623 24.0655 5.65887C23.8539 5.5557 23.6584 5.43876 23.4693 5.32563C23.0595 5.08049 22.6797 4.85325 22.2301 4.82284C21.8814 4.80126 21.5323 4.85896 21.2091 4.99161C21.2091 4.99161 21.0343 4.75437 20.4962 4.83125C19.958 4.90813 18.3004 5.60062 16.8878 7.85887C15.6109 9.90031 16.2109 11.0709 17.128 11.0582C18.122 11.0444 19.0674 9.93934 19.3881 9.02824C19.7088 8.11713 19.3304 7.87028 19.0397 7.8937C18.7184 7.92073 18.1509 8.20662 17.8386 8.83845C17.5262 9.47028 17.5262 9.85947 17.5262 9.85947C17.6539 9.72554 17.7927 9.60277 17.9413 9.4925C18.0749 9.38809 18.2222 9.30243 18.3791 9.23783C18.4158 9.07457 18.4704 8.91588 18.5418 8.76456C18.6548 8.52915 18.8337 8.28409 19.0548 8.22884C19.5034 8.11652 19.2884 8.93454 18.9587 9.46787C18.7815 9.75255 18.1527 10.576 17.6127 10.576C17.0728 10.576 16.9695 10.0558 17.083 9.56756C17.1965 9.07927 17.3544 8.46188 18.1437 7.33755C18.9329 6.21323 19.7863 5.54656 20.2806 5.26728C20.7881 4.9796 20.9947 5.10572 20.9947 5.10572C20.9947 5.10572 20.3467 5.50332 19.9779 5.9838C19.6259 6.44266 19.4151 6.95857 19.5785 7.21142C19.7346 7.45226 20.283 7.45707 20.8878 6.585C21.4848 5.72374 21.3346 5.21143 21.3346 5.21143C21.3739 5.19865 21.4141 5.18862 21.4547 5.1814C21.746 5.14236 21.9791 5.21984 22.3394 5.40482C22.5152 5.49507 22.6877 5.61065 22.8719 5.73412C23.0834 5.87582 23.3104 6.02793 23.5754 6.16395L23.5749 6.16458H23.5767ZM21.1304 5.2781C21.1304 5.2781 20.746 5.43125 20.2992 5.92374C19.8524 6.41623 19.5917 6.97058 19.7845 7.11713C19.8584 7.17298 20.0289 7.18259 20.3388 6.90391C20.6246 6.65573 20.8489 6.34469 20.9941 5.99521C21.1827 5.53539 21.1368 5.30996 21.131 5.28117C21.1306 5.27943 21.1304 5.2784 21.1304 5.2781Z" fill="black"/>
<path d="M24.3555 6.44355L24.3552 6.44386C25.405 6.65167 26.3245 6.00122 26.8134 5.44747C26.9918 5.2493 27.1453 5.03006 27.2705 4.79462C27.0478 5.02642 26.7987 5.23123 26.5282 5.40483L26.5251 5.40422C26.0699 5.69612 25.4399 5.96098 24.8345 5.90272C24.6813 6.06128 24.5174 6.24446 24.354 6.44326L24.3555 6.44355Z" fill="black"/>
<path fill-rule="evenodd" clip-rule="evenodd" d="M24.7249 10.1748C24.6378 10.3141 24.5387 10.5814 24.8264 10.415C25.1765 10.2126 25.6756 9.45403 25.6756 9.45403H25.9014C25.6956 9.77105 25.4664 10.0722 25.2156 10.3549C24.8606 10.7483 24.4276 11.1057 24.1225 11.0702C23.7663 11.0288 23.878 10.5609 23.878 10.5609C23.878 10.5609 23.3663 11.1015 23.015 11.0648C22.5387 11.012 22.684 10.4234 22.684 10.4234C22.684 10.4234 22.1435 11.0841 21.7783 11.0642C21.2029 11.0312 21.3477 10.3291 21.5075 9.83781C21.5934 9.57416 21.6726 9.36695 21.6726 9.36695C21.6726 9.36695 21.6156 9.38197 21.4924 9.39997C21.4282 9.40898 21.3123 9.4156 21.3123 9.4156C21.1802 9.64848 21.0363 9.87437 20.881 10.0925C20.6895 10.3471 19.8756 11.2222 19.3951 11.0468C18.9519 10.8847 19.0984 10.206 19.3567 9.66545C19.7333 8.87927 20.7927 7.74954 21.4036 7.89789C22.0372 8.05165 21.418 9.2072 21.418 9.2072C21.418 9.2072 21.418 9.21138 21.4246 9.2144C21.4646 9.22161 21.5057 9.21936 21.5447 9.20778C21.6239 9.19177 21.7015 9.16865 21.7765 9.13871C21.7765 9.13871 22.4132 7.8054 23.1165 6.93333C23.8198 6.06126 25.2246 4.56096 25.7753 4.92433C25.9098 5.01381 25.8486 5.32132 25.6672 5.69489C25.5855 5.72074 25.5025 5.74239 25.4186 5.75976C25.5191 5.59294 25.5952 5.41251 25.6444 5.22402C25.7273 4.77357 24.675 5.72312 23.9231 6.74534C23.4708 7.36115 23.0691 8.01251 22.7219 8.69309C22.8577 8.61052 22.9874 8.51816 23.1099 8.41681C23.4453 8.13863 23.7642 7.84101 24.0648 7.52552C24.3533 7.22834 24.6238 6.91427 24.875 6.58498C24.9555 6.5812 25.0357 6.57298 25.1153 6.56036C24.8404 6.93315 24.5408 7.2871 24.2186 7.61981C24.192 7.64636 24.1653 7.67313 24.1384 7.70004C23.8612 7.97759 23.569 8.27027 23.3117 8.48707C23.0604 8.70197 22.7954 8.90021 22.5183 9.08047C22.5183 9.08047 21.8576 10.4066 22.218 10.4919C22.4282 10.5423 22.8438 9.9027 22.8438 9.9027C22.8438 9.9027 23.3843 9.07565 23.7123 8.70148C24.1555 8.19699 24.5393 7.9063 24.9207 7.89849C25.1441 7.89429 25.2756 8.13271 25.2756 8.13271L25.3807 7.96996H26.0276C26.0276 7.96996 24.8197 10.0192 24.7231 10.1735L24.7249 10.1748ZM25.1303 8.36214C25.1382 8.34822 25.1446 8.33352 25.1495 8.31832C25.1464 8.29429 25.1352 8.27207 25.1177 8.25535C25.1002 8.23863 25.0775 8.22841 25.0534 8.22641C24.9537 8.22162 24.8168 8.24082 24.4594 8.63663C24.1624 8.96436 23.9071 9.32746 23.6991 9.71771C23.4942 10.0919 23.4114 10.3705 23.5291 10.4426C23.5672 10.4622 23.6114 10.4667 23.6528 10.4552C23.7327 10.436 23.8228 10.3615 23.9603 10.2024C24.0118 10.1427 24.0678 10.0631 24.132 9.972L24.1326 9.97113C24.1483 9.94878 24.1646 9.92569 24.1813 9.90209C24.418 9.58018 25.0126 8.56637 25.1303 8.36156V8.36214ZM21.415 8.79216C21.475 8.63602 21.5507 8.32973 21.3927 8.2096C21.2228 8.08168 20.7922 8.38137 20.7879 8.69007C20.7837 8.9988 21.0925 9.14713 21.1663 9.16694C21.2084 9.17836 21.2228 9.17656 21.2432 9.14292C21.3085 9.03054 21.3659 8.91375 21.415 8.79339V8.79216ZM21.0876 9.36576C20.9804 9.31618 20.8804 9.25235 20.7904 9.17598C20.6996 9.10022 20.6237 9.00838 20.5663 8.9051C20.5613 8.89664 20.5564 8.90217 20.5511 8.90805C20.55 8.90931 20.5488 8.91056 20.5477 8.91169C20.5409 8.91847 20.514 8.94539 20.2835 9.28286C20.0516 9.6222 19.6985 10.3213 20.0192 10.4408C20.2246 10.5171 20.5663 10.1573 20.7537 9.91891C20.8806 9.7526 20.9955 9.5776 21.0979 9.39518C21.1075 9.37476 21.0979 9.36994 21.0876 9.36576Z" fill="black"/>
<path d="M17.4466 6.41022H16.8316L16.4839 6.97238H17.0989L17.4466 6.41022Z" fill="black"/>
<path fill-rule="evenodd" clip-rule="evenodd" d="M16.0027 7.94834H16.2261C16.2261 7.94834 15.097 9.58018 14.4586 9.5057C14.1024 9.46425 14.2081 9.0252 14.2081 9.0252C14.2081 9.0252 13.7066 9.61079 13.2472 9.49368C12.8303 9.38676 13.0994 8.69428 13.0994 8.69428C13.0923 8.69714 13.0661 8.72232 13.0245 8.76226C12.7883 8.98928 12.0557 9.69324 11.5168 9.48586C10.8562 9.23003 11.1979 8.37896 11.324 8.1231C11.4309 7.9075 11.5493 7.69729 11.5493 7.69729C11.5493 7.69729 11.4477 7.72612 11.3841 7.74053C11.3204 7.75494 11.2249 7.77356 11.2249 7.77356C11.2249 7.77356 10.9114 8.28346 10.7198 8.53752C10.5282 8.79159 9.71322 9.66606 9.23332 9.49188C8.75346 9.31769 8.87299 8.64624 9.14203 8.11049C9.57929 7.24564 10.6171 6.18258 11.2441 6.34234C11.8712 6.5021 11.3528 7.52732 11.3528 7.52732C11.3528 7.52732 11.4784 7.54353 11.7793 7.33813C11.9035 7.25356 12.039 7.12807 12.1836 6.99418C12.5441 6.66024 12.961 6.27408 13.4009 6.34053C13.6916 6.38438 13.9625 6.68288 13.5919 7.24924C13.4718 7.42942 13.2742 7.59398 13.1216 7.43302C13.0267 7.33393 13.1096 7.15074 13.2093 7.02582C13.2483 6.97491 13.2992 6.93437 13.3575 6.90777C13.4158 6.88116 13.4798 6.86932 13.5438 6.87327C13.5438 6.87327 13.6459 6.63843 13.3859 6.64324C13.1751 6.64744 12.6417 7.13813 12.3408 7.63422C12.0682 8.09129 11.6507 8.86725 12.0682 9.03661C12.4532 9.19218 13.1859 8.32249 13.5252 7.86666C13.8645 7.4108 14.6369 6.37777 15.2856 6.33633C15.509 6.32192 15.6417 6.52552 15.6417 6.52552L15.7168 6.4054H16.3642C16.3642 6.4054 15.145 8.44684 15.0495 8.6C14.9745 8.7201 14.8748 8.99217 15.151 8.84024C15.4273 8.68827 16.0027 7.94834 16.0027 7.94834ZM14.5342 8.35494C14.7961 7.99459 15.518 6.73933 15.518 6.73933C15.5149 6.71533 15.5037 6.69311 15.4862 6.67639C15.4687 6.65966 15.446 6.64944 15.4219 6.64744C15.3222 6.64264 15.1564 6.67627 14.8213 7.09068C14.4862 7.5051 14.2363 7.83483 14.0501 8.17776C13.8447 8.55193 13.7552 8.81622 13.873 8.88767C13.9112 8.90702 13.9553 8.91149 13.9967 8.90027C14.0736 8.88107 14.1739 8.80419 14.3114 8.64563C14.3763 8.57177 14.4495 8.47205 14.5354 8.35494H14.5342ZM11.2351 6.65525C11.0651 6.52672 10.6346 6.82702 10.6303 7.13573C10.6261 7.44444 11.0207 7.54053 11.0718 7.54293C11.0832 7.54594 11.0952 7.54509 11.1061 7.54053C11.117 7.53597 11.126 7.52795 11.1318 7.51771C11.178 7.42722 11.2195 7.3344 11.2562 7.23963C11.3162 7.08348 11.3913 6.77717 11.2333 6.65705L11.2351 6.65525ZM10.9769 7.73813C10.8597 7.70148 10.7477 7.65002 10.6436 7.58498C10.542 7.51938 10.4592 7.42853 10.4033 7.32131C10.3981 7.31241 10.3924 7.31903 10.387 7.32525C10.3862 7.32616 10.3855 7.32707 10.3847 7.32792C10.3787 7.33453 10.3439 7.38017 10.1126 7.71951C9.88139 8.05885 9.53845 8.75313 9.85975 8.87207C10.0652 8.94835 10.4105 8.58736 10.5973 8.34893C10.7381 8.16284 10.8682 7.96892 10.9871 7.76816C10.9949 7.74774 10.9871 7.74293 10.9757 7.73933L10.9769 7.73813Z" fill="black"/>
<path d="M15.6496 11.2156C15.172 10.885 14.6001 10.7181 14.0196 10.7399C13.8625 10.7442 13.7086 10.7854 13.5704 10.8604C13.4322 10.9353 13.3137 11.0418 13.2244 11.1712C12.977 10.7393 12.4881 10.4745 11.732 10.4805C11.0917 10.4877 10.454 10.6459 9.85393 10.7947C9.30898 10.9299 8.79507 11.0573 8.33858 11.057C7.41725 11.057 6.74638 10.4781 6.7686 9.45044C6.80825 7.64865 8.33016 6.02703 9.47131 5.2955C10.1254 4.87509 10.6725 4.75136 11.0329 4.7916C11.2941 4.82043 11.6082 5.12253 11.41 5.56757C11.1187 6.21923 10.7163 6.16457 10.7314 5.85346C10.7376 5.7723 10.763 5.69378 10.8055 5.62435C10.848 5.55492 10.9064 5.49656 10.9758 5.45406C11.0495 5.41396 11.1322 5.39329 11.2161 5.394C11.2761 5.34535 11.3175 4.9892 10.8491 5.10632C10.3806 5.22343 9.81004 5.68409 9.27191 6.27868C8.73378 6.87328 7.89653 7.9964 7.68932 9.17599C7.59263 9.72312 7.65688 10.7207 8.95057 10.7099C9.44938 10.7058 10.0562 10.5545 10.7097 10.3915C11.4954 10.1956 12.3485 9.98294 13.162 9.98918C13.6809 9.98699 14.1905 10.1265 14.6358 10.3928C15.0214 10.633 15.4833 10.9766 15.6473 11.2132L15.6496 11.2156Z" fill="black"/>
<path d="M3.86279 8.87928H5.16128L5.11864 8.58377H4.20033V8.22343H4.81895V7.92312H4.20033V7.61681H5.10121L5.14446 7.32132H3.8634L3.86279 8.87928Z" fill="black"/>
<path d="M1.94092 8.87929H2.27846V8.19038H3.07365V8.87868H3.41238V7.32613H3.07425V7.88889H2.27846V7.32553H1.94272L1.94092 8.87929Z" fill="black"/>
<path d="M0.236328 7.62882H0.754044V8.87748H1.09278V7.62882H1.6105V7.32492H0.236328V7.62882Z" fill="black"/>
<path d="M39.8633 7.32973H40.2363L39.6218 8.36036V8.88228H39.2832V8.36698L38.6626 7.32913H39.044L39.4556 8.05587L39.8633 7.32973Z" fill="black"/>
<path d="M38.0669 8.38076V7.32972L38.3968 7.32791V8.88046H38.0563L37.3026 7.81079V8.88046H36.9727V7.32791H37.3235L38.0669 8.38076Z" fill="black"/>
<path fill-rule="evenodd" clip-rule="evenodd" d="M36.6758 8.88109H36.3195L36.1902 8.53454H35.5085L35.3796 8.87929H35.0259L35.6439 7.32733H36.06L36.6758 8.88109ZM35.8516 7.62703L35.6192 8.24263L36.0822 8.24205L35.8516 7.62703Z" fill="black"/>
<path fill-rule="evenodd" clip-rule="evenodd" d="M33.6787 7.32672H34.4771C34.5807 7.32337 34.6839 7.34522 34.7775 7.39038C34.8553 7.42893 34.9196 7.49004 34.9624 7.56576C35.0035 7.64359 35.0251 7.73028 35.0251 7.81831C35.0251 7.90634 35.0035 7.99303 34.9624 8.07085C34.9193 8.14667 34.855 8.20809 34.7775 8.24745C34.6839 8.29282 34.581 8.31488 34.4771 8.31169H34.0176V8.87867H33.6787V7.32672ZM34.0199 8.012H34.471C34.5279 8.0157 34.5839 7.99744 34.6276 7.96095C34.664 7.92225 34.6839 7.87126 34.6839 7.81831C34.6839 7.76536 34.664 7.71437 34.6276 7.67567C34.5833 7.64016 34.5273 7.62239 34.4704 7.62582H34.0199V8.012Z" fill="black"/>
<path d="M32.7739 7.32672H33.2286L33.2289 8.87986H32.9012V7.73873L32.4244 8.85584H32.1978L31.7264 7.76696V8.87748H31.3984V7.32672H31.8531L32.3179 8.40781L32.7739 7.32672Z" fill="black"/>
<path d="M30.2 8.59828C30.1999 8.59828 30.2 8.59838 30.2 8.59828Z" fill="black"/>
<path fill-rule="evenodd" clip-rule="evenodd" d="M30.6277 8.8024C30.4959 8.87188 30.3486 8.907 30.1995 8.90449L30.1977 8.9051C30.0487 8.90745 29.9014 8.87233 29.7695 8.80301C29.6464 8.73718 29.5442 8.63811 29.4746 8.51711C29.4045 8.38958 29.3677 8.24642 29.3677 8.10088C29.3677 7.95536 29.4045 7.81219 29.4746 7.68468C29.5444 7.56364 29.6468 7.4646 29.7701 7.39879C29.9028 7.33147 30.0495 7.29639 30.1983 7.29639C30.3471 7.29639 30.4938 7.33147 30.6265 7.39879C30.7516 7.46388 30.8557 7.56298 30.9269 7.68468C30.9968 7.81215 31.0334 7.9552 31.0334 8.10059C31.0334 8.24597 30.9968 8.38903 30.9269 8.5165C30.856 8.63805 30.7523 8.73712 30.6277 8.8024ZM29.9533 8.53454C30.0282 8.57753 30.1134 8.59952 30.1998 8.59821C30.2863 8.6001 30.3716 8.57804 30.4463 8.53454C30.5184 8.49296 30.5773 8.43199 30.6163 8.35855C30.6566 8.27864 30.6776 8.1904 30.6776 8.10088C30.6776 8.01139 30.6566 7.92315 30.6163 7.84324C30.5777 7.76922 30.5187 7.70775 30.4463 7.66606C30.3709 7.62452 30.2862 7.60275 30.2001 7.60275C30.114 7.60275 30.0293 7.62452 29.9539 7.66606C29.8818 7.70662 29.8225 7.76653 29.7827 7.83903C29.741 7.91837 29.7203 8.00708 29.7226 8.0967C29.7207 8.18626 29.7413 8.27488 29.7827 8.35433C29.8215 8.42926 29.8806 8.4917 29.9533 8.53454Z" fill="black"/>
<path d="M28.9227 8.84502C28.8089 8.88609 28.6887 8.90641 28.5678 8.90509L28.5696 8.90689C28.4127 8.90966 28.2575 8.87355 28.1179 8.80177C27.9893 8.73566 27.8814 8.63537 27.8061 8.51192C27.7308 8.38851 27.6909 8.2467 27.6909 8.10209C27.6909 7.95748 27.7308 7.81568 27.8061 7.69224C27.8814 7.56881 27.9893 7.46851 28.1179 7.40239C28.2558 7.33136 28.4091 7.29546 28.5642 7.29789C28.6852 7.29572 28.8055 7.31609 28.9191 7.35794C29.0219 7.3955 29.1134 7.45853 29.1852 7.54113L28.9744 7.77536C28.9207 7.71921 28.8566 7.67395 28.7858 7.64203C28.7185 7.6138 28.6461 7.5995 28.5732 7.59999C28.4795 7.59874 28.3871 7.62149 28.3047 7.66605C28.2268 7.70805 28.1616 7.77029 28.1161 7.84623C28.0686 7.92281 28.0438 8.01135 28.0446 8.10148C28.0434 8.19033 28.0668 8.27779 28.1123 8.35413C28.1578 8.43047 28.2235 8.49272 28.3023 8.53392C28.3861 8.57884 28.4799 8.6016 28.575 8.6C28.6509 8.60125 28.7263 8.58681 28.7963 8.55755C28.8664 8.52832 28.9297 8.48488 28.9822 8.43002L29.1936 8.66064C29.1206 8.74434 29.0274 8.80782 28.9227 8.84502Z" fill="black"/>
</g>
</g>
<defs>
<clipPath id="clip0_795_1333">
<rect width="40" height="16" fill="white" transform="translate(0.236328)"/>
</clipPath>
<clipPath id="clip1_795_1333">
<rect width="40" height="6.43118" fill="white" transform="translate(0.236328 4.78442)"/>
</clipPath>
</defs>
</svg>
