<svg width="41" height="16" viewBox="0 0 41 16" fill="none" xmlns="http://www.w3.org/2000/svg">
<g clip-path="url(#clip0_2_7175)">
<g clip-path="url(#clip1_2_7175)">
<path d="M3.90222 5.73106H3.90284C4.12971 4.93793 5.11832 4.55078 6.12577 4.55078C6.82193 4.55078 7.44688 4.77117 7.8753 5.12105C7.61962 5.13311 7.36718 5.18328 7.12633 5.2699C7.47251 5.39857 7.76988 5.59652 7.99027 5.84141C7.824 5.81279 7.6554 5.80004 7.48671 5.80332C7.9013 6.40389 8.1228 7.11664 8.12163 7.84642C8.12163 9.83619 6.50859 11.4492 4.51882 11.4492C2.55972 11.4492 0.916016 9.80891 0.916016 7.84642C0.916016 7.53647 0.957191 7.21644 1.03717 6.91628C1.05817 6.85328 1.08741 6.79286 1.12621 6.77072C1.1748 6.74303 1.21906 6.82559 1.22617 6.85246C1.27885 7.04979 1.34973 7.2418 1.43791 7.42602C1.43019 7.01468 1.6059 6.63999 1.8476 6.31595C2.0088 6.09988 2.15826 5.89967 2.22723 5.32188C2.23186 5.28308 2.26861 5.25518 2.30577 5.26733C2.83034 5.43903 3.11074 6.31255 3.0672 7.04299C3.35696 7.08448 3.35563 6.78174 3.35563 6.78174C3.26298 6.49701 3.32474 5.96781 3.90119 5.73106H3.90222Z" fill="url(#paint0_linear_2_7175)"/>
<path opacity="0.9" d="M8.00365 6.92871C8.09125 8.91025 6.46226 10.6187 4.47588 10.6187C2.61632 10.6187 1.09255 9.18139 0.95472 7.35714C0.930129 7.52797 0.917197 7.70027 0.916016 7.87285C0.930118 9.82475 2.5698 11.449 4.51881 11.449C6.50858 11.449 8.12161 9.83597 8.12161 7.84619C8.12161 7.52914 8.08054 7.22167 8.00365 6.92871Z" fill="url(#paint1_radial_2_7175)"/>
<path style="mix-blend-mode:screen" d="M4.43124 5.99365C4.39244 5.92499 4.21322 5.82339 4.13489 5.80569C4.43135 4.85609 5.94165 4.56457 6.86603 4.73257C7.2507 4.80257 7.72977 5.01215 7.87553 5.12105C7.44711 4.77117 6.82206 4.55078 6.126 4.55078C5.11855 4.55078 4.12995 4.93793 3.90307 5.73106H3.90142C3.32498 5.96781 3.26321 6.49722 3.35586 6.78184C3.4448 6.44225 3.86797 6.02494 4.43124 5.99365Z" fill="url(#paint2_radial_2_7175)"/>
<path d="M5.47787 5.33789C4.66857 5.49713 4.40413 5.54922 4.1333 5.80666C4.43748 5.00139 5.21394 4.83813 6.13913 5.2052C5.91894 5.2506 5.69851 5.29486 5.47787 5.33799V5.33789Z" fill="url(#paint3_linear_2_7175)"/>
<path d="M1.11181 6.80623C0.890702 7.71146 1.06158 8.77542 2.06603 9.66829C1.767 9.34126 1.40189 8.13381 2.20757 7.2712C2.26182 7.21304 2.35518 7.25575 2.35817 7.33522C2.42456 9.12798 3.87114 10.2229 5.53892 10.0182C5.02218 9.98915 3.31322 9.39057 4.58449 9.15381C5.24895 9.02998 6.29078 8.83594 6.29078 7.90107C6.29078 6.38563 5.11904 5.94259 4.40847 6.00846C3.92219 6.05355 3.48934 6.36216 3.35614 6.78183C3.4073 6.94725 3.20338 7.06306 3.0674 7.0436C3.11105 6.31326 2.83065 5.43922 2.30598 5.26752C2.26892 5.25538 2.23207 5.28327 2.22744 5.32208C2.15847 5.89987 2.009 6.10008 1.84791 6.31614C1.60612 6.64029 1.4304 7.01488 1.43812 7.42622C1.34995 7.24199 1.27906 7.04998 1.22638 6.85265C1.22051 6.83042 1.18829 6.76835 1.14938 6.76546C1.12828 6.76392 1.11706 6.78451 1.11181 6.80623Z" fill="url(#paint4_radial_2_7175)"/>
<path style="mix-blend-mode:screen" d="M4.1377 9.24533C5.11601 10.0397 7.08345 9.44411 7.08345 7.5127C6.28919 8.71665 5.27752 9.54715 4.1378 9.24533H4.1377Z" fill="url(#paint5_linear_2_7175)"/>
<path style="mix-blend-mode:screen" d="M2.20742 7.27078C2.21632 7.26083 2.22753 7.25322 2.24006 7.24862C2.25258 7.24403 2.26606 7.24259 2.27927 7.24443C1.5581 8.12403 2.13981 9.66881 2.539 10.0483C2.56133 10.1115 2.16028 9.78286 2.105 9.70597C1.80134 9.44832 1.36612 8.17159 2.20742 7.27078Z" fill="url(#paint6_linear_2_7175)"/>
<path d="M4.51893 9.31825C5.49745 9.31825 6.29079 8.67099 6.29079 7.87251C6.29079 7.07403 5.49745 6.42676 4.51893 6.42676C3.68411 6.42676 2.74666 6.96985 2.74707 7.89361C2.74748 9.32104 4.25551 10.1423 5.54099 10.0179C5.44444 10.0067 4.84205 9.97469 4.43493 9.51415C4.39818 9.47267 4.33446 9.4002 4.36339 9.35316C4.39221 9.30612 4.47168 9.31816 4.51883 9.31816L4.51893 9.31825Z" fill="url(#paint7_linear_2_7175)"/>
<path opacity="0.6" d="M6.0979 7.21527L4.69755 8.55531C4.5733 8.64363 4.44103 8.65001 4.3105 8.56993L2.93701 7.22021C2.9762 7.15724 3.02026 7.09742 3.06877 7.04131L3.21288 7.17616C3.57358 7.5142 3.8652 7.78729 4.27622 8.1381C4.46172 8.29642 4.51936 8.29333 4.70136 8.1381C5.17157 7.73665 5.51549 7.43298 5.96254 7.03369C6.01237 7.09057 6.0576 7.15133 6.0978 7.21538L6.0979 7.21527Z" fill="white"/>
<mask id="mask0_2_7175" style="mask-type:luminance" maskUnits="userSpaceOnUse" x="2" y="7" width="5" height="4">
<path d="M6.29081 7.87233C6.29081 8.67081 5.49747 9.31808 4.51895 9.31808C4.4717 9.31808 4.39234 9.30593 4.36341 9.35308C4.33449 9.40002 4.3982 9.47249 4.43495 9.51397C4.81747 9.94672 5.3724 10.0012 5.51806 10.0155L5.54101 10.0177C4.25553 10.1421 2.7475 9.32086 2.74709 7.89343C2.74574 7.65576 2.81189 7.4226 2.93783 7.22104L4.31802 8.47461C4.41622 8.56376 4.58164 8.56376 4.67984 8.47461L6.08617 7.19727C6.2169 7.39882 6.29081 7.62857 6.29081 7.87233Z" fill="white"/>
</mask>
<g mask="url(#mask0_2_7175)">
<path opacity="0.7" d="M2.33691 6.20508H6.8154V10.2656H2.33691V6.20508Z" fill="url(#paint8_linear_2_7175)"/>
<g filter="url(#filter0_f_2_7175)">
<path fill-rule="evenodd" clip-rule="evenodd" d="M4.10787 8.48303C3.84693 8.21148 3.06543 7.30924 3.06543 7.30924L3.12585 7.31191L4.34936 8.22569C4.44098 8.29229 4.57171 8.29157 4.6625 8.22414L5.86223 7.31315L5.92585 7.30811C5.92585 7.30811 5.16988 8.18894 4.88032 8.47912C4.59075 8.7693 4.36882 8.75458 4.10787 8.48303Z" fill="#458FCD"/>
</g>
</g>
<path d="M4.76742 5.70355C4.95703 5.64384 4.94035 5.45619 4.94035 5.45619C4.94035 5.45619 4.84555 5.3445 4.65769 5.40637C4.48187 5.46432 4.45459 5.5896 4.45459 5.5896C4.45459 5.5896 4.55063 5.77179 4.76742 5.70355Z" fill="white"/>
<path d="M34.5009 6.18311C34.4013 6.18311 34.3156 6.21913 34.2435 6.29119C34.1749 6.35982 34.1406 6.44217 34.1406 6.53824C34.1406 6.63432 34.1749 6.71838 34.2435 6.79043C34.3156 6.86249 34.4013 6.89852 34.5009 6.89852C34.5969 6.89852 34.6793 6.86249 34.7479 6.79043C34.8166 6.71838 34.8509 6.63432 34.8509 6.53824C34.8509 6.44217 34.8166 6.35982 34.7479 6.29119C34.6793 6.21913 34.5969 6.18311 34.5009 6.18311ZM13.6259 6.36325V9.9609H14.2538V8.34993C14.2538 8.18867 14.3156 8.05313 14.4391 7.94333C14.5661 7.8301 14.7205 7.77349 14.9024 7.77349C15.067 7.77349 15.2009 7.83182 15.3038 7.94848C15.4067 8.06171 15.4582 8.20926 15.4582 8.39111V9.9609H16.0707V8.26758C16.0707 8.06858 16.0278 7.89186 15.942 7.73746C15.8597 7.57962 15.7429 7.45782 15.592 7.37203C15.4444 7.28282 15.2746 7.23821 15.0825 7.23821C14.9075 7.23821 14.7462 7.27767 14.5987 7.35659C14.4511 7.43208 14.3362 7.5333 14.2538 7.66025V6.36325H13.6259ZM24.6617 6.36325V7.71687C24.5588 7.5659 24.4267 7.44923 24.2654 7.36688C24.1076 7.28111 23.9326 7.23821 23.7404 7.23821C23.5071 7.23821 23.2978 7.29827 23.1125 7.41835C22.9272 7.53502 22.7814 7.69972 22.675 7.91245C22.5687 8.12176 22.5155 8.36023 22.5155 8.62786C22.5155 8.8955 22.5687 9.13569 22.675 9.34842C22.7814 9.56116 22.9272 9.72758 23.1125 9.84767C23.2978 9.96434 23.5071 10.0227 23.7404 10.0227C23.9326 10.0227 24.1076 9.98149 24.2654 9.89914C24.4267 9.81336 24.5588 9.69498 24.6617 9.544V9.9609H25.2896V6.36325H24.6617ZM30.9399 6.36325V9.9609H31.5678V9.544C31.6707 9.69498 31.801 9.81336 31.9589 9.89914C32.1201 9.98149 32.2969 10.0227 32.4891 10.0227C32.7223 10.0227 32.9317 9.96434 33.117 9.84767C33.3023 9.72758 33.448 9.56116 33.5545 9.34842C33.6608 9.13569 33.714 8.8955 33.714 8.62786C33.714 8.36023 33.6608 8.12176 33.5545 7.91245C33.448 7.69972 33.3023 7.53502 33.117 7.41835C32.9317 7.29827 32.7223 7.23821 32.4891 7.23821C32.2969 7.23821 32.1201 7.28111 31.9589 7.36688C31.801 7.44923 31.6707 7.5659 31.5678 7.71687V6.36325H30.9399ZM39.347 6.36325V7.71687C39.244 7.5659 39.1119 7.44923 38.9506 7.36688C38.7928 7.28111 38.6178 7.23821 38.4257 7.23821C38.1923 7.23821 37.983 7.29827 37.7977 7.41835C37.6125 7.53502 37.4666 7.69972 37.3603 7.91245C37.2539 8.12176 37.2007 8.36023 37.2007 8.62786C37.2007 8.8955 37.2539 9.13569 37.3603 9.34842C37.4666 9.56116 37.6125 9.72758 37.7977 9.84767C37.983 9.96434 38.1923 10.0227 38.4257 10.0227C38.6178 10.0227 38.7928 9.98149 38.9506 9.89914C39.1119 9.81336 39.244 9.69498 39.347 9.544V9.9609H39.9749V6.36325H39.347ZM10.1895 6.42501V7.01175H11.3218V9.9609H11.9651V7.01175H13.0923V6.42501H10.1895ZM40.6594 7.1489C40.6128 7.1489 40.5696 7.16045 40.5299 7.18351C40.491 7.20657 40.4597 7.23801 40.436 7.27784C40.413 7.31698 40.4015 7.35962 40.4015 7.40573C40.4015 7.45186 40.413 7.49482 40.436 7.53466C40.4597 7.5738 40.491 7.60523 40.5299 7.62899C40.5696 7.65205 40.6128 7.66359 40.6594 7.66359C40.7053 7.66359 40.7478 7.65205 40.7867 7.62899C40.8265 7.60523 40.8578 7.5738 40.8807 7.53466C40.9044 7.49482 40.9162 7.45186 40.9162 7.40573C40.9162 7.35962 40.9044 7.31698 40.8807 7.27784C40.8578 7.23801 40.8265 7.20657 40.7867 7.18351C40.7478 7.16045 40.7053 7.1489 40.6594 7.1489ZM40.6594 7.18664C40.699 7.18664 40.7356 7.19643 40.769 7.216C40.8024 7.23557 40.8288 7.2621 40.8484 7.29565C40.8686 7.3292 40.8787 7.36591 40.8787 7.40573C40.8787 7.44557 40.8689 7.48261 40.8494 7.51685C40.83 7.55039 40.8031 7.57694 40.769 7.59651C40.7356 7.61607 40.699 7.62585 40.6594 7.62585C40.6198 7.62585 40.5828 7.61607 40.5487 7.59651C40.5153 7.57624 40.4885 7.54933 40.4683 7.51578C40.4489 7.48223 40.4391 7.44557 40.4391 7.40573C40.4391 7.36591 40.4489 7.3292 40.4683 7.29565C40.4885 7.2621 40.5153 7.23557 40.5487 7.216C40.5828 7.19643 40.6198 7.18664 40.6594 7.18664ZM21.0944 7.23821C20.9194 7.23821 20.7581 7.27596 20.6106 7.35144C20.4665 7.4235 20.3533 7.52301 20.2709 7.64996V7.29997H19.643V9.9609H20.2709V8.34993C20.2709 8.18867 20.3327 8.05313 20.4562 7.94333C20.5797 7.8301 20.7324 7.77349 20.9143 7.77349C21.079 7.77349 21.2128 7.83182 21.3157 7.94848C21.4221 8.06171 21.4753 8.20926 21.4753 8.39111V9.9609H22.0878V8.26758C22.0878 8.06858 22.0449 7.89186 21.9591 7.73746C21.8768 7.57962 21.76 7.45782 21.6091 7.37203C21.4581 7.28282 21.2865 7.23821 21.0944 7.23821ZM27.1418 7.23821C26.8913 7.23821 26.6614 7.29827 26.4521 7.41835C26.2462 7.53845 26.0833 7.70315 25.9632 7.91245C25.843 8.12176 25.783 8.35852 25.783 8.62272C25.783 8.89035 25.8448 9.13055 25.9683 9.34328C26.0952 9.55602 26.2651 9.72244 26.4778 9.84252C26.6906 9.96262 26.9239 10.0227 27.1778 10.0227C27.3734 10.0227 27.5741 9.98493 27.78 9.90943C27.9859 9.83052 28.1454 9.73101 28.2587 9.61091L27.8984 9.24034C27.8126 9.32269 27.701 9.3896 27.5638 9.44107C27.43 9.49254 27.2944 9.51827 27.1572 9.51827C26.9548 9.51827 26.7849 9.4548 26.6477 9.32784C26.5105 9.19746 26.4246 9.02589 26.3903 8.81315H28.4491C28.4491 8.32592 28.3325 7.94162 28.0991 7.66025C27.8692 7.3789 27.5501 7.23821 27.1418 7.23821ZM30.4782 7.23821C30.2654 7.23821 30.075 7.28968 29.9069 7.39262C29.7388 7.49213 29.6118 7.62937 29.526 7.80437V7.29997H28.8981V9.9609H29.526V8.61757C29.526 8.36367 29.6135 8.1595 29.7885 8.00509C29.9635 7.85069 30.1934 7.77349 30.4782 7.77349V7.23821ZM37.004 7.23821C36.7913 7.23821 36.6009 7.28968 36.4327 7.39262C36.2646 7.49213 36.1377 7.62937 36.0518 7.80437V7.29997H35.4239V9.9609H36.0518V8.61757C36.0518 8.36367 36.1393 8.1595 36.3143 8.00509C36.4893 7.85069 36.7193 7.77349 37.004 7.77349V7.23821ZM40.5321 7.24953V7.56402H40.6103V7.46862H40.6584L40.7252 7.56402H40.8035L40.7304 7.45919C40.7512 7.4515 40.7676 7.43892 40.7794 7.42145C40.792 7.40328 40.7983 7.38232 40.7983 7.35857C40.7983 7.32572 40.7871 7.29951 40.7648 7.27995C40.7433 7.25968 40.7148 7.24953 40.6793 7.24953H40.5321ZM16.5904 7.29997V8.99329C16.5904 9.19231 16.6316 9.37073 16.7139 9.52856C16.7997 9.68297 16.9163 9.80479 17.0639 9.89399C17.2148 9.97978 17.3864 10.0227 17.5786 10.0227C17.7536 10.0227 17.9132 9.98663 18.0573 9.91458C18.2048 9.83909 18.3198 9.73788 18.4021 9.61091V9.9609H19.0352V7.29997H18.4021V8.91094C18.4021 9.07221 18.3404 9.20946 18.2168 9.32269C18.0933 9.43249 17.9405 9.48739 17.7588 9.48739C17.5941 9.48739 17.4585 9.43077 17.3522 9.31754C17.2492 9.20088 17.1977 9.05163 17.1977 8.86977V7.29997H16.5904ZM34.1869 7.29997V9.9609H34.8148V7.29997H34.1869ZM40.6103 7.32712H40.6709C40.6841 7.32712 40.6949 7.33026 40.7032 7.33655C40.7116 7.34214 40.7158 7.34948 40.7158 7.35857C40.7158 7.36834 40.7116 7.37637 40.7032 7.38266C40.6949 7.38825 40.6841 7.39105 40.6709 7.39105H40.6103V7.32712ZM27.1521 7.7426C27.3443 7.7426 27.4987 7.80266 27.6153 7.92274C27.7354 8.04284 27.8109 8.20067 27.8418 8.39626H26.3955C26.4367 8.19725 26.5259 8.03941 26.6631 7.92274C26.8003 7.80266 26.9634 7.7426 27.1521 7.7426ZM23.9103 7.77349C24.1298 7.77349 24.31 7.85413 24.4507 8.01539C24.5914 8.17323 24.6617 8.37739 24.6617 8.62786C24.6617 8.79256 24.6291 8.94011 24.5639 9.07049C24.5022 9.20088 24.4129 9.30382 24.2963 9.37931C24.1831 9.45136 24.0544 9.48739 23.9103 9.48739C23.6838 9.48739 23.4985 9.40676 23.3544 9.24549C23.2103 9.08423 23.1383 8.87835 23.1383 8.62786C23.1383 8.37739 23.2103 8.17323 23.3544 8.01539C23.4985 7.85413 23.6838 7.77349 23.9103 7.77349ZM32.3192 7.77349C32.5457 7.77349 32.731 7.85413 32.8751 8.01539C33.0192 8.17323 33.0912 8.37739 33.0912 8.62786C33.0912 8.87835 33.0192 9.08423 32.8751 9.24549C32.731 9.40676 32.5457 9.48739 32.3192 9.48739C32.1751 9.48739 32.0447 9.45136 31.9281 9.37931C31.8148 9.30382 31.7256 9.20088 31.6604 9.07049C31.5987 8.94011 31.5678 8.79256 31.5678 8.62786C31.5678 8.37739 31.6381 8.17323 31.7788 8.01539C31.9194 7.85413 32.0996 7.77349 32.3192 7.77349ZM38.5955 7.77349C38.8151 7.77349 38.9952 7.85413 39.1359 8.01539C39.2766 8.17323 39.347 8.37739 39.347 8.62786C39.347 8.79256 39.3143 8.94011 39.2492 9.07049C39.1874 9.20088 39.0982 9.30382 38.9815 9.37931C38.8683 9.45136 38.7396 9.48739 38.5955 9.48739C38.369 9.48739 38.1838 9.40676 38.0396 9.24549C37.8955 9.08423 37.8235 8.87835 37.8235 8.62786C37.8235 8.37739 37.8955 8.17323 38.0396 8.01539C38.1838 7.85413 38.369 7.77349 38.5955 7.77349Z" fill="black"/>
</g>
</g>
<defs>
<filter id="filter0_f_2_7175" x="-28.9346" y="-24.6919" width="66.8604" height="65.3838" filterUnits="userSpaceOnUse" color-interpolation-filters="sRGB">
<feFlood flood-opacity="0" result="BackgroundImageFix"/>
<feBlend mode="normal" in="SourceGraphic" in2="BackgroundImageFix" result="shape"/>
<feGaussianBlur stdDeviation="16" result="effect1_foregroundBlur_2_7175"/>
</filter>
<linearGradient id="paint0_linear_2_7175" x1="2.1665" y1="5.73826" x2="7.24542" y2="10.4756" gradientUnits="userSpaceOnUse">
<stop stop-color="#1B91F3"/>
<stop offset="1" stop-color="#0B68CB"/>
</linearGradient>
<radialGradient id="paint1_radial_2_7175" cx="0" cy="0" r="1" gradientUnits="userSpaceOnUse" gradientTransform="translate(2.15702 7.36805) rotate(66.5177) scale(3.04653 2.91847)">
<stop offset="0.53" stop-color="#0B4186" stop-opacity="0"/>
<stop offset="1" stop-color="#0B4186" stop-opacity="0.45"/>
</radialGradient>
<radialGradient id="paint2_radial_2_7175" cx="0" cy="0" r="1" gradientUnits="userSpaceOnUse" gradientTransform="translate(4.61169 6.11707) rotate(-127.997) scale(0.651286 1.07773)">
<stop stop-color="#EF3ACC" stop-opacity="0"/>
<stop offset="1" stop-color="#EF3ACC" stop-opacity="0.64"/>
</radialGradient>
<linearGradient id="paint3_linear_2_7175" x1="3.5796" y1="6.95102" x2="5.40715" y2="4.91657" gradientUnits="userSpaceOnUse">
<stop stop-color="#0F5DB0"/>
<stop offset="1" stop-color="#0F5DB0" stop-opacity="0"/>
</linearGradient>
<radialGradient id="paint4_radial_2_7175" cx="0" cy="0" r="1" gradientUnits="userSpaceOnUse" gradientTransform="translate(3.16025 9.80963) rotate(-64.2624) scale(4.75277 5.87107)">
<stop offset="0.02" stop-color="#094188"/>
<stop offset="0.97" stop-color="#0B4186" stop-opacity="0"/>
</radialGradient>
<linearGradient id="paint5_linear_2_7175" x1="6.78246" y1="8.424" x2="5.93271" y2="10.5104" gradientUnits="userSpaceOnUse">
<stop stop-color="#E247C4" stop-opacity="0"/>
<stop offset="1" stop-color="#E247C4" stop-opacity="0.64"/>
</linearGradient>
<linearGradient id="paint6_linear_2_7175" x1="1.51322" y1="6.55269" x2="2.26188" y2="9.56587" gradientUnits="userSpaceOnUse">
<stop offset="0.1" stop-color="#EF3ACC"/>
<stop offset="1" stop-color="#EF3ACC" stop-opacity="0"/>
</linearGradient>
<linearGradient id="paint7_linear_2_7175" x1="4.51893" y1="6.95616" x2="4.51893" y2="10.0031" gradientUnits="userSpaceOnUse">
<stop stop-color="white"/>
<stop offset="0.91" stop-color="#BEE1FE"/>
<stop offset="1" stop-color="#96CEFD"/>
</linearGradient>
<linearGradient id="paint8_linear_2_7175" x1="4.57621" y1="8.68041" x2="4.57621" y2="9.95683" gradientUnits="userSpaceOnUse">
<stop stop-color="#BCE0FD"/>
<stop offset="1" stop-color="#88CCFC"/>
</linearGradient>
<clipPath id="clip0_2_7175">
<rect width="40" height="16" fill="white" transform="translate(0.916016)"/>
</clipPath>
<clipPath id="clip1_2_7175">
<rect width="40" height="6.89845" fill="white" transform="translate(0.916016 4.55078)"/>
</clipPath>
</defs>
</svg>
