<svg width="40" height="16" viewBox="0 0 40 16" fill="none" xmlns="http://www.w3.org/2000/svg">
<g clip-path="url(#clip0_9_1909)">
<path d="M3.34251 6.96948V6.59124C3.21121 6.57044 3.07859 6.55904 2.94567 6.55714C1.65881 6.55442 0.519497 7.38833 0.133069 8.61581C-0.253358 9.84328 0.202775 11.1795 1.25912 11.9144C0.467843 11.0676 0.248131 9.83478 0.698126 8.76671C1.14812 7.69864 2.18379 6.99476 3.34251 6.96948Z" fill="#25F4EE"/>
<path d="M3.41371 11.2542C4.13321 11.2532 4.72463 10.6864 4.75613 9.96758V3.55311H5.92803C5.90411 3.41908 5.8927 3.28312 5.89393 3.14697H4.29109V9.55524C4.26444 10.2777 3.67163 10.85 2.94867 10.8512C2.73262 10.8493 2.52011 10.7962 2.32861 10.6961C2.58033 11.0449 2.98361 11.2523 3.41371 11.2542Z" fill="#25F4EE"/>
<path d="M8.11699 5.7292V5.37267C7.68571 5.37282 7.26399 5.24555 6.90479 5.00684C7.21967 5.37289 7.64519 5.62646 8.11699 5.7292Z" fill="#25F4EE"/>
<path d="M6.90481 5.00693C6.55098 4.604 6.35592 4.08604 6.35606 3.5498H5.92822C6.0399 4.14899 6.39304 4.6759 6.90481 5.00693Z" fill="#FE2C55"/>
<path d="M2.94568 8.15992C2.32824 8.16308 1.7922 8.58608 1.64556 9.18585C1.49892 9.78563 1.77931 10.4082 2.32562 10.6959C2.0296 10.2873 1.98779 9.74708 2.21738 9.2977C2.44697 8.84833 2.90919 8.56567 3.41382 8.56605C3.54837 8.56773 3.682 8.58861 3.81065 8.62806V6.99731C3.67927 6.97763 3.54666 6.96727 3.41382 6.96631H3.34251V8.20642C3.21319 8.17174 3.07951 8.15608 2.94568 8.15992Z" fill="#FE2C55"/>
<path d="M8.1166 5.72949V6.9696C7.31819 6.96806 6.5405 6.71534 5.8937 6.24724V9.50563C5.89028 11.1315 4.57126 12.4478 2.94534 12.4478C2.34152 12.4489 1.75224 12.2625 1.25879 11.9145C2.08229 12.8002 3.3639 13.0918 4.4895 12.6495C5.6151 12.2072 6.35539 11.1211 6.35564 9.91177V6.66268C7.00461 7.12771 7.78326 7.37713 8.58164 7.37574V5.7791C8.42533 5.7786 8.2695 5.76198 8.1166 5.72949Z" fill="#FE2C55"/>
<path d="M5.89369 9.50544V6.24705C6.54246 6.71246 7.32124 6.96192 8.11968 6.96011V5.72C7.64797 5.62039 7.22143 5.37012 6.90438 5.00693C6.3926 4.6759 6.03947 4.14899 5.92779 3.5498H4.75588V9.96738C4.73244 10.5399 4.34895 11.0348 3.80038 11.2004C3.25181 11.366 2.65853 11.1661 2.32217 10.7021C1.77585 10.4144 1.49546 9.79183 1.6421 9.19205C1.78875 8.59228 2.32479 8.16928 2.94222 8.16612C3.07682 8.16732 3.21051 8.18821 3.33906 8.22812V6.98801C2.17384 7.00775 1.13035 7.71409 0.679076 8.78855C0.227802 9.86301 0.453996 11.1026 1.25567 11.9485C1.75399 12.285 2.34412 12.4593 2.94532 12.4476C4.57124 12.4476 5.89027 11.1313 5.89369 9.50544Z" fill="black"/>
<path d="M10.1631 5.42236H15.1607L14.7019 6.86709H13.406V12.1376H11.7845V6.86709H10.1662L10.1631 5.42236Z" fill="black"/>
<path d="M23.3452 5.42236H28.4576L27.9987 6.86709H26.5912V12.1376H24.9729V6.86709H23.3483L23.3452 5.42236Z" fill="black"/>
<path d="M15.4644 7.55859H17.0672V12.1377H15.4768L15.4644 7.55859Z" fill="black"/>
<path d="M17.7026 5.40381H19.3024V8.53199L20.8897 6.98185H22.7995L20.7936 8.92882L23.0413 12.1376H21.2773L19.7767 9.90851L19.3024 10.3674V12.1376H17.7026V5.40381Z" fill="black"/>
<path d="M34.6582 5.40381H36.2765V8.53199L37.8608 6.98185H39.7706L37.7647 8.92882L39.9969 12.1376H38.2328L36.7354 9.90851L36.2765 10.3674V12.1376H34.6737L34.6582 5.40381Z" fill="black"/>
<path d="M16.2675 7.03451C16.7127 7.03451 17.0736 6.67362 17.0736 6.22844C17.0736 5.78325 16.7127 5.42236 16.2675 5.42236C15.8223 5.42236 15.4614 5.78325 15.4614 6.22844C15.4614 6.67362 15.8223 7.03451 16.2675 7.03451Z" fill="black"/>
<path d="M28.253 9.39687C28.2535 7.96658 29.3538 6.77717 30.7797 6.66553C30.7084 6.66553 30.6123 6.66553 30.541 6.66553C29.0919 6.75006 27.96 7.94989 27.96 9.40152C27.96 10.8531 29.0919 12.053 30.541 12.1375C30.6123 12.1375 30.7084 12.1375 30.7797 12.1375C29.3502 12.0256 28.2486 10.8307 28.253 9.39687Z" fill="#25F4EE"/>
<path d="M31.403 6.6563C31.3285 6.6563 31.2324 6.6563 31.1611 6.6563C32.5824 6.77369 33.6762 7.96149 33.6762 9.38764C33.6762 10.8138 32.5824 12.0016 31.1611 12.119C31.2324 12.119 31.3285 12.119 31.403 12.119C32.9166 12.119 34.1436 10.892 34.1436 9.37834C34.1436 7.86472 32.9166 6.6377 31.403 6.6377V6.6563Z" fill="#FE2C55"/>
<path d="M30.9692 10.73C30.2329 10.73 29.636 10.1332 29.636 9.39689C29.636 8.66063 30.2329 8.06378 30.9692 8.06378C31.7054 8.06378 32.3023 8.66063 32.3023 9.39689C32.3006 10.1324 31.7047 10.7283 30.9692 10.73ZM30.9692 6.65625C29.4555 6.65625 28.2285 7.88328 28.2285 9.39689C28.2285 10.9105 29.4555 12.1375 30.9692 12.1375C32.4828 12.1375 33.7098 10.9105 33.7098 9.39689C33.7098 8.67003 33.4211 7.97294 32.9071 7.45897C32.3931 6.945 31.696 6.65625 30.9692 6.65625Z" fill="black"/>
</g>
<defs>
<clipPath id="clip0_9_1909">
<rect width="40" height="16" fill="white" transform="translate(-0.00292969)"/>
</clipPath>
</defs>
</svg>
