<svg width="15" height="16" viewBox="0 0 15 16" fill="none" xmlns="http://www.w3.org/2000/svg">
<g clip-path="url(#clip0_9_1608)">
<path d="M5.51165 6.30129V5.67782C5.29522 5.64352 5.07661 5.62474 4.85751 5.62159C2.73626 5.61712 0.858232 6.99173 0.22125 9.01508C-0.415733 11.0384 0.336152 13.241 2.07742 14.4525C0.773086 13.0565 0.410915 11.0244 1.15268 9.26383C1.89445 7.50324 3.60163 6.34297 5.51165 6.30129Z" fill="#25F4EE"/>
<path d="M5.62899 13.3638C6.81501 13.3623 7.7899 12.4279 7.84182 11.243V0.66947H9.77357C9.73414 0.448536 9.71532 0.224416 9.71736 0H7.07525V10.5633C7.03132 11.7542 6.05414 12.6976 4.86242 12.6995C4.5063 12.6965 4.15599 12.6089 3.84033 12.444C4.25526 13.0189 4.92002 13.3607 5.62899 13.3638Z" fill="#25F4EE"/>
<path d="M13.3815 4.25714V3.66944C12.6706 3.66968 11.9754 3.45989 11.3833 3.06641C11.9024 3.66981 12.6038 4.08779 13.3815 4.25714Z" fill="#25F4EE"/>
<path d="M11.3832 3.06598C10.8 2.40179 10.4784 1.54799 10.4787 0.664062H9.77344C9.95752 1.65175 10.5396 2.5203 11.3832 3.06598Z" fill="#FE2C55"/>
<path d="M4.85716 8.26343C3.83939 8.26865 2.95579 8.9659 2.71406 9.95457C2.47234 10.9432 2.93453 11.9695 3.83507 12.4438C3.34711 11.7701 3.27818 10.8797 3.65664 10.1389C4.0351 9.3982 4.79701 8.93227 5.62884 8.9329C5.85064 8.93566 6.07091 8.97008 6.28298 9.0351V6.347C6.06641 6.31455 5.84782 6.29748 5.62884 6.2959H5.5113V8.34008C5.29813 8.28292 5.07777 8.2571 4.85716 8.26343Z" fill="#FE2C55"/>
<path d="M13.3815 4.25684V6.30102C12.0654 6.29847 10.7835 5.88189 9.71728 5.11028V10.4814C9.71165 13.1615 7.53738 15.3312 4.85724 15.3312C3.86191 15.333 2.89055 15.0258 2.07715 14.4522C3.4346 15.9122 5.54718 16.3927 7.40261 15.6637C9.25803 14.9346 10.4783 13.1444 10.4787 11.1508V5.79508C11.5485 6.56164 12.832 6.97279 14.1481 6.97049V4.3386C13.8904 4.33778 13.6335 4.31038 13.3815 4.25684Z" fill="#FE2C55"/>
<path d="M9.71744 10.4813V5.11016C10.7869 5.87734 12.0706 6.28856 13.3867 6.28557V4.24138C12.6092 4.07719 11.9061 3.66466 11.3834 3.06598C10.5399 2.5203 9.95774 1.65175 9.77366 0.664062H7.8419V11.2427C7.80326 12.1865 7.17112 13.0023 6.26686 13.2753C5.3626 13.5483 4.38465 13.2186 3.83019 12.4539C2.92965 11.9796 2.46746 10.9533 2.70919 9.96468C2.95091 8.97602 3.83451 8.27876 4.85228 8.27354C5.07415 8.27551 5.29453 8.30995 5.50642 8.37574V6.33156C3.58569 6.3641 1.86562 7.52842 1.12174 9.29955C0.377866 11.0707 0.750722 13.114 2.07219 14.5083C2.89361 15.063 3.86639 15.3504 4.85739 15.3311C7.53754 15.3311 9.7118 13.1614 9.71744 10.4813Z" fill="black"/>
</g>
<defs>
<clipPath id="clip0_9_1608">
<rect width="14.1513" height="16" fill="white" transform="translate(-0.00292969)"/>
</clipPath>
</defs>
</svg>
