<svg width="16" height="16" viewBox="0 0 16 16" fill="none" xmlns="http://www.w3.org/2000/svg">
<g clip-path="url(#clip0_876_2706)">
<path d="M10.6636 15.4496C10.6771 15.4632 10.6861 15.486 10.6906 15.4814C10.7313 15.4814 10.8125 15.4678 10.8125 15.4678L10.8938 15.4313L11.1242 15.3404C11.1242 15.3404 11.7067 15.0628 11.7067 15.0583C11.7113 15.0583 11.8106 15.0038 11.8106 15.0038L11.8647 14.981L11.928 14.9355L12.0318 14.8718L12.1538 14.8036L12.3118 14.6989L12.5873 14.5033L12.7182 14.3986L12.9124 14.2576L13.0886 14.1257L13.1744 14.062L13.2918 13.9528L13.4137 13.83L13.6078 13.6207L13.8337 13.4023L14.0956 13.0976L14.2401 12.9065L14.2897 12.8382L14.4433 12.6472L14.7413 12.215L14.8272 12.0739L15.0259 11.6736L15.1387 11.4553L15.3329 11.0594L15.4368 10.8183L15.5452 10.4635C15.5452 10.4635 15.6807 9.97674 15.753 9.7219C15.762 9.69462 15.7665 9.66733 15.7484 9.64005C15.7077 9.58088 15.6762 9.50812 15.6355 9.43987C15.6174 9.40799 15.5858 9.37161 15.5678 9.34432C15.5497 9.31704 15.4955 9.24878 15.4775 9.22609C15.4549 9.1988 15.4323 9.18053 15.4052 9.15783C15.3419 9.09867 15.2878 9.03951 15.2336 9.00313C15.2065 8.98952 15.1839 8.97133 15.1613 8.95306C14.9988 8.82573 14.8317 8.72559 14.6465 8.64374C14.5697 8.61186 14.4885 8.58007 14.4072 8.55278C14.353 8.53459 14.2582 8.51181 14.1995 8.50272C14.1633 8.49813 14.1363 8.49813 14.1092 8.51181C14.082 8.53 14.082 8.57097 14.0775 8.60736C14.0685 8.7074 14.064 8.82114 14.055 8.92127C14.0459 9.02591 14.0369 9.13054 14.0324 9.23969C14.0234 9.33523 14.0189 9.43077 14.0098 9.52631C13.9962 9.65373 13.9782 9.77656 13.9556 9.90389C13.9104 10.1359 13.8608 10.3679 13.8156 10.6C13.802 10.6636 13.793 10.7319 13.7704 10.7911C13.7298 10.8911 13.6982 10.9912 13.6801 11.0959C13.635 11.3142 13.5582 11.5234 13.4814 11.7327C13.4227 11.9011 13.3595 12.0785 13.2647 12.2286C13.2557 12.2377 13.2512 12.2514 13.2512 12.2605C13.206 12.3696 13.1608 12.4743 13.1156 12.5835C13.0841 12.6517 13.0389 12.7154 13.0118 12.7837C12.9757 12.87 12.926 12.952 12.8763 13.0293C12.795 13.1567 12.7092 13.2795 12.6415 13.4114C12.5918 13.5025 12.5376 13.5889 12.479 13.6753C12.4608 13.698 12.4473 13.7208 12.4337 13.739C12.3841 13.8118 12.3434 13.8846 12.2893 13.9528C12.1899 14.0802 12.0815 14.2121 11.9776 14.335C11.9099 14.4123 11.8377 14.4851 11.7654 14.5624C11.7022 14.6307 11.639 14.6989 11.5712 14.7671C11.5577 14.7808 11.5396 14.7945 11.5261 14.8081C11.4899 14.84 11.4448 14.8718 11.4132 14.9082C11.3319 14.9901 11.2416 15.0719 11.1468 15.1402C11.1015 15.1675 11.0609 15.1948 11.0248 15.2312C10.9119 15.3131 10.7945 15.3813 10.6636 15.4496Z" fill="#BD1B21"/>
<path d="M15.8478 9.19423C15.8523 9.19423 15.8523 9.18513 15.8523 9.17604C15.8569 9.15785 15.8569 9.12138 15.8569 9.12138L15.911 8.61188L15.9472 8.13417V7.66105V7.58828L15.8929 7.05149C15.8929 7.05149 15.8298 6.56919 15.7801 6.31902C15.762 6.23258 15.7078 6.18708 15.6356 6.15069C15.613 6.13704 15.5859 6.12795 15.5588 6.11884C15.5091 6.10065 15.4505 6.07791 15.3962 6.06426C15.2743 6.03241 15.1614 5.99602 15.0394 5.97327C14.895 5.95052 14.7504 5.93232 14.606 5.91867C14.484 5.90958 14.3666 5.90503 14.2492 5.90048C14.1543 5.90048 14.0957 5.90048 14.0008 5.90048C13.9511 5.90048 13.8969 5.90048 13.8744 5.93232C13.8518 5.96417 13.8653 6.02331 13.8789 6.07791C13.8969 6.19619 13.9151 6.25533 13.9331 6.3691C13.9918 6.7148 14.0505 7.056 14.064 7.40629C14.0685 7.5655 14.0776 7.72021 14.0866 7.87942C14.0866 7.92498 14.0866 7.95226 14.0866 7.99774C14.0866 8.02502 14.0957 8.05231 14.1047 8.07509C14.1183 8.09779 14.1408 8.09779 14.1634 8.10688C14.195 8.11598 14.2221 8.12057 14.2492 8.12507C14.2808 8.13417 14.335 8.14335 14.3756 8.15695C14.5156 8.20242 14.6601 8.25249 14.7956 8.30706C14.8905 8.34344 14.9808 8.4026 15.0711 8.44808C15.0801 8.45267 15.0892 8.46176 15.1027 8.46627C15.1569 8.50724 15.2111 8.54821 15.2653 8.58459C15.3917 8.67555 15.5181 8.76658 15.6175 8.89392C15.6356 8.9167 15.6582 8.93947 15.6807 8.96217C15.7168 8.99405 15.7801 9.11687 15.8252 9.17145C15.8343 9.18964 15.8433 9.19423 15.8478 9.19423Z" fill="#BD1B21"/>
<path d="M12.289 3.48025C12.3388 3.4757 12.3794 3.4757 12.4155 3.47115C12.4426 3.46661 12.4697 3.46661 12.4787 3.4393C12.4922 3.41201 12.4697 3.38017 12.4607 3.36652C12.4561 3.34377 12.3613 3.18454 12.3613 3.18454L12.271 3.04352L11.8962 2.50214L11.8194 2.41115L11.7517 2.30652L11.6297 2.17003L11.3272 1.83794L11.1962 1.71056L10.7266 1.27382L10.3427 0.973563L10.2028 0.900775L9.75118 0.623261L9.43506 0.450384L9.37631 0.423089L9.11893 0.327555L8.73504 0.181973L8.708 0.172877L8.58157 0.141035L8.54994 0.136479L8.44153 0.109185L8.21579 0.0682397L8.10738 0.063692L7.90417 0.0272942L7.66032 0.00910348L7.57452 0H7.42097L7.1681 0.00910348L6.91515 0.0363978L6.72104 0.0409455L6.54937 0.0591443L6.37328 0.0955338L6.23781 0.136479L6.02105 0.177425H5.97138L5.76816 0.250212L5.65075 0.282062L5.5785 0.327555L5.40238 0.377596L5.31658 0.427637L5.20819 0.468582L4.94627 0.577767L4.61211 0.709699L4.50372 0.764288L4.2689 0.891672L4.06569 1.0236L3.87602 1.12369L3.80828 1.16463L3.60056 1.27382L3.56894 1.29656L3.3296 1.48309L3.13542 1.61502L3.0993 1.64232L2.8735 1.81974L2.79673 1.88343C2.79673 1.88343 2.6748 1.98806 2.6748 2.00171L2.7606 1.97442L2.91414 1.91982C2.91866 1.91982 2.94576 1.92437 2.94576 1.92437L3.16251 1.83338H3.19412L3.43346 1.73785L3.55991 1.6969C3.55991 1.70145 3.68635 1.65141 3.68635 1.65141L3.86699 1.58772L4.30051 1.4194H4.34115L4.56243 1.34206L4.73855 1.26927L4.76564 1.28747C4.76564 1.28747 5.09981 1.29656 5.10433 1.29656L5.32109 1.31476L5.32561 1.31931L5.75913 1.35571L5.76364 1.35116L6.36427 1.383L6.36878 1.39665L6.581 1.58317H6.59911L6.81584 1.79699L6.83387 1.78789L7.13197 1.79699L7.14549 1.78789L7.89966 1.83338L7.90417 1.85158L8.23832 2.04721H8.25184L8.84345 2.33836L8.84796 2.37021L9.18211 2.23828L9.6744 2.4066L9.75569 2.54308L9.9453 2.53854L10.117 2.73416H10.135L10.2749 2.89339L10.2795 2.90248H10.2976L10.686 2.99347L10.8304 3.21638L11.1917 3.34832C11.1917 3.34832 11.5756 3.44841 11.7743 3.47115C11.9459 3.49845 12.1536 3.48935 12.289 3.48025Z" fill="#BD1B21"/>
<path d="M15.6399 5.77771C15.6264 5.71857 15.5857 5.60484 15.5857 5.60484L15.5631 5.54115L15.5451 5.4638L15.4818 5.27273L15.4232 5.10441L15.238 4.69042L15.1567 4.48569L15.0483 4.25368L14.9219 4.04441L14.8947 3.98527L14.8089 3.81695L14.7322 3.68502L14.6961 3.63952L14.1587 2.90708C14.1587 2.90708 14.1045 2.84338 14.0819 2.81609C14.0684 2.79789 14.0639 2.78879 14.0503 2.78879H14.0458C14.0458 2.78879 13.8787 3.06175 13.811 3.13909C13.7432 3.21643 13.6033 3.34381 13.6033 3.34381C13.6033 3.34381 13.4859 3.43935 13.4678 3.45754C13.4497 3.47119 13.3593 3.53034 13.3593 3.53034L13.2374 3.60312C13.2374 3.60312 13.1426 3.64407 13.1291 3.65317C13.1155 3.65771 13.0975 3.66682 13.0885 3.67591C13.0794 3.68956 13.0749 3.69866 13.0794 3.71686C13.0839 3.73506 13.0885 3.7487 13.0975 3.76235C13.1471 3.86699 13.1923 3.97617 13.2465 4.07625C13.3278 4.22639 13.3775 4.39016 13.4497 4.54938C13.4723 4.59943 13.4949 4.65402 13.5129 4.70862C13.5581 4.84965 13.6033 4.99067 13.6484 5.12715C13.6665 5.19084 13.6891 5.24999 13.7071 5.31368C13.7252 5.37736 13.7387 5.43651 13.7568 5.5002C13.7659 5.54115 13.7929 5.55935 13.838 5.55935C13.8787 5.55935 13.9193 5.55934 13.96 5.55479C14.1045 5.55024 14.249 5.54569 14.3935 5.54115C14.4342 5.54115 14.7232 5.56844 14.7232 5.56844C14.7232 5.56844 14.8271 5.57754 14.8767 5.58664C14.9851 5.60484 15.0934 5.63213 15.2019 5.65488C15.2922 5.67308 15.387 5.70492 15.4728 5.74587C15.5135 5.76406 15.5586 5.77771 15.6038 5.79136C15.6173 5.79591 15.6399 5.80045 15.6444 5.79591C15.6354 5.80045 15.6399 5.78681 15.6399 5.77771Z" fill="#BD1B21"/>
<path d="M13.7569 2.53849C13.7524 2.51574 13.7162 2.46115 13.7162 2.46115L13.6892 2.41111L13.6124 2.32012L13.5582 2.24733L13.4588 2.15179C13.4588 2.15179 13.4362 2.13359 13.4272 2.1245C13.2556 1.98347 12.9124 1.70596 12.9124 1.70141L12.8176 1.62407L12.6415 1.46484L11.7519 0.928018L11.0428 0.591367C11.0428 0.591367 10.6726 0.445792 10.668 0.445792L10.5325 0.400299L10.0719 0.241073L9.74679 0.159183L9.43067 0.0909429L9.38101 0.0863953L9.3584 0.109142L9.372 0.122785C9.372 0.122785 9.40363 0.136436 9.42166 0.145531C9.51646 0.186477 9.61585 0.218327 9.71517 0.259264C9.77842 0.286567 9.83709 0.318408 9.90486 0.336607C9.95 0.35025 9.99065 0.368449 10.0313 0.391196C10.1803 0.477634 10.3293 0.564073 10.4784 0.655059C10.5687 0.709656 10.6499 0.768792 10.7267 0.841579C10.7855 0.896176 10.8441 0.946217 10.9164 0.987162C10.948 1.00536 10.9706 1.03266 11.0022 1.0554C11.0157 1.06905 11.0338 1.0827 11.0473 1.09635C11.1331 1.16913 11.228 1.23283 11.3093 1.31472C11.3906 1.4057 11.4809 1.49214 11.5667 1.57403C11.648 1.65592 11.7338 1.73781 11.8015 1.82879C11.8602 1.90613 11.9189 1.97892 11.9866 2.04716C12.1176 2.17454 12.217 2.32922 12.3344 2.4657C12.3479 2.4839 12.357 2.50209 12.3705 2.52484C12.4473 2.64312 12.515 2.77051 12.6054 2.87969C12.6685 2.95703 12.7273 3.03892 12.7679 3.1299C12.795 3.18449 12.8311 3.23454 12.8672 3.28458C12.8853 3.31642 12.9215 3.33007 12.9395 3.32553C12.9575 3.32553 12.9892 3.30733 12.9892 3.30733L13.0524 3.28003C13.0524 3.28003 13.1337 3.24364 13.1653 3.22998C13.1924 3.21634 13.2511 3.18449 13.2692 3.1663C13.2873 3.1481 13.3731 3.08896 13.4227 3.04346C13.4679 2.99797 13.5627 2.88879 13.5627 2.88879L13.6304 2.7978L13.7478 2.59763C13.7388 2.60673 13.7614 2.56124 13.7569 2.53849Z" fill="#BD1B21"/>
<path d="M13.3867 5.532C13.337 5.38187 13.3009 5.24084 13.2467 5.09526C13.2016 4.97698 13.1699 4.8496 13.1113 4.73587C13.0796 4.66763 13.0615 4.59029 13.0345 4.5175C13.0209 4.4811 13.0029 4.44471 12.9893 4.40831C12.9216 4.22179 12.8358 4.06711 12.7455 3.88969C12.7409 3.88059 12.7364 3.87149 12.7274 3.85329C12.7184 3.83509 12.7139 3.82145 12.6912 3.8078C12.6687 3.79415 12.6506 3.80325 12.61 3.8078C12.5332 3.81689 12.4384 3.826 12.3977 3.826C12.3616 3.826 12.2125 3.83964 12.0906 3.84874L12.0681 3.83964H11.9913H11.9235L11.5397 3.7896C11.3997 3.7714 11.0791 3.68952 11.0791 3.68952L10.8443 3.60763L10.5552 3.50755L10.5327 3.52119L10.0766 3.4848L10.063 3.49389L9.80564 3.29827H9.77851L9.62045 3.1527L9.61594 3.12085L9.43084 3.09355L9.41273 3.10265L9.26827 3.05261L9.25016 3.03896L8.91601 3.06171L8.61341 2.93887L7.5658 2.99347L7.54769 2.98437L7.34899 2.99802L7.32646 3.01166L6.81163 3.05261L6.79811 3.03896L6.06198 3.4666L6.05295 3.49844L6.02134 3.53029L6.01682 3.51664L5.64652 3.48024L5.62395 3.48935L4.97366 3.49389L4.96012 3.4848L4.77497 3.48024L4.71626 3.4484L4.03437 3.98068L4.02985 3.99432L3.79051 4.18539L3.52408 4.05801L3.50601 4.06256L3.40667 4.03526C3.40667 4.03526 2.91444 4.16265 2.91895 4.1672C2.92347 4.17174 2.45833 4.09441 2.45833 4.09441L2.42672 4.06256L2.34092 4.15354L2.15577 4.24454L2.15125 4.25818L1.78547 4.54024L1.26163 4.91784L0.674571 5.35912L0.408135 5.55474L0.39459 5.66848L0.281693 5.92779L0.236536 6.15071L0.164281 6.60107L0.119124 6.79674L0.101056 7.0333L0.0378398 7.52003L0.0107422 8.59369L0.0378398 8.65744L0.0558993 8.95308C0.0558993 8.95308 0.0604142 9.00314 0.0739589 9.00773L1.37453 7.65203L1.80353 7.47914L2.16028 7.46095L2.37705 7.2107L2.39963 7.16523L2.42672 7.17883L3.01378 7.11065L3.04088 7.09246H3.25764L3.28925 7.10607L3.3615 7.01052L3.62342 6.84222L3.9034 6.64663L4.69368 6.65572L4.6982 6.67391L5.00528 6.7012L5.24913 6.65113L5.69169 6.1962H5.70072L6.05295 5.85955L6.58129 5.79131L6.60391 5.77766L6.62644 5.80041L6.90193 5.93234L6.92003 5.91414L7.16389 5.8823L7.17741 5.86865L7.40315 5.83226L7.42126 5.81861L7.66962 6.03243L7.68314 6.01423L8.18896 6.00513L8.23411 5.97329L8.64053 5.99148L8.66315 6.00058L8.72632 5.98694L8.73533 5.96874L8.8979 5.89595H8.91601L9.1057 5.80951L9.12373 5.79131L9.32244 5.71397L9.33595 5.69122L9.89143 5.47741L9.89593 5.46831L9.99533 5.43646L10.0179 5.41372L10.045 5.44556L10.2076 5.5229H10.2572L10.4379 5.62298L10.4514 5.60478L10.5056 5.57749H10.5101L10.6005 5.53655L10.605 5.532L10.7359 5.50016L11.0701 5.58659L11.1423 5.56839L11.201 5.60934L11.4448 5.64573L11.6842 5.73672L11.8242 5.72762L11.8694 5.75946L11.9055 5.73672C11.9055 5.73672 12.3751 5.67758 12.6145 5.65938C12.768 5.64573 12.9216 5.63209 13.0751 5.61389C13.1609 5.60479 13.2467 5.59569 13.3325 5.58659C13.3776 5.60478 13.4048 5.58659 13.3867 5.532Z" fill="#BD1B21"/>
<path d="M13.73 7.96587C13.73 7.93407 13.7255 7.91129 13.721 7.87942C13.7164 7.78847 13.7119 7.69743 13.7074 7.60648C13.7074 7.5746 13.7029 7.54732 13.6984 7.51552C13.6893 7.40179 13.6893 7.28806 13.6757 7.17432C13.6577 7.02872 13.6397 6.8877 13.6171 6.74209C13.599 6.63295 13.5809 6.51921 13.5584 6.40999C13.5358 6.29627 13.5178 6.18709 13.4951 6.07335C13.4725 5.95507 13.4455 5.94142 13.3281 5.95507C13.3191 5.95507 13.31 5.95962 13.3009 5.95962C13.2558 5.96872 13.1971 5.97327 13.152 5.98237C12.9216 6.01421 12.7048 6.02331 12.4701 6.05061L11.8062 6.28262L10.8489 6.25533L10.745 6.21894V6.23713L10.465 6.44637L10.4244 6.45096L10.2031 6.66023L10.1895 6.69203L9.61602 6.76938L9.09218 7.17883H9.03801L8.75802 7.34263L8.64511 7.35623L8.5367 7.45177L8.50966 7.42908L7.97681 7.3927L7.88192 7.49733V7.51552L7.42134 8.02503L7.41683 8.05231L7.39872 8.0569L6.8117 8.73471L6.64913 8.7393L6.63553 8.75749L6.15236 8.84394H6.11624C6.11624 8.84394 6.10721 8.86663 6.10269 8.86663C6.09818 8.86663 5.30791 9.31247 5.30791 9.31247L4.95115 9.27158L4.87438 9.29887L4.51763 9.27609L4.16539 9.64457L3.95315 9.68554L3.83121 9.68095L3.70929 9.73561L3.63703 9.72651L3.64156 9.74011L3.20351 10.0813L3.16287 10.0904L2.47646 10.6273L2.48098 10.6591L2.05649 11.6918L2.07455 11.7373L1.37459 11.801L1.13977 12.0012L1.11719 12.0739L1.42878 12.5107L1.65909 12.8656L1.85779 13.1203L2.18293 13.4751C2.18293 13.4751 2.18293 13.4979 2.19196 13.5024C2.19648 13.507 2.23712 13.507 2.23712 13.507C2.23712 13.507 2.4313 13.5706 2.4313 13.5752L2.67064 13.6526L2.67516 13.6662L2.69774 13.6617L3.09513 13.8163H3.12674L3.14933 13.8437H3.18545C3.18997 13.8437 3.28028 13.9073 3.28028 13.9073L3.44737 13.8163H3.4564L3.52866 13.7663L4.12926 13.9164L4.56731 13.689L5.54273 13.5934L5.94012 12.9428C6.00335 12.8792 6.11624 12.7609 6.11624 12.7609H6.12979C6.12979 12.7609 6.26526 12.6335 6.26977 12.629C6.26977 12.6244 6.26977 12.6107 6.26977 12.6107L6.5227 12.3787L6.64012 12.2559C6.64012 12.2559 6.66716 12.2422 6.66716 12.2377C6.67167 12.2377 6.80269 12.0967 6.80269 12.0967L6.91101 11.983L6.93814 11.9784L6.91101 11.8783L7.02393 11.4598L7.24516 11.3961L7.25426 11.387L7.31744 11.3733V11.337L7.61103 10.8593L7.63807 10.8456L7.75999 10.6091L7.9587 10.4954L7.98582 10.4635L8.02646 10.468C8.02646 10.468 8.14388 10.3998 8.14839 10.3998H8.16191L8.37864 10.3043L8.39675 10.277L9.11479 9.94488L9.15994 9.94029L9.16895 9.89932L9.19608 9.87663L9.26826 9.62638L9.49409 9.52633L9.75605 9.49446L9.99532 9.32615L10.3341 9.33975L10.3657 9.36704L10.3837 9.34434L10.8579 9.13048L10.8534 9.06681L10.9662 8.84844L11.2011 8.78478L11.2147 8.77109L11.5353 8.70284L11.6572 8.55731L11.6753 8.55272C11.6753 8.55272 11.7475 8.47996 11.752 8.47996L11.9733 8.51183L11.9824 8.52093L12.1043 8.53912L12.1765 8.54821C12.1765 8.54821 12.4971 8.3981 12.6326 8.34345C12.6913 8.32075 12.7455 8.30706 12.7997 8.28887C12.8765 8.26159 12.9487 8.2343 13.0255 8.21152C13.0661 8.19792 13.0977 8.18883 13.1384 8.17973L13.2874 8.15244L13.4635 8.12508L13.5584 8.12057C13.5584 8.12057 13.6126 8.11598 13.6306 8.11147C13.6487 8.10688 13.6803 8.10688 13.7029 8.08869C13.7255 8.066 13.7255 8.04781 13.7255 8.02503C13.73 8.00684 13.73 7.99315 13.73 7.96587Z" fill="#BD1B21"/>
<path d="M13.7209 8.59827C13.7209 8.5709 13.7254 8.53002 13.7028 8.50724C13.6847 8.48454 13.6577 8.47995 13.6396 8.47995C13.6215 8.47995 13.5403 8.48905 13.5403 8.48905L13.4002 8.51182C13.3822 8.51182 13.3686 8.51633 13.3551 8.52092C13.2738 8.53911 13.188 8.5573 13.1067 8.58008C13.0164 8.60737 12.9215 8.63006 12.8357 8.67103C12.7454 8.712 12.6415 8.7438 12.5512 8.78927C12.5196 8.80755 12.2126 8.95766 12.0726 9.02592L11.892 9.21692L11.8874 9.25789L11.8648 9.24879L11.7519 9.25789L11.7429 9.26698L11.3771 9.38981L11.3816 9.43078L11.3455 9.46716V9.48994L11.1739 9.79468H11.1514L11.1468 9.82655C11.1468 9.82655 11.1107 9.88571 11.0746 9.94938L10.3024 10.4498H10.2843L10.1669 10.5499L10.0811 10.8729L10.0043 10.9457L9.70178 12.0648L9.74242 12.1922L9.29536 12.406H9.22309L9.1373 12.7973L9.12369 12.8109L9.01537 13.1658L9.01987 13.184L8.97473 13.4888L8.95662 13.5116L8.97022 13.5388L8.54118 14.2212L8.50955 14.2303L8.40573 14.3941L8.40123 14.4259L8.03545 14.9446L7.64705 15.1766L7.66958 15.2085C7.66958 15.213 7.64705 15.3677 7.64705 15.3677L7.68319 15.4268L7.62894 15.445L7.34904 15.6133L7.32191 15.6042L6.91098 15.8499L6.86133 15.9272C6.86133 15.9317 7.0239 15.95 7.0239 15.95L7.29028 15.9727L7.47096 15.9818L7.68769 15.9909L7.7825 15.9955L7.94056 16L8.09862 15.9955L8.67663 15.9226L9.01537 15.8636L9.27274 15.7907L9.55273 15.7089L9.9095 15.5678L9.93662 15.5542L10.0359 15.4951C10.0359 15.4951 10.3249 15.3404 10.4559 15.2448C10.6772 15.0765 10.8984 14.9081 11.1016 14.7171C11.1739 14.6489 11.2372 14.5851 11.3094 14.517C11.3726 14.4532 11.4404 14.385 11.5036 14.3213C11.5127 14.3077 11.5307 14.2986 11.5352 14.2849C11.5578 14.2303 11.5984 14.194 11.6346 14.1576C11.6616 14.1302 11.6887 14.1029 11.7113 14.0711C11.7565 14.0029 11.8197 13.9483 11.8784 13.8936C11.9236 13.8482 11.9687 13.7981 12.0049 13.7435C12.0726 13.648 12.1358 13.5479 12.1991 13.4478C12.2849 13.3159 12.3797 13.1886 12.4519 13.052C12.5332 12.9064 12.61 12.7563 12.6913 12.6108C12.759 12.488 12.8312 12.3605 12.8854 12.2331C12.9758 12.0148 13.0661 11.801 13.1519 11.5826C13.2422 11.3506 13.3099 11.1095 13.3732 10.8683C13.4183 10.6909 13.4499 10.5044 13.5131 10.3316C13.5222 10.3088 13.5267 10.2861 13.5312 10.2588C13.5538 10.1132 13.5809 9.96307 13.6034 9.81746C13.6261 9.67644 13.6441 9.53993 13.6622 9.39891C13.6757 9.30337 13.6937 9.20782 13.6983 9.11228C13.7118 8.98036 13.7164 8.84843 13.7209 8.71651C13.7209 8.70291 13.7209 8.67103 13.7209 8.67103C13.7209 8.67103 13.7209 8.62097 13.7209 8.59827Z" fill="#BD1B21"/>
</g>
<defs>
<clipPath id="clip0_876_2706">
<rect width="15.9365" height="16" fill="white" transform="translate(0.0107422)"/>
</clipPath>
</defs>
</svg>
