<svg width="41" height="16" viewBox="0 0 41 16" fill="none" xmlns="http://www.w3.org/2000/svg">
<g clip-path="url(#clip0_846_3278)">
<path d="M1.16885 1.28021L3.5172 3.65274C3.57213 3.7076 3.62707 3.72131 3.70947 3.72131H13.611C13.6797 3.72131 13.7209 3.63903 13.6522 3.57046L11.3313 1.22535C11.2764 1.17049 11.2215 1.14307 11.1116 1.14307H1.22378C1.12765 1.14307 1.11392 1.22535 1.16885 1.28021Z" fill="#850122"/>
<path d="M0.825698 14.7472C0.811967 14.8021 0.839433 14.8569 0.908097 14.8569H10.6723C10.7684 14.8569 10.8096 14.8158 10.8371 14.7335L13.7897 5.21594C13.8172 5.11996 13.776 5.09253 13.6936 5.09253H3.9019C3.81952 5.09253 3.79204 5.11996 3.76458 5.18851L0.825698 14.7472Z" fill="#850122"/>
<path d="M0.0839844 12.0044C0.0839844 12.1141 0.221315 12.1141 0.248781 12.0044L2.48727 4.72222C2.51474 4.63993 2.51474 4.58508 2.44607 4.51651L0.221315 2.30854C0.166383 2.25368 0.0839844 2.28111 0.0839844 2.34968V12.0044Z" fill="#850122"/>
<path d="M34.1059 9.62646C34.1059 8.3241 35.0871 6.77011 36.7564 6.77011H37.9864L37.5471 8.19087C37.0346 9.89286 36.2146 10.9437 35.2188 10.9437C34.5013 10.9437 34.1059 10.4405 34.1059 9.62646ZM27.8532 8.91607C27.2382 10.9141 28.1754 12.2904 30.2987 12.2904C30.6062 12.2904 31.0162 12.2608 31.1333 12.2312C31.1919 12.2164 31.2212 12.1868 31.2505 12.1128L31.6166 10.8697C31.6312 10.7956 31.6166 10.7364 31.5141 10.7512C31.1919 10.7808 30.899 10.8104 30.6355 10.8104C29.5665 10.8104 29.1272 10.2333 29.4494 9.19727L30.1962 6.77011H32.3634C32.4219 6.77011 32.4659 6.74051 32.4952 6.66651L32.8759 5.40853C32.8905 5.33453 32.8612 5.29013 32.7734 5.29013H30.6501L30.9283 4.37255C30.943 4.31335 30.9284 4.26895 30.8844 4.22455L29.7569 3.18857C29.6983 3.12937 29.6251 3.14417 29.5958 3.23296L27.8532 8.91607ZM20.3852 8.96048C19.7555 10.988 20.7659 12.32 22.3474 12.32C23.2552 12.32 23.9728 11.876 24.4853 11.1509L24.4706 12.0832C24.4706 12.172 24.5146 12.2016 24.5878 12.2016H25.5982C25.6714 12.2016 25.7007 12.172 25.73 12.098L27.7654 5.42333C27.7947 5.33453 27.7507 5.29013 27.6775 5.29013H26.2278C26.1546 5.29013 26.1107 5.31973 26.0961 5.39373L25.2321 8.20568C24.6903 9.95207 23.841 10.9437 22.9477 10.9437C22.0545 10.9437 21.6738 10.2333 22.0106 9.13806L23.1528 5.42333C23.182 5.33453 23.1381 5.29013 23.0649 5.29013H21.6152C21.542 5.29013 21.5127 5.31973 21.4834 5.39373L20.3852 8.96048ZM15.4504 8.91607C14.8353 10.9141 15.7725 12.2904 17.8958 12.2904C18.2033 12.2904 18.6133 12.2608 18.7305 12.2312C18.789 12.2164 18.8183 12.1868 18.8476 12.1128L19.2137 10.8697C19.2283 10.7956 19.2137 10.7364 19.1112 10.7512C18.789 10.7808 18.4962 10.8104 18.2326 10.8104C17.1636 10.8104 16.7243 10.2333 17.0465 9.19727L17.7933 6.77011H19.9605C20.0191 6.77011 20.0776 6.74051 20.0923 6.66651L20.473 5.40853C20.4877 5.33453 20.4584 5.29013 20.3705 5.29013H18.2326L18.5108 4.37255C18.5255 4.31335 18.5108 4.26895 18.4669 4.22455L17.3394 3.18857C17.2808 3.12937 17.2076 3.14417 17.1783 3.23296L15.4504 8.91607ZM34.6917 12.32C35.541 12.32 36.2438 11.9352 36.771 11.1509V12.0832C36.771 12.1572 36.815 12.2016 36.8882 12.2016H37.8985C37.9718 12.2016 38.0011 12.172 38.0303 12.098L40.0804 5.40853C40.0951 5.33453 40.0658 5.27534 39.9925 5.27534H36.8003C33.6813 5.27534 32.4659 8.01329 32.4659 9.78925C32.4659 11.3433 33.4177 12.32 34.6917 12.32Z" fill="#410002"/>
</g>
<defs>
<clipPath id="clip0_846_3278">
<rect width="40" height="16" fill="white" transform="translate(0.0839844)"/>
</clipPath>
</defs>
</svg>
