<svg width="14" height="16" viewBox="0 0 14 16" fill="none" xmlns="http://www.w3.org/2000/svg">
<g clip-path="url(#clip0_743_496)">
<path fill-rule="evenodd" clip-rule="evenodd" d="M11.0107 3.42857V6.85714H9.86785V3.42857H11.0107ZM7.01071 3.42857H8.15356V6.85714H7.01071V3.42857ZM3.01071 0L0.153564 2.85714V13.1429H3.58214V16L6.43928 13.1429H8.72499L13.8679 8V0H3.01071ZM12.725 7.42857L10.4393 9.71429H8.15356L5.86785 12V9.71429H3.58214V1.14286H12.725V7.42857Z" fill="#9146FF"/>
<path fill-rule="evenodd" clip-rule="evenodd" d="M10.4393 9.71428L12.725 7.42857V1.14285H3.58215V9.71428H5.86787V12L8.15358 9.71428H10.4393ZM7.01072 3.42857H8.15358V6.85714H7.01072V3.42857ZM11.0107 3.42857H9.86787V6.85714H11.0107V3.42857Z" fill="white"/>
</g>
<defs>
<clipPath id="clip0_743_496">
<rect width="13.7143" height="16" fill="white" transform="translate(0.153564)"/>
</clipPath>
</defs>
</svg>
