<svg width="41" height="16" viewBox="0 0 41 16" fill="none" xmlns="http://www.w3.org/2000/svg">
<g clip-path="url(#clip0_823_142)">
<g clip-path="url(#clip1_823_142)">
<path d="M21.0963 3.80653C20.9574 3.80304 20.8228 3.85475 20.722 3.95035C20.6211 4.04595 20.5623 4.17763 20.5583 4.31653C20.5676 4.45275 20.6283 4.58036 20.7281 4.67356C20.8279 4.76676 20.9593 4.8186 21.0958 4.8186C21.2324 4.8186 21.3638 4.76676 21.4636 4.67356C21.5634 4.58036 21.6241 4.45275 21.6333 4.31653C21.6294 4.17763 21.5706 4.04595 21.4697 3.95035C21.3689 3.85475 21.2343 3.80304 21.0953 3.80653" fill="#323232"/>
<path d="M5.0408 3.45327C4.19899 3.45039 3.37582 3.70104 2.67846 4.17258C1.98111 4.64412 1.44189 5.31471 1.13102 6.09702C0.820141 6.87933 0.752017 7.73712 0.935513 8.55869C1.11901 9.38026 1.54562 10.1276 2.15981 10.7033V12.5468L3.3298 11.483C3.90123 11.7393 4.52276 11.8646 5.14887 11.8495C5.77497 11.8345 6.38978 11.6796 6.94827 11.3962C7.50675 11.1128 7.99476 10.7081 8.37655 10.2116C8.75834 9.71514 9.02423 9.13957 9.15475 8.52704C9.28527 7.91451 9.27711 7.28054 9.13087 6.67157C8.98463 6.0626 8.70401 5.49406 8.30957 5.0076C7.91513 4.52114 7.41687 4.12907 6.85127 3.86013C6.28568 3.59118 5.66708 3.45217 5.0408 3.45327ZM7.14955 7.87276C7.14955 9.09076 6.15305 9.72776 5.16905 9.72776L5.1368 9.72626L5.0818 9.72776C4.0953 9.72776 3.09831 9.09076 3.09831 7.87276V6.32826C3.09646 6.27118 3.10687 6.21437 3.12882 6.16164C3.15076 6.10891 3.18375 6.0615 3.22555 6.02258C3.26736 5.98367 3.31701 5.95416 3.37117 5.93603C3.42533 5.91791 3.48275 5.9116 3.53955 5.91752C3.59664 5.91234 3.65417 5.91912 3.70849 5.9374C3.76281 5.95569 3.81273 5.98509 3.85506 6.02373C3.8974 6.06237 3.93122 6.10941 3.95437 6.16184C3.97753 6.21427 3.98951 6.27095 3.98955 6.32826V7.87301C3.99114 8.0145 4.02097 8.15425 4.0773 8.28405C4.13363 8.41386 4.21532 8.5311 4.31757 8.62891C4.41982 8.72672 4.54058 8.80311 4.67276 8.85362C4.80494 8.90412 4.94588 8.92771 5.0873 8.92301H5.1623C5.30362 8.92758 5.44442 8.90388 5.57645 8.85331C5.70849 8.80274 5.8291 8.72632 5.93121 8.62852C6.03331 8.53072 6.11486 8.41351 6.17107 8.28378C6.22728 8.15404 6.25702 8.01439 6.25855 7.87301V6.32826C6.25855 6.27094 6.27051 6.21424 6.29365 6.16179C6.31679 6.10934 6.35061 6.06229 6.39296 6.02364C6.4353 5.98499 6.48523 5.9556 6.53957 5.93732C6.59391 5.91905 6.65146 5.9123 6.70855 5.91752C6.76533 5.91163 6.82272 5.91798 6.87685 5.93612C6.93098 5.95426 6.9806 5.98377 7.02238 6.02268C7.06416 6.06159 7.09712 6.109 7.11905 6.1617C7.14099 6.21441 7.15138 6.2712 7.14955 6.32826V7.87301V7.87276Z" fill="#007B81"/>
<path d="M12.4054 5.3855L12.3374 5.38725L12.3011 5.3855C11.1659 5.3855 10.0164 6.1205 10.0164 7.52575V9.308C10.0141 9.37393 10.0259 9.43959 10.0511 9.50055C10.0764 9.56151 10.1144 9.61635 10.1626 9.66137C10.2108 9.70639 10.2681 9.74055 10.3307 9.76153C10.3932 9.78251 10.4595 9.78983 10.5251 9.78299C10.5911 9.78906 10.6576 9.78127 10.7203 9.76013C10.7831 9.73899 10.8407 9.70496 10.8895 9.66024C10.9383 9.61551 10.9773 9.56107 11.0038 9.50041C11.0304 9.43975 11.0439 9.37421 11.0436 9.308V7.52575C11.0455 7.36277 11.0799 7.2018 11.1448 7.05228C11.2097 6.90276 11.3037 6.76768 11.4215 6.65497C11.5392 6.54226 11.6783 6.45418 11.8305 6.39589C11.9827 6.3376 12.145 6.31027 12.3079 6.3155C12.3374 6.31702 12.3669 6.31702 12.3964 6.3155C12.5595 6.30993 12.7221 6.33701 12.8746 6.39514C13.0271 6.45328 13.1664 6.54131 13.2844 6.65405C13.4025 6.7668 13.4967 6.90199 13.5618 7.05168C13.6268 7.20137 13.6613 7.36255 13.6631 7.52575V9.308C13.6629 9.37421 13.6764 9.43975 13.703 9.50041C13.7295 9.56107 13.7685 9.61551 13.8173 9.66024C13.8661 9.70496 13.9237 9.73899 13.9865 9.76013C14.0492 9.78127 14.1157 9.78906 14.1816 9.78299C14.2473 9.78983 14.3136 9.78251 14.3761 9.76153C14.4387 9.74055 14.496 9.70639 14.5442 9.66137C14.5924 9.61635 14.6304 9.56151 14.6556 9.50055C14.6809 9.43959 14.6927 9.37393 14.6904 9.308V7.52575C14.6904 6.1205 13.5401 5.3855 12.4054 5.3855ZM20.6294 5.78125V9.44275C20.6438 9.55673 20.6994 9.66153 20.7856 9.73749C20.8718 9.81345 20.9827 9.85536 21.0976 9.85536C21.2125 9.85536 21.3235 9.81345 21.4097 9.73749C21.4959 9.66153 21.5514 9.55673 21.5659 9.44275V5.7735C21.5659 5.2325 20.6289 5.2425 20.6294 5.78125ZM25.8244 5.80725C25.4911 5.56302 25.0967 5.4159 24.685 5.3822C24.2732 5.34851 23.8601 5.42956 23.4916 5.61636C23.1231 5.80317 22.8135 6.08842 22.5973 6.44047C22.3811 6.79252 22.2666 7.19759 22.2666 7.61075C22.2666 8.0239 22.3811 8.42898 22.5973 8.78103C22.8135 9.13308 23.1231 9.41833 23.4916 9.60513C23.8601 9.79194 24.2732 9.87299 24.685 9.8393C25.0967 9.8056 25.4911 9.65847 25.8244 9.41425C25.839 9.52505 25.8956 9.626 25.9825 9.69629C26.0694 9.76658 26.1799 9.80083 26.2914 9.79199C26.3494 9.79698 26.4079 9.7901 26.4632 9.77178C26.5185 9.75346 26.5695 9.72407 26.6131 9.68541C26.6567 9.64676 26.6919 9.59963 26.7167 9.54691C26.7416 9.49419 26.7554 9.43698 26.7574 9.37875V5.8305C26.7574 5.3005 25.8604 5.301 25.8236 5.80725M24.5056 8.9355C24.2482 8.93631 23.9961 8.86211 23.7802 8.72199C23.5642 8.58186 23.3938 8.38186 23.2897 8.14644C23.1855 7.91102 23.1523 7.65036 23.1939 7.39632C23.2355 7.14229 23.3502 6.90587 23.524 6.71597C23.6978 6.52607 23.9231 6.39091 24.1725 6.327C24.4218 6.26308 24.6844 6.27319 24.9281 6.35609C25.1718 6.43899 25.3861 6.59108 25.5448 6.79378C25.7035 6.99648 25.7997 7.24102 25.8216 7.4975V7.7225C25.7933 8.05238 25.6425 8.35971 25.399 8.58398C25.1554 8.80825 24.8367 8.93321 24.5056 8.93425M15.3666 4.18051L15.3721 7.58375C15.3556 7.99504 15.439 8.40422 15.6151 8.77625C15.7651 9.05369 15.9851 9.28708 16.2531 9.45325C16.6561 9.72478 17.1334 9.86454 17.6191 9.85324C17.9723 9.85363 18.3206 9.77034 18.6355 9.6102C18.9503 9.45005 19.2227 9.21761 19.4304 8.93191C19.6381 8.64621 19.7751 8.31537 19.8303 7.9665C19.8855 7.61762 19.8573 7.26063 19.748 6.92477C19.6386 6.5889 19.4513 6.28371 19.2013 6.0342C18.9513 5.78468 18.6457 5.59793 18.3097 5.48925C17.9736 5.38057 17.6165 5.35304 17.2678 5.40892C16.919 5.4648 16.5884 5.60251 16.3031 5.81075V4.18826C16.3031 3.64951 15.3666 3.63951 15.3666 4.18051ZM16.3031 7.7305V7.5C16.3329 7.15988 16.4927 6.84437 16.7494 6.61924C17.0061 6.39412 17.3397 6.27676 17.6808 6.29164C18.0219 6.30651 18.3441 6.45248 18.5802 6.6991C18.8163 6.94572 18.9481 7.27396 18.9481 7.61537C18.9481 7.95679 18.8163 8.28503 18.5802 8.53165C18.3441 8.77827 18.0219 8.92423 17.6808 8.93911C17.3397 8.95399 17.0061 8.83663 16.7494 8.61151C16.4927 8.38638 16.3329 8.07087 16.3031 7.73075M39.8983 4.18826V5.80925C39.613 5.60069 39.2823 5.46271 38.9334 5.40661C38.5844 5.35052 38.2272 5.37791 37.8909 5.48654C37.5545 5.59517 37.2488 5.78195 36.9986 6.03157C36.7484 6.2812 36.5609 6.58655 36.4515 6.92262C36.3421 7.25868 36.3139 7.61588 36.3692 7.96495C36.4245 8.31402 36.5617 8.64502 36.7696 8.93082C36.9775 9.21662 37.2502 9.44909 37.5653 9.60916C37.8804 9.76924 38.2289 9.85237 38.5823 9.85174C39.0681 9.86311 39.5454 9.72334 39.9483 9.45175C40.2165 9.28593 40.4365 9.05278 40.5866 8.7755C40.7628 8.40339 40.8462 7.99413 40.8296 7.58275L40.8348 4.18051C40.8348 3.63951 39.8976 3.64951 39.8978 4.18826M38.5823 8.94025C38.325 8.94102 38.073 8.86685 37.8572 8.7268C37.6413 8.58674 37.4709 8.38687 37.3668 8.15157C37.2626 7.91628 37.2292 7.65574 37.2707 7.40179C37.3121 7.14783 37.4266 6.91144 37.6002 6.72148C37.7738 6.53152 37.9989 6.39621 38.2481 6.33208C38.4973 6.26794 38.7598 6.27775 39.0035 6.36031C39.2472 6.44287 39.4616 6.59461 39.6205 6.79699C39.7794 6.99938 39.8759 7.24366 39.8983 7.5V7.73075C39.8698 8.06035 39.7189 8.36733 39.4753 8.5912C39.2318 8.81507 38.9132 8.9396 38.5823 8.94025ZM35.8761 7.60875C35.8696 7.01814 35.6303 6.45394 35.2102 6.03871C34.7902 5.62348 34.2233 5.39073 33.6326 5.39103C33.042 5.39133 32.4753 5.62464 32.0556 6.04029C31.636 6.45595 31.3973 7.02038 31.3913 7.611C31.3913 8.986 32.4688 9.84899 33.6993 9.84899C34.3166 9.87609 34.924 9.68639 35.4161 9.31275C35.9231 8.9405 35.4626 8.28075 34.9221 8.62425C34.5803 8.89071 34.1504 9.0183 33.7186 8.9815C33.0186 8.9815 32.4811 8.57375 32.3723 7.98325H35.4113C35.7163 7.98325 35.8761 7.82375 35.8761 7.64075V7.60875ZM32.3808 7.211C32.4649 6.94366 32.6322 6.7102 32.8583 6.54473C33.0845 6.37926 33.3576 6.29045 33.6379 6.29129C33.9181 6.29213 34.1907 6.38256 34.4159 6.54938C34.641 6.7162 34.8069 6.95066 34.8893 7.2185L32.3808 7.211ZM28.4849 6.6245C28.4989 7.3415 30.9298 7.006 30.9298 8.53775C30.9298 9.4105 30.1756 9.85174 29.2779 9.85624C28.9818 9.88063 28.6838 9.84605 28.4012 9.75452C28.1186 9.66299 27.8569 9.51632 27.6314 9.323C27.1444 8.9425 27.7314 8.33925 28.1401 8.60575C28.4474 8.8621 28.8269 9.01634 29.2259 9.047C29.6696 9.05725 29.9509 8.97575 29.9854 8.65725C30.0641 7.93225 27.5579 8.23225 27.5579 6.6535C27.5579 5.81775 28.2809 5.37225 29.1579 5.37225C29.4289 5.36019 29.6995 5.40325 29.9534 5.49882C30.2072 5.59439 30.4391 5.74048 30.6349 5.92825C30.9098 6.18025 30.5599 6.7905 30.0474 6.4515C29.7993 6.26758 29.4979 6.17002 29.1891 6.17375C28.8366 6.17375 28.4789 6.2705 28.4859 6.625" fill="#323232"/>
</g>
</g>
<defs>
<clipPath id="clip0_823_142">
<rect width="40" height="16" fill="white" transform="translate(0.834717)"/>
</clipPath>
<clipPath id="clip1_823_142">
<rect width="40" height="9.0935" fill="white" transform="translate(0.834717 3.45325)"/>
</clipPath>
</defs>
</svg>
