<svg width="41" height="16" viewBox="0 0 41 16" fill="none" xmlns="http://www.w3.org/2000/svg">
<g clip-path="url(#clip0_806_1763)">
<g clip-path="url(#clip1_806_1763)">
<path d="M11.0035 5.62618V8.26169C11.0035 8.85982 10.9848 9.45795 10.5362 9.92524C10.1624 10.3178 9.56427 10.4486 9.04091 10.4486C8.51754 10.4486 7.91941 10.3178 7.54558 9.92524C7.09698 9.47664 7.07829 8.87851 7.07829 8.26169V5.62618H8.25586V8.09347C8.25586 8.71029 8.29324 9.36449 9.0596 9.36449C9.80726 9.36449 9.86334 8.6916 9.86334 8.09347V5.62618H11.0035ZM12.5362 7.60748C12.7979 7.21496 13.1157 7.10281 13.5456 7.10281C14.3867 7.10281 14.7045 7.64487 14.7045 8.41122V10.3738H13.6017V8.82244C13.6017 8.52337 13.6577 7.98132 13.097 7.98132C12.6484 7.98132 12.5175 8.31777 12.5175 8.71029V10.3551H11.4147V7.17758H12.5175V7.60748H12.5362ZM16.2746 6.14954C16.2746 6.52337 15.9755 6.84113 15.6203 6.84113C15.2652 6.84113 14.9661 6.52337 14.9661 6.14954C14.9661 5.77571 15.2652 5.45795 15.6203 5.45795C15.9755 5.45795 16.2746 5.75702 16.2746 6.14954ZM16.2372 10.3738H15.097V7.19627H16.2372V10.3738ZM18.2372 10.3738H17.0783V8.11216H16.5175V7.19627H17.0783V6.243H18.2372V7.19627H18.8914V8.11216H18.2372V10.3738ZM22.5362 8.8972H20.1811C20.1811 9.3458 20.4241 9.60748 20.8914 9.60748C21.1344 9.60748 21.3026 9.53272 21.4334 9.30842H22.5175C22.3306 10.0561 21.639 10.3925 20.9101 10.3925C19.8633 10.3925 19.0783 9.7944 19.0783 8.71029C19.0783 7.64487 19.8073 7.00935 20.8353 7.00935C21.9381 7.00935 22.5736 7.68225 22.5736 8.76636V8.8972H22.5362ZM21.4895 8.243C21.4334 7.94393 21.1531 7.73833 20.854 7.73833C20.5362 7.73833 20.2559 7.90655 20.1811 8.243H21.4895ZM25.2278 9.94393C25.0222 10.2617 24.6671 10.4112 24.3119 10.4112C23.4334 10.4112 22.7979 9.62618 22.7979 8.71029C22.7979 7.7944 23.4147 7.02805 24.2932 7.02805C24.6297 7.02805 25.0035 7.15889 25.2278 7.43926V5.60748H26.368V10.4112H25.2278V9.94393ZM23.9007 8.71029C23.9007 9.1215 24.1437 9.42057 24.5923 9.42057C25.0222 9.42057 25.2839 9.10281 25.2839 8.71029C25.2839 8.31777 25.0409 8.00001 24.5923 8.00001C24.1437 8.00001 23.9007 8.31777 23.9007 8.71029ZM26.5736 9.43926H26.7979C27.1344 9.43926 27.7138 9.45795 27.7138 8.93459C27.7138 8.35515 27.1531 8.41122 26.7792 8.41122H26.5923V7.49534H26.7979C27.097 7.49534 27.4147 7.43926 27.4147 7.02805C27.4147 6.59814 27.0596 6.56076 26.7418 6.56076H26.5923V5.60748H27.1531C27.9381 5.60748 28.4615 5.94393 28.4615 6.84113C28.4615 7.27104 28.3306 7.62618 27.9755 7.81309V7.83178C28.611 7.92524 28.8727 8.37384 28.8727 9.04674C28.8727 10.0374 28.0876 10.3738 27.2839 10.3738H26.5736V9.43926ZM32.7045 10.3738H31.583V10.0187H31.5643C31.3587 10.3365 30.9848 10.4673 30.611 10.4673C29.6764 10.4673 29.0222 9.68225 29.0222 8.76636C29.0222 7.85048 29.6764 7.08412 30.5923 7.08412C30.9474 7.08412 31.34 7.21496 31.5643 7.49534V7.17758H32.6858V10.3738H32.7045ZM30.1811 8.78506C30.1811 9.19627 30.4428 9.49534 30.8914 9.49534C31.34 9.49534 31.6017 9.17758 31.6017 8.78506C31.6017 8.39253 31.34 8.07477 30.8914 8.07477C30.4615 8.05608 30.1811 8.39253 30.1811 8.78506ZM34.2372 7.60748C34.4988 7.21496 34.8166 7.10281 35.2465 7.10281C36.0876 7.10281 36.4241 7.64487 36.4241 8.41122V10.3738H35.3026V8.82244C35.3026 8.52337 35.3587 7.98132 34.7979 7.98132C34.3493 7.98132 34.2185 8.31777 34.2185 8.71029V10.3551H33.097V7.17758H34.2185V7.60748H34.2372ZM37.9007 8.26169L39.0035 7.1215H40.4615L38.9661 8.57945L40.5549 10.2991H39.0596L37.9007 8.99066L37.9194 10.3551H36.7231L36.7045 5.38319H37.9007V8.26169ZM3.00352 7.27104V6.29907C3.00352 6.14954 3.0596 6.0187 3.15306 5.92524C3.26521 5.81309 3.37735 5.77571 3.52689 5.77571C3.67642 5.77571 3.80726 5.83178 3.90072 5.92524C4.01287 6.03739 4.05025 6.14954 4.05025 6.29907V6.56076H4.8353V6.31777C4.8353 5.96263 4.70446 5.66356 4.46147 5.40188C4.21848 5.1402 3.90072 5.02805 3.54558 5.02805C3.19044 5.02805 2.89137 5.15889 2.62969 5.40188C2.3867 5.64487 2.25586 5.96263 2.25586 6.31777V8.35515H2.98483V7.27104H3.00352ZM4.06894 8.67291V9.66356C4.06894 9.81309 4.01287 9.94393 3.91941 10.0374C3.80726 10.1495 3.69511 10.1869 3.54558 10.1869C3.39605 10.1869 3.26521 10.1308 3.17175 10.0374C3.0596 9.92524 3.02221 9.81309 3.02221 9.66356V9.43926H2.27455V9.68225C2.27455 10.0374 2.40539 10.3365 2.64838 10.5981C2.89137 10.8411 3.20913 10.972 3.56427 10.972C3.91941 10.972 4.21848 10.8411 4.48016 10.5981C4.72315 10.3551 4.85399 10.0374 4.85399 9.68225V7.64487H4.06894V8.67291Z" fill="#25346F"/>
<path d="M3.90048 9.28974V8.50469H1.8631C1.71357 8.50469 1.58272 8.44861 1.48927 8.35516C1.37712 8.24301 1.33973 8.13086 1.33973 7.98132C1.33973 7.83179 1.39581 7.70095 1.48927 7.60749C1.60142 7.49534 1.71357 7.45796 1.8631 7.45796H2.0874V6.7103H1.84441C1.48927 6.7103 1.1902 6.84114 0.928519 7.08413C0.685529 7.32712 0.554688 7.64488 0.554688 8.00002C0.554688 8.35516 0.685529 8.65422 0.928519 8.9159C1.17151 9.15889 1.48927 9.28974 1.84441 9.28974H3.90048ZM5.24628 6.7103H3.17151V7.43927H5.26497C5.4145 7.43927 5.54534 7.49534 5.6388 7.5888C5.75095 7.70095 5.78833 7.8131 5.78833 7.96263C5.78833 8.11217 5.73226 8.24301 5.6388 8.33646C5.52665 8.44861 5.4145 8.486 5.26497 8.486H5.00329V9.27104H5.24628C5.60142 9.27104 5.90048 9.1402 6.16216 8.89721C6.42385 8.65422 6.536 8.33646 6.536 7.98132C6.536 7.62618 6.40515 7.32712 6.16216 7.06544C5.91917 6.84114 5.60142 6.7103 5.24628 6.7103Z" fill="#25346F"/>
</g>
</g>
<defs>
<clipPath id="clip0_806_1763">
<rect width="40" height="16" fill="white" transform="translate(0.554688)"/>
</clipPath>
<clipPath id="clip1_806_1763">
<rect width="40" height="5.94393" fill="white" transform="translate(0.554688 5.02805)"/>
</clipPath>
</defs>
</svg>
