<svg width="40" height="16" viewBox="0 0 40 16" fill="none" xmlns="http://www.w3.org/2000/svg">
<g clip-path="url(#clip0_807_2988)">
<path d="M14.2217 11.8088C13.709 11.8088 13.2683 11.7145 12.9 11.5262C12.5313 11.3378 12.248 11.0528 12.05 10.6712C11.8517 10.2895 11.7527 9.81683 11.7527 9.2535V4.67883H12.5463V9.2635C12.5463 9.68783 12.613 10.0355 12.7467 10.3065C12.88 10.5775 13.0717 10.7775 13.3217 10.9058C13.5713 11.0345 13.8723 11.0988 14.2247 11.0988C14.577 11.0988 14.877 11.0348 15.125 10.9072C15.373 10.7795 15.563 10.5795 15.695 10.3075C15.827 10.0358 15.8927 9.6875 15.8927 9.2635V4.67883H16.6863V9.2535C16.6863 9.81683 16.5877 10.2892 16.3903 10.6698C16.193 11.0508 15.9103 11.3358 15.5427 11.5248C15.175 11.7142 14.7347 11.8085 14.222 11.8085L14.2217 11.8088Z" fill="#1E405A"/>
<path d="M16.04 4.67883H16.6947L19.3507 9.33716C19.4687 9.54683 19.5867 9.76483 19.7043 9.99083C19.8223 10.2168 19.9477 10.4618 20.0803 10.7255C20.0933 10.7485 20.105 10.7715 20.1147 10.7942C20.1243 10.8172 20.135 10.8402 20.1467 10.8628L20.0483 11.0815C20.0467 11.0242 20.0443 10.9678 20.041 10.9118C20.0377 10.8562 20.0343 10.8005 20.0313 10.7448C20.023 10.4518 20.0167 10.1928 20.0117 9.9685C20.0067 9.74416 20.0033 9.53783 20.002 9.34916L19.997 4.6785H20.7637V11.6758H19.83L17.4197 7.45716C17.2967 7.24416 17.1707 7.0185 17.0413 6.78016C16.912 6.54183 16.79 6.31116 16.6753 6.0885C16.5607 5.86583 16.465 5.6685 16.388 5.4965C16.388 5.4965 15.9923 4.6785 16.0403 4.6785L16.04 4.67883Z" fill="#1E405A"/>
<path d="M21.872 11.6762V4.67883H25.985V5.39883H22.6657V11.6762H21.872ZM22.415 8.4035V7.6935H25.6507V8.4035H22.415Z" fill="#1E405A"/>
<path d="M29.3543 11.8135C28.786 11.8135 28.2863 11.6755 27.8557 11.3995C27.425 11.1235 27.0903 10.7132 26.852 10.1685C26.6137 9.62382 26.4943 8.96015 26.4943 8.17715C26.4943 7.39415 26.6137 6.72982 26.852 6.18348C27.0903 5.63715 27.424 5.22648 27.8533 4.95148C28.2827 4.67648 28.782 4.53882 29.352 4.53882C29.804 4.53882 30.214 4.62515 30.5817 4.79815C30.9493 4.97082 31.2587 5.24382 31.5093 5.61615C31.76 5.98882 31.9287 6.46082 32.0153 7.03248H31.2193C31.1407 6.61148 31.012 6.26948 30.8337 6.00682C30.655 5.74382 30.4407 5.55348 30.19 5.43548C29.9393 5.31748 29.6627 5.25848 29.3597 5.25848C28.9403 5.25848 28.5787 5.36748 28.275 5.58515C27.971 5.80315 27.7357 6.12982 27.5687 6.56548C27.4017 7.00115 27.318 7.53848 27.318 8.17715C27.318 8.81582 27.4007 9.35315 27.566 9.78882C27.7313 10.2245 27.968 10.5518 28.276 10.7705C28.584 10.9892 28.946 11.0985 29.362 11.0985C29.678 11.0985 29.971 11.0282 30.2403 10.8872C30.5097 10.7462 30.735 10.5272 30.916 10.2298C31.097 9.93248 31.2103 9.55782 31.2563 9.10582H32.0547C32.0007 9.71015 31.8473 10.2152 31.5953 10.6205C31.343 11.0258 31.0237 11.3262 30.637 11.5208C30.2503 11.7158 29.823 11.8132 29.3547 11.8132L29.3543 11.8135Z" fill="#1E405A"/>
<path d="M35.5957 11.8088C35.083 11.8088 34.6423 11.7145 34.274 11.5262C33.9053 11.3378 33.622 11.0528 33.424 10.6712C33.226 10.2895 33.1267 9.81683 33.1267 9.2535V4.67883H33.9203V9.2635C33.9203 9.68783 33.987 10.0355 34.1207 10.3065C34.254 10.5775 34.4457 10.7775 34.6957 10.9058C34.9453 11.0345 35.2463 11.0988 35.5987 11.0988C35.951 11.0988 36.251 11.0348 36.499 10.9072C36.747 10.7795 36.937 10.5795 37.069 10.3075C37.201 10.0358 37.2667 9.6875 37.2667 9.2635V4.67883H38.0603V9.2535C38.0603 9.81683 37.9617 10.2892 37.7643 10.6698C37.567 11.0508 37.2843 11.3358 36.9167 11.5248C36.549 11.7142 36.1087 11.8085 35.596 11.8085L35.5957 11.8088Z" fill="#1E405A"/>
<path d="M39.2127 5.53248V5.01181H39.4383C39.4747 5.01181 39.5063 5.01748 39.5333 5.02881C39.5603 5.04014 39.581 5.05681 39.5957 5.07814C39.6103 5.09981 39.6177 5.12548 39.6177 5.15514C39.6177 5.17981 39.613 5.20114 39.604 5.21948C39.595 5.23781 39.582 5.25248 39.5653 5.26381C39.5487 5.27514 39.529 5.28248 39.5067 5.28614V5.27514C39.529 5.27881 39.547 5.28514 39.561 5.29414C39.5747 5.30314 39.5853 5.31514 39.592 5.33014C39.5987 5.34514 39.603 5.36314 39.6043 5.38514L39.6097 5.46748C39.61 5.47581 39.611 5.48381 39.6127 5.49148C39.614 5.49914 39.616 5.50648 39.6187 5.51348C39.6213 5.52048 39.6243 5.52648 39.628 5.53214H39.55C39.5457 5.52548 39.5423 5.51781 39.54 5.50881C39.5377 5.49981 39.536 5.48981 39.535 5.47848C39.535 5.47648 39.535 5.47414 39.5347 5.47214C39.5347 5.47014 39.5347 5.46781 39.5343 5.46548L39.532 5.40948C39.531 5.38581 39.5273 5.36748 39.521 5.35414C39.5143 5.34081 39.505 5.33114 39.4923 5.32548C39.48 5.31981 39.4633 5.31714 39.443 5.31714H39.2583V5.25348H39.4413C39.4613 5.25348 39.4787 5.25014 39.4933 5.24314C39.508 5.23648 39.5197 5.22614 39.528 5.21214C39.5363 5.19848 39.5403 5.18148 39.5403 5.16148C39.5403 5.14248 39.536 5.12648 39.5277 5.11381C39.5193 5.10114 39.5073 5.09181 39.4913 5.08581C39.4757 5.07981 39.4567 5.07681 39.435 5.07681H39.2583L39.2887 5.04414V5.53248H39.213H39.2127Z" fill="#1D3F59"/>
<path d="M39.42 5.85181C39.1003 5.85181 38.84 5.59181 38.84 5.27214C38.84 4.95247 39.1 4.69247 39.42 4.69247C39.74 4.69247 40 4.95247 40 5.27214C40 5.59181 39.74 5.85181 39.42 5.85181ZM39.42 4.76081C39.138 4.76081 38.9087 4.99014 38.9087 5.27214C38.9087 5.55414 39.138 5.78347 39.42 5.78347C39.702 5.78347 39.9313 5.55414 39.9313 5.27214C39.9313 4.99014 39.702 4.76081 39.42 4.76081Z" fill="#1D3F59"/>
<path d="M9.281 11.8075C9.281 12.3085 8.83767 12.7155 8.291 12.7155H0.99C0.443333 12.7155 0 12.3085 0 11.8075V4.19248C0 3.69082 0.443333 3.28448 0.99 3.28448H8.291C8.83767 3.28448 9.281 3.69082 9.281 4.19248V11.8078V11.8075Z" fill="#1D3F59"/>
<path d="M9.56067 6.00247L9.57634 6.15814L9.52567 6.3088L9.48201 6.45514L9.42267 6.5968L9.35101 6.7338L9.28334 6.87514L9.17867 6.9978L9.07834 7.08447L8.96734 7.15947L8.87301 7.24147L8.74867 7.3098L8.64467 7.3968L8.52301 7.4608L8.39101 7.50714L8.26001 7.5578L8.12001 7.58447L7.98167 7.62214L7.83901 7.6408L7.75501 7.62214L7.60034 7.6478L7.44867 7.63114L7.30067 7.6158L7.15934 7.5828L6.97734 7.5578L6.84134 7.5168L6.69334 7.43047L6.56934 7.3738L6.46167 7.2978L6.34467 7.23147L6.23501 7.11647L6.12734 7.0388L6.05867 6.93447L5.95667 6.82247L5.92901 6.72347L5.88767 6.60814L5.85934 6.48947L5.84134 6.3678V6.2678L5.82434 6.1128L5.84634 5.95914L5.90767 5.81314L5.96301 5.66914L6.04001 5.5328L6.13601 5.40614L6.21967 5.2718L6.33534 5.19714L6.41834 5.09747L6.53434 5.02714L6.64201 4.9478L6.75467 4.8728L6.88767 4.82814L7.00967 4.7628L7.14701 4.7318L7.28567 4.70514L7.42101 4.66114L7.56301 4.6508H7.64601L7.79967 4.6358H7.95134L8.10134 4.64647L8.24634 4.6728L8.42367 4.71014L8.55901 4.75514L8.70934 4.8368L8.83701 4.8908L8.95134 4.9598L9.05167 5.04314L9.18201 5.14214L9.27434 5.2318L9.35201 5.33147L9.42234 5.4348L9.46534 5.55014L9.50001 5.66647L9.52901 5.7838L9.55301 5.9038L9.56034 6.00247H9.56067ZM7.69867 4.86947L7.55034 4.8888L7.40567 4.91447L7.27034 4.96747L7.14401 5.03214L7.03201 5.11447L6.92201 5.19647L6.82167 5.28914L6.71467 5.38014L6.67401 5.47914L6.62001 5.56947L6.55834 5.65914L6.50867 5.7548L6.47367 5.8558L6.45067 5.95914L6.44734 6.06414L6.45634 6.16947L6.45801 6.2298V6.34614L6.46334 6.46147L6.51267 6.56614L6.54267 6.67447L6.60067 6.77147L6.64734 6.87247L6.73767 6.98014L6.81201 7.0638L6.93134 7.1428L7.02534 7.2048L7.11167 7.2768L7.21701 7.3238L7.31234 7.35614L7.43967 7.3948L7.54334 7.40747L7.67901 7.41414H7.79101L7.94067 7.39547L8.08434 7.35847L8.21134 7.29014L8.34334 7.23814L8.46934 7.1728L8.57801 7.0858L8.68334 6.99547L8.75967 6.8848L8.81367 6.79347L8.87767 6.7068L8.94067 6.6168L8.97867 6.5178L8.99401 6.4138L9.01567 6.3118L9.04234 6.20847L9.05167 6.1028L9.03067 6.04314L9.02301 5.92847L9.01201 5.81447L8.98934 5.70347L8.94634 5.5988L8.89301 5.50014L8.82267 5.4118L8.75834 5.28947L8.67767 5.21014L8.56334 5.12547L8.46734 5.0658L8.38067 4.99414L8.26534 4.96414L8.16001 4.91847L8.04434 4.89847L7.92834 4.8818L7.81167 4.8568L7.69967 4.8688L7.69867 4.86947Z" fill="white"/>
<path d="M8.29132 9.7055L8.12765 10.0092L7.96132 10.3258L7.73032 10.5975L7.46699 10.8375L7.22765 11.1028L6.92999 11.3082L6.60965 11.4825L6.31699 11.5515L6.03565 11.6355L5.76365 11.7518L5.47099 11.8142L5.16365 11.7972L4.86332 11.8048L4.56165 11.7842L4.25665 11.7862L3.95699 11.7162L3.65865 11.6408L3.34265 11.6062L3.16732 11.5575L2.86699 11.3995L2.58065 11.2312L2.29132 11.0762L2.03765 10.8788L1.72665 10.6315L1.46465 10.4452L1.26532 10.1138L1.04565 9.8925L0.915987 9.62183L0.758654 9.3665L0.619987 9.0115L0.519654 8.74883L0.484987 8.4625L0.49132 8.1765L0.467987 7.8935L0.47432 7.60883L0.546654 7.33317L0.62732 7.04483L0.71332 6.84583L0.85232 6.51283L1.04032 6.2095L1.24432 5.9175L1.49865 5.6675L1.77499 5.44117L2.08465 5.25683L2.38032 5.04883L2.65565 4.9445L2.95765 4.9075L3.23599 4.81817L3.51999 4.73083L3.82499 4.74283L4.12265 4.70017L4.42665 4.68317L4.73465 4.6975L5.02832 4.81517L5.32665 4.88783L5.63599 4.9385L5.80032 5.01583L6.13365 5.0985L6.41899 5.2735L6.70065 5.44183L6.94332 5.65283L7.29565 5.8595L7.47232 6.12083L7.71432 6.41617L7.91332 6.6485L8.08232 6.8985L8.24399 7.1535L8.38965 7.49417L8.40965 7.78683L8.50799 8.0625L8.49465 8.34883L8.50632 8.6345L8.47699 8.91217L8.44099 9.20417L8.35565 9.46417L8.29132 9.7065V9.7055ZM5.70265 5.3945L5.33832 5.27917L4.96999 5.20883L4.60232 5.17283L4.23465 5.1585L3.88232 5.22183L3.54365 5.3105L3.20965 5.4115L2.89932 5.55283L2.63132 5.6475L2.42332 5.81517L2.17832 5.94917L2.04465 6.17817L1.84965 6.35817L1.64199 6.53783L1.55532 6.7865L1.40499 7.00483L1.34865 7.1455L1.22865 7.40983L1.15465 7.69683L1.09565 7.96183L1.07599 8.2425L1.14065 8.52283L1.15765 8.7985L1.22532 9.1395L1.36499 9.3945L1.47099 9.72617L1.63432 9.96583L1.83999 10.1795L2.01999 10.4042L2.25032 10.5925L2.47665 10.7838L2.72332 10.9588L3.01932 11.0632L3.27332 11.1948L3.63565 11.3302L4.01232 11.3832L4.38365 11.4235L4.75299 11.4282L5.10299 11.3525L5.46599 11.3148L5.78632 11.1788L6.10365 11.0428L6.31732 10.8825L6.54465 10.7392L6.74765 10.5705L6.97832 10.4208L7.17299 10.2362L7.31532 10.0168L7.45399 9.79517L7.54032 9.6005L7.62132 9.43783L7.72565 9.1515L7.81799 8.8825L7.84665 8.6025L7.88899 8.32617L7.86232 8.04683L7.78799 7.77383L7.76099 7.42983L7.65865 7.16617L7.49965 6.84817L7.32465 6.61517L7.14632 6.38883L6.97599 6.15683L6.75799 5.9555L6.52165 5.7695L6.24265 5.63417L5.98765 5.4635L5.70232 5.39317L5.70265 5.3945Z" fill="white"/>
<path d="M2.45235 6.8085C2.59101 6.90983 2.81035 7.10483 3.02635 7.21016C3.39401 7.38983 3.52001 7.43217 3.97968 7.58417C4.23868 7.6695 4.20068 7.5265 4.20068 7.5265C4.17735 7.4495 4.23068 7.25416 4.23068 7.25416C4.34101 7.05183 4.75735 7.29216 4.56101 7.59683C4.51035 7.67516 4.70735 7.68616 4.79235 7.67816C4.79235 7.67816 5.10001 7.6595 5.43635 7.47283C5.74901 7.2995 6.32368 7.01416 6.48068 6.87383C6.63701 6.7335 6.69035 7.08216 6.69035 7.08216C6.69035 7.08216 6.28201 7.4635 6.13801 7.5395C5.83668 7.69883 5.45101 7.95383 5.23701 8.02716C4.97401 8.11583 4.86001 8.25783 4.80101 8.3985C4.80101 8.3985 4.75835 8.5195 4.78601 8.59116C4.84235 8.73516 5.37001 9.74183 5.50635 10.2518C5.68268 10.9142 6.02368 11.4235 6.02368 11.4235H5.61568C5.61568 11.4235 5.07101 10.6052 4.88501 10.1422C4.81068 9.9585 4.53235 9.41716 4.36901 9.26216C4.08035 9.27583 3.42735 11.2635 3.42735 11.2635C3.39935 11.4115 3.31168 11.3625 3.31168 11.3625C3.31168 11.3625 2.90535 11.4085 2.92935 11.2425C2.96901 10.9698 3.38368 9.6795 3.49035 9.46483C3.54801 9.34983 3.78901 8.78483 3.82835 8.66916C3.86835 8.55183 3.86535 8.48983 3.86535 8.48983C3.81701 8.14517 3.64735 8.07183 3.64735 8.07183C3.52768 7.96916 2.94268 7.66783 2.73368 7.46783C2.34835 7.1005 2.24335 7.02516 2.23601 6.96583C2.23268 6.93616 2.22701 6.88516 2.26268 6.84283C2.26268 6.84283 2.34835 6.73116 2.45335 6.80716" fill="white"/>
<path d="M1.17332 4.16281C1.15332 4.26514 1.28399 4.52014 1.36332 4.61681C1.79632 5.14381 2.05299 5.59614 2.53899 6.08781C2.77065 6.29881 2.93532 6.50181 3.31432 6.68114C3.35365 6.70248 3.45865 6.73214 3.44665 6.69714C2.93132 5.93581 2.37332 5.23581 1.56299 4.53814C1.56299 4.53814 1.20199 4.19681 1.17332 4.16281Z" fill="white"/>
<path d="M3.13467 4.57915C3.10467 4.93048 2.80334 5.11548 2.55334 5.36048C2.30234 5.69015 1.75401 5.86615 1.23234 6.02915C1.12767 6.07848 0.866008 6.16381 0.647675 5.97248C1.51034 5.56315 2.20701 5.12148 2.70801 4.48681C2.76167 4.41848 2.78034 4.37615 2.81401 4.26815C2.81401 4.26815 3.14367 4.17015 3.13501 4.57948" fill="white"/>
<path d="M0.453675 4.91782L0.415009 5.03982C0.415009 5.03982 2.15734 5.69115 3.74968 5.94615C3.74968 5.94615 3.99467 5.96015 4.04467 5.77715C4.04467 5.77715 0.973009 5.09548 0.454009 4.91782" fill="white"/>
</g>
<defs>
<clipPath id="clip0_807_2988">
<rect width="40" height="9.431" fill="white" transform="translate(0 3.28448)"/>
</clipPath>
</defs>
</svg>
