<svg width="30" height="16" viewBox="0 0 30 16" fill="none" xmlns="http://www.w3.org/2000/svg">
<g clip-path="url(#clip0_829_236)">
<path d="M15.4398 0.465709C15.3984 0.45536 15.3363 0.424307 15.2949 0.434656H15.2846C15.2949 0.434656 15.2949 0.445009 15.3156 0.445009C15.2846 0.455359 15.2742 0.445006 15.2639 0.434656C15.2742 0.445006 15.2742 0.445008 15.2639 0.476056C15.2639 0.476056 15.2639 0.476053 15.2639 0.486403C15.3156 0.496752 15.3674 0.527805 15.4501 0.517456C15.4398 0.507106 15.3984 0.486405 15.3673 0.476056C15.3673 0.476056 15.3673 0.476056 15.357 0.476056C15.4087 0.486405 15.4501 0.507104 15.4915 0.527802L15.5019 0.517456C15.4915 0.548503 15.4708 0.548503 15.4708 0.569202C15.388 0.558853 15.326 0.527805 15.2846 0.620948C15.2949 0.631298 15.2949 0.631296 15.3156 0.651995C15.3053 0.651995 15.3053 0.651993 15.2846 0.662342C15.2846 0.672691 15.2846 0.67269 15.2846 0.693388C15.326 0.724436 15.3363 0.745139 15.3777 0.755488C15.3777 0.765837 15.3777 0.796885 15.388 0.807234C15.3984 0.817584 15.3984 0.817584 15.4191 0.807234C15.4294 0.817584 15.4191 0.838278 15.4294 0.848628C15.4605 0.879676 15.5329 0.931422 15.564 0.952121C15.564 0.96247 15.564 0.983171 15.5743 0.99352C15.6054 1.02457 15.6364 1.02457 15.6675 1.04527C15.6778 1.04527 15.6675 1.04526 15.6675 1.05561C15.7296 1.08666 15.8227 1.08666 15.8745 1.10736C15.8848 1.11771 15.8745 1.10736 15.8745 1.11771C15.9262 1.12806 15.978 1.14876 16.0297 1.15911H16.0401C16.0401 1.14876 16.0401 1.14876 16.0401 1.12806C16.0711 1.11771 16.0815 1.07631 16.1021 1.04527C16.0918 1.01422 16.0918 1.01422 16.0918 0.99352C16.1332 0.99352 16.1539 0.96247 16.1849 0.952121C16.1849 0.921073 16.1849 0.921077 16.1539 0.910727C16.1642 0.900378 16.1642 0.910727 16.1849 0.910727L16.1953 0.900374C16.1849 0.890025 16.1642 0.869328 16.1539 0.869328C16.1539 0.869328 16.1539 0.869328 16.1435 0.869328C16.1746 0.869328 16.1849 0.879677 16.2056 0.869328C16.2056 0.869328 16.2056 0.869328 16.216 0.869328C16.216 0.858978 16.2056 0.85898 16.2056 0.838281C16.2367 0.84863 16.2574 0.848628 16.2988 0.848628C16.2988 0.838278 16.2988 0.817581 16.3091 0.817581C16.3195 0.817581 16.3195 0.817581 16.3402 0.817581C16.3298 0.82793 16.3298 0.848628 16.3091 0.848628C16.3091 0.848628 16.3091 0.848632 16.3091 0.858981C16.4023 0.890029 16.4644 0.848633 16.5575 0.827934C16.5575 0.817585 16.5575 0.81758 16.5575 0.796881C16.661 0.765833 16.8266 0.838283 16.9301 0.827934C16.9611 0.827934 16.5472 0.558849 16.1125 0.455356C15.8227 0.382911 15.4294 0.445011 15.4398 0.465709ZM14.1772 0.662342C14.2289 0.672691 14.291 0.672694 14.3531 0.703741C14.4049 0.734789 14.4152 0.765835 14.4877 0.765835C14.4773 0.776184 14.4566 0.765835 14.4463 0.765835C14.4566 0.796883 14.4773 0.807234 14.5084 0.807234C14.5084 0.807234 14.498 0.807232 14.498 0.817581C14.5084 0.82793 14.5291 0.848632 14.5498 0.858981H14.5601C14.5601 0.848632 14.5601 0.848628 14.5498 0.848628C14.6636 0.890025 14.7774 0.962472 14.9016 0.99352C14.9016 0.983171 14.9016 0.983174 14.912 0.983174C14.8706 0.931427 14.7774 0.879676 14.7153 0.848628V0.838281C14.7464 0.84863 14.7671 0.869331 14.7981 0.879681V0.858981C14.8602 0.900378 14.9534 0.952123 15.0258 0.99352C15.0362 0.99352 15.0362 0.99352 15.0569 0.99352C15.0569 0.99352 15.0569 0.99352 15.0672 0.99352C15.0362 0.983171 15.0258 0.983168 15.0155 0.952121C15.0258 0.952121 15.0465 0.962474 15.0465 0.962474C15.0465 0.952124 15.0465 0.952126 15.0362 0.931427C15.0362 0.931427 15.0362 0.931423 15.0362 0.921074C15.0465 0.931423 15.0465 0.921078 15.0465 0.931427C15.0776 0.931427 15.0569 0.931423 15.0776 0.921074C15.0776 0.931423 15.0879 0.931422 15.0879 0.952121C15.0879 0.952121 15.0879 0.941774 15.0776 0.941774C15.0879 0.941774 15.0879 0.941774 15.1086 0.941774C15.1086 0.941774 15.1086 0.941776 15.1086 0.931427C15.0776 0.921078 15.0672 0.900377 15.0258 0.890027C15.0258 0.890027 15.0258 0.89003 15.0258 0.879681C15.0362 0.879681 15.0362 0.879681 15.0569 0.879681C15.0258 0.869331 14.9637 0.796883 14.912 0.817581C14.912 0.786533 14.9016 0.765837 14.8706 0.755488C14.8809 0.755488 14.9016 0.755488 14.9016 0.755488C14.9016 0.755488 14.9016 0.755484 14.9016 0.745135L14.8913 0.734788C14.943 0.734788 14.9844 0.786535 15.0362 0.786535C15.0258 0.838281 15.1293 0.848633 15.15 0.879681C15.1811 0.879681 15.1811 0.869328 15.1914 0.869328C15.1914 0.869328 15.1811 0.86933 15.1811 0.858981C15.1811 0.848632 15.1811 0.848628 15.1914 0.848628C15.2225 0.858977 15.2328 0.858977 15.2535 0.848628V0.858981C15.2639 0.858981 15.2639 0.858981 15.2846 0.858981L15.2742 0.848628C15.2846 0.838278 15.2742 0.848628 15.2846 0.848628H15.2949C15.2949 0.838278 15.2846 0.83828 15.2846 0.817581C15.326 0.82793 15.3363 0.82793 15.3673 0.817581C15.357 0.776184 15.3156 0.765839 15.2742 0.776188C15.2742 0.765839 15.2742 0.776184 15.2846 0.765835C15.2742 0.765835 15.2535 0.765835 15.2432 0.765835C15.2328 0.765835 15.2121 0.734788 15.1811 0.734788C15.1914 0.724439 15.1811 0.734791 15.1914 0.724441C15.1811 0.714092 15.1397 0.683039 15.1086 0.693388C15.1086 0.693388 15.1086 0.693391 15.0983 0.683042C15.0983 0.683042 15.1086 0.683044 15.1086 0.672695C15.0672 0.662346 15.0569 0.641647 15.0258 0.672695C14.9948 0.662346 14.9948 0.641645 14.9637 0.631295C14.9637 0.631295 14.9637 0.620948 14.9741 0.620948C14.943 0.610599 14.912 0.610594 14.8809 0.589896C14.8913 0.589896 14.8913 0.589896 14.912 0.589896C14.912 0.579546 14.912 0.579548 14.912 0.558849C14.943 0.569198 14.9637 0.569197 15.0051 0.589896C15.0051 0.589896 15.0051 0.589898 15.0155 0.579549C15.0051 0.5692 14.9741 0.548502 14.9534 0.548502V0.538149C14.9637 0.538149 14.9844 0.548502 14.9948 0.548502V0.538149C14.9534 0.507101 14.9534 0.507103 14.8913 0.507103C14.9016 0.496753 14.9016 0.496756 14.9327 0.496756C14.8913 0.465708 14.8292 0.486404 14.7878 0.455356L14.7464 0.413963C14.7153 0.403613 14.6119 0.372563 14.6015 0.372563C14.6015 0.372563 14.6015 0.362216 14.6118 0.362216C14.5705 0.351867 14.5291 0.331168 14.498 0.31047C14.5084 0.31047 14.5291 0.31047 14.5291 0.31047C14.5187 0.279422 14.3324 0.351863 14.291 0.40361C14.2807 0.40361 14.3738 0.465709 14.3428 0.465709C14.3428 0.465709 14.3428 0.476056 14.3324 0.476056C14.3324 0.476056 14.3324 0.476056 14.3221 0.476056C14.3324 0.486405 14.4152 0.486403 14.4359 0.486403C14.4359 0.486403 14.4359 0.486406 14.4359 0.496756C14.4256 0.507105 14.4049 0.496756 14.3945 0.496756C14.3945 0.496756 14.3945 0.496756 14.3842 0.496756C14.3945 0.527804 14.4256 0.527801 14.4463 0.507103L14.4566 0.538149C14.4463 0.538149 14.4256 0.527802 14.4049 0.527802C14.4152 0.55885 14.4566 0.569202 14.498 0.569202V0.558849C14.4877 0.558849 14.467 0.558851 14.4566 0.548502C14.4566 0.538153 14.4566 0.538154 14.4566 0.517456C14.4877 0.527805 14.498 0.548502 14.5187 0.548502C14.5187 0.57955 14.5291 0.589897 14.5291 0.610595C14.467 0.620945 14.3945 0.620943 14.3428 0.641642C14.3428 0.641642 14.3428 0.641646 14.3428 0.651995C14.3531 0.662344 14.3738 0.683039 14.3842 0.693388C14.3428 0.683039 14.291 0.693391 14.2496 0.683042C14.1565 0.672692 14.0944 0.620948 14.0116 0.672695V0.683042C14.053 0.672692 14.1254 0.662342 14.1772 0.662342ZM14.7257 0.651995C14.7153 0.631296 14.7153 0.651995 14.7257 0.651995C14.7153 0.631296 14.7153 0.631296 14.7257 0.651995ZM14.4773 0.476056C14.4877 0.476056 14.4877 0.476056 14.4773 0.476056V0.476056ZM14.6015 0.610595C14.6119 0.610595 14.6119 0.600249 14.6325 0.600249C14.6739 0.610598 14.6636 0.631295 14.7153 0.631295C14.7153 0.641645 14.7257 0.631293 14.705 0.641642L14.7153 0.651995C14.6636 0.641646 14.6532 0.641642 14.6015 0.641642C14.6015 0.620943 14.6015 0.620945 14.6015 0.610595ZM14.5291 0.672695C14.5601 0.683044 14.5808 0.68304 14.5912 0.714088C14.5912 0.714088 14.5912 0.724441 14.6015 0.724441C14.5705 0.714092 14.5394 0.714087 14.498 0.693388C14.498 0.693388 14.498 0.693391 14.498 0.683042C14.5084 0.683042 14.5291 0.683044 14.5291 0.672695C14.5291 0.683044 14.5291 0.683044 14.5291 0.672695ZM11.5588 3.47735C11.5899 3.5084 11.6727 3.4463 11.714 3.4463C11.7244 3.47735 11.7658 3.56014 11.7968 3.56014C11.8382 3.64294 11.7451 3.67399 11.7451 3.73608C11.7451 3.73608 11.7451 3.73608 11.7554 3.73608C11.7658 3.72573 11.7658 3.72573 11.7658 3.70503C11.7658 3.70503 11.7658 3.70503 11.7761 3.70503C11.7865 3.73608 11.7761 3.71538 11.7865 3.71538C11.7761 3.72573 11.7554 3.74643 11.7451 3.75678C11.7347 3.76713 11.7451 3.80852 11.7554 3.84992C11.7658 3.84992 11.7658 3.84992 11.7865 3.86027C11.7865 3.86027 11.7865 3.84992 11.7968 3.84992C11.7968 3.84992 11.7968 3.84992 11.7968 3.86027C11.7865 3.89132 11.7865 3.89132 11.7658 3.91202C11.7761 3.91202 11.7658 3.91202 11.7761 3.91202C11.7865 3.92237 11.7865 3.94306 11.7865 3.95341C11.7865 4.01551 11.8486 4.01551 11.8279 4.08796C11.8589 4.11901 11.921 4.09831 11.9314 4.09831C11.9314 4.04656 11.9935 3.99481 12.0142 3.95341C12.0452 3.89132 12.0142 3.80853 12.0142 3.72573C12.0245 3.72573 12.0245 3.72573 12.0452 3.71538C12.0349 3.66364 12.0349 3.60154 12.0142 3.53944C12.0245 3.33246 12.2108 3.27036 12.3868 3.21862C12.4695 3.18757 12.4385 3.12548 12.5834 3.15652C12.6248 3.09443 12.7386 3.10477 12.8214 3.07372C12.8214 3.07372 12.8214 3.07373 12.8214 3.06338C12.8111 3.05303 12.8111 3.06338 12.7904 3.03233C12.8007 3.02198 12.8732 3.00128 12.8939 3.00128C12.9042 2.99094 12.9042 2.97023 12.9249 2.97023C12.9146 2.95988 12.8835 2.93919 12.8628 2.93919C12.8939 2.93919 12.9146 2.94954 12.9456 2.94954C12.9456 2.95989 12.9456 2.98058 12.9456 2.98058C12.9456 2.98058 12.956 2.89779 12.956 2.84605C12.9456 2.84605 12.9456 2.84604 12.9249 2.83569C12.9146 2.82534 12.9249 2.83569 12.9249 2.82535C12.9249 2.815 12.956 2.7736 12.9663 2.74255C12.956 2.7322 12.9663 2.65976 12.9663 2.64941C12.9767 2.63906 13.0077 2.60801 13.0181 2.59766C12.9767 2.65976 12.987 2.65976 12.9767 2.74255C12.987 2.74255 13.0077 2.7529 13.0181 2.7529C12.987 2.78395 12.9663 2.78395 12.956 2.80465C12.956 2.80465 12.956 2.80464 12.956 2.81499C12.9663 2.81499 12.956 2.815 12.987 2.82535C13.0181 2.7736 13.1009 2.74255 13.1422 2.68045C13.1112 2.64941 13.1319 2.63906 13.1112 2.59766C13.1216 2.60801 13.1423 2.62871 13.1629 2.63906L13.1526 2.64941C13.2147 2.65976 13.2975 2.58731 13.3285 2.53557C13.3285 2.52522 13.3285 2.52521 13.3182 2.52521C13.3182 2.52521 13.3182 2.52522 13.3182 2.51487C13.3803 2.50452 13.4941 2.52522 13.5666 2.51487C13.5562 2.50452 13.5562 2.50452 13.5355 2.48382C13.4734 2.49417 13.4217 2.47347 13.3596 2.48382C13.4217 2.43207 13.6494 2.51486 13.7425 2.47347C13.7529 2.50452 13.7839 2.50451 13.8253 2.50451C13.8253 2.49416 13.8357 2.49417 13.8357 2.47347C13.8357 2.47347 13.8253 2.46312 13.8253 2.44242C13.815 2.47347 13.8253 2.47347 13.7943 2.47347C13.7839 2.47347 13.7632 2.47347 13.7632 2.47347C13.7632 2.44242 13.7632 2.42172 13.7218 2.41137C13.7218 2.41137 13.7218 2.41137 13.7218 2.40102C13.7322 2.40102 13.7632 2.39067 13.7736 2.39067C13.7736 2.38033 13.7632 2.38033 13.7632 2.35963C13.7943 2.31823 13.846 2.30788 13.8667 2.27683C13.9288 2.28718 13.9702 2.28718 14.0426 2.24578C14.053 2.25613 14.053 2.25614 14.053 2.27683C14.1358 2.27683 14.2082 2.27683 14.291 2.24578C14.291 2.23543 14.2807 2.23543 14.2807 2.21474C14.291 2.21474 14.3324 2.22509 14.3428 2.22509C14.4049 2.23544 14.5291 2.22508 14.5705 2.21474C14.5705 2.21474 14.5705 2.21474 14.5808 2.22509C14.5705 2.22509 14.5394 2.23544 14.5291 2.23544C14.5291 2.23544 14.5291 2.23543 14.5291 2.24578C14.5601 2.24578 14.5705 2.25613 14.5912 2.25613C14.5084 2.26648 14.4359 2.28718 14.3635 2.29753C14.3635 2.29753 14.3635 2.29753 14.3635 2.30788C14.3738 2.30788 14.3738 2.30788 14.3945 2.29753C14.3945 2.29753 14.3842 2.29753 14.3842 2.30788C14.3738 2.33893 14.3531 2.33893 14.3531 2.36997C14.3635 2.36997 14.3635 2.36997 14.3842 2.36997C14.3945 2.40102 14.3842 2.41137 14.4256 2.41137C14.4773 2.41137 14.5291 2.36997 14.6015 2.36997C14.6119 2.35963 14.6015 2.35963 14.6325 2.33893C14.6325 2.33893 14.6325 2.34927 14.6429 2.34927L14.6532 2.33893C14.6532 2.36998 14.6636 2.36997 14.6946 2.36997C14.736 2.32858 14.943 2.38033 15.0155 2.35963C15.0155 2.35963 15.0155 2.35963 15.0258 2.35963C15.0155 2.34928 14.9948 2.34927 14.9741 2.34927C14.9844 2.33893 14.9844 2.34928 15.0051 2.33893C15.0569 2.34928 15.1086 2.33893 15.1811 2.34927V2.33893C15.1811 2.30788 15.15 2.29753 15.119 2.29753C15.1293 2.28718 15.15 2.26648 15.15 2.25613C15.1397 2.24579 15.1397 2.25614 15.1397 2.22509C15.1293 2.22509 15.1293 2.22509 15.1086 2.22509C15.0672 2.25614 14.9741 2.26648 14.9741 2.31823C14.943 2.31823 14.9327 2.31823 14.9327 2.28718C14.8395 2.29753 14.7981 2.24578 14.7257 2.23544C14.7257 2.22509 14.7153 2.22509 14.7153 2.20439H14.7257C14.7257 2.20439 14.7257 2.20438 14.7257 2.19404C14.6946 2.18369 14.6739 2.16299 14.6636 2.16299C14.6532 2.15264 14.6326 2.12159 14.6222 2.1009C14.6326 2.1009 14.6326 2.09054 14.6532 2.09054C14.6429 2.08019 14.6222 2.0802 14.6118 2.0802C14.6118 2.0802 14.6118 2.0802 14.6118 2.06985C14.6532 2.06985 14.6739 2.0388 14.7153 2.02845C14.7153 2.02845 14.7153 2.0181 14.7257 2.0181C14.6843 2.02845 14.6429 2.0181 14.5912 2.0181C14.5808 1.98705 14.5601 1.9767 14.5291 1.9767C14.5291 1.9767 14.5291 1.97671 14.5291 1.96636C14.5808 1.96636 14.6118 1.9974 14.6429 2.00775C14.6843 2.00775 14.7257 1.9974 14.7567 1.9974V1.98705C14.7671 1.9767 14.7567 1.9767 14.7567 1.956H14.7671C14.6739 1.82146 14.3221 1.87321 14.1772 1.90426C14.1151 1.91461 14.0737 1.96636 13.9909 1.96636C14.0323 1.92496 14.2393 1.85251 14.3117 1.83181C14.3117 1.83181 14.4463 1.84216 14.4566 1.84216C14.467 1.83181 14.4877 1.81111 14.498 1.80076C14.5498 1.76972 14.6326 1.79041 14.705 1.80076C14.7981 1.83181 14.8913 1.84216 14.9844 1.86286C15.0362 1.87321 15.2121 1.95601 15.2742 1.94566C15.3156 1.93531 15.3673 1.91461 15.4087 1.90426C15.5019 1.86286 15.6985 1.96635 15.7606 1.89391C15.7606 1.88356 15.7606 1.89391 15.7606 1.86286C15.7606 1.86286 15.7606 1.86286 15.771 1.86286C15.7813 1.85251 15.771 1.78007 15.7813 1.75937C15.7503 1.74902 15.7399 1.74902 15.7192 1.72832C15.7192 1.71797 15.7192 1.72832 15.7192 1.71797C15.6778 1.71797 15.6778 1.70762 15.6571 1.70762C15.6468 1.65588 15.6054 1.64552 15.5536 1.64552C15.595 1.64552 15.6157 1.65588 15.6571 1.65588C15.6468 1.62483 15.595 1.62483 15.595 1.60413C15.564 1.59378 15.5329 1.60413 15.5019 1.59378C15.4915 1.58343 15.4915 1.58343 15.4915 1.56273C15.4812 1.55238 15.4294 1.55238 15.4087 1.53168C15.3984 1.52134 15.3777 1.50063 15.357 1.49028C15.357 1.47994 15.3467 1.47994 15.357 1.47994C15.357 1.46959 15.2742 1.41784 15.2535 1.41784C15.2639 1.40749 15.2535 1.41784 15.2846 1.40749C15.2846 1.39714 15.2846 1.37645 15.2846 1.3454C15.2742 1.3454 15.2742 1.33505 15.2535 1.33505C15.2535 1.33505 15.2639 1.304 15.2639 1.2833C15.2225 1.27295 15.1811 1.25225 15.2018 1.22121C15.1914 1.22121 15.1914 1.22121 15.1707 1.22121C15.1397 1.17981 15.0569 1.06596 15.0569 1.02457C14.9637 1.05561 14.8292 1.21085 14.705 1.10736C14.6739 1.10736 14.6636 1.07632 14.6222 1.06597C14.6222 1.05562 14.6222 1.03492 14.6222 1.02457C14.6119 1.02457 14.6118 1.02457 14.5912 1.02457C14.6015 0.993519 14.6222 0.983171 14.6222 0.941774C14.6326 0.941774 14.6532 0.931427 14.6636 0.931427L14.6532 0.921074C14.6429 0.921074 14.6222 0.931427 14.6118 0.931427C14.5808 0.900379 14.5291 0.89003 14.4773 0.879681C14.4773 0.879681 14.4773 0.879677 14.4773 0.869328C14.4877 0.869328 14.4773 0.86933 14.5084 0.858981C14.4773 0.827933 14.4152 0.776184 14.3738 0.765835C14.3324 0.765835 14.3117 0.765835 14.2703 0.765835C14.1875 0.734787 14.1151 0.703739 14.0219 0.714088C14.0116 0.724438 14.0116 0.724436 13.9909 0.745135V0.755488C14.0012 0.765837 13.9909 0.765835 14.0012 0.765835C13.9909 0.796883 13.9598 0.796885 13.9184 0.807234C13.9495 0.848632 13.9288 0.848629 13.9495 0.869328C13.9391 0.879677 13.846 0.921074 13.8046 0.921074C13.8046 0.931423 13.7943 0.931422 13.7943 0.952121C13.846 0.96247 13.8874 1.00387 13.8874 1.06597C13.846 1.15911 13.7425 1.16946 13.639 1.20051C13.5976 1.20051 13.5562 1.20051 13.5252 1.20051H13.5148C13.5148 1.21086 13.5148 1.2419 13.5459 1.25225C13.5148 1.29365 13.4838 1.34539 13.5045 1.38679C13.4734 1.39714 13.4527 1.42819 13.4217 1.42819C13.4217 1.43854 13.4217 1.45924 13.4217 1.46959H13.4113C13.4113 1.45924 13.401 1.45924 13.401 1.43854C13.3596 1.43854 13.3492 1.44889 13.3182 1.46959C13.3078 1.46959 13.2871 1.45924 13.2768 1.45924C13.2664 1.39714 13.225 1.35575 13.194 1.304C13.225 1.29365 13.2354 1.2626 13.2457 1.25225C13.2457 1.2419 13.2457 1.22121 13.2457 1.22121C13.2768 1.19016 13.2975 1.1798 13.3078 1.15911C13.225 1.14876 12.987 1.07631 12.9353 1.02457C12.9249 1.01422 12.9042 0.972823 12.8939 0.962474C12.8525 0.952124 12.8111 0.921077 12.7904 0.910727C12.749 0.910727 12.7076 0.910727 12.6765 0.910727C12.6765 0.910727 12.6765 0.910727 12.6662 0.910727C12.6972 0.879679 12.7179 0.827933 12.7283 0.807234C12.6972 0.796885 12.6765 0.796881 12.6455 0.796881V0.786535C12.7283 0.693391 12.9767 0.600246 13.0802 0.610595L13.0698 0.600249C13.1112 0.600249 13.1526 0.610598 13.1836 0.600249C13.194 0.569201 13.194 0.569198 13.1836 0.558849C13.1836 0.558849 13.1837 0.558849 13.1733 0.558849C13.2354 0.569198 13.4527 0.5692 13.5459 0.527802C13.5562 0.517453 13.5459 0.527805 13.5459 0.517456C13.5873 0.507106 13.6287 0.507101 13.6597 0.486403H13.6701C13.6597 0.476053 13.6597 0.476056 13.639 0.476056C13.639 0.476056 13.639 0.476058 13.639 0.465709C13.6701 0.465709 13.6908 0.465707 13.7218 0.476056C13.7218 0.507104 13.7736 0.5278 13.8046 0.538149C13.815 0.5278 13.8046 0.538152 13.8046 0.527802C13.7943 0.527802 13.8046 0.527802 13.7943 0.527802C13.7839 0.517453 13.7839 0.517454 13.7632 0.496756C13.7736 0.496756 13.7943 0.507103 13.8046 0.507103C13.8046 0.496753 13.8046 0.476058 13.8046 0.465709C13.815 0.476058 13.8357 0.496753 13.8564 0.507103V0.496756C13.9184 0.486406 13.9909 0.486408 14.0426 0.465709C14.0323 0.45536 14.0116 0.434659 14.0116 0.424309C14.0116 0.424309 13.639 0.217321 13.2043 0.22767C12.9249 0.22767 11.9107 0.579551 11.1034 0.983174C10.4928 1.2833 10.0168 1.68693 9.99607 1.70762C9.74769 1.91461 9.52 2.18369 9.38546 2.50451C9.37511 2.51486 9.35442 2.53556 9.34407 2.55626C9.33372 2.58731 9.26127 2.7529 9.26127 2.76325C9.27162 2.76325 9.29232 2.76325 9.30267 2.76325C9.29232 2.81499 9.33371 2.815 9.31301 2.87709C9.28197 2.97024 9.21987 3.08408 9.19917 3.19792C9.19917 3.22897 9.16813 3.28071 9.16813 3.30141C9.17848 3.34281 9.19917 3.3842 9.17847 3.43595C9.16812 3.467 9.14743 3.4877 9.13708 3.51875C9.12673 3.51875 9.10603 3.51875 9.09568 3.51875C9.09568 3.5705 9.10603 3.61189 9.10603 3.65329C9.11638 3.65329 9.11638 3.65328 9.11638 3.64294C9.14743 3.72573 9.12673 3.81888 9.07498 3.88097C9.08533 3.96377 9.13708 3.99481 9.11638 4.11901C9.11638 4.11901 9.11638 4.11901 9.12673 4.11901C9.18882 4.03621 9.17848 4.05691 9.18883 3.96377C9.18883 3.95342 9.18882 3.95342 9.17847 3.93272C9.17847 3.94307 9.16813 3.94307 9.16813 3.96377C9.15778 3.90167 9.21987 3.75678 9.23022 3.68433C9.24057 3.64294 9.21987 3.57049 9.23022 3.5084C9.26127 3.39455 9.27162 3.13582 9.36476 3.06338C9.36476 3.07373 9.37511 3.07373 9.37511 3.09442L9.38546 3.08408C9.41651 3.14617 9.32336 3.26001 9.33371 3.35316C9.30266 3.36351 9.30267 3.3842 9.29232 3.4049L9.30267 3.41526C9.31302 3.40491 9.31301 3.4049 9.33371 3.3842C9.33371 3.41525 9.32337 3.47735 9.34407 3.49805C9.34407 3.5084 9.34406 3.49805 9.35441 3.49805C9.35441 3.49805 9.35441 3.49805 9.36476 3.5084C9.35441 3.53944 9.33371 3.54979 9.33371 3.59119C9.34406 3.60154 9.33372 3.60154 9.34407 3.60154C9.34407 3.61189 9.33371 3.63259 9.33371 3.65329H9.34407C9.34407 3.70503 9.31302 3.71538 9.30267 3.75678C9.30267 3.80853 9.33371 3.81887 9.35441 3.84992C9.34406 3.86027 9.34407 3.88097 9.34407 3.90167C9.38546 3.95341 9.43721 4.31564 9.35441 4.34669C9.34406 4.37774 9.34407 4.37774 9.34407 4.38809C9.33372 4.39843 9.33371 4.39843 9.30267 4.41913C9.25092 4.55367 9.36476 4.59507 9.36476 4.69856C9.37511 4.69856 9.37511 4.70892 9.39581 4.70892C9.39581 4.70892 9.84083 4.69856 10.1099 4.67786C10.1203 4.67786 10.0996 4.66752 10.0789 4.66752C10.0685 4.65717 10.0168 4.38809 10.0271 4.34669C10.0375 4.33634 10.0375 4.31564 10.0582 4.30529C10.0168 4.2225 10.0892 4.12935 10.1099 4.05691C10.141 3.99481 10.1617 3.92237 10.1927 3.86027C10.2238 3.82923 10.2755 3.82923 10.2858 3.77748C10.2962 3.73608 10.2755 3.71538 10.2962 3.66364C10.3065 3.62224 10.3583 3.61189 10.3583 3.5498C10.3893 3.5498 10.4204 3.53944 10.4411 3.5084C10.4411 3.49805 10.4514 3.49805 10.4514 3.47735C10.4514 3.4877 10.4514 3.4877 10.4514 3.5084C10.4618 3.49805 10.4618 3.49805 10.4825 3.49805C10.4825 3.4877 10.4928 3.4877 10.4928 3.467L10.4825 3.45665C10.5446 3.467 10.5963 3.4463 10.6688 3.4049C10.7102 3.41525 10.6998 3.39456 10.6998 3.36351C10.7102 3.35316 10.7102 3.35316 10.7309 3.33246L10.7205 3.34281C10.7205 3.34281 10.7309 3.34281 10.7309 3.35316C10.7412 3.36351 10.8137 3.32211 10.8447 3.34281C10.8861 3.34281 10.9586 3.38421 10.9896 3.39456H11V3.3842C10.9896 3.3842 10.9896 3.3842 10.9689 3.3842V3.37386C10.9792 3.37386 11 3.36351 11 3.36351C11 3.37386 11.031 3.40491 11.0413 3.41526C11.0413 3.41526 11.0413 3.41526 11.031 3.41526C11.031 3.41526 11.031 3.4256 11.0206 3.4256C11.031 3.43595 11.0517 3.43595 11.062 3.45665C11.0724 3.4463 11.1034 3.4463 11.1138 3.4256C11.1138 3.43595 11.1138 3.43595 11.1241 3.45665C11.1552 3.4463 11.1552 3.42561 11.1759 3.41526C11.1862 3.42561 11.2069 3.45665 11.2276 3.467C11.2276 3.467 11.238 3.467 11.238 3.47735C11.238 3.467 11.2483 3.467 11.2483 3.4463C11.238 3.43595 11.2173 3.41525 11.2069 3.4049C11.2069 3.4049 11.2069 3.40491 11.1966 3.39456C11.2069 3.38421 11.2276 3.38421 11.238 3.36351C11.2483 3.35316 11.238 3.35316 11.238 3.32211C11.2276 3.32211 11.2069 3.33246 11.2069 3.33246C11.2069 3.33246 11.2069 3.32211 11.1966 3.32211C11.2587 3.28071 11.3311 3.29106 11.3932 3.31176C11.3932 3.30141 11.4036 3.30141 11.4036 3.28071C11.4036 3.28071 11.4139 3.28071 11.4139 3.27036C11.4139 3.28071 11.4139 3.31176 11.4139 3.32211C11.5071 3.33246 11.5692 3.29106 11.6416 3.36351C11.5485 3.43595 11.5485 3.47735 11.5588 3.47735ZM13.5045 2.53557C13.5148 2.53557 13.5148 2.53557 13.5355 2.53557C13.5148 2.53557 13.5045 2.53557 13.5045 2.53557ZM15.0051 2.34927C15.0155 2.35962 15.0155 2.35962 15.0051 2.34927V2.34927ZM14.9844 2.35963C14.9948 2.35963 14.9948 2.35963 15.0155 2.35963V2.36997C15.0051 2.36997 14.9844 2.36997 14.9637 2.36997C14.9637 2.38032 14.9844 2.35963 14.9844 2.35963ZM14.6636 2.33893C14.6325 2.33893 14.6119 2.33893 14.5808 2.34927C14.5808 2.34927 14.5705 2.34928 14.5705 2.33893V2.32858C14.6119 2.32858 14.6325 2.33893 14.6636 2.33893ZM15.5329 1.76972C15.5329 1.78007 15.5329 1.78007 15.5329 1.76972V1.76972ZM15.2432 1.70762C15.2535 1.70762 15.2535 1.70762 15.2742 1.69727C15.3156 1.69727 15.357 1.70762 15.388 1.70762C15.3363 1.70762 15.2846 1.71797 15.2432 1.70762ZM9.25092 2.98058C9.25092 2.97024 9.25092 2.97024 9.25092 2.98058C9.25092 2.97024 9.26127 2.97024 9.25092 2.98058ZM9.28197 2.94954C9.28197 2.90814 9.31302 2.88744 9.32337 2.83569C9.34406 2.87709 9.30266 2.91849 9.28197 2.94954ZM9.95467 4.31564C9.94432 4.30529 9.94432 4.28459 9.94432 4.28459C9.94432 4.28459 9.93397 4.30529 9.95467 4.31564ZM10.6895 3.35316C10.6998 3.34281 10.6998 3.35316 10.6895 3.35316V3.35316ZM11.1034 3.36351C11.0724 3.36351 11.062 3.36351 11.0413 3.36351C11.0517 3.35316 11.0517 3.33246 11.0724 3.32211C11.0827 3.34281 11.1034 3.35316 11.1034 3.36351ZM11.4346 9.2833C11.4864 9.36609 11.5278 9.46959 11.5899 9.53168C11.7244 9.66622 11.9314 9.72832 12.0142 9.90425C12.0556 9.94565 12.097 9.98705 12.128 10.0181C12.128 10.0285 12.128 10.0595 12.1177 10.0698C12.128 10.1216 12.1487 10.2044 12.1487 10.2561C12.1487 10.2872 12.1384 10.3079 12.1384 10.3493C12.1384 10.3596 12.1487 10.3907 12.1487 10.401C12.1384 10.4528 12.1177 10.5045 12.1073 10.577C12.097 10.577 12.1073 10.577 12.0763 10.577C12.0763 10.5873 12.0763 10.6184 12.0763 10.6287C12.0866 10.6287 12.0866 10.6287 12.1073 10.6287C12.1073 10.6701 12.097 10.6908 12.097 10.7322C12.097 10.7736 12.1073 10.7943 12.1073 10.8357C12.1073 10.846 12.0763 10.8667 12.0763 10.8771C12.0763 10.8874 12.0763 10.9081 12.0866 10.9185C12.0866 11.0013 12.0556 11.053 12.0452 11.0944C12.0142 11.1358 12.0452 11.1876 12.0038 11.2083C12.0142 11.26 12.0349 11.3014 12.0349 11.3532C12.0245 11.3532 12.0245 11.3532 12.0038 11.3532C11.9935 11.4877 12.0556 11.5601 12.0142 11.6533C12.0142 11.6533 12.0452 11.6947 12.0245 11.705C11.9935 11.7982 11.9417 11.881 11.9417 11.9845C11.9417 11.9845 11.9314 11.9845 11.9314 11.9741C11.9314 11.9845 11.9314 12.0155 11.9314 12.0259C11.921 12.0259 11.9003 12.0155 11.89 12.0155C11.9003 12.0983 11.9314 12.1708 11.9728 12.2225C11.9728 12.3053 11.921 12.326 11.9831 12.4295V12.4398C11.9728 12.4398 11.9728 12.4295 11.9521 12.4295C11.9417 12.4709 11.9624 12.5123 11.9521 12.564C11.9624 12.5744 11.9831 12.5951 12.0038 12.5951H12.0142C12.0245 12.5537 12.0142 12.5019 12.0038 12.4812C12.0038 12.4812 12.0038 12.4812 12.0142 12.4709C12.0245 12.4709 12.0245 12.4812 12.0452 12.4812C12.0452 12.4709 12.0556 12.4709 12.0349 12.4709C12.0349 12.4709 12.0349 12.4605 12.0452 12.4605C12.0556 12.4709 12.0556 12.4709 12.0763 12.4916L12.0659 12.5019C12.0763 12.5123 12.097 12.5537 12.0659 12.564C12.0763 12.564 12.0763 12.5744 12.097 12.5744C12.0866 12.6365 12.097 12.6882 12.097 12.7607H12.0866C12.0866 12.7296 12.0556 12.6779 12.0763 12.6675C12.0659 12.6365 12.0452 12.6261 12.0245 12.6261C12.0142 12.6365 11.9935 12.6675 11.9935 12.7089C12.0038 12.7193 12.0245 12.74 12.0245 12.74C12.0245 12.7503 12.0245 12.7814 12.0245 12.7917H11.9935C11.9935 12.8021 12.0038 12.8021 12.0038 12.8228C11.9935 12.8331 11.9728 12.8331 11.9728 12.8538V12.8642C11.9831 12.8642 11.9831 12.8745 12.0038 12.8745L12.0142 12.8642C12.0245 12.8745 12.0659 12.8952 12.0763 12.9055H12.0659C12.0659 12.9159 12.0659 12.9159 12.0763 12.9159C12.0763 12.9263 12.0659 12.9469 12.0659 12.9573C12.0556 12.9469 12.0556 12.9469 12.0245 12.9469L12.0349 12.9573C12.0349 12.9573 12.0245 12.9676 12.0038 12.9676C12.0349 13.009 12.0349 13.0711 12.0556 13.1022C12.0659 13.1125 12.097 13.1125 12.1073 13.1332C12.097 13.1332 12.0763 13.1332 12.0763 13.1229C12.0763 13.1332 12.0866 13.1539 12.0866 13.1746C12.097 13.1746 12.097 13.1746 12.1177 13.185C12.1177 13.1746 12.128 13.1539 12.128 13.1436C12.128 13.1539 12.1384 13.1539 12.1384 13.1746H12.128C12.1384 13.2057 12.1384 13.216 12.1591 13.2367C12.1694 13.2367 12.1901 13.2264 12.2108 13.2264C12.2212 13.2367 12.2212 13.2367 12.2419 13.2367C12.2419 13.2367 12.2419 13.2471 12.2315 13.2471C12.2212 13.2471 12.2005 13.2367 12.1901 13.2367C12.1901 13.2367 12.1901 13.2367 12.1901 13.2471C12.2005 13.2781 12.2315 13.2885 12.2522 13.2988C12.2522 13.2988 12.2522 13.2885 12.2419 13.2885C12.2729 13.2988 12.2833 13.3299 12.304 13.3402C12.2729 13.3299 12.2626 13.3299 12.2419 13.3092C12.2729 13.3506 12.2936 13.3506 12.3247 13.3609C12.3247 13.3713 12.3247 13.3609 12.3247 13.3713C12.3557 13.4023 12.4799 13.4851 12.5213 13.4748C12.5213 13.4851 12.5213 13.4748 12.5213 13.4851C12.5627 13.5265 12.6765 13.5679 12.749 13.5783C12.7386 13.5679 12.7386 13.5679 12.7179 13.5472C12.749 13.5576 12.7697 13.5576 12.78 13.5576C12.7904 13.5576 12.7904 13.5576 12.8111 13.5679V13.5576C12.8214 13.5576 12.8525 13.5576 12.8628 13.5679C12.8628 13.5679 12.8628 13.5679 12.8628 13.5576V13.5472C12.7593 13.5369 12.7179 13.4437 12.6248 13.4127L12.6351 13.4023C12.6041 13.3713 12.5834 13.3713 12.5523 13.3506C12.5523 13.3506 12.5523 13.3506 12.542 13.3506C12.542 13.3506 12.5523 13.3506 12.5523 13.3402C12.5834 13.3506 12.5937 13.3506 12.6144 13.3713C12.5834 13.3299 12.5316 13.3092 12.5213 13.2367C12.5213 13.2367 12.5213 13.2367 12.5213 13.2264C12.5316 13.2264 12.5627 13.216 12.573 13.216C12.5834 13.2057 12.5834 13.1746 12.5834 13.1539C12.6144 13.1436 12.6662 13.1229 12.6869 13.1022C12.6869 13.0918 12.6869 13.0608 12.6869 13.0401C12.6248 12.9987 12.5316 12.9883 12.542 12.8849C12.573 12.8538 12.6041 12.8538 12.6455 12.8745H12.6558C12.6558 12.8642 12.6558 12.8642 12.6455 12.8642C12.6558 12.8538 12.6558 12.8538 12.6765 12.8331C12.6765 12.8021 12.6765 12.7917 12.6662 12.771C12.6765 12.74 12.6972 12.7296 12.7283 12.7296C12.7179 12.7193 12.6869 12.6986 12.6765 12.6882C12.6765 12.6882 12.6765 12.6882 12.6662 12.6882C12.6765 12.6882 12.6765 12.6779 12.6972 12.6779C12.7283 12.6882 12.7283 12.7089 12.7386 12.7193C12.749 12.7193 12.7697 12.7193 12.7697 12.7193L12.78 12.7089C12.78 12.6779 12.78 12.6675 12.7697 12.6572C12.7697 12.6572 12.7697 12.6468 12.7593 12.6468C12.749 12.6468 12.7283 12.6468 12.7179 12.6468C12.7283 12.6468 12.7283 12.6572 12.749 12.6572C12.7386 12.6572 12.7386 12.6572 12.7179 12.6468C12.6972 12.6365 12.7076 12.6158 12.6765 12.6158C12.6662 12.5847 12.6662 12.5537 12.6455 12.5123C12.6765 12.4709 12.7386 12.5537 12.7904 12.564H12.8835L12.8939 12.5226C12.8939 12.5226 12.8835 12.5226 12.8835 12.533L12.8732 12.5226C12.8835 12.4916 12.9249 12.4709 12.9042 12.4295C12.9042 12.4295 12.9146 12.4295 12.9146 12.4398C12.9146 12.4295 12.9146 12.4295 12.9042 12.4088C12.956 12.4398 13.225 12.4709 13.2871 12.4398C13.2975 12.4295 13.3699 12.357 13.3803 12.3363C13.3803 12.326 13.3803 12.2949 13.3803 12.2846C13.3389 12.2742 13.3285 12.2742 13.3285 12.2328C13.3389 12.2225 13.3596 12.2225 13.3596 12.2018C13.3492 12.1397 13.2664 12.119 13.2457 12.0673C13.2457 12.0569 13.2561 12.0569 13.2561 12.0362H13.2664C13.2768 12.0466 13.2975 12.0673 13.2975 12.0776C13.3285 12.0776 13.3492 12.088 13.3803 12.088C13.4113 12.0983 13.432 12.1501 13.4631 12.1501C13.4941 12.1501 13.5045 12.1397 13.5252 12.1501C13.5355 12.1604 13.5562 12.1811 13.5873 12.1811C13.6701 12.1707 13.6804 12.1294 13.7322 12.0983C13.7632 12.088 13.7839 12.0673 13.815 12.0569C13.846 12.0259 13.8564 12.0052 13.8771 11.9741C13.9288 11.9431 13.9805 11.9327 14.0323 11.912C14.0944 11.8706 14.1254 11.7982 14.1875 11.7568C14.2703 11.705 14.3635 11.6947 14.3842 11.5808H14.3738C14.3842 11.5394 14.3842 11.4877 14.4152 11.436C14.4256 11.3946 14.7153 11.2497 14.7878 11.2807C14.7981 11.2911 14.8188 11.3118 14.8395 11.3221C14.8395 11.3118 14.8395 11.3118 14.8499 11.2911H14.8395C14.8809 11.2807 14.9016 11.229 14.943 11.2393C14.9534 11.229 14.9534 11.229 14.943 11.2083V11.1979C15.0258 11.1979 15.15 11.229 15.2328 11.26C15.2432 11.2497 15.2328 11.2497 15.2639 11.2497C15.2639 11.1876 15.3467 11.2083 15.3777 11.1876C15.4087 11.1565 15.4191 11.0944 15.4605 11.0737C15.5433 11.0323 15.5226 11.0116 15.5743 10.9806C15.6054 10.9702 15.6157 10.9702 15.6364 10.9392C15.6882 10.846 15.6468 10.8253 15.771 10.7839C15.7813 10.7218 15.802 10.6805 15.8331 10.6391C15.8434 10.608 15.8745 10.5977 15.8848 10.577C15.8952 10.5252 15.8952 10.4838 15.9159 10.4321C15.9469 10.3803 15.978 10.3493 15.978 10.2768C16.0297 10.2458 16.0711 10.2665 16.1228 10.2251C16.1849 10.163 16.2574 10.1112 16.3195 10.0388C16.3505 10.0388 16.3712 10.0284 16.3816 10.0284C16.4126 9.9974 16.4437 9.9767 16.4747 9.96635C16.5782 9.90426 16.6714 9.83181 16.7128 9.68692C16.7128 9.65587 16.7128 9.63518 16.7128 9.60413C16.7231 9.55238 16.7749 9.2212 16.7749 9.2212C13.7218 9.25225 11.4346 9.2833 11.4346 9.2833ZM12.3661 13.3816C12.3557 13.3816 12.3557 13.3816 12.3661 13.3816C12.3557 13.3713 12.3557 13.3713 12.3661 13.3816ZM12.3971 13.423C12.4075 13.423 12.4075 13.4127 12.4282 13.4127H12.4385H12.4489C12.4282 13.4334 12.4178 13.423 12.3971 13.423ZM12.5627 13.4748C12.5523 13.4851 12.5316 13.4851 12.5213 13.4851C12.5316 13.4955 12.5316 13.4955 12.5523 13.5162C12.542 13.5058 12.5213 13.4851 12.5109 13.4748C12.5109 13.4748 12.5109 13.4748 12.5006 13.4748C12.5006 13.4851 12.4902 13.4851 12.4902 13.5058H12.4799C12.4799 13.4955 12.4799 13.4541 12.4695 13.423C12.5006 13.4334 12.5006 13.4334 12.5006 13.4644C12.5109 13.4644 12.5213 13.4644 12.5627 13.4748ZM12.5213 13.4127C12.5213 13.423 12.5213 13.423 12.5213 13.4127H12.5006C12.5006 13.4127 12.5006 13.4127 12.4902 13.4127H12.5006C12.5109 13.4127 12.5109 13.4127 12.5213 13.4127ZM12.8939 12.4398C12.9042 12.4502 12.9042 12.4502 12.9249 12.4709C12.9042 12.4605 12.9042 12.4605 12.8939 12.4398ZM14.0323 11.9431C14.0323 11.9534 14.0323 11.9534 14.0323 11.9741C14.0012 11.9845 13.9805 12.0052 13.9391 12.0155C13.9288 12.0155 13.9288 12.0155 13.9081 12.0052C13.9495 11.9741 14.0012 11.9534 14.0116 11.9017C14.0219 11.9017 14.053 11.9017 14.0633 11.8913C14.0633 11.9017 14.0633 11.9224 14.0633 11.9327C14.0633 11.9431 14.053 11.9431 14.0323 11.9431ZM14.3738 11.674C14.3842 11.6533 14.3842 11.674 14.3738 11.674V11.674ZM14.3842 11.6533C14.3842 11.6429 14.3842 11.6429 14.3842 11.6533V11.6533ZM15.1086 11.26C15.1293 11.2497 15.1293 11.26 15.1086 11.26V11.26ZM14.3635 0.517456C14.3738 0.507106 14.3738 0.507101 14.3945 0.486403V0.476056C14.3531 0.465707 14.3324 0.445011 14.2807 0.465709C14.2703 0.465709 14.2393 0.476056 14.2289 0.476056V0.486403C14.2393 0.517451 14.3324 0.527805 14.3635 0.517456ZM13.8357 0.631295C13.8253 0.620946 13.7943 0.620948 13.7736 0.620948C13.7736 0.610599 13.7839 0.589896 13.7839 0.589896C13.7529 0.579546 13.6908 0.548501 13.6701 0.527802C13.6597 0.517453 13.6701 0.486403 13.639 0.486403C13.639 0.486403 13.639 0.496756 13.6287 0.496756C13.5459 0.486406 13.4734 0.527802 13.4527 0.579549C13.4113 0.579549 13.3699 0.579546 13.3596 0.589896C13.3906 0.600245 13.4424 0.600249 13.4631 0.600249L13.4527 0.610595C13.4527 0.620945 13.4424 0.620943 13.4424 0.641642C13.4941 0.651991 13.5976 0.641643 13.639 0.610595C13.6701 0.610595 13.6804 0.620948 13.7011 0.620948C13.6908 0.620948 13.6908 0.620946 13.6701 0.631295C13.7115 0.662343 13.7736 0.672691 13.846 0.662342C13.8357 0.651993 13.8357 0.631295 13.8357 0.631295ZM13.608 0.517456C13.608 0.507106 13.608 0.507101 13.6183 0.486403L13.6287 0.496756H13.639C13.6183 0.517454 13.6183 0.517456 13.608 0.517456ZM13.5045 0.672695C13.5045 0.683044 13.5045 0.683043 13.5045 0.703741C13.5666 0.703741 13.6183 0.703738 13.6804 0.693388C13.6804 0.693388 13.6804 0.693391 13.6804 0.683042C13.639 0.683042 13.5976 0.672695 13.5769 0.672695C13.5562 0.672695 13.5148 0.662346 13.5045 0.672695ZM14.0426 0.662342C14.0323 0.662342 14.0323 0.662344 14.0116 0.651995V0.662342C14.0323 0.662342 14.0323 0.672691 14.0426 0.662342ZM13.9391 0.683042C13.9495 0.693391 13.9495 0.69339 13.9702 0.714088C13.9805 0.714088 14.0012 0.714088 14.0116 0.714088V0.703741C13.9909 0.683043 13.9598 0.683042 13.9391 0.683042ZM14.0737 0.714088C14.084 0.714088 14.084 0.714088 14.0737 0.714088V0.693388C14.0633 0.693388 14.0426 0.693391 14.0323 0.683042C14.0426 0.70374 14.053 0.703739 14.0737 0.714088ZM13.7839 0.724441C13.7736 0.724441 13.7529 0.734788 13.7425 0.734788C13.7425 0.734788 13.7425 0.745135 13.7322 0.745135L13.7425 0.755488C13.7736 0.755488 13.7839 0.745135 13.8046 0.745135L13.815 0.734788C13.815 0.724439 13.8046 0.724441 13.7839 0.724441ZM14.3945 0.755488C14.3945 0.745139 14.3945 0.745139 14.3945 0.755488C14.3842 0.755488 14.3842 0.755488 14.3945 0.755488ZM14.2496 0.796881C14.2393 0.786532 14.2186 0.786535 14.1979 0.786535C14.2082 0.796884 14.2082 0.796881 14.2289 0.796881C14.2393 0.796881 14.2496 0.796881 14.2496 0.796881ZM13.8357 0.848628C13.8253 0.848628 13.8046 0.84863 13.8046 0.838281C13.8046 0.838281 13.8046 0.838278 13.815 0.848628H13.8357ZM17.6442 1.10736C17.6338 1.10736 17.6338 1.10736 17.6131 1.10736L17.6235 1.11771C17.5821 1.12806 17.5304 1.08667 17.4786 1.08667C17.4786 1.08667 17.4786 1.09701 17.489 1.09701C17.4786 1.08666 17.4476 1.06596 17.4269 1.05561C17.4372 1.06596 17.4372 1.06597 17.4579 1.08667C17.4269 1.07632 17.4476 1.07632 17.4269 1.08667C17.3855 1.04527 17.3441 0.99352 17.2716 0.99352C17.282 1.00387 17.282 1.00387 17.3027 1.02457C17.2923 1.02457 17.2716 1.01422 17.2716 1.01422C17.2613 1.02457 17.2406 1.02457 17.2406 1.04527C17.2406 1.04527 17.2406 1.04526 17.2406 1.05561C17.2923 1.06596 17.3441 1.08666 17.3958 1.09701C17.3648 1.10736 17.3441 1.10736 17.3027 1.09701C17.3027 1.09701 17.3027 1.09701 17.3027 1.10736C17.3648 1.11771 17.4062 1.14876 17.4476 1.16946C17.4476 1.16946 17.4476 1.16946 17.4476 1.17981C17.4372 1.17981 17.4165 1.16946 17.4062 1.16946C17.4062 1.16946 17.4062 1.17981 17.4165 1.17981C17.52 1.21085 17.7891 1.33505 17.8822 1.23155C17.8305 1.2005 17.7684 1.14876 17.7373 1.12806C17.6856 1.14876 17.6752 1.12806 17.6442 1.10736ZM14.912 0.99352C14.9016 0.983171 14.912 0.983174 14.8809 0.983174C14.9016 0.993523 14.8913 0.972822 14.912 0.99352ZM14.912 0.99352C14.9223 1.00387 14.943 1.02457 14.9637 1.03492C14.9741 1.03492 14.9741 1.02457 14.9948 1.02457C14.9948 1.01422 14.9844 1.01422 14.9844 0.99352C14.9741 0.99352 14.9534 0.993523 14.9534 0.983174C14.943 1.00387 14.9534 0.99352 14.912 0.99352ZM14.6325 1.01422C14.6325 1.04527 14.6636 1.02457 14.6843 1.02457C14.6843 1.02457 14.6843 1.02457 14.6843 1.01422C14.6739 1.01422 14.6739 1.00387 14.6532 1.00387C14.6636 1.01422 14.6532 1.01422 14.6325 1.01422ZM20.8835 4.46053C20.8732 4.41913 20.8421 4.37774 20.8318 4.34669L20.8421 4.35704C20.8421 4.35704 20.8421 4.35704 20.8525 4.35704V4.34669C20.8525 4.33634 20.8421 4.30529 20.8214 4.28459C20.8214 4.28459 20.8214 4.28459 20.8318 4.28459C20.8421 4.29494 20.8421 4.31564 20.8628 4.31564C20.8628 4.30529 20.8525 4.28459 20.8525 4.26389C20.8628 4.27424 20.8835 4.29494 20.8939 4.30529C20.8835 4.2639 20.8318 4.17075 20.78 4.15005C20.7904 4.1397 20.78 4.13971 20.7904 4.13971C20.78 4.08796 20.6972 4.04656 20.6972 3.96377C20.7076 4.00516 20.7386 3.99481 20.749 4.01551C20.7386 3.98447 20.7179 3.97411 20.6972 3.95341C20.7076 3.95341 20.7076 3.94307 20.7283 3.94307C20.7386 3.93272 20.7697 3.97411 20.78 3.97411C20.78 3.98446 20.78 3.98447 20.7904 4.01551C20.7904 3.96377 20.7904 3.91202 20.78 3.88097C20.749 3.84993 20.7386 3.82923 20.7283 3.78783C20.6662 3.68433 20.6248 3.60154 20.5834 3.4877C20.573 3.45665 20.2108 2.89779 19.7347 2.46312C19.2587 2.0181 18.6791 1.69727 18.6791 1.69727C18.6688 1.70762 18.6481 1.72832 18.6377 1.72832C18.6377 1.75937 18.6377 1.75937 18.6481 1.76972C18.6377 1.76972 18.617 1.78006 18.6067 1.78006C18.617 1.81111 18.6481 1.82146 18.6584 1.83181C18.6584 1.84216 18.6584 1.86286 18.6688 1.87321C18.7102 1.92496 18.7826 1.95601 18.8137 2.0181C18.824 2.0181 18.824 2.0181 18.8447 2.00775C18.8447 2.0181 18.8551 2.0388 18.8551 2.0595C18.8654 2.09054 18.9689 2.14229 19.0103 2.1216C19.0206 2.11125 19.0207 2.08019 19.0207 2.0595C19.031 2.0595 19.031 2.04915 19.0517 2.04915C19.0517 2.04915 19.0517 2.0388 19.0413 2.0388C19.1448 2.09054 19.2173 2.22509 19.3311 2.27683C19.3311 2.28718 19.3415 2.30788 19.3415 2.31823C19.3311 2.31823 19.3104 2.32858 19.3104 2.34927C19.3415 2.38032 19.3622 2.40102 19.3932 2.41137C19.3829 2.42172 19.3829 2.42172 19.3622 2.41137C19.3725 2.42172 19.3725 2.42172 19.3932 2.44242C19.4036 2.44242 19.4036 2.44242 19.4243 2.44242C19.4243 2.43207 19.4243 2.41137 19.4243 2.41137C19.4139 2.40102 19.3932 2.36997 19.3829 2.36997C19.3829 2.35963 19.3829 2.36998 19.3932 2.35963C19.3829 2.34928 19.3829 2.34928 19.3622 2.32858C19.3932 2.33893 19.4036 2.35963 19.4036 2.38033C19.4139 2.38033 19.4346 2.38033 19.4553 2.38033V2.36997C19.445 2.35963 19.4243 2.33893 19.4243 2.32858C19.4243 2.31823 19.4243 2.32858 19.4243 2.31823C19.4346 2.31823 19.4553 2.31823 19.4657 2.31823C19.4657 2.30788 19.4553 2.28718 19.4553 2.28718C19.4657 2.29753 19.6313 2.43207 19.6106 2.44242C19.5795 2.45277 19.6002 2.47347 19.6002 2.48382H19.5899C19.5588 2.51487 19.5485 2.48382 19.5278 2.48382C19.5174 2.47347 19.5174 2.48382 19.5278 2.47347C19.5174 2.46312 19.4967 2.44242 19.4864 2.44242C19.4864 2.45277 19.4864 2.45277 19.4864 2.47347C19.476 2.47347 19.476 2.47347 19.4553 2.47347C19.4553 2.50452 19.4553 2.48382 19.445 2.51487C19.445 2.51487 19.4346 2.51487 19.4139 2.51487C19.4036 2.50452 19.4036 2.48382 19.4036 2.47347C19.3932 2.46312 19.4036 2.46312 19.3725 2.46312C19.3725 2.46312 19.3725 2.47347 19.3829 2.47347C19.3518 2.47347 19.3311 2.44242 19.3001 2.43207C19.2897 2.43207 19.3001 2.43207 19.3001 2.42172C19.2897 2.41137 19.2897 2.41137 19.2587 2.41137C19.2587 2.41137 19.2587 2.41137 19.2587 2.40102C19.2587 2.40102 19.2587 2.40102 19.2587 2.39067C19.2897 2.40102 19.3104 2.42172 19.3415 2.44242C19.3311 2.40102 19.2897 2.34928 19.2483 2.35963C19.238 2.34928 19.238 2.31823 19.2173 2.30788C19.2173 2.30788 19.2276 2.30788 19.2276 2.31823V2.30788C19.1862 2.26648 19.1345 2.24578 19.1241 2.19404C19.1138 2.19404 19.1138 2.20439 19.0931 2.20439C19.0931 2.21474 19.0931 2.23543 19.1034 2.24578H19.0931L19.0827 2.25613C19.0931 2.31823 19.238 2.44242 19.2276 2.46312C19.238 2.46312 19.238 2.46312 19.2587 2.46312C19.269 2.49417 19.3001 2.50452 19.3104 2.54591C19.3001 2.54591 19.3001 2.54591 19.3001 2.57696C19.269 2.56661 19.269 2.56661 19.238 2.56661V2.57696C19.2276 2.57696 19.1966 2.57696 19.1862 2.57696C19.1862 2.57696 19.1862 2.58731 19.1759 2.58731C19.1759 2.59766 19.1862 2.59766 19.1862 2.61836C19.1966 2.62871 19.1966 2.62871 19.2173 2.61836C19.2276 2.64941 19.2276 2.6494 19.2276 2.65975C19.2173 2.6701 19.2276 2.6701 19.2173 2.65975C19.2173 2.6908 19.2173 2.70115 19.2276 2.7115C19.2173 2.7115 19.1966 2.7115 19.1966 2.7115C19.1862 2.6701 19.1655 2.62871 19.1552 2.59766C19.1552 2.59766 19.1552 2.59766 19.1448 2.59766C19.1552 2.64941 19.1966 2.7322 19.1759 2.7736C19.1448 2.78395 19.1138 2.80465 19.0931 2.82535C19.1034 2.85639 19.1241 2.87709 19.1241 2.90814C19.1138 2.91849 19.0931 2.91849 19.0827 2.93919C19.0724 2.94953 19.0724 2.97024 19.0827 2.98058L19.0724 2.99093C19.0207 3.00128 18.9689 2.95989 18.9275 2.94954C18.9586 2.98059 18.9792 3.00128 18.9896 3.04268L19 3.05303C18.9689 3.05303 18.9482 3.04268 18.9379 3.06338C18.9275 3.05303 18.9068 3.03233 18.8861 3.02198C18.8551 3.03233 18.824 3.03233 18.793 3.05303C18.793 3.05303 18.793 3.05303 18.7826 3.05303C18.7826 3.09443 18.8137 3.08408 18.8344 3.10478C18.824 3.10478 18.824 3.10478 18.8033 3.10478C18.8447 3.14617 18.9068 3.13583 18.9586 3.15652C18.9586 3.15652 19.1448 3.33246 19.1552 3.34281C19.1448 3.34281 19.1448 3.33246 19.1241 3.33246C19.1759 3.39455 19.2276 3.4877 19.2276 3.61189C19.1655 3.64294 18.9999 3.58084 18.9068 3.58084C18.8758 3.58084 18.824 3.61189 18.793 3.59119C18.7826 3.59119 18.7619 3.56014 18.7412 3.58084C18.7102 3.58084 18.6998 3.59119 18.7102 3.62224C18.6791 3.62224 18.6688 3.63259 18.6584 3.65329C18.6584 3.65329 18.6481 3.65329 18.6481 3.66364C18.6481 3.70503 18.6791 3.70504 18.6791 3.72573C18.6895 3.72573 18.6895 3.72573 18.7102 3.71538C18.7205 3.77748 18.7619 3.82922 18.7723 3.90167C18.8033 3.95341 18.7826 4.12935 18.7723 4.1811C18.7826 4.19145 18.8033 4.21215 18.8137 4.2225C18.824 4.2225 18.824 4.21215 18.8447 4.21215C18.8758 4.26389 18.8861 4.31564 18.8758 4.40879C18.9172 4.39844 18.9586 4.41913 18.9793 4.40879C18.9896 4.40879 19.0103 4.37774 19.0207 4.37774C19.0827 4.34669 19.1241 4.51228 19.1966 4.52262C19.2069 4.51228 19.2587 4.46053 19.2794 4.43983C19.3311 4.43983 19.3725 4.42948 19.4139 4.43983C19.4139 4.43983 19.4139 4.42948 19.4243 4.42948C19.4553 4.42948 19.4553 4.42948 19.4657 4.43983C19.476 4.40878 19.4967 4.35704 19.5071 4.33634C19.5174 4.33634 19.5174 4.32599 19.5485 4.32599C19.5485 4.29494 19.5381 4.27425 19.5485 4.2225C19.5588 4.19145 19.5795 4.19145 19.5795 4.17075C19.4657 4.08796 19.5692 3.98446 19.5381 3.92237C19.5692 3.89132 19.5795 3.89132 19.6002 3.88097C19.6106 3.87062 19.6416 3.82922 19.652 3.81887C19.6416 3.77748 19.5692 3.71538 19.6002 3.66364C19.6002 3.65329 19.6313 3.63259 19.6313 3.62224C19.6934 3.65329 19.7347 3.67399 19.7865 3.68433C19.8175 3.65329 19.7968 3.62224 19.8486 3.60154C19.8486 3.59119 19.8589 3.56014 19.8589 3.5498C19.8589 3.5498 19.8589 3.54979 19.8589 3.53944C19.9624 3.54979 20.0349 3.71539 20.0866 3.77748C20.0866 3.77748 20.2315 3.92237 20.2419 3.92237C20.2419 3.92237 20.2729 3.91202 20.2833 3.92237C20.2936 3.93272 20.2936 3.95342 20.3143 3.97411C20.4282 4.07761 20.4592 4.11901 20.5109 4.27425C20.5006 4.27425 20.4695 4.28459 20.4592 4.30529C20.4178 4.30529 20.4178 4.30529 20.3971 4.27425C20.3971 4.2846 20.3971 4.27424 20.3868 4.28459L20.3764 4.27425C20.3764 4.2846 20.3764 4.31564 20.3764 4.32599C20.3868 4.33634 20.5213 4.46053 20.5523 4.46053C20.542 4.39844 20.5109 4.36739 20.5109 4.28459C20.5213 4.28459 20.5213 4.29495 20.542 4.29495C20.5523 4.2639 20.542 4.23285 20.5316 4.2018C20.5316 4.17075 20.5316 4.19145 20.542 4.17075C20.5316 4.11901 20.5006 4.119 20.4799 4.07761C20.4695 4.04656 20.4696 4.01551 20.4489 3.98447C20.4489 3.98447 20.4488 3.98446 20.4592 3.97411C20.4695 4.00516 20.5213 4.03621 20.5523 4.06726C20.5213 3.97412 20.4489 3.91202 20.3661 3.87062C20.3557 3.86027 20.3557 3.83957 20.3557 3.81887C20.3247 3.80853 20.3143 3.81888 20.2936 3.78783C20.2419 3.73608 20.2108 3.67399 20.1591 3.60154C20.1177 3.5498 20.0452 3.53944 20.0245 3.45665C20.0245 3.4463 20.0245 3.4463 20.0245 3.4256C20.0142 3.39456 19.9935 3.39456 19.9831 3.37386C20.0142 3.37386 20.0142 3.36351 20.0142 3.34281H20.0245C20.0349 3.35316 20.0659 3.4256 20.0763 3.4463C20.0763 3.4463 20.0763 3.4463 20.0866 3.4463C20.0866 3.43595 20.0866 3.43595 20.0866 3.41526C20.0866 3.42561 20.097 3.4463 20.097 3.45665C20.097 3.45665 20.1073 3.45665 20.1073 3.467C20.1073 3.45665 20.097 3.43595 20.097 3.4256C20.1384 3.43595 20.1487 3.5084 20.1591 3.5291C20.1901 3.57049 20.2212 3.58084 20.2522 3.61189H20.2419C20.2522 3.62224 20.2522 3.64294 20.2729 3.65329H20.2833L20.2729 3.64294C20.2729 3.64294 20.2729 3.64294 20.2833 3.64294C20.2936 3.64294 20.2936 3.65329 20.3143 3.65329C20.3143 3.65329 20.3143 3.65329 20.3143 3.66364C20.304 3.66364 20.304 3.66364 20.2833 3.66364C20.2936 3.67398 20.2936 3.66364 20.3247 3.67399C20.3661 3.70504 20.4385 3.76713 20.4696 3.80853C20.5006 3.86027 20.5109 3.92237 20.5316 3.98447C20.5523 4.04656 20.6248 4.08796 20.6351 4.13971C20.6455 4.13971 20.6351 4.13971 20.6455 4.13971C20.6455 4.13971 20.6351 4.17075 20.6455 4.1811C20.6558 4.19145 20.6869 4.2225 20.7076 4.2225C20.7076 4.25355 20.6972 4.23285 20.6972 4.27425C20.7283 4.31564 20.749 4.35704 20.7593 4.40879C20.7593 4.40879 20.7697 4.40878 20.7697 4.41913C20.7697 4.40878 20.7697 4.40878 20.7593 4.38809C20.7697 4.41913 20.7697 4.42949 20.7904 4.45018C20.7904 4.45018 20.7904 4.45018 20.8007 4.45018C20.8007 4.43984 20.8007 4.41913 20.7904 4.41913C20.8628 4.43983 20.8628 4.45018 20.8835 4.46053ZM19.2483 2.58731C19.2276 2.58731 19.2276 2.58731 19.2483 2.58731C19.2276 2.57696 19.2276 2.57696 19.2483 2.58731ZM18.8654 4.11901C18.8654 4.10866 18.8654 4.10866 18.8654 4.08796C18.8654 4.08796 18.8654 4.08796 18.8758 4.08796C18.8654 4.10866 18.8654 4.11901 18.8654 4.11901ZM19.269 2.56661C19.2794 2.56661 19.2794 2.56661 19.269 2.56661V2.56661ZM19.5588 2.52521C19.5692 2.52521 19.5692 2.52522 19.5899 2.53557C19.5899 2.53557 19.5692 2.53556 19.5588 2.52521ZM20.1177 3.4049C20.128 3.41525 20.128 3.41525 20.1177 3.4049C20.1177 3.41525 20.1177 3.41525 20.1177 3.4049ZM20.8007 4.26389C20.7904 4.25354 20.7697 4.23285 20.7593 4.2225H20.7697C20.7904 4.25355 20.8007 4.25354 20.8007 4.26389ZM13.1216 1.304C13.1319 1.33505 13.1836 1.3454 13.2147 1.35575C13.2147 1.3454 13.2147 1.32469 13.2147 1.31435C13.1836 1.304 13.163 1.304 13.1216 1.304C13.1319 1.304 13.1319 1.304 13.1216 1.304ZM15.2225 1.44889C15.2225 1.43854 15.2225 1.43854 15.2225 1.44889C15.2018 1.43854 15.2225 1.43854 15.2225 1.44889C15.2018 1.44889 15.1914 1.43854 15.2225 1.44889ZM15.4294 1.63518C15.4191 1.62483 15.4191 1.62483 15.4294 1.63518C15.4191 1.62483 15.4191 1.63518 15.4294 1.63518C15.4191 1.63518 15.4191 1.63518 15.4294 1.63518ZM14.705 1.91461C14.7981 1.96636 14.8602 2.0181 14.9844 2.0595C14.9844 2.0595 14.9844 2.0595 14.9948 2.0595V2.04915C14.912 1.9767 14.8085 1.91461 14.705 1.91461ZM15.7089 1.96636C15.7089 1.97671 15.7192 1.97671 15.7089 1.96636C15.7192 1.96636 15.7192 1.96636 15.7089 1.96636ZM18.7516 2.81499C18.7826 2.80464 18.793 2.815 18.8137 2.82535C18.8137 2.815 18.8137 2.78395 18.824 2.7736L18.9586 2.78395H18.9689C18.9689 2.78395 18.9689 2.7736 18.9586 2.7736C19.0206 2.7736 19.0517 2.7736 19.1034 2.74255C19.1034 2.74255 19.1034 2.74255 19.1034 2.7322C19.1034 2.72185 19.1034 2.72185 19.0931 2.70115C19.0827 2.70115 19.0517 2.70115 19.0413 2.70115C19.0517 2.6908 19.0724 2.65976 19.0724 2.63906C19.062 2.59766 18.9896 2.52521 18.9586 2.57696H18.9482C18.9172 2.52521 18.8861 2.47347 18.8137 2.43207C18.7826 2.42172 18.7619 2.40102 18.7516 2.40102C18.6895 2.33893 18.6584 2.29753 18.5549 2.29753C18.5653 2.28718 18.586 2.28718 18.586 2.26648C18.5756 2.26648 18.5756 2.25613 18.5549 2.25613C18.5653 2.22509 18.5549 2.20439 18.5549 2.16299C18.5135 2.12159 18.4514 2.13194 18.41 2.15264C18.41 2.12159 18.4204 2.14229 18.3997 2.1216C18.3997 2.11125 18.41 2.09054 18.4307 2.0802C18.4307 2.06985 18.4307 2.06985 18.4204 2.04915C18.379 2.0388 18.3376 2.0595 18.3065 2.04915C18.2962 2.0595 18.2962 2.0595 18.3065 2.0802C18.2962 2.09054 18.3065 2.09055 18.3169 2.1216C18.3169 2.1216 18.3169 2.1216 18.3065 2.1216C18.2962 2.1216 18.2962 2.12159 18.2962 2.13194C18.3066 2.14229 18.3065 2.16299 18.3272 2.17334C18.3169 2.16299 18.2858 2.14229 18.2755 2.13194C18.2652 2.14229 18.2755 2.13194 18.2651 2.16299C18.2962 2.19404 18.3272 2.20439 18.3479 2.20439C18.3479 2.20439 18.3479 2.21474 18.3583 2.21474C18.3479 2.21474 18.3479 2.22509 18.3272 2.22509C18.3376 2.25614 18.3376 2.25613 18.3376 2.26648C18.3479 2.26648 18.3686 2.26648 18.379 2.26648V2.25613C18.379 2.25613 18.379 2.25613 18.379 2.24578C18.3893 2.28718 18.41 2.32858 18.4204 2.35963H18.4307C18.4307 2.35963 18.4307 2.35962 18.4307 2.34927C18.4307 2.34927 18.4307 2.33893 18.4204 2.33893C18.4307 2.33893 18.4307 2.34927 18.4514 2.34927C18.4514 2.33893 18.4411 2.31823 18.4411 2.30788C18.4514 2.31823 18.4721 2.31823 18.4721 2.33893C18.4825 2.34928 18.4825 2.38033 18.4721 2.39067C18.4825 2.40102 18.5032 2.42172 18.5135 2.42172C18.5135 2.42172 18.5135 2.41137 18.5032 2.41137C18.5135 2.41137 18.5342 2.42172 18.5446 2.42172V2.41137C18.5756 2.42172 18.586 2.41137 18.5963 2.40102C18.6274 2.44242 18.6067 2.49417 18.6791 2.48382C18.6791 2.51487 18.6895 2.52521 18.7102 2.54591C18.6791 2.57696 18.6481 2.55626 18.617 2.54591C18.617 2.57696 18.6274 2.57696 18.6481 2.58731L18.6377 2.59766C18.6377 2.59766 18.6377 2.59766 18.6377 2.60801C18.6481 2.60801 18.6688 2.59766 18.6688 2.59766C18.6791 2.60801 18.6998 2.62871 18.6998 2.63906C18.6998 2.67011 18.6688 2.68045 18.6481 2.68045L18.6377 2.69081C18.6481 2.70116 18.6688 2.72185 18.6791 2.7322C18.7205 2.70115 18.7619 2.7322 18.8137 2.76325C18.824 2.76325 18.8447 2.7529 18.8447 2.7529C18.8447 2.76325 18.8447 2.76325 18.8447 2.78395C18.8137 2.78395 18.793 2.78395 18.7619 2.78395C18.7619 2.82534 18.7309 2.86674 18.7102 2.88744C18.7102 2.88744 18.7102 2.88744 18.7102 2.89779C18.7412 2.89779 18.7412 2.89779 18.7516 2.90814C18.7309 2.83569 18.7309 2.82534 18.7516 2.81499ZM18.41 2.30788C18.41 2.29753 18.41 2.29753 18.41 2.30788C18.4204 2.29753 18.4204 2.30788 18.4307 2.30788C18.4204 2.30788 18.41 2.30788 18.41 2.30788ZM15.6882 2.0181C15.7089 2.00775 15.7089 2.00775 15.6882 2.0181C15.6778 2.00775 15.6468 1.98705 15.6261 1.98705C15.6054 1.98705 15.5743 1.98705 15.5433 1.98705C15.5329 1.98705 15.4915 2.0181 15.4605 2.02845C15.4191 2.0595 15.3984 2.11125 15.3467 2.1216C15.3363 2.13194 15.3363 2.13194 15.3467 2.15264C15.3363 2.15264 15.3363 2.15264 15.3156 2.14229C15.2846 2.14229 15.2742 2.17334 15.2639 2.18369C15.2742 2.19404 15.2742 2.19404 15.2949 2.21474C15.2639 2.20439 15.2121 2.22509 15.1811 2.22509L15.1914 2.26648C15.2535 2.27683 15.5329 2.32858 15.5433 2.35963H15.5329C15.564 2.36998 15.5847 2.39067 15.6157 2.39067C15.6157 2.38033 15.6157 2.39068 15.6261 2.38033C15.6364 2.39068 15.6675 2.39068 15.6778 2.41137C15.6364 2.42172 15.6157 2.44242 15.564 2.42172V2.43207C15.6468 2.46312 15.7192 2.42172 15.7917 2.40102C15.7917 2.41137 15.802 2.41138 15.802 2.43207C15.802 2.47347 15.771 2.47347 15.7606 2.48382C15.7606 2.49417 15.7606 2.49417 15.771 2.51487C15.7813 2.51487 15.8124 2.50451 15.8227 2.50451C15.8124 2.51486 15.8124 2.53556 15.8124 2.55626C15.8434 2.55626 15.8538 2.56661 15.8745 2.56661C15.9055 2.55626 15.9159 2.52521 15.9366 2.50451C15.9366 2.49416 15.9366 2.47347 15.9366 2.47347C15.9055 2.47347 15.9055 2.48382 15.8848 2.48382V2.47347C15.8952 2.46312 15.9159 2.44242 15.9262 2.43207C15.9262 2.43207 15.9262 2.43207 15.9262 2.42172C15.8745 2.42172 15.8641 2.43207 15.8331 2.46312C15.8331 2.46312 15.8331 2.45277 15.8227 2.45277C15.8124 2.45277 15.8227 2.45277 15.8124 2.45277C15.8434 2.42172 15.9055 2.41137 15.9055 2.40102C15.9055 2.40102 15.9055 2.40102 15.9159 2.39067C15.9055 2.38033 15.8641 2.38033 15.8227 2.38033C15.8331 2.34928 15.8227 2.36998 15.8227 2.33893C15.8538 2.33893 15.8538 2.32858 15.8641 2.30788C15.8331 2.27683 15.802 2.25613 15.7606 2.26648C15.7503 2.25613 15.7606 2.23544 15.7296 2.22509C15.7192 2.22509 15.7296 2.23544 15.7192 2.22509C15.7192 2.23544 15.7192 2.23544 15.7192 2.23544C15.7089 2.23544 15.7089 2.23544 15.6882 2.23544C15.6571 2.23544 15.6778 2.23544 15.6778 2.20439C15.6468 2.20439 15.6675 2.20439 15.6675 2.21474C15.6571 2.20439 15.6364 2.20439 15.6261 2.20439C15.6261 2.20439 15.6261 2.19404 15.6364 2.19404C15.6261 2.18369 15.6364 2.19404 15.6054 2.19404C15.6054 2.19404 15.6054 2.19404 15.595 2.18369V2.17334C15.6054 2.17334 15.6261 2.17334 15.6468 2.17334C15.6157 2.16299 15.595 2.16299 15.564 2.13194C15.5329 2.14229 15.5122 2.14229 15.4812 2.16299C15.4915 2.12159 15.564 2.0802 15.595 2.0802L15.6054 2.06985C15.595 2.0595 15.595 2.0595 15.5743 2.0595C15.6571 2.0181 15.6675 2.0181 15.6882 2.0181ZM18.2031 2.1216C18.2134 2.11125 18.2134 2.11124 18.2341 2.09054C18.2341 2.08019 18.2341 2.0595 18.2238 2.04915C18.2134 2.04915 18.2134 2.04915 18.1927 2.04915C18.1824 2.0595 18.1617 2.0595 18.1617 2.0802C18.172 2.10089 18.1927 2.11125 18.2031 2.1216C18.1927 2.1216 18.1927 2.1216 18.2031 2.1216ZM18.172 2.1216C18.172 2.14229 18.1927 2.16299 18.1927 2.18369H18.2031C18.2031 2.17334 18.1927 2.14229 18.1927 2.13194C18.1927 2.14229 18.1927 2.1216 18.172 2.1216ZM15.6778 2.09054C15.6778 2.06984 15.6778 2.06984 15.6778 2.09054V2.09054ZM19.2173 2.21474C19.2069 2.20439 19.2173 2.20439 19.2173 2.21474V2.21474ZM18.2755 2.20439C18.2652 2.19404 18.2755 2.19404 18.2755 2.20439C18.2755 2.19404 18.2755 2.19404 18.2755 2.20439ZM18.2134 2.19404C18.2031 2.19404 18.2031 2.20438 18.2134 2.19404V2.19404ZM18.2651 2.23544C18.2651 2.24578 18.2651 2.24578 18.2651 2.23544V2.23544ZM15.2432 2.16299C15.2328 2.17334 15.2328 2.17334 15.2432 2.16299C15.2432 2.17334 15.2742 2.17334 15.2846 2.17334C15.2742 2.16299 15.2742 2.16299 15.2535 2.14229C15.2535 2.16299 15.2535 2.16299 15.2432 2.16299ZM15.802 2.20439C15.8124 2.21474 15.8331 2.21474 15.8331 2.21474C15.8227 2.20439 15.8227 2.20439 15.802 2.20439ZM18.3583 2.32858C18.3686 2.31823 18.3686 2.28718 18.3583 2.27683C18.3479 2.28718 18.3479 2.30788 18.3272 2.30788C18.3376 2.30788 18.3479 2.30788 18.3583 2.32858ZM14.6636 2.18369C14.6532 2.18369 14.6326 2.19404 14.6222 2.19404C14.6222 2.19404 14.6222 2.19404 14.6222 2.20439C14.6636 2.24579 14.705 2.26648 14.7671 2.28718C14.7774 2.29753 14.7671 2.28718 14.7774 2.29753C14.7878 2.30788 14.7878 2.30788 14.8085 2.32858C14.8499 2.32858 14.8395 2.29753 14.8913 2.29753C14.8602 2.28718 14.6946 2.24578 14.6946 2.24578C14.6843 2.23543 14.6843 2.24578 14.6843 2.21474C14.6532 2.19404 14.6636 2.20439 14.6636 2.18369ZM18.4411 2.48382C18.4721 2.47347 18.4514 2.45277 18.4825 2.44242V2.43207C18.4514 2.40103 18.4307 2.40102 18.3997 2.36997C18.3686 2.35963 18.3479 2.35963 18.3169 2.38033C18.3169 2.36998 18.3169 2.38032 18.3272 2.36997C18.3169 2.36997 18.2962 2.35963 18.2858 2.35963C18.2755 2.36998 18.2445 2.36998 18.2238 2.39067C18.2238 2.42172 18.2238 2.42172 18.2134 2.43207C18.2238 2.44242 18.2444 2.44242 18.2651 2.43207C18.2548 2.46312 18.2548 2.44242 18.2548 2.46312C18.2134 2.46312 18.172 2.46312 18.1513 2.46312C18.1513 2.49417 18.1617 2.47347 18.1617 2.49417H18.1513C18.1617 2.50452 18.1824 2.50451 18.2031 2.50451C18.1927 2.51486 18.1927 2.51487 18.172 2.53557C18.2031 2.57696 18.2238 2.54591 18.2755 2.56661C18.2445 2.57696 18.2652 2.57696 18.2445 2.60801C18.2341 2.61836 18.2341 2.61836 18.2445 2.63906C18.2341 2.64941 18.2341 2.64941 18.2445 2.67011C18.2341 2.67011 18.2134 2.67011 18.2134 2.67011C18.2134 2.68046 18.2134 2.68045 18.2031 2.70115C18.2134 2.70115 18.2341 2.70116 18.2445 2.69081C18.2341 2.69081 18.2341 2.70115 18.2134 2.70115C18.2651 2.815 18.4204 2.65976 18.5032 2.67011C18.5135 2.58731 18.4928 2.50452 18.4411 2.48382ZM15.8641 2.30788C15.8538 2.30788 15.8538 2.30788 15.8641 2.30788V2.30788ZM19.4967 2.39067C19.5174 2.40102 19.5174 2.40102 19.5381 2.41137C19.5174 2.40102 19.5071 2.40102 19.4967 2.39067ZM14.2807 2.32858C14.291 2.32858 14.291 2.32858 14.3117 2.31823L14.2807 2.32858C14.2807 2.30788 14.2807 2.30788 14.2807 2.32858ZM18.5342 2.45277C18.5446 2.45277 18.5446 2.45277 18.5342 2.45277C18.5446 2.46312 18.5446 2.46312 18.5653 2.46312V2.45277C18.5549 2.45277 18.5549 2.44242 18.5342 2.45277C18.5446 2.44242 18.5446 2.43207 18.5342 2.45277ZM14.0323 2.33893C14.0426 2.32858 14.0426 2.32858 14.0323 2.33893V2.33893ZM14.0737 2.32858C14.053 2.32858 14.053 2.32858 14.0737 2.32858C14.053 2.32858 14.053 2.33893 14.0737 2.32858C14.053 2.33893 14.053 2.33893 14.0737 2.32858ZM15.5226 2.39067C15.5329 2.40102 15.5329 2.40102 15.5433 2.39067C15.5329 2.39067 15.5329 2.39067 15.5226 2.39067ZM15.802 2.40102C15.7813 2.40102 15.7813 2.40102 15.802 2.40102C15.7917 2.40102 15.771 2.41137 15.771 2.41137V2.42172H15.7813C15.7813 2.42172 15.7813 2.42172 15.802 2.40102ZM15.5226 2.42172C15.5329 2.42172 15.5329 2.42172 15.5536 2.42172C15.5329 2.42172 15.5329 2.40102 15.5226 2.42172ZM15.5329 2.42172C15.5433 2.42172 15.5433 2.43207 15.5329 2.42172C15.5433 2.42172 15.5433 2.42172 15.5329 2.42172ZM19.2276 2.59766C19.2276 2.61836 19.2276 2.61836 19.2276 2.59766V2.59766ZM13.815 2.48382C13.8046 2.48382 13.8046 2.48382 13.815 2.48382V2.48382ZM13.7218 2.52521C13.7115 2.52521 13.7115 2.52522 13.6908 2.53557C13.6908 2.53557 13.6908 2.53556 13.6908 2.54591C13.7011 2.54591 13.7218 2.54591 13.7322 2.54591C13.7425 2.53556 13.7529 2.53556 13.7218 2.52521ZM13.5666 2.54591C13.5769 2.54591 13.5769 2.54591 13.5666 2.54591C13.5666 2.53556 13.5769 2.54591 13.5666 2.54591ZM13.8046 2.57696C13.8046 2.56661 13.8046 2.56661 13.8046 2.57696C13.7943 2.56661 13.7943 2.56661 13.8046 2.57696C13.7943 2.57696 13.7839 2.56661 13.8046 2.57696ZM12.9249 3.05303C12.9042 3.05303 12.9042 3.05303 12.9249 3.05303V3.05303ZM9.16813 3.35316C9.16813 3.36351 9.16813 3.36351 9.16813 3.35316C9.17848 3.34281 9.17847 3.32211 9.19917 3.30141H9.18883C9.16813 3.31176 9.16813 3.34281 9.16813 3.35316ZM20.304 3.67399C20.304 3.68434 20.304 3.68434 20.304 3.67399V3.67399ZM20.0452 3.82923C20.0452 3.77748 20.0142 3.67398 19.9831 3.64294C19.9831 3.65328 19.9935 3.65329 19.9935 3.67399C19.9831 3.67399 19.9831 3.68433 19.9624 3.68433C19.9831 3.73608 20.0142 3.79818 20.0452 3.82923ZM8.99219 3.91202C8.99219 3.92237 8.99218 3.92237 9.00253 3.94307C9.00253 3.91202 9.00254 3.91202 8.99219 3.91202ZM20.0659 3.86027C20.0659 3.87062 20.0659 3.89132 20.0556 3.90167C20.0452 3.91202 20.0452 3.91202 20.0245 3.90167C20.0245 3.94306 20.0763 3.99482 20.0866 4.03621C20.097 4.06726 20.0866 4.09831 20.097 4.12935C20.1073 4.1397 20.1073 4.1604 20.1487 4.1604C20.1487 4.15005 20.1487 4.12936 20.1487 4.11901C20.1591 4.11901 20.1591 4.119 20.1798 4.12935C20.1694 4.01551 20.128 3.92237 20.0659 3.86027C20.0763 3.86027 20.0763 3.86027 20.0659 3.86027ZM20.7076 3.96377C20.7179 3.95342 20.7179 3.96377 20.7076 3.96377V3.96377ZM20.749 4.00516C20.7593 4.00516 20.7593 4.00516 20.749 4.00516C20.749 3.99481 20.749 3.99481 20.749 4.00516C20.749 3.98446 20.749 3.98446 20.749 4.00516ZM20.7179 4.05691C20.7386 4.03621 20.7386 4.05691 20.7179 4.05691C20.7179 4.04656 20.7179 4.02586 20.7076 4.02586C20.7179 4.02586 20.7179 4.02586 20.7179 4.05691C20.7179 4.04656 20.7076 4.02586 20.7076 4.02586C20.7179 4.03621 20.7179 4.03621 20.7179 4.05691ZM20.7593 4.05691C20.7593 4.03621 20.78 4.03621 20.7593 4.05691V4.05691ZM20.6455 4.10865C20.6455 4.0983 20.6455 4.09831 20.6351 4.07761C20.6248 4.08796 20.6248 4.08795 20.6455 4.10865ZM20.7076 4.2225C20.7076 4.23285 20.7076 4.25355 20.7076 4.25355L20.7179 4.26389H20.7283C20.7283 4.26389 20.7283 4.2639 20.7283 4.25355C20.7179 4.25355 20.7076 4.2432 20.7076 4.2225ZM20.7386 4.30529C20.7386 4.29494 20.7386 4.29494 20.7386 4.30529V4.30529ZM20.8835 4.47088C20.8835 4.48123 20.8939 4.48123 20.8939 4.50193C20.8939 4.50193 20.8939 4.50193 20.8939 4.49158C20.8939 4.47088 20.8835 4.47088 20.8835 4.47088ZM14.9948 11.2497C15.0051 11.26 15.0051 11.26 15.0258 11.26C15.0051 11.26 14.9948 11.26 14.9948 11.2497ZM11.89 12.0362C11.9003 12.0362 11.9003 12.0362 11.89 12.0362V12.0362ZM11.8796 12.1708C11.89 12.1708 11.89 12.1708 11.8796 12.1708C11.89 12.1604 11.89 12.1604 11.8796 12.1708C11.8796 12.1604 11.8796 12.1604 11.8796 12.1708ZM12.0349 12.5537C12.0349 12.5433 12.0349 12.5433 12.0349 12.5537C12.0245 12.5433 12.0245 12.5537 12.0349 12.5537ZM11.9314 12.6365L11.9624 12.6468C11.9417 12.6365 11.9417 12.6365 11.9314 12.6365ZM11.9624 12.7089C11.9624 12.7296 11.9624 12.7296 11.9624 12.7089V12.7089ZM12.7593 13.6404C12.749 13.6197 12.7593 13.6197 12.7593 13.6404C12.749 13.6197 12.749 13.6197 12.7593 13.6404C12.749 13.6404 12.749 13.6197 12.7593 13.6404ZM12.9042 13.6404C12.8939 13.63 12.8732 13.63 12.8525 13.63C12.8732 13.6403 12.8939 13.6404 12.9042 13.6404ZM12.7283 13.6404C12.7386 13.6714 12.7593 13.6714 12.7697 13.6714C12.749 13.6507 12.7386 13.6404 12.7283 13.6404Z" fill="#1A1A1A"/>
<path d="M14.4566 0C11.4449 0 8.85762 1.82147 7.75024 4.43984C8.76447 2.61837 10.9275 0.445018 14.4462 0.445018C17.6131 0.445018 19.9935 2.35964 21.1526 4.46054C20.0452 1.83182 17.4579 0 14.4566 0Z" fill="#1A1A1A"/>
<path d="M21.3907 9.4903C20.4386 12.3777 17.7995 14.6235 14.436 14.6235C10.8758 14.6235 8.47479 12.4088 7.50195 9.55239C8.50583 12.2018 11.2277 14.1164 14.436 14.1164C17.6753 14.1268 20.4075 12.1811 21.3907 9.4903Z" fill="#1A1A1A"/>
<path d="M1.99624 9.30402C1.27179 9.30402 0.88886 8.83831 0.878511 7.95862L0.868164 5.93016C0.868164 5.89911 0.878516 5.88876 0.909564 5.88876L1.54087 5.82667C1.55122 5.82667 1.57192 5.82666 1.58227 5.83701C1.59262 5.84736 1.59261 5.86806 1.59261 5.86806L1.60296 7.87582C1.60296 8.31049 1.7789 8.53818 2.09973 8.53818C2.13078 8.53818 2.15148 8.53818 2.18252 8.53818C2.56545 8.49678 2.76208 8.23805 2.76208 7.76198L2.75174 5.75422C2.75174 5.72317 2.76208 5.71282 2.79313 5.71282L3.42444 5.65073C3.43479 5.65073 3.45548 5.65072 3.46583 5.66107C3.47618 5.67142 3.47619 5.69213 3.47619 5.69213L3.48653 7.72058C3.48653 8.25875 3.33129 9.19018 2.19287 9.30402C2.12043 9.30402 2.05833 9.30402 1.99624 9.30402Z" fill="#1A1A1A"/>
<path d="M4.15917 9.01422C4.14882 9.01422 4.12812 9.01422 4.12812 9.00387C4.11777 8.99352 4.11777 8.99352 4.11777 8.97282L4.10742 5.63C4.10742 5.59895 4.11777 5.58861 4.14882 5.58861L4.82153 5.53686C4.83187 5.53686 4.85257 5.53686 4.86292 5.54721L6.29113 7.43078L6.28077 5.46442C6.28077 5.43337 6.29112 5.42302 6.32217 5.42302L6.86034 5.38162C6.87069 5.38162 6.89138 5.38162 6.89138 5.39197C6.90173 5.40232 6.90173 5.40232 6.90173 5.42302L6.91208 8.76583C6.91208 8.79688 6.90173 8.80723 6.87068 8.80723L6.31182 8.84863C6.30147 8.84863 6.28077 8.84863 6.27043 8.83828L4.72838 6.78912L4.73873 8.91073C4.73873 8.94178 4.72838 8.95213 4.69733 8.95213L4.15917 9.01422Z" fill="#1A1A1A"/>
<path d="M7.71947 8.7969C7.70912 8.7969 7.68842 8.7969 7.68842 8.78655C7.67808 8.7762 7.67807 8.7762 7.67807 8.7555L7.66772 5.43339C7.66772 5.40234 7.67807 5.39199 7.70912 5.39199L8.43357 5.35059C8.44392 5.35059 8.46462 5.35059 8.46462 5.36094C8.47497 5.37129 8.47497 5.37129 8.47497 5.39199L8.48531 8.7141C8.48531 8.74515 8.47497 8.7555 8.44392 8.7555L7.71947 8.7969Z" fill="#1A1A1A"/>
<path d="M10.3998 8.67271C10.3894 8.67271 10.3584 8.66236 10.3584 8.64166L8.93018 5.35058C8.93018 5.34023 8.93018 5.31954 8.93018 5.30919C8.94053 5.29884 8.96122 5.29884 8.97157 5.27814L9.79951 5.24709C9.83056 5.24709 9.84091 5.25745 9.84091 5.27814L10.762 7.43079L11.7141 5.2264C11.7245 5.21605 11.7452 5.19534 11.7555 5.19534L12.4179 5.185C12.4282 5.185 12.4489 5.19534 12.4593 5.19534C12.4696 5.20569 12.4696 5.22639 12.4593 5.23674L11.0104 8.62096C11 8.63131 10.9793 8.65201 10.969 8.65201L10.3998 8.67271Z" fill="#1A1A1A"/>
<path d="M12.9767 8.62095C12.9457 8.62095 12.9353 8.6106 12.9353 8.57955L12.9043 5.25743C12.9043 5.24708 12.9043 5.22639 12.9146 5.22639C12.925 5.21604 12.925 5.21603 12.9457 5.21603H15.6158C15.6469 5.21603 15.6572 5.22639 15.6572 5.25743V5.89909C15.6572 5.90944 15.6572 5.93014 15.6469 5.93014C15.6365 5.94049 15.6365 5.94048 15.6158 5.94048H13.7529V6.52005H15.0052C15.0362 6.52005 15.0466 6.53039 15.0466 6.56144V7.2238C15.0466 7.23415 15.0466 7.25484 15.0363 7.25484C15.0259 7.26519 15.0259 7.26519 15.0052 7.26519H13.7529V7.88615H15.6365C15.6676 7.88615 15.6779 7.8965 15.6779 7.92755V8.58991C15.6779 8.60025 15.6779 8.62095 15.6676 8.62095C15.6572 8.6313 15.6572 8.6313 15.6365 8.6313L12.9767 8.62095Z" fill="#1A1A1A"/>
<path d="M19.4037 8.7141L18.5344 8.68306C18.524 8.68306 18.5033 8.67271 18.493 8.65201L17.7685 7.39975L17.2924 7.38939V8.60026C17.2924 8.61061 17.2924 8.63131 17.2821 8.63131C17.2717 8.64166 17.2511 8.64166 17.2511 8.64166L16.5266 8.61061C16.4956 8.61061 16.4852 8.57957 16.4852 8.56922L16.4749 5.2264C16.4749 5.21605 16.4749 5.19534 16.4852 5.19534C16.4956 5.185 16.4956 5.185 16.5163 5.185L18.3481 5.23674C18.9587 5.24709 19.3106 5.65071 19.3106 6.30272C19.3106 6.93403 18.969 7.20311 18.6689 7.3066L19.4348 8.63131C19.4451 8.64166 19.4451 8.66236 19.4348 8.67271C19.4244 8.71411 19.4141 8.7141 19.4037 8.7141ZM17.2924 6.66494L17.8824 6.6753C17.9134 6.6753 17.9341 6.6753 17.9652 6.6753C18.1721 6.6753 18.3067 6.64425 18.3791 6.5718C18.4309 6.52006 18.4619 6.42691 18.4619 6.29237C18.4619 6.13713 18.4309 5.99224 18.0686 5.97154L17.2924 5.94049V6.66494Z" fill="#1A1A1A"/>
<path d="M21.3079 8.91073C21.2665 8.91073 21.2148 8.91073 21.163 8.91073C20.6456 8.87968 20.1074 8.55886 19.9522 8.46571C19.9418 8.45536 19.9211 8.43466 19.9211 8.42431V7.65847C19.9211 7.64812 19.9315 7.62742 19.9522 7.61707C19.9625 7.60672 19.9832 7.60672 19.9936 7.61707C20.4593 7.9379 20.9043 8.13453 21.1527 8.14488C21.3907 8.15523 21.546 8.11383 21.6288 8.04139C21.6702 7.99999 21.6805 7.94825 21.6805 7.88615C21.6805 7.80335 21.5977 7.74126 21.4425 7.65847C21.3493 7.60672 21.2355 7.56532 21.1113 7.51358C20.5938 7.30659 19.8694 7.01681 19.8694 6.21992C19.8694 5.95084 19.9522 5.74385 20.1178 5.57826C20.3248 5.37127 20.6766 5.25744 21.0596 5.27813C21.5046 5.30918 22.0531 5.52652 22.3015 5.69211C22.3118 5.70245 22.3325 5.72315 22.3325 5.7335V6.489C22.3325 6.49934 22.3222 6.52005 22.3015 6.5304C22.2911 6.54074 22.2704 6.54074 22.2601 6.5304C22.1048 6.4269 21.5563 6.09573 21.0596 6.06468C20.8836 6.05433 20.7905 6.10607 20.7594 6.14747C20.718 6.18887 20.718 6.23027 20.718 6.24062C20.718 6.32341 20.8008 6.39585 20.9561 6.489C21.0492 6.54074 21.1837 6.59249 21.3079 6.64423C21.8254 6.85122 22.5188 7.1617 22.5188 7.8758C22.5188 8.19663 22.4257 8.44501 22.2394 8.6313C22.0531 8.80724 21.7219 8.91073 21.3079 8.91073Z" fill="#1A1A1A"/>
<path d="M25.8618 9.11773L25.1373 9.06598C25.127 9.06598 25.1063 9.05563 25.0959 9.03493L24.8579 8.36223L23.6781 8.26908L23.4297 8.90039C23.4193 8.91074 23.3986 8.93144 23.3883 8.93144L22.7777 8.89004C22.7673 8.89004 22.7466 8.87969 22.7363 8.85899C22.7259 8.84864 22.7259 8.82794 22.7363 8.81759L24.0299 5.54722C24.0403 5.53687 24.061 5.51617 24.0713 5.51617L24.5681 5.55757C24.5785 5.55757 24.5992 5.56792 24.6095 5.58862L25.8721 9.04528C25.8721 9.05563 25.8721 9.07633 25.8721 9.08668C25.8825 9.11773 25.8721 9.11773 25.8618 9.11773ZM23.9678 7.56533L24.5785 7.60673L24.2783 6.78914L23.9678 7.56533Z" fill="#1A1A1A"/>
<path d="M28.449 9.35575L26.3791 9.16947C26.3481 9.16947 26.3377 9.13841 26.3377 9.12807L26.3274 5.74385C26.3274 5.7335 26.3274 5.7128 26.3377 5.7128C26.3481 5.70245 26.3688 5.70245 26.3791 5.70245L27.0001 5.7542C27.0311 5.7542 27.0415 5.78525 27.0415 5.7956L27.0518 8.47606L28.4593 8.6106C28.4904 8.6106 28.5007 8.64165 28.5007 8.652V9.31436C28.5007 9.32471 28.5007 9.3454 28.4904 9.3454C28.4697 9.35575 28.4593 9.35575 28.449 9.35575Z" fill="#1A1A1A"/>
<path d="M7.77116 15.9896H7.62626L7.57452 15.8861H7.33648L7.28474 15.9896H7.1709L7.41928 15.4722H7.52277L7.77116 15.9896ZM7.38823 15.7723H7.53312L7.47102 15.6274L7.38823 15.7723Z" fill="#1A1A1A"/>
<path d="M9.00267 16C8.85778 16 8.71289 15.9172 8.71289 15.7309C8.71289 15.5446 8.85778 15.4515 9.00267 15.4515C9.09581 15.4515 9.17861 15.4929 9.19931 15.4929H9.20966V15.6067L9.17861 15.5964C9.16826 15.586 9.08546 15.555 9.00267 15.555C8.88883 15.555 8.84743 15.6585 8.84743 15.7309C8.84743 15.793 8.87848 15.9068 9.00267 15.9068C9.09581 15.9068 9.13721 15.8758 9.15791 15.8654L9.19931 15.8344V15.9482L9.16826 15.9586C9.14756 15.9689 9.09581 16 9.00267 16Z" fill="#1A1A1A"/>
<path d="M9.87205 16C9.72716 16 9.58228 15.9172 9.58228 15.7309C9.58228 15.5446 9.72716 15.4515 9.87205 15.4515C10.0169 15.4515 10.1618 15.5343 10.1618 15.7309C10.1618 15.9068 10.0169 16 9.87205 16ZM9.87205 15.5653C9.75821 15.5653 9.71681 15.6688 9.71681 15.7413C9.71681 15.8137 9.74786 15.9172 9.87205 15.9172C9.9859 15.9172 10.0273 15.8137 10.0273 15.7413C10.0273 15.6585 10.0066 15.5653 9.87205 15.5653Z" fill="#1A1A1A"/>
<path d="M11.1554 15.9896H11.0208V15.7205L10.907 15.9896H10.8242L10.6897 15.7205V15.9896H10.5862V15.4722H10.7207L10.876 15.8033L11.0312 15.4722H11.145L11.1554 15.9896Z" fill="#1A1A1A"/>
<path d="M11.8694 16C11.7245 16 11.5796 15.9172 11.5796 15.7309C11.5796 15.5446 11.7245 15.4515 11.8694 15.4515C11.9625 15.4515 12.0453 15.4929 12.066 15.4929H12.0764V15.6067L12.0453 15.5964C12.035 15.586 11.9522 15.555 11.8694 15.555C11.7555 15.555 11.7141 15.6585 11.7141 15.7309C11.7141 15.793 11.7452 15.9068 11.8694 15.9068C11.9625 15.9068 12.0039 15.8758 12.0246 15.8654L12.066 15.8344V15.9482L12.035 15.9586C12.0143 15.9689 11.9625 16 11.8694 16Z" fill="#1A1A1A"/>
<path d="M13.0182 15.9896H12.8733L12.8216 15.8861H12.5836L12.5318 15.9896H12.418L12.6664 15.4722H12.7698L13.0182 15.9896ZM12.6353 15.7723H12.7802L12.7181 15.6274L12.6353 15.7723Z" fill="#1A1A1A"/>
<path d="M13.5772 16C13.5151 16 13.422 15.9689 13.3806 15.9482H13.3702V15.8344L13.4013 15.8447C13.453 15.8758 13.5358 15.8965 13.5875 15.8965C13.6496 15.8965 13.691 15.8861 13.691 15.8447C13.691 15.8137 13.6289 15.8034 13.5565 15.7827C13.453 15.7516 13.3599 15.6999 13.3599 15.6067C13.3599 15.5136 13.4427 15.4618 13.5668 15.4618C13.6496 15.4618 13.7428 15.4929 13.7738 15.5032H13.7842V15.6171L13.7531 15.6067C13.7221 15.5964 13.6393 15.555 13.5668 15.555C13.5255 15.555 13.5047 15.5653 13.5047 15.5964C13.5047 15.6274 13.5462 15.6378 13.6186 15.6585C13.6289 15.6585 13.66 15.6688 13.6703 15.6688C13.7531 15.6999 13.8256 15.7309 13.8256 15.8137C13.8152 15.8965 13.7945 16 13.5772 16Z" fill="#1A1A1A"/>
<path d="M14.4879 15.9896H14.3533V15.5757H14.1877V15.4722H14.6742V15.5757H14.4982V15.9896H14.4879Z" fill="#1A1A1A"/>
<path d="M15.9057 16C15.7609 16 15.616 15.9172 15.616 15.7309C15.616 15.5446 15.7609 15.4515 15.9057 15.4515C15.9989 15.4515 16.0817 15.4929 16.1024 15.4929H16.1127V15.6067L16.0817 15.5964C16.0713 15.586 15.9885 15.555 15.9057 15.555C15.7919 15.555 15.7505 15.6585 15.7505 15.7309C15.7505 15.793 15.7816 15.9068 15.9057 15.9068C15.9989 15.9068 16.0403 15.8758 16.061 15.8654L16.1024 15.8344V15.9482L16.0713 15.9586C16.0403 15.9689 15.9885 16 15.9057 16Z" fill="#1A1A1A"/>
<path d="M16.7751 16C16.6302 16 16.4854 15.9172 16.4854 15.7309C16.4854 15.5446 16.6302 15.4515 16.7751 15.4515C16.92 15.4515 17.0649 15.5343 17.0649 15.7309C17.0649 15.9068 16.92 16 16.7751 16ZM16.7751 15.5653C16.6613 15.5653 16.6199 15.6688 16.6199 15.7413C16.6199 15.8137 16.6509 15.9172 16.7751 15.9172C16.889 15.9172 16.9304 15.8137 16.9304 15.7413C16.9304 15.6585 16.8993 15.5653 16.7751 15.5653Z" fill="#1A1A1A"/>
<path d="M18.0582 15.9896H17.9237V15.7205L17.8098 15.9896H17.7271L17.5925 15.7205V15.9896H17.489V15.4722H17.6236L17.7788 15.8033L17.934 15.4722H18.0479L18.0582 15.9896Z" fill="#1A1A1A"/>
<path d="M18.6275 15.9896H18.4929V15.4722H18.7724C18.9069 15.4722 18.969 15.5239 18.969 15.6481C18.969 15.824 18.8551 15.8447 18.7413 15.8447H18.6275V15.9896ZM18.6275 15.7309H18.731C18.8241 15.7309 18.8344 15.7205 18.8344 15.6378C18.8344 15.586 18.8034 15.555 18.7517 15.555H18.6171L18.6275 15.7309Z" fill="#1A1A1A"/>
<path d="M19.9213 15.9896H19.7764L19.7247 15.8861H19.4866L19.4349 15.9896H19.321L19.5694 15.4722H19.6729L19.9213 15.9896ZM19.5384 15.7723H19.6833L19.6212 15.6274L19.5384 15.7723Z" fill="#1A1A1A"/>
<path d="M20.8113 15.9896H20.7078L20.4077 15.6481V15.9896H20.3042V15.4722H20.4387L20.7182 15.793V15.4722H20.8217L20.8113 15.9896Z" fill="#1A1A1A"/>
<path d="M21.5358 15.9896H21.4013V15.8033L21.1736 15.4722H21.3288L21.4841 15.6792L21.6393 15.4722H21.7738L21.5358 15.8033V15.9896Z" fill="#1A1A1A"/>
<path d="M29.1011 8.7348C29.2563 8.7348 29.3805 8.84865 29.3805 9.01423C29.3805 9.16947 29.2459 9.29367 29.1011 9.29367C28.9458 9.29367 28.8113 9.17982 28.8113 9.01423C28.8113 8.85899 28.9458 8.7348 29.1011 8.7348ZM29.1011 9.26262C29.2356 9.26262 29.3391 9.15912 29.3391 9.02458C29.3391 8.89004 29.2356 8.78655 29.1011 8.78655C28.9665 8.78655 28.863 8.89004 28.863 9.02458C28.863 9.15912 28.9769 9.26262 29.1011 9.26262ZM29.246 9.06598C29.2356 9.14878 29.1839 9.17982 29.1011 9.17982C28.9976 9.17982 28.9251 9.09703 28.9251 9.00389C28.9251 8.90039 28.9872 8.82795 29.1011 8.82795C29.1632 8.82795 29.2356 8.86934 29.246 8.94179H29.1942C29.1839 8.90039 29.1528 8.85899 29.1011 8.85899C29.0183 8.85899 28.9872 8.91074 28.9872 8.99353C28.9872 9.05563 29.0286 9.12807 29.1011 9.12807C29.1528 9.12807 29.1839 9.09703 29.1942 9.04528L29.246 9.06598Z" fill="#1A1A1A"/>
</g>
<defs>
<clipPath id="clip0_829_236">
<rect width="28.5123" height="16" fill="white" transform="translate(0.868164)"/>
</clipPath>
</defs>
</svg>
