<svg width="14" height="16" viewBox="0 0 14 16" fill="none" xmlns="http://www.w3.org/2000/svg">
<g clip-path="url(#clip0_781_327)">
<path d="M2.31124 13.2196C1.17492 12.2892 0.574707 10.95 0.574707 9.3506V1.74758C2.3691 0.796361 4.54188 0.31427 7.033 0.31427C9.52412 0.31427 11.6971 0.796361 13.4913 1.74758V9.3506C13.4913 10.95 12.8911 12.2883 11.7548 13.2196C10.7152 14.0716 7.41209 15.521 7.03276 15.686C6.65391 15.521 3.35081 14.0719 2.31124 13.2196Z" fill="#330000"/>
<path d="M13.1376 1.65827C12.3074 1.5812 11.445 1.5303 10.5665 1.5303C7.30855 1.5303 3.81579 2.23063 0.928286 4.87901V9.40582C0.928286 10.8802 1.47352 12.1113 2.50949 12.9557C3.42421 13.7 6.23921 14.9748 7.03293 15.3251C7.81657 14.9801 10.6244 13.7221 11.5552 12.9557C12.5976 12.0967 13.1376 10.8941 13.1376 9.40582V1.65827ZM1.52514 8.93477V5.25835H2.69411V8.98663C2.69411 9.31843 2.7743 9.80964 3.31041 9.80964C3.50469 9.8175 3.69692 9.76735 3.86261 9.66559V5.25835H5.03014V10.3323C4.50285 10.6614 3.88905 10.825 3.26792 10.8019C2.11071 10.8019 1.52394 10.1739 1.52394 8.93477M6.80149 13.1783H5.6318V5.55605C6.10495 5.26544 6.65326 5.12073 7.2082 5.13999C8.60429 5.13999 9.37136 6.19924 9.37136 7.90409C9.37136 9.60893 8.6271 10.7817 7.32824 10.7817C7.15045 10.7849 6.97314 10.7625 6.80173 10.7152L6.80149 13.1783ZM6.80149 9.75947C6.92293 9.80495 7.05139 9.82884 7.18107 9.83005C7.85331 9.83005 8.1755 9.21231 8.1755 7.93338C8.1755 6.62323 7.89436 6.08136 7.21516 6.08136C7.07266 6.08018 6.93149 6.10889 6.80077 6.16563L6.80149 9.75947ZM9.63642 6.66429C9.64375 6.25451 9.81285 5.86426 10.1068 5.57869C10.4008 5.29312 10.7958 5.13542 11.2056 5.13999C11.6643 5.11567 12.1175 5.24976 12.4891 5.5198V6.53704C12.2137 6.24966 11.8391 6.07796 11.4416 6.05687C11.1101 6.05399 10.7651 6.19972 10.7538 6.61555C10.7425 7.04122 11.0868 7.20928 11.522 7.46521C12.499 8.03949 12.6879 8.55568 12.6653 9.23776C12.643 9.98563 12.1275 10.8024 10.972 10.8024C10.5189 10.7973 10.0752 10.672 9.68636 10.4394V9.36212C9.99528 9.64127 10.3889 9.80881 10.8042 9.83797C11.2332 9.84013 11.5156 9.59429 11.5055 9.18638C11.4966 8.81929 11.2894 8.61978 10.7749 8.31751C9.81048 7.75187 9.63714 7.28635 9.63546 6.66429M2.11815 13.4325C0.934768 12.4633 0.310547 11.0706 0.310547 9.40582V1.49189C2.17817 0.501778 4.44001 0 7.03293 0C9.62585 0 11.8877 0.501778 13.7553 1.49189V9.40582C13.7553 11.0706 13.1311 12.4633 11.9477 13.4328C10.8659 14.3196 7.42763 15.8281 7.03293 15.9998C6.63823 15.8281 3.19997 14.3196 2.11815 13.4325ZM11.324 15.0913V15.7782H11.4479V15.4915H11.4654C11.4748 15.5054 11.6519 15.7782 11.6519 15.7782H11.802C11.802 15.7782 11.6138 15.5028 11.5946 15.4769C11.6375 15.4695 11.6764 15.4471 11.7042 15.4137C11.7321 15.3802 11.7471 15.3379 11.7465 15.2944C11.7471 15.2654 11.7414 15.2366 11.7297 15.21C11.718 15.1835 11.7007 15.1597 11.679 15.1405C11.6572 15.1213 11.6316 15.1071 11.6038 15.0988C11.576 15.0905 11.5467 15.0883 11.518 15.0925L11.324 15.0913ZM11.5045 15.1916C11.6099 15.1916 11.6246 15.2433 11.6246 15.2877C11.6246 15.352 11.597 15.3955 11.4642 15.3955H11.4481V15.1912L11.5045 15.1916ZM11.9895 15.4365C11.9893 15.5284 11.9619 15.6182 11.9107 15.6946C11.8595 15.7709 11.7868 15.8304 11.7019 15.8654C11.6169 15.9005 11.5234 15.9096 11.4333 15.8916C11.3432 15.8736 11.2604 15.8293 11.1954 15.7642C11.1305 15.6992 11.0862 15.6164 11.0683 15.5262C11.0504 15.4361 11.0596 15.3426 11.0948 15.2577C11.1299 15.1728 11.1894 15.1002 11.2658 15.0491C11.3422 14.9979 11.4321 14.9706 11.524 14.9705C11.5852 14.9705 11.6458 14.9825 11.7023 15.0059C11.7588 15.0293 11.8102 15.0636 11.8535 15.1069C11.8967 15.1502 11.931 15.2016 11.9543 15.2581C11.9777 15.3147 11.9896 15.3753 11.9895 15.4365ZM11.5225 14.8711C11.411 14.8713 11.3019 14.9045 11.2092 14.9665C11.1165 15.0286 11.0443 15.1167 11.0017 15.2198C10.959 15.3229 10.9479 15.4363 10.9697 15.5458C10.9915 15.6552 11.0452 15.7557 11.124 15.8346C11.2029 15.9135 11.3034 15.9673 11.4128 15.9891C11.5222 16.0109 11.6356 15.9998 11.7388 15.9572C11.8419 15.9146 11.93 15.8424 11.9921 15.7498C12.0543 15.6571 12.0875 15.5481 12.0877 15.4365C12.0875 15.2867 12.0279 15.143 11.922 15.037C11.816 14.931 11.6724 14.8714 11.5225 14.8711Z" fill="#FFBE00"/>
</g>
<defs>
<clipPath id="clip0_781_327">
<rect width="13.4448" height="16" fill="white" transform="translate(0.310547)"/>
</clipPath>
</defs>
</svg>
