<svg width="41" height="16" viewBox="0 0 41 16" fill="none" xmlns="http://www.w3.org/2000/svg">
<g clip-path="url(#clip0_806_1670)">
<g clip-path="url(#clip1_806_1670)">
<path d="M40.0517 9.35857C39.9522 9.35857 39.8549 9.38811 39.7722 9.44343C39.6894 9.49876 39.625 9.57739 39.587 9.66937C39.5489 9.76135 39.5391 9.86254 39.5586 9.96013C39.5781 10.0577 39.6262 10.1473 39.6967 10.2176C39.7672 10.2879 39.8569 10.3356 39.9546 10.3549C40.0522 10.3741 40.1534 10.3639 40.2452 10.3256C40.3371 10.2873 40.4155 10.2226 40.4706 10.1397C40.5257 10.0568 40.5549 9.95943 40.5546 9.85991C40.555 9.79382 40.5423 9.72832 40.5171 9.66721C40.492 9.60609 40.4549 9.5506 40.4081 9.50394C40.3613 9.45728 40.3057 9.4204 40.2445 9.39545C40.1833 9.37049 40.1178 9.35796 40.0517 9.35857ZM40.0517 10.287C39.9656 10.2876 39.8812 10.2626 39.8093 10.2152C39.7374 10.1678 39.6812 10.1001 39.6478 10.0207C39.6144 9.94132 39.6054 9.8538 39.6218 9.76926C39.6382 9.68471 39.6794 9.60695 39.7401 9.54583C39.8007 9.48471 39.8782 9.443 39.9626 9.42597C40.0471 9.40894 40.1346 9.41736 40.2143 9.45018C40.2939 9.483 40.362 9.53872 40.4099 9.61029C40.4578 9.68186 40.4834 9.76604 40.4834 9.85217C40.4853 9.90988 40.4755 9.96737 40.4546 10.0212C40.4337 10.075 40.4022 10.1241 40.3618 10.1654C40.3215 10.2067 40.2733 10.2395 40.22 10.2617C40.1667 10.2839 40.1094 10.2952 40.0517 10.2947V10.287Z" fill="#001E79"/>
<path d="M40.2699 10.0162C40.2688 9.98551 40.2585 9.95589 40.2405 9.93107C40.2294 9.91597 40.2153 9.90335 40.199 9.89402C40.1828 9.8847 40.1648 9.87887 40.1461 9.87691C40.1741 9.87412 40.201 9.86513 40.225 9.8506C40.2427 9.83881 40.257 9.82262 40.2665 9.80362C40.276 9.78463 40.2804 9.76349 40.2792 9.74229C40.2821 9.71279 40.2753 9.68315 40.26 9.65778C40.2446 9.63241 40.2215 9.61267 40.1941 9.60148C40.1441 9.5857 40.0917 9.57889 40.0394 9.58137H39.8506V10.1338H39.9465V9.92023H40.0239C40.0608 9.9179 40.0978 9.92371 40.1322 9.93725C40.1864 9.96975 40.1833 10.0394 40.1848 10.1013C40.1824 10.113 40.1824 10.1251 40.1848 10.1369H40.2746C40.2694 10.1257 40.2668 10.1136 40.2668 10.1013C40.2699 10.075 40.2699 10.061 40.2699 10.0162ZM40.0347 9.84906H39.9465V9.6479H40.0301C40.1477 9.6479 40.1848 9.67576 40.1848 9.75003C40.1848 9.8243 40.1198 9.84906 40.0347 9.84906Z" fill="#001E79"/>
<path d="M18.8084 4.52471C18.0348 4.52471 17.4158 4.84346 17.176 5.1947V2.42963H15.4863V10.2947H17.1513V9.66029C17.4128 10.092 17.9899 10.42 18.7388 10.42C20.314 10.42 21.425 9.18217 21.425 7.46154C21.4265 5.77186 20.4409 4.52471 18.8084 4.52471ZM18.434 8.87889C17.7655 8.87889 17.1528 8.40231 17.1528 7.47237C17.1528 6.54243 17.7717 6.07977 18.434 6.07977C19.0962 6.07977 19.7043 6.52231 19.7043 7.47237C19.7043 8.42243 19.1024 8.87889 18.434 8.87889Z" fill="#001E79"/>
<path d="M26.8314 9.42202V6.67087C26.8314 5.51501 26.163 4.49377 24.3387 4.49377C22.683 4.49377 21.9341 5.55988 21.863 6.36449L23.3592 6.67396C23.3794 6.43718 23.4917 6.21777 23.672 6.06295C23.8522 5.90813 24.0861 5.83028 24.3232 5.84614C24.8679 5.84614 25.151 6.1293 25.151 6.46507C25.151 6.65694 25.0489 6.80548 24.7425 6.85036L23.4165 7.0546C22.4881 7.19077 21.75 7.75709 21.75 8.75666C21.75 9.65102 22.4649 10.468 23.6996 10.468C24.4485 10.468 24.9917 10.1585 25.2872 9.67423C25.2808 9.88723 25.3 10.1002 25.3444 10.3086H26.8918C26.8481 10.0152 26.8279 9.71869 26.8314 9.42202ZM25.1541 8.08512C25.1541 8.95782 24.6327 9.20694 24.1221 9.20694C23.647 9.20694 23.4536 8.92378 23.4536 8.62824C23.4536 8.23212 23.7259 8.06191 24.088 8.00931L25.1541 7.8391V8.08512Z" fill="#001E79"/>
<path d="M32.8769 6.75905V10.2947H31.1547V7.04531C31.1547 6.48981 30.8592 6.07049 30.2356 6.07049C29.6693 6.07049 29.3072 6.48981 29.3072 7.05614V10.2947H27.5835V4.65933H29.25V5.30611C29.5594 4.77383 30.248 4.51233 30.8251 4.51233C32.2425 4.51388 32.8769 5.52273 32.8769 6.75905Z" fill="#001E79"/>
<path d="M35.374 2.42963V6.5548L37.0854 4.66242H39.3197L37.1194 7.03138L39.3646 10.2962H37.2556L35.9295 8.31257L35.374 8.91293V10.2962H33.6519V2.42963H35.374Z" fill="#001E79"/>
<path d="M0.554688 10.8626L7.28557 13.5704L14.0164 10.8626V2.42963H0.554688V10.8626Z" fill="#CF2A36"/>
<path d="M5.67456 9.72838C5.38057 10.2158 4.73379 10.42 4.16746 10.42C2.79498 10.42 2.02441 9.42201 2.02441 8.22128V4.65933H3.74814V7.85766C3.74814 8.40232 4.04213 8.83248 4.65487 8.83248C5.23357 8.83248 5.59565 8.43636 5.59565 7.87004V4.65933H7.31937V9.28584C7.31912 9.62291 7.33772 9.95972 7.37508 10.2947H5.72098C5.69213 10.1073 5.67662 9.91802 5.67456 9.72838Z" fill="white"/>
<path d="M9.46256 8.43635C9.48576 8.82163 9.7581 9.19609 10.3476 9.19609C10.7902 9.19609 11.0052 8.9578 11.0052 8.70868C11.0052 8.50443 10.8691 8.33423 10.4498 8.24448L9.80297 8.08975C8.60224 7.83599 8.12566 7.15516 8.12566 6.36138C8.12566 5.33086 9.0324 4.49066 10.2919 4.49066C11.9244 4.49066 12.4922 5.5119 12.5479 6.16951L11.1166 6.42946C11.11 6.33126 11.0839 6.23537 11.0397 6.1474C10.9956 6.05943 10.9343 5.98116 10.8595 5.91718C10.7847 5.8532 10.6979 5.80478 10.6042 5.77478C10.5104 5.74478 10.4116 5.73379 10.3136 5.74245C9.984 5.74245 9.69465 5.93587 9.69465 6.22986C9.69465 6.46815 9.88807 6.60431 10.1372 6.64919L10.8861 6.80392C12.0528 7.04066 12.6191 7.74469 12.6191 8.57097C12.6191 9.53495 11.8826 10.4757 10.3755 10.4757C8.60688 10.4757 8.04056 9.33071 7.99414 8.70713L9.46256 8.43635Z" fill="white"/>
</g>
</g>
<defs>
<clipPath id="clip0_806_1670">
<rect width="40" height="16" fill="white" transform="translate(0.554688)"/>
</clipPath>
<clipPath id="clip1_806_1670">
<rect width="40" height="11.1408" fill="white" transform="translate(0.554688 2.42963)"/>
</clipPath>
</defs>
</svg>
