<svg width="13" height="16" viewBox="0 0 13 16" fill="none" xmlns="http://www.w3.org/2000/svg">
<g clip-path="url(#clip0_795_2276)">
<path d="M11.5859 9.81446C10.5283 12.5201 8.09406 15.4473 6.7197 15.4473C5.34533 15.4473 2.95305 12.6335 1.90262 10.0444C1.09987 8.0665 1.09809 6.84524 1.14952 6.53726C1.17671 6.37648 1.24942 6.15362 1.33336 5.91068C1.44568 5.58437 1.60055 5.28408 1.60055 5.28408C1.70045 5.1026 1.80567 4.90872 1.93454 4.71541C2.80762 3.3848 3.56958 3.57868 3.56958 3.57868C3.75106 3.44981 3.93905 3.36765 4.12644 3.33277C4.87657 3.18617 5.60897 3.75484 5.68582 4.51089C5.68582 4.51089 5.5806 4.65157 5.674 4.73374C5.76208 4.81 5.80286 4.74556 5.80286 4.74556L6.04877 4.49374C6.49389 4.49374 6.69369 5.03876 6.69369 5.03876C6.69369 5.03876 6.90472 4.49374 7.34393 4.49374L7.59634 4.74556C7.59634 4.74556 7.63121 4.81 7.72521 4.73374C7.8186 4.65157 7.71338 4.51089 7.71338 4.51089C7.78964 3.74301 8.54569 3.16844 9.31356 3.33869C9.48972 3.37948 9.65937 3.45573 9.82902 3.57868C9.82902 3.57868 10.5851 3.38538 11.4641 4.71541C11.587 4.90872 11.9104 5.48388 12.028 5.75993C12.122 5.98161 12.1941 6.12702 12.2568 6.53726C12.3088 6.87716 12.1817 8.28758 11.5853 9.81388M4.12702 1.46836C4.27953 1.25142 4.46692 1.02325 4.7075 0.794479L4.73648 0.841179C4.73648 0.841179 4.43204 1.1462 4.12702 1.60314C3.81668 2.066 3.50574 2.68136 3.51757 3.2973C3.51757 3.2973 3.41826 2.47682 4.12702 1.46896M8.72776 0.795071C8.96774 1.02384 9.16164 1.25201 9.31356 1.46896C10.017 2.47682 9.9171 3.2973 9.9171 3.2973C9.92892 2.68194 9.6239 2.06658 9.31356 1.60314C9.00854 1.1462 8.7041 0.841179 8.7041 0.841179L8.72776 0.794479V0.795071ZM11.7638 3.54381C10.896 2.04944 9.92301 1.27566 9.31356 0.900291C9.00854 0.712904 8.79218 0.618915 8.73308 0.589359C8.54569 0.495369 8.46944 0.613004 8.46944 0.613004C7.71338 1.48018 7.22689 0.812213 7.22689 0.812213C7.22689 0.812213 7.32028 0.601181 7.36166 0.390149C7.39654 0.185028 7.21506 0.185028 7.13289 0.185028C7.04482 0.185028 6.90472 0.343451 6.90472 0.343451L6.6996 0.307983L6.49448 0.343451C6.49448 0.343451 6.3538 0.185028 6.26572 0.185028C6.18354 0.185028 5.99616 0.185028 6.03754 0.390149C6.07833 0.601181 6.16641 0.812213 6.16641 0.812213C6.16641 0.812213 5.68582 1.48018 4.92977 0.613004C4.92977 0.613004 4.84761 0.495961 4.66613 0.589359C4.60761 0.618915 4.4084 0.700491 4.12702 0.876645C3.51757 1.2461 2.52093 2.01929 1.63602 3.54321C0.968046 4.68586 0.798392 5.81136 0.79248 6.62002V6.78436C0.798392 7.16564 0.83386 7.47006 0.862824 7.65745C0.997602 8.47202 1.42558 10.6468 3.27166 13.1549C3.56486 13.5592 5.28858 15.8149 6.7002 15.8149C8.1118 15.8149 9.78764 13.6243 10.1287 13.1549C11.9748 10.6462 12.3969 8.47202 12.5317 7.65745C12.5665 7.47006 12.602 7.16504 12.6079 6.78436V6.62002C12.5961 5.80545 12.4264 4.68586 11.7644 3.54321" fill="#0A0909"/>
<path d="M6.70016 16C5.14964 16 3.32482 13.5439 3.12208 13.2637C1.82159 11.4974 0.99993 9.62057 0.68013 7.68759C0.650574 7.49548 0.613333 7.18513 0.607422 6.78731V6.62061C0.612742 5.84268 0.768209 4.66221 1.47697 3.4504C2.35361 1.94067 3.35025 1.13141 4.03181 0.718809C4.27004 0.569845 4.45506 0.484723 4.54373 0.443344C4.56088 0.435068 4.57446 0.429157 4.58393 0.424428C4.82865 0.297927 5.006 0.410832 5.07338 0.495955C5.29564 0.749548 5.50904 0.879004 5.69701 0.873092C5.80933 0.868955 5.89741 0.814571 5.95297 0.768464C5.92224 0.680977 5.88204 0.553885 5.85662 0.425611C5.82706 0.27842 5.87376 0.182657 5.9181 0.128274C6.02332 0 6.19356 0 6.26626 0C6.37445 0 6.48085 0.0732996 6.55888 0.144825L6.70016 0.12059L6.84144 0.144825C6.91946 0.0732996 7.02528 0 7.13404 0C7.20498 0 7.37168 0 7.47689 0.124727C7.52182 0.177929 7.5697 0.272509 7.54429 0.420881C7.51886 0.552112 7.4763 0.680385 7.4438 0.768464C7.49994 0.814571 7.58921 0.868364 7.70212 0.871911C7.70625 0.871911 7.71098 0.871911 7.71512 0.871911C7.89896 0.871911 8.1094 0.742453 8.32516 0.495955C8.39196 0.409059 8.56516 0.297336 8.8158 0.422655C8.82466 0.426793 8.83708 0.432704 8.85304 0.440388C8.94821 0.485315 9.14624 0.578712 9.40988 0.741272C10.0778 1.1521 11.0562 1.95544 11.9228 3.44921C12.6203 4.65335 12.7805 5.83619 12.7917 6.61647V6.78317C12.787 7.11833 12.758 7.44819 12.7125 7.69055C12.3927 9.62648 11.5728 11.5027 10.2765 13.2637C10.1961 13.3748 8.2696 15.9988 6.69897 15.9988L6.70016 16ZM1.76307 5.37275C1.76307 5.37275 1.61411 5.66239 1.5083 5.97096C1.43322 6.18968 1.35756 6.41608 1.33214 6.568C1.33037 6.57923 1.1554 7.71064 2.07401 9.97465C3.15694 12.643 5.4582 15.2623 6.71966 15.2623C7.30192 15.2623 8.20338 14.6127 9.13086 13.5249C10.0625 12.4326 10.9155 11.0204 11.4138 9.74648C11.9931 8.26512 12.1214 6.87007 12.0753 6.56445C12.0215 6.21155 11.9629 6.075 11.8826 5.88584L11.8595 5.83145C11.7484 5.56959 11.428 4.99915 11.3098 4.81413C10.5301 3.63424 9.87924 3.7566 9.87273 3.75779L9.78878 3.77907L9.722 3.72705C9.57834 3.62241 9.43116 3.55385 9.27273 3.5172C8.9683 3.44981 8.64082 3.52075 8.376 3.71227C8.12122 3.89671 7.95216 4.17039 7.90605 4.46891C7.97049 4.59719 7.9764 4.75915 7.84812 4.87088L7.8428 4.8756C7.74232 4.95719 7.65364 4.96073 7.59689 4.94949C7.54074 4.93827 7.49049 4.90752 7.45621 4.86379L7.2765 4.68408C7.01405 4.74024 6.86862 5.10023 6.86745 5.10437L6.68893 5.55659L6.52164 5.10083C6.52045 5.09728 6.3839 4.74083 6.12085 4.68467L5.94233 4.86733C5.91692 4.89748 5.86785 4.94063 5.78982 4.95245C5.73366 4.96073 5.64736 4.95363 5.55397 4.87265C5.42569 4.76033 5.43101 4.59837 5.49544 4.47009C5.44933 4.17571 5.28441 3.90497 5.03614 3.72113C4.78018 3.53139 4.46216 3.45572 4.16305 3.51365C3.99872 3.54439 3.83616 3.61709 3.67773 3.72941L3.60798 3.77907L3.52522 3.75779C3.52522 3.75779 2.86612 3.63424 2.08997 4.81708C1.9682 4.99975 1.86829 5.18181 1.77135 5.35796L1.76307 5.37275ZM10.4526 12.3652C10.2233 12.7145 9.9809 13.0532 9.73145 13.3712C9.82366 13.2554 9.90701 13.146 9.97913 13.0467C10.1446 12.8215 10.3025 12.5945 10.452 12.3658L10.4526 12.3652ZM4.23338 1.02797C4.23338 1.02797 4.22806 1.03151 4.22512 1.03329C3.57842 1.4252 2.6338 2.19367 1.79618 3.63601C1.18259 4.68527 1.00939 5.70909 0.981605 6.43617C1.01825 6.26593 1.08919 6.05431 1.15894 5.85037C1.27421 5.5152 1.43027 5.21136 1.43677 5.19895L1.44682 5.18004C1.54731 4.99679 1.65135 4.80763 1.78081 4.61256C2.16386 4.02911 2.57824 3.64665 3.01212 3.47581C3.24208 3.38537 3.42177 3.37828 3.52404 3.38597C3.57546 3.35228 3.62689 3.32212 3.6795 3.29493L3.33369 3.31917C3.32897 3.28252 3.23438 2.41593 3.97566 1.36196C4.05782 1.24491 4.14294 1.13437 4.2328 1.02797H4.23338ZM9.93776 3.3836C10.0436 3.3836 10.1978 3.40133 10.3858 3.47581C10.8185 3.64665 11.2335 4.02911 11.6195 4.61315C11.7513 4.82004 12.077 5.39993 12.1994 5.68781L12.2224 5.7416C12.2946 5.91067 12.359 6.06023 12.414 6.34928C12.3714 5.62692 12.1864 4.63916 11.6053 3.63601C10.789 2.22913 9.87628 1.46776 9.24496 1.07407C9.32416 1.16866 9.39805 1.26501 9.46662 1.36255C10.202 2.41711 10.1068 3.28311 10.1027 3.31976L9.73441 3.29375C9.74564 2.70321 9.42938 2.105 9.1622 1.70657C8.87196 1.27151 8.57816 0.975357 8.57521 0.972401L8.48122 0.878413L8.48772 0.865999C8.22172 1.12787 7.95157 1.25378 7.68378 1.24255C7.30546 1.22599 7.08853 0.933979 7.07966 0.921565L7.017 0.83526L7.06016 0.737725C7.06016 0.737725 7.14113 0.553293 7.17897 0.371227C7.17069 0.371227 7.16182 0.370636 7.15414 0.370045C7.12813 0.385413 7.07848 0.428567 7.04478 0.466399L6.9768 0.542653L6.70193 0.495955L6.42705 0.543244L6.35908 0.466399C6.32538 0.428567 6.27573 0.385413 6.24972 0.370045C6.24204 0.370045 6.23317 0.370045 6.22489 0.371227C6.26332 0.555659 6.33898 0.739499 6.33957 0.741863L6.37917 0.837033L6.31888 0.920973C6.31001 0.933388 6.09602 1.2254 5.72006 1.24255C5.46234 1.25496 5.20342 1.13792 4.94688 0.895556L4.87004 0.972401C4.87004 0.972401 4.57329 1.27151 4.28364 1.70599C3.89349 2.28765 3.69901 2.81849 3.70492 3.28429C3.83261 3.22045 3.96384 3.17612 4.09565 3.15129C4.49466 3.07327 4.91909 3.17316 5.2584 3.42499C5.58706 3.66912 5.8046 4.02911 5.86372 4.42221L5.97425 4.30872H6.05228C6.35789 4.30872 6.56833 4.49373 6.69957 4.66871C6.83316 4.49373 7.04537 4.30872 7.34744 4.30872H7.42369L7.54074 4.42576C7.59926 4.02556 7.8227 3.65965 8.16082 3.41493C8.51077 3.16135 8.94644 3.06795 9.35609 3.15839C9.54229 3.20153 9.71313 3.27661 9.87864 3.38656C9.89637 3.38537 9.91706 3.3842 9.93953 3.3842L9.93776 3.3836Z" fill="white"/>
<path d="M11.6093 9.81446C10.5518 12.5201 8.11751 15.4473 6.74313 15.4473C5.36877 15.4473 2.97648 12.6335 1.92605 10.0444C1.1233 8.0665 1.12153 6.84524 1.17296 6.53726C1.20015 6.37648 1.27286 6.15362 1.3568 5.91068C1.46911 5.58437 1.62458 5.28408 1.62458 5.28408C1.72448 5.10201 1.8297 4.90872 1.95856 4.71541C2.83165 3.3848 3.59362 3.57809 3.59362 3.57809C3.77509 3.44922 3.96308 3.36706 4.15046 3.33218C4.9006 3.18558 5.633 3.75425 5.70925 4.51029C5.70925 4.51029 5.60404 4.65098 5.69744 4.73314C5.78552 4.80941 5.8263 4.74497 5.8263 4.74497L6.07221 4.49316C6.51733 4.49316 6.71713 5.03817 6.71713 5.03817C6.71713 5.03817 6.92816 4.49316 7.36796 4.49316L7.61977 4.74497C7.61977 4.74497 7.65465 4.80941 7.74864 4.73314C7.84204 4.65098 7.73683 4.51029 7.73683 4.51029C7.81308 3.74242 8.56912 3.16785 9.337 3.33809C9.51315 3.37888 9.68281 3.45513 9.85305 3.57809C9.85305 3.57809 10.6091 3.3848 11.4881 4.71541C11.6111 4.90872 11.9344 5.48329 12.052 5.75993C12.146 5.98161 12.2181 6.12702 12.2808 6.53726C12.3328 6.87716 12.2057 8.28758 11.6093 9.81388M4.15046 1.46836C4.30297 1.25142 4.49036 1.02325 4.73094 0.794479L4.7599 0.841179C4.7599 0.841179 4.45489 1.1462 4.15046 1.60314C3.83953 2.06598 3.52918 2.68136 3.54101 3.2973C3.54101 3.2973 3.4417 2.47682 4.15046 1.46896M8.75119 0.795071C8.99179 1.02384 9.18508 1.25201 9.337 1.46896C10.0404 2.47682 9.94053 3.2973 9.94053 3.2973C9.95236 2.68194 9.64733 2.06658 9.337 1.60314C9.03197 1.1462 8.72755 0.841179 8.72755 0.841179L8.75119 0.794479V0.795071ZM11.7872 3.54381C10.92 2.04944 9.94645 1.27566 9.337 0.900291C9.03197 0.712904 8.81563 0.618915 8.75711 0.589359C8.56972 0.495369 8.49347 0.613004 8.49347 0.613004C7.73741 1.48018 7.25092 0.812213 7.25092 0.812213C7.25092 0.812213 7.3443 0.601181 7.38569 0.390149C7.42116 0.185028 7.23909 0.185028 7.15752 0.185028C7.06944 0.185028 6.92875 0.343451 6.92875 0.343451L6.72362 0.307983L6.51851 0.343451C6.51851 0.343451 6.37782 0.185028 6.28974 0.185028C6.20757 0.185028 6.02018 0.185028 6.06157 0.390149C6.10236 0.601181 6.19044 0.812213 6.19044 0.812213C6.19044 0.812213 5.70985 1.48018 4.9538 0.613004C4.9538 0.613004 4.87164 0.495961 4.69016 0.589359C4.63164 0.618915 4.43242 0.701081 4.15105 0.876645C3.5416 1.2461 2.54496 2.01988 1.66005 3.54321C0.991482 4.68586 0.821238 5.81136 0.815918 6.62002V6.78377C0.82183 7.16504 0.856706 7.46948 0.886262 7.65685C1.02104 8.47142 1.44842 10.6462 3.2951 13.1543C3.5883 13.5587 5.31202 15.8144 6.72362 15.8144C8.13524 15.8144 9.81108 13.6237 10.1522 13.1543C11.9982 10.6456 12.4203 8.47142 12.5551 7.65685C12.59 7.46948 12.6254 7.16445 12.6313 6.78377V6.62002C12.6195 5.80545 12.4499 4.68586 11.7878 3.54262" fill="#0A0909"/>
<path d="M12.274 6.49175H1.18213C1.18213 6.49175 1.23947 6.26712 1.3571 5.90535C1.45818 5.59619 1.61306 5.31836 1.61306 5.31836H11.8289C11.8289 5.31836 11.9347 5.50161 12.0523 5.75993C12.2391 6.17076 12.274 6.49175 12.274 6.49175Z" fill="#3E93CD"/>
<path d="M11.8275 5.31836H1.62939C1.62939 5.31836 1.95865 4.63265 2.40673 4.18398C3.13026 3.46045 3.59902 3.61236 3.59902 3.61236C3.59902 3.61236 4.01341 3.22932 4.60217 3.36054C5.66146 3.59758 5.71526 4.54398 5.71526 4.54398C5.71526 4.54398 5.60117 4.70949 5.72826 4.79106C5.74895 4.80466 5.79623 4.81589 5.83289 4.77865C5.95289 4.6557 6.07879 4.52624 6.07879 4.52624C6.53633 4.53866 6.72371 5.07126 6.72371 5.07126C6.72371 5.07126 6.93475 4.56408 7.29179 4.53274L7.37395 4.52624L7.64823 4.79521C7.64823 4.79521 7.70026 4.8354 7.75463 4.76624C7.84035 4.65806 7.74282 4.54338 7.74282 4.54338C7.74282 4.54338 7.74459 3.75186 8.63659 3.41729C9.33058 3.1572 9.85846 3.61177 9.85846 3.61177C9.85846 3.61177 10.2445 3.47404 10.8604 4.00369C11.4285 4.49196 11.8281 5.31717 11.8281 5.31717" fill="white"/>
<path d="M6.74395 15.4473C7.99951 15.4539 9.88224 13.2548 11.0148 11.1001C12.2952 8.58491 12.3608 6.81448 12.2745 6.49115H1.18205C0.994662 7.45763 1.69278 10.0521 2.90696 11.9744C4.05196 13.7596 5.48959 15.4007 6.74336 15.4473" fill="#FFE524"/>
<path d="M6.74909 15.4485H6.74377C6.16329 15.4272 5.50419 15.0619 4.78419 14.3637C4.46971 14.0588 4.14281 13.6893 3.81297 13.2643C3.51268 12.8777 3.20765 12.4438 2.90677 11.975C2.61535 11.5145 2.34343 10.9991 2.09871 10.4428C1.87171 9.92856 1.67664 9.40068 1.51881 8.87458C1.36985 8.37804 1.2599 7.89745 1.20197 7.48544C1.14345 7.07165 1.13635 6.72761 1.18246 6.49116L12.2761 6.49057C12.3193 6.65254 12.324 7.18041 12.1591 7.97429C12.0669 8.41824 11.9345 8.8864 11.766 9.36521C11.5656 9.93446 11.3132 10.5185 11.017 11.1008C10.7321 11.6428 10.4064 12.1772 10.0482 12.6897C9.68344 13.2123 9.30631 13.6816 8.92739 14.0848C8.52779 14.5097 8.14297 14.8432 7.78356 15.0743C7.39873 15.3225 7.05116 15.4479 6.75087 15.4479L6.74909 15.4485ZM6.74377 15.4467C6.74377 15.4467 6.74732 15.4467 6.74909 15.4467C7.04939 15.4467 7.39637 15.3213 7.78061 15.0731C8.14001 14.8413 8.52484 14.5085 8.92444 14.0836C9.30335 13.6804 9.68048 13.2111 10.0452 12.6891C10.4028 12.1766 10.7291 11.6422 11.0141 11.1002C11.3108 10.5179 11.5626 9.93388 11.763 9.36462C11.9315 8.88581 12.0639 8.41764 12.1561 7.97429C12.3205 7.18218 12.3163 6.6549 12.2732 6.49293H1.18246C1.08965 6.97234 1.21615 7.86257 1.5194 8.87458C1.67723 9.40068 1.8723 9.92856 2.09929 10.4428C2.34461 10.9985 2.61653 11.514 2.90736 11.9744C3.20825 12.4432 3.51327 12.8771 3.81356 13.2637C4.14341 13.6881 4.47031 14.0581 4.78479 14.3625C5.50419 15.0601 6.16329 15.4248 6.74319 15.4467H6.74377Z" fill="#0F0C0D"/>
<path d="M6.06756 15.2788C6.06756 15.2788 5.8323 15.2115 5.30324 14.8172C5.04374 14.6232 4.82324 14.4045 4.82324 14.4045V6.49173H6.06756V15.2788Z" fill="#E23C07"/>
<path d="M7.33643 15.3025C7.33643 15.3025 7.57169 15.2351 8.10075 14.8403C8.36084 14.6469 8.58075 14.4276 8.58075 14.4276V6.49173H7.33643V15.3025Z" fill="#E23C07"/>
<path d="M8.49704 9.44857C8.49704 10.4399 7.70316 11.2438 6.72308 11.2438C5.74299 11.2438 4.94971 10.4399 4.94971 9.44857C4.94971 8.45725 5.74359 7.6539 6.72308 7.6539C7.70257 7.6539 8.49704 8.45783 8.49704 9.44857Z" fill="#B03E24"/>
<path d="M7.07854 11.0139C7.247 10.9412 7.88011 10.6527 7.88543 9.64127C7.89015 9.22689 7.78494 8.61271 7.39892 8.35321C7.13706 8.31655 6.9615 8.43419 6.89528 8.65527C7.00287 8.72385 7.35282 9.00403 7.15007 9.63654C7.15716 9.64837 7.16484 9.66137 7.17075 9.67259C7.34572 10.0101 7.31026 10.4221 6.95676 10.6308C6.90356 10.6621 6.84623 10.6882 6.78711 10.7065C6.84446 10.856 6.94967 10.9536 7.07854 11.0133" fill="#D69100"/>
<path d="M5.3756 10.4363C5.5488 10.6733 5.78229 10.8631 6.05421 10.9825C5.988 10.8862 5.92889 10.7727 5.90879 10.6716C5.76573 10.5143 5.59195 10.3997 5.375 10.4363" fill="#D69100"/>
<path d="M5.05762 9.5047C5.06708 9.82095 5.1652 10.1148 5.32718 10.363C5.56776 10.3075 5.7918 10.418 5.95436 10.5977C6.04244 10.5268 6.30254 10.3813 6.74234 10.6355C7.1904 10.5108 7.29031 10.0811 7.09819 9.71042L7.08755 9.69031C6.91494 9.74293 6.0649 9.96106 5.05762 9.5047Z" fill="#D69100"/>
<path d="M5.32088 8.54767C5.16009 8.79831 5.06433 9.09505 5.05664 9.41485C5.60639 9.6714 6.11063 9.72047 6.47889 9.70451C6.76087 9.6921 6.98017 9.63593 7.07297 9.60815C7.17347 9.28776 7.1516 8.91003 6.84657 8.72147C6.62668 8.82196 6.36717 8.85683 6.16205 8.71083C5.85348 8.85802 5.54728 8.819 5.33211 8.56246L5.32029 8.54767H5.32088Z" fill="#D69100"/>
<path d="M6.6637 7.78159C6.1305 7.80051 5.66115 8.07005 5.36914 8.47675C5.37623 8.48621 5.3851 8.49744 5.39514 8.50985C5.59377 8.74631 5.8509 8.76049 6.12341 8.63813C6.11573 8.52936 6.13759 8.17409 6.6637 7.78159Z" fill="#D69100"/>
<path d="M7.69434 8.09487C7.44074 7.91162 7.13454 7.79813 6.80291 7.78217C6.54637 7.95714 6.22066 8.25211 6.2041 8.58669C6.20293 8.61033 6.2041 8.62866 6.20529 8.63989C6.21474 8.64698 6.22538 8.65466 6.23425 8.65998C6.41337 8.76639 6.63149 8.73387 6.81238 8.64639C6.88626 8.38925 7.0973 8.22669 7.38281 8.26215L7.40469 8.24087C7.48626 8.16639 7.58615 8.11142 7.69374 8.09487" fill="#D69100"/>
<path d="M7.19175 11.0552C7.881 10.8525 8.38641 10.2129 8.38641 9.45446C8.38641 8.9384 8.15528 8.4791 7.79351 8.17231C7.66997 8.16107 7.55292 8.21664 7.46308 8.29939C7.59608 8.39694 7.97676 8.75338 7.96671 9.64243C7.96139 10.5847 7.43115 10.934 7.18701 11.054L7.19175 11.0552Z" fill="#D69100"/>
<path d="M6.72418 11.122C6.83531 11.122 6.94407 11.1114 7.0487 11.0901C6.89855 11.0221 6.77619 10.908 6.71471 10.7484C6.70822 10.7313 6.70349 10.7165 6.70053 10.7059C6.46941 10.5752 6.1963 10.499 5.99414 10.6739C6.00005 10.6958 6.0095 10.7254 6.02429 10.7603C6.05502 10.8341 6.10822 10.9335 6.19926 11.0381C6.36418 11.0925 6.54093 11.122 6.72418 11.122Z" fill="#D69100"/>
<path d="M3.63147 13.0254C3.63147 13.0254 3.2224 12.4674 2.90675 11.9744C2.61591 11.5352 2.4043 11.0877 2.4043 11.0877V6.49115H3.63147V13.0254Z" fill="#E23C07"/>
<path d="M9.7915 13.0432C9.7915 13.0432 10.2059 12.4704 10.5162 11.975C10.8071 11.5352 11.0187 11.0883 11.0187 11.0883V6.49173H9.7915V13.0432Z" fill="#E23C07"/>
<path d="M2.52498 5.49393H2.7106L2.41858 6.33214H2.24952L1.96045 5.49393H2.15138L2.337 6.13057L2.52498 5.49393Z" fill="white"/>
<path d="M3.08441 6.01531H3.30372L3.19555 5.68545L3.08441 6.01531ZM3.09624 5.49335H3.2984L3.60165 6.33215H3.40776L3.35101 6.15953H3.03536L2.97743 6.33215H2.79004L3.09565 5.49335H3.09624Z" fill="white"/>
<path d="M3.83203 5.49393H4.01055V6.18141H4.43854V6.33214H3.83203V5.49393Z" fill="white"/>
<path d="M5.31343 5.6423H4.86003V5.82023H5.27619V5.96623H4.86003V6.18141H5.33411V6.33214H4.68506V5.49393H5.31343V5.6423Z" fill="white"/>
<path d="M5.5918 5.49393H5.77977L6.11968 6.07855V5.49393H6.28637V6.33214H6.10726L5.75849 5.73747V6.33214H5.5918V5.49393Z" fill="white"/>
<path d="M6.65739 5.58142C6.72655 5.51226 6.81404 5.47797 6.92044 5.47797C7.06289 5.47797 7.16693 5.52407 7.23315 5.61689C7.26979 5.6689 7.28929 5.72093 7.29167 5.77353H7.11255C7.10132 5.73334 7.08655 5.70319 7.06881 5.6825C7.03689 5.64643 6.9896 5.62811 6.92693 5.62811C6.86428 5.62811 6.81285 5.65354 6.7762 5.70497C6.73955 5.75639 6.72123 5.8291 6.72123 5.92309C6.72123 6.01707 6.74073 6.08742 6.77975 6.13471C6.81876 6.18141 6.86783 6.20506 6.92812 6.20506C6.98841 6.20506 7.03629 6.18495 7.06821 6.14475C7.08595 6.12289 7.10073 6.09097 7.11255 6.04722H7.29048C7.27511 6.13885 7.23609 6.21274 7.17285 6.27007C7.1096 6.32742 7.0292 6.35579 6.93048 6.35579C6.80872 6.35579 6.71295 6.31737 6.6432 6.23993C6.57344 6.1619 6.53857 6.0555 6.53857 5.92013C6.53857 5.77353 6.57817 5.66063 6.65739 5.58142Z" fill="white"/>
<path d="M7.71993 5.49393H7.54199V6.33214H7.71993V5.49393Z" fill="white"/>
<path d="M8.24107 6.01531H8.46037L8.3522 5.68545L8.24107 6.01531ZM8.25288 5.49335H8.45564L8.75829 6.33215H8.56441L8.50767 6.15953H8.19259L8.13465 6.33215H7.94727L8.25288 5.49335Z" fill="white"/>
<path d="M9.47916 5.58142C9.54832 5.51226 9.63582 5.47797 9.74222 5.47797C9.88468 5.47797 9.98871 5.52407 10.0549 5.61689C10.0916 5.6689 10.1111 5.72093 10.1134 5.77353H9.93434C9.9231 5.73334 9.90832 5.70319 9.89059 5.6825C9.85867 5.64643 9.81138 5.62811 9.74872 5.62811C9.68606 5.62811 9.63463 5.65354 9.59798 5.70497C9.56134 5.75639 9.543 5.8291 9.543 5.92309C9.543 6.01707 9.56251 6.08742 9.60152 6.13471C9.64054 6.18141 9.6896 6.20506 9.74931 6.20506C9.80902 6.20506 9.85748 6.18495 9.89 6.14475C9.90774 6.12289 9.92251 6.09097 9.93434 6.04722H10.1123C10.0969 6.13885 10.0579 6.21274 9.99463 6.27007C9.93138 6.32742 9.85098 6.35579 9.75227 6.35579C9.6305 6.35579 9.53474 6.31737 9.46498 6.23993C9.39523 6.1619 9.36035 6.0555 9.36035 5.92013C9.36035 5.77353 9.39995 5.66063 9.47916 5.58142Z" fill="white"/>
<path d="M10.538 6.1619H10.3618V6.33214H10.538V6.1619Z" fill="white"/>
<path d="M10.8296 5.49512H11.4402V5.6423H11.0075V5.83501H11.387V5.98101H11.0075V6.33214H10.8296V5.49512Z" fill="white"/>
<path d="M11.7059 6.1619H11.5298V6.33214H11.7059V6.1619Z" fill="white"/>
</g>
<defs>
<clipPath id="clip0_795_2276">
<rect width="12.1843" height="16" fill="white" transform="translate(0.607422)"/>
</clipPath>
</defs>
</svg>
