<svg width="13" height="16" viewBox="0 0 13 16" fill="none" xmlns="http://www.w3.org/2000/svg">
<g clip-path="url(#clip0_795_2108)">
<path d="M6.38463 0.3684L7.75463 2.6612L8.42463 1.54L12.3046 8.0304L8.48023 14.4274L7.79203 13.2762L6.38463 15.6312L4.97683 13.2762L4.28863 14.4274L0.465629 8.0304L4.34463 1.54L5.01503 2.661L6.38463 0.3684ZM6.38463 0L6.22223 0.272L5.01423 2.293L4.50603 1.4432L4.34463 1.1712L4.18243 1.4432L0.303229 7.9332L0.244629 8.0304L0.302629 8.1268L4.12643 14.5242L4.28863 14.7958L4.45083 14.5242L4.97683 13.6442L6.22183 15.7278L6.38463 16L6.54703 15.7286L7.79263 13.6446L8.31863 14.5246L8.48123 14.7956L8.64303 14.5246L12.4666 8.1266L12.5246 8.0302L12.4666 7.933L8.58663 1.443L8.42463 1.1718L8.26223 1.4432L7.75463 2.293L6.54683 0.272L6.38463 0Z" fill="#98989A"/>
<path d="M4.97702 13.2762L6.38422 15.6312L7.79222 13.2762L8.48042 14.4274L12.3038 8.03041L8.42502 1.54001L7.75482 2.66121L6.38482 0.368408L5.01442 2.66121L4.34402 1.54001L0.46582 8.03041L4.28882 14.4274L4.97702 13.2762Z" fill="#12284C"/>
<path d="M10.3059 9.13101L8.48009 12.1852L8.31249 11.9038L7.88209 12.6238L8.48009 13.6238L11.1657 9.13101H10.3059ZM4.28849 12.1852L2.46449 9.13101H1.60449L4.28849 13.624L4.88689 12.624L4.45649 11.904L4.28849 12.1852ZM8.92949 9.13101L6.38449 13.3884L3.83969 9.13101H2.97969L6.38449 14.8276L9.78949 9.13101H8.92949Z" fill="#8AB7E9"/>
<path d="M1.60449 6.92899H2.44149L4.34449 3.74499L4.50809 4.01799L4.92669 3.31799L4.34449 2.34399L1.60449 6.92899ZM8.42449 2.34399L7.84249 3.31779L8.26249 4.01779L8.42449 3.74499L10.3275 6.92899H11.1645L8.42449 2.34399Z" fill="white"/>
<path d="M4.39648 5.90021L6.38468 2.57321L8.37308 5.90021H9.21068L6.38468 1.17181L3.55908 5.90021H4.39648Z" fill="white"/>
<path d="M1.19531 7.42001H1.48771L1.68211 8.20001H1.68471L1.93951 7.42001H2.18911L2.44211 8.22001H2.44471L2.64991 7.42001H2.92191L2.56591 8.63701H2.32691L2.05871 7.79441H2.05491L1.78691 8.63681H1.55651L1.19531 7.42001Z" fill="white"/>
<path d="M3.05127 7.42001H3.31967V7.87381H3.84087V7.42001H4.10907V8.63701H3.84087V8.11121H3.31967V8.63681H3.05127V7.42001Z" fill="white"/>
<path d="M4.40137 7.42001H4.66937V8.63701H4.40137V7.42001Z" fill="white"/>
<path d="M5.21634 7.65681H4.86914V7.42001H5.83194V7.65701H5.48454V8.63701H5.21634V7.65681Z" fill="white"/>
<path d="M6.0415 7.42001H6.8689V7.66781H6.3089V7.89501H6.7221V8.14201H6.3099V8.38941H6.8995V8.63681H6.0415V7.42001Z" fill="white"/>
<path d="M7.87507 7.73599C7.82167 7.67259 7.74427 7.63599 7.64447 7.63599C7.44167 7.63599 7.29187 7.80119 7.29187 8.02799C7.29187 8.25479 7.44167 8.41999 7.63587 8.41999C7.68538 8.42135 7.73442 8.41005 7.77835 8.38716C7.82227 8.36427 7.85962 8.33055 7.88687 8.28919L8.11047 8.45599C8.00887 8.60039 7.83727 8.66779 7.67047 8.66779C7.29047 8.66779 7.01367 8.41799 7.01367 8.02779C7.01367 7.63759 7.29027 7.38779 7.67047 7.38779C7.80647 7.38779 7.97847 7.43439 8.08147 7.56619L7.87507 7.73599Z" fill="white"/>
<path d="M8.66243 7.42001H8.88463L9.41463 8.63701H9.11143L9.00643 8.38001H8.53323L8.43203 8.63761H8.13623L8.66243 7.42001ZM8.76563 7.77401L8.61783 8.15261H8.91523L8.76563 7.77401Z" fill="white"/>
<path d="M9.53467 7.42001H9.98687C10.2399 7.42001 10.4493 7.50001 10.4493 7.78981C10.4493 8.07501 10.2549 8.16301 9.99907 8.16301H9.80287V8.63701H9.53467V7.42001ZM9.80287 7.93581H9.98287C10.0771 7.93581 10.1721 7.90341 10.1721 7.78981C10.1721 7.66381 10.0447 7.64661 9.94147 7.64661H9.80387L9.80287 7.93581Z" fill="white"/>
<path d="M11.254 7.7168C11.211 7.6622 11.1248 7.6368 11.0596 7.6368C10.984 7.6368 10.8796 7.6708 10.8796 7.7622C10.8796 7.984 11.4396 7.8422 11.4396 8.2678C11.4396 8.5396 11.2212 8.6678 10.97 8.6678C10.8138 8.6678 10.676 8.6216 10.561 8.515L10.7516 8.305C10.7794 8.34065 10.8149 8.36953 10.8555 8.38945C10.8961 8.40937 10.9406 8.41982 10.9858 8.42C11.0732 8.42 11.1714 8.3788 11.1714 8.2926C11.1714 8.0694 10.6002 8.1898 10.6002 7.7838C10.6002 7.5238 10.8258 7.3884 11.0648 7.3884C11.2022 7.3884 11.3346 7.4242 11.4378 7.5152L11.254 7.7168Z" fill="white"/>
<path d="M5.39941 9.12399H6.21621V9.37139H5.66781V9.61999H6.06021V9.86799H5.66781V10.3424H5.39941V9.12399Z" fill="white"/>
<path d="M7.11921 9.44001C7.06601 9.37661 6.98841 9.34001 6.88861 9.34001C6.68601 9.34001 6.53621 9.50521 6.53621 9.73181C6.53621 9.95841 6.68601 10.1242 6.88001 10.1242C6.92961 10.1255 6.97871 10.1141 7.0227 10.0912C7.06668 10.0682 7.10409 10.0344 7.13141 9.99301L7.35481 10.1602C7.25341 10.3048 7.08141 10.3716 6.91481 10.3716C6.53481 10.3716 6.25781 10.1224 6.25781 9.73161C6.25781 9.34081 6.53461 9.09161 6.91481 9.09161C7.05041 9.09161 7.22241 9.13781 7.32581 9.27021L7.11921 9.44001Z" fill="white"/>
<path d="M3.26465 6.23761H3.43965L3.61165 6.69341H3.61345L3.78825 6.23761H3.95225L3.66465 6.93341H3.54165L3.26465 6.23761Z" fill="white"/>
<path d="M4.14679 6.23761H4.27339L4.57619 6.93341H4.40339L4.34339 6.78601H4.07299L4.01539 6.93341H3.84619L4.14679 6.23761ZM4.20579 6.44001L4.12119 6.65621H4.29139L4.20579 6.44001Z" fill="white"/>
<path d="M4.65967 6.23761H4.86827L5.16467 6.72101H5.16687V6.23761H5.32027V6.93341H5.12027L4.81647 6.43821H4.81467V6.93341H4.66127L4.65967 6.23761Z" fill="white"/>
<path d="M5.92482 6.418C5.90853 6.39932 5.88824 6.38455 5.86545 6.37478C5.84267 6.36502 5.81798 6.36051 5.79322 6.3616C5.67722 6.3616 5.59182 6.4554 5.59182 6.5852C5.59182 6.715 5.67722 6.8096 5.78822 6.8096C5.81654 6.81039 5.8446 6.80393 5.86973 6.79084C5.89486 6.77775 5.91623 6.75846 5.93182 6.7348L6.05962 6.8302C6.00182 6.9128 5.90302 6.9512 5.80802 6.9512C5.59082 6.9512 5.43262 6.8086 5.43262 6.5852C5.43262 6.3618 5.58982 6.22 5.80702 6.22C5.88442 6.22 5.98282 6.246 6.04182 6.3222L5.92482 6.418Z" fill="white"/>
<path d="M6.48262 6.22C6.69982 6.22 6.85802 6.362 6.85802 6.5852C6.85802 6.8084 6.69982 6.9512 6.48262 6.9512C6.26542 6.9512 6.10742 6.8086 6.10742 6.5852C6.10742 6.3618 6.26462 6.22 6.48262 6.22ZM6.48262 6.8096C6.61302 6.8096 6.69882 6.7152 6.69882 6.5852C6.69882 6.4552 6.61302 6.3616 6.48262 6.3616C6.35222 6.3616 6.26662 6.4554 6.26662 6.5852C6.26662 6.715 6.35202 6.8096 6.48262 6.8096Z" fill="white"/>
<path d="M7.5743 6.66501C7.5743 6.82921 7.4743 6.95121 7.2811 6.95121C7.0879 6.95121 6.9873 6.82921 6.9873 6.66501V6.23761H7.1407V6.66001C7.1407 6.74561 7.1997 6.81061 7.2807 6.81061C7.3617 6.81061 7.4207 6.74561 7.4207 6.66001V6.23761H7.5743V6.66501Z" fill="white"/>
<path d="M7.65918 6.23761H7.83458L8.00618 6.69341H8.00838L8.18318 6.23761H8.34718L8.06038 6.93341H7.93758L7.65918 6.23761Z" fill="white"/>
<path d="M8.43945 6.23761H8.91225V6.38001H8.59225V6.50981H8.89405V6.65101H8.59265V6.79261H8.92985V6.93421H8.43945V6.23761Z" fill="white"/>
<path d="M9.06641 6.23761H9.33521C9.47821 6.23761 9.59801 6.28681 9.59801 6.44901C9.59801 6.54601 9.54581 6.62161 9.44741 6.63941L9.62461 6.93341H9.44061L9.29521 6.65521H9.21961V6.93341H9.06641V6.23761ZM9.21961 6.52521H9.31041C9.36581 6.52521 9.43861 6.52341 9.43861 6.44801C9.43861 6.37821 9.37561 6.36801 9.31981 6.36801H9.21981L9.21961 6.52521Z" fill="white"/>
</g>
<defs>
<clipPath id="clip0_795_2108">
<rect width="12.28" height="16" fill="white" transform="translate(0.244629)"/>
</clipPath>
</defs>
</svg>
