<svg width="41" height="16" viewBox="0 0 41 16" fill="none" xmlns="http://www.w3.org/2000/svg">
<g clip-path="url(#clip0_735_76)">
<g clip-path="url(#clip1_735_76)">
<path fill-rule="evenodd" clip-rule="evenodd" d="M15.7311 9.94172V9.99401H13.7929V9.23936L13.8067 9.23716H13.7922C13.7929 9.23653 13.7922 7.25542 13.7922 7.25542C13.7881 7.13983 13.8307 6.62361 13.2436 6.62928C13.2439 6.63086 12.6407 6.63936 12.6546 7.36566V7.36629L12.6527 9.32723C12.67 9.9307 13.0303 9.9433 13.0316 9.9433V9.99369H11.0719L9.95569 9.99338C9.91254 9.99842 8.55002 10.0428 8.49522 8.77385V8.08786C8.49522 8.08786 7.95538 8.20786 7.78656 8.33731C7.78656 8.33731 7.35443 8.61133 7.63947 9.08156C7.63947 9.08156 7.85144 9.45322 8.53648 9.3159L8.20231 9.99527H7.54215C7.54215 9.99527 6.00136 10.0268 5.82089 8.89479C5.82089 8.88692 5.68231 8.0066 6.73427 7.65007C6.73427 7.65007 7.09427 7.52345 7.77868 7.40251C7.78624 7.40251 8.36357 7.31999 8.41742 7.00692C8.43091 6.94357 8.42419 6.87759 8.39821 6.81826C8.40766 6.84282 8.13585 6.12912 6.4738 6.8507C6.48073 6.85857 6.81585 5.80755 6.81585 5.80755C6.81585 5.80755 8.3812 5.34739 9.47349 6.01794C9.46624 6.02519 10.0442 6.33227 10.0363 7.29574L10.0536 8.62802C10.0514 8.64692 10.0524 9.31054 10.7056 9.34771C10.7056 9.35401 10.9374 9.35212 11.0703 9.35149V6.44314C11.0703 6.42676 11.1059 5.82141 10.7018 5.79432V5.73857L12.6552 5.66267L12.6546 6.15716C12.7607 6.05227 13.1919 5.66834 13.8294 5.65637C13.8294 5.65637 15.3497 5.60314 15.3472 7.09259C15.3478 7.09259 15.3497 9.23621 15.3497 9.23621C15.3377 9.93164 15.7314 9.94172 15.7314 9.94172H15.7311ZM0.694275 3.83464V3.7707H2.81396L4.33522 8.21259L5.46026 4.64881C5.46026 4.64881 5.69018 4.04912 5.07475 3.81164V3.76062H6.7727L4.62719 10.0416L3.73428 9.69731C3.73428 9.69731 3.01113 9.48377 2.62624 8.39905L1.23034 4.54487C1.23034 4.54487 1.05459 3.92219 0.694275 3.83464ZM38.4744 9.23716C38.4644 9.98204 38.8606 9.94267 38.8612 9.94267V9.99527L36.8669 9.99401V9.99338L36.8662 9.99401V7.31464L36.8656 7.2592C36.8656 7.2844 36.8656 6.57479 36.2436 6.56723C36.236 6.57479 35.5135 6.49794 35.5135 7.84818C35.5062 7.85542 35.5062 9.42739 36.7277 9.2255C36.7277 9.2318 36.2993 9.99117 36.2993 9.99117C36.2993 9.99117 35.3091 10.3326 34.488 9.45542C34.488 9.45542 33.8634 8.91243 33.8634 7.84818C33.8707 7.85542 33.8426 6.84597 34.488 6.20597C34.4814 6.22676 35.4842 5.09385 36.8656 5.96786V4.55117C36.8656 4.53574 36.9006 3.92975 36.4965 3.90267V3.84786L38.4729 3.77133L38.4744 9.23716ZM32.5393 6.22456C32.9724 5.40944 33.8036 5.66204 33.8036 5.66204V6.72786C32.4855 6.50928 32.5406 7.50172 32.5393 7.49574H32.5387L32.5381 9.23527C32.5296 9.9729 32.9078 9.94393 32.9264 9.94298V9.99401H30.9547V9.99338H29.814C29.7727 9.99842 28.4092 10.0428 28.3557 8.77385V8.08786C28.3557 8.08786 27.814 8.20786 27.6455 8.33731C27.6455 8.33731 27.2146 8.61133 27.4996 9.08156C27.4996 9.08156 27.7107 9.45322 28.396 9.3159L28.0618 9.9959H27.4004C27.4004 9.9959 25.8609 10.0268 25.6804 8.89448C25.6804 8.8866 25.5418 8.00597 26.5938 7.6507C26.5938 7.6507 26.9535 7.52345 27.6376 7.40251C27.6455 7.40251 28.2225 7.31999 28.2763 7.00723C28.2904 6.94384 28.2838 6.87761 28.2574 6.81826C28.2656 6.84345 27.9951 6.12912 26.3324 6.8507C26.3418 6.85857 26.6757 5.80755 26.6757 5.80755C26.6757 5.80755 28.2417 5.34739 29.334 6.01794C29.3258 6.02613 29.9031 6.3329 29.8962 7.29479L29.9132 8.62802C29.9103 8.64786 29.911 9.31054 30.5651 9.34708C30.5651 9.35338 30.8266 9.35212 30.9538 9.35149V9.00818L30.9544 6.44314C30.9544 6.42676 30.9891 5.82046 30.5856 5.79369V5.73952L32.5393 5.66298V6.22456Z" fill="#96151D"/>
<path fill-rule="evenodd" clip-rule="evenodd" d="M17.9875 8.01734C18.585 8.01734 18.5157 7.18679 18.5157 7.17419C18.5031 6.46112 17.9888 6.48222 17.9888 6.48222C17.4221 6.48222 17.4448 7.19403 17.4382 7.18679C17.3762 7.9764 17.945 8.0271 17.9875 8.01734ZM22.4499 5.65671V8.43277C22.4499 8.43277 22.436 9.03435 22.9847 9.02899C22.9821 9.01923 23.5648 9.11687 23.5862 8.28884C23.5872 8.28978 23.5872 8.29104 23.5881 8.29104L23.5888 7.78647V6.44317C23.5888 6.42679 23.6237 5.82144 23.2196 5.79435V5.7386L25.173 5.6627V9.23624C25.1721 9.25136 25.1371 9.92348 25.5604 9.94301V9.9934H23.5862L23.5869 9.48632C23.5066 9.56852 23.0662 9.98647 22.4017 9.99907C22.4017 9.99907 20.854 10.0532 20.8571 8.56222C20.8514 8.55088 20.8546 6.97451 20.8562 6.43624H19.6656C19.7107 6.4734 19.7692 6.55183 19.7695 6.55183C20.4379 7.40758 19.7884 8.11939 19.7825 8.126C19.3538 8.726 17.9699 8.89451 17.9699 8.89451L17.8839 8.90427C17.4152 8.92065 17.5642 9.15844 17.5658 9.1597C17.6335 9.31813 17.9711 9.29325 17.9711 9.29325H18.7636C20.368 9.28789 20.539 10.3389 20.5456 10.3389C20.8092 11.8132 19.3251 12.2529 17.8432 12.2142C16.373 12.2236 15.8281 11.5836 15.8338 11.5887C15.4606 11.1562 15.6577 10.5525 16.3188 10.3695C16.8077 10.2347 17.3853 10.3695 17.3853 10.3695C16.9462 10.4309 17.024 10.8778 17.025 10.881C17.1721 11.4092 17.9232 11.4145 17.9686 11.4151C18.928 11.3657 18.9554 10.8986 18.9554 10.6703C18.9554 10.3688 18.705 10.1877 18.705 10.1877C18.3573 9.9323 17.6993 10.0129 17.2414 9.99309C16.5995 9.95655 16.4329 9.3534 16.4023 9.16884C16.3724 8.98238 16.407 8.90742 16.5141 8.83876C16.7078 8.72474 17.1481 8.67466 17.0981 8.67561L17.1075 8.67372C17.0993 8.67183 17.0943 8.67183 17.0936 8.67183C16.5415 8.4964 16.2136 8.03151 16.2077 8.03151C15.5059 7.02805 16.3242 6.23687 16.3242 6.23687C16.7938 5.78396 17.3903 5.68254 17.9233 5.65671H22.4499ZM39.1141 4.55844C39.1141 4.9301 39.4193 5.23309 39.7947 5.23309C40.1696 5.23309 40.4741 4.9301 40.4741 4.55844C40.4741 4.18679 40.1699 3.88348 39.7947 3.88348C39.4193 3.88348 39.1141 4.18648 39.1141 4.55844ZM39.0051 4.55844C39.0051 4.12726 39.3585 3.77545 39.7947 3.77545C40.2297 3.77545 40.584 4.12726 40.584 4.55844C40.584 4.98994 40.2297 5.34144 39.7947 5.34144C39.5862 5.34219 39.386 5.26015 39.2379 5.11334C39.0899 4.96652 39.0061 4.76694 39.0051 4.55844Z" fill="#96151D"/>
<path fill-rule="evenodd" clip-rule="evenodd" d="M39.6237 4.60788V5.02426H39.4937V4.10205H39.8263C39.9828 4.10205 40.1431 4.15087 40.1431 4.33323C40.1448 4.38481 40.1284 4.43535 40.0966 4.476C40.0648 4.51665 40.0197 4.54483 39.9692 4.55559V4.55843C40.0804 4.58457 40.0952 4.6441 40.1097 4.74709C40.1239 4.83906 40.1346 4.93733 40.1683 5.02426H40.0297C40.0184 4.96977 40.0033 4.90961 39.9966 4.85418C39.9866 4.77166 39.9866 4.69638 39.944 4.64945C39.9069 4.60788 39.8549 4.61166 39.8036 4.60788H39.6237ZM39.6206 4.49827H39.8335C39.9765 4.49166 40.0086 4.42741 40.0086 4.35496C40.0086 4.28189 39.9765 4.21764 39.8335 4.21166H39.6203L39.6206 4.49827Z" fill="#96151D"/>
</g>
</g>
<defs>
<clipPath id="clip0_735_76">
<rect width="40" height="16" fill="white" transform="translate(0.688599)"/>
</clipPath>
<clipPath id="clip1_735_76">
<rect width="40" height="8.50394" fill="white" transform="translate(0.688599 3.74805)"/>
</clipPath>
</defs>
</svg>
