<svg width="41" height="16" viewBox="0 0 41 16" fill="none" xmlns="http://www.w3.org/2000/svg">
<g clip-path="url(#clip0_807_2972)">
<g clip-path="url(#clip1_807_2972)">
<path d="M0.554688 0.622742H4.26859L6.52919 8.19162C6.85209 9.28159 7.19534 10.7349 7.19534 10.7349H7.23574C7.23574 10.7349 7.59905 9.26148 7.90189 8.19162L10.1422 0.622742H13.7552L9.01182 15.0543H5.3182L0.554688 0.622742Z" fill="#8C58D0"/>
<path d="M12.0566 12.1679C12.0566 9.88709 13.8731 9.20078 16.0127 8.91824C17.9503 8.6761 18.6366 8.47412 18.6366 7.76776C18.6366 7.10161 18.2126 6.65768 17.2236 6.65768C16.174 6.65768 15.6492 7.12191 15.5484 7.98984H12.5206C12.6014 6.07229 14.0749 4.4375 17.2034 4.4375C18.7575 4.4375 19.8072 4.72005 20.5539 5.28512C21.442 5.93102 21.866 6.94023 21.866 8.23217L21.8774 15.0543L18.7111 15.0541L18.6971 13.9038H18.6567C18.0512 14.7717 17.1429 15.3167 15.5887 15.3167C13.53 15.3167 12.0566 14.2065 12.0566 12.1679ZM18.7174 11.3605V10.1292C18.2934 10.3513 17.6881 10.5128 17.0219 10.6742C15.7502 10.9568 14.9837 11.2473 15.0237 12.1681C15.0638 13.0899 15.7471 13.2767 16.6385 13.2174C17.9496 13.1303 18.7174 12.2485 18.7174 11.3605Z" fill="#8C58D0"/>
<path d="M22.967 4.72003H26.1156V6.33473H26.1761C26.9028 5.10346 27.7506 4.55865 29.0018 4.55865C29.3046 4.55865 29.5066 4.57876 29.6476 4.63925V7.4651H29.5671C27.5487 7.18255 26.2569 8.17146 26.2569 10.412V15.0543H22.9668L22.967 4.72003Z" fill="#8C58D0"/>
<path d="M29.5137 9.90738C29.5137 6.79896 31.734 4.4375 35.044 4.4375C38.3744 4.4375 40.5542 6.79896 40.5542 9.90738C40.5542 13.0158 38.3744 15.3772 35.044 15.3772C31.7338 15.3772 29.5137 13.0158 29.5137 9.90738ZM37.3879 9.90738C37.3879 8.03024 36.4569 6.75874 35.0239 6.75874C33.5909 6.75874 32.6586 8.03024 32.6586 9.90738C32.6586 11.7845 33.5909 13.0359 35.0239 13.0359C36.4569 13.0359 37.3879 11.7845 37.3879 9.90738Z" fill="#8C58D0"/>
</g>
</g>
<defs>
<clipPath id="clip0_807_2972">
<rect width="40" height="16" fill="white" transform="translate(0.554688)"/>
</clipPath>
<clipPath id="clip1_807_2972">
<rect width="40" height="14.7545" fill="white" transform="translate(0.554688 0.622742)"/>
</clipPath>
</defs>
</svg>
