<svg width="41" height="16" viewBox="0 0 41 16" fill="none" xmlns="http://www.w3.org/2000/svg">
<g clip-path="url(#clip0_846_3311)">
<g clip-path="url(#clip1_846_3311)">
<path d="M6.65873 4.19781C6.9288 4.64377 7.05055 5.10311 7.05055 5.68334C7.05055 7.53399 5.47043 9.93812 4.18798 11.6263H1.25876L0.0839844 4.60301L2.64883 4.35955L3.26994 9.35705C3.85031 8.41175 4.56648 6.92624 4.56648 5.91342C4.56648 5.35905 4.47151 4.98144 4.32304 4.67053L6.65873 4.19781Z" fill="#008CFF"/>
<path d="M9.98316 7.29087C10.4551 7.29087 11.6434 7.075 11.6434 6.39978C11.6434 6.07556 11.4141 5.91384 11.1439 5.91384C10.6711 5.91384 10.0508 6.48062 9.98316 7.29087ZM9.92908 8.62812C9.92908 9.45258 10.3876 9.77604 10.9955 9.77604C11.6574 9.77604 12.2912 9.6143 13.115 9.19573L12.8048 11.3023C12.2243 11.5858 11.3198 11.775 10.4418 11.775C8.21458 11.775 7.41748 10.4246 7.41748 8.73639C7.41748 6.54829 8.71408 4.22491 11.3872 4.22491C12.859 4.22491 13.6819 5.0493 13.6819 6.19722C13.6821 8.04781 11.3065 8.61474 9.92908 8.62812Z" fill="#008CFF"/>
<path d="M21.0838 5.81907C21.0838 6.08915 21.043 6.48089 21.0021 6.73691L20.2325 11.5994H17.7351L18.4371 7.14204C18.4504 7.02114 18.4913 6.77775 18.4913 6.64271C18.4913 6.31847 18.2887 6.23758 18.0451 6.23758C17.7216 6.23758 17.3973 6.38599 17.1813 6.49436L16.3851 11.5994H13.8735L15.0209 4.31948H17.1947L17.2222 4.90054C17.735 4.56294 18.4103 4.19781 19.3683 4.19781C20.6377 4.19768 21.0838 4.84619 21.0838 5.81907Z" fill="#008CFF"/>
<path d="M28.498 5.02185C29.2134 4.50914 29.8888 4.22491 30.8199 4.22491C32.1023 4.22491 32.5484 4.87343 32.5484 5.84632C32.5484 6.11641 32.5075 6.50815 32.4668 6.76416L31.698 11.6266H29.1999L29.9154 7.07507C29.9285 6.9534 29.9563 6.80499 29.9563 6.71085C29.9563 6.34578 29.7536 6.26482 29.51 6.26482C29.1999 6.26482 28.8897 6.39986 28.6595 6.52159L27.8633 11.6267H25.3659L26.0812 7.07513C26.0944 6.95347 26.1214 6.80506 26.1214 6.71092C26.1214 6.34586 25.9185 6.26489 25.6758 6.26489C25.3516 6.26489 25.028 6.4133 24.812 6.52167L24.0151 11.6268H21.5044L22.6517 4.34678H24.7989L24.8664 4.95454C25.3659 4.59032 26.0406 4.22519 26.9451 4.22519C27.7283 4.22491 28.2409 4.56259 28.498 5.02185Z" fill="#008CFF"/>
<path d="M37.5182 7.14237C37.5182 6.54806 37.3695 6.14287 36.9244 6.14287C35.9388 6.14287 35.7363 7.88503 35.7363 8.77625C35.7363 9.45235 35.9255 9.87079 36.3707 9.87079C37.3022 9.87079 37.5182 8.03351 37.5182 7.14237ZM33.1982 8.66866C33.1982 6.37288 34.4131 4.2247 37.2081 4.2247C39.3141 4.2247 40.0841 5.46759 40.0841 7.18313C40.0841 9.45228 38.8823 11.8022 36.0198 11.8022C33.9003 11.8022 33.1982 10.4109 33.1982 8.66866Z" fill="#008CFF"/>
</g>
</g>
<defs>
<clipPath id="clip0_846_3311">
<rect width="40" height="16" fill="white" transform="translate(0.0839844)"/>
</clipPath>
<clipPath id="clip1_846_3311">
<rect width="40" height="7.60437" fill="white" transform="translate(0.0839844 4.19781)"/>
</clipPath>
</defs>
</svg>
