<svg width="17" height="16" viewBox="0 0 17 16" fill="none" xmlns="http://www.w3.org/2000/svg">
<g clip-path="url(#clip0_795_2706)">
<path d="M16.2151 4.72924C15.816 3.76569 15.2391 2.91467 14.5005 2.19964C13.0347 0.781156 11.026 0 8.84393 0C4.43273 0 0.84375 3.59556 0.84375 8.01493C0.84375 10.1479 1.67593 12.1531 3.18686 13.6613C4.69779 15.1696 6.70704 16 8.84393 16C10.9806 16 12.9897 15.1694 14.5006 13.6613C16.0116 12.1531 16.8437 10.1479 16.8437 8.01493C16.8437 6.84178 16.6322 5.73636 16.2151 4.72924Z" fill="white"/>
<path d="M1.01904 7.99537C1.17531 3.13511 4.51558 1.15378 6.70847 0.463642C7.71095 0.148086 8.58882 0.137597 8.58509 0.25102C8.58171 0.350753 7.82971 0.267731 6.765 0.651909C4.90989 1.32266 2.28251 2.9888 2.12269 7.25422C2.12269 11.1764 5.30438 14.3556 9.22971 14.3556C13.1547 14.3556 16.3367 11.1764 16.3367 7.25422C16.3469 6.41582 16.1958 5.75253 16.0057 5.1792C15.6729 4.1712 15.2432 3.70418 15.4295 3.69973C15.5575 3.69742 15.9449 4.48906 16.2142 5.22738C16.528 6.08693 16.6726 6.86809 16.6687 7.99537C16.6687 12.3145 13.165 15.8148 8.84358 15.8148C4.52215 15.8148 1.01904 12.3147 1.01904 7.99537Z" fill="#41A639"/>
<path d="M8.06486 5.53403C8.06486 4.14363 10.3452 4.27537 10.3452 4.27537V9.2343C10.3452 9.58061 10.5642 9.78932 10.9587 9.78932C11.5886 9.78932 11.5454 9.2343 11.5454 9.2343C11.5454 9.58061 11.5433 5.63057 11.5433 4.13297C11.5433 2.88763 13.8094 2.88763 13.8094 2.88763V9.48799L13.7998 9.89777C13.6064 11.1438 12.5271 12.0969 11.2514 12.0969C10.413 12.0969 9.66931 11.6857 9.20264 11.0505C8.73597 11.6857 7.99162 12.0969 7.15428 12.0969C5.87819 12.0969 4.82024 11.1438 4.62682 9.89777L4.59624 9.48799C4.59624 9.48799 4.59375 5.84817 4.59375 4.13297C4.59375 2.88763 6.86237 2.88763 6.86237 2.88763C6.86237 2.88763 6.86202 9.23039 6.86202 9.23555C6.86202 9.58595 7.11091 9.78932 7.44904 9.78932C7.78308 9.78932 8.06806 9.57599 8.06806 9.23555C8.06806 9.23555 8.06486 6.70186 8.06486 5.53403Z" fill="#41A639"/>
</g>
<defs>
<clipPath id="clip0_795_2706">
<rect width="16" height="16" fill="white" transform="translate(0.84375)"/>
</clipPath>
</defs>
</svg>
