<svg width="121" height="64" viewBox="0 0 121 64" fill="none" xmlns="http://www.w3.org/2000/svg">
<g clip-path="url(#clip0_757_349)">
<g clip-path="url(#clip1_757_349)">
<path d="M46.53 13.3076L30.8195 50.7912H20.5695L12.8383 20.8776C12.369 19.0351 11.9608 18.3601 10.5333 17.5838C8.20273 16.3195 4.35401 15.1332 0.967773 14.397L1.19777 13.3076H17.6971C19.8002 13.3076 21.6908 14.7076 22.1683 17.1295L26.2514 38.8194L36.3426 13.307H46.53V13.3076ZM86.6911 38.5531C86.7323 28.66 73.0111 28.115 73.1055 23.6957C73.1349 22.3507 74.4155 20.9207 77.2186 20.5557C78.608 20.3738 82.4361 20.2351 86.778 22.2332L88.4811 14.2845C86.148 13.4376 83.1461 12.6226 79.4111 12.6226C69.8268 12.6226 63.0818 17.7176 63.025 25.0132C62.9631 30.4094 67.8393 33.4206 71.513 35.2137C75.2924 37.05 76.5605 38.23 76.5461 39.8725C76.5193 42.3868 73.5318 43.4968 70.7399 43.5406C65.8662 43.6156 63.0381 42.2218 60.7837 41.1737L59.0262 49.3855C61.2918 50.4249 65.4737 51.3318 69.8093 51.3774C79.9961 51.3774 86.6598 46.3456 86.6911 38.5531ZM112 50.7912H120.968L113.14 13.3076H104.862C103.001 13.3076 101.431 14.3914 100.736 16.0576L86.1855 50.7912H96.3673L98.3885 45.1924H110.829L112 50.7912ZM101.18 37.51L106.284 23.4363L109.222 37.51H101.18ZM60.3843 13.3076L52.3663 50.7912H42.6701L50.6913 13.3076H60.3843Z" fill="#1434CB"/>
</g>
</g>
<defs>
<clipPath id="clip0_757_349">
<rect width="120" height="64" fill="white" transform="translate(0.967773)"/>
</clipPath>
<clipPath id="clip1_757_349">
<rect width="120" height="38.7548" fill="white" transform="translate(0.967773 12.6226)"/>
</clipPath>
</defs>
</svg>
