<svg width="41" height="16" viewBox="0 0 41 16" fill="none" xmlns="http://www.w3.org/2000/svg">
<g clip-path="url(#clip0_757_349)">
<g clip-path="url(#clip1_757_349)">
<path d="M16.0861 1.7692L10.8493 14.2637H7.43261L4.85554 4.29252C4.69908 3.67835 4.56304 3.45335 4.08721 3.1946C3.31034 2.77315 2.02743 2.37773 0.898682 2.13232L0.975348 1.7692H6.47511C7.17615 1.7692 7.80635 2.23586 7.96552 3.04315L9.32655 10.2731L12.6903 1.76899H16.0861V1.7692ZM29.4731 10.1844C29.4869 6.88667 24.9131 6.705 24.9446 5.23188C24.9544 4.78355 25.3813 4.30689 26.3156 4.18522C26.7788 4.1246 28.0548 4.07835 29.5021 4.74439L30.0698 2.09482C29.2921 1.81253 28.2915 1.54086 27.0465 1.54086C23.8517 1.54086 21.6034 3.23919 21.5844 5.67105C21.5638 7.46979 23.1892 8.47353 24.4138 9.07124C25.6736 9.68332 26.0963 10.0767 26.0915 10.6241C26.0825 11.4623 25.0867 11.8323 24.1561 11.8468C22.5315 11.8718 21.5888 11.4073 20.8373 11.0579L20.2515 13.7952C21.0067 14.1416 22.4007 14.4439 23.8459 14.4591C27.2415 14.4591 29.4627 12.7818 29.4731 10.1844ZM37.9093 14.2637H40.8987L38.2893 1.7692H35.5302C34.9098 1.7692 34.3864 2.13044 34.1548 2.68586L29.3046 14.2637H32.6985L33.3723 12.3975H37.5191L37.9093 14.2637ZM34.3029 9.83665L36.0041 5.14543L36.9833 9.83665H34.3029ZM20.7042 1.7692L18.0315 14.2637H14.7994L17.4732 1.7692H20.7042Z" fill="#1434CB"/>
</g>
</g>
<defs>
<clipPath id="clip0_757_349">
<rect width="40" height="16" fill="white" transform="translate(0.898926)"/>
</clipPath>
<clipPath id="clip1_757_349">
<rect width="40" height="12.9183" fill="white" transform="translate(0.898926 1.54086)"/>
</clipPath>
</defs>
</svg>
