<svg width="17" height="16" viewBox="0 0 17 16" fill="none" xmlns="http://www.w3.org/2000/svg">
<g clip-path="url(#clip0_835_481)">
<path d="M8.55298 15.0573C4.69565 15.0573 1.52431 11.8573 1.52431 8C1.52431 7.2 1.66698 6.42867 1.92431 5.686L6.03898 13.686C6.09565 13.8 6.15298 13.886 6.29565 13.886C6.43898 13.886 6.49565 13.8 6.55298 13.686L8.46698 9.42867C8.49542 9.37133 8.52409 9.34267 8.55298 9.34267C8.61031 9.34267 8.61031 9.4 8.63898 9.42867L10.5816 13.686C10.639 13.8 10.6956 13.886 10.839 13.886C10.9816 13.886 11.039 13.8 11.0956 13.686L15.2103 5.686C15.467 6.4 15.6103 7.17133 15.6103 8C15.5816 11.8573 12.4103 15.0573 8.55298 15.0573ZM8.55298 6.17133C8.49565 6.17133 8.49565 6.114 8.46698 6.086L6.26698 1.34267C7.74453 0.810545 9.36143 0.810545 10.839 1.34267L8.63898 6.086C8.61031 6.114 8.61031 6.17133 8.55298 6.17133ZM6.23898 11.314C6.18165 11.314 6.18164 11.2573 6.15298 11.2287L2.55298 4.31333C3.18165 3.28533 4.09565 2.428 5.15298 1.828L7.69565 7.31333C7.75298 7.428 7.81031 7.45667 7.89565 7.45667H9.21031C9.29565 7.45667 9.35298 7.428 9.41031 7.31333L11.9243 1.828C12.9816 2.428 13.8956 3.28533 14.5243 4.31333L10.953 11.2287C10.9241 11.2856 10.8954 11.314 10.867 11.314C10.8103 11.314 10.8103 11.2573 10.7816 11.2287L9.41031 8.2C9.35298 8.086 9.29565 8.05733 9.21031 8.05733H7.89565C7.81031 8.05733 7.75298 8.086 7.69565 8.2L6.32431 11.2287C6.29565 11.2573 6.29565 11.314 6.23898 11.314ZM8.55298 16C12.9816 16 16.553 12.4287 16.553 8C16.553 3.57133 12.9816 0 8.55298 0C4.12431 0 0.552979 3.57133 0.552979 8C0.552979 12.4287 4.12431 16 8.55298 16Z" fill="#1D1C68"/>
</g>
<defs>
<clipPath id="clip0_835_481">
<rect width="16" height="16" fill="white" transform="translate(0.552979)"/>
</clipPath>
</defs>
</svg>
