<svg width="41" height="16" viewBox="0 0 41 16" fill="none" xmlns="http://www.w3.org/2000/svg">
<g clip-path="url(#clip0_746_2)">
<g clip-path="url(#clip1_746_2)">
<path d="M22.916 9.26728C22.916 9.34309 22.9094 9.4213 22.8885 9.48971C22.8025 9.77443 22.5076 10.0151 22.1389 10.0151C21.8314 10.0151 21.5872 9.84056 21.5872 9.47151C21.5872 8.90703 22.2086 8.75094 22.916 8.75464V9.26728ZM24.0259 8.28368C24.0259 7.35234 23.6281 6.53319 22.2839 6.53319C21.5938 6.53319 21.0459 6.72709 20.747 6.89969L20.9658 7.64814C21.2389 7.47582 21.6745 7.33311 22.0865 7.33311C22.7683 7.3314 22.8802 7.71902 22.8802 7.9676V8.02643C21.3935 8.02418 20.4542 8.53864 20.4542 9.58745C20.4542 10.2278 20.9326 10.8279 21.7644 10.8279C22.2758 10.8279 22.7039 10.6237 22.9599 10.2966H22.9852C22.9852 10.2966 23.155 11.0069 24.0909 10.7353C24.0417 10.4397 24.0259 10.1246 24.0259 9.74499V8.28368Z" fill="#0071DC"/>
<path d="M0.867798 5.26508C0.867798 5.26508 1.83897 9.24494 1.99395 9.89093C2.17486 10.645 2.50086 10.9224 3.44067 10.7352L4.04719 8.2676C4.20088 7.65472 4.30403 7.21779 4.40285 6.59439H4.4202C4.48964 7.22399 4.58853 7.65665 4.71503 8.26985C4.71503 8.26985 4.96186 9.38993 5.08827 9.97825C5.21505 10.5664 5.56775 10.9371 6.48832 10.7352L7.93342 5.26508H6.76674L6.27333 7.63005C6.14069 8.31844 6.02045 8.85637 5.92762 9.48614H5.91108C5.82669 8.86246 5.71946 8.346 5.58455 7.67535L5.07086 5.26508H3.85533L3.30587 7.61462C3.15025 8.32859 3.00458 8.90504 2.91199 9.51344H2.89534C2.80049 8.94055 2.67413 8.21603 2.5374 7.52493C2.5374 7.52493 2.21095 5.84437 2.09644 5.26508H0.867798Z" fill="#0071DC"/>
<path d="M10.1392 9.26728C10.1392 9.34309 10.1327 9.4213 10.1117 9.48971C10.0257 9.77443 9.73081 10.0151 9.36208 10.0151C9.05467 10.0151 8.81048 9.84056 8.81048 9.47151C8.81048 8.90703 9.43184 8.75094 10.1392 8.75464V9.26728ZM11.2489 8.28368C11.2489 7.35234 10.8512 6.53319 9.50721 6.53319C8.81689 6.53319 8.26894 6.72709 7.97024 6.89969L8.18884 7.64814C8.46221 7.47582 8.89739 7.33311 9.30954 7.33311C9.99189 7.3314 10.1035 7.71902 10.1035 7.9676V8.02643C8.61666 8.02418 7.67749 8.53864 7.67749 9.58745C7.67749 10.2278 8.15562 10.8279 8.98694 10.8279C9.4987 10.8279 9.92665 10.6237 10.1831 10.2966H10.2083C10.2083 10.2966 10.3782 11.0069 11.314 10.7353C11.2648 10.4397 11.2489 10.1246 11.2489 9.74499V8.28368Z" fill="#0071DC"/>
<path d="M13.1006 9.57386V5.26509H11.9899V10.7353H13.1006V9.57386Z" fill="#0071DC"/>
<path d="M27.634 5.26509C27.634 5.78995 27.634 9.30052 27.634 9.30052C27.634 9.85678 27.7388 10.2466 27.9628 10.4847C28.1585 10.693 28.4808 10.8279 28.8671 10.8279C29.1955 10.8279 29.5187 10.7655 29.6709 10.7088L29.6566 9.84083C29.5433 9.86866 29.413 9.89094 29.2347 9.89094C28.8563 9.89094 28.7294 9.6486 28.7294 9.14909V7.60527H29.6968V6.55865H28.7294V5.26509H27.634Z" fill="#0071DC"/>
<path d="M24.7666 6.62593V10.7353H25.9125V8.63113C25.9125 8.51754 25.9194 8.41856 25.9373 8.32782C26.0221 7.88701 26.3593 7.60527 26.8432 7.60527C26.976 7.60527 27.071 7.61965 27.1739 7.63455V6.55866C27.0876 6.54125 27.0287 6.5332 26.9214 6.5332C26.4937 6.5332 26.0072 6.80926 25.803 7.40101H25.7719V6.62593H24.7666Z" fill="#0071DC"/>
<path d="M13.8787 6.62593V10.7353H14.9953V8.32531C14.9953 8.21235 15.0083 8.0929 15.0477 7.98897C15.1402 7.74633 15.3659 7.46251 15.7263 7.46251C16.1769 7.46251 16.3878 7.84348 16.3878 8.39324V10.7353H17.5033V8.29624C17.5033 8.18832 17.518 8.05848 17.5498 7.96312C17.6415 7.68713 17.8848 7.46251 18.2198 7.46251C18.6766 7.46251 18.8959 7.83676 18.8959 8.48367C18.8959 8.48367 18.8959 10.2196 18.8959 10.7353H20.0121V8.31502C20.0121 7.03863 19.3641 6.5332 18.6325 6.5332C18.3084 6.5332 18.0527 6.61445 17.8215 6.75637C17.6271 6.87566 17.4531 7.0451 17.301 7.26819H17.2845C17.108 6.82535 16.6929 6.5332 16.152 6.5332C15.4569 6.5332 15.1446 6.88545 14.9552 7.1843H14.9386V6.62593H13.8787Z" fill="#0071DC"/>
<path d="M35.7019 6.46027C35.9227 6.46027 36.1045 6.34562 36.1291 6.1971L36.3474 3.73101C36.3474 3.48721 36.0618 3.28698 35.7026 3.28698C35.344 3.28698 35.0588 3.48721 35.0588 3.73101L35.2766 6.1971C35.3007 6.34562 35.4827 6.46027 35.7027 6.46027H35.7019Z" fill="#FFC220"/>
<path d="M34.369 7.23071C34.4798 7.0397 34.4712 6.82478 34.3546 6.72947L32.3276 5.30782C32.117 5.18586 31.8008 5.33267 31.6214 5.64366C31.4415 5.95424 31.4734 6.30133 31.6839 6.42313L33.9281 7.46816C34.0687 7.52042 34.2597 7.42034 34.3698 7.22937L34.369 7.23071Z" fill="#FFC220"/>
<path d="M37.0357 7.22937C37.1463 7.42034 37.3367 7.52042 37.4772 7.46816L39.7218 6.42313C39.9331 6.30133 39.9635 5.95424 39.7848 5.64366C39.6046 5.33267 39.2881 5.18586 39.0779 5.30782L37.0508 6.72947C36.9348 6.82478 36.9263 7.0397 37.0365 7.23071L37.0357 7.22937Z" fill="#FFC220"/>
<path d="M35.7019 9.54061C35.9227 9.54061 36.1045 9.65471 36.1291 9.8031L36.3474 12.269C36.3474 12.5132 36.0618 12.7131 35.7026 12.7131C35.344 12.7131 35.0588 12.5132 35.0588 12.269L35.2766 9.8031C35.3007 9.65471 35.4827 9.54061 35.7027 9.54061H35.7019Z" fill="#FFC220"/>
<path d="M37.0357 8.77047C37.1463 8.57914 37.3367 8.47977 37.4772 8.53266L39.7218 9.57651C39.9331 9.69877 39.9635 10.046 39.7848 10.3569C39.6046 10.6669 39.2881 10.8142 39.0779 10.6927L37.0508 9.27208C36.9348 9.17566 36.9263 8.96094 37.0365 8.77008L37.0357 8.77047Z" fill="#FFC220"/>
<path d="M34.369 8.77008C34.4798 8.96094 34.4712 9.17566 34.3546 9.27208L32.3276 10.6927C32.117 10.8142 31.8008 10.6669 31.6214 10.3569C31.4415 10.046 31.4734 9.69877 31.6839 9.57651L33.9281 8.53266C34.0687 8.47977 34.2597 8.57914 34.3699 8.77047L34.369 8.77008Z" fill="#FFC220"/>
<path d="M40.4459 10.5274H40.4923C40.5429 10.5274 40.5871 10.5119 40.5871 10.4679C40.5871 10.4325 40.5652 10.4081 40.4989 10.4081C40.4725 10.4081 40.4571 10.4104 40.4459 10.4126V10.5274ZM40.4459 10.735H40.3775V10.3663C40.415 10.3597 40.4547 10.3552 40.5056 10.3552C40.5674 10.3552 40.5983 10.3663 40.6225 10.3838C40.6448 10.3993 40.6599 10.4281 40.6599 10.4613C40.6599 10.5077 40.6271 10.5363 40.5871 10.5495V10.554C40.6204 10.5671 40.638 10.5959 40.6491 10.6424C40.6599 10.6996 40.6668 10.7217 40.6756 10.735H40.6049C40.5938 10.7217 40.5851 10.6887 40.5762 10.6379C40.5674 10.5981 40.5429 10.5805 40.49 10.5805H40.4459V10.735ZM40.5078 10.2513C40.3488 10.2513 40.2273 10.3816 40.2273 10.5406C40.2273 10.7042 40.3488 10.832 40.5122 10.832C40.6714 10.8345 40.7883 10.7042 40.7883 10.5429C40.7883 10.3816 40.6714 10.2513 40.5101 10.2513H40.5078ZM40.5122 10.1895C40.7109 10.1895 40.8678 10.3441 40.8678 10.5406C40.8678 10.7417 40.7109 10.8962 40.5101 10.8962C40.3091 10.8962 40.15 10.7417 40.15 10.5406C40.15 10.3441 40.3091 10.1895 40.5101 10.1895H40.5122Z" fill="#FFC220"/>
</g>
</g>
<defs>
<clipPath id="clip0_746_2">
<rect width="40" height="16" fill="white" transform="translate(0.867798)"/>
</clipPath>
<clipPath id="clip1_746_2">
<rect width="40" height="9.42615" fill="white" transform="translate(0.867798 3.28693)"/>
</clipPath>
</defs>
</svg>
