<svg width="31" height="16" viewBox="0 0 31 16" fill="none" xmlns="http://www.w3.org/2000/svg">
<g clip-path="url(#clip0_879_4038)">
<path d="M20.8774 0L21.8157 2.87695L21.1176 5.01485L19.4878 0H12.1819L10.8715 4.01977L9.56624 0H0.83252L3.57617 4.45531L7.33466 16H14.4069L15.8282 11.6358L17.2456 16H24.983L30.1879 0H20.8774ZM4.55275 4.00266L2.74476 1.06764H8.79031L10.3093 5.74599L7.71475 13.7156L4.55275 4.00266ZM13.627 14.9561H8.4353L12.6755 1.93069L15.2674 9.9096L13.627 14.9561ZM13.5175 1.06764H18.7118L20.5594 6.74235L17.9596 14.7304L13.5175 1.06764ZM24.1978 14.9495H19.0074L22.9348 2.88352L22.3436 1.06764H28.7138L24.1978 14.9495Z" fill="#FFB612"/>
<path d="M20.5552 6.7437L17.9554 14.7319L13.5173 1.06772H18.7117L20.5552 6.7437ZM22.3434 1.06772L22.932 2.8836L19.0046 14.9496H24.195L28.7163 1.06772H22.3434ZM8.79013 1.06772H2.74463L4.55261 4.00268L7.71987 13.7157L10.3091 5.746L8.79013 1.06772ZM8.43519 14.9496H13.6334L15.2738 9.90967L12.6754 1.93077L8.43519 14.9496Z" fill="#5A1414"/>
</g>
<defs>
<clipPath id="clip0_879_4038">
<rect width="29.3553" height="16" fill="white" transform="translate(0.83252)"/>
</clipPath>
</defs>
</svg>
