<svg width="26" height="16" viewBox="0 0 26 16" fill="none" xmlns="http://www.w3.org/2000/svg">
<g clip-path="url(#clip0_2_7501)">
<path d="M25.2582 9.82715C25.0322 9.82715 24.8486 10.0104 24.8486 10.2367C24.8486 10.4626 25.0322 10.6462 25.2582 10.6462C25.4843 10.6462 25.6676 10.4626 25.6676 10.2367C25.6676 10.0104 25.4843 9.82715 25.2582 9.82715ZM25.2582 10.5583C25.216 10.5583 25.1742 10.55 25.1351 10.5339C25.0961 10.5177 25.0606 10.4941 25.0307 10.4642C25.0009 10.4343 24.9772 10.3988 24.961 10.3598C24.9449 10.3207 24.9366 10.2789 24.9366 10.2367C24.9366 10.0589 25.0803 9.91524 25.2582 9.91524C25.436 9.91524 25.5798 10.0589 25.5798 10.2367C25.5798 10.4144 25.436 10.5583 25.2582 10.5583ZM25.4265 10.1417C25.4265 10.1235 25.4229 10.1054 25.4159 10.0886C25.4089 10.0717 25.3987 10.0564 25.3858 10.0436C25.3729 10.0307 25.3576 10.0205 25.3407 10.0135C25.3239 10.0065 25.3058 10.003 25.2876 10.003H25.0903V10.4704H25.178V10.2806H25.2409L25.3295 10.4704H25.4265L25.334 10.2725C25.361 10.2629 25.3844 10.2452 25.401 10.2218C25.4175 10.1984 25.4265 10.1704 25.4265 10.1417ZM25.2876 10.1928H25.178V10.0906H25.2875C25.3011 10.0906 25.3141 10.096 25.3238 10.1056C25.3334 10.1152 25.3388 10.1282 25.3388 10.1418C25.3388 10.1553 25.3334 10.1683 25.3238 10.1779C25.3141 10.1875 25.3011 10.1929 25.2876 10.1928Z" fill="#041E42"/>
<path d="M5.63617 10.6155H7.51184L6.87328 12.1581H8.44441L9.08322 10.6155H13.703L13.5689 10.9396C13.2623 11.6796 13.3041 12.63 13.6183 13.1337L15.4071 16L16.7915 13.9901H19.0592L20.2974 12.4677H17.4262L16.5599 13.5333L14.8355 12.0997C14.797 12.0634 14.7523 11.8763 14.824 11.7039L15.6091 9.80767C15.6091 9.80767 15.7745 10.6155 16.823 10.6155H23.053C23.3488 10.6155 24.2497 10.6155 24.5969 9.77674C24.9126 9.01353 24.4415 8.59494 24.4415 8.59494H24.938L25.5044 7.2286H22.4586C22.0735 7.2286 21.717 7.3266 21.4365 7.4949L22.8746 4.02233H21.3032L19.7244 7.83531C19.7244 7.83531 19.4428 7.2286 18.5189 7.2286H16.6773L19.6704 0H18.0991L15.1058 7.2286H11.2627C10.2604 7.2286 9.3339 7.65099 8.68119 8.35949C8.68119 8.35949 8.67363 7.2286 7.33211 7.2286H3.91258C2.54559 7.2286 1.13661 8.04458 0.70508 9.08631C0.400349 9.82184 0.829342 10.6155 1.80343 10.6155H3.1357C3.69005 10.6155 4.27912 10.2466 4.5331 10.067C4.5331 10.067 4.81577 10.6155 5.63623 10.6155H5.63617Z" fill="white"/>
<path d="M17.6064 12.8468L16.9846 13.6116H18.8786L19.5004 12.8468H17.6064ZM7.12932 5.26663L7.67308 4.87148L8.21692 5.26663L8.00923 4.62722L8.55288 4.23237H7.88079L7.67308 3.59277L7.46548 4.23237H6.79306L7.33704 4.62722L7.12932 5.26663ZM10.6525 5.26663L11.1962 4.87148L11.7402 5.26663L11.5324 4.62722L12.0764 4.23237H11.4043L11.1962 3.59277L10.9887 4.23237H10.3164L10.8602 4.62722L10.6525 5.26663ZM14.9272 4.23237L14.7196 3.59277L14.5119 4.23237H13.8398L14.3835 4.62722L14.1757 5.26663L14.7196 4.87148L15.2635 5.26663L15.0556 4.62722L15.5995 4.23237H14.9272ZM5.79094 6.11208H5.79299L5.75166 6.74595H5.9707L6.58177 5.95105H6.40357L5.94023 6.57212H5.93791L5.98061 5.95108H5.75594L5.2916 6.57212H5.28958L5.33642 5.95108H5.14473L5.09961 6.74598H5.31442L5.79094 6.11208ZM7.0521 6.56786L7.06984 6.74598H7.28113L7.20412 5.95105H6.97973L6.24497 6.74598H6.43646L6.59419 6.56786H7.0521ZM7.02008 6.0921L7.0423 6.43767H6.71169L7.02008 6.0921ZM7.48557 6.49694C7.41503 6.66758 7.51805 6.76692 7.74807 6.76692C8.01797 6.76692 8.19928 6.67001 8.2672 6.50578C8.41213 6.15573 7.75372 6.36238 7.83897 6.15663C7.86903 6.08405 7.96577 6.04766 8.0397 6.04766C8.16298 6.04766 8.21886 6.08522 8.18277 6.18863H8.36111C8.42231 6.0277 8.33722 5.93011 8.10478 5.93011C7.91997 5.93011 7.71741 6.00374 7.64166 6.18754C7.50913 6.50674 8.14679 6.35007 8.07297 6.52789C8.0492 6.58541 7.96886 6.64885 7.82142 6.64885C7.68045 6.64885 7.63467 6.59144 7.66396 6.49694H7.48554H7.48557ZM8.53 6.74598L8.67133 6.40459H9.104L8.96257 6.74598H9.14099L9.47021 5.95105H9.29212L9.15775 6.27486H8.72519L8.85906 5.95105H8.68066L8.3512 6.74598H8.53ZM9.56142 6.74598L9.89099 5.95105H9.71257L9.38321 6.74598H9.56142ZM9.96693 6.74598L10.2243 6.125H10.2263L10.4308 6.74598H10.6704L10.9997 5.95105H10.8392L10.5865 6.56106H10.5839L10.3864 5.95105H10.1354L9.80628 6.74598H9.96693ZM11.9929 6.20725C12.0698 6.0214 11.9282 5.93009 11.6883 5.93009C11.3753 5.93009 11.1331 6.1081 11.0343 6.346C10.9151 6.63468 11.0617 6.76694 11.3581 6.76694C11.4734 6.76694 11.6567 6.74461 11.7901 6.6964L11.9442 6.32515H11.5157L11.4645 6.44835H11.7187L11.6561 6.60037C11.5565 6.6278 11.4924 6.63673 11.4229 6.63673C11.1786 6.63673 11.1588 6.49249 11.2201 6.34502C11.3057 6.13818 11.4961 6.05342 11.6635 6.05342C11.7517 6.05342 11.8482 6.0962 11.8077 6.20727L11.9929 6.20725ZM12.212 6.74598H12.3905L12.6659 6.08085H12.9688L13.0227 5.95105H12.2387L12.1848 6.08085H12.4879L12.212 6.74598ZM13.2509 6.76692C13.544 6.76692 13.7722 6.62715 13.8877 6.34802C14.0033 6.06958 13.8905 5.93009 13.5974 5.93009C13.3046 5.93009 13.0761 6.06958 12.9606 6.34802C12.845 6.62712 12.958 6.76692 13.2509 6.76692H13.2509ZM13.1456 6.34802C13.223 6.16078 13.3719 6.05951 13.5437 6.05951C13.7166 6.05951 13.7804 6.16078 13.7028 6.34805C13.6253 6.53565 13.4774 6.63673 13.3046 6.63673C13.1331 6.63673 13.068 6.53564 13.1456 6.34802ZM14.7016 6.56106H14.6993L14.502 5.95105H14.2506L13.9214 6.74598H14.082L14.3394 6.125H14.3415L14.5455 6.74598H14.7857L15.1149 5.95105H14.9542L14.7016 6.56106Z" fill="#C8102E"/>
<path d="M3.69043 8.21628H4.68453L4.93649 7.60753H3.9122C2.70548 7.60753 1.42625 8.33446 1.05461 9.23113C0.830412 9.77325 1.15977 10.2367 1.80305 10.2367H3.13535C3.71443 10.2367 4.41941 9.67953 4.41941 9.67953L3.79671 9.417C3.79671 9.417 3.51419 9.6281 3.20793 9.6281H1.93114C1.77117 9.6281 1.70516 9.47436 1.78918 9.27044C2.03056 8.68805 2.88175 8.21628 3.69043 8.21628ZM5.63582 10.2367H6.40777C6.68503 10.2367 6.9228 10.0752 6.9228 10.0752L6.85614 10.2367H7.60704L8.2218 8.75218C8.48364 8.12006 8.08519 7.60753 7.33181 7.60753H5.37952L5.12747 8.21628H7.24148C7.69281 8.21628 7.55522 8.54796 7.55522 8.54796H6.0328C5.42786 8.54796 4.98167 8.82668 4.83907 9.17091C4.59556 9.759 4.95208 10.2367 5.63582 10.2367ZM5.49846 9.39197C5.5524 9.2623 5.70153 9.15663 5.8318 9.15663H6.88554C7.12642 9.15663 7.34121 9.06515 7.34121 9.06515L7.21773 9.36306C7.15738 9.50927 6.94647 9.62813 6.78186 9.62813H5.63642C5.50621 9.62813 5.44443 9.52237 5.49846 9.392V9.39197ZM16.3136 7.60753L16.0617 8.21628H18.428C18.8796 8.21628 18.7418 8.54796 18.7418 8.54796H17.2195C16.6146 8.54796 16.1683 8.82668 16.0262 9.17091C15.7822 9.759 16.1386 10.2367 16.8227 10.2367H17.5943C17.8717 10.2367 18.1098 10.0752 18.1098 10.0752L18.0427 10.2367H18.7938L19.4085 8.75218C19.6704 8.12006 19.272 7.60753 18.5185 7.60753H16.3136ZM18.4046 9.36309C18.344 9.50927 18.1334 9.6281 17.9689 9.6281H16.8232C16.6931 9.6281 16.6312 9.52237 16.6851 9.39197C16.739 9.2623 16.8883 9.15663 17.0184 9.15663H18.0724C18.313 9.15663 18.5279 9.06515 18.5279 9.06515L18.4046 9.36306V9.36309ZM19.8908 10.2367L22.3071 4.40137H21.5563L19.1396 10.2367H19.8908ZM14.1854 7.60753H13.4344L13.1823 8.21628H13.933L14.1854 7.60753ZM13.0964 10.2367L13.7958 8.54799H13.0446L12.3452 10.2367H13.0964ZM21.2646 8.2123C21.033 8.77219 21.334 9.22638 21.938 9.22638H23.4624C23.5734 9.22638 23.6261 9.31633 23.58 9.42729C23.534 9.53829 23.4069 9.6281 23.2961 9.6281H20.5077L20.2558 10.2367H23.0526C23.5736 10.2367 24.0453 10.1175 24.2461 9.632C24.4781 9.07173 24.1768 8.61782 23.5729 8.61782H22.0487C21.9376 8.61782 21.8847 8.52789 21.9309 8.41701C21.9769 8.30582 22.1041 8.21628 22.215 8.21628H24.6847L24.9367 7.60753H22.4582C21.9374 7.60753 21.4222 7.83154 21.2646 8.2123ZM8.19106 11.7791L9.0634 9.67246C9.39644 8.86822 10.1301 8.21628 11.2909 8.21628H12.0358L11.5639 9.3555C11.5019 9.50537 11.3282 9.62813 11.1785 9.62813H9.4429L9.19067 10.2367H11.268C11.6432 10.2367 12.021 10.0653 12.2324 9.5545L13.039 7.60753H11.2624C9.8686 7.60753 8.80786 8.47581 8.36432 9.54661L7.44 11.7791H8.19106Z" fill="#041E42"/>
<path d="M13.9184 11.0845C13.6703 11.6848 13.6797 12.5166 13.9394 12.9332L15.4224 15.3094L16.3986 13.8922L14.593 12.3912C14.4028 12.2337 14.3491 11.8591 14.4736 11.5588L19.1031 0.378906H18.3519L15.3586 7.6077H14.4683L14.2162 8.21645H15.1067L13.9184 11.0845H13.9184Z" fill="#041E42"/>
</g>
<defs>
<clipPath id="clip0_2_7501">
<rect width="25.0589" height="16" fill="white" transform="translate(0.608398)"/>
</clipPath>
</defs>
</svg>
