<svg width="41" height="16" viewBox="0 0 41 16" fill="none" xmlns="http://www.w3.org/2000/svg">
<g clip-path="url(#clip0_736_146)">
<g clip-path="url(#clip1_736_146)">
<path d="M13.1209 4.94365C12.9746 4.39698 12.545 3.96737 11.9983 3.82104C11.0085 3.55554 7.03749 3.55554 7.03749 3.55554C7.03749 3.55554 3.06656 3.55554 2.0767 3.82104C1.53003 3.96737 1.10043 4.39698 0.954095 4.94365C0.688599 5.93351 0.688599 7.99999 0.688599 7.99999C0.688599 7.99999 0.688599 10.0665 0.954095 11.0563C1.10043 11.603 1.53003 12.0326 2.0767 12.1789C3.06656 12.4444 7.03749 12.4444 7.03749 12.4444C7.03749 12.4444 11.0085 12.4444 11.9983 12.1789C12.545 12.0326 12.9746 11.603 13.1209 11.0563C13.3864 10.0665 13.3864 7.99999 13.3864 7.99999C13.3864 7.99999 13.3854 5.93351 13.1209 4.94365Z" fill="#FF0000"/>
<path d="M5.76648 9.90462L9.06532 8.00018L5.76648 6.0957V9.90462Z" fill="white"/>
<path d="M16.0675 9.33493L14.6417 4.18597H15.8856L16.3852 6.52004C16.5127 7.09493 16.6058 7.58516 16.6664 7.99072H16.703C16.7448 7.70013 16.8389 7.21305 16.9842 6.5284L17.5015 4.18597H18.7454L17.3019 9.33493V11.8049H16.0664V9.33493H16.0675Z" fill="black"/>
<path d="M19.1196 11.6417C18.8687 11.4723 18.69 11.2089 18.5833 10.8514C18.4778 10.494 18.4245 10.0194 18.4245 9.4257V8.6177C18.4245 8.01877 18.4851 7.53692 18.6064 7.17422C18.7276 6.81152 18.9168 6.54602 19.1739 6.37982C19.4311 6.21363 19.7687 6.13 20.1868 6.13C20.5986 6.13 20.9279 6.21467 21.1766 6.384C21.4244 6.55333 21.6062 6.81883 21.7212 7.1784C21.8362 7.53901 21.8937 8.01877 21.8937 8.6177V9.4257C21.8937 10.0194 21.8373 10.4961 21.7254 10.8556C21.6136 11.2162 21.4317 11.4797 21.1808 11.6458C20.93 11.8121 20.5892 11.8957 20.1596 11.8957C19.7164 11.8967 19.3705 11.811 19.1196 11.6417ZM20.5265 10.7699C20.5955 10.5881 20.631 10.2922 20.631 9.88041V8.14632C20.631 7.74702 20.5965 7.45435 20.5265 7.27038C20.4565 7.08537 20.3342 6.99339 20.1585 6.99339C19.9893 6.99339 19.869 7.08537 19.8001 7.27038C19.73 7.4554 19.6955 7.74702 19.6955 8.14632V9.88041C19.6955 10.2922 19.7289 10.5891 19.7959 10.7699C19.8628 10.9518 19.9829 11.0427 20.1585 11.0427C20.3342 11.0427 20.4565 10.9518 20.5265 10.7699Z" fill="black"/>
<path d="M25.9399 11.806H24.9594L24.8507 11.1244H24.8236C24.557 11.6387 24.1577 11.8958 23.6246 11.8958C23.2556 11.8958 22.9828 11.7746 22.8072 11.5332C22.6316 11.2906 22.5438 10.9123 22.5438 10.398V6.2389H23.7971V10.3248C23.7971 10.5736 23.8243 10.7502 23.8786 10.8558C23.933 10.9614 24.0239 11.0147 24.1514 11.0147C24.2601 11.0147 24.3647 10.9812 24.465 10.9144C24.5654 10.8474 24.6385 10.7628 24.6876 10.6604V6.23785H25.9399V11.806Z" fill="black"/>
<path d="M29.3444 5.19446H28.1005V11.8057H26.8744V5.19446H25.6306V4.18683H29.3444V5.19446Z" fill="black"/>
<path d="M32.3672 11.806H31.3867L31.278 11.1244H31.2509C30.9843 11.6387 30.585 11.8958 30.0519 11.8958C29.683 11.8958 29.4102 11.7746 29.2346 11.5332C29.059 11.2906 28.9711 10.9123 28.9711 10.398V6.2389H30.2244V10.3248C30.2244 10.5736 30.2516 10.7502 30.3059 10.8558C30.3603 10.9614 30.4512 11.0147 30.5788 11.0147C30.6874 11.0147 30.792 10.9812 30.8923 10.9144C30.9927 10.8474 31.0658 10.7628 31.115 10.6604V6.23785H32.3672V11.806Z" fill="black"/>
<path d="M36.5148 7.1283C36.4385 6.7771 36.3162 6.5231 36.1469 6.36526C35.9775 6.20743 35.7444 6.12904 35.4476 6.12904C35.2176 6.12904 35.0023 6.19384 34.8027 6.3245C34.603 6.45516 34.4483 6.62554 34.3396 6.83772H34.3302V3.90472H33.1229V11.8048H34.1577L34.2852 11.278H34.3124C34.4096 11.4661 34.5549 11.6135 34.7483 11.7233C34.9417 11.832 35.157 11.8863 35.3932 11.8863C35.8166 11.8863 36.1291 11.6909 36.3287 11.301C36.5284 10.91 36.6287 10.3007 36.6287 9.47075V8.58959C36.6287 7.96765 36.59 7.47951 36.5148 7.1283ZM35.366 9.39964C35.366 9.80519 35.3493 10.123 35.3159 10.3529C35.2824 10.5829 35.227 10.747 35.1476 10.8431C35.0692 10.9403 34.9626 10.9884 34.8298 10.9884C34.7263 10.9884 34.6312 10.9644 34.5434 10.9153C34.4556 10.8672 34.3846 10.794 34.3302 10.6979V7.53805C34.372 7.38648 34.4452 7.26314 34.5487 7.16594C34.6511 7.06873 34.764 7.02064 34.8842 7.02064C35.0117 7.02064 35.1099 7.07082 35.179 7.17012C35.249 7.27046 35.2971 7.4377 35.3243 7.67393C35.3514 7.91016 35.365 8.24568 35.365 8.68155V9.39964H35.366Z" fill="black"/>
<path d="M38.4067 9.72051C38.4067 10.078 38.4171 10.3456 38.438 10.5243C38.4589 10.703 38.5028 10.8327 38.5697 10.9153C38.6366 10.9968 38.7391 11.0375 38.8781 11.0375C39.0652 11.0375 39.1948 10.9644 39.2638 10.8191C39.3338 10.6738 39.3715 10.4313 39.3777 10.0926L40.4585 10.1564C40.4648 10.2045 40.4679 10.2714 40.4679 10.356C40.4679 10.8703 40.3268 11.255 40.0456 11.509C39.7645 11.763 39.3662 11.8905 38.852 11.8905C38.2342 11.8905 37.8015 11.6971 37.5537 11.3093C37.305 10.9215 37.1816 10.3226 37.1816 9.51145V8.53936C37.1816 7.70421 37.3102 7.09378 37.5673 6.70913C37.8245 6.32447 38.2645 6.13214 38.8885 6.13214C39.3181 6.13214 39.6484 6.21054 39.8784 6.36837C40.1084 6.5262 40.2704 6.77079 40.3644 7.10423C40.4585 7.43767 40.5056 7.89759 40.5056 8.485V9.43829H38.4067V9.72051ZM38.5656 7.09692C38.5018 7.17531 38.46 7.30388 38.438 7.48262C38.4171 7.66136 38.4067 7.93208 38.4067 8.29585V8.69514H39.3234V8.29585C39.3234 7.93835 39.3108 7.66763 39.2868 7.48262C39.2628 7.29761 39.2188 7.16799 39.1551 7.09169C39.0913 7.01643 38.9931 6.97776 38.8603 6.97776C38.7265 6.9788 38.6283 7.01852 38.5656 7.09692Z" fill="black"/>
</g>
</g>
<defs>
<clipPath id="clip0_736_146">
<rect width="40" height="16" fill="white" transform="translate(0.688599)"/>
</clipPath>
<clipPath id="clip1_736_146">
<rect width="40" height="8.88889" fill="white" transform="translate(0.688599 3.55554)"/>
</clipPath>
</defs>
</svg>
