<svg width="41" height="16" viewBox="0 0 41 16" fill="none" xmlns="http://www.w3.org/2000/svg">
<g clip-path="url(#clip0_746_93)">
<g clip-path="url(#clip1_746_93)">
<path d="M8.84941 12.3131H1.79572C1.32946 12.3131 0.887108 12.0683 0.67191 11.6502C0.426825 11.1725 0.516491 10.5992 0.893083 10.2229L5.80077 5.31981H2.28589C1.3175 5.31981 0.534424 4.53747 0.534424 3.56998H7.03218C7.49842 3.56998 7.94077 3.81484 8.15597 4.23289C8.40109 4.71065 8.31141 5.28397 7.93481 5.66022L3.02712 10.5633H7.09793C8.06632 10.5633 8.84941 11.3457 8.84941 12.3131ZM36.7653 3.4386C35.7551 3.4386 34.8463 3.87456 34.2246 4.5733C33.5971 3.87456 32.6884 3.4386 31.6842 3.4386C29.8071 3.4386 28.2769 5.03912 28.2769 6.90838V12.3131C29.2453 12.3131 30.0283 11.5308 30.0283 10.5633V6.89047C30.0283 5.98868 30.7277 5.22425 31.6244 5.18842C32.5689 5.15259 33.352 5.91104 33.352 6.84867V10.5633C33.352 11.5308 34.135 12.3131 35.1034 12.3131V6.89047C35.1034 5.98868 35.8028 5.22425 36.6993 5.18842C37.6439 5.15259 38.4271 5.91104 38.4271 6.84867V10.5633C38.4271 11.5308 39.2102 12.3131 40.1783 12.3131V6.90838C40.1723 5.03912 38.6421 3.4386 36.7653 3.4386ZM17.6844 7.94155C17.6844 10.426 15.664 12.4445 13.1772 12.4445C10.6905 12.4445 8.67007 10.426 8.67007 7.94155C8.67007 5.45716 10.6965 3.4386 13.1772 3.4386C15.658 3.4386 17.6844 5.45716 17.6844 7.94155ZM15.933 7.94155C15.933 6.42465 14.6956 5.18842 13.1772 5.18842C11.6589 5.18842 10.4215 6.42465 10.4215 7.94155C10.4215 9.45849 11.6589 10.6947 13.1772 10.6947C14.6956 10.6947 15.933 9.45849 15.933 7.94155ZM27.3981 7.94155C27.3981 10.426 25.3778 12.4445 22.8911 12.4445C20.4042 12.4445 18.3838 10.426 18.3838 7.94155C18.3838 5.45716 20.4104 3.4386 22.8911 3.4386C25.3717 3.4386 27.3981 5.45716 27.3981 7.94155ZM25.6467 7.94155C25.6467 6.42465 24.4094 5.18842 22.8911 5.18842C21.3727 5.18842 20.1353 6.42465 20.1353 7.94155C20.1353 9.45849 21.3727 10.6947 22.8911 10.6947C24.4094 10.6947 25.6467 9.45849 25.6467 7.94155Z" fill="#0B5CFF"/>
</g>
</g>
<defs>
<clipPath id="clip0_746_93">
<rect width="40" height="16" fill="white" transform="translate(0.534424)"/>
</clipPath>
<clipPath id="clip1_746_93">
<rect width="40" height="9.12281" fill="white" transform="translate(0.534424 3.4386)"/>
</clipPath>
</defs>
</svg>
